<?xml version="1.0" encoding="UTF-8"?>
<svg height="762.55" width="564.64" xmlns="http://www.w3.org/2000/svg">
 <g>
  <path style="fill:rgb(206,221,228);stroke:none;stroke-width:1.0;" d="M382.590 8.650 L382.590 26.450 L548.670 26.450 C548.670 26.450 554.340 26.450 554.340 20.780 L554.340 8.650 Z"/>
  <path style="fill:none;stroke:rgb(0,0,0);stroke-width:1.0;" d="M40.640 752.550 L554.640 752.550 "/>
  <path style="fill:none;stroke:rgb(206,221,228);stroke-width:0.3;" d="M159.130 183.870 L552.640 183.870 "/>
  <path style="fill:none;stroke:rgb(206,221,228);stroke-width:1.0;" d="M156.140 183.870 L156.140 183.870 M554.140 183.870 L554.140 183.870 "/>
  <path style="fill:none;stroke:rgb(0,0,0);stroke-width:1.0;" d="M155.640 46.620 L223.420 46.620 "/>
  <path style="fill:none;stroke:rgb(0,0,0);stroke-width:0.25;" d="M155.760 65.620 L155.760 46.750 "/>
  <path style="fill:none;stroke:rgb(0,0,0);stroke-width:0.25;" d="M155.640 65.750 L223.420 65.750 "/>
  <path style="fill:none;stroke:rgb(0,0,0);stroke-width:0.25;" d="M223.420 46.620 L312.530 46.620 "/>
  <path style="fill:none;stroke:rgb(0,0,0);stroke-width:0.25;" d="M223.420 65.620 L223.420 46.750 "/>
  <path style="fill:none;stroke:rgb(0,0,0);stroke-width:0.25;" d="M223.420 65.750 L312.530 65.750 "/>
  <path style="fill:none;stroke:rgb(0,0,0);stroke-width:0.25;" d="M312.530 46.620 L499.280 46.620 "/>
  <path style="fill:none;stroke:rgb(0,0,0);stroke-width:0.25;" d="M312.530 65.620 L312.530 46.750 "/>
  <path style="fill:none;stroke:rgb(0,0,0);stroke-width:0.25;" d="M499.150 65.620 L499.150 46.750 "/>
  <path style="fill:none;stroke:rgb(0,0,0);stroke-width:0.25;" d="M312.530 65.750 L499.280 65.750 "/>
  <path style="fill:none;stroke:rgb(0,0,0);stroke-width:0.25;" d="M155.760 84.870 L155.760 65.870 "/>
  <path style="fill:none;stroke:rgb(0,0,0);stroke-width:0.25;" d="M155.760 96.370 L155.760 84.870 "/>
  <path style="fill:none;stroke:rgb(0,0,0);stroke-width:0.25;" d="M223.420 84.750 L223.420 65.870 "/>
  <path style="fill:none;stroke:rgb(0,0,0);stroke-width:0.25;" d="M312.530 84.750 L312.530 65.870 "/>
  <path style="fill:none;stroke:rgb(0,0,0);stroke-width:0.25;" d="M499.150 84.750 L499.150 65.870 "/>
  <path style="fill:none;stroke:rgb(0,0,0);stroke-width:0.25;" d="M223.290 84.870 L312.530 84.870 "/>
  <path style="fill:none;stroke:rgb(0,0,0);stroke-width:0.25;" d="M223.420 96.370 L223.420 85.000 "/>
  <path style="fill:none;stroke:rgb(0,0,0);stroke-width:0.25;" d="M312.530 84.870 L499.280 84.870 "/>
  <path style="fill:none;stroke:rgb(0,0,0);stroke-width:0.25;" d="M312.530 96.370 L312.530 85.000 "/>
  <path style="fill:none;stroke:rgb(0,0,0);stroke-width:0.25;" d="M499.150 96.500 L499.150 85.000 "/>
  <path style="fill:none;stroke:rgb(0,0,0);stroke-width:0.25;" d="M499.150 115.620 L499.150 96.500 "/>
  <path style="fill:none;stroke:rgb(0,0,0);stroke-width:0.25;" d="M499.150 127.120 L499.150 115.620 "/>
  <path style="fill:none;stroke:rgb(0,0,0);stroke-width:0.25;" d="M312.530 127.250 L499.280 127.250 "/>
  <path style="fill:none;stroke:rgb(0,0,0);stroke-width:0.25;" d="M155.640 96.500 L223.420 96.500 "/>
  <path style="fill:none;stroke:rgb(0,0,0);stroke-width:0.25;" d="M155.760 115.620 L155.760 96.620 "/>
  <path style="fill:none;stroke:rgb(0,0,0);stroke-width:0.25;" d="M155.760 127.120 L155.760 115.620 "/>
  <path style="fill:none;stroke:rgb(0,0,0);stroke-width:0.25;" d="M155.640 127.250 L223.420 127.250 "/>
  <path style="fill:none;stroke:rgb(0,0,0);stroke-width:0.25;" d="M223.420 96.500 L312.650 96.500 "/>
  <path style="fill:none;stroke:rgb(0,0,0);stroke-width:0.25;" d="M223.420 115.500 L223.420 96.620 "/>
  <path style="fill:none;stroke:rgb(0,0,0);stroke-width:0.25;" d="M312.530 115.500 L312.530 96.620 "/>
  <path style="fill:none;stroke:rgb(0,0,0);stroke-width:0.25;" d="M223.290 115.620 L312.650 115.620 "/>
  <path style="fill:none;stroke:rgb(0,0,0);stroke-width:0.25;" d="M223.420 127.120 L223.420 115.750 "/>
  <path style="fill:none;stroke:rgb(0,0,0);stroke-width:0.25;" d="M312.530 127.120 L312.530 115.750 "/>
  <path style="fill:none;stroke:rgb(0,0,0);stroke-width:0.25;" d="M223.420 127.250 L312.530 127.250 "/>
  <path style="fill:none;stroke:rgb(206,221,228);stroke-width:0.25;" d="M159.130 414.780 L552.640 414.780 "/>
  <path style="fill:none;stroke:rgb(206,221,228);stroke-width:1.0;" d="M156.140 414.780 L156.140 414.780 M554.140 414.780 L554.140 414.780 "/>
 </g>
</svg>
