<?xml version="1.0" encoding="UTF-8"?>
<svg height="743.829" width="4075.511" xmlns="http://www.w3.org/2000/svg">
 <g id="page" xmlns:svgx="http://www.xml-cml.org/schema/svgx">
  <g begin="text">
   <text y="32.946" x="323.253,326.017,331.164,335.998,340.017,344.933,349.505,353.0159,354.617,359.766,363.4263,364.995,370.143,374.328,378.666,383.5,386.848,390.844,394.561,396.346,401.494,406.41,410.982,414.4929,416.085,420.657,425.573,430.5779,432.134,435.81,440.726,444.894,446.679,450.698,455.846,460.762,466.768,470.444,475.36,478.519,483.091,486.6019,488.23,493.046,496.817,501.642,503.427,507.102,512.018" svgx:width="0.37,0.69,0.65,0.54,0.66,0.61,0.47,0.55,0.69,0.49,0.55,0.69,0.58,0.58,0.65,0.53,0.61,0.5,0.24,0.69,0.66,0.61,0.47,0.55,0.61,0.66,0.67,0.55,0.49,0.66,0.56,0.24,0.54,0.69,0.66,0.8,0.49,0.66,0.5,0.61,0.47,0.55,0.65,0.54,0.65,0.24,0.49,0.66,0.49" style="fill:rgb(35,31,32);font-family:MyriadPro-Regular;font-size:7.47px;stroke:none;">JOURNAL OF OCCUPATIONAL AND ENVIRONMENTAL HYGIENE</text>
  </g>
  <path style="fill:rgb(35,31,32);stroke:none;stroke-width:1.0;" d="M527.700 30.500 L530.770 30.500 L530.880 30.250 L527.590 30.250 L527.700 30.500 "/>
  <path style="fill:rgb(35,31,32);stroke:none;stroke-width:1.0;" d="M527.530 30.110 L530.940 30.110 L531.040 29.850 L527.420 29.850 L527.530 30.110 "/>
  <path style="fill:rgb(35,31,32);stroke:none;stroke-width:1.0;" d="M525.810 28.700 C525.810 28.700 525.150 30.150 525.820 30.170 C525.820 30.170 526.430 30.190 525.810 28.700 "/>
  <path style="fill:rgb(35,31,32);stroke:none;stroke-width:1.0;" d="M529.780 28.280 C529.780 28.280 528.200 28.980 529.190 29.610 C529.190 29.610 529.140 29.100 529.780 28.280 "/>
  <path style="fill:rgb(35,31,32);stroke:none;stroke-width:1.0;" d="M531.630 31.670 C531.730 31.550 531.830 31.410 531.910 31.280 C531.910 31.280 532.070 31.040 532.150 30.820 L532.860 30.630 C532.440 31.590 531.810 31.670 531.630 31.670 M531.980 30.630 L526.210 30.630 L526.210 30.490 L525.440 30.490 L525.440 30.630 L525.270 30.630 L525.460 31.080 L526.420 31.080 C526.950 32.090 528.010 32.780 529.220 32.780 C530.070 32.780 530.840 32.440 531.410 31.900 C532.840 32.010 533.190 30.300 533.190 30.300 L531.980 30.630 "/>
  <path style="fill:rgb(35,31,32);stroke:none;stroke-width:1.0;" d="M529.170 35.450 C526.390 35.450 524.150 33.210 524.150 30.430 C524.150 27.660 526.390 25.420 529.170 25.420 C531.940 25.420 534.180 27.660 534.180 30.430 C534.180 33.210 531.940 35.450 529.170 35.450 M529.170 24.930 C526.130 24.930 523.670 27.400 523.670 30.430 C523.670 33.470 526.130 35.930 529.170 35.930 C532.200 35.930 534.670 33.470 534.670 30.430 C534.670 27.400 532.200 24.930 529.170 24.930 "/>
  <g begin="text">
   <text y="32.946" x="542.637,546.075,549.154" svgx:width="0.46,0.41,0.46" style="fill:rgb(35,31,32);font-family:MyriadPro-Regular;font-size:7.47px;stroke:none;">575</text>
  </g>
  <rect style="stroke:blue;stroke-width:0.3;" x="65.511" y="61.454" height="255.72" width="225.6" title="7"/>
  <text y="61.454" class="image" id="image.7.1" width="225" height="255" x="65.511">image.7.1.66_291.61_317</text>
  <g begin="text">
   <text y="327.066" x="59.796,64.044,66.321,71.325,76.302,79.353,83.8938,85.483,90.207" svgx:width="0.47,0.24,0.53,0.53,0.33,0.48,0.55,0.5,0.23" style="fill:rgb(6,12,129);font-family:MyriadPro-SemiboldSemiCn;font-size:9.46px;stroke:none;">Figure .</text>
   <text y="327.066" x="95.374,102.395,106.624,110.067,114.1348,115.799,119.621,123.85,128.751,131.664,136.441,139.204,143.5556,145.18,149.536,156.765,160.587,162.658,167.01,171.835,175.831,179.8988,181.563,184.164,189.065,193.417,196.179,199.95,204.307,209.132,212.0646,213.658,218.379,220.9332,222.583,226.811,231.163,233.926,238.647,242.09,246.811,248.8922,250.527,254.879,258.909,263.734,267.963,270.062,274.414,279.23859999999996,280.903,287.384,289.455,292.368" svgx:width="0.74,0.45,0.36,0.43,0.55,0.4,0.45,0.52,0.31,0.5,0.3,0.46,0.55,0.46,0.76,0.4,0.22,0.46,0.51,0.4,0.43,0.55,0.28,0.52,0.46,0.3,0.4,0.46,0.51,0.31,0.55,0.5,0.27,0.55,0.45,0.46,0.3,0.5,0.36,0.5,0.22,0.55,0.46,0.43,0.51,0.45,0.22,0.46,0.51,0.55,0.69,0.22,0.31,0.51" style="fill:rgb(35,31,32);font-family:MyriadPro-SemiCn;font-size:9.46px;stroke:none;">Mask capture eﬃciency (percent of aerosol exhaled with</text>
   <text y="338.028" x="59.796,64.053,65.385,68.382,74.755,79.624,82.446,85.892,87.965,92.831,97.186,103.414,107.939,111.991,120.433,125.337,127.486,130.1348,131.446,138.735,142.966,146.412,150.4798,151.875,156.599,162.782,167.121,171.845,176.626,179.388,183.159,187.398,189.29,190.674,193.275,198.86,203.763,208.667,213.021,215.85899999999998,217.251,221.662,225.891,230.719,235.074,237.176,239.82479999999998,241.136,245.312,247.381,252.247,256.479,258.5602,259.935,264.705,267.468,271.824,276.0,278.916,283.744,285.818,290.646,295.316" svgx:width="0.45,0.55,0.31,0.69,0.5,0.3,0.36,0.22,0.51,0.46,0.51,0.48,0.43,0.75,0.52,0.23,0.28,0.55,0.77,0.45,0.36,0.43,0.55,0.5,0.51,0.45,0.5,0.5,0.3,0.4,0.46,0.2,0.55,0.28,0.59,0.52,0.52,0.46,0.3,0.55,0.49,0.45,0.51,0.46,0.22,0.28,0.55,0.45,0.22,0.51,0.45,0.22,0.55,0.5,0.3,0.46,0.45,0.31,0.51,0.22,0.51,0.51,0.2" style="fill:rgb(35,31,32);font-family:MyriadPro-SemiCn;font-size:9.46px;stroke:none;">a two-sided%CI) mask onSource. (Upper Panel) Tidal Breathing.</text>
   <text y="348.989" x="59.796,62.398,66.358,71.02,77.392,81.745,84.583,86.47,90.88,95.11,99.936,104.289,106.389,109.03779999999999,110.853,115.633,120.357,125.136,129.971,134.797" svgx:width="0.28,0.43,0.5,0.69,0.46,0.3,0.55,0.49,0.45,0.51,0.46,0.22,0.28,0.55,0.52,0.5,0.5,0.51,0.51,0.2" style="fill:rgb(35,31,32);font-family:MyriadPro-SemiCn;font-size:9.46px;stroke:none;">(Lower Panel) Cough.</text>
   <text y="397.095" x="71.748,79.615,85.167,89.0372,92.685,96.474,99.561,105.114,110.568,115.3796,119.01,122.016,127.443,131.944,137.47,141.394,145.894,151.4378,155.055,160.265,166.018,169.624,172.883,178.427,182.9248,186.509,192.036,195.96,200.45780000000002,204.043,209.253,212.391,215.987,224.528,229.091,232.889,238.082,241.9522,245.552,250.052,255.731,261.27479999999997,264.892,268.636,273.082,276.871,282.226,285.025,288.904,293.494" svgx:width="0.75,0.53,0.37,0.55,0.37,0.31,0.53,0.53,0.46,0.55,0.3,0.51,0.42,0.53,0.37,0.43,0.53,0.55,0.51,0.55,0.55,0.31,0.53,0.43,0.55,0.53,0.37,0.43,0.55,0.51,0.3,0.55,0.82,0.44,0.37,0.5,0.37,0.55,0.44,0.55,0.53,0.55,0.37,0.43,0.37,0.52,0.27,0.37,0.44,0.36" style="fill:rgb(35,31,32);font-family:MinionPro-Regular;font-size:10.46px;stroke:none;">Our study focused on the use of masks and respira-</text>
   <text y="410.046" x="59.795,62.934,68.144,71.973,75.8432,78.984,83.524,87.3942,90.544,95.1464,98.311,106.835,111.343,115.843,121.513,125.3832,128.524,131.662,136.9966,140.167,143.911,148.411,153.811,159.363,163.792,168.2898,171.414,175.86,181.342,186.211,189.01,192.754,197.965,203.689,212.213,216.658,222.185,225.443,230.087,232.702,235.909,240.337,245.548,251.074,254.332,258.832,267.401,270.2,275.87,280.262,283.511,286.311,291.521" svgx:width="0.31,0.51,0.37,0.37,0.55,0.44,0.37,0.55,0.44,0.55,0.82,0.43,0.44,0.55,0.37,0.55,0.31,0.51,0.55,0.37,0.43,0.53,0.53,0.42,0.43,0.55,0.43,0.55,0.46,0.27,0.37,0.51,0.55,0.82,0.43,0.55,0.31,0.44,0.25,0.55,0.42,0.51,0.55,0.31,0.44,0.82,0.27,0.55,0.44,0.31,0.27,0.51,0.55" style="fill:rgb(35,31,32);font-family:MinionPro-Regular;font-size:10.46px;stroke:none;">tors as a means to reduce environmental contamination</text>
   <text y="422.998" x="59.795,64.665,67.492,72.09440000000001,74.889,80.254,84.731,88.673,92.614,95.413,99.859,103.72919999999999,106.537,111.904,115.67,120.89,124.022,128.522,133.022,136.271,139.071,144.29,150.043,152.795,157.188,160.4306,163.172,166.43,171.974,176.4718,179.201,183.125,188.345,193.898,197.664,202.092,206.58980000000003,209.327,213.828,219.507,225.0508,227.823,233.35,238.777,243.222,247.09220000000002,249.856,255.535,260.755,263.9976,266.731,270.52,276.072,281.032,285.813,290.258,294.047" svgx:width="0.46,0.27,0.44,0.55,0.51,0.44,0.37,0.37,0.27,0.43,0.37,0.55,0.52,0.37,0.51,0.31,0.43,0.42,0.31,0.27,0.51,0.55,0.55,0.44,0.31,0.55,0.31,0.53,0.43,0.55,0.37,0.51,0.53,0.37,0.42,0.43,0.55,0.44,0.55,0.53,0.55,0.53,0.51,0.43,0.37,0.55,0.55,0.51,0.31,0.55,0.37,0.53,0.47,0.47,0.43,0.37,0.31" style="fill:rgb(35,31,32);font-family:MinionPro-Regular;font-size:10.46px;stroke:none;">via barrier protection at the source and does not suggest</text>
   <text y="435.949" x="59.795,65.012,68.8822,72.32,76.109,81.536,86.899,92.471,97.688,101.674,104.9166,108.298,111.556,117.1,121.59779999999999,124.975,130.501,134.425,138.92280000000002,142.3,147.51,150.648,154.036,157.825,163.377,167.176,172.126,174.925,179.38,184.024,186.639,190.098,198.64,203.203,207.001,212.194,216.0642,219.447,224.01,227.8802,231.283,235.88539999999998,239.302,247.825,252.334,256.834,262.438,266.3082,269.71,274.927,278.065,281.453,285.215,289.661,293.504" svgx:width="0.51,0.37,0.55,0.37,0.53,0.52,0.52,0.51,0.37,0.31,0.55,0.31,0.53,0.43,0.55,0.53,0.37,0.43,0.55,0.51,0.3,0.55,0.37,0.53,0.37,0.47,0.27,0.42,0.44,0.25,0.55,0.82,0.44,0.37,0.5,0.37,0.55,0.44,0.37,0.55,0.44,0.55,0.82,0.43,0.44,0.55,0.37,0.55,0.51,0.3,0.55,0.37,0.43,0.37,0.36" style="fill:rgb(35,31,32);font-family:MinionPro-Regular;font-size:10.46px;stroke:none;">or support the use of surgical masks as a means of res-</text>
   <text y="448.901" x="59.795,65.15,67.95,71.83,76.222,79.354,84.565,88.75,93.5616,97.093,102.448,106.192,111.412,114.544,118.989,123.489,126.738,129.538,134.748,140.472,142.8778,146.386,153.901,159.111,162.9812,166.527,172.049,177.476,181.921,185.7912,189.301,191.974,195.2166,198.715,203.306,208.828,214.351,218.095,222.539,226.328,230.1982,233.699,236.958,242.543,247.04080000000002,250.525,259.092,263.592,269.073,273.8846,277.417,282.259,286.759,290.701,293.5" svgx:width="0.52,0.27,0.37,0.44,0.31,0.51,0.37,0.46,0.55,0.52,0.37,0.51,0.31,0.43,0.42,0.31,0.27,0.51,0.55,0.23,0.55,0.74,0.51,0.37,0.55,0.53,0.51,0.43,0.37,0.55,0.27,0.31,0.55,0.44,0.53,0.53,0.37,0.43,0.37,0.37,0.55,0.31,0.53,0.43,0.55,0.82,0.44,0.55,0.46,0.55,0.46,0.44,0.37,0.27,0.36" style="fill:rgb(35,31,32);font-family:MinionPro-Regular;font-size:10.46px;stroke:none;">piratory protection. Nor does it address the many vari-</text>
   <text y="461.852" x="59.795,64.304,69.542,72.177,76.611,80.4812,83.542,88.105,91.932,95.856,101.283,105.711,108.503,112.896,116.028,120.528,126.07180000000001,129.132,136.323,138.995,142.253,147.7968,150.929,154.718,160.261,164.626,170.1698,173.293,178.648,182.392,187.612,190.744,195.244,199.744,202.993,205.785,210.996,216.706,219.1118,222.161,225.988,231.531,235.897,241.4408,244.563,249.144,253.01420000000002,256.075,258.867,264.577,267.584,272.084,276.584,279.833,282.625,287.845,293.388" svgx:width="0.44,0.51,0.25,0.43,0.37,0.55,0.44,0.37,0.37,0.51,0.42,0.27,0.44,0.31,0.43,0.53,0.55,0.69,0.27,0.31,0.53,0.55,0.37,0.53,0.42,0.53,0.55,0.52,0.37,0.51,0.31,0.43,0.42,0.31,0.27,0.51,0.55,0.23,0.55,0.37,0.53,0.42,0.53,0.55,0.44,0.37,0.55,0.27,0.55,0.3,0.43,0.42,0.31,0.27,0.51,0.53,0.37" style="fill:rgb(35,31,32);font-family:MinionPro-Regular;font-size:10.46px;stroke:none;">ables associated with such protection, such as infectious</text>
   <text y="474.804" x="59.795,65.315,70.645,74.569,79.0668,81.607,86.108,91.787,97.33080000000001,99.896,103.145,107.022,111.522,117.165,121.008,129.571,132.37,136.205,140.04,142.84,148.05,153.80300000000003,156.348,164.871,170.298,175.825,180.266,184.101,186.5068,189.087,193.73,196.43,199.04500000000002,201.668,206.879,210.017,212.566,219.802,225.391,228.19,232.556,238.09980000000002,240.737,249.278,253.679,258.49060000000003,261.077,265.916,270.416,274.602,279.4136,281.991,285.826,288.626,293.517" svgx:width="0.53,0.51,0.37,0.43,0.55,0.44,0.55,0.53,0.55,0.31,0.37,0.44,0.55,0.37,0.82,0.27,0.37,0.37,0.27,0.51,0.55,0.55,0.82,0.51,0.53,0.43,0.37,0.23,0.55,0.44,0.25,0.25,0.55,0.51,0.3,0.55,0.69,0.53,0.27,0.42,0.53,0.55,0.82,0.44,0.46,0.55,0.46,0.44,0.37,0.46,0.55,0.37,0.27,0.47,0.36" style="fill:rgb(35,31,32);font-family:MinionPro-Regular;font-size:10.46px;stroke:none;">dose and transmission modes, all of which may vary sig-</text>
   <text y="487.755" x="59.795,65.525,68.336,73.94,78.372,82.872,88.398,91.656,94.23,99.0416,101.106,108.297,110.97,114.227,119.77080000000001,121.904,126.413,131.013,135.378,140.9218,143.046,145.845,151.574,154.581,159.034,163.534,166.783,169.583,174.803,180.329,184.19920000000002,186.242,189.5,195.093,198.837,203.346,207.738,210.936,213.3418,215.391,222.078,226.47,229.728,235.272,239.725,242.947,245.3528,247.411,254.494,258.9918,261.019,266.446,269.696,272.548,275.202,278.013,282.414" svgx:width="0.55,0.27,0.54,0.42,0.44,0.55,0.31,0.25,0.46,0.55,0.69,0.27,0.31,0.53,0.55,0.43,0.44,0.42,0.53,0.55,0.27,0.55,0.3,0.43,0.42,0.31,0.27,0.51,0.53,0.37,0.55,0.31,0.53,0.37,0.43,0.44,0.31,0.23,0.55,0.62,0.44,0.31,0.53,0.43,0.37,0.23,0.55,0.69,0.43,0.55,0.53,0.31,0.27,0.25,0.27,0.42,0.43" style="fill:rgb(35,31,32);font-family:MinionPro-Regular;font-size:10.46px;stroke:none;">nificantl ywit heac hinfectiou sthreat .Rather ,w eutilize</text>
   <text y="487.755" x="288.946,291.663" svgx:width="0.27,0.53" style="fill:rgb(35,31,32);font-family:MinionPro-It;font-size:10.46px;stroke:none;">in</text>
   <text y="500.707" x="59.795,64.611,67.32,70.442,74.069" svgx:width="0.45,0.27,0.31,0.37,0.47" style="fill:rgb(35,31,32);font-family:MinionPro-It;font-size:10.46px;stroke:none;">vitro</text>
   <text y="500.707" x="81.045,84.795,89.241,93.029,98.384,101.184,105.063,109.455,112.587,117.791,121.977,126.7886,128.852,134.207,137.958,143.162,146.294,150.794,155.294,158.543,161.343,166.553,172.306,174.329,182.852,187.361,191.924,195.713,201.265,205.015,209.461,217.985,222.431,227.957,231.152,235.0222,237.056,240.845,246.397,250.763,256.3068,258.422,262.985,266.8552,268.889,275.387,281.219,286.76279999999997,288.824,293.387" svgx:width="0.37,0.43,0.37,0.52,0.27,0.37,0.44,0.31,0.51,0.37,0.46,0.55,0.52,0.37,0.51,0.31,0.43,0.42,0.31,0.27,0.51,0.55,0.55,0.82,0.43,0.44,0.37,0.53,0.37,0.43,0.82,0.43,0.55,0.31,0.37,0.55,0.37,0.53,0.42,0.53,0.55,0.44,0.37,0.55,0.62,0.56,0.53,0.55,0.44,0.37" style="fill:rgb(35,31,32);font-family:MinionPro-Regular;font-size:10.46px;stroke:none;">respiratory protection measurements such as RPF as</text>
   <text y="513.657" x="59.795,64.3974,66.564,75.087,79.596,84.096,89.738,93.6082,95.742,98.874,104.20859999999999,106.38,110.811,116.021,119.963,123.707,128.159,130.812,135.204,138.336,142.83380000000002,144.96,149.406,154.35,159.921,165.262,169.051,174.612,178.356,182.8538,184.972,188.715,193.168,198.567,204.128,208.629,211.878,214.677,219.888,225.64100000000002,227.78,234.952,237.625,240.882,246.4258,248.65,252.573,257.793,263.354,267.098,271.529,276.0268,278.145,282.576,287.787,293.515" svgx:width="0.44,0.55,0.82,0.43,0.44,0.55,0.37,0.55,0.31,0.51,0.55,0.42,0.51,0.37,0.37,0.43,0.25,0.44,0.31,0.43,0.55,0.43,0.47,0.52,0.51,0.37,0.53,0.37,0.43,0.55,0.37,0.43,0.53,0.53,0.42,0.31,0.27,0.51,0.55,0.55,0.69,0.27,0.31,0.53,0.55,0.37,0.51,0.53,0.37,0.42,0.43,0.55,0.42,0.51,0.55,0.36" style="fill:rgb(35,31,32);font-family:MinionPro-Regular;font-size:10.46px;stroke:none;">a means to correlate exposure reduction with source con-</text>
   <text y="526.608" x="59.795,63.052,66.796,72.061,74.676,76.821,79.953,85.2876,87.406,90.662,96.224,100.617,103.8596,105.918,110.508,114.874,120.463,123.262,127.774,132.535,137.046,142.5898,144.687,147.943,153.533,157.277,162.496,168.049,173.017,178.5608,180.721,183.979,189.523,194.0208,196.084,201.61,205.534,210.0318,212.095,217.306,220.44400000000002,222.526,228.052,230.852,236.629,241.075,244.819,249.265,254.791,258.0336,260.092,268.633,273.196,276.994,282.187,286.0572,288.136,293.347" svgx:width="0.31,0.37,0.51,0.25,0.55,0.31,0.51,0.55,0.31,0.53,0.44,0.31,0.55,0.44,0.42,0.53,0.27,0.43,0.46,0.43,0.53,0.55,0.31,0.53,0.37,0.51,0.53,0.47,0.53,0.55,0.31,0.53,0.43,0.55,0.53,0.37,0.43,0.55,0.51,0.3,0.55,0.53,0.27,0.56,0.43,0.37,0.43,0.55,0.31,0.55,0.82,0.44,0.37,0.5,0.37,0.55,0.51,0.37" style="fill:rgb(35,31,32);font-family:MinionPro-Regular;font-size:10.46px;stroke:none;">trol to that achieved through the use of differen tmask sor</text>
   <text y="539.558" x="59.795,63.539,67.985,71.774,77.129,79.929,83.807,88.2,91.332,96.542,100.358,104.2282,106.757,111.968,117.721,120.247,123.506,129.089,133.5868,136.082,142.575,147.018,151.439,155.882,158.609,163.37,167.813,171.035,173.4408,175.975,183.842,189.393,193.2632,195.837,201.431,207.149,212.67,215.47,221.113,226.008,229.87820000000002,232.399,236.188,241.615,246.979,252.55,257.761,261.747,264.9896,267.499,270.756,276.301,280.79879999999997,283.303,288.829,292.753" svgx:width="0.37,0.43,0.37,0.52,0.27,0.37,0.44,0.31,0.51,0.37,0.37,0.55,0.51,0.55,0.55,0.31,0.53,0.43,0.55,0.62,0.43,0.42,0.43,0.27,0.46,0.43,0.37,0.23,0.55,0.75,0.53,0.37,0.55,0.54,0.55,0.53,0.27,0.55,0.47,0.37,0.55,0.37,0.53,0.52,0.52,0.51,0.37,0.31,0.55,0.31,0.53,0.43,0.55,0.53,0.37,0.43" style="fill:rgb(35,31,32);font-family:MinionPro-Regular;font-size:10.46px;stroke:none;">respirators on the Receiver. Our finding ssuppor tth euse</text>
   <text y="552.509" x="59.795,65.006,68.144,69.831,72.927,77.517,81.945,86.391,94.932,99.495,103.294,108.486,112.3562,114.054,118.617,122.4872,124.184,128.7864,130.504,136.076,141.296,144.428,148.873,154.4,157.649,160.475,165.119,167.819,170.393,175.2046,176.923,180.667,185.068,187.713,190.539,195.047,200.285,202.931,207.42880000000002,209.105,213.605,219.284,224.8278,226.538,230.966,236.176,241.819,245.662,248.434,252.223,255.355,259.801,265.327,268.5696,270.25,278.774,283.282,287.782,293.425" svgx:width="0.51,0.3,0.55,0.3,0.44,0.42,0.43,0.82,0.44,0.37,0.5,0.37,0.55,0.44,0.37,0.55,0.44,0.55,0.52,0.51,0.31,0.43,0.55,0.31,0.27,0.44,0.25,0.25,0.46,0.55,0.37,0.43,0.25,0.27,0.44,0.51,0.25,0.43,0.55,0.44,0.55,0.53,0.55,0.42,0.51,0.55,0.37,0.27,0.37,0.31,0.43,0.55,0.31,0.55,0.82,0.43,0.44,0.55,0.37" style="fill:rgb(35,31,32);font-family:MinionPro-Regular;font-size:10.46px;stroke:none;">of facemasks as a potentially reliable and consistent means</text>
   <text y="565.459" x="59.795,65.006,68.144,72.332,75.136,80.859,83.866,88.366,92.866,96.115,98.92,104.13,109.883,114.085,118.513,123.724,129.25,132.499,136.243,141.508,144.091,146.4968,150.687,155.331,160.52,163.325,169.078,173.28,176.411,181.7456,185.979,191.199,194.456,200.001,204.447,208.3172,212.557,217.004,222.485,227.329,230.134,233.878,239.088,244.811,253.38,257.827,263.353,266.612,271.255,273.87,278.141,282.569,287.779,293.503" svgx:width="0.51,0.3,0.55,0.27,0.55,0.3,0.43,0.42,0.31,0.27,0.51,0.55,0.55,0.42,0.51,0.55,0.31,0.37,0.51,0.25,0.23,0.55,0.44,0.5,0.27,0.55,0.55,0.31,0.51,0.55,0.51,0.31,0.53,0.43,0.37,0.55,0.43,0.55,0.46,0.27,0.37,0.51,0.55,0.82,0.43,0.55,0.31,0.44,0.25,0.55,0.42,0.51,0.55,0.36" style="fill:rgb(35,31,32);font-family:MinionPro-Regular;font-size:10.46px;stroke:none;">of infection control, akin to other environmental con-</text>
   <text y="578.41" x="59.795,63.045,66.789,72.053,74.673,78.5432,81.72,85.509,91.055,95.421,100.96480000000001,104.223,108.786,112.6562,115.841,119.585,124.023,127.853,133.208,136.008,139.88,144.273,147.405,152.615,156.801,161.6126,164.828,169.266,172.515,175.31,180.548,186.094,190.531,193.618,196.75,201.133,203.5388,206.731,212.309,216.809,222.523,228.0668,231.262,238.419,243.003,246.833,252.411,255.206,260.849,265.736,268.1418,271.343,276.752,282.099,286.892,290.723,293.518" svgx:width="0.31,0.37,0.51,0.25,0.37,0.55,0.37,0.53,0.42,0.53,0.55,0.44,0.37,0.55,0.37,0.43,0.37,0.52,0.27,0.37,0.44,0.31,0.51,0.37,0.46,0.55,0.43,0.31,0.27,0.51,0.53,0.43,0.31,0.31,0.43,0.23,0.55,0.53,0.44,0.55,0.53,0.55,0.69,0.44,0.37,0.53,0.27,0.55,0.47,0.23,0.55,0.52,0.53,0.46,0.37,0.27,0.36" style="fill:rgb(35,31,32);font-family:MinionPro-Regular;font-size:10.46px;stroke:none;">trols such as respiratory etiquette, hand washing, physi-</text>
   <text y="591.36" x="59.795,64.276,68.924,71.539,74.918,80.452,84.953,88.939,92.185,94.858,98.104,100.903,106.114,111.756,115.6262,118.929,123.43,129.109,134.6528,137.974,142.42,148.063,153.014,155.813,161.492,165.992,170.438,174.38,177.179,182.822,187.7382,191.066,195.494,200.705,206.231,209.477,213.221,218.486,221.105,224.9752,228.269,232.058,237.61,241.976,247.5198,250.904,255.467,259.3372,262.649,268.328,272.774,277.67,282.062,285.308,288.036,292.796" svgx:width="0.42,0.44,0.25,0.55,0.52,0.44,0.37,0.31,0.27,0.31,0.27,0.51,0.55,0.37,0.55,0.44,0.55,0.53,0.55,0.43,0.55,0.47,0.27,0.55,0.43,0.43,0.37,0.27,0.55,0.47,0.55,0.42,0.51,0.55,0.31,0.37,0.51,0.25,0.37,0.55,0.37,0.53,0.42,0.53,0.55,0.44,0.37,0.55,0.55,0.43,0.47,0.44,0.31,0.27,0.46,0.43" style="fill:rgb(35,31,32);font-family:MinionPro-Regular;font-size:10.46px;stroke:none;">cal partitions and engineering controls such as negative</text>
   <text y="604.311" x="59.795,65.15,68.894,73.34,77.129,80.918,86.471,90.214,94.7118,98.396,101.168,105.092,110.357,113.029,117.423,120.672,123.471,128.682,134.435,138.141,141.885,147.312,152.522,161.009,164.852,167.2578,170.963,180.999,186.588,189.44,192.086,196.58380000000002,200.267,204.056,209.591,213.985,217.234,220.033,224.479,230.002,233.197,236.608,240.792,244.528,249.028,254.707,260.25079999999997,263.968,267.982,275.866,282.824,293.039" svgx:width="0.52,0.37,0.43,0.37,0.37,0.53,0.37,0.43,0.55,0.27,0.37,0.51,0.25,0.44,0.31,0.27,0.51,0.55,0.55,0.37,0.51,0.51,0.82,0.37,0.23,0.55,0.97,0.53,0.27,0.25,0.43,0.55,0.4,0.52,0.44,0.31,0.27,0.43,0.55,0.31,0.37,0.4,0.55,0.44,0.55,0.53,0.55,0.4,0.77,0.67,0.97,0.4" style="fill:rgb(35,31,32);font-family:MinionPro-Regular;font-size:10.46px;stroke:none;">pressure isolation rooms. While “patients” and “HCW”</text>
   <text y="617.261" x="59.795,64.296,68.04,72.5378,77.42,82.946,86.87,91.37,96.91380000000001,101.828,107.372,111.818,115.562,120.0598,124.942,128.074,133.4086,138.344,141.143,146.669,151.115,156.642,159.891,162.69,165.966,170.7776,175.702,178.96,184.504,189.0018,193.873,202.396,207.733,211.522,214.7646,219.64,224.922,230.062,234.931,237.731,242.951,248.477,252.34720000000002,257.25,261.139,266.242,271.461,277.014,280.758,285.186,289.632,293.043" svgx:width="0.44,0.37,0.43,0.55,0.53,0.37,0.43,0.53,0.55,0.53,0.43,0.37,0.43,0.55,0.31,0.51,0.55,0.27,0.53,0.43,0.55,0.31,0.27,0.3,0.46,0.55,0.31,0.53,0.43,0.55,0.82,0.51,0.37,0.31,0.55,0.51,0.51,0.46,0.27,0.51,0.53,0.37,0.55,0.4,0.47,0.51,0.53,0.37,0.42,0.43,0.37,0.4" style="fill:rgb(35,31,32);font-family:MinionPro-Regular;font-size:10.46px;stroke:none;">are used here to identify the most obvious “Sources”</text>
   <text y="630.212" x="59.795,64.296,69.975,75.5188,78.047,82.061,88.608,93.104,97.532,101.978,104.705,109.465,113.911,117.727,121.139,125.323,127.88,135.095,137.768,141.009,146.598,149.397,155.15,157.677,162.27939999999998,164.823,170.367,175.704,179.493,184.848,187.521,190.762,195.404,198.019,200.597,204.521,208.966,212.053,215.294,218.094,223.736,228.659,231.0648,233.591,238.811,244.364,248.23420000000002,250.799,256.373,260.765,264.006,268.60839999999996,271.143,278.226,283.446,289.051,291.697" svgx:width="0.44,0.55,0.53,0.55,0.4,0.62,0.43,0.42,0.43,0.27,0.46,0.43,0.37,0.37,0.4,0.55,0.69,0.27,0.31,0.53,0.27,0.55,0.55,0.44,0.55,0.53,0.51,0.37,0.52,0.27,0.31,0.44,0.25,0.55,0.37,0.43,0.31,0.31,0.27,0.55,0.47,0.23,0.55,0.51,0.53,0.37,0.55,0.53,0.44,0.31,0.44,0.55,0.69,0.51,0.53,0.25,0.53" style="fill:rgb(35,31,32);font-family:MinionPro-Regular;font-size:10.46px;stroke:none;">and “Receivers” within a hospital setting, our data would</text>
   <text y="643.162" x="59.795,62.441,65.294,70.383,74.784,77.331,82.1426,83.991,88.384,93.748,99.13,101.677,106.4886,108.338,111.47,116.8046,118.66,123.153,128.635,133.4466,135.286,139.714,144.95,153.418,158.632,161.432,167.129,171.521,174.77,177.569,182.805,188.55800000000002,190.392,195.628,198.766,200.578,206.149,211.369,214.501,218.947,224.474,227.723,230.549,235.193,237.80800000000002,239.701,243.59,248.692,253.912,259.465,263.209,267.637,272.083,275.494,279.67800000000005,281.533,286.026,291.705" svgx:width="0.25,0.27,0.5,0.43,0.25,0.46,0.55,0.44,0.52,0.52,0.25,0.46,0.55,0.31,0.51,0.55,0.44,0.55,0.46,0.55,0.42,0.51,0.82,0.51,0.27,0.55,0.44,0.31,0.27,0.51,0.55,0.55,0.51,0.3,0.55,0.52,0.51,0.31,0.43,0.55,0.31,0.27,0.44,0.25,0.55,0.4,0.47,0.51,0.53,0.37,0.42,0.43,0.37,0.4,0.55,0.44,0.55,0.53" style="fill:rgb(35,31,32);font-family:MinionPro-Regular;font-size:10.46px;stroke:none;">likely apply to any combination of potential “Sources” and</text>
   <text y="656.122" x="59.795,63.809,70.335,74.835,79.263,83.709,86.436,91.198,95.644,99.443,103.286,104.231,108.41499999999999,112.718,117.082,119.467,124.39,126.775,129.1808,133.48,139.025,144.362,148.151,153.55,156.272,159.531,164.174,166.78900000000002,171.132,176.001,178.723,182.567,185.288,188.397,193.651,197.45,201.293,203.6988,207.98,215.911,222.869,233.0152,237.341,244.577,250.082,255.4166,259.73,265.292,269.693,274.454,278.9518,283.203,288.843,294.097" svgx:width="0.4,0.62,0.43,0.42,0.43,0.27,0.46,0.43,0.37,0.37,0.23,0.4,0.55,0.43,0.23,0.47,0.23,0.23,0.55,0.53,0.51,0.37,0.52,0.27,0.31,0.44,0.25,0.55,0.46,0.27,0.37,0.27,0.31,0.51,0.37,0.37,0.23,0.55,0.77,0.67,0.97,0.55,0.69,0.53,0.51,0.55,0.53,0.44,0.46,0.43,0.55,0.55,0.51,0.31" style="fill:rgb(35,31,32);font-family:MinionPro-Regular;font-size:10.46px;stroke:none;">“Receivers,” e.g., hospital visitors, HCW who have not</text>
   <text y="669.074" x="59.795,63.558,68.058,72.487,76.932,79.618,84.343,88.843,94.38680000000001,97.087,99.887,105.611,111.068,116.621,121.066,126.791,131.183,135.78539999999998,138.5,143.958,149.5018,152.229,156.028,161.572,166.789,169.983,173.85320000000002,176.535,181.745,185.61520000000002,188.351,193.886,198.279,201.528,204.327,208.773,214.299,217.494,221.3642,224.046,231.237,233.922,237.179,242.768,245.568,251.32100000000003,254.019,259.563,264.072,268.715,271.244,274.501,280.046,284.501,288.975,292.738" svgx:width="0.37,0.43,0.42,0.43,0.27,0.46,0.43,0.53,0.55,0.27,0.55,0.53,0.53,0.43,0.55,0.42,0.44,0.55,0.53,0.53,0.55,0.37,0.53,0.51,0.31,0.37,0.55,0.51,0.37,0.55,0.52,0.44,0.31,0.27,0.43,0.55,0.31,0.37,0.55,0.69,0.27,0.31,0.53,0.27,0.55,0.55,0.53,0.43,0.44,0.25,0.31,0.53,0.42,0.44,0.37,0.43" style="fill:rgb(35,31,32);font-family:MinionPro-Regular;font-size:10.46px;stroke:none;">received influenz af lusho ts orpatien tswith inhealthcare</text>
   <text y="682.025" x="59.795,63.719,68.165,71.252,74.501,77.294,82.937,87.822,91.6922,95.625,99.453,104.998,109.363,114.9068,118.921,123.503,127.3732,131.306,135.741,144.298,148.733,152.532,157.347,161.792,167.504,172.103,176.9146,180.869,184.613,190.04,195.25,203.737,207.6072,211.549,216.05,221.729,227.27280000000002,231.224,236.633,241.98,246.777,250.606,253.399,257.813,260.606,265.106,270.859,274.809,280.019,288.371,292.786" svgx:width="0.37,0.43,0.31,0.31,0.27,0.55,0.47,0.37,0.55,0.37,0.53,0.42,0.53,0.55,0.44,0.37,0.55,0.43,0.82,0.43,0.37,0.47,0.43,0.55,0.42,0.46,0.55,0.37,0.51,0.51,0.82,0.37,0.55,0.44,0.55,0.53,0.55,0.52,0.53,0.46,0.37,0.27,0.42,0.27,0.44,0.55,0.55,0.51,0.8,0.42,0.43" style="fill:rgb(35,31,32);font-family:MinionPro-Regular;font-size:10.46px;stroke:none;">settings such as emergency rooms and physician office</text>
   <text y="694.977" x="59.795,66.958,71.458,74.131,77.38,80.18,85.823,90.7392,93.095,96.839,102.266,107.477,115.964,119.807" svgx:width="0.69,0.44,0.27,0.31,0.27,0.55,0.47,0.55,0.37,0.51,0.51,0.82,0.37,0.23" style="fill:rgb(35,31,32);font-family:MinionPro-Regular;font-size:10.46px;stroke:none;">waiting rooms.</text>
   <text y="707.928" x="71.748,81.783,87.372,90.204,92.85,97.34779999999999,103.19,107.555,110.201,113.0,118.75,121.55,126.003,130.624,133.239,139.183,142.971,146.058,151.611,157.163,159.962,164.408,168.2782,174.146,178.646,182.39,186.8878,192.73,198.409,202.884,207.358,212.909,217.383,222.92680000000001,228.795,231.927,237.2616,243.159,247.612,252.822,258.573,264.17,268.079,276.6562,282.543,287.763,293.315" svgx:width="0.97,0.53,0.27,0.25,0.43,0.55,0.42,0.25,0.27,0.55,0.27,0.42,0.44,0.25,0.55,0.37,0.31,0.53,0.53,0.27,0.43,0.37,0.55,0.44,0.37,0.43,0.55,0.55,0.43,0.43,0.53,0.43,0.53,0.55,0.31,0.51,0.55,0.42,0.51,0.55,0.54,0.37,0.82,0.55,0.51,0.53,0.37" style="fill:rgb(35,31,32);font-family:MinionPro-Regular;font-size:10.46px;stroke:none;">While clinical studies are needed to confir mour</text>
   <text y="720.879" x="59.795,65.09,70.363,74.287,78.733,82.918,87.76,92.153,95.402,98.165,103.375,109.056,112.9,115.3058,120.19,124.69,130.371,135.015,137.621,142.381,146.225,148.997,152.86720000000003,157.745,162.956,166.094,170.966,174.224,179.769,184.26680000000002,189.13,197.656,202.157,206.541,212.086,216.637,222.362,225.124,228.968,237.494,241.3642,246.224,251.434,254.572,259.444,263.849,268.79,274.361,279.698,283.497,289.01,292.754" svgx:width="0.51,0.51,0.37,0.43,0.37,0.46,0.44,0.31,0.27,0.51,0.55,0.37,0.23,0.55,0.44,0.55,0.44,0.25,0.46,0.37,0.27,0.37,0.55,0.51,0.3,0.55,0.31,0.53,0.43,0.55,0.82,0.43,0.42,0.53,0.44,0.55,0.27,0.37,0.82,0.37,0.55,0.51,0.3,0.55,0.43,0.47,0.52,0.51,0.37,0.53,0.37,0.43" style="fill:rgb(35,31,32);font-family:MinionPro-Regular;font-size:10.46px;stroke:none;">observations, analysis of the mechanisms of exposure</text>
   <text y="733.829" x="59.795,62.624,65.296,67.816,73.342,77.131,80.38,84.286,88.679,91.811,96.311,101.85480000000001,106.121,108.92" svgx:width="0.27,0.25,0.25,0.53,0.37,0.31,0.37,0.44,0.31,0.43,0.53,0.55,0.27,0.55" style="fill:rgb(35,31,32);font-family:MinionPro-Regular;font-size:10.46px;stroke:none;">illustrated in</text>
   <text y="733.829" x="118.97,124.503,127.305,132.2,137.754,141.497,145.99480000000003,150.254" svgx:width="0.53,0.27,0.47,0.53,0.37,0.43,0.55,0.48" style="fill:rgb(0,0,132);font-family:MinionPro-Regular;font-size:10.46px;stroke:none;">Figure 1</text>
   <text y="733.829" x="159.57,164.023,169.233,177.693,182.877,185.709,191.388,195.862,201.4058,205.69,212.884,215.557,218.776,224.31980000000001,228.666,233.886,239.439,243.3092,247.629,252.866,258.449,262.949,268.476,271.725,274.398,277.655,282.048,285.297,288.024,292.785" svgx:width="0.42,0.51,0.82,0.51,0.27,0.55,0.43,0.53,0.55,0.69,0.27,0.31,0.53,0.55,0.51,0.53,0.37,0.55,0.51,0.53,0.44,0.55,0.31,0.27,0.31,0.44,0.31,0.27,0.46,0.43" style="fill:rgb(35,31,32);font-family:MinionPro-Regular;font-size:10.46px;stroke:none;">combined with our quantitative</text>
   <text y="59.756" x="315.161,320.683,325.075,328.334,332.9364,337.253,341.09,346.642,351.602,356.417,360.86,364.698,367.886,371.75620000000004,376.049,379.972,385.192,390.745,394.489,398.912,403.40979999999996,407.696,412.118,417.329,422.855,426.104,429.848,435.113,437.728,442.079,446.642,450.5122,454.814,459.314,465.067,469.367,473.76,479.124,484.479,488.223,493.614,498.205,502.57,508.11379999999997,512.488,515.62,520.9546,525.286,529.029,533.53,538.93,544.482,548.905" svgx:width="0.53,0.44,0.31,0.44,0.55,0.37,0.53,0.47,0.47,0.43,0.37,0.31,0.37,0.55,0.37,0.51,0.53,0.37,0.42,0.43,0.55,0.42,0.51,0.55,0.31,0.37,0.51,0.25,0.55,0.44,0.37,0.55,0.44,0.55,0.55,0.44,0.52,0.52,0.37,0.51,0.44,0.42,0.53,0.55,0.31,0.51,0.55,0.37,0.43,0.53,0.53,0.42,0.36" style="fill:rgb(35,31,32);font-family:MinionPro-Regular;font-size:10.46px;stroke:none;">data suggests source control as an approach to reduc-</text>
   <text y="72.708" x="315.161,317.957,323.599,328.5152,332.545,336.991,341.92,347.492,352.818,356.649,362.195,365.939,370.322,372.7278,376.758,382.095,387.305,391.1752,395.235,399.68,404.61,409.11,417.48,422.889,425.527,429.91,432.3158,436.336,439.135,442.27299999999997,446.281,449.539,455.116,459.61379999999997,463.613,469.148,473.54,476.789,479.588,484.026,489.552,492.7946,496.788,499.587,505.34,509.37,513.9724,518.01,523.724,528.161,533.048,537.441,540.69,543.417,548.178" svgx:width="0.27,0.55,0.47,0.55,0.43,0.47,0.52,0.51,0.37,0.53,0.37,0.43,0.23,0.55,0.53,0.51,0.37,0.55,0.43,0.47,0.44,0.82,0.52,0.25,0.43,0.23,0.55,0.27,0.3,0.55,0.31,0.53,0.43,0.55,0.52,0.44,0.31,0.27,0.43,0.55,0.31,0.55,0.27,0.55,0.55,0.44,0.55,0.55,0.43,0.47,0.44,0.31,0.27,0.46,0.43" style="fill:rgb(35,31,32);font-family:MinionPro-Regular;font-size:10.46px;stroke:none;">ing exposure. For example, if the patient in a negative</text>
   <text y="85.659" x="315.161,320.516,324.271,328.717,332.505,336.294,341.847,345.601,350.0988,352.819,356.574,362.001,367.209,375.7862,378.549,385.632,390.078,393.832,398.3298,401.05,404.182,409.51660000000004,412.291,419.374,423.883,428.348,432.2182,434.999,439.6014,442.37,446.159,451.712,455.51,460.46,463.259,467.715,472.358,474.973,477.776,486.317,490.88,494.678,499.908,502.635,505.641,510.85,514.7202,517.501,522.1034,524.871,530.443,534.889,538.83,541.63,547.057" svgx:width="0.52,0.37,0.43,0.37,0.37,0.53,0.37,0.43,0.55,0.37,0.51,0.51,0.82,0.55,0.69,0.43,0.37,0.43,0.55,0.31,0.51,0.55,0.69,0.43,0.44,0.37,0.55,0.44,0.55,0.37,0.53,0.37,0.47,0.27,0.42,0.44,0.25,0.55,0.82,0.44,0.37,0.5,0.55,0.3,0.51,0.37,0.55,0.44,0.55,0.52,0.43,0.37,0.27,0.51,0.53" style="fill:rgb(35,31,32);font-family:MinionPro-Regular;font-size:10.46px;stroke:none;">pressure room were to wear a surgical mask for a period</text>
   <text y="98.611" x="315.161,320.372,323.51,326.6,329.847,332.647,341.17,345.6678,348.757,354.112,358.054,360.853,366.065,369.9352,373.085,376.217,381.5516,384.686,387.945,393.489,397.98679999999996,401.076,405.522,411.048,414.295,418.481,423.2926,426.41,431.62,434.758,437.849,442.4514,445.579,453.464,460.421,469.08,471.4858,474.606,478.989,481.374,486.326,488.711,491.1168,494.238,497.244,502.455,506.3252,509.466,513.361,517.864,522.624,527.07,530.949,535.592,538.207,541.379,545.88,548.679" svgx:width="0.51,0.3,0.55,0.31,0.27,0.82,0.43,0.55,0.52,0.37,0.27,0.51,0.37,0.55,0.31,0.51,0.55,0.31,0.53,0.43,0.55,0.43,0.55,0.31,0.37,0.46,0.55,0.51,0.3,0.55,0.44,0.55,0.77,0.67,0.97,0.23,0.55,0.43,0.23,0.47,0.23,0.23,0.55,0.3,0.51,0.37,0.55,0.37,0.43,0.46,0.43,0.37,0.44,0.25,0.55,0.44,0.27,0.37" style="fill:rgb(35,31,32);font-family:MinionPro-Regular;font-size:10.46px;stroke:none;">of time prior to the entry of a HCW, e.g., for several air</text>
   <text y="111.562" x="315.161,319.607,324.467,328.833,334.395,338.895,344.537,349.353,353.798,357.637,360.0428,362.218,366.664,371.602,377.173,382.51,386.349,391.904,395.648,400.1458,402.326,409.409,414.629,420.184,422.83,428.37379999999996,430.588,435.988,440.4858,442.674,446.518,449.321,454.271,459.993,462.797,468.393,472.818,477.318,482.845,486.102,488.677,493.4886,495.705,499.449,503.95,509.349,514.904,519.329,523.829,529.292,531.6978,533.9,540.353,545.939,548.743" svgx:width="0.43,0.47,0.42,0.53,0.44,0.55,0.47,0.43,0.37,0.23,0.55,0.43,0.47,0.52,0.51,0.37,0.53,0.37,0.43,0.55,0.69,0.51,0.53,0.25,0.53,0.55,0.51,0.43,0.55,0.37,0.27,0.47,0.55,0.27,0.54,0.42,0.44,0.55,0.31,0.25,0.46,0.55,0.37,0.43,0.53,0.53,0.42,0.43,0.53,0.23,0.55,0.62,0.53,0.27,0.37" style="fill:rgb(35,31,32);font-family:MinionPro-Regular;font-size:10.46px;stroke:none;">exchanges, exposure would be significantl yreduced .This</text>
   <text y="124.514" x="315.161,320.444,325.754,329.678,334.124,338.309,343.151,347.544,350.793,353.592,358.804,364.55699999999996,368.11,372.502,377.867,383.276,385.921,388.721,393.167,397.0372,400.592,403.724,409.0586,412.643,417.286,419.986,422.601,426.216,429.475,435.019,439.5168,443.038,446.782,452.209,457.42,465.907,469.7772,473.33,478.523,483.95,487.19259999999997,490.726,493.985,499.529,504.0268,507.559,516.1,520.636,525.586,531.31,533.983,537.07,542.622,548.149" svgx:width="0.51,0.51,0.37,0.43,0.37,0.46,0.44,0.31,0.27,0.51,0.55,0.55,0.44,0.52,0.52,0.25,0.27,0.43,0.37,0.55,0.31,0.51,0.55,0.44,0.25,0.25,0.55,0.31,0.53,0.43,0.55,0.37,0.51,0.51,0.82,0.37,0.55,0.51,0.53,0.31,0.55,0.31,0.53,0.43,0.55,0.82,0.44,0.47,0.55,0.27,0.31,0.53,0.53,0.43" style="fill:rgb(35,31,32);font-family:MinionPro-Regular;font-size:10.46px;stroke:none;">observation applies to all the rooms but the magnitude</text>
   <text y="137.465" x="315.161,320.376,323.51399999999995,326.001,329.258,334.803,339.3008,341.768,346.214,351.963,356.463,360.963,364.2056,366.678,372.204,376.65,382.221,386.667,392.346,397.846,401.7162,404.209,409.42,415.173,417.673,420.931,426.475,430.9728,433.45,436.249,441.776,444.908,449.354,453.232,457.823,462.323,465.572,468.371,473.586,479.339,481.83,487.045,490.183,492.67,496.594,501.814,507.366,511.11,515.538,520.0358,522.513,526.941,532.153,537.679,540.929,544.689,549.954" svgx:width="0.51,0.3,0.55,0.31,0.53,0.43,0.55,0.43,0.56,0.43,0.42,0.31,0.55,0.53,0.43,0.52,0.43,0.55,0.53,0.37,0.55,0.51,0.55,0.55,0.31,0.53,0.43,0.55,0.27,0.55,0.31,0.43,0.37,0.44,0.42,0.31,0.27,0.51,0.55,0.55,0.51,0.3,0.55,0.37,0.51,0.53,0.37,0.42,0.43,0.55,0.42,0.51,0.55,0.31,0.37,0.51,0.25" style="fill:rgb(35,31,32);font-family:MinionPro-Regular;font-size:10.46px;stroke:none;">of the effec tdepend so nth einteractio no fsourc econtrol</text>
   <text y="150.417" x="315.161,319.662,325.341,330.8848,333.405,336.664,342.239,346.73679999999996,349.223,352.967,358.394,363.605,371.318,372.659,376.5292,379.031,383.466,388.948,393.781,396.574,400.318,405.529,411.241,419.798,424.233,429.76,432.94,435.3458,437.872,442.454,446.3242,448.835,454.159,459.463,463.387,467.833,472.018,476.779,481.279,486.8228,489.343,492.136,497.889,500.408,503.666,509.21,513.7078,516.186,523.701,528.136,533.021,537.414,540.663,543.39,548.151" svgx:width="0.44,0.55,0.53,0.55,0.31,0.53,0.43,0.55,0.37,0.51,0.51,0.82,0.22,0.37,0.55,0.43,0.55,0.46,0.27,0.37,0.51,0.55,0.82,0.43,0.55,0.31,0.23,0.55,0.44,0.37,0.55,0.51,0.51,0.37,0.43,0.37,0.46,0.43,0.53,0.55,0.27,0.55,0.55,0.31,0.53,0.43,0.55,0.74,0.43,0.47,0.44,0.31,0.27,0.46,0.43" style="fill:rgb(35,31,32);font-family:MinionPro-Regular;font-size:10.46px;stroke:none;">and the room’s environment, as observed in the Negative</text>
   <text y="163.368" x="315.161,320.51,324.258,328.704,332.493,336.282,341.834,345.582,350.0798,352.396,356.144,361.571,366.773,375.341" svgx:width="0.52,0.37,0.43,0.37,0.37,0.53,0.37,0.43,0.55,0.37,0.51,0.51,0.82,0.23" style="fill:rgb(35,31,32);font-family:MinionPro-Regular;font-size:10.46px;stroke:none;">pressure room.</text>
   <text y="176.319" x="327.114,334.926,340.479,344.3492,347.751,353.304,357.696,360.954,365.5564,368.928,377.469,381.87,386.6816,390.051,395.635,400.079,402.599,408.0382,411.473,414.274,420.027,423.391,428.912,433.356,437.193,439.994,444.888,450.608,453.409,459.052,463.9682,467.323,472.723,477.167,480.254,483.386,487.832,491.7022,495.104,503.645,508.235,512.072,517.259,521.096,523.5018,526.847,530.241,535.994,539.357,542.616,548.16" svgx:width="0.75,0.53,0.37,0.55,0.53,0.44,0.31,0.44,0.55,0.82,0.44,0.46,0.55,0.53,0.43,0.25,0.52,0.55,0.27,0.55,0.55,0.53,0.43,0.37,0.27,0.47,0.55,0.27,0.55,0.47,0.55,0.51,0.43,0.31,0.31,0.43,0.37,0.55,0.82,0.44,0.37,0.5,0.37,0.23,0.55,0.34,0.55,0.55,0.31,0.53,0.43" style="fill:rgb(35,31,32);font-family:MinionPro-Regular;font-size:10.46px;stroke:none;">Our data may help in designing better masks. In the</text>
   <text y="189.27" x="315.161,322.911,328.248,332.037,337.392,340.066,343.325,347.969,350.584,355.187,358.939,364.366,369.572,378.141,380.5468,385.098,392.334,397.878,402.324,408.077,412.619,415.877,421.421,425.867,429.619,434.1168,438.628,445.792,450.355,454.22520000000003,458.769,463.27,469.02299999999997,473.557,476.356,482.035,486.463,490.216,494.724,499.287,503.211,507.711,513.2548,517.809,523.016,528.442,531.663,538.827,543.291,547.043" svgx:width="0.77,0.51,0.37,0.52,0.27,0.31,0.44,0.25,0.55,0.37,0.51,0.51,0.82,0.23,0.55,0.69,0.53,0.43,0.55,0.55,0.31,0.53,0.43,0.37,0.43,0.55,0.69,0.44,0.37,0.55,0.44,0.55,0.55,0.27,0.55,0.42,0.37,0.43,0.44,0.37,0.43,0.53,0.55,0.51,0.53,0.31,0.69,0.44,0.37,0.53" style="fill:rgb(35,31,32);font-family:MinionPro-Regular;font-size:10.46px;stroke:none;">Hospital room, when there was an increased outward</text>
   <text y="202.222" x="315.161,317.8,322.308,326.892,332.072,336.608,341.423,345.9208,349.505,353.898,357.1406,360.729,363.987,369.565,374.0628,377.647,382.75,387.97,393.516,397.26,401.676,406.17379999999997,409.758,413.369,417.753,420.129,425.017,427.393,429.79879999999997,433.423,436.061,440.499,444.329,448.1992,451.809,456.393,460.83,464.574,469.911,473.835,479.1,481.71500000000003,485.382,489.837,494.229,499.594,502.681,508.233,511.977,516.477,522.0208,525.639,530.778,535.5896,539.23,542.487,548.065" svgx:width="0.25,0.43,0.44,0.5,0.44,0.47,0.43,0.55,0.44,0.31,0.55,0.31,0.53,0.43,0.55,0.47,0.51,0.53,0.37,0.42,0.43,0.55,0.35,0.43,0.23,0.47,0.23,0.23,0.55,0.25,0.43,0.37,0.37,0.55,0.44,0.43,0.37,0.51,0.37,0.51,0.25,0.55,0.42,0.44,0.52,0.31,0.53,0.37,0.43,0.53,0.55,0.51,0.46,0.55,0.31,0.53,0.43" style="fill:rgb(35,31,32);font-family:MinionPro-Regular;font-size:10.46px;stroke:none;">leakage at the Source (e.g., less aerosol captured by the</text>
   <text y="215.173" x="315.161,323.703,328.266,332.064,337.257,340.918,343.125,346.384,351.928,356.374,360.118,364.6158,366.814,373.977,378.54,382.41020000000003,384.642,388.386,392.883,398.283,403.836,408.264,412.761,418.3048,420.536,425.891,429.635,434.855,437.987,442.484,446.96,450.202,453.001,458.212,463.965,466.186,469.804,473.548,478.046,483.445,488.998,493.426,497.923,503.4668,505.708,512.255,518.087,523.622,527.2829999999999,529.499,533.892,537.1346000000001,539.346,542.588,548.132" svgx:width="0.82,0.44,0.37,0.5,0.35,0.55,0.31,0.53,0.43,0.37,0.43,0.55,0.69,0.44,0.37,0.55,0.37,0.43,0.53,0.53,0.42,0.43,0.53,0.55,0.52,0.37,0.51,0.31,0.43,0.42,0.31,0.27,0.51,0.55,0.55,0.35,0.37,0.43,0.53,0.53,0.42,0.43,0.53,0.55,0.62,0.56,0.53,0.35,0.55,0.44,0.31,0.55,0.31,0.53,0.43" style="fill:rgb(35,31,32);font-family:MinionPro-Regular;font-size:10.46px;stroke:none;">mask) there was reduced protection (reduced RPF) at the</text>
   <text y="228.125" x="315.161,321.67,326.129,330.566,335.024,337.751,342.512,346.971,350.193,352.5988,354.171,360.696,365.155,370.555,376.122,380.559,383.375,389.018,393.9342,395.507,398.603,403.208,407.645,412.104,417.459,420.275,424.733,429.171,433.6688,435.21,438.954,443.399,447.251,450.067,453.856,457.115,461.615,467.294,471.731,476.2288,477.77,484.853,490.073,495.641,498.3,505.418,509.162,513.621,519.021,524.588,529.025,533.5228,535.064,540.284,545.711,548.906" svgx:width="0.62,0.43,0.42,0.43,0.27,0.46,0.43,0.37,0.23,0.55,0.62,0.43,0.53,0.53,0.42,0.27,0.55,0.47,0.55,0.3,0.44,0.42,0.43,0.52,0.27,0.43,0.42,0.43,0.55,0.37,0.43,0.37,0.27,0.37,0.31,0.44,0.55,0.42,0.43,0.55,0.69,0.51,0.53,0.25,0.53,0.37,0.43,0.53,0.53,0.42,0.43,0.55,0.51,0.53,0.31,0.36" style="fill:rgb(35,31,32);font-family:MinionPro-Regular;font-size:10.46px;stroke:none;">Receiver. Reducing facepiece resistance wouldreduce out-</text>
   <text y="241.076" x="315.161,322.325,326.825,330.569,336.1128,338.156,340.801,345.309,349.953,355.146,359.682,364.497,368.9948,371.013,375.513,381.233,386.7768,388.829,397.394,401.795,406.6066,408.662,413.09,418.302,426.672,432.243,436.689,442.331,446.237,450.63,453.762,458.2598,460.268,463.275,468.485,472.3552,474.425,479.999,484.4,491.563,495.4332,497.477,504.64,507.313,510.571,516.1148000000001,518.239,521.498,527.042,531.5398,533.549,539.021,542.2636,544.286,549.496" svgx:width="0.69,0.44,0.37,0.53,0.55,0.25,0.43,0.44,0.5,0.44,0.47,0.43,0.55,0.44,0.55,0.53,0.55,0.82,0.44,0.46,0.55,0.42,0.51,0.82,0.52,0.43,0.55,0.37,0.44,0.31,0.43,0.55,0.3,0.51,0.37,0.55,0.53,0.44,0.69,0.37,0.55,0.69,0.27,0.31,0.53,0.55,0.31,0.53,0.43,0.55,0.54,0.31,0.55,0.51,0.3" style="fill:rgb(35,31,32);font-family:MinionPro-Regular;font-size:10.46px;stroke:none;">ward leakage and may compensate for flaw swit hth ef itof</text>
   <text y="254.028" x="315.161,319.7634,322.127,330.668,335.232,339.03,344.223" svgx:width="0.44,0.55,0.82,0.44,0.37,0.5,0.23" style="fill:rgb(35,31,32);font-family:MinionPro-Regular;font-size:10.46px;stroke:none;">a mask.</text>
   <text y="250.224" x="346.608" svgx:width="0.36" style="fill:rgb(35,31,32);font-family:MinionPro-Capt;font-size:7.32px;stroke:none;">[</text>
   <text y="250.224" x="349.713,353.277" svgx:width="0.49,0.49" style="fill:rgb(0,0,132);font-family:MinionPro-Capt;font-size:7.32px;stroke:none;">24</text>
   <text y="250.224" x="357.345" svgx:width="0.36" style="fill:rgb(35,31,32);font-family:MinionPro-Capt;font-size:7.32px;stroke:none;">]</text>
   <text y="266.973" x="327.114,334.804,340.359,344.301,347.1,352.743,357.6592,360.672,365.098,370.318,375.874,380.842,386.429,389.233,394.876,399.799,402.2048,405.208,409.132,414.352,419.904,423.648,428.076,432.5738,435.546,439.975,445.186,450.713,453.962,457.706,462.971,465.586,468.622,475.789,480.382,484.2522,487.25,491.615,494.263,498.771,503.272,507.106,509.68,514.4916000000001,517.502,521.29,526.717,532.289,536.735,540.676,543.476,548.686" svgx:width="0.74,0.53,0.37,0.27,0.55,0.47,0.55,0.42,0.51,0.53,0.47,0.53,0.27,0.55,0.47,0.23,0.55,0.37,0.51,0.53,0.37,0.42,0.43,0.55,0.42,0.51,0.55,0.31,0.37,0.51,0.25,0.55,0.69,0.44,0.37,0.55,0.42,0.25,0.43,0.44,0.37,0.25,0.46,0.55,0.37,0.53,0.52,0.43,0.37,0.27,0.51,0.37" style="fill:rgb(35,31,32);font-family:MinionPro-Regular;font-size:10.46px;stroke:none;">During coughing, source control was clearly superior</text>
   <text y="279.924" x="315.161,318.293,323.62760000000003,326.43,334.986,339.566,343.394,348.571,351.363,357.006,361.9222,364.691,367.949,373.523,378.0208,380.768,387.253,391.753,396.167,400.601,403.328,408.089,412.523,415.745,418.1508,420.938,424.331,430.084,432.873,436.131,441.706,446.2038,448.951,456.466,460.9,465.784,470.177,473.426,476.153,480.914,485.41179999999997,488.159,493.514,497.258,501.692,505.52,509.347,514.891,518.634,523.1318,525.888,530.253,535.815,540.316,548.884" svgx:width="0.31,0.51,0.55,0.82,0.44,0.37,0.5,0.27,0.55,0.47,0.55,0.31,0.53,0.43,0.55,0.62,0.43,0.42,0.43,0.27,0.46,0.43,0.37,0.23,0.55,0.34,0.55,0.55,0.31,0.53,0.43,0.55,0.74,0.43,0.47,0.44,0.31,0.27,0.46,0.43,0.55,0.52,0.37,0.43,0.37,0.37,0.53,0.37,0.43,0.55,0.42,0.53,0.44,0.82,0.36" style="fill:rgb(35,31,32);font-family:MinionPro-Regular;font-size:10.46px;stroke:none;">to masking the Receiver. In the Negative pressure cham-</text>
   <text y="292.874" x="315.161,320.561,325.007,328.229,330.6348,333.53,338.939,341.612,346.199,350.618,353.417,359.059,363.97520000000003,366.871,371.47339999999997,374.377,380.094,384.486,387.573,393.123,396.998,401.642,404.257,407.195,412.667,415.90959999999995,418.768,422.557,428.107,431.905,436.855,439.654,444.074,448.718,451.333,454.28,462.821,467.408,471.242,476.47200000000004,479.333,482.952,487.905,491.624,496.457,505.709,511.426,515.818,519.004,522.665,525.52,530.73,536.4830000000001,539.361,542.619,548.163" svgx:width="0.51,0.43,0.37,0.23,0.55,0.52,0.25,0.44,0.42,0.27,0.55,0.47,0.55,0.44,0.55,0.55,0.44,0.31,0.53,0.37,0.44,0.25,0.55,0.54,0.31,0.55,0.37,0.53,0.37,0.47,0.27,0.42,0.44,0.25,0.55,0.82,0.44,0.37,0.5,0.55,0.35,0.47,0.36,0.47,0.89,0.55,0.44,0.31,0.35,0.55,0.51,0.55,0.55,0.31,0.53,0.43" style="fill:rgb(35,31,32);font-family:MinionPro-Regular;font-size:10.46px;stroke:none;">ber, placing a natural fi tsurgica lmas k(S-SMnat )o nthe</text>
   <text y="305.834" x="315.161,320.264,325.484,331.04,334.784,339.21,343.70779999999996,345.761,351.161,356.714,360.655,363.455,369.097,374.0132,376.1,380.526,385.746,391.301,396.269,401.856,404.661,410.304,415.2202,417.306,421.05,425.55,430.95,436.503,440.929,445.375,450.9188,452.998,457.444,462.383,467.954,473.29,477.079,482.635,486.379,490.8768,492.93,497.323,502.687,508.042,511.786,516.951,521.89,524.695,533.263,537.655,540.787,545.188,547.763" svgx:width="0.47,0.51,0.53,0.37,0.42,0.43,0.55,0.53,0.53,0.37,0.27,0.55,0.47,0.55,0.42,0.51,0.53,0.47,0.53,0.27,0.55,0.47,0.55,0.37,0.43,0.53,0.53,0.42,0.43,0.53,0.55,0.43,0.47,0.52,0.51,0.37,0.53,0.37,0.43,0.55,0.44,0.52,0.52,0.37,0.51,0.47,0.27,0.82,0.44,0.31,0.43,0.25,0.46" style="fill:rgb(35,31,32);font-family:MinionPro-Regular;font-size:10.46px;stroke:none;">Source during coughing reduced exposure approximately</text>
   <text y="318.784" x="315.161,320.184,322.57,327.592,332.614,337.636,341.362,344.368,349.633,352.281,357.8248,361.974,365.594,372.091,377.923" svgx:width="0.48,0.23,0.48,0.48,0.48,0.36,0.3,0.51,0.25,0.53,0.55,0.35,0.62,0.56,0.53" style="fill:rgb(35,31,32);font-family:MinionPro-Regular;font-size:10.46px;stroke:none;">1,500-fold (RPF</text>
   <text y="318.784" x="387.639" svgx:width="0.78" style="fill:rgb(35,31,32);font-family:MTSY;font-size:10.46px;stroke:none;">=</text>
   <text y="318.784" x="399.979,404.999,410.019,415.039,420.059,423.678,426.0838,430.248,434.676,439.887,448.256,453.737,458.237,461.981,466.481,472.02479999999997,476.174,479.306,484.6406,488.819,492.078,497.663,502.1608,506.294,510.739,515.675,518.924,522.668,527.113,535.679,540.1768,544.301,549.512" svgx:width="0.48,0.48,0.48,0.48,0.35,0.23,0.55,0.42,0.51,0.82,0.52,0.44,0.37,0.43,0.53,0.55,0.31,0.51,0.55,0.31,0.53,0.43,0.55,0.43,0.47,0.31,0.37,0.43,0.82,0.43,0.55,0.51,0.3" style="fill:rgb(35,31,32);font-family:MinionPro-Regular;font-size:10.46px;stroke:none;">1587), compared to the extreme of</text>
   <text y="331.736" x="315.163,319.086,323.595,328.181,330.821,333.619,339.261,344.1772,347.271,351.771,357.524,360.618,368.393,373.408,378.4288,381.545,385.289,389.735,393.567,398.922,401.719,405.594,409.987,413.119,418.33,422.2002,425.333,428.946,434.994,438.712,446.478,451.493,456.508,460.226,465.063,469.649,473.482,477.14300000000003,480.213,483.345,488.67960000000005,491.796,495.055,500.599,505.0968,508.169,511.265,515.851,520.27,524.7678,527.83,533.04,536.178,539.259,542.517,548.097" svgx:width="0.37,0.43,0.44,0.25,0.27,0.55,0.47,0.55,0.44,0.55,0.55,0.74,0.48,0.48,0.55,0.37,0.43,0.37,0.52,0.27,0.37,0.44,0.31,0.51,0.37,0.55,0.35,0.62,0.36,0.74,0.48,0.48,0.36,0.46,0.44,0.37,0.35,0.55,0.31,0.51,0.55,0.31,0.53,0.43,0.55,0.3,0.44,0.42,0.43,0.55,0.51,0.3,0.55,0.31,0.53,0.43" style="fill:rgb(35,31,32);font-family:MinionPro-Regular;font-size:10.46px;stroke:none;">sealing an N95 respirator (R-N95-vas) to the face of the</text>
   <text y="344.687" x="315.163,318.906,323.407,327.835,332.281,335.008,339.768,344.214,348.0842,349.714,353.332,359.83,365.662" svgx:width="0.37,0.43,0.42,0.43,0.27,0.46,0.43,0.37,0.55,0.35,0.62,0.56,0.53" style="fill:rgb(35,31,32);font-family:MinionPro-Regular;font-size:10.46px;stroke:none;">receiver (RPF</text>
   <text y="344.687" x="372.816" svgx:width="0.78" style="fill:rgb(35,31,32);font-family:MTSY;font-size:10.46px;stroke:none;">=</text>
   <text y="344.687" x="382.599,387.621,392.644,396.262,398.6678,400.27,406.723,412.312,415.084,418.9542,420.546,425.828,431.138,435.062,439.508,443.693,448.536,452.928,456.177,458.977,464.188,471.532,478.695,483.258,487.1282,488.72,494.12,499.672,504.1698,505.738,508.87,514.2046,515.828,519.085,524.63,529.1278,530.698,535.126,540.336,548.905" svgx:width="0.48,0.48,0.35,0.23,0.55,0.62,0.53,0.27,0.37,0.55,0.51,0.51,0.37,0.43,0.37,0.46,0.44,0.31,0.27,0.51,0.55,0.69,0.44,0.37,0.55,0.53,0.53,0.43,0.55,0.31,0.51,0.55,0.31,0.53,0.43,0.55,0.42,0.51,0.82,0.36" style="fill:rgb(35,31,32);font-family:MinionPro-Regular;font-size:10.46px;stroke:none;">17). This observationwas due to the com-</text>
   <text y="357.639" x="315.161,320.346,323.145,328.824,333.325,338.86879999999996,341.146,345.592,351.369,355.87,360.358,363.553,367.4232,369.664,374.875,378.013,380.257,383.516,389.06,393.5578,395.791,398.591,406.96,412.505,417.096,421.584,424.839,427.638,432.849,438.602,440.858,446.07,449.20799999999997,451.452,455.898,460.839,466.41,470.811,473.511,476.156,480.656,486.1998,488.469,494.003,498.504,502.49,505.745,508.544,512.909,515.555,520.001,523.8711999999999,526.12,531.331,537.0840000000001,539.341,542.595,548.139" svgx:width="0.51,0.27,0.55,0.43,0.53,0.55,0.43,0.56,0.43,0.42,0.31,0.37,0.55,0.51,0.3,0.55,0.31,0.53,0.43,0.55,0.27,0.82,0.52,0.44,0.42,0.31,0.27,0.51,0.55,0.55,0.51,0.3,0.55,0.43,0.47,0.52,0.43,0.25,0.25,0.43,0.53,0.55,0.52,0.44,0.37,0.31,0.27,0.42,0.25,0.43,0.37,0.55,0.51,0.55,0.55,0.31,0.53,0.43" style="fill:rgb(35,31,32);font-family:MinionPro-Regular;font-size:10.46px;stroke:none;">bined effect so fth eimpactio no fexpelle dparticle so nthe</text>
   <text y="370.59" x="315.161,323.694,328.252,332.057,337.28700000000003,340.553" svgx:width="0.82,0.44,0.37,0.5,0.55,0.35" style="fill:rgb(35,31,32);font-family:MinionPro-Regular;font-size:10.46px;stroke:none;">mask (</text>
   <text y="370.59" x="344.178,349.71,352.513,357.407,362.961,366.705,371.20279999999997,374.472" svgx:width="0.53,0.27,0.47,0.53,0.37,0.43,0.55,0.48" style="fill:rgb(0,0,132);font-family:MinionPro-Regular;font-size:10.46px;stroke:none;">Figure 6</text>
   <text y="370.59" x="379.493,383.154,386.424,390.924,396.641,402.1848,405.487,409.928,414.86,418.109,421.985,426.572,431.072,434.322,437.121,442.331,448.084,451.358,456.568,459.70599999999996,462.977,468.495,472.935,478.506,483.006,487.506,490.638,495.138,500.68179999999995,503.959,509.494,513.994,517.981,521.23,524.028,528.393,531.035,535.475,539.3452,542.621,547.76" svgx:width="0.35,0.55,0.44,0.55,0.53,0.55,0.43,0.47,0.31,0.37,0.44,0.42,0.31,0.27,0.51,0.55,0.55,0.51,0.3,0.55,0.53,0.43,0.53,0.43,0.42,0.31,0.43,0.53,0.55,0.52,0.44,0.37,0.31,0.27,0.42,0.25,0.43,0.37,0.55,0.51,0.46" style="fill:rgb(35,31,32);font-family:MinionPro-Regular;font-size:10.46px;stroke:none;">) and extraction of deflecte dparticle sby</text>
   <text y="383.542" x="315.162,318.419,323.963,328.4608,331.578,337.157,342.374,349.5914,352.706,357.923,361.061,364.187,368.661,371.461,375.3312,378.516,381.316,387.06899999999996,390.217,393.475,399.019,403.5168,406.634,410.397,415.824,421.04,429.609,432.0148,435.171,441.624,447.168,451.614,455.538,460.0358,463.161,468.759,474.438,479.964,482.763,488.367,493.263,497.1332,500.265,507.348,511.794,515.538,520.0358,523.161,527.589,532.806,538.41,542.253,545.025,548.868" svgx:width="0.31,0.53,0.43,0.55,0.53,0.51,0.69,0.55,0.51,0.3,0.55,0.44,0.27,0.37,0.55,0.27,0.55,0.55,0.31,0.53,0.43,0.55,0.37,0.51,0.51,0.82,0.23,0.55,0.62,0.53,0.43,0.37,0.43,0.55,0.54,0.55,0.53,0.27,0.55,0.47,0.37,0.55,0.69,0.43,0.37,0.43,0.55,0.42,0.51,0.55,0.37,0.27,0.37,0.36" style="fill:rgb(35,31,32);font-family:MinionPro-Regular;font-size:10.46px;stroke:none;">the flo wo fai ri nth eroom .Thes efindin gswe reconsis-</text>
   <text y="396.493" x="315.162,318.293,322.739,328.266,331.5086,335.474,342.698,345.37,348.618,354.16179999999997,358.239,361.487,367.031,371.5288,375.501,379.244,383.69,387.479,393.091,395.611,398.859,402.7292,406.717,410.46,414.906,420.445,425.656,429.594,432.726,437.23,442.7738,446.778,451.918,456.7296,460.756,467.77,473.314,477.818,483.029,488.672,493.58820000000003,497.582,502.082,507.762,513.3058,517.32,523.152,528.543,534.123" svgx:width="0.31,0.43,0.55,0.31,0.55,0.69,0.27,0.31,0.53,0.55,0.31,0.53,0.43,0.55,0.37,0.43,0.37,0.53,0.25,0.31,0.37,0.55,0.37,0.43,0.52,0.51,0.37,0.31,0.43,0.53,0.55,0.51,0.46,0.55,0.67,0.53,0.43,0.51,0.55,0.47,0.55,0.44,0.55,0.53,0.55,0.56,0.53,0.53,0.44" style="fill:rgb(35,31,32);font-family:MinionPro-Regular;font-size:10.46px;stroke:none;">tent with the results reported by Cheong and Phua</text>
   <text y="392.694" x="538.713" svgx:width="0.36" style="fill:rgb(35,31,32);font-family:MinionPro-Capt;font-size:7.32px;stroke:none;">[</text>
   <text y="392.694" x="541.836,545.4" svgx:width="0.49,0.49" style="fill:rgb(0,0,132);font-family:MinionPro-Capt;font-size:7.32px;stroke:none;">18</text>
   <text y="392.694" x="549.468" svgx:width="0.36" style="fill:rgb(35,31,32);font-family:MinionPro-Capt;font-size:7.32px;stroke:none;">]</text>
   <text y="409.443" x="315.162,322.398,327.942,333.27660000000003,335.934,338.94,344.16,349.713,355.42,360.9638,363.61,366.868,372.43,376.822,380.017,382.4228,385.047,387.847,393.59999999999997,396.235,400.8374,403.49,409.197,413.628,418.509,422.902,426.151,428.878,433.639,438.1368,440.74,446.095,449.838,454.27,458.094,461.919,467.459,471.203,475.70079999999996,478.313,482.057,487.484,492.695,501.264,503.6698,506.313,511.722,514.354,518.932,523.342,526.131,531.774,536.6902,539.334,542.592,548.136" svgx:width="0.69,0.53,0.51,0.55,0.3,0.51,0.53,0.55,0.53,0.55,0.31,0.53,0.44,0.31,0.23,0.55,0.27,0.55,0.55,0.44,0.55,0.55,0.43,0.47,0.44,0.31,0.27,0.46,0.43,0.55,0.52,0.37,0.43,0.37,0.37,0.53,0.37,0.43,0.55,0.37,0.51,0.51,0.82,0.23,0.55,0.52,0.25,0.44,0.42,0.27,0.55,0.47,0.55,0.31,0.53,0.43" style="fill:rgb(35,31,32);font-family:MinionPro-Regular;font-size:10.46px;stroke:none;">who found that, in a negative pressure room, placing the</text>
   <text y="422.395" x="315.162,319.593,324.516,330.087,334.48,340.02,343.844,347.0866,350.513,355.274,359.705,365.232,368.4746,371.918,377.129,382.882,386.354,389.611,395.183,399.6808,403.121,410.272,414.849,417.549,420.164,423.696,429.096,433.497,439.068,441.857,447.564,453.1078,456.6,459.859,465.403,469.9008,473.341,478.876,483.268,486.517,489.306,493.737,499.264,502.18,503.521,507.3912,510.847,516.247,520.747,526.21,528.6158,532.096,536.674,540.5441999999999,544.009,546.797" svgx:width="0.43,0.47,0.53,0.44,0.53,0.37,0.31,0.55,0.46,0.43,0.55,0.31,0.55,0.51,0.55,0.55,0.31,0.53,0.43,0.55,0.69,0.44,0.25,0.25,0.55,0.51,0.43,0.53,0.27,0.55,0.53,0.55,0.31,0.53,0.43,0.55,0.52,0.44,0.31,0.27,0.43,0.55,0.31,0.22,0.37,0.55,0.51,0.43,0.53,0.23,0.55,0.44,0.37,0.55,0.27,0.55" style="fill:rgb(35,31,32);font-family:MinionPro-Regular;font-size:10.46px;stroke:none;">exhaust vent on the wall behind the patient’s bed, as in</text>
   <text y="435.346" x="315.162,320.382,325.935,329.8052,333.08,337.526,342.457,348.029,352.468,356.41,359.207,367.768,372.208,377.734,380.919,384.751,387.1568,390.403,397.563,402.149,406.0192,409.25,417.773,422.984,426.728,431.2258,434.44,438.886,444.664,449.164,453.664,456.913,459.64,464.401,468.8988,472.105,474.905,480.65799999999996,483.896,487.64,492.079,500.641,505.806,510.676,513.473,519.115,524.0312,527.297,532.868,538.133,540.833,543.353,548.906" svgx:width="0.51,0.53,0.37,0.55,0.43,0.47,0.52,0.43,0.37,0.27,0.82,0.43,0.55,0.31,0.37,0.23,0.55,0.69,0.44,0.37,0.55,0.82,0.51,0.37,0.43,0.55,0.43,0.56,0.43,0.42,0.31,0.27,0.46,0.43,0.55,0.27,0.55,0.55,0.37,0.43,0.82,0.51,0.46,0.27,0.55,0.47,0.55,0.52,0.51,0.25,0.25,0.53,0.36" style="fill:rgb(35,31,32);font-family:MinionPro-Regular;font-size:10.46px;stroke:none;">our experiments, was more effectiv ei nremovin gpollu-</text>
   <text y="448.298" x="315.162,318.419,322.92,328.446,331.641,335.51120000000003,337.455,340.714,346.286,350.786,356.539,358.481,364.043,368.444,373.314,376.104,381.746,386.6622,388.64,391.898,397.471,401.9688,403.906,408.338,413.262,418.835,423.227,428.768,432.594,435.8366,437.759,442.52,446.952,452.479,455.72159999999997,457.654,460.453,466.20599999999996,468.175,471.434,477.006,481.50379999999996,483.442,487.853,492.285,495.075,497.708,500.498,506.141,511.0572,513.026,517.535,522.934,528.1,532.861,537.3588,539.305,542.562,548.106" svgx:width="0.31,0.44,0.55,0.31,0.37,0.55,0.31,0.53,0.44,0.55,0.55,0.53,0.44,0.46,0.27,0.55,0.47,0.55,0.31,0.53,0.43,0.55,0.43,0.47,0.53,0.44,0.53,0.37,0.31,0.55,0.46,0.43,0.55,0.31,0.55,0.27,0.55,0.55,0.31,0.53,0.43,0.55,0.42,0.43,0.27,0.25,0.27,0.55,0.47,0.55,0.44,0.51,0.51,0.46,0.43,0.55,0.31,0.53,0.43" style="fill:rgb(35,31,32);font-family:MinionPro-Regular;font-size:10.46px;stroke:none;">tants than having the exhaust vent in the ceiling above the</text>
   <text y="461.249" x="315.162,320.682,325.075,328.304,331.103,335.549,341.076,344.305" svgx:width="0.52,0.44,0.31,0.27,0.43,0.55,0.31,0.23" style="fill:rgb(35,31,32);font-family:MinionPro-Regular;font-size:10.46px;stroke:none;">patient.</text>
   <text y="457.449" x="346.689" svgx:width="0.36" style="fill:rgb(35,31,32);font-family:MinionPro-Capt;font-size:7.32px;stroke:none;">[</text>
   <text y="457.449" x="349.794,353.358" svgx:width="0.49,0.49" style="fill:rgb(0,0,132);font-family:MinionPro-Capt;font-size:7.32px;stroke:none;">18</text>
   <text y="457.449" x="357.426" svgx:width="0.36" style="fill:rgb(35,31,32);font-family:MinionPro-Capt;font-size:7.32px;stroke:none;">]</text>
   <text y="474.198" x="327.114,334.981,340.533,344.4032,346.392,350.181,353.257,358.809,364.263,369.0746,371.032,376.594,381.157,385.0272,386.961,390.885,395.413,400.173,404.619,408.498,413.142,415.757,417.767,420.413,423.212,431.781,434.453,437.712,442.104,445.354,448.153,453.373,458.98,462.823,465.2288,467.171,474.856,477.655,481.421,485.922,490.422,493.671,496.47,501.682,507.289,511.1592,513.103,518.323,521.461,523.39,527.867,530.667,534.608,540.188,545.408" svgx:width="0.75,0.53,0.37,0.55,0.37,0.31,0.53,0.53,0.46,0.55,0.53,0.44,0.37,0.55,0.37,0.43,0.46,0.43,0.37,0.44,0.25,0.55,0.25,0.27,0.82,0.27,0.31,0.44,0.31,0.27,0.51,0.55,0.37,0.23,0.55,0.74,0.27,0.37,0.43,0.42,0.31,0.27,0.51,0.55,0.37,0.55,0.51,0.3,0.55,0.44,0.27,0.37,0.53,0.51,0.69" style="fill:rgb(35,31,32);font-family:MinionPro-Regular;font-size:10.46px;stroke:none;">Our study has several limitations. Directions of airflow</text>
   <text y="487.148" x="315.161,319.662,325.341,330.8848,334.802,340.346,344.854,349.445,354.98879999999997,358.905,364.477,369.814,373.657,376.33,379.579,382.378,387.59,393.34299999999996,397.249,404.332,408.778,412.522,417.0198,420.906,426.503,431.363,435.863,441.4068,445.324,449.824,455.504,461.0478,464.972,469.337,474.899,479.399,485.042,489.857,494.303,498.1732,502.079,504.878,510.631,514.538,520.064,522.864,526.608,531.108,535.608,538.857,541.657,546.867" svgx:width="0.44,0.55,0.53,0.55,0.53,0.43,0.44,0.53,0.55,0.52,0.51,0.37,0.27,0.31,0.27,0.51,0.55,0.55,0.69,0.43,0.37,0.43,0.55,0.54,0.47,0.43,0.53,0.55,0.44,0.55,0.53,0.55,0.42,0.53,0.44,0.55,0.47,0.43,0.37,0.55,0.27,0.55,0.55,0.53,0.27,0.37,0.43,0.42,0.31,0.27,0.51,0.55" style="fill:rgb(35,31,32);font-family:MinionPro-Regular;font-size:10.46px;stroke:none;">and head position were fixe dan dchange si ndirection</text>
   <text y="500.099" x="315.161,323.703,328.104,332.9156,334.899,339.399,345.178,349.678,354.165,357.4076,359.349,364.569,370.122,373.9922,376.008,381.291,386.6,390.524,394.97,399.155,403.998,408.39,411.643,414.442,419.652,425.295,429.138,431.5438,433.521,436.915,442.668,444.645,449.235,454.762,460.288,462.961,466.213,469.013,474.223,479.947,482.3528,484.33,487.13,492.883,494.86,499.36,505.113,507.083,511.673,516.159,519.246,524.863,529.517,532.1320000000001,534.179,539.723,545.06,548.904" svgx:width="0.82,0.44,0.46,0.55,0.44,0.56,0.43,0.42,0.31,0.55,0.51,0.53,0.37,0.55,0.51,0.51,0.37,0.43,0.37,0.46,0.44,0.31,0.27,0.51,0.55,0.37,0.23,0.55,0.34,0.55,0.55,0.44,0.53,0.53,0.27,0.31,0.27,0.51,0.55,0.23,0.55,0.27,0.55,0.55,0.44,0.55,0.55,0.44,0.42,0.31,0.53,0.44,0.25,0.55,0.53,0.51,0.37,0.36" style="fill:rgb(35,31,32);font-family:MinionPro-Regular;font-size:10.46px;stroke:none;">may affec tou robservations .I naddition ,i na nactua lhos-</text>
   <text y="513.049" x="315.161,320.516,323.189,326.433,331.079,333.694,335.345,339.268,343.714,346.801,350.045,352.844,358.487,363.41,365.8158,367.415,370.674,376.218,380.7158,382.284,386.784,389.584,393.518,399.098,404.263,413.047,417.548,423.227,430.372,435.133,439.579,445.105,448.349,451.206,453.906,458.299,461.543,464.342,469.552,476.897,485.438,489.839,494.6506,496.256,501.098,505.598,509.784,514.5956,516.2,521.565,526.128,530.051,534.551,541.696,546.907" svgx:width="0.52,0.27,0.31,0.44,0.25,0.55,0.37,0.43,0.31,0.31,0.27,0.55,0.47,0.23,0.55,0.31,0.53,0.43,0.55,0.44,0.27,0.37,0.53,0.51,0.69,0.44,0.55,0.53,0.46,0.43,0.55,0.31,0.27,0.25,0.44,0.31,0.27,0.51,0.55,0.82,0.44,0.46,0.55,0.46,0.44,0.37,0.46,0.55,0.51,0.44,0.37,0.43,0.53,0.51,0.55" style="fill:rgb(35,31,32);font-family:MinionPro-Regular;font-size:10.46px;stroke:none;">pital setting, the airflowandventilationma yvar ybasedon</text>
   <text y="526.0" x="315.161,318.905,324.332,329.543,340.334,345.853,350.295,354.13,356.929,361.879,367.604,370.0098,372.212,374.857,380.284,384.739,389.132,392.381,395.18,400.391,406.144,408.347,413.559,416.697,418.878,423.639,428.081,433.607,436.793,440.6632,442.85,447.35,453.03,458.57379999999995,460.787,466.359,471.69,475.525,478.197,481.446,484.246,489.456,495.209,497.403,502.614,505.75199999999995,507.941,511.199,516.781,521.2787999999999,523.45,528.984,533.377,536.626,539.425,543.867,549.394" svgx:width="0.37,0.51,0.51,0.82,0.53,0.43,0.37,0.27,0.47,0.55,0.23,0.55,0.25,0.51,0.42,0.44,0.31,0.27,0.51,0.55,0.55,0.51,0.3,0.55,0.46,0.43,0.55,0.31,0.37,0.55,0.44,0.55,0.53,0.55,0.52,0.51,0.37,0.27,0.31,0.27,0.51,0.55,0.55,0.51,0.3,0.55,0.31,0.53,0.43,0.55,0.52,0.44,0.31,0.27,0.43,0.55,0.31" style="fill:rgb(35,31,32);font-family:MinionPro-Regular;font-size:10.46px;stroke:none;">roomdesign, location of vents and position of the patient</text>
   <text y="538.95" x="315.161,319.668,325.304,332.487,340.371,347.328,355.987,358.3928,360.028,367.894,373.447,377.3172,378.982,384.482,388.991,393.581,400.763,406.335,411.672,415.515,418.188,421.437,424.236,429.485,435.122,438.9922,440.621,445.121,450.757,457.94,462.446,465.246,469.187,474.767,479.933,488.752,495.832,500.278,504.073,508.57079999999996,510.175,512.974,520.354,524.861,532.241,537.49,542.886,546.135,548.934" svgx:width="0.44,0.55,0.53,0.77,0.67,0.97,0.23,0.55,0.75,0.53,0.37,0.55,0.53,0.43,0.44,0.53,0.52,0.51,0.37,0.27,0.31,0.27,0.51,0.55,0.37,0.55,0.44,0.55,0.53,0.44,0.27,0.37,0.53,0.51,0.69,0.69,0.43,0.37,0.43,0.55,0.27,0.55,0.44,0.55,0.51,0.52,0.31,0.27,0.36" style="fill:rgb(35,31,32);font-family:MinionPro-Regular;font-size:10.46px;stroke:none;">andHCW. Our headpositions andairflowwer einanopti-</text>
   <text y="551.901" x="315.161,323.73,326.529,330.922,335.422,340.9658,344.629,350.155,352.954,356.698,361.199,365.68,368.926,371.725,376.936,382.68899999999996,386.341,389.347,394.558,398.4282,402.118,410.002,416.96,427.1062,430.801,436.156,439.9,445.12,448.252,452.753,457.234,460.48,463.279,468.491,474.215,476.6208,480.281,483.485,487.229,492.44,501.0172,504.688,511.214,515.715,520.195,524.641,527.368,532.129,536.575,540.4452,544.135,547.267" svgx:width="0.82,0.27,0.42,0.43,0.53,0.55,0.53,0.27,0.37,0.43,0.42,0.31,0.27,0.51,0.55,0.55,0.3,0.51,0.37,0.55,0.77,0.67,0.97,0.55,0.52,0.37,0.51,0.31,0.43,0.42,0.31,0.27,0.51,0.55,0.23,0.55,0.3,0.37,0.51,0.82,0.55,0.62,0.43,0.42,0.43,0.27,0.46,0.43,0.37,0.55,0.31,0.51" style="fill:rgb(35,31,32);font-family:MinionPro-Regular;font-size:10.46px;stroke:none;">mized direction for HCW protection, from Receiver to</text>
   <text y="564.851" x="315.161,320.264,325.484,331.026,334.77,339.183,343.566,345.9718,349.298,355.752,361.325,364.116,367.9862,371.307,379.848,384.249,389.0606,392.403,396.836,402.614,408.187,412.688,418.397,422.809,427.3068,430.594,433.853,439.426,443.92379999999997,447.229,450.973,455.419,460.99,466.202,470.188,473.32,477.821,483.3648,486.695,491.128,496.905,501.406,505.906,509.1486,512.44,517.651,520.789,524.104,529.207,534.427,539.98,543.724,548.152" svgx:width="0.47,0.51,0.53,0.37,0.42,0.43,0.23,0.55,0.62,0.53,0.27,0.37,0.55,0.82,0.44,0.46,0.55,0.43,0.55,0.53,0.44,0.55,0.42,0.43,0.55,0.31,0.53,0.43,0.55,0.37,0.43,0.52,0.51,0.37,0.31,0.43,0.53,0.55,0.43,0.56,0.43,0.42,0.31,0.55,0.51,0.3,0.55,0.47,0.51,0.53,0.37,0.42,0.43" style="fill:rgb(35,31,32);font-family:MinionPro-Regular;font-size:10.46px;stroke:none;">Source. This may enhance the reported effec to fSource</text>
   <text y="577.811" x="315.161,319.59,324.8,330.327,333.576,337.32,342.585,345.152,347.5578,349.4,357.149,362.315,369.401,373.928,378.692,383.138,386.36,388.7658,390.635,393.894,399.438,403.9358,405.765,411.299,415.812,419.691,424.204,432.692,437.138,440.27,444.715,448.531,452.4012,454.256,461.339,465.8368,467.675,473.237,477.638,482.398,486.8958,488.717,493.082,498.588,503.926,507.849,512.295,518.048,519.9,522.907,528.162,532.0322,533.922,538.686,543.132,548.856" svgx:width="0.42,0.51,0.55,0.31,0.37,0.51,0.25,0.23,0.55,0.77,0.51,0.69,0.43,0.46,0.43,0.37,0.23,0.55,0.31,0.53,0.43,0.55,0.52,0.44,0.37,0.44,0.82,0.43,0.31,0.43,0.37,0.37,0.55,0.69,0.43,0.55,0.53,0.44,0.46,0.43,0.55,0.42,0.53,0.51,0.37,0.43,0.55,0.55,0.3,0.51,0.37,0.55,0.46,0.43,0.55,0.36" style="fill:rgb(35,31,32);font-family:MinionPro-Regular;font-size:10.46px;stroke:none;">control. However, the parameters we have chosen for ven-</text>
   <text y="590.763" x="315.161,318.411,321.263,323.906,328.298,331.547,334.347,339.558,345.311,349.71,354.211,359.89,365.43379999999996,369.853,374.353,377.152,381.094,386.665,391.831,399.0484,403.432,411.973,416.561,421.511,427.229,429.902,432.989,438.541,444.061,448.55879999999996,452.934,457.435,463.114,468.65779999999995,473.077,478.603,481.402,485.146,489.647,494.147,497.396,500.195,505.406,511.159,515.558,520.058,523.802,528.2998,532.685,535.907,540.705,546.06,548.859" svgx:width="0.31,0.27,0.25,0.44,0.31,0.27,0.51,0.55,0.55,0.44,0.55,0.53,0.55,0.44,0.27,0.37,0.53,0.51,0.69,0.55,0.82,0.44,0.47,0.55,0.27,0.31,0.53,0.53,0.43,0.55,0.44,0.55,0.53,0.55,0.53,0.27,0.37,0.43,0.42,0.31,0.27,0.51,0.55,0.55,0.44,0.37,0.43,0.55,0.31,0.46,0.52,0.27,0.36" style="fill:rgb(35,31,32);font-family:MinionPro-Regular;font-size:10.46px;stroke:none;">tilation and airflo wmagnitud ean ddirectio nar etypi-</text>
   <text y="603.714" x="315.161,319.617,324.26,326.875,331.721,334.727,339.938,343.8082,348.622,351.881,357.425,362.762,366.686,371.18379999999996,375.947,379.691,384.137,389.708,394.919,398.905,402.037,406.538,412.0818,416.87,419.876,425.087,428.9572,433.771,439.315,444.653,448.441,453.796,456.475,459.734,464.377,466.992,471.838,475.595,481.022,486.232,494.675,498.5452,503.333,506.133,511.88599999999997,516.672,522.027,525.783,530.311,535.18,537.98,543.19,548.717" svgx:width="0.42,0.44,0.25,0.55,0.3,0.51,0.37,0.55,0.31,0.53,0.51,0.37,0.43,0.55,0.37,0.43,0.52,0.51,0.37,0.31,0.43,0.53,0.55,0.3,0.51,0.37,0.55,0.53,0.51,0.37,0.52,0.27,0.31,0.44,0.25,0.55,0.37,0.51,0.51,0.82,0.37,0.55,0.27,0.55,0.55,0.52,0.37,0.43,0.46,0.27,0.51,0.53,0.37" style="fill:rgb(35,31,32);font-family:MinionPro-Regular;font-size:10.46px;stroke:none;">cal for those reported for hospital rooms in previous</text>
   <text y="616.666" x="315.161,318.983,322.07,327.607,333.133,335.919,340.347,344.19" svgx:width="0.37,0.31,0.53,0.53,0.27,0.43,0.37,0.23" style="fill:rgb(35,31,32);font-family:MinionPro-Regular;font-size:10.46px;stroke:none;">studies.</text>
   <text y="612.87" x="346.59" svgx:width="0.36" style="fill:rgb(35,31,32);font-family:MinionPro-Capt;font-size:7.32px;stroke:none;">[</text>
   <text y="612.87" x="349.704,353.268" svgx:width="0.49,0.49" style="fill:rgb(0,0,132);font-family:MinionPro-Capt;font-size:7.32px;stroke:none;">25</text>
   <text y="612.87" x="357.336" svgx:width="0.36" style="fill:rgb(35,31,32);font-family:MinionPro-Capt;font-size:7.32px;stroke:none;">]</text>
   <text y="616.668" x="362.133,365.526,372.934,377.517,383.031,388.544,391.217,394.466,397.266,402.476,408.2,410.6058,412.268,417.956,420.75,426.463,431.977,435.806,438.443,442.971,447.7826,449.451,453.897,457.1396,458.775,463.419,466.001,468.4068,470.07,473.076,478.296,483.841,489.554,495.09779999999995,496.762,500.021,505.598,509.99,513.2326,514.868,519.314,524.242,529.813,535.139,538.928,544.473,548.217" svgx:width="0.34,0.55,0.44,0.53,0.53,0.27,0.31,0.27,0.51,0.55,0.23,0.55,0.54,0.27,0.55,0.53,0.37,0.25,0.43,0.46,0.55,0.43,0.31,0.55,0.44,0.25,0.23,0.55,0.3,0.51,0.53,0.55,0.53,0.55,0.31,0.53,0.44,0.31,0.55,0.43,0.47,0.52,0.51,0.37,0.53,0.37,0.43" style="fill:rgb(35,31,32);font-family:MinionPro-Regular;font-size:10.46px;stroke:none;">Inaddition, Lindsley et al. found that exposure</text>
   <text y="629.618" x="315.162,318.3,323.63460000000003,327.102,332.673,337.893,341.032,345.477,351.004,354.253,357.078,361.722,364.422,366.996,371.8076,375.268,378.067,383.791,386.797,391.298,395.798,399.047,401.846,407.066,412.593,416.46320000000003,419.901,424.491,428.937,432.681,438.018,441.941,447.224,449.818,453.6882,457.126,461.627,467.108,472.031,479.267,484.811,489.257,493.001,497.49879999999996,500.93,503.729,509.48199999999997,512.927,516.185,521.719,526.2168,529.638,533.382,538.81,544.02" svgx:width="0.31,0.51,0.55,0.52,0.51,0.31,0.43,0.55,0.31,0.27,0.44,0.25,0.25,0.46,0.55,0.27,0.55,0.3,0.43,0.42,0.31,0.27,0.51,0.53,0.37,0.55,0.44,0.43,0.37,0.51,0.37,0.51,0.25,0.37,0.55,0.44,0.55,0.46,0.69,0.53,0.43,0.37,0.43,0.55,0.27,0.55,0.55,0.31,0.53,0.43,0.55,0.37,0.51,0.51,0.82" style="fill:rgb(35,31,32);font-family:MinionPro-Regular;font-size:10.46px;stroke:none;">to potentially infectious aerosols anywhere in the room</text>
   <text y="642.569" x="315.162,322.312,326.888,330.7582,333.098,338.651,344.357,348.857,354.635,359.135,363.635,366.767,371.267,376.8108,379.142,384.282,389.0936,391.464,397.035,401.543,406.12,411.6638,414.022,419.593,424.93,428.754,431.426,434.676,437.475,442.685,448.41" svgx:width="0.69,0.44,0.37,0.55,0.53,0.55,0.44,0.56,0.43,0.42,0.31,0.43,0.53,0.55,0.51,0.46,0.55,0.53,0.43,0.44,0.53,0.55,0.52,0.51,0.37,0.27,0.31,0.27,0.51,0.55,0.23" style="fill:rgb(35,31,32);font-family:MinionPro-Regular;font-size:10.46px;stroke:none;">was unaffecte db yhea dposition.</text>
   <text y="638.772" x="450.792" svgx:width="0.36" style="fill:rgb(35,31,32);font-family:MinionPro-Capt;font-size:7.32px;stroke:none;">[</text>
   <text y="638.772" x="453.915,457.479" svgx:width="0.49,0.49" style="fill:rgb(0,0,132);font-family:MinionPro-Capt;font-size:7.32px;stroke:none;">25</text>
   <text y="638.772" x="461.538" svgx:width="0.36" style="fill:rgb(35,31,32);font-family:MinionPro-Capt;font-size:7.32px;stroke:none;">]</text>
   <text y="655.521" x="327.114,334.981,340.533,344.4032,346.028,350.618,355.064,358.808,364.145,368.069,373.334,375.953,379.8232,381.407,385.907,389.651,394.1488,395.708,400.298,405.536,411.088,415.588,420.808,426.335,430.2052,431.788,436.288,441.967,449.105,454.64,459.14,463.126,466.376,469.175,473.54,476.187,480.6848,482.244,487.77,490.542,494.331,497.58,501.522,504.276,509.469,514.896,518.145,520.944,526.155,531.797,535.6672,537.251,544.441,547.294,549.994" svgx:width="0.75,0.53,0.37,0.55,0.44,0.43,0.37,0.51,0.37,0.51,0.25,0.37,0.55,0.44,0.37,0.43,0.55,0.44,0.51,0.53,0.43,0.51,0.53,0.37,0.55,0.44,0.55,0.53,0.52,0.44,0.37,0.31,0.27,0.42,0.25,0.43,0.55,0.53,0.27,0.37,0.31,0.37,0.27,0.51,0.53,0.31,0.27,0.51,0.55,0.37,0.55,0.69,0.27,0.25,0.25" style="fill:rgb(35,31,32);font-family:MinionPro-Regular;font-size:10.46px;stroke:none;">Our aerosols are aqueous andparticle distributions will</text>
   <text y="668.471" x="315.161,320.561,325.05879999999996,326.673,331.173,336.951,341.452,345.952,349.084,353.584,360.775,365.914,370.7256,372.376,376.741,382.325,386.825,392.468,397.283,401.727,405.5972,407.234,410.036,417.425,421.926,430.385,435.57,438.369,442.813,448.339,451.5816,453.199,456.943,461.387,464.031,468.424,471.673,474.4,479.161,483.6588,485.272,490.662,496.215,504.78,507.582,513.103,515.776,518.998,523.029,525.4348,527.08,537.115,542.704,545.505,548.15" svgx:width="0.51,0.43,0.55,0.44,0.56,0.43,0.42,0.31,0.43,0.53,0.51,0.46,0.55,0.42,0.53,0.44,0.55,0.47,0.43,0.37,0.55,0.27,0.55,0.44,0.82,0.51,0.27,0.43,0.55,0.31,0.55,0.37,0.43,0.25,0.44,0.31,0.27,0.46,0.43,0.55,0.53,0.53,0.82,0.27,0.53,0.27,0.31,0.46,0.23,0.55,0.97,0.53,0.27,0.25,0.43" style="fill:rgb(35,31,32);font-family:MinionPro-Regular;font-size:10.46px;stroke:none;">be affectedb ychange sinambien trelativ ehumidity .While</text>
   <text y="681.422" x="315.161,318.905,323.306,325.955,330.347,333.597,336.324,341.084,345.5818,347.493,352.884,358.437,367.006,369.812,375.337,378.01,381.203,386.0146,387.961,393.172,396.31,398.221,401.48,407.024,411.5218,413.423,417.923,426.383,431.567,434.373,438.821,444.347,447.58959999999996,449.504,454.004,456.804,460.6742,462.645,467.487,471.988,475.929,478.735,483.235,488.698,491.1038,493.036,500.119,504.565,507.8076,509.712,515.391,519.839,525.032,530.639,533.285,536.09,540.486,544.934,548.75" svgx:width="0.37,0.43,0.25,0.44,0.31,0.27,0.46,0.43,0.55,0.53,0.53,0.82,0.27,0.53,0.27,0.31,0.46,0.55,0.51,0.3,0.55,0.31,0.53,0.43,0.55,0.44,0.82,0.51,0.27,0.43,0.55,0.31,0.55,0.44,0.27,0.37,0.55,0.46,0.44,0.37,0.27,0.43,0.53,0.23,0.55,0.69,0.43,0.31,0.55,0.55,0.43,0.51,0.53,0.25,0.27,0.42,0.43,0.37,0.37" style="fill:rgb(35,31,32);font-family:MinionPro-Regular;font-size:10.46px;stroke:none;">relative humidity of the ambient air varied, wet nebulizers</text>
   <text y="694.372" x="315.161,320.516,324.26,329.426,334.295,337.1,342.624,347.1218,350.599,354.505,358.897,361.984,367.54,371.422,375.814,378.946,383.446,388.9898,392.492,396.992,399.797,403.66720000000004,407.212,411.136,416.47060000000005,419.992,423.251,428.795,433.2928,436.76,441.35,445.797,449.541,454.877,458.801,464.066,466.685,470.5552,474.047,476.693,481.201,485.602,490.447,493.251,498.894,503.8102,507.318,510.575,516.12,520.6178,524.094,529.197,534.417,539.969,543.713,548.141" svgx:width="0.52,0.37,0.51,0.46,0.27,0.53,0.43,0.55,0.37,0.44,0.31,0.53,0.37,0.44,0.31,0.43,0.53,0.55,0.44,0.27,0.37,0.55,0.37,0.51,0.55,0.31,0.53,0.43,0.55,0.44,0.43,0.37,0.51,0.37,0.51,0.25,0.37,0.55,0.25,0.43,0.44,0.46,0.27,0.55,0.47,0.55,0.31,0.53,0.43,0.55,0.47,0.51,0.53,0.37,0.42,0.43" style="fill:rgb(35,31,32);font-family:MinionPro-Regular;font-size:10.46px;stroke:none;">provide saturated air so the aerosols leaving the Source</text>
   <text y="707.323" x="315.161,323.729,328.229,333.951,336.804,342.042,344.841,350.594,352.923,357.566,360.141,367.304,371.705,376.503,380.3732,382.731,387.231,390.975,395.4728,397.788,400.592,406.234,410.158,414.604,420.246,424.09,426.763,430.012,432.739,437.5,441.9978,444.313,447.445,452.7796,455.149,458.893,464.32,469.531,480.475,484.975,487.778,491.64820000000003,494.042,499.433,504.985,513.553,516.356,521.879,524.552,527.743,531.774" svgx:width="0.82,0.44,0.55,0.27,0.5,0.27,0.55,0.55,0.44,0.25,0.69,0.44,0.46,0.37,0.55,0.44,0.37,0.43,0.55,0.27,0.55,0.37,0.43,0.55,0.37,0.27,0.31,0.27,0.46,0.43,0.55,0.31,0.51,0.55,0.37,0.51,0.51,0.82,0.44,0.27,0.37,0.55,0.53,0.53,0.82,0.27,0.53,0.27,0.31,0.46,0.23" style="fill:rgb(35,31,32);font-family:MinionPro-Regular;font-size:10.46px;stroke:none;">manikin always are insensitive to roomair humidity.</text>
   <text y="720.274" x="327.114,334.927,340.481,344.3512,349.139,352.928,356.015,361.568,367.022,371.8336,376.598,382.12,387.547,391.992,395.86220000000003,400.605,406.326,411.546,414.7886,419.511,425.038,428.961,433.4588,438.187,441.193,446.404,450.345,458.887,463.478,466.093,470.885,476.357,479.552,483.275,486.407,490.852,494.69,497.939,500.738,506.381,511.2972,516.038,524.604,529.049,532.307,537.851,543.278,548.777" svgx:width="0.75,0.53,0.37,0.55,0.37,0.31,0.53,0.53,0.46,0.55,0.53,0.51,0.43,0.37,0.55,0.55,0.51,0.31,0.55,0.53,0.37,0.43,0.55,0.3,0.51,0.37,0.82,0.44,0.25,0.55,0.54,0.31,0.36,0.31,0.43,0.37,0.31,0.27,0.55,0.47,0.55,0.82,0.43,0.31,0.53,0.51,0.53,0.37" style="fill:rgb(35,31,32);font-family:MinionPro-Regular;font-size:10.46px;stroke:none;">Our study does not use formal fit-testin gmethods</text>
   <text y="733.225" x="315.161,318.259,323.59360000000004,327.421,331.92,335.861,339.803,342.53,347.28,351.77779999999996,355.56,359.952,363.1946,366.973,372.361,376.105,381.347,384.444,388.945,393.445,396.694,399.421,404.171,408.6688,412.433,418.931,424.763,430.30679999999995,434.132,438.974,443.618,446.138,451.69,456.136,459.98,462.3858,466.199,471.42,476.881,480.12359999999995,483.91,490.993,495.4908,499.272,504.7,507.949,510.801,513.447,516.246,520.639,525.1368,528.918,532.842,537.288,540.5306,544.308,549.519" svgx:width="0.31,0.51,0.55,0.44,0.37,0.37,0.27,0.46,0.43,0.55,0.44,0.31,0.55,0.52,0.37,0.51,0.31,0.43,0.42,0.31,0.27,0.46,0.43,0.55,0.62,0.56,0.53,0.55,0.46,0.44,0.25,0.53,0.43,0.37,0.23,0.55,0.51,0.53,0.31,0.55,0.69,0.43,0.55,0.53,0.31,0.27,0.25,0.27,0.42,0.43,0.55,0.37,0.43,0.31,0.55,0.51,0.3" style="fill:rgb(35,31,32);font-family:MinionPro-Regular;font-size:10.46px;stroke:none;">to arrive at protective RPF values, but we utilize set of</text>
  </g>
 </g>
</svg>
