<?xml version="1.0" encoding="UTF-8"?>
<svg height="776.831" width="530.3594999999999" xmlns="http://www.w3.org/2000/svg">
 <g id="page" xmlns:svgx="http://www.xml-cml.org/schema/svgx">
  <g begin="text">
   <text y="62.979" x="75.961,81.126,83.341,86.442,90.873,93.973,97.074" svgx:width="0.72,0.28,0.39,0.56,0.39,0.39,0.39" style="fill:rgb(0,0,0);font-family:URWPalladioL-Ital;font-size:7.97px;stroke:none;">Viruses</text>
   <text y="62.979" x="102.167,106.152,110.137,114.122" svgx:width="0.5,0.5,0.5,0.5" style="fill:rgb(0,0,0);font-family:URWPalladioL-Bold;font-size:7.97px;stroke:none;">2019</text>
   <text y="62.979" x="118.107" svgx:width="0.25" style="fill:rgb(0,0,0);font-family:URWPalladioL-Roma;font-size:7.97px;stroke:none;">,</text>
   <text y="62.979" x="122.092,126.077" svgx:width="0.5,0.5" style="fill:rgb(0,0,0);font-family:URWPalladioL-Ital;font-size:7.97px;stroke:none;">11</text>
   <text y="62.979" x="130.062,132.05450000000002,134.047,138.032,142.017,146.002,495.794,499.779,501.772,506.123,508.7531,510.77,514.755" svgx:width="0.25,0.55,0.5,0.5,0.5,0.55,0.5,0.55,0.55,0.33,0.55,0.5,0.5" style="fill:rgb(0,0,0);font-family:URWPalladioL-Roma;font-size:7.97px;stroke:none;">, 940 9 of 12</text>
   <text y="97.848" x="76.186,83.162,88.64,91.626,97.105,102.09,105.5883,108.097,114.571,119.556,125.035,128.021,131.509,134.495,139.973,145.451,148.437,151.423,156.408,161.887,165.868" svgx:width="0.78,0.61,0.33,0.61,0.56,0.39,0.55,0.72,0.56,0.61,0.33,0.39,0.33,0.61,0.61,0.33,0.33,0.56,0.61,0.44,0.25" style="fill:rgb(0,0,0);font-family:URWPalladioL-Bold;font-size:8.97px;stroke:none;">Author Contributions:</text>
   <text y="97.848" x="171.818,178.302,183.296,188.619,192.679,197.06,202.557,205.538,211.053,215.626,218.287,220.949,225.522,230.095,233.076,235.737,240.731,246.054,248.2965,250.938,255.739,258.026,265.104,267.391,270.436,272.723,274.9655,277.671,285.298,288.911,291.572,294.554,297.215,302.538,307.623,316.769,321.762,325.375,328.036,333.121,335.783,341.105,345.678,348.2793,350.864,356.452,360.064,364.637,367.683,370.6431,373.189,378.685,382.133,386.514,392.011,396.583,400.196,404.769,407.75,410.412,415.405,420.728,422.9705,425.612,430.413,432.7,439.779,442.065,445.111,447.397,449.6395,452.354,459.982,463.594,466.256,469.237,471.898,477.221,482.306,491.452,494.9,499.281,504.448,507.11,511.49" svgx:width="0.71,0.55,0.58,0.44,0.48,0.6,0.33,0.6,0.5,0.29,0.29,0.5,0.5,0.33,0.29,0.55,0.58,0.25,0.55,0.52,0.25,0.77,0.25,0.33,0.25,0.25,0.55,0.83,0.4,0.29,0.33,0.29,0.58,0.56,1.0,0.55,0.4,0.29,0.56,0.29,0.58,0.5,0.29,0.55,0.61,0.4,0.5,0.33,0.33,0.55,0.6,0.4,0.48,0.6,0.5,0.4,0.5,0.33,0.29,0.55,0.58,0.25,0.55,0.52,0.25,0.77,0.25,0.33,0.25,0.25,0.55,0.83,0.4,0.29,0.33,0.29,0.58,0.56,1.0,0.4,0.48,0.56,0.29,0.48,0.83" style="fill:rgb(0,0,0);font-family:URWPalladioL-Roma;font-size:8.97px;stroke:none;">Conceptualization, S.D.J.; writing—original draft preparation, S.D.J.; writing—review</text>
   <text y="107.98" x="76.535,81.018,86.237,91.7087,93.957,98.252,103.73,106.339,109.262,111.872,117.09,122.075,124.31750000000001,126.559,131.266,133.508,140.447,142.689,145.675,147.91750000000002,150.158,154.641,159.86,165.3317,167.58,172.897,175.139,178.124,180.366,188.848" svgx:width="0.5,0.58,0.61,0.55,0.48,0.61,0.29,0.33,0.29,0.58,0.56,0.25,0.55,0.52,0.25,0.77,0.25,0.33,0.25,0.55,0.5,0.58,0.61,0.55,0.72,0.25,0.33,0.25,0.95,0.25" style="fill:rgb(0,0,0);font-family:URWPalladioL-Roma;font-size:8.97px;stroke:none;">and editing, S.D.J. and V.J.M.</text>
   <text y="124.09" x="76.535,81.52,86.999,92.477,97.956,100.942,106.42,111.405" svgx:width="0.56,0.61,0.61,0.61,0.33,0.61,0.56,0.25" style="fill:rgb(0,0,0);font-family:URWPalladioL-Bold;font-size:8.97px;stroke:none;">Funding:</text>
   <text y="124.09" x="116.805,122.252,127.423,130.009,133.7764,136.025,143.435,148.287,151.797,156.8202,158.994,166.405,170.848,174.61540000000002,176.863,180.631,185.989,191.329,196.67,201.521,205.031,207.928,212.184,217.6557,219.861,224.775,229.7982,231.973,234.869,240.041,244.3466,246.545,249.54,254.711,257.608,261.118,265.561,273.407,278.765,282.275,286.717,289.31829999999997,291.56,297.496,301.752,305.52,309.776,314.219,317.56,321.505,326.7076,328.933,334.3,337.65,342.502,347.442,350.952,355.395,365.489,370.341,373.3011,375.548,378.444,383.616,387.9216,390.129,397.513,401.956,404.853,407.439,412.29,417.462,421.904,424.5053,426.738,429.733,434.904,438.672,441.569,444.154,447.051,452.409,455.306,459.6116,461.81,466.662,469.6221,471.878,478.791,481.376,483.962,488.219,491.568,496.509,501.5322,503.697,508.14,513.312" svgx:width="0.61,0.58,0.29,0.42,0.55,0.83,0.55,0.4,0.56,0.55,0.83,0.5,0.42,0.55,0.42,0.6,0.6,0.6,0.55,0.4,0.33,0.48,0.61,0.55,0.55,0.56,0.55,0.33,0.58,0.48,0.55,0.34,0.58,0.33,0.4,0.5,0.88,0.6,0.4,0.5,0.29,0.55,0.67,0.48,0.42,0.48,0.5,0.4,0.44,0.58,0.55,0.6,0.4,0.55,0.56,0.4,0.5,0.88,0.55,0.33,0.55,0.33,0.58,0.48,0.55,0.83,0.5,0.33,0.29,0.55,0.58,0.5,0.29,0.55,0.34,0.58,0.42,0.33,0.29,0.33,0.6,0.33,0.48,0.55,0.55,0.33,0.55,0.78,0.29,0.29,0.48,0.4,0.56,0.56,0.55,0.5,0.58,0.61" style="fill:rgb(0,0,0);font-family:URWPalladioL-Roma;font-size:8.97px;stroke:none;">This work was supported by the Intramural Research Programof the National Institute of Allergy and</text>
   <text y="134.222" x="76.535,79.557,84.775,87.761,92.056,96.037,98.96,101.569,106.465,111.872,115.6394,117.915,124.855,127.464,131.266,135.561,140.044,143.846,148.141,151.942,154.1845,156.426,163.877,168.36,171.283,173.892,178.788,184.006,188.489,191.0903,193.34,196.362,201.58,205.382,208.305,210.914,213.838,219.244,222.167,226.462,230.2294,232.506,237.401,240.36110000000002,242.629,250.089,254.384,258.867,261.476,264.399,269.617" svgx:width="0.34,0.58,0.33,0.48,0.44,0.33,0.29,0.55,0.6,0.42,0.55,0.77,0.29,0.42,0.48,0.5,0.42,0.48,0.42,0.25,0.55,0.83,0.5,0.33,0.29,0.55,0.58,0.5,0.29,0.55,0.34,0.58,0.42,0.33,0.29,0.33,0.6,0.33,0.48,0.42,0.55,0.55,0.33,0.55,0.83,0.48,0.5,0.29,0.33,0.58,0.25" style="fill:rgb(0,0,0);font-family:URWPalladioL-Roma;font-size:8.97px;stroke:none;">Infectious Diseases, National Institutes of Health.</text>
   <text y="150.332" x="76.186,83.162,87.143,92.621,98.1,103.085,110.554,113.54,118.023,123.502,128.487,136.458,140.941,146.42,149.406,153.387" svgx:width="0.78,0.44,0.61,0.61,0.56,0.83,0.33,0.5,0.61,0.56,0.89,0.5,0.61,0.33,0.44,0.25" style="fill:rgb(0,0,0);font-family:URWPalladioL-Bold;font-size:8.97px;stroke:none;">Acknowledgments:</text>
   <text y="150.332" x="158.752,166.713,171.0186,173.136,180.465,185.263,190.561,193.118,198.5897,200.701,203.259,205.816,210.701,215.0066,217.125,219.989,224.9225,227.001,229.866,234.98,239.373,244.487,249.5102,251.587,257.132,262.018,266.411,271.6136,273.74,280.119,282.676,286.402,290.128,292.685,297.799,302.684,306.893,310.481,312.578,315.505,321.04,326.427,331.796,334.0385,336.207,343.008,345.969,351.839,354.0815,356.25,363.552,366.514,373.35,376.311,383.112,385.35450000000003,387.523,394.826,397.787,405.098,408.0581,410.238,413.164,417.962,421.55,423.647,428.761,432.97,435.527,440.909,443.023,445.58,450.7826,452.908,456.81,460.122,464.331,468.725,471.589,474.146,479.261,484.2842,486.361,491.246,493.803,498.689,503.987,507.3" svgx:width="1.0,0.48,0.55,0.83,0.55,0.6,0.29,0.61,0.55,0.29,0.29,0.56,0.48,0.55,0.33,0.55,0.55,0.33,0.58,0.5,0.58,0.56,0.55,0.67,0.56,0.5,0.58,0.55,0.73,0.29,0.42,0.42,0.29,0.58,0.56,0.48,0.4,0.55,0.33,0.67,0.61,0.61,0.25,0.55,0.77,0.34,0.67,0.25,0.55,0.83,0.34,0.78,0.34,0.77,0.25,0.55,0.83,0.34,0.83,0.33,0.55,0.33,0.55,0.4,0.55,0.58,0.48,0.29,0.6,0.55,0.29,0.58,0.55,0.44,0.4,0.48,0.5,0.33,0.29,0.58,0.56,0.55,0.56,0.29,0.56,0.6,0.4,0.48" style="fill:rgb(0,0,0);font-family:URWPalladioL-Roma;font-size:8.97px;stroke:none;">We would like to thank Ryan Kissinger (RTB, DIR, NIAID, NIH) for help in creating Figure</text>
   <text y="150.332" x="513.723" svgx:width="0.5" style="fill:rgb(8,117,183);font-family:URWPalladioL-Roma;font-size:8.97px;stroke:none;">1</text>
   <text y="150.332" x="518.117" svgx:width="0.25" style="fill:rgb(0,0,0);font-family:URWPalladioL-Roma;font-size:8.97px;stroke:none;">.</text>
   <text y="166.441" x="76.535,83.009,87.994,93.473,98.951,101.937,105.918,108.904,112.85079999999999,115.126,120.112,123.6103,125.841,129.329,134.808,137.793,142.277,145.765,150.248,154.229,157.215" svgx:width="0.72,0.56,0.61,0.61,0.33,0.44,0.33,0.44,0.55,0.56,0.39,0.55,0.39,0.61,0.33,0.5,0.39,0.5,0.44,0.33,0.25" style="fill:rgb(0,0,0);font-family:URWPalladioL-Bold;font-size:8.97px;stroke:none;">Conﬂicts of Interest:</text>
   <text y="166.441" x="162.594,168.09,173.309,177.6146,179.845,184.329,189.735,192.658,197.877,202.772,206.314,210.0814,212.358,217.836,222.131,226.112,228.721,233.204,236.585,240.8906,243.121,248.34,253.2735,255.477,259.458,264.354,269.572,275.024,277.633,281.614,284.537,288.3044,290.58,295.476,298.4361,300.703,303.313,308.531,311.454,315.749,319.129,323.424,327.226,330.149" svgx:width="0.61,0.58,0.48,0.55,0.5,0.6,0.33,0.58,0.55,0.4,0.42,0.55,0.61,0.48,0.44,0.29,0.5,0.4,0.48,0.55,0.58,0.55,0.55,0.44,0.55,0.58,0.61,0.29,0.44,0.33,0.42,0.55,0.55,0.33,0.55,0.29,0.58,0.33,0.48,0.4,0.48,0.42,0.33,0.25" style="fill:rgb(0,0,0);font-family:URWPalladioL-Roma;font-size:8.97px;stroke:none;">The authors declare no conﬂicts of interest.</text>
   <text y="192.743" x="76.535,83.728,88.709,92.585,97.566,101.441,106.423,112.51,116.933,121.915" svgx:width="0.72,0.5,0.39,0.5,0.39,0.5,0.61,0.44,0.5,0.44" style="fill:rgb(0,0,0);font-family:URWPalladioL-Bold;font-size:9.96px;stroke:none;">References</text>
   <text y="211.632" x="76.535,81.018,83.26050000000001,98.05,106.396,110.314,116.569,120.981,124.466,127.342,132.477,136.386,138.6285,140.824,149.17,151.4125,153.608,158.196,162.422,166.975,171.386,175.1534,177.359,182.494,186.721,191.132,193.699,196.576,201.711,205.628,210.04,213.366,217.6716,219.824,227.183,232.0,235.485,240.39,244.617,248.20499999999998,250.334,252.901,256.6684,258.875,264.265,266.833,271.244,276.15,281.285,286.102,289.843,294.069,299.5407,301.692,309.051,311.618,314.494,319.69660000000005,321.861,327.252,332.131,336.949,339.516,343.928" svgx:width="0.5,0.25,0.55,0.95,0.44,0.71,0.5,0.4,0.33,0.58,0.56,0.25,0.55,0.95,0.25,0.55,0.61,0.48,0.52,0.5,0.42,0.55,0.58,0.48,0.5,0.29,0.33,0.58,0.44,0.5,0.4,0.48,0.55,0.83,0.55,0.4,0.56,0.48,0.4,0.55,0.29,0.42,0.55,0.61,0.29,0.5,0.56,0.58,0.55,0.42,0.48,0.61,0.55,0.83,0.29,0.33,0.58,0.55,0.61,0.55,0.55,0.29,0.5,0.25" style="fill:rgb(0,0,0);font-family:URWPalladioL-Roma;font-size:8.97px;stroke:none;">1. McCarthy, M. Texas healthcare worker is diagnosed with Ebola.</text>
   <text y="211.632" x="349.271,354.662,362.991" svgx:width="0.61,0.94,0.33" style="fill:rgb(0,0,0);font-family:URWPalladioL-Ital;font-size:8.97px;stroke:none;">BMJ</text>
   <text y="211.632" x="368.386,372.869,377.352,381.836" svgx:width="0.5,0.5,0.5,0.5" style="fill:rgb(0,0,0);font-family:URWPalladioL-Bold;font-size:8.97px;stroke:none;">2014</text>
   <text y="211.632" x="386.319" svgx:width="0.25" style="fill:rgb(0,0,0);font-family:URWPalladioL-Roma;font-size:8.97px;stroke:none;">,</text>
   <text y="211.632" x="390.76,395.171,399.583" svgx:width="0.5,0.5,0.5" style="fill:rgb(0,0,0);font-family:URWPalladioL-Ital;font-size:8.97px;stroke:none;">349</text>
   <text y="211.632" x="403.994,406.23650000000004,408.432,413.337,417.749,422.16,426.572,430.983,433.2255,436.33" svgx:width="0.25,0.55,0.56,0.5,0.5,0.5,0.5,0.25,0.55,0.33" style="fill:rgb(0,0,0);font-family:URWPalladioL-Roma;font-size:8.97px;stroke:none;">, g6200. [</text>
   <text y="211.632" x="439.268,445.524,448.841,453.658,457.399,461.14,467.034,471.26" svgx:width="0.71,0.4,0.55,0.42,0.42,0.67,0.48,0.33" style="fill:rgb(8,117,183);font-family:URWPalladioL-Roma;font-size:8.97px;stroke:none;">CrossRef</text>
   <text y="211.632" x="474.198,477.1581,479.377" svgx:width="0.33,0.55,0.33" style="fill:rgb(0,0,0);font-family:URWPalladioL-Roma;font-size:8.97px;stroke:none;">] [</text>
   <text y="211.632" x="482.315,487.644,492.956,497.835,506.181,510.408" svgx:width="0.6,0.6,0.55,0.95,0.48,0.61" style="fill:rgb(8,117,183);font-family:URWPalladioL-Roma;font-size:8.97px;stroke:none;">PubMed</text>
   <text y="211.632" x="515.798" svgx:width="0.33" style="fill:rgb(0,0,0);font-family:URWPalladioL-Roma;font-size:8.97px;stroke:none;">]</text>
   <text y="224.544" x="76.535,81.018,83.26050000000001,98.05,105.165,109.043,112.921,115.582,119.195,121.856,124.0985,127.417,134.532,136.819,139.0615,142.901,151.553,155.613,162.591,166.972,171.353,174.307,176.5495,179.868,186.983,189.27,191.51250000000002,195.351,200.875,205.256,208.869,211.53,213.7725,217.1,222.039,224.325,232.977,235.263,237.5055,241.345,246.869,250.482,253.143,257.204,261.585,263.8275,267.145,273.63,275.916,280.718,283.004,285.2465,289.086,296.201,298.8023,302.146,308.255,312.828,317.886,322.267,326.648,331.22,336.543,338.7855,342.104,349.219,351.506,356.079,358.365,360.6075,364.447,370.931,376.446,384.522,392.597,395.259,400.582,405.667,409.544,411.7865,415.105,422.184,424.47,429.043,431.33,436.277,438.564,440.8065,444.646,451.761,454.423,458.995,464.053,469.641,475.156,477.817,480.479,485.052,488.033,490.695,493.74,495.9825,499.301,505.401,507.687,515.287,517.574" svgx:width="0.5,0.25,0.55,0.78,0.42,0.42,0.29,0.4,0.29,0.25,0.55,0.78,0.25,0.25,0.55,0.95,0.44,0.76,0.48,0.48,0.4,0.25,0.55,0.78,0.25,0.25,0.55,0.6,0.48,0.4,0.29,0.25,0.55,0.61,0.25,0.95,0.25,0.25,0.55,0.6,0.4,0.29,0.44,0.48,0.25,0.55,0.71,0.25,0.52,0.25,0.25,0.55,0.78,0.29,0.55,0.67,0.5,0.55,0.48,0.48,0.5,0.58,0.25,0.55,0.78,0.25,0.5,0.25,0.25,0.55,0.71,0.6,0.88,0.88,0.29,0.58,0.56,0.42,0.25,0.55,0.77,0.25,0.5,0.25,0.61,0.25,0.25,0.55,0.78,0.29,0.5,0.55,0.61,0.6,0.29,0.29,0.5,0.33,0.29,0.33,0.25,0.55,0.67,0.25,0.83,0.25,0.25" style="fill:rgb(0,0,0);font-family:URWPalladioL-Roma;font-size:8.97px;stroke:none;">2. Assiri, A.; McGeer, A.; Perl, T.M.; Price, C.S.; Al Rabeeah, A.a.; Cummings, D.a.T.; Alabdullatif, Z.N.;</text>
   <text y="237.455" x="97.701,104.816,108.694,112.572,117.145,122.733,124.97550000000001,127.406,136.058,138.345,140.5875,143.091,150.207,152.868,160.944,166.459,169.12,174.443,177.104,185.18,187.4225,189.853,196.969,199.255,201.4975,204.002,212.654,217.227,222.312,227.634,233.222,238.216,243.21,251.285,253.5275,255.959,263.568,265.854,268.0965,270.592,274.973,277.9331,280.341,284.914,287.576,289.81850000000003,293.438,301.047,306.041,309.919,315.415,318.077,321.058,325.631,328.23229999999995,330.679,335.673,341.188,344.169,349.227,352.675,357.056,361.628,366.65119999999996,369.1,374.094,377.0541,379.527,388.178,390.84,396.428,402.016,404.677,408.98260000000005,411.445,417.033,421.606,425.484,428.4441,430.852,434.309,438.69,442.568,448.065,450.726,454.339,458.911,461.884,466.877,470.49,475.5132,477.962,481.84,486.925,492.248,497.836,501.293,506.286,514.362" svgx:width="0.78,0.42,0.42,0.5,0.61,0.25,0.55,0.95,0.25,0.25,0.55,0.78,0.29,0.88,0.6,0.29,0.58,0.29,0.88,0.25,0.55,0.78,0.25,0.25,0.55,0.95,0.5,0.56,0.58,0.61,0.55,0.55,0.88,0.25,0.55,0.83,0.25,0.25,0.55,0.48,0.33,0.55,0.5,0.29,0.25,0.55,0.83,0.55,0.42,0.6,0.29,0.33,0.5,0.29,0.55,0.55,0.6,0.33,0.55,0.4,0.48,0.5,0.56,0.55,0.55,0.33,0.55,0.95,0.29,0.61,0.61,0.29,0.48,0.55,0.61,0.5,0.42,0.33,0.55,0.4,0.48,0.42,0.6,0.29,0.4,0.5,0.33,0.55,0.4,0.56,0.55,0.42,0.56,0.58,0.61,0.4,0.55,0.88,0.48" style="fill:rgb(0,0,0);font-family:URWPalladioL-Roma;font-size:8.97px;stroke:none;">Assad, M.; Almulhim, A.; Makhdoom, H.; et al. Hospital outbreak of Middle East respiratory syndrome</text>
   <text y="250.367" x="98.05,102.031,106.927,110.307,115.203,120.421,124.904,129.97,132.58,136.05,141.456,145.258" svgx:width="0.44,0.55,0.4,0.55,0.58,0.5,0.56,0.29,0.4,0.6,0.42,0.25" style="fill:rgb(0,0,0);font-family:URWPalladioL-Roma;font-size:8.97px;stroke:none;">coronavirus.</text>
   <text y="250.367" x="150.638,157.614,159.8565,162.097,167.576,172.561,177.044,179.537,181.7795,184.917,187.902,190.1445,192.386,200.85,204.338,208.821" svgx:width="0.78,0.25,0.55,0.61,0.56,0.5,0.28,0.25,0.55,0.33,0.25,0.55,0.94,0.39,0.5,0.25" style="fill:rgb(0,0,0);font-family:URWPalladioL-Ital;font-size:8.97px;stroke:none;">N. Engl. J. Med.</text>
   <text y="250.367" x="214.2,218.683,223.166,227.65" svgx:width="0.5,0.5,0.5,0.5" style="fill:rgb(0,0,0);font-family:URWPalladioL-Bold;font-size:8.97px;stroke:none;">2013</text>
   <text y="250.367" x="232.133" svgx:width="0.25" style="fill:rgb(0,0,0);font-family:URWPalladioL-Roma;font-size:8.97px;stroke:none;">,</text>
   <text y="250.367" x="236.616,241.099,245.582" svgx:width="0.5,0.5,0.5" style="fill:rgb(0,0,0);font-family:URWPalladioL-Ital;font-size:8.97px;stroke:none;">369</text>
   <text y="250.367" x="250.065,252.3075,254.548,259.031,263.515,267.998,272.481,276.964,281.448,285.931,288.1735,291.311" svgx:width="0.25,0.55,0.5,0.5,0.5,0.5,0.5,0.5,0.5,0.25,0.55,0.33" style="fill:rgb(0,0,0);font-family:URWPalladioL-Roma;font-size:8.97px;stroke:none;">, 407–416. [</text>
   <text y="250.367" x="294.296,300.654,304.034,308.93,312.731,316.533,322.523,326.818" svgx:width="0.71,0.4,0.55,0.42,0.42,0.67,0.48,0.33" style="fill:rgb(8,117,183);font-family:URWPalladioL-Roma;font-size:8.97px;stroke:none;">CrossRef</text>
   <text y="250.367" x="329.803,332.7631,335.031" svgx:width="0.33,0.55,0.33" style="fill:rgb(0,0,0);font-family:URWPalladioL-Roma;font-size:8.97px;stroke:none;">] [</text>
   <text y="250.367" x="338.017,343.432,348.839,353.797,362.28,366.574" svgx:width="0.6,0.6,0.55,0.95,0.48,0.61" style="fill:rgb(8,117,183);font-family:URWPalladioL-Roma;font-size:8.97px;stroke:none;">PubMed</text>
   <text y="250.367" x="372.053" svgx:width="0.33" style="fill:rgb(0,0,0);font-family:URWPalladioL-Roma;font-size:8.97px;stroke:none;">]</text>
   <text y="263.278" x="76.535,81.018,83.26050000000001,98.05,104.534,109.857,114.851,122.478,126.859,129.52,132.182,134.4245,136.883,143.861,146.147,148.3895,150.94,158.055,163.113,168.701,171.362,174.975,177.636,182.209,186.782,191.867,194.1095,196.568,200.83,203.116,205.35850000000002,207.909,213.497,217.877,222.258,224.50050000000002,226.959,231.761,234.047,236.2895,238.839,244.427,248.808,253.189,255.4315,257.89,260.935,263.222,265.4645,268.014,271.06,276.575,281.897,286.973,289.2155,291.683,297.271,299.558,301.8005,304.341,311.941,314.603,318.48,323.803,326.465,331.979,335.592,340.165,342.4075,344.875,352.484,354.771,357.0135,359.554,365.663,368.325,373.382,378.376,383.891,389.479,391.7215,394.189,400.673,402.9155,405.374,410.175,413.788,418.361,423.684,427.561,435.637,438.299,442.176,446.054,448.716,453.709,458.9116,461.446,465.507,470.83,475.403,479.015,483.588,487.649,490.63,495.011,498.624,501.285,505.163,508.144,510.806,514.867" svgx:width="0.5,0.25,0.55,0.71,0.58,0.55,0.83,0.48,0.29,0.29,0.25,0.55,0.76,0.25,0.25,0.55,0.78,0.55,0.61,0.29,0.4,0.29,0.5,0.5,0.56,0.25,0.55,0.56,0.25,0.25,0.55,0.61,0.48,0.48,0.25,0.55,0.52,0.25,0.25,0.55,0.61,0.48,0.48,0.25,0.55,0.33,0.25,0.25,0.55,0.33,0.6,0.58,0.56,0.25,0.55,0.61,0.25,0.25,0.55,0.83,0.29,0.42,0.58,0.29,0.6,0.4,0.5,0.25,0.55,0.83,0.25,0.25,0.55,0.72,0.29,0.55,0.55,0.6,0.61,0.25,0.55,0.71,0.25,0.55,0.61,0.4,0.5,0.58,0.42,0.88,0.29,0.42,0.42,0.29,0.55,0.58,0.55,0.44,0.58,0.5,0.4,0.5,0.44,0.33,0.48,0.4,0.29,0.42,0.33,0.29,0.44,0.42" style="fill:rgb(0,0,0);font-family:URWPalladioL-Roma;font-size:8.97px;stroke:none;">3. Chowell, G.; Abdirizak, F.; Lee, S.; Lee, J.; Jung, E.; Nishiura, H.; Viboud, C. Transmission characteristics</text>
   <text y="276.19" x="98.05,103.044,106.0041,108.604,117.256,122.844,128.953,133.6174,136.27,140.843,146.166,151.6377,154.269,159.07,166.186,172.295,176.9594,179.612,182.273,187.4756,190.111,193.092,198.415,202.7206,205.311,210.634,215.015,219.588,222.249,225.23,230.553,234.614,239.187,242.635,246.9406,249.531,253.408,257.789,260.771,263.752,266.414,271.737,276.822,279.0645,282.794,289.7906,292.424,296.485,301.478,309.554,315.051,319.624,323.236,327.809,330.79,333.452,338.619,342.92460000000005,345.506,349.384,352.365,357.88,363.468,367.565" svgx:width="0.55,0.33,0.55,0.95,0.61,0.67,0.52,0.55,0.5,0.58,0.61,0.55,0.52,0.78,0.67,0.52,0.55,0.29,0.58,0.55,0.33,0.58,0.48,0.55,0.58,0.48,0.5,0.29,0.33,0.58,0.44,0.5,0.4,0.48,0.55,0.42,0.48,0.33,0.33,0.29,0.58,0.56,0.25,0.55,0.78,0.55,0.44,0.55,0.88,0.6,0.5,0.4,0.5,0.33,0.29,0.56,0.48,0.55,0.42,0.33,0.6,0.61,0.56,0.25" style="fill:rgb(0,0,0);font-family:URWPalladioL-Roma;font-size:8.97px;stroke:none;">of MERS and SARS in the healthcare setting: A comparative study.</text>
   <text y="276.19" x="373.806,379.394,388.028,394.03790000000004,396.643,405.276,408.834,413.407" svgx:width="0.61,0.94,0.67,0.55,0.94,0.39,0.5,0.25" style="fill:rgb(0,0,0);font-family:URWPalladioL-Ital;font-size:8.97px;stroke:none;">BMC Med.</text>
   <text y="276.19" x="419.65,424.133,428.616,433.1" svgx:width="0.5,0.5,0.5,0.5" style="fill:rgb(0,0,0);font-family:URWPalladioL-Bold;font-size:8.97px;stroke:none;">2015</text>
   <text y="276.19" x="437.582" svgx:width="0.25" style="fill:rgb(0,0,0);font-family:URWPalladioL-Roma;font-size:8.97px;stroke:none;">,</text>
   <text y="276.19" x="442.452,447.025" svgx:width="0.5,0.5" style="fill:rgb(0,0,0);font-family:URWPalladioL-Ital;font-size:8.97px;stroke:none;">13</text>
   <text y="276.19" x="451.597,453.8395,456.463,461.035,465.608,470.181,472.4235,476.428" svgx:width="0.25,0.55,0.5,0.5,0.5,0.25,0.55,0.33" style="fill:rgb(0,0,0);font-family:URWPalladioL-Roma;font-size:8.97px;stroke:none;">, 210. [</text>
   <text y="276.19" x="479.473,485.958,489.415,494.408,498.286,502.164,508.273,512.654" svgx:width="0.71,0.4,0.55,0.42,0.42,0.67,0.48,0.33" style="fill:rgb(8,117,183);font-family:URWPalladioL-Roma;font-size:8.97px;stroke:none;">CrossRef</text>
   <text y="276.19" x="515.69" svgx:width="0.33" style="fill:rgb(0,0,0);font-family:URWPalladioL-Roma;font-size:8.97px;stroke:none;">]</text>
   <text y="289.102" x="98.05" svgx:width="0.33" style="fill:rgb(0,0,0);font-family:URWPalladioL-Roma;font-size:8.97px;stroke:none;">[</text>
   <text y="289.102" x="101.036,106.452,111.858,116.817,125.299,129.594" svgx:width="0.6,0.6,0.55,0.95,0.48,0.61" style="fill:rgb(8,117,183);font-family:URWPalladioL-Roma;font-size:8.97px;stroke:none;">PubMed</text>
   <text y="289.102" x="135.072" svgx:width="0.33" style="fill:rgb(0,0,0);font-family:URWPalladioL-Roma;font-size:8.97px;stroke:none;">]</text>
   <text y="302.013" x="76.535,81.018,83.26050000000001,98.05,103.518,107.8236,110.05,118.506,121.11,124.027,126.26950000000001,128.511,133.978,136.215,138.4575,140.707,145.763,150.237,155.43959999999998,157.692,164.618,169.504,172.877,177.163,185.065,189.539,192.143,196.429,201.637,203.8795,206.121,213.557,215.794,218.03650000000002,220.277,225.252,229.727,232.331,236.805,241.279,244.814,249.288,254.496,259.382,261.6245,263.874,270.8,273.037,275.2795,277.52,285.986,291.382,296.59,300.384,303.301,307.587,310.46,312.7025,314.943,320.249,322.486,325.466,327.7085,329.949,334.647,341.609,347.587,352.2514,354.531,359.005,364.213,369.6847,371.927,380.392,385.859,391.837,396.535,398.77750000000003,401.018,406.996,411.282,415.255,419.541,424.749,427.70910000000003,429.913,432.517,437.725,441.519,444.123,449.098,454.306,457.223,460.9904,463.273,465.877,471.085,474.002,478.9355,481.134,485.42,493.322,497.608,500.981,505.957,508.561,513.769" svgx:width="0.5,0.25,0.55,0.61,0.48,0.55,1.0,0.29,0.33,0.25,0.55,0.61,0.25,0.25,0.55,0.56,0.5,0.58,0.55,0.77,0.55,0.4,0.48,0.88,0.5,0.29,0.48,0.58,0.25,0.55,0.83,0.25,0.25,0.55,0.56,0.5,0.29,0.5,0.5,0.4,0.5,0.58,0.55,0.25,0.55,0.77,0.25,0.25,0.55,0.95,0.6,0.58,0.42,0.33,0.48,0.4,0.25,0.55,0.72,0.25,0.33,0.25,0.55,0.52,0.78,0.67,0.52,0.55,0.5,0.58,0.61,0.55,0.95,0.61,0.67,0.52,0.25,0.55,0.67,0.48,0.44,0.48,0.58,0.33,0.55,0.29,0.58,0.42,0.29,0.56,0.58,0.33,0.42,0.55,0.29,0.58,0.33,0.55,0.55,0.48,0.88,0.48,0.4,0.56,0.29,0.58,0.56" style="fill:rgb(0,0,0);font-family:URWPalladioL-Roma;font-size:8.97px;stroke:none;">4. de Wit, E.; van Doremalen, N.; Falzarano, D.; Munster, V.J. SARS and MERS: Recent insights into emerging</text>
   <text y="314.925" x="98.05,102.031,106.927,110.307,115.203,120.421,124.904,129.97,132.58,136.05,141.456,145.258,149.553,153.355" svgx:width="0.44,0.55,0.4,0.55,0.58,0.5,0.56,0.29,0.4,0.6,0.42,0.48,0.42,0.25" style="fill:rgb(0,0,0);font-family:URWPalladioL-Roma;font-size:8.97px;stroke:none;">coronaviruses.</text>
   <text y="314.925" x="158.734,165.71,169.691,172.677,174.9195,178.057,184.037,187.525,191.515,193.7575,196.895,205.359,207.852,211.501,214.828,218.809,222.96,225.453,229.434,231.927" svgx:width="0.78,0.44,0.33,0.25,0.55,0.67,0.39,0.5,0.25,0.55,0.94,0.28,0.41,0.39,0.44,0.46,0.28,0.44,0.28,0.25" style="fill:rgb(0,0,0);font-family:URWPalladioL-Ital;font-size:8.97px;stroke:none;">Nat. Rev. Microbiol.</text>
   <text y="314.925" x="237.306,241.789,246.272,250.756" svgx:width="0.5,0.5,0.5,0.5" style="fill:rgb(0,0,0);font-family:URWPalladioL-Bold;font-size:8.97px;stroke:none;">2016</text>
   <text y="314.925" x="255.238" svgx:width="0.25" style="fill:rgb(0,0,0);font-family:URWPalladioL-Roma;font-size:8.97px;stroke:none;">,</text>
   <text y="314.925" x="259.722,264.205" svgx:width="0.5,0.5" style="fill:rgb(0,0,0);font-family:URWPalladioL-Ital;font-size:8.97px;stroke:none;">14</text>
   <text y="314.925" x="268.688,270.9305,273.171,277.654,282.138,286.621,291.104,295.587,300.07,304.554,306.7965,309.934" svgx:width="0.25,0.55,0.5,0.5,0.5,0.5,0.5,0.5,0.5,0.25,0.55,0.33" style="fill:rgb(0,0,0);font-family:URWPalladioL-Roma;font-size:8.97px;stroke:none;">, 523–534. [</text>
   <text y="314.925" x="312.919,319.277,322.657,327.553,331.354,335.156,341.146,345.44" svgx:width="0.71,0.4,0.55,0.42,0.42,0.67,0.48,0.33" style="fill:rgb(8,117,183);font-family:URWPalladioL-Roma;font-size:8.97px;stroke:none;">CrossRef</text>
   <text y="314.925" x="348.426,351.3861,353.654" svgx:width="0.33,0.55,0.33" style="fill:rgb(0,0,0);font-family:URWPalladioL-Roma;font-size:8.97px;stroke:none;">] [</text>
   <text y="314.925" x="356.64,362.055,367.462,372.42,380.903,385.197" svgx:width="0.6,0.6,0.55,0.95,0.48,0.61" style="fill:rgb(8,117,183);font-family:URWPalladioL-Roma;font-size:8.97px;stroke:none;">PubMed</text>
   <text y="314.925" x="390.676" svgx:width="0.33" style="fill:rgb(0,0,0);font-family:URWPalladioL-Roma;font-size:8.97px;stroke:none;">]</text>
   <text y="327.836" x="76.535,81.018,83.26050000000001,98.05,105.361,110.659,115.774,118.638,122.847,125.65,127.89250000000001,130.088,133.014,135.211,141.441,143.637,145.8795,148.075,155.377,160.262,165.561,170.447,174.656,179.77,182.01250000000002,184.207,191.008,193.205,195.44750000000002,197.643,204.479,209.848,214.057,219.171,221.4135,223.608,228.977,231.174,233.4165,235.612,242.448,245.04930000000002,247.246,252.615,257.008,262.122,267.491,271.885,274.696,276.93850000000003,279.134,284.995,287.192,289.4345,291.629,298.466,301.0673,303.263,310.064,315.179,319.572,324.686,328.895,332.366,334.923,337.1655,339.361,347.322,349.518,351.7605,353.956,360.792,365.651,371.033,373.191,378.56,381.117,386.002,391.116,395.325,397.882,400.686,402.9285,405.123,411.502,413.699,415.9415,418.137,424.516,429.63,434.929,440.298,444.691,447.248,450.06,452.3025,454.498,461.334,463.531,465.7735,467.968,474.804,477.40529999999995,479.602,487.915,493.213,495.77,498.327,502.721,504.9635,507.158,515.471,517.668" svgx:width="0.5,0.25,0.55,0.83,0.6,0.58,0.33,0.48,0.4,0.25,0.55,0.33,0.25,0.71,0.25,0.25,0.55,0.83,0.56,0.6,0.56,0.48,0.58,0.25,0.55,0.77,0.25,0.25,0.55,0.78,0.61,0.48,0.58,0.25,0.55,0.61,0.25,0.25,0.55,0.78,0.29,0.55,0.61,0.5,0.58,0.61,0.5,0.4,0.25,0.55,0.67,0.25,0.25,0.55,0.78,0.29,0.55,0.77,0.58,0.5,0.58,0.48,0.4,0.29,0.25,0.55,1.0,0.25,0.25,0.55,0.78,0.55,0.6,0.55,0.61,0.29,0.56,0.58,0.48,0.29,0.4,0.25,0.55,0.73,0.25,0.25,0.55,0.73,0.58,0.6,0.61,0.5,0.29,0.4,0.25,0.55,0.78,0.25,0.25,0.55,0.78,0.29,0.55,0.95,0.6,0.29,0.29,0.5,0.25,0.55,0.95,0.25,0.25" style="fill:rgb(0,0,0);font-family:URWPalladioL-Roma;font-size:8.97px;stroke:none;">5. Hunter, J.C.; Nguyen, D.; Aden, B.; Al Bandar, Z.; Al Dhaheri, W.; Abu Elkheir, K.; Khudair, A.; Al Mulla, M.;</text>
   <text y="340.748" x="98.05,103.419,106.02029999999999,107.707,112.32,116.714,119.271,123.48,128.594,130.8365,132.53,136.59,138.787,141.0295,142.882,145.843,153.602,157.995,165.754,170.614,175.007,178.909,182.81,188.109,191.834,194.0765,195.771,203.082,205.279,207.5215,209.373,213.582,216.5421,218.178,222.572,225.129,227.3715,230.295,234.873,238.344,242.738,247.852,251.578,259.337,261.894,265.619,269.345,271.902,276.7,281.9026,283.554,288.352,291.3121,293.009,301.321,303.878,309.247,314.616,317.173,321.47860000000003,323.113,328.482,332.876,336.601,339.5611,341.197,347.067,351.276,355.001,360.282,362.839,366.31,370.704,373.568,378.366,381.837,386.86019999999996,388.463,393.076,397.961,403.075,408.444,411.748,416.546,424.305,428.61060000000003,430.245,436.475,441.273,444.586,449.383,454.497,458.891,463.856,466.413,469.813,475.112,478.87940000000003,480.569,483.53,488.644,491.57,495.779,499.68,502.545,505.102,509.9,515.014" svgx:width="0.61,0.29,0.55,0.52,0.5,0.29,0.48,0.58,0.25,0.55,0.56,0.25,0.25,0.55,0.34,0.88,0.5,0.88,0.55,0.5,0.44,0.44,0.6,0.42,0.25,0.55,0.83,0.25,0.25,0.55,0.48,0.33,0.55,0.5,0.29,0.25,0.55,0.61,0.4,0.5,0.58,0.42,0.88,0.29,0.42,0.42,0.29,0.55,0.58,0.55,0.55,0.33,0.55,0.95,0.29,0.61,0.61,0.29,0.48,0.55,0.61,0.5,0.42,0.33,0.55,0.67,0.48,0.42,0.6,0.29,0.4,0.5,0.33,0.55,0.4,0.56,0.55,0.52,0.56,0.58,0.61,0.4,0.55,0.88,0.48,0.55,0.71,0.55,0.4,0.55,0.58,0.5,0.56,0.29,0.4,0.6,0.42,0.55,0.34,0.58,0.33,0.48,0.44,0.33,0.29,0.55,0.58,0.42" style="fill:rgb(0,0,0);font-family:URWPalladioL-Roma;font-size:8.97px;stroke:none;">El Saleh, F.; Imambaccus, H.; et al. Transmission of Middle East Respiratory Syndrome Coronavirus Infections</text>
   <text y="353.66" x="98.05,100.659,105.86160000000001,108.119,115.579,119.874,124.357,126.967,129.89,135.108,139.089,143.572,146.953,151.2586,153.489,158.197,162.492,165.415,168.338,170.947,176.165,181.151,184.952,187.1945,189.436,196.411,201.37,206.752,209.018,215.958,221.177,225.66,230.618,233.227" svgx:width="0.29,0.58,0.55,0.83,0.48,0.5,0.29,0.33,0.58,0.44,0.5,0.4,0.48,0.55,0.52,0.48,0.33,0.33,0.29,0.58,0.56,0.42,0.25,0.55,0.78,0.55,0.6,0.55,0.77,0.58,0.5,0.55,0.29,0.25" style="fill:rgb(0,0,0);font-family:URWPalladioL-Roma;font-size:8.97px;stroke:none;">in Healthcare Settings, Abu Dhabi.</text>
   <text y="353.66" x="238.606,244.084,251.06,254.548,257.875,262.358,264.6005,267.738,270.724,275.709,278.202,281.69,285.339,288.325,290.5675,293.704,300.68,303.173,306.661" svgx:width="0.61,0.78,0.39,0.39,0.5,0.25,0.55,0.33,0.56,0.28,0.39,0.41,0.33,0.25,0.55,0.78,0.28,0.39,0.25" style="fill:rgb(0,0,0);font-family:URWPalladioL-Ital;font-size:8.97px;stroke:none;">Emerg. Infect. Dis.</text>
   <text y="353.66" x="312.039,316.522,321.005,325.489" svgx:width="0.5,0.5,0.5,0.5" style="fill:rgb(0,0,0);font-family:URWPalladioL-Bold;font-size:8.97px;stroke:none;">2016</text>
   <text y="353.66" x="329.972" svgx:width="0.25" style="fill:rgb(0,0,0);font-family:URWPalladioL-Roma;font-size:8.97px;stroke:none;">,</text>
   <text y="353.66" x="334.455,338.938" svgx:width="0.5,0.5" style="fill:rgb(0,0,0);font-family:URWPalladioL-Ital;font-size:8.97px;stroke:none;">22</text>
   <text y="353.66" x="343.422,345.66450000000003,347.905,352.388,356.872,361.355,365.838,370.321,374.805,379.288,381.5305,384.668" svgx:width="0.25,0.55,0.5,0.5,0.5,0.5,0.5,0.5,0.5,0.25,0.55,0.33" style="fill:rgb(0,0,0);font-family:URWPalladioL-Roma;font-size:8.97px;stroke:none;">, 647–656. [</text>
   <text y="353.66" x="387.653,394.011,397.391,402.287,406.088,409.89,415.88,420.174" svgx:width="0.71,0.4,0.55,0.42,0.42,0.67,0.48,0.33" style="fill:rgb(8,117,183);font-family:URWPalladioL-Roma;font-size:8.97px;stroke:none;">CrossRef</text>
   <text y="353.66" x="423.16,426.12010000000004,428.388" svgx:width="0.33,0.55,0.33" style="fill:rgb(0,0,0);font-family:URWPalladioL-Roma;font-size:8.97px;stroke:none;">] [</text>
   <text y="353.66" x="431.374,436.789,442.196,447.154,455.637,459.931" svgx:width="0.6,0.6,0.55,0.95,0.48,0.61" style="fill:rgb(8,117,183);font-family:URWPalladioL-Roma;font-size:8.97px;stroke:none;">PubMed</text>
   <text y="353.66" x="465.41" svgx:width="0.33" style="fill:rgb(0,0,0);font-family:URWPalladioL-Roma;font-size:8.97px;stroke:none;">]</text>
   <text y="366.571" x="76.535,81.018,83.26050000000001,98.05,103.574,107.452,112.775,117.155,122.478,125.14,129.2,134.523,139.846,144.419,149.504,154.077,156.3195,159.418,167.018,169.304,174.408,176.694,178.9365,182.447,190.047,194.428,199.751,204.323,209.911,213.789,218.874,223.447,228.532,233.105,235.3475,238.446,243.248,245.534,252.649,254.8915,258.0,263.524,266.972,271.965,277.023,281.596,286.653,289.315,293.6206,296.75,303.234,306.847,309.508,317.584,321.965,326.538,331.861,334.906,341.39,346.384,351.707,356.792,361.72549999999995,364.84,370.163,374.544,382.619,387.613,391.225,394.683,400.005,404.578,409.663,412.325,416.2718,419.44,422.486,426.866,432.034,436.414,440.002,443.082,448.249,450.91,454.45,459.965,463.7324,466.906,469.888,473.5,478.073,483.396,487.274,495.35,498.011,501.889,505.766,508.428,513.421" svgx:width="0.5,0.25,0.55,0.6,0.42,0.58,0.48,0.58,0.29,0.44,0.58,0.58,0.5,0.56,0.5,0.25,0.55,0.83,0.25,0.67,0.25,0.25,0.55,0.83,0.48,0.58,0.5,0.61,0.42,0.56,0.5,0.56,0.5,0.25,0.55,0.52,0.25,0.78,0.25,0.55,0.6,0.4,0.55,0.55,0.5,0.55,0.29,0.48,0.55,0.71,0.4,0.29,0.88,0.48,0.5,0.58,0.33,0.71,0.55,0.58,0.56,0.55,0.55,0.58,0.48,0.88,0.55,0.4,0.4,0.58,0.5,0.56,0.29,0.44,0.55,0.33,0.48,0.56,0.48,0.4,0.55,0.56,0.29,0.4,0.6,0.42,0.55,0.33,0.4,0.5,0.58,0.42,0.88,0.29,0.42,0.42,0.29,0.55,0.58" style="fill:rgb(0,0,0);font-family:URWPalladioL-Roma;font-size:8.97px;stroke:none;">6. Pshenichnaya, N.Y.; Nenadskaya, S.A. Probable Crimean-Congo hemorrhagic fever virus transmission</text>
   <text y="379.483" x="98.05,102.906,106.856,110.805,116.168,119.682,123.035,127.296,132.76770000000002,134.963,139.41,142.372,145.272,149.532,153.12,155.287,159.735,163.995,167.348,172.205,175.976,180.833,183.421,186.383,191.328,195.589,200.766,205.026,208.54,212.987,215.887,218.475,223.652,228.6752,230.83,238.684,242.944,248.379,250.967,254.916,259.364,261.96529999999996,264.194,269.539,272.893,277.749,281.689,285.95,291.385,296.748,300.101,304.362,308.12940000000003,310.375,312.963,318.16560000000004,320.372,326.314,331.677,335.449,339.22,341.808,346.256,348.4985,351.619,359.011,363.867,367.639,372.495,376.444,381.301,389.155,391.743,396.19,398.7913,401.011,404.961,407.549,412.912,416.684,419.583,423.844,426.699" svgx:width="0.55,0.44,0.44,0.6,0.4,0.4,0.48,0.61,0.55,0.5,0.33,0.33,0.48,0.4,0.55,0.5,0.48,0.4,0.55,0.42,0.55,0.29,0.33,0.56,0.48,0.58,0.48,0.4,0.5,0.33,0.29,0.58,0.56,0.55,0.88,0.48,0.61,0.29,0.44,0.5,0.29,0.55,0.6,0.4,0.55,0.44,0.48,0.61,0.6,0.4,0.48,0.42,0.55,0.29,0.58,0.55,0.67,0.6,0.42,0.42,0.29,0.5,0.25,0.55,0.83,0.55,0.42,0.55,0.44,0.55,0.88,0.29,0.5,0.29,0.55,0.44,0.29,0.6,0.42,0.33,0.48,0.4,0.25" style="fill:rgb(0,0,0);font-family:URWPalladioL-Roma;font-size:8.97px;stroke:none;">occurred after aerosol-generating medical procedures in Russia: Nosocomial cluster.</text>
   <text y="379.483" x="432.057,435.019,439.964,442.926,445.1685,448.29,451.252,453.4945,455.708,458.67,463.615,466.088,469.548,473.168,476.13,478.3725,481.494,488.414,490.886,494.346" svgx:width="0.33,0.56,0.33,0.25,0.55,0.33,0.25,0.55,0.33,0.56,0.28,0.39,0.41,0.33,0.25,0.55,0.78,0.28,0.39,0.25" style="fill:rgb(0,0,0);font-family:URWPalladioL-Ital;font-size:8.97px;stroke:none;">Int. J. Infect. Dis.</text>
   <text y="379.483" x="499.705,504.188,508.671,513.155" svgx:width="0.5,0.5,0.5,0.5" style="fill:rgb(0,0,0);font-family:URWPalladioL-Bold;font-size:8.97px;stroke:none;">2015</text>
   <text y="379.483" x="517.637" svgx:width="0.25" style="fill:rgb(0,0,0);font-family:URWPalladioL-Roma;font-size:8.97px;stroke:none;">,</text>
   <text y="392.394" x="98.05,102.533" svgx:width="0.5,0.5" style="fill:rgb(0,0,0);font-family:URWPalladioL-Ital;font-size:8.97px;stroke:none;">33</text>
   <text y="392.394" x="107.017,109.2595,111.5,115.983,120.467,124.95,129.433,133.916,138.399,142.883,145.12550000000002,148.262" svgx:width="0.25,0.55,0.5,0.5,0.5,0.5,0.5,0.5,0.5,0.25,0.55,0.33" style="fill:rgb(0,0,0);font-family:URWPalladioL-Roma;font-size:8.97px;stroke:none;">, 120–122. [</text>
   <text y="392.394" x="151.248,157.605,160.986,165.881,169.683,173.485,179.475,183.769" svgx:width="0.71,0.4,0.55,0.42,0.42,0.67,0.48,0.33" style="fill:rgb(8,117,183);font-family:URWPalladioL-Roma;font-size:8.97px;stroke:none;">CrossRef</text>
   <text y="392.394" x="186.755" svgx:width="0.33" style="fill:rgb(0,0,0);font-family:URWPalladioL-Roma;font-size:8.97px;stroke:none;">]</text>
   <text y="405.306" x="76.535,81.018,83.26050000000001,98.05,105.087,109.633,114.77,117.416,121.771,125.626,127.86850000000001,130.145,137.218,139.491,141.73350000000002,144.001,149.574,154.865,159.83,167.858,171.713,176.677,181.968,184.2105,186.487,193.424,195.697,197.9395,200.207,208.471,213.017,215.663,220.718,225.073,228.001,230.2435,232.52,235.547,237.82,240.0625,242.33,247.885,252.24,257.532,262.823,267.178,270.142,273.106,275.3485,277.625,284.698,286.9405,289.208,296.2046,298.527,301.955,306.31,311.447,314.092,318.447,325.8921,328.276,333.24,336.2001,338.504,341.468,346.76,351.0656,353.36,356.952,359.597,363.452,368.508,372.2754,374.599,379.145,384.437,389.9087,392.237,397.793,400.438,404.293,408.648,413.194,417.049,421.3546,423.641,426.605,430.196,434.742,440.034,443.889,451.917,454.563,458.418,462.273,464.918,469.883,475.0856,477.42,481.966,485.821,489.676,494.64,498.677,501.322,505.868,508.832,513.187" svgx:width="0.5,0.25,0.55,0.77,0.5,0.56,0.29,0.48,0.42,0.25,0.55,0.78,0.25,0.25,0.55,0.61,0.58,0.55,0.88,0.42,0.55,0.58,0.25,0.55,0.76,0.25,0.25,0.55,1.0,0.5,0.29,0.56,0.48,0.4,0.25,0.55,0.33,0.25,0.25,0.55,0.61,0.48,0.58,0.58,0.48,0.33,0.33,0.25,0.55,0.78,0.25,0.55,0.78,0.55,0.4,0.48,0.56,0.29,0.48,0.83,0.55,0.55,0.33,0.55,0.33,0.58,0.48,0.55,0.4,0.29,0.42,0.56,0.42,0.55,0.5,0.58,0.61,0.55,0.61,0.29,0.42,0.48,0.5,0.42,0.48,0.55,0.33,0.4,0.5,0.58,0.42,0.88,0.29,0.42,0.42,0.29,0.55,0.58,0.55,0.5,0.42,0.42,0.55,0.44,0.29,0.5,0.33,0.48,0.61" style="fill:rgb(0,0,0);font-family:URWPalladioL-Roma;font-size:8.97px;stroke:none;">7. Davies, A.; Thomson, G.; Walker, J.; Bennett, A. A review of the risks and disease transmission associated</text>
   <text y="418.218" x="97.674,105.152,107.761,110.684,115.8866,118.144,122.627,126.922,130.303,135.198,139.0,143.896,146.4973,148.747,153.732,158.027,163.245,167.54,171.082,175.565,178.488,181.097,186.316,191.3392,193.543,201.46,205.755,211.233,213.843,217.824,222.307,224.9083,227.158,232.547,235.927,240.823,244.804,249.099,254.577,259.984,263.364,267.659,271.461" svgx:width="0.83,0.29,0.33,0.58,0.55,0.5,0.48,0.4,0.55,0.42,0.55,0.29,0.55,0.56,0.48,0.58,0.48,0.4,0.5,0.33,0.29,0.58,0.56,0.55,0.88,0.48,0.61,0.29,0.44,0.5,0.29,0.55,0.6,0.4,0.55,0.44,0.48,0.61,0.6,0.4,0.48,0.42,0.25" style="fill:rgb(0,0,0);font-family:URWPalladioL-Roma;font-size:8.97px;stroke:none;">with aerosol generating medical procedures.</text>
   <text y="418.218" x="276.838,279.824,282.0665,284.307,287.293,292.278,294.771,298.259,301.908,304.894,307.1365,310.274,315.752,319.079,322.567,326.557" svgx:width="0.33,0.25,0.55,0.33,0.56,0.28,0.39,0.41,0.33,0.25,0.55,0.61,0.39,0.39,0.5,0.25" style="fill:rgb(0,0,0);font-family:URWPalladioL-Ital;font-size:8.97px;stroke:none;">J. Infect. Prev.</text>
   <text y="418.218" x="331.936,336.419,340.902,345.386" svgx:width="0.5,0.5,0.5,0.5" style="fill:rgb(0,0,0);font-family:URWPalladioL-Bold;font-size:8.97px;stroke:none;">2009</text>
   <text y="418.218" x="349.869" svgx:width="0.25" style="fill:rgb(0,0,0);font-family:URWPalladioL-Roma;font-size:8.97px;stroke:none;">,</text>
   <text y="418.218" x="354.352,358.835" svgx:width="0.5,0.5" style="fill:rgb(0,0,0);font-family:URWPalladioL-Ital;font-size:8.97px;stroke:none;">10</text>
   <text y="418.218" x="363.318,365.5605,367.801,372.284,376.768,381.251,385.734,390.217,394.701,399.184,401.42650000000003,404.564" svgx:width="0.25,0.55,0.5,0.5,0.5,0.5,0.5,0.5,0.5,0.25,0.55,0.33" style="fill:rgb(0,0,0);font-family:URWPalladioL-Roma;font-size:8.97px;stroke:none;">, 122–126. [</text>
   <text y="418.218" x="407.549,413.907,417.287,422.183,425.984,429.786,435.776,440.07" svgx:width="0.71,0.4,0.55,0.42,0.42,0.67,0.48,0.33" style="fill:rgb(8,117,183);font-family:URWPalladioL-Roma;font-size:8.97px;stroke:none;">CrossRef</text>
   <text y="418.218" x="443.056" svgx:width="0.33" style="fill:rgb(0,0,0);font-family:URWPalladioL-Roma;font-size:8.97px;stroke:none;">]</text>
   <text y="431.129" x="76.535,81.018,83.26050000000001,98.05,101.096,106.61,112.198,116.076,121.07,126.393,128.6355,131.843,136.645,138.931,141.17350000000002,144.849,150.373,153.821,158.201,162.079,166.14,171.134,174.115,177.097,179.33950000000002,182.547,185.593,187.879,190.1215,193.797,202.449,207.963,213.286,217.164,220.146,224.526,227.471,229.7135,232.922,238.373,240.6155,243.824,250.939,256.262,261.85,266.231,269.843,273.721,276.703,281.276,286.598,292.186,294.848,300.171,305.19419999999997,308.42,314.008,319.066,324.059,326.721,331.206,334.458,340.567,343.229,346.768,352.283,356.0504,359.325,364.127,367.739,372.312,377.635,381.513,389.588,392.25,396.128,400.005,402.667,407.66,412.983" svgx:width="0.5,0.25,0.55,0.33,0.6,0.61,0.42,0.55,0.58,0.25,0.55,0.52,0.25,0.25,0.55,0.6,0.4,0.48,0.42,0.44,0.55,0.33,0.33,0.25,0.55,0.33,0.25,0.25,0.55,0.95,0.6,0.58,0.42,0.33,0.48,0.4,0.25,0.55,0.72,0.25,0.55,0.78,0.58,0.61,0.48,0.4,0.42,0.33,0.5,0.58,0.61,0.29,0.58,0.56,0.55,0.61,0.55,0.55,0.29,0.5,0.55,0.72,0.29,0.4,0.6,0.42,0.55,0.61,0.4,0.5,0.58,0.42,0.88,0.29,0.42,0.42,0.29,0.55,0.58,0.25" style="fill:rgb(0,0,0);font-family:URWPalladioL-Roma;font-size:8.97px;stroke:none;">8. Judson, S.; Prescott, J.; Munster, V. Understanding Ebola Virus Transmission.</text>
   <text y="431.129" x="421.179,427.115,429.657,433.215,438.3,441.857,445.415" svgx:width="0.72,0.28,0.39,0.56,0.39,0.39,0.39" style="fill:rgb(0,0,0);font-family:URWPalladioL-Ital;font-size:8.97px;stroke:none;">Viruses</text>
   <text y="431.129" x="452.142,456.625,461.108,465.592" svgx:width="0.5,0.5,0.5,0.5" style="fill:rgb(0,0,0);font-family:URWPalladioL-Bold;font-size:8.97px;stroke:none;">2015</text>
   <text y="431.129" x="470.075" svgx:width="0.25" style="fill:rgb(0,0,0);font-family:URWPalladioL-Roma;font-size:8.97px;stroke:none;">,</text>
   <text y="431.129" x="475.757" svgx:width="0.5" style="fill:rgb(0,0,0);font-family:URWPalladioL-Ital;font-size:8.97px;stroke:none;">7</text>
   <text y="431.129" x="480.33,482.5725,486.009,490.582,495.155,499.728,504.301,508.874,513.447,518.02" svgx:width="0.25,0.55,0.5,0.5,0.5,0.5,0.5,0.5,0.5,0.25" style="fill:rgb(0,0,0);font-family:URWPalladioL-Roma;font-size:8.97px;stroke:none;">, 511–521.</text>
   <text y="444.041" x="98.05" svgx:width="0.33" style="fill:rgb(0,0,0);font-family:URWPalladioL-Roma;font-size:8.97px;stroke:none;">[</text>
   <text y="444.041" x="101.036,107.393,110.773,115.669,119.471,123.272,129.262,133.557" svgx:width="0.71,0.4,0.55,0.42,0.42,0.67,0.48,0.33" style="fill:rgb(8,117,183);font-family:URWPalladioL-Roma;font-size:8.97px;stroke:none;">CrossRef</text>
   <text y="444.041" x="136.543" svgx:width="0.33" style="fill:rgb(0,0,0);font-family:URWPalladioL-Roma;font-size:8.97px;stroke:none;">]</text>
   <text y="456.952" x="76.535,81.018,83.26050000000001,98.054,103.551,108.769,113.665,121.582,126.065,129.867,132.1095,134.35,140.34,142.582,145.567,147.8095,150.051,155.466,159.949,163.491,166.414,169.015,172.996,175.605,179.9106,182.141,185.943,188.552,193.036,197.3416,199.572,204.055,209.274,214.7457,216.994,222.383,226.866,229.789,235.007,239.903,244.888,249.183,254.402,257.011,260.992,263.601,266.524,271.5472,273.751,276.36,281.56260000000003,283.82,286.743,291.962,296.2676,298.498,301.879,306.174,309.975,315.364,317.973,321.515,325.998,328.921,333.817,337.359,342.38219999999995,344.586,347.509,351.05,355.534,359.515,362.438" svgx:width="0.5,0.25,0.55,0.61,0.58,0.55,0.88,0.5,0.42,0.25,0.55,0.67,0.25,0.33,0.25,0.55,0.6,0.5,0.4,0.33,0.29,0.44,0.29,0.48,0.55,0.42,0.29,0.5,0.48,0.55,0.5,0.58,0.61,0.55,0.6,0.5,0.33,0.58,0.55,0.56,0.48,0.58,0.29,0.44,0.29,0.33,0.56,0.55,0.29,0.58,0.55,0.33,0.58,0.48,0.55,0.4,0.48,0.42,0.6,0.29,0.4,0.5,0.33,0.55,0.4,0.56,0.55,0.33,0.4,0.5,0.44,0.33,0.25" style="fill:rgb(0,0,0);font-family:URWPalladioL-Roma;font-size:8.97px;stroke:none;">9. Thomas, R.J. Particle size and pathogenicity in the respiratory tract.</text>
   <text y="456.952" x="367.818,373.628,376.121,379.609,384.594,387.087,390.575,395.56,399.209" svgx:width="0.72,0.28,0.39,0.56,0.28,0.39,0.56,0.41,0.39" style="fill:rgb(0,0,0);font-family:URWPalladioL-Ital;font-size:8.97px;stroke:none;">Virulence</text>
   <text y="456.952" x="404.939,409.422,413.905,418.389" svgx:width="0.5,0.5,0.5,0.5" style="fill:rgb(0,0,0);font-family:URWPalladioL-Bold;font-size:8.97px;stroke:none;">2013</text>
   <text y="456.952" x="422.871" svgx:width="0.25" style="fill:rgb(0,0,0);font-family:URWPalladioL-Roma;font-size:8.97px;stroke:none;">,</text>
   <text y="456.952" x="427.355" svgx:width="0.5" style="fill:rgb(0,0,0);font-family:URWPalladioL-Ital;font-size:8.97px;stroke:none;">4</text>
   <text y="456.952" x="431.838,434.08050000000003,436.321,440.804,445.288,449.771,454.254,458.737,463.221,467.704,469.9465,473.084" svgx:width="0.25,0.55,0.5,0.5,0.5,0.5,0.5,0.5,0.5,0.25,0.55,0.33" style="fill:rgb(0,0,0);font-family:URWPalladioL-Roma;font-size:8.97px;stroke:none;">, 847–858. [</text>
   <text y="456.952" x="476.069,482.427,485.807,490.703,494.504,498.306,504.296,508.591" svgx:width="0.71,0.4,0.55,0.42,0.42,0.67,0.48,0.33" style="fill:rgb(8,117,183);font-family:URWPalladioL-Roma;font-size:8.97px;stroke:none;">CrossRef</text>
   <text y="456.952" x="511.576" svgx:width="0.33" style="fill:rgb(0,0,0);font-family:URWPalladioL-Roma;font-size:8.97px;stroke:none;">]</text>
   <text y="469.864" x="76.535,81.018,85.501,87.74350000000001,98.05,102.833,107.214,109.875,112.537,115.198,119.579,122.524,124.76650000000001,127.664,133.773,136.0155,138.904,145.013,149.394,154.561,157.223,161.604,169.0491,172.076,177.069,180.0291,182.968,187.541,191.922,195.37,200.363,204.241,209.235,211.83630000000002,214.74,217.722,221.334,225.907,231.23,235.108,243.184,245.845,249.723,253.601,256.262,261.255,266.4576,269.432,274.425,277.3851,280.315,282.977,288.299,293.86,299.375,303.756,309.078,313.651,318.136,321.078,328.0746,331.037,336.205,338.866,342.406,347.92,351.798" svgx:width="0.5,0.5,0.25,0.55,0.61,0.48,0.29,0.29,0.29,0.48,0.4,0.25,0.55,0.67,0.25,0.55,0.67,0.48,0.56,0.29,0.48,0.83,0.55,0.55,0.33,0.55,0.5,0.48,0.4,0.55,0.42,0.55,0.29,0.55,0.33,0.4,0.5,0.58,0.42,0.88,0.29,0.42,0.42,0.29,0.55,0.58,0.55,0.55,0.33,0.55,0.29,0.58,0.61,0.6,0.48,0.58,0.5,0.5,0.55,0.78,0.55,0.56,0.29,0.4,0.6,0.42,0.25" style="fill:rgb(0,0,0);font-family:URWPalladioL-Roma;font-size:8.97px;stroke:none;">10. Tellier, R. Review of aerosol transmission of inﬂuenza A virus.</text>
   <text y="469.864" x="359.042,364.63,371.745,375.303,378.696,383.269,385.5115,390.512,393.558,398.643,401.186,404.743,408.466,411.511,413.75350000000003,418.754,425.87,428.412,431.97" svgx:width="0.61,0.78,0.39,0.39,0.5,0.25,0.55,0.33,0.56,0.28,0.39,0.41,0.33,0.25,0.55,0.78,0.28,0.39,0.25" style="fill:rgb(0,0,0);font-family:URWPalladioL-Ital;font-size:8.97px;stroke:none;">Emerg. Infect. Dis.</text>
   <text y="469.864" x="439.217,443.7,448.183,452.667" svgx:width="0.5,0.5,0.5,0.5" style="fill:rgb(0,0,0);font-family:URWPalladioL-Bold;font-size:8.97px;stroke:none;">2006</text>
   <text y="469.864" x="457.15" svgx:width="0.25" style="fill:rgb(0,0,0);font-family:URWPalladioL-Roma;font-size:8.97px;stroke:none;">,</text>
   <text y="469.864" x="462.436,467.009" svgx:width="0.5,0.5" style="fill:rgb(0,0,0);font-family:URWPalladioL-Ital;font-size:8.97px;stroke:none;">12</text>
   <text y="469.864" x="471.581,473.8235,476.867,481.44,486.013,490.586,495.159,499.732,504.304,508.877,513.45,518.023" svgx:width="0.25,0.55,0.5,0.5,0.5,0.5,0.5,0.5,0.5,0.5,0.5,0.25" style="fill:rgb(0,0,0);font-family:URWPalladioL-Roma;font-size:8.97px;stroke:none;">, 1657–1662.</text>
   <text y="482.776" x="98.05" svgx:width="0.33" style="fill:rgb(0,0,0);font-family:URWPalladioL-Roma;font-size:8.97px;stroke:none;">[</text>
   <text y="482.776" x="101.036,107.393,110.773,115.669,119.471,123.272,129.262,133.557" svgx:width="0.71,0.4,0.55,0.42,0.42,0.67,0.48,0.33" style="fill:rgb(8,117,183);font-family:URWPalladioL-Roma;font-size:8.97px;stroke:none;">CrossRef</text>
   <text y="482.776" x="136.543" svgx:width="0.33" style="fill:rgb(0,0,0);font-family:URWPalladioL-Roma;font-size:8.97px;stroke:none;">]</text>
   <text y="495.687" x="76.535,81.018,85.501,87.74350000000001,98.05,102.852,106.464,111.037,116.36,118.6025,121.454,128.094,130.38,132.6225,135.767,142.251,144.913,152.988,157.982,163.305,165.5475,168.399,175.039,177.325,179.5675,182.712,187.514,191.894,197.062,201.442,205.055,210.378,212.6205,215.472,224.124,226.41,228.6525,231.797,237.321,241.702,245.58,249.458,254.451,259.024,262.07,266.871,269.532,272.194,277.361,281.934,284.17650000000003,287.028,293.513,295.799,301.387,303.673,305.9155,309.06,315.545,320.538,325.861,328.522,332.611,334.8535,337.705,340.75,342.9925,345.854,352.969,357.35,360.798,365.791,369.669,374.663,377.2643,380.132,385.217,389.598,394.92,399.301,402.914,407.487,410.468,413.13,418.452,423.4752,426.354,431.851,435.299,440.292,444.353,448.734,454.322,459.837,463.285,467.665,471.43240000000003,474.36,478.933,484.256,489.72769999999997,492.652,496.264,498.926,502.803,507.8262,510.705,515.699" svgx:width="0.5,0.5,0.25,0.55,0.61,0.4,0.5,0.58,0.25,0.55,0.73,0.25,0.25,0.55,0.71,0.29,0.88,0.55,0.58,0.25,0.55,0.73,0.25,0.25,0.55,0.52,0.48,0.56,0.48,0.4,0.58,0.25,0.55,0.95,0.25,0.25,0.55,0.6,0.48,0.42,0.42,0.55,0.5,0.33,0.52,0.29,0.29,0.56,0.5,0.25,0.55,0.71,0.25,0.61,0.25,0.25,0.55,0.71,0.55,0.58,0.29,0.56,0.25,0.55,0.33,0.25,0.55,0.78,0.48,0.4,0.55,0.42,0.55,0.29,0.55,0.56,0.48,0.58,0.48,0.4,0.5,0.33,0.29,0.58,0.56,0.55,0.6,0.4,0.55,0.44,0.48,0.61,0.6,0.4,0.48,0.42,0.55,0.5,0.58,0.61,0.55,0.4,0.29,0.42,0.56,0.55,0.55,0.33" style="fill:rgb(0,0,0);font-family:URWPalladioL-Roma;font-size:8.97px;stroke:none;">11. Tran, K.; Cimon, K.; Severn, M.; Pessoa-Silva, C.L.; Conly, J. Aerosol generating procedures and risk of</text>
   <text y="508.599" x="98.05,100.976,104.521,109.009,114.233,118.038,125.963,128.575,132.381,136.186,138.798,143.699,148.9016,151.166,156.067,159.02710000000002,161.299,165.787,169.772,175.184,178.11,182.4156,184.653,188.037,192.336,196.142,201.536,204.148,207.693,212.181,215.107,220.007,223.553,228.5762,230.787,233.398,238.622,241.611,245.91,249.895,252.821,255.433,260.334,265.557,269.3244,271.607,274.533,279.4665,281.686,286.91,291.209,295.696,298.308,301.234,306.458,310.443,314.931,318.314,322.61960000000005,324.857,332.343,337.243,340.789,345.779,350.078,353.623,357.429,359.6715,362.814,369.8106,372.041,375.846,380.837,384.642,387.568,391.867,399.793,404.28,407.206,409.818,413.7648,416.047,419.431,423.73,428.801,431.413,435.712,442.372" svgx:width="0.33,0.4,0.5,0.58,0.42,0.88,0.29,0.42,0.42,0.29,0.55,0.58,0.55,0.55,0.33,0.55,0.5,0.44,0.6,0.33,0.48,0.55,0.4,0.48,0.42,0.6,0.29,0.4,0.5,0.33,0.55,0.4,0.56,0.55,0.29,0.58,0.33,0.48,0.44,0.33,0.29,0.55,0.58,0.42,0.55,0.33,0.55,0.55,0.58,0.48,0.5,0.29,0.33,0.58,0.44,0.5,0.4,0.48,0.55,0.83,0.55,0.4,0.56,0.48,0.4,0.42,0.25,0.55,0.78,0.55,0.42,0.56,0.42,0.33,0.48,0.88,0.5,0.33,0.29,0.44,0.55,0.4,0.48,0.56,0.29,0.48,0.83,0.25" style="fill:rgb(0,0,0);font-family:URWPalladioL-Roma;font-size:8.97px;stroke:none;">transmission of acute respiratory infections to healthcare workers: A systematic review.</text>
   <text y="508.599" x="447.767,453.251,458.241,462.226,467.2492,469.46,476.443,483.426" svgx:width="0.61,0.56,0.44,0.56,0.55,0.78,0.78,0.61" style="fill:rgb(0,0,0);font-family:URWPalladioL-Ital;font-size:8.97px;stroke:none;">PLoS ONE</text>
   <text y="508.599" x="491.155,495.638,500.121,504.605" svgx:width="0.5,0.5,0.5,0.5" style="fill:rgb(0,0,0);font-family:URWPalladioL-Bold;font-size:8.97px;stroke:none;">2012</text>
   <text y="508.599" x="509.088,511.33050000000003,513.576,518.063" svgx:width="0.25,0.55,0.5,0.25" style="fill:rgb(0,0,0);font-family:URWPalladioL-Roma;font-size:8.97px;stroke:none;">, 7.</text>
   <text y="521.51" x="98.05" svgx:width="0.33" style="fill:rgb(0,0,0);font-family:URWPalladioL-Roma;font-size:8.97px;stroke:none;">[</text>
   <text y="521.51" x="101.036,107.393,110.773,115.669,119.471,123.272,129.262,133.557" svgx:width="0.71,0.4,0.55,0.42,0.42,0.67,0.48,0.33" style="fill:rgb(8,117,183);font-family:URWPalladioL-Roma;font-size:8.97px;stroke:none;">CrossRef</text>
   <text y="521.51" x="136.543,139.50310000000002,141.77" svgx:width="0.33,0.55,0.33" style="fill:rgb(0,0,0);font-family:URWPalladioL-Roma;font-size:8.97px;stroke:none;">] [</text>
   <text y="521.51" x="144.756,150.172,155.578,160.537,169.019,173.314" svgx:width="0.6,0.6,0.55,0.95,0.48,0.61" style="fill:rgb(8,117,183);font-family:URWPalladioL-Roma;font-size:8.97px;stroke:none;">PubMed</text>
   <text y="521.51" x="178.792" svgx:width="0.33" style="fill:rgb(0,0,0);font-family:URWPalladioL-Roma;font-size:8.97px;stroke:none;">]</text>
   <text y="534.422" x="76.535,81.018,85.501,87.74350000000001,98.05,103.135,108.129,115.756,118.418,122.798,125.743,127.9855,131.523,137.633,139.919,147.035,149.321,151.5635,155.732,162.71,168.225,172.606,176.484,179.465,181.7075,185.245,191.73,194.016,199.604,201.891,204.1335,208.293,213.881,218.454,223.95,226.612,231.934,235.812,240.897,244.985,247.22750000000002,250.765,255.567,257.853,263.441,265.728,267.9705,272.139,276.941,279.602,284.66,289.717,294.29,296.951,302.539,304.7815,308.32,316.633,318.919,321.965,324.251,326.4935,330.663,336.251,341.244,346.759,349.42,353.801,356.0435,359.581,368.233,370.52,372.7625,376.922,381.705,386.278,391.601,396.686,398.9285,402.466,406.837,409.124,411.36650000000003,415.526,420.327,422.989,431.064,436.058,439.003,441.2455,444.783,451.898,454.185,459.773,462.059,464.30150000000003,468.47,473.272,476.253,480.634,488.262,492.835,496.447,499.429,501.6715,505.209,510.148,512.434,518.022" svgx:width="0.5,0.5,0.25,0.55,0.56,0.55,0.83,0.29,0.48,0.4,0.25,0.55,0.67,0.25,0.78,0.25,0.25,0.55,0.76,0.6,0.48,0.42,0.33,0.25,0.55,0.71,0.25,0.61,0.25,0.25,0.55,0.61,0.5,0.6,0.29,0.58,0.42,0.56,0.56,0.25,0.55,0.52,0.25,0.61,0.25,0.25,0.55,0.52,0.29,0.55,0.55,0.5,0.29,0.61,0.25,0.55,1.0,0.25,0.33,0.25,0.25,0.55,0.61,0.55,0.6,0.29,0.48,0.25,0.55,0.95,0.25,0.25,0.55,0.61,0.5,0.58,0.56,0.25,0.55,0.6,0.25,0.25,0.55,0.52,0.29,0.88,0.55,0.4,0.25,0.55,0.78,0.25,0.61,0.25,0.25,0.55,0.52,0.33,0.48,0.83,0.5,0.4,0.33,0.25,0.55,0.61,0.25,0.61,0.25" style="fill:rgb(0,0,0);font-family:URWPalladioL-Roma;font-size:8.97px;stroke:none;">12. Fowler, R.A.; Guest, C.B.; Lapinsky, S.E.; Sibbald, W.J.; Louie, M.; Tang, P.; Simor, A.E.; Stewart, T.E.</text>
   <text y="547.334" x="97.773,102.462,106.004,110.487,115.706,119.508,127.425,130.034,133.836,137.638,140.247,145.143,150.3456,152.612,157.507,160.46710000000002,162.744,167.451,171.746,176.812,181.098,184.478,188.7836,191.024,197.999,201.981,207.387,210.31,214.6156,216.856,222.845,227.14,230.942,236.331,238.94,242.482,246.965,249.888,254.784,258.325,263.34819999999996,265.561,270.269,275.254,280.472,285.951,289.331,294.227,302.144,306.44960000000003,308.69,314.168,319.575,323.117,325.726,330.944,335.9672,338.171,341.193,346.411,349.334,354.741,359.7,364.183,367.106,369.715,374.611,379.8136,382.08,386.563,391.781,397.2527,399.51,407.993,412.287,416.269,421.487,425.97,431.189,433.798,437.779,442.262,444.8633,447.122,452.6,456.895,462.114,465.037,467.646,470.255,474.738,477.661,480.271,485.166,490.385" svgx:width="0.61,0.4,0.5,0.58,0.42,0.88,0.29,0.42,0.42,0.29,0.55,0.58,0.55,0.55,0.33,0.55,0.52,0.48,0.56,0.48,0.4,0.48,0.55,0.78,0.44,0.6,0.33,0.48,0.55,0.67,0.48,0.42,0.6,0.29,0.4,0.5,0.33,0.55,0.4,0.56,0.55,0.52,0.56,0.58,0.61,0.4,0.55,0.88,0.48,0.55,0.61,0.6,0.4,0.29,0.58,0.56,0.55,0.34,0.58,0.33,0.6,0.55,0.5,0.33,0.29,0.55,0.58,0.55,0.5,0.58,0.61,0.55,0.95,0.48,0.44,0.58,0.5,0.58,0.29,0.44,0.5,0.29,0.55,0.72,0.48,0.58,0.33,0.29,0.29,0.5,0.33,0.29,0.55,0.58,0.25" style="fill:rgb(0,0,0);font-family:URWPalladioL-Roma;font-size:8.97px;stroke:none;">Transmission of Severe Acute Respiratory Syndrome during Intubation and Mechanical Ventilation.</text>
   <text y="547.334" x="495.782,502.256,509.232,511.47450000000003,514.629,517.615" svgx:width="0.72,0.78,0.25,0.55,0.33,0.25" style="fill:rgb(0,0,0);font-family:URWPalladioL-Ital;font-size:8.97px;stroke:none;">Am. J.</text>
   <text y="560.245" x="97.755,103.736,107.224,110.711,115.195,117.687,120.512,122.75450000000001,125.892,131.872,135.36,137.853,140.839,143.0815,146.218,152.199,156.18,159.507,163.0053,165.236,173.7,177.188,181.672" svgx:width="0.67,0.39,0.39,0.5,0.28,0.39,0.25,0.55,0.67,0.39,0.28,0.33,0.25,0.55,0.67,0.44,0.39,0.39,0.55,0.94,0.39,0.5,0.25" style="fill:rgb(0,0,0);font-family:URWPalladioL-Ital;font-size:8.97px;stroke:none;">Respir. Crit. Care Med.</text>
   <text y="560.245" x="187.05,191.533,196.016,200.5" svgx:width="0.5,0.5,0.5,0.5" style="fill:rgb(0,0,0);font-family:URWPalladioL-Bold;font-size:8.97px;stroke:none;">2004</text>
   <text y="560.245" x="204.982" svgx:width="0.25" style="fill:rgb(0,0,0);font-family:URWPalladioL-Roma;font-size:8.97px;stroke:none;">,</text>
   <text y="560.245" x="209.465,213.948,218.431" svgx:width="0.5,0.5,0.5" style="fill:rgb(0,0,0);font-family:URWPalladioL-Ital;font-size:8.97px;stroke:none;">169</text>
   <text y="560.245" x="222.915,225.1575,227.398,231.881,236.365,240.848,245.331,249.814,254.297,258.781,263.264,267.747,269.9895,273.127" svgx:width="0.25,0.55,0.5,0.5,0.5,0.5,0.5,0.5,0.5,0.5,0.5,0.25,0.55,0.33" style="fill:rgb(0,0,0);font-family:URWPalladioL-Roma;font-size:8.97px;stroke:none;">, 1198–1202. [</text>
   <text y="560.245" x="276.113,282.47,285.85,290.746,294.548,298.349,304.339,308.634" svgx:width="0.71,0.4,0.55,0.42,0.42,0.67,0.48,0.33" style="fill:rgb(8,117,183);font-family:URWPalladioL-Roma;font-size:8.97px;stroke:none;">CrossRef</text>
   <text y="560.245" x="311.62,314.5801,316.847" svgx:width="0.33,0.55,0.33" style="fill:rgb(0,0,0);font-family:URWPalladioL-Roma;font-size:8.97px;stroke:none;">] [</text>
   <text y="560.245" x="319.833,325.249,330.655,335.614,344.096,348.391" svgx:width="0.6,0.6,0.55,0.95,0.48,0.61" style="fill:rgb(8,117,183);font-family:URWPalladioL-Roma;font-size:8.97px;stroke:none;">PubMed</text>
   <text y="560.245" x="353.869" svgx:width="0.33" style="fill:rgb(0,0,0);font-family:URWPalladioL-Roma;font-size:8.97px;stroke:none;">]</text>
   <text y="573.157" x="76.535,81.018,85.501,87.74350000000001,98.05,104.369,109.556,113.077,115.67,119.449,122.355,124.948,129.405,134.592,136.83450000000002,139.048,147.479,149.707,156.606,158.834,161.0765,163.299,168.745,173.611,178.985,181.891,184.859,188.825,191.0675,193.281,201.712,203.941,206.1835,208.406,216.837,220.794,227.693,232.559,237.746,242.202,244.796,250.242,252.4845,254.698,260.143,262.372,268.691,270.919,273.1615,275.384,283.815,288.272,291.792,294.698,297.291,302.478,306.747,311.204,313.4465,315.66,322.131,324.359,328.494,330.722,332.9645,335.188,342.193,345.161,350.348,354.617,357.469,359.7115,361.934,370.366,372.594,374.8365,377.05,385.143,390.009,395.196,400.152,402.3945,404.608,409.412,411.64,413.8825,416.105,424.189,428.645,431.239,433.832,436.426,441.613,446.568,449.474,454.34,459.527,461.7695,463.984,468.787,471.016,473.2585,475.481,482.281,487.147,489.741,495.187,497.4295,499.643,507.736,509.964,515.409,517.637" svgx:width="0.5,0.5,0.25,0.55,0.71,0.58,0.4,0.29,0.42,0.33,0.29,0.5,0.58,0.25,0.55,0.95,0.25,0.77,0.25,0.25,0.55,0.61,0.55,0.6,0.33,0.33,0.56,0.25,0.55,0.95,0.25,0.25,0.55,0.95,0.44,0.77,0.55,0.58,0.5,0.29,0.61,0.25,0.55,0.61,0.25,0.71,0.25,0.25,0.55,0.95,0.5,0.4,0.33,0.29,0.58,0.48,0.5,0.25,0.55,0.73,0.25,0.56,0.25,0.25,0.55,0.79,0.33,0.58,0.48,0.4,0.25,0.55,0.95,0.25,0.25,0.55,1.0,0.55,0.58,0.56,0.25,0.55,0.61,0.25,0.25,0.55,1.0,0.5,0.29,0.29,0.29,0.58,0.56,0.33,0.55,0.58,0.25,0.55,0.61,0.25,0.25,0.55,0.76,0.55,0.29,0.61,0.25,0.55,1.0,0.25,0.61,0.25,0.25" style="fill:rgb(0,0,0);font-family:URWPalladioL-Roma;font-size:8.97px;stroke:none;">13. Christian, M.D.; Loutfy, M.; McDonald, L.C.; Martinez, K.F.; Ofner, M.; Wong, T.; Wallington, T.; Gold, W.L.;</text>
   <text y="586.068" x="98.05,106.363,110.572,115.94,120.149,123.62,127.346,132.232,134.789,137.0315,138.963,144.332,146.528,148.7705,150.79,157.495,160.807,165.016,169.225,174.339,176.5815,178.513,184.893,187.089,189.3315,191.36,195.56,198.5201,200.411,204.804,207.361,209.6035,212.607,217.914,222.712,226.438,230.164,232.721,237.58,240.137,244.4426,246.323,250.936,257.773,263.642,268.3064,270.233,274.134,278.932,282.245,287.042,292.156,296.55,301.515,304.072,307.472,312.771,316.5384,318.474,321.338,324.809,329.203,334.317,338.042,345.801,348.358,352.084,355.81,358.367,363.165,368.36760000000004,370.256,375.625,380.923,384.394,386.951,392.065,397.0882,398.928,402.829,407.223,410.536,415.905,418.462,423.259,428.54,433.839,436.396,444.155,448.953,454.067,458.46,461.931,466.95419999999996,468.794,472.107,476.316,480.041,485.34,489.066,492.967,495.524,498.389,502.782,505.647,508.204,513.002,518.116" svgx:width="0.95,0.48,0.61,0.48,0.4,0.42,0.56,0.29,0.25,0.55,0.61,0.25,0.25,0.55,0.76,0.4,0.48,0.48,0.58,0.25,0.55,0.73,0.25,0.25,0.55,0.48,0.33,0.55,0.5,0.29,0.25,0.55,0.6,0.55,0.42,0.42,0.29,0.55,0.29,0.48,0.55,0.52,0.78,0.67,0.52,0.55,0.44,0.55,0.4,0.55,0.58,0.5,0.56,0.29,0.4,0.6,0.42,0.55,0.33,0.4,0.5,0.58,0.42,0.88,0.29,0.42,0.42,0.29,0.55,0.58,0.55,0.61,0.6,0.4,0.29,0.58,0.56,0.55,0.44,0.5,0.4,0.61,0.29,0.55,0.6,0.6,0.29,0.88,0.55,0.58,0.5,0.4,0.56,0.55,0.4,0.48,0.42,0.6,0.42,0.44,0.29,0.33,0.5,0.33,0.29,0.55,0.58,0.25" style="fill:rgb(0,0,0);font-family:URWPalladioL-Roma;font-size:8.97px;stroke:none;">Mederski, B.; Green, K.; et al. Possible SARS coronavirus transmission during cardiopulmonary resuscitation.</text>
   <text y="598.98" x="97.773,103.251,110.227,113.715,117.042,121.525,123.76750000000001,126.905,129.891,134.876,137.369,140.857,144.506,147.492,149.7345,152.872,159.847,162.34,165.828" svgx:width="0.61,0.78,0.39,0.39,0.5,0.25,0.55,0.33,0.56,0.28,0.39,0.41,0.33,0.25,0.55,0.78,0.28,0.39,0.25" style="fill:rgb(0,0,0);font-family:URWPalladioL-Ital;font-size:8.97px;stroke:none;">Emerg. Infect. Dis.</text>
   <text y="598.98" x="171.206,175.689,180.172,184.656" svgx:width="0.5,0.5,0.5,0.5" style="fill:rgb(0,0,0);font-family:URWPalladioL-Bold;font-size:8.97px;stroke:none;">2004</text>
   <text y="598.98" x="189.139" svgx:width="0.25" style="fill:rgb(0,0,0);font-family:URWPalladioL-Roma;font-size:8.97px;stroke:none;">,</text>
   <text y="598.98" x="193.622,198.105" svgx:width="0.5,0.5" style="fill:rgb(0,0,0);font-family:URWPalladioL-Ital;font-size:8.97px;stroke:none;">10</text>
   <text y="598.98" x="202.589,204.8315,207.072,211.555,216.039,220.522,225.005,229.488,233.971,238.455,240.69750000000002,243.834" svgx:width="0.25,0.55,0.5,0.5,0.5,0.5,0.5,0.5,0.5,0.25,0.55,0.33" style="fill:rgb(0,0,0);font-family:URWPalladioL-Roma;font-size:8.97px;stroke:none;">, 287–293. [</text>
   <text y="598.98" x="246.82,253.177,256.558,261.453,265.255,269.057,275.046,279.341" svgx:width="0.71,0.4,0.55,0.42,0.42,0.67,0.48,0.33" style="fill:rgb(8,117,183);font-family:URWPalladioL-Roma;font-size:8.97px;stroke:none;">CrossRef</text>
   <text y="598.98" x="282.327,285.2871,287.555" svgx:width="0.33,0.55,0.33" style="fill:rgb(0,0,0);font-family:URWPalladioL-Roma;font-size:8.97px;stroke:none;">] [</text>
   <text y="598.98" x="290.54,295.956,301.363,306.321,314.803,319.098" svgx:width="0.6,0.6,0.55,0.95,0.48,0.61" style="fill:rgb(8,117,183);font-family:URWPalladioL-Roma;font-size:8.97px;stroke:none;">PubMed</text>
   <text y="598.98" x="324.577" svgx:width="0.33" style="fill:rgb(0,0,0);font-family:URWPalladioL-Roma;font-size:8.97px;stroke:none;">]</text>
   <text y="611.892" x="76.535,81.018,85.501,87.74350000000001,98.05,106.306,111.266,116.552,121.602,123.84450000000001,126.116,132.711,134.981,141.421,143.692,145.9345,148.197,153.747,158.097,163.574,168.861,173.911,176.1535,178.416,185.01,187.281,192.05,194.29250000000002,196.564,201.323,204.911,209.453,214.739,218.59,226.61,229.253,233.105,236.956,239.599,244.558,249.76059999999998,252.079,256.62,261.907,267.3787,269.691,275.15,278.574,282.925,288.056,292.407,297.694,300.655,303.298,308.257,313.4596,315.787,320.746,323.7061,326.005,330.964,334.997,339.03,344.507,349.966,354.507,357.468,360.112,365.071,370.357,374.899,377.5003,379.776,382.419,387.706,390.73,395.081,399.114,402.075,404.718,409.677,414.964,418.7314,421.049,423.692,428.8946,431.222,436.181,439.769,442.73,448.016,452.976,458.435,462.976,467.327,472.876,475.52,479.4668,481.787,485.638,491.115,494.539,499.589,503.94,508.9,514.186,518.037" svgx:width="0.5,0.5,0.25,0.55,1.0,0.55,0.58,0.56,0.25,0.55,0.73,0.25,0.71,0.25,0.25,0.55,0.61,0.48,0.6,0.58,0.56,0.25,0.55,0.73,0.25,0.52,0.25,0.55,0.61,0.4,0.5,0.58,0.42,0.88,0.29,0.42,0.42,0.29,0.55,0.58,0.55,0.5,0.58,0.61,0.55,0.6,0.4,0.48,0.56,0.48,0.58,0.33,0.29,0.55,0.58,0.55,0.55,0.33,0.55,0.55,0.44,0.44,0.6,0.6,0.5,0.33,0.29,0.55,0.58,0.5,0.29,0.55,0.29,0.58,0.33,0.48,0.44,0.33,0.29,0.55,0.58,0.42,0.55,0.29,0.58,0.55,0.55,0.4,0.33,0.58,0.55,0.6,0.5,0.48,0.61,0.29,0.44,0.55,0.42,0.6,0.4,0.56,0.48,0.55,0.58,0.42,0.25" style="fill:rgb(0,0,0);font-family:URWPalladioL-Roma;font-size:8.97px;stroke:none;">14. Wong, K.C.; Leung, K.S. Transmission and prevention of occupational infections in orthopaedic surgeons.</text>
   <text y="624.803" x="98.05,101.036,103.27850000000001,105.519,110.997,114.979,119.964,123.4623,125.693,128.679,132.66,135.153,140.138,143.09810000000002,145.366,150.351,155.336,158.663,163.146,165.3885,168.526,175.0,181.976" svgx:width="0.33,0.25,0.55,0.61,0.44,0.56,0.39,0.55,0.33,0.44,0.28,0.56,0.33,0.55,0.56,0.56,0.39,0.5,0.25,0.55,0.72,0.78,0.25" style="fill:rgb(0,0,0);font-family:URWPalladioL-Ital;font-size:8.97px;stroke:none;">J. Bone Joint Surg. Am.</text>
   <text y="624.803" x="187.355,191.838,196.321,200.805" svgx:width="0.5,0.5,0.5,0.5" style="fill:rgb(0,0,0);font-family:URWPalladioL-Bold;font-size:8.97px;stroke:none;">2004</text>
   <text y="624.803" x="205.287" svgx:width="0.25" style="fill:rgb(0,0,0);font-family:URWPalladioL-Roma;font-size:8.97px;stroke:none;">,</text>
   <text y="624.803" x="209.771,214.254,218.737,221.723" svgx:width="0.5,0.5,0.33,0.72" style="fill:rgb(0,0,0);font-family:URWPalladioL-Ital;font-size:8.97px;stroke:none;">86-A</text>
   <text y="624.803" x="228.197,230.4395,232.68,237.163,241.647,246.13,250.613,255.096,259.579,264.063,268.546,273.029,275.2715,278.409" svgx:width="0.25,0.55,0.5,0.5,0.5,0.5,0.5,0.5,0.5,0.5,0.5,0.25,0.55,0.33" style="fill:rgb(0,0,0);font-family:URWPalladioL-Roma;font-size:8.97px;stroke:none;">, 1065–1076. [</text>
   <text y="624.803" x="281.395,287.752,291.132,296.028,299.83,303.631,309.621,313.916" svgx:width="0.71,0.4,0.55,0.42,0.42,0.67,0.48,0.33" style="fill:rgb(8,117,183);font-family:URWPalladioL-Roma;font-size:8.97px;stroke:none;">CrossRef</text>
   <text y="624.803" x="316.902,319.8621,322.129" svgx:width="0.33,0.55,0.33" style="fill:rgb(0,0,0);font-family:URWPalladioL-Roma;font-size:8.97px;stroke:none;">] [</text>
   <text y="624.803" x="325.115,330.531,335.937,340.896,349.378,353.673" svgx:width="0.6,0.6,0.55,0.95,0.48,0.61" style="fill:rgb(8,117,183);font-family:URWPalladioL-Roma;font-size:8.97px;stroke:none;">PubMed</text>
   <text y="624.803" x="359.151" svgx:width="0.33" style="fill:rgb(0,0,0);font-family:URWPalladioL-Roma;font-size:8.97px;stroke:none;">]</text>
   <text y="637.715" x="76.535,81.018,85.501,87.74350000000001,98.05,104.755,109.148,112.461,117.83,122.039,127.153,129.3955,131.546,134.472,136.669,144.982,147.2245,149.384,155.236,157.793,161.264,165.658,168.2593,170.42,177.222,179.779,183.504,187.713,192.107,195.833,200.1386,202.238,206.816,210.287,214.681,219.795,223.521,231.28,233.837,236.701,239.566,243.775,249.2467,251.349,256.209,261.2322,263.3,268.669,273.062,276.788,280.997,284.301,287.227,293.931,298.14,303.254,307.464,310.934,315.328,318.193,322.402,327.8737,329.976,335.283,337.84,343.139,350.898,355.20360000000005,357.313,360.239,367.075,371.284,374.588,379.386,383.111,387.909,390.466,393.392" svgx:width="0.5,0.5,0.25,0.55,0.76,0.5,0.4,0.61,0.48,0.58,0.25,0.55,0.33,0.25,0.95,0.25,0.55,0.72,0.29,0.4,0.5,0.29,0.55,0.77,0.29,0.42,0.48,0.5,0.42,0.48,0.55,0.61,0.4,0.5,0.58,0.42,0.88,0.29,0.33,0.33,0.48,0.61,0.55,0.55,0.56,0.55,0.61,0.5,0.42,0.48,0.4,0.33,0.76,0.48,0.58,0.48,0.4,0.5,0.33,0.48,0.61,0.55,0.6,0.29,0.6,0.88,0.48,0.55,0.33,0.78,0.48,0.4,0.55,0.42,0.55,0.29,0.33,0.25" style="fill:rgb(0,0,0);font-family:URWPalladioL-Roma;font-size:8.97px;stroke:none;">15. Garden, J.M. Viral Disease Transmitted by Laser-Generated Plume (Aerosol).</text>
   <text y="637.715" x="398.715,405.059,408.319,411.896,416.289,418.5315,421.605,428.442,431.86,435.278,442.114,446.016,448.942,452.843,455.286" svgx:width="0.72,0.39,0.41,0.5,0.25,0.55,0.78,0.39,0.39,0.78,0.44,0.33,0.44,0.28,0.25" style="fill:rgb(0,0,0);font-family:URWPalladioL-Ital;font-size:8.97px;stroke:none;">Arch. Dermatol.</text>
   <text y="637.715" x="460.61,465.093,469.576,474.06" svgx:width="0.5,0.5,0.5,0.5" style="fill:rgb(0,0,0);font-family:URWPalladioL-Bold;font-size:8.97px;stroke:none;">2002</text>
   <text y="637.715" x="478.543" svgx:width="0.25" style="fill:rgb(0,0,0);font-family:URWPalladioL-Roma;font-size:8.97px;stroke:none;">,</text>
   <text y="637.715" x="482.951,487.345,491.738" svgx:width="0.5,0.5,0.5" style="fill:rgb(0,0,0);font-family:URWPalladioL-Ital;font-size:8.97px;stroke:none;">138</text>
   <text y="637.715" x="496.131,498.3735,500.542,504.936,509.329,513.723,518.116" svgx:width="0.25,0.55,0.5,0.5,0.5,0.5,0.25" style="fill:rgb(0,0,0);font-family:URWPalladioL-Roma;font-size:8.97px;stroke:none;">, 1303.</text>
   <text y="650.626" x="98.05" svgx:width="0.33" style="fill:rgb(0,0,0);font-family:URWPalladioL-Roma;font-size:8.97px;stroke:none;">[</text>
   <text y="650.626" x="101.036,107.393,110.773,115.669,119.471,123.272,129.262,133.557" svgx:width="0.71,0.4,0.55,0.42,0.42,0.67,0.48,0.33" style="fill:rgb(8,117,183);font-family:URWPalladioL-Roma;font-size:8.97px;stroke:none;">CrossRef</text>
   <text y="650.626" x="136.543,139.50310000000002,141.77" svgx:width="0.33,0.55,0.33" style="fill:rgb(0,0,0);font-family:URWPalladioL-Roma;font-size:8.97px;stroke:none;">] [</text>
   <text y="650.626" x="144.756,150.172,155.578,160.537,169.019,173.314" svgx:width="0.6,0.6,0.55,0.95,0.48,0.61" style="fill:rgb(8,117,183);font-family:URWPalladioL-Roma;font-size:8.97px;stroke:none;">PubMed</text>
   <text y="650.626" x="178.792" svgx:width="0.33" style="fill:rgb(0,0,0);font-family:URWPalladioL-Roma;font-size:8.97px;stroke:none;">]</text>
   <text y="663.538" x="76.535,81.018,85.501,87.74350000000001,98.05,102.663,107.777,110.334,115.633,117.8755,119.657,125.026,127.223,132.082,134.279,136.5215,138.444,143.813,148.022,153.321,158.435,163.32,165.5625,167.345,174.647,176.844,184.155,186.351,188.5935,190.508,196.738,201.535,208.864,211.421,213.978,219.092,223.978,226.22050000000002,228.002,233.371,235.568,238.494,240.7365,242.518,248.748,253.546,258.66,261.525,264.829,269.626,274.591,278.8,282.271,285.997,291.0202,292.71,297.103,300.416,305.214,310.513,315.627,321.0987,322.814,327.208,329.765,333.236,338.095,342.893,346.364,351.478,355.78360000000004,357.515,362.479,366.688,370.159,373.885,379.183,382.9504,384.737,390.106,393.41,398.207,403.488,406.046,410.255,413.2151,414.947,417.811,421.282,425.676,430.79,434.516,442.275,444.832,448.557,452.283,454.84,459.638,464.8406,466.58,471.377,474.3371,476.122,479.435,483.644,487.37,492.651,495.208,498.679,503.072,505.937,510.735,514.205" svgx:width="0.5,0.5,0.25,0.55,0.52,0.58,0.29,0.6,0.25,0.55,0.61,0.25,0.67,0.25,0.25,0.55,0.61,0.48,0.6,0.58,0.56,0.25,0.55,0.83,0.25,0.83,0.25,0.25,0.55,0.71,0.55,0.83,0.29,0.29,0.58,0.56,0.25,0.55,0.61,0.25,0.33,0.25,0.55,0.71,0.55,0.58,0.33,0.4,0.55,0.56,0.48,0.4,0.42,0.56,0.55,0.5,0.4,0.55,0.6,0.58,0.61,0.55,0.5,0.29,0.4,0.55,0.55,0.4,0.58,0.48,0.55,0.56,0.48,0.4,0.42,0.6,0.42,0.55,0.61,0.4,0.55,0.6,0.29,0.48,0.33,0.55,0.33,0.4,0.5,0.58,0.42,0.88,0.29,0.42,0.42,0.29,0.55,0.58,0.55,0.55,0.33,0.55,0.4,0.48,0.42,0.6,0.29,0.4,0.5,0.33,0.55,0.4,0.56" style="fill:rgb(0,0,0);font-family:URWPalladioL-Roma;font-size:8.97px;stroke:none;">16. Shiu, E.Y.; Leung, N.H.; Cowling, B.J. Controversy around airborne versus droplet transmission of respiratory</text>
   <text y="676.45" x="97.799,102.865,105.474,108.944,114.351,118.153,122.448,126.249" svgx:width="0.56,0.29,0.4,0.6,0.42,0.48,0.42,0.25" style="fill:rgb(0,0,0);font-family:URWPalladioL-Roma;font-size:8.97px;stroke:none;">viruses.</text>
   <text y="676.45" x="131.629,137.61,142.595,146.083,148.907,151.14950000000002,154.287,161.263,165.746,168.239,173.224,175.4665,178.604,181.59,186.575,189.068,192.556,196.205,199.191,201.4335,204.571,211.547,214.039,217.527" svgx:width="0.67,0.56,0.39,0.39,0.25,0.55,0.78,0.5,0.28,0.56,0.25,0.55,0.33,0.56,0.28,0.39,0.41,0.33,0.25,0.55,0.78,0.28,0.39,0.25" style="fill:rgb(0,0,0);font-family:URWPalladioL-Ital;font-size:8.97px;stroke:none;">Curr. Opin. Infect. Dis.</text>
   <text y="676.45" x="222.906,227.389,231.872,236.356" svgx:width="0.5,0.5,0.5,0.5" style="fill:rgb(0,0,0);font-family:URWPalladioL-Bold;font-size:8.97px;stroke:none;">2019</text>
   <text y="676.45" x="240.838" svgx:width="0.25" style="fill:rgb(0,0,0);font-family:URWPalladioL-Roma;font-size:8.97px;stroke:none;">,</text>
   <text y="676.45" x="245.322,249.805" svgx:width="0.5,0.5" style="fill:rgb(0,0,0);font-family:URWPalladioL-Ital;font-size:8.97px;stroke:none;">32</text>
   <text y="676.45" x="254.288,256.5305,258.771,263.254,267.738,272.221,276.704,281.187,285.67,290.154,292.3965,295.534" svgx:width="0.25,0.55,0.5,0.5,0.5,0.5,0.5,0.5,0.5,0.25,0.55,0.33" style="fill:rgb(0,0,0);font-family:URWPalladioL-Roma;font-size:8.97px;stroke:none;">, 372–379. [</text>
   <text y="676.45" x="298.519,304.877,308.257,313.152,316.954,320.756,326.746,331.04" svgx:width="0.71,0.4,0.55,0.42,0.42,0.67,0.48,0.33" style="fill:rgb(8,117,183);font-family:URWPalladioL-Roma;font-size:8.97px;stroke:none;">CrossRef</text>
   <text y="676.45" x="334.026,336.9861,339.254" svgx:width="0.33,0.55,0.33" style="fill:rgb(0,0,0);font-family:URWPalladioL-Roma;font-size:8.97px;stroke:none;">] [</text>
   <text y="676.45" x="342.24,347.655,353.062,358.02,366.503,370.797" svgx:width="0.6,0.6,0.55,0.95,0.48,0.61" style="fill:rgb(8,117,183);font-family:URWPalladioL-Roma;font-size:8.97px;stroke:none;">PubMed</text>
   <text y="676.45" x="376.276" svgx:width="0.33" style="fill:rgb(0,0,0);font-family:URWPalladioL-Roma;font-size:8.97px;stroke:none;">]</text>
   <text y="689.361" x="76.535,81.018,85.501,87.74350000000001,98.05,106.685,111.057,116.369,120.933,126.246,131.823,134.06550000000001,136.341,144.976,147.258,152.05,154.332,156.5745,158.85,165.952,168.608,171.647,176.44,181.752,186.736,190.341,195.389,199.953,202.089,204.745,206.9875,209.263,213.517,215.799,218.0415,220.317,228.952,231.608,234.264,236.92,241.293,244.268,247.244,249.4865,251.762,256.116,258.398,260.64050000000003,262.916,271.551,277.055,280.496,285.571,291.076,295.448,297.6905,299.966,305.543,307.7855,310.061,315.657,320.969,325.2746,327.578,336.705,344.3,351.3863,353.71,359.808,366.909,373.8159,376.21,381.788,384.444,389.948,394.32,399.806,403.411,406.067,411.38,414.355,416.5975,419.777,424.341,428.905,433.469,437.954,440.269,443.71,448.083,453.24,455.896,460.268,467.7131,470.117,475.101,478.0611,480.377,484.749,492.809,497.181,500.622,505.697,508.353,513.666" svgx:width="0.5,0.5,0.25,0.55,0.95,0.48,0.58,0.5,0.58,0.61,0.25,0.55,0.95,0.25,0.52,0.25,0.25,0.55,0.78,0.29,0.33,0.52,0.58,0.55,0.4,0.55,0.5,0.23,0.29,0.25,0.55,0.56,0.25,0.25,0.55,0.95,0.29,0.29,0.29,0.48,0.33,0.33,0.25,0.55,0.6,0.25,0.25,0.55,0.95,0.6,0.4,0.56,0.6,0.48,0.25,0.55,0.61,0.25,0.55,0.61,0.58,0.48,0.55,1.0,0.83,0.79,0.55,0.67,0.78,0.77,0.55,0.61,0.29,0.6,0.48,0.6,0.4,0.29,0.58,0.33,0.25,0.55,0.5,0.5,0.5,0.5,0.55,0.4,0.48,0.56,0.29,0.48,0.83,0.55,0.55,0.33,0.55,0.48,0.88,0.48,0.4,0.56,0.29,0.58,0.56" style="fill:rgb(0,0,0);font-family:URWPalladioL-Roma;font-size:8.97px;stroke:none;">17. Mehand, M.S.; Al-Shorbaji, F.; Millett, P.; Murgue, B. The WHO R&amp;D Blueprint: 2018 review of emerging</text>
   <text y="702.273" x="98.05,100.711,106.034,109.08,113.461,117.521,120.503,123.164,128.158,133.673,137.4404,140.687,146.275,148.937,152.815,157.195,161.768,165.646,170.027,173.7944,177.042,180.49,184.87,189.992,195.507,198.168,201.781,204.442,209.765,214.7882,217.987,223.502,226.959,232.044,236.425,241.739,244.69910000000002,247.857,251.314,255.695,259.573,263.953,268.526,271.974,276.035,281.23760000000004,284.495,289.068,294.391,299.8627,303.116,308.704,313.084,318.252,322.633,325.294,330.287,335.784,343.86,348.241,353.563,356.5231,359.682" svgx:width="0.29,0.58,0.33,0.48,0.44,0.33,0.29,0.55,0.6,0.42,0.55,0.61,0.29,0.42,0.48,0.5,0.42,0.48,0.42,0.55,0.4,0.48,0.56,0.6,0.29,0.4,0.29,0.58,0.56,0.55,0.6,0.4,0.56,0.48,0.58,0.33,0.55,0.4,0.48,0.42,0.48,0.5,0.4,0.44,0.58,0.55,0.5,0.58,0.61,0.55,0.61,0.48,0.56,0.48,0.29,0.55,0.6,0.88,0.48,0.58,0.33,0.55,0.48" style="fill:rgb(0,0,0);font-family:URWPalladioL-Roma;font-size:8.97px;stroke:none;">infectious diseases requiring urgent research and development e</text>
   <text y="702.273" x="364.062" svgx:width="0.61" style="fill:rgb(0,0,0);font-family:Rpxr;font-size:8.97px;stroke:none;">ﬀ</text>
   <text y="702.273" x="369.623,374.617,378.229,381.211,385.088" svgx:width="0.55,0.4,0.33,0.42,0.25" style="fill:rgb(0,0,0);font-family:URWPalladioL-Roma;font-size:8.97px;stroke:none;">orts.</text>
   <text y="702.273" x="393.199,399.802,404.887,407.933,410.475,415.048,417.591,421.148,425.209,427.7206,430.889,436.989,440.546,444.104" svgx:width="0.72,0.56,0.33,0.28,0.5,0.28,0.39,0.44,0.28,0.55,0.67,0.39,0.39,0.25" style="fill:rgb(0,0,0);font-family:URWPalladioL-Ital;font-size:8.97px;stroke:none;">Antiviral Res.</text>
   <text y="702.273" x="452.213,456.696,461.179,465.663" svgx:width="0.5,0.5,0.5,0.5" style="fill:rgb(0,0,0);font-family:URWPalladioL-Bold;font-size:8.97px;stroke:none;">2018</text>
   <text y="702.273" x="470.146" svgx:width="0.25" style="fill:rgb(0,0,0);font-family:URWPalladioL-Roma;font-size:8.97px;stroke:none;">,</text>
   <text y="702.273" x="475.793,480.366,484.939" svgx:width="0.5,0.5,0.5" style="fill:rgb(0,0,0);font-family:URWPalladioL-Ital;font-size:8.97px;stroke:none;">159</text>
   <text y="702.273" x="489.512,491.7545,495.155,499.728,504.301,508.874,513.446,518.019" svgx:width="0.25,0.55,0.5,0.5,0.5,0.5,0.5,0.25" style="fill:rgb(0,0,0);font-family:URWPalladioL-Roma;font-size:8.97px;stroke:none;">, 63–67.</text>
   <text y="715.184" x="98.05" svgx:width="0.33" style="fill:rgb(0,0,0);font-family:URWPalladioL-Roma;font-size:8.97px;stroke:none;">[</text>
   <text y="715.184" x="101.036,106.452,111.858,116.817,125.299,129.594" svgx:width="0.6,0.6,0.55,0.95,0.48,0.61" style="fill:rgb(8,117,183);font-family:URWPalladioL-Roma;font-size:8.97px;stroke:none;">PubMed</text>
   <text y="715.184" x="135.072" svgx:width="0.33" style="fill:rgb(0,0,0);font-family:URWPalladioL-Roma;font-size:8.97px;stroke:none;">]</text>
   <text y="728.096" x="76.535,81.018,85.501,87.74350000000001,98.05,103.419,105.976,110.774,115.659,121.028,123.954,128.568,136.326,138.884,141.748,146.862,149.1045,150.526,153.452,155.649,162.556,164.753,166.9955,168.68,175.385,179.594,184.392,187.696,192.581,196.79,199.0325,200.455,207.256,209.452,211.6945,213.38,218.688,222.897,228.178,230.735,235.849,238.0915,239.513,245.892,248.089,256.402,258.599,260.8415,262.518,267.825,270.382,273.247,277.64,281.849,284.661,286.9035,288.325,293.51,295.706,301.075,303.272,305.5145,307.2,312.507,317.806,320.363,322.92,325.477,329.871,337.63,339.8725,341.294,344.22,346.417,352.286,354.483,360.713,362.91,365.15250000000003,366.838,373.639,378.428,383.287,387.013,391.811,396.925,399.1675,400.598,407.434,409.631,413.778,415.975,418.21750000000003,419.894,427.205,432.504,437.872,441.598,446.396,451.51,453.7525,455.183,459.331,461.527,464.453,466.65,468.8925,470.569,477.274,480.586,484.795,489.91,492.836,497.045,499.602,502.159,504.4015,505.823,511.192,513.389,518.116" svgx:width="0.5,0.5,0.25,0.55,0.61,0.29,0.55,0.56,0.61,0.33,0.52,0.88,0.29,0.33,0.58,0.25,0.55,0.33,0.25,0.79,0.25,0.25,0.55,0.76,0.48,0.55,0.4,0.56,0.48,0.25,0.55,0.77,0.25,0.25,0.55,0.6,0.48,0.6,0.29,0.58,0.25,0.55,0.73,0.25,0.95,0.25,0.25,0.55,0.6,0.29,0.33,0.5,0.48,0.4,0.25,0.55,0.72,0.25,0.61,0.25,0.25,0.55,0.6,0.6,0.29,0.29,0.29,0.5,0.88,0.25,0.55,0.33,0.25,0.67,0.25,0.71,0.25,0.25,0.55,0.77,0.55,0.55,0.42,0.55,0.58,0.25,0.55,0.78,0.25,0.6,0.25,0.25,0.55,0.83,0.6,0.61,0.42,0.55,0.58,0.25,0.55,0.6,0.25,0.33,0.25,0.25,0.55,0.76,0.4,0.48,0.58,0.33,0.48,0.29,0.29,0.25,0.55,0.61,0.25,0.61,0.25" style="fill:rgb(0,0,0);font-family:URWPalladioL-Roma;font-size:8.97px;stroke:none;">18. Lloyd-Smith, J.O.; George, D.; Pepin, K.M.; Pitzer, V.E.; Pulliam, J.R.C.; Dobson, A.P.; Hudson, P.J.; Grenfell, B.T.</text>
   <text y="741.008" x="98.05,103.528,108.917,111.527,117.005,121.3,129.217,131.826,135.7728,138.049,143.528,148.513,153.731,158.215,166.132,168.741,172.722,176.48940000000002,178.766,183.249,186.2091,188.413,191.336,196.555,200.8606,203.091,208.31,213.717,221.634,226.117,231.336,234.321,238.805,244.023,246.632,254.55,259.033,261.6343,263.884,266.493,271.711,274.634,278.929,282.471,285.457,289.94,293.921,298.216" svgx:width="0.61,0.6,0.29,0.61,0.48,0.88,0.29,0.44,0.55,0.61,0.56,0.58,0.5,0.88,0.29,0.44,0.42,0.55,0.5,0.33,0.55,0.33,0.58,0.48,0.55,0.58,0.6,0.88,0.5,0.58,0.33,0.5,0.58,0.29,0.88,0.5,0.29,0.55,0.29,0.58,0.33,0.48,0.4,0.33,0.5,0.44,0.48,0.25" style="fill:rgb(0,0,0);font-family:URWPalladioL-Roma;font-size:8.97px;stroke:none;">Epidemic dynamics at the human-animal interface.</text>
   <text y="741.008" x="303.593,308.578,312.228,314.72,318.208,323.194,326.843" svgx:width="0.56,0.41,0.28,0.39,0.56,0.41,0.39" style="fill:rgb(0,0,0);font-family:URWPalladioL-Ital;font-size:8.97px;stroke:none;">Science</text>
   <text y="741.008" x="332.572,337.055,341.538,346.022" svgx:width="0.5,0.5,0.5,0.5" style="fill:rgb(0,0,0);font-family:URWPalladioL-Bold;font-size:8.97px;stroke:none;">2009</text>
   <text y="741.008" x="350.505" svgx:width="0.25" style="fill:rgb(0,0,0);font-family:URWPalladioL-Roma;font-size:8.97px;stroke:none;">,</text>
   <text y="741.008" x="354.988,359.471,363.954" svgx:width="0.5,0.5,0.5" style="fill:rgb(0,0,0);font-family:URWPalladioL-Ital;font-size:8.97px;stroke:none;">326</text>
   <text y="741.008" x="368.438,370.6805,372.921,377.404,381.888,386.371,390.854,395.337,399.821,404.304,408.787,413.27,415.5125,418.65" svgx:width="0.25,0.55,0.5,0.5,0.5,0.5,0.5,0.5,0.5,0.5,0.5,0.25,0.55,0.33" style="fill:rgb(0,0,0);font-family:URWPalladioL-Roma;font-size:8.97px;stroke:none;">, 1362–1367. [</text>
   <text y="741.008" x="421.636,427.993,431.373,436.269,440.071,443.873,449.862,454.157" svgx:width="0.71,0.4,0.55,0.42,0.42,0.67,0.48,0.33" style="fill:rgb(8,117,183);font-family:URWPalladioL-Roma;font-size:8.97px;stroke:none;">CrossRef</text>
   <text y="741.008" x="457.143,460.1031,462.37" svgx:width="0.33,0.55,0.33" style="fill:rgb(0,0,0);font-family:URWPalladioL-Roma;font-size:8.97px;stroke:none;">] [</text>
   <text y="741.008" x="465.356,470.772,476.178,481.137,489.619,493.914" svgx:width="0.6,0.6,0.55,0.95,0.48,0.61" style="fill:rgb(8,117,183);font-family:URWPalladioL-Roma;font-size:8.97px;stroke:none;">PubMed</text>
   <text y="741.008" x="499.392" svgx:width="0.33" style="fill:rgb(0,0,0);font-family:URWPalladioL-Roma;font-size:8.97px;stroke:none;">]</text>
   <text y="753.919" x="76.535,81.018,85.501,87.74350000000001,98.05,105.129,108.577,113.57,117.448,120.43,124.81,130.133,132.37550000000002,134.98,141.465,143.7075,146.312,152.421,155.083,158.622,164.137,167.9044,170.576,174.956,179.017,184.011,186.672,191.666,196.751,201.836,204.07850000000002,207.89,214.8866,217.566,222.651,227.224,232.606,235.282,240.339,244.72,247.702,255.329,259.71,264.091,269.2936,271.974,277.562,281.943,284.925,289.305,293.366,296.348,299.009,304.003,309.2056,311.877,316.45,321.773,327.2447,329.922,335.418,338.875,343.247,348.835,351.496,355.557,358.539,361.2,366.194,371.516" svgx:width="0.5,0.5,0.25,0.55,0.77,0.4,0.55,0.42,0.33,0.48,0.58,0.25,0.55,0.71,0.25,0.55,0.72,0.29,0.4,0.6,0.42,0.55,0.48,0.44,0.55,0.29,0.55,0.56,0.56,0.25,0.55,0.78,0.55,0.56,0.5,0.6,0.55,0.55,0.48,0.33,0.83,0.48,0.48,0.58,0.55,0.61,0.48,0.33,0.48,0.44,0.33,0.29,0.55,0.58,0.55,0.5,0.58,0.61,0.55,0.6,0.4,0.48,0.61,0.29,0.44,0.33,0.29,0.55,0.58,0.25" style="fill:rgb(0,0,0);font-family:URWPalladioL-Roma;font-size:8.97px;stroke:none;">19. Drosten, C. Virus ecology: A gap between detection and prediction.</text>
   <text y="753.919" x="377.897,383.485,390.6,394.158,397.551,402.124,404.36650000000003,408.508,417.141,419.684,423.406,426.799,430.86,435.094,438.652,442.1503,444.771,447.816,452.901,455.444,459.001,462.724,465.769" svgx:width="0.61,0.78,0.39,0.39,0.5,0.25,0.55,0.94,0.28,0.41,0.39,0.44,0.46,0.39,0.39,0.55,0.33,0.56,0.28,0.39,0.41,0.33,0.25" style="fill:rgb(0,0,0);font-family:URWPalladioL-Ital;font-size:8.97px;stroke:none;">Emerg. Microbes Infect.</text>
   <text y="753.919" x="472.142,476.625,481.108,485.592" svgx:width="0.5,0.5,0.5,0.5" style="fill:rgb(0,0,0);font-family:URWPalladioL-Bold;font-size:8.97px;stroke:none;">2013</text>
   <text y="753.919" x="490.074" svgx:width="0.25" style="fill:rgb(0,0,0);font-family:URWPalladioL-Roma;font-size:8.97px;stroke:none;">,</text>
   <text y="753.919" x="494.999" svgx:width="0.5" style="fill:rgb(0,0,0);font-family:URWPalladioL-Ital;font-size:8.97px;stroke:none;">2</text>
   <text y="753.919" x="499.572,501.8145,504.492,508.873,513.446,518.019" svgx:width="0.25,0.55,0.48,0.5,0.5,0.25" style="fill:rgb(0,0,0);font-family:URWPalladioL-Roma;font-size:8.97px;stroke:none;">, e31.</text>
   <text y="766.831" x="98.05" svgx:width="0.33" style="fill:rgb(0,0,0);font-family:URWPalladioL-Roma;font-size:8.97px;stroke:none;">[</text>
   <text y="766.831" x="101.036,107.393,110.773,115.669,119.471,123.272,129.262,133.557" svgx:width="0.71,0.4,0.55,0.42,0.42,0.67,0.48,0.33" style="fill:rgb(8,117,183);font-family:URWPalladioL-Roma;font-size:8.97px;stroke:none;">CrossRef</text>
   <text y="766.831" x="136.543,139.50310000000002,141.77" svgx:width="0.33,0.55,0.33" style="fill:rgb(0,0,0);font-family:URWPalladioL-Roma;font-size:8.97px;stroke:none;">] [</text>
   <text y="766.831" x="144.756,150.172,155.578,160.537,169.019,173.314" svgx:width="0.6,0.6,0.55,0.95,0.48,0.61" style="fill:rgb(8,117,183);font-family:URWPalladioL-Roma;font-size:8.97px;stroke:none;">PubMed</text>
   <text y="766.831" x="178.792" svgx:width="0.33" style="fill:rgb(0,0,0);font-family:URWPalladioL-Roma;font-size:8.97px;stroke:none;">]</text>
  </g>
 </g>
</svg>
