<?xml version="1.0" encoding="UTF-8"?>
<svg height="635.438" width="554.3625" xmlns="http://www.w3.org/2000/svg">
 <g id="page" xmlns:svgx="http://www.xml-cml.org/schema/svgx">
  <g begin="text">
   <text y="66.331" x="51.024,53.714,58.507,62.889399999999995,65.877,73.03,75.571,80.553,85.323,89.676,92.3652,95.3,98.508,103.294,106.502,109.02,114.001,118.204,123.186,127.332,131.71439999999998,134.702,140.202,142.696,145.904,150.124,152.813,156.984,161.965,166.945,169.852,174.834,179.661,184.642" svgx:width="0.27,0.5,0.44,0.55,0.72,0.27,0.5,0.5,0.44,0.27,0.55,0.32,0.5,0.32,0.27,0.5,0.44,0.5,0.44,0.44,0.55,0.55,0.27,0.32,0.44,0.27,0.44,0.5,0.5,0.55,0.5,0.5,0.5,0.5" style="fill:rgb(19,20,19);font-family:PtgjlnAdvTT3713a231;font-size:9.96px;stroke:none;">the Global Influenza Strategy 2019</text>
   <text y="66.331" x="189.41" svgx:width="0.5" style="fill:rgb(19,20,19);font-family:CkgypfAdvTT3713a231;font-size:9.96px;stroke:none;">–</text>
   <text y="66.331" x="194.286,199.267,204.094,209.075,213.902,216.392,219.345,225.362,230.173,234.5554,237.543,240.751,245.537,250.519,253.7062,256.649,260.484,262.998,266.206,270.425,272.976,277.33,282.161,284.851" svgx:width="0.5,0.5,0.5,0.5,0.25,0.55,0.6,0.5,0.44,0.55,0.32,0.5,0.5,0.32,0.55,0.38,0.27,0.32,0.44,0.27,0.44,0.5,0.27,0.44" style="fill:rgb(19,20,19);font-family:PtgjlnAdvTT3713a231;font-size:9.96px;stroke:none;">2030. The four strategic</text>
   <text y="78.746" x="51.024,56.005,60.832,63.383,67.737,71.944,74.634,77.159,82.141,86.287,90.07180000000001,92.524,97.505,102.332,104.883,107.573,110.099,115.08,119.283,124.263,126.654,131.007,134.024,138.4064,140.771,143.461,148.441,150.691,155.673,158.742,163.724,171.214,176.196,178.697,183.0794,185.444,188.652,192.814,196.65,200.865,205.219,208.235,212.589,217.363,219.853,222.239,226.074,228.588,231.796,236.015,240.996,245.766,248.456,253.249,257.603,262.583,264.872,269.853,272.355,277.336,282.163,286.516" svgx:width="0.5,0.5,0.27,0.44,0.44,0.27,0.27,0.5,0.44,0.38,0.55,0.5,0.5,0.27,0.27,0.27,0.5,0.44,0.5,0.55,0.44,0.32,0.44,0.55,0.27,0.5,0.55,0.5,0.32,0.5,0.77,0.5,0.27,0.44,0.55,0.32,0.44,0.38,0.44,0.44,0.32,0.44,0.5,0.25,0.55,0.38,0.27,0.32,0.44,0.5,0.5,0.27,0.5,0.44,0.5,0.55,0.5,0.27,0.5,0.5,0.44,0.27" style="fill:rgb(19,20,19);font-family:PtgjlnAdvTT3713a231;font-size:9.96px;stroke:none;">objectives outlined are to promote research, strengthen global</text>
   <text y="91.218" x="51.024,54.859,59.641,62.849,67.692,72.046,74.552,77.242,79.768,84.121,88.895,93.249,97.456,99.946,102.728,107.082,111.856,116.838,121.041,126.022,131.002,133.683,137.519,141.677,146.031,149.671,154.653,159.479,163.833,166.5222,169.174,171.864,176.714,179.922,182.439,187.42,191.567,196.548,200.751,205.1334,207.838,212.819,215.888,220.241,225.015,229.369,234.2,236.89,239.415,244.397,249.37699999999998,252.058,254.748,259.728,262.376,267.357,270.427,275.408,277.91,282.263,286.414" svgx:width="0.38,0.5,0.32,0.5,0.44,0.27,0.27,0.27,0.44,0.5,0.44,0.44,0.25,0.55,0.44,0.5,0.5,0.44,0.5,0.5,0.55,0.38,0.44,0.44,0.38,0.5,0.5,0.44,0.27,0.55,0.27,0.5,0.32,0.27,0.5,0.44,0.5,0.44,0.44,0.55,0.5,0.32,0.44,0.5,0.44,0.5,0.27,0.27,0.5,0.5,0.55,0.27,0.5,0.55,0.5,0.32,0.5,0.27,0.44,0.44,0.27" style="fill:rgb(19,20,19);font-family:PtgjlnAdvTT3713a231;font-size:9.96px;stroke:none;">surveillance, expand seasonal influenza prevention to protect</text>
   <text y="103.69" x="51.024,53.714,58.507,62.889399999999995,65.479,70.461,75.231,77.921,82.77,87.124,90.141,94.494,99.325,102.015,106.3974,108.85,113.203,118.034,123.01400000000001,125.631,129.466,131.98,135.188,139.35,144.331,149.158,151.71,156.691,160.894,165.874,168.491,173.472,177.618,182.6,187.426,191.78,199.275,201.965,206.3474,208.856,213.837,216.85,221.204,226.035,230.388,233.405,237.758,242.589,247.571,251.717,255.553,259.3378,261.922" svgx:width="0.27,0.5,0.44,0.55,0.5,0.5,0.27,0.5,0.44,0.32,0.44,0.5,0.27,0.44,0.55,0.44,0.5,0.5,0.55,0.38,0.27,0.32,0.44,0.5,0.5,0.27,0.5,0.44,0.5,0.55,0.5,0.44,0.5,0.5,0.44,0.77,0.27,0.44,0.55,0.5,0.32,0.44,0.5,0.44,0.32,0.44,0.5,0.5,0.44,0.38,0.38,0.55,0.32" style="fill:rgb(19,20,19);font-family:PtgjlnAdvTT3713a231;font-size:9.96px;stroke:none;">the vulnerable and strengthen pandemic preparedness [</text>
   <text y="103.69" x="265.038,270.019" svgx:width="0.5,0.5" style="fill:rgb(0,0,255);font-family:PtgjlnAdvTT3713a231;font-size:9.96px;stroke:none;">27</text>
   <text y="103.69" x="274.79,277.998" svgx:width="0.32,0.25" style="fill:rgb(19,20,19);font-family:PtgjlnAdvTT3713a231;font-size:9.96px;stroke:none;">].</text>
   <text y="141.052" x="51.024,57.259,64.098,74.154,84.246,90.462,94.79" svgx:width="0.53,0.57,0.85,0.85,0.52,0.38,0.52" style="fill:rgb(19,20,19);font-family:TshsnvAdvTTaf7f9f4f.B;font-size:11.96px;stroke:none;">Summary</text>
   <text y="165.94" x="51.024,54.232,59.213,62.421,65.111,70.092,74.446,79.427,83.781,88.134,90.624,94.336,97.026,99.716,104.697,109.0794,112.761,117.1434,120.924,125.278,130.259,134.613,142.284,146.638,149.328,153.681,158.662,163.642,167.355,170.045,173.82979999999998,177.616,181.97,186.95,190.712,195.066,200.047,204.401,207.5882,211.348,215.701,220.683,225.036,230.018,234.999,237.689,242.67,247.64999999999998,251.372,256.354,259.044,262.252,267.233,271.0178,274.786,279.14,284.121" svgx:width="0.32,0.5,0.32,0.27,0.5,0.44,0.5,0.44,0.44,0.25,0.55,0.27,0.27,0.5,0.44,0.55,0.44,0.55,0.44,0.5,0.44,0.77,0.44,0.27,0.44,0.5,0.5,0.55,0.27,0.38,0.55,0.44,0.5,0.55,0.44,0.5,0.44,0.32,0.55,0.44,0.5,0.44,0.5,0.5,0.27,0.5,0.5,0.55,0.5,0.27,0.32,0.5,0.38,0.55,0.44,0.5,0.5" style="fill:rgb(19,20,19);font-family:PtgjlnAdvTT3713a231;font-size:9.96px;stroke:none;">Influenza, like a chameleon is an ever changing virus and</text>
   <text y="178.412" x="51.024,55.377,60.359,65.34,67.918,70.608,75.589,80.571,84.924,88.70880000000001,92.409,95.099,100.07900000000001,103.804,108.786,113.139,117.493,122.473,126.085,131.066,136.047,143.719,148.072,153.054,156.8388,160.497,165.478,170.458,174.159,176.849,181.83,186.184,188.874,192.06119999999999,195.759,198.449,203.43,207.784,211.52,214.01000000000002,217.7,224.853,229.834,234.188,237.37519999999998,241.057,243.747,248.728,253.1104,256.818,261.799,266.781,271.762,276.604,279.812,284.165" svgx:width="0.44,0.5,0.5,0.27,0.27,0.5,0.5,0.44,0.38,0.55,0.27,0.5,0.55,0.5,0.44,0.44,0.5,0.55,0.5,0.5,0.77,0.44,0.5,0.38,0.55,0.5,0.5,0.55,0.27,0.5,0.44,0.27,0.32,0.55,0.27,0.5,0.44,0.38,0.25,0.55,0.72,0.5,0.44,0.32,0.55,0.27,0.5,0.44,0.55,0.5,0.5,0.5,0.5,0.32,0.44,0.5" style="fill:rgb(19,20,19);font-family:PtgjlnAdvTT3713a231;font-size:9.96px;stroke:none;">continues to keep humans on their toes. Over the hundred</text>
   <text y="190.828" x="51.024,56.005,60.208,64.562,67.578,71.36280000000001,74.268,78.104,80.618,85.599,89.802,94.18440000000001,97.059,99.749,104.542,108.9244,111.742,116.723,121.55,126.531,131.511,134.306,137.514,140.031,145.011,147.912,152.266,157.04,159.729,164.522,168.876,176.428,178.979,183.333,185.823,188.617,191.307,196.157,200.51,203.527,207.90939999999998,210.784,215.765,219.912,224.893,229.2754,232.044,237.025,241.228,245.582,250.56199999999998,253.304,257.658,262.489,267.47,271.106,273.796,278.646,283.0,285.903" svgx:width="0.5,0.44,0.44,0.32,0.38,0.55,0.38,0.27,0.5,0.44,0.44,0.55,0.27,0.5,0.44,0.55,0.5,0.5,0.5,0.5,0.55,0.32,0.27,0.5,0.55,0.44,0.5,0.27,0.5,0.44,0.77,0.27,0.44,0.25,0.55,0.27,0.5,0.44,0.32,0.44,0.55,0.5,0.44,0.5,0.44,0.55,0.5,0.44,0.44,0.5,0.55,0.44,0.5,0.5,0.38,0.27,0.5,0.44,0.32,0.32" style="fill:rgb(19,20,19);font-family:PtgjlnAdvTT3713a231;font-size:9.96px;stroke:none;">years since the 1918 flu epidemic, there have been consider-</text>
   <text y="203.3" x="51.024,55.377,60.208,62.76,67.1424,69.732,74.086,78.86,83.841,88.045,93.026,97.229,101.583,105.3678,107.887,110.577,115.557,118.035,120.725,125.575,129.9574,132.491,137.472,142.242,147.223,151.427,154.635,158.287,160.977,165.147,170.128,174.955,177.645,182.438,187.41799999999998,190.035,195.016,198.20319999999998,200.693,205.674,209.877,212.567,217.36,222.341,227.111,231.465,236.296,240.65,244.29,246.98,250.639,253.12900000000002,255.741,260.722,263.224,267.578,272.352,277.333,282.16,285.995" svgx:width="0.44,0.5,0.27,0.44,0.55,0.44,0.5,0.5,0.44,0.5,0.44,0.44,0.38,0.55,0.27,0.5,0.55,0.27,0.5,0.44,0.55,0.5,0.5,0.5,0.44,0.32,0.38,0.27,0.44,0.5,0.5,0.27,0.5,0.5,0.55,0.5,0.32,0.55,0.5,0.44,0.27,0.5,0.5,0.5,0.44,0.5,0.44,0.38,0.27,0.38,0.25,0.55,0.5,0.27,0.44,0.5,0.5,0.5,0.38,0.32" style="fill:rgb(19,20,19);font-family:PtgjlnAdvTT3713a231;font-size:9.96px;stroke:none;">able advances in the understanding of pathogenesis, diagnos-</text>
   <text y="215.772" x="51.024,53.714,56.239,60.593,64.233,66.723,68.995,73.349,78.18,80.87,83.395,88.376,90.878,94.086,98.248,100.9372,103.238,108.219,111.232,116.213,121.04,124.82480000000001,127.106,131.46,136.29,141.26999999999998,143.547,148.529,152.675,157.029,161.236,163.926,168.719,173.072,175.578,178.268,183.118,188.09799999999998,190.374,194.21,196.724,199.932,204.094,206.784,210.954,215.935,218.437,222.791,226.488,228.978,231.25,237.769,242.751,245.4402,247.634,252.616,256.819,260.655,265.437,268.126,270.652,275.0344,277.285,279.975,284.768" svgx:width="0.27,0.27,0.44,0.38,0.25,0.55,0.44,0.5,0.27,0.27,0.5,0.27,0.32,0.44,0.27,0.55,0.5,0.32,0.5,0.5,0.38,0.55,0.44,0.5,0.5,0.55,0.5,0.44,0.44,0.44,0.27,0.5,0.44,0.27,0.27,0.5,0.5,0.55,0.38,0.27,0.32,0.44,0.27,0.44,0.5,0.27,0.44,0.38,0.25,0.55,0.67,0.5,0.27,0.55,0.5,0.44,0.38,0.5,0.27,0.27,0.44,0.55,0.27,0.5,0.44" style="fill:rgb(19,20,19);font-family:PtgjlnAdvTT3713a231;font-size:9.96px;stroke:none;">tics, antiviral drugs and vaccination strategies. But despite the</text>
   <text y="228.188" x="51.024,56.005,59.018,63.999,68.826,72.034,76.196,80.032,83.736,86.226,89.688,92.378,97.228,101.6104,105.109,110.09,112.591,117.573,122.343,126.697,129.3862,132.83,137.812,140.881,145.235,150.009,154.363,157.436,161.79,166.564,171.545,175.748,179.584,183.3688,186.86,190.068,194.854,198.0412,201.6,204.29,209.083,213.4654,216.964,221.945,226.148,231.129,233.8182,237.259,242.241,246.387,251.368,256.195,260.549,268.044,270.734,275.1164,278.531,281.739,285.902" svgx:width="0.5,0.32,0.5,0.5,0.32,0.44,0.38,0.38,0.25,0.55,0.27,0.5,0.44,0.55,0.5,0.27,0.5,0.5,0.44,0.27,0.55,0.5,0.32,0.44,0.5,0.44,0.32,0.44,0.5,0.5,0.44,0.38,0.38,0.55,0.32,0.5,0.32,0.55,0.27,0.5,0.44,0.55,0.5,0.44,0.5,0.27,0.55,0.5,0.44,0.5,0.5,0.44,0.77,0.27,0.44,0.55,0.32,0.44,0.32" style="fill:rgb(19,20,19);font-family:PtgjlnAdvTT3713a231;font-size:9.96px;stroke:none;">progress, the global preparedness for the next pandemic re-</text>
   <text y="240.66" x="51.024,58.695,62.872,65.562,70.355,74.13980000000001,77.498,81.334,86.173,91.154,95.924,100.905,103.407,106.097,113.612,117.965,120.472,122.96199999999999,126.254,133.407,138.216,140.9052,144.226,147.434,152.22,155.224,160.206,164.409,167.099,169.624,172.314,177.107,182.087,185.384,188.074,192.867,197.221,199.9102,203.129,205.818,210.611,214.99339999999998,218.265,223.246,226.259,230.612,234.82,237.509,241.68,245.515,248.2042,251.431,254.121,261.636,266.617,270.764,275.117,277.80620000000005,281.025,286.006" svgx:width="0.77,0.44,0.27,0.5,0.38,0.55,0.38,0.5,0.5,0.5,0.5,0.27,0.27,0.77,0.44,0.27,0.25,0.55,0.72,0.5,0.27,0.55,0.32,0.5,0.32,0.5,0.44,0.27,0.27,0.27,0.5,0.5,0.55,0.27,0.5,0.44,0.27,0.55,0.27,0.5,0.44,0.55,0.5,0.32,0.44,0.44,0.27,0.44,0.38,0.27,0.55,0.27,0.77,0.5,0.44,0.44,0.27,0.55,0.5,0.32" style="fill:rgb(19,20,19);font-family:PtgjlnAdvTT3713a231;font-size:9.96px;stroke:none;">mains suboptimal. Not forgetting that the greatest impact of</text>
   <text y="253.132" x="51.024,53.714,58.507,62.889399999999995,65.31,70.291,74.438,79.419,84.246,88.6,96.094,98.784,103.16640000000001,105.448,112.601,116.787,120.57180000000001,123.08,126.916,131.698,134.702,137.91,142.13,145.338,149.5,154.48,156.927,161.908,166.88799999999998,169.173,172.381,177.224,182.205,184.707,189.06,191.55,193.891,196.581,201.374,205.75639999999999,208.121,211.329,216.172,221.153,223.654,228.008,232.988,235.333,240.314,244.46,248.814,251.32,254.009,258.989,261.354,265.708,270.482,273.172,278.021,283.003,285.902" svgx:width="0.27,0.5,0.44,0.55,0.5,0.44,0.5,0.5,0.44,0.77,0.27,0.44,0.55,0.72,0.44,0.38,0.55,0.38,0.5,0.32,0.32,0.44,0.32,0.44,0.5,0.55,0.5,0.5,0.55,0.32,0.5,0.5,0.27,0.44,0.25,0.55,0.27,0.5,0.44,0.55,0.32,0.5,0.5,0.27,0.44,0.5,0.55,0.5,0.44,0.44,0.27,0.27,0.5,0.55,0.44,0.5,0.27,0.5,0.5,0.32,0.32" style="fill:rgb(19,20,19);font-family:PtgjlnAdvTT3713a231;font-size:9.96px;stroke:none;">the pandemic was suffered by India, the Indian health author-</text>
   <text y="265.547" x="51.024,53.714,56.239,58.929,63.099,66.8838,69.166,74.147,78.35,82.704,87.684,89.859,92.549,97.52900000000001,99.667,104.648,108.852,113.205,116.3922,118.546,123.527,128.507,130.679,137.832,140.373,143.063,148.04299999999998,150.181,155.163,158.232,162.586,166.736,169.426,173.596,176.7832,179.096,184.077,186.976,191.958,196.161,201.142,205.288,210.268,212.545,215.235,220.215,222.353,226.707,230.914,235.895,240.042,244.396,246.958,249.648,254.628,256.766,261.747,266.574,269.264,271.733,276.714,279.273,284.254" svgx:width="0.27,0.27,0.27,0.44,0.38,0.55,0.5,0.44,0.44,0.5,0.55,0.27,0.5,0.55,0.5,0.44,0.44,0.32,0.55,0.5,0.5,0.55,0.72,0.27,0.27,0.5,0.55,0.5,0.32,0.44,0.44,0.27,0.44,0.32,0.55,0.5,0.32,0.5,0.44,0.5,0.44,0.5,0.55,0.27,0.5,0.55,0.44,0.44,0.5,0.44,0.44,0.27,0.27,0.5,0.55,0.5,0.5,0.27,0.27,0.5,0.27,0.5,0.5" style="fill:rgb(19,20,19);font-family:PtgjlnAdvTT3713a231;font-size:9.96px;stroke:none;">ities need to gear up with greater urgency in capacity building</text>
   <text y="278.019" x="51.024,54.232,59.018,62.2052,64.857,69.21,71.717,74.407,79.2,81.89,86.116,90.47,93.1592,95.64,99.476,104.314,109.295,114.065,119.046,122.115,124.8042,127.387,131.741,136.515,141.49499999999998,144.111,149.092,152.161,156.515,161.289,165.642,170.473,173.163,175.689,180.67,185.05239999999998,187.537,195.077,199.43,203.638,207.473,212.255,215.463,219.682,223.518" svgx:width="0.32,0.5,0.32,0.55,0.44,0.27,0.27,0.5,0.27,0.44,0.44,0.27,0.55,0.38,0.5,0.5,0.5,0.5,0.32,0.27,0.55,0.44,0.5,0.5,0.55,0.5,0.32,0.44,0.5,0.44,0.5,0.27,0.27,0.5,0.44,0.55,0.77,0.44,0.44,0.38,0.5,0.32,0.44,0.38,0.25" style="fill:rgb(19,20,19);font-family:PtgjlnAdvTT3713a231;font-size:9.96px;stroke:none;">for clinical support and preventive measures.</text>
   <text y="303.42" x="51.024,56.843,62.476,71.15,77.079,79.597,82.337,87.478,93.406,97.683,103.05340000000001,105.903,113.662,116.165,119.924,125.84240000000001,128.637,133.996,137.538,143.467,146.042,150.352,155.711,158.45100000000002,161.237,166.453,170.211,175.41,181.339,187.032,192.391,195.99,201.919" svgx:width="0.53,0.53,0.8,0.54,0.25,0.25,0.49,0.54,0.41,0.49,0.55,0.71,0.25,0.34,0.54,0.55,0.49,0.34,0.54,0.25,0.41,0.49,0.25,0.55,0.49,0.34,0.49,0.54,0.54,0.49,0.34,0.54,0.4" style="fill:rgb(19,20,19);font-family:LxtjwyAdvTTa351d857.B;font-size:10.96px;stroke:none;">Compliance with Ethical Standards</text>
   <text y="325.814" x="51.024,55.427,59.584,63.988,66.217,68.241,70.129,73.417,76.12740000000001,78.349,82.668,85.1243,87.25,89.234,93.637,96.207,100.062,102.789,106.582,109.643" svgx:width="0.52,0.51,0.52,0.29,0.24,0.24,0.41,0.32,0.55,0.51,0.29,0.55,0.25,0.52,0.32,0.47,0.32,0.47,0.38,0.32" style="fill:rgb(19,20,19);font-family:HndnkhAdvTT577c760c;font-size:8.47px;stroke:none;">Conflict of Interest</text>
   <text y="325.814" x="120.756,126.836,130.904,135.138,138.614" svgx:width="0.72,0.5,0.5,0.44,0.25" style="fill:rgb(19,20,19);font-family:PtgjlnAdvTT3713a231;font-size:8.47px;stroke:none;">None.</text>
   <text y="363.175" x="51.024,57.845,64.062,67.895,74.111,78.446,84.663,91.429,96.773,102.842" svgx:width="0.58,0.52,0.33,0.52,0.38,0.52,0.58,0.45,0.52,0.43" style="fill:rgb(19,20,19);font-family:TshsnvAdvTTaf7f9f4f.B;font-size:11.96px;stroke:none;">References</text>
   <text y="385.625" x="55.332,59.566,61.6835,70.242,75.882,79.937,83.509,87.743,91.785,94.512,98.2388,100.573,105.108,107.22550000000001,109.701,114.689,118.923,122.6498,124.951,131.031,133.568,139.648,144.567,146.6845,149.159,154.148,158.382,162.1088,164.409,168.11,172.177,176.411,178.469,182.703,184.819,187.105,191.168,195.40300000000002,197.801,202.035,204.7454,207.099,211.333,214.866,219.1,223.142,226.714,233.235,235.332,239.0588,241.511,243.665,247.899,250.468,252.623,256.857,260.39,264.624,268.157,271.729,274.0159,276.434,280.135,284.201,286.488" svgx:width="0.5,0.25,0.55,0.67,0.5,0.44,0.5,0.5,0.32,0.44,0.55,0.55,0.25,0.55,0.6,0.5,0.44,0.55,0.72,0.32,0.72,0.6,0.25,0.55,0.6,0.5,0.44,0.55,0.44,0.5,0.5,0.27,0.5,0.27,0.27,0.5,0.5,0.55,0.5,0.32,0.55,0.5,0.44,0.5,0.5,0.44,0.77,0.27,0.44,0.55,0.27,0.5,0.32,0.27,0.5,0.44,0.5,0.44,0.44,0.27,0.55,0.44,0.5,0.27,0.32" style="fill:rgb(19,20,19);font-family:PtgjlnAdvTT3713a231;font-size:8.47px;stroke:none;">1. Chandra S, Eva K-NE. The evolution of pandemic influenza: evi-</text>
   <text y="395.66" x="70.242,74.476,77.953,82.187,85.72,89.4468,91.616,94.224,96.951,101.028,107.54990000000001,109.702,112.428,116.505,120.739,122.854,126.426,128.5435,130.735,134.969,139.012,143.246" svgx:width="0.5,0.44,0.5,0.44,0.44,0.55,0.32,0.32,0.5,0.77,0.55,0.32,0.5,0.5,0.27,0.44,0.25,0.55,0.5,0.5,0.5,0.5" style="fill:rgb(19,20,19);font-family:PtgjlnAdvTT3713a231;font-size:8.47px;stroke:none;">dence from India, 1918</text>
   <text y="395.66" x="147.288" svgx:width="0.5" style="fill:rgb(19,20,19);font-family:CkgypfAdvTT3713a231;font-size:8.47px;stroke:none;">–</text>
   <text y="395.66" x="151.426,155.66,159.703,161.8205,164.011,169.511,177.005,182.6799,184.761,187.488,191.564,194.173,197.873,201.372,203.65890000000002,205.851,211.931,214.071,217.189,219.3065,221.498,225.732,229.775,234.009,238.051,240.338,244.401,248.635,250.694,254.928,258.97,263.205" svgx:width="0.5,0.5,0.25,0.55,0.67,0.88,0.67,0.55,0.32,0.5,0.32,0.44,0.44,0.27,0.55,0.72,0.27,0.38,0.25,0.55,0.5,0.5,0.5,0.5,0.27,0.5,0.5,0.27,0.5,0.5,0.5,0.25" style="fill:rgb(19,20,19);font-family:PtgjlnAdvTT3713a231;font-size:8.47px;stroke:none;">19. BMC Infect Dis. 2014;14:510.</text>
   <text y="405.638" x="55.331,59.566,61.6835,70.241,73.591,77.38,80.782,83.163,86.953,89.66340000000001,92.962,98.745,100.86250000000001,104.187,110.356,114.679,118.469,122.834,125.1209,128.447,133.039,135.1565,138.425,141.826,145.616,148.432,152.755,155.193,159.516,163.305,167.54000000000002,170.845,177.025,179.1425,182.467,188.193,192.048,195.846,200.169,202.544,206.91,210.709,214.058,217.2766,220.634,223.45,227.815,230.5254,233.824,236.658,240.448,243.85,248.173,252.538,256.861,261.226,263.602,267.925,272.16,275.465,277.903,282.13800000000003,285.443" svgx:width="0.5,0.25,0.55,0.38,0.44,0.38,0.27,0.44,0.32,0.55,0.67,0.25,0.55,0.72,0.5,0.44,0.5,0.27,0.55,0.6,0.25,0.55,0.38,0.44,0.32,0.5,0.27,0.5,0.44,0.5,0.55,0.72,0.25,0.55,0.67,0.44,0.44,0.5,0.27,0.5,0.44,0.38,0.38,0.55,0.32,0.5,0.32,0.55,0.32,0.44,0.38,0.5,0.5,0.5,0.5,0.27,0.5,0.5,0.55,0.27,0.5,0.55,0.44" style="fill:rgb(19,20,19);font-family:PtgjlnAdvTT3713a231;font-size:8.47px;stroke:none;">2. Jester B, Uyeki T, Jernigan D. Readiness for responding to a</text>
   <text y="415.616" x="70.241,73.708,77.616,82.094,86.006,88.939,92.66579999999999,97.613,102.054,105.961,110.44,114.862,118.769,125.496,127.989,131.7158,136.663,141.142,145.564,149.799,154.805,159.227,163.134,167.041,169.975,173.1936,178.195,182.106,185.04,187.591,191.498,194.20839999999998,199.209,203.649,208.09,212.569,217.01,219.1275,224.096,230.445,236.96689999999998,241.954,245.17260000000002,250.174,255.503,259.943,262.436,266.915,270.827,277.554,280.047,284.488,286.981" svgx:width="0.38,0.44,0.5,0.44,0.32,0.44,0.55,0.5,0.44,0.5,0.5,0.44,0.77,0.27,0.44,0.55,0.5,0.5,0.5,0.55,0.5,0.44,0.44,0.32,0.38,0.55,0.44,0.32,0.27,0.44,0.32,0.55,0.5,0.5,0.5,0.5,0.25,0.55,0.72,0.77,0.55,0.38,0.55,0.6,0.5,0.27,0.5,0.44,0.77,0.27,0.5,0.27,0.25" style="fill:rgb(19,20,19);font-family:PtgjlnAdvTT3713a231;font-size:8.47px;stroke:none;">severe pandemic 100 years after 1918. Am J Epidemiol.</text>
   <text y="425.594" x="70.241,74.556,78.921,83.236,87.601,89.968,94.283,98.648,102.957,105.323,109.689,114.003,118.369" svgx:width="0.5,0.5,0.5,0.5,0.27,0.5,0.5,0.5,0.27,0.5,0.5,0.5,0.5" style="fill:rgb(19,20,19);font-family:PtgjlnAdvTT3713a231;font-size:8.47px;stroke:none;">2018;187:2596</text>
   <text y="425.594" x="122.682" svgx:width="0.5" style="fill:rgb(19,20,19);font-family:CkgypfAdvTT3713a231;font-size:8.47px;stroke:none;">–</text>
   <text y="425.594" x="127.048,131.356,135.722,140.03" svgx:width="0.5,0.5,0.5,0.25" style="fill:rgb(19,20,19);font-family:PtgjlnAdvTT3713a231;font-size:8.47px;stroke:none;">602.</text>
   <text y="435.629" x="55.331,59.566,61.6835,70.241,75.23,79.464,85.378,88.95,93.185,95.47,101.55,106.978,109.0955,111.344,116.018,118.147,121.847,125.347,127.6339,129.882,133.142,135.2595,137.422,143.062,147.117,149.403,152.9,156.11860000000001,158.455,162.69,165.4004,167.583,171.817,175.86,182.266,184.553,188.616,190.77,193.057,197.292,199.444,203.145,207.211,211.44600000000003,213.731,215.885,219.586,225.92,230.154,233.687,236.295,239.996,242.135,246.369,248.881,252.6078,254.835,257.121,261.356,263.509,266.769,270.822,274.522,278.589,280.743,284.977" svgx:width="0.5,0.25,0.55,0.6,0.5,0.72,0.44,0.5,0.55,0.72,0.67,0.25,0.55,0.55,0.27,0.44,0.44,0.27,0.55,0.38,0.25,0.55,0.67,0.5,0.27,0.44,0.38,0.55,0.5,0.32,0.55,0.5,0.5,0.77,0.27,0.5,0.27,0.27,0.5,0.55,0.44,0.5,0.5,0.55,0.27,0.44,0.77,0.5,0.44,0.32,0.44,0.27,0.5,0.32,0.44,0.55,0.27,0.5,0.55,0.38,0.5,0.44,0.5,0.27,0.5,0.5" style="fill:rgb(19,20,19);font-family:PtgjlnAdvTT3713a231;font-size:8.47px;stroke:none;">3. Lowen AC, Steel J. Roles of humidity and temperature in shaping</text>
   <text y="445.607" x="70.241,72.396,76.63,79.199,81.485,85.549,89.12,93.355,96.887,100.6138,102.784,105.902,109.602,113.158,116.276,120.51,124.553,128.254,130.393,132.547,134.833,138.387,140.5045,142.695,145.9136,148.138,153.694,155.848,158.575,162.651,164.806,166.92350000000002,169.114,173.348,177.391,181.625,185.668,187.954,192.017,196.252,198.31,202.544,206.587,210.821" svgx:width="0.27,0.5,0.32,0.27,0.5,0.44,0.5,0.44,0.44,0.55,0.38,0.44,0.44,0.38,0.5,0.5,0.44,0.27,0.27,0.27,0.5,0.25,0.55,0.38,0.55,0.72,0.27,0.32,0.5,0.27,0.25,0.55,0.5,0.5,0.5,0.5,0.27,0.5,0.5,0.27,0.5,0.5,0.5,0.5" style="fill:rgb(19,20,19);font-family:PtgjlnAdvTT3713a231;font-size:8.47px;stroke:none;">influenza seasonality. J Virol. 2014;88:7692</text>
   <text y="445.607" x="214.865" svgx:width="0.5" style="fill:rgb(19,20,19);font-family:CkgypfAdvTT3713a231;font-size:8.47px;stroke:none;">–</text>
   <text y="445.607" x="219.003,223.237" svgx:width="0.5,0.25" style="fill:rgb(19,20,19);font-family:PtgjlnAdvTT3713a231;font-size:8.47px;stroke:none;">5.</text>
   <text y="455.585" x="55.331,59.566,61.6835,70.241,76.195,80.42999999999999,82.544,87.218,89.33550000000001,91.331,97.412,101.48,104.207,108.226,112.46,116.695,118.714,124.794,126.9115,128.919,131.646,135.723,138.331,140.617,144.68,148.381,152.447,156.019,159.7458,161.859,166.093,170.136,172.744,176.978,180.511,184.746,186.804,190.504,194.571,198.806,200.92,203.207,205.739,209.44,213.506,216.624,223.145,225.298,228.416,231.677,233.802,238.036,242.27100000000002,244.29,246.444,250.679,252.794,255.08,259.143,262.8698,264.926,267.213,269.802,274.036,278.079,280.233,283.934,287.037" svgx:width="0.5,0.25,0.55,0.72,0.5,0.55,0.55,0.25,0.55,0.72,0.5,0.32,0.5,0.5,0.5,0.55,0.72,0.25,0.55,0.32,0.5,0.32,0.27,0.5,0.44,0.5,0.44,0.44,0.55,0.5,0.5,0.32,0.5,0.44,0.5,0.55,0.44,0.5,0.5,0.55,0.27,0.32,0.44,0.5,0.38,0.77,0.27,0.38,0.38,0.27,0.5,0.5,0.55,0.27,0.5,0.55,0.27,0.5,0.44,0.55,0.27,0.32,0.5,0.5,0.27,0.44,0.38,0.25" style="fill:rgb(19,20,19);font-family:PtgjlnAdvTT3713a231;font-size:8.47px;stroke:none;">4. Ng S, Gordon A. Influenza burden and transmission in the tropics.</text>
   <text y="465.563" x="70.241,75.881,79.936,82.544,85.2544,87.476,92.465,96.699,98.814,103.048,106.581,112.987,115.274,119.337,121.6239,123.815,129.315,133.015,137.082,139.1995,141.39,145.624,149.667,153.901,157.944,160.098,164.332,166.448,170.682" svgx:width="0.67,0.5,0.32,0.32,0.55,0.6,0.5,0.27,0.5,0.44,0.77,0.27,0.5,0.27,0.55,0.67,0.44,0.5,0.25,0.55,0.5,0.5,0.5,0.5,0.27,0.5,0.27,0.5,0.5" style="fill:rgb(19,20,19);font-family:PtgjlnAdvTT3713a231;font-size:8.47px;stroke:none;">Curr Epidemiol Rep. 2015;2:89</text>
   <text y="465.563" x="174.726" svgx:width="0.5" style="fill:rgb(19,20,19);font-family:CkgypfAdvTT3713a231;font-size:8.47px;stroke:none;">–</text>
   <text y="465.563" x="178.865,183.099,187.142,191.376" svgx:width="0.5,0.5,0.5,0.25" style="fill:rgb(19,20,19);font-family:PtgjlnAdvTT3713a231;font-size:8.47px;stroke:none;">100.</text>
   <text y="475.598" x="55.331,59.566,61.6835,70.355,76.435,80.136,82.26,84.547,88.781,93.015,96.604,98.8909,101.99,107.629,111.33,115.564,117.694,120.421,124.1478,127.275,130.001,134.236,136.94639999999998,140.03,146.111,148.397,151.539,155.239,158.94,162.083,165.8098,168.887,174.526,178.761,182.995,185.157,187.884,192.118,194.285,196.4025,199.501,204.175,207.876,211.463,214.723,218.957,223.191,226.713,228.9999,232.156,234.883,239.117,241.737,244.023,248.257,251.828,256.062,259.763,263.4898,266.512,272.592,276.826,282.907,286.978" svgx:width="0.5,0.25,0.55,0.72,0.44,0.27,0.27,0.5,0.5,0.44,0.27,0.55,0.67,0.44,0.5,0.27,0.32,0.44,0.55,0.32,0.5,0.32,0.55,0.72,0.27,0.38,0.44,0.44,0.38,0.44,0.55,0.67,0.5,0.5,0.27,0.32,0.5,0.27,0.25,0.55,0.55,0.44,0.44,0.38,0.5,0.5,0.44,0.27,0.55,0.32,0.5,0.32,0.27,0.5,0.44,0.5,0.44,0.44,0.55,0.72,0.5,0.72,0.5,0.25" style="fill:rgb(19,20,19);font-family:PtgjlnAdvTT3713a231;font-size:8.47px;stroke:none;">5. National Centre for Disease Control. Seasonal Influenza H1N1.</text>
   <text y="485.576" x="70.355,76.081,80.56,84.521,87.13,89.677,93.638,98.133,100.741,104.4678,108.168,112.193,114.74" svgx:width="0.72,0.5,0.44,0.27,0.27,0.44,0.5,0.27,0.44,0.55,0.44,0.27,0.27" style="fill:rgb(19,20,19);font-family:PtgjlnAdvTT3713a231;font-size:8.47px;stroke:none;">Available at:</text>
   <text y="485.576" x="120.812,125.303,127.847,130.455,134.934,138.452,140.996,143.604,146.155,150.647,154.605,159.141,163.109,165.483,169.975,174.51,178.479,180.853,183.397,187.932,190.476,193.02,197.556,202.047,206.005,210.541,215.02,217.394,221.93,226.421,230.913,234.938,237.482,241.44,245.931,250.467,255.483,260.019,266.797,269.341,273.299,277.834,281.792,284.336" svgx:width="0.5,0.27,0.27,0.5,0.38,0.27,0.27,0.27,0.5,0.44,0.5,0.44,0.25,0.5,0.5,0.5,0.25,0.27,0.5,0.27,0.27,0.5,0.5,0.44,0.5,0.5,0.25,0.5,0.5,0.5,0.44,0.27,0.44,0.5,0.5,0.56,0.5,0.77,0.27,0.44,0.5,0.44,0.27,0.56" style="fill:rgb(0,0,255);font-family:PtgjlnAdvTT3713a231;font-size:8.47px;stroke:none;">https://ncdc.gov.in/index4.php?lang=1&amp;level=</text>
   <text y="495.554" x="70.355,74.589,80.899,83.186,85.265,89.499,93.542,95.828,99.891,104.54,108.452,112.533,116.767,123.135,125.421,127.5,131.734,136.287,140.522,144.564" svgx:width="0.5,0.77,0.27,0.27,0.5,0.5,0.27,0.5,0.56,0.5,0.5,0.5,0.77,0.27,0.27,0.5,0.56,0.5,0.5,0.5" style="fill:rgb(0,0,255);font-family:PtgjlnAdvTT3713a231;font-size:8.47px;stroke:none;">0&amp;linkid=119&amp;lid=276</text>
   <text y="495.554" x="148.704,150.82150000000001,153.004,159.084,162.585,166.285,169.841,172.959,176.219,179.762,183.997,186.179" svgx:width="0.25,0.55,0.72,0.44,0.44,0.44,0.38,0.38,0.44,0.5,0.55,0.5" style="fill:rgb(19,20,19);font-family:PtgjlnAdvTT3713a231;font-size:8.47px;stroke:none;">. Accessed 2</text>
   <text y="491.811" x="190.318,193.379" svgx:width="0.5,0.5" style="fill:rgb(19,20,19);font-family:PtgjlnAdvTT3713a231;font-size:5.64px;stroke:none;">nd</text>
   <text y="495.553" x="198.765,204.845,208.914,212.995,217.229,220.308,222.5949,224.787,229.021,233.064,237.298,241.341" svgx:width="0.72,0.5,0.5,0.5,0.38,0.27,0.55,0.5,0.5,0.5,0.5,0.25" style="fill:rgb(19,20,19);font-family:PtgjlnAdvTT3713a231;font-size:8.47px;stroke:none;">August 2019.</text>
   <text y="505.531" x="55.333,59.567,61.6845,70.243,75.882,79.937,83.509,87.743,91.786,95.5128,97.739,105.233,109.758,111.8755,114.123,118.798,122.854,125.008,129.242,132.775,135.4854,137.764,142.696,148.776,150.89350000000002,153.071,157.745,161.235,165.469,169.1958,171.327,176.001,178.1185,180.284,183.985,186.27190000000002,188.448,192.148,194.287,196.4045,198.653,204.733,208.801,213.035,216.511,223.032,225.129,228.829,232.04760000000002,234.256,238.49,241.2004,243.384,245.671,249.734,252.46,254.553,258.787,262.32,266.554,270.03,273.7568,276.039,279.3,282.786,286.487" svgx:width="0.5,0.25,0.55,0.67,0.5,0.44,0.5,0.5,0.44,0.55,0.88,0.55,0.25,0.55,0.55,0.5,0.27,0.5,0.44,0.32,0.55,0.72,0.72,0.25,0.55,0.55,0.44,0.5,0.44,0.55,0.55,0.25,0.55,0.44,0.27,0.55,0.44,0.27,0.25,0.55,0.72,0.5,0.5,0.44,0.77,0.27,0.44,0.38,0.55,0.5,0.32,0.55,0.27,0.5,0.32,0.27,0.5,0.44,0.5,0.44,0.44,0.55,0.38,0.44,0.44,0.32" style="fill:rgb(19,20,19);font-family:PtgjlnAdvTT3713a231;font-size:8.47px;stroke:none;">6. Chadha MS, Potdar VA, Saha S, et al. Dynamics of influenza sea-</text>
   <text y="515.566" x="70.243,73.503,77.556,81.637,85.338,87.477,89.631,91.918,96.153,98.589,102.161,104.4479,106.98,110.24,114.293,118.527,121.04,123.767,127.276,131.51,133.625,137.859,141.902,145.474,147.7609,150.293,152.58,156.076,160.31,163.843,165.998,169.2166,171.781,174.067,178.30200000000002,180.681,183.408,187.485,191.719,193.778,197.5048,200.014,203.585,207.819,212.054,214.47,216.757,223.088,227.322,229.437,231.724,235.22,238.921,241.003,243.289,247.352,251.587,254.8056,257.274,259.882,264.116,266.8264,269.236,273.47,277.003,280.575,284.275,286.414" svgx:width="0.38,0.5,0.5,0.44,0.27,0.27,0.27,0.5,0.55,0.44,0.27,0.55,0.38,0.5,0.5,0.32,0.32,0.44,0.5,0.27,0.5,0.5,0.44,0.27,0.55,0.27,0.44,0.5,0.44,0.27,0.38,0.55,0.27,0.5,0.55,0.32,0.5,0.5,0.27,0.44,0.55,0.44,0.5,0.5,0.55,0.27,0.77,0.5,0.27,0.27,0.44,0.44,0.27,0.27,0.5,0.5,0.38,0.55,0.32,0.5,0.32,0.55,0.5,0.44,0.44,0.44,0.27,0.32" style="fill:rgb(19,20,19);font-family:PtgjlnAdvTT3713a231;font-size:8.47px;stroke:none;">sonality at sub-regional levels in India and implications for vacci-</text>
   <text y="525.544" x="70.243,74.477,77.953,80.239,82.375,86.609,90.844,92.92,95.206,97.285,103.805,105.902,110.136,114.179,116.29650000000001,118.488,123.162,128.069,132.303,136.9615,139.067,145.147,149.215,152.916,155.0335,157.153,161.387,165.373,169.607,173.649,175.936,179.999,184.233,186.348,189.92,194.154,198.197,202.431,206.474,210.708,214.751,218.985" svgx:width="0.5,0.44,0.27,0.27,0.5,0.5,0.55,0.27,0.27,0.77,0.27,0.5,0.5,0.25,0.55,0.55,0.6,0.5,0.55,0.55,0.72,0.5,0.44,0.25,0.55,0.5,0.5,0.5,0.5,0.27,0.5,0.5,0.27,0.44,0.5,0.5,0.5,0.5,0.5,0.5,0.5,0.25" style="fill:rgb(19,20,19);font-family:PtgjlnAdvTT3713a231;font-size:8.47px;stroke:none;">nation timing. PLoS One. 2015;10:e0124122.</text>
   <text y="535.522" x="55.333,59.567,61.6845,70.299,75.939,78.666,80.787,85.021,89.121,92.821,96.0396,99.156,104.795,110.324,112.4415,115.54,121.62,125.688,129.389,133.512,137.746,141.336,144.062,146.34890000000001,149.386,156.881,160.141,162.2585,165.26,171.34,175.041,177.165,179.4519,182.551,188.191,193.72,195.8375,198.936,203.755,206.482,210.047,214.282,217.417,223.938,226.091,229.352,232.498,234.784,238.904,243.139,246.274,250.508,253.2184,256.252,258.538,262.658,265.385,267.534,271.768,275.358,279.592,283.181,286.882" svgx:width="0.5,0.25,0.55,0.67,0.32,0.27,0.5,0.5,0.44,0.38,0.55,0.67,0.67,0.25,0.55,0.72,0.5,0.44,0.5,0.5,0.44,0.32,0.27,0.55,0.88,0.38,0.25,0.55,0.72,0.44,0.27,0.27,0.55,0.67,0.67,0.25,0.55,0.6,0.32,0.44,0.5,0.38,0.77,0.27,0.38,0.38,0.27,0.5,0.5,0.55,0.5,0.32,0.55,0.27,0.5,0.32,0.27,0.5,0.44,0.5,0.44,0.44,0.27" style="fill:rgb(19,20,19);font-family:PtgjlnAdvTT3713a231;font-size:8.47px;stroke:none;">7. Bridges CB, Kuehnert MJ, Hall CB. Transmission of influenza:</text>
   <text y="545.5" x="70.299,72.586,79.106,83.34,85.627,87.913,91.614,95.314,97.512,99.798,104.032,108.267,111.48559999999999,114.633,117.36,121.594,124.3044,127.502,131.203,135.437,139.671,141.957,144.684,148.819,151.1059,154.318,156.605,160.84,164.013,168.247,171.947,175.648,177.934,180.221,184.45600000000002,187.597,191.297,194.998,197.725,201.4518,204.547,207.808,211.508,213.795,216.081,218.367,222.602,226.836,230.003,232.1205,235.332,240.972,243.258,245.544,249.77900000000002,252.907,255.633,259.868,262.594,266.295,269.995,272.2819,275.413,281.494,283.78,287.04" svgx:width="0.27,0.77,0.5,0.27,0.27,0.44,0.44,0.27,0.27,0.5,0.5,0.38,0.55,0.32,0.5,0.32,0.55,0.44,0.5,0.5,0.27,0.32,0.5,0.27,0.55,0.27,0.5,0.55,0.5,0.44,0.44,0.27,0.27,0.5,0.55,0.44,0.44,0.32,0.44,0.55,0.38,0.44,0.27,0.27,0.27,0.5,0.5,0.38,0.25,0.55,0.67,0.27,0.27,0.5,0.55,0.32,0.5,0.32,0.44,0.44,0.27,0.55,0.72,0.27,0.38,0.25" style="fill:rgb(19,20,19);font-family:PtgjlnAdvTT3713a231;font-size:8.47px;stroke:none;">implications for control in health care settings. Clin Infect Dis.</text>
   <text y="555.535" x="70.299,74.533,78.576,82.81,86.853,89.007,93.241,97.284,99.571,103.634,107.868,111.91" svgx:width="0.5,0.5,0.5,0.5,0.27,0.5,0.5,0.27,0.5,0.5,0.5,0.5" style="fill:rgb(19,20,19);font-family:PtgjlnAdvTT3713a231;font-size:8.47px;stroke:none;">2003;37:1094</text>
   <text y="555.535" x="116.05" svgx:width="0.5" style="fill:rgb(19,20,19);font-family:CkgypfAdvTT3713a231;font-size:8.47px;stroke:none;">–</text>
   <text y="555.535" x="120.189,124.423,128.466,132.7" svgx:width="0.5,0.5,0.5,0.25" style="fill:rgb(19,20,19);font-family:PtgjlnAdvTT3713a231;font-size:8.47px;stroke:none;">101.</text>
   <text y="565.513" x="55.333,59.567,61.6845,70.243,76.3414,78.973,81.582,85.282,89.349,91.635,94.734,96.889,101.123,105.358,107.944,112.178,114.8884,117.468,119.622,123.856,127.58279999999999,130.11,133.37,137.423,140.684,142.809,146.381,152.9029,155.566,159.8,162.5104,165.09,169.324,173.367,179.887,183.401,187.636,191.169,193.455,196.951,199.238,203.301,205.909,209.6358,212.259,214.985,219.062,221.7724,224.448,226.734,230.797,233.405,235.692,239.755,243.327,247.561,251.094,254.8208,257.443,261.677,263.793,266.401,270.635,273.714,277.415,280.461,282.7479,285.449" svgx:width="0.5,0.25,0.55,0.72,0.55,0.32,0.44,0.5,0.27,0.38,0.27,0.5,0.5,0.55,0.5,0.32,0.55,0.27,0.5,0.44,0.55,0.38,0.5,0.38,0.27,0.44,0.77,0.55,0.5,0.32,0.55,0.5,0.5,0.77,0.44,0.5,0.44,0.27,0.44,0.27,0.5,0.32,0.44,0.55,0.32,0.5,0.32,0.55,0.27,0.5,0.32,0.27,0.5,0.44,0.5,0.44,0.44,0.55,0.5,0.27,0.32,0.5,0.38,0.44,0.38,0.27,0.55,0.44" style="fill:rgb(19,20,19);font-family:PtgjlnAdvTT3713a231;font-size:8.47px;stroke:none;">8. A revision of the system of nomenclature for influenza viruses: a</text>
   <text y="575.491" x="70.243,78.066,84.147,90.2454,92.353,98.759,102.46,108.794,113.028,115.541,119.241,123.308,127.542,131.585,137.991,140.10850000000002,142.299,147.939,151.994,154.28,156.5669,158.684,165.883,170.117,172.687,174.841,179.07600000000002,181.304,187.257,190.958,194.457,196.743,198.879,203.114,205.285,211.365,213.845,218.08,221.556,225.79,227.9075,230.003,234.237,238.28,242.514,246.556,248.843,252.849,257.083,259.199,263.433,267.475" svgx:width="0.94,0.72,0.72,0.55,0.77,0.44,0.77,0.5,0.32,0.44,0.5,0.5,0.5,0.77,0.25,0.55,0.67,0.5,0.27,0.27,0.55,0.94,0.5,0.32,0.27,0.5,0.55,0.72,0.44,0.44,0.27,0.27,0.5,0.55,0.72,0.32,0.5,0.44,0.5,0.25,0.55,0.5,0.5,0.5,0.5,0.27,0.5,0.5,0.27,0.5,0.5,0.5" style="fill:rgb(19,20,19);font-family:PtgjlnAdvTT3713a231;font-size:8.47px;stroke:none;">WHO memorandum. Bull World Health Organ. 1980;58:585</text>
   <text y="575.491" x="271.616" svgx:width="0.5" style="fill:rgb(19,20,19);font-family:CkgypfAdvTT3713a231;font-size:8.47px;stroke:none;">–</text>
   <text y="575.491" x="275.754,279.988,284.031" svgx:width="0.5,0.5,0.25" style="fill:rgb(19,20,19);font-family:PtgjlnAdvTT3713a231;font-size:8.47px;stroke:none;">91.</text>
   <text y="585.469" x="55.333,59.567,61.6845,70.243,76.196,80.43,86.797,88.951,91.238,95.473,98.249,104.329,106.4465,109.19,115.271,117.41,121.645,124.157,127.417,130.507,134.741,138.97600000000003,141.732,146.406,148.5235,151.256,157.336,159.476,165.882,170.117,173.593,177.828,180.679,186.759,188.8765,191.677,197.631,200.357,204.434,208.668,212.144,214.696,218.931,221.782,227.862,229.9795,232.78,237.316,239.602,243.156,245.31,247.596,251.3228,254.097,257.669,261.37,263.509,267.744,270.595,272.749,275.036,278.135,281.395,285.448" svgx:width="0.5,0.25,0.55,0.72,0.5,0.77,0.27,0.27,0.5,0.55,0.72,0.25,0.55,0.72,0.27,0.5,0.32,0.38,0.38,0.5,0.5,0.55,0.55,0.25,0.55,0.72,0.27,0.77,0.5,0.44,0.5,0.55,0.72,0.25,0.55,0.72,0.32,0.5,0.5,0.44,0.32,0.5,0.55,0.72,0.25,0.55,0.55,0.27,0.44,0.27,0.27,0.44,0.55,0.44,0.44,0.27,0.5,0.55,0.27,0.27,0.38,0.38,0.5,0.44" style="fill:rgb(19,20,19);font-family:PtgjlnAdvTT3713a231;font-size:8.47px;stroke:none;">9. Kumlin U, Olofsson S, Dimock K, Arnberg N. Sialic acid tissue</text>
   <text y="595.504" x="70.243,74.477,76.649,79.909,82.195,84.813,87.099,91.333,95.568,97.739,100.025,104.145,108.38,111.572,115.272,119.395,123.63,126.765,129.052,133.286,136.013,138.161,142.395,146.096,150.33,153.865,157.5918,160.725,164.959,167.246,169.853,174.087,177.3056,180.455,182.741,185.468,189.702,193.834,196.121,199.277,205.797,207.9145,211.012,213.739,217.973,220.593,222.879,227.113,230.814,234.936,238.637,242.3638,245.424,251.504,253.791,257.897,261.598,264.3084,267.478,273.118,276.818,279.951,284.185,286.471" svgx:width="0.5,0.27,0.38,0.27,0.32,0.27,0.5,0.5,0.27,0.27,0.5,0.5,0.55,0.44,0.5,0.5,0.55,0.27,0.5,0.32,0.27,0.5,0.44,0.5,0.44,0.44,0.55,0.5,0.27,0.32,0.5,0.38,0.55,0.27,0.32,0.5,0.5,0.27,0.38,0.77,0.25,0.55,0.32,0.5,0.32,0.27,0.5,0.44,0.5,0.44,0.44,0.55,0.72,0.27,0.5,0.44,0.32,0.55,0.67,0.44,0.38,0.5,0.27,0.32" style="fill:rgb(19,20,19);font-family:PtgjlnAdvTT3713a231;font-size:8.47px;stroke:none;">distribution and influenza virus tropism. Influenza Other Respir</text>
   <text y="605.482" x="70.243,75.799,77.953,80.68,84.756,88.016,91.503,94.763,96.88050000000001,98.986,103.22,107.263,111.497,115.54,117.694,121.928,124.044,128.278,132.32" svgx:width="0.72,0.27,0.32,0.5,0.38,0.44,0.38,0.25,0.55,0.5,0.5,0.5,0.5,0.27,0.5,0.27,0.5,0.5,0.5" style="fill:rgb(19,20,19);font-family:PtgjlnAdvTT3713a231;font-size:8.47px;stroke:none;">Viruses. 2008;2:147</text>
   <text y="605.482" x="136.46" svgx:width="0.5" style="fill:rgb(19,20,19);font-family:CkgypfAdvTT3713a231;font-size:8.47px;stroke:none;">–</text>
   <text y="605.482" x="140.598,144.832,148.875" svgx:width="0.5,0.5,0.25" style="fill:rgb(19,20,19);font-family:PtgjlnAdvTT3713a231;font-size:8.47px;stroke:none;">54.</text>
   <text y="615.46" x="51.023,55.257,59.3,61.4175,70.072,77.566,81.07,85.304,88.383,91.11,93.202,96.903,99.042,103.277,105.732,111.812,117.751,119.86850000000001,122.343,127.899,130.186,132.718,136.419,138.7059,141.165,143.32,146.046,150.123,154.357,156.416,159.676,166.19789999999998,168.605,172.306,176.372,180.60700000000003,183.119,185.405,189.468,193.1948,195.647,199.881,203.414,205.569,209.803,213.845,218.08,221.612,225.847,229.323,232.583,234.709,237.9276,240.491,244.726,247.4364,249.845,252.132,256.195,258.803,261.09,265.153,268.724,272.959,276.491,280.2178,282.727,284.882" svgx:width="0.5,0.5,0.25,0.55,0.88,0.44,0.5,0.38,0.32,0.27,0.44,0.27,0.5,0.55,0.72,0.72,0.25,0.55,0.72,0.27,0.32,0.44,0.27,0.55,0.27,0.32,0.5,0.5,0.27,0.38,0.77,0.55,0.44,0.5,0.5,0.55,0.27,0.5,0.44,0.55,0.5,0.44,0.27,0.5,0.5,0.5,0.44,0.5,0.44,0.38,0.27,0.38,0.55,0.5,0.32,0.55,0.27,0.5,0.32,0.27,0.5,0.44,0.5,0.44,0.44,0.55,0.27,0.5" style="fill:rgb(19,20,19);font-family:PtgjlnAdvTT3713a231;font-size:8.47px;stroke:none;">10. Mansfield KG. Viral tropism and the pathogenesis of influenza in</text>
   <text y="625.438" x="70.072,72.358,76.421,80.1478,82.317,89.687,93.388,99.722,106.243,109.757,112.043,114.179,117.751,121.986,124.214,128.295,132.53,135.609,137.895,140.01250000000002,142.128,148.081,154.60289999999998,156.812,160.03060000000002,162.255,166.929,170.475,172.629,176.863,180.906,183.192,185.3095,187.425,191.66,195.702,199.936,203.979,206.133,210.368,214.41,218.644,220.76,224.994,229.037,233.271" svgx:width="0.27,0.5,0.44,0.55,0.88,0.44,0.77,0.77,0.44,0.27,0.27,0.44,0.5,0.55,0.5,0.5,0.38,0.27,0.25,0.55,0.72,0.77,0.55,0.38,0.55,0.55,0.44,0.27,0.5,0.5,0.27,0.25,0.55,0.5,0.5,0.5,0.5,0.27,0.5,0.5,0.5,0.27,0.5,0.5,0.5,0.5" style="fill:rgb(19,20,19);font-family:PtgjlnAdvTT3713a231;font-size:8.47px;stroke:none;">the Mammalian host. Am J Pathol. 2007;171:1089</text>
   <text y="625.438" x="237.315" svgx:width="0.5" style="fill:rgb(19,20,19);font-family:CkgypfAdvTT3713a231;font-size:8.47px;stroke:none;">–</text>
   <text y="625.438" x="241.453,245.688,249.73" svgx:width="0.5,0.5,0.25" style="fill:rgb(19,20,19);font-family:PtgjlnAdvTT3713a231;font-size:8.47px;stroke:none;">92.</text>
   <text y="63.84" x="306.14,309.994,314.228,316.3455,324.904,330.544,334.089,340.495,344.73,346.561,349.821,354.668,356.7855,358.636,364.276,367.764,371.998,375.531,377.8179,379.67,385.75,387.8675,389.591,395.231,399.285,403.52000000000004,405.351,411.431,417.37,419.4875,421.282,424.982,427.26890000000003,429.049,432.749,434.831,436.9485,438.8,443.914,447.928,454.008,457.565,460.2754,462.101,464.827,468.337,471.597,475.65,477.936,480.469,484.17,486.309,490.543,493.055,497.29,499.121,501.408,503.997,507.569,511.27,513.5568999999999,515.336,517.49,521.724,524.294,527.866,531.566,533.705,535.86,540.094" svgx:width="0.5,0.5,0.25,0.55,0.67,0.44,0.77,0.5,0.55,0.38,0.72,0.25,0.55,0.67,0.44,0.5,0.44,0.27,0.55,0.72,0.25,0.55,0.67,0.5,0.5,0.55,0.72,0.72,0.25,0.55,0.44,0.27,0.55,0.44,0.27,0.25,0.55,0.6,0.5,0.72,0.44,0.32,0.55,0.32,0.44,0.38,0.5,0.27,0.32,0.44,0.27,0.5,0.32,0.5,0.55,0.27,0.32,0.44,0.44,0.27,0.55,0.27,0.5,0.32,0.44,0.44,0.27,0.27,0.5,0.5" style="fill:rgb(19,20,19);font-family:PtgjlnAdvTT3713a231;font-size:8.47px;stroke:none;">11. Camp JV, Bagci U, Chu YK, et al. Lower respiratory tract infection</text>
   <text y="73.874" x="324.905,329.139,331.8494,334.826,337.113,341.176,344.9028,347.922,350.649,354.215,356.823,359.55,363.116,365.4029,368.445,372.679,376.914,379.841,384.075,388.118,392.352,396.587,399.57,405.65,409.718,415.671,419.906,422.985,427.219,430.695,434.929,439.028,442.6,449.121,451.274,455.0008,458.021,460.175,464.409,466.978,469.265,473.328,477.029,481.095,484.667,488.3938,491.47,497.56840000000005,499.974,504.208,506.323,508.932,513.166,516.3846000000001,519.419,521.574,524.301,526.45,530.684,534.727,538.427,540.962" svgx:width="0.5,0.32,0.55,0.27,0.5,0.44,0.55,0.32,0.44,0.32,0.32,0.44,0.27,0.55,0.5,0.5,0.55,0.5,0.5,0.5,0.5,0.55,0.72,0.5,0.72,0.5,0.55,0.5,0.44,0.5,0.5,0.44,0.77,0.27,0.44,0.55,0.27,0.5,0.32,0.27,0.5,0.44,0.5,0.44,0.44,0.55,0.72,0.55,0.5,0.27,0.32,0.5,0.38,0.55,0.27,0.32,0.27,0.5,0.5,0.44,0.32,0.38" style="fill:rgb(19,20,19);font-family:PtgjlnAdvTT3713a231;font-size:8.47px;stroke:none;">of the ferret by 2009 H1N1 pandemic influenza A virus triggers</text>
   <text y="83.853" x="324.905,329.139,331.311,335.545,339.645,343.345,346.606,348.716,352.417,354.5345,357.56,360.82,364.93,368.19,370.372,374.073,380.464,382.75,386.451,388.56850000000003,391.576,395.276,399.343,403.57800000000003,406.713,408.999,413.062,416.763,420.463,422.7499,425.761,428.488,432.054,435.754,438.347,442.581,444.753,447.039,453.427,457.127,461.25,463.5369,466.636,470.87,473.5804,476.671,480.905,484.438,488.672,490.844,493.571,497.805,501.843,506.077,508.249,510.535,513.691,515.8085,518.907,522.1256000000001,525.256,530.812,533.099,535.826,539.883,542.17" svgx:width="0.5,0.27,0.5,0.5,0.44,0.38,0.27,0.44,0.25,0.55,0.38,0.5,0.38,0.27,0.44,0.77,0.27,0.44,0.25,0.55,0.44,0.5,0.5,0.55,0.27,0.5,0.44,0.44,0.27,0.55,0.32,0.44,0.44,0.32,0.5,0.27,0.27,0.77,0.44,0.5,0.27,0.55,0.5,0.32,0.55,0.5,0.44,0.5,0.27,0.32,0.5,0.5,0.5,0.27,0.27,0.38,0.25,0.55,0.38,0.55,0.72,0.27,0.32,0.5,0.27,0.25" style="fill:rgb(19,20,19);font-family:PtgjlnAdvTT3713a231;font-size:8.47px;stroke:none;">biphasic, systemic, and local recruitment of neutrophils. J Virol.</text>
   <text y="93.831" x="324.905,329.139,333.182,337.416,341.459,343.745,347.808,352.042,354.158,358.239,362.473,366.516" svgx:width="0.5,0.5,0.5,0.5,0.27,0.5,0.5,0.27,0.5,0.5,0.5,0.5" style="fill:rgb(19,20,19);font-family:PtgjlnAdvTT3713a231;font-size:8.47px;stroke:none;">2015;89:8733</text>
   <text y="93.831" x="370.656" svgx:width="0.5" style="fill:rgb(19,20,19);font-family:CkgypfAdvTT3713a231;font-size:8.47px;stroke:none;">–</text>
   <text y="93.831" x="374.795,379.029,383.071" svgx:width="0.5,0.5,0.25" style="fill:rgb(19,20,19);font-family:PtgjlnAdvTT3713a231;font-size:8.47px;stroke:none;">48.</text>
   <text y="104.829" x="306.139,310.374,314.473,316.5905,325.301,331.382,334.939,337.666,341.9,344.01,348.245,351.38,356.054,358.1715,361.188,366.828,370.528,374.057,378.291,381.881,384.59139999999996,387.72,393.36,395.4775,398.492,404.132,406.316,410.55,414.649,418.3758,421.453,427.533,434.889,437.0065,440.105,445.744,449.856,454.09,456.262,460.496,464.595,468.296,471.0064,474.063,480.143,485.783,487.9005,490.901,493.628,497.862,500.425,502.712,506.831,510.532,514.655,518.356,522.0828,525.086,529.32,531.492,534.219,538.296,541.556" svgx:width="0.5,0.5,0.25,0.55,0.72,0.44,0.32,0.5,0.27,0.5,0.55,0.55,0.25,0.55,0.67,0.44,0.44,0.5,0.44,0.32,0.55,0.67,0.25,0.55,0.67,0.27,0.5,0.5,0.44,0.55,0.72,0.88,0.25,0.55,0.67,0.5,0.5,0.27,0.5,0.5,0.44,0.32,0.55,0.72,0.67,0.25,0.55,0.32,0.5,0.32,0.27,0.5,0.44,0.5,0.44,0.44,0.55,0.5,0.27,0.32,0.5,0.38,0.32" style="fill:rgb(19,20,19);font-family:PtgjlnAdvTT3713a231;font-size:8.47px;stroke:none;">12. Herold S, Becker C, Ridge KM, Budinger GR. Influenza virus-</text>
   <text y="114.807" x="325.301,327.588,331.651,335.885,339.871,343.571,347.127,351.362,354.157,356.443,360.506,364.74,368.975,371.675,373.961,378.024,380.179,384.413,386.982,391.216,393.5029,396.223,400.457,403.934,406.22,410.283,414.517,418.56,422.132,426.366,429.899,433.159,435.228,438.4466,441.35,444.922,449.156,453.391,456.091,458.377,464.765,468.846,471.133,473.269,476.969,480.468,482.755,484.89,488.972,493.206,496.4246,499.234,501.842,506.076,508.7864,511.536,513.823,516.356,520.056,523.555,525.842,532.172,535.873,539.94,542.226" svgx:width="0.27,0.5,0.5,0.5,0.44,0.44,0.5,0.55,0.27,0.5,0.5,0.5,0.55,0.27,0.5,0.27,0.5,0.32,0.5,0.27,0.55,0.5,0.44,0.27,0.5,0.5,0.5,0.44,0.5,0.44,0.38,0.27,0.38,0.55,0.44,0.5,0.5,0.55,0.27,0.77,0.5,0.27,0.27,0.44,0.44,0.27,0.27,0.5,0.5,0.38,0.55,0.32,0.5,0.32,0.55,0.27,0.32,0.44,0.44,0.27,0.77,0.44,0.5,0.27,0.25" style="fill:rgb(19,20,19);font-family:PtgjlnAdvTT3713a231;font-size:8.47px;stroke:none;">induced lung injury: pathogenesis and implications for treatment.</text>
   <text y="124.785" x="325.301,330.29,334.524,337.2344,339.361,345.001,348.546,351.664,355.898,358.013,360.72339999999997,362.945,366.205,368.3225,370.428,374.662,378.705,382.787,387.021,389.136,393.37,397.413,399.699,403.763,407.997,412.039" svgx:width="0.6,0.5,0.32,0.55,0.67,0.44,0.38,0.5,0.27,0.32,0.55,0.38,0.25,0.55,0.5,0.5,0.5,0.5,0.27,0.5,0.5,0.27,0.5,0.5,0.5,0.5" style="fill:rgb(19,20,19);font-family:PtgjlnAdvTT3713a231;font-size:8.47px;stroke:none;">Eur Respir J. 2015;45:1463</text>
   <text y="124.785" x="416.18" svgx:width="0.5" style="fill:rgb(19,20,19);font-family:CkgypfAdvTT3713a231;font-size:8.47px;stroke:none;">–</text>
   <text y="124.785" x="420.261,424.495,428.538" svgx:width="0.5,0.5,0.25" style="fill:rgb(19,20,19);font-family:PtgjlnAdvTT3713a231;font-size:8.47px;stroke:none;">78.</text>
   <text y="135.784" x="306.139,310.373,314.415,316.5325,325.187,332.784,334.938,339.172,341.741,345.442,351.776,355.477,358.012,361.713,363.795,368.029,371.7558,373.319,377.994,382.504,384.6215,386.303,390.838,394.539,398.605,402.839,406.316,412.836,416.35,420.58500000000004,422.304,429.673,431.7905,433.472,439.112,442.657,446.229,450.463,453.996,456.7064,458.418,465.788,467.9055,469.586,475.666,479.734,483.968,486.027,489.7538,491.412,496.087,498.2045,499.803,504.918,508.987,512.7138,514.316,518.017,522.083,524.37,526.449,530.683,534.216,538.45,540.565" svgx:width="0.5,0.5,0.25,0.55,0.94,0.27,0.5,0.32,0.44,0.77,0.44,0.32,0.44,0.27,0.5,0.44,0.55,0.55,0.55,0.25,0.55,0.55,0.44,0.5,0.5,0.44,0.77,0.44,0.5,0.55,0.88,0.25,0.55,0.67,0.44,0.44,0.5,0.44,0.32,0.55,0.88,0.25,0.55,0.72,0.5,0.5,0.27,0.44,0.55,0.55,0.25,0.55,0.6,0.5,0.44,0.55,0.44,0.5,0.27,0.27,0.5,0.44,0.5,0.27,0.44" style="fill:rgb(19,20,19);font-family:PtgjlnAdvTT3713a231;font-size:8.47px;stroke:none;">13. Wikramaratna PS, Sandeman M, Recker M, Gupta S. The antigenic</text>
   <text y="145.762" x="325.187,328.888,332.954,337.188,339.247,343.481,345.596,347.883,351.946,356.18100000000004,358.238,362.473,365.1834,367.196,369.35,373.584,376.154,378.44,382.446,386.147,390.213,393.914,397.413,399.6999,401.778,406.013,408.582,410.736,413.463,415.7499,417.766,422.0,424.7104,426.724,428.878,433.112,435.682,437.968,440.501,442.787,446.5138,448.495,453.03,457.264,459.38,461.666,465.729,468.94759999999997,471.058,475.821,478.429,482.13,486.196,489.4146,491.525,497.19989999999996,499.235,503.91,507.966,511.69280000000003,513.749,518.738,522.972,527.014,531.249,533.307,537.982,541.528" svgx:width="0.44,0.5,0.5,0.27,0.5,0.27,0.27,0.5,0.5,0.55,0.5,0.32,0.55,0.27,0.5,0.32,0.27,0.5,0.44,0.5,0.44,0.44,0.27,0.55,0.5,0.32,0.27,0.32,0.27,0.55,0.5,0.32,0.55,0.27,0.5,0.32,0.27,0.32,0.27,0.44,0.55,0.55,0.5,0.27,0.27,0.5,0.38,0.55,0.6,0.32,0.44,0.5,0.38,0.55,0.67,0.55,0.55,0.5,0.44,0.55,0.6,0.5,0.5,0.5,0.55,0.55,0.44,0.32" style="fill:rgb(19,20,19);font-family:PtgjlnAdvTT3713a231;font-size:8.47px;stroke:none;">evolution of influenza: drift or thrift? Philos Trans R Soc Lond Ser</text>
   <text y="155.797" x="325.187,330.8619,333.011,338.651,340.778,345.012,347.2989,349.395,354.07,357.559,359.846,361.9635,364.079,368.313,372.356,376.59,380.633,382.787,387.021,391.064,395.298,397.413,401.647,405.69,409.924,413.967,418.201,422.187,426.421,430.464" svgx:width="0.67,0.55,0.67,0.27,0.5,0.27,0.55,0.55,0.44,0.27,0.25,0.55,0.5,0.5,0.5,0.5,0.27,0.5,0.5,0.5,0.27,0.5,0.5,0.5,0.5,0.5,0.5,0.5,0.5,0.25" style="fill:rgb(19,20,19);font-family:PtgjlnAdvTT3713a231;font-size:8.47px;stroke:none;">B Biol Sci. 2013;368:20120200.</text>
   <text y="166.795" x="306.139,310.373,314.415,316.5325,325.187,330.403,333.974,340.055,343.612,345.766,349.49280000000005,351.832,356.764,358.8815,361.243,367.323,371.391,374.963,377.69,384.034,387.735,391.801,395.373,397.659,401.213,405.44800000000004,407.789,413.742,415.8595,418.221,423.861,427.915,434.436,438.46,440.746,442.882,446.583,450.082,452.368,454.504,458.586,462.82,466.0386,468.393,471.965,476.199,480.434,482.68,486.914,489.483,493.718,497.76,501.994,506.037,509.155,511.441,514.6596,516.979,521.213,523.9234,526.22,528.507,532.57,535.178,537.464,541.527" svgx:width="0.5,0.5,0.25,0.55,0.72,0.44,0.72,0.44,0.27,0.44,0.55,0.72,0.25,0.55,0.72,0.5,0.44,0.32,0.77,0.44,0.5,0.44,0.27,0.44,0.5,0.55,0.72,0.25,0.55,0.67,0.5,0.77,0.5,0.27,0.27,0.44,0.44,0.27,0.27,0.5,0.5,0.38,0.55,0.44,0.5,0.5,0.55,0.5,0.32,0.5,0.5,0.5,0.5,0.38,0.27,0.38,0.55,0.5,0.32,0.55,0.27,0.5,0.32,0.27,0.5,0.32" style="fill:rgb(19,20,19);font-family:PtgjlnAdvTT3713a231;font-size:8.47px;stroke:none;">14. Yewale V, Dharmapalan D. Complications and prognosis of influ-</text>
   <text y="176.773" x="325.187,328.888,332.954,336.526,340.227,342.3445,344.35,346.958,351.192,353.4789,355.462,361.101,364.646,368.88100000000003,370.939,373.547,375.66450000000003,377.742,381.443,385.509,387.796,389.875,394.109,396.224,398.3415,400.419,403.027,407.261,409.831,411.985,416.219,419.752,423.986,427.519,431.091,433.3779,435.456,441.096,445.151,451.557,455.791,457.906,461.607,463.689,467.41580000000005,469.472,474.147,478.203,481.904,485.403,487.689,490.222,494.456,500.97790000000003,502.977,505.68739999999997,507.797,510.405,513.1154,515.224,517.9344000000001,520.043,525.032,530.672,536.597,542.237" svgx:width="0.44,0.5,0.44,0.44,0.25,0.55,0.32,0.5,0.27,0.55,0.67,0.44,0.5,0.55,0.32,0.25,0.55,0.44,0.5,0.27,0.27,0.5,0.32,0.25,0.55,0.32,0.5,0.32,0.27,0.5,0.44,0.5,0.44,0.44,0.27,0.55,0.67,0.5,0.77,0.5,0.27,0.44,0.27,0.44,0.55,0.55,0.5,0.44,0.44,0.27,0.32,0.5,0.77,0.55,0.32,0.55,0.32,0.32,0.55,0.32,0.55,0.6,0.67,0.72,0.67,0.25" style="fill:rgb(19,20,19);font-family:PtgjlnAdvTT3713a231;font-size:8.47px;stroke:none;">enza. In: Rao I, editor. Influenza: Complete Spectrum - II - ECAB.</text>
   <text y="186.751" x="325.187,331.267,334.768,340.8664,343.045,349.125,352.682,354.837,359.071,361.186,363.4729,365.665,370.654,372.94,376.039,379.74,383.806,385.961,389.661,392.3714,394.521,400.474,404.175,407.674,409.96,412.096,416.331,418.502,423.177,426.666,428.953,432.506,436.74,440.216,443.917,447.02,449.3069,451.499,455.733,459.775,463.63,467.864,469.9815,472.077,476.311,478.4285,480.524" svgx:width="0.72,0.44,0.72,0.55,0.72,0.44,0.27,0.5,0.27,0.27,0.55,0.6,0.27,0.38,0.44,0.5,0.27,0.44,0.32,0.55,0.72,0.44,0.44,0.27,0.27,0.5,0.55,0.55,0.44,0.27,0.44,0.5,0.44,0.44,0.38,0.27,0.55,0.5,0.5,0.5,0.5,0.25,0.55,0.5,0.25,0.55,0.5" style="fill:rgb(19,20,19);font-family:PtgjlnAdvTT3713a231;font-size:8.47px;stroke:none;">New Delhi: Elsevier Health Sciences; 2011. p. 1</text>
   <text y="186.751" x="484.664" svgx:width="0.5" style="fill:rgb(19,20,19);font-family:CkgypfAdvTT3713a231;font-size:8.47px;stroke:none;">–</text>
   <text y="186.751" x="488.802,493.036,497.022" svgx:width="0.5,0.5,0.25" style="fill:rgb(19,20,19);font-family:PtgjlnAdvTT3713a231;font-size:8.47px;stroke:none;">20.</text>
   <text y="197.75" x="306.138,310.372,314.415,316.5325,325.186,330.288,333.989,338.055,342.289,345.766,348.4764,350.585,355.259,357.388,361.622,363.681,365.967,369.18559999999997,371.221,377.301,381.199,383.3165,385.394,389.628,393.104,397.339,399.454,403.688,407.164,409.8744,411.983,416.658,420.714,423.001,425.2879,427.291,431.656,433.7735,435.851,440.966,445.036,447.322,449.401,453.102,455.81239999999997,457.848,463.488,465.6055,467.599,470.859,474.856,477.407,480.134,483.643,486.37,492.714,496.415,500.481,503.6996,505.81,511.89,515.505,517.6225,519.7,524.374,527.864,532.098,536.141,538.427,540.563" svgx:width="0.5,0.5,0.25,0.55,0.72,0.44,0.5,0.5,0.44,0.32,0.55,0.55,0.27,0.5,0.27,0.27,0.38,0.55,0.72,0.55,0.25,0.55,0.5,0.44,0.5,0.55,0.5,0.44,0.32,0.55,0.55,0.5,0.27,0.27,0.55,0.6,0.25,0.55,0.6,0.5,0.27,0.27,0.44,0.32,0.55,0.67,0.25,0.55,0.38,0.5,0.32,0.32,0.44,0.32,0.77,0.44,0.5,0.38,0.55,0.72,0.55,0.25,0.55,0.55,0.44,0.5,0.5,0.27,0.27,0.44" style="fill:rgb(19,20,19);font-family:PtgjlnAdvTT3713a231;font-size:8.47px;stroke:none;">15. Vander Sluijs KF, van der Poll T, Lutter R, Juffermans NP, Schultz</text>
   <text y="207.728" x="325.186,332.68,335.731,337.8485,339.585,345.225,348.77,353.004,356.48,360.714,363.284,365.438,369.672,372.241,376.475,379.952,384.186,387.265,389.551,393.614,397.3408,399.0,401.727,405.236,409.47,411.585,415.286,421.166,423.4529,425.191,429.425,432.958,436.53,438.817,442.313,445.04,447.189,450.761,453.0479,454.786,459.02,463.063,466.763,470.773,477.293,481.374,485.608,487.667,491.3938,493.11,499.19,501.274,503.56,507.795,509.437,511.723,515.786,518.395,520.681,524.744,528.445,532.511,536.083,539.8098,541.526" svgx:width="0.88,0.38,0.25,0.55,0.67,0.44,0.5,0.44,0.5,0.32,0.27,0.5,0.32,0.5,0.44,0.5,0.38,0.27,0.5,0.44,0.55,0.32,0.44,0.5,0.27,0.44,0.72,0.27,0.55,0.5,0.44,0.44,0.27,0.44,0.32,0.27,0.44,0.27,0.55,0.5,0.5,0.44,0.5,0.77,0.5,0.5,0.27,0.44,0.55,0.72,0.27,0.27,0.5,0.55,0.27,0.5,0.32,0.27,0.5,0.44,0.5,0.44,0.44,0.55,0.32" style="fill:rgb(19,20,19);font-family:PtgjlnAdvTT3713a231;font-size:8.47px;stroke:none;">MJ. Bench-to-bedside review: bacterial pneumonia with influenza -</text>
   <text y="217.706" x="325.186,329.42,332.953,335.107,339.342,343.384,347.618,351.151,355.385,358.862,362.122,364.247,367.4656,369.69,373.39,377.457,381.692,383.863,387.435,389.721,391.857,396.091,398.207,401.778,405.479,407.7659,409.886,412.04,418.561,422.641,424.928,427.007,430.707,434.206,436.493,438.629,442.863,446.905,450.166,452.2835,454.332,459.972,462.552,464.838,467.1249,469.242,474.741,478.442,480.977,484.678,486.7955,488.914,493.148,497.191,501.425,505.468,507.622,511.856,515.899,518.185,522.248,526.483,530.525" svgx:width="0.5,0.44,0.27,0.5,0.5,0.5,0.44,0.5,0.44,0.38,0.27,0.38,0.55,0.44,0.5,0.5,0.55,0.44,0.27,0.27,0.5,0.27,0.44,0.44,0.27,0.55,0.27,0.77,0.5,0.27,0.27,0.44,0.44,0.27,0.27,0.5,0.5,0.38,0.25,0.55,0.67,0.32,0.27,0.27,0.55,0.67,0.44,0.32,0.44,0.25,0.55,0.5,0.5,0.5,0.5,0.27,0.5,0.5,0.27,0.5,0.5,0.5,0.25" style="fill:rgb(19,20,19);font-family:PtgjlnAdvTT3713a231;font-size:8.47px;stroke:none;">pathogenesis and clinical implications. Crit Care. 2010;14:219.</text>
   <text y="228.704" x="306.138,310.372,314.415,316.5325,325.186,330.826,334.881,340.961,344.68780000000004,346.446,352.526,359.825,361.9425,363.85,371.22,374.921,377.003,379.289,383.352,387.587,391.629,395.863,397.979,402.213,405.4316,407.22,412.152,418.232,420.34950000000003,422.13,424.857,428.933,432.505,435.232,438.345,442.579,446.814,448.55,454.63,456.7475,458.585,464.084,468.318,474.685,481.092,484.8188,486.704,490.39,492.5075,494.358,499.032,502.578,506.812,510.798,513.084,515.22,518.792,521.519,527.012,531.246,534.722,537.449,539.995" svgx:width="0.5,0.5,0.25,0.55,0.67,0.5,0.72,0.44,0.55,0.72,0.88,0.25,0.55,0.88,0.44,0.27,0.27,0.5,0.5,0.5,0.5,0.27,0.5,0.38,0.55,0.72,0.72,0.25,0.55,0.32,0.5,0.44,0.32,0.38,0.5,0.5,0.55,0.72,0.25,0.55,0.67,0.5,0.77,0.77,0.44,0.55,0.55,0.25,0.55,0.55,0.44,0.5,0.5,0.27,0.27,0.44,0.32,0.67,0.5,0.44,0.32,0.32,0.5" style="fill:rgb(19,20,19);font-family:PtgjlnAdvTT3713a231;font-size:8.47px;stroke:none;">16. Rowe HM, Meliopoulos VA, Iverson A, Bomme P, Schultz-Cherry</text>
   <text y="238.682" x="325.186,329.861,331.9785,334.483,340.123,344.178,347.438,350.924,355.159,357.784,361.045,368.103,370.2205,372.809,378.889,380.973,383.7,387.209,390.909,393.1959,395.713,397.999,402.062,404.348,407.845,410.572,414.081,417.781,419.921,422.075,426.309,430.352,433.57059999999996,436.248,442.201,444.488,446.623,450.858,453.427,455.713,459.776,462.384,464.671,468.734,472.434,476.501,480.073,483.7998,486.422,490.656,493.169,497.403,503.713,507.947,510.063,513.7898,516.355,520.59,524.122,527.694,529.981,533.534,536.142,538.429,541.982" svgx:width="0.55,0.25,0.55,0.67,0.5,0.38,0.44,0.5,0.55,0.38,0.94,0.25,0.55,0.72,0.27,0.32,0.44,0.44,0.27,0.55,0.27,0.5,0.27,0.44,0.32,0.44,0.44,0.27,0.27,0.5,0.5,0.38,0.55,0.72,0.27,0.27,0.5,0.55,0.27,0.5,0.32,0.27,0.5,0.44,0.5,0.44,0.44,0.55,0.5,0.32,0.5,0.77,0.5,0.27,0.44,0.55,0.5,0.44,0.44,0.27,0.44,0.32,0.27,0.44,0.27" style="fill:rgb(19,20,19);font-family:PtgjlnAdvTT3713a231;font-size:8.47px;stroke:none;">S, Rosch JW. Direct interactions with influenza promote bacterial</text>
   <text y="248.717" x="325.186,328.887,333.121,337.355,341.056,343.782,347.483,351.605,355.306,359.0328,362.206,366.441,370.675,373.401,375.688,379.922,384.15700000000004,387.321,390.048,393.749,397.009,401.243,403.53,406.144,409.844,412.131,416.365,419.091,423.326,426.496,428.783,433.017,435.743,439.444,443.145,445.431,447.717,451.838,456.072,459.332,461.4495,464.65,470.731,474.431,476.7179,479.901,487.395,489.681,493.382,496.109,500.343,504.577,506.773,511.007,513.293,515.4105,518.565,522.799,527.033,531.267,535.501,537.788,542.022" svgx:width="0.44,0.5,0.5,0.44,0.32,0.44,0.5,0.44,0.44,0.55,0.5,0.5,0.32,0.27,0.5,0.5,0.55,0.32,0.44,0.38,0.5,0.27,0.32,0.44,0.27,0.5,0.32,0.5,0.55,0.27,0.5,0.32,0.44,0.44,0.27,0.27,0.5,0.5,0.38,0.25,0.55,0.72,0.44,0.27,0.55,0.88,0.27,0.44,0.32,0.5,0.5,0.27,0.5,0.27,0.25,0.55,0.5,0.5,0.5,0.5,0.27,0.5,0.27" style="fill:rgb(19,20,19);font-family:PtgjlnAdvTT3713a231;font-size:8.47px;stroke:none;">adherence during respiratory infections. Nat Microbiol. 2019;4:</text>
   <text y="258.695" x="325.186,329.42,333.463,337.697" svgx:width="0.5,0.5,0.5,0.5" style="fill:rgb(19,20,19);font-family:PtgjlnAdvTT3713a231;font-size:8.47px;stroke:none;">1328</text>
   <text y="258.695" x="341.741" svgx:width="0.5" style="fill:rgb(19,20,19);font-family:CkgypfAdvTT3713a231;font-size:8.47px;stroke:none;">–</text>
   <text y="258.695" x="345.879,350.113,354.156" svgx:width="0.5,0.5,0.25" style="fill:rgb(19,20,19);font-family:PtgjlnAdvTT3713a231;font-size:8.47px;stroke:none;">36.</text>
   <text y="269.694" x="306.138,310.446,314.755,316.8725,325.697,333.191,337.036,341.344,345.045,348.77180000000004,352.173,358.253,360.3705,363.794,369.874,374.225,376.607,380.915,387.436,391.29,395.52500000000003,398.886,404.526,410.735,412.8525,416.234,421.904,424.285,427.012,430.862,433.1489,436.531,443.051,447.416,451.725,454.985,457.394,459.68,462.1,465.3186,468.733,471.114,475.349,478.711,482.412,486.762,489.048,491.468,495.776,498.503,502.353,506.661,508.7785,512.104,517.83,521.628,525.863,529.225,533.899,537.729" svgx:width="0.5,0.5,0.25,0.55,0.88,0.44,0.5,0.44,0.44,0.55,0.72,0.25,0.55,0.72,0.5,0.27,0.5,0.77,0.44,0.5,0.55,0.67,0.72,0.25,0.55,0.72,0.27,0.32,0.44,0.27,0.55,0.77,0.5,0.5,0.38,0.27,0.27,0.27,0.38,0.55,0.27,0.5,0.55,0.44,0.5,0.27,0.27,0.5,0.32,0.44,0.5,0.25,0.55,0.67,0.44,0.5,0.55,0.55,0.44,0.77" style="fill:rgb(19,20,19);font-family:PtgjlnAdvTT3713a231;font-size:8.47px;stroke:none;">17. Magee H, Goldman RD. Viral myositis in children. Can Fam</text>
   <text y="279.672" x="325.697,330.371,334.371,338.605,341.684,343.97,347.523,349.678,353.378,357.445,359.5625,361.753,365.988,370.03,374.264,378.307,380.461,384.695,388.738,391.025,395.088,399.322" svgx:width="0.55,0.5,0.5,0.38,0.27,0.44,0.27,0.44,0.5,0.25,0.55,0.5,0.5,0.5,0.5,0.27,0.5,0.5,0.27,0.5,0.5,0.5" style="fill:rgb(19,20,19);font-family:PtgjlnAdvTT3713a231;font-size:8.47px;stroke:none;">Physician. 2017;63:365</text>
   <text y="279.672" x="403.366" svgx:width="0.5" style="fill:rgb(19,20,19);font-family:CkgypfAdvTT3713a231;font-size:8.47px;stroke:none;">–</text>
   <text y="279.672" x="407.505,411.739" svgx:width="0.5,0.25" style="fill:rgb(19,20,19);font-family:PtgjlnAdvTT3713a231;font-size:8.47px;stroke:none;">8.</text>
   <text y="290.67" x="306.138,310.372,314.415,316.5325,325.186,330.288,333.989,340.323,344.557,346.672,350.39880000000005,352.852,357.526,362.376,364.4935,366.968,372.083,376.153,379.725,383.96000000000004,386.471,389.731,391.8485,394.238,399.227,401.513,405.748,408.185,411.302,413.4195,415.952,423.151,426.852,430.918,435.153,437.608,443.688,445.8055,448.209,453.849,455.976,459.237,465.104,468.805,472.0236,474.458,479.133,481.2505,483.643,489.723,493.224,499.304,501.444,505.016,507.302,509.5889,511.989,514.716,516.8335,519.246,524.885,528.94,531.548,534.275,537.841,542.075" svgx:width="0.5,0.5,0.25,0.55,0.72,0.44,0.77,0.5,0.27,0.44,0.55,0.55,0.72,0.25,0.55,0.6,0.5,0.44,0.5,0.55,0.38,0.25,0.55,0.6,0.27,0.5,0.55,0.38,0.25,0.55,0.94,0.44,0.5,0.5,0.55,0.72,0.25,0.55,0.67,0.27,0.38,0.72,0.44,0.38,0.55,0.55,0.25,0.55,0.72,0.44,0.72,0.27,0.44,0.27,0.27,0.55,0.32,0.25,0.55,0.67,0.5,0.32,0.32,0.44,0.5,0.27" style="fill:rgb(19,20,19);font-family:PtgjlnAdvTT3713a231;font-size:8.47px;stroke:none;">18. Vemula SV, Zhao J, Liu J, Wang X, Biswas S, Hewlett I. Current</text>
   <text y="300.649" x="325.186,328.887,332.953,337.187,339.7,343.934,347.467,351.039,355.273,358.806,362.02459999999996,364.815,367.423,371.657,374.3674,377.061,381.142,383.429,386.982,391.216,395.259,399.493,402.515,404.801,408.01959999999997,410.735,414.969,417.6794,420.316,422.602,426.665,429.392,431.485,435.719,439.252,443.486,446.962,450.6888,453.425,457.659,459.774,462.383,466.617,469.8356,472.531,474.817,478.824,481.55,485.116,488.688,490.975,493.11,497.344,501.33,504.54859999999996,507.339,509.626,513.861,516.524,520.758,524.801,531.207,534.908,538.974,542.234" svgx:width="0.44,0.5,0.5,0.32,0.5,0.44,0.44,0.5,0.44,0.38,0.55,0.32,0.5,0.32,0.55,0.5,0.27,0.44,0.5,0.5,0.5,0.38,0.27,0.38,0.55,0.5,0.32,0.55,0.27,0.5,0.32,0.27,0.5,0.44,0.5,0.44,0.44,0.55,0.5,0.27,0.32,0.5,0.38,0.55,0.27,0.5,0.32,0.44,0.44,0.27,0.27,0.5,0.5,0.38,0.55,0.27,0.5,0.55,0.5,0.5,0.77,0.44,0.5,0.38,0.25" style="fill:rgb(19,20,19);font-family:PtgjlnAdvTT3713a231;font-size:8.47px;stroke:none;">approaches for diagnosis of influenza virus infections in humans.</text>
   <text y="310.627" x="325.186,330.742,333.029,335.561,339.795,342.874,346.575,349.621,351.7385,353.93,358.164,362.207,366.441,370.483,372.77,376.833,378.987,383.221,387.264" svgx:width="0.72,0.27,0.32,0.5,0.38,0.44,0.38,0.25,0.55,0.5,0.5,0.5,0.5,0.27,0.5,0.27,0.5,0.5,0.25" style="fill:rgb(19,20,19);font-family:PtgjlnAdvTT3713a231;font-size:8.47px;stroke:none;">Viruses. 2016;8:96.</text>
   <text y="321.625" x="306.138,310.372,314.415,316.5325,325.186,331.266,334.767,339.001,343.044,346.744,350.97900000000004,352.681,356.65,358.7675,360.561,366.641,370.142,374.376,377.909,380.195,384.258,388.493,390.551,394.785,399.02000000000004,400.756,404.99,408.467,416.347,420.048,424.114,426.4,428.479,432.714,434.829,437.437,441.138,443.4249,445.147,448.848,452.914,456.486,460.72,462.836,466.0546,467.881,470.608,474.684,477.3944,479.22,481.374,485.608,488.178,490.464,494.527,498.099,502.333,505.866,509.5928,511.365,513.52,516.246,519.812,523.384,525.671,532.001,535.702,539.768,542.055" svgx:width="0.5,0.5,0.25,0.55,0.72,0.44,0.5,0.5,0.44,0.5,0.55,0.55,0.25,0.55,0.72,0.44,0.5,0.44,0.27,0.5,0.5,0.27,0.5,0.5,0.55,0.5,0.44,0.72,0.44,0.5,0.27,0.27,0.5,0.27,0.32,0.44,0.27,0.55,0.44,0.5,0.44,0.5,0.27,0.38,0.55,0.32,0.5,0.32,0.55,0.27,0.5,0.32,0.27,0.5,0.44,0.5,0.44,0.44,0.55,0.27,0.32,0.44,0.44,0.27,0.77,0.44,0.5,0.27,0.27" style="fill:rgb(19,20,19);font-family:PtgjlnAdvTT3713a231;font-size:8.47px;stroke:none;">19. Hayden F. Developing newantiviral agents for influenza treatment:</text>
   <text y="331.603" x="325.186,331.266,335.334,338.906,341.1929,343.385,347.619,351.662,355.362,358.5806,360.733,363.019,367.082,370.8088,372.979,375.587,379.821,381.937,386.171,388.683,392.4098,394.58,398.814,402.856,405.143,409.206,412.93280000000004,415.102,420.601,422.888,425.024,429.259,431.43,434.156,438.176,440.903,444.469,448.041,450.3279,452.52,458.6,460.74,463.858,465.9755,468.166,472.4,476.443,480.677,484.72,487.006,491.069,495.304,497.362,502.037" svgx:width="0.72,0.5,0.44,0.27,0.55,0.5,0.5,0.44,0.38,0.55,0.27,0.5,0.44,0.55,0.32,0.5,0.27,0.5,0.32,0.44,0.55,0.5,0.5,0.27,0.5,0.44,0.55,0.67,0.27,0.27,0.5,0.55,0.32,0.5,0.32,0.44,0.44,0.27,0.55,0.72,0.27,0.38,0.25,0.55,0.5,0.5,0.5,0.5,0.27,0.5,0.5,0.27,0.55,0.5" style="fill:rgb(19,20,19);font-family:PtgjlnAdvTT3713a231;font-size:8.47px;stroke:none;">what does the future hold? Clin Infect Dis. 2009;48:S3</text>
   <text y="331.603" x="506.093" svgx:width="0.5" style="fill:rgb(19,20,19);font-family:CkgypfAdvTT3713a231;font-size:8.47px;stroke:none;">–</text>
   <text y="331.603" x="510.231,514.466,518.508" svgx:width="0.5,0.5,0.25" style="fill:rgb(19,20,19);font-family:PtgjlnAdvTT3713a231;font-size:8.47px;stroke:none;">13.</text>
   <text y="342.602" x="306.138,310.372,314.415,316.5325,325.186,331.266,335.334,337.943,340.2299,342.421,348.375,354.014,356.1315,358.239,363.879,367.934,372.168,374.226,378.46,380.576,382.862,386.359,390.593,394.126,397.386,401.439,405.52,409.755,413.797,418.031,422.266,424.342,428.764,430.8815,433.016,438.656,442.71,446.945,449.116,455.197,458.244,460.36150000000004,462.553,466.254,468.5409,470.604,474.304,476.387,478.5045,480.695,486.775,490.843,492.998,495.284,499.347,501.634,504.166,507.867,510.1539,512.217,514.944,518.453,521.713,523.839,527.099,529.225,532.797,537.031,540.564" svgx:width="0.5,0.5,0.25,0.55,0.72,0.5,0.32,0.27,0.55,0.72,0.67,0.25,0.55,0.67,0.5,0.5,0.27,0.5,0.27,0.27,0.44,0.5,0.44,0.38,0.5,0.5,0.5,0.5,0.5,0.5,0.55,0.6,0.25,0.55,0.67,0.5,0.5,0.55,0.72,0.38,0.25,0.55,0.44,0.27,0.55,0.44,0.27,0.25,0.55,0.72,0.5,0.27,0.27,0.5,0.27,0.32,0.44,0.27,0.55,0.32,0.44,0.38,0.27,0.38,0.27,0.44,0.5,0.44,0.44" style="fill:rgb(19,20,19);font-family:PtgjlnAdvTT3713a231;font-size:8.47px;stroke:none;">20. Hurt AC, Chotpitayasunondh T, Cox NJ, et al. Antiviral resistance</text>
   <text y="352.637" x="325.186,329.42,333.463,336.19,338.282,342.516,346.75100000000003,348.94,351.227,355.29,359.01680000000005,361.299,365.533,369.576,373.81,378.045,380.234,382.52,386.583,389.191,391.478,395.541,399.113,403.347,406.88,410.6068,412.889,418.98740000000004,421.279,427.232,431.466,437.38,441.615,443.9,448.134,451.667,455.901,459.944,463.516,470.036,472.133,475.834,478.1209,480.353,484.587,488.63,492.864,494.979,497.134,500.86080000000004,503.143,507.377,510.91,514.482,516.768,518.904,523.138,525.2555,527.464,529.619,533.319,537.386,541.62" svgx:width="0.5,0.5,0.32,0.27,0.5,0.5,0.55,0.27,0.5,0.44,0.55,0.5,0.5,0.5,0.5,0.55,0.27,0.5,0.32,0.27,0.5,0.44,0.5,0.44,0.44,0.55,0.72,0.55,0.72,0.5,0.72,0.5,0.55,0.5,0.44,0.5,0.5,0.44,0.77,0.27,0.44,0.27,0.55,0.5,0.5,0.5,0.27,0.27,0.44,0.55,0.5,0.44,0.44,0.27,0.27,0.5,0.25,0.55,0.27,0.44,0.5,0.5,0.32" style="fill:rgb(19,20,19);font-family:PtgjlnAdvTT3713a231;font-size:8.47px;stroke:none;">during the 2009 influenza A H1N1 pandemic: public health, labo-</text>
   <text y="362.615" x="325.186,327.913,331.422,333.708,337.771,340.38,344.008,346.1255,348.033,351.734,355.8,360.035,361.923,365.623,367.706,369.992,374.055,376.342,379.838,383.539,385.8259,387.662,391.896,395.429,398.037,401.297,405.35,408.922,412.623,414.762,416.916,421.15,424.683,427.943,430.0605,431.883,436.871,440.572,444.638,448.339,451.838,454.1249,456.033,458.76,462.836,465.445,469.145,472.644,474.9309,476.896,482.849,485.136,488.235,490.3525,492.26,496.494,500.537,504.771,508.814,510.968,515.202,519.245,521.531,525.594,529.828" svgx:width="0.32,0.44,0.27,0.5,0.32,0.5,0.25,0.55,0.44,0.5,0.5,0.55,0.44,0.27,0.27,0.5,0.27,0.44,0.44,0.27,0.55,0.5,0.44,0.32,0.38,0.5,0.44,0.44,0.27,0.27,0.5,0.44,0.38,0.25,0.55,0.6,0.44,0.5,0.44,0.44,0.27,0.55,0.32,0.5,0.32,0.44,0.44,0.27,0.55,0.72,0.27,0.38,0.25,0.55,0.5,0.5,0.5,0.5,0.27,0.5,0.5,0.27,0.5,0.5,0.5" style="fill:rgb(19,20,19);font-family:PtgjlnAdvTT3713a231;font-size:8.47px;stroke:none;">ratory, and clinical perspectives. Lancet Infect Dis. 2012;12:240</text>
   <text y="362.615" x="533.872" svgx:width="0.5" style="fill:rgb(19,20,19);font-family:CkgypfAdvTT3713a231;font-size:8.47px;stroke:none;">–</text>
   <text y="362.615" x="538.011,542.245" svgx:width="0.5,0.25" style="fill:rgb(19,20,19);font-family:PtgjlnAdvTT3713a231;font-size:8.47px;stroke:none;">8.</text>
   <text y="373.613" x="306.137,310.371,314.47,316.58750000000003,325.299,330.939,337.019,342.476,344.5935,347.692,350.419,354.653,357.216,359.503,363.622,367.323,371.446,375.147,378.8738,381.877,387.957,392.082,394.369,396.504,400.738,402.91,405.637,409.203,411.4899,414.646,422.14,425.701,429.935,432.107,435.808,439.363,441.65,443.936,447.981,452.215,455.351,457.6379,460.793,465.467,469.581,476.101,482.506,486.207,488.799,493.034,496.112,498.839,503.073,505.7834,508.811,514.451,516.635,518.921,523.041,525.327,528.881,531.167,534.868,538.916,542.176" svgx:width="0.5,0.5,0.25,0.55,0.67,0.72,0.67,0.25,0.55,0.32,0.5,0.32,0.27,0.5,0.44,0.5,0.44,0.44,0.55,0.72,0.5,0.27,0.27,0.5,0.27,0.32,0.44,0.27,0.55,0.88,0.44,0.5,0.27,0.44,0.44,0.27,0.27,0.5,0.5,0.38,0.27,0.55,0.55,0.5,0.77,0.77,0.44,0.32,0.5,0.55,0.32,0.5,0.32,0.55,0.67,0.27,0.27,0.5,0.27,0.44,0.27,0.44,0.5,0.38,0.25" style="fill:rgb(19,20,19);font-family:PtgjlnAdvTT3713a231;font-size:8.47px;stroke:none;">21. CDC. Influenza Antiviral Medications: Summary for Clinicians.</text>
   <text y="383.591" x="325.299,330.911,335.277,339.125,341.558,343.992,347.84,352.222,354.716,358.44280000000003,361.916,365.771,368.204" svgx:width="0.72,0.5,0.44,0.27,0.27,0.44,0.5,0.27,0.44,0.55,0.44,0.27,0.27" style="fill:rgb(19,20,19);font-family:PtgjlnAdvTT3713a231;font-size:8.47px;stroke:none;">Available at:</text>
   <text y="383.591" x="374.054,378.438,380.875,383.311,387.695,391.105,393.541,395.978,398.414,404.644,410.874,416.6,418.867,422.718,427.102,430.952,433.219,437.603,441.987,446.371,448.807,451.684,454.12,458.504,460.941,465.325,468.201,472.585,475.462,479.312,482.722,486.133,488.569,492.953,497.337,501.187,503.624,507.034,509.47,513.321,517.705,520.141,522.577,526.961,529.397,532.232,536.082,538.518,541.929" svgx:width="0.5,0.27,0.27,0.5,0.38,0.27,0.27,0.27,0.72,0.72,0.72,0.25,0.44,0.5,0.44,0.25,0.5,0.5,0.5,0.27,0.32,0.27,0.5,0.27,0.5,0.32,0.5,0.32,0.44,0.38,0.38,0.27,0.5,0.5,0.44,0.27,0.38,0.27,0.44,0.5,0.27,0.27,0.5,0.27,0.32,0.44,0.27,0.38,0.27" style="fill:rgb(0,0,255);font-family:PtgjlnAdvTT3713a231;font-size:8.47px;stroke:none;">https://www.cdc.gov/flu/professionals/antivirals/</text>
   <text y="393.569" x="325.299,328.559,332.612,339.018,345.538,349.053,351.78,355.856,358.464,362.165,364.247,366.534,370.597,372.883,376.38,378.666,382.219,386.453,389.476,391.593,395.655,397.941" svgx:width="0.38,0.5,0.77,0.77,0.44,0.32,0.5,0.32,0.44,0.27,0.27,0.5,0.27,0.44,0.27,0.44,0.5,0.38,0.25,0.5,0.27,0.77" style="fill:rgb(0,0,255);font-family:PtgjlnAdvTT3713a231;font-size:8.47px;stroke:none;">summary-clinicians.htm</text>
   <text y="393.569" x="404.271,406.3885,408.58,414.66,418.161,421.861,425.361,428.621,431.71,435.411,439.646,441.745,445.979,450.022,452.308,456.543,458.639,464.592,468.293,472.01980000000003,474.116,478.35,482.393,486.627,490.67" svgx:width="0.25,0.55,0.72,0.44,0.44,0.44,0.38,0.38,0.44,0.5,0.55,0.5,0.5,0.27,0.5,0.55,0.72,0.44,0.44,0.55,0.5,0.5,0.5,0.5,0.25" style="fill:rgb(19,20,19);font-family:PtgjlnAdvTT3713a231;font-size:8.47px;stroke:none;">. Accessed 26th Dec 2019.</text>
   <text y="404.568" x="306.136,310.37,314.413,316.5305,325.184,332.679,334.765,338.025,342.078,344.365,348.6,350.866,356.946,360.56,362.6775,365.096,369.631,373.332,375.471,379.043,381.3299,383.749,391.118,396.758,398.8755,401.153,406.793,410.848,414.548,417.594,421.828,425.871,430.105,434.148,438.38300000000004,440.781,446.734,448.8515,451.27,454.842,457.1289,459.547,463.119,465.406,467.5235,469.809,474.484,478.54,481.8,485.287,488.987,493.054,495.34,497.419,501.653,503.768,506.055,508.134,510.42,514.655,516.978,521.212,523.9224,526.219,528.506,532.569,535.177,537.463,541.526" svgx:width="0.5,0.5,0.25,0.55,0.88,0.27,0.38,0.5,0.27,0.5,0.55,0.72,0.55,0.25,0.55,0.55,0.44,0.27,0.44,0.27,0.55,0.88,0.67,0.25,0.55,0.67,0.5,0.44,0.38,0.5,0.5,0.5,0.5,0.5,0.55,0.72,0.25,0.55,0.44,0.27,0.55,0.44,0.27,0.25,0.55,0.55,0.5,0.38,0.44,0.44,0.5,0.27,0.27,0.5,0.27,0.27,0.27,0.27,0.5,0.55,0.5,0.32,0.55,0.27,0.5,0.32,0.27,0.5,0.32" style="fill:rgb(19,20,19);font-family:PtgjlnAdvTT3713a231;font-size:8.47px;stroke:none;">22. Mishin VP, Patel MC, Chesnokov A, et al. Susceptibility of influ-</text>
   <text y="414.546" x="325.184,328.885,332.951,336.523,340.24980000000005,341.852,345.553,347.6705,349.165,354.805,356.9225,358.463,364.102,366.2195,367.76,371.332,375.566,379.801,381.31,389.02,393.254,395.37,397.978,402.212,405.291,408.991,412.20959999999997,413.795,416.081,420.31600000000003,421.845,426.079,429.556,431.842,435.905,440.139,443.615,447.85,449.965,452.176,454.2935,455.918,460.907,467.427,470.941,473.493,477.728,479.333,482.059,486.136,488.744,492.445,495.944,498.2309,499.855,505.935,508.075,511.193,513.3104999999999,514.935,519.169,523.212,527.446,531.489,533.775,537.838,542.072" svgx:width="0.44,0.5,0.44,0.44,0.55,0.44,0.25,0.55,0.67,0.25,0.55,0.67,0.25,0.55,0.44,0.5,0.5,0.55,0.72,0.5,0.27,0.32,0.5,0.38,0.44,0.38,0.55,0.27,0.5,0.55,0.5,0.44,0.27,0.5,0.5,0.44,0.5,0.27,0.32,0.25,0.55,0.6,0.77,0.44,0.32,0.5,0.55,0.32,0.5,0.32,0.44,0.44,0.27,0.55,0.72,0.27,0.38,0.25,0.55,0.5,0.5,0.5,0.5,0.27,0.5,0.5,0.27" style="fill:rgb(19,20,19);font-family:PtgjlnAdvTT3713a231;font-size:8.47px;stroke:none;">enza a, B, C, and Dviruses to baloxavir. Emerg Infect Dis. 2019;25:</text>
   <text y="424.581" x="325.184,329.418,333.461,337.695" svgx:width="0.5,0.5,0.5,0.5" style="fill:rgb(19,20,19);font-family:PtgjlnAdvTT3713a231;font-size:8.47px;stroke:none;">1969</text>
   <text y="424.581" x="341.739" svgx:width="0.5" style="fill:rgb(19,20,19);font-family:CkgypfAdvTT3713a231;font-size:8.47px;stroke:none;">–</text>
   <text y="424.581" x="345.877,350.111,354.154" svgx:width="0.5,0.5,0.25" style="fill:rgb(19,20,19);font-family:PtgjlnAdvTT3713a231;font-size:8.47px;stroke:none;">72.</text>
   <text y="435.522" x="306.136,310.673,315.21,317.3275,326.379,331.311,335.848,340.386,344.389,348.927,352.65380000000005,356.41,362.793,364.9105,368.69,375.073,379.61,383.614,387.177,391.715,394.0019,397.837,403.166,405.2835,409.063,414.481,418.959,423.497,428.034,431.064,435.068,439.071,441.661,444.25,448.788,453.023,456.838,461.317,465.342,469.879,472.909,476.913,483.737,486.326,490.864,493.453,497.99,501.994,505.558,509.2848,513.098,515.649,520.186,524.724,527.313,531.851,534.44,537.03,541.567" svgx:width="0.5,0.5,0.25,0.55,0.55,0.5,0.5,0.44,0.5,0.44,0.55,0.72,0.25,0.55,0.72,0.5,0.44,0.38,0.5,0.27,0.55,0.72,0.25,0.55,0.6,0.5,0.5,0.5,0.32,0.44,0.44,0.27,0.27,0.5,0.5,0.55,0.5,0.44,0.5,0.32,0.44,0.77,0.27,0.5,0.27,0.5,0.44,0.38,0.44,0.55,0.27,0.5,0.5,0.27,0.5,0.27,0.27,0.5,0.32" style="fill:rgb(19,20,19);font-family:PtgjlnAdvTT3713a231;font-size:8.47px;stroke:none;">23. Sugaya N, Ohashi Y. Long-acting neuraminidase inhibitor</text>
   <text y="445.557" x="326.375,328.661,332.215,336.449,338.564,342.798,346.331,352.852,355.005,359.239,361.354,364.0644,367.137,371.372,374.904,377.191,380.744,384.978,389.078,392.778,394.917,398.6438,401.664,404.391,409.884,414.558,417.14,421.374,425.417,429.651,433.751,436.46139999999997,439.534,443.768,447.301,450.027,453.14,457.374,460.5926,463.628,467.862,470.941,474.642,476.781,479.067,482.621,489.141,491.295,495.529,497.644,500.3544,503.427,507.128,510.34659999999997,513.405,515.692,518.281,521.982,525.537,527.824,534.155,537.855,541.922" svgx:width="0.27,0.44,0.5,0.27,0.5,0.44,0.77,0.27,0.5,0.27,0.32,0.55,0.5,0.44,0.27,0.44,0.5,0.5,0.44,0.27,0.44,0.55,0.32,0.67,0.55,0.32,0.5,0.5,0.5,0.5,0.32,0.55,0.5,0.44,0.32,0.38,0.5,0.38,0.55,0.5,0.38,0.44,0.27,0.27,0.44,0.77,0.27,0.5,0.27,0.32,0.55,0.44,0.38,0.55,0.27,0.32,0.44,0.44,0.27,0.77,0.44,0.5,0.27" style="fill:rgb(19,20,19);font-family:PtgjlnAdvTT3713a231;font-size:8.47px;stroke:none;">laninamivir octanoate (CS-8958) versus oseltamivir as treatment</text>
   <text y="455.535" x="326.375,329.102,333.336,336.0464,339.358,343.058,347.292,349.676,351.962,356.197,358.923,362.624,366.85900000000004,370.199,376.279,378.565,380.852,385.087,388.397,390.683,394.917,397.644,400.019,404.253,407.953,412.264,415.965,419.6918,422.922,427.157,429.443,432.17,436.404,439.6226,443.049,445.335,449.569,452.296,455.997,459.697,462.098,464.384,468.618,472.926,475.0435,478.312,484.392,488.626,490.913,493.279,499.799,502.086,505.786,508.513,512.838,517.073,520.321,526.401,530.635,534.336,538.57,540.957" svgx:width="0.32,0.5,0.32,0.55,0.44,0.5,0.27,0.27,0.5,0.32,0.44,0.5,0.55,0.72,0.27,0.27,0.5,0.55,0.27,0.5,0.32,0.27,0.5,0.44,0.5,0.44,0.44,0.55,0.5,0.27,0.32,0.5,0.38,0.55,0.27,0.5,0.32,0.44,0.44,0.27,0.27,0.5,0.5,0.25,0.55,0.72,0.5,0.27,0.27,0.77,0.27,0.44,0.32,0.5,0.5,0.55,0.72,0.5,0.44,0.5,0.27,0.38" style="fill:rgb(19,20,19);font-family:PtgjlnAdvTT3713a231;font-size:8.47px;stroke:none;">for children with influenza virus infection. Antimicrob Agents</text>
   <text y="465.513" x="326.375,332.015,336.069,339.641,346.162,350.243,352.397,356.631,360.164,362.375,364.4925,366.627,370.861,374.904,379.138,383.18,385.467,389.53,393.764,395.879,399.961,404.195,408.238" svgx:width="0.67,0.5,0.44,0.77,0.5,0.27,0.5,0.44,0.32,0.25,0.55,0.5,0.5,0.5,0.5,0.27,0.5,0.5,0.27,0.5,0.5,0.5,0.5" style="fill:rgb(19,20,19);font-family:PtgjlnAdvTT3713a231;font-size:8.47px;stroke:none;">Chemother. 2010;54:2575</text>
   <text y="465.513" x="412.378" svgx:width="0.5" style="fill:rgb(19,20,19);font-family:CkgypfAdvTT3713a231;font-size:8.47px;stroke:none;">–</text>
   <text y="465.513" x="416.516,420.75,424.793" svgx:width="0.5,0.5,0.25" style="fill:rgb(19,20,19);font-family:PtgjlnAdvTT3713a231;font-size:8.47px;stroke:none;">82.</text>
   <text y="476.512" x="306.136,310.37,314.413,316.5305,325.184,331.264,335.333,339.567,342.589,346.29,349.0004,351.943,358.023,360.14050000000003,363.055,367.729,371.786,376.02,380.062,383.763,386.298,389.999,394.23400000000004,397.127,403.207,405.3245,408.239,410.965,415.042,417.65,419.937,424.0,427.7,431.71,435.411,439.1378,442.028,446.263,449.795,453.496,456.995,459.281,463.345,466.916,470.177,472.4639,475.42,478.992,483.226,486.759,489.045,491.124,494.825,498.891,503.126,506.602,509.82059999999996,512.894,516.595,520.661,524.896,527.861,531.121,535.174,537.461,541.524" svgx:width="0.5,0.5,0.25,0.55,0.72,0.5,0.5,0.38,0.44,0.32,0.55,0.72,0.25,0.55,0.55,0.5,0.5,0.5,0.44,0.32,0.44,0.5,0.55,0.72,0.25,0.55,0.32,0.5,0.32,0.27,0.5,0.44,0.5,0.44,0.44,0.55,0.5,0.44,0.44,0.44,0.27,0.5,0.44,0.38,0.27,0.55,0.44,0.5,0.44,0.27,0.27,0.44,0.5,0.5,0.44,0.38,0.55,0.44,0.5,0.5,0.55,0.38,0.5,0.27,0.5,0.32" style="fill:rgb(19,20,19);font-family:PtgjlnAdvTT3713a231;font-size:8.47px;stroke:none;">24. Houser K, Subbarao K. Influenza vaccines: challenges and solu-</text>
   <text y="486.49" x="325.184,327.471,329.606,333.688,337.922,341.001,343.1185,345.31,350.95,354.494,356.649,358.9359,361.128,367.208,371.276,374.536,376.8229,378.929,386.299,388.586,392.139,394.747,398.981,403.024,406.724,408.8415,410.961,415.043,419.277,423.32,427.554,429.669,433.903,437.946,440.232,444.295,448.377" svgx:width="0.27,0.27,0.5,0.5,0.38,0.25,0.55,0.67,0.44,0.27,0.27,0.55,0.72,0.5,0.38,0.27,0.55,0.88,0.27,0.44,0.32,0.5,0.5,0.44,0.25,0.55,0.5,0.5,0.5,0.5,0.27,0.5,0.5,0.27,0.5,0.5,0.5" style="fill:rgb(19,20,19);font-family:PtgjlnAdvTT3713a231;font-size:8.47px;stroke:none;">tions. Cell Host Microbe. 2015;17:295</text>
   <text y="486.49" x="452.516" svgx:width="0.5" style="fill:rgb(19,20,19);font-family:CkgypfAdvTT3713a231;font-size:8.47px;stroke:none;">–</text>
   <text y="486.49" x="456.655,460.889,464.932,469.166" svgx:width="0.5,0.5,0.5,0.25" style="fill:rgb(19,20,19);font-family:PtgjlnAdvTT3713a231;font-size:8.47px;stroke:none;">300.</text>
   <text y="497.489" x="306.135,310.369,314.412,316.5295,325.183,329.946,333.748,338.084,340.472,342.86,347.095,351.137,357.319,363.5,365.6175,369.623,375.805,378.193,381.021,384.823,389.159,392.961,397.297,401.633,405.435,409.771,416.29290000000003,420.315,426.497,432.679,434.7965,438.801,444.543,448.878,452.24,455.4586,459.497,464.713,472.309,474.42650000000003,478.432,483.137,487.473,493.655,497.457,500.285,504.621,507.83959999999996,511.878,515.6048,519.588,523.897,528.232,530.62,534.956,538.758,541.485" svgx:width="0.5,0.5,0.25,0.55,0.55,0.44,0.5,0.27,0.27,0.5,0.55,0.72,0.72,0.25,0.55,0.72,0.27,0.32,0.44,0.5,0.44,0.5,0.5,0.44,0.5,0.77,0.55,0.72,0.72,0.25,0.55,0.67,0.5,0.38,0.38,0.55,0.6,0.88,0.25,0.55,0.6,0.5,0.72,0.44,0.32,0.5,0.38,0.55,0.44,0.55,0.5,0.5,0.27,0.5,0.44,0.32,0.32" style="fill:rgb(19,20,19);font-family:PtgjlnAdvTT3713a231;font-size:8.47px;stroke:none;">25. Sautto GA, Kirchenbaum GA, Ross TM. Towards a univer-</text>
   <text y="507.467" x="325.183,328.699,332.654,334.9409,340.024,342.575,347.064,350.046,352.587,357.076,361.032,365.521,369.476,373.2028,378.264,382.753,386.708,390.664,394.619,397.161,401.65,405.605,407.8919,412.975,417.464,420.005,422.896,425.844,429.8,432.781,436.737,441.226,443.5129,448.539,452.507,456.996,461.485,464.467,468.956,472.911,476.867,481.356,485.311,488.52959999999996,493.645,496.626,501.115,503.8254,508.939,513.428,517.917,521.6438,526.705,531.194,535.683,539.638,542.18" svgx:width="0.38,0.44,0.27,0.55,0.27,0.5,0.32,0.27,0.5,0.44,0.5,0.44,0.44,0.55,0.5,0.44,0.44,0.44,0.27,0.5,0.44,0.27,0.55,0.5,0.27,0.32,0.32,0.44,0.32,0.44,0.5,0.27,0.55,0.44,0.5,0.5,0.32,0.5,0.44,0.44,0.5,0.44,0.38,0.55,0.32,0.5,0.32,0.55,0.5,0.5,0.44,0.55,0.5,0.5,0.44,0.27,0.25" style="fill:rgb(19,20,19);font-family:PtgjlnAdvTT3713a231;font-size:8.47px;stroke:none;">sal influenza vaccine: different approaches for one goal.</text>
   <text y="517.501" x="325.183,330.91,333.348,336.158,340.476,342.7629,346.712,350.057,352.1745,356.066,360.431,364.749,369.115,373.433,375.803,380.168,384.477,386.847,391.212,395.53" svgx:width="0.72,0.27,0.32,0.5,0.27,0.55,0.38,0.25,0.55,0.5,0.5,0.5,0.5,0.27,0.5,0.5,0.27,0.5,0.5,0.25" style="fill:rgb(19,20,19);font-family:PtgjlnAdvTT3713a231;font-size:8.47px;stroke:none;">Virol J. 2018;15:17.</text>
   <text y="528.443" x="306.135,310.369,314.412,316.5295,325.183,331.264,335.332,338.904,343.138,345.4249,347.068,352.056,359.551,361.6685,363.282,368.922,372.41,375.136,379.213,382.331,384.617,388.171,390.325,394.56,396.278,402.358,408.24,410.3575,412.038,417.678,420.258,423.83,428.064,430.18,433.88,438.115,439.704,442.964,447.471,449.5885,451.27,454.97,457.25690000000003,458.867,462.438,464.725,466.84250000000003,468.447,474.087,476.214,478.501,482.564,484.718,488.419,491.918,494.2049,495.943,500.177,502.689,506.39,509.889,512.175,514.311,517.883,521.6098000000001,523.326,527.56,531.603,533.757,537.992,541.524" svgx:width="0.5,0.5,0.25,0.55,0.72,0.5,0.44,0.5,0.27,0.55,0.6,0.88,0.25,0.55,0.67,0.44,0.32,0.5,0.38,0.27,0.44,0.27,0.5,0.55,0.72,0.72,0.25,0.55,0.67,0.32,0.44,0.5,0.27,0.44,0.5,0.55,0.38,0.55,0.25,0.55,0.44,0.27,0.55,0.44,0.27,0.25,0.55,0.67,0.27,0.27,0.5,0.27,0.44,0.44,0.27,0.55,0.5,0.32,0.44,0.44,0.27,0.27,0.44,0.44,0.55,0.5,0.5,0.27,0.5,0.44,0.32" style="fill:rgb(19,20,19);font-family:PtgjlnAdvTT3713a231;font-size:8.47px;stroke:none;">26. Uyeki TM, Bernstein HH, Bradley JS, et al. Clinical practice guide-</text>
   <text y="538.478" x="325.183,327.47,329.606,333.687,337.388,340.60659999999996,342.134,346.368,350.603,352.056,354.21,358.444,362.17080000000004,363.621,366.229,370.463,373.032,376.604,380.305,382.444,384.598,388.832,392.875,396.0936,397.694,403.774,405.858,409.118,412.662,416.233,419.494,423.037,426.25559999999996,427.856,432.392,436.626,440.159,442.445,445.941,448.228,452.463,453.935,458.17,460.8804,462.326,468.406,474.742,478.442,480.978,483.264,486.817,490.389,492.6759,494.244,498.478,502.521,506.755,510.99,512.442,516.676,520.719,524.801,528.501,530.64,534.3668,535.856,540.09" svgx:width="0.27,0.27,0.5,0.44,0.38,0.55,0.5,0.5,0.55,0.27,0.5,0.44,0.55,0.32,0.5,0.32,0.44,0.44,0.27,0.27,0.5,0.5,0.38,0.55,0.72,0.27,0.38,0.44,0.44,0.38,0.44,0.38,0.55,0.55,0.5,0.44,0.27,0.44,0.27,0.5,0.55,0.5,0.32,0.55,0.72,0.77,0.44,0.32,0.27,0.44,0.44,0.27,0.55,0.5,0.5,0.5,0.5,0.55,0.5,0.5,0.5,0.44,0.27,0.44,0.55,0.5,0.5" style="fill:rgb(19,20,19);font-family:PtgjlnAdvTT3713a231;font-size:8.47px;stroke:none;">lines by the Infectious Diseases Society of America: 2018 update on</text>
   <text y="548.456" x="325.183,329.418,331.533,335.105,339.339,343.382,347.616,350.695,352.981,356.081,358.1985,360.446,362.6,365.327,368.893,372.465,374.751,381.082,384.783,388.849,391.003,393.1205,395.425,398.997,403.231,406.764,413.17,417.405,421.447,424.174,428.251,432.332,436.566,440.609,442.896,446.449,450.683,452.741,456.002,458.1195,460.282,463.982,468.049,472.284,474.512,476.798,480.861,484.121,486.247,488.401,490.687,494.75,497.037,499.116,503.35,507.393,511.093,513.3799,515.557,519.791,523.834,526.12,530.183,532.791,536.492,539.991" svgx:width="0.5,0.27,0.44,0.5,0.5,0.5,0.38,0.27,0.38,0.25,0.55,0.27,0.32,0.44,0.44,0.27,0.77,0.44,0.5,0.27,0.25,0.55,0.44,0.5,0.44,0.77,0.5,0.5,0.32,0.5,0.5,0.5,0.5,0.27,0.44,0.5,0.27,0.38,0.25,0.55,0.44,0.5,0.5,0.55,0.27,0.5,0.38,0.27,0.27,0.27,0.5,0.27,0.27,0.5,0.5,0.44,0.27,0.55,0.5,0.5,0.27,0.5,0.32,0.44,0.44,0.5" style="fill:rgb(19,20,19);font-family:PtgjlnAdvTT3713a231;font-size:8.47px;stroke:none;">diagnosis, treatment, chemoprophylaxis, and institutional outbreak</text>
   <text y="558.434" x="325.183,331.704,335.218,339.452,342.985,347.219,350.696,357.216,360.73,364.964,367.2509,368.894,373.128,375.8384,377.511,380.771,384.258,387.958,391.061,395.295,399.338,402.91,405.1969,406.934,409.221,413.284,415.892,418.179,422.242,425.942,430.009,433.58,437.281,439.3985,441.064,446.563,448.849,450.985,455.22,456.938,459.665,463.742,466.35,470.05,473.549,475.8359,477.574,483.655,485.794,488.912,491.0295,492.767,497.001,501.044,505.278,509.321,511.607,515.67,519.904,521.963,525.664" svgx:width="0.77,0.44,0.5,0.44,0.5,0.44,0.77,0.44,0.5,0.27,0.55,0.5,0.32,0.55,0.38,0.44,0.44,0.38,0.5,0.5,0.44,0.27,0.55,0.27,0.5,0.32,0.27,0.5,0.44,0.5,0.44,0.44,0.25,0.55,0.67,0.27,0.27,0.5,0.55,0.32,0.5,0.32,0.44,0.44,0.27,0.55,0.72,0.27,0.38,0.25,0.55,0.5,0.5,0.5,0.5,0.27,0.5,0.5,0.27,0.44,0.5" style="fill:rgb(19,20,19);font-family:PtgjlnAdvTT3713a231;font-size:8.47px;stroke:none;">management of seasonal influenza. Clin Infect Dis. 2019;68:e1</text>
   <text y="558.434" x="529.731" svgx:width="0.5" style="fill:rgb(19,20,19);font-family:CkgypfAdvTT3713a231;font-size:8.47px;stroke:none;">–</text>
   <text y="558.434" x="533.87,538.104,542.146" svgx:width="0.5,0.5,0.25" style="fill:rgb(19,20,19);font-family:PtgjlnAdvTT3713a231;font-size:8.47px;stroke:none;">47.</text>
   <text y="569.433" x="306.134,310.501,314.868,316.9855,325.867,333.935,340.148,346.361,348.4785,351.973,358.187,360.606,364.973,369.34,373.174,375.4609,378.957,381.848,386.215,389.074,391.494,395.861,399.694,404.061,407.895,411.6218,415.095,419.902,422.321,425.181,429.015,431.434,435.268,439.635,443.87,447.345,451.712,456.079,460.446,464.813,467.673,472.04,476.349,480.716,485.083,487.20050000000003,490.696,496.909,500.742,505.109,508.943,513.31,517.143,519.4299,522.926,530.353,534.72,537.58,539.999" svgx:width="0.5,0.5,0.25,0.55,0.94,0.72,0.72,0.25,0.55,0.72,0.27,0.5,0.5,0.44,0.27,0.55,0.32,0.5,0.32,0.27,0.5,0.44,0.5,0.44,0.44,0.55,0.55,0.27,0.32,0.44,0.27,0.44,0.5,0.5,0.55,0.5,0.5,0.5,0.5,0.32,0.5,0.5,0.5,0.5,0.25,0.55,0.72,0.44,0.5,0.44,0.5,0.44,0.27,0.55,0.94,0.5,0.32,0.27,0.5" style="fill:rgb(19,20,19);font-family:PtgjlnAdvTT3713a231;font-size:8.47px;stroke:none;">27. WHO. Global Influenza Strategy 2019-2030. Geneva: World</text>
   <text y="579.411" x="325.863,331.944,335.444,339.145,341.284,343.438,347.673,350.695,356.648,359.199,363.433,366.966,371.2,373.316,376.888,380.588,382.671,384.957,389.02,393.254,395.5409,398.431,402.665,406.708,410.942,414.984,417.1015,420.086,425.472,429.706,433.183,435.469,437.605,441.177,445.411,447.526,451.25280000000004,454.216,457.916,459.999" svgx:width="0.72,0.44,0.44,0.27,0.27,0.5,0.55,0.72,0.32,0.5,0.44,0.5,0.27,0.44,0.44,0.27,0.27,0.5,0.5,0.27,0.55,0.5,0.5,0.5,0.5,0.25,0.55,0.72,0.5,0.44,0.27,0.27,0.44,0.5,0.27,0.44,0.55,0.44,0.27,0.27" style="fill:rgb(19,20,19);font-family:PtgjlnAdvTT3713a231;font-size:8.47px;stroke:none;">Health Organization; 2019. Available at:</text>
   <text y="579.411" x="465.271,469.505,471.621,473.907,477.97,481.23,483.299,485.586,487.721,491.293,495.527,499.57,502.83,504.785,510.739,514.973,519.016,521.133,523.211,527.445,529.561,531.847,533.983,536.591,538.878,541.977" svgx:width="0.5,0.27,0.27,0.5,0.38,0.27,0.27,0.27,0.44,0.5,0.5,0.38,0.25,0.72,0.5,0.5,0.25,0.27,0.5,0.27,0.27,0.27,0.32,0.27,0.38,0.27" style="fill:rgb(0,0,255);font-family:PtgjlnAdvTT3713a231;font-size:8.47px;stroke:none;">https://apps.who.int/iris/</text>
   <text y="589.389" x="325.863,330.098,332.213,334.499,337.542,339.828,342.418,345.99,349.69,356.025,358.311,362.374,365.946,370.18,374.223,376.509,380.062,382.217,386.451,390.494,394.728,398.77,403.004,405.12,409.354,413.114,416.969,421.203,425.245,429.479,431.595,435.829,439.872,444.106,448.148,452.23,456.464,460.507,464.741,468.784,473.018,477.061,481.295,485.337,488.064,491.573,495.807,499.85,501.967,506.029,510.264,512.776,516.477,520.543,524.115,528.764" svgx:width="0.5,0.27,0.27,0.38,0.27,0.32,0.44,0.44,0.77,0.27,0.5,0.44,0.5,0.5,0.27,0.44,0.27,0.5,0.5,0.5,0.5,0.5,0.27,0.5,0.5,0.5,0.5,0.5,0.5,0.27,0.5,0.5,0.5,0.5,0.5,0.5,0.5,0.5,0.5,0.5,0.5,0.5,0.5,0.32,0.44,0.5,0.5,0.25,0.5,0.5,0.32,0.44,0.5,0.44,0.56,0.5" style="fill:rgb(0,0,255);font-family:PtgjlnAdvTT3713a231;font-size:8.47px;stroke:none;">bitstream/handle/10665/311184/9789241515320-eng.pdf?ua=1</text>
   <text y="589.389" x="532.906" svgx:width="0.25" style="fill:rgb(19,20,19);font-family:PtgjlnAdvTT3713a231;font-size:8.47px;stroke:none;">.</text>
   <text y="612.803" x="306.135,310.454,314.696,319.061,321.085,322.916,326.091,330.342,334.197" svgx:width="0.51,0.52,0.53,0.24,0.24,0.38,0.52,0.47,0.32" style="fill:rgb(19,20,19);font-family:HndnkhAdvTT577c760c;font-size:8.47px;stroke:none;">Publisher</text>
   <text y="612.803" x="336.806" svgx:width="0.22" style="fill:rgb(19,20,19);font-family:CqppksAdvTT577c760c;font-size:8.47px;stroke:none;">’</text>
   <text y="612.803" x="338.563,341.78159999999997,343.836,349.035,353.189,355.798" svgx:width="0.38,0.55,0.61,0.51,0.32,0.47" style="fill:rgb(19,20,19);font-family:HndnkhAdvTT577c760c;font-size:8.47px;stroke:none;">s Note</text>
   <text y="612.803" x="361.864,366.539,370.595,373.203,375.49,379.553,383.787,387.263,389.97339999999997,392.082,398.162,401.72,403.874,408.108,410.677,414.40380000000005,416.46,419.069,422.769,429.103,432.804,434.943,439.177,442.3956,444.41,448.645,452.178,456.259,458.546,461.135,464.707,466.9939,469.129,475.082,477.369,479.504,483.73900000000003,485.797,488.524,492.033,496.267,499.8,502.408,506.64300000000003,508.758,510.912,515.1469999999999,517.261,519.548,523.611,526.219,528.506,531.605,535.687,537.973,541.526" svgx:width="0.55,0.5,0.32,0.27,0.5,0.5,0.44,0.32,0.55,0.72,0.44,0.27,0.5,0.32,0.44,0.55,0.32,0.44,0.77,0.44,0.27,0.5,0.38,0.55,0.5,0.44,0.5,0.27,0.32,0.44,0.27,0.55,0.72,0.27,0.27,0.5,0.55,0.32,0.44,0.5,0.44,0.32,0.5,0.55,0.27,0.5,0.55,0.27,0.5,0.32,0.27,0.38,0.5,0.27,0.44,0.32" style="fill:rgb(19,20,19);font-family:PtgjlnAdvTT3713a231;font-size:8.47px;stroke:none;">Springer Nature remains neutral with regard to jurisdic-</text>
   <text y="622.781" x="306.135,308.422,310.5,314.735,318.777,322.478,324.7649,326.885,330.585,332.668,336.368,338.507,344.913,348.1316,350.356,352.642,356.877,358.973,363.207,367.25,371.484,373.6,375.754,379.014,383.067,386.768,391.003,393.102,399.508,403.209,407.275,410.49359999999996,412.717,416.418,420.485,424.72,426.891,429.177,433.24,436.358,438.645,440.78,442.935,447.169,449.284,451.57,455.633,459.868,463.344,465.6309,467.823,471.523,474.002,476.61,478.896,481.032,483.318,486.815,489.101,491.237,495.319,499.553,502.632" svgx:width="0.27,0.27,0.5,0.5,0.44,0.27,0.55,0.44,0.27,0.44,0.27,0.77,0.38,0.55,0.27,0.5,0.55,0.5,0.5,0.5,0.27,0.27,0.38,0.5,0.44,0.5,0.55,0.77,0.44,0.5,0.38,0.55,0.44,0.5,0.5,0.55,0.27,0.5,0.38,0.27,0.27,0.27,0.5,0.27,0.27,0.5,0.5,0.44,0.27,0.55,0.44,0.32,0.32,0.27,0.27,0.27,0.44,0.27,0.27,0.5,0.5,0.38,0.25" style="fill:rgb(19,20,19);font-family:PtgjlnAdvTT3713a231;font-size:8.47px;stroke:none;">tional claims in published maps and institutional affiliations.</text>
  </g>
  <g begin="text">
   <text y="39.855" x="51.024,52.87,56.92,61.115,62.961,66.501,70.736,72.907,75.7021,77.952,81.977,85.856,89.971,91.817,95.357,97.795" svgx:width="0.22,0.5,0.51,0.22,0.44,0.5,0.55,0.33,0.55,0.49,0.46,0.51,0.22,0.44,0.3,0.3" style="fill:rgb(19,20,19);font-family:VbcfhbAdvTTc488b0e6;font-size:8.47px;stroke:none;">Indian J Pediatr</text>
  </g>
 </g>
</svg>
