<?xml version="1.0" encoding="UTF-8"?>
<svg height="770.141" width="564.2677" xmlns="http://www.w3.org/2000/svg">
 <g id="page" xmlns:svgx="http://www.xml-cml.org/schema/svgx">
  <g begin="text">
   <text y="64.743" x="58.054,61.54,65.027,66.76950000000001,71.772,76.78,80.043,82.582,85.12,88.384,90.4053,93.484,97.333,99.0755,102.157,107.241,110.289,112.827,116.091,119.71539999999999,122.735,127.094,128.8365,131.919,135.769,138.816,141.355,144.619,148.245,150.567,154.054,157.7481,160.831,166.061,172.526,174.26850000000002,177.327,181.539,184.587,190.18,193.444,195.187,197.216,199.755,202.8218,205.842,212.306,214.04850000000002,217.123,222.13,225.394,229.02,231.998,235.701,238.749,244.342,247.389,250.3861,253.46,257.234,258.9765,262.021,265.069,267.0903,270.128,273.392,275.059,276.80150000000003,279.822,281.489,284.976,288.463,292.011,295.497" svgx:width="0.5,0.5,0.25,0.55,0.72,0.47,0.36,0.36,0.47,0.29,0.55,0.55,0.25,0.55,0.73,0.44,0.36,0.47,0.52,0.55,0.63,0.25,0.55,0.55,0.44,0.36,0.47,0.52,0.33,0.5,0.53,0.55,0.75,0.93,0.25,0.55,0.6,0.44,0.8,0.47,0.25,0.29,0.36,0.44,0.55,0.93,0.25,0.55,0.72,0.47,0.52,0.43,0.53,0.44,0.8,0.44,0.43,0.55,0.54,0.25,0.55,0.44,0.29,0.55,0.47,0.24,0.25,0.55,0.24,0.5,0.5,0.5,0.5,0.24" style="fill:rgb(0,0,0);font-family:AdvP49811;font-size:6.97px;stroke:none;">25. Carrat F, Vergu E, Ferguson NM, Lemaitre M, Cauchemez S, et al. (2008)</text>
   <text y="72.737" x="71.773,76.634,78.377,83.97,87.0368,89.687,91.353,93.097,96.8,99.847,102.1471,104.823,108.309,110.1909,112.872,114.616,118.319,120.202,123.249,126.227,128.257,130.0,133.487,137.1811,139.856,143.12,146.823,150.44740000000002,153.122,156.748,158.492,160.814,163.861,167.125,169.447,172.5138,175.174,176.917,180.6111,183.224,186.927,190.554,196.147,199.494,203.1881,205.787,207.531,211.234,213.117,214.857,218.484,221.532,225.235,228.213,231.477,233.2195,235.89,239.1659,241.786,244.324,247.372,250.566,252.309,255.357,260.0966,262.761,266.248,268.12989999999996,270.754,273.948,277.435,279.102,282.728,286.432,288.461,291.508,294.556" svgx:width="0.7,0.25,0.8,0.44,0.55,0.24,0.25,0.53,0.44,0.33,0.55,0.5,0.27,0.55,0.25,0.53,0.27,0.44,0.43,0.29,0.25,0.5,0.53,0.55,0.47,0.53,0.52,0.55,0.52,0.25,0.33,0.44,0.47,0.33,0.44,0.55,0.25,0.53,0.55,0.53,0.52,0.8,0.47,0.53,0.55,0.25,0.53,0.27,0.24,0.52,0.44,0.53,0.43,0.47,0.25,0.55,0.47,0.55,0.36,0.44,0.46,0.25,0.44,0.68,0.55,0.5,0.27,0.55,0.46,0.5,0.24,0.52,0.53,0.29,0.44,0.44,0.36" style="fill:rgb(0,0,0);font-family:AdvP49811;font-size:6.97px;stroke:none;">Time lines of infection and disease in human influenza: a review of volunteer</text>
   <text y="80.674" x="71.773,74.751,78.454,81.718,83.384,85.051,88.099,91.802,95.066,98.1328,100.514,102.836,104.866,108.492,112.119,113.862,116.91,119.232,120.9745,123.36,128.081,133.65699999999998,136.002,138.44150000000002,140.821,145.179,148.806,150.549,154.175,157.223,162.816,164.559,168.046,169.7188,172.113,175.6,179.087,182.573,184.31550000000001,186.625,190.112,193.599,197.086,200.573,204.06,207.547,211.033" svgx:width="0.43,0.53,0.47,0.24,0.24,0.44,0.53,0.47,0.44,0.55,0.33,0.29,0.52,0.52,0.25,0.44,0.33,0.25,0.55,0.68,0.8,0.55,0.35,0.55,0.63,0.52,0.25,0.52,0.44,0.8,0.25,0.5,0.24,0.55,0.5,0.5,0.5,0.25,0.55,0.5,0.5,0.5,0.5,0.5,0.5,0.5,0.25" style="fill:rgb(0,0,0);font-family:AdvP49811;font-size:6.97px;stroke:none;">challenge studies. Am J Epidemiol 167: 775–785.</text>
   <text y="88.667" x="58.053,61.54,65.027,66.76950000000001,71.772,76.131,79.757,84.479,87.815,90.353,93.98,96.2801,98.189,103.489,108.21,109.9525,111.851,118.315,121.579,125.2731,127.213,129.682,134.689,136.4315,138.325,142.607,145.145,148.409,152.112,155.7364,157.713,161.633,163.37550000000002,165.253,170.701,173.964,175.994,178.316,180.345,182.884,186.1599,188.1,190.568,194.488,196.2305,198.133,201.907,205.394,210.987,216.58,219.627,222.166,225.287,227.7962,229.709,235.157,236.89950000000002,238.837,241.885,243.9063,245.811,249.074,250.741,252.48350000000002,254.371,256.038,259.524,263.011,266.559,270.046,271.7188,273.589,276.057,279.76,283.463,286.727,288.394,290.137,293.84" svgx:width="0.5,0.5,0.25,0.55,0.63,0.52,0.68,0.47,0.36,0.52,0.33,0.55,0.76,0.68,0.25,0.55,0.93,0.47,0.53,0.55,0.35,0.72,0.25,0.55,0.61,0.36,0.47,0.53,0.52,0.55,0.56,0.25,0.55,0.78,0.47,0.29,0.33,0.29,0.36,0.47,0.55,0.35,0.56,0.25,0.55,0.54,0.5,0.8,0.8,0.44,0.36,0.44,0.36,0.55,0.78,0.25,0.55,0.44,0.29,0.55,0.47,0.24,0.25,0.55,0.24,0.5,0.5,0.5,0.5,0.24,0.55,0.35,0.53,0.53,0.47,0.24,0.25,0.53,0.47" style="fill:rgb(0,0,0);font-family:AdvP49811;font-size:6.97px;stroke:none;">26. Edwards DA, Man JC, Brand P, Katstra JP, Sommerer K, et al. (2004) Inhaling</text>
   <text y="96.661" x="71.773,73.802,77.287,79.653,85.246,86.99,89.019,90.763,94.026,97.29,99.32,102.3868,104.71,107.757,111.098,114.801,118.145,119.811,122.859,126.48339999999999,128.803,132.429,134.173,137.659,140.923,143.971,146.509,149.996,152.318,155.899,157.566,159.888,161.6305,163.949,167.869,170.407,173.894,176.8911,179.199,184.429,187.693,189.722,191.3948,193.768,198.489,201.467,204.731,208.3554,210.718,214.49,217.468,219.2105,221.545,226.91189999999997,229.255,233.0188,235.378,240.11759999999998,242.408,245.895,249.382,252.869,254.6115,256.977,260.464,263.951,267.438,270.925,274.411,277.898,281.385,284.872,288.359,291.846,295.333" svgx:width="0.29,0.5,0.55,0.8,0.25,0.29,0.25,0.47,0.47,0.29,0.44,0.55,0.44,0.48,0.53,0.47,0.24,0.44,0.52,0.55,0.52,0.25,0.5,0.47,0.44,0.36,0.5,0.33,0.5,0.24,0.33,0.25,0.55,0.56,0.36,0.5,0.43,0.55,0.75,0.47,0.29,0.24,0.55,0.68,0.43,0.47,0.52,0.55,0.54,0.43,0.25,0.55,0.77,0.55,0.54,0.55,0.68,0.55,0.5,0.5,0.5,0.25,0.55,0.5,0.5,0.5,0.5,0.5,0.5,0.5,0.5,0.5,0.5,0.5,0.25" style="fill:rgb(0,0,0);font-family:AdvP49811;font-size:6.97px;stroke:none;">to mitigate exhaled bioaerosols. Proc Natl Acad Sci U S A 101: 17383–17388.</text>
   <text y="104.598" x="58.053,61.54,65.027,66.76950000000001,71.772,75.622,78.886,82.512,84.255,87.519,91.21310000000001,94.618,98.537,100.27950000000001,103.631,110.096,113.074,118.374,121.489,124.683,126.426,128.455,130.4763,133.847,136.316,138.784,140.5265,143.881,149.181,152.228,157.821,161.085,164.349,168.04309999999998,171.431,178.036,183.629,185.3715,188.778,192.628,196.254,199.957,203.2329,206.579,211.663,217.395,219.13750000000002,222.508,227.515,231.002,235.724,237.39,239.134,242.837,246.1129,249.492,253.775,256.243,257.9855,261.341,264.389,266.4103,269.788,273.052,274.718,276.4605,279.822,281.488,284.975,288.462,292.01,295.497" svgx:width="0.5,0.5,0.25,0.55,0.55,0.47,0.52,0.25,0.47,0.53,0.55,0.56,0.25,0.55,0.93,0.43,0.76,0.44,0.46,0.25,0.29,0.29,0.55,0.35,0.35,0.25,0.55,0.76,0.44,0.8,0.47,0.47,0.53,0.55,0.95,0.8,0.25,0.55,0.55,0.52,0.53,0.47,0.55,0.73,0.82,0.25,0.55,0.72,0.5,0.68,0.24,0.25,0.53,0.47,0.55,0.61,0.35,0.25,0.55,0.44,0.29,0.55,0.47,0.24,0.25,0.55,0.24,0.5,0.5,0.5,0.5,0.24" style="fill:rgb(0,0,0);font-family:AdvP49811;font-size:6.97px;stroke:none;">27. Fabian P, McDevitt JJ, DeHaan WH, Fung RO, Cowling BJ, et al. (2008)</text>
   <text y="112.592" x="71.773,74.242,77.945,79.828,81.495,85.121,88.168,91.954,94.932,98.2079,100.401,103.595,105.338,107.876,111.503,113.8031,116.047,117.79,121.48410000000001,123.7,127.403,131.029,136.622,139.886,143.5801,145.808,148.856,152.196,155.899,159.163,160.83,163.877,167.50140000000002,169.788,173.414,175.953,179.0,182.264,184.293,187.996,189.73850000000002,191.953,195.216,198.9101,201.136,204.623,208.25,210.572,213.619,216.158,219.352,222.616,224.645,226.476,229.963,233.666,236.929,238.6018,240.818,243.14,245.17,248.796,252.422,255.616,257.3585,259.582,263.501,267.713,271.2,274.9638,277.212,282.945,286.648,289.7148,291.895,295.382" svgx:width="0.35,0.53,0.27,0.24,0.52,0.44,0.53,0.43,0.47,0.55,0.46,0.25,0.36,0.52,0.33,0.55,0.25,0.53,0.55,0.53,0.52,0.8,0.47,0.53,0.55,0.44,0.48,0.53,0.47,0.24,0.44,0.52,0.55,0.52,0.36,0.44,0.47,0.29,0.53,0.25,0.55,0.47,0.53,0.55,0.5,0.52,0.33,0.44,0.36,0.46,0.47,0.29,0.25,0.5,0.53,0.47,0.24,0.55,0.33,0.29,0.52,0.52,0.46,0.25,0.55,0.56,0.6,0.5,0.54,0.55,0.82,0.53,0.44,0.55,0.5,0.25" style="fill:rgb(0,0,0);font-family:AdvP49811;font-size:6.97px;stroke:none;">Influenza virus in human exhaled breath: an observational study. PLoS One 3:</text>
   <text y="120.529" x="71.773,74.821,78.308,81.794,85.281,88.768" svgx:width="0.44,0.5,0.5,0.5,0.5,0.25" style="fill:rgb(0,0,0);font-family:AdvP49811;font-size:6.97px;stroke:none;">e2691.</text>
   <text y="128.522" x="58.053,61.54,65.027,66.76950000000001,71.772,75.622,78.886,82.512,84.255,87.519,91.21310000000001,93.371,97.29,99.03250000000001,101.08,105.362,107.901,111.165,112.908,116.60210000000001,118.711,121.18,122.92250000000001,125.003,130.596,134.083,137.71,140.032,143.079,148.672,151.936,155.6301,157.769,162.128,166.849,168.5915,170.694,176.064,179.112,181.65,185.3441,187.417,189.886,191.6285,193.71,200.175,201.918,203.585,205.614,209.101,212.7951,214.912,220.212,225.6486,227.724,229.391,232.878,236.364,239.912,243.399,245.0718,247.112,252.844,255.383,257.126,260.39,262.133,265.8271,267.973,271.46,273.34189999999995,275.4,278.447,281.788,285.491,288.754,290.421,293.469" svgx:width="0.5,0.5,0.25,0.55,0.55,0.47,0.52,0.25,0.47,0.53,0.55,0.56,0.25,0.55,0.61,0.36,0.47,0.25,0.53,0.55,0.35,0.25,0.55,0.8,0.5,0.52,0.33,0.44,0.8,0.47,0.53,0.55,0.63,0.68,0.25,0.55,0.77,0.44,0.36,0.53,0.55,0.35,0.25,0.55,0.93,0.25,0.24,0.29,0.5,0.53,0.55,0.76,0.78,0.55,0.24,0.5,0.5,0.5,0.5,0.24,0.55,0.82,0.36,0.25,0.47,0.25,0.53,0.55,0.5,0.27,0.55,0.44,0.48,0.53,0.47,0.24,0.44,0.52" style="fill:rgb(0,0,0);font-family:AdvP49811;font-size:6.97px;stroke:none;">28. Fabian P, Brain J, Houseman EA, Gern J, Milton DK (2011) Origin of exhaled</text>
   <text y="136.516" x="71.773,75.399,77.938,80.985,84.249,86.279,89.9731,92.125,95.751,99.015,101.553,103.583,105.326,108.304,109.971,113.018,115.3181,117.521,119.404,121.943,125.429,131.005,133.111,136.814,139.862,143.202,144.868,146.898,150.601,153.8072,155.9,159.164,162.867,166.4914,168.599,172.302,175.928,181.521,184.785,188.4791,190.651,193.189,196.892,198.636,202.339,205.826,209.02,210.763,213.301,216.928,219.25,221.426,223.169,226.873,228.755,231.803,234.781,236.908,239.955,243.57940000000002,245.695,248.017,251.643,255.27,257.013,260.061,263.039,265.068,267.39,269.1325,271.261,273.70050000000003,275.854,280.576,283.623,286.162,289.649,291.971,295.458" svgx:width="0.52,0.36,0.44,0.47,0.29,0.53,0.55,0.52,0.47,0.36,0.29,0.25,0.43,0.24,0.44,0.33,0.55,0.27,0.36,0.5,0.8,0.55,0.53,0.44,0.47,0.24,0.29,0.53,0.46,0.55,0.47,0.53,0.52,0.55,0.53,0.52,0.8,0.47,0.53,0.55,0.36,0.53,0.25,0.53,0.5,0.46,0.25,0.36,0.52,0.33,0.31,0.25,0.53,0.27,0.44,0.43,0.29,0.44,0.52,0.55,0.33,0.52,0.52,0.25,0.44,0.43,0.29,0.33,0.25,0.55,0.35,0.55,0.68,0.44,0.36,0.5,0.33,0.5,0.24" style="fill:rgb(0,0,0);font-family:AdvP49811;font-size:6.97px;stroke:none;">breath particles from healthy and human rhinovirus-infected subjects. J Aerosol</text>
   <text y="144.452" x="71.773,78.238,81.285,84.90939999999999,87.249,91.169,94.795,96.462,102.03800000000001,104.426,109.727,112.266,115.892,119.16789999999999,121.547,126.847,129.895,131.562,133.305,136.5112,138.837,142.324,145.811,147.5535,149.891,153.378,156.865,160.352,163.839,167.326,170.813,174.3" svgx:width="0.93,0.44,0.52,0.55,0.56,0.52,0.24,0.8,0.55,0.76,0.36,0.52,0.47,0.55,0.76,0.44,0.24,0.25,0.46,0.55,0.5,0.5,0.25,0.55,0.5,0.5,0.5,0.5,0.5,0.5,0.5,0.25" style="fill:rgb(0,0,0);font-family:AdvP49811;font-size:6.97px;stroke:none;">Med Pulm Drug Deliv 24: 137–147.</text>
   <text y="152.446" x="58.053,61.54,65.027,66.76950000000001,71.772,76.494,78.16,83.753,86.076,88.105,90.643,93.994,97.697,101.3214,104.369,109.09,114.097,115.8395,118.938,123.219,126.483,129.677,132.7438,135.774,140.056,141.79850000000002,144.844,149.057,150.8,154.426,158.13,161.393,163.716,165.745,168.37,171.857,177.433,180.502,184.86,186.60250000000002,189.685,193.898,197.161,199.7,202.022,204.344,207.831,211.52509999999998,214.629,218.548,220.2905,223.359,227.641,230.179,233.227,236.853,240.48,243.527,246.066,249.3419,252.44,257.162,258.9045,261.965,265.012,267.0333,270.128,273.392,275.059,276.80150000000003,279.822,281.489,285.038,288.525,292.012,295.499" svgx:width="0.5,0.5,0.25,0.55,0.68,0.24,0.8,0.33,0.29,0.36,0.47,0.53,0.52,0.55,0.68,0.72,0.25,0.55,0.61,0.47,0.46,0.44,0.55,0.61,0.25,0.55,0.6,0.25,0.52,0.53,0.47,0.33,0.29,0.36,0.5,0.8,0.55,0.63,0.25,0.55,0.6,0.47,0.36,0.33,0.33,0.5,0.53,0.55,0.56,0.25,0.55,0.61,0.36,0.44,0.52,0.52,0.44,0.36,0.47,0.55,0.68,0.25,0.55,0.44,0.29,0.55,0.47,0.24,0.25,0.55,0.24,0.5,0.5,0.5,0.5,0.24" style="fill:rgb(0,0,0);font-family:AdvP49811;font-size:6.97px;stroke:none;">29. Almstrand AC, Bake B, Ljungstrom E, Larsson P, Bredberg A, et al. (2010)</text>
   <text y="160.383" x="71.773,76.132,78.015,79.898,82.945,85.923,87.9443,89.97,93.457,95.3389,97.34,100.603,102.347,104.885,109.607,112.87,116.0762,118.087,121.574,125.201,128.248,131.951,133.695,137.398,140.6739,142.69,146.177,149.87109999999998,151.818,155.444,157.982,161.469,165.096,168.722,171.7,173.812,175.556,179.043,182.7371,184.753,188.24,190.1219,192.066,195.114,198.454,202.157,205.421,207.088,210.135,213.7594,215.819,219.445,222.709,225.248,227.277,229.02,231.998,233.665,236.712,239.035,240.7775,242.803,245.2425,247.225,251.947,255.573,259.199,260.8718,262.871,266.79,270.494,273.755,276.077,277.821,281.308,282.9808,284.923,288.41,291.897,295.384" svgx:width="0.63,0.27,0.27,0.44,0.43,0.29,0.55,0.5,0.27,0.55,0.47,0.25,0.36,0.68,0.47,0.46,0.55,0.5,0.52,0.44,0.53,0.25,0.53,0.47,0.55,0.5,0.53,0.55,0.52,0.36,0.5,0.52,0.52,0.43,0.29,0.25,0.5,0.53,0.55,0.5,0.27,0.55,0.44,0.48,0.53,0.47,0.24,0.44,0.52,0.55,0.52,0.47,0.36,0.29,0.25,0.43,0.24,0.44,0.33,0.25,0.55,0.35,0.55,0.68,0.52,0.52,0.24,0.55,0.56,0.53,0.46,0.33,0.25,0.5,0.24,0.55,0.5,0.5,0.5,0.25" style="fill:rgb(0,0,0);font-family:AdvP49811;font-size:6.97px;stroke:none;">Effect of airway opening on production of exhaled particles. J Appl Physiol 108:</text>
   <text y="168.376" x="71.773,75.26,78.747,82.234,85.721,89.208,92.694,96.181" svgx:width="0.5,0.5,0.5,0.5,0.5,0.5,0.5,0.25" style="fill:rgb(0,0,0);font-family:AdvP49811;font-size:6.97px;stroke:none;">584–588.</text>
   <text y="176.313" x="58.053,61.54,65.027,66.76950000000001,71.772,74.241,77.728,81.431,85.134,87.456,90.943,94.6371,97.225,102.595,107.679,109.42150000000001,111.964,118.429,121.916,124.455,127.718,132.44,134.762,137.956,141.2319,143.824,148.036,149.7785,152.27,157.354,159.098,161.42,163.449,166.936,170.13,172.452,175.646,177.3885,179.991,184.419,189.72,191.4625,193.993,199.586,202.85,205.388,208.652,211.19,214.238,217.502,220.696,223.743,226.04309999999998,228.686,235.151,236.89350000000002,239.401,245.866,248.913,252.616,255.88,258.928,261.466,263.788,266.836,270.5301,273.13,278.577,280.3195,282.825,285.872,287.8933,290.478,293.741,295.408" svgx:width="0.5,0.5,0.25,0.55,0.35,0.5,0.53,0.53,0.33,0.5,0.53,0.55,0.77,0.73,0.25,0.55,0.93,0.5,0.36,0.47,0.68,0.33,0.46,0.47,0.55,0.6,0.25,0.55,0.73,0.25,0.33,0.29,0.5,0.46,0.33,0.46,0.25,0.55,0.63,0.76,0.25,0.55,0.8,0.47,0.36,0.47,0.36,0.44,0.47,0.46,0.44,0.33,0.55,0.93,0.25,0.55,0.93,0.44,0.53,0.47,0.44,0.36,0.33,0.44,0.53,0.55,0.78,0.25,0.55,0.44,0.29,0.55,0.47,0.24,0.25" style="fill:rgb(0,0,0);font-family:AdvP49811;font-size:6.97px;stroke:none;">30. Johnson GR, Morawska L, Ristovski ZD, Hargreaves M, Mengersen K, et al.</text>
   <text y="184.306" x="71.773,73.44,76.927,80.414,83.961,87.449,89.1218,91.332,97.797,101.284,104.91,108.174,109.841,111.584,113.614,116.8202,119.11,122.597,124.4789,126.706,130.409,134.036,139.629,142.893,146.5871,148.872,151.919,155.26,158.886,160.63,163.168,166.216,169.84040000000002,172.171,175.434,178.482,181.02,184.507,186.83,190.316,191.9888,194.222,196.545,198.288,201.266,204.3328,206.581,210.207,211.951,214.273,216.302,218.841,220.584,224.211,227.837,229.866,231.61,235.097,238.893,241.215,242.9575,245.186,247.654,251.141,254.768,257.306,261.009,264.346,266.0188,268.258,271.745,273.6269,275.854,280.576,283.624,286.162,289.649,291.971,295.458" svgx:width="0.24,0.5,0.5,0.5,0.5,0.24,0.55,0.93,0.5,0.52,0.47,0.24,0.25,0.29,0.46,0.55,0.5,0.27,0.55,0.53,0.52,0.8,0.47,0.53,0.55,0.44,0.48,0.52,0.25,0.36,0.44,0.52,0.55,0.47,0.44,0.36,0.5,0.33,0.5,0.24,0.55,0.33,0.25,0.43,0.44,0.55,0.52,0.25,0.33,0.29,0.36,0.25,0.52,0.52,0.29,0.25,0.5,0.53,0.33,0.25,0.55,0.35,0.5,0.52,0.36,0.53,0.47,0.24,0.55,0.5,0.27,0.55,0.68,0.44,0.36,0.5,0.33,0.5,0.24" style="fill:rgb(0,0,0);font-family:AdvP49811;font-size:6.97px;stroke:none;">(2011) Modality of human expired aerosol size distributions. Journal of Aerosol</text>
   <text y="192.3" x="71.773,75.546,78.524,80.267,83.315,87.018,89.996,93.0628,95.412,98.899,102.386,104.1285,106.466,109.953,113.44,116.927,120.414,123.901,127.388,130.875" svgx:width="0.54,0.43,0.25,0.44,0.53,0.43,0.44,0.55,0.5,0.5,0.25,0.55,0.5,0.5,0.5,0.5,0.5,0.5,0.5,0.25" style="fill:rgb(0,0,0);font-family:AdvP49811;font-size:6.97px;stroke:none;">Science 42: 839–851.</text>
   <text y="200.237" x="58.053,61.54,65.027,66.76950000000001,71.772,76.633,80.118,82.034,87.48,92.927,94.66950000000001,96.546,101.553,105.256,108.52,112.2141,114.12,119.567,125.16,126.9025,128.803,133.015,134.7575,136.626,139.095,145.699,147.44150000000002,149.325,154.186,156.508,159.772,163.475,166.7509,168.656,173.517,178.238,179.9805,181.864,186.725,189.047,192.1138,193.996,199.59,201.3325,203.18,206.228,208.2493,210.153,213.417,215.084,216.8265,218.714,220.381,223.867,227.354,230.841,234.328,236.0008,237.874,242.958,244.702,247.24,250.504,252.1768,254.087,255.754,259.241,262.504,266.1284,268.032,269.776,273.4701,275.346,278.972,282.236,284.265,286.009,289.056,292.759,294.789" svgx:width="0.5,0.5,0.25,0.55,0.7,0.5,0.55,0.78,0.78,0.25,0.55,0.72,0.53,0.47,0.53,0.55,0.78,0.8,0.25,0.55,0.6,0.25,0.55,0.35,0.95,0.25,0.55,0.7,0.33,0.47,0.53,0.47,0.55,0.7,0.68,0.25,0.55,0.7,0.33,0.44,0.55,0.8,0.25,0.55,0.44,0.29,0.55,0.47,0.24,0.25,0.55,0.24,0.5,0.5,0.5,0.5,0.24,0.55,0.73,0.25,0.36,0.47,0.24,0.55,0.24,0.5,0.47,0.52,0.55,0.25,0.53,0.55,0.52,0.47,0.29,0.25,0.44,0.53,0.29,0.33" style="fill:rgb(0,0,0);font-family:AdvP49811;font-size:6.97px;stroke:none;">31. To KK, Chan KH, Li IW, Tsang TY, Tse H, et al. (2010) Viral load in patients</text>
   <text y="208.231" x="71.773,73.517,77.22,79.103,82.15,85.128,87.157,90.205,93.82939999999999,96.206,100.927,102.67,104.7,108.39410000000001,110.775,114.401,117.665,121.368,124.994,128.042,133.635,135.378,138.37509999999997,140.763,146.356,149.843,155.073,158.55800000000002,160.887,164.374,167.861,171.348,174.83300000000003,177.157,178.9,182.603,184.486,186.227,189.853,192.901,196.604,199.582,202.8579,205.161,209.9006,212.248,215.442,217.185,219.724,223.35,225.672,227.4145,229.764,232.20350000000002,234.583,241.049,244.096,247.7204,250.06,255.144,256.888,259.426,262.913,264.5858,266.954,270.441,273.927,275.6695,278.008,281.495,284.982,288.469" svgx:width="0.25,0.53,0.27,0.44,0.43,0.29,0.44,0.52,0.55,0.68,0.25,0.29,0.53,0.55,0.52,0.47,0.53,0.52,0.44,0.8,0.25,0.43,0.55,0.8,0.5,0.75,0.5,0.55,0.5,0.5,0.5,0.5,0.55,0.25,0.53,0.27,0.24,0.52,0.44,0.53,0.43,0.47,0.55,0.68,0.55,0.46,0.25,0.36,0.52,0.33,0.25,0.55,0.35,0.55,0.93,0.44,0.52,0.55,0.73,0.25,0.36,0.5,0.24,0.55,0.5,0.5,0.25,0.55,0.5,0.5,0.5,0.25" style="fill:rgb(0,0,0);font-family:AdvP49811;font-size:6.97px;stroke:none;">infected with pandemic H1N1 2009 influenza A virus. J Med Virol 82: 1–7.</text>
   <text y="64.74" x="315.099,318.587,322.075,323.8175,328.82,333.033,334.7755,337.097,339.566,346.17,347.9125,350.306,355.9,359.527,363.23,366.5059,368.845,371.315,375.165,376.9075,379.277,384.139,387.624,389.936,395.383,400.83,402.5725,404.96,409.967,413.671,416.936,420.63009999999997,422.989,428.436,434.03,435.7725,438.126,444.731,448.219,451.923,455.1989,457.573,461.346,465.12,466.8625,469.195,472.244,474.2653,476.622,479.887,481.554,483.2965,485.637,487.305,490.854,494.342,497.829,501.317,502.9898,505.311,510.173,513.877,516.9437999999999,519.315,523.018,526.283,528.313,531.94,534.479,537.744,539.4168000000001,541.768,544.962,546.706,549.246,552.51" svgx:width="0.5,0.5,0.25,0.55,0.6,0.25,0.55,0.35,0.95,0.25,0.55,0.8,0.52,0.53,0.47,0.55,0.35,0.55,0.25,0.55,0.7,0.5,0.55,0.78,0.78,0.25,0.55,0.72,0.53,0.47,0.53,0.55,0.78,0.8,0.25,0.55,0.95,0.5,0.53,0.47,0.55,0.54,0.54,0.25,0.55,0.44,0.29,0.55,0.47,0.24,0.25,0.55,0.24,0.5,0.5,0.5,0.5,0.24,0.55,0.7,0.53,0.44,0.55,0.53,0.47,0.29,0.52,0.36,0.47,0.24,0.55,0.46,0.25,0.36,0.47,0.24" style="fill:rgb(0,0,0);font-family:AdvP49811;font-size:6.97px;stroke:none;">32. Li IW, Hung IF, To KK, Chan KH, Wong SS, et al. (2010) The natural viral</text>
   <text y="72.734" x="328.819,330.486,333.973,337.236,340.86039999999997,342.821,346.447,348.986,352.473,354.356,356.099,357.766,360.8328,362.775,366.262,368.1439,370.031,373.658,376.921,378.951,380.694,383.742,387.445,389.474,391.7741,393.784,398.505,400.249,402.278,405.9721,407.9,411.526,414.79,418.493,422.119,425.246,430.84,432.583,435.5801,437.492,440.979,444.465,447.952,451.437,453.365,455.108,458.811,460.694,462.361,465.987,469.035,472.738,475.716,478.9919,480.915,485.637,487.303,492.896,496.448,501.679,505.165,506.8378,508.75,512.014,515.717,519.3414,521.278,523.308,527.011,530.0777999999999,531.993,535.04,536.923,538.806,541.854,544.832,546.8533,548.829,552.316" svgx:width="0.24,0.5,0.47,0.52,0.55,0.52,0.36,0.5,0.27,0.25,0.24,0.44,0.55,0.5,0.27,0.55,0.52,0.47,0.29,0.25,0.44,0.53,0.29,0.33,0.55,0.68,0.25,0.29,0.53,0.55,0.52,0.47,0.53,0.52,0.44,0.8,0.25,0.43,0.55,0.5,0.5,0.5,0.5,0.55,0.25,0.53,0.27,0.24,0.52,0.44,0.53,0.43,0.47,0.55,0.68,0.24,0.8,0.5,0.75,0.5,0.24,0.55,0.47,0.53,0.52,0.55,0.29,0.53,0.44,0.55,0.44,0.27,0.27,0.44,0.43,0.29,0.55,0.5,0.27" style="fill:rgb(0,0,0);font-family:AdvP49811;font-size:6.97px;stroke:none;">load profile of patients with pandemic 2009 influenza A(H1N1) and the effect of</text>
   <text y="80.671" x="328.819,332.306,334.628,337.676,339.342,341.372,344.636,350.304,352.047,355.241,356.985,359.49420000000003,361.868,363.898,366.436,369.484,372.748,374.777,380.37,383.417,387.121,389.15,390.8925,393.274,398.281,401.984,405.031,407.354,409.3753,411.754,415.241,418.728,422.215,423.9575,426.267,429.754,433.24,436.727,440.214,443.701,447.188,450.756" svgx:width="0.5,0.33,0.44,0.24,0.29,0.47,0.8,0.25,0.46,0.25,0.36,0.55,0.29,0.36,0.44,0.47,0.29,0.8,0.44,0.53,0.29,0.25,0.55,0.72,0.53,0.44,0.33,0.29,0.55,0.5,0.5,0.5,0.25,0.55,0.5,0.5,0.5,0.5,0.5,0.5,0.5,0.25" style="fill:rgb(0,0,0);font-family:AdvP49811;font-size:6.97px;stroke:none;">oseltamivir treatment. Chest 137: 759–768.</text>
   <text y="88.664" x="315.099,318.586,322.073,323.8155,328.818,332.592,335.57,339.273,342.536,344.419,346.302,349.35,351.85920000000004,355.066,358.915,363.127,364.8695,367.991,371.764,375.251,378.365,380.904,384.167,387.215,388.88779999999997,392.027,398.492,402.851,404.5935,407.73,411.503,413.533,416.071,419.335,422.961,426.587,429.6538,432.786,438.087,443.1054,446.279,447.946,451.433,454.92,458.407,461.894,463.5668,466.688,470.46,474.087,476.625,479.896,481.639,484.833,488.097,489.7698,492.878,496.365,498.2469,501.382,504.646,506.389,508.928,512.554,516.041,518.58,522.283,525.3498,528.536,530.28,533.983,535.866,537.532,541.159,544.206,547.909,550.887" svgx:width="0.5,0.5,0.25,0.55,0.54,0.43,0.53,0.47,0.27,0.27,0.44,0.36,0.55,0.55,0.6,0.25,0.55,0.54,0.5,0.44,0.36,0.47,0.44,0.24,0.55,0.93,0.63,0.25,0.55,0.54,0.29,0.36,0.47,0.52,0.52,0.44,0.55,0.76,0.72,0.55,0.24,0.5,0.5,0.5,0.5,0.24,0.55,0.54,0.52,0.36,0.46,0.25,0.46,0.47,0.24,0.55,0.5,0.27,0.55,0.47,0.25,0.36,0.52,0.5,0.36,0.53,0.44,0.55,0.25,0.53,0.27,0.24,0.52,0.44,0.53,0.43,0.47" style="fill:rgb(0,0,0);font-family:AdvP49811;font-size:6.97px;stroke:none;">33. Schaffer FL, Soergel ME, Straube DC (1976) Survival of airborne influenza</text>
   <text y="96.658" x="328.819,332.013,333.756,336.295,339.921,342.243,343.9855,346.789,349.837,351.719,353.602,356.65,359.628,361.657,363.95709999999997,366.743,370.23,372.1119,374.85,378.477,381.086,384.573,388.199,391.463,394.727,397.991,400.02,401.763,405.467,408.74289999999996,411.528,415.231,418.718,421.04,423.07,424.8125,427.571,430.11,433.157,434.824,438.088,440.117,441.861,445.055,448.1218,450.927,454.63,458.257,463.85,465.593,469.22,470.963,472.992,476.186,477.9285,480.689,483.952,487.656,491.2804,494.067,497.045,500.532,506.125,509.751,513.238,515.56,517.304,519.407,521.15,524.637,528.3311,531.085,534.572,536.4539,539.192,541.514,545.141,547.679,550.943" svgx:width="0.46,0.25,0.36,0.52,0.33,0.25,0.55,0.44,0.27,0.27,0.44,0.43,0.29,0.33,0.55,0.5,0.27,0.55,0.52,0.36,0.5,0.52,0.47,0.47,0.47,0.29,0.25,0.53,0.47,0.55,0.53,0.5,0.33,0.29,0.25,0.55,0.36,0.44,0.24,0.47,0.29,0.25,0.46,0.44,0.55,0.53,0.52,0.8,0.25,0.52,0.25,0.29,0.46,0.25,0.55,0.47,0.53,0.52,0.55,0.43,0.5,0.8,0.52,0.5,0.33,0.25,0.29,0.25,0.5,0.53,0.55,0.5,0.27,0.55,0.33,0.52,0.36,0.47,0.46" style="fill:rgb(0,0,0);font-family:AdvP49811;font-size:6.97px;stroke:none;">virus: effects of propagating host, relative humidity, and composition of spray</text>
   <text y="104.595" x="328.819,330.702,332.369,335.995,337.738,341.365,343.687,345.4295,347.809,352.531,355.069,358.047,361.7411,364.079,369.163,370.906,373.445,376.932,378.6048,380.972,384.459,387.946,389.68850000000003,392.027,395.514,399.0,402.487,405.974,409.461,412.948,416.435" svgx:width="0.27,0.24,0.52,0.25,0.52,0.33,0.25,0.55,0.68,0.36,0.43,0.53,0.55,0.73,0.25,0.36,0.5,0.24,0.55,0.5,0.5,0.25,0.55,0.5,0.5,0.5,0.5,0.5,0.5,0.5,0.25" style="fill:rgb(0,0,0);font-family:AdvP49811;font-size:6.97px;stroke:none;">fluids. Arch Virol 51: 263–273.</text>
   <text y="112.589" x="315.099,318.586,322.073,323.8155,328.818,333.679,337.382,340.4488,342.707,345.176,348.879,350.762,352.429,356.055,359.103,362.806,365.784,369.05989999999997,371.335,375.254,378.518,382.221,385.847,388.895,394.488,396.231,399.2281,401.493,405.413,407.951,410.999,414.625,417.889,420.427,423.475,427.101,430.915,433.962,436.285,438.5851,440.836,445.696,448.744,452.008,457.584,459.883,461.55,465.037,468.524,472.011,475.498,477.1708,479.384,484.468,487.955,491.581,493.611,496.731,499.0311,501.266,504.753,506.63489999999996,508.919,513.78,516.319,519.582,523.285,525.608,531.201,532.944,535.266,537.589,539.332,542.819,546.5131,548.828,552.315" svgx:width="0.5,0.5,0.25,0.55,0.7,0.53,0.44,0.55,0.35,0.53,0.27,0.24,0.52,0.44,0.53,0.43,0.47,0.55,0.56,0.47,0.53,0.52,0.44,0.8,0.25,0.43,0.55,0.56,0.36,0.44,0.52,0.47,0.36,0.44,0.52,0.53,0.44,0.33,0.33,0.55,0.7,0.44,0.47,0.8,0.55,0.24,0.5,0.5,0.5,0.5,0.24,0.55,0.73,0.5,0.52,0.29,0.44,0.33,0.55,0.5,0.27,0.55,0.7,0.36,0.47,0.53,0.33,0.8,0.25,0.33,0.33,0.25,0.5,0.53,0.55,0.5,0.27" style="fill:rgb(0,0,0);font-family:AdvP49811;font-size:6.97px;stroke:none;">34. The Influenza Pandemic Preparedness Team (2011) Routes of Transmission of</text>
   <text y="120.526" x="328.819,330.848,334.551,337.6178,339.987,342.456,346.159,348.042,349.708,353.335,356.382,360.085,363.063,366.33889999999997,368.728,373.812,375.555,378.094,381.72,384.0201,386.471,388.6317,391.007,394.78,397.758,399.501,402.549,406.252,408.281,410.025,411.908,413.651,416.6481,419.068,423.426,426.62,428.364,431.99,435.038,438.741,441.718,444.7848,447.128,451.41,454.674,456.996,460.0628,462.491,467.574,470.622,473.816,475.559,478.607,483.328,485.0705,487.433,492.155,495.349,498.613,500.356,502.023,505.287,508.913,510.676,513.724,515.4665,517.819,521.523,523.552,525.582,529.208,530.952,534.578,538.204,542.926,547.647,552.456" svgx:width="0.29,0.53,0.44,0.55,0.35,0.53,0.27,0.24,0.52,0.44,0.53,0.43,0.47,0.55,0.73,0.25,0.36,0.52,0.33,0.55,0.31,0.55,0.54,0.43,0.25,0.44,0.53,0.29,0.25,0.27,0.25,0.43,0.55,0.63,0.46,0.25,0.52,0.44,0.53,0.43,0.44,0.55,0.61,0.47,0.33,0.44,0.55,0.73,0.44,0.46,0.25,0.44,0.68,0.25,0.55,0.68,0.46,0.47,0.25,0.24,0.47,0.52,0.24,0.44,0.25,0.55,0.53,0.29,0.29,0.52,0.25,0.52,0.52,0.68,0.68,0.68,0.25" style="fill:rgb(0,0,0);font-family:AdvP49811;font-size:6.97px;stroke:none;">the Influenza Virus - Scientific Evidence Base Review. Available: http://www.</text>
   <text y="128.519" x="328.819,332.445,336.245,338.059,341.323,344.919,348.113,349.856,353.592,356.88,360.507,364.251,366.789,370.373,374.0,377.573,380.551,384.15,387.854,390.273,393.899,399.57,403.141,406.768,410.568,414.194,417.541,420.149,423.636,427.349,430.975,433.415,437.042,440.785,444.489,448.099,451.726,453.542,456.886,458.63,460.742,464.005,465.787,469.051,471.456,473.778,476.955,478.984,481.377,485.003,488.747,492.234,495.323,498.95,504.621,507.739,511.442,513.579,515.901,519.644,523.271,525.087,528.432,530.176,532.287,535.632,537.299,540.562,543.002,545.324,548.501,550.53" svgx:width="0.52,0.53,0.25,0.47,0.5,0.46,0.25,0.52,0.46,0.52,0.52,0.36,0.5,0.52,0.5,0.43,0.5,0.53,0.33,0.52,0.8,0.5,0.52,0.53,0.52,0.47,0.36,0.5,0.52,0.52,0.33,0.52,0.52,0.53,0.5,0.52,0.25,0.47,0.25,0.29,0.47,0.24,0.47,0.33,0.33,0.44,0.29,0.33,0.52,0.52,0.5,0.43,0.52,0.8,0.44,0.53,0.29,0.33,0.52,0.52,0.25,0.47,0.25,0.29,0.47,0.24,0.47,0.33,0.33,0.44,0.29,0.52" style="fill:rgb(0,0,0);font-family:AdvP49811;font-size:6.97px;stroke:none;">dh.gov.uk/prod_consum_dh/groups/dh_digitalassets/documents/digitalasset/</text>
   <text y="136.513" x="328.819,332.445,336.148,339.635,343.122,346.609,350.096,353.648,357.135,360.622,362.366,365.992,369.618,371.501,373.2435,375.587,380.308,383.286,386.264,389.311,391.633,393.956,397.072,400.6964,403.024,406.511,409.998,413.485,416.97,419.294,421.763,425.027,428.7211,431.086,434.572,438.059" svgx:width="0.52,0.53,0.5,0.5,0.5,0.5,0.5,0.5,0.5,0.25,0.52,0.52,0.27,0.25,0.55,0.68,0.43,0.43,0.44,0.33,0.33,0.44,0.52,0.55,0.5,0.5,0.5,0.5,0.55,0.35,0.47,0.53,0.55,0.5,0.5,0.25" style="fill:rgb(0,0,0);font-family:AdvP49811;font-size:6.97px;stroke:none;">dh_125332.pdf. Accessed 2013 Jan 16.</text>
   <text y="144.45" x="315.099,318.586,322.073,323.8155,328.818,332.592,336.079,339.705,342.753,345.291,348.994,352.481,354.148,359.72400000000005,363.74,367.512,372.5304,376.495,378.162,381.649,385.136,388.623,392.11,393.7828,397.754,401.673,404.211,407.698,411.325,414.812,417.134,420.181,423.80539999999996,427.799,429.542,433.245,435.275,438.322,440.861,444.564,447.828,449.857,451.6,455.087,458.79,462.152,463.8248,467.764,470.742,474.229,477.932,481.126,484.174,487.877,489.906,491.65,495.137,498.84,501.14009999999996,505.122,507.005,510.491,513.0002,517.027,520.653,523.917,526.455,528.485,530.228,533.206,534.873,537.9398,541.913,544.236,545.979,548.957,552.004" svgx:width="0.5,0.5,0.25,0.55,0.54,0.5,0.52,0.44,0.36,0.53,0.5,0.24,0.8,0.55,0.54,0.72,0.55,0.24,0.5,0.5,0.5,0.5,0.24,0.55,0.56,0.36,0.5,0.52,0.5,0.33,0.44,0.52,0.55,0.25,0.53,0.29,0.44,0.36,0.53,0.47,0.29,0.25,0.5,0.53,0.47,0.24,0.55,0.43,0.5,0.53,0.46,0.44,0.53,0.29,0.25,0.5,0.53,0.33,0.55,0.27,0.5,0.36,0.55,0.52,0.47,0.36,0.29,0.25,0.43,0.24,0.44,0.55,0.33,0.25,0.43,0.44,0.31" style="fill:rgb(0,0,0);font-family:AdvP49811;font-size:6.97px;stroke:none;">35. Soderholm SC (1989) Proposed international conventions for particle size-</text>
   <text y="152.443" x="328.819,331.141,334.189,335.855,338.903,341.881,343.91,345.654,348.848,351.9148,354.272,356.594,359.858,365.451,369.077,370.744,372.487,376.267,379.531,381.2735,383.58,388.301,392.004,395.6981,398.092,403.825,406.803,409.781,413.407,417.03139999999996,419.351,424.944,428.138,431.41389999999996,433.75,437.237,440.724,442.4665,444.804,448.291,451.778,455.265,458.752,462.239,465.726,469.294" svgx:width="0.33,0.44,0.24,0.44,0.43,0.29,0.25,0.46,0.44,0.55,0.33,0.47,0.8,0.52,0.24,0.25,0.53,0.47,0.25,0.55,0.68,0.53,0.53,0.55,0.82,0.43,0.43,0.52,0.52,0.55,0.8,0.46,0.47,0.55,0.5,0.5,0.25,0.55,0.5,0.5,0.5,0.5,0.5,0.5,0.5,0.25" style="fill:rgb(0,0,0);font-family:AdvP49811;font-size:6.97px;stroke:none;">selective sampling. Ann Occup Hyg 33: 301–320.</text>
   <text y="160.38" x="315.099,318.586,322.073,323.8155,328.818,334.412,337.676,339.342,341.0148,344.295,349.302,353.584,355.3265,358.638,363.938,367.425,371.051,374.315,375.981,379.245,381.5451,384.884,389.968,395.3349,398.603,401.072,403.61,405.3525,408.637,414.007,417.054,418.798,424.391,427.654,431.3481,434.657,437.125,443.59,445.3325,448.602,455.068,458.115,461.379,464.643,468.346,471.393,473.9022,477.288,483.752,487.65520000000004,490.95,492.617,496.104,499.591,503.077,506.564,508.2368,511.528,516.613,518.356,520.895,524.159,525.8318,529.102,531.425,535.128,538.175,541.802,545.428,547.171,550.875" svgx:width="0.5,0.5,0.25,0.55,0.8,0.47,0.24,0.24,0.55,0.72,0.61,0.25,0.55,0.76,0.5,0.52,0.47,0.24,0.47,0.33,0.55,0.73,0.77,0.55,0.35,0.36,0.25,0.55,0.77,0.44,0.25,0.8,0.47,0.53,0.55,0.35,0.93,0.25,0.55,0.93,0.44,0.47,0.47,0.53,0.44,0.36,0.55,0.93,0.56,0.55,0.24,0.5,0.5,0.5,0.5,0.24,0.55,0.73,0.25,0.36,0.47,0.24,0.55,0.33,0.53,0.44,0.52,0.52,0.25,0.53,0.47" style="fill:rgb(0,0,0);font-family:AdvP49811;font-size:6.97px;stroke:none;">36. Hall CB, Douglas RG Jr, Geiman JM, Meagher MP (1979) Viral shedding</text>
   <text y="168.373" x="328.819,332.445,335.709,337.738,339.768,342.815,345.354,349.057,351.3571,353.762,357.249,359.1309,361.472,364.449,368.153,369.896,371.563,375.189,377.728,380.775,384.46909999999997,386.868,391.589,393.333,395.362,399.0561,401.381,403.124,406.827,408.71,410.451,414.077,417.125,420.828,423.806,427.08189999999996,429.385,433.6367,436.017,437.761,441.464,443.347,446.394,449.372,451.402,453.145,456.709,460.412,462.1545,464.475,466.91450000000003,469.294,471.763,475.466,477.349,480.397,483.374,485.3953,487.718,493.018,494.762,497.0621,499.453,502.94,506.427,509.914,511.6565,514.022,517.51,520.997,524.483,527.97,531.457,534.944,538.431" svgx:width="0.52,0.47,0.29,0.29,0.44,0.36,0.53,0.33,0.55,0.5,0.27,0.55,0.43,0.53,0.25,0.24,0.52,0.36,0.44,0.53,0.55,0.68,0.25,0.29,0.53,0.55,0.25,0.53,0.27,0.24,0.52,0.44,0.53,0.43,0.47,0.55,0.61,0.55,0.25,0.53,0.27,0.44,0.43,0.29,0.25,0.5,0.53,0.25,0.55,0.35,0.55,0.35,0.53,0.27,0.44,0.43,0.29,0.55,0.76,0.25,0.33,0.55,0.5,0.5,0.5,0.25,0.55,0.5,0.5,0.5,0.5,0.5,0.5,0.5,0.25" style="fill:rgb(0,0,0);font-family:AdvP49811;font-size:6.97px;stroke:none;">patterns of children with influenza B infection. J Infect Dis 140: 610–613.</text>
   <text y="176.31" x="315.099,318.724,322.348,324.0905,329.208,334.206,337.391,341.155,344.995,346.876,349.17609999999996,354.076,358.133,362.12,363.8625,368.81,373.232,375.907,377.788,380.973,384.814,387.999,391.6931,396.616,401.984,403.7265,408.617,414.201,416.876,420.061,422.228,425.343,427.803,430.918,434.759,440.489,443.89,446.3992,451.374,457.95,462.3411,467.247,469.061,472.686,476.258,479.882,483.506,485.17879999999997,490.083,495.813,497.694,501.095,504.7891,509.769,511.65,515.448,517.469,520.654,523.769,525.935,527.816,531.148,533.029,535.195,538.4012,543.359,546.761,550.559" svgx:width="0.5,0.5,0.25,0.55,0.7,0.44,0.52,0.53,0.25,0.33,0.55,0.56,0.55,0.25,0.55,0.61,0.36,0.25,0.44,0.53,0.44,0.53,0.55,0.75,0.25,0.55,0.78,0.36,0.44,0.29,0.43,0.33,0.43,0.53,0.8,0.47,0.36,0.55,0.93,0.63,0.55,0.24,0.5,0.5,0.5,0.5,0.24,0.55,0.8,0.25,0.47,0.53,0.55,0.25,0.53,0.27,0.44,0.43,0.29,0.25,0.46,0.25,0.29,0.46,0.55,0.47,0.53,0.52" style="fill:rgb(0,0,0);font-family:AdvP49811;font-size:6.97px;stroke:none;">37. Teunis PF, Brienen N, Kretzschmar ME (2010) High infectivity and</text>
   <text y="184.303" x="329.216,332.842,336.106,338.135,341.914,345.401,348.665,351.778,355.481,357.225,360.202,361.946,363.975,367.18120000000005,371.903,375.39,377.27189999999996,381.938,383.681,387.384,389.267,391.008,394.634,397.682,401.385,404.443,407.71889999999996,412.38,417.1196,421.734,424.928,426.672,429.274,432.9,435.20009999999996,439.932,443.126,444.869,448.1449,452.801,456.064,459.112,461.65,465.215,467.538,471.024,472.6968,477.403,480.667,484.37,487.9944,492.71,496.336,498.874,502.361,505.988,507.732,510.78,512.8013,517.483,519.513,522.051,525.315,529.104,531.427,537.02,538.763,541.085,543.503,545.247,548.733,552.437" svgx:width="0.52,0.47,0.29,0.53,0.5,0.47,0.44,0.53,0.25,0.43,0.25,0.29,0.46,0.55,0.5,0.27,0.55,0.25,0.53,0.27,0.24,0.52,0.44,0.53,0.43,0.47,0.55,0.68,0.55,0.46,0.25,0.36,0.52,0.33,0.55,0.46,0.25,0.47,0.55,0.47,0.44,0.36,0.5,0.33,0.5,0.24,0.55,0.47,0.53,0.52,0.55,0.52,0.36,0.5,0.52,0.24,0.44,0.29,0.55,0.29,0.36,0.47,0.53,0.33,0.8,0.25,0.33,0.33,0.25,0.5,0.53,0.25" style="fill:rgb(0,0,0);font-family:AdvP49811;font-size:6.97px;stroke:none;">pathogenicity of influenza A virus via aerosol and droplet transmission.</text>
   <text y="192.297" x="329.216,333.574,337.201,338.944,342.571,345.618,351.211,352.955,355.932,358.2321,360.621,364.108,365.8505,368.217,371.704,375.191,378.678,382.165,385.652,389.139,392.626" svgx:width="0.63,0.52,0.25,0.52,0.44,0.8,0.25,0.43,0.33,0.55,0.5,0.25,0.55,0.5,0.5,0.5,0.5,0.5,0.5,0.5,0.25" style="fill:rgb(0,0,0);font-family:AdvP49811;font-size:6.97px;stroke:none;">Epidemics 2: 215–222.</text>
   <text y="200.234" x="315.099,318.586,322.073,323.8155,328.818,331.287,335.06,340.792,344.419,349.279,353.137,356.624,360.111,363.598,367.085,370.572,372.748,376.235,377.9775,379.894,383.381,386.868,390.355,393.842,395.509,399.867,401.5398,403.534,408.618,411.666,413.988,417.614,419.358,421.896,425.16,427.189,430.676,433.215,436.4212,438.398,442.024,444.562,448.049,450.079,453.126,456.104,458.133,459.877,463.071,466.1378,468.103,471.729,474.776,477.97,479.714,482.692,485.739,488.03909999999996,489.984,492.1447,494.122,499.715,503.342,508.935,512.198,515.8921,517.818,519.701,523.034,526.011,528.041,531.528,534.066,536.3661000000001,538.283,540.4437,542.421,546.341,549.604,552.143" svgx:width="0.5,0.5,0.25,0.55,0.35,0.54,0.82,0.52,0.7,0.54,0.5,0.5,0.5,0.5,0.5,0.31,0.5,0.25,0.55,0.5,0.5,0.5,0.5,0.24,0.63,0.24,0.55,0.73,0.44,0.33,0.52,0.25,0.36,0.47,0.29,0.5,0.36,0.46,0.55,0.52,0.36,0.5,0.29,0.44,0.43,0.29,0.25,0.46,0.44,0.55,0.52,0.44,0.46,0.25,0.43,0.44,0.33,0.55,0.31,0.55,0.8,0.52,0.8,0.47,0.53,0.55,0.27,0.47,0.43,0.29,0.5,0.36,0.33,0.55,0.31,0.55,0.56,0.47,0.36,0.29" style="fill:rgb(0,0,0);font-family:AdvP49811;font-size:6.97px;stroke:none;">38. ISO/TS16976-1: 2007(E) Respiratory protective devices - Human factors - Part</text>
   <text y="208.228" x="328.819,332.306,334.0485,336.359,342.824,345.94,347.969,351.233,354.859,358.346,360.013,361.756,364.75309999999996,367.085,369.623,372.887,374.916,377.964,380.2641,382.618,385.881,389.584,393.2084,395.599,398.138,401.185,403.508,407.134,408.877,411.416,414.68,416.709,420.196,422.734,425.9402,428.308,430.191,431.858,435.345,440.0846,442.424,444.963,448.226,450.256,453.303,455.626" svgx:width="0.5,0.25,0.55,0.93,0.44,0.29,0.47,0.52,0.5,0.24,0.25,0.43,0.55,0.36,0.47,0.29,0.44,0.33,0.55,0.47,0.53,0.52,0.55,0.36,0.44,0.33,0.52,0.25,0.36,0.47,0.29,0.5,0.36,0.46,0.55,0.27,0.24,0.5,0.68,0.55,0.36,0.47,0.29,0.44,0.33,0.25" style="fill:rgb(0,0,0);font-family:AdvP49811;font-size:6.97px;stroke:none;">1: Metabolic rates and respiratory flow rates.</text>
   <text y="35.887" x="400.932,402.837,407.237,409.556,411.381,415.781,419.766,424.165,427.569,431.3946,433.983,437.801,442.2,446.66319999999996,449.29,454.183,458.169,460.735,465.134,468.283,472.682,474.5151,477.125,482.266,486.251,490.65,494.635,497.202,501.019,503.674,505.499,509.898,514.3612,516.978,521.21,523.777,528.176,531.739,535.724,540.108,544.507,547.074,551.059" svgx:width="0.24,0.55,0.29,0.23,0.55,0.5,0.55,0.43,0.48,0.55,0.48,0.55,0.56,0.55,0.61,0.5,0.32,0.55,0.4,0.55,0.23,0.55,0.64,0.5,0.55,0.5,0.32,0.48,0.33,0.23,0.55,0.56,0.55,0.53,0.32,0.55,0.45,0.5,0.56,0.55,0.32,0.5,0.4" style="fill:rgb(0,0,0);font-family:AdvP403A40;font-size:7.97px;stroke:none;">Influenza and Aerosol Generating Procedures</text>
   <text y="760.141" x="58.053,62.285,66.015,71.49,75.39529999999999,78.008,83.483,88.712,92.6173,96.546,98.45880000000001,102.442,108.332,114.222,120.112,121.77,126.329,128.154,132.553,135.701,140.101,144.393,148.378,150.036,154.435,157.002,161.4652,302.056,306.12,310.1847,393.785,397.682,401.667,406.226,408.792,413.192,417.01,419.576,423.3219,425.872,429.937,434.001,438.066,442.1307,446.11,448.0228,451.95,456.429,460.829,462.654,467.054,473.693,477.678,481.599,485.6637,489.65,491.5628,495.49,497.395,500.543,503.691,508.091,512.076,516.069,520.1337,524.062,525.9748,529.958,533.944,538.008,542.073,546.138,550.203" svgx:width="0.53,0.47,0.69,0.49,0.55,0.69,0.66,0.49,0.55,0.24,0.55,0.74,0.74,0.74,0.21,0.57,0.23,0.55,0.4,0.55,0.55,0.5,0.21,0.55,0.32,0.56,0.55,0.51,0.51,0.55,0.49,0.5,0.57,0.32,0.55,0.48,0.32,0.47,0.55,0.51,0.51,0.51,0.51,0.55,0.24,0.55,0.56,0.55,0.23,0.55,0.83,0.5,0.55,0.51,0.55,0.24,0.55,0.24,0.4,0.4,0.55,0.5,0.55,0.51,0.55,0.24,0.55,0.5,0.51,0.51,0.51,0.51,0.51" style="fill:rgb(0,0,0);font-family:AdvP403A40;font-size:7.97px;stroke:none;">PLOS ONE | www.plosone.org 15 February 2013 | Volume 8 | Issue 2 | e56278</text>
  </g>
 </g>
</svg>
