<?xml version="1.0" encoding="UTF-8"?>
<svg height="773.0" width="4058.294" xmlns="http://www.w3.org/2000/svg">
 <g id="page" xmlns:svgx="http://www.xml-cml.org/schema/svgx">
  <g begin="text">
   <text y="733.286" x="48.0,52.448,56.896" svgx:width="0.56,0.56,0.56" style="fill:rgb(35,31,32);font-family:HelveticaNeue-Bold;font-size:8.0px;stroke:none;">918</text>
   <text y="733.302" x="414.812,419.607,423.366,427.125,430.884,434.776,436.981,438.927,443.463,447.614,451.114,454.873,458.765,462.524,466.283,469.783,471.729,473.283,477.175,479.121,484.175,488.067,491.826,495.326,497.531,499.477,505.574,509.333,513.484,515.038,518.797,520.351,524.243" svgx:width="0.69,0.54,0.54,0.54,0.56,0.31,0.28,0.65,0.59,0.5,0.54,0.56,0.54,0.54,0.5,0.28,0.22,0.56,0.28,0.72,0.56,0.54,0.5,0.31,0.28,0.87,0.54,0.59,0.22,0.54,0.22,0.56,0.54" style="fill:rgb(35,31,32);font-family:HelveticaNeue-Roman;font-size:7.0px;stroke:none;">Recent Advances in Chest Medicine</text>
   <text y="49.925" x="300.0,302.72,311.277,316.915,322.165,326.051,329.358,334.02,339.658,344.32,349.371,351.931,357.181,360.488,363.048,368.687,374.325,379.376,385.014,393.572,398.822,403.484,408.734,413.396,418.058,422.72,425.439,427.999,432.661,437.323,441.985,446.647,449.367,455.005,459.667,462.975,465.694,470.944,476.583,479.142,482.45,487.7,491.585,494.145,499.783,504.834,508.708,512.803,518.263,524.112,527.997" svgx:width="0.26,0.81,0.54,0.5,0.37,0.31,0.44,0.54,0.44,0.48,0.25,0.5,0.31,0.25,0.54,0.54,0.48,0.54,0.81,0.5,0.44,0.5,0.44,0.44,0.44,0.26,0.25,0.44,0.44,0.44,0.44,0.26,0.54,0.44,0.31,0.26,0.5,0.54,0.25,0.31,0.5,0.37,0.25,0.54,0.48,0.37,0.37,0.5,0.54,0.37,0.25" style="fill:rgb(35,31,32);font-family:NewCaledonia;font-size:10.5px;stroke:none;">importance of pneumococcal vaccination for persons </text>
   <text y="61.926" x="300.0,304.872,308.389,310.695,313.625,319.473,324.135,328.02,333.071,337.733,341.618,346.668,352.307,354.403,358.288,361.007,364.892,369.943,372.038,375.346,380.596,384.481,386.577,392.215,397.854,402.904,408.543,417.1,422.35,427.012,432.262,436.924,441.586,446.248,448.968,451.063,456.702,462.34,467.391,473.029,481.587,486.837,492.475,495.195,499.857,502.482,502.482" svgx:width="0.44,0.31,0.25,0.26,0.54,0.44,0.37,0.48,0.44,0.37,0.48,0.54,0.25,0.37,0.26,0.37,0.48,0.25,0.31,0.5,0.37,0.25,0.54,0.54,0.48,0.54,0.81,0.5,0.44,0.5,0.44,0.44,0.44,0.26,0.25,0.54,0.54,0.48,0.54,0.81,0.5,0.54,0.26,0.44,0.25,0.25,0.25" style="fill:rgb(35,31,32);font-family:NewCaledonia;font-size:10.5px;stroke:none;">at increased risk for pneumococcal pneumonia. </text>
   <text y="59.3" x="502.479,505.54" svgx:width="0.5,0.5" style="fill:rgb(35,31,32);font-family:NewCaledonia;font-size:6.12px;stroke:none;">25</text>
   <text y="61.925" x="508.6,508.6,508.6,510.7,517.315,522.953,528.004" svgx:width="0.25,0.25,0.25,0.63,0.54,0.48,0.25" style="fill:rgb(35,31,32);font-family:NewCaledonia;font-size:10.5px;stroke:none;"> The </text>
   <text y="73.926" x="299.997,302.716,308.355,313.993,316.713,321.375,326.036,329.344,332.064,337.314,342.952,346.837,349.462,352.77,358.02,361.905,364.53,370.168,375.418,379.303,384.941,387.661,390.969,395.63,398.35,401.07,405.543,410.204,413.512,416.232,421.482,427.12,429.745,434.407,438.292,443.342,445.967,448.687,451.407,455.292,458.599,463.65,469.288,471.913,474.633,480.271,482.896,482.896,489.511,494.173,499.811,502.531,507.582,510.207,515.457,515.457,515.457,518.082,518.082" svgx:width="0.26,0.54,0.54,0.26,0.44,0.44,0.31,0.26,0.5,0.54,0.37,0.25,0.31,0.5,0.37,0.25,0.54,0.5,0.37,0.54,0.26,0.31,0.44,0.26,0.26,0.43,0.44,0.31,0.26,0.5,0.54,0.25,0.44,0.37,0.48,0.25,0.26,0.26,0.37,0.31,0.48,0.54,0.25,0.26,0.54,0.25,0.25,0.63,0.44,0.54,0.26,0.48,0.25,0.5,0.25,0.25,0.25,0.25,0.25" style="fill:rgb(35,31,32);font-family:NewCaledonia;font-size:10.5px;stroke:none;">indications for hospitalization are listed in Table 3 . </text>
   <text y="71.3" x="518.083,521.144" svgx:width="0.5,0.5" style="fill:rgb(35,31,32);font-family:NewCaledonia;font-size:6.12px;stroke:none;">26</text>
   <text y="73.925" x="524.205,524.205,524.205" svgx:width="0.25,0.25,0.25" style="fill:rgb(35,31,32);font-family:NewCaledonia;font-size:10.5px;stroke:none;"> </text>
   <text y="109.929" x="370.58,370.58,379.137,382.634,388.283,394.698,401.114,407.529,412.191,418.029,421.526,427.364,429.989,436.415,442.253,446.915,452.753,457.415" svgx:width="0.25,0.81,0.33,0.56,0.61,0.61,0.61,0.44,0.56,0.33,0.56,0.25,0.63,0.56,0.44,0.56,0.44,0.25" style="fill:rgb(35,31,32);font-family:NewCaledonia-SC;font-size:10.5px;stroke:none;"> Diagnostic Tests </text>
   <text y="129.932" x="309.995,309.995,318.101,322.7,326.522,331.121,333.777,335.886,339.708,346.838,351.437,357.012,360.834,362.944,370.073,372.73,375.974,381.55,383.659,389.235,393.834,397.656,402.255,404.911,407.021,410.843,415.83,420.429,424.251,429.239,432.483,435.14,440.327,445.902,449.724,451.834,455.267,458.512,462.334,467.521,476.015,478.125,481.369,486.945,491.932,494.041,498.64,504.216,507.46,512.448,516.27,518.927,524.114,527.999" svgx:width="0.25,0.78,0.44,0.37,0.44,0.26,0.25,0.37,0.69,0.44,0.54,0.37,0.25,0.69,0.26,0.31,0.54,0.25,0.54,0.44,0.37,0.44,0.26,0.25,0.37,0.48,0.44,0.37,0.48,0.31,0.26,0.5,0.54,0.37,0.25,0.33,0.31,0.37,0.5,0.81,0.25,0.31,0.54,0.48,0.25,0.44,0.54,0.31,0.48,0.37,0.26,0.5,0.37,0.25" style="fill:rgb(35,31,32);font-family:NewCaledonia;font-size:10.5px;stroke:none;"> Nasal swabs with nasal secretions (from the anterior </text>
   <text y="141.933" x="299.999,303.243,308.819,312.641,318.216,320.873,326.448,331.047,334.292,339.279,341.904,342.773,347.372,351.194,356.182,360.781,364.214,366.839,367.709,372.896,376.718,379.343,380.212,385.788,390.387,394.209,399.396,404.971,410.547,415.146,418.968,423.567,429.142,434.13,439.117,443.716,446.373,448.998,449.867,454.466,458.288,463.864,466.52,470.342,474.941,478.186,483.173,486.995,489.62,490.489,495.676,499.498,502.123,502.993,506.815,513.944,518.543,524.119,528.004" svgx:width="0.31,0.54,0.37,0.54,0.26,0.54,0.44,0.31,0.48,0.25,0.55,0.44,0.37,0.48,0.44,0.33,0.25,0.55,0.5,0.37,0.25,0.55,0.54,0.44,0.37,0.5,0.54,0.54,0.44,0.37,0.44,0.54,0.48,0.48,0.44,0.26,0.25,0.55,0.44,0.37,0.54,0.26,0.37,0.44,0.31,0.48,0.37,0.25,0.55,0.5,0.37,0.25,0.55,0.37,0.69,0.44,0.54,0.37,0.25" style="fill:rgb(35,31,32);font-family:NewCaledonia;font-size:10.5px;stroke:none;">turbinate area) or nasopharyngeal aspirates or swabs </text>
   <text y="153.935" x="299.999,304.598,308.42,313.407,316.011,320.61,326.186,331.761,335.583,340.77,346.346,350.168,352.824,357.423,360.668,365.655,368.259,372.081,377.656,382.644,387.243,389.899,398.394,403.381,408.957,412.779,415.383,418.627,423.814,427.636,430.24,435.816,440.803,444.048,449.035,453.634,456.879,459.535,465.111,470.098,472.702,478.278,483.853,492.348,496.947,502.522,505.126,507.783,513.358,516.141,518.929,524.504" svgx:width="0.44,0.37,0.48,0.25,0.44,0.54,0.54,0.37,0.5,0.54,0.37,0.26,0.44,0.31,0.48,0.25,0.37,0.54,0.48,0.44,0.26,0.81,0.48,0.54,0.37,0.25,0.31,0.5,0.37,0.25,0.54,0.48,0.31,0.48,0.44,0.31,0.26,0.54,0.48,0.25,0.54,0.54,0.81,0.44,0.54,0.25,0.26,0.54,0.54,0.25,0.54,0.33" style="fill:rgb(35,31,32);font-family:NewCaledonia;font-size:10.5px;stroke:none;">are appropriate specimens for detecting human inﬂ u-</text>
   <text y="165.936" x="299.999,304.986,310.561,314.971,319.57,321.938,328.679,331.047,335.646,341.221,346.797,349.165,356.105,358.667,361.035,367.776,370.432,373.677,379.252,384.439,390.015,395.002,400.578,402.946,406.19,411.766,416.753,419.121,422.943,427.542,433.117,435.774,441.349,443.717,446.374,451.949,454.737,457.525,463.1,468.088,473.663,478.073,482.672,485.04,490.615,493.272,497.871,502.858,508.434,513.621,517.443,520.688,523.344,528.006" svgx:width="0.48,0.54,0.43,0.44,0.25,0.65,0.25,0.44,0.54,0.54,0.25,0.67,0.25,0.25,0.65,0.26,0.31,0.54,0.5,0.54,0.48,0.54,0.25,0.31,0.54,0.48,0.25,0.37,0.44,0.54,0.26,0.54,0.25,0.26,0.54,0.54,0.25,0.54,0.48,0.54,0.43,0.44,0.25,0.54,0.26,0.44,0.48,0.54,0.5,0.37,0.31,0.26,0.44,0.25" style="fill:rgb(35,31,32);font-family:NewCaledonia;font-size:10.5px;stroke:none;">enza A and B. Although the rapid inﬂ uenza diagnostic </text>
   <text y="177.938" x="299.998,303.243,308.23,312.052,315.297,319.119,322.397,329.527,334.514,338.336,343.324,346.602,351.201,355.8,361.375,365.974,371.55,374.206,379.194,382.472,387.659,390.903,394.181,399.757,404.744,407.989,412.976,417.575,420.82,423.476,429.052,434.039,437.317,442.893,448.08,452.679,457.666,460.323,463.601,470.342,473.776,482.27,487.457,495.563,500.75,504.184,507.462,512.061,514.717,518.539,524.115,528.0" svgx:width="0.31,0.48,0.37,0.31,0.37,0.25,0.69,0.48,0.37,0.48,0.25,0.44,0.44,0.54,0.44,0.54,0.26,0.48,0.25,0.5,0.31,0.25,0.54,0.48,0.31,0.48,0.44,0.31,0.26,0.54,0.48,0.25,0.54,0.5,0.44,0.48,0.26,0.25,0.65,0.33,0.81,0.5,0.78,0.5,0.33,0.25,0.44,0.26,0.37,0.54,0.37,0.25" style="fill:rgb(35,31,32);font-family:NewCaledonia;font-size:10.5px;stroke:none;">tests were capable of detecting novel A(H1N1) virus </text>
   <text y="189.939" x="299.998,303.243,307.065,312.252,320.746,323.371,324.238,328.06,333.047,336.869,342.445,345.101,348.923,353.522,356.767,361.954,365.776,370.375,373.0,373.866,377.688,383.263,388.251,392.85,395.506,404.001,408.988,414.564,418.386,421.011,421.877,426.476,431.663,437.239,440.483,445.082,447.739,453.314,455.971,461.546,466.534,469.159,470.025,475.6,478.257,483.244,488.82,491.445,492.311,494.968,499.955,504.554,509.542,512.198,516.02,518.645,519.511,524.698,528.006" svgx:width="0.31,0.37,0.5,0.81,0.25,0.55,0.37,0.48,0.37,0.54,0.26,0.37,0.44,0.31,0.5,0.37,0.44,0.25,0.55,0.37,0.54,0.48,0.44,0.26,0.81,0.48,0.54,0.37,0.25,0.55,0.44,0.5,0.54,0.31,0.44,0.26,0.54,0.26,0.54,0.48,0.25,0.55,0.54,0.26,0.48,0.54,0.25,0.55,0.26,0.48,0.44,0.48,0.26,0.37,0.25,0.55,0.5,0.31,0.25" style="fill:rgb(35,31,32);font-family:NewCaledonia;font-size:10.5px;stroke:none;">from respiratory specimens containing high levels of </text>
   <text y="201.941" x="299.998,304.597,307.254,311.076,316.651,320.473,323.035,324.885,328.129,333.705,338.692,340.541,345.728,350.327,355.315,359.137,363.736,366.392,369.049,370.898,374.72,379.707,385.283,389.105,391.761,395.006,397.662,402.261,404.918,408.162,412.761,414.61,421.74,426.339,430.161,432.01,434.666,439.853,446.983,448.832,452.265,457.452,462.639,471.323,474.756,479.943,485.13,493.814,497.247,499.096,503.695,512.19,517.377,522.952,528.003" svgx:width="0.44,0.26,0.37,0.54,0.37,0.25,0.25,0.31,0.54,0.48,0.25,0.5,0.44,0.48,0.37,0.44,0.26,0.26,0.25,0.37,0.48,0.54,0.37,0.26,0.31,0.26,0.44,0.26,0.31,0.44,0.25,0.69,0.44,0.37,0.25,0.26,0.5,0.69,0.25,0.33,0.5,0.5,0.83,0.33,0.5,0.5,0.83,0.33,0.25,0.44,0.81,0.5,0.54,0.48,0.25" style="fill:rgb(35,31,32);font-family:NewCaledonia;font-size:10.5px;stroke:none;">virus, the overall sensitivity was low (40%-69%) among </text>
   <text y="213.943" x="299.998,304.576,307.212,309.847,311.958,315.759,321.313,326.28,330.858,333.493,341.967,346.933,352.488,356.289,358.399,361.623,366.589,370.39,373.614,378.58,384.135,386.245,390.823,396.378,401.932,404.043,409.598,414.564,419.142,421.777,424.413,429.967,434.934,440.488,442.599,446.4,451.954,457.509,461.31,464.534,469.112,474.666,477.89,480.525,485.103,487.739,490.374,494.952,497.063,501.641,505.442,507.552,512.13,514.766,518.567,524.121,528.006" svgx:width="0.44,0.26,0.26,0.25,0.37,0.54,0.48,0.44,0.26,0.81,0.48,0.54,0.37,0.25,0.31,0.48,0.37,0.31,0.48,0.54,0.25,0.44,0.54,0.54,0.25,0.54,0.48,0.44,0.26,0.26,0.54,0.48,0.54,0.25,0.37,0.54,0.54,0.37,0.31,0.44,0.54,0.31,0.26,0.44,0.26,0.26,0.44,0.25,0.44,0.37,0.25,0.44,0.26,0.37,0.54,0.37,0.25" style="fill:rgb(35,31,32);font-family:NewCaledonia;font-size:10.5px;stroke:none;">all specimens tested and declined substantially as virus </text>
   <text y="225.944" x="299.998,302.655,307.642,312.241,317.229,319.885,323.707,326.332,328.359,333.934,338.922,343.521,347.343,352.33,356.929,360.751,365.739,371.314,373.876,376.501,378.528,384.691,389.29,392.535,395.191,400.179,405.754,408.999,412.821,415.446,417.472,424.602,427.258,430.503,436.078,438.703,440.73,443.386,446.043,448.699,454.275,459.262,463.084,466.906,471.894,475.716,478.341,480.367,484.966,490.153,498.648,504.223,508.822,512.067,514.723,520.299,522.955,528.006" svgx:width="0.26,0.48,0.44,0.48,0.26,0.37,0.25,0.55,0.54,0.48,0.44,0.37,0.48,0.44,0.37,0.48,0.54,0.25,0.25,0.55,0.59,0.44,0.31,0.26,0.48,0.54,0.31,0.37,0.25,0.55,0.69,0.26,0.31,0.54,0.25,0.55,0.26,0.26,0.26,0.54,0.48,0.37,0.37,0.48,0.37,0.25,0.55,0.44,0.5,0.81,0.54,0.44,0.31,0.26,0.54,0.26,0.48,0.25" style="fill:rgb(35,31,32);font-family:NewCaledonia;font-size:10.5px;stroke:none;">levels decreased. Patients with illnesses compatible </text>
   <text y="237.946" x="299.998,307.128,309.784,313.029,318.604,320.962,326.537,331.136,336.712,342.287,347.275,355.769,358.426,363.025,365.382,372.123,375.556,384.051,389.238,397.344,402.531,405.964,408.322,412.921,415.577,419.399,424.975,428.797,431.154,433.81,439.386,442.63,447.618,452.217,455.461,458.118,463.305,468.88,471.238,476.813,482.389,485.633,487.99,495.12,497.776,501.021,506.596,508.954,514.529,519.517,524.504" svgx:width="0.69,0.26,0.31,0.54,0.25,0.54,0.44,0.54,0.54,0.48,0.81,0.26,0.44,0.25,0.65,0.33,0.81,0.5,0.78,0.5,0.33,0.25,0.44,0.26,0.37,0.54,0.37,0.25,0.26,0.54,0.31,0.48,0.44,0.31,0.26,0.5,0.54,0.25,0.54,0.54,0.31,0.25,0.69,0.26,0.31,0.54,0.25,0.54,0.48,0.48,0.33" style="fill:rgb(35,31,32);font-family:NewCaledonia;font-size:10.5px;stroke:none;">with pandemic A(H1N1) virus infection but with neg-</text>
   <text y="249.947" x="299.998,304.597,307.842,310.498,315.097,320.085,322.809,326.631,331.23,336.805,339.462,345.037,347.761,350.417,355.993,358.775,361.562,367.138,372.125,377.701,382.111,386.71,389.433,395.009,397.665,402.264,407.252,412.827,418.014,421.836,425.081,427.737,432.336,435.06,438.304,443.292,447.114,450.358,453.082,456.904,461.892,465.714,471.289,473.946,477.19,481.012,483.736,487.873,493.763,499.265,505.156,508.127,514.018,517.056,522.947,527.997" svgx:width="0.44,0.31,0.26,0.44,0.48,0.25,0.37,0.44,0.54,0.26,0.54,0.25,0.26,0.54,0.54,0.25,0.54,0.48,0.54,0.43,0.44,0.25,0.54,0.26,0.44,0.48,0.54,0.5,0.37,0.31,0.26,0.44,0.25,0.31,0.48,0.37,0.31,0.25,0.37,0.48,0.37,0.54,0.26,0.31,0.37,0.25,0.37,0.54,0.5,0.54,0.26,0.54,0.25,0.54,0.48,0.25" style="fill:rgb(35,31,32);font-family:NewCaledonia;font-size:10.5px;stroke:none;">ative rapid inﬂ uenza diagnostic test results should be </text>
   <text y="261.949" x="299.998,303.558,307.695,312.997,317.911,321.471,326.773,332.664,335.289,336.879,342.181,350.991,356.881,359.853,363.99,366.961,371.875,376.789,379.761,382.732,387.646,390.271,391.861,397.751,402.665,406.802,412.105,417.995,420.62,422.21,427.712,433.603,436.228,437.817,441.377,447.267,452.57,455.195,456.784,459.756,465.058,469.972,475.275,478.246,480.871,482.461,487.963,491.523,494.148,495.737,500.651,503.623,506.594,512.485,515.456,520.37,525.284,528.004" svgx:width="0.31,0.37,0.48,0.44,0.31,0.48,0.54,0.25,0.55,0.48,0.81,0.54,0.26,0.37,0.26,0.44,0.44,0.26,0.26,0.44,0.25,0.55,0.54,0.44,0.37,0.48,0.54,0.25,0.55,0.5,0.54,0.25,0.55,0.31,0.54,0.48,0.25,0.55,0.26,0.48,0.44,0.48,0.26,0.25,0.55,0.5,0.31,0.25,0.55,0.44,0.26,0.26,0.54,0.26,0.44,0.44,0.26,0.25" style="fill:rgb(35,31,32);font-family:NewCaledonia;font-size:10.5px;stroke:none;">treated empirically based on the level of clinical </text>
   <text y="273.95" x="299.998,304.135,310.026,314.163,320.053,323.025,327.939,330.91,336.412,342.303,345.18,347.805,348.931,354.821,360.712,366.602,371.905,376.042,379.013,383.927,386.899,392.789,398.092,400.717,401.842,410.652,415.954,421.845,424.816,429.73,434.644,437.616,440.241,441.366,446.28,451.782,457.673,463.563,466.535,470.094,473.066,478.568,484.458,488.595,491.472,494.097,495.214,499.036,504.024,508.623,513.61,517.432,520.089,523.333,527.995" svgx:width="0.37,0.54,0.37,0.54,0.26,0.44,0.26,0.5,0.54,0.25,0.25,0.55,0.54,0.54,0.54,0.48,0.37,0.26,0.44,0.26,0.54,0.48,0.25,0.55,0.81,0.48,0.54,0.26,0.44,0.44,0.26,0.25,0.55,0.44,0.5,0.54,0.54,0.26,0.31,0.26,0.5,0.54,0.37,0.25,0.25,0.55,0.37,0.48,0.44,0.48,0.37,0.26,0.31,0.44,0.25" style="fill:rgb(35,31,32);font-family:NewCaledonia;font-size:10.5px;stroke:none;">suspicion, underlying medical conditions, severity </text>
   <text y="285.952" x="299.998,305.185,308.43,311.191,313.848,316.504,319.161,324.736,329.724,333.546,337.368,339.93,342.691,347.29,352.866,358.441,361.203,365.025,367.681,371.503,376.491,379.252,382.497,387.684,391.506,394.267,398.866,404.053,412.548,418.123,420.78,423.436,428.035,432.634,435.879,438.535,443.722,449.298,453.12,455.682,458.443,462.465,465.709,468.471,473.07,475.831,484.326,489.513,493.335,498.322,501.084,506.47,511.269,513.957,516.65,522.037,524.504" svgx:width="0.5,0.31,0.25,0.26,0.26,0.26,0.54,0.48,0.37,0.37,0.25,0.25,0.44,0.54,0.54,0.25,0.37,0.26,0.37,0.48,0.25,0.31,0.5,0.37,0.25,0.44,0.5,0.81,0.54,0.26,0.26,0.44,0.44,0.31,0.26,0.5,0.54,0.37,0.25,0.25,0.39,0.31,0.25,0.44,0.25,0.81,0.5,0.37,0.48,0.25,0.54,0.48,0.54,0.25,0.54,0.26,0.33" style="fill:rgb(35,31,32);font-family:NewCaledonia;font-size:10.5px;stroke:none;">of illness, and risk for complications. If a more deﬁ ni-</text>
   <text y="297.953" x="299.998,303.054,305.521,309.931,314.73,317.355,318.937,324.324,329.122,332.178,336.976,340.609,348.915,351.382,356.769,361.179,364.234,366.702,371.7,377.086,379.711,381.294,386.292,389.347,391.972,393.555,396.022,401.409,404.464,409.263,413.673,416.728,419.196,424.194,429.58,432.205,433.787,440.728,443.195,446.251,451.637,454.262,455.845,458.312,463.699,466.392,469.085,474.478,479.283,484.676,488.903,493.319,495.944,497.524,501.941,504.414,508.054,513.447,517.264,519.889,521.659,524.132,528.013" svgx:width="0.31,0.26,0.44,0.48,0.25,0.55,0.54,0.48,0.31,0.48,0.37,0.81,0.26,0.54,0.44,0.31,0.26,0.5,0.54,0.25,0.55,0.5,0.31,0.25,0.55,0.26,0.54,0.31,0.48,0.44,0.31,0.26,0.5,0.54,0.25,0.55,0.69,0.26,0.31,0.54,0.25,0.55,0.26,0.54,0.54,0.25,0.54,0.48,0.54,0.43,0.44,0.25,0.55,0.44,0.26,0.37,0.54,0.37,0.25,0.55,0.26,0.37,0.25" style="fill:rgb(35,31,32);font-family:NewCaledonia;font-size:10.5px;stroke:none;">tive determination of infection with inﬂ uenza virus is </text>
   <text y="309.955" x="299.998,303.673,308.514,313.942,319.371,321.88,325.555,330.396,335.824,338.239,340.864,342.387,345.484,350.325,354.0,357.097,359.607,365.035,369.876,372.501,374.023,381.006,383.515,386.613,392.041,394.666,396.189,399.864,404.704,409.156,411.666,414.952,418.05,420.559,428.907,433.747,436.372,437.895,441.57,446.41,450.862,455.703,459.378,463.053,467.893,470.518,472.041,475.138,478.813,483.265,488.694,492.369,496.821,500.496,503.005,508.434,511.531,514.041,519.081,524.509" svgx:width="0.37,0.48,0.54,0.54,0.26,0.37,0.48,0.54,0.25,0.25,0.55,0.31,0.48,0.37,0.31,0.26,0.54,0.48,0.25,0.55,0.69,0.26,0.31,0.54,0.25,0.55,0.37,0.48,0.44,0.26,0.33,0.31,0.26,0.81,0.48,0.25,0.55,0.37,0.48,0.44,0.48,0.37,0.37,0.48,0.25,0.55,0.31,0.37,0.44,0.54,0.37,0.44,0.37,0.26,0.54,0.31,0.26,0.5,0.54,0.33" style="fill:rgb(35,31,32);font-family:NewCaledonia;font-size:10.5px;stroke:none;">required, testing with real-time reverse transcription-</text>
   <text y="321.956" x="299.998,305.658,310.929,313.669,318.352,326.931,332.002,335.908,340.591,344.497,349.569,352.194,353.15,357.833,363.492,368.175,370.916,376.575,379.2,380.156,384.062,389.133,393.816,398.499,401.828,404.568,409.839,415.499,418.124,419.079,422.597,429.81,436.446,439.964,446.211,453.624,460.837,464.355,466.98,467.935,473.206,477.112,479.737,480.693,485.376,488.117,492.023,497.682,501.588,504.213,505.169,507.909,511.815,517.086,519.827,524.51" svgx:width="0.54,0.5,0.26,0.44,0.81,0.48,0.37,0.44,0.37,0.48,0.25,0.55,0.44,0.54,0.44,0.26,0.54,0.25,0.55,0.37,0.48,0.44,0.44,0.31,0.26,0.5,0.54,0.25,0.55,0.33,0.69,0.63,0.33,0.59,0.7,0.69,0.33,0.25,0.55,0.5,0.37,0.25,0.55,0.44,0.26,0.37,0.54,0.37,0.25,0.55,0.26,0.37,0.5,0.26,0.44,0.33" style="fill:rgb(35,31,32);font-family:NewCaledonia;font-size:10.5px;stroke:none;">polymerase chain reaction (RT-PCR) or virus isola-</text>
   <text y="333.958" x="299.998,303.327,306.067,311.338,316.998,320.12,324.026,329.685,334.956,340.616,343.356,349.016,352.137,357.797,362.868,365.99,371.649,376.721,380.627,383.955,389.226,393.132,401.711,406.782,412.442,415.088,415.091" svgx:width="0.31,0.26,0.5,0.54,0.25,0.37,0.54,0.5,0.54,0.26,0.54,0.25,0.54,0.48,0.25,0.54,0.48,0.37,0.31,0.5,0.37,0.81,0.48,0.54,0.25,0.25,0.25" style="fill:rgb(35,31,32);font-family:NewCaledonia;font-size:10.5px;stroke:none;">tion should be performed. </text>
   <text y="331.3" x="415.088,418.161" svgx:width="0.5,0.5" style="fill:rgb(35,31,32);font-family:NewCaledonia;font-size:6.12px;stroke:none;">27</text>
   <text y="333.925" x="421.234,421.237,421.24,424.362,428.466,434.125,437.246,442.905,447.587,450.914,453.654,458.724,464.383,467.71,471.615,474.737,481.949,487.608,492.878,495.999,499.904,504.975,510.633,516.292,519.031,522.936,528.006" svgx:width="0.25,0.25,0.25,0.39,0.54,0.25,0.54,0.44,0.31,0.26,0.48,0.54,0.31,0.37,0.25,0.69,0.54,0.5,0.25,0.37,0.48,0.54,0.54,0.26,0.37,0.48,0.25" style="fill:rgb(35,31,32);font-family:NewCaledonia;font-size:10.5px;stroke:none;"> In patients who require </text>
   <text y="345.926" x="300.001,302.742,308.401,313.084,317.767,321.673,324.414,329.097,334.168,336.837,345.416,350.487,355.17,360.83,365.513,371.172,373.913,378.596,383.279,386.019,388.688,393.371,398.443,404.102,407.431,410.171,412.912,417.595,420.923,423.664,428.935,434.594,437.263,440.781,444.886,454.63,461.266,464.784,467.43,470.099,473.427,477.333,482.016,486.699,492.359,497.43,502.113,504.854,507.523,512.206,516.112,521.772,524.512" svgx:width="0.26,0.54,0.44,0.44,0.37,0.26,0.44,0.48,0.25,0.81,0.48,0.44,0.54,0.44,0.54,0.26,0.44,0.44,0.26,0.25,0.44,0.48,0.54,0.31,0.26,0.26,0.44,0.31,0.26,0.5,0.54,0.25,0.33,0.39,0.93,0.63,0.33,0.25,0.25,0.31,0.37,0.44,0.44,0.54,0.48,0.44,0.26,0.25,0.44,0.37,0.54,0.26,0.33" style="fill:rgb(35,31,32);font-family:NewCaledonia;font-size:10.5px;stroke:none;">invasive mechanical ventilation (IMV), tracheal aspi-</text>
   <text y="357.928" x="300.001,303.907,308.59,311.919,316.99,320.896,323.348,331.926,336.609,341.292,343.744,349.015,352.344,355.672,360.744,364.65,367.101,372.761,375.501,380.573,386.232,391.304,395.21,397.662,403.321,406.062,410.745,415.816,421.476,426.747,430.653,433.981,436.722,441.405,443.856,448.539,451.28,456.351,459.092,464.751,467.203,470.532,476.191,480.874,486.534,488.985,494.645,499.328,503.234,508.505,514.164,519.824,524.507" svgx:width="0.37,0.44,0.31,0.48,0.37,0.25,0.81,0.44,0.44,0.25,0.5,0.31,0.31,0.48,0.37,0.25,0.54,0.26,0.48,0.54,0.48,0.37,0.25,0.54,0.26,0.44,0.48,0.54,0.5,0.37,0.31,0.26,0.44,0.25,0.44,0.26,0.48,0.26,0.54,0.25,0.31,0.54,0.44,0.54,0.25,0.54,0.44,0.37,0.5,0.54,0.54,0.44,0.33" style="fill:rgb(35,31,32);font-family:NewCaledonia;font-size:10.5px;stroke:none;">rates may offer higher diagnostic yield than nasopha-</text>
   <text y="369.929" x="300.001,303.907,308.59,314.25,319.552,324.855,329.769,332.74,335.908,339.467,342.439,347.941,352.855,358.157,363.46,369.35,372.518,376.655,384.1,389.014,394.904,398.072,401.821,401.817,408.873,411.845,417.147,420.315,425.817,425.825,425.821,429.57,432.447,435.615,441.505,446.808,452.698,458.589,463.891,469.782,473.341,476.313,481.227,484.198,487.366,491.503,496.417,505.227,511.117,514.089,517.06,522.951,528.001" svgx:width="0.37,0.44,0.54,0.48,0.48,0.44,0.26,0.25,0.31,0.26,0.5,0.44,0.48,0.48,0.54,0.25,0.37,0.69,0.44,0.54,0.25,0.33,0.25,0.65,0.26,0.48,0.25,0.5,0.25,0.25,0.33,0.25,0.25,0.54,0.48,0.54,0.54,0.48,0.54,0.31,0.26,0.44,0.26,0.25,0.37,0.44,0.81,0.54,0.26,0.26,0.54,0.48,0.25" style="fill:rgb(35,31,32);font-family:NewCaledonia;font-size:10.5px;stroke:none;">ryngeal flocked swab ( Fig 2 ). Sequential sampling </text>
   <text y="381.931" x="300.001,302.973,307.109,309.847,312.356,320.704,326.132,331.172,334.847,337.945,342.397,347.825,350.923,353.198,358.627,363.467,367.919,372.371,377.8,381.475,386.315,388.591,391.1,394.198,396.473,398.982,404.411,408.863,412.538,417.378,421.83,425.505,430.346,434.021,436.296,441.336,446.765,452.193,457.233,460.908,464.006,469.434,474.863,477.372,480.47,482.979,487.82,491.495,493.77,496.867,501.908,505.582,507.858,513.286,518.326,522.001,524.511" svgx:width="0.26,0.37,0.25,0.26,0.81,0.54,0.5,0.37,0.31,0.44,0.54,0.31,0.25,0.54,0.48,0.44,0.44,0.54,0.37,0.48,0.25,0.26,0.31,0.25,0.26,0.54,0.44,0.37,0.48,0.44,0.37,0.48,0.37,0.25,0.5,0.54,0.54,0.5,0.37,0.31,0.54,0.54,0.26,0.31,0.26,0.48,0.37,0.25,0.31,0.5,0.37,0.25,0.54,0.5,0.37,0.26,0.33" style="fill:rgb(35,31,32);font-family:NewCaledonia;font-size:10.5px;stroke:none;">is important because it increases opportunities for posi-</text>
   <text y="393.932" x="300.001,303.099,305.608,310.06,314.901,317.526,319.268,324.928,327.668,332.352,337.423,343.082,348.353,352.259,355.0,358.906,361.531,363.279,367.962,373.622,379.281,381.906,383.655,386.983,391.666,396.349,399.09,401.83,404.571,407.899,412.582,415.911,420.982,424.888,427.513,429.261,434.921,440.58,446.24,451.311,455.217,459.123,462.452,467.135,472.794,478.454,481.194,486.854,491.925,494.55,496.299,501.57,504.898,507.523,509.271,513.954,516.695,520.601,525.284,528.024" svgx:width="0.31,0.26,0.44,0.48,0.25,0.55,0.54,0.26,0.44,0.48,0.54,0.5,0.37,0.26,0.37,0.25,0.55,0.44,0.54,0.54,0.25,0.55,0.31,0.44,0.44,0.26,0.26,0.26,0.31,0.44,0.31,0.48,0.37,0.25,0.55,0.54,0.54,0.54,0.48,0.37,0.37,0.31,0.44,0.54,0.54,0.26,0.54,0.48,0.25,0.55,0.5,0.31,0.25,0.55,0.44,0.26,0.37,0.44,0.26,0.25" style="fill:rgb(35,31,32);font-family:NewCaledonia;font-size:10.5px;stroke:none;">tive diagnosis and facilitates understanding of viral </text>
   <text y="405.934" x="300.001,302.742,308.013,312.696,318.355,321.295,325.978,328.719,333.79,338.473,342.379,347.062,352.722,357.405,362.476,365.101,366.844,372.504,378.163,382.069,384.81,390.469,395.541,398.166,399.909,402.649,405.39,408.13,413.79,418.861,422.767,426.673,429.298,431.041,435.724,440.995,446.655,450.561,454.467,459.538,462.184,464.809,466.552,469.293,474.952,477.577,479.32,484.003,489.663,495.322,498.063,501.391,504.132,509.403,515.062,517.687,519.43,522.759,528.03" svgx:width="0.26,0.5,0.44,0.54,0.28,0.44,0.26,0.48,0.44,0.37,0.44,0.54,0.44,0.48,0.25,0.55,0.54,0.54,0.37,0.26,0.54,0.48,0.25,0.55,0.26,0.26,0.26,0.54,0.48,0.37,0.37,0.25,0.55,0.44,0.5,0.54,0.37,0.37,0.48,0.25,0.25,0.55,0.26,0.54,0.25,0.55,0.44,0.54,0.54,0.26,0.31,0.26,0.5,0.54,0.25,0.55,0.31,0.5,0.25" style="fill:rgb(35,31,32);font-family:NewCaledonia;font-size:10.5px;stroke:none;">load/clearance during illness course, in addition to </text>
   <text y="417.935" x="300.001,308.559,313.809,319.447,322.167,325.474,330.724,334.609,337.329,342.967,348.018,350.643,356.281,361.332,365.993,371.044,373.764,379.014,384.652,393.21,398.26,403.898,407.206,409.831,415.081,418.388,421.013,425.675,431.314,434.621,437.341,442.003,444.722,448.607,453.269,455.989,458.614,462.499,467.549,471.435,474.154,478.039,481.347,486.009,491.647,496.309,501.359,503.984" svgx:width="0.81,0.5,0.54,0.26,0.31,0.5,0.37,0.26,0.54,0.48,0.25,0.54,0.48,0.44,0.48,0.26,0.5,0.54,0.81,0.48,0.54,0.31,0.25,0.5,0.31,0.25,0.44,0.54,0.31,0.26,0.44,0.26,0.37,0.44,0.26,0.25,0.37,0.48,0.37,0.26,0.37,0.31,0.44,0.54,0.44,0.48,0.25,0.25" style="fill:rgb(35,31,32);font-family:NewCaledonia;font-size:10.5px;stroke:none;">monitoring development of antiviral resistance. </text>
   <text y="449.939" x="366.875,366.875,373.679,380.095,385.933,389.429,395.267,398.764,404.602,410.44,416.278,418.903,425.518,432.522,438.36,444.198,450.036,455.286,461.124" svgx:width="0.25,0.65,0.61,0.56,0.33,0.56,0.33,0.56,0.56,0.56,0.25,0.63,0.67,0.56,0.56,0.56,0.5,0.56,0.25" style="fill:rgb(35,31,32);font-family:NewCaledonia-SC;font-size:10.5px;stroke:none;"> Antiviral Therapy </text>
   <text y="469.942" x="309.997,309.986,316.496,322.03,326.975,330.54,336.074,340.631,346.164,351.698,356.643,365.096,367.71,372.267,375.832,380.389,383.004,386.784,392.317,396.097,399.662,402.276,406.056,409.621,414.178,419.712,423.492,427.272,432.217,437.751,440.953,443.568,448.125,451.689,455.469,461.003,464.783,469.34,474.285,479.819,483.021,485.636,491.169,493.784,498.729,502.294,505.497,510.642,514.206,517.409,522.942,527.993" svgx:width="0.25,0.63,0.54,0.48,0.25,0.54,0.44,0.54,0.54,0.48,0.81,0.26,0.44,0.25,0.44,0.26,0.37,0.54,0.37,0.25,0.26,0.37,0.25,0.44,0.54,0.37,0.37,0.48,0.54,0.31,0.26,0.44,0.25,0.37,0.54,0.37,0.44,0.48,0.54,0.31,0.26,0.54,0.26,0.48,0.25,0.31,0.5,0.25,0.31,0.54,0.48,0.25" style="fill:rgb(35,31,32);font-family:NewCaledonia;font-size:10.5px;stroke:none;"> The pandemic virus is currently susceptible to the </text>
   <text y="481.943" x="300.001,305.534,310.48,316.013,319.793,324.35,332.803,335.418,340.951,343.566,349.099,353.656,357.436,362.382,365.007,366.411,369.026,374.559,380.093,382.707,388.241,390.855,394.058,399.203,402.983,406.763,409.283,411.908,413.313,418.846,424.38,427.582,430.207,431.612,435.392,440.338,444.118,446.732,450.512,453.715,458.272,463.805,467.008,469.633,471.038,474.24,479.385,482.01,483.415,486.618,492.151,497.097,499.722,501.127,509.579,514.136,517.339,521.119,523.733,528.007" svgx:width="0.54,0.48,0.54,0.37,0.44,0.81,0.26,0.54,0.26,0.54,0.44,0.37,0.48,0.25,0.55,0.26,0.54,0.54,0.26,0.54,0.26,0.31,0.5,0.37,0.37,0.25,0.25,0.55,0.54,0.54,0.31,0.25,0.55,0.37,0.48,0.37,0.26,0.37,0.31,0.44,0.54,0.31,0.25,0.55,0.31,0.5,0.25,0.55,0.31,0.54,0.48,0.25,0.55,0.81,0.44,0.31,0.37,0.26,0.41,0.25" style="fill:rgb(35,31,32);font-family:NewCaledonia;font-size:10.5px;stroke:none;">neuraminidase inhibitors, but resistant to the matrix </text>
   <text y="493.945" x="300.001,305.534,309.314,314.459,317.662,322.607,325.222,330.755,334.147,339.292,341.917,343.287,345.902,351.435,356.969,359.583,365.117,367.731,370.934,376.079,379.859,383.639,386.159,388.784,390.154,399.772,404.917,408.697,411.9,414.525,415.895,421.428,425.985,429.188,431.802,436.748,442.281,445.484,449.264,451.889,453.259,455.874,461.407,464.61,469.555,474.112,477.315,482.26,487.794,490.419,491.789,498.876,501.491,504.693,510.227,512.852,514.222,517.425,522.958,528.009" svgx:width="0.54,0.37,0.5,0.31,0.48,0.26,0.54,0.33,0.5,0.25,0.55,0.26,0.54,0.54,0.26,0.54,0.26,0.31,0.5,0.37,0.37,0.25,0.25,0.55,0.93,0.5,0.37,0.31,0.25,0.55,0.54,0.44,0.31,0.26,0.48,0.54,0.31,0.37,0.25,0.55,0.26,0.54,0.31,0.48,0.44,0.31,0.48,0.54,0.25,0.55,0.69,0.26,0.31,0.54,0.25,0.55,0.31,0.54,0.48,0.25" style="fill:rgb(35,31,32);font-family:NewCaledonia;font-size:10.5px;stroke:none;">protein-2 inhibitors. Most patients infected with the </text>
   <text y="505.946" x="300.001,305.534,310.091,315.625,321.159,326.104,334.557,337.171,341.728,343.885,348.442,351.056,354.836,360.37,364.15,366.306,371.252,375.42,380.954,385.899,389.679,392.294,397.239,402.773,407.33,412.275,414.432,417.635,422.192,427.725,430.34,434.897,439.454,442.068,444.225,446.839,452.373,455.138,457.905,463.439,468.384,473.918,478.286,482.843,485.001,488.781,493.338,501.79,507.324,510.526,515.671,524.124,528.009" svgx:width="0.54,0.44,0.54,0.54,0.48,0.81,0.26,0.44,0.25,0.44,0.26,0.37,0.54,0.37,0.25,0.48,0.41,0.54,0.48,0.37,0.26,0.48,0.54,0.44,0.48,0.25,0.31,0.44,0.54,0.26,0.44,0.44,0.26,0.25,0.26,0.54,0.54,0.25,0.54,0.48,0.54,0.43,0.44,0.25,0.37,0.44,0.81,0.54,0.31,0.5,0.81,0.37,0.25" style="fill:rgb(35,31,32);font-family:NewCaledonia;font-size:10.5px;stroke:none;">pandemic virus experience typical inﬂ uenza symptoms </text>
   <text y="517.948" x="300.001,304.558,310.091,315.625,317.728,320.931,326.464,329.079,331.693,336.25,338.353,342.133,347.079,351.636,356.781,361.338,366.283,370.063,372.166,379.254,381.868,385.071,390.604,393.219,398.753,400.856,405.413,407.516,414.603,419.549,424.494,429.44,431.96,434.063,439.008,443.565,448.511,454.044,456.148,463.235,465.85,469.052,474.586,479.731,485.264,488.467,490.57,495.127,500.66,505.217,507.32,510.523,515.668,519.448,528.005" svgx:width="0.44,0.54,0.54,0.25,0.31,0.54,0.26,0.26,0.44,0.25,0.37,0.48,0.44,0.5,0.44,0.48,0.37,0.25,0.69,0.26,0.31,0.54,0.26,0.54,0.25,0.44,0.25,0.69,0.48,0.48,0.48,0.25,0.25,0.48,0.44,0.48,0.54,0.25,0.69,0.26,0.31,0.54,0.5,0.54,0.31,0.25,0.44,0.54,0.44,0.25,0.31,0.5,0.37,0.81,0.25" style="fill:rgb(35,31,32);font-family:NewCaledonia;font-size:10.5px;stroke:none;">and fully recover within a week, even without any form </text>
   <text y="529.949" x="300.001,305.146,308.348,310.497,318.949,323.895,329.428,332.043,336.6,341.157,343.771,345.92,349.122,352.902,357.848,362.405,365.607,374.06,379.005,384.539,387.741,390.261,392.409,400.862,405.807,410.364,412.979,416.181,421.715,426.272,428.42,433.954,438.511,441.713,444.328,449.273,454.807,458.009,461.789,463.938,471.025,473.64,476.842,482.376,484.524,490.057,495.591,500.148,505.293,513.745,519.279,521.893,524.508" svgx:width="0.5,0.31,0.25,0.81,0.48,0.54,0.26,0.44,0.44,0.26,0.25,0.31,0.37,0.48,0.44,0.31,0.81,0.48,0.54,0.31,0.25,0.25,0.81,0.48,0.44,0.26,0.31,0.54,0.44,0.25,0.54,0.44,0.31,0.26,0.48,0.54,0.31,0.37,0.25,0.69,0.26,0.31,0.54,0.25,0.54,0.54,0.44,0.5,0.81,0.54,0.26,0.26,0.33" style="fill:rgb(35,31,32);font-family:NewCaledonia;font-size:10.5px;stroke:none;">of medical treatment. Healthy patients with uncompli-</text>
   <text y="541.951" x="300.001,304.663,309.325,312.632,317.683,323.321,326.399,329.118,331.838,334.558,340.196,345.247,349.132,353.017,356.094,361.733,366.783,371.834,377.472,380.55,386.188,391.438,394.746,397.823,403.462,408.512,411.59,414.897,418.782,423.833,428.495,431.802,436.853,442.491,445.569,452.761,455.481,458.788,464.427,467.504,472.166,477.805,481.112,483.832,488.494,491.213,495.098,499.76,502.48,506.365,508.99,512.067,518.871,524.121,528.006" svgx:width="0.44,0.44,0.31,0.48,0.54,0.25,0.26,0.26,0.26,0.54,0.48,0.37,0.37,0.25,0.54,0.48,0.48,0.54,0.25,0.54,0.5,0.31,0.25,0.54,0.48,0.25,0.31,0.37,0.48,0.44,0.31,0.48,0.54,0.25,0.69,0.26,0.31,0.54,0.25,0.44,0.54,0.31,0.26,0.44,0.26,0.37,0.44,0.26,0.37,0.25,0.25,0.65,0.5,0.37,0.25" style="fill:rgb(35,31,32);font-family:NewCaledonia;font-size:10.5px;stroke:none;">cated illness need not be treated with antivirals. For </text>
   <text y="553.952" x="300.001,305.534,310.091,313.294,315.909,320.854,326.388,329.59,333.37,335.995,338.216,345.303,350.837,355.982,358.607,360.828,363.442,368.976,371.59,374.793,377.407,381.964,384.579,387.193,391.75,394.375,396.596,402.129,405.909,410.855,414.635,419.58,425.114,428.316,430.941,433.162,440.25,442.864,446.067,451.6,454.225,456.446,460.226,465.171,469.728,474.674,478.454,483.399,486.024,488.245,490.86,493.474,496.089,501.622,506.568,510.348,514.128,516.753,518.973,524.118,528.003" svgx:width="0.54,0.44,0.31,0.26,0.48,0.54,0.31,0.37,0.25,0.55,0.69,0.54,0.5,0.25,0.55,0.26,0.54,0.26,0.31,0.26,0.44,0.26,0.26,0.44,0.25,0.55,0.54,0.37,0.48,0.37,0.48,0.54,0.31,0.25,0.55,0.69,0.26,0.31,0.54,0.25,0.55,0.37,0.48,0.44,0.48,0.37,0.48,0.25,0.55,0.26,0.26,0.26,0.54,0.48,0.37,0.37,0.25,0.55,0.5,0.37,0.25" style="fill:rgb(35,31,32);font-family:NewCaledonia;font-size:10.5px;stroke:none;">patients who initially present with severe illness or </text>
   <text y="565.954" x="300.001,307.088,312.622,317.767,321.547,326.492,329.226,333.783,338.928,344.461,349.995,352.609,355.812,358.426,363.571,369.105,371.838,377.371,382.317,387.262,389.877,395.41,399.19,401.923,405.126,410.271,413.004,418.538,423.483,426.686,431.631,435.411,438.026,443.171,446.951,451.508,454.71,459.656,462.176,464.909,468.111,471.891,476.837,481.394,484.596,493.049,497.994,503.528,506.73,509.464,516.551,519.166,522.368,528.007" svgx:width="0.69,0.54,0.5,0.37,0.48,0.25,0.44,0.5,0.54,0.54,0.26,0.31,0.26,0.5,0.54,0.25,0.54,0.48,0.48,0.26,0.54,0.37,0.25,0.31,0.5,0.25,0.54,0.48,0.31,0.48,0.37,0.26,0.5,0.37,0.44,0.31,0.48,0.25,0.25,0.31,0.37,0.48,0.44,0.31,0.81,0.48,0.54,0.31,0.25,0.69,0.26,0.31,0.54,0.25" style="fill:rgb(35,31,32);font-family:NewCaledonia;font-size:10.5px;stroke:none;">whose condition begins to deteriorate, treatment with </text>
   <text y="577.955" x="300.001,305.146,308.926,313.871,316.486,319.688,324.245,332.698,335.313,339.87,342.484,346.264,349.272,353.052,358.586,363.731,369.264,371.879,377.412,380.421,384.978,390.122,398.575,407.028,411.973,417.507,422.064,427.009,430.017,434.574,438.354,441.363,445.143,450.288,455.432,460.966,463.974,468.531,472.311,475.319,480.853,485.998,489.778,493.558,496.172,501.706,504.32,509.266,512.274,516.831,522.365,528.003" svgx:width="0.5,0.37,0.48,0.26,0.31,0.44,0.81,0.26,0.44,0.26,0.37,0.25,0.37,0.54,0.5,0.54,0.26,0.54,0.25,0.44,0.5,0.81,0.81,0.48,0.54,0.44,0.48,0.25,0.44,0.37,0.25,0.37,0.5,0.5,0.54,0.25,0.44,0.37,0.25,0.54,0.5,0.37,0.37,0.26,0.54,0.26,0.48,0.25,0.44,0.54,0.54,0.25" style="fill:rgb(35,31,32);font-family:NewCaledonia;font-size:10.5px;stroke:none;">oseltamivir should commence as soon as possible and </text>
   <text y="589.957" x="300.001,304.558,310.091,313.294,315.909,320.466,323.08,326.86,331.417,334.032,337.029,340.232,344.012,348.957,353.514,356.717,365.169,370.115,375.648,378.851,381.849,385.629,391.162,396.307,401.841,404.455,409.989,412.986,418.52,423.465,426.463,431.997,435.777,440.922,445.479,448.093,453.627,458.572,464.106,467.103,472.049,476.606,481.551,487.085,490.083,492.697,495.9,498.897,502.677,505.88,510.437,514.217,517.419,522.365,528.003" svgx:width="0.44,0.54,0.31,0.26,0.44,0.26,0.37,0.44,0.26,0.25,0.31,0.37,0.48,0.44,0.31,0.81,0.48,0.54,0.31,0.25,0.37,0.54,0.5,0.54,0.26,0.54,0.25,0.54,0.48,0.25,0.54,0.37,0.5,0.44,0.26,0.54,0.48,0.54,0.25,0.48,0.44,0.48,0.54,0.25,0.26,0.31,0.25,0.37,0.31,0.44,0.37,0.31,0.48,0.54,0.25" style="fill:rgb(35,31,32);font-family:NewCaledonia;font-size:10.5px;stroke:none;">antiviral treatment should be provided even if started </text>
   <text y="601.958" x="300.001,302.615,307.172,310.375,315.32,319.1,322.07,325.272,330.806,335.363,340.896,343.866,349.011,354.156,357.125,362.659,365.179,368.148,372.128,375.33,378.299,383.444,387.224,392.17,394.784,397.987,402.544,410.996,413.611,418.168,420.783,424.563,427.532,430.146,433.926,436.896,442.429,447.963,452.52,457.077,461.634,464.248,466.863,471.42,476.953,479.568,484.513,487.483,492.628,496.408,499.377,503.934,508.491,514.025,519.558,524.703,528.011" svgx:width="0.26,0.44,0.31,0.48,0.37,0.25,0.31,0.54,0.44,0.54,0.25,0.5,0.5,0.25,0.54,0.25,0.25,0.39,0.31,0.25,0.5,0.37,0.48,0.26,0.31,0.44,0.81,0.26,0.44,0.26,0.37,0.25,0.26,0.37,0.25,0.54,0.54,0.44,0.44,0.44,0.26,0.26,0.44,0.54,0.26,0.48,0.25,0.5,0.37,0.25,0.44,0.44,0.54,0.54,0.5,0.31,0.25" style="fill:rgb(35,31,32);font-family:NewCaledonia;font-size:10.5px;stroke:none;">later than 48 h. If oseltamivir is unavailable or cannot </text>
   <text y="613.96" x="300.001,305.534,310.48,313.587,319.12,322.9,327.846,333.379,336.486,339.689,344.834,348.614,351.721,356.278,361.811,366.368,369.475,373.255,378.201,382.758,386.538,391.683,397.216,399.736,402.843,407.211,411.768,417.302,421.859,430.311,432.926,437.483,440.097,443.877,446.984,455.437,459.994,464.551,467.658,473.191,478.137,481.244,486.189,488.804,493.361,498.306,503.84,506.36,509.467,515.977,521.51,524.125,528.01" svgx:width="0.54,0.48,0.25,0.54,0.37,0.48,0.54,0.25,0.31,0.5,0.37,0.25,0.44,0.54,0.44,0.25,0.37,0.48,0.44,0.37,0.5,0.54,0.25,0.25,0.43,0.44,0.54,0.44,0.81,0.26,0.44,0.26,0.37,0.25,0.81,0.44,0.44,0.25,0.54,0.48,0.25,0.48,0.26,0.44,0.48,0.54,0.25,0.25,0.63,0.54,0.26,0.37,0.25" style="fill:rgb(35,31,32);font-family:NewCaledonia;font-size:10.5px;stroke:none;">be used for any reason, zanamivir may be given. This </text>
   <text y="625.961" x="300.001,303.781,308.726,313.283,318.428,326.881,335.333,340.279,345.813,351.346,355.903,359.106,361.72,366.865,372.399,375.263,379.82,385.353,390.887,393.501,396.116,401.061,404.841,407.706,410.908,416.053,418.918,423.475,426.089,428.704,431.568,437.102,441.659,444.861,447.476,452.421,457.955,461.157,464.022,468.967,472.747,477.892,483.426,488.959,492.739,495.259,498.124,500.738,506.272,510.829,513.443,518.977,524.51" svgx:width="0.37,0.48,0.44,0.5,0.81,0.81,0.48,0.54,0.54,0.44,0.31,0.26,0.5,0.54,0.25,0.44,0.54,0.54,0.26,0.26,0.48,0.37,0.25,0.31,0.5,0.25,0.44,0.26,0.26,0.25,0.54,0.44,0.31,0.26,0.48,0.54,0.31,0.25,0.48,0.37,0.5,0.54,0.54,0.37,0.25,0.25,0.26,0.54,0.44,0.26,0.54,0.54,0.33" style="fill:rgb(35,31,32);font-family:NewCaledonia;font-size:10.5px;stroke:none;">recommendation applies to all patient groups, includ-</text>
   <text y="637.963" x="300.001,302.615,308.149,313.094,315.719,317.74,323.273,327.053,331.999,336.944,342.478,347.035,352.568,355.771,358.396,360.416,367.503,372.648,381.101,386.046,391.58,394.1,396.725,398.745,403.302,408.836,414.369,416.994,419.014,423.571,426.186,428.8,431.425,433.446,438.003,442.948,447.894,450.519,452.539,457.484,461.264,466.409,471.943,477.476,481.256,483.776,486.401,488.421,491.036,496.569,501.126,503.741,509.274,514.808,517.422,522.956,528.006" svgx:width="0.26,0.54,0.48,0.25,0.55,0.54,0.37,0.48,0.48,0.54,0.44,0.54,0.31,0.25,0.55,0.69,0.5,0.81,0.48,0.54,0.25,0.25,0.55,0.44,0.54,0.54,0.25,0.55,0.44,0.26,0.26,0.25,0.55,0.44,0.48,0.48,0.25,0.55,0.48,0.37,0.5,0.54,0.54,0.37,0.25,0.25,0.55,0.26,0.54,0.44,0.26,0.54,0.54,0.26,0.54,0.48,0.25" style="fill:rgb(35,31,32);font-family:NewCaledonia;font-size:10.5px;stroke:none;">ing pregnant women, and all age groups, including </text>
   <text y="649.964" x="300.001,304.894,310.375,316.244,322.114,327.395,330.801,335.694,341.563,344.514,347.464,353.334,357.45,362.731,368.601,372.006,376.899,382.768,388.638,392.043,394.993,400.863,404.401,409.294,415.164,418.703,422.819,425.674,425.678" svgx:width="0.44,0.5,0.54,0.54,0.48,0.25,0.44,0.54,0.26,0.26,0.54,0.37,0.48,0.54,0.25,0.44,0.54,0.54,0.25,0.26,0.54,0.31,0.44,0.54,0.31,0.37,0.25,0.25,0.25" style="fill:rgb(35,31,32);font-family:NewCaledonia;font-size:10.5px;stroke:none;">young children and infants. </text>
   <text y="647.3" x="425.67,428.865" svgx:width="0.5,0.5" style="fill:rgb(35,31,32);font-family:NewCaledonia;font-size:6.12px;stroke:none;">15</text>
   <text y="649.925" x="432.061,432.064,432.067,435.472,442.318,448.188,453.469,456.875,463.91,469.391,474.872,480.741,484.146,489.039,494.909,500.778,504.183,512.972,517.088,522.957,528.008" svgx:width="0.25,0.25,0.25,0.63,0.54,0.48,0.25,0.65,0.5,0.5,0.54,0.25,0.44,0.54,0.54,0.25,0.81,0.37,0.54,0.48,0.25" style="fill:rgb(35,31,32);font-family:NewCaledonia;font-size:10.5px;stroke:none;"> The Food and Drug </text>
   <text y="661.927" x="300.003,307.038,312.907,321.696,324.646,330.516,333.466,337.582,341.121,345.237,350.13,353.668,356.619,362.1,367.969,370.594,371.413,374.364,380.233,382.858,383.677,387.216,393.085,398.367,400.992,401.811,410.011,415.881,418.831,422.37,427.651,433.521,436.146,436.965,442.834,446.373,451.266,454.804,460.086,464.202,466.827,467.646,473.515,478.408,482.524,485.149,485.968,490.861,496.731,502.6,506.716,512.197,517.09,522.372,528.01" svgx:width="0.65,0.54,0.81,0.26,0.54,0.26,0.37,0.31,0.37,0.44,0.31,0.26,0.5,0.54,0.25,0.55,0.26,0.54,0.25,0.55,0.31,0.54,0.48,0.25,0.55,0.76,0.54,0.26,0.31,0.48,0.54,0.25,0.55,0.54,0.31,0.44,0.31,0.48,0.37,0.25,0.55,0.54,0.44,0.37,0.25,0.55,0.44,0.54,0.54,0.37,0.5,0.44,0.48,0.54,0.25" style="fill:rgb(35,31,32);font-family:NewCaledonia;font-size:10.5px;stroke:none;">Administration in the United States has approved </text>
   <text y="673.928" x="300.003,304.948,313.401,318.346,322.126,327.072,332.017,337.551,342.108,346.665,349.109,354.642,358.422,363.368,365.812,370.957,374.16,376.604,379.219,384.752,387.955,391.735,396.292,400.849,405.794,411.328,416.473,422.006,425.786,428.231,433.764,438.71,442.49,447.047,455.499,458.114,462.671,465.285,469.065,471.51,474.712,479.857,483.637,486.081,489.284,493.064,498.009,502.566,505.769,514.221,519.167,524.701,528.008" svgx:width="0.48,0.81,0.48,0.37,0.48,0.48,0.54,0.44,0.44,0.25,0.54,0.37,0.48,0.25,0.5,0.31,0.25,0.26,0.54,0.31,0.37,0.44,0.44,0.48,0.54,0.5,0.54,0.37,0.25,0.54,0.48,0.37,0.44,0.81,0.26,0.44,0.26,0.37,0.25,0.31,0.5,0.37,0.25,0.31,0.37,0.48,0.44,0.31,0.81,0.48,0.54,0.31,0.25" style="fill:rgb(35,31,32);font-family:NewCaledonia;font-size:10.5px;stroke:none;">emergency use of intravenous peramivir for treatment </text>
   <text y="685.93" x="300.003,305.526,309.106,311.731,313.455,317.613,322.937,327.872,333.195,337.353,342.677,345.302,347.026,351.961,356.896,361.054,366.377,370.535,373.433,373.435" svgx:width="0.5,0.31,0.25,0.55,0.37,0.48,0.44,0.48,0.37,0.48,0.25,0.55,0.44,0.44,0.37,0.48,0.37,0.25,0.25,0.25" style="fill:rgb(35,31,32);font-family:NewCaledonia;font-size:10.5px;stroke:none;">of severe cases, </text>
   <text y="683.3" x="373.43,376.65" svgx:width="0.5,0.5" style="fill:rgb(35,31,32);font-family:NewCaledonia;font-size:6.12px;stroke:none;">28</text>
   <text y="685.925" x="379.87,379.872,379.874,382.499,384.223,391.689,397.6,402.924,407.082,412.405,417.34,421.498,424.123,425.847,430.593,435.528,441.44,446.375,455.205,458.198,463.133,466.125,470.283,472.908,474.632,480.544,484.702,489.637,492.262,493.986,499.897,505.42,512.886,518.797,524.121,528.006" svgx:width="0.25,0.25,0.25,0.55,0.69,0.54,0.48,0.37,0.48,0.44,0.37,0.25,0.55,0.43,0.44,0.54,0.44,0.81,0.26,0.44,0.26,0.37,0.25,0.55,0.54,0.37,0.44,0.25,0.55,0.54,0.5,0.69,0.54,0.48,0.37,0.25" style="fill:rgb(35,31,32);font-family:NewCaledonia;font-size:10.5px;stroke:none;"> whereas zanamivir dry powder </text>
   <text y="697.927" x="299.996,303.882,309.52,314.77,320.408,323.128,328.766,331.391,333.237,338.876,344.126,347.433,350.058,351.904,357.543,362.593,365.218,367.064,371.726,377.365,385.922,388.642,394.28,397.0,400.885,404.192,409.243,413.128,418.178,423.817,426.442,428.288,433.926,438.588,441.213,443.059,448.697,453.748,459.386,465.025,467.744,470.464,474.937,479.599,482.906,485.626,490.876,496.514,499.139,500.985,505.647,509.532,512.1569999999999,514.003,517.311,522.949,528.0" svgx:width="0.37,0.54,0.5,0.54,0.26,0.54,0.25,0.55,0.54,0.5,0.31,0.25,0.55,0.54,0.48,0.25,0.55,0.44,0.54,0.81,0.26,0.54,0.26,0.37,0.31,0.48,0.37,0.48,0.54,0.25,0.55,0.54,0.44,0.25,0.55,0.54,0.48,0.54,0.54,0.26,0.26,0.43,0.44,0.31,0.26,0.5,0.54,0.25,0.55,0.44,0.37,0.25,0.55,0.31,0.54,0.48,0.25" style="fill:rgb(35,31,32);font-family:NewCaledonia;font-size:10.5px;stroke:none;">should not be administered by nebulization as the </text>
   <text y="566.27" x="48.0,48.0" svgx:width="0.25,0.25" style="fill:rgb(35,31,32);font-family:NewCaledonia;font-size:8.5px;stroke:none;"> </text>
   <text y="566.27" x="48.0,53.194,56.024,61.218,66.411,71.137" svgx:width="0.65,0.33,0.61,0.61,0.56,0.56" style="fill:rgb(35,31,32);font-family:NewCaledonia-SC;font-size:8.5px;stroke:none;">Figure</text>
   <text y="566.27" x="75.863,75.863,78.275,82.525,84.65,87.063,89.893" svgx:width="0.25,0.25,0.5,0.25,0.25,0.33,0.25" style="fill:rgb(35,31,32);font-family:NewCaledonia;font-size:8.5px;stroke:none;"> 1. ( </text>
   <text y="566.27" x="89.888" svgx:width="0.65" style="fill:rgb(35,31,32);font-family:NewCaledonia-Italic;font-size:8.5px;stroke:none;">A</text>
   <text y="566.27" x="95.396,95.396,98.227,100.639,106.623,111.187,115.276,118.421,121.098,123.511,126.656,130.43,134.994,137.196,141.446,145.534,148.679,152.453,157.018,161.582,163.994,168.244,170.922,173.334,177.108,181.673,184.085,188.335,192.899,196.988,200.133,204.221,206.346,208.759,213.009,217.259,220.089,223.863,227.952,231.726,234.403,237.234,241.484,243.685,248.25,250.662,256.485,260.735,267.662,271.436,276.001" svgx:width="0.25,0.33,0.25,0.7,0.54,0.48,0.37,0.31,0.25,0.37,0.44,0.54,0.26,0.5,0.48,0.37,0.44,0.54,0.54,0.25,0.5,0.31,0.25,0.44,0.54,0.25,0.5,0.54,0.48,0.37,0.48,0.25,0.25,0.5,0.5,0.33,0.44,0.48,0.44,0.37,0.33,0.5,0.26,0.54,0.25,0.69,0.5,0.81,0.44,0.54,0.25" style="fill:rgb(35,31,32);font-family:NewCaledonia;font-size:8.5px;stroke:none;"> ) Chest radiograph of an obese, 23-year-old woman </text>
   <text y="575.271" x="48.0,50.831,56.5,64.371,67.678,69.803,71.377,75.627,79.877,82.002,83.576,87.664,91.753,94.116,101.043" svgx:width="0.33,0.67,0.93,0.39,0.25,0.55,0.5,0.5,0.25,0.55,0.48,0.48,0.28,0.81,0.25" style="fill:rgb(35,31,32);font-family:NewCaledonia;font-size:8.5px;stroke:none;">(BMI 31 kg/m </text>
   <text y="573.145" x="101.044" svgx:width="0.5" style="fill:rgb(35,31,32);font-family:NewCaledonia;font-size:4.96px;stroke:none;">2</text>
   <text y="575.27" x="103.521,103.523,106.353,108.478,110.603,112.177,116.742,121.306,125.395,127.52,129.094,133.659,137.433,141.997,144.122,145.696,147.898,152.462,154.74,157.02,161.585,165.673,170.238,173.859,177.633,179.758,181.332,184.477,188.251,195.178,199.743,202.42,206.67,213.598,215.723,217.297,221.547,226.111,229.256,233.345,236.022,238.147,239.722,243.972,248.536,250.661,252.235,255.38,259.945,262.146,265.92,268.045,269.62,273.87,275.995" svgx:width="0.25,0.33,0.25,0.25,0.55,0.54,0.54,0.48,0.25,0.55,0.54,0.44,0.54,0.25,0.55,0.26,0.54,0.54,0.25,0.54,0.48,0.54,0.43,0.44,0.25,0.55,0.37,0.44,0.81,0.54,0.31,0.5,0.81,0.25,0.55,0.5,0.54,0.37,0.48,0.31,0.25,0.55,0.5,0.54,0.25,0.55,0.37,0.54,0.26,0.44,0.25,0.55,0.5,0.25,0.25" style="fill:rgb(35,31,32);font-family:NewCaledonia;font-size:8.5px;stroke:none;"> ). She had inﬂ uenza symptom onset on July 8, </text>
   <text y="584.271" x="47.999,52.249,56.499,60.749,64.999,67.124,69.249,69.977,73.751,78.315,82.88,85.005,85.732,91.555,95.329,98.474,100.599,101.326,104.004,107.149,111.237,115.011,117.689,121.777,126.342,128.46699999999998,129.194,133.759,137.533,139.658,140.385,144.16,146.285,147.012,151.101,155.189,159.754,163.842,166.987,170.761,172.963,175.088,175.815,180.38,183.525,187.299,191.073,193.75,195.952,198.629,200.831,205.081,209.645,213.734,216.879,219.004,219.731,225.554,227.755,230.433,234.997,237.122,237.85,241.624,246.188,248.866,251.067,255.632,257.833,262.083,264.761,266.962,270.736,273.881,276.006" svgx:width="0.5,0.5,0.5,0.5,0.25,0.25,0.55,0.44,0.54,0.54,0.25,0.55,0.69,0.44,0.37,0.25,0.55,0.31,0.37,0.48,0.44,0.31,0.48,0.54,0.25,0.55,0.54,0.44,0.25,0.55,0.44,0.25,0.55,0.48,0.48,0.54,0.48,0.37,0.44,0.26,0.25,0.55,0.54,0.37,0.44,0.44,0.31,0.26,0.31,0.26,0.5,0.54,0.48,0.37,0.25,0.55,0.69,0.26,0.31,0.54,0.25,0.55,0.44,0.54,0.31,0.26,0.54,0.26,0.5,0.31,0.26,0.44,0.37,0.25,0.25" style="fill:rgb(35,31,32);font-family:NewCaledonia;font-size:8.5px;stroke:none;">2009, and was treated by a general practitioner with antibiotics. </text>
   <text y="593.273" x="47.999,53.337,55.375,58.979,63.374,67.292,70.267,72.775,74.813,77.788,81.392,85.787,87.818,91.898,95.817,98.792,102.396,106.79,111.185,113.223,115.73,119.334,123.253,127.171,131.566,133.604,137.684,142.079,144.117,147.092,151.487,153.518,157.122,159.16,163.24,167.32,169.275,171.314,175.394,179.474,183.554,187.634,189.589,191.627,194.602,198.996,203.076,208.729,212.647,217.042,219.08,223.475,225.506,227.538,231.142,233.649,237.568,240.543,244.147,246.178,248.217,254.974,257.006,261.4,263.438,267.042,271.437,276.001" svgx:width="0.65,0.25,0.44,0.54,0.48,0.37,0.31,0.25,0.37,0.44,0.54,0.26,0.5,0.48,0.37,0.44,0.54,0.54,0.25,0.31,0.44,0.48,0.48,0.54,0.25,0.5,0.54,0.25,0.37,0.54,0.26,0.44,0.25,0.5,0.5,0.25,0.25,0.5,0.5,0.5,0.5,0.25,0.25,0.37,0.54,0.5,0.69,0.48,0.54,0.25,0.54,0.26,0.26,0.44,0.31,0.48,0.37,0.44,0.26,0.25,0.81,0.26,0.54,0.25,0.44,0.54,0.54,0.25" style="fill:rgb(35,31,32);font-family:NewCaledonia;font-size:8.5px;stroke:none;">A chest radiograph taken on July 15, 2009, showed bilateral mid and </text>
   <text y="602.274" x="47.999,50.201,54.451,60.273,64.362,67.507,69.632,71.117,74.738,78.988,83.553,87.641,89.766,91.252,95.817,99.591,102.268,106.042,110.607,114.381,116.506,117.991,120.193,124.757,127.044,129.329,131.53,134.208,137.353,141.127,143.804,147.893,151.038,153.163,155.288,156.774,162.596,166.685,170.459,174.547,177.692,180.837,184.926,187.051,188.536,191.214,194.359,198.133,202.697,205.842,209.616,212.761,214.963,219.527,222.205,224.406,228.656,233.221,236.051,240.616,244.866,247.067,250.841,257.769,261.857,265.002,268.776,271.921,276.01" svgx:width="0.26,0.5,0.69,0.48,0.37,0.25,0.55,0.43,0.5,0.54,0.48,0.25,0.55,0.54,0.44,0.31,0.44,0.54,0.44,0.25,0.55,0.26,0.54,0.54,0.25,0.26,0.31,0.37,0.44,0.31,0.48,0.37,0.25,0.25,0.55,0.69,0.48,0.44,0.48,0.37,0.37,0.48,0.25,0.55,0.31,0.37,0.44,0.54,0.37,0.44,0.37,0.26,0.54,0.31,0.26,0.5,0.54,0.33,0.54,0.5,0.26,0.44,0.81,0.48,0.37,0.44,0.37,0.48,0.25" style="fill:rgb(35,31,32);font-family:NewCaledonia;font-size:8.5px;stroke:none;">lower zone patchy inﬁ ltrates. Reverse transcription-polymerase </text>
   <text y="611.276" x="47.999,51.773,56.338,60.112,62.313,66.878,69.003,70.05,73.195,77.283,81.057,84.831,87.509,89.71,93.96,98.525,100.65,101.697,104.527,110.197,114.923,117.753,122.794,128.778,134.6,137.431,139.556,140.603,143.281,146.426,150.676,157.603,159.728,160.775,163.453,168.017,172.106,174.231,175.278,179.843,183.617,186.762,191.012,195.576,200.141,203.915,207.06,210.834,215.398,219.487,223.575,227.349,229.551,231.676,232.723,236.497,239.642,244.206,246.408,249.553,253.327,256.004,260.093,262.218,263.265,269.087,272.861,276.006" svgx:width="0.44,0.54,0.44,0.26,0.54,0.25,0.55,0.37,0.48,0.44,0.44,0.31,0.26,0.5,0.54,0.25,0.55,0.33,0.69,0.63,0.33,0.59,0.7,0.69,0.33,0.25,0.55,0.31,0.37,0.5,0.81,0.25,0.55,0.31,0.54,0.48,0.25,0.55,0.54,0.44,0.37,0.5,0.54,0.54,0.44,0.37,0.44,0.54,0.48,0.48,0.44,0.26,0.25,0.55,0.44,0.37,0.54,0.26,0.37,0.44,0.31,0.48,0.25,0.55,0.69,0.44,0.37,0.25" style="fill:rgb(35,31,32);font-family:NewCaledonia;font-size:8.5px;stroke:none;">chain reaction (RT-PCR) from the nasopharyngeal aspirate was </text>
   <text y="620.277" x="47.999,52.564,56.814,59.959,62.16,64.838,67.039,70.813,74.902,76.796,79.474,83.724,86.869,88.763,91.441,96.005,100.094,101.988,106.553,110.327,114.891,119.456,123.544,130.472,132.673,136.447,138.342,143.85,146.681,153.608,157.858,164.471,168.721,171.552,173.446,177.22,179.422,182.567,187.131,190.276,192.401,194.296,200.747,203.892,207.981,210.182,212.86,216.634,223.561,225.763,229.537,231.738,234.883,236.778,241.028,245.278,249.528,251.423,258.35,262.439,264.333,269.068,271.439,276.004" svgx:width="0.54,0.5,0.37,0.26,0.31,0.26,0.44,0.48,0.25,0.31,0.5,0.37,0.25,0.31,0.54,0.48,0.25,0.54,0.44,0.54,0.54,0.48,0.81,0.26,0.44,0.25,0.65,0.33,0.81,0.5,0.78,0.5,0.33,0.25,0.44,0.26,0.37,0.54,0.37,0.25,0.25,0.76,0.37,0.48,0.26,0.31,0.44,0.81,0.26,0.44,0.26,0.37,0.25,0.5,0.5,0.5,0.25,0.81,0.48,0.25,0.54,0.26,0.54,0.25" style="fill:rgb(35,31,32);font-family:NewCaledonia;font-size:8.5px;stroke:none;">positive for the pandemic A(H1N1) virus. Oseltamivir 150 mg bid </text>
   <text y="629.279" x="47.999,53.992,57.936,61.251,63.376,65.959,69.274,72.121,76.065,79.38,82.228,86.486,91.221,93.346,95.929,100.349,105.083,107.208,109.791,113.106,117.841,120.212,124.156,126.281,128.865,133.285,137.705,140.0,142.125,144.708,149.128,153.548,157.968,162.388,164.683,166.808,169.391,172.391" svgx:width="0.69,0.44,0.37,0.25,0.55,0.37,0.31,0.44,0.37,0.31,0.48,0.54,0.25,0.55,0.5,0.54,0.25,0.55,0.37,0.54,0.26,0.44,0.25,0.55,0.5,0.5,0.25,0.25,0.55,0.5,0.5,0.5,0.5,0.25,0.25,0.55,0.33,0.25" style="fill:rgb(35,31,32);font-family:NewCaledonia;font-size:8.5px;stroke:none;">was started on July 15, 2009. ( </text>
   <text y="629.279" x="172.388" svgx:width="0.65" style="fill:rgb(35,31,32);font-family:NewCaledonia-Italic;font-size:8.5px;stroke:none;">B</text>
   <text y="629.279" x="178.066,178.066,181.066,183.191,185.775,192.872,197.131,200.446,205.18,207.552,210.399,214.658,216.783,219.366,222.213,225.528,229.787,233.731,236.578,243.676,247.934,252.669,255.516,257.64099999999996,260.224,266.217,268.588,271.436,276.0" svgx:width="0.25,0.33,0.25,0.55,0.81,0.48,0.37,0.54,0.26,0.31,0.48,0.25,0.55,0.31,0.37,0.48,0.44,0.31,0.81,0.48,0.54,0.31,0.25,0.55,0.69,0.26,0.31,0.54,0.25" style="fill:rgb(35,31,32);font-family:NewCaledonia;font-size:8.5px;stroke:none;"> ) Despite treatment with </text>
   <text y="638.28" x="47.999,52.733,55.105,59.363,64.098,67.098,71.833,76.253,79.568,83.826,86.302,90.722,94.037,98.295,100.667,103.514,107.458,114.556,116.927,120.871,123.243,126.558,129.033,132.977,137.711,142.446,144.921,148.236,152.971,157.705,162.44,164.811,169.07,176.167,180.426,185.16,188.008,191.952,194.323,196.798,201.218,204.848,208.792,213.05,217.309,222.043,224.338,226.814,231.548,235.807,239.122,241.597,245.541,249.961,254.695,259.43,261.801,264.649,267.02,271.44,276.005" svgx:width="0.54,0.26,0.48,0.54,0.33,0.54,0.5,0.37,0.48,0.25,0.5,0.37,0.48,0.26,0.31,0.44,0.81,0.26,0.44,0.26,0.37,0.25,0.44,0.54,0.54,0.25,0.37,0.54,0.54,0.54,0.26,0.48,0.81,0.48,0.54,0.31,0.44,0.26,0.25,0.5,0.41,0.44,0.48,0.48,0.54,0.25,0.25,0.54,0.48,0.37,0.25,0.44,0.5,0.54,0.54,0.26,0.31,0.26,0.5,0.54,0.25" style="fill:rgb(35,31,32);font-family:NewCaledonia;font-size:8.5px;stroke:none;">high-dose oseltamivir and supplemental oxygen, her condition </text>
   <text y="647.282" x="47.999,52.568,56.66,59.342,63.435,66.584,68.79,73.044,76.193,79.972,82.653,86.746,91.315,93.444,95.569,96.866,100.645,105.213,109.782,111.907,113.204,116.982,119.107,120.419,124.38,129.132,133.407,136.739,139.604,141.729,143.213,146.545,150.506,155.257,157.646,162.083,166.358,169.69,173.651,178.403,183.154,185.279,186.763,189.628,193.589,197.864,202.14,206.891,209.016,210.5,214.937,219.689,221.814,223.298,226.63,231.381,233.77,237.731,239.856,241.34,245.777,250.214,252.526,254.651,256.135,260.572,265.009,269.446,273.883,276.008" svgx:width="0.54,0.48,0.31,0.48,0.37,0.26,0.5,0.37,0.44,0.31,0.48,0.54,0.25,0.25,0.55,0.44,0.54,0.54,0.25,0.55,0.44,0.25,0.55,0.44,0.54,0.48,0.37,0.31,0.25,0.55,0.37,0.44,0.54,0.26,0.5,0.48,0.37,0.44,0.54,0.54,0.25,0.55,0.31,0.44,0.48,0.48,0.54,0.25,0.55,0.5,0.54,0.25,0.55,0.37,0.54,0.26,0.44,0.25,0.55,0.5,0.5,0.25,0.25,0.55,0.5,0.5,0.5,0.5,0.25,0.25" style="fill:rgb(35,31,32);font-family:NewCaledonia;font-size:8.5px;stroke:none;">deteriorated, and a chest radiograph taken on July 18, 2009, </text>
   <text y="656.283" x="47.999,51.059,55.538,59.703,65.441,69.444,73.924,75.791,80.27,82.387,84.503,88.192,90.785,94.788,97.848,101.537,103.654,105.52,109.209,113.689,118.168,120.035,124.038,127.413,130.005,134.009,138.488,141.548,143.665,147.354,151.357,153.224,156.913,161.078,165.557,168.617,172.782,174.899,177.015,181.495,185.184,187.776,189.893,194.058,198.537,200.577,202.444,206.923,211.403,215.406,217.273,220.333,224.337,228.816,233.296,235.412,238.472,242.476,246.955,248.822,250.938,255.418,259.107,262.796,265.941,268.142,271.916,276.005" svgx:width="0.37,0.54,0.5,0.69,0.48,0.54,0.25,0.54,0.26,0.26,0.44,0.31,0.48,0.37,0.44,0.26,0.25,0.44,0.54,0.54,0.25,0.48,0.41,0.31,0.48,0.54,0.37,0.26,0.44,0.48,0.25,0.44,0.5,0.54,0.37,0.5,0.26,0.26,0.54,0.44,0.31,0.26,0.5,0.54,0.25,0.25,0.54,0.54,0.48,0.25,0.37,0.48,0.54,0.54,0.26,0.37,0.48,0.54,0.25,0.26,0.54,0.44,0.44,0.37,0.26,0.44,0.48,0.25" style="fill:rgb(35,31,32);font-family:NewCaledonia;font-size:8.5px;stroke:none;">showed bilateral and extensive consolidation. She required invasive </text>
   <text y="665.285" x="47.999,54.841,58.845,62.534,67.013,70.702,75.182,77.299,80.988,84.677,86.793,88.4,92.089,96.093,100.572,103.165,105.281,107.398,111.087,113.679,115.796,119.961,124.44,126.048,128.793,132.015,139.801,145.071,147.816,149.424,153.589,158.068,159.675,162.735,167.215,169.331,173.02,174.619,178.784,182.949,184.989,186.597,190.762,194.927,199.092,203.257,205.297,206.904,212.641,214.758,217.35,221.83,223.429,225.545,230.025,234.504,238.508,241.253,245.733,248.793,252.958,255.55,259.554,263.243,265.92,268.122,271.896,275.984" svgx:width="0.81,0.48,0.44,0.54,0.44,0.54,0.26,0.44,0.44,0.26,0.25,0.44,0.48,0.54,0.31,0.26,0.26,0.44,0.31,0.26,0.5,0.54,0.25,0.33,0.39,0.93,0.63,0.33,0.25,0.5,0.54,0.25,0.37,0.54,0.26,0.44,0.25,0.5,0.5,0.25,0.25,0.5,0.5,0.5,0.5,0.25,0.25,0.69,0.26,0.31,0.54,0.25,0.26,0.54,0.54,0.48,0.33,0.54,0.37,0.5,0.31,0.48,0.44,0.31,0.26,0.44,0.48,0.25" style="fill:rgb(35,31,32);font-family:NewCaledonia;font-size:8.5px;stroke:none;">mechanical ventilation (IMV) on July 18, 2009, with lung-protective </text>
   <text y="674.286" x="47.99,51.764,55.853,60.417,63.095,65.296,67.498,71.272,73.949,76.151,80.401,84.965,87.566,90.711,93.388,96.533,100.307,102.985,107.073,111.162,114.936,117.536,121.31,125.874,130.439,133.039,136.813,141.063,145.627,148.772,152.861,156.006,159.78,163.554,166.231,168.433,172.207,176.295,178.896,181.174,183.459,188.024,190.225,194.79,197.39,204.317,208.091,212.656,216.43,220.518,224.607,231.534,235.623,240.187,242.865,244.99,247.59,250.421" svgx:width="0.44,0.48,0.54,0.31,0.26,0.26,0.44,0.31,0.26,0.5,0.54,0.25,0.37,0.31,0.37,0.44,0.31,0.48,0.48,0.44,0.25,0.44,0.54,0.54,0.25,0.44,0.5,0.54,0.37,0.48,0.37,0.44,0.44,0.31,0.26,0.44,0.48,0.25,0.54,0.25,0.54,0.26,0.54,0.25,0.81,0.44,0.54,0.44,0.48,0.48,0.81,0.48,0.54,0.31,0.25,0.25,0.33,0.25" style="fill:rgb(35,31,32);font-family:NewCaledonia;font-size:8.5px;stroke:none;">ventilation strategy and conservative ﬂ uid management. ( </text>
   <text y="674.286" x="250.418" svgx:width="0.7" style="fill:rgb(35,31,32);font-family:NewCaledonia-Italic;font-size:8.5px;stroke:none;">C</text>
   <text y="674.286" x="256.402,256.402,259.233,261.834,268.761,272.85,275.995" svgx:width="0.25,0.33,0.25,0.81,0.48,0.37,0.25" style="fill:rgb(35,31,32);font-family:NewCaledonia;font-size:8.5px;stroke:none;"> ) Her </text>
   <text y="683.288" x="47.99,51.679,55.844,60.324,64.803,66.92,69.512,71.629,75.794,80.273,82.25,84.366,91.209,95.688,98.748,102.913,106.602,110.606,115.085,117.062,119.654,123.819,125.936,128.052,132.217,137.954,140.071,144.551,148.554,150.53,152.647,157.126,159.719,163.722,168.202,171.262,173.378,177.067,181.071,183.047,186.736,190.425,193.485,197.488,199.465,202.525,207.004,211.484,215.963,220.128,223.188,225.781,227.757,231.446,235.926,240.405,242.381,246.861,248.977,252.981,257.46,260.206,264.685,268.85,271.91,275.999" svgx:width="0.44,0.5,0.54,0.54,0.26,0.31,0.26,0.5,0.54,0.25,0.26,0.81,0.54,0.37,0.5,0.44,0.48,0.54,0.25,0.31,0.5,0.26,0.26,0.5,0.69,0.26,0.54,0.48,0.25,0.26,0.54,0.31,0.48,0.54,0.37,0.26,0.44,0.48,0.25,0.44,0.44,0.37,0.48,0.25,0.37,0.54,0.54,0.54,0.5,0.37,0.31,0.25,0.44,0.54,0.54,0.25,0.54,0.26,0.48,0.54,0.33,0.54,0.5,0.37,0.48,0.25" style="fill:rgb(35,31,32);font-family:NewCaledonia;font-size:8.5px;stroke:none;">condition improved following intensive care support and high-dose </text>
   <text y="692.289" x="47.99,52.24,55.385,59.474,61.675,64.353,68.127,75.054,77.256,81.03,83.231,86.376,88.243,90.921,95.171,98.316,100.182,104.432,108.682,110.549,115.113,118.887,122.661,125.806,127.931,129.798,134.362,138.927,143.015,144.882,150.704,154.478,157.623,159.49,163.579,167.038,169.716,174.28,178.845,182.619,185.296,189.385,193.949,195.816,200.066,204.63,206.497,209.642,214.206,216.408,220.182,222.048,226.298,230.548,232.673,234.54,238.79,243.04,247.29,251.54,253.665,255.532,261.516,266.08,270.169,273.314,275.991" svgx:width="0.5,0.37,0.48,0.26,0.31,0.44,0.81,0.26,0.44,0.26,0.37,0.25,0.31,0.5,0.37,0.25,0.5,0.5,0.25,0.54,0.44,0.44,0.37,0.25,0.25,0.54,0.54,0.48,0.25,0.69,0.44,0.37,0.25,0.48,0.41,0.31,0.54,0.54,0.44,0.31,0.48,0.54,0.25,0.5,0.54,0.25,0.37,0.54,0.26,0.44,0.25,0.5,0.5,0.25,0.25,0.5,0.5,0.5,0.5,0.25,0.25,0.7,0.54,0.48,0.37,0.31,0.25" style="fill:rgb(35,31,32);font-family:NewCaledonia;font-size:8.5px;stroke:none;">oseltamivir for 10 days. She was extubated on July 24, 2009. Chest </text>
   <text y="701.291" x="47.99,51.135,54.909,59.474,61.675,65.925,70.014,73.159,76.933,81.497,86.062,87.999,90.677,94.451,98.539,102.628,107.192,109.129,113.379,117.944,119.881,123.026,127.59,129.792,133.566,135.503,139.753,144.003,146.128,148.065,152.315,156.565,160.815,165.065,167.19,169.127,172.272,176.837,181.087,186.909,190.998,195.562,197.5,204.427,208.201,211.346,215.435,219.523,224.088,226.025,229.799,232.0,236.089,239.863,243.008,245.209,249.774,253.862,255.799,260.049,262.727,264.664,267.341,271.906,275.995" svgx:width="0.37,0.44,0.54,0.26,0.5,0.48,0.37,0.44,0.54,0.54,0.25,0.31,0.44,0.48,0.48,0.54,0.25,0.5,0.54,0.25,0.37,0.54,0.26,0.44,0.25,0.5,0.5,0.25,0.25,0.5,0.5,0.5,0.5,0.25,0.25,0.37,0.54,0.5,0.69,0.48,0.54,0.25,0.81,0.44,0.37,0.48,0.48,0.54,0.25,0.44,0.26,0.48,0.44,0.37,0.26,0.54,0.48,0.25,0.5,0.31,0.25,0.31,0.54,0.48,0.25" style="fill:rgb(35,31,32);font-family:NewCaledonia;font-size:8.5px;stroke:none;">radiograph taken on July 29, 2009, showed marked clearing of the </text>
   <text y="710.292" x="47.99,50.192,54.756,59.321,63.409,65.534,69.308,73.558,78.123,81.268,85.518,87.719,89.921,94.485,98.259,100.937,103.138,107.388,111.953,114.078,114.078,114.078" svgx:width="0.26,0.54,0.54,0.48,0.25,0.44,0.5,0.54,0.37,0.5,0.26,0.26,0.54,0.44,0.31,0.26,0.5,0.54,0.25,0.25,0.25,0.25" style="fill:rgb(35,31,32);font-family:NewCaledonia;font-size:8.5px;stroke:none;">lung consolidation. </text>
  </g>
  <rect style="stroke:blue;stroke-width:0.3;" x="48.294" y="67.904" height="506.592" width="227.412" title="4"/>
  <text y="67.904" class="image" id="image.4.1" width="227" height="506" x="48.294">image.4.1.48_276.68_574</text>
  <path style="fill:none;stroke:rgb(35,31,32);stroke-width:1.0;" d="M180.000 290.400 "/>
  <g begin="text">
   <text y="763.0" x="192.648,195.152,201.784,204.288,209.291,214.294,219.297,224.3,226.804,232.806,240.302,245.305,248.301,250.298,254.797,259.801,264.804,267.307,273.805,278.808,280.805,282.802,287.805,292.808,297.811,300.315,305.318,307.819,310.323,316.82,321.823,326.826,331.326,333.827,336.33,342.333,347.336,351.835,356.334,358.331,362.83,364.827,369.83,374.833" svgx:width="0.28,0.74,0.28,0.56,0.56,0.56,0.56,0.28,0.67,0.83,0.56,0.33,0.22,0.5,0.56,0.56,0.28,0.72,0.56,0.22,0.22,0.56,0.56,0.56,0.28,0.56,0.28,0.28,0.72,0.56,0.56,0.5,0.28,0.28,0.67,0.56,0.5,0.5,0.22,0.5,0.22,0.56,0.56,0.5" style="fill:rgb(0,0,0);font-family:ArialMT;font-size:9.0px;stroke:none;"> © 2010 American College of Chest Physicians</text>
   <text y="754.0" x="300.009,302.513,307.516,312.015,314.519,320.521,322.518,330.014,335.017,340.02,343.016,345.014,349.513,352.017,358.514,363.517,368.52,371.516,373.513,378.012,382.511,387.01,389.514,394.517,399.52,402.024,408.026,413.029,416.026,418.023,420.02,422.524,427.527,430.028,432.532,437.535,442.538,447.541" svgx:width="0.28,0.56,0.5,0.28,0.67,0.22,0.83,0.56,0.56,0.33,0.22,0.5,0.28,0.72,0.56,0.56,0.33,0.22,0.5,0.5,0.5,0.28,0.56,0.56,0.28,0.67,0.56,0.33,0.22,0.22,0.28,0.56,0.28,0.28,0.56,0.56,0.56,0.56" style="fill:rgb(0,0,0);font-family:ArialMT;font-size:9.0px;stroke:none;"> by Kimberly Henricks on April 7, 2010</text>
   <text y="754.0" x="192.459,196.958,201.961,206.964,211.463,213.965,215.962,220.965,225.968,228.964,233.967,238.97,240.967,243.468,247.967,252.97,257.974,262.473,264.974,269.977,274.98,279.983,284.482,286.983,291.986,294.983" svgx:width="0.5,0.56,0.56,0.5,0.28,0.22,0.56,0.56,0.33,0.56,0.56,0.22,0.28,0.5,0.56,0.56,0.5,0.28,0.56,0.56,0.56,0.5,0.28,0.56,0.33,0.56" style="fill:rgb(0,0,255);font-family:ArialMT;font-size:9.0px;stroke:none;">chestjournal.chestpubs.org</text>
   <text y="754.0" x="119.433,125.93,130.933,137.43,142.433,144.431,149.434,154.437,159.44,164.443,169.446,171.95,174.451,177.447,182.45,189.946" svgx:width="0.72,0.56,0.72,0.56,0.22,0.56,0.56,0.56,0.56,0.56,0.28,0.28,0.33,0.56,0.83,0.28" style="fill:rgb(0,0,0);font-family:ArialMT;font-size:9.0px;stroke:none;">Downloaded from </text>
  </g>
 </g>
</svg>
