<?xml version="1.0" encoding="UTF-8"?>
<svg height="779.549" width="562.7900000000001" xmlns="http://www.w3.org/2000/svg">
 <g id="page" xmlns:svgx="http://www.xml-cml.org/schema/svgx">
  <g begin="text">
   <text y="671.471" x="164.409,169.935,174.714,179.394,182.67,184.64999999999998,188.561,193.241,198.11,200.36,204.104,207.38,210.62,214.357,217.075,221.854,225.63400000000001,229.494,233.994,236.712,241.491,245.235,248.47500000000002,252.455,255.074,258.804,262.548,265.266,269.766,273.042,276.282,280.235,282.485,284.825,287.889,290.607,294.35,299.03000000000003,302.969,306.902,311.402,315.669,319.637,323.417,327.29,329.63,334.499,339.179,341.519,345.263,349.005,351.723,355.503,359.38,363.88,366.598,371.377,375.121,378.397,384.49,386.83,390.106,393.85,395.83000000000004,399.747,403.023,407.703,412.383,415.101,419.781,427.071,430.986,434.262,441.57,445.314,449.247,452.523,455.709,460.578,464.322,468.444,472.203,474.921,477.261,481.161,484.941,488.814,494.34,499.56,503.498,506.774,511.454,514.73,519.41,523.154,526.898,529.616,532.856,536.835,542.928,545.268,547.986" svgx:width="0.61,0.53,0.52,0.36,0.22,0.55,0.52,0.54,0.25,0.42,0.36,0.36,0.55,0.3,0.53,0.42,0.55,0.5,0.3,0.53,0.42,0.36,0.55,0.29,0.44,0.42,0.3,0.5,0.36,0.36,0.55,0.25,0.26,0.36,0.3,0.42,0.52,0.55,0.44,0.5,0.5,0.46,0.42,0.55,0.26,0.54,0.52,0.26,0.42,0.44,0.3,0.42,0.55,0.5,0.3,0.53,0.42,0.36,0.68,0.26,0.36,0.42,0.22,0.55,0.36,0.52,0.52,0.3,0.52,0.81,0.55,0.36,0.81,0.42,0.44,0.36,0.35,0.54,0.42,0.46,0.44,0.3,0.26,0.46,0.42,0.55,0.61,0.58,0.55,0.36,0.52,0.36,0.52,0.42,0.42,0.3,0.36,0.55,0.68,0.26,0.3,0.53" style="fill:rgb(35,31,32);font-family:AdvOT1ef757c0;font-size:9.0px;stroke:none;">Thus, unless the other factors listed above indicate otherwise, sputum smear-negative TB suspects with</text>
   <text y="682.47" x="164.409,168.718,173.309,177.629,180.793,185.662,189.406,193.528,197.234,199.952,202.292,206.249,210.029,213.165,218.223,224.127,229.61700000000002,232.781,235.9,239.644,242.92,247.6,249.85,252.568,255.80800000000002,258.975,266.283,270.031,274.171,277.344,279.684,286.992,294.3,298.044,302.724,305.064,308.81,311.528,315.272,317.522,321.662,324.798,329.298,333.078,336.193,339.312,343.056,350.364,354.676,358.587,362.331,367.011,370.153,372.772,375.879,380.379,387.66900000000004,390.846,393.186,396.462,400.962,403.212,406.947,409.665,412.005,416.505,421.374,423.35400000000004,426.507,432.69,434.94,437.658,442.436,446.936,451.616,455.738,460.508,463.641,466.359,471.138,474.91799999999995,478.041,483.846,488.526,492.27,495.546,498.246,501.457,509.422,514.948,520.195,523.093,528.619,531.616,536.2959999999999,539.272,543.205,548.074" svgx:width="0.48,0.51,0.48,0.55,0.54,0.42,0.46,0.44,0.3,0.26,0.46,0.42,0.55,0.56,0.66,0.61,0.55,0.36,0.42,0.36,0.52,0.25,0.3,0.36,0.55,0.81,0.44,0.46,0.55,0.26,0.81,0.81,0.42,0.52,0.26,0.44,0.3,0.42,0.25,0.46,0.55,0.5,0.42,0.55,0.36,0.42,0.81,0.5,0.46,0.42,0.52,0.55,0.29,0.36,0.5,0.81,0.55,0.26,0.36,0.5,0.25,0.44,0.3,0.26,0.5,0.54,0.22,0.55,0.69,0.25,0.3,0.53,0.5,0.52,0.46,0.53,0.55,0.3,0.53,0.42,0.55,0.64,0.52,0.42,0.36,0.3,0.55,0.88,0.61,0.58,0.32,0.61,0.33,0.52,0.55,0.44,0.54,0.52" style="fill:rgb(35,31,32);font-family:AdvOT1ef757c0;font-size:9.0px;stroke:none;">1–2 negative PCR results may immediately be removed from isolation. Although the Xpert MTB/RIF and</text>
   <text y="693.468" x="164.408,166.748,169.466,172.70600000000002,176.258,179.534,184.214,187.958,191.702,195.446,198.722,201.998,206.498,209.774,211.754,215.264,217.982,222.761,226.541,230.004,233.748,237.714,241.458,246.318,249.846,257.154,261.654,264.701,268.481,271.958,275.234,278.978,283.847,287.123,289.463,292.181,294.521,298.49,302.27,305.747,311.552,316.232,319.976,323.252,325.952,329.503,337.468,342.994,348.241,351.139,356.665,359.662,364.342,367.828,374.389,376.639,379.357,382.456,386.416,389.939,394.718,398.444,402.355,406.135,409.612,414.112,417.856,421.6,426.46000000000004,430.022,433.084,436.828,440.572,445.072,452.38,459.688,463.432,468.301,472.981,476.725,481.40500000000003,484.96,488.893,492.133,495.675,500.355,502.695,506.628,510.75,515.619,520.119,523.229,525.947,528.287,532.067,535.532,538.25,542.75,547.25,549.5" svgx:width="0.26,0.3,0.36,0.55,0.36,0.52,0.42,0.42,0.42,0.36,0.36,0.5,0.36,0.22,0.55,0.3,0.53,0.42,0.55,0.42,0.46,0.42,0.54,0.55,0.81,0.5,0.36,0.42,0.55,0.36,0.42,0.54,0.36,0.26,0.3,0.26,0.46,0.42,0.55,0.64,0.52,0.42,0.36,0.3,0.55,0.88,0.61,0.58,0.32,0.61,0.33,0.52,0.55,0.73,0.25,0.3,0.36,0.44,0.55,0.53,0.44,0.46,0.42,0.55,0.5,0.42,0.42,0.54,0.55,0.36,0.42,0.42,0.5,0.81,0.81,0.42,0.54,0.52,0.42,0.52,0.55,0.44,0.36,0.55,0.52,0.26,0.44,0.46,0.54,0.5,0.36,0.3,0.26,0.42,0.55,0.3,0.5,0.5,0.25,0.36" style="fill:rgb(35,31,32);font-family:AdvOT1ef757c0;font-size:9.0px;stroke:none;">its successor, the even more sensitive Xpert MTB/RIF Ultra have been recommended as diagnostic tools</text>
   <text y="704.466" x="164.408,167.027,171.527,174.767,177.901,182.581,186.325,189.043,192.787,196.531,199.249,201.589,206.458,210.598,213.675,221.64,227.166,232.386,235.503,239.247,242.523,247.203,250.947,254.691,257.031,260.964,263.214,265.464,269.604,272.695,275.035,279.89500000000004,283.013,286.289,293.597,297.341,301.274,304.55,307.736,312.605,316.349,320.471,324.231,326.949,329.289,333.245,336.989,338.969,342.033,345.777,350.457,352.707,355.424,360.104,363.236,366.98,370.166,374.846,379.346,382.622,384.962,387.68,390.02,393.965,397.74499999999995,400.768,404.044,408.724,412.468,416.212,418.552,425.86,429.604,434.473,437.713,440.908,445.408,449.548,452.588,455.306,460.085,463.86499999999995,466.931,475.643,482.483,489.14300000000003,492.216,495.303,499.614,503.925,507.012,508.992,512.085,514.803,519.582,523.31,526.01,529.15,533.65,538.33,541.048,543.388,547.888" svgx:width="0.29,0.5,0.36,0.55,0.52,0.42,0.3,0.42,0.42,0.3,0.26,0.54,0.46,0.55,0.88,0.61,0.58,0.55,0.42,0.36,0.52,0.42,0.42,0.26,0.44,0.25,0.25,0.46,0.55,0.26,0.54,0.55,0.36,0.81,0.42,0.44,0.36,0.35,0.54,0.42,0.46,0.44,0.3,0.26,0.46,0.42,0.22,0.55,0.42,0.52,0.25,0.3,0.52,0.36,0.42,0.35,0.52,0.5,0.36,0.26,0.3,0.26,0.46,0.42,0.55,0.36,0.52,0.42,0.42,0.26,0.81,0.42,0.54,0.36,0.55,0.5,0.46,0.55,0.3,0.53,0.42,0.55,0.97,0.76,0.74,0.55,0.34,0.48,0.48,0.34,0.22,0.55,0.3,0.53,0.44,0.3,0.55,0.5,0.52,0.3,0.26,0.5,0.54" style="fill:rgb(35,31,32);font-family:AdvOT1ef757c0;font-size:9.0px;stroke:none;">for detecting MTB especially in smear-negative, culture-positive specimens by the WHO [28], that option</text>
   <text y="715.464" x="164.408,166.748,169.988,173.706,178.386,181.473,185.217,188.493,192.237,197.106,199.824,203.568,208.24800000000002,211.975,216.475,221.344,223.594,227.73399999999998,231.422,233.762,238.622,242.307,245.025,249.804,253.584,257.274,263.925,267.649,270.367,272.707,277.207,282.076,286.009,288.259,291.971,297.497,302.71700000000004,306.428,312.153,316.653,321.522,324.24,327.29,331.79,334.04,336.29,340.034,343.31,346.55,350.309,356.492,359.768,363.044,367.544,371.288,373.628,377.352,380.07,382.41,386.91,391.77000000000004,395.494,399.238,403.738,408.607,411.883,415.627,420.496,423.772,428.452,431.692,435.407,438.526,441.244,444.989,447.707,451.451,458.759,462.503,467.372,470.09,472.07,475.774,481.3,486.079,489.823,492.896,496.64,499.259,503.759,506.843,510.587,512.567,516.254,518.972,523.751,527.531,531.221,533.84,538.52,541.238,545.918,548.967" svgx:width="0.26,0.36,0.55,0.52,0.36,0.42,0.36,0.42,0.54,0.3,0.42,0.52,0.55,0.5,0.54,0.25,0.46,0.55,0.26,0.54,0.55,0.3,0.53,0.42,0.55,0.74,0.44,0.3,0.26,0.5,0.54,0.44,0.25,0.55,0.61,0.58,0.55,0.66,0.5,0.54,0.3,0.36,0.5,0.25,0.25,0.42,0.36,0.36,0.55,0.69,0.36,0.36,0.5,0.42,0.26,0.44,0.3,0.26,0.5,0.54,0.55,0.42,0.5,0.54,0.36,0.42,0.54,0.36,0.52,0.36,0.55,0.36,0.3,0.44,0.3,0.42,0.81,0.42,0.54,0.3,0.22,0.55,0.61,0.53,0.42,0.36,0.42,0.29,0.5,0.36,0.42,0.22,0.55,0.3,0.53,0.42,0.55,0.29,0.52,0.3,0.52,0.36,0.42" style="fill:rgb(35,31,32);font-family:AdvOT1ef757c0;font-size:9.0px;stroke:none;">is presented only in the National TB Controllers Association consensus statement. Therefore, the future</text>
   <text y="726.462" x="164.408,167.527,172.027,174.277,178.057,181.133,185.633,188.24300000000002,191.395,194.113,198.892,202.672,205.738,211.543,216.223,219.967,223.243,225.94299999999998,229.097,233.03,237.899,242.579,245.708,250.208,252.926,257.705,261.449,264.689,267.876,272.655,274.995,279.117,283.896,286.146,290.286,293.218,296.494,300.238,305.107,308.383,310.723,313.441,315.781,319.694,323.438,325.418,328.539,335.847,340.347,343.449,346.149,349.288,352.407,356.151,359.895,363.639,368.508,371.226,373.476,377.616,380.697,389.409,396.249,402.9,406.086,409.83,414.699,419.379,423.879,427.155,430.431,434.175,438.855,442.041,447.099,453.003,458.493,461.658,464.376,468.12,471.182,473.9,477.14,480.31,483.397,487.708,492.019,495.079,498.194,500.813,505.313,508.553,511.744,514.862,518.606,525.914,530.226,534.348,536.688,541.557,545.697,548.765" svgx:width="0.36,0.5,0.25,0.42,0.55,0.5,0.29,0.55,0.3,0.53,0.42,0.55,0.64,0.52,0.42,0.36,0.3,0.55,0.44,0.54,0.52,0.55,0.5,0.3,0.53,0.42,0.36,0.55,0.53,0.26,0.46,0.53,0.25,0.46,0.55,0.36,0.42,0.54,0.36,0.26,0.3,0.26,0.46,0.42,0.22,0.55,0.81,0.5,0.36,0.3,0.55,0.36,0.42,0.42,0.42,0.54,0.3,0.25,0.46,0.55,0.97,0.76,0.74,0.35,0.42,0.54,0.52,0.5,0.36,0.36,0.42,0.52,0.55,0.56,0.66,0.61,0.55,0.3,0.42,0.36,0.3,0.36,0.55,0.34,0.48,0.48,0.34,0.55,0.29,0.5,0.36,0.55,0.36,0.42,0.81,0.5,0.46,0.26,0.54,0.46,0.55,0.44" style="fill:rgb(35,31,32);font-family:AdvOT1ef757c0;font-size:9.0px;stroke:none;">role of the Xpert and other highly sensitive, most recently WHO-endorsed PCR tests [29] for removing a</text>
   <text y="737.46" x="164.408,169.088,172.856,175.574,177.914,181.658,186.527,189.22699999999998,191.905,194.524,197.631,202.131,209.421,212.144,214.484,217.76,222.26,224.51,228.245,230.963,233.303,237.803,242.663,245.367,252.675,257.355,260.447,263.147,265.89,270.57,273.846,277.968,281.712,286.581,289.299,291.549,295.68899999999996,298.376,302.876,306.65599999999995,309.318,313.062,316.121,318.839,322.772,327.272,329.522,331.862,335.138,339.917,343.661,348.341,351.045,353.385,358.245,360.967,365.467,368.086,370.705,373.045,376.789,379.129,383.062,385.312,388.01,391.754,396.254,400.934,405.803,408.521,411.797,415.937,418.625,422.747,427.427,429.767,434.447,438.191,440.441,442.781,447.65,451.394,454.67" svgx:width="0.52,0.44,0.3,0.26,0.42,0.54,0.3,0.55,0.29,0.36,0.5,0.81,0.55,0.26,0.36,0.5,0.25,0.44,0.3,0.26,0.5,0.54,0.55,0.81,0.52,0.36,0.3,0.55,0.52,0.36,0.46,0.42,0.54,0.3,0.25,0.46,0.55,0.5,0.42,0.55,0.42,0.36,0.3,0.44,0.5,0.25,0.26,0.36,0.53,0.42,0.52,0.55,0.26,0.54,0.55,0.5,0.29,0.29,0.26,0.42,0.26,0.44,0.25,0.55,0.42,0.5,0.52,0.54,0.3,0.36,0.46,0.55,0.46,0.52,0.26,0.52,0.42,0.25,0.26,0.54,0.42,0.36,0.22" style="fill:rgb(35,31,32);font-family:AdvOT1ef757c0;font-size:9.0px;stroke:none;">patient from isolation must urgently be established in official country guidelines.</text>
  </g>
  <g begin="text">
   <text y="83.225" x="42.86,47.338,52.774,58.768,63.916,69.226,71.943,76.62299999999999,79.37,84.869,89.549,97.424,102.293,106.973,110.717,112.967,117.368,122.048,126.998,129.714,134.394,137.184,139.919,144.788,149.756,152.006,156.875,161.555,164.174,166.424,171.392,176.072,180.482,183.178,187.858,192.808,195.537,199.938,204.618,207.237,211.917,216.318,219.216,223.896,228.756,231.481,236.35,239.928,244.608,248.319,252.999,257.967,260.865,263.115,266.915,271.595,274.285,282.16,286.84,291.52,295.921,300.889,304.447,309.126,313.536,316.239,319.047,323.727,327.50699999999995,330.186,335.055,338.576,343.256,346.154,350.834,355.235,358.133,360.383,365.063,370.013,372.763,377.443,382.312,386.992,389.242,394.21,398.445" svgx:width="0.54,0.6,0.67,0.57,0.59,0.55,0.52,0.55,0.63,0.52,0.88,0.54,0.52,0.42,0.25,0.49,0.52,0.55,0.55,0.52,0.31,0.55,0.54,0.55,0.25,0.54,0.52,0.29,0.25,0.55,0.52,0.49,0.55,0.52,0.55,0.55,0.49,0.52,0.29,0.52,0.49,0.32,0.52,0.54,0.55,0.54,0.42,0.52,0.44,0.52,0.55,0.32,0.25,0.44,0.52,0.55,0.88,0.52,0.52,0.49,0.55,0.42,0.52,0.49,0.55,0.31,0.52,0.42,0.55,0.54,0.42,0.52,0.32,0.52,0.49,0.32,0.25,0.52,0.55,0.55,0.52,0.54,0.52,0.25,0.55,0.49,0.32" style="fill:rgb(255,255,255);font-family:AdvOT1c339561;font-size:9.0px;stroke:none;">TABLE 2 Comparison of guidelines on selected preventive measures for protection against</text>
   <text y="83.225" x="404.051,410.98,414.724,418.846,423.346,427.936,432.228,436.35,439.158,443.658,447.213,449.364,454.143,461.613,464.317,467.125,471.904,476.494,480.994,484.387,488.509,493.288,495.439,499.939,504.151,506.302" svgx:width="0.77,0.42,0.46,0.5,0.51,0.5,0.46,0.31,0.5,0.4,0.24,0.53,0.83,0.55,0.31,0.53,0.51,0.5,0.4,0.46,0.53,0.24,0.5,0.47,0.24,0.47" style="fill:rgb(255,255,255);font-family:AdvOT24d7ec87;font-size:9.0px;stroke:none;">Mycobacterium tuberculosis</text>
   <text y="83.225" x="513.185,515.435" svgx:width="0.25,0.55" style="fill:rgb(255,255,255);font-family:AdvOT1c339561;font-size:9.0px;stroke:none;">in</text>
   <text y="94.223" x="42.86,47.828,52.508,56.909,61.778,64.028,66.926,71.606,74.225,78.63499999999999,81.356,85.757,90.437,95.306,99.986,103.523,108.002,110.9,115.58,120.44,123.196,128.065,132.025,134.705,137.603,142.283,147.152,149.402,153.803" svgx:width="0.55,0.52,0.49,0.54,0.25,0.32,0.52,0.29,0.49,0.55,0.49,0.52,0.54,0.52,0.42,0.52,0.32,0.52,0.54,0.55,0.54,0.44,0.55,0.32,0.52,0.54,0.25,0.49,0.49" style="fill:rgb(255,255,255);font-family:AdvOT1c339561;font-size:9.0px;stroke:none;">hospitals separated by topics</text>
   <text y="114.01" x="42.86,47.891,52.353,54.459,58.764,62.984,65.496,67.602,72.063,76.283,80.183" svgx:width="0.64,0.57,0.27,0.55,0.54,0.32,0.27,0.57,0.54,0.5,0.4" style="fill:rgb(35,31,32);font-family:AdvOT47d13e92.B;font-size:7.8px;stroke:none;">Guidelines/</text>
   <text y="123.818" x="50.853,54.198,58.418,62.154,66.374,73.199,80.024,84.244,88.706,93.011,97.057,99.733,101.839,106.059,110.52" svgx:width="0.45,0.54,0.48,0.54,0.88,0.88,0.54,0.57,0.55,0.53,0.34,0.27,0.54,0.57,0.5" style="fill:rgb(35,31,32);font-family:AdvOT47d13e92.B;font-size:7.8px;stroke:none;">recommendations</text>
   <text y="114.01" x="160.384,167.287,172.568,177.482,179.886,182.811,187.031,189.137,191.508,195.728,198.692,239.64,244.835,249.382,254.296,256.704,259.629,263.849,265.955,268.326,272.546,276.766,278.872,281.252,285.472,289.692,291.798,294.177,298.397,302.617,305.581,357.786,362.981,368.129,370.486,373.411,377.631,379.73699999999997,382.051,386.271,388.377,390.782,395.001,399.221,402.185,451.329,456.36,460.58,464.067,470.892,475.034,479.495,483.317,485.741,488.666,492.886,494.992,497.306,501.526,503.632,506.037,510.257,514.476,516.582,518.906,523.126,527.346" svgx:width="0.88,0.68,0.63,0.55,0.38,0.54,0.27,0.55,0.54,0.38,0.55,0.67,0.58,0.63,0.55,0.38,0.54,0.27,0.55,0.54,0.54,0.27,0.55,0.54,0.54,0.27,0.55,0.54,0.54,0.38,0.55,0.67,0.66,0.55,0.38,0.54,0.27,0.55,0.54,0.27,0.55,0.54,0.54,0.38,0.55,0.64,0.54,0.45,0.88,0.53,0.57,0.49,0.55,0.38,0.54,0.27,0.55,0.54,0.27,0.55,0.54,0.54,0.27,0.55,0.54,0.54,0.38" style="fill:rgb(35,31,32);font-family:AdvOT47d13e92.B;font-size:7.8px;stroke:none;">WHO [6, 7] USA [4, 12, 24, 26] UK [5, 8, 25] Germany [3, 9, 13, 23]</text>
   <text y="143.603" x="42.86,47.407,51.713,55.729,58.405,60.511,64.653,67.149,69.506,72.85,77.07,81.376,85.838,87.944,91.332,95.552,102.377,106.597,111.058,113.734" svgx:width="0.58,0.55,0.53,0.34,0.27,0.53,0.32,0.55,0.45,0.54,0.55,0.57,0.27,0.45,0.54,0.88,0.54,0.57,0.34,0.5" style="fill:rgb(35,31,32);font-family:AdvOT47d13e92.B;font-size:7.8px;stroke:none;">Spatial requirements</text>
   <text y="153.411" x="50.683,56.37,61.245,63.428999999999995,65.763,68.882,72.938,76.994,83.819,87.641,173.65,177.448,181.504,185.326,266.74,270.595,274.651,278.473,374.116,377.915,381.971,385.793,484.951,488.806,492.862" svgx:width="0.73,0.63,0.28,0.55,0.42,0.52,0.52,0.88,0.49,0.55,0.51,0.52,0.49,0.55,0.51,0.52,0.49,0.55,0.51,0.52,0.49,0.55,0.51,0.52,0.49" style="fill:rgb(35,31,32);font-family:AdvOT1c339561;font-size:7.8px;stroke:none;">NPI rooms Yes Yes Yes Yes</text>
   <text y="163.219" x="50.683,56.37,60.426,63.67,70.496,74.552,76.81400000000001,79.199,82.43,86.487,90.792,93.304,95.254,97.524,101.479,103.991,105.941,109.997,114.287,116.673,119.791,123.847,127.904" svgx:width="0.73,0.52,0.42,0.88,0.52,0.29,0.55,0.44,0.52,0.55,0.32,0.25,0.29,0.52,0.32,0.25,0.52,0.55,0.55,0.42,0.52,0.52,0.88" style="fill:rgb(35,31,32);font-family:AdvOT1c339561;font-size:7.8px;stroke:none;">Normal ventilation room</text>
   <text y="173.027" x="60.434,64.49,66.76,69.03,72.964,78.406,82.462" svgx:width="0.52,0.29,0.29,0.52,0.72,0.52,0.54" style="fill:rgb(35,31,32);font-family:AdvOT1c339561;font-size:7.8px;stroke:none;">allowed</text>
   <text y="163.219" x="173.65,177.449,181.505,185.327,240.435,244.233,248.289,252.104,254.132,256.479,258.429,260.847,263.225,267.281,269.231,272.476,275.721,279.535,281.805,285.861,289.917,294.223,296.276,300.582" svgx:width="0.51,0.52,0.49,0.55,0.51,0.52,0.49,0.26,0.55,0.25,0.31,0.55,0.52,0.25,0.42,0.42,0.49,0.29,0.52,0.52,0.55,0.25,0.55,0.54" style="fill:rgb(35,31,32);font-family:AdvOT1c339561;font-size:7.8px;stroke:none;">Yes Yes, if air-cleaning</text>
   <text y="173.027" x="223.881,226.392,230.448,234.263,238.568,242.874,246.93,249.2,253.36,257.58,259.53,263.586,267.408,269.744" svgx:width="0.32,0.52,0.49,0.55,0.55,0.52,0.29,0.52,0.54,0.25,0.52,0.49,0.55,0.29" style="fill:rgb(35,31,32);font-family:AdvOT1c339561;font-size:7.8px;stroke:none;">technologies (</text>
   <text y="173.027" x="272.07,275.97,277.92,281.898" svgx:width="0.5,0.25,0.51,0.25" style="fill:rgb(35,31,32);font-family:AdvOT24d7ec87;font-size:7.8px;stroke:none;">e.g.</text>
   <text y="173.027" x="286.186,290.24199999999996,292.592,296.812,300.868,304.113,306.625,310.681,314.901,317.171" svgx:width="0.52,0.55,0.54,0.52,0.42,0.32,0.52,0.54,0.29,0.52" style="fill:rgb(35,31,32);font-family:AdvOT1c339561;font-size:7.8px;stroke:none;">a portable</text>
   <text y="182.778" x="226.092,231.451,236.076,240.832,245.512,247.862,250.296,252.246,254.516,257.103,260.164,264.076,266.588,268.538,272.594,276.884,279.27,282.899,286.187,289.816,292.327,296.383,303.208,305.47,307.9,311.956,315.044" svgx:width="0.69,0.59,0.63,0.6,0.55,0.31,0.25,0.29,0.32,0.42,0.52,0.32,0.25,0.52,0.55,0.55,0.49,0.44,0.49,0.32,0.52,0.88,0.29,0.55,0.52,0.42,0.52" style="fill:rgb(35,31,32);font-family:AdvOT1c339561;font-size:7.8px;stroke:none;">HEPA filtration system) are</text>
   <text y="192.586" x="257.5,261.355,264.763,268.819,270.769,273.039,277.095,281.315,283.691" svgx:width="0.52,0.44,0.52,0.25,0.29,0.52,0.54,0.29,0.52" style="fill:rgb(35,31,32);font-family:AdvOT1c339561;font-size:7.8px;stroke:none;">available</text>
   <text y="163.219" x="334.999,338.798,342.854,346.668,348.696,351.043,354.858,356.808,361.113,365.333,367.603,371.659,374.06,377.178,381.234,385.29,392.115,395.937,398.154,400.665,404.971,408.869,411.365,413.744,417.8,420.888" svgx:width="0.51,0.52,0.49,0.26,0.55,0.49,0.25,0.55,0.54,0.29,0.52,0.55,0.42,0.52,0.52,0.88,0.49,0.55,0.32,0.55,0.52,0.32,0.55,0.52,0.42,0.52" style="fill:rgb(35,31,32);font-family:AdvOT1c339561;font-size:7.8px;stroke:none;">Yes, single rooms that are</text>
   <text y="173.027" x="332.958,336.19,340.246,344.551,347.063,351.119,355.331,357.733,360.244,364.3,366.69,369.202,373.508,377.56399999999996,379.9,383.956,388.262,390.773,394.587,396.624,400.844,404.9,407.225,411.281,413.699,416.069,418.58,422.886" svgx:width="0.44,0.52,0.55,0.32,0.52,0.54,0.55,0.32,0.52,0.55,0.32,0.55,0.52,0.55,0.52,0.55,0.32,0.49,0.25,0.54,0.52,0.55,0.52,0.31,0.55,0.32,0.55,0.52" style="fill:rgb(35,31,32);font-family:AdvOT1c339561;font-size:7.8px;stroke:none;">vented to the outside of the</text>
   <text y="182.778" x="366.237,370.457,374.763,376.713,378.982,383.202,385.152,389.458" svgx:width="0.54,0.55,0.25,0.29,0.54,0.25,0.55,0.54" style="fill:rgb(35,31,32);font-family:AdvOT1c339561;font-size:7.8px;stroke:none;">building</text>
   <text y="163.219" x="445.834,449.689,453.745,457.559,459.58700000000005,461.934,465.748,467.698,472.004,476.224,478.494,482.55,484.951,488.012,492.068,496.124,502.949,506.771,508.988,511.5,515.806,519.703,522.199,524.579,528.635,531.722" svgx:width="0.51,0.52,0.49,0.26,0.55,0.49,0.25,0.55,0.54,0.29,0.52,0.55,0.42,0.52,0.52,0.88,0.49,0.55,0.32,0.55,0.52,0.32,0.55,0.52,0.42,0.52" style="fill:rgb(35,31,32);font-family:AdvOT1c339561;font-size:7.8px;stroke:none;">Yes, single rooms that are</text>
   <text y="173.027" x="443.793,447.081,451.137,455.443,457.955,462.011,466.223,468.624,471.136,475.192,477.525,480.037,484.342,488.39799999999997,490.791,494.847,499.152,501.664,505.478,507.428,511.648,515.7040000000001,518.116,522.172,524.59,526.96,529.471,533.777" svgx:width="0.44,0.52,0.55,0.32,0.52,0.54,0.55,0.32,0.52,0.55,0.32,0.55,0.52,0.55,0.52,0.55,0.32,0.49,0.25,0.54,0.52,0.55,0.52,0.31,0.55,0.32,0.55,0.52" style="fill:rgb(35,31,32);font-family:AdvOT1c339561;font-size:7.8px;stroke:none;">vented to the outside of the</text>
   <text y="182.778" x="477.072,481.292,485.597,487.547,489.817,494.037,495.987,500.372" svgx:width="0.54,0.55,0.25,0.29,0.54,0.25,0.55,0.54" style="fill:rgb(35,31,32);font-family:AdvOT1c339561;font-size:7.8px;stroke:none;">building</text>
   <text y="202.394" x="50.684,55.146,58.224,62.28,66.5,70.806,74.862,79.168,82.982,86.414,88.611,92.667,95.08500000000001,97.455,101.511,103.461" svgx:width="0.57,0.42,0.52,0.54,0.55,0.52,0.55,0.49,0.44,0.55,0.52,0.31,0.55,0.52,0.25,0.42" style="fill:rgb(35,31,32);font-family:AdvOT1c339561;font-size:7.8px;stroke:none;">Frequency of air</text>
   <text y="212.201" x="58.394,62.306,65.957,69.771,74.077,78.133,82.438,86.658,90.714,93.09,95.04,99.33000000000001,101.708,107.394,112.269,114.453,116.845,119.906,123.962,128.018,134.843" svgx:width="0.52,0.47,0.49,0.55,0.52,0.55,0.54,0.52,0.55,0.25,0.55,0.55,0.73,0.63,0.28,0.55,0.42,0.52,0.52,0.88,0.49" style="fill:rgb(35,31,32);font-family:AdvOT1c339561;font-size:7.8px;stroke:none;">exchange in NPI rooms</text>
   <text y="202.394" x="147.742,154.076,156.026,160.332,162.282,169.107,173.412,180.276,182.608,186.664,190.72,193.096,197.316,201.372,204.64800000000002,206.986,211.27599999999998,224.731,229.606,232.724,236.78,239.214,243.27" svgx:width="0.81,0.25,0.55,0.25,0.88,0.55,0.88,0.55,0.52,0.52,0.55,0.54,0.52,0.42,0.55,0.55,0.55,0.63,0.42,0.52,0.31,0.52,0.42" style="fill:rgb(35,31,32);font-family:AdvOT1c339561;font-size:7.8px;stroke:none;">Minimum 12 per h Prefer</text>
   <text y="202.394" x="248.882" svgx:width="0.68" style="fill:rgb(35,31,32);font-family:AdvOT8608a8d1;font-size:7.8px;stroke:none;">⩾</text>
   <text y="202.394" x="254.154,258.21,262.26599999999996,264.642,268.862,272.918,276.194,278.532,282.822,285.165,287.435,294.26,296.21,300.516,302.466,309.291,313.597" svgx:width="0.52,0.52,0.55,0.54,0.52,0.42,0.55,0.55,0.55,0.29,0.88,0.25,0.55,0.25,0.88,0.55,0.88" style="fill:rgb(35,31,32);font-family:AdvOT1c339561;font-size:7.8px;stroke:none;">12 per h (minimum</text>
   <text y="212.201" x="256.536" svgx:width="0.68" style="fill:rgb(35,31,32);font-family:AdvOT8608a8d1;font-size:7.8px;stroke:none;">⩾</text>
   <text y="212.201" x="261.808,265.864,268.214,272.434,276.49,279.766,282.104,286.409" svgx:width="0.52,0.55,0.54,0.52,0.42,0.55,0.55,0.29" style="fill:rgb(35,31,32);font-family:AdvOT1c339561;font-size:7.8px;stroke:none;">6 per h)</text>
   <text y="202.394" x="341.858,345.203,349.914,354.134,358.19,362.41,366.715,370.657,373.169,377.22499999999997,379.615,382.847,386.903,391.208,393.72,395.67,397.94,401.895,404.407,406.357,410.413,414.765,418.11899999999997,458.248,463.279,467.499,470.01,471.96,476.017,480.322,484.378,486.648,488.918,492.35,494.757,498.813,502.86899999999997,505.188,509.408,513.464,516.74,519.078" svgx:width="0.43,0.6,0.54,0.52,0.54,0.55,0.52,0.32,0.52,0.55,0.44,0.52,0.55,0.32,0.25,0.29,0.52,0.32,0.25,0.52,0.55,0.43,0.55,0.64,0.54,0.32,0.25,0.52,0.55,0.52,0.29,0.29,0.44,0.55,0.52,0.52,0.55,0.54,0.52,0.42,0.55,0.55" style="fill:rgb(35,31,32);font-family:AdvOT1c339561;font-size:7.8px;stroke:none;">“Adequate ventilation” Optionally 12 per h</text>
   <text y="222.009" x="50.683,55.144,58.223,62.279,66.499,70.804,74.861,79.166,82.98,86.412,88.61,92.666,95.084,97.453,101.51,103.46" svgx:width="0.57,0.42,0.52,0.54,0.55,0.52,0.55,0.49,0.44,0.55,0.52,0.31,0.55,0.52,0.25,0.42" style="fill:rgb(35,31,32);font-family:AdvOT1c339561;font-size:7.8px;stroke:none;">Frequency of air</text>
   <text y="231.817" x="58.393,62.305,65.955,69.769,74.075,78.131,82.437,86.657,90.713,93.089,95.039,99.32900000000001,101.706,106.012,110.068,113.313,120.138,124.194" svgx:width="0.52,0.47,0.49,0.55,0.52,0.55,0.54,0.52,0.55,0.25,0.55,0.55,0.55,0.52,0.42,0.88,0.52,0.29" style="fill:rgb(35,31,32);font-family:AdvOT1c339561;font-size:7.8px;stroke:none;">exchange in normal</text>
   <text y="241.625" x="58.393,61.625,65.681,69.986,72.498,74.448,76.718,80.673,83.185,85.135,89.191,93.48100000000001,95.867,98.985,103.041,107.098,113.923" svgx:width="0.44,0.52,0.55,0.32,0.25,0.29,0.52,0.32,0.25,0.52,0.55,0.55,0.42,0.52,0.52,0.88,0.49" style="fill:rgb(35,31,32);font-family:AdvOT1c339561;font-size:7.8px;stroke:none;">ventilation rooms</text>
   <text y="222.009" x="154.374,160.06,164.116,166.61200000000002,169.001,173.057,177.277,181.496,184.648,188.704,192.518,196.332,200.388,204.6,242.871,249.204,251.154,255.46,257.41,264.235,268.541,275.405,277.736,281.792,284.143,288.362,292.418,295.694,298.032,302.322,354.839,360.525,364.581,367.077,369.466,373.522,377.741,381.961,385.056,389.112,392.926,396.74,400.796,405.008,465.673,471.359,475.481,477.977,480.3,484.356,488.575,492.795,495.947,500.003,503.817,507.631,511.687" svgx:width="0.73,0.52,0.32,0.55,0.52,0.54,0.54,0.42,0.52,0.49,0.49,0.52,0.54,0.55,0.81,0.25,0.55,0.25,0.88,0.55,0.88,0.55,0.52,0.55,0.54,0.52,0.42,0.55,0.55,0.55,0.73,0.52,0.32,0.55,0.52,0.54,0.54,0.42,0.52,0.49,0.49,0.52,0.54,0.55,0.73,0.52,0.32,0.55,0.52,0.54,0.54,0.42,0.52,0.49,0.49,0.52,0.54" style="fill:rgb(35,31,32);font-family:AdvOT1c339561;font-size:7.8px;stroke:none;">Not addressed Minimum 2 per h Not addressed Not addressed</text>
   <text y="251.377" x="42.859,47.565,51.785,55.271,59.171,63.391,67.853,71.995,74.491,76.931,81.237,84.585,88.805,91.48,95.7,99.436,102.112,104.218,108.438" svgx:width="0.63,0.54,0.45,0.5,0.54,0.57,0.53,0.32,0.55,0.55,0.45,0.54,0.34,0.54,0.48,0.34,0.27,0.54,0.57" style="fill:rgb(35,31,32);font-family:AdvOT47d13e92.B;font-size:7.8px;stroke:none;">Personal protection</text>
   <text y="261.185" x="50.683,57.016,58.966,63.272,65.222,72.047,76.353,83.217,85.548,89.177,91.688,95.744,100.05,104.27,108.326,111.571" svgx:width="0.81,0.25,0.55,0.25,0.88,0.55,0.88,0.55,0.49,0.32,0.52,0.55,0.54,0.52,0.42,0.54" style="fill:rgb(35,31,32);font-family:AdvOT1c339561;font-size:7.8px;stroke:none;">Minimum standard</text>
   <text y="270.992" x="58.96,63.016,65.434,67.804,74.629,78.685,82.499,86.641" svgx:width="0.52,0.31,0.55,0.88,0.52,0.49,0.53,0.49" style="fill:rgb(35,31,32);font-family:AdvOT1c339561;font-size:7.8px;stroke:none;">of masks</text>
   <text y="261.185" x="157.662,163.349,167.405,171.461,173.82,177.876,181.15200000000002,183.457,187.919,192.381,197.256,201.312,250.751,256.437,260.493,264.549,266.908,270.964,274.24,276.546,281.008,285.469,290.345,294.401,370.996,375.458,379.919,384.794,388.84999999999997,481.887,486.349,490.81,495.685" svgx:width="0.73,0.52,0.52,0.55,0.52,0.42,0.55,0.57,0.57,0.63,0.52,0.55,0.73,0.52,0.52,0.55,0.52,0.42,0.55,0.57,0.57,0.63,0.52,0.55,0.57,0.57,0.63,0.52,0.55,0.57,0.57,0.63,0.52" style="fill:rgb(35,31,32);font-family:AdvOT1c339561;font-size:7.8px;stroke:none;">N95 or FFP2 N95 or FFP2 FFP2 FFP2</text>
   <text y="280.8" x="50.683,57.016,61.072,64.887,69.028,72.85000000000001,75.23,80.831,85.136,89.192" svgx:width="0.81,0.52,0.49,0.53,0.49,0.55,0.72,0.55,0.52,0.55" style="fill:rgb(35,31,32);font-family:AdvOT1c339561;font-size:7.8px;stroke:none;">Masks when</text>
   <text y="290.608" x="61.057,65.113,69.419,73.233,77.289,81.595,85.901,88.496,92.552,95.797,97.747,102.052" svgx:width="0.52,0.55,0.49,0.52,0.55,0.55,0.32,0.52,0.42,0.25,0.55,0.54" style="fill:rgb(35,31,32);font-family:AdvOT1c339561;font-size:7.8px;stroke:none;">encountering</text>
   <text y="300.416" x="61.057,67.391,72.586,77.617,80.862,85.082,90.30799999999999,92.692,96.911,100.855,103.367,105.317,109.373,113.678,116.19" svgx:width="0.81,0.67,0.64,0.42,0.54,0.67,0.55,0.54,0.52,0.32,0.25,0.52,0.55,0.32,0.49" style="fill:rgb(35,31,32);font-family:AdvOT1c339561;font-size:7.8px;stroke:none;">MDR-TB patients</text>
   <text y="280.8" x="144.963,149.425,153.886,158.761,162.817,165.202,169.508,173.564,176.06,178.411,182.468,186.687,190.907,194.058,198.115,201.929,205.743,209.799,214.011,263.677,267.733,273.419,277.475,281.531,370.996,375.458,379.919,384.794,388.84999999999997,481.887,486.349,490.81,495.685" svgx:width="0.57,0.57,0.63,0.52,0.55,0.55,0.52,0.32,0.55,0.52,0.54,0.54,0.42,0.52,0.49,0.49,0.52,0.54,0.55,0.52,0.73,0.52,0.52,0.55,0.57,0.57,0.63,0.52,0.55,0.57,0.57,0.63,0.52" style="fill:rgb(35,31,32);font-family:AdvOT1c339561;font-size:7.8px;stroke:none;">FFP3 not addressed &gt;N95 FFP3 FFP3</text>
   <text y="319.975" x="50.683,57.016,61.072,64.886,69.028,72.85000000000001,75.23,79.45,83.756,87.001,88.951,93.256,97.468,99.835,103.891,107.947,111.06,115.116,118.93,122.986,125.256" svgx:width="0.81,0.52,0.49,0.53,0.49,0.55,0.54,0.55,0.42,0.25,0.55,0.54,0.55,0.52,0.52,0.42,0.52,0.49,0.52,0.29,0.42" style="fill:rgb(35,31,32);font-family:AdvOT1c339561;font-size:7.8px;stroke:none;">Masks during aerosol-</text>
   <text y="329.783" x="61.057,65.277,69.333,73.639,77.695,80.843,84.755,87.267,89.217,93.522" svgx:width="0.54,0.52,0.55,0.52,0.42,0.52,0.32,0.25,0.55,0.54" style="fill:rgb(35,31,32);font-family:AdvOT1c339561;font-size:7.8px;stroke:none;">generating</text>
   <text y="339.591" x="61.057,65.277,68.371,72.427,76.241,80.297,84.517,88.823,92.068,96.036" svgx:width="0.54,0.42,0.52,0.49,0.52,0.54,0.55,0.42,0.52,0.49" style="fill:rgb(35,31,32);font-family:AdvOT1c339561;font-size:7.8px;stroke:none;">procedures</text>
   <text y="319.975" x="170.532,174.993,179.455,184.33,188.38600000000002,263.678,267.734,273.421,277.477,281.53299999999996,348.604,353.066,357.528,362.403,366.459,368.843,371.277,375.333,377.767,379.795,382.166,386.627,391.089,395.964,400.02,402.405,404.838,408.894,411.312,438.802,443.263,447.725,452.6,456.656,459.04,461.474,465.53" svgx:width="0.57,0.57,0.63,0.52,0.55,0.52,0.73,0.52,0.52,0.55,0.57,0.57,0.63,0.52,0.55,0.31,0.52,0.31,0.26,0.55,0.57,0.57,0.63,0.52,0.55,0.31,0.52,0.31,0.55,0.57,0.57,0.63,0.52,0.55,0.31,0.52,0.31" style="fill:rgb(35,31,32);font-family:AdvOT1c339561;font-size:7.8px;stroke:none;">FFP2 &gt;N95 FFP2 [5], FFP3 [8] FFP2 [3]</text>
   <text y="319.975" x="470.381,474.281" svgx:width="0.5,0.4" style="fill:rgb(35,31,32);font-family:AdvOT24d7ec87;font-size:7.8px;stroke:none;">or</text>
   <text y="319.975" x="479.509,483.42,485.916,488.296,490.566,494.622,498.678,502.356,504.852,507.232,511.693,516.155,521.069,523.389,527.445,529.795,532.229,536.285,540.341" svgx:width="0.52,0.32,0.55,0.29,0.52,0.52,0.49,0.32,0.55,0.57,0.57,0.63,0.55,0.52,0.55,0.31,0.52,0.52,0.31" style="fill:rgb(35,31,32);font-family:AdvOT1c339561;font-size:7.8px;stroke:none;">at least FFP 2 [23]</text>
   <text y="359.207" x="42.86,47.736,51.955,58.781,62.873,66.687,70.829,73.32499999999999,75.685,78.282,81.638,85.858,92.72200000000001,95.018,97.124,101.024,105.243,107.755,111.799,114.474,116.58,120.8" svgx:width="0.64,0.54,0.88,0.54,0.49,0.53,0.32,0.55,0.33,0.45,0.54,0.88,0.55,0.27,0.5,0.54,0.32,0.53,0.34,0.27,0.54,0.57" style="fill:rgb(35,31,32);font-family:AdvOT47d13e92.B;font-size:7.8px;stroke:none;">Removal from isolation</text>
   <text y="369.015" x="50.683,55.231,59.451,63.756,66.268,70.574,77.438,79.766,83.58,90.405,94.461,98.517,101.762,105.007,109.227,113.384,117.199,119.149,121.66,123.61,126.877" svgx:width="0.58,0.54,0.55,0.32,0.55,0.88,0.55,0.49,0.88,0.52,0.52,0.42,0.42,0.54,0.52,0.49,0.25,0.32,0.25,0.44,0.52" style="fill:rgb(35,31,32);font-family:AdvOT1c339561;font-size:7.8px;stroke:none;">Sputum smear-positive</text>
   <text y="378.823" x="59.471,63.691,67.578,70.089,72.039,76.095,80.401,82.913" svgx:width="0.54,0.52,0.32,0.25,0.52,0.55,0.32,0.49" style="fill:rgb(35,31,32);font-family:AdvOT1c339561;font-size:7.8px;stroke:none;">patients</text>
   <text y="369.015" x="148.876,154.071,156.021,159.835,163.729,168.034,171.849,175.663,179.719,183.939,185.96699999999998,188.332,192.552,196.858,199.354,201.712,206.018" svgx:width="0.67,0.25,0.49,0.49,0.55,0.49,0.49,0.52,0.54,0.26,0.55,0.54,0.55,0.32,0.55,0.55,0.52" style="fill:rgb(35,31,32);font-family:AdvOT1c339561;font-size:7.8px;stroke:none;">Discussed, but no</text>
   <text y="378.823" x="150.463,153.581,157.637,161.452,165.508,172.333,179.158,183.214,187.52,191.74,195.704,198.215,200.165,204.221" svgx:width="0.42,0.52,0.49,0.52,0.88,0.88,0.52,0.55,0.54,0.52,0.32,0.25,0.52,0.55" style="fill:rgb(35,31,32);font-family:AdvOT1c339561;font-size:7.8px;stroke:none;">recommendation</text>
   <text y="388.573" x="164.92,169.14,172.384,176.145,179.553,181.503,185.723,189.864" svgx:width="0.54,0.42,0.52,0.44,0.25,0.54,0.52,0.54" style="fill:rgb(35,31,32);font-family:AdvOT1c339561;font-size:7.8px;stroke:none;">provided</text>
   <text y="369.015" x="223.541,229.874,231.824,236.13,238.08,244.905,249.211,256.075,258.406,262.462,265.707,271.162,275.218,279.274,283.408,285.788,288.3,291.401,295.457,299.394,301.906,308.731,312.787,317.093,319.604" svgx:width="0.81,0.25,0.55,0.25,0.88,0.55,0.88,0.55,0.52,0.42,0.72,0.52,0.52,0.53,0.55,0.32,0.42,0.52,0.52,0.32,0.88,0.52,0.55,0.32,0.26" style="fill:rgb(35,31,32);font-family:AdvOT1c339561;font-size:7.8px;stroke:none;">Minimum 2-week treatment,</text>
   <text y="378.823" x="224.731,228.951,232.044,236.1,240.32,243.439,247.495,251.31,255.124,257.074,260.483,264.539,266.808,270.24,272.466,276.686,280.742,284.556,287.801,291.741,295.797,299.611,301.561,305.867" svgx:width="0.54,0.42,0.52,0.54,0.42,0.52,0.49,0.49,0.25,0.44,0.52,0.29,0.44,0.55,0.54,0.52,0.49,0.42,0.52,0.52,0.49,0.25,0.55,0.54" style="fill:rgb(35,31,32);font-family:AdvOT1c339561;font-size:7.8px;stroke:none;">progressively decreasing</text>
   <text y="378.823" x="312.491,318.497" svgx:width="0.77,0.25" style="fill:rgb(35,31,32);font-family:AdvOT24d7ec87;font-size:7.8px;stroke:none;">M.</text>
   <text y="388.573" x="231.08,233.514,237.656,241.634,245.534,248.484,252.057,256.199,258.063,261.963,265.614,267.478" svgx:width="0.31,0.53,0.51,0.5,0.4,0.46,0.53,0.24,0.5,0.47,0.24,0.47" style="fill:rgb(35,31,32);font-family:AdvOT24d7ec87;font-size:7.8px;stroke:none;">tuberculosis</text>
   <text y="388.573" x="273.486,275.756,279.812,283.868,288.169,290.197,292.535,295.046,299.352,303.408,307.69800000000004,310.053" svgx:width="0.29,0.52,0.52,0.54,0.26,0.55,0.32,0.55,0.52,0.55,0.55,0.52" style="fill:rgb(35,31,32);font-family:AdvOT1c339561;font-size:7.8px;stroke:none;">load, then 3</text>
   <text y="398.381" x="223.086,229.911,231.861,235.675,238.79,242.846,246.66,250.474,254.53,258.75,262.159,265.404,269.709,273.765,277.985,282.041,284.484,286.434,289.699,293.755,296.106,299.92,304.14,308.445,310.957,315.263" svgx:width="0.88,0.25,0.49,0.42,0.52,0.49,0.49,0.52,0.54,0.44,0.42,0.55,0.52,0.54,0.52,0.32,0.25,0.44,0.52,0.55,0.49,0.54,0.55,0.32,0.55,0.88" style="fill:rgb(35,31,32);font-family:AdvOT1c339561;font-size:7.8px;stroke:none;">microscopy-negative sputum</text>
   <text y="408.189" x="247.974,251.789,258.614,262.67,266.726,269.971,273.315,276.377,280.433,284.247,288.553,290.823,293.334" svgx:width="0.49,0.88,0.52,0.52,0.42,0.42,0.42,0.52,0.49,0.55,0.29,0.32,0.49" style="fill:rgb(35,31,32);font-family:AdvOT1c339561;font-size:7.8px;stroke:none;">smear-results</text>
   <text y="369.015" x="335.792,340.823,345.129,347.398,350.83000000000004,353.026,356.938,359.372,361.883,365.939,369.21500000000003,371.395,375.306,377.80199999999996,380.182,382.452,386.508,390.564,394.242,396.738,399.118,403.174,406.419,411.873,415.929,419.985" svgx:width="0.64,0.55,0.29,0.44,0.55,0.52,0.31,0.32,0.52,0.42,0.55,0.52,0.32,0.55,0.29,0.52,0.52,0.49,0.32,0.55,0.52,0.42,0.72,0.52,0.52,0.53" style="fill:rgb(35,31,32);font-family:AdvOT1c339561;font-size:7.8px;stroke:none;">Only after at least 2-week</text>
   <text y="378.823" x="334.204,336.716,339.817,343.873,347.81,350.322,357.147,361.203,365.509,368.02,370.048,372.414,376.47,380.776,384.988,387.381,391.601,393.551,396.792,400.848,405.13800000000003,407.507,411.563,413.913,416.183,420.092" svgx:width="0.32,0.42,0.52,0.52,0.32,0.88,0.52,0.55,0.32,0.26,0.55,0.52,0.55,0.54,0.55,0.54,0.25,0.44,0.52,0.55,0.55,0.52,0.55,0.29,0.52,0.72" style="fill:rgb(35,31,32);font-family:AdvOT1c339561;font-size:7.8px;stroke:none;">treatment, and given a low</text>
   <text y="388.574" x="337.889,339.839,344.145,346.095,348.607,350.557,354.613,356.875,359.262,363.077,369.902,373.958,378.014,381.29,383.696,386.248,390.467,393.712,397.643,401.863,405.919,408.301,412.35699999999997,414.707,418.763" svgx:width="0.25,0.55,0.25,0.32,0.25,0.52,0.29,0.55,0.49,0.88,0.52,0.52,0.42,0.55,0.29,0.54,0.42,0.52,0.54,0.52,0.55,0.52,0.55,0.52,0.42" style="fill:rgb(35,31,32);font-family:AdvOT1c339561;font-size:7.8px;stroke:none;">initial smear (grade 2 or</text>
   <text y="398.381" x="329.329,331.598,335.655,339.469,343.283,345.553,347.581,349.965,352.476,356.782,360.838,365.12800000000004,367.539,371.59499999999997,373.945,378.251,382.307,386.527,390.442,392.954,394.904,398.153,402.209,404.559,408.373,412.593,416.899,419.41,423.716" svgx:width="0.29,0.52,0.49,0.49,0.29,0.26,0.55,0.32,0.55,0.52,0.55,0.55,0.52,0.55,0.55,0.52,0.54,0.52,0.32,0.25,0.44,0.52,0.55,0.49,0.54,0.55,0.32,0.55,0.88" style="fill:rgb(35,31,32);font-family:AdvOT1c339561;font-size:7.8px;stroke:none;">less), then 3 negative sputum</text>
   <text y="408.189" x="355.805,359.619,366.444,370.5,374.556,377.832,380.182,383.301,387.357,391.171,395.477,397.746,400.258" svgx:width="0.49,0.88,0.52,0.52,0.42,0.55,0.42,0.52,0.49,0.55,0.29,0.32,0.49" style="fill:rgb(35,31,32);font-family:AdvOT1c339561;font-size:7.8px;stroke:none;">smear results</text>
   <text y="369.015" x="437.839,442.55,444.984,447.495,451.552,454.82800000000003,457.228,461.284,464.529,469.983,474.039,478.095,482.22900000000004,484.61,487.122,490.222,494.278,498.216,500.727,507.552,511.608,515.914,518.41,521.119,523.553,527.609,531.665,534.083,536.483,540.539" svgx:width="0.6,0.31,0.32,0.52,0.42,0.55,0.52,0.42,0.72,0.52,0.52,0.53,0.55,0.32,0.42,0.52,0.52,0.32,0.88,0.52,0.55,0.32,0.55,0.31,0.52,0.52,0.31,0.55,0.52,0.42" style="fill:rgb(35,31,32);font-family:AdvOT1c339561;font-size:7.8px;stroke:none;">After 3-week treatment [23] or</text>
   <text y="378.823" x="440.276,444.188,446.622,449.134,453.19,456.466,458.815,462.871,466.116,471.57,475.627,479.683,483.817,486.197,488.709,491.809,495.866,499.746,502.258,509.083,513.139,517.444,519.9399999999999,522.366,526.422,530.728,534.9399999999999,537.333" svgx:width="0.52,0.31,0.32,0.52,0.42,0.55,0.52,0.42,0.72,0.52,0.52,0.53,0.55,0.32,0.42,0.52,0.52,0.32,0.88,0.52,0.55,0.32,0.55,0.52,0.55,0.54,0.55,0.52" style="fill:rgb(35,31,32);font-family:AdvOT1c339561;font-size:7.8px;stroke:none;">after 3-week treatment and 3</text>
   <text y="388.574" x="441.297,448.122,450.072,453.886,457.001,461.057,464.871,468.685,472.741,476.961,480.37,483.615,487.92,491.976,496.196,500.252,502.694,504.644,507.91,511.966,514.317,518.131,522.351,526.656,529.168,533.474" svgx:width="0.88,0.25,0.49,0.42,0.52,0.49,0.49,0.52,0.54,0.44,0.42,0.55,0.52,0.54,0.52,0.32,0.25,0.44,0.52,0.55,0.49,0.54,0.55,0.32,0.55,0.88" style="fill:rgb(35,31,32);font-family:AdvOT1c339561;font-size:7.8px;stroke:none;">microscopy-negative sputum</text>
   <text y="398.381" x="437.442,441.256,448.081,452.137,456.193,459.469,461.82,464.881,468.937,472.751,477.127,479.396,481.908,485.73,488.069,490.502,494.558,496.992,499.02000000000004,501.391,503.341,507.63100000000003,510.009,514.065,517.945,521.76,526.05,528.433,532.248,536.304,540.118" svgx:width="0.49,0.88,0.52,0.52,0.42,0.55,0.42,0.52,0.49,0.55,0.29,0.32,0.49,0.55,0.31,0.52,0.31,0.26,0.55,0.25,0.55,0.55,0.52,0.52,0.49,0.55,0.55,0.49,0.52,0.49,0.52" style="fill:rgb(35,31,32);font-family:AdvOT1c339561;font-size:7.8px;stroke:none;">smear results [3], in each case</text>
   <text y="408.189" x="446.57,450.789,454.846,459.065,463.121,467.427,471.647,475.703,480.009,482.505,484.95,489.006,493.296,495.665,499.479,501.749,503.699,508.005,509.955,513.769,517.825,520.087,522.48,526.536,530.842" svgx:width="0.54,0.52,0.54,0.52,0.55,0.54,0.52,0.55,0.32,0.55,0.52,0.55,0.55,0.49,0.29,0.25,0.55,0.25,0.49,0.52,0.29,0.55,0.52,0.55,0.54" style="fill:rgb(35,31,32);font-family:AdvOT1c339561;font-size:7.8px;stroke:none;">dependent on clinical and</text>
   <text y="417.997" x="445.549,448.668,452.724,456.944,458.894,462.95,467.17,470.324,474.38,478.6,482.906,484.856,488.678,491.017,492.967,499.792,504.012,507.117,511.029,514.26,518.316,525.142,529.198,533.592" svgx:width="0.42,0.52,0.54,0.25,0.52,0.54,0.42,0.52,0.54,0.55,0.25,0.49,0.55,0.25,0.88,0.54,0.42,0.52,0.44,0.52,0.88,0.52,0.55,0.32" style="fill:rgb(35,31,32);font-family:AdvOT1c339561;font-size:7.8px;stroke:none;">radiographic improvement</text>
   <text y="427.805" x="50.683,55.23,59.45,63.756,66.267,70.573,77.437,79.765,83.58,90.405,94.461,98.517,101.762,105.006,109.312,113.368,117.692,121.547,124.058,126.008,129.313" svgx:width="0.58,0.54,0.55,0.32,0.55,0.88,0.55,0.49,0.88,0.52,0.52,0.42,0.42,0.55,0.52,0.54,0.52,0.32,0.25,0.44,0.52" style="fill:rgb(35,31,32);font-family:AdvOT1c339561;font-size:7.8px;stroke:none;">Sputum smear-negative</text>
   <text y="437.613" x="59.47,63.69,67.577,70.088,72.038,76.095,80.4,82.912" svgx:width="0.54,0.52,0.32,0.25,0.52,0.55,0.32,0.49" style="fill:rgb(35,31,32);font-family:AdvOT1c339561;font-size:7.8px;stroke:none;">patients</text>
   <text y="427.805" x="154.374,160.06,164.116,166.61200000000002,169.001,173.057,177.277,181.496,184.648,188.704,192.518,196.332,200.388,204.6,223.935,228.647,231.08,233.592,237.648,240.924,243.267,245.779,251.379,255.435,257.837,262.142,266.199,270.418,274.334,276.846,278.796,282.101,286.157,288.507,291.568,295.624,299.439,303.744,306.014,308.526,312.348,314.756,318.812" svgx:width="0.73,0.52,0.32,0.55,0.52,0.54,0.54,0.42,0.52,0.49,0.49,0.52,0.54,0.55,0.6,0.31,0.32,0.52,0.42,0.55,0.32,0.72,0.52,0.55,0.55,0.52,0.54,0.52,0.32,0.25,0.44,0.52,0.55,0.42,0.52,0.49,0.55,0.29,0.32,0.49,0.55,0.52,0.31" style="fill:rgb(35,31,32);font-family:AdvOT1c339561;font-size:7.8px;stroke:none;">Not addressed After two negative results of</text>
   <text y="437.613" x="232.951,235.462,239.768,243.824,246.216,250.436,254.656,258.712,261.957,264.453,266.852,273.186,277.406,282.601,285.362,290.393,292.585,297.031,299.45,301.961,306.017,309.711" svgx:width="0.32,0.55,0.52,0.55,0.54,0.54,0.52,0.42,0.32,0.55,0.81,0.54,0.67,0.35,0.64,0.28,0.57,0.55,0.32,0.52,0.49,0.32" style="fill:rgb(35,31,32);font-family:AdvOT1c339561;font-size:7.8px;stroke:none;">the Xpert MTB/RIF test</text>
   <text y="427.805" x="359.489,365.176,369.23199999999997,371.565,373.515,377.329,381.385,383.655,387.609,390.12,392.07,396.126,400.416,441.41,446.121,448.555,451.066,455.122,458.398,460.799,464.85499999999996,467.205,474.03,475.98,479.794,482.909,486.965,490.779,494.593,498.649,502.869,506.278,509.55400000000003,511.878,516.243,520.299,524.519,528.432,530.943,532.893,536.142" svgx:width="0.73,0.52,0.55,0.25,0.49,0.52,0.29,0.52,0.32,0.25,0.52,0.55,0.55,0.6,0.31,0.32,0.52,0.42,0.55,0.52,0.55,0.88,0.25,0.49,0.42,0.52,0.49,0.49,0.52,0.54,0.44,0.42,0.55,0.55,0.52,0.54,0.52,0.32,0.25,0.44,0.52" style="fill:rgb(35,31,32);font-family:AdvOT1c339561;font-size:7.8px;stroke:none;">No isolation After 3 microscopy- negative</text>
   <text y="437.613" x="439.313,443.127,447.347,451.653,454.165,458.47,465.334,467.716,470.777,474.833,478.648,482.953,485.223,487.735,491.549,493.577,496.005,500.225,504.281,508.501,512.557,516.863,521.082,523.032,527.338,531.55,533.932,537.988" svgx:width="0.49,0.54,0.55,0.32,0.55,0.88,0.55,0.42,0.52,0.49,0.55,0.29,0.32,0.49,0.26,0.55,0.54,0.52,0.54,0.52,0.55,0.54,0.25,0.55,0.54,0.55,0.52,0.55" style="fill:rgb(35,31,32);font-family:AdvOT1c339561;font-size:7.8px;stroke:none;">sputum results, depending on</text>
   <text y="447.421" x="439.71,442.144,446.45,449.694,452.206,456.512,460.568,463.844,466.242,473.067,477.123,481.343,483.293,487.108,491.164,493.426,495.835,499.649,503.705,508.011,511.825,513.775,517.995,522.051,525.202,529.057,531.569,533.519,537.575" svgx:width="0.31,0.55,0.42,0.32,0.55,0.52,0.42,0.55,0.88,0.52,0.54,0.25,0.49,0.52,0.29,0.55,0.49,0.52,0.55,0.49,0.25,0.54,0.52,0.42,0.52,0.32,0.25,0.52,0.55" style="fill:rgb(35,31,32);font-family:AdvOT1c339561;font-size:7.8px;stroke:none;">further medical consideration</text>
   <text y="457.172" x="440.56,442.994,447.05,449.468,451.843,455.899,459.175,461.366,465.221,467.655,470.167,474.223,477.499,479.848,483.904,487.149,492.749,496.685,500.741,504.875,507.287,509.799,512.899,516.955,520.836,523.348,530.173,534.229,538.534" svgx:width="0.31,0.52,0.31,0.55,0.52,0.42,0.55,0.52,0.31,0.32,0.52,0.42,0.55,0.52,0.42,0.72,0.52,0.52,0.53,0.55,0.32,0.42,0.52,0.52,0.32,0.88,0.52,0.55,0.32" style="fill:rgb(35,31,32);font-family:AdvOT1c339561;font-size:7.8px;stroke:none;">[3] or after 3-week treatment</text>
   <text y="466.98" x="440.901,444.957,449.262,453.474,455.867,459.682,461.951,463.901,468.207,470.157,473.971,478.027,480.289,482.683,486.739,491.044,495.256,497.649,500.711,504.767,508.987,510.937,514.993,519.213,522.367,526.423,530.643,534.949,536.899" svgx:width="0.52,0.55,0.54,0.55,0.49,0.29,0.25,0.55,0.25,0.49,0.52,0.29,0.55,0.52,0.55,0.54,0.55,0.42,0.52,0.54,0.25,0.52,0.54,0.42,0.52,0.54,0.55,0.25,0.49" style="fill:rgb(35,31,32);font-family:AdvOT1c339561;font-size:7.8px;stroke:none;">and clinical and radiographic</text>
   <text y="476.787" x="460.459,462.409,469.234,473.454,476.559,480.471,483.703,487.759,494.584,498.64,502.946,505.442,508.194,510.627,514.683,518.739" svgx:width="0.25,0.88,0.54,0.42,0.52,0.44,0.52,0.88,0.52,0.55,0.32,0.55,0.31,0.52,0.52,0.31" style="fill:rgb(35,31,32);font-family:AdvOT1c339561;font-size:7.8px;stroke:none;">improvement [23]</text>
   <text y="486.595" x="50.683,57.016,62.211,67.242,70.487,74.707,79.93299999999999,82.26,86.48,90.423,92.935,94.885,98.941,103.247,105.758,109.58,154.372,160.059,164.115,166.61100000000002,168.999,173.055,177.275,181.495,184.646,188.702,192.516,196.331,200.387" svgx:width="0.81,0.67,0.64,0.42,0.54,0.67,0.55,0.54,0.52,0.32,0.25,0.52,0.55,0.32,0.49,0.55,0.73,0.52,0.32,0.55,0.52,0.54,0.54,0.42,0.52,0.49,0.49,0.52,0.54" style="fill:rgb(35,31,32);font-family:AdvOT1c339561;font-size:7.8px;stroke:none;">MDR-TB patients Not addressed</text>
   <text y="496.403" x="149.668,151.938,153.888,157.702,161.758,164.028,167.98,170.491,172.441,176.497,180.787,183.174,187.23,191.535,193.805,197.237,199.558,201.991,206.047" svgx:width="0.29,0.25,0.49,0.52,0.29,0.52,0.32,0.25,0.52,0.55,0.55,0.52,0.55,0.29,0.44,0.55,0.31,0.52,0.42" style="fill:rgb(35,31,32);font-family:AdvOT1c339561;font-size:7.8px;stroke:none;">(isolation only for</text>
   <text y="506.211" x="152.73,156.544,160.85,163.119,165.631,169.937,173.082,177.138,180.383,184.602,188.659,192.473,194.423,196.934,198.884,202.293" svgx:width="0.49,0.55,0.29,0.32,0.55,0.42,0.52,0.42,0.54,0.52,0.49,0.25,0.32,0.25,0.44,0.52" style="fill:rgb(35,31,32);font-family:AdvOT1c339561;font-size:7.8px;stroke:none;">culture-positive</text>
   <text y="516.019" x="149.952,154.172,159.367,164.398,167.643,171.863,177.089,179.432,183.652,187.595,190.107,192.057,196.113,200.419,202.93,206.745" svgx:width="0.54,0.67,0.64,0.42,0.54,0.67,0.55,0.54,0.52,0.32,0.25,0.52,0.55,0.32,0.49,0.29" style="fill:rgb(35,31,32);font-family:AdvOT1c339561;font-size:7.8px;stroke:none;">XDR-TB patients)</text>
   <text y="486.595" x="231.816,236.528,238.961,241.473,245.529,248.805,250.978,254.89,257.38599999999997,259.766,262.036,266.092,270.148,273.825,276.32099999999997,278.701,282.757,285.108,289.413,293.469,297.689,301.605,304.116,306.066,309.315" svgx:width="0.6,0.31,0.32,0.52,0.42,0.55,0.52,0.32,0.55,0.29,0.52,0.52,0.49,0.32,0.55,0.52,0.55,0.55,0.52,0.54,0.52,0.32,0.25,0.44,0.52" style="fill:rgb(35,31,32);font-family:AdvOT1c339561;font-size:7.8px;stroke:none;">After at least 1 negative</text>
   <text y="496.403" x="260.39,264.204,268.51,270.78,273.291,277.597,280.742" svgx:width="0.49,0.55,0.29,0.32,0.55,0.42,0.52" style="fill:rgb(35,31,32);font-family:AdvOT1c339561;font-size:7.8px;stroke:none;">culture</text>
   <text y="486.595" x="331.766,336.477,338.911,341.423,345.479,348.755,351.098,355.154,357.504,364.329,366.279,370.094,373.208,377.264,381.078,384.893,388.949,393.169,396.577,399.822,404.128,408.184,412.404,416.46,418.902,420.852,424.118" svgx:width="0.6,0.31,0.32,0.52,0.42,0.55,0.52,0.55,0.88,0.25,0.49,0.42,0.52,0.49,0.49,0.52,0.54,0.44,0.42,0.55,0.52,0.54,0.52,0.32,0.25,0.44,0.52" style="fill:rgb(35,31,32);font-family:AdvOT1c339561;font-size:7.8px;stroke:none;">After 3 microscopy-negative</text>
   <text y="496.403" x="333.751,337.565,344.39,348.446,352.502,355.747,359.569,361.983,365.838,368.334,370.714,376.156,380.212,384.268,388.41,390.68,394.112,396.508,398.458,402.763,405.275,409.331,412.576,415.985,420.041,422.311" svgx:width="0.49,0.88,0.52,0.52,0.42,0.49,0.55,0.52,0.32,0.55,0.72,0.52,0.52,0.53,0.29,0.44,0.55,0.25,0.55,0.32,0.52,0.42,0.44,0.52,0.29,0.49" style="fill:rgb(35,31,32);font-family:AdvOT1c339561;font-size:7.8px;stroke:none;">smears at weekly intervals</text>
   <text y="506.211" x="329.442,333.498,337.803,342.015,344.409,346.359,350.578,354.635,358.691,360.96,363.23,366.66200000000003,369.013,373.06899999999996,375.419,379.725,383.781,388.001,392.057,394.468,396.418,399.684,403.74,406.09,409.905,414.21,416.48,418.992,423.297,426.442" svgx:width="0.52,0.55,0.54,0.55,0.25,0.54,0.52,0.52,0.29,0.29,0.44,0.55,0.52,0.55,0.55,0.52,0.54,0.52,0.32,0.25,0.44,0.52,0.55,0.49,0.55,0.29,0.32,0.55,0.42,0.52" style="fill:rgb(35,31,32);font-family:AdvOT1c339561;font-size:7.8px;stroke:none;">and ideally 1 negative culture</text>
   <text y="486.595" x="442.601,447.312,449.746,452.257,456.314,459.59000000000003,461.933,465.989,468.339,475.164,477.114,480.928,484.043,488.099,491.913,495.727,499.783,504.003,507.412,510.657,514.962,519.135,523.355,527.241,529.753,531.703,534.952" svgx:width="0.6,0.31,0.32,0.52,0.42,0.55,0.52,0.55,0.88,0.25,0.49,0.42,0.52,0.49,0.49,0.52,0.54,0.44,0.42,0.55,0.52,0.54,0.52,0.32,0.25,0.44,0.52" style="fill:rgb(35,31,32);font-family:AdvOT1c339561;font-size:7.8px;stroke:none;">After 3 microscopy-negative</text>
   <text y="496.403" x="449.404,453.218,460.044,464.1,468.156,471.4,475.215,477.243,479.678,483.898,487.954,491.768,495.582,497.532,501.752,504.022,507.454,509.668,513.579,516.013,518.525,522.581,525.857,528.149" svgx:width="0.49,0.88,0.52,0.52,0.42,0.49,0.26,0.55,0.54,0.52,0.49,0.49,0.25,0.54,0.29,0.44,0.55,0.52,0.31,0.32,0.52,0.42,0.55,0.52" style="fill:rgb(35,31,32);font-family:AdvOT1c339561;font-size:7.8px;stroke:none;">smears, possibly after 1</text>
   <text y="506.211" x="436.025,440.33,444.386,448.606,452.522,455.034,456.984,460.288,464.344,466.695,470.509,474.815,477.084,479.596,483.902,487.047,491.103,493.453,495.887,499.943,502.361,504.735,508.791,512.067,514.373,518.593,522.649,525.082,527.032,531.338,533.288,535.8,539.856,542.126" svgx:width="0.55,0.52,0.54,0.52,0.32,0.25,0.44,0.52,0.55,0.49,0.55,0.29,0.32,0.55,0.42,0.52,0.55,0.31,0.52,0.31,0.55,0.52,0.42,0.55,0.54,0.52,0.31,0.25,0.55,0.25,0.32,0.52,0.29,0.44" style="fill:rgb(35,31,32);font-family:AdvOT1c339561;font-size:7.8px;stroke:none;">negative culture [3] or definitely</text>
   <text y="516.019" x="443.168,447.08,449.513,452.025,456.081,459.357,461.707,465.763,468.113,472.418,476.474,480.694,484.61,487.122,489.072,492.32,496.376,498.727,502.541,506.846,509.116,511.628,515.934,519.079,523.135,525.485,527.918,531.974,536.03" svgx:width="0.52,0.31,0.32,0.52,0.42,0.55,0.52,0.55,0.55,0.52,0.54,0.52,0.32,0.25,0.44,0.52,0.55,0.49,0.55,0.29,0.32,0.55,0.42,0.52,0.55,0.31,0.52,0.52,0.31" style="fill:rgb(35,31,32);font-family:AdvOT1c339561;font-size:7.8px;stroke:none;">after 1 negative culture [23]</text>
   <text y="525.77" x="42.859,47.407,51.143,54.481,58.701,62.921,67.383,69.489,73.95,78.24000000000001,80.673,83.271,87.49,91.0,93.316,97.454,101.838,106.955" svgx:width="0.58,0.48,0.45,0.54,0.54,0.57,0.27,0.57,0.55,0.55,0.33,0.54,0.45,0.55,0.57,0.56,0.66,0.3" style="fill:rgb(35,31,32);font-family:AdvOT47d13e92.B;font-size:7.8px;stroke:none;">Screening for LTBI</text>
   <text y="535.578" x="50.683,55.23,59.286,62.531,64.481,68.537,70.799,73.189,75.701,79.757,83.45,85.962,87.912,92.217,96.429,98.757,102.813" svgx:width="0.58,0.52,0.42,0.25,0.52,0.29,0.55,0.32,0.52,0.49,0.32,0.25,0.55,0.54,0.55,0.52,0.31" style="fill:rgb(35,31,32);font-family:AdvOT1c339561;font-size:7.8px;stroke:none;">Serial testing of</text>
   <text y="545.386" x="59.3,63.606,67.662,71.718,73.988,76.499,80.805,84.619,88.675,91.841,95.89699999999999,98.078,103.678,107.734,110.979,114.972,119.028,122.273" svgx:width="0.55,0.52,0.52,0.29,0.32,0.55,0.49,0.52,0.42,0.52,0.55,0.72,0.52,0.42,0.53,0.52,0.42,0.49" style="fill:rgb(35,31,32);font-family:AdvOT1c339561;font-size:7.8px;stroke:none;">healthcare workers</text>
   <text y="535.578" x="154.374,160.06,164.116,166.61200000000002,169.001,173.057,177.277,181.496,184.648,188.704,192.518,196.332,200.388,204.6,220.364,225.075,227.571,229.944,232.456,236.762,240.818,243.21,247.43,249.38,253.194,257.008,260.104,264.16,266.672,268.622,272.678,276.968,279.38,283.436,285.854,288.224,292.529,296.585,300.641,302.911,305.423,309.729,313.543,317.599,320.765" svgx:width="0.73,0.52,0.32,0.55,0.52,0.54,0.54,0.42,0.52,0.49,0.49,0.52,0.54,0.55,0.6,0.32,0.55,0.32,0.55,0.52,0.55,0.54,0.25,0.49,0.49,0.42,0.52,0.32,0.25,0.52,0.55,0.55,0.52,0.31,0.55,0.55,0.52,0.52,0.29,0.32,0.55,0.49,0.52,0.42,0.52" style="fill:rgb(35,31,32);font-family:AdvOT1c339561;font-size:7.8px;stroke:none;">Not addressed At the discretion of healthcare</text>
   <text y="545.386" x="232.894,235.327,239.243,243.057,245.007,247.277,249.227,251.739,253.689,257.745,261.559,263.821,266.228,269.29,273.346,277.652,280.163,282.113,286.419,290.47499999999997,292.873,296.688,300.744,303.989,305.939,309.995" svgx:width="0.31,0.52,0.49,0.25,0.29,0.25,0.32,0.25,0.52,0.49,0.29,0.55,0.42,0.52,0.55,0.32,0.25,0.55,0.52,0.55,0.49,0.52,0.42,0.25,0.52,0.29" style="fill:rgb(35,31,32);font-family:AdvOT1c339561;font-size:7.8px;stroke:none;">facilities; routine serial</text>
   <text y="555.193" x="228.358,230.87,234.926,238.619,241.131,243.081,247.386,251.59799999999998,253.983,258.288,262.345,264.841,267.192,270.31,274.366,278.18,282.236,289.061,295.887,299.943,304.248,308.468,312.524" svgx:width="0.32,0.52,0.49,0.32,0.25,0.55,0.54,0.55,0.55,0.52,0.32,0.55,0.42,0.52,0.49,0.52,0.88,0.88,0.52,0.55,0.54,0.52,0.54" style="fill:rgb(35,31,32);font-family:AdvOT1c339561;font-size:7.8px;stroke:none;">testing not recommended</text>
   <text y="535.578" x="344.919,350.605,354.661,357.157,359.546,363.602,367.821,372.041,375.193,379.249,383.063,386.877,390.933,395.145,397.529,399.799,404.994,409.947" svgx:width="0.73,0.52,0.32,0.55,0.52,0.54,0.54,0.42,0.52,0.49,0.49,0.52,0.54,0.55,0.29,0.67,0.63,0.64" style="fill:rgb(35,31,32);font-family:AdvOT1c339561;font-size:7.8px;stroke:none;">Not addressed (BCG</text>
   <text y="545.386" x="344.352,347.76,351.665,355.479,359.294,361.244,365.549,369.466,371.978,373.928,377.984,382.274,384.66,386.61,390.916,394.581,397.093,401.149,405.205,409.425,413.239" svgx:width="0.44,0.52,0.49,0.49,0.25,0.55,0.52,0.32,0.25,0.52,0.55,0.55,0.25,0.55,0.49,0.32,0.52,0.52,0.54,0.49,0.29" style="fill:rgb(35,31,32);font-family:AdvOT1c339561;font-size:7.8px;stroke:none;">vaccination instead?)</text>
   <text y="535.578" x="436.364,440.163,444.219,448.033,450.06100000000004,452.465,455.527,459.583,463.802,468.108,470.058,473.303,477.24,481.452,483.816,488.036,491.468,493.794,496.064,499.973,505.589,507.967,510.236,515.267,518.512,522.732,524.682,528.988,533.044,537.349,541.164" svgx:width="0.51,0.52,0.49,0.26,0.55,0.42,0.52,0.54,0.55,0.25,0.42,0.52,0.54,0.55,0.54,0.44,0.55,0.29,0.52,0.72,0.55,0.29,0.64,0.42,0.54,0.25,0.55,0.52,0.55,0.49,0.52" style="fill:rgb(35,31,32);font-family:AdvOT1c339561;font-size:7.8px;stroke:none;">Yes, required by law (Ordinance</text>
   <text y="545.386" x="437.044,441.1,443.51800000000003,445.888,450.919,454.733,458.547,462.853,467.073,471.129,473.553,475.503,479.559,483.865,487.921,490.183,492.545,497.904,501.96,506.095,508.364,510.876,515.1659999999999,517.547,522.5,526.556,529.622,533.678,535.9399999999999,538.353,540.303" svgx:width="0.52,0.31,0.55,0.64,0.49,0.49,0.55,0.54,0.52,0.32,0.25,0.52,0.55,0.52,0.29,0.55,0.69,0.52,0.52,0.29,0.32,0.55,0.55,0.63,0.52,0.42,0.52,0.29,0.55,0.25,0.55" style="fill:rgb(35,31,32);font-family:AdvOT1c339561;font-size:7.8px;stroke:none;">of Occupational Health Care) in</text>
   <text y="555.194" x="437.726,440.971,442.921,446.735,450.877,454.122,458.342,461.479,465.536,469.841,473.897,476.276,480.582,484.638,488.694,490.964,493.476,497.781,501.595,505.652,508.818,512.874,515.224,517.657,521.573,525.387,527.337,529.607,531.557,534.069,536.019,540.075" svgx:width="0.42,0.25,0.49,0.53,0.42,0.54,0.42,0.52,0.55,0.52,0.55,0.55,0.52,0.52,0.29,0.32,0.55,0.49,0.52,0.42,0.52,0.55,0.31,0.52,0.49,0.25,0.29,0.25,0.32,0.25,0.52,0.49" style="fill:rgb(35,31,32);font-family:AdvOT1c339561;font-size:7.8px;stroke:none;">risk-prone healthcare facilities</text>
   <text y="565.002" x="42.859,47.976,50.082,53.982,56.088,60.55,63.147,67.367,71.103,73.779,75.885,80.105" svgx:width="0.66,0.27,0.5,0.27,0.57,0.33,0.54,0.48,0.34,0.27,0.54,0.57" style="fill:rgb(35,31,32);font-family:AdvOT47d13e92.B;font-size:7.8px;stroke:none;">Disinfection</text>
   <text y="574.81" x="50.683,55.963,60.183,64.403,68.459,71.704,74.949,79.005,80.955,84.231,86.455,90.511,93.78699999999999,96.093,98.043,102.349,105.594,109.814,114.119,117.934,120.42999999999999,122.851,128.132" svgx:width="0.68,0.54,0.54,0.52,0.42,0.42,0.52,0.25,0.42,0.55,0.52,0.42,0.55,0.25,0.55,0.42,0.54,0.55,0.49,0.32,0.55,0.68,0.54" style="fill:rgb(35,31,32);font-family:AdvOT1c339561;font-size:7.8px;stroke:none;">Upper-air or in-duct UV</text>
   <text y="584.618" x="60.15,64.37,66.387,70.201,72.151,76.456,78.89,82.946,86.76,89.272,91.222,95.278,99.56800000000001,101.989,104.259,109.54,113.76,118.791,120.983" svgx:width="0.54,0.25,0.49,0.25,0.55,0.31,0.52,0.49,0.32,0.25,0.52,0.55,0.55,0.29,0.68,0.54,0.64,0.28,0.29" style="fill:rgb(35,31,32);font-family:AdvOT1c339561;font-size:7.8px;stroke:none;">disinfection (UVGI)</text>
   <text y="574.81" x="173.65,177.448,181.504,185.326,236.182,240.037,244.093,247.907,249.935,252.282,256.502,260.808,263.304,265.718,270.024,274.08,276.57599999999996,278.928,280.878,285.168,287.545,289.815,291.765,295.821,300.11100000000005,302.512,306.568" svgx:width="0.51,0.52,0.49,0.55,0.51,0.52,0.49,0.26,0.55,0.54,0.55,0.32,0.55,0.55,0.52,0.32,0.55,0.25,0.55,0.55,0.29,0.25,0.52,0.55,0.55,0.52,0.31" style="fill:rgb(35,31,32);font-family:AdvOT1c339561;font-size:7.8px;stroke:none;">Yes Yes, but not in lieu of</text>
   <text y="584.618" x="255.004,258.292,262.348,266.654,269.166,271.116,273.386,277.341,279.853,281.803,285.859" svgx:width="0.44,0.52,0.55,0.32,0.25,0.29,0.52,0.32,0.25,0.52,0.55" style="fill:rgb(35,31,32);font-family:AdvOT1c339561;font-size:7.8px;stroke:none;">ventilation</text>
   <text y="574.81" x="354.84,360.527,364.583,367.079,369.467,373.523,377.743,381.963,385.057,389.113,392.928,396.742,400.798,405.01,435.117,440.803,444.859,447.371,451.427,455.639,458.02,462.076,465.898,468.281,472.501,476.557,480.863,484.919,488.01,492.066,494.328,496.741,500.797,505.017,507.528,509.478,513.534,517.84,519.868,522.252,526.472,530.777,533.273,535.631,539.937,543.993" svgx:width="0.73,0.52,0.32,0.55,0.52,0.54,0.54,0.42,0.52,0.49,0.49,0.52,0.54,0.55,0.73,0.52,0.32,0.52,0.54,0.55,0.52,0.49,0.55,0.54,0.52,0.55,0.52,0.42,0.52,0.29,0.55,0.52,0.54,0.32,0.25,0.52,0.55,0.26,0.55,0.54,0.55,0.32,0.55,0.55,0.52,0.32" style="fill:rgb(35,31,32);font-family:AdvOT1c339561;font-size:7.8px;stroke:none;">Not addressed Noted as general option, but not</text>
   <text y="584.618" x="466.015,469.134,473.19,477.004,481.06,487.885,494.71,498.766,503.072,507.292,511.348" svgx:width="0.42,0.52,0.49,0.52,0.88,0.88,0.52,0.55,0.54,0.52,0.54" style="fill:rgb(35,31,32);font-family:AdvOT1c339561;font-size:7.8px;stroke:none;">recommended</text>
   <text y="614.155" x="42.86,49.604,55.1,60.26,62.58,66.557,73.02,77.18,80.508,82.836,87.156,91.162,96.658,100.817,104.977,107.305,109.881,114.281,118.317,123.477,126.805,131.133,135.293,139.709,141.618,145.282,149.271,151.847,153.847,158.007,162.423,164.743,168.773,174.605,179.605,181.853,184.173,188.163,192.579,196.739,201.067,205.001,207.577,209.577,212.882,217.042,221.046,225.373,228.529,232.689,236.601,240.512,244.928,248.088,252.248,256.251,258.251,262.163,266.323,268.651,272.579,275.155,277.155,281.315,285.731,288.051,292.081,297.577,302.321,307.105,311.937,314.257,318.274,322.69,324.69,329.018,333.41799999999995,337.436,341.596,344.092,346.588,348.588,352.5,354.5,358.66,363.076,366.988,370.508,374.4,378.728,382.887,386.215,388.791,390.791,394.703,399.119,401.447,405.41,407.986,412.146,416.125,420.285,422.285,425.613,427.933,431.943,436.519,441.095,446.095,448.415,452.409,454.905,456.905,459.233,461.809,465.969,469.297,471.297,475.713,480.033,484.044,486.54,490.507,494.419,498.579,502.583,506.911,508.911,513.071,516.983,521.143,523.4630000000001,527.471,533.967,539.295,544.455" svgx:width="0.84,0.69,0.64,0.29,0.55,0.84,0.52,0.42,0.29,0.54,0.55,0.69,0.52,0.52,0.29,0.32,0.55,0.55,0.64,0.42,0.54,0.52,0.55,0.25,0.46,0.52,0.32,0.25,0.52,0.55,0.29,0.55,0.73,0.63,0.28,0.29,0.55,0.55,0.52,0.54,0.52,0.32,0.25,0.44,0.52,0.55,0.54,0.42,0.52,0.49,0.49,0.55,0.42,0.52,0.55,0.25,0.49,0.52,0.29,0.52,0.32,0.25,0.52,0.55,0.29,0.55,0.69,0.59,0.63,0.6,0.29,0.55,0.55,0.25,0.54,0.55,0.55,0.52,0.31,0.31,0.25,0.49,0.25,0.52,0.55,0.49,0.44,0.55,0.54,0.52,0.42,0.32,0.25,0.49,0.55,0.29,0.52,0.32,0.52,0.55,0.52,0.25,0.42,0.29,0.55,0.57,0.57,0.63,0.29,0.55,0.31,0.25,0.29,0.32,0.52,0.42,0.25,0.55,0.54,0.55,0.31,0.52,0.49,0.52,0.55,0.54,0.25,0.52,0.49,0.52,0.29,0.55,0.81,0.67,0.64,0.29" style="fill:rgb(35,31,32);font-family:AdvOT1c339561;font-size:8.0px;stroke:none;">WHO: World Health Organization; NPI: negative pressure isolation; HEPA: high efficiency particulate air; FFP: filtering face piece; MDR:</text>
   <text y="623.622" x="42.86,49.86,54.276,56.604,59.18,61.18,65.508,68.835,73.251,77.579,80.787,83.962,88.122,92.034,94.034,97.739,100.315,104.475,108.891,111.467,113.78699999999999,118.262,122.59,127.918,133.078,135.398,139.862,143.887,147.631,150.207,154.367,158.783,162.695,164.695,167.982,172.142,174.47,177.99,182.439,186.767,190.095,194.511,198.839,202.167,205.286,209.446,213.358,215.358,219.062,221.638,225.798,230.214,232.79,235.10999999999999,239.585,243.913,249.241,251.561,256.026,258.602,263.018,267.346,271.506,274.621,278.533,282.949,285.277,289.437,293.349,295.349,299.261,301.581,306.029,311.188,313.436,318.012,320.332,324.794,328.122,330.122,332.618,336.778,343.778,348.106,350.106,354.018,356.018,360.433,362.753,367.201,371.529,376.856,382.016,384.336,388.8,392.769,396.513,399.089,403.249,407.665,411.577,413.577,416.864,421.024,423.352,426.87199999999996,431.321,435.648,438.976,443.392,447.712,452.184,455.359,459.519,463.431,465.431,469.135,471.711,475.871,480.287,482.863,485.183,489.658,493.91,498.238,503.566,505.814,508.134,512.562,514.89,518.911,521.487,525.647,530.063,532.6229999999999,537.11,541.438" svgx:width="0.88,0.55,0.29,0.32,0.25,0.54,0.42,0.55,0.54,0.42,0.42,0.52,0.49,0.25,0.49,0.32,0.52,0.55,0.32,0.29,0.55,0.54,0.67,0.64,0.29,0.55,0.52,0.47,0.32,0.52,0.55,0.49,0.25,0.44,0.52,0.29,0.44,0.55,0.54,0.42,0.55,0.54,0.42,0.42,0.52,0.49,0.25,0.49,0.32,0.52,0.55,0.32,0.29,0.55,0.54,0.67,0.29,0.55,0.32,0.55,0.54,0.52,0.42,0.49,0.55,0.29,0.52,0.49,0.25,0.49,0.29,0.55,0.64,0.28,0.57,0.29,0.55,0.42,0.25,0.31,0.52,0.88,0.54,0.25,0.49,0.25,0.55,0.29,0.55,0.54,0.67,0.64,0.29,0.55,0.52,0.47,0.32,0.52,0.55,0.49,0.25,0.44,0.52,0.29,0.44,0.55,0.54,0.42,0.55,0.54,0.55,0.42,0.52,0.49,0.25,0.49,0.32,0.52,0.55,0.32,0.29,0.55,0.57,0.54,0.67,0.28,0.29,0.55,0.29,0.52,0.32,0.52,0.55,0.32,0.55,0.54,0.67" style="fill:rgb(35,31,32);font-family:AdvOT1c339561;font-size:8.0px;stroke:none;">multidrug-resistant; XDR: extensively drug-resistant; TB: tuberculosis; RIF: rifampicin; XDR: extensively drug resistant; LTBI: latent TB</text>
   <text y="633.147" x="42.86,44.86,49.276,51.772,55.932,59.844,62.42,64.42,68.579,72.907,75.22699999999999,77.67,82.998,88.078,93.238,95.55799999999999,97.91,102.237,106.243,110.155,112.155,114.483,116.811,120.971,123.308,128.388,132.547,134.875,141.875,146.035,148.611,151.187,155.282,159.477,164.637,169.053,173.213,176.541,178.54,182.956,185.27599999999998,187.596,193.012,197.34,202.5,204.748,207.06799999999998,209.423,213.839,216.167,218.743,221.896,225.865,229.361,231.361,235.521,237.849,242.008,244.568,246.955,251.283,255.443,258.771,265.771,267.771,271.683,273.682,278.01,282.17,284.49,286.866,288.866,292.194,295.313,299.473,303.801,305.801,309.77,312.346,314.346,318.506,322.922" svgx:width="0.25,0.55,0.31,0.52,0.49,0.32,0.25,0.52,0.55,0.29,0.55,0.67,0.63,0.64,0.29,0.55,0.54,0.52,0.49,0.25,0.29,0.29,0.52,0.55,0.63,0.52,0.29,0.88,0.52,0.32,0.32,0.52,0.52,0.64,0.55,0.52,0.42,0.25,0.55,0.29,0.55,0.68,0.54,0.64,0.28,0.29,0.55,0.55,0.29,0.32,0.42,0.52,0.44,0.25,0.52,0.29,0.52,0.32,0.55,0.54,0.52,0.42,0.88,0.25,0.49,0.25,0.54,0.52,0.29,0.55,0.25,0.42,0.42,0.52,0.54,0.25,0.52,0.32,0.25,0.52,0.55,0.26" style="fill:rgb(35,31,32);font-family:AdvOT1c339561;font-size:8.0px;stroke:none;">infection; BCG: bacille Calmette–Guérin; UVGI: ultraviolet germicidal irradiation.</text>
   <text y="769.549" x="36.85,41.266,43.842,46.418,50.746,54.658,56.986,59.818,62.65,66.898,71.058,73.058,75.138,79.298,82.626,86.954,89.786,93.946,98.106,100.185,104.345,108.505,112.593,116.752,119.584,123.744,127.904,132.064,136.224,140.384,144.544,148.704,152.864,154.886,159.046,163.205,167.365,171.525,175.685,179.013,183.173,187.333,191.493,195.653,548.615" svgx:width="0.55,0.32,0.32,0.54,0.49,0.29,0.35,0.35,0.54,0.52,0.25,0.26,0.52,0.42,0.54,0.35,0.52,0.52,0.26,0.52,0.52,0.52,0.52,0.35,0.52,0.52,0.52,0.52,0.52,0.52,0.52,0.52,0.26,0.52,0.52,0.52,0.52,0.52,0.42,0.52,0.52,0.52,0.52,0.55,0.52" style="fill:rgb(0,174,239);font-family:AdvOT1c339561;font-size:8.0px;stroke:none;">https://doi.org/10.1183/23120541.00317-2019 6</text>
   <text y="37.477" x="432.962,437.29,442.706,448.034,452.778,457.938,463.018,468.339,472.477,477.637,482.301,484.549,489.18899999999996,493.964,496.524,501.334,506.494,508.574,510.972,516.299,518.547,523.291,527.851,530.247,534.991,539.311,541.302,546.134,550.71" svgx:width="0.54,0.68,0.67,0.59,0.64,0.63,0.68,0.57,0.64,0.58,0.28,0.58,0.55,0.32,0.55,0.64,0.26,0.55,0.67,0.28,0.59,0.57,0.55,0.59,0.54,0.55,0.6,0.57,0.26" style="fill:rgb(0,174,239);font-family:AdvOT1c339561;font-size:8.0px;stroke:none;">TUBERCULOSIS | R. DIEL ET AL.</text>
  </g>
 </g>
</svg>
