<?xml version="1.0" encoding="UTF-8"?>
<svg height="662.81" width="650.52" xmlns="http://www.w3.org/2000/svg">
 <g>
  <path style="fill:rgb(23,22,21);stroke:none;stroke-width:1.0;" d="M372.810 58.300 L371.570 58.300 L371.670 57.880 C371.870 56.970 372.270 56.720 372.610 56.720 C372.750 56.720 372.940 56.830 373.090 57.010 C373.240 57.180 373.270 57.290 373.330 57.260 L373.440 57.210 C373.500 57.190 373.510 57.140 373.520 57.100 L373.640 56.610 C373.670 56.520 373.560 56.420 373.380 56.370 C373.200 56.310 372.990 56.300 372.840 56.300 C372.540 56.300 371.120 56.400 370.770 58.300 L369.960 58.300 L369.890 58.660 L370.690 58.660 L369.940 62.570 L370.710 62.570 L371.460 58.660 L372.570 58.660 L372.780 58.480 L372.810 58.300 ZM367.600 58.670 C368.320 58.670 368.480 59.360 368.480 59.820 C368.480 60.570 368.060 62.200 366.960 62.200 C366.360 62.200 366.080 61.530 366.080 60.850 C366.080 59.460 367.030 58.670 367.600 58.670 ZM367.790 58.200 C366.420 58.200 365.260 59.430 365.260 61.030 C365.260 61.760 365.700 62.670 366.870 62.670 C368.390 62.670 369.300 61.050 369.300 59.880 C369.300 58.950 368.750 58.200 367.790 58.200 ZM362.090 62.300 C362.230 62.250 362.350 62.230 362.340 62.110 L362.300 61.930 C362.260 61.830 362.060 61.930 361.880 61.950 C361.680 61.980 361.650 61.870 361.710 61.550 L362.670 56.550 C362.700 56.370 362.660 56.290 362.460 56.300 L361.590 56.300 C361.460 56.300 361.430 56.320 361.410 56.400 L361.360 56.550 C361.340 56.660 361.610 56.670 361.740 56.810 C361.790 56.860 361.850 56.920 361.800 57.150 L360.780 62.400 C360.760 62.570 360.810 62.680 360.980 62.670 L362.090 62.300 ZM357.370 62.160 C356.810 62.160 356.770 61.360 356.770 61.170 C356.770 59.890 357.560 58.570 358.550 58.570 C358.860 58.570 359.220 58.720 359.220 59.270 C359.220 60.540 358.120 62.160 357.370 62.160 ZM358.640 62.400 C358.600 62.570 358.660 62.670 358.890 62.670 L359.940 62.300 C360.080 62.250 360.190 62.230 360.190 62.110 L360.150 61.930 C360.120 61.830 359.920 61.930 359.730 61.950 C359.540 61.980 359.510 61.870 359.570 61.550 L360.030 59.150 C360.120 58.590 359.920 58.580 359.680 58.430 C359.380 58.290 359.030 58.200 358.610 58.200 C357.020 58.200 355.950 59.730 355.950 61.050 C355.950 62.160 356.580 62.670 357.170 62.670 C357.750 62.670 358.510 62.050 358.830 61.460 L358.850 61.470 L358.640 62.400 ZM351.080 62.570 L351.830 62.570 L352.100 61.170 C352.240 60.430 352.350 59.850 352.880 59.260 C353.190 58.900 353.520 58.740 353.760 58.740 C354.350 58.740 354.420 59.160 354.230 60.120 L353.790 62.400 C353.760 62.570 353.810 62.680 354.000 62.670 L355.080 62.300 C355.220 62.250 355.340 62.230 355.330 62.110 L355.300 61.930 C355.260 61.830 355.060 61.930 354.880 61.950 C354.680 61.980 354.650 61.870 354.710 61.550 L355.080 59.670 C355.280 58.670 355.050 58.200 354.280 58.200 C353.640 58.220 352.890 58.580 352.480 59.220 L352.470 59.210 L352.610 58.470 C352.650 58.290 352.540 58.300 352.460 58.300 L351.530 58.300 C351.400 58.300 351.370 58.330 351.360 58.410 L351.310 58.560 C351.280 58.670 351.550 58.680 351.680 58.810 C351.730 58.860 351.770 58.920 351.730 59.160 L351.080 62.570 ZM349.610 58.470 C349.640 58.290 349.540 58.300 349.450 58.300 L348.520 58.300 C348.400 58.300 348.360 58.330 348.350 58.410 L348.300 58.560 C348.280 58.670 348.550 58.680 348.680 58.810 C348.730 58.860 348.760 58.920 348.720 59.160 L348.070 62.570 L348.830 62.570 L349.100 61.170 C349.290 60.100 349.340 59.700 349.570 59.370 C349.810 59.030 350.120 58.930 350.470 59.050 C350.660 59.120 350.780 59.280 350.880 59.160 L351.020 59.000 C351.050 58.980 351.070 58.950 351.060 58.920 L351.000 58.430 C350.970 58.330 350.930 58.200 350.710 58.200 C350.420 58.200 349.870 58.540 349.520 59.040 L349.510 59.030 L349.610 58.470 ZM346.660 58.300 L346.380 59.670 C346.020 61.570 345.080 62.110 344.800 62.110 C344.210 62.110 344.190 61.700 344.380 60.730 L344.790 58.560 C344.820 58.380 344.780 58.290 344.630 58.300 L343.740 58.300 C343.610 58.300 343.580 58.330 343.560 58.410 L343.520 58.560 C343.490 58.670 343.760 58.680 343.880 58.810 C343.930 58.860 343.980 58.920 343.930 59.160 L343.530 61.200 C343.350 62.050 343.630 62.670 344.400 62.670 C344.940 62.670 345.580 62.310 346.050 61.510 L346.070 61.530 L345.880 62.400 C345.850 62.570 345.900 62.680 346.140 62.670 L347.180 62.300 C347.320 62.250 347.440 62.230 347.430 62.110 L347.400 61.930 C347.360 61.830 347.160 61.930 346.980 61.950 C346.780 61.980 346.750 61.870 346.810 61.550 L347.430 58.300 L346.660 58.300 ZM341.150 58.670 C341.870 58.670 342.030 59.360 342.030 59.820 C342.030 60.570 341.610 62.200 340.510 62.200 C339.920 62.200 339.630 61.530 339.630 60.850 C339.630 59.460 340.580 58.670 341.150 58.670 ZM341.340 58.200 C339.980 58.200 338.820 59.430 338.820 61.030 C338.820 61.760 339.250 62.670 340.420 62.670 C341.950 62.670 342.850 61.050 342.850 59.880 C342.850 58.950 342.310 58.200 341.340 58.200 ZM338.140 57.440 C338.200 57.130 338.420 57.010 338.630 56.980 C338.690 56.960 338.740 56.950 338.790 56.870 L338.860 56.730 C338.930 56.620 338.850 56.600 338.790 56.600 L337.140 56.600 C337.080 56.600 337.030 56.620 337.010 56.660 L336.900 56.820 C336.860 56.890 336.870 56.950 336.960 56.960 C337.320 57.050 337.440 57.090 337.370 57.440 L336.420 62.530 C336.350 62.870 336.230 63.250 336.110 63.450 C336.000 63.620 335.820 63.790 335.660 63.830 L335.580 64.200 C336.200 64.200 336.950 63.800 337.230 62.340 L338.140 57.440 "/>
  <path style="fill:rgb(23,22,21);stroke:none;stroke-width:1.0;" d="M412.020 74.330 C411.980 74.460 412.070 74.480 412.150 74.480 L416.320 74.480 C416.590 74.480 416.770 74.390 416.770 74.230 L416.770 73.340 C416.770 73.300 416.750 73.260 416.710 73.250 L416.470 73.170 C416.330 73.140 416.200 73.950 415.180 73.950 L414.320 73.950 C413.900 73.950 413.720 73.860 413.720 73.040 L413.720 68.570 C413.720 68.240 413.980 68.090 414.220 68.050 C414.290 68.030 414.370 68.020 414.410 67.920 L414.470 67.760 C414.520 67.630 414.420 67.610 414.340 67.610 L412.280 67.610 C412.190 67.610 412.140 67.640 412.110 67.680 L412.030 67.860 C411.990 67.940 412.020 68.010 412.140 68.030 C412.620 68.130 412.770 68.190 412.770 68.570 L412.770 73.520 C412.770 73.850 412.520 74.000 412.270 74.040 C412.200 74.060 412.120 74.070 412.080 74.180 L412.020 74.330 ZM411.360 74.190 C411.380 74.130 411.330 74.060 411.220 74.030 C410.680 73.880 410.650 73.930 410.450 73.440 C409.800 71.840 408.970 69.850 408.300 67.890 C408.270 67.740 408.190 67.610 408.050 67.610 L406.640 67.610 C406.530 67.610 406.440 67.620 406.400 67.710 L406.350 67.850 C406.220 68.080 406.680 68.020 406.900 68.220 C407.010 68.320 407.260 68.470 407.080 68.910 L405.270 73.440 C405.070 73.890 405.000 73.950 404.590 74.040 C404.440 74.080 404.360 74.100 404.330 74.180 L404.280 74.300 C404.200 74.510 404.400 74.480 404.590 74.480 L406.060 74.480 C406.200 74.480 406.230 74.370 406.260 74.320 L406.320 74.220 C406.440 74.000 405.670 74.090 405.850 73.620 L406.330 72.390 L409.020 72.390 L409.430 73.520 C409.640 74.100 409.110 74.010 409.030 74.160 L408.940 74.340 C408.880 74.450 408.980 74.480 409.070 74.480 L411.010 74.480 C411.090 74.480 411.200 74.470 411.240 74.400 L411.360 74.190 ZM406.520 71.860 L407.680 68.900 L408.820 71.860 L406.520 71.860 ZM402.510 72.990 L402.490 72.990 L398.440 68.010 C398.260 67.810 398.130 67.630 397.890 67.610 L396.710 67.610 C396.620 67.610 396.570 67.640 396.540 67.680 L396.460 67.860 C396.420 67.950 396.450 68.010 396.630 68.050 C396.840 68.090 397.200 68.240 397.520 68.580 L397.520 73.520 C397.520 73.850 397.270 74.000 397.020 74.040 C396.950 74.060 396.880 74.070 396.840 74.180 L396.780 74.330 C396.730 74.460 396.830 74.480 396.910 74.480 L398.620 74.480 C398.710 74.480 398.760 74.450 398.790 74.410 L398.870 74.230 C398.910 74.160 398.890 74.080 398.760 74.060 C398.280 73.960 398.130 73.900 398.130 73.520 L398.130 69.160 L398.150 69.160 L402.130 74.040 C402.430 74.410 402.490 74.480 402.540 74.480 L402.900 74.480 C403.080 74.480 403.120 74.350 403.120 74.160 L403.120 68.570 C403.120 68.240 403.370 68.090 403.620 68.050 C403.690 68.030 403.760 68.020 403.800 67.920 L403.860 67.760 C403.910 67.630 403.810 67.610 403.730 67.610 L402.020 67.610 C401.930 67.610 401.880 67.640 401.850 67.680 L401.770 67.860 C401.730 67.940 401.750 68.010 401.880 68.030 C402.360 68.130 402.510 68.190 402.510 68.570 L402.510 72.990 ZM392.260 74.070 C390.630 74.070 389.690 72.700 389.690 70.880 C389.690 69.110 390.730 68.020 392.140 68.020 C393.640 68.020 394.660 69.170 394.660 71.020 C394.660 72.410 393.900 74.070 392.260 74.070 ZM392.000 74.600 C394.070 74.600 395.700 73.090 395.700 70.910 C395.700 69.010 394.290 67.490 392.340 67.490 C390.030 67.490 388.640 69.260 388.640 71.180 C388.640 73.400 390.480 74.600 392.000 74.600 ZM385.870 73.520 C385.870 73.850 385.610 74.000 385.370 74.040 C385.300 74.060 385.220 74.070 385.180 74.180 L385.120 74.330 C385.070 74.460 385.170 74.480 385.250 74.480 L387.310 74.480 C387.400 74.480 387.450 74.450 387.480 74.410 L387.560 74.230 C387.600 74.160 387.580 74.080 387.450 74.060 C386.970 73.960 386.820 73.900 386.820 73.520 L386.820 68.570 C386.820 68.240 387.080 68.090 387.320 68.050 C387.390 68.030 387.470 68.020 387.510 67.920 L387.570 67.760 C387.610 67.630 387.520 67.610 387.440 67.610 L385.380 67.610 C385.290 67.610 385.240 67.640 385.210 67.680 L385.130 67.860 C385.090 67.940 385.110 68.010 385.240 68.030 C385.720 68.130 385.870 68.190 385.870 68.570 L385.870 73.520 ZM382.090 68.220 L383.870 68.220 C384.020 68.220 384.130 68.210 384.240 68.100 L384.430 67.820 C384.570 67.660 384.430 67.610 384.290 67.610 L379.360 67.610 C379.210 67.610 379.100 67.620 378.990 67.730 L378.800 68.010 C378.670 68.170 378.800 68.220 378.940 68.220 L381.140 68.220 L381.140 73.520 C381.140 73.850 380.890 74.000 380.640 74.040 C380.570 74.060 380.490 74.070 380.450 74.180 L380.390 74.330 C380.350 74.460 380.440 74.480 380.520 74.480 L382.580 74.480 C382.670 74.480 382.720 74.450 382.750 74.410 L382.830 74.230 C382.870 74.160 382.850 74.080 382.720 74.060 C382.240 73.960 382.090 73.900 382.090 73.520 L382.090 68.220 ZM379.200 74.190 C379.230 74.130 379.180 74.060 379.070 74.030 C378.530 73.880 378.500 73.930 378.300 73.440 C377.650 71.840 376.820 69.850 376.140 67.890 C376.120 67.740 376.040 67.610 375.900 67.610 L374.490 67.610 C374.380 67.610 374.290 67.620 374.250 67.710 L374.200 67.850 C374.070 68.080 374.520 68.020 374.750 68.220 C374.860 68.320 375.100 68.470 374.930 68.910 L373.120 73.440 C372.920 73.890 372.850 73.950 372.440 74.040 C372.290 74.080 372.210 74.100 372.180 74.180 L372.130 74.300 C372.040 74.510 372.250 74.480 372.440 74.480 L373.910 74.480 C374.040 74.480 374.070 74.370 374.100 74.320 L374.160 74.220 C374.290 74.000 373.510 74.090 373.700 73.620 L374.180 72.390 L376.870 72.390 L377.280 73.520 C377.490 74.100 376.960 74.010 376.880 74.160 L376.790 74.340 C376.730 74.450 376.830 74.480 376.920 74.480 L378.860 74.480 C378.940 74.480 379.050 74.470 379.090 74.400 L379.200 74.190 ZM374.370 71.860 L375.530 68.900 L376.660 71.860 L374.370 71.860 ZM370.360 72.990 L370.340 72.990 L366.280 68.010 C366.110 67.810 365.980 67.630 365.730 67.610 L364.560 67.610 C364.470 67.610 364.420 67.640 364.390 67.680 L364.310 67.860 C364.270 67.950 364.290 68.010 364.480 68.050 C364.690 68.090 365.050 68.240 365.370 68.580 L365.370 73.520 C365.370 73.850 365.120 74.000 364.870 74.040 C364.800 74.060 364.730 74.070 364.690 74.180 L364.630 74.330 C364.580 74.460 364.670 74.480 364.750 74.480 L366.470 74.480 C366.560 74.480 366.610 74.450 366.640 74.410 L366.720 74.230 C366.760 74.160 366.730 74.080 366.610 74.060 C366.130 73.960 365.980 73.900 365.980 73.520 L365.980 69.160 L366.000 69.160 L369.970 74.040 C370.280 74.410 370.340 74.480 370.390 74.480 L370.750 74.480 C370.920 74.480 370.960 74.350 370.960 74.160 L370.960 68.570 C370.960 68.240 371.220 68.090 371.460 68.050 C371.530 68.030 371.610 68.020 371.650 67.920 L371.710 67.760 C371.760 67.630 371.660 67.610 371.580 67.610 L369.870 67.610 C369.780 67.610 369.730 67.640 369.700 67.680 L369.620 67.860 C369.580 67.940 369.600 68.010 369.730 68.030 C370.210 68.130 370.360 68.190 370.360 68.570 L370.360 72.990 ZM363.950 74.190 C363.510 73.990 362.790 72.770 361.860 71.200 C362.550 70.810 363.070 70.070 363.070 69.320 C363.060 68.120 362.300 67.610 361.110 67.610 L358.530 67.610 C358.480 67.610 358.410 67.630 358.370 67.720 L358.290 67.890 C358.240 67.990 358.330 68.020 358.480 68.050 C358.900 68.120 359.090 68.270 359.090 68.650 L359.090 73.520 C359.090 73.850 358.840 74.000 358.590 74.040 C358.520 74.060 358.450 74.070 358.410 74.180 L358.350 74.330 C358.300 74.460 358.400 74.480 358.480 74.480 L360.540 74.480 C360.620 74.480 360.670 74.450 360.700 74.410 L360.780 74.230 C360.820 74.160 360.800 74.080 360.670 74.060 C360.190 73.960 360.040 73.900 360.040 73.520 L360.040 71.490 L361.070 71.490 L362.560 74.240 C362.600 74.320 362.660 74.480 362.820 74.480 L363.950 74.480 L363.950 74.190 ZM360.040 68.140 L360.920 68.140 C361.600 68.140 362.100 68.430 362.110 69.410 C362.140 70.490 361.480 70.980 360.720 70.960 L360.040 70.960 L360.040 68.140 ZM354.460 68.140 L355.890 68.140 C356.550 68.140 356.700 68.930 356.850 68.810 L357.020 68.660 C357.050 68.630 357.070 68.600 357.070 68.570 L357.070 67.860 C357.090 67.720 356.970 67.610 356.790 67.610 L352.950 67.610 C352.890 67.610 352.820 67.630 352.780 67.720 L352.710 67.890 C352.660 67.990 352.750 68.020 352.890 68.050 C353.320 68.120 353.510 68.270 353.510 68.650 L353.510 73.800 C353.510 74.490 353.730 74.480 354.030 74.480 L357.060 74.480 C357.330 74.480 357.510 74.390 357.510 74.230 L357.510 73.340 C357.510 73.300 357.490 73.260 357.450 73.250 L357.210 73.170 C357.070 73.140 356.930 73.950 355.920 73.950 L355.060 73.950 C354.640 73.950 354.460 73.860 354.460 73.040 L354.460 71.020 L356.400 71.020 C356.560 71.020 356.660 70.990 356.720 70.880 L356.860 70.630 C356.900 70.550 356.860 70.490 356.730 70.490 L354.460 70.490 L354.460 68.140 ZM349.940 68.220 L351.720 68.220 C351.870 68.220 351.980 68.210 352.090 68.100 L352.270 67.820 C352.410 67.660 352.270 67.610 352.140 67.610 L347.210 67.610 C347.050 67.610 346.950 67.620 346.840 67.730 L346.650 68.010 C346.520 68.170 346.650 68.220 346.790 68.220 L348.990 68.220 L348.990 73.520 C348.990 73.850 348.730 74.000 348.490 74.040 C348.420 74.060 348.340 74.070 348.300 74.180 L348.240 74.330 C348.190 74.460 348.290 74.480 348.370 74.480 L350.430 74.480 C350.520 74.480 350.570 74.450 350.600 74.410 L350.680 74.230 C350.710 74.160 350.700 74.080 350.570 74.060 C350.090 73.960 349.940 73.900 349.940 73.520 L349.940 68.220 ZM344.890 72.990 L344.870 72.990 L340.820 68.010 C340.640 67.810 340.510 67.630 340.270 67.610 L339.090 67.610 C339.000 67.610 338.950 67.640 338.920 67.680 L338.840 67.860 C338.800 67.950 338.820 68.010 339.010 68.050 C339.220 68.090 339.580 68.240 339.900 68.580 L339.900 73.520 C339.900 73.850 339.650 74.000 339.400 74.040 C339.330 74.060 339.260 74.070 339.220 74.180 L339.160 74.330 C339.110 74.460 339.210 74.480 339.290 74.480 L341.000 74.480 C341.090 74.480 341.140 74.450 341.170 74.410 L341.250 74.230 C341.290 74.160 341.270 74.080 341.140 74.060 C340.660 73.960 340.510 73.900 340.510 73.520 L340.510 69.160 L340.530 69.160 L344.510 74.040 C344.810 74.410 344.870 74.480 344.920 74.480 L345.280 74.480 C345.460 74.480 345.490 74.350 345.490 74.160 L345.490 68.570 C345.490 68.240 345.750 68.090 346.000 68.050 C346.070 68.030 346.140 68.020 346.180 67.920 L346.240 67.760 C346.290 67.630 346.190 67.610 346.110 67.610 L344.400 67.610 C344.310 67.610 344.260 67.640 344.230 67.680 L344.150 67.860 C344.110 67.940 344.130 68.010 344.260 68.030 C344.740 68.130 344.890 68.190 344.890 68.570 L344.890 72.990 ZM336.340 73.520 C336.340 73.850 336.090 74.000 335.840 74.040 C335.770 74.060 335.700 74.070 335.650 74.180 L335.600 74.330 C335.550 74.460 335.640 74.480 335.720 74.480 L337.780 74.480 C337.870 74.480 337.920 74.450 337.950 74.410 L338.030 74.230 C338.070 74.160 338.050 74.080 337.920 74.060 C337.440 73.960 337.290 73.900 337.290 73.520 L337.290 68.570 C337.290 68.240 337.550 68.090 337.790 68.050 C337.860 68.030 337.940 68.020 337.980 67.920 L338.040 67.760 C338.090 67.630 337.990 67.610 337.910 67.610 L335.850 67.610 C335.760 67.610 335.710 67.640 335.680 67.680 L335.610 67.860 C335.570 67.940 335.590 68.010 335.710 68.030 C336.200 68.130 336.340 68.190 336.340 68.570 L336.340 73.520 "/>
  <path style="fill:rgb(23,22,21);stroke:none;stroke-width:1.0;" d="M428.700 80.090 C428.700 79.760 428.960 79.610 429.200 79.570 C429.270 79.550 429.350 79.540 429.390 79.430 L429.450 79.280 C429.500 79.150 429.400 79.130 429.320 79.130 L427.260 79.130 C427.170 79.130 427.120 79.160 427.090 79.200 L427.010 79.370 C426.970 79.450 426.990 79.530 427.120 79.550 C427.600 79.650 427.750 79.710 427.750 80.090 L427.750 85.040 C427.750 85.370 427.490 85.520 427.250 85.560 C427.180 85.570 427.100 85.590 427.060 85.690 L427.000 85.850 C426.950 85.980 427.050 86.000 427.130 86.000 L429.190 86.000 C429.280 86.000 429.330 85.970 429.360 85.930 L429.440 85.750 C429.480 85.670 429.460 85.600 429.330 85.570 C428.850 85.480 428.700 85.420 428.700 85.040 L428.700 82.470 L432.050 82.470 L432.050 85.040 C432.050 85.370 431.790 85.520 431.550 85.560 C431.480 85.570 431.400 85.590 431.360 85.690 L431.300 85.850 C431.250 85.980 431.350 86.000 431.430 86.000 L433.490 86.000 C433.580 86.000 433.630 85.970 433.660 85.930 L433.730 85.750 C433.770 85.670 433.750 85.600 433.630 85.570 C433.150 85.480 433.000 85.420 433.000 85.040 L433.000 80.090 C433.000 79.760 433.250 79.610 433.500 79.570 C433.570 79.550 433.650 79.540 433.690 79.430 L433.740 79.280 C433.790 79.150 433.700 79.130 433.620 79.130 L431.560 79.130 C431.470 79.130 431.420 79.160 431.390 79.200 L431.310 79.370 C431.270 79.450 431.290 79.530 431.420 79.550 C431.900 79.650 432.050 79.710 432.050 80.090 L432.050 81.910 L428.700 81.910 L428.700 80.090 ZM426.170 85.220 C426.290 85.000 426.120 84.920 425.910 85.070 C425.590 85.290 424.890 85.590 424.110 85.590 C422.440 85.590 421.100 84.390 421.100 82.430 C421.100 80.830 422.020 79.540 423.730 79.540 C425.720 79.540 425.760 80.720 425.910 80.610 L426.090 80.450 C426.120 80.420 426.140 80.400 426.140 80.370 L426.140 79.710 C426.140 79.640 426.150 79.560 426.040 79.520 C425.760 79.370 424.930 79.010 423.760 79.010 C421.640 79.010 420.030 80.580 420.030 82.500 C420.030 84.640 421.560 86.120 423.990 86.120 C424.840 86.120 425.490 86.040 425.750 85.910 C425.810 85.870 425.880 85.750 426.010 85.520 L426.170 85.220 ZM419.390 85.710 C418.950 85.510 418.230 84.290 417.300 82.720 C417.990 82.330 418.510 81.590 418.510 80.840 C418.500 79.640 417.740 79.130 416.550 79.130 L413.970 79.130 C413.920 79.130 413.850 79.150 413.810 79.240 L413.730 79.400 C413.680 79.510 413.770 79.540 413.920 79.570 C414.340 79.640 414.530 79.790 414.530 80.170 L414.530 85.040 C414.530 85.370 414.280 85.520 414.030 85.560 C413.960 85.570 413.890 85.590 413.850 85.690 L413.790 85.850 C413.740 85.980 413.840 86.000 413.920 86.000 L415.980 86.000 C416.070 86.000 416.110 85.970 416.140 85.930 L416.220 85.750 C416.260 85.670 416.240 85.600 416.110 85.570 C415.630 85.480 415.490 85.420 415.490 85.040 L415.490 83.010 L416.510 83.010 L418.000 85.760 C418.040 85.840 418.110 86.000 418.260 86.000 L419.390 86.000 L419.390 85.710 ZM415.490 79.660 L416.360 79.660 C417.030 79.660 417.540 79.940 417.560 80.930 C417.580 82.000 416.920 82.490 416.160 82.480 L415.490 82.480 L415.490 79.660 ZM413.090 85.700 C413.110 85.640 413.060 85.570 412.950 85.550 C412.410 85.400 412.390 85.450 412.190 84.960 C411.530 83.360 410.710 81.370 410.030 79.400 C410.000 79.260 409.920 79.130 409.780 79.130 L408.370 79.130 C408.270 79.130 408.180 79.140 408.140 79.230 L408.090 79.370 C407.950 79.600 408.410 79.540 408.640 79.740 C408.750 79.840 408.990 79.980 408.820 80.420 L407.010 84.960 C406.800 85.410 406.730 85.470 406.320 85.560 C406.170 85.600 406.100 85.610 406.070 85.690 L406.020 85.820 C405.930 86.030 406.140 86.000 406.320 86.000 L407.790 86.000 C407.930 86.000 407.960 85.890 407.990 85.840 L408.050 85.740 C408.180 85.520 407.400 85.600 407.590 85.130 L408.070 83.910 L410.760 83.910 L411.170 85.040 C411.370 85.610 410.850 85.530 410.770 85.670 L410.680 85.860 C410.620 85.970 410.720 86.000 410.810 86.000 L412.750 86.000 C412.830 86.000 412.940 85.990 412.970 85.920 L413.090 85.700 ZM408.260 83.380 L409.410 80.410 L410.550 83.380 L408.260 83.380 ZM402.540 79.660 L403.970 79.660 C404.630 79.660 404.770 80.440 404.920 80.330 L405.100 80.180 C405.130 80.150 405.140 80.120 405.140 80.090 L405.140 79.370 C405.160 79.240 405.050 79.130 404.860 79.130 L401.020 79.130 C400.970 79.130 400.900 79.150 400.860 79.240 L400.780 79.400 C400.730 79.510 400.820 79.540 400.970 79.570 C401.390 79.640 401.580 79.790 401.580 80.170 L401.580 85.320 C401.580 86.010 401.800 86.000 402.100 86.000 L405.130 86.000 C405.400 86.000 405.590 85.910 405.590 85.750 L405.590 84.860 C405.590 84.820 405.570 84.780 405.530 84.770 L405.280 84.690 C405.140 84.650 405.010 85.470 404.000 85.470 L403.130 85.470 C402.710 85.470 402.540 85.380 402.540 84.550 L402.540 82.530 L404.480 82.530 C404.630 82.530 404.730 82.500 404.790 82.400 L404.930 82.150 C404.980 82.060 404.930 82.000 404.800 82.000 L402.540 82.000 L402.540 79.660 ZM399.680 80.410 C399.710 80.380 399.740 80.350 399.740 80.310 L399.740 79.580 C399.760 79.410 399.600 79.330 399.310 79.210 C399.010 79.090 398.660 79.010 398.210 79.010 C396.910 79.010 396.120 79.950 396.120 80.640 C396.120 81.600 396.920 82.050 397.500 82.470 C398.110 82.900 399.110 83.510 399.040 84.390 C399.010 85.070 398.520 85.610 397.730 85.610 C397.260 85.610 396.820 85.420 396.630 84.990 C396.380 84.570 396.380 84.140 396.250 84.180 L395.980 84.270 C395.880 84.310 395.920 84.460 395.920 84.570 L395.920 85.520 C395.920 85.770 395.920 85.780 396.430 85.940 C396.750 86.040 397.150 86.120 397.700 86.120 C398.810 86.120 400.020 85.470 399.980 84.210 C399.950 83.110 399.340 82.610 398.270 81.900 C397.460 81.360 396.950 80.950 397.060 80.250 C397.140 79.750 397.650 79.450 398.130 79.450 C398.570 79.450 398.870 79.600 399.060 80.000 C399.190 80.260 399.380 80.660 399.450 80.590 L399.680 80.410 ZM392.160 79.660 L393.600 79.660 C394.260 79.660 394.400 80.440 394.550 80.330 L394.730 80.180 C394.760 80.150 394.770 80.120 394.770 80.090 L394.770 79.370 C394.790 79.240 394.680 79.130 394.490 79.130 L390.650 79.130 C390.600 79.130 390.530 79.150 390.490 79.240 L390.410 79.400 C390.360 79.510 390.450 79.540 390.600 79.570 C391.020 79.640 391.210 79.790 391.210 80.170 L391.210 85.320 C391.210 86.010 391.430 86.000 391.730 86.000 L394.770 86.000 C395.030 86.000 395.220 85.910 395.220 85.750 L395.220 84.860 C395.220 84.820 395.200 84.780 395.160 84.770 L394.910 84.690 C394.770 84.650 394.640 85.470 393.630 85.470 L392.760 85.470 C392.340 85.470 392.160 85.380 392.160 84.550 L392.160 82.530 L394.110 82.530 C394.260 82.530 394.360 82.500 394.420 82.400 L394.560 82.150 C394.610 82.060 394.560 82.000 394.430 82.000 L392.160 82.000 L392.160 79.660 ZM390.010 85.710 C389.570 85.510 388.850 84.290 387.920 82.720 C388.600 82.330 389.120 81.590 389.120 80.840 C389.110 79.640 388.360 79.130 387.170 79.130 L384.590 79.130 C384.530 79.130 384.460 79.150 384.420 79.240 L384.350 79.400 C384.300 79.510 384.380 79.540 384.530 79.570 C384.950 79.640 385.150 79.790 385.150 80.170 L385.150 85.040 C385.150 85.370 384.900 85.520 384.650 85.560 C384.580 85.570 384.500 85.590 384.460 85.690 L384.400 85.850 C384.360 85.980 384.450 86.000 384.530 86.000 L386.590 86.000 C386.680 86.000 386.730 85.970 386.760 85.930 L386.840 85.750 C386.880 85.670 386.860 85.600 386.730 85.570 C386.250 85.480 386.100 85.420 386.100 85.040 L386.100 83.010 L387.120 83.010 L388.610 85.760 C388.650 85.840 388.720 86.000 388.880 86.000 L390.010 86.000 L390.010 85.710 ZM386.100 79.660 L386.970 79.660 C387.650 79.660 388.150 79.940 388.170 80.930 C388.190 82.000 387.540 82.490 386.780 82.480 L386.100 82.480 L386.100 79.660 ZM376.240 85.850 C376.190 85.980 376.290 86.000 376.360 86.000 L380.530 86.000 C380.800 86.000 380.980 85.910 380.980 85.750 L380.980 84.860 C380.980 84.820 380.960 84.780 380.930 84.770 L380.680 84.690 C380.540 84.650 380.410 85.470 379.390 85.470 L378.530 85.470 C378.110 85.470 377.930 85.380 377.930 84.550 L377.930 80.090 C377.930 79.760 378.190 79.610 378.430 79.570 C378.500 79.550 378.580 79.540 378.620 79.430 L378.680 79.280 C378.730 79.150 378.630 79.130 378.550 79.130 L376.490 79.130 C376.400 79.130 376.350 79.160 376.320 79.200 L376.250 79.370 C376.210 79.450 376.230 79.530 376.350 79.550 C376.830 79.650 376.980 79.710 376.980 80.090 L376.980 85.040 C376.980 85.370 376.730 85.520 376.480 85.560 C376.410 85.570 376.330 85.590 376.290 85.690 L376.240 85.850 ZM375.570 85.700 C375.590 85.640 375.540 85.570 375.430 85.550 C374.890 85.400 374.860 85.450 374.670 84.960 C374.010 83.360 373.190 81.370 372.510 79.400 C372.480 79.260 372.400 79.130 372.260 79.130 L370.850 79.130 C370.740 79.130 370.650 79.140 370.610 79.230 L370.570 79.370 C370.430 79.600 370.890 79.540 371.110 79.740 C371.220 79.840 371.470 79.980 371.290 80.420 L369.490 84.960 C369.280 85.410 369.210 85.470 368.800 85.560 C368.650 85.600 368.570 85.610 368.540 85.690 L368.500 85.820 C368.410 86.030 368.610 86.000 368.800 86.000 L370.270 86.000 C370.410 86.000 370.440 85.890 370.470 85.840 L370.530 85.740 C370.650 85.520 369.880 85.600 370.070 85.130 L370.550 83.910 L373.230 83.910 L373.650 85.040 C373.850 85.610 373.320 85.530 373.240 85.670 L373.160 85.860 C373.100 85.970 373.190 86.000 373.280 86.000 L375.230 86.000 C375.300 86.000 375.410 85.990 375.450 85.920 L375.570 85.700 ZM370.730 83.380 L371.890 80.410 L373.030 83.380 L370.730 83.380 ZM367.990 85.220 C368.110 85.000 367.950 84.920 367.740 85.070 C367.420 85.290 366.720 85.590 365.930 85.590 C364.270 85.590 362.920 84.390 362.920 82.430 C362.920 80.830 363.840 79.540 365.550 79.540 C367.540 79.540 367.580 80.720 367.730 80.610 L367.920 80.450 C367.950 80.420 367.960 80.400 367.960 80.370 L367.960 79.710 C367.960 79.640 367.980 79.560 367.870 79.520 C367.580 79.370 366.760 79.010 365.580 79.010 C363.460 79.010 361.850 80.580 361.850 82.500 C361.850 84.640 363.380 86.120 365.820 86.120 C366.660 86.120 367.320 86.040 367.570 85.910 C367.630 85.870 367.700 85.750 367.840 85.520 L367.990 85.220 ZM359.080 85.040 C359.080 85.370 358.820 85.520 358.580 85.560 C358.510 85.570 358.430 85.590 358.390 85.690 L358.330 85.850 C358.280 85.980 358.380 86.000 358.460 86.000 L360.520 86.000 C360.610 86.000 360.660 85.970 360.690 85.930 L360.760 85.750 C360.800 85.670 360.780 85.600 360.660 85.570 C360.180 85.480 360.030 85.420 360.030 85.040 L360.030 80.090 C360.030 79.760 360.280 79.610 360.530 79.570 C360.600 79.550 360.680 79.540 360.720 79.430 L360.770 79.280 C360.820 79.150 360.730 79.130 360.650 79.130 L358.590 79.130 C358.500 79.130 358.450 79.160 358.420 79.200 L358.340 79.370 C358.300 79.450 358.320 79.530 358.450 79.550 C358.930 79.650 359.080 79.710 359.080 80.090 L359.080 85.040 ZM351.230 85.360 C351.230 85.690 351.330 85.860 351.490 85.920 C351.840 86.040 352.460 86.120 353.290 86.120 C356.350 86.120 357.320 83.880 357.320 82.440 C357.320 80.420 356.430 79.130 353.480 79.130 L350.670 79.130 C350.610 79.130 350.540 79.150 350.500 79.240 L350.420 79.400 C350.380 79.510 350.460 79.540 350.610 79.570 C351.030 79.640 351.230 79.790 351.230 80.170 L351.230 85.360 ZM353.410 79.660 C355.270 79.660 356.220 80.480 356.220 82.410 C356.220 85.410 354.350 85.590 353.600 85.590 C352.680 85.590 352.180 85.530 352.180 84.510 L352.180 79.660 L353.410 79.660 ZM346.720 79.660 L348.160 79.660 C348.820 79.660 348.960 80.440 349.110 80.330 L349.290 80.180 C349.320 80.150 349.330 80.120 349.330 80.090 L349.330 79.370 C349.350 79.240 349.240 79.130 349.050 79.130 L345.210 79.130 C345.150 79.130 345.090 79.150 345.050 79.240 L344.970 79.400 C344.920 79.510 345.010 79.540 345.150 79.570 C345.580 79.640 345.770 79.790 345.770 80.170 L345.770 85.320 C345.770 86.010 345.990 86.000 346.290 86.000 L349.320 86.000 C349.590 86.000 349.780 85.910 349.780 85.750 L349.780 84.860 C349.780 84.820 349.760 84.780 349.720 84.770 L349.470 84.690 C349.330 84.650 349.200 85.470 348.190 85.470 L347.320 85.470 C346.900 85.470 346.720 85.380 346.720 84.550 L346.720 82.530 L348.670 82.530 C348.820 82.530 348.920 82.500 348.980 82.400 L349.120 82.150 C349.170 82.060 349.120 82.000 348.990 82.000 L346.720 82.000 L346.720 79.660 ZM343.500 80.170 C343.500 79.780 343.700 79.670 344.000 79.610 C344.110 79.580 344.200 79.560 344.240 79.460 L344.300 79.290 C344.350 79.150 344.260 79.130 344.160 79.130 L343.040 79.130 C342.900 79.130 342.750 79.180 342.620 79.440 L340.090 84.660 L337.710 79.530 C337.540 79.170 337.470 79.130 337.150 79.130 L335.840 79.130 C335.760 79.130 335.710 79.160 335.680 79.200 L335.600 79.370 C335.560 79.460 335.580 79.530 335.780 79.570 C335.970 79.610 336.320 79.760 336.650 80.110 L336.650 85.040 C336.650 85.370 336.390 85.520 336.150 85.560 C336.080 85.570 336.000 85.590 335.960 85.690 L335.900 85.850 C335.850 85.980 335.950 86.000 336.030 86.000 L337.750 86.000 C337.840 86.000 337.880 85.970 337.910 85.930 L337.990 85.750 C338.030 85.670 338.010 85.600 337.880 85.570 C337.400 85.480 337.260 85.420 337.260 85.040 L337.260 80.800 L337.280 80.800 L339.530 85.680 C339.610 85.860 339.690 86.000 339.750 86.000 L339.950 86.000 C340.020 86.000 340.070 85.900 340.130 85.780 L342.530 80.800 L342.550 80.800 L342.550 85.040 C342.550 85.370 342.290 85.520 342.050 85.560 C341.980 85.570 341.900 85.590 341.860 85.690 L341.800 85.850 C341.750 85.980 341.850 86.000 341.930 86.000 L343.990 86.000 C344.080 86.000 344.130 85.970 344.150 85.930 L344.230 85.750 C344.270 85.670 344.250 85.600 344.130 85.570 C343.640 85.480 343.500 85.420 343.500 85.040 L343.500 80.170 "/>
  <path style="fill:rgb(23,22,21);stroke:none;stroke-width:1.0;" d="M304.160 56.910 M404.130 158.670 C404.130 161.800 402.150 164.330 399.700 164.330 C397.250 164.330 395.260 161.800 395.260 158.670 C395.260 155.550 397.250 153.010 399.700 153.010 C402.150 153.010 404.130 155.550 404.130 158.670 "/>
  <path style="fill:rgb(255,255,255);stroke:none;stroke-width:1.0;" d="M403.350 158.660 C403.350 161.610 401.730 164.000 399.730 164.000 C397.740 164.000 396.120 161.610 396.120 158.660 C396.120 155.710 397.740 153.320 399.730 153.320 C401.730 153.320 403.350 155.710 403.350 158.660 "/>
  <path style="fill:rgb(23,22,21);stroke:none;stroke-width:1.0;" d="M410.240 156.890 C410.180 155.530 409.070 155.100 408.100 155.100 C407.370 155.100 406.130 155.310 406.130 156.640 C406.130 157.390 406.650 157.640 407.150 157.760 L409.610 158.330 C410.730 158.600 411.570 159.290 411.570 160.680 C411.570 162.760 409.670 163.340 408.200 163.340 C406.600 163.340 405.980 162.850 405.590 162.490 C404.860 161.820 404.720 161.090 404.720 160.270 L405.810 160.270 C405.810 161.860 407.080 162.320 408.180 162.320 C409.020 162.320 410.440 162.100 410.440 160.840 C410.440 159.920 410.020 159.630 408.600 159.290 L406.840 158.870 C406.280 158.740 405.010 158.330 405.010 156.800 C405.010 155.430 405.880 154.080 407.970 154.080 C410.980 154.080 411.280 155.920 411.330 156.890 L410.240 156.890 "/>
  <path style="fill:rgb(23,22,21);stroke:none;stroke-width:1.0;" d="M416.570 159.440 L415.340 155.630 L415.320 155.630 L413.990 159.440 L416.570 159.440 ZM413.510 160.480 L412.610 163.000 L411.430 163.000 L414.630 154.330 L415.940 154.330 L419.030 163.000 L417.770 163.000 L416.930 160.480 L413.510 160.480 "/>
  <path style="fill:rgb(23,22,21);stroke:none;stroke-width:1.0;" d="M422.760 158.360 L426.520 158.360 L426.520 163.010 L425.490 163.010 L425.510 161.780 C424.940 162.600 423.830 163.260 422.700 163.260 C421.270 163.260 420.510 162.780 420.070 162.360 C418.680 161.000 418.670 159.620 418.670 158.700 C418.650 156.420 419.930 154.090 422.740 154.100 C424.300 154.110 426.020 155.020 426.270 156.970 L425.180 156.970 C424.820 155.460 423.600 155.140 422.680 155.140 C421.190 155.140 419.960 156.390 419.960 158.650 C419.960 160.420 420.520 162.230 422.730 162.230 C423.150 162.230 423.820 162.180 424.430 161.670 C425.160 161.070 425.350 160.300 425.350 159.370 L422.760 159.370 L422.760 158.360 "/>
  <path style="fill:rgb(23,22,21);stroke:none;stroke-width:1.0;" d="M433.730 163.010 L427.330 163.010 L427.330 154.340 L433.610 154.340 L433.610 155.380 L428.450 155.380 L428.450 158.000 L433.240 158.000 L433.240 159.070 L428.450 159.070 L428.450 161.970 L433.730 161.970 L433.730 163.010 "/>
  <path style="fill:rgb(23,22,21);stroke:none;stroke-width:1.0;" d="M399.850 154.340 L399.850 157.220 L402.460 157.200 C402.460 157.200 402.400 154.700 399.850 154.340 "/>
  <path style="fill:rgb(23,22,21);stroke:none;stroke-width:1.0;" d="M399.610 163.040 L399.580 160.200 L396.960 160.190 C396.960 160.190 397.060 162.680 399.610 163.040 "/>
  <path style="fill:rgb(23,22,21);stroke:none;stroke-width:1.0;" d="M399.590 154.340 L399.580 157.220 L402.550 160.200 C402.550 160.200 402.070 162.740 399.850 163.030 L399.860 160.120 L396.900 157.230 C396.900 157.230 397.110 154.830 399.590 154.340 "/>
  <path style="fill:none;stroke:rgb(23,22,21);stroke-width:1.0;" d="M247.070 507.910 L433.700 507.910 L433.700 537.790 L247.070 537.790 M247.070 507.910 L640.520 507.910 "/>
  <path style="fill:rgb(179,184,176);stroke:none;stroke-width:0.45;" d="M43.900 635.990 L89.780 636.070 C90.420 636.070 90.990 635.980 90.990 637.350 L90.940 652.460 L42.740 652.460 L42.740 637.290 C42.740 636.620 42.810 635.990 43.900 635.990 "/>
  <path style="fill:rgb(255,255,255);stroke:none;stroke-width:0.45;" d="M56.490 643.720 C56.490 646.770 54.030 649.240 50.980 649.240 C47.930 649.240 45.460 646.770 45.460 643.730 C45.460 643.720 45.460 643.720 45.460 643.720 C45.450 640.670 47.920 638.200 50.970 638.200 C54.020 638.200 56.490 640.670 56.490 643.710 C56.490 643.720 56.490 643.720 56.490 643.720 "/>
  <path style="fill:rgb(23,22,21);stroke:none;stroke-width:0.45;" d="M55.460 639.220 C56.680 640.450 57.300 641.950 57.300 643.720 C57.300 645.490 56.690 646.970 55.490 648.170 C54.220 649.420 52.710 650.050 50.970 650.050 C49.250 650.050 47.760 649.430 46.520 648.180 C45.270 646.940 44.650 645.450 44.650 643.720 C44.650 641.990 45.270 640.490 46.520 639.220 C47.730 638.000 49.220 637.390 50.970 637.390 C52.740 637.390 54.240 638.000 55.460 639.220 ZM47.340 640.050 C46.310 641.090 45.790 642.320 45.790 643.720 C45.790 645.120 46.300 646.340 47.330 647.360 C48.350 648.390 49.570 648.900 50.990 648.900 C52.400 648.900 53.630 648.380 54.670 647.350 C55.670 646.390 56.160 645.180 56.160 643.720 C56.160 642.280 55.660 641.050 54.650 640.040 C53.640 639.030 52.420 638.530 50.990 638.530 C49.550 638.530 48.330 639.030 47.340 640.050 ZM50.070 643.100 C49.910 642.760 49.670 642.590 49.360 642.590 C48.800 642.590 48.520 642.960 48.520 643.710 C48.520 644.460 48.800 644.840 49.360 644.840 C49.720 644.840 49.990 644.660 50.150 644.290 L50.920 644.700 C50.550 645.360 50.000 645.680 49.260 645.680 C48.690 645.680 48.230 645.510 47.890 645.160 C47.550 644.810 47.380 644.330 47.380 643.720 C47.380 643.120 47.560 642.640 47.910 642.290 C48.260 641.930 48.700 641.750 49.230 641.750 C50.010 641.750 50.570 642.060 50.900 642.670 L50.070 643.100 ZM53.700 643.100 C53.550 642.760 53.310 642.590 53.010 642.590 C52.440 642.590 52.150 642.960 52.150 643.710 C52.150 644.460 52.440 644.840 53.010 644.840 C53.380 644.840 53.640 644.660 53.780 644.290 L54.570 644.700 C54.210 645.360 53.650 645.680 52.920 645.680 C52.350 645.680 51.900 645.510 51.550 645.160 C51.210 644.810 51.040 644.330 51.040 643.720 C51.040 643.120 51.210 642.640 51.560 642.290 C51.910 641.930 52.350 641.750 52.890 641.750 C53.670 641.750 54.220 642.060 54.560 642.670 L53.700 643.100 "/>
  <path style="fill:rgb(23,22,21);stroke:none;stroke-width:0.45;" d="M90.180 635.810 L43.430 635.810 C42.930 635.810 42.520 636.220 42.520 636.720 L42.520 652.610 C42.520 652.720 42.610 652.810 42.720 652.810 L90.890 652.810 C91.000 652.810 91.090 652.720 91.090 652.610 L91.090 636.720 C91.090 636.220 90.680 635.810 90.180 635.810 ZM43.430 636.220 L90.180 636.220 C90.460 636.220 90.680 636.450 90.680 636.720 C90.680 636.720 90.680 643.110 90.680 647.730 L57.260 647.730 C56.040 649.950 53.680 651.450 50.970 651.450 C48.260 651.450 45.900 649.950 44.680 647.730 L42.930 647.730 C42.930 643.110 42.930 636.720 42.930 636.720 C42.930 636.450 43.150 636.220 43.430 636.220 "/>
  <path style="fill:rgb(255,255,255);stroke:none;stroke-width:0.45;" d="M66.800 649.070 C66.930 649.070 67.050 649.080 67.150 649.100 C67.260 649.120 67.350 649.160 67.420 649.210 C67.500 649.260 67.560 649.330 67.600 649.420 C67.640 649.500 67.660 649.600 67.660 649.730 C67.660 649.860 67.630 649.980 67.570 650.070 C67.510 650.160 67.420 650.230 67.300 650.290 C67.460 650.340 67.580 650.420 67.670 650.540 C67.750 650.660 67.790 650.800 67.790 650.970 C67.790 651.100 67.760 651.220 67.710 651.320 C67.660 651.420 67.590 651.500 67.500 651.560 C67.410 651.630 67.310 651.670 67.190 651.700 C67.080 651.730 66.960 651.750 66.840 651.750 L65.540 651.750 L65.540 649.070 L66.800 649.070 ZM66.730 650.150 C66.830 650.150 66.920 650.130 66.990 650.080 C67.060 650.030 67.090 649.940 67.090 649.830 C67.090 649.770 67.080 649.720 67.060 649.680 C67.030 649.640 67.000 649.610 66.970 649.580 C66.930 649.560 66.880 649.550 66.840 649.540 C66.790 649.530 66.740 649.530 66.680 649.530 L66.130 649.530 L66.130 650.150 L66.730 650.150 ZM66.760 651.290 C66.820 651.290 66.880 651.280 66.930 651.270 C66.980 651.260 67.030 651.240 67.070 651.210 C67.110 651.190 67.140 651.150 67.160 651.110 C67.190 651.060 67.200 651.000 67.200 650.930 C67.200 650.800 67.160 650.700 67.080 650.640 C67.000 650.580 66.900 650.550 66.770 650.550 L66.130 650.550 L66.130 651.290 L66.760 651.290 "/>
  <path style="fill:rgb(255,255,255);stroke:none;stroke-width:0.45;" d="M67.890 649.070 L68.560 649.070 L69.180 650.130 L69.810 649.070 L70.460 649.070 L69.470 650.720 L69.470 651.750 L68.880 651.750 L68.880 650.700 L67.890 649.070 "/>
  <path style="fill:rgb(255,255,255);stroke:none;stroke-width:0.45;" d="M77.500 649.070 L78.630 650.860 L78.630 650.860 L78.630 649.070 L79.180 649.070 L79.180 651.750 L78.590 651.750 L77.480 649.950 L77.470 649.950 L77.470 651.750 L76.920 651.750 L76.920 649.070 L77.500 649.070 "/>
  <path style="fill:rgb(255,255,255);stroke:none;stroke-width:0.45;" d="M81.420 649.780 C81.390 649.720 81.340 649.670 81.290 649.630 C81.240 649.590 81.180 649.550 81.110 649.530 C81.040 649.510 80.980 649.500 80.900 649.500 C80.770 649.500 80.660 649.520 80.570 649.570 C80.470 649.630 80.400 649.690 80.340 649.780 C80.280 649.870 80.240 649.970 80.210 650.070 C80.190 650.180 80.170 650.300 80.170 650.420 C80.170 650.530 80.190 650.640 80.210 650.740 C80.240 650.850 80.280 650.950 80.340 651.030 C80.400 651.120 80.470 651.180 80.570 651.240 C80.660 651.290 80.770 651.310 80.900 651.310 C81.080 651.310 81.220 651.260 81.320 651.150 C81.430 651.040 81.490 650.890 81.510 650.710 L82.080 650.710 C82.070 650.880 82.030 651.030 81.970 651.170 C81.900 651.300 81.820 651.420 81.720 651.510 C81.610 651.610 81.490 651.680 81.360 651.730 C81.220 651.780 81.070 651.810 80.900 651.810 C80.700 651.810 80.510 651.770 80.350 651.700 C80.180 651.630 80.050 651.530 79.930 651.400 C79.820 651.280 79.730 651.130 79.670 650.960 C79.610 650.790 79.580 650.610 79.580 650.420 C79.580 650.220 79.610 650.030 79.670 649.860 C79.730 649.690 79.820 649.540 79.930 649.410 C80.050 649.280 80.180 649.180 80.350 649.110 C80.510 649.040 80.700 649.000 80.900 649.000 C81.050 649.000 81.190 649.020 81.320 649.060 C81.450 649.110 81.570 649.170 81.670 649.250 C81.780 649.330 81.860 649.430 81.930 649.550 C82.000 649.670 82.040 649.810 82.060 649.970 L81.490 649.970 C81.480 649.900 81.460 649.840 81.420 649.780 "/>
  <path style="fill:rgb(255,255,255);stroke:none;stroke-width:0.45;" d="M83.690 641.870 C83.690 644.100 81.890 645.910 79.660 645.910 C77.440 645.910 75.630 644.110 75.630 641.880 C75.630 641.880 75.630 641.880 75.630 641.870 C75.630 639.650 77.430 637.840 79.660 637.840 C81.880 637.840 83.690 639.640 83.690 641.870 C83.690 641.870 83.690 641.870 83.690 641.870 "/>
  <path style="fill:rgb(23,22,21);stroke:none;stroke-width:0.45;" d="M79.650 637.180 C80.970 637.180 82.080 637.640 82.990 638.540 C83.900 639.450 84.350 640.560 84.350 641.870 C84.350 643.190 83.910 644.290 83.010 645.170 C82.070 646.100 80.950 646.570 79.650 646.570 C78.380 646.570 77.280 646.110 76.350 645.180 C75.430 644.260 74.970 643.160 74.970 641.870 C74.970 640.590 75.430 639.480 76.350 638.540 C77.250 637.640 78.350 637.180 79.650 637.180 ZM76.020 640.610 C75.880 641.010 75.810 641.430 75.810 641.870 C75.810 642.910 76.190 643.810 76.950 644.570 C77.710 645.330 78.610 645.710 79.670 645.710 C80.710 645.710 81.630 645.330 82.400 644.560 C82.660 644.310 82.880 644.040 83.040 643.740 L81.280 642.950 C81.150 643.550 80.620 643.950 79.980 644.000 L79.980 644.720 L79.440 644.720 L79.440 644.000 C78.920 643.990 78.410 643.780 78.020 643.430 L78.670 642.780 C78.980 643.080 79.290 643.210 79.710 643.210 C79.990 643.210 80.290 643.100 80.290 642.740 C80.290 642.610 80.250 642.530 80.170 642.460 L79.720 642.260 L79.160 642.010 C78.890 641.890 78.650 641.790 78.420 641.680 L76.020 640.610 ZM79.670 638.030 C78.600 638.030 77.700 638.400 76.960 639.150 C76.760 639.350 76.590 639.570 76.440 639.790 L78.240 640.590 C78.400 640.090 78.870 639.790 79.440 639.750 L79.440 639.030 L79.980 639.030 L79.980 639.750 C80.350 639.770 80.760 639.870 81.160 640.180 L80.550 640.820 C80.320 640.660 80.030 640.540 79.740 640.540 C79.510 640.540 79.180 640.610 79.180 640.910 C79.180 640.950 79.200 640.990 79.220 641.030 L79.820 641.290 L80.230 641.470 C80.490 641.590 80.740 641.700 80.980 641.810 L83.390 642.880 C83.470 642.560 83.510 642.230 83.510 641.870 C83.510 640.800 83.130 639.900 82.380 639.150 C81.640 638.400 80.730 638.030 79.670 638.030 "/>
  <path style="fill:rgb(255,255,255);stroke:none;stroke-width:0.45;" d="M68.170 637.620 C70.570 637.620 72.510 639.570 72.510 641.970 C72.510 644.370 70.570 646.320 68.170 646.320 C65.760 646.320 63.820 644.370 63.820 641.970 C63.820 639.570 65.760 637.620 68.170 637.620 "/>
  <path style="fill:rgb(23,22,21);stroke:none;stroke-width:0.45;" d="M69.420 640.710 C69.420 640.540 69.290 640.410 69.120 640.410 L67.200 640.410 C67.030 640.410 66.900 640.540 66.900 640.710 L66.900 642.630 L67.430 642.630 L67.430 644.900 L68.890 644.900 L68.890 642.630 L69.420 642.630 L69.420 640.710 "/>
  <path style="fill:rgb(23,22,21);stroke:none;stroke-width:0.45;" d="M68.160 638.840 C68.520 638.840 68.820 639.140 68.820 639.500 C68.820 639.860 68.520 640.160 68.160 640.160 C67.800 640.160 67.500 639.860 67.500 639.500 C67.500 639.140 67.800 638.840 68.160 638.840 "/>
  <path style="fill:rgb(23,22,21);stroke:none;stroke-width:0.45;" d="M68.150 637.180 C66.850 637.180 65.750 637.630 64.850 638.540 C63.930 639.480 63.470 640.590 63.470 641.870 C63.470 643.160 63.930 644.260 64.850 645.180 C65.780 646.100 66.880 646.570 68.150 646.570 C69.450 646.570 70.570 646.100 71.510 645.170 C72.410 644.290 72.850 643.190 72.850 641.870 C72.850 640.560 72.400 639.450 71.490 638.540 C70.580 637.630 69.470 637.180 68.150 637.180 ZM68.170 638.030 C69.230 638.030 70.140 638.400 70.880 639.150 C71.630 639.900 72.010 640.800 72.010 641.870 C72.010 642.950 71.640 643.850 70.900 644.560 C70.130 645.330 69.210 645.710 68.170 645.710 C67.120 645.710 66.210 645.330 65.450 644.570 C64.690 643.810 64.310 642.910 64.310 641.870 C64.310 640.830 64.700 639.930 65.460 639.150 C66.200 638.400 67.100 638.030 68.170 638.030 "/>
 </g>
</svg>
