<?xml version="1.0" encoding="UTF-8"?>
<svg height="749.288" width="552.54" xmlns="http://www.w3.org/2000/svg">
 <g id="page" xmlns:svgx="http://www.xml-cml.org/schema/svgx">
  <g begin="text">
   <text y="54.576" x="290.505,296.508,301.512,304.509,309.009,314.013,319.017,324.021,326.019,328.521,334.524,337.521,342.525,345.027,350.031,354.531,357.033,359.031,363.531,368.535,371.037,377.04,382.044,387.048,389.046,394.05,401.547,406.551,411.555,414.057,416.559,421.563,426.567,431.571,434.073,440.076,445.08,449.58,454.584,459.588,464.088,466.59,471.594,476.598,478.604,484.444,488.944,490.942,495.946,500.95,503.452,505.954,510.978,513.228,515.481,520.485,525.489,530.493,534.993" svgx:width="0.67,0.56,0.33,0.5,0.56,0.56,0.56,0.22,0.28,0.67,0.33,0.56,0.28,0.56,0.5,0.28,0.22,0.5,0.56,0.28,0.67,0.56,0.56,0.22,0.56,0.83,0.56,0.56,0.28,0.28,0.56,0.56,0.56,0.28,0.67,0.56,0.5,0.56,0.56,0.5,0.28,0.56,0.56,0.28,0.67,0.5,0.22,0.56,0.56,0.28,0.28,0.56,0.5,0.28,0.56,0.56,0.56,0.5,0.56" style="fill:rgb(35,31,32);font-family:ArialMT;font-size:9.0px;stroke:none;">Personal Protective Equipment and Suspected Avian Inﬂ uenza</text>
  </g>
  <path style="fill:none;stroke:rgb(35,31,32);stroke-width:1.0;" d="M57.600 44.750 L540.000 44.750 "/>
  <g begin="text">
   <text y="287.57" x="57.6,60.38,65.38,68.085,70.865,75.865,80.305,83.005,85.786,88.567,91.897,95.787,98.567,101.272,106.272,111.272,116.272,119.602,122.307,127.307,130.637,133.342,137.782,145.562,150.002,153.332,158.332,162.772,167.772,172.212,177.212,179.917,184.917,189.357,194.357,198.797,202.127,204.907,212.687,217.127,222.127,224.907,227.612,232.052,235.942,239.832,244.272,248.162,252.052,259.832,264.272,269.272,272.052,274.552,277.257,284.477,289.477,292.807" svgx:width="0.28,0.5,0.25,0.28,0.5,0.44,0.25,0.56,0.25,0.33,0.39,0.28,0.25,0.5,0.5,0.5,0.33,0.25,0.5,0.33,0.25,0.44,0.78,0.44,0.33,0.5,0.44,0.5,0.44,0.5,0.25,0.5,0.44,0.5,0.44,0.33,0.28,0.78,0.44,0.5,0.28,0.25,0.44,0.39,0.39,0.44,0.39,0.39,0.78,0.44,0.5,0.28,0.25,0.25,0.72,0.5,0.33,0.25" style="fill:rgb(35,31,32);font-family:TimesNewRomanPSMT;font-size:10.0px;stroke:none;">in the ﬁ rst hour of emergency department assessment. Our </text>
   <text y="299.57" x="57.601,62.601,67.041,69.821,74.261,76.424,80.314,85.314,90.314,95.314,99.754,103.644,106.424,108.587,111.367,116.367,120.807,123.587,125.75,128.53,133.53,135.693,138.473,143.473,147.913,150.076,152.856,157.856,160.636,163.416,166.196,170.636,173.416,175.579,180.579,182.742,187.742,192.742,197.742,201.072,204.962,207.125,211.565,214.345,219.345,224.345,228.785,231.285,233.448,240.668,247.338,256.778,260.668,262.831,270.611,275.051,280.051,284.491,289.491" svgx:width="0.5,0.44,0.28,0.44,0.25,0.39,0.5,0.5,0.5,0.44,0.39,0.28,0.25,0.28,0.5,0.44,0.28,0.25,0.28,0.5,0.25,0.28,0.5,0.44,0.25,0.28,0.5,0.28,0.28,0.28,0.44,0.28,0.25,0.5,0.25,0.5,0.5,0.5,0.33,0.39,0.25,0.44,0.28,0.5,0.5,0.44,0.25,0.25,0.72,0.67,0.94,0.39,0.25,0.78,0.44,0.5,0.44,0.5,0.33" style="fill:rgb(35,31,32);font-family:TimesNewRomanPSMT;font-size:10.0px;stroke:none;">data suggest that in the initial 6 hours alone, HCWs manag-</text>
   <text y="311.57" x="57.601,60.381,65.381,70.381,72.487,76.377,81.377,85.267,90.267,94.707,99.147,101.927,106.367,111.367,113.473,120.693,126.253,129.583,131.689,136.129,140.569,144.459,148.899,152.229,157.229,161.669,164.449,167.229,171.669,176.669,179.449,183.339,185.445,192.665,197.665,202.665,205.445,210.445,212.551,215.881,220.321,225.321,230.321,233.101,236.431,240.871" svgx:width="0.28,0.5,0.5,0.25,0.39,0.5,0.39,0.5,0.44,0.44,0.28,0.44,0.5,0.25,0.72,0.56,0.33,0.25,0.44,0.44,0.39,0.44,0.33,0.5,0.44,0.28,0.28,0.44,0.5,0.28,0.39,0.25,0.72,0.5,0.5,0.28,0.5,0.25,0.33,0.44,0.5,0.5,0.28,0.33,0.44,0.25" style="fill:rgb(35,31,32);font-family:TimesNewRomanPSMT;font-size:10.0px;stroke:none;">ing suspected API case-patients would require </text>
   <text y="311.57" x="242.963" svgx:width="0.55" style="fill:rgb(35,31,32);font-family:SymbolMT;font-size:10.0px;stroke:none;">≈</text>
   <text y="311.57" x="248.451,253.451,258.451,263.451,268.451,273.451,275.557,281.117,286.677,292.787" svgx:width="0.5,0.5,0.5,0.5,0.5,0.25,0.56,0.56,0.61,0.25" style="fill:rgb(35,31,32);font-family:TimesNewRomanPSMT;font-size:10.0px;stroke:none;">20–25 PPE </text>
   <text y="323.57" x="57.601,61.491,65.931,68.711,72.601,75.101,76.447,79.777,87.557,91.997,96.437,101.437,103.937,105.283,110.283,115.283,119.723,124.723,127.503,130.283,133.063,135.843,140.283,144.173,146.953,149.453,150.799,155.799,160.799,163.299,168.299,170.799,172.145,179.365,184.365,189.365,191.865,193.211,200.991,205.431,209.321,214.321,218.211,220.711,223.211,224.557,229.557,234.557,237.057,242.057,244.557,245.903,250.903,255.903,263.123,268.123,272.013,274.513,277.013,278.359,282.799,287.799,292.799" svgx:width="0.39,0.44,0.28,0.39,0.25,0.55,0.33,0.78,0.44,0.44,0.5,0.25,0.55,0.5,0.5,0.44,0.5,0.28,0.28,0.28,0.28,0.44,0.39,0.28,0.25,0.55,0.5,0.5,0.25,0.5,0.25,0.55,0.72,0.5,0.5,0.25,0.55,0.78,0.44,0.39,0.5,0.39,0.25,0.25,0.55,0.5,0.5,0.25,0.5,0.25,0.55,0.5,0.5,0.72,0.5,0.39,0.25,0.25,0.55,0.44,0.5,0.5,0.25" style="fill:rgb(35,31,32);font-family:TimesNewRomanPSMT;font-size:10.0px;stroke:none;">sets (mean quantities: 19.4 N95 masks, 22.1 gowns, and </text>
   <text y="335.57" x="57.601,62.601,67.601,70.101,75.101,77.78,82.78,87.22,90.0,93.33,97.22,99.899,104.899,108.229,110.908,115.908,118.688,123.688,128.688,133.128,137.018,140.348,142.848,145.527,152.747,155.527,158.307,163.307,168.307,173.307,178.307,183.307,185.986,190.426,193.105,198.105,200.885,205.885,210.885,213.564,218.564,221.894,226.894,231.894,236.894,240.224,243.004,245.784,250.784,255.784,258.463,263.463,266.793,269.472,276.692,283.362,292.802" svgx:width="0.5,0.5,0.25,0.5,0.25,0.5,0.44,0.28,0.33,0.39,0.25,0.5,0.33,0.25,0.5,0.28,0.5,0.5,0.44,0.39,0.33,0.25,0.25,0.72,0.28,0.28,0.5,0.5,0.5,0.5,0.5,0.25,0.44,0.25,0.5,0.28,0.5,0.5,0.25,0.5,0.33,0.5,0.5,0.5,0.33,0.28,0.28,0.5,0.5,0.25,0.5,0.33,0.25,0.72,0.67,0.94,0.25" style="fill:rgb(35,31,32);font-family:TimesNewRomanPSMT;font-size:10.0px;stroke:none;">25.1 pairs of gloves). Although a high proportion of HCW </text>
   <text y="347.57" x="57.601,62.041,64.821,69.821,73.711,78.151,80.477,84.917,89.917,94.917,97.697,102.137,106.577,109.357,113.247,115.573,118.903,126.683,131.123,135.563,140.563,142.889,147.889,152.889,161.219,164.549,166.875,174.095,179.095,182.425,186.865,189.191,193.631,198.631,200.957,208.177,213.177,218.177,220.503,228.283,232.723,236.613,241.613,243.939,248.379,253.379,258.379,261.709,266.709,271.709,275.039,277.819,282.259,285.039,289.479" svgx:width="0.44,0.28,0.5,0.39,0.44,0.25,0.44,0.5,0.5,0.28,0.44,0.44,0.28,0.39,0.25,0.33,0.78,0.44,0.44,0.5,0.25,0.5,0.5,0.83,0.33,0.25,0.72,0.5,0.33,0.44,0.25,0.44,0.5,0.25,0.72,0.5,0.5,0.25,0.78,0.44,0.39,0.5,0.25,0.44,0.5,0.5,0.33,0.5,0.5,0.33,0.28,0.44,0.28,0.44,0.33" style="fill:rgb(35,31,32);font-family:TimesNewRomanPSMT;font-size:10.0px;stroke:none;">close contacts (mean 92%) wore an N95 mask appropriate-</text>
   <text y="359.57" x="57.601,60.381,65.381,67.881,68.643,71.973,76.973,80.303,82.803,83.565,88.005,90.785,93.565,96.065,96.827,101.267,106.267,111.267,116.267,120.157,125.157,128.487,132.927,136.817,139.317,141.817,142.579,147.019,152.019,157.019,160.349,165.349,170.349,173.679,176.459,180.899,183.679,188.119,190.619,191.381,195.821,200.821,205.821,210.261,215.261,223.041,225.821,228.601,233.041,238.041,240.821,243.321,244.083,249.083,252.973,257.413,259.913,260.675,265.675,269.005,271.505,272.267,277.267,280.047,285.047,289.487,292.817" svgx:width="0.28,0.5,0.25,0.55,0.33,0.5,0.33,0.25,0.55,0.44,0.28,0.28,0.25,0.55,0.44,0.5,0.5,0.5,0.39,0.5,0.33,0.44,0.39,0.25,0.25,0.55,0.44,0.5,0.5,0.33,0.5,0.5,0.33,0.28,0.44,0.28,0.44,0.25,0.55,0.44,0.5,0.5,0.44,0.5,0.78,0.28,0.28,0.44,0.5,0.28,0.25,0.55,0.5,0.39,0.44,0.25,0.55,0.5,0.33,0.25,0.55,0.5,0.28,0.5,0.44,0.33,0.25" style="fill:rgb(35,31,32);font-family:TimesNewRomanPSMT;font-size:10.0px;stroke:none;">ly for all exposures, appropriate concomitant use of other </text>
   <text y="371.57" x="57.601,63.161,68.721,74.831,77.331,78.159,80.939,83.719,88.159,95.939,99.829,102.329,103.157,110.377,114.817,118.707,121.207,122.035,124.815,129.255,133.145,137.035,139.535,140.363,143.693,151.473,155.913,160.353,165.353,167.853,168.681,173.681,178.681,187.011,189.511,190.339,195.339,198.669,201.169,201.997,206.437,211.437,216.437,221.437,225.327,230.327,233.657,238.097,241.987,245.317,247.817,250.317,251.145,257.255,262.255,266.695,271.695,274.195,275.023,282.243,285.023,287.803,292.803" svgx:width="0.56,0.56,0.61,0.25,0.55,0.28,0.28,0.44,0.78,0.39,0.25,0.55,0.72,0.44,0.39,0.25,0.55,0.28,0.44,0.39,0.39,0.25,0.55,0.33,0.78,0.44,0.44,0.5,0.25,0.55,0.5,0.5,0.83,0.25,0.55,0.5,0.33,0.25,0.55,0.44,0.5,0.5,0.5,0.39,0.5,0.33,0.44,0.39,0.33,0.25,0.25,0.55,0.61,0.5,0.44,0.5,0.25,0.55,0.72,0.28,0.28,0.5,0.25" style="fill:rgb(35,31,32);font-family:TimesNewRomanPSMT;font-size:10.0px;stroke:none;">PPE items was less (mean 59% of exposures). Even with </text>
   <text y="383.57" x="57.601,60.381,65.381,69.821,72.321,74.577,81.797,84.577,89.577,94.017,97.907,102.907,106.237,110.677,115.117,120.117,122.617,124.873,129.313,134.313,138.753,141.533,144.313,148.753,153.753,156.533,159.313,162.093,164.873,169.873,172.373,174.629,179.629,182.959,185.459,187.715,193.275,198.835,204.945,207.445,209.945,212.201,214.981,219.981,222.761,226.651,229.151,231.407,236.407,241.407,245.297,249.737,253.067,258.067,262.507,267.507,270.007,272.263,275.043,280.043,284.483,289.483" svgx:width="0.28,0.5,0.44,0.25,0.55,0.72,0.28,0.5,0.44,0.39,0.5,0.33,0.44,0.44,0.5,0.25,0.55,0.44,0.5,0.44,0.28,0.28,0.44,0.5,0.28,0.28,0.28,0.28,0.5,0.25,0.55,0.5,0.33,0.25,0.55,0.56,0.56,0.61,0.25,0.25,0.55,0.28,0.5,0.28,0.39,0.25,0.55,0.5,0.5,0.39,0.44,0.33,0.5,0.44,0.5,0.25,0.55,0.28,0.5,0.44,0.5,0.33" style="fill:rgb(35,31,32);font-family:TimesNewRomanPSMT;font-size:10.0px;stroke:none;">the widespread availability of PPE, this observed inad-</text>
   <text y="395.57" x="57.601,62.041,67.041,72.041,76.481,79.261,83.701,86.061,91.061,93.841,96.621,99.401,102.181,106.621,111.061,113.841,116.621,121.621,126.621,128.981,132.311,136.751,139.531,143.971,146.331,154.111,158.551,162.991,167.991,170.771,173.131,175.911,180.911,185.351,188.131,190.491,193.821,197.151,202.151,209.931,212.291,217.291,225.621,227.981,230.761,235.761,238.121,243.121,248.121,256.451,258.811,263.811,267.141,269.501,276.721,283.391,292.831" svgx:width="0.44,0.5,0.5,0.44,0.28,0.44,0.25,0.5,0.28,0.28,0.28,0.28,0.44,0.44,0.28,0.28,0.5,0.5,0.25,0.33,0.44,0.28,0.44,0.25,0.78,0.44,0.44,0.5,0.28,0.25,0.28,0.5,0.44,0.28,0.25,0.33,0.33,0.5,0.78,0.25,0.5,0.83,0.25,0.28,0.5,0.25,0.5,0.5,0.83,0.25,0.5,0.33,0.25,0.72,0.67,0.94,0.25" style="fill:rgb(35,31,32);font-family:TimesNewRomanPSMT;font-size:10.0px;stroke:none;">equate utilization rate meant that from 8% to 41% of HCW </text>
   <text y="407.57" x="57.601,62.041,64.821,69.821,73.711,78.151,80.65,85.09,90.09,95.09,97.87,102.31,106.75,109.53,113.42,115.919,123.139,127.579,130.909,135.349,137.848,140.628,143.408,148.408,152.848,155.628,160.628,163.127,165.907,170.907,173.406,176.736,181.176,186.176,191.176,193.956,197.286,201.726,204.225,209.225,214.225,218.115,220.895,225.335,230.335,235.335,240.335,244.225,249.225,252.555,256.995,259.494,263.934,268.934,271.714,274.494,279.494,282.274,285.604,290.044,292.824" svgx:width="0.44,0.28,0.5,0.39,0.44,0.25,0.44,0.5,0.5,0.28,0.44,0.44,0.28,0.39,0.25,0.72,0.44,0.33,0.44,0.25,0.28,0.28,0.5,0.44,0.28,0.5,0.25,0.28,0.5,0.25,0.33,0.44,0.5,0.5,0.28,0.33,0.44,0.25,0.5,0.5,0.39,0.28,0.44,0.5,0.5,0.5,0.39,0.5,0.33,0.44,0.25,0.44,0.5,0.28,0.28,0.5,0.28,0.33,0.44,0.28,0.25" style="fill:rgb(35,31,32);font-family:TimesNewRomanPSMT;font-size:10.0px;stroke:none;">close contacts were likely to require postexposure antiviral </text>
   <text y="419.57" x="57.601,62.601,65.931,70.931,75.931,80.931,85.931,88.711,93.151,98.151,100.931,104.821,107.321,108.939,111.719,115.049,117.549,119.167,123.607,128.607,131.937,135.267,139.707,144.707,147.487,149.987,151.605,161.045,168.265,175.485,177.985,179.603,182.933,187.373,191.813,196.813,204.593,212.373,216.813,221.813,226.813,231.253,234.033,236.813,241.813,246.813,250.703,253.203,254.821,262.041,266.481,269.811,274.251,276.751,278.369,281.699,286.699,289.479" svgx:width="0.5,0.33,0.5,0.5,0.5,0.5,0.28,0.44,0.5,0.28,0.39,0.25,0.55,0.28,0.33,0.25,0.55,0.44,0.5,0.33,0.33,0.44,0.5,0.28,0.25,0.55,0.94,0.72,0.72,0.25,0.55,0.33,0.44,0.44,0.5,0.78,0.78,0.44,0.5,0.5,0.44,0.28,0.28,0.5,0.5,0.39,0.25,0.55,0.72,0.44,0.33,0.44,0.25,0.55,0.33,0.5,0.28,0.33" style="fill:rgb(35,31,32);font-family:TimesNewRomanPSMT;font-size:10.0px;stroke:none;">prophylaxis if current WHO recommendations were fol-</text>
   <text y="431.57" x="57.601,60.381,65.381,72.601,77.041,82.041,84.608" svgx:width="0.28,0.5,0.72,0.44,0.5,0.25,0.33" style="fill:rgb(35,31,32);font-family:TimesNewRomanPSMT;font-size:10.0px;stroke:none;">lowed (</text>
   <text y="431.57" x="87.936" svgx:width="0.5" style="fill:rgb(35,31,32);font-family:TimesNewRomanPS-ItalicMT;font-size:10.0px;stroke:none;">9</text>
   <text y="431.57" x="92.936,96.266,98.766,101.333,104.663,107.993,110.56,115.0,120.0,125.0,128.33,133.33,138.33,141.66,144.44,148.88,151.66,156.1,158.667,164.227,169.787,175.897,178.397,180.964,185.404,189.294,194.294,198.734,203.174,205.954,210.394,213.174,215.954,220.954,223.521,230.741,235.741,240.741,243.308,251.088,255.528,259.418,264.418,268.308,270.808,273.375,280.595,285.035,288.365,292.805" svgx:width="0.33,0.25,0.25,0.33,0.33,0.25,0.44,0.5,0.5,0.33,0.5,0.5,0.33,0.28,0.44,0.28,0.44,0.25,0.56,0.56,0.61,0.25,0.25,0.44,0.39,0.5,0.44,0.44,0.28,0.44,0.28,0.28,0.5,0.25,0.72,0.5,0.5,0.25,0.78,0.44,0.39,0.5,0.39,0.25,0.25,0.72,0.44,0.33,0.44,0.25" style="fill:rgb(35,31,32);font-family:TimesNewRomanPSMT;font-size:10.0px;stroke:none;">). If appropriate PPE, especially N95 masks, were </text>
   <text y="443.57" x="57.601,62.601,67.601,70.381,72.879,77.319,82.319,86.759,89.539,92.319,96.759,101.759,104.539,108.979,111.479,113.977,116.757,121.757,126.197,128.695,133.695,138.695,146.475,151.475,155.915,159.245,161.743,166.743,170.073,172.571,179.791,186.461,195.901,199.791,202.289,209.509,214.509,219.509,222.007,229.227,234.227,239.227,242.007,247.007,249.505,253.945,258.945,263.945,268.385,271.715,274.495,278.935,283.935,288.375,292.815" svgx:width="0.5,0.5,0.28,0.25,0.44,0.5,0.44,0.28,0.28,0.44,0.5,0.28,0.44,0.25,0.25,0.28,0.5,0.44,0.25,0.5,0.5,0.78,0.5,0.44,0.33,0.25,0.5,0.33,0.25,0.72,0.67,0.94,0.39,0.25,0.72,0.5,0.5,0.25,0.72,0.5,0.5,0.28,0.5,0.25,0.44,0.5,0.5,0.44,0.33,0.28,0.44,0.5,0.44,0.44,0.25" style="fill:rgb(35,31,32);font-family:TimesNewRomanPSMT;font-size:10.0px;stroke:none;">not available, the number of HCWs who would experience </text>
   <text y="455.57" x="57.601,65.381,70.381,75.381,79.821,83.151,87.591,90.371,94.811,98.141,101.471,104.251,108.141,113.141,115.524,122.744,128.304,131.634,134.017,138.457,143.457,148.457,153.457,157.347,162.347,165.677,170.117,172.5,175.83,180.27,185.27,190.27,193.05,196.38,199.16,204.16,209.16,211.543,216.543,221.543,225.433,228.213,232.653,237.653,242.653,247.653,251.543,256.543,259.873,264.313,266.696,271.136,276.136,278.916,281.696,286.696,289.476" svgx:width="0.78,0.5,0.5,0.44,0.33,0.44,0.28,0.44,0.33,0.33,0.28,0.39,0.5,0.25,0.72,0.56,0.33,0.25,0.44,0.5,0.5,0.5,0.39,0.5,0.33,0.44,0.25,0.33,0.44,0.5,0.5,0.28,0.33,0.28,0.5,0.5,0.25,0.5,0.5,0.39,0.28,0.44,0.5,0.5,0.5,0.39,0.5,0.33,0.44,0.25,0.44,0.5,0.28,0.28,0.5,0.28,0.33" style="fill:rgb(35,31,32);font-family:TimesNewRomanPSMT;font-size:10.0px;stroke:none;">moderate-risk API exposure requiring postexposure antivi-</text>
   <text y="467.57" x="57.601,60.931,65.371,68.151,70.651,75.651,78.981,83.981,88.981,93.981,98.981,101.761,106.201,111.201,113.981,117.871,120.371,127.591,132.591,137.591,140.371,145.371,147.871,150.651,155.651,160.091,163.421,167.861,172.301,176.191,180.631,183.131,187.021,192.021,197.021,200.911,203.691,208.131,213.131,215.911,218.691,223.131,225.911,228.691,233.691" svgx:width="0.33,0.44,0.28,0.25,0.5,0.33,0.5,0.5,0.5,0.5,0.28,0.44,0.5,0.28,0.39,0.25,0.72,0.5,0.5,0.28,0.5,0.25,0.28,0.5,0.44,0.33,0.44,0.44,0.39,0.44,0.25,0.39,0.5,0.5,0.39,0.28,0.44,0.5,0.28,0.28,0.44,0.28,0.28,0.5,0.25" style="fill:rgb(35,31,32);font-family:TimesNewRomanPSMT;font-size:10.0px;stroke:none;">ral prophylaxis would increase substantially.</text>
   <text y="479.57" x="75.601,82.821,87.821,90.601,95.041,100.041,102.821,107.821,110.321,112.426,116.866,118.971,122.861,127.861,132.861,136.751,139.531,143.971,148.971,151.751,154.531,158.971,161.751,163.856,171.636,174.416,179.416,184.416,187.746,190.526,193.306,198.306,200.411,205.411,208.741,210.846,215.286,218.066,223.066,226.956,231.396,233.501,237.941,242.941,247.941,250.721,255.161,259.601,262.381,266.271,268.376,271.706,276.706,281.706,290.036,292.816" svgx:width="0.72,0.5,0.28,0.44,0.5,0.28,0.5,0.25,0.25,0.44,0.25,0.39,0.5,0.5,0.39,0.28,0.44,0.5,0.28,0.28,0.44,0.28,0.25,0.78,0.28,0.5,0.5,0.33,0.28,0.28,0.5,0.25,0.5,0.33,0.25,0.44,0.28,0.5,0.39,0.44,0.25,0.44,0.5,0.5,0.28,0.44,0.44,0.28,0.39,0.25,0.33,0.5,0.5,0.83,0.28,0.25" style="fill:rgb(35,31,32);font-family:TimesNewRomanPSMT;font-size:10.0px;stroke:none;">Notably, a substantial minority of close contacts (15%; </text>
   <text y="491.57" x="57.601" svgx:width="0.55" style="fill:rgb(35,31,32);font-family:SymbolMT;font-size:10.0px;stroke:none;">≈</text>
   <text y="491.57" x="63.089,68.089,70.246,75.246,79.686,83.016,85.173,92.393,97.953,101.283,103.44,108.44,112.88,115.66,118.44,122.88,127.88,130.66,133.99,136.147,143.367,147.807,151.137,155.577,157.734,162.734,167.734,172.734,176.064,183.284,189.954,199.394,203.284,205.441,208.771,213.211,215.711,220.711,223.211,225.711,227.868,232.868,237.868,241.758,246.758,249.538,252.318,256.758,259.538,261.695,266.695,271.135,273.915,276.695,281.135,286.135,288.915,292.805" svgx:width="0.5,0.25,0.5,0.44,0.33,0.25,0.72,0.56,0.33,0.25,0.5,0.44,0.28,0.28,0.44,0.5,0.28,0.33,0.25,0.72,0.44,0.33,0.44,0.25,0.5,0.5,0.5,0.33,0.72,0.67,0.94,0.39,0.25,0.33,0.44,0.25,0.5,0.25,0.25,0.25,0.5,0.5,0.39,0.5,0.28,0.28,0.44,0.28,0.25,0.5,0.44,0.28,0.28,0.44,0.5,0.28,0.39,0.25" style="fill:rgb(35,31,32);font-family:TimesNewRomanPSMT;font-size:10.0px;stroke:none;">2 per API patient) were non-HCWs (e.g., hospital patients </text>
   <text y="503.57" x="57.601,62.601,65.931,67.909,72.909,75.689,79.579,82.359,85.139,90.139,93.469,97.359,100.689,103.189,105.167,110.167,114.607,119.607,124.047,127.377,131.817,134.597,139.037,144.037,146.015,151.015,154.345,157.125,164.905,169.345,172.675,175.455,178.235,183.235,185.213,187.993,192.993,194.971,197.751,202.751,207.191,209.169,211.949,215.279,218.059,222.499,227.499,231.939,233.917,238.357,241.687,246.127,250.567,253.067,255.045,262.265,265.045,267.825,272.825,277.825,282.825,287.825,292.825" svgx:width="0.5,0.33,0.25,0.5,0.28,0.39,0.28,0.28,0.5,0.33,0.39,0.33,0.25,0.25,0.5,0.44,0.5,0.44,0.33,0.44,0.28,0.44,0.5,0.25,0.5,0.33,0.28,0.78,0.44,0.33,0.28,0.28,0.5,0.25,0.28,0.5,0.25,0.28,0.5,0.44,0.25,0.28,0.33,0.28,0.44,0.5,0.44,0.25,0.44,0.33,0.44,0.44,0.25,0.25,0.72,0.28,0.28,0.5,0.5,0.5,0.5,0.5,0.25" style="fill:rgb(35,31,32);font-family:TimesNewRomanPSMT;font-size:10.0px;stroke:none;">or visitors), generated primarily in the triage area. Although </text>
   <text y="515.57" x="57.601,60.381,65.381,69.821,72.321,73.314,78.314,83.314,86.644,91.084,93.864,96.644,101.644,106.644,109.144,110.137,115.137,118.467,120.967,121.96,126.96,131.96,136.96,140.29,145.29,148.07,152.51,156.95,159.73,164.17,169.17,171.67,172.663,177.103,182.103,187.103,192.103,195.993,200.993,204.323,208.763,211.263,212.256,219.476,223.916,227.806,230.306,231.299,236.299,239.629,242.409,246.849,251.849,254.349,255.342,259.232,264.232,269.232,272.562,275.342,277.842,278.835,282.165,287.805,292.805" svgx:width="0.28,0.5,0.44,0.25,0.55,0.5,0.5,0.33,0.44,0.28,0.28,0.5,0.5,0.25,0.55,0.5,0.33,0.25,0.55,0.5,0.5,0.5,0.33,0.5,0.28,0.44,0.44,0.28,0.44,0.5,0.25,0.55,0.44,0.5,0.5,0.5,0.39,0.5,0.33,0.44,0.25,0.55,0.72,0.44,0.39,0.25,0.55,0.5,0.33,0.28,0.44,0.5,0.25,0.55,0.39,0.5,0.5,0.33,0.28,0.25,0.55,0.33,0.56,0.5,0.25" style="fill:rgb(35,31,32);font-family:TimesNewRomanPSMT;font-size:10.0px;stroke:none;">the duration of unprotected exposure was often short (&lt;5 </text>
   <text y="527.57" x="57.601,65.381,68.161,73.161,78.161,80.941,85.381,89.271,92.601,95.101,95.931,99.261,104.261,107.591,110.091,110.921,113.701,118.701,123.141,127.031,131.471,133.971,134.801,139.801,144.241,147.571,151.461,156.461,161.461,165.351,167.851,170.351,171.181,173.961,178.961,183.401,188.401,190.901,191.731,195.061,199.501,204.501,207.831,212.271,216.161,220.601,225.601,228.381,230.881,231.711,236.151,238.651,239.481,244.481,249.481,252.261,256.701,261.701,264.481,267.261,271.701,274.481,276.981,277.811,281.141,283.921,287.811,292.811" svgx:width="0.78,0.28,0.5,0.5,0.28,0.44,0.39,0.33,0.25,0.55,0.33,0.5,0.33,0.25,0.55,0.28,0.5,0.44,0.39,0.44,0.25,0.55,0.5,0.44,0.33,0.39,0.5,0.5,0.39,0.25,0.25,0.55,0.28,0.5,0.44,0.5,0.25,0.55,0.33,0.44,0.5,0.33,0.44,0.39,0.44,0.5,0.28,0.25,0.55,0.44,0.25,0.55,0.5,0.5,0.28,0.44,0.5,0.28,0.28,0.44,0.28,0.25,0.55,0.33,0.28,0.39,0.5,0.25" style="fill:rgb(35,31,32);font-family:TimesNewRomanPSMT;font-size:10.0px;stroke:none;">minutes) for these persons, they represent a potential risk </text>
   <text y="539.57" x="57.601,60.931,65.931,69.261,71.338,75.228,80.228,85.228,89.118,93.558,98.558,103.558,107.998,112.998,115.778,117.855,122.295,127.295,135.075,142.855,147.855,152.855,155.635,158.415,163.415,165.492,169.932,174.932,179.932,182.009,187.009,192.009,195.899,200.899,203.679,206.459,210.899,213.679,215.756,219.646,224.646,227.976,232.416,236.856,241.856,243.933,248.933,252.263,254.34,261.56,267.12,270.45,272.95,275.027,281.137,286.137,288.917,292.807" svgx:width="0.33,0.5,0.33,0.25,0.39,0.5,0.5,0.39,0.44,0.5,0.5,0.44,0.5,0.28,0.25,0.44,0.5,0.78,0.78,0.5,0.5,0.28,0.28,0.5,0.25,0.44,0.5,0.5,0.25,0.5,0.5,0.39,0.5,0.28,0.28,0.44,0.28,0.25,0.39,0.5,0.33,0.44,0.44,0.5,0.25,0.5,0.33,0.25,0.72,0.56,0.33,0.25,0.25,0.61,0.5,0.28,0.39,0.25" style="fill:rgb(35,31,32);font-family:TimesNewRomanPSMT;font-size:10.0px;stroke:none;">for subsequent community and hospital spread of API. This </text>
   <text y="551.57" x="57.601,62.601,65.381,70.381,75.381,78.161,80.941,85.941,90.941,93.721,97.611,99.694,102.474,107.474,111.914,113.997,116.777,124.557,129.557,134.557,137.887,140.667,145.107,150.107,154.547,158.987,161.487,163.57,166.35,171.35,173.433,176.213,179.543,182.323,186.763,191.763,196.203,198.286,202.726,207.726,212.726,214.809,218.139,222.579,227.019,231.459,236.459,239.239,242.019,247.019,252.019,254.102,258.542,261.872,266.312,270.752,274.642,276.725,281.725,286.165,289.495" svgx:width="0.5,0.28,0.5,0.5,0.28,0.28,0.5,0.5,0.28,0.39,0.25,0.28,0.5,0.44,0.25,0.28,0.78,0.5,0.5,0.33,0.28,0.44,0.5,0.44,0.44,0.25,0.25,0.28,0.5,0.25,0.28,0.33,0.28,0.44,0.5,0.44,0.25,0.44,0.5,0.5,0.25,0.33,0.44,0.44,0.44,0.5,0.28,0.28,0.5,0.5,0.25,0.44,0.33,0.44,0.44,0.39,0.25,0.5,0.44,0.33,0.33" style="fill:rgb(35,31,32);font-family:TimesNewRomanPSMT;font-size:10.0px;stroke:none;">highlights the importance, in triage and reception areas par-</text>
   <text y="563.57" x="57.601,60.381,63.161,67.601,72.601,75.381,79.821,83.151,85.931,90.931,93.431,95.931,97.225,102.225,105.555,108.055,109.349,114.349,118.239,121.019,126.019,131.019,133.519,134.813,139.253,144.253,149.253,152.583,157.583,162.583,165.913,168.693,173.133,175.913,180.353,182.853,184.147,186.927,191.927,195.257,199.697,204.137,206.917,209.697,214.697,219.697,222.197,223.491,227.931,232.931,237.931,240.711,244.041,249.041,251.821,254.321,255.615,263.395,267.835,272.275,276.165,281.165,284.495,288.935,292.825" svgx:width="0.28,0.28,0.44,0.5,0.28,0.44,0.33,0.28,0.5,0.25,0.25,0.55,0.5,0.33,0.25,0.55,0.5,0.39,0.28,0.5,0.5,0.25,0.55,0.44,0.5,0.5,0.33,0.5,0.5,0.33,0.28,0.44,0.28,0.44,0.25,0.55,0.28,0.5,0.33,0.44,0.44,0.28,0.28,0.5,0.5,0.25,0.55,0.44,0.5,0.5,0.28,0.33,0.5,0.28,0.25,0.55,0.78,0.44,0.44,0.39,0.5,0.33,0.44,0.39,0.25" style="fill:rgb(35,31,32);font-family:TimesNewRomanPSMT;font-size:10.0px;stroke:none;">ticularly, of using appropriate infection control measures </text>
   <text y="575.57" x="57.601,62.041,67.041,72.041,74.72,78.61,81.39,86.39,91.39,95.83,100.83,105.27,107.949,110.729,115.729,118.408,122.848,126.738,130.628,133.408,137.298,140.078,142.757,145.537,150.537,153.216,157.656,162.656,167.656,172.656,175.986,178.766,181.546,186.546,191.546,194.225,199.225" svgx:width="0.44,0.5,0.5,0.25,0.39,0.28,0.5,0.5,0.44,0.5,0.44,0.25,0.28,0.5,0.25,0.44,0.39,0.39,0.28,0.39,0.28,0.25,0.28,0.5,0.25,0.44,0.5,0.5,0.5,0.33,0.28,0.28,0.5,0.5,0.25,0.5,0.33" style="fill:rgb(35,31,32);font-family:TimesNewRomanPSMT;font-size:10.0px;stroke:none;">and signage to assist in cohorting of</text>
  </g>
  <g begin="text">
   <text y="575.57" x="202.543" svgx:width="0.25" style="fill:rgb(57,83,164);font-family:TimesNewRomanPSMT;font-size:10.0px;stroke:none;"> </text>
  </g>
  <g begin="text">
   <text y="575.57" x="205.222,210.222,215.222,218.002,222.442,227.442,230.222,233.002,237.442,240.222,242.901,250.121,255.681,259.011,261.69,266.69,271.13,273.91,276.69,281.13,286.13,288.91,292.8" svgx:width="0.5,0.5,0.28,0.44,0.5,0.28,0.28,0.44,0.28,0.25,0.72,0.56,0.33,0.25,0.5,0.44,0.28,0.28,0.44,0.5,0.28,0.39,0.25" style="fill:rgb(35,31,32);font-family:TimesNewRomanPSMT;font-size:10.0px;stroke:none;">potential API patients </text>
   <text y="587.57" x="57.6,62.04,67.04,72.04,74.54,82.32,85.1,90.1,92.88,100.66,103.44,107.88,110.66,115.66,120.66,123.16,127.6,132.6,137.6,142.6,146.49,151.49,154.82,159.26,161.76,166.76,170.09,172.59,177.59,182.59,187.59,190.92,195.92,198.7,203.14,207.58,210.36,214.8,219.8,222.3,227.3,232.3,236.19,238.97,243.41,248.41,253.41,257.85,261.18,265.07" svgx:width="0.44,0.5,0.5,0.25,0.78,0.28,0.5,0.28,0.78,0.28,0.44,0.28,0.5,0.5,0.25,0.44,0.5,0.5,0.5,0.39,0.5,0.33,0.44,0.25,0.5,0.33,0.25,0.5,0.5,0.5,0.33,0.5,0.28,0.44,0.44,0.28,0.44,0.5,0.25,0.5,0.5,0.39,0.28,0.44,0.5,0.5,0.44,0.33,0.39,0.25" style="fill:rgb(35,31,32);font-family:TimesNewRomanPSMT;font-size:10.0px;stroke:none;">and minimizing exposure of unprotected bystanders.</text>
   <text y="599.57" x="75.6,81.71,86.71,91.15,93.65,95.282,99.722,103.052,105.832,108.612,111.392,115.832,120.272,123.052,125.552,127.184,129.964,137.744,142.744,147.744,151.074,153.854,158.294,163.294,167.734,172.174,174.674,176.306,181.306,184.636,187.136,188.768,193.208,196.538,199.868,204.308,208.748,211.528,214.308,219.308,223.748,226.248,227.88,233.44,239.0,245.11,247.61,249.242,252.022,257.022,259.522,261.154,266.154,271.154,275.044,280.044,282.824,285.604,290.044,292.824" svgx:width="0.61,0.5,0.44,0.25,0.55,0.44,0.33,0.28,0.28,0.28,0.44,0.44,0.28,0.25,0.55,0.28,0.78,0.5,0.5,0.33,0.28,0.44,0.5,0.44,0.44,0.25,0.55,0.5,0.33,0.25,0.55,0.44,0.33,0.33,0.44,0.44,0.28,0.28,0.5,0.44,0.25,0.55,0.56,0.56,0.61,0.25,0.55,0.28,0.5,0.25,0.55,0.5,0.5,0.39,0.5,0.28,0.28,0.44,0.28,0.25" style="fill:rgb(35,31,32);font-family:TimesNewRomanPSMT;font-size:10.0px;stroke:none;">The critical importance of effective PPE in hospital </text>
   <text y="611.57" x="57.6,60.38,65.38,68.71,73.15,77.59,80.37,83.15,88.15,93.15,96.044,100.484,105.484,110.484,113.264,116.594,121.594,124.374,127.268,134.488,138.928,142.818,145.712,150.712,155.152,162.932,167.932,172.932,176.822,179.602,182.932,187.372,190.152,194.592,199.592,202.486,207.486,212.486,215.816,218.596,223.596,228.596,231.49,234.27,239.27,243.71,246.604,251.604,256.604,259.384,264.384,267.714,272.154,276.594,281.594,284.488,289.488,292.818" svgx:width="0.28,0.5,0.33,0.44,0.44,0.28,0.28,0.5,0.5,0.25,0.44,0.5,0.5,0.28,0.33,0.5,0.28,0.25,0.72,0.44,0.39,0.25,0.5,0.44,0.78,0.5,0.5,0.39,0.28,0.33,0.44,0.28,0.44,0.5,0.25,0.5,0.5,0.33,0.28,0.5,0.5,0.25,0.28,0.5,0.44,0.25,0.5,0.5,0.28,0.5,0.33,0.44,0.44,0.5,0.25,0.5,0.33,0.25" style="fill:rgb(35,31,32);font-family:TimesNewRomanPSMT;font-size:10.0px;stroke:none;">infection control was demonstrated during the outbreak of </text>
   <text y="623.57" x="57.6,63.16,70.38,77.05,82.61,84.897,87.677,92.677,94.964,99.964,104.964,109.964,114.964,117.251" svgx:width="0.56,0.72,0.67,0.56,0.25,0.28,0.5,0.25,0.5,0.5,0.5,0.5,0.25,0.33" style="fill:rgb(35,31,32);font-family:TimesNewRomanPSMT;font-size:10.0px;stroke:none;">SARS in 2003 (</text>
   <text y="623.57" x="120.584,125.584" svgx:width="0.5,0.5" style="fill:rgb(35,31,32);font-family:TimesNewRomanPS-ItalicMT;font-size:10.0px;stroke:none;">10</text>
   <text y="623.57" x="130.584" svgx:width="0.5" style="fill:rgb(35,31,32);font-family:TimesNewRomanPSMT;font-size:10.0px;stroke:none;">–</text>
   <text y="623.57" x="135.584,140.584" svgx:width="0.5,0.5" style="fill:rgb(35,31,32);font-family:TimesNewRomanPS-ItalicMT;font-size:10.0px;stroke:none;">14</text>
   <text y="623.57" x="145.584,148.914,151.414,153.701,160.921,165.921,169.811,174.811,179.251,184.251,192.031,194.811,199.251,202.031,204.318,207.098,210.428,214.868,219.868,223.758,231.538,234.318,238.208,242.098,244.878,249.878,254.878,257.165,262.165,265.495,267.782,273.342,280.562,287.232,292.792" svgx:width="0.33,0.25,0.25,0.72,0.5,0.39,0.5,0.44,0.5,0.78,0.28,0.44,0.28,0.25,0.28,0.33,0.44,0.5,0.39,0.78,0.28,0.39,0.39,0.28,0.5,0.5,0.25,0.5,0.33,0.25,0.56,0.72,0.67,0.56,0.25" style="fill:rgb(35,31,32);font-family:TimesNewRomanPSMT;font-size:10.0px;stroke:none;">). Nosocomial transmission of SARS </text>
   <text y="635.57" x="57.6,64.82,69.26,73.15,75.845,80.285,82.98,87.98,91.31,96.31,104.09,106.87,111.87,116.31,121.31,124.09,126.785,130.115,134.555,138.995,141.775,146.775,150.105,154.545,157.24,162.24,165.57,168.265,171.045,176.045,180.485,183.18,187.62,192.62,195.4,200.4,204.84,212.62,215.4,219.84,222.535" svgx:width="0.72,0.44,0.39,0.25,0.44,0.25,0.5,0.33,0.5,0.78,0.28,0.5,0.44,0.5,0.28,0.25,0.33,0.44,0.44,0.28,0.5,0.33,0.44,0.25,0.5,0.33,0.25,0.28,0.5,0.44,0.25,0.44,0.5,0.28,0.5,0.44,0.78,0.28,0.44,0.25,0.33" style="fill:rgb(35,31,32);font-family:TimesNewRomanPSMT;font-size:10.0px;stroke:none;">was a prominent feature of the epidemic (</text>
   <text y="635.57" x="225.84,230.84" svgx:width="0.5,0.5" style="fill:rgb(35,31,32);font-family:TimesNewRomanPS-ItalicMT;font-size:10.0px;stroke:none;">15</text>
   <text y="635.57" x="235.84,239.17,241.865,246.305,251.305,256.305,259.0,264.0,266.78,271.22,276.22,280.66,285.66,288.355,292.795" svgx:width="0.33,0.25,0.44,0.5,0.5,0.25,0.5,0.28,0.44,0.5,0.44,0.5,0.25,0.44,0.25" style="fill:rgb(35,31,32);font-family:TimesNewRomanPSMT;font-size:10.0px;stroke:none;">) and played a </text>
   <text y="647.57" x="57.6,60.38,64.82,68.15,73.15,77.59,80.09,81.2,84.53,89.53,92.31,96.75,99.25,100.36,103.14,108.14,110.64,111.75,114.53,119.53,123.97,126.47,127.58,130.36,135.36,138.14,140.92,143.7,148.14,150.92,153.7,158.7,163.7,166.2,167.31,171.75,176.75,181.75,184.25,185.36,193.14,197.58,200.36,205.36,208.14,212.58,217.58,222.02,227.02,231.46,235.9,238.4,239.51,244.51,247.84,250.34,251.45,256.45,261.45,264.23,269.23,272.56,277.0,281.44,286.44,290.33,292.83" svgx:width="0.28,0.44,0.33,0.5,0.44,0.25,0.55,0.33,0.5,0.28,0.44,0.25,0.55,0.28,0.5,0.25,0.55,0.28,0.5,0.44,0.25,0.55,0.28,0.5,0.28,0.28,0.28,0.44,0.28,0.28,0.5,0.5,0.25,0.55,0.44,0.5,0.5,0.25,0.55,0.78,0.44,0.28,0.5,0.28,0.44,0.5,0.44,0.5,0.44,0.44,0.25,0.55,0.5,0.33,0.25,0.55,0.5,0.5,0.28,0.5,0.33,0.44,0.44,0.5,0.39,0.25,0.25" style="fill:rgb(35,31,32);font-family:TimesNewRomanPSMT;font-size:10.0px;stroke:none;">large role in the initiation and maintenance of outbreaks. </text>
   <text y="659.57" x="57.6,64.82,68.71,71.107,74.437,78.877,83.877,88.877,92.207,94.987,99.427,104.427,106.824,109.604,114.604,117.001,121.441,123.838,128.278,132.718,136.608,141.048,144.378,148.818,153.818,158.818,161.598,164.928,169.928,172.708,175.105,178.995,181.775,186.775,191.775,196.775,199.172,204.172,209.172,211.569,217.129,221.569,224.349,229.349,231.746,236.186,238.966,241.363,245.803,248.583,251.083,253.48" svgx:width="0.72,0.39,0.25,0.33,0.44,0.5,0.5,0.33,0.28,0.44,0.5,0.25,0.28,0.5,0.25,0.44,0.25,0.44,0.44,0.39,0.44,0.33,0.44,0.5,0.5,0.28,0.33,0.5,0.28,0.25,0.39,0.28,0.5,0.5,0.5,0.25,0.5,0.5,0.25,0.56,0.44,0.28,0.5,0.25,0.44,0.28,0.25,0.44,0.28,0.25,0.25,0.33" style="fill:rgb(35,31,32);font-family:TimesNewRomanPSMT;font-size:10.0px;stroke:none;">As reported in a case-control study by Seto et al. (</text>
   <text y="659.57" x="256.792,261.792" svgx:width="0.5,0.5" style="fill:rgb(35,31,32);font-family:TimesNewRomanPS-ItalicMT;font-size:10.0px;stroke:none;">13</text>
   <text y="659.57" x="266.792,270.122,272.622,275.019,278.909,281.689,286.129,289.459,292.789" svgx:width="0.33,0.25,0.25,0.39,0.28,0.44,0.33,0.33,0.25" style="fill:rgb(35,31,32);font-family:TimesNewRomanPSMT;font-size:10.0px;stroke:none;">), staff </text>
   <text y="671.57" x="57.6,64.82,69.82,74.82,77.32,79.776,84.776,88.666,93.106,98.106,100.606,103.062,110.842,115.282,119.172,124.172,128.062,130.562,133.018,136.348,139.128,144.128,146.628,149.084,154.084,158.524,161.854,164.634,167.414,171.854,176.854,179.634,184.074,187.404,190.734,193.234,195.734,198.19,203.19,208.19,215.41,220.41,224.3,226.8,229.3,231.756,236.196,241.196,246.196,248.696,251.152,256.152,260.592,263.922,267.252,272.252,275.582,283.362,287.802,292.802" svgx:width="0.72,0.5,0.5,0.25,0.55,0.5,0.39,0.44,0.5,0.25,0.55,0.78,0.44,0.39,0.5,0.39,0.25,0.55,0.33,0.28,0.5,0.25,0.55,0.5,0.44,0.33,0.28,0.28,0.44,0.5,0.28,0.44,0.33,0.33,0.25,0.25,0.55,0.5,0.5,0.72,0.5,0.39,0.25,0.25,0.55,0.44,0.5,0.5,0.25,0.55,0.5,0.44,0.33,0.33,0.5,0.33,0.78,0.44,0.5,0.25" style="fill:rgb(35,31,32);font-family:TimesNewRomanPSMT;font-size:10.0px;stroke:none;">who used masks (in particular), gowns, and performed </text>
   <text y="683.57" x="57.6,62.6,67.04,72.04,77.04,79.54,80.89,85.89,90.89,95.89,98.67,103.11,108.11,112.55,115.05,116.4,123.62,128.06,131.39,135.83,138.33,139.68,142.46,146.9,150.79,154.68,157.18,158.53,161.31,164.09,169.09,173.53,176.31,181.31,183.81,185.16,187.94,192.94,195.44,196.79,201.79,206.23,210.67,215.67,223.45,227.89,230.39,231.74,237.3,244.52,251.19,256.75,259.25,260.6,263.38,268.38,271.71,276.15,280.59,283.37,287.81,292.81" svgx:width="0.5,0.44,0.5,0.5,0.25,0.55,0.5,0.5,0.5,0.28,0.44,0.5,0.44,0.25,0.55,0.72,0.44,0.33,0.44,0.25,0.55,0.28,0.44,0.39,0.39,0.25,0.55,0.28,0.28,0.5,0.44,0.28,0.5,0.25,0.55,0.28,0.5,0.25,0.55,0.5,0.44,0.44,0.5,0.78,0.44,0.25,0.55,0.56,0.72,0.67,0.56,0.25,0.55,0.28,0.5,0.33,0.44,0.44,0.28,0.44,0.5,0.25" style="fill:rgb(35,31,32);font-family:TimesNewRomanPSMT;font-size:10.0px;stroke:none;">hand hygiene were less likely to become SARS infected </text>
   <text y="695.57" x="57.6,60.38,65.38,69.82,74.82,77.139,79.919,84.919,89.919,93.809,98.249,100.568,107.788,112.788,117.788,120.107,125.107,127.887,132.887,135.206,140.206,145.206,147.986,150.486,152.805,158.365,161.145,168.925,171.705,174.485,178.925,182.255,185.035,190.035,192.535,194.854,200.964,205.404,210.404,212.723,217.163,219.943,222.262,226.702,229.482,231.982,234.301" svgx:width="0.28,0.5,0.44,0.5,0.25,0.28,0.5,0.5,0.39,0.44,0.25,0.72,0.5,0.5,0.25,0.5,0.28,0.5,0.25,0.5,0.5,0.28,0.25,0.25,0.56,0.28,0.78,0.28,0.28,0.44,0.33,0.28,0.5,0.25,0.25,0.61,0.44,0.5,0.25,0.44,0.28,0.25,0.44,0.28,0.25,0.25,0.33" style="fill:rgb(35,31,32);font-family:TimesNewRomanPSMT;font-size:10.0px;stroke:none;">than those who did not. Similarly, Lau et al. (</text>
   <text y="695.57" x="237.608,242.608" svgx:width="0.5,0.5" style="fill:rgb(35,31,32);font-family:TimesNewRomanPS-ItalicMT;font-size:10.0px;stroke:none;">14</text>
   <text y="695.57" x="247.608,250.938,253.257,258.257,263.257,266.037,270.477,275.477,277.796,280.576,285.576,290.016,292.796" svgx:width="0.33,0.25,0.5,0.5,0.28,0.44,0.5,0.25,0.28,0.5,0.44,0.28,0.25" style="fill:rgb(35,31,32);font-family:TimesNewRomanPSMT;font-size:10.0px;stroke:none;">) noted that </text>
   <text y="707.57" x="57.6,60.38,65.38,69.82,74.82,79.82,83.71,86.49,90.38,93.16,97.6,102.6,105.38,108.303,113.303,117.193,121.633,124.556,129.556,132.886,135.809,141.369,146.929,153.039,155.962,160.962,165.962,168.885,176.105,182.775,192.215,196.105,199.028,206.248,211.248,214.578,219.578,222.358,227.358,232.358,235.281,240.281,245.281,248.204,255.424,259.864,263.194,268.194,272.084,275.007,282.227,285.007,287.787,292.787" svgx:width="0.28,0.5,0.44,0.5,0.5,0.39,0.28,0.39,0.28,0.44,0.5,0.28,0.25,0.5,0.39,0.44,0.25,0.5,0.33,0.25,0.56,0.56,0.61,0.25,0.5,0.5,0.25,0.72,0.67,0.94,0.39,0.25,0.72,0.5,0.33,0.5,0.28,0.5,0.5,0.25,0.5,0.5,0.25,0.72,0.44,0.33,0.5,0.39,0.25,0.72,0.28,0.28,0.5,0.25" style="fill:rgb(35,31,32);font-family:TimesNewRomanPSMT;font-size:10.0px;stroke:none;">inconsistent use of PPE by HCWs working on wards with </text>
   <text y="287.57" x="304.812,310.372,317.592,324.262,329.822,332.322,333.487,338.487,342.927,345.707,348.487,352.927,357.927,360.707,364.597,367.097,368.262,371.042,376.042,378.542,379.707,386.927,391.927,396.927,401.927,404.427,405.592,412.812,417.812,422.812,427.812,430.312,431.477,438.697,443.137,447.027,449.527,450.692,455.132,459.022,462.912,467.912,472.352,475.132,479.572,482.352,486.792,491.792,494.292,495.457,502.677,505.457,508.237,513.237,515.737,516.902,521.342,523.842,525.007,528.897,531.677,536.677" svgx:width="0.56,0.72,0.67,0.56,0.25,0.55,0.5,0.44,0.28,0.28,0.44,0.5,0.28,0.39,0.25,0.55,0.28,0.5,0.25,0.55,0.72,0.5,0.5,0.5,0.25,0.55,0.72,0.5,0.5,0.5,0.25,0.55,0.72,0.44,0.39,0.25,0.55,0.44,0.39,0.39,0.5,0.44,0.28,0.44,0.28,0.44,0.5,0.25,0.55,0.72,0.28,0.28,0.5,0.25,0.55,0.44,0.25,0.55,0.39,0.28,0.5,0.33" style="fill:rgb(35,31,32);font-family:TimesNewRomanPSMT;font-size:10.0px;stroke:none;">SARS patients in Hong Kong was associated with a sig-</text>
   <text y="299.57" x="304.812,309.812,312.59,315.371,318.152,322.592,327.032,332.032,334.812,337.592,342.592,345.454,350.454,353.234,358.234,363.234,367.674,371.004,373.866,377.196,379.976,383.866,388.866,391.728,395.058,400.058,403.388,406.25,411.25,416.25,420.14,425.14,429.58,434.58,442.36,445.14,449.58,452.36,455.222,460.222,463.002,466.892,471.332,475.772,479.662,484.102,486.964,489.744,493.074,497.514,502.514,506.404,514.184,516.964,520.854,524.744,527.524,532.524,537.524,540.024" svgx:width="0.5,0.28,0.56,0.25,0.44,0.44,0.5,0.28,0.28,0.5,0.25,0.5,0.28,0.5,0.5,0.44,0.33,0.25,0.33,0.28,0.39,0.5,0.25,0.33,0.5,0.33,0.25,0.5,0.5,0.39,0.5,0.44,0.5,0.78,0.28,0.44,0.28,0.25,0.5,0.28,0.39,0.44,0.44,0.39,0.44,0.25,0.28,0.33,0.44,0.5,0.39,0.78,0.28,0.39,0.39,0.28,0.5,0.5,0.25,0.25" style="fill:rgb(35,31,32);font-family:TimesNewRomanPSMT;font-size:10.0px;stroke:none;">niﬁ cantly higher risk for nosocomial disease transmission. </text>
   <text y="311.57" x="304.812,310.372,313.702,318.702,323.702,326.482,330.372,333.152,338.152,343.152,345.652,346.697,351.697,355.027,357.527,358.572,363.012,368.012,372.452,377.452,382.452,386.892,389.672,394.112,396.612,397.657,403.217,408.777,414.887,417.387,418.432,422.322,425.102,430.102,434.542,439.542,442.042,443.087,445.867,449.757,452.257,453.302,456.082,461.082,465.522,468.852,473.292,476.622,481.622,484.952,489.392,491.892,492.937,495.717,498.497,503.497,507.937,510.717,515.717,518.217,519.262,522.042,527.042,529.542,530.587,535.587,540.027" svgx:width="0.56,0.33,0.5,0.5,0.28,0.39,0.28,0.5,0.5,0.25,0.55,0.5,0.33,0.25,0.55,0.44,0.5,0.44,0.5,0.5,0.44,0.28,0.44,0.25,0.55,0.56,0.56,0.61,0.25,0.55,0.39,0.28,0.5,0.44,0.5,0.25,0.55,0.28,0.39,0.25,0.55,0.28,0.5,0.44,0.33,0.44,0.33,0.5,0.33,0.44,0.25,0.55,0.28,0.28,0.5,0.44,0.28,0.5,0.25,0.55,0.28,0.5,0.25,0.55,0.5,0.44,0.25" style="fill:rgb(35,31,32);font-family:TimesNewRomanPSMT;font-size:10.0px;stroke:none;">Provision of adequate PPE stock is therefore likely to be </text>
   <text y="323.57" x="304.812,307.592,315.372,320.372,325.372,328.702,331.482,335.922,340.922,343.702,346.202,348.982,353.982,356.482,360.922,365.922,370.922,373.702,377.032,382.032,384.812,387.592,390.372,395.372,400.372,402.872,405.652,410.652,415.092,417.592,421.482,426.482,429.812,434.252,438.692,443.692,446.192,451.192,454.522,457.022,464.242,469.802,473.132" svgx:width="0.28,0.78,0.5,0.5,0.33,0.28,0.44,0.5,0.28,0.25,0.28,0.5,0.25,0.44,0.5,0.5,0.28,0.33,0.5,0.28,0.28,0.28,0.5,0.5,0.25,0.28,0.5,0.44,0.25,0.39,0.5,0.33,0.44,0.44,0.5,0.25,0.5,0.33,0.25,0.72,0.56,0.33,0.25" style="fill:rgb(35,31,32);font-family:TimesNewRomanPSMT;font-size:10.0px;stroke:none;">important in controlling the spread of API.</text>
   <text y="335.57" x="322.812,331.802,336.342,341.442,346.542,348.851,353.391,358.491,363.591,368.691,371.571,375.001,377.881,382.421,386.411,388.72,393.26,396.69,401.23,403.539,408.079,413.179,421.059,426.159,429.039,431.919,434.799,439.899,444.999,447.308,451.848,456.948,459.828,464.368,469.468,473.458,476.338,481.438,485.978,488.287,492.277,495.157,500.257,504.797,509.897,514.997,517.877,520.757,525.297,529.287,531.596,536.696,540.026" svgx:width="0.89,0.44,0.5,0.5,0.25,0.44,0.5,0.5,0.5,0.28,0.33,0.28,0.44,0.39,0.25,0.44,0.33,0.44,0.25,0.44,0.5,0.78,0.5,0.28,0.28,0.28,0.5,0.5,0.25,0.44,0.5,0.28,0.44,0.5,0.39,0.28,0.5,0.44,0.25,0.39,0.28,0.5,0.44,0.5,0.5,0.28,0.28,0.44,0.39,0.25,0.5,0.33,0.25" style="fill:rgb(35,31,32);font-family:TimesNewRomanPSMT;font-size:10.0px;stroke:none;">Many countries are compiling extensive stockpiles of </text>
   <text y="347.57" x="304.812,310.472,316.132,322.342,325.265,329.805,334.905,340.005,342.928,347.468,352.568,355.448,358.328,363.428,366.308,369.738,374.278,377.158,380.081,387.961,392.501,397.601,400.481,405.021,409.561,412.441,415.321,420.421,425.521,429.511,432.434,435.864,440.964,444.394,447.317,452.417,456.407,460.947,463.87,466.75,470.18,473.103,477.643,480.566,485.666,490.206,497.526,500.449,505.549,510.089,515.189,520.289,524.829,532.709,535.589,540.029" svgx:width="0.56,0.56,0.61,0.25,0.44,0.5,0.5,0.25,0.44,0.5,0.28,0.28,0.5,0.28,0.33,0.44,0.28,0.25,0.78,0.44,0.5,0.28,0.44,0.44,0.28,0.28,0.5,0.5,0.39,0.25,0.33,0.5,0.33,0.25,0.5,0.39,0.44,0.25,0.28,0.33,0.25,0.44,0.25,0.5,0.44,0.72,0.25,0.5,0.44,0.5,0.5,0.44,0.78,0.28,0.44,0.25" style="fill:rgb(35,31,32);font-family:TimesNewRomanPSMT;font-size:10.0px;stroke:none;">PPE and antiviral medications for use if a new pandemic </text>
   <text y="359.57" x="304.812,309.912,314.452,318.992,324.092,327.522,331.512,334.112,336.834,342.494,345.374,349.914,355.014,360.114,362.994,368.094,373.194,375.916,379.346,384.446,387.876,390.598,394.588,399.688,403.115,405.946,408.777,413.317,416.197,420.737,425.837,428.717,431.439,436.539,441.639,449.519,454.619,459.159,462.589,466.579,469.301,474.401,477.831,480.553,483.983,488.523,492.513,497.613,502.713,506.143,510.683,515.223,517.945,520.825,523.705,528.245,536.125,540.015" svgx:width="0.5,0.44,0.44,0.5,0.33,0.39,0.25,0.25,0.56,0.28,0.44,0.5,0.5,0.28,0.5,0.5,0.25,0.33,0.5,0.33,0.25,0.39,0.5,0.33,0.56,0.25,0.44,0.28,0.44,0.5,0.28,0.25,0.5,0.5,0.78,0.5,0.44,0.33,0.39,0.25,0.5,0.33,0.25,0.33,0.44,0.39,0.5,0.5,0.33,0.44,0.44,0.25,0.28,0.28,0.44,0.78,0.39,0.25" style="fill:rgb(35,31,32);font-family:TimesNewRomanPSMT;font-size:10.0px;stroke:none;">occurs. Planning for sufﬁ cient numbers of resource items </text>
   <text y="371.57" x="304.812,307.692,311.682,314.182,315.692,320.232,325.332,333.212,338.312,341.192,345.732,350.832,353.332,354.842,359.382,364.482,369.582,372.082,373.592,378.692,383.232,388.332,392.872,397.972,403.072,407.612,412.712,415.592,418.092,419.602,424.702,429.802,432.302,433.812,438.352,442.342,445.222,448.102,455.982,460.522,463.402,466.282,471.382,476.482,480.472,482.972,484.482,489.582,493.012,495.512,497.022,502.122,506.662,511.762,516.862,521.402,529.282,532.162,536.702" svgx:width="0.28,0.39,0.25,0.55,0.44,0.5,0.78,0.5,0.28,0.44,0.5,0.25,0.55,0.44,0.5,0.5,0.25,0.55,0.5,0.44,0.5,0.44,0.5,0.5,0.44,0.5,0.28,0.25,0.55,0.5,0.5,0.25,0.55,0.44,0.39,0.28,0.28,0.78,0.44,0.28,0.28,0.5,0.5,0.39,0.25,0.55,0.5,0.33,0.25,0.55,0.5,0.44,0.5,0.5,0.44,0.78,0.28,0.44,0.33" style="fill:rgb(35,31,32);font-family:TimesNewRomanPSMT;font-size:10.0px;stroke:none;">is complex and dependent on estimations of pandemic-</text>
   <text y="383.57" x="304.812,308.242,312.782,315.662,320.202,323.082,327.622,332.722,335.222,337.002,341.542,346.642,351.742,354.622,357.502,360.382,365.482,370.582,375.122,378.002,380.502,382.282,386.822,394.702,399.242,402.672,407.772,412.312,417.412,421.952,427.052,429.552,431.332,436.432,439.862,444.402,448.392,452.932,458.032,460.912,465.452,468.332,471.212,476.312,481.412,485.402,488.002,490.502,492.282,497.382,502.482,506.472,511.572,514.452,517.332,521.872,524.752,527.632,532.172,536.712" svgx:width="0.33,0.44,0.28,0.44,0.28,0.44,0.5,0.25,0.55,0.44,0.5,0.5,0.28,0.28,0.28,0.5,0.5,0.44,0.28,0.25,0.55,0.44,0.78,0.44,0.33,0.5,0.44,0.5,0.44,0.5,0.25,0.55,0.5,0.33,0.44,0.39,0.44,0.5,0.28,0.44,0.28,0.28,0.5,0.5,0.39,0.25,0.25,0.55,0.5,0.5,0.39,0.5,0.28,0.28,0.44,0.28,0.28,0.44,0.44,0.33" style="fill:rgb(35,31,32);font-family:TimesNewRomanPSMT;font-size:10.0px;stroke:none;">related additional emergency presentations, hospitaliza-</text>
   <text y="395.57" x="304.812,307.692,310.572,315.672,320.772,324.762,327.362,329.862,331.406,336.506,341.046,346.146,350.686,354.116,358.656,361.536,364.036,365.58,370.68,374.11,378.65,383.19,386.07,388.95,393.49,398.03,400.63,403.13,404.674,409.214,414.314,419.414,421.914,423.458,428.558,433.658,436.538,441.638,446.178,449.058,451.938,456.478,461.578,464.458,466.958,468.502,473.602,476.482,480.472,483.352,486.232,490.222,492.822,495.322,496.866,500.296,505.396,507.896,509.44,516.76,521.86,525.85,528.73,532.16,536.7" svgx:width="0.28,0.28,0.5,0.5,0.39,0.25,0.25,0.55,0.5,0.44,0.5,0.44,0.33,0.44,0.28,0.25,0.55,0.5,0.33,0.44,0.44,0.28,0.28,0.44,0.44,0.25,0.25,0.55,0.44,0.5,0.5,0.25,0.55,0.5,0.5,0.28,0.5,0.44,0.28,0.28,0.44,0.5,0.28,0.25,0.55,0.5,0.28,0.39,0.28,0.28,0.39,0.25,0.25,0.55,0.33,0.5,0.25,0.55,0.72,0.5,0.39,0.28,0.33,0.44,0.33" style="fill:rgb(35,31,32);font-family:TimesNewRomanPSMT;font-size:10.0px;stroke:none;">tions, general practice, and outpatient visits. In Austra-</text>
   <text y="407.57" x="304.812,307.692,310.572,315.112,317.712,320.822,325.922,329.347,332.178,335.009,339.549,342.429,346.969,349.849,352.959,357.499,361.489,364.369,367.249,375.129,379.669,382.549,387.089,391.079,394.189,399.289,402.719,405.829,410.369,415.469,420.569,423.449,426.329,429.209,434.309,439.409,443.949,446.829,449.939,455.039,460.139,464.129,469.229,472.109,474.989,479.529,482.409,485.289,489.829,494.369,497.249,500.129,505.229,510.329,514.319,517.429,520.859,525.399,530.499,535.599,540.04" svgx:width="0.28,0.28,0.44,0.25,0.25,0.5,0.33,0.56,0.25,0.44,0.28,0.44,0.28,0.25,0.44,0.39,0.28,0.28,0.78,0.44,0.28,0.44,0.39,0.25,0.5,0.33,0.25,0.44,0.5,0.5,0.28,0.28,0.28,0.5,0.5,0.44,0.28,0.25,0.5,0.5,0.39,0.5,0.28,0.28,0.44,0.28,0.28,0.44,0.44,0.28,0.28,0.5,0.5,0.39,0.25,0.33,0.44,0.5,0.5,0.44,0.25" style="fill:rgb(35,31,32);font-family:TimesNewRomanPSMT;font-size:10.0px;stroke:none;">lia, ofﬁ cial estimates of additional hospitalizations range </text>
   <text y="419.57" x="304.812,308.242,311.672,316.772,324.652,327.152,328.17,333.27,338.37,340.97,346.07,351.17,356.27,358.77,359.788,362.668,367.768,370.268,371.286,376.386,381.486,386.586,389.186,394.286,399.386,404.486,406.986,408.004" svgx:width="0.33,0.33,0.5,0.78,0.25,0.55,0.5,0.5,0.25,0.5,0.5,0.5,0.25,0.55,0.28,0.5,0.25,0.55,0.5,0.5,0.5,0.25,0.5,0.5,0.5,0.25,0.55,0.33" style="fill:rgb(35,31,32);font-family:TimesNewRomanPSMT;font-size:10.0px;stroke:none;">from 57,900 to 148,000 (</text>
   <text y="419.57" x="411.431" svgx:width="0.5" style="fill:rgb(35,31,32);font-family:TimesNewRomanPS-ItalicMT;font-size:10.0px;stroke:none;">4</text>
   <text y="419.57" x="416.531,419.961,422.561,425.061,426.079,433.399,438.499,441.929,444.429,445.447,450.547,455.087,457.967,462.507,465.007,466.025,470.015,475.115,480.215,485.315,489.855,493.845,496.725,499.225,500.243,503.123,508.223,512.763,515.643,518.143,519.161,527.041,531.581,536.681" svgx:width="0.33,0.25,0.25,0.55,0.72,0.5,0.33,0.25,0.55,0.5,0.44,0.28,0.44,0.25,0.55,0.39,0.5,0.5,0.5,0.44,0.39,0.28,0.25,0.55,0.28,0.5,0.44,0.28,0.25,0.55,0.78,0.44,0.5,0.33" style="fill:rgb(35,31,32);font-family:TimesNewRomanPSMT;font-size:10.0px;stroke:none;">). Our data suggest that man-</text>
   <text y="431.57" x="304.812,309.352,314.452,318.992,326.872,331.412,336.512,339.392,341.892,343.769,348.869,352.299,354.799,356.676,359.556,364.656,367.536,371.526,374.026,375.903,381.003,386.103,393.983,399.083,403.623,407.053,409.553,411.43,416.53,419.96,422.46,424.337,429.437,434.537,438.527,443.627,446.507,449.387,453.927,456.807,459.687,464.227,468.767,471.647,474.527,479.627,484.727,488.717,491.217,493.094,500.414,503.294,506.174,511.274,516.374,521.474,524.354,526.854,528.731,532.161,536.701" svgx:width="0.44,0.5,0.44,0.78,0.44,0.5,0.28,0.25,0.55,0.5,0.33,0.25,0.55,0.28,0.5,0.28,0.39,0.25,0.55,0.5,0.5,0.78,0.5,0.44,0.33,0.25,0.55,0.5,0.33,0.25,0.55,0.5,0.5,0.39,0.5,0.28,0.28,0.44,0.28,0.28,0.44,0.44,0.28,0.28,0.5,0.5,0.39,0.25,0.55,0.72,0.28,0.28,0.5,0.5,0.5,0.28,0.25,0.55,0.33,0.44,0.33" style="fill:rgb(35,31,32);font-family:TimesNewRomanPSMT;font-size:10.0px;stroke:none;">agement of this number of hospitalizations without re-</text>
   <text y="443.57" x="304.812,309.912,314.452,317.882,322.982,325.261,328.691,333.791,337.221,339.5,343.49,348.59,352.58,357.68,362.22,366.76,369.64,374.18,379.28,381.559,384.439,389.534,392.365,395.196,400.296,404.836,409.936,414.476,419.016,421.295,426.395,430.935,433.815,436.695,441.235,446.335,449.215,453.205,455.484,462.804,467.904,473.004,475.283,479.823,483.253,487.793,490.072,494.612,498.602,502.592,507.132,511.122,515.112,519.652,524.752,527.031,532.131,537.231,540.011" svgx:width="0.5,0.44,0.33,0.5,0.25,0.33,0.5,0.33,0.25,0.39,0.5,0.39,0.5,0.44,0.44,0.28,0.44,0.5,0.25,0.28,0.5,0.56,0.25,0.5,0.44,0.5,0.44,0.44,0.25,0.5,0.44,0.28,0.28,0.44,0.5,0.28,0.39,0.25,0.72,0.5,0.5,0.25,0.44,0.33,0.44,0.25,0.44,0.39,0.39,0.44,0.39,0.39,0.44,0.5,0.25,0.5,0.5,0.28,0.25" style="fill:rgb(35,31,32);font-family:TimesNewRomanPSMT;font-size:10.0px;stroke:none;">gard for suspected inﬂ uenza patients who are assessed but </text>
   <text y="455.57" x="304.812,312.132,317.232,322.332,324.832,326.194,330.734,334.164,338.704,341.204,342.566,347.666,352.766,355.646,358.146,359.508,363.498,368.598,372.028,374.859,377.69,382.23,385.11,389.65,394.75,397.63,400.51,405.61,408.11,409.472,412.352,415.232,418.112,420.612,421.974,424.854,429.954,432.454,433.816,437.246,441.786,446.886,451.986,454.866,458.296,462.836,465.336,466.698,471.238,476.338,484.218,487.098,491.088,495.078,497.958,503.058,508.158,510.758,513.258,514.62,521.94,527.04,532.14,535.02,540.02" svgx:width="0.72,0.5,0.5,0.25,0.55,0.44,0.33,0.44,0.25,0.55,0.5,0.5,0.28,0.25,0.55,0.39,0.5,0.33,0.56,0.25,0.44,0.28,0.44,0.5,0.28,0.28,0.5,0.25,0.55,0.28,0.28,0.28,0.25,0.55,0.28,0.5,0.25,0.55,0.33,0.44,0.5,0.5,0.28,0.33,0.44,0.25,0.55,0.44,0.5,0.78,0.28,0.39,0.39,0.28,0.5,0.5,0.25,0.25,0.55,0.72,0.5,0.5,0.28,0.5,0.25" style="fill:rgb(35,31,32);font-family:TimesNewRomanPSMT;font-size:10.0px;stroke:none;">who are not sufﬁ ciently ill to require admission, would </text>
   <text y="467.57" x="304.812,308.242,312.782,317.882,322.982,325.862,329.292,333.832,336.366,339.796,343.226,348.326,356.206,358.74,363.84,366.44,371.54,376.64,381.74,384.34,389.44,394.54,399.64,402.174,405.054,410.154,412.688,417.788,420.388,425.488,430.588,435.688,438.288,443.388,448.488,453.588,456.122,461.782,467.442,473.652,476.186,480.176,484.716,487.596,491.586,494.12,497.55,502.65,507.19,512.29,516.83,521.93,527.03,529.91,535.01,540.01" svgx:width="0.33,0.44,0.5,0.5,0.28,0.33,0.44,0.25,0.33,0.33,0.5,0.78,0.25,0.5,0.25,0.5,0.5,0.5,0.25,0.5,0.5,0.5,0.25,0.28,0.5,0.25,0.5,0.25,0.5,0.5,0.5,0.25,0.5,0.5,0.5,0.25,0.56,0.56,0.61,0.25,0.39,0.44,0.28,0.39,0.25,0.33,0.5,0.44,0.5,0.44,0.5,0.5,0.28,0.5,0.5,0.25" style="fill:rgb(35,31,32);font-family:TimesNewRomanPSMT;font-size:10.0px;stroke:none;">require from 1,123,260 to 3,714,800 PPE sets (depending </text>
   <text y="479.57" x="304.812,309.912,315.012,317.512,318.738,326.058,331.158,335.698,338.578,343.678,348.218,351.648,354.148,355.374,358.254,363.354,367.894,372.994,375.494,376.72,384.04,388.58,392.01,396.55,399.05,400.276,407.596,412.696,417.796,420.296,421.522,429.402,433.942,437.932,443.032,447.022,449.622,452.122,453.348,458.448,463.548,470.868,475.968,479.958,482.558,485.058,486.284,491.384,494.814,497.314,498.54,503.64,506.52,511.62,516.72,521.26,525.25,527.85,530.35,531.576,536.676,540.006" svgx:width="0.5,0.5,0.25,0.55,0.72,0.5,0.44,0.28,0.5,0.44,0.33,0.25,0.55,0.28,0.5,0.44,0.5,0.25,0.55,0.72,0.44,0.33,0.44,0.25,0.55,0.72,0.5,0.5,0.25,0.55,0.78,0.44,0.39,0.5,0.39,0.25,0.25,0.55,0.5,0.5,0.72,0.5,0.39,0.25,0.25,0.55,0.5,0.33,0.25,0.55,0.5,0.28,0.5,0.5,0.44,0.39,0.25,0.25,0.55,0.5,0.33,0.25" style="fill:rgb(35,31,32);font-family:TimesNewRomanPSMT;font-size:10.0px;stroke:none;">on whether they were N95 masks, gowns, or gloves, or </text>
   <text y="491.57" x="304.812,309.352,312.232,315.112,317.612,318.398,323.498,325.998,326.784,329.664,332.544,337.084,344.964,348.954,352.384,354.984,357.484,358.27,365.59,368.47,371.35,376.45,381.55,386.65,391.75,396.85,399.35,400.136,404.676,408.666,413.206,417.746,421.176,424.056,428.596,431.476,436.576,439.456,444.556,449.656,452.156,452.942,456.372,459.802,463.232,468.332,476.212,478.712,479.498,482.378,487.478,492.018,496.008,500.548,503.048,503.834,508.934,513.474,516.354,520.894,524.324,526.824,527.61,530.49,535.59,540.03" svgx:width="0.44,0.28,0.28,0.25,0.55,0.5,0.25,0.55,0.28,0.28,0.44,0.78,0.39,0.33,0.25,0.25,0.55,0.72,0.28,0.28,0.5,0.5,0.5,0.5,0.5,0.25,0.55,0.44,0.39,0.44,0.44,0.33,0.28,0.44,0.28,0.5,0.28,0.5,0.5,0.25,0.55,0.33,0.33,0.33,0.5,0.78,0.25,0.55,0.28,0.5,0.44,0.39,0.44,0.25,0.55,0.5,0.44,0.28,0.44,0.33,0.25,0.55,0.28,0.5,0.44,0.25" style="fill:rgb(35,31,32);font-family:TimesNewRomanPSMT;font-size:10.0px;stroke:none;">all 3 items). Although ascertaining (from these data) the </text>
   <text y="503.57" x="304.812,309.912,315.012,322.892,327.992,332.532,335.962,338.462,339.276,344.376,347.806,350.306,351.12,355.66,360.76,365.86,369.29,373.28,377.82,381.81,384.31,385.124,390.224,393.654,396.154,396.968,402.068,407.168,411.158,414.038,418.578,423.678,428.778,433.878,437.868,442.968,446.398,450.938,453.438,454.252,458.792,463.892,466.772,469.652,474.752,477.632,481.062,485.602,488.482,490.982,491.796,496.896,500.326,505.426,510.526,515.626,520.726,523.606,528.146,533.246,536.126,540.016" svgx:width="0.5,0.5,0.78,0.5,0.44,0.33,0.25,0.55,0.5,0.33,0.25,0.55,0.44,0.5,0.5,0.33,0.39,0.44,0.39,0.25,0.55,0.5,0.33,0.25,0.55,0.5,0.5,0.39,0.28,0.44,0.5,0.5,0.5,0.39,0.5,0.33,0.44,0.25,0.55,0.44,0.5,0.28,0.28,0.5,0.28,0.33,0.44,0.28,0.25,0.55,0.5,0.33,0.5,0.5,0.5,0.5,0.28,0.44,0.5,0.28,0.39,0.25" style="fill:rgb(35,31,32);font-family:TimesNewRomanPSMT;font-size:10.0px;stroke:none;">number of courses of postexposure antiviral prophylaxis </text>
   <text y="515.57" x="304.812,308.242,312.782,317.882,322.982,325.862,329.292,333.832,338.932,341.432,343.409,346.289,350.279,352.779,354.756,359.856,362.736,366.159,368.99,371.821,376.361,381.461,384.341,387.221,389.821,392.321,394.298,397.178,400.608,403.108,405.085,409.075,411.955,417.055,421.595,426.695,430.685,433.185,435.162,440.262,443.692,446.192,448.169,451.599,456.139,460.679,465.779,468.659,471.539,476.639,479.139,481.116,485.656,490.756,495.296,498.176,501.056,505.596,510.696,513.576,518.116,520.616,522.593,528.253,533.913,540.023" svgx:width="0.33,0.44,0.5,0.5,0.28,0.33,0.44,0.5,0.25,0.55,0.28,0.39,0.25,0.55,0.5,0.28,0.33,0.56,0.25,0.44,0.5,0.28,0.28,0.25,0.25,0.55,0.28,0.33,0.25,0.55,0.39,0.28,0.5,0.44,0.5,0.39,0.25,0.55,0.5,0.33,0.25,0.55,0.33,0.44,0.44,0.5,0.28,0.28,0.5,0.25,0.55,0.44,0.5,0.44,0.28,0.28,0.44,0.5,0.28,0.44,0.25,0.55,0.56,0.56,0.61,0.25" style="fill:rgb(35,31,32);font-family:TimesNewRomanPSMT;font-size:10.0px;stroke:none;">required is difﬁ cult, if stocks of readily available PPE </text>
   <text y="527.57" x="304.812,312.132,316.672,320.102,324.642,327.028,329.908,335.008,339.548,344.648,349.188,354.288,359.388,363.928,366.808,371.348,373.948,376.334,379.214,384.314,388.854,391.24,396.34,401.44,409.32,414.42,418.96,422.39,424.776,429.876,433.306,435.692,440.232,445.332,450.432,453.862,457.852,462.392,466.382,468.768,473.868,477.298,479.684,484.224,489.324,492.204,495.084,500.184,503.064,506.494,511.034,513.914,516.3,524.18,528.72,533.82,536.7" svgx:width="0.72,0.44,0.33,0.44,0.25,0.28,0.5,0.44,0.5,0.44,0.5,0.5,0.44,0.28,0.44,0.25,0.25,0.28,0.5,0.44,0.25,0.5,0.5,0.78,0.5,0.44,0.33,0.25,0.5,0.33,0.25,0.44,0.5,0.5,0.33,0.39,0.44,0.39,0.25,0.5,0.33,0.25,0.44,0.5,0.28,0.28,0.5,0.28,0.33,0.44,0.28,0.25,0.78,0.44,0.5,0.28,0.33" style="fill:rgb(35,31,32);font-family:TimesNewRomanPSMT;font-size:10.0px;stroke:none;">were inadequate, the number of courses of antiviral medi-</text>
   <text y="539.57" x="304.812,309.352,313.892,316.772,319.652,324.752,329.852,332.96,336.39,340.93,346.03,351.13,354.01,357.44,361.98,367.08,370.188,377.508,382.608,387.708,390.588,395.688,398.796,401.676,404.556,409.656,414.196,417.076,422.176,425.284,428.164,433.264,437.804,441.234,445.774,450.314,454.304,458.844,461.952,467.052,470.482,475.022,482.902,487.442,490.322,493.202,497.742,502.282,505.162,508.042,513.142,515.742,518.85,523.95,529.05,532.158,535.038,540.038" svgx:width="0.44,0.44,0.28,0.28,0.5,0.5,0.25,0.33,0.44,0.5,0.5,0.28,0.33,0.44,0.5,0.25,0.72,0.5,0.5,0.28,0.5,0.25,0.28,0.28,0.5,0.44,0.28,0.5,0.25,0.28,0.5,0.44,0.33,0.44,0.44,0.39,0.44,0.25,0.5,0.33,0.44,0.78,0.44,0.28,0.28,0.44,0.44,0.28,0.28,0.5,0.25,0.25,0.5,0.5,0.25,0.28,0.5,0.25" style="fill:rgb(35,31,32);font-family:TimesNewRomanPSMT;font-size:10.0px;stroke:none;">cation required would likely increase dramatically, up to </text>
   <text y="551.57" x="304.812,309.912,315.012,320.112,325.212,330.312,332.812,333.934,338.474,343.574,348.674,352.104,356.094,360.634,364.624,367.124,368.246,373.346,377.886,381.316,383.816,384.938,388.928,394.028,398.018,403.118,407.658,412.198,415.078,419.618,424.718,427.218,428.34,435.66,441.32,444.75,447.25,448.372,452.912,457.452,461.442,465.982,468.482,469.604,474.704,479.804,483.234,486.114,491.214,496.314,498.814,499.936,502.816,507.916,512.456,514.956,516.078,518.958,524.058,526.938,529.818,532.698,537.238,540.018" svgx:width="0.5,0.5,0.5,0.5,0.5,0.25,0.55,0.44,0.5,0.5,0.33,0.39,0.44,0.39,0.25,0.55,0.5,0.44,0.33,0.25,0.55,0.39,0.5,0.39,0.5,0.44,0.44,0.28,0.44,0.5,0.25,0.55,0.72,0.56,0.33,0.25,0.55,0.44,0.44,0.39,0.44,0.25,0.55,0.5,0.5,0.33,0.28,0.5,0.5,0.25,0.55,0.28,0.5,0.44,0.25,0.55,0.28,0.5,0.28,0.28,0.28,0.44,0.28,0.25" style="fill:rgb(35,31,32);font-family:TimesNewRomanPSMT;font-size:10.0px;stroke:none;">12–13 courses per suspected API case during the initial </text>
   <text y="563.57" x="304.812,309.912,313.342,318.442,323.542,328.642,332.072,334.607,339.147,343.137,347.127,351.667,355.657,359.647,367.527,372.067,377.167,380.047,382.647,385.182,391.392,396.492,401.592,405.582,408.182,410.717,415.257,420.357,424.897,429.997,435.097,439.637,442.517,447.057,449.592,453.582,456.462,461.562,466.102,471.202,475.192,477.727,482.827,486.257,488.792,494.452,500.112,506.322,508.857,513.957,517.387,522.487,527.587,530.467,535.567,540.007" svgx:width="0.5,0.33,0.5,0.5,0.5,0.33,0.25,0.44,0.39,0.39,0.44,0.39,0.39,0.78,0.44,0.5,0.28,0.25,0.25,0.61,0.5,0.5,0.39,0.25,0.25,0.44,0.5,0.44,0.5,0.5,0.44,0.28,0.44,0.25,0.39,0.28,0.5,0.44,0.5,0.39,0.25,0.5,0.33,0.25,0.56,0.56,0.61,0.25,0.5,0.33,0.5,0.5,0.28,0.5,0.44,0.25" style="fill:rgb(35,31,32);font-family:TimesNewRomanPSMT;font-size:10.0px;stroke:none;">6-hour assessment. Thus, adequate stocks of PPE provide </text>
   <text y="575.57" x="304.812,309.352,311.852,313.068,320.948,325.488,330.028,335.128,339.118,341.618,342.834,347.934,351.364,353.864,355.08,360.18,363.61,368.71,371.59,376.13,380.67,383.55,386.43,391.53,396.63,399.13,400.346,405.446,409.986,412.866,417.966,422.506,427.606,430.486,435.026,437.526,438.742,443.282,448.382,451.262,454.142,459.242,462.122,465.552,470.092,472.972,475.472,476.688,481.788,485.218,490.318,495.418,497.918,499.134,503.124,506.004,511.104,515.644,520.744,525.844,528.724,531.604,536.144,540.034" svgx:width="0.44,0.25,0.55,0.78,0.44,0.44,0.5,0.39,0.25,0.55,0.5,0.33,0.25,0.55,0.5,0.33,0.5,0.28,0.44,0.44,0.28,0.28,0.5,0.5,0.25,0.55,0.5,0.44,0.28,0.5,0.44,0.5,0.28,0.44,0.25,0.55,0.44,0.5,0.28,0.28,0.5,0.28,0.33,0.44,0.28,0.25,0.55,0.5,0.33,0.5,0.5,0.25,0.55,0.39,0.28,0.5,0.44,0.5,0.5,0.28,0.28,0.44,0.39,0.25" style="fill:rgb(35,31,32);font-family:TimesNewRomanPSMT;font-size:10.0px;stroke:none;">a means of protecting valuable antiviral drug stockpiles </text>
   <text y="587.57" x="304.812,308.242,313.342,316.772,319.372,324.472,328.462,333.002,335.602,338.482,343.582,346.182,349.062,351.942,354.822,357.422,362.522,365.952,368.552,373.652,378.192,382.732,387.832,390.712,393.592,398.692,401.292,405.832,410.932,416.032,421.132,425.122,429.662" svgx:width="0.33,0.5,0.33,0.25,0.5,0.39,0.44,0.25,0.28,0.5,0.25,0.28,0.28,0.28,0.25,0.5,0.33,0.25,0.5,0.44,0.44,0.5,0.28,0.28,0.5,0.25,0.44,0.5,0.5,0.5,0.39,0.44,0.5" style="fill:rgb(35,31,32);font-family:TimesNewRomanPSMT;font-size:10.0px;stroke:none;">for use in ill or heavily exposed</text>
  </g>
  <g begin="text">
   <text y="587.57" x="434.748" svgx:width="0.25" style="fill:rgb(57,83,164);font-family:TimesNewRomanPSMT;font-size:10.0px;stroke:none;"> </text>
  </g>
  <g begin="text">
   <text y="587.57" x="437.348,442.448,446.988,450.418,454.408,459.508,464.608,468.598" svgx:width="0.5,0.44,0.33,0.39,0.5,0.5,0.39,0.25" style="fill:rgb(35,31,32);font-family:TimesNewRomanPSMT;font-size:10.0px;stroke:none;">persons.</text>
   <text y="599.57" x="322.812,330.032,335.032,337.532,339.925,342.705,350.485,355.485,360.485,363.815,366.595,371.035,376.035,378.815,381.315,383.708,388.148,393.148,398.148,402.038,404.818,409.818,414.258,417.588,422.028,424.808,427.588,432.588,437.588,440.088,442.481,449.701,454.701,459.141,464.141,466.641,469.034,473.474,478.474,481.254,484.584,489.024,494.024,499.024,501.804,506.244,509.024,511.804,516.804,521.804,524.304,526.697,531.697,536.697,540.027" svgx:width="0.72,0.5,0.25,0.55,0.28,0.78,0.5,0.5,0.33,0.28,0.44,0.5,0.28,0.25,0.55,0.44,0.5,0.5,0.39,0.28,0.5,0.44,0.33,0.44,0.28,0.28,0.5,0.5,0.25,0.55,0.72,0.5,0.44,0.5,0.25,0.55,0.44,0.5,0.28,0.33,0.44,0.5,0.5,0.28,0.44,0.28,0.28,0.5,0.5,0.25,0.55,0.5,0.5,0.33,0.25" style="fill:rgb(35,31,32);font-family:TimesNewRomanPSMT;font-size:10.0px;stroke:none;">An important consideration when extrapolating our </text>
   <text y="611.57" x="304.812,309.812,314.252,317.032,321.472,323.972,325.001,327.781,332.781,335.281,336.31,341.31,344.09,349.09,353.53,356.86,359.36,360.389,365.389,369.829,374.269,377.049,379.829,384.829,389.269,393.709,397.039,401.479,403.979,405.008,408.898,413.898,417.788,420.568,425.008,432.788,436.678,439.178,440.207,442.987,446.877,449.377,450.406,453.186,458.186,462.626,465.406,467.906,468.935,472.265,476.705,481.145,486.145,493.925,501.705,506.145,511.145,516.145,520.585,523.365,526.145,531.145,536.145,540.035" svgx:width="0.5,0.44,0.28,0.44,0.25,0.55,0.28,0.5,0.25,0.55,0.5,0.28,0.5,0.44,0.33,0.25,0.55,0.5,0.44,0.44,0.28,0.28,0.5,0.44,0.44,0.33,0.44,0.25,0.55,0.39,0.5,0.39,0.28,0.44,0.78,0.39,0.25,0.55,0.28,0.39,0.25,0.55,0.28,0.5,0.44,0.28,0.25,0.55,0.33,0.44,0.44,0.5,0.78,0.78,0.44,0.5,0.5,0.44,0.28,0.28,0.5,0.5,0.39,0.25" style="fill:rgb(35,31,32);font-family:TimesNewRomanPSMT;font-size:10.0px;stroke:none;">data to other healthcare systems is that recommendations </text>
   <text y="623.57" x="304.812,308.142,312.582,317.582,322.022,325.352,330.352,333.132,338.132,343.132,345.632,346.662,349.442,354.442,358.882,361.382,362.412,367.412,372.412,375.192,377.972,385.752,390.192,392.972,395.472,396.502,399.832,404.832,408.162,415.942,418.442,419.472,424.472,427.802,430.302,431.332,434.662,439.102,442.992,447.992,450.772,454.102,458.542,461.322,466.322,469.652,474.652,477.152,478.182,483.182,486.512,491.512,494.292,498.732,503.172,505.952,508.732,513.732,518.732,521.232,522.262,527.262,531.702,535.032,540.032" svgx:width="0.33,0.44,0.5,0.44,0.33,0.5,0.28,0.5,0.5,0.25,0.55,0.28,0.5,0.44,0.25,0.55,0.5,0.5,0.28,0.28,0.78,0.44,0.28,0.25,0.55,0.33,0.5,0.33,0.78,0.25,0.55,0.5,0.33,0.25,0.55,0.33,0.44,0.39,0.5,0.28,0.33,0.44,0.28,0.5,0.33,0.5,0.25,0.55,0.5,0.33,0.5,0.28,0.44,0.44,0.28,0.28,0.5,0.5,0.25,0.55,0.5,0.44,0.33,0.5,0.25" style="fill:rgb(35,31,32);font-family:TimesNewRomanPSMT;font-size:10.0px;stroke:none;">regarding the optimal form of respiratory protection vary </text>
   <text y="635.57" x="304.812,309.812,314.252,317.032,324.252,328.692,333.132,338.132,341.146,345.586,350.586,355.586,360.586,363.366,366.696,369.476,373.916,377.806,380.306,383.32,389.43,394.43,398.87,401.884,411.324,418.544,425.764,428.778,431.558,436.558,439.338,443.778,447.108,449.888,457.668,460.682,465.682,470.682,473.462,478.462,482.902,485.682,488.462,493.462,497.902,501.792,504.806,508.136,513.136,516.466,519.48,527.26,531.7,536.7" svgx:width="0.5,0.44,0.28,0.72,0.44,0.44,0.5,0.25,0.44,0.5,0.5,0.5,0.28,0.33,0.28,0.44,0.39,0.25,0.25,0.61,0.5,0.44,0.25,0.94,0.72,0.72,0.25,0.28,0.5,0.28,0.44,0.33,0.28,0.78,0.25,0.5,0.5,0.28,0.5,0.44,0.28,0.28,0.5,0.44,0.39,0.25,0.33,0.5,0.33,0.25,0.78,0.44,0.5,0.33" style="fill:rgb(35,31,32);font-family:TimesNewRomanPSMT;font-size:10.0px;stroke:none;">between countries. The WHO interim guidelines for man-</text>
   <text y="647.57" x="304.812,309.252,314.252,318.692,326.472,330.912,335.912,338.692,341.192,343.691,348.691,352.021,354.521,357.02,362.02,367.02,374.8,379.24,384.24,386.74,389.239,393.679,398.119,402.009,406.449,410.339,412.839,415.338,420.338,423.668,426.168,428.667,433.107,438.107,440.887,445.327,450.327,452.827,455.326,458.106,463.088,465.868,468.649,473.649,478.089,483.089,487.529" svgx:width="0.44,0.5,0.44,0.78,0.44,0.5,0.28,0.25,0.55,0.5,0.33,0.25,0.55,0.5,0.5,0.78,0.44,0.5,0.25,0.55,0.44,0.44,0.39,0.44,0.39,0.25,0.55,0.5,0.33,0.25,0.55,0.44,0.5,0.28,0.44,0.5,0.25,0.55,0.28,0.5,0.56,0.25,0.5,0.44,0.5,0.44,0.44" style="fill:rgb(35,31,32);font-family:TimesNewRomanPSMT;font-size:10.0px;stroke:none;">agement of human cases of avian inﬂ uenza</text>
  </g>
  <g begin="text">
   <text y="647.57" x="491.965" svgx:width="0.25" style="fill:rgb(57,83,164);font-family:TimesNewRomanPSMT;font-size:10.0px;stroke:none;"> </text>
  </g>
  <g begin="text">
   <text y="647.57" x="496.964,500.294,507.514,510.844,514.174,516.674,519.173,523.063,525.843,530.283,533.063,537.503,540.003" svgx:width="0.33,0.72,0.33,0.33,0.25,0.55,0.39,0.28,0.44,0.28,0.44,0.25,0.25" style="fill:rgb(35,31,32);font-family:TimesNewRomanPSMT;font-size:10.0px;stroke:none;">(AI) state, </text>
   <text y="659.57" x="304.812,309.252,316.472,323.142,332.582,336.472,338.972,340.772,347.992,352.992,356.322,361.322,364.102,369.102,374.102,376.602,378.402,385.622,388.402,391.182,396.182,398.682,400.482,407.702,411.032,414.362,417.142,422.142,425.472,429.912,434.352,437.132,441.572,446.572,449.072,450.872,455.872,460.312,463.092,465.872,470.312,475.312,478.092,481.982,484.482,486.282,490.172,495.172,500.172,505.172,507.952,512.952,515.452,517.252,521.142,525.582,528.362,532.802,537.242,540.022" svgx:width="0.44,0.72,0.67,0.94,0.39,0.25,0.55,0.72,0.5,0.33,0.5,0.28,0.5,0.5,0.25,0.55,0.72,0.28,0.28,0.5,0.25,0.55,0.72,0.33,0.33,0.28,0.5,0.33,0.44,0.44,0.28,0.44,0.5,0.25,0.55,0.5,0.44,0.28,0.28,0.44,0.5,0.28,0.39,0.25,0.55,0.39,0.5,0.5,0.5,0.28,0.5,0.25,0.55,0.39,0.44,0.28,0.44,0.44,0.28,0.25" style="fill:rgb(35,31,32);font-family:TimesNewRomanPSMT;font-size:10.0px;stroke:none;">“HCWs working with AI-infected patients should select </text>
   <text y="671.57" x="304.812,307.592,312.592,317.032,319.415,324.415,327.195,332.195,337.195,341.635,345.525,348.305,350.688,353.468,357.908,362.908,367.348,370.128,372.511,377.511,380.841,383.224,386.554,390.994,394.884,399.884,402.664,405.994,410.434,413.214,418.214,421.544,426.544,428.927,433.927,437.257,442.257,445.037,449.477,453.917,456.697,459.477,464.477,469.477,471.86,476.3,481.3,485.74,488.52,491.3,495.74,500.74,503.52,507.96,510.46,512.843,517.843,521.173,525.613,528.943,533.383,536.713" svgx:width="0.28,0.5,0.44,0.25,0.5,0.28,0.5,0.5,0.44,0.39,0.28,0.25,0.28,0.44,0.5,0.44,0.28,0.25,0.5,0.33,0.25,0.33,0.44,0.39,0.5,0.28,0.33,0.44,0.28,0.5,0.33,0.5,0.25,0.5,0.33,0.5,0.28,0.44,0.44,0.28,0.28,0.5,0.5,0.25,0.44,0.5,0.44,0.28,0.28,0.44,0.5,0.28,0.44,0.25,0.25,0.5,0.33,0.44,0.33,0.44,0.33,0.33" style="fill:rgb(35,31,32);font-family:TimesNewRomanPSMT;font-size:10.0px;stroke:none;">the highest level of respiratory protection available, prefer-</text>
   <text y="683.57" x="304.812,309.252,314.252,317.032,322.032,324.151,328.591,330.71,335.71,340.15,343.48,346.26,349.04,353.48,358.48,361.26,365.7,368.48,372.92,375.039,378.369,382.809,386.699,391.699,394.479,397.809,402.249,405.029,410.029,413.359,423.359,425.478,430.478,434.918,438.808,441.588,446.588,451.588,456.028,461.028,463.147,465.927,470.927,473.046,478.046,481.376,486.376,489.156,493.596,498.036,500.816,502.935,505.715,510.715,515.155,517.274,524.494,528.934,533.374,536.704" svgx:width="0.44,0.5,0.28,0.5,0.25,0.44,0.25,0.5,0.44,0.33,0.28,0.28,0.44,0.5,0.28,0.44,0.28,0.44,0.25,0.33,0.44,0.39,0.5,0.28,0.33,0.44,0.28,0.5,0.33,1.0,0.25,0.5,0.44,0.39,0.28,0.5,0.5,0.44,0.5,0.25,0.28,0.5,0.25,0.5,0.33,0.5,0.28,0.44,0.44,0.28,0.25,0.28,0.5,0.44,0.25,0.72,0.44,0.44,0.33,0.33" style="fill:rgb(35,31,32);font-family:TimesNewRomanPSMT;font-size:10.0px;stroke:none;">ably a particulate respirator… designed to protect the wear-</text>
   <text y="695.57" x="304.812,309.252,312.582,315.082,315.983,319.313,322.643,327.643,335.423,337.923,338.824,342.154,346.594,350.484,355.484,358.264,361.594,366.034,368.814,373.814,377.144,382.144,384.644,385.545,389.985,394.425,397.755,402.755,406.645,411.645,414.425,418.315,420.815,421.716,426.156,431.156,436.156,440.596,443.376,446.156,450.596,455.596,458.096,458.997,463.997,468.997,471.497,472.398,477.398,480.178,485.178,489.618,492.948,496.838,501.278,503.778,504.679" svgx:width="0.44,0.33,0.25,0.55,0.33,0.33,0.5,0.78,0.25,0.55,0.33,0.44,0.39,0.5,0.28,0.33,0.44,0.28,0.5,0.33,0.5,0.25,0.55,0.44,0.44,0.33,0.5,0.39,0.5,0.28,0.39,0.25,0.55,0.44,0.5,0.5,0.44,0.28,0.28,0.44,0.5,0.25,0.55,0.5,0.5,0.25,0.55,0.5,0.28,0.5,0.44,0.33,0.39,0.44,0.25,0.55,0.33" style="fill:rgb(35,31,32);font-family:TimesNewRomanPSMT;font-size:10.0px;stroke:none;">er from respiratory aerosols expelled by others” (</text>
   <text y="695.57" x="507.99" svgx:width="0.5" style="fill:rgb(35,31,32);font-family:TimesNewRomanPS-ItalicMT;font-size:10.0px;stroke:none;">7</text>
   <text y="695.57" x="512.99,516.32,518.82,521.32,522.221,528.331,533.331,536.111,540.001" svgx:width="0.33,0.25,0.25,0.55,0.61,0.5,0.28,0.39,0.25" style="fill:rgb(35,31,32);font-family:TimesNewRomanPSMT;font-size:10.0px;stroke:none;">). This </text>
   <text y="707.57" x="304.812,308.142,312.582,317.022,322.022,329.802,337.582,342.022,347.022,352.022,356.462,359.242,362.022,367.022,372.022,374.522,376.418,379.198,383.088,385.588,387.484,390.814,395.239,398.02,400.801,405.241,409.681,412.461,416.901,421.901,424.401,426.297,429.077,434.077,436.577,438.473,441.253,446.253,450.693,453.193,455.089,462.309,467.309,471.199,473.979,477.309,481.749,484.529,487.309,491.749,496.749,499.249,501.145,506.145,510.585,515.585,520.585,525.025,532.805,535.585,540.025" svgx:width="0.33,0.44,0.44,0.5,0.78,0.78,0.44,0.5,0.5,0.44,0.28,0.28,0.5,0.5,0.25,0.55,0.28,0.39,0.25,0.55,0.33,0.44,0.56,0.25,0.44,0.44,0.28,0.44,0.5,0.25,0.55,0.28,0.5,0.25,0.55,0.28,0.5,0.44,0.25,0.55,0.72,0.5,0.39,0.28,0.33,0.44,0.28,0.28,0.44,0.5,0.25,0.55,0.5,0.44,0.5,0.5,0.44,0.78,0.28,0.44,0.25" style="fill:rgb(35,31,32);font-family:TimesNewRomanPSMT;font-size:10.0px;stroke:none;">recommendation is reﬂ ected in the Australian pandemic </text>
   <text y="739.288" x="57.6,59.84,155.949,161.285,167.949,172.397,175.061,179.509,181.285,185.733,190.181,192.405,194.629,199.077,201.301,205.749,209.749,211.973,213.749,218.197,222.645,226.645,228.869,234.645,236.421,240.421,244.869,249.317,253.317,257.765,261.765,263.989,266.789,269.013,274.789,280.565,285.899,288.123,292.123,296.571,300.571,302.795,307.243,311.691,315.691,317.915,322.363,324.139,328.587,330.811,333.611,335.835,340.73,345.178,346.954,349.178,351.402,355.85,360.298,362.522,364.746,370.522,374.97,377.194,379.418,383.866,388.314,390.538,392.762,398.986,402.986,405.21,409.658,414.106,418.554,421.218,423.442,427.89,432.338,436.786,441.234,443.474,520.785,525.233,529.681,534.129,538.577" svgx:width="0.28,0.55,0.67,0.83,0.56,0.33,0.56,0.22,0.56,0.56,0.28,0.28,0.56,0.28,0.56,0.5,0.28,0.22,0.56,0.56,0.5,0.28,0.72,0.22,0.5,0.56,0.56,0.5,0.56,0.5,0.28,0.35,0.28,0.72,0.72,0.72,0.28,0.5,0.56,0.5,0.28,0.56,0.56,0.5,0.28,0.56,0.22,0.56,0.28,0.35,0.28,0.67,0.56,0.22,0.28,0.28,0.56,0.56,0.28,0.28,0.72,0.56,0.28,0.28,0.56,0.56,0.28,0.28,0.78,0.5,0.28,0.56,0.56,0.56,0.33,0.28,0.56,0.56,0.56,0.56,0.28,0.55,0.56,0.56,0.56,0.56,0.28" style="fill:rgb(35,31,32);font-family:ArialMT;font-size:8.0px;stroke:none;"> Emerging Infectious Diseases • www.cdc.gov/eid • Vol. 13, No. 10, October 2007 1545 </text>
  </g>
  <g begin="text">
   <text y="89.04" x="60.6,65.481,69.924,74.366,76.143,80.586,82.81,87.252,89.476,91.7,97.029,101.024,103.248,107.691,112.133,113.91,116.134,120.633,125.075,129.518,131.742,133.966,138.408,140.632,145.075,146.852,149.076,153.518,157.961,162.403,166.846,169.509,171.79,176.233,180.729,182.506,184.73,186.508,190.95,194.946,197.17,199.394,203.836,206.499,208.723,214.051,219.38,224.708,226.932,228.709,230.933,235.376,241.973,244.197,248.64,252.635,257.078,259.302,263.799,267.7,269.924,275.691,281.458,288.997,292.993,295.217,299.715,304.15,306.813,308.59,313.032,317.475,319.699,321.923,326.365,330.808,333.032,337.027,339.251,343.694,348.191,352.187,354.411,358.909,363.343,366.006,367.783,372.225,376.668,379.778" svgx:width="0.61,0.56,0.56,0.22,0.56,0.28,0.56,0.28,0.28,0.67,0.5,0.28,0.56,0.56,0.22,0.28,0.56,0.56,0.56,0.28,0.28,0.56,0.28,0.56,0.22,0.28,0.56,0.56,0.56,0.56,0.33,0.28,0.56,0.56,0.22,0.28,0.22,0.56,0.5,0.28,0.28,0.56,0.33,0.28,0.67,0.67,0.67,0.28,0.22,0.28,0.56,0.83,0.28,0.56,0.5,0.56,0.28,0.56,0.5,0.28,0.72,0.72,0.94,0.5,0.28,0.56,0.56,0.33,0.22,0.56,0.56,0.28,0.28,0.56,0.56,0.28,0.5,0.28,0.56,0.56,0.5,0.28,0.56,0.56,0.33,0.22,0.56,0.56,0.39,0.28" style="fill:rgb(35,31,32);font-family:ArialMT;font-size:7.98px;stroke:none;">Table 4. Actual and total opportunities for PPE item use by HCWs during the study period* </text>
   <text y="100.14" x="183.359,188.689,192.687,194.914,199.359,203.803,205.583,207.807,213.138,218.468,223.799,226.023,230.468,234.466,238.911,241.135,243.8,246.026,250.471,252.698,257.143,258.922,261.146,265.591,270.036,274.481,278.926,281.591,283.817,288.262,292.707,294.487,296.713,298.493,302.992,306.99,309.214,311.44,315.885,318.55,320.774,326.105,331.436,336.766,338.99,340.77,342.996,347.441,354.096,356.32,360.765,364.763,369.208,371.873,374.097,378.597,382.498,384.722,389.167,393.612,397.61,402.055,403.834,406.06,410.505,412.285,416.73" svgx:width="0.67,0.5,0.28,0.56,0.56,0.22,0.28,0.67,0.67,0.67,0.28,0.56,0.5,0.56,0.28,0.33,0.28,0.56,0.28,0.56,0.22,0.28,0.56,0.56,0.56,0.56,0.33,0.28,0.56,0.56,0.22,0.28,0.22,0.56,0.5,0.28,0.28,0.56,0.33,0.28,0.67,0.67,0.67,0.28,0.22,0.28,0.56,0.83,0.28,0.56,0.5,0.56,0.33,0.28,0.56,0.5,0.28,0.56,0.56,0.5,0.56,0.22,0.28,0.56,0.22,0.56,0.28" style="fill:rgb(35,31,32);font-family:ArialMT;font-size:7.98px;stroke:none;">Actual PPE use (total opportunities for PPE item use) by hospital† </text>
  </g>
  <path style="fill:none;stroke:rgb(35,31,32);stroke-width:0.5;" d="M57.720 91.860 L539.760 91.860 M122.760 102.960 L476.760 102.960 M57.720 114.060 L539.760 114.060 M57.720 224.100 L539.760 224.100 "/>
  <path style="fill:none;stroke:rgb(35,31,32);stroke-width:0.48;" d="M57.000 273.450 L540.120 273.450 "/>
  <g begin="text">
   <text y="110.76" x="60.6,65.928,71.256,76.585,78.808,80.585,82.809,87.252,93.905,96.128,98.352,102.347,106.79,111.232" svgx:width="0.67,0.67,0.67,0.28,0.22,0.28,0.56,0.83,0.28,0.28,0.5,0.56,0.56,0.28" style="fill:rgb(35,31,32);font-family:ArialMT;font-size:7.98px;stroke:none;">PPE item type </text>
   <text y="111.24" x="138.12,143.4666,173.52,178.8666,208.68,214.4256,244.079,249.8246,279.717,285.0636,315.357,320.2248,350.098,356.3224,383.46,389.216,393.6848,420.657,422.88,427.3488,447.177,453.829,458.268,462.707,467.147" svgx:width="0.67,0.55,0.67,0.55,0.72,0.55,0.72,0.55,0.67,0.55,0.61,0.55,0.78,0.55,0.72,0.56,0.55,0.28,0.56,0.55,0.83,0.56,0.56,0.56,0.56" style="fill:rgb(35,31,32);font-family:ArialMT;font-size:7.98px;stroke:none;">A B C D E F G H‡ I‡ Mean§</text>
   <text y="101.58" x="484.2,489.964,494.403,501.053,505.492,507.266,509.04,513.479,517.919,521.911,526.35,528.571" svgx:width="0.72,0.56,0.83,0.56,0.22,0.22,0.56,0.56,0.5,0.56,0.28,0.54" style="fill:rgb(35,31,32);font-family:ArialMT;font-size:7.98px;stroke:none;">Compliance,¶</text>
   <text y="110.757" x="505.02" svgx:width="0.89" style="fill:rgb(35,31,32);font-family:ArialMT;font-size:7.98px;stroke:none;">%</text>
   <text y="122.34" x="60.6,66.371,70.818,75.264,77.487,84.144,88.591,92.59,96.59,100.58,136.294,140.741" svgx:width="0.72,0.56,0.56,0.28,0.83,0.56,0.5,0.5,0.5,0.55,0.56,0.56" style="fill:rgb(35,31,32);font-family:ArialMT;font-size:7.98px;stroke:none;">N95 masks 20</text>
   <text y="131.517" x="133.679,136.332,140.764,145.196" svgx:width="0.33,0.56,0.56,0.33" style="fill:rgb(35,31,32);font-family:ArialMT;font-size:7.98px;stroke:none;">(22)</text>
   <text y="122.34" x="171.72,176.157" svgx:width="0.56,0.56" style="fill:rgb(35,31,32);font-family:ArialMT;font-size:7.98px;stroke:none;">11</text>
   <text y="131.517" x="169.079,171.731,176.163,180.595" svgx:width="0.33,0.56,0.56,0.33" style="fill:rgb(35,31,32);font-family:ArialMT;font-size:7.98px;stroke:none;">(16)</text>
   <text y="122.34" x="207.119,211.556" svgx:width="0.56,0.56" style="fill:rgb(35,31,32);font-family:ArialMT;font-size:7.98px;stroke:none;">18</text>
   <text y="131.517" x="204.479,207.131,211.563,215.995" svgx:width="0.33,0.56,0.56,0.33" style="fill:rgb(35,31,32);font-family:ArialMT;font-size:7.98px;stroke:none;">(18)</text>
   <text y="122.34" x="242.519,246.956" svgx:width="0.56,0.56" style="fill:rgb(35,31,32);font-family:ArialMT;font-size:7.98px;stroke:none;">20</text>
   <text y="131.517" x="239.878,242.531,246.964,251.397" svgx:width="0.33,0.56,0.56,0.33" style="fill:rgb(35,31,32);font-family:ArialMT;font-size:7.98px;stroke:none;">(22)</text>
   <text y="122.34" x="277.919,282.355" svgx:width="0.56,0.56" style="fill:rgb(35,31,32);font-family:ArialMT;font-size:7.98px;stroke:none;">16</text>
   <text y="131.517" x="275.277,277.931,282.363,286.796" svgx:width="0.33,0.56,0.56,0.33" style="fill:rgb(35,31,32);font-family:ArialMT;font-size:7.98px;stroke:none;">(17)</text>
   <text y="122.34" x="313.318,317.755" svgx:width="0.56,0.56" style="fill:rgb(35,31,32);font-family:ArialMT;font-size:7.98px;stroke:none;">23</text>
   <text y="131.517" x="310.676,313.33,317.763,322.196" svgx:width="0.33,0.56,0.56,0.33" style="fill:rgb(35,31,32);font-family:ArialMT;font-size:7.98px;stroke:none;">(23)</text>
   <text y="122.34" x="348.717,353.154" svgx:width="0.56,0.56" style="fill:rgb(35,31,32);font-family:ArialMT;font-size:7.98px;stroke:none;">18</text>
   <text y="131.517" x="346.076,348.728,353.16,357.592" svgx:width="0.33,0.56,0.56,0.33" style="fill:rgb(35,31,32);font-family:ArialMT;font-size:7.98px;stroke:none;">(18)</text>
   <text y="122.34" x="386.336" svgx:width="0.56" style="fill:rgb(35,31,32);font-family:ArialMT;font-size:7.98px;stroke:none;">6</text>
   <text y="131.517" x="383.696,386.344,390.772" svgx:width="0.33,0.56,0.33" style="fill:rgb(35,31,32);font-family:ArialMT;font-size:7.98px;stroke:none;">(8)</text>
   <text y="122.34" x="421.736" svgx:width="0.56" style="fill:rgb(35,31,32);font-family:ArialMT;font-size:7.98px;stroke:none;">8</text>
   <text y="131.517" x="416.877,419.53,423.963,428.396" svgx:width="0.33,0.56,0.56,0.33" style="fill:rgb(35,31,32);font-family:ArialMT;font-size:7.98px;stroke:none;">(11)</text>
   <text y="122.34" x="454.917,459.354" svgx:width="0.56,0.56" style="fill:rgb(35,31,32);font-family:ArialMT;font-size:7.98px;stroke:none;">18</text>
   <text y="131.517" x="448.979,451.634,456.069,460.503,462.719,467.154" svgx:width="0.33,0.56,0.56,0.28,0.56,0.33" style="fill:rgb(35,31,32);font-family:ArialMT;font-size:7.98px;stroke:none;">(19.4)</text>
   <text y="122.34" x="504.116,508.553" svgx:width="0.56,0.56" style="fill:rgb(35,31,32);font-family:ArialMT;font-size:7.98px;stroke:none;">93</text>
   <text y="142.14" x="60.597,66.807,71.308,77.005,81.442,85.434,87.657,89.89139999999999,136.316,140.754" svgx:width="0.78,0.56,0.72,0.56,0.5,0.28,0.28,0.55,0.56,0.56" style="fill:rgb(35,31,32);font-family:ArialMT;font-size:7.98px;stroke:none;">Gowns 18</text>
   <text y="151.317" x="133.676,136.329,140.762,145.195" svgx:width="0.33,0.56,0.56,0.33" style="fill:rgb(35,31,32);font-family:ArialMT;font-size:7.98px;stroke:none;">(29)</text>
   <text y="142.14" x="171.717,176.154" svgx:width="0.56,0.56" style="fill:rgb(35,31,32);font-family:ArialMT;font-size:7.98px;stroke:none;">11</text>
   <text y="151.317" x="169.075,171.728,176.16,180.592" svgx:width="0.33,0.56,0.56,0.33" style="fill:rgb(35,31,32);font-family:ArialMT;font-size:7.98px;stroke:none;">(18)</text>
   <text y="142.14" x="207.116,211.553" svgx:width="0.56,0.56" style="fill:rgb(35,31,32);font-family:ArialMT;font-size:7.98px;stroke:none;">17</text>
   <text y="151.317" x="204.475,207.128,211.56,215.992" svgx:width="0.33,0.56,0.56,0.33" style="fill:rgb(35,31,32);font-family:ArialMT;font-size:7.98px;stroke:none;">(21)</text>
   <text y="142.14" x="242.516,246.953" svgx:width="0.56,0.56" style="fill:rgb(35,31,32);font-family:ArialMT;font-size:7.98px;stroke:none;">19</text>
   <text y="151.317" x="239.875,242.527,246.959,251.391" svgx:width="0.33,0.56,0.56,0.33" style="fill:rgb(35,31,32);font-family:ArialMT;font-size:7.98px;stroke:none;">(24)</text>
   <text y="142.14" x="277.915,282.352" svgx:width="0.56,0.56" style="fill:rgb(35,31,32);font-family:ArialMT;font-size:7.98px;stroke:none;">15</text>
   <text y="151.317" x="275.274,277.927,282.36,286.793" svgx:width="0.33,0.56,0.56,0.33" style="fill:rgb(35,31,32);font-family:ArialMT;font-size:7.98px;stroke:none;">(17)</text>
   <text y="142.14" x="313.315,317.751" svgx:width="0.56,0.56" style="fill:rgb(35,31,32);font-family:ArialMT;font-size:7.98px;stroke:none;">20</text>
   <text y="151.317" x="310.673,313.327,317.759,322.192" svgx:width="0.33,0.56,0.56,0.33" style="fill:rgb(35,31,32);font-family:ArialMT;font-size:7.98px;stroke:none;">(25)</text>
   <text y="142.14" x="348.714,353.151" svgx:width="0.56,0.56" style="fill:rgb(35,31,32);font-family:ArialMT;font-size:7.98px;stroke:none;">20</text>
   <text y="151.317" x="346.072,348.725,353.157,357.589" svgx:width="0.33,0.56,0.56,0.33" style="fill:rgb(35,31,32);font-family:ArialMT;font-size:7.98px;stroke:none;">(21)</text>
   <text y="142.14" x="386.333" svgx:width="0.56" style="fill:rgb(35,31,32);font-family:ArialMT;font-size:7.98px;stroke:none;">6</text>
   <text y="151.317" x="381.473,384.127,388.56,392.992" svgx:width="0.33,0.56,0.56,0.33" style="fill:rgb(35,31,32);font-family:ArialMT;font-size:7.98px;stroke:none;">(11)</text>
   <text y="142.14" x="421.733" svgx:width="0.56" style="fill:rgb(35,31,32);font-family:ArialMT;font-size:7.98px;stroke:none;">9</text>
   <text y="151.317" x="416.873,419.527,423.96,428.393" svgx:width="0.33,0.56,0.56,0.33" style="fill:rgb(35,31,32);font-family:ArialMT;font-size:7.98px;stroke:none;">(12)</text>
   <text y="142.14" x="451.614,456.051,460.489,462.708" svgx:width="0.56,0.56,0.28,0.56" style="fill:rgb(35,31,32);font-family:ArialMT;font-size:7.98px;stroke:none;">17.1</text>
   <text y="151.317" x="448.972,451.627,456.062,460.496,462.712,467.147" svgx:width="0.33,0.56,0.56,0.28,0.56,0.33" style="fill:rgb(35,31,32);font-family:ArialMT;font-size:7.98px;stroke:none;">(22.1)</text>
   <text y="142.14" x="504.113,508.55" svgx:width="0.56,0.56" style="fill:rgb(35,31,32);font-family:ArialMT;font-size:7.98px;stroke:none;">77</text>
   <text y="161.94" x="60.594,66.808,68.586,73.03,77.026,81.469,85.45899999999999,136.289,140.733" svgx:width="0.78,0.22,0.56,0.5,0.56,0.5,0.55,0.56,0.56" style="fill:rgb(35,31,32);font-family:ArialMT;font-size:7.98px;stroke:none;">Gloves 27</text>
   <text y="171.117" x="133.675,136.329,140.761,145.194" svgx:width="0.33,0.56,0.56,0.33" style="fill:rgb(35,31,32);font-family:ArialMT;font-size:7.98px;stroke:none;">(35)</text>
   <text y="161.94" x="171.713,176.15" svgx:width="0.56,0.56" style="fill:rgb(35,31,32);font-family:ArialMT;font-size:7.98px;stroke:none;">12</text>
   <text y="171.117" x="169.072,171.725,176.157,180.589" svgx:width="0.33,0.56,0.56,0.33" style="fill:rgb(35,31,32);font-family:ArialMT;font-size:7.98px;stroke:none;">(20)</text>
   <text y="161.94" x="207.113,211.55" svgx:width="0.56,0.56" style="fill:rgb(35,31,32);font-family:ArialMT;font-size:7.98px;stroke:none;">18</text>
   <text y="171.117" x="204.472,207.125,211.557,215.989" svgx:width="0.33,0.56,0.56,0.33" style="fill:rgb(35,31,32);font-family:ArialMT;font-size:7.98px;stroke:none;">(21)</text>
   <text y="161.94" x="242.513,246.95" svgx:width="0.56,0.56" style="fill:rgb(35,31,32);font-family:ArialMT;font-size:7.98px;stroke:none;">21</text>
   <text y="171.117" x="239.871,242.524,246.956,251.388" svgx:width="0.33,0.56,0.56,0.33" style="fill:rgb(35,31,32);font-family:ArialMT;font-size:7.98px;stroke:none;">(27)</text>
   <text y="161.94" x="277.912,282.349" svgx:width="0.56,0.56" style="fill:rgb(35,31,32);font-family:ArialMT;font-size:7.98px;stroke:none;">19</text>
   <text y="171.117" x="275.271,277.924,282.357,286.79" svgx:width="0.33,0.56,0.56,0.33" style="fill:rgb(35,31,32);font-family:ArialMT;font-size:7.98px;stroke:none;">(21)</text>
   <text y="161.94" x="313.311,317.748" svgx:width="0.56,0.56" style="fill:rgb(35,31,32);font-family:ArialMT;font-size:7.98px;stroke:none;">23</text>
   <text y="171.117" x="310.67,313.323,317.756,322.189" svgx:width="0.33,0.56,0.56,0.33" style="fill:rgb(35,31,32);font-family:ArialMT;font-size:7.98px;stroke:none;">(25)</text>
   <text y="161.94" x="348.711,353.148" svgx:width="0.56,0.56" style="fill:rgb(35,31,32);font-family:ArialMT;font-size:7.98px;stroke:none;">26</text>
   <text y="171.117" x="346.069,348.722,353.154,357.586" svgx:width="0.33,0.56,0.56,0.33" style="fill:rgb(35,31,32);font-family:ArialMT;font-size:7.98px;stroke:none;">(27)</text>
   <text y="161.94" x="386.33" svgx:width="0.56" style="fill:rgb(35,31,32);font-family:ArialMT;font-size:7.98px;stroke:none;">8</text>
   <text y="171.117" x="381.47,384.123,388.556,392.989" svgx:width="0.33,0.56,0.56,0.33" style="fill:rgb(35,31,32);font-family:ArialMT;font-size:7.98px;stroke:none;">(11)</text>
   <text y="161.94" x="419.51,423.948" svgx:width="0.56,0.56" style="fill:rgb(35,31,32);font-family:ArialMT;font-size:7.98px;stroke:none;">10</text>
   <text y="171.117" x="416.869,419.522,423.955,428.388" svgx:width="0.33,0.56,0.56,0.33" style="fill:rgb(35,31,32);font-family:ArialMT;font-size:7.98px;stroke:none;">(13)</text>
   <text y="161.94" x="451.61,456.047,460.485,462.704" svgx:width="0.56,0.56,0.28,0.56" style="fill:rgb(35,31,32);font-family:ArialMT;font-size:7.98px;stroke:none;">20.9</text>
   <text y="171.117" x="448.968,451.623,456.058,460.492,462.708,467.143" svgx:width="0.33,0.56,0.56,0.28,0.56,0.33" style="fill:rgb(35,31,32);font-family:ArialMT;font-size:7.98px;stroke:none;">(25.1)</text>
   <text y="161.94" x="504.109,508.546" svgx:width="0.56,0.56" style="fill:rgb(35,31,32);font-family:ArialMT;font-size:7.98px;stroke:none;">83</text>
   <text y="181.74" x="60.59,65.989,69.888,74.329,76.552,80.993,83.654,88.151,90.376,94.817,98.811,101.033,102.809,107.249,111.69,113.913,116.14739999999999,138.517" svgx:width="0.67,0.5,0.56,0.28,0.56,0.33,0.56,0.28,0.56,0.5,0.28,0.22,0.56,0.56,0.28,0.28,0.55,0.56" style="fill:rgb(35,31,32);font-family:ArialMT;font-size:7.98px;stroke:none;">Eye protection 4</text>
   <text y="190.917" x="133.667,136.32,140.752,145.184" svgx:width="0.33,0.56,0.56,0.33" style="fill:rgb(35,31,32);font-family:ArialMT;font-size:7.98px;stroke:none;">(20)</text>
   <text y="181.74" x="173.929" svgx:width="0.56" style="fill:rgb(35,31,32);font-family:ArialMT;font-size:7.98px;stroke:none;">4</text>
   <text y="190.917" x="169.07,171.723,176.156,180.589" svgx:width="0.33,0.56,0.56,0.33" style="fill:rgb(35,31,32);font-family:ArialMT;font-size:7.98px;stroke:none;">(13)</text>
   <text y="181.74" x="207.109,211.546" svgx:width="0.56,0.56" style="fill:rgb(35,31,32);font-family:ArialMT;font-size:7.98px;stroke:none;">14</text>
   <text y="190.917" x="204.469,207.121,211.554,215.986" svgx:width="0.33,0.56,0.56,0.33" style="fill:rgb(35,31,32);font-family:ArialMT;font-size:7.98px;stroke:none;">(16)</text>
   <text y="181.74" x="242.51,246.946" svgx:width="0.56,0.56" style="fill:rgb(35,31,32);font-family:ArialMT;font-size:7.98px;stroke:none;">18</text>
   <text y="190.917" x="239.868,242.521,246.953,251.385" svgx:width="0.33,0.56,0.56,0.33" style="fill:rgb(35,31,32);font-family:ArialMT;font-size:7.98px;stroke:none;">(21)</text>
   <text y="181.74" x="277.909,282.346" svgx:width="0.56,0.56" style="fill:rgb(35,31,32);font-family:ArialMT;font-size:7.98px;stroke:none;">14</text>
   <text y="190.917" x="275.267,277.921,282.354,286.787" svgx:width="0.33,0.56,0.56,0.33" style="fill:rgb(35,31,32);font-family:ArialMT;font-size:7.98px;stroke:none;">(16)</text>
   <text y="181.74" x="313.308,317.745" svgx:width="0.56,0.56" style="fill:rgb(35,31,32);font-family:ArialMT;font-size:7.98px;stroke:none;">21</text>
   <text y="190.917" x="310.667,313.32,317.753,322.186" svgx:width="0.33,0.56,0.56,0.33" style="fill:rgb(35,31,32);font-family:ArialMT;font-size:7.98px;stroke:none;">(22)</text>
   <text y="181.74" x="348.707,353.144" svgx:width="0.56,0.56" style="fill:rgb(35,31,32);font-family:ArialMT;font-size:7.98px;stroke:none;">17</text>
   <text y="190.917" x="346.066,348.719,353.151,357.583" svgx:width="0.33,0.56,0.56,0.33" style="fill:rgb(35,31,32);font-family:ArialMT;font-size:7.98px;stroke:none;">(17)</text>
   <text y="181.74" x="386.327" svgx:width="0.56" style="fill:rgb(35,31,32);font-family:ArialMT;font-size:7.98px;stroke:none;">3</text>
   <text y="190.917" x="383.686,386.33,390.753" svgx:width="0.33,0.56,0.33" style="fill:rgb(35,31,32);font-family:ArialMT;font-size:7.98px;stroke:none;">(7)</text>
   <text y="181.74" x="421.727" svgx:width="0.56" style="fill:rgb(35,31,32);font-family:ArialMT;font-size:7.98px;stroke:none;">4</text>
   <text y="190.917" x="419.085,421.729,426.152" svgx:width="0.33,0.56,0.33" style="fill:rgb(35,31,32);font-family:ArialMT;font-size:7.98px;stroke:none;">(7)</text>
   <text y="181.74" x="451.606,456.044,460.482,462.701" svgx:width="0.56,0.56,0.28,0.56" style="fill:rgb(35,31,32);font-family:ArialMT;font-size:7.98px;stroke:none;">13.1</text>
   <text y="190.917" x="448.965,451.617,456.048,460.479,462.692,467.123" svgx:width="0.33,0.56,0.56,0.28,0.56,0.33" style="fill:rgb(35,31,32);font-family:ArialMT;font-size:7.98px;stroke:none;">(17.9)</text>
   <text y="181.74" x="504.107,508.544" svgx:width="0.56,0.56" style="fill:rgb(35,31,32);font-family:ArialMT;font-size:7.98px;stroke:none;">73</text>
   <text y="201.54" x="60.586,65.913,70.354,74.795" svgx:width="0.67,0.56,0.56,0.56" style="fill:rgb(35,31,32);font-family:ArialMT;font-size:7.98px;stroke:none;">Shoe</text>
   <text y="210.717" x="60.586,65.027,67.688,72.129,74.352,78.793,82.787,85.009,86.785,91.225,95.666" svgx:width="0.56,0.33,0.56,0.28,0.56,0.5,0.28,0.22,0.56,0.56,0.56" style="fill:rgb(35,31,32);font-family:ArialMT;font-size:7.98px;stroke:none;">protection#</text>
   <text y="201.54" x="138.526,142.9948,173.925,178.3938,209.323,213.7918,244.722,249.1908,280.12,284.5888,315.519,319.9878,350.917,355.38579999999996,386.315,390.7838,421.714,426.1828,453.813,458.25,460.473" svgx:width="0.56,0.55,0.56,0.55,0.56,0.55,0.56,0.55,0.56,0.55,0.56,0.55,0.56,0.55,0.56,0.55,0.56,0.55,0.56,0.28,0.56" style="fill:rgb(35,31,32);font-family:ArialMT;font-size:7.98px;stroke:none;">– 4 2 – 9 – – – 1 2.1</text>
   <text y="221.34" x="60.586,66.354,70.797,73.025,77.023,81.4918,138.523,142.99179999999998,173.921,178.38979999999998,207.1,211.537,216.0058,244.717,249.1858,277.895,282.332,286.8008,315.512,319.9808,350.911,355.3798,386.309,390.7778,421.708,426.1768,457.106" svgx:width="0.72,0.56,0.28,0.5,0.56,0.55,0.56,0.55,0.56,0.55,0.56,0.56,0.55,0.56,0.55,0.56,0.56,0.55,0.56,0.55,0.56,0.55,0.56,0.55,0.56,0.55,0.56" style="fill:rgb(35,31,32);font-family:ArialMT;font-size:7.98px;stroke:none;">Hats# – 1 13 – 14 – – – 5 4</text>
   <text y="230.82" x="60.6,63.331,68.015,72.698,77.317,79.27,81.252,85.092,88.987,91.326,94.837,98.74,102.644,106.548,108.107,110.026,113.93,116.269,120.108,122.09,125.993,129.504,131.456,133.016,136.435,140.33,142.312,146.216,150.12,154.024,155.583,159.487,165.335,169.239,173.078,175.03,176.982,178.902,183.971,189.04,195.704,199.214,201.166,203.149,207.053,210.892,214.796,216.355,218.307,222.146,225.657,229.561,231.899,235.738,237.657,242.633,246.53,248.868,252.379,256.282,258.621,262.132" svgx:width="0.39,0.67,0.67,0.67,0.28,0.28,0.56,0.56,0.33,0.5,0.56,0.56,0.56,0.22,0.28,0.56,0.33,0.56,0.28,0.56,0.5,0.28,0.22,0.5,0.56,0.28,0.56,0.56,0.56,0.22,0.56,0.83,0.56,0.56,0.28,0.28,0.28,0.72,0.72,0.94,0.5,0.28,0.28,0.56,0.56,0.56,0.22,0.28,0.56,0.5,0.56,0.33,0.56,0.28,0.72,0.56,0.33,0.5,0.56,0.33,0.5,0.28" style="fill:rgb(35,31,32);font-family:ArialMT;font-size:7.02px;stroke:none;">*PPE, personal protective equipment; HCWs, healthcare workers </text>
   <text y="238.92" x="60.6,64.506,69.191,73.097,77.003,78.985,83.277,87.183,91.089,92.65,96.485,98.467,102.302,104.283,106.238,110.144,112.422,114.403,118.238,122.137,124.091,125.652,129.558,131.056,133.011,134.572,138.478,142.313,145.826,147.78" svgx:width="0.56,0.67,0.56,0.56,0.28,0.61,0.56,0.56,0.22,0.56,0.28,0.56,0.28,0.28,0.56,0.33,0.28,0.56,0.56,0.28,0.22,0.56,0.22,0.28,0.22,0.56,0.56,0.5,0.28,0.28" style="fill:rgb(35,31,32);font-family:ArialMT;font-size:7.02px;stroke:none;">†See Table 1 for definitions. </text>
   <text y="246.96" x="60.6,64.509,66.466,70.375,73.89,77.799,83.652,87.561,89.125,93.034,94.991,98.826,100.808,104.717,108.552,110.509,114.344,116.327,120.162,123.703,125.686,129.595,133.43,136.945,140.854,142.351,144.335,148.244,149.741,153.257,155.239,160.219,162.201,166.11,170.019,173.854,175.836,177.793,179.713,181.67,185.578,187.922,193.775,195.339,199.248,203.083,205.04,208.949,212.857,214.777,218.292,219.856,225.71,229.618,231.182,235.017,236.975,238.472,242.381,246.289,248.272,252.107,254.064,256.021,259.93,262.207,264.19,268.025,270.009,273.918,275.837,279.746,281.703" svgx:width="0.56,0.28,0.56,0.5,0.56,0.83,0.56,0.22,0.56,0.28,0.56,0.28,0.56,0.56,0.28,0.56,0.28,0.56,0.5,0.28,0.56,0.56,0.5,0.56,0.22,0.28,0.56,0.22,0.5,0.28,0.72,0.28,0.56,0.56,0.56,0.28,0.28,0.28,0.28,0.56,0.33,0.83,0.22,0.56,0.56,0.28,0.56,0.56,0.28,0.5,0.22,0.83,0.56,0.22,0.56,0.28,0.22,0.56,0.56,0.28,0.56,0.28,0.28,0.56,0.33,0.28,0.56,0.28,0.56,0.28,0.56,0.28,0.28" style="fill:rgb(35,31,32);font-family:ArialMT;font-size:7.02px;stroke:none;">‡Incomplete data as hospitals H and I terminated simulation after 2.5 h. </text>
   <text y="255.0" x="60.6,64.512,69.202,72.62,76.156,77.723,81.635,85.546,89.458,92.976,94.959,98.796,102.696,104.656,108.493,110.476,112.436,114.782,118.619,124.437,126.42,130.331,134.243,137.761,141.598,143.154,145.114,149.025,150.525,154.006,155.988,161.065,163.048,166.959,170.871,174.708,176.69,178.65,180.61" svgx:width="0.56,0.67,0.5,0.5,0.22,0.56,0.56,0.56,0.5,0.28,0.56,0.56,0.28,0.56,0.28,0.28,0.33,0.56,0.83,0.28,0.56,0.56,0.5,0.56,0.22,0.28,0.56,0.22,0.5,0.28,0.72,0.28,0.56,0.56,0.56,0.28,0.28,0.28,0.28" style="fill:rgb(35,31,32);font-family:ArialMT;font-size:7.02px;stroke:none;">§Excludes data from hospitals H and I. </text>
   <text y="263.04" x="60.6,64.377,69.068,72.585,74.545,78.455,82.366,83.865,85.824,87.784,91.62,93.579,97.49,98.989,100.971,104.882,108.793,112.704,116.615,118.894,120.853,124.764,128.675,130.241,132.201,133.767,137.603,141.121,143.04,144.999,148.91,151.19,153.172,157.862,162.552,167.169,169.152,170.65,172.629,176.466,182.283,184.266,188.177,191.694,195.531,197.509" svgx:width="0.54,0.67,0.5,0.28,0.56,0.56,0.22,0.28,0.28,0.56,0.28,0.56,0.22,0.28,0.56,0.56,0.56,0.56,0.33,0.28,0.56,0.56,0.22,0.28,0.22,0.56,0.5,0.28,0.28,0.56,0.33,0.28,0.67,0.67,0.67,0.28,0.22,0.28,0.56,0.83,0.28,0.56,0.5,0.56,0.28,0.28" style="fill:rgb(35,31,32);font-family:ArialMT;font-size:7.02px;stroke:none;">¶Actual/total opportunities for PPE item use. </text>
   <text y="271.08" x="60.6,64.511,69.587,73.105,77.016,78.998,82.833,84.754,86.737,90.255,94.165,98.0,101.899,103.882,107.793,110.071,113.981,115.941,119.776,123.317,125.277,126.843,130.678,134.577,136.559,140.47,144.305,148.216,150.198,154.109,157.945,159.904,163.422,165.404,169.315,173.15,175.11,177.092,180.928,183.269,187.18,190.697,194.215,196.561,198.127,202.038,205.948,209.783,211.766,215.677,219.099,221.081,223.041,226.952,230.787,232.707,239.341,243.252,245.597,247.164,251.074,253.057,258.133,262.044,265.955,267.456,269.415,273.326,275.246,280.715,283.06,286.971,290.882,294.793,296.294,299.811,303.722,305.681,307.248,311.158,314.998,316.98,318.939,322.85,325.132,327.114,329.46,333.37,337.209,339.189,340.755,344.666,348.506,350.488,354.327,357.809,361.72,363.679,365.662,369.5,373.396,375.355,379.193,381.176,383.521,387.361,390.879,394.79,397.135,401.046,404.957,408.795,410.778,414.689,418.527,420.093,423.512,425.495,427.061,429.02,431.002,432.962,436.873,440.711,444.249,448.088,450.07,451.319,453.272,457.177,463.026,466.537,468.519,473.494,477.395,479.734,483.639,485.62,489.458,492.995,496.899,500.804,502.757" svgx:width="0.56,0.72,0.5,0.56,0.28,0.56,0.28,0.28,0.5,0.56,0.56,0.56,0.28,0.56,0.33,0.56,0.28,0.56,0.5,0.28,0.22,0.56,0.56,0.28,0.56,0.56,0.56,0.28,0.56,0.56,0.28,0.5,0.28,0.56,0.56,0.28,0.28,0.56,0.33,0.56,0.5,0.5,0.33,0.22,0.56,0.56,0.56,0.28,0.56,0.5,0.28,0.28,0.56,0.56,0.28,0.94,0.56,0.33,0.22,0.56,0.28,0.72,0.56,0.56,0.22,0.28,0.56,0.28,0.78,0.33,0.56,0.56,0.56,0.22,0.5,0.56,0.28,0.22,0.56,0.56,0.28,0.28,0.56,0.33,0.28,0.33,0.56,0.56,0.28,0.22,0.56,0.56,0.28,0.56,0.5,0.56,0.28,0.28,0.56,0.56,0.28,0.56,0.28,0.33,0.56,0.5,0.56,0.33,0.56,0.56,0.56,0.28,0.56,0.56,0.22,0.5,0.28,0.22,0.28,0.28,0.28,0.56,0.56,0.5,0.56,0.28,0.22,0.28,0.56,0.83,0.5,0.28,0.72,0.56,0.33,0.56,0.28,0.56,0.5,0.56,0.56,0.28,0.28" style="fill:rgb(35,31,32);font-family:ArialMT;font-size:7.02px;stroke:none;">#Use of shoe protection and hats not proscribed by the World Health Organization for routine use; data recorded only if these items were used. </text>
  </g>
 </g>
</svg>
