<?xml version="1.0" encoding="UTF-8"?>
<svg height="741.34" width="548.58" xmlns="http://www.w3.org/2000/svg">
 <g>
  <path style="fill:rgb(19,20,19);stroke:none;stroke-width:1.0;" d="M60.720 370.490 L534.560 370.490 L534.560 370.770 L60.720 370.770 "/>
  <path style="fill:rgb(19,20,19);stroke:none;stroke-width:0.25;" d="M534.560 370.490 L535.290 370.550 C536.780 370.770 538.330 372.220 538.530 373.780 L538.580 374.510 L538.350 374.510 L538.300 373.830 C538.010 372.330 536.780 371.020 535.240 370.830 L534.560 370.770 "/>
  <path style="fill:rgb(19,20,19);stroke:none;stroke-width:0.25;" d="M538.580 374.510 L538.580 727.310 L538.360 727.310 L538.360 374.510 "/>
  <path style="fill:rgb(19,20,19);stroke:none;stroke-width:0.25;" d="M538.580 727.310 L538.530 728.050 C538.330 729.610 536.780 731.050 535.290 731.280 L534.560 731.340 L534.560 731.050 L535.240 731.000 C536.790 730.800 538.010 729.490 538.300 727.990 L538.360 727.310 "/>
  <path style="fill:rgb(19,20,19);stroke:none;stroke-width:0.25;" d="M534.560 731.340 L60.720 731.340 L60.720 731.050 L534.560 731.050 "/>
  <path style="fill:rgb(19,20,19);stroke:none;stroke-width:0.25;" d="M60.720 731.340 L59.980 731.280 C58.490 731.050 56.950 729.610 56.750 728.050 L56.690 727.310 L56.920 727.310 L56.980 727.990 C57.270 729.490 58.490 730.800 60.040 731.000 L60.720 731.050 "/>
  <path style="fill:rgb(19,20,19);stroke:none;stroke-width:0.25;" d="M56.690 727.310 L56.690 374.510 L56.920 374.510 L56.920 727.310 "/>
  <path style="fill:rgb(19,20,19);stroke:none;stroke-width:0.25;" d="M56.690 374.510 L56.750 373.780 C56.950 372.220 58.490 370.770 59.980 370.540 L60.720 370.490 L60.720 370.770 L60.040 370.830 C58.490 371.020 57.270 372.330 56.980 373.830 L56.920 374.510 "/>
 </g>
</svg>
