<?xml version="1.0" encoding="UTF-8"?>
<svg height="593.02" width="348.34" xmlns="http://www.w3.org/2000/svg">
 <g>
  <path style="fill:rgb(0,0,0);stroke:none;stroke-width:1.0;" d="M131.520 568.620 L131.520 362.160 L131.640 361.860 L131.880 361.800 L132.180 361.860 L132.300 362.160 L132.300 568.620 L132.180 568.920 L131.880 569.040 L131.640 568.920 L131.520 568.620 ZM128.880 363.120 L131.880 357.120 L134.880 363.120 "/>
  <path style="fill:rgb(0,0,0);stroke:none;stroke-width:1.0;" d="M131.880 568.260 L333.360 568.260 L333.600 568.380 L333.720 568.620 L333.600 568.920 L333.360 569.040 L131.880 569.040 L131.640 568.920 L131.520 568.620 L131.640 568.380 L131.880 568.260 ZM332.340 565.620 L338.340 568.620 L332.340 571.620 "/>
  <path style="fill:none;stroke:rgb(0,0,0);stroke-width:1.0;" d="M131.880 399.420 L166.320 399.420 L280.980 540.420 L315.420 540.420 "/>
  <path style="fill:none;stroke:rgb(0,0,0);stroke-width:0.75;" d="M166.320 371.220 L166.320 582.720 M280.980 484.320 L280.980 583.020 "/>
  <path style="fill:none;stroke:rgb(0,0,0);stroke-width:0.75;" d="M212.220 357.120 L166.320 399.480 "/>
  <path style="fill:none;stroke:rgb(0,0,0);stroke-width:0.75;" d="M327.000 469.560 L281.100 540.060 "/>
  <path style="fill:none;stroke:rgb(0,0,0);stroke-width:0.75;" d="M315.660 539.820 L334.080 515.280 "/>
  <path style="fill:rgb(0,0,0);stroke:none;stroke-width:0.75;" d="M198.420 427.500 L156.480 403.440 L156.300 403.260 L156.300 402.960 L156.540 402.780 L156.840 402.780 L198.780 426.840 L198.960 427.080 L198.900 427.320 L198.720 427.500 L198.420 427.500 ZM156.000 406.260 L152.280 400.620 L159.000 401.040 "/>
  <path style="fill:rgb(0,0,0);stroke:none;stroke-width:0.75;" d="M336.240 560.460 L306.240 543.720 L306.060 543.480 L306.060 543.180 L306.300 543.000 L306.600 543.060 L336.660 559.800 L336.840 560.040 L336.780 560.340 L336.540 560.520 L336.240 560.460 ZM305.820 546.480 L302.040 540.960 L308.760 541.260 "/>
  <path style="fill:none;stroke:rgb(0,0,0);stroke-width:0.75;" d="M131.820 399.060 L162.120 350.940 "/>
 </g>
</svg>
