<?xml version="1.0" encoding="UTF-8"?>
<svg height="446.75" width="563.68" xmlns="http://www.w3.org/2000/svg">
 <g>
  <path style="fill:rgb(255,255,255);stroke:none;stroke-width:1.0;" d="M316.140 430.330 L553.680 430.330 L553.680 436.750 L316.140 436.750 "/>
  <path style="fill:rgb(35,31,32);stroke:none;stroke-width:1.0;" d="M349.900 112.110 M472.170 119.840 L472.170 131.840 C472.170 132.700 472.680 133.130 473.700 133.130 L474.500 133.130 L474.500 133.610 L468.620 133.610 L468.620 133.130 L469.350 133.130 C470.370 133.130 470.880 132.700 470.880 131.840 L470.880 122.340 C470.880 121.850 470.610 121.610 470.070 121.610 L468.620 121.610 L468.620 121.130 L469.350 121.130 C470.580 121.130 471.420 120.700 471.850 119.840 L472.170 119.840 "/>
  <path style="fill:rgb(35,31,32);stroke:none;stroke-width:1.0;" d="M403.660 143.870 C403.660 142.800 403.390 142.020 402.850 141.530 C402.420 141.100 401.830 140.890 401.080 140.890 C400.330 140.890 399.710 141.100 399.230 141.530 C398.910 141.860 398.740 142.260 398.740 142.740 C398.740 143.070 398.850 143.330 399.070 143.550 C399.230 143.710 399.310 143.920 399.310 144.190 C399.310 144.730 399.040 145.000 398.500 145.000 C398.180 145.000 397.940 144.920 397.780 144.760 C397.560 144.540 397.460 144.220 397.460 143.790 C397.460 142.820 397.750 142.040 398.340 141.450 C399.150 140.700 400.110 140.330 401.240 140.330 C402.480 140.330 403.420 140.650 404.060 141.290 C404.710 141.940 405.030 142.740 405.030 143.710 C405.030 144.950 404.410 146.150 403.180 147.340 C400.060 150.340 398.370 152.200 398.100 152.890 L402.850 152.890 C403.820 152.890 404.440 152.140 404.710 150.640 L405.190 150.640 L404.710 154.100 L397.210 154.100 L397.210 153.050 C397.700 152.030 398.960 150.530 401.000 148.540 C402.770 146.830 403.660 145.270 403.660 143.870 "/>
  <path style="fill:rgb(35,31,32);stroke:none;stroke-width:1.0;" d="M430.250 176.820 C431.010 177.570 431.380 178.400 431.380 179.310 C431.380 180.390 430.980 181.300 430.170 182.050 C429.420 182.800 428.400 183.180 427.110 183.180 C425.980 183.180 425.100 182.890 424.450 182.290 C423.860 181.760 423.570 181.170 423.570 180.520 C423.570 180.150 423.670 179.850 423.890 179.640 C424.100 179.420 424.320 179.310 424.540 179.310 C424.750 179.310 424.940 179.390 425.100 179.550 C425.310 179.770 425.420 180.010 425.420 180.280 C425.420 180.440 425.390 180.600 425.340 180.760 C425.180 180.980 425.100 181.220 425.100 181.490 C425.100 181.700 425.200 181.920 425.420 182.130 C425.800 182.450 426.330 182.620 427.030 182.620 C427.890 182.620 428.560 182.370 429.050 181.890 C429.640 181.350 429.930 180.440 429.930 179.150 C429.930 178.180 429.660 177.430 429.130 176.900 C428.590 176.360 427.650 176.090 426.310 176.090 L426.310 175.530 C428.400 175.530 429.450 174.610 429.450 172.790 C429.450 171.870 429.210 171.150 428.720 170.610 C428.290 170.180 427.700 169.970 426.950 169.970 C426.360 169.970 425.820 170.180 425.340 170.610 C425.180 170.770 425.100 170.960 425.100 171.180 C425.100 171.500 425.150 171.710 425.260 171.820 C425.370 171.980 425.420 172.170 425.420 172.380 C425.420 172.980 425.180 173.270 424.700 173.270 C424.480 173.270 424.290 173.190 424.130 173.030 C423.920 172.820 423.810 172.520 423.810 172.140 C423.810 171.450 424.050 170.850 424.540 170.370 C425.230 169.730 426.140 169.400 427.270 169.400 C428.350 169.400 429.210 169.730 429.850 170.370 C430.500 171.020 430.820 171.740 430.820 172.540 C430.820 174.100 429.980 175.180 428.320 175.770 C429.180 176.040 429.820 176.390 430.250 176.820 "/>
  <path style="fill:rgb(35,31,32);stroke:none;stroke-width:1.0;" d="M407.020 198.710 L402.430 205.960 L407.100 205.960 L407.100 198.710 L407.020 198.710 ZM408.390 208.940 C408.390 209.640 408.790 209.990 409.600 209.990 L410.320 209.990 L410.320 210.470 L405.010 210.470 L405.010 209.990 L405.890 209.990 C406.700 209.990 407.100 209.640 407.100 208.940 L407.100 206.450 L401.700 206.450 L401.700 206.040 L407.580 196.700 L408.390 196.700 L408.390 205.960 L410.570 205.960 L410.570 206.450 L408.390 206.450 L408.390 208.940 "/>
  <path style="fill:rgb(35,31,32);stroke:none;stroke-width:1.0;" d="M425.030 267.560 C425.840 267.560 426.560 267.880 427.210 268.530 C428.060 269.390 428.490 270.490 428.490 271.830 C428.490 273.170 428.040 274.270 427.130 275.130 C426.370 275.890 425.380 276.260 424.150 276.260 C423.120 276.260 422.290 275.970 421.650 275.380 C421.000 274.780 420.680 274.110 420.680 273.360 C420.680 272.990 420.790 272.690 421.000 272.470 C421.220 272.260 421.460 272.150 421.730 272.150 C421.940 272.150 422.130 272.230 422.290 272.390 C422.450 272.550 422.530 272.770 422.530 273.040 C422.530 273.360 422.450 273.600 422.290 273.760 C422.130 273.980 422.050 274.190 422.050 274.410 C422.050 274.680 422.180 274.950 422.450 275.210 C422.830 275.540 423.420 275.700 424.230 275.700 C425.030 275.700 425.680 275.460 426.160 274.970 C426.800 274.380 427.130 273.390 427.130 271.990 C427.130 270.650 426.800 269.660 426.160 269.010 C425.730 268.580 425.220 268.370 424.630 268.370 C423.710 268.370 422.830 268.960 421.970 270.140 L421.240 270.060 L421.650 262.490 L428.250 262.490 L428.010 263.690 L422.210 263.690 L421.890 269.250 C422.910 268.130 423.960 267.560 425.030 267.560 "/>
  <path style="fill:rgb(35,31,32);stroke:none;stroke-width:1.0;" d="M446.650 317.470 C446.650 319.400 447.080 320.690 447.940 321.330 C448.420 321.710 449.010 321.900 449.710 321.900 C450.300 321.900 450.780 321.710 451.160 321.330 C451.750 320.800 452.050 319.590 452.050 317.710 C452.050 316.530 451.780 315.670 451.240 315.130 C450.810 314.700 450.330 314.480 449.790 314.480 C448.550 314.480 447.510 315.480 446.650 317.470 ZM450.030 313.680 C450.840 313.680 451.530 313.970 452.130 314.560 C452.990 315.370 453.420 316.420 453.420 317.710 C453.420 319.370 452.990 320.610 452.130 321.410 C451.430 322.110 450.600 322.460 449.630 322.460 C448.450 322.460 447.510 322.110 446.810 321.410 C445.680 320.340 445.120 318.590 445.120 316.180 C445.120 313.060 445.840 310.910 447.290 309.730 C448.150 309.030 449.170 308.680 450.350 308.680 C451.050 308.680 451.640 308.900 452.130 309.330 C452.500 309.700 452.690 310.080 452.690 310.460 C452.690 311.100 452.400 311.420 451.800 311.420 C451.270 311.420 451.000 311.150 451.000 310.620 C451.000 310.400 451.030 310.190 451.080 309.970 C451.080 309.700 451.030 309.540 450.920 309.490 C450.760 309.330 450.490 309.250 450.110 309.250 C449.360 309.250 448.690 309.490 448.100 309.970 C447.130 310.730 446.650 312.820 446.650 316.260 C447.560 314.540 448.690 313.680 450.030 313.680 "/>
  <path style="fill:rgb(35,31,32);stroke:none;stroke-width:1.0;" d="M452.640 335.990 C451.080 338.460 450.000 340.720 449.410 342.760 C449.090 343.830 448.930 344.820 448.930 345.740 C448.930 346.170 448.960 346.950 449.010 348.070 C449.010 348.510 448.930 348.800 448.770 348.960 C448.610 349.120 448.390 349.200 448.130 349.200 C447.850 349.200 447.610 349.100 447.400 348.880 C447.240 348.720 447.160 348.400 447.160 347.910 C447.160 346.620 447.560 344.910 448.370 342.760 C448.800 341.680 449.840 339.640 451.510 336.630 L447.480 336.630 C446.300 336.630 445.570 337.390 445.310 338.890 L444.820 338.810 L445.390 335.430 L452.640 335.430 L452.640 335.990 "/>
 </g>
</svg>
