<?xml version="1.0" encoding="UTF-8"?>
<svg height="777.516" width="528.74" xmlns="http://www.w3.org/2000/svg">
 <g id="page" xmlns:svgx="http://www.xml-cml.org/schema/svgx">
  <g begin="text">
   <text y="62.979" x="76.535,79.189,83.62,86.274,88.26650000000001,90.738,93.392,95.3845,97.377,102.247,106.678,110.663,112.879,115.836,119.374,123.806,125.7985,128.269,133.585,136.685,139.786,141.7785,144.249,149.119,153.55,157.24,159.456,161.672,164.9397,166.908,173.109,176.209,179.748,181.964,184.618" svgx:width="0.33,0.56,0.33,0.25,0.55,0.33,0.25,0.55,0.61,0.56,0.5,0.28,0.39,0.44,0.56,0.25,0.55,0.67,0.39,0.39,0.25,0.55,0.61,0.56,0.46,0.28,0.28,0.41,0.55,0.78,0.39,0.44,0.28,0.33,0.5" style="fill:rgb(0,0,0);font-family:URWPalladioL-Ital;font-size:7.97px;stroke:none;">Int. J. Environ. Res. Public Health</text>
   <text y="62.979" x="190.594,194.579,198.564,202.549" svgx:width="0.5,0.5,0.5,0.5" style="fill:rgb(0,0,0);font-family:URWPalladioL-Bold;font-size:7.97px;stroke:none;">2018</text>
   <text y="62.979" x="206.534" svgx:width="0.25" style="fill:rgb(0,0,0);font-family:URWPalladioL-Roma;font-size:7.97px;stroke:none;">,</text>
   <text y="62.979" x="210.52,214.505" svgx:width="0.5,0.5" style="fill:rgb(0,0,0);font-family:URWPalladioL-Ital;font-size:7.97px;stroke:none;">15</text>
   <text y="62.979" x="218.49,220.48250000000002,222.475,226.46,230.445,234.43,238.41500000000002,495.794,499.779,501.771,506.123,508.7531,510.769,514.755" svgx:width="0.25,0.55,0.5,0.5,0.5,0.5,0.55,0.5,0.55,0.55,0.33,0.55,0.5,0.5" style="fill:rgb(0,0,0);font-family:URWPalladioL-Roma;font-size:7.97px;stroke:none;">, 2860 6 of 10</text>
   <text y="96.861" x="97.499,102.484,106.968,112.446,115.432,119.917,122.157,126.64" svgx:width="0.67,0.5,0.61,0.33,0.5,0.55,0.5,0.25" style="fill:rgb(0,0,0);font-family:URWPalladioL-Bold;font-size:8.97px;stroke:none;">Table 3.</text>
   <text y="96.861" x="131.672,138.619,141.231,144.058,147.047,151.346,154.73,159.029,164.253,168.238,172.537,176.30440000000002,178.586,181.198,186.4006,188.666,193.889,198.188,203.583,208.806,212.19,217.091,220.016,222.628,226.57479999999998,228.857,232.663,237.653,242.877,248.361,251.744,256.645,264.57,268.8756,271.113,273.725,278.949,282.934,285.546,291.03,295.329,300.552,304.538,308.837,312.6044,314.886,319.374,324.597,330.0687,332.325,336.813,340.618,344.424,349.325,353.31,355.921,360.409,363.335,367.634,373.1057,375.362,382.83,388.825,392.5924,394.874,397.486,402.6886,404.954,410.348,414.836,418.381,421.307,423.919,427.904,430.516,435.91,440.398,445.621,448.547,452.31440000000003,454.597,458.896,463.527,468.921,473.822,477.627,481.927,487.3987,489.654,492.58" svgx:width="0.77,0.29,0.33,0.33,0.48,0.4,0.48,0.58,0.44,0.48,0.42,0.55,0.29,0.58,0.55,0.58,0.48,0.6,0.58,0.4,0.55,0.33,0.29,0.44,0.55,0.42,0.56,0.58,0.61,0.4,0.55,0.88,0.48,0.55,0.29,0.58,0.44,0.29,0.61,0.48,0.58,0.44,0.48,0.42,0.55,0.5,0.58,0.61,0.55,0.5,0.42,0.42,0.55,0.44,0.29,0.5,0.33,0.48,0.61,0.55,0.83,0.67,0.42,0.55,0.29,0.58,0.55,0.6,0.5,0.4,0.33,0.29,0.44,0.29,0.6,0.5,0.58,0.33,0.42,0.55,0.48,0.52,0.6,0.55,0.42,0.48,0.61,0.55,0.33,0.55" style="fill:rgb(0,0,0);font-family:URWPalladioL-Roma;font-size:8.97px;stroke:none;">Differences in nephrotic syndrome incidences and associated HRs in participants exposed to</text>
   <text y="109.683" x="97.544,102.61,107.093,110.635,113.244,118.14,123.547,127.31439999999999,129.59,135.068,139.552,142.161,144.77,149.7932,151.997,156.48,161.546,165.841,169.383,173.866,178.851,183.1566,185.388,189.369,194.265,199.483,203.464,207.759,212.977,215.9,219.442,223.925,226.848,229.458,234.353,239.572,243.3394,245.615,250.511,253.4711,255.738,260.221,262.831,266.41900000000004,268.614,274.003,278.898,281.508,284.117,289.524,292.447,296.93,302.148,305.071,308.873" svgx:width="0.56,0.5,0.4,0.29,0.55,0.6,0.42,0.55,0.61,0.5,0.29,0.29,0.56,0.55,0.5,0.56,0.48,0.4,0.5,0.56,0.48,0.55,0.44,0.55,0.58,0.44,0.48,0.58,0.33,0.4,0.5,0.33,0.29,0.55,0.58,0.42,0.55,0.55,0.33,0.55,0.5,0.29,0.4,0.55,0.6,0.55,0.29,0.29,0.6,0.33,0.5,0.58,0.33,0.42,0.25" style="fill:rgb(0,0,0);font-family:URWPalladioL-Roma;font-size:8.97px;stroke:none;">various daily average concentrations of air pollutants.</text>
  </g>
  <path style="fill:none;stroke:rgb(0,0,0);stroke-width:1.0;" d="M87.310 119.860 L507.970 119.860 "/>
  <g begin="text">
   <text y="129.636" x="95.7,100.63,105.117,107.804,110.491,115.422,118.109,122.144,127.075,129.7381,131.779,136.71,140.745,145.232,149.267,151.954,155.50480000000002,176.195,182.8931,203.528,208.458,212.945,216.98,221.911,224.5741,249.88,254.811,260.2179,289.914,293.054,298.8644,322.452,326.035,332.757,338.5674,372.355,376.39,380.425,387.599,393.425,396.5723,426.866,430.901,437.623,443.4334,467.28,471.315,475.349,482.524,488.35" svgx:width="0.61,0.56,0.33,0.33,0.61,0.33,0.5,0.61,0.33,0.55,0.61,0.5,0.56,0.5,0.33,0.44,0.55,0.83,0.55,0.61,0.56,0.5,0.61,0.33,0.55,0.61,0.67,0.55,0.39,0.72,0.55,0.44,0.83,0.72,0.55,0.5,0.5,0.89,0.72,0.39,0.55,0.5,0.83,0.72,0.55,0.5,0.5,0.89,0.72,0.39" style="fill:rgb(0,0,0);font-family:URWPalladioL-Bold;font-size:8.07px;stroke:none;">Pollutant Levels N Event PY IR cHR 95%CI aHR 95%CI</text>
  </g>
  <path style="fill:none;stroke:rgb(0,0,0);stroke-width:0.72;" d="M87.310 134.320 L507.970 134.320 "/>
  <g begin="text">
   <text y="144.24" x="115.733,119.969" svgx:width="0.52,0.79" style="fill:rgb(0,0,0);font-family:URWPalladioL-Roma;font-size:8.07px;stroke:none;">SO</text>
   <text y="145.814" x="126.312" svgx:width="0.5" style="fill:rgb(0,0,0);font-family:URWPalladioL-Roma;font-size:6.28px;stroke:none;">2</text>
   <text y="141.311" x="131.916" svgx:width="0.5" style="fill:rgb(0,0,0);font-family:URWPalladioL-Roma;font-size:6.28px;stroke:none;">1</text>
   <text y="154.103" x="120.429,126.772,130.80700000000002,169.308,173.262,177.216,179.193,183.147,187.102,191.137,208.006,212.041,216.076,220.111,241.923,245.958,249.993,254.028,256.045,260.08,264.115,268.15000000000003,287.34,291.375,293.392,297.427,301.46200000000005,323.541,328.931,332.797,335.484,337.50149999999996,428.181,433.572,437.437,440.125" svgx:width="0.79,0.5,0.55,0.5,0.5,0.25,0.5,0.5,0.5,0.55,0.5,0.5,0.5,0.55,0.5,0.5,0.5,0.25,0.5,0.5,0.5,0.55,0.5,0.25,0.5,0.5,0.55,0.67,0.48,0.33,0.25,0.55,0.67,0.48,0.33,0.25" style="fill:rgb(0,0,0);font-family:URWPalladioL-Roma;font-size:8.07px;stroke:none;">Q1 42,331 184 493,552 3.73 Ref. Ref.</text>
   <text y="164.011" x="120.429,126.772,130.80700000000002,169.308,173.262,177.216,179.193,183.147,187.102,191.137,208.006,212.041,216.076,220.111,241.923,245.958,249.993,254.028,256.045,260.08,264.115,268.15000000000003,287.34,291.375,293.392,297.427,301.46200000000005,323.46,327.495,329.512,333.547,337.58200000000005,365.633,368.32,372.355,374.372,378.407,382.442,384.4595,386.477,390.512,392.529,396.564,400.599,403.2621,428.101,432.136,434.153,438.188,442.223,460.557,463.245,467.279,469.297,473.332,477.367,479.3845,481.402,485.436,487.454,491.489,495.524" svgx:width="0.79,0.5,0.55,0.5,0.5,0.25,0.5,0.5,0.5,0.55,0.5,0.5,0.5,0.55,0.5,0.5,0.5,0.25,0.5,0.5,0.5,0.55,0.5,0.25,0.5,0.5,0.55,0.5,0.25,0.5,0.5,0.55,0.33,0.5,0.25,0.5,0.5,0.25,0.55,0.5,0.25,0.5,0.5,0.33,0.55,0.5,0.25,0.5,0.5,0.55,0.33,0.5,0.25,0.5,0.5,0.25,0.55,0.5,0.25,0.5,0.5,0.33" style="fill:rgb(0,0,0);font-family:URWPalladioL-Roma;font-size:8.07px;stroke:none;">Q2 38,242 129 448,116 2.88 0.77 (0.62, 0.97) 0.80 (0.64, 1.00)</text>
   <text y="173.919" x="120.429,126.772,130.80700000000002,169.308,173.262,177.216,179.193,183.147,187.102,191.137,208.006,212.041,216.076,220.111,241.923,245.958,249.993,254.028,256.045,260.08,264.115,268.15000000000003,287.34,291.375,293.392,297.427,301.46200000000005,323.46,327.495,329.512,333.547,337.58200000000005,365.633,368.32,372.355,374.372,378.407,382.442,384.4595,386.477,390.512,392.529,396.564,400.599,403.2621,428.101,432.136,434.153,438.188,442.223,460.557,463.245,467.279,469.297,473.332,477.367,479.3845,481.402,485.436,487.454,491.489,495.524" svgx:width="0.79,0.5,0.55,0.5,0.5,0.25,0.5,0.5,0.5,0.55,0.5,0.5,0.5,0.55,0.5,0.5,0.5,0.25,0.5,0.5,0.5,0.55,0.5,0.25,0.5,0.5,0.55,0.5,0.25,0.5,0.5,0.55,0.33,0.5,0.25,0.5,0.5,0.25,0.55,0.5,0.25,0.5,0.5,0.33,0.55,0.5,0.25,0.5,0.5,0.55,0.33,0.5,0.25,0.5,0.5,0.25,0.55,0.5,0.25,0.5,0.5,0.33" style="fill:rgb(0,0,0);font-family:URWPalladioL-Roma;font-size:8.07px;stroke:none;">Q3 46,411 179 543,975 3.29 0.88 (0.72, 1.08) 0.97 (0.79, 1.20)</text>
   <text y="188.758" x="120.429,126.772,130.80700000000002,169.308,173.262,177.216,179.193,183.147,187.102,191.137,208.006,212.041,216.076,220.111,241.923,245.958,249.993,254.028,256.045,260.08,264.115,268.15000000000003,287.34,291.375,293.392,297.427,301.46200000000005,323.46,327.495,329.512,333.547,337.58200000000005,360.928,363.615,367.65,369.668,373.702,377.737,379.755,383.79,385.807,389.842,393.877,396.5401,398.582,401.721,404.86,408.0073,428.101,432.136,434.153,438.188" svgx:width="0.79,0.5,0.55,0.5,0.5,0.25,0.5,0.5,0.5,0.55,0.5,0.5,0.5,0.55,0.5,0.5,0.5,0.25,0.5,0.5,0.5,0.55,0.5,0.25,0.5,0.5,0.55,0.5,0.25,0.5,0.5,0.55,0.33,0.5,0.25,0.5,0.5,0.25,0.5,0.25,0.5,0.5,0.33,0.55,0.39,0.39,0.39,0.55,0.5,0.25,0.5,0.5" style="fill:rgb(0,0,0);font-family:URWPalladioL-Roma;font-size:8.07px;stroke:none;">Q4 34,986 284 407,059 6.98 1.87 (1.56,2.25) *** 2.00</text>
   <text y="183.827" x="460.958,463.645,467.68,469.698,473.733,477.768,479.78549999999996,481.802,485.837,487.855,491.89,495.924" svgx:width="0.33,0.5,0.25,0.5,0.5,0.25,0.55,0.5,0.25,0.5,0.5,0.33" style="fill:rgb(0,0,0);font-family:URWPalladioL-Roma;font-size:8.07px;stroke:none;">(1.66, 2.41)</text>
   <text y="193.689" x="474.357,477.497,480.636" svgx:width="0.39,0.39,0.39" style="fill:rgb(0,0,0);font-family:URWPalladioL-Roma;font-size:8.07px;stroke:none;">***</text>
  </g>
  <path style="fill:none;stroke:rgb(0,0,0);stroke-width:0.27;" d="M87.310 198.330 L507.970 198.330 "/>
  <g begin="text">
   <text y="208.249" x="114.209,120.915,127.258" svgx:width="0.83,0.79,0.52" style="fill:rgb(0,0,0);font-family:URWPalladioL-Roma;font-size:8.07px;stroke:none;">NOx</text>
   <text y="205.32" x="133.439" svgx:width="0.5" style="fill:rgb(0,0,0);font-family:URWPalladioL-Roma;font-size:6.28px;stroke:none;">2</text>
   <text y="218.112" x="120.429,126.772,130.80700000000002,169.308,173.262,177.216,179.193,183.147,187.102,191.137,208.006,212.041,216.076,220.111,241.923,245.958,249.993,254.028,256.045,260.08,264.115,268.15000000000003,287.34,291.375,293.392,297.427,301.46200000000005,323.541,328.931,332.797,335.484,337.50149999999996,428.181,433.572,437.437,440.125" svgx:width="0.79,0.5,0.55,0.5,0.5,0.25,0.5,0.5,0.5,0.55,0.5,0.5,0.5,0.55,0.5,0.5,0.5,0.25,0.5,0.5,0.5,0.55,0.5,0.25,0.5,0.5,0.55,0.67,0.48,0.33,0.25,0.55,0.67,0.48,0.33,0.25" style="fill:rgb(0,0,0);font-family:URWPalladioL-Roma;font-size:8.07px;stroke:none;">Q1 38,640 126 451,937 2.79 Ref. Ref.</text>
   <text y="228.02" x="120.429,126.772,130.80700000000002,169.308,173.262,177.216,179.193,183.147,187.102,191.137,208.006,212.041,216.076,220.111,241.923,245.958,249.993,254.028,256.045,260.08,264.115,268.15000000000003,287.34,291.375,293.392,297.427,301.46200000000005,323.46,327.495,329.512,333.547,337.58200000000005,359.919,362.607,366.641,368.659,372.694,376.729,378.74649999999997,380.764,384.798,386.816,390.851,394.886,397.5491,399.59,402.729,405.869,409.0163,428.101,432.136,434.153,438.188,442.223,457.975,460.662,464.697,466.715,470.749,474.784,476.8015,478.819,482.854,484.871,488.906,492.941,495.60409999999996,497.646" svgx:width="0.79,0.5,0.55,0.5,0.5,0.25,0.5,0.5,0.5,0.55,0.5,0.5,0.5,0.55,0.5,0.5,0.5,0.25,0.5,0.5,0.5,0.55,0.5,0.25,0.5,0.5,0.55,0.5,0.25,0.5,0.5,0.55,0.33,0.5,0.25,0.5,0.5,0.25,0.55,0.5,0.25,0.5,0.5,0.33,0.55,0.39,0.39,0.39,0.55,0.5,0.25,0.5,0.5,0.55,0.33,0.5,0.25,0.5,0.5,0.25,0.55,0.5,0.25,0.5,0.5,0.33,0.55,0.39" style="fill:rgb(0,0,0);font-family:URWPalladioL-Roma;font-size:8.07px;stroke:none;">Q2 43,026 207 503,906 4.11 1.47 (1.18, 1.84) *** 1.32 (1.00, 1.73) *</text>
   <text y="237.928" x="120.429,126.772,130.80700000000002,169.308,173.262,177.216,179.193,183.147,187.102,191.137,208.006,212.041,216.076,220.111,241.923,245.958,249.993,254.028,256.045,260.08,264.115,268.15000000000003,287.34,291.375,293.392,297.427,301.46200000000005,323.46,327.495,329.512,333.547,337.58200000000005,361.485,364.172,368.207,370.224,374.259,378.294,380.31149999999997,382.329,386.364,388.381,392.416,396.451,399.1141,401.156,404.295,407.4423,428.101,432.136,434.153,438.188,442.223,460.557,463.245,467.279,469.297,473.332,477.367,479.3845,481.401,485.436,487.454,491.489,495.524" svgx:width="0.79,0.5,0.55,0.5,0.5,0.25,0.5,0.5,0.5,0.55,0.5,0.5,0.5,0.55,0.5,0.5,0.5,0.25,0.5,0.5,0.5,0.55,0.5,0.25,0.5,0.5,0.55,0.5,0.25,0.5,0.5,0.55,0.33,0.5,0.25,0.5,0.5,0.25,0.55,0.5,0.25,0.5,0.5,0.33,0.55,0.39,0.39,0.55,0.5,0.25,0.5,0.5,0.55,0.33,0.5,0.25,0.5,0.5,0.25,0.55,0.5,0.25,0.5,0.5,0.33" style="fill:rgb(0,0,0);font-family:URWPalladioL-Roma;font-size:8.07px;stroke:none;">Q3 33,722 154 395,166 3.90 1.40 (1.10, 1.77) ** 1.15 (0.79, 1.68)</text>
   <text y="247.836" x="120.429,126.772,130.80700000000002,169.308,173.262,177.216,179.193,183.147,187.102,191.137,208.006,212.041,216.076,220.111,241.923,245.958,249.993,254.028,256.045,260.08,264.115,268.15000000000003,287.34,291.375,293.392,297.427,301.46200000000005,323.46,327.495,329.512,333.547,337.58200000000005,359.919,362.607,366.641,368.659,372.694,376.729,378.74649999999997,380.764,384.798,386.816,390.851,394.886,397.5491,399.59,402.729,405.869,409.0163,428.101,432.136,434.153,438.188,442.223,460.557,463.245,467.279,469.297,473.332,477.367,479.3845,481.401,485.436,487.454,491.489,495.524" svgx:width="0.79,0.5,0.55,0.5,0.5,0.25,0.5,0.5,0.5,0.55,0.5,0.5,0.5,0.55,0.5,0.5,0.5,0.25,0.5,0.5,0.5,0.55,0.5,0.25,0.5,0.5,0.55,0.5,0.25,0.5,0.5,0.55,0.33,0.5,0.25,0.5,0.5,0.25,0.55,0.5,0.25,0.5,0.5,0.33,0.55,0.39,0.39,0.39,0.55,0.5,0.25,0.5,0.5,0.55,0.33,0.5,0.25,0.5,0.5,0.25,0.55,0.5,0.25,0.5,0.5,0.33" style="fill:rgb(0,0,0);font-family:URWPalladioL-Roma;font-size:8.07px;stroke:none;">Q4 46,582 289 541,693 5.34 1.91 (1.55, 2.36) *** 1.41 (0.89, 2.22)</text>
  </g>
  <path style="fill:none;stroke:rgb(0,0,0);stroke-width:0.27;" d="M87.310 252.520 L507.970 252.520 "/>
  <g begin="text">
   <text y="262.439" x="116.292,122.997" svgx:width="0.83,0.79" style="fill:rgb(0,0,0);font-family:URWPalladioL-Roma;font-size:8.07px;stroke:none;">NO</text>
   <text y="259.51" x="131.357" svgx:width="0.5" style="fill:rgb(0,0,0);font-family:URWPalladioL-Roma;font-size:6.28px;stroke:none;">3</text>
   <text y="272.302" x="120.429,126.772,130.80700000000002,169.308,173.262,177.216,179.193,183.147,187.102,191.137,208.006,212.041,216.076,220.111,241.923,245.958,249.993,254.028,256.045,260.08,264.115,268.15000000000003,287.34,291.375,293.392,297.427,301.46200000000005,323.541,328.931,332.797,335.484,337.50149999999996,428.181,433.572,437.437,440.125" svgx:width="0.79,0.5,0.55,0.5,0.5,0.25,0.5,0.5,0.5,0.55,0.5,0.5,0.5,0.55,0.5,0.5,0.5,0.25,0.5,0.5,0.5,0.55,0.5,0.25,0.5,0.5,0.55,0.67,0.48,0.33,0.25,0.55,0.67,0.48,0.33,0.25" style="fill:rgb(0,0,0);font-family:URWPalladioL-Roma;font-size:8.07px;stroke:none;">Q1 39,715 127 465,107 2.73 Ref. Ref.</text>
   <text y="282.211" x="120.429,126.772,130.80700000000002,169.308,173.262,177.216,179.193,183.147,187.102,191.137,208.006,212.041,216.076,220.111,241.923,245.958,249.993,254.028,256.045,260.08,264.115,268.15000000000003,287.34,291.375,293.392,297.427,301.46200000000005,323.46,327.495,329.512,333.547,337.58200000000005,359.919,362.607,366.641,368.659,372.694,376.729,378.74649999999997,380.764,384.798,386.816,390.851,394.886,397.5491,399.59,402.729,405.869,409.0163,428.101,432.136,434.153,438.188,442.223,457.975,460.662,464.697,466.715,470.749,474.784,476.8015,478.819,482.854,484.871,488.906,492.941,495.60409999999996,497.646" svgx:width="0.79,0.5,0.55,0.5,0.5,0.25,0.5,0.5,0.5,0.55,0.5,0.5,0.5,0.55,0.5,0.5,0.5,0.25,0.5,0.5,0.5,0.55,0.5,0.25,0.5,0.5,0.55,0.5,0.25,0.5,0.5,0.55,0.33,0.5,0.25,0.5,0.5,0.25,0.55,0.5,0.25,0.5,0.5,0.33,0.55,0.39,0.39,0.39,0.55,0.5,0.25,0.5,0.5,0.55,0.33,0.5,0.25,0.5,0.5,0.25,0.55,0.5,0.25,0.5,0.5,0.33,0.55,0.39" style="fill:rgb(0,0,0);font-family:URWPalladioL-Roma;font-size:8.07px;stroke:none;">Q2 41,048 201 480,251 4.19 1.66 (1.33, 2.07) *** 1.34 (1.02, 1.77) *</text>
   <text y="292.119" x="120.429,126.772,130.80700000000002,169.308,173.262,177.216,179.193,183.147,187.102,191.137,208.006,212.041,216.076,220.111,241.923,245.958,249.993,254.028,256.045,260.08,264.115,268.15000000000003,287.34,291.375,293.392,297.427,301.46200000000005,323.46,327.495,329.512,333.547,337.58200000000005,359.919,362.607,366.641,368.659,372.694,376.729,378.74649999999997,380.764,384.798,386.816,390.851,394.886,397.5491,399.59,402.729,405.869,409.0163,428.101,432.136,434.153,438.188,442.223,460.557,463.245,467.279,469.297,473.332,477.367,479.3845,481.401,485.436,487.454,491.489,495.524" svgx:width="0.79,0.5,0.55,0.5,0.5,0.25,0.5,0.5,0.5,0.55,0.5,0.5,0.5,0.55,0.5,0.5,0.5,0.25,0.5,0.5,0.5,0.55,0.5,0.25,0.5,0.5,0.55,0.5,0.25,0.5,0.5,0.55,0.33,0.5,0.25,0.5,0.5,0.25,0.55,0.5,0.25,0.5,0.5,0.33,0.55,0.39,0.39,0.39,0.55,0.5,0.25,0.5,0.5,0.55,0.33,0.5,0.25,0.5,0.5,0.25,0.55,0.5,0.25,0.5,0.5,0.33" style="fill:rgb(0,0,0);font-family:URWPalladioL-Roma;font-size:8.07px;stroke:none;">Q3 36,125 151 423,750 3.56 1.64 (1.28, 2.09) *** 1.12 (0.76, 1.64)</text>
   <text y="302.026" x="120.429,126.772,130.80700000000002,169.308,173.262,177.216,179.193,183.147,187.102,191.137,208.006,212.041,216.076,220.111,241.923,245.958,249.993,254.028,256.045,260.08,264.115,268.15000000000003,287.34,291.375,293.392,297.427,301.46200000000005,323.46,327.495,329.512,333.547,337.58200000000005,359.919,362.607,366.641,368.659,372.694,376.729,378.74649999999997,380.764,384.798,386.816,390.851,394.886,397.5491,399.59,402.729,405.869,409.0163,428.101,432.136,434.153,438.188,442.223,460.557,463.245,467.279,469.297,473.332,477.367,479.3845,481.401,485.436,487.454,491.489,495.524" svgx:width="0.79,0.5,0.55,0.5,0.5,0.25,0.5,0.5,0.5,0.55,0.5,0.5,0.5,0.55,0.5,0.5,0.5,0.25,0.5,0.5,0.5,0.55,0.5,0.25,0.5,0.5,0.55,0.5,0.25,0.5,0.5,0.55,0.33,0.5,0.25,0.5,0.5,0.25,0.55,0.5,0.25,0.5,0.5,0.33,0.55,0.39,0.39,0.39,0.55,0.5,0.25,0.5,0.5,0.55,0.33,0.5,0.25,0.5,0.5,0.25,0.55,0.5,0.25,0.5,0.5,0.33" style="fill:rgb(0,0,0);font-family:URWPalladioL-Roma;font-size:8.07px;stroke:none;">Q4 45,082 297 523,594 5.67 2.49 (2.01, 3.09) *** 1.47 (0.92, 2.35)</text>
  </g>
  <path style="fill:none;stroke:rgb(0,0,0);stroke-width:0.27;" d="M87.310 306.710 L507.970 306.710 "/>
  <g begin="text">
   <text y="316.63" x="114.498,121.204" svgx:width="0.83,0.79" style="fill:rgb(0,0,0);font-family:URWPalladioL-Roma;font-size:8.07px;stroke:none;">NO</text>
   <text y="318.204" x="127.547" svgx:width="0.5" style="fill:rgb(0,0,0);font-family:URWPalladioL-Roma;font-size:6.28px;stroke:none;">2</text>
   <text y="313.701" x="133.15" svgx:width="0.5" style="fill:rgb(0,0,0);font-family:URWPalladioL-Roma;font-size:6.28px;stroke:none;">4</text>
   <text y="326.493" x="120.429,126.772,130.80700000000002,169.308,173.262,177.216,179.193,183.147,187.102,191.137,208.006,212.041,216.076,220.111,241.923,245.958,249.993,254.028,256.045,260.08,264.115,268.15000000000003,287.34,291.375,293.392,297.427,301.46200000000005,323.541,328.931,332.797,335.484,337.50149999999996,428.181,433.572,437.437,440.125" svgx:width="0.79,0.5,0.55,0.5,0.5,0.25,0.5,0.5,0.5,0.55,0.5,0.5,0.5,0.55,0.5,0.5,0.5,0.25,0.5,0.5,0.5,0.55,0.5,0.25,0.5,0.5,0.55,0.67,0.48,0.33,0.25,0.55,0.67,0.48,0.33,0.25" style="fill:rgb(0,0,0);font-family:URWPalladioL-Roma;font-size:8.07px;stroke:none;">Q1 36,028 127 421,548 3.01 Ref. Ref.</text>
   <text y="336.401" x="120.429,126.772,130.80700000000002,169.308,173.262,177.216,179.193,183.147,187.102,191.137,208.006,212.041,216.076,220.111,241.923,245.958,249.993,254.028,256.045,260.08,264.115,268.15000000000003,287.34,291.375,293.392,297.427,301.46200000000005,323.46,327.495,329.512,333.547,337.58200000000005,361.485,364.172,368.207,370.224,374.259,378.294,380.31149999999997,382.329,386.364,388.381,392.416,396.451,399.1141,401.156,404.295,407.4423,428.101,432.136,434.153,438.188,442.223,460.557,463.245,467.279,469.297,473.332,477.367,479.3845,481.401,485.436,487.454,491.489,495.524" svgx:width="0.79,0.5,0.55,0.5,0.5,0.25,0.5,0.5,0.5,0.55,0.5,0.5,0.5,0.55,0.5,0.5,0.5,0.25,0.5,0.5,0.5,0.55,0.5,0.25,0.5,0.5,0.55,0.5,0.25,0.5,0.5,0.55,0.33,0.5,0.25,0.5,0.5,0.25,0.55,0.5,0.25,0.5,0.5,0.33,0.55,0.39,0.39,0.55,0.5,0.25,0.5,0.5,0.55,0.33,0.5,0.25,0.5,0.5,0.25,0.55,0.5,0.25,0.5,0.5,0.33" style="fill:rgb(0,0,0);font-family:URWPalladioL-Roma;font-size:8.07px;stroke:none;">Q2 47,267 228 553,336 4.12 1.37 (1.10, 1.70) ** 1.23 (0.94, 1.61)</text>
   <text y="346.31" x="120.429,126.772" svgx:width="0.79,0.5" style="fill:rgb(0,0,0);font-family:URWPalladioL-Roma;font-size:8.07px;stroke:none;">Q3</text>
   <text y="346.309" x="169.308,173.262,177.216,179.193,183.147,187.102,191.137,208.006,212.041,216.076,220.111,241.923,245.958,249.993,254.028,256.045,260.08,264.115,268.15000000000003,287.34,291.375,293.392,297.427,301.46200000000005,323.46,327.495,329.512,333.547,337.58200000000005,365.633,368.32,372.355,374.372,378.407,382.442,384.4595,386.477,390.512,392.529,396.564,400.599,403.2621,428.101,432.136,434.153,438.188,442.223,460.557,463.245,467.279,469.297,473.332,477.367,479.3845,481.402,485.436,487.454,491.489,495.524" svgx:width="0.5,0.5,0.25,0.5,0.5,0.5,0.55,0.5,0.5,0.5,0.55,0.5,0.5,0.5,0.25,0.5,0.5,0.5,0.55,0.5,0.25,0.5,0.5,0.55,0.5,0.25,0.5,0.5,0.55,0.33,0.5,0.25,0.5,0.5,0.25,0.55,0.5,0.25,0.5,0.5,0.33,0.55,0.5,0.25,0.5,0.5,0.55,0.33,0.5,0.25,0.5,0.5,0.25,0.55,0.5,0.25,0.5,0.5,0.33" style="fill:rgb(0,0,0);font-family:URWPalladioL-Roma;font-size:8.07px;stroke:none;">48,038 208 563,416 3.69 1.23 (0.98, 1.53) 1.02 (0.69, 1.51)</text>
   <text y="356.217" x="120.429,126.772,130.80700000000002,169.308,173.262,177.216,179.193,183.147,187.102,191.137,208.006,212.041,216.076,220.111,241.923,245.958,249.993,254.028,256.045,260.08,264.115,268.15000000000003,287.34,291.375,293.392,297.427,301.46200000000005,323.46,327.495,329.512,333.547,337.58200000000005,359.919,362.607,366.641,368.659,372.694,376.729,378.74649999999997,380.764,384.798,386.816,390.851,394.886,397.5491,399.59,402.729,405.869,409.0163,428.101,432.136,434.153,438.188,442.223,460.557,463.245,467.279,469.297,473.332,477.367,479.3845,481.401,485.436,487.454,491.489,495.524" svgx:width="0.79,0.5,0.55,0.5,0.5,0.25,0.5,0.5,0.5,0.55,0.5,0.5,0.5,0.55,0.5,0.5,0.5,0.25,0.5,0.5,0.5,0.55,0.5,0.25,0.5,0.5,0.55,0.5,0.25,0.5,0.5,0.55,0.33,0.5,0.25,0.5,0.5,0.25,0.55,0.5,0.25,0.5,0.5,0.33,0.55,0.39,0.39,0.39,0.55,0.5,0.25,0.5,0.5,0.55,0.33,0.5,0.25,0.5,0.5,0.25,0.55,0.5,0.25,0.5,0.5,0.33" style="fill:rgb(0,0,0);font-family:URWPalladioL-Roma;font-size:8.07px;stroke:none;">Q4 30,637 213 354,402 6.01 2.00 (1.61, 2.49) *** 1.35 (0.78, 2.33)</text>
  </g>
  <path style="fill:none;stroke:rgb(0,0,0);stroke-width:0.27;" d="M87.310 360.900 L507.970 360.900 "/>
  <g begin="text">
   <text y="370.821" x="112.414,117.288" svgx:width="0.6,0.95" style="fill:rgb(0,0,0);font-family:URWPalladioL-Roma;font-size:8.07px;stroke:none;">PM</text>
   <text y="372.394" x="124.923,128.061,129.63" svgx:width="0.5,0.25,0.5" style="fill:rgb(0,0,0);font-family:URWPalladioL-Roma;font-size:6.28px;stroke:none;">2.5</text>
   <text y="367.891" x="135.234" svgx:width="0.5" style="fill:rgb(0,0,0);font-family:URWPalladioL-Roma;font-size:6.28px;stroke:none;">5</text>
   <text y="380.684" x="120.429,126.772,130.80700000000002,169.308,173.262,177.216,179.193,183.147,187.102,191.137,208.006,212.041,216.076,220.111,241.923,245.958,249.993,254.028,256.045,260.08,264.115,268.15000000000003,287.34,291.375,293.392,297.427,301.46200000000005,323.541,328.931,332.797,335.484,337.50149999999996,428.181,433.572,437.437,440.125" svgx:width="0.79,0.5,0.55,0.5,0.5,0.25,0.5,0.5,0.5,0.55,0.5,0.5,0.5,0.55,0.5,0.5,0.5,0.25,0.5,0.5,0.5,0.55,0.5,0.25,0.5,0.5,0.55,0.67,0.48,0.33,0.25,0.55,0.67,0.48,0.33,0.25" style="fill:rgb(0,0,0);font-family:URWPalladioL-Roma;font-size:8.07px;stroke:none;">Q1 46,591 129 545,526 2.36 Ref. Ref.</text>
   <text y="390.592" x="120.429,126.772,130.80700000000002,169.308,173.262,177.216,179.193,183.147,187.102,191.137,208.006,212.041,216.076,220.111,241.923,245.958,249.993,254.028,256.045,260.08,264.115,268.15000000000003,287.34,291.375,293.392,297.427,301.46200000000005,323.46,327.495,329.512,333.547,337.58200000000005,363.058,365.746,369.781,371.798,375.833,379.868,381.8855,383.903,387.938,389.955,393.99,398.025,400.68809999999996,402.729,405.87629999999996,428.101,432.136,434.153,438.188,442.223,460.557,463.245,467.279,469.297,473.332,477.367,479.3845,481.401,485.436,487.454,491.489,495.524" svgx:width="0.79,0.5,0.55,0.5,0.5,0.25,0.5,0.5,0.5,0.55,0.5,0.5,0.5,0.55,0.5,0.5,0.5,0.25,0.5,0.5,0.5,0.55,0.5,0.25,0.5,0.5,0.55,0.5,0.25,0.5,0.5,0.55,0.33,0.5,0.25,0.5,0.5,0.25,0.55,0.5,0.25,0.5,0.5,0.33,0.55,0.39,0.55,0.5,0.25,0.5,0.5,0.55,0.33,0.5,0.25,0.5,0.5,0.25,0.55,0.5,0.25,0.5,0.5,0.33" style="fill:rgb(0,0,0);font-family:URWPalladioL-Roma;font-size:8.07px;stroke:none;">Q2 35,537 126 416,539 3.02 1.28 (1.00, 1.64) * 1.33 (0.91, 1.93)</text>
   <text y="400.5" x="120.429,126.772,130.80700000000002,169.308,173.262,177.216,179.193,183.147,187.102,191.137,208.006,212.041,216.076,220.111,241.923,245.958,249.993,254.028,256.045,260.08,264.115,268.15000000000003,287.34,291.375,293.392,297.427,301.46200000000005,323.46,327.495,329.512,333.547,337.58200000000005,359.919,362.607,366.641,368.659,372.694,376.729,378.74649999999997,380.764,384.798,386.816,390.851,394.886,397.5491,399.59,402.729,405.869,409.0163,428.101,432.136,434.153,438.188,442.223,457.975,460.662,464.697,466.715,470.749,474.784,476.8015,478.819,482.854,484.871,488.906,492.941,495.60409999999996,497.646" svgx:width="0.79,0.5,0.55,0.5,0.5,0.25,0.5,0.5,0.5,0.55,0.5,0.5,0.5,0.55,0.5,0.5,0.5,0.25,0.5,0.5,0.5,0.55,0.5,0.25,0.5,0.5,0.55,0.5,0.25,0.5,0.5,0.55,0.33,0.5,0.25,0.5,0.5,0.25,0.55,0.5,0.25,0.5,0.5,0.33,0.55,0.39,0.39,0.39,0.55,0.5,0.25,0.5,0.5,0.55,0.33,0.5,0.25,0.5,0.5,0.25,0.55,0.5,0.25,0.5,0.5,0.33,0.55,0.39" style="fill:rgb(0,0,0);font-family:URWPalladioL-Roma;font-size:8.07px;stroke:none;">Q3 39,160 212 457,761 4.63 1.96 (1.57, 2.44) *** 1.96 (1.08, 3.55) *</text>
   <text y="410.407" x="120.429,126.772,130.80700000000002,169.308,173.262,177.216,179.193,183.147,187.102,191.137,208.006,212.041,216.076,220.111,241.923,245.958,249.993,254.028,256.045,260.08,264.115,268.15000000000003,287.34,291.375,293.392,297.427,301.46200000000005,323.46,327.495,329.512,333.547,337.58200000000005,359.919,362.607,366.641,368.659,372.694,376.729,378.74649999999997,380.764,384.798,386.816,390.851,394.886,397.5491,399.59,402.729,405.869,409.0163,428.101,432.136,434.153,438.188,442.223,457.975,460.662,464.697,466.715,470.749,474.784,476.8015,478.819,482.854,484.871,488.906,492.941,495.60409999999996,497.646" svgx:width="0.79,0.5,0.55,0.5,0.5,0.25,0.5,0.5,0.5,0.55,0.5,0.5,0.5,0.55,0.5,0.5,0.5,0.25,0.5,0.5,0.5,0.55,0.5,0.25,0.5,0.5,0.55,0.5,0.25,0.5,0.5,0.55,0.33,0.5,0.25,0.5,0.5,0.25,0.55,0.5,0.25,0.5,0.5,0.33,0.55,0.39,0.39,0.39,0.55,0.5,0.25,0.5,0.5,0.55,0.33,0.5,0.25,0.5,0.5,0.25,0.55,0.5,0.25,0.5,0.5,0.33,0.55,0.39" style="fill:rgb(0,0,0);font-family:URWPalladioL-Roma;font-size:8.07px;stroke:none;">Q4 40,682 309 472,877 6.53 2.77 (2.26, 3.40) *** 2.53 (1.08, 5.94) *</text>
  </g>
  <path style="fill:none;stroke:rgb(0,0,0);stroke-width:0.27;" d="M87.310 415.310 L507.970 415.310 "/>
  <g begin="text">
   <text y="424.339" x="97.795,103.934,107.919,109.699,114.5607,116.291,121.016,124.101,127.413,130.0431,131.818,136.192,140.902,144.808,147.893,150.439,152.712,154.985,158.726,160.7185,163.108,169.247,173.23200000000003,175.012,179.8737,181.604,184.916,188.657,192.125,196.389,200.935,205.79670000000002,207.567,211.941,216.65,220.556,223.641,226.187,228.46,230.733,234.474,236.4665,238.848,244.988,248.973,250.752,255.61370000000002,257.344,259.89,264.436,266.709,269.654,274.5157,276.285,280.659,285.369,289.274,292.359,294.906,297.179,299.452,303.193,305.1855,307.567,313.706,317.69100000000003,319.47,324.3317,326.063,328.664,332.928,337.638,340.723,343.27,347.89259999999996,349.674,354.048,358.758,362.664,365.749,368.295,370.568,372.841,376.582,378.5745,380.964,385.682,391.0219,392.75,397.6117,399.343,404.037,407.778,410.863,414.175,418.44,422.986,425.587,429.929,433.671,437.576,440.661,443.973,445.9655,448.355,450.987,456.3269,458.056,462.91769999999997,464.648,466.921,471.467,474.935,477.208,481.98,485.721,490.267,493.735" svgx:width="0.79,0.5,0.55,0.61,0.55,0.61,0.4,0.42,0.33,0.55,0.56,0.6,0.5,0.4,0.33,0.29,0.29,0.48,0.25,0.55,0.79,0.5,0.55,0.61,0.55,0.42,0.48,0.44,0.55,0.58,0.61,0.55,0.56,0.6,0.5,0.4,0.33,0.29,0.29,0.48,0.25,0.55,0.79,0.5,0.55,0.61,0.55,0.33,0.58,0.29,0.4,0.61,0.55,0.56,0.6,0.5,0.4,0.33,0.29,0.29,0.48,0.25,0.55,0.79,0.5,0.55,0.61,0.55,0.33,0.55,0.6,0.4,0.33,0.58,0.55,0.56,0.6,0.5,0.4,0.33,0.29,0.29,0.48,0.25,0.55,0.6,0.67,0.55,0.61,0.55,0.6,0.48,0.4,0.42,0.55,0.58,0.33,0.56,0.48,0.5,0.4,0.42,0.25,0.55,0.34,0.67,0.55,0.61,0.55,0.29,0.58,0.44,0.29,0.61,0.48,0.58,0.44,0.48" style="fill:rgb(0,0,0);font-family:URWPalladioL-Roma;font-size:7.97px;stroke:none;">Q1 = ﬁrst quartile. Q2 = second quartile. Q3 = third quartile. Q4 = fourth quartile. PY = person-years. IR = incidence</text>
   <text y="433.803" x="97.795,100.997,105.049,107.692,111.575,113.56750000000001,115.587,118.286,123.157,127.04,130.228,132.236,136.288,140.341,142.368,146.42,150.473,154.45800000000003,156.512,161.383,165.266,168.468,171.904,176.33,181.048,183.747,188.253,192.136,196.189,199.39,202.827,205.526,207.51850000000002,210.025,213.624,220.368,225.7079,227.768,232.6297,234.674,238.273,241.41,246.298,251.25,255.0756,257.118,261.836,265.889,269.942,273.994,277.05,281.9117,283.997,287.198,291.251,293.894,296.252,300.678,302.6705,305.168,309.221,315.965,321.3049,323.374,328.2357,330.272,334.324,339.277,341.174,346.061,349.498,352.14,356.023,360.8847,362.961,367.679,371.732,375.784,379.837,382.901,387.7627,389.84,393.041,397.094,399.736,402.095,406.521,408.5135,411.019,416.766,419.4758,421.484,426.34569999999997,428.39,431.989,436.414,441.132,446.036,450.988,454.871,459.588,463.179,467.0046,469.055,471.414,476.132,478.774,482.657,485.858,490.438,494.491,496.85" svgx:width="0.4,0.5,0.33,0.48,0.25,0.55,0.33,0.6,0.48,0.4,0.55,0.5,0.5,0.25,0.5,0.5,0.5,0.55,0.6,0.48,0.4,0.42,0.55,0.58,0.33,0.56,0.48,0.5,0.4,0.42,0.33,0.25,0.55,0.44,0.83,0.67,0.55,0.61,0.55,0.44,0.4,0.6,0.61,0.48,0.55,0.58,0.5,0.5,0.5,0.4,0.61,0.55,0.4,0.5,0.33,0.29,0.55,0.25,0.55,0.5,0.83,0.67,0.55,0.61,0.55,0.5,0.61,0.23,0.6,0.42,0.33,0.48,0.61,0.55,0.58,0.5,0.5,0.5,0.4,0.61,0.55,0.4,0.5,0.33,0.29,0.55,0.25,0.55,0.71,0.34,0.55,0.61,0.55,0.44,0.55,0.58,0.61,0.61,0.48,0.58,0.44,0.48,0.55,0.29,0.58,0.33,0.48,0.4,0.56,0.5,0.29,0.25" style="fill:rgb(0,0,0);font-family:URWPalladioL-Roma;font-size:7.97px;stroke:none;">rate, (per 10,000 person-years). cHR = crude hazard ratio. aHR = adjusted hazard ratio. CI = conﬁdence interval.</text>
   <text y="443.268" x="97.795,103.226,107.12,109.827,111.8195,115.257,120.1187,122.484,125.557,129.451,132.158,136.052,139.117,143.011,147.743,151.352,155.1776,157.547,162.067,165.132,169.57,174.472,179.358" svgx:width="0.67,0.48,0.33,0.25,0.55,0.61,0.55,0.4,0.48,0.33,0.48,0.4,0.48,0.58,0.44,0.48,0.55,0.56,0.4,0.55,0.6,0.6,0.25" style="fill:rgb(0,0,0);font-family:URWPalladioL-Roma;font-size:7.97px;stroke:none;">Ref. = reference group.</text>
   <text y="440.375" x="184.793" svgx:width="0.5" style="fill:rgb(0,0,0);font-family:URWPalladioL-Roma;font-size:5.98px;stroke:none;">1</text>
   <text y="443.268" x="190.582,196.907,201.874,203.776,208.678,212.125,214.775,218.669,223.53070000000002,225.937,232.701,238.0409,240.432,247.212,251.277,254.62439999999998,257.024,260.634,264.699,267.064,270.674,275.576,277.942,282.006,284.657,288.551,293.4127,295.818,300.314,304.7772,307.143,312.907,317.345,321.48940000000005,323.841,328.727,331.792,336.23,341.116,345.555,348.766,351.416,353.782,358.221,362.952,367.017,369.3283,371.683,376.414,380.479,384.544,388.609,391.682,396.5437,398.949,402.014,405.908,410.428,413.493,417.387,420.834,424.281,426.647,431.085,435.70759999999996,438.117,442.182,446.914,451.7757,454.189,458.254,463.221,465.124,470.026,473.473,476.123,480.017,484.8787,487.285,489.992,494.431" svgx:width="0.78,0.61,0.23,0.6,0.42,0.33,0.48,0.61,0.55,0.83,0.67,0.55,0.83,0.5,0.42,0.55,0.44,0.5,0.29,0.44,0.6,0.29,0.5,0.33,0.48,0.61,0.55,0.55,0.56,0.55,0.71,0.55,0.52,0.55,0.6,0.4,0.55,0.6,0.55,0.4,0.33,0.29,0.55,0.58,0.5,0.29,0.55,0.58,0.5,0.5,0.5,0.4,0.61,0.55,0.4,0.48,0.56,0.4,0.48,0.42,0.42,0.29,0.55,0.58,0.55,0.5,0.58,0.61,0.55,0.5,0.61,0.23,0.6,0.42,0.33,0.48,0.61,0.55,0.33,0.55,0.4" style="fill:rgb(0,0,0);font-family:URWPalladioL-Roma;font-size:7.97px;stroke:none;">Adjusted HR was calculated by Cox proportional hazard regression and adjusted for</text>
   <text y="452.732" x="97.795,101.86,106.38,110.274,112.26650000000001,114.997,118.444,122.338,126.533,128.5255,131.256,138.434,142.873,147.604,150.255,154.986,157.352,161.8152,164.424,166.79,171.521,175.131,179.57,186.748,190.642,192.6345,195.373,199.438,204.17,209.0317,211.689,216.591,219.803,224.298,228.363,233.094,235.46,239.525,243.59,246.24,248.605,253.044,257.6666,260.328,262.694,266.588,271.181,275.075,277.441" svgx:width="0.5,0.56,0.48,0.25,0.55,0.42,0.48,0.52,0.25,0.55,0.88,0.55,0.58,0.33,0.58,0.29,0.56,0.55,0.29,0.58,0.44,0.55,0.88,0.48,0.25,0.55,0.5,0.58,0.61,0.55,0.6,0.4,0.55,0.5,0.58,0.29,0.5,0.5,0.33,0.29,0.55,0.58,0.55,0.29,0.48,0.56,0.48,0.29,0.25" style="fill:rgb(0,0,0);font-family:URWPalladioL-Roma;font-size:7.97px;stroke:none;">age, sex, monthly income, and urbanization level.</text>
   <text y="449.839" x="283.622" svgx:width="0.5" style="fill:rgb(0,0,0);font-family:URWPalladioL-Roma;font-size:5.98px;stroke:none;">2</text>
   <text y="452.732" x="289.661,295.986,300.953,302.855,307.757,311.204,313.854,317.748,322.6097,325.268,332.032,337.3719,340.015,346.795,350.86,354.2074,356.86,360.469,364.534,366.899,370.509,375.411,377.777,381.842,384.492,388.386,393.2477,395.906,400.401,404.8642,407.474,413.238,417.676,421.8204,424.424,429.31,432.375,436.813,441.699,446.138,449.349,451.999,454.365,458.804,463.535,467.6,469.91130000000004,472.518,477.249,481.314,485.379,489.444,492.517" svgx:width="0.78,0.61,0.23,0.6,0.42,0.33,0.48,0.61,0.55,0.83,0.67,0.55,0.83,0.5,0.42,0.55,0.44,0.5,0.29,0.44,0.6,0.29,0.5,0.33,0.48,0.61,0.55,0.55,0.56,0.55,0.71,0.55,0.52,0.55,0.6,0.4,0.55,0.6,0.55,0.4,0.33,0.29,0.55,0.58,0.5,0.29,0.55,0.58,0.5,0.5,0.5,0.4,0.61" style="fill:rgb(0,0,0);font-family:URWPalladioL-Roma;font-size:7.97px;stroke:none;">Adjusted HR was calculated by Cox proportional hazard</text>
   <text y="462.197" x="97.795,100.773,104.556,108.947,111.925,115.708,119.057,122.406,124.705,129.017,133.6396,135.597,139.546,144.143,149.0047,150.943,154.892,159.718,161.566,166.329,169.678,172.253,176.036,180.89770000000001,182.845,185.475,189.787,192.975,194.89,198.839,203.23,207.014,209.00650000000002,210.971,214.32,218.103,222.179,224.1715,226.144,233.118,237.43,242.027,244.602,249.199,251.497,255.96020000000001,257.863,260.162,264.759,268.266,272.578,279.552,283.336,285.3285,287.301,291.25,295.847,300.70869999999996,302.647,307.41,310.53,314.897,318.847,323.444,325.742,329.691,333.64,336.215,338.514,342.826,347.4486,349.405,351.704,355.487,359.95,363.733,366.032,368.0245,369.989,373.938,378.535,383.3967,385.343,387.642,392.238,394.813,398.597,401.716,405.666,409.172,411.747,414.046,418.358,422.9806,424.938,429.25,431.8801,433.863,440.426,446.634,450.77840000000003,452.692,456.642,461.238,466.0997,468.047,475.021,479.334,483.931,486.505,491.102,493.401" svgx:width="0.4,0.48,0.56,0.4,0.48,0.42,0.42,0.29,0.55,0.58,0.55,0.5,0.58,0.61,0.55,0.5,0.61,0.23,0.6,0.42,0.33,0.48,0.61,0.55,0.33,0.55,0.4,0.55,0.5,0.56,0.48,0.25,0.55,0.42,0.48,0.52,0.25,0.55,0.88,0.55,0.58,0.33,0.58,0.29,0.56,0.55,0.29,0.58,0.44,0.55,0.88,0.48,0.25,0.55,0.5,0.58,0.61,0.55,0.6,0.4,0.55,0.5,0.58,0.29,0.5,0.5,0.33,0.29,0.55,0.58,0.55,0.29,0.48,0.56,0.48,0.29,0.25,0.55,0.5,0.58,0.61,0.55,0.29,0.58,0.33,0.48,0.4,0.5,0.44,0.33,0.29,0.55,0.58,0.55,0.55,0.33,0.55,0.83,0.79,0.52,0.55,0.5,0.58,0.61,0.55,0.88,0.55,0.58,0.33,0.58,0.29,0.56" style="fill:rgb(0,0,0);font-family:URWPalladioL-Roma;font-size:7.97px;stroke:none;">regression and adjusted for age, sex, monthly income, and urbanization level, and interaction of NOx and monthly</text>
   <text y="471.661" x="97.795,100.133,104.809,108.376,112.762,119.856,123.704" svgx:width="0.29,0.58,0.44,0.55,0.88,0.48,0.25" style="fill:rgb(0,0,0);font-family:URWPalladioL-Roma;font-size:7.97px;stroke:none;">income.</text>
   <text y="468.768" x="128.179" svgx:width="0.5" style="fill:rgb(0,0,0);font-family:URWPalladioL-Roma;font-size:5.98px;stroke:none;">3</text>
   <text y="471.661" x="133.646,139.896,144.805,146.685,151.529,154.936,157.555,161.403,166.2647,168.288,174.972,180.3119,182.323,189.023,193.04,196.38739999999999,198.423,201.99,206.007,208.345,211.912,216.756,219.094,223.111,225.73,229.578,234.43970000000002,236.471,240.914,245.3772,247.357,253.053,257.44,261.5844,263.57,268.398,271.427,275.813,280.642,285.028,288.201,290.82,293.158,297.545,302.221,306.237,308.54830000000004,310.552,315.227,319.244,323.261,327.278,330.307,335.1687,337.2,340.229,344.077,348.544,351.573,355.421,358.827,362.233,364.571,368.958,373.5806,375.61,379.627,384.302,389.1637,391.196,395.212,400.121,402.001,406.846,410.252,412.871,416.719,421.5807,423.604,426.279,430.666,433.854,435.824,439.841,444.307,448.156,450.1485,452.148,455.555,459.403,463.548,465.5405,467.533,474.627,479.014,483.689,486.308,490.984,493.322" svgx:width="0.78,0.61,0.23,0.6,0.42,0.33,0.48,0.61,0.55,0.83,0.67,0.55,0.83,0.5,0.42,0.55,0.44,0.5,0.29,0.44,0.6,0.29,0.5,0.33,0.48,0.61,0.55,0.55,0.56,0.55,0.71,0.55,0.52,0.55,0.6,0.4,0.55,0.6,0.55,0.4,0.33,0.29,0.55,0.58,0.5,0.29,0.55,0.58,0.5,0.5,0.5,0.4,0.61,0.55,0.4,0.48,0.56,0.4,0.48,0.42,0.42,0.29,0.55,0.58,0.55,0.5,0.58,0.61,0.55,0.5,0.61,0.23,0.6,0.42,0.33,0.48,0.61,0.55,0.33,0.55,0.4,0.55,0.5,0.56,0.48,0.25,0.55,0.42,0.48,0.52,0.25,0.55,0.88,0.55,0.58,0.33,0.58,0.29,0.56" style="fill:rgb(0,0,0);font-family:URWPalladioL-Roma;font-size:7.97px;stroke:none;">Adjusted HR was calculated by Cox proportional hazard regression and adjusted for age, sex, monthly</text>
   <text y="481.126" x="97.795,100.156,104.878,108.481,112.911,120.075,123.961,125.9535,127.986,132.878,136.083,140.57,144.626,149.349,151.71,155.766,159.823,162.468,164.829,169.259,173.8816,175.977,178.338,182.225,186.809,190.695,193.056,195.04850000000002,197.081,201.137,205.86,210.72170000000003,212.813,215.174,219.896,222.541,226.427,229.632,233.689,237.291,239.937,242.298,246.728,251.35060000000001,253.446,257.876,260.5061,262.581,269.324,275.6203,277.697,281.754,286.476,291.3377,293.429,298.322,301.527,306.013,310.07,314.792,317.153,321.21,325.267,327.912,330.273,334.703,339.32559999999995,341.421,343.782,347.669,352.253,356.139,358.5" svgx:width="0.29,0.58,0.44,0.55,0.88,0.48,0.25,0.55,0.6,0.4,0.55,0.5,0.58,0.29,0.5,0.5,0.33,0.29,0.55,0.58,0.55,0.29,0.48,0.56,0.48,0.29,0.25,0.55,0.5,0.58,0.61,0.55,0.29,0.58,0.33,0.48,0.4,0.5,0.44,0.33,0.29,0.55,0.58,0.55,0.55,0.33,0.55,0.83,0.79,0.55,0.5,0.58,0.61,0.55,0.6,0.4,0.55,0.5,0.58,0.29,0.5,0.5,0.33,0.29,0.55,0.58,0.55,0.29,0.48,0.56,0.48,0.29,0.25" style="fill:rgb(0,0,0);font-family:URWPalladioL-Roma;font-size:7.97px;stroke:none;">income, urbanization level, and interaction of NO and urbanization level.</text>
   <text y="478.233" x="363.009" svgx:width="0.5" style="fill:rgb(0,0,0);font-family:URWPalladioL-Roma;font-size:5.98px;stroke:none;">4</text>
   <text y="481.126" x="368.493,374.805,379.763,381.661,386.554,389.994,392.639,396.525,401.38669999999996,403.479,410.229,415.5689,417.645,424.412,428.469,431.8164,433.905,437.507,441.564,443.925,447.527,452.42,454.781,458.838,461.483,465.369,470.2307,472.322,476.809,481.2722,483.316,489.069,493.499" svgx:width="0.78,0.61,0.23,0.6,0.42,0.33,0.48,0.61,0.55,0.83,0.67,0.55,0.83,0.5,0.42,0.55,0.44,0.5,0.29,0.44,0.6,0.29,0.5,0.33,0.48,0.61,0.55,0.55,0.56,0.55,0.71,0.55,0.52" style="fill:rgb(0,0,0);font-family:URWPalladioL-Roma;font-size:7.97px;stroke:none;">Adjusted HR was calculated by Cox</text>
   <text y="490.59" x="97.556,102.413,105.46,109.872,114.73,119.142,122.334,124.969,127.321,131.733,136.437,140.478,142.7893,144.834,149.537,153.578,157.619,161.66,164.707,169.5687,171.649,174.696,178.567,183.06,186.107,189.978,193.405,196.831,199.183,203.596,208.2186,210.304,214.344,219.048,223.90970000000002,225.99,230.031,234.969,236.86,241.733,245.16,247.794,251.666,256.5277,258.608,261.299,265.712,268.9,270.9,274.941,279.434,283.305,285.2975,287.33,290.757,294.628,298.798,300.7905,302.823,309.959,314.371,319.075,321.71,326.413,328.765,333.2282,335.263,337.614,342.318,345.906,350.319,357.455,361.326,363.31850000000003,365.351,370.224,373.416,377.885,381.926,386.63,388.982,393.022,397.063,399.698,402.05,406.462,411.08459999999997,413.17,415.522,419.393,423.959,427.83,430.182,432.1745,434.207,438.247,442.951,447.8127,449.893,452.245,456.948,459.583,463.454,466.646,470.687,474.276,476.902,479.254,483.666,488.2886,490.374,494.787" svgx:width="0.6,0.4,0.55,0.6,0.55,0.4,0.33,0.29,0.55,0.58,0.5,0.29,0.55,0.58,0.5,0.5,0.5,0.4,0.61,0.55,0.4,0.48,0.56,0.4,0.48,0.42,0.42,0.29,0.55,0.58,0.55,0.5,0.58,0.61,0.55,0.5,0.61,0.23,0.6,0.42,0.33,0.48,0.61,0.55,0.33,0.55,0.4,0.55,0.5,0.56,0.48,0.25,0.55,0.42,0.48,0.52,0.25,0.55,0.88,0.55,0.58,0.33,0.58,0.29,0.56,0.55,0.29,0.58,0.44,0.55,0.88,0.48,0.25,0.55,0.6,0.4,0.55,0.5,0.58,0.29,0.5,0.5,0.33,0.29,0.55,0.58,0.55,0.29,0.48,0.56,0.48,0.29,0.25,0.55,0.5,0.58,0.61,0.55,0.29,0.58,0.33,0.48,0.4,0.5,0.44,0.33,0.29,0.55,0.58,0.55,0.55,0.33" style="fill:rgb(0,0,0);font-family:URWPalladioL-Roma;font-size:7.97px;stroke:none;">proportional hazard regression and adjusted for age, sex, monthly income, urbanization level, and interaction of</text>
   <text y="500.055" x="97.795,104.484,110.7803,112.808,116.833,121.518,126.3797,128.433,135.541,139.936,144.621,147.245,151.93,154.272,158.7352,160.752,163.095,167.78,171.354,175.749,182.857,186.713" svgx:width="0.83,0.79,0.55,0.5,0.58,0.61,0.55,0.88,0.55,0.58,0.33,0.58,0.29,0.56,0.55,0.29,0.58,0.44,0.55,0.88,0.48,0.25" style="fill:rgb(0,0,0);font-family:URWPalladioL-Roma;font-size:7.97px;stroke:none;">NO and monthly income.</text>
   <text y="497.162" x="191.209" svgx:width="0.5" style="fill:rgb(0,0,0);font-family:URWPalladioL-Roma;font-size:5.98px;stroke:none;">5</text>
   <text y="500.055" x="196.694,202.957,207.875,209.759,214.613,218.026,220.65,224.506,229.3677,231.421,238.118,243.4579,245.492,252.205,256.23,259.5774,261.64,265.214,269.239,271.581,275.155,280.009,282.352,286.377,289.001,292.857,297.7187,299.78,304.231,308.6942,310.703,316.411,320.806,324.9504,326.956,331.794,334.828,339.224,344.062,348.457,351.636,354.261,356.603,360.998,365.683,369.708,372.01930000000004,374.047,378.732,382.757,386.782,390.807,393.842,398.70369999999997,400.764,403.799,407.655,412.131,415.165,419.021,422.434,425.848,428.19,432.585,437.20759999999996,439.267,443.292,447.977,452.83869999999996,454.891,458.916,463.835,465.718,470.572,473.985,476.61,480.466,485.3277,487.38,490.061,494.456" svgx:width="0.78,0.61,0.23,0.6,0.42,0.33,0.48,0.61,0.55,0.83,0.67,0.55,0.83,0.5,0.42,0.55,0.44,0.5,0.29,0.44,0.6,0.29,0.5,0.33,0.48,0.61,0.55,0.55,0.56,0.55,0.71,0.55,0.52,0.55,0.6,0.4,0.55,0.6,0.55,0.4,0.33,0.29,0.55,0.58,0.5,0.29,0.55,0.58,0.5,0.5,0.5,0.4,0.61,0.55,0.4,0.48,0.56,0.4,0.48,0.42,0.42,0.29,0.55,0.58,0.55,0.5,0.58,0.61,0.55,0.5,0.61,0.23,0.6,0.42,0.33,0.48,0.61,0.55,0.33,0.55,0.4" style="fill:rgb(0,0,0);font-family:URWPalladioL-Roma;font-size:7.97px;stroke:none;">Adjusted HR was calculated by Cox proportional hazard regression and adjusted for</text>
   <text y="509.519" x="97.795,101.732,106.11,109.882,111.87450000000001,113.835,117.174,120.946,125.009,127.00150000000001,128.962,135.915,140.215,144.798,147.365,151.948,154.239,158.7022,160.602,162.893,167.476,170.972,175.272,182.225,185.997,187.98950000000002,189.95,194.698,197.808,202.163,206.1,210.683,212.975,216.912,220.849,223.416,225.708,230.007,234.6296,236.574,238.866,242.638,247.087,250.859,253.15,255.1425,257.103,259.395,263.978,266.545,270.317,273.427,277.364,280.86,283.427,285.719,290.018,294.64059999999995,296.578,300.877,303.50710000000004,305.484,310.24" svgx:width="0.5,0.56,0.48,0.25,0.55,0.42,0.48,0.52,0.25,0.55,0.88,0.55,0.58,0.33,0.58,0.29,0.56,0.55,0.29,0.58,0.44,0.55,0.88,0.48,0.25,0.55,0.6,0.4,0.55,0.5,0.58,0.29,0.5,0.5,0.33,0.29,0.55,0.58,0.55,0.29,0.48,0.56,0.48,0.29,0.25,0.55,0.29,0.58,0.33,0.48,0.4,0.5,0.44,0.33,0.29,0.55,0.58,0.55,0.55,0.33,0.55,0.6,0.95" style="fill:rgb(0,0,0);font-family:URWPalladioL-Roma;font-size:7.97px;stroke:none;">age, sex, monthly income, urbanization level, interaction of PM</text>
   <text y="510.92" x="317.69,320.679,322.173" svgx:width="0.5,0.25,0.5" style="fill:rgb(0,0,0);font-family:URWPalladioL-Roma;font-size:5.98px;stroke:none;">2.5</text>
   <text y="509.519" x="327.643,331.58,336.163,341.0247,342.959,346.896,351.274,355.046,357.0385,358.999,361.291,365.874,368.441,372.213,375.323,379.26,382.756,385.323,387.615,391.914,396.53659999999996,398.482,402.781,405.41110000000003,407.38,412.136" svgx:width="0.5,0.58,0.61,0.55,0.5,0.56,0.48,0.25,0.55,0.29,0.58,0.33,0.48,0.4,0.5,0.44,0.33,0.29,0.55,0.58,0.55,0.55,0.33,0.55,0.6,0.95" style="fill:rgb(0,0,0);font-family:URWPalladioL-Roma;font-size:7.97px;stroke:none;">and age, interaction of PM</text>
   <text y="510.92" x="419.588,422.577,424.071" svgx:width="0.5,0.25,0.5" style="fill:rgb(0,0,0);font-family:URWPalladioL-Roma;font-size:5.98px;stroke:none;">2.5</text>
   <text y="509.519" x="429.541,433.478,438.061,442.92269999999996,444.857,448.196,451.967,456.031,458.0235,459.984,462.275,466.858,469.425,473.197,476.307,480.245,483.741,486.308,488.6,492.899" svgx:width="0.5,0.58,0.61,0.55,0.42,0.48,0.52,0.25,0.55,0.29,0.58,0.33,0.48,0.4,0.5,0.44,0.33,0.29,0.55,0.58" style="fill:rgb(0,0,0);font-family:URWPalladioL-Roma;font-size:7.97px;stroke:none;">and sex, interaction</text>
   <text y="518.984" x="97.795,102.147,104.7771,106.793,111.607" svgx:width="0.55,0.33,0.55,0.6,0.95" style="fill:rgb(0,0,0);font-family:URWPalladioL-Roma;font-size:7.97px;stroke:none;">of PM</text>
   <text y="520.385" x="119.147,122.136,123.63" svgx:width="0.5,0.25,0.5" style="fill:rgb(0,0,0);font-family:URWPalladioL-Roma;font-size:5.98px;stroke:none;">2.5</text>
   <text y="518.984" x="129.11,133.095,137.734,142.59570000000002,144.596,151.633,155.985,160.624,163.222,167.861,170.18,174.6432,176.604,178.923,183.562,187.1,191.452,198.49,202.307,204.2995,206.292,210.277,214.916,219.7777,221.778,224.098,228.736,231.334,235.152,238.3,242.285,245.824,248.422,250.742,255.093,259.7156,261.724,266.076,268.70610000000005,270.723,275.537" svgx:width="0.5,0.58,0.61,0.55,0.88,0.55,0.58,0.33,0.58,0.29,0.56,0.55,0.29,0.58,0.44,0.55,0.88,0.48,0.25,0.55,0.5,0.58,0.61,0.55,0.29,0.58,0.33,0.48,0.4,0.5,0.44,0.33,0.29,0.55,0.58,0.55,0.55,0.33,0.55,0.6,0.95" style="fill:rgb(0,0,0);font-family:URWPalladioL-Roma;font-size:7.97px;stroke:none;">and monthly income, and interaction of PM</text>
   <text y="520.385" x="283.075,286.064,287.558" svgx:width="0.5,0.25,0.5" style="fill:rgb(0,0,0);font-family:URWPalladioL-Roma;font-size:5.98px;stroke:none;">2.5</text>
   <text y="518.984" x="293.037,297.022,301.661,306.5227,308.523,313.329,316.477,320.885,324.87,329.508,331.828,335.813,339.798,342.396,344.715,349.067,353.6896,355.698,358.017,361.835,366.338,370.156,372.475,374.46750000000003,376.938" svgx:width="0.5,0.58,0.61,0.55,0.6,0.4,0.55,0.5,0.58,0.29,0.5,0.5,0.33,0.29,0.55,0.58,0.55,0.29,0.48,0.56,0.48,0.29,0.25,0.55,0.39" style="fill:rgb(0,0,0);font-family:URWPalladioL-Roma;font-size:7.97px;stroke:none;">and urbanization level. *</text>
   <text y="518.984" x="382.031" svgx:width="0.5" style="fill:rgb(0,0,0);font-family:URWPalladioL-Ital;font-size:7.97px;stroke:none;">p</text>
   <text y="518.984" x="388.008,392.86969999999997,394.83,398.815,400.808,404.793,408.778,410.7705,412.763,415.863" svgx:width="0.61,0.55,0.5,0.25,0.5,0.5,0.25,0.55,0.39,0.39" style="fill:rgb(0,0,0);font-family:URWPalladioL-Roma;font-size:7.97px;stroke:none;">&lt; 0.05; **</text>
   <text y="518.984" x="420.956" svgx:width="0.5" style="fill:rgb(0,0,0);font-family:URWPalladioL-Ital;font-size:7.97px;stroke:none;">p</text>
   <text y="518.984" x="426.934,431.7957,433.756,437.741,439.734,443.719,447.704,449.6965,451.689,454.789,457.89" svgx:width="0.61,0.55,0.5,0.25,0.5,0.5,0.25,0.55,0.39,0.39,0.39" style="fill:rgb(0,0,0);font-family:URWPalladioL-Roma;font-size:7.97px;stroke:none;">&lt; 0.01; ***</text>
   <text y="518.984" x="462.983" svgx:width="0.5" style="fill:rgb(0,0,0);font-family:URWPalladioL-Ital;font-size:7.97px;stroke:none;">p</text>
   <text y="518.984" x="468.96,473.82169999999996,475.782,479.767,481.76,485.745,489.73,493.715" svgx:width="0.61,0.55,0.5,0.25,0.5,0.5,0.5,0.25" style="fill:rgb(0,0,0);font-family:URWPalladioL-Roma;font-size:7.97px;stroke:none;">&lt; 0.001.</text>
   <text y="544.198" x="97.499,102.484,106.968,112.446,115.432,119.917,122.157,126.64" svgx:width="0.67,0.5,0.61,0.33,0.5,0.55,0.5,0.25" style="fill:rgb(0,0,0);font-family:URWPalladioL-Bold;font-size:8.97px;stroke:none;">Table 4.</text>
   <text y="544.198" x="131.672,138.619,141.231,144.058,147.047,151.346,154.73,159.029,164.253,168.238,172.537,176.30440000000002,178.586,181.198,186.4006,188.666,193.889,198.188,203.583,208.806,212.19,217.091,220.016,222.628,226.57479999999998,228.857,232.663,237.653,242.877,248.361,251.744,256.645,264.57,268.8756,271.113,273.725,278.949,282.934,285.546,291.03,295.329,300.552,304.538,308.837,312.6044,314.886,319.374,324.597,330.0687,332.325,336.813,340.618,344.424,349.325,353.31,355.921,360.409,363.335,367.634,373.1057,375.362,382.83,388.825,392.5924,394.874,397.486,402.6886,404.954,410.348,414.836,418.381,421.307,423.919,427.904,430.516,435.91,440.398,445.621,448.547,452.31440000000003,454.597,458.896,463.527,468.921,473.822,477.627,481.927,487.3987,489.654,492.58" svgx:width="0.77,0.29,0.33,0.33,0.48,0.4,0.48,0.58,0.44,0.48,0.42,0.55,0.29,0.58,0.55,0.58,0.48,0.6,0.58,0.4,0.55,0.33,0.29,0.44,0.55,0.42,0.56,0.58,0.61,0.4,0.55,0.88,0.48,0.55,0.29,0.58,0.44,0.29,0.61,0.48,0.58,0.44,0.48,0.42,0.55,0.5,0.58,0.61,0.55,0.5,0.42,0.42,0.55,0.44,0.29,0.5,0.33,0.48,0.61,0.55,0.83,0.67,0.42,0.55,0.29,0.58,0.55,0.6,0.5,0.4,0.33,0.29,0.44,0.29,0.6,0.5,0.58,0.33,0.42,0.55,0.48,0.52,0.6,0.55,0.42,0.48,0.61,0.55,0.33,0.55" style="fill:rgb(0,0,0);font-family:URWPalladioL-Roma;font-size:8.97px;stroke:none;">Differences in nephrotic syndrome incidences and associated HRs in participants exposed to</text>
   <text y="557.02" x="97.795,103.273,107.757,110.366,112.975,117.9982,120.202,124.685,129.751,134.046,137.588,142.071,147.056,151.3616,153.593,157.574,162.47,167.688,171.669,175.964,181.183,184.106,187.647,192.131,195.054,197.663,202.558,207.777,211.5444,213.82,218.716,221.67610000000002,223.943,229.359" svgx:width="0.61,0.5,0.29,0.29,0.56,0.55,0.5,0.56,0.48,0.4,0.5,0.56,0.48,0.55,0.44,0.55,0.58,0.44,0.48,0.58,0.33,0.4,0.5,0.33,0.29,0.55,0.58,0.42,0.55,0.55,0.33,0.55,0.6,0.95" style="fill:rgb(0,0,0);font-family:URWPalladioL-Roma;font-size:8.97px;stroke:none;">daily average concentrations of PM</text>
   <text y="558.769" x="237.839,241.326,243.069" svgx:width="0.5,0.25,0.5" style="fill:rgb(0,0,0);font-family:URWPalladioL-Roma;font-size:6.97px;stroke:none;">2.5</text>
   <text y="557.02" x="249.296,253.098,256.021,259.563,264.046,266.969,269.578,272.564,277.5872,279.791,284.749,289.7722,291.976,294.962,299.858,302.467,305.076,309.972,317.45,320.435,325.842,331.224,333.473,338.861,343.156,346.698,349.307,354.203,359.681" svgx:width="0.42,0.33,0.4,0.5,0.33,0.29,0.33,0.56,0.55,0.55,0.56,0.55,0.33,0.55,0.29,0.29,0.55,0.83,0.33,0.6,0.6,0.55,0.6,0.48,0.4,0.29,0.55,0.61,0.25" style="fill:rgb(0,0,0);font-family:URWPalladioL-Roma;font-size:8.97px;stroke:none;">stratify by follow-up period.</text>
  </g>
  <path style="fill:none;stroke:rgb(0,0,0);stroke-width:0.72;" d="M162.940 567.240 L432.340 567.240 "/>
  <g begin="text">
   <text y="578.1" x="221.835,225.816,233.285,239.7434,269.787,274.271,278.754,286.725,293.199,296.69730000000004,333.664,338.147,345.616,352.07439999999997,385.472,389.955,394.438,402.409,408.883" svgx:width="0.44,0.83,0.72,0.55,0.5,0.5,0.89,0.72,0.39,0.55,0.5,0.83,0.72,0.55,0.5,0.5,0.89,0.72,0.39" style="fill:rgb(0,0,0);font-family:URWPalladioL-Bold;font-size:8.97px;stroke:none;">cHR 95%CI aHR 95%CI</text>
  </g>
  <path style="fill:none;stroke:rgb(0,0,0);stroke-width:0.8;" d="M162.940 583.300 L432.340 583.300 "/>
  <g begin="text">
   <text y="593.91" x="177.326,182.804" svgx:width="0.61,1.0" style="fill:rgb(0,0,0);font-family:URWPalladioL-Bold;font-size:8.97px;stroke:none;">PM</text>
   <text y="595.502" x="191.771,195.258,197.001" svgx:width="0.5,0.25,0.5" style="fill:rgb(0,0,0);font-family:URWPalladioL-Bold;font-size:6.97px;stroke:none;">2.5</text>
  </g>
  <path style="fill:none;stroke:rgb(0,0,0);stroke-width:0.3;" d="M162.940 599.110 L432.340 599.110 "/>
  <g begin="text">
   <text y="609.721" x="254.559,259.544,264.44,267.049,269.658,274.554,282.032,285.018,290.425,295.807,298.055,303.444,307.739,311.28,313.89,318.785" svgx:width="0.56,0.55,0.29,0.29,0.55,0.83,0.33,0.6,0.6,0.55,0.6,0.48,0.4,0.29,0.55,0.61" style="fill:rgb(0,0,0);font-family:URWPalladioL-Roma;font-size:8.97px;stroke:none;">Follow-up period</text>
   <text y="609.721" x="326.617" svgx:width="0.78" style="fill:rgb(0,0,0);font-family:CMSY10;font-size:9.34px;stroke:none;">≤</text>
   <text y="609.721" x="336.233" svgx:width="0.5" style="fill:rgb(0,0,0);font-family:URWPalladioL-Roma;font-size:8.97px;stroke:none;">6</text>
  </g>
  <path style="fill:none;stroke:rgb(0,0,0);stroke-width:0.3;" d="M162.940 614.920 L432.340 614.920 "/>
  <g begin="text">
   <text y="625.531" x="183.391,190.439,194.924,223.04,229.03,233.325,236.311,238.5535,335.12,341.11,345.405,348.391" svgx:width="0.79,0.5,0.55,0.67,0.48,0.33,0.25,0.55,0.67,0.48,0.33,0.25" style="fill:rgb(0,0,0);font-family:URWPalladioL-Roma;font-size:8.97px;stroke:none;">Q1 Ref. Ref.</text>
   <text y="636.54" x="183.391,190.439,194.924,222.951,227.434,229.676,234.159,238.644,262.322,265.308,269.791,272.033,276.516,280.999,283.24150000000003,285.482,289.966,292.207,296.69,301.174,304.1341,335.031,339.514,341.756,346.239,350.724,377.998,380.984,385.467,387.708,392.192,396.675,398.9175,401.158,405.641,407.883,412.366,416.849" svgx:width="0.79,0.5,0.55,0.5,0.25,0.5,0.5,0.55,0.33,0.5,0.25,0.5,0.5,0.25,0.55,0.5,0.25,0.5,0.5,0.33,0.55,0.5,0.25,0.5,0.5,0.55,0.33,0.5,0.25,0.5,0.5,0.25,0.55,0.5,0.25,0.5,0.5,0.33" style="fill:rgb(0,0,0);font-family:URWPalladioL-Roma;font-size:8.97px;stroke:none;">Q2 0.63 (0.38, 1.03) 0.73 (0.36, 1.44)</text>
   <text y="647.548" x="183.391,190.439,194.924,222.951,227.434,229.676,234.159,238.644,262.322,265.308,269.791,272.033,276.516,280.999,283.24150000000003,285.482,289.966,292.207,296.69,301.174,304.1341,335.031,339.514,341.756,346.239,350.724,377.998,380.984,385.467,387.708,392.192,396.675,398.9175,401.158,405.641,407.883,412.366,416.849" svgx:width="0.79,0.5,0.55,0.5,0.25,0.5,0.5,0.55,0.33,0.5,0.25,0.5,0.5,0.25,0.55,0.5,0.25,0.5,0.5,0.33,0.55,0.5,0.25,0.5,0.5,0.55,0.33,0.5,0.25,0.5,0.5,0.25,0.55,0.5,0.25,0.5,0.5,0.33" style="fill:rgb(0,0,0);font-family:URWPalladioL-Roma;font-size:8.97px;stroke:none;">Q3 1.19 (0.80, 1.78) 1.53 (0.55, 4.22)</text>
   <text y="658.557" x="183.391,190.439,194.924,222.951,227.434,229.676,234.159,238.644,255.965,258.951,263.434,265.676,270.159,274.642,276.8845,279.125,283.609,285.85,290.333,294.817,297.7771,300.044,303.532,307.02,310.51829999999995,335.031,339.514,341.756,346.239,350.724,375.137,378.123,382.607,384.848,389.331,393.815,396.0575,398.298,402.781,407.264,409.506,413.989,416.9491,419.216" svgx:width="0.79,0.5,0.55,0.5,0.25,0.5,0.5,0.55,0.33,0.5,0.25,0.5,0.5,0.25,0.55,0.5,0.25,0.5,0.5,0.33,0.55,0.39,0.39,0.39,0.55,0.5,0.25,0.5,0.5,0.55,0.33,0.5,0.25,0.5,0.5,0.25,0.55,0.5,0.5,0.25,0.5,0.33,0.55,0.39" style="fill:rgb(0,0,0);font-family:URWPalladioL-Roma;font-size:8.97px;stroke:none;">Q4 3.31 (2.38, 4.59) *** 4.23 (1.02, 17.6) *</text>
  </g>
  <path style="fill:none;stroke:rgb(0,0,0);stroke-width:0.3;" d="M162.940 663.760 L432.340 663.760 "/>
  <g begin="text">
   <text y="674.368" x="255.586,260.571,265.467,268.076,270.685,275.581,283.059,286.045,291.452,296.834,299.082,304.471,308.766,312.307,314.917,319.812,325.2837,327.532,333.0037,335.208" svgx:width="0.56,0.55,0.29,0.29,0.55,0.83,0.33,0.6,0.6,0.55,0.6,0.48,0.4,0.29,0.55,0.61,0.55,0.61,0.55,0.5" style="fill:rgb(0,0,0);font-family:URWPalladioL-Roma;font-size:8.97px;stroke:none;">Follow-up period &gt; 6</text>
  </g>
  <path style="fill:none;stroke:rgb(0,0,0);stroke-width:0.3;" d="M162.940 679.570 L432.340 679.570 "/>
  <g begin="text">
   <text y="690.178" x="183.391,190.439,194.924,223.04,229.03,233.325,236.311,238.5535,335.12,341.11,345.405,348.391" svgx:width="0.79,0.5,0.55,0.67,0.48,0.33,0.25,0.55,0.67,0.48,0.33,0.25" style="fill:rgb(0,0,0);font-family:URWPalladioL-Roma;font-size:8.97px;stroke:none;">Q1 Ref. Ref.</text>
   <text y="701.187" x="183.391,190.439,194.924,222.951,227.434,229.676,234.159,238.644,255.965,258.951,263.434,265.676,270.159,274.642,276.8845,279.125,283.609,285.85,290.333,294.817,297.7771,300.044,303.532,307.02,310.51829999999995,335.031,339.514,341.756,346.239,350.724,375.137,378.123,382.607,384.848,389.331,393.815,396.0575,398.298,402.781,405.023,409.506,413.989,416.9491,419.216" svgx:width="0.79,0.5,0.55,0.5,0.25,0.5,0.5,0.55,0.33,0.5,0.25,0.5,0.5,0.25,0.55,0.5,0.25,0.5,0.5,0.33,0.55,0.39,0.39,0.39,0.55,0.5,0.25,0.5,0.5,0.55,0.33,0.5,0.25,0.5,0.5,0.25,0.55,0.5,0.25,0.5,0.5,0.33,0.55,0.39" style="fill:rgb(0,0,0);font-family:URWPalladioL-Roma;font-size:8.97px;stroke:none;">Q2 1.67 (1.25, 2.23) *** 1.65 (1.04, 2.61) *</text>
   <text y="712.195" x="183.391,190.439,194.924,222.951,227.434,229.676,234.159,238.644,255.965,258.951,263.434,265.676,270.159,274.642,276.8845,279.125,283.609,285.85,290.333,294.817,297.7771,300.044,303.532,307.02,310.51829999999995,335.031,339.514,341.756,346.239,350.724,375.137,378.123,382.607,384.848,389.331,393.815,396.0575,398.298,402.781,405.023,409.506,413.989,416.9491,419.216" svgx:width="0.79,0.5,0.55,0.5,0.25,0.5,0.5,0.55,0.33,0.5,0.25,0.5,0.5,0.25,0.55,0.5,0.25,0.5,0.5,0.33,0.55,0.39,0.39,0.39,0.55,0.5,0.25,0.5,0.5,0.55,0.33,0.5,0.25,0.5,0.5,0.25,0.55,0.5,0.25,0.5,0.5,0.33,0.55,0.39" style="fill:rgb(0,0,0);font-family:URWPalladioL-Roma;font-size:8.97px;stroke:none;">Q3 2.42 (1.85, 3.15) *** 2.16 (1.02, 4.55) *</text>
   <text y="723.204" x="183.391,190.439,194.924,222.951,227.434,229.676,234.159,238.644,255.965,258.951,263.434,265.676,270.159,274.642,276.8845,279.125,283.609,285.85,290.333,294.817,297.7771,300.044,303.532,307.02,310.51829999999995,335.031,339.514,341.756,346.239,350.724,377.998,380.984,385.467,387.708,392.192,396.675,398.9175,401.158,405.641,407.883,412.366,416.849" svgx:width="0.79,0.5,0.55,0.5,0.25,0.5,0.5,0.55,0.33,0.5,0.25,0.5,0.5,0.25,0.55,0.5,0.25,0.5,0.5,0.33,0.55,0.39,0.39,0.39,0.55,0.5,0.25,0.5,0.5,0.55,0.33,0.5,0.25,0.5,0.5,0.25,0.55,0.5,0.25,0.5,0.5,0.33" style="fill:rgb(0,0,0);font-family:URWPalladioL-Roma;font-size:8.97px;stroke:none;">Q4 2.45 (1.88, 3.19) *** 1.93 (0.66, 5.68)</text>
  </g>
  <path style="fill:none;stroke:rgb(0,0,0);stroke-width:0.3;" d="M162.940 728.660 L432.340 728.660 "/>
  <g begin="text">
   <text y="737.721" x="97.795,103.94,107.925,109.844,114.7057,116.568,121.298,124.386,127.701,130.3311,132.244,136.622,141.337,145.246,148.335,150.884,153.159,155.434,159.179,161.1715,163.597,169.742,173.727,175.645,180.50670000000002,182.377,185.692,189.43,192.901,197.17,201.721,206.58270000000002,208.492,212.87,217.585,221.494,224.583,227.131,229.407,231.682,235.427,237.4195,239.852,245.998,249.983,251.893,256.7547,258.625,261.174,265.724,268.0,270.947,275.8087,277.71,282.089,286.804,290.713,293.801,296.35,298.625,300.901,304.646,306.6385,309.071,315.217,319.202,321.112,325.9737,327.844,330.447,334.716,339.431,342.519,345.068,349.69059999999996,351.605,355.983,360.698,364.607,367.695,370.244,372.52,374.795,378.54,380.5325,382.965,386.437,392.942,398.2819,400.159,405.0207,406.883,410.354,413.38,418.095,422.872,426.6976,428.611,433.161,437.071,440.98,444.889,447.829,452.6907,454.6,457.688,461.598,464.147,466.422,470.691,472.6835,475.116,479.026,485.531,490.8709,492.74" svgx:width="0.79,0.5,0.55,0.61,0.55,0.61,0.4,0.42,0.33,0.55,0.56,0.6,0.5,0.4,0.33,0.29,0.29,0.48,0.25,0.55,0.79,0.5,0.55,0.61,0.55,0.42,0.48,0.44,0.55,0.58,0.61,0.55,0.56,0.6,0.5,0.4,0.33,0.29,0.29,0.48,0.25,0.55,0.79,0.5,0.55,0.61,0.55,0.33,0.58,0.29,0.4,0.61,0.55,0.56,0.6,0.5,0.4,0.33,0.29,0.29,0.48,0.25,0.55,0.79,0.5,0.55,0.61,0.55,0.33,0.55,0.6,0.4,0.33,0.58,0.55,0.56,0.6,0.5,0.4,0.33,0.29,0.29,0.48,0.25,0.55,0.44,0.83,0.67,0.55,0.61,0.55,0.44,0.4,0.6,0.61,0.48,0.55,0.58,0.5,0.5,0.5,0.4,0.61,0.55,0.4,0.5,0.33,0.29,0.55,0.25,0.55,0.5,0.83,0.67,0.55,0.61" style="fill:rgb(0,0,0);font-family:URWPalladioL-Roma;font-size:7.97px;stroke:none;">Q1 = ﬁrst quartile. Q2 = second quartile. Q3 = third quartile. Q4 = fourth quartile. cHR = crude hazard ratio. aHR =</text>
   <text y="747.186" x="97.795,101.776,106.641,108.504,113.305,116.681,119.277,123.091,127.9527,129.954,134.588,138.569,142.55,146.531,149.533,154.3947,156.396,159.541,163.522,166.118,168.435,172.8185,174.781,179.128,181.75809999999998,183.778,187.763,189.758,196.788,201.589,203.906,206.502,208.819,213.318,217.299,220.444,222.761,226.742,229.337,233.1626,235.15,239.131,243.765,247.746,250.063,254.49,257.866,260.183,263.559,265.55150000000003,267.556,271.537,274.18,276.776,280.59,283.77799999999996,285.741,289.722,294.587,296.45,301.251,304.627,307.223,314.253,318.059,322.693,325.3231,327.295,329.947,334.294,337.48199999999997,339.438,343.419,347.846,351.66,353.65250000000003,355.649,359.025,362.839,366.947,368.9395,370.936,377.967,382.314,386.948,389.543,394.177,396.494,400.95720000000006,402.92,405.237,409.871,413.406,417.753,424.784,428.598,430.5905,432.587,437.388,440.533,444.936,448.917,453.551,455.868,459.849,463.83,466.426,468.743,473.09,477.71259999999995,479.723,482.04,485.854,490.352,494.166,496.483" svgx:width="0.5,0.61,0.23,0.6,0.42,0.33,0.48,0.61,0.55,0.58,0.5,0.5,0.5,0.4,0.61,0.55,0.4,0.5,0.33,0.29,0.55,0.55,0.55,0.33,0.55,0.5,0.55,0.88,0.6,0.29,0.33,0.29,0.56,0.5,0.4,0.29,0.5,0.33,0.48,0.55,0.5,0.58,0.5,0.29,0.56,0.42,0.29,0.42,0.25,0.55,0.5,0.33,0.33,0.48,0.4,0.55,0.5,0.61,0.23,0.6,0.42,0.33,0.88,0.48,0.58,0.33,0.55,0.33,0.55,0.4,0.55,0.5,0.56,0.48,0.25,0.55,0.42,0.48,0.52,0.25,0.55,0.88,0.55,0.58,0.33,0.58,0.29,0.56,0.55,0.29,0.58,0.44,0.55,0.88,0.48,0.25,0.55,0.6,0.4,0.55,0.5,0.58,0.29,0.5,0.5,0.33,0.29,0.55,0.58,0.55,0.29,0.48,0.56,0.48,0.29,0.25" style="fill:rgb(0,0,0);font-family:URWPalladioL-Roma;font-size:7.97px;stroke:none;">adjusted hazard ratio of a multivariate analysis, after adjustment for age, sex, monthly income, urbanization level,</text>
   <text y="756.65" x="97.795,100.068,104.614,107.16,110.901,113.987,117.892,121.36,123.906,126.179,130.444,135.0666,136.966,141.23,143.8601,145.815,150.533" svgx:width="0.29,0.58,0.33,0.48,0.4,0.5,0.44,0.33,0.29,0.55,0.58,0.55,0.55,0.33,0.55,0.6,0.95" style="fill:rgb(0,0,0);font-family:URWPalladioL-Roma;font-size:7.97px;stroke:none;">interaction of PM</text>
   <text y="758.051" x="157.92,160.909,162.403" svgx:width="0.5,0.25,0.5" style="fill:rgb(0,0,0);font-family:URWPalladioL-Roma;font-size:5.98px;stroke:none;">2.5</text>
   <text y="756.65" x="167.869,171.774,176.32,181.1817,183.069,186.974,191.317,195.058,197.0505,198.995,201.268,205.813,208.36,212.101,215.186,219.092,222.559,225.106,227.379,231.643,236.2656,238.165,242.43,245.0601,247.015,251.732" svgx:width="0.5,0.58,0.61,0.55,0.5,0.56,0.48,0.25,0.55,0.29,0.58,0.33,0.48,0.4,0.5,0.44,0.33,0.29,0.55,0.58,0.55,0.55,0.33,0.55,0.6,0.95" style="fill:rgb(0,0,0);font-family:URWPalladioL-Roma;font-size:7.97px;stroke:none;">and age, interaction of PM</text>
   <text y="758.051" x="259.12,262.109,263.603" svgx:width="0.5,0.25,0.5" style="fill:rgb(0,0,0);font-family:URWPalladioL-Roma;font-size:5.98px;stroke:none;">2.5</text>
   <text y="756.65" x="269.069,272.974,277.52,282.38169999999997,284.269,287.58,291.322,295.352,297.3445,299.289,301.562,306.107,308.654,312.395,315.48,319.386,322.854,325.4,327.673,331.937,336.5596,338.459,342.724,345.3541,347.309,352.026" svgx:width="0.5,0.58,0.61,0.55,0.42,0.48,0.52,0.25,0.55,0.29,0.58,0.33,0.48,0.4,0.5,0.44,0.33,0.29,0.55,0.58,0.55,0.55,0.33,0.55,0.6,0.95" style="fill:rgb(0,0,0);font-family:URWPalladioL-Roma;font-size:7.97px;stroke:none;">and sex, interaction of PM</text>
   <text y="758.051" x="359.414,362.403,363.897" svgx:width="0.5,0.25,0.5" style="fill:rgb(0,0,0);font-family:URWPalladioL-Roma;font-size:5.98px;stroke:none;">2.5</text>
   <text y="756.65" x="369.363,373.268,377.814,382.6757,384.563,391.459,395.724,400.27,402.816,407.362,409.635,414.0982,415.962,418.235,422.78,426.248,430.513,437.41,441.151,443.1435,445.08,448.985,453.531,458.3927,460.287,462.56,467.106,469.652,473.394,476.479,480.384,483.852,486.399,488.672,492.936" svgx:width="0.5,0.58,0.61,0.55,0.88,0.55,0.58,0.33,0.58,0.29,0.56,0.55,0.29,0.58,0.44,0.55,0.88,0.48,0.25,0.55,0.5,0.58,0.61,0.55,0.29,0.58,0.33,0.48,0.4,0.5,0.44,0.33,0.29,0.55,0.58" style="fill:rgb(0,0,0);font-family:URWPalladioL-Roma;font-size:7.97px;stroke:none;">and monthly income, and interaction</text>
   <text y="766.115" x="97.795,102.147,104.7771,106.793,111.607" svgx:width="0.55,0.33,0.55,0.6,0.95" style="fill:rgb(0,0,0);font-family:URWPalladioL-Roma;font-size:7.97px;stroke:none;">of PM</text>
   <text y="767.516" x="119.147,122.136,123.63" svgx:width="0.5,0.25,0.5" style="fill:rgb(0,0,0);font-family:URWPalladioL-Roma;font-size:5.98px;stroke:none;">2.5</text>
   <text y="766.115" x="129.11,133.095,137.734,142.59570000000002,144.596,149.402,152.55,156.958,160.943,165.581,167.9,171.886,175.871,178.469,180.788,185.14,189.7626,191.771,194.09,197.908,202.411,206.229,208.548,210.5405,213.011,218.662,221.3718,223.34,228.20170000000002,230.163,233.702,238.053,242.692,247.514,252.384,256.201,260.84,264.379,268.2046,270.189,272.508,277.147,279.745,283.563,286.711,291.214,295.199,297.518,299.5105,301.982,307.306,311.123,313.777,315.7695,318.241,323.10269999999997,325.063,328.068,331.885,334.539,338.357,341.362,345.18,349.818,353.357,357.18260000000004,359.167,363.599,366.603,370.955,375.761,380.551,382.5435,385.014" svgx:width="0.5,0.58,0.61,0.55,0.6,0.4,0.55,0.5,0.58,0.29,0.5,0.5,0.33,0.29,0.55,0.58,0.55,0.29,0.48,0.56,0.48,0.29,0.25,0.55,0.71,0.34,0.55,0.61,0.55,0.44,0.55,0.58,0.61,0.61,0.48,0.58,0.44,0.48,0.55,0.29,0.58,0.33,0.48,0.4,0.56,0.5,0.29,0.25,0.55,0.67,0.48,0.33,0.25,0.55,0.61,0.55,0.4,0.48,0.33,0.48,0.4,0.48,0.58,0.44,0.48,0.55,0.56,0.4,0.55,0.6,0.6,0.25,0.55,0.39" style="fill:rgb(0,0,0);font-family:URWPalladioL-Roma;font-size:7.97px;stroke:none;">and urbanization level. CI = conﬁdence interval. Ref. = reference group. *</text>
   <text y="766.115" x="390.104" svgx:width="0.5" style="fill:rgb(0,0,0);font-family:URWPalladioL-Ital;font-size:7.97px;stroke:none;">p</text>
   <text y="766.115" x="396.082,400.9437,402.904,406.889,408.882,412.867,416.852,418.8445,420.837,423.938,427.038" svgx:width="0.61,0.55,0.5,0.25,0.5,0.5,0.25,0.55,0.39,0.39,0.39" style="fill:rgb(0,0,0);font-family:URWPalladioL-Roma;font-size:7.97px;stroke:none;">&lt; 0.05; ***</text>
   <text y="766.115" x="432.13" svgx:width="0.5" style="fill:rgb(0,0,0);font-family:URWPalladioL-Ital;font-size:7.97px;stroke:none;">p</text>
   <text y="766.115" x="438.108,442.9697,444.93,448.915,450.908,454.893,458.878,462.863" svgx:width="0.61,0.55,0.5,0.25,0.5,0.5,0.5,0.25" style="fill:rgb(0,0,0);font-family:URWPalladioL-Roma;font-size:7.97px;stroke:none;">&lt; 0.001.</text>
  </g>
 </g>
</svg>
