<?xml version="1.0" encoding="UTF-8"?>
<svg height="741.337" width="548.6170000000001" xmlns="http://www.w3.org/2000/svg">
 <g>
  <text y="311.358" x="64.687,71.213,76.309,80.844,85.224,89.713,93.996,96.434,101.736,105.959,109.114,113.524,118.034,121.19,126.368,130.778,135.325,141.96,146.834,153.773,157.153,161.533,166.62,170.393,175.294,178.969,184.025,187.18,189.58,194.069,198.47899999999998,202.96,207.341,212.314,214.752,217.3,219.685,222.84,227.25,231.76,236.856,239.698,244.233,248.613,252.85,257.23,262.522,267.079,275.242,279.623,283.293,288.396" svgx:width="0.67,0.52,0.55,0.45,0.46,0.45,0.26,0.54,0.45,0.32,0.45,0.55,0.32,0.54,0.45,0.55,0.68,0.56,0.71,0.36,0.45,0.53,0.38,0.52,0.38,0.53,0.32,0.26,0.46,0.45,0.55,0.45,0.52,0.26,0.26,0.26,0.32,0.45,0.55,0.52,0.29,0.55,0.45,0.45,0.45,0.54,0.55,0.83,0.45,0.38,0.5,0.22" style="fill:rgb(19,20,19);font-family:HxlkbcRwbtfvAdvTT86d47313;font-size:9.8px;stroke:none;" xmlns:svgx="http://www.xml-cml.org/schema/svgx">To evaluate the CPA-adsorptive ability of each mask,</text>
  <text y="323.319" x="56.693,63.327,68.145,75.103,77.783,82.164,87.08,92.49,96.719,101.099,106.357,109.512,113.046,117.427,120.417,122.965,127.9,133.309,137.033,139.749,142.297,147.687,150.407,153.563,158.684,163.094,165.827,173.991,178.371,182.041,186.634,190.201,192.586,200.749,208.8,213.181,216.68,220.453,224.674,229.868,232.668,236.441,241.342,243.89,249.052,252.208,254.608,259.704,264.983,268.707,271.503,278.333,282.558,286.233" svgx:width="0.68,0.56,0.71,0.55,0.45,0.52,0.55,0.45,0.45,0.55,0.32,0.38,0.45,0.32,0.26,0.52,0.55,0.38,0.55,0.26,0.55,0.55,0.32,0.54,0.45,0.55,0.83,0.45,0.38,0.5,0.36,0.26,0.83,0.83,0.45,0.38,0.38,0.45,0.53,0.55,0.38,0.52,0.26,0.54,0.32,0.26,0.52,0.55,0.38,0.55,0.7,0.45,0.38,0.45" style="fill:rgb(19,20,19);font-family:HxlkbcRwbtfvAdvTT86d47313;font-size:9.8px;stroke:none;" xmlns:svgx="http://www.xml-cml.org/schema/svgx">CPA concentrations in the mask-immersed solutions were</text>
  <text y="335.338" x="56.693,61.897,66.104,69.259,73.53,77.205,85.209,87.647,93.056,97.285,102.479,111.799,117.1,120.7,123.248,128.523,133.227,142.469,150.015,155.395,160.903,167.56699999999998,176.769,183.6,185.954,189.109,194.401,203.641,208.943,211.352,214.507,217.985,222.181,226.669,229.098,234.087,236.635,240.89,244.02599999999998,253.305,258.509,262.773,265.929,270.309,274.565,277.721,280.121,285.11" svgx:width="0.53,0.45,0.32,0.45,0.38,0.83,0.26,0.55,0.45,0.53,0.55,0.54,0.38,0.26,0.55,0.48,0.55,0.77,0.56,0.56,0.68,0.55,0.7,0.26,0.32,0.54,0.55,0.54,0.26,0.32,0.38,0.45,0.46,0.26,0.52,0.26,0.45,0.32,0.55,0.53,0.45,0.32,0.45,0.45,0.32,0.26,0.52,0.55" style="fill:rgb(19,20,19);font-family:HxlkbcRwbtfvAdvTT86d47313;font-size:9.8px;stroke:none;" xmlns:svgx="http://www.xml-cml.org/schema/svgx">determined using HPLC with ultraviolet detection</text>
  <text y="347.356" x="56.693,59.848,67.238,69.785,72.793,77.174,81.41,86.712,89.26,92.919,99.949,103.516,108.282,113.182,117.921,122.82100000000001,126.538,132.045,134.418,136.966,139.973,144.383,148.081,151.854,156.075,159.848,162.878,167.258,175.293,177.449,181.133,188.679,191.054,194.21,198.481,202.861,208.005,210.553,214.242,221.788,224.22,228.914,234.028,237.146,243.552,247.933,252.313,257.499,262.908,267.874,270.422,275.357,280.051,282.443,286.824" svgx:width="0.32,0.77,0.26,0.32,0.45,0.45,0.54,0.26,0.55,0.73,0.36,0.5,0.5,0.5,0.5,0.55,0.56,0.26,0.26,0.32,0.45,0.55,0.38,0.45,0.38,0.32,0.45,0.83,0.22,0.55,0.77,0.26,0.32,0.45,0.45,0.54,0.26,0.55,0.77,0.26,0.48,0.54,0.36,0.67,0.45,0.45,0.54,0.55,0.52,0.26,0.52,0.48,0.26,0.45,0.38" style="fill:rgb(19,20,19);font-family:HxlkbcRwbtfvAdvTT86d47313;font-size:9.8px;stroke:none;" xmlns:svgx="http://www.xml-cml.org/schema/svgx">(Hitachi D-2000 Elite system; Hitachi High-Technologies</text>
  <text y="359.318" x="56.693,63.327,68.259,70.395,72.551,75.062,80.569,83.566,88.77,90.766,92.92200000000001,95.018,101.424,106.52,111.289,115.67,120.643,122.799,125.349,128.24,132.62,137.651,142.031,147.289,150.42499999999998,153.072,155.924,160.839,163.387,165.772,170.868,177.564,180.112,185.387,190.091,192.644,197.054,199.673,204.877,208.347,212.728,217.216,219.629,224.725,229.89,233.61399999999998,236.297,241.5,244.97,250.066,253.078,258.174,262.432,267.528,270.076,272.58,275.698,280.598,285.336,288.492" svgx:width="0.68,0.52,0.22,0.22,0.55,0.56,0.32,0.53,0.22,0.22,0.55,0.67,0.52,0.5,0.45,0.52,0.22,0.55,0.31,0.45,0.53,0.45,0.55,0.32,0.55,0.29,0.52,0.26,0.26,0.52,0.7,0.26,0.55,0.48,0.55,0.45,0.55,0.53,0.38,0.45,0.46,0.26,0.52,0.54,0.38,0.55,0.53,0.38,0.52,0.32,0.52,0.45,0.52,0.26,0.55,0.32,0.5,0.5,0.32,0.22" style="fill:rgb(19,20,19);font-family:HxlkbcRwbtfvAdvTT86d47313;font-size:9.8px;stroke:none;" xmlns:svgx="http://www.xml-cml.org/schema/svgx">Co., Ltd., Tokyo, Japan) following a previous protocol [13].</text>
  <text y="371.337" x="56.693,62.504,66.047,68.485,72.866,75.571,78.01,82.39,84.546,88.045,92.945" svgx:width="0.59,0.38,0.26,0.45,0.29,0.26,0.45,0.22,0.55,0.5,0.5" style="fill:rgb(19,20,19);font-family:HxlkbcRwbtfvAdvTT86d47313;font-size:9.8px;stroke:none;" xmlns:svgx="http://www.xml-cml.org/schema/svgx">Briefly, 20</text>
  <text y="371.337" x="101.31" svgx:width="0.54" style="fill:rgb(19,20,19);font-family:FbncwtMssckvAdvTT86d47313;font-size:9.8px;stroke:none;" xmlns:svgx="http://www.xml-cml.org/schema/svgx">μ</text>
  <text y="371.337" x="106.525,112.013,115.596,120.692,123.53399999999999,127.048,130.204,135.325,139.73499999999999,143.262,147.035,151.313,159.363,164.567,166.96,171.37,174.897,181.728,185.953,189.627,194.037,197.518,199.957,205.366,207.667,212.048,216.428,219.459,223.84,229.034,232.555,234.993,240.403,243.441,248.537,252.058,256.468,259.995,264.375,269.349,271.787,277.089,285.11" svgx:width="0.56,0.55,0.52,0.29,0.55,0.32,0.54,0.45,0.55,0.38,0.45,0.83,0.53,0.26,0.45,0.55,0.7,0.45,0.38,0.45,0.55,0.26,0.55,0.25,0.45,0.45,0.32,0.45,0.53,0.55,0.26,0.55,0.32,0.52,0.55,0.45,0.55,0.45,0.52,0.26,0.54,0.83,0.55" style="fill:rgb(19,20,19);font-family:HxlkbcRwbtfvAdvTT86d47313;font-size:9.8px;stroke:none;" xmlns:svgx="http://www.xml-cml.org/schema/svgx">L of the sample were injected into a column</text>
  <text y="383.355" x="56.693,59.848,65.197,67.745,74.211,79.513,83.056,88.045,91.818,96.775,100.45,105.392,108.234,112.932,118.95,124.214,127.673,132.572,134.728,139.351" svgx:width="0.32,0.56,0.26,0.68,0.54,0.38,0.52,0.38,0.52,0.38,0.52,0.29,0.55,0.61,0.56,0.36,0.5,0.22,0.55,0.5" style="fill:rgb(19,20,19);font-family:HxlkbcRwbtfvAdvTT86d47313;font-size:9.8px;stroke:none;" xmlns:svgx="http://www.xml-cml.org/schema/svgx">(LiChrosorb® RP-8; 5</text>
  <text y="383.355" x="148.931" svgx:width="0.54" style="fill:rgb(19,20,19);font-family:FbncwtMssckvAdvTT86d47313;font-size:9.8px;stroke:none;" xmlns:svgx="http://www.xml-cml.org/schema/svgx">μ</text>
  <text y="383.355" x="154.147,162.31,164.466,169.058,173.957,175.917,180.817,182.721,188.405,190.261,195.161,199.899,204.799,209.48,217.643,225.694,227.85,232.497,241.582,245.82,249.495,253.7,258.59999999999997,263.282,269.808,276.945,281.325,288.397" svgx:width="0.83,0.22,0.55,0.5,0.22,0.5,0.55,0.58,0.55,0.5,0.5,0.5,0.55,0.83,0.83,0.22,0.55,0.93,0.45,0.38,0.45,0.5,0.55,0.67,0.74,0.45,0.71,0.22" style="fill:rgb(19,20,19);font-family:HxlkbcRwbtfvAdvTT86d47313;font-size:9.8px;stroke:none;" xmlns:svgx="http://www.xml-cml.org/schema/svgx">m, 2.1 × 150 mm, Merck KGaA,</text>
  <text y="395.317" x="56.692,63.836,68.087,71.762,79.766,83.539,86.512,90.893,95.98,99.135,101.29100000000001,105.958,113.2,117.467,121.142,129.145,133.526,138.784,143.164,146.29999999999998,150.916,159.079,163.331,165.879,171.155,174.31,178.525,180.963,186.373,190.602,195.796,200.523,204.904,208.04,212.712,217.612,222.512,227.112,229.866,236.53,241.115,245.496,249.22,253.984,258.394,263.055,271.219,276.208,281.197,283.745,286.129" svgx:width="0.73,0.45,0.38,0.83,0.38,0.32,0.45,0.53,0.32,0.22,0.55,0.74,0.45,0.38,0.83,0.45,0.55,0.45,0.32,0.55,0.83,0.45,0.26,0.55,0.32,0.45,0.26,0.55,0.45,0.53,0.55,0.45,0.32,0.55,0.5,0.5,0.55,0.28,0.68,0.55,0.45,0.38,0.55,0.45,0.55,0.83,0.52,0.52,0.26,0.26,0.45" style="fill:rgb(19,20,19);font-family:HxlkbcRwbtfvAdvTT86d47313;font-size:9.8px;stroke:none;" xmlns:svgx="http://www.xml-cml.org/schema/svgx">Darmstadt, Germany) maintained at 40 °C as a mobile</text>
  <text y="407.336" x="56.692,61.896,67.067,71.448,75.221,79.631,82.771,87.152,90.288,93.43,97.84,101.083,103.935,106.299,111.395,118.255,121.379,125.054,129.259,132.415,136.825,139.974,145.07,147.912,151.086,155.986,157.946,162.846,166.054,174.217,179.603,183.062,191.225,193.663,199.053,202.28,209.111,211.521,214.677,219.969,223.143,227.553,230.74,235.64,237.6,242.5,245.707,250.088,254.324,258.705,261.751,266.74,272.15,274.563,277.719,281.197,283.745,286.129" svgx:width="0.53,0.54,0.45,0.38,0.45,0.55,0.45,0.32,0.55,0.45,0.55,0.29,0.26,0.52,0.7,0.55,0.38,0.45,0.32,0.45,0.55,0.52,0.29,0.55,0.5,0.22,0.5,0.55,0.83,0.56,0.36,0.83,0.26,0.55,0.55,0.7,0.26,0.32,0.54,0.55,0.45,0.55,0.5,0.22,0.5,0.55,0.45,0.45,0.45,0.32,0.52,0.55,0.26,0.32,0.38,0.26,0.26,0.45" style="fill:rgb(19,20,19);font-family:HxlkbcRwbtfvAdvTT86d47313;font-size:9.8px;stroke:none;" xmlns:svgx="http://www.xml-cml.org/schema/svgx">phase at a flow rate of 1.0 mL/min with a 1:3 acetonitrile</text>
  <text y="419.354" x="56.692,59.847,64.943,69.278,76.108,80.333,83.489,87.704,91.428,95.754,103.918,106.299,111.091,114.122,119.424,122.91,127.29,129.446,133.738,140.372,145.247,152.205,156.528,163.359,167.739,171.463,175.861,184.024,188.276,192.657,196.43,201.599,205.274,209.479,214.673,219.061,224.156,228.566,232.837,238.139,240.548,243.703,247.237,251.433,255.921,258.292,263.388,265.776,270.156,273.29200000000003,277.625,282.005,286.979" svgx:width="0.32,0.52,0.55,0.7,0.45,0.32,0.45,0.38,0.55,0.83,0.26,0.49,0.32,0.54,0.38,0.45,0.22,0.55,0.68,0.56,0.71,0.55,0.7,0.45,0.38,0.55,0.83,0.45,0.45,0.38,0.54,0.38,0.45,0.53,0.55,0.52,0.45,0.55,0.54,0.26,0.32,0.38,0.45,0.46,0.26,0.52,0.26,0.45,0.32,0.55,0.45,0.52,0.36" style="fill:rgb(19,20,19);font-family:HxlkbcRwbtfvAdvTT86d47313;font-size:9.8px;stroke:none;" xmlns:svgx="http://www.xml-cml.org/schema/svgx">to water mixture. CPA was measured by ultraviolet ab-</text>
  <text y="431.316" x="56.692,60.465,65.423,69.098,74.096,77.252,79.652,84.748,90.138,93.882,98.263,101.399,105.107,109.517,113.271,120.101,124.269,128.634,133.014,135.437,139.818,145.075,149.769,152.786,158.078,161.857,166.846,169.68800000000002,173.478,178.378,183.116,188.01600000000002,191.79,197.2,205.227,207.383,211.123,217.529,222.831,227.24099999999999,230.909,236.112,240.319,243.475,247.856,252.112,255.267,257.667,262.763,268.15299999999996,271.898,274.336,276.884,284.881,287.429" svgx:width="0.38,0.52,0.38,0.53,0.32,0.26,0.52,0.55,0.55,0.45,0.32,0.55,0.45,0.55,0.7,0.45,0.46,0.45,0.26,0.45,0.55,0.48,0.32,0.54,0.55,0.52,0.29,0.55,0.5,0.5,0.5,0.55,0.55,0.83,0.22,0.55,0.67,0.54,0.45,0.55,0.53,0.45,0.32,0.45,0.45,0.32,0.26,0.52,0.55,0.55,0.26,0.26,0.83,0.26,0.32" style="fill:rgb(19,20,19);font-family:HxlkbcRwbtfvAdvTT86d47313;font-size:9.8px;stroke:none;" xmlns:svgx="http://www.xml-cml.org/schema/svgx">sorption at a wavelength of 195 nm. The detection limit</text>
  <text y="443.335" x="56.692,63.522,67.903,71.62700000000001,74.21" svgx:width="0.7,0.45,0.38,0.55,0.5" style="fill:rgb(19,20,19);font-family:HxlkbcRwbtfvAdvTT86d47313;font-size:9.8px;stroke:none;" xmlns:svgx="http://www.xml-cml.org/schema/svgx">was 3</text>
  <text y="443.335" x="81.693" svgx:width="0.54" style="fill:rgb(19,20,19);font-family:FbncwtMssckvAdvTT86d47313;font-size:9.8px;stroke:none;" xmlns:svgx="http://www.xml-cml.org/schema/svgx">μ</text>
  <text y="443.335" x="86.909,91.603,95.016,103.067,108.574" svgx:width="0.48,0.36,0.83,0.56,0.22" style="fill:rgb(19,20,19);font-family:HxlkbcRwbtfvAdvTT86d47313;font-size:9.8px;stroke:none;" xmlns:svgx="http://www.xml-cml.org/schema/svgx">g/mL.</text>
  <text y="467.32" x="56.693,61.385,64.541,69.141,72.296,74.596,78.424,81.579,83.879,87.992,92.693,94.993,97.738,102.338,107.509,112.109,114.409,119.009,122.91,125.21" svgx:width="0.51,0.34,0.5,0.34,0.25,0.42,0.34,0.25,0.45,0.5,0.25,0.55,0.5,0.56,0.5,0.25,0.5,0.42,0.25,0.42" style="fill:rgb(19,20,19);font-family:QdymfyXlgmvvAdvTT99c4c969;font-size:9.2px;stroke:none;" xmlns:svgx="http://www.xml-cml.org/schema/svgx">Statistical analysis</text>
  <text y="479.339" x="56.693,65.777,70.158,74.665,78.438,83.74,87.415,91.795,100.063,104.444,109.853,113.16,116.884,120.814,127.644,132.025,135.781,140.191,144.058,147.733,152.114,157.317,161.698,166.169,169.324,173.705,178.899,182.836,185.688,190.784,196.086,199.81,203.756,206.912,212.008,215.945,218.797,221.345,225.833,230.243,234.144,237.299,239.847,248.01,252.391,256.115,260.166,262.714,268.104,272.015,276.396,280.776,285.157" svgx:width="0.93,0.45,0.45,0.38,0.54,0.38,0.45,0.83,0.45,0.55,0.32,0.38,0.55,0.7,0.45,0.38,0.45,0.55,0.38,0.45,0.53,0.45,0.45,0.32,0.45,0.53,0.55,0.29,0.52,0.54,0.38,0.55,0.32,0.52,0.55,0.29,0.26,0.46,0.45,0.55,0.32,0.26,0.83,0.45,0.38,0.55,0.26,0.55,0.55,0.45,0.45,0.45,0.54" style="fill:rgb(19,20,19);font-family:HxlkbcRwbtfvAdvTT86d47313;font-size:9.8px;stroke:none;" xmlns:svgx="http://www.xml-cml.org/schema/svgx">Measurements were repeated four to five times in each</text>
  <text y="491.357" x="56.693,61.387,65.062,70.158,75.46,80.663,82.819,87.591,93.001,98.302,106.466,110.846,114.521,117.069,121.551,125.931,128.47899999999998,133.172,137.661,142.041,144.589,149.891,154.271,157.99499999999998,162.823,166.498,170.878,176.082,179.831,184.211,187.984,192.365,197.774,200.91,205.683,208.838,214.14,218.54999999999998,223.258,231.421,235.802,240.182,245.572,247.579,253.263,255.29,259.063,262.218,266.599,272.008,277.212,281.593,285.268" svgx:width="0.48,0.38,0.52,0.54,0.53,0.22,0.55,0.55,0.54,0.83,0.45,0.38,0.26,0.45,0.45,0.26,0.55,0.46,0.45,0.26,0.54,0.45,0.38,0.55,0.38,0.45,0.53,0.38,0.45,0.38,0.45,0.55,0.32,0.55,0.32,0.54,0.45,0.55,0.83,0.45,0.45,0.55,0.55,0.58,0.55,0.38,0.32,0.45,0.55,0.53,0.45,0.38,0.53" style="fill:rgb(19,20,19);font-family:HxlkbcRwbtfvAdvTT86d47313;font-size:9.8px;stroke:none;" xmlns:svgx="http://www.xml-cml.org/schema/svgx">group; numerical values represent the mean ± standard</text>
  <text y="503.319" x="56.693,61.897,66.387,70.875,73.423,77.804,80.959,83.507,88.724,94.133,96.289,101.253,108.397,110.945,113.797,116.649,121.029,124.704,129.085,134.494,138.875,143.376,147.1,152.107,157.203,161.583,164.739,171.666,176.047,180.427,185.817,190.829,193.985,199.286,203.696,208.687,213.382,217.056,222.152,227.454,232.658,236.38199999999998,241.513,248.344,252.724,256.399,260.809,265.891,270.272,274.652,277.2,281.581,286.981" svgx:width="0.53,0.45,0.46,0.26,0.45,0.32,0.26,0.52,0.55,0.22,0.55,0.73,0.26,0.29,0.29,0.45,0.38,0.45,0.55,0.45,0.45,0.38,0.55,0.52,0.45,0.32,0.7,0.45,0.45,0.55,0.55,0.32,0.54,0.45,0.55,0.48,0.38,0.52,0.54,0.53,0.38,0.55,0.7,0.45,0.38,0.45,0.55,0.45,0.45,0.26,0.45,0.54,0.36" style="fill:rgb(19,20,19);font-family:HxlkbcRwbtfvAdvTT86d47313;font-size:9.8px;stroke:none;" xmlns:svgx="http://www.xml-cml.org/schema/svgx">deviation. Differences between the groups were calcu-</text>
  <text y="515.338" x="56.693,59.241,63.621,66.777,71.158,76.352,80.844,85.94,90.35,94.733,99.114,104.598,108.978,111.526,115.907,119.68,122.228,125.952,130.45,135.546,138.388,143.15,147.638,152.018,155.693,158.241,162.622,168.032,172.517,176.927,181.305,184.46,191.398,198.846,206.5,212.599,219.538,222.693,224.84900000000002,229.267,232.531,235.37300000000002,239.812,244.222,248.713,252.486,255.034,259.728,265.138,267.762,270.614,273.162,277.542,281.923,287.333" svgx:width="0.26,0.45,0.32,0.45,0.53,0.55,0.52,0.45,0.55,0.45,0.55,0.45,0.26,0.45,0.38,0.26,0.38,0.55,0.52,0.29,0.55,0.46,0.45,0.38,0.26,0.45,0.55,0.45,0.45,0.55,0.32,0.71,0.76,0.78,0.69,0.71,0.32,0.22,0.55,0.33,0.29,0.55,0.45,0.55,0.38,0.26,0.48,0.55,0.26,0.29,0.26,0.45,0.45,0.55,0.32" style="fill:rgb(19,20,19);font-family:HxlkbcRwbtfvAdvTT86d47313;font-size:9.8px;stroke:none;" xmlns:svgx="http://www.xml-cml.org/schema/svgx">lated by analysis of variance (ANOVA). If a significant</text>
  <text y="527.356" x="56.693,61.897,64.445,67.296,70.148,74.529,78.293,82.673,88.083,92.464,96.874,101.197,108.028,112.536,116.26,120.643,125.847,130.227,133.383,137.935,142.316,145.471,149.852,155.055,157.211,161.066,167.592,172.894,177.794,182.269" svgx:width="0.53,0.26,0.29,0.29,0.45,0.38,0.45,0.55,0.45,0.45,0.55,0.7,0.45,0.38,0.55,0.53,0.45,0.32,0.45,0.45,0.32,0.45,0.53,0.22,0.55,0.67,0.54,0.5,0.45,0.45" style="fill:rgb(19,20,19);font-family:HxlkbcRwbtfvAdvTT86d47313;font-size:9.8px;stroke:none;" xmlns:svgx="http://www.xml-cml.org/schema/svgx">difference was detected, Tukey</text>
  <text y="527.356" x="186.633" svgx:width="0.2" style="fill:rgb(19,20,19);font-family:QgdwxrLtjfmtAdvTT86d47313;font-size:9.8px;stroke:none;" xmlns:svgx="http://www.xml-cml.org/schema/svgx">’</text>
  <text y="527.356" x="187.993,191.71699999999998,196.1,199.256,203.637,207.409,210.545,214.922,217.774,222.87,226.594,230.91,239.073,244.375,246.923,250.078,252.626,257.83,260.378,264.788,269.291,273.671,278.767,286.931" svgx:width="0.38,0.55,0.32,0.45,0.38,0.32,0.55,0.29,0.52,0.38,0.55,0.83,0.54,0.26,0.32,0.26,0.53,0.26,0.45,0.55,0.45,0.52,0.83,0.36" style="fill:rgb(19,20,19);font-family:HxlkbcRwbtfvAdvTT86d47313;font-size:9.8px;stroke:none;" xmlns:svgx="http://www.xml-cml.org/schema/svgx">s test for multiple com-</text>
  <text y="539.318" x="56.693,61.897,66.277,69.952,72.5,76.273,81.468,86.878,90.602,95.017,101.848,106.356,110.08,114.463,119.667,124.048,127.723,130.574,135.78,139.455,147.618,151.999,157.203,159.359,163.729,171.275,175.656,180.114,184.494,188.169,193.363,197.746,201.421,205.801,208.957,211.505,216.601,220.325,224.789,227.337,232.433,239.359,243.74,247.464,251.775,254.93,260.232,264.612,270.002,274.452,279.352,283.693" svgx:width="0.53,0.45,0.38,0.26,0.38,0.52,0.55,0.38,0.55,0.7,0.45,0.38,0.55,0.53,0.45,0.38,0.29,0.52,0.38,0.83,0.45,0.53,0.22,0.55,0.77,0.45,0.44,0.45,0.38,0.53,0.55,0.38,0.45,0.32,0.26,0.52,0.38,0.55,0.26,0.52,0.7,0.45,0.38,0.55,0.32,0.54,0.45,0.55,0.55,0.5,0.55,0.7" style="fill:rgb(19,20,19);font-family:HxlkbcRwbtfvAdvTT86d47313;font-size:9.8px;stroke:none;" xmlns:svgx="http://www.xml-cml.org/schema/svgx">parisons was performed. Hazard ratios lower than 5 %</text>
  <text y="551.336" x="56.693,63.523,67.904,71.579,75.98899999999999,82.205,86.586,91.681,97.172,100.945,103.493,108.697,113.078,116.753,121.133,126.327,132.492,136.265,139.421,143.801,146.957,149.505,153.278,156.433,158.981,163.362,167.742,170.29,172.838,177.248,183.46,187.232,189.78,194.475,199.958,202.506,205.357,207.905,212.286,216.666,222.076,225.232,227.388,233.52,240.047,245.349,249.759,255.8,259.573,262.729,267.109,270.265,272.813,276.586,279.742,282.29,286.67" svgx:width="0.7,0.45,0.38,0.45,0.55,0.45,0.52,0.55,0.38,0.26,0.53,0.45,0.38,0.45,0.53,0.55,0.38,0.32,0.45,0.32,0.26,0.38,0.32,0.26,0.45,0.45,0.26,0.26,0.45,0.55,0.38,0.26,0.48,0.55,0.26,0.29,0.26,0.45,0.45,0.55,0.32,0.22,0.55,0.67,0.54,0.45,0.55,0.38,0.32,0.45,0.32,0.26,0.38,0.32,0.26,0.45,0.38" style="fill:rgb(19,20,19);font-family:HxlkbcRwbtfvAdvTT86d47313;font-size:9.8px;stroke:none;" xmlns:svgx="http://www.xml-cml.org/schema/svgx">were considered statistically significant. The statistics</text>
  <text y="563.355" x="56.693,60.466,65.562,68.414,71.569,78.4,82.885,86.56,90.97,95.925,101.227,105.0,109.38,114.574,119.679,126.509,131.017,134.74099999999999,139.805,145.312,150.105,154.375,158.756,161.304,166.337,170.11,173.266,177.646,180.802,183.35,187.123,190.278,192.826,197.348,201.072,206.135,211.035,215.935,220.835,225.735,230.74,233.896,238.894,243.99,248.37,250.918,255.402,257.95,262.942,267.94,273.241,277.228,281.716,286.097" svgx:width="0.38,0.52,0.29,0.32,0.7,0.45,0.38,0.45,0.55,0.54,0.38,0.45,0.53,0.55,0.7,0.45,0.38,0.55,0.56,0.49,0.45,0.45,0.26,0.55,0.38,0.32,0.45,0.32,0.26,0.38,0.32,0.26,0.45,0.38,0.55,0.5,0.5,0.5,0.5,0.55,0.32,0.51,0.52,0.45,0.26,0.45,0.26,0.55,0.51,0.54,0.38,0.46,0.45,0.45" style="fill:rgb(19,20,19);font-family:HxlkbcRwbtfvAdvTT86d47313;font-size:9.8px;stroke:none;" xmlns:svgx="http://www.xml-cml.org/schema/svgx">software used was Excel statistics 2012 (Social Survey</text>
  <text y="575.317" x="56.693,62.71,67.091,70.864,75.244,79.625,83.396,87.776,93.068,96.039,99.302,104.711,107.563,112.659,116.334,124.497,128.977,132.133,134.681,139.776,145.166,148.14,154.774,159.87,162.086,164.24200000000002,167.189,172.696,175.852,181.056,183.192,185.348,187.769,194.295,199.391,204.379,208.76,213.856,216.012,218.95,221.898,226.278,231.482,235.958,241.367,244.523" svgx:width="0.61,0.45,0.38,0.45,0.45,0.38,0.45,0.54,0.55,0.33,0.55,0.29,0.52,0.38,0.83,0.45,0.32,0.26,0.52,0.55,0.55,0.68,0.52,0.22,0.22,0.55,0.56,0.32,0.53,0.22,0.22,0.55,0.67,0.52,0.5,0.45,0.52,0.22,0.55,0.31,0.45,0.53,0.45,0.55,0.32,0.22" style="fill:rgb(19,20,19);font-family:HxlkbcRwbtfvAdvTT86d47313;font-size:9.8px;stroke:none;" xmlns:svgx="http://www.xml-cml.org/schema/svgx">Research Information Co., Ltd., Tokyo, Japan).</text>
  <text y="599.357" x="56.693,62.698,68.054,72.452,78.344,81.125,84.874" svgx:width="0.58,0.52,0.43,0.57,0.27,0.36,0.43" style="fill:rgb(19,20,19);font-family:NmsnmlHbfwjwAdvTTaf7f9f4f.B;font-size:10.3px;stroke:none;" xmlns:svgx="http://www.xml-cml.org/schema/svgx">Results</text>
  <text y="611.32" x="56.693,61.385,65.985,70.585,72.885,78.056,82.656,85.889,88.189,93.36,98.512,101.31,106.48,109.33200000000001,112.138,117.502,122.58,128.376,131.187,136.551,141.243,144.5,152.255,156.947,161.631,166.995,169.295,171.595,173.895,177.05,181.65,184.422,189.592,192.44400000000002,195.25,198.406,203.576,208.268,211.067,218.823,223.423,227.25" svgx:width="0.51,0.5,0.5,0.25,0.56,0.5,0.34,0.25,0.56,0.56,0.55,0.56,0.31,0.55,0.58,0.55,0.63,0.55,0.58,0.51,0.35,0.84,0.51,0.5,0.58,0.25,0.25,0.25,0.34,0.5,0.55,0.56,0.31,0.55,0.34,0.56,0.51,0.55,0.84,0.5,0.42,0.5" style="fill:rgb(19,20,19);font-family:QdymfyXlgmvvAdvTT99c4c969;font-size:9.2px;stroke:none;" xmlns:svgx="http://www.xml-cml.org/schema/svgx">Evaluation of CPA permeability of the mask</text>
  <text y="623.339" x="56.693,61.789,64.337,69.031,74.333,78.008,82.41799999999999,85.323,90.223,93.09,96.765,101.145,106.349,110.024,114.405,118.177,122.558,128.069,131.301,135.02499999999998,137.933,141.089,146.39,150.79999999999998,153.693,160.328,165.315,172.273,175.123,180.326,184.707,188.382,196.545,201.032,205.412,210.508,213.056,215.604,218.152,221.308,225.718,228.641,233.845,238.225,241.381,245.761,248.309,250.857,254.581,257.555,260.406,265.502,269.226,272.068,276.449,280.829,285.21" svgx:width="0.52,0.26,0.48,0.54,0.38,0.45,0.55,0.5,0.55,0.38,0.45,0.53,0.38,0.45,0.38,0.45,0.55,0.32,0.38,0.55,0.32,0.54,0.45,0.55,0.68,0.56,0.71,0.55,0.53,0.45,0.38,0.83,0.45,0.45,0.52,0.26,0.26,0.26,0.32,0.45,0.55,0.53,0.45,0.32,0.45,0.26,0.26,0.38,0.55,0.29,0.52,0.38,0.55,0.45,0.45,0.45,0.54" style="fill:rgb(19,20,19);font-family:HxlkbcRwbtfvAdvTT86d47313;font-size:9.8px;stroke:none;" xmlns:svgx="http://www.xml-cml.org/schema/svgx">Figure 3 represents the CPA permeability details for each</text>
  <text y="635.357" x="56.693,64.856,69.393,73.166,78.065,80.221,85.663,92.19,97.492,101.902,107.263,112.467,117.769,122.231,127.64,130.796,133.344,136.499,140.909,146.382,151.478,154.32000000000002,159.818,166.453,171.497,178.455,183.855,187.53,192.076,196.456,201.552,206.04,210.421,214.096,218.476,223.67,229.209,231.757,237.147,242.646,245.802,251.103,255.513,261.071,265.451,270.547,276.038,279.194,282.869,287.965" svgx:width="0.83,0.45,0.38,0.5,0.22,0.55,0.67,0.54,0.45,0.55,0.53,0.54,0.45,0.55,0.32,0.26,0.32,0.45,0.55,0.52,0.29,0.55,0.68,0.56,0.71,0.55,0.38,0.45,0.45,0.52,0.46,0.45,0.38,0.45,0.53,0.55,0.26,0.55,0.55,0.32,0.54,0.45,0.55,0.45,0.52,0.55,0.32,0.38,0.52,0.26" style="fill:rgb(19,20,19);font-family:HxlkbcRwbtfvAdvTT86d47313;font-size:9.8px;stroke:none;" xmlns:svgx="http://www.xml-cml.org/schema/svgx">mask. The quantity of CPA recovered in the control</text>
  <text y="647.319" x="56.693,61.387,65.062,70.158,75.46,80.654,84.926,88.082,93.492,98.58800000000001,102.785,110.948,115.484,119.257,124.157,127.29299999999999,131.529,138.359,142.867,146.59099999999998,150.804,155.704,157.841,162.741,167.641,172.541,174.558,180.242,182.212,187.112,189.248,194.148,199.048" svgx:width="0.48,0.38,0.52,0.54,0.53,0.55,0.32,0.55,0.52,0.55,0.83,0.45,0.38,0.5,0.32,0.55,0.7,0.45,0.38,0.55,0.5,0.22,0.5,0.5,0.5,0.55,0.58,0.55,0.5,0.22,0.5,0.5,0.5" style="fill:rgb(19,20,19);font-family:HxlkbcRwbtfvAdvTT86d47313;font-size:9.8px;stroke:none;" xmlns:svgx="http://www.xml-cml.org/schema/svgx">group (no mask) was 3.734 ± 0.543</text>
  <text y="647.319" x="208.176" svgx:width="0.54" style="fill:rgb(19,20,19);font-family:FbncwtMssckvAdvTT86d47313;font-size:9.8px;stroke:none;" xmlns:svgx="http://www.xml-cml.org/schema/svgx">μ</text>
  <text y="647.319" x="213.505,218.199,220.35500000000002,224.503,227.767,233.15699999999998,237.373,241.753,246.849,252.34,255.496,259.171,263.679,267.452,270.708,272.86400000000003,277.057,282.359,286.132" svgx:width="0.48,0.22,0.55,0.33,0.55,0.55,0.45,0.52,0.55,0.32,0.38,0.45,0.38,0.32,0.22,0.55,0.54,0.38,0.45" style="fill:rgb(19,20,19);font-family:HxlkbcRwbtfvAdvTT86d47313;font-size:9.8px;stroke:none;" xmlns:svgx="http://www.xml-cml.org/schema/svgx">g. In contrast, use</text>
  <text y="659.338" x="56.693,61.789,64.631,68.371,71.527,76.829,81.23899999999999,84.925,93.089,97.625,101.398,106.298,110.097,113.87,116.418,121.113,126.596,129.144,131.995,134.543,138.924,143.304,148.714,151.87,154.418,158.828,162.596,167.799,172.29,176.67,180.345,184.726,189.24,193.013,197.394,202.588,206.362,209.517,214.819,219.22899999999998,222.916,228.12,233.421,237.883,243.293,246.448,248.996,252.152,256.562,260.277,265.373,268.215,271.956,278.59,283.577" svgx:width="0.52,0.29,0.55,0.32,0.54,0.45,0.55,0.83,0.45,0.38,0.5,0.55,0.38,0.26,0.48,0.55,0.26,0.29,0.26,0.45,0.45,0.55,0.32,0.26,0.45,0.55,0.53,0.45,0.45,0.38,0.45,0.45,0.38,0.45,0.53,0.55,0.32,0.54,0.45,0.55,0.53,0.54,0.45,0.55,0.32,0.26,0.32,0.45,0.55,0.52,0.29,0.55,0.68,0.56,0.71" style="fill:rgb(19,20,19);font-family:HxlkbcRwbtfvAdvTT86d47313;font-size:9.8px;stroke:none;" xmlns:svgx="http://www.xml-cml.org/schema/svgx">of the mask significantly decreased the quantity of CPA</text>
  <text y="671.356" x="56.693,60.368,64.857,69.238,74.334,78.822,83.203,86.968,91.348,96.542,99.78,102.936" svgx:width="0.38,0.45,0.45,0.52,0.46,0.45,0.38,0.45,0.53,0.55,0.32,0.52" style="fill:rgb(19,20,19);font-family:HxlkbcRwbtfvAdvTT86d47313;font-size:9.8px;stroke:none;" xmlns:svgx="http://www.xml-cml.org/schema/svgx">recovered (F</text>
  <text y="672.945" x="108.057,111.732,113.1686,116.617,120.292" svgx:width="0.5,0.22,0.55,0.5,0.5" style="fill:rgb(19,20,19);font-family:HxlkbcRwbtfvAdvTT86d47313;font-size:6.53px;stroke:none;" xmlns:svgx="http://www.xml-cml.org/schema/svgx">3, 16</text>
  <text y="671.357" x="125.915,131.59900000000002,133.569,138.469,143.369,148.268,150.405,155.305" svgx:width="0.58,0.55,0.5,0.5,0.5,0.22,0.5,0.22" style="fill:rgb(19,20,19);font-family:HxlkbcRwbtfvAdvTT86d47313;font-size:9.8px;stroke:none;" xmlns:svgx="http://www.xml-cml.org/schema/svgx">= 143.7,</text>
  <text y="671.357" x="160.724" svgx:width="0.52" style="fill:rgb(19,20,19);font-family:TbxpwdSpqdhwAdvTT8861b38f.I;font-size:9.8px;stroke:none;" xmlns:svgx="http://www.xml-cml.org/schema/svgx">p</text>
  <text y="671.357" x="167.81,173.102,175.067,179.967,182.104,187.004,191.904,196.804,200.069,205.165,209.575,212.768,217.864,223.274,227.655,231.307,238.137,242.518,246.928,250.129,257.067,264.585,272.239,278.248,285.187,288.342" svgx:width="0.54,0.55,0.5,0.22,0.5,0.5,0.5,0.55,0.52,0.45,0.55,0.52,0.55,0.45,0.36,0.7,0.45,0.45,0.55,0.71,0.76,0.78,0.69,0.71,0.32,0.22" style="fill:rgb(19,20,19);font-family:HxlkbcRwbtfvAdvTT86d47313;font-size:9.8px;stroke:none;" xmlns:svgx="http://www.xml-cml.org/schema/svgx">&lt; 0.001 by one-way ANOVA).</text>
  <text y="683.319" x="56.692,63.219,68.521,72.931,76.478,83.113,88.1,95.05799999999999,98.645,103.848,109.15,113.612,119.022,122.177,124.725,127.881,130.429,134.809,138.533,142.243,145.917,150.463,154.843,159.939,164.428,168.808,172.483,176.864,182.058,185.726,188.577,192.252,197.348,205.48200000000003,209.196,212.352,217.654,222.064,225.695,231.307,237.941,247.055,250.639,255.02,260.429,265.623,269.291,274.28,281.424" svgx:width="0.67,0.54,0.45,0.55,0.68,0.56,0.71,0.55,0.53,0.54,0.45,0.55,0.32,0.26,0.32,0.26,0.45,0.38,0.55,0.38,0.45,0.45,0.52,0.46,0.45,0.38,0.45,0.53,0.55,0.29,0.38,0.52,0.83,0.55,0.32,0.54,0.45,0.55,0.56,0.68,0.93,0.55,0.45,0.55,0.53,0.55,0.56,0.71,0.93" style="fill:rgb(19,20,19);font-family:HxlkbcRwbtfvAdvTT86d47313;font-size:9.8px;stroke:none;" xmlns:svgx="http://www.xml-cml.org/schema/svgx">The CPA quantities recovered from the PCM and PAM</text>
  <text y="695.338" x="56.692,63.523,67.903,71.578,75.988,79.54,83.313,85.861,90.555,96.038,98.586,101.438,103.986,108.366,112.747,118.156,121.312,123.86,128.27,131.868,134.416,139.512,146.343,150.723,154.447,158.004,161.159,166.059,168.196,173.096,177.995,182.895,184.876,190.56,192.53,197.43,199.566,204.466,209.366" svgx:width="0.7,0.45,0.38,0.45,0.55,0.38,0.26,0.48,0.55,0.26,0.29,0.26,0.45,0.45,0.55,0.32,0.26,0.45,0.55,0.26,0.52,0.7,0.45,0.38,0.55,0.32,0.5,0.22,0.5,0.5,0.5,0.55,0.58,0.55,0.5,0.22,0.5,0.5,0.5" style="fill:rgb(19,20,19);font-family:HxlkbcRwbtfvAdvTT86d47313;font-size:9.8px;stroke:none;" xmlns:svgx="http://www.xml-cml.org/schema/svgx">were significantly lower (0.538 ± 0.098</text>
  <text y="695.338" x="217.869" svgx:width="0.54" style="fill:rgb(19,20,19);font-family:FbncwtMssckvAdvTT86d47313;font-size:9.8px;stroke:none;" xmlns:svgx="http://www.xml-cml.org/schema/svgx">μ</text>
  <text y="695.338" x="223.142,228.074" svgx:width="0.48,0.22" style="fill:rgb(19,20,19);font-family:HxlkbcRwbtfvAdvTT86d47313;font-size:9.8px;stroke:none;" xmlns:svgx="http://www.xml-cml.org/schema/svgx">g,</text>
  <text y="695.338" x="233.743" svgx:width="0.52" style="fill:rgb(19,20,19);font-family:TbxpwdSpqdhwAdvTT8861b38f.I;font-size:9.8px;stroke:none;" xmlns:svgx="http://www.xml-cml.org/schema/svgx">p</text>
  <text y="695.338" x="240.773,246.065,248.086,252.986,255.123,260.023,264.923,269.823,271.979,275.526,279.907,285.316" svgx:width="0.54,0.55,0.5,0.22,0.5,0.5,0.5,0.22,0.55,0.45,0.55,0.53" style="fill:rgb(19,20,19);font-family:HxlkbcRwbtfvAdvTT86d47313;font-size:9.8px;stroke:none;" xmlns:svgx="http://www.xml-cml.org/schema/svgx">&lt; 0.001, and</text>
  <text y="707.356" x="56.691,61.591,63.728,68.628,73.528,78.42800000000001,80.389,86.073,88.1,93.0,95.136,100.036,104.936" svgx:width="0.5,0.22,0.5,0.5,0.5,0.55,0.58,0.55,0.5,0.22,0.5,0.5,0.5" style="fill:rgb(19,20,19);font-family:HxlkbcRwbtfvAdvTT86d47313;font-size:9.8px;stroke:none;" xmlns:svgx="http://www.xml-cml.org/schema/svgx">0.236 ± 0.193</text>
  <text y="707.356" x="114.461" svgx:width="0.54" style="fill:rgb(19,20,19);font-family:FbncwtMssckvAdvTT86d47313;font-size:9.8px;stroke:none;" xmlns:svgx="http://www.xml-cml.org/schema/svgx">μ</text>
  <text y="707.356" x="119.79,124.665" svgx:width="0.48,0.22" style="fill:rgb(19,20,19);font-family:HxlkbcRwbtfvAdvTT86d47313;font-size:9.8px;stroke:none;" xmlns:svgx="http://www.xml-cml.org/schema/svgx">g,</text>
  <text y="707.356" x="131.412" svgx:width="0.52" style="fill:rgb(19,20,19);font-family:TbxpwdSpqdhwAdvTT8861b38f.I;font-size:9.8px;stroke:none;" xmlns:svgx="http://www.xml-cml.org/schema/svgx">p</text>
  <text y="707.356" x="138.498,143.79,145.755,150.655,152.791,157.691,162.591,167.491,169.64700000000002,174.272,177.946,182.327,186.1,191.304,195.871,200.252,203.408,205.956,210.444,214.824,217.372,221.753,224.88899999999998,229.604,232.759,238.061,242.442,247.832,252.508,255.664,260.965,266.061,269.834,274.244,278.871,282.546,286.926" svgx:width="0.54,0.55,0.5,0.22,0.5,0.5,0.5,0.22,0.55,0.38,0.45,0.38,0.53,0.45,0.45,0.32,0.26,0.46,0.45,0.26,0.45,0.32,0.55,0.32,0.54,0.45,0.55,0.55,0.32,0.54,0.52,0.38,0.45,0.55,0.38,0.45,0.36" style="fill:rgb(19,20,19);font-family:HxlkbcRwbtfvAdvTT86d47313;font-size:9.8px;stroke:none;" xmlns:svgx="http://www.xml-cml.org/schema/svgx">&lt; 0.001, respectively) than those re-</text>
  <text y="719.318" x="56.69,61.071,66.167,70.655,75.036,78.801,83.181,88.375,92.861,95.713,99.388,104.483,112.617,117.125,120.281,125.583,129.993,134.53,138.911,144.007,149.497,152.653,156.328,161.424,163.972,166.12800000000001,170.587,177.114,182.415,186.825,191.223,196.427,201.729,206.109,211.519,214.675,217.223,220.477,224.887,229.321,234.417,237.25900000000001,241.737,248.372,253.359,260.317,264.754,268.429,272.974,277.355,282.451,286.939" svgx:width="0.45,0.52,0.46,0.45,0.38,0.45,0.53,0.55,0.29,0.38,0.52,0.83,0.55,0.32,0.54,0.45,0.55,0.45,0.52,0.55,0.32,0.38,0.52,0.26,0.22,0.55,0.67,0.54,0.45,0.55,0.53,0.54,0.45,0.55,0.32,0.26,0.32,0.45,0.55,0.52,0.29,0.55,0.68,0.56,0.71,0.55,0.38,0.45,0.45,0.52,0.46,0.36" style="fill:rgb(19,20,19);font-family:HxlkbcRwbtfvAdvTT86d47313;font-size:9.8px;stroke:none;" xmlns:svgx="http://www.xml-cml.org/schema/svgx">covered from the control. The quantity of CPA recov-</text>
  <text y="731.337" x="56.69,61.071,64.746,69.126,74.32000000000001,78.121,80.973,84.648,89.743,97.877,101.705,104.861,110.163,114.573,118.373,123.362,130.562,139.67600000000002,143.374,150.205,154.77,158.494,162.31,167.719,172.815,175.951,179.828,183.601,186.149,190.843,196.326,198.874,201.726,204.274,208.654,213.035,218.445,221.6,224.148,228.558,232.383,237.587,240.135,242.986,245.838,250.219,253.983,258.363,263.773,266.90900000000005,270.707,273.559,277.234,282.33" svgx:width="0.45,0.38,0.45,0.53,0.55,0.29,0.38,0.52,0.83,0.55,0.32,0.54,0.45,0.55,0.56,0.71,0.93,0.55,0.7,0.45,0.38,0.55,0.55,0.52,0.32,0.55,0.38,0.26,0.48,0.55,0.26,0.29,0.26,0.45,0.45,0.55,0.32,0.26,0.45,0.55,0.53,0.26,0.29,0.29,0.45,0.38,0.45,0.55,0.32,0.55,0.29,0.38,0.52,0.83" style="fill:rgb(19,20,19);font-family:HxlkbcRwbtfvAdvTT86d47313;font-size:9.8px;stroke:none;" xmlns:svgx="http://www.xml-cml.org/schema/svgx">ered from the PAM was not significantly different from</text>
  <text y="311.357" x="304.721,307.876,313.178,317.559,320.69500000000005,324.79,328.465,332.954,337.335,342.431,346.919,351.3,354.975,359.355,364.54900000000004,368.614,371.466,375.141,380.237,388.37100000000004,392.482,395.638,400.939,405.34900000000005,409.32,414.933,421.567,430.681,434.662" svgx:width="0.32,0.54,0.45,0.32,0.55,0.38,0.45,0.45,0.52,0.46,0.45,0.38,0.45,0.53,0.55,0.29,0.38,0.52,0.83,0.55,0.32,0.54,0.45,0.55,0.56,0.68,0.93,0.55,0.32" style="fill:rgb(19,20,19);font-family:HxlkbcRwbtfvAdvTT86d47313;font-size:9.8px;stroke:none;" xmlns:svgx="http://www.xml-cml.org/schema/svgx">that recovered from the PCM (</text>
  <text y="311.357" x="437.835" svgx:width="0.52" style="fill:rgb(19,20,19);font-family:TbxpwdSpqdhwAdvTT8861b38f.I;font-size:9.8px;stroke:none;" xmlns:svgx="http://www.xml-cml.org/schema/svgx">p</text>
  <text y="311.357" x="444.921,450.605,452.575,457.475,459.611,464.511,469.411,474.311,477.467,479.623,483.643,491.189,496.285,503.202,507.681,512.169,516.55,519.53,521.6859999999999,525.71,528.865,534.167" svgx:width="0.58,0.55,0.5,0.22,0.5,0.5,0.5,0.32,0.22,0.55,0.77,0.52,0.7,0.45,0.46,0.45,0.38,0.22,0.55,0.32,0.54,0.45" style="fill:rgb(19,20,19);font-family:HxlkbcRwbtfvAdvTT86d47313;font-size:9.8px;stroke:none;" xmlns:svgx="http://www.xml-cml.org/schema/svgx">= 0.483). However, the</text>
  <text y="323.319" x="304.72,309.924,315.225,319.606,325.016,328.171,330.719,333.974,338.384,341.457,346.553,349.395,352.512,359.147,364.134,371.09200000000004,374.169,377.844,382.389,386.77,391.866,396.354,400.734,404.409,408.79,413.98400000000004,417.142,419.994,423.669,428.765,436.899,440.047,443.202,448.504,452.91400000000004,456.034,461.032,468.167,477.28099999999995,480.356,487.186,491.751,495.47499999999997,498.611,503.707,508.087,510.635,515.731,522.591,525.711,528.866,534.168" svgx:width="0.53,0.54,0.45,0.55,0.32,0.26,0.32,0.45,0.55,0.52,0.29,0.55,0.68,0.56,0.71,0.55,0.38,0.45,0.45,0.52,0.46,0.45,0.38,0.45,0.53,0.55,0.29,0.38,0.52,0.83,0.55,0.32,0.54,0.45,0.55,0.51,0.71,0.93,0.55,0.7,0.45,0.38,0.55,0.52,0.45,0.26,0.52,0.7,0.55,0.32,0.54,0.45" style="fill:rgb(19,20,19);font-family:HxlkbcRwbtfvAdvTT86d47313;font-size:9.8px;stroke:none;" xmlns:svgx="http://www.xml-cml.org/schema/svgx">quantity of CPA recovered from the SAM was below the</text>
  <text y="335.337" x="304.72,309.924,315.225,319.606,325.016,328.171,330.719,333.974,338.354,341.51,344.058,349.154,354.544,358.352,360.9,363.448,371.611,374.159,377.315,379.471,383.241,390.179,398.342,403.438,408.848,413.552,417.313,420.469,425.77,430.18,433.924,436.776,439.324,443.812,448.22200000000004,451.953,456.951,464.085,473.19899999999996,476.897,485.061,489.441,494.019,497.792,503.093,506.768,511.149,519.312,523.693,529.102,532.457,536.426" svgx:width="0.53,0.54,0.45,0.55,0.32,0.26,0.32,0.45,0.32,0.26,0.52,0.55,0.55,0.26,0.26,0.83,0.26,0.32,0.22,0.55,0.71,0.83,0.52,0.55,0.48,0.55,0.32,0.54,0.45,0.55,0.29,0.26,0.46,0.45,0.55,0.51,0.71,0.93,0.55,0.83,0.45,0.45,0.38,0.54,0.38,0.45,0.83,0.45,0.55,0.32,0.38,0.22" style="fill:rgb(19,20,19);font-family:HxlkbcRwbtfvAdvTT86d47313;font-size:9.8px;stroke:none;" xmlns:svgx="http://www.xml-cml.org/schema/svgx">quantitation limit. Among the five SAM measurements,</text>
  <text y="347.356" x="304.72,311.55,315.96000000000004,319.8,322.652,327.032,329.665,332.213,336.593,341.78700000000003,345.652,348.808,353.904,357.784,362.988,367.369,370.524,375.076,379.457,382.593,386.472,390.882,394.749,399.952,404.333,408.714,413.614,417.539,420.087,425.477,429.332,432.487,439.318,444.414,448.324,453.42,456.262,460.173,463.328,468.63,473.04,476.897,485.061,489.441,493.962,497.735,503.037,506.712,511.092,519.36,523.741,529.15,532.457,536.426" svgx:width="0.7,0.45,0.55,0.29,0.45,0.26,0.26,0.45,0.53,0.55,0.32,0.52,0.55,0.53,0.45,0.32,0.45,0.45,0.32,0.55,0.45,0.55,0.53,0.45,0.45,0.5,0.55,0.26,0.55,0.55,0.32,0.7,0.52,0.55,0.52,0.29,0.55,0.32,0.54,0.45,0.55,0.83,0.45,0.45,0.38,0.54,0.38,0.45,0.83,0.45,0.55,0.32,0.38,0.22" style="fill:rgb(19,20,19);font-family:HxlkbcRwbtfvAdvTT86d47313;font-size:9.8px;stroke:none;" xmlns:svgx="http://www.xml-cml.org/schema/svgx">we failed to detect a peak in two of the measurements,</text>
  <text y="359.318" x="304.72,309.1,314.51,319.704,324.223,327.378,332.68,337.09000000000003,341.627,346.723,349.879,355.181,359.656,363.38,367.82,370.975,376.277,379.952,384.332,388.742,393.275,400.105,404.486,408.161,412.571,417.086,422.182,426.562,429.11,434.206,441.06600000000003,445.602,448.758,454.06,458.47,463.007,468.211,473.512,477.893,483.303,486.458,489.006,492.261,496.641,499.797,502.345,507.441,512.831,517.376,519.924,522.472,530.635,533.183,536.425" svgx:width="0.45,0.55,0.53,0.55,0.32,0.54,0.45,0.55,0.52,0.32,0.54,0.45,0.38,0.55,0.32,0.54,0.38,0.45,0.45,0.55,0.7,0.45,0.38,0.45,0.55,0.52,0.45,0.26,0.52,0.7,0.55,0.32,0.54,0.45,0.55,0.53,0.54,0.45,0.55,0.32,0.26,0.32,0.45,0.32,0.26,0.52,0.55,0.55,0.26,0.26,0.83,0.26,0.32,0.22" style="fill:rgb(19,20,19);font-family:HxlkbcRwbtfvAdvTT86d47313;font-size:9.8px;stroke:none;" xmlns:svgx="http://www.xml-cml.org/schema/svgx">and the other three were below the quantitation limit.</text>
  <text y="371.336" x="304.72,311.247,316.548,320.929,324.604,328.984,331.836,336.932,340.607,344.988,347.144,350.188,353.343,358.645,363.055,366.118,371.322,376.624,381.086,386.495,389.651,392.199,395.354,399.764,402.856,407.952,410.794,413.855,420.489,425.533,432.49100000000004,435.511,439.186,443.732,448.112,453.208,457.696,462.077,465.752,470.132,475.326,478.485,481.337,485.012,490.108,498.242,501.332,504.488,509.79,514.2,517.32,522.318,529.452" svgx:width="0.67,0.54,0.45,0.38,0.45,0.29,0.52,0.38,0.45,0.22,0.55,0.32,0.54,0.45,0.55,0.53,0.54,0.45,0.55,0.32,0.26,0.32,0.45,0.55,0.52,0.29,0.55,0.68,0.56,0.71,0.55,0.38,0.45,0.45,0.52,0.46,0.45,0.38,0.45,0.53,0.55,0.29,0.38,0.52,0.83,0.55,0.32,0.54,0.45,0.55,0.51,0.71,0.93" style="fill:rgb(19,20,19);font-family:HxlkbcRwbtfvAdvTT86d47313;font-size:9.8px;stroke:none;" xmlns:svgx="http://www.xml-cml.org/schema/svgx">Therefore, the quantity of CPA recovered from the SAM</text>
  <text y="383.355" x="304.72,311.55,316.058,319.782,322.805,327.185,330.958,334.114,336.662,344.825,349.206,352.361,356.742,361.93600000000004,364.984,369.365,372.50100000000003,375.529,380.831,385.731,387.867,392.767,397.667" svgx:width="0.7,0.45,0.38,0.55,0.45,0.38,0.32,0.26,0.83,0.45,0.32,0.45,0.53,0.55,0.45,0.32,0.55,0.54,0.5,0.22,0.5,0.5,0.5" style="fill:rgb(19,20,19);font-family:HxlkbcRwbtfvAdvTT86d47313;font-size:9.8px;stroke:none;" xmlns:svgx="http://www.xml-cml.org/schema/svgx">was estimated at &lt;0.006</text>
  <text y="383.355" x="405.52" svgx:width="0.54" style="fill:rgb(19,20,19);font-family:FbncwtMssckvAdvTT86d47313;font-size:9.8px;stroke:none;" xmlns:svgx="http://www.xml-cml.org/schema/svgx">μ</text>
  <text y="383.355" x="410.849,415.543" svgx:width="0.48,0.22" style="fill:rgb(19,20,19);font-family:HxlkbcRwbtfvAdvTT86d47313;font-size:9.8px;stroke:none;" xmlns:svgx="http://www.xml-cml.org/schema/svgx">g.</text>
  <text y="407.339" x="304.724,309.416,314.016,318.616,320.916,326.087,330.687,333.921,336.221,341.391,346.543,349.341,354.512,357.364,360.17,365.533,370.612,376.408,379.218,383.818,389.081,392.908,398.079,401.335,406.699,409.946,412.246,416.846,421.538,424.289,428.889,434.252,436.552,438.852,441.152,444.308,448.908,451.728,456.898,459.75,462.556,465.712,470.883,475.575,478.317,486.141,490.741,494.568" svgx:width="0.51,0.5,0.5,0.25,0.56,0.5,0.34,0.25,0.56,0.56,0.55,0.56,0.31,0.55,0.58,0.55,0.63,0.55,0.5,0.57,0.42,0.56,0.35,0.58,0.34,0.25,0.5,0.51,0.55,0.5,0.58,0.25,0.25,0.25,0.34,0.5,0.55,0.56,0.31,0.55,0.34,0.56,0.51,0.55,0.84,0.5,0.42,0.5" style="fill:rgb(19,20,19);font-family:QdymfyXlgmvvAdvTT99c4c969;font-size:9.2px;stroke:none;" xmlns:svgx="http://www.xml-cml.org/schema/svgx">Evaluation of CPA adsorptive ability of the mask</text>
  <text y="419.358" x="304.724,309.82,312.208,316.902,322.072,325.747,330.15700000000004,334.998,339.89799999999997,344.863,348.538,352.8,358.003,361.474,365.854,369.524,373.776,379.186,382.341,386.065,391.067,394.223,399.344,403.754,408.755,415.275,420.207,427.165,432.113,436.494,441.581,445.354,450.255,453.93,458.985,462.141,464.541,469.029,473.439,478.318,482.698,487.616,490.164,492.548,495.096,498.104,502.514,507.458,512.554,515.396,520.327,524.707,528.944,533.325" svgx:width="0.52,0.26,0.48,0.54,0.38,0.45,0.55,0.5,0.55,0.38,0.45,0.53,0.38,0.45,0.38,0.45,0.55,0.32,0.38,0.55,0.32,0.54,0.45,0.55,0.68,0.56,0.71,0.55,0.45,0.53,0.38,0.52,0.38,0.53,0.32,0.26,0.46,0.45,0.55,0.45,0.52,0.26,0.26,0.26,0.32,0.45,0.55,0.52,0.29,0.55,0.45,0.45,0.45,0.54" style="fill:rgb(19,20,19);font-family:HxlkbcRwbtfvAdvTT86d47313;font-size:9.8px;stroke:none;" xmlns:svgx="http://www.xml-cml.org/schema/svgx">Figure 4 represents the CPA adsorptive ability of each</text>
  <text y="431.319" x="304.724,312.888,317.268,320.938,325.838,327.994,332.163,338.512,343.814,348.22400000000005,352.459,356.134,360.339,364.112,369.24,371.788,374.944,378.668,382.96,388.056,390.89799999999997,395.149,398.305,405.014,410.003,413.57,420.264,424.645,429.055,433.304,440.242,447.534,455.074,461.027,467.985,472.309,479.139,483.364,487.039,491.449,495.61,499.99,503.714,508.139,510.991,515.906,518.454,520.839,525.935,532.631,536.404" svgx:width="0.83,0.45,0.38,0.5,0.22,0.55,0.67,0.54,0.45,0.55,0.38,0.45,0.38,0.54,0.26,0.32,0.38,0.55,0.52,0.29,0.55,0.32,0.7,0.52,0.36,0.7,0.45,0.45,0.55,0.71,0.76,0.78,0.69,0.71,0.55,0.7,0.45,0.38,0.45,0.55,0.45,0.38,0.55,0.29,0.52,0.26,0.26,0.52,0.7,0.38,0.22" style="fill:rgb(19,20,19);font-family:HxlkbcRwbtfvAdvTT86d47313;font-size:9.8px;stroke:none;" xmlns:svgx="http://www.xml-cml.org/schema/svgx">mask. The results of two-way ANOVA were as follows:</text>
  <text y="443.338" x="304.724,311.359,316.176,323.134,326.381,330.762,335.735,341.145,345.316,349.697,354.955,358.11,361.644,366.025,369.015,371.563,376.555,381.964,384.12,387.327" svgx:width="0.68,0.56,0.71,0.55,0.45,0.52,0.55,0.45,0.45,0.55,0.32,0.38,0.45,0.32,0.26,0.52,0.55,0.22,0.55,0.52" style="fill:rgb(19,20,19);font-family:HxlkbcRwbtfvAdvTT86d47313;font-size:9.8px;stroke:none;" xmlns:svgx="http://www.xml-cml.org/schema/svgx">CPA concentration, F</text>
  <text y="444.983" x="392.372,396.047,397.4836,400.876,404.551" svgx:width="0.5,0.22,0.55,0.5,0.5" style="fill:rgb(19,20,19);font-family:HxlkbcRwbtfvAdvTT86d47313;font-size:6.53px;stroke:none;" xmlns:svgx="http://www.xml-cml.org/schema/svgx">4, 60</text>
  <text y="443.339" x="410.003,415.687,417.6,422.5,427.238,429.375,434.098" svgx:width="0.58,0.55,0.5,0.5,0.22,0.5,0.22" style="fill:rgb(19,20,19);font-family:HxlkbcRwbtfvAdvTT86d47313;font-size:9.8px;stroke:none;" xmlns:svgx="http://www.xml-cml.org/schema/svgx">= 11.1,</text>
  <text y="443.339" x="439.597" svgx:width="0.52" style="fill:rgb(19,20,19);font-family:TbxpwdSpqdhwAdvTT8861b38f.I;font-size:9.8px;stroke:none;" xmlns:svgx="http://www.xml-cml.org/schema/svgx">p</text>
  <text y="443.339" x="446.57,451.86199999999997,453.714,458.614,460.574,465.474,470.212,475.112,477.26800000000003,480.53,489.615,493.995,497.652,502.754,504.91,508.253" svgx:width="0.54,0.55,0.5,0.22,0.5,0.5,0.5,0.22,0.55,0.93,0.45,0.38,0.5,0.22,0.55,0.52" style="fill:rgb(19,20,19);font-family:HxlkbcRwbtfvAdvTT86d47313;font-size:9.8px;stroke:none;" xmlns:svgx="http://www.xml-cml.org/schema/svgx">&lt; 0.001; Mask, F</text>
  <text y="444.983" x="513.241,516.916,518.3526,521.801,525.476" svgx:width="0.5,0.22,0.55,0.5,0.5" style="fill:rgb(19,20,19);font-family:HxlkbcRwbtfvAdvTT86d47313;font-size:6.53px;stroke:none;" xmlns:svgx="http://www.xml-cml.org/schema/svgx">3, 60</text>
  <text y="443.339" x="530.929" svgx:width="0.58" style="fill:rgb(19,20,19);font-family:HxlkbcRwbtfvAdvTT86d47313;font-size:9.8px;stroke:none;" xmlns:svgx="http://www.xml-cml.org/schema/svgx">=</text>
  <text y="455.357" x="304.725,309.625,314.363,316.499,321.223,326.123,330.861,332.998,337.778" svgx:width="0.5,0.5,0.22,0.5,0.5,0.5,0.22,0.5,0.22" style="fill:rgb(19,20,19);font-family:HxlkbcRwbtfvAdvTT86d47313;font-size:9.8px;stroke:none;" xmlns:svgx="http://www.xml-cml.org/schema/svgx">22,526.3,</text>
  <text y="455.357" x="343.843" svgx:width="0.52" style="fill:rgb(19,20,19);font-family:TbxpwdSpqdhwAdvTT8861b38f.I;font-size:9.8px;stroke:none;" xmlns:svgx="http://www.xml-cml.org/schema/svgx">p</text>
  <text y="455.357" x="350.817,356.109,357.96,362.86,364.82,369.72,374.458,379.358,381.514,385.343,389.723,394.981,400.175,404.165,410.685,415.618,422.576,426.39,430.77,435.744,441.153,445.382,449.762,455.02,458.176,461.654,466.034,469.08,471.518,476.614,482.00399999999996,483.82,489.504,491.417,499.467,503.848,507.621,512.521,516.418,518.966,524.242,527.397,531.612,535.014" svgx:width="0.54,0.55,0.5,0.22,0.5,0.5,0.5,0.22,0.55,0.45,0.55,0.53,0.55,0.68,0.56,0.71,0.55,0.45,0.52,0.55,0.45,0.45,0.55,0.32,0.38,0.45,0.32,0.26,0.52,0.55,0.55,0.58,0.55,0.83,0.45,0.38,0.5,0.55,0.26,0.55,0.32,0.45,0.38,0.36" style="fill:rgb(19,20,19);font-family:HxlkbcRwbtfvAdvTT86d47313;font-size:9.8px;stroke:none;" xmlns:svgx="http://www.xml-cml.org/schema/svgx">&lt; 0.001, and CPA concentration × mask inter-</text>
  <text y="467.319" x="304.726,309.106,313.343,316.498,318.898,323.888,329.297,331.45300000000003,335.226" svgx:width="0.45,0.45,0.32,0.26,0.52,0.55,0.22,0.55,0.52" style="fill:rgb(19,20,19);font-family:HxlkbcRwbtfvAdvTT86d47313;font-size:9.8px;stroke:none;" xmlns:svgx="http://www.xml-cml.org/schema/svgx">action, F</text>
  <text y="468.964" x="340.271,343.946,347.471,348.9076,352.914,356.589" svgx:width="0.5,0.5,0.22,0.55,0.5,0.5" style="fill:rgb(19,20,19);font-family:HxlkbcRwbtfvAdvTT86d47313;font-size:6.53px;stroke:none;" xmlns:svgx="http://www.xml-cml.org/schema/svgx">12, 60</text>
  <text y="467.32" x="362.041,367.725,369.638,374.538,376.498,381.398" svgx:width="0.58,0.55,0.5,0.22,0.5,0.22" style="fill:rgb(19,20,19);font-family:HxlkbcRwbtfvAdvTT86d47313;font-size:9.8px;stroke:none;" xmlns:svgx="http://www.xml-cml.org/schema/svgx">= 6.5,</text>
  <text y="467.32" x="387.326" svgx:width="0.52" style="fill:rgb(19,20,19);font-family:TbxpwdSpqdhwAdvTT8861b38f.I;font-size:9.8px;stroke:none;" xmlns:svgx="http://www.xml-cml.org/schema/svgx">p</text>
  <text y="467.32" x="394.299,399.59099999999995,401.499,406.399,408.359,413.259,417.997,422.897,425.053,428.825,435.345,440.277,447.235,450.993,455.373,460.347,465.756,469.985,474.365,479.623,482.779,486.257,490.637,493.683,496.121,501.217,506.496,510.21999999999997,514.15,516.588,521.978,525.885,529.041,534.163" svgx:width="0.54,0.55,0.5,0.22,0.5,0.5,0.5,0.22,0.55,0.68,0.56,0.71,0.55,0.45,0.52,0.55,0.45,0.45,0.55,0.32,0.38,0.45,0.32,0.26,0.52,0.55,0.38,0.55,0.26,0.55,0.55,0.32,0.54,0.45" style="fill:rgb(19,20,19);font-family:HxlkbcRwbtfvAdvTT86d47313;font-size:9.8px;stroke:none;" xmlns:svgx="http://www.xml-cml.org/schema/svgx">&lt; 0.001. CPA concentrations in the</text>
  <text y="479.338" x="304.725,310.233,316.867,325.702,329.269,331.654,339.818,347.868,352.249,355.748,359.521,363.742,368.93600000000004,373.04,376.813,381.771,384.209,389.511,392.543,394.981,400.077,405.356,409.08,413.18,420.01,424.235,427.91,432.32000000000005,436.31,440.083,442.433,444.981,449.52,454.821,457.853,460.292,464.702,468.739,471.287,476.279,483.11,487.334,491.058,495.045,498.201,503.379,507.759,513.149,517.156,520.311,525.433,530.529,534.163" svgx:width="0.56,0.68,0.93,0.36,0.26,0.83,0.83,0.45,0.38,0.38,0.45,0.53,0.55,0.38,0.52,0.26,0.54,0.32,0.26,0.52,0.55,0.38,0.55,0.7,0.45,0.38,0.45,0.55,0.38,0.26,0.26,0.48,0.54,0.32,0.26,0.45,0.55,0.26,0.52,0.7,0.45,0.38,0.55,0.32,0.54,0.45,0.55,0.55,0.32,0.54,0.52,0.38,0.45" style="fill:rgb(19,20,19);font-family:HxlkbcRwbtfvAdvTT86d47313;font-size:9.8px;stroke:none;" xmlns:svgx="http://www.xml-cml.org/schema/svgx">PCM-immersed solutions were slightly lower than those</text>
  <text y="491.357" x="304.725,309.821,312.663,315.44,318.596,323.774,328.184,331.088,335.468,340.442,345.851,348.833,352.508,357.45,359.888,362.044,364.877,371.512,376.386,383.34400000000005,386.08,390.461,395.378,400.788,405.016,409.397,414.655,417.81,421.344,425.725,428.715,431.263,436.198,441.607,445.331,448.16,450.707,456.097,458.875,462.03,467.209,471.619,474.409,479.341,486.427,495.327,498.786,501.334,509.387,517.438,521.819,525.375,529.148,533.369" svgx:width="0.52,0.29,0.55,0.32,0.54,0.45,0.55,0.45,0.52,0.55,0.32,0.38,0.52,0.26,0.22,0.55,0.68,0.56,0.71,0.55,0.45,0.52,0.55,0.45,0.45,0.55,0.32,0.38,0.45,0.32,0.26,0.52,0.55,0.38,0.55,0.26,0.55,0.55,0.32,0.54,0.45,0.55,0.56,0.71,0.93,0.36,0.26,0.83,0.83,0.45,0.38,0.38,0.45,0.53" style="fill:rgb(19,20,19);font-family:HxlkbcRwbtfvAdvTT86d47313;font-size:9.8px;stroke:none;" xmlns:svgx="http://www.xml-cml.org/schema/svgx">of the control. CPA concentrations in the PAM-immersed</text>
  <text y="264.302" x="62.702,66.862,69.022,73.686,75.686,78.066" svgx:width="0.52,0.27,0.58,0.25,0.55,0.55" style="fill:rgb(19,20,19);font-family:NmsnmlHbfwjwAdvTTaf7f9f4f.B;font-size:8.0px;stroke:none;" xmlns:svgx="http://www.xml-cml.org/schema/svgx">Fig. 2</text>
  <text y="264.302" x="84.869,88.533,91.843,96.091,99.723,106.073,109.649,111.912,113.442,116.96199999999999,118.998,120.662,122.174,123.704,127.864,130.621,133.037,135.156,138.732,140.938,142.602,146.664,150.904,153.014,157.262,159.342,161.291,165.657,169.657,174.297,176.315,179.774,184.102,186.803,191.051,193.209,197.537,199.729,201.393,204.832,208.672,210.728,214.186,218.514,219.968,221.632,223.143,225.559,229.079,231.023,234.708,238.124,242.305,245.99,248.318,249.788,256.284,259.936,264.184,266.399,267.759,269.8,273.464,274.96,279.155,283.315,285.447,289.287,291.343,295.183,297.239,298.903,302.966,307.293,308.748,312.244,315.665,318.081,321.674,325.99399999999997,328.08,331.68,333.75,336.527,340.023,344.067,347.899,354.215,357.674,360.09,361.585,365.10499999999996,367.141,368.805,370.26,371.924,375.929,378.707,381.123,383.299,386.757,389.173,390.669,394.917,399.157,401.101,405.349,407.429,409.378,413.874,417.712,422.352,424.401,427.977,432.112,435.024,439.085,441.413,445.548,447.964,449.46,452.919,456.75899999999996,458.815,462.391,466.525,468.189,469.7,471.23,473.646,477.166,479.11,483.358,485.438,487.444,489.712,493.96,497.79999999999995,499.803,506.152,509.728,512.445,515.773" svgx:width="0.46,0.44,0.53,0.48,0.81,0.45,0.3,0.21,0.44,0.55,0.21,0.21,0.21,0.52,0.36,0.3,0.29,0.45,0.3,0.21,0.53,0.53,0.55,0.53,0.26,0.55,0.56,0.5,0.58,0.55,0.45,0.54,0.36,0.53,0.29,0.54,0.3,0.21,0.45,0.48,0.55,0.45,0.54,0.21,0.21,0.21,0.3,0.44,0.55,0.48,0.43,0.54,0.48,0.29,0.21,0.81,0.48,0.53,0.3,0.17,0.55,0.46,0.21,0.54,0.52,0.29,0.48,0.55,0.48,0.55,0.21,0.53,0.54,0.21,0.44,0.45,0.3,0.48,0.54,0.55,0.45,0.55,0.36,0.44,0.53,0.48,0.81,0.45,0.3,0.21,0.44,0.55,0.21,0.21,0.21,0.52,0.36,0.3,0.29,0.45,0.3,0.21,0.53,0.53,0.55,0.53,0.26,0.55,0.56,0.5,0.58,0.55,0.45,0.54,0.36,0.53,0.29,0.54,0.3,0.21,0.45,0.48,0.55,0.45,0.54,0.21,0.21,0.21,0.3,0.44,0.55,0.53,0.26,0.55,0.3,0.53,0.48,0.55,0.81,0.45,0.36,0.42,0.17" style="fill:rgb(19,20,19);font-family:QpvgtyHxpfsrAdvTTb5929f4c;font-size:8.0px;stroke:none;" xmlns:svgx="http://www.xml-cml.org/schema/svgx">Schematic illustration of CPA adsorptive ability experiment. Figure 2 indicated a schematic illustration of CPA adsorptive ability of the mask.</text>
  <text y="274.281" x="62.702,66.366,69.733,73.229,77.469,79.427,85.923,89.292,92.204,95.564,97.512,101.84,103.351,107.036,110.532,114.372,116.334,118.414,122.254,124.214,127.709" svgx:width="0.46,0.45,0.44,0.53,0.55,0.81,0.45,0.36,0.42,0.55,0.54,0.21,0.48,0.44,0.48,0.55,0.26,0.48,0.55,0.44,0.81" style="fill:rgb(19,20,19);font-family:QpvgtyHxpfsrAdvTTb5929f4c;font-size:8.0px;stroke:none;" xmlns:svgx="http://www.xml-cml.org/schema/svgx">Each mask piece (5 cm</text>
  <text y="270.765" x="134.022" svgx:width="0.48" style="fill:rgb(19,20,19);font-family:QpvgtyHxpfsrAdvTTb5929f4c;font-size:5.33px;stroke:none;" xmlns:svgx="http://www.xml-cml.org/schema/svgx">2</text>
  <text y="274.28" x="136.8,138.88000000000002,140.938,146.682,150.066,152.946,155.055,156.585,163.081,169.398,173.23,175.351,178.263,181.927,186.24699999999999,188.277,189.941,194.181,196.157,199.733,203.13,205.458,206.929,211.177,215.149,218.029,220.138,223.634,227.678,231.926,235.218,239.05,243.098,245.514,247.633,251.209,253.472,255.002,259.25,263.336,266.216,268.268,272.516,274.596,276.601,280.967,284.967,289.60699999999997,291.625,294.403,298.651,300.129,304.289,306.535,308.066,312.314,316.399,319.279,321.331,323.411,327.058,330.89799999999997,332.954,339.449,342.818,344.89799999999997,346.957,350.533,354.61,358.93,361.016,363.794,368.042,371.447,374.775,378.421,382.661,384.714,386.794,390.837,393.157,395.259,399.099,401.155,405.395,407.448,410.906,413.306,415.384,419.216,423.056,425.022,427.233,431.729,433.089,435.057,439.592,441.672,443.901,447.733,450.053,452.065,453.595,460.091,466.408,470.24,472.361,475.272,476.726,480.974,485.214,487.214,491.462,493.542,495.491,499.739,503.769,507.609,509.665,513.913,517.999,522.024,524.352" svgx:width="0.26,0.55,0.72,0.45,0.36,0.55,0.21,0.81,0.81,0.48,0.29,0.36,0.48,0.54,0.55,0.21,0.53,0.55,0.45,0.45,0.29,0.21,0.53,0.52,0.36,0.55,0.44,0.53,0.53,0.44,0.48,0.53,0.3,0.29,0.45,0.3,0.21,0.53,0.53,0.36,0.55,0.53,0.26,0.55,0.56,0.5,0.58,0.55,0.36,0.53,0.21,0.52,0.3,0.21,0.53,0.53,0.36,0.55,0.26,0.48,0.48,0.55,0.81,0.45,0.26,0.55,0.45,0.53,0.54,0.55,0.36,0.53,0.45,0.42,0.48,0.53,0.55,0.26,0.53,0.29,0.55,0.48,0.55,0.53,0.55,0.45,0.3,0.55,0.48,0.48,0.55,0.29,0.56,0.17,0.55,0.58,0.26,0.3,0.48,0.29,0.55,0.21,0.81,0.81,0.48,0.29,0.36,0.21,0.53,0.53,0.55,0.53,0.26,0.55,0.53,0.53,0.48,0.55,0.53,0.53,0.52,0.29,0.17" style="fill:rgb(19,20,19);font-family:QpvgtyHxpfsrAdvTTb5929f4c;font-size:8.0px;stroke:none;" xmlns:svgx="http://www.xml-cml.org/schema/svgx">) was immersed in various concentrations of CPA solutions (10 mL) and shaken for 1 h at 20 °C. After immersion of one hour,</text>
  <text y="284.315" x="62.703,67.068,71.068,75.708,77.726,81.222,85.266,89.514,92.806,96.638,100.686,103.102,105.221,108.797,111.004,112.668,116.73,120.97,123.079,127.327,129.407,131.357,133.773,137.82,141.66,143.716,146.493,150.741,152.22,156.38,158.626,160.29,164.352,168.592,170.645,176.389,179.773,182.653,184.762,191.111,194.943,198.368,201.146,205.306,207.438,211.27,215.59,217.586,221.914,225.434,227.394,232.27,236.27,239.64" svgx:width="0.56,0.5,0.58,0.55,0.44,0.53,0.53,0.44,0.48,0.53,0.3,0.29,0.45,0.3,0.21,0.53,0.53,0.55,0.53,0.26,0.55,0.3,0.53,0.48,0.55,0.36,0.53,0.21,0.52,0.3,0.21,0.53,0.53,0.55,0.72,0.45,0.36,0.55,0.81,0.48,0.45,0.36,0.52,0.29,0.48,0.54,0.55,0.54,0.44,0.55,0.63,0.5,0.45,0.56" style="fill:rgb(19,20,19);font-family:QpvgtyHxpfsrAdvTTb5929f4c;font-size:8.0px;stroke:none;" xmlns:svgx="http://www.xml-cml.org/schema/svgx">CPA concentration of the solution was measured by HPLC</text>
  <text y="665.065" x="310.734,314.894,317.054,321.718,323.718,326.098" svgx:width="0.52,0.27,0.58,0.25,0.55,0.55" style="fill:rgb(19,20,19);font-family:NmsnmlHbfwjwAdvTTaf7f9f4f.B;font-size:8.0px;stroke:none;" xmlns:svgx="http://www.xml-cml.org/schema/svgx">Fig. 3</text>
  <text y="665.065" x="332.901,336.653,340.237,342.277,348.525,352.109,355.437,359.517,360.878,362.294,363.71,365.878,369.39799999999997,371.32,375.289,377.36899999999997,379.258,381.412,385.412,389.25199999999995,391.138,397.386,400.674,403.338,406.418,409.298,411.237,413.052,417.052,419.372,421.247,423.415,427.415,431.255,433.141,436.429,439.757,443.837,447.837,449.917,451.333,454.245,457.829,462.149,464.065,468.313,471.997,476.637,478.574" svgx:width="0.5,0.48,0.29,0.81,0.48,0.45,0.54,0.21,0.21,0.21,0.3,0.44,0.55,0.53,0.26,0.55,0.3,0.53,0.48,0.55,0.81,0.45,0.36,0.42,0.36,0.55,0.26,0.53,0.29,0.55,0.3,0.53,0.48,0.55,0.45,0.45,0.54,0.53,0.29,0.21,0.4,0.48,0.54,0.55,0.56,0.5,0.58,0.55,0.26" style="fill:rgb(19,20,19);font-family:QpvgtyHxpfsrAdvTTb5929f4c;font-size:8.0px;stroke:none;" xmlns:svgx="http://www.xml-cml.org/schema/svgx">Permeability of the masks for the vaporized CPA (</text>
  <text y="665.065" x="480.358" svgx:width="0.51" style="fill:rgb(19,20,19);font-family:YgmtfvXkccfjAdvTT1b53b5fb.I;font-size:8.0px;stroke:none;" xmlns:svgx="http://www.xml-cml.org/schema/svgx">n</text>
  <text y="665.065" x="485.8,491.867,495.439,497.263,498.623,500.495,503.903,505.312,509.385,510.745,512.616" svgx:width="0.59,0.48,0.26,0.17,0.55,0.46,0.21,0.54,0.17,0.55,0.48" style="fill:rgb(19,20,19);font-family:QpvgtyHxpfsrAdvTTb5929f4c;font-size:8.0px;stroke:none;" xmlns:svgx="http://www.xml-cml.org/schema/svgx">=5). Fig. 3</text>
  <text y="675.099" x="310.734,312.147,316.145,320.222,321.636,324.882,328.17,330.381,333.962,338.282,340.141,342.307,346.304,350.14399999999995,352.031,356.112,359.694,361.735,367.98,371.562,374.887,378.965,380.326,381.739,383.153,385.318,388.83799999999997,390.761,394.729,396.80899999999997,398.698,400.852,404.85,408.69,410.576,416.822,420.11,422.771,425.849,428.729,430.668,432.482,436.48,438.8,440.675,442.886,446.855,450.695,452.581,455.925,459.213,463.295,467.292,469.37,470.784,473.693,477.275,481.59499999999997,483.511,487.756,491.506,495.871,497.231,499.102,502.516,506.514" svgx:width="0.21,0.53,0.54,0.21,0.44,0.45,0.3,0.48,0.54,0.55,0.3,0.53,0.48,0.55,0.54,0.48,0.29,0.81,0.48,0.45,0.54,0.21,0.21,0.21,0.3,0.44,0.55,0.53,0.26,0.55,0.3,0.53,0.48,0.55,0.81,0.45,0.36,0.42,0.36,0.55,0.26,0.53,0.29,0.55,0.3,0.53,0.48,0.55,0.45,0.45,0.54,0.53,0.29,0.21,0.4,0.48,0.54,0.55,0.56,0.5,0.58,0.17,0.55,0.46,0.53,0.48" style="fill:rgb(19,20,19);font-family:QpvgtyHxpfsrAdvTTb5929f4c;font-size:8.0px;stroke:none;" xmlns:svgx="http://www.xml-cml.org/schema/svgx">indicated the permeability of the masks for the vaporized CPA. The</text>
  <text y="685.076" x="310.734,314.807,318.383,320.544,324.121,326.162,332.398,333.806,337.799,341.12,343.281,344.689,348.682,352.922,354.861,356.279,360.519,362.402,365.974,369.295,372.535,376.77500000000003,378.658,382.74,384.813,388.806,392.71,397.03,398.946,404.389,407.733,410.613,412.552,414.593,418.17,422.243,425.82,429.14,431.301,434.878,439.198,441.114,442.928,446.921,450.826,453.146,455.078,457.232,458.641,464.881,468.458,471.115,472.475,474.346,477.748,481.036,484.324,488.564,490.447,494.528,497.816,500.13599999999997,502.068,503.477,507.47,511.542,512.951,516.192,519.513,521.673,525.25" svgx:width="0.54,0.48,0.3,0.48,0.29,0.81,0.21,0.53,0.45,0.3,0.21,0.53,0.53,0.55,0.21,0.53,0.55,0.48,0.45,0.44,0.53,0.55,0.54,0.29,0.53,0.52,0.54,0.55,0.72,0.45,0.36,0.55,0.29,0.48,0.54,0.48,0.45,0.3,0.48,0.54,0.55,0.26,0.53,0.52,0.29,0.55,0.3,0.21,0.81,0.48,0.36,0.17,0.55,0.46,0.45,0.44,0.53,0.55,0.54,0.45,0.29,0.55,0.21,0.53,0.54,0.21,0.44,0.45,0.3,0.48,0.54" style="fill:rgb(19,20,19);font-family:QpvgtyHxpfsrAdvTTb5929f4c;font-size:8.0px;stroke:none;" xmlns:svgx="http://www.xml-cml.org/schema/svgx">determination in each group was repeated four times. Each bar indicated</text>
  <text y="695.054" x="310.734,314.053,316.933,318.872,325.111,328.686,332.006,336.246,337.561,343.628,346.283,348.442,351.761,355.753,359.824,363.143,365.214" svgx:width="0.45,0.36,0.55,0.81,0.48,0.45,0.53,0.55,0.59,0.36,0.3,0.45,0.53,0.54,0.45,0.29,0.54" style="fill:rgb(19,20,19);font-family:QpvgtyHxpfsrAdvTTb5929f4c;font-size:8.0px;stroke:none;" xmlns:svgx="http://www.xml-cml.org/schema/svgx">as mean ±standard</text>
  <text y="695.054" x="371.451" svgx:width="0.59" style="fill:rgb(19,20,19);font-family:JrbbnhQdyfbkAdvTTb5929f4c;font-size:8.0px;stroke:none;" xmlns:svgx="http://www.xml-cml.org/schema/svgx">□</text>
  <text y="695.054" x="375.93,376.996,381.23,385.217,389.203,391.358,393.455,397.424,399.104,400.996,402.81,406.836,411.076,412.959,419.193,422.538,425.188,428.255,430.073" svgx:width="0.17,0.56,0.53,0.53,0.3,0.29,0.53,0.21,0.55,0.26,0.53,0.53,0.55,0.81,0.45,0.36,0.42,0.26,0.17" style="fill:rgb(19,20,19);font-family:QpvgtyHxpfsrAdvTTb5929f4c;font-size:8.0px;stroke:none;" xmlns:svgx="http://www.xml-cml.org/schema/svgx">;Control (no mask),</text>
  <text y="695.055" x="439.767,440.84,444.586,448.827,454.733" svgx:width="0.17,0.5,0.56,0.77,0.17" style="fill:rgb(19,20,19);font-family:QpvgtyHxpfsrAdvTTb5929f4c;font-size:8.0px;stroke:none;" xmlns:svgx="http://www.xml-cml.org/schema/svgx">;PCM,</text>
  <text y="695.055" x="464.428,465.503,469.249,473.659,479.566" svgx:width="0.17,0.5,0.58,0.77,0.17" style="fill:rgb(19,20,19);font-family:QpvgtyHxpfsrAdvTTb5929f4c;font-size:8.0px;stroke:none;" xmlns:svgx="http://www.xml-cml.org/schema/svgx">;PAM,</text>
  <text y="695.055" x="489.26,490.333,493.743,498.152,504.058" svgx:width="0.17,0.46,0.58,0.77,0.17" style="fill:rgb(19,20,19);font-family:QpvgtyHxpfsrAdvTTb5929f4c;font-size:8.0px;stroke:none;" xmlns:svgx="http://www.xml-cml.org/schema/svgx">;SAM,</text>
  <text y="705.089" x="310.735,312.776,316.348,319.007,323.083,326.663,329.907,332.071,333.483,336.807,340.387,341.799,345.043,346.403,348.274,351.102,353.93,356.97,358.862,360.274,364.27,368.296,369.713,372.957,376.281,378.445,382.025,386.34499999999997,388.261,391.86100000000005,393.76,396.42,397.781,401.857,405.853,407.214,409.085,410.497,413.741,417.029,421.054,423.45399999999995,425.363,429.439,430.851,432.679,434.507,438.087,440.163,443.743,447.739,450.983,454.823,456.709,460.79,464.31,466.176,469.578,473.486,476.561,480.141,483.661,485.527,487.738,491.253,493.913,496.313,498.279,503.721,505.139,507.303,511.543,513.482,514.894,518.474,521.082" svgx:width="0.29,0.48,0.36,0.54,0.48,0.44,0.3,0.21,0.45,0.48,0.21,0.44,0.17,0.55,0.38,0.38,0.38,0.55,0.21,0.53,0.54,0.21,0.44,0.45,0.3,0.48,0.54,0.55,0.45,0.55,0.36,0.21,0.54,0.53,0.21,0.26,0.21,0.44,0.45,0.53,0.3,0.55,0.54,0.21,0.26,0.26,0.48,0.29,0.48,0.53,0.44,0.48,0.55,0.54,0.44,0.55,0.46,0.52,0.42,0.48,0.44,0.55,0.3,0.48,0.36,0.3,0.55,0.72,0.21,0.3,0.53,0.55,0.21,0.48,0.36,0.36" style="fill:rgb(19,20,19);font-family:QpvgtyHxpfsrAdvTTb5929f4c;font-size:8.0px;stroke:none;" xmlns:svgx="http://www.xml-cml.org/schema/svgx">respectively. *** indicated a significant difference by Tukey test with less</text>
  <text y="715.068" x="310.735,312.884,316.864,320.209,324.449,326.332,329.897,330.958,334.798,336.684,342.524,344.451,348.432,350.512,352.401,356.426,359.714,362.607,365.952,368.049,372.36899999999997,374.285,376.346,379.691,381.839,383.236,387.476,389.359,392.704,395.584,397.523,400.754,404.735,410.964,415.025,418.333,420.431,424.003,428.323,430.239,435.738,437.135,439.346,443.586,445.469,449.721,453.702,457.682,459.831,461.929,465.898,467.294,468.654,470.525,473.922,478.319,484.47900000000004,486.369,487.787,491.768,495.828,497.225,500.454,503.799,505.953,509.518" svgx:width="0.3,0.53,0.45,0.53,0.55,0.48,0.17,0.48,0.55,0.73,0.55,0.53,0.26,0.55,0.53,0.45,0.4,0.45,0.29,0.54,0.55,0.29,0.45,0.3,0.21,0.53,0.55,0.45,0.36,0.55,0.44,0.53,0.81,0.54,0.45,0.29,0.48,0.54,0.55,0.72,0.21,0.3,0.53,0.55,0.56,0.53,0.53,0.3,0.29,0.53,0.21,0.17,0.55,0.46,0.58,0.77,0.55,0.21,0.53,0.54,0.21,0.44,0.45,0.3,0.48,0.54" style="fill:rgb(19,20,19);font-family:QpvgtyHxpfsrAdvTTb5929f4c;font-size:8.0px;stroke:none;" xmlns:svgx="http://www.xml-cml.org/schema/svgx">than 0.1 % of hazard ratio as compared with Control. SAM indicated</text>
  <text y="725.102" x="310.735,314.804,318.378,319.783,323.773,329.533,331.426,333.581,337.57,341.40999999999997,343.297,344.702,346.108,352.345,353.751,356.15099999999995,358.06,362.049,364.12899999999996,366.018,370.088,373.989,377.307,381.296,383.454,384.859,386.681,388.087,391.324,394.642,396.799,398.205,402.194" svgx:width="0.54,0.48,0.21,0.53,0.72,0.55,0.3,0.53,0.48,0.55,0.21,0.21,0.81,0.21,0.3,0.55,0.53,0.26,0.55,0.54,0.52,0.45,0.53,0.3,0.21,0.26,0.21,0.44,0.45,0.3,0.21,0.53,0.53" style="fill:rgb(19,20,19);font-family:QpvgtyHxpfsrAdvTTb5929f4c;font-size:8.0px;stroke:none;" xmlns:svgx="http://www.xml-cml.org/schema/svgx">below the limit of quantification</text>
  <text y="39.007" x="56.695,60.607,64.439,67.015" svgx:width="0.49,0.48,0.32,0.54" style="fill:rgb(19,20,19);font-family:MkffdkCvhplgAdvTTe45e47d2;font-size:8.0px;stroke:none;" xmlns:svgx="http://www.xml-cml.org/schema/svgx">Sato</text>
  <text y="39.007" x="73.702,77.278,79.75800000000001,82.206,86.366,88.11,89.79,92.128,94.96,99.12,103.28,105.776,110.024,114.184,115.944,118.32,122.48,124.72,127.107,131.107,135.355,139.515,142.011,148.427,152.587,155.915,159.491,163.561,166.057,167.801,171.129,175.289,177.04899999999998,179.436,184.436,188.011,192.171,193.915,196.411,200.651,203.02,207.436,211.596,214.092,217.692,220.028,224.188,228.436,232.596,234.938,238.602,241.93,243.674,247.25,251.498,254.826,258.402" svgx:width="0.45,0.31,0.55,0.52,0.22,0.21,0.55,0.35,0.52,0.52,0.31,0.53,0.52,0.22,0.55,0.52,0.28,0.55,0.5,0.53,0.52,0.31,0.8,0.52,0.42,0.45,0.52,0.31,0.22,0.42,0.52,0.22,0.55,0.63,0.45,0.52,0.22,0.31,0.53,0.55,0.55,0.52,0.31,0.45,0.55,0.52,0.53,0.52,0.55,0.46,0.42,0.22,0.45,0.53,0.42,0.45,0.36" style="fill:rgb(19,20,19);font-family:YybmfqShhwgyAdvTT7329fd89.I;font-size:8.0px;stroke:none;" xmlns:svgx="http://www.xml-cml.org/schema/svgx">et al. Journal of Pharmaceutical Health Care and Sciences</text>
  <text y="39.007" x="263.679,265.375,267.647,271.751,275.855,279.959,284.063,286.335,288.031,292.135,293.791,297.895,301.999" svgx:width="0.21,0.28,0.51,0.51,0.51,0.51,0.28,0.21,0.51,0.21,0.51,0.51,0.21" style="fill:rgb(19,20,19);font-family:MyriadPro-Regular;font-size:8.0px;stroke:none;" xmlns:svgx="http://www.xml-cml.org/schema/svgx"> (2016) 2:28 </text>
  <text y="39.007" x="500.144,504.392,508.224,512.64,516.64,519.023,523.1030000000001,525.486,529.814,532.134,534.501" svgx:width="0.53,0.48,0.55,0.5,0.55,0.51,0.55,0.54,0.29,0.55,0.51" style="fill:rgb(19,20,19);font-family:MkffdkCvhplgAdvTTe45e47d2;font-size:8.0px;stroke:none;" xmlns:svgx="http://www.xml-cml.org/schema/svgx">Page 4 of 7</text>
 </g>
</svg>
