<?xml version="1.0" encoding="UTF-8"?>
<svg height="750.88" width="566.14" xmlns="http://www.w3.org/2000/svg">
 <g>
  <path style="fill:rgb(255,255,255);stroke:none;stroke-width:1.0;" d="M313.140 589.860 L556.140 589.860 L556.140 740.880 L313.140 740.880 "/>
  <path style="fill:none;stroke:rgb(0,0,0);stroke-width:1.0;" d="M313.130 589.940 M313.940 591.180 "/>
  <path style="fill:rgb(255,255,255);stroke:none;stroke-width:1.0;" d="M373.170 645.220 L544.120 645.220 L541.120 651.870 L364.170 652.870 L373.170 645.220 "/>
  <path style="fill:rgb(255,255,255);stroke:none;stroke-width:1.0;" d="M336.020 670.790 L546.320 666.790 L546.320 676.950 L336.020 681.950 L336.020 670.790 "/>
  <path style="fill:rgb(0,0,0);stroke:none;stroke-width:1.0;" d="M340.030 675.340 C340.030 675.870 339.600 676.300 339.060 676.300 C338.530 676.300 338.100 675.870 338.100 675.340 C338.100 674.810 338.530 674.380 339.060 674.380 C339.600 674.380 340.030 674.810 340.030 675.340 "/>
  <path style="fill:rgb(255,255,255);stroke:none;stroke-width:1.0;" d="M335.830 683.350 L543.670 682.350 L543.670 691.770 L335.830 692.770 L335.830 683.350 "/>
  <path style="fill:rgb(0,0,0);stroke:none;stroke-width:1.0;" d="M339.900 687.850 C339.900 688.380 339.470 688.820 338.940 688.820 C338.410 688.820 337.980 688.380 337.980 687.850 C337.980 687.320 338.410 686.880 338.940 686.880 C339.470 686.880 339.900 687.320 339.900 687.850 "/>
  <path style="fill:rgb(255,255,255);stroke:none;stroke-width:1.0;" d="M335.830 696.090 L534.690 695.090 L534.690 704.100 L335.830 704.100 L335.830 696.090 "/>
  <path style="fill:rgb(0,0,0);stroke:none;stroke-width:1.0;" d="M339.900 700.590 C339.900 701.130 339.470 701.560 338.940 701.560 C338.410 701.560 337.980 701.130 337.980 700.590 C337.980 700.060 338.410 699.630 338.940 699.630 C339.470 699.630 339.900 700.060 339.900 700.590 "/>
  <path style="fill:none;stroke:rgb(60,26,126);stroke-width:1.0;" d="M549.440 738.340 M500.640 738.340 M493.500 738.340 M472.780 738.340 "/>
  <path style="fill:rgb(57,93,167);stroke:none;stroke-width:0.25;" d="M472.620 734.510 C469.830 733.170 467.900 730.320 467.900 727.020 C467.900 722.430 471.610 718.720 476.200 718.720 C477.430 718.720 478.590 718.990 479.640 719.470 L479.860 719.080 C478.600 718.520 477.210 718.200 475.740 718.200 C470.150 718.200 465.620 722.730 465.620 728.320 C465.620 732.390 468.020 735.890 471.480 737.500 L472.620 734.510 Z"/>
  <path style="fill:rgb(0,99,106);stroke:none;stroke-width:0.51;" d="M479.930 719.600 C482.710 720.960 484.620 723.830 484.590 727.130 C484.560 731.710 480.810 735.400 476.230 735.360 C475.000 735.350 473.890 735.110 472.850 734.620 L472.710 735.010 C473.960 735.590 475.210 735.870 476.680 735.880 C482.270 735.930 486.840 731.430 486.880 725.840 C486.910 721.780 484.540 718.250 481.100 716.620 L479.930 719.600 Z"/>
  <path style="fill:rgb(0,0,0);stroke:none;stroke-width:0.51;" d="M339.780 713.220 C339.780 713.750 339.350 714.180 338.810 714.180 C338.280 714.180 337.850 713.750 337.850 713.220 C337.850 712.690 338.280 712.250 338.810 712.250 C339.350 712.250 339.780 712.690 339.780 713.220 "/>
 </g>
</svg>
