<?xml version="1.0" encoding="UTF-8"?>
<svg height="759.827" width="4051.046" xmlns="http://www.w3.org/2000/svg">
 <g id="page" xmlns:svgx="http://www.xml-cml.org/schema/svgx">
  <g begin="text">
   <text y="60.265" x="37.871,39.918,44.403,49.272,52.351,57.294,62.703,67.745,69.792,72.87,77.813,83.222" svgx:width="0.22,0.5,0.55,0.33,0.54,0.59,0.55,0.22,0.33,0.54,0.59,0.28" style="fill:rgb(0,0,0);font-family:AdvPSA183;font-size:8.97px;stroke:none;">is required.</text>
   <text y="56.75" x="85.833,89.632" svgx:width="0.55,0.55" style="fill:rgb(0,121,173);font-family:AdvPSA183;font-size:5.98px;stroke:none;">10</text>
   <text y="60.265" x="98.192,104.062,109.933,115.4047,120.307,125.523,130.56,132.601,138.005,142.994,145.036,147.077,152.114,157.051,161.536,166.406,171.442,176.38,180.95,185.79379999999998,190.645,196.049,201.037,205.975,210.9085,215.783,217.825,222.7585,227.633,233.037,235.134,240.072,245.01,249.85379999999998,254.704,256.802,261.7355,266.61,269.494,274.531,279.3748,284.225,287.286,292.224,297.213,299.254,306.87850000000003,311.784,317.0,319.6013,324.483,329.519,334.457,339.395,341.436,344.321,349.2545,354.129,359.067,364.056,367.128,372.066" svgx:width="0.64,0.64,0.61,0.55,0.57,0.55,0.22,0.59,0.54,0.22,0.22,0.55,0.54,0.5,0.55,0.55,0.54,0.5,0.54,0.55,0.59,0.54,0.54,0.55,0.55,0.22,0.55,0.55,0.59,0.22,0.54,0.54,0.54,0.55,0.22,0.55,0.55,0.31,0.55,0.54,0.55,0.33,0.54,0.54,0.22,0.85,0.55,0.57,0.29,0.55,0.55,0.54,0.54,0.22,0.31,0.55,0.55,0.54,0.54,0.33,0.54,0.5" style="fill:rgb(0,0,0);font-family:AdvPSA183;font-size:8.97px;stroke:none;">PPE guidelines have been in place in the realm of health care–</text>
   <text y="71.206" x="37.87,42.808,47.378,51.861,57.127,62.115,64.155,69.093,71.977,76.915,82.2073,85.361,87.458,92.406,95.166,100.097,105.085,107.976,110.018,115.233,120.1665,123.283,128.271,133.22,138.5123,141.706,143.802,148.284,153.551,155.647,160.585,163.469,165.511,170.727,175.6605,178.833,183.771,188.709,191.781,196.6248,199.774,206.69,208.731,211.616,216.54950000000002,219.722,221.764,223.806,226.69,229.574,231.616,236.4598,239.609,247.374,252.59,257.994,260.036,262.732,264.773,269.711,274.699,277.59,279.632,284.847,289.78049999999996,292.896,295.617,300.832,303.7921,306.954,312.17,316.74,321.678,324.6381,327.8,332.6438,335.793,341.178,346.166,351.104,356.041,361.445,366.383" svgx:width="0.54,0.5,0.5,0.57,0.54,0.22,0.54,0.31,0.54,0.59,0.55,0.22,0.55,0.29,0.54,0.54,0.31,0.22,0.57,0.55,0.55,0.54,0.55,0.59,0.55,0.22,0.5,0.57,0.22,0.54,0.31,0.22,0.57,0.55,0.55,0.54,0.54,0.33,0.54,0.55,0.76,0.22,0.31,0.55,0.55,0.22,0.22,0.31,0.31,0.22,0.54,0.55,0.85,0.57,0.59,0.22,0.29,0.22,0.54,0.54,0.31,0.22,0.57,0.55,0.55,0.29,0.57,0.33,0.55,0.57,0.5,0.54,0.33,0.55,0.54,0.55,0.59,0.54,0.54,0.54,0.59,0.54,0.28" style="fill:rgb(0,0,0);font-family:AdvPSA183;font-size:8.97px;stroke:none;">associated infection and isolation care with little modification for over a decade.</text>
   <text y="67.692" x="369.071,372.87" svgx:width="0.55,0.55" style="fill:rgb(0,121,173);font-family:AdvPSA183;font-size:5.98px;stroke:none;">11</text>
   <text y="82.148" x="37.871,44.219,49.266,53.749,59.244,61.292,64.183,69.02680000000001,71.949,74.841,79.883,81.931,86.416,89.302,94.517,99.56,101.608,107.018,111.962,117.005,121.949,126.893,129.4046,132.335,135.226,140.269,145.1128,148.035,150.076,155.02,159.964,164.6284,167.504,172.72,175.3213,178.275,182.868,185.758,190.702,195.745,201.147,206.091,209.17,214.581,219.066,221.952,224.654,229.876,232.83610000000002,235.773,241.217,246.161,250.737,252.785,258.007,262.9405,265.888,270.822,275.864,281.1563,284.085,289.496,294.44,297.519,300.221,305.443,308.522,316.273,321.217,326.259,331.203,336.04679999999996,338.971,344.188,346.78929999999997,349.744,354.966,360.188,367.096,372.138" svgx:width="0.71,0.54,0.5,0.59,0.22,0.31,0.54,0.55,0.31,0.55,0.22,0.5,0.55,0.57,0.55,0.22,0.59,0.54,0.55,0.54,0.54,0.28,0.55,0.31,0.55,0.54,0.55,0.22,0.54,0.54,0.52,0.55,0.57,0.29,0.55,0.5,0.31,0.54,0.55,0.59,0.54,0.33,0.59,0.5,0.55,0.29,0.57,0.33,0.55,0.59,0.54,0.5,0.22,0.57,0.55,0.55,0.54,0.55,0.59,0.55,0.59,0.54,0.33,0.29,0.57,0.33,0.85,0.54,0.55,0.54,0.54,0.55,0.57,0.29,0.55,0.57,0.57,0.76,0.55,0.5" style="fill:rgb(0,0,0);font-family:AdvPSA183;font-size:8.97px;stroke:none;">Despite this guidance, the lack of standards for design and performance of gowns</text>
   <text y="93.146" x="37.871,39.917,44.850500000000004,49.215,54.624,59.566,62.643,65.532,67.578,72.52,77.561,79.658,84.601,87.5611,91.914,96.903,101.836,109.493,114.3368,118.786,121.675,126.7879,131.143,133.189,135.286,140.506,145.547,148.3277,152.691,157.623,160.324,163.213,168.155,171.1151,175.525,178.414,183.455,188.2988,192.639,197.572,202.325,207.734,212.676,215.753,217.799,222.788,227.738,232.766,237.60979999999998,241.95,247.166,249.7673,254.139,257.031,260.149,265.091,270.034,272.923,274.969,280.01,285.1229,289.477,294.92,299.862,302.751,304.797,309.786,314.735,317.666,322.151,326.511,333.427,335.473,338.362,343.2955,347.66,353.257,358.854,365.2227,369.569,371.615" svgx:width="0.22,0.55,0.55,0.59,0.54,0.33,0.31,0.22,0.54,0.55,0.22,0.54,0.33,0.55,0.54,0.54,0.85,0.54,0.55,0.31,0.57,0.55,0.22,0.22,0.57,0.55,0.31,0.55,0.54,0.29,0.31,0.54,0.33,0.55,0.31,0.55,0.54,0.55,0.54,0.52,0.59,0.54,0.33,0.22,0.54,0.55,0.54,0.54,0.55,0.57,0.29,0.55,0.31,0.33,0.54,0.54,0.31,0.22,0.55,0.57,0.55,0.59,0.54,0.31,0.22,0.54,0.55,0.31,0.5,0.55,0.76,0.22,0.31,0.55,0.55,0.61,0.61,0.71,0.55,0.22,0.55" style="fill:rgb(0,0,0);font-family:AdvPSA183;font-size:8.97px;stroke:none;">in particular came to light after the experience of treating patients with EVD in</text>
   <text y="104.088" x="37.871,42.932,47.994,52.943,58.005" svgx:width="0.55,0.55,0.55,0.55,0.28" style="fill:rgb(0,0,0);font-family:AdvPSA183;font-size:8.97px;stroke:none;">2014.</text>
   <text y="100.573" x="60.605,64.46" svgx:width="0.55,0.55" style="fill:rgb(0,121,173);font-family:AdvPSA183;font-size:5.98px;stroke:none;">12</text>
   <text y="104.088" x="71.773,76.994,82.036,86.8798,90.54,97.07,102.013,107.422,110.5,115.444,120.019,124.774,129.6178,133.278,139.514,141.561,146.782,151.771,156.986,162.028,164.918,169.861,171.908,176.95,184.699,189.642,194.684,197.4647,201.091,207.61,212.652,214.699,217.4797,221.162,226.207,231.15,235.63500000000002,239.257,244.667,249.61,254.185,259.128,262.207,264.254,269.663,274.606,279.8983,283.563,286.455,291.497,296.3408,299.944,305.353,308.431,313.652,316.542,321.814,326.747,331.968,334.015,338.5,342.122,347.168,351.743,356.686,361.9783,365.644,368.365,373.586" svgx:width="0.57,0.55,0.54,0.55,0.72,0.54,0.59,0.33,0.54,0.5,0.52,0.54,0.55,0.69,0.22,0.57,0.54,0.57,0.55,0.31,0.54,0.22,0.55,0.85,0.54,0.55,0.31,0.55,0.72,0.55,0.22,0.31,0.55,0.55,0.54,0.5,0.55,0.59,0.54,0.5,0.54,0.33,0.22,0.59,0.54,0.59,0.55,0.31,0.55,0.54,0.55,0.59,0.33,0.57,0.31,0.57,0.54,0.57,0.22,0.5,0.55,0.55,0.5,0.54,0.59,0.55,0.29,0.57,0.33" style="fill:rgb(0,0,0);font-family:AdvPSA183;font-size:8.97px;stroke:none;">The Nebraska Biocontainment Unit has described the protocols used for</text>
   <text y="115.03" x="37.871,43.275,46.393,51.609,54.493,59.431,64.369,67.253,69.295,74.511,79.44449999999999,82.958,88.173,90.7743,94.239,99.285,104.222,109.211,111.253,114.137,119.0705,122.528,127.46,132.449,135.51,140.35379999999998,143.844,150.659,155.977,159.038,163.787,168.725,171.798,176.28300000000002,179.735,182.431,187.647,190.6071,194.109,199.702,205.294,211.6627,215.102,220.04,224.978,228.05,232.8938,236.385,238.425,243.35850000000002,246.873,249.764,254.801,259.6448,263.077,265.119,267.216,270.101,275.038,278.111,283.049,285.933,290.97,294.043,299.031" svgx:width="0.59,0.33,0.57,0.31,0.54,0.54,0.31,0.22,0.57,0.55,0.55,0.57,0.29,0.55,0.55,0.54,0.54,0.22,0.31,0.55,0.55,0.54,0.54,0.33,0.54,0.55,0.76,0.57,0.33,0.52,0.54,0.33,0.5,0.55,0.29,0.57,0.33,0.55,0.61,0.61,0.71,0.55,0.54,0.54,0.33,0.54,0.55,0.22,0.55,0.55,0.31,0.55,0.54,0.55,0.22,0.22,0.31,0.54,0.33,0.54,0.31,0.55,0.33,0.54,0.28" style="fill:rgb(0,0,0);font-family:AdvPSA183;font-size:8.97px;stroke:none;">protection of health care workers for EVD care in the literature.</text>
   <text y="111.572" x="301.663,305.461" svgx:width="0.55,0.55" style="fill:rgb(0,121,173);font-family:AdvPSA183;font-size:5.98px;stroke:none;">13</text>
   <text y="115.03" x="312.661,317.877,322.922,327.7658,331.199,333.296,338.246,340.382,343.274,345.315,350.247,352.22040000000004,355.69,360.173,363.116,368.105,373.055" svgx:width="0.57,0.55,0.54,0.55,0.22,0.55,0.22,0.31,0.22,0.54,0.22,0.55,0.5,0.31,0.54,0.55,0.38" style="fill:rgb(0,0,0);font-family:AdvPSA183;font-size:8.97px;stroke:none;">The initial stan-</text>
   <text y="126.029" x="37.869,43.28,48.224,51.303,56.713,61.198,65.217,70.205,75.248,80.5403,84.603,90.013,93.092,98.314,103.258,108.202,113.612,118.655,121.734,126.678,131.163,135.181,139.758,144.702,147.4827,151.505,156.947,161.43200000000002,165.451,168.342,173.385,178.22879999999998,182.286,187.329,192.551,197.034,202.528,204.576,207.467,212.411,214.459,218.94400000000002,223.02,225.911,230.861,235.889,238.6697,242.692,247.624,252.568,255.647,260.591,265.8833,269.946,272.648,277.87,280.8301,284.9,290.286,295.23,298.121,300.169,305.113,310.155,313.046,317.531,321.55,328.466,330.514,333.405,338.33849999999995,342.362,347.975,353.385,358.607,360.655,365.49879999999996,369.556,371.604" svgx:width="0.59,0.54,0.33,0.59,0.5,0.55,0.54,0.55,0.59,0.55,0.59,0.33,0.57,0.54,0.54,0.59,0.55,0.33,0.54,0.5,0.55,0.5,0.54,0.31,0.55,0.59,0.5,0.55,0.31,0.55,0.54,0.55,0.55,0.57,0.5,0.59,0.22,0.31,0.54,0.22,0.5,0.55,0.31,0.55,0.54,0.31,0.55,0.54,0.54,0.33,0.54,0.59,0.55,0.29,0.57,0.33,0.55,0.59,0.54,0.31,0.22,0.54,0.55,0.31,0.5,0.55,0.76,0.22,0.31,0.55,0.55,0.61,0.59,0.57,0.22,0.54,0.55,0.22,0.55" style="fill:rgb(0,0,0);font-family:AdvPSA183;font-size:8.97px;stroke:none;">dards and procedures set by the hospitals that cared for patients with Ebola in</text>
   <text y="136.971" x="37.869,40.756,45.796,50.6398,54.357,60.933,65.972,68.017,70.904,75.844,81.13629999999999,84.915,90.812,93.699,98.639,101.526,106.467,110.952,114.687,119.676,124.159,129.144,134.183,137.07,142.109,147.049,149.146,151.187,155.67200000000003,159.407,164.794,169.782,174.723,179.663,187.41,192.25379999999998,195.971,200.8148,204.589,209.807,214.846,216.89,222.297,227.238,232.277,237.217,242.0608,245.835,248.91,253.899,258.382,263.65,268.689,271.807,276.748,281.5918,285.365,287.974,293.246,296.2061,299.992,307.758,312.699,317.738,322.678,327.897,329.994,334.943,340.0559,343.884,349.326,354.267,357.154,359.198,364.138,369.178,372.065" svgx:width="0.31,0.55,0.54,0.55,0.72,0.55,0.22,0.31,0.54,0.59,0.55,0.64,0.31,0.54,0.31,0.54,0.5,0.55,0.54,0.5,0.54,0.55,0.31,0.55,0.54,0.22,0.22,0.5,0.55,0.59,0.54,0.54,0.54,0.85,0.54,0.55,0.54,0.55,0.57,0.55,0.22,0.59,0.54,0.55,0.54,0.54,0.55,0.33,0.54,0.5,0.57,0.55,0.33,0.54,0.54,0.55,0.29,0.57,0.33,0.55,0.85,0.54,0.55,0.54,0.57,0.22,0.55,0.57,0.55,0.59,0.54,0.31,0.22,0.54,0.55,0.31,0.5" style="fill:rgb(0,0,0);font-family:AdvPSA183;font-size:8.97px;stroke:none;">the United States eventually became a guidance resource for managing patients</text>
   <text y="147.912" x="37.869,44.781,46.832,49.726,54.6595,57.89,63.492,69.094,75.4627,78.618,85.53,90.755,93.838,95.889,101.303,108.214,110.266,115.68,120.627" svgx:width="0.76,0.22,0.31,0.55,0.55,0.61,0.61,0.71,0.55,0.76,0.57,0.33,0.22,0.59,0.76,0.22,0.59,0.54,0.28" style="fill:rgb(0,0,0);font-family:AdvPSA183;font-size:8.97px;stroke:none;">with EVD worldwide.</text>
   <text y="144.454" x="123.25,127.049" svgx:width="0.55,0.55" style="fill:rgb(0,121,173);font-family:AdvPSA183;font-size:5.98px;stroke:none;">14</text>
   <text y="173.197" x="37.871,43.07,47.745,52.944,59.558,65.638,71.718,74.098,78.772,81.152,87.766" svgx:width="0.61,0.55,0.61,0.78,0.72,0.72,0.28,0.55,0.28,0.78,0.72" style="fill:rgb(0,0,0);font-family:AdvPSA336;font-size:8.47px;stroke:none;">RECOGNITION</text>
   <text y="190.999" x="37.871,46.183,51.132,55.983,60.9165,63.098,67.9418,70.072,75.389,77.343,81.826,86.677,91.528,96.011,100.8548,103.066,108.194,113.144,115.941,121.258,124.244,129.095,133.946,138.6104,140.822,145.951,150.801,155.652,160.602,163.587,168.071,170.58259999999999,172.739,178.056,183.006,188.323,190.277,192.232,197.0758,199.271,204.22,209.071,213.922,215.876,218.674,223.60750000000002,225.802,230.653,235.602,240.89430000000002,243.092,248.042,252.893,257.743,259.698,262.496,267.42949999999996,269.624,274.475,279.325,282.311,287.15479999999997,289.352,293.835,298.319,302.802,305.599,310.45,318.107,322.59200000000004,324.727,329.676,334.527,339.378,344.6703,346.894,349.691,354.8039,356.985,363.8,368.928,371.914" svgx:width="0.93,0.55,0.54,0.55,0.55,0.54,0.55,0.59,0.22,0.5,0.54,0.54,0.5,0.54,0.55,0.57,0.55,0.31,0.59,0.33,0.54,0.54,0.52,0.55,0.57,0.54,0.54,0.55,0.33,0.5,0.28,0.55,0.59,0.55,0.59,0.22,0.22,0.54,0.55,0.55,0.54,0.54,0.22,0.31,0.55,0.55,0.54,0.55,0.59,0.55,0.55,0.54,0.54,0.22,0.31,0.55,0.55,0.54,0.54,0.33,0.54,0.55,0.5,0.5,0.5,0.31,0.54,0.85,0.5,0.55,0.55,0.54,0.54,0.59,0.55,0.31,0.57,0.55,0.76,0.57,0.33,0.52" style="fill:rgb(0,0,0);font-family:AdvPSA183;font-size:8.97px;stroke:none;">When a disease outbreak occurs, public health and health care systems need to work</text>
   <text y="201.94" x="37.871,40.668,45.797,50.926,55.777,58.574,63.523,68.374,71.33409999999999,74.834,77.631,82.7439,86.229,93.886,99.015,103.964,105.919,108.716,113.845,116.8051,120.357,122.966,128.095,131.0551,134.53,137.328,142.277,147.12079999999997,150.631,155.482,163.139,167.99,170.976,176.104,180.955,185.905,190.755,195.59879999999998,199.102,204.231,206.8323,210.327,215.178,220.028,224.512,229.362,233.847,237.312,242.163,247.112,252.4043,255.907,258.893,263.744,271.401,276.252,278.206,283.1395,286.634,291.117,293.072,298.2,300.155,302.11,306.96,311.91,314.707,317.2186,320.705,326.865,331.715,336.566,341.417,346.366,350.85,355.6938,359.198,364.703,370.209" svgx:width="0.31,0.57,0.57,0.54,0.31,0.55,0.54,0.33,0.55,0.31,0.57,0.55,0.85,0.57,0.55,0.22,0.31,0.57,0.33,0.55,0.29,0.57,0.33,0.55,0.31,0.55,0.54,0.55,0.54,0.85,0.54,0.33,0.57,0.54,0.55,0.54,0.54,0.55,0.57,0.29,0.55,0.54,0.54,0.5,0.54,0.5,0.55,0.54,0.55,0.59,0.55,0.33,0.54,0.85,0.54,0.22,0.55,0.55,0.5,0.22,0.57,0.22,0.22,0.54,0.55,0.31,0.28,0.55,0.69,0.54,0.54,0.54,0.55,0.5,0.54,0.55,0.61,0.61,0.71" style="fill:rgb(0,0,0);font-family:AdvPSA183;font-size:8.97px;stroke:none;">together to monitor for the emergence of cases and remain vigilant. Because EVD</text>
   <text y="212.938" x="37.871,42.722,47.572,52.056,56.906,61.391,64.233,71.047,75.898,78.884,83.7278,86.57,91.698,96.549,101.4,106.349,109.335,112.321,114.275,119.225,124.33789999999999,127.217,129.172,134.1055,136.912,145.224,150.074,154.557,157.33769999999998,160.212,165.995,168.604,171.59,173.544,178.395,183.2388,186.12,188.074,193.00750000000002,195.814,200.763,205.713,210.662,215.612,218.12359999999998,220.985,223.783,226.768,231.619,236.102,240.953,242.9264,245.759,250.242,255.093,258.079,262.93,267.78,272.73,274.684,279.634,284.74690000000004,287.597,294.411,299.262,303.747,306.588,308.543,313.492,315.447,318.244,320.199,325.05,327.847,332.698,337.9903,340.886,345.737,348.51770000000005,351.374,356.691,361.542,366.025,367.98,373.108" svgx:width="0.54,0.54,0.5,0.54,0.5,0.55,0.76,0.54,0.33,0.54,0.55,0.57,0.54,0.54,0.55,0.33,0.33,0.22,0.55,0.57,0.55,0.22,0.55,0.55,0.93,0.54,0.5,0.31,0.55,0.64,0.29,0.33,0.22,0.54,0.54,0.55,0.22,0.55,0.55,0.55,0.55,0.55,0.55,0.28,0.55,0.31,0.33,0.54,0.5,0.54,0.22,0.55,0.5,0.54,0.33,0.54,0.54,0.55,0.22,0.55,0.57,0.55,0.76,0.54,0.5,0.55,0.22,0.55,0.22,0.31,0.22,0.54,0.31,0.54,0.59,0.55,0.54,0.31,0.55,0.59,0.54,0.5,0.22,0.57,0.38" style="fill:rgb(0,0,0);font-family:AdvPSA183;font-size:8.97px;stroke:none;">cases were occurring in West Africa in 2014, travel screening was initiated at desig-</text>
   <text y="223.88" x="37.871,42.82,47.671,50.469,55.319,60.6113,64.402,66.357,71.306,74.104,78.954,81.94,86.89,91.74,94.538,96.493,101.621,106.571,111.421,113.3944,117.181,122.032,123.987,126.973,132.29,137.418,140.404,143.202,147.687,151.479,158.294,160.248,163.046,167.9795,171.775,174.384,179.512,181.467,183.422,188.55,195.365,198.817,203.766,209.0583,212.875,215.484,218.47,223.599,231.2235,234.985,237.783,242.732,247.5758,251.369,253.324,258.453,263.303,268.154,270.1274,273.876,279.193,284.142,289.459,291.414,293.368,298.2118,302.051,307.001,311.851,316.702,318.657,321.454,326.3875,330.171,335.488,340.338,345.655,350.506,353.492,356.289,363.947,368.797,373.747" svgx:width="0.55,0.54,0.31,0.54,0.59,0.55,0.22,0.55,0.31,0.54,0.33,0.55,0.54,0.31,0.22,0.57,0.55,0.54,0.22,0.55,0.54,0.22,0.33,0.59,0.57,0.33,0.31,0.5,0.55,0.76,0.22,0.31,0.55,0.55,0.29,0.57,0.22,0.22,0.57,0.76,0.38,0.55,0.59,0.55,0.29,0.33,0.57,0.85,0.55,0.31,0.55,0.54,0.55,0.22,0.57,0.54,0.54,0.22,0.55,0.59,0.55,0.59,0.22,0.22,0.54,0.55,0.55,0.54,0.54,0.22,0.31,0.55,0.55,0.59,0.54,0.59,0.54,0.33,0.31,0.85,0.54,0.55,0.31" style="fill:rgb(0,0,0);font-family:AdvPSA183;font-size:8.97px;stroke:none;">nated international airports with follow-up from the local public health department</text>
   <text y="234.821" x="37.871,40.48,45.609,48.5691,51.25,56.101,60.952,63.749,65.704,70.187,75.0308,77.725,85.382,90.511,95.461,97.415,100.213,105.341,108.327,110.282,115.231,120.34389999999999,123.078,128.206,130.8073,133.509,136.118,140.969,145.452,150.303,153.2631,155.959,161.088,164.0481,166.73,171.859,174.656,179.606,184.456,187.4161,190.144,194.627,199.11,206.767,212.084,214.882,220.011,227.668,232.151" svgx:width="0.29,0.57,0.33,0.55,0.54,0.54,0.31,0.22,0.5,0.54,0.55,0.85,0.57,0.55,0.22,0.31,0.57,0.33,0.22,0.55,0.57,0.55,0.57,0.29,0.55,0.29,0.54,0.5,0.54,0.33,0.55,0.57,0.33,0.55,0.57,0.31,0.55,0.54,0.33,0.55,0.5,0.5,0.85,0.59,0.31,0.57,0.85,0.5,0.28" style="fill:rgb(0,0,0);font-family:AdvPSA183;font-size:8.97px;stroke:none;">for active monitoring of fever or other symptoms.</text>
   <text y="231.364" x="234.709,238.421" svgx:width="0.55,0.55" style="fill:rgb(0,121,173);font-family:AdvPSA183;font-size:5.98px;stroke:none;">15</text>
   <text y="234.822" x="244.8,249.929,252.914,257.765,262.248,267.099,269.0724,271.728,276.212,281.062,284.048,288.899,293.75,298.699,300.654,305.603,310.71590000000003,313.453,320.267,325.118,329.603,332.274,337.125,339.08,343.563,348.6759,351.38,353.334,360.992,366.309,368.263,373.114" svgx:width="0.57,0.33,0.54,0.5,0.54,0.22,0.55,0.5,0.54,0.33,0.54,0.54,0.55,0.22,0.55,0.57,0.55,0.76,0.54,0.5,0.55,0.54,0.22,0.5,0.57,0.55,0.22,0.85,0.59,0.22,0.54,0.38" style="fill:rgb(0,0,0);font-family:AdvPSA183;font-size:8.97px;stroke:none;">Travel screening was also imple-</text>
   <text y="245.82" x="37.87,45.527,50.378,55.328,58.125,62.976,68.2683,70.354,75.205,77.9857,80.049,84.998,89.849,94.7,96.654,99.452,104.3855,106.467,111.318,116.168,119.154,123.9978,126.082,128.692,133.542,138.393,140.348,142.303,144.257,147.055,149.009,153.86,158.34500000000003,160.437,165.288,170.138,173.124,178.253,182.736,187.221,189.292,192.09,197.039,201.88279999999997,203.919,208.77,213.898,218.848,223.797,226.595,229.581,234.066,236.176,241.493,246.344,251.195,256.045,260.995,265.478,270.3218,272.402,277.253,282.18649999999997,284.251,286.205,288.16,290.13340000000005,292.188,297.505,302.355,305.153,307.108,311.958,316.908,319.68870000000004,321.78,329.437,331.392,336.521,341.47,344.25070000000005,346.327,351.644,354.63,359.481,363.964,368.815,373.764" svgx:width="0.85,0.54,0.55,0.31,0.54,0.59,0.55,0.54,0.31,0.55,0.55,0.54,0.54,0.22,0.31,0.55,0.55,0.54,0.54,0.33,0.54,0.55,0.29,0.54,0.54,0.22,0.22,0.22,0.31,0.22,0.54,0.5,0.55,0.54,0.54,0.33,0.57,0.5,0.5,0.55,0.31,0.55,0.54,0.55,0.54,0.57,0.55,0.55,0.31,0.33,0.5,0.55,0.59,0.54,0.54,0.54,0.55,0.5,0.54,0.55,0.54,0.55,0.55,0.22,0.22,0.22,0.55,0.59,0.54,0.31,0.22,0.54,0.55,0.31,0.55,0.85,0.22,0.57,0.55,0.31,0.55,0.59,0.33,0.54,0.5,0.54,0.55,0.31" style="fill:rgb(0,0,0);font-family:AdvPSA183;font-size:8.97px;stroke:none;">mented at health care facilities across the country because an ill patient might present</text>
   <text y="256.762" x="37.87,40.479,45.608,48.568099999999994,50.853,58.51,63.361,68.678,70.632,75.483,80.334,82.3074,84.584,89.435,94.285,97.271,102.1148,104.369,107.166,112.116,115.101,120.23,125.18,130.308,135.2415,137.533,140.331,145.28,150.1238,152.387,157.238,164.895,169.746,172.731,177.86,182.711,187.66,192.511,196.996,199.27,204.587,209.438,214.755,219.606,222.591,225.389,233.046,237.897,242.846,245.644,248.1556,250.462,255.313,262.97,268.287,273.237,275.191,280.042,282.839,287.968,290.954,295.439,297.742,302.593,304.548,306.502,311.452,313.406,318.257,320.7686,323.026,328.155,331.1151,333.401,338.53,341.328,346.277,351.128,354.0881,356.418,361.735,366.864,368.818,373.768" svgx:width="0.29,0.57,0.33,0.55,0.85,0.54,0.59,0.22,0.54,0.54,0.22,0.55,0.54,0.54,0.33,0.54,0.55,0.31,0.55,0.33,0.57,0.55,0.57,0.55,0.55,0.31,0.55,0.54,0.55,0.54,0.85,0.54,0.33,0.57,0.54,0.55,0.54,0.5,0.55,0.59,0.54,0.59,0.54,0.33,0.31,0.85,0.54,0.55,0.31,0.28,0.55,0.54,0.85,0.59,0.55,0.22,0.54,0.31,0.57,0.33,0.5,0.55,0.54,0.22,0.22,0.55,0.22,0.54,0.28,0.55,0.57,0.33,0.55,0.57,0.31,0.55,0.54,0.33,0.55,0.59,0.57,0.22,0.55,0.31" style="fill:rgb(0,0,0);font-family:AdvPSA183;font-size:8.97px;stroke:none;">for medical care through the emergency department, ambulatory clinic, or other point</text>
   <text y="267.703" x="37.87,42.999,45.600300000000004,48.641,53.492,58.442,61.239,64.225,68.71,71.772,74.569,79.6819,82.77,87.6138,90.707,95.656,100.507,105.358,107.312,110.11,115.0435,118.146,122.996,127.847,130.833,135.6768,138.725,141.334,146.185,151.036,152.99,154.945,156.9,159.697,164.18" svgx:width="0.57,0.29,0.55,0.54,0.55,0.31,0.33,0.5,0.55,0.31,0.57,0.55,0.54,0.55,0.55,0.54,0.54,0.22,0.31,0.55,0.55,0.54,0.54,0.33,0.54,0.55,0.29,0.54,0.54,0.22,0.22,0.22,0.31,0.5,0.28" style="fill:rgb(0,0,0);font-family:AdvPSA183;font-size:8.97px;stroke:none;">of entry to a health care facility.</text>
   <text y="264.189" x="166.734,170.446" svgx:width="0.55,0.55" style="fill:rgb(0,121,173);font-family:AdvPSA183;font-size:5.98px;stroke:none;">16</text>
   <text y="267.704" x="177.279,184.093,189.042,190.997,195.848,200.5124,203.583,206.192,209.178,214.307,219.256,222.0367,225.126,230.443,235.293,239.777,244.4414,247.519,252.37,256.853,261.336,266.187,270.67,275.153,282.81,287.661,292.61,295.39070000000004,298.427,305.241,310.092,314.577,317.645,322.496,327.445,332.296,337.425,342.374,345.36,350.211,355.34,360.19,365.4823,368.611,371.408" svgx:width="0.76,0.55,0.22,0.54,0.52,0.55,0.29,0.33,0.57,0.55,0.31,0.55,0.59,0.54,0.5,0.52,0.55,0.54,0.5,0.5,0.54,0.5,0.5,0.85,0.54,0.55,0.31,0.55,0.76,0.54,0.5,0.55,0.54,0.55,0.54,0.57,0.55,0.33,0.54,0.57,0.54,0.59,0.55,0.31,0.57" style="fill:rgb(0,0,0);font-family:AdvPSA183;font-size:8.97px;stroke:none;">Quick front desk assessment was encouraged to</text>
   <text y="278.646" x="37.871,39.825,44.775,49.625,51.58,56.53,61.847,66.6908,69.505,72.302,75.288,80.139,84.622,89.473,91.4464,94.279,99.228,101.183,105.666,108.463,113.592,116.578,121.061,123.57260000000001,126.365,129.163,132.149,136.999,141.483,146.333,148.3064,151.139,153.094,158.223,163.073,167.924,170.722,172.676,177.805,182.754,185.26559999999998,188.102,190.899,192.854,200.511,205.362,207.971,210.957,215.808,223.465,228.316,230.8276,233.681,238.532,243.481,248.7733,251.596,256.079,260.562,268.219,273.536,276.334,281.463,289.12,293.603,296.1146,298.989,304.118,309.067,311.022,315.507,318.32,323.171,328.022,330.819,332.774,337.903,342.8365,345.645,350.496,352.451,354.405,359.534,366.348,371.199" svgx:width="0.22,0.55,0.54,0.22,0.55,0.59,0.54,0.55,0.31,0.33,0.54,0.5,0.54,0.22,0.55,0.55,0.22,0.5,0.31,0.57,0.33,0.5,0.28,0.55,0.31,0.33,0.54,0.5,0.54,0.22,0.55,0.22,0.57,0.54,0.54,0.31,0.22,0.57,0.55,0.28,0.55,0.31,0.22,0.85,0.54,0.29,0.33,0.54,0.85,0.54,0.28,0.55,0.54,0.55,0.59,0.55,0.5,0.5,0.85,0.59,0.31,0.57,0.85,0.5,0.28,0.55,0.57,0.55,0.22,0.5,0.55,0.54,0.54,0.31,0.22,0.57,0.55,0.55,0.54,0.22,0.22,0.57,0.76,0.54,0.59" style="fill:rgb(0,0,0);font-family:AdvPSA183;font-size:8.97px;stroke:none;">include travel history, travel location, timeframe, and symptoms. This action allowed</text>
   <text y="289.644" x="37.871,43.188,46.173,51.302,58.959,64.276,67.05669999999999,70.128,72.082,77.399,82.25,87.2,89.997,91.952,94.561,96.516,101.366,106.217,109.015,110.969,116.098,121.0315,124.154,129.005,133.954,139.24630000000002,142.352,144.307,148.79,153.919,155.873,160.724,163.522,165.476,170.605,175.5385,178.634,185.449,190.398,195.249,200.1825,203.295,208.146,213.463,218.78,221.766,226.895,232.212,235.197,237.152,242.003,244.8,249.6438,252.73,257.68,262.629,265.426,267.381,269.3544,272.402,275.011,279.961,282.947,285.744,290.693,295.544,298.5041,301.598,306.915,308.87,313.353,318.204,323.055,326.04,330.99,338.647,343.498,348.447,351.2277,354.321,359.172,364.3,369.25,371.205" svgx:width="0.59,0.33,0.57,0.85,0.59,0.31,0.55,0.22,0.59,0.54,0.55,0.31,0.22,0.29,0.22,0.54,0.54,0.31,0.22,0.57,0.55,0.55,0.54,0.55,0.59,0.55,0.22,0.5,0.57,0.22,0.54,0.31,0.22,0.57,0.55,0.55,0.76,0.55,0.54,0.55,0.55,0.54,0.59,0.59,0.33,0.57,0.59,0.33,0.22,0.54,0.31,0.54,0.55,0.55,0.55,0.31,0.22,0.22,0.55,0.29,0.55,0.33,0.31,0.55,0.54,0.33,0.55,0.59,0.22,0.5,0.54,0.54,0.33,0.55,0.85,0.54,0.55,0.31,0.55,0.54,0.57,0.55,0.22,0.59" style="fill:rgb(0,0,0);font-family:AdvPSA183;font-size:8.97px;stroke:none;">prompt identification and isolation when appropriate until further discernment could</text>
   <text y="300.585" x="37.871,43.188,48.031800000000004,50.796,58.454,63.304,68.621,73.4648,76.307,79.105,84.2179,87.022,92.339,95.325,97.28,101.763,106.6068,109.415,111.37,116.221,121.538,126.667,129.652,134.503,137.301,142.429,145.415,149.9,152.727,155.525,160.375,164.859,167.656,169.611,174.56,179.6729,182.49,187.807,192.658,197.508,199.463,203.946,205.901,211.03,215.979,220.462,222.97359999999998,225.802,228.133,233.082,235.88,240.731,245.859,248.845,253.696,256.493,258.448,263.397,268.5099,271.381,274.178,279.128,281.082,285.567,288.332,292.815,295.612,298.598,303.449,306.246,311.097,316.226,320.711,323.537,325.492,330.441,333.239,338.3519,341.168,343.966,348.915,353.7588,356.589,361.439,363.394,368.245,373.096" svgx:width="0.59,0.54,0.55,0.85,0.54,0.59,0.54,0.55,0.31,0.57,0.55,0.59,0.33,0.22,0.5,0.54,0.55,0.22,0.54,0.59,0.57,0.33,0.54,0.31,0.57,0.33,0.5,0.55,0.31,0.54,0.5,0.31,0.22,0.55,0.57,0.55,0.59,0.54,0.54,0.22,0.5,0.22,0.57,0.55,0.5,0.28,0.55,0.26,0.55,0.31,0.54,0.57,0.33,0.54,0.31,0.22,0.55,0.57,0.55,0.31,0.55,0.22,0.5,0.55,0.5,0.31,0.33,0.54,0.31,0.54,0.57,0.5,0.55,0.22,0.55,0.31,0.57,0.55,0.31,0.55,0.54,0.55,0.54,0.22,0.54,0.54,0.38" style="fill:rgb(0,0,0);font-family:AdvPSA183;font-size:8.97px;stroke:none;">be made to drive laboratory testing decisions. Integrating this strategy into the elec-</text>
   <text y="311.527" x="37.871,40.668,43.654,48.783,53.732,55.687,60.5308,64.629,69.578,74.429,79.28,81.234,84.032,88.96549999999999,93.144,96.13,100.981,105.832,110.96,113.946,119.2383,123.361,128.31,133.161,136.147,141.4393,145.584,152.398,154.353,157.339,162.189,167.4813,171.662,174.46,179.409,184.25279999999998,188.33,193.647,196.632,201.761,206.612,211.463,215.946,220.431,224.555,229.406,234.356,239.6483,243.83,248.681,250.636,255.486,258.472,261.27,266.12,271.4123,275.577,280.706,283.503,288.453,293.304,296.2641,300.408,305.258,310.109,313.095,317.946,323.074,325.029,329.512,334.363,337.349,341.834,345.93,347.885,350.48629999999997,354.604,357.402,360.388,365.238,369.722,374.572" svgx:width="0.31,0.33,0.57,0.55,0.22,0.54,0.55,0.55,0.54,0.54,0.22,0.31,0.55,0.55,0.33,0.54,0.54,0.57,0.33,0.59,0.55,0.55,0.54,0.33,0.59,0.55,0.76,0.22,0.33,0.54,0.59,0.55,0.31,0.55,0.54,0.55,0.59,0.33,0.57,0.54,0.54,0.5,0.5,0.55,0.54,0.55,0.59,0.55,0.54,0.22,0.54,0.33,0.31,0.54,0.59,0.55,0.57,0.31,0.55,0.54,0.33,0.55,0.54,0.54,0.33,0.54,0.57,0.22,0.5,0.54,0.33,0.5,0.55,0.22,0.29,0.55,0.31,0.33,0.54,0.5,0.54,0.22" style="fill:rgb(0,0,0);font-family:AdvPSA183;font-size:8.97px;stroke:none;">tronic health record hard wired the process and alerted other caregivers if travel</text>
   <text y="322.525" x="37.871,42.721,47.671,52.9633,55.502,59.985,64.468,72.126,77.443,80.24,85.369,92.9935,95.526,100.009,104.86,107.845,112.696,117.547,122.496,124.451,129.4,134.5129,137.08,139.878,142.863,144.818,149.947,155.075,159.926,162.912,167.763,173.05530000000002,175.63,180.481,185.4145,187.932,192.782,194.737,199.588,202.574,205.371,207.8826,210.381,216.819,219.805,224.656,229.507,232.304,234.259,239.387,244.3205,246.89,252.019,254.62030000000001,257.151,262.002,267.131,272.08,276.563,278.518,283.001,285.799,290.65,295.599,298.3797,300.917,307.731,312.86,315.846,320.5104,323.027,325.636,327.591,332.719,339.5362,342.076,346.926,351.876,357.1683,359.707,365.024,368.01,373.139" svgx:width="0.54,0.55,0.59,0.55,0.5,0.5,0.85,0.59,0.31,0.57,0.85,0.55,0.5,0.54,0.33,0.54,0.54,0.55,0.22,0.55,0.57,0.55,0.31,0.33,0.22,0.57,0.57,0.54,0.33,0.54,0.59,0.55,0.54,0.55,0.55,0.54,0.22,0.54,0.33,0.31,0.28,0.55,0.72,0.33,0.54,0.54,0.31,0.22,0.57,0.55,0.55,0.57,0.29,0.55,0.54,0.57,0.55,0.5,0.22,0.5,0.31,0.54,0.55,0.31,0.55,0.76,0.57,0.33,0.52,0.55,0.29,0.22,0.57,0.76,0.55,0.54,0.55,0.59,0.55,0.59,0.33,0.57,0.38" style="fill:rgb(0,0,0);font-family:AdvPSA183;font-size:8.97px;stroke:none;">and symptom screening triggered an alert. Creation of consistent work flow and pro-</text>
   <text y="333.467" x="37.871,42.721,47.572,52.055,56.54,59.017,61.814,66.943,72.072,74.026,78.511,80.956,83.566,88.694,91.6541,94.166,99.115,103.598,108.4418,110.89,116.207,120.692,123.135,127.986,132.836,135.822,140.673,145.802,147.756,152.239,157.09,160.076,164.561,167.071,171.921,174.7017,177.162,182.013,183.968,185.9414,188.444,193.294,198.244,201.041,204.027,208.512,210.95,215.801,218.786,223.637,228.488,232.973,235.44,240.291,242.246,244.2,249.329,256.144,260.994,266.28630000000004,268.832,271.441,276.57,279.5301,281.984,286.835,291.964,296.913,301.396,303.351,307.834,310.632,315.483,320.432,325.283,329.76800000000003,332.269,334.224,339.15749999999997,341.624,348.438,353.388,358.516,366.14050000000003,368.665,371.463" svgx:width="0.54,0.54,0.5,0.5,0.55,0.31,0.57,0.57,0.22,0.5,0.55,0.29,0.57,0.33,0.55,0.55,0.5,0.54,0.55,0.59,0.5,0.55,0.54,0.54,0.33,0.54,0.57,0.22,0.5,0.54,0.33,0.5,0.55,0.54,0.31,0.55,0.54,0.22,0.22,0.55,0.54,0.55,0.31,0.33,0.5,0.55,0.54,0.33,0.54,0.54,0.5,0.55,0.54,0.22,0.22,0.57,0.76,0.54,0.59,0.55,0.29,0.57,0.33,0.55,0.54,0.57,0.55,0.5,0.22,0.5,0.31,0.54,0.55,0.54,0.5,0.55,0.22,0.55,0.55,0.76,0.55,0.57,0.85,0.55,0.31,0.57" style="fill:rgb(0,0,0);font-family:AdvPSA183;font-size:8.97px;stroke:none;">cess tools for use by caregivers at all entry areas allowed for consistency in whom to</text>
   <text y="344.408" x="37.871,42.721,47.85,52.8,55.597,60.448,65.299,68.096,70.6076,73.019,75.817,80.766,85.6098,87.986,90.783,95.267,100.584,105.4278,107.828,112.957,115.55829999999999,117.976,119.931,124.414,129.543,131.498,136.348,139.146,141.101,146.229,151.16250000000002,153.635,158.585,163.436,168.286,173.603,178.454,183.771,186.28259999999997,188.67,191.468,196.417,201.2608,203.693,205.648,210.777,215.628,220.478,223.276,225.23,230.359,235.29250000000002,237.708,242.837,245.4383,247.856,253.639,259.423,264.928,267.4396,269.852,274.703,279.652,284.9443,287.37,291.853,296.704,299.689,301.644,306.773,311.722,316.207,318.606,323.735,326.533,331.482,336.333,339.29310000000004,341.679,346.996,351.946,354.743,356.698,361.549,366.034,368.438,373.566" svgx:width="0.54,0.57,0.55,0.31,0.54,0.54,0.31,0.28,0.55,0.31,0.55,0.54,0.55,0.31,0.5,0.59,0.54,0.55,0.57,0.29,0.55,0.22,0.5,0.57,0.22,0.54,0.31,0.22,0.57,0.55,0.55,0.55,0.54,0.54,0.59,0.54,0.59,0.28,0.55,0.31,0.55,0.54,0.55,0.22,0.57,0.54,0.54,0.31,0.22,0.57,0.55,0.55,0.57,0.29,0.55,0.64,0.64,0.61,0.28,0.55,0.54,0.55,0.59,0.55,0.5,0.54,0.33,0.22,0.57,0.55,0.5,0.55,0.57,0.31,0.55,0.54,0.33,0.55,0.59,0.55,0.31,0.22,0.54,0.5,0.55,0.57,0.33" style="fill:rgb(0,0,0);font-family:AdvPSA183;font-size:8.97px;stroke:none;">contact, the type of isolation needed, the location of PPE, and various other duties or</text>
   <text y="355.407" x="37.871,42.721,47.572,50.37,52.324,57.453,62.402,66.887,69.561,72.359,77.47189999999999,80.219,83.017,87.868,92.53,97.3738,100.062" svgx:width="0.54,0.54,0.31,0.22,0.57,0.55,0.5,0.55,0.31,0.57,0.55,0.31,0.54,0.52,0.54,0.55,0.26" style="fill:rgb(0,0,0);font-family:AdvPSA183;font-size:8.97px;stroke:none;">actions to take (</text>
   <text y="355.407" x="102.444,107.761,110.092,115.598,118.1096,120.813" svgx:width="0.59,0.26,0.61,0.28,0.55,0.55" style="fill:rgb(0,121,173);font-family:AdvPSA189;font-size:8.97px;stroke:none;">Fig. 3</text>
   <text y="355.407" x="125.745,128.076" svgx:width="0.26,0.28" style="fill:rgb(0,0,0);font-family:AdvPSA183;font-size:8.97px;stroke:none;">).</text>
   <text y="366.349" x="46.828,51.957,56.906,61.7498,63.552,69.99,74.841,79.79,82.587,87.438,90.424,94.909,96.773,99.382,104.511,107.47109999999999,109.302,115.65,117.604,122.088,126.938,131.789,136.272,141.11579999999998,142.976,149.414,154.543,159.492,162.29,165.275,170.404,172.3774,174.157,179.007,183.957,189.2493,191.107,196.891,199.876,204.727,209.21,214.061,219.011,221.808,223.763,228.891,233.8245,235.666,240.517,245.467,250.75930000000002,252.617,255.415,260.364,265.20779999999996,267.017,273.455,278.306,283.156,285.111,287.908,292.8415,294.739,299.59,304.539,309.8313,311.633,318.071,323.021,330.678,335.529,340.4625,342.303,348.087,352.938,355.923,360.406,362.361,367.212,372.063" svgx:width="0.57,0.55,0.54,0.55,0.72,0.54,0.55,0.31,0.54,0.33,0.5,0.55,0.29,0.57,0.33,0.55,0.71,0.22,0.5,0.54,0.54,0.5,0.54,0.55,0.72,0.57,0.55,0.31,0.33,0.57,0.22,0.55,0.54,0.55,0.59,0.55,0.64,0.33,0.54,0.5,0.54,0.55,0.31,0.22,0.57,0.55,0.55,0.54,0.55,0.59,0.55,0.31,0.55,0.54,0.55,0.72,0.54,0.54,0.22,0.31,0.55,0.55,0.54,0.55,0.59,0.55,0.72,0.55,0.85,0.54,0.55,0.55,0.64,0.54,0.33,0.5,0.22,0.54,0.54,0.5" style="fill:rgb(0,0,0);font-family:AdvPSA183;font-size:8.97px;stroke:none;">The Centers for Disease Control and Prevention and the Health and Human Services</text>
   <text y="377.29" x="37.871,43.654,48.137,52.62,54.575,59.058,61.856,66.706,71.656,74.4367,79.312,85.095,89.946,94.797,97.783,102.633,105.431,110.282,113.267,117.752,122.681,125.29,130.419,133.37910000000002,138.272,144.055,147.041,151.892,157.209,162.059,165.045,169.896,175.213,180.162,185.013,189.496,193.98100000000002,198.874,203.725,208.674,213.96630000000002,218.886,225.046,229.897,234.38,239.697,244.825,249.775,254.258,259.1018,264.012,266.344,272.127,277.91,283.693,289.853,292.1852,297.063,302.38,307.231,311.714,316.565,318.519,323.648,328.965,333.816,339.1083,344.06,348.9038,353.754,356.552,358.506,363.357,366.343,371.194" svgx:width="0.64,0.5,0.5,0.22,0.5,0.31,0.54,0.55,0.31,0.55,0.64,0.54,0.54,0.33,0.54,0.31,0.54,0.33,0.5,0.55,0.29,0.57,0.33,0.55,0.64,0.33,0.54,0.59,0.54,0.33,0.54,0.59,0.55,0.54,0.5,0.5,0.55,0.54,0.55,0.59,0.55,0.69,0.54,0.5,0.59,0.57,0.55,0.5,0.54,0.55,0.26,0.64,0.64,0.64,0.69,0.26,0.55,0.59,0.54,0.5,0.54,0.22,0.57,0.59,0.54,0.59,0.55,0.54,0.55,0.31,0.22,0.54,0.33,0.54,0.59" style="fill:rgb(0,0,0);font-family:AdvPSA183;font-size:8.97px;stroke:none;">Assistant Secretary for Preparedness and Response (ASPR) developed a tiered</text>
   <text y="388.232" x="37.871,42.721,48.038,53.355,56.341,61.47,66.321,71.172,76.10549999999999,78.971,81.769,86.8819,89.743,95.06,98.045,102.896,108.213,113.064,116.05,120.9,126.217,131.167,136.018,140.501,144.98600000000002,147.85,150.46,155.588,158.5481,161.399,166.905,172.41,178.7787,181.582" svgx:width="0.54,0.59,0.59,0.33,0.57,0.54,0.54,0.55,0.55,0.31,0.57,0.55,0.59,0.33,0.54,0.59,0.54,0.33,0.54,0.59,0.55,0.54,0.5,0.5,0.55,0.29,0.57,0.33,0.55,0.61,0.61,0.71,0.55,0.26" style="fill:rgb(0,0,0);font-family:AdvPSA183;font-size:8.97px;stroke:none;">approach to preparedness for EVD (</text>
   <text y="388.232" x="183.968,189.285,191.617,197.122,199.6336,202.45" svgx:width="0.59,0.26,0.61,0.28,0.55,0.55" style="fill:rgb(0,121,173);font-family:AdvPSA189;font-size:8.97px;stroke:none;">Fig. 4</text>
   <text y="388.232" x="207.383,209.714,212.2256,215.093,221.908,226.857,228.812,233.662,238.59550000000002,241.455,243.41,248.359,253.21,255.164,260.114,265.431,270.282,274.767,277.624,280.61,285.461,290.589,292.544,297.673,302.622,307.473,309.44640000000004,312.262,317.767,323.084,328.213,330.168,335.0118,337.887,342.737,347.687,352.9793,355.858,360.987,363.784,368.733,373.584" svgx:width="0.26,0.28,0.55,0.76,0.55,0.22,0.54,0.55,0.55,0.22,0.55,0.54,0.22,0.55,0.59,0.54,0.5,0.55,0.33,0.54,0.57,0.22,0.57,0.55,0.54,0.22,0.55,0.61,0.59,0.57,0.22,0.54,0.55,0.54,0.55,0.59,0.55,0.57,0.31,0.55,0.54,0.33" style="fill:rgb(0,0,0);font-family:AdvPSA183;font-size:8.97px;stroke:none;">), which includes regional Ebola and other</text>
   <text y="399.23" x="37.871,42.354,47.671,52.522,57.372,59.327,64.178,66.1514,69.391,74.708,79.559,82.356,87.305,92.434,97.563,102.414,107.3475,110.605,113.403,116.389,121.239,126.09,128.888,136.545,141.396,146.345,149.1257,152.443,157.294,162.144,167.094,169.891,174.742,177.728,182.211,184.7226,187.988,192.471,195.269,200.119,202.917,207.7608,211.005,216.322,221.172,225.656,227.61,232.739,237.688,242.539,245.337,250.187,255.47930000000002,258.795,264.3,269.806,276.1747,279.431,282.228,285.214,290.065,294.916,297.713,305.37,310.221,315.171,317.9517,321.212,326.063,330.914,335.863,338.661,343.511,346.497,350.98,353.4916,356.757,361.24,364.038,368.889,371.686" svgx:width="0.5,0.59,0.54,0.54,0.22,0.54,0.22,0.55,0.59,0.54,0.31,0.55,0.57,0.57,0.54,0.55,0.55,0.31,0.33,0.54,0.54,0.31,0.85,0.54,0.55,0.31,0.55,0.54,0.54,0.55,0.31,0.54,0.33,0.5,0.28,0.55,0.5,0.31,0.54,0.31,0.54,0.55,0.59,0.54,0.5,0.22,0.57,0.55,0.54,0.31,0.54,0.59,0.55,0.61,0.61,0.71,0.55,0.31,0.33,0.54,0.54,0.31,0.85,0.54,0.55,0.31,0.55,0.54,0.54,0.55,0.31,0.54,0.33,0.5,0.28,0.55,0.5,0.31,0.54,0.31,0.54" style="fill:rgb(0,0,0);font-family:AdvPSA183;font-size:8.97px;stroke:none;">special pathogen treatment centers, state designated EVD treatment centers, state</text>
   <text y="410.171" x="37.871,43.188,48.038,52.522,54.476,59.605,64.554,69.405,72.203,77.053,82.3453,85.094,90.6,96.105,102.47370000000001,105.164,110.014,114.498,118.981,123.831,128.315,132.798,140.455,145.306,150.255,153.0357,155.732,160.681,165.81,170.293,175.61,177.565,180.362,185.213,187.168,191.651,194.1626,196.89,201.741,206.69,211.9823,214.691,217.3,220.286,225.414,230.364,233.161,235.116,237.07,242.02,246.8638,249.613,254.562,259.413,264.263,266.218,269.016,273.9495,276.654,281.505,286.356,289.341,294.1848,296.893,299.502,304.353,309.203,311.158,313.113,315.067,317.865,319.82,324.67,329.154" svgx:width="0.59,0.54,0.5,0.22,0.57,0.55,0.54,0.31,0.54,0.59,0.55,0.61,0.61,0.71,0.55,0.54,0.5,0.5,0.54,0.5,0.5,0.85,0.54,0.55,0.31,0.55,0.55,0.57,0.5,0.59,0.22,0.31,0.54,0.22,0.5,0.28,0.55,0.54,0.55,0.59,0.55,0.29,0.33,0.57,0.55,0.31,0.22,0.22,0.55,0.54,0.55,0.55,0.54,0.54,0.22,0.31,0.55,0.55,0.54,0.54,0.33,0.54,0.55,0.29,0.54,0.54,0.22,0.22,0.22,0.31,0.22,0.54,0.5,0.28" style="fill:rgb(0,0,0);font-family:AdvPSA183;font-size:8.97px;stroke:none;">designated EVD assessment hospitals, and frontline health care facilities.</text>
   <text y="406.658" x="331.71,335.422" svgx:width="0.55,0.55" style="fill:rgb(0,121,173);font-family:AdvPSA183;font-size:5.98px;stroke:none;">15</text>
   <text y="410.173" x="341.858,346.987,349.973,355.101,360.051,362.848,364.803,366.758,371.707" svgx:width="0.57,0.33,0.57,0.55,0.31,0.22,0.22,0.55,0.54" style="fill:rgb(0,0,0);font-family:AdvPSA183;font-size:8.97px;stroke:none;">Frontline</text>
  </g>
  <rect style="stroke:blue;stroke-width:0.3;" x="41.046" y="584.851" height="164.976" width="332.382" title="6"/>
  <text y="584.851" class="image" id="image.6.1" width="332" height="164" x="41.046">image.6.1.41_373.585_750</text>
  <g begin="text">
   <text y="609.562" x="37.871,41.856,44.096,48.989,51.2206,53.858,58.257" svgx:width="0.5,0.28,0.61,0.28,0.55,0.55,0.28" style="fill:rgb(0,0,0);font-family:AdvPSA336;font-size:7.97px;stroke:none;">Fig. 3.</text>
   <text y="609.562" x="64.46,68.259,71.327,73.567,77.967,82.86,87.2435,89.858,94.258,99.151,104.045,106.285,110.684,112.9156,115.539,121.261,125.661,130.555,133.623,138.023,141.091,145.491,149.8745,152.445,159.993,164.392,169.286,171.526,175.088,177.328,182.222,186.621" svgx:width="0.55,0.38,0.28,0.55,0.61,0.55,0.55,0.55,0.61,0.61,0.28,0.55,0.28,0.55,0.72,0.55,0.61,0.38,0.55,0.38,0.55,0.55,0.55,0.95,0.55,0.61,0.28,0.45,0.28,0.61,0.55,0.28" style="fill:rgb(0,0,0);font-family:AdvPSA334;font-size:7.97px;stroke:none;">Triage Ebola: Nebraska Medicine.</text>
   <text y="25.909" x="300.642,305.317,310.516,315.716,318.095,322.75350000000003,325.359,330.999,333.379,336.527,341.727,344.94559999999996,347.582,353.662,356.041,359.302,363.976,368.651,371.911" svgx:width="0.55,0.61,0.61,0.28,0.55,0.55,0.67,0.28,0.38,0.61,0.38,0.55,0.72,0.28,0.38,0.55,0.55,0.38,0.55" style="fill:rgb(0,0,0);font-family:AdvPSA334;font-size:8.47px;stroke:none;">Ebola Virus Disease</text>
   <text y="25.966" x="401.442,405.842,410.241" svgx:width="0.55,0.55,0.55" style="fill:rgb(0,0,0);font-family:AdvPSA336;font-size:7.97px;stroke:none;">173</text>
  </g>
 </g>
</svg>
