<?xml version="1.0" encoding="UTF-8"?>
<svg height="759.324" width="550.9" xmlns="http://www.w3.org/2000/svg">
 <g id="page" xmlns:svgx="http://www.xml-cml.org/schema/svgx">
  <g begin="text">
   <text y="264.052" x="77.5,84.117,89.24,93.858,98.981,101.098,103.719,108.842,111.362,115.095,117.212,122.334,124.955,130.078,134.697,137.318,139.434,144.557,149.68,152.20000000000002,155.933,160.552,165.675,170.798,173.418,176.534,181.657,183.774,186.294,190.027,197.643,202.766,207.888,212.507,217.63,220.746,225.869,230.487,233.108,235.62800000000001,239.361,244.484,247.6,252.723,257.846,262.464,265.085,270.208,273.324,278.447,283.569,288.692" svgx:width="0.72,0.56,0.5,0.56,0.22,0.28,0.56,0.28,0.55,0.22,0.56,0.28,0.56,0.5,0.28,0.22,0.56,0.56,0.28,0.55,0.5,0.56,0.56,0.28,0.33,0.56,0.22,0.28,0.55,0.83,0.56,0.56,0.5,0.56,0.33,0.56,0.5,0.28,0.28,0.55,0.56,0.33,0.56,0.56,0.5,0.28,0.56,0.33,0.56,0.56,0.56,0.56" style="fill:rgb(23,22,21);font-family:Arial;font-size:9.0px;stroke:none;">Despite infection control measures, breakthrough</text>
   <text y="274.852" x="59.5,62.002,64.999,70.003,75.007,79.507,87.004,89.002,93.502,98.002,100.0,105.004,110.008,112.446,117.45,119.952,122.39,126.89,131.894,136.394,141.398,144.395,149.399,151.837,156.841,161.341,166.345,168.847,173.851,176.289,179.286,184.29,188.79,193.794,195.792,198.789,203.793,206.295,211.299,214.296,218.796,221.234,225.734,230.234,235.238,240.242,243.239,248.243,255.74,260.744,263.183,266.18,272.183,278.186,284.684,290.686" svgx:width="0.28,0.33,0.56,0.56,0.5,0.83,0.22,0.5,0.5,0.22,0.56,0.56,0.28,0.56,0.28,0.28,0.5,0.56,0.5,0.56,0.33,0.56,0.28,0.56,0.5,0.56,0.28,0.56,0.28,0.33,0.56,0.5,0.56,0.22,0.33,0.56,0.28,0.56,0.33,0.5,0.28,0.5,0.5,0.56,0.56,0.33,0.56,0.83,0.56,0.28,0.33,0.67,0.67,0.72,0.67,0.33" style="fill:rgb(23,22,21);font-family:Arial;font-size:9.0px;stroke:none;">transmission of severe acute respiratory syndrome (SARS)</text>
   <text y="285.652" x="59.5,64.504,69.004,73.504,78.508,81.505,84.502,89.506,94.51,96.888,99.39,104.394,107.391,109.769,117.266,122.27,127.274,131.774,134.151,139.155,144.159,148.659,153.663,155.661,158.036,163.04,165.038,167.416,173.914,178.918,181.915,186.415,191.419,194.416,198.916,201.294,203.292,208.296,210.674,217.172,222.176,227.18,232.184,234.562,240.565,245.569,250.573,255.577,258.079,260.456,268.79,273.794,276.171,280.671,285.675,290.679" svgx:width="0.56,0.5,0.5,0.56,0.33,0.33,0.56,0.56,0.28,0.28,0.56,0.33,0.28,0.83,0.56,0.56,0.5,0.28,0.56,0.56,0.5,0.56,0.22,0.28,0.56,0.22,0.28,0.72,0.56,0.33,0.5,0.56,0.33,0.5,0.28,0.22,0.56,0.28,0.72,0.56,0.56,0.56,0.28,0.67,0.56,0.56,0.56,0.28,0.28,0.94,0.56,0.28,0.5,0.56,0.56,0.33" style="fill:rgb(23,22,21);font-family:Arial;font-size:9.0px;stroke:none;">occurred for many hospital workers in Hong Kong. We con-</text>
   <text y="296.452" x="59.5,64.504,69.508,74.008,76.51,81.514,86.518,89.038,90.985,95.989,98.509,100.455,104.955,109.959,114.459,119.463,122.46,126.96,131.964,136.968,139.47,142.467,147.471,149.469,151.989,153.936,158.436,160.938,165.942,170.946,175.446,177.966,179.913,184.917,187.419,189.93900000000002,191.885,196.889,201.893,204.413,206.36,211.364,216.368,220.868,225.872,227.87,230.245,235.249,237.247,239.76700000000002,241.714,248.212,253.216,256.213,260.713,265.717,268.714,273.214,275.734,277.681,284.179,286.177,288.679" svgx:width="0.56,0.56,0.5,0.28,0.56,0.56,0.28,0.55,0.56,0.28,0.55,0.5,0.56,0.5,0.56,0.33,0.5,0.56,0.56,0.28,0.33,0.56,0.22,0.28,0.55,0.5,0.28,0.56,0.56,0.5,0.28,0.55,0.56,0.28,0.28,0.55,0.56,0.56,0.28,0.55,0.56,0.56,0.5,0.56,0.22,0.28,0.56,0.22,0.28,0.55,0.72,0.56,0.33,0.5,0.56,0.33,0.5,0.28,0.55,0.72,0.22,0.28,0.56" style="fill:rgb(23,22,21);font-family:Arial;font-size:9.0px;stroke:none;">ducted a case-control study of 72 hospital workers with</text>
   <text y="307.252" x="59.5,65.503,71.506,78.004,84.007,86.892,91.896,96.9,101.904,104.79,109.794,114.798,119.802,122.687,130.184,135.188,137.69,142.19,147.194,152.198,157.202,160.088,164.588,169.592,174.596,177.098,180.095,185.099,187.097,191.597,194.099,196.984,199.486,204.49,208.99,213.994,218.998,223.498,225.496,229.996,232.498,237.502,242.506,245.008,247.893,252.897,257.397,262.401,265.287,270.291,272.793,275.678,280.682,285.686,290.69" svgx:width="0.67,0.67,0.72,0.67,0.28,0.56,0.56,0.56,0.28,0.56,0.56,0.56,0.28,0.83,0.56,0.28,0.5,0.56,0.56,0.56,0.28,0.5,0.56,0.56,0.28,0.33,0.56,0.22,0.5,0.28,0.28,0.28,0.56,0.5,0.56,0.56,0.5,0.22,0.5,0.28,0.56,0.56,0.28,0.28,0.56,0.5,0.56,0.28,0.56,0.28,0.28,0.56,0.56,0.56,0.33" style="fill:rgb(23,22,21);font-family:Arial;font-size:9.0px;stroke:none;">SARS and 144 matched controls. Inconsistent use of gog-</text>
   <text y="318.052" x="59.5,64.504,66.502,71.506,76.006,78.508,81.199,86.203,91.207,97.705,102.709,107.209,109.711,112.402,117.406,119.404,124.408,128.908,133.912,138.412,140.914,143.605,148.609,153.613,158.617,161.308,165.808,170.812,175.688,180.188,182.879,189.377,194.381,198.881,201.572,206.576,211.076,215.576,220.58,225.08,227.078,232.082,234.584,239.588,244.592,247.283,253.781,255.779,258.281,263.285,265.976,270.98,273.671,278.675,280.673,285.677,290.681" svgx:width="0.56,0.22,0.56,0.5,0.28,0.28,0.56,0.56,0.72,0.56,0.5,0.28,0.28,0.56,0.22,0.56,0.5,0.56,0.5,0.28,0.28,0.56,0.56,0.56,0.28,0.5,0.56,0.56,0.5,0.28,0.72,0.56,0.5,0.28,0.56,0.5,0.5,0.56,0.5,0.22,0.56,0.28,0.56,0.56,0.28,0.72,0.22,0.28,0.56,0.28,0.56,0.28,0.56,0.22,0.56,0.56,0.33" style="fill:rgb(23,22,21);font-family:Arial;font-size:9.0px;stroke:none;">gles, gowns, gloves, and caps was associated with a high-</text>
   <text y="328.852" x="59.5,64.504,67.501,70.021,71.346,74.343,76.341,80.841,85.341,87.86099999999999,89.186,91.688,96.692,99.689,102.20899999999999,103.533,109.536,115.539,122.037,128.04,130.56,131.885,133.883,138.887,141.389,146.393,150.893,153.395,155.393,160.397,165.401,167.92100000000002,169.246,172.243,177.247,182.251,187.255,192.259,194.257,199.261,203.761,206.263,211.267,216.271,218.791,220.116,225.12,230.124,235.128,239.628,242.148,243.473,246.47,251.474,253.976,255.974,260.978,263.498,264.822,269.826,272.328,277.332,282.336,284.856,286.181,288.683" svgx:width="0.56,0.33,0.28,0.55,0.33,0.22,0.5,0.5,0.28,0.55,0.28,0.56,0.33,0.28,0.55,0.67,0.67,0.72,0.67,0.28,0.55,0.22,0.56,0.28,0.56,0.5,0.28,0.22,0.56,0.56,0.28,0.55,0.33,0.56,0.56,0.56,0.56,0.22,0.56,0.5,0.28,0.56,0.56,0.28,0.55,0.56,0.56,0.56,0.5,0.28,0.55,0.33,0.56,0.28,0.22,0.56,0.28,0.55,0.56,0.28,0.56,0.56,0.28,0.55,0.28,0.56" style="fill:rgb(23,22,21);font-family:Arial;font-size:9.0px;stroke:none;">er risk for SARS infection (unadjusted odds ratio 2.42 to</text>
   <text y="339.652" x="59.5,64.504,69.508,72.01,77.014,82.018,84.52,87.03999999999999,89.132,94.136,96.65599999999999,98.747,104.003,106.523,108.615,113.619,116.121,121.125,126.129,129.126,131.628,134.148,136.076,141.575,146.579,151.583,154.103,156.195,158.193,160.191,164.691,169.695,171.693,173.691,178.695,183.699,188.703,193.707,196.227,198.319,203.323,205.825,208.345,210.436,216.439,222.442,228.94,234.943,237.46300000000002,239.555,241.553,246.557,249.059,254.063,258.563,261.065,263.063,268.067,273.071,275.591,277.682,284.18,289.184" svgx:width="0.56,0.56,0.28,0.56,0.56,0.28,0.28,0.55,0.56,0.28,0.55,0.58,0.28,0.55,0.56,0.28,0.56,0.56,0.33,0.28,0.28,0.55,0.61,0.56,0.56,0.28,0.55,0.22,0.22,0.5,0.56,0.22,0.22,0.56,0.56,0.56,0.56,0.28,0.55,0.56,0.28,0.28,0.55,0.67,0.67,0.72,0.67,0.28,0.55,0.22,0.56,0.28,0.56,0.5,0.28,0.22,0.56,0.56,0.28,0.55,0.72,0.56,0.5" style="fill:rgb(23,22,21);font-family:Arial;font-size:9.0px;stroke:none;">20.54, p &lt; 0.05). The likelihood of SARS infection was</text>
   <text y="350.452" x="59.5,64.0,66.502,69.499,74.503,79.507,84.511,86.509,91.009,93.806,98.81,103.31,107.81,112.814,117.314,119.312,124.316,126.818,131.822,136.826,139.623,146.121,148.119,150.621,155.625,158.423,160.925,165.929,170.933,173.73,178.734,186.231,191.235,196.239,201.243,203.745,206.542,211.546,214.048,216.845,221.849,226.853,229.85,234.35,239.354,244.358,249.362,251.36,254.157,259.161,262.158,267.162,269.664,274.668,279.168,281.67,283.668,288.672" svgx:width="0.5,0.28,0.33,0.56,0.56,0.56,0.22,0.5,0.28,0.56,0.5,0.5,0.56,0.5,0.22,0.56,0.28,0.56,0.56,0.28,0.72,0.22,0.28,0.56,0.28,0.28,0.56,0.56,0.28,0.56,0.83,0.56,0.56,0.56,0.28,0.28,0.56,0.28,0.28,0.56,0.56,0.33,0.5,0.56,0.56,0.56,0.22,0.28,0.56,0.33,0.56,0.28,0.56,0.5,0.28,0.22,0.56,0.56" style="fill:rgb(23,22,21);font-family:Arial;font-size:9.0px;stroke:none;">strongly associated with the amount of personal protection</text>
   <text y="361.252" x="59.5,64.504,69.508,74.512,76.51,81.514,89.011,94.015,99.019,101.521,104.245,109.249,114.253,117.25,121.75,126.754,128.752,133.252,138.256,143.26,145.985,148.487,153.491,156.215,161.219,166.223,168.947,170.945,175.949,180.953,185.957,190.961,195.965,200.969,205.973,208.475,213.479,215.981,218.705,223.709,228.713,233.213,235.211,240.215,245.219,247.944,253.2,258.204,260.928,265.932,270.936,275.94,278.937,283.437,286.161,291.165" svgx:width="0.56,0.56,0.56,0.22,0.56,0.83,0.56,0.56,0.28,0.28,0.56,0.56,0.33,0.5,0.56,0.22,0.5,0.56,0.56,0.28,0.28,0.56,0.28,0.56,0.56,0.28,0.22,0.56,0.56,0.56,0.56,0.56,0.56,0.56,0.28,0.56,0.28,0.28,0.56,0.56,0.5,0.22,0.56,0.56,0.28,0.58,0.56,0.28,0.56,0.56,0.56,0.33,0.5,0.28,0.56,0.28" style="fill:rgb(23,22,21);font-family:Arial;font-size:9.0px;stroke:none;">equipment perceived to be inadequate, having &lt;2 hours of</text>
   <text y="372.052" x="59.5,61.498,66.502,69.004,74.008,78.508,81.01,83.008,88.012,93.016,95.536,96.964,101.464,106.468,111.472,113.974,116.971,121.975,123.973,126.493,127.922,130.424,133.421,138.425,140.423,145.427,147.425,152.429,157.433,159.935,162.455,163.883,168.887,173.891,178.895,181.41500000000002,182.843,187.847,192.851,195.353,197.87300000000002,199.301,204.305,209.309,214.313,219.317,222.314,226.814,229.189,234.193,239.197,244.201,246.199,251.203,256.207,258.727,260.155,262.153,267.157,269.659,274.663,279.163,281.665,283.663,288.667" svgx:width="0.22,0.56,0.28,0.56,0.5,0.28,0.22,0.56,0.56,0.28,0.55,0.5,0.56,0.56,0.28,0.33,0.56,0.22,0.28,0.55,0.28,0.33,0.56,0.22,0.56,0.22,0.56,0.56,0.28,0.28,0.55,0.56,0.56,0.56,0.28,0.55,0.56,0.56,0.28,0.28,0.55,0.56,0.56,0.56,0.56,0.33,0.5,0.28,0.56,0.56,0.56,0.22,0.56,0.56,0.28,0.55,0.22,0.56,0.28,0.56,0.5,0.28,0.22,0.56,0.56" style="fill:rgb(23,22,21);font-family:Arial;font-size:9.0px;stroke:none;">infection control training, and not understanding infection</text>
   <text y="382.852" x="59.5,64.094,69.191,74.289,76.884,79.975,85.073,87.164,89.684,93.417,98.514,101.605,106.702,111.296,116.394,121.491,126.589,129.679,134.777,139.371,141.966,144.48600000000002,148.218,154.81,159.908,162.428,166.16,170.754,172.845,177.943,183.04,185.132,187.727,189.819,194.413,199.51,204.608,207.203,209.723,213.456,218.553,220.645,223.079,225.674,230.772,233.862,238.96,244.058,248.651,253.749,258.342,260.86199999999997,264.595,269.692,274.286,276.377,280.971,283.567,288.664" svgx:width="0.5,0.56,0.56,0.28,0.33,0.56,0.22,0.28,0.55,0.56,0.33,0.56,0.5,0.56,0.56,0.56,0.33,0.56,0.5,0.28,0.28,0.55,0.72,0.56,0.28,0.55,0.5,0.22,0.56,0.56,0.22,0.28,0.22,0.5,0.56,0.56,0.28,0.28,0.55,0.56,0.22,0.28,0.28,0.56,0.33,0.56,0.56,0.5,0.56,0.5,0.28,0.55,0.56,0.5,0.22,0.5,0.28,0.56,0.56" style="fill:rgb(23,22,21);font-family:Arial;font-size:9.0px;stroke:none;">control procedures. No significant differences existed</text>
   <text y="393.652" x="59.5,64.504,69.508,72.01,78.508,83.512,88.516,93.52,96.03999999999999,97.042,99.544,104.548,109.552,112.072,113.073,117.573,122.577,127.077,132.081,134.601,135.603,140.607,145.611,150.615,153.13500000000002,154.137,158.637,163.641,168.645,171.147,174.144,179.148,181.146,183.666,184.667,189.671,192.668,197.672,202.676,207.553,212.053,214.573,215.574,217.572,222.576,225.096,226.098,228.6,233.604,238.608,241.12800000000001,242.13,247.134,250.131,255.135,260.139,265.143,268.14,270.642,272.64,277.644,282.648,285.168,286.169,291.173" svgx:width="0.56,0.56,0.28,0.72,0.56,0.56,0.56,0.28,0.55,0.28,0.56,0.56,0.28,0.55,0.5,0.56,0.5,0.56,0.28,0.55,0.56,0.56,0.56,0.28,0.55,0.5,0.56,0.56,0.28,0.33,0.56,0.22,0.28,0.55,0.56,0.33,0.56,0.56,0.56,0.5,0.28,0.55,0.22,0.56,0.28,0.55,0.28,0.56,0.56,0.28,0.55,0.56,0.33,0.56,0.56,0.56,0.33,0.28,0.22,0.56,0.56,0.28,0.55,0.56,0.28" style="fill:rgb(23,22,21);font-family:Arial;font-size:9.0px;stroke:none;">between the case and control groups in the proportion of</text>
   <text y="404.452" x="59.5,65.998,71.002,73.999,78.499,83.503,86.5,91.0,93.52,97.024,103.522,108.526,113.53,116.05,119.553,124.557,129.561,132.558,135.06,140.064,143.061,150.558,155.562,160.566,163.086,166.59,171.594,173.592,178.596,183.6,186.597,189.594,191.592,196.092,200.592,203.11200000000002,206.616,211.62,214.617,219.621,224.121,229.125,234.129,239.133,242.13,247.134,251.634,254.136,256.656,260.159,263.156,268.16,273.164,278.168,281.165,283.667,288.671" svgx:width="0.72,0.56,0.33,0.5,0.56,0.33,0.5,0.28,0.55,0.72,0.56,0.56,0.28,0.55,0.56,0.56,0.33,0.28,0.56,0.33,0.83,0.56,0.56,0.28,0.55,0.56,0.22,0.56,0.56,0.33,0.33,0.22,0.5,0.5,0.28,0.55,0.56,0.33,0.56,0.5,0.56,0.56,0.56,0.33,0.56,0.5,0.28,0.28,0.55,0.33,0.56,0.56,0.56,0.33,0.28,0.56,0.56" style="fill:rgb(23,22,21);font-family:Arial;font-size:9.0px;stroke:none;">workers who performed high-risk procedures, reported</text>
   <text y="415.252" x="59.5,66.997,68.995,73.999,79.003,82.0,84.245,89.249,92.246,97.25,99.752,104.756,109.256,111.758,113.756,118.76,123.764,126.01,131.014,136.018,141.022,143.02,148.024,155.521,160.525,165.529,168.031,170.276,175.28,178.277,183.281,188.285,190.283,195.287,202.784,207.284,209.786,212.032,217.036,220.033,222.278,227.282,232.286,237.29,239.536,244.036,249.04,253.54,255.538,260.542,262.54,264.785,269.285,274.289,279.293,281.668,286.672,291.172" svgx:width="0.83,0.22,0.56,0.56,0.33,0.28,0.56,0.33,0.56,0.28,0.56,0.5,0.28,0.22,0.56,0.56,0.28,0.56,0.56,0.56,0.22,0.56,0.83,0.56,0.56,0.28,0.28,0.56,0.33,0.56,0.56,0.22,0.56,0.83,0.5,0.28,0.28,0.56,0.33,0.28,0.56,0.56,0.56,0.28,0.5,0.56,0.5,0.22,0.56,0.22,0.28,0.5,0.56,0.56,0.28,0.56,0.5,0.28" style="fill:rgb(23,22,21);font-family:Arial;font-size:9.0px;stroke:none;">minor protection equipment problems, or had social contact</text>
   <text y="426.052" x="59.5,65.998,67.996,70.498,75.502,78.017,84.02,90.023,96.521,102.524,105.521,107.519,112.523,115.025,120.029,124.529,127.031,132.035,137.039,139.553,144.557,149.561,152.558,157.058,162.062,167.066,171.566,174.068,176.583,182.586,187.59,190.587,195.087,200.091,202.089,206.589,211.593,216.597,219.111,221.109,226.113,231.117,236.121,241.125,246.129,251.133,256.137,260.637,265.137,267.652,272.656,275.158,277.673,282.677,287.681,290.678" svgx:width="0.72,0.22,0.28,0.56,0.28,0.67,0.67,0.72,0.67,0.33,0.22,0.56,0.28,0.56,0.5,0.28,0.56,0.56,0.28,0.56,0.56,0.33,0.5,0.56,0.56,0.5,0.28,0.28,0.67,0.56,0.33,0.5,0.56,0.22,0.5,0.56,0.56,0.28,0.22,0.56,0.56,0.56,0.56,0.56,0.56,0.56,0.5,0.5,0.28,0.56,0.28,0.28,0.56,0.56,0.33,0.33" style="fill:rgb(23,22,21);font-family:Arial;font-size:9.0px;stroke:none;">with SARS-infected persons. Perceived inadequacy of per-</text>
   <text y="436.852" x="59.5,64.0,69.004,74.008,79.012,81.01,83.217,88.221,91.218,96.222,98.724,103.728,108.228,110.73,112.728,117.732,122.736,124.943,129.947,134.951,139.955,141.953,146.957,154.454,159.458,164.462,166.964,169.17,173.67,178.674,183.678,188.682,190.68,194.513,197.015,199.221,201.219,206.223,208.725,213.729,218.229,220.731,222.729,227.733,232.737,234.944,239.444,244.448,249.452,251.954,254.951,259.955,261.953,264.16,266.662,269.659,274.663,276.661,281.665,283.663,288.667" svgx:width="0.5,0.56,0.56,0.56,0.22,0.28,0.56,0.33,0.56,0.28,0.56,0.5,0.28,0.22,0.56,0.56,0.28,0.56,0.56,0.56,0.22,0.56,0.83,0.56,0.56,0.28,0.28,0.5,0.56,0.56,0.56,0.22,0.5,0.28,0.28,0.22,0.56,0.28,0.56,0.5,0.28,0.22,0.56,0.56,0.28,0.5,0.56,0.56,0.28,0.33,0.56,0.22,0.28,0.28,0.33,0.56,0.22,0.56,0.22,0.56,0.56" style="fill:rgb(23,22,21);font-family:Arial;font-size:9.0px;stroke:none;">sonal protection equipment supply, infection control training</text>
   <text y="447.652" x="59.5,64.756,69.76,72.28,75.521,80.525,85.529,90.533,93.53,98.03,100.532,103.05199999999999,106.293,111.297,116.301,121.305,123.825,127.066,129.064,134.068,138.568,143.572,148.576,153.076,155.074,159.574,162.076,167.08,172.084,174.586,177.10600000000002,180.347,185.351,189.851,194.855,197.375,200.615,205.619,208.121,210.64100000000002,213.882,218.886,223.89,226.887,231.387,236.391,241.395,246.399,248.397,250.917,254.158,259.162,262.159,267.163,269.665,274.669,279.169,281.671,283.669,288.673" svgx:width="0.58,0.56,0.28,0.55,0.56,0.56,0.56,0.33,0.5,0.28,0.28,0.55,0.56,0.56,0.56,0.28,0.55,0.22,0.56,0.5,0.56,0.56,0.5,0.22,0.5,0.28,0.56,0.56,0.28,0.28,0.55,0.56,0.5,0.56,0.28,0.55,0.56,0.28,0.28,0.55,0.56,0.56,0.33,0.5,0.56,0.56,0.56,0.22,0.28,0.55,0.56,0.33,0.56,0.28,0.56,0.5,0.28,0.22,0.56,0.56" style="fill:rgb(23,22,21);font-family:Arial;font-size:9.0px;stroke:none;">&lt;2 hours, and inconsistent use of personal protection</text>
   <text y="458.452" x="59.5,64.504,69.508,74.512,76.51,81.514,89.011,94.015,99.019,101.521,103.955,110.453,115.457,120.461,125.465,127.9,129.898,134.902,137.336,141.836,146.84,151.844,154.22,159.224,163.724,166.226,168.66,175.158,177.156,179.658,184.662,187.097,193.1,199.103,205.601,211.604,214.038,218.914,223.918,226.42,228.418,233.422,238.426,240.8,245.3,247.735,254.233,259.237,262.234,267.238,269.672,274.172,276.17,281.174,286.178,288.176,290.678" svgx:width="0.56,0.56,0.56,0.22,0.56,0.83,0.56,0.56,0.28,0.28,0.72,0.56,0.56,0.56,0.28,0.22,0.56,0.28,0.5,0.56,0.56,0.28,0.56,0.5,0.28,0.28,0.72,0.22,0.28,0.56,0.28,0.67,0.67,0.72,0.67,0.28,0.56,0.56,0.28,0.22,0.56,0.56,0.28,0.5,0.28,0.72,0.56,0.33,0.56,0.28,0.5,0.22,0.56,0.56,0.22,0.28,0.33" style="fill:rgb(23,22,21);font-family:Arial;font-size:9.0px;stroke:none;">equipment when in contact with SARS patients were signif-</text>
  </g>
  <path style="fill:none;stroke:rgb(23,22,21);stroke-width:1.0;" d="M59.500 471.400 L293.700 471.400 "/>
  <g begin="text">
   <text y="469.252" x="59.5,61.498,65.998,71.002,76.006,78.508,81.26,83.258,88.262,93.266,98.27,103.274,108.278,113.282,118.286,123.29,128.294,130.796,133.548,136.545,138.543,143.043,147.543,150.296,152.798,157.802,162.302,164.804,169.808,172.805,177.305,180.057,182.559,187.563,190.56,193.312,199.315,205.318,211.816,217.819,220.571,222.569,227.573,230.075,235.079,239.579,242.081,244.079,249.083,254.087,256.589" svgx:width="0.22,0.5,0.56,0.56,0.28,0.28,0.22,0.56,0.56,0.56,0.56,0.56,0.56,0.56,0.56,0.56,0.28,0.28,0.33,0.22,0.5,0.5,0.28,0.28,0.56,0.5,0.28,0.56,0.33,0.5,0.28,0.28,0.56,0.33,0.28,0.67,0.67,0.72,0.67,0.28,0.22,0.56,0.28,0.56,0.5,0.28,0.22,0.56,0.56,0.28,0.28" style="fill:rgb(23,22,21);font-family:Arial;font-size:9.0px;stroke:none;">icant independent risk factors for SARS infection. </text>
   <text y="511.252" x="59.5" svgx:width="0.61" style="fill:rgb(23,22,21);font-family:TimesNewRoman;font-size:27.31px;stroke:none;">T</text>
   <text y="499.252" x="76.125,81.125,85.565,88.514,91.844,94.624,97.954,101.844,104.624,107.573,110.353,114.793,117.942,122.942,127.382,130.712,134.602,139.042,143.482,146.262,150.702,153.651,158.651,163.651,166.431,171.431,174.761,179.201,183.641,188.641,191.59,196.59,199.92,202.869,206.759,211.199,216.199,220.639,223.969,228.409,231.358,235.798,240.238,245.238,248.018,252.458,255.407,258.737,263.177,267.067,272.067,274.847,278.177,282.617,285.397,290.397" svgx:width="0.5,0.44,0.25,0.33,0.28,0.33,0.39,0.28,0.25,0.28,0.44,0.33,0.5,0.44,0.33,0.39,0.44,0.44,0.28,0.44,0.25,0.5,0.5,0.28,0.5,0.33,0.44,0.44,0.5,0.25,0.5,0.33,0.25,0.39,0.44,0.5,0.44,0.33,0.44,0.25,0.44,0.44,0.5,0.28,0.44,0.25,0.33,0.44,0.39,0.5,0.28,0.33,0.44,0.28,0.5,0.33" style="fill:rgb(23,22,21);font-family:TimesNewRoman;font-size:10.0px;stroke:none;">he first large-scale outbreak of severe acute respirato-</text>
   <text y="511.252" x="76.125,79.455,84.455,86.955,88.082,91.972,96.972,101.972,106.972,110.302,115.302,123.082,127.522,130.022,131.149,134.479,140.039,147.259,153.929,159.489,162.819,165.319,166.446,171.446,175.886,180.326,185.326,188.656,191.986,196.426,201.426,203.926,205.053,210.053,215.053,217.553,218.68,223.68,227.01,229.51,230.637,235.637,240.077,244.517,247.847,250.347,251.474,260.364,264.804,268.134,272.574,277.574,280.074,281.201,286.201,291.201" svgx:width="0.33,0.5,0.25,0.55,0.39,0.5,0.5,0.5,0.33,0.5,0.78,0.44,0.25,0.55,0.33,0.56,0.72,0.67,0.56,0.33,0.25,0.55,0.5,0.44,0.44,0.5,0.33,0.33,0.44,0.5,0.25,0.55,0.5,0.5,0.25,0.55,0.5,0.33,0.25,0.55,0.5,0.44,0.44,0.33,0.25,0.55,0.89,0.44,0.33,0.44,0.5,0.25,0.55,0.5,0.5,0.25" style="fill:rgb(23,22,21);font-family:TimesNewRoman;font-size:10.0px;stroke:none;">ry syndrome (SARS) occurred on or near March 12,</text>
   <text y="523.252" x="59.5,64.5,69.5,74.5,79.5,82.02,84.8,89.8,92.32,95.1,100.1,104.54,107.06,112.62,115.95,118.73,123.73,128.17,132.61,135.13,140.13,143.46,145.8,154.439,158.879,161.659,166.099,169.989,172.509,179.729,184.729,188.619,193.619,196.399,199.179,203.619,206.399,208.919,211.699,216.699,219.219,226.439,231.439,236.439,241.439,243.959,251.179,256.179,261.179,266.179,268.699,272.029,277.029,280.359,282.859,285.379,288.709" svgx:width="0.5,0.5,0.5,0.5,0.25,0.28,0.5,0.25,0.28,0.5,0.44,0.25,0.56,0.33,0.28,0.5,0.44,0.44,0.25,0.5,0.33,0.25,0.94,0.44,0.28,0.44,0.39,0.25,0.72,0.5,0.39,0.5,0.28,0.28,0.44,0.28,0.25,0.28,0.5,0.25,0.72,0.5,0.5,0.5,0.25,0.72,0.5,0.5,0.5,0.25,0.33,0.5,0.33,0.25,0.25,0.33,0.5" style="fill:rgb(23,22,21);font-family:TimesNewRoman;font-size:10.0px;stroke:none;">2003 in the Prince of Wales Hospital in Hong Kong (1). In</text>
   <text y="535.252" x="59.5,62.28,67.28,70.06,73.95,76.393,83.613,88.613,91.943,94.723,99.723,106.943,109.723,114.723,119.163,121.606,126.046,131.046,133.826,138.826,143.266,151.046,153.826,158.266,160.766,163.209,168.209,173.209,177.099,182.099,184.879,187.659,192.099,194.879,197.322,204.542,209.542,212.872,217.872,222.312,225.642,229.532,231.975,239.195,243.635,246.965,251.405,253.848,258.848,263.848,268.288,270.731,275.731,279.061,281.504,284.284,289.284" svgx:width="0.28,0.5,0.28,0.39,0.25,0.72,0.5,0.33,0.28,0.5,0.72,0.28,0.5,0.44,0.25,0.44,0.5,0.28,0.5,0.44,0.78,0.28,0.44,0.25,0.25,0.5,0.5,0.39,0.5,0.28,0.28,0.44,0.28,0.25,0.72,0.5,0.33,0.5,0.44,0.33,0.39,0.25,0.72,0.44,0.33,0.44,0.25,0.5,0.5,0.44,0.25,0.5,0.33,0.25,0.28,0.5,0.44" style="fill:rgb(23,22,21);font-family:TimesNewRoman;font-size:10.0px;stroke:none;">this worldwide epidemic, hospital workers were one of the</text>
   <text y="547.252" x="59.5,63.94,67.089,70.419,74.859,79.299,82.079,86.519,91.519,93.716,98.716,102.046,107.046,112.046,117.046,120.936,123.716,125.913,130.353,134.243,136.44,141.44,144.77,146.967,155.857,160.297,165.297,167.494,172.494,177.494,179.994,182.191,187.191,192.191,197.191,202.191,204.691,206.888,211.328,213.525,216.305,221.305,224.085,228.525,231.305,233.502,238.502,241.832,244.029,249.029,254.029,259.029,261.226,264.556,269.556,274.556,277.056,282.056,290.386" svgx:width="0.44,0.33,0.33,0.44,0.44,0.28,0.44,0.5,0.25,0.5,0.33,0.5,0.5,0.5,0.39,0.28,0.25,0.44,0.39,0.25,0.5,0.33,0.25,0.89,0.44,0.5,0.25,0.5,0.5,0.25,0.25,0.5,0.5,0.5,0.5,0.25,0.25,0.44,0.25,0.28,0.5,0.28,0.44,0.28,0.25,0.5,0.33,0.25,0.5,0.5,0.5,0.25,0.33,0.5,0.5,0.25,0.5,0.83,0.33" style="fill:rgb(23,22,21);font-family:TimesNewRoman;font-size:10.0px;stroke:none;">affected groups; as of May 31, 2003, a total of 384 (22.1%)</text>
   <text y="559.252" x="59.5,64.5,67.83,70.33,71.662,76.662,79.162,84.162,89.162,94.162,96.662,97.994,101.884,106.884,110.774,115.774,120.214,124.654,127.434,131.874,136.874,139.374,140.706,145.706,149.036,151.536,152.868,157.308,162.308,167.308,170.638,173.418,176.748,184.528,188.968,193.968,196.468,197.8,202.24,206.68,210.57,215.01,218.9,221.4,222.732,226.062,230.502,235.502,240.502,243.832,246.612,251.052,256.052,258.552,259.884,262.664,267.664,270.164,271.496,278.716,283.716,288.716" svgx:width="0.5,0.33,0.25,0.55,0.5,0.25,0.5,0.5,0.5,0.25,0.55,0.39,0.5,0.39,0.5,0.44,0.44,0.28,0.44,0.5,0.25,0.55,0.5,0.33,0.25,0.55,0.44,0.5,0.5,0.33,0.28,0.33,0.78,0.44,0.5,0.25,0.55,0.44,0.44,0.39,0.44,0.39,0.25,0.55,0.33,0.44,0.5,0.5,0.33,0.28,0.44,0.5,0.25,0.55,0.28,0.5,0.25,0.55,0.72,0.5,0.5,0.5" style="fill:rgb(23,22,21);font-family:TimesNewRoman;font-size:10.0px;stroke:none;">of 1,739 suspected or confirmed cases reported in Hong</text>
   <text y="571.252" x="59.5,66.72,71.72,76.72,81.72,84.452,91.672,96.112,99.442,103.882,106.614,111.614,116.614,120.504,125.504,128.284,131.064,135.504,138.284,141.016,148.236,153.236,156.566,161.566,166.006,169.336,173.226,175.958,179.288,184.288,187.618,190.118,192.85,196.18,201.18,203.912,206.692,211.692,216.132,218.864,221.644,226.644,229.424,232.204,234.984,239.424,242.204,244.936,249.936,254.936,259.376,263.266,267.706,270.438,275.438,278.768,281.5,284.28,289.28" svgx:width="0.72,0.5,0.5,0.5,0.25,0.72,0.44,0.33,0.44,0.25,0.5,0.5,0.39,0.5,0.28,0.28,0.44,0.28,0.25,0.72,0.5,0.33,0.5,0.44,0.33,0.39,0.25,0.33,0.5,0.33,0.25,0.25,0.33,0.5,0.25,0.28,0.5,0.44,0.25,0.28,0.5,0.28,0.28,0.28,0.44,0.28,0.25,0.5,0.5,0.44,0.39,0.44,0.25,0.5,0.33,0.25,0.28,0.5,0.44" style="fill:rgb(23,22,21);font-family:TimesNewRoman;font-size:10.0px;stroke:none;">Kong were hospital workers (2). In the initial phase of the</text>
   <text y="583.252" x="59.5,63.94,68.94,71.72,76.72,81.16,88.94,91.72,96.16,98.66,101.691,106.691,111.691,115.581,120.581,123.361,126.141,130.581,133.361,136.392,143.612,148.612,151.942,156.942,161.382,164.712,168.602,171.633,176.633,179.413,184.413,187.444,192.444,197.444,200.224,203.255,206.035,210.475,215.475,219.915,222.946,226.836,231.836,236.276,240.716,243.496,247.936,250.716,253.747,258.747,262.077,267.077,269.857,274.297,278.737,281.517,284.297,289.297" svgx:width="0.44,0.5,0.28,0.5,0.44,0.78,0.28,0.44,0.25,0.25,0.5,0.5,0.39,0.5,0.28,0.28,0.44,0.28,0.25,0.72,0.5,0.33,0.5,0.44,0.33,0.39,0.25,0.5,0.28,0.5,0.25,0.5,0.5,0.28,0.25,0.28,0.44,0.5,0.44,0.25,0.39,0.5,0.44,0.44,0.28,0.44,0.28,0.25,0.5,0.33,0.5,0.28,0.44,0.44,0.28,0.28,0.5,0.44" style="fill:rgb(23,22,21);font-family:TimesNewRoman;font-size:10.0px;stroke:none;">epidemic, hospital workers did not take special protective</text>
   <text y="595.252" x="59.5,67.28,71.72,76.16,80.05,85.05,88.38,92.82,96.71,99.21,101.45,107.56,112.56,117.56,121.45,123.95,126.371,131.371,136.371,140.261,145.261,148.041,150.821,155.261,158.041,160.462,167.682,172.682,176.012,181.012,185.452,188.782,192.672,195.093,199.533,203.973,208.413,213.413,218.413,223.413,226.193,230.633,235.633,238.054,241.384,246.384,249.714,252.135,257.135,262.135,264.635,269.635,277.965,280.386,283.716,288.716" svgx:width="0.78,0.44,0.44,0.39,0.5,0.33,0.44,0.39,0.25,0.25,0.61,0.5,0.5,0.39,0.25,0.25,0.5,0.5,0.39,0.5,0.28,0.28,0.44,0.28,0.25,0.72,0.5,0.33,0.5,0.44,0.33,0.39,0.25,0.44,0.44,0.44,0.5,0.5,0.5,0.28,0.44,0.5,0.25,0.33,0.5,0.33,0.25,0.5,0.5,0.25,0.5,0.83,0.25,0.33,0.5,0.5" style="fill:rgb(23,22,21);font-family:TimesNewRoman;font-size:10.0px;stroke:none;">measures. Thus, hospital workers accounted for 43.6% (68</text>
   <text y="607.252" x="59.5,64.5,67.83,70.33,72.244,77.244,82.244,87.244,89.744,91.658,96.098,100.538,104.428,108.868,112.758,116.088,118.588,120.502,125.502,128.832,131.332,133.246,136.026,141.026,146.026,149.916,154.356,156.856,158.77,163.21,168.21,175.99,178.77,181.55,184.33,188.77,193.77,196.27,198.184,200.964,205.964,208.464,210.378,213.158,218.158,222.598,225.098,227.012,232.572,235.902,238.682,243.682,248.122,252.562,255.062,256.976,261.976,265.306,267.806,269.539,278.178,282.618,285.398,289.838" svgx:width="0.5,0.33,0.25,0.55,0.5,0.5,0.5,0.25,0.55,0.44,0.44,0.39,0.44,0.39,0.33,0.25,0.55,0.5,0.33,0.25,0.55,0.28,0.5,0.5,0.39,0.44,0.25,0.55,0.44,0.5,0.78,0.28,0.28,0.28,0.44,0.5,0.25,0.55,0.28,0.5,0.25,0.55,0.28,0.5,0.44,0.25,0.55,0.56,0.33,0.28,0.5,0.44,0.44,0.25,0.55,0.5,0.33,0.25,0.55,0.94,0.44,0.28,0.44,0.39" style="fill:rgb(23,22,21);font-family:TimesNewRoman;font-size:10.0px;stroke:none;">of 156 cases) of those admitted to the Prince of Wales</text>
   <text y="619.252" x="59.5,66.72,71.72,75.61,80.61,83.39,86.17,90.61,93.39,95.727,99.057,102.387,107.387,115.167,117.504,126.394,130.834,134.164,138.604,143.604,145.941,150.57,155.57,157.907,160.687,165.687,168.024,173.024,178.024,180.524,182.861,187.861,192.861,197.861,202.861,205.198,208.528,213.528,216.858,219.358,221.695,228.365,233.365,235.702,244.592,249.032,254.032,256.369,261.369,266.369,268.869,271.206,276.206,281.206,286.206,291.206" svgx:width="0.72,0.5,0.39,0.5,0.28,0.28,0.44,0.28,0.25,0.33,0.33,0.5,0.78,0.25,0.89,0.44,0.33,0.44,0.5,0.25,0.5,0.5,0.25,0.28,0.5,0.25,0.5,0.5,0.25,0.25,0.5,0.5,0.5,0.5,0.25,0.33,0.5,0.33,0.25,0.25,0.67,0.5,0.25,0.89,0.44,0.5,0.25,0.5,0.5,0.25,0.25,0.5,0.5,0.5,0.5,0.25" style="fill:rgb(23,22,21);font-family:TimesNewRoman;font-size:10.0px;stroke:none;">Hospital from March 11 to 25, 2003 (3). By May 25, 2003,</text>
   <text y="631.252" x="59.5,63.94,66.477,69.257,74.257,77.037,81.477,84.257,86.794,91.794,95.124,97.661,102.661,107.661,112.661,115.198,119.638,124.638,129.638,132.968,135.748,139.078,146.858,151.298,156.298,158.835,164.395,171.615,178.285,183.845,186.382,190.822,195.262,199.152,203.592,207.482,210.019,215.019,219.459,224.459,226.996,231.996,236.436,240.876,245.876,248.413,252.853,257.853,265.633,268.413,271.193,273.973,278.413,283.413,285.95,288.73" svgx:width="0.44,0.25,0.28,0.5,0.28,0.44,0.28,0.25,0.5,0.33,0.25,0.5,0.5,0.5,0.25,0.44,0.5,0.5,0.33,0.28,0.33,0.78,0.44,0.5,0.25,0.56,0.72,0.67,0.56,0.25,0.44,0.44,0.39,0.44,0.39,0.25,0.5,0.44,0.5,0.25,0.5,0.44,0.44,0.5,0.25,0.44,0.5,0.78,0.28,0.28,0.28,0.44,0.5,0.25,0.28,0.5" style="fill:rgb(23,22,21);font-family:TimesNewRoman;font-size:10.0px;stroke:none;">a total of 453 confirmed SARS cases had been admitted to</text>
   <text y="643.252" x="59.5,64.5,69.5,73.39,78.39,81.17,83.95,88.39,91.17,95.06,97.298,100.078,105.078,107.316,110.096,115.096,119.536,121.774,128.994,133.434,140.654,142.711,148.123,152.563,155.893,159.223,162.003,164.783,169.783,173.113,175.893,180.333,184.223,186.461,192.571,197.011,200.901,203.681,205.919,210.359,213.139,218.139,222.029,224.809,229.249,232.579,234.817,239.817,243.147,245.385,248.165,253.165,257.605,259.843,267.063,272.063,275.953,280.953,283.733,286.513,290.953" svgx:width="0.5,0.5,0.39,0.5,0.28,0.28,0.44,0.28,0.39,0.25,0.28,0.5,0.25,0.28,0.5,0.44,0.25,0.72,0.44,0.72,0.25,0.61,0.44,0.33,0.33,0.28,0.28,0.5,0.33,0.28,0.44,0.39,0.25,0.61,0.44,0.39,0.28,0.25,0.44,0.28,0.5,0.39,0.28,0.44,0.33,0.25,0.5,0.33,0.25,0.28,0.5,0.44,0.25,0.72,0.5,0.39,0.5,0.28,0.28,0.44,0.28" style="fill:rgb(23,22,21);font-family:TimesNewRoman;font-size:10.0px;stroke:none;">hospitals in the New Territories East cluster of the Hospital</text>
   <text y="655.252" x="59.5,66.72,71.72,74.5,79.5,84.5,87.83,90.61,93.39,98.39,101.279,104.059,109.059,111.948,119.168,124.168,129.168,134.168,137.057,144.277,149.277,154.277,159.277,161.777,164.666,171.886,176.886,179.666,184.106,189.106,191.995,195.885,200.325,203.655,208.655,213.095,216.985,219.874,224.874,227.374,232.374,235.263,243.043,245.823,248.603,251.383,254.163,259.163,264.163,267.052,272.052,276.492,281.492,286.492,289.272" svgx:width="0.72,0.5,0.28,0.5,0.5,0.33,0.28,0.28,0.5,0.25,0.28,0.5,0.25,0.72,0.5,0.5,0.5,0.25,0.72,0.5,0.5,0.5,0.25,0.25,0.72,0.5,0.28,0.44,0.5,0.25,0.39,0.44,0.33,0.5,0.44,0.39,0.25,0.5,0.25,0.5,0.25,0.78,0.28,0.28,0.28,0.28,0.5,0.5,0.25,0.5,0.44,0.5,0.5,0.28,0.44" style="fill:rgb(23,22,21);font-family:TimesNewRoman;font-size:10.0px;stroke:none;">Authority in Hong Kong, which serves 1.3 million people</text>
   <text y="667.252" x="59.5,63.94,68.94,73.94,77.082,79.862,84.862,88.004,95.224,100.224,103.004,107.444,112.444,115.586,118.366,123.366,127.806,130.948,136.508,139.838,142.618,147.618,152.058,156.498,159.64,164.64,167.97,170.932,179.571,184.011,186.791,191.231,195.121,198.263,205.483,210.483,214.373,219.373,222.153,224.933,229.373,232.153,235.295,240.295,244.735,247.515,252.515,257.515,262.515,266.405,268.905,272.047,277.607,280.937,285.937" svgx:width="0.44,0.5,0.5,0.25,0.28,0.5,0.25,0.72,0.5,0.28,0.44,0.5,0.25,0.28,0.5,0.44,0.25,0.56,0.33,0.28,0.5,0.44,0.44,0.25,0.5,0.33,0.25,0.94,0.44,0.28,0.44,0.39,0.25,0.72,0.5,0.39,0.5,0.28,0.28,0.44,0.28,0.25,0.5,0.44,0.28,0.5,0.5,0.5,0.39,0.25,0.25,0.56,0.33,0.5,0.78" style="fill:rgb(23,22,21);font-family:TimesNewRoman;font-size:10.0px;stroke:none;">and to which the Prince of Wales Hospital belongs. From</text>
   <text y="679.252" x="59.5,68.39,72.83,76.16,80.6,85.6,88.1,89.102,94.102,99.102,101.602,104.102,105.104,110.104,115.104,120.104,125.104,127.604,130.10399999999998,131.106,133.886,138.886,141.386,142.388,151.278,155.718,160.718,163.218,164.22,169.22,174.22,176.72,179.22,180.222,185.222,190.222,195.222,200.222,202.722,205.222,206.224,210.664,213.164,214.166,216.946,221.946,224.726,229.166,231.946,234.446,235.448,240.448,243.778,246.278,247.28,252.28,257.28,259.78,260.782,265.222,269.662,273.552,277.992,281.882,284.382,285.384,290.384" svgx:width="0.89,0.44,0.33,0.44,0.5,0.25,0.55,0.5,0.5,0.25,0.25,0.55,0.5,0.5,0.5,0.5,0.25,0.25,0.55,0.28,0.5,0.25,0.55,0.89,0.44,0.5,0.25,0.55,0.5,0.5,0.25,0.25,0.55,0.5,0.5,0.5,0.5,0.25,0.25,0.55,0.44,0.25,0.55,0.28,0.5,0.28,0.44,0.28,0.25,0.55,0.5,0.33,0.25,0.55,0.5,0.5,0.25,0.55,0.44,0.44,0.39,0.44,0.39,0.25,0.55,0.5,0.33" style="fill:rgb(23,22,21);font-family:TimesNewRoman;font-size:10.0px;stroke:none;">March 28, 2003, to May 29, 2003, a total of 77 cases of</text>
   <text y="264.434" x="305.7,311.26,318.48,325.15,330.71,333.857,336.637,341.637,344.967,349.407,353.847,356.627,359.407,364.407,369.407,372.554,376.994,384.774,389.774,394.774,399.774,402.921,407.921,412.921,416.811,421.811,424.591,427.371,431.811,434.591,437.738,444.958,449.958,453.288,458.288,462.728,466.058,469.948,473.095,478.095,482.535,487.535,490.682,495.682,500.122,504.562,509.562,512.709,516.039,520.479,525.479,530.479,533.809,536.589" svgx:width="0.56,0.72,0.67,0.56,0.25,0.28,0.5,0.33,0.44,0.44,0.28,0.28,0.5,0.5,0.25,0.44,0.78,0.5,0.5,0.5,0.25,0.5,0.5,0.39,0.5,0.28,0.28,0.44,0.28,0.25,0.72,0.5,0.33,0.5,0.44,0.33,0.39,0.25,0.5,0.44,0.5,0.25,0.5,0.44,0.44,0.5,0.25,0.33,0.44,0.5,0.5,0.33,0.28,0.33" style="fill:rgb(23,22,21);font-family:TimesNewRoman;font-size:10.0px;stroke:none;">SARS infection among hospital workers had been report-</text>
   <text y="276.434" x="305.7,310.14,315.14,317.89,322.89,327.89,330.64,333.42,338.42,342.86,345.61,350.61,353.36,358.36,363.36,367.25,372.25,375.03,377.81,382.25,385.03,388.92,391.67,394.45,399.45,402.2,404.98,409.98,414.42,417.17,421.61,424.39,429.39,433.28,436.06,440.5,443.278,445.778" svgx:width="0.44,0.5,0.25,0.5,0.5,0.25,0.28,0.5,0.44,0.25,0.5,0.25,0.5,0.5,0.39,0.5,0.28,0.28,0.44,0.28,0.39,0.25,0.28,0.5,0.25,0.28,0.5,0.44,0.25,0.44,0.28,0.5,0.39,0.28,0.44,0.33,0.25,0.25" style="fill:rgb(23,22,21);font-family:TimesNewRoman;font-size:10.0px;stroke:none;">ed by the 5 hospitals in the cluster. </text>
   <text y="288.434" x="318.444,325.644,329.956,333.286,337.726,342.166,346.606,351.606,354.386,356.886,359.229,363.119,365.899,370.899,375.899,380.899,383.399,385.742,390.182,395.182,400.182,404.622,407.402,412.402,417.402,421.842,426.842,429.342,431.685,434.465,439.465,443.905,446.685,449.185,451.528,454.308,459.308,463.748,466.248,468.591,473.591,477.481,481.921,484.421,486.764,491.764,495.094,497.594,499.937,504.937,508.267,513.267,516.047,520.487,524.927,527.707,530.487,535.487" svgx:width="0.72,0.55,0.33,0.44,0.44,0.44,0.5,0.28,0.25,0.55,0.39,0.28,0.5,0.5,0.5,0.25,0.55,0.44,0.5,0.5,0.44,0.28,0.5,0.5,0.44,0.5,0.25,0.55,0.28,0.5,0.44,0.28,0.25,0.55,0.28,0.5,0.44,0.25,0.55,0.5,0.39,0.44,0.25,0.55,0.5,0.33,0.25,0.55,0.5,0.33,0.5,0.28,0.44,0.44,0.28,0.28,0.5,0.44" style="fill:rgb(23,22,21);font-family:TimesNewRoman;font-size:10.0px;stroke:none;">A recent study concluded that the use of protective</text>
   <text y="300.434" x="305.7,313.48,317.92,321.81,326.81,330.7,333.2,334.629,337.409,341.299,343.799,345.228,349.668,354.668,357.168,358.597,363.037,366.186,369.516,373.956,378.396,381.176,383.956,388.956,393.396,395.896,397.325,401.765,406.765,411.765,416.765,419.545,423.985,427.315,435.095,439.535,443.975,447.865,452.865,456.195,460.635,463.135,464.564,469.004,474.004,478.444,481.224,486.224,490.114,492.894,495.394,496.823,502.383,509.603,516.273,521.833,524.333,525.762,529.092,534.092,537.422" svgx:width="0.78,0.44,0.39,0.5,0.39,0.25,0.55,0.28,0.39,0.25,0.55,0.44,0.5,0.25,0.55,0.44,0.33,0.33,0.44,0.44,0.28,0.28,0.5,0.44,0.25,0.55,0.44,0.5,0.5,0.5,0.28,0.44,0.33,0.78,0.44,0.44,0.39,0.5,0.33,0.44,0.25,0.55,0.44,0.5,0.44,0.28,0.5,0.39,0.28,0.25,0.55,0.56,0.72,0.67,0.56,0.25,0.55,0.33,0.5,0.33,0.25" style="fill:rgb(23,22,21);font-family:TimesNewRoman;font-size:10.0px;stroke:none;">masks is an effective countermeasure against SARS (4).</text>
   <text y="312.434" x="305.7,312.92,317.36,322.36,326.8,330.13,332.91,337.91,342.35,345.13,349.57,353.46,357.35,359.85,362.35,363.113,367.553,372.553,376.993,381.993,384.493,385.256,389.696,393.026,395.806,400.246,403.576,406.076,406.839,409.619,414.619,419.059,422.949,427.389,429.889,430.652,438.432,442.872,447.312,451.202,456.202,459.532,463.972,467.862,470.362,471.125,478.345,482.785,486.115,490.555,493.055,493.818,496.598,504.378,509.378,512.158,516.598,524.378,528.818,533.818,536.598" svgx:width="0.72,0.44,0.5,0.44,0.33,0.28,0.5,0.44,0.28,0.44,0.39,0.39,0.25,0.25,0.55,0.44,0.5,0.44,0.5,0.25,0.55,0.44,0.33,0.28,0.44,0.33,0.25,0.55,0.28,0.5,0.44,0.39,0.44,0.25,0.55,0.78,0.44,0.44,0.39,0.5,0.33,0.44,0.39,0.25,0.55,0.72,0.44,0.33,0.44,0.25,0.55,0.28,0.78,0.5,0.28,0.44,0.78,0.44,0.5,0.28,0.33" style="fill:rgb(23,22,21);font-family:TimesNewRoman;font-size:10.0px;stroke:none;">Nevertheless, even after these measures were implement-</text>
   <text y="324.434" x="305.7,310.14,315.14,317.64,319.876,322.656,327.656,332.096,335.426,339.866,342.102,349.322,353.762,357.092,361.532,363.768,368.208,373.208,378.208,381.538,386.538,391.538,394.318,402.098,406.538,409.318,413.758,416.538,421.538,423.774,428.774,433.774,438.774,441.01,448.79,453.79,457.12,461.56,463.796,468.796,473.796,477.686,482.686,485.466,488.246,492.686,495.466,497.702,504.922,509.922,513.252,518.252,522.692,526.022,529.912,532.148,534.928" svgx:width="0.44,0.5,0.25,0.25,0.28,0.5,0.44,0.33,0.44,0.25,0.72,0.44,0.33,0.44,0.25,0.44,0.5,0.5,0.33,0.5,0.5,0.28,0.78,0.44,0.28,0.44,0.28,0.5,0.25,0.5,0.5,0.5,0.25,0.78,0.5,0.33,0.44,0.25,0.5,0.5,0.39,0.5,0.28,0.28,0.44,0.28,0.25,0.72,0.5,0.33,0.5,0.44,0.33,0.39,0.25,0.28,0.5" style="fill:rgb(23,22,21);font-family:TimesNewRoman;font-size:10.0px;stroke:none;">ed, there were approximately 300 more hospital workers in</text>
   <text y="336.434" x="305.7,312.92,317.92,322.92,330.7,333.2,335.473,338.253,343.253,347.693,350.193,352.466,357.466,360.246,364.136,368.576,373.016,376.906,381.346,383.846,386.119,391.119,395.559,400.559,404.999,407.779,412.779,417.779,422.219,427.219,429.719,432.219,434.492,440.602,443.382,451.162,453.942,456.722,461.162,463.942,466.722,471.722,476.722,480.612,483.112,485.385,490.385,493.715,496.215,498.488,501.268,506.268,510.708,513.488,515.988,518.261,522.151,524.931,529.931,534.931" svgx:width="0.72,0.5,0.5,0.78,0.25,0.55,0.28,0.5,0.44,0.25,0.55,0.5,0.28,0.39,0.44,0.44,0.39,0.44,0.25,0.55,0.5,0.44,0.5,0.44,0.28,0.5,0.5,0.44,0.5,0.25,0.25,0.55,0.61,0.28,0.78,0.28,0.28,0.44,0.28,0.28,0.5,0.5,0.39,0.25,0.55,0.5,0.33,0.25,0.55,0.28,0.5,0.44,0.28,0.25,0.55,0.39,0.28,0.5,0.5,0.5" style="fill:rgb(23,22,21);font-family:TimesNewRoman;font-size:10.0px;stroke:none;">whom the disease developed. Limitations of that study</text>
   <text y="348.434" x="305.7,312.92,317.36,320.69,325.13,327.747,330.527,335.527,339.967,342.584,346.474,354.254,358.694,361.474,364.254,366.871,371.871,376.871,384.651,389.651,394.091,397.421,400.038,405.038,408.368,410.985,415.425,419.865,423.755,428.195,432.085,434.702,439.142,444.142,449.142,451.759,456.759,461.759,464.539,468.979,473.979,476.759,479.539,483.979,486.759,489.376,493.816,498.816,503.816,507.146,512.146,517.146,522.146,527.146,529.926,534.926" svgx:width="0.72,0.44,0.33,0.44,0.25,0.28,0.5,0.44,0.25,0.39,0.78,0.44,0.28,0.28,0.25,0.5,0.5,0.78,0.5,0.44,0.33,0.25,0.5,0.33,0.25,0.44,0.44,0.39,0.44,0.39,0.25,0.44,0.5,0.5,0.25,0.5,0.5,0.28,0.44,0.5,0.28,0.28,0.44,0.28,0.25,0.44,0.5,0.5,0.33,0.5,0.5,0.5,0.5,0.28,0.5,0.5" style="fill:rgb(23,22,21);font-family:TimesNewRoman;font-size:10.0px;stroke:none;">were the small number of cases and potential confounding</text>
   <text y="360.434" x="305.7,310.7,315.7,318.256,321.036,326.036,330.476,333.032,338.032,343.032,346.922,350.812,353.592,358.592,361.372,365.812,368.368,373.368,376.148,379.297,382.627,387.067,390.397,394.837,399.837,404.277,408.717,412.607,415.163,417.943,422.943,425.499,428.279,433.279,437.719,440.275,443.055,448.055,450.835,455.275,460.275,464.165,466.945,469.725,474.725,477.281,482.281,485.611,488.167,492.607,497.047,500.377,504.817,507.373,512.373,515.153,520.153,524.593,529.593,532.149,534.929" svgx:width="0.5,0.5,0.25,0.28,0.5,0.44,0.25,0.5,0.5,0.39,0.39,0.28,0.5,0.28,0.44,0.25,0.5,0.28,0.33,0.33,0.44,0.33,0.44,0.5,0.44,0.44,0.39,0.25,0.28,0.5,0.25,0.28,0.5,0.44,0.25,0.28,0.5,0.28,0.44,0.5,0.39,0.28,0.28,0.5,0.25,0.5,0.33,0.25,0.44,0.44,0.33,0.44,0.25,0.5,0.28,0.5,0.44,0.5,0.25,0.28,0.5" style="fill:rgb(23,22,21);font-family:TimesNewRoman;font-size:10.0px;stroke:none;">by the possible differences in the intensity of care given to</text>
   <text y="372.434" x="305.7,308.48,313.48,317.92,320.67,326.23,333.45,340.12,345.68,348.43,353.43,357.87,360.65,363.43,367.87,372.87,375.65,379.54,382.29,387.29,391.73,394.51,401.73,406.17,410.61,415.61,418.36,421.14,426.14,430.58,433.33,437.77,442.21,446.1,450.54,453.29,457.73,462.73,467.73,470.48,474.92,479.92,484.92,487.7,491.03,496.03,498.81,501.56,506.56,509.89,514.89,519.89,524.89,528.78,531.28" svgx:width="0.28,0.5,0.44,0.25,0.56,0.72,0.67,0.56,0.25,0.5,0.44,0.28,0.28,0.44,0.5,0.28,0.39,0.25,0.5,0.44,0.28,0.72,0.44,0.44,0.5,0.25,0.28,0.5,0.44,0.25,0.44,0.44,0.39,0.44,0.25,0.44,0.5,0.5,0.25,0.44,0.5,0.5,0.28,0.33,0.5,0.28,0.25,0.5,0.33,0.5,0.5,0.5,0.39,0.25,0.25" style="fill:rgb(23,22,21);font-family:TimesNewRoman;font-size:10.0px;stroke:none;">the SARS patients between the case and control groups. </text>
   <text y="384.434" x="318.444,325.114,328.444,332.884,337.324,342.324,345.104,350.104,353.434,358.434,363.434,368.434,373.434,375.934,379.224,382.004,385.334,389.774,394.774,398.664,406.444,409.224,413.114,417.004,419.784,424.784,429.784,432.284,435.574,440.014,445.014,450.014,452.794,455.574,460.574,465.574,470.014,473.904,476.404,479.694,484.694,489.134,493.024,498.024,500.804,503.584,508.024,510.524,513.814,516.594,524.374,529.374,532.154,536.594" svgx:width="0.67,0.33,0.44,0.44,0.5,0.28,0.5,0.33,0.5,0.5,0.5,0.5,0.25,0.55,0.28,0.33,0.44,0.5,0.39,0.78,0.28,0.39,0.39,0.28,0.5,0.5,0.25,0.55,0.44,0.5,0.5,0.28,0.28,0.5,0.5,0.44,0.39,0.25,0.55,0.5,0.44,0.39,0.5,0.28,0.28,0.44,0.25,0.55,0.28,0.78,0.5,0.28,0.44,0.33" style="fill:rgb(23,22,21);font-family:TimesNewRoman;font-size:10.0px;stroke:none;">Breakthrough transmission continues despite imple-</text>
   <text y="396.434" x="305.7,313.48,317.92,322.92,325.7,328.48,333.48,338.48,341.254,345.144,347.924,351.254,354.034,358.474,361.254,364.028,366.808,371.808,375.138,379.578,384.018,386.798,389.578,394.578,399.578,402.352,406.792,411.792,416.792,419.572,422.902,427.902,430.682,433.456,441.236,445.676,450.116,454.006,459.006,462.336,466.776,470.666,473.166,475.759,484.398,488.838,491.612,494.392,499.392,504.392,508.832,512.722,515.502,518.282,523.282,527.722,530.502,534.942" svgx:width="0.78,0.44,0.5,0.28,0.28,0.5,0.5,0.25,0.39,0.28,0.33,0.28,0.44,0.28,0.25,0.28,0.5,0.33,0.44,0.44,0.28,0.28,0.5,0.5,0.25,0.44,0.5,0.5,0.28,0.33,0.5,0.28,0.25,0.78,0.44,0.44,0.39,0.5,0.33,0.44,0.39,0.25,0.25,0.94,0.44,0.25,0.28,0.5,0.5,0.44,0.39,0.28,0.28,0.5,0.44,0.28,0.44,0.5" style="fill:rgb(23,22,21);font-family:TimesNewRoman;font-size:10.0px;stroke:none;">menting strict infection control measures. We investigated</text>
   <text y="408.434" x="305.7,308.48,313.48,317.92,320.42,321.87,325.2,329.64,334.08,336.86,341.86,345.19,349.08,351.58,353.03,357.47,361.36,365.25,370.25,374.69,377.47,381.91,384.69,389.13,394.13,396.63,398.08,405.3,408.08,410.86,415.86,418.36,419.81,424.81,428.14,432.58,437.02,442.02,444.8,449.8,453.13,458.13,463.13,468.13,473.13,475.63,477.08,479.86,483.19,487.63,492.63,496.52,504.3,507.08,510.97,514.86,517.64,522.64,527.64,530.14,531.59,536.59" svgx:width="0.28,0.5,0.44,0.25,0.55,0.33,0.44,0.44,0.28,0.5,0.33,0.39,0.25,0.55,0.44,0.39,0.39,0.5,0.44,0.28,0.44,0.28,0.44,0.5,0.25,0.55,0.72,0.28,0.28,0.5,0.25,0.55,0.5,0.33,0.44,0.44,0.5,0.28,0.5,0.33,0.5,0.5,0.5,0.5,0.25,0.55,0.28,0.33,0.44,0.5,0.39,0.78,0.28,0.39,0.39,0.28,0.5,0.5,0.25,0.55,0.5,0.33" style="fill:rgb(23,22,21);font-family:TimesNewRoman;font-size:10.0px;stroke:none;">the factors associated with breakthrough transmission of</text>
   <text y="420.434" x="305.7,308.48,313.48,317.92,320.532,326.092,333.312,339.982,345.542,348.154,353.154,355.934,359.264,364.264,368.154,370.766,375.206,382.986,387.986,392.986,397.986,400.598,405.598,410.598,414.488,419.488,422.268,425.048,429.488,432.268,434.88,442.1,447.1,450.43,455.43,459.87,463.2,467.09,469.702,472.482,477.482,480.812,485.252,489.692,492.472,496.912,501.912,504.524,507.304,512.304,514.916,519.916,524.916,528.806,533.806,536.586" svgx:width="0.28,0.5,0.44,0.25,0.56,0.72,0.67,0.56,0.25,0.5,0.28,0.33,0.5,0.39,0.25,0.44,0.78,0.5,0.5,0.5,0.25,0.5,0.5,0.39,0.5,0.28,0.28,0.44,0.28,0.25,0.72,0.5,0.33,0.5,0.44,0.33,0.39,0.25,0.28,0.5,0.33,0.44,0.44,0.28,0.44,0.5,0.25,0.28,0.5,0.25,0.5,0.5,0.39,0.5,0.28,0.33" style="fill:rgb(23,22,21);font-family:TimesNewRoman;font-size:10.0px;stroke:none;">the SARS virus among hospital workers infected in hospi-</text>
   <text y="432.434" x="305.7,308.48,312.92,315.7,318.45,322.34,326.78,329.56,332.34,335.12,340.12,345.12,349.01,351.51" svgx:width="0.28,0.44,0.28,0.25,0.39,0.44,0.28,0.28,0.28,0.5,0.5,0.39,0.25,0.25" style="fill:rgb(23,22,21);font-family:TimesNewRoman;font-size:10.0px;stroke:none;">tal settings. </text>
   <text y="456.458" x="305.7,314.03,319.59,322.92,328.48,332.37,335.15,340.71,343.49,349.05,352.108,357.668,363.778,369.888,372.946,381.276,386.836,390.166,396.276,402.386,408.496" svgx:width="0.83,0.56,0.33,0.56,0.39,0.28,0.56,0.28,0.56,0.28,0.56,0.61,0.61,0.28,0.83,0.56,0.33,0.61,0.61,0.61,0.56" style="fill:rgb(23,22,21);font-family:Arial,Bold;font-size:10.0px;stroke:none;">Materials and Methods</text>
   <text y="480.482" x="305.7,311.549,314.546,320.045,325.544,330.548,333.3,339.798,344.802,349.806,352.308,357.807" svgx:width="0.67,0.33,0.61,0.61,0.56,0.28,0.72,0.56,0.56,0.28,0.61,0.61" style="fill:rgb(23,22,21);font-family:Arial,Bold;font-size:9.0px;stroke:none;">Study Design</text>
   <text y="492.482" x="318.444,325.644,328.451,333.501,336.331,341.381,343.881,344.67,352.5,356.99,359.82,364.31,369.36,373.85,378.9,381.4,382.189,386.679,391.169,395.109,399.599,402.979,407.469,412.519,417.569,420.399,423.779,428.829,431.659,434.159,434.948,439.998,444.488,448.428,451.258,456.308,461.358,463.858,464.647,471.917,476.407,480.347,482.847,483.636,488.686,492.626,497.116,502.166,504.716,507.452,514.722,517.552,520.382,522.882,523.671,528.721,533.211,536.591" svgx:width="0.72,0.55,0.5,0.28,0.5,0.25,0.55,0.78,0.44,0.28,0.44,0.5,0.44,0.5,0.25,0.55,0.44,0.44,0.39,0.44,0.33,0.44,0.5,0.5,0.28,0.33,0.5,0.28,0.25,0.55,0.5,0.44,0.39,0.28,0.5,0.5,0.25,0.55,0.72,0.44,0.39,0.25,0.55,0.5,0.39,0.44,0.5,0.25,0.25,0.72,0.28,0.28,0.25,0.55,0.5,0.44,0.33,0.33" style="fill:rgb(23,22,21);font-family:TimesNewRoman;font-size:10.0px;stroke:none;">A 1:2 matched case-control design was used. All par-</text>
   <text y="504.482" x="305.7,308.53,311.36,315.85,318.68,323.73,328.22,333.27,336.1,340.04,342.54,344.251,351.521,356.011,359.391,363.881,366.381,368.092,375.362,380.412,383.792,388.842,391.672,396.722,401.772,404.272,405.983,408.813,413.863,416.363,418.074,425.344,429.834,433.214,438.264,442.204,444.704,446.415,453.685,456.515,459.345,464.395,466.895,468.606,474.216,481.486,488.206,493.816,496.316,498.027,500.857,505.907,510.957,515.447,518.277,521.107,525.597,530.647,533.477,537.417" svgx:width="0.28,0.28,0.44,0.28,0.5,0.44,0.5,0.28,0.39,0.25,0.55,0.72,0.44,0.33,0.44,0.25,0.55,0.72,0.5,0.33,0.5,0.28,0.5,0.5,0.25,0.55,0.28,0.5,0.25,0.55,0.72,0.44,0.33,0.5,0.39,0.25,0.55,0.72,0.28,0.28,0.5,0.25,0.55,0.56,0.72,0.67,0.56,0.25,0.55,0.28,0.5,0.5,0.44,0.28,0.28,0.44,0.5,0.28,0.39,0.25" style="fill:rgb(23,22,21);font-family:TimesNewRoman;font-size:10.0px;stroke:none;">ticipants were working in wards with SARS inpatients,</text>
   <text y="516.482" x="305.7,309.64,314.69,322.52,327.01,329.255,334.305,337.685,339.93,347.2,352.25,355.08,359.57,364.62,366.865,371.355,374.185,378.125,383.175,385.42,388.25,393.3,397.79,400.62,405.67,410.72,415.21,420.26,422.505,427.555,432.605,437.655,441.035,446.645,453.915,460.635,466.245,468.49,473.54,478.03,480.86,483.69,488.18,493.23,496.06,500.0,502.55,504.613,510.773,515.823,520.313,522.558,527.048,531.538,535.478" svgx:width="0.39,0.5,0.78,0.44,0.25,0.5,0.33,0.25,0.72,0.5,0.28,0.44,0.5,0.25,0.44,0.28,0.39,0.5,0.25,0.28,0.5,0.44,0.28,0.5,0.5,0.44,0.5,0.25,0.5,0.5,0.5,0.33,0.56,0.72,0.67,0.56,0.25,0.5,0.44,0.28,0.28,0.44,0.5,0.28,0.39,0.25,0.25,0.61,0.5,0.44,0.25,0.44,0.44,0.39,0.44" style="fill:rgb(23,22,21);font-family:TimesNewRoman;font-size:10.0px;stroke:none;">some of which also included non-SARS patients. The case</text>
   <text y="528.482" x="305.7,310.75,314.13,319.18,324.23,329.28,331.78,333.339,336.169,341.219,345.709,348.539,353.589,358.639,363.129,368.179,370.679,372.238,376.728,379.558,382.388,384.888,386.447,389.277,394.327,397.707,402.197,406.687,409.517,414.007,419.057,421.557,423.116,428.166,433.216,437.156,442.206,445.036,447.866,452.356,455.186,457.686,459.245,466.515,471.565,474.945,479.995,484.485,487.865,491.805,494.305,495.864,498.694,503.744,506.244,507.803,510.633,515.683,520.173,522.673,524.232,527.612,530.442,535.492" svgx:width="0.5,0.33,0.5,0.5,0.5,0.25,0.55,0.28,0.5,0.44,0.28,0.5,0.5,0.44,0.5,0.25,0.55,0.44,0.28,0.28,0.25,0.55,0.28,0.5,0.33,0.44,0.44,0.28,0.44,0.5,0.25,0.55,0.5,0.5,0.39,0.5,0.28,0.28,0.44,0.28,0.25,0.55,0.72,0.5,0.33,0.5,0.44,0.33,0.39,0.25,0.55,0.28,0.5,0.25,0.55,0.28,0.5,0.44,0.25,0.55,0.33,0.28,0.5,0.44" style="fill:rgb(23,22,21);font-family:TimesNewRoman;font-size:10.0px;stroke:none;">group included all infected hospital workers in the five</text>
   <text y="540.482" x="305.7,310.771,315.842,319.803,324.874,327.725,330.576,335.087,337.938,341.899,344.399,348.199,353.27,356.671,359.171,362.971,365.822,370.893,375.404,377.904,381.704,388.995,393.506,400.797,403.297,406.916,412.399,416.91,420.311,423.712,426.563,429.414,434.485,437.886,440.737,445.248,449.209,451.709,455.509,461.69,466.201,470.162,473.013,475.513,479.313,483.824,486.675,491.746,495.707,498.558,503.069,506.47,508.97,512.77,517.841,521.242,523.742,527.542,530.393,535.464" svgx:width="0.5,0.5,0.39,0.5,0.28,0.28,0.44,0.28,0.39,0.25,0.55,0.5,0.33,0.25,0.55,0.28,0.5,0.44,0.25,0.55,0.72,0.44,0.72,0.25,0.55,0.61,0.44,0.33,0.33,0.28,0.28,0.5,0.33,0.28,0.44,0.39,0.25,0.55,0.61,0.44,0.39,0.28,0.25,0.55,0.44,0.28,0.5,0.39,0.28,0.44,0.33,0.25,0.55,0.5,0.33,0.25,0.55,0.28,0.5,0.44" style="fill:rgb(23,22,21);font-family:TimesNewRoman;font-size:10.0px;stroke:none;">hospitals of the New Territories East cluster of the</text>
   <text y="552.482" x="305.7,312.97,318.02,321.96,327.01,329.84,332.67,337.16,339.99,342.326,349.596,354.646,357.476,362.526,367.576,370.956,373.786,376.616,381.666,384.554,387.384,392.434,395.322,402.592,407.642,412.692,417.742,420.63,427.9,432.95,438.0,443.05,445.938,453.208,458.258,463.308,466.196,473.466,477.956,481.336,485.826,488.714,492.094,496.584,501.634,504.464,508.404,511.234,515.724,519.104,523.594,528.644,531.532,536.022" svgx:width="0.72,0.5,0.39,0.5,0.28,0.28,0.44,0.28,0.25,0.72,0.5,0.28,0.5,0.5,0.33,0.28,0.28,0.5,0.25,0.28,0.5,0.25,0.72,0.5,0.5,0.5,0.25,0.72,0.5,0.5,0.5,0.25,0.72,0.5,0.5,0.25,0.72,0.44,0.33,0.44,0.25,0.33,0.44,0.5,0.28,0.39,0.28,0.44,0.33,0.44,0.5,0.25,0.44,0.39" style="fill:rgb(23,22,21);font-family:TimesNewRoman;font-size:10.0px;stroke:none;">Hospital Authority in Hong Kong who were registered as</text>
   <text y="564.482" x="305.7,311.31,318.58,325.3,330.91,333.41,334.58,339.07,343.56,347.5,351.99,355.93,358.43,359.6,364.65,369.7,372.2,373.37,376.2,381.25,385.74,388.24,389.41,396.68,401.17,406.22,410.71,414.09,416.92,424.75,429.24,434.29,437.12,439.62,440.79,445.84,449.22,451.72,452.89,460.16,464.65,469.14,471.97,474.8,479.85,482.677,486.617,489.117,490.287,494.777,500.387,507.657,514.377,519.987,522.487,523.657,527.037,531.527,536.577" svgx:width="0.56,0.72,0.67,0.56,0.25,0.55,0.44,0.44,0.39,0.44,0.39,0.25,0.55,0.5,0.5,0.25,0.55,0.28,0.5,0.44,0.25,0.55,0.72,0.44,0.5,0.44,0.33,0.28,0.78,0.44,0.5,0.28,0.25,0.55,0.5,0.33,0.25,0.55,0.72,0.44,0.44,0.28,0.28,0.5,0.33,0.39,0.25,0.55,0.44,0.56,0.72,0.67,0.56,0.25,0.55,0.33,0.44,0.5,0.33" style="fill:rgb(23,22,21);font-family:TimesNewRoman;font-size:10.0px;stroke:none;">SARS cases by the Department of Healths eSARS reg-</text>
   <text y="576.482" x="305.7,308.53,312.47,315.3,318.68,323.73,326.266,330.756,335.806,340.856,343.392,350.662,355.152,358.532,363.022,365.558,370.608,375.658,379.598,384.648,387.478,390.308,394.798,397.628,400.458,404.948,409.438,414.488,417.024,422.074,427.124,430.504,433.334,438.384,443.434,445.97,454.91,459.4,462.78,467.27,472.32,474.856,479.906,484.956,487.492,490.322,495.372,498.752,503.802,508.852,513.902,518.952,521.488,530.428,534.918" svgx:width="0.28,0.39,0.28,0.33,0.5,0.25,0.44,0.5,0.5,0.25,0.72,0.44,0.33,0.44,0.25,0.5,0.5,0.39,0.5,0.28,0.28,0.44,0.28,0.28,0.44,0.44,0.5,0.25,0.5,0.5,0.33,0.28,0.5,0.5,0.25,0.89,0.44,0.33,0.44,0.5,0.25,0.5,0.5,0.25,0.28,0.5,0.33,0.5,0.5,0.5,0.5,0.25,0.89,0.44,0.5" style="fill:rgb(23,22,21);font-family:TimesNewRoman;font-size:10.0px;stroke:none;">istry and were hospitalized during March 28 through May</text>
   <text y="588.482" x="305.7,310.75,315.8,318.35,321.15,326.2,331.25,336.3,341.35,343.9" svgx:width="0.5,0.5,0.25,0.25,0.5,0.5,0.5,0.5,0.25,0.25" style="fill:rgb(23,22,21);font-family:TimesNewRoman;font-size:10.0px;stroke:none;">25, 2003. </text>
   <text y="600.482" x="318.444,324.591,329.628,334.105,336.874,342.471,349.728,356.435,362.032,364.801,369.278,373.755,377.682,382.159,384.928,389.965,394.442,397.809,400.626,405.663,408.48,411.297,414.114,419.151,424.188,426.957,431.434,434.801,437.618,440.435,444.912,448.279,451.096,455.573,458.342,463.379,467.306,471.783,476.82,479.589,484.626,489.663,492.432,499.689,504.726,509.763,514.8,517.569,524.826,529.863,534.9" svgx:width="0.61,0.5,0.44,0.25,0.56,0.72,0.67,0.56,0.25,0.44,0.44,0.39,0.44,0.25,0.5,0.44,0.33,0.28,0.5,0.28,0.28,0.28,0.5,0.5,0.25,0.44,0.33,0.28,0.28,0.44,0.33,0.28,0.44,0.25,0.5,0.39,0.44,0.5,0.25,0.5,0.5,0.25,0.72,0.5,0.5,0.5,0.25,0.72,0.5,0.5,0.5" style="fill:rgb(23,22,21);font-family:TimesNewRoman;font-size:10.0px;stroke:none;">The SARS case definition criteria used by Hong Kong</text>
   <text y="612.482" x="305.7,312.958,317.996,321.924,326.962,329.78,332.598,337.076,339.894,341.904,349.162,354.2,357.018,362.056,367.094,370.462,373.28,376.098,381.136,383.698,386.516,390.444,393.006,397.484,401.412,403.974,407.342,412.38,415.198,418.016,423.054,430.312,434.24,437.058,439.62,442.988,447.466,452.504,455.322,460.36,465.398,468.766,473.244,478.282,483.32,486.138,490.616,493.178,497.656,502.694,505.512,510.55,515.028,520.066,524.544,529.022,531.584,536.622" svgx:width="0.72,0.5,0.39,0.5,0.28,0.28,0.44,0.28,0.25,0.72,0.5,0.28,0.5,0.5,0.33,0.28,0.28,0.5,0.25,0.28,0.39,0.25,0.44,0.39,0.25,0.33,0.5,0.28,0.28,0.5,0.72,0.39,0.28,0.25,0.33,0.44,0.5,0.28,0.5,0.5,0.33,0.44,0.5,0.5,0.28,0.44,0.25,0.44,0.5,0.28,0.5,0.44,0.5,0.44,0.44,0.25,0.5,0.33" style="fill:rgb(23,22,21);font-family:TimesNewRoman;font-size:10.0px;stroke:none;">Hospital Authority is as follows: radiographic evidence of</text>
   <text y="624.482" x="305.7,308.517,313.554,316.921,319.738,322.555,325.372,328.739,333.216,336.033,340.51,344.437,346.937,348.778,353.255,358.292,363.329,367.256,370.073,374.0,376.817,381.294,386.331,389.148,391.648,393.489,400.746,403.563,406.38,411.417,413.917,415.758,420.795,425.832,430.309,435.346,443.163,448.2,453.237,456.054,460.531,463.068,465.568,467.409,471.886,476.923,481.96,484.46,486.301,490.778,495.815,499.182,502.549,507.026,512.063,514.88,517.38,519.221,522.588,527.065,532.102,536.579" svgx:width="0.28,0.5,0.33,0.28,0.28,0.28,0.33,0.44,0.28,0.44,0.39,0.25,0.55,0.44,0.5,0.5,0.39,0.28,0.39,0.28,0.44,0.5,0.28,0.25,0.55,0.72,0.28,0.28,0.5,0.25,0.55,0.5,0.5,0.44,0.5,0.78,0.5,0.5,0.28,0.44,0.25,0.25,0.55,0.44,0.5,0.5,0.25,0.55,0.44,0.5,0.33,0.33,0.44,0.5,0.28,0.25,0.55,0.33,0.44,0.5,0.44,0.33" style="fill:rgb(23,22,21);font-family:TimesNewRoman;font-size:10.0px;stroke:none;">infiltrates consistent with pneumonia, and current fever</text>
   <text y="636.482" x="305.7,311.377,316.414,321.451,325.488,332.195,334.695,335.852,340.889,344.256,346.756,347.913,352.39,354.89,356.047,361.084,363.901,367.828,370.645,375.682,379.049,384.086,386.586,387.743,392.78,396.147,398.647,399.804,403.731,408.768,413.245,418.282,420.782,421.939,426.416,429.233,431.733,432.89,437.367,442.404,447.441,449.941,451.098,453.915,456.732,464.549,469.026,471.526,472.683,475.5,480.537,483.037,484.194,487.011,492.048,496.525,499.025,500.182,505.219,508.586,513.063,517.54,522.017,527.054,529.871,534.908" svgx:width="0.56,0.5,0.5,0.4,0.67,0.25,0.55,0.5,0.33,0.25,0.55,0.44,0.25,0.55,0.5,0.28,0.39,0.28,0.5,0.33,0.5,0.25,0.55,0.5,0.33,0.25,0.55,0.39,0.5,0.44,0.5,0.25,0.55,0.44,0.28,0.25,0.55,0.44,0.5,0.5,0.25,0.55,0.28,0.28,0.78,0.44,0.25,0.55,0.28,0.5,0.25,0.55,0.28,0.5,0.44,0.25,0.55,0.5,0.33,0.44,0.44,0.44,0.5,0.28,0.5,0.5" style="fill:rgb(23,22,21);font-family:TimesNewRoman;font-size:10.0px;stroke:none;">&gt;38C or a history of such at any time in the preceding</text>
   <text y="648.482" x="305.7,310.737,313.61,318.647,323.124,328.161,332.088,334.625,337.498,341.975,347.012,352.049,354.922,359.399,362.216,365.089,367.906,372.383,376.86,380.787,383.604,386.477,389.294,396.551,401.588,404.461,409.498,412.865,415.738,418.555,423.592,428.069,430.942,434.309,439.346,442.163,444.98,450.017,457.274,460.091,465.128,470.165,472.982,475.855,480.892,483.708,487.635,490.452,495.489,498.856,503.893,506.766,511.803,515.17,518.043,522.52,527.557,530.374,533.191,536.008" svgx:width="0.5,0.25,0.5,0.44,0.5,0.39,0.25,0.25,0.44,0.5,0.5,0.25,0.44,0.28,0.25,0.28,0.44,0.44,0.39,0.28,0.25,0.28,0.72,0.5,0.25,0.5,0.33,0.25,0.28,0.5,0.44,0.25,0.33,0.5,0.28,0.28,0.5,0.72,0.28,0.5,0.5,0.28,0.25,0.5,0.28,0.39,0.28,0.5,0.33,0.5,0.25,0.5,0.33,0.25,0.44,0.5,0.28,0.28,0.28,0.39" style="fill:rgb(23,22,21);font-family:TimesNewRoman;font-size:10.0px;stroke:none;">2 days, and at least two of the following: history of chills</text>
   <text y="660.482" x="305.7,308.517,313.554,316.054,317.288,320.105,325.142,329.619,332.119,333.353,338.39,342.867,346.794,349.611,352.111,353.345,358.382,360.882,362.116,367.153,371.63,376.667,380.594,383.131,385.631,386.865,391.902,396.379,403.636,406.136,407.37,412.407,415.774,418.274,419.508,422.325,427.362,431.839,435.206,439.683,444.16,448.087,452.564,457.601,460.101,461.335,465.812,470.849,475.886,480.923,485.96,488.46,489.694,494.731,498.098,500.598,501.832,506.869,510.236,514.713,519.19,522.007,527.044,529.861,534.898" svgx:width="0.28,0.5,0.25,0.55,0.28,0.5,0.44,0.25,0.55,0.5,0.44,0.39,0.28,0.25,0.55,0.5,0.25,0.55,0.5,0.44,0.5,0.39,0.25,0.25,0.55,0.5,0.44,0.72,0.25,0.55,0.5,0.33,0.25,0.55,0.28,0.5,0.44,0.33,0.44,0.44,0.39,0.44,0.5,0.25,0.55,0.44,0.5,0.5,0.5,0.5,0.25,0.55,0.5,0.33,0.25,0.55,0.5,0.33,0.44,0.44,0.28,0.5,0.28,0.5,0.5" style="fill:rgb(23,22,21);font-family:TimesNewRoman;font-size:10.0px;stroke:none;">in the past 2 days, new or increased cough or breathing</text>
   <text y="672.482" x="305.7,310.737,313.554,316.741,320.108,322.925,327.402,332.439,335.256,338.073,342.461,344.998,347.498,349.914,354.951,359.428,364.465,368.942,372.309,376.786,379.603,382.103,384.519,392.336,396.813,399.63,404.107,406.924,410.851,415.328,417.828,420.244,425.281,428.648,431.148,433.564,441.381,446.418,450.895,453.712,458.749,461.566,466.043,468.58,471.08,473.496,476.313,481.35,486.387,489.204,493.681,498.158,500.975,503.475,505.891,509.818,512.635,517.672,522.708,526.635,529.135,531.552,536.589" svgx:width="0.5,0.28,0.33,0.33,0.28,0.44,0.5,0.28,0.28,0.5,0.25,0.25,0.55,0.5,0.44,0.5,0.44,0.33,0.44,0.28,0.25,0.55,0.78,0.44,0.28,0.44,0.28,0.39,0.44,0.25,0.55,0.5,0.33,0.25,0.55,0.78,0.5,0.44,0.28,0.5,0.28,0.44,0.25,0.25,0.55,0.28,0.5,0.5,0.28,0.44,0.44,0.28,0.25,0.55,0.39,0.28,0.5,0.5,0.39,0.25,0.55,0.5,0.33" style="fill:rgb(23,22,21);font-family:TimesNewRoman;font-size:10.0px;stroke:none;">difficulty, general malaise or myalgia, typical signs of</text>
   <text y="684.482" x="305.7,310.178,315.216,320.254,324.182,329.22,332.038,334.856,339.894,344.372,347.19,350.008,355.046,360.084,362.622,365.122,368.909,373.947,377.315,379.815,383.602,388.64,393.678,398.716,405.974,411.012,413.512,417.299,421.777,426.815,431.853,436.891,440.819,445.857,449.225,453.703,456.241,458.741,462.35,468.498,473.536,478.014,481.942,486.42,488.92,492.707,497.185,500.553,503.371,506.189,510.667,514.035,516.853,521.331,523.831,527.618,532.096,535.464" svgx:width="0.44,0.5,0.5,0.39,0.5,0.28,0.28,0.5,0.44,0.28,0.28,0.5,0.5,0.25,0.25,0.55,0.5,0.33,0.25,0.55,0.5,0.5,0.5,0.72,0.5,0.25,0.55,0.44,0.5,0.5,0.5,0.39,0.5,0.33,0.44,0.25,0.25,0.55,0.61,0.5,0.44,0.39,0.44,0.25,0.55,0.44,0.33,0.28,0.28,0.44,0.33,0.28,0.44,0.25,0.55,0.44,0.33,0.44" style="fill:rgb(23,22,21);font-family:TimesNewRoman;font-size:10.0px;stroke:none;">consolidation, or known exposure. These criteria are</text>
   <text y="696.482" x="305.7,310.177,315.214,320.251,323.068,328.105,332.582,335.399,339.876,344.913,347.73,350.23,357.487,360.304,363.121,368.158,370.658,373.475,378.512,382.989,385.308,393.985,399.022,402.389,405.206,410.243,412.743,420.0,424.477,428.954,431.771,434.588,439.625,442.125,449.382,452.568,457.605,462.082,467.119,469.936,474.413,478.89,481.707,484.524,489.561,494.598,497.413,501.34,503.84,508.317,512.794,516.721,521.198,523.698,528.735,533.212,536.579" svgx:width="0.44,0.5,0.5,0.28,0.5,0.44,0.28,0.44,0.5,0.28,0.25,0.72,0.28,0.28,0.5,0.25,0.28,0.5,0.44,0.25,0.94,0.5,0.33,0.28,0.5,0.25,0.72,0.44,0.44,0.28,0.28,0.5,0.25,0.72,0.33,0.5,0.44,0.5,0.28,0.44,0.44,0.28,0.28,0.5,0.5,0.33,0.39,0.25,0.44,0.44,0.39,0.44,0.25,0.5,0.44,0.33,0.33" style="fill:rgb(23,22,21);font-family:TimesNewRoman;font-size:10.0px;stroke:none;">equivalent with the World Health Organizations case def-</text>
   <text y="708.482" x="305.7,308.517,313.554,316.371,319.188,322.005,327.042,332.079,334.579,336.857,340.224,345.261,348.628,351.128,353.406,358.443,361.81,366.847,371.884,376.361,381.398,384.215,388.692,391.192,393.47,399.067,406.324,413.031,418.628,421.165,423.665,425.943,431.54,436.577,440.504,445.541,450.018,454.495,457.312,461.789,466.826,469.326,471.604,477.201,484.458,491.165,496.762,499.262,501.54,506.017,510.494,514.421,518.898,522.825,525.325,527.603,532.08,535.447" svgx:width="0.28,0.5,0.28,0.28,0.28,0.5,0.5,0.25,0.55,0.33,0.5,0.33,0.25,0.55,0.5,0.33,0.5,0.5,0.44,0.5,0.28,0.44,0.25,0.55,0.56,0.72,0.67,0.56,0.25,0.25,0.55,0.56,0.5,0.39,0.5,0.44,0.44,0.28,0.44,0.5,0.25,0.55,0.56,0.72,0.67,0.56,0.25,0.55,0.44,0.44,0.39,0.44,0.39,0.25,0.55,0.44,0.33,0.44" style="fill:rgb(23,22,21);font-family:TimesNewRoman;font-size:10.0px;stroke:none;">inition for probable SARS. Suspected SARS cases are</text>
   <text y="720.482" x="305.7,308.517,313.554,318.591,322.518,326.995,329.495,330.913,333.73,338.767,343.244,346.061,348.561,349.979,355.016,360.053,362.553,363.971,369.008,374.045,376.862,379.362,380.78,385.257,390.294,398.111,403.148,405.965,410.442,413.259,417.736,420.553,425.59,428.09,429.508,432.875,437.912,440.729,444.096,446.913,449.73,452.547,455.047,456.465,459.282,464.319,468.796,471.296,472.714,477.191,482.228,487.265,492.302,496.779,499.279,500.697,505.734,510.211,513.578,516.395,521.432,524.249,527.066,529.883,534.92" svgx:width="0.28,0.5,0.5,0.39,0.44,0.25,0.55,0.28,0.5,0.44,0.28,0.25,0.55,0.5,0.5,0.25,0.55,0.5,0.5,0.28,0.25,0.55,0.44,0.5,0.78,0.5,0.28,0.44,0.28,0.44,0.28,0.5,0.25,0.55,0.33,0.5,0.28,0.33,0.28,0.28,0.28,0.25,0.55,0.28,0.5,0.44,0.25,0.55,0.44,0.5,0.5,0.5,0.44,0.25,0.55,0.5,0.44,0.33,0.28,0.5,0.28,0.28,0.28,0.5,0.5" style="fill:rgb(23,22,21);font-family:TimesNewRoman;font-size:10.0px;stroke:none;">those that do not completely fulfill the above definition</text>
  </g>
  <g begin="text">
   <text y="108.18" x="64.142,81.47,100.142,118.814,136.142,144.933,161.229,172.296,188.303,204.311,218.975,242.975,250.967,265.632,280.296,288.288,304.296,320.303,329.095,345.103,369.103,385.111,401.119,417.127,425.918,445.91,461.918,476.582,492.59,500.582,511.238,527.246" svgx:width="0.72,0.78,0.78,0.72,0.33,0.72,0.44,0.67,0.67,0.61,1.0,0.33,0.61,0.61,0.33,0.67,0.67,0.33,0.67,1.0,0.67,0.67,0.67,0.33,0.83,0.67,0.61,0.67,0.33,0.44,0.67,0.33" style="fill:rgb(23,22,21);font-family:ArialBlack;font-size:24.0px;stroke:none;">SARS Transmission among Hospital</text>
   <text y="132.18" x="152.918,176.296,192.304,203.757,218.944,234.952,246.206,260.87,269.661,277.653,293.661,302.452,322.444,338.452,354.46,370.468,379.259,398.431,414.439,430.447,446.455" svgx:width="1.0,0.67,0.44,0.67,0.67,0.44,0.61,0.33,0.33,0.67,0.33,0.83,0.67,0.67,0.67,0.33,0.83,0.67,0.67,0.67,0.33" style="fill:rgb(23,22,21);font-family:ArialBlack;font-size:24.0px;stroke:none;">Workers in Hong Kong </text>
   <text y="154.188" x="81.017,86.577,92.687,98.247,103.807,109.917,116.027,119.085,124.087,126.867,131.869,134.649,137.707,143.817,149.377,155.487,158.267,162.157,165.215,172.435,175.215,178.545,181.875,187.435,190.493,197.163,199.943,203.001,209.111,215.221,221.331,227.441,230.221,234.111,237.169,243.279,248.279,253.839,256.897,265.966,271.526,274.306,277.364,286.623,292.733,298.843,304.953,307.733,311.623,314.681,320.241,325.801,331.361,337.471,340.529,347.749,350.529,353.587,360.807,363.587,372.477,375.257,379.147,382.205,388.875,392.765,395.545,401.105,404.163,413.423,419.533,425.643,431.753,434.533,438.423,441.481,448.151,453.711,459.821,465.931,471.491,477.051,480.109,487.329,493.439,499.549,505.659,511.769,514.549" svgx:width="0.56,0.61,0.56,0.56,0.61,0.61,0.28,0.61,0.28,0.61,0.28,0.28,0.61,0.56,0.61,0.28,0.39,0.28,0.72,0.28,0.33,0.33,0.56,0.28,0.67,0.28,0.28,0.61,0.61,0.61,0.61,0.28,0.39,0.28,0.61,0.5,0.56,0.28,0.94,0.56,0.28,0.28,0.94,0.61,0.61,0.61,0.28,0.39,0.28,0.56,0.56,0.56,0.61,0.28,0.72,0.28,0.28,0.72,0.28,0.89,0.28,0.39,0.28,0.67,0.39,0.28,0.56,0.28,0.94,0.61,0.61,0.61,0.28,0.39,0.28,0.67,0.56,0.61,0.61,0.56,0.56,0.28,0.72,0.61,0.61,0.61,0.61,0.28,0.39" style="fill:rgb(23,22,21);font-family:Arial,Bold;font-size:10.0px;stroke:none;">Joseph T.F. Lau,* Kitty S. Fung,* Tze Wai Wong,* Jean H. Kim,* Eric Wong,* Sydney Chung,*</text>
   <text y="166.188" x="151.492,158.712,164.272,170.382,176.492,180.382,185.942,192.052,195.11,202.33,208.44,211.22,215.11,218.168,224.278,230.388,236.498,239.278,244.838,247.715,253.277,256.057,259.115,266.335,272.445,278.005,284.115,286.895,290.785,293.843,300.513,303.293,308.295,311.075,314.133,320.243,326.353,329.133,331.913,337.473,340.531,346.091,352.201,358.311,360.998,368.218,374.328,380.438,386.548,392.108,395.438,398.218,404.328,409.888,412.946,420.166,426.276,431.836,437.946,444.056" svgx:width="0.72,0.56,0.61,0.61,0.39,0.56,0.61,0.28,0.72,0.61,0.28,0.39,0.28,0.61,0.61,0.61,0.28,0.56,0.28,0.67,0.28,0.28,0.72,0.61,0.56,0.61,0.28,0.39,0.28,0.67,0.28,0.61,0.28,0.28,0.61,0.61,0.28,0.28,0.56,0.28,0.56,0.61,0.61,0.28,0.72,0.61,0.61,0.61,0.56,0.33,0.28,0.61,0.56,0.28,0.72,0.61,0.56,0.61,0.61,0.39" style="fill:rgb(23,22,21);font-family:Arial,Bold;font-size:10.0px;stroke:none;">Deborah Ho,* Louis Y. Chan,* S.F. Lui, and Augustine Cheng*</text>
  </g>
  <g begin="text">
   <text y="749.324" x="59.5,63.948,68.396,72.876,156.82,162.156,168.82,173.268,175.932,180.38,182.156,186.604,191.052,193.498,195.722,200.17,202.394,206.842,210.842,213.066,214.842,219.29,223.738,227.738,230.185,235.961,237.737,241.737,246.185,250.633,254.633,259.081,263.081,265.527,268.327,270.774,276.55,282.326,287.66,289.884,293.884,298.332,302.332,304.556,309.004,313.452,317.452,319.676,324.124,325.9,330.348,332.794,335.594,338.041,342.935,347.383,349.159,351.383,353.83,358.278,362.726,364.95,367.396,373.172,377.62,379.844,382.29,386.738,388.962,391.409,396.297,400.745,405.193,407.857,412.305,416.753,419.417,423.417,425.863,430.311,434.759,439.207" svgx:width="0.56,0.56,0.56,0.55,0.67,0.83,0.56,0.33,0.56,0.22,0.56,0.56,0.28,0.28,0.56,0.28,0.56,0.5,0.28,0.22,0.56,0.56,0.5,0.28,0.72,0.22,0.5,0.56,0.56,0.5,0.56,0.5,0.28,0.35,0.28,0.72,0.72,0.72,0.28,0.5,0.56,0.5,0.28,0.56,0.56,0.5,0.28,0.56,0.22,0.56,0.28,0.35,0.28,0.67,0.56,0.22,0.28,0.28,0.56,0.56,0.28,0.28,0.72,0.56,0.28,0.28,0.56,0.28,0.28,0.61,0.56,0.56,0.33,0.56,0.56,0.33,0.5,0.28,0.56,0.56,0.56,0.56" style="fill:rgb(23,22,21);font-family:Arial;font-size:8.0px;stroke:none;">280 Emerging Infectious Diseases  www.cdc.gov/eid  Vol. 10, No. 2, February 2004</text>
  </g>
  <path style="fill:none;stroke:rgb(23,22,21);stroke-width:0.5;" d="M58.500 54.250 L540.900 54.250 "/>
  <g begin="text">
   <text y="64.802" x="59.5,65.503,73.0,79.003,85.501,92.503,98.506,105.004,111.502,117.505,120.257,127.259,132.758,135.51,141.513,147.516,154.014" svgx:width="0.67,0.83,0.67,0.72,0.78,0.67,0.72,0.72,0.67,0.28,0.78,0.61,0.28,0.67,0.67,0.72,0.67" style="fill:rgb(23,22,21);font-family:Arial;font-size:9.0px;stroke:none;">EMERGENCE OF SARS</text>
  </g>
  <path style="fill:none;stroke:rgb(23,22,21);stroke-width:0.5;" d="M59.500 692.260 L292.700 692.260 "/>
  <g begin="text">
   <text y="703.074" x="59.5,62.612,68.388,72.836,74.612,79.06,83.508,87.508,91.956,94.198,99.974,104.422,106.198,110.198,114.646,117.31,121.31,123.086,125.31,129.31,131.553,136.001,138.225,140.467,146.243,150.691,155.139,159.587,161.83,167.166,171.614,176.062,180.51,182.734,184.976,189.93,194.378,198.826,202.826,204.602,209.05,210.826,212.626,217.962,222.41,229.074,230.85,235.298,237.074,241.074,243.298,245.962,250.41,252.634,254.41,258.41,262.858,265.101,270.877,275.325,279.773,281.549,285.997,290.445" svgx:width="0.39,0.72,0.56,0.22,0.56,0.56,0.5,0.56,0.28,0.72,0.56,0.22,0.5,0.56,0.33,0.5,0.22,0.28,0.5,0.28,0.56,0.28,0.28,0.72,0.56,0.56,0.56,0.28,0.67,0.56,0.56,0.56,0.28,0.28,0.67,0.56,0.56,0.5,0.22,0.56,0.22,0.28,0.67,0.56,0.83,0.22,0.56,0.22,0.5,0.28,0.33,0.56,0.28,0.22,0.5,0.56,0.28,0.72,0.56,0.56,0.22,0.56,0.56,0.28" style="fill:rgb(23,22,21);font-family:Arial;font-size:8.0px;stroke:none;">*Chinese University of Hong Kong, Special Administrative Region,</text>
   <text y="713.074" x="59.5,64.87,69.353,73.835,78.318,80.128,84.61,86.276,90.31,92.55,95.868,101.678,106.161,110.643,115.126,119.608,121.418,123.229,127.263,129.50300000000001,132.821,137.303,139.562,141.80200000000002,145.119,150.93,155.412,157.222,161.705,166.187,168.42700000000002,171.745,174.443,179.814,185.184,190.994,193.693,195.951,198.191,201.509,205.991,210.474,214.956,217.196,220.514,224.996,230.806,235.289,239.323,243.806,245.616,247.761,252.243,254.054,256.294,259.17,264.541,269.023,271.282,275.764,280.246,282.945,284.755,287.014,290.454" svgx:width="0.67,0.56,0.56,0.56,0.22,0.56,0.22,0.5,0.28,0.55,0.72,0.56,0.56,0.56,0.56,0.22,0.22,0.5,0.28,0.55,0.56,0.28,0.28,0.55,0.72,0.56,0.22,0.56,0.56,0.28,0.55,0.33,0.67,0.67,0.72,0.33,0.28,0.28,0.55,0.56,0.56,0.56,0.28,0.55,0.56,0.72,0.56,0.5,0.56,0.22,0.28,0.56,0.22,0.28,0.55,0.67,0.56,0.28,0.56,0.56,0.33,0.22,0.28,0.5,0.28" style="fill:rgb(23,22,21);font-family:Arial;font-size:8.0px;stroke:none;">Peoples Republic of China (SAR); and Hospital Authority,</text>
   <text y="723.074" x="59.5,65.724,70.172,74.172,78.62,81.284,85.732,92.396,96.844,101.292,103.516,105.962,110.41,112.634,115.081,120.857,125.305,129.753,134.201,136.647,141.983,146.431,150.879,155.327,157.551,159.998,165.774,170.222,174.67,179.118,181.564,186.9,191.348,195.796,200.244,202.69,208.026,213.362" svgx:width="0.78,0.56,0.5,0.56,0.33,0.56,0.83,0.56,0.56,0.28,0.28,0.56,0.28,0.28,0.72,0.56,0.56,0.56,0.28,0.67,0.56,0.56,0.56,0.28,0.28,0.72,0.56,0.56,0.56,0.28,0.67,0.56,0.56,0.56,0.28,0.67,0.67,0.72" style="fill:rgb(23,22,21);font-family:Arial;font-size:8.0px;stroke:none;">Government of Hong Kong, Hong Kong SAR</text>
  </g>
 </g>
</svg>
