<?xml version="1.0" encoding="UTF-8"?>
<svg height="731.4" width="4030.0" xmlns="http://www.w3.org/2000/svg">
 <g id="page" xmlns:svgx="http://www.xml-cml.org/schema/svgx">
  <g begin="text">
   <text y="70.4" x="150.0,155.0,157.78,162.78,167.22,170.55,173.05,178.05,181.38,185.82,190.82,193.6,198.04,200.82,205.82,209.15,213.04,215.54,218.32,223.32,225.82,228.6,233.6,238.04,240.54,248.32,253.32,258.32,262.76,265.54,268.04,270.82,275.82,280.26,283.04,285.54,292.76,297.2,300.53,304.97,307.47,311.36,314.14,319.14,324.14,326.92,330.05,332.83,337.27,341.71,346.71,349.49,352.27,357.27,359.77,363.1,367.54,370.32,374.76,377.54,381.98,386.98,389.48,392.26,397.26,399.76,404.2,409.2,414.2,418.64,423.08,425.86,428.64,433.64,438.64,441.14,443.92,448.11,452.96,457.4,460.18,462.68,466.01,468.79,471.29,475.73,478.23,480.73,483.23,486.01,491.01,495.45,499.89,502.67,505.45,510.45,515.45" svgx:width="0.5,0.28,0.5,0.44,0.33,0.25,0.5,0.33,0.44,0.5,0.28,0.44,0.28,0.5,0.33,0.39,0.25,0.28,0.5,0.25,0.28,0.5,0.44,0.25,0.78,0.5,0.5,0.44,0.28,0.25,0.28,0.5,0.44,0.28,0.25,0.72,0.44,0.33,0.44,0.25,0.39,0.28,0.5,0.5,0.28,0.33,0.28,0.44,0.44,0.5,0.28,0.28,0.5,0.25,0.33,0.44,0.28,0.44,0.28,0.44,0.5,0.25,0.28,0.5,0.25,0.44,0.5,0.5,0.44,0.44,0.28,0.28,0.5,0.5,0.25,0.28,0.44,0.5,0.44,0.28,0.25,0.33,0.28,0.25,0.44,0.25,0.25,0.25,0.28,0.5,0.44,0.44,0.28,0.28,0.5,0.5,0.25" style="fill:rgb(0,0,0);font-family:Times-Roman;font-size:10.0px;stroke:none;">other predictors in the model that were significantly related to education level (i.e., location </text>
   <text y="84.4" x="150.0,154.44,159.44,164.44,166.94,171.38,176.38,180.82,184.15,186.65,189.15,195.26,200.26,203.04,206.93,209.43,212.21,217.21,219.99,224.43,227.76,232.76,236.09,240.53,243.31,247.75,250.53,253.31,258.31,263.31,265.81,268.59,272.48,274.98,278.87,283.87,288.87,293.87,298.87,302.2,304.98,309.42,314.42,316.92,321.92,326.92,329.42,332.2,337.2,341.64,344.14,347.27,350.05,355.05,360.05,362.83,367.83,372.83,375.33,378.11,383.11,387.55,390.33,392.83,395.61,400.61,405.05,407.55,410.88,415.32,423.1,427.95,432.7,437.14,439.92,442.42,447.42,450.75,453.25,457.69,460.47,463.25,468.25,472.69,476.02,478.52,482.96,487.96,492.4,494.9,499.9,503.23" svgx:width="0.44,0.5,0.5,0.25,0.44,0.5,0.44,0.33,0.25,0.25,0.61,0.5,0.28,0.39,0.25,0.28,0.5,0.28,0.44,0.33,0.5,0.33,0.44,0.28,0.44,0.28,0.28,0.5,0.5,0.25,0.28,0.39,0.25,0.39,0.5,0.5,0.5,0.5,0.33,0.28,0.44,0.5,0.25,0.5,0.5,0.25,0.28,0.5,0.44,0.25,0.33,0.28,0.5,0.5,0.28,0.5,0.5,0.25,0.28,0.5,0.44,0.28,0.25,0.28,0.5,0.44,0.25,0.33,0.44,0.78,0.5,0.5,0.44,0.28,0.25,0.5,0.33,0.25,0.44,0.28,0.28,0.5,0.44,0.33,0.25,0.44,0.5,0.44,0.25,0.5,0.33,0.25" style="fill:rgb(0,0,0);font-family:Times-Roman;font-size:10.0px;stroke:none;">and age). This interpretation is supported by the finding that the removal of either age or </text>
   <text y="98.4" x="150.0,152.78,157.78,162.22,166.66,169.44,172.22,177.22,182.22,184.72,188.05,191.38,196.38,204.16,206.66,209.44,214.44,218.88,221.38,229.16,234.16,239.16,243.6,246.38,248.88,252.21,256.65,260.54,265.54,268.32,271.1,275.54,280.54,283.04,285.82,290.82,293.32,297.76,300.26,304.15,306.93,311.93,316.93,319.71,322.84,325.62,330.06,334.5,339.5,342.28,344.78,347.56,352.56,355.34,359.78,362.56,365.06,369.5,372.58,375.91,380.35,384.79,387.57,390.07,395.07,398.4,400.9,405.34,410.34,415.34,419.78,424.22,427.0,429.78,434.78,439.78,442.28,444.78,450.89,455.89,458.67,462.56,465.06,468.95,473.95,478.95,483.95,488.39,492.28,495.06,498.95,501.45,504.23,509.23,513.67,516.45" svgx:width="0.28,0.5,0.44,0.44,0.28,0.28,0.5,0.5,0.25,0.33,0.33,0.5,0.78,0.25,0.28,0.5,0.44,0.25,0.78,0.5,0.5,0.44,0.28,0.25,0.33,0.44,0.39,0.5,0.28,0.28,0.44,0.5,0.25,0.28,0.5,0.25,0.44,0.25,0.39,0.28,0.5,0.5,0.28,0.33,0.28,0.44,0.44,0.5,0.28,0.25,0.28,0.5,0.28,0.44,0.28,0.25,0.44,0.33,0.33,0.44,0.44,0.28,0.25,0.5,0.33,0.25,0.44,0.5,0.5,0.44,0.44,0.28,0.28,0.5,0.5,0.25,0.25,0.61,0.5,0.28,0.39,0.25,0.39,0.5,0.5,0.5,0.44,0.39,0.28,0.39,0.25,0.28,0.5,0.44,0.28,0.25" style="fill:rgb(0,0,0);font-family:Times-Roman;font-size:10.0px;stroke:none;">location from the model resulted in a significant total effect of education. This suggests that </text>
   <text y="112.4" x="150.0,152.78,157.78,162.22,164.72,169.72,174.16,176.94,179.72,184.16,187.49,189.99,194.43,199.43,204.43,208.87,213.31,216.09,220.53,225.53,228.03,233.03,237.47,242.47,247.47,250.25,254.69,257.19,259.97,264.97,267.47,270.25,275.25,279.69,282.19,286.08,290.52,298.3,303.3,306.08,310.52,313.02,320.24,324.68,328.01,332.45,334.95,339.95,343.84,346.62,351.62,356.62,359.12,366.9,371.34,375.23,380.23,384.12,386.62,394.4,399.4,402.73,407.17,409.67,413.0,416.33,420.77,425.77,430.77,435.21,440.21,442.99,445.77,450.77,453.27,458.27,462.71,467.15,471.59,476.59,480.48,484.92,487.42,490.2,495.2,499.49,504.49" svgx:width="0.28,0.5,0.44,0.25,0.5,0.44,0.28,0.28,0.44,0.33,0.25,0.44,0.5,0.5,0.44,0.44,0.28,0.44,0.5,0.25,0.5,0.44,0.5,0.5,0.28,0.44,0.25,0.28,0.5,0.25,0.28,0.5,0.44,0.25,0.39,0.44,0.78,0.5,0.28,0.44,0.25,0.72,0.44,0.33,0.44,0.25,0.5,0.39,0.28,0.5,0.5,0.25,0.78,0.44,0.39,0.5,0.39,0.25,0.78,0.5,0.33,0.44,0.25,0.33,0.33,0.44,0.5,0.5,0.44,0.5,0.28,0.28,0.5,0.25,0.5,0.44,0.44,0.44,0.5,0.39,0.44,0.25,0.28,0.5,0.44,0.5,0.25" style="fill:rgb(0,0,0);font-family:Times-Roman;font-size:10.0px;stroke:none;">the better educated people in the sample were using masks more frequently because they </text>
   <text y="126.4" x="150.0,155.0,159.44,162.77,167.21,171.65,174.18,179.03,183.47,188.47,190.97,198.75,203.19,207.08,212.08,215.97,218.47,221.25,226.25,228.75,233.75,238.19,240.69,248.47,253.47,256.8,261.24,263.74,268.18,271.26,274.59,279.03,283.47,286.25,288.78,293.63,298.07,300.57,303.07,307.87,312.87,315.65,318.15,320.93,325.93,330.37,333.15,335.65,338.43,343.43,346.21,350.1,352.6,355.93,360.37,363.15,367.59,370.37,373.15,378.15,383.15,387.04,392.04,394.82,399.82,402.32,410.1,412.88,417.88,422.88,425.66,428.16,433.16,437.6,440.1,445.1,449.54,452.87,455.65,458.43,463.43,465.93,470.37,473.15,475.93,479.26,482.04,486.84,491.84,494.62,499.06,504.06,506.84,511.28,513.78,516.56,521.56" svgx:width="0.5,0.44,0.33,0.44,0.44,0.28,0.5,0.44,0.5,0.25,0.78,0.44,0.39,0.5,0.39,0.25,0.28,0.5,0.25,0.5,0.44,0.25,0.78,0.5,0.33,0.44,0.25,0.44,0.33,0.33,0.44,0.44,0.28,0.28,0.5,0.44,0.25,0.25,0.5,0.5,0.28,0.25,0.28,0.5,0.44,0.28,0.25,0.28,0.5,0.28,0.39,0.25,0.33,0.44,0.28,0.44,0.28,0.28,0.5,0.5,0.39,0.5,0.28,0.5,0.25,0.78,0.28,0.5,0.5,0.28,0.25,0.5,0.44,0.25,0.5,0.44,0.33,0.28,0.28,0.5,0.25,0.44,0.28,0.28,0.33,0.28,0.5,0.5,0.28,0.44,0.5,0.28,0.44,0.25,0.28,0.5,0.25" style="fill:rgb(0,0,0);font-family:Times-Roman;font-size:10.0px;stroke:none;">perceived masks to be more effective, but that this relationship might be partly attributable to </text>
   <text y="140.4" x="150.0,152.78,157.78,162.22,164.72,167.95,172.39,176.83,179.61,182.11,184.89,189.89,194.33,197.11,199.61,202.39,207.39,211.68,216.68,219.18,226.4,230.84,234.17,238.61,241.11,246.11,251.11,256.11,261.11,266.11,270.55,273.88,276.38,281.38,284.71,287.21,294.99,299.99,303.32,307.76,310.26,313.04,315.82,320.72,325.16,327.94,332.94,335.44,338.22,343.22,345.72,350.72,355.16,357.66,360.44,362.97,367.97,370.75,375.75,380.75,383.25,386.03,391.03,393.53,396.31,401.31,405.75,408.25,413.25,416.58,421.58,426.02,431.02,433.52,437.96,441.29,445.73,450.17,454.06" svgx:width="0.28,0.5,0.44,0.25,0.33,0.44,0.44,0.28,0.25,0.28,0.5,0.44,0.28,0.25,0.28,0.5,0.44,0.5,0.25,0.72,0.44,0.33,0.44,0.25,0.5,0.5,0.5,0.5,0.5,0.44,0.33,0.25,0.5,0.33,0.25,0.78,0.5,0.33,0.44,0.25,0.28,0.28,0.5,0.44,0.28,0.5,0.25,0.28,0.5,0.25,0.5,0.44,0.25,0.28,0.28,0.5,0.28,0.5,0.5,0.25,0.28,0.5,0.25,0.28,0.5,0.44,0.25,0.5,0.33,0.5,0.44,0.5,0.25,0.44,0.33,0.44,0.44,0.39,0.25" style="fill:rgb(0,0,0);font-family:Times-Roman;font-size:10.0px;stroke:none;">the fact that they were younger or more likely to be living in the urban areas.</text>
  </g>
  <g begin="text">
   <text y="164.4" x="150.0,156.11,161.11,165.55,168.05,170.83,175.83,178.61,183.05,185.83,188.33,192.77,195.85,199.18,203.62,208.06,210.84,213.34,218.34,221.67,224.17,228.61,233.61,238.61,243.05,247.49,250.27,253.05,258.05,263.05,265.55,272.67,277.11,281.0,283.5,288.5,293.5,296.28,298.78,302.67,305.45,310.45,315.45,318.23,321.36,324.14,328.58,333.02,338.02,340.8,343.3,346.08,351.08,353.58,356.36,361.36,365.8,368.3,371.63,376.63,381.63,386.63,391.63,396.07,399.96,402.74,407.18,412.18,414.68,418.57,423.01,430.79,435.79,438.57,443.01,445.51,449.95,454.95,459.95,462.45,467.45,472.45,474.95,478.84,481.62,486.62,491.62,494.4,497.53,500.31,504.75,509.19,514.19,516.97" svgx:width="0.61,0.5,0.44,0.25,0.28,0.5,0.28,0.44,0.28,0.25,0.44,0.33,0.33,0.44,0.44,0.28,0.25,0.5,0.33,0.25,0.44,0.5,0.5,0.44,0.44,0.28,0.28,0.5,0.5,0.25,0.72,0.44,0.39,0.25,0.5,0.5,0.28,0.25,0.39,0.28,0.5,0.5,0.28,0.33,0.28,0.44,0.44,0.5,0.28,0.25,0.28,0.5,0.25,0.28,0.5,0.44,0.25,0.33,0.5,0.5,0.5,0.5,0.44,0.39,0.28,0.44,0.5,0.25,0.39,0.44,0.78,0.5,0.28,0.44,0.25,0.44,0.5,0.5,0.25,0.5,0.5,0.25,0.39,0.28,0.5,0.5,0.28,0.33,0.28,0.44,0.44,0.5,0.28,0.25" style="fill:rgb(0,0,0);font-family:Times-Roman;font-size:10.0px;stroke:none;">The total effect of education was not significant in the Indonesian sample and no significant </text>
   <text y="178.4" x="150.0,152.78,157.78,162.78,165.56,168.89,173.33,177.77,180.55,183.05,187.49,190.57,193.9,198.34,202.78,205.56,209.45,211.95,219.17,223.61,226.94,231.38,233.88,237.21,242.21,247.21,252.21,257.21" svgx:width="0.28,0.5,0.5,0.28,0.33,0.44,0.44,0.28,0.25,0.44,0.33,0.33,0.44,0.44,0.28,0.39,0.25,0.72,0.44,0.33,0.44,0.25,0.33,0.5,0.5,0.5,0.5,0.25" style="fill:rgb(0,0,0);font-family:Times-Roman;font-size:10.0px;stroke:none;">indirect effects were found.</text>
  </g>
  <g begin="text">
   <text y="204.67" x="150.0,155.56,158.34,163.9,166.68,172.24,175.04000000000002,182.24,189.46,195.02,200.58,206.69,209.47,213.36,218.92,222.25,228.36,232.35,237.91,240.69,243.47,246.25,249.03,255.14,260.7,266.26,271.82" svgx:width="0.56,0.28,0.56,0.28,0.56,0.28,0.55,0.72,0.56,0.56,0.61,0.28,0.39,0.56,0.33,0.61,0.39,0.56,0.28,0.28,0.28,0.28,0.61,0.56,0.56,0.56,1.0" style="fill:rgb(0,0,0);font-family:Helvetica-Bold;font-size:10.0px;stroke:none;">3.2.5 Respiratory illness—</text>
   <text y="204.67" x="281.82,287.93,292.93,297.37,299.87,304.87,309.87,313.76,316.54,319.32,321.85,326.7,331.14,333.64,336.42,341.42,344.2,348.64,351.42,353.92,358.36,361.44,364.77,369.21,373.65,376.43,378.93,383.93,387.26,389.76,393.09,397.53,401.42,406.42,409.2,412.53,416.97,419.75,424.75,428.08,433.08,435.58,438.36,441.14,443.92,448.92,453.36,457.25,461.14,463.64,466.42,471.42,473.92,476.7,481.7,486.14" svgx:width="0.61,0.5,0.44,0.25,0.5,0.5,0.39,0.28,0.28,0.28,0.5,0.44,0.25,0.28,0.5,0.28,0.44,0.28,0.25,0.44,0.33,0.33,0.44,0.44,0.28,0.25,0.5,0.33,0.25,0.33,0.44,0.39,0.5,0.28,0.33,0.44,0.28,0.5,0.33,0.5,0.25,0.28,0.28,0.28,0.5,0.44,0.39,0.39,0.25,0.28,0.5,0.25,0.28,0.5,0.44,0.25" style="fill:rgb(0,0,0);font-family:Times-Roman;font-size:10.0px;stroke:none;">The positive total effect of respiratory illness in the </text>
   <text y="218.67" x="150.0,153.89,158.33,163.33,167.77,172.77,177.21,181.1,185.54,188.04,191.93,196.37,204.15,209.15,211.93,216.37,218.87,225.99,230.43,234.32,236.82,241.82,246.26,249.59,252.37,255.15,259.59,262.37,265.15,270.15,272.65,280.43,284.87,289.87,292.65,297.09,299.87,304.31,309.31,311.81,316.81,321.81,324.31,329.31,333.75,337.08,341.52,345.96,350.96,353.74,356.52,361.52,366.52,370.41,372.91,377.91,381.24,383.74,388.74,393.18,396.51,404.29,407.07,409.57,416.69,421.69,425.02,428.35,432.7,435.2,437.7,443.26,447.7,452.7,457.7,460.48,464.92,467.42,474.64,477.42,480.2,485.2" svgx:width="0.39,0.44,0.5,0.44,0.5,0.44,0.39,0.44,0.25,0.39,0.44,0.78,0.5,0.28,0.44,0.25,0.72,0.44,0.39,0.25,0.5,0.44,0.33,0.28,0.28,0.44,0.28,0.28,0.5,0.25,0.78,0.44,0.5,0.28,0.44,0.28,0.44,0.5,0.25,0.5,0.5,0.25,0.5,0.44,0.33,0.44,0.44,0.5,0.28,0.28,0.5,0.5,0.39,0.25,0.5,0.33,0.25,0.5,0.44,0.33,0.78,0.28,0.25,0.72,0.5,0.33,0.33,0.5,0.25,0.25,0.56,0.44,0.5,0.5,0.28,0.44,0.25,0.72,0.28,0.28,0.5,0.25" style="fill:rgb(0,0,0);font-family:Times-Roman;font-size:10.0px;stroke:none;">Japanese sample was partially mediated by perceptions of harm/ worry. People with </text>
   <text y="232.67" x="150.0,153.33,157.77,161.66,166.66,169.44,172.77,177.21,179.99,184.99,188.32,193.32,195.82,198.6,201.38,204.16,209.16,213.6,217.49,221.38,223.88,231.1,235.54,238.87,243.31,245.81,253.59,258.59,261.92,266.36,268.86,271.64,274.42,279.32,283.76,286.54,291.54,294.04,296.82,301.82,304.32,309.32,313.21,317.65,320.15,327.93,332.37,336.26,341.26,345.15,347.65,355.43,360.43,363.76,368.2,370.7,374.03,377.36,381.8,386.8,391.8,396.24,401.24,404.02,406.8,411.8,414.3,419.3,423.74,428.18,432.62,437.62,441.51,445.95,448.45,451.23,456.23,460.52,465.52,468.02,473.02,477.46,480.79,485.23,489.67,492.2,497.05,501.49,506.49,508.99,511.77,516.77,521.21" svgx:width="0.33,0.44,0.39,0.5,0.28,0.33,0.44,0.28,0.5,0.33,0.5,0.25,0.28,0.28,0.28,0.5,0.44,0.39,0.39,0.25,0.72,0.44,0.33,0.44,0.25,0.78,0.5,0.33,0.44,0.25,0.28,0.28,0.5,0.44,0.28,0.5,0.25,0.28,0.5,0.25,0.5,0.39,0.44,0.25,0.78,0.44,0.39,0.5,0.39,0.25,0.78,0.5,0.33,0.44,0.25,0.33,0.33,0.44,0.5,0.5,0.44,0.5,0.28,0.28,0.5,0.25,0.5,0.44,0.44,0.44,0.5,0.39,0.44,0.25,0.28,0.5,0.44,0.5,0.25,0.5,0.44,0.33,0.44,0.44,0.28,0.5,0.44,0.5,0.25,0.28,0.5,0.44,0.25" style="fill:rgb(0,0,0);font-family:Times-Roman;font-size:10.0px;stroke:none;">respiratory illness were more likely to use masks more frequently because they perceived the </text>
   <text y="246.67" x="150.0,154.44,158.33,163.33,165.83,168.61,173.61,176.11,181.11,185.55,188.05,195.83,200.83,204.16,208.6,211.1,216.1,220.54,223.87,231.65,234.98,239.98,242.76,245.26,249.7,254.7,259.7,262.2,269.42,273.86,277.19,281.63,284.13,291.91,296.91,300.24,304.68,307.18,314.3,319.3,322.63,325.96,328.74,333.18,338.18,340.68,345.12,350.12,355.12,360.12,362.9,365.4,368.18,373.18,377.62,380.12,384.56,387.64,390.97,395.41,399.85,402.63,406.52,409.02,414.02,417.35,419.85,422.63,427.63,432.07,434.57,439.01,442.9,447.9" svgx:width="0.44,0.39,0.5,0.25,0.28,0.5,0.25,0.5,0.44,0.25,0.78,0.5,0.33,0.44,0.25,0.5,0.44,0.33,0.78,0.33,0.5,0.28,0.25,0.44,0.5,0.5,0.25,0.72,0.44,0.33,0.44,0.25,0.78,0.5,0.33,0.44,0.25,0.72,0.5,0.33,0.33,0.28,0.44,0.5,0.25,0.44,0.5,0.5,0.5,0.28,0.25,0.28,0.5,0.44,0.25,0.44,0.33,0.33,0.44,0.44,0.28,0.39,0.25,0.5,0.33,0.25,0.28,0.5,0.44,0.25,0.44,0.39,0.5,0.25" style="fill:rgb(0,0,0);font-family:Times-Roman;font-size:10.0px;stroke:none;">ash to be more harmful and were more worried about the effects of the ash.</text>
  </g>
  <g begin="text">
   <text y="270.67" x="150.0,156.11,161.11,165.55,168.05,173.05,178.05,181.94,184.72,187.5,190.03,194.88,199.32,201.82,204.6,209.6,212.38,216.82,219.6,222.1,226.54,229.62,232.95,237.39,241.83,244.61,247.11,252.11,255.44,257.94,261.27,265.71,269.6,274.6,277.38,280.71,285.15,287.93,292.93,296.26,301.26,303.76,306.54,309.32,312.1,317.1,321.54,325.43,329.32,331.82,334.6,339.6,342.1,344.88,349.88,354.32,356.82,360.15,365.15,370.15,375.15,380.15,384.59,388.48,391.26,395.7,400.7,403.2,407.09,411.53,419.31,424.31,427.09,431.53,434.03,438.47,443.47,448.47,451.25,456.25,458.75,463.75,468.75,471.53,474.03,479.03,483.78,491.0,495.19,500.04,504.48,507.81,510.31,515.31,519.75" svgx:width="0.61,0.5,0.44,0.25,0.5,0.5,0.39,0.28,0.28,0.28,0.5,0.44,0.25,0.28,0.5,0.28,0.44,0.28,0.25,0.44,0.33,0.33,0.44,0.44,0.28,0.25,0.5,0.33,0.25,0.33,0.44,0.39,0.5,0.28,0.33,0.44,0.28,0.5,0.33,0.5,0.25,0.28,0.28,0.28,0.5,0.44,0.39,0.39,0.25,0.28,0.5,0.25,0.28,0.5,0.44,0.25,0.33,0.5,0.5,0.5,0.5,0.44,0.39,0.28,0.44,0.5,0.25,0.39,0.44,0.78,0.5,0.28,0.44,0.25,0.44,0.5,0.5,0.28,0.5,0.25,0.5,0.5,0.28,0.25,0.5,0.5,0.72,0.44,0.5,0.44,0.33,0.25,0.5,0.44,0.25" style="fill:rgb(0,0,0);font-family:Times-Roman;font-size:10.0px;stroke:none;">The positive total effect of respiratory illness in the Indonesian sample could not however be </text>
   <text y="284.67" x="150.0,154.29,159.29,164.29,167.07,171.51,174.29,179.29,183.73,188.73,191.23,194.01,199.01,201.51,204.29,209.29,212.07,215.96,218.46,225.58,230.02,234.37,236.87,239.37,246.59,251.59,254.09,257.98,260.76,265.76,270.76,273.54,276.67,279.45,283.89,288.33,293.33,296.11,298.61,301.39,306.39,311.39,314.17,317.5,321.94,326.38,329.16,331.66,336.1,339.18,342.51,346.95,351.39,354.17,358.06,360.56,367.78,372.22,375.55,379.99,382.49,385.82,390.82,395.82,400.82,405.82" svgx:width="0.44,0.5,0.5,0.28,0.44,0.28,0.5,0.44,0.5,0.25,0.28,0.5,0.25,0.28,0.5,0.28,0.39,0.25,0.72,0.44,0.5,0.25,0.25,0.72,0.5,0.25,0.39,0.28,0.5,0.5,0.28,0.33,0.28,0.44,0.44,0.5,0.28,0.25,0.28,0.5,0.5,0.28,0.33,0.44,0.44,0.28,0.25,0.44,0.33,0.33,0.44,0.44,0.28,0.39,0.25,0.72,0.44,0.33,0.44,0.25,0.33,0.5,0.5,0.5,0.5,0.25" style="fill:rgb(0,0,0);font-family:Times-Roman;font-size:10.0px;stroke:none;">explained in this way. No significant indirect effects were found.</text>
  </g>
  <g begin="text">
   <text y="308.67" x="150.0,156.11,161.11,165.55,168.05,170.83,175.83,178.61,183.05,185.83,188.33,192.77,195.85,199.18,203.62,208.06,210.84,214.73,217.23,222.23,225.56,228.06,231.39,235.83,239.72,244.72,247.5,250.83,255.27,258.05,263.05,266.38,271.38,273.88,276.66,279.44,282.22,287.22,291.66,295.55,299.44,301.94,309.16,313.6,316.93,321.37,323.87,328.87,333.87,336.65,339.15,343.04,345.82,350.82,355.82,358.6,361.73,364.51,368.95,373.39,378.39,381.17,383.67,386.45,391.45,393.95,402.84,407.13,412.13,414.91,419.35,424.35,426.85,431.29,436.29,441.29,443.79,448.79,453.79,456.29,460.18,462.96,467.96,472.96,475.74,478.87,481.65,486.09,490.53,495.53,498.31" svgx:width="0.61,0.5,0.44,0.25,0.28,0.5,0.28,0.44,0.28,0.25,0.44,0.33,0.33,0.44,0.44,0.28,0.39,0.25,0.5,0.33,0.25,0.33,0.44,0.39,0.5,0.28,0.33,0.44,0.28,0.5,0.33,0.5,0.25,0.28,0.28,0.28,0.5,0.44,0.39,0.39,0.25,0.72,0.44,0.33,0.44,0.25,0.5,0.5,0.28,0.25,0.39,0.28,0.5,0.5,0.28,0.33,0.28,0.44,0.44,0.5,0.28,0.25,0.28,0.5,0.25,0.89,0.44,0.5,0.28,0.44,0.5,0.25,0.44,0.5,0.5,0.25,0.5,0.5,0.25,0.39,0.28,0.5,0.5,0.28,0.33,0.28,0.44,0.44,0.5,0.28,0.25" style="fill:rgb(0,0,0);font-family:Times-Roman;font-size:10.0px;stroke:none;">The total effects of respiratory illness were not significant in Mexico and no significant </text>
   <text y="322.67" x="150.0,152.78,157.78,162.78,165.56,168.89,173.33,177.77,180.55,183.05,187.49,190.57,193.9,198.34,202.78,205.56,209.45,211.95,219.17,223.61,226.94,231.38,233.88,237.21,242.21,247.21,252.21,257.21" svgx:width="0.28,0.5,0.5,0.28,0.33,0.44,0.44,0.28,0.25,0.44,0.33,0.33,0.44,0.44,0.28,0.39,0.25,0.72,0.44,0.33,0.44,0.25,0.33,0.5,0.5,0.5,0.5,0.25" style="fill:rgb(0,0,0);font-family:Times-Roman;font-size:10.0px;stroke:none;">indirect effects were found.</text>
  </g>
  <g begin="text">
   <text y="348.94" x="90.0,95.56,98.34,103.9,106.7,113.9,121.12,126.68,132.24,137.8,143.91,150.02,155.58,158.36,161.49,167.6,171.49,174.27,180.38,186.49,189.82,192.6,200.38,205.94,211.5,215.39,218.17,224.28,230.39,233.17,242.06,247.62,253.18,258.74" svgx:width="0.56,0.28,0.56,0.28,0.55,0.72,0.56,0.56,0.56,0.61,0.61,0.56,0.28,0.33,0.61,0.39,0.28,0.61,0.61,0.33,0.28,0.78,0.56,0.56,0.39,0.28,0.61,0.61,0.28,0.89,0.56,0.56,0.56,0.56" style="fill:rgb(0,0,0);font-family:Helvetica-Bold;font-size:10.0px;stroke:none;">3.3 Reasons for not wearing masks</text>
  </g>
  <g begin="text">
   <text y="366.67" x="150.0,156.11,161.11,165.55,168.05,171.94,174.72,178.05,183.05,187.49,190.27,195.27,198.6,203.04,205.82,208.32,216.1,221.1,226.1,230.54,233.32,237.21,239.71,243.6,248.6,253.35,260.57,263.07,265.85,270.85,275.29,278.07,280.57,285.57,290.01,292.79,295.57,300.01,303.34,307.23,309.73,314.17,319.17,324.17,329.17,331.95,334.45,342.23,346.67,350.56,355.56,358.06,362.5,365.58,368.71,371.49,375.93,380.37,384.66,389.66,392.16,396.6,401.6,406.6,409.38,411.88,416.88,420.21,422.71,427.71,432.15,435.48,439.92,444.36,449.36,452.14,454.92,459.92,464.92,468.81,471.31,476.31,479.64,482.14,487.14,491.58,494.91,502.69,505.47" svgx:width="0.61,0.5,0.44,0.25,0.39,0.28,0.33,0.5,0.44,0.28,0.5,0.33,0.44,0.28,0.25,0.78,0.5,0.5,0.44,0.28,0.39,0.25,0.39,0.5,0.5,0.72,0.25,0.28,0.5,0.44,0.28,0.25,0.5,0.44,0.28,0.28,0.44,0.33,0.39,0.25,0.44,0.5,0.5,0.5,0.28,0.25,0.78,0.44,0.39,0.5,0.25,0.44,0.33,0.33,0.28,0.44,0.44,0.44,0.5,0.25,0.44,0.5,0.5,0.28,0.25,0.5,0.33,0.25,0.5,0.44,0.33,0.44,0.44,0.5,0.28,0.28,0.5,0.5,0.39,0.25,0.5,0.33,0.25,0.5,0.44,0.33,0.78,0.28,0.25" style="fill:rgb(0,0,0);font-family:Times-Roman;font-size:10.0px;stroke:none;">The structural models show that beliefs about mask efficacy and/ or perceptions of harm/ </text>
   <text y="380.67" x="150.0,157.12,162.12,165.45,168.78,173.78,176.28,184.06,188.5,193.4,197.84,200.34,204.23,207.01,212.01,217.01,219.79,222.92,225.7,230.14,234.58,239.58,242.36,244.86,249.3,254.3,259.3,262.08,265.41,268.19,272.99,277.99,280.77,283.55,288.55,293.55,297.44,299.94,302.72,307.72,310.22,315.22,319.66,322.44,326.88,330.21,337.99,340.77,345.77,348.55,353.55,358.55,361.05,363.83,368.83,373.27,375.77,379.1,382.43,386.87,391.87,396.87,401.31,406.31,410.6,415.6,418.1,423.1,426.43,428.93,436.71,441.15,445.04,450.04,452.54,457.54,461.43,465.87,468.37,472.81,477.81,482.81,485.31,488.09,493.09" svgx:width="0.72,0.5,0.33,0.33,0.5,0.25,0.78,0.44,0.5,0.44,0.25,0.39,0.28,0.5,0.5,0.28,0.33,0.28,0.44,0.44,0.5,0.28,0.25,0.44,0.5,0.5,0.28,0.33,0.28,0.5,0.5,0.28,0.28,0.5,0.5,0.39,0.25,0.28,0.5,0.25,0.5,0.44,0.28,0.44,0.33,0.78,0.28,0.5,0.28,0.5,0.5,0.25,0.28,0.5,0.44,0.25,0.33,0.33,0.44,0.5,0.5,0.44,0.5,0.44,0.5,0.25,0.5,0.33,0.25,0.78,0.44,0.39,0.5,0.25,0.5,0.39,0.44,0.25,0.44,0.5,0.5,0.25,0.28,0.5,0.25" style="fill:rgb(0,0,0);font-family:Times-Roman;font-size:10.0px;stroke:none;">worry make significant contributions to determining the frequency of mask use and to </text>
   <text y="394.67" x="150.0,154.29,159.29,164.29,167.07,171.51,174.29,179.29,182.07,187.07,192.07,194.57,198.46,203.46,211.24,215.68,218.18,222.07,227.07,232.07,235.4,239.84,244.28,248.17,250.67,255.67,259.0,261.5,266.25,270.69,274.02,276.8,281.24,286.24,290.68,295.12,297.62,300.4,305.4,307.9,315.68,320.12,324.01,329.01,331.51,336.51,340.4,344.84,347.34,349.84,357.06,361.81,369.03,373.22,378.07,382.51,385.44,387.94,390.44,393.22,398.22,402.66,405.44,408.77,411.27,416.27,419.6,424.04,429.04,431.82,436.26,439.04,441.57,446.42,450.86,453.36,457.8,462.8,465.58,468.36,471.14,473.92,478.92,481.42,484.2,488.09,490.59,495.59,500.59,503.37" svgx:width="0.44,0.5,0.5,0.28,0.44,0.28,0.5,0.28,0.5,0.5,0.25,0.39,0.5,0.78,0.44,0.25,0.39,0.5,0.5,0.33,0.44,0.44,0.39,0.25,0.5,0.33,0.25,0.5,0.44,0.33,0.28,0.44,0.5,0.44,0.44,0.25,0.28,0.5,0.25,0.78,0.44,0.39,0.5,0.25,0.5,0.39,0.44,0.25,0.25,0.72,0.5,0.72,0.44,0.5,0.44,0.33,0.25,0.25,0.28,0.5,0.44,0.28,0.33,0.25,0.5,0.33,0.44,0.5,0.28,0.44,0.28,0.28,0.5,0.44,0.25,0.44,0.5,0.28,0.28,0.28,0.28,0.5,0.25,0.28,0.39,0.25,0.5,0.5,0.28,0.25" style="fill:rgb(0,0,0);font-family:Times-Roman;font-size:10.0px;stroke:none;">explaining some sources of variance in mask use. However, their predictive ability is not </text>
   <text y="408.67" x="150.0,154.44,159.44,162.22,165.0,168.33,172.77,175.55,180.55,183.05,187.49,192.49,197.49,201.38,204.16,208.05,210.83,215.27,220.27,223.05,225.55,229.99,234.43,237.76,242.76,246.65,250.54,253.04,257.48,260.26,263.04,265.54,268.32,273.32,276.65,281.09,285.53,288.03,292.47,297.47,302.47,307.47,310.25,313.58,316.36,320.8,324.69,327.19,329.69,335.25,339.69,343.02,347.46,351.9,356.9,359.68,362.46,367.46,372.46,376.35,378.85,383.85,387.18,389.68,394.68,399.12,402.45,410.23,413.01,415.51,422.63,427.63,430.96,434.29,439.29,441.79,446.79,449.57,454.01,459.01,463.45,468.45,470.95,475.39,477.89,481.78,484.56,487.89,492.89,497.89,502.89,507.33,510.66" svgx:width="0.44,0.5,0.28,0.28,0.33,0.44,0.28,0.5,0.25,0.44,0.5,0.5,0.39,0.28,0.39,0.28,0.44,0.5,0.28,0.25,0.44,0.44,0.33,0.5,0.39,0.39,0.25,0.44,0.28,0.28,0.25,0.28,0.5,0.33,0.44,0.44,0.25,0.44,0.5,0.5,0.5,0.28,0.33,0.28,0.44,0.39,0.25,0.25,0.56,0.44,0.33,0.44,0.44,0.5,0.28,0.28,0.5,0.5,0.39,0.25,0.5,0.33,0.25,0.5,0.44,0.33,0.78,0.28,0.25,0.72,0.5,0.33,0.33,0.5,0.25,0.5,0.28,0.44,0.5,0.44,0.5,0.25,0.44,0.25,0.39,0.28,0.33,0.5,0.5,0.5,0.44,0.33,0.25" style="fill:rgb(0,0,0);font-family:Times-Roman;font-size:10.0px;stroke:none;">entirely consistent across all three countries. Perceptions of harm/ worry played a stronger </text>
   <text y="422.67" x="150.0,153.33,158.33,161.11,165.55,168.05,170.83,175.83,178.33,181.11,186.11,190.55,193.05,196.94,201.38,206.38,210.82,215.82,220.26,224.15,228.59,231.09,234.98,239.42,247.2,252.2,254.98,259.42,261.92,269.14,274.14,278.58,281.91,286.35,290.79,294.68,297.18,302.18,306.62,309.4,312.18,316.62,319.95,323.84,326.34,330.78,335.78,340.78,345.78,348.56,351.06,358.84,363.28,367.17,372.17,374.67,379.11,382.19,385.32,388.1,392.54,396.98,401.27,406.27,408.77,413.77,416.55,420.99,425.99,430.43,435.43,437.93,442.37,444.87,448.76,451.54,454.87,459.87,464.87,469.87,474.31,477.64,480.14,483.47,488.47,491.25,495.69,498.19,500.97,505.97,508.47,511.25,516.25,520.69" svgx:width="0.33,0.5,0.28,0.44,0.25,0.28,0.5,0.25,0.28,0.5,0.44,0.25,0.39,0.44,0.5,0.44,0.5,0.44,0.39,0.44,0.25,0.39,0.44,0.78,0.5,0.28,0.44,0.25,0.72,0.5,0.44,0.33,0.44,0.44,0.39,0.25,0.5,0.44,0.28,0.28,0.44,0.33,0.39,0.25,0.44,0.5,0.5,0.5,0.28,0.25,0.78,0.44,0.39,0.5,0.25,0.44,0.33,0.33,0.28,0.44,0.44,0.44,0.5,0.25,0.5,0.28,0.44,0.5,0.44,0.5,0.25,0.44,0.25,0.39,0.28,0.33,0.5,0.5,0.5,0.44,0.33,0.25,0.33,0.5,0.28,0.44,0.25,0.28,0.5,0.25,0.28,0.5,0.44,0.25" style="fill:rgb(0,0,0);font-family:Times-Roman;font-size:10.0px;stroke:none;">role in the Japanese sample whereas beliefs about mask efficacy played a stronger role in the </text>
   <text y="436.67" x="150.0,158.89,163.18,168.18,170.96,175.4,179.84,184.84,187.34,191.23,195.67,203.45,208.45,211.23,215.67,218.17,220.67,225.98,230.98,233.48,237.37,242.37,250.15,254.59,257.09,262.09,266.38,271.38,274.71,279.15,283.59,286.09,288.59,291.37,296.37,300.81,304.14,308.58,311.91,316.91,320.24,324.68,327.18,329.68,334.68,337.46,340.54,343.87,348.31,351.64,356.08,361.08,363.86,366.36,369.59,374.03,378.47,381.25,386.25,389.58,393.47,395.97,403.75,408.75,411.53,414.06,418.81,423.25,426.03,430.47,432.97,440.75,445.19,449.08,454.08,456.58,461.58,465.47,469.91,472.41,475.19,480.19,482.69,485.47,490.47,494.91" svgx:width="0.89,0.44,0.5,0.28,0.44,0.44,0.5,0.25,0.39,0.44,0.78,0.5,0.28,0.44,0.25,0.25,0.61,0.5,0.25,0.39,0.5,0.78,0.44,0.25,0.5,0.44,0.5,0.33,0.44,0.44,0.25,0.25,0.28,0.5,0.44,0.33,0.44,0.33,0.5,0.33,0.44,0.25,0.25,0.5,0.28,0.33,0.33,0.44,0.33,0.44,0.5,0.28,0.25,0.33,0.44,0.44,0.28,0.5,0.33,0.39,0.25,0.78,0.5,0.28,0.28,0.5,0.44,0.28,0.44,0.25,0.78,0.44,0.39,0.5,0.25,0.5,0.39,0.44,0.25,0.28,0.5,0.25,0.28,0.5,0.44,0.25" style="fill:rgb(0,0,0);font-family:Times-Roman;font-size:10.0px;stroke:none;">Mexican sample. To some degree, therefore, different factors motivate mask use in the </text>
   <text y="450.67" x="150.0,155.0,157.78,160.86,164.19,168.63,171.96,176.4,181.4,184.18,186.68,191.12,196.12,201.12,206.12,208.9,212.23,215.01,219.45,223.34,225.84,228.34,234.45,239.45,242.23,246.12,248.62,253.62,256.4,259.48,262.81,267.25,270.58,275.02,280.02,284.46,288.9,291.4,295.84,300.28,305.28,307.78,312.22,315.0,318.89,323.89,326.39,331.39,335.83,338.33,341.11,343.89,346.67,351.67,355.56,358.34,361.67,366.11,368.89,373.33,378.33,380.83,385.83,390.83,393.33,398.33,401.11,404.19,407.52,411.96,415.29,419.73,424.73,429.17,433.61,437.5,440.0,442.78,447.78,450.28,453.06,458.06,462.5,465.0,467.78,472.78,477.78,482.22,486.11,488.61,493.61,496.94" svgx:width="0.5,0.28,0.33,0.33,0.44,0.33,0.44,0.5,0.28,0.25,0.44,0.5,0.5,0.5,0.28,0.33,0.28,0.44,0.39,0.25,0.25,0.61,0.5,0.28,0.39,0.25,0.5,0.28,0.33,0.33,0.44,0.33,0.44,0.5,0.44,0.44,0.25,0.44,0.44,0.5,0.25,0.44,0.28,0.39,0.5,0.25,0.5,0.44,0.25,0.28,0.28,0.28,0.5,0.39,0.28,0.33,0.44,0.28,0.44,0.5,0.25,0.5,0.5,0.25,0.5,0.28,0.33,0.33,0.44,0.33,0.44,0.5,0.44,0.44,0.39,0.25,0.28,0.5,0.25,0.28,0.5,0.44,0.25,0.28,0.5,0.5,0.44,0.39,0.25,0.5,0.33,0.25" style="fill:rgb(0,0,0);font-family:Times-Roman;font-size:10.0px;stroke:none;">different countries. This difference can also be illustrated by differences in the types of </text>
   <text y="464.67" x="150.0,153.33,157.77,162.21,166.1,171.1,176.1,179.99,182.49,187.49,190.02,194.87,199.31,204.31,206.81,211.81,216.81,219.31,222.64,227.08,230.97,233.75,238.75,243.19,248.19,250.97,254.86,257.36,264.58,269.58,274.58,277.08,280.97,285.41,288.19,293.19,295.69,298.47,303.47,307.76,312.76,315.26,320.26,324.7,329.7,332.2,337.2,342.2,344.98,347.48,354.6,359.6,362.93,367.93,370.43,374.87,377.37,385.15,389.59,393.48,398.48,400.98,403.48,407.92,411.81,414.31,418.2,423.2,427.95,435.17,440.17,442.67,445.45,450.45,452.95,458.26,462.7,467.7,470.48,474.92,477.42,482.42" svgx:width="0.33,0.44,0.44,0.39,0.5,0.5,0.39,0.25,0.5,0.28,0.5,0.44,0.5,0.25,0.5,0.5,0.25,0.33,0.44,0.39,0.28,0.5,0.44,0.5,0.28,0.39,0.25,0.72,0.5,0.5,0.25,0.39,0.44,0.28,0.5,0.25,0.28,0.5,0.44,0.5,0.25,0.5,0.44,0.5,0.25,0.5,0.5,0.28,0.25,0.72,0.5,0.33,0.5,0.25,0.44,0.25,0.78,0.44,0.39,0.5,0.25,0.25,0.44,0.39,0.25,0.39,0.5,0.5,0.72,0.5,0.25,0.28,0.5,0.25,0.61,0.44,0.5,0.28,0.44,0.25,0.5,0.25" style="fill:rgb(0,0,0);font-family:Times-Roman;font-size:10.0px;stroke:none;">reasons given by residents who said they had not worn a mask, as shown in Table 6.</text>
  </g>
  <g begin="text">
   <text y="488.67" x="150.0,153.33,158.33,160.83,163.61,168.61,173.05,175.55,179.44,183.88,188.88,193.32,198.32,202.76,206.65,211.09,213.59,217.48,221.92,229.7,234.7,237.48,241.92,244.42,249.42,254.42,259.42,261.92,265.25,269.69,273.58,278.58,283.58,288.58,293.58,298.02,303.02,305.8,309.69,312.19,317.19,321.63,326.63,329.13,334.13,339.13,341.91,344.41,351.53,356.53,359.86,364.86,367.36,371.8,374.3,382.08,386.52,390.41,395.41,397.91,402.91,407.91,411.24,414.02,419.02,424.02,426.52,430.96,434.85,439.85,443.08,447.52,450.3,453.08,455.58,460.02,465.02,470.02,472.52,475.3,480.3,484.74,487.24,495.02,500.02,503.91,506.69" svgx:width="0.33,0.5,0.25,0.28,0.5,0.44,0.25,0.39,0.44,0.5,0.44,0.5,0.44,0.39,0.44,0.25,0.39,0.44,0.78,0.5,0.28,0.44,0.25,0.5,0.5,0.5,0.25,0.33,0.44,0.39,0.5,0.5,0.5,0.5,0.44,0.5,0.28,0.39,0.25,0.5,0.44,0.5,0.25,0.5,0.5,0.28,0.25,0.72,0.5,0.33,0.5,0.25,0.44,0.25,0.78,0.44,0.39,0.5,0.25,0.5,0.5,0.33,0.28,0.5,0.5,0.25,0.44,0.39,0.5,0.33,0.44,0.28,0.28,0.25,0.44,0.5,0.5,0.25,0.28,0.5,0.44,0.25,0.78,0.5,0.39,0.28,0.25" style="fill:rgb(0,0,0);font-family:Times-Roman;font-size:10.0px;stroke:none;">In the Japanese sample 243 respondents had not worn a mask during ashfall and the most </text>
   <text y="502.67" x="150.0,154.44,159.44,167.22,175.0,180.0,185.0,187.5,190.83,195.27,199.71,203.6,208.6,213.6,217.49,219.99,227.21,231.65,234.98,239.42,241.92,244.7,249.7,254.14,256.92,259.42,262.2,267.2,271.49,276.49,278.99,283.99,288.43,293.43,295.93,300.93,305.12,309.97,314.41,317.74,320.24,324.68,329.68,334.68,338.57,341.35,346.35,350.79,354.12,358.56,363.56,366.06,373.28,377.72,382.16,385.49,388.27,393.27,398.27,400.77,405.21,407.71,415.49,419.93,423.82,428.82,431.32,434.65,439.65,444.65,447.15,452.15,460.48,463.81,466.31,471.31,474.64,477.14,479.92,484.92,489.36,492.14,494.64,497.42,502.42,506.86" svgx:width="0.44,0.5,0.78,0.78,0.5,0.5,0.25,0.33,0.44,0.44,0.39,0.5,0.5,0.39,0.25,0.72,0.44,0.33,0.44,0.25,0.28,0.5,0.44,0.28,0.25,0.28,0.5,0.44,0.5,0.25,0.5,0.44,0.5,0.25,0.5,0.44,0.5,0.44,0.33,0.25,0.44,0.5,0.5,0.39,0.28,0.5,0.44,0.33,0.44,0.5,0.25,0.72,0.44,0.44,0.33,0.28,0.5,0.5,0.25,0.44,0.25,0.78,0.44,0.39,0.5,0.25,0.33,0.5,0.5,0.25,0.5,0.83,0.33,0.25,0.5,0.33,0.25,0.28,0.5,0.44,0.28,0.25,0.28,0.5,0.44,0.25" style="fill:rgb(0,0,0);font-family:Times-Roman;font-size:10.0px;stroke:none;">common reasons were that they had never considered wearing a mask (46.1%) or that the </text>
   <text y="516.67" x="150.0,157.78,162.22,166.11,171.11,173.61,180.73,185.73,190.73,193.51,198.51,201.01,205.45,208.53,211.86,216.3,220.74,223.52,226.02,228.8,233.8,238.24,241.02,244.35,246.85,251.85,255.18,259.62,264.06,266.84,271.84,274.62,279.62,284.62,287.12,290.45,295.45,300.45,302.95,307.95,316.28,319.61,322.11,324.61,331.83,335.16,340.16,345.16,350.16,355.16,357.66,362.1,364.6,367.38,372.38,375.16,378.49,383.49,385.99,390.99,394.32,396.82,399.6,404.6,409.04,411.54,415.43,419.87,427.65,432.65,435.43,439.87,442.37,449.59,454.59,459.59,462.09,467.09,469.87,474.87,477.37,482.37,487.37,490.15,492.65,499.87,504.31,508.75,512.08,514.58,519.02" svgx:width="0.78,0.44,0.39,0.5,0.25,0.72,0.5,0.5,0.28,0.5,0.25,0.44,0.33,0.33,0.44,0.44,0.28,0.25,0.28,0.5,0.44,0.28,0.33,0.25,0.5,0.33,0.44,0.44,0.28,0.5,0.28,0.5,0.5,0.25,0.33,0.5,0.5,0.25,0.5,0.83,0.33,0.25,0.25,0.72,0.33,0.5,0.5,0.5,0.5,0.25,0.44,0.25,0.28,0.5,0.28,0.33,0.5,0.25,0.5,0.33,0.25,0.28,0.5,0.44,0.25,0.39,0.44,0.78,0.5,0.28,0.44,0.25,0.72,0.5,0.5,0.25,0.5,0.28,0.5,0.25,0.5,0.5,0.28,0.25,0.72,0.44,0.44,0.33,0.25,0.44,0.25" style="fill:rgb(0,0,0);font-family:Times-Roman;font-size:10.0px;stroke:none;">mask would affect their breathing (41.2%). Around a third of the sample who did not wear a </text>
   <text y="530.67" x="150.0,157.78,162.22,166.11,171.11,173.61,178.05,183.05,188.05,191.94,194.72,199.72,204.16,207.49,211.93,216.93,219.43,227.21,231.65,235.54,240.54,244.43,246.93,251.37,255.26,257.76,260.54,265.54,269.98,274.98,279.58,284.43,288.87,293.87,296.65,301.09,306.09,308.87,311.37,314.15,319.15,321.65,326.09,330.53,333.86,337.19,342.19,344.69,349.13,352.46,357.46,362.46,367.46,372.46,374.96,378.29,383.29,388.29,390.79,395.79,404.12,407.45,409.95,414.39,419.39,424.39,426.89,431.33,434.66,439.66,444.66,449.66,454.66,457.16,461.6,464.1,469.1,474.1,478.54,481.87,484.65,489.09,492.42,494.92,502.14,506.58,509.91,514.35" svgx:width="0.78,0.44,0.39,0.5,0.25,0.44,0.5,0.5,0.39,0.28,0.5,0.44,0.33,0.44,0.5,0.25,0.78,0.44,0.39,0.5,0.39,0.25,0.44,0.39,0.25,0.28,0.5,0.44,0.5,0.5,0.5,0.44,0.5,0.28,0.44,0.5,0.28,0.25,0.28,0.5,0.25,0.44,0.44,0.33,0.33,0.5,0.25,0.44,0.33,0.5,0.5,0.5,0.5,0.25,0.33,0.5,0.5,0.25,0.5,0.83,0.33,0.25,0.44,0.5,0.5,0.25,0.44,0.33,0.5,0.5,0.5,0.5,0.25,0.44,0.25,0.5,0.5,0.44,0.33,0.28,0.44,0.33,0.25,0.72,0.44,0.33,0.44,0.25" style="fill:rgb(0,0,0);font-family:Times-Roman;font-size:10.0px;stroke:none;">mask considered masks as inconvenient to carry around (33.7%) and around a quarter were </text>
   <text y="544.67" x="150.0,155.0,160.0,162.78,165.28,170.28,175.28,178.06,183.06,187.5,190.83,195.27,200.27,202.77,207.77,212.77,215.27,220.27,223.6,228.04,232.48,235.26,240.26,243.04,248.04,253.04,255.54,258.32,263.32,265.82,268.6,273.6,278.04,280.54,284.98,288.87,293.87,296.37,299.7,304.7,309.7,312.2,317.2,325.53,328.86,331.36,335.8,340.8,345.8,348.58,353.58,356.91,359.41,362.19,367.19,372.19,377.19,382.19,387.19,389.97,392.47,400.25,404.69,408.58,413.58,417.47,419.97,427.19,431.63,434.96,439.4,441.9,446.9,451.9,456.34,461.34,469.12,472.45,477.45,480.78,483.56,488.0,493.0,495.78,500.22" svgx:width="0.5,0.5,0.28,0.25,0.5,0.5,0.28,0.5,0.44,0.33,0.44,0.5,0.25,0.5,0.5,0.25,0.5,0.33,0.44,0.44,0.28,0.5,0.28,0.5,0.5,0.25,0.28,0.5,0.25,0.28,0.5,0.44,0.25,0.44,0.39,0.5,0.25,0.33,0.5,0.5,0.25,0.5,0.83,0.33,0.25,0.44,0.5,0.5,0.28,0.5,0.33,0.25,0.28,0.5,0.5,0.5,0.5,0.5,0.28,0.25,0.78,0.44,0.39,0.5,0.39,0.25,0.72,0.44,0.33,0.44,0.25,0.5,0.5,0.44,0.5,0.78,0.33,0.5,0.33,0.28,0.44,0.5,0.28,0.44,0.25" style="fill:rgb(0,0,0);font-family:Times-Roman;font-size:10.0px;stroke:none;">not bothered by breathing in the ash (24.7%) and/or thought masks were uncomfortable </text>
   <text y="558.67" x="150.0,153.33,158.33,163.33,165.83,170.83,179.16,182.49,184.99,187.49,194.71,199.71,202.49,206.93,211.93,214.71,219.06,221.56,224.06,227.95,232.39,235.17,238.5,241.83,246.27,249.35,252.48,255.26,259.7,264.14,268.43,273.43,275.93,280.37,285.37,290.37,292.87,297.31,302.31,306.2,308.98,311.48,316.48,319.81,322.31,326.75,331.19,335.63,340.07,343.96,347.85,350.63,355.63,358.41,361.19,363.97,366.75,371.75,374.25,377.03,380.92,384.81,389.81,394.25,398.14,400.64,407.86,412.3,415.63,420.07,422.57,427.57,432.57,435.35,437.85,441.18,444.51,448.95,453.95,458.95,463.39,468.39,471.17,473.95,478.95,481.45,486.45,488.98,493.83,498.27,503.27" svgx:width="0.33,0.5,0.5,0.25,0.5,0.83,0.33,0.25,0.25,0.72,0.5,0.28,0.44,0.5,0.28,0.5,0.25,0.25,0.39,0.44,0.28,0.33,0.33,0.44,0.33,0.33,0.28,0.44,0.44,0.44,0.5,0.25,0.44,0.5,0.5,0.25,0.44,0.5,0.39,0.28,0.25,0.5,0.33,0.25,0.44,0.44,0.44,0.44,0.39,0.39,0.28,0.5,0.28,0.28,0.28,0.28,0.5,0.25,0.28,0.39,0.39,0.5,0.44,0.39,0.25,0.72,0.44,0.33,0.44,0.25,0.5,0.5,0.28,0.25,0.33,0.33,0.44,0.5,0.5,0.44,0.5,0.28,0.28,0.5,0.25,0.5,0.28,0.5,0.44,0.5,0.25" style="fill:rgb(0,0,0);font-family:Times-Roman;font-size:10.0px;stroke:none;">(24.7%). Notably, self-efficacy and cost or accessibility issues were not frequently given </text>
   <text y="572.67" x="150.0,153.33,157.77,162.21,166.1,171.1,176.1,179.99,182.49,184.99,192.21,197.21,199.99,204.99,207.49,212.49,214.99,219.99,228.32,230.82,235.82,239.15,241.65,244.98,249.42,253.31,258.31,263.31,268.31,273.31,277.75,282.75,285.53,289.42,291.92,296.87,301.11,305.96,310.4,312.9,315.68,320.68,325.12,327.62,330.95,335.39,339.83,343.72,348.72,353.72,356.22,359.0,364.0,368.44,371.22,373.72,380.94,385.38,389.82,393.15,395.93,400.93,405.93,408.43,412.87,415.37,423.15,427.59,431.48,436.48,438.98,446.1,450.54,454.43,456.93,461.93,464.71,467.79,470.92,473.7,478.14,483.14,485.92,488.7,491.2,495.64,500.64,505.64" svgx:width="0.33,0.44,0.44,0.39,0.5,0.5,0.39,0.25,0.25,0.72,0.5,0.28,0.5,0.25,0.5,0.25,0.5,0.83,0.25,0.5,0.33,0.25,0.33,0.44,0.39,0.5,0.5,0.5,0.5,0.44,0.5,0.28,0.39,0.25,0.5,0.44,0.5,0.44,0.25,0.28,0.5,0.44,0.25,0.33,0.44,0.44,0.39,0.5,0.5,0.25,0.28,0.5,0.44,0.28,0.25,0.72,0.44,0.44,0.33,0.28,0.5,0.5,0.25,0.44,0.25,0.78,0.44,0.39,0.5,0.25,0.72,0.44,0.39,0.25,0.5,0.28,0.33,0.33,0.28,0.44,0.5,0.28,0.28,0.25,0.44,0.5,0.5,0.25" style="fill:rgb(0,0,0);font-family:Times-Roman;font-size:10.0px;stroke:none;">reasons. Only 4.2% of respondents gave the reason that wearing a mask was difficult and </text>
   <text y="586.67" x="150.0,155.0,160.0,162.78,167.78,170.28,175.28,177.78,182.78,191.11,193.61,198.61,201.94,204.44,207.77,212.21,216.1,221.1,226.1,231.1,236.1,240.54,245.54,248.32,252.21,254.71,259.66,263.9,268.75,273.19,275.69,278.47,283.47,287.91,290.41,293.74,298.18,302.62,306.51,311.51,316.51,319.01,321.79,326.79,331.23,334.01,336.51,344.29,348.73,352.62,357.62,361.51,364.01,371.23,375.67,379.0,383.44,385.94,388.72,393.72,398.72,401.22,405.51,410.51,415.51,419.95,424.95,428.84,431.37,436.22,440.66,443.16,445.66,450.66,453.16,458.16,466.49,468.99,471.77,476.77,481.21,483.99,486.49,489.27,494.27,498.56,503.56" svgx:width="0.5,0.5,0.28,0.5,0.25,0.5,0.25,0.5,0.83,0.25,0.5,0.33,0.25,0.33,0.44,0.39,0.5,0.5,0.5,0.5,0.44,0.5,0.28,0.39,0.25,0.5,0.44,0.5,0.44,0.25,0.28,0.5,0.44,0.25,0.33,0.44,0.44,0.39,0.5,0.5,0.25,0.28,0.5,0.44,0.28,0.25,0.78,0.44,0.39,0.5,0.39,0.25,0.72,0.44,0.33,0.44,0.25,0.28,0.5,0.5,0.25,0.44,0.5,0.5,0.44,0.5,0.39,0.28,0.5,0.44,0.25,0.25,0.5,0.25,0.5,0.83,0.25,0.28,0.5,0.44,0.28,0.25,0.28,0.5,0.44,0.5,0.25" style="fill:rgb(0,0,0);font-family:Times-Roman;font-size:10.0px;stroke:none;">only 1.2% of respondents gave the reason that masks were too expensive, 0.8% that they </text>
   <text y="600.67" x="150.0,157.22,161.66,164.99,169.43,171.93,176.93,181.93,184.71,187.21,191.65,196.09,199.98,202.76,205.54,210.54,213.04,217.28,222.03,226.47,229.25,232.03,236.47,241.47,244.25,248.69,251.19,255.63,260.63,265.63,268.13,273.13,278.13,280.63,285.63,290.63,295.07,297.57,301.46,305.9,308.68,313.68,316.18,318.96,323.96,328.4,331.18,333.68,336.46,341.46,345.75,350.75,353.25,358.25,361.03,366.03,368.53,373.53,378.53,381.31,383.81,388.81,393.81,398.56,405.78,408.28,415.5,420.5,424.94,428.27,432.71,435.21,437.99,442.99,445.49,450.49,454.93,457.71,460.21,464.65,467.15,474.93,479.37,483.26,488.26,490.76,494.09,497.42,502.42,510.2,512.7" svgx:width="0.72,0.44,0.33,0.44,0.25,0.5,0.5,0.28,0.25,0.44,0.44,0.39,0.28,0.28,0.5,0.25,0.44,0.5,0.44,0.28,0.28,0.44,0.5,0.28,0.44,0.25,0.44,0.5,0.5,0.25,0.5,0.5,0.25,0.5,0.5,0.44,0.25,0.39,0.44,0.28,0.5,0.25,0.28,0.5,0.44,0.28,0.25,0.28,0.5,0.44,0.5,0.25,0.5,0.28,0.5,0.25,0.5,0.5,0.28,0.25,0.5,0.5,0.5,0.72,0.25,0.72,0.5,0.44,0.33,0.44,0.25,0.28,0.5,0.25,0.5,0.44,0.28,0.25,0.44,0.25,0.78,0.44,0.39,0.5,0.25,0.33,0.33,0.5,0.78,0.25,0.25" style="fill:rgb(0,0,0);font-family:Times-Roman;font-size:10.0px;stroke:none;">were not easily available and no one said that they did not know where to get a mask from. </text>
   <text y="614.67" x="150.0,156.67,161.11,163.89,168.89,173.89,176.39,181.39,186.39,189.62,194.06,197.95,202.95,205.73,210.73,215.73,220.17,225.17,227.95,232.39,234.89,238.22,243.22,245.72,250.72,259.05,262.38,264.88,269.88,273.21,275.71,280.15,287.93,292.93,297.37,300.7,304.03,308.47,312.36,316.25,319.03,324.03,329.03,331.53,334.31,339.31,341.81,349.03,353.47,357.91,361.24,363.74,367.07,372.07,374.57,379.57,387.9,391.23,393.73,400.95,405.39,408.72,413.16,415.66,420.1,422.88,426.77,431.77,434.27,437.6,442.04,445.37,449.81,452.59,457.59,460.09,465.09,467.62,472.47,476.91,481.91,484.41,487.74,492.18,496.62,500.51,505.51,510.51,514.4" svgx:width="0.67,0.44,0.28,0.5,0.5,0.25,0.5,0.5,0.33,0.44,0.39,0.5,0.28,0.5,0.5,0.44,0.5,0.28,0.44,0.25,0.33,0.5,0.25,0.5,0.83,0.33,0.25,0.5,0.33,0.25,0.44,0.78,0.5,0.44,0.33,0.33,0.44,0.39,0.39,0.28,0.5,0.5,0.25,0.28,0.5,0.25,0.72,0.44,0.44,0.33,0.25,0.33,0.5,0.25,0.5,0.83,0.33,0.25,0.72,0.44,0.33,0.44,0.25,0.44,0.28,0.39,0.5,0.25,0.33,0.44,0.33,0.44,0.28,0.5,0.25,0.5,0.28,0.5,0.44,0.5,0.25,0.33,0.44,0.44,0.39,0.5,0.5,0.39,0.25" style="fill:rgb(0,0,0);font-family:Times-Roman;font-size:10.0px;stroke:none;">Being unfashionable (3.7%) or embarrassing to wear (4.1%) were also rarely given reasons.</text>
  </g>
  <g begin="text">
   <text y="638.67" x="150.0,153.33,158.33,160.83,163.61,168.61,173.05,175.55,184.44,188.73,193.73,196.51,200.95,205.39,210.39,212.89,216.78,221.22,229.0,234.0,236.78,241.22,243.72,248.72,253.72,258.72,261.22,266.22,270.66,275.66,280.66,283.44,287.88,290.38,295.38,299.82,304.82,307.32,312.32,317.32,320.1,322.6,329.72,334.72,338.05,343.05,345.55,353.33,357.77,361.66,366.66,370.55,373.05,377.49,382.49,387.49,389.99,394.99,399.99,402.77,405.27,410.27,414.51,419.51,422.29,427.29,432.29,434.79,439.23,441.73,449.51,453.95,457.84,462.84,465.34,472.46,476.9,480.79,483.29,486.07,491.07,495.51,498.01,505.79,510.79,514.68,517.46" svgx:width="0.33,0.5,0.25,0.28,0.5,0.44,0.25,0.89,0.44,0.5,0.28,0.44,0.44,0.5,0.25,0.39,0.44,0.78,0.5,0.28,0.44,0.25,0.5,0.5,0.5,0.25,0.5,0.44,0.5,0.5,0.28,0.44,0.25,0.5,0.44,0.5,0.25,0.5,0.5,0.28,0.25,0.72,0.5,0.33,0.5,0.25,0.78,0.44,0.39,0.5,0.39,0.25,0.44,0.5,0.5,0.25,0.5,0.5,0.28,0.25,0.5,0.44,0.5,0.28,0.5,0.5,0.25,0.44,0.25,0.78,0.44,0.39,0.5,0.25,0.72,0.44,0.39,0.25,0.28,0.5,0.44,0.25,0.78,0.5,0.39,0.28,0.25" style="fill:rgb(0,0,0);font-family:Times-Roman;font-size:10.0px;stroke:none;">In the Mexican sample 249 people had not worn masks and not having a mask was the most </text>
   <text y="652.67" x="150.0,154.44,159.44,167.22,175.0,180.0,185.0,187.5,190.83,195.27,199.71,203.6,208.6,213.6,216.1,219.43,224.43,229.43,231.93,236.93,245.26,248.59,251.09,253.59,260.26,265.26,273.04,276.37,281.37,284.7,287.48,289.98,297.1,301.54,305.43,307.93,312.37,315.15,319.04,324.04,326.54,330.98,335.98,338.48,341.26,349.04,354.04,359.04,362.37,365.15,369.59,374.59,377.37,379.87,383.1,387.54,391.98,394.76,399.76,403.09,405.59,408.92,413.92,418.92,421.42,426.42,434.75,438.08,440.58,445.02,450.02,455.02,457.52,460.02,462.8,467.8,470.3,474.74,477.24,480.02,484.46,488.35,492.24,496.68,500.01" svgx:width="0.44,0.5,0.78,0.78,0.5,0.5,0.25,0.33,0.44,0.44,0.39,0.5,0.5,0.25,0.33,0.5,0.5,0.25,0.5,0.83,0.33,0.25,0.25,0.67,0.5,0.78,0.33,0.5,0.33,0.28,0.25,0.72,0.44,0.39,0.25,0.44,0.28,0.39,0.5,0.25,0.44,0.5,0.25,0.28,0.78,0.5,0.5,0.33,0.28,0.44,0.5,0.28,0.25,0.33,0.44,0.44,0.28,0.5,0.33,0.25,0.33,0.5,0.5,0.25,0.5,0.83,0.33,0.25,0.44,0.5,0.5,0.25,0.25,0.28,0.5,0.25,0.44,0.25,0.28,0.44,0.39,0.39,0.44,0.33,0.25" style="fill:rgb(0,0,0);font-family:Times-Roman;font-size:10.0px;stroke:none;">common reason (57.3%). Comfort was also an important factor (42.6%) and, to a lesser </text>
   <text y="666.67" x="150.0,155.0,159.29,164.29,167.62,172.06,176.5,179.0,181.5,184.73,189.17,193.61,196.39,201.39,204.72,208.61,211.11,215.0,220.0,224.44,229.44,231.94,236.38,240.27,242.77,245.55,250.55,254.99,257.49,262.49,266.93,270.26,274.7,279.14,284.14,286.92,289.7,294.7,299.7,303.59,306.09,308.87,313.87,318.31,321.09,323.59,328.59,333.59,336.09,341.09,346.09,350.53,353.03,357.47,360.25,364.14,368.58,371.08,378.2,382.64,386.53,389.03,396.25,400.69,405.13,408.46,411.24,416.24,421.24,423.74,428.18,430.68,438.46,442.9,446.79,451.79,454.29,457.62,462.62,467.62,470.12,475.12,483.45,486.78,489.28" svgx:width="0.5,0.44,0.5,0.33,0.44,0.44,0.25,0.25,0.33,0.44,0.44,0.28,0.5,0.33,0.39,0.25,0.39,0.5,0.44,0.5,0.25,0.44,0.39,0.25,0.28,0.5,0.44,0.25,0.5,0.44,0.33,0.44,0.44,0.5,0.28,0.28,0.5,0.5,0.39,0.25,0.28,0.5,0.44,0.28,0.25,0.5,0.5,0.25,0.5,0.5,0.44,0.25,0.44,0.28,0.39,0.44,0.25,0.72,0.44,0.39,0.25,0.72,0.44,0.44,0.33,0.28,0.5,0.5,0.25,0.44,0.25,0.78,0.44,0.39,0.5,0.25,0.33,0.5,0.5,0.25,0.5,0.83,0.33,0.25,0.25" style="fill:rgb(0,0,0);font-family:Times-Roman;font-size:10.0px;stroke:none;">degree, factors such as the perceptions that no one else was wearing a mask (34.9%). </text>
   <text y="680.67" x="150.0,157.22,160.55,165.55,170.55,175.55,180.55,183.05,187.49,189.99,194.99,199.99,204.43,207.76,210.54,214.98,218.31,220.81,223.59,228.59,231.09,235.53,238.03,240.81,245.81,248.59,251.92,256.92,259.42,264.42,267.75,270.25,273.03,278.03,283.03,286.92,291.36,293.86,301.08,306.08,311.08,313.58,318.58,321.36,326.36,328.86,333.86,338.86,341.64,344.14,351.36,355.8,360.24,363.57,366.07,370.51,373.01,380.79,385.23,389.12,394.12,396.62,401.62,406.06,411.06,413.56,416.34,421.34,425.23,428.01,430.51,435.51,440.51,443.29,445.79,450.23,455.23,460.23,464.12,466.9,471.9,476.34,479.67,484.11,489.11" svgx:width="0.72,0.33,0.5,0.5,0.5,0.5,0.25,0.44,0.25,0.5,0.5,0.44,0.33,0.28,0.44,0.33,0.25,0.28,0.5,0.25,0.44,0.25,0.28,0.5,0.28,0.33,0.5,0.25,0.5,0.33,0.25,0.28,0.5,0.5,0.39,0.44,0.25,0.72,0.5,0.5,0.25,0.5,0.28,0.5,0.25,0.5,0.5,0.28,0.25,0.72,0.44,0.44,0.33,0.25,0.44,0.25,0.78,0.44,0.39,0.5,0.25,0.5,0.44,0.5,0.25,0.28,0.5,0.39,0.28,0.25,0.5,0.5,0.28,0.25,0.44,0.5,0.5,0.39,0.28,0.5,0.44,0.33,0.44,0.5,0.25" style="fill:rgb(0,0,0);font-family:Times-Roman;font-size:10.0px;stroke:none;">Around a quarter to a third of those who did not wear a mask had just not considered </text>
  </g>
  <g begin="text">
   <text y="44.72" x="78.0,83.336,87.216,91.096,94.528,98.528,100.528,104.08,106.304,108.304,111.856,114.08,116.08,496.568,500.896,504.448,508.448,512.0,514.0,518.0" svgx:width="0.67,0.5,0.5,0.44,0.5,0.25,0.44,0.28,0.25,0.44,0.28,0.25,0.55,0.56,0.44,0.5,0.44,0.25,0.5,0.5" style="fill:rgb(0,0,0);font-family:Times-Roman;font-size:8.0px;stroke:none;">Covey et al. Page 15</text>
  </g>
  <g begin="text">
   <text y="721.4" transform="matrix(1.0,0.0,0.0,1.0,0.0,0.0)" rotateDegrees="0" matrix="[8.0,0.0,2.59936,8.0,142.07199,70.6]" x="142.072,144.736,148.736,150.96,152.96,156.072,158.072,163.848,166.072,169.184,172.736,175.848,178.072,181.624,184.288,186.288,191.624,193.848,196.96,200.96,202.96,208.296,211.848,215.848,219.848,223.4,225.624,227.624,229.624,235.4,239.4,241.624,245.624,249.624,252.288,254.288,260.512,264.064,268.064,272.064,275.176,278.728,281.392,283.616,287.616,289.84,292.064,294.064,297.456,301.256,304.808,307.032,309.256,312.808,316.808,319.032,322.584,324.584,326.808,330.808,332.808,337.256,344.368,349.704,351.704,355.704,359.704,363.704,367.704,369.704,374.152,377.704,381.704,383.928,387.48,393.704,397.704,401.256,403.92,405.92,409.92,413.92" svgx:width="0.33,0.5,0.28,0.25,0.39,0.25,0.72,0.28,0.39,0.44,0.39,0.28,0.44,0.33,0.25,0.67,0.28,0.39,0.5,0.25,0.67,0.44,0.5,0.5,0.44,0.28,0.25,0.25,0.72,0.5,0.28,0.5,0.5,0.33,0.25,0.78,0.44,0.5,0.5,0.39,0.44,0.33,0.28,0.5,0.28,0.28,0.25,0.44,0.5,0.44,0.28,0.28,0.44,0.5,0.28,0.44,0.25,0.28,0.5,0.25,0.56,0.89,0.67,0.25,0.5,0.5,0.5,0.5,0.25,0.56,0.44,0.5,0.28,0.44,0.78,0.5,0.44,0.33,0.25,0.5,0.5,0.25" style="fill:rgb(0,0,0);font-family:Times-Roman;font-size:8.0px;stroke:none;">Int J Disaster Risk Reduct. Author manuscript; available in PMC 2019 September 04.</text>
  </g>
  <rect style="stroke:blue;stroke-width:0.3;" x="20.0" y="131.012" height="12.0" width="12.0" title="15"/>
  <text y="131.012" class="image" id="image.15.1" width="12" height="12" x="20.0">image.15.1.20_32.131_143</text>
  <g begin="text">
   <text y="135.012" transform="matrix(0.0,1.0,-1.0,0.0,155.012,115.012)" rotateDegrees="90" matrix="[0.0,-12.0,12.0,0.0,20.0,656.98804]" x="20.0,17.0,9.668000000000006,3.6680000000000064,-0.32800000000000296,-6.328000000000003,-12.328000000000003,-17.656000000000006,-20.656000000000006,-27.328000000000003,-37.99600000000001,-46.0,-49.0,-55.672,-61.672,-67.672,-73.672,-79.0,-82.99600000000001,-87.66399999999999,-90.66399999999999,-99.328,-105.32799999999997,-108.66399999999999,-114.66399999999999,-120.66399999999999,-124.66000000000003,-127.66000000000003,-138.32799999999997,-143.656,-149.656,-155.656,-160.324,-165.652,-169.64800000000002,-172.98399999999998,-178.98399999999998,-182.32" svgx:width="0.25,0.61,0.5,0.33,0.5,0.5,0.44,0.25,0.56,0.89,0.67,0.25,0.56,0.5,0.5,0.5,0.44,0.33,0.39,0.25,0.72,0.5,0.28,0.5,0.5,0.33,0.25,0.89,0.44,0.5,0.5,0.39,0.44,0.33,0.28,0.5,0.28,0.39" style="fill:rgb(90,89,94);font-family:Times-Roman;font-size:12.0px;stroke:none;"> Europe PMC Funders Author Manuscripts</text>
  </g>
  <rect style="stroke:blue;stroke-width:0.3;" x="20.0" y="422.0" height="12.0" width="12.0" title="15"/>
  <text y="422.0" class="image" id="image.15.2" width="12" height="12" x="20.0">image.15.2.20_32.422_434</text>
  <g begin="text">
   <text y="426.0" transform="matrix(0.0,1.0,-1.0,0.0,446.0,406.0)" rotateDegrees="90" matrix="[0.0,-12.0,12.0,0.0,20.0,366.00006]" x="20.0,17.0,9.668000000000006,3.6680000000000064,-0.32799999999997453,-6.3279999999999745,-12.327999999999975,-17.656000000000006,-20.656000000000006,-27.327999999999975,-37.99599999999998,-46.0,-49.0,-55.672000000000025,-61.672000000000025,-67.67200000000003,-73.67200000000003,-79.0,-82.99599999999998,-87.66399999999999,-90.66399999999999,-99.32799999999997,-105.32799999999997,-108.66399999999999,-114.66399999999999,-120.66399999999999,-124.65999999999997,-127.65999999999997,-138.32799999999997,-143.65599999999995,-149.65599999999995,-155.65599999999995,-160.32399999999996,-165.65200000000004,-169.64800000000002,-172.98400000000004,-178.98400000000004,-182.32000000000005" svgx:width="0.25,0.61,0.5,0.33,0.5,0.5,0.44,0.25,0.56,0.89,0.67,0.25,0.56,0.5,0.5,0.5,0.44,0.33,0.39,0.25,0.72,0.5,0.28,0.5,0.5,0.33,0.25,0.89,0.44,0.5,0.5,0.39,0.44,0.33,0.28,0.5,0.28,0.39" style="fill:rgb(90,89,94);font-family:Times-Roman;font-size:12.0px;stroke:none;"> Europe PMC Funders Author Manuscripts</text>
  </g>
  <path style="fill:none;stroke:rgb(90,89,94);stroke-width:1.0;" d="M35.500 36.000 L37.420 36.000 L37.420 720.000 L35.500 720.000 L33.580 720.000 L33.580 36.000 M35.500 36.000 L35.500 720.000 "/>
 </g>
</svg>
