<?xml version="1.0" encoding="UTF-8"?>
<svg height="731.4" width="4030.0" xmlns="http://www.w3.org/2000/svg">
 <g id="page" xmlns:svgx="http://www.xml-cml.org/schema/svgx">
  <g begin="text">
   <text y="70.4" x="150.0,156.11,161.11,165.55,168.05,173.05,177.49,182.49,186.93,191.93,196.93,201.37,206.37,209.15,211.65,216.4,220.84,224.17,226.95,231.39,236.39,239.17,243.61,247.5,250.0,257.22,261.66,264.99,269.43,271.93,279.71,284.15,288.59,292.48,297.48,300.81,305.25,310.25,312.75,317.75,322.75,325.25,329.69,332.47,335.25,340.25,344.69,348.02,350.52,354.96,357.46,362.46,365.24,369.68,374.68,379.68,382.46,387.46,395.24,400.24,405.24,409.13,411.63,416.63,419.96,422.46,427.46,430.79,435.79,438.57,443.57,448.01,450.79,453.29,457.18,461.62,466.06,468.84,473.28,476.06,478.56,481.34,486.34,490.78" svgx:width="0.61,0.5,0.44,0.25,0.5,0.44,0.5,0.44,0.5,0.5,0.44,0.5,0.28,0.25,0.5,0.44,0.33,0.28,0.44,0.5,0.28,0.44,0.39,0.25,0.72,0.44,0.33,0.44,0.25,0.78,0.44,0.44,0.39,0.5,0.33,0.44,0.5,0.25,0.5,0.5,0.25,0.44,0.28,0.28,0.5,0.44,0.33,0.25,0.44,0.25,0.5,0.28,0.44,0.5,0.5,0.28,0.5,0.78,0.5,0.5,0.39,0.25,0.5,0.33,0.25,0.5,0.33,0.5,0.28,0.5,0.44,0.28,0.25,0.39,0.44,0.44,0.28,0.44,0.28,0.25,0.28,0.5,0.44,0.25" style="fill:rgb(0,0,0);font-family:Times-Roman;font-size:10.0px;stroke:none;">The dependent variables were measured on either a dichotomous or ordinal scale; the </text>
   <text y="84.4" x="150.0,152.78,157.78,162.78,167.22,172.22,176.66,181.66,186.66,191.1,196.1,198.88,201.38,206.13,210.57,213.9,216.68,221.12,226.12,228.9,233.34,237.23,239.73,244.17,247.5,251.94,254.44,259.44,262.77,267.77,270.55,275.55,279.99,282.77,285.27,288.6,293.04,298.04,302.48,304.98,307.48,311.92,316.92,321.92,326.36,330.8,333.58,336.36,341.36,346.36,348.86,351.64,355.83,360.68,365.12,367.9,371.23,373.73,378.73,382.06,384.56,389.0,393.44,396.22,400.51,405.51,410.51,413.84,416.62,421.06,425.5,428.28,430.78,434.11,438.55,443.55,448.55,453.55,456.33,459.66,464.01,466.51,469.01,474.01,478.45,483.45,488.45,492.89,495.82,498.32" svgx:width="0.28,0.5,0.5,0.44,0.5,0.44,0.5,0.5,0.44,0.5,0.28,0.25,0.5,0.44,0.33,0.28,0.44,0.5,0.28,0.44,0.39,0.25,0.44,0.33,0.44,0.25,0.5,0.33,0.5,0.28,0.5,0.44,0.28,0.25,0.33,0.44,0.5,0.44,0.25,0.25,0.44,0.5,0.5,0.44,0.44,0.28,0.28,0.5,0.5,0.25,0.28,0.44,0.5,0.44,0.28,0.33,0.25,0.5,0.33,0.25,0.44,0.44,0.28,0.44,0.5,0.5,0.33,0.28,0.44,0.44,0.28,0.25,0.33,0.44,0.5,0.5,0.5,0.28,0.33,0.5,0.25,0.25,0.5,0.44,0.5,0.5,0.44,0.33,0.25,0.25" style="fill:rgb(0,0,0);font-family:Times-Roman;font-size:10.0px;stroke:none;">independent variables are ordinal (age, education level) or categorical (country, gender, </text>
   <text y="98.4" x="150.0,153.33,157.77,161.66,166.66,169.44,172.77,177.21,179.99,184.99,188.32,193.32,195.82,198.6,201.38,204.16,209.16,213.6,217.49,221.38,224.71,227.49,229.99,234.43,239.43,244.43,246.93,249.71,254.71,259.15,262.48,266.92,269.42,272.2,276.09,278.59,283.59,288.59,291.09,298.87,303.87,306.65,309.43,312.21,316.65,321.65,324.43,327.21,329.99,334.99,339.43,343.87,347.2,349.98,352.76,357.76,360.26,365.26,369.7,372.48,379.7,384.14,388.58,393.58,396.08,398.86,403.86,408.3,410.8,413.58,418.58,423.58,428.02,433.02,437.46,442.46,447.46,451.9,456.9,459.68,462.18,466.93,471.37,474.7,477.48,481.92,486.92,489.7,494.14,498.03" svgx:width="0.33,0.44,0.39,0.5,0.28,0.33,0.44,0.28,0.5,0.33,0.5,0.25,0.28,0.28,0.28,0.5,0.44,0.39,0.39,0.33,0.28,0.25,0.44,0.5,0.5,0.25,0.28,0.5,0.44,0.33,0.44,0.25,0.28,0.39,0.25,0.5,0.5,0.25,0.78,0.5,0.28,0.28,0.28,0.44,0.5,0.28,0.28,0.28,0.5,0.44,0.44,0.33,0.28,0.28,0.5,0.25,0.5,0.44,0.28,0.72,0.44,0.44,0.5,0.25,0.28,0.5,0.44,0.25,0.28,0.5,0.5,0.44,0.5,0.44,0.5,0.5,0.44,0.5,0.28,0.25,0.5,0.44,0.33,0.28,0.44,0.5,0.28,0.44,0.39,0.25" style="fill:rgb(0,0,0);font-family:Times-Roman;font-size:10.0px;stroke:none;">respiratory illness); and there is no multicollinearity between the independent variables </text>
   <text y="112.4" x="150.0,153.33,159.44,163.88,167.21,169.99,174.43,179.43,183.87,188.31,190.81,194.14,199.14,202.47,205.25,209.69,212.47,215.25,220.25,225.25,227.75,233.16,237.6,242.04,244.82,249.82,253.15,257.04,259.54,262.87,270.09,273.42,278.98,282.87,286.2,288.7,295.92,300.36,303.69,308.13,310.63,315.63,320.63,323.13,328.13,331.46,335.9,340.34,343.12,347.56,350.89,353.39,356.17,361.17,365.61,370.61,373.11,378.11,380.61,385.61,390.61,393.94,396.72,399.22,402.0,407.0,411.44,414.77,419.21,421.71,424.49,428.38,430.88,435.32,437.82,440.6,443.38,448.38,452.82,457.26,460.59,463.09,466.42,470.86,473.64,478.08,480.86,483.64,488.64,493.64,497.53,502.53,505.31,510.31" svgx:width="0.33,0.72,0.44,0.33,0.28,0.44,0.5,0.44,0.44,0.25,0.33,0.5,0.33,0.28,0.44,0.28,0.28,0.5,0.5,0.25,0.56,0.44,0.44,0.28,0.5,0.33,0.39,0.25,0.33,0.72,0.33,0.56,0.39,0.33,0.25,0.72,0.44,0.33,0.44,0.25,0.5,0.5,0.25,0.5,0.33,0.44,0.44,0.28,0.44,0.33,0.25,0.28,0.5,0.44,0.5,0.25,0.5,0.25,0.5,0.5,0.33,0.28,0.25,0.28,0.5,0.44,0.33,0.44,0.25,0.28,0.39,0.25,0.44,0.25,0.28,0.28,0.5,0.44,0.44,0.33,0.25,0.33,0.44,0.28,0.44,0.28,0.28,0.5,0.5,0.39,0.5,0.28,0.5,0.25" style="fill:rgb(0,0,0);font-family:Times-Roman;font-size:10.0px;stroke:none;">(Variance Inflation Factors (VIFs) were no greater than 1.18); there is a linear relationship </text>
   <text y="126.4" x="150.0,155.0,159.44,162.22,169.44,173.88,178.32,183.32,185.82,190.26,195.11,200.11,202.61,207.05,212.05,217.05,219.83,222.61,227.61,232.61,237.61,242.61,246.5,249.0,251.78,256.78,261.78,266.22,271.22,275.66,280.66,285.66,290.1,295.1,297.88,300.38,305.13,309.57,312.9,315.68,320.12,325.12,327.9,332.34,334.84,339.84,343.17,345.67,350.67,354.0,359.0,361.78,366.78,371.22,374.0,376.5,381.25,385.69,389.02,391.8,396.24,401.24,404.02,408.46,410.96,413.74,417.07,421.51,425.95,428.73,433.17,438.17,440.67,445.11,449.0,451.5,455.94,460.94,465.94,468.72,471.5,476.5,481.5,486.5,491.5,495.39,497.89,501.22,505.66,510.66,515.1,517.6" svgx:width="0.5,0.44,0.28,0.72,0.44,0.44,0.5,0.25,0.44,0.5,0.5,0.25,0.44,0.5,0.5,0.28,0.28,0.5,0.5,0.5,0.5,0.39,0.25,0.28,0.5,0.5,0.44,0.5,0.44,0.5,0.5,0.44,0.5,0.28,0.25,0.5,0.44,0.33,0.28,0.44,0.5,0.28,0.44,0.25,0.5,0.33,0.25,0.5,0.33,0.5,0.28,0.5,0.44,0.28,0.25,0.5,0.44,0.33,0.28,0.44,0.5,0.28,0.44,0.25,0.28,0.33,0.44,0.44,0.28,0.44,0.5,0.25,0.44,0.39,0.25,0.44,0.5,0.5,0.28,0.28,0.5,0.5,0.5,0.5,0.39,0.25,0.33,0.44,0.5,0.44,0.25,0.25" style="fill:rgb(0,0,0);font-family:Times-Roman;font-size:10.0px;stroke:none;">between any continuous independent variable or ordinal variable treated as continuous (age, </text>
   <text y="140.4" x="150.0,154.44,159.44,164.44,168.88,173.32,176.1,178.88,183.88,188.88,191.38,194.16,198.35,203.2,207.64,210.42,213.75,216.25,220.69,225.69,230.69,233.19,235.97,240.97,245.41,247.91,252.91,257.35,262.35,266.79,271.79,276.79,281.23,286.23,289.01,291.51,296.26,300.7,304.03,306.81,311.25,316.25,319.03,323.47,325.97,329.3,332.08,337.08,339.86,343.75,346.25,353.37,357.81,361.7,364.2,368.64,373.64,378.08,382.52,387.42,391.86,396.86,399.36,404.36,408.25,411.03,416.03,421.03,423.53,426.31,431.31,435.75,438.25,444.92,449.92,454.92,458.25,464.01,466.79,471.79,479.01,483.45,486.23,489.01" svgx:width="0.44,0.5,0.5,0.44,0.44,0.28,0.28,0.5,0.5,0.25,0.28,0.44,0.5,0.44,0.28,0.33,0.25,0.44,0.5,0.5,0.25,0.28,0.5,0.44,0.25,0.5,0.44,0.5,0.44,0.5,0.5,0.44,0.5,0.28,0.25,0.5,0.44,0.33,0.28,0.44,0.5,0.28,0.44,0.25,0.33,0.28,0.5,0.28,0.39,0.25,0.72,0.44,0.39,0.25,0.44,0.5,0.44,0.44,0.5,0.44,0.5,0.25,0.5,0.39,0.28,0.5,0.5,0.25,0.28,0.5,0.44,0.25,0.67,0.5,0.5,0.33,0.61,0.28,0.5,0.72,0.44,0.28,0.28,0.25" style="fill:rgb(0,0,0);font-family:Times-Roman;font-size:10.0px;stroke:none;">education level) and the dependent variable (this was checked using the Box-Tidwell </text>
   <text y="154.4" x="150.0,155.0,158.33,163.33,167.77,172.21,177.21,182.21,185.54,189.98,192.48,196.92,201.92,206.92,209.42,212.2,217.2,219.7,222.48,227.48,231.92,234.42,237.75,242.19,247.19,252.19,255.52,258.3,261.08,266.08,271.08,273.58,278.58,281.91,284.41,287.19,292.19,296.63,299.13,302.46,306.9,310.79,315.79,318.57,321.35,325.24,327.74,334.96,339.4,341.9,346.9,349.68,354.68,359.68,362.46,365.24,370.24,375.24,378.02,380.52,384.96,387.46,391.9,396.9,401.9,406.9,409.68,414.12,416.62,421.62,424.95,427.45,431.89,436.33,440.22,444.66,448.55,451.05,458.27,463.27,467.71,471.04,475.48,477.98,480.76,485.76,490.2" svgx:width="0.5,0.33,0.5,0.44,0.44,0.5,0.5,0.33,0.44,0.25,0.44,0.5,0.5,0.25,0.28,0.5,0.25,0.28,0.5,0.44,0.25,0.33,0.44,0.5,0.5,0.33,0.28,0.28,0.5,0.5,0.25,0.5,0.33,0.25,0.28,0.5,0.44,0.25,0.33,0.44,0.39,0.5,0.28,0.28,0.39,0.25,0.72,0.44,0.25,0.5,0.28,0.5,0.5,0.28,0.28,0.5,0.5,0.28,0.25,0.44,0.25,0.44,0.5,0.5,0.5,0.28,0.44,0.25,0.5,0.33,0.25,0.44,0.44,0.39,0.44,0.39,0.25,0.72,0.5,0.44,0.33,0.44,0.25,0.28,0.5,0.44,0.25" style="fill:rgb(0,0,0);font-family:Times-Roman;font-size:10.0px;stroke:none;">procedure and in the reporting of the results we highlight a couple of cases where the </text>
   <text y="168.4" x="150.0,152.78,155.56,160.56,165.0,169.44,172.77,175.55,178.33,183.33,185.83,190.27,194.16,198.05,203.05,210.83,215.83,218.61,221.39,226.39,231.39,233.89,238.89,241.67,246.67,249.17,254.17,259.17,261.95,264.45,269.45,274.45,277.23,282.23,285.56,288.34,290.84,295.84,300.84,304.73,309.17,312.5,317.25,321.69,324.47,327.25,332.25,337.25,341.14,343.64,348.08,351.41,355.85,358.35,361.13,366.13,371.13,375.57,380.57,385.01,390.01,395.01,399.45,404.45,407.23,409.73,414.17,419.17,424.17,426.67,429.45,434.45,438.89,441.39,446.39,450.83,455.83,460.27,465.27,470.27,474.71,479.71,482.49,484.99,489.74,494.18,497.51,500.29,504.73,509.73,512.51,516.95,520.84" svgx:width="0.28,0.28,0.5,0.44,0.44,0.33,0.28,0.28,0.5,0.25,0.44,0.39,0.39,0.5,0.78,0.5,0.28,0.28,0.5,0.5,0.25,0.5,0.28,0.5,0.25,0.5,0.5,0.28,0.25,0.5,0.5,0.28,0.5,0.33,0.28,0.25,0.5,0.5,0.39,0.44,0.33,0.5,0.44,0.28,0.28,0.5,0.5,0.39,0.25,0.44,0.33,0.44,0.25,0.28,0.5,0.5,0.44,0.5,0.44,0.5,0.5,0.44,0.5,0.28,0.25,0.44,0.5,0.5,0.25,0.28,0.5,0.44,0.25,0.5,0.44,0.5,0.44,0.5,0.5,0.44,0.5,0.28,0.25,0.5,0.44,0.33,0.28,0.44,0.5,0.28,0.44,0.39,0.25" style="fill:rgb(0,0,0);font-family:Times-Roman;font-size:10.0px;stroke:none;">linearity assumption did not hold); observations are independent and the dependent variables </text>
   <text y="182.4" x="150.0,155.0,159.24,164.09,168.53,171.03,178.81,183.81,186.59,191.59,196.03,198.81,201.59,206.59,209.09,213.38,218.38,222.82,225.6,230.6,234.49,237.02,241.87,246.31,248.81,253.25,258.25,263.25,265.75,270.04,275.04,280.04,284.48,289.48,293.37,296.15,298.68,303.53,307.97,310.47,314.91,319.35,322.13,326.42,331.42,336.42,339.75,342.53,346.97,350.86,353.36,355.86,363.08,367.83,375.05,379.24,384.09,388.53,391.46,393.96,396.46,399.24,404.24,408.68,411.18,415.62,419.51,423.4,428.4,436.18,441.18,443.96,446.74,451.74,456.74,459.24,464.24,467.57,470.07,475.07,478.4,483.4,488.4,493.4,496.73,499.51,502.29,507.29,512.29,516.73,519.51" svgx:width="0.5,0.44,0.5,0.44,0.25,0.78,0.5,0.28,0.5,0.44,0.28,0.28,0.5,0.25,0.44,0.5,0.44,0.28,0.5,0.39,0.28,0.5,0.44,0.25,0.44,0.5,0.5,0.25,0.44,0.5,0.5,0.44,0.5,0.39,0.28,0.28,0.5,0.44,0.25,0.44,0.44,0.28,0.44,0.5,0.5,0.33,0.28,0.44,0.39,0.25,0.25,0.72,0.5,0.72,0.44,0.5,0.44,0.33,0.25,0.25,0.28,0.5,0.44,0.25,0.44,0.39,0.39,0.5,0.78,0.5,0.28,0.28,0.5,0.5,0.25,0.5,0.33,0.25,0.5,0.33,0.5,0.5,0.5,0.33,0.28,0.28,0.5,0.5,0.44,0.28,0.25" style="fill:rgb(0,0,0);font-family:Times-Roman;font-size:10.0px;stroke:none;">have mutually exclusive and exhaustive categories. However, the assumption of proportional </text>
   <text y="196.4" x="150.0,155.0,160.0,165.0,168.89,171.39,178.51,182.95,186.84,189.34,194.34,199.34,202.12,204.62,212.4,216.84,219.62,222.12,225.45,230.45,233.78,236.28,240.72,245.57,250.57,253.07,258.07,261.4,263.9,266.68,271.68,276.12,278.62,283.62,286.95,291.95,294.73,299.73,304.17,306.95,309.45,312.78,317.07,322.07,325.4,329.84,333.73,337.62,340.4,345.4,350.4,354.29,356.79,359.29,365.4,370.4,374.84,377.34,380.12,384.56,388.45,391.23,395.12,397.62,402.62,405.95,408.45,413.45,417.89,421.22,425.66,428.44,431.22,435.66,438.44,440.94,443.72,446.5,451.5,455.94,459.83,462.33,469.55,473.99,477.32,481.76" svgx:width="0.5,0.5,0.5,0.39,0.25,0.72,0.44,0.39,0.25,0.5,0.5,0.28,0.25,0.78,0.44,0.28,0.25,0.33,0.5,0.33,0.25,0.44,0.5,0.5,0.25,0.5,0.33,0.25,0.28,0.5,0.44,0.25,0.5,0.33,0.5,0.28,0.5,0.44,0.28,0.25,0.33,0.44,0.5,0.33,0.44,0.39,0.39,0.28,0.5,0.5,0.39,0.25,0.25,0.61,0.5,0.44,0.25,0.28,0.44,0.39,0.28,0.39,0.25,0.5,0.33,0.25,0.5,0.44,0.33,0.44,0.28,0.28,0.44,0.28,0.25,0.28,0.28,0.5,0.44,0.39,0.25,0.72,0.44,0.33,0.44,0.25" style="fill:rgb(0,0,0);font-family:Times-Roman;font-size:10.0px;stroke:none;">odds was not met for any of the ordinal regressions. The tests of parallel lines were </text>
   <text y="210.4" x="150.0,153.89,156.67,161.67,166.67,169.45,172.58,175.36,179.8,184.24,189.24,192.02,194.52,201.74,206.74,209.52,213.96,218.96,221.46,225.35,230.35,235.35,240.35,244.79,248.68,251.46,253.96,256.74,261.74,266.18,268.96,271.46,274.24,279.24,283.68,286.18,290.62,295.62,300.06,303.14,306.27,309.05,313.49,316.27,320.71,325.71,328.49,332.38,334.88,339.32,342.65,347.09,349.59,354.59,357.37,360.45,363.78,368.22,371.55,375.99,380.99,383.77,386.27,390.71,395.15,398.48,403.48,407.37,411.26,413.76,417.09,421.53,425.42,430.42,435.42,440.42,444.31,448.75,451.25,455.69,460.13,462.91,467.2,472.2,477.2,480.53,483.31,487.75,491.64,494.14" svgx:width="0.39,0.28,0.5,0.5,0.28,0.33,0.28,0.44,0.44,0.5,0.28,0.25,0.72,0.5,0.28,0.44,0.5,0.25,0.39,0.5,0.5,0.5,0.44,0.39,0.28,0.25,0.28,0.5,0.44,0.28,0.25,0.28,0.5,0.44,0.25,0.44,0.5,0.44,0.33,0.33,0.28,0.44,0.28,0.44,0.5,0.28,0.39,0.25,0.44,0.33,0.44,0.25,0.5,0.28,0.33,0.33,0.44,0.33,0.44,0.5,0.28,0.25,0.44,0.44,0.33,0.5,0.39,0.39,0.25,0.33,0.44,0.39,0.5,0.5,0.5,0.39,0.44,0.25,0.44,0.44,0.28,0.44,0.5,0.5,0.33,0.28,0.44,0.39,0.25,0.25" style="fill:rgb(0,0,0);font-family:Times-Roman;font-size:10.0px;stroke:none;">significant which suggest that the coefficients are different across response categories. </text>
   <text y="224.4" x="150.0,157.22,160.0,162.78,167.78,172.78,177.78,182.78,187.78,190.28,197.5,201.94,204.44,208.88,213.32,218.32,220.82,225.82,230.26,233.04,237.48,240.81,248.59,251.37,256.37,260.81,263.31,270.53,275.53,278.31,282.75,287.75,290.25,295.25,298.58,301.08,306.08,311.08,314.41,316.91,319.69,324.69,329.69,334.13,339.13,343.57,348.57,353.57,358.01,363.01,365.79,368.29,373.04,377.48,380.81,383.59,388.03,393.03,395.81,400.25,404.14,406.64,411.64,415.88,420.73,425.17,427.67,432.11,434.61,438.5,441.28,446.28,451.28,454.06,457.19,459.97,464.41,468.85,473.85,476.63,479.13,483.57,486.65,489.98,494.42,498.86,501.64,504.14,509.14,514.14" svgx:width="0.72,0.28,0.28,0.5,0.5,0.5,0.5,0.5,0.25,0.72,0.44,0.25,0.44,0.44,0.5,0.25,0.5,0.44,0.28,0.44,0.33,0.78,0.28,0.5,0.44,0.25,0.72,0.5,0.28,0.44,0.5,0.25,0.5,0.33,0.25,0.5,0.5,0.33,0.25,0.28,0.5,0.5,0.44,0.5,0.44,0.5,0.5,0.44,0.5,0.28,0.25,0.5,0.44,0.33,0.28,0.44,0.5,0.28,0.44,0.39,0.25,0.5,0.44,0.5,0.44,0.25,0.44,0.25,0.39,0.28,0.5,0.5,0.28,0.33,0.28,0.44,0.44,0.5,0.28,0.25,0.44,0.33,0.33,0.44,0.44,0.28,0.25,0.5,0.5,0.25" style="fill:rgb(0,0,0);font-family:Times-Roman;font-size:10.0px;stroke:none;">Although we can determine which of our independent variables have a significant effect on </text>
   <text y="238.4" x="150.0,155.0,160.0,163.33,165.83,170.83,175.27,180.27,184.71,189.71,194.71,199.15,204.15,206.93,209.43,214.18,218.62,221.95,224.73,229.17,234.17,236.95,241.39,245.28,247.78,250.28,257.5,261.94,264.44,268.88,273.32,278.32,283.32,288.32,291.1,293.6,298.04,301.93,305.82,310.82,318.6,323.04,325.54,328.32,333.32,337.76,340.54,343.04,345.82,350.82,355.11,360.11,362.61,367.61,372.05,377.05,379.55,382.33,387.33,391.77,396.77,399.55,402.33,406.77,411.21,413.99,416.49,420.93,424.01,427.34,431.78,436.22,439.0,442.89,445.39,449.83,452.61,455.11,459.55,463.99,468.43,473.43,475.93,480.37,485.37,493.15,498.15,500.93,505.37,508.15,510.68,515.53,519.97" svgx:width="0.5,0.5,0.33,0.25,0.5,0.44,0.5,0.44,0.5,0.5,0.44,0.5,0.28,0.25,0.5,0.44,0.33,0.28,0.44,0.5,0.28,0.44,0.39,0.25,0.25,0.72,0.44,0.25,0.44,0.44,0.5,0.5,0.5,0.28,0.25,0.44,0.39,0.39,0.5,0.78,0.44,0.25,0.28,0.5,0.44,0.28,0.25,0.28,0.5,0.44,0.5,0.25,0.5,0.44,0.5,0.25,0.28,0.5,0.44,0.5,0.28,0.28,0.44,0.44,0.28,0.25,0.44,0.33,0.33,0.44,0.44,0.28,0.39,0.25,0.44,0.28,0.25,0.44,0.44,0.44,0.5,0.25,0.44,0.5,0.78,0.5,0.28,0.44,0.28,0.28,0.5,0.44,0.25" style="fill:rgb(0,0,0);font-family:Times-Roman;font-size:10.0px;stroke:none;">our dependent variables, we cannot assume that they had identical effects at each cumulative </text>
   <text y="252.4" x="150.0,153.89,158.89,161.67,164.45,167.23,169.73,174.73,178.06,180.56,183.34,188.34,192.78,195.28,200.28,204.72,209.72,214.16,219.16,224.16,228.6,233.6,236.38,238.88,243.63,248.07,251.4,254.18,258.62,263.62,266.4,270.84,273.34,275.84,279.17,284.17,286.67,291.67,296.67,300.0,302.5,305.83,310.27,314.16,319.16,321.94,324.72,328.61,331.11,338.33,342.77,345.27,348.05,353.05,357.49,360.82,365.26,368.59,373.59,376.92,381.36,383.86,388.86,391.64,396.64,401.64,404.42,407.2,412.2,417.2,419.98,422.48,426.92,431.36,435.25,439.69,443.58,446.08,453.3,458.3,462.74,466.07,470.51,473.01,475.79,480.79,485.23" svgx:width="0.39,0.5,0.28,0.28,0.28,0.25,0.5,0.33,0.25,0.28,0.5,0.44,0.25,0.5,0.44,0.5,0.44,0.5,0.5,0.44,0.5,0.28,0.25,0.5,0.44,0.33,0.28,0.44,0.5,0.28,0.44,0.25,0.25,0.33,0.5,0.25,0.5,0.5,0.33,0.25,0.33,0.44,0.39,0.5,0.28,0.28,0.39,0.25,0.72,0.44,0.25,0.28,0.5,0.44,0.33,0.44,0.33,0.5,0.33,0.44,0.25,0.5,0.28,0.5,0.5,0.28,0.28,0.5,0.5,0.28,0.25,0.44,0.44,0.39,0.44,0.39,0.25,0.72,0.5,0.44,0.33,0.44,0.25,0.28,0.5,0.44,0.25" style="fill:rgb(0,0,0);font-family:Times-Roman;font-size:10.0px;stroke:none;">split of the dependent variable. In our results we therefore highlight cases where the </text>
   <text y="266.4" x="150.0,153.89,156.67,161.67,166.67,169.45,172.58,175.36,179.8,184.24,189.24,193.68,198.12,200.62,205.62,208.95,211.45,214.23,219.23,223.67,226.17,230.61,235.61,240.05,243.13,246.26,249.04,253.48,256.26,260.7,265.7,268.48,272.37,274.87,277.65,281.54,284.04,289.04,294.04,296.82,299.32,303.76,308.76,313.76,317.65,320.43,324.32,327.1,331.54,336.54,339.32,341.82,346.26,349.04,351.54,355.98,360.42,364.86,369.86,372.36,376.8,381.8,389.58,394.58,397.36,401.8,404.58,407.11,411.96,416.4,418.9,422.79,427.79,430.57,433.35,436.13" svgx:width="0.39,0.28,0.5,0.5,0.28,0.33,0.28,0.44,0.44,0.5,0.44,0.44,0.25,0.5,0.33,0.25,0.28,0.5,0.44,0.25,0.44,0.5,0.44,0.33,0.33,0.28,0.44,0.28,0.44,0.5,0.28,0.39,0.25,0.28,0.39,0.25,0.5,0.5,0.28,0.25,0.44,0.5,0.5,0.39,0.28,0.39,0.28,0.44,0.5,0.28,0.25,0.44,0.28,0.25,0.44,0.44,0.44,0.5,0.25,0.44,0.5,0.78,0.5,0.28,0.44,0.28,0.28,0.5,0.44,0.25,0.39,0.5,0.28,0.28,0.28,0.25" style="fill:rgb(0,0,0);font-family:Times-Roman;font-size:10.0px;stroke:none;">significance of the coefficients is not consistent at each cumulative split.</text>
  </g>
  <g begin="text">
   <text y="290.4" x="150.0,155.56,158.34,161.67,166.67,171.11,173.89,178.89,182.22,186.66,189.44,191.94,199.72,204.72,209.72,214.16,216.94,219.72,222.5,227.5,232.5,235.0,242.12,246.56,250.45,252.95,257.39,260.17,264.06,269.06,271.56,276.56,280.45,284.89,289.89,292.39,295.17,300.17,302.67,307.11,311.0,313.78,316.56,324.34,328.78,331.56,336.0,338.5,341.28,346.28,350.72,353.22,357.66,362.66,367.1,370.18,373.31,376.09,380.53,383.31,387.75,392.75,395.53,399.42,401.92,405.25,410.25,413.58,416.08,421.08,426.08,429.41,431.91,434.69,439.69,444.13,449.13,452.46,456.9,459.68,462.46,466.9,471.34,474.12,476.62,484.4,489.4,494.4,498.84,501.62,504.12" svgx:width="0.56,0.28,0.33,0.5,0.44,0.28,0.5,0.33,0.44,0.28,0.25,0.78,0.5,0.5,0.44,0.28,0.28,0.28,0.5,0.5,0.25,0.72,0.44,0.39,0.25,0.44,0.28,0.39,0.5,0.25,0.5,0.39,0.44,0.5,0.25,0.28,0.5,0.25,0.44,0.39,0.28,0.28,0.78,0.44,0.28,0.44,0.25,0.28,0.5,0.44,0.25,0.44,0.5,0.44,0.33,0.33,0.28,0.44,0.28,0.44,0.5,0.28,0.39,0.25,0.33,0.5,0.33,0.25,0.5,0.5,0.33,0.25,0.28,0.5,0.44,0.5,0.33,0.44,0.28,0.28,0.44,0.44,0.28,0.25,0.78,0.5,0.5,0.44,0.28,0.25,0.25" style="fill:rgb(0,0,0);font-family:Times-Roman;font-size:10.0px;stroke:none;">Structural modelling was also used to estimate the coefficients for our theoretical model. </text>
   <text y="304.4" x="150.0,156.11,161.11,165.55,168.05,172.49,177.49,181.93,185.01,188.14,190.92,195.36,198.14,202.58,207.58,210.36,214.25,216.75,220.08,225.08,230.08,235.08,238.41,242.3,245.08,249.52,254.52,259.52,263.96,267.29,272.29,275.07,279.51,283.95,288.95,291.45,296.45,298.95,303.7,308.14,310.92,315.92,320.36,324.25,327.58,330.08,337.3,341.74,345.07,349.51,352.01,356.45,360.34,363.12,365.9,373.68,378.12,380.9,385.34,390.34,392.84,397.84,401.73,404.51,409.51,414.51,417.01,425.9,430.34,433.67,438.57,443.42,448.42,450.92,455.36,460.36,464.8,467.58,472.58,475.08,483.97,488.97,493.97,496.75,501.19" svgx:width="0.61,0.5,0.44,0.25,0.44,0.5,0.44,0.33,0.33,0.28,0.44,0.28,0.44,0.5,0.28,0.39,0.25,0.33,0.5,0.5,0.5,0.33,0.39,0.28,0.44,0.5,0.5,0.44,0.33,0.5,0.28,0.44,0.44,0.5,0.25,0.5,0.25,0.5,0.44,0.28,0.5,0.44,0.39,0.33,0.25,0.72,0.44,0.33,0.44,0.25,0.44,0.39,0.28,0.28,0.78,0.44,0.28,0.44,0.5,0.25,0.5,0.39,0.28,0.5,0.5,0.25,0.89,0.44,0.33,0.5,0.5,0.5,0.25,0.44,0.5,0.44,0.28,0.5,0.25,0.89,0.5,0.5,0.28,0.44,0.25" style="fill:rgb(0,0,0);font-family:Times-Roman;font-size:10.0px;stroke:none;">The coefficients (non-standardized b values) were estimated using Markov chain Monte </text>
   <text y="318.4" x="150.0,156.67,161.11,164.44,167.22,172.22,174.72,178.05,186.94,193.61,202.5,209.17,212.5,215.0,222.78,227.22,232.22,235.0,242.78,247.78,255.56,258.06,260.84,263.62,268.52,272.96,275.74,278.52,283.52,288.52,293.52,298.52,301.02,304.35,313.24,319.35,322.68,325.18,329.62,333.51,336.29,339.07,346.85,351.29,354.07,356.85,361.85,366.85,369.35,371.85,379.07,381.85,384.63,389.63,394.63,399.63,404.63,409.63,412.13,414.91,419.91,424.35,426.85,430.74,433.52,437.96,440.74,443.52,447.41,450.19,452.97,457.41,461.85,464.63,467.13,471.57,475.46,479.35,484.35,492.13,497.13,499.91,502.69,507.69,512.69,516.58" svgx:width="0.67,0.44,0.33,0.28,0.5,0.25,0.33,0.89,0.67,0.89,0.67,0.33,0.25,0.78,0.44,0.5,0.28,0.78,0.5,0.78,0.25,0.28,0.28,0.5,0.44,0.28,0.28,0.5,0.5,0.5,0.5,0.25,0.33,0.89,0.61,0.33,0.25,0.44,0.39,0.28,0.28,0.78,0.44,0.28,0.28,0.5,0.5,0.25,0.25,0.72,0.28,0.28,0.5,0.5,0.5,0.5,0.5,0.25,0.28,0.5,0.44,0.25,0.39,0.28,0.44,0.28,0.28,0.39,0.28,0.28,0.44,0.44,0.28,0.25,0.44,0.39,0.39,0.5,0.78,0.5,0.28,0.28,0.5,0.5,0.39,0.25" style="fill:rgb(0,0,0);font-family:Times-Roman;font-size:10.0px;stroke:none;">Carlo (MCMC) maximum likelihood (ML) estimation. Although the statistical assumptions </text>
   <text y="332.4" x="150.0,153.33,158.33,161.66,164.16,173.05,179.16,181.66,186.1,189.99,192.77,195.55,203.33,207.77,210.55,213.33,218.33,223.33,225.83,232.95,237.95,242.95,245.73,250.73,253.23,256.56,261.0,266.0,271.0,273.78,277.11,281.55,284.05,286.83,291.83,296.27,299.05,301.55,304.33,309.33,313.77,316.27,320.71,325.71,330.71,335.71,340.71,345.15,350.15,355.15,360.15,364.04,366.54,369.87,374.87,379.31,384.31,388.75,393.75,398.75,403.19,408.19,410.97,414.3,416.8,421.55,425.99,429.32,432.1,436.54,441.54,444.32,448.76,452.65,455.15,459.59,462.92,467.36,469.86,474.3,479.3,484.3,487.08,489.86,494.86,499.86,504.86,509.86,513.75" svgx:width="0.33,0.5,0.33,0.25,0.89,0.61,0.25,0.44,0.39,0.28,0.28,0.78,0.44,0.28,0.28,0.5,0.5,0.25,0.72,0.5,0.5,0.28,0.5,0.25,0.33,0.44,0.5,0.5,0.28,0.33,0.44,0.25,0.28,0.5,0.44,0.28,0.25,0.28,0.5,0.44,0.25,0.44,0.5,0.5,0.5,0.5,0.44,0.5,0.5,0.5,0.39,0.25,0.33,0.5,0.44,0.5,0.44,0.5,0.5,0.44,0.5,0.28,0.33,0.25,0.5,0.44,0.33,0.28,0.44,0.5,0.28,0.44,0.39,0.25,0.44,0.33,0.44,0.25,0.44,0.5,0.5,0.28,0.28,0.5,0.5,0.5,0.5,0.39,0.25" style="fill:rgb(0,0,0);font-family:Times-Roman;font-size:10.0px;stroke:none;">for ML estimation would require that the endogenous (dependent) variables are continuous </text>
   <text y="346.4" x="150.0,157.22,160.0,162.78,167.78,170.28,174.72,177.22,182.22,187.22,190.55,198.33,202.77,205.55,208.05,213.05,215.83,219.72,222.5,225.83,228.61,233.41,238.41,241.19,243.97,248.97,253.97,256.47,258.97,267.86,274.53,283.42,290.09,292.59,295.37,299.26,301.76,306.2,311.2,313.7,316.48,321.48,325.92,329.25,333.69,338.13,342.02,344.8,349.8,354.8,357.58,362.58,365.08,368.41,372.85,377.29,382.29,387.29,392.29,395.07,398.96,403.4,408.4,410.9,415.34,420.34,425.34,428.67,433.67,438.11,442.55,447.55,450.05,452.83,457.83,460.33,465.33,469.77,474.77,479.77,482.55,485.33,490.33,495.33" svgx:width="0.72,0.28,0.28,0.5,0.25,0.44,0.25,0.5,0.5,0.33,0.78,0.44,0.28,0.25,0.5,0.28,0.39,0.28,0.33,0.28,0.5,0.5,0.28,0.28,0.5,0.5,0.25,0.25,0.89,0.67,0.89,0.67,0.25,0.28,0.39,0.25,0.44,0.5,0.25,0.28,0.5,0.44,0.33,0.44,0.44,0.39,0.28,0.5,0.5,0.28,0.5,0.25,0.33,0.44,0.44,0.5,0.5,0.5,0.28,0.39,0.44,0.5,0.25,0.44,0.5,0.5,0.33,0.5,0.44,0.44,0.5,0.25,0.28,0.5,0.25,0.5,0.44,0.5,0.5,0.28,0.28,0.5,0.5,0.25" style="fill:rgb(0,0,0);font-family:Times-Roman;font-size:10.0px;stroke:none;">with a normal distribution, MCMC is an increasingly recognised approach to handling </text>
   <text y="360.4" x="150.0,155.0,160.0,165.0,168.89,171.67,176.11,181.11,186.11,190.55,193.88,198.88,201.38,205.82,210.82,215.82,220.82,223.6,226.38,229.16,234.16,239.16,243.05,245.55,250.55,253.88,256.38,259.16,264.16,268.6,271.1,276.1,280.54,283.32,287.76,290.26,292.76,295.54,300.54,304.98,307.76,312.76,317.76,320.54,325.54,330.54,333.04,336.93,339.71,342.49,347.49,351.93,354.71,357.49,362.49,367.49,371.38,373.88,376.66,379.44,384.34,388.78,391.28,396.28,401.28,404.61,408.5,411.0,418.22,423.22,427.66,430.99,435.43,437.93,440.71,445.71,450.15,452.65,457.65,462.09,464.87,469.31,471.81,476.25,479.58,484.02,486.52,491.52,496.52,501.52" svgx:width="0.5,0.5,0.5,0.39,0.28,0.44,0.5,0.5,0.44,0.33,0.5,0.25,0.44,0.5,0.5,0.5,0.28,0.28,0.28,0.5,0.5,0.39,0.25,0.5,0.33,0.25,0.28,0.5,0.44,0.25,0.5,0.44,0.28,0.44,0.25,0.25,0.28,0.5,0.44,0.28,0.5,0.5,0.28,0.5,0.5,0.25,0.39,0.28,0.28,0.5,0.44,0.28,0.28,0.5,0.5,0.39,0.25,0.28,0.28,0.5,0.44,0.25,0.5,0.5,0.33,0.39,0.25,0.72,0.5,0.44,0.33,0.44,0.25,0.28,0.5,0.44,0.25,0.5,0.44,0.28,0.44,0.25,0.44,0.33,0.44,0.25,0.5,0.5,0.5,0.33" style="fill:rgb(0,0,0);font-family:Times-Roman;font-size:10.0px;stroke:none;">nonstandard conditions of the data, including situations like ours where the data are non-</text>
   <text y="374.4" x="150.0,155.0,160.0,163.33,171.11,175.55,178.33,180.83,185.27,190.27,195.27,197.77,202.77,207.01,211.86,216.3,218.8,223.8,227.13,232.13,234.91,239.91,244.35,247.13,249.63,252.96,257.4,260.18,265.18,269.62,272.95,275.45,278.23,283.23,287.67,292.67,295.17,297.95,302.95,305.73,310.17,313.5,318.25,322.69,325.47,327.97,332.97,336.3,338.8,342.13,346.57,349.35,352.13,357.13,359.63,364.63,367.96,372.96,377.96,382.4,385.73,388.51,391.29,395.73,399.62,402.12" svgx:width="0.5,0.5,0.33,0.78,0.44,0.28,0.25,0.44,0.5,0.5,0.25,0.5,0.44,0.5,0.44,0.25,0.5,0.33,0.5,0.28,0.5,0.44,0.28,0.25,0.33,0.44,0.28,0.5,0.44,0.33,0.25,0.28,0.5,0.44,0.5,0.25,0.28,0.5,0.28,0.44,0.33,0.5,0.44,0.28,0.25,0.5,0.33,0.25,0.33,0.44,0.28,0.28,0.5,0.25,0.5,0.33,0.5,0.5,0.44,0.33,0.28,0.28,0.44,0.39,0.25,0.33" style="fill:rgb(0,0,0);font-family:Times-Roman;font-size:10.0px;stroke:none;">normal and have ordinal rather than interval or ratio properties [</text>
  </g>
  <g begin="text">
   <text y="374.4" x="405.45,410.45" svgx:width="0.5,0.5" style="fill:rgb(0,0,0);font-family:Times-Roman;font-size:10.0px;stroke:none;">44</text>
  </g>
  <g begin="text">
   <text y="374.4" x="415.45,418.78" svgx:width="0.33,0.25" style="fill:rgb(0,0,0);font-family:Times-Roman;font-size:10.0px;stroke:none;">].</text>
  </g>
  <g begin="text">
   <text y="404.404" x="89.996,96.668,100.028,108.668,117.332,124.004,130.676,138.008,141.344,145.34" svgx:width="0.56,0.28,0.55,0.72,0.56,0.56,0.61,0.28,0.33,0.56" style="fill:rgb(0,0,0);font-family:Helvetica-Bold;font-size:12.0px;stroke:none;">3 Results</text>
  </g>
  <g begin="text">
   <text y="424.674" x="90.002,95.562,98.342,103.902,106.702,113.902,120.572,124.262,130.372,133.702,139.262,144.822,148.152,150.932,156.492,162.052,164.832,170.392,175.952,179.282,182.062,188.172,194.282" svgx:width="0.56,0.28,0.56,0.28,0.55,0.67,0.39,0.61,0.33,0.56,0.56,0.33,0.28,0.56,0.56,0.28,0.56,0.56,0.33,0.28,0.61,0.61,0.56" style="fill:rgb(0,0,0);font-family:Helvetica-Bold;font-size:10.0px;stroke:none;">3.1 Protective actions</text>
  </g>
  <g begin="text">
   <text y="442.404" x="150.002,156.112,161.112,165.552,168.052,172.492,176.932,179.712,182.492,187.492,192.492,196.382,198.882,201.662,206.102,211.002,215.442,220.442,222.942,227.942,232.942,235.442,238.222,243.222,247.662,250.162,253.492,257.932,261.822,264.602,269.602,274.042,279.042,281.822,285.712,288.212,293.212,296.542,299.042,303.482,307.922,312.362,317.362,319.862,324.302,329.302,334.302,339.302,342.082,345.412,350.412,352.912,355.692,360.692,363.192,368.192,371.522,376.522,379.302,383.742,388.182,390.962,393.462,396.242,401.242,405.682,413.462,417.352,421.792,424.572,429.422,433.862,437.752,440.252,443.582,446.912,451.912,459.692,462.192,464.972,469.972,474.972,479.412,482.192,484.972,489.972,494.972,497.472,501.912,505.802,510.802" svgx:width="0.61,0.5,0.44,0.25,0.44,0.44,0.28,0.28,0.5,0.5,0.39,0.25,0.28,0.44,0.5,0.44,0.5,0.25,0.5,0.5,0.25,0.28,0.5,0.44,0.25,0.33,0.44,0.39,0.28,0.5,0.44,0.5,0.28,0.39,0.25,0.5,0.33,0.25,0.44,0.44,0.44,0.5,0.25,0.44,0.5,0.5,0.5,0.28,0.33,0.5,0.25,0.28,0.5,0.25,0.5,0.33,0.5,0.28,0.44,0.44,0.28,0.25,0.28,0.5,0.44,0.78,0.39,0.44,0.28,0.5,0.44,0.39,0.25,0.33,0.33,0.5,0.78,0.25,0.28,0.5,0.5,0.44,0.28,0.28,0.5,0.5,0.25,0.44,0.39,0.5,0.25" style="fill:rgb(0,0,0);font-family:Times-Roman;font-size:10.0px;stroke:none;">The actions taken by the residents of each country to protect themselves from inhaling ash </text>
   <text y="456.404" x="150.002,155.002,160.002,163.332,166.112,171.112,176.112,178.612,183.612,188.052,192.292,197.292,202.292,204.792,209.232,213.122,218.122,221.352,225.792,228.572,231.352,233.852,238.292,241.622,246.062,248.562,252.452,257.452,262.202,269.422,274.422,276.922,279.702,284.702,287.202,292.512,296.952,301.952,304.732,309.172,311.672,316.672,319.172,321.672,328.152,333.002,337.442,340.772,345.212,350.212,354.652,359.652,362.152,366.592,371.032,374.362,379.362,383.252,387.142,389.642,394.082,396.862,399.642,402.142,404.922,409.922,413.252,417.692,422.132,424.632,429.072,434.072,439.072,444.072,446.852,450.182,452.962,457.402,461.292,463.792,466.292,471.142,475.992,480.432,483.762,486.262,491.262,496.262,504.592,507.092,512.092,515.422" svgx:width="0.5,0.5,0.33,0.28,0.5,0.5,0.25,0.5,0.44,0.44,0.5,0.5,0.25,0.44,0.39,0.5,0.33,0.44,0.28,0.28,0.25,0.44,0.33,0.44,0.25,0.39,0.5,0.5,0.72,0.5,0.25,0.28,0.5,0.25,0.61,0.44,0.5,0.28,0.44,0.25,0.5,0.25,0.25,0.72,0.5,0.44,0.33,0.44,0.5,0.44,0.5,0.25,0.44,0.44,0.33,0.5,0.39,0.39,0.25,0.44,0.28,0.28,0.25,0.28,0.5,0.33,0.44,0.44,0.25,0.44,0.5,0.5,0.5,0.28,0.33,0.28,0.44,0.39,0.25,0.25,0.5,0.5,0.44,0.33,0.25,0.5,0.5,0.83,0.25,0.5,0.33,0.25" style="fill:rgb(0,0,0);font-family:Times-Roman;font-size:10.0px;stroke:none;">during heavy ashfall are shown in Table 2. Averaged across all three countries, over 80% of </text>
   <text y="470.404" x="150.002,153.332,157.772,161.662,164.442,169.442,173.882,178.882,181.662,185.552,188.052,192.952,197.392,202.392,205.172,207.672,210.452,215.452,219.892,222.672,226.002,228.502,235.722,238.502,243.502,248.502,253.252,260.472,264.362,266.862,271.302,276.302,281.302,283.802,288.802,293.802,298.802,302.132,306.022,308.522,312.962,315.742,320.742,324.632,329.072,334.072,336.572,339.902,344.902,349.902,352.402,357.402,365.732,369.062,371.562,374.062,378.502,381.282,385.722,390.162,395.162,399.602,404.602,407.102,409.882,414.882,419.322,421.822,426.822,431.822,436.822,440.712,445.152,447.652,450.982,455.982,460.982,463.482,468.482,476.812,480.142,482.642,485.142,487.922,490.702,498.482,501.262,504.042,508.482,513.482" svgx:width="0.33,0.44,0.39,0.28,0.5,0.44,0.5,0.28,0.39,0.25,0.5,0.44,0.5,0.28,0.25,0.28,0.5,0.44,0.28,0.33,0.25,0.72,0.28,0.5,0.5,0.5,0.72,0.39,0.25,0.44,0.5,0.5,0.25,0.5,0.5,0.5,0.33,0.39,0.25,0.44,0.28,0.5,0.39,0.44,0.5,0.25,0.33,0.5,0.5,0.25,0.5,0.83,0.33,0.25,0.25,0.44,0.28,0.44,0.44,0.5,0.44,0.5,0.25,0.28,0.5,0.44,0.25,0.5,0.5,0.5,0.39,0.44,0.25,0.33,0.5,0.5,0.25,0.5,0.83,0.33,0.25,0.25,0.28,0.28,0.78,0.28,0.28,0.44,0.5,0.25" style="fill:rgb(0,0,0);font-family:Times-Roman;font-size:10.0px;stroke:none;">residents kept their windows and doors closed (96.1%), cleaned the house (90.3%), limited </text>
   <text y="484.404" x="150.002,152.782,157.782,162.222,165.002,168.332,170.832,173.612,176.392,184.172,188.612,191.112,196.112,201.112,203.892,208.892,213.892,218.892,222.222,226.112,228.612,231.942,236.942,241.942,244.442,249.442,257.772,261.102,263.602,266.102,270.542,275.542,280.542,283.042,290.262,294.702,297.482,300.262,304.702,309.702,312.482,314.982,319.422,322.202,326.642,331.082,336.082,340.522,345.522,348.022,350.802,355.802,360.242,362.742,367.182,371.072,376.072,378.572,383.572,388.572,391.352,396.352,401.352,406.352,409.682,413.572,416.072,419.402,424.402,429.402,431.902,436.902,445.232,448.562,451.062,453.562,459.672,464.672,469.112,471.612,476.612,479.392,484.392,488.832,492.162,494.662,497.442,502.442,507.442,511.882,515.772" svgx:width="0.28,0.5,0.44,0.28,0.33,0.25,0.28,0.28,0.78,0.44,0.25,0.5,0.5,0.28,0.5,0.5,0.5,0.33,0.39,0.25,0.33,0.5,0.5,0.25,0.5,0.83,0.33,0.25,0.25,0.44,0.5,0.5,0.25,0.72,0.44,0.28,0.28,0.44,0.5,0.28,0.25,0.44,0.28,0.44,0.44,0.5,0.44,0.5,0.25,0.28,0.5,0.44,0.25,0.44,0.39,0.5,0.25,0.5,0.5,0.28,0.5,0.5,0.5,0.33,0.39,0.25,0.33,0.5,0.5,0.25,0.5,0.83,0.33,0.25,0.25,0.61,0.5,0.44,0.25,0.5,0.28,0.5,0.44,0.33,0.25,0.28,0.5,0.5,0.44,0.39,0.25" style="fill:rgb(0,0,0);font-family:Times-Roman;font-size:10.0px;stroke:none;">their time outdoors (84.6%), and wetted/ cleaned the ash outdoors (80.3%). The other types </text>
   <text y="498.404" x="150.002,155.002,158.332,160.832,165.272,169.712,172.492,175.272,180.272,185.272,189.162,191.662,198.882,203.322,206.652,211.092,213.592,218.592,223.592,226.372,228.872,232.762,237.762,240.262,245.262,250.262,252.792,257.642,262.082,265.412,269.302,273.742,276.522,279.302,284.302,286.802,291.242,296.242,301.242,306.242,309.022,313.462,318.462,320.962,325.402,328.182,330.962,335.962,340.962,345.962,350.962,355.962,358.462,363.312,368.162,372.602,375.932,378.432,383.432,387.872,390.652,393.982,396.482,399.262,404.262,409.262,414.262,416.762,421.202,425.642,428.422,431.202,436.202,441.202,445.092,447.592,450.372,453.152,458.052,462.492,464.992,472.212,476.652,481.092,484.422,487.202,492.202,497.202" svgx:width="0.5,0.33,0.25,0.44,0.44,0.28,0.28,0.5,0.5,0.39,0.25,0.72,0.44,0.33,0.44,0.25,0.5,0.5,0.28,0.25,0.39,0.5,0.25,0.5,0.5,0.28,0.5,0.44,0.33,0.39,0.44,0.28,0.28,0.5,0.25,0.44,0.5,0.5,0.5,0.28,0.44,0.5,0.25,0.44,0.28,0.28,0.5,0.5,0.5,0.5,0.5,0.25,0.5,0.5,0.44,0.33,0.25,0.5,0.44,0.28,0.33,0.25,0.28,0.5,0.5,0.5,0.25,0.44,0.44,0.28,0.28,0.5,0.5,0.39,0.25,0.28,0.28,0.5,0.44,0.25,0.72,0.44,0.44,0.33,0.28,0.5,0.5,0.25" style="fill:rgb(0,0,0);font-family:Times-Roman;font-size:10.0px;stroke:none;">of actions were not so universally adopted although over half took actions like wearing </text>
   <text y="512.404" x="150.002,153.232,157.672,162.112,166.552,174.332,178.772,182.662,187.662,191.552,194.052,197.382,202.382,207.382,209.882,214.882,223.212,226.542,229.042,231.542,236.542,240.982,243.762,247.652,250.152,253.482,258.482,263.482,265.982,270.982,279.312,282.642,285.142,287.642,292.642,295.972,298.472,302.912,307.762,312.612,317.052,320.382,323.162,328.162,333.162,335.662,338.442,343.442,347.882,350.662,353.992,356.492,364.272,369.272,374.272,377.052,382.052,384.552,388.992,393.992,398.992,401.492,406.492,411.492,415.382,419.822,422.322,429.542,432.322,435.102,440.102,442.602,447.602,452.042,457.042,462.042,466.942,471.382,474.712,479.152,484.152,486.932,491.372,494.702,498.592" svgx:width="0.33,0.44,0.44,0.44,0.78,0.44,0.39,0.5,0.39,0.25,0.33,0.5,0.5,0.25,0.5,0.83,0.33,0.25,0.25,0.5,0.44,0.28,0.39,0.25,0.33,0.5,0.5,0.25,0.5,0.83,0.33,0.25,0.25,0.5,0.33,0.25,0.44,0.5,0.5,0.44,0.33,0.28,0.5,0.5,0.25,0.28,0.5,0.44,0.28,0.33,0.25,0.78,0.5,0.5,0.28,0.5,0.25,0.44,0.5,0.5,0.25,0.5,0.5,0.39,0.44,0.25,0.72,0.28,0.28,0.5,0.25,0.5,0.44,0.5,0.5,0.5,0.44,0.33,0.44,0.5,0.28,0.44,0.33,0.39,0.25" style="fill:rgb(0,0,0);font-family:Times-Roman;font-size:10.0px;stroke:none;">facemasks (75.0%), hats (67.5%), or covering their mouth and nose with handkerchiefs </text>
   <text y="526.404" x="150.002,153.332,158.332,163.332,165.832,170.832,179.162,182.492,184.992,189.992,193.322,195.822,200.822,205.262,210.262,215.262,219.152,221.652,224.982,229.982,234.982,237.482,242.482,250.812,254.142,256.642,259.142,266.362,274.142,279.142,282.472,286.912,289.692,292.472,296.912,300.802,303.582,306.082,311.082,315.522,318.852,323.292,327.182,332.182,334.962,338.852,341.352,344.682,349.682,354.682,357.182,362.182,370.512,373.842,376.342,378.842,382.732,387.172,391.612,394.942,398.272,402.162,404.942,407.442,412.442,416.882,421.882,426.882,431.322,436.322,440.762,444.652,447.152,450.482,455.482,460.482,462.982,467.982,476.312,479.642,482.142,484.642,489.642,492.972" svgx:width="0.33,0.5,0.5,0.25,0.5,0.83,0.33,0.25,0.5,0.33,0.25,0.5,0.44,0.5,0.5,0.39,0.25,0.33,0.5,0.5,0.25,0.5,0.83,0.33,0.25,0.25,0.72,0.78,0.5,0.33,0.44,0.28,0.28,0.44,0.39,0.28,0.25,0.5,0.44,0.33,0.44,0.39,0.5,0.28,0.39,0.25,0.33,0.5,0.5,0.25,0.5,0.83,0.33,0.25,0.25,0.39,0.44,0.44,0.33,0.33,0.39,0.28,0.25,0.5,0.44,0.5,0.5,0.44,0.5,0.44,0.39,0.25,0.33,0.5,0.5,0.25,0.5,0.83,0.33,0.25,0.25,0.5,0.33,0.25" style="fill:rgb(0,0,0);font-family:Times-Roman;font-size:10.0px;stroke:none;">(56.3%) or hands (54.3%). Umbrellas/ parasols (46.4%), scarfs/ bandanas (35.4%), or </text>
   <text y="540.404" x="150.002,153.892,158.892,163.182,170.402,173.182,177.072,179.852,182.352,187.202,191.642,194.422,197.202,201.092,203.592,206.922,211.922,216.922,219.422,224.422,232.752,236.082,238.582,245.802,250.242,253.572,258.012,260.512,265.512,270.512,273.292,278.292,280.792,285.792,289.682,294.122,299.122,301.622,306.622,311.622,314.122,318.562,321.062,328.842,331.622,336.622,341.622,344.952,347.732,350.512,355.512,358.012,362.452,366.892,370.222,375.222,379.112,383.002,385.502,388.282,393.282,397.722,400.222,407.442,412.442,417.442,420.222,424.662,427.162,431.052,435.492,443.272,448.272,451.052,455.492,457.992,462.432,465.212,467.992,472.992,477.992,482.992,487.992,492.992,495.492,498.272,503.272,507.712,511.042,515.482" svgx:width="0.39,0.5,0.44,0.72,0.28,0.39,0.28,0.25,0.5,0.44,0.28,0.28,0.39,0.25,0.33,0.5,0.5,0.25,0.5,0.83,0.33,0.25,0.72,0.44,0.33,0.44,0.25,0.5,0.5,0.28,0.5,0.25,0.5,0.39,0.44,0.5,0.25,0.5,0.5,0.25,0.44,0.25,0.78,0.28,0.5,0.5,0.33,0.28,0.28,0.5,0.25,0.44,0.44,0.33,0.5,0.39,0.39,0.25,0.28,0.5,0.44,0.25,0.72,0.5,0.5,0.28,0.44,0.25,0.39,0.44,0.78,0.5,0.28,0.44,0.25,0.44,0.28,0.28,0.5,0.5,0.5,0.5,0.5,0.25,0.28,0.5,0.44,0.33,0.44,0.25" style="fill:rgb(0,0,0);font-family:Times-Roman;font-size:10.0px;stroke:none;">shawls/ veils (24.8%) were only used by a minority across the whole sample although there </text>
   <text y="554.404" x="150.002,157.222,161.662,164.992,169.432,171.932,175.822,180.822,188.602,193.042,195.542,200.542,205.542,208.322,212.762,217.762,220.542,224.982,227.482,230.812,235.102,240.102,242.882,247.882,252.882,257.322,260.102,262.602,267.602,270.382,273.462,276.792,281.232,284.562,289.002,294.002,298.442,302.882,306.772" svgx:width="0.72,0.44,0.33,0.44,0.25,0.39,0.5,0.78,0.44,0.25,0.5,0.5,0.28,0.44,0.5,0.28,0.44,0.25,0.33,0.44,0.5,0.28,0.5,0.5,0.44,0.28,0.25,0.5,0.28,0.33,0.33,0.44,0.33,0.44,0.5,0.44,0.44,0.39,0.25" style="fill:rgb(0,0,0);font-family:Times-Roman;font-size:10.0px;stroke:none;">were some notable regional differences.</text>
  </g>
  <g begin="text">
   <text y="578.404" x="150.002,155.312,160.312,162.812,165.592,170.032,173.922,176.702,179.202,182.532,187.532,190.862,193.362,198.362,201.142,204.222,207.552,211.992,215.322,219.762,224.762,229.202,233.642,237.532,240.032,245.032,249.472,252.252,259.472,263.912,268.352,273.352,275.852,278.632,283.632,288.072,290.572,295.572,300.572,305.572,309.462,311.962,316.962,320.292,322.792,325.572,330.572,335.012,337.512,341.952,346.392,349.172,351.952,356.952,361.952,365.842,368.342,373.342,377.782,380.562,385.562,390.562,393.062,397.502,402.502,407.502,412.502,415.282,419.722,424.722,427.222,430.002,435.002,437.502,441.942,446.382,450.822,455.822,458.322,462.762,467.762,472.762,477.762,480.542,483.872,488.222,490.722" svgx:width="0.61,0.5,0.25,0.28,0.44,0.39,0.28,0.25,0.33,0.5,0.33,0.25,0.5,0.28,0.33,0.33,0.44,0.33,0.44,0.5,0.44,0.44,0.39,0.25,0.5,0.44,0.28,0.72,0.44,0.44,0.5,0.25,0.28,0.5,0.44,0.25,0.5,0.5,0.5,0.39,0.25,0.5,0.33,0.25,0.28,0.5,0.44,0.25,0.44,0.44,0.28,0.28,0.5,0.5,0.39,0.25,0.5,0.44,0.28,0.5,0.5,0.25,0.44,0.5,0.5,0.5,0.28,0.44,0.5,0.25,0.28,0.5,0.25,0.44,0.44,0.44,0.5,0.25,0.44,0.5,0.5,0.5,0.28,0.33,0.5,0.25,0.25" style="fill:rgb(0,0,0);font-family:Times-Roman;font-size:10.0px;stroke:none;">To test for differences between the odds of the actions being adopted in each country, </text>
   <text y="592.404" x="150.002,155.002,157.782,162.782,167.782,175.562,178.342,182.782,185.562,188.062,190.842,195.842,200.842,203.622,207.512,210.292,213.072,217.512,220.012,225.012,227.792,232.232,235.562,240.002,243.332,247.772,252.772,255.552,259.992,264.432,267.212,269.712,273.042,277.332,282.332,285.662,290.102,293.992,297.882,300.662,305.662,310.662,314.552,317.052,324.272,328.712,332.042,336.482,338.982,343.422,348.422,353.422,358.422,363.422,367.862,370.642,375.082,380.082,382.582,389.802,392.582,395.362,400.362,402.862,407.302,412.302,417.302,422.302,425.082,428.412,433.412,435.912,440.912,445.912,453.692,461.472,464.252,468.692,472.582,475.082,479.522,484.522,487.302,491.742,495.072,499.512,504.512,507.012,511.452,514.232" svgx:width="0.5,0.28,0.5,0.5,0.78,0.28,0.44,0.28,0.25,0.28,0.5,0.5,0.28,0.39,0.28,0.28,0.44,0.25,0.5,0.28,0.44,0.33,0.44,0.33,0.44,0.5,0.28,0.44,0.44,0.28,0.25,0.33,0.44,0.5,0.33,0.44,0.39,0.39,0.28,0.5,0.5,0.39,0.25,0.72,0.44,0.33,0.44,0.25,0.44,0.5,0.5,0.5,0.5,0.44,0.28,0.44,0.5,0.25,0.72,0.28,0.28,0.5,0.25,0.44,0.5,0.5,0.5,0.28,0.33,0.5,0.25,0.5,0.5,0.78,0.78,0.28,0.44,0.39,0.25,0.44,0.5,0.28,0.44,0.33,0.44,0.5,0.25,0.44,0.28,0.25" style="fill:rgb(0,0,0);font-family:Times-Roman;font-size:10.0px;stroke:none;">binomial logistic hierarchical regressions were conducted with country dummies entered at </text>
   <text y="606.404" x="150.002,153.892,156.672,161.112,166.112,168.612,173.612,176.112,180.552,185.552,190.552,193.052,196.942,201.942,206.382,209.162,214.162,217.492,222.492,226.932,234.712,239.712,244.712,248.042,252.482,257.482,262.482,265.262,269.702,272.202,276.642,281.492,286.242,290.682,294.012,296.792,301.232,304.012,308.452,312.342,314.842,318.172,322.612,327.612,332.052,334.552,337.052,342.052,346.492,351.492,356.492,360.932,363.862,366.362,368.862,373.302,378.302,383.302,387.742,392.182,394.962,397.742,402.742,407.742,410.242,413.022,417.212,422.062,426.502,429.282,431.782,434.282,438.722,443.722,448.722,451.222,454.552,458.992,462.882,467.882,470.662,473.992,478.432,481.212,486.212,489.542,494.542" svgx:width="0.39,0.28,0.44,0.5,0.25,0.5,0.25,0.44,0.5,0.5,0.25,0.39,0.5,0.44,0.28,0.5,0.33,0.5,0.44,0.78,0.5,0.5,0.33,0.44,0.5,0.5,0.28,0.44,0.25,0.44,0.5,0.5,0.44,0.33,0.28,0.44,0.28,0.44,0.39,0.25,0.33,0.44,0.5,0.44,0.25,0.25,0.5,0.44,0.5,0.5,0.44,0.33,0.25,0.25,0.44,0.5,0.5,0.44,0.44,0.28,0.28,0.5,0.5,0.25,0.28,0.44,0.5,0.44,0.28,0.25,0.25,0.44,0.5,0.5,0.25,0.33,0.44,0.39,0.5,0.28,0.33,0.44,0.28,0.5,0.33,0.5,0.25" style="fill:rgb(0,0,0);font-family:Times-Roman;font-size:10.0px;stroke:none;">step 1 and socio-demographic covariates (age, gender, education level, and respiratory </text>
   <text y="620.404" x="150.002,152.782,155.562,158.342,163.342,167.782,171.672,175.562,178.892,181.392,185.832,190.832,193.612,198.052,201.382,205.822,210.822,213.322,217.762,220.542,223.042,226.932,229.712,234.152,239.152,241.652,246.652,249.152,251.652,254.982,258.312,260.812,263.592,268.592,273.032,275.532,280.532,285.532,290.532,294.422,297.752,301.082,305.522,308.302,311.082,316.082,318.582,321.912,326.912,330.242,332.742,335.522,340.522,344.962,347.462,351.902,356.902,361.902,366.902,369.682,373.012,378.012,380.512,385.512,390.512,398.292,406.072,411.072,413.572,416.352,420.242,422.742,426.632,429.412,434.412,439.412,442.192,445.322,448.102,452.542,456.982,461.982,464.762,467.262,471.702,474.482,476.982,480.872,483.652,488.092,493.092,495.592,500.592,503.092,507.532,512.532,517.532" svgx:width="0.28,0.28,0.28,0.5,0.44,0.39,0.39,0.33,0.25,0.44,0.5,0.28,0.44,0.33,0.44,0.5,0.25,0.44,0.28,0.25,0.39,0.28,0.44,0.5,0.25,0.5,0.25,0.25,0.33,0.33,0.25,0.28,0.5,0.44,0.25,0.5,0.5,0.5,0.39,0.33,0.33,0.44,0.28,0.28,0.5,0.25,0.33,0.5,0.33,0.25,0.28,0.5,0.44,0.25,0.44,0.5,0.5,0.5,0.28,0.33,0.5,0.25,0.5,0.5,0.78,0.78,0.5,0.25,0.28,0.39,0.25,0.39,0.28,0.5,0.5,0.28,0.33,0.28,0.44,0.44,0.5,0.28,0.25,0.44,0.28,0.25,0.39,0.28,0.44,0.5,0.25,0.5,0.25,0.44,0.5,0.5,0.25" style="fill:rgb(0,0,0);font-family:Times-Roman;font-size:10.0px;stroke:none;">illness) entered at step 2. If the odds-ratio for the country dummy is significant at step 1 and </text>
   <text y="634.404" x="150.002,153.892,156.672,161.112,166.112,168.612,173.612,176.112,178.892,183.892,188.332,193.332,195.832,198.612,203.612,208.052,210.552,215.552,218.332,221.412,224.742,229.182,232.512,236.952,241.952,246.392,250.832,253.332,258.332,262.772,265.552,272.772,277.212,281.652,286.652,289.152,291.932,296.932,301.372,303.872,308.312,313.312,318.312,323.312,326.092,329.422,332.202,336.642,340.532,343.032,347.472,351.912,356.912,361.912,366.912,369.692,372.192,377.192,381.632,384.132,387.462,392.462,395.242,398.022,403.022,405.522,409.962,414.402,418.842,423.842,428.842,433.842,436.622,441.062,446.062,448.562,451.892,456.892,460.222,462.722,467.722,472.722,475.222,480.222,483.002,486.082,489.412,493.852,497.182,501.622,506.622,511.062,515.502,519.392" svgx:width="0.39,0.28,0.44,0.5,0.25,0.5,0.25,0.28,0.5,0.44,0.5,0.25,0.28,0.5,0.44,0.25,0.5,0.28,0.33,0.33,0.44,0.33,0.44,0.5,0.44,0.44,0.25,0.5,0.44,0.28,0.72,0.44,0.44,0.5,0.25,0.28,0.5,0.44,0.25,0.44,0.5,0.5,0.5,0.28,0.33,0.28,0.44,0.39,0.25,0.44,0.44,0.5,0.5,0.5,0.28,0.25,0.5,0.44,0.25,0.33,0.5,0.28,0.28,0.5,0.25,0.44,0.44,0.44,0.5,0.5,0.5,0.28,0.44,0.5,0.25,0.33,0.5,0.33,0.25,0.5,0.5,0.25,0.5,0.28,0.33,0.33,0.44,0.33,0.44,0.5,0.44,0.44,0.39,0.25" style="fill:rgb(0,0,0);font-family:Times-Roman;font-size:10.0px;stroke:none;">step 2 then the difference between the countries cannot be fully accounted for by differences </text>
   <text y="648.404" x="150.002,152.782,157.782,160.282,163.062,168.062,172.502,175.002,180.002,184.442,192.222,197.222,202.222,205.552,209.992,214.992,219.992,222.772,227.212,229.712,234.152,239.002,243.752,248.192,251.522,254.302,258.742,261.522,265.962,269.852" svgx:width="0.28,0.5,0.25,0.28,0.5,0.44,0.25,0.5,0.44,0.78,0.5,0.5,0.33,0.44,0.5,0.5,0.28,0.44,0.25,0.44,0.5,0.5,0.44,0.33,0.28,0.44,0.28,0.44,0.39,0.25" style="fill:rgb(0,0,0);font-family:Times-Roman;font-size:10.0px;stroke:none;">in the demographic covariates.</text>
  </g>
  <g begin="text">
   <text y="672.404" x="150.002,157.222,162.222,164.722,168.612,171.392,176.392,181.392,184.172,188.612,191.112,195.552,200.552,205.552,210.552,213.332,216.662,221.662,224.162,231.282,235.722,239.612,242.112,246.002,248.782,253.782,258.782,261.562,264.692,267.472,271.912,276.352,281.352,284.132,286.912,291.912,294.412,302.192,307.192,310.522,314.962,317.462,322.462,325.792,328.292,331.072,335.512,339.402,343.292,345.792,348.572,351.352,356.252,360.692,363.472,368.472,370.972,373.752,378.752,381.252,385.692,390.692,395.692,400.692,403.472,405.972,410.412,413.192,415.972,418.472,421.252,426.252,431.252,435.692,439.582,442.082,447.082,450.412,452.912,457.352,461.792,464.572,467.352,472.352,477.352,481.242,483.742,486.242,492.352,497.352,501.792,505.122,509.562" svgx:width="0.72,0.5,0.25,0.39,0.28,0.5,0.5,0.28,0.44,0.25,0.44,0.5,0.5,0.5,0.28,0.33,0.5,0.25,0.72,0.44,0.39,0.25,0.39,0.28,0.5,0.5,0.28,0.33,0.28,0.44,0.44,0.5,0.28,0.28,0.5,0.25,0.78,0.5,0.33,0.44,0.25,0.5,0.33,0.25,0.28,0.44,0.39,0.39,0.25,0.28,0.28,0.5,0.44,0.28,0.5,0.25,0.28,0.5,0.25,0.44,0.5,0.5,0.5,0.28,0.25,0.44,0.28,0.28,0.25,0.28,0.5,0.5,0.44,0.39,0.25,0.5,0.33,0.25,0.44,0.44,0.28,0.28,0.5,0.5,0.39,0.25,0.25,0.61,0.5,0.44,0.33,0.44,0.25" style="fill:rgb(0,0,0);font-family:Times-Roman;font-size:10.0px;stroke:none;">No single country was significantly more or less likely to adopt all types of actions. There </text>
   <text y="686.404" x="150.002,157.222,161.662,164.992,169.432,171.932,174.432,179.432,184.182,191.402,195.592,200.442,204.882,207.812,210.312,212.812,217.812,220.592,223.672,227.002,231.442,234.772,239.212,244.212,248.652,253.092,256.982,259.482,262.262,267.262,269.762,272.542,277.542,281.982,284.482,287.812,292.252,295.032,299.472,302.252,304.782,309.632,314.072,316.572,321.572,326.572,331.572,336.572,339.352,343.792,347.122,349.902,352.682,357.682,360.182,365.182,368.512,371.012,375.452,379.892,382.672,385.452,390.452,395.452,399.342,401.842,406.842,410.732,415.172,420.172,422.672,425.452,430.452,432.952,437.392,441.832,446.272,451.272,453.772,458.212,463.212,468.212,473.212,475.992,479.322,483.672,486.172,488.672,494.782,499.782,504.222" svgx:width="0.72,0.44,0.33,0.44,0.25,0.25,0.5,0.5,0.72,0.44,0.5,0.44,0.33,0.25,0.25,0.5,0.28,0.33,0.33,0.44,0.33,0.44,0.5,0.44,0.44,0.39,0.25,0.28,0.5,0.25,0.28,0.5,0.44,0.25,0.33,0.44,0.28,0.44,0.28,0.28,0.5,0.44,0.25,0.5,0.5,0.5,0.5,0.28,0.44,0.33,0.28,0.28,0.5,0.25,0.5,0.33,0.25,0.44,0.44,0.28,0.28,0.5,0.5,0.39,0.25,0.5,0.39,0.44,0.5,0.25,0.28,0.5,0.25,0.44,0.44,0.44,0.5,0.25,0.44,0.5,0.5,0.5,0.28,0.33,0.5,0.25,0.25,0.61,0.5,0.44,0.25" style="fill:rgb(0,0,0);font-family:Times-Roman;font-size:10.0px;stroke:none;">were, however, differences in the relative popularity of actions used in each country. The </text>
  </g>
  <g begin="text">
   <text y="44.72" x="78.0,83.336,87.216,91.096,94.528,98.528,100.528,104.08,106.304,108.304,111.856,114.08,116.08,496.568,500.896,504.448,508.448,512.0,514.0,518.0" svgx:width="0.67,0.5,0.5,0.44,0.5,0.25,0.44,0.28,0.25,0.44,0.28,0.25,0.55,0.56,0.44,0.5,0.44,0.25,0.5,0.5" style="fill:rgb(0,0,0);font-family:Times-Roman;font-size:8.0px;stroke:none;">Covey et al. Page 10</text>
  </g>
  <g begin="text">
   <text y="721.4" transform="matrix(1.0,0.0,0.0,1.0,0.0,0.0)" rotateDegrees="0" matrix="[8.0,0.0,2.59936,8.0,142.07199,70.6]" x="142.072,144.736,148.736,150.96,152.96,156.072,158.072,163.848,166.072,169.184,172.736,175.848,178.072,181.624,184.288,186.288,191.624,193.848,196.96,200.96,202.96,208.296,211.848,215.848,219.848,223.4,225.624,227.624,229.624,235.4,239.4,241.624,245.624,249.624,252.288,254.288,260.512,264.064,268.064,272.064,275.176,278.728,281.392,283.616,287.616,289.84,292.064,294.064,297.456,301.256,304.808,307.032,309.256,312.808,316.808,319.032,322.584,324.584,326.808,330.808,332.808,337.256,344.368,349.704,351.704,355.704,359.704,363.704,367.704,369.704,374.152,377.704,381.704,383.928,387.48,393.704,397.704,401.256,403.92,405.92,409.92,413.92" svgx:width="0.33,0.5,0.28,0.25,0.39,0.25,0.72,0.28,0.39,0.44,0.39,0.28,0.44,0.33,0.25,0.67,0.28,0.39,0.5,0.25,0.67,0.44,0.5,0.5,0.44,0.28,0.25,0.25,0.72,0.5,0.28,0.5,0.5,0.33,0.25,0.78,0.44,0.5,0.5,0.39,0.44,0.33,0.28,0.5,0.28,0.28,0.25,0.44,0.5,0.44,0.28,0.28,0.44,0.5,0.28,0.44,0.25,0.28,0.5,0.25,0.56,0.89,0.67,0.25,0.5,0.5,0.5,0.5,0.25,0.56,0.44,0.5,0.28,0.44,0.78,0.5,0.44,0.33,0.25,0.5,0.5,0.25" style="fill:rgb(0,0,0);font-family:Times-Roman;font-size:8.0px;stroke:none;">Int J Disaster Risk Reduct. Author manuscript; available in PMC 2019 September 04.</text>
  </g>
  <rect style="stroke:blue;stroke-width:0.3;" x="20.0" y="131.012" height="12.0" width="12.0" title="10"/>
  <text y="131.012" class="image" id="image.10.1" width="12" height="12" x="20.0">image.10.1.20_32.131_143</text>
  <g begin="text">
   <text y="135.012" transform="matrix(0.0,1.0,-1.0,0.0,155.012,115.012)" rotateDegrees="90" matrix="[0.0,-12.0,12.0,0.0,20.0,656.98804]" x="20.0,17.0,9.668000000000006,3.6680000000000064,-0.32800000000000296,-6.328000000000003,-12.328000000000003,-17.656000000000006,-20.656000000000006,-27.328000000000003,-37.99600000000001,-46.0,-49.0,-55.672,-61.672,-67.672,-73.672,-79.0,-82.99600000000001,-87.66399999999999,-90.66399999999999,-99.328,-105.32799999999997,-108.66399999999999,-114.66399999999999,-120.66399999999999,-124.66000000000003,-127.66000000000003,-138.32799999999997,-143.656,-149.656,-155.656,-160.324,-165.652,-169.64800000000002,-172.98399999999998,-178.98399999999998,-182.32" svgx:width="0.25,0.61,0.5,0.33,0.5,0.5,0.44,0.25,0.56,0.89,0.67,0.25,0.56,0.5,0.5,0.5,0.44,0.33,0.39,0.25,0.72,0.5,0.28,0.5,0.5,0.33,0.25,0.89,0.44,0.5,0.5,0.39,0.44,0.33,0.28,0.5,0.28,0.39" style="fill:rgb(90,89,94);font-family:Times-Roman;font-size:12.0px;stroke:none;"> Europe PMC Funders Author Manuscripts</text>
  </g>
  <rect style="stroke:blue;stroke-width:0.3;" x="20.0" y="422.0" height="12.0" width="12.0" title="10"/>
  <text y="422.0" class="image" id="image.10.2" width="12" height="12" x="20.0">image.10.2.20_32.422_434</text>
  <g begin="text">
   <text y="426.0" transform="matrix(0.0,1.0,-1.0,0.0,446.0,406.0)" rotateDegrees="90" matrix="[0.0,-12.0,12.0,0.0,20.0,366.00006]" x="20.0,17.0,9.668000000000006,3.6680000000000064,-0.32799999999997453,-6.3279999999999745,-12.327999999999975,-17.656000000000006,-20.656000000000006,-27.327999999999975,-37.99599999999998,-46.0,-49.0,-55.672000000000025,-61.672000000000025,-67.67200000000003,-73.67200000000003,-79.0,-82.99599999999998,-87.66399999999999,-90.66399999999999,-99.32799999999997,-105.32799999999997,-108.66399999999999,-114.66399999999999,-120.66399999999999,-124.65999999999997,-127.65999999999997,-138.32799999999997,-143.65599999999995,-149.65599999999995,-155.65599999999995,-160.32399999999996,-165.65200000000004,-169.64800000000002,-172.98400000000004,-178.98400000000004,-182.32000000000005" svgx:width="0.25,0.61,0.5,0.33,0.5,0.5,0.44,0.25,0.56,0.89,0.67,0.25,0.56,0.5,0.5,0.5,0.44,0.33,0.39,0.25,0.72,0.5,0.28,0.5,0.5,0.33,0.25,0.89,0.44,0.5,0.5,0.39,0.44,0.33,0.28,0.5,0.28,0.39" style="fill:rgb(90,89,94);font-family:Times-Roman;font-size:12.0px;stroke:none;"> Europe PMC Funders Author Manuscripts</text>
  </g>
  <path style="fill:none;stroke:rgb(90,89,94);stroke-width:1.0;" d="M35.500 36.000 L37.420 36.000 L37.420 720.000 L35.500 720.000 L33.580 720.000 L33.580 36.000 M35.500 36.000 L35.500 720.000 "/>
 </g>
</svg>
