<?xml version="1.0" encoding="UTF-8"?>
<svg height="731.4" width="4030.0" xmlns="http://www.w3.org/2000/svg">
 <g id="page" xmlns:svgx="http://www.xml-cml.org/schema/svgx">
  <g begin="text">
   <text y="68.9" x="150.003,153.0,157.5,162.0,164.997,167.247,169.497,175.995,179.991,184.491,186.993,190.989,195.489,197.739,199.989,206.487,208.737,210.987,217.485,221.481,225.981,229.977,234.477,236.979,239.481,241.731,243.981,248.985,251.235,253.485,259.488,263.484,267.984,271.98,275.481,277.983,281.979,286.479,288.729,292.23,294.732,297.729,302.229,306.225,308.727,313.227,316.224,320.22,322.722,324.972,328.968,333.468,337.968,341.964,344.466,346.968,351.468,355.968,358.218,365.22,369.72,374.22,378.216,380.718,383.22,385.722,390.222,394.722,401.22,405.216,409.716,414.216,418.716,423.216,427.716,432.216,434.466,438.966,441.963,444.213,449.217,451.719,454.716,459.216,463.212,465.714,470.214,473.211,477.207,479.709,481.959,487.458,491.958,496.458,500.454,502.956,505.458,509.958,514.458" svgx:width="0.33,0.5,0.5,0.33,0.25,0.25,0.72,0.44,0.5,0.28,0.44,0.5,0.25,0.25,0.72,0.25,0.25,0.72,0.44,0.5,0.44,0.5,0.28,0.28,0.25,0.25,0.56,0.25,0.25,0.67,0.44,0.5,0.44,0.39,0.28,0.44,0.5,0.25,0.39,0.28,0.33,0.5,0.44,0.28,0.5,0.33,0.44,0.28,0.25,0.44,0.5,0.5,0.44,0.28,0.28,0.5,0.5,0.25,0.78,0.5,0.5,0.44,0.28,0.28,0.28,0.5,0.5,0.72,0.44,0.5,0.5,0.5,0.5,0.5,0.5,0.25,0.5,0.33,0.25,0.56,0.28,0.33,0.5,0.44,0.28,0.5,0.33,0.44,0.28,0.25,0.61,0.5,0.5,0.44,0.28,0.28,0.5,0.5,0.25" style="fill:rgb(0,0,0);font-family:Times-Roman;font-size:9.0px;stroke:none;">[44]. Kaplan, D, Depaoli, S. Bayesian structural equation modellingHandbook of Structural Equation </text>
   <text y="79.9" x="170.001,178.002,182.502,187.002,190.998,193.5,196.002,198.504,203.004,207.504,209.754,212.004,218.502,222.912,227.412,229.914,233.91,236.16,238.41,244.413,250.911,253.161,255.411,259.407,263.907,266.409,268.911,273.411,275.913,278.163,280.413,286.911,291.411,293.913,296.415,299.412,303.912,306.909,311.409,313.659,318.663,321.66,325.656,329.157,332.658,335.16,337.41,343.908,347.679,354.177,356.427,361.935,366.435,369.432,373.932,376.182,382.68,387.684,390.186,392.436,396.936,401.436,405.936,410.436,412.686,414.936,419.436,423.936,428.436,432.936,437.436,441.936,446.436,448.686" svgx:width="0.89,0.5,0.5,0.44,0.28,0.28,0.28,0.5,0.5,0.25,0.25,0.72,0.5,0.5,0.28,0.44,0.25,0.25,0.67,0.72,0.25,0.25,0.44,0.5,0.28,0.28,0.5,0.33,0.25,0.25,0.72,0.5,0.28,0.28,0.33,0.5,0.33,0.5,0.25,0.56,0.33,0.44,0.39,0.39,0.28,0.25,0.72,0.44,0.72,0.25,0.72,0.5,0.33,0.5,0.25,0.72,0.56,0.28,0.25,0.5,0.5,0.5,0.5,0.25,0.25,0.5,0.5,0.5,0.5,0.5,0.5,0.5,0.25,0.25" style="fill:rgb(0,0,0);font-family:Times-Roman;font-size:9.0px;stroke:none;">Modelling. Hoyle, RH, editor. Guilford Press; New York US: 2012. 650–673. </text>
  </g>
  <g begin="text">
   <text y="92.9" x="150.003,153.0,157.5,162.0,164.997,167.247,169.497,177.498,181.494,185.49,191.493,195.489,197.991,200.493,204.993,211.995,214.245,220.248,226.251,228.501,230.751,236.754,239.751,244.026,250.524,255.024,259.02,261.27,269.271,276.939,279.189,281.439,286.443,290.943,295.398,299.259,305.667,309.663,312.66,316.656,318.906,325.404,333.405,335.655,337.905,342.909,347.184,353.682,357.678,360.675,362.925,366.921,371.421,375.417,377.919,382.419,385.92,388.422,391.923,394.173,398.169,402.669,407.169,409.419,413.919,417.915,420.417,424.413,427.41,434.412,436.914,441.414,445.41,447.912,450.414,454.914,459.414,461.664,466.164,469.161,471.411,474.912,478.908,485.91,490.41,492.912,496.908,499.158,502.659,505.161,509.157,513.153" svgx:width="0.33,0.5,0.5,0.33,0.25,0.25,0.89,0.44,0.44,0.67,0.44,0.28,0.28,0.5,0.78,0.25,0.67,0.67,0.25,0.25,0.67,0.33,0.5,0.72,0.5,0.44,0.25,0.89,0.94,0.25,0.25,0.56,0.5,0.5,0.44,0.72,0.44,0.33,0.44,0.25,0.72,0.89,0.25,0.25,0.56,0.5,0.72,0.44,0.33,0.25,0.44,0.5,0.44,0.28,0.5,0.39,0.28,0.39,0.25,0.44,0.5,0.5,0.25,0.5,0.44,0.28,0.44,0.33,0.78,0.28,0.5,0.44,0.28,0.28,0.5,0.5,0.25,0.5,0.33,0.25,0.39,0.44,0.78,0.5,0.28,0.44,0.25,0.39,0.28,0.44,0.44,0.25" style="fill:rgb(0,0,0);font-family:Times-Roman;font-size:9.0px;stroke:none;">[45]. MacCallum RC, Browne MW, Sugawara HM. Power analysis and determination of sample size </text>
   <text y="103.9" x="170.001,172.998,177.498,180.495,182.745,186.741,191.106,195.381,199.377,202.374,204.876,208.872,213.372,217.368,221.364,223.614,227.115,229.617,232.614,237.114,241.11,243.612,248.112,251.109,255.105,257.355,264.357,268.857,273.357,277.353,279.855,282.357,286.857,291.357,293.607,295.857,300.861,304.362,308.862,312.858,317.358,321.858,324.36,326.61,334.611,338.607,341.109,345.609,350.109,354.609,358.11,360.36,362.61,367.11,371.61,376.11,380.61,383.112,385.362,389.862,392.859,397.359,400.356,402.858,407.358,411.858,416.358,420.858,425.358,429.858,434.358" svgx:width="0.33,0.5,0.33,0.25,0.44,0.5,0.5,0.44,0.33,0.28,0.44,0.5,0.44,0.44,0.25,0.39,0.28,0.33,0.5,0.44,0.28,0.5,0.33,0.44,0.25,0.78,0.5,0.5,0.44,0.28,0.28,0.5,0.5,0.25,0.25,0.56,0.39,0.5,0.44,0.5,0.5,0.28,0.25,0.89,0.44,0.28,0.5,0.5,0.5,0.39,0.25,0.25,0.5,0.5,0.5,0.5,0.28,0.25,0.5,0.33,0.5,0.33,0.28,0.5,0.5,0.5,0.5,0.5,0.5,0.5,0.25" style="fill:rgb(0,0,0);font-family:Times-Roman;font-size:9.0px;stroke:none;">for covariance structure modeling. Psychol Methods. 1996; 1(1):130–149.</text>
  </g>
  <g begin="text">
   <text y="116.9" x="150.003,153.0,157.5,162.0,164.997,167.247,169.497,175.995,180.495,182.745,184.995,190.494,193.491,195.993,198.495,200.745,206.748,210.744,215.244,217.746,220.248,224.244,226.881,229.131,231.381,236.385,244.386,246.636,248.886,254.889,259.389,261.891,266.391,269.163,272.16,274.41,278.406,281.403,283.905,286.407,290.403,293.4,295.902,299.898,302.148,305.145,309.645,312.642,314.892,317.709,320.211,322.713,324.963,327.465,331.965,336.465,340.326,344.691,348.687,352.188,354.438,356.94,361.44,363.69,367.686,372.051,376.326,380.322,383.319,385.821,389.817,394.317,398.313,402.309,404.559,408.06,410.562,413.559,418.059,422.055,424.557,429.057,432.054,436.05,438.3,442.296,446.796,450.792,453.294,457.794,461.295,463.797,467.298,469.8,472.05,476.046,480.546,484.686,489.051,493.047,497.547,500.049,502.551,507.051,511.551,515.547,518.049" svgx:width="0.33,0.5,0.5,0.33,0.25,0.25,0.72,0.5,0.25,0.25,0.61,0.33,0.28,0.28,0.25,0.67,0.44,0.5,0.28,0.28,0.44,0.33,0.25,0.25,0.56,0.89,0.25,0.25,0.67,0.5,0.28,0.5,0.33,0.33,0.25,0.44,0.33,0.28,0.28,0.44,0.33,0.28,0.44,0.25,0.33,0.5,0.33,0.25,0.33,0.28,0.28,0.25,0.28,0.5,0.5,0.44,0.5,0.44,0.39,0.25,0.28,0.5,0.25,0.44,0.5,0.5,0.44,0.33,0.28,0.44,0.5,0.44,0.44,0.25,0.39,0.28,0.33,0.5,0.44,0.28,0.5,0.33,0.44,0.25,0.44,0.5,0.44,0.28,0.5,0.39,0.28,0.39,0.28,0.25,0.44,0.5,0.5,0.5,0.44,0.5,0.28,0.28,0.5,0.5,0.44,0.28,0.25" style="fill:rgb(0,0,0);font-family:Times-Roman;font-size:9.0px;stroke:none;">[46]. Hu, L-t; Bentler, PM. Cutoff criteria for fit indexes in covariance structure analysis: conventional </text>
   <text y="127.9" x="170.001,173.997,176.994,179.496,181.998,185.994,188.991,191.493,195.489,197.739,202.104,206.1,209.097,212.598,217.098,220.599,222.849,227.349,231.12,237.618,239.868,243.864,246.366,248.868,252.864,255.861,260.361,264.357,266.859,269.136,273.501,277.497,280.998,283.248,285.498,290.502,293.004,296.001,300.501,304.497,306.999,309.249,314.748,319.248,323.748,325.998,333.999,338.499,342.999,346.995,349.497,351.747,358.245,360.495,368.496,372.996,375.498,378.0,380.502,385.002,387.504,391.005,395.001,397.503,402.003,404.253,407.754,410.004,412.254,416.754,421.254,425.754,430.254,432.756,435.006,439.506,442.503,447.003,450.0,452.502,457.002,461.502,466.002,470.502" svgx:width="0.44,0.33,0.28,0.28,0.44,0.33,0.28,0.44,0.25,0.5,0.44,0.33,0.39,0.5,0.39,0.25,0.5,0.44,0.72,0.25,0.44,0.28,0.28,0.44,0.33,0.5,0.44,0.28,0.28,0.5,0.44,0.39,0.25,0.25,0.56,0.28,0.33,0.5,0.44,0.28,0.25,0.61,0.5,0.5,0.25,0.89,0.5,0.5,0.44,0.28,0.25,0.72,0.25,0.89,0.5,0.28,0.28,0.28,0.5,0.28,0.39,0.44,0.28,0.5,0.25,0.39,0.25,0.25,0.5,0.5,0.5,0.5,0.28,0.25,0.5,0.33,0.5,0.33,0.28,0.5,0.5,0.5,0.5,0.25" style="fill:rgb(0,0,0);font-family:Times-Roman;font-size:9.0px;stroke:none;">criteria versus new alternatives. Struct Equ Model A Multidiscip J. 1999; 6(1):1–55.</text>
  </g>
  <g begin="text">
   <text y="140.9" x="150.003,153.0,157.5,162.0,164.997,167.247,169.497,177.498,181.494,185.49,191.988,194.49,198.99,203.49,207.99,212.49,214.74,221.238,225.243,227.493,229.743,236.241,239.238,243.738,246.24,248.742,250.992,254.493,259.992,262.242,264.492,269.991,274.491,278.487,282.987,289.395,293.895,298.395,302.895,305.145,311.148,319.149,321.399,323.649,329.148,333.648,338.148,340.425,344.7,348.696,351.198,355.194,359.694,363.69,367.686,369.936,374.436,377.433,379.683,382.185,386.685,390.681,392.931,399.933,403.929,408.429,410.931,414.927,417.429,419.931,424.431,428.931,431.181,433.431,437.427,441.927,446.427,449.424,453.924,458.424,462.924,467.424,469.926,474.426,478.926,481.176,485.172,489.672,494.172" svgx:width="0.33,0.5,0.5,0.33,0.25,0.25,0.89,0.44,0.44,0.72,0.28,0.5,0.5,0.5,0.5,0.25,0.72,0.56,0.25,0.25,0.72,0.33,0.5,0.28,0.28,0.25,0.39,0.61,0.25,0.25,0.61,0.5,0.44,0.5,0.72,0.5,0.5,0.5,0.25,0.67,0.89,0.25,0.25,0.61,0.5,0.5,0.28,0.5,0.44,0.28,0.44,0.5,0.44,0.44,0.25,0.5,0.33,0.25,0.28,0.5,0.44,0.25,0.78,0.44,0.5,0.28,0.44,0.28,0.28,0.5,0.5,0.25,0.25,0.44,0.5,0.5,0.33,0.5,0.5,0.5,0.5,0.28,0.5,0.5,0.25,0.44,0.5,0.5,0.25" style="fill:rgb(0,0,0);font-family:Times-Roman;font-size:9.0px;stroke:none;">[47]. MacKinnon DP, Krull JL, Lockwood CM. Equivalence of the mediation, confounding and </text>
   <text y="151.9" x="170.001,173.502,178.002,182.502,187.002,189.999,193.995,197.496,200.997,203.499,207.999,212.499,214.749,218.745,221.517,224.514,228.51,232.506,235.008,237.258,239.508,244.512,247.509,251.28,255.78,258.03,263.034,267.03,269.532,271.782,274.032,278.532,283.032,287.532,292.032,294.534,296.784,301.284,304.281,308.781,311.778,314.28,318.78,323.28,327.78,330.03,332.28,335.277,340.281,344.781,349.281,357.282,361.278,365.778,368.28,370.53,375.03,379.53,384.03,388.53,393.03,397.53,402.03,406.53,409.527" svgx:width="0.39,0.5,0.5,0.5,0.33,0.44,0.39,0.39,0.28,0.5,0.5,0.25,0.44,0.33,0.33,0.44,0.44,0.28,0.25,0.25,0.56,0.33,0.44,0.5,0.25,0.56,0.44,0.28,0.25,0.25,0.5,0.5,0.5,0.5,0.28,0.25,0.5,0.33,0.5,0.33,0.28,0.5,0.5,0.5,0.25,0.25,0.33,0.56,0.5,0.5,0.89,0.44,0.5,0.28,0.25,0.5,0.5,0.5,0.5,0.5,0.5,0.5,0.5,0.33,0.25" style="fill:rgb(0,0,0);font-family:Times-Roman;font-size:9.0px;stroke:none;">suppression effect. Prev Sci. 2000; 1(4):173. [PubMed: 11523746] </text>
  </g>
  <g begin="text">
   <text y="164.9" x="150.003,153.0,157.5,162.0,164.997,167.247,169.497,175.5,180.0,182.835,187.335,191.331,194.832,198.333,200.583,207.081,209.331,211.581,218.079,222.579,225.576,228.078,230.58,232.83,240.831,243.081,245.331,251.334,253.836,257.337,261.837,264.087,266.337,269.334,271.836,274.338,278.838,282.834,285.336,287.586,291.582,296.082,300.582,302.832,307.332,311.328,315.324,317.826,320.328,324.828,327.078,330.075,334.071,337.572,342.072,346.572,351.072,354.573,357.075,361.575,364.077,366.579,369.081,372.582,376.578,379.08,381.582,386.082,390.582,393.084,395.334,398.835,402.831,407.331,411.327,415.827,417.447,420.948,423.198,426.195,429.696,433.692,436.689,440.685,443.187,447.687,449.937,454.437,456.939,460.935,465.435,469.845,473.841,476.343,479.34,481.59,486.09,489.087,491.337,494.838,499.338,502.173,506.673,509.175,513.171,517.167,519.669" svgx:width="0.33,0.5,0.5,0.33,0.25,0.25,0.67,0.5,0.33,0.5,0.44,0.39,0.39,0.25,0.72,0.25,0.25,0.72,0.5,0.33,0.28,0.28,0.25,0.89,0.25,0.25,0.67,0.28,0.39,0.5,0.25,0.25,0.33,0.28,0.28,0.5,0.44,0.28,0.25,0.44,0.5,0.5,0.25,0.5,0.44,0.44,0.28,0.28,0.5,0.25,0.33,0.44,0.39,0.5,0.5,0.5,0.39,0.28,0.5,0.28,0.28,0.28,0.39,0.44,0.28,0.28,0.5,0.5,0.28,0.25,0.39,0.44,0.5,0.44,0.5,0.18,0.39,0.25,0.33,0.39,0.44,0.33,0.44,0.28,0.5,0.25,0.5,0.28,0.44,0.5,0.5,0.44,0.28,0.33,0.25,0.5,0.33,0.25,0.39,0.5,0.33,0.5,0.28,0.44,0.44,0.28,0.25" style="fill:rgb(0,0,0);font-family:Times-Roman;font-size:9.0px;stroke:none;">[48]. Burgess A, Horii M. Risk, ritual and health responsibilisation: Japan's ‘safety blanket’ of surgical </text>
   <text y="175.9" x="170.001,172.908,176.904,180.9,184.896,187.146,194.148,198.144,201.645,206.145,209.142,215.64,219.636,223.632,226.629,229.131,233.631,238.131,240.381,242.631,247.635,252.135,256.131,258.633,263.133,265.635,267.885,274.383,278.379,282.375,284.877,287.379,291.879,294.129,297.126,299.628,302.13,306.63,308.88,311.13,315.63,320.13,324.63,329.13,331.632,333.882,338.382,342.882,345.879,350.379,353.376,355.878,360.378,364.878,369.378,373.878,378.378,382.878,387.378,391.878,396.378,398.628,400.878,403.875,408.879,413.379,417.879,425.88,429.876,434.376,436.878,439.128,443.628,448.128,452.628,457.128,461.628,466.128,470.628,475.128,478.125" svgx:width="0.33,0.44,0.44,0.44,0.25,0.78,0.44,0.39,0.5,0.33,0.72,0.44,0.44,0.33,0.28,0.5,0.5,0.25,0.25,0.56,0.5,0.44,0.28,0.5,0.28,0.25,0.72,0.44,0.44,0.28,0.28,0.5,0.25,0.33,0.28,0.28,0.5,0.25,0.25,0.5,0.5,0.5,0.5,0.28,0.25,0.5,0.5,0.33,0.5,0.33,0.28,0.5,0.5,0.5,0.5,0.5,0.5,0.5,0.5,0.5,0.25,0.25,0.33,0.56,0.5,0.5,0.89,0.44,0.5,0.28,0.25,0.5,0.5,0.5,0.5,0.5,0.5,0.5,0.5,0.33,0.25" style="fill:rgb(0,0,0);font-family:Times-Roman;font-size:9.0px;stroke:none;">face mask-wearing. Sociol Health Illn. 2012; 34(8):1184–1198. [PubMed: 22443378] </text>
  </g>
  <g begin="text">
   <text y="188.9" x="150.003,153.0,157.5,162.0,164.997,167.247,169.497,174.996,179.496,181.998,184.5,186.75,189.0,192.501,194.751,197.001,199.998,203.994,206.496,208.998,212.994,217.494,219.744,224.244,228.744,233.244,237.744,239.994,244.494,248.994,251.244,254.745,259.245,263.745,267.741,270.738,272.988,279.486,283.761,290.259,292.509,296.01,300.51,303.345,307.845,310.347,314.343,318.339,320.841,323.091,330.093,334.089,337.59,342.09,345.591,347.841,352.341,356.337,360.333,364.329,371.331,375.327,377.577,381.573,383.823,386.73,390.726,394.227,398.727,401.229,405.729,410.229,412.479,415.98,418.482,422.478,424.98,428.976,435.978,439.974,444.474,446.976,449.226,451.476,455.976,460.476,464.976,469.476,471.726,473.976,479.808,484.083,488.079,490.581,493.083,497.079,501.579,504.081,508.077" svgx:width="0.33,0.5,0.5,0.33,0.25,0.25,0.61,0.5,0.28,0.28,0.25,0.25,0.39,0.25,0.25,0.33,0.44,0.28,0.28,0.44,0.5,0.25,0.5,0.5,0.5,0.5,0.25,0.5,0.5,0.25,0.39,0.5,0.5,0.44,0.33,0.25,0.72,0.5,0.72,0.25,0.39,0.5,0.33,0.5,0.28,0.44,0.44,0.28,0.25,0.78,0.44,0.39,0.5,0.39,0.25,0.5,0.44,0.44,0.44,0.78,0.44,0.25,0.44,0.25,0.33,0.44,0.39,0.5,0.28,0.5,0.5,0.25,0.39,0.28,0.44,0.28,0.44,0.78,0.44,0.5,0.28,0.25,0.25,0.5,0.5,0.5,0.5,0.25,0.25,0.72,0.5,0.44,0.28,0.28,0.44,0.5,0.28,0.44,0.25" style="fill:rgb(0,0,0);font-family:Times-Roman;font-size:9.0px;stroke:none;">[49]. Egli, J. [cited 2018 24 June] How surgical masks became a fashion statement. 2015. Available </text>
   <text y="199.9" x="170.001,172.998,175.995,180.495,187.497,189.999,192.249" svgx:width="0.33,0.33,0.5,0.78,0.28,0.25,0.56" style="fill:rgb(0,0,0);font-family:Times-Roman;font-size:9.0px;stroke:none;">from: &lt;</text>
  </g>
  <g begin="text">
   <text y="199.9" x="197.325,201.825,204.327,206.829,211.329,213.831,216.333,218.835,225.333,231.831,237.744,239.994,244.494,248.49,252.486,256.482,260.982,265.482,267.984,272.484,274.986,277.488,281.484,283.986,286.236,290.232,294.732,301.734,304.236,307.143,311.139,314.64,319.14,321.642,326.142,330.642,333.144,337.14,340.137,342.639,345.141,349.137,351.639,355.635,358.137,362.637,367.137,371.637,376.137,380.637,383.139,387.639,390.141,394.641,398.916,405.414,408.411,411.912,416.412,419.247,423.747,426.249,430.245,434.241,436.743,439.74,446.742,450.738,454.239,458.739,462.24,465.237,469.737,473.733,477.729,481.725,488.727,492.723,495.72,499.716" svgx:width="0.5,0.28,0.28,0.5,0.28,0.28,0.28,0.72,0.72,0.72,0.25,0.5,0.44,0.44,0.44,0.5,0.5,0.28,0.5,0.28,0.28,0.44,0.28,0.25,0.44,0.5,0.78,0.28,0.33,0.44,0.39,0.5,0.28,0.5,0.5,0.28,0.44,0.33,0.28,0.28,0.44,0.28,0.44,0.28,0.5,0.5,0.5,0.5,0.5,0.28,0.5,0.28,0.5,0.5,0.72,0.33,0.39,0.5,0.33,0.5,0.28,0.44,0.44,0.28,0.33,0.78,0.44,0.39,0.5,0.39,0.33,0.5,0.44,0.44,0.44,0.78,0.44,0.33,0.44,0.33" style="fill:rgb(0,112,144);font-family:Times-Roman;font-size:9.0px;stroke:none;">http://www.dazeddigital.com/fashion/article/28826/1/how-surgical-masks-became-a-</text>
   <text y="210.9" x="170.001,172.908,176.904,180.405,184.905,187.407,191.907,196.407,199.404,202.905,205.407,209.403,211.905,215.901,222.903,226.899,231.399" svgx:width="0.33,0.44,0.39,0.5,0.28,0.5,0.5,0.33,0.39,0.28,0.44,0.28,0.44,0.78,0.44,0.5,0.28" style="fill:rgb(0,112,144);font-family:Times-Roman;font-size:9.0px;stroke:none;">fashion-statement</text>
  </g>
  <g begin="text">
   <text y="210.9" x="233.901" svgx:width="0.56" style="fill:rgb(0,0,0);font-family:Times-Roman;font-size:9.0px;stroke:none;">&gt;</text>
  </g>
  <g begin="text">
   <text y="223.9" x="150.003,153.0,157.5,162.0,164.997,167.247,169.497,174.996,179.496,183.492,186.489,193.491,197.487,201.987,204.237,212.238,214.488,216.738,220.734,223.236,225.486,229.482,231.984,234.234,236.484,239.481,246.483,250.983,253.98,258.345,262.845,265.347,269.847,274.347,276.597,283.599,287.595,290.097,294.093,297.09,301.59,305.586,308.088,310.338,314.334,318.834,323.334,325.584,329.58,334.08,336.582,339.084,343.584,345.834,350.334,354.33,358.326,360.828,363.33,367.83,370.08,374.58,379.08,381.582,385.578,390.078,397.08,401.076,404.577,406.827,409.077,415.575,422.577,424.827,428.328,430.578,436.581,439.083,441.585,446.085,448.335,456.336,460.332,464.832,467.082,469.332,473.832,478.332,482.832,487.332,489.834,492.084,496.584,499.581,504.081,507.078" svgx:width="0.33,0.5,0.5,0.33,0.25,0.25,0.61,0.5,0.44,0.33,0.78,0.44,0.5,0.25,0.89,0.25,0.25,0.44,0.28,0.25,0.44,0.28,0.25,0.25,0.33,0.78,0.5,0.33,0.5,0.5,0.28,0.5,0.5,0.25,0.78,0.44,0.28,0.44,0.33,0.5,0.44,0.28,0.25,0.44,0.5,0.5,0.25,0.44,0.5,0.28,0.28,0.5,0.25,0.5,0.44,0.44,0.28,0.28,0.5,0.25,0.5,0.5,0.28,0.44,0.5,0.78,0.44,0.39,0.25,0.25,0.72,0.78,0.25,0.39,0.25,0.67,0.28,0.28,0.5,0.25,0.89,0.44,0.5,0.25,0.25,0.5,0.5,0.5,0.5,0.28,0.25,0.5,0.33,0.5,0.33,0.28" style="fill:rgb(0,0,0);font-family:Times-Roman;font-size:9.0px;stroke:none;">[50]. Loafman M, et al. Improving maternal and child health outcomes. Am J Clin Med. 2009; 6(2):</text>
   <text y="234.9" x="170.001,174.501,179.001,183.501,188.001,192.501" svgx:width="0.5,0.5,0.5,0.5,0.5,0.25" style="fill:rgb(0,0,0);font-family:Times-Roman;font-size:9.0px;stroke:none;">48–52.</text>
  </g>
  <g begin="text">
   <text y="247.9" x="150.003,153.0,157.5,162.0,164.997,167.247,169.497,175.995,178.497,182.493,185.994,189.495,193.995,196.767,199.764,202.014,208.017,210.267,212.517,219.015,223.011,227.511,232.011,236.007,239.004,241.254,245.754,248.256,251.028,254.025,258.021,261.018,265.014,269.514,273.51,277.506,281.007,283.257,285.759,290.259,292.509,297.009,301.005,303.507,307.503,310.5,317.502,320.004,324.504,328.5,333.0,335.502,339.003,341.253,345.249,349.749,354.249,356.499,360.495,364.995,369.495,372.996,376.992,381.492,385.992,389.988,394.488,398.484,402.48,405.981,408.231,412.731,415.728,417.978,422.478,426.474,430.47,432.972,435.474,439.974,442.224,446.22,450.72,455.22,457.47,459.972,462.474,464.976,469.476,473.472,476.973,480.474,482.724,484.974,488.475,490.725,497.223,501.219,505.215,507.717,510.219,514.719" svgx:width="0.33,0.5,0.5,0.33,0.25,0.25,0.72,0.28,0.44,0.39,0.39,0.5,0.33,0.33,0.25,0.67,0.25,0.25,0.72,0.44,0.5,0.5,0.44,0.33,0.25,0.5,0.28,0.33,0.33,0.44,0.33,0.44,0.5,0.44,0.44,0.39,0.25,0.28,0.5,0.25,0.5,0.44,0.28,0.44,0.33,0.78,0.28,0.5,0.44,0.5,0.28,0.39,0.25,0.44,0.5,0.5,0.25,0.44,0.5,0.5,0.39,0.44,0.5,0.5,0.44,0.5,0.44,0.44,0.39,0.25,0.5,0.33,0.25,0.5,0.44,0.44,0.28,0.28,0.5,0.25,0.44,0.5,0.5,0.25,0.28,0.28,0.28,0.5,0.44,0.39,0.39,0.25,0.25,0.39,0.25,0.72,0.44,0.44,0.28,0.28,0.5,0.25" style="fill:rgb(0,0,0);font-family:Times-Roman;font-size:9.0px;stroke:none;">[51]. Vlassoff C. Gender differences in determinants and consequences of health and illness. J Health </text>
   <text y="258.9" x="170.001,175.005,179.505,184.005,188.505,191.007,193.257,199.755,204.255,206.757,209.259,211.509,213.759,218.259,222.759,227.259,231.759,234.261,236.511,241.011,245.511,248.508,253.008,256.005,258.507,263.007,267.507,272.007,276.507,281.007,283.257,285.507,288.504,293.508,298.008,302.508,310.509,314.505,319.005,321.507,323.757,328.257,332.757,337.257,341.757,346.257,350.757,355.257,359.757,362.754" svgx:width="0.56,0.5,0.5,0.5,0.28,0.25,0.72,0.5,0.28,0.33,0.25,0.25,0.5,0.5,0.5,0.5,0.28,0.25,0.5,0.5,0.33,0.5,0.33,0.28,0.5,0.5,0.5,0.5,0.5,0.25,0.25,0.33,0.56,0.5,0.5,0.89,0.44,0.5,0.28,0.25,0.5,0.5,0.5,0.5,0.5,0.5,0.5,0.5,0.33,0.25" style="fill:rgb(0,0,0);font-family:Times-Roman;font-size:9.0px;stroke:none;">Popul Nutr. 2007; 25(1):47–61. [PubMed: 17615903] </text>
  </g>
  <g begin="text">
   <text y="271.9" x="150.003,153.0,157.5,162.0,164.997,167.247,169.497,175.5,179.496,183.996,186.498,190.494,193.131,195.381,197.631,202.635,206.136,208.386,210.636,212.886,215.136,219.132,221.634,223.884,227.88,230.382,232.632,234.882,240.381,244.656,248.652,251.154,255.654,259.65,262.152,264.654,269.154,273.654,275.904,278.406,282.906,286.902,289.152,292.149,296.145,299.646,304.146,306.648,309.645,313.641,316.143,320.643,323.64,328.14,330.39,334.89,338.886,342.882,345.384,347.886,352.386,354.636,357.633,360.135,363.636,368.136,371.637,373.887,378.387,381.384,383.634,387.954,392.454,394.956,398.952,402.948,407.448,409.95,413.946,416.196,420.192,423.693,428.193,430.443,434.439,436.941,439.191,441.693,446.193,450.189,452.439,456.435,459.432,463.932,468.432,470.934,473.436,477.936,482.436,484.686,489.186,492.183,494.433,496.935,501.435,505.431" svgx:width="0.33,0.5,0.5,0.33,0.25,0.25,0.67,0.44,0.5,0.28,0.44,0.33,0.25,0.25,0.56,0.39,0.25,0.25,0.25,0.25,0.44,0.28,0.25,0.44,0.28,0.25,0.25,0.61,0.5,0.44,0.28,0.5,0.44,0.28,0.28,0.5,0.5,0.25,0.28,0.5,0.44,0.25,0.33,0.44,0.39,0.5,0.28,0.33,0.44,0.28,0.5,0.33,0.5,0.25,0.5,0.44,0.44,0.28,0.28,0.5,0.25,0.33,0.28,0.39,0.5,0.39,0.25,0.5,0.33,0.25,0.5,0.5,0.28,0.44,0.44,0.5,0.28,0.44,0.25,0.44,0.39,0.5,0.25,0.44,0.28,0.25,0.28,0.5,0.44,0.25,0.44,0.33,0.5,0.5,0.28,0.28,0.5,0.5,0.25,0.5,0.33,0.25,0.28,0.5,0.44,0.25" style="fill:rgb(0,0,0);font-family:Times-Roman;font-size:9.0px;stroke:none;">[52]. Baxter, PJ, , et al. Evaluating the respiratory health risks of volcanic ash at the eruption of the </text>
   <text y="282.9" x="170.001,175.005,179.505,184.005,187.002,189.999,192.501,196.497,199.494,203.49,205.74,212.238,214.74,217.242,219.744,223.245,225.495,230.832,235.332,237.834,241.83,245.826,250.326,254.826,257.076,259.326,267.327,271.827,276.327,278.829,282.33,286.326,289.323,292.32,296.316,298.818,301.068,303.318,307.818,312.318,316.818,321.318,325.818,330.318,334.818,339.318,343.818,349.317,353.817,357.813,360.063,365.562,368.559,373.059,377.559,380.061,382.563,387.063,391.563,393.813,398.313,401.31,403.56,408.564,413.064,417.564,420.561,423.558,426.06,430.056,433.053,437.049,439.299,445.797,448.299,450.801,453.303,456.804,459.054,464.391,468.891,471.393,475.389,479.385,483.885,488.385,490.635" svgx:width="0.56,0.5,0.5,0.33,0.33,0.28,0.44,0.33,0.44,0.25,0.72,0.28,0.28,0.28,0.39,0.25,0.72,0.5,0.28,0.44,0.44,0.5,0.5,0.25,0.25,0.89,0.5,0.5,0.28,0.39,0.44,0.33,0.33,0.44,0.28,0.25,0.25,0.5,0.5,0.5,0.5,0.5,0.5,0.5,0.5,0.5,0.61,0.5,0.44,0.25,0.61,0.33,0.5,0.5,0.28,0.28,0.5,0.5,0.25,0.5,0.33,0.25,0.56,0.5,0.5,0.33,0.33,0.28,0.44,0.33,0.44,0.25,0.72,0.28,0.28,0.28,0.39,0.25,0.72,0.5,0.28,0.44,0.44,0.5,0.5,0.25,0.25" style="fill:rgb(0,0,0);font-family:Times-Roman;font-size:9.0px;stroke:none;">Soufrière Hills Volcano, Montserrat, 1995–2010The Eruption of Soufriere Hills Volcano, </text>
   <text y="293.9" x="170.001,178.002,182.502,187.002,189.504,193.005,197.001,199.998,202.995,206.991,209.493,211.743,214.74,217.737,222.237,229.239,231.489,235.989,240.489,244.989,249.489,251.739,254.241,258.741,260.991,265.491,269.991,274.491,278.991,281.241,283.491,291.267,295.263,299.763,304.263,308.259,310.509,312.759,319.257,321.507,323.757,329.76,334.26,338.76,342.756,345.753,348.255,351.756,356.256,360.756,363.006,365.256,371.259,373.509,375.759,381.096,385.596,388.098,392.598,397.098,399.6,401.85,404.1,410.103,412.353,414.603,418.599,423.099,425.601,428.103,432.603,435.6,439.101,441.351,443.601,451.602,455.598,462.6,467.1,469.602,472.599,474.849,479.349,482.346,484.596,487.098,491.598,495.594" svgx:width="0.89,0.5,0.5,0.28,0.39,0.44,0.33,0.33,0.44,0.28,0.25,0.33,0.33,0.5,0.78,0.25,0.5,0.5,0.5,0.5,0.25,0.28,0.5,0.25,0.5,0.5,0.5,0.5,0.25,0.25,0.94,0.44,0.5,0.5,0.44,0.25,0.25,0.72,0.25,0.25,0.67,0.5,0.5,0.44,0.33,0.28,0.39,0.5,0.5,0.25,0.25,0.67,0.25,0.25,0.72,0.5,0.28,0.5,0.5,0.28,0.25,0.25,0.67,0.25,0.25,0.44,0.5,0.28,0.28,0.5,0.33,0.39,0.25,0.25,0.89,0.44,0.78,0.5,0.28,0.33,0.25,0.5,0.33,0.25,0.28,0.5,0.44,0.25" style="fill:rgb(0,0,0);font-family:Times-Roman;font-size:9.0px;stroke:none;">Montserrat from 2000 to 2010. Wadge, G, Robertson, R, Voight, B, editors. Memoir of the </text>
   <text y="304.9" x="170.001,176.499,180.495,184.995,187.497,191.997,196.497,198.999,202.995,206.991,209.493,211.743,216.747,221.247,225.243,227.745,231.741,234.243,238.743,240.993,245.493,248.49,250.74,256.239,260.739,265.239,269.739,274.239,278.739,281.241,283.491,288.99,293.49,297.99,302.49,306.99,311.49,313.992,316.242,320.742,325.242,329.742,334.242,336.492,338.742,343.242,347.742,352.242,356.742,361.242,365.742,370.242,372.492" svgx:width="0.72,0.44,0.5,0.28,0.5,0.5,0.28,0.44,0.44,0.28,0.25,0.56,0.5,0.44,0.28,0.44,0.28,0.5,0.25,0.5,0.33,0.25,0.61,0.5,0.5,0.5,0.5,0.5,0.28,0.25,0.61,0.5,0.5,0.5,0.5,0.5,0.28,0.25,0.5,0.5,0.5,0.5,0.25,0.25,0.5,0.5,0.5,0.5,0.5,0.5,0.5,0.25,0.25" style="fill:rgb(0,0,0);font-family:Times-Roman;font-size:9.0px;stroke:none;">Geological Society of London; London: 2014. 407–425. </text>
  </g>
  <g begin="text">
   <text y="304.9" x="374.742,379.242,381.744,384.246,388.746,391.248,393.75,396.252,403.254,407.25,414.252,416.502,419.004,423.504,427.5,430.002,432.504,436.5,441.0,443.502,446.004,450.0,453.996,456.498,459.0,463.5,468.0,470.25,474.75,477.585,482.085,484.587,488.583,493.083,497.583,500.085,504.081,508.581,511.083" svgx:width="0.5,0.28,0.28,0.5,0.28,0.28,0.28,0.78,0.44,0.78,0.25,0.28,0.5,0.44,0.28,0.28,0.44,0.5,0.28,0.28,0.44,0.44,0.28,0.28,0.5,0.5,0.25,0.5,0.33,0.5,0.28,0.44,0.5,0.5,0.28,0.44,0.5,0.28,0.28" style="fill:rgb(0,112,144);font-family:Times-Roman;font-size:9.0px;stroke:none;">http://mem.lyellcollection.org/content/</text>
   <text y="315.9" x="170.001,174.501,179.001,181.503,186.003,188.505,193.005,197.505" svgx:width="0.5,0.5,0.28,0.5,0.28,0.5,0.5,0.5" style="fill:rgb(0,112,144);font-family:Times-Roman;font-size:9.0px;stroke:none;">39/1/407</text>
  </g>
  <g begin="text">
   <text y="328.9" x="150.003,153.0,157.5,162.0,164.997,167.247,169.497,177.498,181.494,187.992,192.492,196.992,200.988,203.49,207.99,210.24,212.49,216.774,219.024,221.274,227.772,232.272,235.269,241.767,245.763,248.265,250.767,253.017,255.267,261.27,264.771,267.021,269.271,274.77,277.272,281.772,284.274,288.27,292.266,294.768,297.018,301.014,305.514,310.014,313.515,316.017,320.517,324.513,327.51,331.506,334.008,336.51,341.01,345.51,349.011,351.261,355.761,358.758,361.008,364.005,368.001,371.997,376.497,383.499,390.501,394.497,398.997,403.497,405.999,410.499,414.999,417.249,421.749,424.746,426.996,431.496,433.998,437.499,440.001,442.998,445.5,449.82,454.32,456.822,459.324,463.824,468.324,470.574,473.481,477.477,481.473,485.469,492.471,496.467,499.968,504.468,507.969,510.219,513.216,517.716,520.713" svgx:width="0.33,0.5,0.5,0.33,0.25,0.25,0.89,0.44,0.72,0.5,0.5,0.44,0.28,0.5,0.25,0.25,0.56,0.25,0.25,0.72,0.5,0.33,0.72,0.44,0.28,0.28,0.25,0.25,0.67,0.39,0.25,0.25,0.61,0.28,0.5,0.28,0.44,0.44,0.28,0.25,0.44,0.5,0.5,0.39,0.28,0.5,0.44,0.33,0.44,0.28,0.28,0.5,0.5,0.39,0.25,0.5,0.33,0.25,0.33,0.44,0.44,0.5,0.78,0.78,0.44,0.5,0.5,0.28,0.5,0.5,0.25,0.5,0.33,0.25,0.5,0.28,0.39,0.28,0.33,0.28,0.5,0.5,0.28,0.28,0.5,0.5,0.25,0.33,0.44,0.44,0.44,0.78,0.44,0.39,0.5,0.39,0.25,0.33,0.5,0.33,0.25" style="fill:rgb(0,0,0);font-family:Times-Roman;font-size:9.0px;stroke:none;">[53]. McDonald, F, Horwell, CJ. Ethical considerations of recommending or distributing facemasks for </text>
   <text y="339.9" x="170.001,173.997,178.497,185.499,192.501,197.001,201.501,204.003,206.505,211.005,213.255,217.755,220.752,225.252,227.754,231.75,235.746,238.248,240.75,245.25,249.75,252.0,254.997,257.994,262.494,269.496,271.746,275.742,282.744,287.244,289.746,293.742,298.242,300.744,302.994,306.99,309.492,312.489,314.739,319.239,323.739,326.241,328.743,333.243,335.745,338.247,342.747,347.247,349.497,353.268,357.633,361.629,366.129,368.631,372.132,377.136,380.133,384.633,388.629,392.625,396.621,401.121,403.623,408.123,412.623,416.124,418.374,422.874,425.871,428.121,430.623,435.123,439.119,441.369,444.366,450.864,456.867,462.87,465.372,471.87,475.866,479.862,482.364,484.866,489.366,493.866,496.116,502.614,505.116,507.618,512.118" svgx:width="0.44,0.5,0.78,0.78,0.5,0.5,0.28,0.28,0.5,0.25,0.5,0.33,0.5,0.28,0.44,0.44,0.28,0.28,0.5,0.5,0.25,0.33,0.33,0.5,0.78,0.25,0.44,0.78,0.5,0.28,0.44,0.5,0.28,0.25,0.44,0.28,0.33,0.25,0.5,0.5,0.28,0.28,0.5,0.28,0.28,0.5,0.5,0.25,0.44,0.5,0.44,0.5,0.28,0.39,0.56,0.33,0.5,0.44,0.44,0.44,0.5,0.28,0.5,0.5,0.39,0.25,0.5,0.33,0.25,0.28,0.5,0.44,0.25,0.33,0.72,0.67,0.67,0.28,0.72,0.44,0.44,0.28,0.28,0.5,0.5,0.25,0.72,0.28,0.28,0.5,0.25" style="fill:rgb(0,0,0);font-family:Times-Roman;font-size:9.0px;stroke:none;">community protection from ambient air pollution eventsProceedings of the IHRR/Dealing with </text>
   <text y="350.9" x="170.001,176.499,179.001,182.502,186.498,189.999,192.501,196.497,199.494,202.995,205.245,211.248,215.748,220.248,223.245,227.241,230.238,234.234,238.734,242.73,246.726,248.976,251.226,257.724,262.224,265.221,269.721,273.717,280.719,282.969,285.219,291.717,298.215,300.717,302.967,307.467,311.967,316.467,320.967,323.217" svgx:width="0.72,0.28,0.39,0.44,0.39,0.28,0.44,0.33,0.39,0.25,0.67,0.5,0.5,0.33,0.44,0.33,0.44,0.5,0.44,0.44,0.25,0.25,0.72,0.5,0.33,0.5,0.44,0.78,0.25,0.25,0.72,0.72,0.28,0.25,0.5,0.5,0.5,0.5,0.25,0.25" style="fill:rgb(0,0,0);font-family:Times-Roman;font-size:9.0px;stroke:none;">Disasters Conference. Durham, UK: 2017. </text>
  </g>
  <g begin="text">
   <text y="44.72" x="78.0,83.336,87.216,91.096,94.528,98.528,100.528,104.08,106.304,108.304,111.856,114.08,116.08,496.568,500.896,504.448,508.448,512.0,514.0,518.0" svgx:width="0.67,0.5,0.5,0.44,0.5,0.25,0.44,0.28,0.25,0.44,0.28,0.25,0.55,0.56,0.44,0.5,0.44,0.25,0.5,0.5" style="fill:rgb(0,0,0);font-family:Times-Roman;font-size:8.0px;stroke:none;">Covey et al. Page 23</text>
  </g>
  <g begin="text">
   <text y="721.4" transform="matrix(1.0,0.0,0.0,1.0,0.0,0.0)" rotateDegrees="0" matrix="[8.0,0.0,2.59936,8.0,142.07199,70.6]" x="142.072,144.736,148.736,150.96,152.96,156.072,158.072,163.848,166.072,169.184,172.736,175.848,178.072,181.624,184.288,186.288,191.624,193.848,196.96,200.96,202.96,208.296,211.848,215.848,219.848,223.4,225.624,227.624,229.624,235.4,239.4,241.624,245.624,249.624,252.288,254.288,260.512,264.064,268.064,272.064,275.176,278.728,281.392,283.616,287.616,289.84,292.064,294.064,297.456,301.256,304.808,307.032,309.256,312.808,316.808,319.032,322.584,324.584,326.808,330.808,332.808,337.256,344.368,349.704,351.704,355.704,359.704,363.704,367.704,369.704,374.152,377.704,381.704,383.928,387.48,393.704,397.704,401.256,403.92,405.92,409.92,413.92" svgx:width="0.33,0.5,0.28,0.25,0.39,0.25,0.72,0.28,0.39,0.44,0.39,0.28,0.44,0.33,0.25,0.67,0.28,0.39,0.5,0.25,0.67,0.44,0.5,0.5,0.44,0.28,0.25,0.25,0.72,0.5,0.28,0.5,0.5,0.33,0.25,0.78,0.44,0.5,0.5,0.39,0.44,0.33,0.28,0.5,0.28,0.28,0.25,0.44,0.5,0.44,0.28,0.28,0.44,0.5,0.28,0.44,0.25,0.28,0.5,0.25,0.56,0.89,0.67,0.25,0.5,0.5,0.5,0.5,0.25,0.56,0.44,0.5,0.28,0.44,0.78,0.5,0.44,0.33,0.25,0.5,0.5,0.25" style="fill:rgb(0,0,0);font-family:Times-Roman;font-size:8.0px;stroke:none;">Int J Disaster Risk Reduct. Author manuscript; available in PMC 2019 September 04.</text>
  </g>
  <rect style="stroke:blue;stroke-width:0.3;" x="20.0" y="131.012" height="12.0" width="12.0" title="23"/>
  <text y="131.012" class="image" id="image.23.1" width="12" height="12" x="20.0">image.23.1.20_32.131_143</text>
  <g begin="text">
   <text y="135.012" transform="matrix(0.0,1.0,-1.0,0.0,155.012,115.012)" rotateDegrees="90" matrix="[0.0,-12.0,12.0,0.0,20.0,656.98804]" x="20.0,17.0,9.668000000000006,3.6680000000000064,-0.32800000000000296,-6.328000000000003,-12.328000000000003,-17.656000000000006,-20.656000000000006,-27.328000000000003,-37.99600000000001,-46.0,-49.0,-55.672,-61.672,-67.672,-73.672,-79.0,-82.99600000000001,-87.66399999999999,-90.66399999999999,-99.328,-105.32799999999997,-108.66399999999999,-114.66399999999999,-120.66399999999999,-124.66000000000003,-127.66000000000003,-138.32799999999997,-143.656,-149.656,-155.656,-160.324,-165.652,-169.64800000000002,-172.98399999999998,-178.98399999999998,-182.32" svgx:width="0.25,0.61,0.5,0.33,0.5,0.5,0.44,0.25,0.56,0.89,0.67,0.25,0.56,0.5,0.5,0.5,0.44,0.33,0.39,0.25,0.72,0.5,0.28,0.5,0.5,0.33,0.25,0.89,0.44,0.5,0.5,0.39,0.44,0.33,0.28,0.5,0.28,0.39" style="fill:rgb(90,89,94);font-family:Times-Roman;font-size:12.0px;stroke:none;"> Europe PMC Funders Author Manuscripts</text>
  </g>
  <rect style="stroke:blue;stroke-width:0.3;" x="20.0" y="422.0" height="12.0" width="12.0" title="23"/>
  <text y="422.0" class="image" id="image.23.2" width="12" height="12" x="20.0">image.23.2.20_32.422_434</text>
  <g begin="text">
   <text y="426.0" transform="matrix(0.0,1.0,-1.0,0.0,446.0,406.0)" rotateDegrees="90" matrix="[0.0,-12.0,12.0,0.0,20.0,366.00006]" x="20.0,17.0,9.668000000000006,3.6680000000000064,-0.32799999999997453,-6.3279999999999745,-12.327999999999975,-17.656000000000006,-20.656000000000006,-27.327999999999975,-37.99599999999998,-46.0,-49.0,-55.672000000000025,-61.672000000000025,-67.67200000000003,-73.67200000000003,-79.0,-82.99599999999998,-87.66399999999999,-90.66399999999999,-99.32799999999997,-105.32799999999997,-108.66399999999999,-114.66399999999999,-120.66399999999999,-124.65999999999997,-127.65999999999997,-138.32799999999997,-143.65599999999995,-149.65599999999995,-155.65599999999995,-160.32399999999996,-165.65200000000004,-169.64800000000002,-172.98400000000004,-178.98400000000004,-182.32000000000005" svgx:width="0.25,0.61,0.5,0.33,0.5,0.5,0.44,0.25,0.56,0.89,0.67,0.25,0.56,0.5,0.5,0.5,0.44,0.33,0.39,0.25,0.72,0.5,0.28,0.5,0.5,0.33,0.25,0.89,0.44,0.5,0.5,0.39,0.44,0.33,0.28,0.5,0.28,0.39" style="fill:rgb(90,89,94);font-family:Times-Roman;font-size:12.0px;stroke:none;"> Europe PMC Funders Author Manuscripts</text>
  </g>
  <path style="fill:none;stroke:rgb(90,89,94);stroke-width:1.0;" d="M35.500 36.000 L37.420 36.000 L37.420 720.000 L35.500 720.000 L33.580 720.000 L33.580 36.000 M35.500 36.000 L35.500 720.000 "/>
 </g>
</svg>
