<?xml version="1.0" encoding="UTF-8"?>
<svg height="767.08" width="586.0" xmlns="http://www.w3.org/2000/svg">
 <g>
  <path style="fill:rgb(155,154,156);stroke:none;stroke-width:1.0;" d="M36.000 91.000 L576.000 91.000 L576.000 91.500 L36.000 91.500 "/>
  <path style="fill:rgb(155,154,156);stroke:none;stroke-width:1.0;" d="M59.440 91.500 L59.440 104.000 L58.940 104.000 L58.940 91.500 "/>
  <path style="fill:rgb(155,154,156);stroke:none;stroke-width:1.0;" d="M58.940 104.000 L36.000 104.000 L36.000 103.500 L58.940 103.500 "/>
  <path style="fill:rgb(155,154,156);stroke:none;stroke-width:1.0;" d="M149.520 91.500 L149.520 104.000 L149.020 104.000 L149.020 91.500 "/>
  <path style="fill:rgb(155,154,156);stroke:none;stroke-width:1.0;" d="M149.020 104.000 L59.440 104.000 L59.440 103.500 L149.020 103.500 "/>
  <path style="fill:rgb(155,154,156);stroke:none;stroke-width:1.0;" d="M350.550 91.500 L350.550 104.000 L350.050 104.000 L350.050 91.500 "/>
  <path style="fill:rgb(155,154,156);stroke:none;stroke-width:1.0;" d="M350.050 104.000 L149.520 104.000 L149.520 103.500 L350.050 103.500 "/>
  <path style="fill:rgb(155,154,156);stroke:none;stroke-width:1.0;" d="M388.120 91.500 L388.120 104.000 L387.620 104.000 L387.620 91.500 "/>
  <path style="fill:rgb(155,154,156);stroke:none;stroke-width:1.0;" d="M387.620 104.000 L350.550 104.000 L350.550 103.500 L387.620 103.500 "/>
  <path style="fill:rgb(155,154,156);stroke:none;stroke-width:1.0;" d="M576.000 104.000 L388.120 104.000 L388.120 103.500 L576.000 103.500 "/>
  <path style="fill:rgb(155,154,156);stroke:none;stroke-width:1.0;" d="M59.440 104.000 L59.440 116.500 L58.940 116.500 L58.940 104.000 "/>
  <path style="fill:rgb(155,154,156);stroke:none;stroke-width:1.0;" d="M58.940 116.500 L36.000 116.500 L36.000 116.000 L58.940 116.000 "/>
  <path style="fill:rgb(155,154,156);stroke:none;stroke-width:1.0;" d="M149.520 104.000 L149.520 116.500 L149.020 116.500 L149.020 104.000 "/>
  <path style="fill:rgb(155,154,156);stroke:none;stroke-width:1.0;" d="M149.020 116.500 L59.440 116.500 L59.440 116.000 L149.020 116.000 "/>
  <path style="fill:rgb(155,154,156);stroke:none;stroke-width:1.0;" d="M350.550 104.000 L350.550 116.500 L350.050 116.500 L350.050 104.000 "/>
  <path style="fill:rgb(155,154,156);stroke:none;stroke-width:1.0;" d="M350.050 116.500 L149.520 116.500 L149.520 116.000 L350.050 116.000 "/>
  <path style="fill:rgb(155,154,156);stroke:none;stroke-width:1.0;" d="M388.120 104.000 L388.120 116.500 L387.620 116.500 L387.620 104.000 "/>
  <path style="fill:rgb(155,154,156);stroke:none;stroke-width:1.0;" d="M387.620 116.500 L350.550 116.500 L350.550 116.000 L387.620 116.000 "/>
  <path style="fill:rgb(155,154,156);stroke:none;stroke-width:1.0;" d="M576.000 116.500 L388.120 116.500 L388.120 116.000 L576.000 116.000 "/>
  <path style="fill:rgb(155,154,156);stroke:none;stroke-width:1.0;" d="M59.440 116.500 L59.440 129.000 L58.940 129.000 L58.940 116.500 "/>
  <path style="fill:rgb(155,154,156);stroke:none;stroke-width:1.0;" d="M58.940 129.000 L36.000 129.000 L36.000 128.500 L58.940 128.500 "/>
  <path style="fill:rgb(155,154,156);stroke:none;stroke-width:1.0;" d="M149.520 116.500 L149.520 129.000 L149.020 129.000 L149.020 116.500 "/>
  <path style="fill:rgb(155,154,156);stroke:none;stroke-width:1.0;" d="M149.020 129.000 L59.440 129.000 L59.440 128.500 L149.020 128.500 "/>
  <path style="fill:rgb(155,154,156);stroke:none;stroke-width:1.0;" d="M350.550 116.500 L350.550 129.000 L350.050 129.000 L350.050 116.500 "/>
  <path style="fill:rgb(155,154,156);stroke:none;stroke-width:1.0;" d="M350.050 129.000 L149.520 129.000 L149.520 128.500 L350.050 128.500 "/>
  <path style="fill:rgb(155,154,156);stroke:none;stroke-width:1.0;" d="M388.120 116.500 L388.120 129.000 L387.620 129.000 L387.620 116.500 "/>
  <path style="fill:rgb(155,154,156);stroke:none;stroke-width:1.0;" d="M387.620 129.000 L350.550 129.000 L350.550 128.500 L387.620 128.500 "/>
  <path style="fill:rgb(155,154,156);stroke:none;stroke-width:1.0;" d="M576.000 129.000 L388.120 129.000 L388.120 128.500 L576.000 128.500 "/>
  <path style="fill:rgb(155,154,156);stroke:none;stroke-width:1.0;" d="M59.440 129.000 L59.440 141.500 L58.940 141.500 L58.940 129.000 "/>
  <path style="fill:rgb(155,154,156);stroke:none;stroke-width:1.0;" d="M58.940 141.500 L36.000 141.500 L36.000 141.000 L58.940 141.000 "/>
  <path style="fill:rgb(155,154,156);stroke:none;stroke-width:1.0;" d="M149.520 129.000 L149.520 141.500 L149.020 141.500 L149.020 129.000 "/>
  <path style="fill:rgb(155,154,156);stroke:none;stroke-width:1.0;" d="M149.020 141.500 L59.440 141.500 L59.440 141.000 L149.020 141.000 "/>
  <path style="fill:rgb(155,154,156);stroke:none;stroke-width:1.0;" d="M350.550 129.000 L350.550 141.500 L350.050 141.500 L350.050 129.000 "/>
  <path style="fill:rgb(155,154,156);stroke:none;stroke-width:1.0;" d="M350.050 141.500 L149.520 141.500 L149.520 141.000 L350.050 141.000 "/>
  <path style="fill:rgb(155,154,156);stroke:none;stroke-width:1.0;" d="M388.120 129.000 L388.120 141.500 L387.620 141.500 L387.620 129.000 "/>
  <path style="fill:rgb(155,154,156);stroke:none;stroke-width:1.0;" d="M387.620 141.500 L350.550 141.500 L350.550 141.000 L387.620 141.000 "/>
  <path style="fill:rgb(155,154,156);stroke:none;stroke-width:1.0;" d="M576.000 141.500 L388.120 141.500 L388.120 141.000 L576.000 141.000 "/>
  <path style="fill:rgb(155,154,156);stroke:none;stroke-width:1.0;" d="M59.440 141.500 L59.440 154.000 L58.940 154.000 L58.940 141.500 "/>
  <path style="fill:rgb(155,154,156);stroke:none;stroke-width:1.0;" d="M58.940 154.000 L36.000 154.000 L36.000 153.500 L58.940 153.500 "/>
  <path style="fill:rgb(155,154,156);stroke:none;stroke-width:1.0;" d="M149.520 141.500 L149.520 154.000 L149.020 154.000 L149.020 141.500 "/>
  <path style="fill:rgb(155,154,156);stroke:none;stroke-width:1.0;" d="M149.020 154.000 L59.440 154.000 L59.440 153.500 L149.020 153.500 "/>
  <path style="fill:rgb(155,154,156);stroke:none;stroke-width:1.0;" d="M350.550 141.500 L350.550 154.000 L350.050 154.000 L350.050 141.500 "/>
  <path style="fill:rgb(155,154,156);stroke:none;stroke-width:1.0;" d="M350.050 154.000 L149.520 154.000 L149.520 153.500 L350.050 153.500 "/>
  <path style="fill:rgb(155,154,156);stroke:none;stroke-width:1.0;" d="M388.120 141.500 L388.120 154.000 L387.620 154.000 L387.620 141.500 "/>
  <path style="fill:rgb(155,154,156);stroke:none;stroke-width:1.0;" d="M387.620 154.000 L350.550 154.000 L350.550 153.500 L387.620 153.500 "/>
  <path style="fill:rgb(155,154,156);stroke:none;stroke-width:1.0;" d="M576.000 154.000 L388.120 154.000 L388.120 153.500 L576.000 153.500 "/>
  <path style="fill:rgb(155,154,156);stroke:none;stroke-width:1.0;" d="M59.440 154.000 L59.440 176.000 L58.940 176.000 L58.940 154.000 "/>
  <path style="fill:rgb(155,154,156);stroke:none;stroke-width:1.0;" d="M58.940 176.000 L36.000 176.000 L36.000 175.500 L58.940 175.500 "/>
  <path style="fill:rgb(155,154,156);stroke:none;stroke-width:1.0;" d="M149.520 154.000 L149.520 176.000 L149.020 176.000 L149.020 154.000 "/>
  <path style="fill:rgb(155,154,156);stroke:none;stroke-width:1.0;" d="M149.020 176.000 L59.440 176.000 L59.440 175.500 L149.020 175.500 "/>
  <path style="fill:rgb(155,154,156);stroke:none;stroke-width:1.0;" d="M350.550 154.000 L350.550 176.000 L350.050 176.000 L350.050 154.000 "/>
  <path style="fill:rgb(155,154,156);stroke:none;stroke-width:1.0;" d="M350.050 176.000 L149.520 176.000 L149.520 175.500 L350.050 175.500 "/>
  <path style="fill:rgb(155,154,156);stroke:none;stroke-width:1.0;" d="M388.120 154.000 L388.120 176.000 L387.620 176.000 L387.620 154.000 "/>
  <path style="fill:rgb(155,154,156);stroke:none;stroke-width:1.0;" d="M387.620 176.000 L350.550 176.000 L350.550 175.500 L387.620 175.500 "/>
  <path style="fill:rgb(155,154,156);stroke:none;stroke-width:1.0;" d="M576.000 176.000 L388.120 176.000 L388.120 175.500 L576.000 175.500 "/>
  <path style="fill:rgb(155,154,156);stroke:none;stroke-width:1.0;" d="M59.440 176.000 L59.440 198.000 L58.940 198.000 L58.940 176.000 "/>
  <path style="fill:rgb(155,154,156);stroke:none;stroke-width:1.0;" d="M58.940 198.000 L36.000 198.000 L36.000 197.500 L58.940 197.500 "/>
  <path style="fill:rgb(155,154,156);stroke:none;stroke-width:1.0;" d="M149.520 176.000 L149.520 198.000 L149.020 198.000 L149.020 176.000 "/>
  <path style="fill:rgb(155,154,156);stroke:none;stroke-width:1.0;" d="M149.020 198.000 L59.440 198.000 L59.440 197.500 L149.020 197.500 "/>
  <path style="fill:rgb(155,154,156);stroke:none;stroke-width:1.0;" d="M350.550 176.000 L350.550 198.000 L350.050 198.000 L350.050 176.000 "/>
  <path style="fill:rgb(155,154,156);stroke:none;stroke-width:1.0;" d="M350.050 198.000 L149.520 198.000 L149.520 197.500 L350.050 197.500 "/>
  <path style="fill:rgb(155,154,156);stroke:none;stroke-width:1.0;" d="M388.120 176.000 L388.120 198.000 L387.620 198.000 L387.620 176.000 "/>
  <path style="fill:rgb(155,154,156);stroke:none;stroke-width:1.0;" d="M387.620 198.000 L350.550 198.000 L350.550 197.500 L387.620 197.500 "/>
  <path style="fill:rgb(155,154,156);stroke:none;stroke-width:1.0;" d="M576.000 198.000 L388.120 198.000 L388.120 197.500 L576.000 197.500 "/>
  <path style="fill:rgb(155,154,156);stroke:none;stroke-width:1.0;" d="M59.440 198.000 L59.440 220.000 L58.940 220.000 L58.940 198.000 "/>
  <path style="fill:rgb(155,154,156);stroke:none;stroke-width:1.0;" d="M58.940 220.000 L36.000 220.000 L36.000 219.500 L58.940 219.500 "/>
  <path style="fill:rgb(155,154,156);stroke:none;stroke-width:1.0;" d="M149.520 198.000 L149.520 220.000 L149.020 220.000 L149.020 198.000 "/>
  <path style="fill:rgb(155,154,156);stroke:none;stroke-width:1.0;" d="M149.020 220.000 L59.440 220.000 L59.440 219.500 L149.020 219.500 "/>
  <path style="fill:rgb(155,154,156);stroke:none;stroke-width:1.0;" d="M350.550 198.000 L350.550 220.000 L350.050 220.000 L350.050 198.000 "/>
  <path style="fill:rgb(155,154,156);stroke:none;stroke-width:1.0;" d="M350.050 220.000 L149.520 220.000 L149.520 219.500 L350.050 219.500 "/>
  <path style="fill:rgb(155,154,156);stroke:none;stroke-width:1.0;" d="M388.120 198.000 L388.120 220.000 L387.620 220.000 L387.620 198.000 "/>
  <path style="fill:rgb(155,154,156);stroke:none;stroke-width:1.0;" d="M387.620 220.000 L350.550 220.000 L350.550 219.500 L387.620 219.500 "/>
  <path style="fill:rgb(155,154,156);stroke:none;stroke-width:1.0;" d="M576.000 220.000 L388.120 220.000 L388.120 219.500 L576.000 219.500 "/>
  <path style="fill:rgb(155,154,156);stroke:none;stroke-width:1.0;" d="M59.440 220.000 L59.440 242.000 L58.940 242.000 L58.940 220.000 "/>
  <path style="fill:rgb(155,154,156);stroke:none;stroke-width:1.0;" d="M58.940 242.000 L36.000 242.000 L36.000 241.500 L58.940 241.500 "/>
  <path style="fill:rgb(155,154,156);stroke:none;stroke-width:1.0;" d="M149.520 220.000 L149.520 242.000 L149.020 242.000 L149.020 220.000 "/>
  <path style="fill:rgb(155,154,156);stroke:none;stroke-width:1.0;" d="M149.020 242.000 L59.440 242.000 L59.440 241.500 L149.020 241.500 "/>
  <path style="fill:rgb(155,154,156);stroke:none;stroke-width:1.0;" d="M350.550 220.000 L350.550 242.000 L350.050 242.000 L350.050 220.000 "/>
  <path style="fill:rgb(155,154,156);stroke:none;stroke-width:1.0;" d="M350.050 242.000 L149.520 242.000 L149.520 241.500 L350.050 241.500 "/>
  <path style="fill:rgb(155,154,156);stroke:none;stroke-width:1.0;" d="M388.120 220.000 L388.120 242.000 L387.620 242.000 L387.620 220.000 "/>
  <path style="fill:rgb(155,154,156);stroke:none;stroke-width:1.0;" d="M387.620 242.000 L350.550 242.000 L350.550 241.500 L387.620 241.500 "/>
  <path style="fill:rgb(155,154,156);stroke:none;stroke-width:1.0;" d="M576.000 242.000 L388.120 242.000 L388.120 241.500 L576.000 241.500 "/>
  <path style="fill:rgb(155,154,156);stroke:none;stroke-width:1.0;" d="M59.440 242.000 L59.440 264.000 L58.940 264.000 L58.940 242.000 "/>
  <path style="fill:rgb(155,154,156);stroke:none;stroke-width:1.0;" d="M58.940 264.000 L36.000 264.000 L36.000 263.500 L58.940 263.500 "/>
  <path style="fill:rgb(155,154,156);stroke:none;stroke-width:1.0;" d="M149.520 242.000 L149.520 264.000 L149.020 264.000 L149.020 242.000 "/>
  <path style="fill:rgb(155,154,156);stroke:none;stroke-width:1.0;" d="M149.020 264.000 L59.440 264.000 L59.440 263.500 L149.020 263.500 "/>
  <path style="fill:rgb(155,154,156);stroke:none;stroke-width:1.0;" d="M350.550 242.000 L350.550 264.000 L350.050 264.000 L350.050 242.000 "/>
  <path style="fill:rgb(155,154,156);stroke:none;stroke-width:1.0;" d="M350.050 264.000 L149.520 264.000 L149.520 263.500 L350.050 263.500 "/>
  <path style="fill:rgb(155,154,156);stroke:none;stroke-width:1.0;" d="M388.120 242.000 L388.120 264.000 L387.620 264.000 L387.620 242.000 "/>
  <path style="fill:rgb(155,154,156);stroke:none;stroke-width:1.0;" d="M387.620 264.000 L350.550 264.000 L350.550 263.500 L387.620 263.500 "/>
  <path style="fill:rgb(155,154,156);stroke:none;stroke-width:1.0;" d="M576.000 264.000 L388.120 264.000 L388.120 263.500 L576.000 263.500 "/>
  <path style="fill:rgb(155,154,156);stroke:none;stroke-width:1.0;" d="M59.440 264.000 L59.440 276.500 L58.940 276.500 L58.940 264.000 "/>
  <path style="fill:rgb(155,154,156);stroke:none;stroke-width:1.0;" d="M58.940 276.500 L36.000 276.500 L36.000 276.000 L58.940 276.000 "/>
  <path style="fill:rgb(155,154,156);stroke:none;stroke-width:1.0;" d="M149.520 264.000 L149.520 276.500 L149.020 276.500 L149.020 264.000 "/>
  <path style="fill:rgb(155,154,156);stroke:none;stroke-width:1.0;" d="M149.020 276.500 L59.440 276.500 L59.440 276.000 L149.020 276.000 "/>
  <path style="fill:rgb(155,154,156);stroke:none;stroke-width:1.0;" d="M350.550 264.000 L350.550 276.500 L350.050 276.500 L350.050 264.000 "/>
  <path style="fill:rgb(155,154,156);stroke:none;stroke-width:1.0;" d="M350.050 276.500 L149.520 276.500 L149.520 276.000 L350.050 276.000 "/>
  <path style="fill:rgb(155,154,156);stroke:none;stroke-width:1.0;" d="M388.120 264.000 L388.120 276.500 L387.620 276.500 L387.620 264.000 "/>
  <path style="fill:rgb(155,154,156);stroke:none;stroke-width:1.0;" d="M387.620 276.500 L350.550 276.500 L350.550 276.000 L387.620 276.000 "/>
  <path style="fill:rgb(155,154,156);stroke:none;stroke-width:1.0;" d="M576.000 276.500 L388.120 276.500 L388.120 276.000 L576.000 276.000 "/>
  <path style="fill:rgb(155,154,156);stroke:none;stroke-width:1.0;" d="M59.440 276.500 L59.440 289.000 L58.940 289.000 L58.940 276.500 "/>
  <path style="fill:rgb(155,154,156);stroke:none;stroke-width:1.0;" d="M58.940 289.000 L36.000 289.000 L36.000 288.500 L58.940 288.500 "/>
  <path style="fill:rgb(155,154,156);stroke:none;stroke-width:1.0;" d="M149.520 276.500 L149.520 289.000 L149.020 289.000 L149.020 276.500 "/>
  <path style="fill:rgb(155,154,156);stroke:none;stroke-width:1.0;" d="M149.020 289.000 L59.440 289.000 L59.440 288.500 L149.020 288.500 "/>
  <path style="fill:rgb(155,154,156);stroke:none;stroke-width:1.0;" d="M350.550 276.500 L350.550 289.000 L350.050 289.000 L350.050 276.500 "/>
  <path style="fill:rgb(155,154,156);stroke:none;stroke-width:1.0;" d="M350.050 289.000 L149.520 289.000 L149.520 288.500 L350.050 288.500 "/>
  <path style="fill:rgb(155,154,156);stroke:none;stroke-width:1.0;" d="M388.120 276.500 L388.120 289.000 L387.620 289.000 L387.620 276.500 "/>
  <path style="fill:rgb(155,154,156);stroke:none;stroke-width:1.0;" d="M387.620 289.000 L350.550 289.000 L350.550 288.500 L387.620 288.500 "/>
  <path style="fill:rgb(155,154,156);stroke:none;stroke-width:1.0;" d="M576.000 289.000 L388.120 289.000 L388.120 288.500 L576.000 288.500 "/>
  <path style="fill:rgb(155,154,156);stroke:none;stroke-width:1.0;" d="M59.440 289.000 L59.440 301.500 L58.940 301.500 L58.940 289.000 "/>
  <path style="fill:rgb(155,154,156);stroke:none;stroke-width:1.0;" d="M58.940 301.500 L36.000 301.500 L36.000 301.000 L58.940 301.000 "/>
  <path style="fill:rgb(155,154,156);stroke:none;stroke-width:1.0;" d="M149.520 289.000 L149.520 301.500 L149.020 301.500 L149.020 289.000 "/>
  <path style="fill:rgb(155,154,156);stroke:none;stroke-width:1.0;" d="M149.020 301.500 L59.440 301.500 L59.440 301.000 L149.020 301.000 "/>
  <path style="fill:rgb(155,154,156);stroke:none;stroke-width:1.0;" d="M350.550 289.000 L350.550 301.500 L350.050 301.500 L350.050 289.000 "/>
  <path style="fill:rgb(155,154,156);stroke:none;stroke-width:1.0;" d="M350.050 301.500 L149.520 301.500 L149.520 301.000 L350.050 301.000 "/>
  <path style="fill:rgb(155,154,156);stroke:none;stroke-width:1.0;" d="M388.120 289.000 L388.120 301.500 L387.620 301.500 L387.620 289.000 "/>
  <path style="fill:rgb(155,154,156);stroke:none;stroke-width:1.0;" d="M387.620 301.500 L350.550 301.500 L350.550 301.000 L387.620 301.000 "/>
  <path style="fill:rgb(155,154,156);stroke:none;stroke-width:1.0;" d="M576.000 301.500 L388.120 301.500 L388.120 301.000 L576.000 301.000 "/>
  <path style="fill:rgb(155,154,156);stroke:none;stroke-width:1.0;" d="M59.440 301.500 L59.440 314.000 L58.940 314.000 L58.940 301.500 "/>
  <path style="fill:rgb(155,154,156);stroke:none;stroke-width:1.0;" d="M58.940 314.000 L36.000 314.000 L36.000 313.500 L58.940 313.500 "/>
  <path style="fill:rgb(155,154,156);stroke:none;stroke-width:1.0;" d="M149.520 301.500 L149.520 314.000 L149.020 314.000 L149.020 301.500 "/>
  <path style="fill:rgb(155,154,156);stroke:none;stroke-width:1.0;" d="M149.020 314.000 L59.440 314.000 L59.440 313.500 L149.020 313.500 "/>
  <path style="fill:rgb(155,154,156);stroke:none;stroke-width:1.0;" d="M350.550 301.500 L350.550 314.000 L350.050 314.000 L350.050 301.500 "/>
  <path style="fill:rgb(155,154,156);stroke:none;stroke-width:1.0;" d="M350.050 314.000 L149.520 314.000 L149.520 313.500 L350.050 313.500 "/>
  <path style="fill:rgb(155,154,156);stroke:none;stroke-width:1.0;" d="M388.120 301.500 L388.120 314.000 L387.620 314.000 L387.620 301.500 "/>
  <path style="fill:rgb(155,154,156);stroke:none;stroke-width:1.0;" d="M387.620 314.000 L350.550 314.000 L350.550 313.500 L387.620 313.500 "/>
  <path style="fill:rgb(155,154,156);stroke:none;stroke-width:1.0;" d="M576.000 314.000 L388.120 314.000 L388.120 313.500 L576.000 313.500 "/>
  <path style="fill:rgb(155,154,156);stroke:none;stroke-width:1.0;" d="M59.440 314.000 L59.440 326.500 L58.940 326.500 L58.940 314.000 "/>
  <path style="fill:rgb(155,154,156);stroke:none;stroke-width:1.0;" d="M58.940 326.500 L36.000 326.500 L36.000 326.000 L58.940 326.000 "/>
  <path style="fill:rgb(155,154,156);stroke:none;stroke-width:1.0;" d="M149.520 314.000 L149.520 326.500 L149.020 326.500 L149.020 314.000 "/>
  <path style="fill:rgb(155,154,156);stroke:none;stroke-width:1.0;" d="M149.020 326.500 L59.440 326.500 L59.440 326.000 L149.020 326.000 "/>
  <path style="fill:rgb(155,154,156);stroke:none;stroke-width:1.0;" d="M350.550 314.000 L350.550 326.500 L350.050 326.500 L350.050 314.000 "/>
  <path style="fill:rgb(155,154,156);stroke:none;stroke-width:1.0;" d="M350.050 326.500 L149.520 326.500 L149.520 326.000 L350.050 326.000 "/>
  <path style="fill:rgb(155,154,156);stroke:none;stroke-width:1.0;" d="M388.120 314.000 L388.120 326.500 L387.620 326.500 L387.620 314.000 "/>
  <path style="fill:rgb(155,154,156);stroke:none;stroke-width:1.0;" d="M387.620 326.500 L350.550 326.500 L350.550 326.000 L387.620 326.000 "/>
  <path style="fill:rgb(155,154,156);stroke:none;stroke-width:1.0;" d="M576.000 326.500 L388.120 326.500 L388.120 326.000 L576.000 326.000 "/>
  <path style="fill:rgb(155,154,156);stroke:none;stroke-width:1.0;" d="M59.440 326.500 L59.440 348.500 L58.940 348.500 L58.940 326.500 "/>
  <path style="fill:rgb(155,154,156);stroke:none;stroke-width:1.0;" d="M58.940 348.500 L36.000 348.500 L36.000 348.000 L58.940 348.000 "/>
  <path style="fill:rgb(155,154,156);stroke:none;stroke-width:1.0;" d="M149.520 326.500 L149.520 348.500 L149.020 348.500 L149.020 326.500 "/>
  <path style="fill:rgb(155,154,156);stroke:none;stroke-width:1.0;" d="M149.020 348.500 L59.440 348.500 L59.440 348.000 L149.020 348.000 "/>
  <path style="fill:rgb(155,154,156);stroke:none;stroke-width:1.0;" d="M350.550 326.500 L350.550 348.500 L350.050 348.500 L350.050 326.500 "/>
  <path style="fill:rgb(155,154,156);stroke:none;stroke-width:1.0;" d="M350.050 348.500 L149.520 348.500 L149.520 348.000 L350.050 348.000 "/>
  <path style="fill:rgb(155,154,156);stroke:none;stroke-width:1.0;" d="M388.120 326.500 L388.120 348.500 L387.620 348.500 L387.620 326.500 "/>
  <path style="fill:rgb(155,154,156);stroke:none;stroke-width:1.0;" d="M387.620 348.500 L350.550 348.500 L350.550 348.000 L387.620 348.000 "/>
  <path style="fill:rgb(155,154,156);stroke:none;stroke-width:1.0;" d="M576.000 348.500 L388.120 348.500 L388.120 348.000 L576.000 348.000 "/>
  <path style="fill:rgb(155,154,156);stroke:none;stroke-width:1.0;" d="M59.440 348.500 L59.440 380.000 L58.940 380.000 L58.940 348.500 "/>
  <path style="fill:rgb(155,154,156);stroke:none;stroke-width:1.0;" d="M58.940 380.000 L36.000 380.000 L36.000 379.500 L58.940 379.500 "/>
  <path style="fill:rgb(155,154,156);stroke:none;stroke-width:1.0;" d="M149.520 348.500 L149.520 380.000 L149.020 380.000 L149.020 348.500 "/>
  <path style="fill:rgb(155,154,156);stroke:none;stroke-width:1.0;" d="M149.020 380.000 L59.440 380.000 L59.440 379.500 L149.020 379.500 "/>
  <path style="fill:rgb(155,154,156);stroke:none;stroke-width:1.0;" d="M350.550 348.500 L350.550 380.000 L350.050 380.000 L350.050 348.500 "/>
  <path style="fill:rgb(155,154,156);stroke:none;stroke-width:1.0;" d="M350.050 380.000 L149.520 380.000 L149.520 379.500 L350.050 379.500 "/>
  <path style="fill:rgb(155,154,156);stroke:none;stroke-width:1.0;" d="M388.120 348.500 L388.120 380.000 L387.620 380.000 L387.620 348.500 "/>
  <path style="fill:rgb(155,154,156);stroke:none;stroke-width:1.0;" d="M387.620 380.000 L350.550 380.000 L350.550 379.500 L387.620 379.500 "/>
  <path style="fill:rgb(155,154,156);stroke:none;stroke-width:1.0;" d="M576.000 380.000 L388.120 380.000 L388.120 379.500 L576.000 379.500 "/>
  <path style="fill:rgb(155,154,156);stroke:none;stroke-width:1.0;" d="M59.440 380.000 L59.440 392.500 L58.940 392.500 L58.940 380.000 "/>
  <path style="fill:rgb(155,154,156);stroke:none;stroke-width:1.0;" d="M58.940 392.500 L36.000 392.500 L36.000 392.000 L58.940 392.000 "/>
  <path style="fill:rgb(155,154,156);stroke:none;stroke-width:1.0;" d="M149.520 380.000 L149.520 392.500 L149.020 392.500 L149.020 380.000 "/>
  <path style="fill:rgb(155,154,156);stroke:none;stroke-width:1.0;" d="M149.020 392.500 L59.440 392.500 L59.440 392.000 L149.020 392.000 "/>
  <path style="fill:rgb(155,154,156);stroke:none;stroke-width:1.0;" d="M350.550 380.000 L350.550 392.500 L350.050 392.500 L350.050 380.000 "/>
  <path style="fill:rgb(155,154,156);stroke:none;stroke-width:1.0;" d="M350.050 392.500 L149.520 392.500 L149.520 392.000 L350.050 392.000 "/>
  <path style="fill:rgb(155,154,156);stroke:none;stroke-width:1.0;" d="M388.120 380.000 L388.120 392.500 L387.620 392.500 L387.620 380.000 "/>
  <path style="fill:rgb(155,154,156);stroke:none;stroke-width:1.0;" d="M387.620 392.500 L350.550 392.500 L350.550 392.000 L387.620 392.000 "/>
  <path style="fill:rgb(155,154,156);stroke:none;stroke-width:1.0;" d="M576.000 392.500 L388.120 392.500 L388.120 392.000 L576.000 392.000 "/>
  <path style="fill:rgb(155,154,156);stroke:none;stroke-width:1.0;" d="M59.440 392.500 L59.440 405.000 L58.940 405.000 L58.940 392.500 "/>
  <path style="fill:rgb(155,154,156);stroke:none;stroke-width:1.0;" d="M58.940 405.000 L36.000 405.000 L36.000 404.500 L58.940 404.500 "/>
  <path style="fill:rgb(155,154,156);stroke:none;stroke-width:1.0;" d="M149.520 392.500 L149.520 405.000 L149.020 405.000 L149.020 392.500 "/>
  <path style="fill:rgb(155,154,156);stroke:none;stroke-width:1.0;" d="M149.020 405.000 L59.440 405.000 L59.440 404.500 L149.020 404.500 "/>
  <path style="fill:rgb(155,154,156);stroke:none;stroke-width:1.0;" d="M350.550 392.500 L350.550 405.000 L350.050 405.000 L350.050 392.500 "/>
  <path style="fill:rgb(155,154,156);stroke:none;stroke-width:1.0;" d="M350.050 405.000 L149.520 405.000 L149.520 404.500 L350.050 404.500 "/>
  <path style="fill:rgb(155,154,156);stroke:none;stroke-width:1.0;" d="M388.120 392.500 L388.120 405.000 L387.620 405.000 L387.620 392.500 "/>
  <path style="fill:rgb(155,154,156);stroke:none;stroke-width:1.0;" d="M387.620 405.000 L350.550 405.000 L350.550 404.500 L387.620 404.500 "/>
  <path style="fill:rgb(155,154,156);stroke:none;stroke-width:1.0;" d="M576.000 405.000 L388.120 405.000 L388.120 404.500 L576.000 404.500 "/>
  <path style="fill:rgb(155,154,156);stroke:none;stroke-width:1.0;" d="M59.440 405.000 L59.440 417.500 L58.940 417.500 L58.940 405.000 "/>
  <path style="fill:rgb(155,154,156);stroke:none;stroke-width:1.0;" d="M58.940 417.500 L36.000 417.500 L36.000 417.000 L58.940 417.000 "/>
  <path style="fill:rgb(155,154,156);stroke:none;stroke-width:1.0;" d="M149.520 405.000 L149.520 417.500 L149.020 417.500 L149.020 405.000 "/>
  <path style="fill:rgb(155,154,156);stroke:none;stroke-width:1.0;" d="M149.020 417.500 L59.440 417.500 L59.440 417.000 L149.020 417.000 "/>
  <path style="fill:rgb(155,154,156);stroke:none;stroke-width:1.0;" d="M350.550 405.000 L350.550 417.500 L350.050 417.500 L350.050 405.000 "/>
  <path style="fill:rgb(155,154,156);stroke:none;stroke-width:1.0;" d="M350.050 417.500 L149.520 417.500 L149.520 417.000 L350.050 417.000 "/>
  <path style="fill:rgb(155,154,156);stroke:none;stroke-width:1.0;" d="M388.120 405.000 L388.120 417.500 L387.620 417.500 L387.620 405.000 "/>
  <path style="fill:rgb(155,154,156);stroke:none;stroke-width:1.0;" d="M387.620 417.500 L350.550 417.500 L350.550 417.000 L387.620 417.000 "/>
  <path style="fill:rgb(155,154,156);stroke:none;stroke-width:1.0;" d="M576.000 417.500 L388.120 417.500 L388.120 417.000 L576.000 417.000 "/>
  <path style="fill:rgb(155,154,156);stroke:none;stroke-width:1.0;" d="M59.440 417.500 L59.440 430.000 L58.940 430.000 L58.940 417.500 "/>
  <path style="fill:rgb(155,154,156);stroke:none;stroke-width:1.0;" d="M58.940 430.000 L36.000 430.000 L36.000 429.500 L58.940 429.500 "/>
  <path style="fill:rgb(155,154,156);stroke:none;stroke-width:1.0;" d="M149.520 417.500 L149.520 430.000 L149.020 430.000 L149.020 417.500 "/>
  <path style="fill:rgb(155,154,156);stroke:none;stroke-width:1.0;" d="M149.020 430.000 L59.440 430.000 L59.440 429.500 L149.020 429.500 "/>
  <path style="fill:rgb(155,154,156);stroke:none;stroke-width:1.0;" d="M350.550 417.500 L350.550 430.000 L350.050 430.000 L350.050 417.500 "/>
  <path style="fill:rgb(155,154,156);stroke:none;stroke-width:1.0;" d="M350.050 430.000 L149.520 430.000 L149.520 429.500 L350.050 429.500 "/>
  <path style="fill:rgb(155,154,156);stroke:none;stroke-width:1.0;" d="M388.120 417.500 L388.120 430.000 L387.620 430.000 L387.620 417.500 "/>
  <path style="fill:rgb(155,154,156);stroke:none;stroke-width:1.0;" d="M387.620 430.000 L350.550 430.000 L350.550 429.500 L387.620 429.500 "/>
  <path style="fill:rgb(155,154,156);stroke:none;stroke-width:1.0;" d="M576.000 430.000 L388.120 430.000 L388.120 429.500 L576.000 429.500 "/>
  <path style="fill:rgb(155,154,156);stroke:none;stroke-width:1.0;" d="M59.440 430.000 L59.440 442.500 L58.940 442.500 L58.940 430.000 "/>
  <path style="fill:rgb(155,154,156);stroke:none;stroke-width:1.0;" d="M58.940 442.500 L36.000 442.500 L36.000 442.000 L58.940 442.000 "/>
  <path style="fill:rgb(155,154,156);stroke:none;stroke-width:1.0;" d="M149.520 430.000 L149.520 442.500 L149.020 442.500 L149.020 430.000 "/>
  <path style="fill:rgb(155,154,156);stroke:none;stroke-width:1.0;" d="M149.020 442.500 L59.440 442.500 L59.440 442.000 L149.020 442.000 "/>
  <path style="fill:rgb(155,154,156);stroke:none;stroke-width:1.0;" d="M350.550 430.000 L350.550 442.500 L350.050 442.500 L350.050 430.000 "/>
  <path style="fill:rgb(155,154,156);stroke:none;stroke-width:1.0;" d="M350.050 442.500 L149.520 442.500 L149.520 442.000 L350.050 442.000 "/>
  <path style="fill:rgb(155,154,156);stroke:none;stroke-width:1.0;" d="M388.120 430.000 L388.120 442.500 L387.620 442.500 L387.620 430.000 "/>
  <path style="fill:rgb(155,154,156);stroke:none;stroke-width:1.0;" d="M387.620 442.500 L350.550 442.500 L350.550 442.000 L387.620 442.000 "/>
  <path style="fill:rgb(155,154,156);stroke:none;stroke-width:1.0;" d="M576.000 442.500 L388.120 442.500 L388.120 442.000 L576.000 442.000 "/>
  <path style="fill:rgb(155,154,156);stroke:none;stroke-width:1.0;" d="M59.440 442.500 L59.440 455.000 L58.940 455.000 L58.940 442.500 "/>
  <path style="fill:rgb(155,154,156);stroke:none;stroke-width:1.0;" d="M58.940 455.000 L36.000 455.000 L36.000 454.500 L58.940 454.500 "/>
  <path style="fill:rgb(155,154,156);stroke:none;stroke-width:1.0;" d="M149.520 442.500 L149.520 455.000 L149.020 455.000 L149.020 442.500 "/>
  <path style="fill:rgb(155,154,156);stroke:none;stroke-width:1.0;" d="M149.020 455.000 L59.440 455.000 L59.440 454.500 L149.020 454.500 "/>
  <path style="fill:rgb(155,154,156);stroke:none;stroke-width:1.0;" d="M350.550 442.500 L350.550 455.000 L350.050 455.000 L350.050 442.500 "/>
  <path style="fill:rgb(155,154,156);stroke:none;stroke-width:1.0;" d="M350.050 455.000 L149.520 455.000 L149.520 454.500 L350.050 454.500 "/>
  <path style="fill:rgb(155,154,156);stroke:none;stroke-width:1.0;" d="M388.120 442.500 L388.120 455.000 L387.620 455.000 L387.620 442.500 "/>
  <path style="fill:rgb(155,154,156);stroke:none;stroke-width:1.0;" d="M387.620 455.000 L350.550 455.000 L350.550 454.500 L387.620 454.500 "/>
  <path style="fill:rgb(155,154,156);stroke:none;stroke-width:1.0;" d="M576.000 455.000 L388.120 455.000 L388.120 454.500 L576.000 454.500 "/>
  <path style="fill:rgb(155,154,156);stroke:none;stroke-width:1.0;" d="M59.440 455.000 L59.440 477.000 L58.940 477.000 L58.940 455.000 "/>
  <path style="fill:rgb(155,154,156);stroke:none;stroke-width:1.0;" d="M58.940 477.000 L36.000 477.000 L36.000 476.500 L58.940 476.500 "/>
  <path style="fill:rgb(155,154,156);stroke:none;stroke-width:1.0;" d="M149.520 455.000 L149.520 477.000 L149.020 477.000 L149.020 455.000 "/>
  <path style="fill:rgb(155,154,156);stroke:none;stroke-width:1.0;" d="M149.020 477.000 L59.440 477.000 L59.440 476.500 L149.020 476.500 "/>
  <path style="fill:rgb(155,154,156);stroke:none;stroke-width:1.0;" d="M350.550 455.000 L350.550 477.000 L350.050 477.000 L350.050 455.000 "/>
  <path style="fill:rgb(155,154,156);stroke:none;stroke-width:1.0;" d="M350.050 477.000 L149.520 477.000 L149.520 476.500 L350.050 476.500 "/>
  <path style="fill:rgb(155,154,156);stroke:none;stroke-width:1.0;" d="M388.120 455.000 L388.120 477.000 L387.620 477.000 L387.620 455.000 "/>
  <path style="fill:rgb(155,154,156);stroke:none;stroke-width:1.0;" d="M387.620 477.000 L350.550 477.000 L350.550 476.500 L387.620 476.500 "/>
  <path style="fill:rgb(155,154,156);stroke:none;stroke-width:1.0;" d="M576.000 477.000 L388.120 477.000 L388.120 476.500 L576.000 476.500 "/>
  <path style="fill:rgb(155,154,156);stroke:none;stroke-width:1.0;" d="M59.440 477.000 L59.440 489.500 L58.940 489.500 L58.940 477.000 "/>
  <path style="fill:rgb(155,154,156);stroke:none;stroke-width:1.0;" d="M58.940 489.500 L36.000 489.500 L36.000 489.000 L58.940 489.000 "/>
  <path style="fill:rgb(155,154,156);stroke:none;stroke-width:1.0;" d="M149.520 477.000 L149.520 489.500 L149.020 489.500 L149.020 477.000 "/>
  <path style="fill:rgb(155,154,156);stroke:none;stroke-width:1.0;" d="M149.020 489.500 L59.440 489.500 L59.440 489.000 L149.020 489.000 "/>
  <path style="fill:rgb(155,154,156);stroke:none;stroke-width:1.0;" d="M350.550 477.000 L350.550 489.500 L350.050 489.500 L350.050 477.000 "/>
  <path style="fill:rgb(155,154,156);stroke:none;stroke-width:1.0;" d="M350.050 489.500 L149.520 489.500 L149.520 489.000 L350.050 489.000 "/>
  <path style="fill:rgb(155,154,156);stroke:none;stroke-width:1.0;" d="M388.120 477.000 L388.120 489.500 L387.620 489.500 L387.620 477.000 "/>
  <path style="fill:rgb(155,154,156);stroke:none;stroke-width:1.0;" d="M387.620 489.500 L350.550 489.500 L350.550 489.000 L387.620 489.000 "/>
  <path style="fill:rgb(155,154,156);stroke:none;stroke-width:1.0;" d="M576.000 489.500 L388.120 489.500 L388.120 489.000 L576.000 489.000 "/>
  <path style="fill:rgb(155,154,156);stroke:none;stroke-width:1.0;" d="M59.440 489.500 L59.440 502.000 L58.940 502.000 L58.940 489.500 "/>
  <path style="fill:rgb(155,154,156);stroke:none;stroke-width:1.0;" d="M58.940 502.000 L36.000 502.000 L36.000 501.500 L58.940 501.500 "/>
  <path style="fill:rgb(155,154,156);stroke:none;stroke-width:1.0;" d="M149.520 489.500 L149.520 502.000 L149.020 502.000 L149.020 489.500 "/>
  <path style="fill:rgb(155,154,156);stroke:none;stroke-width:1.0;" d="M149.020 502.000 L59.440 502.000 L59.440 501.500 L149.020 501.500 "/>
  <path style="fill:rgb(155,154,156);stroke:none;stroke-width:1.0;" d="M350.550 489.500 L350.550 502.000 L350.050 502.000 L350.050 489.500 "/>
  <path style="fill:rgb(155,154,156);stroke:none;stroke-width:1.0;" d="M350.050 502.000 L149.520 502.000 L149.520 501.500 L350.050 501.500 "/>
  <path style="fill:rgb(155,154,156);stroke:none;stroke-width:1.0;" d="M388.120 489.500 L388.120 502.000 L387.620 502.000 L387.620 489.500 "/>
  <path style="fill:rgb(155,154,156);stroke:none;stroke-width:1.0;" d="M387.620 502.000 L350.550 502.000 L350.550 501.500 L387.620 501.500 "/>
  <path style="fill:rgb(155,154,156);stroke:none;stroke-width:1.0;" d="M576.000 502.000 L388.120 502.000 L388.120 501.500 L576.000 501.500 "/>
  <path style="fill:rgb(155,154,156);stroke:none;stroke-width:1.0;" d="M59.440 502.000 L59.440 514.500 L58.940 514.500 L58.940 502.000 "/>
  <path style="fill:rgb(155,154,156);stroke:none;stroke-width:1.0;" d="M58.940 514.500 L36.000 514.500 L36.000 514.000 L58.940 514.000 "/>
  <path style="fill:rgb(155,154,156);stroke:none;stroke-width:1.0;" d="M149.520 502.000 L149.520 514.500 L149.020 514.500 L149.020 502.000 "/>
  <path style="fill:rgb(155,154,156);stroke:none;stroke-width:1.0;" d="M149.020 514.500 L59.440 514.500 L59.440 514.000 L149.020 514.000 "/>
  <path style="fill:rgb(155,154,156);stroke:none;stroke-width:1.0;" d="M350.550 502.000 L350.550 514.500 L350.050 514.500 L350.050 502.000 "/>
  <path style="fill:rgb(155,154,156);stroke:none;stroke-width:1.0;" d="M350.050 514.500 L149.520 514.500 L149.520 514.000 L350.050 514.000 "/>
  <path style="fill:rgb(155,154,156);stroke:none;stroke-width:1.0;" d="M388.120 502.000 L388.120 514.500 L387.620 514.500 L387.620 502.000 "/>
  <path style="fill:rgb(155,154,156);stroke:none;stroke-width:1.0;" d="M387.620 514.500 L350.550 514.500 L350.550 514.000 L387.620 514.000 "/>
  <path style="fill:rgb(155,154,156);stroke:none;stroke-width:1.0;" d="M576.000 514.500 L388.120 514.500 L388.120 514.000 L576.000 514.000 "/>
  <path style="fill:rgb(155,154,156);stroke:none;stroke-width:1.0;" d="M59.440 514.500 L59.440 527.000 L58.940 527.000 L58.940 514.500 "/>
  <path style="fill:rgb(155,154,156);stroke:none;stroke-width:1.0;" d="M58.940 527.000 L36.000 527.000 L36.000 526.500 L58.940 526.500 "/>
  <path style="fill:rgb(155,154,156);stroke:none;stroke-width:1.0;" d="M149.520 514.500 L149.520 527.000 L149.020 527.000 L149.020 514.500 "/>
  <path style="fill:rgb(155,154,156);stroke:none;stroke-width:1.0;" d="M149.020 527.000 L59.440 527.000 L59.440 526.500 L149.020 526.500 "/>
  <path style="fill:rgb(155,154,156);stroke:none;stroke-width:1.0;" d="M350.550 514.500 L350.550 527.000 L350.050 527.000 L350.050 514.500 "/>
  <path style="fill:rgb(155,154,156);stroke:none;stroke-width:1.0;" d="M350.050 527.000 L149.520 527.000 L149.520 526.500 L350.050 526.500 "/>
  <path style="fill:rgb(155,154,156);stroke:none;stroke-width:1.0;" d="M388.120 514.500 L388.120 527.000 L387.620 527.000 L387.620 514.500 "/>
  <path style="fill:rgb(155,154,156);stroke:none;stroke-width:1.0;" d="M387.620 527.000 L350.550 527.000 L350.550 526.500 L387.620 526.500 "/>
  <path style="fill:rgb(155,154,156);stroke:none;stroke-width:1.0;" d="M576.000 527.000 L388.120 527.000 L388.120 526.500 L576.000 526.500 "/>
  <path style="fill:rgb(155,154,156);stroke:none;stroke-width:1.0;" d="M59.440 527.000 L59.440 539.500 L58.940 539.500 L58.940 527.000 "/>
  <path style="fill:rgb(155,154,156);stroke:none;stroke-width:1.0;" d="M58.940 539.500 L36.000 539.500 L36.000 539.000 L58.940 539.000 "/>
  <path style="fill:rgb(155,154,156);stroke:none;stroke-width:1.0;" d="M149.520 527.000 L149.520 539.500 L149.020 539.500 L149.020 527.000 "/>
  <path style="fill:rgb(155,154,156);stroke:none;stroke-width:1.0;" d="M149.020 539.500 L59.440 539.500 L59.440 539.000 L149.020 539.000 "/>
  <path style="fill:rgb(155,154,156);stroke:none;stroke-width:1.0;" d="M350.550 527.000 L350.550 539.500 L350.050 539.500 L350.050 527.000 "/>
  <path style="fill:rgb(155,154,156);stroke:none;stroke-width:1.0;" d="M350.050 539.500 L149.520 539.500 L149.520 539.000 L350.050 539.000 "/>
  <path style="fill:rgb(155,154,156);stroke:none;stroke-width:1.0;" d="M388.120 527.000 L388.120 539.500 L387.620 539.500 L387.620 527.000 "/>
  <path style="fill:rgb(155,154,156);stroke:none;stroke-width:1.0;" d="M387.620 539.500 L350.550 539.500 L350.550 539.000 L387.620 539.000 "/>
  <path style="fill:rgb(155,154,156);stroke:none;stroke-width:1.0;" d="M576.000 539.500 L388.120 539.500 L388.120 539.000 L576.000 539.000 "/>
  <path style="fill:rgb(155,154,156);stroke:none;stroke-width:1.0;" d="M59.440 539.500 L59.440 552.000 L58.940 552.000 L58.940 539.500 "/>
  <path style="fill:rgb(155,154,156);stroke:none;stroke-width:1.0;" d="M58.940 552.000 L36.000 552.000 L36.000 551.500 L58.940 551.500 "/>
  <path style="fill:rgb(155,154,156);stroke:none;stroke-width:1.0;" d="M149.520 539.500 L149.520 552.000 L149.020 552.000 L149.020 539.500 "/>
  <path style="fill:rgb(155,154,156);stroke:none;stroke-width:1.0;" d="M149.020 552.000 L59.440 552.000 L59.440 551.500 L149.020 551.500 "/>
  <path style="fill:rgb(155,154,156);stroke:none;stroke-width:1.0;" d="M350.550 539.500 L350.550 552.000 L350.050 552.000 L350.050 539.500 "/>
  <path style="fill:rgb(155,154,156);stroke:none;stroke-width:1.0;" d="M350.050 552.000 L149.520 552.000 L149.520 551.500 L350.050 551.500 "/>
  <path style="fill:rgb(155,154,156);stroke:none;stroke-width:1.0;" d="M388.120 539.500 L388.120 552.000 L387.620 552.000 L387.620 539.500 "/>
  <path style="fill:rgb(155,154,156);stroke:none;stroke-width:1.0;" d="M387.620 552.000 L350.550 552.000 L350.550 551.500 L387.620 551.500 "/>
  <path style="fill:rgb(155,154,156);stroke:none;stroke-width:1.0;" d="M576.000 552.000 L388.120 552.000 L388.120 551.500 L576.000 551.500 "/>
  <path style="fill:rgb(155,154,156);stroke:none;stroke-width:1.0;" d="M59.440 552.000 L59.440 564.500 L58.940 564.500 L58.940 552.000 "/>
  <path style="fill:rgb(155,154,156);stroke:none;stroke-width:1.0;" d="M58.940 564.500 L36.000 564.500 L36.000 564.000 L58.940 564.000 "/>
  <path style="fill:rgb(155,154,156);stroke:none;stroke-width:1.0;" d="M149.520 552.000 L149.520 564.500 L149.020 564.500 L149.020 552.000 "/>
  <path style="fill:rgb(155,154,156);stroke:none;stroke-width:1.0;" d="M149.020 564.500 L59.440 564.500 L59.440 564.000 L149.020 564.000 "/>
  <path style="fill:rgb(155,154,156);stroke:none;stroke-width:1.0;" d="M350.550 552.000 L350.550 564.500 L350.050 564.500 L350.050 552.000 "/>
  <path style="fill:rgb(155,154,156);stroke:none;stroke-width:1.0;" d="M350.050 564.500 L149.520 564.500 L149.520 564.000 L350.050 564.000 "/>
  <path style="fill:rgb(155,154,156);stroke:none;stroke-width:1.0;" d="M388.120 552.000 L388.120 564.500 L387.620 564.500 L387.620 552.000 "/>
  <path style="fill:rgb(155,154,156);stroke:none;stroke-width:1.0;" d="M387.620 564.500 L350.550 564.500 L350.550 564.000 L387.620 564.000 "/>
  <path style="fill:rgb(155,154,156);stroke:none;stroke-width:1.0;" d="M576.000 564.500 L388.120 564.500 L388.120 564.000 L576.000 564.000 "/>
  <path style="fill:rgb(155,154,156);stroke:none;stroke-width:1.0;" d="M59.440 564.500 L59.440 577.000 L58.940 577.000 L58.940 564.500 "/>
  <path style="fill:rgb(155,154,156);stroke:none;stroke-width:1.0;" d="M58.940 577.000 L36.000 577.000 L36.000 576.500 L58.940 576.500 "/>
  <path style="fill:rgb(155,154,156);stroke:none;stroke-width:1.0;" d="M149.520 564.500 L149.520 577.000 L149.020 577.000 L149.020 564.500 "/>
  <path style="fill:rgb(155,154,156);stroke:none;stroke-width:1.0;" d="M149.020 577.000 L59.440 577.000 L59.440 576.500 L149.020 576.500 "/>
  <path style="fill:rgb(155,154,156);stroke:none;stroke-width:1.0;" d="M350.550 564.500 L350.550 577.000 L350.050 577.000 L350.050 564.500 "/>
  <path style="fill:rgb(155,154,156);stroke:none;stroke-width:1.0;" d="M350.050 577.000 L149.520 577.000 L149.520 576.500 L350.050 576.500 "/>
  <path style="fill:rgb(155,154,156);stroke:none;stroke-width:1.0;" d="M388.120 564.500 L388.120 577.000 L387.620 577.000 L387.620 564.500 "/>
  <path style="fill:rgb(155,154,156);stroke:none;stroke-width:1.0;" d="M387.620 577.000 L350.550 577.000 L350.550 576.500 L387.620 576.500 "/>
  <path style="fill:rgb(155,154,156);stroke:none;stroke-width:1.0;" d="M576.000 577.000 L388.120 577.000 L388.120 576.500 L576.000 576.500 "/>
  <path style="fill:rgb(155,154,156);stroke:none;stroke-width:1.0;" d="M59.440 577.000 L59.440 599.000 L58.940 599.000 L58.940 577.000 "/>
  <path style="fill:rgb(155,154,156);stroke:none;stroke-width:1.0;" d="M58.940 599.000 L36.000 599.000 L36.000 598.500 L58.940 598.500 "/>
  <path style="fill:rgb(155,154,156);stroke:none;stroke-width:1.0;" d="M149.520 577.000 L149.520 599.000 L149.020 599.000 L149.020 577.000 "/>
  <path style="fill:rgb(155,154,156);stroke:none;stroke-width:1.0;" d="M149.020 599.000 L59.440 599.000 L59.440 598.500 L149.020 598.500 "/>
  <path style="fill:rgb(155,154,156);stroke:none;stroke-width:1.0;" d="M350.550 577.000 L350.550 599.000 L350.050 599.000 L350.050 577.000 "/>
  <path style="fill:rgb(155,154,156);stroke:none;stroke-width:1.0;" d="M350.050 599.000 L149.520 599.000 L149.520 598.500 L350.050 598.500 "/>
  <path style="fill:rgb(155,154,156);stroke:none;stroke-width:1.0;" d="M388.120 577.000 L388.120 599.000 L387.620 599.000 L387.620 577.000 "/>
  <path style="fill:rgb(155,154,156);stroke:none;stroke-width:1.0;" d="M387.620 599.000 L350.550 599.000 L350.550 598.500 L387.620 598.500 "/>
  <path style="fill:rgb(155,154,156);stroke:none;stroke-width:1.0;" d="M576.000 599.000 L388.120 599.000 L388.120 598.500 L576.000 598.500 "/>
  <path style="fill:rgb(155,154,156);stroke:none;stroke-width:1.0;" d="M59.440 599.000 L59.440 621.000 L58.940 621.000 L58.940 599.000 "/>
  <path style="fill:rgb(155,154,156);stroke:none;stroke-width:1.0;" d="M58.940 621.000 L36.000 621.000 L36.000 620.500 L58.940 620.500 "/>
  <path style="fill:rgb(155,154,156);stroke:none;stroke-width:1.0;" d="M149.520 599.000 L149.520 621.000 L149.020 621.000 L149.020 599.000 "/>
  <path style="fill:rgb(155,154,156);stroke:none;stroke-width:1.0;" d="M149.020 621.000 L59.440 621.000 L59.440 620.500 L149.020 620.500 "/>
  <path style="fill:rgb(155,154,156);stroke:none;stroke-width:1.0;" d="M350.550 599.000 L350.550 621.000 L350.050 621.000 L350.050 599.000 "/>
  <path style="fill:rgb(155,154,156);stroke:none;stroke-width:1.0;" d="M350.050 621.000 L149.520 621.000 L149.520 620.500 L350.050 620.500 "/>
  <path style="fill:rgb(155,154,156);stroke:none;stroke-width:1.0;" d="M388.120 599.000 L388.120 621.000 L387.620 621.000 L387.620 599.000 "/>
  <path style="fill:rgb(155,154,156);stroke:none;stroke-width:1.0;" d="M387.620 621.000 L350.550 621.000 L350.550 620.500 L387.620 620.500 "/>
  <path style="fill:rgb(155,154,156);stroke:none;stroke-width:1.0;" d="M576.000 621.000 L388.120 621.000 L388.120 620.500 L576.000 620.500 "/>
  <path style="fill:rgb(155,154,156);stroke:none;stroke-width:1.0;" d="M59.440 621.000 L59.440 643.000 L58.940 643.000 L58.940 621.000 "/>
  <path style="fill:rgb(155,154,156);stroke:none;stroke-width:1.0;" d="M58.940 643.000 L36.000 643.000 L36.000 642.500 L58.940 642.500 "/>
  <path style="fill:rgb(155,154,156);stroke:none;stroke-width:1.0;" d="M149.520 621.000 L149.520 643.000 L149.020 643.000 L149.020 621.000 "/>
  <path style="fill:rgb(155,154,156);stroke:none;stroke-width:1.0;" d="M149.020 643.000 L59.440 643.000 L59.440 642.500 L149.020 642.500 "/>
  <path style="fill:rgb(155,154,156);stroke:none;stroke-width:1.0;" d="M350.550 621.000 L350.550 643.000 L350.050 643.000 L350.050 621.000 "/>
  <path style="fill:rgb(155,154,156);stroke:none;stroke-width:1.0;" d="M350.050 643.000 L149.520 643.000 L149.520 642.500 L350.050 642.500 "/>
  <path style="fill:rgb(155,154,156);stroke:none;stroke-width:1.0;" d="M388.120 621.000 L388.120 643.000 L387.620 643.000 L387.620 621.000 "/>
  <path style="fill:rgb(155,154,156);stroke:none;stroke-width:1.0;" d="M387.620 643.000 L350.550 643.000 L350.550 642.500 L387.620 642.500 "/>
  <path style="fill:rgb(155,154,156);stroke:none;stroke-width:1.0;" d="M576.000 643.000 L388.120 643.000 L388.120 642.500 L576.000 642.500 "/>
  <path style="fill:rgb(155,154,156);stroke:none;stroke-width:1.0;" d="M59.440 643.000 L59.440 665.000 L58.940 665.000 L58.940 643.000 "/>
  <path style="fill:rgb(155,154,156);stroke:none;stroke-width:1.0;" d="M58.940 665.000 L36.000 665.000 L36.000 664.500 L58.940 664.500 "/>
  <path style="fill:rgb(155,154,156);stroke:none;stroke-width:1.0;" d="M149.520 643.000 L149.520 665.000 L149.020 665.000 L149.020 643.000 "/>
  <path style="fill:rgb(155,154,156);stroke:none;stroke-width:1.0;" d="M149.020 665.000 L59.440 665.000 L59.440 664.500 L149.020 664.500 "/>
  <path style="fill:rgb(155,154,156);stroke:none;stroke-width:1.0;" d="M350.550 643.000 L350.550 665.000 L350.050 665.000 L350.050 643.000 "/>
  <path style="fill:rgb(155,154,156);stroke:none;stroke-width:1.0;" d="M350.050 665.000 L149.520 665.000 L149.520 664.500 L350.050 664.500 "/>
  <path style="fill:rgb(155,154,156);stroke:none;stroke-width:1.0;" d="M388.120 643.000 L388.120 665.000 L387.620 665.000 L387.620 643.000 "/>
  <path style="fill:rgb(155,154,156);stroke:none;stroke-width:1.0;" d="M387.620 665.000 L350.550 665.000 L350.550 664.500 L387.620 664.500 "/>
  <path style="fill:rgb(155,154,156);stroke:none;stroke-width:1.0;" d="M576.000 665.000 L388.120 665.000 L388.120 664.500 L576.000 664.500 "/>
  <path style="fill:rgb(155,154,156);stroke:none;stroke-width:1.0;" d="M59.440 665.000 L59.440 677.500 L58.940 677.500 L58.940 665.000 "/>
  <path style="fill:rgb(155,154,156);stroke:none;stroke-width:1.0;" d="M58.940 677.500 L36.000 677.500 L36.000 677.000 L58.940 677.000 "/>
  <path style="fill:rgb(155,154,156);stroke:none;stroke-width:1.0;" d="M149.520 665.000 L149.520 677.500 L149.020 677.500 L149.020 665.000 "/>
  <path style="fill:rgb(155,154,156);stroke:none;stroke-width:1.0;" d="M149.020 677.500 L59.440 677.500 L59.440 677.000 L149.020 677.000 "/>
  <path style="fill:rgb(155,154,156);stroke:none;stroke-width:1.0;" d="M350.550 665.000 L350.550 677.500 L350.050 677.500 L350.050 665.000 "/>
  <path style="fill:rgb(155,154,156);stroke:none;stroke-width:1.0;" d="M350.050 677.500 L149.520 677.500 L149.520 677.000 L350.050 677.000 "/>
  <path style="fill:rgb(155,154,156);stroke:none;stroke-width:1.0;" d="M388.120 665.000 L388.120 677.500 L387.620 677.500 L387.620 665.000 "/>
  <path style="fill:rgb(155,154,156);stroke:none;stroke-width:1.0;" d="M387.620 677.500 L350.550 677.500 L350.550 677.000 L387.620 677.000 "/>
  <path style="fill:rgb(155,154,156);stroke:none;stroke-width:1.0;" d="M576.000 677.500 L388.120 677.500 L388.120 677.000 L576.000 677.000 "/>
  <path style="fill:rgb(155,154,156);stroke:none;stroke-width:1.0;" d="M59.440 677.500 L59.440 690.000 L58.940 690.000 L58.940 677.500 "/>
  <path style="fill:rgb(155,154,156);stroke:none;stroke-width:1.0;" d="M58.940 690.000 L36.000 690.000 L36.000 689.500 L58.940 689.500 "/>
  <path style="fill:rgb(155,154,156);stroke:none;stroke-width:1.0;" d="M149.520 677.500 L149.520 690.000 L149.020 690.000 L149.020 677.500 "/>
  <path style="fill:rgb(155,154,156);stroke:none;stroke-width:1.0;" d="M149.020 690.000 L59.440 690.000 L59.440 689.500 L149.020 689.500 "/>
  <path style="fill:rgb(155,154,156);stroke:none;stroke-width:1.0;" d="M350.550 677.500 L350.550 690.000 L350.050 690.000 L350.050 677.500 "/>
  <path style="fill:rgb(155,154,156);stroke:none;stroke-width:1.0;" d="M350.050 690.000 L149.520 690.000 L149.520 689.500 L350.050 689.500 "/>
  <path style="fill:rgb(155,154,156);stroke:none;stroke-width:1.0;" d="M388.120 677.500 L388.120 690.000 L387.620 690.000 L387.620 677.500 "/>
  <path style="fill:rgb(155,154,156);stroke:none;stroke-width:1.0;" d="M387.620 690.000 L350.550 690.000 L350.550 689.500 L387.620 689.500 "/>
  <path style="fill:rgb(155,154,156);stroke:none;stroke-width:1.0;" d="M576.000 690.000 L388.120 690.000 L388.120 689.500 L576.000 689.500 "/>
  <path style="fill:rgb(155,154,156);stroke:none;stroke-width:1.0;" d="M36.000 690.000 L576.000 690.000 L576.000 690.500 L36.000 690.500 "/>
  <path style="fill:rgb(0,0,0);stroke:none;stroke-width:1.0;" d="M576.000 54.900 L36.000 54.900 L36.000 54.400 L576.000 54.400 "/>
  <path style="fill:rgb(0,0,0);stroke:none;stroke-width:1.0;" d="M36.000 744.000 L576.000 744.000 L576.000 744.500 L36.000 744.500 "/>
  <path style="fill:rgb(59,90,166);stroke:none;stroke-width:1.0;" d="M81.580 757.080 L237.880 757.080 Z"/>
 </g>
</svg>
