<?xml version="1.0" encoding="UTF-8"?>
<svg height="740.205" width="4072.609" xmlns="http://www.w3.org/2000/svg">
 <g id="page" xmlns:svgx="http://www.xml-cml.org/schema/svgx">
  <path style="fill:rgb(23,22,21);stroke:none;stroke-width:1.0;" d="M60.660 89.690 L534.610 89.690 L534.610 89.920 L60.660 89.920 "/>
  <path style="fill:rgb(23,22,21);stroke:none;stroke-width:0.25;" d="M534.610 89.690 L535.290 89.750 C536.920 89.990 538.290 91.350 538.530 92.980 L538.580 93.660 L538.360 93.660 L538.300 92.980 C537.990 91.410 536.810 90.260 535.240 89.970 L534.610 89.920 "/>
  <path style="fill:rgb(23,22,21);stroke:none;stroke-width:0.25;" d="M538.580 93.660 L538.580 472.310 L538.360 472.310 L538.360 93.660 "/>
  <path style="fill:rgb(23,22,21);stroke:none;stroke-width:0.25;" d="M538.580 472.310 L538.530 472.990 C538.290 474.620 536.920 475.980 535.290 476.220 L534.610 476.280 L534.610 476.050 L535.240 475.990 C536.700 475.780 538.080 474.400 538.300 472.930 L538.360 472.310 "/>
  <path style="fill:rgb(23,22,21);stroke:none;stroke-width:0.25;" d="M534.610 476.280 L60.660 476.280 L60.660 476.050 L534.610 476.050 "/>
  <path style="fill:rgb(23,22,21);stroke:none;stroke-width:0.25;" d="M60.660 476.280 L59.980 476.220 C58.350 475.980 56.990 474.620 56.750 472.990 L56.690 472.310 L56.920 472.310 L56.980 472.930 C57.190 474.400 58.570 475.770 60.040 475.990 L60.660 476.050 "/>
  <path style="fill:rgb(23,22,21);stroke:none;stroke-width:0.25;" d="M56.690 472.310 L56.690 93.660 L56.920 93.660 L56.920 472.310 "/>
  <path style="fill:rgb(23,22,21);stroke:none;stroke-width:0.25;" d="M56.690 93.660 L56.750 92.980 C56.990 91.350 58.350 89.980 59.980 89.740 L60.660 89.690 L60.660 89.910 L60.040 89.970 C58.520 90.200 57.250 91.510 56.980 92.980 L56.920 93.660 "/>
  <rect style="stroke:blue;stroke-width:0.3;" x="62.609" y="101.951" height="322.825" width="470.504" title="4"/>
  <text y="101.951" class="image" id="image.4.1" width="470" height="322" x="62.609">image.4.1.63_533.102_425</text>
  <g begin="text">
   <text y="430.186" x="62.929,67.074,69.226,73.872,78.519,81.508,85.6524,88.442" svgx:width="0.52,0.27,0.58,0.57,0.38,0.52,0.55,0.55" style="fill:rgb(23,22,21);font-family:AdvOT3b30f6db.B;font-size:7.97px;stroke:none;">Figure 2</text>
   <text y="430.186" x="95.583,100.891,105.37,112.089,116.736,120.928,123.7175,126.483,130.963,133.4337,136.175,139.491,142.296,146.776,151.422,155.407,158.109,161.425,165.992,170.638,172.711,176.775,180.45,183.184,186.5314,189.233,195.187,197.179,199.913,204.3762,207.15,209.142,213.622,216.22,218.213,222.692,226.82,231.3,234.862,238.847,241.446,243.438,245.431,249.496,253.5607,256.302,258.295,260.287,262.368,266.847,270.912,274.227,277.57439999999997,280.34,284.325,288.805,293.3479,296.161,298.154,302.139,306.873,311.352,314.246,318.231,320.964,325.444,328.361,332.346,334.833,338.395,342.986,347.465,349.952,351.945,354.838,361.557,365.621,370.16389999999996,372.978,377.21,381.442,385.674,389.8981,392.704,397.351,401.336,405.911,410.47,414.535,421.333,423.326,426.9125,429.67,431.663,436.142,438.629,440.725,445.204,449.269,453.82,457.382,461.367,464.141,469.1621,471.904,474.223,479.611,483.843,489.152,493.384,495.69530000000003,498.493,500.485,504.965,507.563,511.628,515.19,517.924,520.036,524.515,528.995" svgx:width="0.67,0.56,0.84,0.58,0.51,0.35,0.55,0.56,0.31,0.55,0.42,0.34,0.56,0.57,0.5,0.55,0.42,0.56,0.58,0.26,0.51,0.45,0.34,0.42,0.55,0.74,0.25,0.34,0.56,0.55,0.25,0.56,0.31,0.25,0.56,0.51,0.56,0.45,0.5,0.31,0.25,0.25,0.5,0.51,0.55,0.25,0.25,0.25,0.56,0.51,0.42,0.42,0.55,0.5,0.56,0.57,0.55,0.25,0.5,0.58,0.56,0.35,0.5,0.34,0.56,0.35,0.5,0.31,0.45,0.56,0.56,0.31,0.25,0.35,0.84,0.51,0.57,0.55,0.53,0.53,0.53,0.53,0.55,0.58,0.5,0.56,0.57,0.51,0.84,0.25,0.45,0.55,0.25,0.56,0.31,0.25,0.56,0.51,0.56,0.45,0.5,0.55,0.63,0.55,0.29,0.67,0.53,0.67,0.53,0.29,0.55,0.25,0.56,0.31,0.51,0.45,0.34,0.25,0.56,0.56,0.42" style="fill:rgb(23,22,21);font-family:AdvOTce3d9a73;font-size:7.97px;stroke:none;">Number of study subjects with influenza-like illness and laboratory-confirmed 2009 pandemic influenza A (H1N1) infections</text>
   <text y="440.165" x="62.929,68.819,72.884,75.705,79.7697,82.376,87.023,89.016,93.495,96.229,98.962,103.027,107.5699,110.216,114.696,118.681,122.745,125.53450000000001,128.189,132.174,136.6372,139.3,143.364,148.011,150.004,154.563,158.627,165.346,167.339,170.9255,173.484,177.046,181.526,184.347,188.332,192.39669999999998,195.027,199.507,201.9777,204.607,208.17,212.649,217.129,219.615,221.608,224.429,231.148,235.213,239.7559,242.362,246.594,250.827,255.059,259.2831,261.921,266.568,270.553,275.032,279.591,283.656,290.375,292.367,295.9535,298.488,300.481,304.96,307.447,309.439,313.919,317.984,322.463,326.025,330.01,332.617,337.6381,340.324,342.643,347.952,352.184,357.492,361.724,364.0353,366.689,370.252,374.237,377.553,381.618,384.9654,387.555,389.548,394.01120000000003,396.626,400.77,404.755,406.748,412.638,416.623" svgx:width="0.74,0.51,0.35,0.51,0.55,0.58,0.25,0.56,0.34,0.34,0.51,0.57,0.55,0.56,0.5,0.51,0.35,0.55,0.5,0.56,0.55,0.51,0.58,0.25,0.57,0.51,0.84,0.25,0.45,0.55,0.45,0.56,0.35,0.5,0.51,0.55,0.56,0.31,0.55,0.45,0.56,0.56,0.31,0.25,0.35,0.84,0.51,0.57,0.55,0.53,0.53,0.53,0.53,0.55,0.58,0.5,0.56,0.57,0.51,0.84,0.25,0.45,0.55,0.25,0.56,0.31,0.25,0.56,0.51,0.56,0.45,0.5,0.55,0.63,0.55,0.29,0.67,0.53,0.67,0.53,0.29,0.55,0.45,0.5,0.42,0.51,0.42,0.55,0.25,0.56,0.55,0.52,0.5,0.25,0.74,0.5,0.56" style="fill:rgb(23,22,21);font-family:AdvOTce3d9a73;font-size:7.97px;stroke:none;">were plotted over an epidemic curve of confirmed 2009 pandemic influenza A (H1N1) cases in Taiwan</text>
   <text y="440.165" x="421.062,422.4169,425.031,428.682,432.914,436.7396,439.378,441.45,443.108,445.427,448.328,450.719,453.381,457.199,461.511,463.169,467.481,471.298,477.77,479.428,482.9348,485.525,491.248,494.81,498.373,502.1986,504.797,509.109,512.927,517.239,520.801" svgx:width="0.17,0.55,0.46,0.53,0.48,0.55,0.26,0.21,0.29,0.36,0.3,0.55,0.48,0.54,0.21,0.54,0.48,0.81,0.21,0.44,0.55,0.72,0.45,0.45,0.48,0.55,0.54,0.48,0.54,0.45,0.53" style="fill:rgb(23,22,21);font-family:AdvOT07517017;font-size:7.97px;stroke:none;">. The first epidemic wave began</text>
   <text y="450.143" x="62.929,64.587,68.81110000000001,71.433,73.091,76.654,79.061,82.8866,85.549,90.195,94.34,98.652,102.796,105.697,108.08800000000001,110.718,114.281,118.513,122.8168,125.455,129.273,133.505,137.817,141.635,145.9388,148.529,150.187,154.4111,157.089,160.739,164.557,168.869,171.276,175.094,181.565,185.877,189.695,192.00629999999998,194.565,198.383,202.2,206.018,209.836,211.1909,213.781,216.188,220.42,224.2456,226.876,229.777,233.595,237.078,241.31,245.542,249.8458,252.5,256.732,260.215,263.698,267.843,270.162,272.481,276.299,280.6028,283.17,287.481,291.299,293.706,299.429,303.246,307.064,311.28810000000004,313.895,320.366,322.024,326.3278,328.974,334.282,337.765,340.172,344.405,348.716,352.534,354.8453,357.492,361.309,365.127,368.945,372.7706,375.353,378.916,383.148,387.45180000000005,390.09,393.74,397.558,401.87,404.189,408.334,411.896,414.216,417.7228,420.305,424.123,427.94,431.758,435.576,436.9309,439.521,444.415,446.734,450.297,453.8038,456.418,460.73,464.962,468.365,472.183,475.05219999999997,477.738,479.396,483.628,487.94,489.598,493.081,496.643,499.05,502.8756,505.458,507.531,509.189,511.508,514.409,516.816" svgx:width="0.21,0.53,0.55,0.21,0.45,0.3,0.48,0.55,0.58,0.52,0.54,0.52,0.36,0.3,0.55,0.45,0.53,0.54,0.55,0.48,0.53,0.54,0.48,0.54,0.55,0.21,0.53,0.55,0.46,0.48,0.54,0.3,0.48,0.81,0.54,0.48,0.29,0.55,0.48,0.48,0.48,0.48,0.17,0.55,0.3,0.53,0.48,0.55,0.36,0.48,0.44,0.53,0.53,0.54,0.55,0.53,0.44,0.44,0.52,0.29,0.29,0.48,0.54,0.55,0.54,0.48,0.3,0.72,0.48,0.48,0.53,0.55,0.81,0.21,0.54,0.55,0.67,0.44,0.3,0.53,0.54,0.48,0.29,0.55,0.48,0.48,0.48,0.48,0.55,0.45,0.53,0.54,0.55,0.46,0.48,0.54,0.29,0.52,0.45,0.29,0.44,0.55,0.48,0.48,0.48,0.48,0.17,0.55,0.61,0.29,0.45,0.44,0.55,0.54,0.53,0.43,0.48,0.36,0.55,0.21,0.53,0.54,0.21,0.44,0.45,0.3,0.48,0.55,0.26,0.21,0.29,0.36,0.3,0.17" style="fill:rgb(23,22,21);font-family:AdvOT07517017;font-size:7.97px;stroke:none;">in late August and ended in September 2009; the second occurred between mid October 2009 and February 2010. Gray boxes indicate first,</text>
   <text y="460.122" x="62.929,65.83,69.648,73.131,77.363,81.595,85.907,87.2619,89.86,93.423,97.655,101.9588,104.597,107.004,111.236,112.894,115.214,119.5178,122.116,126.428,128.085,132.318,136.55,140.8538,143.492,146.393,149.956,156.428,160.739,162.397,164.055,168.287,172.5908,175.237,179.549,183.367,185.686,187.344,191.576,195.888,198.789,200.14389999999997,202.679,207.66,211.892,213.55,215.208,219.44,225.1784,227.793,231.355,233.675,235.994,240.226,245.949,248.81820000000002,251.488,253.146,257.378,261.69,263.348,266.831,270.393,272.801,276.6266,279.209,284.931,289.163,292.981,297.2051,299.843,303.4295,306.02,310.252,313.815,316.222,317.88,322.112,326.344,332.067,333.725,338.037,341.8626,344.461,348.023,351.586,355.069,358.552,360.21,364.442,368.005,370.412,372.069,376.302,380.52610000000004,383.124,388.847,390.504,392.911,397.1351,399.79,406.262,410.494,414.726,418.958,422.521,426.083,427.741,431.559,435.68,438.071,440.781,444.598,448.416,452.234,456.0596,458.642,462.954,466.516,470.748,475.06,478.878,485.35,487.008,490.5148,493.113,494.771,499.003,501.075,502.733,506.877,510.695,514.927,518.076,521.6625,524.236" svgx:width="0.36,0.48,0.44,0.53,0.53,0.54,0.17,0.55,0.45,0.53,0.54,0.55,0.3,0.53,0.21,0.29,0.54,0.55,0.54,0.21,0.53,0.53,0.54,0.55,0.36,0.45,0.81,0.54,0.21,0.21,0.53,0.54,0.55,0.54,0.48,0.29,0.21,0.53,0.54,0.36,0.17,0.55,0.63,0.53,0.21,0.21,0.53,0.72,0.55,0.45,0.29,0.29,0.53,0.72,0.36,0.55,0.21,0.53,0.54,0.21,0.44,0.45,0.3,0.48,0.55,0.72,0.53,0.48,0.53,0.55,0.45,0.55,0.53,0.45,0.3,0.21,0.53,0.53,0.72,0.21,0.54,0.48,0.55,0.45,0.45,0.44,0.44,0.21,0.53,0.45,0.3,0.21,0.53,0.53,0.55,0.72,0.21,0.3,0.53,0.55,0.81,0.53,0.53,0.53,0.45,0.45,0.21,0.48,0.53,0.3,0.55,0.48,0.48,0.48,0.48,0.55,0.54,0.45,0.53,0.54,0.48,0.81,0.21,0.44,0.55,0.21,0.53,0.26,0.21,0.52,0.48,0.53,0.4,0.45,0.55,0.58" style="fill:rgb(23,22,21);font-family:AdvOT07517017;font-size:7.97px;stroke:none;">second, and third blood sampling periods. Hollow arrows indicate when a nationwide vaccination with monovalent 2009 pandemic influenza A</text>
   <text y="470.045" x="62.929,65.001,69.983,73.8,78.862,82.679,84.7512,87.366,90.928,94.491,97.974,101.457,103.115,107.347,111.17259999999999,113.787,119.51,123.072,125.94120000000001,128.58,130.237,136.709,141.021,142.679,146.497,152.968,156.786,161.018,163.33,167.147,171.459" svgx:width="0.26,0.63,0.48,0.63,0.48,0.26,0.55,0.45,0.45,0.44,0.44,0.21,0.53,0.48,0.55,0.72,0.45,0.36,0.55,0.21,0.81,0.54,0.21,0.48,0.81,0.48,0.53,0.3,0.48,0.54,0.17" style="fill:rgb(23,22,21);font-family:AdvOT07517017;font-size:7.97px;stroke:none;">(H1N1) vaccine was implemented.</text>
  </g>
  <path style="fill:rgb(23,22,21);stroke:none;stroke-width:0.25;" d="M56.690 559.620 L538.580 559.620 L538.580 559.840 L56.690 559.840 "/>
  <path style="fill:rgb(23,22,21);stroke:none;stroke-width:0.25;" d="M538.580 559.840 L56.690 559.840 L56.690 559.620 "/>
  <g begin="text">
   <text y="544.649" x="56.693,61.544,66.206,71.523,73.944,78.6084,81.637,86.5705,89.572,95.732,100.395,108.052,113.181,118.408,121.77,126.433,131.75,136.977,139.398,143.406,147.235,149.47750000000002,152.498,157.16,161.823,165.831,169.839,172.26,177.487,182.149,185.413,187.834,192.963,198.16559999999998,201.257,206.484,208.905,212.733,215.997,221.126,224.488,229.151,231.39350000000002,234.369,239.032,244.259,249.5513,252.624,257.941,262.604,265.966,269.795,274.924,280.151,284.814,287.2359,290.211,295.528,298.891,304.019,307.283,311.946,315.953,319.217,321.638,326.767,331.9696,335.052,339.714,345.031,350.259,354.921,358.283,362.946,368.173,372.181,376.8454,379.892,385.021,387.9811,391.001,395.951,400.9,405.83349999999996,408.8,414.027,418.689,423.352,425.773,429.036,434.2386,437.312,441.32,445.983,449.345,454.0094,456.984,463.709,468.838,472.2,477.051,481.714,485.076,488.9331,491.908,496.571,499.8002,502.847" svgx:width="0.54,0.52,0.59,0.27,0.52,0.55,0.55,0.55,0.69,0.52,0.85,0.57,0.58,0.38,0.52,0.59,0.58,0.27,0.45,0.43,0.25,0.55,0.52,0.52,0.45,0.45,0.27,0.58,0.52,0.36,0.27,0.57,0.58,0.55,0.58,0.27,0.43,0.36,0.57,0.38,0.52,0.25,0.55,0.52,0.58,0.59,0.55,0.59,0.52,0.38,0.43,0.57,0.58,0.52,0.27,0.55,0.59,0.38,0.57,0.36,0.52,0.45,0.36,0.27,0.57,0.58,0.55,0.52,0.59,0.58,0.52,0.38,0.52,0.58,0.45,0.52,0.55,0.57,0.33,0.55,0.55,0.55,0.55,0.55,0.58,0.52,0.52,0.27,0.36,0.58,0.55,0.45,0.52,0.38,0.52,0.55,0.75,0.57,0.38,0.54,0.52,0.38,0.43,0.55,0.52,0.36,0.55,0.52" style="fill:rgb(23,22,21);font-family:AdvOT3b30f6db.B;font-size:8.97px;stroke:none;">Table 1 Demographics, vaccination history, and personal protection adherence of 150 health care workers at a</text>
   <text y="555.588" x="56.693,60.701,65.928,68.349,70.77,76.087,79.449,84.112,89.348,91.617,95.4741,98.422,103.649,108.778,112.607,117.924,120.345,123.608,128.271,130.69289999999998,133.74,139.057,144.186,147.548,149.969,155.197,160.3996,163.446,166.709,171.937,176.6014,179.603,184.552,189.502,194.451,199.3845,202.395,208.555,213.505,219.664,224.5975,227.564,229.985,235.212,238.198,240.619,245.747,250.41,255.637,259.833,264.4974,267.535,272.853,277.515,282.742,288.059,292.722,300.379,302.8,306.8365,309.83,312.25,317.4526,320.49,325.341,330.004,332.425,339.149,343.812" svgx:width="0.45,0.58,0.27,0.27,0.59,0.38,0.52,0.58,0.25,0.43,0.55,0.58,0.57,0.43,0.59,0.27,0.36,0.52,0.27,0.55,0.59,0.57,0.38,0.27,0.58,0.58,0.55,0.36,0.58,0.52,0.55,0.55,0.55,0.55,0.55,0.55,0.69,0.55,0.69,0.55,0.55,0.27,0.58,0.33,0.27,0.57,0.52,0.58,0.47,0.52,0.55,0.59,0.52,0.58,0.59,0.52,0.85,0.27,0.45,0.55,0.27,0.58,0.55,0.54,0.52,0.27,0.75,0.52,0.58" style="fill:rgb(23,22,21);font-family:AdvOT3b30f6db.B;font-size:8.97px;stroke:none;">children’s hospital during the 2009 H1N1 influenza pandemic in Taiwan</text>
   <text y="568.8" x="56.693,61.34,65.819,69.804,72.625,76.61,80.173,82.907,86.972,89.793,91.786,95.014,97.747,99.74,103.303,106.65039999999999,214.925,219.986,221.979,223.97150000000002,226.602,228.921,234.2609,236.859,241.56130000000002,244.232,248.464,252.696,256.928" svgx:width="0.58,0.56,0.5,0.35,0.5,0.45,0.34,0.51,0.35,0.25,0.42,0.34,0.25,0.45,0.42,0.55,0.63,0.25,0.25,0.55,0.29,0.67,0.55,0.59,0.55,0.53,0.53,0.53,0.29" style="fill:rgb(23,22,21);font-family:AdvOTce3d9a73;font-size:7.97px;stroke:none;">Characteristics All (N = 150)</text>
   <text y="577.759" x="224.338,229.646,234.126,235.9591,238.565,240.884,247.523" svgx:width="0.67,0.56,0.23,0.55,0.29,0.83,0.29" style="fill:rgb(23,22,21);font-family:AdvOTce3d9a73;font-size:7.97px;stroke:none;">No. (%)</text>
   <text y="568.8" x="300.079,305.387,307.38,311.939,316.4022,319.016,321.838,323.83,327.146,331.13100000000003,333.753,336.072,341.4119,344.011,348.7133,351.383,355.615,359.848" svgx:width="0.67,0.25,0.57,0.56,0.55,0.35,0.25,0.42,0.5,0.55,0.29,0.67,0.55,0.59,0.55,0.53,0.53,0.29" style="fill:rgb(23,22,21);font-family:AdvOTce3d9a73;font-size:7.97px;stroke:none;">High risk (N = 93)</text>
   <text y="577.759" x="318.394,323.703,328.182,330.0151,332.621,334.941,341.58" svgx:width="0.67,0.56,0.23,0.55,0.29,0.83,0.29" style="fill:rgb(23,22,21);font-family:AdvOTce3d9a73;font-size:7.97px;stroke:none;">No. (%)</text>
   <text y="568.8" x="398.447,402.345,406.824,412.72180000000003,415.344,418.165,420.158,423.474,427.459,430.081,432.4,437.7399,440.339,445.0413,447.711,451.943,456.175" svgx:width="0.49,0.56,0.74,0.55,0.35,0.25,0.42,0.5,0.55,0.29,0.67,0.55,0.59,0.55,0.53,0.53,0.29" style="fill:rgb(23,22,21);font-family:AdvOTce3d9a73;font-size:7.97px;stroke:none;">Low risk (N = 57)</text>
   <text y="577.759" x="415.742,421.051,425.53,427.3631,429.969,432.289,438.928" svgx:width="0.67,0.56,0.23,0.55,0.29,0.83,0.29" style="fill:rgb(23,22,21);font-family:AdvOTce3d9a73;font-size:7.97px;stroke:none;">No. (%)</text>
   <text y="568.8" x="494.775,499.1585,501.805,505.79,509.775,511.767,516.247" svgx:width="0.55,0.55,0.5,0.5,0.25,0.56,0.51" style="fill:rgb(23,22,21);font-family:AdvOTce3d9a73;font-size:7.97px;stroke:none;">P value</text>
   <text y="565.285" x="520.271" svgx:width="0.53" style="fill:rgb(23,22,21);font-family:AdvOTce3d9a73;font-size:5.31px;stroke:none;">2</text>
   <text y="590.967" x="56.693,61.34,65.651,69.469,70.8239,73.414,79.886,83.704,87.267,91.49109999999999,94.105,98.8073,101.477,105.128,110.2288,112.931,115.003,117.322,120.885,125.117,129.429,133.247,135.319,136.67389999999997,139.232,142.715,146.533,150.096,152.4073,210.39,214.208,218.026,219.349,223.1746,225.757,230.4593,233.185,237.003,238.326,242.144,244.216,248.033,251.851,254.171,257.988,261.702,263.7742,303.092,306.909,310.727,312.05,315.8756,318.514,323.2163,325.886,329.704,331.027,334.8526,337.451,339.523,343.341,347.159,349.478,353.296,357.114,359.1862,400.424,404.241,408.059,409.382,413.2076,415.846,420.5483,423.218,427.036,428.359,432.1846,434.839,436.911,440.729,444.547,446.866,450.684,454.501,456.5732,500.824,504.642,505.965,509.783,513.601" svgx:width="0.58,0.54,0.48,0.17,0.55,0.81,0.48,0.45,0.53,0.55,0.59,0.55,0.46,0.64,0.55,0.26,0.29,0.45,0.53,0.54,0.48,0.26,0.17,0.55,0.44,0.48,0.45,0.29,0.55,0.48,0.48,0.17,0.48,0.55,0.59,0.55,0.48,0.17,0.48,0.26,0.48,0.48,0.29,0.48,0.48,0.26,0.55,0.48,0.48,0.17,0.48,0.55,0.59,0.55,0.48,0.17,0.48,0.55,0.26,0.48,0.48,0.29,0.48,0.48,0.26,0.55,0.48,0.48,0.17,0.48,0.55,0.59,0.55,0.48,0.17,0.48,0.55,0.26,0.48,0.48,0.29,0.48,0.48,0.26,0.55,0.48,0.17,0.48,0.48,0.48" style="fill:rgb(23,22,21);font-family:AdvOT07517017;font-size:7.97px;stroke:none;">Age, mean ± SD [range], year 31.8 ± 6.3[22-59] 30.8 ± 5.8 [23-59] 33.5 ± 6.8 [23-51] 0.008</text>
   <text y="602.93" x="56.685,62.822,66.385,68.042,71.86,73.2149,75.79,79.44,83.258,89.729,93.292,94.95,98.7756,226.881,230.698,234.516,235.839,239.657,243.475,247.3006,322.802,326.62,330.437,331.76,335.578,339.4036,422.071,425.889,427.212,431.029,434.8546,500.816,504.634,505.957,509.775,513.593" svgx:width="0.77,0.45,0.21,0.48,0.17,0.55,0.46,0.48,0.81,0.45,0.21,0.48,0.55,0.48,0.48,0.17,0.48,0.48,0.48,0.55,0.48,0.48,0.17,0.48,0.48,0.55,0.48,0.17,0.48,0.48,0.55,0.48,0.17,0.48,0.48,0.48" style="fill:rgb(23,22,21);font-family:AdvOT07517017;font-size:7.97px;stroke:none;">Male: Female 34:116 28:65 6:51 0.005</text>
   <text y="614.894" x="56.685,60.67,64.233,67.716,71.199,72.856,77.089,80.651,83.058,86.876,91.1798,93.762,99.485,101.143,103.55" svgx:width="0.5,0.45,0.44,0.44,0.21,0.53,0.45,0.3,0.48,0.54,0.55,0.72,0.21,0.3,0.53" style="fill:rgb(23,22,21);font-family:AdvOT07517017;font-size:7.97px;stroke:none;">Vaccinated with</text>
   <text y="626.857" x="56.685,60.503,64.32,68.138,71.9636,74.602,77.503,81.321,84.884,87.785,92.017,96.249,99.716,101.38969999999999,104.028,105.686,109.918,111.99,113.648,117.792,121.61,125.842,128.991,132.57750000000001,135.207,138.77,142.333,145.816,149.299,150.956,155.189,159.0146,220.584,224.402,228.2276,230.842,232.914,236.732,240.549,241.873,245.69,251.501,253.5732,314.64,318.458,322.28360000000004,324.898,326.97,330.788,334.606,335.929,339.747,345.557,347.6292,411.981,415.798,419.6236,422.238,424.31,428.128,431.946,433.269,437.087,442.897,444.9692,497.134,501.8363,504.507,508.324,509.647,513.465,517.283" svgx:width="0.48,0.48,0.48,0.48,0.55,0.36,0.48,0.45,0.36,0.53,0.53,0.45,0.21,0.55,0.21,0.53,0.26,0.21,0.52,0.48,0.53,0.4,0.45,0.55,0.45,0.45,0.44,0.44,0.21,0.53,0.48,0.55,0.48,0.48,0.55,0.26,0.48,0.48,0.17,0.48,0.73,0.26,0.55,0.48,0.48,0.55,0.26,0.48,0.48,0.17,0.48,0.73,0.26,0.55,0.48,0.48,0.55,0.26,0.48,0.48,0.17,0.48,0.73,0.26,0.55,0.59,0.55,0.48,0.17,0.48,0.48,0.48" style="fill:rgb(23,22,21);font-family:AdvOT07517017;font-size:7.97px;stroke:none;">2009 seasonal influenza vaccine 77 (51.3%) 60 (64.5%) 17 (29.8%) &lt; 0.001</text>
   <text y="638.82" x="56.685,60.503,64.32,68.138,71.9636,74.602,79.583,83.401,88.462,92.2876,94.838,96.496,100.728,102.801,104.458,108.603,112.421,116.653,119.801,123.3875,126.018,129.58,133.143,136.626,140.109,141.767,145.999,149.8246,220.584,224.402,228.2276,230.842,232.914,236.732,240.549,241.872,245.69,251.5,253.5722,314.64,318.458,322.28360000000004,324.898,326.97,330.788,334.606,335.929,339.747,345.557,347.6292,413.909,417.7346,420.373,422.445,426.263,430.081,431.404,435.222,441.032,443.1042,497.134,501.8363,504.507,508.324,509.647,513.465,517.283" svgx:width="0.48,0.48,0.48,0.48,0.55,0.63,0.48,0.63,0.48,0.55,0.21,0.53,0.26,0.21,0.52,0.48,0.53,0.4,0.45,0.55,0.45,0.45,0.44,0.44,0.21,0.53,0.48,0.55,0.48,0.48,0.55,0.26,0.48,0.48,0.17,0.48,0.73,0.26,0.55,0.48,0.48,0.55,0.26,0.48,0.48,0.17,0.48,0.73,0.26,0.55,0.48,0.55,0.26,0.48,0.48,0.17,0.48,0.73,0.26,0.55,0.59,0.55,0.48,0.17,0.48,0.48,0.48" style="fill:rgb(23,22,21);font-family:AdvOT07517017;font-size:7.97px;stroke:none;">2009 H1N1 influenza vaccine 60 (40.0%) 53 (57.0%) 7 (12.3%) &lt; 0.001</text>
   <text y="650.784" x="56.685,61.993,66.305,68.712,70.37,76.842,80.404,82.0777,84.692,88.677,92.662" svgx:width="0.67,0.54,0.3,0.21,0.81,0.45,0.21,0.55,0.5,0.5,0.46" style="fill:rgb(23,22,21);font-family:AdvOT07517017;font-size:7.97px;stroke:none;">Optimal PPE</text>
   <text y="662.691" x="56.685,61.746,65.564,69.38959999999999,71.996,78.467,82.03,84.931,88.27839999999999,224.386,228.2116,230.85,232.922,236.74,238.063,241.88,247.691,249.7632,318.442,322.2676,324.906,326.978,330.796,332.119,335.937,341.747,343.8192,418.333,422.15860000000004,424.797,426.869,430.687,436.497,438.5692,500.824,504.642,505.965,509.783,513.601" svgx:width="0.63,0.48,0.48,0.55,0.81,0.45,0.36,0.42,0.55,0.48,0.55,0.26,0.48,0.17,0.48,0.73,0.26,0.55,0.48,0.55,0.26,0.48,0.17,0.48,0.73,0.26,0.55,0.48,0.55,0.26,0.48,0.73,0.26,0.55,0.48,0.17,0.48,0.48,0.48" style="fill:rgb(23,22,21);font-family:AdvOT07517017;font-size:7.97px;stroke:none;">N95 mask 5 (3.3%) 5 (5.4%) 0 (0%) 0.157</text>
   <text y="674.654" x="56.693,60.343,64.488,66.807,71.119,72.777,76.26,79.822,81.4957,84.079,90.55,94.113,97.014,100.36139999999999,218.719,222.537,226.355,230.1806,232.779,234.851,238.669,242.486,243.809,247.627,253.437,255.50920000000002,315.27,319.088,322.91360000000003,325.592,327.664,331.482,335.299,339.117,344.927,346.99920000000003,411.989,415.806,419.6316,422.246,424.318,428.136,431.954,433.277,437.095,442.905,444.9772,497.142,501.8443,504.515,508.332,509.655,513.473,517.291" svgx:width="0.46,0.52,0.29,0.54,0.21,0.44,0.45,0.21,0.55,0.81,0.45,0.36,0.42,0.55,0.48,0.48,0.48,0.55,0.26,0.48,0.48,0.17,0.48,0.73,0.26,0.55,0.48,0.48,0.55,0.26,0.48,0.48,0.48,0.73,0.26,0.55,0.48,0.48,0.55,0.26,0.48,0.48,0.17,0.48,0.73,0.26,0.55,0.59,0.55,0.48,0.17,0.48,0.48,0.48" style="fill:rgb(23,22,21);font-family:AdvOT07517017;font-size:7.97px;stroke:none;">Surgical mask 133 (88.7%) 93 (100%) 40 (70.2%) &lt; 0.001</text>
   <text y="686.618" x="56.693,61.674,65.237,69.469,73.77279999999999,76.419,80.651,84.134,88.446,90.104,93.922,98.154,101.97959999999999,218.719,222.537,226.355,230.1806,232.779,234.851,238.669,242.486,243.809,247.627,253.437,255.50920000000002,315.27,319.088,322.91360000000003,325.592,327.664,331.482,335.299,339.117,344.927,346.99920000000003,411.989,415.806,419.6316,422.246,424.318,428.136,431.954,433.277,437.095,442.905,444.9772,497.142,501.8443,504.515,508.332,509.655,513.473,517.291" svgx:width="0.63,0.45,0.53,0.54,0.55,0.53,0.44,0.54,0.21,0.48,0.53,0.48,0.55,0.48,0.48,0.48,0.55,0.26,0.48,0.48,0.17,0.48,0.73,0.26,0.55,0.48,0.48,0.55,0.26,0.48,0.48,0.48,0.73,0.26,0.55,0.48,0.48,0.55,0.26,0.48,0.48,0.17,0.48,0.73,0.26,0.55,0.59,0.55,0.48,0.17,0.48,0.48,0.48" style="fill:rgb(23,22,21);font-family:AdvOT07517017;font-size:7.97px;stroke:none;">Hand hygiene 143 (95.3%) 93 (100%) 50 (87.7%) &lt; 0.001</text>
   <text y="700.328" x="56.693,60.682,64.455,70.264,74.267,77.607,79.853,81.45,84.205,87.977,91.827,94.615,97.001,102.085,105.572,107.888,111.373,113.669,119.478,122.818,126.821,130.306,132.603,136.522,140.009,142.254,147.338,150.916,154.403,158.23649999999998,160.609,164.459,166.056,169.906,173.818,175.90900000000002,178.239,181.58,185.429,189.3322,191.734,193.331,197.103,202.187,204.293,206.539,208.136,210.891,214.1669,216.567,220.417,222.662,226.435,230.285,234.204" svgx:width="0.57,0.54,0.83,0.56,0.48,0.32,0.23,0.4,0.54,0.55,0.4,0.55,0.73,0.5,0.32,0.5,0.55,0.83,0.48,0.56,0.5,0.55,0.56,0.5,0.32,0.73,0.5,0.5,0.55,0.55,0.55,0.23,0.55,0.55,0.3,0.55,0.48,0.55,0.56,0.55,0.23,0.54,0.73,0.3,0.32,0.23,0.4,0.47,0.55,0.55,0.32,0.54,0.54,0.56,0.4" style="fill:rgb(23,22,21);font-family:AdvOT46dcae81;font-size:6.97px;stroke:none;">Comparisons were made between high- and low-risk groups</text>
   <text y="697.21" x="236.976" svgx:width="0.51" style="fill:rgb(23,22,21);font-family:AdvOT46dcae81;font-size:4.65px;stroke:none;">1</text>
   <text y="710.306" x="56.693,60.905,64.824,68.744,70.989,74.553,77.893,79.49,82.831,85.153,86.75,90.523,94.372,97.127,98.521,100.858,104.268,108.906,110.30000000000001,112.588,115.343,117.588,120.929,124.778,128.802,132.142,134.388,138.2912,140.651,144.57,148.057,151.397,153.064,156.404,158.65,160.247,164.02,167.869,169.263,171.656,175.359,179.062,182.472,183.866,186.224,190.144,193.63,195.876,198.631,202.494,206.344,209.684,211.2871,213.603,217.523,219.838,223.611,225.856,229.343,232.461,234.706,236.394,239.734,243.21900000000002,245.523,249.009,253.005,256.778,258.375,262.295,268.104,271.591,275.51,277.755" svgx:width="0.6,0.56,0.56,0.32,0.5,0.48,0.23,0.48,0.32,0.23,0.54,0.55,0.4,0.2,0.55,0.49,0.66,0.2,0.55,0.4,0.32,0.48,0.55,0.56,0.48,0.32,0.56,0.55,0.56,0.5,0.48,0.23,0.48,0.32,0.23,0.54,0.55,0.2,0.55,0.53,0.53,0.49,0.2,0.55,0.56,0.5,0.32,0.4,0.54,0.55,0.48,0.23,0.55,0.56,0.32,0.54,0.32,0.5,0.45,0.32,0.23,0.48,0.5,0.55,0.5,0.56,0.54,0.23,0.56,0.83,0.5,0.55,0.32,0.2" style="fill:rgb(23,22,21);font-family:AdvOT46dcae81;font-size:6.97px;stroke:none;">Abbreviations: SD, standard deviation; PPE, personal protective equipment.</text>
   <text y="717.166" x="56.693" svgx:width="0.51" style="fill:rgb(23,22,21);font-family:AdvOT46dcae81;font-size:4.65px;stroke:none;">1</text>
   <text y="720.227" x="61.682,65.092,68.579,72.064,74.437,76.683,80.169,83.363,85.5934,87.987,90.016,93.789,96.0194,98.42,102.339,105.826,107.855,109.452,113.386,114.983,117.228,118.825,122.598,126.4315,128.805,132.578,134.5993,136.971,140.821,142.418,146.267,150.179,152.27,154.601,157.941,161.861,165.7642,168.095,169.692,173.465,178.549,180.655,182.901,184.595,187.35,190.6259,192.929,196.841,199.087,202.86,206.632,210.552,213.306" svgx:width="0.49,0.5,0.5,0.55,0.32,0.5,0.46,0.32,0.55,0.29,0.54,0.32,0.55,0.56,0.5,0.29,0.23,0.55,0.23,0.32,0.23,0.54,0.55,0.55,0.54,0.29,0.55,0.55,0.23,0.55,0.55,0.3,0.55,0.48,0.55,0.56,0.55,0.23,0.54,0.73,0.3,0.32,0.23,0.4,0.47,0.55,0.55,0.32,0.54,0.54,0.56,0.4,0.2" style="fill:rgb(23,22,21);font-family:AdvOT46dcae81;font-size:6.97px;stroke:none;">See text for definition of high- and low-risk groups.</text>
   <text y="727.087" x="56.693" svgx:width="0.51" style="fill:rgb(23,22,21);font-family:AdvOT46dcae81;font-size:4.65px;stroke:none;">2</text>
   <text y="730.205" x="61.682,65.37610000000001,67.749,71.09,74.43,76.027,79.8,83.287,86.075,88.44,93.524,97.011,99.257,102.742,105.108,108.225,111.566,113.163,116.28,120.129,121.726,125.067,127.389,130.876,134.7792,137.138,141.058,144.3339,146.665,150.654,154.503,156.1,158.206,160.961,164.978,168.751,172.091,174.337,177.822,180.174,182.419,185.906,188.738,190.9684,193.326,197.099,199.3294,201.716,205.056,206.653,209.408,213.257,216.744,218.9744,221.389,224.876,228.07,231.41,234.528,236.7584,239.137,241.383,244.87,247.701,249.9314,252.29,254.535,258.29879999999997,260.679,263.797,267.569,273.379,277.298,280.638,282.884,286.369,288.798,291.043,294.893,298.378,300.702,304.621,306.218,308.248,310.277,313.855,316.1,319.587,323.437,326.554,330.039,332.447,336.366,339.853,342.099,347.182,350.76,354.247,358.08050000000003,360.398,364.31,365.907,369.757,373.606,375.712,377.958,379.555,382.393,385.66889999999995,388.007,391.348,395.197,399.10020000000003,401.446,403.043,406.816,411.899,414.089,416.335,417.932,420.686,423.96189999999996,426.335,430.185,432.43,436.203,439.976,443.895,446.747" svgx:width="0.53,0.55,0.48,0.48,0.23,0.54,0.5,0.4,0.55,0.73,0.5,0.32,0.5,0.55,0.45,0.48,0.23,0.45,0.54,0.23,0.48,0.32,0.5,0.56,0.55,0.56,0.47,0.55,0.57,0.55,0.23,0.3,0.4,0.56,0.54,0.48,0.32,0.5,0.55,0.32,0.5,0.4,0.32,0.55,0.54,0.32,0.55,0.48,0.23,0.4,0.55,0.5,0.32,0.55,0.5,0.46,0.48,0.45,0.32,0.55,0.32,0.5,0.4,0.32,0.55,0.32,0.54,0.55,0.45,0.54,0.83,0.56,0.48,0.32,0.5,0.55,0.32,0.55,0.5,0.55,0.56,0.23,0.29,0.29,0.5,0.32,0.5,0.55,0.45,0.5,0.55,0.56,0.5,0.32,0.73,0.5,0.5,0.55,0.55,0.55,0.23,0.55,0.55,0.3,0.32,0.23,0.4,0.47,0.55,0.48,0.55,0.56,0.55,0.23,0.54,0.73,0.3,0.32,0.23,0.4,0.47,0.55,0.55,0.32,0.54,0.54,0.56,0.4,0.2" style="fill:rgb(23,22,21);font-family:AdvOT46dcae81;font-size:6.97px;stroke:none;">P values were calculated by Chi-square test or Fisher exact test to compare the difference between high-risk and low-risk groups.</text>
   <text y="40.309" x="56.693,60.925,64.91" svgx:width="0.53,0.5,0.55" style="fill:rgb(23,22,21);font-family:AdvOT46dcae81;font-size:7.97px;stroke:none;">Yen</text>
   <text y="40.309" x="71.94,75.503,77.9737,80.611,84.756" svgx:width="0.45,0.31,0.55,0.52,0.22" style="fill:rgb(23,22,21);font-family:AdvOT65f8a23b.I;font-size:7.97px;stroke:none;">et al</text>
   <text y="40.309" x="86.509" svgx:width="0.2" style="fill:rgb(23,22,21);font-family:AdvOT46dcae81;font-size:7.97px;stroke:none;">.</text>
   <text y="40.309" x="90.758,94.822,100.959,105.3425,107.933,109.758,113.991,116.23,119.793,123.109,125.595,127.333,131.477,135.622,138.49120000000002,141.153,146.294,148.031,150.933,154.495,158.64,161.541,165.104" svgx:width="0.51,0.77,0.55,0.55,0.23,0.53,0.28,0.45,0.42,0.31,0.22,0.52,0.52,0.36,0.55,0.64,0.22,0.36,0.45,0.52,0.36,0.45,0.36" style="fill:rgb(23,22,21);font-family:AdvOT65f8a23b.I;font-size:7.97px;stroke:none;">BMC Infectious Diseases</text>
   <text y="40.309" x="170.635,174.7,178.764,182.829,186.894" svgx:width="0.51,0.51,0.51,0.51,0.2" style="fill:rgb(23,22,21);font-family:AdvOT46dcae81;font-size:7.97px;stroke:none;">2012,</text>
   <text y="40.309" x="191.102,195.502" svgx:width="0.55,0.55" style="fill:rgb(23,22,21);font-family:AdvOT3b30f6db.B;font-size:7.97px;stroke:none;">12</text>
   <text y="40.309" x="199.886,201.456,205.52" svgx:width="0.2,0.51,0.51" style="fill:rgb(23,22,21);font-family:AdvOT46dcae81;font-size:7.97px;stroke:none;">:89</text>
   <text y="50.232" x="56.677,61.077,63.643,66.209,70.689,72.259,74.913,77.567,83.377,89.108,94.918,96.488,100.967,102.793,107.104,113.744,117.729,122.208,125.771,129.756,134.068,136.634,139.2,143.018,144.843,146.413,149.976,154.288,160.927,163.581,167.646,171.711,175.776,179.761,182.168,186.233,190.297,194.362,198.427,201.081,205.146,209.211,211.865,215.93" svgx:width="0.55,0.32,0.32,0.56,0.2,0.33,0.33,0.73,0.73,0.73,0.2,0.56,0.23,0.54,0.83,0.5,0.56,0.45,0.5,0.55,0.32,0.32,0.48,0.23,0.2,0.45,0.54,0.83,0.33,0.51,0.51,0.51,0.51,0.3,0.51,0.51,0.51,0.51,0.33,0.51,0.51,0.33,0.51,0.51" style="fill:rgb(23,22,21);font-family:AdvOT46dcae81;font-size:7.97px;stroke:none;">http://www.biomedcentral.com/1471-2334/12/89</text>
   <text y="40.309" x="499.453,503.686,507.503,511.903,515.888,518.502,522.5667,525.245,529.557,531.8683,534.482" svgx:width="0.53,0.48,0.55,0.5,0.55,0.51,0.55,0.54,0.29,0.55,0.51" style="fill:rgb(23,22,21);font-family:AdvOT46dcae81;font-size:7.97px;stroke:none;">Page 4 of 9</text>
  </g>
 </g>
</svg>
