<?xml version="1.0" encoding="UTF-8"?>
<svg height="756.52" width="548.5790000000001" xmlns="http://www.w3.org/2000/svg">
 <g id="page" xmlns:svgx="http://www.xml-cml.org/schema/svgx">
  <g begin="text">
   <text y="96.775" x="56.693,60.106,63.519,64.794,71.716,75.721,79.504,82.917,86.892,88.838,92.101,96.105,97.38000000000001,99.439,102.624,104.106,107.29,111.265,113.215,117.219,122.705,123.98,126.027,131.513,135.296,139.151,142.564,144.046,145.528,147.01,150.793,154.84300000000002,156.811,159.924,163.707,167.491,169.643,171.716,175.499,177.07399999999998,179.09,184.876,188.288,191.473,194.067,197.772,199.845,203.258,205.958,208.003,210.155,214.13,216.11,218.183,221.596,225.45,229.155,232.269,235.869,237.823,239.975,243.758,247.358,249.275,250.757,256.542,260.397,263.582,266.695,268.945,271.044,274.827" svgx:width="0.48,0.48,0.17,0.55,0.56,0.53,0.48,0.53,0.55,0.46,0.56,0.17,0.55,0.45,0.21,0.45,0.53,0.55,0.56,0.77,0.17,0.55,0.77,0.53,0.54,0.48,0.21,0.21,0.21,0.53,0.54,0.55,0.44,0.53,0.53,0.3,0.29,0.53,0.21,0.55,0.81,0.48,0.45,0.36,0.52,0.29,0.48,0.36,0.55,0.3,0.53,0.55,0.29,0.48,0.54,0.52,0.44,0.48,0.55,0.3,0.53,0.48,0.55,0.21,0.81,0.54,0.45,0.44,0.3,0.55,0.53,0.26" style="fill:rgb(43,42,41);font-family:KfbgyvAdvTTb5929f4c;font-size:7.5px;stroke:none;">33. Chen SC, Liao CM. Modelling control measures to reduce the impact of</text>
  </g>
  <g begin="text">
   <text y="105.732" x="71.716,75.571,78.756,82.539,86.394,89.807,95.592,97.074,100.374,102.33,103.812,107.595,109.448,110.93,114.635,118.048,121.831,124.645,128.01999999999998,129.995,133.18,138.966,142.749,146.532,150.58200000000002,152.502,155.096,158.209,161.993,165.776,169.559,171.041,174.155,177.938,179.42,180.902,184.757,186.83,190.243,194.026,195.30100000000002,197.402,200.665,204.52,206.002,209.856,213.269,219.054,220.536,224.32,225.89499999999998,227.958,229.44,233.224,235.076,238.489,241.603,243.754" svgx:width="0.54,0.45,0.53,0.54,0.48,0.81,0.21,0.44,0.55,0.21,0.53,0.26,0.21,0.52,0.48,0.53,0.4,0.45,0.55,0.45,0.81,0.53,0.53,0.54,0.55,0.36,0.44,0.53,0.53,0.53,0.21,0.44,0.53,0.21,0.21,0.54,0.29,0.48,0.53,0.17,0.55,0.46,0.54,0.21,0.54,0.48,0.81,0.21,0.53,0.21,0.55,0.21,0.53,0.26,0.48,0.44,0.3,0.17" style="fill:rgb(43,42,41);font-family:KfbgyvAdvTTb5929f4c;font-size:7.5px;stroke:none;">pandemic influenza among schoolchildren. Epidemiol Infect.</text>
  </g>
  <g begin="text">
   <text y="114.746" x="71.716,75.129,78.542,81.955,85.368,86.55,89.963,93.376,96.789,97.972,101.385,104.797,108.21" svgx:width="0.48,0.48,0.48,0.48,0.17,0.48,0.48,0.48,0.17,0.48,0.48,0.48,0.48" style="fill:rgb(43,42,41);font-family:KfbgyvAdvTTb5929f4c;font-size:7.5px;stroke:none;">2008;136:1035</text>
  </g>
  <g begin="text">
   <text y="114.746" x="111.628" svgx:width="0.5" style="fill:rgb(43,42,41);font-family:JngjbyAdvTTb5929f4c;font-size:7.5px;stroke:none;">–</text>
  </g>
  <g begin="text">
   <text y="114.746" x="115.143,118.556,121.968" svgx:width="0.48,0.48,0.17" style="fill:rgb(43,42,41);font-family:KfbgyvAdvTTb5929f4c;font-size:7.5px;stroke:none;">45.</text>
  </g>
  <g begin="text">
   <text y="123.761" x="56.692,60.105,63.518,64.793,71.716,75.87,77.352,80.764,82.246,83.728,87.70299999999999,89.631,93.784,97.048,98.32300000000001,100.402,103.964,107.377,109.451,112.863,115.863,117.807,121.369,122.644,124.667,128.671,132.454,136.159,137.641,141.496,145.279,147.352,151.327,153.296,156.858,162.344,163.619,165.655,170.25,173.435,176.62,178.102,180.802,182.889,186.452,191.938,193.213,195.248,199.701,203.556,207.41,208.892,212.867,214.807,220.293,221.568,223.651,229.137,232.92,236.704,238.855,242.82999999999998,244.74,248.894,252.157,253.43200000000002,255.512,258.775,261.96,265.074,268.486,274.272,277.457,280.05,283.014,285.608" svgx:width="0.48,0.48,0.17,0.55,0.58,0.21,0.48,0.21,0.21,0.53,0.55,0.58,0.46,0.17,0.55,0.5,0.48,0.29,0.48,0.4,0.55,0.5,0.17,0.55,0.56,0.53,0.52,0.21,0.54,0.53,0.29,0.53,0.55,0.5,0.77,0.17,0.55,0.64,0.45,0.45,0.21,0.36,0.55,0.5,0.77,0.17,0.55,0.63,0.54,0.54,0.21,0.53,0.55,0.77,0.17,0.55,0.77,0.53,0.53,0.3,0.53,0.55,0.58,0.46,0.17,0.55,0.46,0.45,0.44,0.48,0.81,0.45,0.36,0.42,0.36,0.17" style="fill:rgb(43,42,41);font-family:KfbgyvAdvTTb5929f4c;font-size:7.5px;stroke:none;">34. Aiello AE, Perez V, Coulborn RM, Davis BM, Uddin M, Monto AS. Facemasks,</text>
  </g>
  <g begin="text">
   <text y="132.775" x="71.716,75.499,78.684,82.467,86.517,88.44,92.223,95.337,99.192,100.673,104.086,107.87,111.282,112.557,114.632,117.817,121.6,125.64999999999999,127.614,129.096,132.879,134.732,136.214,139.919,143.332,147.115,149.929,153.304,155.223,158.408,164.193,167.977,171.76,175.81,177.786,180.9,184.683,188.388,192.171,196.221,198.196,201.38,205.235,208.94,210.422,212.574,215.167,216.442,218.491,221.866,223.82,225.894,229.078,232.862,236.716,240.5,246.285,247.767,250.581,253.994" svgx:width="0.53,0.45,0.53,0.54,0.55,0.53,0.44,0.54,0.21,0.48,0.53,0.48,0.17,0.55,0.45,0.53,0.54,0.55,0.21,0.53,0.26,0.21,0.52,0.48,0.53,0.4,0.45,0.55,0.45,0.81,0.53,0.53,0.54,0.55,0.44,0.53,0.52,0.53,0.54,0.55,0.45,0.54,0.52,0.21,0.3,0.36,0.17,0.55,0.45,0.55,0.29,0.45,0.53,0.54,0.53,0.81,0.21,0.4,0.48,0.54" style="fill:rgb(43,42,41);font-family:KfbgyvAdvTTb5929f4c;font-size:7.5px;stroke:none;">hand hygiene, and influenza among young adults: a randomized</text>
  </g>
  <g begin="text">
   <text y="141.732" x="71.716,73.198,76.981,79.133,82.546,84.619,87.804,91.217,95.0,97.152,98.634,102.417,106.392,108.338,110.49,112.564,114.046,117.23,118.712,119.98700000000001,122.058,125.621,128.805,132.589,136.039,137.989,142.734,146.517,149.93,151.205,153.239,156.652,160.065,163.477,166.89,168.073,171.486,172.668,176.081,179.494,182.907,186.32,189.733,193.145" svgx:width="0.21,0.53,0.3,0.48,0.29,0.45,0.48,0.53,0.3,0.21,0.53,0.53,0.55,0.3,0.29,0.21,0.45,0.21,0.17,0.55,0.5,0.45,0.53,0.46,0.55,0.67,0.53,0.48,0.17,0.55,0.48,0.48,0.48,0.48,0.17,0.48,0.17,0.48,0.48,0.48,0.48,0.48,0.48,0.17" style="fill:rgb(43,42,41);font-family:KfbgyvAdvTTb5929f4c;font-size:7.5px;stroke:none;">intervention trial. PLoS One. 2012;7:e29744.</text>
  </g>
  <g begin="text">
   <text y="150.746" x="56.692,60.105,63.518,64.793,71.716,75.72,79.503,84.619,86.101,87.583,91.366,95.416,97.34,100.903,103.347,104.622,106.695,110.699,114.482,117.667,121.642,123.589,127.073,131.526,132.80100000000002,134.87,138.133,141.318,145.102,149.15200000000002,151.084,154.647,157.091,158.366,160.439,164.443,168.226,171.639,175.422,179.472,181.414,185.419,188.903,192.465,193.74,195.757,199.021,202.726,206.509,210.559,212.538,216.1,220.846,224.408,225.683,227.731,233.517,236.701,238.27599999999998,240.317,246.102,247.377,249.444,252.857,255.107,257.098,260.283,261.765" svgx:width="0.48,0.48,0.17,0.55,0.56,0.53,0.72,0.21,0.21,0.53,0.54,0.55,0.5,0.34,0.17,0.55,0.56,0.53,0.45,0.53,0.55,0.49,0.63,0.17,0.55,0.46,0.45,0.53,0.54,0.55,0.5,0.34,0.17,0.55,0.56,0.53,0.48,0.53,0.54,0.55,0.56,0.49,0.5,0.17,0.55,0.46,0.52,0.53,0.54,0.55,0.5,0.67,0.5,0.17,0.55,0.81,0.45,0.21,0.55,0.81,0.17,0.55,0.48,0.3,0.55,0.45,0.21,0.17" style="fill:rgb(43,42,41);font-family:KfbgyvAdvTTb5929f4c;font-size:7.5px;stroke:none;">35. Cowling BJ, Chan KH, Fang VJ, Cheng CKY, Fung ROP, Wai W, et al.</text>
  </g>
  <g begin="text">
   <text y="159.76" x="71.716,74.979,78.164,81.277,84.69,90.476,93.66,96.254,99.218,101.918,103.973,107.158,110.941,114.991,116.899,120.682,123.867,127.65,131.70000000000002,133.68,137.463,140.576,144.431,145.913,149.326,153.109,156.709,158.681,160.833,164.808,166.731,170.586,172.659,176.072,179.257,182.67,186.453,188.703,190.769,192.251,196.034,197.886,199.368,203.073,206.486,210.269,213.084,216.459,218.434,220.586,222.659,225.844,229.627,232.221,238.006,239.488,242.081,244.675,246.157,249.94,253.915,255.85,257.332" svgx:width="0.46,0.45,0.44,0.48,0.81,0.45,0.36,0.42,0.36,0.55,0.45,0.53,0.54,0.55,0.53,0.45,0.53,0.54,0.55,0.53,0.44,0.54,0.21,0.48,0.53,0.48,0.55,0.3,0.53,0.55,0.54,0.29,0.48,0.45,0.48,0.53,0.3,0.55,0.21,0.53,0.26,0.21,0.52,0.48,0.53,0.4,0.45,0.55,0.3,0.29,0.45,0.53,0.36,0.81,0.21,0.36,0.36,0.21,0.53,0.53,0.55,0.21,0.53" style="fill:rgb(43,42,41);font-family:KfbgyvAdvTTb5929f4c;font-size:7.5px;stroke:none;">Facemasks and hand hygiene to prevent influenza transmission in</text>
  </g>
  <g begin="text">
   <text y="168.774" x="71.716,75.499,79.282,82.987,85.581,88.994,92.777,96.56,98.042,101.897,104.49,105.765,107.828,111.203,113.158,116.271,117.753,121.458,124.052,126.203,129.616,131.79100000000003,133.794,135.867,139.052,142.835,146.69,150.473,156.258,157.74,160.555,163.968,168.018,170.019,172.171,174.244,175.726,178.911,180.393,181.668,183.739,187.893,191.676,195.65099999999998,197.572,199.054,202.837,204.989,208.402,210.475,214.45,216.394,221.88,225.293,229.148,230.423,232.494,235.907,239.32,242.733,246.145,247.328,250.741,254.154,257.567,258.749,262.162,265.575" svgx:width="0.53,0.53,0.52,0.36,0.48,0.53,0.53,0.21,0.54,0.36,0.17,0.55,0.45,0.55,0.44,0.21,0.52,0.36,0.3,0.48,0.29,0.55,0.29,0.45,0.53,0.54,0.53,0.81,0.21,0.4,0.48,0.54,0.55,0.3,0.29,0.21,0.45,0.21,0.17,0.55,0.58,0.53,0.53,0.55,0.21,0.53,0.3,0.48,0.29,0.53,0.55,0.77,0.48,0.54,0.17,0.55,0.48,0.48,0.48,0.48,0.17,0.48,0.48,0.48,0.17,0.48,0.48,0.48" style="fill:rgb(43,42,41);font-family:KfbgyvAdvTTb5929f4c;font-size:7.5px;stroke:none;">households: a cluster randomized trial. Ann Intern Med. 2009;151:437</text>
  </g>
  <g begin="text">
   <text y="168.774" x="269.008" svgx:width="0.5" style="fill:rgb(43,42,41);font-family:JngjbyAdvTTb5929f4c;font-size:7.5px;stroke:none;">–</text>
  </g>
  <g begin="text">
   <text y="168.774" x="272.579,275.992,279.405" svgx:width="0.48,0.48,0.17" style="fill:rgb(43,42,41);font-family:KfbgyvAdvTTb5929f4c;font-size:7.5px;stroke:none;">46.</text>
  </g>
  <g begin="text">
   <text y="177.731" x="56.692,60.105,63.518,64.793,71.716,77.202,80.387,83.5,84.982,88.766,90.917,94.031,96.104,99.704,101.649,105.653,109.216,110.491,112.534,118.319,121.504,125.287,129.33700000000002,131.298,136.044,137.31900000000002,139.349,143.353,146.538,150.243,153.356,157.14,160.553,166.338,169.751,172.751,174.725,177.988,179.263,181.358,184.621,188.034,191.219,192.701,196.301,198.252,202.705,203.98000000000002,206.019,210.614,215.73,218.844,222.256,224.431,226.484,231.08,234.343,235.618,237.653,241.215,244.4,248.183,252.233,254.207,257.769,259.044,261.066,264.479,266.729,268.776,271.961,273.443,274.71799999999996,276.77" svgx:width="0.48,0.48,0.17,0.55,0.77,0.45,0.44,0.21,0.53,0.3,0.44,0.29,0.48,0.55,0.56,0.5,0.17,0.55,0.81,0.45,0.53,0.54,0.55,0.67,0.17,0.55,0.56,0.45,0.52,0.44,0.53,0.48,0.81,0.48,0.4,0.55,0.46,0.17,0.55,0.46,0.48,0.45,0.21,0.48,0.55,0.63,0.17,0.55,0.64,0.72,0.44,0.48,0.29,0.55,0.64,0.46,0.17,0.55,0.5,0.45,0.53,0.54,0.55,0.5,0.17,0.55,0.48,0.3,0.55,0.45,0.21,0.17,0.55,0.58" style="fill:rgb(43,42,41);font-family:KfbgyvAdvTTb5929f4c;font-size:7.5px;stroke:none;">36. MacIntyre CR, Wang Q, Cauchemez S, Seale H, Dwyer DE, Yang P, et al. A</text>
  </g>
  <g begin="text">
   <text y="186.745" x="71.716,74.829,76.311,80.016,82.61,84.761,88.174,90.349,92.352,94.425,97.61,101.393,105.248,109.031,114.816,116.298,119.113,122.526,126.576,128.577,131.691,133.173,134.655,138.438,139.92,143.034,146.219,147.79399999999998,149.837,151.988,154.062,155.544,158.729,160.304,162.366,165.479,169.263,175.048,178.903,182.088,184.161,185.643,189.426,193.476,195.417,197.269,198.751,200.903,202.976,205.128,208.541,211.134,213.286,216.699,220.74900000000002,222.742,225.927,229.71,233.76000000000002,235.668,239.452,243.235,247.018,249.092,250.944,252.426,254.578,256.651,258.803,262.216,264.809,266.961,270.374,274.42400000000004,276.43,280.954,284.367" svgx:width="0.44,0.21,0.52,0.36,0.3,0.48,0.29,0.55,0.29,0.45,0.53,0.54,0.53,0.81,0.21,0.4,0.48,0.54,0.55,0.44,0.21,0.21,0.53,0.21,0.44,0.45,0.21,0.55,0.3,0.29,0.21,0.45,0.21,0.55,0.44,0.53,0.81,0.54,0.45,0.29,0.21,0.53,0.54,0.55,0.26,0.21,0.3,0.29,0.3,0.48,0.36,0.3,0.48,0.54,0.55,0.45,0.53,0.54,0.55,0.53,0.53,0.53,0.29,0.26,0.21,0.3,0.29,0.3,0.48,0.36,0.3,0.48,0.54,0.55,0.63,0.48,0.48" style="fill:rgb(43,42,41);font-family:KfbgyvAdvTTb5929f4c;font-size:7.5px;stroke:none;">cluster randomized clinical trial comparing fit-tested and non-fit-tested N95</text>
  </g>
  <g begin="text">
   <text y="195.76" x="71.716,73.789,77.202,79.795,83.65,85.132,87.205,90.39,92.542,96.325,98.399,101.099,103.123,105.275,109.25,111.23,117.015,120.428,124.283,125.765,128.878,132.063,133.63799999999998,135.664,141.449,144.634,147.228,150.192,152.892,154.939,157.091,161.066,163.046,166.9,168.973,172.386,175.571,178.984,182.767,185.017,187.026,189.099,192.512,195.105,198.96,200.442,202.515,205.7,207.852,211.635,213.709,217.00900000000001,219.0,222.185,223.667,225.74,229.445,232.14499999999998,234.193,235.675,239.459,241.311,244.724,247.838,249.989,251.471,255.255,259.23,261.179,262.661,266.636,268.606,272.389,275.802,278.987,280.469,282.621" svgx:width="0.29,0.48,0.36,0.54,0.21,0.29,0.45,0.3,0.53,0.29,0.36,0.55,0.3,0.53,0.55,0.81,0.48,0.54,0.21,0.44,0.45,0.21,0.55,0.81,0.45,0.36,0.42,0.36,0.55,0.3,0.53,0.55,0.54,0.29,0.48,0.45,0.48,0.53,0.3,0.55,0.29,0.48,0.36,0.54,0.21,0.29,0.45,0.3,0.53,0.29,0.44,0.55,0.45,0.21,0.29,0.52,0.36,0.55,0.21,0.53,0.26,0.48,0.44,0.3,0.21,0.53,0.53,0.55,0.21,0.53,0.55,0.53,0.48,0.45,0.21,0.3,0.53" style="fill:rgb(43,42,41);font-family:KfbgyvAdvTTb5929f4c;font-size:7.5px;stroke:none;">respirators to medical masks to prevent respiratory virus infection in health</text>
  </g>
  <g begin="text">
   <text y="204.774" x="71.716,74.829,78.014,80.088,83.68799999999999,85.605,90.721,94.504,96.577,99.541,102.954,105.028,107.621,108.896,111.003,112.485,116.268,118.121,119.603,123.308,126.721,130.504,133.318,136.693,138.668,143.414,145.565,149.349,152.761,154.936,156.923,160.486,163.898,166.492,170.346,171.828,174.00300000000001,176.085,179.647,181.129,183.203,186.908,189.501,192.914,195.507,196.782,198.818,202.231,205.644,209.057,212.47,213.652,217.065,218.248,221.661,225.074" svgx:width="0.44,0.45,0.29,0.48,0.55,0.72,0.53,0.29,0.42,0.48,0.29,0.36,0.17,0.55,0.21,0.53,0.26,0.21,0.52,0.48,0.53,0.4,0.45,0.55,0.67,0.3,0.53,0.48,0.29,0.55,0.5,0.48,0.36,0.54,0.21,0.29,0.55,0.5,0.21,0.29,0.52,0.36,0.48,0.36,0.17,0.55,0.48,0.48,0.48,0.48,0.17,0.48,0.17,0.48,0.48,0.48" style="fill:rgb(43,42,41);font-family:KfbgyvAdvTTb5929f4c;font-size:7.5px;stroke:none;">care workers. Influenza Other Respir Viruses. 2011;5:170</text>
  </g>
  <g begin="text">
   <text y="204.774" x="228.528" svgx:width="0.5" style="fill:rgb(43,42,41);font-family:JngjbyAdvTTb5929f4c;font-size:7.5px;stroke:none;">–</text>
  </g>
  <g begin="text">
   <text y="204.774" x="232.1,235.513" svgx:width="0.48,0.17" style="fill:rgb(43,42,41);font-family:KfbgyvAdvTTb5929f4c;font-size:7.5px;stroke:none;">9.</text>
  </g>
  <g begin="text">
   <text y="213.731" x="56.691,60.104,63.517,64.792,71.715,77.201,80.386,83.5,84.982,88.765,90.917,94.03,96.104,99.704,101.648,105.652,109.215,110.49000000000001,112.533,116.537,119.722,123.427,126.54,130.324,133.737,139.522,142.935,145.935,147.909,151.172,152.447,154.485,159.081,164.196,167.31,170.723,172.89800000000002,174.951,179.546,182.809,184.084,186.176,189.439,192.852,196.037,197.519,201.119,203.07,207.523,208.798,210.837,214.841,218.624,222.037,225.742,229.525,233.57500000000002,235.497,239.06,240.335,242.413,245.976,248.049,251.833,256.948,260.732,264.33200000000005,266.28,270.655,271.92999999999995,273.99,277.403,279.653,281.7,284.885,286.367" svgx:width="0.48,0.48,0.17,0.55,0.77,0.45,0.44,0.21,0.53,0.3,0.44,0.29,0.48,0.55,0.56,0.5,0.17,0.55,0.56,0.45,0.52,0.44,0.53,0.48,0.81,0.48,0.4,0.55,0.46,0.17,0.55,0.64,0.72,0.44,0.48,0.29,0.55,0.64,0.46,0.17,0.55,0.46,0.48,0.45,0.21,0.48,0.55,0.63,0.17,0.55,0.56,0.53,0.48,0.52,0.53,0.54,0.55,0.5,0.17,0.55,0.5,0.29,0.53,0.72,0.53,0.48,0.55,0.61,0.17,0.55,0.48,0.3,0.55,0.45,0.21,0.17" style="fill:rgb(43,42,41);font-family:KfbgyvAdvTTb5929f4c;font-size:7.5px;stroke:none;">37. Maclntyre CR, Cauchemez S, Dwyer DE, Seale H, Cheung P, Browne G, et al.</text>
  </g>
  <g begin="text">
   <text y="222.745" x="71.715,74.978,78.163,81.277,84.877,86.795,92.58,95.765,98.359,101.509,103.462,107.167,109.761,113.36099999999999,115.368,118.553,122.336,126.386,128.294,131.407,135.191,138.974,141.126,143.199,146.982,148.557,150.63,154.414,156.36399999999998,158.397,160.471,163.883,166.477,170.331,171.813,173.887,177.072,179.223,183.007,185.08,188.38000000000002,190.372,193.557,195.039,197.112,200.817,203.517,205.565,207.717,209.79,212.975,216.758,219.352,225.137,226.619,229.212,231.806,233.288,237.071,241.046,243.038,244.52,248.495,250.408,254.192,257.975,261.68,264.273,267.686,271.469,275.253,276.735,280.589,283.183" svgx:width="0.46,0.45,0.44,0.48,0.55,0.81,0.45,0.36,0.42,0.55,0.52,0.36,0.48,0.55,0.45,0.53,0.54,0.55,0.44,0.53,0.53,0.3,0.29,0.53,0.21,0.55,0.53,0.26,0.55,0.29,0.48,0.36,0.54,0.21,0.29,0.45,0.3,0.53,0.29,0.44,0.55,0.45,0.21,0.29,0.52,0.36,0.55,0.3,0.29,0.45,0.53,0.36,0.81,0.21,0.36,0.36,0.21,0.53,0.53,0.55,0.21,0.53,0.55,0.53,0.53,0.52,0.36,0.48,0.53,0.53,0.21,0.54,0.36,0.17" style="fill:rgb(43,42,41);font-family:KfbgyvAdvTTb5929f4c;font-size:7.5px;stroke:none;">Face mask use and control of respiratory virus transmission in households.</text>
  </g>
  <g begin="text">
   <text y="231.759" x="71.715,74.978,80.764,84.176,86.25,90.3,92.238,93.72,97.503,99.355,102.768,105.882,108.132,110.152,114.748,116.23,118.823,120.098,122.171,125.584,128.997,132.41,135.823,137.005,140.418,143.831,145.014,148.427,151.84" svgx:width="0.46,0.81,0.48,0.29,0.54,0.55,0.21,0.53,0.26,0.48,0.44,0.3,0.55,0.64,0.21,0.36,0.17,0.55,0.48,0.48,0.48,0.48,0.17,0.48,0.48,0.17,0.48,0.48,0.48" style="fill:rgb(43,42,41);font-family:KfbgyvAdvTTb5929f4c;font-size:7.5px;stroke:none;">Emerg Infect Dis. 2009;15:233</text>
  </g>
  <g begin="text">
   <text y="231.759" x="155.281" svgx:width="0.5" style="fill:rgb(43,42,41);font-family:JngjbyAdvTTb5929f4c;font-size:7.5px;stroke:none;">–</text>
  </g>
  <g begin="text">
   <text y="231.759" x="158.796,162.208,165.621" svgx:width="0.48,0.48,0.17" style="fill:rgb(43,42,41);font-family:KfbgyvAdvTTb5929f4c;font-size:7.5px;stroke:none;">41.</text>
  </g>
  <g begin="text">
   <text y="240.773" x="56.691,60.104,63.517,64.792,71.715,74.9,78.085,80.158,82.752,86.535,90.50999999999999,92.464,95.727,98.912,100.18700000000001,102.215,105.479,108.891,110.965,114.748,118.798,120.754,124.316,128.769,130.044,132.092,137.878,141.661,145.444,149.299,151.372,156.858,159.972,163.157,166.94,170.645,174.5,178.283,179.765,181.247,185.222,187.196,189.64,190.915,192.979,198.764,201.949,205.732,209.782,211.744,215.007,216.282,218.32,222.773,225.958,229.812,233.225,235.4,237.425,242.911,244.186,246.269,251.756,255.539,257.612,260.206,263.80600000000004,265.772,269.035,272.298" svgx:width="0.48,0.48,0.17,0.55,0.45,0.45,0.29,0.36,0.53,0.53,0.55,0.46,0.45,0.17,0.55,0.46,0.48,0.29,0.53,0.54,0.55,0.5,0.63,0.17,0.55,0.81,0.53,0.53,0.54,0.29,0.77,0.44,0.45,0.53,0.52,0.54,0.53,0.21,0.21,0.53,0.55,0.34,0.17,0.55,0.81,0.45,0.53,0.54,0.55,0.46,0.17,0.55,0.63,0.45,0.54,0.48,0.29,0.55,0.77,0.17,0.55,0.77,0.53,0.29,0.36,0.48,0.55,0.46,0.46,0.17" style="fill:rgb(43,42,41);font-family:KfbgyvAdvTTb5929f4c;font-size:7.5px;stroke:none;">38. Larson EL, Ferng YH, Wong-McLoughlin J, Wang S, Haber M, Morse SS.</text>
  </g>
  <g begin="text">
   <text y="249.73" x="71.715,73.197,78.982,82.837,86.022,89.135,91.385,93.428,97.211,99.161,101.195,104.978,108.762,112.545,114.618,118.473,122.256,125.441,127.514,133.3,136.485,139.598,143.011,146.716,148.868,150.35,153.463,156.648,158.22299999999998,160.325,161.807,165.59,167.742,171.154,173.228,176.413,179.825,183.609,185.76,187.242,191.026,194.809,197.509,199.555,203.338,207.313,209.249,213.702,217.265,218.747,221.447,223.479,226.664,230.447,234.497,236.461,237.943,241.727,243.579,245.061,248.766,252.179,255.962,258.776,262.151,264.07,265.552" svgx:width="0.21,0.81,0.54,0.45,0.44,0.3,0.55,0.53,0.26,0.55,0.53,0.53,0.53,0.29,0.54,0.53,0.45,0.29,0.81,0.45,0.44,0.48,0.52,0.3,0.21,0.44,0.45,0.21,0.55,0.21,0.53,0.3,0.48,0.29,0.45,0.48,0.53,0.3,0.21,0.53,0.53,0.36,0.55,0.53,0.53,0.55,0.63,0.5,0.21,0.36,0.55,0.45,0.53,0.54,0.55,0.21,0.53,0.26,0.21,0.52,0.48,0.53,0.4,0.45,0.55,0.21,0.53" style="fill:rgb(43,42,41);font-family:KfbgyvAdvTTb5929f4c;font-size:7.5px;stroke:none;">Impact of non-pharmaceutical interventions on URIs and influenza in</text>
  </g>
  <g begin="text">
   <text y="258.745" x="71.715,74.829,76.902,80.685,85.801,89.656,93.068,96.923,98.19800000000001,100.231,103.936,106.009,109.864,113.049,117.024,118.996,122.779,126.563,130.267,132.861,136.274,140.057,143.84,145.322,149.177,151.77,153.04500000000002,155.108,158.671,162.376,166.23,167.712,169.194,172.494,174.44,178.893,182.306,185.491,186.973,189.125,193.1,195.076,198.639,202.052,205.906,207.181,209.249,212.662,216.075,219.488,222.9,224.083,227.496,230.909,234.322,235.504,238.917,242.33" svgx:width="0.44,0.29,0.53,0.72,0.54,0.48,0.54,0.17,0.55,0.52,0.29,0.54,0.45,0.53,0.55,0.53,0.53,0.52,0.36,0.48,0.53,0.53,0.21,0.54,0.36,0.17,0.55,0.5,0.52,0.54,0.21,0.21,0.44,0.55,0.63,0.48,0.45,0.21,0.3,0.53,0.55,0.5,0.48,0.54,0.17,0.55,0.48,0.48,0.48,0.48,0.17,0.48,0.48,0.48,0.17,0.48,0.48,0.48" style="fill:rgb(43,42,41);font-family:KfbgyvAdvTTb5929f4c;font-size:7.5px;stroke:none;">crowded, urban households. Public Health Rep. 2010;125:178</text>
  </g>
  <g begin="text">
   <text y="258.745" x="245.706" svgx:width="0.5" style="fill:rgb(43,42,41);font-family:JngjbyAdvTTb5929f4c;font-size:7.5px;stroke:none;">–</text>
  </g>
  <g begin="text">
   <text y="258.745" x="249.278,252.69,256.103" svgx:width="0.48,0.48,0.17" style="fill:rgb(43,42,41);font-family:KfbgyvAdvTTb5929f4c;font-size:7.5px;stroke:none;">91.</text>
  </g>
  <g begin="text">
   <text y="267.759" x="56.691,60.104,63.517,64.792,71.715,77.201,80.985,82.466,83.948,87.732,90.917,92.99,94.565,96.602,101.127,105.28,110.767,112.042,114.12,118.865,120.939,123.091,126.503,130.358,133.543,135.616,138.879,142.064,145.847,148.961,152.744,156.157,159.157,161.118,162.6,166.162,167.437,169.508,174.994,178.407,181.0,183.594,187.377,191.16,194.944,196.426,199.839,202.014,204.033,209.519,212.704,213.979,216.052,219.315,223.099,226.882,232.667,236.522,239.115,242.899,246.874,248.82,254.606,260.391,261.666,263.73,269.516,273.299,275.372,277.524,279.006,282.419" svgx:width="0.48,0.48,0.17,0.55,0.77,0.53,0.21,0.21,0.53,0.45,0.29,0.21,0.55,0.63,0.58,0.77,0.17,0.55,0.67,0.29,0.3,0.48,0.54,0.45,0.29,0.46,0.45,0.53,0.44,0.53,0.48,0.4,0.55,0.21,0.5,0.17,0.55,0.77,0.48,0.36,0.36,0.53,0.53,0.53,0.21,0.48,0.29,0.55,0.77,0.45,0.17,0.55,0.46,0.53,0.53,0.81,0.54,0.36,0.53,0.53,0.55,0.81,0.81,0.17,0.55,0.81,0.53,0.29,0.3,0.21,0.48,0.44" style="fill:rgb(43,42,41);font-family:KfbgyvAdvTTb5929f4c;font-size:7.5px;stroke:none;">39. Molinari NAM, Ortega-Sanchez IR, Messonnier ML, Thompson WW, Wortley</text>
  </g>
  <g begin="text">
   <text y="276.773" x="71.715,75.277,80.764,82.039,84.074,89.859,93.272,94.754,98.537,100.689,102.762,105.947,109.652,113.702,115.651,118.915,120.19000000000001,122.228,125.641,127.891,129.938,133.122,134.604,135.87900000000002,137.931,141.194,144.978,148.578,150.516,153.701,157.485,161.268,164.973,168.158,169.73299999999998,171.833,173.315,179.1,182.955,186.139,189.253,191.503,193.546,197.329,199.279,201.313,203.906,207.319,210.504,213.097,216.881,220.664,223.849,225.42399999999998,227.505,228.986,232.77,234.622,236.104,239.809,243.222,247.005,249.82,253.195,255.17,256.652,260.627,262.54,264.692,268.475,272.07500000000005,274.049,278.502,281.765" svgx:width="0.5,0.77,0.17,0.55,0.81,0.48,0.21,0.53,0.3,0.29,0.45,0.52,0.54,0.55,0.46,0.17,0.55,0.48,0.3,0.55,0.45,0.21,0.17,0.55,0.46,0.53,0.48,0.55,0.45,0.53,0.53,0.52,0.45,0.21,0.55,0.21,0.81,0.54,0.45,0.44,0.3,0.55,0.53,0.26,0.55,0.36,0.48,0.45,0.36,0.53,0.53,0.45,0.21,0.55,0.21,0.53,0.26,0.21,0.52,0.48,0.53,0.4,0.45,0.55,0.21,0.53,0.55,0.3,0.53,0.48,0.55,0.63,0.46,0.17" style="fill:rgb(43,42,41);font-family:KfbgyvAdvTTb5929f4c;font-size:7.5px;stroke:none;">PM, Weintraub E, et al. The annual impact of seasonal influenza in the US:</text>
  </g>
  <g begin="text">
   <text y="285.731" x="71.715,77.5,80.913,84.098,86.692,90.396,92.47,93.952,97.735,101.785,103.746,107.6,109.082,111.676,115.089,118.273,120.867,124.467,126.422,130.277,133.982,136.055,139.91,143.322,147.297,149.269,152.454,156.237,160.287,162.195,165.308,169.092,171.685,173.837,176.43,177.705,179.769,183.332,186.516,189.63,192.744,194.226,198.009,201.422,202.697,204.77,208.183,211.596,215.009,218.422,219.604,223.017,226.43,227.613,231.026,234.438,237.851" svgx:width="0.81,0.48,0.45,0.36,0.52,0.29,0.21,0.53,0.54,0.55,0.54,0.21,0.36,0.48,0.45,0.36,0.48,0.55,0.54,0.52,0.29,0.54,0.48,0.53,0.55,0.45,0.53,0.54,0.55,0.44,0.53,0.36,0.3,0.36,0.17,0.55,0.5,0.45,0.44,0.44,0.21,0.53,0.48,0.17,0.55,0.48,0.48,0.48,0.48,0.17,0.48,0.48,0.17,0.48,0.48,0.48,0.48" style="fill:rgb(43,42,41);font-family:KfbgyvAdvTTb5929f4c;font-size:7.5px;stroke:none;">measuring disease burden and costs. Vaccine. 2007;25:5086</text>
  </g>
  <g begin="text">
   <text y="285.731" x="241.284" svgx:width="0.5" style="fill:rgb(43,42,41);font-family:JngjbyAdvTTb5929f4c;font-size:7.5px;stroke:none;">–</text>
  </g>
  <g begin="text">
   <text y="285.731" x="244.856,248.269,251.681" svgx:width="0.48,0.48,0.17" style="fill:rgb(43,42,41);font-family:KfbgyvAdvTTb5929f4c;font-size:7.5px;stroke:none;">96.</text>
  </g>
  <g begin="text">
   <text y="294.745" x="56.691,60.104,63.517,64.792,71.715,76.311,78.384,82.089,87.874,93.66,97.443,101.226,105.276,107.204,112.69,113.965,116.048,119.311,122.425,126.13,127.612,131.467,135.25,138.663,140.83800000000002,142.864,148.35,150.794,152.06900000000002,154.145,157.408,161.192,163.265,165.338,168.523,172.307,175.42,179.01999999999998,180.96,185.335,191.121,192.39600000000002,194.453" svgx:width="0.48,0.48,0.17,0.55,0.64,0.29,0.52,0.81,0.81,0.53,0.53,0.54,0.55,0.77,0.17,0.55,0.46,0.44,0.52,0.21,0.54,0.53,0.48,0.29,0.55,0.77,0.34,0.17,0.55,0.46,0.53,0.29,0.29,0.45,0.53,0.44,0.48,0.55,0.61,0.81,0.17,0.55,0.67" style="fill:rgb(43,42,41);font-family:KfbgyvAdvTTb5929f4c;font-size:7.5px;stroke:none;">40. Drummond M, Sculpher MJ, Torrance GW, O</text>
  </g>
  <g begin="text">
   <text y="294.745" x="199.218" svgx:width="0.17" style="fill:rgb(43,42,41);font-family:JngjbyAdvTTb5929f4c;font-size:7.5px;stroke:none;">’</text>
  </g>
  <g begin="text">
   <text y="294.745" x="200.409,203.971,206.044,207.526,210.939,214.914,216.849,220.412,222.856,224.131,226.204,229.467,231.618,235.402,239.256,243.111,246.296,248.369,250.619,252.678,257.053,260.238,261.513,263.563,269.049,272.462,274.614,278.397,282.18,286.035" svgx:width="0.5,0.29,0.21,0.48,0.53,0.55,0.5,0.34,0.17,0.55,0.46,0.3,0.53,0.54,0.54,0.45,0.29,0.3,0.55,0.61,0.45,0.17,0.55,0.77,0.48,0.3,0.53,0.53,0.54,0.36" style="fill:rgb(43,42,41);font-family:KfbgyvAdvTTb5929f4c;font-size:7.5px;stroke:none;">Brien BJ, Stoddart GL. Methods</text>
  </g>
  <g begin="text">
   <text y="303.759" x="71.715,73.567,77.351,79.526,81.522,83.674,87.457,91.05699999999999,93.031,96.444,99.558,103.341,107.124,110.908,116.693,118.175,121.475,123.418,126.831,130.016,133.201,134.683,138.388,141.573,143.724,145.206,148.99,152.965,154.939,158.722,160.672,162.706,166.489,169.902,173.087,174.569,176.72,180.695,182.661,185.775,188.96,191.033,194.63299999999998,196.607,200.462,202.535,206.319,210.173,212.247,215.431,221.217,227.002,230.415,233.009,234.284,236.348,239.761,241.834,245.88400000000001,247.857,251.27,255.124,256.399,258.402,263.147,266.189,268.042,271.825,273.898,277.753" svgx:width="0.26,0.53,0.29,0.55,0.3,0.53,0.48,0.55,0.48,0.44,0.53,0.53,0.53,0.81,0.21,0.44,0.55,0.48,0.45,0.45,0.21,0.52,0.45,0.3,0.21,0.53,0.53,0.55,0.53,0.26,0.55,0.53,0.48,0.45,0.21,0.3,0.53,0.55,0.44,0.45,0.29,0.48,0.55,0.54,0.29,0.53,0.54,0.29,0.45,0.81,0.81,0.48,0.36,0.17,0.55,0.48,0.29,0.54,0.55,0.48,0.54,0.17,0.55,0.67,0.43,0.26,0.53,0.29,0.54,0.17" style="fill:rgb(43,42,41);font-family:KfbgyvAdvTTb5929f4c;font-size:7.5px;stroke:none;">for the economic evaluation of health care programmes. 3rd ed. Oxford:</text>
  </g>
  <g begin="text">
   <text y="312.773" x="71.715,76.46,79.503,81.355,85.138,87.212,91.262,93.201,97.654,101.437,102.919,106.104,109.517,111.59,114.184,115.666,117.817,121.11699999999999,123.078,126.64,128.714,132.126,134.72,137.313,138.588,140.652,144.065,147.478,150.89,154.303" svgx:width="0.67,0.43,0.26,0.53,0.29,0.54,0.55,0.63,0.53,0.21,0.45,0.48,0.29,0.36,0.21,0.3,0.44,0.55,0.5,0.29,0.48,0.36,0.36,0.17,0.55,0.48,0.48,0.48,0.48,0.17" style="fill:rgb(43,42,41);font-family:KfbgyvAdvTTb5929f4c;font-size:7.5px;stroke:none;">Oxford University Press; 2005.</text>
  </g>
  <g begin="text">
   <text y="321.73" x="56.691,60.104,63.517,64.792,71.715,74.978,78.391,81.576,83.058,86.658,88.609,93.062,94.337,96.376,100.38,104.163,106.237,110.091,113.504,115.656,117.906,119.959,123.222,124.497,126.535,131.131,136.247,139.36,142.773,144.948,147.001,151.597,154.86,156.13500000000002,158.169,163.655,166.84,169.954,171.436,175.219,177.371,180.484,182.558,186.158,188.159,192.164,195.726,197.001,199.044,202.307,205.72,208.905,211.498,212.98,216.835,218.317,219.799,221.281,223.433,226.733,228.694,232.107,235.149,238.562,240.635,243.749,245.231,247.824,251.424,253.354,255.506,259.481,261.461,264.874,268.059,271.244,272.726,276.431,279.615,281.767" svgx:width="0.48,0.48,0.17,0.55,0.46,0.48,0.45,0.21,0.48,0.55,0.63,0.17,0.55,0.56,0.53,0.29,0.54,0.48,0.3,0.3,0.55,0.46,0.17,0.55,0.64,0.72,0.44,0.48,0.29,0.55,0.64,0.46,0.17,0.55,0.77,0.45,0.44,0.21,0.53,0.3,0.44,0.29,0.48,0.55,0.56,0.5,0.17,0.55,0.46,0.48,0.45,0.36,0.21,0.54,0.21,0.21,0.21,0.3,0.44,0.55,0.48,0.43,0.48,0.29,0.44,0.21,0.36,0.48,0.55,0.3,0.53,0.55,0.48,0.45,0.45,0.21,0.52,0.45,0.3,0.48" style="fill:rgb(43,42,41);font-family:KfbgyvAdvTTb5929f4c;font-size:7.5px;stroke:none;">41. Seale H, Corbett S, Dwyer DE, MacIntyre CR. Feasibility exercise to evaluate</text>
  </g>
  <g begin="text">
   <text y="330.744" x="71.715,73.867,77.65,81.25,83.167,86.872,89.465,93.065,95.016,98.799,100.74900000000001,102.782,106.637,109.822,111.895,114.047,115.529,118.642,122.347,123.829,127.014,129.166,132.766,134.757,136.83,140.243,142.836,146.691,148.173,150.246,153.431,155.583,159.366,161.44,164.14,166.22,170.075,173.375,175.291,178.704,184.489,187.902,189.976,193.83,197.243,201.026,204.14,207.44,209.419,213.274,216.687,220.541,223.726,225.8,227.951,233.737,237.149,240.933,243.183,245.248,247.842,249.994,253.178,255.031,256.981,259.024,262.879,266.584,268.657,270.139,273.923,277.973,279.944,282.096,285.879" svgx:width="0.3,0.53,0.48,0.55,0.52,0.36,0.48,0.55,0.53,0.26,0.55,0.54,0.45,0.29,0.3,0.21,0.44,0.52,0.21,0.45,0.3,0.48,0.55,0.29,0.48,0.36,0.54,0.21,0.29,0.45,0.3,0.53,0.29,0.36,0.55,0.54,0.44,0.55,0.48,0.81,0.48,0.29,0.54,0.48,0.53,0.44,0.44,0.55,0.54,0.48,0.54,0.45,0.29,0.3,0.81,0.48,0.53,0.3,0.55,0.36,0.3,0.45,0.26,0.26,0.55,0.54,0.52,0.29,0.21,0.53,0.54,0.55,0.3,0.53,0.48" style="fill:rgb(43,42,41);font-family:KfbgyvAdvTTb5929f4c;font-size:7.5px;stroke:none;">the use of particulate respirators by emergency department staff during the</text>
  </g>
  <g begin="text">
   <text y="339.758" x="71.715,75.128,78.541,81.953,85.553,87.475,88.957,92.741,94.593,96.075,99.78,103.193,106.976,109.79,113.165,115.141,117.734,121.147,124.332,126.925,130.708,134.492,135.767,137.817,139.299,143.082,144.935,148.348,151.461,153.711,155.788,159.792,163.576,167.359,169.511,171.584,175.367,176.94199999999998,178.975,183.428,187.211,189.805,193.85500000000002,195.812,199.075,202.93,204.412,208.267,211.679,217.465,218.947,222.73,224.212,225.487,227.559,230.972,234.385,237.798,241.211,242.393,245.806,249.219,250.402,253.815,257.227" svgx:width="0.48,0.48,0.48,0.48,0.55,0.21,0.53,0.26,0.21,0.52,0.48,0.53,0.4,0.45,0.55,0.36,0.48,0.45,0.36,0.53,0.53,0.17,0.55,0.21,0.53,0.26,0.48,0.44,0.3,0.55,0.56,0.53,0.53,0.3,0.29,0.53,0.21,0.55,0.63,0.53,0.36,0.54,0.55,0.46,0.54,0.21,0.54,0.48,0.81,0.21,0.53,0.21,0.17,0.55,0.48,0.48,0.48,0.48,0.17,0.48,0.48,0.17,0.48,0.48,0.48" style="fill:rgb(43,42,41);font-family:KfbgyvAdvTTb5929f4c;font-size:7.5px;stroke:none;">2007 influenza season. Infect Control Hosp Epidemiol. 2009;30:710</text>
  </g>
  <g begin="text">
   <text y="339.758" x="260.616" svgx:width="0.5" style="fill:rgb(43,42,41);font-family:JngjbyAdvTTb5929f4c;font-size:7.5px;stroke:none;">–</text>
  </g>
  <g begin="text">
   <text y="339.758" x="264.188,267.601" svgx:width="0.48,0.17" style="fill:rgb(43,42,41);font-family:KfbgyvAdvTTb5929f4c;font-size:7.5px;stroke:none;">2.</text>
  </g>
  <g begin="text">
   <text y="348.773" x="56.691,60.104,63.517,64.792,71.715,75.719,79.503,83.286,85.461,87.475,89.919,93.182,96.745,98.02000000000001,100.061,103.623,106.808,110.663,114.038,115.991,119.254,122.739,124.01400000000001,126.082,129.345,131.497,134.91,138.765,142.548,145.961,149.744,152.338,156.121,160.096,162.082,163.564,164.839,166.844,171.219,175.002,178.856,182.711,184.193,187.976,190.676,192.752,198.538,202.1,203.375,205.395,208.658,211.843,217.628,221.483,224.596,227.781,231.756,233.74,237.303,241.457,242.732,244.795,250.281,253.694,257.549,259.031,262.814,266.189,268.152,273.638,274.91299999999995,276.939,280.352,282.602,284.649,287.834,289.316" svgx:width="0.48,0.48,0.17,0.55,0.56,0.53,0.53,0.29,0.55,0.34,0.46,0.5,0.17,0.55,0.5,0.45,0.54,0.45,0.55,0.46,0.49,0.17,0.55,0.46,0.3,0.48,0.54,0.53,0.48,0.53,0.36,0.53,0.53,0.55,0.21,0.17,0.55,0.61,0.53,0.54,0.54,0.21,0.53,0.36,0.55,0.81,0.5,0.17,0.55,0.46,0.45,0.81,0.54,0.44,0.45,0.53,0.55,0.5,0.58,0.17,0.55,0.77,0.48,0.54,0.21,0.53,0.45,0.55,0.77,0.17,0.55,0.48,0.3,0.55,0.45,0.21,0.17" style="fill:rgb(43,42,41);font-family:KfbgyvAdvTTb5929f4c;font-size:7.5px;stroke:none;">42. Chor JSY, Pada SK, Stephenson I, Goggins WB, Tambyah PA, Medina M, et al.</text>
  </g>
  <g begin="text">
   <text y="357.73" x="71.715,76.311,77.793,79.645,81.497,84.91,86.984,90.396,94.18,97.293,100.706,103.406,105.446,106.928,110.90299999999999,112.816,114.968,118.751,122.351,124.325,127.439,131.222,137.008,140.862,142.344,143.826,147.011,150.794,153.908,157.50799999999998,159.474,164.589,166.071,168.223,172.198,174.157,177.94,181.723,184.317,188.171,189.653,191.805,194.99,196.565,198.591,200.073,203.856,205.709,209.122,212.235,214.387,215.869,219.652,223.62699999999998,225.577,228.69,232.473,236.257,238.408,240.482,244.265,245.83999999999997,247.913,251.768,253.841,257.026,260.139,262.291,263.773,266.887,270.3" svgx:width="0.64,0.21,0.26,0.26,0.48,0.29,0.48,0.53,0.44,0.48,0.36,0.55,0.21,0.53,0.55,0.3,0.53,0.48,0.55,0.44,0.53,0.81,0.54,0.21,0.21,0.45,0.53,0.44,0.48,0.55,0.72,0.21,0.3,0.53,0.55,0.53,0.53,0.36,0.54,0.21,0.3,0.45,0.21,0.55,0.21,0.53,0.26,0.48,0.44,0.3,0.21,0.53,0.53,0.55,0.44,0.53,0.53,0.3,0.29,0.53,0.21,0.55,0.54,0.29,0.45,0.44,0.3,0.21,0.44,0.48,0.36" style="fill:rgb(43,42,41);font-family:KfbgyvAdvTTb5929f4c;font-size:7.5px;stroke:none;">Differences in the compliance with hospital infection control practices</text>
  </g>
  <g begin="text">
   <text y="366.744" x="71.715,75.57,79.275,81.348,82.83,86.613,90.663,92.577,94.729,98.512,102.112,104.086,107.499,110.912,114.325,117.925,119.847,121.329,125.112,126.964,128.446,132.151,135.564,139.347,142.162,145.537,147.512,151.965,155.378,159.902,163.50199999999998,165.483,169.338,172.522,176.306,180.16,183.573,189.358,190.84,194.14000000000001,196.096,197.578,201.553,203.523,205.675,209.459,211.532,214.945,218.545,220.474,223.588,227.371,231.076,234.86,237.011,239.085,240.567,243.979,246.573,247.848,249.897,252.447,254.489,258.942,262.726,265.319,269.369,271.327,272.809,276.592,278.445,281.858,284.971,287.123" svgx:width="0.54,0.52,0.29,0.21,0.53,0.54,0.55,0.3,0.53,0.48,0.55,0.48,0.48,0.48,0.48,0.55,0.21,0.53,0.26,0.21,0.52,0.48,0.53,0.4,0.45,0.55,0.63,0.48,0.63,0.48,0.55,0.54,0.45,0.53,0.54,0.48,0.81,0.21,0.44,0.55,0.21,0.53,0.55,0.3,0.53,0.29,0.48,0.48,0.55,0.44,0.53,0.52,0.53,0.3,0.29,0.21,0.48,0.36,0.17,0.55,0.34,0.55,0.63,0.53,0.36,0.54,0.55,0.21,0.53,0.26,0.48,0.44,0.3,0.17" style="fill:rgb(43,42,41);font-family:KfbgyvAdvTTb5929f4c;font-size:7.5px;stroke:none;">during the 2009 influenza H1N1 pandemic in three countries. J Hosp Infect.</text>
  </g>
  <g begin="text">
   <text y="375.758" x="71.715,75.128,78.541,81.953,85.366,86.549,89.962,93.375,94.557,97.97" svgx:width="0.48,0.48,0.48,0.48,0.17,0.48,0.48,0.17,0.48,0.48" style="fill:rgb(43,42,41);font-family:KfbgyvAdvTTb5929f4c;font-size:7.5px;stroke:none;">2012;81:98</text>
  </g>
  <g begin="text">
   <text y="375.758" x="101.365" svgx:width="0.5" style="fill:rgb(43,42,41);font-family:JngjbyAdvTTb5929f4c;font-size:7.5px;stroke:none;">–</text>
  </g>
  <g begin="text">
   <text y="375.758" x="104.937,108.35,111.763,115.175" svgx:width="0.48,0.48,0.48,0.17" style="fill:rgb(43,42,41);font-family:KfbgyvAdvTTb5929f4c;font-size:7.5px;stroke:none;">103.</text>
  </g>
  <g begin="text">
   <text y="384.772" x="56.691,60.104,63.517,64.792,71.715,75.277,78.982,81.056,84.91,88.323,90.917,93.617,95.639,99.793,101.06800000000001,103.122,107.575,111.359,113.432,114.914,116.489,118.543,124.029,125.304,127.33,130.892,132.374,134.968,137.932,139.207,141.276,143.349,144.831,146.983,150.688,153.873,155.44799999999998,157.49,160.675,164.458,168.508,170.473,174.256,177.669,180.854,182.335,184.487,188.462,190.428,192.501,195.914,198.508,202.362,206.145,209.929,212.522,214.004,217.859,219.341,220.823,222.305,224.898,228.083,230.235,231.717,235.5,239.283,240.558,242.641,245.085,248.269,252.124,255.309" svgx:width="0.48,0.48,0.17,0.55,0.5,0.52,0.29,0.54,0.48,0.36,0.36,0.55,0.58,0.17,0.55,0.63,0.53,0.29,0.21,0.21,0.55,0.77,0.17,0.55,0.5,0.21,0.36,0.42,0.17,0.55,0.29,0.21,0.3,0.52,0.45,0.21,0.55,0.45,0.53,0.54,0.55,0.53,0.48,0.45,0.21,0.3,0.53,0.55,0.29,0.48,0.36,0.54,0.53,0.53,0.36,0.21,0.54,0.21,0.21,0.21,0.36,0.45,0.3,0.21,0.53,0.53,0.17,0.55,0.34,0.45,0.54,0.45,0.53" style="fill:rgb(43,42,41);font-family:KfbgyvAdvTTb5929f4c;font-size:7.5px;stroke:none;">43. Burgess A, Horii M. Risk, ritual and health responsibilisation: Japan</text>
  </g>
  <g begin="text">
   <text y="384.772" x="259.086" svgx:width="0.17" style="fill:rgb(43,42,41);font-family:JngjbyAdvTTb5929f4c;font-size:7.5px;stroke:none;">’</text>
  </g>
  <g begin="text">
   <text y="384.772" x="260.276" svgx:width="0.36" style="fill:rgb(43,42,41);font-family:KfbgyvAdvTTb5929f4c;font-size:7.5px;stroke:none;">s</text>
  </g>
  <g begin="text">
   <text y="384.772" x="265.038" svgx:width="0.17" style="fill:rgb(43,42,41);font-family:JngjbyAdvTTb5929f4c;font-size:7.5px;stroke:none;">‘</text>
  </g>
  <g begin="text">
   <text y="384.772" x="266.229,268.823,272.007,273.86,277.273,279.424" svgx:width="0.36,0.45,0.26,0.48,0.3,0.44" style="fill:rgb(43,42,41);font-family:KfbgyvAdvTTb5929f4c;font-size:7.5px;stroke:none;">safety</text>
  </g>
  <g begin="text">
   <text y="393.729" x="71.715,75.57,77.052,80.236,84.02,86.984,90.397" svgx:width="0.54,0.21,0.45,0.53,0.42,0.48,0.3" style="fill:rgb(43,42,41);font-family:KfbgyvAdvTTb5929f4c;font-size:7.5px;stroke:none;">blanket</text>
  </g>
  <g begin="text">
   <text y="393.729" x="92.521" svgx:width="0.17" style="fill:rgb(43,42,41);font-family:JngjbyAdvTTb5929f4c;font-size:7.5px;stroke:none;">’</text>
  </g>
  <g begin="text">
   <text y="393.729" x="95.866,99.65,101.60000000000001,103.633,106.227,109.932,112.005,115.859,117.341,120.455,123.64,125.215,127.274,129.126,132.311,135.424,139.024,140.993,146.779,149.964,152.557,155.521,157.594,162.71,166.123,169.308,171.381,172.863,176.646,180.501,181.776,183.852,187.115,190.898,194.012,195.494,199.277,200.85199999999998,202.9,207.353,210.766,213.951,215.433,217.585,221.56,223.536,225.018,226.5,227.982,231.765,233.04,235.101,238.514,241.927,245.34,248.752,249.935,253.348,256.761,257.944,261.356,264.769,268.182" svgx:width="0.53,0.26,0.55,0.36,0.52,0.29,0.54,0.21,0.44,0.45,0.21,0.55,0.26,0.45,0.44,0.48,0.55,0.81,0.45,0.36,0.42,0.29,0.72,0.48,0.45,0.29,0.21,0.53,0.54,0.17,0.55,0.46,0.53,0.44,0.21,0.53,0.21,0.55,0.63,0.48,0.45,0.21,0.3,0.53,0.55,0.21,0.21,0.21,0.53,0.17,0.55,0.48,0.48,0.48,0.48,0.17,0.48,0.48,0.17,0.48,0.48,0.48,0.48" style="fill:rgb(43,42,41);font-family:KfbgyvAdvTTb5929f4c;font-size:7.5px;stroke:none;">of surgical face mask-wearing. Sociol Health Illn. 2012;34:1184</text>
  </g>
  <g begin="text">
   <text y="393.729" x="271.615" svgx:width="0.5" style="fill:rgb(43,42,41);font-family:JngjbyAdvTTb5929f4c;font-size:7.5px;stroke:none;">–</text>
  </g>
  <g begin="text">
   <text y="393.729" x="275.129,278.542,281.955" svgx:width="0.48,0.48,0.17" style="fill:rgb(43,42,41);font-family:KfbgyvAdvTTb5929f4c;font-size:7.5px;stroke:none;">98.</text>
  </g>
  <g begin="text">
   <text y="402.743" x="56.691,60.104,63.517,64.792,71.715,74.978,78.163,81.946,85.996,87.929,91.933,95.197,98.681,99.956,101.989,107.774,111.557,115.341,119.39099999999999,121.377,125.381,128.944,130.219,132.262,135.525,138.71,141.823,143.975,147.758,149.832,152.53199999999998,154.541,156.023,159.807,161.659,163.141,166.846,170.259,174.042,177.156,178.638,182.421,186.471,188.443,190.595,194.378,197.97799999999998,199.952,205.068,208.48,211.665,213.739,215.22,219.004,223.054,225.009,228.793,230.743,232.776,234.629,237.814,240.927,244.34,250.125,253.31,255.904,258.868,261.568,263.616,265.768" svgx:width="0.48,0.48,0.17,0.55,0.46,0.45,0.53,0.54,0.55,0.56,0.46,0.49,0.17,0.55,0.81,0.53,0.53,0.54,0.55,0.56,0.5,0.17,0.55,0.46,0.45,0.44,0.3,0.53,0.29,0.36,0.55,0.21,0.53,0.26,0.21,0.52,0.48,0.53,0.44,0.21,0.53,0.54,0.55,0.3,0.53,0.48,0.55,0.72,0.48,0.45,0.29,0.21,0.53,0.54,0.55,0.53,0.26,0.55,0.26,0.45,0.44,0.48,0.81,0.45,0.36,0.42,0.36,0.55,0.3,0.53" style="fill:rgb(43,42,41);font-family:KfbgyvAdvTTb5929f4c;font-size:7.5px;stroke:none;">44. Tang CSK, Wong CY. Factors influencing the wearing of facemasks to</text>
  </g>
  <g begin="text">
   <text y="411.758" x="71.715,75.57,77.643,81.056,84.241,87.653,91.437,93.687,95.695,97.847,101.63,105.22999999999999,107.204,109.798,113.21,116.395,119.808,121.881,125.481,127.443,130.628,133.742,137.447,139.598,143.198,145.131,147.204,150.617,153.21,157.065,158.547,160.62,163.805,165.957,169.74,171.813,175.113,177.105,179.699,182.812,186.596,190.45,192.523,196.307,202.092,205.692,207.662,210.847,216.632,220.415,224.199,228.24900000000002,230.225,233.41,237.264,240.969,242.451,244.701,246.722,250.726,254.509,255.991,259.775,263.187,265.781,269.38100000000003,271.326,272.808" svgx:width="0.54,0.29,0.48,0.45,0.48,0.53,0.3,0.55,0.3,0.53,0.48,0.55,0.36,0.48,0.45,0.48,0.29,0.48,0.55,0.45,0.44,0.52,0.3,0.48,0.55,0.29,0.48,0.36,0.54,0.21,0.29,0.45,0.3,0.53,0.29,0.44,0.55,0.36,0.44,0.53,0.54,0.29,0.53,0.81,0.48,0.55,0.45,0.81,0.53,0.53,0.54,0.55,0.45,0.54,0.52,0.21,0.3,0.55,0.56,0.53,0.21,0.53,0.48,0.36,0.48,0.55,0.21,0.53" style="fill:rgb(43,42,41);font-family:KfbgyvAdvTTb5929f4c;font-size:7.5px;stroke:none;">prevent the severe acute respiratory syndrome among adult Chinese in</text>
  </g>
  <g begin="text">
   <text y="420.772" x="71.715,76.168,79.951,83.735,87.785,89.686,93.17,96.954,100.737,104.591,105.866,107.941,111.503,113.577,116.989,120.364,122.34,127.826,131.239,135.094,136.369,138.384,141.797,145.21,148.623,152.035,153.218,156.631,160.044,161.227,164.639,168.052,171.465" svgx:width="0.63,0.53,0.53,0.54,0.55,0.49,0.53,0.53,0.54,0.17,0.55,0.5,0.29,0.48,0.45,0.55,0.77,0.48,0.54,0.17,0.55,0.48,0.48,0.48,0.48,0.17,0.48,0.48,0.17,0.48,0.48,0.48,0.48" style="fill:rgb(43,42,41);font-family:KfbgyvAdvTTb5929f4c;font-size:7.5px;stroke:none;">Hong Kong. Prev Med. 2004;39:1187</text>
  </g>
  <g begin="text">
   <text y="420.772" x="174.896" svgx:width="0.5" style="fill:rgb(43,42,41);font-family:JngjbyAdvTTb5929f4c;font-size:7.5px;stroke:none;">–</text>
  </g>
  <g begin="text">
   <text y="420.772" x="178.468,181.881,185.294" svgx:width="0.48,0.48,0.17" style="fill:rgb(43,42,41);font-family:KfbgyvAdvTTb5929f4c;font-size:7.5px;stroke:none;">93.</text>
  </g>
  <g begin="text">
   <text y="429.729" x="56.691,60.104,63.517,64.792,71.715,74.978,78.391,80.464,84.248,88.298,90.196,93.759,98.212,99.48700000000001,101.535,107.32,111.104,114.887,118.742,120.815,126.301,129.415,132.599,136.383,140.088,143.942,147.726,149.208,150.69,154.665,156.639,159.083,160.358,162.421,165.984,169.169,171.242,173.315,176.728,178.88,181.13,183.171,187.324,188.59900000000002,190.654,194.658,198.363,200.436,202.51,203.992,207.59199999999998,209.589,212.774,214.049,216.108,219.293,222.478,224.551,227.145,230.928,234.903,236.857,240.121,241.39600000000002,243.434,246.996,250.181,252.254,254.328,255.81,259.223,261.296,263.996,266.054,268.206,272.18100000000004,274.104,279.89,283.075,285.668" svgx:width="0.48,0.48,0.17,0.55,0.46,0.48,0.29,0.53,0.54,0.55,0.5,0.63,0.17,0.55,0.81,0.53,0.53,0.54,0.29,0.77,0.44,0.45,0.53,0.52,0.54,0.53,0.21,0.21,0.53,0.55,0.34,0.17,0.55,0.5,0.45,0.29,0.29,0.48,0.3,0.3,0.55,0.58,0.17,0.55,0.56,0.52,0.29,0.29,0.21,0.48,0.55,0.45,0.17,0.55,0.45,0.45,0.29,0.36,0.53,0.53,0.55,0.46,0.17,0.55,0.5,0.45,0.29,0.29,0.21,0.48,0.29,0.36,0.55,0.3,0.53,0.55,0.81,0.45,0.36,0.42" style="fill:rgb(43,42,41);font-family:KfbgyvAdvTTb5929f4c;font-size:7.5px;stroke:none;">45. Ferng YH, Wong-McLoughlin J, Barrett A, Currie L, Larson E. Barriers to mask</text>
  </g>
  <g begin="text">
   <text y="438.743" x="71.715,76.831,80.244,83.428,85.502,86.984,90.767,94.817,96.773,98.625,102.408,104.583,106.58,108.062,111.845,113.698,115.18,118.885,122.298,126.081,128.895,132.08,134.153,135.635,137.117,140.081,143.68099999999998,145.697,147.179,148.661,150.143,153.926,157.339,159.933,162.526,165.939,168.63899999999998,170.698,173.883,179.669,183.452,187.235,191.28500000000003,193.205,196.91,198.984,202.838,206.023,209.998,211.97,215.753,217.235,219.829,223.683,226.868,230.652,232.134,235.434,237.425,241.208,244.991,248.696,251.29,254.702,258.486,262.269,263.751,267.606,270.199" svgx:width="0.72,0.48,0.45,0.29,0.21,0.53,0.54,0.55,0.26,0.53,0.29,0.55,0.21,0.53,0.26,0.21,0.52,0.48,0.53,0.4,0.45,0.29,0.21,0.21,0.42,0.48,0.55,0.21,0.21,0.21,0.53,0.48,0.36,0.36,0.48,0.36,0.55,0.45,0.81,0.53,0.53,0.54,0.55,0.52,0.29,0.54,0.45,0.53,0.55,0.53,0.21,0.36,0.54,0.45,0.53,0.21,0.44,0.55,0.53,0.53,0.52,0.36,0.48,0.53,0.53,0.21,0.54,0.36,0.17" style="fill:rgb(43,42,41);font-family:KfbgyvAdvTTb5929f4c;font-size:7.5px;stroke:none;">wearing for influenza-like illnesses among urban hispanic households.</text>
  </g>
  <g begin="text">
   <text y="447.757" x="71.715,75.277,78.982,82.837,84.319,85.801,89.101,91.047,95.5,98.913,102.098,103.58,105.731,109.70599999999999,111.626,116.15,119.855,121.928,124.522,125.79700000000001,127.896,131.309,134.722,138.135,141.548,142.73,146.143,149.556,150.739,154.152" svgx:width="0.5,0.52,0.54,0.21,0.21,0.44,0.55,0.63,0.48,0.45,0.21,0.3,0.53,0.55,0.63,0.52,0.29,0.36,0.17,0.55,0.48,0.48,0.48,0.48,0.17,0.48,0.48,0.17,0.48,0.48" style="fill:rgb(43,42,41);font-family:KfbgyvAdvTTb5929f4c;font-size:7.5px;stroke:none;">Public Health Nurs. 2011;28:13</text>
  </g>
  <g begin="text">
   <text y="447.757" x="157.548" svgx:width="0.5" style="fill:rgb(43,42,41);font-family:JngjbyAdvTTb5929f4c;font-size:7.5px;stroke:none;">–</text>
  </g>
  <g begin="text">
   <text y="447.757" x="161.12,164.533,167.945" svgx:width="0.48,0.48,0.17" style="fill:rgb(43,42,41);font-family:KfbgyvAdvTTb5929f4c;font-size:7.5px;stroke:none;">23.</text>
  </g>
  <g begin="text">
   <text y="456.771" x="56.691,60.104,63.516,64.791,71.714,74.899,78.084,81.98400000000001,83.903,86.347,89.61,92.873,94.14800000000001,96.205,100.579,102.653,104.135,105.987,107.84,109.322,111.473,115.257,117.95700000000001,120.015,123.279,124.554,126.592,130.746,134.64600000000002,136.626,141.222,147.007,151.46,152.735,154.768,158.772,162.555,166.339,167.914,169.961,173.445,177.449,178.72400000000002,180.789,184.794,188.577,191.762,195.545,199.4,202.813,205.51299999999998,207.548,209.03,213.005,214.975,217.939,221.722,225.505,230.621,232.103,235.516,239.37,243.225,246.638,247.913,249.954,253.808,257.221,259.294,262.408,265.821,269.675,271.827,273.309,277.092,280.876,283.469" svgx:width="0.48,0.48,0.17,0.55,0.45,0.45,0.52,0.55,0.34,0.46,0.46,0.17,0.55,0.61,0.29,0.21,0.26,0.26,0.21,0.3,0.53,0.36,0.55,0.46,0.17,0.55,0.58,0.52,0.55,0.64,0.81,0.63,0.17,0.55,0.56,0.53,0.53,0.21,0.55,0.49,0.56,0.17,0.55,0.56,0.53,0.45,0.53,0.54,0.48,0.36,0.55,0.21,0.53,0.55,0.42,0.53,0.53,0.72,0.21,0.48,0.54,0.54,0.48,0.17,0.55,0.54,0.48,0.29,0.44,0.48,0.54,0.3,0.21,0.53,0.53,0.36,0.17" style="fill:rgb(43,42,41);font-family:KfbgyvAdvTTb5929f4c;font-size:7.5px;stroke:none;">46. Lau JTF, Griffiths S, Au DWH, Choi KC. Changes in knowledge, perceptions,</text>
  </g>
  <g begin="text">
   <text y="465.728" x="71.714,75.569,77.642,81.055,84.24,87.653,91.436,93.588,95.07,98.255,101.85499999999999,103.802,107.657,111.069,114.853,118.038,121.222,122.704,126.488,130.193,132.266,134.96599999999998,137.023,140.208,143.991,148.04100000000003,150.006,153.86,156.454,159.567,162.681,166.464,170.247,171.729,175.513,179.367,180.849,183.963,187.148,188.72299999999998,190.766,192.84,196.253,198.846,202.701,206.484,210.267,212.861,216.274,218.974,221.039,222.521,226.49599999999998,228.409,230.561,234.344,237.944,239.918,243.773,245.846,249.259,251.332,254.446,258.229,264.015,269.8,273.505,277.288,278.77,280.922" svgx:width="0.54,0.29,0.48,0.45,0.48,0.53,0.3,0.21,0.45,0.48,0.55,0.54,0.48,0.53,0.45,0.45,0.21,0.53,0.52,0.29,0.36,0.55,0.45,0.53,0.54,0.55,0.54,0.36,0.44,0.44,0.53,0.53,0.21,0.53,0.54,0.21,0.44,0.45,0.21,0.55,0.29,0.48,0.36,0.54,0.53,0.53,0.36,0.48,0.36,0.55,0.21,0.53,0.55,0.3,0.53,0.48,0.55,0.54,0.29,0.48,0.29,0.44,0.53,0.81,0.81,0.52,0.53,0.21,0.3,0.44" style="fill:rgb(43,42,41);font-family:KfbgyvAdvTTb5929f4c;font-size:7.5px;stroke:none;">preventive behaviours and psychological responses in the pre-community</text>
  </g>
  <g begin="text">
   <text y="474.742" x="71.714,75.498,79.203,81.354,85.209,87.282,90.695,93.88,97.03,98.983,102.837,106.621,109.805,112.399,115.999,117.975,121.758,123.708,125.742,127.893,131.677,135.277,137.194,141.647,145.059,149.584,153.184,155.165,158.578,162.432,163.914,167.769,171.181,176.967,178.449,181.562,182.83700000000002,184.871,188.134,191.989,193.471,197.326,200.738,206.524,208.006,211.789,213.36399999999998,215.428,216.91,220.693,222.546,225.958,229.072,231.224,232.499,234.59,238.002,241.415,244.828,248.241,249.424,252.836,256.249,259.662,260.845,264.258" svgx:width="0.53,0.52,0.3,0.54,0.29,0.48,0.45,0.42,0.55,0.54,0.53,0.45,0.36,0.48,0.55,0.53,0.26,0.55,0.3,0.53,0.48,0.55,0.63,0.48,0.63,0.48,0.55,0.48,0.54,0.21,0.54,0.48,0.81,0.21,0.44,0.17,0.55,0.46,0.54,0.21,0.54,0.48,0.81,0.21,0.53,0.21,0.55,0.21,0.53,0.26,0.48,0.44,0.3,0.17,0.55,0.48,0.48,0.48,0.48,0.17,0.48,0.48,0.48,0.17,0.48,0.48" style="fill:rgb(43,42,41);font-family:KfbgyvAdvTTb5929f4c;font-size:7.5px;stroke:none;">outbreak phase of the H1N1 epidemic. Epidemiol Infect. 2011;139:80</text>
  </g>
  <g begin="text">
   <text y="474.742" x="267.645" svgx:width="0.5" style="fill:rgb(43,42,41);font-family:JngjbyAdvTTb5929f4c;font-size:7.5px;stroke:none;">–</text>
  </g>
  <g begin="text">
   <text y="474.742" x="271.217,274.63,278.043" svgx:width="0.48,0.48,0.17" style="fill:rgb(43,42,41);font-family:KfbgyvAdvTTb5929f4c;font-size:7.5px;stroke:none;">90.</text>
  </g>
  <g begin="text">
   <text y="483.757" x="56.691,60.104,63.516,64.791,71.714,74.899,78.084,81.98400000000001,83.903,86.347,89.61,92.873,94.14800000000001,96.205,100.579,102.653,104.135,105.987,107.84,109.322,111.473,115.257,117.95700000000001,120.015,123.279,124.554,126.592,130.596,134.379,138.163,139.738,141.785,145.269,146.544,148.588,151.773,153.255,157.23,159.189,163.193,164.46800000000002,166.559,170.121,172.195,175.607,178.792,181.977,183.459,186.872,190.655,193.769,197.369,199.327,203.11,205.06,207.094,210.948,213.022,216.435,219.619,223.032,226.816,228.967,230.449,233.634,237.23399999999998,239.182,243.036,246.449,250.232,253.417,256.602,258.084,261.867,263.941,266.64099999999996,268.718,271.903,275.686" svgx:width="0.48,0.48,0.17,0.55,0.45,0.45,0.52,0.55,0.34,0.46,0.46,0.17,0.55,0.61,0.29,0.21,0.26,0.26,0.21,0.3,0.53,0.36,0.55,0.46,0.17,0.55,0.56,0.53,0.53,0.21,0.55,0.49,0.17,0.55,0.45,0.21,0.53,0.55,0.56,0.17,0.55,0.5,0.29,0.48,0.45,0.45,0.21,0.48,0.53,0.44,0.48,0.55,0.53,0.26,0.55,0.54,0.29,0.48,0.45,0.48,0.53,0.3,0.21,0.45,0.48,0.55,0.54,0.48,0.53,0.45,0.45,0.21,0.53,0.29,0.36,0.55,0.45,0.53,0.54" style="fill:rgb(43,42,41);font-family:KfbgyvAdvTTb5929f4c;font-size:7.5px;stroke:none;">47. Lau JTF, Griffiths S, Choi K, Lin C. Prevalence of preventive behaviors and</text>
  </g>
  <g begin="text">
   <text y="492.771" x="71.714,74.899,77.493,80.086,83.869,86.983,88.465,91.65,93.801,97.214,101.264,103.178,105.03,108.215,111.329,113.48,117.264,119.337,122.037,124.097,127.952,131.657,133.73,135.212,138.995,143.04500000000002,145.017,148.43,151.614,153.688,155.17,158.47,160.437,164.292,168.075,171.26,173.853,177.453,179.429,183.213,185.16299999999998,187.196,189.348,193.131,196.731,198.648,203.101,206.514,211.038,214.638,216.619,218.101,221.884,223.737,225.219,228.924,232.337,236.12,238.934,242.309,244.284,247.697,251.552,253.034,256.888,260.301,266.087,267.569,270.682,271.957,273.991,278.145,284.21999999999997,286.066" svgx:width="0.45,0.36,0.36,0.53,0.44,0.21,0.45,0.3,0.48,0.54,0.55,0.26,0.45,0.44,0.3,0.53,0.29,0.36,0.55,0.54,0.52,0.29,0.21,0.53,0.54,0.55,0.48,0.45,0.29,0.21,0.44,0.55,0.54,0.53,0.45,0.36,0.48,0.55,0.53,0.26,0.55,0.3,0.53,0.48,0.55,0.63,0.48,0.63,0.48,0.55,0.21,0.53,0.26,0.21,0.52,0.48,0.53,0.4,0.45,0.55,0.48,0.54,0.21,0.54,0.48,0.81,0.21,0.44,0.17,0.55,0.58,0.81,0.55,0.34" style="fill:rgb(43,42,41);font-family:KfbgyvAdvTTb5929f4c;font-size:7.5px;stroke:none;">associated factors during early phase of the H1N1 influenza epidemic. Am J</text>
  </g>
  <g begin="text">
   <text y="501.728" x="71.714,73.196,76.98,78.832,82.245,85.358,87.608,89.629,93.633,97.417,101.2,103.352,105.425,109.208,110.69,111.965,114.006,117.419,120.832,124.245,127.658,128.84,132.253,135.666,136.849,140.262,143.674" svgx:width="0.21,0.53,0.26,0.48,0.44,0.3,0.55,0.56,0.53,0.53,0.3,0.29,0.53,0.21,0.17,0.55,0.48,0.48,0.48,0.48,0.17,0.48,0.48,0.17,0.48,0.48,0.48" style="fill:rgb(43,42,41);font-family:KfbgyvAdvTTb5929f4c;font-size:7.5px;stroke:none;">Infect Control. 2010;38:374</text>
  </g>
  <g begin="text">
   <text y="501.728" x="147.116" svgx:width="0.5" style="fill:rgb(43,42,41);font-family:JngjbyAdvTTb5929f4c;font-size:7.5px;stroke:none;">–</text>
  </g>
  <g begin="text">
   <text y="501.728" x="150.687,154.1,157.513" svgx:width="0.48,0.48,0.17" style="fill:rgb(43,42,41);font-family:KfbgyvAdvTTb5929f4c;font-size:7.5px;stroke:none;">80.</text>
  </g>
  <g begin="text">
   <text y="510.742" x="56.69,60.103,63.516,64.791,71.714,75.718,79.501,80.983,84.358,86.283,89.547,92.81,94.08500000000001,96.148,99.632,103.415,107.39,109.357,113.953,115.22800000000001,117.237,120.501,124.284,128.067,131.48,134.17999999999998,136.229,140.233,141.508,143.542,148.287,149.769,152.954,156.929,158.905,162.168,163.443,165.482,170.006,174.056,176.026,179.589,180.864,182.886,186.149,189.334,193.309,195.302,198.865,203.318,204.59300000000002,206.641,210.054,212.304,214.294,217.479,218.961,220.23600000000002,222.345,226.499,230.353,234.208,236.281,240.064,243.919,245.992,247.474,250.659,252.811,256.411,258.344,262.049,264.642,268.242,270.193,273.976" svgx:width="0.48,0.48,0.17,0.55,0.56,0.53,0.21,0.45,0.55,0.46,0.46,0.17,0.55,0.49,0.53,0.53,0.55,0.64,0.17,0.55,0.46,0.53,0.53,0.48,0.36,0.55,0.56,0.17,0.55,0.67,0.21,0.45,0.53,0.55,0.46,0.17,0.55,0.63,0.54,0.55,0.5,0.17,0.55,0.46,0.45,0.53,0.55,0.5,0.63,0.17,0.55,0.48,0.3,0.55,0.45,0.21,0.17,0.55,0.58,0.54,0.54,0.29,0.53,0.54,0.29,0.21,0.45,0.3,0.48,0.55,0.52,0.36,0.48,0.55,0.53,0.26" style="fill:rgb(43,42,41);font-family:KfbgyvAdvTTb5929f4c;font-size:7.5px;stroke:none;">48. Chia SE, Koh D, Fones C, Qian F, Ng V, Tan BH, et al. Appropriate use of</text>
  </g>
  <g begin="text">
   <text y="519.756" x="71.714,75.568,78.981,81.054,83.648,87.431,91.214,94.399,95.974,98.019,101.873,103.947,107.73,109.882,113.295,116.408,118.56,120.042,123.227,126.827,128.803,132.215,136.07,139.775,141.257,145.111,150.897,154.31,158.093,160.343,162.364,165.549,171.334,175.117,178.901,182.95100000000002,184.927,188.71,192.123,195.308,196.79,198.941,202.725,205.838,209.023,211.097,214.697,216.674,221.79,225.573,227.646,230.61,234.023,236.096,238.796,240.825,242.307,246.28199999999998,248.252,252.106,255.811,259.666,261.148,262.63,265.93,267.867,270.461,273.873,276.987,279.139,282.922" svgx:width="0.54,0.48,0.29,0.36,0.53,0.53,0.45,0.21,0.55,0.54,0.29,0.53,0.3,0.48,0.44,0.3,0.21,0.45,0.48,0.55,0.48,0.54,0.52,0.21,0.54,0.81,0.48,0.53,0.3,0.55,0.45,0.81,0.53,0.53,0.54,0.55,0.53,0.48,0.45,0.21,0.3,0.53,0.44,0.45,0.29,0.48,0.55,0.72,0.53,0.29,0.42,0.48,0.29,0.36,0.55,0.21,0.53,0.55,0.54,0.52,0.54,0.21,0.21,0.44,0.55,0.36,0.48,0.44,0.3,0.53,0.29" style="fill:rgb(43,42,41);font-family:KfbgyvAdvTTb5929f4c;font-size:7.5px;stroke:none;">personal protective equipment among healthcare workers in public sector</text>
  </g>
  <g begin="text">
   <text y="528.77" x="71.714,75.497,79.28,81.874,85.728,87.21,89.362,92.547,94.029,96.729,98.755,101.94,105.724,109.774,111.738,115.592,117.666,119.148,124.933,128.118,130.191,133.491,135.435,139.218,142.631,145.816,147.298,149.45,153.233,156.347,159.532,161.605,165.20499999999998,167.182,171.037,174.82,176.302,179.416,182.529,184.011,185.493,189.277,190.759,193.872,196.572,198.646,202.5,206.205,208.279,209.761,213.544,217.59400000000002,219.508,221.66,225.443,229.043,231.017,234.28,238.434,241.997,245.447,247.401,251.184,254.889,257.041,260.895,262.969,266.382,269.566,272.71599999999995,274.669,276.151" svgx:width="0.53,0.53,0.36,0.54,0.21,0.3,0.45,0.21,0.36,0.55,0.45,0.53,0.54,0.55,0.54,0.29,0.21,0.81,0.45,0.29,0.44,0.55,0.53,0.48,0.45,0.21,0.3,0.53,0.44,0.45,0.29,0.48,0.55,0.54,0.53,0.21,0.44,0.44,0.21,0.21,0.53,0.21,0.44,0.36,0.55,0.54,0.52,0.29,0.21,0.53,0.54,0.55,0.3,0.53,0.48,0.55,0.46,0.58,0.5,0.46,0.55,0.53,0.52,0.3,0.54,0.29,0.48,0.45,0.42,0.55,0.21,0.53" style="fill:rgb(43,42,41);font-family:KfbgyvAdvTTb5929f4c;font-size:7.5px;stroke:none;">hospitals and primary healthcare polyclinics during the SARS outbreak in</text>
  </g>
  <g begin="text">
   <text y="537.727" x="71.714,74.977,76.459,80.242,84.097,87.282,91.136,94.919,96.993,100.406,101.68100000000001,103.744,108.489,111.603,114.717,118.422,122.472,124.38,127.643,131.427,134.611,136.093,138.167,141.95,145.92499999999998,147.907,153.393,156.806,160.661,161.936,164.007,167.42,170.833,174.246,177.659,178.841,182.254,185.667,186.85,190.263,193.676" svgx:width="0.46,0.21,0.53,0.54,0.45,0.54,0.53,0.29,0.48,0.17,0.55,0.67,0.44,0.44,0.52,0.54,0.55,0.46,0.53,0.45,0.21,0.29,0.53,0.53,0.55,0.77,0.48,0.54,0.17,0.55,0.48,0.48,0.48,0.48,0.17,0.48,0.48,0.17,0.48,0.48,0.48" style="fill:rgb(43,42,41);font-family:KfbgyvAdvTTb5929f4c;font-size:7.5px;stroke:none;">Singapore. Occup Environ Med. 2005;62:473</text>
  </g>
  <g begin="text">
   <text y="537.727" x="197.062" svgx:width="0.5" style="fill:rgb(43,42,41);font-family:JngjbyAdvTTb5929f4c;font-size:7.5px;stroke:none;">–</text>
  </g>
  <g begin="text">
   <text y="537.727" x="200.634,204.046" svgx:width="0.48,0.17" style="fill:rgb(43,42,41);font-family:KfbgyvAdvTTb5929f4c;font-size:7.5px;stroke:none;">7.</text>
  </g>
  <g begin="text">
   <text y="546.741" x="56.69,60.103,63.516,64.791,71.714,74.157,77.57,79.423,81.275,84.688,86.761,89.355,93.138,97.113,99.039,102.302,103.57700000000001,105.615,110.211,113.624,115.199,117.294,122.78,125.965,128.14000000000001,130.163,134.167,135.442,137.476,142.071,145.855,149.638,151.12,154.533,157.833,159.812,162.997,164.27200000000002,166.332,169.595,173.008,175.081,177.154,180.938,184.721,186.296,188.328,191.591,192.866,194.962,199.115,200.597,202.671,205.856,209.639,212.232,215.417,217.491,220.79100000000003,222.741,225.926,230.08,231.35500000000002,233.399,236.961,240.146,245.262,248.447,251.261,254.674,258.087,260.262,262.312,266.687,270.84,272.11499999999995,274.161,277.573,279.823,281.87,285.055,286.537" svgx:width="0.48,0.48,0.17,0.55,0.34,0.48,0.26,0.26,0.48,0.29,0.36,0.53,0.53,0.55,0.46,0.17,0.55,0.64,0.48,0.21,0.55,0.77,0.45,0.29,0.55,0.56,0.17,0.55,0.64,0.53,0.53,0.21,0.48,0.44,0.55,0.45,0.17,0.55,0.46,0.48,0.29,0.29,0.53,0.53,0.21,0.55,0.46,0.17,0.55,0.58,0.21,0.29,0.45,0.53,0.36,0.45,0.29,0.44,0.55,0.45,0.58,0.17,0.55,0.5,0.45,0.72,0.45,0.4,0.48,0.48,0.29,0.55,0.61,0.58,0.17,0.55,0.48,0.3,0.55,0.45,0.21,0.17" style="fill:rgb(43,42,41);font-family:KfbgyvAdvTTb5929f4c;font-size:7.5px;stroke:none;">49. Jefferson T, Del Mar C, Dooley L, Ferroni E, Al-ansary LA, Bawazeer GA, et al.</text>
  </g>
  <g begin="text">
   <text y="555.756" x="71.714,75.276,79.059,82.173,84.766,86.248,89.362,92.547,94.122,96.148,97.63,101.413,103.565,106.978,109.051,112.236,115.649,119.432,121.584,123.066,126.849,130.632,133.332,135.378,137.53,141.505,143.485,144.967,148.75,150.902,154.315,156.388,158.461,162.166,166.021,168.271,170.3,174.083,176.258,178.294,180.367,183.78,187.634,191.339,194.453,198.053,200.007,202.158,205.942,209.542,211.516,214.109,217.964,220.037,223.45,226.635,230.685,232.662,236.445,238.39499999999998,240.428,242.502,245.915,248.508,252.363,253.845,255.918,259.103,261.255,265.038,267.111" svgx:width="0.5,0.53,0.44,0.36,0.21,0.44,0.45,0.21,0.55,0.21,0.53,0.3,0.48,0.29,0.45,0.48,0.53,0.3,0.21,0.53,0.53,0.36,0.55,0.3,0.53,0.55,0.21,0.53,0.3,0.48,0.29,0.29,0.52,0.54,0.3,0.55,0.53,0.29,0.55,0.29,0.48,0.54,0.52,0.44,0.48,0.55,0.3,0.53,0.48,0.55,0.36,0.54,0.29,0.48,0.45,0.54,0.55,0.53,0.26,0.55,0.29,0.48,0.36,0.54,0.21,0.29,0.45,0.3,0.53,0.29,0.44" style="fill:rgb(43,42,41);font-family:KfbgyvAdvTTb5929f4c;font-size:7.5px;stroke:none;">Physical interventions to interrupt or reduce the spread of respiratory</text>
  </g>
  <g begin="text">
   <text y="564.77" x="71.714,74.898,76.38,78.454,82.159,84.752,88.165,90.758,92.033,94.106,96.7,99.813,102.407,104.559,107.971,113.757,116.942,119.093,120.575,123.875,125.797,127.871,131.283,134.468,135.95,139.363,144.479,145.75400000000002,147.85,151.413,156.899,159.343,160.618,162.647,166.059,169.472,172.885,176.298,177.481,180.893,184.306,187.719,188.902,192.756,196.169,199.582,202.995,206.408" svgx:width="0.45,0.21,0.29,0.52,0.36,0.48,0.36,0.17,0.55,0.36,0.44,0.36,0.3,0.48,0.81,0.45,0.3,0.21,0.44,0.55,0.29,0.48,0.45,0.21,0.48,0.72,0.17,0.55,0.5,0.77,0.34,0.17,0.55,0.48,0.48,0.48,0.48,0.17,0.48,0.48,0.48,0.17,0.54,0.48,0.48,0.48,0.48,0.17" style="fill:rgb(43,42,41);font-family:KfbgyvAdvTTb5929f4c;font-size:7.5px;stroke:none;">viruses: systematic review. BMJ. 2009;339:b3675.</text>
  </g>
  <g begin="text">
   <text y="573.727" x="56.69,60.103,63.516,64.791,71.714,74.157,77.57,79.423,81.275,84.688,86.761,89.355,93.138,97.113,99.039,102.302,103.57700000000001,105.615,110.211,113.624,115.199,117.294,122.78,125.965,128.14000000000001,130.163,134.167,135.442,137.476,142.071,145.855,149.638,151.12,154.533,157.833,159.812,162.997,164.27200000000002,166.332,169.595,173.008,175.081,177.154,180.938,184.721,186.296,188.328,191.591,192.866,194.962,199.115,200.597,202.671,206.825,210.608,213.201,216.386,218.46,221.76000000000002,223.704,226.889,231.043,232.318,234.362,237.925,241.11,246.225,249.41,252.224,255.637,259.05,261.225,263.275,267.65,271.804,273.07899999999995,275.124,278.537,280.787,282.834,286.019,287.501" svgx:width="0.48,0.48,0.17,0.55,0.34,0.48,0.26,0.26,0.48,0.29,0.36,0.53,0.53,0.55,0.46,0.17,0.55,0.64,0.48,0.21,0.55,0.77,0.45,0.29,0.55,0.56,0.17,0.55,0.64,0.53,0.53,0.21,0.48,0.44,0.55,0.45,0.17,0.55,0.46,0.48,0.29,0.29,0.53,0.53,0.21,0.55,0.46,0.17,0.55,0.58,0.21,0.29,0.58,0.53,0.36,0.45,0.29,0.44,0.55,0.45,0.58,0.17,0.55,0.5,0.45,0.72,0.45,0.4,0.48,0.48,0.29,0.55,0.61,0.58,0.17,0.55,0.48,0.3,0.55,0.45,0.21,0.17" style="fill:rgb(43,42,41);font-family:KfbgyvAdvTTb5929f4c;font-size:7.5px;stroke:none;">50. Jefferson T, Del Mar C, Dooley L, Ferroni E, Al-Ansary LA, Bawazeer GA, et al.</text>
  </g>
  <g begin="text">
   <text y="582.741" x="71.714,75.276,79.059,82.173,84.766,86.248,89.362,92.547,94.122,96.148,97.63,101.413,103.565,106.978,109.051,112.236,115.649,119.432,121.584,123.066,126.849,130.632,133.332,135.378,137.53,141.505,143.485,144.967,148.75,150.902,154.315,156.388,158.461,162.166,166.021,168.271,170.3,174.083,176.258,178.294,180.367,183.78,187.634,191.339,194.453,198.053,200.007,202.158,205.942,209.542,211.516,214.109,217.964,220.037,223.45,226.635,230.685,232.662,236.445,238.39499999999998,240.428,242.502,245.915,248.508,252.363,253.845,255.918,259.103,261.255,265.038,267.111" svgx:width="0.5,0.53,0.44,0.36,0.21,0.44,0.45,0.21,0.55,0.21,0.53,0.3,0.48,0.29,0.45,0.48,0.53,0.3,0.21,0.53,0.53,0.36,0.55,0.3,0.53,0.55,0.21,0.53,0.3,0.48,0.29,0.29,0.52,0.54,0.3,0.55,0.53,0.29,0.55,0.29,0.48,0.54,0.52,0.44,0.48,0.55,0.3,0.53,0.48,0.55,0.36,0.54,0.29,0.48,0.45,0.54,0.55,0.53,0.26,0.55,0.29,0.48,0.36,0.54,0.21,0.29,0.45,0.3,0.53,0.29,0.44" style="fill:rgb(43,42,41);font-family:KfbgyvAdvTTb5929f4c;font-size:7.5px;stroke:none;">Physical interventions to interrupt or reduce the spread of respiratory</text>
  </g>
  <g begin="text">
   <text y="591.755" x="71.714,74.898,76.38,78.454,82.159,84.752,88.165,90.758,92.033,94.106,97.481,99.436,103.44,107.223,110.337,114.12,116.194,119.378,123.162,126.762,128.689,130.762,134.175,137.36,138.842,142.254,147.37,148.645,150.742,155.195,158.607,161.792,163.274,165.426,169.40099999999998,171.32,174.584,177.996,181.11,184.893,188.677,192.46,194.035,196.094,200.248,202.842,205.435,208.848,211.441,214.141,216.163,218.016,223.801,225.283,229.066,232.18,236.155,238.103,241.366,245.149,249.004,250.856" svgx:width="0.45,0.21,0.29,0.52,0.36,0.48,0.36,0.17,0.55,0.45,0.55,0.56,0.53,0.44,0.53,0.29,0.45,0.53,0.48,0.55,0.29,0.48,0.45,0.21,0.48,0.72,0.17,0.55,0.63,0.48,0.45,0.21,0.3,0.53,0.55,0.46,0.48,0.44,0.53,0.53,0.53,0.21,0.55,0.58,0.36,0.36,0.48,0.36,0.36,0.55,0.26,0.81,0.21,0.53,0.44,0.53,0.55,0.46,0.53,0.54,0.26,0.17" style="fill:rgb(43,42,41);font-family:KfbgyvAdvTTb5929f4c;font-size:7.5px;stroke:none;">viruses: a Cochrane review. Health Technol Assess (Winch Eng).</text>
  </g>
  <g begin="text">
   <text y="600.769" x="71.714,75.126,78.539,81.952,85.365,86.548,89.96,93.373,94.556,97.969,101.382" svgx:width="0.48,0.48,0.48,0.48,0.17,0.48,0.48,0.17,0.48,0.48,0.48" style="fill:rgb(43,42,41);font-family:KfbgyvAdvTTb5929f4c;font-size:7.5px;stroke:none;">2010;14:347</text>
  </g>
  <g begin="text">
   <text y="600.769" x="104.765" svgx:width="0.5" style="fill:rgb(43,42,41);font-family:JngjbyAdvTTb5929f4c;font-size:7.5px;stroke:none;">–</text>
  </g>
  <g begin="text">
   <text y="600.769" x="108.337,111.75,115.163,118.575" svgx:width="0.48,0.48,0.48,0.17" style="fill:rgb(43,42,41);font-family:KfbgyvAdvTTb5929f4c;font-size:7.5px;stroke:none;">476.</text>
  </g>
  <g begin="text">
   <text y="609.727" x="56.689,60.102,63.515,64.79,71.713,75.275,76.757,80.541,82.614,86.176,89.589,92.404,95.779,97.734,100.998,102.27300000000001,104.311,107.496,111.279,115.133,118.546,121.546,123.529,127.534,131.317,134.502,137.687,140.871,142.945,145.018,146.5,149.685,152.385,154.427,157.989,159.264,161.286,165.811,167.293,170.406,174.19,175.672,177.24699999999999,179.315,183.468,184.743,186.798,190.802,194.585,197.77,203.556,207.41,210.823,212.896,214.378,217.563,221.347,225.39700000000002,227.389,232.875,236.139,237.41400000000002,239.464,242.728,246.511,250.111,252.05,255.755,258.348,261.94800000000004,263.899,267.682,269.632,271.665,277.451,280.636,283.229,286.193" svgx:width="0.48,0.48,0.17,0.55,0.5,0.21,0.53,0.29,0.5,0.48,0.4,0.45,0.55,0.46,0.17,0.55,0.45,0.53,0.54,0.48,0.4,0.55,0.56,0.53,0.45,0.45,0.45,0.29,0.29,0.21,0.45,0.36,0.55,0.5,0.17,0.55,0.63,0.21,0.44,0.53,0.21,0.21,0.55,0.58,0.17,0.55,0.56,0.53,0.45,0.81,0.54,0.48,0.29,0.21,0.45,0.53,0.54,0.55,0.77,0.46,0.17,0.55,0.46,0.53,0.48,0.55,0.52,0.36,0.48,0.55,0.53,0.26,0.55,0.81,0.45,0.36,0.42,0.36" style="fill:rgb(43,42,41);font-family:KfbgyvAdvTTb5929f4c;font-size:7.5px;stroke:none;">51. Bin-Reza F, Lopez Chavarrias V, Nicoll A, Chamberland ME. The use of masks</text>
  </g>
  <g begin="text">
   <text y="618.741" x="71.713,74.898,78.681,82.731,84.639,86.712,90.125,92.719,96.573,98.055,100.128,103.313,105.465,109.248,111.322,114.022,116.102,118.254,122.229,124.153,128.007,130.081,133.494,136.678,140.091,143.875,146.125,148.19,150.342,152.415,155.6,159.383,161.977,167.762,169.244,171.838,174.431,175.913,179.696,183.671,185.664,189.447,191.397,193.43,194.912,198.696,200.548,202.03,205.735,209.148,212.931,215.746,218.93,220.205,222.286,225.661,227.616,230.209,233.323,235.916,238.068,241.481,247.266,250.451,252.603,254.085,257.385,259.306,261.38,264.793,267.978,269.459,272.872,278.272,280.169,283.952" svgx:width="0.45,0.53,0.54,0.55,0.29,0.48,0.36,0.54,0.21,0.29,0.45,0.3,0.53,0.29,0.36,0.55,0.3,0.53,0.55,0.54,0.29,0.48,0.45,0.48,0.53,0.3,0.55,0.3,0.29,0.45,0.53,0.36,0.81,0.21,0.36,0.36,0.21,0.53,0.53,0.55,0.53,0.26,0.55,0.21,0.53,0.26,0.21,0.52,0.48,0.53,0.4,0.45,0.17,0.55,0.45,0.55,0.36,0.44,0.36,0.3,0.48,0.81,0.45,0.3,0.21,0.44,0.55,0.29,0.48,0.45,0.21,0.48,0.72,0.55,0.53,0.26" style="fill:rgb(43,42,41);font-family:KfbgyvAdvTTb5929f4c;font-size:7.5px;stroke:none;">and respirators to prevent transmission of influenza: a systematic review of</text>
  </g>
  <g begin="text">
   <text y="627.755" x="71.713,73.865,77.648,81.24799999999999,83.165,85.758,88.872,90.354,93.767,97.55,99.702,101.184,103.036,104.518,107.818,109.81,113.223,116.407,117.889,121.744,125.157,128.94,132.054,135.466,136.741,138.779,140.261,144.044,145.897,147.379,151.084,154.496,158.28,161.094,164.469,166.444,171.189,173.341,177.124,180.537,182.71200000000002,184.756,188.318,191.731,194.325,198.179,199.661,201.836,203.861,207.424,208.906,210.979,214.684,217.277,220.69,223.284,224.559,226.651,230.064,233.477,236.889,240.302,241.485,244.898,246.081,249.493,252.906" svgx:width="0.3,0.53,0.48,0.55,0.36,0.44,0.21,0.48,0.53,0.3,0.21,0.26,0.21,0.44,0.55,0.48,0.45,0.21,0.54,0.48,0.53,0.44,0.48,0.17,0.55,0.21,0.53,0.26,0.21,0.52,0.48,0.53,0.4,0.45,0.55,0.67,0.3,0.53,0.48,0.29,0.55,0.5,0.48,0.36,0.54,0.21,0.29,0.55,0.5,0.21,0.29,0.52,0.36,0.48,0.36,0.17,0.55,0.48,0.48,0.48,0.48,0.17,0.48,0.17,0.48,0.48,0.48" style="fill:rgb(43,42,41);font-family:KfbgyvAdvTTb5929f4c;font-size:7.5px;stroke:none;">the scientific evidence. Influenza Other Respir Viruses. 2012;6:257</text>
  </g>
  <g begin="text">
   <text y="627.755" x="256.306" svgx:width="0.5" style="fill:rgb(43,42,41);font-family:JngjbyAdvTTb5929f4c;font-size:7.5px;stroke:none;">–</text>
  </g>
  <g begin="text">
   <text y="627.755" x="259.877,263.29,266.703" svgx:width="0.48,0.48,0.17" style="fill:rgb(43,42,41);font-family:KfbgyvAdvTTb5929f4c;font-size:7.5px;stroke:none;">67.</text>
  </g>
  <g begin="text">
   <text y="636.77" x="56.689,60.102,63.515,64.79,71.713,74.898,78.311,81.911,83.845,87.108,91.262,92.537,94.56,98.934,101.008,102.49,106.273,108.866,112.65,116.504,120.209,124.184,126.193,129.457,133.61,134.88500000000002,136.908,140.47,143.883,147.738,151.521,155.304,158.717,162.692,164.63,167.893,169.168,171.263,174.826,178.239,180.832,184.687,186.169,188.242,191.427,193.579,197.362,199.435,202.735,204.655,208.51,211.922,213.996,215.848,219.632,221.705,227.49,230.675,234.458,237.572,241.172,243.149,246.932,248.785,250.637,254.05,256.123,259.536,263.586,265.542,269.397,272.697,274.67,279.194,282.607" svgx:width="0.48,0.48,0.17,0.55,0.45,0.48,0.48,0.55,0.46,0.58,0.17,0.55,0.61,0.29,0.21,0.53,0.36,0.53,0.54,0.52,0.53,0.55,0.46,0.58,0.17,0.55,0.5,0.48,0.54,0.53,0.53,0.48,0.53,0.55,0.46,0.17,0.55,0.5,0.48,0.36,0.54,0.21,0.29,0.45,0.3,0.53,0.29,0.44,0.55,0.54,0.48,0.29,0.26,0.53,0.29,0.81,0.45,0.53,0.44,0.48,0.55,0.53,0.26,0.26,0.48,0.29,0.48,0.54,0.55,0.54,0.44,0.55,0.63,0.48,0.48" style="fill:rgb(43,42,41);font-family:KfbgyvAdvTTb5929f4c;font-size:7.5px;stroke:none;">52. Lee SA, Grinshpun SA, Reponen T. Respiratory performance offered by N95</text>
  </g>
  <g begin="text">
   <text y="645.727" x="71.713,73.786,77.199,79.793,83.647,85.129,87.202,90.387,92.539,96.322,98.396,101.096,103.12,106.305,110.088,114.13799999999999,116.102,118.696,122.401,124.474,128.329,129.811,132.924,136.109,137.684,139.743,145.528,148.713,151.307,154.271,156.864,158.139,160.208,163.992,167.697,173.482,176.667,180.642,182.602,185.195,188.9,192.755,194.237,197.65,200.763,203.013,205.052,208.465,211.649,214.834,216.316,220.021,223.206,225.358,226.84,230.623,234.59799999999998,236.572,241.688,243.17,245.322,249.297,251.255,255.78,258.965,262.969,264.544,266.619,269.804,273.216,275.29,279.073,281.667,285.45" svgx:width="0.29,0.48,0.36,0.54,0.21,0.29,0.45,0.3,0.53,0.29,0.36,0.55,0.45,0.53,0.54,0.55,0.36,0.52,0.29,0.54,0.21,0.44,0.45,0.21,0.55,0.81,0.45,0.36,0.42,0.36,0.17,0.55,0.53,0.52,0.81,0.45,0.53,0.55,0.36,0.52,0.54,0.21,0.48,0.44,0.3,0.55,0.48,0.45,0.45,0.21,0.52,0.45,0.3,0.21,0.53,0.53,0.55,0.72,0.21,0.3,0.53,0.55,0.63,0.45,0.56,0.21,0.55,0.45,0.48,0.29,0.53,0.36,0.53,0.21" style="fill:rgb(43,42,41);font-family:KfbgyvAdvTTb5929f4c;font-size:7.5px;stroke:none;">respirators and surgical masks: human subject evaluation with NaCl aerosol</text>
  </g>
  <g begin="text">
   <text y="654.741" x="71.713,73.786,77.199,81.054,83.127,86.54,89.133,92.546,96.329,98.481,99.963,103.746,107.79599999999999,109.753,113.607,116.792,119.906,122.057,125.47,127.544,129.026,132.21,133.785,135.831,139.015,142.799,146.84900000000002,148.813,151.998,153.48,155.553,158.738,160.313,162.362,166.217,169.402,171.475,173.627,175.109,178.222,179.704,183.304,185.266,187.859,189.341,192.156,195.756,197.738,199.811,202.996,206.78,210.634,214.047,215.322,217.354,221.507,225.291,229.266,231.243,235.988,239.102,242.215,245.92,249.97,251.936,256.389,259.502,263.357" svgx:width="0.29,0.48,0.54,0.29,0.48,0.36,0.48,0.53,0.3,0.21,0.53,0.54,0.55,0.54,0.45,0.44,0.3,0.48,0.29,0.21,0.45,0.21,0.55,0.45,0.53,0.54,0.55,0.45,0.21,0.29,0.45,0.21,0.55,0.54,0.45,0.29,0.3,0.21,0.44,0.21,0.48,0.55,0.36,0.21,0.4,0.48,0.55,0.29,0.45,0.53,0.54,0.48,0.17,0.55,0.58,0.53,0.53,0.55,0.67,0.44,0.44,0.52,0.54,0.55,0.63,0.44,0.54,0.17" style="fill:rgb(43,42,41);font-family:KfbgyvAdvTTb5929f4c;font-size:7.5px;stroke:none;">representing bacterial and viral particle size range. Ann Occup Hyg.</text>
  </g>
  <g begin="text">
   <text y="663.755" x="71.713,75.126,78.539,81.951,85.364,86.547,89.96,93.373,94.555,97.968,101.381" svgx:width="0.48,0.48,0.48,0.48,0.17,0.48,0.48,0.17,0.48,0.48,0.48" style="fill:rgb(43,42,41);font-family:KfbgyvAdvTTb5929f4c;font-size:7.5px;stroke:none;">2008;52:177</text>
  </g>
  <g begin="text">
   <text y="663.755" x="104.765" svgx:width="0.5" style="fill:rgb(43,42,41);font-family:JngjbyAdvTTb5929f4c;font-size:7.5px;stroke:none;">–</text>
  </g>
  <g begin="text">
   <text y="663.755" x="108.336,111.749,115.162" svgx:width="0.48,0.48,0.17" style="fill:rgb(43,42,41);font-family:KfbgyvAdvTTb5929f4c;font-size:7.5px;stroke:none;">85.</text>
  </g>
  <g begin="text">
   <text y="615.255" x="322.855,327.799,333.231,338.664,346.569,349.041,352.499,354.971,359.915,365.348,370.78,374.239,376.711,382.144,387.087,392.031,395.49,397.962,405.866,410.81,416.242,421.675,425.623,429.571,433.03,435.501,440.934,444.393,446.865,450.324,455.756,458.228,463.661,466.133,471.565,479.959,484.903,490.335,492.807,498.24,503.184,508.616,512.075,515.534,520.478" svgx:width="0.56,0.61,0.61,0.89,0.28,0.39,0.28,0.56,0.61,0.61,0.39,0.28,0.61,0.56,0.56,0.39,0.28,0.89,0.56,0.61,0.61,0.44,0.44,0.39,0.28,0.61,0.39,0.28,0.39,0.61,0.28,0.61,0.28,0.61,0.94,0.56,0.61,0.28,0.61,0.56,0.61,0.39,0.39,0.56,0.28" style="fill:rgb(43,42,41);font-family:QvpgfdFrutigerLTStd-Bold;font-size:8.89px;stroke:none;">Submit your next manuscript to BioMed Central</text>
  </g>
  <g begin="text">
   <text y="625.925" x="322.855,327.799,333.231,338.664,341.136,344.595,349.538,354.482,359.426,361.898,365.356,370.789,373.261,375.733,378.205,383.148,388.581,393.525,398.468,403.901,407.36,412.304,417.736,422.68,425.152,430.584,434.043,436.515" svgx:width="0.56,0.61,0.61,0.28,0.39,0.56,0.56,0.56,0.28,0.39,0.61,0.28,0.28,0.28,0.56,0.61,0.56,0.56,0.61,0.39,0.56,0.61,0.56,0.28,0.61,0.39,0.28,0.28" style="fill:rgb(43,42,41);font-family:QvpgfdFrutigerLTStd-Bold;font-size:8.89px;stroke:none;">and take full advantage of: </text>
  </g>
  <g begin="text">
   <text y="646.852" x="322.146" svgx:width="0.5" style="fill:rgb(43,42,41);font-family:QvpgfdFrutigerLTStd-Bold;font-size:6.8px;stroke:none;">•</text>
  </g>
  <g begin="text">
   <text y="646.852" x="325.546,327.437,331.591,335.746,339.901,343.682,347.462,351.617,353.508,357.288,361.443,364.088,365.979,370.134,374.288,376.179,378.069,382.224,386.005,387.895,390.914,395.069,399.224,405.269,407.16,410.179,413.198,415.088,419.243" svgx:width="0.28,0.61,0.61,0.61,0.56,0.56,0.61,0.28,0.56,0.61,0.39,0.28,0.61,0.61,0.28,0.28,0.61,0.56,0.28,0.44,0.61,0.61,0.89,0.28,0.44,0.44,0.28,0.61,0.61" style="fill:rgb(90,129,176);font-family:QvpgfdFrutigerLTStd-Bold;font-size:6.8px;stroke:none;"> Convenient online submission</text>
  </g>
  <g begin="text">
   <text y="659.261" x="322.146" svgx:width="0.5" style="fill:rgb(43,42,41);font-family:QvpgfdFrutigerLTStd-Bold;font-size:6.8px;stroke:none;">•</text>
  </g>
  <g begin="text">
   <text y="659.261" x="325.546,327.437,331.217,335.372,339.527,342.056,346.211,350.366,354.521,358.676,360.566,364.721,368.502,372.282,374.928,376.818,379.348,383.128,386.909,388.8,392.58" svgx:width="0.28,0.56,0.61,0.61,0.39,0.61,0.61,0.61,0.61,0.28,0.61,0.56,0.56,0.39,0.28,0.39,0.56,0.56,0.28,0.56,0.89" style="fill:rgb(90,129,176);font-family:QvpgfdFrutigerLTStd-Bold;font-size:6.8px;stroke:none;"> Thorough peer review</text>
  </g>
  <g begin="text">
   <text y="671.671" x="322.146" svgx:width="0.5" style="fill:rgb(43,42,41);font-family:QvpgfdFrutigerLTStd-Bold;font-size:6.8px;stroke:none;">•</text>
  </g>
  <g begin="text">
   <text y="671.671" x="325.546,327.437,332.346,336.501,338.391,341.411,345.565,349.346,352.365,356.146,358.036,361.056,365.21,369.365,372.384,375.03,377.675,381.456,383.346,387.501,390.146,393.165,395.056,399.21,401.856,403.746,406.765,410.92,412.81,416.965,419.61,421.501,426.036,430.191,434.346,436.876,440.656,442.547,445.566,449.721,453.502,456.147,460.302,464.082" svgx:width="0.28,0.72,0.61,0.28,0.44,0.61,0.56,0.44,0.56,0.28,0.44,0.61,0.61,0.44,0.39,0.39,0.56,0.28,0.61,0.39,0.44,0.28,0.61,0.39,0.28,0.44,0.61,0.28,0.61,0.39,0.28,0.67,0.61,0.61,0.39,0.56,0.28,0.44,0.61,0.56,0.39,0.61,0.56,0.44" style="fill:rgb(90,129,176);font-family:QvpgfdFrutigerLTStd-Bold;font-size:6.8px;stroke:none;"> No space constraints or color ﬁgure charges</text>
  </g>
  <g begin="text">
   <text y="684.081" x="322.146" svgx:width="0.5" style="fill:rgb(43,42,41);font-family:QvpgfdFrutigerLTStd-Bold;font-size:6.8px;stroke:none;">•</text>
  </g>
  <g begin="text">
   <text y="684.081" x="325.546,327.437,329.327,335.372,341.417,345.198,349.353,351.243,355.024,357.669,361.45,363.341,367.495,371.65,375.805,377.695,379.586,382.605,386.386,389.031,390.921,395.076,399.231,401.121,405.276,409.431,411.321,415.102,418.121,421.14,424.921,429.076,431.721,435.502,439.657,442.676" svgx:width="0.28,0.28,0.89,0.89,0.56,0.61,0.28,0.56,0.39,0.56,0.28,0.61,0.61,0.61,0.28,0.28,0.44,0.56,0.39,0.28,0.61,0.61,0.28,0.61,0.61,0.28,0.56,0.44,0.44,0.56,0.61,0.39,0.56,0.61,0.44,0.56" style="fill:rgb(90,129,176);font-family:QvpgfdFrutigerLTStd-Bold;font-size:6.8px;stroke:none;"> Immediate publication on acceptance</text>
  </g>
  <g begin="text">
   <text y="696.491" x="322.146" svgx:width="0.5" style="fill:rgb(43,42,41);font-family:QvpgfdFrutigerLTStd-Bold;font-size:6.8px;stroke:none;">•</text>
  </g>
  <g begin="text">
   <text y="696.491" x="325.546,327.437,329.327,333.482,336.501,338.391,342.546,345.565,347.456,351.611,355.765,357.656,359.546,363.701,365.591,369.372,373.527,377.682,384.101,387.882,392.036,393.927,395.817,399.972,404.882,408.662,410.553,412.443,416.224,419.243,423.398,427.553,431.708,434.727,436.617,440.398,444.553,448.708,450.598,455.508,459.662,463.817,467.972,469.862,473.643,475.534,479.314,482.334,486.488,490.643,492.534,496.314" svgx:width="0.28,0.28,0.61,0.44,0.28,0.61,0.44,0.28,0.61,0.61,0.28,0.28,0.61,0.28,0.56,0.61,0.61,0.94,0.56,0.61,0.28,0.28,0.61,0.72,0.56,0.28,0.28,0.56,0.44,0.61,0.61,0.61,0.44,0.28,0.56,0.61,0.61,0.28,0.72,0.61,0.61,0.61,0.28,0.56,0.28,0.56,0.44,0.61,0.61,0.28,0.56,0.39" style="fill:rgb(90,129,176);font-family:QvpgfdFrutigerLTStd-Bold;font-size:6.8px;stroke:none;"> Inclusion in PubMed, CAS, Scopus and Google Scholar</text>
  </g>
  <g begin="text">
   <text y="708.901" x="322.146,325.546" svgx:width="0.5,0.28" style="fill:rgb(43,42,41);font-family:QvpgfdFrutigerLTStd-Bold;font-size:6.8px;stroke:none;">• </text>
  </g>
  <g begin="text">
   <text y="708.901" x="327.436,331.591,335.372,338.391,342.172,345.952,348.482,351.501,355.656,357.546,363.592,367.746,369.637,372.656,376.811,378.701,380.592,383.611,385.501,388.146,390.676,394.457,398.238,400.128,403.909,405.799,409.58,413.361,417.142,419.032,420.922,424.703,428.858,430.748,434.529,436.42,439.065,443.22,445.865,447.755,450.285,454.066,458.22,460.111,463.13,465.775,468.42,470.311,474.466,478.62,481.266,483.156,487.311" svgx:width="0.61,0.56,0.44,0.56,0.56,0.39,0.44,0.61,0.28,0.89,0.61,0.28,0.44,0.61,0.28,0.28,0.44,0.28,0.39,0.39,0.56,0.56,0.28,0.56,0.28,0.56,0.56,0.56,0.28,0.28,0.56,0.61,0.28,0.56,0.28,0.39,0.61,0.39,0.28,0.39,0.56,0.61,0.28,0.44,0.39,0.39,0.28,0.61,0.61,0.39,0.28,0.61,0.61" style="fill:rgb(90,129,176);font-family:QvpgfdFrutigerLTStd-Bold;font-size:6.8px;stroke:none;">Research which is freely available for redistribution</text>
  </g>
  <path style="fill:rgb(51,115,184);stroke:none;stroke-width:1.0;" d="M456.860 738.530 C454.610 737.430 453.060 735.140 453.060 732.500 C453.060 728.770 456.110 725.820 459.910 725.820 C461.290 725.820 462.780 726.610 462.780 726.610 C462.010 726.250 461.150 726.040 460.240 726.040 C457.000 726.040 454.380 728.620 454.380 731.790 C454.380 734.070 455.730 736.030 457.690 736.960 L456.860 738.530 "/>
  <path style="fill:rgb(0,95,95);stroke:none;stroke-width:1.0;" d="M463.600 725.040 C465.860 726.150 467.410 728.440 467.410 731.080 C467.410 734.800 464.350 737.750 460.560 737.750 C459.180 737.750 457.690 736.960 457.690 736.960 C458.460 737.330 459.320 737.530 460.230 737.530 C463.460 737.530 466.090 734.960 466.090 731.780 C466.090 729.510 464.740 727.540 462.780 726.610 L463.600 725.040 "/>
  <path style="fill:rgb(51,115,184);stroke:none;stroke-width:1.0;" d="M472.000 733.510 L472.540 733.510 C472.920 733.510 473.330 733.370 473.330 732.960 C473.330 732.500 472.950 732.410 472.560 732.410 L472.000 732.410 L472.000 733.510 ZM472.000 731.310 L472.520 731.310 C472.880 731.310 473.280 731.210 473.280 730.800 C473.280 730.400 472.940 730.280 472.560 730.280 L472.000 730.280 L472.000 731.310 ZM470.030 729.270 L473.450 729.270 C474.390 729.270 475.320 729.570 475.320 730.590 C475.320 731.320 474.920 731.710 474.200 731.890 L474.200 731.910 C474.960 732.010 475.420 732.590 475.420 733.120 C475.420 734.470 474.320 734.600 473.190 734.600 L470.030 734.600 L470.030 729.270 "/>
  <path style="fill:rgb(51,115,184);stroke:none;stroke-width:1.0;" d="M480.330 733.550 C480.710 733.550 480.760 733.120 480.760 732.540 C480.760 732.070 480.710 731.680 480.330 731.680 C479.950 731.680 479.900 732.070 479.900 732.540 C479.900 733.120 479.950 733.550 480.330 733.550 M480.330 730.530 C481.960 730.530 482.850 731.210 482.850 732.540 C482.850 733.920 481.960 734.700 480.330 734.700 C478.680 734.700 477.810 733.920 477.810 732.540 C477.810 731.210 478.680 730.530 480.330 730.530 "/>
  <path style="fill:rgb(0,95,95);stroke:none;stroke-width:1.0;" d="M483.390 729.270 L486.480 729.270 L487.190 732.190 L487.200 732.190 L487.900 729.270 L490.980 729.270 L490.980 734.600 L489.110 734.600 L489.080 730.420 L489.060 730.420 L488.000 734.600 L486.260 734.600 L485.220 730.420 L485.190 730.420 L485.170 734.600 L483.390 734.600 L483.390 729.270 "/>
  <path style="fill:rgb(0,95,95);stroke:none;stroke-width:1.0;" d="M494.050 732.240 C494.050 731.930 494.010 731.450 493.560 731.450 C493.110 731.450 493.010 731.930 493.030 732.240 L494.050 732.240 ZM493.040 733.080 C493.070 733.570 493.550 733.690 494.120 733.690 C494.660 733.690 495.140 733.600 495.450 733.440 L495.450 734.470 C494.930 734.630 494.310 734.700 493.620 734.700 C491.980 734.700 491.110 733.920 491.110 732.540 C491.110 731.210 491.980 730.530 493.620 730.530 C495.200 730.530 495.750 731.500 495.750 732.840 L495.750 733.080 L493.040 733.080 "/>
  <path style="fill:rgb(0,95,95);stroke:none;stroke-width:1.0;" d="M498.320 731.720 C497.900 731.720 497.830 732.140 497.830 732.550 C497.830 732.970 497.900 733.410 498.330 733.410 C498.750 733.410 498.810 732.970 498.810 732.600 C498.810 732.140 498.750 731.720 498.320 731.720 M498.900 734.610 L498.900 733.880 L498.880 733.880 C498.610 734.470 498.220 734.700 497.580 734.700 C496.280 734.700 495.790 733.700 495.790 732.550 C495.790 731.470 496.300 730.530 497.520 730.530 C498.040 730.530 498.440 730.710 498.750 731.140 L498.760 731.140 L498.760 728.880 L500.720 728.880 L500.720 734.610 L498.900 734.610 "/>
  <path style="fill:rgb(43,42,41);stroke:none;stroke-width:1.0;" d="M506.790 734.270 C506.530 734.410 506.020 734.540 505.380 734.540 C504.120 734.540 502.910 733.730 502.910 731.870 C502.910 730.320 503.910 729.140 505.560 729.140 C506.220 729.140 506.610 729.290 506.780 729.370 L506.650 729.680 C506.390 729.550 506.010 729.460 505.560 729.460 C504.150 729.460 503.290 730.370 503.290 731.880 C503.290 733.300 504.100 734.220 505.500 734.220 C505.950 734.220 506.390 734.130 506.680 733.980 L506.790 734.270 "/>
  <path style="fill:none;stroke:rgb(43,42,41);stroke-width:1.0;" d="M506.790 734.270 C506.530 734.410 506.020 734.540 505.380 734.540 C504.120 734.540 502.910 733.730 502.910 731.870 C502.910 730.320 503.910 729.140 505.560 729.140 C506.220 729.140 506.610 729.290 506.780 729.370 L506.650 729.680 C506.390 729.550 506.010 729.460 505.560 729.460 C504.150 729.460 503.290 730.370 503.290 731.880 C503.290 733.300 504.100 734.220 505.500 734.220 C505.950 734.220 506.390 734.130 506.680 733.980 L506.790 734.270 Z"/>
  <path style="fill:rgb(43,42,41);stroke:none;stroke-width:0.25;" d="M510.000 732.260 C510.010 731.740 509.790 730.950 508.890 730.950 C508.060 730.950 507.710 731.690 507.640 732.260 L510.000 732.260 ZM507.620 732.560 C507.620 733.750 508.270 734.220 509.040 734.220 C509.590 734.220 509.870 734.110 510.080 734.010 L510.170 734.300 C510.030 734.380 509.650 734.540 509.000 734.540 C507.920 734.540 507.260 733.760 507.260 732.660 C507.260 731.420 507.970 730.650 508.930 730.650 C510.150 730.650 510.390 731.800 510.390 732.330 C510.390 732.430 510.390 732.490 510.370 732.560 L507.620 732.560 "/>
  <path style="fill:none;stroke:rgb(43,42,41);stroke-width:0.25;" d="M510.000 732.260 C510.010 731.740 509.790 730.950 508.890 730.950 C508.060 730.950 507.710 731.690 507.640 732.260 L510.000 732.260 Z"/>
  <path style="fill:none;stroke:rgb(43,42,41);stroke-width:0.25;" d="M507.620 732.560 C507.620 733.750 508.270 734.220 509.040 734.220 C509.590 734.220 509.870 734.110 510.080 734.010 L510.170 734.300 C510.030 734.380 509.650 734.540 509.000 734.540 C507.920 734.540 507.260 733.760 507.260 732.660 C507.260 731.420 507.970 730.650 508.930 730.650 C510.150 730.650 510.390 731.800 510.390 732.330 C510.390 732.430 510.390 732.490 510.370 732.560 L507.620 732.560 Z"/>
  <path style="fill:rgb(43,42,41);stroke:none;stroke-width:0.25;" d="M511.230 731.630 C511.230 731.280 511.220 731.030 511.200 730.730 L511.540 730.730 L511.570 731.410 L511.590 731.410 C511.790 730.990 512.260 730.650 512.870 730.650 C513.230 730.650 514.170 730.820 514.170 732.220 L514.170 734.460 L513.800 734.460 L513.800 732.250 C513.800 731.580 513.540 730.960 512.770 730.960 C512.240 730.960 511.800 731.340 511.650 731.820 C511.620 731.910 511.600 732.040 511.600 732.150 L511.600 734.460 L511.230 734.460 L511.230 731.630 "/>
  <path style="fill:none;stroke:rgb(43,42,41);stroke-width:0.25;" d="M511.230 731.630 C511.230 731.280 511.220 731.030 511.200 730.730 L511.540 730.730 L511.570 731.410 L511.590 731.410 C511.790 730.990 512.260 730.650 512.870 730.650 C513.230 730.650 514.170 730.820 514.170 732.220 L514.170 734.460 L513.800 734.460 L513.800 732.250 C513.800 731.580 513.540 730.960 512.770 730.960 C512.240 730.960 511.800 731.340 511.650 731.820 C511.620 731.910 511.600 732.040 511.600 732.150 L511.600 734.460 L511.230 734.460 L511.230 731.630 Z"/>
  <path style="fill:rgb(43,42,41);stroke:none;stroke-width:0.25;" d="M515.810 729.910 L515.810 730.730 L516.870 730.730 L516.870 731.030 L515.810 731.030 L515.810 733.450 C515.810 733.920 515.950 734.230 516.350 734.230 C516.540 734.230 516.680 734.200 516.780 734.160 L516.820 734.450 C516.700 734.510 516.530 734.540 516.300 734.540 C516.030 734.540 515.810 734.450 515.670 734.270 C515.500 734.080 515.430 733.770 515.430 733.390 L515.430 731.030 L514.800 731.030 L514.800 730.730 L515.430 730.730 L515.430 730.050 L515.810 729.910 "/>
  <path style="fill:none;stroke:rgb(43,42,41);stroke-width:0.25;" d="M515.810 729.910 L515.810 730.730 L516.870 730.730 L516.870 731.030 L515.810 731.030 L515.810 733.450 C515.810 733.920 515.950 734.230 516.350 734.230 C516.540 734.230 516.680 734.200 516.780 734.160 L516.820 734.450 C516.700 734.510 516.530 734.540 516.300 734.540 C516.030 734.540 515.810 734.450 515.670 734.270 C515.500 734.080 515.430 733.770 515.430 733.390 L515.430 731.030 L514.800 731.030 L514.800 730.730 L515.430 730.730 L515.430 730.050 L515.810 729.910 Z"/>
  <path style="fill:rgb(43,42,41);stroke:none;stroke-width:0.25;" d="M517.590 731.850 C517.590 731.480 517.570 731.090 517.560 730.730 L517.900 730.730 L517.920 731.480 L517.930 731.480 C518.100 731.020 518.480 730.650 519.000 730.650 C519.040 730.650 519.100 730.650 519.140 730.660 L519.140 731.020 C519.090 731.000 519.030 731.000 518.970 731.000 C518.450 731.000 518.090 731.450 517.990 732.040 C517.970 732.150 517.960 732.280 517.960 732.400 L517.960 734.460 L517.590 734.460 L517.590 731.850 "/>
  <path style="fill:none;stroke:rgb(43,42,41);stroke-width:0.25;" d="M517.590 731.850 C517.590 731.480 517.570 731.090 517.560 730.730 L517.900 730.730 L517.920 731.480 L517.930 731.480 C518.100 731.020 518.480 730.650 519.000 730.650 C519.040 730.650 519.100 730.650 519.140 730.660 L519.140 731.020 C519.090 731.000 519.030 731.000 518.970 731.000 C518.450 731.000 518.090 731.450 517.990 732.040 C517.970 732.150 517.960 732.280 517.960 732.400 L517.960 734.460 L517.590 734.460 L517.590 731.850 Z"/>
  <path style="fill:rgb(43,42,41);stroke:none;stroke-width:0.25;" d="M521.730 732.460 C520.920 732.440 519.840 732.560 519.840 733.460 C519.840 733.990 520.200 734.230 520.590 734.230 C521.210 734.230 521.560 733.850 521.690 733.490 C521.710 733.410 521.730 733.330 521.730 733.260 L521.730 732.460 ZM522.100 733.570 C522.100 733.870 522.110 734.170 522.150 734.460 L521.820 734.460 L521.760 733.920 L521.740 733.920 C521.560 734.210 521.150 734.540 520.550 734.540 C519.800 734.540 519.460 734.020 519.460 733.520 C519.460 732.660 520.220 732.140 521.730 732.150 L521.730 732.060 C521.730 731.690 521.660 730.950 520.780 730.960 C520.450 730.960 520.110 731.040 519.840 731.240 L519.730 730.960 C520.060 730.740 520.480 730.650 520.820 730.650 C521.890 730.650 522.100 731.450 522.100 732.120 L522.100 733.570 "/>
  <path style="fill:none;stroke:rgb(43,42,41);stroke-width:0.25;" d="M521.730 732.460 C520.920 732.440 519.840 732.560 519.840 733.460 C519.840 733.990 520.200 734.230 520.590 734.230 C521.210 734.230 521.560 733.850 521.690 733.490 C521.710 733.410 521.730 733.330 521.730 733.260 L521.730 732.460 Z"/>
  <path style="fill:none;stroke:rgb(43,42,41);stroke-width:0.25;" d="M522.100 733.570 C522.100 733.870 522.110 734.170 522.150 734.460 L521.820 734.460 L521.760 733.920 L521.740 733.920 C521.560 734.210 521.150 734.540 520.550 734.540 C519.800 734.540 519.460 734.020 519.460 733.520 C519.460 732.660 520.220 732.140 521.730 732.150 L521.730 732.060 C521.730 731.690 521.660 730.950 520.780 730.960 C520.450 730.960 520.110 731.040 519.840 731.240 L519.730 730.960 C520.060 730.740 520.480 730.650 520.820 730.650 C521.890 730.650 522.100 731.450 522.100 732.120 L522.100 733.570 Z"/>
  <path style="fill:none;stroke:rgb(130,130,130);stroke-width:0.25;" d="M538.310 740.800 C538.310 743.960 535.790 746.520 532.670 746.520 L315.290 746.520 C312.170 746.520 309.640 743.960 309.640 740.800 L309.640 599.670 C309.640 596.520 312.170 593.950 315.290 593.950 L532.670 593.950 C535.790 593.950 538.310 596.520 538.310 599.670 L538.310 740.800 Z"/>
  <g begin="text">
   <text y="730.59" x="322.855,326.005,329.854,333.704,339.304,341.056,343.507,345.258,348.408,352.257,356.107,358.557,360.309,365.909,369.412,373.261,377.111,379.561,382.359,384.809,386.561,390.41,392.861,394.612,398.115,400.566" svgx:width="0.5,0.61,0.61,0.89,0.28,0.39,0.28,0.5,0.61,0.61,0.39,0.28,0.89,0.56,0.61,0.61,0.39,0.44,0.39,0.28,0.61,0.39,0.28,0.56,0.39,0.28" style="fill:rgb(43,42,41);font-family:FcqhsyFrutigerLTStd-Roman;font-size:6.3px;stroke:none;">Submit your manuscript at </text>
  </g>
  <g begin="text">
   <text y="737.59" x="322.855,328.103,333.351,338.252,340.004,343.853,345.604,349.454,355.054,358.557,362.407,365.204,368.707,372.556,375.007,377.457,380.96,382.711,384.463,387.26,391.109,396.71,398.462,400.912,404.762,408.611,414.212,415.963" svgx:width="0.83,0.83,0.83,0.28,0.61,0.28,0.61,0.89,0.56,0.61,0.44,0.56,0.61,0.39,0.39,0.56,0.28,0.28,0.44,0.61,0.89,0.28,0.39,0.61,0.61,0.89,0.28,0.39" style="fill:rgb(43,42,41);font-family:FcqhsyFrutigerLTStd-Roman;font-size:6.3px;stroke:none;">www.biomedcentral.com/submit</text>
  </g>
  <g begin="text">
   <text y="40.422" x="56.693,63.109,67.437,71.181,75.181,77.757,79.669" svgx:width="0.8,0.54,0.47,0.5,0.32,0.24,0.23" style="fill:rgb(43,42,41);font-family:VnxvtvAdvTTe45e47d2;font-size:8.0px;stroke:none;">Mukerji</text>
  </g>
  <g begin="text">
   <text y="40.422" x="83.849,87.425,89.905,92.296,96.456,98.2,99.88000000000001,102.274,106.354,112.514,116.914,119.282,121.114,125.362,127.61,131.186,134.514,137.01,138.753,142.913,147.073,149.953,152.334,157.494,159.238,162.15,165.726,169.886,172.798,176.374" svgx:width="0.45,0.31,0.55,0.52,0.22,0.21,0.55,0.51,0.77,0.55,0.55,0.23,0.53,0.28,0.45,0.42,0.31,0.22,0.52,0.52,0.36,0.55,0.64,0.22,0.36,0.45,0.52,0.36,0.45,0.36" style="fill:rgb(43,42,41);font-family:DdwqmsAdvTT7329fd89.I;font-size:8.0px;stroke:none;">et al. BMC Infectious Diseases</text>
  </g>
  <g begin="text">
   <text y="40.422" x="181.643,183.339,185.611,189.715,193.819,197.923,202.027,204.299,205.995,210.099,214.203,215.859,219.963,224.067,228.171" svgx:width="0.21,0.28,0.51,0.51,0.51,0.51,0.28,0.21,0.51,0.51,0.21,0.51,0.51,0.51,0.21" style="fill:rgb(43,42,41);font-family:MyriadPro-Regular;font-size:8.0px;stroke:none;"> (2015) 15:413 </text>
  </g>
  <g begin="text">
   <text y="40.422" x="500.143,504.391,508.222,512.638,516.638,519.021,523.101,525.485,529.813,532.133,534.499" svgx:width="0.53,0.48,0.55,0.5,0.55,0.51,0.55,0.54,0.29,0.55,0.51" style="fill:rgb(43,42,41);font-family:VnxvtvAdvTTe45e47d2;font-size:8.0px;stroke:none;">Page 8 of 8</text>
  </g>
 </g>
</svg>
