<?xml version="1.0" encoding="UTF-8"?>
<svg height="723.48" width="548.87" xmlns="http://www.w3.org/2000/svg">
 <g>
  <path style="fill:rgb(19,20,19);stroke:none;stroke-width:1.0;" d="M56.520 250.240 L290.610 250.240 L290.610 250.410 L56.520 250.410 "/>
  <path style="fill:rgb(19,20,19);stroke:none;stroke-width:0.25;" d="M144.850 262.550 L56.520 262.550 L56.520 262.380 L144.850 262.380 L144.850 262.550 "/>
  <path style="fill:rgb(19,20,19);stroke:none;stroke-width:0.25;" d="M206.700 262.550 L144.850 262.550 L144.850 262.380 L206.700 262.380 L206.700 262.550 "/>
  <path style="fill:rgb(19,20,19);stroke:none;stroke-width:0.25;" d="M308.750 526.680 L534.840 526.680 L534.840 526.900 L308.750 526.900 "/>
  <path style="fill:rgb(19,20,19);stroke:none;stroke-width:0.25;" d="M534.840 526.680 L535.580 526.730 C537.000 526.920 538.690 528.470 538.810 529.970 L538.870 530.700 L538.640 530.700 L538.580 530.020 C538.380 528.680 536.950 527.050 535.520 527.020 L534.840 526.900 "/>
  <path style="fill:rgb(19,20,19);stroke:none;stroke-width:0.25;" d="M538.870 530.700 L538.870 709.460 L538.640 709.460 L538.640 530.700 "/>
  <path style="fill:rgb(19,20,19);stroke:none;stroke-width:0.25;" d="M538.870 709.460 L538.810 710.190 C538.680 711.640 537.030 713.300 535.580 713.420 L534.840 713.480 L534.840 713.250 L535.520 713.200 C536.990 712.980 538.360 711.600 538.580 710.140 L538.640 709.460 "/>
  <path style="fill:rgb(19,20,19);stroke:none;stroke-width:0.25;" d="M534.840 713.480 L308.750 713.480 L308.750 713.250 L534.840 713.250 "/>
  <path style="fill:rgb(19,20,19);stroke:none;stroke-width:0.25;" d="M308.750 713.480 L308.070 713.420 C306.550 713.230 305.010 711.750 304.840 710.190 L304.780 709.460 L305.010 709.460 L305.070 710.140 C305.280 711.600 306.660 712.980 308.130 713.200 L308.750 713.250 "/>
  <path style="fill:rgb(19,20,19);stroke:none;stroke-width:0.25;" d="M304.780 709.460 L304.780 530.700 L305.010 530.700 L305.010 709.460 "/>
  <path style="fill:rgb(19,20,19);stroke:none;stroke-width:0.25;" d="M304.780 530.700 L304.840 529.970 C305.070 528.330 306.490 527.030 308.070 526.730 L308.750 526.680 L308.750 526.900 L308.130 527.020 C306.580 527.210 305.360 528.520 305.060 530.020 L305.010 530.700 "/>
 </g>
</svg>
