<?xml version="1.0" encoding="UTF-8"?>
<svg height="773.943" width="586.0" xmlns="http://www.w3.org/2000/svg">
 <g id="page" xmlns:svgx="http://www.xml-cml.org/schema/svgx">
  <g begin="text">
   <text y="763.943" x="36.0,41.933,46.933,49.713,54.713,62.493,66.933,69.433,76.653,83.873,87.203,89.703" svgx:width="0.72,0.5,0.28,0.5,0.78,0.44,0.25,0.72,0.72,0.33,0.25,0.25" style="fill:rgb(23,22,21);font-family:TimesNewRomanPSMT;font-size:10.0px;stroke:none;">Volume XVI, </text>
  </g>
  <g begin="text">
   <text y="763.943" x="92.201,97.255" svgx:width="0.72,0.72" style="fill:rgb(23,22,21);font-family:TimesNewRomanPSMT-SC700;font-size:7.0px;stroke:none;">no</text>
  </g>
  <g begin="text">
   <text y="763.943" x="102.311,104.811,107.311,112.311,114.811,117.591,120.091,125.651,130.091,135.091,137.871,142.311,150.091,155.091,159.531,162.861,165.361,170.361,175.361,180.361,185.361,187.861,298.501,303.501,308.501" svgx:width="0.25,0.25,0.5,0.25,0.28,0.25,0.56,0.44,0.5,0.28,0.44,0.78,0.5,0.44,0.33,0.25,0.5,0.5,0.5,0.5,0.25,0.55,0.5,0.5,0.5" style="fill:rgb(23,22,21);font-family:TimesNewRomanPSMT;font-size:10.0px;stroke:none;">. 5 : September 2015 619</text>
  </g>
  <g begin="text">
   <text y="763.943" x="313.5,316.0,413.15,421.788,426.228,430.118,432.898,437.338,440.668,445.668,448.168,452.058,457.058,462.058,465.388,470.388,474.828,477.608" svgx:width="0.25,0.55,0.94,0.44,0.39,0.28,0.44,0.33,0.5,0.25,0.39,0.5,0.5,0.33,0.5,0.44,0.28,0.25" style="fill:rgb(23,22,21);font-family:TimesNewRomanPSMT;font-size:10.0px;stroke:none;"> Western Journal </text>
  </g>
  <g begin="text">
   <text y="763.943" x="480.106,485.106" svgx:width="0.5,0.28" style="fill:rgb(23,22,21);font-family:TimesNewRomanPS-ItalicMT;font-size:10.0px;stroke:none;">of</text>
  </g>
  <g begin="text">
   <text y="763.943" x="487.885,490.385,496.495,504.275,508.715,511.86,516.86,521.3,526.3,530.74,535.74,538.24,547.13,551.57,556.57,559.35,563.79,566.57,571.57" svgx:width="0.25,0.61,0.78,0.44,0.33,0.5,0.44,0.5,0.44,0.5,0.25,0.89,0.44,0.5,0.28,0.44,0.28,0.5,0.44" style="fill:rgb(23,22,21);font-family:TimesNewRomanPSMT;font-size:10.0px;stroke:none;"> Emergency Medicine</text>
  </g>
  <path style="fill:none;stroke:rgb(23,22,21);stroke-width:1.0;" d="M36.000 747.500 L576.000 747.500 "/>
  <path style="fill:none;stroke:rgb(23,22,21);stroke-width:1.0;" d="M36.000 44.380 L576.000 44.380 "/>
  <g begin="text">
   <text y="39.375" x="248.352" svgx:width="0.72" style="fill:rgb(23,22,21);font-family:TimesNewRomanPS-BoldMT-SC700;font-size:18.0px;stroke:none;">C</text>
   <text y="39.375" x="261.351,271.154,280.251,289.348,297.752,305.451" svgx:width="0.78,0.72,0.72,0.67,0.61,0.67" style="fill:rgb(23,22,21);font-family:TimesNewRomanPS-BoldMT-SC700;font-size:12.6px;stroke:none;">onCept</text>
   <text y="39.375" x="313.854,318.354" svgx:width="0.25,0.61" style="fill:rgb(23,22,21);font-family:TimesNewRomanPS-BoldMT-SC700;font-size:18.0px;stroke:none;"> p</text>
   <text y="39.375" x="329.349,338.447,346.145,354.549" svgx:width="0.72,0.61,0.67,0.72" style="fill:rgb(23,22,21);font-family:TimesNewRomanPS-BoldMT-SC700;font-size:12.6px;stroke:none;">aper</text>
  </g>
  <g begin="text">
   <text y="55.375" x="301.0" svgx:width="0.25" style="fill:rgb(23,22,21);font-family:TimesNewRomanPS-BoldMT;font-size:20.0px;stroke:none;"> </text>
  </g>
  <g begin="text">
   <text y="79.375" x="46.186,53.965,65.086,73.965,85.086,91.745,97.305,103.965,113.965,120.626,128.406,136.186,146.186,151.745,161.745,168.406,177.286,183.946,191.726,202.846,209.506,219.506,228.386,245.046,251.706,255.61,268.949,273.949,292.829,302.829,313.949,319.509,330.629,339.509,350.629,355.267,366.771,376.771,386.771,392.331,397.331,403.991,413.991,422.503,427.503,435.283,446.403,451.963,458.623,464.183,474.183,479.743,484.743,499.183,508.063,514.723,523.603,532.483,539.143,544.703,554.703,565.823" svgx:width="0.39,0.56,0.44,0.56,0.33,0.28,0.33,0.5,0.33,0.39,0.39,0.5,0.28,0.5,0.33,0.44,0.33,0.39,0.56,0.33,0.5,0.44,0.83,0.33,0.25,0.72,0.25,0.94,0.5,0.56,0.28,0.56,0.44,0.56,0.25,0.67,0.5,0.5,0.28,0.25,0.33,0.5,0.44,0.25,0.39,0.56,0.28,0.33,0.28,0.5,0.28,0.25,0.72,0.44,0.33,0.44,0.44,0.33,0.28,0.5,0.56,0.25" style="fill:rgb(23,22,21);font-family:TimesNewRomanPS-BoldMT;font-size:20.0px;stroke:none;">Identify-Isolate-Inform: A Modified Tool for Initial Detection </text>
  </g>
  <g begin="text">
   <text y="103.375" x="66.19,76.19,87.31,98.43,103.43,122.31,132.31,143.43,153.43,163.43,172.31,188.97,197.85,208.97,215.63,220.63,230.63,237.29,242.29,261.17,266.73,277.85,288.97,294.53,303.41,308.41,321.75,331.75,339.53,346.19,351.19,365.63,374.51,382.29,393.41,398.97,407.85,417.85,424.51,434.51,443.39,453.39,458.39,469.51,479.51,490.63,501.75,510.272,520.272,536.932,545.812" svgx:width="0.5,0.56,0.56,0.25,0.94,0.5,0.56,0.5,0.5,0.44,0.83,0.44,0.56,0.33,0.25,0.5,0.33,0.25,0.94,0.28,0.56,0.56,0.28,0.44,0.25,0.67,0.5,0.39,0.33,0.25,0.72,0.44,0.39,0.56,0.28,0.44,0.5,0.33,0.5,0.44,0.5,0.25,0.56,0.5,0.56,0.56,0.44,0.5,0.83,0.44,0.25" style="fill:rgb(23,22,21);font-family:TimesNewRomanPS-BoldMT;font-size:20.0px;stroke:none;">and Management of Middle East Respiratory Syndrome </text>
  </g>
  <g begin="text">
   <text y="127.375" x="139.926,152.146,162.146,168.806,174.366,183.246,194.366,201.026,208.806,213.806,219.366,230.486,235.486,242.146,253.266,262.146,267.146,280.486,297.146,306.026,314.906,324.906,333.786,344.906,353.786,363.786,368.786,383.226,392.106,403.226,413.226,422.106,428.766,445.426,454.306,465.426" svgx:width="0.61,0.5,0.33,0.28,0.44,0.56,0.33,0.39,0.25,0.28,0.56,0.25,0.33,0.56,0.44,0.25,0.67,0.83,0.44,0.44,0.5,0.44,0.56,0.44,0.5,0.25,0.72,0.44,0.56,0.5,0.44,0.33,0.83,0.44,0.56,0.33" style="fill:rgb(23,22,21);font-family:TimesNewRomanPS-BoldMT;font-size:20.0px;stroke:none;">Patients in the Emergency Department</text>
  </g>
  <g begin="text">
   <text y="159.375" x="36.0,43.22,47.11,49.89,55.45,58.78,61.56,64.34,70.45,73.23,76.01,83.23,89.34,94.9,101.01,103.79,109.9,112.68,115.46,123.79" svgx:width="0.72,0.39,0.28,0.56,0.33,0.28,0.28,0.61,0.28,0.28,0.72,0.61,0.56,0.61,0.28,0.61,0.28,0.28,0.83,0.72" style="fill:rgb(23,22,21);font-family:Arial-BoldMT;font-size:10.0px;stroke:none;">Kristi L. Koenig, MD</text>
  </g>
  <g begin="text">
   <text y="159.375" x="131.0" svgx:width="0.28" style="fill:rgb(23,22,21);font-family:Arial-BoldMT;font-size:10.0px;stroke:none;"> </text>
  </g>
  <g begin="text">
   <text y="202.575" x="36.0,42.003,47.007,51.507,54.009,56.007,61.011,66.015,68.517,74.52,79.524,81.522,84.024,89.028" svgx:width="0.67,0.56,0.5,0.28,0.22,0.56,0.56,0.28,0.67,0.56,0.22,0.28,0.56,0.33" style="fill:rgb(23,22,21);font-family:Arial-ItalicMT;font-size:9.0px;stroke:none;">Section Editor</text>
  </g>
  <g begin="text">
   <text y="202.575" x="92.03,94.532,97.034,104.531,109.535,112.532,117.032,119.534,122.036,124.538,127.04,132.044,137.048,142.052,147.056,152.06,157.064,160.061,162.563,165.065,167.567,175.064,181.562,184.064,186.566,194.063,200.561,206.564,212.567" svgx:width="0.28,0.28,0.83,0.56,0.33,0.5,0.28,0.28,0.28,0.28,0.56,0.56,0.56,0.56,0.56,0.56,0.33,0.28,0.28,0.28,0.83,0.72,0.28,0.28,0.83,0.72,0.67,0.67,0.28" style="fill:rgb(23,22,21);font-family:ArialMT;font-size:9.0px;stroke:none;">: Mark I. Langdorf, MD, MHPE </text>
  </g>
  <g begin="text">
   <text y="213.375" x="36.0,42.003,47.007,52.011,59.508,61.506,66.006,70.506,72.504,77.508,82.512,85.014,90.018,92.016,96.516,99.018,104.022,107.019,111.519,114.021,116.523,122.526,127.53,132.534,140.031,142.029,144.531,147.033,152.037,157.041,159.543,164.043,169.047,174.051,179.055,181.557,186.561,191.565,194.067,196.569,201.573,206.577,211.581,216.585,219.087,221.107,227.11,231.61,236.11,241.114,246.118,248.62,253.624,258.628,261.13,265.63,270.634,272.632,277.132,279.634,284.638,289.642,292.144,294.646,299.65,304.654,309.658" svgx:width="0.67,0.56,0.56,0.83,0.22,0.5,0.5,0.22,0.56,0.56,0.28,0.56,0.22,0.5,0.28,0.56,0.33,0.5,0.28,0.28,0.67,0.56,0.56,0.83,0.22,0.28,0.28,0.56,0.56,0.28,0.5,0.56,0.56,0.56,0.28,0.56,0.56,0.28,0.28,0.56,0.56,0.56,0.56,0.28,0.28,0.67,0.5,0.5,0.56,0.56,0.28,0.56,0.56,0.28,0.5,0.56,0.22,0.5,0.28,0.56,0.56,0.28,0.28,0.56,0.56,0.56,0.56" style="fill:rgb(23,22,21);font-family:ArialMT;font-size:9.0px;stroke:none;">Submission history: Submitted June 22, 2015; Accepted July 27, 2015</text>
  </g>
  <g begin="text">
   <text y="224.175" x="36.0,42.003,44.001,49.005,53.505,56.007,59.004,64.008,69.012,71.01,75.51,80.514,82.512,84.51,89.01,91.512,96.516,101.52,106.524,108.522,110.52,115.02,120.024,125.028,130.032,132.534,139.536,144.036,146.538,151.542,156.546,161.55,164.547,167.049,172.053,177.057,179.559,182.061,187.065,192.069,197.073" svgx:width="0.67,0.22,0.56,0.5,0.28,0.33,0.56,0.56,0.22,0.5,0.56,0.22,0.22,0.5,0.28,0.56,0.56,0.56,0.22,0.22,0.5,0.56,0.56,0.56,0.28,0.78,0.5,0.28,0.56,0.56,0.56,0.33,0.28,0.56,0.56,0.28,0.28,0.56,0.56,0.56,0.56" style="fill:rgb(23,22,21);font-family:ArialMT;font-size:9.0px;stroke:none;">Electronically published October 20, 2015</text>
  </g>
  <g begin="text">
   <text y="234.975" x="36.0,41.499,46.503,48.501,50.499,53.001,55.503,60.507,65.007,67.509,70.011,75.015,79.515,84.519,86.517,88.515,93.519,98.523,100.521,105.525,108.027,110.529,115.533,118.53,123.534,128.538,133.542,138.546,141.048,146.052,151.056,156.06,161.064,163.566,168.57,173.07,177.57,182.574,187.074,191.574,194.076,199.08,201.582,204.084,209.088,211.59,214.092,219.096,221.598,224.1,226.602,231.606,236.106,240.606,245.61,250.614,252.612,257.616,260.613,265.113,270.117,272.115,277.119,279.621,284.625,287.622,292.626,295.128,300.132,304.632,307.134,312.138,316.638,318.636,323.64,331.137,336.141,342.639,347.643,352.143,354.645,356.643,361.647" svgx:width="0.61,0.56,0.22,0.22,0.28,0.28,0.56,0.5,0.28,0.28,0.56,0.5,0.56,0.22,0.22,0.56,0.56,0.22,0.56,0.28,0.28,0.56,0.33,0.56,0.56,0.56,0.56,0.28,0.56,0.56,0.56,0.56,0.28,0.56,0.5,0.5,0.56,0.5,0.5,0.28,0.56,0.28,0.28,0.56,0.28,0.28,0.56,0.28,0.28,0.28,0.56,0.5,0.5,0.56,0.56,0.22,0.56,0.33,0.5,0.56,0.22,0.56,0.28,0.56,0.33,0.56,0.28,0.56,0.5,0.28,0.56,0.5,0.22,0.56,0.83,0.56,0.72,0.56,0.5,0.28,0.22,0.56,0.83" style="fill:rgb(23,22,21);font-family:ArialMT;font-size:9.0px;stroke:none;">Full text available through open access at http://escholarship.org/uc/uciem_westjem</text>
  </g>
  <g begin="text">
   <text y="245.775" x="36.0,42.498,49.5,52.002,54.504,57.006,62.01,67.014,69.516,74.52,79.524,83.861,88.865,91.367,97.865,102.869,107.369,109.871,111.869,116.873,124.37,126.872,131.876,136.88,141.884,146.888,149.39,154.394,156.896,161.9,166.904,171.908,176.912" svgx:width="0.72,0.78,0.28,0.28,0.28,0.56,0.56,0.28,0.56,0.56,0.56,0.56,0.28,0.72,0.56,0.5,0.28,0.22,0.56,0.83,0.28,0.56,0.56,0.56,0.56,0.28,0.56,0.28,0.56,0.56,0.56,0.56,0.56" style="fill:rgb(23,22,21);font-family:ArialMT;font-size:9.0px;stroke:none;">DOI: 10.5811/westjem.2015.7.27915</text>
  </g>
  <g begin="text">
   <text y="286.765" x="90.0,98.746,101.077,106.915,112.753,115.084,120.922,123.841,130.845,136.683,141.933,144.852,147.771,151.268,157.105,162.355,168.193,170.524,174.021,179.859,182.778,188.616,192.113,197.363,200.282,205.532,210.782,216.62,222.458,225.954,231.792,240.539,246.377,249.296,252.792,261.539,268.542,276.123,283.127,286.623,289.542,291.873,297.123,300.042,305.88,308.799,314.637,320.475,325.725,331.563,333.894,336.813,339.144,344.982,347.901,353.739,358.989,361.908,364.239,370.077,375.915,381.165,384.084,389.922,392.253,397.503,403.341,409.179,414.429,420.267,423.186,428.436,434.274,440.112,445.362,451.2,457.038,459.957,465.795,471.045,473.964,479.802,482.721,487.971,493.809,497.306,503.144,508.982,514.82,520.07,522.401,525.897,531.735,536.985" svgx:width="0.83,0.22,0.56,0.56,0.22,0.56,0.28,0.67,0.56,0.5,0.28,0.28,0.33,0.56,0.5,0.56,0.22,0.33,0.56,0.28,0.56,0.33,0.5,0.28,0.5,0.5,0.56,0.56,0.33,0.56,0.83,0.56,0.28,0.33,0.83,0.67,0.72,0.67,0.33,0.28,0.22,0.5,0.28,0.56,0.28,0.56,0.56,0.5,0.56,0.22,0.28,0.22,0.56,0.28,0.56,0.5,0.28,0.22,0.56,0.56,0.5,0.28,0.56,0.22,0.5,0.56,0.56,0.5,0.56,0.28,0.5,0.56,0.56,0.5,0.56,0.56,0.28,0.56,0.5,0.28,0.56,0.28,0.5,0.56,0.33,0.56,0.56,0.56,0.5,0.22,0.33,0.56,0.5,0.28" style="fill:rgb(23,22,21);font-family:ArialMT;font-size:10.5px;stroke:none;">Middle East respiratory syndrome (MERS) is a novel infectious disease caused by a coronavirus </text>
  </g>
  <g begin="text">
   <text y="299.365" x="72.0,75.496,84.243,91.246,98.827,105.831,109.327,116.909,122.746,129.75,133.247,136.166,141.416,144.912,150.162,153.081,156.0,159.497,165.335,171.173,177.011,180.507,183.426,189.264,195.102,198.021,200.352,206.19,209.109,216.113,221.951,227.789,233.627,235.958,238.308,245.312,248.808,254.646,260.484,262.815,268.653,271.572,273.903,279.741,282.66,289.664,295.502,301.34,304.259,310.097,318.844,324.682,330.52,334.016,336.935,342.773,348.611,354.449,360.287,363.206,366.125,374.872,381.875,389.456,396.46,399.379,401.71,407.548,410.467,416.305,419.801,422.72,427.97,433.808,437.305,443.143,448.981,454.819,457.738,460.657,466.495,469.414,475.252,478.171,484.009,489.847,493.343,496.262,501.512,507.35,513.188,519.026,521.945,525.442,527.773,533.611,538.861" svgx:width="0.33,0.83,0.67,0.72,0.67,0.33,0.72,0.56,0.67,0.33,0.28,0.5,0.33,0.5,0.28,0.28,0.33,0.56,0.56,0.56,0.33,0.28,0.56,0.56,0.28,0.22,0.56,0.28,0.67,0.56,0.56,0.56,0.22,0.28,0.67,0.33,0.56,0.56,0.22,0.56,0.28,0.22,0.56,0.28,0.67,0.56,0.56,0.28,0.56,0.83,0.56,0.56,0.33,0.28,0.56,0.56,0.56,0.56,0.28,0.28,0.83,0.67,0.72,0.67,0.28,0.22,0.56,0.28,0.56,0.33,0.28,0.5,0.56,0.33,0.56,0.56,0.56,0.28,0.28,0.56,0.28,0.56,0.28,0.56,0.56,0.33,0.28,0.5,0.56,0.56,0.56,0.28,0.33,0.22,0.56,0.5,0.28" style="fill:rgb(23,22,21);font-family:ArialMT;font-size:10.5px;stroke:none;">(MERS-CoV) first reported in Saudi Arabia in September 2012. MERS later spread to other countries </text>
  </g>
  <g begin="text">
   <text y="311.965" x="72.0,74.331,80.169,83.088,86.007,91.845,97.683,100.023,107.027,110.523,116.361,122.199,124.53,130.368,136.206,139.125,146.129,151.967,157.805,160.136,165.974,171.224,177.062,179.393,185.231,188.15,191.069,193.988,199.826,202.157,204.488,210.326,217.907,223.745,229.583,232.502,238.34,243.59,246.509,252.347,258.185,261.104,266.942,272.78,275.699,281.537,285.033,290.871,296.709,301.959,304.878,307.209,313.047,315.966,322.97,328.808,334.646,337.565,343.403,346.322,353.326,359.164,362.66,368.498,374.336,377.255,379.586,385.424,388.343,394.181,400.019,405.857,411.695,414.614,416.993,423.997,426.916,429.835,432.166,438.004,443.842,449.092,452.011,454.93,460.768,466.606,469.525,474.775,480.613,486.451,492.289,495.208,498.705,501.036,506.874,512.124" svgx:width="0.22,0.56,0.28,0.28,0.56,0.56,0.28,0.67,0.33,0.56,0.56,0.22,0.56,0.56,0.28,0.67,0.56,0.56,0.22,0.56,0.5,0.56,0.22,0.56,0.28,0.28,0.28,0.56,0.22,0.22,0.56,0.72,0.56,0.56,0.28,0.56,0.5,0.28,0.56,0.56,0.28,0.56,0.56,0.28,0.56,0.33,0.56,0.56,0.5,0.28,0.22,0.56,0.28,0.67,0.56,0.56,0.28,0.56,0.28,0.67,0.56,0.33,0.56,0.56,0.28,0.22,0.56,0.28,0.56,0.56,0.56,0.56,0.28,0.28,0.67,0.28,0.28,0.22,0.56,0.56,0.5,0.28,0.28,0.56,0.56,0.28,0.5,0.56,0.56,0.56,0.28,0.33,0.22,0.56,0.5,0.28" style="fill:rgb(23,22,21);font-family:ArialMT;font-size:10.5px;stroke:none;">in the Arabian Peninsula, followed by an outbreak in South Korea in 2015. At least 26 countries </text>
  </g>
  <g begin="text">
   <text y="324.565" x="72.0,77.838,83.676,88.926,94.764,97.683,101.179,107.017,112.855,118.693,122.19,125.109,130.947,136.785,139.704,148.45,155.454,163.035,170.038,172.957,178.207,184.045,189.295,195.133,200.383,203.302,206.221,212.059,217.897,223.735,226.654,229.573,235.411,241.249,246.499,252.337,255.256,261.094,266.932,275.679,281.517,287.355,290.852,296.102,299.021,307.767,313.605,318.855,321.774,324.105,329.943,335.193,338.69,344.528,350.366,355.616,361.454,364.373,370.211,375.461,381.299,384.795,387.714,390.633,392.964,401.711,407.549,410.468,413.387,420.968,426.806,432.644,435.563,438.482,444.32,447.239,449.57,455.408,458.327,464.165,467.661,473.499,479.337,482.256,484.587,490.425,496.263,502.101,504.432" svgx:width="0.56,0.56,0.5,0.56,0.28,0.33,0.56,0.56,0.56,0.33,0.28,0.56,0.56,0.28,0.83,0.67,0.72,0.67,0.28,0.5,0.56,0.5,0.56,0.5,0.28,0.28,0.56,0.56,0.56,0.28,0.28,0.56,0.56,0.5,0.56,0.28,0.56,0.56,0.83,0.56,0.56,0.33,0.5,0.28,0.83,0.56,0.5,0.28,0.22,0.56,0.5,0.33,0.56,0.56,0.5,0.56,0.28,0.56,0.5,0.56,0.33,0.28,0.28,0.22,0.83,0.56,0.28,0.28,0.72,0.56,0.56,0.28,0.28,0.56,0.28,0.22,0.56,0.28,0.56,0.33,0.56,0.56,0.28,0.22,0.56,0.56,0.56,0.22,0.28" style="fill:rgb(23,22,21);font-family:ArialMT;font-size:10.5px;stroke:none;">have reported MERS cases, and these numbers may increase over time. Due to international </text>
  </g>
  <g begin="text">
   <text y="337.165" x="72.0,74.919,78.415,84.253,89.503,95.341,97.672,100.591,106.429,112.267,118.105,123.943,127.44,130.359,136.197,142.035,144.366,147.285,149.616,155.454,160.704,163.623,166.542,172.38,174.711,177.042,179.961,185.211,191.049,196.887,202.725,205.644,209.14,211.471,217.309,222.559,225.478,231.316,234.813,240.651,243.57,249.408,252.327,255.246,258.742,261.073,266.323,271.573,274.492,280.331,283.25,286.169,288.5,297.246,303.084,308.922,312.419,315.338,321.176,327.014,329.933,335.183,341.021,346.271,352.109,357.359,360.278,366.116,369.035,371.954,380.7,387.704,395.285,402.288,405.207,408.126,413.964,419.214,425.052,430.89,433.809,436.14,439.059,441.978,447.816,453.654,456.573,462.411,465.908,471.746,477.584,482.834,488.084,491.003,496.841,502.679,505.598,511.436,517.274,520.193" svgx:width="0.28,0.33,0.56,0.5,0.56,0.22,0.28,0.56,0.56,0.56,0.56,0.33,0.28,0.56,0.56,0.22,0.28,0.22,0.56,0.5,0.28,0.28,0.56,0.22,0.22,0.28,0.5,0.56,0.56,0.56,0.28,0.33,0.22,0.56,0.5,0.28,0.56,0.33,0.56,0.28,0.56,0.28,0.28,0.33,0.22,0.5,0.5,0.28,0.56,0.28,0.28,0.22,0.83,0.56,0.56,0.33,0.28,0.56,0.56,0.28,0.5,0.56,0.5,0.56,0.5,0.28,0.56,0.28,0.28,0.83,0.67,0.72,0.67,0.28,0.28,0.56,0.5,0.56,0.56,0.28,0.22,0.28,0.28,0.56,0.56,0.28,0.56,0.33,0.56,0.56,0.5,0.5,0.28,0.56,0.56,0.28,0.56,0.56,0.28,0.28" style="fill:rgb(23,22,21);font-family:ArialMT;font-size:10.5px;stroke:none;">travel opportunities, all countries are at risk of imported cases of MERS, even if outbreaks do not </text>
  </g>
  <g begin="text">
   <text y="349.765" x="72.0,77.25,83.088,86.584,92.422,98.26,104.098,107.017,112.855,115.186,121.024,126.862,132.7,135.031,137.362,141.849,144.768,147.494,153.909,159.747,165.585,169.082,174.92,177.839,183.677,187.173,193.011,195.93,198.849,201.18,204.099,207.018,209.349,214.599,217.518,223.356,228.606,233.856,239.694,245.532,248.451,250.782,256.62,258.951,261.87,264.789,270.627,274.124,277.043,282.881,291.627,297.465,300.962,306.8,312.638,318.476,323.726,328.976,331.895,337.733,343.571,349.409,355.247,358.744,361.663,370.409,376.247,382.085,385.004,387.923,391.42,398.423,406.004,409.501,412.42,418.258,424.096,427.592,432.842,438.68,444.518,450.356,456.194,458.525,461.444,464.363,470.201,473.12,478.958,484.796,487.715,493.553,499.391,501.722,507.56,510.479,513.398,519.236" svgx:width="0.5,0.56,0.33,0.56,0.56,0.56,0.28,0.56,0.22,0.56,0.56,0.56,0.22,0.22,0.5,0.28,0.28,0.61,0.56,0.56,0.33,0.56,0.28,0.56,0.33,0.56,0.28,0.28,0.22,0.28,0.28,0.22,0.5,0.28,0.56,0.5,0.5,0.56,0.56,0.28,0.22,0.56,0.22,0.28,0.28,0.56,0.33,0.28,0.56,0.83,0.56,0.33,0.56,0.56,0.56,0.5,0.5,0.28,0.56,0.56,0.56,0.56,0.33,0.28,0.83,0.56,0.56,0.28,0.28,0.33,0.67,0.72,0.33,0.28,0.56,0.56,0.33,0.5,0.56,0.56,0.56,0.56,0.22,0.28,0.28,0.56,0.28,0.56,0.56,0.28,0.56,0.56,0.22,0.56,0.28,0.28,0.56,0.28" style="fill:rgb(23,22,21);font-family:ArialMT;font-size:10.5px;stroke:none;">spread globally. Therefore, it is essential for emergency department (ED) personnel to be able to </text>
  </g>
  <g begin="text">
   <text y="362.365" x="72.0,75.496,81.334,87.172,89.503,95.341,97.672,102.922,105.841,111.679,116.929,122.179,128.017,133.267,138.517,141.436,150.183,157.186,164.767,171.771,174.69,178.186,180.517,185.767,191.017,193.936,199.774,205.612,211.45,214.369,217.288,223.126,228.376,234.214,237.133,239.464,248.211,256.957,262.796,268.634,270.965,276.803,279.722,285.56,288.479,294.317,299.567,302.486,304.817,310.655,316.493,321.743,324.662,326.993,329.912,332.831,335.162,341.0,346.838,349.169,354.419,360.257,363.176,369.014,374.852,377.771,380.525,386.94,392.778,398.616,401.535,404.454,410.292,416.13,421.968,424.887,427.218,430.137,435.387,438.884,441.803,447.053,452.891,455.222,461.06,463.979,469.817,473.313,476.232,482.07,484.989,490.827,494.324,503.07,505.989,509.486,515.324,518.243,521.739" svgx:width="0.33,0.56,0.56,0.22,0.56,0.22,0.5,0.28,0.56,0.5,0.5,0.56,0.5,0.5,0.28,0.83,0.67,0.72,0.67,0.28,0.33,0.22,0.5,0.5,0.28,0.56,0.56,0.56,0.28,0.28,0.56,0.5,0.56,0.28,0.22,0.83,0.83,0.56,0.56,0.22,0.56,0.28,0.56,0.28,0.56,0.5,0.28,0.22,0.56,0.56,0.5,0.28,0.22,0.28,0.28,0.22,0.56,0.56,0.22,0.5,0.56,0.28,0.56,0.56,0.28,0.28,0.61,0.56,0.56,0.28,0.28,0.56,0.56,0.56,0.28,0.22,0.28,0.5,0.33,0.28,0.5,0.56,0.22,0.56,0.28,0.56,0.33,0.28,0.56,0.28,0.56,0.33,0.83,0.28,0.33,0.56,0.28,0.33,0.28" style="fill:rgb(23,22,21);font-family:ArialMT;font-size:10.5px;stroke:none;">rapidly assess MERS risk and take immediate actions if indicated. The Identify-Isolate-Inform (3I) </text>
  </g>
  <g begin="text">
   <text y="374.965" x="72.0,74.919,80.757,86.595,88.926,91.845,94.764,100.602,104.098,106.429,112.267,114.598,120.436,126.274,128.605,130.936,136.186,139.105,144.355,150.193,156.031,161.281,167.119,169.45,174.7,180.538,186.376,189.295,192.214,198.052,201.549,204.468,206.799,212.637,214.968,217.887,220.218,226.056,228.387,231.306,237.144,242.982,245.901,251.739,256.989,259.908,262.239,268.077,273.915,276.834,282.672,288.51,294.348,297.267,306.014,311.852,317.69,323.528,329.366,335.204,343.95,349.788,355.626,358.545,361.464,367.302,370.221,373.14,380.144,385.982,391.82,394.151,399.989,402.908,408.158,410.489,413.985,419.823,425.073,427.992,433.83,436.161,441.411,447.249,453.087,458.337,464.175,467.094,472.932,478.77,481.689,484.02,489.858,495.696,498.615,503.865,506.784,509.115,514.953,517.872,520.791,526.629,532.467" svgx:width="0.28,0.56,0.56,0.22,0.28,0.28,0.56,0.33,0.22,0.56,0.22,0.56,0.56,0.22,0.22,0.5,0.28,0.5,0.56,0.56,0.5,0.56,0.22,0.5,0.56,0.56,0.28,0.28,0.56,0.33,0.28,0.22,0.56,0.22,0.28,0.22,0.56,0.22,0.28,0.56,0.56,0.28,0.56,0.5,0.28,0.22,0.56,0.56,0.28,0.56,0.56,0.56,0.28,0.83,0.56,0.56,0.56,0.56,0.56,0.83,0.56,0.56,0.28,0.28,0.56,0.28,0.28,0.67,0.56,0.56,0.22,0.56,0.28,0.5,0.22,0.33,0.56,0.5,0.28,0.56,0.22,0.5,0.56,0.56,0.5,0.56,0.28,0.56,0.56,0.28,0.22,0.56,0.56,0.28,0.5,0.28,0.22,0.56,0.28,0.28,0.56,0.56,0.28" style="fill:rgb(23,22,21);font-family:ArialMT;font-size:10.5px;stroke:none;">tool, originally conceived for initial detection and management of Ebola virus disease patients in the </text>
  </g>
  <g begin="text">
   <text y="387.565" x="72.0,79.004,86.585,89.504,95.341,101.179,107.017,109.936,112.267,118.105,121.024,126.862,130.359,133.278,139.116,144.954,147.285,153.123,158.373,161.292,167.13,172.968,175.887,178.806,184.644,188.141,191.06,199.806,205.644,211.482,216.732,219.063,224.901,230.151,233.07,235.989,241.239,247.077,252.915,255.834,261.672,267.51,270.429,276.267,282.105,287.943,293.781,296.7,302.538,308.376,311.295,314.214,320.052,323.549,326.468,329.964,335.802,341.64,343.971,347.468,350.387,352.718,361.464,367.302,370.221,376.059,381.309,387.147,390.066,392.985,398.823,402.32,405.239,411.077,416.915,422.165,425.084,430.922,439.668,445.506,449.003,454.841,457.172,463.01,468.848,471.767,474.098,479.936,482.855,488.693,493.943,496.862,499.193,505.031,510.869,516.119" svgx:width="0.67,0.72,0.28,0.56,0.56,0.56,0.28,0.22,0.56,0.28,0.56,0.33,0.28,0.56,0.56,0.22,0.56,0.5,0.28,0.56,0.56,0.28,0.28,0.56,0.33,0.28,0.83,0.56,0.56,0.5,0.22,0.56,0.5,0.28,0.28,0.5,0.56,0.56,0.28,0.56,0.56,0.28,0.56,0.56,0.56,0.56,0.28,0.56,0.56,0.28,0.28,0.56,0.33,0.28,0.33,0.56,0.56,0.22,0.33,0.28,0.22,0.83,0.56,0.28,0.56,0.5,0.56,0.28,0.28,0.56,0.33,0.28,0.56,0.56,0.5,0.28,0.56,0.83,0.56,0.33,0.56,0.22,0.56,0.56,0.28,0.22,0.56,0.28,0.56,0.5,0.28,0.22,0.56,0.56,0.5,0.28" style="fill:rgb(23,22,21);font-family:ArialMT;font-size:10.5px;stroke:none;">ED and later adjusted for measles, can be adapted for real-time use for any emerging infectious </text>
  </g>
  <g begin="text">
   <text y="400.165" x="72.0,77.838,80.169,85.419,91.257,97.095,102.345,108.183,111.102,113.836,120.252,126.09,128.421,133.671,136.59,142.428,148.266,154.104,159.942,163.438,166.357,169.854,175.692,181.53,187.368,190.864,193.783,199.033,201.952,207.79,210.709,219.456,225.294,231.132,233.463,238.713,243.963,249.801,252.72,255.051,260.889,266.727,269.646,275.484,278.403,281.322,284.241,290.079,295.917,298.836,304.674,307.593,310.512,313.431,319.269,325.107,327.438,330.357,333.276,339.114,342.61,345.529,351.367,356.617,362.455,365.374,367.705,373.543,376.462,378.793,384.631,386.962,389.881,392.212,398.05,400.381,403.3,409.138,414.976,417.895,423.733,428.983,431.902,434.233,440.071,445.909,448.828,454.667,460.505,466.343,469.262,478.008,483.846,489.684,495.522,501.36,507.198,515.945,521.783,527.621,530.54" svgx:width="0.56,0.22,0.5,0.56,0.56,0.5,0.56,0.28,0.28,0.61,0.56,0.22,0.5,0.28,0.56,0.56,0.56,0.56,0.33,0.28,0.33,0.56,0.56,0.56,0.33,0.28,0.5,0.28,0.56,0.28,0.83,0.56,0.56,0.22,0.5,0.5,0.56,0.28,0.22,0.56,0.56,0.28,0.56,0.28,0.28,0.28,0.56,0.56,0.28,0.56,0.28,0.28,0.28,0.56,0.56,0.22,0.28,0.28,0.56,0.33,0.28,0.56,0.5,0.56,0.28,0.22,0.56,0.28,0.22,0.56,0.22,0.28,0.22,0.56,0.22,0.28,0.56,0.56,0.28,0.56,0.5,0.28,0.22,0.56,0.56,0.28,0.56,0.56,0.56,0.28,0.83,0.56,0.56,0.56,0.56,0.56,0.83,0.56,0.56,0.28,0.28" style="fill:rgb(23,22,21);font-family:ArialMT;font-size:10.5px;stroke:none;">disease. This paper reports a modification of the 3I tool for use in initial detection and management </text>
  </g>
  <g begin="text">
   <text y="412.765" x="72.0,77.838,80.757,83.676,89.514,95.352,98.271,100.602,106.44,112.278,115.197,120.447,123.366,129.204,135.042,140.88,146.718,150.214,153.133,155.464,161.302,166.552,172.39,177.64,180.559,182.89,188.728,194.566,197.485,199.816,205.654,211.492,214.411,217.33,223.168,226.665,229.584,238.33,245.334,252.915,259.918,262.837,265.757,272.172,278.01,280.341,282.672,288.51,296.091,298.422,304.26,310.098,313.017,318.855,324.693,327.612,333.45,338.7,343.95,349.788,355.038,360.288,369.035,374.873,380.711,383.63,386.549,392.387,395.306,398.225,404.063,409.901,412.232,418.07,423.908,432.654,434.985,440.823,443.154,448.992,454.83,457.161,462.411,465.33,468.827,471.158,476.408,481.658,484.577,487.496,493.334,498.584,501.503,507.341,510.837,516.087,519.006" svgx:width="0.56,0.28,0.28,0.56,0.56,0.28,0.22,0.56,0.56,0.28,0.5,0.28,0.56,0.56,0.56,0.56,0.33,0.28,0.22,0.56,0.5,0.56,0.5,0.28,0.22,0.56,0.56,0.28,0.22,0.56,0.56,0.28,0.28,0.56,0.33,0.28,0.83,0.67,0.72,0.67,0.28,0.28,0.61,0.56,0.22,0.22,0.56,0.72,0.22,0.56,0.56,0.28,0.56,0.56,0.28,0.56,0.5,0.5,0.56,0.5,0.5,0.83,0.56,0.56,0.28,0.28,0.56,0.28,0.28,0.56,0.56,0.22,0.56,0.56,0.83,0.22,0.56,0.22,0.56,0.56,0.22,0.5,0.28,0.33,0.22,0.5,0.5,0.28,0.28,0.56,0.5,0.28,0.56,0.33,0.5,0.28,0.28" style="fill:rgb(23,22,21);font-family:ArialMT;font-size:10.5px;stroke:none;">of patients under investigation for MERS. Following an assessment of epidemiologic risk factors, </text>
  </g>
  <g begin="text">
   <text y="425.365" x="72.0,74.331,80.169,85.419,87.75,93.588,99.426,101.757,107.595,113.433,116.315,119.234,122.731,128.569,133.819,139.657,141.988,144.858,147.777,153.615,156.484,161.734,167.572,173.41,179.248,182.167,185.664,187.995,193.833,199.083,201.959,209.54,211.87,214.79,220.628,223.5,228.75,234.588,238.085,241.581,247.419,253.257,256.176,259.049,267.796,274.799,282.38,289.384,292.254,295.173,298.67,304.508,310.346,315.596,324.342,326.673,331.923,337.173,339.504,345.342,351.18,354.054,359.892,365.73,371.568,374.443,379.693,385.531,391.369,394.288,400.126,405.376,408.295,411.165,418.746,421.077,423.996,429.834,432.707,438.545,444.383,447.302,449.633,455.471,461.309,464.228,469.478,472.352,479.933,482.264,485.183,491.021,493.893,499.143,504.981,510.819,516.069,519.566,528.313,534.151,539.989" svgx:width="0.22,0.56,0.5,0.22,0.56,0.56,0.22,0.56,0.56,0.28,0.28,0.33,0.56,0.5,0.56,0.22,0.28,0.28,0.56,0.28,0.5,0.56,0.56,0.56,0.28,0.33,0.22,0.56,0.5,0.28,0.72,0.22,0.28,0.56,0.28,0.5,0.56,0.33,0.33,0.56,0.56,0.28,0.28,0.83,0.67,0.72,0.67,0.28,0.28,0.33,0.56,0.56,0.5,0.83,0.22,0.5,0.5,0.22,0.56,0.56,0.28,0.56,0.56,0.56,0.28,0.5,0.56,0.56,0.28,0.56,0.5,0.28,0.28,0.72,0.22,0.28,0.56,0.28,0.56,0.56,0.28,0.22,0.56,0.56,0.28,0.5,0.28,0.72,0.22,0.28,0.56,0.28,0.5,0.56,0.56,0.5,0.33,0.83,0.56,0.56,0.28" style="fill:rgb(23,22,21);font-family:ArialMT;font-size:10.5px;stroke:none;">including travel to countries with current MERS transmission and contact with patients with confirmed </text>
  </g>
  <g begin="text">
   <text y="437.965" x="72.0,80.746,87.75,95.331,102.335,105.254,112.835,115.166,118.085,123.923,126.254,132.092,135.011,140.849,146.687,149.606,155.444,161.282,166.532,171.782,174.701,177.62,183.458,189.296,192.215,194.546,200.384,206.222,209.141,214.391,217.31,223.148,226.644,232.482,235.401,238.898,241.229,246.479,251.729,254.648,259.898,262.817,266.313,272.151,275.07,277.401,282.651,288.489,294.327,297.246,303.084,308.334,311.253,314.172,319.422,325.26,331.098,334.017,339.855,342.774,345.693,351.531,356.781,362.619,368.457,373.707,379.545,383.042,388.88,391.799,397.049,402.887,408.725,414.563,416.894,422.732,428.57,431.489,439.07,441.401,444.32,450.158,453.077,458.327,463.577,472.323,478.161,481.08,486.918,495.665,500.915,503.834,509.672,512.591,515.51,518.429,524.267,529.517,535.355,538.851" svgx:width="0.83,0.67,0.72,0.67,0.28,0.72,0.22,0.28,0.56,0.22,0.56,0.28,0.56,0.56,0.28,0.56,0.56,0.5,0.5,0.28,0.28,0.56,0.56,0.28,0.22,0.56,0.56,0.28,0.5,0.28,0.56,0.33,0.56,0.28,0.33,0.22,0.5,0.5,0.28,0.5,0.28,0.33,0.56,0.28,0.22,0.5,0.56,0.56,0.28,0.56,0.5,0.28,0.28,0.5,0.56,0.56,0.28,0.56,0.28,0.28,0.56,0.5,0.56,0.56,0.5,0.56,0.33,0.56,0.28,0.5,0.56,0.56,0.56,0.22,0.56,0.56,0.28,0.72,0.22,0.28,0.56,0.28,0.5,0.5,0.83,0.56,0.28,0.56,0.83,0.5,0.28,0.56,0.28,0.28,0.28,0.56,0.5,0.56,0.33,0.28" style="fill:rgb(23,22,21);font-family:ArialMT;font-size:10.5px;stroke:none;">MERS within 14 days, patients are risk stratified by type of exposure coupled with symptoms of fever </text>
  </g>
  <g begin="text">
   <text y="450.565" x="72.0,77.838,83.676,89.514,92.433,95.929,101.767,107.017,112.855,115.186,118.683,124.521,127.44,133.278,136.774,142.024,144.943,147.274,149.605,151.936,157.774,163.612,168.862,174.112,177.031,179.95,182.869,185.788,188.708,193.958,197.454,199.785,202.704,208.542,212.039,214.37,220.208,223.127,228.965,232.461,238.299,241.218,249.965,255.803,258.722,261.641,264.56,270.398,276.236,279.155,281.486,287.324,293.162,296.081,301.331,304.25,312.996,318.834,324.084,327.003,329.922,335.76,341.598,344.517,346.848,355.595,364.341,370.179,376.017,378.348,384.186,387.105,392.943,395.274,400.524,403.443,409.281,411.612,417.45,422.7,428.538,434.376,437.295,439.626,445.464,448.383,454.221,457.14,462.978,465.309,468.806,474.644,480.482,483.978,489.816,495.654,498.573,500.904,506.742,509.661,515.499,520.749,523.668,525.999,531.837,537.675" svgx:width="0.56,0.56,0.56,0.28,0.33,0.56,0.5,0.56,0.22,0.33,0.56,0.28,0.56,0.33,0.5,0.28,0.22,0.22,0.22,0.56,0.56,0.5,0.5,0.28,0.28,0.28,0.28,0.28,0.5,0.33,0.22,0.28,0.56,0.33,0.22,0.56,0.28,0.56,0.33,0.56,0.28,0.83,0.56,0.28,0.28,0.28,0.56,0.56,0.28,0.22,0.56,0.56,0.28,0.5,0.28,0.83,0.56,0.5,0.28,0.28,0.56,0.56,0.28,0.22,0.83,0.83,0.56,0.56,0.22,0.56,0.28,0.56,0.22,0.5,0.28,0.56,0.22,0.56,0.5,0.56,0.56,0.28,0.22,0.56,0.28,0.56,0.28,0.56,0.22,0.33,0.56,0.56,0.33,0.56,0.56,0.28,0.22,0.56,0.28,0.56,0.5,0.28,0.22,0.56,0.56,0.28" style="fill:rgb(23,22,21);font-family:ArialMT;font-size:10.5px;stroke:none;">and respiratory illness. If criteria are met, patients must be immediately placed into airborne infection </text>
  </g>
  <g begin="text">
   <text y="463.165" x="72.0,74.331,79.581,85.419,87.75,93.588,96.507,98.838,104.676,110.514,113.433,116.929,122.767,126.264,129.183,135.021,137.94,143.778,147.274,149.605,154.855,160.693,163.612,169.45,172.369,175.866,181.704,187.542,196.288,199.208,205.046,210.883,213.803,216.133,218.464,221.383,224.303,230.141,232.471,237.721,240.641,243.56,248.81,254.648,260.486,263.405,269.243,272.162,275.081,277.412,282.662,288.5,290.831,296.669,299.588,301.919,307.757,313.595,316.514,318.845,324.095,327.014,332.852,338.102,343.94,346.271,348.602,354.44,360.278,362.609,368.447,371.943,374.862,380.7,386.538,392.376,395.295,398.214,404.052,409.89,412.809,418.647,427.394,433.232,436.728,442.566,448.404,454.242,459.492,464.742,467.661,473.499,476.996,482.834,488.084,491.003,493.334,496.253,498.584,504.422,510.26,516.098,519.594" svgx:width="0.22,0.5,0.56,0.22,0.56,0.28,0.22,0.56,0.56,0.28,0.33,0.56,0.33,0.28,0.56,0.28,0.56,0.33,0.22,0.5,0.56,0.28,0.56,0.28,0.33,0.56,0.56,0.83,0.28,0.56,0.56,0.28,0.22,0.22,0.28,0.28,0.56,0.22,0.5,0.28,0.28,0.5,0.56,0.56,0.28,0.56,0.28,0.28,0.22,0.5,0.56,0.22,0.56,0.28,0.22,0.56,0.56,0.28,0.22,0.5,0.28,0.56,0.5,0.56,0.22,0.22,0.56,0.56,0.22,0.56,0.33,0.28,0.56,0.56,0.56,0.28,0.28,0.56,0.56,0.28,0.56,0.83,0.56,0.33,0.56,0.56,0.56,0.5,0.5,0.28,0.56,0.33,0.56,0.5,0.28,0.22,0.28,0.22,0.56,0.56,0.56,0.33,0.28" style="fill:rgb(23,22,21);font-family:ArialMT;font-size:10.5px;stroke:none;">isolation (or a private room until this type of isolation is available) and the emergency practitioner </text>
  </g>
  <g begin="text">
   <text y="475.765" x="72.0,80.746,86.584,91.834,94.753,97.672,103.51,105.841,111.679,115.176,118.095,121.014,123.933,129.771,135.609,138.528,144.366,150.204,155.454,161.292,163.623,166.542,172.38,174.711,177.63,179.961,185.799,188.718,194.556,199.806,202.725,205.056,210.894,216.732,219.651,225.489,228.985,234.823,240.073,245.911,251.749,254.668,256.999,262.837,268.676,271.595,277.433,283.271,289.109,292.028,297.278,303.116,308.954,311.873,315.369,321.207,323.538,326.457,329.376,335.214,341.052,349.799,352.718,358.556,364.394,370.232,373.151,376.07,381.908,387.746,390.665,392.996,398.834,404.084,409.922,412.253,415.172,421.01,426.848,432.686,435.017,437.348,442.598,445.517,451.355,457.193,463.031,465.362,468.281,474.119,477.038,482.876,488.714,494.552,500.39,503.886,506.805,515.552,521.39,527.228,530.147,533.066" svgx:width="0.83,0.56,0.5,0.28,0.28,0.56,0.22,0.56,0.33,0.28,0.28,0.28,0.56,0.56,0.28,0.56,0.56,0.5,0.56,0.22,0.28,0.56,0.22,0.28,0.22,0.56,0.28,0.56,0.5,0.28,0.22,0.56,0.56,0.28,0.56,0.33,0.56,0.5,0.56,0.56,0.28,0.22,0.56,0.56,0.28,0.56,0.56,0.56,0.28,0.5,0.56,0.56,0.28,0.33,0.56,0.22,0.28,0.28,0.56,0.56,0.83,0.28,0.56,0.56,0.56,0.28,0.28,0.56,0.56,0.28,0.22,0.56,0.5,0.56,0.22,0.28,0.56,0.56,0.56,0.22,0.22,0.5,0.28,0.56,0.56,0.56,0.22,0.28,0.56,0.28,0.56,0.56,0.56,0.56,0.33,0.28,0.83,0.56,0.56,0.28,0.28,0.28" style="fill:rgb(23,22,21);font-family:ArialMT;font-size:10.5px;stroke:none;">must alert the hospital infection prevention and control team and the local public health department. </text>
  </g>
  <g begin="text">
   <text y="488.365" x="72.0,78.415,84.253,90.091,93.01,98.848,101.767,104.686,107.605,113.443,119.281,121.612,124.531,132.112,134.443,136.774,139.105,142.024,144.943,150.781,156.031,158.362,160.693,163.024,165.943,171.781,174.7,180.538,183.457,186.954,192.792,198.63,200.961,206.799,209.718,214.968,220.806,223.725,229.563,235.401,241.239,244.735,247.066,252.316,258.154,261.073,263.404,269.242,275.08,277.999,283.837,289.676,295.514,298.433,301.352,304.848,307.179,313.017,318.855,324.693,328.19,330.521,336.359,342.197,345.116,350.954,353.873,356.792,362.63,368.468,374.306,377.802,383.64,389.478,392.975,395.306,401.144,404.063,409.901,412.82,415.739,418.07,426.816,432.654,436.151,441.401,447.239,453.077,458.327,460.658,463.577,465.908,471.158,476.996,479.915,485.753,491.003,493.922,496.253,502.091,507.929,513.179,516.098,519.017,524.855,528.351" svgx:width="0.61,0.56,0.56,0.28,0.56,0.28,0.28,0.28,0.56,0.56,0.22,0.28,0.72,0.22,0.22,0.22,0.28,0.28,0.56,0.5,0.22,0.22,0.22,0.28,0.56,0.28,0.56,0.28,0.33,0.56,0.56,0.22,0.56,0.28,0.5,0.56,0.28,0.56,0.56,0.56,0.33,0.22,0.5,0.56,0.28,0.22,0.56,0.56,0.28,0.56,0.56,0.56,0.28,0.28,0.33,0.22,0.56,0.56,0.56,0.33,0.22,0.56,0.56,0.28,0.56,0.28,0.28,0.56,0.56,0.56,0.33,0.56,0.56,0.33,0.22,0.56,0.28,0.56,0.28,0.28,0.22,0.83,0.56,0.33,0.5,0.56,0.56,0.5,0.22,0.28,0.22,0.5,0.56,0.28,0.56,0.5,0.28,0.22,0.56,0.56,0.5,0.28,0.28,0.56,0.33,0.28" style="fill:rgb(23,22,21);font-family:ArialMT;font-size:10.5px;stroke:none;">The 3I tool will facilitate rapid categorization and triggering of appropriate time-sensitive actions for </text>
  </g>
  <g begin="text">
   <text y="500.965" x="72.0,77.838,83.676,86.595,88.926,94.764,100.602,103.521,108.771,111.69,117.528,121.024,126.862,132.112,137.95,143.788,146.707,149.038,154.876,160.714,163.633,166.552,172.39,175.309,178.229,184.066,189.904,192.824,199.827,207.408,210.327,216.165,219.084,222.003,225.5,227.831,233.081,238.331,241.25,244.169,250.007,253.503,256.422,265.169,272.172,279.753,286.757,289.676,292.595,295.514,305.235,311.073,316.323,319.242,322.161,327.411,330.331,337.334,346.081,351.919,355.415,361.253,364.172,372.919,378.757,384.595,387.514,390.433,396.271,402.109,407.947,413.785,416.704,422.542,428.38,431.876,437.714,441.211,444.13,449.968,455.806,461.644,465.14,470.978,476.816,482.654,485.573" svgx:width="0.56,0.56,0.28,0.22,0.56,0.56,0.28,0.5,0.28,0.56,0.33,0.56,0.5,0.56,0.56,0.28,0.22,0.56,0.56,0.28,0.28,0.56,0.28,0.28,0.56,0.56,0.28,0.67,0.72,0.28,0.56,0.28,0.28,0.33,0.22,0.5,0.5,0.28,0.28,0.56,0.33,0.28,0.83,0.67,0.72,0.67,0.28,0.28,0.28,0.94,0.56,0.5,0.28,0.28,0.5,0.28,0.67,0.83,0.56,0.33,0.56,0.28,0.83,0.56,0.56,0.28,0.28,0.56,0.56,0.56,0.56,0.28,0.56,0.56,0.33,0.56,0.33,0.28,0.56,0.56,0.56,0.33,0.56,0.56,0.56,0.28,0.28" style="fill:rgb(23,22,21);font-family:ArialMT;font-size:10.5px;stroke:none;">patients presenting to the ED at risk for MERS. [West J Emerg Med. 2015;16(5):619-624.]</text>
  </g>
  <g begin="text">
   <text y="567.271" x="36.0,40.084,47.666,54.669,62.25,70.419,78.0,85.581,93.162,100.166,104.25,112.419" svgx:width="0.39,0.72,0.67,0.72,0.78,0.72,0.72,0.72,0.67,0.39,0.78,0.72" style="fill:rgb(23,22,21);font-family:TimesNewRomanPS-BoldMT;font-size:10.5px;stroke:none;">INTRODUCTION</text>
  </g>
  <g begin="text">
   <text y="579.871" x="54.0,63.229,66.044,71.188,76.333,79.147,83.704,86.224,92.535,97.092,101.071,103.885,106.405,109.797,114.354,118.333,123.478,126.292,129.684,134.241,137.055,142.2,145.591,150.736,153.257,157.236,162.381,167.526,172.671,176.063,181.208,189.272,193.829,196.349,200.906,206.051,209.442,214.587,219.732,224.289,229.434,232.248,235.64,240.785,244.764,247.284,250.676,259.905,266.216,273.114,278.847" svgx:width="0.89,0.28,0.5,0.5,0.28,0.44,0.25,0.61,0.44,0.39,0.28,0.25,0.33,0.44,0.39,0.5,0.28,0.33,0.44,0.28,0.5,0.33,0.5,0.25,0.39,0.5,0.5,0.5,0.33,0.5,0.78,0.44,0.25,0.44,0.5,0.33,0.5,0.5,0.44,0.5,0.28,0.33,0.5,0.39,0.25,0.33,0.89,0.61,0.67,0.56,0.33" style="fill:rgb(23,22,21);font-family:TimesNewRomanPSMT;font-size:10.5px;stroke:none;">Middle East respiratory syndrome coronavirus (MERS-</text>
  </g>
  <g begin="text">
   <text y="592.471" x="36.0,42.898,48.043,55.52,58.911,61.431,64.245,68.225,70.744,75.301,77.821,82.966,87.523,94.999,97.519,100.911,105.468,109.447,114.592,117.406,120.798,125.355,128.169,133.314,136.705,141.85,144.37,149.516,152.329,155.721,160.866,164.846,167.366,170.18,175.325,179.882,182.696,185.216,192.692,197.249,201.228,203.748,209.481,212.873,216.852,219.666,222.186,225.578,230.135,235.28,240.425,243.816,246.63,251.187,256.332,258.852,261.666,266.811,269.331,275.064,279.621,284.766,289.911,292.829" svgx:width="0.67,0.5,0.72,0.33,0.25,0.28,0.39,0.25,0.44,0.25,0.5,0.44,0.72,0.25,0.33,0.44,0.39,0.5,0.28,0.33,0.44,0.28,0.5,0.33,0.5,0.25,0.5,0.28,0.33,0.5,0.39,0.25,0.28,0.5,0.44,0.28,0.25,0.72,0.44,0.39,0.25,0.56,0.33,0.39,0.28,0.25,0.33,0.44,0.5,0.5,0.33,0.28,0.44,0.5,0.25,0.28,0.5,0.25,0.56,0.44,0.5,0.5,0.28,0.25" style="fill:rgb(23,22,21);font-family:TimesNewRomanPSMT;font-size:10.5px;stroke:none;">CoV) is a new respiratory virus that was first reported in Saudi </text>
  </g>
  <g begin="text">
   <text y="605.071" x="36.0,43.476,46.868,51.424,56.569,59.383,63.94,66.46,69.274,74.419,76.939,82.672,87.229,92.374,95.188,99.745,107.809,112.954,117.511,120.903,123.423,128.568,133.713,138.858,144.003,146.523,149.043,156.519,161.076,165.633,168.447,171.261,176.406,178.926,184.071,187.463,193.196,197.753,200.567,205.124,207.938,211.917,214.437,217.251,221.808,224.622,229.179,232.571,235.091,240.236,244.793,247.607,252.164,255.555,263.619,266.433,271.578,276.135,281.385" svgx:width="0.72,0.33,0.44,0.5,0.28,0.44,0.25,0.28,0.5,0.25,0.56,0.44,0.5,0.28,0.44,0.78,0.5,0.44,0.33,0.25,0.5,0.5,0.5,0.5,0.25,0.25,0.72,0.44,0.44,0.28,0.28,0.5,0.25,0.5,0.33,0.56,0.44,0.28,0.44,0.28,0.39,0.25,0.28,0.44,0.28,0.44,0.33,0.25,0.5,0.44,0.28,0.44,0.33,0.78,0.28,0.5,0.44,0.5,0.25" style="fill:rgb(23,22,21);font-family:TimesNewRomanPSMT;font-size:10.5px;stroke:none;">Arabia in September 2012. Health officials later determined </text>
  </g>
  <g begin="text">
   <text y="617.671" x="36.0,38.814,43.959,48.516,51.33,53.85,56.664,61.809,66.366,68.886,74.619,78.01,81.99,84.804,87.324,92.469,97.614,102.759,110.235,115.38,117.9,122.457,127.014,130.993,135.55,139.53,142.05,147.195,150.587,153.107,162.336,168.646,175.545,181.278,183.798,188.943,193.5,198.057,203.202,206.594,209.985,214.542,219.687,222.207,225.021,230.166,232.686,236.666,241.811,245.202,250.347,254.904,260.049,262.569,265.383,270.528,272.468,279.944,285.089,288.481,291.295,294.212" svgx:width="0.28,0.5,0.44,0.28,0.25,0.28,0.5,0.44,0.25,0.56,0.33,0.39,0.28,0.25,0.5,0.5,0.5,0.72,0.5,0.25,0.44,0.44,0.39,0.44,0.39,0.25,0.5,0.33,0.25,0.89,0.61,0.67,0.56,0.25,0.5,0.44,0.44,0.5,0.33,0.33,0.44,0.5,0.25,0.28,0.5,0.25,0.39,0.5,0.33,0.5,0.44,0.5,0.25,0.28,0.5,0.25,0.72,0.5,0.33,0.28,0.28,0.25" style="fill:rgb(23,22,21);font-family:TimesNewRomanPSMT;font-size:10.5px;stroke:none;">that the first known cases of MERS occurred in Jordan in April </text>
  </g>
  <g begin="text">
   <text y="630.271" x="36.0,41.145,46.29,51.435,56.58,59.1,61.43,67.74,72.885,77.442,79.962,85.107,90.252,93.066,98.211,101.603,106.16,110.717,115.862,118.382,122.939,128.084,130.898,135.455,140.6,145.745,150.302,155.447,157.967,160.781,165.926,168.446,173.591,176.405,181.55,186.107,189.498,192.018,196.575,201.72,206.865,212.01,214.824,218.216,221.03,225.587,229.566,232.087,234.9,240.046,242.566,245.38,250.525,255.082,257.022,264.498,267.889,272.446,277.591,280.405,284.962,290.212" svgx:width="0.5,0.5,0.5,0.5,0.25,0.25,0.61,0.5,0.44,0.25,0.5,0.5,0.28,0.5,0.33,0.44,0.44,0.5,0.25,0.44,0.5,0.28,0.44,0.5,0.5,0.44,0.5,0.25,0.28,0.5,0.25,0.5,0.28,0.5,0.44,0.33,0.25,0.44,0.5,0.5,0.5,0.28,0.33,0.28,0.44,0.39,0.25,0.28,0.5,0.25,0.28,0.5,0.44,0.25,0.72,0.33,0.44,0.5,0.28,0.44,0.5,0.25" style="fill:rgb(23,22,21);font-family:TimesNewRomanPSMT;font-size:10.5px;stroke:none;">2012. The outbreak extended to other countries in the Arabian </text>
  </g>
  <g begin="text">
   <text y="642.871" x="36.0,41.733,46.29,51.435,54.249,59.394,63.374,68.519,71.333,75.89,78.41,81.801,86.946,89.76,92.574,97.719,105.195,109.752,114.897,117.417,122.562,127.707,130.227,134.784,139.929,145.074,147.888,153.033,157.59,160.982,163.502,168.647,173.792,176.606,181.751,185.142,189.699,194.256,199.401,201.921,204.735,209.88,212.4,219.876,225.021,228.413,232.97,237.527,240.047,242.861,248.006,250.526,259.755,264.312,269.562" svgx:width="0.56,0.44,0.5,0.28,0.5,0.39,0.5,0.28,0.44,0.25,0.33,0.5,0.28,0.28,0.5,0.72,0.44,0.5,0.25,0.5,0.5,0.25,0.44,0.5,0.5,0.28,0.5,0.44,0.33,0.25,0.5,0.5,0.28,0.5,0.33,0.44,0.44,0.5,0.25,0.28,0.5,0.25,0.72,0.5,0.33,0.44,0.44,0.25,0.28,0.5,0.25,0.89,0.44,0.5,0.25" style="fill:rgb(23,22,21);font-family:TimesNewRomanPSMT;font-size:10.5px;stroke:none;">Peninsula followed by another outbreak in Korea in May </text>
  </g>
  <g begin="text">
   <text y="655.471" x="36.0,41.145,46.29,51.435,56.58,59.1,61.04,68.516,72.496,75.016,80.161,83.552,86.072,90.052,95.197,100.342,104.899,107.419,112.564,117.709,120.229,122.749,127.894,133.039,138.184,143.329,145.849,148.369,155.845,160.99,165.547,170.692,173.022,179.332,184.477,189.034,191.848,194.662,199.219,204.364,209.509,212.029,217.174,221.731,225.711,230.268,233.659,236.473,241.618,246.175,251.32,253.84,258.397,260.917,265.474,270.031,274.011,278.671" svgx:width="0.5,0.5,0.5,0.5,0.25,0.25,0.72,0.39,0.25,0.5,0.33,0.25,0.39,0.5,0.5,0.44,0.25,0.5,0.5,0.25,0.25,0.5,0.5,0.5,0.5,0.25,0.25,0.72,0.5,0.44,0.5,0.25,0.61,0.5,0.44,0.28,0.28,0.44,0.5,0.5,0.25,0.5,0.44,0.39,0.44,0.33,0.28,0.5,0.44,0.5,0.25,0.44,0.25,0.44,0.44,0.39,0.44,0.25" style="fill:rgb(23,22,21);font-family:TimesNewRomanPSMT;font-size:10.5px;stroke:none;">2015. As of June 18, 2015, when Thailand described a case </text>
  </g>
  <g begin="text">
   <text y="668.071" x="36.0,38.814,43.959,46.479,51.036,53.556,56.37,59.761,64.318,69.463,74.02,76.834,81.391,84.783,87.303,90.694,95.251,98.065,103.21,106.602,111.747,114.561,119.706,124.851,127.371,130.762,134.154,139.299,147.363,149.883,157.359,165.423,169.98,175.125,177.645,180.165,184.722,187.536,190.056,192.87,197.427,201.984,205.964,208.778,211.298,216.443,221.588,224.108,228.665,233.81,238.955,244.1,246.914,250.305,253.119,257.676,261.656,264.176,269.32,273.878,279.022,283.682" svgx:width="0.28,0.5,0.25,0.44,0.25,0.28,0.33,0.44,0.5,0.44,0.28,0.44,0.33,0.25,0.33,0.44,0.28,0.5,0.33,0.5,0.28,0.5,0.5,0.25,0.33,0.33,0.5,0.78,0.25,0.72,0.78,0.44,0.5,0.25,0.25,0.44,0.28,0.25,0.28,0.44,0.44,0.39,0.28,0.25,0.5,0.5,0.25,0.44,0.5,0.5,0.5,0.28,0.33,0.28,0.44,0.39,0.25,0.5,0.44,0.5,0.44,0.25" style="fill:rgb(23,22,21);font-family:TimesNewRomanPSMT;font-size:10.5px;stroke:none;">in a traveler returning from Oman, at least 26 countries have </text>
  </g>
  <g begin="text">
   <text y="680.671" x="36.0,39.391,43.948,49.093,54.238,57.63,60.444,65.001,70.146,72.666,81.895,88.206,95.104,100.837,103.357,107.914,112.471,116.451,121.008,124.987,127.507,130.899,136.632,139.446,144.591,149.736,153.127,157.684,160.204,165.35,168.741,171.261,173.592,179.903,185.048,189.605,192.996,197.553,200.073,205.218,209.775,214.92,219.477,221.997,227.142,231.699,236.256,241.401,243.921,248.478,251.292,253.812,256.626,261.183,265.74,269.72,272.534,275.054,280.199,282.719,287.864,293.009,298.259" svgx:width="0.33,0.44,0.5,0.5,0.33,0.28,0.44,0.5,0.25,0.89,0.61,0.67,0.56,0.25,0.44,0.44,0.39,0.44,0.39,0.25,0.33,0.56,0.28,0.5,0.5,0.33,0.44,0.25,0.5,0.33,0.25,0.25,0.61,0.5,0.44,0.33,0.44,0.25,0.5,0.44,0.5,0.44,0.25,0.5,0.44,0.44,0.5,0.25,0.44,0.28,0.25,0.28,0.44,0.44,0.39,0.28,0.25,0.5,0.25,0.5,0.5,0.5,0.25" style="fill:rgb(23,22,21);font-family:TimesNewRomanPSMT;font-size:10.5px;stroke:none;">reported MERS cases (Figure 1). There have been at least 1,338 </text>
  </g>
  <g begin="text">
   <text y="693.271" x="36.0,41.145,45.702,49.093,53.073,58.218,63.363,67.342,69.862,72.676,77.821,81.213,85.77,90.327,93.141,97.698,102.843,105.363,109.92,115.065,120.21,122.73,127.875,133.02,138.165,140.685,145.83,150.387,154.944,157.758,162.903,166.883,169.403,172.794,177.939,183.084,191.726,194.246,202.31,207.455,210.846,213.66,218.217,221.031,223.845,226.659,231.804,235.195,237.715,242.273,246.252,248.772,253.917,257.309,259.829,263.808,268.953,274.098,278.759" svgx:width="0.5,0.44,0.33,0.39,0.5,0.5,0.39,0.25,0.28,0.5,0.33,0.44,0.44,0.28,0.44,0.5,0.25,0.44,0.5,0.5,0.25,0.5,0.5,0.5,0.25,0.5,0.44,0.44,0.28,0.5,0.39,0.25,0.33,0.5,0.5,0.83,0.25,0.78,0.5,0.33,0.28,0.44,0.28,0.28,0.28,0.5,0.33,0.25,0.44,0.39,0.25,0.5,0.33,0.25,0.39,0.5,0.5,0.44,0.25" style="fill:rgb(23,22,21);font-family:TimesNewRomanPSMT;font-size:10.5px;stroke:none;">persons infected and 484 deaths (36% mortality) as of June </text>
  </g>
  <g begin="text">
   <text y="705.871" x="36.0,41.145,46.29,48.81,51.33,56.475,61.62,66.765,71.91" svgx:width="0.5,0.5,0.25,0.25,0.5,0.5,0.5,0.5,0.25" style="fill:rgb(23,22,21);font-family:TimesNewRomanPSMT;font-size:10.5px;stroke:none;">20, 2015.</text>
  </g>
  <g begin="text">
   <text y="702.375" x="74.43" svgx:width="0.5" style="fill:rgb(23,22,21);font-family:TimesNewRomanPSMT;font-size:6.12px;stroke:none;">1</text>
  </g>
  <g begin="text">
   <text y="705.871" x="77.429,79.759,85.699,89.091,93.648,98.793,102.772,110.836,113.65,117.63,121.609,124.423,129.568,134.713,137.233,142.378,145.77,148.29,151.104,156.249,160.806,163.326,168.471,171.285,174.676,179.821,183.801,186.321,191.466,196.023,200.002,202.522,207.667,212.224,216.781,221.926,225.318,228.709,233.266,238.411,240.931,243.745,248.89,251.41,256.555,261.112,265.669,268.483,271.297,276.442,280.999,285.556,288.948,293.609" svgx:width="0.25,0.61,0.33,0.44,0.5,0.39,0.78,0.28,0.39,0.39,0.28,0.5,0.5,0.25,0.5,0.33,0.25,0.28,0.5,0.44,0.25,0.5,0.28,0.33,0.5,0.39,0.25,0.5,0.44,0.39,0.25,0.5,0.44,0.44,0.5,0.33,0.33,0.44,0.5,0.25,0.28,0.5,0.25,0.5,0.44,0.44,0.28,0.28,0.5,0.44,0.44,0.33,0.44,0.25" style="fill:rgb(23,22,21);font-family:TimesNewRomanPSMT;font-size:10.5px;stroke:none;"> Transmission of the virus has occurred in healthcare </text>
  </g>
  <g begin="text">
   <text y="718.471" x="36.0,39.391,43.948,48.505,51.319,54.133,56.947,59.761,62.575,67.132,71.112,73.632,76.446,81.591,84.111,89.844,94.401,99.546,104.691,107.505,109.445,116.921,120.313,124.87,130.015,132.829,137.386,139.906,144.463,149.608,154.753,157.273,164.749,169.894,173.285,177.842,182.399,184.919,187.439,190.831,195.388,198.202,202.181,204.995,210.14,215.285,217.805,222.362,227.507,232.652,237.209,241.766,245.158,250.303,254.282,256.802,260.782,265.927,270.484,275.629,278.149,282.706,286.793" svgx:width="0.33,0.44,0.44,0.28,0.28,0.28,0.28,0.28,0.44,0.39,0.25,0.28,0.5,0.25,0.56,0.44,0.5,0.5,0.28,0.25,0.72,0.33,0.44,0.5,0.28,0.44,0.25,0.44,0.5,0.5,0.25,0.72,0.5,0.33,0.44,0.44,0.25,0.25,0.33,0.44,0.28,0.39,0.28,0.5,0.5,0.25,0.44,0.5,0.5,0.44,0.44,0.33,0.5,0.39,0.25,0.39,0.5,0.44,0.5,0.25,0.44,0.39,0.25" style="fill:rgb(23,22,21);font-family:TimesNewRomanPSMT;font-size:10.5px;stroke:none;">facilities in Saudi Arabia and Korea, raising concerns such as </text>
  </g>
  <g begin="text">
   <text y="731.071" x="36.0,38.814,43.959,49.104,53.083,57.64,60.16,64.14,68.697,73.254,78.399,80.919,86.064,91.209,94.6,97.414,102.559,107.704,110.224,113.038,118.183,122.74,125.26,130.405,133.797,136.611,141.756,145.147,147.667,151.647,156.204,161.349,165.906,169.297,173.854,176.374,180.932,185.489,190.634,193.448,198.005,200.525,203.916,208.473,212.453,217.598,220.412,223.803,228.36,231.174,236.319,239.711,244.856,247.376,251.355,256.5,261.645,266.79,270.182,275.327,283.391,288.05" svgx:width="0.28,0.5,0.5,0.39,0.44,0.25,0.39,0.44,0.44,0.5,0.25,0.5,0.5,0.33,0.28,0.5,0.5,0.25,0.28,0.5,0.44,0.25,0.5,0.33,0.28,0.5,0.33,0.25,0.39,0.44,0.5,0.44,0.33,0.44,0.25,0.44,0.44,0.5,0.28,0.44,0.25,0.33,0.44,0.39,0.5,0.28,0.33,0.44,0.28,0.5,0.33,0.5,0.25,0.39,0.5,0.5,0.5,0.33,0.5,0.78,0.44,0.25" style="fill:rgb(23,22,21);font-family:TimesNewRomanPSMT;font-size:10.5px;stroke:none;">those seen during the prior severe acute respiratory syndrome </text>
  </g>
  <path style="fill:none;stroke:rgb(23,22,21);stroke-width:1.0;" d="M36.000 539.500 L576.000 539.500 "/>
  <g begin="text">
   <text y="158.7" x="198.0,205.22,210.78,213.0,218.0,223.56,226.89,231.89,234.11,236.89,241.89,244.67,250.23,253.01,255.79,263.01,268.57,270.79,273.01,275.79,281.35,284.68,290.24,292.46,298.02,300.8,303.58,306.36,309.69,314.69,316.91,322.47,328.03,330.81,333.59,340.81,346.37,351.93,357.49,360.82,363.6,371.93,377.49,383.05,385.83,388.61,394.17,396.95,399.73,406.4,414.73,420.29,423.62,429.18,434.74,440.3,445.3,450.3,453.08,461.41,466.97,472.53,474.75,479.75,481.97,487.53,493.09,495.87,498.65,501.43,504.76,509.76,511.98,517.54,523.1,525.88,528.66,535.88,541.44,543.66,545.88,548.66,554.22,557.55,563.11,565.33" svgx:width="0.72,0.56,0.22,0.5,0.56,0.33,0.5,0.22,0.28,0.5,0.28,0.56,0.28,0.28,0.72,0.56,0.22,0.22,0.28,0.56,0.33,0.56,0.22,0.56,0.28,0.28,0.28,0.33,0.5,0.22,0.56,0.56,0.28,0.28,0.72,0.56,0.56,0.56,0.33,0.28,0.83,0.56,0.56,0.28,0.28,0.56,0.28,0.28,0.67,0.83,0.56,0.33,0.56,0.56,0.56,0.5,0.5,0.28,0.83,0.56,0.56,0.22,0.5,0.22,0.56,0.56,0.28,0.28,0.28,0.33,0.5,0.22,0.56,0.56,0.28,0.28,0.72,0.56,0.22,0.22,0.28,0.56,0.33,0.56,0.22,0.56" style="fill:rgb(23,22,21);font-family:ArialMT;font-size:10.0px;stroke:none;">University of California, Irvine, Department of Emergency Medicine, Irvine, California</text>
  </g>
  <g begin="text">
   <text y="170.7" x="198.0,205.22,210.78,213.0,218.0,223.56,226.89,231.89,234.11,236.89,241.89,244.67,250.23,253.01,255.79,263.01,268.57,270.79,273.01,275.79,281.35,284.68,290.24,292.46,298.02,300.8,303.58,306.36,309.69,314.69,316.91,322.47,328.03,330.81,333.59,340.81,346.37,351.93,354.71,360.27,363.6,366.38,369.16,374.72,378.05,380.83,388.05,390.27,395.27,400.83,405.83,408.61,414.17,417.5,420.28,428.61,434.17,439.73,441.95,446.95,452.51,454.73,457.51,464.18,469.18,471.4,476.96,482.52,487.52,493.08,498.08,500.86,503.64,506.42,509.75,514.75,516.97,522.53,528.09,530.87,533.65,540.87,546.43,548.65,550.87,553.65,559.21,562.54,568.1,570.32" svgx:width="0.72,0.56,0.22,0.5,0.56,0.33,0.5,0.22,0.28,0.5,0.28,0.56,0.28,0.28,0.72,0.56,0.22,0.22,0.28,0.56,0.33,0.56,0.22,0.56,0.28,0.28,0.28,0.33,0.5,0.22,0.56,0.56,0.28,0.28,0.72,0.56,0.56,0.28,0.56,0.33,0.28,0.28,0.56,0.33,0.28,0.72,0.22,0.5,0.56,0.5,0.28,0.56,0.33,0.28,0.83,0.56,0.56,0.22,0.5,0.56,0.22,0.28,0.67,0.5,0.22,0.56,0.56,0.5,0.56,0.5,0.28,0.28,0.28,0.33,0.5,0.22,0.56,0.56,0.28,0.28,0.72,0.56,0.22,0.22,0.28,0.56,0.33,0.56,0.22,0.56" style="fill:rgb(23,22,21);font-family:ArialMT;font-size:10.0px;stroke:none;">University of California, Irvine, Center for Disaster Medical Sciences, Irvine, California</text>
  </g>
  <g begin="text">
   <text y="567.44" x="312.0,315.392,321.125,328.601,335.499,341.232,344.624,347.144,352.289,357.434,360.247,365.392,368.784,373.341,377.898,383.043,385.563,391.296,394.688,398.667,401.481,404.001,407.392,411.949,416.507,421.651,426.796,431.941,434.755,439.312,443.869,449.014,451.534,454.348,459.493,462.013,467.746,472.303,477.448,480.84,485.985,490.542,493.933,499.078,501.598,506.743,511.888,517.033,522.178,524.698,527.218,534.694,539.839,542.654,546.633,549.447,554.592,559.149,561.669,566.814,570.311" svgx:width="0.33,0.56,0.72,0.67,0.56,0.33,0.25,0.5,0.5,0.28,0.5,0.33,0.44,0.44,0.5,0.25,0.56,0.33,0.39,0.28,0.25,0.33,0.44,0.44,0.5,0.5,0.5,0.28,0.44,0.44,0.5,0.25,0.28,0.5,0.25,0.56,0.44,0.5,0.33,0.5,0.44,0.33,0.5,0.25,0.5,0.5,0.5,0.5,0.25,0.25,0.72,0.5,0.28,0.39,0.28,0.5,0.44,0.25,0.5,0.33,0.25" style="fill:rgb(23,22,21);font-family:TimesNewRomanPSMT;font-size:10.5px;stroke:none;">(SARS) outbreak first recognized in February 2003. Outside of </text>
  </g>
  <g begin="text">
   <text y="580.04" x="312.0,314.814,319.959,324.516,327.036,329.85,333.829,338.974,341.788,346.345,349.159,353.716,358.861,361.381,366.526,371.671,374.485,379.63,383.022,387.579,392.136,397.281,399.801,403.192,407.749,412.894,415.708,420.853,425.998,429.978,432.498,435.018,437.832,442.977,447.534,450.054,455.199,459.756,463.735,466.549,469.069,477.133,481.69,484.504,489.649,493.041,495.855,498.669,503.814,506.334,511.479,514.87,517.39,526.62,532.93,539.829,545.562,548.082,552.639,557.196,561.175,565.732,569.819" svgx:width="0.28,0.5,0.44,0.25,0.28,0.39,0.5,0.28,0.44,0.28,0.44,0.5,0.25,0.5,0.5,0.28,0.5,0.33,0.44,0.44,0.5,0.25,0.33,0.44,0.5,0.28,0.5,0.5,0.39,0.25,0.25,0.28,0.5,0.44,0.25,0.5,0.44,0.39,0.28,0.25,0.78,0.44,0.28,0.5,0.33,0.28,0.28,0.5,0.25,0.5,0.33,0.25,0.89,0.61,0.67,0.56,0.25,0.44,0.44,0.39,0.44,0.39,0.25" style="fill:rgb(23,22,21);font-family:TimesNewRomanPSMT;font-size:10.5px;stroke:none;">the isolated outbreak regions, the vast majority of MERS cases </text>
  </g>
  <g begin="text">
   <text y="592.64" x="312.0,317.145,321.702,326.847,331.404,333.924,339.069,343.626,348.183,353.328,355.848,360.993,365.55,368.364,372.921,377.478,380.292,384.849,389.994,392.514,395.328,400.473,402.993,405.807,409.198,413.755,418.9,423.457,426.271,430.828,434.22,438.199,440.719,444.111,448.668,451.482,456.627,460.018,465.163,467.977,473.122,478.267,480.787,484.179,487.57,492.715,500.779,503.299,506.113,511.258,515.815,518.335,527.565,530.379,535.524,540.669,543.483,548.04,550.56,556.87,561.427,565.407,568.221,570.846" svgx:width="0.5,0.44,0.5,0.44,0.25,0.5,0.44,0.44,0.5,0.25,0.5,0.44,0.28,0.44,0.44,0.28,0.44,0.5,0.25,0.28,0.5,0.25,0.28,0.33,0.44,0.5,0.44,0.28,0.44,0.33,0.39,0.25,0.33,0.44,0.28,0.5,0.33,0.5,0.28,0.5,0.5,0.25,0.33,0.33,0.5,0.78,0.25,0.28,0.5,0.44,0.25,0.89,0.28,0.5,0.5,0.28,0.44,0.25,0.61,0.44,0.39,0.28,0.25,0.25" style="fill:rgb(23,22,21);font-family:TimesNewRomanPSMT;font-size:10.5px;stroke:none;">have been detected in travelers returning from the Middle East. </text>
  </g>
  <g begin="text">
   <text y="605.24" x="312.0,318.31,323.455,328.012,330.532,333.346,336.16,340.14,342.954,345.474,350.619,354.01,356.53,361.087,364.29,367.681,372.238,376.795,379.609,384.166,389.311,391.831,396.388,401.533,406.678,411.823,414.637,418.029,420.843,425.4,429.379,431.899,439.963,444.52,449.665,452.185,456.742,461.887,466.444,471.589,476.734,481.291,483.811,488.956,494.101,498.658,502.05,504.57,507.384,510.198,518.262,522.819,525.339,527.859,535.335,540.48,543.294,547.851,552.996,555.516,560.073,564.63,569.88" svgx:width="0.61,0.5,0.44,0.25,0.28,0.28,0.39,0.28,0.25,0.5,0.33,0.25,0.44,0.33,0.33,0.44,0.44,0.28,0.44,0.5,0.25,0.44,0.5,0.5,0.5,0.28,0.33,0.28,0.44,0.39,0.25,0.78,0.44,0.5,0.25,0.44,0.5,0.44,0.5,0.5,0.44,0.25,0.5,0.5,0.44,0.33,0.25,0.28,0.28,0.78,0.44,0.25,0.25,0.72,0.5,0.28,0.44,0.5,0.25,0.44,0.44,0.5,0.25" style="fill:rgb(23,22,21);font-family:TimesNewRomanPSMT;font-size:10.5px;stroke:none;">The list of affected countries may change over time, which can </text>
  </g>
  <g begin="text">
   <text y="617.84" x="312.0,316.557,319.76,323.151,327.708,332.265,335.079,337.599,340.413,345.558,350.115,352.635,357.192,362.337,367.482,372.627,376.606,381.751,385.143,389.7,392.22,396.777,400.168,402.982,405.796,410.353,413.745,416.559,421.116,423.636,427.027,432.172,435.564,438.084,440.898,446.043,450.6,455.745,458.559,461.373,464.764,469.909,472.723,477.868,483.013,485.533,489.513,494.658,498.637,503.782,508.339,512.896,515.71,520.267,525.412,527.932,532.489,537.046,541.026,545.583,549.562" svgx:width="0.44,0.33,0.33,0.44,0.44,0.28,0.25,0.28,0.5,0.44,0.25,0.44,0.5,0.5,0.5,0.39,0.5,0.33,0.44,0.25,0.44,0.33,0.28,0.28,0.44,0.33,0.28,0.44,0.25,0.33,0.5,0.33,0.25,0.28,0.5,0.44,0.5,0.28,0.28,0.33,0.5,0.28,0.5,0.5,0.25,0.39,0.5,0.39,0.5,0.44,0.44,0.28,0.44,0.5,0.25,0.44,0.44,0.39,0.44,0.39,0.25" style="fill:rgb(23,22,21);font-family:TimesNewRomanPSMT;font-size:10.5px;stroke:none;">affect the exposure criteria for identifying suspected cases.</text>
  </g>
  <g begin="text">
   <text y="630.44" x="330.0,333.496,338.746,341.371,350.706,355.368,360.618,363.243,368.493,373.743,378.993,384.243,386.868,389.493,392.412,397.662,402.324,404.949,411.952,416.614,421.864,424.783,429.445,432.942,437.026,439.651,443.148,448.398,451.894,454.519,462.1,465.019,469.104,473.766,478.428,482.512,487.174,489.799,496.803,502.053,507.303,510.222,513.718,518.968,521.887,524.512,529.174,534.424,539.674" svgx:width="0.33,0.5,0.25,0.89,0.44,0.5,0.25,0.5,0.5,0.5,0.5,0.25,0.25,0.28,0.5,0.44,0.25,0.67,0.44,0.5,0.28,0.44,0.33,0.39,0.25,0.33,0.5,0.33,0.25,0.72,0.28,0.39,0.44,0.44,0.39,0.44,0.25,0.67,0.5,0.5,0.28,0.33,0.5,0.28,0.25,0.44,0.5,0.5,0.25" style="fill:rgb(23,22,21);font-family:TimesNewRomanPSMT;font-size:10.5px;stroke:none;">In May 2014, the Centers for Disease Control and </text>
  </g>
  <g begin="text">
   <text y="643.04" x="312.0,317.838,321.335,325.996,331.246,335.908,341.158,344.077,346.996,352.246,357.496,360.121,363.618,370.621,378.202,385.206,388.702,391.327,395.989,401.239,406.489,412.327,415.824,423.993,428.655,433.905,436.53,439.449,447.03,452.28,454.905,460.155,465.405,468.324,471.243,476.493,481.743,486.405,491.655,494.28,497.199,505.368,510.618,515.868,519.365,522.284,526.945,532.195,534.82,539.482,544.144,548.229,552.891,556.975,559.6,564.85,568.347" svgx:width="0.56,0.33,0.44,0.5,0.44,0.5,0.28,0.28,0.5,0.5,0.25,0.33,0.67,0.72,0.67,0.33,0.25,0.44,0.5,0.5,0.56,0.33,0.78,0.44,0.5,0.25,0.28,0.72,0.5,0.25,0.5,0.5,0.28,0.28,0.5,0.5,0.44,0.5,0.25,0.28,0.78,0.5,0.5,0.33,0.28,0.44,0.5,0.25,0.44,0.44,0.39,0.44,0.39,0.25,0.5,0.33,0.25" style="fill:rgb(23,22,21);font-family:TimesNewRomanPSMT;font-size:10.5px;stroke:none;">Prevention (CDC) confirmed two unlinked imported cases of </text>
  </g>
  <g begin="text">
   <text y="655.64" x="312.0,321.335,327.75,334.754,340.592,343.217,346.136,351.386,354.011,356.93,362.18,366.842,369.467,377.048,379.673,385.511,388.136,390.761,394.845,397.764,402.426,405.345,410.007,414.092,416.717,421.967,425.463,428.088,431.585,436.835,442.085,445.004,449.665,454.915,459.577,462.202,466.864,472.114,477.364,479.989,485.827,488.746,493.996,497.493,500.412,505.662,510.324,512.949,515.574,522.577,527.827,530.746,535.996,538.621,543.871,548.533,551.452,554.371,559.033,564.283,567.202,571.287" svgx:width="0.89,0.61,0.67,0.56,0.25,0.28,0.5,0.25,0.28,0.5,0.44,0.25,0.72,0.25,0.56,0.25,0.25,0.39,0.28,0.44,0.28,0.44,0.39,0.25,0.5,0.33,0.25,0.33,0.5,0.5,0.28,0.44,0.5,0.44,0.25,0.44,0.5,0.5,0.25,0.56,0.28,0.5,0.33,0.28,0.5,0.44,0.25,0.25,0.67,0.5,0.28,0.5,0.25,0.5,0.44,0.28,0.28,0.44,0.5,0.28,0.39,0.25" style="fill:rgb(23,22,21);font-family:TimesNewRomanPSMT;font-size:10.5px;stroke:none;">MERS in the U.S. states of Indiana and Florida. Both patients </text>
  </g>
  <g begin="text">
   <text y="668.24" x="312.0,319.581,324.243,327.739,332.401,335.026,340.276,344.938,347.857,350.776,355.438,360.688,365.35,370.6,373.225,376.144,381.394,384.019,389.269,393.931,399.181,403.843,406.468,411.718,416.38,421.042,426.292,428.917,431.836,437.086,440.583,445.245,449.907,452.826,457.488,462.738,465.363,468.282,473.532,476.157,481.995,486.657,491.907,497.157,500.076,502.092,509.673,513.169,517.831,523.081,526.0,530.662,533.287,540.868,546.118,550.78,554.277,558.939" svgx:width="0.72,0.44,0.33,0.44,0.25,0.5,0.44,0.28,0.28,0.44,0.5,0.44,0.5,0.25,0.28,0.5,0.25,0.5,0.44,0.5,0.44,0.25,0.5,0.44,0.44,0.5,0.25,0.28,0.5,0.33,0.44,0.44,0.28,0.44,0.5,0.25,0.28,0.5,0.25,0.56,0.44,0.5,0.5,0.28,0.25,0.72,0.33,0.44,0.5,0.28,0.44,0.25,0.72,0.5,0.44,0.33,0.44,0.25" style="fill:rgb(23,22,21);font-family:TimesNewRomanPSMT;font-size:10.5px;stroke:none;">were believed to have been infected in Saudi Arabia where </text>
  </g>
  <g begin="text">
   <text y="680.84" x="312.0,314.919,320.169,324.831,330.081,332.706,340.287,345.537,349.033,354.283,358.945,364.195,366.82,371.482,375.567,378.192,383.442,388.104,392.766,395.685,398.604,403.854,408.516,413.178,416.674,421.336,423.961,429.211,432.708,437.958,443.208,446.127,451.377,456.039,459.535,463.62,466.245,468.664,475.08,480.33,484.992,490.242,492.867,498.117,503.367,506.286,511.536,514.161,517.657,522.319,527.569,532.819,535.738,539.235,543.897,549.147" svgx:width="0.28,0.5,0.44,0.5,0.25,0.72,0.5,0.33,0.5,0.44,0.5,0.25,0.44,0.39,0.25,0.5,0.44,0.44,0.28,0.28,0.5,0.44,0.44,0.33,0.44,0.25,0.5,0.33,0.5,0.5,0.28,0.5,0.44,0.33,0.39,0.25,0.25,0.61,0.5,0.44,0.5,0.25,0.5,0.5,0.28,0.5,0.25,0.33,0.44,0.5,0.5,0.28,0.33,0.44,0.5,0.25" style="fill:rgb(23,22,21);font-family:TimesNewRomanPSMT;font-size:10.5px;stroke:none;">they worked as healthcare providers. They both required </text>
  </g>
  <g begin="text">
   <text y="693.44" x="312.0,317.25,322.5,326.585,331.835,334.754,337.673,342.335,345.254,348.173,352.835,357.496,360.415,363.335,368.585,373.835,376.46,381.121,386.371,391.621,394.246,397.743,402.993,405.912,408.831,414.081,416.706,420.202,424.864,429.526,434.776,440.026,444.688,448.185,452.847,458.097" svgx:width="0.5,0.5,0.39,0.5,0.28,0.28,0.44,0.28,0.28,0.44,0.44,0.28,0.28,0.5,0.5,0.25,0.44,0.5,0.5,0.25,0.33,0.5,0.28,0.28,0.5,0.25,0.33,0.44,0.44,0.5,0.5,0.44,0.33,0.44,0.5,0.25" style="fill:rgb(23,22,21);font-family:TimesNewRomanPSMT;font-size:10.5px;stroke:none;">hospitalization and fully recovered.</text>
  </g>
  <g begin="text">
   <text y="706.04" x="330.0,339.912,345.162,348.081,351.0,355.662,358.287,363.537,367.033,371.695,376.945,379.864,385.114,390.364,394.449,397.368,402.618,405.243,410.493,415.155,419.817,422.736,425.655,430.905,436.155,438.78,441.699,446.949,452.199,455.118,460.368,463.287,468.537,473.787,478.449,481.368,485.452,488.077,495.658,498.577,501.496,506.746,509.371,517.54,520.459,523.378,528.628,531.253,534.172,537.091,540.01,545.26,549.922,554.007,558.091" svgx:width="0.94,0.5,0.28,0.28,0.44,0.25,0.5,0.33,0.44,0.5,0.28,0.5,0.5,0.39,0.28,0.5,0.25,0.5,0.44,0.44,0.28,0.28,0.5,0.5,0.25,0.28,0.5,0.5,0.28,0.5,0.28,0.5,0.5,0.44,0.28,0.39,0.25,0.72,0.28,0.28,0.5,0.25,0.78,0.28,0.28,0.5,0.25,0.28,0.28,0.28,0.5,0.44,0.39,0.39,0.25" style="fill:rgb(23,22,21);font-family:TimesNewRomanPSMT;font-size:10.5px;stroke:none;">While previously healthy individuals with mild illness </text>
  </g>
  <g begin="text">
   <text y="718.64" x="312.0,320.169,324.831,330.081,332.706,337.956,342.618,345.243,349.905,353.989,359.239,367.408,372.658,375.577,380.827,388.996,393.658,396.577,399.496,404.158,406.783,409.408,418.743,425.158,432.162,438.0,440.625,443.544,448.794,454.044,456.963,461.625,466.287,469.206,472.125,477.375,480.0,485.25,488.746,493.408,497.493,502.155,507.405,510.324,514.408,517.033,524.614,527.533,530.452,535.702,538.327,541.824,546.486,551.736,556.398,559.894" svgx:width="0.78,0.44,0.5,0.25,0.5,0.44,0.25,0.44,0.39,0.5,0.78,0.5,0.28,0.5,0.78,0.44,0.28,0.28,0.44,0.25,0.25,0.89,0.61,0.67,0.56,0.25,0.28,0.5,0.5,0.28,0.44,0.44,0.28,0.28,0.5,0.25,0.5,0.33,0.44,0.39,0.44,0.5,0.28,0.39,0.25,0.72,0.28,0.28,0.5,0.25,0.33,0.44,0.5,0.44,0.33,0.25" style="fill:rgb(23,22,21);font-family:TimesNewRomanPSMT;font-size:10.5px;stroke:none;">may be asymptomatic, MERS typically presents with fever </text>
  </g>
  <g begin="text">
   <text y="731.24" x="312.0,316.662,321.912,327.162,329.787,333.871,339.121,347.29,352.54,355.46,360.71,368.879,372.963,375.588,380.838,384.335,386.96,391.621,394.246,397.743,402.405,406.489,411.739,414.658,418.155,422.817,425.736,430.986,434.482,439.732,442.357,445.276,448.195,451.114,456.364,461.026,465.111,469.195,471.82,477.07,480.567,483.192,487.854,492.516,497.766,500.685,505.347,507.972,511.468,516.13,520.215,525.465,528.384,531.88,536.542,539.461,544.711,548.208,553.458" svgx:width="0.44,0.5,0.5,0.25,0.39,0.5,0.78,0.5,0.28,0.5,0.78,0.39,0.25,0.5,0.33,0.25,0.44,0.25,0.33,0.44,0.39,0.5,0.28,0.33,0.44,0.28,0.5,0.33,0.5,0.25,0.28,0.28,0.28,0.5,0.44,0.39,0.39,0.25,0.5,0.33,0.25,0.44,0.44,0.5,0.28,0.44,0.25,0.33,0.44,0.39,0.5,0.28,0.33,0.44,0.28,0.5,0.33,0.5,0.25" style="fill:rgb(23,22,21);font-family:TimesNewRomanPSMT;font-size:10.5px;stroke:none;">and symptoms of a respiratory illness or acute respiratory </text>
  </g>
 </g>
</svg>
