<?xml version="1.0" encoding="UTF-8"?>
<svg height="780.04" width="600.04" xmlns="http://www.w3.org/2000/svg">
 <g id="page" xmlns:svgx="http://www.xml-cml.org/schema/svgx">
  <g begin="text">
   <text y="770.04" x="582.0,586.14" svgx:width="0.39,0.39" style="fill:rgb(23,22,21);font-family:AdobeThai-Regular;font-size:10.0px;stroke:none;">19</text>
  </g>
  <g begin="text">
   <text y="80.24" x="72.0,80.001,86.499,89.496,95.994,100.998,107.496,113.994,116.244,118.494,120.332,123.329,127.829,132.329,136.829,141.329,144.326,146.576" svgx:width="0.89,0.72,0.33,0.72,0.56,0.72,0.72,0.25,0.25,0.55,0.33,0.5,0.5,0.5,0.5,0.33,0.25,0.25" style="fill:rgb(23,22,21);font-family:TimesNewRomanPSMT;font-size:9.0px;stroke:none;">MN-OSHA. (2017). </text>
   <text y="80.24" x="150.653,156.152,160.652,162.902,164.729,168.725,175.223,179.723,182.225,186.5,190.496,194.492,197.993,199.821,203.322,205.572,207.399,211.899,216.399,218.901,223.401,227.397,229.647,231.474,233.976,238.476,240.726,242.553,247.053,250.915,254.911,258.907,261.409,265.909,270.409,272.911,277.411,281.911,284.161,285.988,290.488" svgx:width="0.61,0.5,0.25,0.55,0.44,0.72,0.5,0.28,0.5,0.44,0.44,0.39,0.33,0.39,0.25,0.55,0.5,0.5,0.28,0.5,0.44,0.25,0.55,0.28,0.5,0.25,0.55,0.5,0.44,0.44,0.44,0.28,0.5,0.5,0.28,0.5,0.5,0.25,0.55,0.5,0.25" style="fill:rgb(23,22,21);font-family:TimesNewRomanPS-Italic;font-size:9.0px;stroke:none;">An employer’s guide to developing a </text>
   <text y="91.238" x="108.243,112.743,117.243,120.744,125.244,128.413,132.913,135.667,139.663,144.163,150.661,157.159,161.659,166.159,168.661,172.657,177.157,179.659,182.161,186.661,191.161,193.915,198.415,201.916,204.67,208.666,215.164,219.664,222.166,226.442,230.438,234.434,238.43,241.184,244.685,247.187,251.687,256.187,258.689,261.686,264.188,268.688,271.685,275.681,280.181,284.503,290.506" svgx:width="0.5,0.5,0.39,0.5,0.39,0.5,0.25,0.44,0.5,0.72,0.72,0.5,0.5,0.28,0.44,0.5,0.28,0.28,0.5,0.5,0.25,0.5,0.39,0.25,0.44,0.72,0.5,0.28,0.5,0.44,0.44,0.44,0.25,0.39,0.28,0.5,0.5,0.28,0.33,0.28,0.5,0.33,0.44,0.5,0.5,0.67,0.25" style="fill:rgb(23,22,21);font-family:TimesNewRomanPS-Italic;font-size:9.0px;stroke:none;">hazard communication or employee right-to-know </text>
   <text y="102.236" x="108.243,112.743,115.84,120.116,124.616,127.712,132.212" svgx:width="0.5,0.39,0.5,0.5,0.39,0.5,0.72" style="fill:rgb(23,22,21);font-family:TimesNewRomanPS-Italic;font-size:9.0px;stroke:none;">program</text>
   <text y="102.236" x="138.71,140.96,143.21,148.466,153.47,157.466,159.968,164.468,166.97,169.22,174.476,179.48,183.476,187.976,190.478,192.728,194.978,200.234,208.235,214.733,216.983,219.233,224.494,230.992,235.996,242.494,244.996,247.246,252.502,260.503,263.005,267.505,272.005,276.001,279.502,284.002,286.504,290.5" svgx:width="0.25,0.25,0.55,0.56,0.44,0.28,0.5,0.28,0.25,0.55,0.56,0.44,0.5,0.28,0.25,0.25,0.55,0.89,0.72,0.25,0.25,0.55,0.72,0.56,0.72,0.28,0.25,0.55,0.89,0.28,0.5,0.5,0.44,0.39,0.5,0.28,0.44,0.25" style="fill:rgb(23,22,21);font-family:TimesNewRomanPSMT;font-size:9.0px;stroke:none;">. Saint Paul, MN, USA: Minnesota </text>
   <text y="113.234" x="108.243,108.243,114.741,118.737,123.237,127.233,130.23,132.732,139.734,143.73,148.23,150.732,152.982,154.359,158.859,161.856,164.106,165.483,170.982,174.978,179.478,183.978,186.975,189.225,190.602,194.598,199.098,203.598,205.848,207.225,210.222,214.722,219.222,223.722,227.223,229.725,232.722,236.638,238.888,241.138,242.515,249.013,253.009,257.005,261.505,266.005,270.001,272.503,275.005,279.505,284.005,288.001,290.503" svgx:width="0.25,0.72,0.44,0.5,0.44,0.33,0.28,0.78,0.44,0.5,0.28,0.25,0.55,0.5,0.33,0.25,0.55,0.61,0.44,0.5,0.5,0.33,0.25,0.55,0.44,0.5,0.5,0.25,0.55,0.33,0.5,0.5,0.5,0.39,0.28,0.33,0.5,0.25,0.25,0.55,0.72,0.44,0.44,0.5,0.5,0.44,0.28,0.28,0.5,0.5,0.44,0.28,0.25" style="fill:rgb(23,22,21);font-family:TimesNewRomanPSMT;font-size:9.0px;stroke:none;"> Department of Labor and Industry, Occupational </text>
   <text y="124.232" x="108.243,114.741,118.737,122.733,125.235,127.737,132.237,134.157,138.153,142.653,147.153,149.079,154.083,158.079,161.076,165.072,167.574,172.074,173.995,180.493,182.995,187.495,189.997,193.498,196.0,200.5,205.0,207.25,209.176,215.179,219.175,221.677,224.674,227.176,231.172,235.672,239.661,244.161,246.087,249.084,252.081,256.581,263.583" svgx:width="0.72,0.44,0.44,0.28,0.28,0.5,0.25,0.44,0.5,0.5,0.25,0.56,0.44,0.33,0.44,0.28,0.5,0.25,0.72,0.28,0.5,0.28,0.39,0.28,0.5,0.5,0.25,0.25,0.67,0.44,0.28,0.33,0.28,0.44,0.5,0.44,0.5,0.25,0.33,0.33,0.5,0.78,0.25" style="fill:rgb(23,22,21);font-family:TimesNewRomanPSMT;font-size:9.0px;stroke:none;">Health and Safety Division. Retrieved from </text>
   <text y="124.232" x="265.509,270.009,272.511,275.013,279.513,283.014,285.516,288.018" svgx:width="0.5,0.28,0.28,0.5,0.39,0.28,0.28,0.28" style="fill:rgb(0,0,255);font-family:TimesNewRomanPSMT;font-size:9.0px;stroke:none;">https://</text>
   <text y="135.23" x="108.243,114.93,121.617,127.724,130.163,134.852,137.543,140.234,142.673,149.864,154.553,156.992,161.681,166.37,171.059,173.75,177.44,180.131,182.822,187.007,190.697,193.388,198.077,202.262,205.448,209.633,214.322,217.013,219.704,222.395,225.581,228.272,230.963,235.148,238.838,241.529,246.218,250.907,254.093,256.784,261.473,265.658,269.843,274.028,278.717,285.908" svgx:width="0.72,0.72,0.72,0.25,0.5,0.28,0.28,0.25,0.78,0.5,0.25,0.5,0.5,0.5,0.28,0.39,0.28,0.28,0.44,0.39,0.28,0.5,0.44,0.33,0.44,0.5,0.28,0.28,0.28,0.33,0.28,0.28,0.44,0.39,0.28,0.5,0.5,0.33,0.28,0.5,0.44,0.44,0.44,0.5,0.78,0.5" style="fill:rgb(0,0,255);font-family:TimesNewRomanPSMT;font-size:9.0px;stroke:none;">www.dli.mn.gov/sites/default/files/pdf/hazcom_</text>
   <text y="146.228" x="108.243,112.239,115.236,117.738,122.238,126.738,131.238,135.234,139.734,143.73,146.232,150.732,155.232,162.234,166.23,170.73,173.232,175.482,179.982,184.482" svgx:width="0.44,0.33,0.28,0.5,0.5,0.5,0.44,0.5,0.44,0.28,0.5,0.5,0.78,0.44,0.5,0.28,0.25,0.5,0.5,0.33" style="fill:rgb(0,0,255);font-family:TimesNewRomanPSMT;font-size:9.0px;stroke:none;">ertk_development.pdf</text>
   <text y="157.226" x="72.0,80.001,84.501,87.498,90.999,93.501,98.001,102.501,104.751,107.001,108.486,116.487,118.737,120.987,122.472,125.469,129.969,134.469,138.635,143.135,146.132,148.382,150.632,151.617,157.62,159.87,161.35,167.848,171.844,174.346,176.848,179.098,180.577,183.079,187.579,192.079,196.579,201.079,205.579,208.081,211.078,215.578,220.078,222.58,224.83,226.306,233.308,237.304,239.806,244.306,246.808,250.804,255.304,259.3,263.8,267.796,271.792,274.042,275.512,280.012,283.009,287.509" svgx:width="0.89,0.5,0.33,0.39,0.28,0.5,0.5,0.25,0.25,0.55,0.89,0.25,0.25,0.55,0.33,0.5,0.5,0.5,0.5,0.33,0.25,0.25,0.55,0.72,0.25,0.55,0.72,0.44,0.28,0.28,0.25,0.55,0.28,0.5,0.5,0.5,0.5,0.5,0.28,0.33,0.5,0.5,0.28,0.25,0.55,0.78,0.44,0.28,0.5,0.28,0.44,0.5,0.44,0.5,0.44,0.44,0.25,0.55,0.5,0.33,0.5,0.33" style="fill:rgb(23,22,21);font-family:TimesNewRomanPSMT;font-size:9.0px;stroke:none;">Morsing, M. (2011). A well thought-out maintenance pro-</text>
   <text y="168.224" x="108.243,112.743,115.74,119.736,126.738,128.988,130.617,133.119,137.619,141.615,144.612,148.608,152.604,156.105,160.101,163.602,165.852,167.481,170.982,174.978,177.975,181.971,184.473,188.385,190.635,192.885,194.514,197.511,202.011" svgx:width="0.5,0.33,0.44,0.78,0.25,0.55,0.28,0.5,0.44,0.33,0.44,0.44,0.39,0.44,0.39,0.25,0.55,0.39,0.44,0.33,0.44,0.28,0.5,0.25,0.25,0.55,0.33,0.5,0.25" style="fill:rgb(23,22,21);font-family:TimesNewRomanPSMT;font-size:9.0px;stroke:none;">gram increases safety. In </text>
   <text y="168.224" x="205.89,212.388,216.384,220.884,223.386,225.888,230.21,234.206,236.456,238.084,243.999,248.499,251.686,255.682,260.182,262.684,267.184,271.18,275.176,278.677,281.674,283.924,285.013,290.512" svgx:width="0.72,0.44,0.5,0.28,0.28,0.5,0.44,0.25,0.55,0.67,0.5,0.39,0.44,0.5,0.28,0.5,0.44,0.44,0.39,0.33,0.25,0.55,0.61,0.25" style="fill:rgb(23,22,21);font-family:TimesNewRomanPS-Italic;font-size:9.0px;stroke:none;">Healthy workplaces: A </text>
   <text y="179.222" x="108.243,113.742,118.242,121.339,125.839,130.339,134.335,138.835,143.335,145.585,148.96,152.956,157.456,163.954,168.454,172.954,175.456,179.956,184.456,186.706,190.081,194.581,199.081,201.331,204.706,208.207,212.707,215.031,219.027,221.277,224.652,231.15,235.65,238.152,242.652,245.154,249.15,253.65,258.15,262.65,266.646" svgx:width="0.61,0.5,0.39,0.5,0.5,0.44,0.5,0.5,0.25,0.55,0.44,0.5,0.72,0.5,0.5,0.28,0.5,0.5,0.25,0.55,0.5,0.5,0.25,0.55,0.39,0.5,0.28,0.44,0.25,0.55,0.72,0.5,0.28,0.5,0.28,0.44,0.5,0.5,0.5,0.44,0.44" style="fill:rgb(23,22,21);font-family:TimesNewRomanPS-Italic;font-size:9.0px;stroke:none;">European campaign on safe maintenance</text>
   <text y="179.222" x="270.642,272.892,276.267,279.264,283.764,288.264,290.514" svgx:width="0.25,0.55,0.33,0.5,0.5,0.25,0.25" style="fill:rgb(23,22,21);font-family:TimesNewRomanPSMT;font-size:9.0px;stroke:none;"> (pp. </text>
   <text y="190.22" x="108.243,112.743,117.243,121.743,126.243,130.743,133.74,135.99,138.87,144.369,150.867,153.864,160.362,165.366,171.864,178.369,180.871,183.751,189.754,192.751,197.251,200.752,204.253,208.249,210.751,214.252,216.502,219.382,225.385,229.381,231.883,236.383,238.885,243.385,250.387,252.637,255.517,261.52,265.516,268.018,271.015,273.517,277.513,282.013,286.009,290.509" svgx:width="0.5,0.5,0.5,0.5,0.5,0.33,0.25,0.25,0.61,0.72,0.33,0.72,0.56,0.72,0.72,0.28,0.25,0.67,0.33,0.5,0.39,0.39,0.44,0.28,0.39,0.25,0.25,0.67,0.44,0.28,0.5,0.28,0.5,0.78,0.25,0.25,0.67,0.44,0.28,0.33,0.28,0.44,0.5,0.44,0.5,0.25" style="fill:rgb(23,22,21);font-family:TimesNewRomanPSMT;font-size:9.0px;stroke:none;">19–21). EU-OSHA: Brussels, Belgium. Retrieved </text>
   <text y="201.218" x="108.243,111.24,114.237,118.737,125.739" svgx:width="0.33,0.33,0.5,0.78,0.25" style="fill:rgb(23,22,21);font-family:TimesNewRomanPSMT;font-size:9.0px;stroke:none;">from </text>
   <text y="201.218" x="132.048,136.548,139.05,141.552,146.052,149.553,152.055,154.557,157.059,161.559,165.06,169.56,173.556,175.806,179.802,184.302,187.299,191.799,196.299,200.295,202.545,206.541,211.041,213.543,217.539,222.039,224.541,227.043,231.543,236.043,238.534,242.035,245.032,249.028,253.528,258.028,261.025,265.525,270.025,274.525,277.027,279.529,283.525,287.505" svgx:width="0.5,0.28,0.28,0.5,0.39,0.28,0.28,0.28,0.5,0.39,0.5,0.44,0.25,0.44,0.5,0.33,0.5,0.5,0.44,0.25,0.44,0.5,0.28,0.44,0.5,0.28,0.28,0.5,0.5,0.28,0.39,0.33,0.44,0.5,0.5,0.33,0.5,0.5,0.5,0.28,0.28,0.44,0.44,0.33" style="fill:rgb(0,0,255);font-family:TimesNewRomanPSMT;font-size:9.0px;stroke:none;">https://osha.europa.eu/en/tools-and-publica-</text>
   <text y="212.216" x="108.243,110.745,113.247,117.747,122.247,125.748,128.25,132.75,137.25,141.75,144.252,146.754,150.75,154.746,157.248,159.75,164.25,168.75,172.251,174.753,181.755,185.751,190.251,194.247,198.243,200.745,205.245,209.241,211.743,218.745,222.741,227.241,231.237,235.233,237.735,242.235,246.231,250.731" svgx:width="0.28,0.28,0.5,0.5,0.39,0.28,0.5,0.5,0.5,0.28,0.28,0.44,0.44,0.28,0.28,0.5,0.5,0.39,0.28,0.78,0.44,0.5,0.44,0.44,0.28,0.5,0.44,0.28,0.78,0.44,0.5,0.44,0.44,0.28,0.5,0.44,0.5,0.5" style="fill:rgb(0,0,255);font-family:TimesNewRomanPSMT;font-size:9.0px;stroke:none;">tions/publications/magazine/magazine12</text>
   <text y="223.214" x="72.0,78.498,82.494,86.994,91.494,93.996,96.498,98.748,100.998,101.758,107.761,110.011,112.261,114.511,115.276,123.277,127.273,130.27,134.266,138.766,141.268,144.265,146.767,151.267,153.769,157.765,162.265,166.765,169.015,171.858,177.197,179.447,181.697,183.947,184.712,191.714,193.964,194.729,202.73,207.23,211.73,214.232,218.228,222.728,227.228,231.224,233.474,235.724,236.485,244.486,246.736,248.986,249.751,252.748,257.248,261.748,266.248,270.748,273.745,275.995,278.511,285.009,287.511,290.508" svgx:width="0.72,0.44,0.5,0.5,0.28,0.28,0.25,0.25,0.55,0.67,0.25,0.25,0.25,0.55,0.89,0.44,0.33,0.44,0.5,0.28,0.33,0.28,0.5,0.28,0.44,0.5,0.5,0.25,0.25,0.72,0.25,0.25,0.25,0.55,0.78,0.25,0.55,0.89,0.5,0.5,0.28,0.44,0.5,0.5,0.44,0.25,0.25,0.55,0.89,0.25,0.25,0.55,0.33,0.5,0.5,0.5,0.5,0.33,0.25,0.25,0.72,0.28,0.33,0.25" style="fill:rgb(23,22,21);font-family:TimesNewRomanPSMT;font-size:9.0px;stroke:none;">Napoli, C., Marcotrigiano, V., &amp; Montagna, M. (2012). Air </text>
   <text y="234.212" x="108.243,111.744,115.74,122.742,127.242,129.744,132.246,136.746,141.246,143.496,145.706,150.206,153.203,157.703,161.699,165.695,170.195,174.695,177.692,181.688,185.189,187.439,189.653,192.155,196.655,198.905,201.119,205.115,209.615,213.611,216.113,220.613,224.609,227.111,231.107,233.357,235.562,242.564,245.066,249.062,252.059,256.559,261.059,263.561,267.557,270.059,272.309,274.514,278.51,283.01,287.51" svgx:width="0.39,0.44,0.78,0.5,0.28,0.28,0.5,0.5,0.25,0.55,0.5,0.33,0.5,0.44,0.44,0.5,0.5,0.33,0.44,0.39,0.25,0.55,0.28,0.5,0.25,0.55,0.44,0.5,0.44,0.28,0.5,0.44,0.28,0.44,0.25,0.55,0.78,0.28,0.44,0.33,0.5,0.5,0.28,0.44,0.28,0.25,0.55,0.44,0.5,0.5,0.33" style="fill:rgb(23,22,21);font-family:TimesNewRomanPSMT;font-size:9.0px;stroke:none;">sampling procedures to evaluate microbial con-</text>
   <text y="245.21" x="108.243,110.745,114.741,121.743,124.245,128.745,132.741,135.243,137.745,142.245,146.745,149.247,151.124,157.127,159.512,163.508,168.008,175.01,179.51,183.506,186.503,189.005,192.506,197.006,201.506,203.891,208.391,212.387,214.889,221.387,225.383,229.379,233.879,236.264,240.26,244.256,246.758,249.26,253.76,257.756,260.135,264.131,268.631,273.131,275.516,280.016,284.012,287.513" svgx:width="0.28,0.44,0.78,0.28,0.5,0.44,0.28,0.28,0.5,0.5,0.28,0.25,0.72,0.25,0.44,0.5,0.78,0.5,0.44,0.33,0.28,0.39,0.5,0.5,0.25,0.5,0.44,0.28,0.72,0.44,0.44,0.5,0.25,0.44,0.44,0.28,0.28,0.5,0.44,0.25,0.44,0.5,0.5,0.25,0.5,0.44,0.39,0.33" style="fill:rgb(23,22,21);font-family:TimesNewRomanPSMT;font-size:9.0px;stroke:none;">tamination: A comparison between active and pas-</text>
   <text y="256.208" x="108.243,111.744,114.246,118.746,122.742,124.992,126.702,133.704,137.7,140.202,144.698,149.198,153.698,157.199,159.449,161.159,163.661,168.161,170.411,172.121,176.621,181.121,185.117,188.114,192.11,194.612,197.114,201.614,206.114,208.364,210.069,212.571,217.071,221.067,225.063,227.565,231.561,234.558,238.054,240.304" svgx:width="0.39,0.28,0.5,0.44,0.25,0.55,0.78,0.44,0.28,0.5,0.5,0.5,0.39,0.25,0.55,0.28,0.5,0.25,0.55,0.5,0.5,0.44,0.33,0.44,0.28,0.28,0.5,0.5,0.25,0.55,0.28,0.5,0.44,0.44,0.28,0.44,0.33,0.39,0.25,0.25" style="fill:rgb(23,22,21);font-family:TimesNewRomanPSMT;font-size:9.0px;stroke:none;">sive methods in operating theaters. </text>
   <text y="256.208" x="244.264,249.763,257.26,263.263,265.513,267.223,272.722,277.222,281.498,284.0,286.502,290.498" svgx:width="0.61,0.83,0.67,0.25,0.55,0.61,0.5,0.5,0.28,0.28,0.44,0.25" style="fill:rgb(23,22,21);font-family:TimesNewRomanPS-Italic;font-size:9.0px;stroke:none;">BMC Public </text>
   <text y="267.206" x="108.243,114.741,118.737,123.237,125.739,128.241,132.741,134.991,137.826,142.326" svgx:width="0.72,0.44,0.5,0.28,0.28,0.5,0.25,0.25,0.5,0.5" style="fill:rgb(23,22,21);font-family:TimesNewRomanPS-Italic;font-size:9.0px;stroke:none;">Health, 12</text>
   <text y="267.206" x="146.826,149.076,151.911,156.411,160.911,165.411,167.661" svgx:width="0.25,0.25,0.5,0.5,0.5,0.25,0.25" style="fill:rgb(23,22,21);font-family:TimesNewRomanPSMT;font-size:9.0px;stroke:none;">, 594. </text>
   <text y="267.206" x="170.496,174.996,177.498,180.0,184.5,188.001,190.503,193.005,195.507,200.007,204.507,207.009,209.259,213.759,216.586,221.086,223.588,228.088,232.588,234.838,239.004,243.504,248.004,252.504,260.001,264.501,269.505,274.005,278.505,283.005,287.505,290.502" svgx:width="0.5,0.28,0.28,0.5,0.39,0.28,0.28,0.28,0.5,0.5,0.28,0.25,0.5,0.33,0.5,0.28,0.5,0.5,0.25,0.5,0.5,0.5,0.5,0.83,0.5,0.56,0.5,0.5,0.5,0.5,0.33,0.25" style="fill:rgb(0,0,255);font-family:TimesNewRomanPSMT;font-size:9.0px;stroke:none;">https://doi.org/10.1186%2F1471- </text>
   <text y="278.204" x="108.243,112.743,117.243,121.743,126.243,129.24,133.74,138.24,141.237,145.737,150.237" svgx:width="0.5,0.5,0.5,0.5,0.33,0.5,0.5,0.33,0.5,0.5,0.5" style="fill:rgb(0,0,255);font-family:TimesNewRomanPSMT;font-size:9.0px;stroke:none;">2458-12-594</text>
   <text y="289.202" x="72.0,78.498,81.495,87.993,92.997,99.495,101.745,103.995,104.981,107.978,112.478,116.978,121.478,125.978,128.975" svgx:width="0.72,0.33,0.72,0.56,0.72,0.25,0.25,0.55,0.33,0.5,0.5,0.5,0.5,0.33,0.25" style="fill:rgb(23,22,21);font-family:TimesNewRomanPSMT;font-size:9.0px;stroke:none;">NIOSH. (1977) </text>
   <text y="289.202" x="132.206,138.209,141.71,144.212,146.714,150.71,154.211,156.713,161.213,163.463,164.444,166.768,171.268,174.769,177.019,178.0,182.5,184.75,185.731,188.9,192.896,196.892,201.392,207.89,214.388,218.384,222.884,227.384,231.38,235.88,238.13,239.111,242.612,245.114,249.614,254.114,258.614,263.114,266.283,270.783,273.78,276.03,277.011,283.509,287.505" svgx:width="0.67,0.39,0.28,0.28,0.44,0.39,0.28,0.5,0.25,0.55,0.28,0.5,0.39,0.25,0.55,0.5,0.25,0.55,0.39,0.44,0.44,0.5,0.72,0.72,0.44,0.5,0.5,0.44,0.5,0.25,0.55,0.39,0.28,0.5,0.5,0.5,0.5,0.39,0.5,0.33,0.25,0.55,0.72,0.44,0.33" style="fill:rgb(23,22,21);font-family:TimesNewRomanPS-Italic;font-size:9.0px;stroke:none;">Criteria for a recommended standard: Oc-</text>
   <text y="300.2" x="108.243,112.239,116.739,121.239,125.739,128.241,130.743,135.243,139.743,144.243,146.745,149.139,153.135,157.131,161.631,166.131,169.632,174.132,177.301,181.297,183.691,186.193,190.693,193.087,198.956,203.456,206.957,209.459,213.455,215.849,220.349,224.849,228.845,232.346,234.848,239.348,243.344,245.846,248.348,252.344,254.738,259.104,263.604,267.105,271.101,274.602,276.996,281.496,285.996,290.496" svgx:width="0.44,0.5,0.5,0.5,0.28,0.28,0.5,0.5,0.5,0.28,0.25,0.44,0.44,0.5,0.5,0.39,0.5,0.39,0.44,0.25,0.28,0.5,0.25,0.67,0.5,0.39,0.28,0.44,0.25,0.5,0.5,0.44,0.39,0.28,0.5,0.44,0.28,0.28,0.44,0.25,0.5,0.5,0.39,0.44,0.39,0.25,0.5,0.5,0.5,0.25" style="fill:rgb(23,22,21);font-family:TimesNewRomanPS-Italic;font-size:9.0px;stroke:none;">cupational exposure to waste anesthetic gases and </text>
   <text y="311.198" x="108.243,112.239,116.739,121.239,125.739,129.152" svgx:width="0.44,0.5,0.5,0.5,0.39,0.39" style="fill:rgb(23,22,21);font-family:TimesNewRomanPS-Italic;font-size:9.0px;stroke:none;">vapors</text>
   <text y="311.198" x="132.653,134.903,137.153,141.779,147.782,150.284,154.784,158.78,161.282,165.782,170.282,174.272,176.774,179.276,181.526,183.776,188.398,194.896,201.394,203.896,206.146,210.772,217.27,219.52,224.524,226.774,229.024,233.65,240.148,244.144,248.644,252.64,255.637,258.139,265.141,269.137,273.637,276.139,278.389,283.005,287.505,290.502" svgx:width="0.25,0.25,0.55,0.67,0.28,0.5,0.44,0.28,0.5,0.5,0.44,0.28,0.28,0.25,0.25,0.55,0.72,0.72,0.28,0.25,0.55,0.72,0.25,0.56,0.25,0.25,0.55,0.72,0.44,0.5,0.44,0.33,0.28,0.78,0.44,0.5,0.28,0.25,0.55,0.5,0.33,0.25" style="fill:rgb(23,22,21);font-family:TimesNewRomanPSMT;font-size:9.0px;stroke:none;">. Cincinnati, OH: U.S. Department of </text>
   <text y="322.196" x="108.243,114.741,118.737,122.733,125.235,127.737,132.237,134.487,136.737,139.878,145.377,149.877,154.377,158.373,162.369,164.871,167.373,171.873,176.366,178.616,180.866,184.007,188.003,192.503,197.003,199.253,202.231,210.004,214.0,216.502,219.499,223.495,226.492,230.488,232.738,234.988,238.125,243.129,247.629,252.129,254.631,257.133,261.129,263.379,266.52,273.018,277.014,281.01,283.512,286.014,290.514" svgx:width="0.72,0.44,0.44,0.28,0.28,0.5,0.25,0.25,0.55,0.61,0.5,0.5,0.44,0.44,0.28,0.28,0.5,0.5,0.25,0.25,0.55,0.44,0.5,0.5,0.25,0.55,0.94,0.44,0.28,0.33,0.44,0.33,0.44,0.25,0.25,0.55,0.56,0.5,0.5,0.28,0.28,0.44,0.25,0.55,0.72,0.44,0.44,0.28,0.28,0.5,0.25" style="fill:rgb(23,22,21);font-family:TimesNewRomanPSMT;font-size:9.0px;stroke:none;">Health, Education, and Welfare. Public Health </text>
   <text y="333.194" x="108.243,113.247,117.243,120.24,124.74,127.242,131.238,135.234,137.484,139.734,143.442,149.445,153.441,157.941,160.443,164.439,167.436,169.686,173.394,176.391,180.891,183.888,186.138,189.846,196.344,198.846,202.347,206.343,210.339,213.84,217.836,220.086,223.794,229.797,234.297,238.797,241.299,244.296,248.796,251.298,253.548,255.798,259.506,266.004,270.0,272.502,275.004,279.504,284.004,288.0,290.502" svgx:width="0.56,0.44,0.33,0.5,0.28,0.44,0.44,0.25,0.25,0.55,0.67,0.44,0.5,0.28,0.44,0.33,0.25,0.55,0.33,0.5,0.33,0.25,0.55,0.72,0.28,0.39,0.44,0.44,0.39,0.44,0.25,0.55,0.67,0.5,0.5,0.28,0.33,0.5,0.28,0.25,0.25,0.55,0.72,0.44,0.28,0.28,0.5,0.5,0.44,0.28,0.25" style="fill:rgb(23,22,21);font-family:TimesNewRomanPSMT;font-size:9.0px;stroke:none;">Service. Center for Disease Control. National </text>
   <text y="344.192" x="108.243,108.243,111.24,115.74,119.241,121.743,124.245,126.747,131.247,133.749,137.745,139.995,144.152,147.149,151.649,154.646,156.896,161.059,167.557,171.553,175.549,180.049,184.549,188.545,191.047,193.549,198.049,202.549,206.545,209.047,211.297,215.452,220.456,224.452,227.449,231.445,233.947,238.447,240.697,244.859,248.855,253.355,257.855,260.105,264.267,270.765,274.761,278.757,281.259,283.761,288.261,290.511" svgx:width="0.25,0.33,0.5,0.39,0.28,0.28,0.28,0.5,0.28,0.44,0.25,0.55,0.33,0.5,0.33,0.25,0.55,0.72,0.44,0.44,0.5,0.5,0.44,0.28,0.28,0.5,0.5,0.44,0.28,0.25,0.55,0.56,0.44,0.33,0.44,0.28,0.5,0.25,0.55,0.44,0.5,0.5,0.25,0.55,0.72,0.44,0.44,0.28,0.28,0.5,0.25,0.25" style="fill:rgb(23,22,21);font-family:TimesNewRomanPSMT;font-size:9.0px;stroke:none;"> Institute for Occupational Safety and Health. </text>
   <text y="355.19" x="108.243,114.741,121.239,126.738,135.071,137.321,137.996,140.993,147.491,150.488,156.986,161.99,168.488,171.485,173.735,174.415,179.419,183.919,188.419,190.921,193.423,197.419,201.415,203.917,206.419,210.919,215.419,218.337,224.835,229.335,231.585,234.51,239.01,243.51,246.507,251.007,255.507,260.007" svgx:width="0.72,0.72,0.61,0.94,0.25,0.55,0.33,0.72,0.33,0.72,0.56,0.72,0.33,0.25,0.55,0.56,0.5,0.5,0.28,0.28,0.44,0.44,0.28,0.28,0.5,0.5,0.25,0.72,0.5,0.25,0.25,0.5,0.5,0.33,0.5,0.5,0.5,0.25" style="fill:rgb(23,22,21);font-family:TimesNewRomanPSMT;font-size:9.0px;stroke:none;">DHEW (NIOSH) Publication No. 77-140.</text>
   <text y="366.188" x="72.0,78.498,81.495,87.993,92.997,99.495,101.745,103.995,105.291,108.288,112.788,117.288,121.788,126.288,129.285,131.535" svgx:width="0.72,0.33,0.72,0.56,0.72,0.25,0.25,0.55,0.33,0.5,0.5,0.5,0.5,0.33,0.25,0.25" style="fill:rgb(23,22,21);font-family:TimesNewRomanPSMT;font-size:9.0px;stroke:none;">NIOSH. (2006). </text>
   <text y="366.188" x="135.081,140.58,144.576,149.076,153.576,157.572,161.073,163.575,165.825,167.121,169.446,173.946,177.447,179.697,180.993,183.495,187.995,190.319,194.819,198.32,204.818,209.318,211.82,214.322,218.822,223.322,225.572,226.868,231.368,235.868,238.118,239.414,245.283,249.783,253.284,255.786,259.782,262.032,263.328,267.828,272.328,274.83,279.106,283.518,287.514" svgx:width="0.61,0.44,0.5,0.5,0.44,0.39,0.28,0.25,0.55,0.28,0.5,0.39,0.25,0.55,0.28,0.5,0.28,0.5,0.39,0.72,0.5,0.28,0.28,0.5,0.5,0.25,0.55,0.5,0.5,0.25,0.55,0.67,0.5,0.39,0.28,0.44,0.25,0.55,0.5,0.5,0.28,0.5,0.5,0.44,0.33" style="fill:rgb(23,22,21);font-family:TimesNewRomanPS-Italic;font-size:9.0px;stroke:none;">Request for information on waste haloge-</text>
   <text y="377.186" x="108.243,112.743,117.243,119.745,123.741,128.241,130.491,133.497,137.997,142.497,146.493,149.994,152.496,156.996,160.992,163.494,165.996,169.992,172.242,175.248,179.571,183.983,187.979,192.479,194.981,198.482,201.479,203.729,206.735,209.732,213.233,217.733,220.235,222.737,227.237,230.333,234.833,239.333,243.241,245.491,247.741,250.747,255.247,259.243,262.744,265.246,267.748,272.248,275.345,279.845,284.345,288.253,290.503" svgx:width="0.5,0.5,0.28,0.44,0.5,0.25,0.55,0.5,0.5,0.44,0.39,0.28,0.5,0.44,0.28,0.28,0.44,0.25,0.55,0.5,0.5,0.44,0.5,0.28,0.39,0.33,0.25,0.55,0.33,0.39,0.5,0.28,0.28,0.5,0.39,0.5,0.5,0.44,0.25,0.25,0.55,0.5,0.44,0.39,0.28,0.28,0.5,0.39,0.5,0.5,0.44,0.25,0.25" style="fill:rgb(23,22,21);font-family:TimesNewRomanPS-Italic;font-size:9.0px;stroke:none;">nated anesthetic agents: Isoflurane, desflurane, </text>
   <text y="388.184" x="108.243,112.743,117.243,121.743,123.993,125.703,129.204,133.066,137.062,141.562,144.064,146.566,151.066,154.163,158.663,163.163" svgx:width="0.5,0.5,0.5,0.25,0.55,0.39,0.44,0.44,0.5,0.28,0.28,0.5,0.39,0.5,0.5,0.44" style="fill:rgb(23,22,21);font-family:TimesNewRomanPS-Italic;font-size:9.0px;stroke:none;">and sevoflurane</text>
   <text y="388.184" x="167.159,169.409,171.659,173.369,179.372,181.874,186.374,190.37,192.872,197.372,201.872,205.868,208.37,210.872,213.122,215.372,217.074,223.572,230.07,232.32,234.57,236.28,242.778,247.782,254.28,256.782,259.032,260.742,267.24,270.237,276.735,281.739,288.237,290.487" svgx:width="0.25,0.25,0.55,0.67,0.28,0.5,0.44,0.28,0.5,0.5,0.44,0.28,0.28,0.25,0.25,0.55,0.72,0.72,0.25,0.25,0.55,0.72,0.56,0.72,0.28,0.25,0.55,0.72,0.33,0.72,0.56,0.72,0.25,0.25" style="fill:rgb(23,22,21);font-family:TimesNewRomanPSMT;font-size:9.0px;stroke:none;">. Cincinnati, OH, USA: NIOSH. </text>
   <text y="399.182" x="108.243,114.246,118.242,120.744,123.741,126.243,130.239,134.739,138.735,143.235,145.485,150.174,153.171,156.168,160.668,167.67" svgx:width="0.67,0.44,0.28,0.33,0.28,0.44,0.5,0.44,0.5,0.25,0.55,0.33,0.33,0.5,0.78,0.25" style="fill:rgb(23,22,21);font-family:TimesNewRomanPSMT;font-size:9.0px;stroke:none;">Retrieved from </text>
   <text y="399.182" x="174.618,179.118,181.62,184.122,188.622,192.123,194.625,197.127,199.629,206.127,212.625,218.537,220.787,223.784,227.78,232.28,236.276,239.273,243.269,245.771,248.768,252.764,257.264,259.766,263.267,265.769,269.765,272.256,274.506,279.006,283.506,288.006" svgx:width="0.5,0.28,0.28,0.5,0.39,0.28,0.28,0.28,0.72,0.72,0.72,0.25,0.33,0.44,0.5,0.44,0.33,0.44,0.28,0.33,0.44,0.5,0.28,0.39,0.28,0.44,0.33,0.25,0.5,0.5,0.5,0.28" style="fill:rgb(0,0,255);font-family:TimesNewRomanPSMT;font-size:9.0px;stroke:none;">https://www.federalregister.gov/</text>
   <text y="410.18" x="108.243,112.788,117.333,121.374,125.919,132.966,137.007,141.552,144.099,147.645,150.192,154.737,159.282,163.827,168.372,170.919,175.464,180.009,182.556,187.101,191.646,194.193,198.738,203.283,206.325,210.87,215.415,219.96,224.505,227.052,230.094,234.135,238.68,243.225,247.266,250.812,253.359,256.401,259.443,263.988,266.852,269.894,272.441,276.986,280.028,284.573,287.505" svgx:width="0.5,0.5,0.44,0.5,0.78,0.44,0.5,0.28,0.39,0.28,0.5,0.5,0.5,0.5,0.28,0.5,0.5,0.28,0.5,0.5,0.28,0.5,0.5,0.33,0.5,0.5,0.5,0.5,0.28,0.33,0.44,0.5,0.5,0.44,0.39,0.28,0.33,0.33,0.5,0.33,0.33,0.28,0.5,0.33,0.5,0.33,0.33" style="fill:rgb(0,0,255);font-family:TimesNewRomanPSMT;font-size:9.0px;stroke:none;">documents/2006/02/21/06-1542/request-for-infor-</text>
   <text y="421.178" x="108.243,115.407,119.565,122.229,124.893,129.555,134.217,137.376,142.038,146.7,149.859,156.519,160.677,164.34,167.004,171.162,174.321,178.983,183.141,185.805,190.467,195.129,199.287,203.949,208.107,210.771,214.929,219.591,222.75,226.908,231.57,235.728,239.391,242.055,246.717,250.875,253.539,256.203,260.361,263.52,267.678,272.34,276.498,281.16,283.824,287.487" svgx:width="0.78,0.44,0.28,0.28,0.5,0.5,0.33,0.5,0.5,0.33,0.72,0.44,0.39,0.28,0.44,0.33,0.5,0.44,0.28,0.5,0.5,0.44,0.5,0.44,0.28,0.44,0.5,0.33,0.44,0.5,0.44,0.39,0.28,0.5,0.44,0.28,0.28,0.44,0.33,0.44,0.5,0.44,0.5,0.28,0.39,0.33" style="fill:rgb(0,0,255);font-family:TimesNewRomanPSMT;font-size:9.0px;stroke:none;">mation-on-waste-halogenated-anesthetic-agents-</text>
   <text y="432.176" x="108.243,110.745,114.246,118.746,121.743,124.245,128.745,131.742,135.738,140.238,144.234,147.231,151.731,155.727,159.228,162.225,164.727,169.227,172.224,176.22,180.72,184.716,187.713,191.709,196.209,200.709,203.706,207.207,211.203,215.703,220.203,223.2,225.702,230.202,233.199,237.195,241.695" svgx:width="0.28,0.39,0.5,0.33,0.28,0.5,0.33,0.44,0.5,0.44,0.33,0.5,0.44,0.39,0.33,0.28,0.5,0.33,0.44,0.5,0.44,0.33,0.44,0.5,0.5,0.33,0.39,0.44,0.5,0.5,0.33,0.28,0.5,0.33,0.44,0.5,0.44" style="fill:rgb(0,0,255);font-family:TimesNewRomanPSMT;font-size:9.0px;stroke:none;">isoflurane-desflurane-and-sevoflurane</text>
   <text y="443.174" x="72.0,78.498,81.495,87.993,92.997,99.495,101.745,103.995,108.396,111.393,115.893,120.393,124.893,129.393,132.39,134.64" svgx:width="0.72,0.33,0.72,0.56,0.72,0.25,0.25,0.55,0.33,0.5,0.5,0.5,0.5,0.33,0.25,0.25" style="fill:rgb(23,22,21);font-family:TimesNewRomanPSMT;font-size:9.0px;stroke:none;">NIOSH. (2007). </text>
   <text y="443.174" x="141.291,147.709,152.209,155.71,158.212,162.208,164.458,168.859,173.359,177.859,181.855,185.356,187.858,192.358,196.354,198.856,201.358,205.354,207.604,212.005,216.371,220.871,224.372,228.368,231.869,234.866,237.116,241.512,248.01,252.006,256.002,260.502,265.002,269.502,272.004,274.506,279.006,283.506,288.006,290.508" svgx:width="0.83,0.5,0.39,0.28,0.44,0.25,0.55,0.5,0.5,0.44,0.39,0.28,0.5,0.44,0.28,0.28,0.44,0.25,0.55,0.5,0.5,0.39,0.44,0.39,0.33,0.25,0.55,0.72,0.44,0.44,0.5,0.5,0.5,0.28,0.28,0.5,0.5,0.5,0.28,0.25" style="fill:rgb(23,22,21);font-family:TimesNewRomanPS-Italic;font-size:9.0px;stroke:none;">Waste anesthetic gases: Occupational </text>
   <text y="454.172" x="108.243,108.243,112.743,117.243,120.744,125.244,128.413,132.913,136.414,139.078,141.58,146.08,148.744,153.244,157.744,161.245,165.745,168.247,170.749,175.249,177.751" svgx:width="0.25,0.5,0.5,0.39,0.5,0.39,0.5,0.39,0.25,0.28,0.5,0.25,0.5,0.5,0.39,0.5,0.28,0.28,0.5,0.28,0.39" style="fill:rgb(23,22,21);font-family:TimesNewRomanPS-Italic;font-size:9.0px;stroke:none;"> hazards in hospitals</text>
   <text y="454.172" x="181.252,183.502,186.166,192.664,199.162,205.66,210.664,213.336,216.333,222.831,225.828,232.326,237.33,243.828,246.825,249.498,254.502,259.002,263.502,266.004,268.506,272.502,276.498,279.0,281.502,286.002,290.502" svgx:width="0.25,0.25,0.72,0.72,0.72,0.56,0.25,0.33,0.72,0.33,0.72,0.56,0.72,0.33,0.25,0.56,0.5,0.5,0.28,0.28,0.44,0.44,0.28,0.28,0.5,0.5,0.25" style="fill:rgb(23,22,21);font-family:TimesNewRomanPSMT;font-size:9.0px;stroke:none;">. DHHS (NIOSH) Publication </text>
   <text y="465.17" x="108.243,114.741,119.241,121.491,124.416,128.916,133.416,137.916,142.416,145.413,149.913,154.413,158.913" svgx:width="0.72,0.5,0.25,0.25,0.5,0.5,0.5,0.5,0.33,0.5,0.5,0.5,0.25" style="fill:rgb(23,22,21);font-family:TimesNewRomanPSMT;font-size:9.0px;stroke:none;">No. 2007-151.</text>
   <text y="476.168" x="72.0,78.498,83.502,90.0,96.498,98.748,100.998,101.876,104.873,109.373,113.873,118.373,122.873,125.87,128.12" svgx:width="0.72,0.56,0.72,0.72,0.25,0.25,0.55,0.33,0.5,0.5,0.5,0.5,0.33,0.25,0.25" style="fill:rgb(23,22,21);font-family:TimesNewRomanPSMT;font-size:9.0px;stroke:none;">OSHA. (2000). </text>
   <text y="476.168" x="131.243,136.742,141.242,145.238,148.739,151.241,155.741,159.737,162.239,164.741,168.737,170.987,171.86,176.226,180.726,184.227,188.223,191.724,194.721,196.971,197.844,204.342,208.842,211.344,215.844,219.84,222.342,224.844,229.344,233.34,236.841,239.091,239.964,242.289,246.789,250.29,252.54,253.413,259.328,263.828,267.015,271.011,275.511,278.013,282.513,286.509,290.505" svgx:width="0.61,0.5,0.44,0.39,0.28,0.5,0.44,0.28,0.28,0.44,0.25,0.55,0.5,0.5,0.39,0.44,0.39,0.33,0.25,0.55,0.72,0.5,0.28,0.5,0.44,0.28,0.28,0.5,0.44,0.39,0.25,0.55,0.28,0.5,0.39,0.25,0.55,0.67,0.5,0.39,0.44,0.5,0.28,0.5,0.44,0.44,0.25" style="fill:rgb(23,22,21);font-family:TimesNewRomanPS-Italic;font-size:9.0px;stroke:none;">Anesthetic gases: Guidelines for workplace </text>
   <text y="487.166" x="108.243,112.239,116.235,120.735,125.235,128.736,133.236,136.405,140.401" svgx:width="0.44,0.44,0.5,0.5,0.39,0.5,0.39,0.44,0.39" style="fill:rgb(23,22,21);font-family:TimesNewRomanPS-Italic;font-size:9.0px;stroke:none;">exposures</text>
   <text y="487.166" x="143.902,146.152,148.402,149.806,155.809,159.805,162.307,165.304,167.806,171.802,176.297,180.293,184.793,187.043,188.447,191.444,194.441,198.941,205.943" svgx:width="0.25,0.25,0.55,0.67,0.44,0.28,0.33,0.28,0.44,0.5,0.44,0.5,0.25,0.55,0.33,0.33,0.5,0.78,0.25" style="fill:rgb(23,22,21);font-family:TimesNewRomanPSMT;font-size:9.0px;stroke:none;">. Retrieved from </text>
   <text y="487.166" x="209.597,214.097,216.599,219.101,223.601,227.102,229.604,232.106,234.608,241.101,247.599,253.515,255.765,260.265,263.766,268.266,272.262,274.512,279.012,283.512,288.012" svgx:width="0.5,0.28,0.28,0.5,0.39,0.28,0.28,0.28,0.72,0.72,0.72,0.25,0.5,0.39,0.5,0.44,0.25,0.5,0.5,0.5,0.28" style="fill:rgb(0,0,255);font-family:TimesNewRomanPSMT;font-size:9.0px;stroke:none;">https://www.osha.gov/</text>
   <text y="498.164" x="108.243,112.743,115.245,118.746,121.248,125.748,129.249,131.751,135.747,138.249,142.245,146.745,150.741,154.242,156.744,161.244,165.24,167.742,170.244,174.24,178.74,182.736,186.237,190.233,193.734,196.236,198.738,203.238,207.738,211.734,216.234,218.484,222.984,225.486,232.488" svgx:width="0.5,0.28,0.39,0.28,0.5,0.39,0.28,0.44,0.28,0.44,0.5,0.44,0.39,0.28,0.5,0.44,0.28,0.28,0.44,0.5,0.44,0.39,0.44,0.39,0.28,0.28,0.5,0.5,0.44,0.5,0.25,0.5,0.28,0.78,0.28" style="fill:rgb(0,0,255);font-family:TimesNewRomanPSMT;font-size:9.0px;stroke:none;">dts/osta/anestheticgases/index.html</text>
   <text y="80.978" x="321.507,327.771,332.541,338.805,345.069,347.085,349.335,352.206,354.969,359.235,363.501,367.767,372.033,374.796,376.812" svgx:width="0.72,0.56,0.72,0.72,0.25,0.25,0.55,0.33,0.5,0.5,0.5,0.5,0.33,0.25,0.25" style="fill:rgb(23,22,21);font-family:TimesNewRomanPSMT;font-size:9.0px;stroke:none;">OSHA. (2012). </text>
   <text y="80.978" x="381.933,388.197,392.463,395.73,399.996,402.931,407.197,409.447,412.318,418.087,422.353,428.617,434.881,439.147,443.413,445.681,449.443,453.709,455.977,458.245,462.511,466.777,469.027,471.898,476.164,478.432,482.698,486.964,491.23,495.496,498.431,502.697,504.713,506.963,509.834,514.1,518.366,520.616,523.487,529.256,534.521,540.02" svgx:width="0.72,0.5,0.39,0.5,0.39,0.5,0.25,0.55,0.67,0.5,0.72,0.72,0.5,0.5,0.28,0.44,0.5,0.28,0.28,0.5,0.5,0.25,0.55,0.5,0.28,0.5,0.5,0.5,0.5,0.39,0.5,0.25,0.25,0.55,0.5,0.5,0.25,0.55,0.67,0.61,0.61,0.25" style="fill:rgb(23,22,21);font-family:TimesNewRomanPS-Italic;font-size:9.0px;stroke:none;">Hazard Communication Standard, 29 CFR </text>
   <text y="91.976" x="357.75,362.016,366.282,370.548,374.814,376.83,381.096,385.362,389.628" svgx:width="0.5,0.5,0.5,0.5,0.25,0.5,0.5,0.5,0.5" style="fill:rgb(23,22,21);font-family:TimesNewRomanPS-Italic;font-size:9.0px;stroke:none;">1910.1200</text>
   <text y="91.976" x="393.894,395.91,398.029,403.798,407.56,409.828,412.591,414.859,418.621,422.887,426.649,430.915,433.035,435.798,438.561,442.827,449.595" svgx:width="0.25,0.25,0.67,0.44,0.28,0.33,0.28,0.44,0.5,0.44,0.5,0.25,0.33,0.33,0.5,0.78,0.25" style="fill:rgb(23,22,21);font-family:TimesNewRomanPSMT;font-size:9.0px;stroke:none;">. Retrieved from </text>
   <text y="91.976" x="451.71,455.976,458.244,460.512,464.778,468.045,470.313,472.581,474.849,481.113,487.377,493.058,495.074,499.34,502.607,506.873,510.635,512.651,516.917,521.183,525.449,527.717,531.983,534.251,537.518" svgx:width="0.5,0.28,0.28,0.5,0.39,0.28,0.28,0.28,0.72,0.72,0.72,0.25,0.5,0.39,0.5,0.44,0.25,0.5,0.5,0.5,0.28,0.5,0.28,0.39,0.28" style="fill:rgb(0,0,255);font-family:TimesNewRomanPSMT;font-size:9.0px;stroke:none;">https://www.osha.gov/pls/</text>
   <text y="102.974" x="357.75,362.097,365.445,369.792,373.635,379.98,383.823,388.17,390.515,394.862,401.207,405.05,409.397,411.741,415.089,419.436,421.533,424.881,429.228,433.575,439.92,444.267,448.614,452.961,456.799,461.146,467.991,471.834,476.181,478.525,482.364,486.711,491.058,493.402,497.75,502.673,507.02,511.367,515.714,520.06,524.407,531.252,535.599" svgx:width="0.5,0.39,0.5,0.44,0.72,0.44,0.5,0.28,0.5,0.72,0.44,0.5,0.28,0.39,0.5,0.25,0.39,0.5,0.5,0.72,0.5,0.5,0.5,0.44,0.5,0.78,0.44,0.5,0.28,0.44,0.5,0.5,0.28,0.5,0.56,0.5,0.5,0.5,0.5,0.5,0.78,0.5,0.5" style="fill:rgb(0,0,255);font-family:TimesNewRomanPSMT;font-size:9.0px;stroke:none;">oshaweb/owadisp.show_document?p_id=10099&amp;p_</text>
   <text y="113.972" x="357.75,360.018,363.78,368.046,370.314,374.076,378.918,383.688,388.231,394.495,400.759,407.023,413.287,419.056,425.32" svgx:width="0.28,0.44,0.5,0.28,0.44,0.56,0.56,0.61,0.72,0.72,0.72,0.72,0.67,0.72,0.56" style="fill:rgb(0,0,255);font-family:TimesNewRomanPSMT;font-size:9.0px;stroke:none;">table=STANDARDS</text>
   <text y="124.97" x="321.507,326.511,330.507,333.504,338.004,340.254,342.504,343.278,349.776,352.026,354.276,356.969,362.568,366.564,371.064,378.066,380.316,382.566,383.34,386.841,389.091,391.341,393.591,394.365,399.864,403.86,407.856,410.106,412.965,420.634,422.884,425.134,427.384,428.158,435.16,437.41,438.184,443.683,447.679,451.67,453.92,456.17,456.944,463.442,465.692,467.942,468.716,471.713,476.213,480.713,485.213,489.713,492.71,494.96,497.49,503.988,507.489,510.99,514.986,518.487,521.988,528.99,532.986,537.486,539.988" svgx:width="0.56,0.44,0.33,0.5,0.25,0.25,0.55,0.72,0.25,0.25,0.25,0.72,0.44,0.5,0.78,0.25,0.25,0.55,0.39,0.25,0.25,0.25,0.55,0.61,0.44,0.44,0.25,0.25,0.94,0.25,0.25,0.25,0.55,0.78,0.25,0.55,0.61,0.44,0.44,0.25,0.25,0.55,0.72,0.25,0.25,0.55,0.33,0.5,0.5,0.5,0.5,0.33,0.25,0.25,0.72,0.39,0.39,0.44,0.39,0.39,0.78,0.44,0.5,0.28,0.25" style="fill:rgb(23,22,21);font-family:TimesNewRomanPSMT;font-size:9.0px;stroke:none;">Park, D., Yeom, J., Lee, W., &amp; Lee, K. (2013). Assessment </text>
   <text y="135.968" x="357.75,362.25,365.247,367.497,369.009,371.511,376.011,380.007,382.257,383.769,386.271,390.267,394.767,398.763,401.265,404.766,407.016,408.528,413.028,416.025,418.275,419.787,423.783,426.285,429.282,433.782,438.282,441.279,445.779,449.775,452.025,453.537,458.037,462.033,466.029,468.531,472.527,475.524,478.026,482.022,484.272,486.522,488.029,492.529,495.526,499.522,506.524,509.521,514.021,518.017,522.517,526.513,529.015,531.517,536.017,540.013" svgx:width="0.5,0.33,0.25,0.55,0.28,0.5,0.44,0.25,0.55,0.28,0.44,0.5,0.44,0.28,0.39,0.25,0.55,0.5,0.33,0.25,0.55,0.44,0.28,0.33,0.5,0.5,0.33,0.5,0.44,0.25,0.55,0.5,0.44,0.44,0.28,0.44,0.33,0.28,0.44,0.25,0.25,0.55,0.5,0.33,0.44,0.78,0.33,0.5,0.44,0.5,0.44,0.28,0.28,0.5,0.44,0.25" style="fill:rgb(23,22,21);font-family:TimesNewRomanPSMT;font-size:9.0px;stroke:none;">of the levels of airborne bacteria, gram-negative </text>
   <text y="146.966" x="357.75,362.25,366.246,370.242,372.744,376.74,379.737,382.239,386.235,388.485,390.735,392.86,396.856,401.356,405.856,408.106,410.239,413.236,417.736,422.236,426.736,429.238,431.488,433.621,436.123,440.623,442.873,445.006,449.506,454.006,457.507,462.007,464.509,467.011,471.007,473.509,475.759,477.892,480.394,484.894,489.394,493.894,496.396,500.392,503.893,506.143" svgx:width="0.5,0.44,0.44,0.28,0.44,0.33,0.28,0.44,0.25,0.25,0.55,0.44,0.5,0.5,0.25,0.55,0.33,0.5,0.5,0.5,0.28,0.25,0.55,0.28,0.5,0.25,0.55,0.5,0.5,0.39,0.5,0.28,0.28,0.44,0.28,0.25,0.55,0.28,0.5,0.5,0.5,0.28,0.44,0.39,0.25,0.25" style="fill:rgb(23,22,21);font-family:TimesNewRomanPSMT;font-size:9.0px;stroke:none;">bacteria, and fungi in hospital lobbies. </text>
   <text y="146.966" x="510.526,513.523,518.023,520.525,524.521,528.022,532.522,537.022" svgx:width="0.33,0.5,0.28,0.44,0.39,0.5,0.5,0.33" style="fill:rgb(23,22,21);font-family:TimesNewRomanPS-Italic;font-size:9.0px;stroke:none;">Interna-</text>
   <text y="157.964" x="357.75,360.252,362.754,367.254,371.754,376.254,378.756,381.006,384.201,387.973,392.473,396.973,400.474,404.974,409.474,411.976,414.226,417.421,421.921,424.423,426.673,429.868,435.367,439.509,443.505,446.007,449.103,453.603,458.103,464.601,468.597,473.097,475.599,480.099,482.601,484.851,488.046,493.545,497.541,501.042,505.038,509.538,512.707,516.569,521.069,523.319,526.514,531.014,535.514,540.014" svgx:width="0.28,0.28,0.5,0.5,0.5,0.28,0.25,0.55,0.44,0.5,0.5,0.39,0.5,0.5,0.28,0.25,0.55,0.5,0.28,0.25,0.55,0.61,0.5,0.44,0.28,0.39,0.5,0.5,0.72,0.44,0.5,0.28,0.5,0.28,0.25,0.55,0.61,0.44,0.39,0.44,0.5,0.39,0.44,0.5,0.25,0.55,0.5,0.5,0.5,0.25" style="fill:rgb(23,22,21);font-family:TimesNewRomanPS-Italic;font-size:9.0px;stroke:none;">tional Journal of Environmental Research and </text>
   <text y="168.962" x="357.75,363.249,367.749,372.025,374.527,377.029,381.025,383.275,390.52,397.018,401.014,405.514,408.016,410.518,415.018,417.268,419.518,426.763,431.263" svgx:width="0.61,0.5,0.5,0.28,0.28,0.44,0.25,0.55,0.72,0.44,0.5,0.28,0.28,0.5,0.25,0.25,0.55,0.5,0.5" style="fill:rgb(23,22,21);font-family:TimesNewRomanPS-Italic;font-size:9.0px;stroke:none;">Public Health, 10</text>
   <text y="168.962" x="435.763,438.76,443.26,446.257,448.507,450.757,458.002,462.502,467.002,471.502,476.002,480.502,485.002,489.502,491.752" svgx:width="0.33,0.5,0.33,0.25,0.25,0.55,0.5,0.5,0.5,0.5,0.5,0.5,0.5,0.25,0.25" style="fill:rgb(23,22,21);font-family:TimesNewRomanPSMT;font-size:9.0px;stroke:none;">(2), 541–555. </text>
   <text y="168.962" x="501.247,505.747,508.249,510.751,515.251,518.752,521.254,523.756,526.258,530.758,535.258,537.76" svgx:width="0.5,0.28,0.28,0.5,0.39,0.28,0.28,0.28,0.5,0.5,0.28,0.25" style="fill:rgb(0,0,255);font-family:TimesNewRomanPSMT;font-size:9.0px;stroke:none;">https://doi.</text>
   <text y="179.96" x="357.75,362.25,365.084,369.584,372.086,376.586,381.086,383.336,387.836,392.336,396.836,401.336,403.838,406.34,408.842,412.838,415.835,420.335,424.835,429.335,433.835,438.335,442.835,447.335,451.835,456.335" svgx:width="0.5,0.33,0.5,0.28,0.5,0.5,0.25,0.5,0.5,0.5,0.5,0.28,0.28,0.28,0.44,0.33,0.5,0.5,0.5,0.5,0.5,0.5,0.5,0.5,0.5,0.5" style="fill:rgb(0,0,255);font-family:TimesNewRomanPSMT;font-size:9.0px;stroke:none;">org/10.3390/ijerph10020541</text>
   <text y="190.958" x="321.507,327.51,331.506,334.008,338.004,342.504,345.006,347.508,352.008,354.51,357.32,363.818,368.318,371.819,376.319,378.821,381.323,385.319,387.821,390.071,392.888,395.885,400.385,404.885,409.385,413.885,416.882,419.132" svgx:width="0.67,0.44,0.28,0.44,0.5,0.28,0.28,0.5,0.28,0.25,0.72,0.5,0.39,0.5,0.28,0.28,0.44,0.28,0.25,0.25,0.33,0.5,0.5,0.5,0.5,0.33,0.25,0.25" style="fill:rgb(23,22,21);font-family:TimesNewRomanPSMT;font-size:9.0px;stroke:none;">Rajavithi Hospital. (2018). </text>
   <text y="190.958" x="421.949,428.447,432.947,436.448,440.948,443.45,445.952,450.452,452.954,455.771,460.271,463.367,467.867,470.637,473.139,475.641" svgx:width="0.72,0.5,0.39,0.5,0.28,0.28,0.5,0.28,0.25,0.5,0.39,0.5,0.28,0.28,0.28,0.44" style="fill:rgb(23,22,21);font-family:TimesNewRomanPS-Italic;font-size:9.0px;stroke:none;">Hospital profile</text>
   <text y="190.958" x="479.637,481.887,484.704,490.707,494.703,497.205,500.202,502.704,506.7,511.2,515.196,519.696,522.508,525.505,528.502,533.002,540.004" svgx:width="0.25,0.25,0.67,0.44,0.28,0.33,0.28,0.44,0.5,0.44,0.5,0.25,0.33,0.33,0.5,0.78,0.25" style="fill:rgb(23,22,21);font-family:TimesNewRomanPSMT;font-size:9.0px;stroke:none;">. Retrieved from </text>
   <text y="201.956" x="357.75,362.25,364.752,367.254,371.754,374.256,376.758,379.26,385.758,392.256,398.166,400.416,403.413,407.409,409.911,413.907,418.407,420.909,423.411,427.911,430.413,432.663,437.163,441.663,443.913,446.415,450.915,453.417,457.413,461.913,466.413" svgx:width="0.5,0.28,0.28,0.5,0.28,0.28,0.28,0.72,0.72,0.72,0.25,0.33,0.44,0.28,0.44,0.5,0.28,0.28,0.5,0.28,0.25,0.5,0.5,0.25,0.28,0.5,0.28,0.44,0.5,0.5,0.28" style="fill:rgb(0,0,255);font-family:TimesNewRomanPSMT;font-size:9.0px;stroke:none;">http://www.rajavithi.go.th/eng/</text>
   <text y="212.953" x="321.507,326.511,330.507,334.008,337.509,340.011,344.007,346.644,348.894,351.144,352.008,358.506,360.756,363.006,365.256,366.12,373.122,375.372,376.236,382.239,386.235,390.735,395.235,401.733,405.729,408.231,410.733,412.983,415.233,416.093,419.594,421.844,424.094,424.958,427.955,432.455,436.955,441.455,445.955,448.952,451.202,453.452,454.316,459.815,464.315,468.815,473.315,476.816,481.316,484.313,488.309,490.559,491.423,495.923,498.92,501.17,502.034,506.534,511.034,514.535,517.037,521.537,526.037,530.033,533.03,537.026" svgx:width="0.56,0.44,0.39,0.39,0.28,0.44,0.33,0.25,0.25,0.55,0.72,0.25,0.25,0.25,0.55,0.78,0.25,0.55,0.67,0.44,0.5,0.5,0.72,0.44,0.28,0.28,0.25,0.25,0.55,0.39,0.25,0.25,0.55,0.33,0.5,0.5,0.5,0.5,0.33,0.25,0.25,0.55,0.61,0.5,0.5,0.5,0.39,0.5,0.33,0.44,0.25,0.55,0.5,0.33,0.25,0.55,0.5,0.5,0.39,0.28,0.5,0.5,0.44,0.33,0.44,0.33" style="fill:rgb(23,22,21);font-family:TimesNewRomanPSMT;font-size:9.0px;stroke:none;">Sessler, D., &amp; Badgwell, J. (1998). Exposure of postopera-</text>
   <text y="223.951" x="357.75,360.252,362.754,367.254,371.25,373.59,378.09,382.59,385.587,389.088,393.084,396.585,398.925,401.427,405.927,408.267,412.263,416.763,421.263,425.259,427.761,431.757,436.257,438.597,442.593,447.093,451.089,454.59,457.092,461.592,465.588,468.09,470.592,474.588,476.923,481.423,485.419,488.92,492.916,496.417,498.667" svgx:width="0.28,0.28,0.5,0.44,0.25,0.5,0.5,0.33,0.39,0.44,0.39,0.25,0.28,0.5,0.25,0.44,0.5,0.5,0.44,0.28,0.44,0.5,0.25,0.44,0.5,0.44,0.39,0.28,0.5,0.44,0.28,0.28,0.44,0.25,0.5,0.44,0.39,0.44,0.39,0.25,0.25" style="fill:rgb(23,22,21);font-family:TimesNewRomanPSMT;font-size:9.0px;stroke:none;">tive nurses to exhaled anesthetic gases. </text>
   <text y="223.951" x="501.007,506.506,511.006,515.002,518.503,521.005,525.505,529.501,533.002,535.504,540.004" svgx:width="0.61,0.5,0.44,0.39,0.28,0.5,0.44,0.39,0.28,0.5,0.25" style="fill:rgb(23,22,21);font-family:TimesNewRomanPS-Italic;font-size:9.0px;stroke:none;">Anesthesia </text>
   <text y="234.949" x="357.75,364.752,367.002,372.807,378.306,382.806,387.306,389.808,394.221,398.217,401.718,404.22,408.72,410.97,413.22,419.566,424.066" svgx:width="0.78,0.25,0.55,0.61,0.5,0.5,0.28,0.5,0.44,0.39,0.28,0.5,0.25,0.25,0.55,0.5,0.5" style="fill:rgb(23,22,21);font-family:TimesNewRomanPS-Italic;font-size:9.0px;stroke:none;">&amp; Analgesia, 87</text>
   <text y="234.949" x="428.566,431.563,436.063,439.06,441.31,443.56,449.905,454.405,458.905,463.405,467.905,472.405,476.905,481.405,485.905,490.405,492.655" svgx:width="0.33,0.5,0.33,0.25,0.25,0.55,0.5,0.5,0.5,0.5,0.5,0.5,0.5,0.5,0.5,0.25,0.25" style="fill:rgb(23,22,21);font-family:TimesNewRomanPSMT;font-size:9.0px;stroke:none;">(5), 1083–1088. </text>
   <text y="234.949" x="501.25,505.75,508.252,510.754,515.254,518.755,521.257,523.759,526.261,530.761,535.261,537.763" svgx:width="0.5,0.28,0.28,0.5,0.39,0.28,0.28,0.28,0.5,0.5,0.28,0.25" style="fill:rgb(0,0,255);font-family:TimesNewRomanPSMT;font-size:9.0px;stroke:none;">https://doi.</text>
   <text y="245.947" x="357.75,362.25,365.084,369.584,372.086,376.586,381.086,383.336,387.836,392.336,396.836,401.336,403.838,408.338,412.838,417.338,421.838,426.338,430.838,435.338,439.838,442.835,447.335,451.835,456.335,460.835,464.999,469.499,473.999,478.499,482.999,485.996,490.496,494.996,499.496,503.996" svgx:width="0.5,0.33,0.5,0.28,0.5,0.5,0.25,0.5,0.5,0.5,0.5,0.28,0.5,0.5,0.5,0.5,0.5,0.5,0.5,0.5,0.33,0.5,0.5,0.5,0.5,0.5,0.5,0.5,0.5,0.5,0.33,0.5,0.5,0.5,0.5,0.5" style="fill:rgb(0,0,255);font-family:TimesNewRomanPSMT;font-size:9.0px;stroke:none;">org/10.1213/00000539-199811000-00019</text>
   <text y="256.945" x="321.507,326.376,330.372,334.872,339.372,341.622,343.872,344.876,350.879,353.129,355.379,357.629,358.637,365.639,367.889,368.729,376.502,380.498,384.998,387.248,389.498,390.502,397.0,399.25,401.5,402.508,405.505,410.005,414.505,419.005,423.505,426.502,428.752,431.51,438.008,440.51,443.507,445.757,446.765,451.265,455.765,459.761,462.263,464.765,467.267,471.767,474.017,475.015,482.017,486.517,491.017,493.519,496.021,500.521,503.518,506.02,510.52,515.02,517.27,518.269,522.769,525.766,528.016,529.024,531.526,536.026,540.022" svgx:width="0.61,0.44,0.5,0.5,0.25,0.25,0.55,0.67,0.25,0.25,0.25,0.55,0.78,0.25,0.55,0.94,0.44,0.5,0.25,0.25,0.55,0.72,0.25,0.25,0.55,0.33,0.5,0.5,0.5,0.5,0.33,0.25,0.25,0.72,0.28,0.33,0.25,0.55,0.5,0.5,0.44,0.28,0.28,0.28,0.5,0.25,0.55,0.78,0.5,0.5,0.28,0.28,0.5,0.33,0.28,0.5,0.5,0.25,0.55,0.5,0.33,0.25,0.55,0.28,0.5,0.44,0.25" style="fill:rgb(23,22,21);font-family:TimesNewRomanPSMT;font-size:9.0px;stroke:none;">Tang, C., &amp; Wan, G. (2013). Air quality monitoring of the </text>
   <text y="267.943" x="357.75,362.25,366.75,370.251,372.753,375.75,380.25,384.75,388.746,391.743,395.739,398.241,400.743,405.243,409.239,411.489,413.431,416.428,420.424,424.42,428.92,433.42,437.416,440.413,444.913,447.163,449.112,452.109,456.609,461.109,468.111,470.361,472.309,476.305,480.805,485.305,487.555,489.504,492.006,496.506,500.502,504.498,507.0,509.502,514.002,518.502,522.003,524.253,526.197,529.698,534.198,537.012" svgx:width="0.5,0.5,0.39,0.28,0.33,0.5,0.5,0.44,0.33,0.44,0.28,0.28,0.5,0.44,0.25,0.55,0.33,0.44,0.44,0.5,0.5,0.44,0.33,0.5,0.25,0.55,0.33,0.5,0.5,0.78,0.25,0.55,0.44,0.5,0.5,0.25,0.55,0.28,0.5,0.44,0.44,0.28,0.28,0.5,0.5,0.39,0.25,0.55,0.39,0.5,0.33,0.33" style="fill:rgb(23,22,21);font-family:TimesNewRomanPSMT;font-size:9.0px;stroke:none;">post-operative recovery room and locations sur-</text>
   <text y="278.941" x="357.75,360.747,365.247,369.747,374.247,378.747,381.249,385.749,390.249,393.012,397.512,402.012,406.008,409.005,413.001,415.503,418.005,422.5,427.0,429.763,432.265,436.765,440.761,444.757,447.259,451.255,454.252,457.753,460.509,463.011,467.511,470.274,474.27,477.033,484.035,488.031,492.531,495.033,499.029,503.025,505.527,508.28,512.276,516.272,520.772,523.274,527.27,530.267,533.022,535.524,540.024" svgx:width="0.33,0.5,0.5,0.5,0.5,0.28,0.5,0.5,0.25,0.5,0.5,0.44,0.33,0.44,0.28,0.28,0.5,0.5,0.25,0.28,0.5,0.44,0.44,0.28,0.44,0.33,0.39,0.25,0.28,0.5,0.25,0.44,0.25,0.78,0.44,0.5,0.28,0.44,0.44,0.28,0.25,0.44,0.44,0.5,0.28,0.44,0.33,0.25,0.28,0.5,0.25" style="fill:rgb(23,22,21);font-family:TimesNewRomanPSMT;font-size:9.0px;stroke:none;">rounding operating theaters in a medical center in </text>
   <text y="289.939" x="357.75,362.619,366.615,369.117,375.615,379.611,384.111,386.361" svgx:width="0.61,0.44,0.28,0.72,0.44,0.5,0.25,0.25" style="fill:rgb(23,22,21);font-family:TimesNewRomanPSMT;font-size:9.0px;stroke:none;">Taiwan. </text>
   <text y="289.939" x="392.589,398.088,403.092,407.592,412.092,414.342,418.32,424.818,430.821,436.32,438.57,442.548" svgx:width="0.61,0.56,0.5,0.5,0.25,0.55,0.72,0.67,0.61,0.25,0.55,0.5" style="fill:rgb(23,22,21);font-family:TimesNewRomanPS-Italic;font-size:9.0px;stroke:none;">PLoS ONE 8</text>
   <text y="289.939" x="447.048,450.045,454.545,457.542,460.044,462.294,466.272,470.268,474.768,479.268,483.768,488.268,492.768,495.018" svgx:width="0.33,0.5,0.33,0.28,0.25,0.55,0.44,0.5,0.5,0.5,0.5,0.5,0.25,0.25" style="fill:rgb(23,22,21);font-family:TimesNewRomanPSMT;font-size:9.0px;stroke:none;">(4): e61093. </text>
   <text y="289.939" x="501.246,505.746,508.248,510.75,515.25,518.751,521.253,523.755,526.257,530.757,535.257,537.759" svgx:width="0.5,0.28,0.28,0.5,0.39,0.28,0.28,0.28,0.5,0.5,0.28,0.25" style="fill:rgb(0,0,255);font-family:TimesNewRomanPSMT;font-size:9.0px;stroke:none;">https://doi.</text>
   <text y="300.937" x="357.75,362.25,365.084,369.584,372.086,376.586,381.086,383.336,387.836,392.336,396.836,401.336,403.838,406.34,410.84,415.34,418.337,422.837,426.833,429.335,431.585,436.085,440.585,445.085,449.081,451.331,455.831,460.331,464.831,469.331,473.831,478.331" svgx:width="0.5,0.33,0.5,0.28,0.5,0.5,0.25,0.5,0.5,0.5,0.5,0.28,0.28,0.5,0.5,0.33,0.5,0.44,0.28,0.25,0.5,0.5,0.5,0.44,0.25,0.5,0.5,0.5,0.5,0.5,0.5,0.5" style="fill:rgb(0,0,255);font-family:TimesNewRomanPSMT;font-size:9.0px;stroke:none;">org/10.1371/journal.pone.0061093</text>
   <text y="311.935" x="321.507,327.006,331.506,335.502,338.004,340.506,344.502,349.002,353.502,355.645,362.143,366.139,370.135,374.635,379.135,383.131,385.633,388.135,392.635,397.135,401.131,403.633,405.779,410.783,414.779,417.776,421.772,424.274,428.186,430.436,432.587,439.085,443.081,447.077,449.579,452.081,456.581,458.831,460.977,464.973,469.473,473.973,476.124,481.623,486.123,490.623,493.125,496.122,500.622,505.122,512.124,516.12,520.62,523.122,524.768,531.266,535.262,537.764,540.014" svgx:width="0.61,0.5,0.44,0.28,0.28,0.44,0.5,0.5,0.25,0.72,0.44,0.44,0.5,0.5,0.44,0.28,0.28,0.5,0.5,0.44,0.28,0.25,0.56,0.44,0.33,0.44,0.28,0.5,0.25,0.25,0.72,0.44,0.44,0.28,0.28,0.5,0.25,0.25,0.44,0.5,0.5,0.25,0.61,0.5,0.5,0.28,0.33,0.5,0.5,0.78,0.44,0.5,0.28,0.25,0.72,0.44,0.28,0.25,0.25" style="fill:rgb(23,22,21);font-family:TimesNewRomanPSMT;font-size:9.0px;stroke:none;">Thailand Occupational Safety, Health, and Environment Act, </text>
   <text y="322.933" x="357.75,363.753,366.003,371.502,373.752,376.002,376.677,381.177,385.677,390.177,394.677,397.602,400.599,405.099,409.599,413.765,418.265,421.262" svgx:width="0.67,0.25,0.61,0.25,0.25,0.55,0.5,0.5,0.5,0.5,0.25,0.33,0.5,0.5,0.5,0.5,0.33,0.25" style="fill:rgb(23,22,21);font-family:TimesNewRomanPSMT;font-size:9.0px;stroke:none;">B.E. 2554 (2011).</text>
   <text y="333.931" x="321.507,327.969,334.431,336.681,337.973,344.435,348.395,352.859,356.819,359.78,362.246,369.212,373.172,377.635,380.102,382.352,383.643,388.107,391.068,393.318,394.609,401.072,405.031,408.991,411.457,413.923,418.387,420.601,422.851,424.143,427.104,431.568,436.032,440.496,444.96,447.921,450.135,452.385,453.676,460.138,464.098,468.058,470.524,472.99,477.454,481.918,484.168,485.46,489.42,493.884,498.348,500.598,501.889,506.353,510.313,514.777,517.243,519.709,522.175,526.135,528.601,531.067,535.531,540.031" svgx:width="0.72,0.72,0.25,0.55,0.72,0.44,0.5,0.44,0.33,0.28,0.78,0.44,0.5,0.28,0.25,0.55,0.5,0.33,0.25,0.55,0.72,0.44,0.44,0.28,0.28,0.5,0.25,0.25,0.55,0.33,0.5,0.5,0.5,0.5,0.33,0.25,0.25,0.55,0.72,0.44,0.44,0.28,0.28,0.5,0.5,0.25,0.55,0.44,0.5,0.5,0.25,0.55,0.5,0.44,0.5,0.28,0.28,0.28,0.44,0.28,0.28,0.5,0.5,0.25" style="fill:rgb(23,22,21);font-family:TimesNewRomanPSMT;font-size:9.0px;stroke:none;">UK Department of Health. (2007). Heating and ventilation </text>
   <text y="344.929" x="357.75,361.215,365.679,369.144,371.61,375.57,382.536,386.001,388.215,390.294,393.255,397.719,400.185" svgx:width="0.39,0.5,0.39,0.28,0.44,0.78,0.39,0.25,0.25,0.33,0.5,0.28,0.25" style="fill:rgb(23,22,21);font-family:TimesNewRomanPSMT;font-size:9.0px;stroke:none;">systems. In: </text>
   <text y="344.929" x="402.264,408.726,412.686,417.15,419.616,422.082,426.546,428.09,432.232,436.192,440.018,444.482,448.946,451.412,455.372,459.836,462.302,464.381,471.842,475.802,482.264,486.728,489.789,494.253,498.717,503.181,507.645,514.107,516.186,520.65,525.114,528.075,532.539,537.003,540.0" svgx:width="0.72,0.44,0.5,0.28,0.28,0.5,0.25,0.56,0.44,0.44,0.5,0.5,0.28,0.44,0.5,0.28,0.25,0.83,0.44,0.72,0.5,0.39,0.5,0.5,0.5,0.5,0.72,0.25,0.5,0.5,0.33,0.5,0.5,0.33,0.25" style="fill:rgb(23,22,21);font-family:TimesNewRomanPS-Italic;font-size:9.0px;stroke:none;">Health Technical Memorandum 03-01: </text>
   <text y="355.927" x="357.75,362.214,366.678,370.638,374.598,377.064,381.528,383.994,386.46,389.925,393.885,398.349,400.599,403.83,407.79,411.75,416.214,418.68,421.146,423.612,428.076,430.542,433.008,437.472,441.936,444.186,447.417,449.705,454.169,457.634,459.884,463.115,467.579,471.539,476.003,478.469,480.935,485.399,489.359,493.823,496.956,500.916,503.166,506.397,510.861,513.994,517.954,524.416,526.882,530.347,534.307" svgx:width="0.5,0.5,0.44,0.44,0.28,0.5,0.28,0.28,0.39,0.44,0.5,0.25,0.55,0.44,0.44,0.5,0.28,0.28,0.28,0.5,0.28,0.28,0.5,0.5,0.25,0.55,0.28,0.5,0.39,0.25,0.55,0.5,0.44,0.5,0.28,0.28,0.5,0.44,0.5,0.39,0.44,0.25,0.55,0.5,0.39,0.44,0.72,0.28,0.39,0.44,0.39" style="fill:rgb(23,22,21);font-family:TimesNewRomanPS-Italic;font-size:9.0px;stroke:none;">Specialised ventilation for healthcare premises</text>
   <text y="355.927" x="537.772,540.022" svgx:width="0.25,0.25" style="fill:rgb(23,22,21);font-family:TimesNewRomanPSMT;font-size:9.0px;stroke:none;">. </text>
   <text y="366.925" x="357.75,363.717,367.677,370.143,373.104,375.57,379.53,383.994,387.954,392.418,394.668,400.014,402.975,405.936,410.4,417.366" svgx:width="0.67,0.44,0.28,0.33,0.28,0.44,0.5,0.44,0.5,0.25,0.55,0.33,0.33,0.5,0.78,0.25" style="fill:rgb(23,22,21);font-family:TimesNewRomanPSMT;font-size:9.0px;stroke:none;">Retrieved from </text>
   <text y="366.925" x="424.962,429.426,431.892,434.358,438.822,442.287,444.753,447.219,449.685,453.645,457.11,460.575,464.535,467.001,470.466,472.68,477.144,481.608,486.072,488.538,491.004,494.469,498.933,501.399,505.863,510.327,512.541,516.006,519.966,522.927,527.391,529.857,533.817,537.777" svgx:width="0.5,0.28,0.28,0.5,0.39,0.28,0.28,0.28,0.44,0.39,0.39,0.44,0.28,0.39,0.25,0.5,0.5,0.5,0.28,0.28,0.39,0.5,0.28,0.5,0.5,0.25,0.39,0.44,0.33,0.5,0.28,0.44,0.44,0.25" style="fill:rgb(0,0,255);font-family:TimesNewRomanPSMT;font-size:9.0px;stroke:none;">https://assets.publishing.service.</text>
   <text y="377.923" x="357.75,362.529,367.308,371.506,374.035,378.814,383.593,386.374,391.153,395.932,400.711,404.986,408.262,413.041,420.322,424.597,429.376,432.157,434.938,439.717,444.496,447.277,452.056,456.331,461.11,464.89,467.671,471.451,476.23,480.01,482.791,487.066,494.347,497.128,501.907,506.686,509.467,514.246,518.521,523.3,527.08,529.861,534.136,536.917" svgx:width="0.5,0.5,0.5,0.25,0.5,0.5,0.28,0.5,0.5,0.5,0.44,0.33,0.5,0.78,0.44,0.5,0.28,0.28,0.5,0.5,0.28,0.5,0.44,0.5,0.39,0.28,0.39,0.5,0.39,0.28,0.44,0.78,0.28,0.5,0.5,0.28,0.5,0.44,0.5,0.39,0.28,0.44,0.28,0.33" style="fill:rgb(0,0,255);font-family:TimesNewRomanPSMT;font-size:9.0px;stroke:none;">gov.uk/government/uploads/system/uploads/at-</text>
   <text y="388.921" x="357.75,360.383,364.509,368.636,373.271,380.403,384.534,389.169,391.802,396.437,401.072,405.198,407.831,411.962,414.593,417.725,420.358,422.995,427.121,429.754,434.389,439.024,443.659,448.294,452.929,457.564,460.201,466.834,472.463,480.599,485.234,489.869,494.504,497.636,502.271,506.906,511.541,516.68,520.807,523.939,526.571,531.206,537.839" svgx:width="0.28,0.44,0.44,0.5,0.78,0.44,0.5,0.28,0.5,0.5,0.44,0.28,0.44,0.28,0.33,0.28,0.28,0.44,0.28,0.5,0.5,0.5,0.5,0.5,0.5,0.28,0.72,0.61,0.89,0.5,0.5,0.5,0.33,0.5,0.5,0.5,0.56,0.44,0.33,0.28,0.5,0.72,0.25" style="fill:rgb(0,0,255);font-family:TimesNewRomanPSMT;font-size:9.0px;stroke:none;">tachment_data/file/144029/HTM_03-01_Part_A.</text>
   <text y="399.919" x="357.75,362.214,366.678" svgx:width="0.5,0.5,0.33" style="fill:rgb(0,0,255);font-family:TimesNewRomanPSMT;font-size:9.0px;stroke:none;">pdf</text>
   <text y="410.917" x="321.507,327.466,329.968,336.97,339.472,343.468,345.97,348.472,350.722,352.972,354.328,359.827,362.077,364.327,366.577,367.941,374.439,376.941,379.443,382.944,386.94,391.44,395.436,397.686,399.936,401.299,405.584,407.834,410.084,412.334,413.702,420.704,422.954,424.318,430.816,435.316,437.818,442.318,444.82,449.32,451.57,453.82,455.188,460.687,462.937,465.187,466.55,469.547,474.047,478.547,483.047,487.547,490.544,492.794,495.044,496.412,502.91,507.41,511.406,513.908,516.41,518.912,523.412,525.662,527.023,531.019,535.519,540.019" svgx:width="0.72,0.28,0.78,0.28,0.44,0.28,0.28,0.25,0.25,0.55,0.61,0.25,0.25,0.25,0.55,0.72,0.28,0.28,0.39,0.44,0.5,0.44,0.25,0.25,0.55,0.56,0.25,0.25,0.25,0.55,0.78,0.25,0.55,0.72,0.5,0.28,0.5,0.28,0.5,0.25,0.25,0.55,0.61,0.25,0.25,0.55,0.33,0.5,0.5,0.5,0.5,0.33,0.25,0.25,0.55,0.72,0.5,0.44,0.28,0.28,0.28,0.5,0.25,0.55,0.44,0.5,0.5,0.25" style="fill:rgb(23,22,21);font-family:TimesNewRomanPSMT;font-size:9.0px;stroke:none;">Vimlati, L., Gilsanz, F., &amp; Goldik, Z. (2009). Quality and </text>
   <text y="421.915" x="357.75,361.251,365.247,368.244,372.24,374.742,379.242,381.492,383.734,388.234,392.734,395.236,399.736,403.732,406.234,408.736,413.236,417.232,420.733,422.983,425.222,429.722,432.719,434.969,437.215,441.715,446.215,449.716,452.218,456.214,460.714,464.71,468.706,472.207,474.709,479.209,483.205,486.701,489.203,493.199,495.449,497.695,501.691,505.687,508.684,512.68,514.93" svgx:width="0.39,0.44,0.33,0.44,0.28,0.5,0.25,0.55,0.5,0.5,0.28,0.5,0.44,0.28,0.28,0.5,0.44,0.39,0.25,0.55,0.5,0.33,0.25,0.55,0.5,0.5,0.39,0.28,0.44,0.5,0.44,0.44,0.39,0.28,0.5,0.44,0.39,0.28,0.44,0.25,0.55,0.44,0.44,0.33,0.44,0.25,0.25" style="fill:rgb(23,22,21);font-family:TimesNewRomanPSMT;font-size:9.0px;stroke:none;">safety guidelines of postanaesthesia care. </text>
   <text y="421.915" x="519.417,524.916,529.416,532.513,537.013" svgx:width="0.61,0.5,0.39,0.5,0.33" style="fill:rgb(23,22,21);font-family:TimesNewRomanPS-Italic;font-size:9.0px;stroke:none;">Euro-</text>
   <text y="432.913" x="357.75,362.25,366.246,370.746,375.246,377.496,380.214,383.986,388.486,392.986,396.487,400.987,405.487,407.989,410.239,412.957,417.457,419.959,422.209,424.384,429.883,434.383,438.883,442.879,446.38,448.882,453.382,457.378,460.879,463.381,467.881,470.383,474.659,479.337,482.838,485.088,487.338,490.056,494.556" svgx:width="0.5,0.44,0.5,0.5,0.25,0.55,0.44,0.5,0.5,0.39,0.5,0.5,0.28,0.25,0.55,0.5,0.28,0.25,0.55,0.61,0.5,0.5,0.44,0.39,0.28,0.5,0.44,0.39,0.28,0.5,0.28,0.5,0.5,0.44,0.25,0.25,0.55,0.5,0.5" style="fill:rgb(23,22,21);font-family:TimesNewRomanPS-Italic;font-size:9.0px;stroke:none;">pean Journal of Anaesthesiology, 26</text>
   <text y="432.913" x="499.056,501.306,503.556,506.274,510.774,515.274,519.774,524.274,528.774,533.274,537.774,540.024" svgx:width="0.25,0.25,0.55,0.5,0.5,0.5,0.5,0.5,0.5,0.5,0.25,0.25" style="fill:rgb(23,22,21);font-family:TimesNewRomanPSMT;font-size:9.0px;stroke:none;">, 715–721. </text>
   <text y="443.911" x="357.75,362.25,364.752,367.254,371.754,375.255,377.757,380.259,382.761,387.261,391.761,394.263,396.513,401.013,403.84,408.34,410.842,415.342,419.842,422.092,426.592,431.092,435.592,440.092,442.594,448.093,451.594,458.092,460.342,464.842,469.342,473.842,478.342,482.842,486.838,491.338,495.838,500.338,504.838,509.338,513.838,518.338,522.838,527.338" svgx:width="0.5,0.28,0.28,0.5,0.39,0.28,0.28,0.28,0.5,0.5,0.28,0.25,0.5,0.33,0.5,0.28,0.5,0.5,0.25,0.5,0.5,0.5,0.5,0.28,0.61,0.39,0.72,0.25,0.5,0.5,0.5,0.5,0.5,0.44,0.5,0.5,0.5,0.5,0.5,0.5,0.5,0.5,0.5,0.33" style="fill:rgb(0,0,255);font-family:TimesNewRomanPSMT;font-size:9.0px;stroke:none;">https://doi.org/10.1097/EJA.0b013e32832bb68f</text>
   <text y="454.909" x="321.507,329.281,333.277,336.778,339.28,343.276,346.273,350.773,353.388,359.886,364.386,367.887,370.389,373.386,377.382,379.884,382.386,386.375,388.625,389.49,395.987,399.983,404.483,408.479,411.477,413.979,420.981,424.977,429.477,431.979,434.229,435.085,439.585,442.582,444.832,445.696,452.194,456.19,460.186,462.688,465.19,469.69,471.94,474.19,475.049,478.046,482.546,487.046,491.546,496.046,499.043,501.293" svgx:width="0.94,0.44,0.39,0.28,0.44,0.33,0.5,0.25,0.72,0.5,0.39,0.28,0.33,0.44,0.28,0.28,0.44,0.25,0.55,0.72,0.44,0.5,0.44,0.33,0.28,0.78,0.44,0.5,0.28,0.25,0.55,0.5,0.33,0.25,0.55,0.72,0.44,0.44,0.28,0.28,0.5,0.25,0.25,0.55,0.33,0.5,0.5,0.5,0.5,0.33,0.25,0.25" style="fill:rgb(23,22,21);font-family:TimesNewRomanPSMT;font-size:9.0px;stroke:none;">Western Australia Department of Health. (2015). </text>
   <text y="454.909" x="504.407,511.904,514.406,518.402,521.498,525.998,530.498,533.0,537.5,540.002" svgx:width="0.83,0.28,0.44,0.39,0.5,0.5,0.28,0.5,0.28,0.25" style="fill:rgb(23,22,21);font-family:TimesNewRomanPS-Italic;font-size:9.0px;stroke:none;">Microbial </text>
   <text y="465.907" x="357.75,362.25,364.752,368.253,370.503,371.736,375.237,379.737,386.235,390.735,393.237,395.739,400.239,404.739,406.989,408.222,412.722,415.224,417.474,418.707,423.207,427.707,431.703,434.8,439.3,441.802,444.304,448.804,453.304,455.554,456.787,459.884,464.384,468.884,475.382,478.883,481.133,482.366,484.868,489.368,491.618,492.316,498.734,502.73,506.231,508.733,512.729,516.23,520.73,522.98,523.677,528.998,533.498,536.999" svgx:width="0.5,0.28,0.39,0.25,0.55,0.39,0.5,0.72,0.5,0.28,0.28,0.5,0.5,0.25,0.55,0.5,0.28,0.25,0.55,0.5,0.5,0.44,0.39,0.5,0.28,0.28,0.5,0.5,0.25,0.55,0.39,0.5,0.5,0.72,0.39,0.25,0.55,0.28,0.5,0.25,0.55,0.83,0.44,0.39,0.28,0.44,0.39,0.5,0.25,0.55,0.61,0.5,0.39,0.33" style="fill:rgb(23,22,21);font-family:TimesNewRomanPS-Italic;font-size:9.0px;stroke:none;">air sampling of operating rooms in Western Aus-</text>
   <text y="476.905" x="357.75,360.252,363.349,367.849,370.351,372.853,377.353,381.853,384.404,388.904,392.9,397.4,399.902,402.404,406.904,410.9,415.4,418.569,422.565,425.121,427.623,432.123,436.119,438.621,441.123,443.625,446.127,448.629,452.625" svgx:width="0.28,0.39,0.5,0.28,0.28,0.5,0.5,0.25,0.5,0.44,0.5,0.28,0.28,0.5,0.44,0.5,0.39,0.44,0.25,0.28,0.5,0.44,0.28,0.28,0.28,0.28,0.28,0.44,0.39" style="fill:rgb(23,22,21);font-family:TimesNewRomanPS-Italic;font-size:9.0px;stroke:none;">tralian healthcare facilities</text>
   <text y="476.905" x="456.126,458.376,460.932,466.935,470.931,473.434,476.431,478.933,482.929,487.422,491.418,495.918,498.47,501.467,504.464,508.964,515.966" svgx:width="0.25,0.25,0.67,0.44,0.28,0.33,0.28,0.44,0.5,0.44,0.5,0.25,0.33,0.33,0.5,0.78,0.25" style="fill:rgb(23,22,21);font-family:TimesNewRomanPSMT;font-size:9.0px;stroke:none;">. Retrieved from </text>
   <text y="476.905" x="518.508,523.008,525.51,528.012,532.512,535.014,537.516" svgx:width="0.5,0.28,0.28,0.5,0.28,0.28,0.28" style="fill:rgb(0,0,255);font-family:TimesNewRomanPSMT;font-size:9.0px;stroke:none;">http://</text>
   <text y="487.903" x="357.75,364.874,371.999,378.538,381.409,386.53,391.147,395.764,398.887,402.01,407.131,410.002,417.127,421.744,424.615,429.736,434.857,439.397,442.268,446.885,452.006,455.129,459.746,462.869,466.487,471.104,476.225,479.348,483.965,487.583,491.71,496.831,501.448,508.573,511.696,516.313,519.436,522.559,527.176,531.793,536.914" svgx:width="0.72,0.72,0.72,0.25,0.5,0.44,0.44,0.28,0.28,0.5,0.25,0.72,0.44,0.25,0.5,0.5,0.5,0.25,0.44,0.5,0.28,0.44,0.28,0.33,0.44,0.5,0.28,0.44,0.33,0.39,0.5,0.44,0.72,0.28,0.44,0.28,0.28,0.44,0.44,0.5,0.33" style="fill:rgb(0,0,255);font-family:TimesNewRomanPSMT;font-size:9.0px;stroke:none;">www.health.wa.gov.au/circularsnew/attach-</text>
   <text y="498.901" x="357.75,364.752,368.748,373.248,375.75,379.251,381.753,386.253,390.753,395.253,399.753,402.003,406.503,411.003" svgx:width="0.78,0.44,0.5,0.28,0.39,0.28,0.5,0.5,0.5,0.5,0.25,0.5,0.5,0.33" style="fill:rgb(0,0,255);font-family:TimesNewRomanPSMT;font-size:9.0px;stroke:none;">ments/1055.pdf</text>
   <text y="534.616" x="72.0,80.664,87.336,94.008,99.336,106.008,112.68,116.016,122.016,126.012,129.012,135.684,142.356,147.684,153.684,159.012" svgx:width="0.72,0.56,0.56,0.44,0.56,0.56,0.28,0.5,0.33,0.25,0.56,0.56,0.44,0.5,0.44,0.5" style="fill:rgb(23,22,21);font-family:TimesNewRomanPS-BoldMT;font-size:12.0px;stroke:none;">Appendix: Survey</text>
   <text y="551.616" x="108.0,112.5,115.92,119.5,121.18,125.38,125.38,129.98,133.96,137.5,140.35,144.55,149.19,149.19,152.34,156.98,160.92,163.98,167.53,170.95,174.53,179.03,183.53,187.51,191.05,193.9,198.1,202.6,206.55,210.49,214.49,218.63,218.63,222.06,226.06,226.06,228.91,233.51,237.45,240.3,244.35,244.35,247.89,251.83,256.43,259.28,263.48,263.48,266.91,270.68,274.63,278.21,282.61,282.61,282.61,285.76,289.53,293.07,297.07,301.02,301.02,304.96,309.16,312.22,316.82,321.49,321.49,325.43,328.58,330.28,330.79,335.43,335.43,339.39,344.03,344.03,344.03" svgx:width="0.45,0.34,0.36,0.17,0.42,0.0,0.46,0.4,0.35,0.28,0.42,0.46,0.0,0.31,0.46,0.39,0.31,0.35,0.34,0.36,0.45,0.45,0.4,0.35,0.28,0.42,0.45,0.4,0.39,0.4,0.41,0.0,0.34,0.4,0.0,0.28,0.46,0.39,0.28,0.41,0.0,0.35,0.39,0.46,0.28,0.42,0.0,0.34,0.38,0.4,0.36,0.44,0.0,0.0,0.31,0.38,0.35,0.4,0.4,0.0,0.39,0.42,0.31,0.46,0.47,0.0,0.39,0.31,0.17,0.55,0.46,0.0,0.4,0.46,0.0,0.0,0.46" style="fill:rgb(23,22,21);font-family:AngsanaNew;font-size:10.0px;stroke:none;">ประเมินความพึงพอใจระบบความปลอดภัยด้านอาชีวอนามัยและสิ่งแวดล้อมในห้อง พักฟื้น</text>
   <text y="551.616" x="348.63" svgx:width="0.25" style="fill:rgb(23,22,21);font-family:TimesNewRomanPSMT;font-size:10.0px;stroke:none;"> </text>
   <text y="551.616" x="352.01,354.21,355.89,359.84,359.84,363.78,367.74,371.75,375.69,380.19,383.61,387.61,391.04,395.54,395.54,398.39,400.07,404.05,407.47,407.47,407.47,411.41,414.56,419.23,423.43,426.28" svgx:width="0.22,0.17,0.4,0.0,0.39,0.4,0.4,0.39,0.45,0.34,0.4,0.34,0.45,0.0,0.28,0.17,0.4,0.34,0.0,0.0,0.39,0.31,0.47,0.42,0.28,0.34" style="fill:rgb(23,22,21);font-family:AngsanaNew;font-size:10.0px;stroke:none;">(เลือกตอบโดยทำาเครื่องหมาย</text>
   <text y="551.616" x="429.7" svgx:width="0.25" style="fill:rgb(23,22,21);font-family:TimesNewRomanPSMT;font-size:10.0px;stroke:none;"> </text>
   <text y="551.616" x="433.08,440.94" svgx:width="0.79,1.0" style="fill:rgb(23,22,21);font-family:Wingdings-Regular;font-size:10.0px;stroke:none;">ü </text>
   <text y="551.616" x="442.19,445.25,449.85,453.9,453.9,457.84,460.99,465.49,465.49,465.49,469.5,469.5,473.44,476.59,480.55,483.4,486.82" svgx:width="0.31,0.46,0.41,0.0,0.39,0.31,0.45,0.0,0.0,0.4,0.0,0.39,0.31,0.4,0.28,0.34,0.22" style="fill:rgb(23,22,21);font-family:AngsanaNew;font-size:10.0px;stroke:none;">ในช่องที่ต้องการ)</text>
  </g>
  <path style="fill:none;stroke:rgb(23,22,21);stroke-width:1.0;" d="M72.000 715.260 L300.000 715.260 "/>
  <path style="fill:none;stroke:rgb(23,22,21);stroke-width:0.5;" d="M300.000 715.260 L348.000 715.260 "/>
  <path style="fill:none;stroke:rgb(23,22,21);stroke-width:0.5;" d="M348.000 715.260 L396.000 715.260 "/>
  <path style="fill:none;stroke:rgb(23,22,21);stroke-width:0.5;" d="M396.000 715.260 L444.000 715.260 "/>
  <path style="fill:none;stroke:rgb(23,22,21);stroke-width:0.5;" d="M444.000 715.260 L492.000 715.260 "/>
  <path style="fill:none;stroke:rgb(23,22,21);stroke-width:0.5;" d="M492.000 715.260 L540.000 715.260 "/>
  <path style="fill:none;stroke:rgb(23,22,21);stroke-width:0.5;" d="M72.000 555.870 L300.000 555.870 "/>
  <path style="fill:none;stroke:rgb(23,22,21);stroke-width:0.5;" d="M300.000 555.870 L348.000 555.870 "/>
  <path style="fill:none;stroke:rgb(23,22,21);stroke-width:0.5;" d="M348.000 555.870 L396.000 555.870 "/>
  <path style="fill:none;stroke:rgb(23,22,21);stroke-width:0.5;" d="M396.000 555.870 L444.000 555.870 "/>
  <path style="fill:none;stroke:rgb(23,22,21);stroke-width:0.5;" d="M444.000 555.870 L492.000 555.870 "/>
  <path style="fill:none;stroke:rgb(23,22,21);stroke-width:0.5;" d="M492.000 555.870 L540.000 555.870 "/>
  <path style="fill:none;stroke:rgb(23,22,21);stroke-width:0.5;" d="M300.000 572.170 L348.000 572.170 "/>
  <path style="fill:none;stroke:rgb(23,22,21);stroke-width:0.5;" d="M348.000 572.170 L396.000 572.170 "/>
  <path style="fill:none;stroke:rgb(23,22,21);stroke-width:0.5;" d="M396.000 572.170 L444.000 572.170 "/>
  <path style="fill:none;stroke:rgb(23,22,21);stroke-width:0.5;" d="M444.000 572.170 L492.000 572.170 "/>
  <path style="fill:none;stroke:rgb(23,22,21);stroke-width:0.5;" d="M492.000 572.170 L540.000 572.170 "/>
  <path style="fill:none;stroke:rgb(23,22,21);stroke-width:0.5;" d="M72.000 599.480 L300.000 599.480 "/>
  <path style="fill:none;stroke:rgb(23,22,21);stroke-width:0.5;" d="M300.000 599.480 L348.000 599.480 "/>
  <path style="fill:none;stroke:rgb(23,22,21);stroke-width:0.5;" d="M348.000 599.480 L396.000 599.480 "/>
  <path style="fill:none;stroke:rgb(23,22,21);stroke-width:0.5;" d="M396.000 599.480 L444.000 599.480 "/>
  <path style="fill:none;stroke:rgb(23,22,21);stroke-width:0.5;" d="M444.000 599.480 L492.000 599.480 "/>
  <path style="fill:none;stroke:rgb(23,22,21);stroke-width:0.5;" d="M492.000 599.480 L540.000 599.480 "/>
  <g begin="text">
   <text y="568.172" x="76.0,80.05,83.128,86.35,87.862,91.462,91.462,95.602,99.184,99.184,101.749,105.304,107.869,111.649,395.851,399.433,402.619,405.184,408.964,412.519,412.519,412.519,415.273,419.413,422.977,425.542,428.62,432.67,436.495,436.495,440.545,440.545,444.154" svgx:width="0.45,0.34,0.36,0.17,0.4,0.0,0.46,0.4,0.0,0.28,0.4,0.28,0.42,0.55,0.4,0.35,0.28,0.42,0.4,0.0,0.0,0.31,0.46,0.4,0.28,0.34,0.45,0.43,0.0,0.45,0.0,0.4,0.0" style="fill:rgb(23,22,21);font-family:AngsanaNew;font-size:9.0px;stroke:none;">ประเด็นคำาถาม ความถี่ในการปฏิบัติ</text>
   <text y="584.479" x="307.678,311.728,315.553,315.553,319.603,319.603,323.212,323.212,327.262,327.262,330.826,334.408,337.486,337.486,337.486" svgx:width="0.45,0.43,0.0,0.45,0.0,0.4,0.0,0.45,0.0,0.4,0.4,0.34,0.0,0.0,0.31" style="fill:rgb(23,22,21);font-family:AngsanaNew;font-size:9.0px;stroke:none;">ปฏิบัติทุกครั้ง</text>
   <text y="584.479" x="340.321" svgx:width="0.25" style="fill:rgb(23,22,21);font-family:TimesNewRomanPS;font-size:9.0px;stroke:none;"> </text>
   <text y="595.477" x="322.51" svgx:width="0.33" style="fill:rgb(23,22,21);font-family:AngsanaNew;font-size:9.0px;stroke:none;">5</text>
   <text y="584.479" x="356.143,357.655,361.219,361.219,364.765,368.815,370.745,374.795,374.795,378.359,381.941,385.019,385.019,385.019,387.854" svgx:width="0.17,0.4,0.0,0.39,0.45,0.17,0.45,0.0,0.4,0.4,0.34,0.0,0.0,0.31,0.17" style="fill:rgb(23,22,21);font-family:AngsanaNew;font-size:9.0px;stroke:none;">เกือบ ทุกครั้ง </text>
   <text y="595.477" x="370.516" svgx:width="0.33" style="fill:rgb(23,22,21);font-family:AngsanaNew;font-size:9.0px;stroke:none;">4</text>
   <text y="584.479" x="408.946,412.996,412.996,416.542,419.629,421.56,425.142,428.22,428.22,428.22" svgx:width="0.45,0.0,0.39,0.34,0.17,0.4,0.34,0.0,0.0,0.31" style="fill:rgb(23,22,21);font-family:AngsanaNew;font-size:9.0px;stroke:none;">บ่อย ครั้ง</text>
   <text y="595.477" x="418.513" svgx:width="0.33" style="fill:rgb(23,22,21);font-family:AngsanaNew;font-size:9.0px;stroke:none;">3</text>
   <text y="584.479" x="455.917,460.057,462.622,466.762,470.587,474.169,477.247,477.247,477.247" svgx:width="0.46,0.28,0.46,0.43,0.4,0.34,0.0,0.0,0.31" style="fill:rgb(23,22,21);font-family:AngsanaNew;font-size:9.0px;stroke:none;">นานๆครั้ง</text>
   <text y="595.477" x="466.51" svgx:width="0.33" style="fill:rgb(23,22,21);font-family:AngsanaNew;font-size:9.0px;stroke:none;">2</text>
   <text y="584.479" x="504.787,507.883,511.663,511.663,515.713,519.538,519.538,523.588,523.588,527.197" svgx:width="0.34,0.42,0.0,0.45,0.43,0.0,0.45,0.0,0.4,0.0" style="fill:rgb(23,22,21);font-family:AngsanaNew;font-size:9.0px;stroke:none;">ไม่ปฏิบัติ</text>
   <text y="595.477" x="514.507" svgx:width="0.33" style="fill:rgb(23,22,21);font-family:AngsanaNew;font-size:9.0px;stroke:none;">1</text>
   <text y="611.786" x="75.991,78.961,80.446,82.378,86.428,86.428,88.993,93.133,96.688,96.688,99.253,102.088,105.868,105.868,109.414,113.617,117.172,117.172,120.007,123.967,123.967,127.747,131.266,131.266,135.226,138.745,138.745,138.745,142.795,142.795,145.981" svgx:width="0.33,0.17,0.17,0.45,0.0,0.28,0.46,0.4,0.0,0.28,0.31,0.42,0.0,0.39,0.47,0.4,0.0,0.31,0.44,0.0,0.42,0.39,0.0,0.44,0.39,0.0,0.0,0.45,0.0,0.35,0.34" style="fill:rgb(23,22,21);font-family:AngsanaNew;font-size:9.0px;stroke:none;">1. ท่านล้างมือหลังสัมผัสผู้ป่วย</text>
   <text y="629.732" x="75.991,78.961,80.446,82.378,86.428,86.428,88.993,93.133,97.093,100.279,104.059,108.262,112.402,112.402,114.967,118.531,121.096,124.66,128.206,132.346,134.911,138.691,138.691,141.774,143.286,147.066,147.066,147.066,150.612,153.366,157.569,157.569,161.133,163.698,166.776,170.952,174.039,176.604,180.654,183.219,186.774,190.293,190.293,190.293,194.343,194.343,197.529" svgx:width="0.33,0.17,0.17,0.45,0.0,0.28,0.46,0.44,0.35,0.42,0.47,0.46,0.0,0.28,0.4,0.28,0.4,0.39,0.46,0.28,0.42,0.0,0.34,0.17,0.42,0.0,0.0,0.39,0.31,0.47,0.0,0.4,0.28,0.34,0.46,0.34,0.28,0.45,0.28,0.4,0.39,0.0,0.0,0.45,0.0,0.35,0.34" style="fill:rgb(23,22,21);font-family:AngsanaNew;font-size:9.0px;stroke:none;">2. ท่านสวมหน้ากากอนามัยเมื่อให้การพยาบาลผู้ป่วย</text>
   <text y="646.039" x="75.991,78.961,80.446,82.378,86.428,86.428,88.993,93.133,97.093,100.279,104.059,108.262,112.402,112.402,114.967,118.531,121.096" svgx:width="0.33,0.17,0.17,0.45,0.0,0.28,0.46,0.44,0.35,0.42,0.47,0.46,0.0,0.28,0.4,0.28,0.4" style="fill:rgb(23,22,21);font-family:AngsanaNew;font-size:9.0px;stroke:none;">3. ท่านสวมหน้ากาก</text>
   <text y="646.039" x="124.66" svgx:width="0.25" style="fill:rgb(23,22,21);font-family:TimesNewRomanPS;font-size:9.0px;stroke:none;"> </text>
   <text y="646.039" x="127.579,131.872,133.799,136.769,139.739,141.671,144.641" svgx:width="0.48,0.17,0.33,0.33,0.17,0.33,0.17" style="fill:rgb(23,22,21);font-family:AngsanaNew;font-size:9.0px;stroke:none;">N 95 1.</text>
   <text y="646.039" x="146.126" svgx:width="0.25" style="fill:rgb(23,22,21);font-family:TimesNewRomanPS;font-size:9.0px;stroke:none;"> </text>
   <text y="646.039" x="149.053,150.565,154.345,154.345,154.345,157.891,160.645,164.848,164.848,168.412,170.977,174.055,178.231,181.318,183.883,187.933,190.498,194.053,197.572,197.572,197.572,201.622,201.622,204.808,207.895,211.945,214.51,217.345,218.857,222.457,222.457,226.597,230.8,233.365,236.452,239.206,242.401,245.479,248.701,251.788,255.01,258.619,258.619,262.219,265.828,265.828" svgx:width="0.17,0.42,0.0,0.0,0.39,0.31,0.47,0.0,0.4,0.28,0.34,0.46,0.34,0.28,0.45,0.28,0.4,0.39,0.0,0.0,0.45,0.0,0.35,0.34,0.45,0.28,0.31,0.17,0.4,0.0,0.46,0.47,0.28,0.34,0.31,0.35,0.34,0.36,0.34,0.36,0.4,0.0,0.4,0.4,0.0,0.39" style="fill:rgb(23,22,21);font-family:AngsanaNew;font-size:9.0px;stroke:none;">เมื่อให้การพยาบาลผู้ป่วยทางเดินหายใจระยะติดต่อ</text>
   <text y="662.347" x="75.991,78.961,80.446,82.378,86.428,86.428,88.993,93.133,94.645,98.695,102.25,102.25,102.25,105.337,109.477,112.555,116.101,118.936,120.448,124.498,124.498,127.063,128.575,132.355,132.355,132.355,135.901,138.997,143.047,147.007,147.007,149.842,153.361,153.361,153.361,157.411,157.411,160.597,163.684,167.824,171.37,174.934,179.137,179.137,182.683,185.518,189.037,189.037,191.602,195.211,195.211" svgx:width="0.33,0.17,0.17,0.45,0.0,0.28,0.46,0.17,0.45,0.4,0.0,0.0,0.34,0.46,0.34,0.39,0.31,0.17,0.45,0.0,0.28,0.17,0.42,0.0,0.0,0.39,0.34,0.45,0.44,0.0,0.31,0.39,0.0,0.0,0.45,0.0,0.35,0.34,0.46,0.39,0.4,0.47,0.0,0.39,0.31,0.39,0.0,0.28,0.4,0.0,0.4" style="fill:rgb(23,22,21);font-family:AngsanaNew;font-size:9.0px;stroke:none;">4. ท่านเปลี่ยนรองเท้าเมื่อไปส่งผู้ป่วยนอกห้องผ่าตัด</text>
   <text y="678.656" x="75.991,78.961,80.446,82.378,86.428,86.428,88.993,93.133,94.645,98.695,102.25,102.25,102.25,105.337,109.477,112.555,116.101,118.936,120.448,124.498,124.498,127.063,128.575,132.355,132.355,132.355,135.901,137.413,140.995,140.995,143.56,147.34,149.905,152.74,155.305,159.445,162.199,166.339,170.542,170.542,174.088,176.923,178.849,182.152,186.445,190.405" svgx:width="0.33,0.17,0.17,0.45,0.0,0.28,0.46,0.17,0.45,0.4,0.0,0.0,0.34,0.46,0.34,0.39,0.31,0.17,0.45,0.0,0.28,0.17,0.42,0.0,0.0,0.39,0.17,0.4,0.0,0.28,0.42,0.28,0.31,0.28,0.46,0.31,0.46,0.47,0.0,0.39,0.31,0.17,0.37,0.48,0.44,0.48" style="fill:rgb(23,22,21);font-family:AngsanaNew;font-size:9.0px;stroke:none;">5. ท่านเปลี่ยนรองเท้าเมื่อเข้ามางานในห้อง PACU</text>
   <text y="694.964" x="75.991,78.961,80.446,82.378,86.428,86.428,88.993,93.133,96.913,96.913,100.477,103.042,106.12,107.632,111.187,111.187,114.733,118.297,121.879,126.019,128.584,132.184,136.387,140.527,140.527,143.092,146.656,149.221,152.785,156.385,160.165,163.252,165.817,169.867,169.867,169.867,171.379,175.582,179.362,181.927,185.149,188.713,188.713,192.763,196.345,200.485,203.05,206.65,209.404,213.454,217.657,221.797,221.797,224.362,227.881,227.881,227.881,231.931,231.931,235.117" svgx:width="0.33,0.17,0.17,0.45,0.0,0.28,0.46,0.42,0.0,0.4,0.28,0.34,0.17,0.4,0.0,0.39,0.4,0.4,0.46,0.28,0.4,0.47,0.46,0.0,0.28,0.4,0.28,0.4,0.4,0.42,0.34,0.28,0.45,0.0,0.0,0.17,0.47,0.42,0.28,0.36,0.4,0.0,0.45,0.4,0.46,0.28,0.4,0.31,0.45,0.47,0.46,0.0,0.28,0.39,0.0,0.0,0.45,0.0,0.35,0.34" style="fill:rgb(23,22,21);font-family:AngsanaNew;font-size:9.0px;stroke:none;">6. ท่านมีการเลือกขนาดหน้ากากดมยาที่เหมาะกับขนาดใบหน้าผู้ป่วย</text>
   <text y="711.271" x="75.991,78.961,80.446,82.378,86.428,86.428,88.993,93.133,94.645,98.695,102.25,102.25,102.25,105.337,109.477,113.122,113.122,116.722,120.925,125.065,125.065,127.63,131.194,133.759,137.323,140.509,143.344,146.539,149.617,152.371,156.574,156.574,160.12,163.666,167.23,171.19,171.19,172.702,175.897,180.037,183.43,186.994,186.994,190.513,190.513,190.513,194.563,194.563,197.749,200.836,203.59,207.73,209.659,212.962,217.255,221.215" svgx:width="0.33,0.17,0.17,0.45,0.0,0.28,0.46,0.17,0.45,0.4,0.0,0.0,0.34,0.46,0.41,0.0,0.4,0.47,0.46,0.0,0.28,0.4,0.28,0.4,0.35,0.31,0.35,0.34,0.31,0.47,0.0,0.39,0.39,0.4,0.44,0.0,0.17,0.35,0.46,0.38,0.4,0.0,0.39,0.0,0.0,0.45,0.0,0.35,0.34,0.31,0.46,0.17,0.37,0.48,0.44,0.48" style="fill:rgb(23,22,21);font-family:AngsanaNew;font-size:9.0px;stroke:none;">7. ท่านเปลี่ยนชุดหน้ากากวงจรให้ออกซิเจนแก่ผู้ป่วยใน PACU</text>
  </g>
 </g>
</svg>
