<?xml version="1.0" encoding="UTF-8"?>
<svg height="742.04" width="563.21" xmlns="http://www.w3.org/2000/svg">
 <g>
  <path style="fill:rgb(0,174,239);stroke:none;stroke-width:1.0;" d="M173.550 590.100 C178.320 590.100 182.190 586.230 182.190 581.450 C182.190 576.680 178.320 572.820 173.550 572.820 C168.780 572.820 164.910 576.680 164.910 581.450 C164.910 586.230 168.780 590.100 173.550 590.100 "/>
  <path style="fill:rgb(0,174,239);stroke:none;stroke-width:1.0;" d="M173.550 590.100 L173.550 590.600 C178.600 590.600 182.690 586.510 182.690 581.450 C182.690 576.410 178.600 572.320 173.550 572.320 C168.500 572.320 164.410 576.410 164.410 581.450 C164.410 586.510 168.500 590.600 173.550 590.600 L173.550 589.600 C171.300 589.600 169.270 588.690 167.790 587.210 C166.320 585.740 165.410 583.700 165.410 581.450 C165.410 579.210 166.320 577.170 167.790 575.700 C169.270 574.220 171.300 573.320 173.550 573.320 C175.800 573.320 177.830 574.220 179.310 575.700 C180.780 577.170 181.690 579.210 181.690 581.450 C181.690 583.700 180.780 585.740 179.310 587.210 C177.830 588.690 175.800 589.600 173.550 589.600 L173.550 590.100 "/>
  <path style="fill:rgb(255,255,255);stroke:none;stroke-width:1.0;" d="M179.500 579.200 C179.110 579.380 178.700 579.490 178.260 579.540 C178.710 579.280 179.050 578.860 179.210 578.350 C178.790 578.600 178.330 578.780 177.840 578.880 C177.450 578.460 176.890 578.200 176.270 578.200 C175.090 578.200 174.120 579.160 174.120 580.350 C174.120 580.520 174.140 580.680 174.180 580.840 C172.390 580.750 170.810 579.890 169.750 578.590 C169.560 578.910 169.460 579.280 169.460 579.670 C169.460 580.420 169.840 581.080 170.410 581.460 C170.060 581.450 169.730 581.350 169.440 581.190 C169.440 581.200 169.440 581.210 169.440 581.220 C169.440 582.260 170.180 583.130 171.160 583.330 C170.980 583.380 170.790 583.400 170.600 583.400 C170.460 583.400 170.320 583.390 170.190 583.360 C170.460 584.220 171.260 584.840 172.200 584.860 C171.460 585.440 170.540 585.780 169.530 585.780 C169.360 585.780 169.180 585.770 169.020 585.750 C169.970 586.360 171.100 586.720 172.310 586.720 C176.270 586.720 178.430 583.440 178.430 580.600 C178.430 580.500 178.430 580.410 178.430 580.320 C178.850 580.020 179.210 579.640 179.500 579.200 "/>
  <path style="fill:rgb(68,200,245);stroke:none;stroke-width:1.0;" d="M164.410 675.210 L552.760 675.210 L552.760 713.540 L164.410 713.540 M164.410 687.680 L552.760 687.680 L553.040 687.800 L553.210 688.080 L553.210 688.360 L553.040 688.590 L552.760 688.700 L164.410 688.700 L164.130 688.590 L163.960 688.360 L163.960 688.080 L164.130 687.800 "/>
  <path style="fill:rgb(55,192,197);stroke:none;stroke-width:1.0;" d="M164.410 44.220 "/>
  <path style="fill:rgb(0,174,239);stroke:none;stroke-width:1.0;" d="M79.210 192.200 C110.330 192.200 135.570 166.970 135.570 135.840 C135.570 104.720 110.330 79.480 79.210 79.480 C48.080 79.480 22.850 104.720 22.850 135.840 C22.850 166.970 48.080 192.200 79.210 192.200 "/>
  <path style="fill:rgb(255,255,255);stroke:none;stroke-width:1.0;" d="M17.820 78.580 L21.960 197.200 L140.520 193.050 L136.380 74.430 M21.960 197.200 L140.520 193.050 L136.380 74.430 L17.820 78.580 L21.960 197.200 M79.210 192.200 C110.330 192.200 135.570 166.970 135.570 135.840 C135.570 104.720 110.330 79.480 79.210 79.480 C48.080 79.480 22.850 104.720 22.850 135.840 C22.850 166.970 48.080 192.200 79.210 192.200 M38.560 133.850 L38.560 100.220 L60.050 100.220 L60.050 104.800 L43.660 104.800 L43.660 114.630 L57.640 114.630 L57.640 119.160 L43.660 119.160 L43.660 129.270 L60.050 129.270 L60.050 133.850 L38.560 133.850 "/>
  <path style="fill:rgb(255,255,255);stroke:none;stroke-width:1.0;" d="M85.600 133.850 L78.520 119.680 L72.140 119.680 L72.140 133.850 L67.040 133.850 L67.040 100.220 L80.080 100.220 C86.450 100.220 90.510 104.330 90.510 110.040 C90.510 114.860 87.580 117.930 83.810 118.970 L91.550 133.850 L85.600 133.850 ZM79.700 104.800 L72.140 104.800 L72.140 115.330 L79.700 115.330 C83.100 115.330 85.410 113.400 85.410 110.090 C85.410 106.790 83.100 104.800 79.700 104.800 "/>
  <path style="fill:rgb(255,255,255);stroke:none;stroke-width:1.0;" d="M101.940 134.130 C98.490 134.130 96.080 133.180 93.770 130.870 L97.170 127.520 C98.350 128.700 99.490 129.550 101.940 129.550 C105.720 129.550 108.030 127.230 108.030 122.840 L108.030 100.220 L113.130 100.220 L113.130 123.220 C113.130 130.210 108.130 134.130 101.940 134.130 "/>
  <path style="fill:rgb(255,255,255);stroke:none;stroke-width:1.0;" d="M39.940 164.270 C40.550 163.690 41.210 163.280 41.390 163.280 C41.550 163.280 41.550 163.490 41.430 164.160 C41.040 166.350 40.470 168.870 39.940 171.050 L40.100 171.220 C40.550 171.050 41.100 170.910 41.550 170.850 C41.800 169.500 42.040 168.210 42.370 166.840 C42.740 165.920 43.370 164.960 43.820 164.310 C44.290 163.650 44.620 163.450 44.870 163.450 C45.090 163.450 45.340 163.550 45.560 163.790 C45.660 163.900 45.830 163.900 46.010 163.770 C46.190 163.630 46.400 163.430 46.540 163.180 C46.710 162.900 46.710 162.570 46.560 162.300 C46.380 162.020 46.030 161.790 45.680 161.790 C44.870 161.790 43.660 163.180 42.620 165.190 L42.560 165.190 L42.760 164.160 C43.070 162.730 43.050 161.790 42.530 161.790 C41.980 161.790 40.720 162.630 39.670 163.790 L39.940 164.270 ZM52.270 168.440 C51.250 169.440 50.140 170.010 49.280 170.010 C48.040 170.010 47.690 168.800 47.690 167.700 C47.690 167.500 47.690 167.290 47.730 167.050 C49.690 166.560 53.130 165.450 53.130 163.430 C53.130 162.550 52.410 161.790 51.330 161.790 C50.470 161.790 49.380 162.260 48.510 162.940 C46.890 164.160 46.050 166.310 46.050 168.230 C46.050 170.670 47.360 171.220 48.300 171.220 C49.280 171.220 50.820 170.830 52.620 168.910 L52.270 168.440 ZM50.570 162.630 C51.160 162.630 51.590 163.040 51.590 163.760 C51.590 164.700 50.740 165.640 47.810 166.410 C48.160 164.120 49.180 163.180 49.730 162.880 C49.960 162.730 50.280 162.630 50.570 162.630 ZM54.860 171.220 C56.520 171.220 58.570 169.680 58.570 168.130 C58.570 167.250 58.080 166.660 56.850 165.740 C56.110 165.160 55.520 164.650 55.520 163.920 C55.520 163.220 56.030 162.770 56.620 162.770 C57.320 162.770 57.810 163.180 58.220 163.690 C58.340 163.860 58.460 163.900 58.670 163.770 C58.970 163.590 59.180 163.280 59.180 162.940 C59.180 162.400 58.490 161.790 57.580 161.790 C56.930 161.790 55.950 162.220 55.310 162.770 C54.500 163.490 54.250 164.140 54.250 164.760 C54.250 165.800 55.110 166.560 56.030 167.250 C56.990 168.010 57.220 168.460 57.220 168.970 C57.220 169.620 56.680 170.200 55.870 170.200 C55.190 170.200 54.440 169.750 53.900 168.950 C53.800 168.800 53.640 168.760 53.390 168.890 C53.040 169.090 52.780 169.400 52.800 169.750 C52.800 170.460 53.900 171.220 54.860 171.220 ZM66.010 168.440 C64.990 169.440 63.880 170.010 63.020 170.010 C61.780 170.010 61.430 168.800 61.430 167.700 C61.430 167.500 61.430 167.290 61.470 167.050 C63.430 166.560 66.870 165.450 66.870 163.430 C66.870 162.550 66.150 161.790 65.070 161.790 C64.210 161.790 63.130 162.260 62.250 162.940 C60.630 164.160 59.790 166.310 59.790 168.230 C59.790 170.670 61.100 171.220 62.040 171.220 C63.020 171.220 64.560 170.830 66.360 168.910 L66.010 168.440 ZM64.310 162.630 C64.900 162.630 65.330 163.040 65.330 163.760 C65.330 164.700 64.470 165.640 61.550 166.410 C61.900 164.120 62.920 163.180 63.470 162.880 C63.700 162.730 64.030 162.630 64.310 162.630 ZM75.600 168.600 C75.010 169.190 74.290 169.660 74.130 169.660 C74.000 169.660 73.940 169.500 74.090 168.780 C74.560 166.190 75.170 163.410 75.500 162.140 L75.440 162.060 C75.210 162.060 74.940 162.000 74.660 161.930 C74.230 161.850 73.820 161.790 73.390 161.790 C72.100 161.790 70.610 162.510 69.590 163.370 C68.100 164.610 67.130 166.840 67.130 168.910 C67.130 170.540 67.790 171.220 68.320 171.220 C68.870 171.220 69.550 170.850 70.220 170.300 C71.100 169.580 72.060 168.600 72.860 167.480 L72.900 167.480 L72.490 169.420 C72.200 170.910 72.470 171.220 72.860 171.220 C73.370 171.220 74.740 170.460 75.840 169.090 L75.600 168.600 ZM69.380 169.910 C69.100 169.910 68.830 169.480 68.830 168.560 C68.830 166.540 69.650 164.120 71.040 163.100 C71.390 162.830 71.960 162.670 72.490 162.670 C73.020 162.670 73.570 162.810 73.860 162.960 C73.720 163.610 73.410 165.080 73.190 165.900 C72.490 167.310 70.180 169.910 69.380 169.910 ZM76.680 164.270 C77.300 163.690 77.950 163.280 78.130 163.280 C78.300 163.280 78.300 163.490 78.180 164.160 C77.790 166.350 77.210 168.870 76.680 171.050 L76.850 171.220 C77.300 171.050 77.850 170.910 78.300 170.850 C78.540 169.500 78.790 168.210 79.110 166.840 C79.490 165.920 80.120 164.960 80.570 164.310 C81.040 163.650 81.360 163.450 81.610 163.450 C81.840 163.450 82.080 163.550 82.310 163.790 C82.410 163.900 82.570 163.900 82.760 163.770 C82.940 163.630 83.150 163.430 83.290 163.180 C83.450 162.900 83.450 162.570 83.310 162.300 C83.120 162.020 82.780 161.790 82.430 161.790 C81.610 161.790 80.400 163.180 79.360 165.190 L79.300 165.190 L79.510 164.160 C79.810 162.730 79.790 161.790 79.280 161.790 C78.730 161.790 77.460 162.630 76.420 163.790 L76.680 164.270 ZM88.770 168.500 C88.220 169.070 86.970 170.010 85.930 170.010 C85.050 170.010 84.470 169.260 84.470 167.800 C84.470 166.410 84.860 165.020 85.370 164.100 C85.760 163.370 86.330 162.750 87.070 162.750 C87.700 162.750 88.180 163.040 88.600 163.630 C88.750 163.820 88.890 163.860 89.050 163.760 C89.530 163.510 89.730 163.120 89.730 162.810 C89.710 162.300 89.050 161.790 88.180 161.790 C87.170 161.790 85.740 162.570 84.900 163.300 C83.590 164.510 82.800 166.520 82.800 168.210 C82.800 170.170 83.680 171.220 84.990 171.220 C86.190 171.220 87.810 170.400 89.070 168.950 L88.770 168.500 ZM98.360 168.760 C97.790 169.320 97.150 169.710 96.950 169.710 C96.780 169.710 96.760 169.560 96.880 168.970 L97.950 164.390 C98.460 162.160 97.890 161.790 97.380 161.790 C97.010 161.790 96.540 161.930 96.010 162.220 C95.090 162.710 93.570 163.790 92.220 165.610 L92.180 165.610 L94.020 157.130 C94.150 156.580 94.130 156.410 93.940 156.410 C93.650 156.410 92.550 156.970 90.930 157.130 L90.870 157.620 L91.470 157.640 C92.260 157.660 92.370 157.720 92.140 158.790 C91.340 162.980 90.440 167.110 89.570 171.050 L89.710 171.220 C90.160 171.050 90.690 170.910 91.160 170.830 C91.340 169.830 91.710 168.010 91.920 167.110 C92.920 165.330 95.310 163.040 96.250 163.040 C96.580 163.040 96.660 163.410 96.420 164.490 L95.330 169.230 C95.010 170.650 95.150 171.220 95.680 171.220 C96.270 171.220 97.540 170.500 98.620 169.260 L98.360 168.760 "/>
  <path style="fill:rgb(255,255,255);stroke:none;stroke-width:1.0;" d="M43.900 143.680 C42.040 143.680 39.430 145.220 39.430 148.590 C39.430 150.860 41.100 153.110 43.900 153.110 C45.930 153.110 48.340 151.530 48.340 148.240 C48.340 145.710 46.440 143.680 43.900 143.680 ZM43.700 144.360 C45.480 144.360 46.440 146.300 46.440 148.690 C46.440 151.490 45.400 152.430 44.130 152.430 C42.450 152.430 41.330 150.510 41.330 147.940 C41.330 145.630 42.430 144.360 43.700 144.360 ZM51.720 145.090 L51.720 143.480 C50.750 143.870 49.610 144.210 48.750 144.360 L48.750 144.850 C50.020 145.010 50.100 145.050 50.100 146.380 L50.100 155.620 C50.100 156.970 49.920 157.100 48.610 157.220 L48.610 157.770 L53.450 157.770 L53.450 157.220 C51.860 157.080 51.720 156.970 51.720 155.420 L51.720 152.740 C51.980 152.880 52.530 153.090 53.130 153.110 C55.790 152.620 58.220 150.640 58.220 147.550 C58.220 145.520 56.870 143.680 54.600 143.680 C54.350 143.680 53.970 143.780 53.600 143.990 L51.720 145.090 ZM51.720 145.770 C52.270 145.360 53.110 144.910 53.760 144.910 C55.250 144.910 56.500 146.140 56.500 148.320 C56.500 150.640 55.360 152.110 53.640 152.110 C52.940 152.110 52.170 151.780 51.720 151.310 L51.720 145.770 ZM66.300 150.700 C65.560 151.390 64.780 151.720 63.960 151.720 C62.530 151.720 60.940 150.570 60.920 147.790 C63.350 147.710 65.910 147.510 66.250 147.450 C66.620 147.360 66.720 147.200 66.720 146.790 C66.720 145.200 65.350 143.680 63.660 143.680 C62.590 143.680 61.490 144.230 60.650 145.170 C59.810 146.100 59.300 147.340 59.300 148.750 C59.300 151.060 60.780 153.110 63.290 153.110 C63.920 153.110 65.330 152.740 66.620 151.130 L66.300 150.700 ZM63.170 144.440 C64.290 144.440 64.990 145.420 64.970 146.480 C64.970 146.770 64.840 146.890 64.480 146.890 C63.290 146.930 62.170 146.950 61.020 146.950 C61.330 145.300 62.230 144.440 63.170 144.440 ZM77.320 152.860 L77.320 152.330 C76.130 152.210 76.030 152.130 76.030 150.740 L76.030 146.790 C76.030 144.810 75.010 143.680 73.390 143.680 C72.800 143.680 72.270 143.930 71.690 144.300 C71.180 144.640 70.730 144.950 70.320 145.260 L70.320 143.620 C69.420 144.030 68.460 144.280 67.480 144.460 L67.480 144.930 C68.590 145.130 68.710 145.200 68.710 146.500 L68.710 150.740 C68.710 152.090 68.610 152.190 67.210 152.330 L67.210 152.860 L71.650 152.860 L71.650 152.330 C70.450 152.210 70.320 152.130 70.320 150.740 L70.320 145.930 C70.940 145.400 71.740 144.890 72.550 144.890 C73.920 144.890 74.410 145.810 74.410 147.220 L74.410 150.640 C74.410 152.050 74.270 152.210 73.060 152.330 L73.060 152.860 L77.320 152.860 "/>
  <path style="fill:rgb(168,179,172);stroke:none;stroke-width:1.0;" d="M26.030 656.520 L88.690 656.630 C89.570 656.630 90.350 656.500 90.350 658.380 L90.270 679.010 L24.450 679.010 L24.450 658.300 C24.450 657.380 24.540 656.520 26.030 656.520 "/>
  <path style="fill:rgb(255,255,255);stroke:none;stroke-width:1.0;" d="M43.230 667.080 C43.240 671.240 39.860 674.620 35.700 674.620 C31.540 674.620 28.160 671.250 28.160 667.090 C28.160 667.080 28.160 667.080 28.160 667.080 C28.160 662.910 31.530 659.540 35.690 659.540 C39.860 659.530 43.230 662.910 43.230 667.070 C43.230 667.070 43.230 667.070 43.230 667.080 "/>
  <path style="fill:rgb(1,2,2);stroke:none;stroke-width:1.0;" d="M39.430 666.240 C39.210 665.770 38.890 665.530 38.470 665.530 C37.700 665.530 37.310 666.040 37.310 667.070 C37.310 668.090 37.700 668.610 38.470 668.610 C38.980 668.610 39.330 668.360 39.530 667.860 L40.610 668.420 C40.110 669.310 39.360 669.760 38.350 669.760 C37.580 669.760 36.950 669.520 36.490 669.050 C36.020 668.570 35.790 667.910 35.790 667.080 C35.790 666.260 36.020 665.600 36.500 665.120 C36.970 664.630 37.580 664.390 38.310 664.390 C39.370 664.390 40.130 664.810 40.590 665.650 L39.430 666.240 ZM34.460 666.240 C34.240 665.770 33.920 665.530 33.490 665.530 C32.720 665.530 32.340 666.040 32.340 667.070 C32.340 668.090 32.720 668.610 33.490 668.610 C33.990 668.610 34.350 668.360 34.560 667.860 L35.620 668.420 C35.120 669.310 34.360 669.760 33.350 669.760 C32.580 669.760 31.960 669.520 31.490 669.050 C31.020 668.570 30.790 667.910 30.790 667.080 C30.790 666.260 31.030 665.600 31.510 665.120 C31.990 664.630 32.590 664.390 33.310 664.390 C34.380 664.390 35.140 664.810 35.600 665.650 L34.460 666.240 ZM30.740 662.060 C29.330 663.490 28.620 665.160 28.620 667.080 C28.620 669.000 29.320 670.650 30.720 672.050 C32.110 673.450 33.780 674.150 35.710 674.150 C37.640 674.150 39.320 673.440 40.750 672.030 C42.100 670.720 42.780 669.070 42.780 667.080 C42.780 665.100 42.090 663.430 40.720 662.050 C39.340 660.680 37.670 659.990 35.710 659.990 C33.750 659.990 32.090 660.680 30.740 662.060 ZM41.820 660.940 C43.490 662.610 44.330 664.660 44.330 667.080 C44.330 669.500 43.510 671.520 41.870 673.150 C40.120 674.860 38.060 675.720 35.690 675.720 C33.340 675.720 31.310 674.870 29.610 673.170 C27.910 671.470 27.060 669.440 27.060 667.080 C27.060 664.710 27.910 662.670 29.610 660.940 C31.270 659.270 33.290 658.430 35.690 658.430 C38.110 658.430 40.150 659.270 41.820 660.940 "/>
  <path style="fill:rgb(1,2,2);stroke:none;stroke-width:1.0;" d="M25.390 656.840 L89.240 656.840 C89.610 656.840 89.920 657.140 89.920 657.520 C89.920 657.520 89.920 666.240 89.920 672.560 L44.290 672.560 C42.610 675.580 39.390 677.640 35.690 677.640 C31.990 677.640 28.770 675.580 27.100 672.560 L24.710 672.560 C24.710 666.240 24.710 657.520 24.710 657.520 C24.710 657.140 25.020 656.840 25.390 656.840 ZM89.240 656.280 L25.390 656.280 C24.710 656.280 24.150 656.830 24.150 657.520 L24.150 679.210 C24.150 679.370 24.280 679.490 24.430 679.490 L90.200 679.490 C90.360 679.490 90.480 679.370 90.480 679.210 L90.480 657.520 C90.480 656.830 89.920 656.280 89.240 656.280 "/>
  <path style="fill:rgb(255,255,255);stroke:none;stroke-width:1.0;" d="M57.260 677.410 C57.340 677.410 57.410 677.400 57.490 677.390 C57.560 677.370 57.620 677.350 57.670 677.310 C57.730 677.280 57.770 677.230 57.810 677.170 C57.840 677.100 57.850 677.030 57.850 676.930 C57.850 676.740 57.800 676.610 57.690 676.530 C57.590 676.450 57.450 676.410 57.270 676.410 L56.400 676.410 L56.400 677.410 L57.260 677.410 ZM57.210 675.860 C57.360 675.860 57.470 675.830 57.570 675.760 C57.660 675.690 57.700 675.580 57.700 675.420 C57.700 675.340 57.690 675.270 57.660 675.210 C57.630 675.160 57.590 675.120 57.530 675.090 C57.480 675.060 57.420 675.030 57.360 675.020 C57.290 675.010 57.220 675.010 57.150 675.010 L56.400 675.010 L56.400 675.860 L57.210 675.860 ZM57.310 674.380 C57.490 674.380 57.650 674.390 57.790 674.420 C57.940 674.460 58.060 674.510 58.160 674.580 C58.260 674.650 58.340 674.740 58.400 674.850 C58.460 674.970 58.490 675.110 58.490 675.290 C58.490 675.470 58.440 675.620 58.360 675.750 C58.280 675.870 58.150 675.970 57.990 676.050 C58.210 676.110 58.380 676.230 58.490 676.390 C58.610 676.550 58.660 676.750 58.660 676.980 C58.660 677.160 58.630 677.320 58.550 677.460 C58.480 677.590 58.380 677.700 58.260 677.790 C58.140 677.870 58.000 677.940 57.850 677.980 C57.690 678.020 57.530 678.040 57.370 678.040 L55.590 678.040 L55.590 674.380 L57.310 674.380 "/>
  <path style="fill:rgb(255,255,255);stroke:none;stroke-width:1.0;" d="M58.800 674.380 L59.710 674.380 L60.560 675.820 L61.420 674.380 L62.310 674.380 L60.960 676.640 L60.960 678.040 L60.150 678.040 L60.150 676.610 L58.800 674.380 "/>
  <path style="fill:rgb(255,255,255);stroke:none;stroke-width:1.0;" d="M71.930 674.380 L73.460 676.830 L73.470 676.830 L73.470 674.380 L74.220 674.380 L74.220 678.040 L73.420 678.040 L71.890 675.590 L71.880 675.590 L71.880 678.040 L71.130 678.040 L71.130 674.380 L71.930 674.380 "/>
  <path style="fill:rgb(255,255,255);stroke:none;stroke-width:1.0;" d="M77.280 675.350 C77.230 675.280 77.170 675.210 77.100 675.150 C77.030 675.090 76.940 675.050 76.850 675.020 C76.760 674.980 76.670 674.970 76.570 674.970 C76.390 674.970 76.230 675.000 76.110 675.070 C75.980 675.140 75.880 675.230 75.800 675.350 C75.720 675.470 75.660 675.610 75.630 675.760 C75.590 675.910 75.570 676.060 75.570 676.220 C75.570 676.380 75.590 676.520 75.630 676.670 C75.660 676.820 75.720 676.950 75.800 677.060 C75.880 677.180 75.980 677.270 76.110 677.340 C76.230 677.410 76.390 677.450 76.570 677.450 C76.820 677.450 77.010 677.370 77.150 677.220 C77.290 677.070 77.370 676.870 77.400 676.630 L78.180 676.630 C78.160 676.850 78.110 677.060 78.020 677.250 C77.930 677.430 77.820 677.590 77.680 677.720 C77.540 677.850 77.380 677.950 77.190 678.020 C77.000 678.090 76.790 678.120 76.570 678.120 C76.290 678.120 76.040 678.070 75.810 677.970 C75.590 677.880 75.400 677.740 75.250 677.570 C75.090 677.400 74.970 677.200 74.890 676.970 C74.810 676.740 74.770 676.490 74.770 676.220 C74.770 675.950 74.810 675.700 74.890 675.460 C74.970 675.230 75.090 675.020 75.250 674.850 C75.400 674.670 75.590 674.540 75.810 674.440 C76.040 674.340 76.290 674.290 76.570 674.290 C76.770 674.290 76.960 674.320 77.140 674.380 C77.320 674.430 77.480 674.520 77.620 674.630 C77.760 674.740 77.880 674.880 77.970 675.040 C78.070 675.210 78.130 675.400 78.150 675.610 L77.370 675.610 C77.360 675.520 77.320 675.430 77.280 675.350 "/>
  <path style="fill:rgb(255,255,255);stroke:none;stroke-width:1.0;" d="M80.380 664.560 C80.380 667.600 77.920 670.070 74.880 670.070 C71.830 670.070 69.370 667.610 69.360 664.570 C69.360 664.560 69.360 664.560 69.360 664.560 C69.360 661.520 71.830 659.050 74.870 659.050 C77.910 659.050 80.370 661.510 80.380 664.550 C80.380 664.550 80.380 664.550 80.380 664.560 "/>
  <path style="fill:rgb(1,2,2);stroke:none;stroke-width:1.0;" d="M74.880 659.300 C73.420 659.300 72.190 659.820 71.190 660.840 C70.910 661.120 70.680 661.400 70.470 661.710 L72.930 662.800 C73.150 662.120 73.790 661.700 74.580 661.660 L74.580 660.670 L75.310 660.670 L75.310 661.660 C75.820 661.680 76.380 661.820 76.920 662.250 L76.080 663.110 C75.770 662.890 75.380 662.740 74.990 662.740 C74.670 662.740 74.220 662.830 74.220 663.230 C74.220 663.300 74.240 663.350 74.280 663.400 L75.650 664.010 C76.000 664.170 76.340 664.320 76.680 664.470 L79.960 665.930 C80.070 665.500 80.130 665.040 80.130 664.560 C80.130 663.090 79.610 661.850 78.580 660.840 C77.570 659.820 76.330 659.300 74.880 659.300 ZM69.900 662.840 C69.710 663.380 69.620 663.950 69.620 664.560 C69.620 665.980 70.130 667.210 71.170 668.240 C72.210 669.280 73.440 669.800 74.880 669.800 C76.310 669.800 77.560 669.270 78.620 668.230 C78.970 667.880 79.260 667.510 79.490 667.110 L77.080 666.030 C76.910 666.840 76.190 667.390 75.310 667.460 L75.310 668.450 L74.580 668.450 L74.580 667.460 C73.860 667.450 73.160 667.150 72.630 666.690 L73.510 665.800 C73.940 666.200 74.360 666.380 74.940 666.380 C75.320 666.380 75.740 666.230 75.740 665.740 C75.740 665.570 75.670 665.450 75.560 665.360 L74.950 665.080 L74.190 664.740 C73.820 664.580 73.500 664.440 73.180 664.290 L69.900 662.840 ZM74.860 658.150 C76.660 658.150 78.180 658.770 79.420 660.010 C80.660 661.250 81.280 662.760 81.280 664.560 C81.280 666.350 80.670 667.850 79.450 669.060 C78.160 670.330 76.630 670.970 74.860 670.970 C73.120 670.970 71.610 670.340 70.350 669.080 C69.090 667.820 68.460 666.310 68.460 664.560 C68.460 662.800 69.090 661.290 70.350 660.010 C71.580 658.770 73.090 658.150 74.860 658.150 "/>
  <path style="fill:rgb(255,255,255);stroke:none;stroke-width:1.0;" d="M59.170 658.750 C62.450 658.750 65.110 661.410 65.110 664.690 C65.110 667.970 62.450 670.630 59.170 670.630 C55.900 670.630 53.240 667.970 53.240 664.690 C53.240 661.410 55.900 658.750 59.170 658.750 "/>
  <path style="fill:rgb(1,2,2);stroke:none;stroke-width:1.0;" d="M60.890 662.970 C60.890 662.740 60.710 662.560 60.480 662.560 L57.860 662.560 C57.630 662.560 57.440 662.740 57.440 662.970 L57.440 665.590 L58.170 665.590 L58.170 668.700 L60.160 668.700 L60.160 665.590 L60.890 665.590 L60.890 662.970 "/>
  <path style="fill:rgb(1,2,2);stroke:none;stroke-width:1.0;" d="M59.170 660.420 C59.660 660.420 60.060 660.820 60.060 661.320 C60.060 661.810 59.660 662.210 59.170 662.210 C58.670 662.210 58.270 661.810 58.270 661.320 C58.270 660.820 58.670 660.420 59.170 660.420 "/>
  <path style="fill:rgb(1,2,2);stroke:none;stroke-width:1.0;" d="M59.170 659.300 C60.630 659.300 61.860 659.820 62.880 660.840 C63.910 661.850 64.420 663.090 64.420 664.560 C64.420 666.030 63.920 667.260 62.910 668.230 C61.850 669.270 60.610 669.800 59.170 669.800 C57.740 669.800 56.510 669.280 55.470 668.240 C54.430 667.210 53.910 665.980 53.910 664.560 C53.910 663.140 54.440 661.900 55.480 660.840 C56.490 659.820 57.720 659.300 59.170 659.300 ZM59.160 658.150 C57.380 658.150 55.880 658.770 54.650 660.010 C53.390 661.290 52.760 662.810 52.760 664.560 C52.760 666.310 53.390 667.820 54.650 669.080 C55.910 670.340 57.420 670.970 59.160 670.970 C60.920 670.970 62.450 670.330 63.750 669.060 C64.970 667.850 65.580 666.350 65.580 664.560 C65.580 662.760 64.960 661.250 63.720 660.010 C62.470 658.770 60.960 658.150 59.160 658.150 "/>
  <path style="fill:rgb(255,255,255);stroke:none;stroke-width:1.0;" d="M115.810 661.470 L115.810 662.480 L118.770 662.480 L118.770 661.470 C118.770 659.020 120.760 657.030 123.210 657.030 C125.660 657.030 127.650 659.020 127.650 661.470 L127.650 668.780 L130.620 668.780 L130.620 661.470 C130.620 657.390 127.290 654.070 123.210 654.070 C119.130 654.070 115.810 657.390 115.810 661.470 "/>
  <path style="fill:rgb(255,255,255);stroke:none;stroke-width:1.0;" d="M125.670 673.050 C125.670 674.400 124.570 675.500 123.220 675.500 C121.870 675.500 120.780 674.400 120.780 673.050 C120.780 671.700 121.870 670.610 123.220 670.610 C124.570 670.610 125.670 671.700 125.670 673.050 "/>
  <path style="fill:rgb(255,255,255);stroke:none;stroke-width:1.0;" d="M117.430 673.030 C117.430 669.850 120.020 667.260 123.190 667.260 C126.370 667.260 128.960 669.850 128.960 673.030 C128.960 676.210 126.370 678.790 123.190 678.790 C120.020 678.790 117.430 676.210 117.430 673.030 ZM114.460 673.030 C114.460 677.840 118.380 681.760 123.190 681.760 C128.010 681.760 131.930 677.840 131.930 673.030 C131.930 668.210 128.010 664.300 123.190 664.300 C118.380 664.300 114.460 668.210 114.460 673.030 "/>
  <path style="fill:rgb(255,255,255);stroke:none;stroke-width:1.0;" d="M99.440 704.610 C99.440 703.990 99.430 703.900 99.080 703.860 L98.990 703.850 C98.950 703.830 98.960 703.720 99.000 703.700 C99.250 703.710 99.460 703.720 99.700 703.720 L100.820 703.720 C101.200 703.720 101.550 703.720 101.620 703.700 C101.660 703.800 101.700 704.230 101.720 704.490 C101.700 704.530 101.600 704.540 101.570 704.510 C101.480 704.220 101.430 704.020 101.120 703.940 C100.990 703.910 100.800 703.900 100.540 703.900 L100.110 703.900 C99.930 703.900 99.930 703.910 99.930 704.140 L99.930 705.330 C99.930 705.500 99.950 705.500 100.130 705.500 L100.470 705.500 C100.720 705.500 100.910 705.490 100.980 705.460 C101.050 705.440 101.090 705.400 101.130 705.260 L101.170 705.010 C101.200 704.970 101.300 704.970 101.330 705.020 C101.330 705.160 101.300 705.390 101.300 705.620 C101.300 705.830 101.330 706.060 101.330 706.190 C101.300 706.230 101.200 706.230 101.170 706.200 L101.120 705.960 C101.090 705.860 101.050 705.770 100.930 705.740 C100.850 705.710 100.710 705.710 100.470 705.710 L100.130 705.710 C99.950 705.710 99.930 705.710 99.930 705.870 L99.930 706.710 C99.930 707.020 99.950 707.230 100.050 707.330 C100.120 707.400 100.240 707.460 100.760 707.460 C101.220 707.460 101.400 707.440 101.530 707.380 C101.640 707.320 101.800 707.110 101.950 706.800 C101.990 706.770 102.080 706.790 102.100 706.840 C102.060 707.050 101.910 707.510 101.830 707.670 C101.300 707.660 100.760 707.650 100.240 707.650 L99.700 707.650 C99.440 707.650 99.240 707.660 98.890 707.670 C98.860 707.650 98.840 707.550 98.880 707.520 L99.080 707.500 C99.420 707.470 99.440 707.380 99.440 706.760 L99.440 704.610 "/>
  <path style="fill:rgb(255,255,255);stroke:none;stroke-width:1.0;" d="M106.060 705.210 C106.060 704.840 106.050 704.160 105.950 703.980 C105.900 703.910 105.800 703.870 105.650 703.850 L105.500 703.840 C105.460 703.800 105.480 703.720 105.510 703.700 C105.740 703.710 105.960 703.720 106.190 703.720 C106.440 703.720 106.600 703.710 106.820 703.700 C106.860 703.730 106.860 703.810 106.830 703.840 L106.680 703.850 C106.540 703.870 106.420 703.920 106.390 704.000 C106.300 704.190 106.300 704.880 106.300 705.210 L106.300 705.890 C106.300 706.400 106.220 706.950 105.890 707.310 C105.630 707.590 105.190 707.740 104.750 707.740 C104.340 707.740 103.930 707.670 103.640 707.420 C103.320 707.150 103.170 706.720 103.170 706.010 L103.170 704.600 C103.170 703.980 103.160 703.880 102.820 703.850 L102.670 703.840 C102.630 703.820 102.640 703.720 102.680 703.700 C102.970 703.710 103.180 703.720 103.420 703.720 C103.660 703.720 103.860 703.710 104.150 703.700 C104.180 703.720 104.200 703.820 104.160 703.840 L104.020 703.850 C103.670 703.880 103.660 703.980 103.660 704.600 L103.660 705.890 C103.660 706.850 103.960 707.480 104.870 707.480 C105.730 707.480 106.060 706.800 106.060 705.900 L106.060 705.210 "/>
  <path style="fill:rgb(255,255,255);stroke:none;stroke-width:1.0;" d="M108.440 705.470 C108.440 705.580 108.440 705.640 108.460 705.670 C108.480 705.680 108.570 705.700 108.870 705.700 C109.090 705.700 109.310 705.670 109.490 705.540 C109.650 705.410 109.780 705.210 109.780 704.800 C109.780 704.330 109.490 703.880 108.830 703.880 C108.460 703.880 108.440 703.910 108.440 704.080 L108.440 705.470 ZM107.960 704.620 C107.960 704.050 107.940 703.950 107.690 703.920 L107.500 703.900 C107.460 703.870 107.460 703.770 107.510 703.750 C107.840 703.720 108.250 703.700 108.840 703.700 C109.210 703.700 109.560 703.730 109.830 703.880 C110.120 704.030 110.330 704.290 110.330 704.710 C110.330 705.280 109.880 705.590 109.580 705.710 C109.550 705.740 109.580 705.800 109.610 705.850 C110.090 706.620 110.400 707.090 110.810 707.430 C110.910 707.520 111.060 707.590 111.220 707.600 C111.250 707.610 111.250 707.660 111.230 707.680 C111.170 707.700 111.080 707.710 110.960 707.710 C110.460 707.710 110.150 707.570 109.730 706.960 C109.580 706.740 109.330 706.330 109.150 706.070 C109.060 705.930 108.960 705.870 108.730 705.870 C108.460 705.870 108.440 705.880 108.440 706.010 L108.440 706.760 C108.440 707.380 108.460 707.450 108.800 707.500 L108.930 707.520 C108.960 707.550 108.950 707.650 108.920 707.670 C108.650 707.660 108.440 707.650 108.210 707.650 C107.960 707.650 107.740 707.660 107.460 707.670 C107.430 707.650 107.420 707.560 107.450 707.520 L107.600 707.500 C107.940 707.460 107.960 707.380 107.960 706.760 L107.960 704.620 "/>
  <path style="fill:rgb(255,255,255);stroke:none;stroke-width:1.0;" d="M114.860 705.850 C114.860 704.870 114.430 703.810 113.290 703.810 C112.670 703.810 111.870 704.230 111.870 705.530 C111.870 706.420 112.300 707.560 113.470 707.560 C114.180 707.560 114.860 707.020 114.860 705.850 ZM111.280 705.720 C111.280 704.530 112.170 703.620 113.390 703.620 C114.770 703.620 115.460 704.620 115.460 705.660 C115.460 706.870 114.540 707.740 113.390 707.740 C112.070 707.740 111.280 706.800 111.280 705.720 "/>
  <path style="fill:rgb(255,255,255);stroke:none;stroke-width:1.0;" d="M117.160 706.760 C117.160 707.380 117.170 707.460 117.560 707.500 L117.720 707.520 C117.750 707.550 117.740 707.650 117.700 707.670 C117.360 707.660 117.170 707.650 116.930 707.650 C116.680 707.650 116.470 707.660 116.200 707.670 C116.170 707.650 116.160 707.550 116.190 707.520 L116.320 707.500 C116.660 707.450 116.670 707.380 116.670 706.760 L116.670 704.560 C116.670 704.050 116.660 703.950 116.400 703.920 L116.180 703.900 C116.140 703.860 116.140 703.770 116.190 703.750 C116.510 703.710 116.880 703.700 117.370 703.700 C117.860 703.700 118.230 703.770 118.510 703.940 C118.790 704.110 118.990 704.420 118.990 704.830 C118.990 705.380 118.650 705.650 118.390 705.780 C118.130 705.900 117.820 705.960 117.570 705.960 C117.530 705.940 117.530 705.850 117.570 705.840 C118.210 705.720 118.440 705.360 118.440 704.840 C118.440 704.260 118.100 703.890 117.480 703.890 C117.170 703.890 117.160 703.910 117.160 704.100 L117.160 706.760 "/>
  <path style="fill:rgb(255,255,255);stroke:none;stroke-width:1.0;" d="M120.170 704.610 C120.170 703.990 120.160 703.900 119.810 703.860 L119.710 703.850 C119.670 703.830 119.690 703.720 119.720 703.700 C119.980 703.710 120.180 703.720 120.420 703.720 L121.540 703.720 C121.920 703.720 122.280 703.720 122.350 703.700 C122.380 703.800 122.420 704.230 122.440 704.490 C122.420 704.530 122.320 704.540 122.290 704.510 C122.210 704.220 122.150 704.020 121.840 703.940 C121.720 703.910 121.530 703.900 121.260 703.900 L120.830 703.900 C120.660 703.900 120.660 703.910 120.660 704.140 L120.660 705.330 C120.660 705.500 120.670 705.500 120.850 705.500 L121.200 705.500 C121.450 705.500 121.630 705.490 121.710 705.460 C121.780 705.440 121.820 705.400 121.850 705.260 L121.900 705.010 C121.920 704.970 122.030 704.970 122.050 705.020 C122.050 705.160 122.030 705.390 122.030 705.620 C122.030 705.830 122.050 706.060 122.050 706.190 C122.030 706.230 121.920 706.230 121.900 706.200 L121.840 705.960 C121.820 705.860 121.780 705.770 121.660 705.740 C121.570 705.710 121.430 705.710 121.200 705.710 L120.850 705.710 C120.670 705.710 120.660 705.710 120.660 705.870 L120.660 706.710 C120.660 707.020 120.670 707.230 120.770 707.330 C120.840 707.400 120.970 707.460 121.490 707.460 C121.950 707.460 122.120 707.440 122.250 707.380 C122.360 707.320 122.520 707.110 122.680 706.800 C122.720 706.770 122.800 706.790 122.820 706.840 C122.780 707.050 122.630 707.510 122.560 707.670 C122.020 707.660 121.490 707.650 120.960 707.650 L120.420 707.650 C120.170 707.650 119.970 707.660 119.610 707.670 C119.580 707.650 119.570 707.550 119.600 707.520 L119.800 707.500 C120.140 707.470 120.170 707.380 120.170 706.760 L120.170 704.610 "/>
  <path style="fill:rgb(255,255,255);stroke:none;stroke-width:1.0;" d="M124.430 705.740 C124.380 705.880 124.380 705.880 124.550 705.880 L125.280 705.880 C125.460 705.880 125.470 705.860 125.410 705.700 L125.090 704.720 C125.040 704.580 124.990 704.420 124.960 704.350 L124.940 704.350 C124.930 704.380 124.870 704.520 124.800 704.700 L124.430 705.740 ZM125.600 706.270 C125.560 706.140 125.540 706.120 125.360 706.120 L124.460 706.120 C124.310 706.120 124.280 706.140 124.240 706.260 L124.030 706.890 C123.940 707.160 123.900 707.320 123.900 707.380 C123.900 707.450 123.930 707.490 124.070 707.500 L124.260 707.520 C124.310 707.550 124.310 707.640 124.250 707.670 C124.100 707.660 123.910 707.660 123.630 707.650 C123.440 707.650 123.220 707.660 123.060 707.670 C123.030 707.640 123.010 707.550 123.050 707.520 L123.250 707.500 C123.390 707.490 123.520 707.420 123.600 707.210 C123.710 706.930 123.880 706.550 124.130 705.880 L124.740 704.270 C124.820 704.060 124.850 703.940 124.840 703.850 C124.980 703.810 125.080 703.700 125.150 703.620 C125.180 703.620 125.220 703.630 125.240 703.680 C125.310 703.940 125.410 704.210 125.500 704.470 L126.310 706.870 C126.490 707.380 126.560 707.470 126.820 707.500 L126.980 707.520 C127.020 707.550 127.010 707.640 126.980 707.670 C126.740 707.660 126.530 707.650 126.260 707.650 C125.970 707.650 125.750 707.660 125.570 707.670 C125.530 707.640 125.520 707.550 125.560 707.520 L125.740 707.500 C125.860 707.490 125.940 707.450 125.940 707.390 C125.940 707.330 125.910 707.220 125.870 707.080 L125.600 706.270 "/>
  <path style="fill:rgb(255,255,255);stroke:none;stroke-width:1.0;" d="M131.150 706.640 C131.150 706.820 131.150 707.520 131.170 707.680 C131.160 707.710 131.120 707.740 131.060 707.740 C130.980 707.640 130.810 707.430 130.290 706.840 L128.910 705.270 C128.750 705.090 128.350 704.600 128.220 704.470 L128.210 704.470 C128.190 704.540 128.180 704.680 128.180 704.850 L128.180 706.150 C128.180 706.430 128.190 707.210 128.290 707.390 C128.320 707.450 128.440 707.490 128.590 707.500 L128.780 707.520 C128.810 707.570 128.810 707.640 128.760 707.670 C128.500 707.660 128.290 707.650 128.070 707.650 C127.820 707.650 127.660 707.660 127.450 707.670 C127.410 707.640 127.400 707.550 127.440 707.520 L127.600 707.500 C127.730 707.480 127.830 707.450 127.860 707.380 C127.940 707.170 127.940 706.440 127.940 706.150 L127.940 704.430 C127.940 704.270 127.930 704.140 127.810 704.000 C127.720 703.920 127.580 703.880 127.440 703.860 L127.340 703.850 C127.300 703.810 127.300 703.720 127.350 703.700 C127.600 703.720 127.910 703.720 128.020 703.720 C128.110 703.720 128.220 703.710 128.290 703.700 C128.410 704.000 129.110 704.790 129.310 705.010 L129.890 705.660 C130.300 706.120 130.590 706.450 130.870 706.740 L130.880 706.740 C130.910 706.710 130.910 706.610 130.910 706.490 L130.910 705.210 C130.910 704.930 130.900 704.160 130.790 703.980 C130.750 703.930 130.660 703.890 130.420 703.860 L130.320 703.850 C130.280 703.810 130.280 703.720 130.330 703.700 C130.600 703.710 130.810 703.720 131.030 703.720 C131.290 703.720 131.440 703.710 131.650 703.700 C131.690 703.730 131.690 703.810 131.660 703.850 L131.570 703.860 C131.380 703.890 131.260 703.940 131.240 703.990 C131.140 704.200 131.150 704.940 131.150 705.210 L131.150 706.640 "/>
  <path style="fill:rgb(255,255,255);stroke:none;stroke-width:1.0;" d="M99.930 712.040 C99.930 712.150 99.930 712.220 99.950 712.240 C99.970 712.260 100.060 712.270 100.360 712.270 C100.570 712.270 100.800 712.250 100.970 712.110 C101.140 711.990 101.270 711.780 101.270 711.380 C101.270 710.900 100.980 710.460 100.320 710.460 C99.950 710.460 99.930 710.480 99.930 710.650 L99.930 712.040 ZM99.450 711.190 C99.450 710.630 99.430 710.520 99.180 710.490 L98.990 710.470 C98.950 710.440 98.950 710.340 99.000 710.320 C99.330 710.290 99.740 710.270 100.330 710.270 C100.700 710.270 101.050 710.300 101.320 710.450 C101.610 710.600 101.810 710.870 101.810 711.290 C101.810 711.850 101.370 712.160 101.070 712.280 C101.040 712.320 101.070 712.380 101.100 712.420 C101.580 713.190 101.890 713.670 102.300 714.010 C102.400 714.100 102.550 714.160 102.710 714.180 C102.740 714.190 102.740 714.230 102.710 714.260 C102.660 714.280 102.560 714.290 102.450 714.290 C101.950 714.290 101.640 714.140 101.220 713.540 C101.060 713.320 100.820 712.910 100.640 712.640 C100.550 712.510 100.450 712.450 100.210 712.450 C99.940 712.450 99.930 712.450 99.930 712.580 L99.930 713.330 C99.930 713.960 99.940 714.030 100.290 714.070 L100.420 714.090 C100.450 714.120 100.440 714.220 100.400 714.240 C100.140 714.230 99.930 714.220 99.700 714.220 C99.450 714.220 99.230 714.230 98.950 714.240 C98.920 714.220 98.900 714.130 98.940 714.090 L99.090 714.070 C99.430 714.030 99.450 713.960 99.450 713.330 L99.450 711.190 "/>
  <path style="fill:rgb(255,255,255);stroke:none;stroke-width:1.0;" d="M103.580 711.190 C103.580 710.570 103.570 710.480 103.220 710.440 L103.120 710.420 C103.090 710.400 103.100 710.290 103.140 710.270 C103.390 710.290 103.590 710.290 103.840 710.290 L104.960 710.290 C105.340 710.290 105.690 710.290 105.760 710.270 C105.800 710.380 105.830 710.800 105.860 711.070 C105.830 711.100 105.740 711.110 105.710 711.080 C105.620 710.800 105.560 710.590 105.250 710.510 C105.130 710.480 104.940 710.480 104.680 710.480 L104.250 710.480 C104.070 710.480 104.070 710.490 104.070 710.710 L104.070 711.910 C104.070 712.080 104.090 712.080 104.270 712.080 L104.610 712.080 C104.860 712.080 105.050 712.060 105.120 712.040 C105.190 712.010 105.230 711.980 105.260 711.830 L105.310 711.580 C105.340 711.550 105.440 711.550 105.460 711.590 C105.460 711.730 105.440 711.970 105.440 712.190 C105.440 712.410 105.460 712.630 105.460 712.770 C105.440 712.810 105.340 712.810 105.310 712.770 L105.250 712.540 C105.230 712.430 105.190 712.340 105.070 712.310 C104.990 712.290 104.840 712.280 104.610 712.280 L104.270 712.280 C104.090 712.280 104.070 712.290 104.070 712.440 L104.070 713.280 C104.070 713.600 104.090 713.800 104.180 713.900 C104.250 713.970 104.380 714.040 104.900 714.040 C105.360 714.040 105.530 714.020 105.670 713.950 C105.770 713.890 105.930 713.680 106.090 713.370 C106.130 713.340 106.210 713.360 106.240 713.410 C106.190 713.620 106.050 714.080 105.970 714.240 C105.430 714.230 104.900 714.220 104.370 714.220 L103.840 714.220 C103.580 714.220 103.380 714.230 103.030 714.240 C102.990 714.220 102.980 714.130 103.020 714.090 L103.210 714.080 C103.550 714.040 103.580 713.960 103.580 713.330 L103.580 711.190 "/>
  <path style="fill:rgb(255,255,255);stroke:none;stroke-width:1.0;" d="M107.870 714.320 C107.370 714.320 107.050 714.160 106.940 714.100 C106.870 713.970 106.790 713.550 106.780 713.270 C106.810 713.220 106.900 713.210 106.920 713.250 C107.010 713.550 107.260 714.130 107.950 714.130 C108.450 714.130 108.690 713.810 108.690 713.450 C108.690 713.190 108.640 712.890 108.200 712.620 L107.640 712.250 C107.340 712.050 106.990 711.710 106.990 711.220 C106.990 710.660 107.440 710.200 108.210 710.200 C108.390 710.200 108.610 710.230 108.760 710.270 C108.840 710.300 108.920 710.310 108.970 710.310 C109.020 710.450 109.080 710.790 109.080 711.040 C109.050 711.070 108.960 711.090 108.930 711.050 C108.850 710.770 108.690 710.380 108.120 710.380 C107.540 710.380 107.410 710.770 107.410 711.040 C107.410 711.390 107.690 711.640 107.920 711.770 L108.390 712.070 C108.770 712.310 109.140 712.650 109.140 713.220 C109.140 713.870 108.640 714.320 107.870 714.320 "/>
  <path style="fill:rgb(255,255,255);stroke:none;stroke-width:1.0;" d="M110.990 713.330 C110.990 713.960 111.010 714.030 111.390 714.080 L111.550 714.090 C111.580 714.120 111.570 714.220 111.540 714.240 C111.200 714.230 111.000 714.220 110.760 714.220 C110.510 714.220 110.300 714.230 110.040 714.240 C110.000 714.220 109.990 714.130 110.030 714.090 L110.150 714.080 C110.490 714.030 110.510 713.960 110.510 713.330 L110.510 711.130 C110.510 710.630 110.490 710.520 110.230 710.500 L110.010 710.470 C109.970 710.430 109.980 710.350 110.030 710.320 C110.340 710.280 110.710 710.270 111.200 710.270 C111.700 710.270 112.070 710.340 112.350 710.510 C112.620 710.680 112.820 711.000 112.820 711.410 C112.820 711.950 112.480 712.230 112.230 712.350 C111.970 712.480 111.650 712.530 111.400 712.530 C111.360 712.520 111.360 712.430 111.400 712.410 C112.040 712.290 112.280 711.930 112.280 711.410 C112.280 710.830 111.940 710.460 111.320 710.460 C111.000 710.460 110.990 710.480 110.990 710.670 L110.990 713.330 "/>
  <path style="fill:rgb(255,255,255);stroke:none;stroke-width:1.0;" d="M113.910 711.200 C113.910 710.570 113.900 710.460 113.550 710.430 L113.400 710.420 C113.360 710.400 113.380 710.290 113.410 710.270 C113.710 710.290 113.910 710.290 114.160 710.290 C114.400 710.290 114.600 710.290 114.900 710.270 C114.940 710.290 114.950 710.400 114.910 710.420 L114.760 710.430 C114.410 710.460 114.400 710.570 114.400 711.200 L114.400 713.320 C114.400 713.950 114.410 714.030 114.760 714.080 L114.910 714.090 C114.950 714.120 114.940 714.220 114.900 714.240 C114.600 714.230 114.400 714.220 114.160 714.220 C113.910 714.220 113.710 714.230 113.410 714.240 C113.380 714.220 113.360 714.130 113.400 714.090 L113.550 714.080 C113.900 714.030 113.910 713.950 113.910 713.320 L113.910 711.200 "/>
  <path style="fill:rgb(255,255,255);stroke:none;stroke-width:1.0;" d="M116.710 712.040 C116.710 712.150 116.710 712.220 116.730 712.240 C116.750 712.260 116.830 712.270 117.140 712.270 C117.350 712.270 117.580 712.250 117.750 712.110 C117.910 711.990 118.050 711.780 118.050 711.380 C118.050 710.900 117.760 710.460 117.100 710.460 C116.730 710.460 116.710 710.480 116.710 710.650 L116.710 712.040 ZM116.220 711.190 C116.220 710.630 116.210 710.520 115.960 710.490 L115.770 710.470 C115.730 710.440 115.730 710.340 115.780 710.320 C116.110 710.290 116.520 710.270 117.100 710.270 C117.470 710.270 117.820 710.300 118.100 710.450 C118.380 710.600 118.590 710.870 118.590 711.290 C118.590 711.850 118.140 712.160 117.850 712.280 C117.820 712.320 117.850 712.380 117.880 712.420 C118.350 713.190 118.670 713.670 119.070 714.010 C119.170 714.100 119.320 714.160 119.480 714.180 C119.510 714.190 119.520 714.230 119.490 714.260 C119.440 714.280 119.340 714.290 119.230 714.290 C118.720 714.290 118.420 714.140 118.000 713.540 C117.840 713.320 117.600 712.910 117.410 712.640 C117.320 712.510 117.230 712.450 116.990 712.450 C116.720 712.450 116.710 712.450 116.710 712.580 L116.710 713.330 C116.710 713.960 116.720 714.030 117.070 714.070 L117.190 714.090 C117.230 714.120 117.220 714.220 117.180 714.240 C116.910 714.230 116.710 714.220 116.470 714.220 C116.220 714.220 116.010 714.230 115.730 714.240 C115.690 714.220 115.680 714.130 115.710 714.090 L115.860 714.070 C116.210 714.030 116.220 713.960 116.220 713.330 L116.220 711.190 "/>
  <path style="fill:rgb(255,255,255);stroke:none;stroke-width:1.0;" d="M120.540 712.310 C120.500 712.450 120.500 712.450 120.670 712.450 L121.400 712.450 C121.570 712.450 121.580 712.430 121.530 712.270 L121.210 711.300 C121.160 711.160 121.110 710.990 121.070 710.920 L121.060 710.920 C121.040 710.950 120.980 711.100 120.920 711.270 L120.540 712.310 ZM121.720 712.840 C121.680 712.710 121.660 712.690 121.480 712.690 L120.580 712.690 C120.430 712.690 120.390 712.710 120.350 712.830 L120.140 713.460 C120.060 713.730 120.010 713.890 120.010 713.960 C120.010 714.030 120.040 714.060 120.190 714.080 L120.380 714.090 C120.420 714.120 120.420 714.220 120.370 714.240 C120.210 714.230 120.030 714.230 119.750 714.220 C119.560 714.220 119.340 714.230 119.180 714.240 C119.140 714.220 119.130 714.120 119.170 714.090 L119.360 714.080 C119.510 714.060 119.640 714.000 119.720 713.780 C119.830 713.510 120.000 713.120 120.240 712.450 L120.850 710.850 C120.940 710.630 120.970 710.520 120.950 710.420 C121.100 710.380 121.200 710.270 121.260 710.200 C121.300 710.200 121.340 710.210 121.350 710.250 C121.430 710.510 121.530 710.790 121.610 711.050 L122.430 713.440 C122.600 713.960 122.680 714.040 122.940 714.080 L123.100 714.090 C123.140 714.120 123.130 714.220 123.100 714.240 C122.850 714.230 122.640 714.220 122.380 714.220 C122.090 714.220 121.860 714.230 121.690 714.240 C121.640 714.220 121.640 714.120 121.680 714.090 L121.850 714.080 C121.980 714.060 122.060 714.030 122.060 713.970 C122.060 713.900 122.030 713.790 121.990 713.650 L121.720 712.840 "/>
  <path style="fill:rgb(255,255,255);stroke:none;stroke-width:1.0;" d="M125.020 713.330 C125.020 713.960 125.030 714.050 125.380 714.080 L125.570 714.090 C125.600 714.120 125.590 714.220 125.560 714.240 C125.220 714.230 125.010 714.220 124.780 714.220 C124.540 714.220 124.330 714.230 123.950 714.240 C123.910 714.220 123.900 714.120 123.950 714.090 L124.160 714.080 C124.500 714.050 124.530 713.960 124.530 713.330 L124.530 710.670 C124.530 710.480 124.530 710.480 124.350 710.480 L124.030 710.480 C123.770 710.480 123.440 710.490 123.290 710.630 C123.150 710.760 123.090 710.890 123.030 711.040 C122.980 711.070 122.900 711.040 122.870 711.000 C122.970 710.730 123.060 710.350 123.100 710.110 C123.120 710.100 123.190 710.090 123.210 710.110 C123.250 710.300 123.440 710.290 123.720 710.290 L126.130 710.290 C126.450 710.290 126.500 710.280 126.590 710.130 C126.620 710.110 126.690 710.120 126.700 710.140 C126.640 710.390 126.590 710.870 126.610 711.050 C126.590 711.100 126.490 711.100 126.460 711.060 C126.440 710.910 126.400 710.690 126.310 710.630 C126.170 710.520 125.940 710.480 125.620 710.480 L125.190 710.480 C125.010 710.480 125.020 710.480 125.020 710.680 L125.020 713.330 "/>
  <path style="fill:rgb(255,255,255);stroke:none;stroke-width:1.0;" d="M130.320 712.420 C130.320 711.440 129.890 710.380 128.750 710.380 C128.130 710.380 127.330 710.800 127.330 712.110 C127.330 712.990 127.760 714.140 128.930 714.140 C129.650 714.140 130.320 713.600 130.320 712.420 ZM126.730 712.300 C126.730 711.110 127.630 710.200 128.850 710.200 C130.230 710.200 130.920 711.190 130.920 712.240 C130.920 713.450 130.000 714.320 128.850 714.320 C127.530 714.320 126.730 713.370 126.730 712.300 "/>
  <path style="fill:rgb(255,255,255);stroke:none;stroke-width:1.0;" d="M132.520 712.040 C132.520 712.150 132.520 712.220 132.530 712.240 C132.550 712.260 132.640 712.270 132.950 712.270 C133.160 712.270 133.390 712.250 133.560 712.110 C133.720 711.990 133.860 711.780 133.860 711.380 C133.860 710.900 133.570 710.460 132.900 710.460 C132.530 710.460 132.520 710.480 132.520 710.650 L132.520 712.040 ZM132.030 711.190 C132.030 710.630 132.010 710.520 131.770 710.490 L131.580 710.470 C131.530 710.440 131.530 710.340 131.580 710.320 C131.920 710.290 132.330 710.270 132.910 710.270 C133.280 710.270 133.630 710.300 133.900 710.450 C134.190 710.600 134.400 710.870 134.400 711.290 C134.400 711.850 133.950 712.160 133.650 712.280 C133.620 712.320 133.650 712.380 133.680 712.420 C134.160 713.190 134.480 713.670 134.880 714.010 C134.980 714.100 135.130 714.160 135.290 714.180 C135.320 714.190 135.330 714.230 135.300 714.260 C135.240 714.280 135.150 714.290 135.040 714.290 C134.530 714.290 134.220 714.140 133.800 713.540 C133.650 713.320 133.400 712.910 133.220 712.640 C133.130 712.510 133.030 712.450 132.800 712.450 C132.530 712.450 132.520 712.450 132.520 712.580 L132.520 713.330 C132.520 713.960 132.530 714.030 132.870 714.070 L133.000 714.090 C133.030 714.120 133.020 714.220 132.990 714.240 C132.720 714.230 132.520 714.220 132.280 714.220 C132.030 714.220 131.820 714.230 131.530 714.240 C131.500 714.220 131.490 714.130 131.520 714.090 L131.670 714.070 C132.020 714.030 132.030 713.960 132.030 713.330 L132.030 711.190 "/>
  <path style="fill:rgb(255,255,255);stroke:none;stroke-width:1.0;" d="M19.670 700.160 M137.090 713.360 C137.090 714.000 137.130 714.100 137.450 714.120 L137.680 714.140 C137.710 714.170 137.700 714.270 137.660 714.290 C137.290 714.270 137.090 714.270 136.850 714.270 C136.600 714.270 136.390 714.270 136.070 714.290 C136.040 714.270 136.030 714.170 136.060 714.140 L136.250 714.120 C136.590 714.080 136.600 714.000 136.600 713.360 L136.600 713.060 C136.600 712.730 136.590 712.650 136.410 712.320 L135.710 710.950 C135.510 710.560 135.420 710.530 135.240 710.500 L135.070 710.470 C135.040 710.430 135.040 710.340 135.090 710.320 C135.280 710.330 135.490 710.340 135.780 710.340 C136.050 710.340 136.260 710.330 136.410 710.320 C136.470 710.340 136.470 710.430 136.430 710.470 L136.350 710.480 C136.150 710.510 136.100 710.540 136.100 710.590 C136.100 710.650 136.260 710.990 136.290 711.050 C136.510 711.490 136.730 711.960 136.960 712.370 C137.150 712.050 137.340 711.710 137.520 711.360 C137.690 711.050 137.910 710.650 137.910 710.580 C137.910 710.540 137.800 710.500 137.660 710.480 L137.550 710.470 C137.510 710.430 137.510 710.340 137.560 710.320 C137.780 710.330 137.950 710.340 138.130 710.340 C138.320 710.340 138.490 710.330 138.690 710.320 C138.740 710.350 138.740 710.430 138.700 710.470 L138.530 710.500 C138.220 710.550 138.040 710.930 137.750 711.440 L137.370 712.090 C137.110 712.540 137.090 712.590 137.090 713.050 L137.090 713.360 "/>
  <path style="fill:rgb(255,255,255);stroke:none;stroke-width:1.0;" d="M100.020 720.890 C99.520 720.890 99.200 720.740 99.090 720.670 C99.020 720.540 98.940 720.120 98.930 719.840 C98.960 719.800 99.050 719.790 99.070 719.820 C99.160 720.130 99.400 720.710 100.090 720.710 C100.600 720.710 100.840 720.380 100.840 720.020 C100.840 719.760 100.790 719.470 100.350 719.190 L99.780 718.820 C99.490 718.620 99.140 718.280 99.140 717.800 C99.140 717.230 99.580 716.770 100.360 716.770 C100.540 716.770 100.750 716.810 100.910 716.850 C100.990 716.870 101.070 716.880 101.120 716.880 C101.170 717.030 101.230 717.360 101.230 717.610 C101.200 717.650 101.110 717.660 101.080 717.630 C101.000 717.340 100.840 716.960 100.270 716.960 C99.680 716.960 99.560 717.340 99.560 717.620 C99.560 717.960 99.840 718.210 100.060 718.350 L100.540 718.650 C100.920 718.880 101.290 719.220 101.290 719.790 C101.290 720.450 100.790 720.890 100.020 720.890 "/>
  <path style="fill:rgb(255,255,255);stroke:none;stroke-width:1.0;" d="M105.640 719.000 C105.640 718.020 105.200 716.960 104.070 716.960 C103.450 716.960 102.640 717.380 102.640 718.680 C102.640 719.560 103.070 720.710 104.240 720.710 C104.960 720.710 105.640 720.170 105.640 719.000 ZM102.050 718.870 C102.050 717.680 102.940 716.770 104.170 716.770 C105.540 716.770 106.230 717.770 106.230 718.810 C106.230 720.020 105.320 720.890 104.170 720.890 C102.840 720.890 102.050 719.950 102.050 718.870 "/>
  <path style="fill:rgb(255,255,255);stroke:none;stroke-width:1.0;" d="M107.640 717.280 C108.070 716.940 108.630 716.770 109.240 716.770 C109.570 716.770 110.020 716.840 110.300 716.910 C110.370 716.930 110.410 716.950 110.460 716.940 C110.470 717.070 110.500 717.450 110.550 717.810 C110.520 717.850 110.430 717.860 110.390 717.830 C110.300 717.420 110.030 716.960 109.170 716.960 C108.260 716.960 107.480 717.530 107.480 718.770 C107.480 720.020 108.270 720.710 109.250 720.710 C110.020 720.710 110.360 720.210 110.490 719.860 C110.540 719.830 110.630 719.840 110.650 719.880 C110.610 720.190 110.450 720.580 110.360 720.700 C110.290 720.710 110.220 720.730 110.150 720.760 C110.020 720.800 109.600 720.890 109.210 720.890 C108.680 720.890 108.170 720.790 107.730 720.490 C107.260 720.170 106.890 719.630 106.890 718.860 C106.890 718.200 107.180 717.630 107.640 717.280 "/>
  <path style="fill:rgb(255,255,255);stroke:none;stroke-width:1.0;" d="M111.830 717.770 C111.830 717.140 111.820 717.040 111.470 717.010 L111.320 717.000 C111.280 716.970 111.290 716.870 111.330 716.850 C111.630 716.860 111.830 716.870 112.080 716.870 C112.320 716.870 112.520 716.860 112.820 716.850 C112.850 716.870 112.860 716.970 112.830 717.000 L112.680 717.010 C112.330 717.040 112.320 717.140 112.320 717.770 L112.320 719.890 C112.320 720.520 112.330 720.610 112.680 720.650 L112.830 720.670 C112.860 720.690 112.850 720.800 112.820 720.820 C112.520 720.800 112.320 720.800 112.080 720.800 C111.830 720.800 111.630 720.800 111.330 720.820 C111.290 720.800 111.280 720.700 111.320 720.670 L111.470 720.650 C111.820 720.610 111.830 720.520 111.830 719.890 L111.830 717.770 "/>
  <path style="fill:rgb(255,255,255);stroke:none;stroke-width:1.0;" d="M114.260 717.760 C114.260 717.140 114.240 717.050 113.900 717.010 L113.800 717.000 C113.760 716.970 113.780 716.870 113.810 716.850 C114.070 716.860 114.270 716.870 114.510 716.870 L115.630 716.870 C116.010 716.870 116.360 716.870 116.440 716.850 C116.470 716.950 116.510 717.380 116.530 717.640 C116.510 717.680 116.410 717.690 116.380 717.650 C116.290 717.370 116.240 717.160 115.930 717.090 C115.810 717.060 115.610 717.050 115.350 717.050 L114.920 717.050 C114.740 717.050 114.740 717.060 114.740 717.290 L114.740 718.480 C114.740 718.650 114.760 718.650 114.940 718.650 L115.290 718.650 C115.540 718.650 115.720 718.640 115.790 718.610 C115.860 718.590 115.910 718.550 115.940 718.400 L115.980 718.160 C116.010 718.120 116.120 718.120 116.140 718.160 C116.140 718.310 116.120 718.540 116.120 718.770 C116.120 718.980 116.140 719.210 116.140 719.340 C116.120 719.380 116.010 719.380 115.980 719.340 L115.930 719.110 C115.910 719.010 115.860 718.920 115.740 718.890 C115.660 718.860 115.520 718.860 115.290 718.860 L114.940 718.860 C114.760 718.860 114.740 718.860 114.740 719.020 L114.740 719.860 C114.740 720.170 114.760 720.380 114.860 720.480 C114.930 720.550 115.050 720.610 115.580 720.610 C116.040 720.610 116.210 720.590 116.340 720.520 C116.450 720.460 116.610 720.260 116.760 719.950 C116.810 719.920 116.890 719.930 116.910 719.990 C116.870 720.200 116.720 720.660 116.650 720.820 C116.110 720.800 115.580 720.800 115.050 720.800 L114.510 720.800 C114.260 720.800 114.060 720.800 113.700 720.820 C113.670 720.800 113.660 720.700 113.690 720.670 L113.890 720.650 C114.230 720.620 114.260 720.530 114.260 719.900 L114.260 717.760 "/>
  <path style="fill:rgb(255,255,255);stroke:none;stroke-width:1.0;" d="M119.370 719.910 C119.370 720.530 119.380 720.620 119.730 720.650 L119.920 720.670 C119.960 720.690 119.940 720.800 119.910 720.820 C119.570 720.800 119.370 720.800 119.130 720.800 C118.890 720.800 118.680 720.800 118.300 720.820 C118.260 720.800 118.250 720.700 118.300 720.670 L118.510 720.650 C118.850 720.620 118.880 720.530 118.880 719.910 L118.880 717.240 C118.880 717.060 118.880 717.050 118.710 717.050 L118.380 717.050 C118.120 717.050 117.790 717.060 117.650 717.200 C117.500 717.330 117.440 717.460 117.380 717.610 C117.330 717.650 117.250 717.620 117.220 717.570 C117.320 717.300 117.410 716.920 117.450 716.680 C117.470 716.670 117.540 716.660 117.560 716.680 C117.600 716.870 117.790 716.870 118.070 716.870 L120.480 716.870 C120.800 716.870 120.850 716.850 120.940 716.700 C120.970 716.690 121.040 716.690 121.050 716.720 C120.990 716.960 120.940 717.440 120.960 717.620 C120.940 717.670 120.830 717.670 120.810 717.640 C120.790 717.490 120.750 717.270 120.660 717.200 C120.520 717.100 120.290 717.050 119.970 717.050 L119.540 717.050 C119.370 717.050 119.370 717.060 119.370 717.260 L119.370 719.910 "/>
  <path style="fill:rgb(255,255,255);stroke:none;stroke-width:1.0;" d="M123.420 719.890 C123.420 720.530 123.460 720.630 123.780 720.650 L124.000 720.670 C124.040 720.700 124.030 720.800 123.990 720.820 C123.620 720.800 123.420 720.800 123.180 720.800 C122.930 720.800 122.720 720.800 122.400 720.820 C122.360 720.800 122.350 720.700 122.390 720.670 L122.570 720.650 C122.920 720.610 122.930 720.530 122.930 719.890 L122.930 719.590 C122.930 719.260 122.910 719.180 122.740 718.850 L122.040 717.480 C121.840 717.090 121.750 717.060 121.570 717.030 L121.400 717.000 C121.360 716.960 121.370 716.870 121.410 716.850 C121.610 716.860 121.820 716.870 122.110 716.870 C122.380 716.870 122.590 716.860 122.740 716.850 C122.790 716.870 122.790 716.960 122.760 717.000 L122.680 717.010 C122.470 717.040 122.430 717.070 122.430 717.120 C122.430 717.180 122.580 717.520 122.610 717.580 C122.840 718.020 123.060 718.490 123.290 718.900 C123.470 718.580 123.670 718.240 123.850 717.890 C124.010 717.580 124.240 717.180 124.240 717.100 C124.240 717.070 124.130 717.030 123.990 717.010 L123.880 717.000 C123.840 716.960 123.840 716.870 123.890 716.850 C124.100 716.860 124.280 716.870 124.460 716.870 C124.650 716.870 124.810 716.860 125.010 716.850 C125.060 716.880 125.070 716.960 125.030 717.000 L124.860 717.030 C124.550 717.080 124.370 717.460 124.070 717.970 L123.700 718.620 C123.440 719.070 123.420 719.120 123.420 719.580 L123.420 719.890 "/>
  <path style="fill:rgb(255,255,255);stroke:none;stroke-width:1.0;" d="M51.400 720.830 C51.260 720.830 51.160 720.720 51.160 720.590 L51.160 703.940 C51.160 703.800 51.260 703.700 51.400 703.700 L61.540 703.700 C61.680 703.700 61.780 703.800 61.780 703.940 L61.780 705.090 C61.780 705.230 61.680 705.330 61.540 705.330 L53.220 705.330 C53.090 705.330 52.990 705.440 52.990 705.570 L52.990 711.130 C52.990 711.270 53.090 711.370 53.220 711.370 L60.250 711.370 C60.380 711.370 60.490 711.480 60.490 711.610 L60.490 712.770 C60.490 712.900 60.380 713.010 60.250 713.010 L53.220 713.010 C53.090 713.010 52.990 713.120 52.990 713.250 L52.990 718.950 C52.990 719.080 53.090 719.190 53.220 719.190 L61.540 719.190 C61.680 719.190 61.780 719.300 61.780 719.430 L61.780 720.590 C61.780 720.720 61.680 720.830 61.540 720.830 L51.400 720.830 "/>
  <path style="fill:rgb(255,255,255);stroke:none;stroke-width:1.0;" d="M71.500 705.330 L67.170 705.330 C67.040 705.330 66.930 705.440 66.930 705.570 L66.930 711.380 C66.930 711.510 67.040 711.610 67.170 711.610 L71.260 711.610 C71.390 711.610 71.560 711.610 71.780 711.610 C71.780 711.610 74.910 711.650 74.910 708.480 C74.910 706.390 73.490 705.330 71.500 705.330 ZM75.180 720.830 C75.040 720.830 74.890 720.730 74.830 720.620 L71.150 713.440 C71.090 713.320 70.930 713.230 70.800 713.230 L67.170 713.230 C67.040 713.230 66.930 713.330 66.930 713.470 L66.930 720.590 C66.930 720.720 66.820 720.830 66.690 720.830 L65.340 720.830 C65.210 720.830 65.100 720.720 65.100 720.590 L65.100 703.940 C65.100 703.810 65.210 703.700 65.340 703.700 L71.430 703.700 C71.560 703.700 71.830 703.670 71.960 703.710 C71.960 703.710 76.740 703.720 76.740 708.460 C76.740 710.960 75.220 712.600 73.010 713.060 L76.970 720.620 C77.030 720.730 76.970 720.830 76.840 720.830 L75.180 720.830 "/>
  <path style="fill:rgb(255,255,255);stroke:none;stroke-width:1.0;" d="M53.210 728.590 C53.080 728.290 52.780 728.110 52.430 728.110 C52.080 728.110 51.770 728.290 51.640 728.590 C51.570 728.780 51.550 728.850 51.540 729.130 L53.320 729.130 C53.300 728.860 53.300 728.760 53.210 728.590 ZM52.520 730.510 C52.880 730.510 53.100 730.410 53.360 730.160 L53.600 730.340 C53.290 730.630 53.010 730.780 52.500 730.780 C51.670 730.780 51.220 730.270 51.220 729.310 C51.220 728.380 51.670 727.840 52.430 727.840 C53.190 727.840 53.640 728.360 53.640 729.240 L53.640 729.380 L51.540 729.380 C51.540 730.110 51.880 730.510 52.520 730.510 "/>
  <path style="fill:rgb(255,255,255);stroke:none;stroke-width:1.0;" d="M56.140 730.750 L55.030 727.880 L55.390 727.880 L56.300 730.390 L57.210 727.880 L57.560 727.880 L56.450 730.750 L56.140 730.750 "/>
  <path style="fill:rgb(255,255,255);stroke:none;stroke-width:1.0;" d="M60.960 728.590 C60.820 728.290 60.520 728.110 60.170 728.110 C59.820 728.110 59.520 728.290 59.380 728.590 C59.320 728.780 59.300 728.850 59.280 729.130 L61.060 729.130 C61.040 728.860 61.040 728.760 60.960 728.590 ZM60.260 730.510 C60.620 730.510 60.840 730.410 61.100 730.160 L61.340 730.340 C61.030 730.630 60.750 730.780 60.240 730.780 C59.410 730.780 58.960 730.270 58.960 729.310 C58.960 728.380 59.410 727.840 60.170 727.840 C60.930 727.840 61.380 728.360 61.380 729.240 L61.380 729.380 L59.280 729.380 C59.280 730.110 59.620 730.510 60.260 730.510 "/>
  <path style="fill:rgb(255,255,255);stroke:none;stroke-width:1.0;" d="M64.490 728.110 C63.970 728.110 63.680 728.520 63.680 728.980 L63.680 730.750 L63.360 730.750 L63.360 727.880 L63.680 727.880 L63.680 728.260 C63.850 727.990 64.210 727.840 64.570 727.840 C64.860 727.840 65.070 727.910 65.290 728.120 L65.060 728.340 C64.880 728.160 64.740 728.110 64.490 728.110 "/>
  <path style="fill:rgb(255,255,255);stroke:none;stroke-width:1.0;" d="M67.260 731.860 C67.110 732.000 66.890 732.040 66.690 732.040 L66.540 732.040 L66.540 731.780 L66.660 731.780 C67.000 731.780 67.100 731.670 67.210 731.390 L67.450 730.750 L66.350 727.880 L66.700 727.880 L67.610 730.390 L68.520 727.880 L68.870 727.880 L67.470 731.530 C67.410 731.680 67.340 731.790 67.260 731.860 "/>
  <path style="fill:rgb(255,255,255);stroke:none;stroke-width:1.0;" d="M74.230 728.110 C73.490 728.110 73.380 728.710 73.380 729.310 C73.380 729.910 73.490 730.520 74.230 730.520 C74.970 730.520 75.080 729.910 75.080 729.310 C75.080 728.710 74.970 728.110 74.230 728.110 ZM75.020 730.530 C74.860 730.680 74.600 730.780 74.270 730.780 C73.930 730.780 73.650 730.710 73.380 730.380 L73.380 730.750 L73.060 730.750 L73.060 726.510 L73.380 726.510 L73.380 728.250 C73.650 727.920 73.930 727.840 74.270 727.840 C74.600 727.840 74.860 727.940 75.020 728.090 C75.320 728.380 75.410 728.860 75.410 729.310 C75.410 729.770 75.320 730.240 75.020 730.530 "/>
  <path style="fill:rgb(255,255,255);stroke:none;stroke-width:1.0;" d="M78.520 728.110 C78.000 728.110 77.710 728.520 77.710 728.980 L77.710 730.750 L77.390 730.750 L77.390 727.880 L77.710 727.880 L77.710 728.260 C77.890 727.990 78.230 727.840 78.600 727.840 C78.890 727.840 79.100 727.910 79.320 728.120 L79.090 728.340 C78.910 728.160 78.770 728.110 78.520 728.110 "/>
  <path style="fill:rgb(255,255,255);stroke:none;stroke-width:1.0;" d="M82.520 728.590 C82.400 728.290 82.090 728.110 81.740 728.110 C81.390 728.110 81.090 728.290 80.960 728.590 C80.890 728.780 80.870 728.850 80.850 729.130 L82.630 729.130 C82.610 728.860 82.610 728.760 82.520 728.590 ZM81.830 730.510 C82.190 730.510 82.410 730.410 82.670 730.160 L82.910 730.340 C82.600 730.630 82.320 730.780 81.820 730.780 C80.980 730.780 80.530 730.270 80.530 729.310 C80.530 728.380 80.980 727.840 81.740 727.840 C82.500 727.840 82.950 728.360 82.950 729.240 L82.950 729.380 L80.850 729.380 C80.850 730.110 81.190 730.510 81.830 730.510 "/>
  <path style="fill:rgb(255,255,255);stroke:none;stroke-width:1.0;" d="M85.760 729.380 C85.250 729.380 84.990 729.570 84.990 729.960 C84.990 730.340 85.230 730.520 85.780 730.520 C86.060 730.520 86.320 730.490 86.540 730.290 C86.650 730.190 86.710 730.010 86.710 729.750 L86.710 729.380 L85.760 729.380 ZM86.710 730.460 C86.450 730.710 86.210 730.780 85.780 730.780 C85.330 730.780 85.090 730.710 84.890 730.520 C84.750 730.380 84.670 730.170 84.670 729.960 C84.670 729.440 85.070 729.140 85.730 729.140 L86.710 729.140 L86.710 728.810 C86.710 728.350 86.470 728.110 85.850 728.110 C85.420 728.110 85.210 728.210 85.020 728.470 L84.790 728.280 C85.040 727.940 85.360 727.840 85.850 727.840 C86.650 727.840 87.030 728.180 87.030 728.780 L87.030 730.750 L86.710 730.750 L86.710 730.460 "/>
  <path style="fill:rgb(255,255,255);stroke:none;stroke-width:1.0;" d="M89.240 730.000 L89.240 728.100 L88.820 728.100 L88.820 727.880 L89.240 727.880 L89.240 726.960 L89.560 726.960 L89.560 727.880 L90.240 727.880 L90.240 728.100 L89.560 728.100 L89.560 730.010 C89.560 730.310 89.700 730.480 90.020 730.480 L90.240 730.480 L90.240 730.750 L89.960 730.750 C89.490 730.750 89.240 730.430 89.240 730.000 "/>
  <path style="fill:rgb(255,255,255);stroke:none;stroke-width:1.0;" d="M94.150 728.970 C94.150 728.410 93.860 728.110 93.320 728.110 C92.770 728.110 92.460 728.420 92.460 728.970 L92.460 730.740 L92.150 730.740 L92.150 726.510 L92.460 726.510 L92.460 728.220 C92.690 727.970 92.990 727.840 93.360 727.840 C94.050 727.840 94.470 728.250 94.470 728.910 L94.470 730.740 L94.150 730.740 L94.150 728.970 "/>
  <path style="fill:rgb(255,255,255);stroke:none;stroke-width:1.0;" d="M100.300 730.780 C99.460 730.780 98.960 730.220 98.960 729.310 C98.960 728.400 99.460 727.840 100.300 727.840 C100.710 727.840 100.970 727.940 101.290 728.280 L101.080 728.470 C100.820 728.200 100.620 728.110 100.300 728.110 C99.950 728.110 99.670 728.230 99.490 728.490 C99.340 728.700 99.280 728.930 99.280 729.310 C99.280 729.700 99.340 729.930 99.490 730.130 C99.670 730.390 99.950 730.520 100.300 730.520 C100.620 730.520 100.820 730.420 101.080 730.150 L101.290 730.340 C100.970 730.680 100.710 730.780 100.300 730.780 "/>
  <path style="fill:rgb(255,255,255);stroke:none;stroke-width:1.0;" d="M104.730 728.350 C104.560 728.190 104.350 728.110 104.110 728.110 C103.860 728.110 103.650 728.190 103.480 728.350 C103.230 728.590 103.210 728.980 103.210 729.310 C103.210 729.640 103.230 730.030 103.480 730.270 C103.650 730.430 103.860 730.520 104.110 730.520 C104.350 730.520 104.560 730.430 104.730 730.270 C104.980 730.030 105.000 729.640 105.000 729.310 C105.000 728.980 104.980 728.590 104.730 728.350 ZM104.950 730.470 C104.730 730.670 104.450 730.780 104.110 730.780 C103.760 730.780 103.480 730.670 103.260 730.470 C102.940 730.160 102.890 729.720 102.890 729.310 C102.890 728.900 102.940 728.460 103.260 728.160 C103.480 727.950 103.760 727.840 104.110 727.840 C104.450 727.840 104.730 727.950 104.950 728.160 C105.270 728.460 105.320 728.900 105.320 729.310 C105.320 729.720 105.270 730.160 104.950 730.470 "/>
  <path style="fill:rgb(255,255,255);stroke:none;stroke-width:1.0;" d="M109.280 730.410 C109.050 730.660 108.760 730.780 108.390 730.780 C108.060 730.780 107.790 730.690 107.590 730.510 C107.380 730.320 107.270 730.050 107.270 729.710 L107.270 727.880 L107.590 727.880 L107.590 729.660 C107.590 730.210 107.880 730.520 108.430 730.520 C108.970 730.520 109.280 730.210 109.280 729.660 L109.280 727.880 L109.600 727.880 L109.600 730.750 L109.280 730.750 L109.280 730.410 "/>
  <path style="fill:rgb(255,255,255);stroke:none;stroke-width:1.0;" d="M113.770 728.970 C113.770 728.410 113.480 728.110 112.940 728.110 C112.390 728.110 112.080 728.420 112.080 728.970 L112.080 730.740 L111.760 730.740 L111.760 727.880 L112.080 727.880 L112.080 728.220 C112.310 727.970 112.600 727.840 112.970 727.840 C113.310 727.840 113.580 727.930 113.780 728.110 C113.990 728.310 114.090 728.570 114.090 728.910 L114.090 730.740 L113.770 730.740 L113.770 728.970 "/>
  <path style="fill:rgb(255,255,255);stroke:none;stroke-width:1.0;" d="M116.290 730.000 L116.290 728.100 L115.870 728.100 L115.870 727.880 L116.290 727.880 L116.290 726.960 L116.610 726.960 L116.610 727.880 L117.290 727.880 L117.290 728.100 L116.610 728.100 L116.610 730.010 C116.610 730.310 116.750 730.480 117.070 730.480 L117.290 730.480 L117.290 730.750 L117.020 730.750 C116.540 730.750 116.290 730.430 116.290 730.000 "/>
  <path style="fill:rgb(255,255,255);stroke:none;stroke-width:1.0;" d="M120.120 730.780 C119.600 730.780 119.210 730.650 118.900 730.370 L119.120 730.160 C119.350 730.400 119.690 730.520 120.110 730.520 C120.710 730.520 121.020 730.320 121.020 729.930 C121.020 729.630 120.850 729.490 120.440 729.450 L119.940 729.410 C119.330 729.360 119.030 729.110 119.030 728.660 C119.030 728.160 119.460 727.840 120.120 727.840 C120.540 727.840 120.910 727.950 121.180 728.150 L120.970 728.350 C120.730 728.190 120.450 728.100 120.120 728.100 C119.610 728.100 119.350 728.300 119.350 728.660 C119.350 728.960 119.540 729.100 119.960 729.140 L120.450 729.180 C120.950 729.230 121.340 729.370 121.340 729.930 C121.340 730.460 120.870 730.780 120.120 730.780 "/>
  <path style="fill:rgb(211,17,69);stroke:none;stroke-width:1.0;" d="M30.810 700.160 C24.660 700.160 19.670 705.150 19.670 711.310 C19.670 717.460 24.660 722.460 30.810 722.460 C36.970 722.460 41.950 717.460 41.950 711.310 C41.950 705.150 36.970 700.160 30.810 700.160 "/>
  <path style="fill:rgb(255,255,255);stroke:none;stroke-width:1.0;" d="M31.670 702.770 C31.670 702.560 31.590 702.340 31.430 702.170 C31.260 702.010 31.040 701.920 30.820 701.920 C30.600 701.920 30.390 702.010 30.220 702.170 C30.060 702.340 29.970 702.560 29.980 702.770 C29.970 702.990 30.060 703.210 30.220 703.380 C30.390 703.540 30.600 703.630 30.820 703.630 C31.040 703.630 31.260 703.540 31.420 703.380 L31.360 703.310 L31.430 703.380 C31.590 703.210 31.670 702.990 31.670 702.770 "/>
  <path style="fill:rgb(255,255,255);stroke:none;stroke-width:1.0;" d="M31.410 704.310 C31.250 704.150 31.030 704.070 30.810 704.070 C30.590 704.070 30.380 704.150 30.210 704.310 C30.050 704.480 29.960 704.700 29.960 704.920 C29.960 705.130 30.050 705.350 30.210 705.520 C30.380 705.680 30.590 705.770 30.810 705.770 L30.810 705.770 C31.030 705.770 31.250 705.680 31.410 705.520 C31.580 705.350 31.660 705.130 31.660 704.920 C31.660 704.700 31.580 704.480 31.410 704.310 "/>
  <path style="fill:rgb(255,255,255);stroke:none;stroke-width:1.0;" d="M31.410 706.460 C31.250 706.300 31.030 706.210 30.810 706.210 C30.590 706.210 30.380 706.300 30.210 706.460 C30.050 706.630 29.960 706.850 29.960 707.060 C29.960 707.280 30.050 707.500 30.210 707.670 C30.380 707.830 30.590 707.910 30.810 707.910 C31.030 707.910 31.250 707.830 31.410 707.670 C31.580 707.500 31.660 707.280 31.660 707.060 C31.660 706.850 31.580 706.630 31.410 706.460 "/>
  <path style="fill:rgb(255,255,255);stroke:none;stroke-width:1.0;" d="M29.260 706.460 C29.100 706.290 28.880 706.210 28.660 706.210 C28.440 706.210 28.230 706.300 28.060 706.460 C27.900 706.630 27.810 706.850 27.810 707.060 C27.810 707.280 27.900 707.500 28.060 707.670 C28.230 707.830 28.440 707.910 28.660 707.910 C28.880 707.910 29.100 707.830 29.260 707.670 C29.430 707.500 29.510 707.280 29.510 707.060 C29.510 706.850 29.430 706.630 29.260 706.460 "/>
  <path style="fill:rgb(255,255,255);stroke:none;stroke-width:1.0;" d="M32.960 706.210 C32.740 706.210 32.520 706.300 32.360 706.460 C32.190 706.630 32.110 706.850 32.110 707.070 C32.110 707.280 32.190 707.500 32.360 707.670 C32.520 707.830 32.740 707.920 32.960 707.920 C33.170 707.920 33.390 707.830 33.560 707.670 C33.720 707.500 33.810 707.280 33.810 707.070 C33.810 706.850 33.720 706.630 33.560 706.460 C33.390 706.300 33.170 706.210 32.960 706.210 "/>
  <path style="fill:rgb(255,255,255);stroke:none;stroke-width:1.0;" d="M35.960 707.070 C35.960 706.850 35.880 706.630 35.710 706.460 C35.540 706.300 35.330 706.210 35.110 706.210 C34.890 706.210 34.670 706.300 34.510 706.460 C34.340 706.630 34.260 706.850 34.260 707.070 C34.260 707.280 34.340 707.500 34.510 707.670 C34.670 707.830 34.890 707.920 35.110 707.920 C35.330 707.920 35.540 707.830 35.710 707.670 L35.650 707.600 L35.710 707.670 C35.880 707.500 35.960 707.280 35.960 707.070 "/>
  <path style="fill:rgb(255,255,255);stroke:none;stroke-width:1.0;" d="M27.120 706.460 C26.950 706.300 26.730 706.210 26.510 706.210 C26.300 706.210 26.080 706.300 25.910 706.460 C25.750 706.630 25.670 706.850 25.670 707.070 C25.670 707.280 25.750 707.500 25.910 707.670 C26.080 707.830 26.300 707.910 26.510 707.910 C26.730 707.910 26.950 707.830 27.120 707.670 C27.280 707.500 27.360 707.280 27.360 707.070 C27.360 706.850 27.280 706.630 27.120 706.460 "/>
  <path style="fill:rgb(255,255,255);stroke:none;stroke-width:1.0;" d="M26.500 708.350 C26.280 708.350 26.070 708.440 25.900 708.600 C25.740 708.770 25.650 708.990 25.650 709.210 C25.650 709.420 25.740 709.640 25.900 709.810 C26.070 709.970 26.280 710.050 26.500 710.050 C26.720 710.050 26.940 709.970 27.100 709.810 C27.270 709.640 27.350 709.420 27.350 709.210 C27.350 708.990 27.270 708.770 27.100 708.600 C26.940 708.440 26.720 708.350 26.500 708.350 "/>
  <path style="fill:rgb(255,255,255);stroke:none;stroke-width:1.0;" d="M26.500 710.500 C26.280 710.500 26.070 710.590 25.900 710.750 C25.740 710.920 25.650 711.140 25.650 711.350 C25.650 711.570 25.740 711.790 25.900 711.950 C26.070 712.120 26.280 712.200 26.500 712.200 L26.500 712.200 C26.720 712.200 26.940 712.120 27.100 711.950 L27.040 711.890 L27.100 711.950 C27.270 711.790 27.350 711.570 27.350 711.350 C27.350 711.140 27.270 710.920 27.100 710.750 C26.940 710.590 26.720 710.500 26.500 710.500 "/>
  <path style="fill:rgb(255,255,255);stroke:none;stroke-width:1.0;" d="M28.660 710.070 C28.880 710.070 29.100 709.980 29.260 709.820 C29.430 709.650 29.510 709.430 29.510 709.210 C29.510 709.000 29.430 708.780 29.260 708.610 C29.100 708.450 28.880 708.370 28.660 708.370 C28.440 708.370 28.230 708.450 28.060 708.610 C27.900 708.780 27.810 709.000 27.810 709.210 C27.810 709.430 27.900 709.650 28.060 709.820 C28.230 709.980 28.440 710.070 28.660 710.070 "/>
  <path style="fill:rgb(255,255,255);stroke:none;stroke-width:1.0;" d="M28.650 710.500 C28.430 710.500 28.210 710.590 28.050 710.750 C27.880 710.920 27.800 711.140 27.800 711.350 C27.800 711.570 27.880 711.790 28.050 711.950 C28.210 712.120 28.430 712.200 28.650 712.200 C28.870 712.200 29.090 712.120 29.250 711.950 C29.420 711.790 29.500 711.570 29.500 711.350 C29.500 711.140 29.420 710.920 29.250 710.750 C29.090 710.590 28.870 710.500 28.650 710.500 "/>
  <path style="fill:rgb(255,255,255);stroke:none;stroke-width:1.0;" d="M28.650 712.650 C28.430 712.650 28.210 712.740 28.050 712.900 C27.880 713.070 27.800 713.290 27.800 713.510 C27.800 713.720 27.880 713.940 28.050 714.110 C28.210 714.270 28.430 714.350 28.650 714.350 L28.650 714.350 C28.870 714.350 29.090 714.270 29.250 714.110 C29.420 713.940 29.500 713.720 29.500 713.510 C29.500 713.290 29.420 713.070 29.250 712.900 C29.090 712.740 28.870 712.650 28.650 712.650 "/>
  <path style="fill:rgb(255,255,255);stroke:none;stroke-width:1.0;" d="M26.500 712.650 C26.280 712.650 26.070 712.740 25.900 712.900 C25.740 713.070 25.650 713.290 25.650 713.510 C25.650 713.720 25.740 713.940 25.900 714.110 C26.070 714.270 26.280 714.350 26.500 714.350 L26.500 714.350 C26.720 714.350 26.940 714.270 27.100 714.110 L27.040 714.040 L27.100 714.110 C27.270 713.940 27.350 713.720 27.350 713.510 C27.350 713.290 27.270 713.070 27.100 712.900 C26.940 712.740 26.720 712.650 26.500 712.650 "/>
  <path style="fill:rgb(255,255,255);stroke:none;stroke-width:1.0;" d="M26.500 714.800 C26.280 714.800 26.070 714.890 25.900 715.050 C25.740 715.220 25.650 715.430 25.650 715.650 C25.650 715.870 25.740 716.090 25.900 716.260 C26.070 716.420 26.280 716.500 26.500 716.500 L26.500 716.500 C26.720 716.500 26.940 716.420 27.100 716.260 L27.040 716.190 L27.100 716.260 C27.270 716.090 27.350 715.870 27.350 715.650 C27.350 715.430 27.270 715.220 27.100 715.050 C26.940 714.890 26.720 714.800 26.500 714.800 "/>
  <path style="fill:rgb(255,255,255);stroke:none;stroke-width:1.0;" d="M24.350 708.380 C24.130 708.380 23.910 708.460 23.750 708.630 C23.580 708.790 23.500 709.010 23.500 709.230 C23.500 709.450 23.580 709.660 23.750 709.830 C23.910 709.990 24.130 710.080 24.350 710.080 C24.560 710.080 24.780 709.990 24.950 709.830 C25.120 709.660 25.200 709.450 25.200 709.230 C25.200 709.010 25.120 708.790 24.950 708.630 C24.780 708.460 24.560 708.380 24.350 708.380 "/>
  <path style="fill:rgb(255,255,255);stroke:none;stroke-width:1.0;" d="M24.350 710.530 C24.130 710.530 23.910 710.610 23.750 710.770 C23.580 710.940 23.500 711.160 23.500 711.380 C23.500 711.590 23.580 711.810 23.750 711.980 C23.910 712.140 24.130 712.230 24.350 712.230 C24.570 712.230 24.780 712.140 24.950 711.980 C25.120 711.810 25.200 711.590 25.200 711.380 C25.200 711.160 25.120 710.940 24.950 710.770 C24.780 710.610 24.560 710.530 24.350 710.530 "/>
  <path style="fill:rgb(255,255,255);stroke:none;stroke-width:1.0;" d="M24.350 712.670 C24.130 712.670 23.910 712.760 23.750 712.920 C23.580 713.090 23.500 713.310 23.500 713.530 C23.500 713.740 23.580 713.960 23.750 714.130 C23.910 714.290 24.130 714.380 24.350 714.380 L24.350 714.380 C24.570 714.380 24.780 714.290 24.950 714.130 C25.120 713.960 25.200 713.740 25.200 713.530 C25.200 713.310 25.120 713.090 24.950 712.920 C24.780 712.760 24.560 712.670 24.350 712.670 "/>
  <path style="fill:rgb(255,255,255);stroke:none;stroke-width:1.0;" d="M28.630 714.780 C28.410 714.780 28.190 714.860 28.030 715.030 C27.860 715.200 27.780 715.420 27.780 715.630 C27.780 715.850 27.860 716.070 28.030 716.230 C28.190 716.400 28.410 716.480 28.630 716.480 C28.850 716.480 29.070 716.400 29.230 716.230 C29.400 716.070 29.480 715.850 29.480 715.630 C29.480 715.420 29.400 715.200 29.230 715.030 C29.070 714.860 28.850 714.780 28.630 714.780 "/>
  <path style="fill:rgb(255,255,255);stroke:none;stroke-width:1.0;" d="M26.480 716.930 C26.260 716.930 26.050 717.010 25.880 717.180 C25.710 717.340 25.630 717.560 25.630 717.780 C25.630 718.000 25.710 718.220 25.880 718.380 C26.050 718.550 26.260 718.630 26.480 718.630 C26.700 718.630 26.920 718.550 27.080 718.380 C27.250 718.220 27.330 718.000 27.330 717.780 C27.330 717.560 27.250 717.340 27.080 717.180 C26.920 717.010 26.700 716.930 26.480 716.930 "/>
  <path style="fill:rgb(255,255,255);stroke:none;stroke-width:1.0;" d="M24.330 714.800 C24.110 714.800 23.890 714.890 23.720 715.050 C23.560 715.220 23.480 715.440 23.480 715.650 C23.480 715.870 23.560 716.090 23.720 716.260 C23.890 716.420 24.110 716.510 24.330 716.510 C24.540 716.510 24.760 716.420 24.930 716.260 C25.090 716.090 25.180 715.870 25.180 715.650 C25.180 715.440 25.090 715.220 24.930 715.050 C24.760 714.890 24.540 714.800 24.330 714.800 "/>
  <path style="fill:rgb(255,255,255);stroke:none;stroke-width:1.0;" d="M35.090 708.350 C34.880 708.350 34.660 708.440 34.490 708.600 C34.330 708.770 34.240 708.990 34.240 709.210 C34.240 709.420 34.330 709.640 34.490 709.810 C34.660 709.970 34.880 710.050 35.090 710.050 L35.100 710.050 C35.310 710.050 35.530 709.970 35.700 709.810 L35.630 709.740 L35.700 709.810 C35.860 709.640 35.940 709.420 35.940 709.210 C35.940 708.990 35.860 708.770 35.700 708.600 C35.530 708.440 35.310 708.350 35.090 708.350 "/>
  <path style="fill:rgb(255,255,255);stroke:none;stroke-width:1.0;" d="M35.090 710.500 C34.880 710.500 34.660 710.590 34.490 710.750 C34.330 710.920 34.240 711.140 34.250 711.350 C34.240 711.570 34.330 711.790 34.490 711.950 C34.660 712.120 34.880 712.200 35.090 712.200 C35.310 712.200 35.530 712.120 35.700 711.950 L35.630 711.890 L35.700 711.950 C35.860 711.790 35.940 711.570 35.940 711.350 C35.940 711.140 35.860 710.920 35.700 710.750 C35.530 710.590 35.310 710.500 35.090 710.500 "/>
  <path style="fill:rgb(255,255,255);stroke:none;stroke-width:1.0;" d="M32.960 708.350 C32.740 708.350 32.520 708.430 32.360 708.590 C32.190 708.760 32.110 708.980 32.110 709.200 C32.110 709.410 32.190 709.630 32.360 709.800 C32.520 709.960 32.740 710.050 32.960 710.050 C33.170 710.050 33.390 709.960 33.560 709.800 L33.490 709.730 L33.560 709.800 C33.720 709.630 33.810 709.410 33.810 709.200 C33.810 708.980 33.720 708.760 33.560 708.590 C33.390 708.430 33.170 708.350 32.960 708.350 "/>
  <path style="fill:rgb(255,255,255);stroke:none;stroke-width:1.0;" d="M32.950 710.480 C32.730 710.480 32.510 710.570 32.340 710.730 C32.180 710.900 32.100 711.120 32.100 711.340 C32.100 711.550 32.180 711.770 32.340 711.940 C32.510 712.100 32.730 712.190 32.950 712.190 C33.160 712.190 33.380 712.100 33.550 711.940 C33.710 711.770 33.790 711.550 33.790 711.340 C33.790 711.120 33.710 710.900 33.550 710.730 C33.380 710.570 33.160 710.480 32.950 710.480 "/>
  <path style="fill:rgb(255,255,255);stroke:none;stroke-width:1.0;" d="M32.950 712.640 C32.730 712.640 32.510 712.720 32.340 712.880 C32.180 713.050 32.100 713.270 32.100 713.480 C32.100 713.700 32.180 713.920 32.340 714.090 C32.510 714.250 32.730 714.330 32.950 714.330 C33.160 714.330 33.380 714.250 33.550 714.090 C33.710 713.920 33.800 713.700 33.790 713.480 C33.800 713.270 33.710 713.050 33.550 712.880 C33.380 712.720 33.160 712.640 32.950 712.640 "/>
  <path style="fill:rgb(255,255,255);stroke:none;stroke-width:1.0;" d="M35.090 712.630 C34.870 712.630 34.650 712.710 34.490 712.880 C34.320 713.040 34.240 713.260 34.240 713.480 C34.240 713.700 34.320 713.910 34.490 714.080 C34.650 714.240 34.870 714.330 35.090 714.330 C35.310 714.330 35.520 714.240 35.690 714.080 C35.850 713.910 35.940 713.700 35.940 713.480 C35.940 713.260 35.850 713.040 35.690 712.880 C35.520 712.710 35.310 712.630 35.090 712.630 "/>
  <path style="fill:rgb(255,255,255);stroke:none;stroke-width:1.0;" d="M35.090 714.780 C34.870 714.780 34.650 714.860 34.490 715.020 C34.320 715.190 34.240 715.410 34.240 715.630 C34.240 715.840 34.320 716.060 34.490 716.230 C34.650 716.400 34.870 716.480 35.090 716.480 C35.310 716.480 35.520 716.390 35.690 716.230 C35.850 716.060 35.940 715.840 35.940 715.630 C35.940 715.410 35.850 715.190 35.690 715.020 C35.520 714.860 35.310 714.780 35.090 714.780 "/>
  <path style="fill:rgb(255,255,255);stroke:none;stroke-width:1.0;" d="M37.260 710.060 C37.470 710.060 37.690 709.980 37.860 709.810 C38.020 709.650 38.100 709.430 38.100 709.210 C38.100 708.990 38.020 708.770 37.860 708.610 C37.690 708.440 37.470 708.360 37.260 708.360 C37.040 708.360 36.820 708.440 36.650 708.610 C36.490 708.770 36.410 708.990 36.410 709.210 C36.410 709.430 36.490 709.650 36.650 709.810 C36.820 709.980 37.040 710.060 37.260 710.060 "/>
  <path style="fill:rgb(255,255,255);stroke:none;stroke-width:1.0;" d="M37.260 710.510 C37.040 710.510 36.820 710.590 36.650 710.760 C36.490 710.920 36.410 711.140 36.410 711.360 C36.410 711.580 36.490 711.790 36.650 711.960 C36.820 712.130 37.040 712.210 37.260 712.210 C37.470 712.210 37.690 712.130 37.860 711.960 C38.020 711.790 38.100 711.580 38.100 711.360 C38.100 711.140 38.020 710.920 37.860 710.760 C37.690 710.590 37.470 710.510 37.260 710.510 "/>
  <path style="fill:rgb(255,255,255);stroke:none;stroke-width:1.0;" d="M37.260 712.660 C37.040 712.660 36.820 712.740 36.650 712.910 C36.490 713.070 36.410 713.290 36.410 713.510 C36.410 713.720 36.490 713.950 36.650 714.110 C36.820 714.270 37.040 714.360 37.260 714.360 C37.470 714.360 37.690 714.270 37.860 714.110 C38.020 713.950 38.100 713.720 38.100 713.510 C38.100 713.290 38.020 713.070 37.860 712.910 C37.690 712.740 37.470 712.660 37.260 712.660 "/>
  <path style="fill:rgb(255,255,255);stroke:none;stroke-width:1.0;" d="M32.920 714.760 C32.710 714.760 32.490 714.840 32.320 715.010 C32.160 715.180 32.070 715.400 32.080 715.610 C32.070 715.830 32.160 716.050 32.320 716.220 C32.490 716.380 32.710 716.460 32.920 716.460 L32.920 716.460 C33.140 716.460 33.360 716.380 33.530 716.220 C33.690 716.050 33.770 715.830 33.770 715.610 C33.770 715.400 33.690 715.180 33.530 715.010 C33.360 714.840 33.140 714.760 32.920 714.760 "/>
  <path style="fill:rgb(255,255,255);stroke:none;stroke-width:1.0;" d="M35.070 716.900 C34.850 716.900 34.630 716.990 34.470 717.150 C34.300 717.320 34.220 717.540 34.220 717.760 C34.220 717.970 34.300 718.190 34.470 718.360 C34.630 718.520 34.850 718.610 35.070 718.610 C35.280 718.610 35.500 718.520 35.670 718.360 L35.600 718.290 L35.670 718.360 C35.830 718.190 35.920 717.970 35.920 717.760 C35.920 717.540 35.830 717.320 35.670 717.150 C35.500 716.990 35.280 716.900 35.070 716.900 "/>
  <path style="fill:rgb(255,255,255);stroke:none;stroke-width:1.0;" d="M37.230 714.790 C37.020 714.790 36.800 714.870 36.630 715.030 C36.470 715.200 36.380 715.420 36.380 715.640 C36.380 715.850 36.470 716.070 36.630 716.240 C36.800 716.400 37.020 716.490 37.230 716.490 C37.450 716.490 37.670 716.400 37.840 716.240 C38.000 716.070 38.080 715.850 38.080 715.640 C38.080 715.420 38.000 715.200 37.840 715.030 C37.670 714.870 37.450 714.790 37.230 714.790 "/>
  <path style="fill:rgb(255,255,255);stroke:none;stroke-width:1.0;" d="M81.190 708.320 C81.190 709.160 81.430 709.830 81.960 710.290 C82.420 710.690 83.160 711.000 83.930 711.160 C83.160 711.000 82.420 710.690 81.960 710.290 C81.430 709.830 81.190 709.160 81.190 708.320 C81.190 706.420 82.510 705.140 84.790 705.140 C85.360 705.140 85.860 705.190 86.310 705.290 C85.860 705.190 85.360 705.140 84.790 705.140 C82.510 705.140 81.190 706.420 81.190 708.320 "/>
  <path style="fill:rgb(255,255,255);stroke:none;stroke-width:1.0;" d="M88.780 706.610 C88.780 706.610 88.780 706.610 88.780 706.610 L88.790 706.610 C88.780 706.610 88.780 706.610 88.780 706.610 L88.780 706.610 "/>
  <path style="fill:rgb(255,255,255);stroke:none;stroke-width:1.0;" d="M89.910 705.390 C88.920 704.500 87.940 703.970 86.720 703.720 C87.940 703.970 88.920 704.500 89.910 705.380 C89.910 705.380 89.910 705.380 89.910 705.390 "/>
  <path style="fill:rgb(255,255,255);stroke:none;stroke-width:1.0;" d="M83.190 719.190 C82.090 718.960 81.160 718.440 80.190 717.470 C80.190 717.470 80.190 717.470 80.190 717.470 C81.160 718.440 82.090 718.960 83.190 719.190 "/>
  <path style="fill:rgb(255,255,255);stroke:none;stroke-width:1.0;" d="M83.830 712.890 C83.660 712.860 83.500 712.830 83.340 712.800 C83.500 712.830 83.660 712.860 83.830 712.890 L85.830 713.200 C86.140 713.250 86.400 713.290 86.630 713.340 C86.400 713.290 86.140 713.250 85.830 713.200 L83.830 712.890 "/>
  <path style="fill:rgb(255,255,255);stroke:none;stroke-width:1.0;" d="M89.270 712.720 C88.680 712.210 88.050 711.890 86.960 711.660 C88.040 711.890 88.680 712.210 89.260 712.720 C90.200 713.510 90.710 714.690 90.710 716.110 C90.710 719.120 88.350 720.970 84.790 720.970 C83.990 720.970 83.270 720.910 82.620 720.770 C83.270 720.910 83.990 720.970 84.790 720.970 C88.350 720.970 90.710 719.120 90.710 716.110 C90.710 714.690 90.200 713.510 89.270 712.720 "/>
  <path style="fill:rgb(255,255,255);stroke:none;stroke-width:1.0;" d="M90.710 716.110 C90.710 714.690 90.200 713.510 89.260 712.720 C88.680 712.210 88.050 711.890 86.970 711.660 C86.720 711.610 86.440 711.560 86.140 711.520 L84.260 711.230 C84.150 711.210 84.040 711.190 83.930 711.170 C83.160 711.000 82.420 710.690 81.960 710.290 C81.430 709.830 81.190 709.160 81.190 708.320 C81.190 706.420 82.510 705.140 84.790 705.140 C85.360 705.140 85.860 705.190 86.310 705.290 C87.300 705.500 88.060 705.950 88.780 706.610 L88.780 706.610 L88.790 706.610 C88.790 706.610 88.790 706.610 88.790 706.610 C88.830 706.650 88.900 706.680 88.970 706.680 C89.040 706.680 89.100 706.650 89.140 706.610 L89.150 706.610 C89.150 706.600 89.150 706.600 89.160 706.600 L89.950 705.810 C89.960 705.800 89.970 705.790 89.970 705.780 L89.980 705.780 C90.020 705.730 90.040 705.670 90.040 705.610 C90.040 705.510 89.990 705.430 89.910 705.390 C89.910 705.390 89.910 705.390 89.910 705.390 C88.920 704.500 87.940 703.970 86.720 703.720 C86.160 703.610 85.550 703.550 84.860 703.550 C81.470 703.550 79.380 705.480 79.380 708.390 C79.380 709.760 79.820 710.820 80.680 711.590 C81.330 712.160 82.220 712.560 83.340 712.800 C83.500 712.830 83.660 712.860 83.830 712.890 L85.830 713.200 C86.140 713.250 86.400 713.290 86.630 713.340 C87.300 713.490 87.650 713.660 88.060 714.020 C88.610 714.500 88.880 715.270 88.880 716.160 C88.880 718.160 87.340 719.340 84.840 719.340 C84.240 719.340 83.700 719.290 83.190 719.190 C82.090 718.960 81.160 718.440 80.190 717.470 C80.190 717.470 80.190 717.470 80.190 717.470 C80.140 717.420 80.070 717.390 80.000 717.390 C79.920 717.390 79.850 717.420 79.810 717.470 L78.940 718.330 C78.940 718.340 78.930 718.350 78.920 718.360 L78.920 718.360 C78.880 718.410 78.850 718.470 78.850 718.530 C78.850 718.600 78.880 718.660 78.930 718.710 L78.930 718.710 C78.930 718.720 78.940 718.720 78.940 718.720 C80.040 719.820 81.180 720.470 82.620 720.770 C83.270 720.910 83.990 720.970 84.790 720.970 C88.350 720.970 90.710 719.120 90.710 716.110 "/>
 </g>
</svg>
