<?xml version="1.0" encoding="UTF-8"?>
<svg height="606.52" width="548.58" xmlns="http://www.w3.org/2000/svg">
 <g>
  <path style="fill:rgb(127,65,153);stroke:none;stroke-width:1.0;" d="M304.720 557.070 L304.720 549.750 L305.230 549.750 L305.230 557.070 "/>
  <path style="fill:rgb(127,65,153);stroke:none;stroke-width:0.25;" d="M304.720 549.750 L304.780 549.240 C304.950 548.030 305.970 546.940 307.220 546.800 L307.730 546.750 L307.730 547.260 L307.270 547.310 C306.220 547.510 305.480 548.280 305.230 549.300 L305.230 549.750 "/>
  <path style="fill:rgb(127,65,153);stroke:none;stroke-width:0.25;" d="M307.730 546.750 L535.580 546.750 L535.580 547.260 L307.730 547.260 "/>
  <path style="fill:rgb(127,65,153);stroke:none;stroke-width:0.25;" d="M535.580 546.750 L536.090 546.800 C537.330 546.940 538.350 548.030 538.530 549.240 L538.580 549.750 L538.070 549.750 L538.070 549.300 C537.820 548.280 537.090 547.510 536.030 547.310 L535.580 547.260 "/>
  <path style="fill:rgb(127,65,153);stroke:none;stroke-width:0.25;" d="M538.580 549.750 L538.580 557.060 L538.070 557.060 L538.070 549.750 "/>
  <path style="fill:rgb(127,65,153);stroke:none;stroke-width:0.25;" d="M535.580 547.260 L307.730 547.260 L307.730 546.750 "/>
  <path style="fill:rgb(127,65,153);stroke:none;stroke-width:0.25;" d="M538.580 557.070 "/>
  <path style="fill:rgb(127,65,153);stroke:none;stroke-width:0.25;" d="M304.720 565.570 "/>
  <path style="fill:rgb(127,65,153);stroke:none;stroke-width:0.25;" d="M538.580 565.570 "/>
  <path style="fill:rgb(127,65,153);stroke:none;stroke-width:0.25;" d="M304.720 574.070 "/>
  <path style="fill:rgb(127,65,153);stroke:none;stroke-width:0.25;" d="M538.580 574.070 "/>
  <path style="fill:rgb(127,65,153);stroke:none;stroke-width:0.25;" d="M304.720 582.580 "/>
  <path style="fill:rgb(127,65,153);stroke:none;stroke-width:0.25;" d="M538.580 582.580 "/>
  <path style="fill:rgb(127,65,153);stroke:none;stroke-width:0.25;" d="M304.720 591.020 "/>
  <path style="fill:rgb(127,65,153);stroke:none;stroke-width:0.25;" d="M538.580 591.020 L538.580 593.570 L538.070 593.570 L538.070 591.020 "/>
  <path style="fill:rgb(127,65,153);stroke:none;stroke-width:0.25;" d="M538.580 593.570 L538.530 594.080 C538.310 595.450 537.360 596.180 536.090 596.520 L535.580 596.520 L535.580 596.070 L536.030 596.010 C536.960 595.880 537.970 594.910 538.070 593.970 L538.070 593.570 "/>
  <path style="fill:rgb(127,65,153);stroke:none;stroke-width:0.25;" d="M535.580 596.520 L307.730 596.520 L307.730 596.070 L535.580 596.070 "/>
  <path style="fill:rgb(127,65,153);stroke:none;stroke-width:0.25;" d="M307.730 596.520 L307.220 596.520 C305.950 596.180 304.990 595.450 304.780 594.080 L304.720 593.580 L305.240 593.580 L305.290 593.970 L305.350 594.420 L305.580 594.820 L305.800 595.160 L306.480 595.730 L306.880 595.900 L307.270 596.010 L307.730 596.070 "/>
  <path style="fill:rgb(127,65,153);stroke:none;stroke-width:0.25;" d="M304.720 593.570 L304.720 591.020 L305.230 591.020 L305.230 593.570 "/>
 </g>
</svg>
