<?xml version="1.0" encoding="UTF-8"?>
<svg height="739.65" width="548.711" xmlns="http://www.w3.org/2000/svg">
 <g id="page" xmlns:svgx="http://www.xml-cml.org/schema/svgx">
  <g begin="text">
   <text y="96.095" x="56.693,63.603,66.247,69.497,74.7674,78.223,81.472,85.239,89.709,94.071,97.418,105.637,110.107,115.494,118.6172,122.18,127.392,131.754,136.292,140.762,146.149,150.013,154.405,157.832,162.302,167.689,171.456,175.84799999999998,179.333,184.515,187.34539999999998,190.811,197.419,203.1774,206.663,210.429,214.899,218.763,224.043,226.756,229.985,234.455,239.6278,243.133,245.777,251.14499999999998,254.679,257.928,262.398,266.165,274.403,277.047,282.434,286.963" svgx:width="0.7,0.26,0.32,0.54,0.55,0.32,0.38,0.45,0.45,0.32,0.83,0.45,0.55,0.32,0.55,0.52,0.45,0.45,0.45,0.54,0.38,0.45,0.55,0.45,0.54,0.38,0.45,0.55,0.52,0.29,0.55,0.67,0.59,0.55,0.38,0.45,0.38,0.54,0.26,0.32,0.45,0.53,0.55,0.26,0.55,0.55,0.32,0.45,0.38,0.83,0.26,0.55,0.45,0.36" style="fill:rgb(43,42,41);font-family:MhbxxvAdvOTa9103878;font-size:9.76px;stroke:none;">with treatment because cure of TB resulted in termina-</text>
   <text y="108.055" x="56.693,59.837,62.375,67.579,72.94699999999999,76.308,81.385,84.2154,87.584,90.728,96.088,100.47999999999999,103.801,106.642,109.181,114.687,119.052,124.441,128.805,131.471,135.835,138.3726,141.732,146.096,148.703,151.242,156.416,163.221,167.586,172.975,177.447,181.811,183.9582,187.308,194.933,200.4,204.792,208.113,213.298,217.75,221.411,224.555,227.094,231.585,234.123,239.308,243.769,249.159,252.2822,255.671,259.332,263.697,268.881,274.095,277.756,280.9,285.264" svgx:width="0.32,0.26,0.52,0.55,0.55,0.52,0.29,0.55,0.32,0.54,0.45,0.55,0.29,0.26,0.55,0.45,0.55,0.45,0.26,0.45,0.26,0.55,0.45,0.26,0.26,0.52,0.7,0.45,0.55,0.45,0.45,0.22,0.55,0.78,0.55,0.45,0.55,0.53,0.45,0.38,0.32,0.26,0.45,0.26,0.53,0.45,0.55,0.32,0.55,0.38,0.45,0.53,0.52,0.38,0.32,0.45,0.53" style="fill:rgb(43,42,41);font-family:MhbxxvAdvOTa9103878;font-size:9.76px;stroke:none;">tion of the financial allowance. One participant reported</text>
   <text y="120.015" x="56.693,61.085,65.147,69.344,72.858,76.938,81.702,85.274,90.038,95.143,99.535,103.597,109.269,113.466,118.23,123.4028,127.504,133.0,137.392,141.454,145.846,149.908,155.521,160.285,163.798,166.746,171.568,177.347,180.4702,184.6,188.114,193.1892,197.301,202.914,208.585,213.349,216.296,219.244,222.475,226.867,230.977,234.208,239.704,243.4128,247.416,250.989,256.66,261.052,265.163,270.21,274.29,279.053,284.832,288.405" svgx:width="0.45,0.55,0.38,0.32,0.38,0.45,0.32,0.45,0.48,0.45,0.55,0.54,0.38,0.45,0.53,0.55,0.52,0.45,0.55,0.45,0.55,0.53,0.45,0.32,0.26,0.45,0.55,0.32,0.55,0.32,0.52,0.55,0.53,0.54,0.45,0.26,0.26,0.29,0.45,0.55,0.29,0.52,0.38,0.55,0.32,0.54,0.45,0.55,0.48,0.38,0.45,0.55,0.32,0.22" style="fill:rgb(43,42,41);font-family:MhbxxvAdvOTa9103878;font-size:9.76px;stroke:none;">a strategy used by a patient to qualify for the grant:</text>
   <text y="131.975" x="56.693" svgx:width="0.36" style="fill:rgb(43,42,41);font-family:CpxttrAdvOTa9103878;font-size:9.76px;stroke:none;">“</text>
   <text y="131.975" x="60.549,67.0882,70.864,76.188,81.67,85.071,88.072,92.441,98.019,101.1422,104.994,110.319,114.287,118.597,122.34,126.65,132.209,135.649,139.959,145.2294,149.082,155.94,158.98,162.382,167.5548,171.397,176.839,182.281,186.65,194.874,199.692,205.065,208.467,213.03,216.783,219.785,223.201,227.043,232.524,238.103,243.3734,247.177,250.637,256.079,260.1782,263.962,269.541,274.407,278.668,282.069,286.887" svgx:width="0.67,0.55,0.52,0.53,0.32,0.28,0.42,0.54,0.32,0.55,0.52,0.38,0.42,0.35,0.42,0.54,0.32,0.42,0.54,0.55,0.68,0.28,0.32,0.53,0.55,0.53,0.53,0.42,0.81,0.47,0.52,0.32,0.44,0.35,0.28,0.35,0.55,0.53,0.54,0.54,0.55,0.32,0.53,0.42,0.55,0.54,0.47,0.41,0.32,0.47,0.38" style="fill:rgb(43,42,41);font-family:BpmhfrAdvOTf0bf83d5.I;font-size:9.76px;stroke:none;">A patient presented with haemoptysis and the doctor</text>
   <text y="143.935" x="56.693,61.877,67.12,72.3904,75.79,78.934,84.118,88.21719999999999,91.607,96.654,99.398,103.967,108.615,113.88539999999999,117.285,122.469,127.829,133.013,135.825,140.092,143.646,147.707,152.989,155.1362,158.554,161.698,164.8212,168.25,174.859,180.044,183.46,186.898,189.504,194.074,199.541,204.823,210.0934,213.483,216.715,221.3022,224.653,229.632,233.7312,237.072,240.587,245.771,249.833,254.021,259.0962,262.408,267.455,270.199,274.768,279.474" svgx:width="0.53,0.53,0.54,0.55,0.32,0.53,0.42,0.55,0.51,0.28,0.47,0.47,0.54,0.55,0.53,0.54,0.53,0.28,0.44,0.35,0.42,0.54,0.22,0.55,0.32,0.32,0.55,0.68,0.53,0.35,0.55,0.26,0.47,0.55,0.54,0.54,0.55,0.32,0.47,0.55,0.51,0.42,0.55,0.35,0.53,0.42,0.42,0.52,0.55,0.51,0.28,0.47,0.47,0.54" style="fill:rgb(43,42,41);font-family:BpmhfrAdvOTf0bf83d5.I;font-size:9.76px;stroke:none;">had the blood analysed. It was found to be sheep blood</text>
   <text y="143.935" x="284.824" svgx:width="0.22" style="fill:rgb(43,42,41);font-family:MhbxxvAdvOTa9103878;font-size:9.76px;stroke:none;">.</text>
   <text y="143.935" x="286.982" svgx:width="0.36" style="fill:rgb(43,42,41);font-family:CpxttrAdvOTa9103878;font-size:9.76px;stroke:none;">”</text>
   <text y="155.896" x="56.693,59.837,64.718,69.6,74.482,77.626" svgx:width="0.32,0.5,0.5,0.5,0.32,0.22" style="fill:rgb(43,42,41);font-family:MhbxxvAdvOTa9103878;font-size:9.76px;stroke:none;">(#13).</text>
   <text y="179.774" x="56.693,63.742,66.513,70.895,75.574,81.443,85.825,90.207,92.977,98.847" svgx:width="0.69,0.27,0.43,0.45,0.57,0.43,0.43,0.27,0.57,0.58" style="fill:rgb(43,42,41);font-family:NwjgyyAdvOT3b30f6db.B;font-size:10.26px;stroke:none;">Discussion</text>
   <text y="191.736" x="56.693,63.325,68.737,73.12899999999999,76.619,80.527,83.801,89.213,94.527,98.919,102.468,107.879,112.374,116.08279999999999,119.689,124.896,130.103,133.377,137.871,140.588,146.107,150.601,155.7738,159.391,162.626,168.038,172.43,175.978,180.472,185.376,190.691,195.185,198.976,201.644,206.177,211.677,216.171,220.704,224.4128,228.02,233.237,236.0674,239.644,246.56,251.054,254.845,260.0178,263.576,269.135,274.547,278.338,282.227,286.721" svgx:width="0.67,0.54,0.45,0.55,0.38,0.32,0.54,0.53,0.45,0.55,0.54,0.45,0.38,0.55,0.52,0.52,0.32,0.45,0.26,0.55,0.45,0.53,0.55,0.32,0.54,0.45,0.55,0.45,0.49,0.53,0.45,0.38,0.26,0.45,0.55,0.45,0.45,0.38,0.55,0.52,0.29,0.55,0.7,0.45,0.38,0.53,0.55,0.55,0.54,0.38,0.38,0.45,0.38" style="fill:rgb(43,42,41);font-family:MhbxxvAdvOTa9103878;font-size:9.76px;stroke:none;">The study has obtained the experiences of ward nurses</text>
   <text y="203.696" x="56.693,61.331,66.683,72.347,76.985,81.575,85.54,91.155,93.987,99.651,104.33579999999999,108.097,116.504,122.061,124.874,128.292,131.105,136.563,139.376,143.768,147.598,150.655,155.293,159.932,163.35,168.702,172.637,176.3458,180.176,183.008,188.672,191.787,194.6,200.156,204.795,210.41,215.048,217.861,223.476,228.1608,231.981,238.758,244.763,248.592,252.117,257.878,264.5148,268.307,273.766,277.701,282.291,286.939" svgx:width="0.45,0.52,0.55,0.45,0.45,0.38,0.55,0.26,0.55,0.48,0.55,0.83,0.54,0.26,0.32,0.26,0.53,0.26,0.45,0.55,0.29,0.45,0.45,0.32,0.52,0.38,0.38,0.55,0.26,0.55,0.29,0.26,0.54,0.45,0.55,0.45,0.26,0.55,0.48,0.55,0.67,0.59,0.36,0.33,0.56,0.68,0.55,0.53,0.38,0.45,0.45,0.36" style="fill:rgb(43,42,41);font-family:MhbxxvAdvOTa9103878;font-size:9.76px;stroke:none;">concerning multiple factors influencing TB-IPC prac-</text>
   <text y="215.656" x="56.693,60.213,63.127,67.867,72.568,76.2768,80.335,85.095,90.821,95.9938,100.062,102.976,108.703,113.443,117.48,122.181,126.941,131.075,133.99,139.716,144.4008,148.449,151.969,157.578,161.97,165.97,171.53,176.983,180.503,185.243,190.969,194.489,197.403,202.143,204.6806,208.66,212.697,215.612,219.698,224.578,228.597,234.05,236.8804,240.909,246.674,252.127,256.262,261.715,266.416,271.859,280.367,283.282,288.022" svgx:width="0.32,0.26,0.45,0.45,0.38,0.55,0.45,0.55,0.53,0.55,0.26,0.55,0.45,0.38,0.45,0.45,0.38,0.26,0.55,0.48,0.55,0.32,0.54,0.45,0.55,0.53,0.52,0.32,0.45,0.55,0.32,0.26,0.45,0.26,0.55,0.38,0.26,0.38,0.5,0.55,0.52,0.29,0.55,0.55,0.52,0.38,0.52,0.45,0.52,0.83,0.26,0.45,0.26" style="fill:rgb(43,42,41);font-family:MhbxxvAdvOTa9103878;font-size:9.76px;stroke:none;">tices and increasing the potential risk of nosocomial</text>
   <text y="227.616" x="56.693,59.837,63.498,67.862,73.252,77.011,85.143,87.682,91.441,95.297,97.836,102.913,108.28099999999999,111.622,115.986,119.1092,122.449,127.731,132.808,136.567,141.752,144.29,147.434,151.798,154.3356,157.715,160.253,164.618,169.089,173.453,175.992,178.1392,181.469,187.972,193.254,197.646,200.967,205.848,210.213,214.605,217.916,223.1,227.465,231.126,235.49,239.854,242.393,246.864,251.229,256.40180000000004,259.811,264.175,269.252,274.641,277.785,282.149,286.924" svgx:width="0.32,0.38,0.45,0.55,0.38,0.83,0.26,0.38,0.38,0.26,0.52,0.55,0.55,0.45,0.32,0.55,0.54,0.52,0.38,0.53,0.26,0.32,0.45,0.26,0.55,0.26,0.45,0.46,0.45,0.26,0.22,0.55,0.67,0.54,0.45,0.55,0.5,0.45,0.45,0.55,0.53,0.45,0.38,0.45,0.45,0.26,0.46,0.45,0.53,0.55,0.45,0.52,0.55,0.32,0.45,0.49,0.36" style="fill:rgb(43,42,41);font-family:MhbxxvAdvOTa9103878;font-size:9.76px;stroke:none;">transmission at hospital level. The key perceived contex-</text>
   <text y="239.576" x="56.693,59.954,65.353,69.834,72.3716,75.898,78.553,84.06,87.018,89.674,95.073,99.554,105.061,109.542,114.024,117.7328,121.336,124.295,128.776,131.432,133.96959999999999,137.495,140.15,145.657,148.918,153.9932,157.539,162.733,166.512,171.706,176.187,181.3598,184.916,187.581,193.088,196.349,200.83,204.608,209.139,214.294,219.8,225.356,229.837,234.318,237.579,242.061,247.2338,250.731,255.925,260.514,264.995,268.773,273.255,277.033,281.515,286.914" svgx:width="0.32,0.54,0.45,0.26,0.55,0.26,0.55,0.29,0.26,0.54,0.45,0.55,0.45,0.45,0.38,0.55,0.29,0.45,0.26,0.26,0.55,0.26,0.55,0.32,0.52,0.55,0.52,0.38,0.52,0.45,0.53,0.55,0.26,0.55,0.32,0.45,0.38,0.45,0.52,0.55,0.55,0.45,0.45,0.32,0.45,0.53,0.55,0.52,0.46,0.45,0.38,0.45,0.38,0.45,0.54,0.36" style="fill:rgb(43,42,41);font-family:MhbxxvAdvOTa9103878;font-size:9.76px;stroke:none;">tual influences fall into broad interconnected overarch-</text>
   <text y="251.536" x="56.693,59.731,65.621,70.30579999999999,74.917,78.541,84.323,89.187,97.82,102.684,106.3928,111.015,115.205,120.02,123.078,127.942,131.586,136.45,141.62279999999998,146.196,149.84,154.9152,159.537,163.18,168.962,173.35399999999998,177.917,183.699,188.563,193.427,196.466,200.109,205.891,210.755,215.62,219.781,224.173,228.736,232.985,237.849,242.108,245.751,250.615,259.248,261.3952,265.997,273.302,276.34,282.024,286.888" svgx:width="0.26,0.55,0.48,0.55,0.32,0.54,0.45,0.83,0.45,0.38,0.55,0.38,0.45,0.26,0.45,0.32,0.45,0.53,0.55,0.32,0.52,0.55,0.32,0.54,0.45,0.55,0.54,0.45,0.45,0.26,0.32,0.54,0.45,0.45,0.38,0.45,0.55,0.38,0.45,0.38,0.32,0.45,0.83,0.22,0.55,0.7,0.26,0.53,0.45,0.38" style="fill:rgb(43,42,41);font-family:MhbxxvAdvOTa9103878;font-size:9.76px;stroke:none;">ing themes related to the healthcare system, wider</text>
   <text y="263.438" x="56.693,61.521,67.062,72.915,76.522,81.35,86.588,90.196,95.942,100.77,103.3076,107.57,112.398,117.939,123.792,129.44,132.442,136.05,139.052,144.593,150.485,154.1938,158.418,163.246,169.138,174.3108,178.496,184.193,189.016,192.619,195.616,200.439,206.337,209.4602,213.708,219.244,224.116,229.857,234.68,239.669,242.676,248.212,253.953,258.073,260.2202,264.419,271.38,277.121,281.944,286.162" svgx:width="0.45,0.52,0.55,0.32,0.45,0.49,0.32,0.54,0.45,0.26,0.55,0.45,0.52,0.55,0.53,0.26,0.32,0.26,0.52,0.55,0.38,0.55,0.45,0.55,0.53,0.55,0.53,0.45,0.32,0.26,0.45,0.55,0.32,0.55,0.52,0.45,0.54,0.45,0.46,0.26,0.52,0.54,0.38,0.22,0.55,0.67,0.54,0.45,0.38,0.45" style="fill:rgb(43,42,41);font-family:MhbxxvAdvOTa9103878;font-size:9.76px;stroke:none;">contextual conditions and patient behaviour. These</text>
   <text y="275.398" x="56.693,61.9,65.691,70.898,75.392,80.56479999999999,84.123,87.407,92.818,97.313,105.575,110.069,113.7778,117.385,121.86,127.067,130.858,134.649,139.143,143.032,148.346,153.553,159.072,164.2448,167.803,174.777,177.446,180.719,185.9894,189.509,192.793,198.205,203.411,207.3,211.692,215.241,219.735,222.403,225.072,229.566,232.234,235.508,240.002,245.1748,248.733,251.401,256.769,260.357,264.749,268.239,272.148,275.421,280.833,286.147" svgx:width="0.52,0.38,0.52,0.45,0.53,0.55,0.32,0.54,0.45,0.83,0.45,0.38,0.55,0.45,0.52,0.38,0.38,0.45,0.38,0.53,0.52,0.55,0.53,0.55,0.7,0.26,0.32,0.54,0.55,0.32,0.54,0.52,0.38,0.45,0.55,0.45,0.26,0.26,0.45,0.26,0.32,0.45,0.53,0.55,0.26,0.55,0.55,0.45,0.55,0.38,0.32,0.54,0.53,0.45" style="fill:rgb(43,42,41);font-family:MhbxxvAdvOTa9103878;font-size:9.76px;stroke:none;">broad themes correspond with those elicited in a study</text>
   <text y="287.358" x="56.693,61.058,65.833,71.019,73.558,78.636,82.298,84.838,90.228,94.91279999999999,98.196,103.274,107.639,111.302,114.964,117.503,121.868,125.531,129.2398,132.561,135.706,140.78119999999998,144.074,150.578,156.3364,159.61,163.975,168.34,172.003,176.39499999999998,179.629,182.168,187.536,190.859,196.854,202.137,205.897,209.657,212.197,216.589,219.832,222.977,227.86,232.743,235.887" svgx:width="0.45,0.49,0.53,0.26,0.52,0.38,0.26,0.55,0.48,0.55,0.52,0.45,0.38,0.38,0.26,0.45,0.38,0.38,0.55,0.32,0.52,0.55,0.67,0.59,0.55,0.45,0.45,0.38,0.45,0.55,0.26,0.55,0.55,0.61,0.54,0.38,0.38,0.26,0.45,0.55,0.32,0.5,0.5,0.32,0.22" style="fill:rgb(43,42,41);font-family:MhbxxvAdvOTa9103878;font-size:9.76px;stroke:none;">exploring barriers to TB care in Russia [14].</text>
   <text y="299.319" x="64.689,71.534,77.159,81.551,85.488,93.993,98.7,101.532,106.952,110.6608,114.607,117.489,123.221,126.405,129.286,134.91,139.676,145.408,150.115,154.822,158.5308,162.585,169.733,174.498,178.502,182.894,186.89,189.771,195.503,200.21,205.737,210.444,215.971,221.596,226.303,231.068,233.959,238.666,242.3748,246.429,251.136,255.238,259.339,264.759,269.466,272.347,277.054,280.54,285.306" svgx:width="0.67,0.54,0.45,0.55,0.83,0.45,0.25,0.52,0.38,0.55,0.26,0.55,0.29,0.26,0.54,0.45,0.55,0.45,0.45,0.38,0.55,0.7,0.45,0.38,0.45,0.55,0.26,0.55,0.45,0.53,0.45,0.53,0.54,0.45,0.45,0.26,0.45,0.38,0.55,0.45,0.38,0.38,0.52,0.45,0.26,0.45,0.32,0.45,0.53" style="fill:rgb(43,42,41);font-family:MhbxxvAdvOTa9103878;font-size:9.76px;stroke:none;">The major influences were inadequacies associated</text>
   <text y="311.279" x="56.693,63.498,66.036,69.278,74.5484,77.899,81.043,86.403,90.795,94.116,99.398,103.762,108.234,110.772,113.916,119.286,123.65,128.015,131.754,136.146,139.467,143.226,147.59,151.427,154.571,159.023,167.156,169.3032,172.633,178.696,183.773,189.055,192.307,194.845,200.234,204.626,207.957,211.208,216.803,223.4398,226.723,231.087,236.369,241.631,244.17,247.411,251.1198,254.499,258.864,261.9872,265.386,270.57,273.108,276.047,278.888,283.253,286.992" svgx:width="0.7,0.26,0.32,0.54,0.55,0.32,0.54,0.45,0.55,0.54,0.45,0.45,0.26,0.32,0.54,0.45,0.45,0.38,0.45,0.55,0.38,0.45,0.38,0.32,0.45,0.83,0.22,0.55,0.61,0.52,0.54,0.32,0.26,0.55,0.45,0.55,0.33,0.56,0.68,0.55,0.45,0.54,0.53,0.26,0.32,0.38,0.55,0.45,0.32,0.55,0.53,0.26,0.29,0.29,0.45,0.38,0.36" style="fill:rgb(43,42,41);font-family:MhbxxvAdvOTa9103878;font-size:9.76px;stroke:none;">with the healthcare system. Routine IPC audits at differ-</text>
   <text y="323.239" x="56.693,61.282,66.896,70.0192,73.808,79.198,83.786,89.195,93.784,97.67,101.038,109.396,113.985,119.598,122.967,126.6758,130.504,135.776,138.6064,142.357,147.688,153.194,156.90279999999998,160.624,166.131,171.432,175.416,180.825,183.588,186.956,191.545,194.08259999999999,197.833,203.339,207.928,213.1008,216.881,220.845,226.351,231.653,238.683,243.271,248.44379999999998,252.224,254.997,260.611,265.2,270.502,276.174,280.158,282.921,286.904" svgx:width="0.45,0.55,0.32,0.55,0.53,0.45,0.53,0.45,0.38,0.32,0.83,0.45,0.55,0.32,0.38,0.55,0.52,0.29,0.55,0.52,0.54,0.38,0.55,0.54,0.52,0.38,0.53,0.26,0.32,0.45,0.26,0.55,0.54,0.45,0.53,0.55,0.38,0.54,0.52,0.7,0.45,0.53,0.55,0.26,0.55,0.45,0.52,0.55,0.38,0.26,0.38,0.36" style="fill:rgb(43,42,41);font-family:MhbxxvAdvOTa9103878;font-size:9.76px;stroke:none;">ent departments of our hospital had showed inconsis-</text>
   <text y="335.199" x="56.693,60.29,65.107,70.949,74.546,77.538,81.92999999999999,86.094,90.912,96.549,102.186,105.178,108.169,113.045,118.2178,122.403,125.97,130.084,134.902,140.744,144.956,153.542,156.533,160.745,164.957,167.949,173.479,179.321,183.328,188.858,193.675,197.887,202.705,207.8778,212.111,217.748,221.862,226.68,231.497,236.314,242.049,245.646,248.637,254.167,260.01,264.222,266.3692,270.572,275.389,280.314,285.131" svgx:width="0.32,0.45,0.55,0.32,0.26,0.45,0.55,0.45,0.53,0.53,0.26,0.26,0.45,0.53,0.55,0.32,0.38,0.45,0.55,0.38,0.83,0.26,0.38,0.38,0.26,0.52,0.55,0.36,0.52,0.45,0.38,0.45,0.53,0.55,0.53,0.38,0.45,0.45,0.45,0.54,0.32,0.26,0.52,0.55,0.38,0.22,0.55,0.45,0.46,0.45,0.55" style="fill:rgb(43,42,41);font-family:MhbxxvAdvOTa9103878;font-size:9.76px;stroke:none;">tently applied transmission-based precautions, even</text>
   <text y="347.159" x="56.693,63.498,68.78,73.144,76.806,81.198,84.47,89.351,94.741,99.818,106.623,111.991,115.371,121.873,127.6314,130.963,135.327,139.692,143.45,147.815,151.5238,154.883,161.689,166.053,169.714,174.106,177.388,181.752,186.937,195.07,197.608,200.752,203.896,208.26,213.4328,216.793,221.87,227.238,230.569,234.96099999999998,238.224,241.885,246.962,252.244,255.388,257.926,263.316,267.70799999999997,270.99,276.067,280.431,284.19,286.728" svgx:width="0.7,0.54,0.45,0.38,0.45,0.55,0.5,0.55,0.52,0.7,0.55,0.55,0.67,0.59,0.55,0.45,0.45,0.38,0.45,0.38,0.55,0.7,0.45,0.38,0.45,0.55,0.45,0.53,0.83,0.26,0.32,0.32,0.45,0.53,0.55,0.52,0.55,0.55,0.45,0.55,0.38,0.52,0.54,0.32,0.26,0.55,0.45,0.55,0.52,0.45,0.38,0.26,0.38" style="fill:rgb(43,42,41);font-family:MhbxxvAdvOTa9103878;font-size:9.76px;stroke:none;">where known TB cases were admitted on a routine basis</text>
   <text y="359.061" x="56.693,59.838,64.72,67.865,70.01219999999999,73.334,78.822,81.664,84.506,88.871,93.236,96.381,98.921,103.501,107.893,111.215,117.718,123.509,127.064,130.316,135.804,142.4408,145.802,150.988,154.65,159.015,163.38,166.525,169.065,173.528,177.893,181.6018,184.982,190.06,194.452,197.735,203.125,208.408,212.071,215.83,220.196,223.9048,227.334,234.14,238.505,242.167,246.559,249.901,255.184,259.549,267.683,272.868,277.233,280.896,285.261" svgx:width="0.32,0.5,0.32,0.22,0.55,0.56,0.29,0.29,0.45,0.45,0.32,0.26,0.46,0.45,0.55,0.67,0.59,0.36,0.33,0.56,0.68,0.55,0.53,0.38,0.45,0.45,0.32,0.26,0.45,0.45,0.38,0.55,0.52,0.45,0.55,0.55,0.54,0.38,0.38,0.45,0.38,0.55,0.7,0.45,0.38,0.45,0.55,0.54,0.45,0.83,0.53,0.45,0.38,0.45,0.53" style="fill:rgb(43,42,41);font-family:MhbxxvAdvOTa9103878;font-size:9.76px;stroke:none;">[7]. Effective TB-IPC practices by nurses were hampered</text>
   <text y="371.021" x="56.693,62.182,66.574,70.629,74.185,79.879,84.271,88.385,91.335,96.112,100.888,105.768,109.843,115.332,118.16239999999999,122.305,127.081,130.032,134.808,139.584,143.2928,147.348,154.262,160.0204,164.125,169.722,175.211,178.161,181.112,185.888,190.28,194.335,199.932,202.882,206.956,211.732,216.508,220.064,223.014,227.898,232.674,236.845,238.9922,243.076,246.593,252.287,256.67900000000003,260.734,263.685,268.461,273.237,278.117,282.251,287.74" svgx:width="0.52,0.45,0.55,0.32,0.54,0.45,0.55,0.26,0.45,0.45,0.5,0.55,0.52,0.29,0.55,0.45,0.26,0.45,0.45,0.38,0.55,0.67,0.59,0.55,0.53,0.52,0.26,0.26,0.45,0.45,0.55,0.53,0.26,0.38,0.45,0.45,0.32,0.26,0.46,0.45,0.38,0.22,0.55,0.32,0.54,0.45,0.55,0.26,0.45,0.45,0.5,0.55,0.52,0.29" style="fill:rgb(43,42,41);font-family:MhbxxvAdvOTa9103878;font-size:9.76px;stroke:none;">by the lack of clear TB policy directives, the lack of</text>
   <text y="382.981" x="56.693,61.342,66.812,72.281,76.228,81.59,87.059,91.005,93.829,98.478,101.907,106.29899999999999,110.071,112.905,116.949,122.311,125.134,129.784,133.213,136.036,141.398,146.766,150.636,153.763,158.412,163.061,165.885,168.708,171.483,174.912,177.687,182.336,186.0448,189.934,194.583,200.258,205.4308,209.33,213.979,218.687,223.337,226.16,228.984,233.633,238.995,241.819,244.642,247.417,250.846,255.238,259.069,264.431,267.2614,271.121,276.893,282.665,288.388" svgx:width="0.45,0.53,0.53,0.38,0.52,0.53,0.38,0.26,0.45,0.32,0.45,0.55,0.26,0.38,0.52,0.26,0.45,0.32,0.26,0.52,0.55,0.55,0.29,0.45,0.45,0.26,0.26,0.26,0.32,0.26,0.45,0.38,0.55,0.45,0.55,0.53,0.55,0.45,0.46,0.45,0.26,0.26,0.45,0.52,0.26,0.26,0.26,0.32,0.45,0.55,0.52,0.29,0.55,0.56,0.56,0.56,0.22" style="fill:rgb(43,42,41);font-family:MhbxxvAdvOTa9103878;font-size:9.76px;stroke:none;">appropriate isolation facilities and availability of PPE,</text>
   <text y="394.941" x="56.693,59.925,65.207,69.59899999999999,73.017,75.624,79.988,84.47,89.35,92.749,97.826,100.65639999999999,104.084,110.665,116.4234,119.852,123.084,126.745,131.188,133.794,139.184,141.849,147.239,151.9238,155.342,158.291,163.368,167.0768,170.476,174.234,177.447,181.928,184.769,187.5994,191.057,195.421,200.918,206.0908,209.48,214.753,219.117,222.349,224.955,229.32,234.816,238.048,241.807,243.9542,247.401,251.766,257.262,262.4348,265.825,270.217,273.587,278.771,283.223,286.963" svgx:width="0.32,0.54,0.45,0.55,0.26,0.45,0.45,0.5,0.55,0.52,0.29,0.55,0.67,0.59,0.55,0.32,0.38,0.45,0.26,0.55,0.26,0.55,0.48,0.55,0.29,0.52,0.38,0.55,0.38,0.32,0.45,0.29,0.29,0.55,0.45,0.55,0.53,0.55,0.53,0.45,0.32,0.26,0.45,0.55,0.32,0.38,0.22,0.55,0.45,0.55,0.53,0.55,0.45,0.55,0.53,0.45,0.38,0.36" style="fill:rgb(43,42,41);font-family:MhbxxvAdvOTa9103878;font-size:9.76px;stroke:none;">the lack of TB training for staff and patients, and a per-</text>
   <text y="406.902" x="56.693,60.452,62.99,66.749,69.893,74.257,79.647,82.7702,86.061,92.866,97.943,101.605,106.485,109.757,114.834,119.306,123.67,127.331,129.87,134.947,139.311,144.495" svgx:width="0.38,0.26,0.38,0.32,0.45,0.55,0.32,0.55,0.7,0.52,0.38,0.5,0.55,0.52,0.46,0.45,0.38,0.26,0.52,0.45,0.53,0.22" style="fill:rgb(43,42,41);font-family:MhbxxvAdvOTa9103878;font-size:9.76px;stroke:none;">sistent work overload.</text>
   <text y="418.862" x="64.689,71.27,76.659,81.051,84.48,87.428,90.035,95.424,100.745,103.411,108.8,113.614,117.3228,120.868,123.475,126.14,128.747,134.136,142.357,144.964,150.461,154.825,158.115,162.507,165.994,169.226,174.508,178.9,182.436,187.825,192.355,196.72,201.8928,205.448,208.397,213.552,217.2608,220.64,225.03199999999998,228.46,232.942,238.097,246.318,251.59,255.329,259.811,265.2,269.564,275.12,278.976,281.583,286.172" svgx:width="0.67,0.54,0.45,0.55,0.29,0.26,0.55,0.53,0.26,0.55,0.48,0.38,0.55,0.26,0.26,0.26,0.54,0.83,0.26,0.55,0.45,0.32,0.45,0.55,0.32,0.54,0.45,0.55,0.55,0.45,0.45,0.53,0.55,0.29,0.52,0.38,0.55,0.45,0.55,0.45,0.52,0.83,0.53,0.38,0.45,0.54,0.45,0.55,0.38,0.26,0.46,0.45" style="fill:rgb(43,42,41);font-family:MhbxxvAdvOTa9103878;font-size:9.76px;stroke:none;">The findings illuminate the need for a comprehensive</text>
   <text y="430.822" x="56.693,63.377,69.348,73.084,76.517,82.185,88.8218,92.443,97.809,103.067,105.787,108.507,113.102,117.648,119.7952,123.434,130.42,133.14,136.466,141.7364,145.425,149.97,153.911,157.851,163.11,167.656,170.376,174.922,178.247,182.842,188.0148,191.684,195.624,198.949,203.495,209.105,214.471,219.066,222.909,228.275,231.9838,235.701,238.763,244.021,247.72979999999998,251.33,256.696,260.539,265.798,270.451,273.171,277.111,279.831,285.09" svgx:width="0.67,0.59,0.36,0.33,0.56,0.68,0.55,0.53,0.52,0.26,0.26,0.45,0.45,0.22,0.55,0.7,0.26,0.32,0.54,0.55,0.45,0.38,0.38,0.52,0.45,0.26,0.45,0.32,0.45,0.53,0.55,0.38,0.32,0.45,0.55,0.53,0.45,0.38,0.53,0.38,0.55,0.29,0.52,0.38,0.55,0.53,0.38,0.52,0.46,0.26,0.38,0.26,0.52,0.55" style="fill:rgb(43,42,41);font-family:MhbxxvAdvOTa9103878;font-size:9.76px;stroke:none;">TB-IPC policy, with associated standards for provision</text>
   <text y="442.782" x="56.693,61.272,66.827,71.9998,75.732,81.121,84.997,89.576,94.106,97.455,100.208,104.739,109.318,111.4652,115.156,121.873,127.37,131.762,135.425,138.149,143.753,146.809,151.339,155.928,159.287,162.04,167.332,172.7,176.402,180.981,186.273,191.828,195.226,199.102,204.394,206.9316,210.632,216.022,221.314,224.067,226.82,231.35,235.742,239.454,247.792,253.23,257.194,260.3172,264.058,267.914,272.493,275.549,278.303,282.882,287.412" svgx:width="0.45,0.55,0.53,0.55,0.53,0.38,0.45,0.45,0.32,0.26,0.45,0.45,0.22,0.55,0.67,0.54,0.45,0.55,0.26,0.55,0.29,0.45,0.45,0.32,0.26,0.52,0.55,0.55,0.45,0.52,0.55,0.32,0.38,0.52,0.26,0.55,0.53,0.52,0.26,0.26,0.45,0.45,0.55,0.83,0.54,0.38,0.32,0.55,0.38,0.45,0.29,0.26,0.45,0.45,0.32" style="fill:rgb(43,42,41);font-family:MhbxxvAdvOTa9103878;font-size:9.76px;stroke:none;">and practice. The infection control policy must reflect</text>
   <text y="454.684" x="56.693,61.163,66.55,70.317,74.083,78.553,84.048,87.1712,90.685,95.467,100.855,103.499,108.788,113.258,115.902,118.546,124.041,128.511,132.2198,135.763,140.945,146.313,149.789,152.433,157.82,160.767,165.237,169.706,172.955,175.599,180.782,186.15,189.626,194.105,199.287,204.675,208.012,211.749,216.932,219.576,221.7232,225.188,229.667,233.3758,236.871,243.791,248.261,250.905,253.4426,256.917,261.396,265.1048,268.649,271.253,275.723,280.505,283.149,287.014" svgx:width="0.45,0.54,0.38,0.38,0.45,0.55,0.32,0.55,0.48,0.54,0.26,0.53,0.45,0.26,0.26,0.55,0.45,0.38,0.55,0.52,0.55,0.55,0.26,0.55,0.29,0.45,0.45,0.32,0.26,0.52,0.55,0.55,0.45,0.52,0.55,0.32,0.38,0.52,0.26,0.22,0.55,0.45,0.38,0.55,0.7,0.45,0.26,0.26,0.55,0.45,0.38,0.55,0.26,0.45,0.48,0.26,0.38,0.36" style="fill:rgb(43,42,41);font-family:MhbxxvAdvOTa9103878;font-size:9.76px;stroke:none;">current guidelines on infection control, as well as legis-</text>
   <text y="466.644" x="56.693,59.339,63.81,67.062,69.708,74.287,78.679,82.166,84.811,88.678,92.544,97.933,102.405,106.1138,109.659,114.131,119.628,124.8008,128.298,132.828,137.358,140.024,145.315,149.787,155.284,159.755,164.147,167.634,172.848,175.6784,179.194,183.676,189.172,194.669,200.059,204.53,207.0676,210.593,215.065,220.454,225.746,228.392,231.643,235.3518,238.956,242.207,247.597,252.068,255.837,260.309,265.493,268.3234,271.839,275.129,280.119,285.108,288.359" svgx:width="0.26,0.45,0.32,0.26,0.46,0.45,0.55,0.26,0.38,0.38,0.54,0.45,0.38,0.55,0.45,0.55,0.53,0.55,0.45,0.46,0.26,0.53,0.45,0.55,0.45,0.45,0.55,0.52,0.29,0.55,0.45,0.55,0.55,0.54,0.45,0.26,0.55,0.45,0.54,0.53,0.26,0.32,0.38,0.55,0.32,0.54,0.45,0.38,0.45,0.52,0.29,0.55,0.32,0.5,0.5,0.32,0.22" style="fill:rgb(43,42,41);font-family:MhbxxvAdvOTa9103878;font-size:9.76px;stroke:none;">lative issues and evidence of annual audits thereof [26].</text>
   <text y="478.604" x="56.693,59.944,63.0672,66.329,70.088,75.37,80.447,85.729,88.268,93.4408,96.664,101.028,103.567,107.326,112.40119999999999,115.654,120.731,125.12299999999999,128.356,130.895,136.263,139.467,142.005,144.544,149.933,154.325,157.549,164.354,166.892,170.036,175.3064,178.579,181.723,187.005,191.397,194.562,197.813,203.202,206.346,210.71,214.372,219.761,224.125,227.269,229.808,234.885,240.274,244.638,247.1756,250.457,255.437,258.58,262.945,268.334,273.518,277.883,281.544,286.728" svgx:width="0.33,0.32,0.55,0.38,0.54,0.52,0.54,0.26,0.53,0.55,0.45,0.26,0.38,0.52,0.55,0.52,0.45,0.55,0.26,0.55,0.55,0.26,0.26,0.55,0.45,0.55,0.7,0.26,0.32,0.54,0.55,0.32,0.54,0.45,0.55,0.33,0.55,0.32,0.45,0.38,0.55,0.45,0.32,0.26,0.52,0.55,0.45,0.26,0.55,0.51,0.32,0.45,0.55,0.53,0.45,0.38,0.53,0.38" style="fill:rgb(43,42,41);font-family:MhbxxvAdvOTa9103878;font-size:9.76px;stroke:none;">It should also be in line with the International Standards</text>
   <text y="490.564" x="56.693,59.534,64.748,68.4568,71.836,78.416,84.17439999999999,87.604,94.292,98.656,102.454,106.84599999999999,110.216,113.448,118.329,123.309,126.54,128.68720000000002,132.096,139.692,144.056,148.537,151.144,154.376,159.658,164.129,168.611,172.272,176.664,180.122,186.927,192.141,195.802,200.81,205.175,208.973,212.6818,216.119,220.484,225.024,230.413,235.91,241.065,244.1882,247.645,252.722,257.11400000000003,260.572,265.649,268.285,272.767,280.9,285.352" svgx:width="0.29,0.52,0.38,0.55,0.67,0.59,0.55,0.68,0.45,0.38,0.45,0.55,0.32,0.5,0.5,0.32,0.22,0.55,0.77,0.45,0.45,0.26,0.32,0.54,0.45,0.45,0.38,0.45,0.55,0.7,0.52,0.38,0.5,0.45,0.38,0.38,0.55,0.45,0.45,0.55,0.55,0.52,0.32,0.55,0.52,0.45,0.55,0.52,0.26,0.45,0.83,0.45,0.53" style="fill:rgb(43,42,41);font-family:MhbxxvAdvOTa9103878;font-size:9.76px;stroke:none;">for TB Care [27]. Healthcare workers cannot be blamed</text>
   <text y="502.524" x="56.693,59.534,64.689,68.39779999999999,71.66,76.024,81.297,86.481,89.02,93.481,96.02,101.478,106.16279999999999,109.532,112.071,117.46,121.825,126.989,132.379,136.226,138.764,142.523,145.745,150.109,155.499,158.6222,162.069,168.572,174.361,178.003,181.254,186.849,193.48579999999998,196.768,204.901,209.353,213.718,217.477,222.846,226.508,230.95,234.65879999999999,238.038,244.843,250.223,254.587,259.955,263.316,267.68,272.952,278.137,281.798,286.953" svgx:width="0.29,0.52,0.38,0.55,0.45,0.53,0.53,0.26,0.45,0.26,0.55,0.48,0.55,0.26,0.55,0.45,0.52,0.55,0.38,0.26,0.38,0.32,0.45,0.55,0.32,0.55,0.67,0.59,0.36,0.33,0.56,0.68,0.55,0.83,0.45,0.45,0.38,0.54,0.38,0.45,0.38,0.55,0.7,0.54,0.45,0.55,0.55,0.45,0.53,0.53,0.38,0.52,0.36" style="fill:rgb(43,42,41);font-family:MhbxxvAdvOTa9103878;font-size:9.76px;stroke:none;">for applying inconsistent TB-IPC measures when appro-</text>
   <text y="514.485" x="56.693,62.226,66.236,69.123,73.884,77.377,82.089,84.2362,88.208,92.921,97.634,102.395,107.108,111.216,115.323,118.21,123.636,126.523,130.915,134.858,139.619,145.357,150.5298,154.542,159.254,162.142,166.854,171.616,175.3248,179.268,184.254,189.884,192.771,198.304,203.066,205.953,208.84,214.578,219.291,222.9998,227.059,231.772,235.782,240.174,244.117,249.904,255.329,258.4522,262.415,265.302,273.783,279.316,282.203,286.916" svgx:width="0.53,0.38,0.26,0.45,0.32,0.45,0.22,0.55,0.45,0.45,0.45,0.45,0.38,0.38,0.26,0.52,0.26,0.45,0.55,0.45,0.55,0.53,0.55,0.45,0.26,0.45,0.45,0.38,0.55,0.48,0.54,0.26,0.53,0.45,0.26,0.26,0.55,0.45,0.38,0.55,0.45,0.38,0.45,0.55,0.55,0.52,0.32,0.55,0.26,0.83,0.53,0.26,0.45,0.36" style="fill:rgb(43,42,41);font-family:MhbxxvAdvOTa9103878;font-size:9.76px;stroke:none;">priate, accessible and clear guidelines are not imple-</text>
   <text y="526.445" x="56.693,65.259,70.018,75.802,79.321,84.118,89.678,91.8252,95.911,104.418,109.929,115.713,118.685,122.203,127.714,131.809,136.567,141.7398,145.807,150.605,156.389,161.5618,165.629,170.388,175.264,180.022,182.994,188.661,193.459,196.977,201.736,207.344,209.4912,213.518,220.835,225.633,230.392,235.834,239.919,245.537,248.43,254.253,258.9378,262.986,266.563,271.6382,275.686,281.196,286.863" svgx:width="0.83,0.45,0.55,0.32,0.45,0.53,0.22,0.55,0.83,0.52,0.55,0.26,0.32,0.52,0.38,0.45,0.53,0.55,0.45,0.55,0.53,0.55,0.45,0.46,0.45,0.26,0.54,0.45,0.32,0.45,0.53,0.22,0.55,0.71,0.45,0.45,0.52,0.38,0.53,0.26,0.55,0.48,0.55,0.32,0.52,0.55,0.52,0.54,0.38" style="fill:rgb(43,42,41);font-family:MhbxxvAdvOTa9103878;font-size:9.76px;stroke:none;">mented, monitored and evaluated. According to our</text>
   <text y="538.405" x="56.693,61.057,65.831,71.016,75.38,79.041,81.58,85.944,91.333,95.815,100.179,103.938,106.0852,109.366,113.731,119.12,124.2928,127.624,130.163,135.531,138.852,141.39,143.929,149.318,153.71,156.992,163.797,166.336,169.48,174.75039999999998,178.081,180.62,186.009,189.153,193.517,197.178,202.568,206.932,210.076,212.722,217.799,223.188,227.552,230.091,232.629,237.021,240.333,244.697,249.374,253.035,257.399,261.763,266.9358,270.326,274.085,277.229,281.593,286.982" svgx:width="0.45,0.49,0.53,0.45,0.38,0.26,0.45,0.55,0.45,0.45,0.38,0.22,0.55,0.45,0.55,0.53,0.55,0.26,0.55,0.55,0.26,0.26,0.55,0.45,0.55,0.7,0.26,0.32,0.54,0.55,0.26,0.55,0.32,0.45,0.38,0.55,0.45,0.32,0.26,0.52,0.55,0.45,0.26,0.26,0.45,0.55,0.45,0.48,0.38,0.45,0.45,0.53,0.55,0.38,0.32,0.45,0.55,0.36" style="fill:rgb(43,42,41);font-family:MhbxxvAdvOTa9103878;font-size:9.76px;stroke:none;">experiences, and in line with internationally agreed stan-</text>
   <text y="550.306" x="56.693,62.065,66.616,70.465,75.837,79.783,81.9302,85.565,89.004,94.678,101.31479999999999,104.942,110.274,114.123,118.675,123.227,126.558,129.284,133.835,138.387,142.0958,145.76,149.707,155.176,160.441,165.91,168.636,173.8088,177.484,180.21,185.787,190.338,193.064,198.534,203.905,208.457,210.6042,214.239,218.088,222.639,228.011,230.737,235.9098,239.585,244.117,246.843,249.569,255.146,257.872,262.423,266.975,269.5126,273.157,277.709,282.368,286.92" svgx:width="0.53,0.45,0.38,0.53,0.38,0.22,0.55,0.33,0.56,0.68,0.55,0.53,0.38,0.45,0.45,0.32,0.26,0.45,0.45,0.38,0.55,0.38,0.54,0.52,0.54,0.26,0.53,0.55,0.26,0.55,0.45,0.26,0.54,0.53,0.45,0.22,0.55,0.38,0.45,0.53,0.26,0.53,0.55,0.45,0.26,0.26,0.55,0.26,0.45,0.45,0.26,0.55,0.45,0.46,0.45,0.36" style="fill:rgb(43,42,41);font-family:MhbxxvAdvOTa9103878;font-size:9.76px;stroke:none;">dards, IPC practices should include: rapid clinical eva-</text>
   <text y="562.267" x="56.693,59.616,65.283,70.032,73.56,76.483,81.945,87.31299999999999,91.351,94.87,101.757,107.931,111.87,115.398,119.444,122.367,127.077,132.119,136.868,139.9912,144.009,149.471,152.3014,156.328,161.038,163.981,166.5186,170.497,176.056,180.805,184.851,188.995,194.456,200.182,203.89079999999998,208.006,211.535,215.62,219.148,223.858,227.084,230.31,232.4572,236.435,242.004,246.753,250.282,253.205,257.954,263.679,267.207,270.9158,274.973,279.722,285.496" svgx:width="0.26,0.54,0.45,0.32,0.26,0.52,0.55,0.55,0.32,0.67,0.59,0.36,0.32,0.38,0.26,0.45,0.48,0.45,0.32,0.55,0.52,0.29,0.55,0.45,0.26,0.26,0.55,0.53,0.45,0.38,0.38,0.52,0.55,0.38,0.55,0.32,0.38,0.32,0.45,0.29,0.29,0.22,0.55,0.53,0.45,0.32,0.26,0.45,0.55,0.32,0.38,0.55,0.45,0.55,0.53" style="fill:rgb(43,42,41);font-family:MhbxxvAdvOTa9103878;font-size:9.76px;stroke:none;">luation (TB-triage) of all persons (staff, patients and</text>
   <text y="574.227" x="56.693,61.223,63.762,67.521,70.059,73.359,78.436,82.097,85.944,89.0672,92.466,99.271,101.81,105.051,110.3214,113.721,117.48,121.844,129.977,135.318,138.461,143.538,151.759,155.46779999999998,158.906,162.665,168.035,172.711,177.388,181.752,185.609,188.841,191.379,195.929,200.321,203.642,208.719,211.5494,214.977,221.48,227.269,229.4162,232.834,236.593,240.958,245.634,249.442,253.806,258.483,262.935,266.079,268.715,273.792,279.15999999999997,282.55,287.705" svgx:width="0.46,0.26,0.38,0.26,0.32,0.52,0.38,0.38,0.32,0.55,0.7,0.26,0.32,0.54,0.55,0.38,0.45,0.83,0.53,0.32,0.52,0.83,0.38,0.55,0.38,0.54,0.48,0.48,0.45,0.38,0.32,0.26,0.46,0.45,0.55,0.52,0.29,0.55,0.67,0.59,0.22,0.55,0.38,0.45,0.48,0.38,0.45,0.48,0.45,0.32,0.26,0.52,0.55,0.55,0.52,0.29" style="fill:rgb(43,42,41);font-family:MhbxxvAdvOTa9103878;font-size:9.76px;stroke:none;">visitors) with symptoms suggestive of TB, segregation of</text>
   <text y="586.187" x="56.693,61.877,66.329,69.561,72.1,76.532,81.922,85.153,88.8618,92.3,99.105,101.771,104.914,110.1844,113.623,118.505,123.894,129.098,135.903,141.271,144.69,149.845,153.5538,156.875,160.634,166.004,169.763,175.016,179.38,183.861,187.093,191.457,196.6298,200.02,205.292,210.574,213.112,221.392,226.469,231.936,236.3,240.04,244.432,247.802,254.304,260.094,262.2412,265.659,271.048,274.807,279.199,282.559,287.714" svgx:width="0.53,0.45,0.32,0.26,0.45,0.55,0.32,0.38,0.55,0.7,0.26,0.32,0.54,0.55,0.5,0.55,0.52,0.7,0.55,0.55,0.52,0.38,0.55,0.38,0.54,0.38,0.53,0.45,0.45,0.32,0.45,0.53,0.55,0.53,0.54,0.26,0.83,0.52,0.55,0.45,0.38,0.45,0.55,0.67,0.59,0.22,0.55,0.54,0.38,0.45,0.55,0.52,0.29" style="fill:rgb(43,42,41);font-family:MhbxxvAdvOTa9103878;font-size:9.76px;stroke:none;">patients with known or suspected pulmonary TB, use of</text>
   <text y="598.147" x="56.693,61.391,64.566,67.741,72.39,77.089,80.566,83.439,88.205,92.597,96.535,99.369,104.78,109.429,114.127,116.6646,120.592,125.291,130.399,136.015,140.713,146.27,150.353,153.4762,157.443,162.259,166.957,172.622,176.099,178.972,181.844,186.493,189.971,192.844,198.254,203.62199999999999,207.61,210.482,215.85,219.779,224.477,229.888,235.553,241.276,245.974,250.672,254.15,257.022,262.433,267.801,271.73,278.869,281.741,285.219" svgx:width="0.45,0.29,0.29,0.45,0.45,0.32,0.26,0.46,0.45,0.55,0.26,0.52,0.45,0.45,0.26,0.55,0.45,0.49,0.54,0.45,0.54,0.38,0.32,0.55,0.46,0.45,0.55,0.32,0.26,0.26,0.45,0.32,0.26,0.52,0.55,0.55,0.26,0.55,0.55,0.45,0.52,0.55,0.55,0.45,0.45,0.32,0.26,0.52,0.55,0.55,0.7,0.26,0.32,0.54" style="fill:rgb(43,42,41);font-family:MhbxxvAdvOTa9103878;font-size:9.76px;stroke:none;">effective local exhaust ventilation in connection with</text>
   <text y="610.107" x="56.693,62.253,65.07,70.025,75.585,79.417,83.357,86.173,90.211,95.091,98.944,104.387,108.327,113.682,118.324,122.967,128.429,133.99,137.929,142.572,146.609,148.7562,152.56,157.212,165.623,171.086,173.903,179.326,183.969,188.611,193.003,196.827,200.249,204.189,208.831,211.648,217.315,220.132,225.8,230.755,232.9022,236.706,241.358,247.026,252.1988,256.042,261.397,267.065,272.02,277.375,280.192,285.859" svgx:width="0.54,0.26,0.48,0.54,0.36,0.38,0.26,0.38,0.5,0.55,0.53,0.38,0.52,0.45,0.45,0.53,0.54,0.38,0.45,0.38,0.22,0.55,0.45,0.83,0.53,0.26,0.52,0.45,0.45,0.45,0.55,0.32,0.38,0.45,0.26,0.55,0.26,0.55,0.48,0.22,0.55,0.45,0.55,0.53,0.55,0.52,0.55,0.48,0.52,0.26,0.55,0.48" style="fill:rgb(43,42,41);font-family:MhbxxvAdvOTa9103878;font-size:9.76px;stroke:none;">high-risk procedures, employee training, and ongoing</text>
   <text y="622.067" x="56.693,60.463,63.109,66.977,71.857,75.364,79.73,83.695,87.562,92.034,95.902,99.769,108.01,112.483,117.981,121.10419999999999,124.611,127.844,132.834,137.824,141.076,143.2232,146.691,152.306,156.173,161.466,165.938,170.411,173.058,177.531,180.177,182.824,187.216,190.646,195.938,200.304,204.161,207.394,210.041,214.513,217.16,222.453,226.818,232.374,235.627,239.3358,242.823,245.773,249.542,254.728,262.8288,266.347,273.261,277.733,281.503,286.796" svgx:width="0.38,0.26,0.38,0.5,0.55,0.45,0.38,0.38,0.45,0.38,0.38,0.83,0.45,0.55,0.32,0.55,0.32,0.5,0.5,0.32,0.22,0.55,0.56,0.38,0.53,0.45,0.45,0.26,0.45,0.26,0.26,0.45,0.55,0.53,0.45,0.38,0.32,0.26,0.45,0.26,0.53,0.45,0.55,0.32,0.38,0.55,0.29,0.38,0.52,0.83,0.55,0.7,0.45,0.38,0.53,0.38" style="fill:rgb(43,42,41);font-family:MhbxxvAdvOTa9103878;font-size:9.76px;stroke:none;">risk assessment [28]. Especially participants from wards</text>
   <text y="634.028" x="56.693,63.498,66.036,69.278,74.56,79.705,84.987,88.11019999999999,91.558,98.06,103.85,107.541,111.202,116.279,121.659,124.802,127.341,132.828,137.22,140.541,144.905,150.06,158.193,163.378,166.043,170.407,173.014,178.403,182.768,187.9408,191.379,194.523,199.883,204.247,207.3702,210.769,215.954,220.406,223.549,226.186,230.55,235.939,239.171,242.8798,246.318,253.123,257.487,261.226,265.618,268.988,277.121,281.485,286.963" svgx:width="0.7,0.26,0.32,0.54,0.52,0.54,0.32,0.55,0.67,0.59,0.36,0.38,0.52,0.54,0.32,0.26,0.55,0.45,0.55,0.45,0.52,0.83,0.53,0.26,0.45,0.26,0.55,0.45,0.53,0.55,0.32,0.54,0.45,0.32,0.55,0.53,0.45,0.32,0.26,0.45,0.55,0.32,0.38,0.55,0.7,0.45,0.38,0.45,0.55,0.83,0.45,0.55,0.36" style="fill:rgb(43,42,41);font-family:MhbxxvAdvOTa9103878;font-size:9.76px;stroke:none;">without TB-routine complained that patients were man-</text>
   <text y="645.929" x="56.693,61.057,65.734,70.098,75.2708,78.573,81.111,86.501,90.865,96.049,100.413,105.598,110.88,115.244,118.388,122.752,125.291,129.683,133.052,139.858,142.396,145.54,150.8104,154.141,157.803,162.167,166.844,171.208,174.869,180.0418,183.393,186.536,191.6112,194.904,201.406,207.196,209.3432,212.644,219.146,224.428,228.792,232.454,236.846,240.137,246.942,251.307,255.01579999999998,258.336,263.726,268.8012,272.113,276.477,281.554,286.943" svgx:width="0.45,0.48,0.45,0.53,0.55,0.26,0.55,0.45,0.53,0.45,0.53,0.54,0.45,0.32,0.45,0.26,0.45,0.55,0.7,0.26,0.32,0.54,0.55,0.38,0.45,0.48,0.45,0.38,0.53,0.55,0.32,0.52,0.55,0.67,0.59,0.22,0.55,0.67,0.54,0.45,0.38,0.45,0.55,0.7,0.45,0.38,0.55,0.55,0.52,0.55,0.45,0.52,0.55,0.36" style="fill:rgb(43,42,41);font-family:MhbxxvAdvOTa9103878;font-size:9.76px;stroke:none;">aged inadequately with regard to TB. There was no con-</text>
   <text y="657.889" x="56.693,60.72,63.527,67.555,70.967,75.6,81.258,84.38119999999999,88.234,94.975,101.033,104.856,108.268,112.198,115.005,119.638,124.583,128.975,132.75,138.134,142.52599999999998,146.301,151.959,157.51,161.44,165.467,170.1,173.8088,177.7,183.046,188.414,192.287,197.74,202.373,205.785,208.592,213.225,218.882,222.0052,225.858,230.511,235.964,244.365,247.172,251.199,255.227,258.034,263.379,269.037,271.1842,274.988,279.64,285.298" svgx:width="0.38,0.26,0.38,0.32,0.45,0.55,0.32,0.55,0.67,0.59,0.36,0.32,0.38,0.26,0.45,0.48,0.45,0.55,0.52,0.45,0.55,0.55,0.54,0.38,0.38,0.45,0.38,0.55,0.52,0.55,0.55,0.53,0.45,0.32,0.26,0.45,0.55,0.32,0.55,0.45,0.53,0.83,0.26,0.38,0.38,0.26,0.52,0.55,0.22,0.55,0.45,0.55,0.53" style="fill:rgb(43,42,41);font-family:MhbxxvAdvOTa9103878;font-size:9.76px;stroke:none;">sistent TB-triage by nurses on patient admission, and</text>
   <text y="669.849" x="56.693,60.622,66.074,70.002,75.357,79.891,84.366,87.68,92.214,97.3868,101.005,107.638,113.3964,117.044,121.579,126.113,130.041,134.576,138.2848,141.941,148.916,153.392,157.223,161.615,165.155,170.714,175.961,179.0842,182.711,185.371,190.93,195.464,198.172,203.624,208.979,213.513,218.6858,222.304,225.022,230.39,233.979,240.671,246.63,250.354,253.775,259.432,266.0688,269.639,277.912,282.446,286.98" svgx:width="0.38,0.54,0.38,0.53,0.45,0.45,0.32,0.45,0.53,0.55,0.67,0.59,0.55,0.45,0.45,0.38,0.45,0.38,0.55,0.7,0.45,0.38,0.45,0.55,0.55,0.52,0.32,0.55,0.26,0.55,0.45,0.26,0.54,0.53,0.45,0.53,0.55,0.26,0.55,0.55,0.67,0.59,0.36,0.33,0.56,0.68,0.55,0.83,0.45,0.45,0.36" style="fill:rgb(43,42,41);font-family:MhbxxvAdvOTa9103878;font-size:9.76px;stroke:none;">suspected TB cases were not included in TB-IPC mea-</text>
   <text y="681.81" x="56.693,60.675,66.181,70.066,74.654,78.3628,82.141,86.114,91.668,96.256,101.5264,105.267,109.855,113.5638,117.342,120.124,124.106,129.407,132.169,136.757,140.124,142.886,148.187,153.555,157.315,161.902,167.515,172.68779999999998,176.477,181.973,185.955,190.543,195.444,199.83599999999998,203.497,208.798,211.6284,215.377,221.088,226.799,232.509,234.65619999999998,238.405,246.225,251.593,255.353,258.749,262.634,267.222,272.835,276.818,279.931,284.519,288.404" svgx:width="0.38,0.54,0.38,0.45,0.38,0.55,0.38,0.54,0.45,0.54,0.55,0.45,0.38,0.55,0.26,0.38,0.52,0.26,0.45,0.32,0.26,0.52,0.55,0.55,0.45,0.55,0.53,0.55,0.54,0.38,0.45,0.48,0.45,0.55,0.52,0.29,0.55,0.56,0.56,0.56,0.22,0.55,0.78,0.55,0.55,0.32,0.38,0.45,0.55,0.38,0.29,0.45,0.38,0.22" style="fill:rgb(43,42,41);font-family:MhbxxvAdvOTa9103878;font-size:9.76px;stroke:none;">sures such as isolation and usage of PPE. On transfer,</text>
   <text y="693.77" x="56.693,61.868,67.356,69.994,74.386,77.815,83.098,87.561,90.803,93.44,97.903,103.294,106.634,110.3428,113.83,120.734,123.371,126.613,131.8834,135.343,144.492,151.708,157.802,161.454,168.055,173.8134,177.351,184.255,188.717,192.477,196.869,200.299,205.679,209.537,214.918,219.38,222.018,224.655,229.047,232.476,237.808,241.568,246.743,251.314,253.951,259.234,263.697,268.8698,272.367,279.281,281.918,285.209" svgx:width="0.52,0.55,0.26,0.45,0.55,0.53,0.45,0.32,0.26,0.45,0.55,0.32,0.38,0.55,0.7,0.26,0.32,0.54,0.55,0.93,0.73,0.61,0.36,0.67,0.59,0.55,0.7,0.45,0.38,0.45,0.55,0.54,0.38,0.54,0.45,0.26,0.26,0.45,0.55,0.53,0.38,0.52,0.46,0.26,0.53,0.45,0.53,0.55,0.7,0.26,0.32,0.54" style="fill:rgb(43,42,41);font-family:MhbxxvAdvOTa9103878;font-size:9.76px;stroke:none;">only patients with MDR-TB were usually provided with</text>
   <text y="705.73" x="56.693,65.224,69.987,74.144,79.424,83.581,85.7282,89.76,97.783,101.325,107.006,111.768,115.4768,119.479,125.375,132.275,138.0334,142.144,147.727,152.489,156.032,158.968,163.731,169.519,173.061,177.218,179.3652,183.396,188.159,193.634,199.422,202.662,205.598,209.658,218.189,222.952,228.1248,232.196,237.671,241.3798,245.382,249.54,255.22,259.377,264.96,269.722,274.485,278.027,282.79,288.372" svgx:width="0.83,0.45,0.38,0.5,0.38,0.22,0.55,0.78,0.32,0.54,0.45,0.38,0.55,0.56,0.67,0.59,0.55,0.53,0.45,0.32,0.26,0.45,0.55,0.32,0.38,0.22,0.55,0.45,0.52,0.55,0.29,0.26,0.38,0.83,0.45,0.53,0.55,0.52,0.38,0.55,0.38,0.54,0.38,0.53,0.45,0.45,0.32,0.45,0.53,0.22" style="fill:rgb(43,42,41);font-family:MhbxxvAdvOTa9103878;font-size:9.76px;stroke:none;">masks. Other PTB patients, confirmed or suspected,</text>
   <text y="717.69" x="56.693,63.498,67.862,71.602,75.994,79.315,84.499,88.863,93.228,95.873,98.9962,102.337,109.142,111.68,114.824,120.0944,123.484,128.561,132.953,136.294,140.658,145.94,150.412,155.801,160.165,164.53,166.6772,170.026,175.211,179.575,184.759,189.241,194.63,199.815,204.179,209.646,212.76919999999998,216.11,221.187,226.555,229.945,232.483,237.872,243.057,245.595,250.067,252.732,257.917,263.199,267.641,270.1786,273.479,277.238,280.451,284.815,287.656" svgx:width="0.7,0.45,0.38,0.45,0.55,0.53,0.45,0.45,0.26,0.32,0.55,0.7,0.26,0.32,0.54,0.55,0.52,0.45,0.55,0.45,0.54,0.45,0.55,0.45,0.45,0.22,0.55,0.53,0.45,0.53,0.45,0.55,0.53,0.45,0.55,0.32,0.55,0.52,0.55,0.55,0.26,0.55,0.53,0.26,0.46,0.26,0.53,0.54,0.45,0.26,0.55,0.38,0.32,0.45,0.29,0.29" style="fill:rgb(43,42,41);font-family:MhbxxvAdvOTa9103878;font-size:9.76px;stroke:none;">were dealt with by chance, dependant on individual staff</text>
   <text y="729.65" x="56.693,62.14,66.064,70.691,75.318,78.724,81.525,86.152,90.779,94.8,96.9472,100.755,107.68459999999999,111.474,114.275,118.902,122.826,127.766,132.15800000000002,135.985,141.481,146.87,150.891,156.338,159.139,162.546,167.173,169.7106,173.518,180.547,183.348,186.754,192.299,197.638,203.183,206.3062,210.153,215.493,220.12,224.141,226.942,231.334,235.103,243.489,248.116,252.743,256.764,262.309,266.233,270.86,274.5688,278.396,281.51,286.849" svgx:width="0.53,0.38,0.45,0.45,0.32,0.26,0.45,0.45,0.38,0.22,0.55,0.71,0.55,0.26,0.45,0.38,0.48,0.45,0.55,0.54,0.52,0.38,0.53,0.26,0.32,0.45,0.26,0.55,0.7,0.26,0.32,0.54,0.52,0.54,0.32,0.55,0.52,0.45,0.38,0.26,0.45,0.55,0.83,0.45,0.45,0.38,0.54,0.38,0.45,0.38,0.55,0.29,0.52,0.38" style="fill:rgb(43,42,41);font-family:MhbxxvAdvOTa9103878;font-size:9.76px;stroke:none;">practices. A large hospital without basic measures for</text>
   <text y="95.996" x="304.722,309.446,312.392,316.413,321.849,327.285,331.306,337.055,341.447,345.391,349.001,354.848,361.817,363.9642,367.936,372.66,378.096,386.588,392.025,394.922,400.671,405.395,410.5678,414.58,421.744,424.691,428.194,433.4644,437.487,440.99,446.631,451.02299999999997,454.967,460.638,463.536,468.572,473.8424,477.816,485.693,489.303,496.0374,500.022,502.919,508.668,511.868,516.592,521.315,524.819,527.716,533.153" svgx:width="0.45,0.26,0.38,0.52,0.52,0.38,0.55,0.45,0.55,0.33,0.56,0.68,0.22,0.55,0.45,0.52,0.83,0.52,0.26,0.55,0.45,0.53,0.55,0.7,0.26,0.32,0.54,0.55,0.32,0.54,0.45,0.55,0.54,0.26,0.48,0.54,0.55,0.77,0.33,0.69,0.55,0.26,0.55,0.29,0.45,0.45,0.32,0.26,0.52,0.55" style="fill:rgb(43,42,41);font-family:MhbxxvAdvOTa9103878;font-size:9.76px;stroke:none;">airborne IPC, combined with the high HIV infection</text>
   <text y="107.956" x="304.722,310.007,313.769,318.234,322.767,327.232,329.871,334.336,339.826,344.193,348.585,352.075,356.54,364.773,369.951,375.441,380.12579999999997,383.606,388.881,393.248,396.541,399.18,403.548,409.106,412.34,416.04879999999997,419.598,423.965,429.523,434.6958,438.137,442.71,445.349,449.208,451.847,455.091,460.269,464.031,467.89,470.0372,473.507,477.874,483.15,488.434,491.142,496.3148,499.756,505.041,508.803,513.98,518.514,521.153,526.438,530.83,534.319" svgx:width="0.53,0.38,0.45,0.46,0.45,0.26,0.45,0.55,0.45,0.45,0.55,0.45,0.83,0.52,0.55,0.48,0.55,0.53,0.45,0.32,0.26,0.45,0.55,0.32,0.38,0.55,0.45,0.55,0.53,0.55,0.46,0.26,0.38,0.26,0.32,0.52,0.38,0.38,0.22,0.55,0.45,0.52,0.54,0.26,0.53,0.55,0.53,0.38,0.52,0.46,0.26,0.53,0.45,0.55,0.45" style="fill:rgb(43,42,41);font-family:MhbxxvAdvOTa9103878;font-size:9.76px;stroke:none;">prevalence among patients and visitors, could provide a</text>
   <text y="119.916" x="304.722,309.907,313.568,316.106,324.239,328.631,331.874,335.633,339.997,343.141,346.285,348.824,354.213,358.8978,362.151,364.992,370.069,373.7778,377.001,380.145,385.427,389.819,393.101,396.762,401.126,406.311,408.849,414.0218,417.304,421.063,426.247,429.909,434.273,438.637,443.8098,447.073,452.15,454.9804,458.242,464.744,470.534" svgx:width="0.53,0.38,0.26,0.83,0.45,0.55,0.38,0.45,0.32,0.32,0.26,0.55,0.48,0.55,0.29,0.52,0.38,0.55,0.32,0.54,0.45,0.55,0.38,0.45,0.53,0.26,0.53,0.55,0.38,0.53,0.38,0.45,0.45,0.53,0.55,0.52,0.29,0.55,0.67,0.59,0.22" style="fill:rgb(43,42,41);font-family:MhbxxvAdvOTa9103878;font-size:9.76px;stroke:none;">prime setting for the rapid spread of TB.</text>
   <text y="131.876" x="312.719,322.751,328.078,331.96,336.84,340.577,345.982,349.864,354.4,358.995,362.36,365.119,369.704,374.288,377.9968,381.773,386.358,391.968,397.1408,400.868,405.463,410.868,419.222,421.981,427.591,430.35,434.329,437.694,441.576,446.161,449.525,452.284,456.928,461.32,465.037,469.622,474.92,480.53,483.894,487.776,493.074,495.6116,499.367,507.701,512.286,516.871,520.851,526.353,530.235,534.82" svgx:width="1.01,0.52,0.38,0.5,0.55,0.53,0.38,0.45,0.45,0.32,0.26,0.45,0.45,0.38,0.55,0.45,0.55,0.53,0.55,0.45,0.53,0.83,0.26,0.55,0.26,0.38,0.32,0.38,0.45,0.32,0.26,0.46,0.45,0.55,0.45,0.52,0.55,0.32,0.38,0.52,0.26,0.55,0.83,0.45,0.45,0.38,0.54,0.38,0.45,0.38" style="fill:rgb(43,42,41);font-family:MhbxxvAdvOTa9103878;font-size:9.76px;stroke:none;">Work practices and administrative control measures</text>
   <text y="143.836" x="304.722,309.489,313.552,317.944,322.0,325.516,331.201,335.593,339.648,342.891,345.832,349.896,354.057,357.1802,361.313,364.254,367.194,372.986,377.378,381.433,386.874,389.7044,393.788,399.404,404.17,407.414,412.18,417.972,422.738,427.13,431.186,436.001,441.051,445.817,448.758,454.549,458.711,461.8342,465.967,472.881,478.63939999999997,482.744,486.261,490.325,495.091,500.883,505.044,513.579,516.52,520.681,524.842,527.783,533.262" svgx:width="0.45,0.38,0.45,0.55,0.32,0.54,0.45,0.55,0.29,0.26,0.38,0.38,0.32,0.55,0.26,0.26,0.55,0.45,0.55,0.52,0.29,0.55,0.53,0.45,0.29,0.45,0.55,0.45,0.45,0.55,0.45,0.48,0.45,0.26,0.55,0.38,0.32,0.55,0.67,0.59,0.55,0.32,0.38,0.45,0.55,0.38,0.83,0.26,0.38,0.38,0.26,0.52,0.55" style="fill:rgb(43,42,41);font-family:MhbxxvAdvOTa9103878;font-size:9.76px;stroke:none;">are the first line of defence against TB transmission</text>
   <text y="155.797" x="304.722,311.528,314.068,317.31,322.593,325.133,330.501,333.862,336.704,341.069,345.542,348.082,350.621,353.16,356.305,358.845,363.347,367.0558,370.436,374.801,379.166,382.907,385.446,390.836,395.5208,398.892,401.734,406.812,410.5208,413.804,418.989,423.442,428.52,433.706,436.245,440.637,443.969,450.775,453.314,456.557,461.8274,465.169,472.688,475.94,482.6744,486.036,488.576,494.035,496.877,501.242,505.607,508.752,511.389,516.467,521.835,525.226,528.37,533.253,536.398" svgx:width="0.7,0.26,0.32,0.54,0.26,0.55,0.55,0.29,0.45,0.45,0.26,0.26,0.26,0.32,0.26,0.45,0.38,0.55,0.45,0.45,0.38,0.26,0.55,0.48,0.55,0.29,0.52,0.38,0.55,0.53,0.45,0.52,0.53,0.26,0.45,0.55,0.7,0.26,0.32,0.54,0.55,0.77,0.33,0.69,0.55,0.26,0.55,0.29,0.45,0.45,0.32,0.26,0.52,0.55,0.55,0.32,0.5,0.32,0.22" style="fill:rgb(43,42,41);font-family:MhbxxvAdvOTa9103878;font-size:9.76px;stroke:none;">within facilities caring for people with HIV infection [5].</text>
   <text y="167.698" x="304.722,311.6516,314.925,320.109,323.771,328.135,332.607,335.223,340.3,345.582,349.2908,352.68,356.439,359.583,364.865,370.049,374.441,377.743,381.404,385.768,390.953,396.03,399.691,402.835,407.199,412.3718,415.781,418.925,424.207,428.571,431.6942,435.054,439.418,442.5412,445.882,449.025,454.307,458.699,462.04,467.322,472.399,476.158,481.342,483.881,487.025,491.389,493.9266,497.305,502.187,507.069,513.9010000000001,517.203,520.347,525.229,530.11,534.992" svgx:width="0.71,0.55,0.53,0.38,0.45,0.46,0.26,0.52,0.54,0.38,0.55,0.38,0.32,0.54,0.53,0.45,0.55,0.38,0.45,0.53,0.52,0.38,0.32,0.45,0.53,0.55,0.32,0.54,0.45,0.32,0.55,0.45,0.32,0.55,0.32,0.54,0.45,0.55,0.54,0.52,0.38,0.53,0.26,0.32,0.45,0.26,0.55,0.5,0.5,0.7,0.55,0.32,0.5,0.5,0.5,0.36" style="fill:rgb(43,42,41);font-family:MhbxxvAdvOTa9103878;font-size:9.76px;stroke:none;">A previous study reported that at the hospital 54% (107/</text>
   <text y="179.658" x="304.722,309.772,314.822,319.871,322.9942,326.62,331.865,334.6954,338.271,344.942,350.7004,354.355,359.708,364.24,367.552,370.258,374.79,380.348,383.659,387.3678,391.033,398.006,402.538,406.367,410.759,414.355,422.041,425.46,432.336,436.058,441.41,446.655,450.582,453.288,456.6,459.306,463.946,468.338,471.934,476.466,482.024,487.1968,490.813,496.028,501.586,505.978,509.574,512.583,515.289,518.299,521.61,526.8804,530.507,535.781" svgx:width="0.5,0.5,0.5,0.32,0.55,0.52,0.29,0.55,0.67,0.59,0.55,0.53,0.45,0.32,0.26,0.45,0.55,0.32,0.38,0.55,0.7,0.45,0.38,0.45,0.55,0.77,0.33,0.69,0.36,0.53,0.52,0.38,0.26,0.32,0.26,0.46,0.45,0.55,0.45,0.55,0.53,0.55,0.52,0.55,0.45,0.55,0.29,0.26,0.29,0.32,0.54,0.55,0.52,0.29" style="fill:rgb(43,42,41);font-family:MhbxxvAdvOTa9103878;font-size:9.76px;stroke:none;">199) of TB patients were HIV-positive and one fifth of</text>
   <text y="191.619" x="304.722,310.278,316.78,322.53839999999997,325.977,331.162,335.614,338.845,341.384,345.816,351.206,354.437,358.1458,361.584,368.389,372.861,376.6,380.992,384.313,389.498,392.134,396.498,401.263,406.652,411.866,415.625,420.086,425.2588,428.649,433.726,439.094,442.542,449.347,453.819,457.48,462.665,466.3738,469.86,476.665,479.331,482.475,487.835,492.99,498.272,501.3952,504.843,511.423,517.213,520.767,524.574,529.651,535.002" svgx:width="0.56,0.67,0.59,0.55,0.53,0.45,0.32,0.26,0.45,0.55,0.32,0.38,0.55,0.7,0.45,0.38,0.45,0.55,0.53,0.26,0.45,0.48,0.55,0.52,0.38,0.45,0.53,0.55,0.52,0.55,0.55,0.7,0.45,0.38,0.53,0.38,0.55,0.7,0.26,0.32,0.54,0.52,0.54,0.32,0.55,0.67,0.59,0.36,0.38,0.52,0.54,0.36" style="fill:rgb(43,42,41);font-family:MhbxxvAdvOTa9103878;font-size:9.76px;stroke:none;">PTB patients were diagnosed on wards without TB-rou-</text>
   <text y="203.579" x="304.722,308.058,310.789,316.371,320.763,324.423,327.759,332.833,336.12,338.2672,341.956,349.666,353.071,359.8054,363.446,366.226,371.808,374.841,379.398,383.954,387.29,391.847,397.0198,400.69,406.076,410.633,414.486,418.438,423.707,429.289,432.9978,436.716,445.041,450.515,454.466,457.5892,461.269,466.538,470.93,474.59,479.966,483.82,489.089,492.426,496.982,501.539,504.875,509.431,514.6038,518.274,521.308,525.161,530.431" svgx:width="0.32,0.26,0.55,0.45,0.55,0.32,0.5,0.32,0.22,0.55,0.77,0.33,0.69,0.55,0.26,0.55,0.29,0.45,0.45,0.32,0.45,0.53,0.55,0.53,0.45,0.38,0.38,0.52,0.55,0.38,0.55,0.83,0.54,0.38,0.32,0.55,0.52,0.45,0.55,0.53,0.38,0.52,0.32,0.45,0.45,0.32,0.45,0.53,0.55,0.29,0.38,0.52,0.83" style="fill:rgb(43,42,41);font-family:MhbxxvAdvOTa9103878;font-size:9.76px;stroke:none;">tine [7]. HIV infected persons must be protected from</text>
   <text y="215.539" x="304.722,309.555,314.798,320.451,325.997,330.224,335.975,340.105,344.497,348.667,352.28,357.35519999999997,361.575,368.546,374.3044,378.582,383.415,387.1238,391.412,394.721,399.554,403.26279999999997,407.433,412.305,416.0138,420.243,425.915,431.461,435.689,439.916,442.923,448.469,451.476,456.348,458.4952,462.694,469.968,473.034,476.646,481.9164,486.165,490.393,496.046,500.879,505.712,508.719,513.591,516.1286,520.337,525.17,530.042,534.172" svgx:width="0.45,0.49,0.53,0.52,0.38,0.54,0.38,0.45,0.55,0.32,0.52,0.55,0.67,0.59,0.55,0.45,0.38,0.55,0.29,0.45,0.38,0.55,0.45,0.38,0.55,0.53,0.52,0.38,0.38,0.26,0.52,0.26,0.45,0.22,0.55,0.7,0.26,0.32,0.54,0.55,0.38,0.53,0.45,0.45,0.26,0.45,0.26,0.55,0.45,0.45,0.38,0.45" style="fill:rgb(43,42,41);font-family:MhbxxvAdvOTa9103878;font-size:9.76px;stroke:none;">exposure to TB as far as possible, with special care</text>
   <text y="227.499" x="304.722,310.334,314.921,319.459,324.905,329.443,334.6158,338.346,341.107,346.475,350.175,355.679,360.266,364.853,367.614,370.981,376.485,381.072,385.61,389.494,393.886,397.547,400.611,405.197,409.784,412.545,415.306,418.068,421.434,424.195,428.782,432.763,434.9102,438.6,443.187,447.168,452.575,457.162,461.749,464.51,469.048,471.809,474.57,478.962,482.623,488.128,493.427,497.409,502.816,505.577,508.943,513.481,516.262,520.243,522.3902,526.08,532.805" svgx:width="0.55,0.45,0.45,0.53,0.45,0.53,0.55,0.26,0.55,0.55,0.54,0.45,0.45,0.26,0.32,0.54,0.45,0.45,0.38,0.45,0.55,0.29,0.45,0.45,0.26,0.26,0.26,0.32,0.26,0.45,0.38,0.22,0.55,0.45,0.38,0.53,0.45,0.45,0.26,0.45,0.26,0.26,0.45,0.55,0.54,0.52,0.38,0.53,0.26,0.32,0.45,0.26,0.38,0.22,0.55,0.67,0.59" style="fill:rgb(43,42,41);font-family:MhbxxvAdvOTa9103878;font-size:9.76px;stroke:none;">needed in healthcare facilities, especially hospitals. TB</text>
   <text y="239.459" x="304.722,308.655,314.111,318.043,323.402,327.94,332.478,335.795,339.5038,343.223,347.761,353.324,358.4968,362.11,367.468,370.18,374.718,379.569,385.132,390.382,394.315,398.853,404.0258,407.638,413.026,417.564,420.881,423.594,428.132,433.695,437.012,440.7208,444.382,448.354,453.809,459.06,464.516,467.228,472.4008,476.013,481.284,485.676,489.278,497.614,502.152,507.715,512.253,517.104,521.69,526.8628000000001,530.476,533.188" svgx:width="0.38,0.54,0.38,0.53,0.45,0.45,0.32,0.38,0.55,0.45,0.55,0.53,0.55,0.53,0.26,0.45,0.48,0.55,0.52,0.38,0.45,0.53,0.55,0.53,0.45,0.32,0.26,0.45,0.55,0.32,0.38,0.55,0.38,0.54,0.52,0.54,0.26,0.53,0.55,0.52,0.45,0.55,0.83,0.45,0.55,0.45,0.48,0.45,0.53,0.55,0.26,0.55" style="fill:rgb(43,42,41);font-family:MhbxxvAdvOTa9103878;font-size:9.76px;stroke:none;">suspects and diagnosed patients should be managed in</text>
   <text y="251.419" x="304.722,308.784,313.451,318.889,323.595,327.51,332.157,335.604,339.996,343.825,349.312,352.153,356.82,361.487,366.154,369.8628,373.749,378.416,384.108,389.2808,393.12,397.767,403.46,408.234,411.075,414.99,420.37,426.062,434.497,439.164,444.856,448.303,452.97,455.5076,459.374,464.041,469.421,475.113,478.56,482.523,487.903,490.676,494.3848,498.33,501.172,506.864,511.531,514.372,519.956,525.395,528.236,533.928" svgx:width="0.38,0.45,0.53,0.45,0.38,0.45,0.32,0.45,0.55,0.53,0.26,0.45,0.45,0.45,0.38,0.55,0.45,0.55,0.53,0.55,0.45,0.55,0.46,0.26,0.38,0.52,0.55,0.83,0.45,0.55,0.32,0.45,0.26,0.55,0.45,0.52,0.55,0.32,0.38,0.52,0.26,0.38,0.55,0.26,0.55,0.45,0.26,0.54,0.53,0.26,0.55,0.48" style="fill:rgb(43,42,41);font-family:MhbxxvAdvOTa9103878;font-size:9.76px;stroke:none;">separate places and environmental controls including</text>
   <text y="263.321" x="304.722,309.541,314.759,320.026,325.1988,328.76,333.412,337.947,343.478,346.822,349.502,352.221,356.727,360.071,362.751,367.97,373.338,376.986,385.261,390.684,394.585,397.7082,401.277,406.545,410.937,414.478,417.138,422.506,426.155,431.481,434.161,438.666,443.172,447.564,451.105,454.39,459.414,464.437,467.722,469.8692,473.448,480.083,485.506,489.89799999999997,493.439,496.422,499.141,504.672,510.056,512.736,518.267,523.086,526.7948,530.403,535.671" svgx:width="0.48,0.52,0.52,0.53,0.55,0.46,0.45,0.55,0.32,0.26,0.26,0.45,0.32,0.26,0.52,0.55,0.55,0.83,0.54,0.38,0.32,0.55,0.52,0.45,0.55,0.26,0.55,0.55,0.53,0.26,0.45,0.45,0.45,0.55,0.32,0.5,0.5,0.32,0.22,0.55,0.67,0.54,0.45,0.55,0.29,0.26,0.55,0.53,0.26,0.55,0.48,0.38,0.55,0.52,0.29" style="fill:rgb(43,42,41);font-family:MhbxxvAdvOTa9103878;font-size:9.76px;stroke:none;">good ventilation must be in place [26]. The findings of</text>
   <text y="275.281" x="304.722,308.079,313.574,317.966,321.627,325.598,328.955,334.45,339.847,344.239,347.959,351.93,357.376,362.266,367.155,371.732,375.704,378.8272,382.566,385.913,391.408,395.985,399.1082,402.846,406.193,411.688,416.08,419.741,425.236,430.526,434.497,439.895,442.646,446.003,450.58,453.1176,456.758,463.776,468.353,472.0618,475.781,481.393,486.683,489.8062,493.544,498.122,503.519,508.096,513.493,518.988,523.565,526.922,531.499,534.25" svgx:width="0.32,0.54,0.45,0.55,0.38,0.32,0.54,0.53,0.45,0.55,0.38,0.54,0.48,0.48,0.45,0.38,0.32,0.55,0.32,0.54,0.45,0.32,0.55,0.32,0.54,0.45,0.55,0.54,0.52,0.38,0.53,0.26,0.32,0.45,0.26,0.55,0.7,0.45,0.38,0.55,0.55,0.52,0.32,0.55,0.45,0.53,0.45,0.53,0.54,0.45,0.32,0.45,0.26,0.45" style="fill:rgb(43,42,41);font-family:MhbxxvAdvOTa9103878;font-size:9.76px;stroke:none;">the study suggest that the hospital was not adequately</text>
   <text y="287.241" x="304.722,309.223,314.544,319.963,322.638,327.959,333.28,337.781,342.9538,346.51,349.8,354.8752,358.47,363.801,367.599,372.812,376.093,380.594,385.095,388.2182,391.841,399.496,402.883,409.6174,413.145,418.417,423.631,427.526,430.201,433.482,436.157,440.805,445.197,448.742,454.014,458.515,461.796,464.471,468.972,474.498,477.778,481.4868,485.091,488.04,491.838,497.051,505.1518,508.787,513.268,517.769,523.09,528.509,531.184,534.982" svgx:width="0.45,0.53,0.54,0.26,0.53,0.53,0.45,0.53,0.55,0.32,0.52,0.55,0.53,0.38,0.52,0.32,0.45,0.45,0.32,0.55,0.77,0.33,0.69,0.55,0.53,0.52,0.38,0.26,0.32,0.26,0.46,0.45,0.55,0.53,0.45,0.32,0.26,0.45,0.55,0.32,0.38,0.55,0.29,0.38,0.52,0.83,0.55,0.45,0.45,0.53,0.54,0.26,0.38,0.36" style="fill:rgb(43,42,41);font-family:MhbxxvAdvOTa9103878;font-size:9.76px;stroke:none;">equipped to protect HIV positive patients from acquir-</text>
   <text y="299.201" x="304.722,307.439,313.008,317.6928,321.339,328.029,333.7874,337.444,340.786,344.626,349.169,354.737,358.675,366.986,369.704,373.641,377.579,380.296,385.552,391.12,393.2672,396.902,401.436,405.373,410.736,415.279,419.822,422.539,427.082,429.799,432.516,436.908,440.506,445.761,451.129,454.776,461.76,466.303,470.143,475.506,479.21479999999997,482.929,489.903,492.62,495.942,501.403,506.659,512.119,515.2422,518.918,525.599,531.3574000000001,535.014" svgx:width="0.26,0.55,0.48,0.55,0.67,0.59,0.55,0.32,0.38,0.45,0.55,0.38,0.83,0.26,0.38,0.38,0.26,0.52,0.55,0.22,0.55,0.45,0.38,0.53,0.45,0.45,0.26,0.45,0.26,0.26,0.45,0.55,0.52,0.55,0.55,0.7,0.45,0.38,0.53,0.38,0.55,0.7,0.26,0.32,0.54,0.52,0.54,0.32,0.55,0.67,0.59,0.55,0.36" style="fill:rgb(43,42,41);font-family:MhbxxvAdvOTa9103878;font-size:9.76px;stroke:none;">ing TB transmission, especially on wards without TB -</text>
   <text y="311.162" x="304.722,308.817,314.328,320.043,323.62,326.592,332.415,337.174,339.3212,343.465,349.386,354.184,357.761,360.733,365.531,371.314,374.892,378.6008,382.775,390.013,394.811,398.906,403.298,407.414,411.547,416.365,421.475,425.57,430.367,435.478,440.236,443.804,448.601,453.7738,457.9,462.698,467.457,472.254,477.765,481.859,487.477,490.449,496.272,500.9568,505.063,508.631,513.7062,517.871,521.438,527.105,531.922,534.894" svgx:width="0.38,0.52,0.54,0.32,0.26,0.55,0.45,0.22,0.55,0.56,0.45,0.32,0.26,0.45,0.55,0.32,0.38,0.55,0.7,0.45,0.38,0.45,0.55,0.38,0.45,0.48,0.38,0.45,0.48,0.45,0.32,0.45,0.53,0.55,0.45,0.45,0.45,0.52,0.38,0.53,0.26,0.55,0.48,0.55,0.32,0.52,0.55,0.32,0.54,0.45,0.26,0.38" style="fill:rgb(43,42,41);font-family:MhbxxvAdvOTa9103878;font-size:9.76px;stroke:none;">routine. Patients were segregated according to their</text>
   <text y="323.122" x="304.722,309.087,311.625,314.163,319.553,322.091,326.456,330.82,333.3576,336.639,341.823,345.484,350.561,353.403,355.941,358.48,362.872,366.115,370.479,375.868,381.0408,384.313,388.99,393.354,398.744,403.928,408.292,411.954,414.1012,417.363,422.752,427.829,430.9522,434.253,437.397,442.4722,445.764,448.908,454.19,458.554,461.093,464.8018,468.044,474.547,480.3054,483.578,487.337,490.481,494.845,497.989,503.271,507.03" svgx:width="0.45,0.26,0.26,0.55,0.26,0.45,0.45,0.26,0.55,0.53,0.38,0.52,0.29,0.26,0.26,0.45,0.55,0.45,0.55,0.53,0.55,0.48,0.45,0.55,0.53,0.45,0.38,0.22,0.55,0.55,0.52,0.32,0.55,0.32,0.52,0.55,0.32,0.54,0.45,0.26,0.38,0.55,0.67,0.59,0.55,0.38,0.32,0.45,0.32,0.54,0.38,0.22" style="fill:rgb(43,42,41);font-family:MhbxxvAdvOTa9103878;font-size:9.76px;stroke:none;">clinical profile and gender, not to their TB status.</text>
   <text y="335.082" x="312.719,317.766,320.373,328.506,331.201,333.807,338.172,341.8808,345.318,348.55,353.6252,357.054,360.286,365.568,369.96,373.378,377.235,380.467,385.749,391.07,395.462,398.89,403.967,408.359,411.817,419.013,421.619,429.752,432.447,435.591,439.359,444.515,449.045,453.437,456.865,461.229,464.3522,467.859,472.223,474.888,477.0352,480.444,483.676,488.665,493.546,496.827,498.9742,502.382,505.614,510.896,515.288,518.707,521.655,524.262,529.651,534.972" svgx:width="0.51,0.26,0.83,0.26,0.26,0.45,0.38,0.55,0.32,0.52,0.55,0.32,0.54,0.45,0.55,0.38,0.32,0.54,0.53,0.45,0.55,0.52,0.45,0.55,0.73,0.26,0.83,0.26,0.32,0.38,0.52,0.46,0.45,0.55,0.45,0.32,0.55,0.45,0.26,0.22,0.55,0.32,0.5,0.5,0.32,0.22,0.55,0.32,0.54,0.45,0.55,0.29,0.26,0.55,0.53,0.36" style="fill:rgb(43,42,41);font-family:MhbxxvAdvOTa9103878;font-size:9.76px;stroke:none;">Similar to the study by Dimitrova et al. [14], the find-</text>
   <text y="347.042" x="304.722,307.366,312.754,317.624,321.3328,324.876,328.643,333.112,337.689,342.052,346.59,349.1276,352.651,356.515,359.764,364.234,367.181,370.0114,373.535,377.389,382.777,387.959,391.726,394.975,399.445,404.227,408.61899999999997,412.104,416.584,420.2928,423.836,428.228,431.654,435.519,438.163,442.945,448.44,451.084,454.03,456.674,461.144,465.613,471.108,474.2312,477.745,483.016,486.782,491.965,497.147,499.791,504.261,512.499,514.6462,518.111,520.775,525.244,529.714,535.004" svgx:width="0.26,0.55,0.48,0.38,0.55,0.38,0.45,0.46,0.45,0.45,0.26,0.55,0.38,0.32,0.45,0.29,0.29,0.55,0.38,0.54,0.52,0.38,0.32,0.45,0.48,0.45,0.55,0.45,0.38,0.55,0.45,0.55,0.38,0.26,0.48,0.55,0.26,0.29,0.26,0.45,0.45,0.55,0.32,0.55,0.53,0.38,0.52,0.52,0.26,0.45,0.83,0.22,0.55,0.26,0.45,0.45,0.53,0.36" style="fill:rgb(43,42,41);font-family:MhbxxvAdvOTa9103878;font-size:9.76px;stroke:none;">ings reveal staff shortage as a significant problem, lead-</text>
   <text y="358.944" x="304.722,307.432,312.992,317.6768,321.325,324.669,329.7442,333.402,340.378,345.626,349.458,354.338,358.016,363.283,367.926,372.461,376.293,379.002,384.25,388.844,394.199,396.3462,399.984,404.519,409.767,418.07,423.426,428.019,431.363,434.073,439.682,444.3668,447.956,452.55,455.259,457.969,463.529,466.238,470.773,475.308,477.8456,481.484,486.839,490.671,493.38,498.628,502.46,505.17,508.484,511.194,515.729,519.4378,523.154,527.689,533.249" svgx:width="0.26,0.55,0.48,0.55,0.32,0.52,0.55,0.7,0.52,0.38,0.5,0.55,0.52,0.46,0.45,0.38,0.26,0.52,0.45,0.53,0.22,0.55,0.45,0.52,0.83,0.53,0.45,0.32,0.26,0.55,0.48,0.55,0.45,0.26,0.26,0.55,0.26,0.45,0.45,0.26,0.55,0.53,0.38,0.26,0.52,0.38,0.26,0.32,0.26,0.45,0.38,0.55,0.45,0.55,0.53" style="fill:rgb(43,42,41);font-family:MhbxxvAdvOTa9103878;font-size:9.76px;stroke:none;">ing to work overload, competing clinical priorities and</text>
   <text y="370.904" x="304.722,311.528,316.743,320.493,325.464,328.091,333.481,338.1658,341.645,344.252,349.62,353.099,357.491,360.92,366.203,368.86,373.626,378.89639999999997,382.355,386.105,388.732,392.58,397.46,400.861,405.314,410.704,415.264,417.892,421.642,426.808,432.286,440.42,444.932,450.322,453.603,455.7502,459.16,466.366,470.731,474.647,479.921,482.548,485.781,490.173,493.602,497.362,502.791,507.157,512.4274,515.945,521.335,525.866,530.632,534.997" svgx:width="0.7,0.52,0.38,0.5,0.26,0.55,0.48,0.55,0.26,0.55,0.55,0.45,0.55,0.54,0.26,0.48,0.54,0.55,0.38,0.26,0.38,0.5,0.55,0.45,0.55,0.46,0.26,0.38,0.52,0.55,0.83,0.45,0.55,0.32,0.22,0.55,0.73,0.45,0.38,0.53,0.26,0.32,0.45,0.55,0.38,0.54,0.45,0.54,0.55,0.55,0.45,0.48,0.45,0.36" style="fill:rgb(43,42,41);font-family:MhbxxvAdvOTa9103878;font-size:9.76px;stroke:none;">working in a high risk environment. Despite such nega-</text>
   <text y="382.864" x="304.722,308.235,311.065,315.866,320.258,324.202,331.337,336.783,340.804,346.016,348.884,354.604,359.2888,363.281,367.985,373.431,379.16,384.675,387.543,391.017,393.886,399.332,405.061,409.15,411.2972,415.27,418.743,424.414,428.806,432.75,438.245,442.939,446.96,450.433,453.302,457.996,460.865,466.379,471.142,476.861,480.335,484.0438,488.046,492.75,497.913,503.408,507.428,512.132,516.221,520.31,525.073,530.2458,534.199" svgx:width="0.32,0.26,0.46,0.45,0.55,0.7,0.52,0.38,0.5,0.26,0.55,0.48,0.55,0.45,0.52,0.55,0.53,0.26,0.32,0.26,0.52,0.55,0.38,0.22,0.55,0.32,0.54,0.45,0.55,0.53,0.45,0.38,0.32,0.26,0.45,0.26,0.53,0.45,0.55,0.32,0.38,0.55,0.45,0.49,0.53,0.38,0.45,0.38,0.38,0.45,0.53,0.55,0.45" style="fill:rgb(43,42,41);font-family:MhbxxvAdvOTa9103878;font-size:9.76px;stroke:none;">tive working conditions, the participants expressed a</text>
   <text y="394.824" x="304.722,308.481,311.625,315.286,320.363,325.753,330.4378,333.69,337.449,341.813,347.203,350.962,355.354,358.636,363.713,366.5434,369.805,374.99,380.272,383.415,387.807,391.06,393.901,398.978,402.6868,405.91,410.274,414.639,418.3,422.664" svgx:width="0.38,0.32,0.38,0.52,0.55,0.48,0.55,0.38,0.45,0.55,0.38,0.45,0.55,0.52,0.29,0.55,0.53,0.54,0.32,0.45,0.55,0.29,0.52,0.38,0.55,0.45,0.45,0.38,0.45,0.22" style="fill:rgb(43,42,41);font-family:MhbxxvAdvOTa9103878;font-size:9.76px;stroke:none;">strong sense of duty for care.</text>
   <text y="406.784" x="312.719,320.129,323.165,325.7026,329.97,335.75,340.613,345.475,348.511,352.153,357.933,362.795,367.657,371.816,376.20799999999997,380.438,384.685,388.326,393.189,396.528,399.867,402.0142,406.271,409.308,415.146,420.009,423.045,428.766,434.488,437.524,443.411,448.0958,452.364,456.612,462.391,468.074,473.756,479.331,483.49,486.6132,490.969,495.226,498.868,503.73,507.069,510.408,512.5552,516.813,525.444,531.165,535.422" svgx:width="0.71,0.26,0.26,0.55,0.54,0.45,0.45,0.26,0.32,0.54,0.45,0.45,0.38,0.45,0.55,0.38,0.32,0.45,0.29,0.29,0.22,0.55,0.26,0.55,0.45,0.26,0.54,0.53,0.26,0.55,0.48,0.55,0.38,0.54,0.53,0.53,0.52,0.38,0.32,0.55,0.38,0.32,0.45,0.29,0.29,0.22,0.55,0.83,0.54,0.38,0.32" style="fill:rgb(43,42,41);font-family:MhbxxvAdvOTa9103878;font-size:9.76px;stroke:none;">All healthcare staff, including support staff, must</text>
   <text y="418.745" x="304.722,308.888,313.757,318.626,323.447,326.49,331.417,335.80899999999997,340.543,344.231,348.397,353.217,356.26,362.155,365.198,371.092,375.7768,380.501,383.505,388.873,393.656,396.719,402.554,405.9,410.769,415.638,419.287,422.33,427.912,433.28,438.063,442.883,448.465,454.3,457.949,462.115,467.697,470.2346,475.007,478.655,483.983,489.37,493.018,495.16519999999997,499.938,506.906,512.692,516.858,522.44,528.168,533.35" svgx:width="0.38,0.45,0.45,0.45,0.26,0.46,0.45,0.55,0.32,0.38,0.45,0.26,0.55,0.26,0.55,0.48,0.55,0.26,0.55,0.55,0.26,0.55,0.29,0.45,0.45,0.32,0.26,0.52,0.55,0.55,0.45,0.52,0.55,0.32,0.38,0.52,0.26,0.55,0.32,0.5,0.5,0.32,0.22,0.55,0.67,0.54,0.38,0.52,0.54,0.48,0.54" style="fill:rgb(43,42,41);font-family:MhbxxvAdvOTa9103878;font-size:9.76px;stroke:none;">receive training in infection control [29]. Through</text>
   <text y="430.705" x="304.722,310.154,315.897,320.929,326.36,329.253,334.997,339.6818,343.669,347.187,351.203,355.922,358.814,364.558,367.451,373.195,377.8798,381.809,386.567,392.311,397.4838,401.491,408.455,414.297,421.769,423.9162,427.893,433.637,439.274,443.289,447.403,452.121,455.8298,459.886,464.605,470.036,475.672,478.565,483.7378,487.746,493.304,498.023,502.849,507.568,510.46,515.892,521.0648000000001,525.072,528.571,534.207" svgx:width="0.52,0.55,0.48,0.52,0.26,0.55,0.48,0.55,0.32,0.38,0.45,0.26,0.55,0.26,0.55,0.48,0.55,0.45,0.55,0.53,0.55,0.68,0.56,0.73,0.22,0.55,0.55,0.54,0.38,0.38,0.45,0.38,0.55,0.45,0.52,0.54,0.26,0.53,0.55,0.53,0.45,0.46,0.45,0.26,0.52,0.53,0.55,0.32,0.54,0.45" style="fill:rgb(43,42,41);font-family:MhbxxvAdvOTa9103878;font-size:9.76px;stroke:none;">ongoing training and CPD, nurses could develop the</text>
   <text y="442.665" x="304.722,308.483,313.513,316.142,318.77,321.398,325.1068,328.537,332.903,338.461,343.6338,347.025,351.391,356.949,362.233,366.687,372.078,376.61,381.002,384.374,387.608,392.892,397.346,399.974,403.6828,407.064,411.43,416.646,422.037,425.037,427.577,432.851,437.218,442.775,447.141,451.533,454.964,457.572,462.94,466.361,472.934,478.6924,482.172,486.538,492.018,497.19079999999997,500.631,508.151,511.521,518.2554,521.609,526.082,530.448,534.248" svgx:width="0.38,0.5,0.26,0.26,0.26,0.38,0.55,0.45,0.55,0.53,0.55,0.45,0.55,0.54,0.45,0.55,0.45,0.45,0.55,0.32,0.54,0.45,0.26,0.38,0.55,0.45,0.52,0.55,0.29,0.26,0.53,0.45,0.55,0.45,0.45,0.55,0.26,0.55,0.55,0.67,0.59,0.55,0.45,0.55,0.53,0.55,0.77,0.33,0.69,0.55,0.45,0.45,0.38,0.45" style="fill:rgb(43,42,41);font-family:MhbxxvAdvOTa9103878;font-size:9.76px;stroke:none;">skills and enhance their confidence in TB and HIV care</text>
   <text y="454.566" x="304.722,307.261,312.629,316.058,320.45,323.771,329.053,331.591,336.356,341.6264,344.977,350.132,355.414,359.143,364.328,368.692,374.06,377.46,381.824,387.321,391.792,394.409,398.07,403.147,408.634,416.767,421.131,426.609,429.7322,433.131,437.495,442.884,448.0568,451.447,459.58,464.032,468.913,473.305,476.675,479.214,484.671,487.513,492.668,496.329,504.462,508.934,514.1068,517.437,521.802,524.467,527.006,532.463,535.002" svgx:width="0.26,0.55,0.55,0.45,0.55,0.54,0.26,0.48,0.54,0.55,0.52,0.54,0.38,0.53,0.45,0.55,0.55,0.45,0.55,0.46,0.26,0.38,0.52,0.55,0.83,0.45,0.55,0.32,0.55,0.45,0.55,0.53,0.55,0.83,0.45,0.5,0.45,0.55,0.26,0.55,0.29,0.52,0.38,0.83,0.45,0.53,0.55,0.45,0.26,0.26,0.55,0.26,0.36" style="fill:rgb(43,42,41);font-family:MhbxxvAdvOTa9103878;font-size:9.76px;stroke:none;">in a high burden environment and make informed clini-</text>
   <text y="466.527" x="304.722,309.251,313.779,316.3166,319.957,322.562,328.008,333.356,338.197,342.725,351.022,355.609,361.163,364.47,368.1788,371.898,377.139,382.507,386.208,390.736,396.084,401.433,405.258,410.499,415.847,419.673,422.469,426.994,430.299,434.691,438.29,446.624,451.149,456.699,461.225,466.062,470.588,478.882,483.475,489.036,492.341,494.4882,498.125,504.789,510.232,514.624,518.223,521.284,523.984,529.593,534.938" svgx:width="0.45,0.45,0.26,0.55,0.25,0.54,0.53,0.48,0.45,0.83,0.45,0.55,0.32,0.38,0.55,0.52,0.55,0.55,0.45,0.53,0.53,0.38,0.52,0.53,0.38,0.26,0.45,0.32,0.45,0.55,0.83,0.45,0.55,0.45,0.48,0.45,0.83,0.45,0.55,0.32,0.22,0.55,0.67,0.54,0.45,0.55,0.29,0.26,0.55,0.53,0.36" style="fill:rgb(43,42,41);font-family:MhbxxvAdvOTa9103878;font-size:9.76px;stroke:none;">cal judgements on appropriate management. The find-</text>
   <text y="478.487" x="304.722,307.752,313.632,318.8,322.5088,326.965,332.533,335.3634,339.79,343.425,349.198,353.59,357.988,362.238,365.873,371.646,377.322,381.714,386.112,389.142,394.817,399.672,405.553,409.188,412.217,415.55,419.942,424.34,427.975,433.748,438.14,442.538,448.203,452.356,457.211,461.461,465.711,468.741,474.621,479.3058,483.694,489.575,494.43,499.285,504.4578,508.866,512.199,517.767,521.4758,525.815,532.847" svgx:width="0.26,0.55,0.48,0.38,0.55,0.52,0.29,0.55,0.32,0.54,0.45,0.55,0.38,0.32,0.54,0.53,0.45,0.55,0.26,0.53,0.45,0.55,0.32,0.26,0.29,0.45,0.55,0.32,0.54,0.45,0.55,0.53,0.38,0.45,0.38,0.38,0.26,0.55,0.48,0.55,0.55,0.45,0.45,0.53,0.55,0.29,0.52,0.38,0.55,0.67,0.59" style="fill:rgb(43,42,41);font-family:MhbxxvAdvOTa9103878;font-size:9.76px;stroke:none;">ings of the study identify the pressing need for TB</text>
   <text y="490.447" x="304.722,308.156,312.107,316.81,319.649,325.328,328.156,333.836,338.5208,342.395,345.526,350.893,354.60179999999997,358.438,363.082,365.91,368.4476,372.312,377.992,383.564,387.515,391.564,396.218,400.267,402.4142,406.278,413.08,418.652,423.044,426.929,432.403,437.106,441.057,444.491,447.32,451.974,454.802,460.277,464.931,470.61,474.044,477.7528,481.637,487.111,489.94,495.1128,499.007,504.677,510.044,513.1672,517.012,521.061,525.715,530.369" svgx:width="0.32,0.38,0.45,0.26,0.55,0.26,0.55,0.48,0.55,0.29,0.52,0.38,0.55,0.45,0.26,0.26,0.55,0.55,0.54,0.38,0.38,0.45,0.38,0.22,0.55,0.67,0.54,0.45,0.55,0.53,0.45,0.38,0.32,0.26,0.45,0.26,0.53,0.45,0.55,0.32,0.38,0.55,0.53,0.26,0.53,0.55,0.55,0.52,0.32,0.55,0.38,0.45,0.45,0.83" style="fill:rgb(43,42,41);font-family:MhbxxvAdvOTa9103878;font-size:9.76px;stroke:none;">training for all nurses. The participants did not seem</text>
   <text y="502.407" x="304.722,307.777,313.273,316.025,318.778,323.17,326.88,330.228,335.3032,339.014,343.602,348.893,357.24,362.638,366.513,371.091,376.587,381.165,386.719,391.8918,395.622,399.019,404.515,408.907,412.569,416.444,421.022,425.6,428.1376,431.838,435.713,438.465,442.438,447.318,451.058,456.349,459.1794,462.928,469.645,475.4034,479.173,483.751,488.739,494.137,499.428,503.401,508.896,512.772,517.35,519.4972,523.187,527.775,533.329" svgx:width="0.29,0.54,0.26,0.26,0.45,0.55,0.32,0.52,0.55,0.45,0.52,0.83,0.53,0.38,0.45,0.54,0.45,0.55,0.53,0.55,0.32,0.54,0.45,0.55,0.38,0.45,0.45,0.26,0.55,0.38,0.26,0.38,0.5,0.55,0.52,0.29,0.55,0.67,0.59,0.55,0.45,0.49,0.53,0.52,0.38,0.54,0.38,0.45,0.22,0.55,0.45,0.55,0.53" style="fill:rgb(43,42,41);font-family:MhbxxvAdvOTa9103878;font-size:9.76px;stroke:none;">fully to comprehend the real risk of TB exposure, and</text>
   <text y="514.367" x="304.722,313.019,318.26,322.183,325.3062,328.928,335.897,340.425,344.25,348.642,352.245,356.773,359.778,363.603,368.132,370.834,376.0068,379.619,384.86,387.6904,391.322,396.563,401.091,405.619,410.86,419.157,421.86,427.413,432.0978,435.69,438.393,443.888,446.893,451.421,455.95,459.257,463.737,468.9098,472.522,479.491,482.194,485.501,490.77139999999997,494.404,498.932,504.485,509.6578,513.27,518.599,523.128,527.763,532.243,534.965" svgx:width="0.83,0.52,0.38,0.32,0.55,0.7,0.45,0.38,0.45,0.55,0.45,0.29,0.38,0.45,0.26,0.53,0.55,0.52,0.29,0.55,0.52,0.45,0.45,0.52,0.83,0.26,0.55,0.48,0.55,0.26,0.55,0.29,0.45,0.45,0.32,0.45,0.53,0.55,0.7,0.26,0.32,0.54,0.55,0.45,0.55,0.53,0.55,0.53,0.45,0.46,0.45,0.26,0.36" style="fill:rgb(43,42,41);font-family:MhbxxvAdvOTa9103878;font-size:9.76px;stroke:none;">most were afraid of becoming infected with and devel-</text>
   <text y="526.328" x="304.722,309.952,315.288,317.979,323.521,328.2058,331.738,338.431,344.325,346.4722,350.052,356.814,362.043,367.585,372.062,376.579,380.393,385.934,389.6428,393.243,397.76,403.262,408.4348,411.997,415.908,419.204,421.895,426.724,435.009,439.401,442.943,446.737,451.214,453.934,458.412,461.698,466.215,471.38779999999997,474.949,478.245,483.3202,486.921,493.576,499.3344,502.925,507.442,515.727,520.243,524.057,528.886,533.364" svgx:width="0.52,0.53,0.26,0.55,0.48,0.55,0.67,0.59,0.22,0.55,0.68,0.52,0.55,0.45,0.45,0.38,0.55,0.38,0.55,0.45,0.55,0.53,0.55,0.38,0.32,0.26,0.48,0.83,0.45,0.55,0.38,0.45,0.26,0.45,0.32,0.45,0.53,0.55,0.32,0.52,0.55,0.67,0.59,0.55,0.45,0.83,0.45,0.38,0.48,0.45,0.53" style="fill:rgb(43,42,41);font-family:MhbxxvAdvOTa9103878;font-size:9.76px;stroke:none;">oping TB. Concerns and stigma related to TB emerged</text>
   <text y="538.288" x="304.722,309.907,314.359,318.02,321.164,323.829,328.193,333.583,336.121,340.554,344.215,346.851,351.243,354.564,358.929,367.149,372.304,377.694,382.3788,385.739,390.923,395.375,399.037,402.288,404.826,409.259,411.797,416.982,421.444,426.833,430.065,433.7738,437.211,440.053,443.792,448.869,456.9698,460.4,467.205,471.676,475.338,480.522,484.2308,487.718,494.523,497.061,500.303,505.585,510.788,516.07,519.1932,522.641,529.144,534.933" svgx:width="0.53,0.45,0.38,0.32,0.26,0.45,0.54,0.26,0.45,0.38,0.26,0.45,0.55,0.45,0.83,0.52,0.55,0.48,0.55,0.53,0.45,0.38,0.32,0.26,0.45,0.26,0.53,0.45,0.55,0.32,0.38,0.55,0.29,0.38,0.52,0.83,0.55,0.7,0.45,0.38,0.53,0.38,0.55,0.7,0.26,0.32,0.54,0.52,0.54,0.32,0.55,0.67,0.59,0.36" style="fill:rgb(43,42,41);font-family:MhbxxvAdvOTa9103878;font-size:9.76px;stroke:none;">particularly among participants from wards without TB-</text>
   <text y="550.189" x="304.722,308.462,313.539,318.889,322.121,324.727,330.117,334.589,336.7362,340.085,343.434,347.095,350.864,355.228,358.46,361.067,366.222,371.611,376.083,378.6206,381.98,388.785,393.999,397.738,402.618,406.018,411.202,414.863,419.393,423.758,426.989,429.596,433.96,438.442,442.1508,445.589,449.953,455.45,460.6228,464.071,466.912,471.383,475.748,479.4568,482.836,491.057,493.595,498.369,503.651,506.7742,510.271,512.81,517.242,521.606,526.7788,530.286,533.43" svgx:width="0.38,0.52,0.54,0.32,0.26,0.55,0.45,0.22,0.55,0.33,0.38,0.38,0.45,0.32,0.26,0.52,0.55,0.45,0.26,0.55,0.7,0.52,0.38,0.5,0.55,0.53,0.38,0.45,0.45,0.32,0.26,0.45,0.45,0.38,0.55,0.45,0.55,0.53,0.55,0.29,0.45,0.45,0.38,0.55,0.83,0.26,0.48,0.54,0.32,0.55,0.26,0.45,0.45,0.53,0.55,0.32,0.52" style="fill:rgb(43,42,41);font-family:MhbxxvAdvOTa9103878;font-size:9.76px;stroke:none;">routine. Irrational work practices and fear might lead to</text>
   <text y="562.149" x="304.722,309.114,312.377,317.659,320.197,324.874,330.156,334.52,338.2288,341.462,345.123,347.662,351.421,356.301,359.544,364.621,367.4514,370.713,375.077,379.852,385.036,390.113,393.872,399.154,402.815,407.207,410.46,414.824,420.214,425.3868,428.659,434.048,439.125,442.884,447.961,452.325,457.402,465.535,468.074,472.438,474.9756,478.325,481.469,485.13,489.495,494.884,498.643,506.776,509.314,513.073,516.832,519.371,524.448,529.837" svgx:width="0.45,0.55,0.54,0.26,0.48,0.54,0.45,0.38,0.55,0.38,0.26,0.38,0.5,0.55,0.52,0.29,0.55,0.45,0.49,0.53,0.52,0.38,0.54,0.38,0.45,0.55,0.45,0.55,0.53,0.55,0.55,0.52,0.38,0.52,0.45,0.52,0.83,0.26,0.45,0.26,0.55,0.32,0.38,0.45,0.55,0.38,0.83,0.26,0.38,0.38,0.26,0.52,0.55,0.22" style="fill:rgb(43,42,41);font-family:MhbxxvAdvOTa9103878;font-size:9.76px;stroke:none;">a higher risk of exposure and nosocomial transmission.</text>
   <text y="574.11" x="312.719,316.111,321.779,328.4158,331.928,335.213,339.065,343.542,346.261,351.762,354.442,359.973,364.6578,368.189,370.908,376.439,379.725,384.231,388.033,392.686,397.162,402.693,405.979,408.659,413.877,419.408,423.1168,426.726,430.626,436.05,441.268,446.692,449.372,454.5448,458.154,463.578,467.381,472.199,476.705,482.236,485.521,488.201,492.593,496.134,501.352,505.74399999999997,509.285,514.552,517.496,520.479,524.985,528.788,533.293" svgx:width="0.33,0.56,0.68,0.55,0.32,0.38,0.45,0.26,0.55,0.26,0.55,0.48,0.55,0.26,0.55,0.32,0.45,0.38,0.46,0.45,0.55,0.32,0.26,0.52,0.55,0.38,0.55,0.38,0.54,0.52,0.54,0.26,0.53,0.55,0.54,0.38,0.48,0.45,0.55,0.32,0.26,0.45,0.55,0.52,0.45,0.55,0.52,0.29,0.29,0.45,0.38,0.45,0.53" style="fill:rgb(43,42,41);font-family:MhbxxvAdvOTa9103878;font-size:9.76px;stroke:none;">IPC training interventions should urgently be offered</text>
   <text y="586.07" x="304.722,308.001,313.515,317.2238,321.285,327.121,332.841,336.94,341.136,345.898,349.6068,353.776,358.597,364.424,369.5968,373.716,379.231,382.812,388.531,393.333,397.0418,401.103,406.832,411.633,416.396,419.372,422.953,428.624,433.425,438.227,442.326,446.718,450.828,458.031,463.545,467.644,472.914,477.735,481.834,485.5428,489.711,493.292,498.36719999999997,502.536,505.512,514.083,519.704,523.803,529.317,534.227" svgx:width="0.29,0.52,0.38,0.55,0.55,0.54,0.38,0.38,0.45,0.38,0.55,0.45,0.55,0.53,0.55,0.52,0.32,0.54,0.45,0.38,0.55,0.54,0.45,0.45,0.26,0.32,0.54,0.45,0.45,0.38,0.45,0.55,0.7,0.52,0.38,0.5,0.45,0.38,0.38,0.55,0.32,0.52,0.55,0.26,0.83,0.53,0.38,0.52,0.46,0.45" style="fill:rgb(43,42,41);font-family:MhbxxvAdvOTa9103878;font-size:9.76px;stroke:none;">for nurses and other healthcare workers to improve</text>
   <text y="598.03" x="304.722,309.604,314.993,320.07,326.875,329.414,333.778,338.963,343.639,348.003,350.1502,353.422,357.786,360.325,362.863,368.253,370.791,375.155,379.52,382.0576,385.339,389.703,394.78,402.913,408.097,412.461,415.605,419.969,425.359,429.723,434.115,437.436,441.8,447.19,452.3628,455.635,460.819,466.101,470.466,473.004,475.543,478.686,483.078,486.302,491.379,494.2094,497.53,501.894,506.258,509.92,514.284" svgx:width="0.5,0.55,0.52,0.7,0.26,0.45,0.53,0.48,0.45,0.22,0.55,0.45,0.26,0.26,0.55,0.26,0.45,0.45,0.26,0.55,0.45,0.52,0.83,0.53,0.45,0.32,0.45,0.55,0.45,0.45,0.55,0.45,0.55,0.53,0.55,0.53,0.54,0.45,0.26,0.26,0.32,0.45,0.55,0.52,0.29,0.55,0.45,0.45,0.38,0.45,0.22" style="fill:rgb(43,42,41);font-family:MhbxxvAdvOTa9103878;font-size:9.76px;stroke:none;">knowledge, clinical competency and quality of care.</text>
   <text y="609.99" x="312.719,319.445,324.64,330.146,334.628,339.109,342.887,348.394,352.1028,355.648,360.13,365.636,370.8088,374.365,378.221,381.482,384.138,388.932,397.182,401.574,405.061,408.8,413.282,415.937,420.419,423.68,428.161,433.3338,436.831,440.092,445.1672,448.713,455.333,461.0914,464.686,469.167,474.674,479.8468,483.344,490.998,494.367,501.191,503.3382,506.805,511.287,516.793,521.9658000000001,525.522,528.783,534.182" svgx:width="0.68,0.52,0.55,0.45,0.45,0.38,0.55,0.38,0.55,0.45,0.55,0.53,0.55,0.38,0.32,0.26,0.48,0.83,0.45,0.55,0.38,0.45,0.26,0.45,0.32,0.45,0.53,0.55,0.32,0.52,0.55,0.67,0.59,0.55,0.45,0.55,0.53,0.55,0.77,0.33,0.69,0.22,0.55,0.45,0.55,0.53,0.55,0.32,0.54,0.45" style="fill:rgb(43,42,41);font-family:MhbxxvAdvOTa9103878;font-size:9.76px;stroke:none;">Concerns and stigma related to TB and HIV, and the</text>
   <text y="621.95" x="304.722,308.583,313.859,316.597,320.989,324.646,329.922,332.7524,336.438,339.781,343.641,348.205,353.588,356.326,359.669,362.406,367.731,373.32,377.883,380.4206,384.058,389.559,394.122,398.685,401.423,405.986,409.847,413.805,415.9522,419.647,424.181,429.506,437.839,443.222,447.083,449.82,453.778,458.342,463.5148,467.24,474.244,476.982,482.366,486.929,490.63779999999997,494.294,498.829,504.154,509.713,513.056,517.619,522.593,525.936,531.417,535.98" svgx:width="0.38,0.52,0.26,0.45,0.55,0.52,0.29,0.55,0.32,0.38,0.45,0.53,0.26,0.32,0.26,0.52,0.55,0.45,0.26,0.55,0.54,0.45,0.45,0.26,0.45,0.38,0.38,0.22,0.55,0.45,0.52,0.83,0.53,0.38,0.26,0.38,0.45,0.53,0.55,0.7,0.26,0.53,0.45,0.38,0.55,0.45,0.52,0.55,0.32,0.45,0.49,0.32,0.54,0.45,0.26" style="fill:rgb(43,42,41);font-family:MhbxxvAdvOTa9103878;font-size:9.76px;stroke:none;">role of traditional healers, comprised wider contextual</text>
   <text y="633.91" x="304.722,307.374,312.877,315.831,318.434,323.829,328.307,333.809,338.287,342.764,346.4728,350.025,356.943,362.338,364.99,369.467,374.7374,378.202,380.863,389.109,394.407,398.767,404.153,408.63,413.8028,417.306,423.883,429.776,433.443,436.807,442.408,449.0448,452.499,456.977,460.1002,463.612,470.53,475.008,478.782,483.9548,487.458,490.11,494.587,499.172,503.65,506.253,508.4002,511.863,518.888,522.0112,525.524,528.781,534.176" svgx:width="0.26,0.55,0.29,0.26,0.54,0.45,0.55,0.45,0.45,0.38,0.55,0.7,0.54,0.26,0.45,0.54,0.55,0.26,0.83,0.53,0.45,0.53,0.45,0.53,0.55,0.67,0.59,0.36,0.33,0.56,0.68,0.55,0.45,0.32,0.55,0.7,0.45,0.38,0.53,0.55,0.26,0.45,0.46,0.45,0.26,0.22,0.55,0.71,0.32,0.55,0.32,0.54,0.45" style="fill:rgb(43,42,41);font-family:MhbxxvAdvOTa9103878;font-size:9.76px;stroke:none;">influences which impeded TB-IPC at ward level. At the</text>
   <text y="645.812" x="304.722,308.116,310.904,319.287,323.679,327.397,332.724,335.5544,339.359,342.753,348.285,352.677,356.453,360.481,363.875,369.407,374.841,379.455,381.6022,385.349,390.002,395.436,400.822,404.733,410.06,415.084,417.872,426.255,430.869,434.263,438.877,441.666,446.058,449.834,454.965,460.097,466.929,470.638,475.965,478.7954,482.6,488.21,493.742,497.653,501.662,506.276,509.9848,513.819,518.414,521.5372,525.332,528.736,534.268" svgx:width="0.32,0.26,0.83,0.45,0.55,0.52,0.29,0.55,0.32,0.54,0.45,0.55,0.38,0.32,0.54,0.53,0.45,0.22,0.55,0.45,0.53,0.53,0.38,0.52,0.49,0.26,0.83,0.45,0.32,0.45,0.26,0.45,0.55,0.5,0.5,0.7,0.55,0.52,0.29,0.55,0.55,0.54,0.38,0.38,0.45,0.38,0.55,0.45,0.32,0.55,0.32,0.54,0.45" style="fill:rgb(43,42,41);font-family:MhbxxvAdvOTa9103878;font-size:9.76px;stroke:none;">time of the study, approximately 80% of nurses at the</text>
   <text y="657.772" x="304.722,310.365,315.802,319.921,325.466,328.364,331.868,336.632,339.1696,343.212,347.331,352.875,358.313,363.555,367.947,371.94,379.252,382.454,386.475,389.374,394.616,399.34,404.104,409.883,413.5918,417.654,422.378,426.0868,430.198,433.399,436.347,440.368,444.487,447.6102,451.633,454.581,459.305,465.084,470.121,475.763,480.488,485.525,490.288,492.4352,496.468,501.192,506.971,512.1438,516.158,519.671,525.314,529.335,534.099" svgx:width="0.54,0.52,0.38,0.53,0.26,0.32,0.45,0.26,0.55,0.38,0.53,0.52,0.5,0.45,0.55,0.71,0.29,0.38,0.26,0.5,0.45,0.45,0.55,0.38,0.55,0.45,0.38,0.55,0.29,0.26,0.38,0.38,0.32,0.55,0.26,0.45,0.55,0.48,0.54,0.45,0.48,0.45,0.22,0.55,0.45,0.55,0.53,0.55,0.32,0.54,0.38,0.45,0.45" style="fill:rgb(43,42,41);font-family:MhbxxvAdvOTa9103878;font-size:9.76px;stroke:none;">hospital spoke Afrikaans as first language, and three</text>
   <text y="669.732" x="304.722,310.377,316.13,321.004,325.145,328.76,333.595,337.727,341.4358,345.715,353.03,357.845,361.977,366.36899999999997,370.59,376.138,378.9684,383.228,388.063,393.61,396.619,402.167,407.92,412.051,416.886,422.0588,426.349,431.184,434.798,440.551,446.411,449.42,454.294,457.303,460.917,465.752,467.8992,472.159,475.471,481.018,484.027,487.085,492.633,499.909,504.782,509.9548,514.196,519.744,524.1360000000001,528.308,533.182" svgx:width="0.53,0.54,0.45,0.38,0.32,0.45,0.38,0.38,0.55,0.7,0.45,0.38,0.45,0.55,0.52,0.29,0.55,0.45,0.52,0.26,0.52,0.54,0.38,0.45,0.53,0.55,0.45,0.32,0.54,0.55,0.26,0.45,0.26,0.32,0.45,0.22,0.55,0.29,0.52,0.26,0.26,0.52,0.7,0.45,0.53,0.55,0.52,0.45,0.55,0.45,0.55" style="fill:rgb(43,42,41);font-family:MhbxxvAdvOTa9103878;font-size:9.76px;stroke:none;">quarters were of coloured ethnicity, followed by an</text>
   <text y="681.692" x="304.722,309.376,314.849,320.42,325.073,327.6106,331.484,336.986,340.937,346.303,351.776,357.142,361.092,364.525,367.353,372.718,378.086,381.961,387.346,390.1764,394.04,401.241,404.371,408.322,411.149,415.802,420.456,425.824,429.698,434.351,440.029,445.2018,449.096,456.18,461.751,464.578,468.011,472.403,476.228,481.906,487.477,491.428,495.476,500.129,504.177,506.3242,510.187,517.1166000000001,520.962,526.435,530.386,535.039" svgx:width="0.45,0.53,0.54,0.45,0.26,0.55,0.53,0.38,0.52,0.53,0.52,0.38,0.32,0.26,0.52,0.55,0.55,0.52,0.29,0.55,0.71,0.29,0.38,0.26,0.45,0.45,0.55,0.55,0.45,0.55,0.53,0.55,0.7,0.54,0.26,0.32,0.45,0.55,0.55,0.54,0.38,0.38,0.45,0.38,0.22,0.55,0.71,0.55,0.53,0.38,0.45,0.36" style="fill:rgb(43,42,41);font-family:MhbxxvAdvOTa9103878;font-size:9.76px;stroke:none;">equal proportion of African and white nurses. A pre-</text>
   <text y="693.653" x="304.722,309.334,312.012,317.228,322.65,326.3588,329.966,333.874,337.157,342.579,347.903,352.295,355.843,360.347,363.4702,367.097,370.38,375.802,380.194,383.742,389.125,394.341,398.24,403.564,406.242,409.525,414.029,416.5666,420.095,423.096,428.312,433.734,439.263,444.4358,447.994,451.278,456.699,461.203,464.3262,467.894,472.398,477.614,482.89,488.272,491.3952,494.963,500.404,504.908,507.586,510.4164,513.935,519.152,521.9824000000001,525.56,528.843,534.265" svgx:width="0.46,0.26,0.52,0.54,0.38,0.55,0.38,0.32,0.54,0.53,0.45,0.55,0.45,0.32,0.55,0.32,0.54,0.45,0.55,0.54,0.52,0.38,0.53,0.26,0.32,0.45,0.26,0.55,0.29,0.52,0.54,0.55,0.53,0.55,0.32,0.54,0.45,0.32,0.55,0.45,0.52,0.52,0.54,0.32,0.55,0.54,0.45,0.26,0.29,0.55,0.52,0.29,0.55,0.32,0.54,0.45" style="fill:rgb(43,42,41);font-family:MhbxxvAdvOTa9103878;font-size:9.76px;stroke:none;">vious study at the hospital found that about half of the</text>
   <text y="705.613" x="304.722,310.36,315.177,318.774,321.765,326.583,332.425,336.022,339.7308,343.954,351.212,354.203,357.8,363.0704,367.265,373.205,380.16,385.9184,390.142,397.4,402.218,406.332,410.724,414.889,420.389,423.2194,427.423,434.788,438.082,442.197,445.188,450.006,454.823,460.191,464.405,469.935,474.049,477.04,482.17,485.162,491.004,493.1512,497.354,500.922,506.657,511.049,515.213,520.743,524.34,530.075,534.893" svgx:width="0.53,0.45,0.32,0.26,0.45,0.55,0.32,0.38,0.55,0.7,0.26,0.32,0.54,0.55,0.56,0.67,0.59,0.55,0.7,0.45,0.38,0.45,0.55,0.52,0.29,0.55,0.71,0.29,0.38,0.26,0.45,0.45,0.55,0.55,0.52,0.38,0.26,0.48,0.26,0.55,0.22,0.55,0.32,0.54,0.45,0.55,0.52,0.32,0.54,0.45,0.38" style="fill:rgb(43,42,41);font-family:MhbxxvAdvOTa9103878;font-size:9.76px;stroke:none;">patients with PTB were of African origin, the other</text>
   <text y="717.573" x="304.722,312.854,317.217,319.755,325.143,327.681,332.073,335.276,339.639,344.715,347.253,352.329,357.61,361.27,365.633,370.8058,374.048,377.191,382.072,385.215,387.3622,390.564,393.814,399.182,402.356,405.499,410.78,415.17199999999997,418.395,422.758,427.121,430.264,434.627,439.908,448.04,452.403,457.792,460.91519999999997,464.137,468.5,472.161,476.524,480.916,484.09,489.166,491.9964,495.198,498.341,503.622,506.16,509.8688,513.169,518.45,523.526,527.284,532.467,535.005" svgx:width="0.83,0.45,0.26,0.55,0.26,0.45,0.55,0.45,0.52,0.26,0.52,0.54,0.38,0.45,0.53,0.55,0.32,0.5,0.32,0.22,0.55,0.33,0.55,0.55,0.32,0.54,0.45,0.55,0.45,0.45,0.32,0.45,0.54,0.83,0.45,0.55,0.32,0.55,0.45,0.38,0.45,0.45,0.55,0.52,0.29,0.55,0.32,0.54,0.26,0.38,0.55,0.54,0.52,0.38,0.53,0.26,0.36" style="fill:rgb(43,42,41);font-family:MhbxxvAdvOTa9103878;font-size:9.76px;stroke:none;">mainly coloured [7]. In the catchment area of this hospi-</text>
   <text y="729.533" x="304.722,308.006,312.51,315.188,317.3352,320.912,324.195,329.617,334.009,337.558,344.639,347.62,351.421,354.099,358.603,363.106,368.474,372.062,377.386,382.603,387.927,393.349,396.027,400.53,403.814,406.492,411.709,417.077,420.721,426.05,429.856,434.365,439.693,444.915,453.192,455.875,461.409,465.918,471.452,474.74,477.423,481.815,485.359,489.213,494.542,499.813,504.839,509.231,512.774,519.626,525.053,530.274,534.178" svgx:width="0.32,0.45,0.26,0.22,0.55,0.32,0.54,0.45,0.55,0.71,0.29,0.38,0.26,0.45,0.45,0.55,0.55,0.53,0.52,0.53,0.54,0.26,0.45,0.32,0.26,0.52,0.55,0.55,0.53,0.38,0.45,0.53,0.52,0.83,0.26,0.55,0.45,0.55,0.32,0.26,0.45,0.55,0.38,0.53,0.52,0.5,0.45,0.55,0.69,0.54,0.52,0.38,0.45" style="fill:rgb(43,42,41);font-family:MhbxxvAdvOTa9103878;font-size:9.76px;stroke:none;">tal, the African population predominantly spoke Xhosa</text>
   <text y="40.309" x="56.693,60.59,62.416,65.564,68.712,73.024,74.849,78.667" svgx:width="0.49,0.23,0.4,0.4,0.54,0.23,0.48,0.47" style="fill:rgb(43,42,41);font-family:KpncgyAdvOT46dcae81;font-size:7.97px;stroke:none;">Sissolak</text>
   <text y="40.309" x="85.043,88.606,91.07669999999999,93.714,97.859" svgx:width="0.45,0.31,0.55,0.52,0.22" style="fill:rgb(43,42,41);font-family:BjtcsgAdvOT65f8a23b.I;font-size:7.97px;stroke:none;">et al</text>
   <text y="40.309" x="99.612" svgx:width="0.2" style="fill:rgb(43,42,41);font-family:KpncgyAdvOT46dcae81;font-size:7.97px;stroke:none;">.</text>
   <text y="40.309" x="103.805,107.87,114.007,118.3905,121.036,125.021,129.166,133.31,135.048,136.785,140.1324,142.747,147.729,151.291,155.436,157.173,159.66" svgx:width="0.51,0.77,0.55,0.55,0.5,0.52,0.52,0.22,0.22,0.42,0.55,0.63,0.45,0.52,0.22,0.31,0.53" style="fill:rgb(43,42,41);font-family:BjtcsgAdvOT65f8a23b.I;font-size:7.97px;stroke:none;">BMC Public Health</text>
   <text y="40.309" x="166.506,170.571,174.636,178.701,182.766" svgx:width="0.51,0.51,0.51,0.51,0.2" style="fill:rgb(43,42,41);font-family:KpncgyAdvOT46dcae81;font-size:7.97px;stroke:none;">2011,</text>
   <text y="40.309" x="186.974,191.373" svgx:width="0.55,0.55" style="fill:rgb(43,42,41);font-family:NwjgyyAdvOT3b30f6db.B;font-size:7.97px;stroke:none;">11</text>
   <text y="40.309" x="195.757,197.327,201.392,205.457" svgx:width="0.2,0.51,0.51,0.51" style="fill:rgb(43,42,41);font-family:KpncgyAdvOT46dcae81;font-size:7.97px;stroke:none;">:262</text>
   <text y="50.232" x="56.693,61.092,63.659,66.225,70.705,72.275,74.929,77.583,83.393,89.124,94.934,96.504,100.983,102.808,107.12,113.76,117.745,122.224,125.787,129.772,134.084,136.65,139.216,143.034,144.859,146.429,149.992,154.304,160.943,163.597,167.662,171.727,175.792,179.777,182.184,186.249,190.313,194.378,198.443,201.097,205.162,209.227,211.881,215.945,220.01" svgx:width="0.55,0.32,0.32,0.56,0.2,0.33,0.33,0.73,0.73,0.73,0.2,0.56,0.23,0.54,0.83,0.5,0.56,0.45,0.5,0.55,0.32,0.32,0.48,0.23,0.2,0.45,0.54,0.83,0.33,0.51,0.51,0.51,0.51,0.3,0.51,0.51,0.51,0.51,0.33,0.51,0.51,0.33,0.51,0.51,0.51" style="fill:rgb(43,42,41);font-family:KpncgyAdvOT46dcae81;font-size:7.97px;stroke:none;">http://www.biomedcentral.com/1471-2458/11/262</text>
   <text y="40.309" x="495.436,499.669,503.486,507.886,511.87100000000004,514.485,518.5497,521.172,525.484,527.7953,530.474,534.538" svgx:width="0.53,0.48,0.55,0.5,0.55,0.51,0.55,0.54,0.29,0.55,0.51,0.51" style="fill:rgb(43,42,41);font-family:KpncgyAdvOT46dcae81;font-size:7.97px;stroke:none;">Page 8 of 10</text>
  </g>
 </g>
</svg>
