<?xml version="1.0" encoding="UTF-8"?>
<svg height="734.819" width="4046.737" xmlns="http://www.w3.org/2000/svg">
 <g id="page" xmlns:svgx="http://www.xml-cml.org/schema/svgx">
  <g begin="text">
   <text y="581.839" x="35.887,38.556,43.401,47.391000000000005,49.977,53.945,58.496,63.088,67.239,71.229,73.872,78.423,82.375,86.173,88.838,92.59,95.849,98.119,102.071,104.282,107.457,111.903,114.173,116.349,118.559,120.83,125.819,130.189,132.792,136.08,139.833,143.091,147.832,150.007,152.728,156.019,158.109,160.781,163.446,168.308,172.298,174.884,179.053,181.34,184.616,189.321,192.74099999999999,195.444,200.319,204.288,207.708,210.354,213.63,218.492,223.059,229.309,234.439,237.132,244.672,249.24,252.515,256.505,259.091,262.379,267.137,270.412,274.182,277.951,282.657,285.378,287.665" svgx:width="0.3,0.53,0.42,0.55,0.44,0.5,0.5,0.46,0.42,0.55,0.5,0.44,0.42,0.3,0.42,0.36,0.26,0.44,0.25,0.35,0.49,0.26,0.25,0.25,0.26,0.54,0.46,0.55,0.36,0.42,0.36,0.52,0.25,0.3,0.36,0.22,0.55,0.3,0.53,0.42,0.55,0.46,0.26,0.36,0.52,0.36,0.55,0.53,0.44,0.36,0.55,0.36,0.53,0.5,0.68,0.54,0.55,0.81,0.5,0.36,0.42,0.55,0.36,0.52,0.36,0.42,0.42,0.52,0.3,0.26,0.35" style="fill:rgb(0,0,0);font-family:AdvTT78ea841c;font-size:9.5px;stroke:none;">the above bacterial-killing results, the virus has shown more suscepti-</text>
   <text y="592.781" x="35.887,40.422,42.69,44.901,47.169,49.834,54.204,56.353,59.059,63.809,65.919,68.625,73.444,77.434,79.567,84.329,89.21,93.745,96.451,100.986,104.974,108.716,111.422,113.69,117.828,121.818,123.951,129.62,136.423,147.025,150.313,154.301,161.784,166.561,168.773,172.515,175.803,177.893,180.055,185.667,190.548,192.816,196.236,198.486,200.753,204.17299999999997,206.366,210.901,214.69,218.432,222.42,227.197,230.491,234.48100000000002,236.614,239.279,244.154,248.144,250.277,255.889,262.747,267.212,269.322,276.873,279.18,283.318,288.193" svgx:width="0.5,0.26,0.25,0.26,0.3,0.46,0.55,0.3,0.5,0.55,0.3,0.53,0.42,0.55,0.52,0.53,0.5,0.3,0.5,0.44,0.42,0.3,0.26,0.46,0.42,0.55,0.61,0.74,0.88,0.36,0.44,0.81,0.52,0.25,0.42,0.36,0.22,0.55,0.61,0.53,0.26,0.36,0.55,0.26,0.36,0.55,0.5,0.42,0.42,0.44,0.52,0.36,0.42,0.55,0.3,0.53,0.42,0.55,0.61,0.74,0.47,0.55,0.81,0.26,0.46,0.53,0.3" style="fill:rgb(0,0,0);font-family:AdvTT78ea841c;font-size:9.5px;stroke:none;">bility to the photoactive RNMsamples. This is because the ROS might</text>
   <text y="603.724" x="35.887,39.658,43.629,46.907,49.196,51.391,55.760999999999996,58.874,62.645,66.616,71.376,74.653,78.643,81.74,85.482,88.76,93.329,96.607,99.884,103.067,105.221,107.546,112.505,116.97,119.26,124.219,128.589,131.702,136.237,138.992,142.133,145.931,149.902,154.607,157.885,160.174,165.114,168.281,173.044,176.321,180.891,183.579,187.351,189.64,194.599,198.01899999999998,201.175,203.443,208.573,211.72,215.915,218.205,221.482,226.188,229.476,233.247,236.479,238.56900000000002,241.695,244.983,248.754,251.986,256.745,258.94,261.628,263.918,268.877,273.247,276.36,278.65,283.78,286.927" svgx:width="0.42,0.44,0.36,0.26,0.25,0.46,0.55,0.42,0.44,0.52,0.36,0.42,0.55,0.42,0.36,0.5,0.36,0.36,0.35,0.25,0.26,0.54,0.49,0.26,0.54,0.46,0.55,0.5,0.29,0.55,0.42,0.44,0.52,0.36,0.26,0.52,0.55,0.52,0.36,0.5,0.3,0.42,0.26,0.54,0.36,0.55,0.26,0.54,0.55,0.46,0.26,0.36,0.52,0.36,0.42,0.36,0.22,0.55,0.36,0.42,0.36,0.52,0.25,0.3,0.26,0.54,0.46,0.55,0.26,0.54,0.55,0.44" style="fill:rgb(0,0,0);font-family:AdvTT78ea841c;font-size:9.5px;stroke:none;">easily cause cross-linking of capsid proteins in viruses, resulting in a</text>
   <text y="614.722" x="35.887,40.633,42.909,46.173,49.931,53.729,56.579,58.719,61.044,68.527,73.273,77.231,79.555,82.787,90.307,94.105,99.051,101.901,104.097,108.653,111.408,113.585,116.306,121.125,125.115,127.248,131.046,135.004,139.75,143.708,148.264,150.54,152.721,154.998,157.673,162.043,164.193,166.913,171.663,173.83,178.366,180.642,185.631,190.571,192.718,195.439,200.189,202.356,205.021,209.871,213.86100000000002,215.994,220.845,225.401,228.665,231.515,233.711,236.975,241.721,244.985,247.556,251.514,255.312,259.302,261.435" svgx:width="0.52,0.26,0.36,0.42,0.42,0.3,0.55,0.26,0.81,0.52,0.44,0.26,0.36,0.81,0.42,0.54,0.3,0.55,0.5,0.29,0.55,0.3,0.53,0.42,0.55,0.42,0.44,0.52,0.44,0.5,0.26,0.25,0.26,0.3,0.46,0.55,0.3,0.5,0.55,0.5,0.26,0.54,0.52,0.55,0.3,0.5,0.55,0.3,0.53,0.42,0.55,0.53,0.5,0.36,0.3,0.55,0.36,0.52,0.36,0.29,0.44,0.42,0.42,0.55,0.34" style="fill:rgb(0,0,0);font-family:AdvTT78ea841c;font-size:9.5px;stroke:none;">direct impairment of the capability to bind to the host surface (</text>
   <text y="614.722" x="264.585,268.837" svgx:width="0.47,0.47" style="fill:rgb(0,0,0);font-family:AdvTT5a3b6cb0.I;font-size:9.5px;stroke:none;">48</text>
   <text y="614.722" x="273.088" svgx:width="0.22" style="fill:rgb(0,0,0);font-family:AdvTT78ea841c;font-size:9.5px;stroke:none;">,</text>
   <text y="614.722" x="277.34,281.593" svgx:width="0.47,0.47" style="fill:rgb(0,0,0);font-family:AdvTT5a3b6cb0.I;font-size:9.5px;stroke:none;">50</text>
   <text y="614.722" x="285.844,288.962" svgx:width="0.34,0.22" style="fill:rgb(0,0,0);font-family:AdvTT78ea841c;font-size:9.5px;stroke:none;">).</text>
   <text y="636.605" x="35.886,41.519,44.084,49.518,55.152,58.714,64.148,67.606,72.546,76.793,80.251,82.816,88.25,93.76,96.998,101.938,107.572,113.205,115.77,118.335,122.582,127.522,130.98,133.545,138.979,144.489,147.793,153.227,156.362,159.584,165.123,171.649,179.658" svgx:width="0.59,0.27,0.57,0.59,0.38,0.57,0.36,0.52,0.45,0.36,0.27,0.57,0.58,0.55,0.52,0.59,0.59,0.27,0.27,0.45,0.52,0.36,0.27,0.57,0.58,0.55,0.57,0.33,0.55,0.58,0.69,0.84,0.43" style="fill:rgb(0,0,0);font-family:AdvTTaf7f9f4f.B;font-size:9.5px;stroke:none;">Bioprotection application of RNMs</text>
   <text y="647.603" x="35.886,45.082,47.552,50.421,55.456,58.222,61.091,66.136,70.12599999999999,72.848,77.0,81.75,86.5,90.851,94.841,97.622,101.08,105.032,108.49,113.43,115.805,118.674,122.09400000000001,124.89,127.36,132.49,135.265,142.979,145.449,150.589,155.529,157.619,160.435,166.867,170.857,173.588,176.353,181.293,184.751,187.62,192.664,196.616,200.036,202.841,207.781,211.733,219.447,224.197,229.336,232.794,235.663,239.121,243.273,246.142,250.094,255.034,257.887,260.756,265.801,269.791,272.514,277.454,280.323,282.793,285.168,287.638" svgx:width="0.97,0.26,0.3,0.53,0.55,0.3,0.53,0.42,0.55,0.44,0.5,0.5,0.46,0.42,0.55,0.36,0.42,0.36,0.52,0.25,0.3,0.36,0.55,0.26,0.54,0.55,0.81,0.26,0.54,0.52,0.22,0.55,0.68,0.42,0.55,0.29,0.52,0.36,0.3,0.53,0.42,0.36,0.55,0.52,0.42,0.81,0.5,0.54,0.36,0.3,0.36,0.44,0.3,0.42,0.52,0.55,0.3,0.53,0.42,0.55,0.52,0.3,0.26,0.25,0.26,0.35" style="fill:rgb(0,0,0);font-family:AdvTT78ea841c;font-size:9.5px;stroke:none;">With the above results in mind, we further demonstrated the utili-</text>
   <text y="658.545" x="35.886,39.838,43.989,46.858,49.328,54.078,59.208000000000006,60.83,65.58,68.335,69.957,75.496,82.421,88.653,95.18,98.543,104.376,111.396,121.489,125.641,129.061,130.673,134.853,136.455,141.205,143.675,148.425,152.377,154.847,159.787,163.939,166.314,167.976,171.434,176.374,179.832,182.596,186.748,190.7,194.69,196.321,199.085,204.025,209.165,213.117,215.986,218.456,223.206,228.33599999999998,229.995,232.37,236.522,240.873,244.825,248.24499999999998,249.894,252.658,257.408,260.82800000000003,262.537,267.287,269.757,274.507,279.447,282.905,287.655" svgx:width="0.42,0.44,0.3,0.26,0.5,0.54,0.55,0.5,0.29,0.55,0.58,0.73,0.66,0.69,0.35,0.61,0.74,0.88,0.44,0.36,0.55,0.44,0.55,0.5,0.26,0.5,0.42,0.26,0.52,0.44,0.25,0.55,0.36,0.52,0.36,0.29,0.44,0.42,0.42,0.55,0.29,0.52,0.54,0.42,0.3,0.26,0.5,0.54,0.55,0.25,0.44,0.46,0.42,0.36,0.55,0.29,0.5,0.36,0.55,0.5,0.26,0.5,0.52,0.36,0.5,0.35" style="fill:rgb(0,0,0);font-family:AdvTT78ea841c;font-size:9.5px;stroke:none;">zation of BDCA-RNMas a biocidal surface function layer for biopro-</text>
   <text y="669.487" x="35.886,38.755,42.707,46.659,49.528,51.998,56.748,61.878,63.835,67.986,72.926,77.866,80.241,82.711,86.663,90.815,93.684,96.154,100.904,106.043,109.501,111.59100000000001,113.609,119.442,124.192,126.138,128.902,133.054,137.006,139.476,141.851,145.803,148.178,152.548,154.483,156.953,162.092,164.961,168.913,173.264,176.722,180.874,183.743,187.733,189.688,192.158,195.00799999999998,197.001,199.87,204.62,206.582,210.534,215.474,218.932,222.39,226.342,231.481,234.331,236.344,241.683,247.022,252.34199999999998,254.315,262.029,266.181,269.05,273.002,276.46,278.93,283.081,285.456,288.914" svgx:width="0.3,0.42,0.42,0.3,0.26,0.5,0.54,0.55,0.44,0.52,0.52,0.25,0.26,0.42,0.44,0.3,0.26,0.5,0.54,0.36,0.22,0.55,0.61,0.5,0.55,0.29,0.44,0.42,0.26,0.25,0.42,0.25,0.46,0.55,0.26,0.54,0.3,0.42,0.46,0.36,0.44,0.3,0.42,0.55,0.26,0.3,0.55,0.3,0.5,0.55,0.42,0.52,0.36,0.36,0.42,0.54,0.3,0.55,0.56,0.56,0.56,0.55,0.81,0.44,0.3,0.42,0.36,0.26,0.44,0.25,0.36,0.22" style="fill:rgb(0,0,0);font-family:AdvTT78ea841c;font-size:9.5px;stroke:none;">tection applications. To facilely integrate it to current PPE materials,</text>
   <text y="680.485" x="35.886,42.317,46.307,48.358,50.667,55.599,59.737,63.535,66.832,69.497,71.764,75.959,79.949,82.614,86.356,91.29599999999999,93.443,96.108,100.983,104.973,107.049,109.374,114.306,116.971,120.761,123.993,127.784,131.526,136.304,139.012,141.28,145.815,150.945,153.072,157.831,161.109,165.678,170.438,174.209,177.487,180.175,182.465,186.236,189.65599999999998,191.792,196.384,199.13899999999998,201.26,203.925,208.789,212.779,214.854,220.212,226.902,232.954,239.3,242.482,248.135,254.975,265.52,269.491,273.661,277.632,279.922,284.881,288.158" svgx:width="0.68,0.42,0.55,0.26,0.54,0.46,0.42,0.36,0.3,0.26,0.46,0.44,0.3,0.42,0.52,0.55,0.3,0.53,0.42,0.55,0.26,0.54,0.3,0.42,0.36,0.42,0.42,0.52,0.3,0.26,0.5,0.54,0.55,0.52,0.36,0.5,0.52,0.42,0.36,0.3,0.26,0.42,0.36,0.55,0.5,0.29,0.55,0.3,0.53,0.42,0.55,0.58,0.73,0.66,0.69,0.35,0.61,0.74,0.88,0.44,0.46,0.44,0.26,0.54,0.36,0.3" style="fill:rgb(0,0,0);font-family:AdvTT78ea841c;font-size:9.5px;stroke:none;">we investigated the interception properties of the BDCA-RNMagainst</text>
   <text y="691.428" x="35.886,40.638,42.826,45.508,48.779,52.743,55.321,57.604,62.556,66.54599999999999,68.396,73.158,77.122,80.393,83.075,85.358,89.123,91.311,95.075,98.346,100.436,102.258,111.273,115.26299999999999,117.113,120.911,124.875,128.146,131.417,133.7,137.464,142.404,144.324,148.887,153.64,156.48999999999998,158.402,161.067,165.924,169.91400000000002,171.778,174.358,176.642,178.832,181.516,184.789,188.755,191.439,193.723,198.288,203.418,205.318,210.073,213.84,217.112,219.692,224.256,227.529,235.012,238.98,243.935,247.701,251.691,253.541,257.339,261.505,265.471,267.661,272.416,276.382,279.066,281.35,285.915" svgx:width="0.52,0.25,0.3,0.36,0.44,0.29,0.26,0.54,0.42,0.55,0.52,0.44,0.36,0.3,0.26,0.42,0.25,0.42,0.36,0.22,0.55,0.97,0.42,0.55,0.42,0.44,0.36,0.36,0.26,0.42,0.52,0.55,0.5,0.52,0.3,0.55,0.3,0.53,0.42,0.55,0.29,0.26,0.25,0.3,0.36,0.44,0.3,0.26,0.5,0.54,0.55,0.52,0.42,0.36,0.29,0.5,0.36,0.81,0.44,0.54,0.42,0.42,0.55,0.42,0.46,0.44,0.25,0.52,0.44,0.3,0.26,0.5,0.54" style="fill:rgb(0,0,0);font-family:AdvTT78ea841c;font-size:9.5px;stroke:none;">ultrafine particles. We carried out the filtration performance evaluation</text>
   <text y="702.37" x="35.886,40.455,44.824999999999996,46.351,51.11,54.342,56.632,61.591,65.961,67.486,70.151,75.015,79.005,80.515,85.274,89.844,92.038,96.209,100.968,103.258,106.535,111.295,115.066,118.344,121.621,125.61099999999999,127.121,130.353,134.945,139.704,141.994,146.753,155.994,159.766,164.584,166.779,171.268,174.544,176.831,181.589,185.579,187.089,190.165,197.003,200.972,207.021,209.214,212.444,213.976,218.734,222.703,225.979,228.665,230.953,234.723,236.915,240.685,244.105,245.674,251.91,254.198,256.884,261.91900000000004,263.46,267.64,269.13,273.887,276.175,280.144,287.676" svgx:width="0.5,0.46,0.55,0.52,0.36,0.26,0.54,0.46,0.55,0.3,0.53,0.42,0.55,0.52,0.5,0.25,0.46,0.52,0.26,0.36,0.52,0.42,0.36,0.36,0.42,0.55,0.36,0.5,0.52,0.26,0.52,0.81,0.42,0.53,0.25,0.5,0.36,0.26,0.52,0.42,0.55,0.34,0.74,0.44,0.66,0.25,0.34,0.55,0.52,0.44,0.36,0.3,0.26,0.42,0.25,0.42,0.36,0.55,0.68,0.26,0.3,0.53,0.55,0.44,0.55,0.52,0.26,0.44,0.81,0.35" style="fill:rgb(0,0,0);font-family:AdvTT78ea841c;font-size:9.5px;stroke:none;">by using the polydisperse sodiumchloride (NaCl) particles with a diam-</text>
   <text y="581.841" x="302.966,306.729,309.409,313.172,316.59200000000004,318.501,323.062,325.817,327.654,332.016,336.377,340.937,342.727,345.407,350.157,351.983,356.344,360.706,365.266,367.056,372.006,381.531,386.282,391.232,395.983,399.746,403.166,405.018,407.286,412.237,416.0,419.268,423.031,426.994,430.263,432.544,437.494,441.86400000000003,443.674,447.642,449.923,453.192,455.767,457.953,462.514,468.757,470.847,472.669,479.019,482.439,484.291,487.579,492.435,496.996,503.238,508.368,510.211,512.492,517.622,519.465,524.216,526.497,530.659,532.749,534.571,538.932,545.27,547.36,549.182,553.717" svgx:width="0.42,0.3,0.42,0.36,0.55,0.5,0.29,0.55,0.48,0.48,0.48,0.55,0.3,0.5,0.55,0.48,0.48,0.48,0.55,0.54,0.81,0.52,0.54,0.52,0.42,0.36,0.55,0.26,0.54,0.42,0.36,0.42,0.44,0.36,0.26,0.54,0.46,0.55,0.44,0.26,0.36,0.29,0.25,0.5,0.68,0.22,0.55,0.69,0.36,0.55,0.36,0.53,0.5,0.68,0.54,0.55,0.26,0.54,0.55,0.52,0.26,0.46,0.22,0.55,0.48,0.69,0.22,0.55,0.5,0.46" style="fill:rgb(0,0,0);font-family:AdvTT78ea841c;font-size:9.5px;stroke:none;">eter of 300 to 500 nmunder increasing airflow. As shown in Fig. 5A, by</text>
   <text y="592.783" x="302.966,305.233,310.222,313.964,317.422,321.374,325.525,328.983,331.453,336.593,340.963,342.649,345.518,350.563,354.553,356.198,360.35,362.82,366.278,369.042,371.417,376.167,384.26,387.025,390.483,395.233,404.612,409.162,413.722,415.327,418.196,422.946,424.625,429.175,433.735,435.396,437.771,440.241,443.11,447.062,450.482,452.177,459.891,462.361" svgx:width="0.26,0.54,0.42,0.36,0.42,0.44,0.36,0.26,0.54,0.46,0.55,0.3,0.53,0.42,0.55,0.44,0.26,0.36,0.29,0.25,0.5,0.68,0.29,0.36,0.5,0.81,0.48,0.48,0.55,0.3,0.5,0.55,0.48,0.48,0.55,0.25,0.26,0.3,0.42,0.36,0.55,0.81,0.26,0.54" style="fill:rgb(0,0,0);font-family:AdvTT78ea841c;font-size:9.5px;stroke:none;">increasing the airflowfrom10 to 90 liter min</text>
   <text y="588.586" x="467.49,471.571" svgx:width="0.57,0.48" style="fill:rgb(0,0,0);font-family:AdvTT78ea841c;font-size:6.33px;stroke:none;">−1</text>
   <text y="592.781" x="475.03,477.11999999999995,478.715,481.584,486.628,490.618,492.264,495.028,497.498,499.873,502.742,506.2,510.352,513.221,515.691,520.441,525.571,527.242,531.194,533.958,536.723,539.193,543.145,545.615,549.567,554.706" svgx:width="0.22,0.55,0.3,0.53,0.42,0.55,0.29,0.26,0.25,0.3,0.36,0.44,0.3,0.26,0.5,0.54,0.55,0.42,0.29,0.29,0.26,0.42,0.26,0.42,0.54,0.35" style="fill:rgb(0,0,0);font-family:AdvTT78ea841c;font-size:9.5px;stroke:none;">, the filtration efficien-</text>
   <text y="603.723" x="302.968,306.92,311.29,313.116,317.866,320.621,322.413,325.282,330.327,334.317,336.076,341.615,348.54,354.772,361.299,364.662,370.495,377.515,385.923,389.343,391.236,395.188,399.634,404.679,407.149,411.899,414.369,417.238,421.19,426.13,427.972,432.152,433.924,438.275,442.227,445.685,450.055,451.838,455.296,457.671,460.141,464.492,469.537,472.387,474.232,479.172,483.124,487.076,490.534,494.486,498.637,502.095,506.08500000000004,507.906,510.671,514.129,518.879,528.428,532.979,537.529,539.6,544.151,548.7109999999999,550.538,553.407" svgx:width="0.42,0.46,0.55,0.5,0.29,0.55,0.3,0.53,0.42,0.55,0.58,0.73,0.66,0.69,0.35,0.61,0.74,0.88,0.36,0.55,0.42,0.47,0.53,0.26,0.5,0.26,0.3,0.42,0.52,0.55,0.44,0.55,0.46,0.42,0.36,0.46,0.55,0.36,0.25,0.26,0.46,0.53,0.3,0.55,0.52,0.42,0.42,0.36,0.42,0.44,0.36,0.42,0.55,0.29,0.36,0.5,0.81,0.48,0.48,0.22,0.48,0.48,0.55,0.3,0.5" style="fill:rgb(0,0,0);font-family:AdvTT78ea841c;font-size:9.5px;stroke:none;">cy of the BDCA-RNMs exhibited a very slight decrease from99.98 to</text>
   <text y="614.721" x="302.968,307.333,311.883,313.954,318.505,323.056,330.181,332.27099999999996,334.261,340.692,345.737,348.207,352.159,357.194,359.262,365.693,369.845,373.26500000000004,375.305,380.245,382.715,386.173,389.042,391.512,396.652,400.604,403.473,405.848,410.218,412.211,417.256,419.726,424.077,429.121,433.073,436.493,438.573,441.442,446.486,450.638,455.768,457.791,460.66,465.705,469.856,472.706,474.742,479.492,482.247,484.266,487.135,492.179,496.169,498.099,505.119,509.67,514.23,516.24,519.004,523.156,527.108,529.578,533.729,536.104,538.122,545.836,549.988,553.446" svgx:width="0.48,0.48,0.22,0.48,0.48,0.75,0.22,0.55,0.68,0.53,0.26,0.42,0.53,0.55,0.68,0.44,0.36,0.55,0.52,0.26,0.36,0.3,0.26,0.54,0.42,0.3,0.25,0.46,0.55,0.53,0.26,0.46,0.53,0.42,0.36,0.55,0.3,0.53,0.44,0.54,0.55,0.3,0.53,0.44,0.3,0.55,0.5,0.29,0.55,0.3,0.53,0.42,0.55,0.74,0.48,0.48,0.55,0.29,0.44,0.42,0.26,0.44,0.25,0.55,0.81,0.44,0.36,0.49" style="fill:rgb(0,0,0);font-family:AdvTT78ea841c;font-size:9.5px;stroke:none;">99.07%, which was distinctly higher than that of the N95 facial mask</text>
   <text y="625.664" x="302.968,306.03,310.395,314.76,321.733,324.795,326.885,328.31,334.741,337.211,342.151,346.103,348.478,352.848,354.444,359.384,362.842,366.794,371.734,373.379,378.129,382.499,384.094,391.314,397.546,406.742,410.2,412.28999999999996,413.914,422.321,426.273,430.425,435.564,441.996,447.04,449.51,451.885,455.837,457.92699999999996,459.55,462.419,467.463,471.45300000000003,473.042,477.982,481.44,485.392,488.85,492.308,497.248,500.706,504.696,506.32,511.26,514.718,519.468,524.408,527.828,529.507,532.965,538.009,542.759,549.191,553.143" svgx:width="0.34,0.48,0.48,0.75,0.34,0.22,0.55,0.68,0.26,0.52,0.42,0.25,0.46,0.55,0.52,0.36,0.42,0.52,0.55,0.5,0.46,0.55,0.76,0.66,0.97,0.36,0.22,0.55,0.88,0.42,0.44,0.54,0.68,0.53,0.26,0.25,0.42,0.22,0.55,0.3,0.53,0.42,0.55,0.52,0.36,0.42,0.36,0.36,0.52,0.36,0.42,0.55,0.52,0.36,0.5,0.52,0.36,0.55,0.36,0.53,0.5,0.68,0.42,0.52" style="fill:rgb(0,0,0);font-family:AdvTT78ea841c;font-size:9.5px;stroke:none;">(95%), widely used by HCWs. Meanwhile, the pressure drops showed</text>
   <text y="636.606" x="302.968,307.119,312.249,314.93,317.4,322.54,326.492,329.95,333.902,338.053,341.511,345.463,350.403,353.14,356.009,359.467,363.419,368.559,373.499,376.214,381.154,383.624,387.082,391.034,394.986,397.855,400.23,404.6,407.28,412.22,415.678,420.428,425.368,430.118,433.577,436.445,438.915,443.665,448.805,452.956,455.331,458.018,460.887,465.637,468.336,471.205,476.25,480.24,482.905,487.057,489.527,492.985,495.749,498.124,502.874,509.306,511.39599999999996,514.085,516.555,521.695,526.635,529.105,533.057,537.208,539.88,542.204,547.137,551.507,553.997" svgx:width="0.44,0.54,0.55,0.26,0.54,0.42,0.36,0.42,0.44,0.36,0.42,0.52,0.55,0.3,0.36,0.42,0.54,0.52,0.55,0.52,0.26,0.36,0.42,0.42,0.3,0.25,0.46,0.55,0.52,0.36,0.5,0.52,0.5,0.36,0.3,0.26,0.5,0.54,0.44,0.25,0.55,0.3,0.5,0.55,0.3,0.53,0.42,0.55,0.44,0.26,0.36,0.29,0.25,0.5,0.68,0.22,0.55,0.26,0.54,0.52,0.26,0.42,0.44,0.3,0.26,0.54,0.46,0.55,0.44" style="fill:rgb(0,0,0);font-family:AdvTT78ea841c;font-size:9.5px;stroke:none;">an increased trend directly proportional to the airflow, indicating a</text>
   <text y="647.604" x="302.968,306.745,310.487,312.687,314.842,319.607,321.807,325.784,329.016,332.204,336.969,341.544,349.083,351.379,356.311,360.288,362.982,366.759,371.699,373.449,378.214,381.991,385.275,392.758,396.535,400.512,403.206,405.501,410.076,415.206,416.993,421.529,425.327,430.146,434.114,438.29,440.586,445.161,448.581,450.376,453.659,455.955,463.494,465.789,467.944,471.912,475.332,477.184,479.849,484.599,486.369,489.034,493.903,497.88,500.73,502.528,507.064,509.819,511.599,514.32,519.139,523.129,524.865,529.44,534.205,537.947,542.937,546.125,549.867,553.609,555.82" svgx:width="0.42,0.42,0.25,0.25,0.52,0.25,0.44,0.36,0.35,0.52,0.5,0.81,0.26,0.54,0.44,0.3,0.42,0.52,0.55,0.52,0.42,0.36,0.81,0.42,0.44,0.3,0.26,0.5,0.54,0.55,0.5,0.42,0.53,0.44,0.46,0.26,0.5,0.36,0.55,0.36,0.26,0.81,0.26,0.25,0.44,0.36,0.55,0.3,0.5,0.55,0.3,0.53,0.44,0.3,0.55,0.5,0.29,0.55,0.3,0.53,0.42,0.55,0.5,0.52,0.42,0.54,0.35,0.42,0.42,0.25,0.25" style="fill:rgb(0,0,0);font-family:AdvTT78ea841c;font-size:9.5px;stroke:none;">cellular-dominated permeation behavior similar to that of the open-cell</text>
   <text y="658.546" x="302.968,307.73,312.322,315.554,320.147,324.909,328.329,330.351,333.583,336.304,339.536,344.298,348.097,350.761,355.524,358.812,362.802,364.707" svgx:width="0.52,0.5,0.36,0.5,0.52,0.36,0.55,0.36,0.3,0.36,0.52,0.42,0.3,0.52,0.36,0.42,0.55,0.34" style="fill:rgb(0,0,0);font-family:AdvTT78ea841c;font-size:9.5px;stroke:none;">porous structure (</text>
   <text y="658.546" x="367.767,372.075" svgx:width="0.47,0.47" style="fill:rgb(0,0,0);font-family:AdvTT5a3b6cb0.I;font-size:9.5px;stroke:none;">51</text>
   <text y="658.546" x="376.328,379.391,381.481,383.474,387.725,390.0,394.156,399.146,401.421,403.991,406.266,410.023,413.98,418.969,421.644,423.824,427.98,430.07,432.062,434.737,439.586,443.576,445.539,453.079,457.036,461.287,463.562,471.082,475.827,485.522,490.267,493.53,497.287,500.551,503.814,508.559,511.822,515.812,517.775,522.52,525.784,530.339,535.2790000000001,537.255,541.81,544.5649999999999,546.572,549.247,554.096" svgx:width="0.34,0.22,0.55,0.47,0.26,0.46,0.54,0.26,0.29,0.26,0.42,0.44,0.54,0.3,0.25,0.46,0.22,0.55,0.3,0.53,0.42,0.55,0.81,0.44,0.47,0.26,0.81,0.52,0.81,0.52,0.36,0.42,0.36,0.36,0.52,0.36,0.42,0.55,0.52,0.36,0.5,0.52,0.55,0.5,0.29,0.55,0.3,0.53,0.42" style="fill:rgb(0,0,0);font-family:AdvTT78ea841c;font-size:9.5px;stroke:none;">). Significantly, the maximumpressure drop of the</text>
   <text y="669.488" x="302.967,308.319,315.009,321.055,327.395,330.572,336.219,343.053,353.088,359.333,363.298,366.718,368.401,372.765,377.129,381.689,383.309,388.462,392.642,394.245,398.21,401.06,402.688,407.052,411.612,413.232,415.421,417.705,420.388,424.153,427.57300000000004,429.256,436.796,439.08" svgx:width="0.58,0.73,0.66,0.69,0.35,0.61,0.74,0.88,0.68,0.44,0.36,0.55,0.48,0.48,0.48,0.55,0.56,0.44,0.55,0.44,0.3,0.55,0.48,0.48,0.55,0.25,0.26,0.3,0.42,0.36,0.55,0.81,0.26,0.54" style="fill:rgb(0,0,0);font-family:AdvTT78ea841c;font-size:9.5px;stroke:none;">BDCA-RNMwas 128 Pa at 90 liter min</text>
   <text y="665.291" x="444.076,447.931" svgx:width="0.57,0.48" style="fill:rgb(0,0,0);font-family:AdvTT78ea841c;font-size:6.33px;stroke:none;">−1</text>
   <text y="669.487" x="451.162,453.25199999999995,454.847,461.14,465.959,468.227,472.025,477.06,478.715,484.951,488.919,492.339,493.964,498.556,503.489,505.7,510.07,511.652,515.832,517.435,520.156,524.974,527.242,530.53,535.47,537.107,541.699,544.454,546.234,549.103,554.148" svgx:width="0.22,0.55,0.68,0.53,0.26,0.42,0.53,0.55,0.68,0.44,0.36,0.55,0.5,0.54,0.25,0.46,0.55,0.44,0.55,0.3,0.53,0.26,0.36,0.52,0.55,0.5,0.29,0.55,0.3,0.53,0.42" style="fill:rgb(0,0,0);font-family:AdvTT78ea841c;font-size:9.5px;stroke:none;">, which was only a third of the</text>
   <text y="680.485" x="302.967,307.721,310.994,314.761,318.034,321.306,326.061,329.293,333.283,335.473,340.228,343.5,348.065,353.005,355.208,358.481,361.165,365.131,370.085,374.84,378.806,382.038,386.978,389.238,393.803,396.558,398.791,401.475,406.334,410.324,412.457,419.317,423.682,428.242,430.429,433.008,436.921,440.687,444.454,451.983,455.949,459.222,463.87699999999995,466.082,469.155,473.52,477.885,482.445,484.632,489.786,493.966,496.136,500.102,502.952,505.205,509.57,514.13,516.317,518.471,520.796,523.48,527.247,530.6669999999999,532.916,540.456,542.741" svgx:width="0.52,0.36,0.42,0.36,0.36,0.52,0.36,0.42,0.55,0.52,0.36,0.5,0.52,0.55,0.36,0.3,0.44,0.54,0.52,0.44,0.36,0.52,0.55,0.5,0.29,0.55,0.3,0.53,0.42,0.55,0.74,0.48,0.48,0.55,0.29,0.44,0.42,0.42,0.81,0.44,0.36,0.49,0.55,0.34,0.48,0.48,0.48,0.55,0.56,0.44,0.55,0.44,0.3,0.55,0.48,0.48,0.55,0.25,0.26,0.3,0.42,0.36,0.55,0.81,0.26,0.54" style="fill:rgb(0,0,0);font-family:AdvTT78ea841c;font-size:9.5px;stroke:none;">pressure drop standard of the N95 facemask (350 Pa at 85 liter min</text>
   <text y="676.233" x="547.767,551.622" svgx:width="0.57,0.48" style="fill:rgb(0,0,0);font-family:AdvTT78ea841c;font-size:6.33px;stroke:none;">−1</text>
   <text y="680.485" x="554.853" svgx:width="0.34" style="fill:rgb(0,0,0);font-family:AdvTT78ea841c;font-size:9.5px;stroke:none;">)</text>
   <text y="691.427" x="302.968" svgx:width="0.34" style="fill:rgb(0,0,0);font-family:AdvTT78ea841c;font-size:9.5px;stroke:none;">(</text>
   <text y="691.427" x="306.029" svgx:width="0.47" style="fill:rgb(0,0,0);font-family:AdvTT5a3b6cb0.I;font-size:9.5px;stroke:none;">8</text>
   <text y="691.427" x="310.338,313.4,315.48999999999995,318.162,323.01,325.334,329.489,334.337,336.515,338.788,342.943,347.79,350.463,352.787,357.73,362.1,364.76,367.433,372.28,376.27,378.913,382.201,386.755,391.308,396.051,399.313,402.163,404.868,409.461,412.722,416.52,420.475,423.147,427.995,431.95,436.503,438.828,441.006,443.331,446.003,450.373,453.033,457.587,460.342,463.029,465.751,470.569,474.559,477.202,482.192,486.147,491.089,495.643,498.211,500.535,505.071,508.332,512.885,517.629,521.049,523.751,527.013,529.685,532.946,537.69,541.488,544.153,548.896,552.157,555.913" svgx:width="0.34,0.22,0.55,0.53,0.26,0.46,0.53,0.25,0.26,0.46,0.53,0.3,0.26,0.54,0.46,0.55,0.3,0.53,0.42,0.55,0.36,0.5,0.5,0.52,0.36,0.3,0.55,0.5,0.36,0.42,0.44,0.3,0.53,0.44,0.5,0.26,0.25,0.26,0.3,0.46,0.55,0.5,0.29,0.55,0.3,0.53,0.42,0.55,0.54,0.44,0.54,0.5,0.29,0.26,0.5,0.36,0.5,0.52,0.36,0.55,0.36,0.3,0.36,0.52,0.42,0.3,0.52,0.36,0.42,0.22" style="fill:rgb(0,0,0);font-family:AdvTT78ea841c;font-size:9.5px;stroke:none;">), highlighting the robust breathability of the nanofibrous structure.</text>
   <text y="702.369" x="302.968,308.368,312.981,316.971,318.196,322.731,325.757,330.122,337.404,339.442,342.468,344.505,349.213,354.825,357.206,359.246,361.189,363.626,366.652,370.371,372.808,374.905,379.223,385.629,389.149,391.481,393.862,395.902,399.422,401.46,404.979,409.742,413.262,418.874,424.873,428.593,432.01300000000003,433.298,437.04,438.983,442.009,448.018,451.533,455.851,460.558,462.939,464.979,468.005,475.287,478.807,485.043,489.36,494.973,498.987,503.893,513.531,517.839,522.205,525.209,528.729,531.755,535.674,539.393,541.83,543.867,548.185,552.948,555.973" svgx:width="0.61,0.53,0.42,0.55,0.52,0.36,0.5,0.81,0.26,0.36,0.26,0.54,0.46,0.29,0.26,0.25,0.3,0.36,0.44,0.3,0.26,0.5,0.54,0.42,0.29,0.29,0.26,0.42,0.26,0.42,0.54,0.42,0.46,0.68,0.44,0.36,0.55,0.44,0.25,0.36,0.5,0.42,0.5,0.54,0.29,0.26,0.36,0.81,0.42,0.52,0.5,0.46,0.47,0.56,0.88,0.5,0.5,0.36,0.42,0.36,0.46,0.44,0.3,0.26,0.5,0.54,0.36,0.22" style="fill:rgb(0,0,0);font-family:AdvTT78ea841c;font-size:9.5px;stroke:none;">The promisingfiltrationefficiencywas alsoconfirmedbySEMobservations;</text>
  </g>
  <rect style="stroke:blue;stroke-width:0.3;" x="36.737" y="99.786" height="438.52" width="520.498" title="7"/>
  <text y="99.786" class="image" id="image.7.1" width="520" height="438" x="36.737">image.7.1.37_557.100_538</text>
  <g begin="text">
   <text y="505.304" x="35.887,39.787,41.812,46.184,48.059,50.116,54.256,56.131,59.868,64.705,69.077,71.807,73.832,78.28,82.18,85.532,88.262,92.162,94.975,97.0,100.899,102.924,105.051,108.951,113.324,117.749,119.848,123.748,128.12,130.85,132.875,136.775,138.8,141.613,145.513,147.538,149.611,154.059,156.871,161.161,165.609,169.509,172.321,175.051,177.076,180.976,184.201,186.291,190.581,193.05599999999998,195.135,199.582,204.735,209.182,214.02,216.36,220.732,225.885,232.207" svgx:width="0.52,0.27,0.58,0.25,0.55,0.55,0.25,0.55,0.64,0.58,0.36,0.27,0.59,0.52,0.45,0.36,0.52,0.38,0.27,0.52,0.27,0.55,0.52,0.58,0.59,0.55,0.52,0.58,0.36,0.27,0.52,0.27,0.38,0.52,0.27,0.55,0.59,0.38,0.57,0.59,0.52,0.38,0.36,0.27,0.52,0.43,0.55,0.57,0.33,0.55,0.59,0.69,0.59,0.64,0.31,0.58,0.69,0.84,0.25" style="fill:rgb(0,0,0);font-family:AdvTTaf7f9f4f.B;font-size:7.5px;stroke:none;">Fig. 4. Antibacterial and antiviral properties of BDCA-RNM.</text>
   <text y="505.304" x="236.183" svgx:width="0.28" style="fill:rgb(0,0,0);font-family:AdvTTe45e47d2;font-size:7.5px;stroke:none;">(</text>
   <text y="505.304" x="238.28" svgx:width="0.64" style="fill:rgb(0,0,0);font-family:AdvTTaf7f9f4f.B;font-size:7.5px;stroke:none;">A</text>
   <text y="505.304" x="245.197,248.789,252.929" svgx:width="0.48,0.55,0.56" style="fill:rgb(0,0,0);font-family:AdvTTe45e47d2;font-size:7.5px;stroke:none;">and</text>
   <text y="505.304" x="259.2" svgx:width="0.59" style="fill:rgb(0,0,0);font-family:AdvTTaf7f9f4f.B;font-size:7.5px;stroke:none;">B</text>
   <text y="505.304" x="263.679,265.779,267.817,271.875,275.467,278.82,281.235,284.984,287.399,289.117,292.469,294.187,298.402,301.994,303.71900000000005,305.801,309.394,312.746,315.161,316.879,320.471,322.188,324.603,328.128,330.236,333.828,337.968,341.561,343.278,347.418,350.381" svgx:width="0.28,0.55,0.54,0.48,0.45,0.32,0.5,0.32,0.23,0.45,0.23,0.56,0.48,0.23,0.55,0.48,0.45,0.32,0.23,0.48,0.23,0.32,0.47,0.55,0.48,0.55,0.48,0.23,0.55,0.4,0.32" style="fill:rgb(0,0,0);font-family:AdvTTe45e47d2;font-size:7.5px;stroke:none;">) Bactericidal activity against</text>
   <text y="505.304" x="354.841,358.351,359.926,361.984,365.104,369.004,370.639" svgx:width="0.47,0.21,0.55,0.42,0.52,0.22,0.22" style="fill:rgb(0,0,0);font-family:AdvTT7329fd89.I;font-size:7.5px;stroke:none;">E. coli</text>
   <text y="505.304" x="374.343,377.935,382.075" svgx:width="0.48,0.55,0.56" style="fill:rgb(0,0,0);font-family:AdvTTe45e47d2;font-size:7.5px;stroke:none;">and</text>
   <text y="505.304" x="388.346,391.623,393.198,395.262,396.897,400.88,404.862,408.762,411.882,415.782" svgx:width="0.44,0.21,0.55,0.22,0.53,0.53,0.52,0.42,0.52,0.52" style="fill:rgb(0,0,0);font-family:AdvTT7329fd89.I;font-size:7.5px;stroke:none;">L. innocua</text>
   <text y="505.304" x="421.795,425.852,428.027,430.072,434.129,439.049,443.339,447.869,450.134,454.116,459.036,465.036,467.148,471.205,475.345,479.56,483.31,485.71,487.784,491.999,495.591,499.101,500.819,502.536,506.676,510.816,513.216,515.279,516.997,519.412,521.827,525.419,529.634,531.352,534.944,537.359,539.077,543.134,547.259,549.408,551.516,556.046" svgx:width="0.54,0.29,0.55,0.54,0.66,0.57,0.6,0.3,0.53,0.66,0.8,0.55,0.54,0.55,0.56,0.5,0.32,0.55,0.56,0.48,0.47,0.23,0.23,0.55,0.55,0.32,0.55,0.23,0.32,0.32,0.48,0.56,0.23,0.48,0.32,0.23,0.54,0.55,0.55,0.28,0.6,0.28" style="fill:rgb(0,0,0);font-family:AdvTTe45e47d2;font-size:7.5px;stroke:none;">of BDCA-RNM under daylight irradiation (A)</text>
   <text y="515.282" x="35.887,39.479,43.619,47.819,49.89,53.242,57.382,60.974,63.389,67.529,71.279,75.479,77.555,81.613,86.533,90.823,95.352,97.617,101.6,106.52,112.52,114.632,118.689,122.829,127.044,130.794,133.19400000000002,135.268,139.483,143.075,145.49,149.01500000000001,151.085,154.437,158.495,162.635,166.85,168.567,170.982,172.7,176.757,180.897,183.897,185.951,188.058,192.115,194.223,195.723,197.799" svgx:width="0.48,0.55,0.56,0.55,0.45,0.55,0.48,0.32,0.55,0.5,0.56,0.55,0.54,0.66,0.57,0.6,0.3,0.53,0.66,0.8,0.55,0.54,0.55,0.56,0.5,0.32,0.55,0.56,0.48,0.32,0.47,0.55,0.45,0.54,0.55,0.56,0.23,0.32,0.23,0.54,0.55,0.4,0.55,0.28,0.54,0.28,0.2,0.55,0.28" style="fill:rgb(0,0,0);font-family:AdvTTe45e47d2;font-size:7.5px;stroke:none;">and charged BDCA-RNM under dark conditions (B). (</text>
   <text y="515.282" x="199.899" svgx:width="0.59" style="fill:rgb(0,0,0);font-family:AdvTTaf7f9f4f.B;font-size:7.5px;stroke:none;">C</text>
   <text y="515.282" x="206.419,210.011,214.151" svgx:width="0.48,0.55,0.56" style="fill:rgb(0,0,0);font-family:AdvTTe45e47d2;font-size:7.5px;stroke:none;">and</text>
   <text y="515.282" x="220.422" svgx:width="0.69" style="fill:rgb(0,0,0);font-family:AdvTTaf7f9f4f.B;font-size:7.5px;stroke:none;">D</text>
   <text y="515.282" x="225.581,227.68099999999998,229.776,233.369,235.086,238.679,242.429,244.46,247.812,251.322,254.674,256.392,260.142,262.261,265.854,269.994,272.409,274.126,278.341,281.933,285.286,287.701,291.451,293.866,295.583,299.176,300.901,302.966,305.381,309.131,312.094,314.49399999999997,316.629,320.686,322.861,324.906,328.963,333.883,338.173,342.703,344.968,348.95,353.87,359.885,362.885,364.93,368.988,373.128,377.343,381.093,383.493,385.623,389.838,393.431,396.941,398.658,400.376,404.516,408.655,411.05499999999995,413.119,414.837,417.252,419.667,423.259,427.474,429.192,432.784,435.199,436.917,440.974,445.099,447.248,449.356,453.646,455.74600000000004,457.793,461.386,465.526,469.726,471.796,475.149,479.289,482.881,485.296,489.436,493.186,497.38599999999997,499.519,503.576,508.496,512.786,517.316,519.581,523.564,528.484,534.498,537.498,539.544,543.601,547.741,551.956,555.706" svgx:width="0.28,0.55,0.48,0.23,0.48,0.5,0.55,0.45,0.47,0.45,0.23,0.5,0.55,0.48,0.55,0.32,0.23,0.56,0.48,0.45,0.32,0.5,0.32,0.23,0.48,0.23,0.55,0.32,0.5,0.4,0.32,0.55,0.54,0.29,0.55,0.54,0.66,0.57,0.6,0.3,0.53,0.66,0.8,0.4,0.55,0.54,0.55,0.56,0.5,0.32,0.55,0.56,0.48,0.47,0.23,0.23,0.55,0.55,0.32,0.55,0.23,0.32,0.32,0.48,0.56,0.23,0.48,0.32,0.23,0.54,0.55,0.55,0.28,0.57,0.28,0.55,0.48,0.55,0.56,0.55,0.45,0.55,0.48,0.32,0.55,0.5,0.56,0.55,0.54,0.66,0.57,0.6,0.3,0.53,0.66,0.8,0.4,0.55,0.54,0.55,0.56,0.5,0.32" style="fill:rgb(0,0,0);font-family:AdvTTe45e47d2;font-size:7.5px;stroke:none;">) Five cycle antibacterial test of BDCA-RNMs under daylight irradiation (C) and charged BDCA-RNMs under</text>
   <text y="525.203" x="35.887,40.101,43.694,46.109,49.634,52.044,55.396,59.453,63.593,67.808,69.526,71.941,73.658,77.716,81.856,84.856,87.306,89.413,94.333,96.441,97.941,100.401" svgx:width="0.56,0.48,0.32,0.47,0.55,0.45,0.54,0.55,0.56,0.23,0.32,0.23,0.54,0.55,0.4,0.55,0.28,0.66,0.28,0.2,0.55,0.28" style="fill:rgb(0,0,0);font-family:AdvTTe45e47d2;font-size:7.5px;stroke:none;">dark conditions (D). (</text>
   <text y="525.203" x="102.501" svgx:width="0.53" style="fill:rgb(0,0,0);font-family:AdvTTaf7f9f4f.B;font-size:7.5px;stroke:none;">E</text>
   <text y="525.203" x="108.963,111.378" svgx:width="0.32,0.54" style="fill:rgb(0,0,0);font-family:AdvTTe45e47d2;font-size:7.5px;stroke:none;">to</text>
   <text y="525.203" x="117.864" svgx:width="0.51" style="fill:rgb(0,0,0);font-family:AdvTTaf7f9f4f.B;font-size:7.5px;stroke:none;">L</text>
   <text y="525.203" x="121.719,123.81899999999999,126.254,132.269,136.327,138.742,142.957,147.097,151.154,152.872,156.929,161.069,164.594,167.073,169.18,172.85500000000002,175.293,177.708,181.758,184.25,189.088,191.188,193.661,197.254,201.394,205.594,208.061,209.778,211.496,215.088,218.838,221.336,225.551,229.301,232.893,237.093,239.582,243.797,247.389,250.741,253.156,256.906,259.321,261.039,264.631,266.356,268.835,272.427,274.145,277.737,281.952,283.67,285.387,287.105,289.52,293.04499999999996,295.481,299.073,302.035,304.998,308.59,312.11499999999995,314.586,316.693,318.418,320.879,323.294,327.344,329.78,333.29,335.39000000000004,337.887,341.945" svgx:width="0.28,0.55,0.8,0.54,0.32,0.56,0.55,0.54,0.23,0.54,0.55,0.47,0.55,0.28,0.49,0.55,0.32,0.54,0.55,0.64,0.28,0.55,0.48,0.55,0.56,0.55,0.23,0.23,0.48,0.5,0.33,0.56,0.5,0.48,0.56,0.55,0.56,0.48,0.45,0.32,0.5,0.32,0.23,0.48,0.23,0.55,0.48,0.23,0.48,0.56,0.23,0.23,0.23,0.32,0.47,0.55,0.48,0.4,0.4,0.48,0.47,0.55,0.28,0.23,0.55,0.32,0.54,0.55,0.47,0.28,0.55,0.54,0.29" style="fill:rgb(0,0,0);font-family:AdvTTe45e47d2;font-size:7.5px;stroke:none;">) Morphology (E to H) and live/dead bacterial viability assay (I to L) of</text>
   <text y="525.203" x="346.563,350.073,351.64799999999997,354.104,357.224,361.123,362.758" svgx:width="0.47,0.21,0.55,0.42,0.52,0.22,0.22" style="fill:rgb(0,0,0);font-family:AdvTT7329fd89.I;font-size:7.5px;stroke:none;">E. coli</text>
   <text y="525.203" x="366.859,370.452,374.592" svgx:width="0.48,0.55,0.56" style="fill:rgb(0,0,0);font-family:AdvTTe45e47d2;font-size:7.5px;stroke:none;">and</text>
   <text y="525.203" x="381.259,384.537,386.11199999999997,388.572,390.207,394.19,398.172,402.072,405.192,409.092" svgx:width="0.44,0.21,0.55,0.22,0.53,0.53,0.52,0.42,0.52,0.52" style="fill:rgb(0,0,0);font-family:AdvTT7329fd89.I;font-size:7.5px;stroke:none;">L. innocua</text>
   <text y="525.203" x="415.445,418.798,422.548,424.265,425.983,428.983,431.433,433.15,437.275,439.767,443.119,447.177,451.316,453.731,457.324,460.676,463.07599999999996,465.562,471.029,472.747,475.162,479.287,481.776,485.128,489.186,493.326,495.741,498.156,502.213,503.93800000000005,506.38,512.627,516.377,522.625,526.84,529.255,532.847,536.987,540.737,543.737,546.178,549.771,553.911" svgx:width="0.45,0.5,0.23,0.23,0.4,0.55,0.23,0.55,0.55,0.45,0.54,0.55,0.32,0.48,0.45,0.32,0.55,0.73,0.23,0.32,0.55,0.55,0.45,0.54,0.55,0.32,0.32,0.54,0.23,0.55,0.83,0.5,0.83,0.56,0.32,0.48,0.55,0.5,0.4,0.55,0.48,0.55,0.56" style="fill:rgb(0,0,0);font-family:AdvTTe45e47d2;font-size:7.5px;stroke:none;">cells in contact with control membranes and</text>
   <text y="535.181" x="35.887,39.944,44.864,49.154,53.518,55.616,59.471,64.233,70.233,72.454,77.783,79.371,81.639,85.764,87.932,91.617,93.715,97.74,101.652,105.564,107.964,110.156,114.238,117.696,121.041,122.629,124.16,128.185,132.153,134.553,136.745,138.333,140.601,142.869,146.327,150.409,151.94,155.398,157.666,159.254,163.166,167.134,168.634,170.819" svgx:width="0.54,0.66,0.57,0.6,0.3,0.53,0.66,0.8,0.55,0.73,0.23,0.32,0.55,0.55,0.51,0.3,0.55,0.54,0.54,0.32,0.55,0.56,0.48,0.47,0.23,0.23,0.55,0.55,0.32,0.55,0.23,0.32,0.32,0.48,0.56,0.23,0.48,0.32,0.23,0.54,0.55,0.2,0.55,0.28" style="fill:rgb(0,0,0);font-family:AdvTTe45e47d2;font-size:7.5px;stroke:none;">BDCA-RNM with 1-hour daylight irradiation. (</text>
   <text y="535.181" x="172.8" svgx:width="0.84" style="fill:rgb(0,0,0);font-family:AdvTTaf7f9f4f.B;font-size:7.5px;stroke:none;">M</text>
   <text y="535.181" x="181.304,184.744,188.731" svgx:width="0.48,0.55,0.56" style="fill:rgb(0,0,0);font-family:AdvTTe45e47d2;font-size:7.5px;stroke:none;">and</text>
   <text y="535.181" x="195.137" svgx:width="0.69" style="fill:rgb(0,0,0);font-family:AdvTTaf7f9f4f.B;font-size:7.5px;stroke:none;">N</text>
   <text y="535.181" x="200.126,202.226,204.435,210.33,213.938,217.388,220.208,224.123,226.395,230.003,236.108,239.715,243.713,246.113,248.305,252.22,254.395,256.585,258.858,262.855,266.605,268.808,270.339,273.946,277.347,280.749,284.207,288.205,291.955,294.158,298.073,300.248,302.438,306.436,310.351,313.561,315.136,318.743,320.318,323.693,325.874,329.275,332.485,334.06,338.26,340.466,342.394,348.266,350.36600000000004,352.518,355.968,359.965,364.16499999999996,366.372,370.397,372.67,376.585,378.999,382.48,384.055,388.053,391.053,393.212,395.196,399.974,402.074,404.282,406.322,408.595,412.51" svgx:width="0.28,0.55,0.8,0.5,0.48,0.4,0.54,0.32,0.5,0.83,0.5,0.55,0.32,0.55,0.54,0.29,0.55,0.32,0.55,0.5,0.55,0.23,0.5,0.48,0.47,0.48,0.55,0.5,0.55,0.54,0.29,0.55,0.55,0.54,0.45,0.23,0.5,0.23,0.45,0.55,0.48,0.45,0.23,0.56,0.55,0.28,0.8,0.28,0.55,0.48,0.55,0.56,0.55,0.56,0.32,0.54,0.32,0.5,0.23,0.55,0.4,0.55,0.28,0.66,0.28,0.55,0.29,0.32,0.54,0.83" style="fill:rgb(0,0,0);font-family:AdvTTe45e47d2;font-size:7.5px;stroke:none;">) Measurement of the leakage of nucleic acid (M) and proteins (N) from</text>
   <text y="535.181" x="420.945,424.291,425.866,428.033,431.038,434.779,436.251" svgx:width="0.47,0.21,0.55,0.42,0.52,0.22,0.22" style="fill:rgb(0,0,0);font-family:AdvTT7329fd89.I;font-size:7.5px;stroke:none;">E. coli</text>
   <text y="535.181" x="440.107,443.508,447.534" svgx:width="0.48,0.55,0.56" style="fill:rgb(0,0,0);font-family:AdvTTe45e47d2;font-size:7.5px;stroke:none;">and</text>
   <text y="535.181" x="453.94,457.069,458.644,460.811,462.297,466.131,469.965,473.716,476.665,480.565" svgx:width="0.44,0.21,0.55,0.22,0.53,0.53,0.52,0.42,0.52,0.52" style="fill:rgb(0,0,0);font-family:AdvTT7329fd89.I;font-size:7.5px;stroke:none;">L. innocua</text>
   <text y="535.181" x="486.538,489.765,493.336,494.928,496.519,499.297,500.797,502.982" svgx:width="0.45,0.5,0.23,0.23,0.4,0.2,0.55,0.28" style="fill:rgb(0,0,0);font-family:AdvTTe45e47d2;font-size:7.5px;stroke:none;">cells. (</text>
   <text y="535.181" x="504.963" svgx:width="0.71" style="fill:rgb(0,0,0);font-family:AdvTTaf7f9f4f.B;font-size:7.5px;stroke:none;">O</text>
   <text y="535.181" x="512.447,515.886,519.873" svgx:width="0.48,0.55,0.56" style="fill:rgb(0,0,0);font-family:AdvTTe45e47d2;font-size:7.5px;stroke:none;">and</text>
   <text y="535.181" x="526.28" svgx:width="0.57" style="fill:rgb(0,0,0);font-family:AdvTTaf7f9f4f.B;font-size:7.5px;stroke:none;">P</text>
   <text y="535.181" x="530.418,532.518,534.727,538.639,540.226,544.138,547.37,548.901,552.983,556.441" svgx:width="0.28,0.55,0.54,0.23,0.54,0.45,0.23,0.56,0.48,0.23" style="fill:rgb(0,0,0);font-family:AdvTTe45e47d2;font-size:7.5px;stroke:none;">) Biocidal</text>
   <text y="545.159" x="35.886,39.287,42.105,44.922,48.37,51.894999999999996,54.21,57.668,61.663,65.111,66.683,70.679,73.496,75.896,78.259,81.781,85.60600000000001,87.961,92.031,96.026,99.474,103.469,107.219,109.592,111.633,115.545,117.94500000000001,120.308,124.22,128.996,133.141,137.671,139.66,143.459,148.379,154.379,156.612,160.524,164.52,168.545,172.176,174.576,176.936,181.018,184.476,187.821,189.409,190.94,194.965,198.933,201.333,203.693,205.281,207.549,209.817,213.275,217.357,218.888,222.346,224.614,226.202,230.114,234.239,236.599,238.583,243.572,245.672,248.051,251.453,255.478,259.678,262.038,265.213,269.238,272.64,275.055,278.933,282.504,286.704,289.076,292.986,297.758,302.048,306.319,308.436,312.271,317.043,323.043,325.434,329.343,333.336,337.403,341.005,343.405,345.767,349.85,353.294,355.561,359.08599999999996,361.401,364.633,368.542,372.535,376.602,378.171,380.439,382.008,385.918,389.91,392.91,395.24,397.167,401.002,402.962" svgx:width="0.48,0.4,0.4,0.48,0.47,0.55,0.48,0.55,0.48,0.23,0.55,0.4,0.32,0.55,0.49,0.51,0.55,0.56,0.55,0.48,0.55,0.5,0.55,0.29,0.54,0.32,0.55,0.54,0.66,0.57,0.6,0.3,0.53,0.66,0.8,0.55,0.54,0.55,0.56,0.5,0.32,0.55,0.56,0.48,0.47,0.23,0.23,0.55,0.55,0.32,0.55,0.23,0.32,0.32,0.48,0.56,0.23,0.48,0.32,0.23,0.54,0.55,0.55,0.28,0.69,0.28,0.55,0.48,0.55,0.56,0.55,0.45,0.55,0.48,0.32,0.55,0.5,0.56,0.55,0.54,0.66,0.57,0.6,0.3,0.53,0.66,0.8,0.55,0.54,0.55,0.56,0.5,0.32,0.55,0.56,0.48,0.32,0.47,0.55,0.45,0.54,0.55,0.56,0.23,0.32,0.23,0.54,0.55,0.4,0.55,0.28,0.53,0.28,0.2" style="fill:rgb(0,0,0);font-family:AdvTTe45e47d2;font-size:7.5px;stroke:none;">assay against T7 phage for BDCA-RNM under daylight irradiation (O) and charged BDCA-RNM under dark conditions (P).</text>
  </g>
  <path style="fill:rgb(35,31,32);stroke:none;stroke-width:1.0;" d="M36.740 55.790 L557.230 55.790 L557.230 494.310 L36.740 494.310 M36.740 55.790 L557.230 55.790 L557.230 494.310 L36.740 494.310 M558.140 46.090 L35.890 46.090 L35.890 45.580 L558.140 45.580 "/>
  <g begin="text">
   <text y="39.628" x="35.887,41.277,42.961,50.948,53.478,55.162,60.552,62.236,71.147,79.135,84.525,89.85,98.183,107.095,114.862,123.201,132.112,140.099,145.48899999999998,147.173" svgx:width="0.49,0.55,0.57,0.23,0.55,0.49,0.55,0.66,0.57,0.49,0.55,0.6,0.66,0.55,0.6,0.66,0.57,0.49,0.55,0.49" style="fill:rgb(35,31,32);font-family:AdvTTe45e47d2;font-size:11.0px;stroke:none;">S CI E NCE ADVANCE S</text>
   <text y="38.608" x="159.76" svgx:width="0.23" style="fill:rgb(35,31,32);font-family:AdvTTe45e47d2;font-size:11.0px;stroke:none;">|</text>
   <text y="39.628" x="169.454,176.993,182.38299999999998,184.069,189.45899999999997,191.145,196.535,198.222,206.563,214.101,222.091,229.131,234.563,242.896,250.435,255.825,257.511,260.041,261.727,269.717,274.887,276.562" svgx:width="0.53,0.49,0.55,0.49,0.55,0.49,0.55,0.6,0.53,0.57,0.64,0.55,0.6,0.53,0.49,0.55,0.23,0.55,0.57,0.47,0.55,0.49" style="fill:rgb(181,17,26);font-family:AdvTTe45e47d2;font-size:11.0px;stroke:none;">RE S E ARCH ART I CL E</text>
   <text y="724.819" x="35.887,39.554" svgx:width="0.49,0.23" style="fill:rgb(0,0,0);font-family:AdvTTe45e47d2;font-size:7.5px;stroke:none;">Si</text>
   <text y="724.819" x="43.767,47.119,49.444,51.93,55.83" svgx:width="0.45,0.31,0.55,0.52,0.22" style="fill:rgb(0,0,0);font-family:AdvTT7329fd89.I;font-size:7.5px;stroke:none;">et al</text>
   <text y="724.819" x="57.486,58.964" svgx:width="0.2,0.2" style="fill:rgb(0,0,0);font-family:AdvTTe45e47d2;font-size:7.5px;stroke:none;">.,</text>
   <text y="724.819" x="62.985,66.42,69.54,71.175,72.75,75.231,79.446,83.346,86.698" svgx:width="0.46,0.42,0.22,0.21,0.55,0.56,0.52,0.45,0.21" style="fill:rgb(0,0,0);font-family:AdvTT7329fd89.I;font-size:7.5px;stroke:none;">Sci. Adv.</text>
   <text y="724.819" x="90.765,94.59,98.415,102.24,106.065" svgx:width="0.51,0.51,0.51,0.51,0.2" style="fill:rgb(0,0,0);font-family:AdvTTe45e47d2;font-size:7.5px;stroke:none;">2018;</text>
   <text y="724.819" x="108.567" svgx:width="0.55" style="fill:rgb(0,0,0);font-family:AdvTTaf7f9f4f.B;font-size:7.5px;stroke:none;">4</text>
   <text y="724.819" x="113.726,115.226,116.22,119.97,123.563,127.155,129.57,133.395,137.22,141.045,144.86999999999998,157.322,161.147,164.97199999999998,167.47,173.485,177.077,179.492,182.845,186.97,189.524,193.349,197.173,200.998" svgx:width="0.2,0.55,0.5,0.48,0.48,0.32,0.51,0.51,0.51,0.51,0.55,0.51,0.51,0.55,0.8,0.48,0.32,0.45,0.55,0.55,0.51,0.51,0.51,0.51" style="fill:rgb(0,0,0);font-family:AdvTTe45e47d2;font-size:7.5px;stroke:none;">: eaar5931 16 March 2018</text>
   <text y="724.819" x="533.933,538.058,540.575,544.865,547.34,549.865,554.005" svgx:width="0.55,0.55,0.57,0.33,0.55,0.55,0.55" style="fill:rgb(0,0,0);font-family:AdvTTaf7f9f4f.B;font-size:7.5px;stroke:none;">7 of 12</text>
  </g>
 </g>
</svg>
