<?xml version="1.0" encoding="UTF-8"?>
<svg height="720.76" width="548.58" xmlns="http://www.w3.org/2000/svg">
 <g>
  <path style="fill:rgb(43,42,41);stroke:none;stroke-width:1.0;" d="M60.720 90.030 L534.560 90.030 L534.560 90.260 L60.720 90.260 "/>
  <path style="fill:rgb(43,42,41);stroke:none;stroke-width:0.25;" d="M534.560 90.030 L535.290 90.090 C536.850 90.260 538.330 91.800 538.530 93.320 L538.580 94.000 L538.350 94.000 L538.300 93.370 C538.080 91.900 536.750 90.540 535.240 90.310 L534.560 90.260 "/>
  <path style="fill:rgb(43,42,41);stroke:none;stroke-width:0.25;" d="M538.580 94.000 L538.580 706.730 L538.360 706.730 L538.360 94.000 "/>
  <path style="fill:rgb(43,42,41);stroke:none;stroke-width:0.25;" d="M538.580 706.730 L538.530 707.470 C538.400 708.920 536.740 710.580 535.290 710.700 L534.560 710.760 L534.560 710.530 L535.240 710.480 C536.740 710.260 538.040 708.870 538.300 707.410 L538.360 706.730 "/>
  <path style="fill:rgb(43,42,41);stroke:none;stroke-width:0.25;" d="M534.560 710.760 L60.720 710.760 L60.720 710.530 L534.560 710.530 "/>
  <path style="fill:rgb(43,42,41);stroke:none;stroke-width:0.25;" d="M60.720 710.760 L59.980 710.700 C58.530 710.580 56.870 708.920 56.750 707.470 L56.690 706.730 L56.920 706.730 L56.980 707.410 C57.190 708.880 58.570 710.260 60.040 710.480 L60.720 710.530 "/>
  <path style="fill:rgb(43,42,41);stroke:none;stroke-width:0.25;" d="M56.690 706.730 L56.690 94.000 L56.920 94.000 L56.920 706.730 "/>
  <path style="fill:rgb(43,42,41);stroke:none;stroke-width:0.25;" d="M56.690 94.000 L56.750 93.320 C56.940 91.800 58.420 90.260 59.980 90.090 L60.720 90.030 L60.720 90.260 L60.040 90.310 C58.520 90.540 57.190 91.890 56.980 93.370 L56.920 94.000 "/>
 </g>
</svg>
