<?xml version="1.0" encoding="UTF-8"?>
<svg height="767.08" width="586.048" xmlns="http://www.w3.org/2000/svg">
 <g id="page" xmlns:svgx="http://www.xml-cml.org/schema/svgx">
  <path style="fill:rgb(59,90,166);stroke:none;stroke-width:1.0;" d="M548.110 111.680 L557.630 111.680 Z"/>
  <path style="fill:rgb(59,90,166);stroke:none;stroke-width:1.0;" d="M270.990 150.690 L280.520 150.690 Z"/>
  <path style="fill:rgb(59,90,166);stroke:none;stroke-width:1.0;" d="M231.820 242.080 L236.580 242.080 Z"/>
  <path style="fill:rgb(59,90,166);stroke:none;stroke-width:1.0;" d="M203.410 320.090 L212.940 320.090 Z"/>
  <path style="fill:rgb(59,90,166);stroke:none;stroke-width:1.0;" d="M268.330 333.070 L273.090 333.070 Z"/>
  <path style="fill:rgb(59,90,166);stroke:none;stroke-width:1.0;" d="M336.250 359.090 L341.010 359.090 Z"/>
  <path style="fill:rgb(59,90,166);stroke:none;stroke-width:1.0;" d="M561.710 359.090 L566.480 359.090 Z"/>
  <path style="fill:rgb(59,90,166);stroke:none;stroke-width:1.0;" d="M460.230 437.100 L464.990 437.100 Z"/>
  <path style="fill:rgb(59,90,166);stroke:none;stroke-width:1.0;" d="M445.660 476.050 L455.190 476.050 Z"/>
  <path style="fill:rgb(59,90,166);stroke:none;stroke-width:1.0;" d="M468.620 515.050 L478.150 515.050 Z"/>
  <path style="fill:rgb(59,90,166);stroke:none;stroke-width:1.0;" d="M528.600 541.080 L538.130 541.080 Z"/>
  <path style="fill:rgb(59,90,166);stroke:none;stroke-width:1.0;" d="M373.040 593.070 L382.560 593.070 Z"/>
  <path style="fill:rgb(59,90,166);stroke:none;stroke-width:1.0;" d="M456.090 632.070 L465.620 632.070 Z"/>
  <path style="fill:rgb(59,90,166);stroke:none;stroke-width:1.0;" d="M470.100 632.070 L479.620 632.070 Z"/>
  <path style="fill:rgb(59,90,166);stroke:none;stroke-width:1.0;" d="M431.550 658.090 L441.070 658.090 Z"/>
  <g begin="text">
   <text y="84.586" x="211.975,219.635,223.025,228.505,232.835,236.935,239.13,244.29,249.77,253.16,258.43,262.45,266.78,271.42,276.48,280.28000000000003,282.557,286.057,291.65700000000004,293.839,299.539,301.776,306.736,310.236" svgx:width="0.77,0.34,0.55,0.44,0.41,0.55,0.52,0.55,0.34,0.53,0.41,0.44,0.47,0.51,0.38,0.55,0.35,0.56,0.55,0.57,0.55,0.5,0.35,0.25" style="fill:rgb(0,0,0);font-family:MinionPro-Bold;font-size:10.0px;stroke:none;">Other outbreaks (n = 2).</text>
   <text y="84.586" x="320.711,326.811,332.081,336.38100000000003,338.512,342.112,345.092,350.362,355.632,360.232,362.437,367.497,372.997,375.192,378.172,383.442,387.742,389.876,396.086,400.836,407.836,410.002,414.332,419.812,425.112,427.293,434.953,443.863,449.443,456.443,458.644,463.704,468.974,471.954,477.014,480.724,484.954,489.284,494.284,496.458,500.168,504.398,509.558,514.618,518.328,521.308,525.538,530.838,533.081,537.621,541.951,545.661,548.321,553.381,558.651" svgx:width="0.61,0.53,0.43,0.55,0.36,0.3,0.53,0.53,0.46,0.55,0.51,0.55,0.55,0.3,0.53,0.43,0.55,0.63,0.48,0.7,0.55,0.44,0.55,0.53,0.55,0.77,0.89,0.56,0.7,0.55,0.51,0.53,0.3,0.51,0.38,0.43,0.44,0.5,0.55,0.38,0.43,0.52,0.51,0.38,0.3,0.43,0.53,0.55,0.46,0.44,0.38,0.27,0.51,0.53,0.36" style="fill:rgb(0,0,0);font-family:MinionPro-Regular;font-size:10.0px;stroke:none;">The study on the RSV and HMPV outbreak reported various</text>
   <text y="97.625" x="200.013,208.193,212.423,216.753,220.353,225.623,229.333,233.563,237.16299999999998,239.414,242.074,247.554,251.784,254.244,259.514,264.784,267.444,272.924,277.62399999999997,279.835,284.165,288.395,291.375,294.035,298.575,302.875,305.064,308.664,313.934,317.644,322.184,326.414,329.074,331.534,333.994,338.324,343.804,348.034,352.264,354.564,356.767,359.427,363.027,368.087,370.547,374.877,377.857,380.517,385.577,391.057,393.357,395.602,399.832,404.892,410.372,413.352,417.682,421.912,424.912,427.123,432.283,435.993,440.223,444.453,448.783,454.053,457.033,459.693,464.753,470.233,472.533,474.744,479.074,484.554,487.534,490.194,494.734,497.394,501.104,505.434,507.934,510.177,515.337,519.047,524.107,529.267,534.537,539.077,541.537,545.867,550.507,553.167,556.767,559.046,561.916,566.976" svgx:width="0.82,0.43,0.44,0.36,0.53,0.38,0.43,0.36,0.55,0.27,0.55,0.43,0.25,0.53,0.53,0.27,0.55,0.47,0.55,0.44,0.43,0.3,0.27,0.46,0.43,0.55,0.36,0.53,0.38,0.46,0.43,0.27,0.25,0.25,0.44,0.55,0.43,0.43,0.23,0.55,0.27,0.36,0.51,0.25,0.44,0.3,0.27,0.51,0.55,0.23,0.55,0.43,0.51,0.55,0.3,0.44,0.43,0.3,0.55,0.52,0.38,0.43,0.43,0.44,0.53,0.3,0.27,0.51,0.55,0.23,0.55,0.44,0.55,0.3,0.27,0.46,0.27,0.38,0.44,0.25,0.55,0.52,0.38,0.51,0.52,0.53,0.46,0.25,0.44,0.47,0.27,0.36,0.55,0.29,0.51,0.38" style="fill:rgb(0,0,0);font-family:MinionPro-Regular;font-size:10.0px;stroke:none;">measures including active surveillance, isolation, contact precaution, antiviral prophylaxis for</text>
   <text y="110.607" x="200.013,203.723,207.953,211.553,214.213,219.483,223.713,229.193,232.173,235.773,237.996,242.326,247.806,253.10600000000002,255.344,262.174,267.234,270.944,275.944,278.135,281.845,286.075,289.675,292.655,296.365,299.025,303.255,306.235,308.895,313.955,319.455,321.675,324.545,329.605,333.40500000000003,335.564,338.224,340.684,343.184,345.315,348.915,351.895,356.225,359.095,361.995,364.251,367.231,372.331,374.455,378.685,383.745,389.225,392.205,395.915,400.975,403.475,405.693,409.403,413.633,417.233,422.393,425.053,428.763,433.093,436.073,441.133,444.843,449.44300000000004,451.671,456.831,461.161,464.141,469.411,474.471,479.111,483.341,488.841,491.072,494.052,497.762,502.092,507.572,511.172,519.352,522.012,525.612,529.212,531.872,536.932,542.432,544.703" svgx:width="0.38,0.43,0.36,0.27,0.53,0.43,0.55,0.3,0.36,0.55,0.44,0.55,0.53,0.55,0.69,0.51,0.38,0.5,0.55,0.38,0.43,0.36,0.3,0.38,0.27,0.43,0.3,0.27,0.51,0.55,0.55,0.29,0.51,0.38,0.55,0.27,0.25,0.25,0.55,0.36,0.3,0.44,0.29,0.29,0.55,0.3,0.51,0.55,0.43,0.51,0.55,0.3,0.38,0.51,0.25,0.55,0.38,0.43,0.36,0.52,0.27,0.38,0.44,0.3,0.51,0.38,0.46,0.55,0.52,0.44,0.3,0.53,0.51,0.47,0.43,0.55,0.55,0.3,0.38,0.44,0.55,0.36,0.82,0.27,0.36,0.36,0.27,0.51,0.55,0.55,0.34" style="fill:rgb(0,0,0);font-family:MinionPro-Regular;font-size:10.0px;stroke:none;">residents and work restriction for ill staff to control respiratory pathogen transmission [</text>
   <text y="110.607" x="548.093,552.843" svgx:width="0.48,0.48" style="fill:rgb(59,90,166);font-family:MinionPro-Regular;font-size:10.0px;stroke:none;">50</text>
   <text y="110.607" x="557.593,560.983" svgx:width="0.34,0.23" style="fill:rgb(0,0,0);font-family:MinionPro-Regular;font-size:10.0px;stroke:none;">].</text>
   <text y="123.59" x="211.975,215.365,220.865,223.086,226.066,231.336,235.63600000000002,237.77,242.0,247.16,249.82,255.09,259.32,267.5,270.16,274.46000000000004,276.661,281.621,285.851,289.561,293.891,296.871,301.931,306.161,311.221,316.701,319.261,324.531,330.011,334.241,337.221,339.881,344.421,347.081,350.061,352.721,356.321,358.695,363.755,369.025,372.005,377.065,380.775,385.005,389.335,394.295,396.595,398.776,403.006,408.066,413.546,416.526,420.236,425.296,427.796,430.014,438.194,442.424,446.754,450.354,455.624,459.334,463.564,467.16400000000004,469.415,472.075,477.555,482.095,487.155,489.615,494.155,498.385,503.685,505.925,511.195,516.675,519.335,523.875,528.105,531.815,535.415,539.745,542.245,544.476,549.636,553.346,557.576,561.806,566.136,571.406" svgx:width="0.34,0.55,0.55,0.3,0.53,0.43,0.55,0.43,0.52,0.27,0.53,0.43,0.82,0.27,0.43,0.55,0.5,0.43,0.38,0.44,0.3,0.51,0.43,0.51,0.55,0.26,0.53,0.55,0.43,0.3,0.27,0.46,0.27,0.3,0.27,0.36,0.55,0.51,0.53,0.3,0.51,0.38,0.43,0.44,0.5,0.23,0.55,0.43,0.51,0.55,0.3,0.38,0.51,0.25,0.55,0.82,0.43,0.44,0.36,0.53,0.38,0.43,0.36,0.55,0.27,0.55,0.46,0.51,0.25,0.46,0.43,0.53,0.55,0.53,0.55,0.27,0.46,0.43,0.38,0.36,0.44,0.25,0.55,0.52,0.38,0.43,0.43,0.44,0.53,0.35" style="fill:rgb(0,0,0);font-family:MinionPro-Regular;font-size:10.0px;stroke:none;">In the epidemic keratoconjunctivitis outbreak, control measures involved universal precau-</text>
   <text y="136.573" x="200.013,202.993,205.653,210.713,216.213,218.437,225.267,227.927,230.907,236.20700000000002,238.393,242.623,248.103,253.373,257.703,263.183,267.413,271.643,276.943,279.155,284.425,288.755,294.235,299.535,301.719,306.989,311.529,316.169,318.829,323.059,328.539,332.769,335.069,337.265,339.925,343.525,348.585,351.045,355.375,358.355,361.015,366.075,371.575,373.832,378.162,383.642,388.942,391.18,394.89,399.12,402.72,405.7,409.41,412.07,416.3,419.28,421.94,427.0,432.5,434.72,439.78,442.67999999999995,444.868,449.408,452.068,455.668,458.328,461.308,466.368,470.078,473.678,475.978,478.203,482.533,488.013,493.313,495.494,502.324,507.384,511.094,516.094,518.284,521.994,526.224,529.824,532.804,536.514,539.174,543.404,546.384,549.044,554.104,559.604,561.881,564.751,569.811" svgx:width="0.3,0.27,0.51,0.55,0.55,0.69,0.27,0.3,0.53,0.55,0.43,0.55,0.53,0.44,0.55,0.43,0.43,0.53,0.55,0.53,0.44,0.55,0.53,0.55,0.53,0.46,0.47,0.27,0.43,0.55,0.43,0.23,0.55,0.27,0.36,0.51,0.25,0.44,0.3,0.27,0.51,0.55,0.55,0.44,0.55,0.53,0.55,0.38,0.43,0.36,0.3,0.38,0.27,0.43,0.3,0.27,0.51,0.55,0.55,0.51,0.29,0.55,0.46,0.27,0.36,0.27,0.3,0.51,0.38,0.36,0.23,0.55,0.44,0.55,0.53,0.55,0.69,0.51,0.38,0.5,0.55,0.38,0.43,0.36,0.3,0.38,0.27,0.43,0.3,0.27,0.51,0.55,0.55,0.29,0.51,0.38" style="fill:rgb(0,0,0);font-family:MinionPro-Regular;font-size:10.0px;stroke:none;">tion with enhanced hand hygiene, isolation and restriction of visitors, and work restriction for</text>
   <text y="149.612" x="200.013,204.343,207.213,210.083,214.313,218.543,221.523,225.753,231.053,233.291,240.121,245.181,248.891,253.851,258.081,261.791,265.391,267.59" svgx:width="0.44,0.29,0.29,0.43,0.43,0.3,0.43,0.53,0.55,0.69,0.51,0.38,0.5,0.43,0.38,0.36,0.55,0.34" style="fill:rgb(0,0,0);font-family:MinionPro-Regular;font-size:10.0px;stroke:none;">affected workers [</text>
   <text y="149.612" x="270.98,275.73" svgx:width="0.48,0.48" style="fill:rgb(59,90,166);font-family:MinionPro-Regular;font-size:10.0px;stroke:none;">29</text>
   <text y="149.612" x="280.48,283.87" svgx:width="0.34,0.23" style="fill:rgb(0,0,0);font-family:MinionPro-Regular;font-size:10.0px;stroke:none;">].</text>
  </g>
  <g begin="text">
   <text y="184.989" x="200.012,208.588,211.921,218.505,225.089,232.418,239.002,245.586,248.919,256.247" svgx:width="0.72,0.28,0.55,0.55,0.61,0.55,0.55,0.28,0.61,0.61" style="fill:rgb(0,0,0);font-family:Helvetica-Bold;font-size:12.0px;stroke:none;">Discussion</text>
  </g>
  <g begin="text">
   <text y="201.997" x="200.012,209.652,213.952,216.112,221.382,226.542,231.812,236.142,239.122,243.352,248.65200000000002,250.865,253.845,259.115,263.415,265.548,270.818,276.298,281.568,285.798,289.508,293.108,296.088,300.418,305.898,311.168,313.828,319.308,324.008,326.266,331.326,334.226,336.414,341.474,346.744,349.724,354.784,358.494,362.724,367.054,372.014,375.61400000000003,377.856,380.516,386.016,388.231,393.601,399.701,406.321,411.591,415.19100000000003,417.427,424.257,426.917,429.897,435.197,437.383,445.563,450.623,454.333,458.63300000000004,460.797,464.507,468.737,472.967,477.197,482.677,485.657,488.117,492.71700000000004,494.926,500.086,505.356,510.416,512.876,515.536,519.136,524.406,528.636,533.9359999999999,536.142,539.852,544.082,549.242,554.302,558.012,560.992,564.592" svgx:width="0.97,0.43,0.55,0.53,0.52,0.53,0.44,0.3,0.43,0.53,0.55,0.3,0.53,0.43,0.55,0.53,0.55,0.53,0.43,0.38,0.36,0.3,0.44,0.55,0.53,0.27,0.55,0.47,0.55,0.51,0.29,0.55,0.51,0.53,0.3,0.51,0.38,0.43,0.44,0.5,0.36,0.55,0.27,0.55,0.55,0.54,0.61,0.67,0.53,0.36,0.55,0.69,0.27,0.3,0.53,0.55,0.82,0.51,0.38,0.43,0.55,0.38,0.43,0.43,0.43,0.55,0.3,0.25,0.46,0.55,0.52,0.53,0.51,0.25,0.27,0.36,0.53,0.43,0.53,0.55,0.38,0.43,0.52,0.51,0.38,0.3,0.36,0.23" style="fill:rgb(0,0,0);font-family:MinionPro-Regular;font-size:10.0px;stroke:none;">We updated the understanding of outbreaks in LTCFs with more recently published reports.</text>
   <text y="214.979" x="200.012,206.112,211.382,214.042,217.642,219.854,223.564,227.794,232.334,234.994,239.224,246.124,248.314,252.644,255.104,258.704,263.80400000000003,266.002,270.232,274.872,280.032,282.492,287.552,291.262,295.492,300.79200000000003,303.022,307.352,312.832,318.132,320.313,323.913,329.183,337.363,345.543,349.873,353.583,356.243,360.363,364.593,369.89300000000003,372.187,376.417,380.127,382.787,385.767,388.427,392.657,396.987,399.487,401.667,404.327,407.927,411.527,416.797,421.027,424.627,426.895,429.765,434.095,438.325,440.985,443.445,446.105,449.085,453.415,456.395,459.055,464.535,469.235,471.455,474.435,479.705,484.005,486.139,489.739,494.899,498.609,502.839,507.169,512.4689999999999,514.712,519.772,522.672,524.86,527.84,533.11,537.41,539.543,544.603,549.873,552.853" svgx:width="0.61,0.53,0.27,0.36,0.55,0.38,0.43,0.46,0.27,0.43,0.69,0.55,0.44,0.25,0.36,0.51,0.55,0.43,0.47,0.52,0.25,0.51,0.38,0.43,0.53,0.55,0.44,0.55,0.53,0.55,0.36,0.53,0.82,0.82,0.44,0.38,0.27,0.42,0.43,0.53,0.55,0.43,0.38,0.27,0.3,0.27,0.43,0.44,0.25,0.55,0.27,0.36,0.36,0.53,0.43,0.36,0.55,0.29,0.44,0.43,0.27,0.25,0.27,0.3,0.44,0.3,0.27,0.55,0.47,0.55,0.3,0.53,0.43,0.55,0.36,0.52,0.38,0.43,0.44,0.53,0.55,0.51,0.29,0.55,0.3,0.53,0.43,0.55,0.51,0.53,0.3,0.35" style="fill:rgb(0,0,0);font-family:MinionPro-Regular;font-size:10.0px;stroke:none;">This review also explored and summarized critical issues facilitating the spread of the out-</text>
   <text y="228.018" x="200.012,205.072,208.782,213.012,217.342,222.302,225.902,228.131,232.461,237.941,243.241,245.422,248.402,253.672,257.972,260.106,264.336,269.396,274.876,277.856,281.566,286.626,289.126,291.343,299.523,303.753,308.083,311.683,316.953,320.663,324.893,328.493,330.793,333.012,339.842,345.112,347.772,352.002,357.302,359.544,364.814,369.144,373.684,377.98400000000004,380.124,385.604,390.664,393.664,395.884,400.944,405.174,409.404,414.904,417.087,421.417,426.687,431.957,435.667,439.897,443.497,447.097,451.327,456.627,458.87,461.53,467.03,469.188,474.458,478.688,481.668,485.998,488.658,491.158,493.395,496.055,501.555,503.714,506.694,511.964,516.264,518.454,523.614,527.324,531.554,536.094,538.754,543.814,549.084" svgx:width="0.51,0.38,0.43,0.44,0.5,0.36,0.55,0.44,0.55,0.53,0.55,0.3,0.53,0.43,0.55,0.43,0.51,0.55,0.3,0.38,0.51,0.25,0.55,0.82,0.43,0.44,0.36,0.53,0.38,0.43,0.36,0.23,0.55,0.69,0.53,0.27,0.43,0.53,0.55,0.53,0.44,0.46,0.43,0.55,0.55,0.51,0.3,0.55,0.51,0.43,0.43,0.55,0.55,0.44,0.53,0.53,0.38,0.43,0.36,0.36,0.43,0.53,0.55,0.27,0.55,0.55,0.53,0.43,0.3,0.44,0.27,0.25,0.55,0.27,0.55,0.55,0.3,0.53,0.43,0.55,0.52,0.38,0.43,0.46,0.27,0.51,0.53,0.36" style="fill:rgb(0,0,0);font-family:MinionPro-Regular;font-size:10.0px;stroke:none;">breaks and the control measures, which have not been addressed in detail in the previous</text>
   <text y="241.001" x="200.012,203.722,207.952,212.492,215.152,219.382,226.282,228.414" svgx:width="0.38,0.43,0.46,0.27,0.43,0.69,0.55,0.34" style="fill:rgb(0,0,0);font-family:MinionPro-Regular;font-size:10.0px;stroke:none;">review [</text>
   <text y="241.001" x="231.804" svgx:width="0.48" style="fill:rgb(59,90,166);font-family:MinionPro-Regular;font-size:10.0px;stroke:none;">9</text>
   <text y="241.001" x="236.554,239.944,242.244,244.458,249.828,254.058,257.658,261.258,266.318,271.798,275.398,277.68,280.14,284.37,288.7,292.41,297.89,302.12,307.42,309.598,312.468,316.178,321.238,331.652,334.632,339.902,344.202,346.335,350.045,354.275,357.875,363.145,365.605,368.585,372.185,374.454,379.514,382.414,384.602,387.582,392.852,395.512,399.112,401.327,405.037,409.267,413.807,416.467,420.697,427.597,429.786,436.616,441.676,446.946,449.406,454.706,456.885,461.115,466.595,470.925,475.985,478.445,482.745,484.948,490.008,494.238,497.218,500.198,504.428,508.228,510.347,515.507,519.217,523.447,527.987,532.217,537.697,540.677,543.337,548.397,553.897,556.154,560.484,565.964" svgx:width="0.34,0.23,0.55,0.54,0.43,0.36,0.36,0.51,0.55,0.36,0.55,0.25,0.43,0.44,0.38,0.55,0.43,0.53,0.55,0.29,0.38,0.51,0.82,0.3,0.53,0.43,0.55,0.38,0.43,0.36,0.53,0.25,0.3,0.36,0.55,0.51,0.29,0.55,0.3,0.53,0.27,0.36,0.55,0.38,0.43,0.46,0.27,0.43,0.69,0.55,0.69,0.51,0.53,0.25,0.53,0.55,0.43,0.55,0.44,0.51,0.25,0.43,0.55,0.51,0.43,0.3,0.3,0.43,0.38,0.55,0.52,0.38,0.43,0.46,0.43,0.55,0.3,0.27,0.51,0.55,0.55,0.44,0.55,0.53" style="fill:rgb(0,0,0);font-family:MinionPro-Regular;font-size:10.0px;stroke:none;">]. Lessons learned fromthe results of this review would enable better prevention and</text>
   <text y="253.984" x="200.012,204.242,209.302,214.782,217.762,221.472,226.532,229.032,231.192,236.252,239.15200000000002,241.34,246.4,251.67,254.65,259.71,263.42,267.65,271.98,276.94,280.54,282.839,285.499,290.999,293.157,298.527,304.627,311.247,316.517,320.117,322.411,325.071,330.571,332.729,335.709,340.979,345.279,347.469,350.339,355.609,358.589,363.859,367.569,371.799,374.099,376.269,379.659,387.839,392.999,395.459,398.119,402.349,406.679,409.659,412.319,417.379,422.859,426.459,428.766,433.096,438.576,443.87600000000003,446.057,449.657,454.927,459.567,464.207,468.437,472.037,475.017,477.677,482.737,488.217,491.817,494.132,497.002,502.062,505.862,507.965,512.295,516.525,521.795,524.455,528.685,533.225,535.885,541.365,546.065,548.274,551.254,556.524" svgx:width="0.43,0.51,0.55,0.3,0.38,0.51,0.25,0.55,0.51,0.29,0.55,0.51,0.53,0.3,0.51,0.38,0.43,0.44,0.5,0.36,0.55,0.27,0.55,0.55,0.54,0.61,0.67,0.53,0.36,0.55,0.27,0.55,0.55,0.3,0.53,0.43,0.55,0.29,0.53,0.3,0.53,0.38,0.43,0.23,0.55,0.34,0.82,0.52,0.25,0.27,0.43,0.44,0.3,0.27,0.51,0.55,0.36,0.55,0.44,0.55,0.53,0.55,0.36,0.53,0.47,0.47,0.43,0.36,0.3,0.27,0.51,0.55,0.36,0.55,0.29,0.51,0.38,0.55,0.44,0.43,0.53,0.27,0.43,0.46,0.27,0.55,0.47,0.55,0.3,0.53,0.43" style="fill:rgb(0,0,0);font-family:MinionPro-Regular;font-size:10.0px;stroke:none;">control of outbreaks in LTCFs in the future. Implications and suggestions for achieving the</text>
   <text y="267.023" x="200.012,205.072,209.302,212.902,215.902,218.096,221.806,226.036,229.636,234.796,239.856,245.336,248.936,253.23600000000002,255.4,258.38,263.48,265.661,269.891,275.051,277.711,282.981,287.211,295.391,298.051,302.281,305.88100000000003,308.181,313.241,317.841,319.973,325.343,331.443,338.063,343.333,346.933,349.233,351.437,355.767,361.247,366.547,368.785,371.655,376.715,380.515,382.618,385.488,390.758,393.738,399.008,402.718,407.01800000000003,409.207,412.917,417.147,420.747,424.977,429.307,433.017,437.247,442.547,444.753,448.983,454.043,459.523,463.753,467.983,471.693,477.173,479.833,485.313,490.013,492.205,497.265,502.535,505.515,510.575,514.285,518.515,522.845,527.805,531.405,533.7049999999999,535.915,541.185,545.515,550.055,554.3549999999999,556.551,561.611,565.841,570.071" svgx:width="0.51,0.43,0.36,0.3,0.55,0.38,0.43,0.36,0.52,0.51,0.55,0.36,0.43,0.55,0.3,0.51,0.55,0.43,0.52,0.27,0.53,0.43,0.82,0.27,0.43,0.36,0.55,0.51,0.46,0.55,0.54,0.61,0.67,0.53,0.36,0.23,0.55,0.44,0.55,0.53,0.55,0.29,0.51,0.38,0.55,0.29,0.53,0.3,0.53,0.38,0.43,0.55,0.38,0.43,0.36,0.43,0.44,0.38,0.43,0.53,0.55,0.43,0.51,0.55,0.43,0.43,0.38,0.55,0.27,0.55,0.47,0.55,0.51,0.53,0.3,0.51,0.38,0.43,0.44,0.5,0.36,0.23,0.55,0.53,0.44,0.46,0.43,0.55,0.51,0.43,0.43,0.55" style="fill:rgb(0,0,0);font-family:MinionPro-Regular;font-size:10.0px;stroke:none;">best response to epidemics by LTCFs, and for future research concerning outbreaks, have been</text>
   <text y="280.005" x="200.012,205.282,209.512,213.112,217.342,221.052,223.712,228.772,233.002,238.30200000000002,240.547,243.207,248.707,250.865,253.845,259.115,261.775,265.375,267.646,271.356,275.586,280.126,282.786,287.016,293.846" svgx:width="0.53,0.43,0.36,0.43,0.38,0.27,0.51,0.43,0.53,0.55,0.27,0.55,0.55,0.3,0.53,0.27,0.36,0.55,0.38,0.43,0.46,0.27,0.43,0.69,0.23" style="fill:rgb(0,0,0);font-family:MinionPro-Regular;font-size:10.0px;stroke:none;">described in this review.</text>
   <text y="292.988" x="211.974,218.074,223.344,227.644,229.832,238.012,243.072,246.672,249.672,251.885,256.115,261.175,269.355,277.535,282.595,288.095,290.323,295.383,300.653,303.633,308.693,312.403,316.633,320.963,325.923,329.523,331.822,334.482,339.982,342.14,347.51,353.61,360.23,365.5,369.1,371.393,374.053,379.553,381.711,384.691,389.961,392.621,396.221,398.435,402.145,406.375,410.915,413.575,417.805,424.705,426.895,433.725,437.955,441.665,445.96500000000003,448.155,451.865,456.095,459.695,464.855,467.515,471.225,475.555,478.535,483.595,487.305,491.90500000000003,494.076,496.736,502.216,505.086,509.316,513.546,516.526,519.186,524.246,529.726,533.326,535.631,538.501,543.561,546.021,548.481,553.541,560.371,564.601" svgx:width="0.61,0.53,0.43,0.55,0.82,0.51,0.36,0.3,0.55,0.43,0.51,0.82,0.82,0.51,0.55,0.55,0.51,0.53,0.3,0.51,0.38,0.43,0.44,0.5,0.36,0.55,0.27,0.55,0.55,0.54,0.61,0.67,0.53,0.36,0.55,0.27,0.55,0.55,0.3,0.53,0.27,0.36,0.55,0.38,0.43,0.46,0.27,0.43,0.69,0.55,0.69,0.43,0.38,0.43,0.55,0.38,0.43,0.36,0.52,0.27,0.38,0.44,0.3,0.51,0.38,0.46,0.55,0.27,0.55,0.29,0.43,0.43,0.3,0.27,0.51,0.55,0.36,0.55,0.29,0.51,0.25,0.25,0.51,0.69,0.43,0.53" style="fill:rgb(0,0,0);font-family:MinionPro-Regular;font-size:10.0px;stroke:none;">The most common outbreaks in LTCFs in this review were respiratory infections followed</text>
   <text y="306.027" x="200.012,205.072,209.672,211.804,218.944,222.344,224.559,227.219,232.699,235.569,239.799,244.029,247.009,249.669,254.729,260.209,263.809,266.10900000000004,268.326,271.926,277.196,282.256,289.086,291.746,297.226,301.926,304.156,308.386,313.446,318.926,322.526,325.186,328.786,331.766,335.996,341.476,345.706,350.30600000000004,352.514,359.344,362.004,364.984,370.284,372.47,375.45,380.72,385.02000000000004,387.21,390.08,392.74,398.22,403.49,406.15,411.63,416.27,419.87,422.133,427.193,430.09299999999996,432.281,436.681,438.801,443.961,447.671,451.901,456.441,459.101,464.161,469.431,473.031,475.311,478.911,481.891,487.161,492.431,497.031,499.178,504.238,509.738,511.934,517.414,522.684,526.394,529.994,532.654,538.134,542.8340000000001,545.042,550.312,555.372,563.552,567.782" svgx:width="0.51,0.46,0.55,0.72,0.34,0.55,0.27,0.55,0.29,0.43,0.43,0.3,0.27,0.51,0.55,0.36,0.23,0.55,0.36,0.53,0.51,0.69,0.27,0.55,0.47,0.55,0.43,0.51,0.55,0.36,0.27,0.36,0.3,0.43,0.55,0.43,0.46,0.55,0.69,0.27,0.3,0.53,0.55,0.3,0.53,0.43,0.55,0.29,0.27,0.55,0.53,0.27,0.55,0.47,0.36,0.55,0.51,0.29,0.55,0.44,0.55,0.52,0.38,0.43,0.46,0.27,0.51,0.53,0.36,0.55,0.36,0.3,0.53,0.53,0.46,0.55,0.51,0.55,0.55,0.55,0.53,0.38,0.36,0.27,0.55,0.47,0.55,0.53,0.51,0.82,0.43,0.36" style="fill:rgb(0,0,0);font-family:MinionPro-Regular;font-size:10.0px;stroke:none;">by GI infections, showing consistency with the findings of a previous study on nursing homes</text>
   <text y="319.01" x="200.012" svgx:width="0.34" style="fill:rgb(0,0,0);font-family:MinionPro-Regular;font-size:10.0px;stroke:none;">[</text>
   <text y="319.01" x="203.402,208.152" svgx:width="0.48,0.48" style="fill:rgb(59,90,166);font-family:MinionPro-Regular;font-size:10.0px;stroke:none;">51</text>
   <text y="319.01" x="212.902,216.292,218.592,220.761,224.151,229.631,232.611,236.841,240.551,244.781,248.381,251.361,254.021,259.501,264.141,266.601,271.141,273.44100000000003,275.696,278.676,283.946,288.176,291.886,296.18600000000004,298.316,300.976,304.576,306.82,311.21999999999997,313.34,318.61,321.27,324.14,327.01,331.24,334.95,339.18,344.66,348.89,353.19,355.406,358.066,363.566,365.781,368.761,374.031,378.331,380.464,385.524,390.794,393.774,398.834,402.544,406.774,411.104,416.104,418.278,421.988,426.218,431.378,436.438,440.148,443.128,446.728,449.005,451.875,456.935,460.735,462.838,471.748,479.098,485.308,492.768,496.368,498.668,502.898,507.958,516.138,521.298,525.628,529.338,533.568,538.8679999999999,541.074,544.054,549.154,551.335,554.315,559.585" svgx:width="0.34,0.23,0.55,0.34,0.55,0.3,0.43,0.38,0.43,0.36,0.3,0.27,0.55,0.47,0.25,0.46,0.23,0.55,0.3,0.53,0.43,0.38,0.43,0.55,0.27,0.36,0.55,0.44,0.55,0.53,0.27,0.29,0.29,0.43,0.38,0.43,0.55,0.43,0.43,0.55,0.27,0.55,0.55,0.3,0.53,0.43,0.55,0.51,0.53,0.3,0.51,0.38,0.43,0.44,0.5,0.55,0.38,0.43,0.52,0.51,0.38,0.3,0.36,0.55,0.29,0.51,0.38,0.55,0.89,0.74,0.63,0.75,0.36,0.55,0.43,0.51,0.82,0.52,0.44,0.38,0.43,0.53,0.55,0.3,0.51,0.55,0.3,0.53,0.43" style="fill:rgb(0,0,0);font-family:MinionPro-Regular;font-size:10.0px;stroke:none;">]. Interestingly, there is a difference in the outbreak reports for MDROs compared to the</text>
   <text y="331.993" x="200.012,205.172,208.882,213.112,217.652,220.312,225.372,230.642,234.242,236.522,240.232,244.462,249.002,251.662,255.892,262.792,264.924" svgx:width="0.52,0.38,0.43,0.46,0.27,0.51,0.53,0.36,0.55,0.38,0.43,0.46,0.27,0.43,0.69,0.55,0.34" style="fill:rgb(0,0,0);font-family:MinionPro-Regular;font-size:10.0px;stroke:none;">previous review [</text>
   <text y="331.993" x="268.314" svgx:width="0.48" style="fill:rgb(59,90,166);font-family:MinionPro-Regular;font-size:10.0px;stroke:none;">9</text>
   <text y="331.993" x="273.064,276.454,278.754,280.968,287.068,292.338,294.998,298.598,300.811,304.521,308.751,313.291,315.951,320.181,327.08099999999996,329.271,331.931,337.201,341.431,346.911,349.891,352.551,355.421,358.081,362.311,367.611,369.862,372.842,378.112,381.822,386.052,390.35200000000003,392.483,396.193,400.423,405.583,410.643,414.353,417.333,420.93300000000005,423.21,425.87,431.35,435.58,438.04,443.31,448.58,451.24,456.72,461.42,463.632,472.542,478.752,483.502,490.332,492.632,494.813,503.723,509.933,515.513,522.343,524.6429999999999,526.844,531.174,536.654" svgx:width="0.34,0.23,0.55,0.61,0.53,0.27,0.36,0.55,0.38,0.43,0.46,0.27,0.43,0.69,0.55,0.27,0.53,0.43,0.55,0.3,0.27,0.29,0.27,0.43,0.53,0.55,0.3,0.53,0.38,0.43,0.43,0.55,0.38,0.43,0.52,0.51,0.38,0.3,0.36,0.55,0.27,0.55,0.43,0.25,0.53,0.53,0.27,0.55,0.47,0.55,0.89,0.63,0.48,0.69,0.23,0.55,0.89,0.63,0.56,0.69,0.23,0.55,0.44,0.55,0.53" style="fill:rgb(0,0,0);font-family:MinionPro-Regular;font-size:10.0px;stroke:none;">]. This review identified three reports including MRSA, MRPA, and</text>
   <text y="344.975" x="200.012,206.742,212.322,218.942,222.442,229.172,234.752,237.05200000000002,239.243,242.843,248.113,252.753,257.393,261.623,265.223,268.203,270.863,276.343,281.043,283.293,286.273,291.543,295.843,297.976,300.636,306.116,310.346,314.056,318.286,322.616,326.216,330.516,332.672,337.732,340.632,342.82,351.0,356.27,358.73,361.71,364.37,369.64,373.35,378.62,383.26,386.76,390.47,394.7,398.3,400.96,404.56,407.54,411.87,417.35,420.35,422.7,427.76,431.47,436.11,440.44,445.92,448.58,452.18,460.36,463.96,466.26,468.507,473.147,475.807,480.347,484.577,490.077,492.262,495.242,500.512,504.842,507.842,510.063,513.043,518.313,522.6129999999999,524.746,529.906,533.616,536.276,541.336,545.136,547.31,551.02,555.25,559.79,562.45,566.68" svgx:width="0.68,0.56,0.67,0.35,0.68,0.56,0.23,0.55,0.36,0.53,0.47,0.47,0.43,0.36,0.3,0.27,0.55,0.47,0.55,0.3,0.53,0.43,0.55,0.27,0.55,0.43,0.38,0.43,0.44,0.36,0.43,0.55,0.51,0.29,0.55,0.82,0.53,0.25,0.3,0.27,0.53,0.38,0.53,0.47,0.35,0.38,0.43,0.36,0.27,0.36,0.3,0.44,0.55,0.3,0.55,0.51,0.38,0.47,0.44,0.55,0.27,0.36,0.82,0.36,0.23,0.55,0.47,0.27,0.46,0.43,0.55,0.55,0.3,0.53,0.44,0.3,0.55,0.3,0.53,0.43,0.55,0.52,0.38,0.27,0.51,0.38,0.55,0.38,0.43,0.46,0.27,0.43,0.69" style="fill:rgb(0,0,0);font-family:MinionPro-Regular;font-size:10.0px;stroke:none;">KPC-KP, suggesting the increase of multidrug-resistant organisms, given that the prior review</text>
   <text y="358.014" x="200.012,202.882,207.942,213.212,218.692,223.99200000000002,226.203,231.263,236.743,239.203,243.803,245.932,248.912,255.742,260.842,263.054,266.764,270.994,276.154,281.214,284.924,287.904,291.504,293.724,298.784,301.68399999999997,303.872,312.782,318.992,323.742,330.642,332.842" svgx:width="0.29,0.51,0.53,0.55,0.53,0.55,0.51,0.55,0.25,0.46,0.55,0.3,0.69,0.51,0.55,0.38,0.43,0.52,0.51,0.38,0.3,0.36,0.55,0.51,0.29,0.55,0.89,0.63,0.48,0.69,0.55,0.34" style="fill:rgb(0,0,0);font-family:MinionPro-Regular;font-size:10.0px;stroke:none;">found only two reports of MRSA [</text>
   <text y="358.014" x="336.232" svgx:width="0.48" style="fill:rgb(59,90,166);font-family:MinionPro-Regular;font-size:10.0px;stroke:none;">9</text>
   <text y="358.014" x="340.982,344.372,346.672,348.829,355.659,359.259,361.472,364.452,369.722,374.022,376.212,381.372,385.082,389.312,393.852,398.182,400.642,404.872,410.352,414.582,418.882,421.056,426.116,429.01599999999996,431.204,440.114,447.464,453.674,461.134,464.73400000000004,466.977,469.637,473.237,475.481,478.141,483.621,487.851,491.561,495.791,500.121,503.721,506.381,511.861,516.561,518.737,521.397,526.897,529.112,534.482,540.582,547.202,552.472,556.072,558.308" svgx:width="0.34,0.23,0.55,0.69,0.36,0.55,0.3,0.53,0.43,0.55,0.52,0.38,0.43,0.46,0.44,0.25,0.43,0.55,0.43,0.43,0.55,0.51,0.29,0.55,0.89,0.74,0.63,0.75,0.36,0.55,0.27,0.36,0.55,0.27,0.55,0.43,0.38,0.43,0.44,0.36,0.27,0.55,0.47,0.55,0.27,0.55,0.55,0.54,0.61,0.67,0.53,0.36,0.55,0.34" style="fill:rgb(0,0,0);font-family:MinionPro-Regular;font-size:10.0px;stroke:none;">]. As the prevalence of MDROs is increasing in LTCFs [</text>
   <text y="358.014" x="561.698" svgx:width="0.48" style="fill:rgb(59,90,166);font-family:MinionPro-Regular;font-size:10.0px;stroke:none;">2</text>
   <text y="358.014" x="566.448,569.838" svgx:width="0.34,0.23" style="fill:rgb(0,0,0);font-family:MinionPro-Regular;font-size:10.0px;stroke:none;">],</text>
   <text y="370.997" x="200.012,202.992,208.262,212.492,217.09199999999998,219.23,224.29,228.52,232.75,237.81,245.99,250.29000000000002,252.509,256.909,259.028,264.188,268.518,272.228,275.208,277.868,282.098,287.368,289.828,294.158,297.958,300.131,304.361,309.421,314.901,319.131,323.361,327.071,332.571,334.77,337.43,342.93,345.144,348.124,353.394,357.624,361.224,365.524,367.708,370.578,374.908,379.138,381.798,384.258,386.918,389.898,392.558,396.788,400.388,402.688,404.898,414.538,417.198,420.178,425.478,427.689,432.959,436.669,441.939,446.639,448.778,452.488,456.718,460.318,462.978,466.578,469.558,473.888,479.368,483.598,487.898,490.107,495.167,500.667,502.863,505.843,511.113,515.413,517.547,521.257,523.917,527.517,531.747,534.0469999999999,536.255,545.165,552.515,558.725" svgx:width="0.3,0.53,0.43,0.46,0.55,0.51,0.43,0.43,0.51,0.82,0.43,0.55,0.44,0.55,0.52,0.44,0.38,0.3,0.27,0.43,0.53,0.25,0.44,0.38,0.55,0.43,0.51,0.55,0.43,0.43,0.38,0.55,0.55,0.27,0.55,0.55,0.3,0.53,0.43,0.36,0.43,0.55,0.29,0.44,0.43,0.27,0.25,0.27,0.3,0.27,0.43,0.36,0.23,0.55,0.97,0.27,0.3,0.53,0.55,0.53,0.38,0.53,0.47,0.55,0.38,0.43,0.36,0.27,0.36,0.3,0.44,0.55,0.43,0.43,0.55,0.51,0.55,0.55,0.3,0.53,0.43,0.55,0.38,0.27,0.36,0.43,0.23,0.55,0.89,0.74,0.63,0.75" style="fill:rgb(0,0,0);font-family:MinionPro-Regular;font-size:10.0px;stroke:none;">they become a particular concern in these facilities. With drug resistance on the rise, MDRO</text>
   <text y="383.98" x="200.012,203.722,207.952,210.412,214.742,217.722,221.952,227.252,229.435,234.495,239.765,242.745,247.805,251.515,255.745,260.075,265.035,268.63500000000005,270.934,279.114,283.444,288.04400000000004,290.209,295.269,299.499,303.729,308.999,312.79900000000004,314.927,317.587,323.087,325.302,330.672,336.772,343.392,348.662,352.262,354.499,361.329,363.989,366.969,372.269,374.454,379.094,382.804,387.864,394.694,397.354,402.834,407.534,409.774,412.644,416.354,420.584,425.644,430.914,435.144,440.624,444.854,449.394,451.694,453.881,457.271,460.271,462.441,466.041,471.311,476.371,483.201,486.80100000000004,489.087,492.067,497.337,501.667,504.667,506.832,510.432,513.412,517.742,520.612,523.512,525.767,530.097,535.577,540.877,543.058,551.238,555.568,561.048,565.378,570.018" svgx:width="0.38,0.43,0.25,0.44,0.3,0.43,0.53,0.55,0.51,0.53,0.3,0.51,0.38,0.43,0.44,0.5,0.36,0.55,0.82,0.44,0.46,0.55,0.51,0.43,0.43,0.53,0.38,0.55,0.27,0.55,0.55,0.54,0.61,0.67,0.53,0.36,0.55,0.69,0.27,0.3,0.53,0.55,0.47,0.38,0.51,0.69,0.27,0.55,0.47,0.55,0.29,0.38,0.43,0.51,0.53,0.43,0.55,0.43,0.46,0.23,0.55,0.34,0.3,0.55,0.36,0.53,0.51,0.69,0.36,0.55,0.3,0.53,0.44,0.3,0.55,0.36,0.3,0.44,0.29,0.29,0.55,0.44,0.55,0.53,0.55,0.82,0.44,0.55,0.44,0.47,0.35" style="fill:rgb(0,0,0);font-family:MinionPro-Regular;font-size:10.0px;stroke:none;">related outbreaks may occur in LTCFs with growing frequency. It shows that staff and manag-</text>
   <text y="397.019" x="200.012,204.242,207.952,211.552,213.731,218.791,221.691,223.879,229.249,235.349,241.969,247.239,250.839,253.132,258.612,262.842,267.072,272.372,274.562,277.542,282.642,284.824,289.884,294.184,296.332,300.662,307.492,311.822,315.532,319.832,321.957,327.017,329.917,332.105,335.085,340.355,344.65500000000003,346.845,350.445,353.105,357.745,363.225,365.885,368.755,371.415,375.645,379.975,385.455,389.685,393.985,396.168,401.228,404.128,406.316,409.296,414.566,417.226,420.826,423.097,426.077,429.787,434.017,439.497,444.797,446.964,451.294,456.774,462.074,464.256,467.236,472.336,474.517,479.677,483.387,487.617,492.777,497.107,500.817,505.117,507.342,511.74199999999996,513.861,519.021,521.481,525.811,531.291" svgx:width="0.43,0.38,0.36,0.55,0.51,0.29,0.55,0.54,0.61,0.67,0.53,0.36,0.55,0.55,0.43,0.43,0.53,0.55,0.3,0.51,0.55,0.51,0.43,0.55,0.44,0.69,0.44,0.38,0.43,0.55,0.51,0.29,0.55,0.3,0.53,0.43,0.55,0.36,0.27,0.47,0.55,0.27,0.29,0.27,0.43,0.44,0.55,0.43,0.43,0.55,0.51,0.29,0.55,0.3,0.53,0.27,0.36,0.55,0.3,0.38,0.43,0.55,0.53,0.55,0.44,0.55,0.53,0.55,0.3,0.51,0.55,0.52,0.38,0.43,0.52,0.44,0.38,0.43,0.55,0.44,0.55,0.52,0.25,0.44,0.55,0.23" style="fill:rgb(0,0,0);font-family:MinionPro-Regular;font-size:10.0px;stroke:none;">ers of LTCFs need to be aware of the significance of this trend and to prepare a plan.</text>
   <text y="410.001" x="211.974,215.364,220.844,223.714,226.174,231.444,235.674,241.154,245.274,249.674,251.885,256.425,259.085,262.795,268.065,271.665,275.895,279.495,281.705,286.035,291.515,296.815,298.997,306.137,312.967,317.767,319.916,324.246,328.476,332.706,337.766,343.036,348.516,351.496,355.726,361.026,363.229,366.099,371.159,374.959,377.062,381.462,383.582,386.042,390.372,394.082,398.722,403.022,405.182,410.662,415.932,424.112,429.172,433.402,437.202,439.311,444.371,447.27099999999996,449.459,453.059,455.719,461.199,465.839,468.299,472.599,474.744,479.904,484.234,487.214,492.484,497.544,502.184,506.414,511.894,515.494,517.794,519.984,526.084,531.354,534.014,537.614,539.827,542.487,546.087,548.274,551.874,554.534,562.714,565.374,567.834,572.164" svgx:width="0.34,0.55,0.29,0.25,0.53,0.43,0.55,0.42,0.44,0.55,0.46,0.27,0.38,0.53,0.36,0.43,0.36,0.55,0.44,0.55,0.53,0.55,0.72,0.69,0.48,0.55,0.44,0.43,0.43,0.51,0.53,0.55,0.3,0.43,0.53,0.55,0.29,0.51,0.38,0.55,0.44,0.55,0.25,0.44,0.38,0.47,0.43,0.55,0.55,0.53,0.82,0.51,0.43,0.38,0.55,0.51,0.29,0.55,0.36,0.27,0.55,0.47,0.25,0.43,0.55,0.52,0.44,0.3,0.53,0.51,0.47,0.43,0.55,0.36,0.23,0.55,0.61,0.53,0.27,0.36,0.55,0.27,0.36,0.55,0.36,0.27,0.82,0.27,0.25,0.44,0.38" style="fill:rgb(0,0,0);font-family:MinionPro-Regular;font-size:10.0px;stroke:none;">Influenza viruses and GAS accounted for a large number of single pathogens. This is similar</text>
   <text y="422.984" x="200.012,202.992,208.09199999999998,210.216,213.196,218.466,222.76600000000002,224.843,228.553,232.783,236.383,241.653,244.113,247.093,250.69299999999998,252.849,257.909,260.80899999999997,262.94,265.92,271.19,275.49,277.624,282.784,286.494,290.724,295.264,297.924,302.984,308.254,311.85400000000004,314.077,317.787,322.017,326.557,329.217,333.447,340.347,342.423,346.023,351.293,356.353,363.183,365.843,371.323,376.02299999999997,378.196,381.176,386.446,390.776,393.776,395.941,398.921,404.191,408.491,410.568,413.028,417.358,421.068,425.708,429.938,433.538,436.538,438.687,444.167,449.437,457.617,462.677,466.907,470.707,472.816,477.876,480.77599999999995,482.907,487.237,491.467,494.447,497.107,502.167,504.627,509.687,514.327,516.987,521.2869999999999,523.443,527.773,532.413,536.643,542.123,545.103,548.703,550.882,555.212,558.082,560.952,565.182,569.412,572.392" svgx:width="0.3,0.51,0.55,0.3,0.53,0.43,0.55,0.38,0.43,0.36,0.53,0.25,0.3,0.36,0.55,0.51,0.29,0.55,0.3,0.53,0.43,0.55,0.52,0.38,0.43,0.46,0.27,0.51,0.53,0.36,0.55,0.38,0.43,0.46,0.27,0.43,0.69,0.55,0.36,0.53,0.51,0.69,0.27,0.55,0.47,0.55,0.3,0.53,0.44,0.3,0.55,0.3,0.53,0.43,0.55,0.25,0.44,0.38,0.47,0.43,0.36,0.3,0.55,0.55,0.53,0.82,0.51,0.43,0.38,0.55,0.51,0.29,0.55,0.44,0.43,0.3,0.27,0.51,0.25,0.51,0.47,0.27,0.43,0.55,0.44,0.47,0.43,0.55,0.3,0.36,0.55,0.44,0.29,0.29,0.43,0.43,0.3,0.35" style="fill:rgb(0,0,0);font-family:MinionPro-Regular;font-size:10.0px;stroke:none;">to the results of the previous review showing that the largest number of aetiologic agents affect-</text>
   <text y="436.023" x="200.012,202.672,208.152,212.85199999999998,215.035,220.095,225.365,228.345,233.405,237.115,241.345,245.675,250.635,254.23499999999999,256.477,263.307,267.637,271.237,273.485,276.145,281.625,284.495,286.955,292.225,296.455,301.935,306.055,310.455,312.603,317.143,319.803,323.513,328.783,332.383,336.613,340.213,342.48,345.14,350.64,352.855,358.225,364.325,370.945,376.215,379.815,382.051,384.921,388.631,393.691,404.105,408.855,413.605,418.355,423.15500000000003,425.364,428.344,433.444,435.569,440.319,445.069,449.819,454.619,456.829" svgx:width="0.27,0.55,0.47,0.55,0.51,0.53,0.3,0.51,0.38,0.43,0.44,0.5,0.36,0.55,0.69,0.44,0.36,0.55,0.27,0.55,0.29,0.25,0.53,0.43,0.55,0.42,0.44,0.55,0.46,0.27,0.38,0.53,0.36,0.43,0.36,0.55,0.27,0.55,0.55,0.54,0.61,0.67,0.53,0.36,0.55,0.29,0.38,0.51,0.82,0.48,0.48,0.48,0.48,0.55,0.3,0.51,0.55,0.48,0.48,0.48,0.48,0.55,0.34" style="fill:rgb(0,0,0);font-family:MinionPro-Regular;font-size:10.0px;stroke:none;">ing outbreaks was influenza viruses in LTCFs from1966 to 2008 [</text>
   <text y="436.023" x="460.219" svgx:width="0.48" style="fill:rgb(59,90,166);font-family:MinionPro-Regular;font-size:10.0px;stroke:none;">9</text>
   <text y="436.023" x="464.969,468.359,470.659,472.816,478.086,480.746,484.456,488.056,491.036,493.336,495.55,498.21,503.71,505.925,508.905,514.175,516.835,520.4350000000001,522.649,526.359,530.589,535.129,537.789,542.019,548.849,551.149,553.32,556.19,558.85,563.39" svgx:width="0.34,0.23,0.55,0.53,0.27,0.38,0.36,0.3,0.23,0.55,0.27,0.55,0.55,0.3,0.53,0.27,0.36,0.55,0.38,0.43,0.46,0.27,0.43,0.69,0.23,0.55,0.29,0.27,0.46,0.43" style="fill:rgb(0,0,0);font-family:MinionPro-Regular;font-size:10.0px;stroke:none;">]. First, in this review, five</text>
   <text y="449.006" x="200.012,205.072,207.972,210.159,213.139,218.409,222.709,224.843,228.443,231.103,235.803,237.996,240.656,246.136,249.006,251.466,256.736,260.966,266.446,270.566,274.96599999999995,277.17,281.71,284.37,288.08,293.35,296.95000000000005,299.167,304.227,309.497,312.477,317.537,321.247,325.477,329.807,334.767,338.367,340.609,345.669,349.899,354.129,359.399,363.109,366.819,371.049,376.349,378.593,383.653,388.25300000000004,390.385,393.365,398.635,402.935,405.068,407.728,413.208,416.078,418.538,423.808,428.038,433.518,437.638,442.03799999999995,444.243,451.143,453.314,457.854,460.514,464.224,469.494,473.09400000000005,475.311,479.641,485.121,490.421,492.602,495.582,500.852,505.152,507.342,512.402,515.382,520.652,524.882,528.6819999999999,530.813,535.873,540.4730000000001,542.605,545.265,550.745,553.615,556.075,561.345" svgx:width="0.51,0.29,0.55,0.3,0.53,0.43,0.55,0.36,0.27,0.47,0.55,0.27,0.55,0.29,0.25,0.53,0.43,0.55,0.42,0.44,0.55,0.46,0.27,0.38,0.53,0.36,0.55,0.51,0.53,0.3,0.51,0.38,0.43,0.44,0.5,0.36,0.55,0.51,0.43,0.43,0.53,0.38,0.38,0.43,0.53,0.55,0.51,0.46,0.55,0.3,0.53,0.43,0.55,0.27,0.55,0.29,0.25,0.53,0.43,0.55,0.42,0.44,0.55,0.69,0.55,0.46,0.27,0.38,0.53,0.36,0.55,0.44,0.55,0.53,0.55,0.3,0.53,0.43,0.55,0.51,0.3,0.53,0.43,0.38,0.55,0.51,0.46,0.55,0.27,0.55,0.29,0.25,0.53,0.35" style="fill:rgb(0,0,0);font-family:MinionPro-Regular;font-size:10.0px;stroke:none;">of the six influenza virus outbreaks occurred by the influenza A virus and the other by influ-</text>
   <text y="461.989" x="200.012,204.242,209.722,213.842,218.24200000000002,220.364,226.16400000000002,228.414,232.954,235.614,239.324,244.594,248.194,250.494,252.679,256.069,261.549,264.419,266.879,272.149,276.379,281.859,285.979,290.309,293.809,296.269,298.929,303.889,308.189,310.392,313.052,315.512,317.972,323.452,327.682,331.282,334.882,337.151,339.811,345.291,349.521,351.981,357.251,362.521,366.751,372.051,374.228,376.888,382.388,384.602,387.582,392.852,397.152,399.286,402.886,405.866,411.136,416.406,419.066,423.296,426.896,429.163,432.763,438.033,443.093,449.923,454.153,459.45300000000003,461.704,466.104,468.224,476.404,480.634,485.904,488.564,492.894,498.394,500.595,504.925,507.905,510.885,515.215,519.445,524.445,526.674,530.384,534.714,537.694,541.9939999999999,544.135,549.195" svgx:width="0.43,0.55,0.42,0.44,0.55,0.58,0.55,0.46,0.27,0.38,0.53,0.36,0.23,0.55,0.34,0.55,0.29,0.25,0.53,0.43,0.55,0.42,0.44,0.35,0.25,0.27,0.5,0.43,0.55,0.27,0.25,0.25,0.55,0.43,0.36,0.36,0.55,0.27,0.55,0.43,0.25,0.53,0.53,0.43,0.53,0.55,0.27,0.55,0.55,0.3,0.53,0.43,0.55,0.36,0.3,0.53,0.53,0.27,0.43,0.36,0.55,0.36,0.53,0.51,0.69,0.43,0.53,0.55,0.44,0.55,0.82,0.43,0.53,0.27,0.44,0.55,0.55,0.44,0.3,0.3,0.44,0.43,0.5,0.55,0.38,0.44,0.3,0.43,0.55,0.51,0.29" style="fill:rgb(0,0,0);font-family:MinionPro-Regular;font-size:10.0px;stroke:none;">enza B virus. Influenza-like illness included in the studies showed a median attack rate of</text>
   <text y="474.971" x="200.012,204.762,209.512,211.762,216.512,221.262,228.822,231.122,233.29,236.89,239.55,247.73,250.39,252.85,257.18,260.98,263.167,266.147,271.247,273.428,276.408,281.678,286.008,289.008,291.23,296.29,299.19,301.378,304.978,309.208,313.538,317.138,322.198,327.678,332.008,334.508,336.697,339.357,344.837,347.707,350.167,355.437,359.667,365.147,369.267,373.597,375.897,378.14,383.41,387.01,392.28,396.61,399.07,401.53,406.13,408.3,413.05,417.8,422.96,427.71,432.46,442.259" svgx:width="0.48,0.48,0.23,0.48,0.48,0.76,0.23,0.55,0.36,0.27,0.82,0.27,0.25,0.44,0.38,0.55,0.3,0.51,0.55,0.3,0.53,0.44,0.3,0.55,0.51,0.29,0.55,0.36,0.43,0.44,0.36,0.51,0.55,0.44,0.25,0.55,0.27,0.55,0.29,0.25,0.53,0.43,0.55,0.42,0.44,0.23,0.55,0.53,0.36,0.53,0.44,0.25,0.25,0.46,0.55,0.48,0.48,0.52,0.48,0.48,0.76,0.34" style="fill:rgb(0,0,0);font-family:MinionPro-Regular;font-size:10.0px;stroke:none;">24.50%, similar to that of seasonal influenza, usually 20–30%[</text>
   <text y="474.971" x="445.649,450.399" svgx:width="0.48,0.48" style="fill:rgb(59,90,166);font-family:MinionPro-Regular;font-size:10.0px;stroke:none;">40</text>
   <text y="474.971" x="455.149,458.539,460.839,463.008,469.938,474.268,478.498,482.728,485.388,490.868,495.098,498.598,502.308,506.538,508.998,513.328,516.308,520.538,525.838,528.148,530.808,534.408,538.008,543.278,547.508,551.1080000000001,553.32,558.59,562.92,567.46" svgx:width="0.34,0.23,0.55,0.7,0.44,0.43,0.43,0.27,0.55,0.43,0.35,0.38,0.43,0.25,0.44,0.3,0.43,0.53,0.55,0.27,0.36,0.36,0.53,0.43,0.36,0.55,0.53,0.44,0.46,0.43" style="fill:rgb(0,0,0);font-family:MinionPro-Regular;font-size:10.0px;stroke:none;">]. Vaccine-related issues have</text>
   <text y="488.01" x="200.012,205.072,209.302,213.532,219.032,221.215,224.925,229.255,231.915,235.515,239.745,245.04500000000002,247.293,249.953,255.453,257.611,260.271,265.751,268.621,271.081,276.351,280.581,286.061,290.181,294.58099999999996,296.786,301.846,307.116,310.096,315.156,318.866,323.096,327.426,332.386,335.98600000000005,338.228,341.208,346.478,350.808,353.808,356.029,361.299,365.629,370.169,374.469,376.666,381.726,385.956,390.186,395.456,399.166,402.876,407.106,412.406,414.593,417.253,422.753,424.968,430.338,436.438,443.058,448.328,451.928,454.164,459.224,462.12399999999997,464.312,469.582,472.242,476.882,482.152,484.612,489.21200000000005,491.411,494.071,502.251,510.431,515.701,521.181,523.841,527.961,532.191,537.491,539.77,543.48,547.71,551.31,553.97" svgx:width="0.51,0.43,0.43,0.55,0.55,0.38,0.44,0.27,0.36,0.43,0.53,0.55,0.27,0.55,0.55,0.27,0.55,0.29,0.25,0.53,0.43,0.55,0.42,0.44,0.55,0.51,0.53,0.3,0.51,0.38,0.43,0.44,0.5,0.36,0.55,0.3,0.53,0.44,0.3,0.55,0.53,0.44,0.46,0.43,0.55,0.51,0.43,0.43,0.53,0.38,0.38,0.43,0.53,0.55,0.27,0.55,0.55,0.54,0.61,0.67,0.53,0.36,0.55,0.51,0.29,0.55,0.53,0.27,0.47,0.53,0.25,0.46,0.55,0.27,0.82,0.82,0.53,0.55,0.27,0.42,0.43,0.53,0.55,0.38,0.43,0.36,0.27,0.35" style="fill:rgb(0,0,0);font-family:MinionPro-Regular;font-size:10.0px;stroke:none;">been raised in influenza outbreaks that have occurred in LTCFs of highly immunized resi-</text>
   <text y="500.993" x="200.012,205.282,209.512,214.992,217.972,221.572,223.872,226.033,232.133,237.403,240.063,243.66299999999998,245.932,248.802,251.462,256.942,262.212,264.872,270.352,275.05199999999996,277.227,280.827,286.097,290.737,295.377,299.607,303.207,306.187,309.78700000000003,312.036,315.636,320.696,328.876,333.176,335.393,338.053,346.233,351.393,353.853,356.513,360.743,365.073,368.053,370.713,375.773,381.253,384.853,387.154,390.134,395.23400000000004,397.415,402.575,406.285,410.515,415.055,419.285,424.765,427.765,429.957,432.617,438.097,440.967,443.427,448.697,452.927,458.407,462.527,466.92699999999996,469.131,474.191,479.461,482.441,487.501,491.211,495.441,499.771,504.731,508.331,510.573,513.233,518.733,520.948,526.318,532.418,539.038,544.308,547.908" svgx:width="0.53,0.43,0.55,0.3,0.36,0.23,0.55,0.61,0.53,0.27,0.36,0.55,0.29,0.27,0.55,0.53,0.27,0.55,0.47,0.55,0.36,0.53,0.47,0.47,0.43,0.36,0.3,0.36,0.55,0.36,0.51,0.82,0.43,0.55,0.27,0.82,0.52,0.25,0.27,0.43,0.44,0.3,0.27,0.51,0.55,0.36,0.55,0.3,0.51,0.55,0.52,0.38,0.43,0.46,0.43,0.55,0.3,0.55,0.27,0.55,0.29,0.25,0.53,0.43,0.55,0.42,0.44,0.55,0.51,0.53,0.3,0.51,0.38,0.43,0.44,0.5,0.36,0.55,0.27,0.55,0.55,0.54,0.61,0.67,0.53,0.36,0.23" style="fill:rgb(0,0,0);font-family:MinionPro-Regular;font-size:10.0px;stroke:none;">dents. This finding suggests some implications to prevent influenza outbreaks in LTCFs.</text>
   <text y="513.976" x="200.012,206.222,210.452,215.092,219.422,223.132,228.402,231.062,236.542,241.242,243.438,247.978,252.308,256.538,260.768,263.428,268.908,273.238,276.218,278.878,283.938,289.438,291.683,295.913,300.973,305.513,309.743,313.453,317.783,322.423,326.723,328.93,333.26,341.44,346.5,351.98,356.68,358.864,362.464,365.444,369.774,372.644,375.514,377.814,380.01,382.99,388.26,392.56,394.694,398.294,401.274,406.544,411.814,416.41400000000004,418.618,423.678,428.278,430.41,436.51,441.78,446.84,455.02,459.35,462.95000000000005,465.219" svgx:width="0.63,0.43,0.47,0.44,0.38,0.53,0.27,0.55,0.47,0.55,0.46,0.44,0.43,0.43,0.27,0.55,0.44,0.3,0.27,0.51,0.55,0.55,0.43,0.51,0.46,0.43,0.38,0.44,0.47,0.43,0.55,0.44,0.82,0.51,0.55,0.47,0.55,0.36,0.3,0.44,0.29,0.29,0.23,0.55,0.3,0.53,0.43,0.55,0.36,0.3,0.53,0.53,0.46,0.55,0.51,0.46,0.55,0.61,0.53,0.51,0.82,0.44,0.36,0.55,0.34" style="fill:rgb(0,0,0);font-family:MinionPro-Regular;font-size:10.0px;stroke:none;">Regarding vaccination coverage among staff, the study by Thomas [</text>
   <text y="513.976" x="468.609,473.359" svgx:width="0.48,0.48" style="fill:rgb(59,90,166);font-family:MinionPro-Regular;font-size:10.0px;stroke:none;">52</text>
   <text y="513.976" x="478.109,481.50899999999996,483.758,486.628,491.688,496.958,502.438,507.738,509.95,512.93,518.2,522.53,525.53,527.694,530.354,535.834,538.704,541.164,546.434,550.664,556.144,560.264" svgx:width="0.34,0.55,0.29,0.51,0.53,0.55,0.53,0.55,0.3,0.53,0.44,0.3,0.55,0.27,0.55,0.29,0.25,0.53,0.43,0.55,0.42,0.44" style="fill:rgb(0,0,0);font-family:MinionPro-Regular;font-size:10.0px;stroke:none;">] found that influenza</text>
   <text y="527.015" x="200.012,204.242,209.402,212.062,215.662,220.722,225.992,230.222,233.822,236.068,242.898,247.128,250.838,255.138,257.328,261.038,265.268,270.538,275.808,280.038,284.268,289.568,291.74,294.4,297.29999999999995,299.507,303.837,309.337,311.526,315.756,323.936,329.096,331.556,336.616,341.156,345.386,349.68600000000004,351.891,358.721,363.051,366.651,368.899,373.439,377.769,381.999,386.229,388.889,394.369,398.699,401.679,405.909,411.179,413.479,415.67,420.0,425.48,430.78000000000003,432.961,435.941,441.211,445.511,447.701,454.321,458.551,464.031,467.011,471.241,474.951,478.55100000000004,480.753,483.623,488.683,492.483,494.643,501.993,504.653,508.253,512.483,516.813,520.413,524.713,526.901,533.521,538.581,544.061,547.041,550.751,555.811,558.311,560.519,564.849,570.329" svgx:width="0.43,0.52,0.27,0.36,0.51,0.53,0.43,0.36,0.55,0.69,0.43,0.38,0.43,0.55,0.38,0.43,0.53,0.53,0.43,0.43,0.53,0.55,0.27,0.29,0.55,0.44,0.55,0.55,0.43,0.82,0.52,0.25,0.51,0.46,0.43,0.43,0.55,0.69,0.44,0.36,0.55,0.46,0.44,0.43,0.43,0.27,0.55,0.44,0.3,0.43,0.53,0.23,0.55,0.44,0.55,0.53,0.55,0.3,0.53,0.43,0.55,0.67,0.43,0.55,0.3,0.43,0.38,0.36,0.55,0.29,0.51,0.38,0.55,0.74,0.27,0.36,0.43,0.44,0.36,0.43,0.55,0.67,0.51,0.55,0.3,0.38,0.51,0.25,0.55,0.44,0.55,0.53" style="fill:rgb(0,0,0);font-family:MinionPro-Regular;font-size:10.0px;stroke:none;">episodes were reduced if an employee was vaccinated, and the Centers for Disease Control and</text>
   <text y="539.998" x="200.012,205.592,209.302,213.532,218.072,222.302,227.782,230.762,233.422,238.482,243.982,246.216,249.606,256.226,263.576,270.196,273.596,275.866,279.576,283.806,288.036,293.096,301.276,309.456,313.686,319.166,324.466,326.663,329.643,334.913,339.243,342.243,344.464,348.794,351.254,353.754,355.916,361.186,365.416,369.746,372.206,375.186,380.456,384.686,389.016,392.726,397.026,399.229,406.059,411.119,414.829,419.789,424.019,427.819,429.957,434.597,438.827,441.827,444.073,448.613,452.943,457.173,461.403,464.063,469.543,473.873,476.853,481.083,486.38300000000004,488.577,492.907,498.387,503.867,509.137,513.467,515.927,518.387,522.987,525.2" svgx:width="0.56,0.38,0.43,0.46,0.43,0.55,0.3,0.27,0.51,0.55,0.55,0.34,0.67,0.74,0.67,0.34,0.55,0.38,0.43,0.43,0.51,0.82,0.82,0.43,0.55,0.53,0.55,0.3,0.53,0.44,0.3,0.55,0.44,0.25,0.25,0.55,0.53,0.43,0.44,0.25,0.3,0.53,0.43,0.44,0.38,0.43,0.55,0.69,0.51,0.38,0.5,0.43,0.38,0.55,0.47,0.43,0.3,0.55,0.46,0.44,0.43,0.43,0.27,0.55,0.44,0.3,0.43,0.53,0.55,0.44,0.55,0.55,0.53,0.44,0.25,0.25,0.46,0.55,0.34" style="fill:rgb(0,0,0);font-family:MinionPro-Regular;font-size:10.0px;stroke:none;">Prevention (CDC) recommend that all healthcare worker get vaccinated annually [</text>
   <text y="539.998" x="528.59,533.34" svgx:width="0.48,0.48" style="fill:rgb(59,90,166);font-family:MinionPro-Regular;font-size:10.0px;stroke:none;">53</text>
   <text y="539.998" x="538.09,541.48,543.78,545.949,552.049,557.319,561.549,565.259,569.489" svgx:width="0.34,0.23,0.55,0.61,0.53,0.43,0.38,0.43,0.35" style="fill:rgb(0,0,0);font-family:MinionPro-Regular;font-size:10.0px;stroke:none;">]. There-</text>
   <text y="552.98" x="200.012,202.882,207.942,211.652,215.882,218.18200000000002,220.364,223.024,228.504,231.374,233.834,239.104,243.334,248.814,252.934,257.334,259.539,264.079,268.409,272.639,276.869,279.529,285.009,289.339,292.319,294.979,300.039,305.539,307.784,312.114,320.294,325.354,330.834,335.534,337.718,342.988,347.218,351.548,354.008,356.988,362.258,366.488,370.818,374.528,378.82800000000003,381.031,386.191,390.421,394.131,397.731,402.791,408.271,413.751,417.981,420.481,422.7,426.3,431.57,436.63,441.9,444.36,449.66,451.84,456.9,461.2,463.348,467.578,472.638,478.118,481.718,484.378,489.648,493.878,497.588,501.818,507.118,509.383,512.363,517.4630000000001,519.644,527.824,530.484,533.464,536.124,540.764,545.094,548.074,552.3739999999999,554.567,557.547,562.817" svgx:width="0.29,0.51,0.38,0.43,0.23,0.55,0.27,0.55,0.29,0.25,0.53,0.43,0.55,0.42,0.44,0.55,0.46,0.44,0.43,0.43,0.27,0.55,0.44,0.3,0.27,0.51,0.55,0.55,0.44,0.82,0.51,0.55,0.47,0.55,0.53,0.43,0.44,0.25,0.3,0.53,0.43,0.44,0.38,0.43,0.55,0.52,0.43,0.38,0.36,0.51,0.55,0.55,0.43,0.25,0.55,0.36,0.53,0.51,0.53,0.25,0.53,0.55,0.51,0.43,0.55,0.43,0.51,0.55,0.36,0.27,0.53,0.43,0.38,0.43,0.53,0.55,0.3,0.51,0.55,0.82,0.27,0.3,0.27,0.47,0.44,0.3,0.43,0.55,0.3,0.53,0.43" style="fill:rgb(0,0,0);font-family:MinionPro-Regular;font-size:10.0px;stroke:none;">fore, influenza vaccination among healthcare personnel should be considered to mitigate the</text>
   <text y="566.019" x="200.012,203.722,206.382,209.982,214.982,217.133,222.193,225.09300000000002,227.281,229.941,235.421,238.291,240.751,246.021,250.251,255.731,259.851,264.251,266.455,271.515,276.785,279.765,284.825,288.535,292.765,297.095,302.055,305.65500000000003,307.954,310.614,316.114,318.272,323.642,329.742,336.362,341.632,345.232,347.53200000000004,349.737,356.567,361.837,367.107,369.767,372.747,375.407,380.467,385.947,390.277,392.737,395.197,399.737,402.03700000000003,404.275,409.335,413.565,417.795,422.125,427.395,430.995,435.295,437.497,442.037,446.367,450.597,454.827,457.487,462.967,467.297,470.277,472.937,477.997,483.497,485.742,491.012,496.072,500.302,503.90200000000004,506.151,511.631,516.691,519.691,521.912,527.072,530.782,535.842,540.382,543.042,548.312,552.612,554.794,559.024,564.084,572.264" svgx:width="0.38,0.27,0.36,0.5,0.55,0.51,0.29,0.55,0.27,0.55,0.29,0.25,0.53,0.43,0.55,0.42,0.44,0.55,0.51,0.53,0.3,0.51,0.38,0.43,0.44,0.5,0.36,0.55,0.27,0.55,0.55,0.54,0.61,0.67,0.53,0.36,0.23,0.55,0.69,0.53,0.53,0.27,0.3,0.27,0.51,0.55,0.44,0.25,0.25,0.46,0.23,0.55,0.51,0.43,0.43,0.44,0.53,0.36,0.43,0.55,0.46,0.44,0.43,0.43,0.27,0.55,0.44,0.3,0.27,0.51,0.55,0.55,0.53,0.51,0.43,0.36,0.55,0.55,0.51,0.3,0.55,0.52,0.38,0.51,0.46,0.27,0.53,0.43,0.55,0.43,0.51,0.82,0.35" style="fill:rgb(0,0,0);font-family:MinionPro-Regular;font-size:10.0px;stroke:none;">risk of influenza outbreaks in LTCFs. Additionally, because vaccination does not provide com-</text>
   <text y="579.002" x="200.012,205.172,207.632,211.862,214.842,219.14200000000002,221.271,226.431,230.141,235.201,238.181,242.411,246.641,249.621,252.281,257.341,262.821,265.12100000000004,267.362,271.692,275.922,278.902,281.562,286.102,290.402,292.59,297.86,302.19,304.85,307.31,311.91,314.077,317.677,322.947,326.657,331.197,335.427,338.087,340.547,343.007,347.337,352.817,357.047,361.34700000000004,363.57,366.44,371.5,375.3,377.403,380.063,385.543,388.413,390.873,396.143,400.373,405.853,409.973,414.303,417.803,420.263,422.923,427.883,432.183,434.435,437.095,439.555,442.015,447.495,451.725,455.325,458.925,461.137,463.797,467.39700000000005,469.641,473.241,476.221,478.881,481.341,483.841,486.025,489.735,493.965,498.195,503.255,511.435,519.615,523.845,529.325,534.595,538.825,544.125,546.346,549.216,554.276,558.0759999999999,560.236,564.566,567.026" svgx:width="0.52,0.25,0.43,0.3,0.43,0.55,0.52,0.38,0.51,0.3,0.43,0.43,0.3,0.27,0.51,0.55,0.23,0.55,0.44,0.43,0.3,0.27,0.46,0.43,0.55,0.53,0.44,0.27,0.25,0.46,0.55,0.36,0.53,0.38,0.46,0.43,0.27,0.25,0.25,0.44,0.55,0.43,0.43,0.55,0.29,0.51,0.38,0.55,0.27,0.55,0.29,0.25,0.53,0.43,0.55,0.42,0.44,0.35,0.25,0.27,0.5,0.43,0.55,0.27,0.25,0.25,0.55,0.43,0.36,0.36,0.55,0.27,0.36,0.55,0.36,0.3,0.27,0.25,0.25,0.55,0.38,0.43,0.43,0.51,0.82,0.82,0.43,0.55,0.53,0.43,0.53,0.55,0.29,0.51,0.38,0.55,0.44,0.25,0.25" style="fill:rgb(0,0,0);font-family:MinionPro-Regular;font-size:10.0px;stroke:none;">plete protection, active daily surveillance for influenza-like illness is still recommended for all</text>
   <text y="591.985" x="200.012,205.172,209.402,213.112,216.712,221.772,227.252,230.852,233.12,235.78,241.28,243.438,248.808,254.908,261.528,266.798,270.398,272.691,277.961,283.231,286.941,289.601,295.081,299.781,301.945,304.605,310.085,312.955,315.415,320.685,324.915,330.395,334.515,338.91499999999996,341.119,344.719,348.949,353.279,356.879,361.939,367.439,369.636" svgx:width="0.52,0.43,0.38,0.36,0.51,0.55,0.36,0.55,0.27,0.55,0.55,0.54,0.61,0.67,0.53,0.36,0.55,0.53,0.53,0.38,0.27,0.55,0.47,0.55,0.27,0.55,0.29,0.25,0.53,0.43,0.55,0.42,0.44,0.55,0.36,0.43,0.44,0.36,0.51,0.55,0.55,0.34" style="fill:rgb(0,0,0);font-family:MinionPro-Regular;font-size:10.0px;stroke:none;">persons in LTCFs during influenza season [</text>
   <text y="591.985" x="373.026,377.776" svgx:width="0.48,0.48" style="fill:rgb(59,90,166);font-family:MinionPro-Regular;font-size:10.0px;stroke:none;">53</text>
   <text y="591.985" x="382.526,385.916,388.216,390.442,397.272,402.542,405.202,409.432,414.732,416.917,419.577,423.177,425.421,429.651,434.191,436.851,442.121,446.351,451.831,454.831,457.056,462.116,466.716,468.848,471.828,477.098,481.398,483.531,488.591,493.861,496.841,501.901,505.611,509.841,514.171,519.131,522.731,525.03,530.09,534.32,538.55,543.82,547.53,551.24,553.9,559.38,564.08,566.245,568.905" svgx:width="0.34,0.23,0.55,0.69,0.53,0.27,0.43,0.53,0.55,0.27,0.36,0.55,0.43,0.46,0.27,0.53,0.43,0.55,0.3,0.55,0.51,0.46,0.55,0.3,0.53,0.43,0.55,0.51,0.53,0.3,0.51,0.38,0.43,0.44,0.5,0.36,0.55,0.51,0.43,0.43,0.53,0.38,0.38,0.27,0.55,0.47,0.55,0.27,0.55" style="fill:rgb(0,0,0);font-family:MinionPro-Regular;font-size:10.0px;stroke:none;">], which is evident by the outbreaks occurring in</text>
   <text y="605.024" x="200.012,205.282,207.942,212.582,217.852,220.312,224.912,227.111,229.771,237.951,246.131,251.401,256.881,259.541,263.661,267.891,273.19100000000003,275.413,280.783,286.883,293.503,298.803,301.038,306.198,311.258,316.418,321.688,324.148,328.478,331.458,334.118,339.178,344.658,346.958,349.17,353.92,358.15,362.38,367.44,372.92,378.19,380.65,385.19,387.49,389.705,392.685,397.955,402.255,404.388,411.528,418.358,423.158,425.364,428.024,433.504,436.374,440.604,444.834,447.814,450.474,455.534,461.034,463.292,467.002,471.332,474.312,478.612,480.753,485.083,493.263,498.323,503.803,508.503,510.687,515.747,518.207,523.477,527.707,531.507,533.647,537.977,543.247,548.517,550.977,553.957,557.557,559.782,562.442" svgx:width="0.53,0.27,0.47,0.53,0.25,0.46,0.55,0.27,0.82,0.82,0.53,0.55,0.27,0.42,0.43,0.53,0.55,0.54,0.61,0.67,0.53,0.55,0.52,0.51,0.52,0.53,0.25,0.44,0.3,0.27,0.51,0.55,0.23,0.55,0.48,0.43,0.43,0.51,0.55,0.53,0.25,0.46,0.23,0.55,0.3,0.53,0.43,0.55,0.72,0.69,0.48,0.55,0.27,0.55,0.29,0.43,0.43,0.3,0.27,0.51,0.55,0.55,0.38,0.44,0.3,0.43,0.55,0.44,0.82,0.51,0.55,0.47,0.55,0.51,0.25,0.53,0.43,0.38,0.55,0.44,0.53,0.53,0.25,0.3,0.36,0.55,0.27,0.55" style="fill:rgb(0,0,0);font-family:MinionPro-Regular;font-size:10.0px;stroke:none;">highly immunized LTCF population. Secondly, the GAS infection rate among older adults in</text>
   <text y="618.006" x="200.012,205.382,211.482,218.102,223.372,226.972,229.151,231.811,235.411,237.599,240.469,244.179,249.239,259.652,264.452,266.569,269.549,274.649,276.773,281.523,285.023,287.893,292.953,295.413,300.713,302.908,308.178,310.838,315.478,320.748,324.978,328.778,330.858,333.838,339.108,343.438,348.938,351.154,354.134,359.404,363.734,366.734,368.899,373.959,376.859,378.99,383.22,388.28,396.46,404.64,409.91,415.39,418.05,421.03,425.57,429.07,434.34,441.17,445.4,447.86,450.32,452.98,458.46,463.15999999999997,465.389,470.449,472.909,478.179,482.409,486.209,488.35,492.68,497.95,503.22,505.68,508.66,512.26,514.56,516.696,521.966,527.236,531.536,533.647,536.627,541.727,543.852,547.562,550.222,553.822,558.822,560.973,563.843,568.173,572.403" svgx:width="0.54,0.61,0.67,0.53,0.36,0.55,0.27,0.36,0.55,0.29,0.38,0.51,0.82,0.48,0.55,0.3,0.51,0.55,0.48,0.35,0.29,0.51,0.25,0.53,0.55,0.53,0.27,0.47,0.53,0.43,0.38,0.55,0.3,0.53,0.44,0.55,0.55,0.3,0.53,0.44,0.3,0.55,0.51,0.29,0.55,0.43,0.51,0.82,0.82,0.53,0.55,0.27,0.3,0.46,0.35,0.53,0.69,0.43,0.25,0.25,0.27,0.55,0.47,0.55,0.51,0.25,0.53,0.43,0.38,0.55,0.44,0.53,0.53,0.25,0.3,0.36,0.23,0.55,0.53,0.53,0.43,0.55,0.3,0.51,0.55,0.38,0.27,0.36,0.5,0.55,0.29,0.44,0.43,0.35" style="fill:rgb(0,0,0);font-family:MinionPro-Regular;font-size:10.0px;stroke:none;">LTCFs is from3 to 8-fold higher than that of community-dwelling older adults, due to risk fac-</text>
   <text y="630.989" x="200.012,202.992,208.052,211.762,215.362,217.586,221.186,226.456,230.686,235.98600000000002,238.166,242.496,246.096,248.314,252.954,256.664,261.724,266.994,272.154,276.384,281.684,283.916,286.376,289.036,293.576,296.236,301.716,306.416,308.634,312.864,317.924,323.404,328.674,331.334,334.314,336.974,342.034,347.514,351.114,353.414,355.633,359.963,365.443,370.743,372.924,378.194,383.674,388.944,393.174,396.884,399.344,403.884,406.544,412.024,416.724,418.958,424.228,426.888,430.488,434.718,439.048,442.648,446.878,450.478,452.69" svgx:width="0.3,0.51,0.38,0.36,0.55,0.36,0.53,0.43,0.53,0.55,0.44,0.36,0.55,0.47,0.38,0.51,0.53,0.52,0.43,0.53,0.55,0.25,0.27,0.46,0.27,0.55,0.47,0.55,0.43,0.51,0.55,0.53,0.27,0.3,0.27,0.51,0.55,0.36,0.23,0.55,0.44,0.55,0.53,0.55,0.53,0.55,0.53,0.43,0.38,0.25,0.46,0.27,0.55,0.47,0.55,0.53,0.27,0.36,0.43,0.44,0.36,0.43,0.36,0.55,0.34" style="fill:rgb(0,0,0);font-family:MinionPro-Regular;font-size:10.0px;stroke:none;">tors such as grouped living conditions, and underlying diseases [</text>
   <text y="630.989" x="456.08,460.83" svgx:width="0.48,0.48" style="fill:rgb(59,90,166);font-family:MinionPro-Regular;font-size:10.0px;stroke:none;">54</text>
   <text y="630.989" x="465.58" svgx:width="0.23" style="fill:rgb(0,0,0);font-family:MinionPro-Regular;font-size:10.0px;stroke:none;">,</text>
   <text y="630.989" x="470.095,474.845" svgx:width="0.48,0.48" style="fill:rgb(59,90,166);font-family:MinionPro-Regular;font-size:10.0px;stroke:none;">55</text>
   <text y="630.989" x="479.595,482.985,485.285,487.443,492.713,495.373,499.913,504.213,506.378,511.438,514.338,516.526,519.506,524.776,529.0759999999999,531.209,534.809,537.789,543.059,548.329,550.989,555.219,558.8190000000001,561.086,566.146" svgx:width="0.34,0.23,0.55,0.53,0.27,0.46,0.43,0.55,0.51,0.29,0.55,0.3,0.53,0.43,0.55,0.36,0.3,0.53,0.53,0.27,0.43,0.36,0.55,0.51,0.55" style="fill:rgb(0,0,0);font-family:MinionPro-Regular;font-size:10.0px;stroke:none;">]. Five of the studies on</text>
   <text y="643.972" x="200.012,202.992,208.262,212.562,214.695,221.835,228.665,233.465,235.671,240.731,246.001,248.981,254.041,257.751,261.981,266.311,271.271,274.87100000000004,277.113,279.773,285.273,287.488,290.468,295.738,298.398,301.99800000000005,304.212,307.922,312.152,316.692,319.352,323.582,330.48199999999997,332.672,336.382,340.612,345.772,350.832,354.542,357.522,361.752,367.052,369.239,373.63899999999995,375.815,383.995,388.225,393.495,396.155,400.485,405.985,408.187,412.517,415.497,418.477,422.807,427.037,432.037,434.265,437.975,442.305,445.285,449.58500000000004,451.726,456.786,459.686,461.874,466.624,468.874,473.624,478.374,488.18,490.84,496.34,498.498,503.868,509.968,516.588,521.858,525.458,527.7579999999999,529.962,536.792,542.062,544.722,548.952,554.252,556.494,559.154" svgx:width="0.3,0.53,0.43,0.55,0.72,0.69,0.48,0.55,0.51,0.53,0.3,0.51,0.38,0.43,0.44,0.5,0.36,0.55,0.27,0.55,0.55,0.3,0.53,0.27,0.36,0.55,0.38,0.43,0.46,0.27,0.43,0.69,0.55,0.38,0.43,0.52,0.51,0.38,0.3,0.43,0.53,0.55,0.44,0.55,0.82,0.43,0.53,0.27,0.44,0.55,0.55,0.44,0.3,0.3,0.44,0.43,0.5,0.55,0.38,0.44,0.3,0.43,0.55,0.51,0.29,0.55,0.48,0.23,0.48,0.48,0.76,0.27,0.55,0.55,0.54,0.61,0.67,0.53,0.36,0.23,0.55,0.69,0.53,0.27,0.43,0.53,0.55,0.27,0.36" style="fill:rgb(0,0,0);font-family:MinionPro-Regular;font-size:10.0px;stroke:none;">the GAS outbreaks in this review reported a median attack rate of 2.43%in LTCFs, which is</text>
   <text y="657.011" x="200.012,206.842,209.502,212.482,217.752,220.412,225.912,228.074,231.054,236.324,240.62400000000002,242.701,246.411,250.741,256.221,260.861,265.161,267.249,272.309,275.209,277.283,282.033,287.193,291.943,296.693,306.423,310.133,314.363,319.523,324.583,328.293,331.273,335.503,340.803,342.99,345.65,351.15,353.251,356.231,361.501,365.801,367.878,373.038,376.748,380.978,385.518,388.178,393.238,398.508,402.108,404.331,407.931,410.911,416.181,421.451,426.05100000000004,428.142" svgx:width="0.69,0.27,0.3,0.53,0.27,0.55,0.55,0.3,0.53,0.43,0.55,0.38,0.44,0.55,0.47,0.43,0.55,0.51,0.29,0.55,0.48,0.52,0.48,0.48,0.76,0.38,0.43,0.52,0.51,0.38,0.3,0.43,0.53,0.55,0.27,0.55,0.55,0.3,0.53,0.43,0.55,0.52,0.38,0.43,0.46,0.27,0.51,0.53,0.36,0.55,0.36,0.3,0.53,0.53,0.46,0.55,0.34" style="fill:rgb(0,0,0);font-family:MinionPro-Regular;font-size:10.0px;stroke:none;">within the range of 1–30%reported in the previous study [</text>
   <text y="657.011" x="431.532,436.282" svgx:width="0.48,0.48" style="fill:rgb(59,90,166);font-family:MinionPro-Regular;font-size:10.0px;stroke:none;">56</text>
   <text y="657.011" x="441.032,444.422,446.72200000000004,448.835,454.935,460.205,463.915,468.145,472.445,474.517,479.577,482.477,484.608,487.588,492.858,497.088,507.455,514.285,518.515,522.225,526.525,528.602,531.062,536.122,541.602,546.242,549.742,552.202,556.532,560.132,563.112,565.772,571.252" svgx:width="0.34,0.23,0.55,0.61,0.53,0.38,0.43,0.43,0.55,0.51,0.29,0.55,0.3,0.53,0.43,0.82,0.69,0.43,0.38,0.43,0.55,0.25,0.51,0.55,0.47,0.35,0.25,0.44,0.36,0.3,0.27,0.55,0.47" style="fill:rgb(0,0,0);font-family:MinionPro-Regular;font-size:10.0px;stroke:none;">]. Three of themwere long-lasting</text>
   <text y="669.994" x="200.012,205.072,210.342,213.322,218.382,222.092,226.322,230.652,235.612,239.212,241.454,248.284,250.944,253.924,259.224,261.41,269.59,274.86,277.32,280.3,282.96,288.12,290.58,294.88,297.069,301.299,303.759,309.029,312.629,315.609,319.839,323.549,327.149,329.441,332.311,337.371,341.171,343.274,351.454,356.514,360.224,364.524,366.688,369.668,374.938,379.268,384.768,386.984,391.784,393.957,402.137,407.197,412.677,415.657,420.927,424.527,426.827,428.993,435.823,441.093,443.753,447.983,453.283,455.525,459.125,464.395,469.035,473.675,477.905,481.505,484.485,488.715,494.015,496.23,499.21,504.48,508.81,511.81,514.032,518.362,523.862,526.05,530.38,534.61,538.84,544.11,547.82,552.15,555.13" svgx:width="0.51,0.53,0.3,0.51,0.38,0.43,0.44,0.5,0.36,0.55,0.69,0.27,0.3,0.53,0.55,0.82,0.53,0.25,0.3,0.27,0.52,0.25,0.43,0.55,0.43,0.25,0.53,0.36,0.3,0.43,0.38,0.36,0.55,0.29,0.51,0.38,0.55,0.82,0.51,0.38,0.43,0.55,0.3,0.53,0.44,0.55,0.55,0.48,0.55,0.82,0.51,0.55,0.3,0.53,0.36,0.23,0.55,0.69,0.53,0.27,0.43,0.53,0.55,0.36,0.53,0.47,0.47,0.43,0.36,0.3,0.43,0.53,0.55,0.3,0.53,0.44,0.3,0.55,0.44,0.55,0.55,0.44,0.43,0.43,0.53,0.38,0.44,0.3,0.43" style="fill:rgb(0,0,0);font-family:MinionPro-Regular;font-size:10.0px;stroke:none;">outbreaks with multiple clusters for more than 6 months, which suggested that an accurate</text>
   <text y="682.976" x="200.012,202.672,207.942,212.172,217.652,220.632,223.292,226.162,228.822,233.052,237.382,240.362,243.022,248.082,253.582,255.854,260.914,263.81399999999996,266.002,271.272,276.332,283.23199999999997,285.39,290.55,294.88,297.86,303.13,308.19,312.83,317.06,322.54,326.14000000000004,328.42,332.02,337.18,340.89,345.12,349.45,354.75,356.993,363.823,368.153,371.75300000000004,373.944,378.344,380.521,383.391,388.661,394.141,399.411,403.741,411.921,416.151,421.631,424.611,428.941,431.441,433.642,437.242,440.222,444.452,449.652,451.84,454.5,460.0,462.215,467.275,472.545,475.525,480.585,484.295,488.525,492.855,497.855,500.085,504.315,509.375,514.855,517.835,521.545,526.605,529.065" svgx:width="0.27,0.53,0.43,0.55,0.3,0.27,0.29,0.27,0.43,0.44,0.3,0.27,0.51,0.55,0.55,0.51,0.29,0.55,0.53,0.51,0.69,0.55,0.52,0.44,0.3,0.53,0.51,0.47,0.43,0.55,0.36,0.55,0.36,0.52,0.38,0.43,0.44,0.53,0.55,0.69,0.44,0.36,0.55,0.44,0.55,0.29,0.53,0.55,0.53,0.44,0.82,0.43,0.55,0.3,0.44,0.25,0.55,0.36,0.3,0.43,0.52,0.55,0.27,0.55,0.55,0.51,0.53,0.3,0.51,0.38,0.43,0.44,0.5,0.55,0.43,0.51,0.55,0.3,0.38,0.51,0.25,0.23" style="fill:rgb(0,0,0);font-family:MinionPro-Regular;font-size:10.0px;stroke:none;">identification of how pathogens spread was a fundamental step in outbreak control.</text>
   <text y="696.015" x="211.974,218.074,223.344,226.004,229.60399999999998,231.873,235.583,239.813,244.353,247.013,251.243,258.143,260.332,264.662,267.122,270.722,275.822,277.964,282.194,286.834,291.994,294.454,299.514,303.224,307.454,312.754,314.984,319.214,322.924,325.584,328.564,331.224,335.454,339.784,342.284,344.521,347.181,350.781,354.381,359.651,363.881,367.481,369.749,374.809,380.309,382.505,387.665,391.375,395.705,399.935,402.915,405.575,409.805,414.035,417.63500000000005,419.865,422.845,428.115,432.445,435.445,437.667,442.827,446.537,451.597,456.757,461.087,465.727,470.057,473.037,477.267,482.567,484.835,487.815,493.085,497.385,499.518,504.578,508.808,513.038,518.308,522.018,525.728,529.958,535.438,539.668,543.968,546.176,550.506,555.986" svgx:width="0.61,0.53,0.27,0.36,0.55,0.38,0.43,0.46,0.27,0.43,0.69,0.55,0.44,0.25,0.36,0.51,0.55,0.43,0.47,0.52,0.25,0.51,0.38,0.43,0.53,0.55,0.43,0.38,0.27,0.3,0.27,0.43,0.44,0.25,0.55,0.27,0.36,0.36,0.53,0.43,0.36,0.55,0.51,0.55,0.55,0.52,0.38,0.44,0.43,0.3,0.27,0.43,0.43,0.36,0.55,0.3,0.53,0.44,0.3,0.55,0.52,0.38,0.51,0.52,0.44,0.47,0.44,0.3,0.43,0.53,0.55,0.3,0.53,0.43,0.55,0.51,0.43,0.43,0.53,0.38,0.38,0.43,0.55,0.43,0.43,0.55,0.44,0.55,0.53" style="fill:rgb(0,0,0);font-family:MinionPro-Regular;font-size:10.0px;stroke:none;">This review also explored critical issues on practices that propagated the occurrence and</text>
   <text y="708.998" x="200.012,203.612,208.772,212.482,216.712,221.042,226.342,228.528,233.588,236.488,238.676,243.736,249.006,251.986,257.046,260.756,264.986,269.316,274.276,277.876,280.176,282.386,289.006,294.066,299.546,303.146,307.376,312.436,317.706,321.936,327.416,330.396,332.856,337.396,339.696,341.97,344.84,349.17,351.83,354.29,359.56,363.27,367.57,369.749,372.729,377.829,380.01,384.34,389.61,394.88,399.11,402.82,407.12,409.264,412.244,417.34400000000005,419.525,424.585,428.915,432.515,435.175,439.475,441.635,444.295,449.775,452.645,456.875,461.105,464.085,466.745,471.805,477.305,479.562,483.792,488.852,494.332,497.312,501.022,506.082,508.582,510.8,515.96,519.67,524.0,528.23,531.21,533.87,538.1,542.33" svgx:width="0.36,0.52,0.38,0.43,0.44,0.53,0.55,0.51,0.29,0.55,0.51,0.53,0.3,0.51,0.38,0.43,0.44,0.5,0.36,0.23,0.55,0.67,0.51,0.55,0.36,0.43,0.51,0.53,0.43,0.55,0.3,0.25,0.46,0.23,0.55,0.29,0.44,0.27,0.25,0.53,0.38,0.43,0.55,0.3,0.51,0.55,0.44,0.53,0.53,0.43,0.38,0.43,0.55,0.3,0.51,0.55,0.51,0.44,0.36,0.27,0.43,0.55,0.27,0.55,0.29,0.43,0.43,0.3,0.27,0.51,0.55,0.55,0.43,0.51,0.55,0.3,0.38,0.51,0.25,0.55,0.52,0.38,0.44,0.43,0.3,0.27,0.43,0.43,0.23" style="fill:rgb(0,0,0);font-family:MinionPro-Regular;font-size:10.0px;stroke:none;">spread of outbreaks. Consequently, failure to adhere to basic infection control practice,</text>
  </g>
  <path style="fill:rgb(0,0,0);stroke:none;stroke-width:1.0;" d="M576.000 54.900 L36.000 54.900 L36.000 54.400 L576.000 54.400 "/>
  <g begin="text">
   <text y="46.241" x="34.979,42.052,48.146,57.167,63.931,66.956,76.031,84.447" svgx:width="0.67,0.62,0.85,0.64,0.3,0.85,0.79,0.67" style="fill:rgb(10,8,6);font-family:Gotham-Medium;font-size:11.0px;stroke:none;">PLOS ONE</text>
  </g>
  <g begin="text">
   <text y="46.205" x="435.231,441.439,445.815,448.023,452.399,455.023,459.399,463.775,467.735,471.735,473.328,475.032,479.43199999999996,481.152,482.856,487.232,491.608,495.984,498.608,500.816,505.192,507.816,516.131,520.091,524.467,527.091,531.491,533.195,535.403,539.779,543.739,545.443,547.147,548.851,551.059,552.763,557.139,561.099,563.339,565.0,570.288" svgx:width="0.78,0.55,0.28,0.55,0.33,0.55,0.55,0.5,0.5,0.55,0.22,0.55,0.55,0.22,0.55,0.55,0.55,0.33,0.28,0.55,0.33,0.83,0.5,0.55,0.33,0.55,0.55,0.28,0.55,0.5,0.22,0.22,0.22,0.28,0.22,0.55,0.5,0.28,0.55,0.67,0.72" style="fill:rgb(0,0,0);font-family:Helvetica;font-size:8.0px;stroke:none;">Outbreaks in long-termcare facilities: SR</text>
  </g>
  <path style="fill:rgb(0,0,0);stroke:none;stroke-width:1.0;" d="M91.540 36.890 L34.980 36.890 L34.980 49.270 L91.540 49.270 ZM36.000 744.000 L576.000 744.000 L576.000 744.500 L36.000 744.500 "/>
  <path style="fill:rgb(59,90,166);stroke:none;stroke-width:1.0;" d="M81.580 757.080 L237.880 757.080 Z"/>
  <g begin="text">
   <text y="756.0" x="36.0,41.288,45.664,51.872,57.232,58.847,65.055,70.759,76.119,77.782" svgx:width="0.67,0.55,0.78,0.67,0.55,0.78,0.72,0.67,0.55,0.26" style="fill:rgb(0,0,0);font-family:Helvetica;font-size:8.0px;stroke:none;">PLOS ONE |</text>
   <text y="756.0" x="81.58,85.956,88.164,90.372,94.748,98.708,100.916,103.124,105.332,109.708,114.084,115.788,117.996,122.372,124.893,129.269,131.477,135.853,140.229,142.437,146.813,151.189,155.451,159.827,162.035,163.739,168.115,172.491,175.115,179.491,183.867,185.571,187.779,192.155,196.44,200.816,205.191,207.399,211.775,216.151,220.527,224.903,229.151,233.527" svgx:width="0.55,0.28,0.28,0.55,0.5,0.28,0.28,0.28,0.55,0.55,0.22,0.28,0.55,0.33,0.55,0.28,0.55,0.55,0.28,0.55,0.55,0.55,0.55,0.28,0.22,0.55,0.55,0.33,0.55,0.55,0.22,0.28,0.55,0.55,0.55,0.55,0.28,0.55,0.55,0.55,0.55,0.55,0.55,0.55" style="fill:rgb(59,90,166);font-family:Helvetica;font-size:8.0px;stroke:none;">https://doi.org/10.1371/journal.pone.0229911</text>
   <text y="756.0" x="245.876,252.5,256.876,259.5,263.46,267.85999999999996,269.573,273.949,278.325,280.565,282.272,286.648,291.024,295.4,299.79999999999995,552.81,557.185,561.5849999999999,563.241,565.481,567.209,571.585" svgx:width="0.83,0.55,0.33,0.5,0.55,0.55,0.55,0.55,0.28,0.55,0.55,0.55,0.55,0.55,0.55,0.55,0.55,0.55,0.28,0.55,0.55,0.55" style="fill:rgb(0,0,0);font-family:Helvetica;font-size:8.0px;stroke:none;">March 10, 2020 26 / 34</text>
  </g>
 </g>
</svg>
