<?xml version="1.0" encoding="UTF-8"?>
<svg height="734.56" width="548.69" xmlns="http://www.w3.org/2000/svg">
 <g>
  <path style="fill:none;stroke:rgb(0,0,0);stroke-width:1.0;" d="M56.690 51.460 L538.690 51.460 "/>
  <path style="fill:rgb(0,102,177);stroke:none;stroke-width:0.99;" d="M69.520 724.560 M69.520 682.120 M69.520 621.710 M69.520 579.000 M69.520 541.500 M69.520 503.650 M69.520 443.240 M69.520 401.970 M69.520 341.560 M69.520 293.240 M69.520 251.480 M69.520 210.220 M69.520 168.880 "/>
  <path style="fill:rgb(208,217,240);stroke:none;stroke-width:0.99;" d="M163.160 724.560 M163.160 682.120 M163.160 621.710 M163.160 579.000 M163.160 541.500 M163.160 503.650 M163.160 443.240 M163.160 401.970 M163.160 341.560 M163.160 293.240 M163.160 251.480 M163.160 210.220 M163.160 168.880 "/>
  <path style="fill:none;stroke:rgb(0,0,0);stroke-width:0.99;" d="M69.520 724.560 L69.520 682.120 "/>
  <path style="fill:none;stroke:rgb(0,0,0);stroke-width:0.25;" d="M130.240 724.560 L130.240 682.120 "/>
  <path style="fill:none;stroke:rgb(0,0,0);stroke-width:0.25;" d="M69.520 682.120 L69.520 621.710 "/>
  <path style="fill:none;stroke:rgb(0,0,0);stroke-width:0.25;" d="M130.240 682.120 L130.240 621.710 "/>
  <path style="fill:none;stroke:rgb(0,0,0);stroke-width:0.25;" d="M69.520 621.710 L69.520 579.000 "/>
  <path style="fill:none;stroke:rgb(0,0,0);stroke-width:0.25;" d="M130.240 621.710 L130.240 579.000 "/>
  <path style="fill:none;stroke:rgb(0,0,0);stroke-width:0.25;" d="M69.520 579.000 L69.520 541.500 "/>
  <path style="fill:none;stroke:rgb(0,0,0);stroke-width:0.25;" d="M130.240 579.000 L130.240 541.500 "/>
  <path style="fill:none;stroke:rgb(0,0,0);stroke-width:0.25;" d="M69.520 541.500 L69.520 503.640 "/>
  <path style="fill:none;stroke:rgb(0,0,0);stroke-width:0.25;" d="M130.240 541.500 L130.240 503.640 "/>
  <path style="fill:none;stroke:rgb(0,0,0);stroke-width:0.25;" d="M69.520 503.650 L69.520 443.240 "/>
  <path style="fill:none;stroke:rgb(0,0,0);stroke-width:0.25;" d="M130.240 503.650 L130.240 443.240 "/>
  <path style="fill:none;stroke:rgb(0,0,0);stroke-width:0.25;" d="M69.520 443.240 L69.520 401.970 "/>
  <path style="fill:none;stroke:rgb(0,0,0);stroke-width:0.25;" d="M130.240 443.240 L130.240 401.970 "/>
  <path style="fill:none;stroke:rgb(0,0,0);stroke-width:0.25;" d="M69.520 401.970 L69.520 341.560 "/>
  <path style="fill:none;stroke:rgb(0,0,0);stroke-width:0.25;" d="M130.240 401.970 L130.240 341.560 "/>
  <path style="fill:none;stroke:rgb(0,0,0);stroke-width:0.25;" d="M69.520 341.560 L69.520 293.240 "/>
  <path style="fill:none;stroke:rgb(0,0,0);stroke-width:0.25;" d="M130.240 341.560 L130.240 293.240 "/>
  <path style="fill:none;stroke:rgb(0,0,0);stroke-width:0.25;" d="M69.520 293.240 L69.520 251.480 "/>
  <path style="fill:none;stroke:rgb(0,0,0);stroke-width:0.25;" d="M130.240 293.240 L130.240 251.480 "/>
  <path style="fill:none;stroke:rgb(0,0,0);stroke-width:0.25;" d="M69.520 251.480 L69.520 210.220 "/>
  <path style="fill:none;stroke:rgb(0,0,0);stroke-width:0.25;" d="M130.240 251.480 L130.240 210.220 "/>
  <path style="fill:none;stroke:rgb(0,0,0);stroke-width:0.25;" d="M69.520 210.220 L69.520 168.880 "/>
  <path style="fill:none;stroke:rgb(0,0,0);stroke-width:0.25;" d="M130.240 210.220 L130.240 168.880 "/>
  <path style="fill:none;stroke:rgb(0,0,0);stroke-width:0.25;" d="M69.520 168.880 L69.520 127.250 "/>
  <path style="fill:none;stroke:rgb(0,0,0);stroke-width:0.25;" d="M130.240 168.880 L130.240 127.250 "/>
  <path style="fill:none;stroke:rgb(0,0,0);stroke-width:0.25;" d="M69.520 127.250 L69.520 88.580 "/>
  <path style="fill:none;stroke:rgb(0,0,0);stroke-width:0.25;" d="M130.240 127.250 L130.240 88.580 "/>
  <path style="fill:none;stroke:rgb(0,0,0);stroke-width:0.25;" d="M206.830 724.560 L206.830 682.120 "/>
  <path style="fill:none;stroke:rgb(0,0,0);stroke-width:0.25;" d="M206.830 682.120 L206.830 621.710 "/>
  <path style="fill:none;stroke:rgb(0,0,0);stroke-width:0.25;" d="M206.830 621.710 L206.830 579.000 "/>
  <path style="fill:none;stroke:rgb(0,0,0);stroke-width:0.25;" d="M206.830 579.000 L206.830 541.500 "/>
  <path style="fill:none;stroke:rgb(0,0,0);stroke-width:0.25;" d="M206.830 541.500 L206.830 503.640 "/>
  <path style="fill:none;stroke:rgb(0,0,0);stroke-width:0.25;" d="M206.830 503.650 L206.830 443.240 "/>
  <path style="fill:none;stroke:rgb(0,0,0);stroke-width:0.25;" d="M206.830 443.240 L206.830 401.970 "/>
  <path style="fill:none;stroke:rgb(0,0,0);stroke-width:0.25;" d="M206.830 401.970 L206.830 341.560 "/>
  <path style="fill:none;stroke:rgb(0,0,0);stroke-width:0.25;" d="M206.830 341.560 L206.830 293.240 "/>
  <path style="fill:none;stroke:rgb(0,0,0);stroke-width:0.25;" d="M206.830 293.240 L206.830 251.480 "/>
  <path style="fill:none;stroke:rgb(0,0,0);stroke-width:0.25;" d="M206.830 251.480 L206.830 210.220 "/>
  <path style="fill:none;stroke:rgb(0,0,0);stroke-width:0.25;" d="M206.830 210.220 L206.830 168.880 "/>
  <path style="fill:none;stroke:rgb(0,0,0);stroke-width:0.25;" d="M206.830 168.880 L206.830 127.250 "/>
  <path style="fill:none;stroke:rgb(0,0,0);stroke-width:0.25;" d="M206.830 127.250 L206.830 88.580 "/>
 </g>
</svg>
