<?xml version="1.0" encoding="UTF-8"?>
<svg height="736.372" width="528.739" xmlns="http://www.w3.org/2000/svg">
 <g id="page" xmlns:svgx="http://www.xml-cml.org/schema/svgx">
  <g begin="text">
   <text y="62.979" x="76.535,79.189,83.62,86.274,88.26650000000001,91.057,93.711,95.7035,97.696,102.565,106.997,110.982,113.197,116.154,119.693,124.124,126.1165,128.907,134.223,137.323,140.423,142.4155,145.205,150.075,154.507,158.197,160.412,162.628,165.89569999999998,167.864,174.065,177.165,180.704,182.92,185.574" svgx:width="0.33,0.56,0.33,0.25,0.55,0.33,0.25,0.55,0.61,0.56,0.5,0.28,0.39,0.44,0.56,0.25,0.55,0.67,0.39,0.39,0.25,0.55,0.61,0.56,0.46,0.28,0.28,0.41,0.55,0.78,0.39,0.44,0.28,0.33,0.5" style="fill:rgb(0,0,0);font-family:URWPalladioL-Ital;font-size:7.97px;stroke:none;">Int. J. Environ. Res. Public Health</text>
   <text y="62.979" x="191.551,195.536,199.521,203.506" svgx:width="0.5,0.5,0.5,0.5" style="fill:rgb(0,0,0);font-family:URWPalladioL-Bold;font-size:7.97px;stroke:none;">2019</text>
   <text y="62.979" x="207.491" svgx:width="0.25" style="fill:rgb(0,0,0);font-family:URWPalladioL-Roma;font-size:7.97px;stroke:none;">,</text>
   <text y="62.979" x="211.476,215.461" svgx:width="0.5,0.5" style="fill:rgb(0,0,0);font-family:URWPalladioL-Ital;font-size:7.97px;stroke:none;">16</text>
   <text y="62.979" x="219.446,221.4385,223.431,227.416,231.401,235.386,239.371,495.793,499.778,501.771,506.123,508.7531,510.769,514.754" svgx:width="0.25,0.55,0.5,0.5,0.5,0.5,0.55,0.5,0.55,0.55,0.33,0.55,0.5,0.5" style="fill:rgb(0,0,0);font-family:URWPalladioL-Roma;font-size:7.97px;stroke:none;">, 4816 8 of 14</text>
   <text y="96.861" x="97.499,102.484,106.968,112.446,115.432,119.917,124.084,128.568" svgx:width="0.67,0.5,0.61,0.33,0.5,0.55,0.5,0.25" style="fill:rgb(0,0,0);font-family:URWPalladioL-Bold;font-size:8.97px;stroke:none;">Table 5.</text>
   <text y="96.861" x="139.719,142.801,148.124,152.185,154.846,160.434,164.815,170.138,174.198,178.5036,182.74,186.353,190.926,193.907,198.2126,202.459,207.032,212.354,217.8257,222.113,227.436,232.009,236.581,241.154,244.602,250.0737,254.352,257.964,262.537,265.518,268.18,273.1135,277.344,282.337,285.2971,289.544,295.041,300.034,302.696,307.781,311.842,316.927,320.804,323.786,326.447,330.3938,334.678,339.672,344.839,349.412,353.025,355.686,360.067,363.8344,368.106,373.164,377.544,380.526,388.153,392.534,396.915,402.11760000000004,406.408,411.576,416.148,419.761,422.422,427.416,432.931,436.6984,440.97,446.558,451.131,453.792,456.454,461.4772,465.709,470.282,475.449,479.83,483.443,488.016,493.101" svgx:width="0.34,0.58,0.44,0.29,0.61,0.48,0.58,0.44,0.48,0.55,0.4,0.5,0.33,0.48,0.55,0.5,0.58,0.61,0.55,0.58,0.5,0.5,0.5,0.4,0.61,0.55,0.4,0.5,0.33,0.29,0.55,0.55,0.55,0.33,0.55,0.6,0.55,0.29,0.56,0.44,0.56,0.42,0.33,0.29,0.44,0.55,0.55,0.56,0.5,0.4,0.29,0.48,0.42,0.55,0.55,0.48,0.33,0.83,0.48,0.48,0.58,0.55,0.56,0.5,0.4,0.29,0.55,0.6,0.42,0.55,0.61,0.5,0.29,0.29,0.56,0.55,0.5,0.56,0.48,0.4,0.5,0.56,0.48" style="fill:rgb(0,0,0);font-family:URWPalladioL-Roma;font-size:8.97px;stroke:none;">Incidence rate and hazard ratio of polycystic ovaries between various daily average</text>
   <text y="109.683" x="97.795,101.776,106.672,111.89,115.871,120.166,125.385,128.308,131.849,136.333,139.256,141.865,146.761,151.979,155.74640000000002,158.022,162.918,165.87810000000002,168.145,175.596,182.644,187.3084,189.512,193.314,196.237,199.779,204.262,207.185,209.794,215.219,219.514,224.9857,227.234,232.192,237.2152,239.419,244.405,248.7,253.918,259.396,263.691,266.57,268.8125,271.053,275.536,280.521,284.82660000000004,287.058,291.541,296.759,302.2307,304.479,308.461,313.356,321.274,326.169,329.711,334.669,337.279,342.757,345.366,348.289,350.899,355.193,358.995" svgx:width="0.44,0.55,0.58,0.44,0.48,0.58,0.33,0.4,0.5,0.33,0.29,0.55,0.58,0.42,0.55,0.55,0.33,0.55,0.83,0.79,0.52,0.55,0.42,0.33,0.4,0.5,0.33,0.29,0.61,0.48,0.61,0.55,0.55,0.56,0.55,0.56,0.48,0.58,0.61,0.48,0.4,0.25,0.55,0.5,0.56,0.48,0.55,0.5,0.58,0.61,0.55,0.44,0.55,0.88,0.55,0.4,0.55,0.29,0.61,0.29,0.33,0.29,0.48,0.42,0.25" style="fill:rgb(0,0,0);font-family:URWPalladioL-Roma;font-size:8.97px;stroke:none;">concentrations of NOx stratiﬁed by gender, age and comorbidities.</text>
  </g>
  <path style="fill:none;stroke:rgb(0,0,0);stroke-width:1.0;" d="M83.030 119.880 L512.240 119.880 "/>
  <g begin="text">
   <text y="130.088" x="330.076,337.097,344.118" svgx:width="0.83,0.83,0.5" style="fill:rgb(0,0,0);font-family:URWPalladioL-Bold;font-size:8.43px;stroke:none;">NOx</text>
  </g>
  <path style="fill:none;stroke:rgb(0,0,0);stroke-width:0.75;" d="M83.030 135.150 L512.240 135.150 "/>
  <g begin="text">
   <text y="145.126" x="296.254,302.811,307.961,310.768,315.918,319.66,322.467,326.681,331.82329999999996,333.938,340.958,347.0276,349.151,351.958,356.172,360.386,369.986,376.071,379.35" svgx:width="0.78,0.61,0.33,0.61,0.44,0.33,0.5,0.61,0.55,0.83,0.72,0.55,0.33,0.5,0.5,0.89,0.72,0.39,0.33" style="fill:rgb(0,0,0);font-family:URWPalladioL-Bold;font-size:8.43px;stroke:none;">Adjusted HR (95%CI)</text>
  </g>
  <path style="fill:none;stroke:rgb(0,0,0);stroke-width:0.28;" d="M83.030 150.190 L512.240 150.190 "/>
  <g begin="text">
   <text y="160.165" x="171.809,178.83,183.98,188.194,191.473,194.28,197.086,199.893,204.107,208.322,210.428,213.235,218.385,223.071,230.092,234.306,238.048,240.855,243.6369,271.56,278.581,283.73,287.945,291.223,294.03,296.837,299.643,303.85799999999995,305.965,310.17999999999995,354.698,361.719,366.868,371.082,374.361,377.168,379.974,382.781,386.996,389.102,393.31699999999995,425.522,432.542,437.692,441.906,445.185,447.992,450.798,453.605,457.82,459.926,464.14099999999996,466.248,469.054,476.075,478.882,483.568,488.718,492.932,496.674,499.481" svgx:width="0.83,0.61,0.5,0.39,0.33,0.33,0.33,0.5,0.5,0.55,0.33,0.61,0.56,0.83,0.5,0.44,0.33,0.33,0.55,0.83,0.61,0.5,0.39,0.33,0.33,0.33,0.5,0.55,0.5,0.55,0.83,0.61,0.5,0.39,0.33,0.33,0.33,0.5,0.55,0.5,0.55,0.83,0.61,0.5,0.39,0.33,0.33,0.33,0.5,0.55,0.5,0.55,0.33,0.83,0.33,0.56,0.61,0.5,0.44,0.33,0.33" style="fill:rgb(0,0,0);font-family:URWPalladioL-Bold;font-size:8.43px;stroke:none;">Quartile1 (Lowest) Quartile 2 Quartile 3 Quartile 4 (Highest)</text>
  </g>
  <path style="fill:none;stroke:rgb(0,0,0);stroke-width:0.28;" d="M83.030 165.230 L512.240 165.230 "/>
  <g begin="text">
   <text y="175.203" x="104.853,111.411,116.097,120.134,122.2415,124.348,129.194,133.232,137.446,140.775" svgx:width="0.78,0.56,0.48,0.25,0.55,0.67,0.48,0.5,0.4,0.42" style="fill:rgb(0,0,0);font-family:URWPalladioL-Roma;font-size:8.43px;stroke:none;">Age, Years</text>
  </g>
  <path style="fill:none;stroke:rgb(0,0,0);stroke-width:0.28;" d="M83.030 180.270 L512.240 180.270 "/>
  <g begin="text">
   <text y="190.242" x="117.567" svgx:width="0.67" style="fill:rgb(0,0,0);font-family:Rpxr;font-size:8.43px;stroke:none;">&lt;</text>
   <text y="190.242" x="123.206,127.42,131.635,184.792,189.007,191.114,193.92,197.098,201.135,203.942,207.979,211.156,215.194,220.099,223.841,227.878,230.6599,256.805,261.019,263.126,267.34,271.55499999999995,273.661,276.468,280.682,282.789,287.004,291.218,295.432,299.646,301.753,305.968,310.182,312.9639,315.096,318.374,321.653,324.9407,339.943,344.157,346.264,350.478,354.693,356.799,359.606,363.82,365.927,370.142,374.356,378.57,382.784,384.891,389.106,393.32,396.1019,398.234,401.512,404.791,408.07869999999997,429.84,434.054,436.161,440.376,444.59099999999995,446.697,449.504,453.718,455.825,460.039,464.253,468.468,472.682,474.789,479.003,483.217,485.9989,488.131,491.41,494.688" svgx:width="0.5,0.5,0.55,0.5,0.55,0.33,0.4,0.48,0.33,0.48,0.4,0.48,0.58,0.44,0.48,0.33,0.55,0.5,0.25,0.5,0.5,0.55,0.33,0.5,0.25,0.5,0.5,0.5,0.5,0.25,0.5,0.5,0.33,0.55,0.39,0.39,0.39,0.55,0.5,0.25,0.5,0.5,0.55,0.33,0.5,0.25,0.5,0.5,0.5,0.5,0.25,0.5,0.5,0.33,0.55,0.39,0.39,0.39,0.55,0.5,0.25,0.5,0.5,0.55,0.33,0.5,0.25,0.5,0.5,0.5,0.5,0.25,0.5,0.5,0.33,0.55,0.39,0.39,0.39" style="fill:rgb(0,0,0);font-family:URWPalladioL-Roma;font-size:8.43px;stroke:none;">20 1 (reference) 1.79 (1.26–2.53) *** 1.89 (1.33–2.70) *** 3.68 (2.67–5.07) ***</text>
   <text y="200.768" x="114.065,118.279,122.494,126.708,130.922,135.137,184.788,189.00300000000001,191.109,193.916,197.094,201.131,203.937,207.975,211.152,215.189,220.095,223.837,227.874,230.6559,256.809,261.023,263.13,267.344,271.55899999999997,273.666,276.472,280.687,282.794,287.008,291.222,295.436,299.651,301.758,305.972,310.186,312.9679,315.1,318.379,321.657,324.94469999999995,339.938,344.153,346.26,350.474,354.68899999999996,356.795,359.602,363.816,365.923,370.137,374.352,378.566,382.78,384.887,389.101,393.316,396.0979,398.229,401.508,404.787,408.07469999999995,429.844,434.059,436.166,440.38,444.59499999999997,446.701,449.508,453.722,455.829,460.043,464.258,468.472,472.686,474.793,479.007,483.222,486.0039,488.135,491.414,494.693" svgx:width="0.5,0.5,0.5,0.5,0.5,0.55,0.5,0.55,0.33,0.4,0.48,0.33,0.48,0.4,0.48,0.58,0.44,0.48,0.33,0.55,0.5,0.25,0.5,0.5,0.55,0.33,0.5,0.25,0.5,0.5,0.5,0.5,0.25,0.5,0.5,0.33,0.55,0.39,0.39,0.39,0.55,0.5,0.25,0.5,0.5,0.55,0.33,0.5,0.25,0.5,0.5,0.5,0.5,0.25,0.5,0.5,0.33,0.55,0.39,0.39,0.39,0.55,0.5,0.25,0.5,0.5,0.55,0.33,0.5,0.25,0.5,0.5,0.5,0.5,0.25,0.5,0.5,0.33,0.55,0.39,0.39,0.39" style="fill:rgb(0,0,0);font-family:URWPalladioL-Roma;font-size:8.43px;stroke:none;">20–64 1 (reference) 1.61 (1.30–2.00) *** 1.56 (1.25–1.95) *** 3.32 (2.73–4.04) ***</text>
   <text y="211.293" x="117.567" svgx:width="0.67" style="fill:rgb(0,0,0);font-family:Pxsy;font-size:8.43px;stroke:none;">≥</text>
   <text y="211.293" x="123.206,127.42,131.635,184.792,189.007,191.114,193.92,197.098,201.135,203.942,207.979,211.156,215.194,220.099,223.841,227.878,230.6599,262.78,266.995,269.102,273.316,277.53099999999995,279.637,282.444,286.658,288.765,292.979,297.194,301.408,305.622,307.729,311.943,316.158,318.9399,345.91,350.124,352.231,356.445,360.65999999999997,362.767,365.573,369.788,371.895,376.109,380.323,384.537,388.752,390.859,395.073,399.287,402.0689,431.484,435.698,437.805,442.019,446.234,448.341,451.147,455.361,457.469,461.683,465.897,470.111,474.325,476.432,480.647,484.861,487.6429,489.775,493.053" svgx:width="0.5,0.5,0.55,0.5,0.55,0.33,0.4,0.48,0.33,0.48,0.4,0.48,0.58,0.44,0.48,0.33,0.55,0.5,0.25,0.5,0.5,0.55,0.33,0.5,0.25,0.5,0.5,0.5,0.5,0.25,0.5,0.5,0.33,0.55,0.5,0.25,0.5,0.5,0.55,0.33,0.5,0.25,0.5,0.5,0.5,0.5,0.25,0.5,0.5,0.33,0.55,0.5,0.25,0.5,0.5,0.55,0.33,0.5,0.25,0.5,0.5,0.5,0.5,0.25,0.5,0.5,0.33,0.55,0.39,0.39" style="fill:rgb(0,0,0);font-family:URWPalladioL-Roma;font-size:8.43px;stroke:none;">65 1 (reference) 1.57 (0.77–3.19) 1.77 (0.87–3.61) 2.86 (1.49–5.50) **</text>
  </g>
  <path style="fill:none;stroke:rgb(0,0,0);stroke-width:0.28;" d="M83.030 216.360 L512.240 216.360 "/>
  <g begin="text">
   <text y="226.332" x="88.7,95.258,98.587,103.248,107.462,112.367,114.82,119.034,123.248,125.996,128.449,133.051,137.94039999999998,140.063,145.213,149.25,154.012,158.049,160.49370000000002,184.793,189.008,191.114,193.921,197.098,201.135,203.942,207.979,211.157,215.194,220.099,223.841,227.879" svgx:width="0.78,0.4,0.55,0.5,0.58,0.29,0.5,0.5,0.33,0.29,0.55,0.58,0.55,0.61,0.48,0.56,0.48,0.29,0.55,0.5,0.55,0.33,0.4,0.48,0.33,0.48,0.4,0.48,0.58,0.44,0.48,0.33" style="fill:rgb(0,0,0);font-family:URWPalladioL-Roma;font-size:8.43px;stroke:none;">Urbanization Level 1 (reference)</text>
  </g>
  <path style="fill:none;stroke:rgb(0,0,0);stroke-width:0.28;" d="M83.030 231.400 L512.240 231.400 "/>
  <g begin="text">
   <text y="241.37" x="104.979,109.194,111.3,114.107,119.012,121.465,126.151,131.057,135.094,138.668,141.415,144.1969,184.788,189.00300000000001,191.109,193.916,197.093,201.131,203.937,207.974,211.152,215.189,220.095,223.837,227.874,230.6559,262.776,266.99,269.097,273.312,277.527,279.633,282.44,286.654,288.761,292.975,297.189,301.404,305.618,307.725,311.939,316.153,318.9349,345.914,350.128,352.235,356.449,360.664,362.771,365.578,369.792,371.899,376.113,380.327,384.541,388.756,390.863,395.077,399.291,402.0729,431.479,435.694,437.801,442.015,446.22999999999996,448.336,451.143,455.357,457.464,461.678,465.893,470.107,474.321,476.428,480.642,484.857,487.63890000000004,489.77,493.049" svgx:width="0.5,0.55,0.33,0.58,0.29,0.56,0.58,0.48,0.42,0.33,0.33,0.55,0.5,0.55,0.33,0.4,0.48,0.33,0.48,0.4,0.48,0.58,0.44,0.48,0.33,0.55,0.5,0.25,0.5,0.5,0.55,0.33,0.5,0.25,0.5,0.5,0.5,0.5,0.25,0.5,0.5,0.33,0.55,0.5,0.25,0.5,0.5,0.55,0.33,0.5,0.25,0.5,0.5,0.5,0.5,0.25,0.5,0.5,0.33,0.55,0.5,0.25,0.5,0.5,0.55,0.33,0.5,0.25,0.5,0.5,0.5,0.5,0.25,0.5,0.5,0.33,0.55,0.39,0.39" style="fill:rgb(0,0,0);font-family:URWPalladioL-Roma;font-size:8.43px;stroke:none;">1 (highest) 1 (reference) 0.74 (0.52–1.05) 0.76 (0.56–1.05) 1.60 (1.20–2.13) **</text>
   <text y="251.895" x="122.493,126.708,184.788,189.00300000000001,191.109,193.916,197.093,201.13,203.937,207.974,211.152,215.189,220.094,223.837,227.874,230.6559,256.808,261.023,263.13,267.344,271.55899999999997,273.665,276.472,280.686,282.793,287.008,291.222,295.436,299.65,301.757,305.971,310.186,312.9679,315.099,318.378,321.657,324.94469999999995,339.938,344.152,346.259,350.474,354.68899999999996,356.795,359.602,363.816,365.923,370.137,374.351,378.565,382.78,384.887,389.101,393.315,396.0969,398.229,401.508,404.786,408.0737,429.844,434.058,436.165,440.38,444.59499999999997,446.701,449.508,453.722,455.829,460.043,464.257,468.471,472.686,474.793,479.007,483.221,486.0029,488.135,491.414,494.692" svgx:width="0.5,0.55,0.5,0.55,0.33,0.4,0.48,0.33,0.48,0.4,0.48,0.58,0.44,0.48,0.33,0.55,0.5,0.25,0.5,0.5,0.55,0.33,0.5,0.25,0.5,0.5,0.5,0.5,0.25,0.5,0.5,0.33,0.55,0.39,0.39,0.39,0.55,0.5,0.25,0.5,0.5,0.55,0.33,0.5,0.25,0.5,0.5,0.5,0.5,0.25,0.5,0.5,0.33,0.55,0.39,0.39,0.39,0.55,0.5,0.25,0.5,0.5,0.55,0.33,0.5,0.25,0.5,0.5,0.5,0.5,0.25,0.5,0.5,0.33,0.55,0.39,0.39,0.39" style="fill:rgb(0,0,0);font-family:URWPalladioL-Roma;font-size:8.43px;stroke:none;">2 1 (reference) 2.52 (2.00–3.19) *** 2.20 (1.73–2.81) *** 5.42 (4.36–6.73) ***</text>
   <text y="262.42" x="122.493,126.708,184.788,189.00300000000001,191.109,193.916,197.093,201.13,203.937,207.974,211.152,215.189,220.094,223.837,227.874,230.6559,262.776,266.99,269.097,273.311,277.52599999999995,279.633,282.439,286.654,288.761,292.975,297.189,301.403,305.617,307.725,311.939,316.153,318.9349,339.938,344.152,346.259,350.474,354.68899999999996,356.795,359.602,363.816,365.923,370.137,374.351,378.565,382.78,386.994,389.101,393.315,396.0969,398.229,401.508,404.786,408.0737,435.811,440.026,442.133,446.347,450.56199999999995,452.668,455.475,459.689,461.796,466.01,470.225,474.439,478.653,480.76,484.974,489.189" svgx:width="0.5,0.55,0.5,0.55,0.33,0.4,0.48,0.33,0.48,0.4,0.48,0.58,0.44,0.48,0.33,0.55,0.5,0.25,0.5,0.5,0.55,0.33,0.5,0.25,0.5,0.5,0.5,0.5,0.25,0.5,0.5,0.33,0.55,0.5,0.25,0.5,0.5,0.55,0.33,0.5,0.25,0.5,0.5,0.5,0.5,0.5,0.25,0.5,0.33,0.55,0.39,0.39,0.39,0.55,0.5,0.25,0.5,0.5,0.55,0.33,0.5,0.25,0.5,0.5,0.5,0.5,0.25,0.5,0.5,0.33" style="fill:rgb(0,0,0);font-family:URWPalladioL-Roma;font-size:8.43px;stroke:none;">3 1 (reference) 0.89 (0.56–1.43) 5.69 (2.90–10.6) *** 1.30 (0.83–2.04)</text>
   <text y="272.945" x="111.591,115.806,117.912,120.719,123.172,127.774,134.803,137.5849,184.792,189.007,191.113,193.92,197.097,201.135,203.941,207.979,211.156,215.193,220.099,223.841,227.878,230.6599,289.464,292.2459,372.602,375.3839,462.5" svgx:width="0.5,0.55,0.33,0.29,0.55,0.83,0.33,0.55,0.5,0.55,0.33,0.4,0.48,0.33,0.48,0.4,0.48,0.58,0.44,0.48,0.33,0.55,0.33,0.55,0.33,0.55,0.33" style="fill:rgb(0,0,0);font-family:URWPalladioL-Roma;font-size:8.43px;stroke:none;">4 (low) 1 (reference) - - -</text>
  </g>
  <path style="fill:none;stroke:rgb(0,0,0);stroke-width:0.28;" d="M83.030 278.010 L512.240 278.010 "/>
  <g begin="text">
   <text y="287.984" x="93.626,101.599,106.201,111.106,113.854,118.759,121.212,125.9328,128.005,130.846,135.751,139.493,144.095,151.538,155.58440000000002,184.788,189.00300000000001,191.109,193.916,197.093,201.13,203.937,207.974,211.152,215.189,220.094,223.836,227.874" svgx:width="0.95,0.55,0.58,0.33,0.58,0.29,0.56,0.55,0.34,0.58,0.44,0.55,0.88,0.48,0.55,0.5,0.55,0.33,0.4,0.48,0.33,0.48,0.4,0.48,0.58,0.44,0.48,0.33" style="fill:rgb(0,0,0);font-family:URWPalladioL-Roma;font-size:8.43px;stroke:none;">Monthly Income 1 (reference)</text>
  </g>
  <path style="fill:none;stroke:rgb(0,0,0);stroke-width:0.28;" d="M83.030 293.050 L512.240 293.050 "/>
  <g begin="text">
   <text y="303.024" x="110.192" svgx:width="0.67" style="fill:rgb(0,0,0);font-family:Rpxr;font-size:8.43px;stroke:none;">&lt;</text>
   <text y="303.024" x="115.831,120.045,124.259,126.366,130.58,134.794,139.00900000000001,184.792,189.007,191.113,193.92,197.097,201.135,203.941,207.978,211.156,215.193,220.099,223.841,227.878,230.6599,256.804,261.018,263.126,267.34,271.55499999999995,273.661,276.468,280.682,282.789,287.003,291.217,295.432,299.646,301.753,305.967,310.181,312.9629,315.095,318.374,321.653,324.9407,339.942,344.156,346.263,350.478,354.693,356.799,359.606,363.82,365.927,370.141,374.355,378.57,382.784,384.891,389.105,393.319,396.1009,398.233,401.512,404.79,408.0777,429.84,434.054,436.161,440.375,444.59,446.697,449.503,453.717,455.825,460.039,464.253,468.467,472.681,474.789,479.003,483.217,485.9989,488.131,491.409,494.688" svgx:width="0.5,0.5,0.25,0.5,0.5,0.5,0.55,0.5,0.55,0.33,0.4,0.48,0.33,0.48,0.4,0.48,0.58,0.44,0.48,0.33,0.55,0.5,0.25,0.5,0.5,0.55,0.33,0.5,0.25,0.5,0.5,0.5,0.5,0.25,0.5,0.5,0.33,0.55,0.39,0.39,0.39,0.55,0.5,0.25,0.5,0.5,0.55,0.33,0.5,0.25,0.5,0.5,0.5,0.5,0.25,0.5,0.5,0.33,0.55,0.39,0.39,0.39,0.55,0.5,0.25,0.5,0.5,0.55,0.33,0.5,0.25,0.5,0.5,0.5,0.5,0.25,0.5,0.5,0.33,0.55,0.39,0.39,0.39" style="fill:rgb(0,0,0);font-family:URWPalladioL-Roma;font-size:8.43px;stroke:none;">15,000 1 (reference) 1.71 (1.38–2.13) *** 1.65 (1.31–2.06) *** 3.08 (2.53–3.67) ***</text>
   <text y="313.549" x="99.315,103.529,107.743,109.85,114.064,118.279,122.493,126.707,130.921,135.136,137.243,141.457,145.671,149.886,184.787,189.002,191.109,193.915,197.093,201.13,203.937,207.974,211.151,215.189,220.094,223.836,227.873,230.6549,260.087,264.301,266.408,270.622,274.837,276.944,279.75,283.965,286.072,290.286,294.5,298.714,302.929,305.036,309.25,313.464,316.2459,318.378,321.66569999999996,341.581,345.795,347.903,352.117,356.332,358.438,361.245,365.459,367.566,371.78,375.995,380.209,384.423,386.53,390.744,394.958,397.73990000000003,399.872,403.151,406.4387,429.844,434.058,436.165,440.379,444.594,446.701,449.507,453.721,455.828,460.043,464.257,468.471,472.685,474.792,479.007,483.221,486.0029,488.135,491.413,494.692" svgx:width="0.5,0.5,0.25,0.5,0.5,0.5,0.5,0.5,0.5,0.25,0.5,0.5,0.5,0.55,0.5,0.55,0.33,0.4,0.48,0.33,0.48,0.4,0.48,0.58,0.44,0.48,0.33,0.55,0.5,0.25,0.5,0.5,0.55,0.33,0.5,0.25,0.5,0.5,0.5,0.5,0.25,0.5,0.5,0.33,0.55,0.39,0.55,0.5,0.25,0.5,0.5,0.55,0.33,0.5,0.25,0.5,0.5,0.5,0.5,0.25,0.5,0.5,0.33,0.55,0.39,0.39,0.55,0.5,0.25,0.5,0.5,0.55,0.33,0.5,0.25,0.5,0.5,0.5,0.5,0.25,0.5,0.5,0.33,0.55,0.39,0.39,0.39" style="fill:rgb(0,0,0);font-family:URWPalladioL-Roma;font-size:8.43px;stroke:none;">15,000–29,999 1 (reference) 1.56 (1.10–2.21) * 1.64 (1.15–2.34) ** 3.81 (2.75–5.28) ***</text>
   <text y="324.074" x="110.192" svgx:width="0.67" style="fill:rgb(0,0,0);font-family:Pxsy;font-size:8.43px;stroke:none;">≥</text>
   <text y="324.074" x="115.831,120.045,124.259,126.366,130.58,134.794,139.00900000000001,184.792,189.007,191.113,193.92,197.097,201.135,203.941,207.978,211.156,215.193,220.099,223.841,227.878,230.6599,262.78,266.994,269.101,273.315,277.53,279.637,282.443,286.658,288.765,292.979,297.193,301.407,305.622,307.729,311.943,316.157,318.9389,345.91,350.124,352.231,356.445,360.65999999999997,362.766,365.573,369.787,371.894,376.109,380.323,384.537,388.751,390.858,395.073,399.287,402.0689,429.84,434.054,436.161,440.375,444.59,446.697,449.503,453.717,455.825,460.039,464.253,468.467,472.681,474.789,479.003,483.217,485.9989,488.131,491.409,494.688" svgx:width="0.5,0.5,0.25,0.5,0.5,0.5,0.55,0.5,0.55,0.33,0.4,0.48,0.33,0.48,0.4,0.48,0.58,0.44,0.48,0.33,0.55,0.5,0.25,0.5,0.5,0.55,0.33,0.5,0.25,0.5,0.5,0.5,0.5,0.25,0.5,0.5,0.33,0.55,0.5,0.25,0.5,0.5,0.55,0.33,0.5,0.25,0.5,0.5,0.5,0.5,0.25,0.5,0.5,0.33,0.55,0.5,0.25,0.5,0.5,0.55,0.33,0.5,0.25,0.5,0.5,0.5,0.5,0.25,0.5,0.5,0.33,0.55,0.39,0.39,0.39" style="fill:rgb(0,0,0);font-family:URWPalladioL-Roma;font-size:8.43px;stroke:none;">30,000 1 (reference) 1.69 (0.88–3.23) 1.85 (0.96–3.55) 4.19 (2.34–7.50) ***</text>
  </g>
  <path style="fill:none;stroke:rgb(0,0,0);stroke-width:0.28;" d="M83.030 329.140 L512.240 329.140 "/>
  <g begin="text">
   <text y="339.112" x="88.729,95.354,99.096,102.839,107.921,112.986,117.201,119.948,122.401,127.003,131.908,136.122,138.56670000000003,140.682,146.658,149.111,153.325,156.898,160.4386,184.788,189.00300000000001,191.109,193.916,197.094,201.131,203.937,207.975,211.152,215.189,220.095,223.837,227.874" svgx:width="0.79,0.44,0.44,0.6,0.6,0.5,0.33,0.29,0.55,0.58,0.5,0.29,0.55,0.71,0.29,0.5,0.42,0.42,0.55,0.5,0.55,0.33,0.4,0.48,0.33,0.48,0.4,0.48,0.58,0.44,0.48,0.33" style="fill:rgb(0,0,0);font-family:URWPalladioL-Roma;font-size:8.43px;stroke:none;">Occupational Class 1 (reference)</text>
  </g>
  <path style="fill:none;stroke:rgb(0,0,0);stroke-width:0.28;" d="M83.030 344.180 L512.240 344.180 "/>
  <g begin="text">
   <text y="354.151" x="93.066,101.494,106.399,108.852,111.6,115.6464,117.744,121.486,126.088,128.541,133.143,136.515,138.579,142.321,144.774,148.988,152.562,156.10260000000002,184.792,189.007,191.113,193.92,197.098,201.135,203.941,207.979,211.156,215.193,220.099,223.841,227.878,230.6599,256.804,261.019,263.126,267.34,271.55499999999995,273.661,276.468,280.682,282.789,287.003,291.218,295.432,299.646,301.753,305.967,310.182,312.9639,315.095,318.374,321.653,324.9407,339.942,344.157,346.264,350.478,354.693,356.799,359.606,363.82,365.927,370.141,374.356,378.57,382.784,384.891,389.105,393.32,396.1019,398.233,401.512,404.791,408.07869999999997,429.84,434.054,436.161,440.375,444.59,446.697,449.503,453.718,455.825,460.039,464.253,468.467,472.682,474.789,479.003,483.217,485.9989,488.131,491.41,494.688" svgx:width="1.0,0.58,0.29,0.33,0.48,0.55,0.44,0.55,0.29,0.55,0.4,0.55,0.44,0.29,0.5,0.42,0.42,0.55,0.5,0.55,0.33,0.4,0.48,0.33,0.48,0.4,0.48,0.58,0.44,0.48,0.33,0.55,0.5,0.25,0.5,0.5,0.55,0.33,0.5,0.25,0.5,0.5,0.5,0.5,0.25,0.5,0.5,0.33,0.55,0.39,0.39,0.39,0.55,0.5,0.25,0.5,0.5,0.55,0.33,0.5,0.25,0.5,0.5,0.5,0.5,0.25,0.5,0.5,0.33,0.55,0.39,0.39,0.39,0.55,0.5,0.25,0.5,0.5,0.55,0.33,0.5,0.25,0.5,0.5,0.5,0.5,0.25,0.5,0.5,0.33,0.55,0.39,0.39,0.39" style="fill:rgb(0,0,0);font-family:URWPalladioL-Roma;font-size:8.43px;stroke:none;">White color class 1 (reference) 2.28 (1.85–2.83) *** 1.70 (1.36–2.13) *** 3.45 (2.83–4.20) ***</text>
   <text y="364.676" x="95.991,101.141,103.593,108.676,112.72240000000001,114.82,118.562,123.164,125.617,130.219,133.591,135.655,139.397,141.85,146.064,149.638,153.17860000000002,184.793,189.008,191.114,193.921,197.098,201.135,203.942,207.979,211.157,215.194,220.099,223.842,227.879,230.6609,262.781,266.995,269.102,273.316,277.53099999999995,279.638,282.444,286.659,288.766,292.98,297.194,301.408,305.623,307.73,311.944,316.158,318.9399,345.91,350.125,352.232,356.446,360.661,362.767,365.574,369.788,371.895,376.109,380.324,384.538,388.752,390.859,395.073,399.288,402.0699,429.841,434.055,436.162,440.376,444.59099999999995,446.697,449.504,453.718,455.825,460.04,464.254,468.468,472.682,474.789,479.004,483.218,485.9999,488.132,491.41,494.689" svgx:width="0.61,0.29,0.6,0.48,0.55,0.44,0.55,0.29,0.55,0.4,0.55,0.44,0.29,0.5,0.42,0.42,0.55,0.5,0.55,0.33,0.4,0.48,0.33,0.48,0.4,0.48,0.58,0.44,0.48,0.33,0.55,0.5,0.25,0.5,0.5,0.55,0.33,0.5,0.25,0.5,0.5,0.5,0.5,0.25,0.5,0.5,0.33,0.55,0.5,0.25,0.5,0.5,0.55,0.33,0.5,0.25,0.5,0.5,0.5,0.5,0.25,0.5,0.5,0.33,0.55,0.5,0.25,0.5,0.5,0.55,0.33,0.5,0.25,0.5,0.5,0.5,0.5,0.25,0.5,0.5,0.33,0.55,0.39,0.39,0.39" style="fill:rgb(0,0,0);font-family:URWPalladioL-Roma;font-size:8.43px;stroke:none;">Blue color class 1 (reference) 0.78 (0.52–1.19) 1.14 (0.75–1.72) 3.02 (2.03–4.50) ***</text>
   <text y="375.201" x="113.779,120.403,123.151,128.056,132.093,135.46499999999997,184.788,189.00300000000001,191.109,193.916,197.093,201.131,203.937,207.975,211.152,215.189,220.095,223.837,227.874,230.6559,258.444,262.658,264.765,268.979,273.19399999999996,275.301,278.107,282.322,284.429,288.643,292.857,297.071,301.286,303.393,307.607,311.821,314.60290000000003,316.735,320.013,323.30069999999995,341.582,345.796,347.903,352.117,356.332,358.439,361.245,365.46,367.567,371.781,375.995,380.209,384.424,386.531,390.745,394.959,397.7409,399.873,403.151,406.4387,429.844,434.058,436.166,440.38,444.59499999999997,446.701,449.508,453.722,455.829,460.043,464.257,468.472,472.686,474.793,479.007,483.221,486.0029,488.135,491.414,494.693" svgx:width="0.79,0.33,0.58,0.48,0.4,0.55,0.5,0.55,0.33,0.4,0.48,0.33,0.48,0.4,0.48,0.58,0.44,0.48,0.33,0.55,0.5,0.25,0.5,0.5,0.55,0.33,0.5,0.25,0.5,0.5,0.5,0.5,0.25,0.5,0.5,0.33,0.55,0.39,0.39,0.55,0.5,0.25,0.5,0.5,0.55,0.33,0.5,0.25,0.5,0.5,0.5,0.5,0.25,0.5,0.5,0.33,0.55,0.39,0.39,0.55,0.5,0.25,0.5,0.5,0.55,0.33,0.5,0.25,0.5,0.5,0.5,0.5,0.25,0.5,0.5,0.33,0.55,0.39,0.39,0.39" style="fill:rgb(0,0,0);font-family:URWPalladioL-Roma;font-size:8.43px;stroke:none;">Other 1 (reference) 2.08 (1.29–3.36) ** 1.96 (1.18–3.24) ** 2.97 (1.91–4.60) ***</text>
  </g>
  <path style="fill:none;stroke:rgb(0,0,0);stroke-width:0.28;" d="M83.030 380.500 L512.240 380.500 "/>
  <g begin="text">
   <text y="389.545" x="97.795,104.559,109.989,111.98150000000001,115.16,119.891,123.956,128.02,132.085,135.15,140.01170000000002,143.263,146.474,150.539,153.189,155.555,159.994,161.9865,165.733,172.497,177.8369,181.066,185.13,190.097,192.0,196.902,200.349,202.999,206.893,211.7547,214.998,217.705,222.144,225.332,228.493,233.013,236.907,241.638,246.606,250.5,253.125,255.1175,258.58,262.645,267.165,271.059,273.05150000000003,276.514,283.692,288.131,292.862,295.513,300.244,302.61,307.07320000000004,310.268,312.633,317.365,320.974,325.413,332.591,336.485,338.4775,341.948,346.851,350.062,354.557,358.622,363.353,365.719,369.784,373.849,376.499,378.865,383.303,387.9256,391.173,393.538,397.432,402.026,405.92,408.285,410.27750000000003,413.74,417.805,422.536,427.3977,430.641,435.08,438.69,442.299,447.201,452.087,456.152,458.802,461.168,465.606,470.338,474.403,476.71430000000004,479.906,483.516,485.882,489.946,493.393,496.84" svgx:width="0.83,0.67,0.25,0.55,0.58,0.5,0.5,0.5,0.4,0.61,0.55,0.4,0.5,0.33,0.29,0.55,0.25,0.55,0.83,0.67,0.55,0.5,0.61,0.23,0.6,0.42,0.33,0.48,0.61,0.55,0.33,0.55,0.4,0.55,0.56,0.48,0.58,0.61,0.48,0.4,0.25,0.55,0.5,0.56,0.48,0.25,0.55,0.88,0.55,0.58,0.33,0.58,0.29,0.56,0.55,0.29,0.58,0.44,0.55,0.88,0.48,0.25,0.55,0.6,0.4,0.55,0.5,0.58,0.29,0.5,0.5,0.33,0.29,0.55,0.58,0.55,0.29,0.48,0.56,0.48,0.29,0.25,0.55,0.5,0.58,0.61,0.55,0.55,0.44,0.44,0.6,0.6,0.5,0.33,0.29,0.55,0.58,0.5,0.29,0.55,0.44,0.29,0.5,0.42,0.42,0.25" style="fill:rgb(0,0,0);font-family:URWPalladioL-Roma;font-size:7.97px;stroke:none;">HR, hazard ratio; HR adjusted for gender, age, monthly income, urbanization level, and occupational class.</text>
   <text y="399.01" x="97.174,100.274" svgx:width="0.39,0.25" style="fill:rgb(0,0,0);font-family:URWPalladioL-Roma;font-size:7.97px;stroke:none;">*:</text>
   <text y="399.01" x="105.056" svgx:width="0.5" style="fill:rgb(0,0,0);font-family:URWPalladioL-Ital;font-size:7.97px;stroke:none;">p</text>
   <text y="399.01" x="111.033" svgx:width="0.67" style="fill:rgb(0,0,0);font-family:Rpxr;font-size:7.97px;stroke:none;">&lt;</text>
   <text y="399.01" x="118.358,122.343,124.336,128.321,132.306,134.29850000000002,136.291,139.391,142.491" svgx:width="0.5,0.25,0.5,0.5,0.25,0.55,0.39,0.39,0.25" style="fill:rgb(0,0,0);font-family:URWPalladioL-Roma;font-size:7.97px;stroke:none;">0.05; **:</text>
   <text y="399.01" x="147.273" svgx:width="0.5" style="fill:rgb(0,0,0);font-family:URWPalladioL-Ital;font-size:7.97px;stroke:none;">p</text>
   <text y="399.01" x="153.251" svgx:width="0.67" style="fill:rgb(0,0,0);font-family:Rpxr;font-size:7.97px;stroke:none;">&lt;</text>
   <text y="399.01" x="160.576,164.561,166.554,170.539,174.524,176.5165,178.509,181.609,184.709,187.81" svgx:width="0.5,0.25,0.5,0.5,0.25,0.55,0.39,0.39,0.39,0.25" style="fill:rgb(0,0,0);font-family:URWPalladioL-Roma;font-size:7.97px;stroke:none;">0.01; ***:</text>
   <text y="399.01" x="192.591" svgx:width="0.5" style="fill:rgb(0,0,0);font-family:URWPalladioL-Ital;font-size:7.97px;stroke:none;">p</text>
   <text y="399.01" x="198.569" svgx:width="0.67" style="fill:rgb(0,0,0);font-family:Rpxr;font-size:7.97px;stroke:none;">&lt;</text>
   <text y="399.01" x="205.893,209.878,211.871,215.856,219.841,223.826" svgx:width="0.5,0.25,0.5,0.5,0.5,0.25" style="fill:rgb(0,0,0);font-family:URWPalladioL-Roma;font-size:7.97px;stroke:none;">0.001.</text>
   <text y="424.224" x="97.499,102.484,106.968,112.446,115.432,119.917,124.084,128.568" svgx:width="0.67,0.5,0.61,0.33,0.5,0.55,0.5,0.25" style="fill:rgb(0,0,0);font-family:URWPalladioL-Bold;font-size:8.97px;stroke:none;">Table 6.</text>
   <text y="424.224" x="139.719,142.801,148.124,152.185,154.846,160.434,164.815,170.138,174.198,178.5036,182.74,186.353,190.926,193.907,198.2126,202.459,207.032,212.354,217.8257,222.113,227.436,232.009,236.581,241.154,244.602,250.0737,254.352,257.964,262.537,265.518,268.18,273.1135,277.344,282.337,285.2971,289.544,295.041,300.034,302.696,307.781,311.842,316.927,320.804,323.786,326.447,330.3938,334.678,339.672,344.839,349.412,353.025,355.686,360.067,363.8344,368.106,373.164,377.544,380.526,388.153,392.534,396.915,402.11760000000004,406.408,411.576,416.148,419.761,422.422,427.416,432.931,436.6984,440.97,446.558,451.131,453.792,456.454,461.4772,465.709,470.282,475.449,479.83,483.443,488.016,493.101" svgx:width="0.34,0.58,0.44,0.29,0.61,0.48,0.58,0.44,0.48,0.55,0.4,0.5,0.33,0.48,0.55,0.5,0.58,0.61,0.55,0.58,0.5,0.5,0.5,0.4,0.61,0.55,0.4,0.5,0.33,0.29,0.55,0.55,0.55,0.33,0.55,0.6,0.55,0.29,0.56,0.44,0.56,0.42,0.33,0.29,0.44,0.55,0.55,0.56,0.5,0.4,0.29,0.48,0.42,0.55,0.55,0.48,0.33,0.83,0.48,0.48,0.58,0.55,0.56,0.5,0.4,0.29,0.55,0.6,0.42,0.55,0.61,0.5,0.29,0.29,0.56,0.55,0.5,0.56,0.48,0.4,0.5,0.56,0.48" style="fill:rgb(0,0,0);font-family:URWPalladioL-Roma;font-size:8.97px;stroke:none;">Incidence rate and hazard ratio of polycystic ovaries between various daily average</text>
   <text y="437.046" x="97.795,101.776,106.672,111.89,115.871,120.166,125.385,128.308,131.849,136.333,139.256,141.865,146.761,151.979,155.74640000000002,158.022,162.918,165.87810000000002,168.145,175.596,182.6823,184.886,188.687,191.61,195.152,199.635,202.558,205.168,210.592,214.887,220.3587,222.607,227.566,232.5892,234.793,239.778,244.073,249.291,254.77,259.065,261.943,264.1855,266.426,270.909,275.895,280.2006,282.431,286.914,292.133,297.6047,299.853,303.834,308.73,316.647,321.543,325.084,330.043,332.652,338.13,340.74,343.663,346.272,350.567,354.369" svgx:width="0.44,0.55,0.58,0.44,0.48,0.58,0.33,0.4,0.5,0.33,0.29,0.55,0.58,0.42,0.55,0.55,0.33,0.55,0.83,0.79,0.55,0.42,0.33,0.4,0.5,0.33,0.29,0.61,0.48,0.61,0.55,0.55,0.56,0.55,0.56,0.48,0.58,0.61,0.48,0.4,0.25,0.55,0.5,0.56,0.48,0.55,0.5,0.58,0.61,0.55,0.44,0.55,0.88,0.55,0.4,0.55,0.29,0.61,0.29,0.33,0.29,0.48,0.42,0.25" style="fill:rgb(0,0,0);font-family:URWPalladioL-Roma;font-size:8.97px;stroke:none;">concentrations of NO stratiﬁed by gender, age and comorbidities.</text>
  </g>
  <path style="fill:none;stroke:rgb(0,0,0);stroke-width:0.75;" d="M83.030 447.240 L512.240 447.240 "/>
  <g begin="text">
   <text y="457.45" x="332.184,339.205" svgx:width="0.83,0.83" style="fill:rgb(0,0,0);font-family:URWPalladioL-Bold;font-size:8.43px;stroke:none;">NO</text>
  </g>
  <path style="fill:none;stroke:rgb(0,0,0);stroke-width:0.75;" d="M83.030 462.520 L512.240 462.520 "/>
  <g begin="text">
   <text y="472.489" x="296.254,302.811,307.961,310.768,315.918,319.66,322.467,326.681,331.82329999999996,333.938,340.958,347.0276,349.151,351.958,356.172,360.386,369.986,376.071,379.35" svgx:width="0.78,0.61,0.33,0.61,0.44,0.33,0.5,0.61,0.55,0.83,0.72,0.55,0.33,0.5,0.5,0.89,0.72,0.39,0.33" style="fill:rgb(0,0,0);font-family:URWPalladioL-Bold;font-size:8.43px;stroke:none;">Adjusted HR (95%CI)</text>
  </g>
  <path style="fill:none;stroke:rgb(0,0,0);stroke-width:0.28;" d="M83.030 477.560 L512.240 477.560 "/>
  <g begin="text">
   <text y="487.528" x="171.809,178.83,183.98,188.194,191.473,194.28,197.086,199.893,204.107,208.322,210.428,213.235,218.385,223.071,230.092,234.306,238.048,240.855,243.6369,271.56,278.581,283.73,287.945,291.223,294.03,296.837,299.643,303.85799999999995,305.965,310.17999999999995,354.698,361.719,366.868,371.082,374.361,377.168,379.974,382.781,386.996,389.102,393.31699999999995,425.522,432.542,437.692,441.906,445.185,447.992,450.798,453.605,457.82,459.926,464.14099999999996,466.248,469.054,476.075,478.882,483.568,488.718,492.932,496.674,499.481" svgx:width="0.83,0.61,0.5,0.39,0.33,0.33,0.33,0.5,0.5,0.55,0.33,0.61,0.56,0.83,0.5,0.44,0.33,0.33,0.55,0.83,0.61,0.5,0.39,0.33,0.33,0.33,0.5,0.55,0.5,0.55,0.83,0.61,0.5,0.39,0.33,0.33,0.33,0.5,0.55,0.5,0.55,0.83,0.61,0.5,0.39,0.33,0.33,0.33,0.5,0.55,0.5,0.55,0.33,0.83,0.33,0.56,0.61,0.5,0.44,0.33,0.33" style="fill:rgb(0,0,0);font-family:URWPalladioL-Bold;font-size:8.43px;stroke:none;">Quartile1 (Lowest) Quartile 2 Quartile 3 Quartile 4 (Highest)</text>
  </g>
  <path style="fill:none;stroke:rgb(0,0,0);stroke-width:0.28;" d="M83.030 492.590 L512.240 492.590 "/>
  <g begin="text">
   <text y="502.566" x="104.853,111.411,116.097,120.134,122.2415,124.348,129.194,133.232,137.446,140.775" svgx:width="0.78,0.56,0.48,0.25,0.55,0.67,0.48,0.5,0.4,0.42" style="fill:rgb(0,0,0);font-family:URWPalladioL-Roma;font-size:8.43px;stroke:none;">Age, Years</text>
  </g>
  <path style="fill:none;stroke:rgb(0,0,0);stroke-width:0.28;" d="M83.030 507.630 L512.240 507.630 "/>
  <g begin="text">
   <text y="517.605" x="117.567" svgx:width="0.67" style="fill:rgb(0,0,0);font-family:Rpxr;font-size:8.43px;stroke:none;">&lt;</text>
   <text y="517.605" x="123.206,127.42,131.635,184.792,189.007,191.114,193.92,197.098,201.135,203.942,207.979,211.156,215.194,220.099,223.841,227.878,230.6599,256.805,261.019,263.126,267.34,271.55499999999995,273.661,276.468,280.682,282.789,287.004,291.218,295.432,299.646,301.753,305.968,310.182,312.9639,315.096,318.374,321.653,324.9407,341.578,345.792,347.899,352.113,356.328,358.435,361.241,365.455,367.563,371.777,375.991,380.205,384.419,386.526,390.741,394.955,397.7369,399.869,403.147,406.43469999999996,429.84,434.054,436.161,440.376,444.59099999999995,446.697,449.504,453.718,455.825,460.039,464.253,468.468,472.682,474.789,479.003,483.217,485.9989,488.131,491.41,494.688" svgx:width="0.5,0.5,0.55,0.5,0.55,0.33,0.4,0.48,0.33,0.48,0.4,0.48,0.58,0.44,0.48,0.33,0.55,0.5,0.25,0.5,0.5,0.55,0.33,0.5,0.25,0.5,0.5,0.5,0.5,0.25,0.5,0.5,0.33,0.55,0.39,0.39,0.39,0.55,0.5,0.25,0.5,0.5,0.55,0.33,0.5,0.25,0.5,0.5,0.5,0.5,0.25,0.5,0.5,0.33,0.55,0.39,0.39,0.55,0.5,0.25,0.5,0.5,0.55,0.33,0.5,0.25,0.5,0.5,0.5,0.5,0.25,0.5,0.5,0.33,0.55,0.39,0.39,0.39" style="fill:rgb(0,0,0);font-family:URWPalladioL-Roma;font-size:8.43px;stroke:none;">20 1 (reference) 2.09 (1.43–3.03) *** 1.80 (1.26–2.56) ** 4.52 (3.26–6.27) ***</text>
   <text y="528.131" x="114.065,118.279,122.494,126.708,130.922,135.137,184.788,189.00300000000001,191.109,193.916,197.094,201.131,203.937,207.975,211.152,215.189,220.095,223.837,227.874,230.6559,256.809,261.023,263.13,267.344,271.55899999999997,273.666,276.472,280.687,282.794,287.008,291.222,295.436,299.651,301.758,305.972,310.186,312.9679,315.1,318.379,321.657,324.94469999999995,345.914,350.128,352.235,356.45,360.66499999999996,362.771,365.578,369.792,371.899,376.113,380.327,384.542,388.756,390.863,395.077,399.291,402.0729,429.844,434.059,436.166,440.38,444.59499999999997,446.701,449.508,453.722,455.829,460.043,464.258,468.472,472.686,474.793,479.007,483.222,486.0039,488.135,491.414,494.693" svgx:width="0.5,0.5,0.5,0.5,0.5,0.55,0.5,0.55,0.33,0.4,0.48,0.33,0.48,0.4,0.48,0.58,0.44,0.48,0.33,0.55,0.5,0.25,0.5,0.5,0.55,0.33,0.5,0.25,0.5,0.5,0.5,0.5,0.25,0.5,0.5,0.33,0.55,0.39,0.39,0.39,0.55,0.5,0.25,0.5,0.5,0.55,0.33,0.5,0.25,0.5,0.5,0.5,0.5,0.25,0.5,0.5,0.33,0.55,0.5,0.25,0.5,0.5,0.55,0.33,0.5,0.25,0.5,0.5,0.5,0.5,0.25,0.5,0.5,0.33,0.55,0.39,0.39,0.39" style="fill:rgb(0,0,0);font-family:URWPalladioL-Roma;font-size:8.43px;stroke:none;">20–64 1 (reference) 2.09 (1.67–2.60) *** 1.19 (0.97–1.46) 4.24 (3.51–5.12) ***</text>
   <text y="538.656" x="117.567" svgx:width="0.67" style="fill:rgb(0,0,0);font-family:Pxsy;font-size:8.43px;stroke:none;">≥</text>
   <text y="538.656" x="123.206,127.42,131.635,184.792,189.007,191.114,193.92,197.098,201.135,203.942,207.979,211.156,215.194,220.099,223.841,227.878,230.6599,262.78,266.995,269.102,273.316,277.53099999999995,279.637,282.444,286.658,288.765,292.979,297.194,301.408,305.622,307.729,311.943,316.158,318.9399,345.91,350.124,352.231,356.445,360.65999999999997,362.767,365.573,369.788,371.895,376.109,380.323,384.537,388.752,390.859,395.073,399.287,402.0689,429.84,434.054,436.161,440.376,444.59099999999995,446.697,449.504,453.718,455.825,460.039,464.253,468.468,472.682,474.789,479.003,483.217,485.9989,488.131,491.41,494.688" svgx:width="0.5,0.5,0.55,0.5,0.55,0.33,0.4,0.48,0.33,0.48,0.4,0.48,0.58,0.44,0.48,0.33,0.55,0.5,0.25,0.5,0.5,0.55,0.33,0.5,0.25,0.5,0.5,0.5,0.5,0.25,0.5,0.5,0.33,0.55,0.5,0.25,0.5,0.5,0.55,0.33,0.5,0.25,0.5,0.5,0.5,0.5,0.25,0.5,0.5,0.33,0.55,0.5,0.25,0.5,0.5,0.55,0.33,0.5,0.25,0.5,0.5,0.5,0.5,0.25,0.5,0.5,0.33,0.55,0.39,0.39,0.39" style="fill:rgb(0,0,0);font-family:URWPalladioL-Roma;font-size:8.43px;stroke:none;">65 1 (reference) 1.54 (0.76–3.11) 1.45 (0.75–2.76) 2.99 (1.63–5.48) ***</text>
  </g>
  <path style="fill:none;stroke:rgb(0,0,0);stroke-width:0.28;" d="M83.030 543.720 L512.240 543.720 "/>
  <g begin="text">
   <text y="553.695" x="88.7,95.258,98.587,103.248,107.462,112.367,114.82,119.034,123.248,125.996,128.449,133.051,137.94039999999998,140.063,145.213,149.25,154.012,158.049,160.49370000000002,184.793,189.008,191.114,193.921,197.098,201.135,203.942,207.979,211.157,215.194,220.099,223.841,227.879" svgx:width="0.78,0.4,0.55,0.5,0.58,0.29,0.5,0.5,0.33,0.29,0.55,0.58,0.55,0.61,0.48,0.56,0.48,0.29,0.55,0.5,0.55,0.33,0.4,0.48,0.33,0.48,0.4,0.48,0.58,0.44,0.48,0.33" style="fill:rgb(0,0,0);font-family:URWPalladioL-Roma;font-size:8.43px;stroke:none;">Urbanization Level 1 (reference)</text>
  </g>
  <path style="fill:none;stroke:rgb(0,0,0);stroke-width:0.28;" d="M83.030 558.760 L512.240 558.760 "/>
  <g begin="text">
   <text y="568.733" x="104.979,109.194,111.3,114.107,119.012,121.465,126.151,131.057,135.094,138.668,141.415,144.1969,184.788,189.00300000000001,191.109,193.916,197.093,201.131,203.937,207.974,211.152,215.189,220.095,223.837,227.874,230.6559,256.809,261.023,263.13,267.344,271.55899999999997,273.666,276.472,280.686,282.794,287.008,291.222,295.436,299.65,303.865,305.972,310.186,312.9679,315.1,318.378,321.657,324.94469999999995,341.582,345.796,347.903,352.117,356.332,358.439,361.245,365.459,367.567,371.781,375.995,380.209,384.423,386.531,390.745,394.959,397.7409,399.873,403.151,406.4387,429.844,434.058,438.273,440.38,444.59499999999997,446.701,449.508,453.722,455.829,460.043,464.257,468.472,472.686,476.9,479.007,483.221,486.0029,488.135,491.414,494.692" svgx:width="0.5,0.55,0.33,0.58,0.29,0.56,0.58,0.48,0.42,0.33,0.33,0.55,0.5,0.55,0.33,0.4,0.48,0.33,0.48,0.4,0.48,0.58,0.44,0.48,0.33,0.55,0.5,0.25,0.5,0.5,0.55,0.33,0.5,0.25,0.5,0.5,0.5,0.5,0.5,0.25,0.5,0.33,0.55,0.39,0.39,0.39,0.55,0.5,0.25,0.5,0.5,0.55,0.33,0.5,0.25,0.5,0.5,0.5,0.5,0.25,0.5,0.5,0.33,0.55,0.39,0.39,0.55,0.5,0.5,0.25,0.5,0.55,0.33,0.5,0.25,0.5,0.5,0.5,0.5,0.5,0.25,0.5,0.33,0.55,0.39,0.39,0.39" style="fill:rgb(0,0,0);font-family:URWPalladioL-Roma;font-size:8.43px;stroke:none;">1 (highest) 1 (reference) 8.07 (5.78–11.2) *** 1.57 (1.19–2.07) ** 10.4 (8.01–13.7) ***</text>
   <text y="579.258" x="122.493,126.708,184.788,189.00300000000001,191.109,193.916,197.093,201.13,203.937,207.974,211.152,215.189,220.094,223.837,227.874,230.6559,262.776,266.99,269.097,273.311,277.52599999999995,279.633,282.439,286.654,288.761,292.975,297.189,301.403,305.617,307.725,311.939,316.153,318.9349,339.938,344.152,346.259,350.474,354.68899999999996,356.795,359.602,363.816,365.923,370.137,374.351,378.565,382.78,384.887,389.101,393.315,396.0969,398.229,401.508,404.786,408.0737,429.844,434.058,436.165,440.38,444.59499999999997,446.701,449.508,453.722,455.829,460.043,464.257,468.471,472.686,474.793,479.007,483.221,486.0029,488.135,491.414,494.692" svgx:width="0.5,0.55,0.5,0.55,0.33,0.4,0.48,0.33,0.48,0.4,0.48,0.58,0.44,0.48,0.33,0.55,0.5,0.25,0.5,0.5,0.55,0.33,0.5,0.25,0.5,0.5,0.5,0.5,0.25,0.5,0.5,0.33,0.55,0.5,0.25,0.5,0.5,0.55,0.33,0.5,0.25,0.5,0.5,0.5,0.5,0.25,0.5,0.5,0.33,0.55,0.39,0.39,0.39,0.55,0.5,0.25,0.5,0.5,0.55,0.33,0.5,0.25,0.5,0.5,0.5,0.5,0.25,0.5,0.5,0.33,0.55,0.39,0.39,0.39" style="fill:rgb(0,0,0);font-family:URWPalladioL-Roma;font-size:8.43px;stroke:none;">2 1 (reference) 1.09 (0.86–1.37) 2.68 (2.10–3.43) *** 2.44 (1.97–3.03) ***</text>
   <text y="589.783" x="122.493,126.708,184.788,189.00300000000001,191.109,193.916,197.093,201.13,203.937,207.974,211.152,215.189,220.094,223.837,227.874,230.6559,262.776,266.99,269.097,273.311,277.52599999999995,279.633,282.439,286.654,288.761,292.975,297.189,301.403,305.617,307.725,311.939,316.153,318.9349,339.938,344.152,346.259,350.474,354.68899999999996,356.795,359.602,363.816,365.923,370.137,374.351,378.565,382.78,386.994,389.101,393.315,396.0969,398.229,401.508,404.786,408.0737,435.811,440.026,442.133,446.347,450.56199999999995,452.668,455.475,459.689,461.796,466.01,470.225,474.439,478.653,480.76,484.974,489.189" svgx:width="0.5,0.55,0.5,0.55,0.33,0.4,0.48,0.33,0.48,0.4,0.48,0.58,0.44,0.48,0.33,0.55,0.5,0.25,0.5,0.5,0.55,0.33,0.5,0.25,0.5,0.5,0.5,0.5,0.25,0.5,0.5,0.33,0.55,0.5,0.25,0.5,0.5,0.55,0.33,0.5,0.25,0.5,0.5,0.5,0.5,0.5,0.25,0.5,0.33,0.55,0.39,0.39,0.39,0.55,0.5,0.25,0.5,0.5,0.55,0.33,0.5,0.25,0.5,0.5,0.5,0.5,0.25,0.5,0.5,0.33" style="fill:rgb(0,0,0);font-family:URWPalladioL-Roma;font-size:8.43px;stroke:none;">3 1 (reference) 0.78 (0.48–1.26) 9.06 (4.66–17.6) *** 1.44 (0.92–2.24)</text>
   <text y="600.308" x="111.591,115.806,117.912,120.719,123.172,127.774,134.803,137.5849,184.792,189.007,191.113,193.92,197.097,201.135,203.941,207.979,211.156,215.193,220.099,223.841,227.878,230.6599,289.464,292.2459,372.602,375.3839,462.5" svgx:width="0.5,0.55,0.33,0.29,0.55,0.83,0.33,0.55,0.5,0.55,0.33,0.4,0.48,0.33,0.48,0.4,0.48,0.58,0.44,0.48,0.33,0.55,0.33,0.55,0.33,0.55,0.33" style="fill:rgb(0,0,0);font-family:URWPalladioL-Roma;font-size:8.43px;stroke:none;">4 (low) 1 (reference) - - -</text>
  </g>
  <path style="fill:none;stroke:rgb(0,0,0);stroke-width:0.28;" d="M83.030 605.380 L512.240 605.380 "/>
  <g begin="text">
   <text y="615.348" x="93.626,101.599,106.201,111.106,113.854,118.759,121.212,125.9328,128.005,130.846,135.751,139.493,144.095,151.538,155.58440000000002,184.788,189.00300000000001,191.109,193.916,197.093,201.13,203.937,207.974,211.152,215.189,220.094,223.836,227.874" svgx:width="0.95,0.55,0.58,0.33,0.58,0.29,0.56,0.55,0.34,0.58,0.44,0.55,0.88,0.48,0.55,0.5,0.55,0.33,0.4,0.48,0.33,0.48,0.4,0.48,0.58,0.44,0.48,0.33" style="fill:rgb(0,0,0);font-family:URWPalladioL-Roma;font-size:8.43px;stroke:none;">Monthly Income 1 (reference)</text>
  </g>
  <path style="fill:none;stroke:rgb(0,0,0);stroke-width:0.28;" d="M83.030 620.420 L512.240 620.420 "/>
  <g begin="text">
   <text y="630.387" x="110.192" svgx:width="0.67" style="fill:rgb(0,0,0);font-family:Rpxr;font-size:8.43px;stroke:none;">&lt;</text>
   <text y="630.387" x="115.831,120.045,124.259,126.366,130.58,134.794,139.00900000000001,184.792,189.007,191.113,193.92,197.097,201.135,203.941,207.978,211.156,215.193,220.099,223.841,227.878,230.6599,256.804,261.018,263.126,267.34,271.55499999999995,273.661,276.468,280.682,282.789,287.003,291.217,295.432,299.646,301.753,305.967,310.181,312.9629,315.095,318.374,321.653,324.9407,343.221,347.435,349.542,353.756,357.97099999999995,360.078,362.884,367.099,369.206,373.42,377.634,381.848,386.063,388.17,392.384,396.598,399.3799,401.512,404.7997,429.84,434.054,436.161,440.375,444.59,446.697,449.503,453.717,455.825,460.039,464.253,468.467,472.681,474.789,479.003,483.217,485.9989,488.131,491.409,494.688" svgx:width="0.5,0.5,0.25,0.5,0.5,0.5,0.55,0.5,0.55,0.33,0.4,0.48,0.33,0.48,0.4,0.48,0.58,0.44,0.48,0.33,0.55,0.5,0.25,0.5,0.5,0.55,0.33,0.5,0.25,0.5,0.5,0.5,0.5,0.25,0.5,0.5,0.33,0.55,0.39,0.39,0.39,0.55,0.5,0.25,0.5,0.5,0.55,0.33,0.5,0.25,0.5,0.5,0.5,0.5,0.25,0.5,0.5,0.33,0.55,0.39,0.55,0.5,0.25,0.5,0.5,0.55,0.33,0.5,0.25,0.5,0.5,0.5,0.5,0.25,0.5,0.5,0.33,0.55,0.39,0.39,0.39" style="fill:rgb(0,0,0);font-family:URWPalladioL-Roma;font-size:8.43px;stroke:none;">15,000 1 (reference) 1.92 (1.53–2.41) *** 1.31 (1.05–1.62) * 3.70 (3.05–4.49) ***</text>
   <text y="640.912" x="99.315,103.529,107.743,109.85,114.064,118.279,122.493,126.707,130.921,135.136,137.243,141.457,145.671,149.886,184.787,189.002,191.109,193.915,197.093,201.13,203.937,207.974,211.151,215.189,220.094,223.836,227.873,230.6549,256.808,261.022,263.129,267.344,271.55899999999997,273.665,276.472,280.686,282.793,287.007,291.221,295.436,299.65,301.757,305.971,310.185,312.9669,315.099,318.378,321.656,324.9437,341.581,345.795,347.902,352.117,356.332,358.438,361.245,365.459,367.566,371.78,375.994,380.209,384.423,386.53,390.744,394.958,397.73990000000003,399.872,403.151,406.4387,429.844,434.058,436.165,440.379,444.594,446.7,449.507,453.721,455.828,460.043,464.257,468.471,472.685,474.792,479.007,483.221,486.0029,488.135,491.413,494.692" svgx:width="0.5,0.5,0.25,0.5,0.5,0.5,0.5,0.5,0.5,0.25,0.5,0.5,0.5,0.55,0.5,0.55,0.33,0.4,0.48,0.33,0.48,0.4,0.48,0.58,0.44,0.48,0.33,0.55,0.5,0.25,0.5,0.5,0.55,0.33,0.5,0.25,0.5,0.5,0.5,0.5,0.25,0.5,0.5,0.33,0.55,0.39,0.39,0.39,0.55,0.5,0.25,0.5,0.5,0.55,0.33,0.5,0.25,0.5,0.5,0.5,0.5,0.25,0.5,0.5,0.33,0.55,0.39,0.39,0.55,0.5,0.25,0.5,0.5,0.55,0.33,0.5,0.25,0.5,0.5,0.5,0.5,0.25,0.5,0.5,0.33,0.55,0.39,0.39,0.39" style="fill:rgb(0,0,0);font-family:URWPalladioL-Roma;font-size:8.43px;stroke:none;">15,000–29,999 1 (reference) 2.23 (1.57–3.17) *** 1.62 (1.17–2.25) ** 4.66 (3.41–6.35) ***</text>
   <text y="651.437" x="110.192" svgx:width="0.67" style="fill:rgb(0,0,0);font-family:Pxsy;font-size:8.43px;stroke:none;">≥</text>
   <text y="651.437" x="115.831,120.045,124.259,126.366,130.58,134.794,139.00900000000001,184.792,189.007,191.113,193.92,197.097,201.135,203.941,207.978,211.156,215.193,220.099,223.841,227.878,230.6599,258.448,262.662,264.769,268.983,273.198,275.305,278.111,282.326,284.433,288.647,292.861,297.075,301.289,303.397,307.611,311.825,314.6069,316.739,320.017,323.30469999999997,345.91,350.124,352.231,356.445,360.65999999999997,362.766,365.573,369.787,371.894,376.109,380.323,384.537,388.751,390.858,395.073,399.287,402.0689,429.84,434.054,436.161,440.375,444.59,446.697,449.503,453.717,455.825,460.039,464.253,468.467,472.681,476.896,479.003,483.217,485.9989,488.131,491.409,494.688" svgx:width="0.5,0.5,0.25,0.5,0.5,0.5,0.55,0.5,0.55,0.33,0.4,0.48,0.33,0.48,0.4,0.48,0.58,0.44,0.48,0.33,0.55,0.5,0.25,0.5,0.5,0.55,0.33,0.5,0.25,0.5,0.5,0.5,0.5,0.25,0.5,0.5,0.33,0.55,0.39,0.39,0.55,0.5,0.25,0.5,0.5,0.55,0.33,0.5,0.25,0.5,0.5,0.5,0.5,0.25,0.5,0.5,0.33,0.55,0.5,0.25,0.5,0.5,0.55,0.33,0.5,0.25,0.5,0.5,0.5,0.5,0.5,0.25,0.5,0.33,0.55,0.39,0.39,0.39" style="fill:rgb(0,0,0);font-family:URWPalladioL-Roma;font-size:8.43px;stroke:none;">30,000 1 (reference) 2.50 (1.25–5.01) ** 1.02 (0.54–1.94) 6.94 (3.81–12.6) ***</text>
  </g>
  <path style="fill:none;stroke:rgb(0,0,0);stroke-width:0.28;" d="M83.030 656.500 L512.240 656.500 "/>
  <g begin="text">
   <text y="666.475" x="88.729,95.354,99.096,102.839,107.921,112.986,117.201,119.948,122.401,127.003,131.908,136.122,138.56670000000003,140.682,146.658,149.111,153.325,156.898,160.4386,184.788,189.00300000000001,191.109,193.916,197.094,201.131,203.937,207.975,211.152,215.189,220.095,223.837,227.874" svgx:width="0.79,0.44,0.44,0.6,0.6,0.5,0.33,0.29,0.55,0.58,0.5,0.29,0.55,0.71,0.29,0.5,0.42,0.42,0.55,0.5,0.55,0.33,0.4,0.48,0.33,0.48,0.4,0.48,0.58,0.44,0.48,0.33" style="fill:rgb(0,0,0);font-family:URWPalladioL-Roma;font-size:8.43px;stroke:none;">Occupational Class 1 (reference)</text>
  </g>
  <path style="fill:none;stroke:rgb(0,0,0);stroke-width:0.28;" d="M83.030 671.540 L512.240 671.540 "/>
  <g begin="text">
   <text y="681.514" x="93.066,101.494,106.399,108.852,111.6,115.6464,117.744,121.486,126.088,128.541,133.143,136.515,138.579,142.321,144.774,148.988,152.562,156.10260000000002,184.792,189.007,191.113,193.92,197.098,201.135,203.941,207.979,211.156,215.193,220.099,223.841,227.878,230.6599,256.804,261.019,263.126,267.34,271.55499999999995,273.661,276.468,280.682,282.789,287.003,291.218,295.432,299.646,301.753,305.967,310.182,312.9639,315.095,318.374,321.653,324.9407,345.91,350.124,352.231,356.445,360.65999999999997,362.767,365.573,369.787,371.895,376.109,380.323,384.537,388.751,390.859,395.073,399.287,402.0689,429.84,434.054,436.161,440.375,444.59,446.697,449.503,453.718,455.825,460.039,464.253,468.467,472.682,474.789,479.003,483.217,485.9989,488.131,491.41,494.688" svgx:width="1.0,0.58,0.29,0.33,0.48,0.55,0.44,0.55,0.29,0.55,0.4,0.55,0.44,0.29,0.5,0.42,0.42,0.55,0.5,0.55,0.33,0.4,0.48,0.33,0.48,0.4,0.48,0.58,0.44,0.48,0.33,0.55,0.5,0.25,0.5,0.5,0.55,0.33,0.5,0.25,0.5,0.5,0.5,0.5,0.25,0.5,0.5,0.33,0.55,0.39,0.39,0.39,0.55,0.5,0.25,0.5,0.5,0.55,0.33,0.5,0.25,0.5,0.5,0.5,0.5,0.25,0.5,0.5,0.33,0.55,0.5,0.25,0.5,0.5,0.55,0.33,0.5,0.25,0.5,0.5,0.5,0.5,0.25,0.5,0.5,0.33,0.55,0.39,0.39,0.39" style="fill:rgb(0,0,0);font-family:URWPalladioL-Roma;font-size:8.43px;stroke:none;">White color class 1 (reference) 2.22 (1.77–2.78) *** 1.04 (0.84–1.29) 4.24 (3.52–5.11) ***</text>
   <text y="692.039" x="95.991,101.141,103.593,108.676,112.72240000000001,114.82,118.562,123.164,125.617,130.219,133.591,135.655,139.397,141.85,146.064,149.638,153.17860000000002,184.793,189.008,191.114,193.921,197.098,201.135,203.942,207.979,211.157,215.194,220.099,223.842,227.879,230.6609,260.084,264.298,266.405,270.619,274.834,276.941,279.747,283.961,286.069,290.283,294.497,298.711,302.925,305.033,309.247,313.461,316.2429,318.375,321.6627,339.943,344.157,346.264,350.479,354.69399999999996,356.8,359.607,363.821,365.928,370.142,374.356,378.571,382.785,384.892,389.106,393.32,396.1019,398.234,401.513,404.791,408.07869999999997,429.841,434.055,436.162,440.376,444.59099999999995,446.697,449.504,453.718,455.825,460.04,464.254,468.468,472.682,474.789,479.004,483.218,485.9999,488.132,491.41,494.689" svgx:width="0.61,0.29,0.6,0.48,0.55,0.44,0.55,0.29,0.55,0.4,0.55,0.44,0.29,0.5,0.42,0.42,0.55,0.5,0.55,0.33,0.4,0.48,0.33,0.48,0.4,0.48,0.58,0.44,0.48,0.33,0.55,0.5,0.25,0.5,0.5,0.55,0.33,0.5,0.25,0.5,0.5,0.5,0.5,0.25,0.5,0.5,0.33,0.55,0.39,0.55,0.5,0.25,0.5,0.5,0.55,0.33,0.5,0.25,0.5,0.5,0.5,0.5,0.25,0.5,0.5,0.33,0.55,0.39,0.39,0.39,0.55,0.5,0.25,0.5,0.5,0.55,0.33,0.5,0.25,0.5,0.5,0.5,0.5,0.25,0.5,0.5,0.33,0.55,0.39,0.39,0.39" style="fill:rgb(0,0,0);font-family:URWPalladioL-Roma;font-size:8.43px;stroke:none;">Blue color class 1 (reference) 1.82 (1.14–2.90) * 2.18 (1.47–3.25) *** 4.56 (2.95–7.05) ***</text>
   <text y="702.564" x="113.779,120.403,123.151,128.056,132.093,135.46499999999997,184.788,189.00300000000001,191.109,193.916,197.093,201.131,203.937,207.975,211.152,215.189,220.095,223.837,227.874,230.6559,258.444,262.658,264.765,268.979,273.19399999999996,275.301,278.107,282.322,284.429,288.643,292.857,297.071,301.286,303.393,307.607,311.821,314.60290000000003,316.735,320.013,323.30069999999995,341.582,345.796,347.903,352.117,356.332,358.439,361.245,365.46,367.567,371.781,375.995,380.209,384.424,386.531,390.745,394.959,397.7409,399.873,403.151,406.4387,429.844,434.058,436.166,440.38,444.59499999999997,446.701,449.508,453.722,455.829,460.043,464.257,468.472,472.686,474.793,479.007,483.221,486.0029,488.135,491.414,494.693" svgx:width="0.79,0.33,0.58,0.48,0.4,0.55,0.5,0.55,0.33,0.4,0.48,0.33,0.48,0.4,0.48,0.58,0.44,0.48,0.33,0.55,0.5,0.25,0.5,0.5,0.55,0.33,0.5,0.25,0.5,0.5,0.5,0.5,0.25,0.5,0.5,0.33,0.55,0.39,0.39,0.55,0.5,0.25,0.5,0.5,0.55,0.33,0.5,0.25,0.5,0.5,0.5,0.5,0.25,0.5,0.5,0.33,0.55,0.39,0.39,0.55,0.5,0.25,0.5,0.5,0.55,0.33,0.5,0.25,0.5,0.5,0.5,0.5,0.25,0.5,0.5,0.33,0.55,0.39,0.39,0.39" style="fill:rgb(0,0,0);font-family:URWPalladioL-Roma;font-size:8.43px;stroke:none;">Other 1 (reference) 2.09 (1.26–3.46) ** 2.13 (1.31–3.46) ** 3.00 (1.97–4.59) ***</text>
  </g>
  <path style="fill:none;stroke:rgb(0,0,0);stroke-width:0.28;" d="M83.030 707.870 L512.240 707.870 "/>
  <g begin="text">
   <text y="716.908" x="97.795,104.559,109.989,111.98150000000001,115.16,119.891,123.956,128.02,132.085,135.15,140.01170000000002,143.263,146.474,150.539,153.189,155.555,159.994,161.9865,165.733,172.497,177.8369,181.066,185.13,190.097,192.0,196.902,200.349,202.999,206.893,211.7547,214.998,217.705,222.144,225.332,228.493,233.013,236.907,241.638,246.606,250.5,253.125,255.1175,258.58,262.645,267.165,271.059,273.05150000000003,276.514,283.692,288.131,292.862,295.513,300.244,302.61,307.07320000000004,310.268,312.633,317.365,320.974,325.413,332.591,336.485,338.4775,341.948,346.851,350.062,354.557,358.622,363.353,365.719,369.784,373.849,376.499,378.865,383.303,387.9256,391.173,393.538,397.432,402.026,405.92,408.285,410.27750000000003,413.74,417.805,422.536,427.3977,430.641,435.08,438.69,442.299,447.201,452.087,456.152,458.802,461.168,465.606,470.338,474.403,476.71430000000004,479.906,483.516,485.882,489.946,493.393,496.84" svgx:width="0.83,0.67,0.25,0.55,0.58,0.5,0.5,0.5,0.4,0.61,0.55,0.4,0.5,0.33,0.29,0.55,0.25,0.55,0.83,0.67,0.55,0.5,0.61,0.23,0.6,0.42,0.33,0.48,0.61,0.55,0.33,0.55,0.4,0.55,0.56,0.48,0.58,0.61,0.48,0.4,0.25,0.55,0.5,0.56,0.48,0.25,0.55,0.88,0.55,0.58,0.33,0.58,0.29,0.56,0.55,0.29,0.58,0.44,0.55,0.88,0.48,0.25,0.55,0.6,0.4,0.55,0.5,0.58,0.29,0.5,0.5,0.33,0.29,0.55,0.58,0.55,0.29,0.48,0.56,0.48,0.29,0.25,0.55,0.5,0.58,0.61,0.55,0.55,0.44,0.44,0.6,0.6,0.5,0.33,0.29,0.55,0.58,0.5,0.29,0.55,0.44,0.29,0.5,0.42,0.42,0.25" style="fill:rgb(0,0,0);font-family:URWPalladioL-Roma;font-size:7.97px;stroke:none;">HR, hazard ratio; HR adjusted for gender, age, monthly income, urbanization level, and occupational class.</text>
   <text y="726.372" x="97.174,100.274" svgx:width="0.39,0.25" style="fill:rgb(0,0,0);font-family:URWPalladioL-Roma;font-size:7.97px;stroke:none;">*:</text>
   <text y="726.372" x="105.056" svgx:width="0.5" style="fill:rgb(0,0,0);font-family:URWPalladioL-Ital;font-size:7.97px;stroke:none;">p</text>
   <text y="726.372" x="111.033" svgx:width="0.67" style="fill:rgb(0,0,0);font-family:Rpxr;font-size:7.97px;stroke:none;">&lt;</text>
   <text y="726.372" x="118.358,122.343,124.336,128.321,132.306,134.29850000000002,136.291,139.391,142.491" svgx:width="0.5,0.25,0.5,0.5,0.25,0.55,0.39,0.39,0.25" style="fill:rgb(0,0,0);font-family:URWPalladioL-Roma;font-size:7.97px;stroke:none;">0.05; **:</text>
   <text y="726.372" x="147.273" svgx:width="0.5" style="fill:rgb(0,0,0);font-family:URWPalladioL-Ital;font-size:7.97px;stroke:none;">p</text>
   <text y="726.372" x="153.251" svgx:width="0.67" style="fill:rgb(0,0,0);font-family:Rpxr;font-size:7.97px;stroke:none;">&lt;</text>
   <text y="726.372" x="160.576,164.561,166.554,170.539,174.524,176.5165,178.509,181.609,184.709,187.81" svgx:width="0.5,0.25,0.5,0.5,0.25,0.55,0.39,0.39,0.39,0.25" style="fill:rgb(0,0,0);font-family:URWPalladioL-Roma;font-size:7.97px;stroke:none;">0.01; ***:</text>
   <text y="726.372" x="192.591" svgx:width="0.5" style="fill:rgb(0,0,0);font-family:URWPalladioL-Ital;font-size:7.97px;stroke:none;">p</text>
   <text y="726.372" x="198.569" svgx:width="0.67" style="fill:rgb(0,0,0);font-family:Rpxr;font-size:7.97px;stroke:none;">&lt;</text>
   <text y="726.372" x="203.901,207.886,209.879,213.864,217.849,221.834" svgx:width="0.5,0.25,0.5,0.5,0.5,0.25" style="fill:rgb(0,0,0);font-family:URWPalladioL-Roma;font-size:7.97px;stroke:none;">0.001.</text>
  </g>
 </g>
</svg>
