<?xml version="1.0" encoding="UTF-8"?>
<svg height="741.338" width="548.591" xmlns="http://www.w3.org/2000/svg">
 <g id="page" xmlns:svgx="http://www.xml-cml.org/schema/svgx">
  <g begin="text">
   <text y="95.358" x="56.693,65.376,70.732,74.481,80.486,86.378,92.485" svgx:width="0.84,0.52,0.36,0.58,0.57,0.59,0.43" style="fill:rgb(19,20,19);font-family:YfdqqkAdvTTaf7f9f4f.B;font-size:10.3px;stroke:none;">Methods</text>
   <text y="107.32" x="56.693,62.921,67.613,71.441,73.741,79.003,84.155,86.97,91.57,96.741,101.985,104.828,110.191,114.792,118.048,121.204,123.504,127.616,129.916,135.28,139.88,145.133,148.289" svgx:width="0.68,0.51,0.42,0.25,0.57,0.56,0.55,0.5,0.56,0.57,0.55,0.58,0.5,0.35,0.34,0.25,0.45,0.25,0.58,0.5,0.56,0.34,0.42" style="fill:rgb(19,20,19);font-family:QccmkbAdvTT99c4c969;font-size:9.2px;stroke:none;">Design and participants</text>
   <text y="119.339" x="56.693,63.650999999999996,66.326,70.099,73.069,76.744,81.908,86.289,89.278,94.579,98.068,102.449,107.643,110.142,115.345,120.52,124.9,128.516,131.672,134.073,139.169,144.451,149.861,154.084,156.524,160.199,164.609,167.069,173.9,178.28,182.004,184.591,189.795,194.176,198.537,202.917,205.279,210.375,215.422,219.802,224.99599999999998,227.495,232.797,236.452,238.893,244.302,249.006,251.476,256.679,260.942,264.098,268.50800000000004,270.978,273.829,277.328,282.424" svgx:width="0.71,0.55,0.38,0.32,0.38,0.54,0.45,0.32,0.54,0.38,0.45,0.53,0.55,0.53,0.54,0.45,0.38,0.32,0.26,0.52,0.55,0.55,0.45,0.26,0.38,0.45,0.55,0.7,0.45,0.38,0.55,0.53,0.45,0.46,0.45,0.26,0.52,0.53,0.45,0.53,0.55,0.54,0.38,0.26,0.55,0.48,0.55,0.53,0.45,0.32,0.45,0.55,0.29,0.38,0.52,0.83" style="fill:rgb(19,20,19);font-family:VqgpptAdvTT86d47313;font-size:9.8px;stroke:none;">A structured questionnaire was developed using data from</text>
   <text y="131.353" x="56.693,61.897,67.071,72.059,74.607,76.989,80.761,85.946,90.326,95.52,100.234,104.614,108.113,111.269,113.67,118.05,120.471,124.851,128.575,133.338,137.718,142.971,148.165,152.948,156.103,161.277,165.68699999999998,170.46,180.358,185.317,188.992,191.383,196.577,201.359,208.905,213.148,217.529,219.891,223.046,228.338,233.101,240.755,244.273,248.967,253.171,258.581,260.991,265.274,269.655,272.673,275.221,280.16" svgx:width="0.53,0.54,0.52,0.26,0.26,0.38,0.54,0.45,0.53,0.55,0.45,0.38,0.32,0.26,0.45,0.26,0.45,0.38,0.55,0.45,0.55,0.53,0.55,0.32,0.54,0.45,0.55,1.01,0.52,0.38,0.26,0.53,0.55,0.77,0.45,0.45,0.26,0.32,0.54,0.55,0.78,0.38,0.48,0.45,0.55,0.26,0.44,0.45,0.32,0.26,0.52,0.55" style="fill:rgb(19,20,19);font-family:VqgpptAdvTT86d47313;font-size:9.8px;stroke:none;">published articles and the World Health Organization</text>
   <text y="131.353" x="285.501" svgx:width="0.2" style="fill:rgb(19,20,19);font-family:PgnktcAdvTT86d47313;font-size:9.8px;stroke:none;">’</text>
   <text y="131.353" x="286.746" svgx:width="0.38" style="fill:rgb(19,20,19);font-family:VqgpptAdvTT86d47313;font-size:9.8px;stroke:none;">s</text>
   <text y="143.319" x="56.683,61.064,66.032,71.442,75.666,80.046,85.073,88.229,93.354,97.735,100.283,102.88,105.732,109.289,113.67,121.647,126.027,132.76,137.748,141.423,146.323,148.92,153.3,158.553,163.74699999999999,166.432,172.959,178.741,181.397,184.66,191.32399999999998,193.872,198.566,203.682,206.23,211.277,215.657,218.078,220.518,225.927,230.151,233.875,236.609,239.667,244.567" svgx:width="0.45,0.52,0.55,0.45,0.45,0.53,0.32,0.54,0.45,0.26,0.55,0.29,0.38,0.45,0.83,0.45,0.7,0.52,0.38,0.5,0.55,0.45,0.55,0.53,0.55,0.67,0.59,0.55,0.33,0.68,0.55,0.48,0.54,0.26,0.53,0.45,0.26,0.26,0.55,0.45,0.38,0.55,0.32,0.5,0.5" style="fill:rgb(19,20,19);font-family:VqgpptAdvTT86d47313;font-size:9.8px;stroke:none;">conceptual framework and TB IC guidelines [13</text>
   <text y="143.319" x="249.32" svgx:width="0.6" style="fill:rgb(19,20,19);font-family:PgnktcAdvTT86d47313;font-size:9.8px;stroke:none;">–</text>
   <text y="143.319" x="255.16,260.06,264.794,267.949,270.105,272.673,279.023,284.325,286.736" svgx:width="0.5,0.5,0.32,0.22,0.55,0.67,0.54,0.26,0.38" style="fill:rgb(19,20,19);font-family:VqgpptAdvTT86d47313;font-size:9.8px;stroke:none;">15]. This</text>
   <text y="155.334" x="56.683,64.846,67.228,72.02,76.244,81.447,84.858,93.021,97.274,100.43,105.604,110.592,115.796,119.52000000000001,123.969,127.742,130.712,136.013,141.09,145.5,149.929,156.76,161.14,164.86399999999998,169.313,173.694,178.613,184.023,189.099,194.401,198.625,201.78,205.994,211.188,215.628,220.831,226.006,229.681,232.072,237.481,242.185,246.527,250.93699999999998,255.366,260.266,263.696,271.742,276.838,282.12,285.276" svgx:width="0.83,0.26,0.49,0.45,0.53,0.36,0.83,0.45,0.32,0.54,0.52,0.53,0.38,0.55,0.38,0.32,0.54,0.53,0.45,0.55,0.7,0.45,0.38,0.55,0.45,0.52,0.55,0.53,0.54,0.45,0.32,0.45,0.53,0.55,0.53,0.54,0.38,0.26,0.55,0.48,0.55,0.45,0.55,0.5,0.36,0.83,0.52,0.55,0.32,0.54" style="fill:rgb(19,20,19);font-family:VqgpptAdvTT86d47313;font-size:9.8px;stroke:none;">mixed-methods study was conducted during a 3-month</text>
   <text y="167.348" x="56.683,61.887,66.091,69.766,72.157,77.253,82.447,84.966,87.817,91.316,96.412,104.546,107.074,110.132,115.296,117.736,122.146,124.714,127.87,132.966,135.484,140.355,144.735,149.821,152.977,157.191,165.354,170.284,174.664,178.38799999999998,180.828,185.728,190.462,195.361,200.095" svgx:width="0.53,0.45,0.38,0.26,0.52,0.53,0.55,0.29,0.38,0.52,0.83,0.55,0.31,0.54,0.26,0.45,0.55,0.32,0.52,0.55,0.51,0.45,0.53,0.32,0.45,0.83,0.52,0.45,0.38,0.55,0.5,0.5,0.5,0.5,0.22" style="fill:rgb(19,20,19);font-family:VqgpptAdvTT86d47313;font-size:9.8px;stroke:none;">period from July to September 2014.</text>
   <text y="179.314" x="64.68,74.578,78.988,81.859,86.24,91.649,95.324,100.42,102.968,105.516,109.897,115.09100000000001,118.03,125.576,132.211,142.177,145.90099999999998,148.812,153.193,161.356,166.56,169.108,174.204,178.584,182.965,188.159,191.108,195.489,198.625,201.535,204.691,209.993,214.403,217.235,224.683,229.142,232.297,234.845,239.941,245.351,249.731,252.279,255.16,261.687,267.469,270.409,277.955,283.051,286.961" svgx:width="1.01,0.45,0.55,0.45,0.55,0.38,0.52,0.26,0.26,0.45,0.53,0.55,0.77,0.68,1.01,0.38,0.55,0.45,0.83,0.53,0.26,0.52,0.45,0.45,0.53,0.55,0.45,0.32,0.55,0.32,0.54,0.45,0.55,0.76,0.45,0.32,0.26,0.52,0.55,0.45,0.26,0.55,0.67,0.59,0.55,0.77,0.52,0.38,0.36" style="fill:rgb(19,20,19);font-family:VqgpptAdvTT86d47313;font-size:9.8px;stroke:none;">We enrolled HCWs employed at the National TB Hos-</text>
   <text y="191.329" x="56.683,61.887,64.435,67.59,71.971,74.519,76.67500000000001,83.721,89.846,94.227,96.774,101.155,103.703,108.397,113.68900000000001,120.745,125.841,128.389,131.545,136.444,138.992,144.382,151.468,160.552,164.933,173.096,178.192,181.867,184.523,188.903,191.451,198.409,201.565,207.582,212.678,221.762,224.898,232.033,239.579,244.675,248.448,253.651,256.199,259.355,263.735,266.283,268.439,275.515,279.895,285.305" svgx:width="0.53,0.26,0.32,0.45,0.26,0.22,0.55,0.61,0.45,0.26,0.45,0.26,0.48,0.54,0.55,0.52,0.26,0.32,0.5,0.26,0.55,0.55,0.93,0.45,0.83,0.52,0.38,0.26,0.45,0.26,0.55,0.32,0.61,0.52,0.93,0.32,0.55,0.77,0.52,0.38,0.53,0.26,0.32,0.45,0.26,0.22,0.55,0.45,0.55,0.53" style="fill:rgb(19,20,19);font-family:VqgpptAdvTT86d47313;font-size:9.8px;stroke:none;">pital, Raleigh Fitkin Memorial (RFM) Hospital, and</text>
   <text y="203.343" x="56.683,61.681,66.777,72.079,75.234,80.536,85.024,88.699,94.089,97.607,104.546,107.476,111.151,113.699,118.079,122.48899999999999,126.017,133.465,137.846,142.285,146.666,150.341,154.721,160.131,164.541,168.079,175.223,180.632,183.18,187.669,192.049,195.802,199.575,202.123,205.279,209.689,213.207,216.363,221.361,228.299,235.825,243.077,246.213,249.771,252.318,257.414,261.795,266.176,269.331,273.712,278.906,282.541,285.089" svgx:width="0.51,0.52,0.54,0.32,0.54,0.45,0.38,0.55,0.55,0.71,0.29,0.38,0.26,0.45,0.45,0.55,0.76,0.45,0.44,0.45,0.38,0.45,0.55,0.45,0.55,0.73,0.55,0.26,0.46,0.45,0.38,0.38,0.26,0.32,0.45,0.55,0.32,0.51,0.71,0.76,0.73,0.32,0.55,0.26,0.52,0.45,0.45,0.32,0.45,0.53,0.55,0.26,0.55" style="fill:rgb(19,20,19);font-family:VqgpptAdvTT86d47313;font-size:9.8px;stroke:none;">Southern Africa Nazarene University (SANU) located in</text>
   <text y="215.309" x="56.683,59.839,65.14,69.55,72.559,81.643,86.024,91.434,95.804,98.352,103.762,106.31,109.299,115.316,119.696,124.391,126.939,132.142,137.552,139.708,142.687,147.685,154.516,158.896,163.267,165.815,168.363,172.743,178.153,183.357,185.513,188.551,195.489,198.037,200.585,203.633,211.179,217.813,227.711,231.435,234.532,237.08,242.47000000000003,245.527,248.683,253.985,258.365,262.138,266.548,269.566,272.722,278.024,281.699,286.079" svgx:width="0.32,0.54,0.45,0.55,0.93,0.45,0.55,0.44,0.26,0.55,0.26,0.55,0.61,0.45,0.48,0.26,0.52,0.55,0.22,0.55,0.51,0.7,0.45,0.44,0.26,0.26,0.45,0.55,0.53,0.22,0.55,0.71,0.26,0.26,0.55,0.77,0.68,1.01,0.38,0.55,0.26,0.55,0.55,0.32,0.54,0.45,0.38,0.45,0.55,0.32,0.54,0.38,0.45,0.45" style="fill:rgb(19,20,19);font-family:VqgpptAdvTT86d47313;font-size:9.8px;stroke:none;">the Manzini Region, Swaziland. All HCWs in these three</text>
   <text y="227.324" x="56.683,59.231,64.641,68.414,71.569,74.117,77.273,82.574,85.73,90.248,93.97200000000001,98.411,105.242,109.622,113.376,117.786,122.215,126.596,129.144,131.692,136.386,138.934,144.03,146.578,150.988,155.437,158.288,163.384,167.10799999999998,171.538,175.919,181.328,185.003,190.099,192.647,195.293,203.456,207.837,213.246,216.549,218.705,223.125,225.673,231.082,235.463,238.011,243.312,248.516,251.064,256.572,261.276,265.695,270.899,276.201,280.581,284.354,286.902" svgx:width="0.26,0.55,0.38,0.32,0.26,0.32,0.54,0.32,0.45,0.38,0.55,0.7,0.45,0.38,0.45,0.55,0.45,0.26,0.26,0.48,0.26,0.52,0.26,0.45,0.55,0.29,0.52,0.38,0.55,0.45,0.55,0.38,0.52,0.26,0.26,0.83,0.45,0.55,0.32,0.22,0.55,0.26,0.55,0.45,0.26,0.54,0.53,0.26,0.55,0.48,0.55,0.53,0.54,0.45,0.38,0.26,0.36" style="fill:rgb(19,20,19);font-family:VqgpptAdvTT86d47313;font-size:9.8px;stroke:none;">institutes were eligible for enrollment, including physi-</text>
   <text y="239.338" x="56.683,61.064,63.612,67.992,73.402,77.429,79.58500000000001,85.083,90.493,95.794,99.469,103.242,107.701,111.67,113.82600000000001,119.324,123.705,129.114,134.308,139.845,144.226,146.774,149.322,151.87,156.25,161.444,167.001,174.546,181.181,191.148,194.921,197.077,202.545,212.443,217.539,221.214,226.182,230.563,234.238,237.962,243.528,248.938,254.034,257.17,262.687,266.362,270.742,273.29,277.769,280.924,285.305" svgx:width="0.45,0.26,0.45,0.55,0.38,0.22,0.55,0.55,0.54,0.38,0.38,0.45,0.38,0.22,0.55,0.45,0.55,0.53,0.55,0.45,0.26,0.26,0.26,0.45,0.53,0.55,0.77,0.68,1.01,0.38,0.22,0.55,1.01,0.52,0.38,0.5,0.45,0.38,0.38,0.55,0.55,0.52,0.32,0.55,0.38,0.45,0.26,0.45,0.32,0.45,0.53" style="fill:rgb(19,20,19);font-family:VqgpptAdvTT86d47313;font-size:9.8px;stroke:none;">cians, nurses, and allied HCWs. Workers not related</text>
   <text y="251.304" x="56.683,63.514,66.062,69.217,74.509,80.32,84.701,87.249,89.797,95.207,97.754,102.135,106.516,109.06400000000001,114.904,120.206,124.587,128.967,131.515,134.671,139.963,145.803,150.184,154.564,158.239,162.649,168.363,175.193,179.574,183.327,187.737,193.47,198.88,203.976,207.112,212.854,215.402,220.812,225.271,227.819,233.12,238.324,242.705,247.899,253.671,256.219,261.628,264.784,269.88,275.672,278.827,284.129,286.677" svgx:width="0.7,0.26,0.32,0.54,0.55,0.45,0.26,0.26,0.55,0.26,0.45,0.45,0.26,0.55,0.54,0.45,0.45,0.26,0.32,0.54,0.55,0.45,0.45,0.38,0.45,0.55,0.7,0.45,0.38,0.45,0.55,0.55,0.52,0.32,0.55,0.26,0.55,0.45,0.26,0.54,0.53,0.45,0.53,0.55,0.26,0.55,0.32,0.52,0.55,0.32,0.54,0.26,0.38" style="fill:rgb(19,20,19);font-family:VqgpptAdvTT86d47313;font-size:9.8px;stroke:none;">with clinical health care were not included into this</text>
   <text y="263.319" x="56.683,60.456,63.612,68.913,74.117,78.498,80.65400000000001,84.574,91.1,96.402,101.498,105.271,109.681,113.483,120.314,122.862,126.017,131.309,135.249,139.629,144.324,148.734,152.654,157.955,163.365,168.569,172.949,176.673,180.544,185.444,190.344,194.264,201.094,205.475,209.15,213.56,217.45,222.86,227.956,231.09199999999998,235.022,239.402,244.812,248.487,253.583,256.131,258.679,263.059,268.263,270.419,274.368,280.895,286.197" svgx:width="0.38,0.32,0.54,0.53,0.45,0.22,0.55,0.67,0.54,0.52,0.38,0.45,0.55,0.7,0.26,0.32,0.54,0.55,0.45,0.48,0.45,0.55,0.54,0.55,0.53,0.45,0.38,0.55,0.5,0.5,0.55,0.7,0.45,0.38,0.45,0.55,0.55,0.52,0.32,0.55,0.45,0.55,0.38,0.52,0.26,0.26,0.45,0.53,0.22,0.55,0.67,0.54,0.45" style="fill:rgb(19,20,19);font-family:VqgpptAdvTT86d47313;font-size:9.8px;stroke:none;">study. Those with age under 18 were not enrolled. The</text>
   <text y="275.333" x="56.683,59.839,64.935,68.09,72.471,75.019,79.135,84.544,89.846,98.009,103.105,107.486,111.21000000000001,115.247,120.343,123.185,127.213,131.594,134.141,136.689,141.384,143.932,149.028,151.576,155.986,160.092,165.295,169.676,173.351,176.506,179.054,183.435,185.983,191.187,195.567,200.977,204.368,208.09199999999998,212.129,218.96,223.526,227.25,231.288,236.384,241.48,244.635,249.016,251.564,257.081,261.462,266.656,270.683,273.535,277.21,282.306" svgx:width="0.32,0.52,0.32,0.45,0.26,0.55,0.55,0.54,0.83,0.52,0.45,0.38,0.55,0.52,0.29,0.55,0.45,0.26,0.26,0.48,0.26,0.52,0.26,0.45,0.55,0.53,0.45,0.38,0.32,0.26,0.45,0.26,0.53,0.45,0.55,0.32,0.38,0.55,0.7,0.45,0.38,0.55,0.52,0.52,0.32,0.45,0.26,0.55,0.45,0.53,0.55,0.29,0.38,0.52,0.83" style="fill:rgb(19,20,19);font-family:VqgpptAdvTT86d47313;font-size:9.8px;stroke:none;">total number of eligible participants was obtained from</text>
   <text y="287.299" x="56.683,59.839,65.14,69.55,73.637,78.841,83.221,88.425,92.806,96.48,99.636,107.799,112.298,117.707,120.97,124.694,128.85,133.946,136.788,141.099,146.401,151.703,159.866,164.247,169.637,173.811,177.486,181.867,185.64,190.736,196.038,199.713,204.201,208.582,212.354,214.51000000000002,218.597,225.555,229.593,234.796,239.892,246.723,251.191,254.915,258.953,263.334,267.714,270.262,274.643,279.944,282.492,286.873" svgx:width="0.32,0.54,0.45,0.55,0.53,0.45,0.53,0.45,0.38,0.32,0.83,0.45,0.55,0.32,0.38,0.55,0.52,0.29,0.55,0.54,0.54,0.83,0.45,0.55,0.55,0.38,0.45,0.38,0.52,0.54,0.38,0.45,0.45,0.38,0.22,0.55,0.71,0.55,0.53,0.52,0.7,0.45,0.38,0.55,0.45,0.45,0.26,0.45,0.54,0.26,0.45,0.36" style="fill:rgb(19,20,19);font-family:VqgpptAdvTT86d47313;font-size:9.8px;stroke:none;">the departments of human resources. A power calcula-</text>
   <text y="299.314" x="56.683,59.839,62.387,67.483,72.873,75.901,82.731,87.239,90.96300000000001,93.933,99.342,104.438,107.574,110.602,115.806,120.902,126.311,130.721,133.671,138.767,143.148,145.999,151.193,154.868,159.249,164.551,168.931,174.341,179.544" svgx:width="0.32,0.26,0.52,0.55,0.55,0.7,0.45,0.38,0.55,0.55,0.52,0.32,0.55,0.53,0.52,0.55,0.45,0.55,0.52,0.45,0.29,0.52,0.38,0.45,0.54,0.45,0.55,0.53,0.22" style="fill:rgb(19,20,19);font-family:VqgpptAdvTT86d47313;font-size:9.8px;stroke:none;">tion was not done beforehand.</text>
   <text y="311.328" x="64.68,71.207,76.508,80.91799999999999,84.182,91.63,96.088,99.244,101.792,106.888,112.298,116.678,119.226,122.617,129.144,134.92600000000002,138.375,145.921,151.017,154.79,159.994,162.542,165.697,170.176,172.724,176.075,178.623,182.34699999999998,185.767,190.177,193.539,198.439,203.339,208.239,211.806,216.902,221.282,226.476,229.936,235.139,240.441,245.537,248.085,250.633,255.043,258.394,263.696,268.792,272.565,277.769,280.317,283.57,287.951" svgx:width="0.67,0.54,0.45,0.55,0.76,0.45,0.32,0.26,0.52,0.55,0.45,0.26,0.55,0.67,0.59,0.55,0.77,0.52,0.38,0.53,0.26,0.32,0.45,0.26,0.55,0.26,0.38,0.55,0.45,0.55,0.5,0.5,0.5,0.36,0.52,0.45,0.53,0.55,0.53,0.54,0.52,0.26,0.26,0.45,0.55,0.54,0.52,0.38,0.53,0.26,0.32,0.45,0.26" style="fill:rgb(19,20,19);font-family:VqgpptAdvTT86d47313;font-size:9.8px;stroke:none;">The National TB Hospital is a 100-bed public hospital</text>
   <text y="323.294" x="56.683,59.535,64.631,68.355,71.589,74.744,80.046,84.456,87.69,90.846,94.521,98.901,103.282,106.437,114.601,119.099,124.508,127.64399999999999,130.888,135.984,138.82600000000002,142.109,148.636,154.447,156.603,159.856,166.266,171.567,175.977,179.25,185.268,190.364,199.478,202.721,210.267,215.363,219.136,224.34,226.888,230.043,234.522,237.07,240.304,242.852,246.576,249.888,254.298,257.483,262.383,267.283,272.183,275.75,280.846,285.315" svgx:width="0.29,0.52,0.38,0.55,0.32,0.54,0.45,0.55,0.32,0.38,0.45,0.45,0.32,0.83,0.45,0.55,0.32,0.55,0.52,0.29,0.55,0.67,0.59,0.22,0.55,0.67,0.54,0.45,0.55,0.61,0.52,0.93,0.55,0.77,0.52,0.38,0.53,0.26,0.32,0.45,0.26,0.55,0.26,0.38,0.55,0.45,0.55,0.5,0.5,0.5,0.36,0.52,0.45,0.53" style="fill:rgb(19,20,19);font-family:VqgpptAdvTT86d47313;font-size:9.8px;stroke:none;">for the treatment of TB. The RFM Hospital is a 350-bed</text>
   <text y="335.309" x="56.683,60.358,64.739,69.433,71.981,77.077,82.486,86.955,89.503,94.775,98.45,102.831,105.683,110.063,113.826,117.501,121.882,124.43,129.761,134.141,139.551,144.74499999999998,150.115,153.271,157.651,162.032,166.413,171.714,174.262,179.672,184.376,189.746,195.048,200.144,203.917,209.121,211.669,214.922,219.303,221.851,227.172,232.376,236.051,241.147,245.635,248.183,253.387,256.033,261.442,266.146,271.448,276.652,281.032,283.58,286.128" svgx:width="0.38,0.45,0.48,0.26,0.52,0.55,0.45,0.26,0.55,0.38,0.45,0.29,0.45,0.38,0.38,0.45,0.26,0.55,0.45,0.55,0.53,0.55,0.32,0.45,0.45,0.45,0.54,0.26,0.55,0.48,0.55,0.54,0.52,0.38,0.53,0.26,0.32,0.45,0.26,0.55,0.53,0.38,0.52,0.46,0.26,0.53,0.26,0.55,0.48,0.55,0.53,0.45,0.26,0.26,0.45" style="fill:rgb(19,20,19);font-family:VqgpptAdvTT86d47313;font-size:9.8px;stroke:none;">regional referral and teaching hospital providing daily</text>
   <text y="347.323" x="56.683,60.456,64.837,68.874,73.363,75.91,80.291,84.672,88.396,92.178,95.334,100.43,104.085,108.466,113.67,118.873,122.627,127.723,132.515,135.063,143.226,147.607,150.86,155.241,157.789,162.19899999999998,165.825,170.725,175.693,180.59300000000002,184.248,189.452,193.833,196.988,199.536,203.917,209.424,212.658,216.38199999999998,220.145,222.693,228.08300000000003,231.768,236.864,242.166,245.321,250.525,254.906,258.061,260.609,264.99,270.546,273.682,277.347,282.551,286.932" svgx:width="0.38,0.45,0.38,0.46,0.26,0.45,0.45,0.38,0.55,0.32,0.52,0.55,0.45,0.53,0.53,0.38,0.52,0.49,0.26,0.83,0.45,0.32,0.45,0.26,0.45,0.55,0.5,0.5,0.5,0.55,0.53,0.45,0.32,0.26,0.45,0.55,0.32,0.38,0.55,0.26,0.55,0.55,0.52,0.54,0.32,0.53,0.45,0.32,0.26,0.45,0.55,0.32,0.55,0.53,0.45,0.36" style="fill:rgb(19,20,19);font-family:VqgpptAdvTT86d47313;font-size:9.8px;stroke:none;">services to approximately 500 patients in outpatient de-</text>
   <text y="359.289" x="56.683,61.887,66.267,69.942,73.098,81.34,85.72,91.13,94.432,98.205,100.361,103.389,108.387,115.326,122.774,129.928,133.044,135.592,139.316,142.452,146.862,149.939,155.349,159.729,166.58900000000003,169.666,174.968,180.377,182.925,187.414,191.794,195.469,199.242,201.79,204.946,209.356,212.521,217.725,222.213,226.702,231.082,233.63,238.726,243.93,248.408,253.60199999999998,256.689,261.785,266.19500000000005,269.272,273.653,278.749,286.912" svgx:width="0.53,0.45,0.38,0.32,0.83,0.45,0.55,0.32,0.38,0.22,0.55,0.51,0.71,0.76,0.73,0.55,0.26,0.38,0.55,0.45,0.55,0.55,0.45,0.7,0.55,0.54,0.55,0.26,0.46,0.45,0.38,0.38,0.26,0.32,0.45,0.55,0.53,0.45,0.46,0.45,0.26,0.52,0.53,0.45,0.53,0.55,0.52,0.45,0.55,0.45,0.52,0.83,0.36" style="fill:rgb(19,20,19);font-family:VqgpptAdvTT86d47313;font-size:9.8px;stroke:none;">partments. SANU is a new university developed by com-</text>
   <text y="371.304" x="56.683,61.779,64.327,69.737,72.285,77.772,82.476,86.387,89.542,94.844,98.519,102.997,107.407,111.445,115.825,120.921,123.469,126.017,130.398,135.092,139.473,143.53,145.686,149.655,152.81,158.112,162.522,166.491,173.939,178.319,182.759,187.139,190.814,195.195,200.604,205.014,209.003,215.637,220.733,223.281,225.829,230.21,234.904,239.314,243.303,248.399,251.241,255.268,262.716,268.018,271.693,275.466,278.014,283.423,288.372" svgx:width="0.52,0.26,0.55,0.26,0.55,0.48,0.55,0.32,0.54,0.38,0.45,0.45,0.55,0.45,0.52,0.26,0.26,0.45,0.48,0.45,0.38,0.22,0.55,0.32,0.54,0.45,0.55,0.76,0.45,0.44,0.45,0.38,0.45,0.55,0.45,0.55,0.68,0.52,0.26,0.26,0.45,0.48,0.45,0.55,0.52,0.29,0.55,0.76,0.54,0.38,0.38,0.26,0.55,0.48,0.22" style="fill:rgb(19,20,19);font-family:VqgpptAdvTT86d47313;font-size:9.8px;stroke:none;">bining three colleges, the Nazarene College of Nursing,</text>
   <text y="383.319" x="56.683,64.131,68.512,72.951,77.331,81.006,85.387,90.797,95.207,99.43,105.957,110.338,114.718,119.099,124.4,128.781,132.505,137.248,143.775,147.45,151.83,154.378,159.866,162.414,167.824,172.733,174.889,179.593,183.974,189.384,194.57799999999997,199.321,202.476,207.778,212.188,216.892,224.34,228.799,233.16,237.54,241.215,245.596,251.005,255.415,260.149,266.783,271.879,274.427,276.975,281.356,286.05" svgx:width="0.76,0.45,0.44,0.45,0.38,0.45,0.55,0.45,0.55,0.67,0.45,0.45,0.45,0.54,0.45,0.38,0.55,0.67,0.38,0.45,0.26,0.55,0.26,0.55,0.48,0.22,0.55,0.45,0.55,0.53,0.55,0.32,0.54,0.45,0.55,0.76,0.45,0.44,0.45,0.38,0.45,0.55,0.45,0.55,0.68,0.52,0.26,0.26,0.45,0.48,0.45" style="fill:rgb(19,20,19);font-family:VqgpptAdvTT86d47313;font-size:9.8px;stroke:none;">Nazarene Teacher Training, and the Nazarene College</text>
   <text y="395.284" x="56.683,61.779,64.62100000000001,67.679,74.205,79.507,83.888,88.984,91.532,96.627,101.322,105.702,107.858,110.877,117.403,122.705,127.115,130.035,133.808,136.964,142.266,147.558,151.968,154.986,158.759,161.307,164.462,168.843,172.56699999999998,175.683,182.514,186.894,190.569,194.97899999999998,198.135,202.515,205.063,209.591,213.364,217.137,219.685,222.537,225.085,229.465,234.659,237.766,240.314,245.723,248.879,253.975,257.042,260.198,267.028,272.124,275.182,279.562,283.943,286.971" svgx:width="0.52,0.29,0.55,0.67,0.54,0.45,0.52,0.26,0.52,0.48,0.45,0.22,0.55,0.67,0.54,0.45,0.55,0.38,0.32,0.54,0.53,0.45,0.55,0.38,0.26,0.32,0.45,0.38,0.55,0.7,0.45,0.38,0.45,0.55,0.45,0.26,0.45,0.38,0.38,0.26,0.29,0.26,0.45,0.53,0.55,0.26,0.55,0.32,0.52,0.55,0.32,0.7,0.52,0.55,0.45,0.45,0.32,0.36" style="fill:rgb(19,20,19);font-family:VqgpptAdvTT86d47313;font-size:9.8px;stroke:none;">of Theology. The study sites were classified into two cat-</text>
   <text y="407.299" x="56.683,61.064,65.758,70.854,74.529,77.077,81.457,85.426,87.58200000000001,91.718,98.244,104.026,108.211,111.063,115.443,119.824,122.372,124.92,127.468,130.623,135.033,139.277,142.432,149.88,154.261,157.416,159.964,165.06,170.568,174.948,177.496,181.681,188.208,193.99,198.174,205.72,210.816,214.589,219.793,222.341,225.496,229.975,232.523,235.659,239.843,244.224,249.633,254.827,259.002,264.412,269.507,274.986,278.161,284.688" svgx:width="0.45,0.48,0.52,0.38,0.26,0.45,0.38,0.22,0.55,0.67,0.59,0.55,0.29,0.45,0.45,0.26,0.26,0.26,0.32,0.45,0.55,0.32,0.76,0.45,0.32,0.26,0.52,0.55,0.45,0.26,0.55,0.67,0.59,0.55,0.77,0.52,0.38,0.53,0.26,0.32,0.45,0.26,0.32,0.55,0.45,0.55,0.53,0.55,0.55,0.52,0.55,0.36,0.67,0.59" style="fill:rgb(19,20,19);font-family:VqgpptAdvTT86d47313;font-size:9.8px;stroke:none;">egories: TB facility (National TB Hospital) and non-TB</text>
   <text y="419.314" x="56.683,59.535,63.915,68.296,70.844,73.392,75.94,79.095,83.505,87.925,91.081,97.098,102.194,111.308,115.649,123.195,128.291,132.064,137.268,139.816,142.971,147.45,149.998,154.31,158.69,164.1,169.29399999999998,173.645,178.643,185.581,193.029,200.35,203.505,205.661,209.983,216.51,222.292,226.653,229.504,233.963,238.344,240.892,243.44,245.988,249.143,253.553,257.885,264.715,269.223,272.947,277.328,282.532,286.912" svgx:width="0.29,0.45,0.45,0.26,0.26,0.26,0.32,0.45,0.55,0.32,0.61,0.52,0.93,0.55,0.77,0.52,0.38,0.53,0.26,0.32,0.45,0.26,0.55,0.45,0.55,0.53,0.55,0.51,0.71,0.76,0.73,0.32,0.22,0.55,0.67,0.59,0.55,0.29,0.45,0.45,0.26,0.26,0.26,0.32,0.45,0.55,0.7,0.45,0.38,0.55,0.53,0.45,0.36" style="fill:rgb(19,20,19);font-family:VqgpptAdvTT86d47313;font-size:9.8px;stroke:none;">facility (RFM Hospital and SANU). TB facility was de-</text>
   <text y="431.279" x="56.683,59.535,62.083,67.492,71.873,77.06700000000001,82.31,85.465,90.767,95.17699999999999,100.342,104.017,108.397,111.249,115.629,119.304,122.979,127.36,129.908,135.151,140.453,145.549,149.322,154.525,157.073,160.229,164.609,167.157,172.4,175.252,180.348,184.072,189.178,195.704,201.48600000000002,206.808,211.188,216.598,221.792,226.986,232.395,237.491,242.901,246.096,252.622,258.404,263.618,266.47,270.85,275.231,277.779,280.327,282.875,286.03" svgx:width="0.29,0.26,0.55,0.45,0.53,0.55,0.32,0.54,0.45,0.55,0.38,0.45,0.29,0.45,0.38,0.38,0.45,0.26,0.55,0.54,0.52,0.38,0.53,0.26,0.32,0.45,0.26,0.55,0.29,0.52,0.38,0.55,0.67,0.59,0.55,0.45,0.55,0.53,0.55,0.55,0.52,0.55,0.36,0.67,0.59,0.55,0.29,0.45,0.45,0.26,0.26,0.26,0.32,0.45" style="fill:rgb(19,20,19);font-family:VqgpptAdvTT86d47313;font-size:9.8px;stroke:none;">fined the referral hospital for TB and non-TB facility</text>
   <text y="443.294" x="56.683,63.514,68.022,71.74600000000001,74.764,79.968,84.348,87.2,89.748,95.158,99.538,104.732,107.76,112.239,115.96300000000001,118.981,124.283,128.663,133.044,135.592,138.747,144.157,148.538,152.918,156.593,161.003,163.943,166.491,171.901,175.673,178.829,181.465,184.621,189.923,193.078,197.488,200.457,203.309,208.405,212.129,215.03,219.724,224.105,229.514,233.895,237.648,242.029,244.577,247.517,252.72,255.268,259.041,263.5,267.979,271.752,276.132,279.905" svgx:width="0.7,0.45,0.38,0.55,0.53,0.45,0.29,0.26,0.55,0.45,0.53,0.55,0.45,0.38,0.55,0.54,0.45,0.45,0.26,0.32,0.54,0.45,0.45,0.38,0.45,0.55,0.26,0.55,0.38,0.32,0.26,0.32,0.54,0.32,0.45,0.55,0.29,0.52,0.38,0.55,0.48,0.45,0.55,0.45,0.38,0.45,0.26,0.55,0.53,0.26,0.38,0.45,0.45,0.38,0.45,0.38,0.22" style="fill:rgb(19,20,19);font-family:VqgpptAdvTT86d47313;font-size:9.8px;stroke:none;">was defined as healthcare institute for general diseases.</text>
   <text y="467.32" x="56.693,63.105,68.276,72.968,76.795,79.951,82.251,87.421,92.693,97.863,102.463,104.763,108.02" svgx:width="0.7,0.56,0.51,0.42,0.34,0.25,0.56,0.56,0.56,0.5,0.25,0.35,0.51" style="fill:rgb(19,20,19);font-family:QccmkbAdvTT99c4c969;font-size:9.2px;stroke:none;">Questionnaire</text>
   <text y="479.339" x="56.693,63.22,68.521,72.931,76.93,80.703,86.004,90.022,94.511,98.891,103.301,107.427,109.975,115.384,119.765,122.313,127.615,132.819,137.199,142.393,146.548,149.096,152.252,156.632,164.796,168.51999999999998,172.743,175.595,180.691,184.415,188.502,196.665,201.045,205.563,209.336,214.638,218.313,220.861,226.27,230.97400000000002,235.1,238.256,243.557,247.96699999999998,252.103,257.307,260.982,266.078,268.929,271.477,274.025,278.435,282.551,287.647" svgx:width="0.67,0.54,0.45,0.55,0.38,0.54,0.38,0.46,0.45,0.45,0.55,0.26,0.55,0.45,0.26,0.54,0.53,0.45,0.53,0.55,0.26,0.32,0.45,0.83,0.38,0.55,0.29,0.52,0.38,0.55,0.83,0.45,0.45,0.38,0.54,0.38,0.26,0.55,0.48,0.55,0.32,0.54,0.45,0.55,0.53,0.38,0.52,0.29,0.26,0.26,0.45,0.55,0.52,0.29" style="fill:rgb(19,20,19);font-family:VqgpptAdvTT86d47313;font-size:9.8px;stroke:none;">The survey included items for measuring the profile of</text>
   <text y="491.353" x="56.693,59.956,66.62,71.314,79.478,83.858,88.435,92.208,97.509,101.184,105.565,109.289,114.12,116.972,122.068,125.792,130.506,135.709,139.384,143.883,148.371,152.752,158.161,161.405,163.953,169.362,174.066,178.692,185.219,191.001,195.812,198.968,202.643,207.023,212.433,216.206,224.369,226.917,230.788,234.561,237.109,242.205,247.59500000000003,252.387,254.935,260.345,264.725,267.273,272.575,277.779,280.327,285.834" svgx:width="0.33,0.68,0.55,0.83,0.45,0.45,0.38,0.54,0.38,0.45,0.38,0.55,0.29,0.52,0.38,0.55,0.53,0.38,0.45,0.46,0.45,0.55,0.32,0.26,0.55,0.48,0.55,0.67,0.59,0.55,0.32,0.38,0.45,0.55,0.38,0.83,0.26,0.38,0.38,0.26,0.52,0.55,0.55,0.26,0.55,0.45,0.26,0.54,0.53,0.26,0.55,0.48" style="fill:rgb(19,20,19);font-family:VqgpptAdvTT86d47313;font-size:9.8px;stroke:none;">IC measures for preventing TB transmission including</text>
   <text y="503.319" x="56.693,61.073,66.277,74.441,76.988,82.486,85.034,88.807,91.963,95.638,100.018,103.174,105.722,110.21,114.61999999999999,122.058,130.222,134.602,139.179,142.952,148.253,151.928,156.309,160.327,162.483,169.911,174.292,179.701,184.19,186.738,190.413,195.508,200.918,209.081,213.56,218.969,222.125,226.506,229.054,236.521,240.902,245.998,251.407,254.563,258.238,263.334,265.882,268.038,275.525,279.905,285.315" svgx:width="0.45,0.53,0.83,0.26,0.55,0.26,0.38,0.32,0.38,0.45,0.32,0.26,0.46,0.45,0.55,0.83,0.45,0.45,0.38,0.54,0.38,0.45,0.38,0.22,0.55,0.45,0.55,0.46,0.26,0.38,0.52,0.55,0.83,0.45,0.55,0.32,0.45,0.26,0.55,0.45,0.52,0.55,0.32,0.38,0.52,0.26,0.22,0.55,0.45,0.55,0.53" style="fill:rgb(19,20,19);font-family:VqgpptAdvTT86d47313;font-size:9.8px;stroke:none;">administrative measures, environmental control, and</text>
   <text y="515.334" x="56.693,61.897,66.277,69.952,73.725,78.821,84.231,88.729,91.277,98.254,103.458,107.133,112.317,115.473,119.971,124.351,127.507,130.055,134.543,138.953,145.99,151.086,155.466,160.768,165.148,169.637,172.185,177.281,181.005,188.002,191.157,194.93,199.311,203.721,210.738,217.676,222.88,228.083,230.631,233.865,236.413,241.509,246.919,251.299,253.847,260.903,263.755,266.303,268.851,273.261,280.287,285.187,288.343" svgx:width="0.53,0.45,0.38,0.38,0.52,0.55,0.45,0.26,0.55,0.53,0.38,0.52,0.32,0.45,0.45,0.32,0.26,0.46,0.45,0.55,0.52,0.45,0.54,0.45,0.46,0.26,0.52,0.38,0.55,0.32,0.38,0.45,0.45,0.55,0.71,0.53,0.53,0.26,0.32,0.26,0.52,0.55,0.45,0.26,0.55,0.29,0.26,0.26,0.45,0.55,0.5,0.32,0.22" style="fill:rgb(19,20,19);font-family:VqgpptAdvTT86d47313;font-size:9.8px;stroke:none;">personal protective behavior (see Additional file 1).</text>
   <text y="527.348" x="56.693,64.347,69.648,74.029,77.802,80.957,83.505,88.729,94.138,97.86200000000001,101.488,105.163,109.544,112.092,116.472,119.628,124.106,129.29999999999998,132.897,136.052,141.148,144.745,147.901,153.202,157.612,161.189,164.864,167.412,171.185,176.085,179.731,184.827,187.669,191.295,197.821,203.603,207.229,209.777,215.187,218.038,222.537,226.917,230.073,232.621,237.717,243.10700000000003,246.801,253.632,258.012,261.687,266.09700000000004,269.704,273.378,277.759,280.915,285.295" svgx:width="0.78,0.54,0.45,0.38,0.32,0.26,0.52,0.55,0.38,0.55,0.38,0.45,0.26,0.45,0.32,0.45,0.53,0.55,0.32,0.52,0.55,0.32,0.54,0.45,0.55,0.38,0.26,0.38,0.5,0.55,0.52,0.29,0.55,0.67,0.59,0.55,0.26,0.55,0.29,0.45,0.45,0.32,0.26,0.52,0.55,0.55,0.7,0.45,0.38,0.45,0.55,0.38,0.45,0.32,0.45,0.53" style="fill:rgb(19,20,19);font-family:VqgpptAdvTT86d47313;font-size:9.8px;stroke:none;">Questions related to the risk of TB infection were rated</text>
   <text y="539.314" x="56.693,61.995,65.768,68.316,73.725,78.42899999999999,82.77,87.17999999999999,91.502,96.402,99.969,105.173,110.269,112.817,118.226,121.362,125.743,131.251,133.799,138.698,143.079,146.832,149.968,154.368,158.141,162.522,166.903,169.451,173.861,178.231" svgx:width="0.54,0.38,0.26,0.55,0.48,0.55,0.45,0.55,0.5,0.36,0.53,0.52,0.26,0.55,0.32,0.55,0.56,0.26,0.5,0.45,0.38,0.32,0.55,0.38,0.45,0.45,0.26,0.45,0.55,0.32" style="fill:rgb(19,20,19);font-family:VqgpptAdvTT86d47313;font-size:9.8px;stroke:none;">using a 5-point Likert scale (</text>
   <text y="539.314" x="181.416,184.885,188.041,191.716,196.302,201.604,205.681,208.435,212.747,217.078,222.282,226.359,230.034,234.198" svgx:width="0.35,0.32,0.38,0.47,0.54,0.42,0.28,0.44,0.55,0.53,0.42,0.38,0.42,0.42" style="fill:rgb(19,20,19);font-family:HmxcsfAdvTT8861b38f.I;font-size:9.8px;stroke:none;">strongly agree</text>
   <text y="539.314" x="238.275" svgx:width="0.22" style="fill:rgb(19,20,19);font-family:VqgpptAdvTT86d47313;font-size:9.8px;stroke:none;">,</text>
   <text y="539.314" x="244.743,249.947,254.024,257.699,261.775" svgx:width="0.53,0.42,0.38,0.42,0.42" style="fill:rgb(19,20,19);font-family:HmxcsfAdvTT8861b38f.I;font-size:9.8px;stroke:none;">agree</text>
   <text y="539.314" x="265.891" svgx:width="0.22" style="fill:rgb(19,20,19);font-family:VqgpptAdvTT86d47313;font-size:9.8px;stroke:none;">,</text>
   <text y="539.314" x="272.349,277.651,281.728,287.138" svgx:width="0.54,0.42,0.55,0.34" style="fill:rgb(19,20,19);font-family:HmxcsfAdvTT8861b38f.I;font-size:9.8px;stroke:none;">neu-</text>
   <text y="551.329" x="56.693,59.848,63.523,68.727" svgx:width="0.32,0.38,0.53,0.28" style="fill:rgb(19,20,19);font-family:HmxcsfAdvTT8861b38f.I;font-size:9.8px;stroke:none;">tral</text>
   <text y="551.329" x="71.432" svgx:width="0.22" style="fill:rgb(19,20,19);font-family:VqgpptAdvTT86d47313;font-size:9.8px;stroke:none;">,</text>
   <text y="551.329" x="77.38,82.682,85.436,88.905,94.109,98.186,101.861,105.937" svgx:width="0.54,0.28,0.35,0.53,0.42,0.38,0.42,0.42" style="fill:rgb(19,20,19);font-family:HmxcsfAdvTT8861b38f.I;font-size:9.8px;stroke:none;">disagree</text>
   <text y="551.329" x="110.093,112.24900000000001,116.041,120.422,125.831" svgx:width="0.22,0.55,0.45,0.55,0.53" style="fill:rgb(19,20,19);font-family:VqgpptAdvTT86d47313;font-size:9.8px;stroke:none;">, and</text>
   <text y="551.329" x="134.984,138.453,141.609,145.284,149.87,155.172,159.249,162.003,166.315,170.137,175.438,178.192,181.661,186.865,190.942,194.617,198.693" svgx:width="0.35,0.32,0.38,0.47,0.54,0.42,0.28,0.44,0.55,0.54,0.28,0.35,0.53,0.42,0.38,0.42,0.42" style="fill:rgb(19,20,19);font-family:HmxcsfAdvTT8861b38f.I;font-size:9.8px;stroke:none;">strongly disagree</text>
   <text y="551.329" x="202.849,206.004,208.16,211.972,215.236,220.62599999999998,224.448,228.828,234.032,239.236,241.784,245.027,247.575,252.671,258.081,260.237,264.078,269.282,273.663,281.826,286.922" svgx:width="0.32,0.22,0.55,0.33,0.55,0.55,0.45,0.53,0.53,0.26,0.32,0.26,0.52,0.55,0.22,0.55,0.53,0.45,0.83,0.52,0.36" style="fill:rgb(19,20,19);font-family:VqgpptAdvTT86d47313;font-size:9.8px;stroke:none;">). In addition, demo-</text>
   <text y="563.343" x="56.693,61.387,65.062,69.443,74.646,79.948,82.496,86.90599999999999,90.424,95.628,100.008,103.164,107.574,111.122,113.67,119.079,123.46,126.008,131.309,136.513,139.061,144.569,149.273,152.732,157.112,161.807,166.187,168.34300000000002,171.891,175.664,180.044,184.983,187.139,190.599,195.802,199.477,204.573,207.425,211.806,215.579,219.459,222.007,227.103,232.513,234.669,238.167,244.998,250.094,253.769,258.669,262.207,267.41,271.791,275.466,278.014,283.11,288.402" svgx:width="0.48,0.38,0.45,0.53,0.54,0.26,0.45,0.55,0.53,0.45,0.32,0.45,0.55,0.26,0.55,0.45,0.26,0.54,0.53,0.26,0.55,0.48,0.55,0.45,0.48,0.45,0.22,0.55,0.38,0.45,0.49,0.22,0.55,0.53,0.38,0.52,0.29,0.45,0.38,0.38,0.26,0.52,0.55,0.22,0.55,0.7,0.52,0.38,0.5,0.55,0.53,0.45,0.38,0.26,0.52,0.53,0.22" style="fill:rgb(19,20,19);font-family:VqgpptAdvTT86d47313;font-size:9.8px;stroke:none;">graphic data including age, sex, profession, work period,</text>
   <text y="575.309" x="56.693,61.073,66.277,71.579,75.96,80.34,83.496,86.044,91.277,96.686,101.067,103.615,107.319,109.867,114.346,118.834,123.215,125.763,127.91900000000001,131.633,136.013,141.423,146.617,150.282,158.445,162.826,166.501,169.049,172.204,176.702,179.25,182.886,186.659,189.815,194.283,197.439,202.741,206.465,210.218,217.049,221.429,225.104,229.514,233.179,238.275,243.371,246.527,250.907,253.455,258.973,263.353,268.557,270.713,274.388,280.797,286.099" svgx:width="0.45,0.53,0.54,0.45,0.45,0.32,0.26,0.52,0.55,0.45,0.26,0.55,0.26,0.45,0.46,0.45,0.26,0.22,0.55,0.45,0.55,0.53,0.55,0.83,0.45,0.38,0.26,0.32,0.45,0.26,0.55,0.38,0.32,0.45,0.32,0.54,0.38,0.55,0.7,0.45,0.38,0.45,0.55,0.52,0.52,0.32,0.45,0.26,0.55,0.45,0.53,0.22,0.55,0.67,0.54,0.45" style="fill:rgb(19,20,19);font-family:VqgpptAdvTT86d47313;font-size:9.8px;stroke:none;">educational level, and marital status were obtained. The</text>
   <text y="587.324" x="56.693,61.897,67.198,71.579,75.352,78.507,81.055,86.151,91.669,97.078,101.459,104.007,107.682,112.062,115.786,119.451,126.282,130.663,134.338,138.748,142.354,146.127,150.507,155.917,159.053,162.649,165.805,170.901,174.497,182.661,187.041,192.451,196.831,201.526,205.906,209.581,213.30499999999998,217.019,222.115,224.95700000000002,228.524,231.68,236.982,241.392,244.969,248.124,253.426,257.101,261.481,265.891,269.458,272.006,277.416,281.189,284.423,286.971" svgx:width="0.53,0.54,0.45,0.38,0.32,0.26,0.52,0.55,0.55,0.45,0.26,0.38,0.45,0.38,0.55,0.7,0.45,0.38,0.45,0.55,0.38,0.45,0.55,0.32,0.55,0.32,0.52,0.55,0.83,0.45,0.55,0.45,0.48,0.45,0.38,0.38,0.55,0.52,0.29,0.55,0.32,0.54,0.45,0.55,0.32,0.54,0.38,0.45,0.45,0.55,0.26,0.55,0.38,0.32,0.26,0.36" style="fill:rgb(19,20,19);font-family:VqgpptAdvTT86d47313;font-size:9.8px;stroke:none;">questionnaires were sent to managers of the three insti-</text>
   <text y="599.338" x="56.693,59.848,65.15,68.306,70.854,75.95,81.467,85.436,87.59200000000001,91.894,96.275,101.684,106.878,111.278,114.434,119.736,124.116,128.526,132.877,139.708,144.088,147.842,152.252,156.573,161.052,164.825,169.725,174.105,179.29899999999998,183.67,186.826,191.922,196.312,201.516,204.064,207.837,210.992,214.667,217.215,222.311,227.721,230.876,235.286,239.628,242.783,248.085,252.465,260.599,265.029,268.185,273.281,277.671,280.826,286.128" svgx:width="0.32,0.54,0.32,0.26,0.52,0.55,0.38,0.22,0.55,0.45,0.55,0.53,0.55,0.32,0.54,0.45,0.45,0.55,0.7,0.45,0.38,0.45,0.55,0.45,0.38,0.5,0.45,0.53,0.55,0.32,0.52,0.55,0.53,0.26,0.38,0.32,0.38,0.26,0.52,0.54,0.32,0.45,0.55,0.32,0.54,0.45,0.83,0.55,0.32,0.52,0.55,0.32,0.54,0.45" style="fill:rgb(19,20,19);font-family:VqgpptAdvTT86d47313;font-size:9.8px;stroke:none;">tutions, and they were asked to distribute them to the</text>
   <text y="611.304" x="56.693,61.897,66.277,69.952,73.108,75.656,80.036,82.584,87.788,92.296,97.705,100.969,104.742,106.89800000000001,112.19,118.716,124.018,128.428,133.671,138.875,144.177,148.557,152.33,155.486,158.034,163.13,168.647,174.057,178.437,180.985,184.66,189.07,194.44,201.271,205.779,209.503,214.853,219.234,224.33,232.493,237.697,240.245,244.733,247.889,252.27,257.464,262.814,267.91,272.32000000000005,277.671,280.826,286.128" svgx:width="0.53,0.45,0.38,0.32,0.26,0.45,0.26,0.53,0.45,0.55,0.32,0.38,0.22,0.55,0.67,0.54,0.45,0.55,0.53,0.54,0.45,0.38,0.32,0.26,0.52,0.55,0.55,0.45,0.26,0.38,0.45,0.55,0.7,0.45,0.38,0.55,0.45,0.52,0.83,0.53,0.26,0.45,0.32,0.45,0.53,0.55,0.52,0.45,0.55,0.32,0.54,0.45" style="fill:rgb(19,20,19);font-family:VqgpptAdvTT86d47313;font-size:9.8px;stroke:none;">participants. The questionnaire was completed by the</text>
   <text y="623.319" x="56.693,61.897,66.277,69.952,73.108,75.656,80.036,82.584,87.788,92.296,97.705,100.969,104.693,107.711,110.867,116.169,120.549,128.712,132.485,136.866,139.512,144.0,148.381,152.154" svgx:width="0.53,0.45,0.38,0.32,0.26,0.45,0.26,0.53,0.45,0.55,0.32,0.38,0.55,0.32,0.54,0.45,0.83,0.38,0.45,0.26,0.46,0.45,0.38,0.22" style="fill:rgb(19,20,19);font-family:VqgpptAdvTT86d47313;font-size:9.8px;stroke:none;">participants themselves.</text>
   <text y="635.333" x="64.69,71.493,73.905,76.453,80.14,85.346,90.405,94.66,98.297,101.318,103.73,108.691,113.965,117.68900000000001,121.445,128.277,132.385,136.062,140.472,144.061,149.129,152.669,156.915,162.12,166.268,169.778,174.023,179.21699999999998,182.923,185.336,190.726,194.462,199.834,205.108,209.667,212.08,214.493,218.131,223.423,227.197,231.394,236.668,241.862,245.627,248.647,253.814,258.059,263.449,267.185,270.342,273.765,278.01,283.284,287.059" svgx:width="0.71,0.26,0.26,0.55,0.53,0.54,0.45,0.38,0.32,0.26,0.52,0.55,0.38,0.55,0.7,0.45,0.38,0.45,0.55,0.53,0.38,0.45,0.53,0.45,0.38,0.45,0.53,0.55,0.26,0.55,0.55,0.56,0.55,0.48,0.26,0.26,0.38,0.54,0.55,0.45,0.55,0.53,0.55,0.32,0.54,0.45,0.55,0.55,0.32,0.38,0.45,0.55,0.38,0.36" style="fill:rgb(19,20,19);font-family:VqgpptAdvTT86d47313;font-size:9.8px;stroke:none;">All questions were prepared in English and then trans-</text>
   <text y="647.299" x="56.693,59.106,63.351,66.508,70.666,75.86,78.772,81.155,86.43,89.45,94.546,97.498,102.37,109.066,113.311,117.458,120.006,122.899,127.86,132.27,135.172,139.582,142.485,147.701,151.946,155.104,157.389,161.752,166.162,169.064,172.692,177.761,182.006,186.252,191.016,195.262,198.801,200.957,203.85,207.478,212.645,217.605,221.243,225.488,230.557,235.861,239.969,245.243,248.401,250.686,254.931,257.087,259.98,264.225,269.5,274.46,277.481,282.647,286.893" svgx:width="0.26,0.45,0.32,0.45,0.53,0.55,0.26,0.55,0.32,0.52,0.55,0.51,0.7,0.45,0.44,0.26,0.55,0.52,0.45,0.55,0.45,0.55,0.55,0.45,0.32,0.26,0.46,0.45,0.55,0.38,0.53,0.45,0.45,0.5,0.45,0.38,0.22,0.55,0.38,0.54,0.52,0.38,0.45,0.53,0.54,0.45,0.55,0.32,0.26,0.45,0.22,0.55,0.45,0.55,0.52,0.32,0.54,0.45,0.38" style="fill:rgb(19,20,19);font-family:VqgpptAdvTT86d47313;font-size:9.8px;stroke:none;">lated into Swazi by a native speaker; subsequently, another</text>
   <text y="659.314" x="56.693,59.715,63.394,67.485,72.761,76.538,78.835,83.082,86.104,91.067,94.791,97.647,100.365,102.78,107.948,112.196,117.472,120.60799999999999,123.542,125.957,131.34699999999998,134.232,139.194,144.157,147.316,152.608,155.445,160.26,166.948,171.195,175.344,177.892,180.846,185.093,190.369,195.563,198.478,203.803,209.079,213.777,216.055,218.47,222.109,227.401,230.326,235.259,239.506,243.753,248.285,251.719,254.741,258.283,262.53,267.806,271.446,273.861,278.108,281.13,285.378" svgx:width="0.32,0.38,0.45,0.55,0.38,0.26,0.45,0.32,0.52,0.38,0.55,0.29,0.26,0.54,0.45,0.55,0.32,0.55,0.26,0.55,0.55,0.52,0.52,0.32,0.54,0.55,0.51,0.7,0.45,0.44,0.26,0.55,0.45,0.55,0.53,0.55,0.56,0.55,0.48,0.26,0.26,0.38,0.54,0.55,0.52,0.45,0.45,0.5,0.36,0.32,0.38,0.45,0.55,0.38,0.26,0.45,0.32,0.45,0.53" style="fill:rgb(19,20,19);font-family:VqgpptAdvTT86d47313;font-size:9.8px;stroke:none;">translator fluent in both Swazi and English back-translated</text>
   <text y="671.328" x="56.693,59.708,64.87,69.28,72.07,77.271,82.325,86.575,90.208,93.223,95.631,100.587,105.856,109.58,112.429,115.14,118.813,123.641,131.775,134.643,139.501,146.191,150.432,154.574,157.122,159.961,162.34,167.609,170.625,175.721,178.56,183.947,189.216,193.77,196.178,198.586,202.218,207.51,210.33,213.345,218.441,221.28,225.521,230.79,234.423,239.585,243.257,247.667,250.349,253.364,258.526,262.93600000000004,265.726,269.966,274.207,278.447,283.609,286.957" svgx:width="0.32,0.54,0.45,0.55,0.53,0.54,0.45,0.38,0.32,0.26,0.52,0.55,0.38,0.55,0.29,0.38,0.52,0.83,0.55,0.51,0.7,0.45,0.44,0.26,0.55,0.26,0.55,0.32,0.52,0.55,0.56,0.55,0.48,0.26,0.26,0.38,0.54,0.55,0.32,0.52,0.55,0.45,0.55,0.38,0.54,0.38,0.45,0.55,0.32,0.54,0.45,0.55,0.45,0.45,0.45,0.54,0.38,0.36" style="fill:rgb(19,20,19);font-family:VqgpptAdvTT86d47313;font-size:9.8px;stroke:none;">the questions from Swazi into English to ensure the accur-</text>
   <text y="683.294" x="56.693,60.946,65.199,69.609,72.059,77.047,79.889,82.378,85.534,90.601,95.011,97.46,100.616,104.036,108.289,113.562,117.188,119.569,123.822,126.978,129.261,134.249,139.522" svgx:width="0.45,0.45,0.45,0.55,0.52,0.29,0.55,0.32,0.54,0.45,0.55,0.32,0.38,0.45,0.55,0.38,0.26,0.45,0.32,0.26,0.52,0.55,0.22" style="fill:rgb(19,20,19);font-family:VqgpptAdvTT86d47313;font-size:9.8px;stroke:none;">acy of the translation.</text>
   <text y="707.357" x="56.693,62.149,66.749,69.049,71.349,76.611,78.911,82.15,86.75,89.464,94.064,99.234,104.478,107.321,110.578,115.27,117.57,119.87,124.47,129.834,132.134,134.434,136.798,139.954" svgx:width="0.59,0.5,0.25,0.25,0.57,0.25,0.34,0.5,0.55,0.5,0.56,0.57,0.55,0.35,0.51,0.25,0.25,0.5,0.58,0.25,0.25,0.25,0.34,0.5" style="fill:rgb(19,20,19);font-family:QccmkbAdvTT99c4c969;font-size:9.2px;stroke:none;">Validity and reliability</text>
   <text y="719.32" x="56.693,63.327,68.423,73.833,76.989,81.467,86.877,90.01299999999999,93.198,97.686,102.066,104.614,107.162,112.366,114.914,118.07,122.47999999999999,125.684,132.515,137.082,140.80599999999998,144.0,148.381,153.173,157.553,165.717,168.382,173.792,178.172,183.36599999999999,186.581,191.677,196.087,199.223,202.074,207.17,212.472,216.196,219.352,223.732,228.524,233.807,238.187,241.862,245.145,248.918,251.074,254.269,260.678,265.98,270.39000000000004,273.545,277.318,282.522,286.981" svgx:width="0.68,0.52,0.55,0.32,0.45,0.55,0.32,0.55,0.46,0.45,0.26,0.26,0.53,0.26,0.32,0.45,0.55,0.7,0.45,0.38,0.55,0.45,0.49,0.45,0.83,0.26,0.55,0.45,0.53,0.55,0.52,0.45,0.55,0.29,0.52,0.54,0.38,0.55,0.45,0.49,0.53,0.45,0.38,0.32,0.38,0.22,0.55,0.67,0.54,0.45,0.55,0.38,0.53,0.45,0.36" style="fill:rgb(19,20,19);font-family:VqgpptAdvTT86d47313;font-size:9.8px;stroke:none;">Content validity was examined by four experts. The spe-</text>
   <text y="731.334" x="56.693,61.073,63.621,68.002,70.55,73.706,76.254,80.634,84.358,88.67,93.766,96.608,100.802,103.958,109.26,113.67,117.864,122.244,127.037,132.24,136.621,140.296,143.598,147.322,151.536,154.084,159.494,163.953,166.501,171.803,177.006,181.387,186.581,190.824,195.518,198.066,203.162,208.258,212.639,215.187,219.401,224.702,229.083,233.463,236.011,239.167,244.577,246.733,250.868,253.416,258.826,261.677,266.234,270.615,273.77,276.318,281.414,286.716" svgx:width="0.45,0.26,0.45,0.26,0.32,0.26,0.45,0.38,0.55,0.52,0.29,0.55,0.32,0.54,0.45,0.55,0.45,0.49,0.53,0.45,0.38,0.32,0.38,0.55,0.26,0.55,0.45,0.26,0.54,0.53,0.45,0.53,0.55,0.48,0.26,0.52,0.52,0.45,0.26,0.55,0.54,0.45,0.45,0.26,0.32,0.54,0.22,0.55,0.26,0.55,0.29,0.45,0.45,0.32,0.26,0.52,0.54,0.38" style="fill:rgb(19,20,19);font-family:VqgpptAdvTT86d47313;font-size:9.8px;stroke:none;">cialties of the experts included global health, infectious</text>
   <text y="95.36" x="304.719,309.922,312.47,316.243,320.624,325.181,328.954,333.334,337.313,339.469,345.359,349.132,354.433,358.451,362.94,367.32,371.73,377.669,385.832,390.213,393.368,398.67,403.864,409.068,414.164,416.712,421.808,426.502,430.882,433.038,439.016,442.789,445.945,450.325,453.481,456.029,459.802,462.957,465.505,469.886,473.943,476.099,481.989,486.369,491.573,494.121,499.325,503.813,511.977,514.525,519.62,522.168,527.264,531.959,536.339" svgx:width="0.53,0.26,0.38,0.45,0.45,0.38,0.45,0.38,0.22,0.55,0.38,0.54,0.38,0.46,0.45,0.45,0.55,0.83,0.45,0.32,0.54,0.52,0.53,0.52,0.26,0.52,0.48,0.45,0.22,0.55,0.38,0.32,0.45,0.32,0.26,0.38,0.32,0.26,0.45,0.38,0.22,0.55,0.45,0.53,0.26,0.53,0.45,0.83,0.26,0.52,0.26,0.52,0.48,0.45,0.22" style="fill:rgb(19,20,19);font-family:VqgpptAdvTT86d47313;font-size:9.8px;stroke:none;">diseases, survey methodology, statistics, epidemiology,</text>
   <text y="107.326" x="304.719,309.099,314.509,319.70300000000003,322.858,326.014,329.689,334.785,339.988,342.536,347.005,351.386,353.934,357.04,365.204,369.584,374.788,377.336,381.716,384.362,389.772,394.152,396.308,399.386,405.912,411.214,415.624,418.662,421.21,426.62,429.775,434.156,437.831,443.319,447.699,450.247,453.354,457.734,462.83,468.318,472.091,474.639,478.412,481.568,485.948,491.358,495.738,500.148,503.294,508.39,511.23199999999997,514.348,518.729,521.277,523.825,526.99,529.538,534.948" svgx:width="0.45,0.55,0.53,0.55,0.32,0.38,0.52,0.53,0.26,0.45,0.45,0.26,0.55,0.83,0.45,0.53,0.26,0.45,0.26,0.55,0.45,0.22,0.55,0.67,0.54,0.45,0.55,0.26,0.55,0.32,0.45,0.38,0.55,0.45,0.26,0.55,0.45,0.52,0.55,0.38,0.26,0.38,0.32,0.45,0.55,0.45,0.45,0.55,0.52,0.29,0.55,0.45,0.26,0.26,0.55,0.26,0.55,0.36" style="fill:rgb(19,20,19);font-family:VqgpptAdvTT86d47313;font-size:9.8px;stroke:none;">and tropical medicine. The internal consistency of all in-</text>
   <text y="119.34" x="304.719,309.922,312.47,316.851,321.231,324.955,329.434,336.264,340.772,344.496,348.936,353.316,357.089,360.245,362.881,371.044,375.425,378.58,382.961,388.15500000000003,392.584,397.886,401.659,404.207,409.617,414.321,418.78,425.414,429.089,434.185,439.595,444.691,449.071,453.452" svgx:width="0.53,0.26,0.45,0.45,0.38,0.55,0.7,0.45,0.38,0.55,0.45,0.38,0.32,0.26,0.83,0.45,0.32,0.45,0.53,0.55,0.54,0.38,0.26,0.55,0.48,0.55,0.68,0.38,0.52,0.55,0.52,0.45,0.45,0.54" style="fill:rgb(19,20,19);font-family:VqgpptAdvTT86d47313;font-size:9.8px;stroke:none;">dices was estimated using Cronbach</text>
   <text y="119.34" x="458.528" svgx:width="0.2" style="fill:rgb(19,20,19);font-family:PgnktcAdvTT86d47313;font-size:9.8px;stroke:none;">’</text>
   <text y="119.34" x="459.89,463.614,468.053,472.434,477.53,481.911,484.762,487.614,490.162,494.543,497.091,501.471,506.881,510.017,514.544,518.925,521.473,526.677,531.978,536.359" svgx:width="0.38,0.55,0.45,0.52,0.45,0.29,0.29,0.26,0.45,0.26,0.45,0.55,0.32,0.55,0.45,0.26,0.53,0.54,0.45,0.22" style="fill:rgb(19,20,19);font-family:VqgpptAdvTT86d47313;font-size:9.8px;stroke:none;">s coefficient alpha.</text>
   <text y="131.355" x="304.719,307.982,313.372,316.449,319.605,324.906,327.454,331.178,334.304,338.077,343.379,347.348,351.836,356.217,360.598,362.754,365.831,370.24100000000004,373.259,377.64,382.736,388.145,391.301,395.681,401.208,404.34400000000005,407.392,411.88,416.261,418.809,421.357,426.561,429.109,432.264,436.67400000000004,439.761,442.309,447.719,452.922,457.303,462.105,465.163,470.258,473.09999999999997,476.158,481.058,483.194,488.094,492.99399999999997,496.062,500.442,505.852,511.046,514.142,520.777,524.452,529.548,534.957" svgx:width="0.33,0.55,0.55,0.32,0.54,0.26,0.38,0.55,0.38,0.54,0.38,0.46,0.45,0.45,0.22,0.55,0.45,0.55,0.45,0.52,0.55,0.32,0.45,0.55,0.32,0.55,0.46,0.45,0.26,0.26,0.53,0.26,0.32,0.45,0.55,0.26,0.55,0.53,0.45,0.49,0.55,0.52,0.29,0.55,0.5,0.22,0.5,0.5,0.55,0.45,0.55,0.53,0.55,0.68,0.38,0.52,0.55,0.36" style="fill:rgb(19,20,19);font-family:VqgpptAdvTT86d47313;font-size:9.8px;stroke:none;">In this survey, a content validity index of 0.86 and Cron-</text>
   <text y="143.321" x="304.719,309.815,314.195,318.576" svgx:width="0.52,0.45,0.45,0.54" style="fill:rgb(19,20,19);font-family:VqgpptAdvTT86d47313;font-size:9.8px;stroke:none;">bach</text>
   <text y="143.321" x="323.652" svgx:width="0.2" style="fill:rgb(19,20,19);font-family:PgnktcAdvTT86d47313;font-size:9.8px;stroke:none;">’</text>
   <text y="143.321" x="324.955,328.679,332.207,336.588,341.684,346.064,348.916,351.768,354.316,358.696,361.244,365.772,371.182,374.31800000000004,377.787,382.167,384.715,389.919,395.221,399.63100000000003,403.129,408.225,411.067,414.585,419.485,421.622,426.522,431.42199999999997,434.881,437.429,442.838,448.042,450.59,455.059,459.439,462.595,466.976,472.17,475.697,480.078,485.282,489.662,494.866,500.168,504.548,507.704,512.114,515.779,520.267,524.648,527.196,529.744,534.948" svgx:width="0.38,0.55,0.45,0.52,0.45,0.29,0.29,0.26,0.45,0.26,0.45,0.55,0.32,0.55,0.45,0.26,0.53,0.54,0.45,0.55,0.52,0.29,0.55,0.5,0.22,0.5,0.5,0.55,0.26,0.55,0.53,0.26,0.45,0.45,0.32,0.45,0.53,0.55,0.45,0.53,0.45,0.53,0.54,0.45,0.32,0.45,0.55,0.46,0.45,0.26,0.26,0.53,0.36" style="fill:rgb(19,20,19);font-family:VqgpptAdvTT86d47313;font-size:9.8px;stroke:none;">s coefficient alpha of 0.88 indicated adequate valid-</text>
   <text y="155.335" x="304.719,307.267,310.422,314.83200000000005,319.232,323.613,329.022,334.216,338.675,342.35,346.731,349.279,351.827,356.207,361.411,363.959,366.507,369.055,372.21,376.591,378.747,383.177,386.852,391.232,395.005,400.209,404.776,409.156,412.312,414.86,419.348,423.729,426.276,430.657,432.813,437.262,442.358,445.2,449.679,454.059,456.607,459.15500000000003,463.565,468.769,473.149,476.824,481.205,489.476,493.857,497.012,501.393,505.068,508.792,513.29,515.838,521.228,525.647,528.803,534.105" svgx:width="0.26,0.32,0.45,0.55,0.45,0.55,0.53,0.55,0.38,0.45,0.26,0.26,0.45,0.52,0.26,0.26,0.26,0.32,0.45,0.22,0.55,0.38,0.45,0.38,0.53,0.45,0.45,0.32,0.26,0.46,0.45,0.26,0.45,0.22,0.55,0.52,0.29,0.55,0.45,0.26,0.26,0.55,0.53,0.45,0.38,0.45,0.83,0.45,0.32,0.45,0.38,0.38,0.55,0.26,0.55,0.55,0.32,0.54,0.45" style="fill:rgb(19,20,19);font-family:VqgpptAdvTT86d47313;font-size:9.8px;stroke:none;">ity and reliability, respectively, of all parameters in the</text>
   <text y="167.35" x="304.719,309.922,315.224,319.605,323.378,326.533,329.081,334.177,339.694,345.104,349.484,352.032,355.707,360.088" svgx:width="0.53,0.54,0.45,0.38,0.32,0.26,0.52,0.55,0.55,0.45,0.26,0.38,0.45,0.22" style="fill:rgb(19,20,19);font-family:VqgpptAdvTT86d47313;font-size:9.8px;stroke:none;">questionnaire.</text>
   <text y="191.339" x="304.724,309.416,312.572,317.742,320.042,324.155,328.755,331.055,333.861,337.973,343.144,348.314,352.142,354.442,359.704,364.396,367.763,372.363,375.519,377.819,382.99,388.16" svgx:width="0.51,0.34,0.56,0.25,0.45,0.5,0.25,0.55,0.45,0.56,0.56,0.42,0.25,0.57,0.51,0.35,0.5,0.34,0.25,0.56,0.56,0.42" style="fill:rgb(19,20,19);font-family:QccmkbAdvTT99c4c969;font-size:9.2px;stroke:none;">Ethical considerations</text>
   <text y="203.358" x="304.724,311.251,316.553,319.101,322.825,328.028,331.801,334.957,340.259,345.462,349.872,355.066,361.897,366.405,370.12899999999996,375.362,379.743,384.946,390.15,393.903,398.999,403.488,407.868,413.062,418.286,423.381,427.791,432.966,436.121,441.423,445.833,451.047,456.152,460.533,463.081,467.461,472.871,476.027,478.575,481.426,483.974,488.384,493.627,498.008,503.417,508.611,513.805,519.313,522.468,527.868,530.416,534.797" svgx:width="0.67,0.54,0.26,0.38,0.55,0.38,0.32,0.54,0.53,0.45,0.55,0.7,0.45,0.38,0.55,0.45,0.53,0.53,0.38,0.52,0.46,0.45,0.53,0.55,0.52,0.45,0.55,0.32,0.54,0.45,0.55,0.51,0.45,0.26,0.45,0.55,0.32,0.26,0.29,0.26,0.45,0.55,0.45,0.55,0.53,0.55,0.56,0.32,0.54,0.26,0.45,0.38" style="fill:rgb(19,20,19);font-family:VqgpptAdvTT86d47313;font-size:9.8px;stroke:none;">This study was approved by the Scientific and Ethics</text>
   <text y="215.323" x="304.724,311.359,316.455,324.618,332.781,335.329,338.485,341.748,346.129,350.53900000000004,353.763,358.859,361.70099999999996,364.984,368.139,373.441,377.851,381.085,390.17,392.718,398.127,400.675,404.448,407.604,411.357,415.76700000000005,418.952,424.048,426.89,430.173,437.719,442.099,446.48,449.028,452.281,457.573,460.837,465.217,470.627,475.821,479.094,484.092,489.188,493.568,496.116,500.497,503.045,506.367,516.265,520.646,523.194,526.045,530.426,534.101" svgx:width="0.68,0.52,0.83,0.83,0.26,0.32,0.32,0.45,0.45,0.55,0.52,0.29,0.55,0.32,0.54,0.45,0.55,0.93,0.26,0.55,0.26,0.38,0.32,0.38,0.45,0.55,0.52,0.29,0.55,0.77,0.45,0.45,0.26,0.32,0.54,0.55,0.45,0.55,0.53,0.55,0.51,0.52,0.45,0.26,0.45,0.26,0.55,1.01,0.45,0.26,0.29,0.45,0.38,0.45" style="fill:rgb(19,20,19);font-family:VqgpptAdvTT86d47313;font-size:9.8px;stroke:none;">Committee of the Ministry of Health and Social Welfare</text>
   <text y="227.338" x="304.724,307.272,312.662,318.611,323.609,330.439,334.82,339.102,341.65,344.198,348.579,354.096,359.3,361.456,367.306,370.57,375.96,381.928,386.309,391.512,396.716,399.264,402.42,404.967,410.161,415.571,417.72700000000003,423.597,428.801,433.181,436.856,445.02,447.568,451.429,455.202,457.75,462.846,468.255,471.979,477.957,484.788,489.168,492.843,497.25300000000004,503.182,508.278,513.374,516.53,520.91,523.458,528.868,533.248" svgx:width="0.26,0.55,0.55,0.51,0.7,0.45,0.44,0.26,0.26,0.45,0.55,0.53,0.22,0.55,0.33,0.55,0.55,0.45,0.53,0.53,0.26,0.32,0.26,0.52,0.55,0.22,0.55,0.53,0.45,0.38,0.83,0.26,0.38,0.38,0.26,0.52,0.55,0.38,0.55,0.7,0.45,0.38,0.45,0.55,0.52,0.52,0.32,0.45,0.26,0.55,0.45,0.53" style="fill:rgb(19,20,19);font-family:VqgpptAdvTT86d47313;font-size:9.8px;stroke:none;">in Swaziland. In addition, permissions were obtained</text>
   <text y="239.353" x="304.724,307.576,311.251,316.347,324.481,328.705,331.86,337.162,341.572,345.766,348.922,354.224,357.899,362.279,366.689,370.883,373.431,378.841,382.614,385.77,388.406,391.561,396.863,400.019,402.567,407.663,413.072,416.845,419.00100000000003,423.215,430.153,435.543,439.767,442.315,447.725,450.88,454.555,459.651,464.855,470.156,474.537,477.81,482.906,486.581,490.99100000000004,495.156,497.704,502.085,505.24,508.396,512.776,516.5,520.665,524.438,527.594,531.974,535.012" svgx:width="0.29,0.38,0.52,0.83,0.55,0.32,0.54,0.45,0.55,0.32,0.54,0.38,0.45,0.45,0.55,0.26,0.55,0.38,0.32,0.26,0.32,0.54,0.32,0.26,0.52,0.55,0.38,0.22,0.55,0.71,0.55,0.55,0.26,0.55,0.32,0.38,0.52,0.53,0.54,0.45,0.32,0.52,0.38,0.45,0.55,0.26,0.45,0.32,0.32,0.45,0.38,0.55,0.38,0.32,0.45,0.32,0.36" style="fill:rgb(19,20,19);font-family:VqgpptAdvTT86d47313;font-size:9.8px;stroke:none;">from the three institutions. An introductory letter stat-</text>
   <text y="251.318" x="304.724,307.272,312.682,317.386,320.826,323.981,329.283,333.69300000000004,337.152,340.925,344.081,349.382,354.674,359.084,362.495,367.698,373.0,376.675,381.879,386.975,390.836,395.24600000000004,398.656,403.037,408.446,413.64000000000004,417.139,422.343,426.018,431.114,439.365,441.913,445.686,448.234,453.644,458.348,461.817,466.197,471.293,476.703,479.554,482.102,487.306,491.687,497.096,500.369,502.917,507.298,509.846,512.394,515.549,519.959,523.438,530.269,534.777" svgx:width="0.26,0.55,0.48,0.55,0.32,0.54,0.45,0.55,0.38,0.32,0.54,0.53,0.45,0.55,0.53,0.54,0.38,0.53,0.52,0.38,0.45,0.55,0.45,0.55,0.53,0.55,0.53,0.38,0.52,0.83,0.26,0.38,0.26,0.55,0.48,0.55,0.45,0.52,0.55,0.29,0.26,0.53,0.45,0.55,0.32,0.26,0.45,0.26,0.26,0.32,0.45,0.55,0.7,0.45,0.38" style="fill:rgb(19,20,19);font-family:VqgpptAdvTT86d47313;font-size:9.8px;stroke:none;">ing the study purpose and promising confidentiality was</text>
   <text y="263.333" x="304.724,308.497,312.878,318.287,321.423,325.588,329.969,332.517,337.613,343.111,347.815,351.901,358.732,361.28,364.435,369.727,373.902,377.057,382.359,386.769,390.905,396.108,401.41,405.791,409.564,412.719,415.267,420.363,425.88,431.29,435.671,438.219,441.893,446.274,448.43,452.585,455.849,461.258,464.11,469.206,472.881,481.044,485.425,490.619,494.823,499.203,504.299,509.709,513.482,517.862,523.272,526.408,530.592,533.14" svgx:width="0.38,0.45,0.55,0.32,0.55,0.45,0.26,0.52,0.55,0.48,0.55,0.7,0.26,0.32,0.54,0.55,0.32,0.54,0.45,0.55,0.53,0.54,0.45,0.38,0.32,0.26,0.52,0.55,0.55,0.45,0.26,0.38,0.45,0.22,0.55,0.33,0.55,0.29,0.52,0.38,0.83,0.45,0.53,0.55,0.45,0.52,0.55,0.38,0.45,0.55,0.32,0.55,0.26,0.55" style="fill:rgb(19,20,19);font-family:VqgpptAdvTT86d47313;font-size:9.8px;stroke:none;">sent along with the questionnaire. Informed consent in</text>
   <text y="275.348" x="304.724,311.555,315.23,317.778,320.933,324.089,328.469,333.859,342.366,345.218,350.313,353.988,362.122,370.599,377.43,381.938,385.662,394.07,399.166,404.262,407.506,411.886,414.434,419.844,424.224,429.418,437.836,440.688,444.363,449.459,457.593,466.07,470.45,472.998,475.546,483.984,487.14,492.441,496.851,505.24,509.621,515.03,518.705,523.801,526.349,528.897,533.278" svgx:width="0.7,0.38,0.26,0.32,0.32,0.45,0.55,0.55,0.29,0.52,0.38,0.83,0.55,0.7,0.45,0.38,0.55,0.52,0.52,0.32,0.45,0.26,0.55,0.45,0.53,0.55,0.29,0.38,0.52,0.83,0.55,0.45,0.26,0.26,0.55,0.32,0.54,0.45,0.55,0.45,0.55,0.38,0.52,0.26,0.26,0.45,0.53" style="fill:rgb(19,20,19);font-family:VqgpptAdvTT86d47313;font-size:9.8px;stroke:none;">written form was obtained from all the enrolled</text>
   <text y="287.313" x="304.724,309.928,314.309,317.984,321.139,323.687,328.068,330.616,335.819,340.327,345.737,349.0,352.773" svgx:width="0.53,0.45,0.38,0.32,0.26,0.45,0.26,0.53,0.45,0.55,0.32,0.38,0.22" style="fill:rgb(19,20,19);font-family:VqgpptAdvTT86d47313;font-size:9.8px;stroke:none;">participants.</text>
   <text y="311.358" x="304.724,309.416,312.572,317.172,320.328,322.628,326.455,329.611,331.911,336.023,340.724,343.024,345.766,350.366,355.536,360.136,362.436,367.037,370.937,375.629" svgx:width="0.51,0.34,0.5,0.34,0.25,0.42,0.34,0.25,0.45,0.5,0.25,0.55,0.5,0.56,0.5,0.25,0.5,0.42,0.51,0.42" style="fill:rgb(19,20,19);font-family:QccmkbAdvTT99c4c969;font-size:9.2px;stroke:none;">Statistical analyses</text>
   <text y="323.32" x="304.724,311.682,314.867,318.64,323.021,325.569,328.42,331.988,335.663,340.043,343.199,345.747,351.156,355.86,359.035,364.131" svgx:width="0.71,0.55,0.38,0.45,0.26,0.29,0.36,0.38,0.45,0.32,0.26,0.55,0.48,0.55,0.52,0.29" style="fill:rgb(19,20,19);font-family:VqgpptAdvTT86d47313;font-size:9.8px;stroke:none;">A self-rating of</text>
   <text y="323.32" x="370.148,373.618,376.773,380.448,385.113,390.415,394.491,397.245,401.557,404.615,409.818,413.895,417.57,421.647" svgx:width="0.35,0.32,0.38,0.47,0.54,0.42,0.28,0.44,0.55,0.53,0.42,0.38,0.42,0.42" style="fill:rgb(19,20,19);font-family:HmxcsfAdvTT8861b38f.I;font-size:9.8px;stroke:none;">strongly agree</text>
   <text y="323.32" x="428.879,433.975" svgx:width="0.52,0.38" style="fill:rgb(19,20,19);font-family:VqgpptAdvTT86d47313;font-size:9.8px;stroke:none;">or</text>
   <text y="323.32" x="440.61,445.813,449.89,453.565,457.642" svgx:width="0.53,0.42,0.38,0.42,0.42" style="fill:rgb(19,20,19);font-family:HmxcsfAdvTT8861b38f.I;font-size:9.8px;stroke:none;">agree</text>
   <text y="323.32" x="464.815,471.646,476.213,479.937,483.014,487.394,492.49,497.978,501.751,504.299,509.503,513.884,517.559,521.939,527.1329999999999,530.289,534.767" svgx:width="0.7,0.45,0.38,0.55,0.45,0.52,0.55,0.38,0.26,0.53,0.45,0.38,0.45,0.53,0.55,0.45,0.38" style="fill:rgb(19,20,19);font-family:VqgpptAdvTT86d47313;font-size:9.8px;stroke:none;">was considered as</text>
   <text y="335.334" x="304.715,309.125,313.613,316.465,320.845,325.333,330.429,334.104,338.485,343.581,346.129,350.53900000000004,355.057,359.437,364.847,368.62,375.45,379.948,383.67199999999997,388.112,391.267,396.569,399.117,403.811,409.10299999999995,413.738,417.413,419.961,423.734,428.634,431.79,433.946,438.513,445.343,450.645,455.025,458.7,463.081,467.648,471.372,475.929,480.339,484.944,488.717,493.098,495.646,498.498,502.065,505.74,510.228,513.384,515.932,521.341,526.045,530.583,535.679" svgx:width="0.45,0.55,0.29,0.45,0.46,0.52,0.38,0.45,0.52,0.26,0.45,0.55,0.45,0.55,0.38,0.7,0.45,0.38,0.55,0.32,0.54,0.26,0.48,0.54,0.55,0.38,0.26,0.38,0.5,0.32,0.22,0.55,0.7,0.54,0.45,0.38,0.45,0.45,0.38,0.55,0.45,0.55,0.38,0.45,0.26,0.29,0.36,0.38,0.45,0.32,0.26,0.55,0.48,0.55,0.52,0.29" style="fill:rgb(19,20,19);font-family:VqgpptAdvTT86d47313;font-size:9.8px;stroke:none;">a favorable answer (high risk), whereas a self-rating of</text>
   <text y="347.349" x="304.715,310.016,314.093,319.503,322.658,326.333,331.537" svgx:width="0.54,0.42,0.55,0.32,0.38,0.53,0.28" style="fill:rgb(19,20,19);font-family:HmxcsfAdvTT8861b38f.I;font-size:9.8px;stroke:none;">neutral</text>
   <text y="347.349" x="334.251" svgx:width="0.22" style="fill:rgb(19,20,19);font-family:VqgpptAdvTT86d47313;font-size:9.8px;stroke:none;">,</text>
   <text y="347.349" x="340.2,345.502,348.255,351.725,356.928,361.005,364.68,368.757" svgx:width="0.54,0.28,0.35,0.53,0.42,0.38,0.42,0.42" style="fill:rgb(19,20,19);font-family:HmxcsfAdvTT8861b38f.I;font-size:9.8px;stroke:none;">disagree</text>
   <text y="347.349" x="372.971,375.127,378.923,384.023" svgx:width="0.22,0.55,0.52,0.38" style="fill:rgb(19,20,19);font-family:VqgpptAdvTT86d47313;font-size:9.8px;stroke:none;">, or</text>
   <text y="347.349" x="391.62,395.089,398.245,401.92,406.506,411.808,415.885,418.638,422.95,426.821,432.123,434.877,438.346,443.55,447.627,451.301,455.378" svgx:width="0.35,0.32,0.38,0.47,0.54,0.42,0.28,0.44,0.55,0.54,0.28,0.35,0.53,0.42,0.38,0.42,0.42" style="fill:rgb(19,20,19);font-family:HmxcsfAdvTT8861b38f.I;font-size:9.8px;stroke:none;">strongly disagree</text>
   <text y="347.349" x="463.336,470.166,474.674,478.39799999999997,482.269,486.65,491.746,497.234,501.007,503.554,508.758,513.139,516.814,521.194,526.3879999999999,530.289,534.767" svgx:width="0.7,0.45,0.38,0.55,0.45,0.52,0.55,0.38,0.26,0.53,0.45,0.38,0.45,0.53,0.55,0.45,0.38" style="fill:rgb(19,20,19);font-family:VqgpptAdvTT86d47313;font-size:9.8px;stroke:none;">was considered as</text>
   <text y="359.315" x="304.715,309.095,314.485,320.816,326.117,331.527,334.379,338.759,343.248,348.344,352.019,356.399,361.495,364.043,368.45300000000003,374.735,379.115,384.525,388.298,395.128,399.509,403.233,409.544,412.7,415.248,420.344,427.204,433.466,437.141,439.689,443.461,448.43,451.586,453.742,459.994,464.992,468.147,472.528,475.684,478.232,482.103,485.258,487.806,492.187,496.567,499.115,505.456,509.836,515.246,519.626,522.174,526.555,530.328,534.708" svgx:width="0.45,0.55,0.55,0.54,0.55,0.29,0.45,0.46,0.52,0.38,0.45,0.52,0.26,0.45,0.55,0.45,0.55,0.38,0.7,0.45,0.38,0.55,0.32,0.26,0.52,0.7,0.55,0.38,0.26,0.38,0.5,0.32,0.22,0.55,0.51,0.32,0.45,0.32,0.26,0.38,0.32,0.26,0.45,0.45,0.26,0.55,0.45,0.55,0.45,0.26,0.45,0.38,0.45,0.38" style="fill:rgb(19,20,19);font-family:VqgpptAdvTT86d47313;font-size:9.8px;stroke:none;">an unfavorable answer (low risk). Statistical analyses</text>
   <text y="371.329" x="304.715,311.545,315.926,319.601,324.011,327.676,332.056,337.152,342.562,347.765,353.067,357.448,360.603,364.984,370.178,373.823,379.125,382.898,385.446,390.856,395.56,399.107,403.51700000000005,406.986,411.367,416.463,424.626,432.789,437.258,440.933,445.314,447.862,452.242,454.79,457.338,461.74800000000005,465.325,469.706,474.194,478.477,481.025,483.572,487.953,493.049,495.597,500.007,503.594,508.797,512.472,517.568,522.262,525.937,530.318" svgx:width="0.7,0.45,0.38,0.45,0.55,0.45,0.52,0.55,0.53,0.54,0.45,0.32,0.45,0.53,0.55,0.54,0.38,0.26,0.55,0.48,0.55,0.45,0.55,0.45,0.52,0.83,0.83,0.45,0.38,0.45,0.26,0.45,0.26,0.26,0.45,0.55,0.45,0.46,0.45,0.26,0.26,0.45,0.52,0.26,0.45,0.55,0.53,0.38,0.52,0.48,0.38,0.45,0.83" style="fill:rgb(19,20,19);font-family:VqgpptAdvTT86d47313;font-size:9.8px;stroke:none;">were conducted using a commercially available program</text>
   <text y="383.344" x="304.715,307.87,312.868,318.376,323.374,328.372,332.497,337.397,342.297,344.434,349.334,353.361,356.213,361.309,365.033,369.061,378.959,381.507,386.916,392.188,397.284,404.115,408.123,410.279,414.307,419.305,424.812,429.898,435.004,437.16,441.188,447.823,453.124,455.672,460.053,464.433,469.128,474.223,476.379,480.476,483.739,486.287,488.443,492.49,499.635,504.633,511.649,514.805,516.9609999999999,520.998,527.633,532.013,535.002" svgx:width="0.32,0.51,0.56,0.51,0.51,0.55,0.5,0.5,0.22,0.5,0.55,0.29,0.52,0.38,0.55,1.01,0.26,0.55,0.53,0.52,0.7,0.38,0.22,0.55,0.51,0.56,0.51,0.51,0.22,0.55,0.68,0.54,0.26,0.45,0.45,0.48,0.52,0.22,0.55,0.33,0.26,0.22,0.55,0.73,0.51,0.71,0.32,0.22,0.55,0.68,0.45,0.32,0.36" style="fill:rgb(19,20,19);font-family:VqgpptAdvTT86d47313;font-size:9.8px;stroke:none;">(SPSS 19.0 for Windows, SPSS, Chicago, Il, USA). Cat-</text>
   <text y="395.31" x="304.715,309.095,313.789,318.885,322.56,325.108,329.489,333.967,336.515,341.454,345.943,350.323,353.998,356.546,361.015,366.111,368.659,373.039,376.763,381.761,388.592,392.972,396.726,401.136,406.026,410.406,415.894,420.275,422.823,427.203,431.486,435.867,441.06100000000004,446.058,451.36,455.133,457.681,463.091,467.795,472.822,475.978,481.279,485.689,490.736,495.117,500.418,502.966,506.534,510.307,515.51,520.812,525.193,528.868,533.366" svgx:width="0.45,0.48,0.52,0.38,0.26,0.45,0.45,0.26,0.55,0.46,0.45,0.38,0.26,0.45,0.52,0.26,0.45,0.38,0.55,0.7,0.45,0.38,0.45,0.55,0.45,0.55,0.45,0.26,0.45,0.44,0.45,0.53,0.55,0.54,0.38,0.26,0.55,0.48,0.55,0.32,0.54,0.45,0.55,0.45,0.54,0.26,0.36,0.38,0.53,0.54,0.45,0.38,0.45,0.53" style="fill:rgb(19,20,19);font-family:VqgpptAdvTT86d47313;font-size:9.8px;stroke:none;">egorical variables were analyzed using the chi-squared</text>
   <text y="407.324" x="304.715,307.87,312.251,316.024,319.16,322.511,327.607,331.331,334.526,339.622,342.17,345.943,351.244,355.733" svgx:width="0.32,0.45,0.38,0.32,0.55,0.52,0.38,0.55,0.52,0.26,0.38,0.54,0.45,0.38" style="fill:rgb(19,20,19);font-family:VqgpptAdvTT86d47313;font-size:9.8px;stroke:none;">test or Fisher</text>
   <text y="407.324" x="359.594" svgx:width="0.2" style="fill:rgb(19,20,19);font-family:PgnktcAdvTT86d47313;font-size:9.8px;stroke:none;">’</text>
   <text y="407.324" x="360.956,364.68,367.983,372.363,377.155,381.536,385.916,389.052,392.414,395.569,399.95,403.723,406.85900000000004,410.161,416.992,422.294,426.674,432.06399999999996,435.386,439.767,444.971,450.174,453.928,459.024,464.227,467.902,470.45,474.831,478.075,482.455,484.611,487.826,494.78400000000005,498.027,506.191,511.581,514.129,517.284,519.832,524.32,528.701,532.376,534.924" svgx:width="0.38,0.55,0.45,0.49,0.45,0.45,0.32,0.55,0.32,0.45,0.38,0.32,0.55,0.7,0.54,0.45,0.55,0.55,0.45,0.53,0.53,0.38,0.52,0.53,0.38,0.26,0.45,0.32,0.45,0.22,0.55,0.71,0.55,0.83,0.54,0.26,0.32,0.26,0.46,0.45,0.38,0.26,0.36" style="fill:rgb(19,20,19);font-family:VqgpptAdvTT86d47313;font-size:9.8px;stroke:none;">s exact test when appropriate. A multivari-</text>
   <text y="419.339" x="304.715,309.095,312.251,316.661,320.022,322.57,327.666,332.36,334.908,338.681,341.837,344.385,348.795,352.224,355.899,360.28,364.974,368.649,373.03,376.881,380.654,383.202,388.298,393.688,397.059,405.222,410.318,415.6,419.981,422.529,425.861,432.691,437.258,440.98199999999997,444.343,449.645,453.418,457.897,463.091,466.452,469.608,474.704,478.075,482.455,487.659,490.109,495.411,499.184,502.32000000000005,505.74,508.592,513.688,517.412,520.763,525.967,531.063,534.993" svgx:width="0.45,0.32,0.45,0.55,0.26,0.52,0.48,0.26,0.38,0.32,0.26,0.45,0.55,0.38,0.45,0.48,0.38,0.45,0.38,0.38,0.26,0.52,0.55,0.55,0.83,0.52,0.53,0.45,0.26,0.55,0.7,0.45,0.38,0.55,0.54,0.38,0.45,0.53,0.55,0.32,0.52,0.55,0.45,0.53,0.25,0.54,0.38,0.32,0.55,0.29,0.52,0.38,0.55,0.53,0.52,0.38,0.36" style="fill:rgb(19,20,19);font-family:VqgpptAdvTT86d47313;font-size:9.8px;stroke:none;">ate logistic regression model was used to adjust for pos-</text>
   <text y="431.305" x="304.715,308.487,311.035,316.131,318.679,323.089,330.224,334.604,339.7,345.11,347.961,353.057,358.457,363.867,369.07,373.451,377.126,380.899,383.055,390.091,397.745,402.949,408.152,411.876,419.001,422.676,427.056,430.212,432.76,437.856,441.58,448.655,453.036,458.524,463.718,470.715,475.615,480.515,487.375,494.411,498.792,503.888,509.297,512.149,514.697,519.901,524.281,529.691,534.071" svgx:width="0.38,0.26,0.52,0.26,0.45,0.55,0.45,0.52,0.55,0.29,0.52,0.54,0.55,0.53,0.45,0.38,0.38,0.22,0.55,0.78,0.53,0.53,0.38,0.55,0.38,0.45,0.32,0.26,0.52,0.38,0.55,0.45,0.55,0.53,0.55,0.5,0.5,0.7,0.55,0.45,0.52,0.55,0.29,0.26,0.53,0.45,0.55,0.45,0.45" style="fill:rgb(19,20,19);font-family:VqgpptAdvTT86d47313;font-size:9.8px;stroke:none;">sible confounders. Odds ratios and 95% confidence</text>
   <text y="443.319" x="304.715,307.262,312.672,315.828,320.208,324.275,328.763,333.144,335.692,339.416,344.453,351.284,355.664,359.339,363.749,368.835,373.216,377.675,380.223,384.603,389.905,392.453,396.834,399.989,404.37,409.564,414.64,419.021,421.872,425.028,429.408,433.132,438.111,442.491,447.695,450.145,455.447,459.22,462.375,470.656,475.037,480.446,483.749,487.473,492.481,495.332,500.428,504.152,509.091,513.472,518.568,524.056,527.211,530.886,535.982" svgx:width="0.26,0.55,0.32,0.45,0.38,0.46,0.45,0.26,0.38,0.55,0.7,0.45,0.38,0.45,0.55,0.45,0.45,0.26,0.45,0.54,0.26,0.45,0.32,0.45,0.53,0.55,0.45,0.29,0.32,0.45,0.38,0.55,0.45,0.53,0.25,0.54,0.38,0.32,0.83,0.45,0.55,0.32,0.38,0.55,0.29,0.52,0.38,0.55,0.45,0.52,0.55,0.32,0.38,0.52,0.26" style="fill:rgb(19,20,19);font-family:VqgpptAdvTT86d47313;font-size:9.8px;stroke:none;">intervals were calculated after adjustments for control</text>
   <text y="455.334" x="304.715,309.203,313.583,317.258,319.806,324.275,329.371,331.919,336.3,340.073,342.229,345.198,350.196,352.744,357.438,362.848,365.395,368.247,370.883,375.264,379.645,385.054,389.435,393.845,396.794,403.625,408.133,411.85699999999997,414.875,420.079,424.459,427.311,429.859,435.269,439.649,444.843,447.871,452.409" svgx:width="0.46,0.45,0.38,0.26,0.45,0.52,0.26,0.45,0.38,0.22,0.55,0.51,0.26,0.48,0.55,0.26,0.29,0.26,0.45,0.45,0.55,0.45,0.45,0.55,0.7,0.45,0.38,0.55,0.53,0.45,0.29,0.26,0.55,0.45,0.53,0.55,0.45,0.38" style="fill:rgb(19,20,19);font-family:VqgpptAdvTT86d47313;font-size:9.8px;stroke:none;">variables. Significance was defined as</text>
   <text y="455.334" x="459.092" svgx:width="0.56" style="fill:rgb(19,20,19);font-family:HmxcsfAdvTT8861b38f.I;font-size:9.8px;stroke:none;">P</text>
   <text y="455.334" x="466.579,471.871,473.831,478.731,480.868,485.768,490.668" svgx:width="0.54,0.55,0.5,0.22,0.5,0.5,0.22" style="fill:rgb(19,20,19);font-family:VqgpptAdvTT86d47313;font-size:9.8px;stroke:none;">&lt; 0.05.</text>
   <text y="479.339" x="304.724,310.729,316.085,320.483,326.375,329.156,332.905" svgx:width="0.58,0.52,0.43,0.57,0.27,0.36,0.43" style="fill:rgb(19,20,19);font-family:YfdqqkAdvTTaf7f9f4f.B;font-size:10.3px;stroke:none;">Results</text>
   <text y="491.357" x="304.724,310.953,315.645,323.4,328.571,333.916,337.173,341.773,347.137,352.307,354.607,358.747,361.526,366.788,371.388,374.544,379.144,381.931,387.102,389.95399999999995,392.76,395.916,401.086,405.778,408.52,413.883,418.557,421.814,424.969,427.269,431.382,433.682,439.046,443.646,448.816,451.972" svgx:width="0.68,0.51,0.84,0.56,0.57,0.35,0.5,0.58,0.56,0.25,0.45,0.55,0.57,0.5,0.34,0.5,0.55,0.56,0.31,0.55,0.34,0.56,0.51,0.55,0.58,0.5,0.35,0.34,0.25,0.45,0.25,0.58,0.5,0.56,0.34,0.42" style="fill:rgb(19,20,19);font-family:QccmkbAdvTT99c4c969;font-size:9.2px;stroke:none;">Demographic data of the participants</text>
   <text y="503.32" x="304.724,312.378,316.866,321.247,324.922,329.381,331.929,334.477,336.633,339.524,344.424,349.324,354.224,357.154,364.7,371.334,381.301,385.025,387.994,394.825,399.205,402.88,407.29,410.22,414.601,417.149,419.697,424.391,426.939,432.035,434.583,438.99300000000005,441.913,444.765,449.861,453.585,456.486,460.866,466.276,469.951,475.135,477.683,480.231,488.394,492.775,498.184,501.34,503.496,506.426,509.689,515.0790000000001,518.049,521.204,526.3,529.456,533.836,536.384" svgx:width="0.78,0.46,0.45,0.38,0.45,0.26,0.26,0.22,0.55,0.5,0.5,0.5,0.55,0.77,0.68,1.01,0.38,0.55,0.7,0.45,0.38,0.45,0.55,0.45,0.26,0.26,0.48,0.26,0.52,0.26,0.45,0.55,0.29,0.52,0.38,0.55,0.45,0.55,0.38,0.52,0.26,0.26,0.83,0.45,0.55,0.32,0.22,0.55,0.33,0.55,0.55,0.32,0.52,0.32,0.45,0.26,0.22" style="fill:rgb(19,20,19);font-family:VqgpptAdvTT86d47313;font-size:9.8px;stroke:none;">Overall, 255 HCWs were eligible for enrollment. In total,</text>
   <text y="515.334" x="304.724,309.624,314.524,319.424,323.089,327.578,331.958,334.506,337.054,342.248,345.933,351.137,356.438,360.819,364.592,367.747,370.295,375.391,380.801,386.21,390.718,393.266,396.941,401.322,405.046,408.75,415.581,419.961,423.636,428.04600000000005,431.711,435.386,439.767,442.922,448.224,451.899,457.309,461.689,466.88300000000004,470.607,473.763,478.663,483.563,487.218,494.764,501.399,511.296,515.02,518.735,521.586,525.261,530.357" svgx:width="0.5,0.5,0.5,0.55,0.46,0.45,0.26,0.26,0.53,0.55,0.53,0.54,0.45,0.38,0.32,0.26,0.52,0.55,0.55,0.45,0.26,0.38,0.45,0.38,0.55,0.7,0.45,0.38,0.45,0.55,0.38,0.45,0.32,0.54,0.38,0.55,0.45,0.53,0.55,0.32,0.5,0.5,0.55,0.77,0.68,1.01,0.38,0.55,0.29,0.38,0.52,0.83" style="fill:rgb(19,20,19);font-family:VqgpptAdvTT86d47313;font-size:9.8px;stroke:none;">186 valid questionnaires were returned (97 HCWs from</text>
   <text y="527.349" x="304.724,307.88,313.182,317.59200000000004,320.541,327.989,332.37,335.525,338.073,343.169,348.579,352.959,355.507,358.526,365.053,370.835,373.774,381.32,386.416,390.268,395.471,398.019,401.175,405.556,408.103,410.259,413.17,418.07,422.96999999999997,425.93,433.475,440.11,450.076,453.8,456.77,459.622,463.297,468.392,476.526,479.506,482.661,487.963,492.37300000000005,495.264,501.281,506.377,515.491,518.45,525.996,531.092,535.002" svgx:width="0.32,0.54,0.45,0.55,0.76,0.45,0.32,0.26,0.52,0.55,0.45,0.26,0.55,0.67,0.59,0.55,0.77,0.52,0.38,0.53,0.26,0.32,0.45,0.26,0.22,0.55,0.5,0.5,0.55,0.77,0.68,1.01,0.38,0.55,0.29,0.38,0.52,0.83,0.55,0.32,0.54,0.45,0.55,0.61,0.52,0.93,0.55,0.77,0.52,0.38,0.36" style="fill:rgb(19,20,19);font-family:VqgpptAdvTT86d47313;font-size:9.8px;stroke:none;">the National TB Hospital, 57 HCWs from the RFM Hos-</text>
   <text y="539.315" x="304.724,309.928,312.476,315.632,320.012,322.56,324.716,329.616,333.997,339.406,344.6,349.52,354.42,359.32,364.141,371.687,378.322,388.288,392.012,396.902,399.754,403.429,408.525,416.659,421.559,426.557,433.495,440.943,448.263,451.419,453.575,458.406,460.954,466.364,471.568,474.116,478.584,482.965,486.121,488.668,494.078,498.782,503.643,508.053,512.884,516.559,520.94,524.095,529.397,533.072" svgx:width="0.53,0.26,0.32,0.45,0.26,0.22,0.55,0.45,0.55,0.53,0.55,0.5,0.5,0.55,0.77,0.68,1.01,0.38,0.55,0.29,0.38,0.52,0.83,0.55,0.51,0.71,0.76,0.73,0.32,0.22,0.55,0.26,0.55,0.53,0.26,0.45,0.45,0.32,0.26,0.55,0.48,0.55,0.45,0.55,0.38,0.45,0.32,0.54,0.38,0.55" style="fill:rgb(19,20,19);font-family:VqgpptAdvTT86d47313;font-size:9.8px;stroke:none;">pital, and 32 HCWs from SANU), indicating a return</text>
   <text y="551.329" x="304.724,308.399,312.78,315.935,320.345,323.55,328.646,331.488,334.722,339.622,344.59,346.727,351.627,358.457,360.613,363.808,367.071,372.461,375.715,379.488,384.692,389.209,393.59,396.138,398.99,401.538,406.104,408.26,411.435,414.591,419.893,424.303,427.537,431.212,435.592,439.365,444.569,449.665,455.074,458.847,463.257,466.482,470.156,474.537,477.693,482.103,485.356,492.187,496.695,500.419,503.672,508.572,513.472,515.608,520.508,527.368,530.602,533.15" svgx:width="0.38,0.45,0.32,0.45,0.55,0.52,0.29,0.55,0.5,0.5,0.22,0.5,0.7,0.22,0.55,0.33,0.55,0.55,0.38,0.53,0.45,0.45,0.26,0.29,0.26,0.45,0.22,0.55,0.32,0.54,0.45,0.55,0.38,0.45,0.38,0.53,0.52,0.55,0.38,0.45,0.55,0.38,0.45,0.32,0.45,0.55,0.7,0.45,0.38,0.55,0.5,0.5,0.22,0.5,0.7,0.55,0.26,0.55" style="fill:rgb(19,20,19);font-family:VqgpptAdvTT86d47313;font-size:9.8px;stroke:none;">rate of 72.9%. In specific, the response rate was 84.3% in</text>
   <text y="563.344" x="304.724,307.88,313.182,317.59200000000004,322.07,329.518,333.899,337.054,339.602,344.698,350.108,354.616,357.164,361.593,368.12,373.902,378.429,385.975,391.071,394.923,400.126,402.674,405.83,410.211,412.758,414.914,419.413,424.313,429.213,431.349,436.249,443.10900000000004,447.587,450.135,455.525,460.004,463.159,468.461,472.87100000000004,477.35,483.367,488.463,497.577,502.065,509.611,514.707,518.48,523.684,526.33,529.485,533.866,536.414" svgx:width="0.32,0.54,0.45,0.55,0.76,0.45,0.32,0.26,0.52,0.55,0.45,0.26,0.55,0.67,0.59,0.55,0.77,0.52,0.38,0.53,0.26,0.32,0.45,0.26,0.22,0.55,0.5,0.5,0.22,0.5,0.7,0.55,0.26,0.55,0.55,0.32,0.54,0.45,0.55,0.61,0.52,0.93,0.55,0.77,0.52,0.38,0.53,0.26,0.32,0.45,0.26,0.22" style="fill:rgb(19,20,19);font-family:VqgpptAdvTT86d47313;font-size:9.8px;stroke:none;">the National TB Hospital, 87.7% in the RFM Hospital,</text>
   <text y="575.31" x="304.724,309.105,314.514,319.708,324.393,329.293,334.193,336.329,341.229,348.089,352.793,355.341,360.731,365.435,370.433,377.371,384.819,391.963,394.119,398.823,405.232,410.534,414.944,419.628,424.832,429.212,437.376,442.472,447.166,450.919,455.3,460.504,465.805,468.353,472.76300000000003,477.448,479.996,485.405,488.257,493.353,497.028,505.279,509.66,512.815,515.363,520.459,525.8489999999999,530.563,535.659" svgx:width="0.45,0.55,0.53,0.55,0.5,0.5,0.22,0.5,0.7,0.55,0.26,0.55,0.55,0.51,0.71,0.76,0.73,0.22,0.55,0.67,0.54,0.45,0.55,0.53,0.45,0.83,0.52,0.48,0.38,0.45,0.53,0.54,0.26,0.45,0.55,0.26,0.55,0.29,0.52,0.38,0.83,0.45,0.32,0.26,0.52,0.55,0.55,0.52,0.29" style="fill:rgb(19,20,19);font-family:VqgpptAdvTT86d47313;font-size:9.8px;stroke:none;">and 42.7% in SANU. The demographic information of</text>
   <text y="587.324" x="304.724,309.105,311.653,314.201,318.327,321.482,326.784,331.194,335.28,340.484,344.865,348.54,351.695,354.243,358.624,361.172,366.375,370.883,376.293,379.556,383.28,387.435,389.983,393.707,397.814,400.362,402.91,406.682,409.838,414.307,419.50100000000003,423.607,426.155,431.54499999999996,435.622,441.237,445.617,450.713,453.261,457.67100000000005,461.817,466.717,468.873,472.93,482.828,487.238,491.354,495.734,501.144,504.819,509.915,512.463,515.011,519.391,524.5849999999999,528.77,533.67" svgx:width="0.45,0.26,0.26,0.55,0.32,0.54,0.45,0.55,0.53,0.45,0.38,0.32,0.26,0.45,0.26,0.53,0.45,0.55,0.32,0.38,0.55,0.26,0.38,0.55,0.26,0.26,0.38,0.32,0.45,0.53,0.55,0.26,0.55,0.55,0.67,0.45,0.52,0.26,0.45,0.55,0.5,0.22,0.55,1.01,0.45,0.55,0.45,0.55,0.38,0.52,0.26,0.26,0.45,0.53,0.55,0.5,0.5" style="fill:rgb(19,20,19);font-family:VqgpptAdvTT86d47313;font-size:9.8px;stroke:none;">all the participants is listed in Table 1. We enrolled 19</text>
   <text y="599.339" x="304.724,312.888,317.268,322.472,325.02,329.498,333.879,336.427,343.052,348.255,353.351,357.732,360.888,365.983,369.756,373.725,375.88100000000003,382.516,387.416,392.316,398.96,404.37,409.671,413.415,417.188,421.568,425.292,432.005,435.161,440.061,446.686,450.459,453.007,456.78,459.935,464.316,467.991,471.715,478.486,481.034,486.424,493.059,497.439,502.741,507.122,510.797,515.491,519.989,522.145,528.779,533.679" svgx:width="0.83,0.45,0.53,0.26,0.45,0.45,0.26,0.55,0.53,0.52,0.45,0.32,0.52,0.38,0.38,0.22,0.55,0.5,0.5,0.55,0.55,0.54,0.38,0.38,0.45,0.38,0.55,0.32,0.5,0.55,0.38,0.26,0.38,0.32,0.45,0.38,0.38,0.55,0.26,0.55,0.55,0.45,0.54,0.45,0.38,0.48,0.45,0.22,0.55,0.5,0.5" style="fill:rgb(19,20,19);font-family:VqgpptAdvTT86d47313;font-size:9.8px;stroke:none;">medical doctors, 99 nurses (4 sisters in charge, 81</text>
   <text y="611.305" x="304.724,310.134,315.436,319.111,322.884,327.342,331.311,333.467,337.378,341.758,347.168,352.362,356.252,361.152,366.05199999999996,369.972,375.382,380.683,384.427,388.2,390.748,396.157,400.861,404.781,409.26,413.033,416.806,419.354,423.127,426.282,430.663,436.19,439.424,443.197,446.352,448.508,452.409,456.789,462.277,467.471,471.352,476.252,481.152,485.072,489.452,492.0,494.548,497.096,501.565,506.759,510.64,518.186,524.82,534.787" svgx:width="0.55,0.54,0.38,0.38,0.45,0.38,0.22,0.55,0.45,0.55,0.53,0.55,0.5,0.5,0.55,0.55,0.54,0.38,0.38,0.26,0.55,0.48,0.55,0.45,0.38,0.38,0.26,0.38,0.32,0.45,0.55,0.32,0.38,0.32,0.22,0.55,0.45,0.55,0.53,0.55,0.5,0.5,0.55,0.45,0.26,0.26,0.26,0.45,0.53,0.55,0.77,0.68,1.01,0.38" style="fill:rgb(19,20,19);font-family:VqgpptAdvTT86d47313;font-size:9.8px;stroke:none;">nurses, and 14 nursing assistants), and 68 allied HCWs</text>
   <text y="623.319" x="304.724,307.88,312.78,317.67999999999995,322.982,326.755,329.91,335.212,340.416,344.796,350.206,353.538,357.507,359.663,364.935,369.835,375.078,377.626,382.006,387.102,392.198,395.873,400.254,403.409,408.505,412.18,416.59000000000003,421.902,425.057,429.614,433.995,439.297,444.706,447.254,451.635,454.183,458.563,463.973,468.049,470.205,475.419,480.319,485.219,490.501,497.332,501.712,505.387,510.581,515.902,520.283,522.831,528.035,532.415,536.423" svgx:width="0.32,0.5,0.5,0.55,0.38,0.32,0.54,0.53,0.45,0.55,0.32,0.38,0.22,0.55,0.5,0.55,0.26,0.45,0.52,0.52,0.38,0.45,0.32,0.52,0.38,0.45,0.55,0.32,0.45,0.45,0.54,0.55,0.26,0.45,0.26,0.45,0.55,0.38,0.22,0.55,0.5,0.5,0.55,0.7,0.45,0.38,0.53,0.55,0.45,0.26,0.53,0.45,0.38,0.22" style="fill:rgb(19,20,19);font-family:VqgpptAdvTT86d47313;font-size:9.8px;stroke:none;">(32 students, 8 laboratory technicians, 15 ward aides,</text>
   <text y="635.334" x="304.724,309.105,314.514,319.708,322.697,327.597,332.49699999999996,335.457,340.553,343.708,349.01,353.391,357.115,360.064,367.61,374.245,384.211,387.984,391.14" svgx:width="0.45,0.55,0.53,0.55,0.5,0.5,0.55,0.52,0.32,0.54,0.45,0.38,0.55,0.77,0.68,1.01,0.38,0.32,0.22" style="fill:rgb(19,20,19);font-family:VqgpptAdvTT86d47313;font-size:9.8px;stroke:none;">and 13 other HCWs).</text>
   <text y="647.3" x="312.721,319.248,324.549,328.959,332.34,338.867,344.649,348.667,353.871,358.251,363.455,367.836,371.511,374.666,382.829,387.328,392.737,395.87300000000005,399.852,406.682,411.19,414.914,418.962,424.165,428.546,431.398,433.946,439.355,443.736,448.93,452.977,457.456,461.18,465.168,470.372,474.753,479.956,484.445,488.12,491.275,499.438,503.819,509.229,512.384,516.765,519.313,523.34,527.113,531.494,535.022" svgx:width="0.67,0.54,0.45,0.55,0.67,0.59,0.55,0.53,0.45,0.53,0.45,0.38,0.32,0.83,0.45,0.55,0.32,0.55,0.7,0.45,0.38,0.55,0.53,0.45,0.29,0.26,0.55,0.45,0.53,0.55,0.45,0.38,0.55,0.53,0.45,0.53,0.45,0.38,0.32,0.83,0.45,0.55,0.32,0.45,0.26,0.55,0.38,0.45,0.38,0.36" style="fill:rgb(19,20,19);font-family:VqgpptAdvTT86d47313;font-size:9.8px;stroke:none;">The TB department was defined as departmental ser-</text>
   <text y="659.314" x="304.724,309.213,311.761,316.141,320.55100000000004,326.666,329.518,334.614,338.33799999999997,344.414,350.941,356.752,358.908,364.994,371.932,377.136,382.339,386.083,391.179,395.971,398.519,406.682,411.063,414.317,418.697,421.245,425.65500000000003,431.721,434.877,441.707,446.803,450.37,453.526,458.936,461.484,465.158,470.35200000000003,476.458,481.554,484.39599999999996,490.521,495.724,500.105,503.78,507.014,509.562,513.942,516.49,521.694,526.075,531.484,534.797" svgx:width="0.46,0.26,0.45,0.45,0.55,0.29,0.52,0.38,0.55,0.67,0.59,0.22,0.55,0.71,0.53,0.53,0.38,0.52,0.49,0.26,0.83,0.45,0.32,0.45,0.26,0.45,0.55,0.32,0.7,0.52,0.36,0.32,0.54,0.26,0.38,0.53,0.55,0.52,0.29,0.55,0.53,0.45,0.38,0.32,0.26,0.45,0.26,0.53,0.45,0.55,0.32,0.38" style="fill:rgb(19,20,19);font-family:VqgpptAdvTT86d47313;font-size:9.8px;stroke:none;">vice for TB. Approximately two-third of participants</text>
   <text y="671.329" x="304.724,311.555,316.651,320.326,325.304,329.685,334.879,337.828,340.376,345.76599999999996,348.765,351.921,357.222,361.632,364.073,370.599,376.381,379.38,384.584,388.964,394.168,398.549,402.223,405.379,413.542,418.041,423.45,426.586,429.546,432.397,437.493,441.217,444.118,446.666,451.047,454.82,458.544,461.581,464.737,470.039,474.508,479.89799999999997,482.837,487.73699999999997,490.717,495.097,499.478,503.858,507.533,511.306" svgx:width="0.7,0.52,0.38,0.5,0.45,0.53,0.55,0.26,0.55,0.55,0.32,0.54,0.45,0.55,0.67,0.59,0.55,0.53,0.45,0.53,0.45,0.38,0.32,0.83,0.45,0.55,0.32,0.55,0.29,0.52,0.38,0.55,0.26,0.45,0.38,0.38,0.55,0.32,0.54,0.45,0.55,0.55,0.5,0.55,0.45,0.45,0.45,0.38,0.38,0.22" style="fill:rgb(19,20,19);font-family:VqgpptAdvTT86d47313;font-size:9.8px;stroke:none;">worked in the TB department for less than 4 years.</text>
   <text y="695.338" x="304.724,307.116,312.287,315.157,319.849,323.962,327.117,329.417,334.588,339.74,342.592,346.704,351.875,357.045,360.201,363.458,368.729,371.029,373.771,376.642,381.812,385.03200000000004,387.829,392.613" svgx:width="0.26,0.56,0.31,0.51,0.45,0.34,0.25,0.56,0.56,0.55,0.45,0.56,0.56,0.34,0.35,0.56,0.25,0.55,0.31,0.56,0.35,0.55,0.52,0.57" style="fill:rgb(19,20,19);font-family:QccmkbAdvTT99c4c969;font-size:9.2px;stroke:none;">Infection control for TB</text>
   <text y="707.357" x="304.724,310.34,314.72,319.816,322.364,326.774,330.126,335.02599999999995,338.407,340.955,343.503,347.275,350.539,354.263,357.683,360.946,367.61,370.952,379.115,383.496,388.014,391.787,397.088,400.763,405.144,408.868,412.278,415.434,419.814,424.714,429.095,434.485,437.905,440.453,445.84299999999996,449.243,455.77,461.55199999999996,465.06,469.441,474.851,480.045,483.425,488.835,493.931,499.34,502.535,509.062,514.844,518.235,521.086,525.467,529.848,532.396,534.943" svgx:width="0.67,0.45,0.52,0.26,0.45,0.55,0.5,0.55,0.26,0.26,0.38,0.32,0.38,0.55,0.33,0.68,0.55,0.83,0.45,0.45,0.38,0.54,0.38,0.45,0.38,0.55,0.32,0.45,0.5,0.45,0.55,0.55,0.26,0.55,0.55,0.67,0.59,0.55,0.45,0.55,0.53,0.55,0.55,0.52,0.55,0.36,0.67,0.59,0.55,0.29,0.45,0.45,0.26,0.26,0.36" style="fill:rgb(19,20,19);font-family:VqgpptAdvTT86d47313;font-size:9.8px;stroke:none;">Table 2 lists IC measures taken in TB and non-TB facil-</text>
   <text y="719.323" x="304.724,307.272,310.428,312.976,317.356,321.129,323.285,326.206,333.859,338.348,342.728,346.403,350.784,353.42,355.968,358.124,360.956,364.112,369.413,373.82300000000004,376.714,384.878,389.974,393.747,396.88300000000004,399.783,404.164,409.26,417.531,425.694,430.79,436.18,439.071,442.335,448.99899999999997,451.88,460.043,464.424,468.941,472.714,478.016,481.691,486.101,488.953,495.783,500.35,504.074,506.984,509.532,514.942,520.146,522.694,527.182,529.73,534.934" svgx:width="0.26,0.32,0.26,0.45,0.38,0.22,0.55,0.78,0.46,0.45,0.38,0.45,0.26,0.26,0.22,0.55,0.32,0.54,0.45,0.55,0.83,0.52,0.38,0.32,0.55,0.45,0.52,0.83,0.83,0.52,0.55,0.55,0.33,0.68,0.55,0.83,0.45,0.45,0.38,0.54,0.38,0.45,0.55,0.7,0.45,0.38,0.55,0.26,0.55,0.53,0.26,0.46,0.26,0.53,0.36" style="fill:rgb(19,20,19);font-family:VqgpptAdvTT86d47313;font-size:9.8px;stroke:none;">ities. Overall, the most common IC measure was individ-</text>
   <text y="731.338" x="304.724,310.026,314.407,316.955,320.884,325.98,330.361,335.663,340.043,344.531,347.079,352.175,355.899,359.78,362.328,367.738,372.118,374.666,379.968,385.172,387.72,393.227,397.931,401.783,408.613,412.994,417.374,421.049,423.597,429.105,433.809,437.719,442.129,446.0,451.203,454.878,459.974,463.13,467.657,472.038,475.194,477.742,482.23,486.64000000000004,490.619,495.313,500.409,507.239,512.629,516.588,523.419,528.721,533.101" svgx:width="0.54,0.45,0.26,0.55,0.52,0.45,0.54,0.45,0.46,0.26,0.52,0.38,0.55,0.26,0.55,0.45,0.26,0.54,0.53,0.26,0.55,0.48,0.55,0.7,0.45,0.45,0.38,0.26,0.55,0.48,0.55,0.45,0.55,0.53,0.38,0.52,0.32,0.45,0.45,0.32,0.26,0.46,0.45,0.55,0.48,0.52,0.7,0.55,0.55,0.7,0.54,0.45,0.55" style="fill:rgb(19,20,19);font-family:VqgpptAdvTT86d47313;font-size:9.8px;stroke:none;">ual behavior including wearing a protective gown when</text>
   <text y="39.005" x="56.693,63.437,67.437,71.853" svgx:width="0.84,0.5,0.55,0.55" style="fill:rgb(19,20,19);font-family:RbjtmyAdvTTe45e47d2;font-size:8.0px;stroke:none;">Weng</text>
   <text y="39.005" x="78.637,82.213,84.693,87.085,91.244,92.988,94.668,97.06,101.14,107.3,111.7,114.068,115.9,120.148,122.396,125.972,129.3,131.796,133.54,137.7,141.86,144.74,147.124,152.284,154.028,156.94,160.516,164.676,167.587,171.163" svgx:width="0.45,0.31,0.55,0.52,0.22,0.21,0.55,0.51,0.77,0.55,0.55,0.23,0.53,0.28,0.45,0.42,0.31,0.22,0.52,0.52,0.36,0.55,0.64,0.22,0.36,0.45,0.52,0.36,0.45,0.36" style="fill:rgb(19,20,19);font-family:LfpwlbAdvTT7329fd89.I;font-size:8.0px;stroke:none;">et al. BMC Infectious Diseases</text>
   <text y="39.005" x="176.435,178.131,180.403,184.507,188.611,192.715,196.819,199.091,200.787,204.891,208.995,210.651,214.755,218.859,222.963" svgx:width="0.21,0.28,0.51,0.51,0.51,0.51,0.28,0.21,0.51,0.51,0.21,0.51,0.51,0.51,0.21" style="fill:rgb(19,20,19);font-family:MyriadPro-Regular;font-size:8.0px;stroke:none;"> (2016) 16:697 </text>
   <text y="39.005" x="500.151,504.399,508.231,512.647,516.647,519.031,523.111,525.495,529.823,532.143,534.511" svgx:width="0.53,0.48,0.55,0.5,0.55,0.51,0.55,0.54,0.29,0.55,0.51" style="fill:rgb(19,20,19);font-family:RbjtmyAdvTTe45e47d2;font-size:8.0px;stroke:none;">Page 2 of 8</text>
  </g>
 </g>
</svg>
