<?xml version="1.0" encoding="UTF-8"?>
<svg height="615.776" width="393.116" xmlns="http://www.w3.org/2000/svg">
 <g id="page" xmlns:svgx="http://www.xml-cml.org/schema/svgx">
  <g begin="text">
   <text y="68.276" x="58.986,63.484,69.203,74.922,78.198,83.917,89.636,94.476,99.494,103.992,109.711,114.814,120.314,125.288,130.391,134.68099999999998,139.644,147.805,153.524,156.274,161.248,166.351,169.628,174.731,177.481,182.455,189.395,195.114,199.954,204.972,208.249,213.352,217.85,220.93,225.882,234.043,237.32,240.597,243.67700000000002,248.629,254.348,259.188,264.206,269.925,273.202,277.7,280.977,284.859,288.136,293.854,299.573,302.85,307.953,313.453,318.427,324.146,329.249,332.526,335.803,341.522,347.241,355.402,358.679,364.397,369.23699999999997,374.256,377.533" svgx:width="0.39,0.5,0.5,0.28,0.5,0.5,0.44,0.55,0.39,0.5,0.44,0.5,0.55,0.44,0.39,0.55,0.72,0.5,0.25,0.55,0.44,0.28,0.44,0.25,0.55,0.61,0.5,0.44,0.55,0.28,0.44,0.39,0.28,0.55,0.72,0.28,0.28,0.28,0.55,0.5,0.44,0.55,0.5,0.28,0.39,0.28,0.33,0.28,0.5,0.5,0.28,0.44,0.5,0.55,0.5,0.44,0.28,0.28,0.5,0.5,0.72,0.28,0.5,0.44,0.55,0.28,0.5" style="fill:rgb(23,22,21);font-family:Times-Roman;font-size:11.0px;stroke:none;">subtype such as N1, etc. The test will be distributed nationwide to</text>
   <text y="81.275" x="58.986,65.926,73.482,81.402,87.344,93.063,98.166,102.664,105.94,111.659,117.378,122.481,125.758,130.861,136.361,142.281,145.558,150.661,156.38,162.099,165.981,171.084,174.36,180.079,183.961,187.238,192.341,196.631,202.54,205.817,211.317,217.237,222.956,226.838,232.557,237.66,241.29,247.243,250.52,256.02,261.94,267.043,272.762,278.481,283.584,289.303,294.406,299.246,305.21,309.708,315.427,319.309,325.027,330.13,333.407,336.684,339.961,345.064,350.783,355.886,360.726,366.69,371.793,377.512" svgx:width="0.61,0.67,0.72,0.55,0.5,0.44,0.39,0.28,0.5,0.5,0.44,0.28,0.44,0.5,0.55,0.28,0.44,0.5,0.5,0.33,0.44,0.28,0.5,0.33,0.28,0.44,0.39,0.55,0.28,0.5,0.55,0.5,0.33,0.5,0.44,0.33,0.55,0.28,0.5,0.55,0.44,0.5,0.5,0.44,0.5,0.44,0.44,0.55,0.39,0.5,0.33,0.5,0.44,0.28,0.28,0.28,0.44,0.5,0.44,0.44,0.55,0.44,0.5,0.5" style="fill:rgb(23,22,21);font-family:Times-Roman;font-size:11.0px;stroke:none;">LRN designated laboratories in order to enhance surveillance and</text>
   <text y="94.275" x="58.986,64.705,67.982,73.085,78.803,84.522,90.241,94.739,98.016,101.293,106.13300000000001,109.189,114.292,119.395,125.113,130.216,135.935,139.212,142.489,145.766,149.043,152.32,157.423,161.921,164.671,167.682,174.622,180.341,185.444,189.326,194.166,197.222,202.325,206.207,211.047,214.102,219.205,224.924,230.643,234.525,240.244,245.963,249.24,258.017,263.119,266.396,271.499,274.776,280.276,283.288,289.007,294.726,300.226,303.238,310.177,317.733,325.653,328.687,331.964,337.067,342.786,348.505,352.387,357.49,360.766,366.485,370.367,373.644,378.747" svgx:width="0.5,0.28,0.44,0.5,0.5,0.5,0.39,0.28,0.28,0.44,0.55,0.44,0.44,0.5,0.44,0.5,0.28,0.28,0.28,0.28,0.28,0.44,0.39,0.25,0.55,0.61,0.5,0.44,0.33,0.44,0.55,0.44,0.33,0.44,0.55,0.44,0.5,0.5,0.33,0.5,0.5,0.28,0.78,0.44,0.28,0.44,0.28,0.5,0.55,0.5,0.5,0.5,0.55,0.61,0.67,0.72,0.55,0.28,0.44,0.5,0.5,0.33,0.44,0.28,0.5,0.33,0.28,0.44,0.39" style="fill:rgb(23,22,21);font-family:Times-Roman;font-size:11.0px;stroke:none;">diagnostic capabilities. There are approximately 140 LRN laboratories</text>
   <text y="107.275" x="58.986,62.263,67.982,71.864,77.582,83.301,89.02,94.739,100.458,106.177,109.257,114.53,117.807,123.526,128.36599999999999,133.706,141.866,147.585,150.862,154.139,159.242,164.742,170.037,176.372,179.649,184.752,188.029,193.132,197.63,200.38,205.675,212.615,218.334,223.174,228.513,236.069,244.23,251.6,256.863,260.745,265.847,270.95,276.669,285.446,294.223,299.326,305.045,310.764" svgx:width="0.28,0.5,0.33,0.5,0.5,0.5,0.5,0.5,0.5,0.28,0.55,0.28,0.5,0.44,0.55,0.72,0.5,0.28,0.28,0.44,0.5,0.55,0.56,0.28,0.44,0.28,0.44,0.39,0.25,0.55,0.61,0.5,0.44,0.55,0.67,0.72,0.67,0.55,0.33,0.44,0.44,0.5,0.78,0.78,0.44,0.5,0.5,0.39" style="fill:rgb(23,22,21);font-family:Times-Roman;font-size:11.0px;stroke:none;">throughout the United States. The CDC recommends</text>
   <text y="107.275" x="320.335,323.612,326.692,331.965,337.465,342.76,347.863,351.14,354.417,360.136,363.413,368.516,371.793,377.512" svgx:width="0.28,0.28,0.55,0.5,0.55,0.44,0.28,0.28,0.5,0.28,0.44,0.28,0.5,0.5" style="fill:rgb(23,22,21);font-family:Times-Italic;font-size:11.0px;stroke:none;">if a clinician</text>
   <text y="120.275" x="58.986,63.484,69.203,73.701,79.419,84.522,89.625,92.902,97.19200000000001,100.323,105.823,108.964,114.683,120.402,123.679,126.956,132.059,137.778,140.858,143.977,152.138,157.857,162.697,165.883,171.602,176.442,179.627,182.904,188.623,191.9,197.003,202.106,205.383,210.486,215.986,219.127,226.683,229.96,233.237,238.737,241.878,247.597,252.7,255.977,261.696,267.196,270.338,273.615,279.333,285.052,290.771,295.874,301.593,306.091,311.81,314.56,317.701,320.978,324.058,327.178,330.455,334.745,337.875,341.152,349.313,355.032,360.751,365.249,368.526,374.245,379.964" svgx:width="0.39,0.5,0.39,0.5,0.44,0.44,0.28,0.39,0.55,0.5,0.55,0.5,0.5,0.28,0.28,0.44,0.5,0.28,0.55,0.72,0.5,0.44,0.55,0.5,0.44,0.55,0.28,0.5,0.28,0.44,0.44,0.28,0.44,0.5,0.55,0.67,0.28,0.28,0.5,0.55,0.5,0.44,0.28,0.5,0.5,0.55,0.28,0.5,0.5,0.5,0.44,0.5,0.39,0.5,0.25,0.55,0.28,0.28,0.55,0.28,0.39,0.55,0.28,0.72,0.5,0.5,0.39,0.28,0.5,0.5,0.28" style="fill:rgb(23,22,21);font-family:Times-Italic;font-size:11.0px;stroke:none;">suspects a patient may be infected with avian inﬂuenza, it is important</text>
   <text y="133.275" x="58.986,62.263,67.763,74.087,79.19,84.908,90.627,93.904,99.623,104.726,107.806,114.108,117.385,123.104,127.944,134.312,137.589,143.307,148.41,154.129,157.209,163.511,169.23,173.51999999999998,179.833,184.331,187.608,193.327,196.604,201.44400000000002,207.811,213.53,218.633,224.352,227.629,230.906,236.406,242.73,248.449,253.552,259.271,264.989,269.487,272.764,280.925,286.028,291.747,294.827,301.129,304.406,310.125,314.415,320.728,326.446,330.944,335.442,338.719,343.217,346.494,352.213,357.932,363.035,367.875,374.242,377.519" svgx:width="0.28,0.5,0.55,0.44,0.5,0.5,0.28,0.5,0.44,0.28,0.55,0.28,0.5,0.44,0.55,0.28,0.5,0.44,0.5,0.28,0.55,0.5,0.39,0.55,0.39,0.28,0.5,0.28,0.44,0.55,0.5,0.44,0.5,0.28,0.28,0.5,0.55,0.5,0.44,0.5,0.5,0.39,0.28,0.72,0.44,0.5,0.28,0.55,0.28,0.5,0.39,0.55,0.5,0.39,0.39,0.28,0.39,0.28,0.5,0.5,0.44,0.44,0.55,0.28,0.5" style="fill:rgb(23,22,21);font-family:Times-Italic;font-size:11.0px;stroke:none;">to contact the local or state health department for assistance in</text>
   <text y="146.274" x="58.986,64.705,69.808,74.911,80.013,84.511,89.009,92.286,98.005,103.505,111.676,114.953,120.672,125.512,133.726,140.061,147.001,154.371,162.509,167.612,173.331,179.05,184.769,190.488,193.764,197.041,200.318,203.595,206.872,211.975" svgx:width="0.5,0.44,0.44,0.44,0.39,0.39,0.28,0.5,0.5,0.55,0.28,0.5,0.44,0.55,0.56,0.61,0.67,0.55,0.44,0.5,0.5,0.5,0.5,0.28,0.28,0.28,0.28,0.28,0.44,0.39" style="fill:rgb(23,22,21);font-family:Times-Italic;font-size:11.0px;stroke:none;">accessing the LRN capabilities</text>
   <text y="146.274" x="216.468" svgx:width="0.25" style="fill:rgb(23,22,21);font-family:Times-Roman;font-size:11.0px;stroke:none;">.</text>
   <text y="141.526" x="219.438,223.858" svgx:width="0.5,0.5" style="fill:rgb(0,0,100);font-family:Times-Roman;font-size:7.0px;stroke:none;">31</text>
   <text y="146.276" x="236.23,240.113,243.193,251.343,256.447,261.551,267.271,272.991,278.711,281.791,289.941,295.661,300.501,308.717,314.437,320.157,325.261,329.144,334.248,343.026,348.746,354.466,359.57,364.069,367.347,372.451,377.555" svgx:width="0.33,0.28,0.55,0.44,0.44,0.5,0.5,0.5,0.28,0.55,0.5,0.44,0.55,0.5,0.5,0.44,0.33,0.44,0.78,0.5,0.5,0.44,0.39,0.28,0.44,0.44,0.5" style="fill:rgb(0,0,0);font-family:Times-Roman;font-size:11.0px;stroke:none;">It cannot be overemphasized</text>
   <text y="159.275" x="58.986,62.264,67.984,73.088,76.16799999999999,79.692,84.796,88.074,91.352,97.072,100.35,105.454,110.558,113.638,117.163,123.499,129.219,134.939,138.217,143.937,149.657,153.947,157.482,162.586,168.306,173.806,177.353,183.073,186.351,190.85,194.128,199.848,203.731,209.231,212.777,218.497,222.127,225.706,230.81,236.53,242.25,247.97,252.469,258.189,262.072,266.912,270.503,279.281,284.385,289.885,293.431,299.151,303.991,307.581,310.859,316.579,321.419,325.01,333.788,339.508,344.007,347.087,350.611,356.331,361.435,364.713,370.433,374.316,380.036" svgx:width="0.28,0.5,0.44,0.28,0.55,0.44,0.28,0.28,0.5,0.28,0.44,0.44,0.28,0.55,0.56,0.5,0.5,0.28,0.5,0.5,0.39,0.55,0.44,0.5,0.5,0.55,0.5,0.28,0.39,0.28,0.5,0.33,0.5,0.55,0.5,0.33,0.55,0.44,0.5,0.5,0.5,0.39,0.5,0.33,0.44,0.55,0.78,0.44,0.5,0.55,0.5,0.44,0.55,0.28,0.5,0.44,0.55,0.78,0.5,0.39,0.28,0.55,0.5,0.44,0.28,0.5,0.33,0.5,0.28" style="fill:rgb(0,0,0);font-family:Times-Roman;font-size:11.0px;stroke:none;">that clinical ﬁndings and history of exposure may be the most helpful</text>
   <text y="172.275" x="58.986,62.264,67.76400000000001,76.191,79.469,85.189,90.029,98.5,103.604,108.708,112.591,115.869,121.589,124.339,132.766,137.87,141.148,146.868,151.972,155.25,158.33,166.735,172.455,176.338,181.442,185.941,191.661,200.439,206.159,209.437,212.715,218.435,223.275,231.746,235.024,240.744,245.848,251.568,254.846,258.124,264.46,269.564,274.668,277.946,281.224,286.944,292.444,300.872,306.592,310.222,318.682,324.402,329.506,332.784,336.062,341.166,346.886,350.164,354.454,362.87,371.032,374.31,377.588" svgx:width="0.28,0.5,0.55,0.28,0.5,0.44,0.55,0.44,0.44,0.33,0.28,0.5,0.25,0.55,0.44,0.28,0.5,0.44,0.28,0.28,0.55,0.5,0.33,0.44,0.39,0.5,0.78,0.5,0.28,0.28,0.5,0.44,0.55,0.28,0.5,0.44,0.5,0.28,0.28,0.56,0.44,0.44,0.28,0.28,0.5,0.5,0.55,0.5,0.33,0.55,0.5,0.44,0.28,0.28,0.44,0.5,0.28,0.39,0.55,0.72,0.28,0.28,0.5" style="fill:rgb(0,0,0);font-family:Times-Roman;font-size:11.0px;stroke:none;">in the early, albeit presumptive identiﬁcation of patients with</text>
   <text y="185.275" x="58.986,67.148,72.868,81.03,86.75" svgx:width="0.72,0.5,0.72,0.5,0.25" style="fill:rgb(0,0,0);font-family:Times-Roman;font-size:11.0px;stroke:none;">H5N1.</text>
   <text y="180.526" x="89.714,94.134,95.884,96.429,100.849,102.599,103.144,107.564,111.984,113.734,114.279,118.699,123.119,126.119,130.539,134.959,136.709,137.254,141.674,146.094,149.095,153.515,157.935,159.685,160.23,164.65" svgx:width="0.5,0.25,0.55,0.5,0.25,0.55,0.5,0.5,0.25,0.55,0.5,0.5,0.33,0.5,0.5,0.25,0.55,0.5,0.5,0.33,0.5,0.5,0.25,0.55,0.5,0.5" style="fill:rgb(0,0,100);font-family:Times-Roman;font-size:7.0px;stroke:none;">1, 2, 10, 19-21, 26-29, 31</text>
   <text y="206.776" x="58.986,68.268,75.015,84.999,92.5,95.62,102.926,105.877,113.183,120.723,127.223,131.523,139.024,145.888,153.428,157.716,165.1,168.051,175.357,182.663,190.203,194.49,203.811,210.675,217.422,227.406,230.812,235.999,239.119,243.474,249.974,254.274,260.384,267.131,272.318,275.438,278.844,285.708" svgx:width="0.71,0.52,0.77,0.58,0.24,0.56,0.23,0.56,0.58,0.5,0.55,0.58,0.53,0.58,0.55,0.57,0.23,0.56,0.56,0.58,0.55,0.72,0.53,0.52,0.77,0.26,0.4,0.24,0.34,0.5,0.55,0.47,0.52,0.4,0.24,0.26,0.53,0.58" style="fill:rgb(0,0,0);font-family:Futura-BookOblique;font-size:13.0px;stroke:none;">Hematology and Blood Chemistry Testing</text>
   <text y="223.776" x="66.986,70.649,76.149,80.288,85.172,90.672,99.23,104.73,109.614,113.277,116.335,120.614,126.114,131.614,135.753,138.811,144.311,148.451,151.509,157.009,161.849,166.032,171.532,177.032,182.532,188.032,192.171,200.113,205.613,211.113,216.613,220.753,228.695,234.195,239.695,245.195,249.334,254.218,259.718,262.776,267.66,273.16,277.299,280.357,285.857,291.973,297.473,302.357,307.857,312.741,317.58099999999996,321.765,326.649,331.533,335.812,340.696,344.975,347.725,351.864,356.143,361.027,366.527,371.411,375.074,379.958" svgx:width="0.33,0.5,0.55,0.44,0.5,0.78,0.5,0.44,0.33,0.28,0.39,0.5,0.5,0.55,0.28,0.5,0.55,0.28,0.5,0.44,0.55,0.5,0.5,0.5,0.5,0.55,0.72,0.5,0.5,0.5,0.55,0.72,0.5,0.5,0.5,0.55,0.44,0.5,0.28,0.44,0.5,0.55,0.28,0.5,0.56,0.5,0.44,0.5,0.44,0.44,0.55,0.44,0.44,0.39,0.44,0.39,0.25,0.55,0.39,0.44,0.5,0.44,0.33,0.44,0.28" style="fill:rgb(0,0,0);font-family:Times-Roman;font-size:11.0px;stroke:none;">In comparison to the 1997 Hong Kong avian inﬂuenza cases, several</text>
   <text y="236.775" x="58.986,64.486,69.37,72.428,75.486,80.37,85.87,88.928,93.218,96.954,100.012,105.512,109.26,112.318,117.818,122.658,126.45,131.95,136.834,141.113,144.193,147.918,153.418,158.302,163.186,166.816,170.597,176.097,180.981,186.481,191.321,195.113,200.613,205.497,214.055,219.555,225.055,229.334,232.392,236.055,240.939,243.997,248.881,254.381,258.128,261.186,266.686,274.628,279.512,283.142,286.923,289.981,295.481,298.539,303.423,306.503,310.229,315.729,320.613,324.276,327.334,332.834,338.334,343.218,346.881,351.765,354.84499999999997,358.57,366.512,372.012,375.07,378.128" svgx:width="0.5,0.44,0.28,0.28,0.44,0.5,0.28,0.39,0.55,0.28,0.5,0.55,0.28,0.5,0.44,0.55,0.5,0.44,0.39,0.28,0.55,0.5,0.44,0.44,0.33,0.55,0.5,0.44,0.5,0.44,0.55,0.5,0.44,0.78,0.5,0.5,0.39,0.28,0.33,0.44,0.28,0.44,0.5,0.55,0.28,0.5,0.72,0.44,0.33,0.55,0.28,0.5,0.28,0.44,0.28,0.55,0.5,0.44,0.33,0.28,0.5,0.5,0.44,0.33,0.44,0.28,0.55,0.72,0.5,0.28,0.28,0.44" style="fill:rgb(0,0,0);font-family:Times-Roman;font-size:11.0px;stroke:none;">patients in the past year have demonstrated lower total peripheral white</text>
   <text y="249.775" x="58.986,64.486,67.544,73.044,78.544,84.044,87.881,92.765,97.649,100.707,103.78699999999999,107.603,112.487,117.987,123.487,128.987,132.045,136.324,139.074,142.912,145.97,151.47,156.354,159.43400000000003,163.25,168.134,171.797,176.637,180.519,189.077,194.577,198.24,203.08,206.962,212.462,216.125,219.183,224.067,229.567,233.405,236.463,241.963,250.521,256.021,261.521,267.021,272.521,277.405,282.905,285.963,290.803,294.685,299.569,305.069,310.569,314.407,319.291,323.57,327.849,333.349,338.233,341.291,346.175,349.233,354.117,359.617,363.455,371.397,374.455,377.513" svgx:width="0.5,0.28,0.5,0.5,0.5,0.55,0.44,0.44,0.28,0.28,0.55,0.44,0.5,0.5,0.5,0.28,0.39,0.25,0.55,0.28,0.5,0.44,0.28,0.55,0.44,0.33,0.44,0.55,0.78,0.5,0.33,0.44,0.55,0.5,0.33,0.28,0.44,0.5,0.55,0.28,0.5,0.78,0.5,0.5,0.5,0.5,0.44,0.5,0.28,0.44,0.55,0.44,0.5,0.5,0.55,0.44,0.39,0.39,0.5,0.44,0.28,0.44,0.28,0.44,0.5,0.55,0.72,0.28,0.28,0.5" style="fill:rgb(0,0,0);font-family:Times-Roman;font-size:11.0px;stroke:none;">blood cell counts, that are more often lymphopenic and associated with</text>
   <text y="262.775" x="58.986,62.649,67.533,70.591,75.475,78.533,81.591,84.649,90.149" svgx:width="0.33,0.44,0.28,0.44,0.28,0.28,0.28,0.5,0.25" style="fill:rgb(0,0,0);font-family:Times-Roman;font-size:11.0px;stroke:none;">fatality.</text>
   <text y="258.026" x="92.899,97.149,99.274,103.524,105.649,109.899,114.149,116.979,121.229,125.479,127.604,131.854,136.104,138.229,142.479" svgx:width="0.5,0.25,0.5,0.25,0.5,0.5,0.33,0.5,0.5,0.25,0.5,0.5,0.25,0.5,0.5" style="fill:rgb(0,0,100);font-family:Times-Roman;font-size:7.0px;stroke:none;">2,4,20-22,24,74</text>
   <text y="262.776" x="149.844,156.565,161.449,166.949,172.449,176.112,180.996,184.054,189.554,193.217,198.717,201.834,207.95,213.45,218.95,222.008,227.508,233.008,237.298,240.403,245.903,249.533,252.682,258.182,263.066,266.124,269.182,274.066,279.566,282.624,286.91400000000004,290.02,297.962,301.02,304.078,309.578,312.694,316.973,321.857,327.357,332.241,335.904,340.74399999999997,343.904,346.962,352.462,356.125,361.009,365.893,368.951,372.009,377.509" svgx:width="0.61,0.44,0.5,0.5,0.33,0.44,0.28,0.5,0.33,0.5,0.55,0.56,0.5,0.5,0.28,0.5,0.5,0.39,0.55,0.5,0.33,0.55,0.5,0.44,0.28,0.28,0.44,0.5,0.28,0.39,0.55,0.72,0.28,0.28,0.5,0.55,0.39,0.44,0.5,0.44,0.33,0.44,0.55,0.28,0.5,0.33,0.44,0.44,0.28,0.28,0.5,0.5" style="fill:rgb(0,0,0);font-family:Times-Roman;font-size:11.0px;stroke:none;">Laboratory ﬁndings of patients with severe infection</text>
   <text y="275.775" x="58.986,62.649,66.312,71.812,80.392,84.739,87.797,93.297,99.413,104.913,109.797,115.297,120.181,125.021,129.434,137.376,142.876,150.818,156.318,160.687,166.187,169.85,174.734,179.013,183.897,189.397,192.455,195.513,201.013,206.513,210.882,214.545,220.045,223.67499999999998,228.078,236.636,241.52,247.02,250.078,254.962,259.846,262.926,267.273,272.157,277.041,280.704,285.544,289.957,297.899,300.957,304.015,309.515,313.884,319.384,324.884,329.768,335.268,343.826,349.326,354.826,357.884,362.724,367.137,372.637,377.521" svgx:width="0.33,0.33,0.5,0.78,0.55,0.28,0.5,0.56,0.5,0.44,0.5,0.44,0.44,0.55,0.72,0.5,0.72,0.5,0.55,0.5,0.33,0.44,0.39,0.44,0.5,0.28,0.28,0.5,0.5,0.55,0.33,0.5,0.33,0.55,0.78,0.44,0.5,0.28,0.44,0.44,0.28,0.55,0.44,0.44,0.33,0.44,0.55,0.72,0.28,0.28,0.5,0.55,0.5,0.5,0.44,0.5,0.78,0.5,0.5,0.28,0.44,0.55,0.5,0.44,0.5" style="fill:rgb(0,0,0);font-family:Times-Roman;font-size:11.0px;stroke:none;">from inﬂuenza H5N1 presenting for medical care with pneumonia had</text>
   <text y="288.775" x="58.986,62.044,70.602,76.102,80.986,84.044,87.707,92.591,98.091,104.15,107.208,110.266,115.766,120.65,124.28,130.373,134.036,139.536,145.036,149.92,152.978,156.036,161.536,167.036,173.096,176.759,181.643,187.143,190.806,195.69,199.969,204.853,210.353,213.411,218.295,223.795,229.855,235.355,240.855,246.915,251.799,257.299,262.799,268.299,271.962,280.52,285.404,288.484,294.522,297.58,300.638,306.138,311.022,314.652,320.745,324.408,329.908,335.408,340.292,343.35,346.408,351.908,357.408,363.468,366.526,371.41,375.689,378.747" svgx:width="0.28,0.78,0.5,0.44,0.28,0.33,0.44,0.5,0.55,0.28,0.28,0.5,0.44,0.33,0.55,0.33,0.5,0.5,0.44,0.28,0.28,0.5,0.5,0.55,0.33,0.44,0.5,0.33,0.44,0.39,0.44,0.5,0.28,0.44,0.5,0.55,0.5,0.5,0.55,0.44,0.5,0.5,0.5,0.33,0.78,0.44,0.28,0.55,0.28,0.28,0.5,0.44,0.33,0.55,0.33,0.5,0.5,0.44,0.28,0.28,0.5,0.5,0.55,0.28,0.44,0.39,0.28,0.39" style="fill:rgb(0,0,0);font-family:Times-Roman;font-size:11.0px;stroke:none;">impaired liver function represented by abnormal liver function tests</text>
   <text y="301.775" x="58.986,63.87,68.149,73.649,78.533,82.196,85.254,90.138,93.196,98.036,102.955,107.839,116.397,119.455,124.955,130.455,133.513,137.176,142.06,147.56,151.839,155.502,160.386,164.049,168.933,173.212,178.096,183.596,188.48,191.538,196.422,201.922,204.98,210.48,215.32,220.239,225.123,233.681,236.739,242.239,247.739,250.797,254.46,259.344,264.844,269.123,272.786,277.67,281.333,286.217,290.496,295.38,298.13,303.005,307.889,310.947,316.447,321.331,324.389,327.447,332.947,337.787,342.706,348.206,353.706,359.206,363.485,368.985,374.485,379.369" svgx:width="0.44,0.39,0.5,0.44,0.33,0.28,0.44,0.28,0.44,0.55,0.44,0.78,0.28,0.5,0.5,0.28,0.33,0.44,0.5,0.39,0.33,0.44,0.33,0.44,0.39,0.44,0.5,0.44,0.28,0.44,0.5,0.28,0.5,0.44,0.55,0.44,0.78,0.28,0.5,0.5,0.28,0.33,0.44,0.5,0.39,0.33,0.44,0.33,0.44,0.39,0.44,0.25,0.55,0.44,0.28,0.5,0.44,0.28,0.28,0.5,0.44,0.55,0.5,0.5,0.5,0.39,0.5,0.5,0.44,0.33" style="fill:rgb(0,0,0);font-family:Times-Roman;font-size:11.0px;stroke:none;">aspartate aminotransferase–alanine aminotransferase, alkaline phospha-</text>
   <text y="314.775" x="58.986,62.044,66.928,71.207,76.091,78.841,82.84,85.898,90.782,95.666,98.724,103.608,107.887,112.727,116.771,122.271,127.155,132.655,138.155,143.655,147.318,152.818,158.318,163.202,168.702,173.586,177.865,182.749,185.499,189.498,194.382,197.44,201.719,207.219,211.219,216.719,220.382,225.882,228.94,234.44,239.94,245.44,250.324,255.824,259.824,264.708,267.766,273.266,276.324,279.382,282.44,287.94,293.44,297.439,300.497,303.555,312.113,316.997,321.276,324.026,328.026,333.526,337.189,342.689,345.747,351.247,354.91,360.41,368.968,374.468,377.526" svgx:width="0.28,0.44,0.39,0.44,0.25,0.55,0.28,0.44,0.44,0.28,0.44,0.39,0.44,0.55,0.5,0.44,0.5,0.5,0.5,0.33,0.5,0.5,0.44,0.5,0.44,0.39,0.44,0.25,0.55,0.44,0.28,0.39,0.5,0.55,0.5,0.33,0.5,0.28,0.5,0.5,0.5,0.44,0.5,0.55,0.44,0.28,0.5,0.28,0.28,0.28,0.5,0.5,0.55,0.28,0.28,0.78,0.44,0.39,0.25,0.55,0.5,0.33,0.5,0.28,0.5,0.33,0.5,0.78,0.5,0.28,0.5" style="fill:rgb(0,0,0);font-family:Times-Roman;font-size:11.0px;stroke:none;">tase, lactase dehydrogenase, also prolonged clotting times, prothrombin</text>
   <text y="327.775" x="58.986,63.87,69.37,74.87,77.571,83.071,87.955,91.618,94.676,97.734,102.618,105.698,108.378,111.436,116.936,120.599,126.099,134.657,140.157,145.657,151.157,154.215,159.099,163.378,166.436,169.494,174.994,177.695,180.753,183.811,192.369,197.253,201.532,204.282,206.984,211.868,214.926,217.984,222.868,226.531,231.415,234.473,237.531,243.031,248.531,252.821,255.512,258.57,264.07,266.771,274.713,280.213,283.271,286.329,291.169,293.915,299.415,302.473,307.973,313.473,318.973,321.674,326.558,331.442,334.5,337.558,341.848,344.539,348.202,353.086,357.365,362.865,365.923,368.981,372.039,377.539" svgx:width="0.44,0.5,0.5,0.55,0.5,0.44,0.33,0.28,0.28,0.44,0.28,0.55,0.28,0.5,0.33,0.5,0.78,0.5,0.5,0.5,0.28,0.44,0.39,0.28,0.28,0.5,0.55,0.28,0.28,0.78,0.44,0.39,0.25,0.55,0.44,0.28,0.28,0.44,0.33,0.44,0.28,0.28,0.5,0.5,0.39,0.55,0.28,0.5,0.55,0.72,0.5,0.28,0.28,0.44,0.55,0.5,0.28,0.5,0.5,0.5,0.55,0.44,0.44,0.28,0.28,0.39,0.55,0.33,0.44,0.39,0.5,0.28,0.28,0.28,0.5,0.5" style="fill:rgb(0,0,0);font-family:Times-Roman;font-size:11.0px;stroke:none;">and partial thromboplastin times, alterations in white blood cells resulting</text>
   <text y="340.774" x="58.986,62.044,67.544,70.965,74.022,78.907,84.407,89.907,95.407,100.907,105.791,111.291,114.349,119.233,121.983,125.404,128.462,133.962,142.52,148.02,153.52,159.02,164.52,169.404,174.904,177.962,182.846,185.596,189.017,193.901,199.401,204.901,208.322,211.985,216.869,222.369,227.253,230.333,233.732,236.79,245.348,250.848,255.732,258.79,262.453,271.011,275.895,281.395,284.453,287.203,290.624,295.508,301.008,306.508,312.008,315.671,324.229,329.113,332.193,335.592,341.092,344.15,349.65,355.15,360.65,364.071,369.571,373.234,378.118" svgx:width="0.28,0.5,0.55,0.28,0.44,0.5,0.5,0.5,0.5,0.44,0.5,0.28,0.44,0.25,0.55,0.28,0.5,0.78,0.5,0.5,0.5,0.5,0.44,0.5,0.28,0.44,0.25,0.55,0.44,0.5,0.5,0.55,0.33,0.44,0.5,0.44,0.28,0.55,0.28,0.78,0.5,0.44,0.28,0.33,0.78,0.44,0.5,0.28,0.25,0.55,0.44,0.5,0.5,0.5,0.33,0.78,0.44,0.28,0.55,0.5,0.28,0.5,0.5,0.5,0.55,0.5,0.33,0.44,0.44" style="fill:rgb(0,0,0);font-family:Times-Roman;font-size:11.0px;stroke:none;">in leukopenia, lymphopenia, and renal impairment, abnormal blood urea</text>
   <text y="353.774" x="58.986,64.486,67.544,70.602,74.265,79.765,85.265,90.149,95.649,98.399,102.06,106.944,112.444,117.944,121.606,126.49,130.153,135.037,139.921,142.979,146.037,151.537,154.595,160.095,164.935,168.641,171.699,176.583,182.083,186.967,190.025,194.304" svgx:width="0.5,0.28,0.28,0.33,0.5,0.5,0.44,0.5,0.25,0.55,0.44,0.5,0.5,0.55,0.44,0.33,0.44,0.44,0.28,0.28,0.5,0.28,0.5,0.44,0.55,0.28,0.44,0.5,0.44,0.28,0.39,0.25" style="fill:rgb(0,0,0);font-family:Times-Roman;font-size:11.0px;stroke:none;">nitrogen, and creatinine levels.</text>
   <text y="349.026" x="197.055,201.305,203.43,207.68,209.805,214.055,218.305,220.43,224.68,228.93,231.761,236.011,240.261,242.386,246.636,250.886,253.716,257.966" svgx:width="0.5,0.25,0.5,0.25,0.5,0.5,0.25,0.5,0.5,0.33,0.5,0.5,0.25,0.5,0.5,0.33,0.5,0.5" style="fill:rgb(0,0,100);font-family:Times-Roman;font-size:7.0px;stroke:none;">2,4,10,20-22,25-30</text>
   <text y="366.776" x="66.986,70.649,76.149,79.089,84.589,90.089,94.929,97.913,102.797,108.297,113.797,119.297,122.96,126.03999999999999,128.959,134.459,138.089,141.062,146.562,151.446,154.504,157.562,162.446,167.946,171.004,175.283,178.033,180.973,186.473,189.531,194.415,198.078,201.741,207.241,212.125,216.965,219.95,227.892,232.776,237.066,239.995,245.495,249.158,254.042,258.321,263.205,268.705,271.78499999999997,274.703,277.761,283.261,286.202,291.702,297.202,306.332,309.305,314.805,318.435,321.408,326.908,331.792,334.85,337.908,342.792,348.292,351.35,355.64000000000004,358.569,363.453,366.512,372.012,377.512" svgx:width="0.33,0.5,0.55,0.5,0.5,0.44,0.55,0.44,0.5,0.5,0.5,0.33,0.28,0.55,0.5,0.33,0.55,0.5,0.44,0.28,0.28,0.44,0.5,0.28,0.39,0.25,0.55,0.5,0.28,0.44,0.33,0.33,0.5,0.44,0.44,0.55,0.72,0.44,0.39,0.55,0.5,0.33,0.44,0.39,0.44,0.5,0.28,0.55,0.28,0.5,0.55,0.5,0.5,0.83,0.55,0.5,0.33,0.55,0.5,0.44,0.28,0.28,0.44,0.5,0.28,0.39,0.55,0.44,0.28,0.5,0.5,0.5" style="fill:rgb(0,0,0);font-family:Times-Roman;font-size:11.0px;stroke:none;">In one cohort of patients, diarrhea was present in 70% of patients along</text>
   <text y="379.775" x="58.986,66.928,69.986,73.044,78.544,81.904,84.962,90.462,98.404,103.288,106.91799999999999,110.312,113.975,118.859,123.138,128.638,131.696,135.359,140.243,143.301,148.801,152.464,157.964,161.324,165.603,171.103,179.661,185.161,188.219,193.719,202.277,206.556" svgx:width="0.72,0.28,0.28,0.5,0.55,0.28,0.5,0.72,0.44,0.33,0.55,0.33,0.44,0.39,0.5,0.28,0.33,0.44,0.28,0.5,0.33,0.5,0.55,0.39,0.5,0.78,0.5,0.28,0.5,0.78,0.39,0.25" style="fill:rgb(0,0,0);font-family:Times-Roman;font-size:11.0px;stroke:none;">with lower respiratory symptoms.</text>
   <text y="375.026" x="209.308,213.558,217.808,219.933,224.183" svgx:width="0.5,0.5,0.25,0.5,0.5" style="fill:rgb(0,0,100);font-family:Times-Roman;font-size:7.0px;stroke:none;">10,25</text>
   <text y="379.776" x="231.793,239.735,247.677,250.735,256.235,261.735,265.096,268.154,273.654,277.014,280.072,285.572,290.412,293.817,299.317,304.817,307.875,312.759,318.259,321.317,324.375,329.259,332.339,335.677,339.956,344.84,350.34,355.224,358.887,361.945,365.003,370.503,373.864,379.364" svgx:width="0.72,0.72,0.28,0.5,0.5,0.55,0.28,0.5,0.55,0.28,0.5,0.44,0.55,0.5,0.5,0.28,0.44,0.5,0.28,0.28,0.44,0.28,0.55,0.39,0.44,0.5,0.44,0.33,0.28,0.28,0.5,0.55,0.5,0.33" style="fill:rgb(0,0,0);font-family:Times-Roman;font-size:11.0px;stroke:none;">Owing to the potential severity or</text>
   <text y="392.775" x="58.985,64.485,69.985,73.648,78.532,81.59,84.648,90.148,95.648,99.455,104.955,108.585,112.426,117.926,122.81,127.089,130.147,133.81,139.31,142.368,147.868,150.926,155.81,160.089,163.147,166.205,171.705,176.589,179.669,183.454,187.117,195.059,198.722,202.352,206.192,210.471,215.971,224.529,230.029,233.087,238.587,247.145,251.424,254.174,257.981,265.923,271.423,274.481,279.365,284.865,288.672,294.172,299.056,304.556,309.39599999999996,313.247,318.747,323.631,328.515,334.015,337.822,342.706,346.985,351.264,356.764,361.648,364.706,369.59,372.648,377.532" svgx:width="0.5,0.5,0.33,0.44,0.28,0.28,0.5,0.5,0.55,0.5,0.33,0.55,0.5,0.44,0.39,0.28,0.33,0.5,0.28,0.5,0.28,0.44,0.39,0.28,0.28,0.5,0.44,0.28,0.55,0.33,0.72,0.33,0.33,0.55,0.39,0.5,0.78,0.5,0.28,0.5,0.78,0.39,0.25,0.55,0.72,0.5,0.28,0.44,0.5,0.55,0.5,0.44,0.5,0.44,0.55,0.5,0.44,0.44,0.5,0.55,0.44,0.39,0.39,0.5,0.44,0.28,0.44,0.28,0.44,0.5" style="fill:rgb(0,0,0);font-family:Times-Roman;font-size:11.0px;stroke:none;">duration of gastrointestinal (GI) symptoms, which have been associated</text>
   <text y="405.775" x="58.985,66.927,69.985,73.043,78.543,85.375,90.215,97.092,101.371,104.429,109.929,115.429,118.487,124.603,129.487,134.371,139.871,142.95100000000002,149.761,155.261,160.145,163.808,168.692,173.576,179.076,182.134,187.018,192.518,197.358,204.234,209.734,213.364,220.229,225.113,230.613,233.671,238.555,244.055,250.887,257.003,262.503,269.335,274.835,279.719,282.777,285.835,290.719,296.219,299.277,303.556,306.306,313.138,321.08,326.58,329.638,334.522,340.022,346.854,355.412,360.296,365.796,372.628,378.128" svgx:width="0.72,0.28,0.28,0.5,0.55,0.44,0.55,0.39,0.28,0.5,0.5,0.28,0.56,0.44,0.44,0.5,0.28,0.55,0.5,0.44,0.33,0.44,0.44,0.5,0.28,0.44,0.5,0.44,0.55,0.5,0.33,0.55,0.44,0.5,0.28,0.44,0.5,0.55,0.56,0.5,0.55,0.5,0.44,0.28,0.28,0.44,0.5,0.28,0.39,0.25,0.55,0.72,0.5,0.28,0.44,0.5,0.55,0.78,0.44,0.5,0.55,0.5,0.44" style="fill:rgb(0,0,0);font-family:Times-Roman;font-size:11.0px;stroke:none;">with a signiﬁcant percentage of avian ﬂu patients, which may be</text>
   <text y="418.775" x="58.985,64.485,68.148,73.648,76.706,82.206,87.706,93.206,98.09,103.59,115.908,121.408,124.466,129.35,133.013,136.676,142.176,147.06,151.9,154.507,159.391,164.891,170.391,172.954,178.454,183.954,192.512,195.57,198.628,201.686,207.186,212.686,223.686,226.744,232.244,237.084,239.691,244.575,248.854,251.912,257.412,260.47,265.31,267.917,272.801,275.859,278.917,284.417,287.475,292.359,295.417,300.301,305.801,308.364,316.306,319.364,322.422,325.502,328.043,332.927,338.427,343.927,347.59,352.474,356.753,361.032,364.09,369.59,374.474,377.532" svgx:width="0.5,0.33,0.5,0.28,0.5,0.5,0.5,0.44,0.5,1.0,0.5,0.28,0.44,0.33,0.33,0.5,0.44,0.44,0.55,0.44,0.5,0.5,0.55,0.5,0.5,0.78,0.28,0.28,0.28,0.5,0.5,1.0,0.28,0.5,0.44,0.55,0.44,0.39,0.28,0.5,0.28,0.44,0.55,0.44,0.28,0.28,0.5,0.28,0.44,0.28,0.44,0.5,0.55,0.72,0.28,0.28,0.28,0.55,0.44,0.5,0.5,0.33,0.44,0.39,0.39,0.28,0.5,0.44,0.28,0.5" style="fill:rgb(0,0,0);font-family:Times-Roman;font-size:11.0px;stroke:none;">prolonged—diarrhea and vomiting—the astute clinician will aggressively</text>
   <text y="431.775" x="58.985,67.543,73.043,78.543,81.601,84.659,90.159,93.789,99.141,104.025,109.525,115.025,120.343,128.901,133.785,139.285,144.169,149.669,154.50900000000001,159.872,165.988,171.488,174.546,180.046,185.364,190.248,195.748,201.248,206.567,211.451,214.509,219.393,224.277,227.335,230.998,236.498,239.556,245.056,248.114,252.954,258.316,263.816,268.7,272.363,277.247,282.747,288.247,293.131,301.689,306.573,312.073,315.131,319.421,324.729,327.787,333.287,338.171,341.251,346.547,355.105,359.99,365.49,370.808,374.471,379.355" svgx:width="0.78,0.5,0.5,0.28,0.28,0.5,0.33,0.55,0.44,0.5,0.5,0.55,0.78,0.44,0.5,0.44,0.5,0.44,0.55,0.56,0.5,0.28,0.5,0.55,0.44,0.5,0.5,0.55,0.44,0.28,0.44,0.44,0.28,0.33,0.5,0.28,0.5,0.28,0.44,0.55,0.5,0.44,0.33,0.44,0.5,0.5,0.44,0.78,0.44,0.5,0.28,0.39,0.55,0.28,0.5,0.44,0.28,0.55,0.78,0.44,0.5,0.55,0.33,0.44,0.33" style="fill:rgb(0,0,0);font-family:Times-Roman;font-size:11.0px;stroke:none;">monitor and manage ﬂuid and electrolyte derangements that may re-</text>
   <text y="444.775" x="58.985,63.264,68.764,71.822,74.88" svgx:width="0.39,0.5,0.28,0.28,0.25" style="fill:rgb(0,0,0);font-family:Times-Roman;font-size:11.0px;stroke:none;">sult.</text>
   <text y="440.026" x="77.631,81.881,84.006,88.256,92.506,94.631,98.881,103.131,105.961,110.211" svgx:width="0.5,0.25,0.5,0.5,0.25,0.5,0.5,0.33,0.5,0.5" style="fill:rgb(0,0,100);font-family:Times-Roman;font-size:7.0px;stroke:none;">2,10,25-30</text>
   <text y="467.276" x="58.986,65.188,70.228,78.194,85.656,91.326,102.386,105.648,111.318,116.988,120.25,128.16,135.57999999999998,142.613,150.523,154.583,161.617,165.579,173.041,180.461,187.951,195.203,202.665,209.455,217.435,224.413,233.429,236.691,241.731,249.221" svgx:width="0.44,0.36,0.57,0.53,0.41,0.79,0.23,0.41,0.41,0.23,0.56,0.53,0.55,0.56,0.29,0.55,0.28,0.53,0.53,0.54,0.52,0.53,0.49,0.57,0.55,0.64,0.23,0.36,0.54,0.41" style="fill:rgb(0,0,0);font-family:FuturaEF-DemiBold;font-size:14.0px;stroke:none;">Transmission of Inﬂuenza Virus</text>
   <text y="484.276" x="66.986,73.707,79.207,82.994,88.494,93.378,96.436,101.27600000000001,105.107,108.165,113.665,118.50500000000001,122.337,130.895,136.395,140.674,143.75400000000002,147.519,150.577,159.135,164.635,170.135,173.798,176.856,181.74,187.24,190.32000000000002,194.085,197.748,203.248,208.748,211.806,216.64600000000002,220.478,225.978,229.608,233.428,238.312,243.196,248.696,254.196,257.254,261.533,264.591,267.649,270.707,276.207,281.707,285.494,289.157,294.657,298.287,302.108,310.049,315.549,323.491,328.991,332.779,335.837,341.337,345.0,349.884,354.768,357.826,360.884,366.384,371.884,375.671,378.729" svgx:width="0.61,0.5,0.55,0.5,0.44,0.28,0.44,0.55,0.28,0.5,0.44,0.55,0.78,0.5,0.39,0.28,0.55,0.28,0.78,0.5,0.5,0.33,0.28,0.44,0.5,0.28,0.55,0.33,0.5,0.5,0.28,0.44,0.55,0.5,0.33,0.55,0.44,0.44,0.5,0.5,0.28,0.39,0.28,0.28,0.28,0.5,0.5,0.55,0.33,0.5,0.33,0.55,0.72,0.5,0.72,0.5,0.55,0.28,0.5,0.33,0.44,0.44,0.28,0.28,0.5,0.5,0.55,0.28,0.39" style="fill:rgb(0,0,0);font-family:Times-Roman;font-size:11.0px;stroke:none;">To date the most important route of acquisition for H5N1 infection is</text>
   <text y="497.275" x="58.986,62.044,67.544,71.207,76.707,82.207,87.707,93.207,97.17,102.054,107.554,113.054,116.112,120.996,125.88,128.96,132.901,140.843,143.901,146.959,152.459,156.422,159.48,164.98,168.643,173.527,178.411,181.469,186.353,191.853,195.817,201.317,204.375,208.038,213.538,217.828,221.78,227.28,230.91,234.906,237.964,243.464,248.348,251.406,255.036,259.033,263.917,269.417,274.301,277.964,282.848,285.906,290.79,293.54,297.503,305.445,310.945,318.887,323.771,329.271,334.155,337.818,340.568,344.531,350.031,355.531,359.81,365.31,368.368,371.426,376.31,379.368" svgx:width="0.28,0.5,0.33,0.5,0.5,0.5,0.5,0.55,0.44,0.5,0.5,0.28,0.44,0.44,0.28,0.55,0.72,0.28,0.28,0.5,0.55,0.28,0.5,0.33,0.44,0.44,0.28,0.44,0.5,0.55,0.5,0.28,0.33,0.5,0.39,0.55,0.5,0.33,0.55,0.28,0.5,0.44,0.28,0.33,0.55,0.44,0.5,0.44,0.33,0.44,0.28,0.44,0.25,0.55,0.72,0.5,0.72,0.44,0.5,0.44,0.33,0.25,0.55,0.5,0.5,0.39,0.5,0.28,0.28,0.44,0.28,0.33" style="fill:rgb(0,0,0);font-family:Times-Roman;font-size:11.0px;stroke:none;">through contact with infected birds or their excreta. However, hospital-</text>
   <text y="510.275" x="58.986,63.87,68.754,74.254,79.754,82.812,86.475,91.359,96.859,103.873,106.931,112.431,116.094,120.978,125.862,128.92,131.978,137.478,142.978,149.993,157.935,162.819,167.10899999999998,174.113,178.997,182.055,186.334,191.834,198.848,204.348,209.232,217.79,223.29,228.79,233.069,236.127,239.79,244.674,247.732,252.616,258.116,265.131,268.189,273.689,280.704,285.544,292.602,296.265,301.149,304.207,307.87,313.37,317.649,323.149,328.033,332.917,335.975,339.034,344.534,349.37399999999997,356.432,360.711,363.769,369.269,374.769,380.269" svgx:width="0.44,0.44,0.5,0.5,0.28,0.33,0.44,0.5,0.55,0.28,0.5,0.33,0.44,0.44,0.28,0.28,0.5,0.5,0.55,0.72,0.44,0.39,0.55,0.44,0.28,0.39,0.5,0.55,0.5,0.44,0.78,0.5,0.5,0.39,0.28,0.33,0.44,0.28,0.44,0.5,0.55,0.28,0.5,0.55,0.44,0.55,0.33,0.44,0.28,0.33,0.5,0.39,0.5,0.44,0.44,0.28,0.28,0.5,0.44,0.55,0.39,0.28,0.5,0.5,0.5,0.25" style="fill:rgb(0,0,0);font-family:Times-Roman;font-size:11.0px;stroke:none;">acquired infection was also demonstrated in a retrospective study.</text>
   <text y="523.275" x="58.986,66.928,71.812,76.696,79.754,82.812,88.312,93.196,98.08,101.743,106.583,109.098,117.04,122.54,126.203,131.703,136.587,140.25,144.54,147.001,150.664,158.606,165.943,176.327,179.957,182.462,187.346,192.846,198.346,203.846,208.125,213.009,218.509,220.98,224.038,229.538,232.01,237.51,242.394,245.452,248.51,253.394,258.894,261.952,266.242,268.703,276.645,279.703,282.761,288.261,290.732,298.674,304.174,312.116,317.616,320.088,323.146,328.646,332.309,337.193,342.077,345.135,348.193,353.693,359.193,361.665,369.607,374.491,378.154" svgx:width="0.72,0.44,0.44,0.28,0.28,0.5,0.44,0.44,0.33,0.44,0.55,0.72,0.5,0.33,0.5,0.44,0.33,0.39,0.55,0.33,0.72,0.67,0.94,0.33,0.55,0.44,0.5,0.5,0.5,0.39,0.44,0.5,0.55,0.28,0.5,0.55,0.5,0.44,0.28,0.28,0.44,0.5,0.28,0.39,0.55,0.72,0.28,0.28,0.5,0.55,0.72,0.5,0.72,0.5,0.55,0.28,0.5,0.33,0.44,0.44,0.28,0.28,0.5,0.5,0.55,0.72,0.44,0.33,0.44" style="fill:rgb(0,0,0);font-family:Times-Roman;font-size:11.0px;stroke:none;">Healthcare workers (HCW) exposed to patients with H5N1 infection were</text>
   <text y="536.275" x="58.986,67.544,73.044,76.707,81.547,86.134,89.192,92.25,97.75,102.634,105.692,111.192,115.735,118.793,124.293,128.836,134.336,139.17600000000002,143.763,148.042,152.926,156.589,162.089,167.589,173.089,177.368,180.426,183.484,186.542,192.042,196.926,199.676,204.219,209.103,214.603,220.103,224.646,227.704,233.204,236.262,240.552,245.084,253.026,257.91,262.20000000000005,266.732,272.232,277.732,280.812,285.333,290.217,293.275,296.333,299.996,303.054,308.554,314.054,317.112,321.996,327.496,330.554,335.39399999999995,339.981,343.039,348.539,353.082,357.966,363.466,366.524,375.082,379.966" svgx:width="0.78,0.5,0.33,0.44,0.55,0.28,0.28,0.5,0.44,0.28,0.5,0.55,0.28,0.5,0.55,0.5,0.44,0.55,0.39,0.44,0.33,0.5,0.5,0.5,0.39,0.28,0.28,0.28,0.5,0.44,0.25,0.55,0.44,0.5,0.5,0.55,0.28,0.5,0.28,0.39,0.55,0.72,0.44,0.39,0.55,0.5,0.5,0.28,0.55,0.44,0.28,0.28,0.33,0.28,0.5,0.5,0.28,0.44,0.5,0.28,0.44,0.55,0.28,0.5,0.55,0.44,0.5,0.28,0.78,0.44,0.28" style="fill:rgb(0,0,0);font-family:Times-Roman;font-size:11.0px;stroke:none;">more likely to be seropositive, and this was not attributable to animal</text>
   <text y="549.275" x="58.986,63.87,69.37,74.87,80.37,84.649,90.149,93.812,98.696" svgx:width="0.44,0.5,0.5,0.5,0.39,0.5,0.33,0.44,0.25" style="fill:rgb(0,0,0);font-family:Times-Roman;font-size:11.0px;stroke:none;">exposure.</text>
   <text y="544.526" x="101.446,105.696,107.821,112.071,116.321,119.152,123.402,127.652,129.777,134.027,138.277,140.402,144.652,148.902,151.027,155.277,159.527,161.652,165.902,170.152,172.277,176.527,180.777,182.902,187.152" svgx:width="0.5,0.25,0.5,0.5,0.33,0.5,0.5,0.25,0.5,0.5,0.25,0.5,0.5,0.25,0.5,0.5,0.25,0.5,0.5,0.25,0.5,0.5,0.25,0.5,0.5" style="fill:rgb(0,0,100);font-family:Times-Roman;font-size:7.0px;stroke:none;">2,17-20,25,51,55,70,72,83</text>
   <text y="549.276" x="194.496,198.159,201.239,204.313,207.371,211.661,214.747,218.41,223.294,228.178,232.457,237.957,243.457,248.341,253.841,256.899,261.739,264.879,267.937,273.437,276.534,281.418,285.697,289.976,295.476,304.034,308.87399999999997,312.014,315.072,320.572,325.456,328.536,331.611,334.669,340.169,345.00899999999996,348.149,351.812,357.312,362.812,365.87,370.71,373.851,379.351" svgx:width="0.33,0.28,0.55,0.28,0.39,0.55,0.33,0.44,0.44,0.39,0.5,0.5,0.44,0.5,0.28,0.44,0.55,0.28,0.5,0.55,0.44,0.39,0.39,0.5,0.78,0.44,0.55,0.28,0.5,0.44,0.28,0.55,0.28,0.5,0.44,0.55,0.33,0.5,0.5,0.28,0.44,0.55,0.5,0.33" style="fill:rgb(0,0,0);font-family:Times-Roman;font-size:11.0px;stroke:none;">It is reasonable to assume that the route of</text>
   <text y="562.275" x="58.986,62.044,67.544,71.207,76.091,80.975,84.033,87.091,92.591,98.091,101.105,104.768,110.268,113.898,116.945,121.829,127.329,130.387,135.271,140.771,143.785,146.843,152.343,158.459,163.959,168.843,174.343,179.227,184.067,187.125,192.625,197.509,200.567,203.625,208.509,214.009,217.067,221.346,224.096,227.11,230.168,233.226,238.726,243.566,246.624,255.182,260.682,264.961,268.041,271.033,274.091,279.591,285.707,291.207,296.091,301.591,306.475,311.315,314.373,319.873,324.757,327.815,330.873,335.757,341.257,344.315,348.594,351.344,354.358,359.242,364.126,369.626,372.64,378.14" svgx:width="0.28,0.5,0.33,0.44,0.44,0.28,0.28,0.5,0.5,0.55,0.33,0.5,0.33,0.55,0.44,0.5,0.28,0.44,0.5,0.55,0.28,0.5,0.56,0.5,0.44,0.5,0.44,0.44,0.55,0.5,0.44,0.28,0.28,0.44,0.5,0.28,0.39,0.25,0.55,0.28,0.28,0.5,0.44,0.55,0.78,0.5,0.39,0.28,0.55,0.28,0.5,0.56,0.5,0.44,0.5,0.44,0.44,0.55,0.5,0.44,0.28,0.28,0.44,0.5,0.28,0.39,0.25,0.55,0.44,0.44,0.5,0.55,0.5,0.44" style="fill:rgb(0,0,0);font-family:Times-Roman;font-size:11.0px;stroke:none;">infection for avian inﬂuenza patients, like most inﬂuenza patients, can be</text>
   <text y="575.275" x="58.986,62.649,66.312,71.812,80.392,85.361,88.419,93.919,99.419,104.303,107.361,112.245,115.303,118.361,123.861,129.361,134.353,139.853,143.483,148.508,151.566,157.066,160.729,165.613,170.497,173.555,176.613,182.113,186.953,191.989,195.652,200.536,204.815,210.315,213.373,217.036,221.92,224.978,230.478,234.141,239.641,244.633,248.912,253.796,258.68,262.342,267.227,270.285,273.343,278.843,284.343,288.63300000000004,293.613,298.497,303.997,309.497,312.555,318.055,321.685,326.71,331.594,337.094,342.594,345.652,350.536,355.42,358.5,363.47,371.412,374.47,377.528" svgx:width="0.33,0.33,0.5,0.78,0.55,0.28,0.5,0.5,0.44,0.28,0.44,0.28,0.28,0.5,0.5,0.55,0.5,0.33,0.55,0.28,0.5,0.33,0.44,0.44,0.28,0.28,0.5,0.44,0.55,0.33,0.44,0.39,0.5,0.28,0.33,0.44,0.28,0.5,0.33,0.5,0.55,0.39,0.44,0.44,0.33,0.44,0.28,0.28,0.5,0.5,0.39,0.55,0.44,0.5,0.5,0.28,0.5,0.33,0.55,0.44,0.5,0.5,0.28,0.44,0.44,0.28,0.55,0.72,0.28,0.28,0.5" style="fill:rgb(0,0,0);font-family:Times-Roman;font-size:11.0px;stroke:none;">from inhalation of infective respiratory secretions and/or contact with</text>
   <text y="588.275" x="58.986,64.486,67.544,71.207,76.707,80.986,84.649,87.707,92.591,98.091,102.975,108.475,112.262,116.541,121.425,126.309,129.972,134.856,137.914,140.972,146.472,151.972,156.262,160.038,164.922,170.422,175.922,179.709,183.988,189.488,194.988,199.267,204.151,209.651,215.151,220.035,225.535,228.615,232.381,235.439,239.102,243.986,249.486,253.765,257.428,262.312,265.975,270.859,276.359,281.243,286.08299999999997,289.914,294.798,300.298,305.798,308.856,313.74,318.624,321.704,325.469,333.411,336.469,339.527,345.027,348.815,357.373,362.873,367.757,373.257,378.757" svgx:width="0.5,0.28,0.33,0.5,0.39,0.33,0.28,0.44,0.5,0.44,0.5,0.55,0.39,0.44,0.44,0.33,0.44,0.28,0.28,0.5,0.5,0.39,0.55,0.44,0.5,0.5,0.55,0.39,0.5,0.5,0.39,0.44,0.5,0.5,0.44,0.5,0.28,0.55,0.28,0.33,0.44,0.5,0.39,0.33,0.44,0.33,0.44,0.5,0.44,0.44,0.55,0.44,0.5,0.5,0.28,0.44,0.44,0.28,0.55,0.72,0.28,0.28,0.5,0.55,0.78,0.5,0.44,0.5,0.5,0.39" style="fill:rgb(0,0,0);font-family:Times-Roman;font-size:11.0px;stroke:none;">virus-laden secretions and subsequent transference contact with mucous</text>
   <text y="605.776" x="58.986,63.786,68.586,73.386,331.445,336.725,343.285,345.685,348.347,351.547,355.867,357.787,361.147,363.808,368.608,373.408,378.208" svgx:width="0.6,0.6,0.6,0.55,0.66,0.82,0.3,0.55,0.4,0.54,0.24,0.42,0.55,0.6,0.6,0.6,0.6" style="fill:rgb(0,0,0);font-family:FranklinGothic-Book;font-size:8.0px;stroke:none;">364 DM, July 2007</text>
  </g>
 </g>
</svg>
