<?xml version="1.0" encoding="UTF-8"?>
<svg height="588.77" width="559.92" xmlns="http://www.w3.org/2000/svg">
 <g>
  <path style="fill:none;stroke:rgb(23,22,21);stroke-width:1.0;" d="M45.350 62.360 L549.920 62.360 "/>
  <path style="fill:none;stroke:rgb(23,22,21);stroke-width:1.0;" d="M118.760 578.770 L221.260 578.770 "/>
  <path style="fill:none;stroke:rgb(23,22,21);stroke-width:0.25;" d="M221.260 578.770 L242.060 578.770 "/>
  <path style="fill:none;stroke:rgb(23,22,21);stroke-width:0.25;" d="M242.060 578.770 L270.360 578.770 "/>
  <path style="fill:none;stroke:rgb(23,22,21);stroke-width:0.25;" d="M270.360 578.770 L291.160 578.770 "/>
  <path style="fill:none;stroke:rgb(23,22,21);stroke-width:0.25;" d="M291.160 578.770 L319.460 578.770 "/>
  <path style="fill:none;stroke:rgb(23,22,21);stroke-width:0.25;" d="M319.460 578.770 L345.210 578.770 "/>
  <path style="fill:none;stroke:rgb(23,22,21);stroke-width:0.25;" d="M345.210 578.770 L380.260 578.770 "/>
  <path style="fill:none;stroke:rgb(23,22,21);stroke-width:0.25;" d="M380.260 578.770 L421.710 578.770 "/>
  <path style="fill:none;stroke:rgb(23,22,21);stroke-width:0.25;" d="M421.710 578.770 L447.510 578.770 "/>
  <path style="fill:none;stroke:rgb(23,22,21);stroke-width:0.25;" d="M447.510 578.770 L475.810 578.770 "/>
  <path style="fill:none;stroke:rgb(23,22,21);stroke-width:0.25;" d="M118.760 113.720 L221.260 113.720 "/>
  <path style="fill:none;stroke:rgb(23,22,21);stroke-width:0.25;" d="M221.260 113.720 L242.060 113.720 "/>
  <path style="fill:none;stroke:rgb(23,22,21);stroke-width:0.25;" d="M242.060 113.720 L270.360 113.720 "/>
  <path style="fill:none;stroke:rgb(23,22,21);stroke-width:0.25;" d="M270.360 113.720 L291.160 113.720 "/>
  <path style="fill:none;stroke:rgb(23,22,21);stroke-width:0.25;" d="M291.160 113.720 L319.460 113.720 "/>
  <path style="fill:none;stroke:rgb(23,22,21);stroke-width:0.25;" d="M319.460 113.720 L345.210 113.720 "/>
  <path style="fill:none;stroke:rgb(23,22,21);stroke-width:0.25;" d="M345.210 113.720 L380.260 113.720 "/>
  <path style="fill:none;stroke:rgb(23,22,21);stroke-width:0.25;" d="M380.260 113.720 L421.710 113.720 "/>
  <path style="fill:none;stroke:rgb(23,22,21);stroke-width:0.25;" d="M421.710 113.720 L447.510 113.720 "/>
  <path style="fill:none;stroke:rgb(23,22,21);stroke-width:0.25;" d="M447.510 113.720 L475.810 113.720 "/>
  <path style="fill:none;stroke:rgb(23,22,21);stroke-width:0.25;" d="M221.260 146.040 L242.060 146.040 "/>
  <path style="fill:none;stroke:rgb(23,22,21);stroke-width:0.25;" d="M242.060 146.040 L270.360 146.040 "/>
  <path style="fill:none;stroke:rgb(23,22,21);stroke-width:0.25;" d="M270.360 146.040 L291.160 146.040 "/>
  <path style="fill:none;stroke:rgb(23,22,21);stroke-width:0.25;" d="M291.160 146.040 L319.460 146.040 "/>
  <path style="fill:none;stroke:rgb(23,22,21);stroke-width:0.25;" d="M319.460 146.040 L345.210 146.040 "/>
  <path style="fill:none;stroke:rgb(23,22,21);stroke-width:0.25;" d="M345.210 146.040 L380.260 146.040 "/>
  <path style="fill:none;stroke:rgb(23,22,21);stroke-width:0.25;" d="M421.710 146.040 L447.510 146.040 "/>
  <path style="fill:none;stroke:rgb(23,22,21);stroke-width:0.25;" d="M447.510 146.040 L475.810 146.040 "/>
  <path style="fill:none;stroke:rgb(23,22,21);stroke-width:0.25;" d="M118.760 178.370 L221.260 178.370 "/>
  <path style="fill:none;stroke:rgb(23,22,21);stroke-width:0.25;" d="M221.260 178.370 L242.060 178.370 "/>
  <path style="fill:none;stroke:rgb(23,22,21);stroke-width:0.25;" d="M242.060 178.370 L270.360 178.370 "/>
  <path style="fill:none;stroke:rgb(23,22,21);stroke-width:0.25;" d="M270.360 178.370 L291.160 178.370 "/>
  <path style="fill:none;stroke:rgb(23,22,21);stroke-width:0.25;" d="M291.160 178.370 L319.460 178.370 "/>
  <path style="fill:none;stroke:rgb(23,22,21);stroke-width:0.25;" d="M319.460 178.370 L345.210 178.370 "/>
  <path style="fill:none;stroke:rgb(23,22,21);stroke-width:0.25;" d="M345.210 178.370 L380.260 178.370 "/>
  <path style="fill:none;stroke:rgb(23,22,21);stroke-width:0.25;" d="M380.260 178.370 L421.710 178.370 "/>
  <path style="fill:none;stroke:rgb(23,22,21);stroke-width:0.25;" d="M421.710 178.370 L447.510 178.370 "/>
  <path style="fill:none;stroke:rgb(23,22,21);stroke-width:0.25;" d="M447.510 178.370 L475.810 178.370 "/>
 </g>
</svg>
