<?xml version="1.0" encoding="UTF-8"?>
<svg height="767.08" width="586.0" xmlns="http://www.w3.org/2000/svg">
 <g>
  <path style="fill:rgb(59,90,166);stroke:none;stroke-width:1.0;" d="M375.820 111.680 L385.340 111.680 Z"/>
  <path style="fill:rgb(59,90,166);stroke:none;stroke-width:1.0;" d="M389.760 111.680 L399.290 111.680 Z"/>
  <path style="fill:rgb(59,90,166);stroke:none;stroke-width:1.0;" d="M403.770 111.680 L413.290 111.680 Z"/>
  <path style="fill:rgb(59,90,166);stroke:none;stroke-width:1.0;" d="M521.290 176.660 L530.820 176.660 Z"/>
  <path style="fill:rgb(59,90,166);stroke:none;stroke-width:1.0;" d="M554.630 189.690 L559.330 189.690 Z"/>
  <path style="fill:rgb(59,90,166);stroke:none;stroke-width:1.0;" d="M543.460 202.680 L552.980 202.680 Z"/>
  <path style="fill:rgb(59,90,166);stroke:none;stroke-width:1.0;" d="M275.240 228.700 L284.770 228.700 Z"/>
  <path style="fill:rgb(59,90,166);stroke:none;stroke-width:1.0;" d="M244.910 241.680 L254.440 241.680 Z"/>
  <path style="fill:rgb(59,90,166);stroke:none;stroke-width:1.0;" d="M477.810 267.700 L487.330 267.700 Z"/>
  <path style="fill:rgb(59,90,166);stroke:none;stroke-width:1.0;" d="M267.250 293.670 L276.770 293.670 Z"/>
  <path style="fill:rgb(59,90,166);stroke:none;stroke-width:1.0;" d="M276.770 332.670 L286.300 332.670 Z"/>
  <path style="fill:rgb(59,90,166);stroke:none;stroke-width:1.0;" d="M291.460 332.670 L300.980 332.670 Z"/>
  <path style="fill:rgb(59,90,166);stroke:none;stroke-width:1.0;" d="M532.120 345.660 L541.640 345.660 Z"/>
  <path style="fill:rgb(59,90,166);stroke:none;stroke-width:1.0;" d="M546.120 345.660 L555.590 345.660 Z"/>
  <path style="fill:rgb(59,90,166);stroke:none;stroke-width:1.0;" d="M387.440 371.680 L396.960 371.680 Z"/>
  <path style="fill:rgb(59,90,166);stroke:none;stroke-width:1.0;" d="M279.500 488.690 L289.020 488.690 Z"/>
  <path style="fill:rgb(59,90,166);stroke:none;stroke-width:1.0;" d="M236.920 514.660 L246.440 514.660 Z"/>
  <path style="fill:rgb(59,90,166);stroke:none;stroke-width:1.0;" d="M250.920 566.700 L260.450 566.700 Z"/>
  <path style="fill:rgb(59,90,166);stroke:none;stroke-width:1.0;" d="M482.510 631.670 L492.040 631.670 Z"/>
  <path style="fill:rgb(59,90,166);stroke:none;stroke-width:1.0;" d="M496.460 631.670 L505.980 631.670 Z"/>
  <path style="fill:rgb(59,90,166);stroke:none;stroke-width:1.0;" d="M506.210 657.690 L515.730 657.690 Z"/>
  <path style="fill:rgb(59,90,166);stroke:none;stroke-width:1.0;" d="M455.410 683.660 L464.940 683.660 Z"/>
  <path style="fill:rgb(59,90,166);stroke:none;stroke-width:1.0;" d="M469.360 683.660 L478.890 683.660 Z"/>
  <path style="fill:rgb(0,0,0);stroke:none;stroke-width:1.0;" d="M576.000 54.900 L36.000 54.900 L36.000 54.400 L576.000 54.400 "/>
  <path style="fill:rgb(0,0,0);stroke:none;stroke-width:1.0;" d="M91.540 36.890 L34.980 36.890 L34.980 49.270 L91.540 49.270 ZM36.000 744.000 L576.000 744.000 L576.000 744.500 L36.000 744.500 "/>
  <path style="fill:rgb(59,90,166);stroke:none;stroke-width:1.0;" d="M81.580 757.080 L237.880 757.080 Z"/>
 </g>
</svg>
