<?xml version="1.0" encoding="UTF-8"?>
<svg height="767.08" width="586.0" xmlns="http://www.w3.org/2000/svg">
 <g>
  <path style="fill:rgb(155,154,156);stroke:none;stroke-width:1.0;" d="M576.000 158.090 L200.000 158.090 L200.000 157.590 L576.000 157.590 "/>
  <path style="fill:rgb(59,90,166);stroke:none;stroke-width:1.0;" d="M223.540 255.060 L228.300 255.060 Z"/>
  <path style="fill:rgb(59,90,166);stroke:none;stroke-width:1.0;" d="M444.930 333.070 L449.690 333.070 Z"/>
  <path style="fill:rgb(59,90,166);stroke:none;stroke-width:1.0;" d="M408.250 372.080 L413.010 372.080 Z"/>
  <path style="fill:rgb(59,90,166);stroke:none;stroke-width:1.0;" d="M258.290 398.100 L263.050 398.100 Z"/>
  <path style="fill:rgb(59,90,166);stroke:none;stroke-width:1.0;" d="M267.530 398.100 L272.300 398.100 Z"/>
  <path style="fill:rgb(59,90,166);stroke:none;stroke-width:1.0;" d="M515.730 411.080 L520.500 411.080 Z"/>
  <path style="fill:rgb(59,90,166);stroke:none;stroke-width:1.0;" d="M524.980 411.080 L529.740 411.080 Z"/>
  <path style="fill:rgb(59,90,166);stroke:none;stroke-width:1.0;" d="M483.310 424.060 L488.070 424.060 Z"/>
  <path style="fill:rgb(59,90,166);stroke:none;stroke-width:1.0;" d="M541.700 476.050 L546.460 476.050 Z"/>
  <path style="fill:rgb(59,90,166);stroke:none;stroke-width:1.0;" d="M475.820 567.100 L480.530 567.100 Z"/>
  <path style="fill:rgb(59,90,166);stroke:none;stroke-width:1.0;" d="M485.010 567.100 L494.530 567.100 Z"/>
  <path style="fill:rgb(59,90,166);stroke:none;stroke-width:1.0;" d="M250.020 619.090 L254.780 619.090 Z"/>
  <path style="fill:rgb(59,90,166);stroke:none;stroke-width:1.0;" d="M344.640 671.070 L349.400 671.070 Z"/>
  <path style="fill:rgb(59,90,166);stroke:none;stroke-width:1.0;" d="M374.800 697.100 L384.320 697.100 Z"/>
  <path style="fill:rgb(0,0,0);stroke:none;stroke-width:1.0;" d="M576.000 54.900 L36.000 54.900 L36.000 54.400 L576.000 54.400 "/>
  <path style="fill:rgb(0,0,0);stroke:none;stroke-width:1.0;" d="M91.540 36.890 L34.980 36.890 L34.980 49.270 L91.540 49.270 ZM36.000 744.000 L576.000 744.000 L576.000 744.500 L36.000 744.500 "/>
  <path style="fill:rgb(59,90,166);stroke:none;stroke-width:1.0;" d="M81.580 757.080 L237.880 757.080 Z"/>
 </g>
</svg>
