<?xml version="1.0" encoding="UTF-8"?>
<svg height="783.34" width="565.8682" xmlns="http://www.w3.org/2000/svg">
 <g id="page" xmlns:svgx="http://www.xml-cml.org/schema/svgx">
  <g begin="text">
   <text y="47.4" x="56.82,62.307,65.187,67.179,69.673,71.665,75.652,79.974,81.966,84.126,89.613,93.935,96.757" svgx:width="0.69,0.35,0.25,0.31,0.25,0.5,0.54,0.25,0.27,0.69,0.54,0.35,0.56" style="fill:rgb(0,0,0);font-family:AkzidenzGroteskBE-Md;font-size:7.98px;stroke:none;">Critical Care</text>
   <text y="47.4" x="101.34,103.5,105.66,107.88,109.98,114.78,119.101,120.777,122.938,127.607,132.276,134.436,140.102,144.444,146.605,151.274,153.434,155.594,157.754,159.974,165.146,169.648,172.108,176.128,180.268,184.289,190.458,194.297,198.639,202.813" svgx:width="0.27,0.27,0.27,0.27,0.6,0.54,0.21,0.27,0.58,0.58,0.27,0.71,0.54,0.27,0.58,0.27,0.27,0.27,0.27,0.65,0.56,0.31,0.5,0.52,0.5,0.77,0.48,0.54,0.52,0.27" style="fill:rgb(0,0,0);font-family:AkzidenzGroteskBE-Regular;font-size:7.98px;stroke:none;"> Vol 10 No 1 Abrahamson </text>
   <text y="47.4" x="204.96,209.149,211.309,213.649,217.608,219.468" svgx:width="0.52,0.27,0.29,0.5,0.23,0.23" style="fill:rgb(0,0,0);font-family:AkzidenzGroteskBE-It;font-size:7.98px;stroke:none;">et al.</text>
   <text y="763.98" x="55.14,60.168,64.128,68.654,72.852,75.012,79.632,81.852,86.172,88.332,90.492" svgx:width="0.63,0.5,0.56,0.52,0.27,0.58,0.27,0.54,0.27,0.27,0.58" style="fill:rgb(0,0,0);font-family:AkzidenzGroteskBE-Regular;font-size:7.98px;stroke:none;">Page 4 of 6</text>
   <text y="773.34" x="55.14,57.754,61.531,65.015,68.855,72.485,74.525,78.301,82.141,87.658,91.574,95.204,97.387,99.426,103.266,107.046,108.937,110.977,112.867,116.643,118.826,120.866,124.406,125.966,127.856,131.34,133.231,134.79,138.63,142.41,144.45,148.227,152.003,154.186,158.025,161.805,165.105,168.765,172.103" svgx:width="0.38,0.54,0.5,0.54,0.52,0.29,0.54,0.54,0.79,0.56,0.52,0.31,0.29,0.54,0.54,0.27,0.29,0.27,0.54,0.31,0.29,0.5,0.23,0.27,0.5,0.27,0.23,0.54,0.54,0.29,0.54,0.54,0.31,0.54,0.54,0.48,0.52,0.48,0.38" style="fill:rgb(0,0,0);font-family:AkzidenzGroteskBE-It;font-size:6.96px;stroke:none;">(page number not for citation purposes)</text>
   <text y="91.56" x="56.82,66.249,71.059,73.339,77.955,79.872,84.293,89.297,91.517,96.705,99.593,104.596,109.785,114.788,119.209,124.019,129.207,131.488,136.297,140.912,144.946,146.863,151.723,156.883,159.103,163.718,165.699,167.616,169.836,175.995,181.959,188.118,194.276,196.496,201.685,206.365,209.058,210.976,215.785,220.594,223.288,227.709,229.93,234.933,239.742,241.963,246.772,251.388,254.328,259.487,261.405,266.02,270.88,273.101,275.794,280.604,282.521,287.381,294.5" svgx:width="1.02,0.52,0.27,0.5,0.21,0.48,0.54,0.27,0.56,0.31,0.54,0.56,0.54,0.48,0.52,0.56,0.27,0.52,0.5,0.44,0.21,0.52,0.56,0.27,0.5,0.21,0.21,0.27,0.67,0.65,0.67,0.67,0.27,0.56,0.5,0.29,0.21,0.52,0.52,0.29,0.48,0.27,0.54,0.52,0.27,0.52,0.5,0.31,0.56,0.21,0.5,0.52,0.27,0.29,0.52,0.21,0.52,0.77,0.29" style="fill:rgb(0,0,0);font-family:AkzidenzGroteskBE-Regular;font-size:9.24px;stroke:none;">We also proposed having all SARS patients on cardiac telem-</text>
   <text y="103.32" x="56.82,61.634,64.332,67.224,71.262,73.378,76.378,80.804,85.812,88.813,91.511,96.325,101.005,103.705,106.645,111.265,114.265,119.458,124.272,126.776,128.698,133.891,136.783,138.705,140.627,142.549,147.169,149.867,154.875,157.767,160.767,165.581,170.589,175.403,177.325,182.518,185.518,190.711,195.572,198.572,203.765,206.657,211.665,216.479,221.672,226.486,229.184,232.184,234.106,238.92,241.618,246.626,249.627,252.325,257.139,261.953,264.953,267.893,272.873,277.882,285.006,288.006,293.199" svgx:width="0.52,0.29,0.31,0.44,0.23,0.27,0.48,0.54,0.27,0.29,0.52,0.5,0.29,0.27,0.5,0.27,0.56,0.52,0.27,0.21,0.56,0.31,0.21,0.21,0.21,0.5,0.29,0.54,0.31,0.27,0.52,0.54,0.52,0.21,0.56,0.27,0.56,0.52,0.27,0.56,0.31,0.54,0.52,0.56,0.52,0.29,0.27,0.21,0.52,0.29,0.54,0.27,0.29,0.52,0.52,0.27,0.31,0.54,0.54,0.77,0.27,0.56,0.44" style="fill:rgb(0,0,0);font-family:AkzidenzGroteskBE-Regular;font-size:9.24px;stroke:none;">etry, so that a defibrillator could be brought into the room by</text>
   <text y="115.08" x="56.82,59.516,64.328,69.141,72.081,74.583,76.503,79.393,83.817,86.514,89.394,92.334,97.134,101.558,106.749,111.756,116.568,121.759,126.571,129.461,131.622,134.502,140.469,144.505,149.123,151.043,152.963,157.581,162.772,164.692,169.505,172.445,175.335,180.18,184.618,189.638,194.464,197.368,202.194,207.02,211.458,214.338,219.543,221.477,226.682,229.562,234.388,239.408,242.118,244.998,250.203,255.029,257.933,265.013,266.947,269.657,272.597,277.229,280.169,285.329,290.189,292.649,294.569" svgx:width="0.29,0.52,0.52,0.27,0.27,0.21,0.31,0.48,0.29,0.27,0.31,0.52,0.48,0.56,0.54,0.52,0.56,0.52,0.31,0.23,0.27,0.65,0.44,0.5,0.21,0.21,0.5,0.56,0.21,0.52,0.27,0.31,0.52,0.48,0.54,0.52,0.31,0.52,0.52,0.48,0.27,0.56,0.21,0.56,0.27,0.52,0.54,0.29,0.27,0.56,0.52,0.31,0.77,0.21,0.29,0.27,0.5,0.27,0.56,0.52,0.27,0.21,0.29" style="fill:rgb(0,0,0);font-family:AkzidenzGroteskBE-Regular;font-size:9.24px;stroke:none;">the first responder. Available resources did not permit a defi-</text>
   <text y="126.839" x="56.82,62.006,64.947,66.862,68.777,70.693,75.306,77.998,83.0,85.94,88.4,90.315,95.175,97.695,102.503,107.116,111.924,116.731,119.251,122.137,127.138,132.14,139.257" svgx:width="0.56,0.31,0.21,0.21,0.21,0.5,0.29,0.54,0.31,0.27,0.21,0.52,0.27,0.52,0.5,0.52,0.52,0.27,0.31,0.54,0.54,0.77,0.23" style="fill:rgb(0,0,0);font-family:AkzidenzGroteskBE-Regular;font-size:9.24px;stroke:none;">brillator in each room.</text>
   <text y="150.48" x="56.82,61.932,66.911,71.625,76.785,81.896,84.117,89.228,94.388,99.368,102.128,107.288,109.808,112.628,117.929,122.909,125.489,127.649,132.989,135.929,138.149,140.293,142.438,147.151,149.732,151.891,157.051" svgx:width="0.54,0.52,0.5,0.54,0.54,0.23,0.54,0.54,0.52,0.29,0.54,0.27,0.29,0.56,0.52,0.27,0.23,0.56,0.31,0.23,0.23,0.23,0.5,0.27,0.23,0.54,0.54" style="fill:rgb(0,0,0);font-family:AkzidenzGroteskBE-It;font-size:9.48px;stroke:none;">Technique of defibrillation</text>
   <text y="162.06" x="56.82,62.785,64.704,67.398,72.258,77.263,82.123,87.312,92.122,94.762,99.379,102.018,107.79,113.561,119.72,122.36,129.092,133.709,138.131,140.771,145.581,150.586,153.28,155.86,162.592,167.596,170.485,175.345,177.925,180.425,185.43,188.318,190.958,196.147,201.007,203.508,205.426,210.615,213.504,215.422,217.34,219.258,223.875,226.569,228.549,233.553,238.364,240.476,243.056,249.788,254.598,257.238,262.049,267.053,269.747,274.608,279.797,282.437,285.131,289.941,294.558" svgx:width="0.65,0.21,0.29,0.52,0.54,0.52,0.56,0.52,0.27,0.5,0.27,0.63,0.63,0.67,0.27,0.73,0.5,0.48,0.27,0.52,0.54,0.29,0.27,0.73,0.54,0.31,0.52,0.27,0.27,0.54,0.31,0.27,0.56,0.52,0.27,0.21,0.56,0.31,0.21,0.21,0.21,0.5,0.29,0.21,0.54,0.52,0.23,0.27,0.73,0.52,0.27,0.52,0.54,0.29,0.52,0.56,0.27,0.29,0.52,0.5,0.29" style="fill:rgb(0,0,0);font-family:AkzidenzGroteskBE-Regular;font-size:9.24px;stroke:none;">Although a PPS was not worn for defibrillation, we noted that</text>
   <text y="173.82" x="56.82,58.738,61.239,63.698,65.616,70.427,74.849,77.543,82.354,86.97,92.159,94.619,99.623,102.124,104.583,109.2,114.389,119.578,121.496,125.577,127.497,132.307,137.496,139.956,145.145,149.761,154.951,160.14,162.058,166.868,171.291,173.403,175.98,183.096,187.901,189.815,192.505,194.418,196.914,201.72,206.58,211.386,214.076,215.989,220.989,225.849,228.309,233.493,238.354,240.849,242.763,247.948,250.831,252.745,254.659,256.639,261.25,263.94,265.854,270.854,275.659,278.119,282.979,284.899,289.705,294.511" svgx:width="0.21,0.27,0.27,0.21,0.52,0.48,0.29,0.52,0.5,0.56,0.27,0.54,0.27,0.27,0.5,0.56,0.56,0.21,0.44,0.21,0.52,0.56,0.27,0.56,0.5,0.56,0.56,0.21,0.52,0.48,0.23,0.27,0.77,0.52,0.21,0.29,0.21,0.27,0.52,0.52,0.52,0.29,0.21,0.54,0.52,0.27,0.56,0.52,0.27,0.21,0.56,0.31,0.21,0.21,0.21,0.5,0.29,0.21,0.54,0.52,0.27,0.52,0.21,0.52,0.52,0.29" style="fill:rgb(0,0,0);font-family:AkzidenzGroteskBE-Regular;font-size:9.24px;stroke:none;">if instead of applying paddles, multifunction defibrillation elec-</text>
   <text y="185.58" x="56.82,59.518,62.41,67.418,72.611,77.425,81.851,84.3458,86.111,90.971,95.591,100.784,105.464,110.657,112.579,117.439,119.93379999999999,121.699,126.707,129.211,131.7058,133.47,138.663,143.671,146.369,151.23,153.7248,155.489,160.682,165.302,170.116,172.038,176.852,182.045,184.53979999999999,186.305,190.925,195.739,200.932,203.4268,205.191,210.384,215.198,217.702,219.624,224.817,227.709,229.631,231.553,233.475,238.095,240.793,242.715,247.723,252.537,255.0318,256.797,259.737,267.237,272.624,278.011,283.398,288.785,294.754" svgx:width="0.29,0.31,0.54,0.56,0.52,0.48,0.27,0.55,0.52,0.5,0.56,0.5,0.56,0.21,0.52,0.27,0.55,0.54,0.27,0.27,0.55,0.56,0.54,0.29,0.52,0.27,0.55,0.56,0.5,0.52,0.21,0.52,0.56,0.27,0.55,0.5,0.52,0.56,0.27,0.55,0.56,0.52,0.27,0.21,0.56,0.31,0.21,0.21,0.21,0.5,0.29,0.21,0.54,0.52,0.27,0.55,0.31,0.81,0.58,0.58,0.58,0.58,0.65,0.27" style="fill:rgb(0,0,0);font-family:AkzidenzGroteskBE-Regular;font-size:9.24px;stroke:none;">trodes capable of both pacing and defibrillation (M3501A;</text>
   <text y="197.339" x="56.82,62.779,67.962,69.873,71.785,76.589,81.449,84.149,86.43,91.428,96.288,101.092,105.896,110.756,115.754,117.665,122.663,127.846,129.758,134.618,139.034,141.14,143.42,149.379,154.239,159.422,164.42,168.448,173.308,176.19,178.296,180.6,188.107,194.079,196.199,198.479,204.84,211.007,216.98,219.875,222.156,228.896,233.713,236.609,241.427,243.766,248.39,253.587,258.783,260.709,262.635,267.452,272.649,274.929,277.631,282.643,284.923,287.625,292.443" svgx:width="0.65,0.56,0.21,0.21,0.52,0.52,0.29,0.27,0.54,0.52,0.52,0.52,0.52,0.54,0.21,0.54,0.56,0.21,0.52,0.48,0.23,0.27,0.65,0.52,0.56,0.54,0.44,0.52,0.31,0.23,0.27,0.81,0.65,0.23,0.27,0.69,0.67,0.65,0.31,0.27,0.73,0.52,0.31,0.52,0.27,0.5,0.56,0.56,0.21,0.21,0.52,0.56,0.27,0.29,0.54,0.27,0.29,0.52,0.52" style="fill:rgb(0,0,0);font-family:AkzidenzGroteskBE-Regular;font-size:9.24px;stroke:none;">Agilent Technologies, Andover, MA, USA) were applied to the</text>
   <text y="209.039" x="56.82,61.628,66.435,71.295,75.715,78.406,80.567,83.06179999999999,85.487,90.295,94.908,99.716,104.902,109.322,112.013,117.015,119.512,122.01,124.5048,126.93,132.117,136.977,139.475,141.39,146.576,149.462,151.442,153.358,155.273,159.887,162.578,164.494,169.495,174.356,176.8508,179.276,184.083,189.085,193.945,195.865,201.052,203.5468,205.972,211.159,215.966,218.4608,220.886,225.5,230.36,235.168,240.169,247.287,252.473,254.389,256.304,260.724,265.531,270.339,275.525,277.635,280.1298,282.555,287.557,292.364" svgx:width="0.52,0.52,0.52,0.48,0.29,0.23,0.27,0.55,0.52,0.5,0.52,0.56,0.48,0.29,0.54,0.27,0.27,0.27,0.55,0.56,0.52,0.27,0.21,0.56,0.31,0.21,0.21,0.21,0.5,0.29,0.21,0.54,0.52,0.27,0.55,0.52,0.54,0.52,0.21,0.56,0.27,0.55,0.56,0.52,0.27,0.55,0.5,0.52,0.52,0.54,0.77,0.56,0.21,0.21,0.48,0.52,0.52,0.56,0.23,0.27,0.55,0.54,0.52,0.52" style="fill:rgb(0,0,0);font-family:AkzidenzGroteskBE-Regular;font-size:9.24px;stroke:none;">chest, hands-off defibrillation could be accomplished. The</text>
   <text y="220.799" x="56.82,62.011,66.871,69.373,71.294,76.485,79.375,81.295,83.215,85.195,89.813,92.509,97.516,100.406,102.9008,104.966,112.088,116.706,121.518,126.379,128.299,133.111,137.923,140.4178,142.483,147.295,152.302,157.114,159.034,164.225,166.7198,168.725,173.916,178.728,181.2228,183.288,188.479,190.399,195.017,199.829,204.641,209.833,212.3278,214.392,219.011,224.202,229.208,234.02,236.716,239.2108,241.276,246.661,249.1558,251.161,258.283,260.7778,262.843,265.345,268.236,273.242,280.364,282.8588,284.924,287.62,292.433" svgx:width="0.56,0.52,0.27,0.21,0.56,0.31,0.21,0.21,0.21,0.5,0.29,0.54,0.31,0.27,0.55,0.77,0.5,0.52,0.52,0.21,0.52,0.52,0.27,0.55,0.52,0.54,0.52,0.21,0.56,0.27,0.55,0.56,0.52,0.27,0.55,0.56,0.21,0.5,0.52,0.52,0.56,0.27,0.55,0.5,0.56,0.54,0.52,0.29,0.27,0.55,0.58,0.27,0.55,0.77,0.27,0.55,0.27,0.31,0.54,0.77,0.27,0.55,0.29,0.52,0.52" style="fill:rgb(0,0,0);font-family:AkzidenzGroteskBE-Regular;font-size:9.24px;stroke:none;">defibrillator machine could be placed about 2 m from the</text>
   <text y="232.559" x="56.82,61.98,66.6,69.324,71.245,76.085,80.886,83.61,85.891,92.611,97.411,102.252,107.052,109.333,116.484,121.284,123.204,125.904,127.824,130.344,135.144,139.944,144.804,147.529,149.449,154.43,159.29,161.51,166.351,168.271,173.071,177.871,180.571,183.451,188.492,193.712,198.512,202.964,205.185,211.948,216.748,219.628,224.488,226.709,231.549,236.002,240.802,245.962,248.105,250.325,254.972,259.772,264.932,267.212,269.937,274.737,279.578,281.798,287.018,291.818,294.543" svgx:width="0.56,0.5,0.29,0.21,0.52,0.52,0.29,0.27,0.73,0.52,0.52,0.52,0.27,0.77,0.52,0.21,0.29,0.21,0.27,0.52,0.52,0.52,0.29,0.21,0.54,0.52,0.27,0.52,0.21,0.52,0.52,0.29,0.31,0.54,0.56,0.52,0.48,0.27,0.73,0.52,0.31,0.52,0.27,0.52,0.48,0.52,0.56,0.23,0.27,0.5,0.52,0.56,0.27,0.29,0.52,0.52,0.27,0.56,0.52,0.29,0.29" style="fill:rgb(0,0,0);font-family:AkzidenzGroteskBE-Regular;font-size:9.24px;stroke:none;">patient when multifunction electrodes were used, and the but-</text>
   <text y="244.318" x="56.82,59.514,64.519,69.379,73.759,76.278,81.283,86.093,88.613,91.307,96.118,100.928,103.448,110.568,115.184,119.995,124.855,126.773,131.584,136.394,138.914,143.724,148.728,153.539,155.457,160.646,163.166,168.355,173.165,175.685,180.874,183.763,188.573,192.995,197.418,202.228,207.417,209.937,212.437,217.442,220.33,222.85,228.039,232.849,235.35,237.268,242.457,245.397,247.315,249.234,251.152,255.768,258.463,260.381,265.385,270.245,272.358,274.878,279.882,284.742,289.552,292.441" svgx:width="0.29,0.54,0.52,0.48,0.27,0.54,0.52,0.27,0.29,0.52,0.52,0.27,0.77,0.5,0.52,0.52,0.21,0.52,0.52,0.27,0.52,0.54,0.52,0.21,0.56,0.27,0.56,0.52,0.27,0.56,0.31,0.52,0.48,0.48,0.52,0.56,0.27,0.27,0.54,0.31,0.27,0.56,0.52,0.27,0.21,0.56,0.31,0.21,0.21,0.21,0.5,0.29,0.21,0.54,0.52,0.23,0.27,0.54,0.52,0.52,0.31,0.52" style="fill:rgb(0,0,0);font-family:AkzidenzGroteskBE-Regular;font-size:9.24px;stroke:none;">tons on the machine could be pressed for defibrillation. There</text>
   <text y="256.078" x="56.82,63.558,68.18,72.607,75.247,80.063,84.879,89.695,94.511,97.405,100.105,104.727,106.65,111.466,114.166,118.206,120.906,125.528,130.722,135.732,140.548,143.248,145.888,148.588,153.404,158.22,160.86,167.985,172.995,178.19,183.006,185.7,190.717,193.229,195.869,198.575,201.476,206.104,210.927,215.361,222.441,224.371,228.805,233.239,235.17,240.186,245.008,247.648,252.665,255.124,257.824,260.531,265.353,270.175,272.815,278.987,284.964,291.135" svgx:width="0.73,0.5,0.48,0.27,0.52,0.52,0.52,0.52,0.31,0.29,0.5,0.21,0.52,0.29,0.44,0.27,0.5,0.56,0.54,0.52,0.29,0.27,0.29,0.52,0.52,0.27,0.77,0.54,0.56,0.52,0.27,0.54,0.27,0.27,0.29,0.31,0.5,0.52,0.48,0.77,0.21,0.48,0.48,0.21,0.54,0.52,0.27,0.54,0.27,0.27,0.29,0.52,0.52,0.27,0.67,0.65,0.67,0.67" style="fill:rgb(0,0,0);font-family:AkzidenzGroteskBE-Regular;font-size:9.24px;stroke:none;">was uncertainty about the mode of transmission of the SARS</text>
   <text y="267.838" x="56.82,60.857,62.778,65.669,70.529,74.954,77.069,79.5638,80.85,86.041,90.902,93.599,96.0938,97.319,102.705,105.1998,106.485,113.608,116.1028,117.388,119.309,123.734,126.22879999999999,127.514,132.133,137.325,142.517,145.408,150.416,154.074,155.995,163.118,167.737,170.434,175.247,177.18,181.222,183.7168,185.002,187.704,192.521,197.339,199.8338,201.119,206.316,208.241,212.671,215.373,219.997,224.814,229.632,234.45,236.9448,238.23,240.932,245.749,250.373,253.075,255.5698,256.855,261.867,264.763,269.959,274.583,279.401,281.326,285.756,292.884" svgx:width="0.44,0.21,0.31,0.52,0.48,0.23,0.27,0.55,0.56,0.52,0.29,0.27,0.55,0.58,0.27,0.55,0.77,0.27,0.55,0.21,0.48,0.27,0.55,0.5,0.56,0.56,0.31,0.54,0.4,0.21,0.77,0.5,0.29,0.52,0.21,0.44,0.27,0.55,0.29,0.52,0.52,0.27,0.55,0.56,0.21,0.48,0.29,0.5,0.52,0.52,0.52,0.27,0.55,0.29,0.52,0.5,0.29,0.27,0.55,0.54,0.31,0.56,0.5,0.52,0.21,0.48,0.77,0.48" style="fill:rgb(0,0,0);font-family:AkzidenzGroteskBE-Regular;font-size:9.24px;stroke:none;">virus, but 1 m is approximately the distance that organisms</text>
   <text y="279.598" x="56.82,59.522,62.418,67.041,71.083,75.901,77.826,80.32079999999999,82.687,87.884,91.926,94.4208,96.787,101.983,104.879,109.891,115.087,117.013,121.831,124.533,127.0278,129.394,133.823,139.02,141.916,146.734,151.357,156.554,159.0488,161.4,164.289,169.672,175.055,177.943,180.104,182.5988,184.964,194.394,199.205,201.6998,204.125,207.013,211.824,216.634,221.639,228.759,235.879,240.69,245.5,250.689,255.499,260.689,263.1838,265.549,268.243,273.054,277.67,280.364,282.477,284.9718,287.397,292.401" svgx:width="0.29,0.31,0.5,0.44,0.52,0.21,0.27,0.55,0.56,0.44,0.27,0.55,0.56,0.31,0.54,0.56,0.21,0.52,0.29,0.27,0.55,0.48,0.56,0.31,0.52,0.5,0.56,0.27,0.55,0.31,0.58,0.58,0.31,0.23,0.27,0.55,1.02,0.52,0.27,0.55,0.31,0.52,0.52,0.54,0.77,0.77,0.52,0.52,0.56,0.52,0.56,0.27,0.55,0.29,0.52,0.5,0.29,0.23,0.27,0.55,0.54,0.52" style="fill:rgb(0,0,0);font-family:AkzidenzGroteskBE-Regular;font-size:9.24px;stroke:none;">travel by droplet spread [14]. We recommended that, on</text>
   <text y="291.297" x="56.82,63.554,68.172,71.063,76.254,80.678,82.658,89.392,91.312,94.008,98.868,100.789,106.95,112.917,119.078,125.239,127.22,132.411,137.029,139.725,141.645,146.457,151.318,154.014,158.438,160.552,162.532,167.15,169.07,170.99,172.971,178.162,182.974,185.476,187.396,192.587,195.527,197.447,199.367,201.287,205.906,208.602,213.608,216.548,220.928,222.908,227.768,232.388,236.424,241.237,243.217,245.913,250.773,252.693,257.117,259.037,266.16,271.02,272.94,275.636,277.556,280.058,284.871,289.683,294.495" svgx:width="0.73,0.5,0.31,0.56,0.48,0.27,0.73,0.21,0.29,0.52,0.27,0.67,0.65,0.67,0.67,0.27,0.56,0.5,0.29,0.21,0.52,0.52,0.29,0.48,0.23,0.27,0.5,0.21,0.21,0.27,0.56,0.52,0.27,0.21,0.56,0.31,0.21,0.21,0.21,0.5,0.29,0.54,0.31,0.48,0.27,0.52,0.5,0.44,0.52,0.27,0.29,0.52,0.21,0.48,0.27,0.77,0.52,0.21,0.29,0.21,0.27,0.52,0.52,0.52,0.29" style="fill:rgb(0,0,0);font-family:AkzidenzGroteskBE-Regular;font-size:9.24px;stroke:none;">wards with SARS patients, all defibrillators have this multifunc-</text>
   <text y="303.057" x="56.82,59.516,61.436,66.443,71.303,73.762,78.623,83.243,88.434,93.052,98.243,100.163,102.083,104.003,106.699,110.735" svgx:width="0.29,0.21,0.54,0.52,0.27,0.52,0.5,0.56,0.5,0.56,0.21,0.21,0.21,0.29,0.44,0.23" style="fill:rgb(0,0,0);font-family:AkzidenzGroteskBE-Regular;font-size:9.24px;stroke:none;">tion capability.</text>
   <text y="326.76" x="56.82,62.758,65.698,70.849,76.001,81.101,86.253,93.774,95.958,100.711,103.471,106.053,110.807,115.56,118.142,123.294,126.233" svgx:width="0.63,0.31,0.54,0.54,0.54,0.54,0.79,0.23,0.5,0.29,0.27,0.5,0.5,0.27,0.54,0.31,0.48" style="fill:rgb(0,0,0);font-family:AkzidenzGroteskBE-It;font-size:9.48px;stroke:none;">Ergonomic factors</text>
   <text y="338.34" x="56.82,62.782,65.902,71.087,74.028,79.028,84.214,86.128,90.935,98.052,101.112,107.892,112.692,115.753,120.613,125.42,130.226,135.227,140.034,144.84,147.531,152.391,155.271,160.078,165.263,168.324,173.509,176.394,181.201,185.281,187.195,192.196,197.056,201.436,203.351,207.431,210.491,217.272,219.192,221.882,226.689,229.749,232.44,237.3,242.107,245.167,250.987,256.748,262.903,265.964,272.744,277.364,281.783,284.903,287.594,292.4" svgx:width="0.65,0.27,0.56,0.31,0.54,0.56,0.21,0.52,0.77,0.27,0.73,0.52,0.27,0.52,0.52,0.52,0.54,0.52,0.52,0.29,0.52,0.31,0.52,0.56,0.27,0.56,0.31,0.52,0.44,0.21,0.54,0.52,0.48,0.21,0.44,0.27,0.73,0.21,0.29,0.52,0.27,0.29,0.52,0.52,0.27,0.63,0.63,0.67,0.27,0.73,0.5,0.48,0.27,0.29,0.52,0.52" style="fill:rgb(0,0,0);font-family:AkzidenzGroteskBE-Regular;font-size:9.24px;stroke:none;">A problem we encountered previously with the PPS was the</text>
   <text y="350.1" x="56.82,59.711,61.632,66.057,70.288,72.7828,73.888,78.895,81.398,83.8928,84.938,90.13,92.051,96.476,98.397,103.404,108.596,113.788,115.709,120.522,125.714,128.2088,129.254,131.951,136.764,141.578,144.0728,145.177,150.952,156.726,162.888,165.3828,166.428,171.288,176.088,178.009,185.132,189.945,192.642,195.1368,196.242,202.977,207.79,212.604,217.464,219.9588,221.004,225.623,228.1178,229.163,233.588,236.285,241.098,243.795,248.655,253.636,258.061,262.874,267.881,273.073,277.886,280.3808,281.426,288.206,292.826" svgx:width="0.31,0.21,0.48,0.46,0.27,0.55,0.54,0.27,0.27,0.55,0.56,0.21,0.48,0.21,0.54,0.56,0.56,0.21,0.52,0.56,0.27,0.55,0.29,0.52,0.52,0.27,0.55,0.63,0.63,0.67,0.27,0.55,0.52,0.52,0.21,0.77,0.52,0.29,0.27,0.55,0.73,0.52,0.52,0.52,0.27,0.55,0.5,0.27,0.55,0.48,0.29,0.52,0.29,0.52,0.54,0.48,0.52,0.54,0.56,0.52,0.27,0.55,0.73,0.5,0.48" style="fill:rgb(0,0,0);font-family:AkzidenzGroteskBE-Regular;font-size:9.24px;stroke:none;">risk of dislodging the PPS helmet when a stethoscope was</text>
   <text y="361.799" x="56.82,62.013,63.935,68.555,73.415,78.229,83.422,85.942,87.864,92.678,95.257,97.956,102.77,107.584,110.163,114.977,119.597,122.49,126.916,129.495,132.387,137.774,140.667,142.783,145.362,150.37,155.378,157.898,165.022,166.944,171.758,173.68,180.804,182.726,186.626,191.426,193.946,198.372,201.07,205.884,208.582,213.443,218.423,222.849,227.663,232.671,237.864,242.724,245.244,250.058,254.484,259.344,261.444,263.964,270.745,275.545,278.064,282.925,287.304,292.165" svgx:width="0.56,0.21,0.5,0.52,0.52,0.56,0.27,0.21,0.52,0.27,0.29,0.52,0.52,0.27,0.52,0.5,0.31,0.48,0.27,0.31,0.58,0.31,0.23,0.27,0.54,0.54,0.27,0.77,0.21,0.52,0.21,0.77,0.21,0.42,0.52,0.27,0.48,0.29,0.52,0.29,0.52,0.54,0.48,0.52,0.54,0.56,0.52,0.27,0.52,0.48,0.52,0.23,0.27,0.73,0.52,0.27,0.52,0.48,0.52,0.56" style="fill:rgb(0,0,0);font-family:AkzidenzGroteskBE-Regular;font-size:9.24px;stroke:none;">placed in the ears [5]. To minimize stethoscope use, we used</text>
   <text y="373.559" x="56.82,61.441,63.721,68.915,73.924,76.817,79.516,84.137,89.331,91.254,96.069,98.349,103.164,107.979,113.173,115.872,118.571,120.494,125.688,130.308,132.231,134.571,141.502" svgx:width="0.5,0.27,0.56,0.54,0.31,0.29,0.5,0.56,0.21,0.52,0.27,0.52,0.52,0.56,0.29,0.29,0.21,0.56,0.5,0.21,0.27,0.75,0.81" style="fill:rgb(0,0,0);font-family:AkzidenzGroteskBE-Regular;font-size:9.24px;stroke:none;">a portable end-tidal CO</text>
   <text y="375.9" x="149.1,152.88" svgx:width="0.58,0.27" style="fill:rgb(0,0,0);font-family:AkzidenzGroteskBE-Regular;font-size:6.42px;stroke:none;">2 </text>
   <text y="373.56" x="154.5,159.694,164.509,167.208,172.068,176.883,179.582,184.591,187.484,189.764,194.385,198.812,201.152,203.851,208.666,213.481,215.82,217.743,222.558,224.481,227.18,229.103,233.724,235.647,237.986,245.111,249.926,252.625,257.44,262.449,267.643,269.923,272.622,277.631,279.912,284.772,289.752,294.567" svgx:width="0.56,0.52,0.29,0.52,0.52,0.29,0.54,0.31,0.27,0.5,0.48,0.27,0.29,0.52,0.52,0.27,0.21,0.52,0.21,0.29,0.21,0.5,0.21,0.27,0.77,0.52,0.29,0.52,0.54,0.56,0.27,0.29,0.54,0.27,0.52,0.54,0.52,0.29" style="fill:rgb(0,0,0);font-family:AkzidenzGroteskBE-Regular;font-size:9.24px;stroke:none;">detector as the initial method to con-</text>
   <text y="385.32" x="56.82,59.322,61.243,64.133,71.255,73.7498,74.675,77.371,80.311,84.929,89.741,94.554,99.414,104.42,109.611,112.501,117.508,122.32,127.132,131.944,133.864,138.544,140.464,142.9588,143.884,149.075,150.995,155.613,160.426,165.286,172.366,177.226,182.026,184.722,187.2168,188.202,193.208,195.71,198.2048,199.19,201.886,206.699,211.559,214.0538,214.979,219.839,224.639,229.83,234.836,237.533,240.423,245.041,249.901,254.713,259.526,264.144,266.064,268.5588,269.544,272.24,277.052,282.243,287.055,289.216,291.7108,292.635,294.796" svgx:width="0.27,0.21,0.31,0.77,0.27,0.55,0.29,0.31,0.5,0.52,0.52,0.52,0.54,0.56,0.31,0.54,0.52,0.52,0.52,0.21,0.5,0.21,0.27,0.55,0.56,0.21,0.5,0.52,0.52,0.77,0.52,0.52,0.29,0.27,0.55,0.54,0.27,0.27,0.55,0.29,0.52,0.52,0.27,0.55,0.52,0.52,0.56,0.54,0.29,0.31,0.5,0.52,0.52,0.52,0.5,0.21,0.27,0.55,0.29,0.52,0.56,0.52,0.23,0.27,0.55,0.23,0.27" style="fill:rgb(0,0,0);font-family:AkzidenzGroteskBE-Regular;font-size:9.24px;stroke:none;">firm tracheobronchial placement of the endotracheal tube. If</text>
   <text y="397.079" x="56.82,59.517,64.331,69.144,72.204,77.017,81.83,87.022,89.719,92.416,94.397,99.589,104.208,106.129,109.189,116.118" svgx:width="0.29,0.52,0.52,0.27,0.52,0.52,0.56,0.29,0.29,0.21,0.56,0.5,0.21,0.27,0.75,0.81" style="fill:rgb(0,0,0);font-family:AkzidenzGroteskBE-Regular;font-size:9.24px;stroke:none;">the end-tidal CO</text>
   <text y="399.36" x="123.6,127.38" svgx:width="0.58,0.27" style="fill:rgb(0,0,0);font-family:AkzidenzGroteskBE-Regular;font-size:6.42px;stroke:none;">2 </text>
   <text y="397.08" x="129.54,136.276,140.896,145.322,148.322,150.826,155.686,157.608,160.306,163.307,166.005,171.013,174.073,179.266,184.126,187.187,192.001,196.815,199.707,204.567,206.489,208.411,213.031,218.224,220.146,224.96,228.02,233.028,239.764,241.686,246.5,251.693,254.753,257.451,262.459,265.52,267.441,272.45,279.186,282.246,287.06,291.68,294.572" svgx:width="0.73,0.5,0.48,0.27,0.27,0.52,0.21,0.29,0.27,0.29,0.54,0.27,0.56,0.52,0.27,0.52,0.52,0.31,0.52,0.21,0.21,0.5,0.56,0.21,0.52,0.27,0.54,0.73,0.21,0.52,0.56,0.27,0.29,0.54,0.27,0.21,0.54,0.73,0.27,0.52,0.5,0.31,0.29" style="fill:rgb(0,0,0);font-family:AkzidenzGroteskBE-Regular;font-size:9.24px;stroke:none;">was felt to be unreliable owing to low car-</text>
   <text y="408.84" x="56.82,61.98,63.9,68.542,73.378,76.078,81.109,85.909,88.629,93.844,98.644,101.344,104.104,110.824,115.625,118.385,123.027,124.947,126.867,131.907,138.628,143.428,148.643,151.403,156.045,158.745,163.193,167.993,172.829,177.81,182.646,187.806,190.566,195.725,200.585,203.465,207.905,212.886,217.746,220.446,223.166,228.196,230.896,236.111,238.031,242.674,247.474,252.31,255.01,257.73,262.566,267.367,270.066,274.515,277.235,282.071,284.791,289.591,294.572" svgx:width="0.56,0.21,0.5,0.52,0.27,0.54,0.52,0.29,0.56,0.52,0.29,0.27,0.73,0.52,0.27,0.5,0.21,0.21,0.54,0.73,0.52,0.56,0.27,0.5,0.27,0.48,0.52,0.52,0.54,0.52,0.56,0.27,0.56,0.52,0.31,0.48,0.54,0.52,0.27,0.29,0.54,0.27,0.56,0.21,0.5,0.52,0.52,0.27,0.29,0.52,0.52,0.27,0.48,0.29,0.52,0.29,0.52,0.54,0.29" style="fill:rgb(0,0,0);font-family:AkzidenzGroteskBE-Regular;font-size:9.24px;stroke:none;">diac output we allowed a second person to place the stetho-</text>
   <text y="420.599" x="56.82,61.243,66.055,71.06,76.25,81.061,83.5558,86.221,91.032,95.65,98.539,103.729,105.648,110.459,115.32,120.12,124.543,127.0378,129.643,134.454,139.314,144.504,149.315,152.256,154.7508,157.355,162.545,164.464,167.354,172.165,177.025,179.725,182.2198,184.825,188.86,190.779,195.202,197.121,202.127,206.938,209.051,211.54579999999999,214.211,223.642,228.453,230.9478,233.613,238.803,240.722,245.912,248.4068,251.012,255.823,260.828,263.524,266.0188,268.623,273.483,277.863,282.724,285.2188,287.823,292.44" svgx:width="0.48,0.52,0.54,0.56,0.52,0.27,0.55,0.52,0.5,0.31,0.56,0.21,0.52,0.52,0.52,0.48,0.27,0.55,0.52,0.52,0.56,0.52,0.31,0.27,0.55,0.56,0.21,0.31,0.52,0.52,0.29,0.27,0.55,0.44,0.21,0.48,0.21,0.54,0.52,0.23,0.27,0.55,1.02,0.52,0.27,0.55,0.56,0.21,0.56,0.27,0.55,0.52,0.54,0.29,0.27,0.55,0.52,0.48,0.52,0.27,0.55,0.5,0.52" style="fill:rgb(0,0,0);font-family:AkzidenzGroteskBE-Regular;font-size:9.24px;stroke:none;">scope earpieces under direct vision. We did not use an</text>
   <text y="432.299" x="56.82,61.63,66.051,71.054,76.243,81.052,85.668,90.856,95.665,100.281,102.198,104.69279999999999,106.518,111.706,116.566,119.26,124.069,128.878,131.572,136.575,139.463,141.9578,143.722,148.911,153.72,157.753,159.671,164.531,169.331,171.8258,173.591,178.779,183.588,188.398,193.013,197.874,202.313,207.123,209.6178,211.382,216.386,218.885,221.3798,223.205,225.122,229.932,232.431,237.241,242.05,244.743,246.661,251.664,256.474,258.9688,260.733,265.593,270.574,275.383,280.243,285.053,287.94,292.801" svgx:width="0.52,0.48,0.54,0.56,0.52,0.5,0.56,0.52,0.5,0.21,0.27,0.55,0.56,0.52,0.29,0.52,0.52,0.29,0.54,0.31,0.27,0.55,0.56,0.52,0.44,0.21,0.52,0.52,0.27,0.55,0.56,0.52,0.52,0.5,0.52,0.48,0.52,0.27,0.55,0.54,0.27,0.27,0.55,0.21,0.52,0.27,0.52,0.52,0.29,0.21,0.54,0.52,0.27,0.55,0.52,0.54,0.52,0.52,0.52,0.31,0.52,0.48" style="fill:rgb(0,0,0);font-family:AkzidenzGroteskBE-Regular;font-size:9.24px;stroke:none;">esophageal detector device because of infection concerns</text>
   <text y="444.059" x="56.82,63.555,65.476,68.173,72.987,75.48179999999999,77.727,82.346,87.538,92.73,94.651,98.688,100.609,105.422,110.614,113.1088,115.354,120.167,125.027,130.219,134.838,137.535,139.456,143.537,148.337,150.8318,153.077,158.269,161.209,166.022,170.447,174.872,179.685,182.577,187.39,189.88479999999998,192.13,194.827,199.834,202.3288,204.574,207.271,212.085,216.898,219.3928,221.638,226.257,228.178,231.118,237.838,242.457,246.494,248.9888,251.234,256.242,258.745,261.2398,263.425,268.105,270.5998,272.785,278.947,284.915,291.077" svgx:width="0.73,0.21,0.29,0.52,0.27,0.55,0.5,0.56,0.56,0.21,0.44,0.21,0.52,0.56,0.27,0.55,0.52,0.52,0.56,0.5,0.29,0.21,0.44,0.52,0.27,0.55,0.56,0.31,0.52,0.48,0.48,0.52,0.31,0.52,0.27,0.55,0.29,0.54,0.27,0.55,0.29,0.52,0.52,0.27,0.55,0.5,0.21,0.31,0.73,0.5,0.44,0.27,0.55,0.54,0.27,0.27,0.55,0.5,0.27,0.55,0.67,0.65,0.67,0.67" style="fill:rgb(0,0,0);font-family:AkzidenzGroteskBE-Regular;font-size:9.24px;stroke:none;">with applying negative pressure to the airway of a SARS</text>
   <text y="455.819" x="56.82,62.013,66.633,69.331,71.253,76.067,80.881,83.579" svgx:width="0.56,0.5,0.29,0.21,0.52,0.52,0.29,0.23" style="fill:rgb(0,0,0);font-family:AkzidenzGroteskBE-Regular;font-size:9.24px;stroke:none;">patient.</text>
   <text y="479.339" x="56.82,66.249,71.057,74.178,78.792,80.708,85.129,90.131,93.252,98.06,103.063,105.755,110.616,115.803,118.923,123.732,126.618,131.806,136.808,141.668,146.649,153.767,155.684,160.492,163.612,165.529,167.445,174.564,176.48,179.173,183.787,186.48,188.396,193.399,198.207,202.627,205.688,212.418,217.278,222.087,226.895,230.016,236.746,241.555,246.169,249.109,251.026,255.834,261.022,264.082,266.774,271.583,276.443,279.503,285.273,291.093" svgx:width="1.02,0.52,0.27,0.5,0.21,0.48,0.54,0.27,0.52,0.54,0.29,0.52,0.56,0.27,0.52,0.31,0.56,0.54,0.52,0.54,0.77,0.21,0.52,0.27,0.21,0.21,0.77,0.21,0.29,0.5,0.29,0.21,0.54,0.52,0.48,0.27,0.73,0.52,0.52,0.52,0.27,0.73,0.52,0.5,0.31,0.21,0.52,0.56,0.27,0.29,0.52,0.52,0.27,0.63,0.63,0.67" style="fill:rgb(0,0,0);font-family:AkzidenzGroteskBE-Regular;font-size:9.24px;stroke:none;">We also noted ergonomic limitations when wearing the PPS</text>
   <text y="491.099" x="56.82,61.243,66.055,70.866,75.677,78.858,83.475,87.898,91.018,93.714,98.525,103.336,106.517,109.018,114.023,115.942,117.862,122.867,129.6,131.519,136.33,141.521,144.022,147.142,151.953,153.873,158.49,163.35,167.773,170.469,173.358,178.363,183.553,188.365,193.37,198.56,200.479,205.096,207.598,210.778,215.395,220.207,223.327,225.246,230.057,234.737,239.897,241.816,243.735,245.654,248.35,252.43,255.55,258.246,263.251,266.432,271.622,276.239,278.158,282.838,287.649,292.461" svgx:width="0.48,0.52,0.52,0.52,0.27,0.5,0.48,0.27,0.29,0.52,0.52,0.27,0.27,0.54,0.21,0.21,0.54,0.73,0.21,0.52,0.56,0.27,0.27,0.52,0.21,0.5,0.52,0.48,0.29,0.31,0.54,0.56,0.52,0.54,0.56,0.21,0.5,0.27,0.27,0.5,0.52,0.27,0.21,0.52,0.5,0.56,0.21,0.21,0.21,0.29,0.44,0.27,0.29,0.54,0.27,0.56,0.5,0.21,0.5,0.52,0.52,0.52" style="fill:rgb(0,0,0);font-family:AkzidenzGroteskBE-Regular;font-size:9.24px;stroke:none;">such as the following: claustrophobia; an inability to balance</text>
   <text y="502.858" x="56.82,63.555,68.368,73.229,78.029,80.5238,81.929,84.869,89.669,96.793,101.8,105.88,107.8,112.613,117.805,120.2998,121.705,126.519,131.71,136.524,138.445,143.637,150.76,155.573,160.386,163.083,165.243,167.7378,169.144,175.924,180.724,182.645,187.458,192.318,194.8128,196.219,198.14,202.953,207.813,210.693,215.506,220.125,224.55,229.363,234.555,237.0498,238.455,241.153,246.013,250.826,253.3208,254.786,257.677,259.598,264.023,268.254,270.7488,272.215,277.222,279.725,282.2198,283.625,288.05,292.91,294.831" svgx:width="0.73,0.52,0.52,0.52,0.27,0.55,0.31,0.52,0.77,0.54,0.44,0.21,0.52,0.56,0.27,0.55,0.52,0.56,0.52,0.21,0.56,0.77,0.52,0.52,0.29,0.23,0.27,0.55,0.73,0.52,0.21,0.52,0.52,0.27,0.55,0.21,0.52,0.52,0.31,0.52,0.5,0.48,0.52,0.56,0.27,0.55,0.29,0.52,0.52,0.27,0.55,0.31,0.21,0.48,0.46,0.27,0.55,0.54,0.27,0.27,0.55,0.48,0.52,0.21,0.27" style="fill:rgb(0,0,0);font-family:AkzidenzGroteskBE-Regular;font-size:9.24px;stroke:none;">when removing equipment, which increased the risk of self</text>
   <text y="514.558" x="56.82,61.63,66.633,71.443,74.136,78.751,85.871,87.788,92.598,97.213,99.906,101.824,106.827,111.637,114.136,116.116,118.81,123.619,128.479,130.459,135.269,140.129,144.938,150.127,152.167,154.86,159.864,161.904,167.092,171.902,174.842,177.301,182.323,185.23,192.369,194.349,198.79,203.619,208.642,211.549,214.262,219.09,221.997,223.977,229.185,234.014,236.921,238.858,243.88,249.04,253.481,255.461,260.484,263.003,264.983,269.812,274.446,277.353,282.513,284.45,289.472,294.632" svgx:width="0.52,0.54,0.52,0.29,0.5,0.77,0.21,0.52,0.5,0.29,0.21,0.54,0.52,0.27,0.27,0.29,0.52,0.52,0.27,0.52,0.52,0.52,0.56,0.27,0.29,0.54,0.27,0.56,0.52,0.31,0.27,0.54,0.31,0.77,0.27,0.48,0.52,0.54,0.31,0.29,0.52,0.31,0.27,0.56,0.52,0.31,0.21,0.54,0.56,0.48,0.27,0.54,0.27,0.27,0.52,0.5,0.31,0.56,0.21,0.54,0.56,0.29" style="fill:rgb(0,0,0);font-family:AkzidenzGroteskBE-Regular;font-size:9.24px;stroke:none;">contamination; the need to perform shorter periods of cardiop-</text>
   <text y="526.318" x="56.82,61.632,63.551,70.672,75.677,80.538,85.158,88.047,92.082,95.022,97.962,102.762,107.186,111.997,116.42,121.231,123.151,125.846,130.463,133.158,135.078,140.083,144.894,147.834,150.53,155.535,158.475,163.092,167.173,172.178,174.097,179.287,182.227,187.039,191.85,196.53,199.225,202.105,204.607,209.224,211.919,213.838,219.029,223.84,228.7,231.16,234.1,238.717,243.577,248.767,251.708,254.403,259.214,264.074,266.955,271.815,276.626,281.437,286.627,289.568,292.263" svgx:width="0.52,0.21,0.77,0.54,0.52,0.5,0.31,0.44,0.27,0.31,0.52,0.48,0.52,0.48,0.52,0.21,0.29,0.5,0.29,0.21,0.54,0.52,0.27,0.29,0.54,0.27,0.5,0.44,0.54,0.21,0.56,0.27,0.52,0.52,0.5,0.29,0.27,0.27,0.5,0.29,0.21,0.56,0.52,0.52,0.27,0.27,0.5,0.52,0.56,0.27,0.29,0.52,0.52,0.27,0.52,0.52,0.52,0.56,0.27,0.29,0.54" style="fill:rgb(0,0,0);font-family:AkzidenzGroteskBE-Regular;font-size:9.24px;stroke:none;">ulmonary resuscitation to avoid heat fatigue; and the need to</text>
   <text y="538.078" x="56.82,61.634,66.254,70.292,75.106,77.146,81.766,86.58,88.621,93.435,98.055,102.481,106.519,109.217,111.915,116.923,119.621,122.125,127.133,129.055,130.977,135.985,142.721,144.761,149.954,154.962,159.388,162.086,166.9,169.792,171.832,176.841,179.4,181.44,186.642,191.466,196.668,201.648,208.393,213.216,215.148,219.971,225.173,227.213,232.373,234.293,238.922,243.745,248.569,253.771,255.811,260.791,265.592,267.632,270.339,275.162,279.986,282.026,288.771,293.4,295.331" svgx:width="0.52,0.5,0.44,0.52,0.27,0.5,0.52,0.27,0.52,0.5,0.48,0.44,0.29,0.29,0.54,0.29,0.27,0.54,0.21,0.21,0.54,0.73,0.27,0.56,0.54,0.48,0.29,0.52,0.31,0.27,0.54,0.27,0.27,0.56,0.52,0.56,0.54,0.73,0.52,0.21,0.52,0.56,0.27,0.56,0.21,0.5,0.52,0.52,0.56,0.27,0.54,0.52,0.27,0.29,0.52,0.52,0.27,0.73,0.5,0.21,0.21" style="fill:rgb(0,0,0);font-family:AkzidenzGroteskBE-Regular;font-size:9.24px;stroke:none;">have an easy-to-follow poster of degowning placed on the wall</text>
   <text y="549.837" x="56.82,59.525,64.505,67.025,71.651,75.696,80.71,82.639,87.838,90.298,97.428,102.055,106.293,108.221,113.042,118.241,120.761,125.582,128.48,131.379,136.393,139.292,143.724,146.244,151.404,156.264,159.163,161.091,165.911,171.111,173.63,176.335,181.156,185.976,188.496,193.695,198.516,203.715,208.695,215.438,220.258,222.187,227.007,232.207,234.666,239.866,242.764,247.779,252.599,257.42,261.852,266.285" svgx:width="0.29,0.54,0.27,0.5,0.44,0.54,0.21,0.56,0.27,0.77,0.5,0.46,0.21,0.52,0.56,0.27,0.52,0.31,0.31,0.54,0.31,0.48,0.27,0.56,0.52,0.31,0.21,0.52,0.56,0.27,0.29,0.52,0.52,0.27,0.56,0.52,0.56,0.54,0.73,0.52,0.21,0.52,0.56,0.27,0.56,0.31,0.54,0.52,0.52,0.48,0.48,0.23" style="fill:rgb(0,0,0);font-family:AkzidenzGroteskBE-Regular;font-size:9.24px;stroke:none;">to avoid making errors during the degowning process.</text>
   <text y="573.48" x="56.82,63.15,70.466,75.61,81.94,84.76,92.275,97.42,102.754,104.932,107.508,109.685,114.432,119.178,121.754,123.932,129.077,134.221" svgx:width="0.67,0.77,0.54,0.67,0.29,0.79,0.54,0.56,0.23,0.27,0.23,0.5,0.5,0.27,0.23,0.54,0.54,0.48" style="fill:rgb(0,0,0);font-family:AkzidenzGroteskBE-It;font-size:9.48px;stroke:none;">ACLS modifications</text>
   <text y="585.06" x="56.82,62.598,67.609,71.988,73.908,76.609,78.589,82.63,87.447,90.148,95.343,98.238,103.055,107.484,111.913,116.729,119.624,124.441,126.9358,129.061,133.102,137.919,142.735,145.436,147.361,149.286,153.908,156.609,158.534,163.545,168.362,170.8568,172.98,179.73,184.365,188.745,191.2398,193.425,198.585,203.445,206.352,213.491,215.427,218.14,220.853,225.682,230.89,233.38479999999998,235.51,240.49,245.35,247.287,251.34,253.8348,255.96,261.167,265.22,267.7148,269.84,276.591,283.491,292.94" svgx:width="0.63,0.54,0.48,0.21,0.29,0.21,0.44,0.52,0.29,0.56,0.31,0.52,0.48,0.48,0.52,0.31,0.52,0.27,0.55,0.44,0.52,0.52,0.29,0.21,0.21,0.5,0.29,0.21,0.54,0.52,0.27,0.55,0.73,0.5,0.48,0.27,0.55,0.56,0.52,0.31,0.77,0.21,0.29,0.29,0.52,0.56,0.27,0.55,0.54,0.52,0.21,0.44,0.27,0.55,0.56,0.44,0.27,0.55,0.73,0.75,1.02,0.48" style="fill:rgb(0,0,0);font-family:AkzidenzGroteskBE-Regular;font-size:9.24px;stroke:none;">Positive-pressure ventilation was permitted only by HCWs</text>
   <text y="596.82" x="56.82,63.555,68.368,72.987,75.927,77.848,82.662,87.853,90.914,93.611,98.424,103.237,106.297,112.118,117.878,124.04,126.155,129.215,134.223,139.23,142.29,149.413,151.334,156.147,158.068,165.191,167.112,171.013,175.813,178.873,181.57,186.383,191.244,194.304,199.117,202.775,207.967,212.974,217.399,222.212,225.103,229.964,233.024,238.031,240.534,243.595,250.33,257.259,266.692,271.117,274.177,276.874,281.881,284.942,287.639,292.452" svgx:width="0.73,0.52,0.5,0.31,0.21,0.52,0.56,0.27,0.29,0.52,0.52,0.27,0.63,0.63,0.67,0.23,0.27,0.54,0.54,0.27,0.77,0.21,0.52,0.21,0.77,0.21,0.42,0.52,0.27,0.29,0.52,0.52,0.27,0.52,0.4,0.56,0.54,0.48,0.52,0.31,0.52,0.27,0.54,0.27,0.27,0.73,0.75,1.02,0.48,0.27,0.29,0.54,0.27,0.29,0.52,0.52" style="fill:rgb(0,0,0);font-family:AkzidenzGroteskBE-Regular;font-size:9.24px;stroke:none;">wearing the PPS. To minimize the exposure of HCWs to the</text>
   <text y="608.579" x="56.82,62.974,68.934,75.087,81.241,83.342,87.37,89.283,92.166,97.026,101.443,103.603,105.643,110.827,115.438,118.126,120.039,124.899,129.7,132.388,136.805,138.905,141.788,146.593,151.398,156.258,158.171,162.199,167.004,172.188,174.288,178.899,180.999,185.804,190.609,195.469,198.352,203.351,210.465,215.326,219.742,224.603,229.407,231.32,235.931,238.814,240.914,246.098,248.01,253.009,257.869,262.092,266.952,269.835,271.935,277.119,281.979,284.474,289.473,292.356" svgx:width="0.67,0.65,0.67,0.67,0.27,0.44,0.21,0.31,0.52,0.48,0.23,0.27,0.56,0.5,0.29,0.21,0.52,0.52,0.29,0.48,0.27,0.31,0.52,0.52,0.52,0.21,0.44,0.52,0.56,0.27,0.5,0.27,0.52,0.52,0.52,0.31,0.54,0.77,0.52,0.48,0.52,0.52,0.21,0.5,0.31,0.27,0.56,0.21,0.54,0.52,0.46,0.52,0.31,0.27,0.56,0.52,0.27,0.54,0.31,0.52" style="fill:rgb(0,0,0);font-family:AkzidenzGroteskBE-Regular;font-size:9.24px;stroke:none;">SARS virus, patients received a neuromuscular blocker before</text>
   <text y="620.339" x="56.82,58.741,63.554,66.251,71.064,76.256,80.875,83.573,85.494,90.501,95.314,97.429" svgx:width="0.21,0.52,0.29,0.52,0.56,0.5,0.29,0.21,0.54,0.52,0.23,0.27" style="fill:rgb(0,0,0);font-family:AkzidenzGroteskBE-Regular;font-size:9.24px;stroke:none;">intubation. </text>
   <text y="620.339" x="99.78,102.24,107.281,109.74,114.18,116.28,118.8,123.78" svgx:width="0.27,0.54,0.29,0.48,0.23,0.27,0.54,0.29" style="fill:rgb(0,0,0);font-family:AkzidenzGroteskBE-It;font-size:9.24px;stroke:none;">In situ </text>
   <text y="620.339" x="126.3,128.223,133.038,135.737,138.63,143.251,147.331,152.146,156.961,161.97,166.785,171.212,173.493,178.114,182.928,187.789,192.589,197.016,201.443,203.723,210.46,215.081,219.508,221.788,226.409,231.603,236.797,241.612,246.805,249.086,251.785,256.794,259.133,261.832,266.647,271.462,273.743,278.937,281.83,286.839,289.538,294.547" svgx:width="0.21,0.52,0.29,0.31,0.5,0.44,0.52,0.52,0.54,0.52,0.48,0.27,0.5,0.52,0.52,0.52,0.48,0.48,0.27,0.73,0.5,0.48,0.27,0.5,0.56,0.56,0.52,0.56,0.27,0.29,0.54,0.27,0.29,0.52,0.52,0.27,0.56,0.31,0.54,0.29,0.54,0.29" style="fill:rgb(0,0,0);font-family:AkzidenzGroteskBE-Regular;font-size:9.24px;stroke:none;">intravenous access was added to the proto-</text>
   <text y="632.099" x="56.82,61.641,66.657,68.586,70.986,73.691,78.707,81.106,85.928,89.594,94.754,99.554,104.754,106.684,109.389,114.211,116.67,121.871,124.77,129.591,134.792,137.191,142.392,147.213,149.142,151.072,155.117,159.938,162.838,166.883,169.007,171.42,177.96,182.966,185.426,190.617,193.507,198.32,203.511,207.935,210.394,217.128,221.941,224.831,229.643,232.043,237.234,242.046,244.936,252.058,253.979,256.675,259.371,264.183,269.374,271.834,275.87,277.79,282.408,284.868,287.564,292.376" svgx:width="0.52,0.54,0.21,0.27,0.29,0.54,0.27,0.52,0.4,0.56,0.52,0.56,0.21,0.29,0.52,0.27,0.56,0.31,0.52,0.56,0.27,0.56,0.52,0.21,0.21,0.44,0.52,0.31,0.44,0.23,0.27,0.71,0.54,0.27,0.56,0.31,0.52,0.56,0.48,0.27,0.73,0.52,0.31,0.52,0.27,0.56,0.52,0.31,0.77,0.21,0.29,0.29,0.52,0.56,0.27,0.44,0.21,0.5,0.27,0.29,0.52,0.52" style="fill:rgb(0,0,0);font-family:AkzidenzGroteskBE-Regular;font-size:9.24px;stroke:none;">col to expedite drug delivery. No drugs were permitted via the</text>
   <text y="643.859" x="56.82,61.625,66.43,71.613,76.612,79.301,82.241,86.861,91.666,96.471,101.331,105.942,107.854,110.374,113.063,117.868,123.051,127.912" svgx:width="0.52,0.52,0.56,0.54,0.29,0.31,0.5,0.52,0.52,0.52,0.5,0.21,0.27,0.29,0.52,0.56,0.52,0.23" style="fill:rgb(0,0,0);font-family:AkzidenzGroteskBE-Regular;font-size:9.24px;stroke:none;">endotracheal tube.</text>
   <text y="667.5" x="56.82,62.758,66.914,69.098,71.681,73.865,79.016,84.168,86.928,89.51,94.61,99.562,102.322,107.474,112.227,114.809,116.993,121.946,127.097,129.679,132.439,135.42,140.52,145.671" svgx:width="0.63,0.44,0.23,0.27,0.23,0.54,0.54,0.29,0.27,0.54,0.52,0.29,0.54,0.5,0.27,0.23,0.52,0.54,0.27,0.29,0.31,0.54,0.54,0.79" style="fill:rgb(0,0,0);font-family:AkzidenzGroteskBE-It;font-size:9.48px;stroke:none;">Exiting the patient room</text>
   <text y="679.08" x="56.82,63.36,68.16,71.04,72.96,77.796,82.955,85.116,90.876,95.736,100.377,104.757,109.592,111.693,117.101,119.261,125.981,130.842,132.942,137.742,142.782,145.502,150.302,155.516,157.616,160.336,165.171,169.812,172.532,174.632,179.661,184.44,189.256,194.072,196.172,198.872,203.688,208.504,210.664,215.286,218.18,221.074,225.89,230.318,233.018,235.178,237.878,242.694,247.315,254.441,256.602,261.761,264.701,269.517,273.945,278.373,283.189,288.348,290.509,292.433" svgx:width="0.71,0.52,0.31,0.21,0.52,0.56,0.27,0.63,0.52,0.5,0.48,0.52,0.27,0.58,0.27,0.73,0.52,0.27,0.52,0.54,0.29,0.52,0.56,0.27,0.29,0.52,0.5,0.29,0.27,0.54,0.52,0.52,0.52,0.27,0.29,0.52,0.52,0.27,0.5,0.31,0.31,0.52,0.48,0.29,0.27,0.29,0.52,0.5,0.77,0.27,0.56,0.31,0.52,0.48,0.48,0.52,0.56,0.27,0.21,0.52" style="fill:rgb(0,0,0);font-family:AkzidenzGroteskBE-Regular;font-size:9.24px;stroke:none;">During Phase 1 we noted that once the arrest team dressed in</text>
   <text y="690.84" x="56.82,59.515,64.327,69.138,71.898,77.67,83.442,89.603,92.303,97.163,101.963,104.658,109.47,112.41,117.21,122.4,125.16,127.855,132.667,137.478,140.238,143.127,148.132,153.138,160.259,162.959,167.576,172.387,177.578,180.277,185.468,190.279,195.469,200.086,204.897,207.657,210.547,215.358,219.781,224.592,229.016,233.827,235.746,238.441,243.059,245.754,247.673,252.678,257.49,259.65,262.35,265.045,269.856,274.717,277.417,279.336,284.147,286.066,288.762,290.681,295.298" svgx:width="0.29,0.52,0.52,0.27,0.63,0.63,0.67,0.27,0.52,0.52,0.29,0.52,0.31,0.52,0.56,0.27,0.29,0.52,0.52,0.27,0.31,0.54,0.54,0.77,0.27,0.5,0.52,0.56,0.27,0.56,0.52,0.56,0.5,0.52,0.27,0.31,0.52,0.48,0.52,0.48,0.52,0.21,0.29,0.5,0.29,0.21,0.54,0.52,0.23,0.27,0.29,0.52,0.52,0.27,0.21,0.52,0.21,0.29,0.21,0.5,0.21" style="fill:rgb(0,0,0);font-family:AkzidenzGroteskBE-Regular;font-size:9.24px;stroke:none;">the PPS entered the room and began resuscitation, the initial</text>
   <text y="702.599" x="56.82,63.553,70.48,79.912,84.335,86.556,88.475,93.287,95.508,98.203,103.014,107.826,110.047,112.936,117.978,122.983,130.104,132.326,139.059,140.978,143.673,148.534,153.54,158.401,161.096,163.257,167.875,170.096,175.917,181.678,187.839,190.0,196.781,201.582,204.472,209.333,211.494,216.111,218.806,221.028,223.917,225.836,230.259,234.489,236.602,238.823,245.556,252.483,261.915,266.338,268.559,275.292,277.212,279.907,284.768,289.773,294.585" svgx:width="0.73,0.75,1.02,0.48,0.27,0.21,0.52,0.27,0.29,0.52,0.52,0.27,0.31,0.54,0.54,0.77,0.27,0.73,0.21,0.29,0.52,0.54,0.52,0.29,0.27,0.5,0.27,0.63,0.63,0.67,0.27,0.73,0.52,0.31,0.52,0.27,0.5,0.29,0.27,0.31,0.21,0.48,0.46,0.23,0.27,0.73,0.75,1.02,0.48,0.27,0.73,0.21,0.29,0.52,0.54,0.52,0.29" style="fill:rgb(0,0,0);font-family:AkzidenzGroteskBE-Regular;font-size:9.24px;stroke:none;">HCWs in the room without a PPS were at risk. HCWs without</text>
   <text y="714.359" x="56.82,61.431,63.925799999999995,65.75,71.516,77.282,83.436,85.9308,87.756,94.482,99.342,102.225,107.03,109.5248,111.35,114.039,118.844,123.648,126.588,131.393,133.888,138.887,141.827,146.632,149.1268,150.952,152.864,157.669,162.086,164.775,167.657,172.462,177.322,180.022,184.827,190.08,192.5748,194.34,197.045,202.061,204.5558,206.38,211.581,216.596,221.03,222.959,225.664,227.594,232.609,237.431,239.9258,241.69,244.396,249.217,254.039,261.17,265.603,270.425,272.354,276.399,281.221,285.654,288.1488,289.914,294.541" svgx:width="0.5,0.27,0.55,0.63,0.63,0.67,0.27,0.55,0.73,0.52,0.31,0.52,0.27,0.55,0.29,0.52,0.52,0.31,0.52,0.27,0.54,0.31,0.52,0.27,0.55,0.21,0.52,0.48,0.29,0.31,0.52,0.52,0.29,0.52,0.56,0.27,0.55,0.29,0.54,0.27,0.55,0.56,0.54,0.48,0.21,0.29,0.21,0.54,0.52,0.27,0.55,0.29,0.52,0.52,0.77,0.48,0.52,0.21,0.44,0.52,0.48,0.27,0.55,0.5,0.29" style="fill:rgb(0,0,0);font-family:AkzidenzGroteskBE-Regular;font-size:9.24px;stroke:none;">a PPS were therefore instructed to position themselves at</text>
   <text y="91.559" x="315.3,317.229,322.051,326.678,331.111,333.817,336.3118,338.317,343.711,346.2058,348.211,355.342,357.8368,359.842,362.354,365.253,370.269,377.4,379.8948,381.9,384.605,389.427,394.248,396.7428,398.748,403.948,408.576,411.281,413.261,418.083,422.904,425.61,428.1048,430.11,435.31,440.04,442.93,444.85,449.71,454.87,457.3648,459.37,464.561,469.567,473.991,475.911,478.607,480.588,484.624,489.436,492.132,497.323,500.213,505.026,509.45,513.874,518.686,521.626,526.426,528.9208000000001,530.926,535.544,537.464,540.355,547.135,551.753" svgx:width="0.21,0.52,0.5,0.48,0.29,0.27,0.55,0.58,0.27,0.55,0.77,0.27,0.55,0.27,0.31,0.54,0.77,0.27,0.55,0.29,0.52,0.52,0.27,0.55,0.56,0.5,0.29,0.21,0.52,0.52,0.29,0.27,0.55,0.56,0.52,0.31,0.21,0.52,0.56,0.27,0.55,0.56,0.54,0.48,0.21,0.29,0.21,0.44,0.52,0.29,0.56,0.31,0.52,0.48,0.48,0.52,0.31,0.52,0.27,0.55,0.5,0.21,0.31,0.73,0.5,0.44" style="fill:rgb(0,0,0);font-family:AkzidenzGroteskBE-Regular;font-size:9.24px;stroke:none;">least 2 m from the patient during positive-pressure airway</text>
   <text y="103.319" x="315.3,322.431,327.059,331.88,333.809,338.969,343.829,345.759,350.386,353.091,355.021,360.036,364.858" svgx:width="0.77,0.5,0.52,0.21,0.56,0.52,0.21,0.5,0.29,0.21,0.54,0.52,0.23" style="fill:rgb(0,0,0);font-family:AkzidenzGroteskBE-Regular;font-size:9.24px;stroke:none;">manipulation.</text>
   <text y="126.96" x="315.3,317.874,323.017,325.591,330.534,335.279,337.853,340.029,345.172,350.314,353.074,357.819,362.962,368.105,370.678,373.65,378.793,380.969,383.729,388.274,392.82,394.996,397.171,399.347" svgx:width="0.27,0.54,0.27,0.52,0.5,0.27,0.23,0.54,0.54,0.29,0.5,0.54,0.54,0.27,0.31,0.54,0.23,0.29,0.48,0.48,0.23,0.23,0.23,0.48" style="fill:rgb(0,0,0);font-family:AkzidenzGroteskBE-It;font-size:9.48px;stroke:none;">Infection control skills</text>
   <text y="138.54" x="315.3,321.9,326.7,329.592,331.514,336.328,341.521,344.0158,345.001,347.699,352.559,357.373,359.8678,360.853,365.279,367.201,374.325,379.139,381.061,385.681,388.379,390.301,395.309,400.123,404.549,407.0438,408.029,409.951,412.649,415.1438,416.129,421.322,426.136,430.996,435.616,442.74,447.554,450.04879999999997,451.034,455.654,460.847,466.039,470.659,473.6,478.414,483.228,485.926,488.4208,489.405,492.104,496.964,501.584,504.282,506.7768,507.762,514.886,519.506,524.32,528.4,530.8948,531.88,536.306,541.12,545.934,553.058" svgx:width="0.71,0.52,0.31,0.21,0.52,0.56,0.27,0.55,0.29,0.52,0.52,0.27,0.55,0.48,0.21,0.77,0.52,0.21,0.5,0.29,0.21,0.54,0.52,0.48,0.27,0.55,0.21,0.29,0.27,0.55,0.56,0.52,0.52,0.5,0.77,0.52,0.27,0.55,0.5,0.56,0.56,0.5,0.31,0.52,0.52,0.29,0.27,0.55,0.29,0.52,0.5,0.29,0.27,0.55,0.77,0.5,0.52,0.44,0.27,0.55,0.48,0.52,0.52,0.77,0.29" style="fill:rgb(0,0,0);font-family:AkzidenzGroteskBE-Regular;font-size:9.24px;stroke:none;">During the simulations it became apparent that many seem-</text>
   <text y="150.3" x="315.3,317.223,322.083,327.277,329.2,333.239,335.7338,337.319,341.746,343.669,350.794,355.987,357.91,362.771,365.2658,366.851,371.472,376.287,378.986,380.909,385.918,390.733,395.16,397.6548,399.24,404.434,409.249,412.142,414.065,418.925,424.085,426.5798,428.165,431.105,435.905,443.03,448.039,452.078,456.699,458.622,461.1168,462.702,467.711,470.216,472.7108,474.297,476.996,481.856,486.671,489.1658,490.751,496.527,502.347,508.511,511.0058,512.592,519.329,524.144,527.084,531.884,534.3788000000001,535.964,543.089,548.098,550.991" svgx:width="0.21,0.52,0.56,0.21,0.44,0.27,0.55,0.48,0.21,0.77,0.56,0.21,0.52,0.27,0.55,0.5,0.52,0.29,0.21,0.54,0.52,0.48,0.27,0.55,0.56,0.52,0.31,0.21,0.52,0.56,0.27,0.55,0.31,0.52,0.77,0.54,0.44,0.5,0.21,0.27,0.55,0.54,0.27,0.27,0.55,0.29,0.52,0.52,0.27,0.55,0.63,0.63,0.67,0.27,0.55,0.73,0.52,0.31,0.52,0.27,0.55,0.77,0.54,0.31,0.52" style="fill:rgb(0,0,0);font-family:AkzidenzGroteskBE-Regular;font-size:9.24px;stroke:none;">ingly simple actions during removal of the PPS were more</text>
   <text y="162.059" x="315.3,320.16,325.141,332.264,337.456,339.377,341.298,346.111,350.73,353.427,358.24,363.432,365.9268,370.272,372.97,377.783,382.402,387.215,389.7098,394.055,398.868,402.526,407.718,412.531,417.345,420.042,424.902,430.062,432.5568,436.902,441.521,446.334,451.526,454.0208,458.306,463.167,467.787,472.979,475.4738,479.819,485.011,489.824,494.637,499.45,501.9448,506.291,508.212,513.025,517.644,522.836,527.649,532.841,537.654,542.273,544.97,549.83,551.751" svgx:width="0.52,0.54,0.77,0.56,0.21,0.21,0.52,0.5,0.29,0.52,0.56,0.27,0.55,0.29,0.52,0.5,0.52,0.27,0.55,0.52,0.4,0.56,0.52,0.52,0.29,0.52,0.56,0.27,0.55,0.5,0.52,0.56,0.27,0.55,0.52,0.5,0.56,0.27,0.55,0.56,0.52,0.52,0.52,0.27,0.55,0.21,0.52,0.5,0.56,0.52,0.56,0.52,0.5,0.29,0.52,0.21,0.44" style="fill:rgb(0,0,0);font-family:AkzidenzGroteskBE-Regular;font-size:9.24px;stroke:none;">complicated than expected and had been inadequately</text>
   <text y="173.819" x="315.3,320.488,325.298,329.719,334.528,337.469,339.389,344.577,349.437,354.625,356.786,359.366,365.33,370.19,372.77,377.579,381.234,385.849,392.969,398.157,400.074,404.884,407.463,414.244,418.864,423.285,425.865,428.558,433.368,438.177,440.817,446.005,447.923,450.422,452.921,454.839,459.648,464.458,466.375,469.068,473.149,475.728,477.646,482.455,485.095,487.983,492.792,499.911,504.915,508.948,510.865,515.675,520.863,523.443,526.136,530.946,535.806,538.386,543.195,548.199,553.008" svgx:width="0.56,0.52,0.48,0.52,0.31,0.21,0.56,0.52,0.56,0.23,0.27,0.65,0.52,0.27,0.52,0.4,0.5,0.77,0.56,0.21,0.52,0.27,0.73,0.5,0.48,0.27,0.29,0.52,0.52,0.27,0.56,0.21,0.27,0.27,0.21,0.52,0.52,0.21,0.29,0.44,0.27,0.21,0.52,0.27,0.31,0.52,0.77,0.54,0.44,0.21,0.52,0.56,0.27,0.29,0.52,0.52,0.27,0.52,0.54,0.52,0.29" style="fill:rgb(0,0,0);font-family:AkzidenzGroteskBE-Regular;font-size:9.24px;stroke:none;">described. An example was the difficulty in removing the con-</text>
   <text y="185.579" x="315.3,318.001,322.624,329.75,331.675,336.492,341.115,343.816,348.632,353.828,355.928,360.939,365.756,368.457,373.274,376.168,378.329,383.524,388.147,390.072,392.967,395.067,400.078,402.585,404.745,409.941,411.865,416.876,420.917,425.734,430.162,432.3,439.02,440.94,443.656,448.457,453.483,458.283,461.0,463.1,467.933,472.913,477.746,480.462,485.101,492.18,494.1,498.961,503.599,506.316,508.236,513.036,518.247,520.348,523.064,527.864,532.697,534.797,539.597,541.517,546.35,550.988" svgx:width="0.29,0.5,0.77,0.21,0.52,0.5,0.29,0.52,0.56,0.27,0.54,0.52,0.29,0.52,0.31,0.27,0.56,0.5,0.21,0.31,0.27,0.54,0.27,0.27,0.56,0.21,0.54,0.44,0.52,0.48,0.27,0.73,0.21,0.29,0.52,0.54,0.52,0.29,0.27,0.52,0.54,0.52,0.29,0.5,0.77,0.21,0.52,0.5,0.29,0.21,0.52,0.56,0.27,0.29,0.52,0.52,0.27,0.52,0.21,0.52,0.5,0.52" style="fill:rgb(0,0,0);font-family:AkzidenzGroteskBE-Regular;font-size:9.24px;stroke:none;">taminated outer pair of gloves without contaminating the clean</text>
   <text y="197.339" x="315.3,317.221,322.081,326.894,331.707,334.648,337.888,343.08,347.699,349.62,352.511,355.0058,355.811,360.818,363.321,365.8158,366.621,371.813,373.734,378.741,382.778,387.591,392.016,394.131,397.371,404.872,409.88,414.305,417.002,420.242,422.163,427.023,431.449,434.16,437.1,441.904,446.708,449.395,451.307,456.305,461.109,465.525,468.0198,468.824,475.938,480.798,483.68,488.484,490.396,494.476,497.717,499.629,504.489,508.905,511.593,514.533,519.337,524.141,526.828,529.3228,530.128,535.126,539.986,544.79,547.2848,548.09,550.778" svgx:width="0.21,0.52,0.52,0.52,0.31,0.27,0.56,0.5,0.21,0.31,0.27,0.55,0.54,0.27,0.27,0.55,0.56,0.21,0.54,0.44,0.52,0.48,0.23,0.27,0.81,0.54,0.48,0.29,0.27,0.21,0.52,0.48,0.29,0.31,0.52,0.52,0.29,0.21,0.54,0.52,0.48,0.27,0.55,0.77,0.52,0.31,0.52,0.21,0.44,0.27,0.21,0.52,0.48,0.29,0.31,0.52,0.52,0.29,0.27,0.55,0.54,0.52,0.52,0.27,0.55,0.29,0.54" style="fill:rgb(0,0,0);font-family:AkzidenzGroteskBE-Regular;font-size:9.24px;stroke:none;">inner pair of gloves. Most instructions merely instruct one to</text>
   <text y="209.038" x="315.3,317.22,320.16,324.96,332.1,337.081,341.161,345.961,348.481,351.203,356.003,360.841,363.361,368.578,370.498,375.478,379.499,384.337,388.787,390.707,392.807,395.327,400.359,405.159,409.959,412.479,417.317,422.477,427.315,432.115,436.759,439.481,441.401,446.382,451.22,453.739,458.383,463.184,468.4,470.92,472.84,477.64,480.169,484.969,489.807,492.529,494.449,499.429,504.267,506.787,511.587,516.628,521.428,524.128,527.008,532.048,533.968,536.488,539.21,544.01,548.655" svgx:width="0.21,0.31,0.52,0.77,0.54,0.44,0.52,0.27,0.29,0.52,0.52,0.27,0.56,0.21,0.54,0.44,0.52,0.48,0.21,0.23,0.27,0.54,0.52,0.52,0.27,0.52,0.56,0.52,0.52,0.5,0.29,0.21,0.54,0.52,0.27,0.5,0.52,0.56,0.27,0.21,0.52,0.27,0.52,0.52,0.29,0.21,0.54,0.52,0.27,0.52,0.54,0.52,0.29,0.31,0.54,0.21,0.27,0.29,0.52,0.5,0.77" style="fill:rgb(0,0,0);font-family:AkzidenzGroteskBE-Regular;font-size:9.24px;stroke:none;">'remove the gloves'. The education and infection control team</text>
   <text y="220.798" x="315.3,319.725,321.646,328.769,333.582,335.503,340.183,342.88,347.694,352.885,355.046,359.859,363.939,368.752,371.644,375.724,377.824,382.249,384.946,389.807,394.966,397.127,402.134,404.637,406.797,409.494,414.307,419.168,421.268,426.46,429.351,434.164,438.589,443.014,444.935,449.748,454.94,457.101,461.72,466.533,471.725,473.825,478.685,483.485,488.677,491.569,496.382,500.807,505.232,507.153,511.966,517.158,519.318,522.015,527.022,529.183,533.996,538.809,543.234,548.094,550.974" svgx:width="0.48,0.21,0.77,0.52,0.21,0.5,0.29,0.52,0.56,0.27,0.52,0.44,0.52,0.31,0.44,0.27,0.48,0.29,0.52,0.56,0.27,0.54,0.27,0.27,0.29,0.52,0.52,0.27,0.56,0.31,0.52,0.48,0.48,0.21,0.52,0.56,0.27,0.5,0.52,0.56,0.27,0.52,0.52,0.56,0.31,0.52,0.48,0.48,0.21,0.52,0.56,0.27,0.29,0.54,0.27,0.52,0.52,0.48,0.52,0.31,0.52" style="fill:rgb(0,0,0);font-family:AkzidenzGroteskBE-Regular;font-size:9.24px;stroke:none;">simulated every step of the dressing and undressing to ensure</text>
   <text y="232.558" x="315.3,319.725,324.344,326.847,331.66,334.357,338.394,340.8888,342.295,346.914,351.727,356.919,359.4138,360.879,365.692,367.613,372.232,375.123,377.044,379.742,383.779,385.894,388.3888,389.854,394.473,399.286,404.478,406.9728,408.438,411.135,415.948,420.762,425.575,428.0698,429.54,433.979,438.806,441.711,443.645,448.805,451.505,456.332,461.492,463.9868,465.452,470.085,474.912,480.118,482.6128,484.018,489.224,494.051,499.072,501.783,506.763,511.983,514.888,519.521,524.726,529.553,534.38,539.586,542.0808000000001,543.486,546.197,551.024" svgx:width="0.48,0.5,0.27,0.52,0.29,0.44,0.27,0.55,0.5,0.52,0.56,0.27,0.55,0.52,0.21,0.5,0.31,0.21,0.29,0.44,0.23,0.27,0.55,0.5,0.52,0.56,0.27,0.55,0.29,0.52,0.52,0.52,0.27,0.55,0.48,0.52,0.31,0.21,0.56,0.29,0.52,0.56,0.27,0.55,0.5,0.52,0.56,0.27,0.55,0.56,0.52,0.54,0.29,0.54,0.56,0.31,0.5,0.56,0.52,0.52,0.56,0.27,0.55,0.29,0.52,0.52" style="fill:rgb(0,0,0);font-family:AkzidenzGroteskBE-Regular;font-size:9.24px;stroke:none;">safety and clarity, and then scripted and photographed the</text>
   <text y="244.318" x="315.3,320.5,323.4,328.415,333.237,338.058,342.491,346.925" svgx:width="0.56,0.31,0.54,0.52,0.52,0.48,0.48,0.23" style="fill:rgb(0,0,0);font-family:AkzidenzGroteskBE-Regular;font-size:9.24px;stroke:none;">process.</text>
   <text y="267.96" x="315.3,322.611,327.751,335.261,340.401,345.541,350.084,352.257,354.828,357.001,362.141,367.281,370.04,375.18,377.751,380.511,386.836,393.161,399.486,405.811,408.511,413.253,417.995,420.964,426.294,428.466,433.208,437.95,440.7,445.45,448.427,451.403,456.352,460.902,463.481,466.181,468.759,473.708,478.457,485.975,488.735,493.484,498.632,503.969,506.669,509.247,514.395,519.344,522.044,527.191,532.339,539.856,545.194,550.142,553.119" svgx:width="0.77,0.54,0.79,0.54,0.54,0.48,0.23,0.27,0.23,0.54,0.54,0.29,0.54,0.27,0.29,0.67,0.67,0.67,0.67,0.29,0.5,0.5,0.31,0.56,0.23,0.5,0.5,0.29,0.5,0.31,0.31,0.52,0.48,0.27,0.29,0.27,0.52,0.5,0.79,0.29,0.5,0.54,0.56,0.29,0.27,0.54,0.52,0.29,0.54,0.54,0.79,0.56,0.52,0.31,0.29" style="fill:rgb(0,0,0);font-family:AkzidenzGroteskBE-It;font-size:9.48px;stroke:none;">Composition of SARS cardiac arrest team and the number </text>
   <text y="279.72" x="315.3,320.443,323.017,325.776,332.891,340.205,349.69,354.235,356.995,359.569,364.712,367.471,370.045,373.017,377.762,379.937" svgx:width="0.54,0.27,0.29,0.75,0.77,1.0,0.48,0.29,0.27,0.54,0.29,0.27,0.31,0.5,0.23,0.54" style="fill:rgb(0,0,0);font-family:AkzidenzGroteskBE-It;font-size:9.48px;stroke:none;">of HCWs to train</text>
   <text y="291.3" x="315.3,320.306,325.118,329.979,332.4738,333.759,338.571,342.995,347.855,352.475,354.395,356.8898,358.175,362.988,367.668,370.558,375.749,377.669,382.349,387.161,389.6558,390.941,395.56,398.5,401.39,406.202,410.626,413.323,415.8178,417.163,419.859,424.671,429.289,436.411,438.9058,440.192,444.81,447.506,450.00079999999997,451.346,454.042,458.855,463.715,466.2098,467.495,470.191,472.111,479.233,484.046,486.5408,487.886,492.698,497.316,502.507,505.0018,506.287,513.068,517.688,520.578,525.769,528.2638000000001,529.549,534.409,539.209,542.1,546.524,551.336" svgx:width="0.54,0.52,0.52,0.27,0.55,0.52,0.48,0.52,0.5,0.21,0.27,0.55,0.52,0.5,0.31,0.56,0.21,0.5,0.52,0.27,0.55,0.5,0.31,0.31,0.52,0.48,0.29,0.27,0.55,0.29,0.52,0.5,0.77,0.27,0.55,0.5,0.29,0.27,0.55,0.29,0.52,0.52,0.27,0.55,0.29,0.21,0.77,0.52,0.27,0.55,0.52,0.5,0.56,0.27,0.55,0.73,0.5,0.31,0.56,0.27,0.55,0.52,0.52,0.31,0.48,0.52,0.48" style="fill:rgb(0,0,0);font-family:AkzidenzGroteskBE-Regular;font-size:9.24px;stroke:none;">The usual cardiac arrest team at the time had ward nurses</text>
   <text y="303.06" x="315.3,319.922,324.35,328.777,330.701,335.129,337.829,339.753,344.569,349.763,353.003,355.703,360.519,365.335,368.574,373.196,376.09,378.984,383.8,388.18,390.879,394.119,396.819,401.635,406.257,413.383,415.5,418.74,423.75,428.566,430.489,434.94,438.121,444.875,449.514,453.958,457.139,461.971,466.804,471.442,476.275,481.486,486.319,491.53,494.71,499.922,504.754,507.665,509.605,514.438,519.597,522.838,528.631,533.464,538.102,542.482,547.315,550.495" svgx:width="0.5,0.48,0.48,0.21,0.48,0.29,0.21,0.52,0.56,0.27,0.29,0.52,0.52,0.27,0.5,0.31,0.31,0.52,0.48,0.29,0.27,0.29,0.52,0.5,0.77,0.23,0.27,0.54,0.52,0.21,0.48,0.27,0.73,0.5,0.48,0.27,0.52,0.52,0.5,0.52,0.56,0.52,0.56,0.27,0.56,0.52,0.31,0.21,0.52,0.56,0.27,0.63,0.52,0.5,0.48,0.52,0.27,0.58" style="fill:rgb(0,0,0);font-family:AkzidenzGroteskBE-Regular;font-size:9.24px;stroke:none;">assisting the arrest team. This was changed during Phase 1</text>
   <text y="314.819" x="315.3,320.488,325.298,330.158,334.778,339.587,344.009,348.818,351.038,352.956,355.649,357.87,364.601,369.604,374.414,376.331,381.519,383.68,388.54,393.16,397.193,402.003,404.223,407.11,411.971,417.159,422.019,423.936,426.824,431.633,436.822,439.042,441.735,444.623,449.238,451.156,455.965,457.882,462.743,467.902,470.123,472.816,477.819,482.823,485.043,492.163,496.778,501.587,505.621,507.841,514.621,519.241,522.129,527.317,529.538,534.398,539.198,542.086,546.507,551.316" svgx:width="0.56,0.52,0.52,0.5,0.52,0.48,0.52,0.27,0.21,0.29,0.27,0.73,0.54,0.52,0.21,0.56,0.27,0.52,0.5,0.44,0.52,0.27,0.31,0.52,0.56,0.52,0.21,0.31,0.52,0.56,0.27,0.29,0.31,0.5,0.21,0.52,0.21,0.52,0.56,0.27,0.29,0.54,0.54,0.27,0.77,0.5,0.52,0.44,0.27,0.73,0.5,0.31,0.56,0.27,0.52,0.52,0.31,0.48,0.52,0.48" style="fill:rgb(0,0,0);font-family:AkzidenzGroteskBE-Regular;font-size:9.24px;stroke:none;">because it would have required training too many ward nurses</text>
   <text y="326.579" x="315.3,317.217,322.078,324.5728,325.377,328.071,332.88,337.74,340.2348,341.04,345.655,350.843,356.032,357.949,359.866,364.727,369.342,372.035,373.953,378.956,383.816,386.3108,387.116,392.119,394.619,397.1138,397.978,400.672,405.481,410.291,412.7858,413.65,416.538,421.347,426.536,431.345,433.262,436.15,441.01,446.17,448.6648,449.529,455.3,461.07,467.229,469.34,471.8348,472.699,474.811,479.62,484.042,486.735,491.544,496.16,501.348,503.459,505.9538,506.819,513.55,518.166,521.053,526.242,528.7368,529.541,534.401,539.202,542.089,546.51,551.32" svgx:width="0.21,0.52,0.27,0.55,0.29,0.52,0.52,0.27,0.55,0.5,0.56,0.56,0.21,0.21,0.52,0.5,0.29,0.21,0.54,0.52,0.27,0.55,0.54,0.27,0.27,0.55,0.29,0.52,0.52,0.27,0.55,0.31,0.52,0.56,0.52,0.21,0.31,0.52,0.56,0.27,0.55,0.63,0.63,0.67,0.23,0.27,0.55,0.23,0.52,0.48,0.29,0.52,0.5,0.56,0.23,0.27,0.55,0.73,0.5,0.31,0.56,0.27,0.55,0.52,0.52,0.31,0.48,0.52,0.48" style="fill:rgb(0,0,0);font-family:AkzidenzGroteskBE-Regular;font-size:9.24px;stroke:none;">in the application of the required PPS. Instead, ward nurses</text>
   <text y="338.339" x="315.3,322.048,326.874,329.778,334.604,337.064,339.774,342.678,347.31,349.244,354.07,358.896,364.101,366.621,371.253,375.691,378.15,383.355,386.26,391.086,395.524,399.961,401.895,406.721,411.881,414.401,419.033,423.471,427.909,429.843,434.222,436.922,441.554,446.38,449.091,453.528" svgx:width="0.73,0.52,0.31,0.52,0.27,0.29,0.31,0.5,0.21,0.52,0.52,0.56,0.27,0.5,0.48,0.27,0.56,0.31,0.52,0.48,0.48,0.21,0.52,0.56,0.27,0.5,0.48,0.48,0.21,0.48,0.29,0.5,0.52,0.29,0.48,0.23" style="fill:rgb(0,0,0);font-family:AkzidenzGroteskBE-Regular;font-size:9.24px;stroke:none;">were trained as dressing assistants.</text>
   <text y="361.98" x="315.3,322.223,327.175,332.325,337.077,339.659,341.842,346.196,351.148,353.907,359.058,361.997,366.949,371.502,376.002,381.162,384.142,389.093,391.853,394.832,399.933,405.083,412.604" svgx:width="0.73,0.52,0.54,0.5,0.27,0.23,0.46,0.52,0.29,0.54,0.31,0.52,0.48,0.48,0.54,0.31,0.52,0.29,0.31,0.54,0.54,0.79,0.48" style="fill:rgb(0,0,0);font-family:AkzidenzGroteskBE-It;font-size:9.48px;stroke:none;">Negative pressure rooms</text>
   <text y="373.56" x="315.3,324.78,329.59,334.399,339.259,341.54,344.233,349.043,353.852,356.192,361.001,365.616,368.504,373.692,375.609,380.225,385.034,387.315,391.93,394.87,397.758,402.567,406.988,409.682,411.962,418.743,423.363,427.784,430.124,434.545,436.462,443.582,448.442,450.359,454.975,457.668,462.477,467.666,469.946,471.863,476.673,478.953,483.569,485.849,490.709,495.509,500.698,505.313,508.007,509.924,513.957,518.767,521.46,526.648,529.536,534.396,538.817,543.239,548.099,550.979" svgx:width="1.02,0.52,0.52,0.52,0.27,0.29,0.52,0.52,0.27,0.52,0.5,0.31,0.56,0.21,0.5,0.52,0.27,0.5,0.31,0.31,0.52,0.48,0.29,0.27,0.73,0.5,0.48,0.27,0.48,0.21,0.77,0.52,0.21,0.5,0.29,0.52,0.56,0.27,0.21,0.52,0.27,0.5,0.27,0.52,0.52,0.56,0.5,0.29,0.21,0.44,0.52,0.29,0.56,0.31,0.52,0.48,0.48,0.52,0.31,0.52" style="fill:rgb(0,0,0);font-family:AkzidenzGroteskBE-Regular;font-size:9.24px;stroke:none;">When the cardiac arrest was simulated in a negative-pressure</text>
   <text y="385.32" x="315.3,318.24,323.221,328.261,335.401,337.74,342.737,347.597,349.937,352.624,357.427,362.287,364.627,371.352,375.961,378.842,384.023,386.128,388.528,395.253,400.056,402.455,407.258,412.255,414.942,419.802,424.984,427.384,430.071,434.874,439.483,442.2,444.541,447.234,452.094,456.904,459.791,464.601,467.0,473.732,478.541,481.481,486.282,488.622,490.539,493.233,498.042,505.162,509.583,511.923,513.841,518.701,521.042,523.735,528.544,533.405,535.745,538.633,543.636,548.64" svgx:width="0.31,0.54,0.54,0.77,0.27,0.54,0.52,0.27,0.29,0.52,0.52,0.27,0.73,0.5,0.31,0.56,0.23,0.27,0.73,0.52,0.27,0.52,0.54,0.29,0.52,0.56,0.27,0.29,0.52,0.5,0.29,0.27,0.29,0.52,0.52,0.31,0.52,0.27,0.73,0.52,0.31,0.52,0.27,0.21,0.29,0.52,0.77,0.48,0.27,0.21,0.52,0.27,0.29,0.52,0.52,0.27,0.31,0.54,0.54,0.77" style="fill:rgb(0,0,0);font-family:AkzidenzGroteskBE-Regular;font-size:9.24px;stroke:none;">room on the ward, we noted that there were items in the room</text>
   <text y="397.079" x="315.3,317.997,322.857,327.476,330.174,332.6688,333.894,338.707,343.714,348.527,350.448,355.64,358.1348,359.36,364.173,369.18,371.877,374.3718,375.597,380.789,385.65,388.1448,389.37,394.562,396.542,400.967,402.888,407.748,410.208,415.068,419.868,422.565,427.378,432.57,434.685,437.1798,438.405,442.83,447.691,452.504,457.317,459.8118,461.037,465.656,470.081,472.5758,473.801,478.661,483.642,486.533,490.764,493.2588,494.484,499.676,504.489,506.41,508.331,513.144,515.841,517.762,522.622,525.1168,526.342,531.534,536.542,541.161,544.052,549.244,553.669" svgx:width="0.29,0.52,0.5,0.29,0.27,0.55,0.52,0.54,0.52,0.21,0.56,0.27,0.55,0.52,0.54,0.29,0.27,0.55,0.56,0.52,0.27,0.55,0.56,0.21,0.48,0.21,0.52,0.27,0.52,0.52,0.29,0.52,0.56,0.23,0.27,0.55,0.48,0.52,0.52,0.52,0.27,0.55,0.5,0.48,0.27,0.55,0.52,0.54,0.31,0.46,0.27,0.55,0.56,0.52,0.21,0.21,0.52,0.29,0.21,0.52,0.27,0.55,0.56,0.54,0.5,0.31,0.56,0.48,0.23" style="fill:rgb(0,0,0);font-family:AkzidenzGroteskBE-Regular;font-size:9.24px;stroke:none;">that could not be disinfected, such as cork bulletin boards.</text>
   <text y="408.839" x="315.3,321.457,326.317,331.503,335.923,340.73,345.917,350.724,355.532,360.392,363.084,364.999,369.031,371.14,373.24,379.97,384.83,386.87,393.651,398.458,403.266,405.957,408.058,410.749,415.751,417.851,422.659,426.69,431.55,434.431,438.462,440.562,445.37,450.177,455.364,459.977,462.669,464.584,468.616,473.476,476.176,481.362,484.303,489.11,493.53,497.949,502.757,505.642,510.45,512.55,515.436,520.437,525.439,532.557,534.657,536.572,541.38,543.42,546.112,550.972" svgx:width="0.67,0.52,0.56,0.48,0.52,0.56,0.52,0.52,0.52,0.29,0.21,0.44,0.23,0.27,0.73,0.52,0.27,0.73,0.52,0.52,0.29,0.27,0.29,0.54,0.27,0.52,0.44,0.52,0.31,0.44,0.27,0.52,0.52,0.56,0.5,0.29,0.21,0.44,0.52,0.29,0.56,0.31,0.52,0.48,0.48,0.52,0.31,0.52,0.27,0.31,0.54,0.54,0.77,0.27,0.21,0.52,0.27,0.29,0.52,0.52" style="fill:rgb(0,0,0);font-family:AkzidenzGroteskBE-Regular;font-size:9.24px;stroke:none;">Subsequently, we went to every negative-pressure room in the</text>
   <text y="420.599" x="315.3,320.136,325.117,329.565,334.78,336.7,339.4,344.042,345.962,348.482,351.202,356.182,358.702,363.502,368.362,372.742,377.602,380.483,385.283,387.803,389.723,394.523,397.049,401.849,406.685,409.406,411.326,416.306,421.142,423.602,428.438,433.418,438.219,440.919,443.833,448.813,450.733,453.253,457.701,462.343,464.87,469.67,472.39,476.41" svgx:width="0.52,0.54,0.48,0.56,0.21,0.29,0.5,0.21,0.27,0.29,0.54,0.27,0.52,0.52,0.48,0.52,0.31,0.52,0.27,0.21,0.52,0.27,0.52,0.52,0.29,0.21,0.54,0.52,0.27,0.52,0.54,0.52,0.29,0.31,0.54,0.21,0.27,0.48,0.5,0.27,0.52,0.29,0.44,0.23" style="fill:rgb(0,0,0);font-family:AkzidenzGroteskBE-Regular;font-size:9.24px;stroke:none;">hospital to ensure infection control safety.</text>
   <text y="444.24" x="315.3,320.452,325.207,329.961,334.516,337.276,342.428,345.011,347.771,350.354,353.294,358.048,363.148,367.703,372.856,378.008,380.948,383.531,386.291,391.443,396.596,398.781,400.966,405.72" svgx:width="0.54,0.5,0.5,0.48,0.29,0.54,0.27,0.29,0.27,0.31,0.5,0.54,0.48,0.54,0.54,0.31,0.27,0.29,0.54,0.54,0.23,0.23,0.5,0.46" style="fill:rgb(0,0,0);font-family:AkzidenzGroteskBE-It;font-size:9.48px;stroke:none;">Lack of transport policy</text>
   <text y="455.82" x="315.3,321.9,326.7,329.588,331.505,336.315,341.503,343.603,346.296,351.157,355.966,358.066,363.255,365.172,369.787,374.597,379.457,381.377,386.186,391.375,393.475,395.974,400.978,403.865,406.026,408.719,413.529,418.338,420.498,424.92,426.837,433.956,438.817,440.734,445.349,448.043,449.96,454.963,459.773,461.873,466.877,471.686,473.786,476.48,481.34,486.149,488.25,495.03,499.65,502.537,507.726,509.837,511.937,518.718,523.518,525.618,528.506,533.366,537.981,539.898,541.816,545.664,550.474" svgx:width="0.71,0.52,0.31,0.21,0.52,0.56,0.27,0.29,0.52,0.52,0.27,0.56,0.21,0.5,0.52,0.52,0.21,0.52,0.56,0.27,0.27,0.54,0.31,0.27,0.29,0.52,0.52,0.27,0.48,0.21,0.77,0.52,0.21,0.5,0.29,0.21,0.54,0.52,0.27,0.54,0.52,0.27,0.29,0.52,0.52,0.27,0.73,0.5,0.31,0.56,0.23,0.27,0.73,0.52,0.27,0.31,0.52,0.5,0.21,0.21,0.42,0.52,0.56" style="fill:rgb(0,0,0);font-family:AkzidenzGroteskBE-Regular;font-size:9.24px;stroke:none;">During the planning for the simulation on the ward, we realized</text>
   <text y="467.58" x="315.3,318.007,322.831,327.46,330.167,332.66179999999997,333.527,336.234,341.057,345.881,348.37579999999997,349.24,356.18,362.546,368.718,371.2128,372.078,377.28,380.181,385.199,387.906,392.923,397.747,402.764,404.695,407.1898,408.055,409.986,414.615,419.438,423.68,428.503,433.705,436.1998,437.065,441.694,444.1888,445.08,449.508,454.324,457.218,459.142,464.337,467.036,471.852,477.047,479.5418,480.407,483.107,486.001,490.622,495.438,499.818,505.038,510.048,512.942,515.642,518.1368000000001,519.001,524.196,529.206,531.13,533.11,537.926,541.966,544.4608000000001,545.385,547.891,552.901" svgx:width="0.29,0.52,0.5,0.29,0.27,0.55,0.29,0.52,0.52,0.27,0.55,0.75,0.69,0.67,0.27,0.55,0.56,0.31,0.54,0.29,0.54,0.52,0.54,0.21,0.27,0.55,0.21,0.5,0.52,0.46,0.52,0.56,0.27,0.55,0.5,0.27,0.55,0.48,0.52,0.31,0.21,0.56,0.29,0.52,0.56,0.27,0.55,0.29,0.31,0.5,0.52,0.48,0.56,0.54,0.31,0.29,0.27,0.55,0.56,0.54,0.21,0.21,0.52,0.44,0.27,0.55,0.27,0.54,0.31" style="fill:rgb(0,0,0);font-family:AkzidenzGroteskBE-Regular;font-size:9.24px;stroke:none;">that the CBS protocol lacked a scripted transport policy for</text>
   <text y="479.339" x="315.3,322.421,327.427,331.462,333.381,338.192,343.382,345.603,348.298,353.109,357.92,360.141,363.03,367.841,372.265,377.125,381.548,386.408,388.327,391.023,395.64,398.335,403.147,408.337,410.497,415.687,420.304,423.0,424.919,429.73,434.59,437.286,439.5,442.015,444.917,449.935,457.069,459.23,461.938,466.762,471.586,473.747,480.493,485.123,488.025,493.228,495.389,498.097,503.115,505.275,507.984,512.808,517.632,519.852,521.979,528.919,535.286,537.412,539.572,544.591,549.415,551.347" svgx:width="0.77,0.54,0.44,0.21,0.52,0.56,0.27,0.29,0.52,0.52,0.27,0.31,0.52,0.48,0.52,0.48,0.52,0.21,0.29,0.5,0.29,0.52,0.56,0.27,0.56,0.5,0.29,0.21,0.52,0.52,0.29,0.27,0.27,0.31,0.54,0.77,0.27,0.29,0.52,0.52,0.27,0.73,0.5,0.31,0.56,0.27,0.29,0.54,0.27,0.29,0.52,0.52,0.27,0.23,0.75,0.69,0.23,0.27,0.54,0.52,0.21,0.48" style="fill:rgb(0,0,0);font-family:AkzidenzGroteskBE-Regular;font-size:9.24px;stroke:none;">moving the resuscitated patient from the ward to the ICU. This</text>
   <text y="491.099" x="315.3,320.493,325.501,327.423,329.345,334.159,338.197,340.6918,343.057,349.793,354.413,358.839,361.3338,363.639,365.561,372.685,379.809,384.623,389.816,391.738,396.358,399.056,403.87,405.792,409.872,412.3668,414.672,419.865,424.679,428.717,433.577,435.499,440.507,445.7,450.514,455.707,458.2018,460.507,462.429,467.289,469.7838,472.09,476.904,481.912,486.726,488.648,493.462,498.322,503.136,505.834,507.756,512.764,517.578,520.0728,522.378,529.159,531.079,533.777,538.591,541.0858000000001,543.391,546.089,550.949" svgx:width="0.56,0.54,0.21,0.21,0.52,0.44,0.27,0.55,0.73,0.5,0.48,0.27,0.55,0.21,0.77,0.77,0.52,0.56,0.21,0.5,0.29,0.52,0.21,0.44,0.27,0.55,0.56,0.52,0.44,0.52,0.21,0.54,0.56,0.52,0.56,0.27,0.55,0.21,0.52,0.27,0.55,0.52,0.54,0.52,0.21,0.52,0.52,0.52,0.29,0.21,0.54,0.52,0.27,0.55,0.73,0.21,0.29,0.52,0.27,0.55,0.29,0.52,0.52" style="fill:rgb(0,0,0);font-family:AkzidenzGroteskBE-Regular;font-size:9.24px;stroke:none;">policy was immediately developed in conjunction with the</text>
   <text y="502.859" x="315.3,317.223,322.083,324.588,329.403,334.218,336.917,338.84,343.849,348.664,351.184,355.999,361.008,365.823,368.522,371.415,376.424,378.346,380.463,382.98,387.796,392.806,397.622,402.05,406.866,411.099,415.915,420.731,425.926,427.85,432.666,437.86,440.38,445.002,449.818,455.012,457.472,461.9,466.716,471.576,476.376,479.27,481.194,483.894,487.974,490.434,494.862,499.722,502.616,506.656,508.579,513.44,518.256,522.683" svgx:width="0.21,0.52,0.27,0.52,0.52,0.29,0.21,0.54,0.52,0.27,0.52,0.54,0.52,0.29,0.31,0.54,0.21,0.23,0.27,0.52,0.54,0.52,0.48,0.52,0.46,0.52,0.52,0.56,0.21,0.52,0.56,0.27,0.5,0.52,0.56,0.27,0.48,0.52,0.52,0.52,0.31,0.21,0.29,0.44,0.27,0.48,0.52,0.31,0.44,0.21,0.52,0.52,0.48,0.23" style="fill:rgb(0,0,0);font-family:AkzidenzGroteskBE-Regular;font-size:9.24px;stroke:none;">infection control, housekeeping and security services.</text>
   <text y="526.14" x="315.3,320.368,325.588,330.808,338.848,341.307,344.503,347.888,353.145,355.725,361.171,363.809,369.209,374.669,377.07,382.516,385.9,391.48,396.941,400.326,405.546" svgx:width="0.56,0.58,0.58,0.9,0.27,0.35,0.38,0.58,0.29,0.6,0.29,0.6,0.6,0.27,0.6,0.38,0.63,0.6,0.38,0.58,0.9" style="fill:rgb(0,0,0);font-family:AkzidenzGroteskBE-Bold;font-size:9.0px;stroke:none;">Team training program</text>
   <text y="538.08" x="315.3,324.757,329.557,331.957,334.678,337.558,342.201,344.121,348.959,353.759,358.975,361.374,366.784,372.124,377.534,379.934,386.693,393.592,403.05,407.429,409.829,414.86,418.88,423.718,426.598,428.997,433.64,436.04,438.761,445.481,450.513,453.234,459.954,464.754,469.591,473.791,476.191,481.407,486.207,489.087,491.007,496.038,501.254,503.354,505.754,510.734,513.674,518.318,520.238,525.038,526.958,531.758,536.978,539.377,543.826,548.627,553.076" svgx:width="1.02,0.52,0.27,0.29,0.31,0.5,0.21,0.52,0.52,0.56,0.27,0.58,0.58,0.58,0.27,0.73,0.75,1.02,0.48,0.27,0.54,0.44,0.52,0.31,0.27,0.5,0.27,0.29,0.73,0.54,0.29,0.73,0.52,0.52,0.46,0.27,0.56,0.52,0.31,0.21,0.54,0.56,0.23,0.27,0.54,0.31,0.5,0.21,0.52,0.21,0.52,0.56,0.27,0.48,0.52,0.48,0.29" style="fill:rgb(0,0,0);font-family:AkzidenzGroteskBE-Regular;font-size:9.24px;stroke:none;">We trained 275 HCWs over a two-week period. Training ses-</text>
   <text y="549.84" x="315.3,319.724,321.644,326.65,331.463,335.887,338.107,344.841,349.653,352.544,357.356,359.636,364.448,369.261,371.181,376.372,378.592,383.598,388.411,390.631,398.191,403.171,407.984,413.175,417.793,421.829,424.109,426.806,431.812,434.092,439.098,441.989,443.909,449.1,453.718,457.754,459.868,462.088,468.056,469.976,471.896,474.116,479.307,484.119,488.155,492.58,494.5,499.36,501.28,505.898,510.71,515.134,517.355,524.089,528.949,531.839,536.652,538.931,543.355,548.216,553.028" svgx:width="0.48,0.21,0.54,0.52,0.48,0.27,0.73,0.52,0.31,0.52,0.27,0.52,0.52,0.21,0.56,0.27,0.54,0.52,0.27,0.81,0.54,0.52,0.56,0.5,0.44,0.27,0.29,0.54,0.27,0.54,0.31,0.21,0.56,0.5,0.44,0.23,0.27,0.65,0.21,0.21,0.27,0.56,0.52,0.44,0.48,0.21,0.52,0.21,0.5,0.52,0.48,0.27,0.73,0.52,0.31,0.52,0.27,0.48,0.52,0.52,0.29" style="fill:rgb(0,0,0);font-family:AkzidenzGroteskBE-Regular;font-size:9.24px;stroke:none;">sions were held on Monday to Friday. All physicians were suc-</text>
   <text y="561.599" x="315.3,320.16,324.96,329.381,333.801,336.3,341.16,343.076,344.993,349.025,351.665,354.358,357.244,361.859,363.775,368.635,373.435,378.623,381.203,383.119,387.979,390.559,393.252,398.112,402.726,409.845,414.265,416.905,419.598,424.406,429.086,431.786,434.366,441.484,443.401,446.287,449.227,454.23,457.117,461.977,467.136,469.776,472.469,477.277,482.138,484.058,486.944,489.584,494.587,499.447,502.139,506.948,511.562,513.479,515.395,518.035,522.455,527.264,532.072,536.881,542.068,546.877,548.793,553.653" svgx:width="0.52,0.52,0.48,0.48,0.27,0.52,0.21,0.21,0.44,0.27,0.29,0.31,0.5,0.21,0.52,0.52,0.56,0.27,0.21,0.52,0.27,0.29,0.52,0.5,0.77,0.48,0.27,0.29,0.52,0.5,0.29,0.27,0.77,0.21,0.31,0.31,0.54,0.31,0.52,0.56,0.27,0.29,0.52,0.52,0.21,0.31,0.27,0.54,0.52,0.29,0.52,0.5,0.21,0.21,0.27,0.48,0.52,0.52,0.52,0.56,0.52,0.21,0.52,0.23" style="fill:rgb(0,0,0);font-family:AkzidenzGroteskBE-Regular;font-size:9.24px;stroke:none;">cessfully trained in teams that mirrored their on-call schedule.</text>
   <text y="573.359" x="315.3,320.315,325.135,329.956,332.475,334.404,339.03,341.929,347.128,351.949,356.381,359.086,361.605,366.805,369.703,374.718,379.538,384.738,387.257,389.962,394.976,397.556,400.261,403.159,407.786,409.714,414.535,417.115,423.857,428.483,432.916,435.436,438.14,442.961,447.781,450.301,455.694,461.088,466.481,469.001,471.123,478.06,484.423,486.943,491.764,496.584,499.483,503.915,508.736,513.168,515.29,517.81,519.933,522.637,525.157,531.899,536.526,540.958,543.538,548.737,550.666,553.176" svgx:width="0.54,0.52,0.52,0.27,0.21,0.5,0.31,0.56,0.52,0.48,0.29,0.27,0.56,0.31,0.54,0.52,0.56,0.27,0.29,0.54,0.27,0.29,0.31,0.5,0.21,0.52,0.27,0.73,0.5,0.48,0.27,0.29,0.52,0.52,0.27,0.58,0.58,0.58,0.27,0.23,0.75,0.69,0.27,0.52,0.52,0.31,0.48,0.52,0.48,0.23,0.27,0.23,0.29,0.27,0.73,0.5,0.48,0.27,0.56,0.21,0.27,0.29" style="fill:rgb(0,0,0);font-family:AkzidenzGroteskBE-Regular;font-size:9.24px;stroke:none;">The largest group to train was the 225 ICU nurses. It was dif-</text>
   <text y="585.059" x="315.3,317.801,319.72,324.581,329.381,331.3,333.995,336.276,338.971,343.976,346.257,348.758,351.647,356.508,361.308,363.588,368.449,370.369,375.559,380.419,383.114,385.395,390.206,395.066,397.956,402.379,407.19,411.613,413.894,416.395,421.4,424.29,426.57,429.265,436.046,441.051,443.391,448.202,453.207,458.018,460.908,465.331,467.611,472.802,477.613,482.473,487.093,491.904,496.328,501.139,503.419,508.425,510.926,513.206,518.066,523.047,527.858,532.718,537.53,540.419,543.308,548.169,552.98" svgx:width="0.27,0.21,0.52,0.52,0.21,0.29,0.27,0.29,0.54,0.27,0.27,0.31,0.52,0.52,0.27,0.52,0.21,0.56,0.52,0.29,0.27,0.52,0.52,0.31,0.48,0.52,0.48,0.27,0.27,0.54,0.31,0.27,0.29,0.73,0.54,0.27,0.52,0.54,0.52,0.31,0.48,0.27,0.56,0.52,0.52,0.5,0.52,0.48,0.52,0.27,0.54,0.27,0.27,0.52,0.54,0.52,0.52,0.52,0.31,0.31,0.52,0.52,0.29" style="fill:rgb(0,0,0);font-family:AkzidenzGroteskBE-Regular;font-size:9.24px;stroke:none;">ficult to free eight nurses for two hours because of concurrent</text>
   <text y="596.819" x="315.3,320.49,325.107,327.803,329.722,334.533,339.393,342.089,344.5838,345.508,350.32,354.937,357.826,362.686,365.1808,366.106,371.112,376.302,378.221,380.14,385.33,389.947,392.643,394.562,399.567,404.427,408.867,411.3618,412.287,416.904,421.715,426.905,429.39979999999997,430.325,435.515,440.376,445.187,449.804,454.615,459.038,463.85,466.3448,467.33,474.063,478.874,481.3688,482.294,487.154,492.134,496.946,498.865,504.055,506.5498,507.475,512.335,517.315,520.011,522.5058,523.43,526.32,531.18,535.991,538.4858,539.411,543.834,548.645,553.069" svgx:width="0.56,0.5,0.29,0.21,0.52,0.52,0.29,0.27,0.55,0.52,0.5,0.31,0.52,0.27,0.55,0.54,0.56,0.21,0.21,0.56,0.5,0.29,0.21,0.54,0.52,0.48,0.27,0.55,0.5,0.52,0.56,0.27,0.55,0.56,0.52,0.52,0.5,0.52,0.48,0.52,0.27,0.55,0.73,0.52,0.27,0.55,0.52,0.54,0.52,0.21,0.56,0.27,0.55,0.52,0.54,0.29,0.27,0.55,0.31,0.52,0.52,0.27,0.55,0.48,0.52,0.48,0.29" style="fill:rgb(0,0,0);font-family:AkzidenzGroteskBE-Regular;font-size:9.24px;stroke:none;">patient care obligations and because we could not run ses-</text>
   <text y="608.578" x="315.3,319.724,321.644,326.65,331.463,335.887,337.807,342.998,347.81,350.7,352.62,357.481,362.64,364.56,366.721,373.62,379.975,381.895,387.086,389.977,394.837,399.457,403.687,408.111,410.225,412.205,421.638,426.45,428.37,431.31,435.93,440.742,442.68,445.385,450.207,453.106,457.928,462.749,464.669,469.103,473.924,478.357,482.791,484.72,489.736,494.557,498.99,500.91,506.111,510.932,513.832,515.761,520.582,525.742,527.662,530.367,535.189,540.01,541.93,547.131,551.758" svgx:width="0.48,0.21,0.54,0.52,0.48,0.27,0.56,0.52,0.31,0.21,0.52,0.56,0.27,0.23,0.75,0.69,0.27,0.56,0.31,0.52,0.5,0.46,0.48,0.23,0.27,1.02,0.52,0.27,0.31,0.5,0.52,0.27,0.29,0.52,0.31,0.52,0.52,0.27,0.48,0.52,0.48,0.48,0.21,0.54,0.52,0.48,0.27,0.56,0.52,0.31,0.21,0.52,0.56,0.27,0.29,0.52,0.52,0.27,0.56,0.5,0.44" style="fill:rgb(0,0,0);font-family:AkzidenzGroteskBE-Regular;font-size:9.24px;stroke:none;">sions during ICU breaks. We ran three sessions during the day</text>
   <text y="620.338" x="315.3,319.734,324.557,326.487,328.947,331.653,333.634,336.534,341.93,347.269,349.789,355.184,360.58,362.501,365.207,370.223,372.144,377.54,382.935,385.395,390.79,396.185,399.085,401.006,405.635,410.457,415.658,417.639,422.656,427.478,432.3,434.221,438.656,443.46,447.89,452.321,454.247,459.26,464.079,466.059,471.219,476.079,478.975,480.902,485.721,490.918,492.838,495.541,500.36,505.178,507.098,511.917,515.96,520.778,525.597,527.523,532.342,537.54,539.46,543.89,548.709,550.635,553.144" svgx:width="0.48,0.52,0.21,0.27,0.29,0.27,0.31,0.58,0.58,0.27,0.58,0.58,0.27,0.29,0.54,0.27,0.58,0.58,0.27,0.58,0.58,0.31,0.27,0.5,0.52,0.56,0.27,0.54,0.52,0.52,0.27,0.48,0.52,0.48,0.48,0.21,0.54,0.52,0.27,0.56,0.52,0.31,0.21,0.52,0.56,0.27,0.29,0.52,0.52,0.27,0.52,0.44,0.52,0.52,0.21,0.52,0.56,0.27,0.48,0.52,0.21,0.27,0.29" style="fill:rgb(0,0,0);font-family:AkzidenzGroteskBE-Regular;font-size:9.24px;stroke:none;">shift (07:30 to 19:30) and one session during the evening shift</text>
   <text y="632.098" x="315.3,318.202,323.599,328.939,331.459,336.856,342.253,344.773,347.481,352.499,355.019,360.416,365.813,368.273,373.67,379.067,381.969" svgx:width="0.31,0.58,0.58,0.27,0.58,0.58,0.27,0.29,0.54,0.27,0.58,0.58,0.27,0.58,0.58,0.31,0.23" style="fill:rgb(0,0,0);font-family:AkzidenzGroteskBE-Regular;font-size:9.24px;stroke:none;">(20:00 to 22:00).</text>
   <text y="655.44" x="315.3,321.113,325.612,330.858,333.485,338.921,344.167,347.352,349.979,355.559" svgx:width="0.65,0.5,0.58,0.29,0.6,0.58,0.35,0.29,0.63,0.6" style="fill:rgb(0,0,0);font-family:AkzidenzGroteskBE-Bold;font-size:9.0px;stroke:none;">Evaluation</text>
   <text y="667.32" x="315.3,320.304,325.115,329.975,332.555,337.744,340.632,345.637,350.826,353.714,358.331,365.451,368.091,374.823,379.439,383.862,386.502,391.312,395.346,399.962,401.881,406.741,411.361,414.055,418.866,424.055,426.635,431.824,435.858,438.498,441.192,446.002,450.813,453.453,456.147,459.035,463.652,465.57,470.43,475.241,480.051,484.473,486.585,489.225,494.23,499.09,503.9,507.934,510.574,517.307,522.167,525.055,529.866,532.505,537.122,541.544,545.772,550.583" svgx:width="0.54,0.52,0.52,0.27,0.56,0.31,0.54,0.56,0.31,0.5,0.77,0.27,0.73,0.5,0.48,0.27,0.52,0.44,0.5,0.21,0.52,0.5,0.29,0.52,0.56,0.27,0.56,0.44,0.27,0.29,0.52,0.52,0.27,0.29,0.31,0.5,0.21,0.52,0.52,0.52,0.48,0.23,0.27,0.54,0.52,0.52,0.44,0.27,0.73,0.52,0.31,0.52,0.27,0.5,0.48,0.46,0.52,0.56" style="fill:rgb(0,0,0);font-family:AkzidenzGroteskBE-Regular;font-size:9.24px;stroke:none;">The program was evaluated by the trainees. They were asked</text>
   <text y="679.08" x="315.3,317.993,322.997,325.037,329.846,334.85,341.969,347.158,349.075,353.884,356.578,361.438,363.478,368.094,372.903,374.943,379.753,383.786,388.401,390.381,395.191,399.806,402.5,404.417,409.42,414.281,416.321,418.82,423.824,426.711,433.86,435.9,440.511,443.2,445.24,447.929,452.734,457.539,459.579,464.384,469.244,474.428,476.468,481.467,483.961,485.942,490.802,495.422,500.227,505.031,507.072,511.488,516.293,520.71,525.127,527.039,532.038,536.898,539.005,541.045,546.044,550.904" svgx:width="0.29,0.54,0.27,0.52,0.54,0.77,0.56,0.21,0.52,0.29,0.52,0.27,0.5,0.52,0.27,0.52,0.44,0.5,0.21,0.52,0.5,0.29,0.21,0.54,0.52,0.27,0.27,0.54,0.31,0.77,0.27,0.5,0.29,0.27,0.29,0.52,0.52,0.27,0.52,0.52,0.56,0.27,0.54,0.27,0.27,0.52,0.5,0.52,0.52,0.27,0.48,0.52,0.48,0.48,0.21,0.54,0.52,0.23,0.27,0.54,0.52,0.52" style="fill:rgb(0,0,0);font-family:AkzidenzGroteskBE-Regular;font-size:9.24px;stroke:none;">to complete an evaluation form at the end of each session. The</text>
   <text y="690.839" x="315.3,318.24,323.04,327.464,332.275,334.194,336.889,341.312,343.413,348.03,350.97,355.781,357.882,362.305,367.116,374.237,381.359,385.976,388.865,390.784,394.685,399.485,404.675,406.775,408.694,413.506,415.666,420.671,425.288,430.478,432.398,437.209,439.309,444.693,446.854,448.954,453.959,458.819,463.631,468.054,472.865,475.026,477.527,482.532,485.421,492.543,496.966,499.066,505.799,510.66,513.549,518.36,520.521,523.41,528.221,532.256,534.175,539.036,545.756,550.567" svgx:width="0.31,0.52,0.48,0.52,0.21,0.29,0.48,0.27,0.5,0.31,0.52,0.27,0.48,0.52,0.77,0.77,0.5,0.31,0.21,0.42,0.52,0.56,0.27,0.21,0.52,0.27,0.54,0.5,0.56,0.21,0.52,0.27,0.58,0.23,0.27,0.54,0.52,0.52,0.48,0.52,0.27,0.27,0.54,0.31,0.77,0.48,0.27,0.73,0.52,0.31,0.52,0.27,0.31,0.52,0.44,0.21,0.52,0.73,0.52,0.56" style="fill:rgb(0,0,0);font-family:AkzidenzGroteskBE-Regular;font-size:9.24px;stroke:none;">results are summarized in Table 1. These forms were reviewed</text>
   <text y="702.599" x="315.3,320.488,324.522,327.0168,327.881,330.575,335.435,340.244,342.7388,343.604,348.413,353.602,358.411,363.22,367.836,370.529,375.533,378.42,382.842,385.3368,386.201,391.389,396.005,397.922,399.839,403.873,406.3678,407.232,409.926,414.929,417.42379999999997,418.289,421.229,426.029,430.063,431.98,436.84,443.56,446.0548,446.92,451.535,456.345,460.425,462.9198,463.785,468.594,473.598,478.458,483.267,488.077,491.017,495.826,500.248,502.7428,503.607,506.495,511.11,513.028,517.449,522.258,527.447,529.9418000000001,530.806,535.994,540.075,542.5698000000001,543.374,546.068,550.928" svgx:width="0.56,0.44,0.27,0.55,0.29,0.52,0.52,0.27,0.55,0.52,0.56,0.52,0.52,0.5,0.29,0.54,0.31,0.48,0.27,0.55,0.56,0.5,0.21,0.21,0.44,0.27,0.55,0.29,0.54,0.27,0.55,0.31,0.52,0.44,0.21,0.52,0.73,0.27,0.55,0.5,0.52,0.44,0.27,0.55,0.52,0.54,0.52,0.52,0.52,0.31,0.52,0.48,0.27,0.55,0.31,0.5,0.21,0.48,0.52,0.56,0.27,0.55,0.56,0.44,0.27,0.55,0.29,0.52,0.52" style="fill:rgb(0,0,0);font-family:AkzidenzGroteskBE-Regular;font-size:9.24px;stroke:none;">by the educators daily to review any concerns raised by the</text>
   <text y="714.359" x="315.3,317.983,320.923,325.529,327.436,332.235,337.034,341.895,346.306" svgx:width="0.29,0.31,0.5,0.21,0.52,0.52,0.52,0.48,0.23" style="fill:rgb(0,0,0);font-family:AkzidenzGroteskBE-Regular;font-size:9.24px;stroke:none;">trainees.</text>
  </g>
 </g>
</svg>
