<?xml version="1.0" encoding="UTF-8"?>
<svg height="820.24" width="4166.686" xmlns="http://www.w3.org/2000/svg">
 <g id="page" xmlns:svgx="http://www.xml-cml.org/schema/svgx">
  <g begin="text">
   <text y="56.4" x="49.68,53.76,59.76,63.12,66.24,69.36,74.4,77.52,80.4,87.84,93.84,99.12,102.48,107.04,113.04,119.04,122.16,125.04,132.48,137.76,142.32,145.44,148.56,155.76,161.76,167.76,171.12,174.48,179.76,182.88,191.52,196.8,202.8,206.16,209.52,215.52" svgx:width="0.33,0.5,0.28,0.25,0.25,0.44,0.25,0.25,0.61,0.5,0.44,0.28,0.39,0.5,0.5,0.25,0.25,0.61,0.44,0.39,0.25,0.25,0.61,0.5,0.5,0.28,0.28,0.44,0.25,0.72,0.44,0.5,0.28,0.28,0.5,0.25" style="fill:rgb(0,0,0);font-family:TimesNewRomanPS-ItalicMT;font-size:12.0px;stroke:none;">Int. J. Environ. Res. Public Health </text>
   <text y="56.4" x="218.4,224.4,230.4,236.4" svgx:width="0.5,0.5,0.5,0.5" style="fill:rgb(0,0,0);font-family:TimesNewRomanPS-BoldMT;font-size:12.0px;stroke:none;">2012</text>
   <text y="56.4" x="242.4,245.28" svgx:width="0.25,0.25" style="fill:rgb(0,0,0);font-family:TimesNewRomanPSMT;font-size:12.0px;stroke:none;">, </text>
   <text y="56.4" x="248.4" svgx:width="0.5" style="fill:rgb(0,0,0);font-family:TimesNewRomanPS-ItalicMT;font-size:12.0px;stroke:none;">9</text>
   <text y="56.4" x="254.16,257.15999999999997,262.32,265.32,297.84,300.84,333.36,336.36,368.64,371.64,404.16,407.16,439.68,442.68,474.96,477.96,510.48" svgx:width="0.25,0.55,0.25,0.55,0.25,0.55,0.25,0.55,0.25,0.55,0.25,0.55,0.25,0.55,0.25,0.55,0.25" style="fill:rgb(0,0,0);font-family:TimesNewRomanPSMT;font-size:12.0px;stroke:none;"> </text>
   <text y="73.44" x="546.0" svgx:width="0.25" style="fill:rgb(0,0,0);font-family:TimesNewRomanPSMT;font-size:12.0px;stroke:none;"> </text>
   <text y="810.24" x="49.68" svgx:width="0.25" style="fill:rgb(0,0,0);font-family:TimesNewRomanPSMT;font-size:12.0px;stroke:none;"> </text>
  </g>
  <g begin="text">
   <text y="56.88" x="528.0,534.0,540.0" svgx:width="0.5,0.5,0.5" style="fill:rgb(0,0,0);font-family:TimesNewRomanPS-BoldMT;font-size:12.0px;stroke:none;">346</text>
  </g>
  <g begin="text">
   <text y="56.88" x="546.0" svgx:width="0.25" style="fill:rgb(0,0,0);font-family:TimesNewRomanPS-BoldMT;font-size:12.0px;stroke:none;"> </text>
  </g>
  <g begin="text">
   <text y="90.48" x="166.08,173.28,176.64,182.64,189.36,194.64,199.92,203.04,209.04,212.16" svgx:width="0.61,0.28,0.5,0.56,0.44,0.44,0.25,0.5,0.25,0.25" style="fill:rgb(0,0,0);font-family:TimesNewRomanPS-BoldMT;font-size:12.0px;stroke:none;">Figure 1. </text>
   <text y="90.48" x="215.28,222.48,228.72,234.72,237.6,242.88,246.24,249.84,253.92,259.44,268.56,273.84,282.48,288.72,292.8,298.8,301.92,305.52,311.76,315.84,318.96,324.24,330.0,335.28,340.56,346.8,349.92,353.04,357.6,361.2,364.32,370.32,375.6,381.36,386.88,389.76,396.0,402.24,411.6,416.88,422.64,426.24,429.36" svgx:width="0.61,0.5,0.5,0.28,0.44,0.25,0.33,0.33,0.44,0.78,0.44,0.72,0.5,0.33,0.5,0.25,0.33,0.5,0.33,0.25,0.44,0.5,0.44,0.44,0.5,0.28,0.28,0.39,0.28,0.25,0.5,0.44,0.5,0.44,0.28,0.5,0.5,0.78,0.44,0.5,0.28,0.25,0.25" style="fill:rgb(0,0,0);font-family:TimesNewRomanPSMT;font-size:12.0px;stroke:none;">Logic framework for checklist development. </text>
   <text y="405.6" x="438.96" svgx:width="0.25" style="fill:rgb(0,0,0);font-family:TimesNewRomanPS-BoldMT;font-size:12.0px;stroke:none;"> </text>
   <text y="431.52" x="49.68,55.68,58.8,64.8,67.92,73.68,76.8,79.92,84.0,90.0,95.28,101.04,104.64,107.76,111.6,117.6,120.72,126.72,132.72,135.84,144.48,149.76,155.04,161.28" svgx:width="0.5,0.25,0.5,0.25,0.5,0.25,0.25,0.33,0.5,0.44,0.5,0.28,0.28,0.33,0.5,0.28,0.5,0.5,0.25,0.72,0.44,0.44,0.5,0.25" style="fill:rgb(0,0,0);font-family:TimesNewRomanPSMT;font-size:12.0px;stroke:none;">2.1.1. Identifying Need </text>
   <text y="460.56" x="63.84,71.28,77.04,82.32,85.32,87.36,93.12,98.4,103.68,109.68,112.68,114.96,118.56,124.8,128.88,131.88,133.92,139.2,144.96,150.96,157.2,161.76,167.76,171.84,176.88,179.88,181.92,186.96,193.2,198.96,202.56,206.4,212.64,215.52,218.52,220.56,226.56,232.8,235.68,241.68,247.2,252.96,258.24,263.52,266.52,268.56,273.84,279.36,285.12,288.12,290.16,295.92,301.2,304.2,306.24,312.0,317.52,322.08,327.36,333.36,336.36,338.4,344.64,350.4,353.4,355.44,360.48,363.48,365.52,371.52,375.6,380.88,384.0,387.36,396.72,399.84,405.84,411.12,415.44,420.96,423.96,426.0,431.52,437.28,442.8,445.92,451.92,457.2,461.04,463.92,470.16,475.92,478.92,480.96,487.2,490.8,493.8,495.84,504.48,510.48,514.56,520.56,526.56,529.68,534.96,540.48,546.0" svgx:width="0.61,0.5,0.44,0.25,0.55,0.5,0.44,0.44,0.5,0.25,0.55,0.33,0.5,0.33,0.25,0.55,0.44,0.5,0.5,0.5,0.39,0.5,0.33,0.44,0.25,0.55,0.44,0.5,0.5,0.28,0.33,0.5,0.28,0.25,0.55,0.5,0.5,0.28,0.5,0.44,0.5,0.44,0.44,0.25,0.55,0.44,0.44,0.5,0.25,0.55,0.5,0.44,0.25,0.55,0.5,0.44,0.39,0.44,0.5,0.25,0.55,0.5,0.5,0.25,0.55,0.44,0.25,0.55,0.5,0.33,0.44,0.28,0.28,0.78,0.28,0.5,0.44,0.33,0.5,0.25,0.55,0.44,0.5,0.44,0.28,0.5,0.44,0.28,0.28,0.5,0.5,0.25,0.55,0.5,0.33,0.25,0.55,0.72,0.5,0.33,0.5,0.5,0.28,0.44,0.44,0.44,0.25" style="fill:rgb(0,0,0);font-family:TimesNewRomanPSMT;font-size:12.0px;stroke:none;">The need for exposure control guidance can be based on a preliminary evaluation of workplace </text>
   <text y="477.36" x="49.68,54.96,61.2,66.96,73.2,76.08,79.92,82.8,89.04,94.8,99.36,103.2,109.44,115.44,120.0,125.28,129.36,135.36,140.64,146.64,150.48,156.48,162.48,166.8,169.92,175.68,181.68,185.52,190.8,194.64,203.28,208.8,211.92,217.92,222.0,225.6,231.36,235.44,241.68,247.68,253.68,259.44,263.28,268.8,274.56,280.56,284.4,288.0,293.28,296.4,302.64,305.76,311.76,317.76,321.6,330.48,333.36,337.2,342.96,346.8,355.44,361.68,365.76,371.76,377.04,381.12,385.68,389.52,394.8,400.56,406.56,410.4,414.96,420.96,426.96,432.24,436.56,442.56,445.68,450.24,456.48,460.56,465.12,468.24,472.08,480.72,486.96,492.24,498.24,507.12,512.64,518.4,522.0,527.28,530.88,534.0,540.24,546.0" svgx:width="0.44,0.5,0.5,0.5,0.28,0.28,0.28,0.5,0.5,0.39,0.25,0.5,0.5,0.39,0.44,0.33,0.5,0.44,0.5,0.25,0.5,0.5,0.33,0.28,0.5,0.5,0.25,0.44,0.25,0.72,0.44,0.28,0.5,0.33,0.28,0.5,0.33,0.5,0.5,0.5,0.5,0.25,0.44,0.5,0.5,0.25,0.28,0.44,0.28,0.5,0.28,0.5,0.5,0.25,0.72,0.28,0.28,0.5,0.25,0.72,0.5,0.33,0.5,0.44,0.33,0.39,0.25,0.44,0.5,0.5,0.25,0.39,0.5,0.5,0.44,0.33,0.5,0.28,0.39,0.5,0.33,0.39,0.25,0.25,0.72,0.5,0.44,0.5,0.78,0.44,0.5,0.28,0.44,0.28,0.28,0.5,0.5,0.25" style="fill:rgb(0,0,0);font-family:TimesNewRomanPSMT;font-size:12.0px;stroke:none;">conditions observed during a walk-through and talking with workers and supervisors. Documentation </text>
   <text y="494.4" x="49.68,55.92,59.52,62.52,64.8,70.32,76.08,82.08,88.32,92.88,98.88,102.96,108.24,111.24,113.52,117.12,121.2,127.68,136.56,139.56,141.84,147.36,150.48,154.56,157.56,159.84,164.4,169.92,179.04,185.28,188.64,191.76,197.76,203.76,206.76,209.04,215.28,219.36,222.36,224.64,228.24,232.32,238.56,247.44,250.44,252.72,258.96,262.08,266.88,272.16,277.44,282.0,287.28,290.28,292.8,297.36,303.36,307.44,313.2,318.72,322.08,325.44,328.56,334.08,339.84,345.36,350.64,353.64,355.92,361.92,366.0,372.24,378.24,382.32,387.6,396.48,401.04,404.04,406.56,415.68,421.2,426.96,429.96,432.24,437.76,440.88,445.44,451.68,454.68,456.96,462.96,469.2,474.48,480.48,489.6,495.12,500.88,504.48,507.48,509.76,515.04,518.04,520.32,526.08,531.36,536.88,542.88,546.0" svgx:width="0.5,0.33,0.25,0.55,0.44,0.5,0.5,0.5,0.39,0.5,0.33,0.44,0.25,0.55,0.33,0.33,0.5,0.78,0.25,0.55,0.44,0.28,0.33,0.25,0.55,0.39,0.44,0.78,0.5,0.28,0.28,0.5,0.5,0.25,0.55,0.5,0.33,0.25,0.55,0.33,0.33,0.5,0.78,0.25,0.55,0.5,0.28,0.39,0.44,0.44,0.39,0.44,0.25,0.55,0.39,0.5,0.33,0.5,0.44,0.28,0.28,0.28,0.44,0.5,0.44,0.44,0.25,0.55,0.5,0.33,0.5,0.5,0.33,0.44,0.78,0.39,0.25,0.55,0.78,0.44,0.5,0.25,0.55,0.44,0.28,0.39,0.5,0.25,0.55,0.5,0.5,0.44,0.5,0.78,0.44,0.5,0.28,0.25,0.55,0.44,0.25,0.55,0.5,0.44,0.44,0.5,0.25,0.25" style="fill:rgb(0,0,0);font-family:TimesNewRomanPSMT;font-size:12.0px;stroke:none;">of exposure from air sampling or from disease surveillance programs may also document a need. </text>
   <text y="511.44" x="49.68,57.12,62.88,68.88,75.12,79.68,85.68,89.76,95.04,98.16,103.2,109.44,115.2,118.8,122.64,128.88,131.76,134.88,140.88,147.12,150.0,156.0,161.52,167.52,172.8,178.08,181.44,190.32,195.6,199.2,204.72,210.48,215.76,221.76,224.88,228.24,234.48,237.36,240.96,246.72,252.0,255.12,263.52,269.76,273.84,279.6,282.48,288.72,292.56,298.56,303.84,309.84,312.96,318.24,323.52,327.36,330.24,336.48,342.24,345.6,348.72,353.28,356.64,365.52,371.76,376.32,379.92,383.04,386.16,389.28,395.28,400.8,404.16,409.92,413.04,416.64,422.64,425.76,431.52,436.8,440.16,443.28,452.16,458.4,461.52,467.04,476.16,481.68,487.44,491.04,496.32,502.32,505.44,509.52,515.52,521.52,525.6,528.48" svgx:width="0.61,0.5,0.5,0.5,0.39,0.5,0.33,0.44,0.25,0.44,0.5,0.5,0.28,0.33,0.5,0.28,0.25,0.5,0.5,0.28,0.5,0.44,0.5,0.44,0.44,0.25,0.78,0.44,0.28,0.44,0.5,0.44,0.5,0.25,0.28,0.5,0.25,0.28,0.5,0.44,0.25,0.72,0.5,0.33,0.5,0.25,0.5,0.33,0.5,0.44,0.5,0.28,0.44,0.44,0.28,0.28,0.5,0.5,0.25,0.28,0.39,0.25,0.78,0.5,0.39,0.28,0.25,0.28,0.28,0.5,0.44,0.28,0.5,0.25,0.28,0.5,0.25,0.5,0.44,0.25,0.28,0.78,0.5,0.28,0.44,0.78,0.44,0.5,0.28,0.44,0.5,0.25,0.33,0.5,0.5,0.33,0.25,0.25" style="fill:rgb(0,0,0);font-family:TimesNewRomanPSMT;font-size:12.0px;stroke:none;">Exposure control guidance matched to the work organization is most likely to be implemented [18]. </text>
   <text y="540.48" x="49.68,55.68,58.8,64.8,67.92,73.68,76.8,79.92,88.56,93.6,97.2,102.96,108.24,112.56,115.68,121.44,127.44,130.56,138.48,143.76,149.04,155.04,161.04,165.12,171.36,177.36,183.12,189.12,192.24,196.32,202.32,205.92,212.16,216.48,225.36,230.64,234.48,237.36,243.6,249.6" svgx:width="0.5,0.25,0.5,0.25,0.5,0.25,0.25,0.72,0.44,0.28,0.5,0.44,0.33,0.28,0.5,0.5,0.25,0.67,0.44,0.44,0.5,0.5,0.33,0.5,0.5,0.5,0.5,0.25,0.33,0.5,0.33,0.5,0.33,0.78,0.44,0.28,0.28,0.5,0.5,0.25" style="fill:rgb(0,0,0);font-family:TimesNewRomanPSMT;font-size:12.0px;stroke:none;">2.1.2. Gathering Background Information </text>
   <text y="569.52" x="63.84,71.28,77.04,82.32,85.68,91.44,96.96,102.24,108.24,114.24,118.32,124.56,130.56,136.32,142.32,145.68,148.8,154.8,158.4,164.64,168.96,178.08,183.36,187.2,190.08,196.32,202.08,205.44,210.0,215.28,220.56,224.64,230.16,235.92,239.28,245.04,250.32,256.32,259.68,263.28,269.04,273.12,278.4,283.68,287.04,292.32,298.56,307.68,313.68,319.92,325.68,330.96,336.72,340.32,344.88,348.0,351.36,354.48,360.48,366.0,368.88,374.88,381.12,384.24,390.24,396.24,399.84,402.96,405.84,409.68,414.96,419.04,424.32,427.92,433.92,438.0,443.28,446.4,450.48,455.76,461.76,464.64,470.16,478.8,481.92,485.04,491.28,497.04,501.6,506.88,511.2,516.96,522.24,526.08,528.96,535.2,541.2,546.0" svgx:width="0.61,0.5,0.44,0.25,0.5,0.44,0.44,0.5,0.5,0.33,0.5,0.5,0.5,0.5,0.25,0.28,0.5,0.33,0.5,0.33,0.78,0.44,0.28,0.28,0.5,0.5,0.25,0.39,0.44,0.44,0.33,0.44,0.5,0.25,0.5,0.44,0.5,0.25,0.28,0.5,0.33,0.44,0.44,0.25,0.44,0.5,0.78,0.5,0.5,0.5,0.44,0.5,0.28,0.39,0.25,0.25,0.28,0.5,0.44,0.28,0.5,0.5,0.28,0.5,0.5,0.25,0.28,0.28,0.28,0.44,0.33,0.44,0.28,0.5,0.33,0.44,0.25,0.33,0.44,0.5,0.28,0.44,0.72,0.25,0.25,0.5,0.5,0.39,0.44,0.33,0.5,0.44,0.28,0.28,0.5,0.5,0.39,0.25" style="fill:rgb(0,0,0);font-family:TimesNewRomanPSMT;font-size:12.0px;stroke:none;">The background information search had three components, including literature review, observations </text>
   <text y="586.56" x="49.68,54.96,60.72,66.72,69.72,72.0,76.08,81.6,87.6,90.72,96.0,104.64,107.64,109.92,116.16,119.76,122.76,125.04,133.68,139.92,144.0,150.0,153.0,155.28,161.04,165.12,170.4,175.44,179.04,182.16,187.44,192.72,197.28,200.4,203.4,205.68,210.96,216.72,222.72,225.72,228.0,233.52,239.28,245.28,250.56,254.64,258.24,261.24,263.52,268.8,274.8,280.8,283.92,289.2,294.72,297.72,299.76,303.12,309.36,312.36,314.64,319.92,325.2,331.2,337.2,340.08,344.16,349.44,352.44,354.96,358.08,364.08,369.84,376.08,382.08,387.36,390.96,394.08,400.08,405.36,408.48,411.48,413.76,419.76,425.52,431.52,437.52,443.52,446.88,450.0,454.8,460.8,466.08,472.08,475.08,477.36,482.64,488.64,494.64,498.72,504.96,510.24,515.52,521.28,526.56,531.12,534.12,536.4,540.0,546.0" svgx:width="0.44,0.5,0.5,0.25,0.55,0.33,0.44,0.5,0.28,0.44,0.72,0.25,0.55,0.5,0.33,0.25,0.55,0.72,0.5,0.33,0.5,0.25,0.55,0.5,0.33,0.44,0.44,0.28,0.28,0.44,0.44,0.39,0.25,0.25,0.55,0.44,0.5,0.5,0.25,0.55,0.44,0.5,0.5,0.44,0.33,0.28,0.25,0.55,0.44,0.5,0.5,0.28,0.44,0.44,0.25,0.55,0.28,0.5,0.25,0.55,0.44,0.44,0.5,0.5,0.28,0.33,0.44,0.25,0.55,0.28,0.5,0.5,0.5,0.5,0.44,0.28,0.28,0.5,0.44,0.25,0.25,0.55,0.5,0.5,0.5,0.5,0.5,0.28,0.28,0.39,0.5,0.44,0.5,0.25,0.55,0.44,0.5,0.5,0.33,0.5,0.44,0.44,0.5,0.44,0.39,0.25,0.55,0.28,0.5,0.25" style="fill:rgb(0,0,0);font-family:TimesNewRomanPSMT;font-size:12.0px;stroke:none;">and review of work practices, and expert advice to acquire innovative, unpublished approaches to </text>
   <text y="603.36" x="49.68,54.96,60.72,66.72,72.96,77.52,83.52,87.6,92.88,95.88,98.64,103.92,110.16,115.92,119.52,123.36,129.6,132.48,135.48,138.48,141.6,147.36,150.36,153.12,157.92,167.04,172.56,175.92,179.04,183.12,187.68,193.2,198.72,201.84,207.12,210.12,212.88,218.88,224.4,233.28,239.76,242.88,245.76,249.6,252.48,258.96,264.72,267.72,270.48,276.72,282.72,288.0,291.84,297.12,300.72,303.6,309.84,315.6,320.16,323.28,326.28,329.04,336.48,342.24,347.52,350.52,353.52,356.88,359.76,363.36,368.64,372.72,378.0,381.6,387.6,391.68,396.96,399.96,402.72,406.8,412.08,418.08,420.96,426.24,434.88,437.88,440.88,444.48,450.72,456.0,462.0,466.56,471.84,477.84,480.84,483.6,489.84,495.6,498.6,501.36,507.36,511.44,516.72,522.0,525.6,528.48,534.0,539.52,542.64,546.0" svgx:width="0.44,0.5,0.5,0.5,0.39,0.5,0.33,0.44,0.25,0.55,0.44,0.5,0.5,0.28,0.33,0.5,0.28,0.25,0.55,0.28,0.5,0.25,0.55,0.39,0.78,0.44,0.28,0.28,0.33,0.39,0.44,0.44,0.28,0.44,0.25,0.55,0.5,0.44,0.78,0.5,0.28,0.28,0.28,0.28,0.5,0.5,0.25,0.55,0.5,0.5,0.44,0.33,0.44,0.28,0.28,0.5,0.5,0.39,0.25,0.25,0.55,0.61,0.5,0.44,0.25,0.55,0.28,0.28,0.28,0.44,0.33,0.44,0.28,0.5,0.33,0.44,0.25,0.55,0.33,0.44,0.5,0.28,0.44,0.72,0.25,0.55,0.33,0.5,0.44,0.5,0.39,0.44,0.5,0.25,0.55,0.5,0.5,0.25,0.55,0.5,0.33,0.44,0.44,0.28,0.28,0.44,0.44,0.28,0.25,0.25" style="fill:rgb(0,0,0);font-family:TimesNewRomanPSMT;font-size:12.0px;stroke:none;">exposure control in small-scale demolition operations. The literature review focused on practical, </text>
   <text y="620.4" x="49.68,54.96,60.72,66.24,69.6,72.72,78.24,84.24,87.36,92.64,95.64,96.96,102.48,108.24,114.24,117.24,118.32,122.4,127.68,133.92,136.8,143.04,148.8,154.32,157.68,161.04,166.8,169.8,170.88,176.4,181.68,186.96,192.24,197.04,201.84,204.96,211.2,214.32,219.6,222.6,223.68,229.2,234.96,240.96,247.2,251.76,257.76,261.84,267.12,270.12,271.2,276.48,282.72,288.48,291.84,295.92,302.16,305.04,309.6,312.72,315.72,316.8,321.36,326.88,330.24,333.84,337.92,343.44,347.52,351.6,354.72,360.0,365.28,370.8,376.56,379.56,380.64,384.96,390.72,396.96,405.6,408.6,409.68,418.32,424.56,428.64,434.64,439.92,444.0,448.56,451.56,452.64,455.76,461.76,467.52,474.0,477.12,482.88,488.16,491.16,492.24,495.84,501.6,507.12,516.24,521.04,526.56,529.68,535.68,541.2,546.0" svgx:width="0.44,0.5,0.44,0.28,0.28,0.44,0.5,0.28,0.44,0.25,0.55,0.44,0.5,0.5,0.25,0.55,0.33,0.44,0.5,0.28,0.5,0.5,0.44,0.28,0.28,0.5,0.25,0.55,0.44,0.44,0.44,0.44,0.39,0.39,0.28,0.5,0.28,0.44,0.25,0.55,0.44,0.5,0.5,0.5,0.39,0.5,0.33,0.44,0.25,0.55,0.44,0.5,0.5,0.28,0.33,0.5,0.28,0.39,0.25,0.25,0.55,0.39,0.44,0.28,0.33,0.33,0.44,0.33,0.33,0.28,0.44,0.44,0.44,0.5,0.25,0.55,0.33,0.5,0.5,0.72,0.25,0.55,0.72,0.5,0.33,0.5,0.44,0.33,0.39,0.25,0.55,0.28,0.5,0.5,0.5,0.28,0.5,0.44,0.25,0.55,0.28,0.5,0.44,0.78,0.39,0.44,0.28,0.5,0.44,0.39,0.25" style="fill:rgb(0,0,0);font-family:TimesNewRomanPSMT;font-size:12.0px;stroke:none;">available and regionally accessible exposure controls, self-efficacy (how workers involve themselves </text>
   <text y="637.44" x="49.68,53.04,59.04,62.04,63.36,67.44,72.72,78.72,84.72,90.0,95.28,98.28,99.6,104.88,110.64,116.64,122.88,127.44,133.44,137.52,142.8,147.36,151.44,154.44,155.76,161.04,166.8,172.8,175.8,177.12,183.12,189.12,192.0,198.24,203.76,209.52,214.8,220.08,223.08,224.4,229.68,235.92,241.68,245.28,250.56,256.32,259.92,262.8,265.8,267.12,274.56,280.32,285.6,290.4,295.68,298.68,300.0,303.12,309.12,314.64,317.76,323.76,329.76,335.04,341.04,344.04,345.36,348.96,354.72,360.0,363.0,364.32,372.96,381.36,384.36,385.68,394.32,401.04,408.48,411.48,412.8,420.72,429.36,436.08,444.72,453.36,456.36,457.68,465.12,469.68,474.24,479.52,485.28,488.88,492.0,497.52,500.64,505.2,508.32,511.32,512.64,521.28,528.72,535.2,541.92,546.0" svgx:width="0.28,0.5,0.25,0.55,0.33,0.44,0.5,0.5,0.44,0.44,0.25,0.55,0.44,0.5,0.5,0.5,0.39,0.5,0.33,0.44,0.39,0.33,0.25,0.55,0.44,0.5,0.5,0.25,0.55,0.5,0.5,0.28,0.5,0.44,0.5,0.44,0.44,0.25,0.55,0.44,0.5,0.5,0.28,0.44,0.5,0.28,0.25,0.25,0.55,0.61,0.5,0.44,0.39,0.44,0.25,0.55,0.28,0.5,0.44,0.28,0.5,0.5,0.44,0.5,0.25,0.55,0.28,0.5,0.44,0.25,0.55,0.72,0.72,0.25,0.55,0.72,0.56,0.61,0.25,0.55,0.67,0.72,0.56,0.72,0.72,0.25,0.55,0.61,0.39,0.39,0.44,0.5,0.28,0.28,0.44,0.28,0.39,0.25,0.25,0.55,0.72,0.61,0.56,0.56,0.33,0.25" style="fill:rgb(0,0,0);font-family:TimesNewRomanPSMT;font-size:12.0px;stroke:none;">to reduce exposures) and guidance content. These included the UK HSE COSHH Essentials, NEPSI </text>
   <text y="654.48" x="49.68,55.68,61.68,67.92,73.68,76.68,78.96,84.96,89.04,94.32,99.36,102.96,105.84,111.36,116.64,119.64,121.92,127.92,134.16,137.04,143.04,148.32,151.44,154.44,156.72,160.32,166.08,171.36,174.36,176.64,180.72,186.48,190.08,195.36,199.44,205.2,210.48,214.08,216.96,223.2,228.96,234.48,237.6,240.6,242.88,251.04,256.8,262.32,271.68,274.8,280.08,285.6,288.72,291.72,294.24,301.68,307.68,313.92,316.8,323.04,325.92,329.52,332.52,334.8,338.4,342.48,348.96,357.84,360.84,363.12,366.72,372.48,377.76,380.76,383.04,387.12,392.88,396.48,401.76,405.84,411.6,416.88,420.48,423.36,429.6,435.36,440.88,444.0,447.0,449.28,456.72,462.24,468.0,474.24,478.32,481.32,483.6,492.0,496.08,502.08,507.36,513.36,516.48,521.76,527.04,530.88,534.0,540.24,546.0" svgx:width="0.5,0.5,0.5,0.5,0.25,0.55,0.5,0.33,0.44,0.44,0.28,0.28,0.44,0.44,0.25,0.55,0.5,0.5,0.28,0.5,0.44,0.25,0.25,0.55,0.28,0.5,0.44,0.25,0.55,0.33,0.5,0.28,0.44,0.33,0.5,0.44,0.28,0.28,0.5,0.5,0.44,0.28,0.25,0.55,0.67,0.5,0.44,0.78,0.28,0.44,0.44,0.28,0.25,0.55,0.61,0.5,0.5,0.28,0.5,0.28,0.28,0.25,0.55,0.33,0.33,0.5,0.78,0.25,0.55,0.28,0.5,0.44,0.25,0.55,0.33,0.5,0.28,0.44,0.33,0.5,0.44,0.28,0.28,0.5,0.5,0.44,0.28,0.25,0.55,0.61,0.44,0.5,0.5,0.33,0.25,0.55,0.72,0.33,0.5,0.44,0.5,0.28,0.44,0.44,0.28,0.28,0.5,0.5,0.25" style="fill:rgb(0,0,0);font-family:TimesNewRomanPSMT;font-size:12.0px;stroke:none;">good practice guide, the International Chemical Toolkit from the International Labor Organization </text>
   <text y="671.52" x="49.68,53.76,57.84,65.04,73.68,77.76,80.64,83.64,87.6,91.2,96.96,102.24,105.24,109.44,117.6,120.48,126.48,131.76,137.76,142.08,145.2,150.96,154.56,157.56,161.76,170.4,176.64,179.52,185.52,190.8,193.8,198.24,201.84,208.08,212.16,215.16,219.36,228.48,234.0,239.76,245.04,251.28,254.4,260.4,266.4,269.4,273.6,278.4,281.52,284.88,288.0,293.52,298.8,301.8,306.0,311.28,317.52,323.28,326.64,330.48,336.72,339.6,342.6,346.8,352.8,356.88,363.12,369.12,373.2,378.48,387.36,390.36,394.8,397.92,403.68,406.68,410.88,416.16,422.4,428.16,432.72,436.32,440.4,446.4,451.68,455.28,458.16,464.4,470.16,473.16,477.36,483.36,488.64,494.64,500.16,503.04,509.28,515.28,520.56,526.56,529.56,534.0,540.24,546.0,549.36" svgx:width="0.33,0.33,0.61,0.72,0.33,0.25,0.25,0.55,0.28,0.5,0.44,0.25,0.55,0.67,0.28,0.5,0.44,0.5,0.33,0.28,0.5,0.28,0.25,0.55,0.72,0.5,0.28,0.5,0.44,0.25,0.55,0.33,0.5,0.33,0.25,0.55,0.78,0.44,0.5,0.44,0.5,0.28,0.5,0.5,0.25,0.55,0.39,0.28,0.28,0.28,0.44,0.44,0.25,0.55,0.44,0.5,0.5,0.28,0.33,0.5,0.28,0.25,0.55,0.5,0.33,0.5,0.5,0.33,0.44,0.78,0.25,0.55,0.28,0.5,0.25,0.55,0.44,0.5,0.5,0.39,0.28,0.33,0.5,0.44,0.28,0.28,0.5,0.5,0.25,0.55,0.5,0.44,0.5,0.44,0.28,0.5,0.5,0.44,0.5,0.25,0.55,0.5,0.5,0.25,0.25" style="fill:rgb(0,0,0);font-family:TimesNewRomanPSMT;font-size:12.0px;stroke:none;">(ILO), the Blueprint Guide for managing silica control program in construction developed by </text>
   <text y="688.56" x="49.68,57.84,60.72,66.0,70.08,76.08" svgx:width="0.67,0.28,0.44,0.33,0.5,0.25" style="fill:rgb(0,0,0);font-family:TimesNewRomanPSMT;font-size:12.0px;stroke:none;">Clark </text>
   <text y="688.56" x="80.16,85.44,88.8,91.8,92.88,98.88,102.24,105.36" svgx:width="0.44,0.28,0.25,0.55,0.5,0.28,0.25,0.25" style="fill:rgb(0,0,0);font-family:TimesNewRomanPS-ItalicMT;font-size:12.0px;stroke:none;">et al. </text>
   <text y="688.56" x="109.44,113.52,119.52,125.52,129.6,135.6,141.6,145.44,148.56,151.56,152.64,163.68,169.92,174.0,180.0,183.0,184.08,189.84,193.92,199.2,204.48,208.08,210.96,216.24,221.52,226.08,229.08,230.16,238.8,244.08,248.16,253.44,256.44,257.52,263.76,269.76,274.32,279.6,283.68,289.68,295.2,301.2,304.2,305.28,311.28,317.28,321.36,324.48,330.24,336.24,339.24,340.56,345.36,354.48,360.0,363.12,366.24,369.24,370.56,376.32,382.56,385.92,389.04,395.28,398.4,404.4,410.4,413.4,414.48,418.56,423.84,429.6,435.84,441.84,447.12,450.72,453.6,459.84,465.6,468.6,469.68,475.2,480.96,486.96,489.96,491.04,495.12,500.64,509.52,515.76,521.76,527.28,530.64,533.76,540.0,546.0" svgx:width="0.33,0.5,0.5,0.33,0.5,0.5,0.33,0.25,0.25,0.55,0.94,0.5,0.33,0.5,0.25,0.55,0.5,0.33,0.44,0.44,0.28,0.28,0.44,0.44,0.39,0.25,0.55,0.72,0.44,0.33,0.44,0.25,0.55,0.5,0.5,0.39,0.44,0.33,0.5,0.44,0.5,0.25,0.55,0.5,0.5,0.33,0.28,0.5,0.5,0.25,0.55,0.39,0.78,0.44,0.28,0.28,0.25,0.55,0.5,0.5,0.28,0.28,0.5,0.28,0.5,0.5,0.25,0.55,0.33,0.44,0.5,0.5,0.5,0.44,0.28,0.28,0.5,0.5,0.25,0.55,0.44,0.5,0.5,0.25,0.55,0.33,0.44,0.78,0.5,0.5,0.44,0.28,0.28,0.5,0.5,0.25" style="fill:rgb(0,0,0);font-family:TimesNewRomanPSMT;font-size:12.0px;stroke:none;">[14-18]. Work practices were observed during small building renovation and remodeling </text>
   <text y="705.36" x="49.68,55.68,59.76,66.0,68.88,74.16,79.44,83.04,87.6,90.6,92.16,95.28,101.04,104.04,105.36,110.64,113.64,114.96,120.96,126.96,130.08,135.84,141.12,145.44,150.24,153.12,156.96,162.48,165.48,166.8,171.36,176.64,180.24,183.84,186.96,192.72,198.72,201.72,203.28,206.4,212.16,215.16,216.48,227.04,233.28,238.56,244.08,253.2,259.2,262.32,268.32,274.32,279.6,282.6,283.92,289.44,295.2,301.2,304.2,305.52,311.52,317.76,323.04,329.04,338.16,343.68,349.44,353.04,358.32,364.32,367.32,368.64,377.28,380.16,383.76,389.52,392.52,393.84,399.84,405.6,411.84,415.2,421.44,427.44,431.52,436.8,442.8,448.56,453.12,456.24,459.24,460.56,466.56,472.56,478.56,481.68,484.8,489.6,495.6,500.88,506.88,509.88,511.2,516.48,520.56,524.16,527.04,532.56,535.68,541.2,546.0" svgx:width="0.5,0.33,0.5,0.28,0.44,0.44,0.28,0.39,0.25,0.55,0.28,0.5,0.25,0.55,0.44,0.25,0.55,0.5,0.5,0.28,0.5,0.44,0.33,0.39,0.28,0.28,0.5,0.25,0.55,0.39,0.44,0.28,0.28,0.28,0.5,0.5,0.25,0.55,0.28,0.5,0.25,0.55,0.89,0.5,0.44,0.44,0.78,0.5,0.28,0.5,0.5,0.44,0.25,0.55,0.44,0.5,0.5,0.25,0.55,0.5,0.5,0.44,0.5,0.78,0.44,0.5,0.28,0.44,0.5,0.25,0.55,0.72,0.28,0.28,0.5,0.25,0.55,0.5,0.5,0.5,0.28,0.5,0.5,0.33,0.44,0.5,0.5,0.39,0.25,0.25,0.55,0.5,0.5,0.5,0.28,0.28,0.39,0.5,0.44,0.5,0.25,0.55,0.44,0.33,0.28,0.28,0.44,0.28,0.44,0.39,0.25" style="fill:rgb(0,0,0);font-family:TimesNewRomanPSMT;font-size:12.0px;stroke:none;">projects in a university setting in Mozambique and documented with photographs, published articles </text>
   <text y="722.4" x="49.68,54.96,60.72,66.72,69.72,74.4,80.16,85.68,90.96,96.24,100.32,106.32,109.32,114.0,119.28,125.04,130.56,133.68,139.68,144.96,148.8,151.68,157.92,163.68,166.68,171.36,175.44,180.72,186.48,192.72,196.56,200.16,204.48,207.48,211.92,218.16,221.76,224.76,229.44,234.24,243.36,248.88,252.0,255.12,259.2,264.0,269.28,274.8,277.92,283.2,286.2,290.88,296.88,302.4,311.28,317.76,320.88,323.76,327.6,330.48,336.96,342.72,345.72,350.4,356.64,362.64,367.68,371.76,377.04,380.64,383.52,389.76,395.52,400.08,403.08,407.76,416.4,421.68,425.76,431.04,434.04,438.72,442.8,448.08,454.08,456.96,462.24,470.88,476.16,482.16,485.16,489.84,493.92,499.92,503.04,509.04,512.16,518.16,523.92,527.04,532.8,538.8,542.88,546.0,548.88" svgx:width="0.44,0.5,0.5,0.25,0.55,0.5,0.44,0.44,0.44,0.33,0.5,0.25,0.55,0.44,0.5,0.44,0.28,0.5,0.44,0.28,0.28,0.5,0.5,0.25,0.55,0.33,0.44,0.5,0.5,0.33,0.28,0.39,0.25,0.55,0.5,0.33,0.25,0.55,0.39,0.78,0.44,0.28,0.28,0.33,0.39,0.44,0.44,0.28,0.44,0.25,0.55,0.5,0.44,0.78,0.5,0.28,0.28,0.28,0.28,0.5,0.5,0.25,0.55,0.5,0.5,0.44,0.33,0.44,0.28,0.28,0.5,0.5,0.39,0.25,0.55,0.72,0.44,0.33,0.44,0.25,0.55,0.33,0.44,0.5,0.28,0.44,0.72,0.44,0.5,0.25,0.55,0.33,0.5,0.25,0.5,0.25,0.5,0.5,0.25,0.5,0.5,0.33,0.25,0.25,0.25" style="fill:rgb(0,0,0);font-family:TimesNewRomanPSMT;font-size:12.0px;stroke:none;">and hazard evaluation reports of small-scale demolition operations were reviewed [2,3,12,13]. </text>
   <text y="739.44" x="49.68,57.12,62.88,68.88,74.16,78.24,81.84,86.4,90.24,98.88,104.16,108.24,113.52,117.36,122.64,127.2,133.2,138.48,144.48,148.08,151.44,157.44,161.28,167.28,171.12,177.36,183.36,186.24,192.24,197.52,200.52,201.6,204.72,210.48,216.48,222.48,226.08,229.92,234.0,239.28,245.28,250.56,254.64,260.64,263.76,269.52,275.52,279.36,288.0,294.24,298.32,304.32,308.16,314.16,318.24,323.52,328.56,332.16,335.04,340.32,345.6,349.44,355.68,361.44,366.0,371.28,375.6,381.36,386.64,390.48,393.36,399.6,405.36,409.92,413.04,416.88,422.16,427.92,433.92,436.92,438.0,441.84,447.12,452.4,457.2,460.32,466.56,469.68,474.96,478.8,484.08,490.08,496.08,500.16,506.4,511.68,516.96,522.72,528.24,532.8,536.64,540.0,546.0" svgx:width="0.61,0.5,0.5,0.44,0.33,0.28,0.39,0.25,0.72,0.44,0.33,0.44,0.25,0.44,0.39,0.5,0.44,0.5,0.25,0.28,0.5,0.25,0.5,0.33,0.5,0.5,0.28,0.5,0.44,0.25,0.55,0.28,0.5,0.5,0.5,0.28,0.25,0.33,0.44,0.5,0.44,0.33,0.5,0.28,0.5,0.5,0.25,0.72,0.5,0.33,0.5,0.25,0.5,0.33,0.44,0.44,0.28,0.28,0.44,0.44,0.25,0.5,0.5,0.39,0.44,0.33,0.5,0.44,0.28,0.28,0.5,0.5,0.39,0.25,0.25,0.44,0.5,0.5,0.25,0.55,0.33,0.44,0.44,0.39,0.28,0.5,0.28,0.44,0.25,0.44,0.5,0.5,0.33,0.5,0.44,0.44,0.5,0.44,0.39,0.25,0.28,0.5,0.25" style="fill:rgb(0,0,0);font-family:TimesNewRomanPSMT;font-size:12.0px;stroke:none;">Experts were asked to provide input regarding work practice observations, and feasible approaches to </text>
   <text y="756.48" x="49.68,54.96,60.72,66.72,72.96,77.52,83.52,87.6,92.88,96.0,101.28,107.52,113.28,116.88,120.72,126.96,129.84,132.96,136.08" svgx:width="0.44,0.5,0.5,0.5,0.39,0.5,0.33,0.44,0.25,0.44,0.5,0.5,0.28,0.33,0.5,0.28,0.25,0.25,0.25" style="fill:rgb(0,0,0);font-family:TimesNewRomanPSMT;font-size:12.0px;stroke:none;">exposure control. </text>
  </g>
  <rect style="stroke:blue;stroke-width:0.3;" x="156.686" y="64.028" height="299.25" width="282.6" title="4"/>
  <text y="64.028" class="image" id="image.4.1" width="282" height="299" x="156.686">image.4.1.157_439.64_363</text>
 </g>
</svg>
