<?xml version="1.0" encoding="UTF-8"?>
<svg height="20.0" width="519.6231884057971" xmlns="http://www.w3.org/2000/svg">
 <g>
  <rect x="10.0" y="-215.0" width="3.6231884057971016" height="225.0" style="fill:cyan;opacity:0.3;"/>
  <text x="10.0" y="10.0" transform="matrix(6.123233995736766E-17,-1.0,1.0,6.123233995736766E-17,0.0,20.0)" style="font-size:1.0000000000000013px;">China</text>
  <rect x="13.0" y="-92.0" width="3.6231884057971016" height="102.0" style="fill:cyan;opacity:0.3;"/>
  <text x="13.0" y="10.0" transform="matrix(6.123233995736766E-17,-1.0,1.0,6.123233995736766E-17,3.0,23.0)" style="font-size:1.0000000000000013px;">United States</text>
  <rect x="17.0" y="-70.0" width="3.6231884057971016" height="80.0" style="fill:cyan;opacity:0.3;"/>
  <text x="17.0" y="10.0" transform="matrix(6.123233995736766E-17,-1.0,1.0,6.123233995736766E-17,6.999999999999998,27.0)" style="font-size:1.0000000000000013px;">Republic of</text>
  <rect x="20.0" y="-63.0" width="3.6231884057971016" height="73.0" style="fill:cyan;opacity:0.3;"/>
  <text x="20.0" y="10.0" transform="matrix(6.123233995736766E-17,-1.0,1.0,6.123233995736766E-17,9.999999999999998,30.0)" style="font-size:1.0000000000000013px;">the United Stat</text>
  <rect x="24.0" y="-63.0" width="3.6231884057971016" height="73.0" style="fill:cyan;opacity:0.3;"/>
  <text x="24.0" y="10.0" transform="matrix(6.123233995736766E-17,-1.0,1.0,6.123233995736766E-17,13.999999999999998,34.0)" style="font-size:1.0000000000000013px;">France</text>
  <rect x="28.0" y="-60.0" width="3.6231884057971016" height="70.0" style="fill:cyan;opacity:0.3;"/>
  <text x="28.0" y="10.0" transform="matrix(6.123233995736766E-17,-1.0,1.0,6.123233995736766E-17,18.0,38.0)" style="font-size:1.0000000000000013px;">America</text>
  <rect x="31.0" y="-57.0" width="3.6231884057971016" height="67.0" style="fill:cyan;opacity:0.3;"/>
  <text x="31.0" y="10.0" transform="matrix(6.123233995736766E-17,-1.0,1.0,6.123233995736766E-17,21.0,41.0)" style="font-size:1.0000000000000013px;">Hong Kong</text>
  <rect x="35.0" y="-51.0" width="3.6231884057971016" height="61.0" style="fill:cyan;opacity:0.3;"/>
  <text x="35.0" y="10.0" transform="matrix(6.123233995736766E-17,-1.0,1.0,6.123233995736766E-17,25.0,45.0)" style="font-size:1.0000000000000013px;">United States,</text>
  <rect x="38.0" y="-47.0" width="3.6231884057971016" height="57.0" style="fill:cyan;opacity:0.3;"/>
  <text x="38.0" y="10.0" transform="matrix(6.123233995736766E-17,-1.0,1.0,6.123233995736766E-17,28.0,48.0)" style="font-size:1.0000000000000013px;">United States.</text>
  <rect x="42.0" y="-47.0" width="3.6231884057971016" height="57.0" style="fill:cyan;opacity:0.3;"/>
  <text x="42.0" y="10.0" transform="matrix(6.123233995736766E-17,-1.0,1.0,6.123233995736766E-17,32.0,52.0)" style="font-size:1.0000000000000013px;">the US</text>
  <rect x="46.0" y="-38.0" width="3.6231884057971016" height="48.0" style="fill:cyan;opacity:0.3;"/>
  <text x="46.0" y="10.0" transform="matrix(6.123233995736766E-17,-1.0,1.0,6.123233995736766E-17,36.0,56.0)" style="font-size:1.0000000000000013px;">the United Stat</text>
  <rect x="49.0" y="-35.0" width="3.6231884057971016" height="45.0" style="fill:cyan;opacity:0.3;"/>
  <text x="49.0" y="10.0" transform="matrix(6.123233995736766E-17,-1.0,1.0,6.123233995736766E-17,39.0,59.0)" style="font-size:1.0000000000000013px;">Brazil</text>
  <rect x="53.0" y="-35.0" width="3.6231884057971016" height="45.0" style="fill:cyan;opacity:0.3;"/>
  <text x="53.0" y="10.0" transform="matrix(6.123233995736766E-17,-1.0,1.0,6.123233995736766E-17,43.0,63.0)" style="font-size:1.0000000000000013px;">Italy</text>
  <rect x="57.0" y="-28.0" width="3.6231884057971016" height="38.0" style="fill:cyan;opacity:0.3;"/>
  <text x="57.0" y="10.0" transform="matrix(6.123233995736766E-17,-1.0,1.0,6.123233995736766E-17,47.0,67.0)" style="font-size:1.0000000000000013px;">the United Stat</text>
  <rect x="60.0" y="-25.0" width="3.6231884057971016" height="35.0" style="fill:cyan;opacity:0.3;"/>
  <text x="60.0" y="10.0" transform="matrix(6.123233995736766E-17,-1.0,1.0,6.123233995736766E-17,50.0,70.0)" style="font-size:1.0000000000000013px;">India</text>
  <rect x="64.0" y="-25.0" width="3.6231884057971016" height="35.0" style="fill:cyan;opacity:0.3;"/>
  <text x="64.0" y="10.0" transform="matrix(6.123233995736766E-17,-1.0,1.0,6.123233995736766E-17,54.0,74.0)" style="font-size:1.0000000000000013px;">Singapore</text>
  <rect x="67.0" y="-22.0" width="3.6231884057971016" height="32.0" style="fill:cyan;opacity:0.3;"/>
  <text x="67.0" y="10.0" transform="matrix(6.123233995736766E-17,-1.0,1.0,6.123233995736766E-17,57.0,77.0)" style="font-size:1.0000000000000013px;">Hong Kong.</text>
  <rect x="71.0" y="-22.0" width="3.6231884057971016" height="32.0" style="fill:cyan;opacity:0.3;"/>
  <text x="71.0" y="10.0" transform="matrix(6.123233995736766E-17,-1.0,1.0,6.123233995736766E-17,61.0,81.0)" style="font-size:1.0000000000000013px;">Mexico</text>
  <rect x="75.0" y="-15.0" width="3.6231884057971016" height="25.0" style="fill:cyan;opacity:0.3;"/>
  <text x="75.0" y="10.0" transform="matrix(6.123233995736766E-17,-1.0,1.0,6.123233995736766E-17,65.0,85.0)" style="font-size:1.0000000000000013px;">Guiana</text>
  <rect x="78.0" y="-15.0" width="3.6231884057971016" height="25.0" style="fill:cyan;opacity:0.3;"/>
  <text x="78.0" y="10.0" transform="matrix(6.123233995736766E-17,-1.0,1.0,6.123233995736766E-17,68.0,88.0)" style="font-size:1.0000000000000013px;">Congo</text>
  <rect x="82.0" y="-15.0" width="3.6231884057971016" height="25.0" style="fill:cyan;opacity:0.3;"/>
  <text x="82.0" y="10.0" transform="matrix(6.123233995736766E-17,-1.0,1.0,6.123233995736766E-17,72.0,92.0)" style="font-size:1.0000000000000013px;">Puerto Rico</text>
  <rect x="86.0" y="-15.0" width="3.6231884057971016" height="25.0" style="fill:cyan;opacity:0.3;"/>
  <text x="86.0" y="10.0" transform="matrix(6.123233995736766E-17,-1.0,1.0,6.123233995736766E-17,76.0,96.0)" style="font-size:1.0000000000000013px;">Nigeria</text>
  <rect x="89.0" y="-15.0" width="3.6231884057971016" height="25.0" style="fill:cyan;opacity:0.3;"/>
  <text x="89.0" y="10.0" transform="matrix(6.123233995736766E-17,-1.0,1.0,6.123233995736766E-17,79.0,99.0)" style="font-size:1.0000000000000013px;">Cuba</text>
  <rect x="93.0" y="-15.0" width="3.6231884057971016" height="25.0" style="fill:cyan;opacity:0.3;"/>
  <text x="93.0" y="10.0" transform="matrix(6.123233995736766E-17,-1.0,1.0,6.123233995736766E-17,83.0,103.0)" style="font-size:1.0000000000000013px;">Uganda</text>
  <rect x="96.0" y="-12.0" width="3.6231884057971016" height="22.0" style="fill:cyan;opacity:0.3;"/>
  <text x="96.0" y="10.0" transform="matrix(6.123233995736766E-17,-1.0,1.0,6.123233995736766E-17,86.0,106.0)" style="font-size:1.0000000000000013px;">Tanzania</text>
  <rect x="100.0" y="-12.0" width="3.6231884057971016" height="22.0" style="fill:cyan;opacity:0.3;"/>
  <text x="100.0" y="10.0" transform="matrix(6.123233995736766E-17,-1.0,1.0,6.123233995736766E-17,90.0,110.0)" style="font-size:1.0000000000000013px;">Germany</text>
  <rect x="104.0" y="-12.0" width="3.6231884057971016" height="22.0" style="fill:cyan;opacity:0.3;"/>
  <text x="104.0" y="10.0" transform="matrix(6.123233995736766E-17,-1.0,1.0,6.123233995736766E-17,94.0,114.0)" style="font-size:1.0000000000000013px;">South Korea</text>
  <rect x="107.0" y="-12.0" width="3.6231884057971016" height="22.0" style="fill:cyan;opacity:0.3;"/>
  <text x="107.0" y="10.0" transform="matrix(6.123233995736766E-17,-1.0,1.0,6.123233995736766E-17,97.0,117.0)" style="font-size:1.0000000000000013px;">French Guiana</text>
  <rect x="111.0" y="-9.0" width="3.6231884057971016" height="19.0" style="fill:cyan;opacity:0.3;"/>
  <text x="111.0" y="10.0" transform="matrix(6.123233995736766E-17,-1.0,1.0,6.123233995736766E-17,101.0,121.0)" style="font-size:1.0000000000000013px;">French Guiana,</text>
  <rect x="115.0" y="-9.0" width="3.6231884057971016" height="19.0" style="fill:cyan;opacity:0.3;"/>
  <text x="115.0" y="10.0" transform="matrix(6.123233995736766E-17,-1.0,1.0,6.123233995736766E-17,105.0,125.0)" style="font-size:1.0000000000000013px;">Hong Kong,</text>
  <rect x="118.0" y="-9.0" width="3.6231884057971016" height="19.0" style="fill:cyan;opacity:0.3;"/>
  <text x="118.0" y="10.0" transform="matrix(6.123233995736766E-17,-1.0,1.0,6.123233995736766E-17,108.0,128.0)" style="font-size:1.0000000000000013px;">Canada</text>
  <rect x="122.0" y="-9.0" width="3.6231884057971016" height="19.0" style="fill:cyan;opacity:0.3;"/>
  <text x="122.0" y="10.0" transform="matrix(6.123233995736766E-17,-1.0,1.0,6.123233995736766E-17,112.0,132.0)" style="font-size:1.0000000000000013px;">Thailand</text>
  <rect x="125.0" y="-9.0" width="3.6231884057971016" height="19.0" style="fill:cyan;opacity:0.3;"/>
  <text x="125.0" y="10.0" transform="matrix(6.123233995736766E-17,-1.0,1.0,6.123233995736766E-17,115.0,135.0)" style="font-size:1.0000000000000013px;">Saudi Arabia</text>
  <rect x="129.0" y="-6.0" width="3.6231884057971016" height="16.0" style="fill:cyan;opacity:0.3;"/>
  <text x="129.0" y="10.0" transform="matrix(6.123233995736766E-17,-1.0,1.0,6.123233995736766E-17,119.0,139.0)" style="font-size:1.0000000000000013px;">Nepal</text>
  <rect x="133.0" y="-6.0" width="3.6231884057971016" height="16.0" style="fill:cyan;opacity:0.3;"/>
  <text x="133.0" y="10.0" transform="matrix(6.123233995736766E-17,-1.0,1.0,6.123233995736766E-17,122.99999999999999,143.0)" style="font-size:1.0000000000000013px;">Island</text>
  <rect x="136.0" y="-6.0" width="3.6231884057971016" height="16.0" style="fill:cyan;opacity:0.3;"/>
  <text x="136.0" y="10.0" transform="matrix(6.123233995736766E-17,-1.0,1.0,6.123233995736766E-17,125.99999999999999,146.0)" style="font-size:1.0000000000000013px;">Taiwan</text>
  <rect x="140.0" y="-6.0" width="3.6231884057971016" height="16.0" style="fill:cyan;opacity:0.3;"/>
  <text x="140.0" y="10.0" transform="matrix(6.123233995736766E-17,-1.0,1.0,6.123233995736766E-17,130.0,150.0)" style="font-size:1.0000000000000013px;">Guinea</text>
  <rect x="144.0" y="-6.0" width="3.6231884057971016" height="16.0" style="fill:cyan;opacity:0.3;"/>
  <text x="144.0" y="10.0" transform="matrix(6.123233995736766E-17,-1.0,1.0,6.123233995736766E-17,134.0,154.0)" style="font-size:1.0000000000000013px;">South Korea,</text>
  <rect x="147.0" y="-6.0" width="3.6231884057971016" height="16.0" style="fill:cyan;opacity:0.3;"/>
  <text x="147.0" y="10.0" transform="matrix(6.123233995736766E-17,-1.0,1.0,6.123233995736766E-17,137.0,157.0)" style="font-size:1.0000000000000013px;">United Kingdom</text>
  <rect x="151.0" y="-6.0" width="3.6231884057971016" height="16.0" style="fill:cyan;opacity:0.3;"/>
  <text x="151.0" y="10.0" transform="matrix(6.123233995736766E-17,-1.0,1.0,6.123233995736766E-17,141.0,161.0)" style="font-size:1.0000000000000013px;">Puerto Rico.</text>
  <rect x="154.0" y="-6.0" width="3.6231884057971016" height="16.0" style="fill:cyan;opacity:0.3;"/>
  <text x="154.0" y="10.0" transform="matrix(6.123233995736766E-17,-1.0,1.0,6.123233995736766E-17,144.0,164.0)" style="font-size:1.0000000000000013px;">Sierra Leone</text>
  <rect x="158.0" y="-6.0" width="3.6231884057971016" height="16.0" style="fill:cyan;opacity:0.3;"/>
  <text x="158.0" y="10.0" transform="matrix(6.123233995736766E-17,-1.0,1.0,6.123233995736766E-17,148.0,168.0)" style="font-size:1.0000000000000013px;">Democratic Repu</text>
  <rect x="162.0" y="-2.0" width="3.6231884057971016" height="12.0" style="fill:cyan;opacity:0.3;"/>
  <text x="162.0" y="10.0" transform="matrix(6.123233995736766E-17,-1.0,1.0,6.123233995736766E-17,152.0,172.0)" style="font-size:1.0000000000000013px;">Greece</text>
  <rect x="165.0" y="-2.0" width="3.6231884057971016" height="12.0" style="fill:cyan;opacity:0.3;"/>
  <text x="165.0" y="10.0" transform="matrix(6.123233995736766E-17,-1.0,1.0,6.123233995736766E-17,155.0,175.0)" style="font-size:1.0000000000000013px;">Guatemala</text>
  <rect x="169.0" y="-2.0" width="3.6231884057971016" height="12.0" style="fill:cyan;opacity:0.3;"/>
  <text x="169.0" y="10.0" transform="matrix(6.123233995736766E-17,-1.0,1.0,6.123233995736766E-17,159.0,179.0)" style="font-size:1.0000000000000013px;">French Guiana.</text>
  <rect x="173.0" y="-2.0" width="3.6231884057971016" height="12.0" style="fill:cyan;opacity:0.3;"/>
  <text x="173.0" y="10.0" transform="matrix(6.123233995736766E-17,-1.0,1.0,6.123233995736766E-17,163.0,183.0)" style="font-size:1.0000000000000013px;">South Africa</text>
  <rect x="176.0" y="-2.0" width="3.6231884057971016" height="12.0" style="fill:cyan;opacity:0.3;"/>
  <text x="176.0" y="10.0" transform="matrix(6.123233995736766E-17,-1.0,1.0,6.123233995736766E-17,166.0,186.0)" style="font-size:1.0000000000000013px;">the USA</text>
  <rect x="180.0" y="-2.0" width="3.6231884057971016" height="12.0" style="fill:cyan;opacity:0.3;"/>
  <text x="180.0" y="10.0" transform="matrix(6.123233995736766E-17,-1.0,1.0,6.123233995736766E-17,170.0,190.0)" style="font-size:1.0000000000000013px;">Spain</text>
  <rect x="183.0" y="-2.0" width="3.6231884057971016" height="12.0" style="fill:cyan;opacity:0.3;"/>
  <text x="183.0" y="10.0" transform="matrix(6.123233995736766E-17,-1.0,1.0,6.123233995736766E-17,173.0,193.0)" style="font-size:1.0000000000000013px;">Puerto Rico,</text>
  <rect x="187.0" y="-2.0" width="3.6231884057971016" height="12.0" style="fill:cyan;opacity:0.3;"/>
  <text x="187.0" y="10.0" transform="matrix(6.123233995736766E-17,-1.0,1.0,6.123233995736766E-17,177.0,197.0)" style="font-size:1.0000000000000013px;">Colombia</text>
  <rect x="191.0" y="-2.0" width="3.6231884057971016" height="12.0" style="fill:cyan;opacity:0.3;"/>
  <text x="191.0" y="10.0" transform="matrix(6.123233995736766E-17,-1.0,1.0,6.123233995736766E-17,181.0,201.0)" style="font-size:1.0000000000000013px;">the USA,</text>
  <rect x="194.0" y="-2.0" width="3.6231884057971016" height="12.0" style="fill:cyan;opacity:0.3;"/>
  <text x="194.0" y="10.0" transform="matrix(6.123233995736766E-17,-1.0,1.0,6.123233995736766E-17,184.0,204.0)" style="font-size:1.0000000000000013px;">United States o</text>
  <rect x="198.0" y="-2.0" width="3.6231884057971016" height="12.0" style="fill:cyan;opacity:0.3;"/>
  <text x="198.0" y="10.0" transform="matrix(6.123233995736766E-17,-1.0,1.0,6.123233995736766E-17,188.0,208.0)" style="font-size:1.0000000000000013px;">Democratic Repu</text>
  <rect x="202.0" y="1.0" width="3.6231884057971016" height="9.0" style="fill:cyan;opacity:0.3;"/>
  <text x="202.0" y="10.0" transform="matrix(6.123233995736766E-17,-1.0,1.0,6.123233995736766E-17,192.0,212.0)" style="font-size:1.0000000000000013px;">Iran</text>
  <rect x="205.0" y="1.0" width="3.6231884057971016" height="9.0" style="fill:cyan;opacity:0.3;"/>
  <text x="205.0" y="10.0" transform="matrix(6.123233995736766E-17,-1.0,1.0,6.123233995736766E-17,195.0,215.0)" style="font-size:1.0000000000000013px;">Turkey</text>
  <rect x="209.0" y="1.0" width="3.6231884057971016" height="9.0" style="fill:cyan;opacity:0.3;"/>
  <text x="209.0" y="10.0" transform="matrix(6.123233995736766E-17,-1.0,1.0,6.123233995736766E-17,199.0,219.0)" style="font-size:1.0000000000000013px;">Democratic Repu</text>
  <rect x="212.0" y="1.0" width="3.6231884057971016" height="9.0" style="fill:cyan;opacity:0.3;"/>
  <text x="212.0" y="10.0" transform="matrix(6.123233995736766E-17,-1.0,1.0,6.123233995736766E-17,202.0,222.0)" style="font-size:1.0000000000000013px;">Jamaica</text>
  <rect x="216.0" y="1.0" width="3.6231884057971016" height="9.0" style="fill:cyan;opacity:0.3;"/>
  <text x="216.0" y="10.0" transform="matrix(6.123233995736766E-17,-1.0,1.0,6.123233995736766E-17,206.0,226.0)" style="font-size:1.0000000000000013px;">Sweden</text>
  <rect x="220.0" y="1.0" width="3.6231884057971016" height="9.0" style="fill:cyan;opacity:0.3;"/>
  <text x="220.0" y="10.0" transform="matrix(6.123233995736766E-17,-1.0,1.0,6.123233995736766E-17,210.0,230.0)" style="font-size:1.0000000000000013px;">the US,</text>
  <rect x="223.0" y="1.0" width="3.6231884057971016" height="9.0" style="fill:cyan;opacity:0.3;"/>
  <text x="223.0" y="10.0" transform="matrix(6.123233995736766E-17,-1.0,1.0,6.123233995736766E-17,213.0,233.0)" style="font-size:1.0000000000000013px;">Australia</text>
  <rect x="227.0" y="1.0" width="3.6231884057971016" height="9.0" style="fill:cyan;opacity:0.3;"/>
  <text x="227.0" y="10.0" transform="matrix(6.123233995736766E-17,-1.0,1.0,6.123233995736766E-17,217.0,237.0)" style="font-size:1.0000000000000013px;">Ecuador</text>
  <rect x="231.0" y="1.0" width="3.6231884057971016" height="9.0" style="fill:cyan;opacity:0.3;"/>
  <text x="231.0" y="10.0" transform="matrix(6.123233995736766E-17,-1.0,1.0,6.123233995736766E-17,221.0,241.0)" style="font-size:1.0000000000000013px;">Saudi Arabia.</text>
  <rect x="234.0" y="1.0" width="3.6231884057971016" height="9.0" style="fill:cyan;opacity:0.3;"/>
  <text x="234.0" y="10.0" transform="matrix(6.123233995736766E-17,-1.0,1.0,6.123233995736766E-17,224.0,244.0)" style="font-size:1.0000000000000013px;">the USA.</text>
  <rect x="238.0" y="1.0" width="3.6231884057971016" height="9.0" style="fill:cyan;opacity:0.3;"/>
  <text x="238.0" y="10.0" transform="matrix(6.123233995736766E-17,-1.0,1.0,6.123233995736766E-17,228.0,248.0)" style="font-size:1.0000000000000013px;">New Zealand</text>
  <rect x="241.0" y="1.0" width="3.6231884057971016" height="9.0" style="fill:cyan;opacity:0.3;"/>
  <text x="241.0" y="10.0" transform="matrix(6.123233995736766E-17,-1.0,1.0,6.123233995736766E-17,231.0,251.0)" style="font-size:1.0000000000000013px;">Democratic Repu</text>
  <rect x="245.0" y="1.0" width="3.6231884057971016" height="9.0" style="fill:cyan;opacity:0.3;"/>
  <text x="245.0" y="10.0" transform="matrix(6.123233995736766E-17,-1.0,1.0,6.123233995736766E-17,235.0,255.0)" style="font-size:1.0000000000000013px;">Ireland</text>
  <rect x="249.0" y="1.0" width="3.6231884057971016" height="9.0" style="fill:cyan;opacity:0.3;"/>
  <text x="249.0" y="10.0" transform="matrix(6.123233995736766E-17,-1.0,1.0,6.123233995736766E-17,238.99999999999997,259.0)" style="font-size:1.0000000000000013px;">Dominican Repub</text>
  <rect x="252.0" y="4.0" width="3.6231884057971016" height="6.0" style="fill:cyan;opacity:0.3;"/>
  <text x="252.0" y="10.0" transform="matrix(6.123233995736766E-17,-1.0,1.0,6.123233995736766E-17,241.99999999999997,262.0)" style="font-size:1.0000000000000013px;">El Salvador,</text>
  <rect x="256.0" y="4.0" width="3.6231884057971016" height="6.0" style="fill:cyan;opacity:0.3;"/>
  <text x="256.0" y="10.0" transform="matrix(6.123233995736766E-17,-1.0,1.0,6.123233995736766E-17,245.99999999999997,266.0)" style="font-size:1.0000000000000013px;">Sudan</text>
  <rect x="260.0" y="4.0" width="3.6231884057971016" height="6.0" style="fill:cyan;opacity:0.3;"/>
  <text x="260.0" y="10.0" transform="matrix(6.123233995736766E-17,-1.0,1.0,6.123233995736766E-17,249.99999999999997,270.0)" style="font-size:1.0000000000000013px;">United States;</text>
  <rect x="263.0" y="4.0" width="3.6231884057971016" height="6.0" style="fill:cyan;opacity:0.3;"/>
  <text x="263.0" y="10.0" transform="matrix(6.123233995736766E-17,-1.0,1.0,6.123233995736766E-17,252.99999999999997,273.0)" style="font-size:1.0000000000000013px;">Guadeloupe</text>
  <rect x="267.0" y="4.0" width="3.6231884057971016" height="6.0" style="fill:cyan;opacity:0.3;"/>
  <text x="267.0" y="10.0" transform="matrix(6.123233995736766E-17,-1.0,1.0,6.123233995736766E-17,257.0,277.0)" style="font-size:1.0000000000000013px;">Democratic Repu</text>
  <rect x="270.0" y="4.0" width="3.6231884057971016" height="6.0" style="fill:cyan;opacity:0.3;"/>
  <text x="270.0" y="10.0" transform="matrix(6.123233995736766E-17,-1.0,1.0,6.123233995736766E-17,260.0,280.0)" style="font-size:1.0000000000000013px;">Trinidad and To</text>
  <rect x="274.0" y="4.0" width="3.6231884057971016" height="6.0" style="fill:cyan;opacity:0.3;"/>
  <text x="274.0" y="10.0" transform="matrix(6.123233995736766E-17,-1.0,1.0,6.123233995736766E-17,264.0,284.0)" style="font-size:1.0000000000000013px;">Northern Marian</text>
  <rect x="278.0" y="4.0" width="3.6231884057971016" height="6.0" style="fill:cyan;opacity:0.3;"/>
  <text x="278.0" y="10.0" transform="matrix(6.123233995736766E-17,-1.0,1.0,6.123233995736766E-17,268.0,288.0)" style="font-size:1.0000000000000013px;">United Kingdom,</text>
  <rect x="281.0" y="4.0" width="3.6231884057971016" height="6.0" style="fill:cyan;opacity:0.3;"/>
  <text x="281.0" y="10.0" transform="matrix(6.123233995736766E-17,-1.0,1.0,6.123233995736766E-17,271.0,291.0)" style="font-size:1.0000000000000013px;">Poland</text>
  <rect x="285.0" y="4.0" width="3.6231884057971016" height="6.0" style="fill:cyan;opacity:0.3;"/>
  <text x="285.0" y="10.0" transform="matrix(6.123233995736766E-17,-1.0,1.0,6.123233995736766E-17,275.0,295.0)" style="font-size:1.0000000000000013px;">South Africa,</text>
  <rect x="288.0" y="4.0" width="3.6231884057971016" height="6.0" style="fill:cyan;opacity:0.3;"/>
  <text x="288.0" y="10.0" transform="matrix(6.123233995736766E-17,-1.0,1.0,6.123233995736766E-17,278.0,298.0)" style="font-size:1.0000000000000013px;">Kenya</text>
  <rect x="292.0" y="4.0" width="3.6231884057971016" height="6.0" style="fill:cyan;opacity:0.3;"/>
  <text x="292.0" y="10.0" transform="matrix(6.123233995736766E-17,-1.0,1.0,6.123233995736766E-17,282.0,302.0)" style="font-size:1.0000000000000013px;">Switzerland</text>
  <rect x="296.0" y="4.0" width="3.6231884057971016" height="6.0" style="fill:cyan;opacity:0.3;"/>
  <text x="296.0" y="10.0" transform="matrix(6.123233995736766E-17,-1.0,1.0,6.123233995736766E-17,286.0,306.0)" style="font-size:1.0000000000000013px;">Liberia</text>
  <rect x="299.0" y="4.0" width="3.6231884057971016" height="6.0" style="fill:cyan;opacity:0.3;"/>
  <text x="299.0" y="10.0" transform="matrix(6.123233995736766E-17,-1.0,1.0,6.123233995736766E-17,289.0,309.0)" style="font-size:1.0000000000000013px;">Israel</text>
  <rect x="303.0" y="4.0" width="3.6231884057971016" height="6.0" style="fill:cyan;opacity:0.3;"/>
  <text x="303.0" y="10.0" transform="matrix(6.123233995736766E-17,-1.0,1.0,6.123233995736766E-17,293.0,313.0)" style="font-size:1.0000000000000013px;">Virgin Islands,</text>
  <rect x="307.0" y="4.0" width="3.6231884057971016" height="6.0" style="fill:cyan;opacity:0.3;"/>
  <text x="307.0" y="10.0" transform="matrix(6.123233995736766E-17,-1.0,1.0,6.123233995736766E-17,297.0,317.0)" style="font-size:1.0000000000000013px;">South Sudan</text>
  <rect x="310.0" y="4.0" width="3.6231884057971016" height="6.0" style="fill:cyan;opacity:0.3;"/>
  <text x="310.0" y="10.0" transform="matrix(6.123233995736766E-17,-1.0,1.0,6.123233995736766E-17,300.0,320.0)" style="font-size:1.0000000000000013px;">Saudi Arabia,</text>
  <rect x="314.0" y="4.0" width="3.6231884057971016" height="6.0" style="fill:cyan;opacity:0.3;"/>
  <text x="314.0" y="10.0" transform="matrix(6.123233995736766E-17,-1.0,1.0,6.123233995736766E-17,304.0,324.0)" style="font-size:1.0000000000000013px;">the Philippines</text>
  <rect x="317.0" y="4.0" width="3.6231884057971016" height="6.0" style="fill:cyan;opacity:0.3;"/>
  <text x="317.0" y="10.0" transform="matrix(6.123233995736766E-17,-1.0,1.0,6.123233995736766E-17,307.0,327.0)" style="font-size:1.0000000000000013px;">Federated State</text>
  <rect x="321.0" y="4.0" width="3.6231884057971016" height="6.0" style="fill:cyan;opacity:0.3;"/>
  <text x="321.0" y="10.0" transform="matrix(6.123233995736766E-17,-1.0,1.0,6.123233995736766E-17,311.0,331.0)" style="font-size:1.0000000000000013px;">eSwatini</text>
  <rect x="325.0" y="4.0" width="3.6231884057971016" height="6.0" style="fill:cyan;opacity:0.3;"/>
  <text x="325.0" y="10.0" transform="matrix(6.123233995736766E-17,-1.0,1.0,6.123233995736766E-17,315.0,335.0)" style="font-size:1.0000000000000013px;">Pakistan</text>
  <rect x="328.0" y="4.0" width="3.6231884057971016" height="6.0" style="fill:cyan;opacity:0.3;"/>
  <text x="328.0" y="10.0" transform="matrix(6.123233995736766E-17,-1.0,1.0,6.123233995736766E-17,318.0,338.0)" style="font-size:1.0000000000000013px;">Philippines</text>
  <rect x="332.0" y="4.0" width="3.6231884057971016" height="6.0" style="fill:cyan;opacity:0.3;"/>
  <text x="332.0" y="10.0" transform="matrix(6.123233995736766E-17,-1.0,1.0,6.123233995736766E-17,322.0,342.0)" style="font-size:1.0000000000000013px;">Marshall Island</text>
  <rect x="336.0" y="7.0" width="3.6231884057971016" height="3.0" style="fill:cyan;opacity:0.3;"/>
  <text x="336.0" y="10.0" transform="matrix(6.123233995736766E-17,-1.0,1.0,6.123233995736766E-17,326.0,346.0)" style="font-size:1.0000000000000013px;">Cambodia</text>
  <rect x="339.0" y="7.0" width="3.6231884057971016" height="3.0" style="fill:cyan;opacity:0.3;"/>
  <text x="339.0" y="10.0" transform="matrix(6.123233995736766E-17,-1.0,1.0,6.123233995736766E-17,329.0,349.0)" style="font-size:1.0000000000000013px;">Portugal</text>
  <rect x="343.0" y="7.0" width="3.6231884057971016" height="3.0" style="fill:cyan;opacity:0.3;"/>
  <text x="343.0" y="10.0" transform="matrix(6.123233995736766E-17,-1.0,1.0,6.123233995736766E-17,333.0,353.0)" style="font-size:1.0000000000000013px;">Democratic Repu</text>
  <rect x="346.0" y="7.0" width="3.6231884057971016" height="3.0" style="fill:cyan;opacity:0.3;"/>
  <text x="346.0" y="10.0" transform="matrix(6.123233995736766E-17,-1.0,1.0,6.123233995736766E-17,336.0,356.0)" style="font-size:1.0000000000000013px;">Mali</text>
  <rect x="350.0" y="7.0" width="3.6231884057971016" height="3.0" style="fill:cyan;opacity:0.3;"/>
  <text x="350.0" y="10.0" transform="matrix(6.123233995736766E-17,-1.0,1.0,6.123233995736766E-17,340.0,360.0)" style="font-size:1.0000000000000013px;">Trinidad and To</text>
  <rect x="354.0" y="7.0" width="3.6231884057971016" height="3.0" style="fill:cyan;opacity:0.3;"/>
  <text x="354.0" y="10.0" transform="matrix(6.123233995736766E-17,-1.0,1.0,6.123233995736766E-17,344.0,364.0)" style="font-size:1.0000000000000013px;">Sierra Leone,</text>
  <rect x="357.0" y="7.0" width="3.6231884057971016" height="3.0" style="fill:cyan;opacity:0.3;"/>
  <text x="357.0" y="10.0" transform="matrix(6.123233995736766E-17,-1.0,1.0,6.123233995736766E-17,347.0,367.0)" style="font-size:1.0000000000000013px;">Sierra Leone.</text>
  <rect x="361.0" y="7.0" width="3.6231884057971016" height="3.0" style="fill:cyan;opacity:0.3;"/>
  <text x="361.0" y="10.0" transform="matrix(6.123233995736766E-17,-1.0,1.0,6.123233995736766E-17,351.0,371.0)" style="font-size:1.0000000000000013px;">Ukraine</text>
  <rect x="365.0" y="7.0" width="3.6231884057971016" height="3.0" style="fill:cyan;opacity:0.3;"/>
  <text x="365.0" y="10.0" transform="matrix(6.123233995736766E-17,-1.0,1.0,6.123233995736766E-17,355.0,375.0)" style="font-size:1.0000000000000013px;">Ghana</text>
  <rect x="368.0" y="7.0" width="3.6231884057971016" height="3.0" style="fill:cyan;opacity:0.3;"/>
  <text x="368.0" y="10.0" transform="matrix(6.123233995736766E-17,-1.0,1.0,6.123233995736766E-17,358.0,378.0)" style="font-size:1.0000000000000013px;">Belgium</text>
  <rect x="372.0" y="7.0" width="3.6231884057971016" height="3.0" style="fill:cyan;opacity:0.3;"/>
  <text x="372.0" y="10.0" transform="matrix(6.123233995736766E-17,-1.0,1.0,6.123233995736766E-17,362.0,382.0)" style="font-size:1.0000000000000013px;">Faroe Islands</text>
  <rect x="375.0" y="7.0" width="3.6231884057971016" height="3.0" style="fill:cyan;opacity:0.3;"/>
  <text x="375.0" y="10.0" transform="matrix(6.123233995736766E-17,-1.0,1.0,6.123233995736766E-17,365.0,385.0)" style="font-size:1.0000000000000013px;">Hong Kong;</text>
  <rect x="379.0" y="7.0" width="3.6231884057971016" height="3.0" style="fill:cyan;opacity:0.3;"/>
  <text x="379.0" y="10.0" transform="matrix(6.123233995736766E-17,-1.0,1.0,6.123233995736766E-17,369.0,389.0)" style="font-size:1.0000000000000013px;">New Zealand,</text>
  <rect x="383.0" y="7.0" width="3.6231884057971016" height="3.0" style="fill:cyan;opacity:0.3;"/>
  <text x="383.0" y="10.0" transform="matrix(6.123233995736766E-17,-1.0,1.0,6.123233995736766E-17,373.0,393.0)" style="font-size:1.0000000000000013px;">PR China.</text>
  <rect x="386.0" y="7.0" width="3.6231884057971016" height="3.0" style="fill:cyan;opacity:0.3;"/>
  <text x="386.0" y="10.0" transform="matrix(6.123233995736766E-17,-1.0,1.0,6.123233995736766E-17,376.0,396.0)" style="font-size:1.0000000000000013px;">Yemen</text>
  <rect x="390.0" y="7.0" width="3.6231884057971016" height="3.0" style="fill:cyan;opacity:0.3;"/>
  <text x="390.0" y="10.0" transform="matrix(6.123233995736766E-17,-1.0,1.0,6.123233995736766E-17,380.0,400.0)" style="font-size:1.0000000000000013px;">Fiji</text>
  <rect x="394.0" y="7.0" width="3.6231884057971016" height="3.0" style="fill:cyan;opacity:0.3;"/>
  <text x="394.0" y="10.0" transform="matrix(6.123233995736766E-17,-1.0,1.0,6.123233995736766E-17,384.0,404.0)" style="font-size:1.0000000000000013px;">Chad</text>
  <rect x="397.0" y="7.0" width="3.6231884057971016" height="3.0" style="fill:cyan;opacity:0.3;"/>
  <text x="397.0" y="10.0" transform="matrix(6.123233995736766E-17,-1.0,1.0,6.123233995736766E-17,387.0,407.0)" style="font-size:1.0000000000000013px;">the Philippines</text>
  <rect x="401.0" y="7.0" width="3.6231884057971016" height="3.0" style="fill:cyan;opacity:0.3;"/>
  <text x="401.0" y="10.0" transform="matrix(6.123233995736766E-17,-1.0,1.0,6.123233995736766E-17,391.0,411.0)" style="font-size:1.0000000000000013px;">the USA;</text>
  <rect x="404.0" y="7.0" width="3.6231884057971016" height="3.0" style="fill:cyan;opacity:0.3;"/>
  <text x="404.0" y="10.0" transform="matrix(6.123233995736766E-17,-1.0,1.0,6.123233995736766E-17,394.0,414.0)" style="font-size:1.0000000000000013px;">South Korea.</text>
  <rect x="408.0" y="7.0" width="3.6231884057971016" height="3.0" style="fill:cyan;opacity:0.3;"/>
  <text x="408.0" y="10.0" transform="matrix(6.123233995736766E-17,-1.0,1.0,6.123233995736766E-17,398.0,418.0)" style="font-size:1.0000000000000013px;">the States</text>
  <rect x="412.0" y="7.0" width="3.6231884057971016" height="3.0" style="fill:cyan;opacity:0.3;"/>
  <text x="412.0" y="10.0" transform="matrix(6.123233995736766E-17,-1.0,1.0,6.123233995736766E-17,402.0,422.0)" style="font-size:1.0000000000000013px;">South Africa.</text>
  <rect x="415.0" y="7.0" width="3.6231884057971016" height="3.0" style="fill:cyan;opacity:0.3;"/>
  <text x="415.0" y="10.0" transform="matrix(6.123233995736766E-17,-1.0,1.0,6.123233995736766E-17,405.0,425.0)" style="font-size:1.0000000000000013px;">Venezuela</text>
  <rect x="419.0" y="7.0" width="3.6231884057971016" height="3.0" style="fill:cyan;opacity:0.3;"/>
  <text x="419.0" y="10.0" transform="matrix(6.123233995736766E-17,-1.0,1.0,6.123233995736766E-17,409.0,429.0)" style="font-size:1.0000000000000013px;">Mayotte</text>
  <rect x="423.0" y="7.0" width="3.6231884057971016" height="3.0" style="fill:cyan;opacity:0.3;"/>
  <text x="423.0" y="10.0" transform="matrix(6.123233995736766E-17,-1.0,1.0,6.123233995736766E-17,413.0,433.0)" style="font-size:1.0000000000000013px;">Soviet Union</text>
  <rect x="426.0" y="7.0" width="3.6231884057971016" height="3.0" style="fill:cyan;opacity:0.3;"/>
  <text x="426.0" y="10.0" transform="matrix(6.123233995736766E-17,-1.0,1.0,6.123233995736766E-17,416.0,436.0)" style="font-size:1.0000000000000013px;">Virgin Islands.</text>
  <rect x="430.0" y="7.0" width="3.6231884057971016" height="3.0" style="fill:cyan;opacity:0.3;"/>
  <text x="430.0" y="10.0" transform="matrix(6.123233995736766E-17,-1.0,1.0,6.123233995736766E-17,420.0,440.0)" style="font-size:1.0000000000000013px;">Cameroon</text>
  <rect x="433.0" y="7.0" width="3.6231884057971016" height="3.0" style="fill:cyan;opacity:0.3;"/>
  <text x="433.0" y="10.0" transform="matrix(6.123233995736766E-17,-1.0,1.0,6.123233995736766E-17,423.0,443.0)" style="font-size:1.0000000000000013px;">Dominican Repub</text>
  <rect x="437.0" y="7.0" width="3.6231884057971016" height="3.0" style="fill:cyan;opacity:0.3;"/>
  <text x="437.0" y="10.0" transform="matrix(6.123233995736766E-17,-1.0,1.0,6.123233995736766E-17,427.0,447.0)" style="font-size:1.0000000000000013px;">Gabon</text>
  <rect x="441.0" y="7.0" width="3.6231884057971016" height="3.0" style="fill:cyan;opacity:0.3;"/>
  <text x="441.0" y="10.0" transform="matrix(6.123233995736766E-17,-1.0,1.0,6.123233995736766E-17,431.0,451.0)" style="font-size:1.0000000000000013px;">American Samoa,</text>
  <rect x="444.0" y="7.0" width="3.6231884057971016" height="3.0" style="fill:cyan;opacity:0.3;"/>
  <text x="444.0" y="10.0" transform="matrix(6.123233995736766E-17,-1.0,1.0,6.123233995736766E-17,434.0,454.0)" style="font-size:1.0000000000000013px;">Mozambique</text>
  <rect x="448.0" y="7.0" width="3.6231884057971016" height="3.0" style="fill:cyan;opacity:0.3;"/>
  <text x="448.0" y="10.0" transform="matrix(6.123233995736766E-17,-1.0,1.0,6.123233995736766E-17,438.0,458.0)" style="font-size:1.0000000000000013px;">American Samoa.</text>
  <rect x="452.0" y="7.0" width="3.6231884057971016" height="3.0" style="fill:cyan;opacity:0.3;"/>
  <text x="452.0" y="10.0" transform="matrix(6.123233995736766E-17,-1.0,1.0,6.123233995736766E-17,442.0,462.0)" style="font-size:1.0000000000000013px;">Zaire</text>
  <rect x="455.0" y="7.0" width="3.6231884057971016" height="3.0" style="fill:cyan;opacity:0.3;"/>
  <text x="455.0" y="10.0" transform="matrix(6.123233995736766E-17,-1.0,1.0,6.123233995736766E-17,445.0,465.0)" style="font-size:1.0000000000000013px;">Hungary</text>
  <rect x="459.0" y="7.0" width="3.6231884057971016" height="3.0" style="fill:cyan;opacity:0.3;"/>
  <text x="459.0" y="10.0" transform="matrix(6.123233995736766E-17,-1.0,1.0,6.123233995736766E-17,449.0,469.0)" style="font-size:1.0000000000000013px;">Eswatini</text>
  <rect x="462.0" y="7.0" width="3.6231884057971016" height="3.0" style="fill:cyan;opacity:0.3;"/>
  <text x="462.0" y="10.0" transform="matrix(6.123233995736766E-17,-1.0,1.0,6.123233995736766E-17,452.0,472.0)" style="font-size:1.0000000000000013px;">the Netherlands</text>
  <rect x="466.0" y="7.0" width="3.6231884057971016" height="3.0" style="fill:cyan;opacity:0.3;"/>
  <text x="466.0" y="10.0" transform="matrix(6.123233995736766E-17,-1.0,1.0,6.123233995736766E-17,456.0,476.0)" style="font-size:1.0000000000000013px;">Senegal</text>
  <rect x="470.0" y="7.0" width="3.6231884057971016" height="3.0" style="fill:cyan;opacity:0.3;"/>
  <text x="470.0" y="10.0" transform="matrix(6.123233995736766E-17,-1.0,1.0,6.123233995736766E-17,460.0,480.0)" style="font-size:1.0000000000000013px;">British Virgin </text>
  <rect x="473.0" y="7.0" width="3.6231884057971016" height="3.0" style="fill:cyan;opacity:0.3;"/>
  <text x="473.0" y="10.0" transform="matrix(6.123233995736766E-17,-1.0,1.0,6.123233995736766E-17,463.0,483.0)" style="font-size:1.0000000000000013px;">the Philippines</text>
  <rect x="477.0" y="7.0" width="3.6231884057971016" height="3.0" style="fill:cyan;opacity:0.3;"/>
  <text x="477.0" y="10.0" transform="matrix(6.123233995736766E-17,-1.0,1.0,6.123233995736766E-17,467.0,487.0)" style="font-size:1.0000000000000013px;">Egypt</text>
  <rect x="481.0" y="7.0" width="3.6231884057971016" height="3.0" style="fill:cyan;opacity:0.3;"/>
  <text x="481.0" y="10.0" transform="matrix(6.123233995736766E-17,-1.0,1.0,6.123233995736766E-17,470.99999999999994,491.0)" style="font-size:1.0000000000000013px;">South Sudan,</text>
  <rect x="484.0" y="7.0" width="3.6231884057971016" height="3.0" style="fill:cyan;opacity:0.3;"/>
  <text x="484.0" y="10.0" transform="matrix(6.123233995736766E-17,-1.0,1.0,6.123233995736766E-17,473.99999999999994,494.0)" style="font-size:1.0000000000000013px;">Burkina Faso,</text>
  <rect x="488.0" y="7.0" width="3.6231884057971016" height="3.0" style="fill:cyan;opacity:0.3;"/>
  <text x="488.0" y="10.0" transform="matrix(6.123233995736766E-17,-1.0,1.0,6.123233995736766E-17,477.99999999999994,498.0)" style="font-size:1.0000000000000013px;">Central African</text>
  <rect x="491.0" y="7.0" width="3.6231884057971016" height="3.0" style="fill:cyan;opacity:0.3;"/>
  <text x="491.0" y="10.0" transform="matrix(6.123233995736766E-17,-1.0,1.0,6.123233995736766E-17,480.99999999999994,501.0)" style="font-size:1.0000000000000013px;">Schweiz</text>
  <rect x="495.0" y="7.0" width="3.6231884057971016" height="3.0" style="fill:cyan;opacity:0.3;"/>
  <text x="495.0" y="10.0" transform="matrix(6.123233995736766E-17,-1.0,1.0,6.123233995736766E-17,484.99999999999994,505.0)" style="font-size:1.0000000000000013px;">Bangladesh</text>
  <rect x="499.0" y="7.0" width="3.6231884057971016" height="3.0" style="fill:cyan;opacity:0.3;"/>
  <text x="499.0" y="10.0" transform="matrix(6.123233995736766E-17,-1.0,1.0,6.123233995736766E-17,488.99999999999994,509.0)" style="font-size:1.0000000000000013px;">Norway</text>
  <rect x="502.0" y="7.0" width="3.6231884057971016" height="3.0" style="fill:cyan;opacity:0.3;"/>
  <text x="502.0" y="10.0" transform="matrix(6.123233995736766E-17,-1.0,1.0,6.123233995736766E-17,491.99999999999994,512.0)" style="font-size:1.0000000000000013px;">Suriname</text>
  <rect x="506.0" y="7.0" width="3.6231884057971016" height="3.0" style="fill:cyan;opacity:0.3;"/>
  <text x="506.0" y="10.0" transform="matrix(6.123233995736766E-17,-1.0,1.0,6.123233995736766E-17,495.99999999999994,516.0)" style="font-size:1.0000000000000013px;">U.S. Virgin Isl</text>
 </g>
</svg>
