<?xml version="1.0" encoding="UTF-8"?>
<svg height="767.08" width="4046.0" xmlns="http://www.w3.org/2000/svg">
 <g id="page" xmlns:svgx="http://www.xml-cml.org/schema/svgx">
  <path style="fill:rgb(59,90,166);stroke:none;stroke-width:1.0;" d="M460.230 103.350 L540.740 103.350 Z"/>
  <path style="fill:rgb(59,90,166);stroke:none;stroke-width:1.0;" d="M226.490 112.880 L284.940 112.880 Z"/>
  <path style="fill:rgb(59,90,166);stroke:none;stroke-width:1.0;" d="M310.390 112.880 L345.260 112.880 Z"/>
  <path style="fill:rgb(59,90,166);stroke:none;stroke-width:1.0;" d="M539.430 135.380 L575.770 135.380 Z"/>
  <path style="fill:rgb(59,90,166);stroke:none;stroke-width:1.0;" d="M226.490 144.850 L307.790 144.850 Z"/>
  <path style="fill:rgb(59,90,166);stroke:none;stroke-width:1.0;" d="M333.240 144.850 L368.160 144.850 Z"/>
  <path style="fill:rgb(59,90,166);stroke:none;stroke-width:1.0;" d="M250.130 189.860 L411.420 189.860 Z"/>
  <path style="fill:rgb(59,90,166);stroke:none;stroke-width:1.0;" d="M436.880 189.860 L471.800 189.860 Z"/>
  <path style="fill:rgb(59,90,166);stroke:none;stroke-width:1.0;" d="M302.570 221.840 L461.590 221.840 Z"/>
  <path style="fill:rgb(59,90,166);stroke:none;stroke-width:1.0;" d="M487.050 221.840 L521.970 221.840 Z"/>
  <path style="fill:rgb(59,90,166);stroke:none;stroke-width:1.0;" d="M369.750 244.350 L513.980 244.350 Z"/>
  <path style="fill:rgb(59,90,166);stroke:none;stroke-width:1.0;" d="M538.700 244.350 L572.660 244.350 Z"/>
  <path style="fill:rgb(59,90,166);stroke:none;stroke-width:1.0;" d="M455.470 276.380 L535.970 276.380 Z"/>
  <path style="fill:rgb(59,90,166);stroke:none;stroke-width:1.0;" d="M226.490 285.850 L280.570 285.850 Z"/>
  <path style="fill:rgb(59,90,166);stroke:none;stroke-width:1.0;" d="M306.030 285.850 L340.890 285.850 Z"/>
  <path style="fill:rgb(59,90,166);stroke:none;stroke-width:1.0;" d="M400.880 353.370 L547.310 353.370 Z"/>
  <path style="fill:rgb(59,90,166);stroke:none;stroke-width:1.0;" d="M226.490 362.830 L261.410 362.830 Z"/>
  <path style="fill:rgb(59,90,166);stroke:none;stroke-width:1.0;" d="M337.890 385.340 L488.180 385.340 Z"/>
  <path style="fill:rgb(59,90,166);stroke:none;stroke-width:1.0;" d="M379.050 407.850 L558.090 407.850 Z"/>
  <path style="fill:rgb(59,90,166);stroke:none;stroke-width:1.0;" d="M226.490 417.370 L252.740 417.370 Z"/>
  <path style="fill:rgb(59,90,166);stroke:none;stroke-width:1.0;" d="M278.190 417.370 L313.060 417.370 Z"/>
  <path style="fill:rgb(59,90,166);stroke:none;stroke-width:1.0;" d="M226.490 449.350 L261.410 449.350 Z"/>
  <path style="fill:rgb(59,90,166);stroke:none;stroke-width:1.0;" d="M518.800 471.860 L568.740 471.860 Z"/>
  <path style="fill:rgb(59,90,166);stroke:none;stroke-width:1.0;" d="M226.490 481.380 L302.970 481.380 Z"/>
  <path style="fill:rgb(59,90,166);stroke:none;stroke-width:1.0;" d="M328.420 481.380 L363.290 481.380 Z"/>
  <path style="fill:rgb(59,90,166);stroke:none;stroke-width:1.0;" d="M450.310 513.350 L530.820 513.350 Z"/>
  <path style="fill:rgb(59,90,166);stroke:none;stroke-width:1.0;" d="M226.490 522.880 L299.850 522.880 Z"/>
  <path style="fill:rgb(59,90,166);stroke:none;stroke-width:1.0;" d="M325.360 522.880 L360.230 522.880 Z"/>
  <path style="fill:rgb(59,90,166);stroke:none;stroke-width:1.0;" d="M250.130 554.850 L382.110 554.850 Z"/>
  <path style="fill:rgb(59,90,166);stroke:none;stroke-width:1.0;" d="M407.570 554.850 L442.540 554.850 Z"/>
  <path style="fill:rgb(59,90,166);stroke:none;stroke-width:1.0;" d="M518.740 577.360 L568.630 577.360 Z"/>
  <path style="fill:rgb(59,90,166);stroke:none;stroke-width:1.0;" d="M226.490 586.890 L294.180 586.890 Z"/>
  <path style="fill:rgb(59,90,166);stroke:none;stroke-width:1.0;" d="M319.630 586.890 L354.560 586.890 Z"/>
  <path style="fill:rgb(59,90,166);stroke:none;stroke-width:1.0;" d="M542.550 618.860 L566.310 618.860 Z"/>
  <path style="fill:rgb(59,90,166);stroke:none;stroke-width:1.0;" d="M226.490 628.380 L320.430 628.380 Z"/>
  <path style="fill:rgb(59,90,166);stroke:none;stroke-width:1.0;" d="M345.880 628.380 L380.810 628.380 Z"/>
  <path style="fill:rgb(59,90,166);stroke:none;stroke-width:1.0;" d="M477.980 695.850 L562.340 695.850 Z"/>
  <path style="fill:rgb(59,90,166);stroke:none;stroke-width:1.0;" d="M226.490 705.370 L303.480 705.370 Z"/>
  <path style="fill:rgb(59,90,166);stroke:none;stroke-width:1.0;" d="M328.930 705.370 L363.800 705.370 Z"/>
  <g begin="text">
   <text y="83.282" x="205.512,209.888,214.264" svgx:width="0.55,0.55,0.28" style="fill:rgb(0,0,0);font-family:Helvetica-Bold;font-size:8.0px;stroke:none;">43.</text>
   <text y="83.282" x="226.488,230.863,235.263,236.919,240.879,243.119,244.799,249.175,250.879,255.255,259.631,264.03099999999995,265.662,270.038,272.278,273.94,278.812,283.188,287.564,291.964,293.555,298.843,301.083,302.739,307.115,308.875,310.506,316.21,318.45,320.144,324.52,326.224,330.62399999999997,332.276,337.564,339.80400000000003,341.461,346.748,348.452,351.092,352.742,358.03,362.406,364.11,365.814,370.19,372.398,374.102,378.478,382.878,384.49,389.778,393.738,398.114,402.49,406.45,410.826,413.45,417.84999999999997,419.469,423.845,428.221,432.621,434.267,439.554,443.93,447.89,451.85,453.554,457.514,461.89,463.65,465.221,470.508,474.468,476.676,478.38,482.34,484.044,486.252,490.252,491.866,493.57,497.96999999999997,499.633,505.337,509.713,511.417,515.793,520.169,522.409,524.011,529.715,534.091,536.715,539.339,543.715,548.091,550.331,551.96,557.248,561.624,566.0,571.704,573.408" svgx:width="0.55,0.55,0.55,0.5,0.28,0.55,0.55,0.22,0.55,0.55,0.55,0.55,0.55,0.28,0.55,0.61,0.55,0.55,0.55,0.55,0.67,0.28,0.55,0.55,0.22,0.55,0.72,0.28,0.55,0.55,0.22,0.55,0.55,0.67,0.28,0.55,0.67,0.22,0.33,0.55,0.67,0.55,0.22,0.22,0.55,0.28,0.22,0.55,0.55,0.55,0.67,0.5,0.55,0.55,0.5,0.55,0.33,0.55,0.55,0.55,0.55,0.55,0.55,0.67,0.55,0.5,0.5,0.22,0.5,0.55,0.22,0.55,0.67,0.5,0.28,0.22,0.5,0.22,0.28,0.5,0.55,0.22,0.55,0.55,0.72,0.55,0.22,0.55,0.55,0.28,0.55,0.72,0.55,0.33,0.33,0.55,0.55,0.28,0.55,0.67,0.55,0.55,0.72,0.22,0.33" style="fill:rgb(0,0,0);font-family:Helvetica;font-size:8.0px;stroke:none;">Lu J, Liang L, Feng Y, Li R, Liu Y. Air Pollution Exposure and Physical Activity in China: Current Knowl-</text>
   <text y="92.806" x="226.488,230.863,235.239,239.615,243.991,246.23100000000002,247.918,253.206,257.582,261.957,263.661,265.365,269.365,271.048,276.752,281.128,285.504,287.208,289.416,293.816,295.483,297.691,304.315,308.691,310.395,312.098,316.058,320.434,322.642,324.346,328.722,333.098,336.925,339.165,340.893,345.269,349.645,354.04499999999996,355.747,360.619,364.995,367.203,371.579,374.203,378.60299999999995,380.295,385.999,390.375,394.335,398.711,403.087,405.711,409.671,414.07099999999997,415.728,421.432,425.807,430.183,434.559,438.519,440.759,442.374,444.582,448.958,451.166,455.541,458.165,462.541,466.917,469.125,470.829,475.205,479.581,483.957,485.717,487.331,491.291,495.667,500.043,502.667,507.042,511.418,513.178,514.826,519.202,521.442,523.161,528.449,532.825,536.784,538.488,541.112,545.384,549.76,556.383,560.759,565.135,567.343,571.719" svgx:width="0.55,0.55,0.55,0.55,0.28,0.55,0.67,0.55,0.55,0.22,0.22,0.5,0.55,0.72,0.55,0.55,0.22,0.28,0.55,0.55,0.28,0.83,0.55,0.22,0.22,0.5,0.55,0.28,0.22,0.55,0.55,0.5,0.28,0.55,0.55,0.55,0.55,0.55,0.61,0.55,0.28,0.55,0.33,0.55,0.55,0.72,0.55,0.5,0.55,0.55,0.33,0.5,0.55,0.55,0.72,0.55,0.55,0.55,0.5,0.28,0.55,0.28,0.55,0.28,0.55,0.33,0.55,0.55,0.28,0.22,0.55,0.55,0.55,0.22,0.55,0.5,0.55,0.55,0.33,0.55,0.55,0.22,0.55,0.55,0.28,0.55,0.67,0.55,0.5,0.22,0.33,0.55,0.55,0.83,0.55,0.55,0.28,0.55,0.22" style="fill:rgb(0,0,0);font-family:Helvetica;font-size:8.0px;stroke:none;">edge, Public Health Implications, and Future Research Needs. International Journal of Environmental</text>
   <text y="102.274" x="226.488,232.191,236.567,240.527,244.903,249.279,251.903,255.863,260.263,261.921,267.209,271.585,275.961,277.665,279.369,283.369,285.051,290.755,295.131,299.507,301.211,303.419,307.795,310.035,311.697,316.073,320.449,324.825,329.201,331.44100000000003,333.07,337.446,341.822,344.446,348.822,353.198,355.822,358.03,362.406,366.782,371.054,375.43,379.806,384.182,388.558,392.934,395.17400000000004,396.849,402.137,406.513,410.889,415.289,416.975,421.351,425.727,430.103,434.479,436.687,441.063,445.438,447.532,451.908,456.284" svgx:width="0.72,0.55,0.5,0.55,0.55,0.33,0.5,0.55,0.55,0.67,0.55,0.55,0.22,0.22,0.5,0.55,0.72,0.55,0.55,0.22,0.28,0.55,0.28,0.55,0.55,0.55,0.55,0.55,0.28,0.55,0.55,0.55,0.33,0.55,0.55,0.33,0.28,0.55,0.55,0.55,0.55,0.55,0.55,0.55,0.55,0.28,0.55,0.67,0.55,0.55,0.55,0.55,0.55,0.55,0.55,0.55,0.28,0.55,0.55,0.28,0.55,0.55,0.28" style="fill:rgb(0,0,0);font-family:Helvetica;font-size:8.0px;stroke:none;">Researcn Public Health. 2015; 12(11):14887–97. Epub 2015/11/28.</text>
   <text y="102.274" x="460.232,464.608,466.816,469.024,473.4,477.36,479.568,481.776,483.984,488.36,492.735,494.439,496.647,501.023,503.545,507.921,510.129,514.505,518.881,521.089,525.465,529.841,534.217,538.468" svgx:width="0.55,0.28,0.28,0.55,0.5,0.28,0.28,0.28,0.55,0.55,0.22,0.28,0.55,0.33,0.55,0.28,0.55,0.55,0.28,0.55,0.55,0.55,0.55,0.28" style="fill:rgb(59,90,166);font-family:Helvetica;font-size:8.0px;stroke:none;">https://doi.org/10.3390/</text>
   <text y="111.798" x="226.488,228.192,229.896,234.271,236.895,241.271,245.647,250.023,254.399,258.775,263.054,267.43,271.806,276.182,280.558" svgx:width="0.22,0.22,0.55,0.33,0.55,0.55,0.55,0.55,0.55,0.55,0.55,0.55,0.55,0.55,0.55" style="fill:rgb(59,90,166);font-family:Helvetica;font-size:8.0px;stroke:none;">ijerph121114887</text>
   <text y="111.798" x="286.639,291.927,298.551,300.759,306.463" svgx:width="0.67,0.83,0.28,0.72,0.28" style="fill:rgb(0,0,0);font-family:Helvetica;font-size:8.0px;stroke:none;">PMID:</text>
   <text y="111.798" x="310.393,314.769,319.145,323.521,327.897,332.273,336.528,340.904" svgx:width="0.55,0.55,0.55,0.55,0.55,0.55,0.55,0.55" style="fill:rgb(59,90,166);font-family:Helvetica;font-size:8.0px;stroke:none;">26610539</text>
   <text y="111.798" x="345.28" svgx:width="0.28" style="fill:rgb(0,0,0);font-family:Helvetica;font-size:8.0px;stroke:none;">.</text>
   <text y="124.781" x="205.512,209.888,214.264" svgx:width="0.55,0.55,0.28" style="fill:rgb(0,0,0);font-family:Helvetica-Bold;font-size:8.0px;stroke:none;">44.</text>
   <text y="124.781" x="226.488,231.775,236.151,240.55100000000002,242.248,247.952,250.192,251.942,257.646,262.022,266.398,270.798,272.465,277.753,279.993,281.706,287.41,291.786,296.162,300.56199999999995,302.229,307.933,310.173,311.866,317.57,321.946,326.322,328.026,330.234,334.63399999999996,336.358,338.062,344.686,349.062,353.438,357.398,359.63800000000003,361.303,365.679,367.919,369.58,373.956,378.332,380.54,384.916,389.292,393.668,396.308,397.983,402.359,404.063,406.703,408.471,412.847,417.223,418.927,420.631,425.007,427.215,428.823,433.199,437.599,439.312,441.016,445.416,447.192,452.896,457.272,458.976,463.352,467.728,469.968,471.627,475.587,479.963,482.587,485.211,489.587,493.963,496.20300000000003,497.819,501.779,506.154,510.53,516.234,517.938,522.314,526.69,531.066,535.466,537.107,541.483,545.859,550.259,551.96,554.168,558.544,560.752,565.128,567.752" svgx:width="0.67,0.55,0.55,0.55,0.72,0.28,0.55,0.72,0.55,0.55,0.55,0.55,0.67,0.28,0.55,0.72,0.55,0.55,0.55,0.55,0.72,0.28,0.55,0.72,0.55,0.55,0.22,0.28,0.55,0.55,0.22,0.83,0.55,0.55,0.5,0.28,0.55,0.55,0.28,0.55,0.55,0.55,0.28,0.55,0.55,0.55,0.33,0.55,0.55,0.22,0.33,0.55,0.55,0.55,0.22,0.22,0.55,0.28,0.22,0.55,0.55,0.55,0.22,0.55,0.55,0.72,0.55,0.22,0.55,0.55,0.28,0.55,0.5,0.55,0.33,0.33,0.55,0.55,0.28,0.55,0.5,0.55,0.55,0.72,0.22,0.55,0.55,0.55,0.55,0.55,0.55,0.55,0.55,0.55,0.28,0.55,0.28,0.55,0.33,0.55" style="fill:rgb(0,0,0);font-family:Helvetica;font-size:8.0px;stroke:none;">Kan H, Chen B, Hong C. Health impact of outdoor air pollution in China: current knowledge and future</text>
   <text y="134.305" x="226.488,229.112,233.487,237.447,241.823,246.199,248.823,252.783,257.183,258.859,263.235,267.611,271.987,276.363,280.323,282.563,284.2,289.488,293.864,297.824,299.528,302.152,306.528,310.904,317.422,321.798,326.174,328.382,332.758,334.518,336.188,340.564,344.94,349.316,351.02,353.228,357.628,359.319,363.695,368.071,370.695,374.654,379.03,383.406,387.366,389.574,391.278,395.238,399.513,403.473,405.713,407.394,411.77,416.146,420.522,424.898,427.13800000000003,428.823,433.199,437.575,441.951,444.575,448.951,451.575,453.783,459.071,463.349,467.725,472.101,474.341,476.048,481.336,485.712,490.088,494.488,496.175,500.551,504.926,509.302,513.678,515.886,520.262,524.521,526.729,531.105,535.481" svgx:width="0.33,0.55,0.5,0.55,0.55,0.33,0.5,0.55,0.55,0.55,0.55,0.55,0.55,0.5,0.28,0.55,0.67,0.55,0.5,0.22,0.33,0.55,0.55,0.83,0.55,0.55,0.28,0.55,0.22,0.55,0.55,0.55,0.55,0.22,0.28,0.55,0.55,0.55,0.55,0.33,0.5,0.55,0.55,0.5,0.28,0.22,0.5,0.55,0.5,0.28,0.55,0.55,0.55,0.55,0.55,0.28,0.55,0.55,0.55,0.55,0.33,0.55,0.33,0.28,0.67,0.55,0.55,0.55,0.28,0.55,0.67,0.55,0.55,0.55,0.55,0.55,0.55,0.55,0.55,0.28,0.55,0.55,0.28,0.55,0.55,0.28" style="fill:rgb(0,0,0);font-family:Helvetica;font-size:8.0px;stroke:none;">research needs. Environmental health perspectives. 2009; 117(5):A187. Epub 2009/05/30.</text>
   <text y="134.305" x="539.431,543.807,546.015,548.223,552.599,556.559,558.767,560.975,563.183,567.559,571.935,573.638" svgx:width="0.55,0.28,0.28,0.55,0.5,0.28,0.28,0.28,0.55,0.55,0.22,0.28" style="fill:rgb(59,90,166);font-family:Helvetica;font-size:8.0px;stroke:none;">https://doi.</text>
   <text y="143.772" x="226.488,230.863,233.487,237.863,240.071,244.447,248.823,251.031,255.407,259.783,264.159,268.535,270.743,275.017,279.392,283.768,285.976,290.352,294.728,299.104,303.363" svgx:width="0.55,0.33,0.55,0.28,0.55,0.55,0.28,0.55,0.55,0.55,0.55,0.28,0.55,0.55,0.55,0.28,0.55,0.55,0.55,0.55,0.55" style="fill:rgb(59,90,166);font-family:Helvetica;font-size:8.0px;stroke:none;">org/10.1289/ehp.12737</text>
   <text y="143.772" x="309.486,314.774,321.398,323.606,329.309" svgx:width="0.67,0.83,0.28,0.72,0.28" style="fill:rgb(0,0,0);font-family:Helvetica;font-size:8.0px;stroke:none;">PMID:</text>
   <text y="143.772" x="333.24,337.616,341.992,346.368,350.744,355.12,359.496,363.871" svgx:width="0.55,0.55,0.55,0.55,0.55,0.55,0.55,0.55" style="fill:rgb(59,90,166);font-family:Helvetica;font-size:8.0px;stroke:none;">19478975</text>
   <text y="143.772" x="368.247" svgx:width="0.28" style="fill:rgb(0,0,0);font-family:Helvetica;font-size:8.0px;stroke:none;">.</text>
   <text y="156.755" x="205.512,209.888,214.264" svgx:width="0.55,0.55,0.28" style="fill:rgb(0,0,0);font-family:Helvetica-Bold;font-size:8.0px;stroke:none;">45.</text>
   <text y="156.755" x="226.488,232.191,236.567,240.943,244.903,249.303,250.979,254.939,257.179,258.916,264.62,268.996,273.372,277.748,280.372,284.332,286.54,290.916,295.292,299.507,301.211,305.587,309.98699999999997,311.697,318.321,322.697,324.905,326.609,330.569,334.945,337.153,338.857,343.232,347.632,349.284,353.66,358.036,362.436,364.138,368.514,375.138,379.514,381.722,383.426,387.802,392.177,394.41700000000003,397.813,401.773,406.148,410.524,414.924,416.635,424.171,425.875,427.579,431.955,435.955,437.611,442.971,444.641,449.929,454.305,458.681,462.641,464.88100000000003,466.581,470.957,475.333,479.709,484.085" svgx:width="0.72,0.55,0.55,0.5,0.55,0.55,0.5,0.28,0.55,0.72,0.55,0.55,0.55,0.33,0.5,0.28,0.55,0.55,0.55,0.22,0.55,0.55,0.55,0.83,0.55,0.28,0.22,0.5,0.55,0.28,0.22,0.55,0.55,0.55,0.55,0.55,0.55,0.55,0.55,0.83,0.55,0.28,0.22,0.55,0.55,0.28,0.55,0.5,0.55,0.55,0.55,0.55,0.95,0.22,0.22,0.55,0.5,0.55,0.67,0.55,0.67,0.55,0.55,0.5,0.28,0.55,0.55,0.55,0.55,0.55,0.28" style="fill:rgb(0,0,0);font-family:Helvetica;font-size:8.0px;stroke:none;">Reeve J. Understanding motivation and emotion: John Wiley &amp; Sons; 2014.</text>
   <text y="169.794" x="205.512,209.888,214.264" svgx:width="0.55,0.55,0.28" style="fill:rgb(0,0,0);font-family:Helvetica-Bold;font-size:8.0px;stroke:none;">46.</text>
   <text y="169.794" x="226.488,233.111,234.815,239.191,243.591,245.31,251.518,253.758,255.458,260.746,265.121,269.497,273.457,277.833,282.103,284.727,289.12699999999995,290.891,297.515,299.755,301.435,307.139,311.515,315.891,320.291,321.958,327.662,329.902,331.653,337.357,341.732,345.692,350.068,354.33,358.706,363.082,365.706,370.106,371.847,378.471,386.007,388.247,389.933,395.221,397.845,402.221,406.596,410.556,414.82,419.21999999999997,420.943,426.231,430.191,432.431,434.153,439.857,444.233,450.857,457.481,461.857,464.065,465.674,470.05,474.45,476.162,480.538,484.914,489.29,493.666,497.626,499.33,503.706,506.33,510.33,511.935,516.311,520.687,525.087,526.789,531.164,535.124,539.5,543.876,547.836,552.212,554.836,559.236,560.918,563.126" svgx:width="0.83,0.22,0.55,0.55,0.55,0.78,0.28,0.55,0.67,0.55,0.55,0.5,0.55,0.55,0.33,0.55,0.55,0.83,0.28,0.55,0.72,0.55,0.55,0.55,0.55,0.72,0.28,0.55,0.72,0.55,0.5,0.55,0.55,0.55,0.55,0.33,0.55,0.55,0.83,0.95,0.28,0.55,0.67,0.33,0.55,0.55,0.5,0.55,0.55,0.55,0.67,0.5,0.28,0.55,0.72,0.55,0.83,0.83,0.55,0.28,0.22,0.55,0.55,0.55,0.55,0.55,0.55,0.55,0.5,0.22,0.55,0.33,0.5,0.55,0.55,0.55,0.55,0.55,0.55,0.5,0.55,0.55,0.5,0.55,0.33,0.55,0.55,0.28,0.55" style="fill:rgb(0,0,0);font-family:Helvetica;font-size:8.0px;stroke:none;">Miao Q, Bouchard M, Chen D, Rosenberg MW, Aronson KJ. Commuting behaviors and exposure to</text>
   <text y="179.262" x="226.488,230.863,232.567,235.207,236.919,241.295,245.671,247.375,249.079,253.455,255.663,257.367,261.743,266.143,267.817,269.521,273.921,275.641,282.264,286.64,291.016,293.224,295.848,300.224,304.6,306.304,308.544,310.222,315.926,320.302,324.678,329.054,333.43,337.806,340.046,341.687,346.975,350.935,352.639,357.015,361.391,365.351,369.751,371.394,375.77,378.01,379.728,381.936,386.312,390.712,392.427,397.299,401.675,403.883,408.259,410.019,411.646,416.934,421.31,425.27,426.974,429.598,433.974,438.35,444.974,449.35,453.726,455.809,460.185,461.889,464.129,465.844,470.22,474.596,478.972,483.348,485.588,487.274,491.65,496.026,500.402,502.61,506.986,511.362,515.738,520.114,524.489,526.729,528.319,533.607,537.983,542.359,546.759,548.445,552.821,557.197,561.573,565.949" svgx:width="0.55,0.22,0.33,0.55,0.55,0.55,0.22,0.22,0.55,0.28,0.22,0.55,0.55,0.55,0.22,0.55,0.55,0.83,0.55,0.55,0.28,0.33,0.55,0.55,0.22,0.28,0.55,0.72,0.55,0.55,0.55,0.55,0.55,0.28,0.55,0.67,0.5,0.22,0.55,0.55,0.5,0.55,0.55,0.55,0.28,0.55,0.28,0.55,0.55,0.55,0.61,0.55,0.28,0.55,0.22,0.55,0.67,0.55,0.5,0.22,0.33,0.55,0.55,0.83,0.55,0.55,0.28,0.55,0.22,0.28,0.55,0.55,0.55,0.55,0.55,0.28,0.55,0.55,0.55,0.55,0.28,0.55,0.55,0.55,0.55,0.55,0.28,0.55,0.67,0.55,0.55,0.55,0.55,0.55,0.55,0.55,0.55,0.28" style="fill:rgb(0,0,0);font-family:Helvetica;font-size:8.0px;stroke:none;">air pollution in Montreal, Canada. Science of the Total Environmental. 2015; 508:193–8. Epub 2014/</text>
   <text y="188.786" x="226.488,230.863,235.239,237.447,241.823,246.199" svgx:width="0.55,0.55,0.28,0.55,0.55,0.28" style="fill:rgb(0,0,0);font-family:Helvetica;font-size:8.0px;stroke:none;">12/06.</text>
   <text y="188.786" x="250.129,254.505,256.713,258.921,263.297,267.257,269.465,271.673,273.881,278.256,282.632,284.336,286.412,290.788,293.411,297.787,299.995,304.371,308.747,310.955,315.331,319.707,324.083,328.459,330.667,332.276,334.484,338.444,342.404,344.108,346.316,350.692,352.9,357.276,361.651,365.498,367.706,372.082,376.458,380.834,385.21,387.418,391.793,396.169,398.377,402.753,406.997" svgx:width="0.55,0.28,0.28,0.55,0.5,0.28,0.28,0.28,0.55,0.55,0.22,0.28,0.55,0.33,0.55,0.28,0.55,0.55,0.28,0.55,0.55,0.55,0.55,0.28,0.22,0.28,0.5,0.5,0.22,0.28,0.55,0.28,0.55,0.55,0.5,0.28,0.55,0.55,0.55,0.55,0.28,0.55,0.55,0.28,0.55,0.55,0.55" style="fill:rgb(59,90,166);font-family:Helvetica;font-size:8.0px;stroke:none;">https://doi.org/10.1016/j.scitotenv.2014.11.078</text>
   <text y="188.786" x="413.12,418.408,425.031,427.239,432.943" svgx:width="0.67,0.83,0.28,0.72,0.28" style="fill:rgb(0,0,0);font-family:Helvetica;font-size:8.0px;stroke:none;">PMID:</text>
   <text y="188.786" x="436.875,441.25,445.626,450.002,454.378,458.754,463.13,467.506" svgx:width="0.55,0.55,0.55,0.55,0.55,0.55,0.55,0.55" style="fill:rgb(59,90,166);font-family:Helvetica;font-size:8.0px;stroke:none;">25478656</text>
   <text y="188.786" x="471.882" svgx:width="0.28" style="fill:rgb(0,0,0);font-family:Helvetica;font-size:8.0px;stroke:none;">.</text>
   <text y="201.769" x="205.512,209.888,214.264" svgx:width="0.55,0.55,0.28" style="fill:rgb(0,0,0);font-family:Helvetica-Bold;font-size:8.0px;stroke:none;">47.</text>
   <text y="201.769" x="226.488,232.191,236.567,239.191,245.815,250.191,252.399,256.399,258.066,264.689,270.897,273.137,274.79,282.326,286.702,288.406,290.166,291.854,297.142,302.846,305.086,306.764,312.972,316.932,321.308,323.932,326.14,328.764,333.14,337.53999999999996,339.193,344.896,350.184,352.42400000000004,354.16,359.447,363.823,369.527,373.903,380.527,384.903,387.527,391.92699999999996,393.561,398.849,404.136,406.37600000000003,408.074,413.778,418.154,422.114,426.49,428.25,429.901,436.525,438.765,440.446,446.654,450.614,454.573,458.949,463.325,467.72499999999997,469.416,471.624,476.912,479.152,480.811,486.099,490.475,494.851,498.811,503.186,507.562,511.938,513.698,515.337,519.297,523.673,526.297,528.001,532.377,534.584,536.288,540.664,545.064,546.744,551.12" svgx:width="0.72,0.55,0.33,0.83,0.55,0.28,0.5,0.55,0.83,0.78,0.28,0.55,0.95,0.55,0.22,0.22,0.55,0.67,0.72,0.28,0.55,0.78,0.5,0.55,0.33,0.28,0.33,0.55,0.55,0.55,0.72,0.67,0.28,0.55,0.67,0.55,0.72,0.55,0.83,0.55,0.33,0.55,0.55,0.67,0.67,0.28,0.55,0.72,0.55,0.5,0.55,0.22,0.55,0.83,0.28,0.55,0.78,0.5,0.5,0.55,0.55,0.55,0.55,0.28,0.67,0.28,0.55,0.67,0.55,0.55,0.5,0.55,0.55,0.55,0.22,0.55,0.5,0.55,0.33,0.22,0.55,0.28,0.22,0.55,0.55,0.55,0.55,0.28" style="fill:rgb(0,0,0);font-family:Helvetica;font-size:8.0px;stroke:none;">Harmatz MG, Well AD, Overtree CE, Kawamura KY, Rosal M, Ockene IS. Seasonal variation of</text>
   <text y="211.294" x="226.488,230.863,235.239,239.615,242.239,246.615,250.575,254.535,256.239,260.503,264.90299999999996,266.626,271.002,275.378,279.77799999999996,281.48,285.856,288.064,292.439,296.815,299.455,301.152,307.776,312.152,316.528,320.904,324.864,327.104,328.761,333.161,334.884,336.588,340.964,345.34,349.716,351.42,353.628,358.003,362.379,364.083,368.459,372.835,374.59499999999997,376.213,380.589,384.965,389.341,391.965,396.341,400.717,404.677,409.052,411.29200000000003,412.95,416.91,421.286,425.662,428.286,432.662,437.038,438.798,440.389,444.765,447.005,448.723,453.099,454.803,459.179,460.883,465.259,469.635,471.339,475.299,479.675,481.435,483.079,485.703,490.079,494.039,496.247,500.622,507.246,511.206,513.446,515.053,519.429,523.805,528.181,532.557,534.797,536.483,540.859,545.235,547.859,552.235,554.859,557.067,561.443,565.818,570.194" svgx:width="0.55,0.55,0.55,0.33,0.55,0.5,0.5,0.22,0.55,0.55,0.55,0.55,0.55,0.55,0.55,0.55,0.28,0.55,0.55,0.33,0.55,0.83,0.55,0.55,0.55,0.5,0.28,0.55,0.55,0.55,0.22,0.55,0.55,0.55,0.22,0.28,0.55,0.55,0.22,0.55,0.55,0.22,0.55,0.55,0.55,0.55,0.33,0.55,0.55,0.5,0.55,0.28,0.55,0.5,0.55,0.55,0.33,0.55,0.55,0.22,0.55,0.55,0.28,0.55,0.55,0.22,0.55,0.22,0.55,0.55,0.22,0.5,0.55,0.22,0.55,0.33,0.55,0.5,0.28,0.55,0.83,0.5,0.28,0.55,0.55,0.55,0.55,0.55,0.28,0.55,0.55,0.55,0.33,0.55,0.33,0.28,0.55,0.55,0.55,0.55" style="fill:rgb(0,0,0);font-family:Helvetica;font-size:8.0px;stroke:none;">depression and other moods: a longitudinal approach. Journal of biological rhythms. 2000; 15(4):344–</text>
   <text y="220.761" x="226.487,230.863,235.239,237.479,239.187,244.474,248.85,253.226,257.626,259.313,263.689,268.065,272.44,276.816,279.024,283.4,287.776,289.87,294.246,298.622" svgx:width="0.55,0.55,0.28,0.55,0.67,0.55,0.55,0.55,0.55,0.55,0.55,0.55,0.55,0.28,0.55,0.55,0.28,0.55,0.55,0.28" style="fill:rgb(0,0,0);font-family:Helvetica;font-size:8.0px;stroke:none;">50. Epub 2000/08/15.</text>
   <text y="220.761" x="302.569,306.945,309.153,311.361,315.737,319.697,321.905,324.113,326.321,330.697,335.073,336.776,338.984,343.36,345.882,350.258,352.466,356.842,361.218,363.426,367.802,372.178,376.44,380.816,383.024,387.4,391.776,396.152,400.528,404.904,409.28,413.656,418.032,422.407,426.669,431.045,435.421,439.797,444.173,448.549,452.925,457.301" svgx:width="0.55,0.28,0.28,0.55,0.5,0.28,0.28,0.28,0.55,0.55,0.22,0.28,0.55,0.33,0.55,0.28,0.55,0.55,0.28,0.55,0.55,0.55,0.55,0.28,0.55,0.55,0.55,0.55,0.55,0.55,0.55,0.55,0.55,0.55,0.55,0.55,0.55,0.55,0.55,0.55,0.55,0.55" style="fill:rgb(59,90,166);font-family:Helvetica;font-size:8.0px;stroke:none;">https://doi.org/10.1177/074873000129001350</text>
   <text y="220.761" x="463.292,468.58,475.204,477.412,483.116" svgx:width="0.67,0.83,0.28,0.72,0.28" style="fill:rgb(0,0,0);font-family:Helvetica;font-size:8.0px;stroke:none;">PMID:</text>
   <text y="220.761" x="487.047,491.423,495.799,500.175,504.551,508.927,513.303,517.679" svgx:width="0.55,0.55,0.55,0.55,0.55,0.55,0.55,0.55" style="fill:rgb(59,90,166);font-family:Helvetica;font-size:8.0px;stroke:none;">10942266</text>
   <text y="220.761" x="522.055" svgx:width="0.28" style="fill:rgb(0,0,0);font-family:Helvetica;font-size:8.0px;stroke:none;">.</text>
   <text y="233.801" x="205.512,209.888,214.264" svgx:width="0.55,0.55,0.28" style="fill:rgb(0,0,0);font-family:Helvetica-Bold;font-size:8.0px;stroke:none;">48.</text>
   <text y="233.801" x="226.487,231.239,235.495,237.999,240.503,244.759,248.759,250.298,254.138,260.642,262.882,264.472,270.056,274.312,278.152,282.408,286.408,287.943,291.783,296.951,299.19100000000003,300.755,305.507,309.763,314.16299999999995,315.778,319.618,323.874,328.13,330.218,332.722,336.868,338.452,340.036,342.124,346.124,347.753,352.009,354.249,355.803,359.643,363.899,367.739,369.323,373.579,375.339,376.894,378.982,380.565,384.821,388.821,390.386,392.474,396.87399999999997,398.493,402.333,403.917,405.501,412.005,416.261,418.349,422.74899999999997,424.288,430.792,432.376,436.632,439.136,443.392,445.48,447.064,451.217,455.61699999999996,457.227,461.483,465.739,470.13899999999995,471.74,478.244,482.5,486.756,488.844,493.1,494.86,496.402,500.658,504.914,509.169,510.754,512.841,517.097,519.337,520.836,526.004,532.508,539.828,544.083,548.339,552.595,554.179,555.763" svgx:width="0.61,0.55,0.33,0.33,0.55,0.5,0.55,0.5,0.83,0.28,0.55,0.72,0.55,0.5,0.55,0.5,0.55,0.5,0.67,0.28,0.55,0.61,0.55,0.55,0.55,0.5,0.55,0.55,0.28,0.33,0.55,0.22,0.22,0.28,0.5,0.55,0.55,0.28,0.55,0.5,0.55,0.5,0.22,0.55,0.22,0.55,0.28,0.22,0.55,0.5,0.55,0.28,0.55,0.55,0.5,0.22,0.22,0.83,0.55,0.28,0.55,0.55,0.83,0.22,0.55,0.33,0.55,0.28,0.22,0.55,0.55,0.55,0.55,0.55,0.55,0.55,0.83,0.55,0.55,0.28,0.55,0.22,0.55,0.55,0.55,0.55,0.22,0.28,0.55,0.28,0.55,0.67,0.83,0.72,0.55,0.55,0.55,0.22,0.22,0.5" style="fill:rgb(0,0,0);font-family:Helvetica;font-size:8.0px;stroke:none;">Torres JM, Casey JA. The centrality of social ties to climate migration and mental health. BMCpublic</text>
   <text y="243.268" x="226.487,230.743,234.999,239.255,240.839,242.927,247.183,249.423,250.979,255.235,259.491,263.747,268.003,270.243,271.785,276.041,280.297,282.801,287.057,289.561,291.649,295.905,300.161,304.417,306.657,308.182,313.35,317.605,321.861,326.26099999999997,327.797,332.053,336.309,340.565,344.821,346.909,351.165,355.421,357.509,361.765,366.021" svgx:width="0.55,0.55,0.55,0.22,0.28,0.55,0.28,0.55,0.55,0.55,0.55,0.55,0.28,0.55,0.55,0.55,0.33,0.55,0.33,0.28,0.55,0.55,0.55,0.28,0.55,0.67,0.55,0.55,0.55,0.55,0.55,0.55,0.55,0.55,0.28,0.55,0.55,0.28,0.55,0.55,0.28" style="fill:rgb(0,0,0);font-family:Helvetica;font-size:8.0px;stroke:none;">health. 2017; 17(1):600. Epub 2017/07/07.</text>
   <text y="243.268" x="369.75,374.006,376.094,378.182,382.437,386.277,388.365,390.453,392.541,396.797,401.053,402.637,404.725,408.868,411.372,415.627,417.715,421.971,426.227,428.315,432.571,436.827,441.083,445.339,447.427,451.161,455.417,459.673,463.928,468.184,472.44,474.944,479.2,483.456,487.712,490.108,494.364,498.62,502.876,507.132,509.636" svgx:width="0.55,0.28,0.28,0.55,0.5,0.28,0.28,0.28,0.55,0.55,0.22,0.28,0.55,0.33,0.55,0.28,0.55,0.55,0.28,0.55,0.55,0.55,0.55,0.28,0.5,0.55,0.55,0.55,0.55,0.55,0.33,0.55,0.55,0.55,0.33,0.55,0.55,0.55,0.55,0.33,0.55" style="fill:rgb(59,90,166);font-family:Helvetica;font-size:8.0px;stroke:none;">https://doi.org/10.1186/s12889-017-4508-0</text>
   <text y="243.268" x="515.563,520.731,527.235,529.323,534.907" svgx:width="0.67,0.83,0.28,0.72,0.28" style="fill:rgb(0,0,0);font-family:Helvetica;font-size:8.0px;stroke:none;">PMID:</text>
   <text y="243.268" x="538.694,542.95,547.206,551.462,555.718,559.974,564.23,568.486" svgx:width="0.55,0.55,0.55,0.55,0.55,0.55,0.55,0.55" style="fill:rgb(59,90,166);font-family:Helvetica;font-size:8.0px;stroke:none;">28679398</text>
   <text y="243.268" x="572.742" svgx:width="0.28" style="fill:rgb(0,0,0);font-family:Helvetica;font-size:8.0px;stroke:none;">.</text>
   <text y="256.251" x="205.512,209.888,214.264" svgx:width="0.55,0.55,0.28" style="fill:rgb(0,0,0);font-family:Helvetica-Bold;font-size:8.0px;stroke:none;">49.</text>
   <text y="256.251" x="226.487,230.863,232.567,236.967,238.677,243.965,246.205,247.918,252.79,257.165,261.565,263.281,268.985,271.225,272.919,278.623,283.02299999999997,284.768,290.055,292.295,294.008,298.88,303.256,307.632,312.032,313.681,318.969,321.209,322.921,328.625,333.001,337.40099999999995,339.136,344.424,346.664,348.32,355.856,360.256,361.983,367.271,369.511,371.224,375.6,377.84000000000003,379.558,383.933,385.637,387.877,389.593,394.881,399.256,403.632,405.336,407.04,411.0,412.704,416.704,418.335,424.039,428.415,432.791,434.495,436.703,441.10299999999995,442.827,448.531,450.235,454.195,458.195,459.835,465.123,470.827,475.203,477.827,482.203,486.579,490.955,494.814,498.814,500.54,504.916,509.316,511.028,516.732,519.356,523.732,528.108,532.5079999999999,534.216,539.504,541.208,543.848,545.554,550.842,555.218,556.922,558.626,563.002,565.21,566.914,571.29" svgx:width="0.55,0.22,0.55,0.55,0.67,0.28,0.55,0.61,0.55,0.55,0.55,0.72,0.28,0.55,0.72,0.55,0.55,0.67,0.28,0.55,0.61,0.55,0.55,0.55,0.55,0.67,0.28,0.55,0.72,0.55,0.55,0.55,0.67,0.28,0.55,0.95,0.55,0.55,0.67,0.28,0.55,0.55,0.28,0.55,0.55,0.22,0.28,0.55,0.67,0.55,0.55,0.22,0.22,0.5,0.22,0.5,0.55,0.72,0.55,0.55,0.22,0.28,0.55,0.55,0.72,0.22,0.5,0.5,0.55,0.67,0.72,0.55,0.33,0.55,0.55,0.55,0.5,0.5,0.55,0.55,0.55,0.55,0.72,0.33,0.55,0.55,0.55,0.55,0.67,0.22,0.33,0.55,0.67,0.55,0.22,0.22,0.55,0.28,0.22,0.55,0.55" style="fill:rgb(0,0,0);font-family:Helvetica;font-size:8.0px;stroke:none;">Liu X, Zhu H, Hu Y, Feng S, Chu Y, Wu Y, et al. Public’s Health Risk Awareness on Urban Air Pollution</text>
   <text y="265.775" x="226.487,228.191,232.591,234.311,240.015,244.391,246.095,250.471,254.847,258.807,263.207,264.869,271.492,275.868,280.244,284.62,288.58,290.284,292.492,294.196,298.572,302.532,304.772,306.424,311.296,315.672,320.072,321.731,327.435,331.811,335.771,340.147,344.147,345.826,350.202,352.442,354.159,359.447,363.823,368.199,372.575,376.951,381.327,385.703,387.407,389.647,391.293,398.829,403.205,407.581,411.957,416.35699999999997,417.995,422.371,426.747,431.147,432.849,438.553,442.929,447.305,451.265,455.641,460.017,464.393,468.768,471.008,472.647,474.855,479.231,481.439,485.815,488.439,492.815,497.082,499.29,500.994,505.37,509.746,514.122,515.882,517.548,521.508,525.884,530.26,532.884,537.26,541.636,543.396,545.044,549.419,551.659,553.378,558.666,563.042,567.002,568.706" svgx:width="0.22,0.55,0.55,0.72,0.55,0.22,0.55,0.55,0.5,0.55,0.55,0.83,0.55,0.55,0.55,0.5,0.22,0.28,0.22,0.55,0.5,0.28,0.55,0.61,0.55,0.55,0.55,0.72,0.55,0.5,0.55,0.5,0.55,0.55,0.28,0.55,0.67,0.55,0.55,0.55,0.55,0.55,0.55,0.22,0.28,0.55,0.95,0.55,0.55,0.55,0.55,0.55,0.55,0.55,0.55,0.55,0.72,0.55,0.55,0.5,0.55,0.55,0.55,0.55,0.28,0.55,0.28,0.55,0.28,0.55,0.33,0.55,0.55,0.28,0.22,0.55,0.55,0.55,0.22,0.55,0.5,0.55,0.55,0.33,0.55,0.55,0.22,0.55,0.55,0.28,0.55,0.67,0.55,0.5,0.22,0.33" style="fill:rgb(0,0,0);font-family:Helvetica;font-size:8.0px;stroke:none;">in Chinese Megacities: The Cases of Shanghai, Wuhan and Nanchang. International Journal of Envi-</text>
   <text y="275.299" x="226.487,229.111,233.487,237.863,244.487,248.863,253.239,255.447,259.823,261.58299999999997,263.225,268.929,273.305,277.264,281.64,286.016,288.64,292.478,296.878,298.601,303.889,308.265,312.641,314.345,316.049,320.049,321.731,327.435,331.811,336.187,337.891,340.099,344.475,346.71500000000003,348.377,352.753,357.129,361.505,365.881,368.121,369.806,374.182,378.558,381.182,385.558,388.182,390.422,392.087,397.375,401.751,406.127,410.527,412.212,416.588,420.964,425.34,429.716,431.924,436.3,440.676,442.77,447.146,451.522" svgx:width="0.33,0.55,0.55,0.83,0.55,0.55,0.28,0.55,0.22,0.55,0.72,0.55,0.5,0.55,0.55,0.33,0.5,0.55,0.55,0.67,0.55,0.55,0.22,0.22,0.5,0.55,0.72,0.55,0.55,0.22,0.28,0.55,0.28,0.55,0.55,0.55,0.55,0.55,0.28,0.55,0.55,0.55,0.33,0.55,0.33,0.28,0.55,0.67,0.55,0.55,0.55,0.55,0.55,0.55,0.55,0.55,0.28,0.55,0.55,0.28,0.55,0.55,0.28" style="fill:rgb(0,0,0);font-family:Helvetica;font-size:8.0px;stroke:none;">ronmental Research Public Health. 2016; 13(9). Epub 2016/08/30.</text>
   <text y="275.299" x="455.469,459.845,462.053,464.261,468.637,472.597,474.805,477.013,479.221,483.597,487.973,489.677,491.885,496.261,498.782,503.158,505.366,509.742,514.118,516.326,520.702,525.078,529.34,533.716" svgx:width="0.55,0.28,0.28,0.55,0.5,0.28,0.28,0.28,0.55,0.55,0.22,0.28,0.55,0.33,0.55,0.28,0.55,0.55,0.28,0.55,0.55,0.55,0.55,0.28" style="fill:rgb(59,90,166);font-family:Helvetica;font-size:8.0px;stroke:none;">https://doi.org/10.3390/</text>
   <text y="284.767" x="226.487,228.191,229.895,234.271,236.895,241.271,245.647,250.023,254.399,258.775,263.054,267.43,271.806,276.182" svgx:width="0.22,0.22,0.55,0.33,0.55,0.55,0.55,0.55,0.55,0.55,0.55,0.55,0.55,0.55" style="fill:rgb(59,90,166);font-family:Helvetica;font-size:8.0px;stroke:none;">ijerph13090845</text>
   <text y="284.767" x="282.273,287.561,294.185,296.393,302.097" svgx:width="0.67,0.83,0.28,0.72,0.28" style="fill:rgb(0,0,0);font-family:Helvetica;font-size:8.0px;stroke:none;">PMID:</text>
   <text y="284.767" x="306.027,310.403,314.779,319.155,323.531,327.907,332.283,336.528" svgx:width="0.55,0.55,0.55,0.55,0.55,0.55,0.55,0.55" style="fill:rgb(59,90,166);font-family:Helvetica;font-size:8.0px;stroke:none;">27571088</text>
   <text y="284.767" x="340.904" svgx:width="0.28" style="fill:rgb(0,0,0);font-family:Helvetica;font-size:8.0px;stroke:none;">.</text>
   <text y="297.806" x="205.512,209.888,214.264" svgx:width="0.55,0.55,0.28" style="fill:rgb(0,0,0);font-family:Helvetica-Bold;font-size:8.0px;stroke:none;">50.</text>
   <text y="297.806" x="226.487,232.695,237.071" svgx:width="0.78,0.55,0.55" style="fill:rgb(0,0,0);font-family:Helvetica;font-size:8.0px;stroke:none;">Gue</text>
   <text y="297.523" x="237.939" svgx:width="0.33" style="fill:rgb(0,0,0);font-family:Helvetica;font-size:8.0px;stroke:none;">´</text>
   <text y="297.806" x="241.398,245.774,250.15,254.526,258.926,260.617,266.321,268.56100000000004,270.254,274.214,278.59,282.55,286.926,291.32599999999996,293.045,298.749" svgx:width="0.55,0.55,0.55,0.55,0.55,0.72,0.28,0.55,0.5,0.55,0.5,0.55,0.55,0.55,0.72,0.28" style="fill:rgb(0,0,0);font-family:Helvetica;font-size:8.0px;stroke:none;">guen N, Jacob C.</text>
  </g>
  <g begin="text">
   <text y="297.808" transform="matrix(-1.0,0.0,0.0,-1.0,611.49,595.616)" rotateDegrees="180" x="305.745" svgx:width="0.38" style="fill:rgb(0,0,0);font-family:PI_chars_1;font-size:0.0px;stroke:none;">@</text>
  </g>
  <g begin="text">
   <text y="297.808" x="305.688,311.392,315.768,318.392,322.792,324.509,328.469,332.845,339.469,343.845,347.845,349.511,351.719,356.095,360.495,362.154,366.114,370.49" svgx:width="0.72,0.55,0.33,0.55,0.55,0.5,0.55,0.83,0.55,0.5,0.55,0.28,0.55,0.55,0.55,0.5,0.55,0.55" style="fill:rgb(0,0,0);font-family:Helvetica;font-size:8.0px;stroke:none;">Here comes the sun</text>
   <text y="297.808" x="374.866" svgx:width="0.38" style="fill:rgb(0,0,0);font-family:PI_chars_1;font-size:8.0px;stroke:none;">@</text>
   <text y="297.808" x="377.906,380.146,381.826,387.113,391.073,392.777,397.153,401.529,405.905,409.865,414.265,415.955,420.331,422.571,424.289,426.497,430.873,435.27299999999997,436.931,441.307,443.515,445.723,450.099,454.059,456.29900000000004,457.964,462.34,464.58,466.298,468.506,472.882,477.282,478.997,484.701,489.077,493.453,495.661,500.037,504.413,507.053,508.704,512.664,517.04,521.416,525.792,527.496,529.704,531.408,535.784,540.16,544.16,545.838,550.214,554.614,556.269,560.229,564.605,571.229" svgx:width="0.28,0.55,0.67,0.5,0.22,0.55,0.55,0.55,0.5,0.55,0.55,0.55,0.28,0.55,0.28,0.55,0.55,0.55,0.55,0.28,0.28,0.55,0.5,0.28,0.55,0.55,0.28,0.55,0.28,0.55,0.55,0.55,0.72,0.55,0.55,0.28,0.55,0.55,0.33,0.55,0.5,0.55,0.55,0.55,0.22,0.28,0.22,0.55,0.55,0.5,0.55,0.55,0.55,0.55,0.5,0.55,0.83,0.33" style="fill:rgb(0,0,0);font-family:Helvetica;font-size:8.0px;stroke:none;">: Evidence of the effect of the weather conditions on com-</text>
   <text y="307.275" x="226.489,230.865,232.569,234.273,238.649,243.025,246.985,251.38500000000002,253.078,255.286,259.686,261.412,265.81199999999995,267.534,271.494,275.87,278.494,282.454,286.83,290.83,292.479,295.103,299.479,303.855,308.231,312.607,316.567,318.775,321.015,322.639,327.927,332.303,334.927,338.887,343.263,347.263,348.944,354.232,356.856,361.232,365.192,367.4,369.104,373.064,377.44,379.68,381.316,385.692,390.068,394.444,398.82,401.06,402.745,407.121,409.745,414.121,416.745,418.953,423.329,427.705,432.081" svgx:width="0.55,0.22,0.22,0.55,0.55,0.5,0.55,0.55,0.28,0.55,0.55,0.55,0.55,0.5,0.55,0.33,0.5,0.55,0.5,0.55,0.33,0.55,0.55,0.55,0.55,0.5,0.28,0.28,0.55,0.67,0.55,0.33,0.5,0.55,0.5,0.55,0.67,0.33,0.55,0.5,0.28,0.22,0.5,0.55,0.28,0.55,0.55,0.55,0.55,0.55,0.28,0.55,0.55,0.33,0.55,0.33,0.28,0.55,0.55,0.55,0.28" style="fill:rgb(0,0,0);font-family:Helvetica;font-size:8.0px;stroke:none;">pliance to a survey request. Survey Practice. 2014; 7(5):1–6.</text>
   <text y="320.258" x="205.513,209.889,214.264" svgx:width="0.55,0.55,0.28" style="fill:rgb(0,0,0);font-family:Helvetica-Bold;font-size:8.0px;stroke:none;">51.</text>
   <text y="320.258" x="226.489,231.777,236.153,240.529,244.905,247.529,251.489,255.865,260.265,261.921,267.625,272.913,275.153,276.832,282.536,286.912,291.287,293.527,295.2,299.576,303.952,308.352,310.053,314.013,315.717,320.093,321.797,326.173,330.549,334.509,338.884,341.124,342.764,348.468,352.844,355.468,358.092,362.468,366.844,369.084,370.771,375.146,376.85,379.474,383.85,387.81,390.018,391.722,396.098,400.474,404.474,406.09,407.794,412.19399999999996,413.914,418.29,422.25,426.21,430.17,434.546,438.922,440.626,445.002,449.378,451.081,455.041,459.417,461.17699999999996,462.783,466.743,470.703,472.407,476.783,481.159,485.119,489.495,491.735,493.397,497.773,502.149,506.525,510.901,513.141,514.77,519.146,523.522,526.146,530.522,533.146,535.354,539.73,544.106,548.482,552.755" svgx:width="0.67,0.55,0.55,0.55,0.33,0.5,0.55,0.55,0.55,0.72,0.67,0.28,0.55,0.72,0.55,0.55,0.28,0.55,0.55,0.55,0.55,0.55,0.5,0.22,0.55,0.22,0.55,0.55,0.5,0.55,0.28,0.55,0.72,0.55,0.33,0.33,0.55,0.55,0.28,0.55,0.55,0.22,0.33,0.55,0.5,0.28,0.22,0.55,0.55,0.5,0.55,0.22,0.55,0.55,0.55,0.5,0.5,0.5,0.55,0.55,0.22,0.55,0.55,0.22,0.5,0.55,0.22,0.55,0.5,0.5,0.22,0.55,0.55,0.5,0.55,0.28,0.55,0.55,0.55,0.55,0.55,0.28,0.55,0.55,0.55,0.33,0.55,0.33,0.28,0.55,0.55,0.55,0.55,0.28" style="fill:rgb(0,0,0);font-family:Helvetica;font-size:8.0px;stroke:none;">Anderson CA. Heat and violence. Current directions in psychological science. 2001; 10(1):33–8.</text>
   <text y="333.297" x="205.513,209.889,214.264" svgx:width="0.55,0.55,0.28" style="fill:rgb(0,0,0);font-family:Helvetica-Bold;font-size:8.0px;stroke:none;">52.</text>
   <text y="333.297" x="226.489,232.193,236.569,240.945,245.345,247.068,252.356,258.564,260.80400000000003,262.489,268.193,272.569,274.776,276.984,281.36,285.76,287.433,291.393,293.633,295.314,300.186,304.562,308.962,310.677,314.637,319.013,321.637,325.597,329.99699999999996,331.653,333.357,337.357,339.08,343.04,345.248,346.952,348.656,350.416,352.119,356.495,360.871,363.111,364.818,367.026,371.402,375.778,378.402,382.778,385.01800000000003,386.645,391.04499999999996,392.768,395.392,399.768,404.144,405.848,409.848,411.533,413.741,418.14099999999996,419.867,425.155,429.531,433.491,437.866,444.49,448.866,453.242,455.482,457.113,464.649,469.025,473.401,477.777,480.017,481.662,486.038,490.414,494.81399999999996,496.515,501.803,506.179,510.555,514.931,517.555,521.515,525.891,530.267,531.971,535.971,537.617,540.241,544.617,548.993,553.369,557.745,560.385,562.052,564.844,567.052" svgx:width="0.72,0.55,0.55,0.55,0.55,0.67,0.78,0.28,0.55,0.72,0.55,0.28,0.28,0.55,0.55,0.55,0.5,0.28,0.55,0.61,0.55,0.55,0.55,0.5,0.55,0.33,0.5,0.55,0.55,0.22,0.5,0.55,0.5,0.28,0.22,0.22,0.22,0.55,0.55,0.55,0.28,0.55,0.28,0.55,0.55,0.33,0.55,0.28,0.55,0.55,0.55,0.33,0.55,0.55,0.22,0.5,0.55,0.28,0.55,0.55,0.67,0.55,0.5,0.55,0.83,0.55,0.55,0.28,0.55,0.95,0.55,0.55,0.55,0.28,0.55,0.55,0.55,0.55,0.55,0.67,0.55,0.55,0.55,0.33,0.5,0.55,0.55,0.22,0.5,0.55,0.33,0.55,0.55,0.55,0.55,0.33,0.55,0.35,0.28,0.5" style="fill:rgb(0,0,0);font-family:Helvetica;font-size:8.0px;stroke:none;">Cohn EG, Rotton J. The curve is still out there: a reply to Bushman, Wang, and Anderson’s (2005) "Is</text>
   <text y="342.765" x="226.489,228.697,233.073,237.473,239.188,243.148,247.524,250.148,254.108,258.508,260.165,262.789,267.165,268.869,273.245,275.452,277.156,281.532,285.93199999999996,287.604,289.811,294.187,300.811,305.187,309.563,312.187,316.563,318.771,323.147,325.771,330.171,331.823,334.031,338.431,340.156,344.532,348.908,353.284,355.908,360.284,364.244,368.204,369.908,374.172,378.572,380.295,381.999,383.703,388.079,392.455,396.831,399.471,401.158,405.534,408.174,409.888,413.848,418.224,420.848,424.808,426.512,428.216,429.92,434.296,438.672,443.048,445.672,450.048,452.749,454.98900000000003,456.717,460.677,465.052,469.428,472.052,476.428,480.804,482.56399999999996,484.213,488.589,490.829,492.547,496.922,501.298,503.922,507.882,512.258,516.634,520.893,522.597,524.301,526.509,530.509,532.232,536.608,540.984,545.384,547.085,551.045,555.421,559.381,561.085,565.461" svgx:width="0.28,0.55,0.55,0.55,0.5,0.55,0.33,0.5,0.55,0.55,0.33,0.55,0.22,0.55,0.28,0.22,0.55,0.55,0.55,0.28,0.55,0.83,0.55,0.55,0.33,0.55,0.28,0.55,0.33,0.55,0.55,0.28,0.55,0.55,0.55,0.55,0.55,0.33,0.55,0.5,0.5,0.22,0.55,0.55,0.55,0.22,0.22,0.55,0.55,0.55,0.33,0.55,0.55,0.33,0.55,0.5,0.55,0.33,0.5,0.22,0.22,0.22,0.55,0.55,0.55,0.33,0.55,0.35,0.28,0.55,0.5,0.55,0.55,0.33,0.55,0.55,0.22,0.55,0.55,0.28,0.55,0.55,0.55,0.33,0.5,0.55,0.55,0.55,0.22,0.22,0.28,0.5,0.55,0.55,0.55,0.55,0.55,0.5,0.55,0.5,0.22,0.55,0.22" style="fill:rgb(0,0,0);font-family:Helvetica;font-size:8.0px;stroke:none;">the curve relating temperature to aggression linear or curvilinear?". Journal of personality and social</text>
   <text y="352.289" x="226.489,230.865,234.825,238.785,242.745,247.121,251.497,253.201,257.577,261.953,265.913,268.153,269.745,274.121,278.497,282.873,287.249,289.48900000000003,291.175,295.551,299.927,302.551,306.927,309.551,311.759,316.135,320.511,324.887,329.158,333.534,335.774,337.492,342.78,347.156,351.532,355.93199999999996,357.618,361.994,366.37,370.746,375.122,377.33,381.706,385.965,388.173,392.549,396.925" svgx:width="0.55,0.5,0.5,0.5,0.55,0.55,0.22,0.55,0.55,0.5,0.28,0.55,0.55,0.55,0.55,0.55,0.28,0.55,0.55,0.55,0.33,0.55,0.33,0.28,0.55,0.55,0.55,0.55,0.55,0.28,0.55,0.67,0.55,0.55,0.55,0.55,0.55,0.55,0.55,0.55,0.28,0.55,0.55,0.28,0.55,0.55,0.28" style="fill:rgb(0,0,0);font-family:Helvetica;font-size:8.0px;stroke:none;">psychology. 2005; 89(1):67–70. Epub 2005/08/03.</text>
   <text y="352.289" x="400.875,405.251,407.459,409.667,414.043,418.003,420.211,422.419,424.627,429.003,433.379,435.082,437.29,441.666,444.188,448.564,450.772,455.148,459.524,461.732,466.108,470.484,474.745,479.121,481.329,485.705,490.081,494.457,498.833,501.457,505.833,510.209,514.585,518.852,521.06,525.436,529.812,532.02,536.396,538.604,542.979" svgx:width="0.55,0.28,0.28,0.55,0.5,0.28,0.28,0.28,0.55,0.55,0.22,0.28,0.55,0.33,0.55,0.28,0.55,0.55,0.28,0.55,0.55,0.55,0.55,0.28,0.55,0.55,0.55,0.55,0.33,0.55,0.55,0.55,0.55,0.28,0.55,0.55,0.28,0.55,0.28,0.55,0.55" style="fill:rgb(59,90,166);font-family:Helvetica;font-size:8.0px;stroke:none;">https://doi.org/10.1037/0022-3514.89.1.67</text>
   <text y="352.289" x="549.012,554.3,560.924,563.132,568.836" svgx:width="0.67,0.83,0.28,0.72,0.28" style="fill:rgb(0,0,0);font-family:Helvetica;font-size:8.0px;stroke:none;">PMID:</text>
   <text y="361.757" x="226.489,230.865,235.241,239.617,243.993,248.369,252.745,257.121" svgx:width="0.55,0.55,0.55,0.55,0.55,0.55,0.55,0.55" style="fill:rgb(59,90,166);font-family:Helvetica;font-size:8.0px;stroke:none;">16060744</text>
   <text y="361.757" x="261.497" svgx:width="0.28" style="fill:rgb(0,0,0);font-family:Helvetica;font-size:8.0px;stroke:none;">.</text>
   <text y="374.796" x="205.513,209.888,214.264" svgx:width="0.55,0.55,0.28" style="fill:rgb(0,0,0);font-family:Helvetica-Bold;font-size:8.0px;stroke:none;">53.</text>
   <text y="374.796" x="226.489,232.193,236.569,238.777,240.985,245.361,249.761,251.434,255.394,257.634,259.37,265.074,269.45,273.826,278.226,279.893,285.181,291.389,293.629,295.314,301.522,305.898,308.106,312.482,316.858,321.233,323.873,325.53,330.402,334.778,341.402,345.778,350.154,352.778,357.154,359.263,363.639,366.263,370.638,372.878,374.57,380.274,381.978,383.682,390.305,394.681,396.889,401.289,402.972,408.676,413.052,417.428,419.636,422.26,426.636,428.34,430.58,432.283,436.658,441.034,445.43399999999997,447.079,452.783,455.407,457.111,463.735,465.439,469.815,474.191,475.95099999999996,477.636,482.924,486.884,490.844,495.22,499.596,501.3,503.508,505.748,507.4,512.688,517.064,521.024,522.728,525.352,529.728,534.104,540.622,544.998,549.374,551.614,553.321,557.697,562.073" svgx:width="0.72,0.55,0.28,0.28,0.55,0.55,0.55,0.5,0.28,0.55,0.72,0.55,0.55,0.55,0.55,0.67,0.78,0.28,0.55,0.78,0.55,0.28,0.55,0.55,0.55,0.33,0.55,0.61,0.55,0.83,0.55,0.55,0.33,0.55,0.28,0.55,0.33,0.55,0.28,0.55,0.72,0.22,0.22,0.83,0.55,0.28,0.55,0.55,0.72,0.55,0.55,0.28,0.33,0.55,0.22,0.28,0.55,0.55,0.55,0.55,0.55,0.72,0.33,0.22,0.83,0.22,0.55,0.55,0.22,0.55,0.67,0.5,0.5,0.55,0.55,0.22,0.28,0.28,0.55,0.67,0.55,0.5,0.22,0.33,0.55,0.55,0.83,0.55,0.55,0.28,0.55,0.55,0.55,0.55" style="fill:rgb(0,0,0);font-family:Helvetica;font-size:8.0px;stroke:none;">Rotton J, Cohn EG. Outdoor Temperature, Climate Control, and Criminal Assault. Environment and</text>
   <text y="384.264" x="226.489,231.777,236.153,240.529,244.905,248.865,250.569,254.945,257.569,259.809,261.468,265.844,270.22,274.596,278.972,281.212,282.898,287.274,291.65,294.274,298.65,301.274,303.482,307.858,312.234,316.61,320.825,325.201,329.577,333.953" svgx:width="0.67,0.55,0.55,0.55,0.5,0.22,0.55,0.33,0.28,0.55,0.55,0.55,0.55,0.55,0.28,0.55,0.55,0.55,0.33,0.55,0.33,0.28,0.55,0.55,0.55,0.55,0.55,0.55,0.55,0.28" style="fill:rgb(0,0,0);font-family:Helvetica;font-size:8.0px;stroke:none;">Behavior. 2004; 36(2):276–306.</text>
   <text y="384.264" x="337.889,342.265,344.473,346.681,351.057,355.017,357.225,359.433,361.641,366.017,370.393,372.097,374.305,378.681,381.202,385.578,387.786,392.162,396.538,398.746,403.122,407.498,411.76,416.135,418.343,422.719,427.095,431.471,435.847,440.223,444.599,448.975,453.351,457.727,461.989,466.365,470.741,475.117,479.493,483.869" svgx:width="0.55,0.28,0.28,0.55,0.5,0.28,0.28,0.28,0.55,0.55,0.22,0.28,0.55,0.33,0.55,0.28,0.55,0.55,0.28,0.55,0.55,0.55,0.55,0.28,0.55,0.55,0.55,0.55,0.55,0.55,0.55,0.55,0.55,0.55,0.55,0.55,0.55,0.55,0.55,0.55" style="fill:rgb(59,90,166);font-family:Helvetica;font-size:8.0px;stroke:none;">https://doi.org/10.1177/0013916503259515</text>
   <text y="397.303" x="205.513,209.888,214.264" svgx:width="0.55,0.55,0.28" style="fill:rgb(0,0,0);font-family:Helvetica-Bold;font-size:8.0px;stroke:none;">54.</text>
   <text y="397.303" x="226.489,231.777,236.153,240.113,244.073,245.777,250.153,252.79299999999998,254.495,260.199,265.903,268.14300000000003,269.802,275.09,277.714,282.09,288.714,293.09,295.33,297.015,302.303,306.262,308.502,310.223,315.095,319.471,323.871,325.53,329.906,334.282,335.986,340.362,344.738,351.362,353.066,357.442,359.146,363.522,367.898,371.898,373.492,377.868,380.108,381.826,386.201,390.577,394.953,397.577,401.953,405.913,409.873,411.577,415.841,420.241,421.964,426.34,430.3,432.924,437.3,441.26,445.26,446.966,450.925,455.301,457.005,459.213,463.589,466.213,470.589,474.549,476.789,478.43,483.718,488.094,492.47,496.846,501.222,502.98199999999997,504.622,510.326,514.702,518.662,520.366,524.742,530.446,534.446,536.087,541.375,545.751,550.127,551.831,553.535" svgx:width="0.67,0.55,0.5,0.5,0.22,0.55,0.33,0.55,0.72,0.72,0.28,0.55,0.67,0.33,0.55,0.83,0.55,0.28,0.55,0.67,0.5,0.28,0.55,0.61,0.55,0.55,0.55,0.55,0.55,0.22,0.55,0.55,0.83,0.22,0.55,0.22,0.55,0.55,0.5,0.55,0.55,0.28,0.55,0.55,0.55,0.55,0.33,0.55,0.5,0.5,0.22,0.55,0.55,0.55,0.55,0.5,0.33,0.55,0.5,0.5,0.55,0.5,0.55,0.22,0.28,0.55,0.33,0.55,0.5,0.28,0.55,0.67,0.55,0.55,0.55,0.55,0.22,0.55,0.72,0.55,0.5,0.22,0.55,0.72,0.5,0.55,0.67,0.55,0.55,0.22,0.22,0.5" style="fill:rgb(0,0,0);font-family:Helvetica;font-size:8.0px;stroke:none;">Kessler RC, Bromet EJ. The epidemiology of depression across cultures. Annual Reviews Public</text>
   <text y="406.771" x="226.489,232.193,236.569,240.945,242.649,244.857,249.233,251.473,253.134,257.51,261.886,266.262,270.638,272.878,274.564,278.94,283.316,285.524,289.9,294.276,298.652,303.028,307.404,311.641,313.88100000000003,315.609,320.897,325.273,329.649,334.049,335.735,340.111,344.487,348.863,353.239,355.447,359.823,364.199,366.407,370.782,375.158" svgx:width="0.72,0.55,0.55,0.22,0.28,0.55,0.28,0.55,0.55,0.55,0.55,0.55,0.28,0.55,0.55,0.55,0.28,0.55,0.55,0.55,0.55,0.55,0.55,0.28,0.55,0.67,0.55,0.55,0.55,0.55,0.55,0.55,0.55,0.55,0.28,0.55,0.55,0.28,0.55,0.55,0.28" style="fill:rgb(0,0,0);font-family:Helvetica;font-size:8.0px;stroke:none;">Health. 2013; 34:119–38. Epub 2013/03/22.</text>
   <text y="406.771" x="379.048,383.424,385.632,387.84,392.216,396.176,398.384,400.592,402.688,407.064,411.44,413.144,415.352,419.728,422.352,426.728,428.936,433.312,437.688,439.896,444.272,448.553,452.929,457.305,459.513,463.889,468.265,472.641,476.9,479.523,483.899,487.859,490.483,494.859,499.235,503.611,505.315,509.691,514.067,518.341,520.045,522.253,526.629,529.253,533.629,538.005,542.381,546.757,551.133,555.509" svgx:width="0.55,0.28,0.28,0.55,0.5,0.28,0.28,0.28,0.55,0.55,0.22,0.28,0.55,0.33,0.55,0.28,0.55,0.55,0.28,0.55,0.55,0.55,0.55,0.28,0.55,0.55,0.55,0.55,0.33,0.55,0.5,0.33,0.55,0.55,0.55,0.22,0.55,0.55,0.55,0.22,0.28,0.55,0.33,0.55,0.55,0.55,0.55,0.55,0.55,0.33" style="fill:rgb(59,90,166);font-family:Helvetica;font-size:8.0px;stroke:none;">https://doi.org/10.1146/annurev-publhealth-031912-</text>
   <text y="416.295" x="226.489,230.865,235.241,239.617,243.993,248.369" svgx:width="0.55,0.55,0.55,0.55,0.55,0.55" style="fill:rgb(59,90,166);font-family:Helvetica;font-size:8.0px;stroke:none;">114409</text>
   <text y="416.295" x="254.438,259.726,266.35,268.558,274.262" svgx:width="0.67,0.83,0.28,0.72,0.28" style="fill:rgb(0,0,0);font-family:Helvetica;font-size:8.0px;stroke:none;">PMID:</text>
   <text y="416.295" x="278.192,282.568,286.944,291.32,295.696,300.072,304.328,308.704" svgx:width="0.55,0.55,0.55,0.55,0.55,0.55,0.55,0.55" style="fill:rgb(59,90,166);font-family:Helvetica;font-size:8.0px;stroke:none;">23514317</text>
   <text y="416.295" x="313.08" svgx:width="0.28" style="fill:rgb(0,0,0);font-family:Helvetica;font-size:8.0px;stroke:none;">.</text>
   <text y="429.277" x="205.513,209.888,214.264" svgx:width="0.55,0.55,0.28" style="fill:rgb(0,0,0);font-family:Helvetica-Bold;font-size:8.0px;stroke:none;">55.</text>
   <text y="429.277" x="226.489,231.777,234.401,236.105,237.809,242.185,246.561,248.265,252.665,254.382,261.005,263.245,264.926,270.63,275.006,279.382,281.086,283.294,287.69399999999996,289.361,293.737,295.945,298.153,302.529,306.489,308.697,312.697,314.362,318.738,320.978,322.696,325.32,329.696,333.656,335.36,339.736,344.112,348.488,352.448,356.84799999999996,358.468,362.844,367.22,371.596,374.236,375.93,380.306,384.681,388.641,393.017,395.641,400.017,404.393,408.769,412.769,414.368,420.071,424.447,428.407,430.615,435.015,436.704,438.408,442.784,447.16,451.536,453.744,455.448,457.152,458.912,460.572,464.532,466.236,468.444,472.82,476.78,479.02,480.698,485.09799999999996,486.821,489.445,493.821,497.781,499.485,503.861,511.312,515.688,517.928,519.589,523.965,528.341,530.045,534.421,538.797,545.421,547.125,551.501,553.205,557.581,561.957,563.661" svgx:width="0.67,0.33,0.22,0.22,0.55,0.55,0.22,0.55,0.55,0.83,0.28,0.55,0.72,0.55,0.55,0.22,0.28,0.55,0.55,0.55,0.28,0.28,0.55,0.5,0.28,0.5,0.55,0.55,0.28,0.55,0.33,0.55,0.5,0.22,0.55,0.55,0.55,0.5,0.55,0.55,0.55,0.55,0.55,0.33,0.55,0.55,0.55,0.5,0.55,0.33,0.55,0.55,0.55,0.5,0.55,0.72,0.55,0.5,0.28,0.55,0.55,0.22,0.55,0.55,0.55,0.28,0.22,0.22,0.22,0.55,0.5,0.22,0.28,0.55,0.5,0.28,0.55,0.55,0.55,0.33,0.55,0.5,0.22,0.55,0.72,0.55,0.28,0.55,0.55,0.55,0.22,0.55,0.55,0.83,0.22,0.55,0.22,0.55,0.55,0.22,0.5" style="fill:rgb(0,0,0);font-family:Helvetica;font-size:8.0px;stroke:none;">Vrijheid M. Health effects of residence near hazardous waste landfill sites: a reviewof epidemiologic</text>
   <text y="438.802" x="226.489,228.193,229.897,232.105,236.481,239.105,243.481,245.689,250.065,252.689,257.065,259.305,260.958,266.246,270.622,274.582,276.286,278.91,283.286,287.662,294.18,298.556,302.932,305.14,309.516,311.276,312.944,317.32,321.696,326.072,327.776,329.984,334.38399999999996,336.075,340.451,344.827,347.451,351.411,355.787,360.163,364.123,366.331,368.034,371.994,376.27,380.23,382.47,384.15,388.526,392.902,397.278,401.654,403.894,405.58,409.956,414.332,418.73199999999997,420.434,425.722,430.098,434.474,438.85,440.61,442.26,446.636,448.844,453.22,457.596,461.972,466.348,470.724,475.1,477.34000000000003,478.94,484.228,488.604,492.98,497.38,499.066,503.442,507.818,512.194,516.57,518.778,523.154,527.53,529.738,534.114,538.49,540.73,542.38,547.667,554.291,556.499,562.203" svgx:width="0.22,0.22,0.28,0.55,0.33,0.55,0.28,0.55,0.33,0.55,0.28,0.55,0.67,0.55,0.5,0.22,0.33,0.55,0.55,0.83,0.55,0.55,0.28,0.55,0.22,0.55,0.55,0.55,0.55,0.22,0.28,0.55,0.55,0.55,0.55,0.33,0.5,0.55,0.55,0.5,0.28,0.22,0.5,0.55,0.5,0.28,0.55,0.55,0.55,0.55,0.55,0.28,0.55,0.55,0.55,0.55,0.55,0.67,0.55,0.55,0.55,0.22,0.55,0.55,0.28,0.55,0.55,0.55,0.55,0.55,0.55,0.28,0.55,0.67,0.55,0.55,0.55,0.55,0.55,0.55,0.55,0.55,0.28,0.55,0.55,0.28,0.55,0.55,0.28,0.55,0.67,0.83,0.28,0.72,0.28" style="fill:rgb(0,0,0);font-family:Helvetica;font-size:8.0px;stroke:none;">literature. Environmental health perspectives. 2000; 108 Suppl 1:101–12. Epub 2000/03/04. PMID:</text>
   <text y="448.27" x="226.489,230.865,235.241,239.617,243.993,248.369,252.745,257.121" svgx:width="0.55,0.55,0.55,0.55,0.55,0.55,0.55,0.55" style="fill:rgb(59,90,166);font-family:Helvetica;font-size:8.0px;stroke:none;">10698726</text>
   <text y="448.27" x="261.497" svgx:width="0.28" style="fill:rgb(0,0,0);font-family:Helvetica;font-size:8.0px;stroke:none;">.</text>
   <text y="461.252" x="205.513,209.888,214.264" svgx:width="0.55,0.55,0.28" style="fill:rgb(0,0,0);font-family:Helvetica-Bold;font-size:8.0px;stroke:none;">56.</text>
   <text y="461.252" x="226.489,230.865,232.569,240.832,246.12,251.824,254.06400000000002,255.686,260.973,262.677,270.993,276.696,278.93600000000004,280.574,285.862,287.566,295.824,299.784,305.488,307.728,309.373,314.661,319.037,323.43699999999995,325.02,330.308,332.548,334.204,339.492,343.868,346.492,350.492,352.119,357.823,363.111,365.351,366.972,372.676,377.052,381.428,385.828,387.438,392.726,398.43,400.67,402.292,407.58,409.284,411.924,413.574,417.95,422.326,424.03,425.734,430.11,432.318,434.022,438.398,442.798,444.358,448.734,453.109,457.50899999999996,459.155,463.115,467.075,473.699,478.075,480.283,484.659,491.283,495.283,496.798,501.174,503.414,505.076,509.452,513.828,518.204,520.828,525.204,529.164,533.124,534.828,539.092,543.492,545.157,546.861,551.261,552.924,557.3,559.004,563.38,567.756,570.38,572.084" svgx:width="0.55,0.22,0.83,0.67,0.72,0.28,0.55,0.67,0.22,0.83,0.72,0.28,0.55,0.67,0.22,0.83,0.5,0.72,0.28,0.55,0.67,0.55,0.55,0.55,0.67,0.28,0.55,0.67,0.55,0.33,0.5,0.55,0.72,0.67,0.28,0.55,0.72,0.55,0.55,0.55,0.55,0.67,0.72,0.28,0.55,0.67,0.22,0.33,0.55,0.55,0.55,0.22,0.22,0.55,0.28,0.22,0.55,0.55,0.55,0.55,0.55,0.55,0.55,0.5,0.5,0.83,0.55,0.28,0.55,0.83,0.5,0.55,0.55,0.28,0.55,0.55,0.55,0.55,0.33,0.55,0.5,0.5,0.22,0.55,0.55,0.55,0.22,0.55,0.55,0.55,0.22,0.55,0.55,0.33,0.22,0.5" style="fill:rgb(0,0,0);font-family:Helvetica;font-size:8.0px;stroke:none;">LimYH, KimH, KimJH, Bae S, Park HY, Hong YC. Air pollution and symptoms of depression in elderly</text>
   <text y="470.777" x="226.489,230.865,235.241,239.617,241.321,243.529,247.489,249.729,251.434,256.721,261.097,265.057,266.761,269.385,273.657,278.033,284.657,289.033,293.409,295.617,299.993,301.753,303.421,307.797,312.173,316.549,318.253,320.461,324.861,326.494,330.87,335.246,337.87,341.83,346.206,350.582,354.542,356.75,358.454,362.414,366.689,370.649,372.889,374.626,379.002,383.378,387.753,392.129,396.505,398.745,400.365,404.74,409.116,413.492,416.116,420.492,423.116,425.324,429.7,434.076,438.349,442.725,447.101,451.477,453.717,455.413,460.701,465.076,469.452,473.852,475.539,479.915,484.291,488.667,493.043,495.251,499.626,504.002,506.21,510.462,514.837" svgx:width="0.55,0.55,0.55,0.22,0.28,0.5,0.28,0.55,0.67,0.55,0.5,0.22,0.33,0.55,0.55,0.83,0.55,0.55,0.28,0.55,0.22,0.55,0.55,0.55,0.55,0.22,0.28,0.55,0.55,0.55,0.55,0.33,0.5,0.55,0.55,0.5,0.28,0.22,0.5,0.55,0.5,0.28,0.55,0.55,0.55,0.55,0.55,0.55,0.28,0.55,0.55,0.55,0.55,0.33,0.55,0.33,0.28,0.55,0.55,0.55,0.55,0.55,0.55,0.28,0.55,0.67,0.55,0.55,0.55,0.55,0.55,0.55,0.55,0.55,0.28,0.55,0.55,0.28,0.55,0.55,0.28" style="fill:rgb(0,0,0);font-family:Helvetica;font-size:8.0px;stroke:none;">adults. Environmental health perspectives. 2012b; 120(7):1023–8. Epub 2012/04/20.</text>
   <text y="470.777" x="518.795,523.171,525.379,527.587,531.963,535.923,538.131,540.339,542.547,546.923,551.299,553.003,555.211,559.586,562.109,566.485" svgx:width="0.55,0.28,0.28,0.55,0.5,0.28,0.28,0.28,0.55,0.55,0.22,0.28,0.55,0.33,0.55,0.28" style="fill:rgb(59,90,166);font-family:Helvetica;font-size:8.0px;stroke:none;">https://doi.org/</text>
   <text y="480.301" x="226.489,230.865,235.241,237.449,241.825,246.201,250.577,254.953,257.161,261.537,265.913,270.289,272.353,276.729,281.105,285.481,289.857,294.233,298.609" svgx:width="0.55,0.55,0.28,0.55,0.55,0.55,0.55,0.28,0.55,0.55,0.55,0.28,0.55,0.55,0.55,0.55,0.55,0.55,0.55" style="fill:rgb(59,90,166);font-family:Helvetica;font-size:8.0px;stroke:none;">10.1289/ehp.1104100</text>
   <text y="480.301" x="304.668,309.956,316.58,318.788,324.492" svgx:width="0.67,0.83,0.28,0.72,0.28" style="fill:rgb(0,0,0);font-family:Helvetica;font-size:8.0px;stroke:none;">PMID:</text>
   <text y="480.301" x="328.421,332.797,337.173,341.549,345.925,350.301,354.677,359.053" svgx:width="0.55,0.55,0.55,0.55,0.55,0.55,0.55,0.55" style="fill:rgb(59,90,166);font-family:Helvetica;font-size:8.0px;stroke:none;">22514209</text>
   <text y="480.301" x="363.287" svgx:width="0.28" style="fill:rgb(0,0,0);font-family:Helvetica;font-size:8.0px;stroke:none;">.</text>
   <text y="493.284" x="205.513,209.889,214.264" svgx:width="0.55,0.55,0.28" style="fill:rgb(0,0,0);font-family:Helvetica-Bold;font-size:8.0px;stroke:none;">57.</text>
   <text y="493.284" x="226.489,232.193,236.569,238.273,242.649,247.025,249.649,254.025,258.401,261.025,267.137,271.513,274.137,278.097,279.801,284.177,288.553,292.929,297.305,301.681,305.681,307.275,311.651,313.891,315.609,321.313,325.689,327.393,331.769,336.145,338.768,343.144,347.52,350.144,356.258,360.634,363.258,367.218,368.922,373.298,377.674,382.05,386.426,390.801,394.801,396.396,401.684,403.92400000000004,405.636,410.508,414.884,417.508,420.132,424.508,428.468,431.092,435.052,439.428,442.052,446.428,450.708,455.108,456.83,462.534,464.774,466.468,471.756,475.716,477.42,479.124,483.5,486.123,491.827,496.203,502.827,504.452,507.076,511.452,515.452,517.151,521.111,523.351,525.032,530.32,534.696,536.4,540.776,544.736,548.695,553.095,554.795,560.499,564.459" svgx:width="0.72,0.55,0.22,0.55,0.55,0.33,0.55,0.55,0.33,0.78,0.55,0.33,0.5,0.22,0.55,0.55,0.55,0.55,0.55,0.5,0.55,0.55,0.28,0.55,0.72,0.55,0.22,0.55,0.55,0.33,0.55,0.55,0.33,0.78,0.55,0.33,0.5,0.22,0.55,0.55,0.55,0.55,0.55,0.5,0.55,0.67,0.28,0.55,0.61,0.55,0.33,0.33,0.55,0.5,0.33,0.5,0.55,0.33,0.55,0.55,0.55,0.55,0.72,0.28,0.55,0.67,0.5,0.22,0.22,0.55,0.33,0.72,0.55,0.83,0.22,0.33,0.55,0.5,0.55,0.5,0.28,0.55,0.67,0.55,0.22,0.55,0.5,0.5,0.55,0.55,0.72,0.5,0.28" style="fill:rgb(0,0,0);font-family:Helvetica;font-size:8.0px;stroke:none;">Calderon-Garciduenas L, Calderon-Garciduenas A, Torres-Jardon R, Avila-Ramirez J, Kulesza RJ,</text>
   <text y="502.752" x="226.489,231.777,236.153,240.529,242.233,246.609,248.313,250.017,251.777,253.418,258.706,264.409,266.649,268.385,273.673,275.377,278.017,279.724,284.1,288.476,290.18,291.884,296.259,298.467,300.171,304.547,308.947,310.62,314.996,319.372,323.772,325.473,329.433,333.809,338.185,340.825,342.538,346.914,349.538,353.914,355.618,359.994,362.23400000000004,363.911,369.615,373.991,378.367,380.607,382.279,386.655,391.05499999999995,392.768,396.728,401.104,405.50399999999996,407.168,411.544,415.92,420.296,424.69599999999997,426.387,428.595,432.995,434.72,438.68,443.056,447.432,454.846,457.47,459.174,463.55,467.926,470.166,471.854,476.23,480.606,486.31,488.55,490.223,495.511,498.135,499.839,506.462,510.838,513.462,517.462,519.136,523.512,527.888,532.264,533.968,536.176,540.576,542.266,546.226,550.602,553.226" svgx:width="0.67,0.55,0.55,0.22,0.55,0.22,0.22,0.22,0.55,0.67,0.72,0.28,0.55,0.67,0.22,0.33,0.55,0.55,0.55,0.22,0.22,0.55,0.28,0.22,0.55,0.55,0.55,0.55,0.55,0.55,0.55,0.5,0.55,0.55,0.33,0.55,0.55,0.33,0.55,0.22,0.55,0.28,0.55,0.72,0.55,0.55,0.28,0.55,0.55,0.55,0.55,0.5,0.55,0.55,0.55,0.55,0.55,0.55,0.55,0.55,0.28,0.55,0.55,0.5,0.55,0.55,0.72,0.33,0.22,0.55,0.55,0.28,0.55,0.55,0.55,0.72,0.28,0.55,0.67,0.33,0.22,0.83,0.55,0.33,0.5,0.55,0.55,0.55,0.55,0.22,0.28,0.55,0.55,0.5,0.55,0.33,0.55" style="fill:rgb(0,0,0);font-family:Helvetica;font-size:8.0px;stroke:none;">Angiulli AD. Air pollution and your brain: what do you need to knowright now. Primary health care</text>
   <text y="512.276" x="226.489,229.113,233.489,237.449,241.825,246.201,248.825,252.785,257.185,258.861,264.221,265.89,270.266,274.642,278.602,282.978,284.682,289.058,293.33,299.954,304.33,308.706,310.914,313.154,314.815,319.191,323.567,327.943,332.319,334.559,336.245,340.621,344.997,347.621,351.997,354.621,356.829,361.205,365.581,369.957,374.229,378.605,382.981,385.221,386.928,392.216,396.592,400.968,405.368,407.054,411.43,415.806,420.182,424.558,426.766,431.142,435.401,437.609,441.985,446.361" svgx:width="0.33,0.55,0.5,0.55,0.55,0.33,0.5,0.55,0.55,0.67,0.55,0.55,0.55,0.5,0.55,0.22,0.55,0.55,0.83,0.55,0.55,0.28,0.28,0.55,0.55,0.55,0.55,0.55,0.28,0.55,0.55,0.55,0.33,0.55,0.33,0.28,0.55,0.55,0.55,0.55,0.55,0.55,0.28,0.55,0.67,0.55,0.55,0.55,0.55,0.55,0.55,0.55,0.55,0.28,0.55,0.55,0.28,0.55,0.55,0.28" style="fill:rgb(0,0,0);font-family:Helvetica;font-size:8.0px;stroke:none;">research &amp; development. 2015; 16(4):329–45. Epub 2014/09/27.</text>
   <text y="512.276" x="450.31,454.686,456.894,459.102,463.478,467.438,469.646,471.854,474.062,478.438,482.814,484.518,486.726,491.102,493.624,498.0,500.208,504.584,508.96,511.168,515.544,519.92,524.181,528.557" svgx:width="0.55,0.28,0.28,0.55,0.5,0.28,0.28,0.28,0.55,0.55,0.22,0.28,0.55,0.33,0.55,0.28,0.55,0.55,0.28,0.55,0.55,0.55,0.55,0.28" style="fill:rgb(59,90,166);font-family:Helvetica;font-size:8.0px;stroke:none;">https://doi.org/10.1017/</text>
   <text y="521.8" x="226.489,230.449,234.825,239.201,243.577,247.953,252.329,256.705,261.081,265.323,269.699,274.075,278.451,282.827,287.203,291.579,295.955" svgx:width="0.5,0.55,0.55,0.55,0.55,0.55,0.55,0.55,0.55,0.55,0.55,0.55,0.55,0.55,0.55,0.55,0.5" style="fill:rgb(59,90,166);font-family:Helvetica;font-size:8.0px;stroke:none;">s146342361400036x</text>
   <text y="521.8" x="301.607,306.895,313.518,315.726,321.43" svgx:width="0.67,0.83,0.28,0.72,0.28" style="fill:rgb(0,0,0);font-family:Helvetica;font-size:8.0px;stroke:none;">PMID:</text>
   <text y="521.8" x="325.36,329.736,334.112,338.488,342.864,347.24,351.496,355.872" svgx:width="0.55,0.55,0.55,0.55,0.55,0.55,0.55,0.55" style="fill:rgb(59,90,166);font-family:Helvetica;font-size:8.0px;stroke:none;">25256239</text>
   <text y="521.8" x="360.247" svgx:width="0.28" style="fill:rgb(0,0,0);font-family:Helvetica;font-size:8.0px;stroke:none;">.</text>
   <text y="534.783" x="205.513,209.889,214.264" svgx:width="0.55,0.55,0.28" style="fill:rgb(0,0,0);font-family:Helvetica-Bold;font-size:8.0px;stroke:none;">58.</text>
   <text y="534.783" x="226.489,232.697,237.073,241.449,245.409,249.785,251.489,255.889,257.557,263.261,265.50100000000003,267.194,272.066,273.77,278.146,280.354,284.314,288.69,293.066,295.70599999999996,297.411,302.283,304.523,306.198,311.07,312.774,319.398,323.798,325.53,329.49,333.866,336.49,338.194,342.57,346.57,348.208,352.584,356.96,361.335,363.039,366.999,370.959,372.663,376.663,378.311,382.687,384.927,386.645,391.021,392.725,395.365,397.077,401.453,405.828,407.532,409.236,413.612,415.82,417.524,421.9,426.29999999999995,427.974,432.35,436.726,441.126,442.827,449.451,453.827,456.451,458.659,463.035,464.739,466.443,468.651,472.611,474.851,476.503,480.879,483.087,485.295,489.671,493.631,495.839,499.839,501.504,505.88,509.88,511.538,515.498,519.874,524.25,528.21,532.586,534.826,536.484,540.86,545.236,549.636,551.337,555.713,560.089" svgx:width="0.78,0.55,0.55,0.5,0.55,0.22,0.55,0.55,0.72,0.28,0.55,0.61,0.22,0.55,0.28,0.5,0.55,0.55,0.33,0.55,0.61,0.28,0.55,0.61,0.22,0.83,0.55,0.55,0.5,0.55,0.33,0.22,0.55,0.5,0.55,0.55,0.55,0.55,0.22,0.5,0.5,0.22,0.5,0.55,0.55,0.28,0.55,0.55,0.22,0.33,0.55,0.55,0.55,0.22,0.22,0.55,0.28,0.22,0.55,0.55,0.55,0.55,0.55,0.55,0.55,0.83,0.55,0.33,0.28,0.55,0.22,0.22,0.28,0.5,0.28,0.55,0.55,0.28,0.28,0.55,0.5,0.28,0.5,0.55,0.55,0.5,0.55,0.5,0.55,0.55,0.5,0.55,0.28,0.55,0.55,0.55,0.55,0.55,0.55,0.55,0.55" style="fill:rgb(0,0,0);font-family:Helvetica;font-size:8.0px;stroke:none;">Gouveia N, Fletcher T. Time series analysis of air pollution and mortality: effects by cause, age and</text>
   <text y="544.307" x="226.489,230.449,234.825,238.785,240.489,244.865,249.241,253.201,257.577,261.953,266.329,272.807,274.511,278.511,280.233,284.193,286.401,290.777,292.985,297.361,301.321,303.56100000000004,305.235,309.195,313.571,317.947,320.571,324.947,329.323,331.08299999999997,332.73,337.106,339.346,341.064,346.352,350.728,352.432,356.807,361.183,367.71,369.414,373.79,375.494,379.87,384.246,388.246,389.933,395.637,400.013,406.636,413.26,417.636,421.907,423.611,425.819,429.819,431.546,437.25,441.626,446.002,447.706,449.914,454.289,456.529,458.191,462.567,466.943,471.319,475.695,477.935,479.564,483.94,488.316,490.94,495.316,499.692,502.316,504.524,508.9,513.276,517.548,521.924,526.3,528.54,530.247,535.535,539.911,544.287,548.687,550.373,554.749,559.125,563.501,567.877" svgx:width="0.5,0.55,0.5,0.22,0.55,0.55,0.5,0.55,0.55,0.55,0.83,0.22,0.5,0.55,0.5,0.28,0.55,0.28,0.55,0.5,0.28,0.55,0.5,0.55,0.55,0.33,0.55,0.55,0.22,0.55,0.55,0.28,0.55,0.67,0.55,0.22,0.55,0.55,0.83,0.22,0.55,0.22,0.55,0.55,0.5,0.55,0.72,0.55,0.83,0.83,0.55,0.55,0.22,0.28,0.5,0.55,0.72,0.55,0.55,0.22,0.28,0.55,0.28,0.55,0.55,0.55,0.55,0.55,0.28,0.55,0.55,0.55,0.33,0.55,0.55,0.33,0.28,0.55,0.55,0.55,0.55,0.55,0.28,0.55,0.67,0.55,0.55,0.55,0.55,0.55,0.55,0.55,0.55,0.28" style="fill:rgb(0,0,0);font-family:Helvetica;font-size:8.0px;stroke:none;">socioeconomic status. Journal of Epidemiology Community Health. 2000; 54(10):750–5. Epub 2000/</text>
   <text y="553.775" x="226.489,230.865,235.241,237.449,241.825,246.201" svgx:width="0.55,0.55,0.28,0.55,0.55,0.28" style="fill:rgb(0,0,0);font-family:Helvetica;font-size:8.0px;stroke:none;">09/16.</text>
   <text y="553.775" x="250.13,254.506,256.714,258.922,263.297,267.257,269.465,271.673,273.881,278.257,282.633,284.337,286.413,290.789,293.413,297.789,299.997,304.373,308.749,310.957,315.333,319.709,324.085,328.461,330.669,332.277,336.653,340.612,344.988,347.196,351.572,355.948,358.156,362.532,366.803,369.011,373.387,377.762" svgx:width="0.55,0.28,0.28,0.55,0.5,0.28,0.28,0.28,0.55,0.55,0.22,0.28,0.55,0.33,0.55,0.28,0.55,0.55,0.28,0.55,0.55,0.55,0.55,0.28,0.22,0.55,0.5,0.55,0.28,0.55,0.55,0.28,0.55,0.55,0.28,0.55,0.55,0.55" style="fill:rgb(59,90,166);font-family:Helvetica;font-size:8.0px;stroke:none;">https://doi.org/10.1136/jech.54.10.750</text>
   <text y="553.775" x="383.867,389.155,395.779,397.987,403.691" svgx:width="0.67,0.83,0.28,0.72,0.28" style="fill:rgb(0,0,0);font-family:Helvetica;font-size:8.0px;stroke:none;">PMID:</text>
   <text y="553.775" x="407.564,411.94,416.316,420.692,425.068,429.444,433.82,438.196" svgx:width="0.55,0.55,0.55,0.55,0.55,0.55,0.55,0.55" style="fill:rgb(59,90,166);font-family:Helvetica;font-size:8.0px;stroke:none;">10990478</text>
   <text y="566.757" x="205.513,209.889,214.264" svgx:width="0.55,0.55,0.28" style="fill:rgb(0,0,0);font-family:Helvetica-Bold;font-size:8.0px;stroke:none;">59.</text>
   <text y="566.757" x="226.489,231.361,235.737,239.697,244.097,245.821,251.109,253.34900000000002,255.006,259.878,264.253,268.629,273.005,277.381,281.757,283.965,286.173,287.933,289.588,294.875,297.115,298.829,304.117,308.077,312.453,318.157,322.533,325.157,327.365,331.365,333.013,336.973,339.213,340.894,343.102,347.478,351.854,353.558,357.518,359.222,363.598,367.974,372.245,373.949,376.573,378.277,382.653,386.613,390.989,392.74899999999997,394.412,401.036,405.412,409.788,411.492,413.7,415.404,419.78,422.404,426.404,428.087,432.463,434.70300000000003,436.364,438.572,442.948,447.34799999999996,449.063,453.439,455.647,457.855,462.231,466.191,468.399,472.399,474.065,478.441,480.681,482.399,486.775,491.151,493.775,495.983,497.687,501.646,506.022,507.726,512.102,514.203,518.603,520.326,526.95,531.326,533.534,535.742,540.118,542.758,544.477,548.853,553.2529999999999,554.965,559.341,563.717,565.421,567.125" svgx:width="0.61,0.55,0.5,0.55,0.55,0.67,0.28,0.55,0.61,0.55,0.55,0.55,0.55,0.55,0.28,0.28,0.22,0.55,0.67,0.28,0.55,0.67,0.5,0.55,0.72,0.55,0.33,0.28,0.5,0.55,0.5,0.28,0.55,0.28,0.55,0.55,0.22,0.5,0.22,0.55,0.55,0.55,0.22,0.33,0.22,0.55,0.5,0.55,0.22,0.55,0.83,0.55,0.55,0.22,0.28,0.22,0.55,0.33,0.5,0.55,0.55,0.28,0.55,0.28,0.55,0.55,0.55,0.55,0.28,0.28,0.55,0.5,0.28,0.5,0.55,0.55,0.28,0.55,0.55,0.55,0.33,0.28,0.22,0.5,0.55,0.22,0.55,0.28,0.55,0.55,0.83,0.55,0.28,0.28,0.55,0.33,0.55,0.55,0.55,0.55,0.55,0.55,0.22,0.22,0.5" style="fill:rgb(0,0,0);font-family:Helvetica;font-size:8.0px;stroke:none;">Zeka A, Zanobetti A, Schwartz J. Individual-level modifiers of the effects of particulate matter on daily</text>
   <text y="576.282" x="226.489,233.113,237.489,240.113,242.321,246.697,248.401,250.105,252.313,256.273,258.51300000000003,260.165,265.453,272.077,276.452,279.076,280.78,284.74,289.116,293.51599999999996,295.2,296.904,301.28,305.656,308.28,312.656,317.032,318.792,320.428,324.804,327.044,328.761,333.137,337.513,339.217,343.593,347.969,354.593,356.201,360.577,362.281,366.657,371.033,374.993,377.233,378.878,383.254,387.63,392.005,396.381,398.621,400.308,404.684,409.06,413.436,416.06,420.435,423.059,425.267,429.643,434.019,438.292,442.668,447.044,451.42,453.66,455.357,460.645,465.021,469.396,473.796,475.482,479.858,484.234,488.61,492.986,495.194,499.57,503.829,506.037,510.413,514.789" svgx:width="0.83,0.55,0.33,0.28,0.55,0.22,0.22,0.28,0.5,0.28,0.55,0.67,0.83,0.55,0.33,0.22,0.5,0.55,0.55,0.55,0.22,0.55,0.55,0.33,0.55,0.55,0.22,0.55,0.55,0.28,0.55,0.55,0.55,0.22,0.55,0.55,0.83,0.22,0.55,0.22,0.55,0.55,0.5,0.28,0.55,0.55,0.55,0.55,0.55,0.28,0.55,0.55,0.55,0.55,0.33,0.55,0.33,0.28,0.55,0.55,0.55,0.55,0.55,0.55,0.28,0.55,0.67,0.55,0.55,0.55,0.55,0.55,0.55,0.55,0.55,0.28,0.55,0.55,0.28,0.55,0.55,0.28" style="fill:rgb(0,0,0);font-family:Helvetica;font-size:8.0px;stroke:none;">mortality. American journal of epidemiology. 2006; 163(9):849–59. Epub 2006/03/24.</text>
   <text y="576.282" x="518.739,523.115,525.323,527.531,531.907,535.867,538.075,540.283,542.491,546.867,551.243,552.947,555.155,559.531,562.052,566.428" svgx:width="0.55,0.28,0.28,0.55,0.5,0.28,0.28,0.28,0.55,0.55,0.22,0.28,0.55,0.33,0.55,0.28" style="fill:rgb(59,90,166);font-family:Helvetica;font-size:8.0px;stroke:none;">https://doi.org/</text>
   <text y="585.806" x="226.489,230.865,235.241,237.449,241.825,246.201,250.577,254.953,257.161,261.537,263.241,267.617,269.689,273.649,279.352,281.056,285.432,289.808" svgx:width="0.55,0.55,0.28,0.55,0.55,0.55,0.55,0.28,0.55,0.22,0.55,0.28,0.5,0.72,0.22,0.55,0.55,0.55" style="fill:rgb(59,90,166);font-family:Helvetica;font-size:8.0px;stroke:none;">10.1093/aje/kwj116</text>
   <text y="585.806" x="295.881,301.169,307.793,310.001,315.705" svgx:width="0.67,0.83,0.28,0.72,0.28" style="fill:rgb(0,0,0);font-family:Helvetica;font-size:8.0px;stroke:none;">PMID:</text>
   <text y="585.806" x="319.634,324.01,328.386,332.762,337.138,341.514,345.89,350.266" svgx:width="0.55,0.55,0.55,0.55,0.55,0.55,0.55,0.55" style="fill:rgb(59,90,166);font-family:Helvetica;font-size:8.0px;stroke:none;">16554348</text>
   <text y="585.806" x="354.642" svgx:width="0.28" style="fill:rgb(0,0,0);font-family:Helvetica;font-size:8.0px;stroke:none;">.</text>
   <text y="598.789" x="205.513,209.889,214.264" svgx:width="0.55,0.55,0.28" style="fill:rgb(0,0,0);font-family:Helvetica-Bold;font-size:8.0px;stroke:none;">60.</text>
   <text y="598.789" x="226.489,231.777,236.153,240.553,242.25,247.954,250.19400000000002,251.944,257.648,262.024,263.728,267.688,271.688,273.317,279.525,281.765,283.465,289.169,293.545,297.505,301.905,303.591,308.878,315.502,317.742,319.464,327.0,331.376,333.08,335.288,339.248,343.624,345.384,347.016,352.304,357.592,359.832,361.53,365.906,370.282,372.906,379.53,383.906,388.281,392.681,394.355,399.227,401.467,403.142,407.518,411.894,416.27,420.646,425.022,429.42199999999997,431.092,436.38,440.34,442.58,444.302,449.59,452.214,456.589,460.549,464.925,469.189,473.149,475.357,477.061,481.021,485.421,487.104,491.48,495.856,500.232,501.936,505.896,509.856,511.56,515.56,517.208,521.584,523.824,525.542,527.75,530.374,534.75,536.958,539.166,540.87,544.87,546.575,550.951,554.911,559.287,563.663" svgx:width="0.67,0.55,0.55,0.55,0.72,0.28,0.55,0.72,0.55,0.22,0.5,0.5,0.55,0.78,0.28,0.55,0.72,0.55,0.5,0.55,0.55,0.67,0.83,0.28,0.55,0.95,0.55,0.22,0.28,0.5,0.55,0.22,0.55,0.67,0.67,0.28,0.55,0.55,0.55,0.33,0.83,0.55,0.55,0.55,0.55,0.61,0.28,0.55,0.55,0.55,0.55,0.55,0.55,0.55,0.55,0.67,0.5,0.28,0.55,0.67,0.33,0.55,0.5,0.55,0.55,0.5,0.28,0.22,0.5,0.55,0.55,0.55,0.55,0.55,0.22,0.5,0.5,0.22,0.5,0.55,0.55,0.28,0.55,0.28,0.33,0.55,0.28,0.28,0.22,0.5,0.55,0.55,0.5,0.55,0.55,0.33" style="fill:rgb(0,0,0);font-family:Helvetica;font-size:8.0px;stroke:none;">Kan H, Heiss G, Rose KM, Whitsel EA, Lurmann F, London SJ. Prospective analysis of traffic expo-</text>
   <text y="608.257" x="226.489,230.449,234.825,237.449,241.84900000000002,243.554,247.93,251.93,253.645,258.045,259.767,262.391,264.095,268.055,272.055,273.714,275.922,280.298,284.258,286.466,290.842,293.48199999999997,295.2,297.408,301.784,304.424,306.141,307.845,312.221,316.181,317.885,322.261,326.637,331.013,333.253,334.885,338.845,343.22,345.844,350.22,354.596,358.972,361.596,365.596,367.256,371.632,376.008,380.384,383.008,385.248,386.928,391.304,393.008,396.968,401.344,405.72,409.68,414.056,416.296,417.94,420.148,424.523,428.923,430.582,435.87,438.078,442.454,446.83,449.454,453.829,457.789,461.749,463.453,467.829,470.453,474.829,478.657,480.361,484.361,486.083,491.787,493.491,497.451,501.451,503.148,504.852,509.25199999999995,510.972,516.676,521.052,527.676,534.3,538.676,542.947,544.651,546.859,548.563,552.939" svgx:width="0.5,0.55,0.33,0.55,0.55,0.55,0.5,0.55,0.55,0.55,0.33,0.22,0.5,0.5,0.55,0.28,0.55,0.5,0.28,0.55,0.33,0.55,0.28,0.55,0.33,0.55,0.22,0.55,0.5,0.22,0.55,0.55,0.55,0.28,0.55,0.5,0.55,0.33,0.55,0.55,0.55,0.33,0.5,0.55,0.55,0.55,0.55,0.33,0.28,0.55,0.55,0.22,0.5,0.55,0.55,0.5,0.55,0.28,0.55,0.28,0.55,0.55,0.55,0.67,0.28,0.55,0.55,0.33,0.55,0.5,0.5,0.22,0.55,0.33,0.55,0.5,0.22,0.5,0.55,0.72,0.22,0.5,0.5,0.55,0.22,0.55,0.55,0.72,0.55,0.83,0.83,0.55,0.55,0.22,0.28,0.22,0.55,0.5" style="fill:rgb(0,0,0);font-family:Helvetica;font-size:8.0px;stroke:none;">sure as a risk factor for incident coronary heart disease: the Atherosclerosis Risk in Communities</text>
   <text y="617.781" x="226.489,229.113,234.401,240.105,242.313,248.017,250.65699999999998,252.341,256.301,258.509,262.885,267.261,271.221,273.461,275.131,280.419,284.795,288.755,290.459,293.083,297.459,301.835,308.459,312.834,317.21,319.294,323.67,325.43,327.117,331.493,335.869,340.245,341.949,344.157,348.55699999999996,350.248,354.624,359.0,361.624,365.584,369.96,374.336,378.296,380.504,382.208,386.168,390.443,394.403,396.64300000000003,398.324,402.7,407.076,411.452,415.828,418.068,419.753,424.129,428.505,432.881,435.505,439.881,444.257,446.881,449.089,453.465,457.737,462.113,466.489,470.865,475.241,477.481,479.168,484.456,488.831,493.207,497.60699999999997,499.293,503.669,508.045,512.421,516.797,519.005,523.381,527.64,529.848,534.224,538.6" svgx:width="0.33,0.67,0.72,0.28,0.72,0.33,0.55,0.5,0.28,0.55,0.55,0.5,0.28,0.55,0.67,0.55,0.5,0.22,0.33,0.55,0.55,0.83,0.55,0.55,0.28,0.55,0.22,0.55,0.55,0.55,0.55,0.22,0.28,0.55,0.55,0.55,0.55,0.33,0.5,0.55,0.55,0.5,0.28,0.22,0.5,0.55,0.5,0.28,0.55,0.55,0.55,0.55,0.55,0.28,0.55,0.55,0.55,0.55,0.33,0.55,0.55,0.33,0.28,0.55,0.55,0.55,0.55,0.55,0.55,0.28,0.55,0.67,0.55,0.55,0.55,0.55,0.55,0.55,0.55,0.55,0.28,0.55,0.55,0.28,0.55,0.55,0.28" style="fill:rgb(0,0,0);font-family:Helvetica;font-size:8.0px;stroke:none;">(ARIC) study. Environmental health perspectives. 2008; 116(11):1463–8. Epub 2008/12/06.</text>
   <text y="617.781" x="542.55,546.926,549.134,551.342,555.718,559.678,561.886,564.094" svgx:width="0.55,0.28,0.28,0.55,0.5,0.28,0.28,0.28" style="fill:rgb(59,90,166);font-family:Helvetica;font-size:8.0px;stroke:none;">https://</text>
   <text y="627.305" x="226.489,230.865,235.241,236.945,239.153,243.529,246.153,250.529,252.737,257.113,261.489,263.697,268.073,272.353,276.729,281.105,283.313,287.689,292.065,296.441,298.649,302.911,307.287,311.663,316.038" svgx:width="0.55,0.55,0.22,0.28,0.55,0.33,0.55,0.28,0.55,0.55,0.28,0.55,0.55,0.55,0.55,0.28,0.55,0.55,0.55,0.28,0.55,0.55,0.55,0.55,0.55" style="fill:rgb(59,90,166);font-family:Helvetica;font-size:8.0px;stroke:none;">doi.org/10.1289/ehp.11290</text>
   <text y="627.305" x="322.129,327.417,334.041,336.249,341.953" svgx:width="0.67,0.83,0.28,0.72,0.28" style="fill:rgb(0,0,0);font-family:Helvetica;font-size:8.0px;stroke:none;">PMID:</text>
   <text y="627.305" x="345.883,350.259,354.635,359.011,363.387,367.763,372.019,376.394" svgx:width="0.55,0.55,0.55,0.55,0.55,0.55,0.55,0.55" style="fill:rgb(59,90,166);font-family:Helvetica;font-size:8.0px;stroke:none;">19057697</text>
   <text y="640.288" x="205.513,209.889,214.265" svgx:width="0.55,0.55,0.28" style="fill:rgb(0,0,0);font-family:Helvetica-Bold;font-size:8.0px;stroke:none;">61.</text>
   <text y="640.288" x="226.489,230.865,232.569,236.969,238.678,244.382,250.086,255.79,258.03,259.711,266.335,270.711,275.111,276.832,280.792,285.664,287.904,289.588,293.964,295.668,300.068,301.777,307.985,313.689,315.92900000000003,317.65,322.938,325.146,329.521,333.897,337.897,339.533,343.909,348.30899999999997,350.021,352.229,356.605,361.005,362.72,367.096,368.8,372.76,374.968,377.592,379.296,383.672,387.949,390.157,391.861,396.237,400.637,402.349,406.724,411.1,415.5,417.202,421.162,425.538,429.914,433.874,438.25,442.626,447.002,448.762,450.367,454.327,458.703,461.327,463.031,467.407,469.615,471.319,475.695,480.09499999999997,481.775,486.151,488.391,490.109,494.485,498.861,501.485,505.861,509.821,514.197,515.957,517.605,521.981,526.357,528.565,530.269,534.229,538.604,540.364,541.983,546.359,550.735,555.111,557.319,561.7189999999999,563.413,565.117" svgx:width="0.55,0.22,0.55,0.55,0.72,0.72,0.72,0.28,0.55,0.83,0.55,0.55,0.55,0.5,0.61,0.28,0.55,0.55,0.22,0.55,0.55,0.78,0.72,0.28,0.55,0.67,0.28,0.55,0.55,0.5,0.55,0.55,0.55,0.55,0.28,0.55,0.55,0.55,0.55,0.22,0.5,0.28,0.33,0.22,0.55,0.55,0.28,0.22,0.55,0.55,0.55,0.55,0.55,0.55,0.55,0.5,0.55,0.55,0.5,0.55,0.55,0.55,0.22,0.55,0.5,0.55,0.33,0.22,0.55,0.28,0.22,0.55,0.55,0.55,0.55,0.28,0.55,0.55,0.55,0.33,0.55,0.5,0.55,0.22,0.55,0.55,0.55,0.28,0.22,0.5,0.55,0.22,0.55,0.55,0.55,0.55,0.28,0.55,0.55,0.22,0.55" style="fill:rgb(0,0,0);font-family:Helvetica;font-size:8.0px;stroke:none;">Liu CHC, Mao JT, Liu QH. Study on the distribution and seasonal variation of aerosol optical depth in</text>
   <text y="649.755" x="226.489,230.865,235.241,239.201,241.409,245.785,248.409,252.809,254.495,260.199,264.575,266.279,270.655,275.05499999999995,276.719,281.095,285.095,286.81,293.434,299.642,305.346,307.554,309.794,311.47,317.174,321.55,323.254,327.63,332.006,335.966,340.366,342.028,347.316,351.276,352.98,357.355,361.731,365.691,370.09099999999995,371.735,377.022,381.398,383.102,384.806,389.182,391.39,393.094,397.47,399.71000000000004,401.385,405.76,410.136,414.512,418.888,421.128,422.758,427.134,431.51,434.134,438.51,442.886,445.51,447.718,452.094,456.469,460.742,465.118" svgx:width="0.55,0.55,0.5,0.28,0.55,0.33,0.55,0.55,0.72,0.55,0.22,0.55,0.55,0.55,0.55,0.5,0.55,0.83,0.78,0.72,0.28,0.28,0.55,0.72,0.55,0.22,0.55,0.55,0.5,0.55,0.55,0.67,0.5,0.22,0.55,0.55,0.5,0.55,0.55,0.67,0.55,0.22,0.22,0.55,0.28,0.22,0.55,0.28,0.55,0.55,0.55,0.55,0.55,0.28,0.55,0.55,0.55,0.33,0.55,0.55,0.33,0.28,0.55,0.55,0.55,0.55,0.28" style="fill:rgb(0,0,0);font-family:Helvetica;font-size:8.0px;stroke:none;">eastern China by MODI. Chinese Science Bulletin. 2003; 48(19):2094.</text>
   <text y="662.794" x="205.513,209.889,214.264" svgx:width="0.55,0.55,0.28" style="fill:rgb(0,0,0);font-family:Helvetica-Bold;font-size:8.0px;stroke:none;">62.</text>
   <text y="662.794" x="226.489,231.361,235.737,240.113,241.873,243.554,248.426,253.714,255.954,257.67,262.957,267.333,271.709,273.413,277.373,281.333,283.037,287.037,288.68,293.056,295.296,297.015,300.975,305.351,309.727,311.934,313.638,318.014,320.638,322.846,327.117,333.741,338.117,342.493,345.117,349.493,351.253,352.912,356.872,361.248,363.872,365.576,369.952,374.328,375.93,377.634,379.338,381.546,385.546,387.269,391.645,393.885,395.602,399.978,404.354,406.978,411.354,415.314,419.69,421.45,423.098,427.474,431.85,434.058,435.762,439.722,444.098,445.858,447.476,451.852,456.228,460.604,462.812,467.212,468.906,470.61,475.01,476.729,478.937,483.313,487.71299999999997,489.428,494.716,499.092,503.468,507.844,510.052,514.012,518.4119999999999,520.042,525.746,527.45,531.41,535.786,538.4259999999999,540.112,544.488,548.864,550.568,552.775,557.151" svgx:width="0.61,0.55,0.55,0.22,0.55,0.61,0.67,0.28,0.55,0.67,0.55,0.55,0.22,0.5,0.5,0.22,0.5,0.55,0.55,0.28,0.55,0.5,0.55,0.55,0.28,0.22,0.55,0.33,0.28,0.55,0.83,0.55,0.55,0.33,0.55,0.22,0.55,0.5,0.55,0.33,0.22,0.55,0.55,0.22,0.22,0.22,0.28,0.5,0.55,0.55,0.28,0.55,0.55,0.55,0.33,0.55,0.5,0.55,0.22,0.55,0.55,0.55,0.28,0.22,0.5,0.55,0.22,0.55,0.55,0.55,0.55,0.28,0.55,0.55,0.22,0.55,0.55,0.28,0.55,0.55,0.55,0.67,0.55,0.55,0.55,0.28,0.5,0.55,0.55,0.72,0.22,0.5,0.55,0.33,0.55,0.55,0.55,0.22,0.28,0.55,0.28" style="fill:rgb(0,0,0);font-family:Helvetica;font-size:8.0px;stroke:none;">Zhai TY. Analysis of spatio-temporal variability of aerosol optical depth in the Yangtze River delta,</text>
   <text y="672.262" x="226.489,232.193,236.569,238.273,242.649,247.025,249.26500000000001,250.923,255.299,259.675,264.051,268.427" svgx:width="0.72,0.55,0.22,0.55,0.55,0.28,0.55,0.55,0.55,0.55,0.55,0.28" style="fill:rgb(0,0,0);font-family:Helvetica;font-size:8.0px;stroke:none;">China. 2013.</text>
   <text y="685.301" x="205.513,209.889,214.264" svgx:width="0.55,0.55,0.28" style="fill:rgb(0,0,0);font-family:Helvetica-Bold;font-size:8.0px;stroke:none;">63.</text>
   <text y="685.301" x="226.489,231.777,233.481,241.739,248.363,250.603,252.227,257.515,259.275,260.902,267.109,269.349,270.993,276.281,277.984,286.243,291.947,294.187,295.824,300.696,305.072,309.472,311.074,313.698,318.074,319.778,324.178,325.814,330.189,332.42900000000003,334.034,338.41,340.114,342.322,344.53,348.906,351.53,355.906,360.282,364.242,368.618,372.618,374.172,375.876,380.27599999999995,381.939,383.643,388.019,392.395,394.099,398.059,399.763,404.139,408.415,412.791,414.551,416.182,420.558,424.934,429.334,430.922,434.882,439.258,445.882,452.505,456.881,461.257,462.961,465.169,469.169,470.72,475.096,477.304,479.512,482.135,483.839,488.215,492.591,494.799,499.175,503.175,504.735,506.439,510.839,512.502,516.878,521.254,523.878,527.838,532.214,533.918,537.878,542.254,546.654,548.162,552.538,554.242,556.882,558.537,562.913,567.289,571.665,573.369" svgx:width="0.67,0.22,0.83,0.83,0.28,0.55,0.67,0.22,0.55,0.78,0.28,0.55,0.67,0.22,0.83,0.72,0.28,0.55,0.61,0.55,0.55,0.55,0.33,0.55,0.22,0.55,0.55,0.55,0.28,0.55,0.55,0.22,0.28,0.28,0.55,0.33,0.55,0.55,0.5,0.55,0.5,0.55,0.22,0.55,0.55,0.22,0.55,0.55,0.22,0.5,0.22,0.55,0.55,0.55,0.22,0.55,0.55,0.55,0.55,0.55,0.5,0.55,0.83,0.83,0.55,0.55,0.22,0.28,0.5,0.55,0.55,0.28,0.28,0.33,0.22,0.55,0.55,0.28,0.55,0.5,0.55,0.22,0.55,0.55,0.55,0.55,0.33,0.5,0.55,0.22,0.5,0.55,0.55,0.55,0.55,0.22,0.33,0.55,0.55,0.55,0.55,0.22,0.33" style="fill:rgb(0,0,0);font-family:Helvetica;font-size:8.0px;stroke:none;">KimM, Yi O, KimH. The role of differences in individual and community attributes in perceived air qual-</text>
   <text y="694.769" x="226.489,228.193,230.401,234.361,236.601,238.338,243.626,247.586,249.29,253.666,258.042,262.001,266.40099999999995,268.045,272.421,274.661,276.378,278.586,282.962,287.36199999999997,289.078,293.95,298.326,300.534,304.91,306.67,308.295,313.583,317.959,321.919,323.623,326.247,330.623,334.999,341.623,345.999,350.248,352.456,354.696,356.427,360.803,365.179,369.555,373.931,376.171,377.858,382.234,386.61,390.985,393.193,397.569,401.945,406.321,410.569,412.809,414.538,419.826,424.202,428.578,432.97799999999995,434.663,439.039,443.415,447.791,452.167,454.375,458.751,463.127,465.335,469.711,474.087" svgx:width="0.22,0.28,0.5,0.28,0.55,0.67,0.5,0.22,0.55,0.55,0.5,0.55,0.55,0.55,0.28,0.55,0.28,0.55,0.55,0.55,0.61,0.55,0.28,0.55,0.22,0.55,0.67,0.55,0.5,0.22,0.33,0.55,0.55,0.83,0.55,0.55,0.28,0.28,0.55,0.55,0.55,0.55,0.55,0.28,0.55,0.55,0.55,0.55,0.28,0.55,0.55,0.55,0.55,0.28,0.55,0.67,0.55,0.55,0.55,0.55,0.55,0.55,0.55,0.55,0.28,0.55,0.55,0.28,0.55,0.55,0.28" style="fill:rgb(0,0,0);font-family:Helvetica;font-size:8.0px;stroke:none;">ity. Science of the Total Environment. 2012; 425:20–6. Epub 2012/04/10.</text>
   <text y="694.769" x="477.976,482.352,484.56,486.768,491.144,495.104,497.312,499.52,501.618,505.994,510.37,512.074,514.282,518.657,521.281,525.657,527.865,532.241,536.617,538.825,543.201,547.482,551.858,556.234,558.442,560.146" svgx:width="0.55,0.28,0.28,0.55,0.5,0.28,0.28,0.28,0.55,0.55,0.22,0.28,0.55,0.33,0.55,0.28,0.55,0.55,0.28,0.55,0.55,0.55,0.55,0.28,0.22,0.28" style="fill:rgb(59,90,166);font-family:Helvetica;font-size:8.0px;stroke:none;">https://doi.org/10.1016/j.</text>
   <text y="704.294" x="226.489,230.449,234.409,236.113,238.321,242.697,244.905,249.281,253.657,257.617,259.825,264.201,268.577,272.807,277.183,279.391,283.767,288.143,290.351,294.727,299.103" svgx:width="0.5,0.5,0.22,0.28,0.55,0.28,0.55,0.55,0.5,0.28,0.55,0.55,0.55,0.55,0.28,0.55,0.55,0.28,0.55,0.55,0.55" style="fill:rgb(59,90,166);font-family:Helvetica;font-size:8.0px;stroke:none;">scitotenv.2012.03.016</text>
   <text y="704.294" x="305.179,310.466,317.09,319.298,325.002" svgx:width="0.67,0.83,0.28,0.72,0.28" style="fill:rgb(0,0,0);font-family:Helvetica;font-size:8.0px;stroke:none;">PMID:</text>
   <text y="704.294" x="328.932,333.308,337.684,342.06,346.436,350.812,355.067,359.443" svgx:width="0.55,0.55,0.55,0.55,0.55,0.55,0.55,0.55" style="fill:rgb(59,90,166);font-family:Helvetica;font-size:8.0px;stroke:none;">22483745</text>
   <text y="704.294" x="363.819" svgx:width="0.28" style="fill:rgb(0,0,0);font-family:Helvetica;font-size:8.0px;stroke:none;">.</text>
  </g>
  <path style="fill:rgb(0,0,0);stroke:none;stroke-width:1.0;" d="M576.000 54.900 L36.000 54.900 L36.000 54.400 L576.000 54.400 "/>
  <rect style="stroke:blue;stroke-width:0.3;" x="36.0" y="35.043" height="23.64" width="107.093" title="18"/>
  <text y="35.043" class="image" id="image.18.1" width="107" height="23" x="36.0">image.18.1.36_143.35_59</text>
  <g begin="text">
   <text y="46.205" x="510.463,515.751,517.455,520.095,521.858,526.234,530.61,532.314,534.018,538.394,540.602,542.306,546.682,551.082,552.755,557.131,559.339,561.547,565.923,569.883,572.091" svgx:width="0.67,0.22,0.33,0.55,0.55,0.55,0.22,0.22,0.55,0.28,0.22,0.55,0.55,0.55,0.55,0.28,0.28,0.55,0.5,0.28,0.5" style="fill:rgb(0,0,0);font-family:Helvetica;font-size:8.0px;stroke:none;">Air pollution effects</text>
  </g>
  <path style="fill:rgb(0,0,0);stroke:none;stroke-width:1.0;" d="M36.000 744.000 L576.000 744.000 L576.000 744.500 L36.000 744.500 "/>
  <path style="fill:rgb(59,90,166);stroke:none;stroke-width:1.0;" d="M81.580 757.080 L237.880 757.080 Z"/>
  <g begin="text">
   <text y="756.0" x="36.0,41.288,45.664,51.872,57.232,58.847,65.055,70.759,76.119,77.782" svgx:width="0.67,0.55,0.78,0.67,0.55,0.78,0.72,0.67,0.55,0.26" style="fill:rgb(0,0,0);font-family:Helvetica;font-size:8.0px;stroke:none;">PLOS ONE |</text>
   <text y="756.0" x="81.58,85.956,88.164,90.372,94.748,98.708,100.916,103.124,105.332,109.708,114.084,115.788,117.996,122.372,124.893,129.269,131.477,135.853,140.229,142.437,146.813,151.189,155.451,159.827,162.035,163.739,168.115,172.491,175.115,179.491,183.867,185.571,187.779,192.155,196.44,200.816,205.191,207.399,211.775,216.151,220.527,224.903,229.151,233.527" svgx:width="0.55,0.28,0.28,0.55,0.5,0.28,0.28,0.28,0.55,0.55,0.22,0.28,0.55,0.33,0.55,0.28,0.55,0.55,0.28,0.55,0.55,0.55,0.55,0.28,0.22,0.55,0.55,0.33,0.55,0.55,0.22,0.28,0.55,0.55,0.55,0.55,0.28,0.55,0.55,0.55,0.55,0.55,0.55,0.55" style="fill:rgb(59,90,166);font-family:Helvetica;font-size:8.0px;stroke:none;">https://doi.org/10.1371/journal.pone.0194364</text>
   <text y="756.0" x="245.876,252.5,256.876,259.5,263.46,267.85999999999996,269.573,273.949,278.325,280.565,282.272,286.648,291.024,295.4,299.79999999999995,552.81,557.185,561.5849999999999,563.241" svgx:width="0.83,0.55,0.33,0.5,0.55,0.55,0.55,0.55,0.28,0.55,0.55,0.55,0.55,0.55,0.55,0.55,0.55,0.55,0.28" style="fill:rgb(0,0,0);font-family:Helvetica;font-size:8.0px;stroke:none;">March 16, 2018 18 /</text>
  </g>
  <g begin="text">
   <text y="756.0" x="567.209,571.585" svgx:width="0.55,0.55" style="fill:rgb(0,0,0);font-family:Helvetica;font-size:8.0px;stroke:none;">21</text>
  </g>
 </g>
</svg>
