<?xml version="1.0" encoding="UTF-8"?>
<svg height="790.426" width="537.098" xmlns="http://www.w3.org/2000/svg">
 <g id="page" xmlns:svgx="http://www.xml-cml.org/schema/svgx">
  <g begin="text">
   <text y="48.066" x="70.92,77.423,83.925,89.804,92.058,96.059,100.059,103.565,107.565,112.07,116.07,118.577,120.831,125.336,128.096,132.596,135.103,139.607,142.114,146.618,150.124,152.374,237.903,244.406,246.912,251.417,255.921,259.922,262.428,264.708,268.214,272.718,277.222,280.224,284.728,288.729,291.235,293.515,297.955,300.955,303.24,309.739,313.735,317.732,320.235,322.738,327.239,329.519,334.524,338.521,341.023,345.02,349.521,353.518,357.515,359.765,455.975,461.314,465.814,468.317,470.568,472.847,477.287,479.567,481.846,488.345,492.785,495.036,497.316,501.816,504.319,506.599,511.1,515.54,520.041,524.542" svgx:width="0.72,0.72,0.72,0.25,0.44,0.44,0.39,0.44,0.5,0.44,0.28,0.25,0.5,0.33,0.5,0.28,0.5,0.28,0.5,0.39,0.25,0.55,0.72,0.28,0.5,0.5,0.44,0.28,0.25,0.39,0.5,0.5,0.33,0.5,0.44,0.28,0.25,0.5,0.33,0.25,0.72,0.44,0.44,0.28,0.28,0.5,0.25,0.56,0.44,0.28,0.44,0.5,0.44,0.44,0.25,0.55,0.72,0.5,0.28,0.25,0.25,0.5,0.25,0.25,0.72,0.5,0.25,0.25,0.5,0.28,0.25,0.5,0.5,0.5,0.5,0.25" style="fill:rgb(0,0,0);font-family:TimesNewRoman;font-size:9.0px;stroke:none;">www.ccsenet.org/gjhs Global Journal of Health Science Vol. 5, No. 4; 2013 </text>
  </g>
  <g begin="text">
   <text y="770.106" x="290.94,295.44,299.94,304.44" svgx:width="0.5,0.5,0.5,0.25" style="fill:rgb(0,0,0);font-family:TimesNewRoman;font-size:9.0px;stroke:none;">207 </text>
   <text y="780.426" x="70.92" svgx:width="0.25" style="fill:rgb(0,0,0);font-family:TimesNewRoman;font-size:9.0px;stroke:none;"> </text>
   <text y="80.646" x="70.92,74.24,78.671,83.712,88.143,92.575,95.344,99.776,104.816,107.575,110.277,115.317,119.748,122.517,125.217,132.435,137.475,141.907,146.9,149.659,152.428,157.421,160.74,165.172,169.604,172.372,175.141,180.181,185.174,189.055,191.814,196.854,201.296,204.065,206.833,211.265,216.305,219.067,222.947,225.648,232.865,235.634,238.402,243.442,246.143,255.033,262.251,268.917,272.237,278.342,285.008,287.709,294.926,299.966,303.286,307.74,310.499,314.393,319.399,322.519,327.559,330.341,334.786,339.231,342.012,344.772,348.104,352.549,356.994,361.376,364.076,371.868,376.313,380.206,385.212,389.106,391.807,399.037,404.043,406.825,409.606,414.051,416.811,419.512,424.492,428.937,433.943,436.702,443.933,448.314,451.647,456.092,458.792,463.798,468.804,472.698,477.704,480.486,483.187,487.632,490.413,493.195,497.64,502.085,507.091,509.592,512.351,515.133,520.139,524.521" svgx:width="0.33,0.44,0.5,0.44,0.44,0.28,0.44,0.5,0.25,0.28,0.5,0.44,0.28,0.25,0.72,0.5,0.44,0.5,0.25,0.28,0.5,0.33,0.44,0.44,0.28,0.28,0.5,0.5,0.39,0.25,0.5,0.44,0.28,0.28,0.44,0.5,0.28,0.39,0.25,0.72,0.28,0.28,0.5,0.25,0.89,0.72,0.67,0.33,0.61,0.67,0.25,0.72,0.5,0.33,0.44,0.25,0.39,0.5,0.33,0.5,0.28,0.44,0.44,0.28,0.25,0.33,0.44,0.44,0.44,0.25,0.78,0.44,0.39,0.5,0.39,0.25,0.72,0.5,0.28,0.28,0.44,0.25,0.28,0.5,0.44,0.5,0.25,0.72,0.44,0.33,0.44,0.25,0.5,0.5,0.39,0.5,0.28,0.28,0.44,0.28,0.28,0.44,0.44,0.5,0.25,0.25,0.28,0.5,0.44,0.25" style="fill:rgb(0,0,0);font-family:TimesNewRoman;font-size:10.02px;stroke:none;">revealed that when infectious patients with MDR-TB wore surgical face masks while they were hospitalized, the </text>
   <text y="92.646" x="70.92,78.661,83.103,87.015,92.039,95.951,98.45599999999999,99.431,104.455,108.918,111.679,116.719,121.101,126.141,128.64600000000002,129.561,134.585,139.048,143.511,146.862,151.324,155.787,159.699,164.162,166.667,167.642,170.343,175.384,179.846,182.351,183.326,186.088,189.387,193.85,198.874,202.786,210.468,213.229,217.141,221.053,223.814,228.838,233.862,236.367,237.342,242.366,245.717,248.222,249.137,258.016,265.274,271.934,274.439,275.414,278.176,283.2,288.224,292.605,295.956,300.338,305.362,308.123,313.147,317.059,319.821,323.72,326.225,327.199,332.224,337.203,339.70799999999997,340.623,345.647,350.671,353.176,354.151,362.512,365.017,365.932,370.395,375.419,383.1,388.14,392.603,395.954,400.417,405.441,407.94599999999997,408.921,411.682,416.722,419.227,420.142,427.34,432.38,436.843,441.867,444.372,445.347,448.049,453.089,457.552,460.057,461.032,466.056,470.518,473.28,476.041,480.483,485.507,488.209,492.121,494.626,495.6,500.625,503.386,508.41,510.915,511.83,516.854,521.834,524.535" svgx:width="0.78,0.44,0.39,0.5,0.39,0.25,0.55,0.5,0.44,0.28,0.5,0.44,0.5,0.25,0.55,0.5,0.44,0.44,0.33,0.44,0.44,0.39,0.44,0.25,0.55,0.28,0.5,0.44,0.25,0.55,0.28,0.33,0.44,0.5,0.39,0.78,0.28,0.39,0.39,0.28,0.5,0.5,0.25,0.55,0.5,0.33,0.25,0.55,0.89,0.72,0.67,0.25,0.55,0.28,0.5,0.5,0.44,0.33,0.44,0.5,0.28,0.5,0.39,0.28,0.39,0.25,0.55,0.5,0.5,0.25,0.55,0.5,0.5,0.25,0.55,0.83,0.25,0.55,0.44,0.5,0.78,0.5,0.44,0.33,0.44,0.5,0.25,0.55,0.28,0.5,0.25,0.55,0.72,0.5,0.44,0.5,0.25,0.55,0.28,0.5,0.44,0.25,0.55,0.5,0.44,0.28,0.28,0.44,0.5,0.28,0.39,0.25,0.55,0.5,0.28,0.5,0.25,0.55,0.5,0.5,0.28,0.25" style="fill:rgb(0,0,0);font-family:TimesNewRoman;font-size:10.02px;stroke:none;">masks helped decrease the transmission of MDR tuberculosis by 50 % compared to when the patients did not </text>
   <text y="104.646" x="70.92,78.157,82.609,87.061,90.401,92.90599999999999,93.881,97.221,101.672,106.124,110.576,113.08099999999999,114.116,121.798,126.239,130.14,135.153,139.054,141.559,142.594,145.934,153.171,158.184,162.636,165.976,173.657,178.109,183.122,188.135,190.836,195.849,200.301,203.641,206.429,208.934,209.97,214.421,217.21,219.715,220.75,225.202,227.991,230.499,233.007,235.512,236.486,241.499,246.512,251.133,256.173,259.512,262.02,264.525,265.561,271.686,276.699,281.08,286.121,288.626,289.661,294.112,296.617,297.592,301.493,306.42,309.54,314.58,317.362,321.807,326.252,329.033,331.538,332.573,340.255,344.696,348.59,353.596,356.101,357.136,359.918,364.924,369.369,372.15,374.655,375.69,379.023,381.805,384.586,387.368,391.813,395.145,399.039,401.544,402.579,407.585,412.591,415.373,420.379,422.884,423.858,428.864,433.87,442.213,444.718,445.693,450.699,454.032,456.537,457.572,460.273,465.279,470.285,474.73,477.512,481.893,486.899,489.404,490.439,495.445,499.89,503.223,506.004,508.786,513.231,516.012,520.457,524.415" svgx:width="0.72,0.44,0.44,0.33,0.25,0.55,0.33,0.44,0.44,0.44,0.25,0.55,0.78,0.44,0.39,0.5,0.39,0.25,0.55,0.33,0.72,0.5,0.44,0.33,0.78,0.44,0.5,0.5,0.28,0.5,0.44,0.33,0.28,0.25,0.55,0.44,0.28,0.25,0.55,0.44,0.28,0.25,0.25,0.25,0.55,0.5,0.5,0.5,0.5,0.33,0.25,0.25,0.55,0.61,0.5,0.44,0.5,0.25,0.55,0.44,0.25,0.55,0.39,0.5,0.33,0.5,0.28,0.44,0.44,0.28,0.25,0.55,0.78,0.44,0.39,0.5,0.25,0.55,0.28,0.5,0.44,0.28,0.25,0.55,0.33,0.28,0.28,0.28,0.44,0.33,0.39,0.25,0.55,0.5,0.5,0.28,0.5,0.25,0.55,0.5,0.5,0.83,0.25,0.55,0.5,0.33,0.25,0.55,0.28,0.5,0.5,0.44,0.28,0.44,0.5,0.25,0.55,0.5,0.44,0.33,0.28,0.28,0.44,0.28,0.44,0.39,0.25" style="fill:rgb(0,0,0);font-family:TimesNewRoman;font-size:10.02px;stroke:none;">wear face masks (Dharmadhikari et al., 2011). Even a surgical mask that filters only 50% of inhaled particles </text>
   <text y="116.646" x="70.92,78.132,83.12,88.16,90.922,95.91,98.61,103.65,108.032,113.072,117.514,120.273,122.975,127.955,132.382,135.141,139.568,144.608,149.648,152.35,157.39,161.831,164.595,169.022,174.062,176.823,179.524,183.951,187.071,190.385,194.812,199.239,202.003,204.486,207.245,209.947,214.926,217.686,220.45,225.49,229.916,234.956,238.271,242.591,245.074,247.774,252.814,256.114,258.873,263.3,266.06,271.048,276.035,281.076,286.116,288.877,291.578,296.618,301.606,304.307,309.347,312.646,315.406,318.721,323.709,328.749,336.43,339.189,344.229,348.671,353.711,356.475,359.238,362.002,366.429,369.192,371.956,376.996,382.036,384.496,387.255,391.682,396.722,401.71,404.47,408.897,411.598,414.357,418.784,421.485,424.799,428.114,432.541,436.968,439.731,442.495,447.483,452.471,455.23,460.218,463.533,466.292,469.056,474.096,478.523,481.223,485.65,490.69,494.566,497.329,500.03,503.344,510.005,515.045,519.427,524.415" svgx:width="0.72,0.5,0.5,0.28,0.5,0.25,0.5,0.44,0.5,0.44,0.25,0.28,0.5,0.44,0.25,0.44,0.5,0.5,0.28,0.5,0.44,0.28,0.44,0.5,0.28,0.25,0.44,0.33,0.33,0.44,0.44,0.28,0.25,0.25,0.28,0.5,0.25,0.28,0.5,0.44,0.5,0.33,0.5,0.25,0.25,0.5,0.33,0.25,0.44,0.25,0.5,0.5,0.5,0.5,0.28,0.28,0.5,0.5,0.25,0.5,0.33,0.25,0.33,0.5,0.5,0.78,0.25,0.5,0.44,0.5,0.28,0.28,0.28,0.44,0.28,0.28,0.5,0.5,0.25,0.25,0.44,0.5,0.5,0.25,0.44,0.28,0.25,0.44,0.25,0.33,0.33,0.44,0.44,0.28,0.28,0.5,0.5,0.25,0.5,0.33,0.25,0.28,0.5,0.44,0.25,0.44,0.5,0.39,0.28,0.25,0.33,0.67,0.5,0.44,0.5,0.25" style="fill:rgb(0,0,0);font-family:TimesNewRoman;font-size:10.02px;stroke:none;">would have the equivalent effect, in theory, of a doubling of room ventilation, and at a fraction of the cost (Bock </text>
   <text y="128.586" x="70.92,75.353,78.122,80.642,85.075,87.845,90.334,92.823,95.343,100.337,105.331,110.371,115.365,118.724,121.213" svgx:width="0.44,0.28,0.25,0.44,0.28,0.25,0.25,0.25,0.5,0.5,0.5,0.5,0.33,0.25,0.25" style="fill:rgb(0,0,0);font-family:TimesNewRoman;font-size:10.02px;stroke:none;">et al., 2007). </text>
   <text y="144.606" x="70.92,77.039,82.046,86.492,88.997,90.152,95.159,100.166,103.5,107.882,112.889,117.335,121.229,125.611,128.116,129.271,134.278,137.612,140.117,141.333,145.171,150.211,153.332,158.372,161.154,165.6,170.046,172.828,175.333,176.549,184.23,188.732,192.627,197.634,201.473,203.978,205.193,212.874,217.316,222.323,224.828,226.044,231.051,235.497,238.002,239.217,243.663,248.67,251.17499999999998,252.39,256.836,259.619,262.401,266.847,270.181,275.188,279.634,282.416,285.199,290.22,294.601,297.106,298.322,301.621,306.601,309.901,312.406,313.621,320.865,327.465,336.767,339.272,340.487,343.282,346.076,351.095,355.553,358.348,363.328,365.83299999999997,367.048,369.749,374.79,377.295,378.45,383.469,387.851,392.87,397.327,399.832,401.048,403.749,408.789,416.033,420.415,423.76,426.265,427.421,436.299,443.558,450.25,453.596,459.727,466.419,468.924,470.14,474.522,479.501,484.481,489.521,493.428,498.408,501.754,506.212,508.672,511.177,512.332,519.575,524.555" svgx:width="0.61,0.5,0.44,0.25,0.55,0.5,0.5,0.33,0.44,0.5,0.44,0.39,0.44,0.25,0.55,0.5,0.33,0.25,0.55,0.39,0.5,0.33,0.5,0.28,0.44,0.44,0.28,0.25,0.55,0.78,0.44,0.39,0.5,0.39,0.25,0.55,0.78,0.44,0.5,0.25,0.55,0.5,0.44,0.25,0.55,0.44,0.5,0.25,0.55,0.44,0.28,0.28,0.44,0.33,0.5,0.44,0.28,0.28,0.5,0.44,0.25,0.55,0.33,0.5,0.33,0.25,0.55,0.72,0.67,0.94,0.25,0.55,0.28,0.28,0.5,0.44,0.28,0.5,0.25,0.55,0.28,0.5,0.25,0.55,0.5,0.44,0.5,0.44,0.25,0.55,0.28,0.5,0.72,0.44,0.33,0.25,0.55,0.89,0.72,0.67,0.33,0.61,0.67,0.25,0.55,0.44,0.5,0.5,0.5,0.39,0.5,0.33,0.44,0.25,0.25,0.55,0.72,0.5,0.25" style="fill:rgb(0,0,0);font-family:TimesNewRoman;font-size:10.02px;stroke:none;">The purchase of surgical masks may be an alternative for HCW likely to have lower MDR-TB exposure. An </text>
   <text y="156.606" x="70.92,75.356,78.128,80.901,85.337,88.66,93.7,98.136,100.909,103.681,108.721,113.157,115.66199999999999,117.057,124.278,129.275,134.316,137.077,142.117,144.62199999999999,146.017,151.057,155.499,158.004,159.459,162.231,167.228,169.733,171.188,175.624,180.621,185.661,188.362,193.403,195.908,197.362,201.798,204.571,207.343,209.84799999999998,211.303,218.525,225.125,234.571,238.455,240.96,242.415,249.637,252.409,255.182,260.222,262.727,264.182,268.067,273.064,276.244,281.284,284.057,288.492,292.928,295.701,298.206,299.661,307.443,311.879,315.764,320.804,324.689,327.181,329.686,331.08,334.965,339.962,344.959,349.999,352.772,357.812,360.317,361.772,364.473,369.513,373.949,377.273,381.708,384.213,385.608,390.648,395.09,397.59499999999997,398.99,403.987,409.027,411.532,412.987,416.311,420.746,424.631,429.671,434.668,437.992,442.428,446.864,450.748,453.24,455.745,457.2,462.197,467.237,470.561,473.066,474.461,477.784,482.22,486.656,489.429,492.201,494.974,497.746,500.519,504.954,508.839,511.344,512.799,516.123,521.163,524.486" svgx:width="0.44,0.28,0.28,0.44,0.33,0.5,0.44,0.28,0.28,0.5,0.44,0.25,0.55,0.72,0.5,0.5,0.28,0.5,0.25,0.55,0.5,0.44,0.25,0.55,0.28,0.5,0.25,0.55,0.44,0.5,0.5,0.28,0.5,0.25,0.55,0.44,0.28,0.28,0.25,0.55,0.72,0.67,0.94,0.39,0.25,0.55,0.72,0.28,0.28,0.5,0.25,0.55,0.39,0.5,0.33,0.5,0.28,0.44,0.44,0.28,0.25,0.55,0.78,0.44,0.39,0.5,0.39,0.25,0.25,0.55,0.39,0.5,0.5,0.5,0.28,0.5,0.25,0.55,0.28,0.5,0.44,0.33,0.44,0.25,0.55,0.5,0.44,0.25,0.55,0.5,0.5,0.25,0.55,0.33,0.44,0.39,0.5,0.5,0.33,0.44,0.44,0.39,0.25,0.25,0.55,0.5,0.5,0.33,0.25,0.55,0.33,0.44,0.44,0.28,0.28,0.28,0.28,0.28,0.44,0.39,0.25,0.55,0.33,0.5,0.33,0.25" style="fill:rgb(0,0,0);font-family:TimesNewRoman;font-size:10.02px;stroke:none;">alternative would be to equip all HCWs with surgical masks, should there be no resources, nor facilities for </text>
   <text y="168.605" x="70.92,73.726,81.407,86.437,89.198,93.667,101.349,105.818,110.848,113.609,116.371,121.401,126.431,129.19,133.659,136.419,143.673,148.653,153.683,156.443,159.799,164.268,168.107,173.147,175.909,179.268,183.737,186.439,191.469,194.825,199.805,202.565,205.326,210.306,213.663,218.132,222.601,225.362,228.124,233.154,238.184,240.943,245.325,250.355,255.385,258.087,261.443,266.473,269.235,271.994,275.912,280.892,284.81,287.571,292.04,299.722,302.481,305.901,310.941,314.298,316.998,322.028,324.79,329.77,334.81,339.279,342.635,345.395,349.864,352.625,355.385,358.742,361.503,365.342,370.382,373.141,380.396,386.996,395.577,398.097,400.797,408.052,410.813,413.575,418.555,423.535,428.575,433.555,438.595,441.354,444.116,449.156,451.917,455.816,458.576,462.957,467.987,473.017,475.719,480.749,483.449,486.255,493.936,498.966,501.728,506.708,509.467,512.229,517.269,521.738,524.543" svgx:width="0.28,0.78,0.5,0.28,0.44,0.78,0.44,0.5,0.28,0.28,0.5,0.5,0.25,0.44,0.25,0.72,0.5,0.5,0.25,0.33,0.44,0.39,0.5,0.28,0.33,0.44,0.28,0.5,0.33,0.5,0.25,0.28,0.5,0.33,0.44,0.44,0.28,0.28,0.5,0.5,0.25,0.44,0.5,0.5,0.28,0.33,0.5,0.28,0.25,0.39,0.5,0.39,0.28,0.44,0.78,0.25,0.33,0.5,0.33,0.25,0.5,0.28,0.5,0.5,0.44,0.33,0.25,0.44,0.28,0.25,0.33,0.28,0.39,0.5,0.25,0.72,0.67,0.94,0.25,0.25,0.72,0.28,0.28,0.5,0.5,0.5,0.5,0.5,0.25,0.28,0.5,0.28,0.39,0.25,0.44,0.5,0.5,0.28,0.5,0.25,0.28,0.78,0.5,0.28,0.5,0.25,0.28,0.5,0.44,0.28,0.25" style="fill:rgb(0,0,0);font-family:TimesNewRoman;font-size:10.02px;stroke:none;">implementing a N95 respiratory infection control system for higher at risk HCW. Although this could imply that </text>
   <text y="180.605" x="70.92,73.681,78.721,83.761,86.522,91.562,94.264,99.304,104.344,108.786,111.487,113.99199999999999,115.447,119.32,124.36,129.345,132.105,136.529,140.953,143.713,147.586,150.091,151.546,159.227,163.669,168.654,171.159,172.614,177.654,182.694,185.456,187.96099999999998,189.355,193.779,196.54,203.749,208.173,213.158,217.031,219.536,220.93,225.97,230.352,232.857,234.312,239.297,244.337,247.098,249.858,257.629,262.053,264.813,267.635,272.615,275.12,276.574,281.615,284.914,289.954,292.716,297.14,301.563,304.324,308.748,313.788,316.268,318.77299999999997,320.228,323.539,326.851,331.891,339.572,342.077,343.532,347.956,350.461,351.856,356.841,361.881,366.921,369.622,372.383,376.807,379.312,380.766,385.807,390.23,394.654,397.415,400.175,405.16,407.665,409.06,414.1,419.14,421.841,426.882,429.583,432.088,433.543,438.528,441.839,444.344,445.799,450.839,453.601,458.025,464.623,467.103,469.608,471.063,473.823,476.584,479.089,480.483,487.693,492.733,497.773,500.474,505.459,507.964,509.419,513.292,516.052,518.813,521.573,524.395" svgx:width="0.28,0.5,0.5,0.28,0.5,0.28,0.5,0.5,0.44,0.28,0.25,0.55,0.39,0.5,0.5,0.28,0.44,0.44,0.28,0.39,0.25,0.55,0.78,0.44,0.5,0.25,0.55,0.5,0.5,0.28,0.25,0.55,0.44,0.28,0.72,0.44,0.5,0.39,0.25,0.55,0.5,0.44,0.25,0.55,0.5,0.5,0.28,0.28,0.78,0.44,0.28,0.28,0.5,0.25,0.55,0.5,0.33,0.5,0.28,0.44,0.44,0.28,0.44,0.5,0.25,0.25,0.55,0.33,0.33,0.5,0.78,0.25,0.55,0.44,0.25,0.55,0.5,0.5,0.5,0.28,0.28,0.44,0.25,0.55,0.5,0.44,0.44,0.28,0.28,0.5,0.25,0.55,0.5,0.5,0.28,0.5,0.28,0.25,0.55,0.5,0.33,0.25,0.55,0.5,0.28,0.44,0.72,0.25,0.25,0.55,0.28,0.28,0.25,0.55,0.72,0.5,0.5,0.28,0.5,0.25,0.55,0.39,0.28,0.28,0.28,0.28,0.25" style="fill:rgb(0,0,0);font-family:TimesNewRoman;font-size:10.02px;stroke:none;">individual subjects may not always be optimally protected, from a public health point of view, it would still </text>
   <text y="192.545" x="70.92,75.959,80.383,84.807,88.165,92.589,97.013,100.886,105.31,107.829,110.589,113.948,118.372,123.411,127.283,135.054,137.815,141.687,145.56,148.32,153.36,158.399,160.918,164.229,170.407,174.83,179.869,182.328,187.313,191.737,195.096,197.615,203.161,207.585,212.57,217.609,222.033,224.513,226.851,232.252,236.633,241.672,246.651,249.411,253.284,255.764,258.283,266.053,268.512,274.059,278.482,283.521,287.962,290.723,293.203,295.722,300.707,305.692,310.731,315.716,319.074,321.554" svgx:width="0.5,0.44,0.44,0.33,0.44,0.44,0.39,0.44,0.25,0.28,0.33,0.44,0.5,0.39,0.78,0.28,0.39,0.39,0.28,0.5,0.5,0.25,0.33,0.72,0.44,0.5,0.25,0.5,0.44,0.33,0.25,0.56,0.44,0.5,0.5,0.44,0.25,0.25,0.61,0.44,0.5,0.5,0.28,0.39,0.25,0.25,0.78,0.25,0.56,0.44,0.5,0.44,0.28,0.25,0.25,0.5,0.5,0.5,0.5,0.33,0.25,0.25" style="fill:rgb(0,0,0);font-family:TimesNewRoman;font-size:10.02px;stroke:none;">decrease transmission (Van der Sande, Teunis, &amp; Sabel, 2008). </text>
   <text y="208.565" x="70.92,75.933,78.441,80.901,88.138,90.927,94.828,99.28,104.854,108.755,112.655,115.357,120.37,125.944,128.449,130.144" svgx:width="0.5,0.25,0.25,0.72,0.28,0.39,0.44,0.56,0.39,0.39,0.28,0.5,0.56,0.25,0.55,0.25" style="fill:rgb(0,0,0);font-family:TimesNewRoman,Bold;font-size:10.02px;stroke:none;">4. Discussion </text>
   <text y="224.645" x="70.92,74.273,79.299,81.804,83.618,86.38,89.081,94.107,99.133,101.895,104.39999999999999,106.154,111.18,114.48,116.985,118.8,122.152,126.617,130.999,135.441,140.467,143.228,145.733,147.548,154.746,162.005,168.665,171.965,178.103,184.763,187.268,189.023,194.049,199.075,201.776,206.802,210.155,214.62,219.002,224.028,227.941,230.401,232.906,234.721,238.021,243.061,245.762,250.802,254.155,258.62,261.125,262.879,267.859,272.899,275.661,280.701,283.462,285.967,287.722,292.748,296.047,298.552,300.367,304.749,309.191,312.543,317.008,319.513,321.269,326.295,329.056,333.521,338.501,343.527,348.553,352.467,355.229,357.99,362.372,366.286,368.791,370.605,378.287,382.789,387.769,390.274,392.088,396.553,399.315,403.228,408.254,410.759,412.574,417.6,421.982,426.447,431.473,433.978,435.792,438.554,443.534,446.039,447.853,452.318,456.783,460.083,463.436,468.416,470.921,472.735,477.715,482.695,485.457,487.962,489.776,497.027,502.614,508.556,511.061,512.815,516.115,521.155,524.508" svgx:width="0.33,0.5,0.25,0.55,0.28,0.28,0.5,0.5,0.28,0.25,0.55,0.5,0.33,0.25,0.55,0.33,0.44,0.44,0.44,0.5,0.28,0.25,0.55,0.72,0.72,0.67,0.33,0.61,0.67,0.25,0.55,0.5,0.5,0.28,0.5,0.33,0.44,0.44,0.5,0.39,0.25,0.25,0.55,0.33,0.5,0.28,0.5,0.33,0.44,0.25,0.55,0.5,0.5,0.28,0.5,0.28,0.25,0.55,0.5,0.33,0.25,0.55,0.44,0.44,0.33,0.44,0.25,0.55,0.5,0.28,0.44,0.5,0.5,0.5,0.39,0.28,0.28,0.44,0.39,0.25,0.55,0.78,0.44,0.5,0.25,0.55,0.44,0.28,0.39,0.5,0.25,0.55,0.5,0.44,0.44,0.5,0.25,0.55,0.28,0.5,0.25,0.55,0.44,0.44,0.33,0.33,0.5,0.25,0.55,0.5,0.5,0.28,0.25,0.55,0.72,0.56,0.61,0.25,0.55,0.33,0.5,0.33,0.25" style="fill:rgb(0,0,0);font-family:TimesNewRoman;font-size:10.02px;stroke:none;">In light of recent XDR-TB outbreaks, future point of care diagnostics may also need to carry out DST for </text>
   <text y="236.645" x="70.92,74.806,79.243,83.679,88.677,93.718,98.697,102.022,104.796,107.569,112.609,117.046,119.926,124.363,129.403,132.104,134.866,138.19,144.3,150.972,153.852,158.892,162.191,167.189,172.229,176.115,178.995,181.768,186.808,189.628,194.065,196.838,199.612,202.492,207.532,211.973,214.747,217.521,221.957,226.997,229.759,233.645,236.524,243.747,246.52,249.294,254.334,257.214,261.651,266.649,271.647,274.971,277.745,281.069,288.751,293.193,298.233,301.14,310.045,317.278,323.959,327.294,333.414,340.095,342.598,345.478,354.384,358.831,363.212,368.192,375.425,380.433,383.216,386.0,390.447,392.95,395.83,398.613,403.621,408.003,411.363,415.809,418.689,421.473,425.369,428.188,432.635,437.643,440.523,445.531,448.651,453.659,458.106,463.114,465.897,468.717,473.725,478.172,482.619,487.627,490.507,493.841,498.849,502.184,505.064,509.511,512.294,516.741,521.188,524.523" svgx:width="0.39,0.44,0.44,0.5,0.5,0.5,0.33,0.28,0.28,0.5,0.44,0.25,0.44,0.5,0.28,0.28,0.33,0.61,0.67,0.25,0.5,0.33,0.5,0.5,0.39,0.25,0.28,0.5,0.25,0.44,0.28,0.28,0.25,0.5,0.44,0.28,0.28,0.44,0.5,0.28,0.39,0.25,0.72,0.28,0.28,0.5,0.25,0.44,0.5,0.5,0.33,0.28,0.33,0.78,0.44,0.5,0.25,0.89,0.72,0.67,0.33,0.61,0.67,0.25,0.25,0.89,0.44,0.44,0.5,0.72,0.5,0.28,0.28,0.44,0.25,0.25,0.28,0.5,0.44,0.33,0.44,0.25,0.28,0.39,0.25,0.44,0.5,0.25,0.5,0.33,0.5,0.44,0.5,0.28,0.25,0.5,0.44,0.44,0.5,0.25,0.33,0.5,0.33,0.25,0.44,0.28,0.44,0.44,0.33,0.25" style="fill:rgb(0,0,0);font-family:TimesNewRoman;font-size:10.02px;stroke:none;">second-line anti-TB drugs to all patients with confirmed MDR-TB. Meanwhile, there is an urgent need for clear </text>
   <text y="248.645" x="70.92,75.354,78.124,80.895,85.935,88.706,93.139,97.573,100.344,102.984,107.979,113.019,115.79,120.83,125.263,128.034,130.805,135.845,140.278,144.161,146.741,151.175,156.17,161.165,163.805,168.8,172.122,177.162,179.863,184.903,189.285,194.325,197.087,200.97,203.61,206.311,211.351,213.992,216.693,221.733,226.167,231.207,233.977,236.748,240.07,245.065,247.645,252.685,257.127,259.897,262.668,267.102,272.142,274.903,278.786,281.426,285.86,288.561,291.202,296.242,298.92,303.923,308.926,311.566,314.896,317.675,321.513,326.553,329.133,332.463,337.466,340.796,343.436,352.337,359.564,366.24,369.57,375.685,382.362,385.002,387.78,392.783,395.424,400.427,405.43,408.208,413.211,415.791,419.121,423.563,426.893,429.594,432.924,437.365,441.807,444.586,452.267,456.709,461.712,464.491,467.131,471.573,476.015,479.905,484.347,488.238,490.818,495.26,500.263,505.266,507.846,512.849,517.231,524.458" svgx:width="0.44,0.28,0.28,0.5,0.28,0.44,0.44,0.28,0.25,0.5,0.5,0.28,0.5,0.44,0.28,0.28,0.5,0.44,0.39,0.25,0.44,0.5,0.5,0.25,0.5,0.33,0.5,0.28,0.5,0.44,0.5,0.28,0.39,0.25,0.28,0.5,0.25,0.28,0.5,0.44,0.5,0.28,0.28,0.33,0.5,0.25,0.5,0.44,0.28,0.28,0.44,0.5,0.28,0.39,0.25,0.44,0.28,0.25,0.5,0.28,0.5,0.5,0.25,0.33,0.28,0.39,0.5,0.25,0.33,0.5,0.33,0.25,0.89,0.72,0.67,0.33,0.61,0.67,0.25,0.28,0.5,0.25,0.5,0.5,0.28,0.5,0.25,0.33,0.44,0.33,0.28,0.33,0.44,0.44,0.28,0.78,0.44,0.5,0.28,0.25,0.44,0.44,0.39,0.44,0.39,0.25,0.44,0.5,0.5,0.25,0.5,0.44,0.72,0.25" style="fill:rgb(0,0,0);font-family:TimesNewRoman;font-size:10.02px;stroke:none;">clinical guidelines and protocols to identify patients at high risk for MDR-TB in both re-treatment cases and new </text>
   <text y="260.645" x="70.92,77.035,83.712,86.952,91.394,95.836,99.727,104.168,108.059,110.557,113.798,121.025,126.028,131.031,133.81,138.813,143.254,146.584,149.764,153.094,157.536,161.427,165.869,170.25,173.61,178.052,183.055,186.295,190.677,194.037,198.479,202.92,206.161,208.939,213.942,217.183,219.961,224.964,229.346,232.587,238.702,245.378,248.559,253.0,258.003,263.006,265.708,269.037,274.04,276.819,279.999,285.002,288.332,293.335,298.338,301.668,306.049,313.838,321.626,326.04,329.28,332.041,337.081,341.541,344.303,347.542,352.563,357.023,361.483,366.463,370.372,373.611,376.373,381.413,384.593,389.614,394.074,397.314,401.695,406.675,411.696,415.044,419.504,423.343,427.181,431.623,436.644,439.884,442.645,446.544,449.783,452.485,455.844,460.304,464.764,467.526,475.207,479.649,484.67,487.467,490.706,495.686,499.046,502.285,505.047,509.489,512.25,516.692,521.713,524.474" svgx:width="0.61,0.67,0.25,0.44,0.44,0.39,0.44,0.39,0.25,0.25,0.72,0.5,0.5,0.28,0.5,0.44,0.33,0.25,0.33,0.44,0.39,0.44,0.44,0.33,0.44,0.5,0.25,0.44,0.33,0.44,0.44,0.25,0.28,0.5,0.25,0.28,0.5,0.44,0.25,0.61,0.67,0.25,0.44,0.5,0.5,0.28,0.33,0.5,0.28,0.25,0.5,0.33,0.5,0.5,0.33,0.44,0.78,0.78,0.44,0.25,0.28,0.5,0.44,0.28,0.25,0.5,0.44,0.44,0.5,0.39,0.25,0.28,0.5,0.25,0.5,0.44,0.25,0.44,0.5,0.5,0.33,0.44,0.39,0.39,0.44,0.5,0.25,0.28,0.39,0.25,0.28,0.33,0.44,0.44,0.28,0.78,0.44,0.5,0.28,0.25,0.5,0.33,0.25,0.28,0.44,0.28,0.44,0.5,0.28,0.25" style="fill:rgb(0,0,0);font-family:TimesNewRoman;font-size:10.02px;stroke:none;">TB cases. Another research area in the TB control programme that needs to be addressed is treatment of latent </text>
   <text y="272.645" x="70.92,79.818,87.042,93.715,97.042,103.154,109.828,112.323,114.82799999999999,116.102,122.76,125.265,126.6,130.488,135.488,139.376,142.151,146.653,154.334,158.773,161.595,164.371,168.809,171.314,172.649,175.976,180.415,185.455,188.156,192.595,199.819,202.32399999999998,203.599,208.639,213.619,216.124,217.459,220.234,225.274,229.713,232.218,233.553,236.328,239.655,244.094,248.533,251.354,259.036,263.474,268.514,271.29,273.795,275.13,278.456,283.496,286.823,289.328,290.663,293.438,297.877,300.653,305.091,310.131,312.84,315.34499999999997,316.68,319.447,324.487,327.806,332.237,336.667,339.435,342.202,347.243,352.235,354.74,356.074,363.291,365.992,368.759,373.8,376.305,377.639,383.743,390.409,392.914,394.248,397.016,402.008,404.513,405.848,410.888,415.269,418.588,422.468,427.508,432.548,436.387,438.892,440.226,444.657,447.425,449.93,451.264,454.583,457.35,461.23,466.27,468.775,470.11,473.428,478.42,481.739,484.24399999999997,485.579,494.468,501.685,508.35,511.669,517.773,524.438" svgx:width="0.89,0.72,0.67,0.33,0.61,0.67,0.25,0.25,0.55,0.72,0.25,0.55,0.39,0.5,0.39,0.28,0.44,0.78,0.44,0.28,0.28,0.44,0.25,0.55,0.33,0.44,0.5,0.28,0.44,0.72,0.25,0.55,0.5,0.5,0.25,0.55,0.28,0.5,0.44,0.25,0.55,0.28,0.33,0.44,0.44,0.28,0.78,0.44,0.5,0.28,0.25,0.55,0.33,0.5,0.33,0.25,0.55,0.28,0.44,0.28,0.44,0.5,0.28,0.25,0.55,0.28,0.5,0.33,0.44,0.44,0.28,0.28,0.5,0.5,0.25,0.55,0.72,0.28,0.28,0.5,0.25,0.55,0.61,0.67,0.25,0.55,0.28,0.5,0.25,0.55,0.5,0.44,0.33,0.39,0.5,0.5,0.39,0.25,0.55,0.44,0.28,0.25,0.55,0.33,0.28,0.39,0.5,0.25,0.55,0.33,0.5,0.33,0.25,0.55,0.89,0.72,0.67,0.33,0.61,0.67,0.25" style="fill:rgb(0,0,0);font-family:TimesNewRoman;font-size:10.02px;stroke:none;">MDR-TB. A systematic review on the treatment for latent infection with TB in persons at risk for MDR-TB </text>
   <text y="284.645" x="70.92,75.96,78.722,83.711,88.751,91.515,94.28,99.32,104.36,107.121,111.549,116.589,119.094,121.089,123.791,128.77,133.198,135.703,137.698,140.463,143.284,150.966,153.73,156.495,160.997,163.761,166.526,171.566,176.606,180.505,183.01,185.005,187.706,192.746,195.251,197.246,200.011,204.438,207.754,215.435,219.312,221.817,223.812,228.801,232.117,234.62199999999999,236.557,241.597,246.577,249.341,254.381,256.886,258.821,263.861,268.901,273.283,278.323,281.087,283.852,286.617,291.605,294.11,296.105,300.533,305.522,310.562,313.067,315.002,319.991,325.031,329.459,332.224,334.988,337.753,342.742,345.247,347.241,351.669,356.709,361.698,364.203,366.138,371.178,376.158,381.198,385.58,388.896,392.772,397.2,402.189,405.505,409.933,414.973,417.478,419.473,422.237,427.226,431.654,434.159,436.154,441.194,445.636,450.064,455.104,457.609,459.544,462.859,467.899,471.215,473.71999999999997,475.715,482.377,489.039,494.441,498.318,500.823,502.818,505.582,510.622,513.1270000000001,515.062,520.102,524.484" svgx:width="0.5,0.28,0.5,0.5,0.28,0.28,0.5,0.5,0.28,0.44,0.5,0.25,0.55,0.28,0.5,0.44,0.25,0.55,0.28,0.28,0.78,0.28,0.28,0.44,0.28,0.28,0.5,0.5,0.39,0.25,0.55,0.28,0.5,0.25,0.55,0.28,0.44,0.33,0.78,0.39,0.25,0.55,0.5,0.33,0.25,0.55,0.5,0.5,0.28,0.5,0.25,0.55,0.5,0.5,0.44,0.5,0.28,0.28,0.28,0.5,0.25,0.55,0.44,0.5,0.5,0.25,0.55,0.5,0.5,0.44,0.28,0.28,0.28,0.5,0.25,0.55,0.44,0.5,0.5,0.25,0.55,0.5,0.5,0.5,0.44,0.33,0.39,0.44,0.5,0.33,0.44,0.5,0.25,0.55,0.28,0.5,0.44,0.25,0.55,0.5,0.44,0.44,0.5,0.25,0.55,0.33,0.5,0.33,0.25,0.55,0.67,0.67,0.61,0.39,0.25,0.55,0.28,0.5,0.25,0.55,0.5,0.44,0.25" style="fill:rgb(0,0,0);font-family:TimesNewRoman;font-size:10.02px;stroke:none;">highlighted the limitations in terms of both quantity and quality and underscored the need for RCTs to be </text>
   <text y="296.585" x="70.92,75.932,80.944,85.956,90.338,93.676,96.464,100.915,105.927,110.309,115.349,117.869,120.656,125.668,128.128,132.579,136.479,140.379,144.829,148.729,152.629,155.149,157.937,162.949,167.33,169.85,174.301,177.422,180.76,185.142,189.593,192.38,195.168,200.18,204.631,209.643,214.094,217.994,221.893,224.353,229.365,232.704,235.224,238.012,241.35,245.732,250.174,252.961,260.643,265.094,270.106,272.893,275.4" svgx:width="0.5,0.5,0.5,0.44,0.33,0.28,0.44,0.5,0.44,0.5,0.25,0.28,0.5,0.25,0.44,0.39,0.39,0.44,0.39,0.39,0.25,0.28,0.5,0.44,0.25,0.44,0.33,0.33,0.44,0.44,0.28,0.28,0.5,0.44,0.5,0.44,0.39,0.39,0.25,0.5,0.33,0.25,0.28,0.33,0.44,0.44,0.28,0.78,0.44,0.5,0.28,0.25,0.25" style="fill:rgb(0,0,0);font-family:TimesNewRoman;font-size:10.02px;stroke:none;">undertaken to assess the effectiveness of treatment. </text>
   <text y="312.605" x="70.92,79.802,84.842,88.201,92.583,97.623,102.663,107.045,109.985,112.445,114.94999999999999,117.305,122.345,125.046,130.03,134.453,139.493,141.998,144.353,147.054,152.094,156.517,159.022,161.316,166.356,169.058,174.098,179.078,181.583,183.877,188.861,192.221,197.205,202.189,207.229,210.589,213.348,216.108,221.092,226.132,228.637,230.931,235.915,239.275,241.78,244.075,249.059,253.481,256.241,259.0,263.423,268.463,271.225,275.097,277.602,279.956,287.215,289.974,292.734,297.718,300.223,302.517,309.726,315.822,324.704,327.209,329.563,332.323,337.307,339.812,342.166,346.038,351.078,356.062,359.422,364.967,369.39,374.43,378.872,382.231,386.613,389.118,391.413,398.671,403.655,408.639,411.144,413.499,417.922,422.906,427.89,430.395,432.749,437.733,442.717,445.222,447.577,452.617,457.059,459.76,464.8,469.784,472.289,474.644,477.404,480.763,485.186,489.609,492.368,496.791,501.831,504.336,506.631,513.889,516.649,519.408,524.448" svgx:width="0.89,0.5,0.33,0.44,0.5,0.5,0.44,0.33,0.25,0.25,0.55,0.5,0.28,0.5,0.44,0.5,0.25,0.55,0.28,0.5,0.44,0.25,0.55,0.5,0.28,0.5,0.5,0.25,0.55,0.5,0.33,0.5,0.5,0.5,0.33,0.28,0.28,0.5,0.5,0.25,0.55,0.5,0.33,0.25,0.55,0.5,0.44,0.28,0.28,0.44,0.5,0.28,0.39,0.25,0.55,0.72,0.28,0.28,0.5,0.25,0.55,0.72,0.61,0.89,0.25,0.55,0.28,0.5,0.25,0.55,0.39,0.5,0.5,0.33,0.56,0.44,0.5,0.44,0.33,0.44,0.25,0.55,0.72,0.5,0.5,0.25,0.55,0.44,0.5,0.5,0.25,0.55,0.5,0.5,0.25,0.55,0.5,0.44,0.28,0.5,0.5,0.25,0.55,0.28,0.33,0.44,0.44,0.28,0.44,0.5,0.25,0.55,0.72,0.28,0.28,0.5,0.25" style="fill:rgb(0,0,0);font-family:TimesNewRoman;font-size:10.02px;stroke:none;">Moreover, given the high proportion of patients with NTM in sub-Sahara who end up being treated with </text>
   <text y="324.605" x="70.92,74.27,78.732,83.755,86.516,94.197,98.639,103.662,107.573,110.07799999999999,113.633,116.933,121.973,125.272,127.777,131.272,140.151,147.41,154.07,157.43,163.565,170.225,172.73,176.285,180.667,185.647,190.627,193.132,196.687,203.885,208.925,213.387,216.737,221.119,223.624,227.179,234.86,239.84,244.302,249.325,254.348,258.81,263.272,266.033,270.495,273.845,276.607,281.048,283.81,286.315,289.87,292.631,297.672,302.053,307.093,309.795,312.556,315.906,318.667,323.129,327.591,330.353,333.114,338.137,343.16,345.665,349.22,351.982,355.881,358.38599999999997,361.941,364.642,369.622,374.645,377.15,380.705,385.087,390.067,395.09,399.552,404.575,408.486,411.187,416.227,420.689,423.194,426.749,429.451,434.491,436.996,440.491,445.514,449.976,452.481,455.976,459.275,464.298,469.321,472.083,474.844,479.884,484.266,486.771,490.266,495.289,498.639,503.101,507.563,510.324,513.086,517.548,522.01,524.528" svgx:width="0.33,0.44,0.5,0.28,0.78,0.44,0.5,0.39,0.25,0.55,0.33,0.5,0.33,0.25,0.55,0.89,0.72,0.67,0.33,0.61,0.67,0.25,0.55,0.44,0.5,0.5,0.25,0.55,0.72,0.5,0.44,0.33,0.44,0.25,0.55,0.78,0.5,0.44,0.5,0.5,0.44,0.44,0.28,0.44,0.33,0.28,0.44,0.28,0.25,0.55,0.28,0.5,0.44,0.5,0.28,0.28,0.33,0.28,0.44,0.44,0.28,0.28,0.5,0.5,0.25,0.55,0.28,0.39,0.25,0.55,0.28,0.5,0.5,0.25,0.55,0.44,0.5,0.5,0.44,0.5,0.39,0.28,0.5,0.44,0.25,0.55,0.28,0.5,0.25,0.55,0.5,0.44,0.25,0.55,0.33,0.5,0.5,0.28,0.28,0.5,0.44,0.25,0.55,0.5,0.33,0.44,0.44,0.28,0.28,0.44,0.44,0.25,0.25" style="fill:rgb(0,0,0);font-family:TimesNewRoman;font-size:10.02px;stroke:none;">regimens for MDR-TB and where mycobacterial identification is too expensive to be routine practice, </text>
   <text y="336.545" x="70.92,73.683,78.724,81.486,85.929,89.279,94.302,98.764,101.526,104.289,109.27,114.293,118.754,121.517,123.978,128.959,134.0,136.762,141.803,146.265,149.028,151.79,156.831,161.293,165.133,167.654,172.116,175.466,179.848,182.369,186.831,189.594,193.505,198.528,200.989,206.012,209.133,214.156,218.539,223.562,226.324,229.087,234.068,236.589,241.612,246.074,250.456,255.497,259.959,264.94,267.461,270.762,275.803,279.104,281.625,288.824,294.946,303.826,306.347,310.73,315.173,319.083,323.545,326.066,333.749,338.191,343.215,347.676,352.699,357.161,364.844,369.347,374.37,377.132,379.653,382.954,390.213,394.675,397.438,402.461,406.844,411.867,415.706,420.729,425.71,428.171,432.633,435.396,437.917,442.379,445.141,447.659,450.177,452.698,457.679,462.66,467.701,472.682,476.043,478.504,481.009,483.485" svgx:width="0.28,0.5,0.28,0.44,0.33,0.5,0.44,0.28,0.28,0.5,0.5,0.44,0.28,0.25,0.5,0.5,0.28,0.5,0.44,0.28,0.28,0.5,0.44,0.39,0.25,0.44,0.33,0.44,0.25,0.44,0.28,0.39,0.5,0.25,0.5,0.33,0.5,0.44,0.5,0.28,0.28,0.5,0.25,0.5,0.44,0.44,0.5,0.44,0.5,0.25,0.33,0.5,0.33,0.25,0.72,0.61,0.89,0.25,0.44,0.44,0.39,0.44,0.25,0.78,0.44,0.5,0.44,0.5,0.44,0.78,0.44,0.5,0.28,0.25,0.33,0.72,0.44,0.28,0.5,0.44,0.5,0.39,0.5,0.5,0.25,0.44,0.28,0.25,0.44,0.28,0.25,0.25,0.25,0.5,0.5,0.5,0.5,0.33,0.25,0.25,0.55,0.25" style="fill:rgb(0,0,0);font-family:TimesNewRoman;font-size:10.02px;stroke:none;">international guidelines are also urgently needed for NTM case management (Nathanson et al., 2004). </text>
   <text y="352.625" x="70.92,78.169,83.149,90.399,94.781,99.806,104.27,107.209,109.729,112.669,116.582,119.284,124.309,128.69,133.154,136.094,144.973,147.734,152.759,155.521,159.985,165.01,167.53,170.47,177.13,181.572,185.485,188.246,191.598,196.578,199.098,202.038,209.287,213.669,217.021,220.372,223.134,228.114,233.154,235.915,240.895,245.92,248.38,251.32,256.906,261.37,265.834,270.859,274.772,277.712,282.093,287.118,292.143,295.083,301.684,306.663,310.015,317.696,322.16,327.185,330.125,333.477,338.502,343.482,348.462,353.502,356.801,359.621,363.534,366.414,370.878,375.341,378.103,380.864,383.804,386.566,391.606,394.546,398.459,401.22,405.684,409.036,411.797,414.737,419.201,424.226,429.251,432.012,436.992,440.352,443.114,448.094,453.119,456.058,459.971,464.951,469.976,473.328,476.089,480.471,483.771,486.711,489.472,492.832,497.296,501.76,504.56,512.242,516.683,521.708,524.509" svgx:width="0.72,0.5,0.72,0.44,0.5,0.44,0.33,0.25,0.25,0.39,0.28,0.5,0.44,0.44,0.25,0.89,0.28,0.5,0.28,0.44,0.5,0.25,0.25,0.67,0.44,0.39,0.28,0.33,0.5,0.25,0.25,0.72,0.44,0.33,0.33,0.28,0.5,0.5,0.28,0.5,0.5,0.25,0.25,0.56,0.44,0.44,0.5,0.39,0.25,0.44,0.5,0.5,0.25,0.67,0.5,0.33,0.78,0.44,0.5,0.25,0.33,0.5,0.5,0.5,0.5,0.33,0.33,0.39,0.25,0.44,0.44,0.28,0.28,0.25,0.28,0.5,0.25,0.39,0.28,0.44,0.33,0.28,0.25,0.44,0.5,0.5,0.28,0.5,0.33,0.28,0.5,0.5,0.25,0.39,0.5,0.5,0.33,0.28,0.44,0.33,0.25,0.28,0.33,0.44,0.44,0.28,0.78,0.44,0.5,0.28,0.25" style="fill:rgb(0,0,0);font-family:TimesNewRoman;font-size:10.02px;stroke:none;">However, since Minick, Castro, Harrington, Sacks and Burman (2007)’s call to start exploring shorter treatment </text>
   <text y="364.625" x="70.92,74.27,79.25,82.599,85.104,88.479,91.829,96.291,99.052,102.412,106.874,111.336,114.097,121.779,126.22,131.243,134.005,136.51,139.945,144.407,148.869,152.779,157.241,161.152,163.65699999999998,167.092,169.853,174.833,177.338,180.773,183.535,188.515,192.977,195.482,198.916,202.266,205.028,210.008,215.048,218.347,223.327,228.35,233.373,236.075,241.098,246.121,248.822,253.845,258.868,263.25,265.755,269.19,273.652,277.001,281.383,283.903,286.408,289.843,294.305,296.81,300.185,305.165,310.144,312.906,317.368,322.391,325.152,327.914,332.356,335.117,337.622,341.057,346.08,349.43,353.892,358.274,363.297,366.058,371.038,374.398,379.378,384.358,389.398,394.378,396.883,400.318,405.341,409.802,413.641,416.146,419.581,424.604,428.986,433.448,438.471,440.976,444.411,452.092,456.534,461.557,466.019,468.524,471.959,474.72,479.76,482.265,485.64,494.519,501.777,508.437,511.797,517.932,524.533" svgx:width="0.33,0.5,0.33,0.25,0.55,0.33,0.44,0.28,0.33,0.44,0.44,0.28,0.78,0.44,0.5,0.28,0.25,0.55,0.44,0.44,0.39,0.44,0.39,0.25,0.55,0.28,0.5,0.25,0.55,0.28,0.5,0.44,0.25,0.55,0.33,0.28,0.5,0.5,0.33,0.5,0.5,0.5,0.28,0.5,0.5,0.28,0.5,0.5,0.44,0.25,0.55,0.44,0.33,0.44,0.25,0.25,0.55,0.44,0.25,0.55,0.5,0.5,0.28,0.44,0.5,0.28,0.28,0.44,0.28,0.25,0.55,0.5,0.33,0.44,0.44,0.5,0.28,0.5,0.33,0.5,0.5,0.5,0.5,0.25,0.55,0.5,0.44,0.39,0.25,0.55,0.5,0.44,0.44,0.5,0.25,0.55,0.78,0.44,0.5,0.44,0.25,0.55,0.28,0.5,0.25,0.55,0.89,0.72,0.67,0.33,0.61,0.67,0.25" style="fill:rgb(0,0,0);font-family:TimesNewRoman;font-size:10.02px;stroke:none;">for retreatment cases in the fluoroquinolone era, a potential breakthrough has been made in MDR-TB </text>
   <text y="376.625" x="70.92,78.704,83.14,88.18,92.622,97.662,102.104,109.786,114.227,119.268,122.029,124.522,127.027,128.122,133.681,137.006,142.004,147.044,149.745,154.785,159.222,164.262,166.767,167.863,170.564,175.604,180.041,182.814,185.319,186.415,189.739,192.513,197.511,202.551,205.324,210.322,215.362,219.261,221.766,222.861,226.186,229.51,234.551,242.232,244.737,245.832,248.606,253.646,258.083,260.588,261.683,264.456,268.893,273.933,278.973,286.655,291.091,294.42,299.46,301.965,303.06,306.935,309.698,314.738,319.778,324.758,327.263,328.358,331.12,336.16,338.665,339.761,346.421,350.847,355.887,360.927,363.688,368.114,373.154,377.58,381.455,386.495,389.0,390.095,392.858,397.898,400.403,401.498,405.924,408.429,409.524,417.205,422.245,426.12,428.883,431.645,436.632,439.137,440.232,447.444,450.757,457.056,460.355,465.396,469.837,474.878,479.319,482.082,484.844,489.831,494.257,496.762,497.857,501.732,506.158,508.92,511.683,514.445,519.486,524.472" svgx:width="0.78,0.44,0.5,0.44,0.5,0.44,0.78,0.44,0.5,0.28,0.25,0.25,0.55,0.56,0.33,0.5,0.5,0.28,0.5,0.44,0.5,0.25,0.55,0.28,0.5,0.44,0.28,0.25,0.55,0.33,0.28,0.5,0.5,0.28,0.5,0.5,0.39,0.25,0.55,0.33,0.33,0.5,0.78,0.25,0.55,0.28,0.5,0.44,0.25,0.55,0.28,0.44,0.5,0.5,0.78,0.44,0.33,0.5,0.25,0.55,0.39,0.28,0.5,0.5,0.5,0.25,0.55,0.28,0.5,0.25,0.55,0.67,0.44,0.5,0.5,0.28,0.44,0.5,0.44,0.39,0.5,0.25,0.55,0.28,0.5,0.25,0.55,0.44,0.25,0.55,0.78,0.5,0.39,0.28,0.28,0.5,0.25,0.55,0.72,0.33,0.72,0.33,0.5,0.44,0.5,0.44,0.28,0.28,0.5,0.44,0.25,0.55,0.39,0.44,0.28,0.28,0.28,0.5,0.5,0.25" style="fill:rgb(0,0,0);font-family:TimesNewRoman;font-size:10.02px;stroke:none;">management. Provided that findings from the landmark study in Bangladesh in a mostly HIV-negative setting </text>
   <text y="388.624" x="70.92,75.35,79.78,84.82,87.32499999999999,88.3,93.34,97.782,100.28699999999999,101.262,104.579,109.009,114.049,116.816,119.582,124.012,128.442,131.208,135.638,140.678,143.183,144.218,146.985,151.976,154.481,155.516,160.507,165.498,170.538,175.578,178.339,182.769,185.536,188.237,193.277,198.317,202.156,204.661,205.696,212.911,215.678,218.379,223.419,225.924,226.899,231.939,234.701,239.692,244.732,247.237,248.212,255.427,258.745,265.823,268.328,269.303,274.343,277.703,282.133,287.173,291.603,294.369,298.799,303.839,308.269,312.699,315.204,316.239,320.669,325.66,330.7,333.205,334.24,338.118,342.548,345.866,350.296,353.062,358.053,360.558,361.593,366.023,371.063,378.745,383.785,386.551,391.591,396.021,401.061,403.566,404.541,411.757,414.523,417.29,422.33,424.835,425.81,433.025,439.085,445.027,447.532,448.507,455.722,458.489,461.255,466.295,468.8,469.835,472.602,477.032,480.91,484.789,487.294,488.329,491.096,496.136,498.902,503.332,508.372,512.271,514.972,520.013,524.442" svgx:width="0.44,0.44,0.5,0.25,0.55,0.5,0.44,0.25,0.55,0.33,0.44,0.5,0.28,0.28,0.44,0.44,0.28,0.44,0.5,0.25,0.55,0.28,0.5,0.25,0.55,0.5,0.5,0.5,0.5,0.28,0.44,0.28,0.28,0.5,0.5,0.39,0.25,0.55,0.72,0.28,0.28,0.5,0.25,0.55,0.5,0.28,0.5,0.5,0.25,0.55,0.72,0.33,0.72,0.25,0.55,0.5,0.33,0.44,0.5,0.44,0.28,0.44,0.5,0.44,0.44,0.25,0.55,0.44,0.5,0.5,0.25,0.55,0.39,0.44,0.33,0.44,0.28,0.5,0.25,0.55,0.44,0.5,0.78,0.5,0.28,0.5,0.44,0.5,0.25,0.55,0.72,0.28,0.28,0.5,0.25,0.55,0.72,0.67,0.61,0.25,0.55,0.72,0.28,0.28,0.5,0.25,0.55,0.28,0.44,0.39,0.39,0.25,0.55,0.28,0.5,0.28,0.44,0.5,0.39,0.28,0.5,0.44,0.25" style="fill:rgb(0,0,0);font-family:TimesNewRoman;font-size:10.02px;stroke:none;">can be replicated in populations with high HIV prevalence and safely combined with ART with less intensive </text>
   <text y="400.624" x="70.92,75.947,80.413,83.174,85.936,90.378,95.405,98.166,101.226,105.692,110.158,113.512,117.894,120.414,123.474,126.235,131.215,133.977,137.876,140.936,148.187,153.167,158.194,160.956,165.936,168.996,174.023,178.405,181.465,185.931,188.931,193.958,197.311,201.777,206.159,211.186,213.947,218.927,222.287,227.267,232.247,237.287,242.267,245.327,248.089,253.129,256.189,265.068,272.326,278.926,282.286,288.425,295.086,298.146,305.887,310.329,315.356,319.822,324.849,329.315,336.996,341.438,346.465,349.227,352.287,355.048,360.088,363.088,368.676,373.656,378.683,381.744,387.332,391.714,396.741,401.206,404.56,408.942,413.969,416.969,424.167,427.521,430.875,433.636,438.102,442.568,445.09,448.15,454.75,459.79,464.77,469.212,474.239,481.921,484.723,487.485,491.951,496.978,499.739,502.501,506.82,509.342,512.402,515.164,520.204,524.586" svgx:width="0.5,0.44,0.28,0.28,0.44,0.5,0.28,0.25,0.44,0.44,0.33,0.44,0.25,0.25,0.28,0.5,0.28,0.39,0.25,0.72,0.5,0.5,0.28,0.5,0.25,0.5,0.44,0.25,0.44,0.25,0.5,0.33,0.44,0.44,0.5,0.28,0.5,0.33,0.5,0.5,0.5,0.5,0.25,0.28,0.5,0.25,0.89,0.72,0.67,0.33,0.61,0.67,0.25,0.78,0.44,0.5,0.44,0.5,0.44,0.78,0.44,0.5,0.28,0.25,0.28,0.5,0.25,0.56,0.5,0.5,0.25,0.56,0.44,0.5,0.44,0.33,0.44,0.5,0.25,0.72,0.33,0.33,0.28,0.44,0.44,0.25,0.25,0.67,0.5,0.5,0.44,0.5,0.78,0.28,0.28,0.44,0.5,0.28,0.28,0.5,0.25,0.25,0.28,0.5,0.44,0.25" style="fill:rgb(0,0,0);font-family:TimesNewRoman;font-size:10.02px;stroke:none;">patient care, this would be a breakthrough in MDR-TB management in Sub Saharan Africa. Concomitantly, the </text>
   <text y="412.624" x="70.92,78.138,80.908,85.948,90.33,93.65,97.532,101.965,106.398,109.167,113.6,116.12,119.441,124.481,127.25,130.02,132.54,137.534,142.574,145.344,147.864,152.858,156.178,158.698,165.917,171.977,177.858,180.379,183.699,188.693,192.014,194.534,198.416,203.41,211.091,216.131,218.9,224.001,231.682,236.124,238.893,241.663,246.096,248.676,255.894,259.215,266.293,268.753,273.793,278.235,281.004,283.774,288.207,293.247,296.008,299.89,302.41,306.843,311.883,316.877,319.38,322.139,327.18,329.7,334.122,339.162,341.682,344.384,349.424,353.847,357.206,361.629,366.052,369.924,372.683,377.723,382.703,385.223,390.207,395.247,402.929,407.969,412.392,415.751,418.271,423.255,426.566,429.086,436.344,439.644,446.722,449.182,454.222,458.664,461.424,464.183,468.606,473.646,476.407,480.279,482.739,487.162,489.863,492.323,496.746,499.206,504.19,506.891,511.875,516.859,521.282,524.593" svgx:width="0.72,0.28,0.5,0.44,0.33,0.39,0.44,0.44,0.28,0.44,0.25,0.33,0.5,0.28,0.28,0.25,0.5,0.5,0.28,0.25,0.5,0.33,0.25,0.72,0.67,0.61,0.25,0.33,0.5,0.33,0.25,0.39,0.5,0.78,0.5,0.28,0.5,0.78,0.44,0.28,0.28,0.44,0.25,0.72,0.33,0.72,0.25,0.5,0.44,0.28,0.28,0.44,0.5,0.28,0.39,0.25,0.44,0.5,0.5,0.25,0.28,0.5,0.25,0.44,0.5,0.25,0.28,0.5,0.44,0.33,0.44,0.44,0.39,0.28,0.5,0.5,0.25,0.5,0.5,0.78,0.5,0.44,0.33,0.25,0.5,0.33,0.25,0.72,0.33,0.72,0.25,0.5,0.44,0.28,0.28,0.44,0.5,0.28,0.39,0.25,0.44,0.28,0.25,0.44,0.25,0.5,0.28,0.5,0.5,0.44,0.33,0.25" style="fill:rgb(0,0,0);font-family:TimesNewRoman;font-size:10.02px;stroke:none;">wide-scale roll out of ART for symptomatic HIV patients and to an increasing number of HIV patients at a higher </text>
   <text y="424.564" x="70.92,77.58,84.839,89.865,92.325,96.79,101.77,106.75,111.79,114.551,117.071,124.752,129.254,134.234,136.754,141.219,143.981,147.895,152.921,155.441,159.822,164.849,169.875,172.636,175.989,178.69,183.716,188.696,191.458,195.899,198.42,201.181,206.221,208.741,213.206,218.186,223.212,227.594,232.62,237.085,239.846,244.826,249.806,252.326,261.205,268.463,275.124,278.483,284.622,291.222,293.742,301.423,305.865,310.891,315.356,320.382,324.847,332.528,336.97,341.996,344.758,347.279,349.784,352.319" svgx:width="0.67,0.72,0.5,0.25,0.44,0.5,0.5,0.5,0.28,0.25,0.78,0.44,0.5,0.25,0.44,0.28,0.39,0.5,0.25,0.44,0.5,0.5,0.28,0.33,0.28,0.5,0.5,0.28,0.44,0.25,0.28,0.5,0.25,0.44,0.5,0.5,0.44,0.5,0.44,0.28,0.5,0.5,0.25,0.89,0.72,0.67,0.33,0.61,0.67,0.25,0.78,0.44,0.5,0.44,0.5,0.44,0.78,0.44,0.5,0.28,0.25,0.25,0.55,0.25" style="fill:rgb(0,0,0);font-family:TimesNewRoman;font-size:10.02px;stroke:none;">CD4 count may also contribute to enhancing MDR-TB management. </text>
   <text y="440.644" x="70.92,78.164,80.926,85.946,90.405,93.166,95.928,98.868,101.629,106.669,111.128,114.068,122.887,130.085,136.745,140.105,146.237,152.898,155.837,163.519,167.961,172.981,177.44,182.46,186.919,194.66,199.102,204.122,206.883,209.823,212.585,217.027,222.047,227.067,230.974,235.433,239.815,244.795,249.237,252.177,257.197,261.656,265.563,268.443,271.79,276.249,280.708,285.089,290.109,292.871,295.633,300.612,303.552,308.572,313.031,317.49,322.47,325.41,330.39,333.75,338.131,343.171,345.933,350.375,355.395,358.335,362.716,365.656,370.636,375.656,380.676,384.584,387.346,389.806,392.745,399.944,404.984,407.745,412.187,417.167,420.047,424.506,428.414,431.354,435.813,438.752,443.211,448.191,451.491,456.531,459.292,462.054,466.496,469.842,474.822,477.702,485.444,489.886,494.865,497.805,501.152,505.611,510.631,515.651,520.11,524.492" svgx:width="0.72,0.28,0.5,0.44,0.28,0.28,0.25,0.28,0.5,0.44,0.25,0.89,0.72,0.67,0.33,0.61,0.67,0.25,0.78,0.44,0.5,0.44,0.5,0.44,0.78,0.44,0.5,0.28,0.25,0.28,0.44,0.5,0.5,0.39,0.44,0.44,0.5,0.44,0.25,0.5,0.44,0.39,0.25,0.33,0.44,0.44,0.44,0.5,0.28,0.28,0.5,0.25,0.5,0.44,0.44,0.5,0.25,0.5,0.33,0.44,0.5,0.28,0.44,0.5,0.25,0.44,0.25,0.5,0.5,0.5,0.39,0.28,0.25,0.25,0.72,0.5,0.28,0.44,0.5,0.25,0.44,0.39,0.25,0.44,0.25,0.44,0.5,0.33,0.5,0.28,0.28,0.44,0.33,0.5,0.25,0.78,0.44,0.5,0.25,0.33,0.44,0.5,0.5,0.44,0.44,0.25" style="fill:rgb(0,0,0);font-family:TimesNewRoman;font-size:10.02px;stroke:none;">Albeit the MDR-TB management landscape has recently been granted a boost, which as a corollary may reduce </text>
   <text y="452.644" x="70.92,73.682,78.722,83.184,85.689,87.805,92.785,97.825,101.175,105.638,108.4,111.161,116.141,121.165,123.67,125.725,130.705,134.065,136.57,138.685,141.447,146.487,149.838,154.3,158.763,161.525,164.226,169.25,174.274,178.113,183.137,187.6,191.439,195.337,197.84199999999998,199.958,204.42,209.4,214.424,216.929,219.045,221.806,226.846,231.309,233.814,235.929,240.311,245.351,249.19,254.23,256.991,261.971,266.995,269.5,271.616,274.966,277.728,281.566,286.606,289.111,291.167,296.191,299.541,302.046,304.101,309.081,314.121,318.033,323.013,327.476,332.5,340.181,342.943,347.406,350.167,352.67199999999997,354.787,363.709,370.958,377.618,380.978,387.114,393.774,396.279,398.394,401.156,404.516,408.897,413.937,417.776,425.518,428.279,432.191,436.103,438.864,443.888,448.912,451.431,453.936,456.051,458.813,463.793,467.144,471.606,476.069,478.831,481.592,486.616,491.64,494.145,496.261,500.642,505.666,510.69,513.392,516.742,521.767,524.468" svgx:width="0.28,0.5,0.44,0.25,0.55,0.5,0.5,0.33,0.44,0.28,0.28,0.5,0.5,0.25,0.55,0.5,0.33,0.25,0.55,0.28,0.5,0.33,0.44,0.44,0.28,0.28,0.5,0.5,0.39,0.5,0.44,0.39,0.39,0.25,0.55,0.44,0.5,0.5,0.25,0.55,0.28,0.5,0.44,0.25,0.55,0.44,0.5,0.39,0.5,0.28,0.5,0.5,0.25,0.55,0.33,0.28,0.39,0.5,0.25,0.55,0.5,0.33,0.25,0.55,0.5,0.5,0.39,0.5,0.44,0.5,0.78,0.28,0.44,0.28,0.25,0.55,0.89,0.72,0.67,0.33,0.61,0.67,0.25,0.55,0.28,0.33,0.44,0.5,0.39,0.78,0.28,0.39,0.39,0.28,0.5,0.5,0.25,0.25,0.55,0.28,0.5,0.33,0.44,0.44,0.28,0.28,0.5,0.5,0.25,0.55,0.44,0.5,0.5,0.28,0.33,0.5,0.28,0.25" style="fill:rgb(0,0,0);font-family:TimesNewRoman;font-size:10.02px;stroke:none;">the duration of infectiousness and the ensuing risk of nosocomial MDR-TB transmission, infection control </text>
   <text y="464.644" x="70.92,75.96,79.32,83.747,88.173,90.937,93.7,98.127,102.554,106.43,108.935,110.81,115.236,120.276,123.04,126.916,129.617,132.379,137.419,142.459,144.964,146.839,149.54,154.58,157.085,158.96,163.387,166.15,168.914,173.954,176.717,181.144,185.02,187.525,189.339,192.103,197.143,199.648,201.523,206.563,209.264,214.252,219.292,221.797,223.672,229.772,236.433,238.938,240.753,245.18,250.168,255.208,257.713,259.528,266.74,270.055,277.133,279.638,281.452,286.44,291.48,294.795,299.835,304.262,309.25,311.755,313.629,317.505,321.932,324.696,327.459,330.223,335.263,340.303,344.141,346.646,348.521,351.836,356.263,363.944,368.386,371.149,376.189,378.694,380.569,383.333,386.096,393.87,396.633,399.397,403.824,408.864,411.384,413.889,415.763,422.976,427.403,431.278,435.705,439.02,441.783,446.823,449.587,452.35,457.39,461.817,464.322,466.197,470.073,472.836,477.824,482.864,485.628,490.055,493.93,496.435,498.31,501.074,506.114,508.61899999999997,510.433,514.309,519.297,524.337" svgx:width="0.5,0.33,0.44,0.44,0.28,0.28,0.44,0.44,0.39,0.25,0.55,0.44,0.5,0.28,0.39,0.28,0.28,0.5,0.5,0.25,0.55,0.28,0.5,0.25,0.55,0.44,0.28,0.28,0.5,0.28,0.44,0.39,0.25,0.55,0.28,0.5,0.25,0.55,0.5,0.28,0.5,0.5,0.25,0.55,0.61,0.67,0.25,0.55,0.44,0.5,0.5,0.25,0.55,0.72,0.33,0.72,0.25,0.55,0.5,0.5,0.33,0.5,0.44,0.5,0.25,0.55,0.39,0.44,0.28,0.28,0.28,0.5,0.5,0.39,0.25,0.55,0.33,0.44,0.78,0.44,0.28,0.5,0.25,0.55,0.28,0.28,0.78,0.28,0.28,0.44,0.5,0.25,0.25,0.55,0.72,0.44,0.39,0.44,0.33,0.28,0.5,0.28,0.28,0.5,0.44,0.25,0.55,0.39,0.28,0.5,0.5,0.28,0.44,0.39,0.25,0.55,0.28,0.5,0.25,0.55,0.39,0.5,0.5,0.25" style="fill:rgb(0,0,0);font-family:TimesNewRoman;font-size:10.02px;stroke:none;">practices existing in clinics in high TB and HIV burden settings remain limited. Descriptive studies in sub </text>
   <text y="476.644" x="70.92,76.509,80.976,86.004,90.386,93.741,98.207,103.187,105.692,106.547,113.745,117.1,120.455,123.216,127.683,132.065,134.57,135.425,140.453,144.835,149.863,154.329,156.834,157.689,161.528,166.508,171.536,178.734,183.762,186.267,187.122,189.823,194.863,199.33,202.092,204.597,205.452,210.431,213.791,216.553,220.995,225.974,228.47899999999998,229.334,232.096,237.076,240.43,244.897,249.279,252.04,254.802,259.83,264.858,267.363,268.218,272.6,277.628,282.656,285.357,288.712,293.74,296.501,299.006,299.801,304.781,309.761,312.522,315.284,319.726,322.487,326.929,330.845,333.368,335.873,336.728,341.194,343.956,348.984,353.964,358.992,361.497,362.292,369.49,372.251,375.013,380.053,382.558,383.413,387.88,390.385,391.239,396.219,400.661,404.577,407.339,411.805,414.31,415.165,417.927,421.286,424.048,428.43,433.458,437.925,440.43,441.224,446.252,449.552,452.057,452.911,457.378,462.358,467.338,472.366,477.394,480.096,485.076,490.116,492.621,493.415,498.443,502.91,505.672,508.433,512.875,517.903,520.665,524.581" svgx:width="0.56,0.44,0.5,0.44,0.33,0.44,0.5,0.25,0.55,0.72,0.33,0.33,0.28,0.44,0.44,0.25,0.55,0.5,0.44,0.5,0.44,0.25,0.55,0.39,0.5,0.5,0.72,0.5,0.25,0.55,0.28,0.5,0.44,0.28,0.25,0.55,0.5,0.33,0.28,0.44,0.5,0.25,0.55,0.28,0.5,0.33,0.44,0.44,0.28,0.28,0.5,0.5,0.25,0.55,0.44,0.5,0.5,0.28,0.33,0.5,0.28,0.25,0.55,0.5,0.5,0.28,0.28,0.44,0.28,0.44,0.39,0.25,0.25,0.55,0.44,0.28,0.5,0.5,0.5,0.25,0.55,0.72,0.28,0.28,0.5,0.25,0.55,0.44,0.25,0.55,0.5,0.44,0.39,0.28,0.44,0.25,0.55,0.28,0.33,0.28,0.44,0.5,0.44,0.25,0.55,0.5,0.33,0.25,0.55,0.44,0.5,0.5,0.5,0.5,0.28,0.5,0.5,0.25,0.55,0.5,0.44,0.28,0.28,0.44,0.5,0.28,0.39,0.25" style="fill:rgb(0,0,0);font-family:TimesNewRoman;font-size:10.02px;stroke:none;">Saharan Africa have shown that often infection control policies, along with a basic triage of coughing patients </text>
   <text y="488.644" x="70.92,75.354,78.675,83.109,85.61399999999999,86.589,89.291,94.331,98.765,103.805,106.575,110.458,113.228,117.662,122.702,125.464,127.954,130.459,131.374,136.93,141.364,144.134,146.905,151.945,155.266,159.7,162.20499999999998,163.18,165.951,170.991,173.496,174.411,179.406,182.727,187.161,192.156,196.59,201.63,204.4,206.905,207.9,216.796,224.019,230.619,233.978,240.089,246.76,249.265,250.18,254.617,259.657,264.655,267.15999999999997,268.075,275.297,282.519,289.12,292.444,298.554,305.226,307.731,308.646,313.686,318.726,322.564,327.604,331.986,337.026,344.708,347.481,351.918,354.691,357.19599999999997,358.171,360.945,364.27,368.772,373.812,377.697,385.379,388.152,392.038,395.924,398.697,403.737,408.777,411.282,412.257,416.694,421.131,425.017,429.454,433.339,435.844,436.819,439.593,444.591,447.096,448.071,450.844,455.884,458.658,462.544,465.049,465.964,469.849,474.286,477.06,479.833,482.607,487.647,492.687,495.192,496.167,503.848,508.29,513.288,515.793,516.768,519.469,524.449" svgx:width="0.44,0.33,0.44,0.25,0.55,0.28,0.5,0.44,0.5,0.28,0.39,0.28,0.44,0.5,0.28,0.25,0.25,0.55,0.56,0.44,0.28,0.28,0.5,0.33,0.44,0.25,0.55,0.28,0.5,0.25,0.55,0.5,0.33,0.44,0.5,0.44,0.5,0.28,0.25,0.55,0.89,0.72,0.67,0.33,0.61,0.67,0.25,0.55,0.44,0.5,0.5,0.25,0.55,0.72,0.72,0.67,0.33,0.61,0.67,0.25,0.55,0.5,0.5,0.39,0.5,0.44,0.5,0.78,0.28,0.44,0.28,0.25,0.55,0.28,0.33,0.44,0.5,0.39,0.78,0.28,0.39,0.39,0.28,0.5,0.5,0.25,0.55,0.44,0.44,0.39,0.44,0.39,0.25,0.55,0.28,0.5,0.25,0.55,0.28,0.5,0.28,0.39,0.25,0.55,0.39,0.44,0.28,0.28,0.28,0.5,0.5,0.25,0.55,0.78,0.44,0.5,0.25,0.55,0.28,0.5,0.25" style="fill:rgb(0,0,0);font-family:TimesNewRoman;font-size:10.02px;stroke:none;">are inexistent. Failure to prevent MDR-TB and XDR-TB nosocomial transmission cases in this setting may in </text>
   <text y="500.584" x="70.92,73.689,78.729,82.048,87.088,89.608,94.04,96.809,100.689,105.682,108.202,110.971,115.403,120.396,125.436,129.868,134.908,137.676,140.445,144.877,147.645,150.414,155.407,157.927,160.695,165.735,170.167,173.487,177.919,182.35,186.231,190.663,193.183,197.615,202.655,210.433,218.115,223.155,228.195,230.963,233.732,238.725,241.245,250.184,257.442,264.109,267.428,273.533,280.2,282.72,285.421,288.781,293.213,298.253,302.133,309.815,312.583,316.464,320.345,323.113,328.153,333.193,335.653,338.158,340.633" svgx:width="0.28,0.5,0.33,0.5,0.25,0.44,0.28,0.39,0.5,0.25,0.28,0.44,0.5,0.5,0.44,0.5,0.28,0.28,0.44,0.28,0.28,0.5,0.25,0.28,0.5,0.44,0.33,0.44,0.44,0.39,0.44,0.25,0.44,0.5,0.78,0.78,0.5,0.5,0.28,0.28,0.5,0.25,0.89,0.72,0.67,0.33,0.61,0.67,0.25,0.28,0.33,0.44,0.5,0.39,0.78,0.28,0.39,0.39,0.28,0.5,0.5,0.25,0.25,0.55,0.25" style="fill:rgb(0,0,0);font-family:TimesNewRoman;font-size:10.02px;stroke:none;">turn also tangentially increase community MDR-TB transmission. </text>
   <text y="516.604" x="70.92,76.502,79.85,84.83,89.87,92.571,97.611,102.071,107.092,109.597,111.232,113.934,118.974,123.434,126.195,128.7,130.336,133.683,138.143,140.905,144.264,148.724,153.184,155.946,163.627,168.069,173.09,175.851,178.356,179.992,185.013,189.473,192.234,194.996,199.438,204.459,207.22,211.129,213.634,215.269,219.729,223.077,227.537,230.042,231.677,234.438,238.337,243.358,246.12,250.501,253.263,257.723,262.744,265.249,266.884,270.232,273.531,278.552,286.234,288.739,290.374,295.395,298.157,303.178,307.638,310.937,313.442,315.077,320.098,324.558,331.804,334.30899999999997,335.884,342.017,348.677,351.182,352.818,357.839,362.299,365.06,367.822,372.203,377.224,379.986,383.895,386.411,388.916,390.491,395.512,398.86,401.365,403.0,405.761,410.203,412.965,415.46999999999997,417.105,421.565,424.326,429.306,434.346,438.806,441.311,442.947,445.708,453.45,461.191,465.633,470.654,473.415,477.875,480.637,485.097,487.602,489.297,492.059,495.418,498.18,502.622,507.643,512.103,514.608,516.243,521.223,524.522" svgx:width="0.56,0.33,0.5,0.5,0.28,0.5,0.44,0.5,0.25,0.55,0.28,0.5,0.44,0.28,0.25,0.55,0.33,0.44,0.28,0.33,0.44,0.44,0.28,0.78,0.44,0.5,0.28,0.25,0.55,0.5,0.44,0.28,0.28,0.44,0.5,0.28,0.39,0.25,0.55,0.44,0.33,0.44,0.25,0.55,0.28,0.39,0.5,0.28,0.44,0.28,0.44,0.5,0.25,0.55,0.33,0.33,0.5,0.78,0.25,0.55,0.5,0.28,0.5,0.44,0.33,0.25,0.55,0.5,0.44,0.72,0.25,0.55,0.61,0.67,0.25,0.55,0.5,0.44,0.28,0.28,0.44,0.5,0.28,0.39,0.25,0.25,0.55,0.5,0.33,0.25,0.55,0.28,0.44,0.28,0.25,0.55,0.44,0.28,0.5,0.5,0.44,0.25,0.55,0.28,0.78,0.78,0.44,0.5,0.28,0.44,0.28,0.44,0.25,0.55,0.28,0.33,0.28,0.44,0.5,0.44,0.25,0.55,0.5,0.33,0.25" style="fill:rgb(0,0,0);font-family:TimesNewRoman;font-size:10.02px;stroke:none;">Provided that retreatment patients are isolated from other new TB patients, or let alone immediate triage of </text>
   <text y="528.604" x="70.92,75.347,80.387,85.375,90.363,95.403,98.166,103.154,108.194,110.699,113.654,118.694,123.136,125.9,128.663,133.09,138.13,140.892,144.767,147.272,150.287,153.051,157.478,162.518,166.96,170.835,173.34,176.355,181.396,184.157,188.584,193.011,197.438,199.92,202.42499999999998,205.441,208.204,213.244,217.671,220.986,225.412,227.917,230.932,233.696,237.572,240.077,243.092,247.519,250.024,253.039,256.914,261.902,266.942,271.384,274.504,279.544,282.308,286.184,288.947,291.711,296.138,298.643,301.68,306.061,311.101,318.783,323.823,326.584,331.624,336.091,338.853,341.614,346.642,351.67,354.175,357.13,362.158,365.458,367.963,370.978,373.782,381.523,389.204,393.646,398.674,401.436,405.903,408.664,413.131,415.63599999999997,418.62,423.122,428.162,432.057,434.839,438.173,442.555,445.735,449.095,453.541,457.987,460.769,463.552,468.559,472.94,475.445,478.46,483.467,488.474,492.369,497.376,501.822,506.829,514.51,517.272,521.718,524.5" svgx:width="0.44,0.5,0.5,0.5,0.5,0.28,0.5,0.5,0.25,0.55,0.5,0.44,0.28,0.28,0.44,0.5,0.28,0.39,0.25,0.55,0.28,0.44,0.5,0.44,0.39,0.25,0.55,0.5,0.28,0.44,0.44,0.44,0.25,0.25,0.55,0.28,0.5,0.44,0.33,0.44,0.25,0.55,0.28,0.39,0.25,0.55,0.44,0.25,0.55,0.39,0.5,0.5,0.44,0.33,0.5,0.28,0.39,0.28,0.28,0.44,0.25,0.55,0.44,0.5,0.78,0.5,0.28,0.5,0.44,0.28,0.28,0.5,0.5,0.25,0.55,0.5,0.33,0.25,0.55,0.28,0.78,0.78,0.44,0.5,0.28,0.44,0.28,0.44,0.25,0.55,0.44,0.5,0.39,0.28,0.33,0.44,0.33,0.33,0.44,0.44,0.28,0.28,0.5,0.44,0.25,0.55,0.5,0.5,0.39,0.5,0.44,0.5,0.78,0.28,0.44,0.28,0.25" style="fill:rgb(0,0,0);font-family:TimesNewRoman;font-size:10.02px;stroke:none;">coughing patients takes place, there is a synergistic combination of immediate cost-effective nosocomial </text>
   <text y="540.604" x="70.92,73.703,78.71,82.043,86.489,90.935,93.718,96.5,101.507,106.514,109.035,113.481,118.488,123.495,126.278,129.611,134.618,137.401,139.922,143.817,146.599,149.933,154.379,157.161,161.607,166.614,169.397,173.842,177.737,180.239,182.7,189.932,194.939,197.721,202.167,207.174,209.695,217.377,221.82,226.827,229.26,234.276,238.731,241.251,246.267,251.283,254.075,256.595,259.386,264.402,266.922,271.938,274.73,279.185,283.64,288.094,290.615,293.406,298.422,302.877,305.578,308.098,315.339,318.13,320.922,323.714,326.234,331.25,336.266,339.057,341.577,346.593,349.385,354.401,358.783,362.125,364.827,367.347,370.689,375.06,378.954,383.96,388.966,392.298,396.743,401.125,405.019,407.539,410.872,414.204,419.21,427.002,429.522,432.303,437.309,441.754,444.274,447.607,452.613,455.394,460.4,463.733,468.178,470.698,477.928,483.495,489.437,491.957,495.851,500.296,504.741,507.522,511.967,514.487,519.493,524.499" svgx:width="0.28,0.5,0.33,0.44,0.44,0.28,0.28,0.5,0.5,0.25,0.44,0.5,0.5,0.28,0.33,0.5,0.28,0.25,0.39,0.28,0.33,0.44,0.28,0.44,0.5,0.28,0.44,0.39,0.25,0.25,0.72,0.5,0.28,0.44,0.5,0.25,0.78,0.44,0.5,0.25,0.5,0.44,0.25,0.5,0.5,0.28,0.25,0.28,0.5,0.25,0.5,0.28,0.44,0.44,0.44,0.25,0.28,0.5,0.44,0.28,0.25,0.72,0.28,0.28,0.28,0.25,0.5,0.5,0.28,0.25,0.5,0.28,0.5,0.44,0.33,0.28,0.25,0.33,0.44,0.39,0.5,0.5,0.33,0.44,0.44,0.39,0.25,0.33,0.33,0.5,0.78,0.25,0.28,0.5,0.44,0.25,0.33,0.5,0.28,0.5,0.33,0.44,0.25,0.72,0.56,0.61,0.25,0.39,0.44,0.44,0.28,0.44,0.25,0.5,0.5,0.25" style="fill:rgb(0,0,0);font-family:TimesNewRoman;font-size:10.02px;stroke:none;">infection control strategies, which may be put in place that will not divert resources from the future DST scale up </text>
   <text y="552.604" x="70.92,75.936,79.279,81.78399999999999,86.779,90.121,94.576,97.368,100.711,105.165,109.62,112.412,120.093,124.535,129.551,132.343,134.84799999999998,139.903,144.358,148.813,152.716,157.171,161.075,163.57999999999998,168.635,173.09,178.106,183.122,185.627,190.622,193.414,198.43,201.772,205.115,209.497,213.4,216.192,219.535,224.551,229.006,231.707,236.723,240.066,244.447,246.907,249.412,254.467,261.708,264.499,267.291,271.746,275.089,280.105,284.52,287.29,290.059,295.099,299.532,302.302,307.222,309.727,314.782,318.102,323.096,326.417,328.92199999999997,333.977,338.971,342.292,346.724,351.765,356.197,361.237,364.007,366.708,371.748,376.788,379.293,384.349,388.781,392.663,397.096,401.529,404.298,408.731,411.501,414.27,419.31,424.304,426.80899999999997,431.864,436.904,441.944,445.783,450.823,455.205,460.245,467.926,470.696,475.129,477.898,480.403,485.518,494.41,501.629,508.296,511.616,517.723,524.443" svgx:width="0.5,0.33,0.25,0.55,0.33,0.44,0.28,0.33,0.44,0.44,0.28,0.78,0.44,0.5,0.28,0.25,0.55,0.44,0.44,0.39,0.44,0.39,0.25,0.55,0.44,0.5,0.5,0.25,0.55,0.28,0.5,0.33,0.33,0.44,0.39,0.28,0.33,0.5,0.44,0.28,0.5,0.33,0.44,0.25,0.25,0.55,0.72,0.28,0.28,0.44,0.33,0.5,0.44,0.28,0.28,0.5,0.44,0.28,0.5,0.25,0.55,0.33,0.5,0.33,0.25,0.55,0.5,0.33,0.44,0.5,0.44,0.5,0.28,0.28,0.5,0.5,0.25,0.55,0.44,0.39,0.44,0.44,0.28,0.44,0.28,0.28,0.5,0.5,0.25,0.55,0.5,0.5,0.39,0.5,0.44,0.5,0.78,0.28,0.44,0.28,0.25,0.55,0.89,0.72,0.67,0.33,0.61,0.67,0.25" style="fill:rgb(0,0,0);font-family:TimesNewRoman;font-size:10.02px;stroke:none;">of retreatment cases and infrastructure. Alternatively for preventing escalating nosocomial MDR-TB </text>
   <text y="564.604" x="70.92,73.686,77.002,81.431,86.471,90.349,98.03,100.796,104.673,108.551,111.317,116.357,121.397,123.917,126.422,128.897,133.326,138.366,140.871,143.406,146.107,151.147,156.137,161.127,166.167,170.596,173.361,176.127,181.167,185.596,188.101,190.636,195.065,200.105,207.88,215.562,220.602,225.642,228.407,231.173,236.16,239.487,244.488,248.928,252.817,257.257,262.258,264.763,267.298,276.117,283.375,290.049,293.377,299.439,306.099,308.604,311.139,313.916,317.244,321.684,326.123,328.9,336.581,341.023,346.024,348.801,351.306,353.841,361.522,366.523,371.524,375.964,378.74,382.629,385.134,387.669,395.35,399.852,404.853,407.358,409.894,414.895,419.334,421.839,424.374,428.814,433.815,438.816,441.593,446.594,449.921,454.303,459.343,461.839,464.344,466.879,470.207,475.208,477.713,480.248,486.361,490.801,494.64,499.68,502.456,507.457,512.458,514.954,517.459,519.994,524.434" svgx:width="0.28,0.33,0.44,0.5,0.39,0.78,0.28,0.39,0.39,0.28,0.5,0.5,0.25,0.25,0.55,0.44,0.5,0.25,0.55,0.28,0.5,0.5,0.5,0.5,0.44,0.28,0.28,0.5,0.44,0.25,0.55,0.44,0.5,0.78,0.78,0.5,0.5,0.28,0.28,0.5,0.33,0.5,0.44,0.39,0.44,0.5,0.25,0.55,0.89,0.72,0.67,0.33,0.61,0.67,0.25,0.55,0.28,0.33,0.44,0.44,0.28,0.78,0.44,0.5,0.28,0.25,0.55,0.78,0.5,0.5,0.44,0.28,0.39,0.25,0.55,0.78,0.44,0.5,0.25,0.55,0.5,0.44,0.25,0.55,0.44,0.5,0.5,0.28,0.5,0.33,0.44,0.5,0.25,0.25,0.55,0.33,0.5,0.25,0.55,0.61,0.44,0.39,0.5,0.28,0.5,0.5,0.25,0.25,0.55,0.44,0.25" style="fill:rgb(0,0,0);font-family:TimesNewRoman;font-size:10.02px;stroke:none;">transmission, an innovative community-based MDR-TB treatment models may be explored. In Lesotho, a </text>
   <text y="576.604" x="70.92,75.35,80.39,88.166,95.848,100.888,105.928,108.694,111.461,116.452,119.77,124.81,129.239,133.118,137.548,142.588,145.093,146.428,155.246,162.505,169.169,172.487,178.59,185.254,187.759,189.034,191.8,195.118,199.548,203.978,206.799,214.481,218.922,223.963,226.724,229.22899999999998,230.624,238.305,243.345,248.336,252.766,255.533,258.038,259.372,262.139,267.179,271.609,274.375,276.88,278.215,280.981,286.021,291.012,296.052,298.819,303.859,308.289,313.329,315.834,317.108,322.149,326.59,329.357,332.123,336.553,341.593,344.355,348.234,350.739,352.073,354.84,359.88,362.385,363.719,367.598,370.365,374.795,379.835,382.601,387.031,389.536,390.871,395.301,398.067,400.834,405.874,408.64,413.07,417.5,420.266,422.771,424.106,428.536,433.576,438.567,443.607,446.373,449.14,451.906,456.947,461.937,464.442,465.777,469.656,474.647,479.638,486.853,491.283,496.323,498.828,500.163,502.929,507.969,512.399,515.166,517.671,519.005,521.772,524.473" svgx:width="0.44,0.5,0.78,0.78,0.5,0.5,0.28,0.28,0.5,0.33,0.5,0.44,0.39,0.44,0.5,0.25,0.55,0.89,0.72,0.67,0.33,0.61,0.67,0.25,0.55,0.28,0.33,0.44,0.44,0.28,0.78,0.44,0.5,0.28,0.25,0.55,0.78,0.5,0.5,0.44,0.28,0.25,0.55,0.28,0.5,0.44,0.28,0.25,0.55,0.28,0.5,0.5,0.5,0.28,0.5,0.44,0.5,0.25,0.55,0.5,0.44,0.28,0.28,0.44,0.5,0.28,0.39,0.25,0.55,0.28,0.5,0.25,0.55,0.39,0.28,0.44,0.5,0.28,0.44,0.25,0.55,0.44,0.28,0.28,0.5,0.28,0.44,0.44,0.28,0.25,0.55,0.44,0.5,0.5,0.5,0.28,0.28,0.28,0.5,0.5,0.25,0.55,0.39,0.5,0.5,0.72,0.44,0.5,0.25,0.55,0.28,0.5,0.44,0.28,0.25,0.55,0.28,0.28,0.25" style="fill:rgb(0,0,0);font-family:TimesNewRoman;font-size:10.02px;stroke:none;">community-based MDR-TB treatment model that involved patients in stable clinical condition showed that it </text>
   <text y="588.604" x="70.92,78.695,83.122,88.111,90.616,92.911,97.951,102.393,104.898,107.133,110.449,114.877,119.305,123.181,125.946,130.935,133.699,138.127,140.632,142.927,145.691,150.68,153.185,155.48,160.469,163.784,168.773,173.813,176.578,181.618,186.046,188.551,190.786,195.214,197.979,200.743,205.783,208.548,212.976,217.44,220.203,222.966,227.952,230.457,232.752,237.178,240.358,243.672,248.098,252.523,255.286,258.049,263.089,267.514,270.019,272.314,276.74,281.78,286.767,289.272,291.566,295.992,301.032,304.907,307.609,310.922,315.348,318.468,321.828,326.254,330.68,333.442,336.205,341.245,345.671,348.176,350.47,354.896,359.322,362.635,367.061,369.566,371.861,374.623,379.61,382.115,384.41,388.836,391.341,393.635,397.51,401.936,404.698,407.461,410.224,415.264,420.251,422.756,424.991,432.202,437.242,441.668,444.982,449.408,451.913,454.207,456.97,462.01,465.324,468.637,473.063,476.938,479.7,483.014,488.054,492.496,495.258,500.245,503.559,507.985,510.49,512.725,516.039,521.079,524.393" svgx:width="0.78,0.44,0.5,0.25,0.55,0.5,0.44,0.25,0.55,0.33,0.44,0.44,0.39,0.28,0.5,0.28,0.44,0.25,0.55,0.28,0.5,0.25,0.55,0.5,0.33,0.5,0.5,0.28,0.5,0.44,0.25,0.55,0.44,0.28,0.28,0.5,0.28,0.44,0.44,0.28,0.28,0.5,0.25,0.55,0.44,0.33,0.33,0.44,0.44,0.28,0.28,0.5,0.44,0.25,0.55,0.44,0.5,0.5,0.25,0.55,0.44,0.5,0.39,0.28,0.33,0.44,0.33,0.33,0.44,0.44,0.28,0.28,0.5,0.44,0.25,0.55,0.44,0.44,0.33,0.44,0.25,0.55,0.28,0.5,0.25,0.55,0.44,0.25,0.55,0.39,0.44,0.28,0.28,0.28,0.5,0.5,0.25,0.55,0.72,0.5,0.44,0.33,0.44,0.25,0.55,0.28,0.5,0.33,0.33,0.44,0.39,0.28,0.33,0.5,0.44,0.28,0.5,0.33,0.44,0.25,0.55,0.33,0.5,0.33,0.25" style="fill:rgb(0,0,0);font-family:TimesNewRoman;font-size:10.02px;stroke:none;">may be feasible to provide clinically effective and cost-effective care in a setting where infrastructure for </text>
   <text y="600.603" x="70.92,75.361,80.363,88.15,95.832,100.834,105.836,108.613,111.391,116.393,119.033,121.811,125.7,128.341,132.3,136.74,141.181,144.51,148.951,153.392,156.032,159.361,164.924,169.365,174.366,179.368,184.37,187.011,191.392,194.154,196.794,201.235,204.013,206.51,209.007,211.647,216.649,221.651,226.653,231.72,235.044,237.536,240.176,246.846,251.282,254.606,259.603,262.926,267.362,270.002,273.326,277.762,282.802,285.574,288.347,292.783,297.219,299.991,302.764,307.804,312.844,315.484,318.257,323.297,326.069,329.954,332.594,340.276,345.316,350.356,354.798,357.57,360.21,362.983,367.98,370.62,375.66,378.422,383.462,387.844,391.167,393.807,401.029,404.353,411.431,414.011,419.008,422.331,426.767,431.807,436.243,439.016,443.452,448.492,452.927,457.363,460.004,463.888,468.324,471.097,473.869,476.642,481.639,486.636,490.52,493.012,495.653,500.089,503.973,509.013,513.449,517.885,520.658,524.542" svgx:width="0.44,0.5,0.78,0.78,0.5,0.5,0.28,0.28,0.5,0.25,0.28,0.39,0.25,0.39,0.44,0.44,0.33,0.44,0.44,0.25,0.33,0.56,0.44,0.5,0.5,0.5,0.25,0.44,0.28,0.25,0.44,0.28,0.25,0.25,0.25,0.5,0.5,0.5,0.5,0.33,0.25,0.25,0.67,0.44,0.33,0.5,0.33,0.44,0.25,0.33,0.44,0.5,0.28,0.28,0.44,0.44,0.28,0.28,0.5,0.5,0.25,0.28,0.5,0.28,0.39,0.25,0.78,0.5,0.5,0.44,0.28,0.25,0.28,0.5,0.25,0.5,0.28,0.5,0.44,0.33,0.25,0.72,0.33,0.72,0.25,0.5,0.33,0.44,0.5,0.44,0.28,0.44,0.5,0.44,0.44,0.25,0.39,0.44,0.28,0.28,0.28,0.5,0.5,0.39,0.25,0.25,0.44,0.39,0.5,0.44,0.44,0.28,0.39,0.25" style="fill:rgb(0,0,0);font-family:TimesNewRoman;font-size:10.02px;stroke:none;">community is scarce (Seung et al., 2009). Before replicating this model in other HIV prevalence settings, aspects </text>
   <text y="612.603" x="70.92,75.946,79.246,81.75099999999999,83.866,88.331,93.357,101.098,108.78,113.806,118.832,121.593,124.355,129.335,132.687,137.713,142.178,146.092,150.474,155.454,157.959,160.074,162.835,167.876,171.175,174.535,179.0,182.914,185.675,188.975,194.001,198.466,201.227,206.207,209.56,214.025,216.53,218.585,223.611,228.076,232.457,237.498,241.962,246.942,249.447,251.563,254.324,259.364,261.86899999999997,263.924,268.95,273.332,275.837,277.952,281.866,284.628,287.98,292.362,297.388,302.414,305.116,310.142,314.606,319.632,324.014,328.994,331.499,333.614,337.528,342.508,347.488,352.528,355.29,360.27,362.775,364.83,369.856,374.321,376.826,378.941,381.642,386.682,391.147,396.173,398.935,401.696,405.056,407.818,412.199,417.225,419.73,421.846,424.547,429.587,432.092,434.147,439.173,442.473,447.499,451.881,455.233,457.738,459.853,462.615,467.595,470.1,472.215,477.195,479.957,484.422,487.183,492.209,494.714,496.829,500.743,503.505,511.186,513.948,516.709,521.151,524.571" svgx:width="0.5,0.33,0.25,0.55,0.44,0.5,0.78,0.78,0.5,0.5,0.28,0.28,0.5,0.33,0.5,0.44,0.39,0.44,0.5,0.25,0.55,0.28,0.5,0.33,0.33,0.44,0.39,0.28,0.33,0.5,0.44,0.28,0.5,0.33,0.44,0.25,0.55,0.5,0.44,0.44,0.5,0.44,0.5,0.25,0.55,0.28,0.5,0.25,0.55,0.5,0.44,0.25,0.55,0.39,0.28,0.33,0.44,0.5,0.5,0.28,0.5,0.44,0.5,0.44,0.5,0.25,0.55,0.39,0.5,0.5,0.5,0.28,0.5,0.25,0.55,0.5,0.44,0.25,0.55,0.28,0.5,0.44,0.5,0.28,0.28,0.33,0.28,0.44,0.5,0.25,0.55,0.28,0.5,0.25,0.55,0.5,0.33,0.5,0.44,0.33,0.25,0.55,0.28,0.5,0.25,0.55,0.5,0.28,0.44,0.28,0.5,0.25,0.55,0.39,0.28,0.78,0.28,0.28,0.44,0.33,0.25" style="fill:rgb(0,0,0);font-family:TimesNewRoman;font-size:10.02px;stroke:none;">of community-based infrastructure needed to be strengthened should be identified in order to yield similar </text>
   <text y="624.543" x="70.92,74.811,79.814,84.256,88.698,93.139,97.03,100.921,104.251,109.254,112.032,114.492,117.822,122.263,126.154,131.157,133.936,136.714,140.605,143.125,145.904,150.907,153.427,157.869,160.328,165.331,168.11,171.29,174.65,179.032,182.392,186.773,191.753,194.532,197.052,200.943,205.384,208.163,210.942,213.72,218.723,223.726,226.224" svgx:width="0.39,0.5,0.44,0.44,0.44,0.39,0.39,0.33,0.5,0.28,0.25,0.33,0.44,0.39,0.5,0.28,0.28,0.39,0.25,0.28,0.5,0.25,0.44,0.25,0.5,0.28,0.33,0.33,0.44,0.33,0.44,0.5,0.28,0.25,0.39,0.44,0.28,0.28,0.28,0.5,0.5,0.25,0.25" style="fill:rgb(0,0,0);font-family:TimesNewRoman;font-size:10.02px;stroke:none;">successful results in a different setting. </text>
   <text y="640.623" x="70.92,74.28,79.26,81.765,83.579,86.334,91.374,95.792,98.297,100.111,102.866,107.845,112.824,117.803,120.30799999999999,122.122,124.877,129.295,132.654,140.336,142.81,145.315,147.129,152.169,156.611,159.917,163.276,166.031,170.449,173.808,177.647,180.152,181.967,184.721,189.7,192.20499999999998,194.02,196.774,201.814,206.232,208.737,210.492,217.75,220.512,225.552,229.994,233.86,238.9,242.26,246.702,251.12,256.16,258.665,260.419,265.459,269.358,273.776,276.281,278.036,283.076,286.375,288.88,290.635,295.675,300.117,305.096,310.074,312.829,317.808,322.848,325.602,330.643,335.621,338.126,339.941,342.696,347.675,350.18,351.994,354.749,359.728,364.768,369.149,372.509,376.951,381.991,384.692,389.732,393.631,396.386,400.253,402.758,404.572,408.99,413.969,419.009,421.77,425.076,430.055,432.809,435.314,437.129,442.108,445.468,450.447,455.487,458.792,463.21,470.975,478.739,483.157,487.024,489.529,491.343,499.025,504.065,507.931,510.686,513.191,515.006,520.046,524.427" svgx:width="0.33,0.5,0.25,0.55,0.28,0.5,0.44,0.25,0.55,0.28,0.5,0.5,0.5,0.25,0.55,0.28,0.44,0.33,0.78,0.25,0.25,0.55,0.5,0.44,0.33,0.33,0.28,0.44,0.33,0.39,0.25,0.55,0.28,0.5,0.25,0.55,0.28,0.5,0.44,0.25,0.55,0.72,0.28,0.5,0.44,0.39,0.5,0.33,0.44,0.44,0.5,0.25,0.55,0.5,0.39,0.44,0.25,0.55,0.5,0.33,0.25,0.55,0.5,0.44,0.5,0.5,0.28,0.5,0.5,0.28,0.5,0.5,0.25,0.55,0.28,0.5,0.25,0.55,0.28,0.5,0.5,0.44,0.33,0.44,0.5,0.28,0.5,0.39,0.28,0.39,0.25,0.55,0.44,0.5,0.5,0.28,0.33,0.5,0.28,0.25,0.55,0.5,0.33,0.5,0.5,0.33,0.44,0.78,0.78,0.44,0.39,0.25,0.55,0.78,0.5,0.39,0.28,0.25,0.55,0.5,0.44,0.25" style="fill:rgb(0,0,0);font-family:TimesNewRoman;font-size:10.02px;stroke:none;">In the long term, barriers to the widespread use of genotyping in tuberculosis control programmes must be </text>
   <text y="652.623" x="70.92,75.385,80.411,85.391,88.751,93.216,97.129,101.043,105.425,110.451,112.911,115.416,117.291,124.541,127.242,132.222,136.664,141.69,144.195,146.07,148.771,153.811,158.276,160.781,162.656,167.038,172.078,179.759,184.799,187.561,192.003,197.029,199.79,202.552,207.532,210.037,211.911,216.937,220.237,222.742,224.617,227.916,233.495,238.474,243.454,248.075,253.055,258.095,260.6,262.414,267.44,271.905,275.819,280.201,285.227,287.73199999999997,289.546,294.572,298.954,303.98,309.006,311.708,316.688,321.728,324.489,329.529,334.509,337.029,339.534,341.409,349.09,354.13,357.483,361.948,364.453,366.268,369.567,374.009,379.035,381.797,386.777,389.282,391.156,396.182,400.564,405.544,410.584,413.346,418.326,423.352,426.113,431.139,436.119,438.624,440.499,444.964,447.725,450.487,454.929,458.281,463.261,467.726,470.488,473.249,478.289,482.754,486.593,489.114,491.61899999999997,493.494,497.332,502.372,506.837,511.817,514.322,516.197,520.662,524.576" svgx:width="0.44,0.5,0.5,0.33,0.44,0.39,0.39,0.44,0.5,0.25,0.25,0.55,0.72,0.28,0.5,0.44,0.5,0.25,0.55,0.28,0.5,0.44,0.25,0.55,0.44,0.5,0.78,0.5,0.28,0.44,0.5,0.28,0.28,0.5,0.25,0.55,0.5,0.33,0.25,0.55,0.33,0.56,0.5,0.5,0.5,0.5,0.5,0.25,0.55,0.5,0.44,0.39,0.44,0.5,0.25,0.55,0.5,0.44,0.5,0.5,0.28,0.5,0.5,0.28,0.5,0.5,0.25,0.25,0.55,0.78,0.5,0.33,0.44,0.25,0.55,0.33,0.44,0.5,0.28,0.5,0.25,0.55,0.5,0.44,0.5,0.5,0.28,0.5,0.5,0.28,0.5,0.5,0.25,0.55,0.44,0.28,0.28,0.44,0.33,0.5,0.44,0.28,0.28,0.5,0.44,0.39,0.25,0.25,0.55,0.39,0.5,0.44,0.5,0.25,0.55,0.44,0.39,0.25" style="fill:rgb(0,0,0);font-family:TimesNewRoman;font-size:10.02px;stroke:none;">addressed. Given the complexity of IS16110 based genotyping, more rapid genotyping alternatives, such as </text>
   <text y="664.623" x="70.92,76.469,81.457,86.497,89.261,92.024,97.064,102.104,104.866,109.854,114.894,117.595,122.635,127.623,130.12800000000001,133.864,138.29,143.278,148.318,150.823,154.559,163.445,166.759,173.359,180.618,183.123,186.798,190.674,195.714,200.702,205.742,208.444,213.484,215.989,219.724,224.764,229.146,231.65099999999998,235.386,239.813,244.801,249.228,251.992,254.755,259.182,264.222,266.983,271.41,273.915,277.651,281.526,286.566,289.07099999999997,292.807,295.57,300.611,305.037,307.801,310.306,314.041,319.081,324.069,329.057,334.097,336.861,341.288,344.051,346.815,351.855,356.843,360.157,365.145,369.572,373.448,377.875,382.915,385.42,389.155,393.031,398.071,401.386,406.426,410.852,413.616,416.379,419.143,423.57,428.61,433.037,437.464,439.969,443.644,448.684,453.126,458.114,463.154,465.917,470.905,475.945,478.707,483.695,488.735,491.24,494.975,499.402,503.829,508.869,511.374,515.049,520.037,524.464" svgx:width="0.56,0.5,0.5,0.28,0.28,0.5,0.5,0.28,0.5,0.5,0.28,0.5,0.5,0.25,0.55,0.44,0.5,0.5,0.25,0.55,0.89,0.33,0.67,0.72,0.25,0.55,0.39,0.5,0.5,0.5,0.28,0.5,0.25,0.55,0.5,0.44,0.25,0.55,0.44,0.5,0.44,0.28,0.28,0.44,0.5,0.28,0.44,0.25,0.55,0.39,0.5,0.25,0.55,0.28,0.5,0.44,0.28,0.25,0.55,0.5,0.5,0.5,0.5,0.28,0.44,0.28,0.28,0.5,0.5,0.33,0.5,0.44,0.39,0.44,0.5,0.25,0.55,0.39,0.5,0.33,0.5,0.44,0.28,0.28,0.28,0.44,0.5,0.44,0.44,0.25,0.55,0.5,0.44,0.5,0.5,0.28,0.5,0.5,0.28,0.5,0.5,0.25,0.55,0.44,0.44,0.5,0.25,0.55,0.5,0.44,0.25" style="fill:rgb(0,0,0);font-family:TimesNewRoman;font-size:10.02px;stroke:none;">Spoligotyping and MIRU should be available so that population-based surveillance genotyping can be </text>
   <text y="676.563" x="70.92,73.682,78.722,83.187,88.166,91.519,96.499,101.525,104.878,109.343,112.104,116.486,121.526,124.046,126.747,131.727,134.489,139.529,142.049,145.349,150.329,155.355,158.116,160.878,165.918,170.383,172.903,175.664,180.644,185.67,190.052,193.404,197.869,202.895,205.597,210.623,214.537,217.298,221.197,223.717,228.099,233.125,238.151,240.912,244.212,249.18,251.943,254.463,257.227,262.267,264.787,267.55,272.591,277.017,282.057,284.821,287.584,290.899,295.887,298.407,303.395,308.383,311.146,316.186,319.546,323.973,328.4,333.44,337.339,339.799,343.113,349.774,354.201,357.516,362.556,366.938,370.813,373.333,381.107,383.627,390.288,394.715,399.755,404.197,406.68,409.14,414.128,419.168,424.156,429.196,432.511,434.993" svgx:width="0.28,0.5,0.44,0.5,0.33,0.5,0.5,0.33,0.44,0.28,0.44,0.5,0.25,0.28,0.5,0.28,0.5,0.25,0.33,0.5,0.5,0.28,0.28,0.5,0.44,0.25,0.28,0.5,0.5,0.44,0.33,0.44,0.5,0.28,0.5,0.39,0.28,0.39,0.25,0.44,0.5,0.5,0.28,0.33,0.5,0.28,0.25,0.28,0.5,0.25,0.28,0.5,0.44,0.5,0.28,0.28,0.33,0.5,0.25,0.5,0.5,0.28,0.5,0.33,0.44,0.44,0.5,0.39,0.25,0.33,0.67,0.44,0.33,0.5,0.44,0.39,0.25,0.78,0.25,0.67,0.44,0.5,0.44,0.25,0.25,0.5,0.5,0.5,0.5,0.33,0.25,0.25" style="fill:rgb(0,0,0);font-family:TimesNewRoman;font-size:10.02px;stroke:none;">incorporated into routine tuberculosis control to identify outbreaks (Barnes &amp; Cave, 2003). </text>
   <text y="692.583" x="70.92,75.943,78.461,80.921,88.119,93.159,98.744,103.205,105.967,111.545,115.456,118.157,123.18,128.698" svgx:width="0.5,0.25,0.25,0.72,0.5,0.56,0.44,0.28,0.56,0.39,0.28,0.5,0.56,0.25" style="fill:rgb(0,0,0);font-family:TimesNewRoman,Bold;font-size:10.02px;stroke:none;">5. Conclusion </text>
   <text y="708.603" x="70.92,77.581,82.622,87.084,92.065,97.088,101.55,105.461,107.966,110.442,113.204,118.245,120.75,123.226,125.929,130.91,135.372,137.877,140.353,143.115,146.476,150.938,155.961,158.723,161.486,164.248,169.271,174.294,178.756,181.519,184.024,186.44,191.421,195.863,199.213,203.675,208.698,211.4,216.423,224.106,228.017,230.522,232.998,238.021,241.37,243.875,246.351,252.486,259.148,261.653,264.129,269.152,271.914,276.376,281.357,286.38,291.403,295.314,298.077,301.976,304.481,306.957,311.34,316.363,321.386,323.891,326.367,335.187,342.446,349.107,352.468,358.603,365.265,367.77,370.186,377.928,382.371,387.394,391.856,396.879,401.341,409.023,413.466,418.489,421.252,423.757,426.293,434.035,438.478,443.459,445.964,448.44,451.202,455.664,460.126,465.149,467.654,470.13,472.893,477.934,480.439,482.915,485.713,490.175,494.086,497.997,500.502,502.978,508.001,510.763,515.225,519.608,524.589" svgx:width="0.67,0.5,0.44,0.5,0.5,0.44,0.39,0.25,0.55,0.28,0.5,0.25,0.55,0.28,0.5,0.44,0.25,0.55,0.28,0.33,0.44,0.5,0.28,0.28,0.28,0.5,0.5,0.44,0.28,0.25,0.55,0.5,0.44,0.33,0.44,0.5,0.28,0.5,0.78,0.39,0.25,0.55,0.5,0.33,0.25,0.55,0.61,0.67,0.25,0.55,0.5,0.28,0.44,0.5,0.5,0.5,0.39,0.28,0.39,0.25,0.55,0.44,0.5,0.5,0.25,0.55,0.89,0.72,0.67,0.33,0.61,0.67,0.25,0.55,0.78,0.44,0.5,0.44,0.5,0.44,0.78,0.44,0.5,0.28,0.25,0.55,0.78,0.44,0.5,0.25,0.55,0.28,0.44,0.44,0.5,0.25,0.55,0.28,0.5,0.25,0.55,0.28,0.44,0.39,0.39,0.25,0.55,0.5,0.28,0.44,0.44,0.5,0.25" style="fill:rgb(0,0,0);font-family:TimesNewRoman;font-size:10.02px;stroke:none;">Changes in the traditional paradigms of TB diagnosis and MDR-TB management may lead to less bleak </text>
   <text y="720.543" x="70.92,75.943,80.405,83.755,87.592,92.615,97.077,101.539,104.3,107.06,112.099,116.561,120.399,122.918,126.216,131.195,134.545,137.004,142.027,147.05,150.888,155.911,160.291,165.314,172.995,175.755,180.256,183.017,185.536,194.414,201.671,208.33,210.849,215.311,220.29,225.313,227.772,234.97,242.167,248.826,251.165,257.3,263.959,266.72,270.079,274.541,279.564,283.474,291.155,293.915,297.826,301.737,304.497,309.52,314.543,317.002,321.981,325.34,329.802,334.825,339.206,344.245,347.005,349.766,354.745,359.768,362.227,364.987,370.026,372.545,378.062,383.101,388.08,390.599,396.183,400.564,405.587,410.049,413.399,417.78,422.759,424.737,431.935,435.285,438.634,441.395,445.857,450.319,452.777,455.282,457.756" svgx:width="0.5,0.44,0.33,0.39,0.5,0.44,0.44,0.28,0.28,0.5,0.44,0.39,0.25,0.33,0.5,0.33,0.25,0.5,0.5,0.39,0.5,0.44,0.5,0.78,0.28,0.44,0.28,0.25,0.89,0.72,0.67,0.25,0.44,0.5,0.5,0.25,0.72,0.72,0.67,0.25,0.61,0.67,0.28,0.33,0.44,0.5,0.39,0.78,0.28,0.39,0.39,0.28,0.5,0.5,0.25,0.5,0.33,0.44,0.5,0.44,0.5,0.28,0.28,0.5,0.5,0.25,0.28,0.5,0.25,0.56,0.5,0.5,0.25,0.56,0.44,0.5,0.44,0.33,0.44,0.5,0.25,0.72,0.33,0.33,0.28,0.44,0.44,0.25,0.25,0.55,0.25" style="fill:rgb(0,0,0);font-family:TimesNewRoman;font-size:10.02px;stroke:none;">perspectives for nosocomial MDR and XDR TBtransmission prevention in Sub Saharan Africa. </text>
   <text y="736.623" x="70.92,77.052,82.072,86.531,89.036,90.371,93.718,96.513,101.493,106.533,109.88,112.581,117.601,122.621,125.323,130.303,135.343,138.138,143.118,148.138,152.597,155.102,156.497,160.879,164.238,168.697,171.202,172.537,177.557,180.904,183.605,188.585,193.605,197.513,200.018,201.352,204.699,209.679,213.026,215.821,220.801,223.30599999999998,224.701,229.16,234.18,238.562,243.602,247.983,252.425,256.333,258.838,260.233,265.213,268.572,271.077,272.472,276.854,281.894,285.241,289.62,292.125,293.519,296.837,301.877,305.195,307.7,309.034,317.923,325.138,331.803,335.12,341.224,347.888,350.393,351.788,356.217,360.647,364.526,368.956,372.835,375.321,377.826,379.16,386.376,389.142,393.021,398.061,400.547,403.052,404.447,409.487,413.869,421.084,423.589,424.984,427.75,432.79,437.781,442.772,447.812,452.242,455.009,457.775,462.815,467.245,469.75,471.085,476.076,481.116,483.882,488.873,491.64,494.145,495.54,500.58,503.879,506.384,507.779,512.209,516.639,519.956,524.386" svgx:width="0.61,0.5,0.44,0.25,0.55,0.33,0.28,0.5,0.5,0.33,0.28,0.5,0.5,0.28,0.5,0.5,0.28,0.5,0.5,0.44,0.25,0.55,0.44,0.33,0.44,0.25,0.55,0.5,0.33,0.28,0.5,0.5,0.39,0.25,0.55,0.33,0.5,0.33,0.28,0.5,0.25,0.55,0.44,0.5,0.44,0.5,0.44,0.44,0.39,0.25,0.55,0.5,0.33,0.25,0.55,0.44,0.5,0.33,0.44,0.25,0.55,0.33,0.5,0.33,0.25,0.55,0.89,0.72,0.67,0.33,0.61,0.67,0.25,0.55,0.44,0.44,0.39,0.44,0.39,0.25,0.25,0.55,0.72,0.28,0.39,0.5,0.25,0.25,0.55,0.5,0.44,0.72,0.25,0.55,0.28,0.5,0.5,0.5,0.5,0.44,0.28,0.28,0.5,0.44,0.25,0.55,0.5,0.5,0.28,0.5,0.28,0.25,0.55,0.5,0.33,0.25,0.55,0.44,0.44,0.33,0.44,0.25" style="fill:rgb(0,0,0);font-family:TimesNewRoman;font-size:10.02px;stroke:none;">The fluoriquinolone era brings forth chances of cure for MDR-TB cases. Also, new innovative point of care </text>
   <text y="748.623" x="70.92,75.96,78.722,83.152,88.144,93.184,98.164,102.044,104.812,107.579,112.01,114.515,116.57,119.338,124.378,129.418,132.119,135.999,138.504,140.559,148.24,152.682,157.674,160.179,162.234,165.002,170.042,172.547,174.602,177.37,182.41,186.84,189.345,191.401,194.719,199.759,202.461,207.501,210.819,215.25,217.755,219.81,224.241,229.281,233.712,238.752,241.52,245.95,248.45499999999998,250.45,254.881,257.649,260.416,262.921,264.976,268.295,272.726,276.044,278.812,282.131,286.561,290.992,293.76,301.441,305.883,310.923,313.685,317.564,320.069,322.124,324.892,329.932,332.437,334.432,339.472,344.452,349.492,353.934,357.054,362.034,367.074,369.579,371.574,378.791,384.344,389.745,392.265,394.77,396.765,401.805,405.105,410.097,415.137,417.905,422.945,427.376,432.368,434.873,436.928,439.695,444.735,449.166,452.485,456.916,459.421,461.476,464.243,468.123,470.628,472.683,477.114,479.61899999999997,481.674,486.105,491.097,496.137,500.579,505.571,508.889,512.208,516.639,521.679,524.44" svgx:width="0.5,0.28,0.44,0.5,0.5,0.5,0.39,0.28,0.28,0.44,0.25,0.55,0.28,0.5,0.5,0.28,0.39,0.25,0.55,0.78,0.44,0.5,0.25,0.55,0.28,0.5,0.25,0.55,0.28,0.5,0.44,0.25,0.55,0.33,0.5,0.28,0.5,0.33,0.44,0.25,0.55,0.44,0.5,0.44,0.5,0.28,0.44,0.25,0.55,0.44,0.28,0.28,0.25,0.55,0.33,0.44,0.33,0.28,0.33,0.44,0.44,0.28,0.78,0.44,0.5,0.28,0.39,0.25,0.55,0.28,0.5,0.25,0.55,0.5,0.5,0.5,0.44,0.33,0.5,0.5,0.25,0.55,0.72,0.56,0.61,0.25,0.25,0.55,0.5,0.33,0.5,0.5,0.28,0.5,0.44,0.5,0.25,0.55,0.28,0.5,0.44,0.33,0.44,0.25,0.55,0.28,0.39,0.25,0.55,0.44,0.25,0.55,0.44,0.5,0.5,0.44,0.5,0.33,0.33,0.44,0.5,0.28,0.25" style="fill:rgb(0,0,0);font-family:TimesNewRoman;font-size:10.02px;stroke:none;">diagnostic tools may in the future enable all re-treatments to undergo DST, provided there is a concurrent </text>
  </g>
 </g>
</svg>
