<?xml version="1.0" encoding="UTF-8"?>
<svg height="790.426" width="539.5889999999999" xmlns="http://www.w3.org/2000/svg">
 <g id="page" xmlns:svgx="http://www.xml-cml.org/schema/svgx">
  <g begin="text">
   <text y="48.066" x="70.92,77.423,83.925,89.804,92.058,96.059,100.059,103.565,107.565,112.07,116.07,118.577,120.831,125.336,128.096,132.596,135.103,139.607,142.114,146.618,150.124,152.374,237.903,244.406,246.912,251.417,255.921,259.922,262.428,264.708,268.214,272.718,277.222,280.224,284.728,288.729,291.235,293.515,297.955,300.955,303.24,309.739,313.735,317.732,320.235,322.738,327.239,329.519,334.524,338.521,341.023,345.02,349.521,353.518,357.515,359.765,455.975,461.314,465.814,468.317,470.568,472.847,477.287,479.567,481.846,488.345,492.785,495.036,497.316,501.816,504.319,506.599,511.1,515.54,520.041,524.542" svgx:width="0.72,0.72,0.72,0.25,0.44,0.44,0.39,0.44,0.5,0.44,0.28,0.25,0.5,0.33,0.5,0.28,0.5,0.28,0.5,0.39,0.25,0.55,0.72,0.28,0.5,0.5,0.44,0.28,0.25,0.39,0.5,0.5,0.33,0.5,0.44,0.28,0.25,0.5,0.33,0.25,0.72,0.44,0.44,0.28,0.28,0.5,0.25,0.56,0.44,0.28,0.44,0.5,0.44,0.44,0.25,0.55,0.72,0.5,0.28,0.25,0.25,0.5,0.25,0.25,0.72,0.5,0.25,0.25,0.5,0.28,0.25,0.5,0.5,0.5,0.5,0.25" style="fill:rgb(0,0,0);font-family:TimesNewRoman;font-size:9.0px;stroke:none;">www.ccsenet.org/gjhs Global Journal of Health Science Vol. 5, No. 4; 2013 </text>
  </g>
  <g begin="text">
   <text y="770.106" x="290.94,295.44,299.94,304.44" svgx:width="0.5,0.5,0.5,0.25" style="fill:rgb(0,0,0);font-family:TimesNewRoman;font-size:9.0px;stroke:none;">208 </text>
   <text y="780.426" x="70.92" svgx:width="0.25" style="fill:rgb(0,0,0);font-family:TimesNewRoman;font-size:9.0px;stroke:none;"> </text>
   <text y="80.646" x="70.92,75.386,80.413,88.154,95.896,98.657,101.46,109.201,113.667,118.694,121.456,123.961,126.856,129.658,134.685,137.19,140.025,145.052,149.518,154.545,159.011,161.712,166.739,171.766,174.271,177.166,179.867,184.908,189.289,191.79399999999998,194.689,197.451,202.491,205.79,209.15,213.616,217.531,220.292,223.592,228.619,233.085,235.846,240.886,244.186,248.568,251.073,253.967,258.994,263.46,267.842,272.882,277.348,282.375,284.88,287.775,290.476,295.516,298.021,300.84,304.713,309.698,314.738,319.723,324.708,328.019,330.78,333.28499999999997,336.18,338.94,343.98,346.741,350.613,353.118,356.013,360.437,365.422,370.407,374.831,379.871,383.77,386.53,391.515,396.555,399.075,401.58,404.415,410.512,415.552,419.976,423.849,428.272,430.777,433.672,438.096,443.136,447.56,452.6,457.64,462.082,465.955,468.46,471.354,476.394,480.776,484.088,488.512,491.272,496.312,498.817,501.712,506.752,511.194,513.954,516.715,521.139,524.45" svgx:width="0.44,0.5,0.78,0.78,0.28,0.28,0.78,0.44,0.5,0.28,0.25,0.55,0.28,0.5,0.25,0.55,0.5,0.44,0.5,0.44,0.28,0.5,0.5,0.25,0.55,0.28,0.5,0.44,0.25,0.55,0.28,0.5,0.33,0.33,0.44,0.39,0.28,0.33,0.5,0.44,0.28,0.5,0.33,0.44,0.25,0.55,0.5,0.44,0.44,0.5,0.44,0.5,0.25,0.55,0.28,0.5,0.25,0.55,0.39,0.5,0.5,0.5,0.5,0.33,0.28,0.25,0.55,0.28,0.5,0.28,0.39,0.25,0.55,0.44,0.5,0.5,0.44,0.5,0.39,0.28,0.5,0.5,0.25,0.25,0.55,0.61,0.5,0.44,0.39,0.44,0.25,0.55,0.44,0.5,0.44,0.5,0.5,0.44,0.39,0.25,0.55,0.5,0.44,0.33,0.44,0.28,0.5,0.25,0.55,0.5,0.44,0.28,0.28,0.44,0.33,0.25" style="fill:rgb(0,0,0);font-family:TimesNewRoman;font-size:10.02px;stroke:none;">commitment to develop the infrastructure needed to support this expansion. These changes herald better </text>
   <text y="92.646" x="70.92,75.925,80.369,83.701,87.539,92.544,96.988,101.432,104.212,106.993,111.998,116.442,120.281,123.04,126.372,131.377,134.708,137.468,142.473,147.478,151.316,156.357,160.738,165.778,173.46,176.221,180.723,183.485,186.244,195.147,202.376,209.055,211.814,216.258,221.263,226.268,228.968,236.198,243.427,250.106,252.865,258.982,265.661,268.42,271.201,274.532,278.976,283.981,287.874,295.555,298.336,302.22,306.132,308.894,313.919,318.944,321.644,326.624,329.984,334.448,339.473,343.855,348.895,351.656,354.418,359.398,364.423,367.183,369.945,374.925,377.684,383.202,388.242,393.222,395.982,401.568,405.95,410.975,415.438,418.738,423.18,428.205,430.905,438.155,441.454,444.806,447.568,452.031,456.495,459.015,461.716,468.965,473.99,478.372,481.732,486.196,488.956,491.718,496.698,500.049,504.513,508.977,511.739,514.5,519.48,524.505" svgx:width="0.5,0.44,0.33,0.39,0.5,0.44,0.44,0.28,0.28,0.5,0.44,0.39,0.25,0.33,0.5,0.33,0.25,0.5,0.5,0.39,0.5,0.44,0.5,0.78,0.28,0.44,0.28,0.25,0.89,0.72,0.67,0.25,0.44,0.5,0.5,0.25,0.72,0.72,0.67,0.25,0.61,0.67,0.25,0.28,0.33,0.44,0.5,0.39,0.78,0.28,0.39,0.39,0.28,0.5,0.5,0.25,0.5,0.33,0.44,0.5,0.44,0.5,0.28,0.28,0.5,0.5,0.25,0.28,0.5,0.25,0.56,0.5,0.5,0.25,0.56,0.44,0.5,0.44,0.33,0.44,0.5,0.25,0.72,0.33,0.33,0.28,0.44,0.44,0.25,0.25,0.72,0.5,0.44,0.33,0.44,0.25,0.28,0.5,0.33,0.44,0.44,0.28,0.28,0.5,0.5,0.25" style="fill:rgb(0,0,0);font-family:TimesNewRoman;font-size:10.02px;stroke:none;">perspectives for nosocomial MDR and XDR TB transmission prevention in Sub Saharan Africa, where infection </text>
   <text y="104.586" x="70.92,75.354,80.394,85.434,88.135,91.457,96.497,99.268,101.727,106.768,110.127,114.561,118.995,121.765,124.536,128.97,133.404,137.286,139.807,142.577,147.617,150.137,154.571,157.342,160.112,165.152,167.923,172.356,176.239,178.759,183.193,186.515,190.949,193.469,198.509,202.89,206.212,211.207,213.727,216.498,219.319,227.001,229.771,232.542,236.975,242.015,244.536,247.041,249.515" svgx:width="0.44,0.5,0.5,0.28,0.33,0.5,0.28,0.25,0.5,0.33,0.44,0.44,0.28,0.28,0.44,0.44,0.39,0.25,0.28,0.5,0.25,0.44,0.28,0.28,0.5,0.28,0.44,0.39,0.25,0.44,0.33,0.44,0.25,0.5,0.44,0.33,0.5,0.25,0.28,0.28,0.78,0.28,0.28,0.44,0.5,0.25,0.25,0.55,0.25" style="fill:rgb(0,0,0);font-family:TimesNewRoman;font-size:10.02px;stroke:none;">control practices in clinics are very limited. </text>
   <text y="120.606" x="70.92,78.137,83.13,90.348,94.78,99.82,104.262,107.201,109.721,112.226,113.141,115.843,120.883,125.315,127.82,128.674,132.555,135.324,138.092,140.861,143.629,146.134,147.049,152.089,155.449,159.881,164.921,169.352,172.121,174.889,177.658,182.698,187.691,190.196,191.111,195.543,200.583,205.623,208.391,211.16,215.592,220.024,222.792,225.561,230.554,235.594,238.099,238.98,243.979,247.305,249.81,250.725,253.499,258.539,262.977,265.48199999999997,266.337,275.785,283.008,290.232,292.737,293.652,296.977,301.415,304.741,307.515,310.841,315.279,319.717,322.491,330.173,334.614,339.654,342.416,344.921,345.836,350.876,354.236,359.276,362.037,367.036,371.474,376.514,379.276,381.781,382.695,385.47,390.421,395.46,398.22,402.107,406.545,409.871,412.645,420.325,423.086,428.185,432.626,435.401,439.838,442.613,447.612,450.117,451.031,453.805,458.844,461.349,462.263,466.701,469.476,472.25,474.755,475.669,478.995,483.432,486.758,489.533,492.858,497.296,501.734,504.509,512.189,516.63,521.669,524.429" svgx:width="0.72,0.5,0.72,0.44,0.5,0.44,0.33,0.25,0.25,0.55,0.28,0.5,0.44,0.25,0.55,0.39,0.28,0.28,0.28,0.28,0.25,0.55,0.5,0.33,0.44,0.5,0.44,0.28,0.28,0.28,0.5,0.5,0.25,0.55,0.44,0.5,0.5,0.28,0.28,0.44,0.44,0.28,0.28,0.5,0.5,0.25,0.55,0.5,0.33,0.25,0.55,0.28,0.5,0.44,0.25,0.55,0.94,0.72,0.72,0.25,0.55,0.33,0.44,0.33,0.28,0.33,0.44,0.44,0.28,0.78,0.44,0.5,0.28,0.25,0.55,0.5,0.33,0.5,0.28,0.5,0.44,0.5,0.28,0.25,0.55,0.28,0.5,0.5,0.28,0.39,0.44,0.33,0.28,0.78,0.28,0.5,0.44,0.28,0.44,0.28,0.5,0.25,0.55,0.28,0.5,0.25,0.55,0.44,0.28,0.28,0.25,0.55,0.33,0.44,0.33,0.28,0.33,0.44,0.44,0.28,0.78,0.44,0.5,0.28,0.25" style="fill:rgb(0,0,0);font-family:TimesNewRoman;font-size:10.02px;stroke:none;">However, the still prevailing application of the WHO re-treatment protocol indiscriminately to all re-treatment </text>
   <text y="132.606" x="70.921,75.369,79.817,83.714,88.161,92.058,94.998,102.679,107.121,112.13,116.578,120.475,123.415,128.424,133.433,137.33,142.339,146.786,151.795,159.477,162.238,166.686,169.471,172.411,175.195,178.531,182.979,187.988,191.884,199.679,202.464,206.36,210.257,213.042,218.051,223.06,226.0,231.009,234.344,237.241,246.06,253.318,259.987,263.31,269.418,276.088,279.027,283.462,286.234,289.005,291.945,294.717,299.757,304.192,307.071,314.753,319.793,323.115,327.55,330.49,335.53,338.89,341.83,346.265,349.144,354.185,357.544,361.979,365.863,369.747,372.518,377.558,382.598,385.478,390.474,395.514,400.554,403.326,406.097,410.532,413.412,418.452,422.894,427.329,430.1,432.872,437.912,440.852,443.623,447.507,451.391,456.431,460.866,463.357,466.236,469.559,474.555,477.495,480.266,483.038,488.034,493.074,495.836,498.775,503.771,507.094,510.034,512.805,517.845,520.617,524.501" svgx:width="0.44,0.44,0.39,0.44,0.39,0.25,0.78,0.44,0.5,0.44,0.39,0.25,0.5,0.5,0.39,0.5,0.44,0.5,0.78,0.28,0.44,0.28,0.25,0.28,0.33,0.44,0.5,0.39,0.78,0.28,0.39,0.39,0.28,0.5,0.5,0.25,0.5,0.33,0.25,0.89,0.72,0.67,0.33,0.61,0.67,0.25,0.44,0.28,0.28,0.25,0.28,0.5,0.44,0.25,0.78,0.5,0.33,0.44,0.25,0.5,0.33,0.25,0.44,0.25,0.5,0.33,0.44,0.39,0.39,0.28,0.5,0.5,0.25,0.5,0.5,0.5,0.28,0.28,0.44,0.25,0.5,0.44,0.44,0.28,0.28,0.5,0.25,0.28,0.39,0.39,0.5,0.44,0.25,0.25,0.33,0.5,0.25,0.28,0.28,0.5,0.5,0.28,0.25,0.5,0.33,0.25,0.28,0.5,0.28,0.39,0.25" style="fill:rgb(0,0,0);font-family:TimesNewRoman;font-size:10.02px;stroke:none;">cases makes nosocomial transmission of MDR-TB all the more of a pressing public health issue. In light of this </text>
   <text y="144.606" x="70.921,75.961,80.403,85.396,90.436,93.204,98.197,103.237,105.74199999999999,108.338,113.378,116.139,121.132,126.172,130.604,133.373,135.878,138.533,143.573,148.553,153.593,156.362,159.13,163.562,166.067,168.722,173.762,178.194,182.626,185.394,188.163,193.203,195.708,198.363,202.795,207.227,209.995,214.427,218.308,221.077,224.396,229.389,234.382,239.422,243.854,246.342,248.847,251.502,255.934,260.366,263.686,266.454,270.886,273.655,278.695,281.2,283.855,288.287,293.327,297.208,299.941,303.274,307.656,310.836,314.196,318.64,323.085,325.867,328.648,333.654,338.099,340.604,343.26,347.641,352.681,360.363,363.124,368.224,370.986,374.88,377.661,380.994,385.439,388.22,391.002,396.008,400.453,402.954,405.459,408.114,412.559,417.565,422.571,425.352,428.685,433.691,438.697,446.378,450.823,455.829,458.611,463.056,465.837,468.342,470.998,475.442,480.448,485.454,487.959,490.615,495.621,500.066,503.398,507.237,512.243,517.249,521.694,524.475" svgx:width="0.5,0.44,0.5,0.5,0.28,0.5,0.5,0.25,0.55,0.5,0.28,0.5,0.5,0.44,0.28,0.25,0.55,0.5,0.5,0.5,0.28,0.28,0.44,0.25,0.55,0.5,0.44,0.44,0.28,0.28,0.5,0.25,0.55,0.44,0.44,0.28,0.44,0.39,0.28,0.33,0.5,0.5,0.5,0.44,0.25,0.25,0.55,0.44,0.44,0.33,0.28,0.44,0.28,0.5,0.25,0.55,0.44,0.5,0.39,0.28,0.33,0.44,0.33,0.33,0.44,0.44,0.28,0.28,0.5,0.44,0.25,0.55,0.44,0.5,0.78,0.28,0.5,0.28,0.39,0.28,0.33,0.44,0.28,0.28,0.5,0.44,0.25,0.25,0.55,0.44,0.5,0.5,0.28,0.33,0.5,0.5,0.78,0.44,0.5,0.28,0.44,0.28,0.25,0.55,0.44,0.5,0.5,0.25,0.55,0.5,0.44,0.33,0.39,0.5,0.5,0.44,0.28,0.25" style="fill:rgb(0,0,0);font-family:TimesNewRoman;font-size:10.02px;stroke:none;">pending global public health catastrophe, certain cost-effective administrative, environmental and personal </text>
   <text y="156.545" x="70.921,74.243,78.676,82.559,87.599,90.301,93.66,98.094,100.865,105.905,109.265,114.26,116.78,124.461,128.895,133.329,137.211,142.251,145.611,150.045,153.928,156.448,160.882,165.315,170.355,172.876,176.197,180.631,185.065,190.06,192.83,195.601,200.596,203.116,208.156,212.598,215.118,217.888,222.928,226.811,229.582,232.352,235.123,240.163,242.933,247.367,252.407,254.867" svgx:width="0.33,0.44,0.39,0.5,0.28,0.33,0.44,0.28,0.5,0.33,0.5,0.25,0.78,0.44,0.44,0.39,0.5,0.33,0.44,0.39,0.25,0.44,0.44,0.5,0.25,0.33,0.44,0.44,0.5,0.28,0.28,0.5,0.25,0.5,0.44,0.25,0.28,0.5,0.39,0.28,0.28,0.28,0.5,0.28,0.44,0.5,0.25,0.25" style="fill:rgb(0,0,0);font-family:TimesNewRoman;font-size:10.02px;stroke:none;">respiratory measures can readily be instituted. </text>
   <text y="172.625" x="70.921,74.241,77.009,80.25,83.018,86.899,90.139,92.908,100.589,105.629,110.071,113.391,117.823,120.591,123.36,128.4,132.832,136.072,138.841,143.881,148.312,151.081,154.321,157.09,162.13,166.562,169.802,172.571,177.003,179.771,184.203,188.084,190.852,194.093,199.133,202.493,206.924,211.356,216.396,219.158,224.151,227.47,232.463,237.456,242.496,247.489,251.37,254.611,259.042,264.035,269.075,272.316,275.084,280.077,284.509,287.701,292.681,297.721,302.186,306.024,309.264,312.025,317.065,320.305,324.687,329.727,337.408,341.85,345.089,347.851,352.891,356.13,365.009,372.268,378.928,382.288,388.426,395.086,398.326,406.007,410.449,415.475,419.94,424.92,429.422,437.103,441.545,446.571,449.332,452.572,457.598,462.578,465.817,470.797,475.837,478.599,481.779,486.805,491.785,496.811,501.193,504.546,512.227,514.989,520.029,524.494" svgx:width="0.33,0.28,0.25,0.28,0.39,0.25,0.28,0.78,0.5,0.44,0.33,0.44,0.28,0.28,0.5,0.44,0.25,0.28,0.5,0.44,0.28,0.25,0.28,0.5,0.44,0.25,0.28,0.44,0.28,0.44,0.39,0.28,0.25,0.5,0.33,0.44,0.44,0.5,0.28,0.5,0.33,0.5,0.5,0.5,0.5,0.39,0.25,0.44,0.5,0.5,0.25,0.28,0.5,0.44,0.25,0.5,0.5,0.44,0.39,0.25,0.28,0.5,0.25,0.44,0.5,0.78,0.44,0.25,0.28,0.5,0.25,0.89,0.72,0.67,0.33,0.61,0.67,0.25,0.78,0.44,0.5,0.44,0.5,0.44,0.78,0.44,0.5,0.28,0.25,0.5,0.5,0.25,0.5,0.5,0.28,0.25,0.5,0.5,0.5,0.44,0.33,0.78,0.28,0.5,0.44,0.25" style="fill:rgb(0,0,0);font-family:TimesNewRoman;font-size:10.02px;stroke:none;">It is imperative that the latest breakthroughs and the ones to come in MDR-TB management do not undermine </text>
   <text y="184.625" x="70.921,75.381,78.561,81.861,86.901,90.249,93.01,96.849,99.354,102.608,105.37,110.41,112.91499999999999,116.169,120.551,125.531,130.511,133.871,138.331,142.239,146.148,148.653,151.908,154.609,159.649,164.109,166.614,169.809,174.83,178.178,182.56,187.54,192.0,194.761,197.523,200.284,205.305,210.326,212.831,216.086,218.847,223.307,227.767,232.747,235.252,238.447,243.468,246.768,249.273,252.528,257.549,262.008,265.917,268.679,273.061,275.566,278.82,281.582,286.622,289.969,294.429,298.889,301.651,304.352,309.392,314.372,316.877,320.131,324.513,329.534,334.555,337.317,340.616,345.656,348.418,350.923,354.118,359.139,362.439,366.899,371.359,374.12,376.882,381.342,385.802,389.71,392.226,394.731,397.986,403.747,408.727,413.748,418.208,421.508,425.95,430.971,433.732,438.753,442.662,445.424,449.262,451.767,455.022,457.783,462.823,466.171,470.631,475.091,477.852,480.554,485.594,490.574,493.079,496.333,500.715,505.736,510.757,513.518,516.818,521.858,524.559" svgx:width="0.44,0.33,0.33,0.5,0.33,0.28,0.39,0.25,0.55,0.28,0.5,0.25,0.55,0.44,0.5,0.5,0.33,0.44,0.39,0.39,0.25,0.55,0.28,0.5,0.44,0.25,0.55,0.5,0.33,0.44,0.5,0.44,0.28,0.28,0.28,0.5,0.5,0.25,0.55,0.28,0.44,0.44,0.5,0.25,0.55,0.5,0.33,0.25,0.55,0.5,0.44,0.39,0.28,0.44,0.25,0.55,0.28,0.5,0.33,0.44,0.44,0.28,0.28,0.5,0.5,0.25,0.55,0.44,0.5,0.5,0.28,0.33,0.5,0.28,0.25,0.55,0.5,0.33,0.44,0.44,0.28,0.28,0.44,0.44,0.39,0.25,0.25,0.55,0.61,0.5,0.5,0.44,0.33,0.44,0.5,0.28,0.5,0.39,0.28,0.39,0.25,0.55,0.28,0.5,0.33,0.44,0.44,0.28,0.28,0.5,0.5,0.25,0.55,0.44,0.5,0.5,0.28,0.33,0.5,0.28,0.25" style="fill:rgb(0,0,0);font-family:TimesNewRoman;font-size:10.02px;stroke:none;">efforts to address the prevailing lack of basic infection control practices. Tuberculosis infection control </text>
   <text y="196.625" x="70.921,75.945,80.969,85.351,88.701,93.164,95.926,98.687,103.667,108.691,113.154,115.916,118.42099999999999,120.175,123.475,127.917,131.755,136.218,140.681,144.032,148.495,153.475,155.98,157.734,160.496,165.476,167.981,169.735,172.497,177.477,180.827,185.29,189.753,192.515,195.276,200.316,205.296,207.801,209.556,214.019,218.999,224.023,226.784,230.084,235.124,237.885,240.39,242.145,244.846,249.826,252.331,254.086,257.998,262.977,267.957,271.317,275.229,279.692,284.716,289.098,292.448,296.83,301.854,304.359,306.054,313.303,316.602,319.953,322.715,327.178,331.64,334.145,335.9,339.739,344.779,349.759,354.799,357.5,362.54,365.045,366.74,371.764,376.788,379.49,381.995,383.749,388.773,393.155,395.65999999999997,397.355,402.379,406.842,411.866,414.628,419.091,423.554,426.255,430.718,435.742,438.202,440.707,442.461,445.761,450.801,453.306,455.001,458.913,463.893,466.39799999999997,468.094,473.118,478.142,480.843,485.823,490.863,493.323,495.828,497.582,500.344,503.105,505.61,507.365,515.046,519.548,524.572" svgx:width="0.5,0.5,0.44,0.33,0.44,0.28,0.28,0.5,0.5,0.44,0.28,0.25,0.55,0.33,0.44,0.39,0.44,0.44,0.33,0.44,0.5,0.25,0.55,0.28,0.5,0.25,0.55,0.28,0.5,0.33,0.44,0.44,0.28,0.28,0.5,0.5,0.25,0.55,0.44,0.5,0.5,0.28,0.33,0.5,0.28,0.25,0.55,0.28,0.5,0.25,0.55,0.39,0.5,0.5,0.33,0.39,0.44,0.5,0.44,0.33,0.44,0.5,0.25,0.55,0.72,0.33,0.33,0.28,0.44,0.44,0.25,0.55,0.39,0.5,0.5,0.5,0.28,0.5,0.25,0.55,0.5,0.5,0.28,0.25,0.55,0.5,0.44,0.25,0.55,0.5,0.44,0.5,0.28,0.44,0.44,0.28,0.44,0.5,0.25,0.25,0.55,0.33,0.5,0.25,0.55,0.39,0.5,0.25,0.55,0.5,0.5,0.28,0.5,0.5,0.25,0.25,0.55,0.28,0.28,0.25,0.55,0.78,0.44,0.5,0.25" style="fill:rgb(0,0,0);font-family:TimesNewRoman;font-size:10.02px;stroke:none;">operational research in infection control in sub-saharan Africa should not be neglected. In so doing, it may </text>
   <text y="208.625" x="70.921,73.704,78.711,83.156,88.163,93.17,97.616,100.95,103.732,108.114,113.154,115.937,118.719,123.726,126.307,130.752,135.759,140.205,145.212,150.219,153.553,157.999,163.006,167.388,169.968,172.75,177.757,182.139,184.719,189.726,194.172,199.179,203.625,206.407,211.414,216.421,224.103,228.549,233.521,236.31,238.89,243.904,247.245,249.765,253.106,258.12,261.46,264.25,269.264,273.646,276.986,279.506,284.52,287.861,292.875,297.889,300.409,303.75,308.131,312.033,314.823,318.725,321.514,325.967,330.981,335.434,339.887,342.407,349.645,354.659,357.449,361.831,366.845,369.301,376.537,381.549,386.561,389.349,394.361,396.881,401.893,406.905,411.917,416.367,419.706,427.387,430.175,435.187,439.638,442.218,444.919,449.959,454.41,456.93,460.269,464.72,469.171,473.622,478.634,481.335,483.915,488.927,492.266,497.278,504.959,507.747,511.647,514.434,519.446,524.458" svgx:width="0.28,0.5,0.44,0.5,0.5,0.44,0.33,0.28,0.44,0.5,0.28,0.28,0.5,0.25,0.44,0.5,0.44,0.5,0.5,0.33,0.44,0.5,0.44,0.25,0.28,0.5,0.44,0.25,0.5,0.44,0.5,0.44,0.28,0.5,0.5,0.78,0.44,0.5,0.28,0.25,0.5,0.33,0.25,0.33,0.5,0.33,0.28,0.5,0.44,0.33,0.25,0.5,0.33,0.5,0.5,0.25,0.33,0.44,0.39,0.28,0.39,0.28,0.44,0.5,0.44,0.44,0.25,0.72,0.5,0.28,0.44,0.5,0.25,0.72,0.5,0.5,0.28,0.5,0.25,0.5,0.5,0.5,0.44,0.33,0.78,0.28,0.5,0.44,0.25,0.28,0.5,0.44,0.25,0.33,0.44,0.44,0.44,0.5,0.28,0.25,0.5,0.33,0.5,0.78,0.28,0.39,0.28,0.5,0.5,0.25" style="fill:rgb(0,0,0);font-family:TimesNewRoman;font-size:10.02px;stroke:none;">inadvertently encourage the development of further drug resistance which would undermine the recent promising </text>
   <text y="220.565" x="70.921,75.961,79.321,83.739,88.156,93.196,95.958,100.937,104.297,109.276,114.254,119.295,124.273,128.14,130.614" svgx:width="0.5,0.33,0.44,0.44,0.5,0.28,0.5,0.33,0.5,0.5,0.5,0.5,0.39,0.25,0.25" style="fill:rgb(0,0,0);font-family:TimesNewRoman;font-size:10.02px;stroke:none;">breakthroughs. </text>
   <text y="236.585" x="70.921,78.156,82.606,85.944,90.394,94.844,99.225,104.798,109.247,113.697,117.536" svgx:width="0.72,0.44,0.33,0.44,0.44,0.44,0.56,0.44,0.44,0.39,0.25" style="fill:rgb(0,0,0);font-family:TimesNewRoman,Bold;font-size:10.02px;stroke:none;">References </text>
  </g>
  <g begin="text">
   <text y="252.606" x="70.92,78.139,81.461,88.68,94.237,103.055,110.314,114.753,117.273,119.973,123.295,128.29,133.33,138.325,143.32,146.641,149.131,151.831,157.939,162.934,167.929,172.969,175.669,180.709,185.689,189.572,194.612,197.382,200.153,204.587,207.357,210.117,214.0,216.77,221.204,226.199,230.082,232.841,236.163,241.203,244.524,247.225,253.332,260.0,262.761,265.531,268.853,273.287,277.721,280.491,288.173,292.614,297.654,300.416,303.24,307.691,312.142,317.154,319.913,322.614,327.654,332.105,335.444,339.895,344.346,348.246,352.627,355.388,358.726,361.514,365.353,370.393,373.093,378.105,381.444,384.203,387.542,391.993,394.694,399.734,403.073,407.524,411.975,414.762,417.55,422.562,427.574,430.274,437.511,440.298,443.086,448.098,450.857,459.676,466.934,473.62,476.32,481.332,484.671,487.371,494.608,501.844,508.444,511.783,517.907,524.507" svgx:width="0.72,0.33,0.72,0.56,0.89,0.72,0.56,0.25,0.25,0.33,0.5,0.5,0.5,0.5,0.33,0.25,0.25,0.61,0.5,0.5,0.5,0.25,0.5,0.5,0.39,0.5,0.28,0.28,0.44,0.28,0.25,0.39,0.28,0.44,0.5,0.39,0.25,0.33,0.5,0.33,0.25,0.61,0.67,0.25,0.28,0.33,0.44,0.44,0.28,0.78,0.44,0.5,0.28,0.25,0.44,0.44,0.5,0.25,0.28,0.5,0.44,0.33,0.44,0.44,0.39,0.44,0.25,0.33,0.28,0.39,0.5,0.25,0.5,0.33,0.25,0.33,0.44,0.28,0.5,0.33,0.44,0.44,0.28,0.28,0.5,0.5,0.25,0.72,0.28,0.28,0.5,0.25,0.89,0.72,0.67,0.25,0.5,0.33,0.25,0.72,0.72,0.67,0.33,0.61,0.67,0.25" style="fill:rgb(0,0,0);font-family:TimesNewRoman;font-size:10.02px;stroke:none;">AIDSMAP. (2008). Long hospital stays for TB treatment can increase risk of reinfection with MDR or XDR-TB </text>
  </g>
  <g begin="text">
   <text y="264.546" x="90.9,94.701,97.342,100.581,104.933,107.574,112.494,116.295,118.702,121.102,127.642,132.024,134.665,137.905,140.593,144.945,149.858,154.209,159.122,161.522,164.761,168.001,172.914,180.476,182.876,187.856,190.497,193.138,198.058,200.746,203.435,206.123,213.26,220.398,226.876,229.283,233.635,236.276,241.196,244.997,252.559,256.91,261.823,264.231,268.583,273.563,281.185,283.826,288.12,293.032,295.673,300.586,304.937,312.074,315.875,318.515,323.428,328.341,334.88,339.793,344.706,349.618,356.756,362.781,365.96,373.097,378.01,382.869,387.788,391.027,395.94,403.077,407.936,415.073,418.313,423.171,428.084,432.997,437.91,441.089,446.002,453.139,458.613,463.526,468.439,473.836,478.749,483.662,490.799,496.197,501.056,505.969,508.376,512.728,516.529,521.442" svgx:width="0.39,0.28,0.33,0.44,0.28,0.5,0.39,0.25,0.25,0.67,0.44,0.28,0.33,0.28,0.44,0.5,0.44,0.5,0.25,0.33,0.33,0.5,0.78,0.25,0.5,0.28,0.28,0.5,0.28,0.28,0.28,0.72,0.72,0.72,0.25,0.44,0.28,0.5,0.39,0.78,0.44,0.5,0.25,0.44,0.5,0.78,0.28,0.44,0.5,0.28,0.5,0.44,0.72,0.39,0.28,0.5,0.5,0.67,0.5,0.5,0.5,0.72,0.61,0.33,0.72,0.5,0.5,0.5,0.33,0.5,0.72,0.5,0.72,0.33,0.5,0.5,0.5,0.5,0.33,0.5,0.72,0.56,0.5,0.5,0.56,0.5,0.5,0.72,0.56,0.5,0.5,0.25,0.44,0.39,0.5,0.25" style="fill:rgb(0,0,0);font-family:TimesNewRoman;font-size:10.02px;stroke:none;">strains. Retrieved from http://www.aidsmap.com/en/news/52B495AE-A666-4D3A-9354-6DF46F63AF91.asp </text>
   <text y="280.626" x="70.92,78.16,81.459,88.699,94.275,103.093,110.352,114.791,117.311,119.816,126.19,129.49,134.53,139.51,144.49,149.53,152.83,155.35,157.855,164.229,171.469,174.768,181.786,184.291,190.666,195.12,200.135,205.115,207.62,214.055,220.182,226.782,229.287,235.722,238.513,243.493,245.998,252.433,258.009,261.35,265.804,270.258,273.049,275.839,280.293,284.675,287.18,293.615,296.914,301.894,305.236,307.741,314.101,319.141,324.121,327.444,331.329,335.765,339.65,342.351,344.856,351.291,357.4,364.07,366.575,373.01,375.783,380.823,384.146,388.582,393.018,395.791,398.563,403.56,408.557,411.062,417.437,421.873,426.913,431.953,434.654,437.978,443.018,445.79,448.282,450.787,457.222,463.893,468.328,471.101,474.425,477.126,481.568,486.608,491.05,496.047,498.552,504.926,508.25,511.574,516.674,524.456" svgx:width="0.72,0.33,0.72,0.56,0.89,0.72,0.56,0.25,0.25,0.55,0.33,0.5,0.5,0.5,0.5,0.33,0.25,0.25,0.55,0.72,0.33,0.72,0.25,0.55,0.44,0.5,0.5,0.25,0.55,0.61,0.67,0.25,0.55,0.28,0.5,0.25,0.55,0.56,0.33,0.44,0.44,0.28,0.28,0.44,0.44,0.25,0.55,0.33,0.5,0.33,0.25,0.55,0.5,0.5,0.33,0.39,0.44,0.39,0.28,0.25,0.55,0.61,0.67,0.25,0.55,0.28,0.5,0.33,0.44,0.44,0.28,0.28,0.5,0.5,0.25,0.55,0.44,0.5,0.5,0.28,0.33,0.5,0.28,0.25,0.25,0.55,0.67,0.44,0.28,0.33,0.28,0.44,0.5,0.44,0.5,0.25,0.55,0.33,0.33,0.5,0.78,0.25" style="fill:rgb(0,0,0);font-family:TimesNewRoman;font-size:10.02px;stroke:none;">AIDSMAP. (2013). HIV and TB in Practice for nurses: TB infection control. Retrieved from </text>
   <text y="292.566" x="90.901,95.941,98.712,101.482,106.522,109.293,112.063,114.834,122.053,129.273,135.871,138.361,142.795,145.565,150.56,154.443,162.124,166.558,171.598,174.088,178.522,183.562,191.303,194.074,199.114,203.548,208.543,212.977,215.747,220.787,225.767,230.807,235.802,240.797,245.837,250.877,253.579" svgx:width="0.5,0.28,0.28,0.5,0.28,0.28,0.28,0.72,0.72,0.72,0.25,0.44,0.28,0.5,0.39,0.78,0.44,0.5,0.25,0.44,0.5,0.78,0.28,0.5,0.44,0.5,0.44,0.28,0.5,0.5,0.5,0.5,0.5,0.5,0.5,0.28,0.25" style="fill:rgb(0,0,0);font-family:TimesNewRoman;font-size:10.02px;stroke:none;">http://www.aidsmap.com/page/2623403/ </text>
   <text y="308.646" x="70.921,78.171,84.308,89.894,92.656,99.316,106.574,113.235,115.74,118.154,123.741,126.502,130.966,133.727,138.191,145.873,150.337,155.362,158.123,160.628,163.103,169.763,174.864,182.605,190.346,193.108,195.87,198.631,203.095,207.559,210.064,212.539,217.564,222.589,225.094,227.569,233.706,238.17,240.931,245.373,250.353,253.115,255.62,258.095,264.232,269.257,274.282,278.664,282.015,286.479,291.504,294.206,299.231,303.144,305.905,309.744,312.249,314.724,318.075,322.981,326.299,330.729,335.159,337.925,340.692,345.732,350.723,353.209,355.714,358.189,361.506,366.497,371.537,376.528,381.519,384.837,387.323,389.828,392.303,398.406,402.836,406.153,411.193,415.623,418.39,422.82,427.811,430.316,432.79,435.557,440.597,445.637,450.019,453.337,457.766,462.806,465.573,468.339,473.38,475.885,478.359,481.126,485.556,489.435,492.201,494.968,500.008,505.048,507.553,510.028,514.458,519.498,524.489" svgx:width="0.72,0.61,0.56,0.28,0.67,0.72,0.67,0.25,0.55,0.56,0.28,0.44,0.28,0.44,0.78,0.44,0.5,0.28,0.25,0.55,0.67,0.5,0.78,0.78,0.28,0.28,0.28,0.44,0.44,0.25,0.55,0.5,0.5,0.25,0.55,0.61,0.44,0.28,0.44,0.5,0.28,0.25,0.55,0.61,0.5,0.5,0.44,0.33,0.44,0.5,0.28,0.5,0.39,0.28,0.39,0.25,0.55,0.33,0.5,0.33,0.44,0.44,0.28,0.28,0.5,0.5,0.25,0.25,0.55,0.33,0.5,0.5,0.5,0.5,0.33,0.25,0.25,0.55,0.61,0.44,0.33,0.5,0.44,0.28,0.44,0.5,0.25,0.55,0.28,0.5,0.5,0.44,0.33,0.44,0.5,0.28,0.28,0.5,0.25,0.55,0.28,0.44,0.39,0.28,0.28,0.5,0.5,0.25,0.55,0.44,0.5,0.5,0.25" style="fill:rgb(0,0,0);font-family:TimesNewRoman;font-size:10.02px;stroke:none;">ATS/CDC Statement Committee on Latent Tuberculosis Infection. (2000). Targeted tuberculin testing and </text>
   <text y="320.646" x="90.901,93.663,97.022,101.492,105.962,108.769,116.45,120.892,125.923,128.684,131.189,165.465,170.496,173.795,176.29999999999998,210.576,213.337,217.779,220.541,224.983,230.014,232.775,235.28,269.556,272.317,277.348,282.379,286.761,290.061,294.502,299.533,302.295,307.326,311.245,314.006,317.845,320.35,354.625,357.387,362.427,365.785,370.255,374.724,377.426,380.187,385.218,390.249,392.709,395.214,429.49,436.09,440.532,443.293,446.653,449.414,453.856,458.887,463.357,468.337,470.842,505.118,508.475,511.775,516.806,524.547" svgx:width="0.28,0.33,0.44,0.44,0.28,0.78,0.44,0.5,0.28,0.25,0.55,0.5,0.33,0.25,0.55,0.28,0.44,0.28,0.44,0.5,0.28,0.25,0.55,0.28,0.5,0.5,0.44,0.33,0.44,0.5,0.28,0.5,0.39,0.28,0.39,0.25,0.55,0.28,0.5,0.33,0.44,0.44,0.28,0.28,0.5,0.5,0.25,0.25,0.55,0.67,0.44,0.28,0.33,0.28,0.44,0.5,0.44,0.5,0.25,0.55,0.33,0.33,0.5,0.78,0.25" style="fill:rgb(0,0,0);font-family:TimesNewRoman;font-size:10.02px;stroke:none;">treatment of latent tuberculosis infection. Retrieved from </text>
   <text y="332.586" x="90.901,95.941,98.714,101.486,106.526,109.299,112.071,114.844,122.065,129.287,136.508,139.0,143.436,148.433,152.869,155.361,160.358,165.398,170.438,173.199,180.982,188.663,195.885,199.208,201.981,207.021,210.345,214.78,219.82,222.582,227.018,234.239,237.012,244.794,252.476,259.734,263.058,268.098,270.919,278.601,281.422,284.184,287.508,290.831,295.828,300.868,305.848,310.888,315.27,320.31,322.77,327.767,330.589,338.27,340.775,343.31" svgx:width="0.5,0.28,0.28,0.5,0.28,0.28,0.28,0.72,0.72,0.72,0.25,0.44,0.5,0.44,0.25,0.5,0.5,0.5,0.28,0.78,0.78,0.72,0.33,0.28,0.5,0.33,0.44,0.5,0.28,0.44,0.72,0.28,0.78,0.78,0.72,0.33,0.5,0.28,0.78,0.28,0.28,0.33,0.33,0.5,0.5,0.5,0.5,0.44,0.5,0.25,0.5,0.28,0.78,0.25,0.55,0.25" style="fill:rgb(0,0,0);font-family:TimesNewRoman;font-size:10.02px;stroke:none;">http://www.cdc.gov/mmwr/preview/mmwrhtml/rr4906a1.htm </text>
   <text y="348.606" x="70.921,77.584,82.013,85.373,90.413,94.842,98.72,101.205,103.71,104.745,110.296,112.781,115.286,117.341,122.892,125.377,127.862,130.367,132.422,140.197,142.702,143.738,150.401,154.83,159.87,164.312,166.797,169.302,170.337,179.155,181.675,184.18,185.215,188.532,193.572,198.562,203.552,208.592,211.909,214.394,216.899,217.934,226.821,231.861,234.627,239.056,243.485,248.475,251.24,255.669,259.029,261.534,262.569,268.671,273.711,276.412,281.452,285.881,293.563,296.328,301.368,304.134,309.174,314.214,319.194,321.699,322.734,327.724,331.084,333.589,334.624,340.726,345.766,350.756,355.185,358.544,362.926,367.916,370.682,375.722,379.62,382.386,386.264,388.749" svgx:width="0.67,0.44,0.33,0.5,0.44,0.39,0.25,0.25,0.55,0.56,0.25,0.25,0.55,0.56,0.25,0.25,0.25,0.55,0.78,0.25,0.55,0.67,0.44,0.5,0.44,0.25,0.25,0.55,0.89,0.25,0.25,0.55,0.33,0.5,0.5,0.5,0.5,0.33,0.25,0.25,0.55,0.89,0.5,0.28,0.44,0.44,0.5,0.28,0.44,0.33,0.25,0.55,0.61,0.5,0.28,0.5,0.44,0.78,0.28,0.5,0.28,0.5,0.5,0.5,0.25,0.55,0.5,0.33,0.25,0.55,0.61,0.5,0.5,0.44,0.33,0.44,0.5,0.28,0.5,0.39,0.28,0.39,0.25,0.25" style="fill:rgb(0,0,0);font-family:TimesNewRoman;font-size:10.02px;stroke:none;">Barnes, P. F., &amp; Cave, M. (2003). Molecular Epidemiology of Tuberculosis. </text>
   <text y="348.606" x="392.221,398.907,401.412,402.447,408.508,413.52,418.532,421.32,423.825,424.799,429.25,431.755,432.79,441.139,445.59,450.602,453.109,455.614,456.589,461.601,466.613" svgx:width="0.67,0.25,0.55,0.61,0.5,0.5,0.28,0.25,0.55,0.44,0.25,0.55,0.83,0.44,0.5,0.25,0.25,0.55,0.5,0.5,0.5" style="fill:rgb(0,0,0);font-family:TimesNewRoman,Italic;font-size:10.02px;stroke:none;">N Engl J Med, 349</text>
   <text y="348.606" x="471.602,474.088,476.593,478.588,483.579,488.619,493.61,498.601,501.961,506.952,511.942,516.982,521.973,524.459" svgx:width="0.25,0.25,0.55,0.5,0.5,0.5,0.5,0.33,0.5,0.5,0.5,0.5,0.25,0.25" style="fill:rgb(0,0,0);font-family:TimesNewRoman;font-size:10.02px;stroke:none;">, 1149-1156. </text>
   <text y="360.546" x="90.902,95.942,98.703,101.463,106.503,109.264,112.024,114.785,119.825,124.865,127.325,132.31,137.35,140.11,142.59,147.63,150.93,155.97,158.731,163.716,168.756,171.236,176.277,181.261,186.246,191.286,194.047,201.256,207.354,211.226,220.109,223.421,227.844,232.829,237.869,242.854,247.839,252.879" svgx:width="0.5,0.28,0.28,0.5,0.28,0.28,0.28,0.5,0.5,0.25,0.5,0.5,0.28,0.25,0.5,0.33,0.5,0.28,0.5,0.5,0.25,0.5,0.5,0.5,0.5,0.28,0.72,0.61,0.39,0.89,0.33,0.44,0.5,0.5,0.5,0.5,0.5,0.5" style="fill:rgb(0,0,0);font-family:TimesNewRoman;font-size:10.02px;stroke:none;">http://dx.doi.org/10.1056/NEJMra021964</text>
   <text y="360.546" x="257.88" svgx:width="0.25" style="fill:rgb(0,0,0);font-family:TimesNewRoman,Bold;font-size:24.0px;stroke:none;"> </text>
   <text y="376.626" x="70.92,77.582,82.01,85.887,90.927,93.411,95.871,101.421,103.905,106.389,108.909,116.683,119.188,120.103,127.317,132.357,137.346,140.705,145.133,152.392,156.268,158.752,161.272,165.149,167.633,170.093,173.453,178.442,183.431,188.42,193.46,196.775,199.259,201.779,207.329,210.689,215.117,220.157,224.585,229.625,232.389,235.154,240.143,245.183,247.643,252.683,255.982,258.502,263.491,268.531,272.408,277.448,281.876,286.916,294.597,297.359,301.787,304.551,307.131,309.896,313.256,317.683,322.724,326.6,334.282,337.046,340.923,344.8,347.564,352.604,357.644,360.164,365.153,368.469,370.989,375.417,380.457,383.221,387.649,392.638,396.515,399.279,404.319,408.747,411.512,416.501,419.021,424.01,427.325,432.365,437.345,440.705,444.065,448.446,452.323,455.088,458.964,461.729,466.157,471.197,473.961,476.481,479.246,484.235,489.275,493.657,496.972,501.4,506.389,509.09,514.079,517.956,520.658,524.496" svgx:width="0.67,0.44,0.39,0.5,0.25,0.25,0.56,0.25,0.25,0.25,0.78,0.25,0.55,0.72,0.5,0.5,0.33,0.44,0.72,0.39,0.25,0.25,0.39,0.25,0.25,0.33,0.5,0.5,0.5,0.5,0.33,0.25,0.25,0.56,0.33,0.44,0.5,0.44,0.5,0.28,0.28,0.5,0.5,0.25,0.5,0.33,0.25,0.5,0.5,0.39,0.5,0.44,0.5,0.78,0.28,0.44,0.28,0.25,0.28,0.33,0.44,0.5,0.39,0.78,0.28,0.39,0.39,0.28,0.5,0.5,0.25,0.5,0.33,0.25,0.44,0.5,0.28,0.44,0.5,0.39,0.28,0.5,0.44,0.28,0.5,0.25,0.5,0.33,0.5,0.5,0.33,0.33,0.44,0.39,0.28,0.39,0.28,0.44,0.5,0.28,0.25,0.28,0.5,0.5,0.44,0.33,0.44,0.5,0.28,0.5,0.39,0.28,0.39,0.25" style="fill:rgb(0,0,0);font-family:TimesNewRoman;font-size:10.02px;stroke:none;">Basu, S., &amp; Andrews, J. (2009). Prevention of nosocomial transmission of extensively drug-resistant tuberculosis </text>
   <text y="388.626" x="90.9,93.664,98.703,101.208,103.562,106.878,111.867,115.182,119.61,122.375,124.88,127.233,132.783,137.772,142.811,145.572,150.561,153.066,155.48,162.693,166.009,169.324,172.089,176.517,180.945,185.934,188.439,190.852,195.891,198.652,202.529,205.293,208.609,211.309,215.737,218.501,221.006,223.42,228.409,233.448,237.325,242.364,245.129,247.893,252.321,255.085,258.962,261.727,264.23199999999997,266.646,271.073,276.112,278.617,280.971,285.399,290.438,293.138,298.178,302.605,310.286,313.05,318.089,320.854,325.893,330.932,333.692,338.12,342.548,345.313,347.818,350.231,357.912,362.951,367.99,372.431,375.195,377.96,380.724,385.763,390.802,393.307,395.721,399.598,402.363,407.352,412.391,417.38,419.863" svgx:width="0.28,0.5,0.25,0.55,0.33,0.5,0.33,0.44,0.28,0.25,0.55,0.56,0.5,0.5,0.28,0.5,0.25,0.55,0.72,0.33,0.33,0.28,0.44,0.44,0.5,0.25,0.55,0.5,0.28,0.39,0.28,0.33,0.28,0.44,0.28,0.25,0.55,0.5,0.5,0.39,0.5,0.28,0.28,0.44,0.28,0.39,0.28,0.25,0.55,0.44,0.5,0.25,0.55,0.44,0.5,0.28,0.5,0.44,0.78,0.28,0.5,0.28,0.5,0.5,0.28,0.44,0.44,0.28,0.25,0.55,0.78,0.5,0.5,0.44,0.28,0.28,0.28,0.5,0.5,0.25,0.55,0.39,0.28,0.5,0.5,0.5,0.25,0.25" style="fill:rgb(0,0,0);font-family:TimesNewRoman;font-size:10.02px;stroke:none;">in rural South African district hospitals: an epidemiological modelling study. </text>
   <text y="388.626" x="424.92,430.48,435.479,439.917,442.42199999999997,445.796,451.356,456.355,461.354,465.792,470.23,473.005,475.499,478.004,480.358,485.357,490.356" svgx:width="0.56,0.5,0.44,0.25,0.55,0.56,0.5,0.5,0.44,0.44,0.28,0.25,0.25,0.55,0.5,0.5,0.5" style="fill:rgb(0,0,0);font-family:TimesNewRoman,Italic;font-size:10.02px;stroke:none;">The Lancet, 370</text>
   <text y="388.626" x="495.359,498.719,503.694,508.669,513.709,518.684,521.985,524.455" svgx:width="0.33,0.5,0.5,0.5,0.5,0.33,0.25,0.25" style="fill:rgb(0,0,0);font-family:TimesNewRoman;font-size:10.02px;stroke:none;">(9597), </text>
   <text y="400.566" x="90.899,95.939,100.922,105.905,110.945,114.254,119.237,124.278,129.257,134.298,136.757,139.277,144.318,147.079,149.78,154.82,157.579,160.337,163.096,168.136,173.176,175.636,180.619,185.659,188.417,190.895,195.878,199.188,204.228,206.99,212.03,217.01,219.487,224.47,229.453,234.493,239.533,242.295,247.839,252.822,257.862,262.845,267.828,271.188,276.171,281.154,286.194,291.177,294.536,299.519,304.502,307.862,312.845,317.828,322.868,327.851,332.891,336.2,341.183" svgx:width="0.5,0.5,0.5,0.5,0.33,0.5,0.5,0.5,0.5,0.25,0.25,0.5,0.28,0.28,0.5,0.28,0.28,0.28,0.5,0.5,0.25,0.5,0.5,0.28,0.25,0.5,0.33,0.5,0.28,0.5,0.5,0.25,0.5,0.5,0.5,0.5,0.28,0.56,0.5,0.5,0.5,0.5,0.33,0.5,0.5,0.5,0.5,0.33,0.5,0.5,0.33,0.5,0.5,0.5,0.5,0.5,0.33,0.5,0.25" style="fill:rgb(0,0,0);font-family:TimesNewRoman;font-size:10.02px;stroke:none;">1500-1507. http://dx.doi.org/10.1016/S0140-6736(07)61636-5 </text>
   <text y="416.646" x="70.919,77.579,80.341,84.252,88.714,93.737,96.498,99.26,104.3,106.818,109.323,111.077,117.737,120.257,122.762,124.517,131.117,133.635,136.153,138.658,139.453,145.037,149.419,154.399,157.758,162.781,166.62,171.643,174.161,176.666,178.361,184.497,187.015,189.51999999999998,191.215,197.875,200.393,202.911,205.416,207.171,212.755,215.517,219.979,223.328,226.09,228.851,233.831,238.854,241.372,243.877,245.632,252.232,254.752,257.257,259.011,265.147,267.665,270.183,272.688,274.442,282.251,284.756,286.51,293.11,298.151,300.912,305.892,308.41,310.915,312.67,319.917,322.435,324.94,326.695,333.355,335.815,338.32,339.114,342.414,347.454,352.434,357.414,362.454,365.754,368.274,371.514,377.649,382.672,387.134,389.896,394.919,399.381,402.142,404.904,409.884,414.907,418.147,423.127,426.487,429.727,436.975,441.955,446.978,450.218,453.568,458.03,461.868,466.909,469.67,473.03,477.492,480.253,485.233,488.533,491.038,491.832,496.855,500.766,505.148,507.653,508.447,512.909,516.82,519.325,520.12,524.502" svgx:width="0.67,0.28,0.39,0.44,0.5,0.28,0.28,0.5,0.25,0.25,0.55,0.67,0.25,0.25,0.55,0.67,0.25,0.25,0.25,0.55,0.56,0.44,0.5,0.33,0.5,0.39,0.5,0.25,0.25,0.55,0.61,0.25,0.25,0.55,0.67,0.25,0.25,0.25,0.55,0.56,0.28,0.44,0.33,0.28,0.28,0.5,0.5,0.25,0.25,0.55,0.67,0.25,0.25,0.55,0.61,0.25,0.25,0.25,0.55,0.78,0.25,0.55,0.67,0.5,0.28,0.5,0.25,0.25,0.55,0.72,0.25,0.25,0.55,0.67,0.25,0.25,0.55,0.33,0.5,0.5,0.5,0.5,0.33,0.25,0.25,0.61,0.5,0.44,0.28,0.5,0.44,0.28,0.28,0.5,0.5,0.25,0.5,0.33,0.25,0.72,0.5,0.5,0.25,0.33,0.44,0.39,0.5,0.28,0.33,0.44,0.28,0.5,0.33,0.25,0.55,0.5,0.39,0.44,0.25,0.55,0.44,0.39,0.25,0.55,0.44,0.25" style="fill:rgb(0,0,0);font-family:TimesNewRoman;font-size:10.02px;stroke:none;">Biscotto, C. R., Pedroso, E. R., Starling, C. E., &amp; Roth, V. R. (2005). Evaluation of N95 respirator use as a </text>
   <text y="428.586" x="119.099,121.861,126.884,131.907,136.288,139.638,144.1,149.123,151.824,156.848,160.758,163.52,167.419,169.939,174.32,179.3,184.323,187.085,190.384,195.424,198.186,200.706,208.387,212.849,217.311,221.222,226.245,229.595,234.057,236.577,239.338,244.378,246.898,251.36,253.82,257.17,261.632,265.47,270.51,275.49,278.85,283.312,287.774,291.124,293.885,296.586,304.328,307.089,309.851,314.293,319.316,321.836,325.747,330.209,332.97,335.732,338.493,343.516,348.539,351.057" svgx:width="0.28,0.5,0.5,0.44,0.33,0.44,0.5,0.28,0.5,0.39,0.28,0.39,0.25,0.44,0.5,0.5,0.28,0.33,0.5,0.28,0.25,0.78,0.44,0.44,0.39,0.5,0.33,0.44,0.25,0.28,0.5,0.25,0.44,0.25,0.33,0.44,0.39,0.5,0.5,0.33,0.44,0.44,0.33,0.28,0.28,0.78,0.28,0.28,0.44,0.5,0.25,0.39,0.44,0.28,0.28,0.28,0.5,0.5,0.25,0.25" style="fill:rgb(0,0,0);font-family:TimesNewRoman;font-size:10.02px;stroke:none;">tuberculosis control measure in a resource-limited setting. </text>
   <text y="428.586" x="353.459,356.759,361.799,364.56,367.08,371.539,374.059,379.578,384.558,389.578,394.037,397.945,402.404,404.864,410.445,415.425,420.445,425.425,427.945,435.189,437.951,441.858,444.318,446.838" svgx:width="0.33,0.5,0.28,0.25,0.44,0.25,0.56,0.5,0.5,0.44,0.39,0.44,0.25,0.56,0.5,0.5,0.5,0.25,0.72,0.28,0.39,0.25,0.25,0.5" style="fill:rgb(0,0,0);font-family:TimesNewRoman,Italic;font-size:10.02px;stroke:none;">Int J Tuberc Lung Dis, 9</text>
   <text y="428.586" x="451.799,455.1,460.14,463.441,465.961,468.42,473.394,478.434,483.408,486.709,491.749,494.209" svgx:width="0.33,0.5,0.33,0.25,0.25,0.5,0.5,0.5,0.33,0.5,0.25,0.25" style="fill:rgb(0,0,0);font-family:TimesNewRoman;font-size:10.02px;stroke:none;">(5), 545-9. </text>
   <text y="444.606" x="70.919,77.591,82.631,87.069,92.068,94.562,97.082,104.306,106.8,109.30499999999999,110.28,117.503,119.997,122.491,125.011,128.898,133.336,138.376,142.274,146.712,151.752,154.246,156.766,162.326,164.82,167.325,168.3,175.524,178.018,180.512,182.972,191.868,194.643,197.417,200.192,204.63,207.955,210.449,212.969,219.642,222.136,224.63,227.15,234.934,237.439,238.414,245.638,250.076,253.401,258.441,262.879,265.654,268.428,270.922,273.442,279.553,282.047,284.567,287.893,292.859,297.858,302.897,307.896,311.222,313.716,316.175,322.286,327.285,332.324,336.765,340.09,344.528,349.567,352.268,357.267,361.153,363.928,367.815,370.334,373.659,378.658,381.984,386.422,390.86,393.634,396.409,401.408,406.447,408.959,415.559,420.599,425.639,428.34,431.666,436.706,439.481,442.001,444.775,449.774,452.294,458.967,463.404,467.291,472.29,477.33,480.69,485.128,489.566,492.891,499.003,501.777,509.458,512.28,515.042,519.479,524.52" svgx:width="0.67,0.5,0.44,0.5,0.25,0.25,0.72,0.25,0.25,0.55,0.72,0.25,0.25,0.25,0.39,0.44,0.5,0.39,0.44,0.5,0.25,0.25,0.56,0.25,0.25,0.55,0.72,0.25,0.25,0.25,0.89,0.28,0.28,0.28,0.44,0.33,0.25,0.25,0.67,0.25,0.25,0.25,0.78,0.25,0.55,0.72,0.44,0.33,0.5,0.44,0.28,0.28,0.25,0.25,0.61,0.25,0.25,0.33,0.5,0.5,0.5,0.5,0.33,0.25,0.25,0.61,0.5,0.5,0.44,0.33,0.44,0.5,0.28,0.5,0.39,0.28,0.39,0.25,0.33,0.5,0.33,0.44,0.44,0.28,0.28,0.5,0.5,0.25,0.67,0.5,0.5,0.28,0.33,0.5,0.28,0.25,0.28,0.5,0.25,0.67,0.44,0.39,0.5,0.5,0.33,0.44,0.44,0.33,0.61,0.28,0.78,0.28,0.28,0.44,0.5,0.25" style="fill:rgb(0,0,0);font-family:TimesNewRoman;font-size:10.02px;stroke:none;">Bock, N. N., Jensen, P. A., Miller, B., &amp; Nardell, E. (2007). Tuberculosis Infection Control in Resource-Limited </text>
   <text y="456.606" x="90.899,96.484,100.947,103.708,106.47,109.231,114.255,119.279,123.191,126.432,129.133,134.173,137.414,140.175,145.215,149.597,152.837,158.974,162.324,166.787,169.968,174.948,178.307,181.548,187.609,192.589,197.613,202.076,207.056,212.096,214.857,219.837,224.861,228.042,235.29,238.59,245.838,249.079,255.739,260.121,263.471,267.853,271.094,275.556,280.536,285.56,288.801,294.862,298.222,302.685,307.148,309.909,317.59,322.032,327.056,329.818,332.337" svgx:width="0.56,0.44,0.28,0.28,0.28,0.5,0.5,0.39,0.25,0.28,0.5,0.25,0.28,0.5,0.44,0.25,0.61,0.33,0.44,0.25,0.5,0.33,0.25,0.61,0.5,0.5,0.44,0.5,0.5,0.28,0.5,0.5,0.25,0.72,0.33,0.72,0.25,0.67,0.44,0.33,0.44,0.25,0.44,0.5,0.5,0.25,0.61,0.33,0.44,0.44,0.28,0.78,0.44,0.5,0.28,0.25,0.25" style="fill:rgb(0,0,0);font-family:TimesNewRoman;font-size:10.02px;stroke:none;">Settings in the Era of Expanding HIV Care and Treatment. </text>
   <text y="456.606" x="335.519,339.984,344.964,349.99,353.829,358.855,363.881,366.642,369.147,370.843,375.869,378.63,381.135,382.831,386.13,391.17,393.932,398.397,402.862,405.623,408.385,413.411,418.437,422.351,424.856,426.491,433.741,436.503,440.417,444.798,449.824,453.738,458.203,462.117,464.638,467.143,468.778,473.804,478.784" svgx:width="0.44,0.5,0.5,0.39,0.5,0.5,0.28,0.25,0.55,0.5,0.28,0.25,0.55,0.33,0.5,0.28,0.44,0.44,0.28,0.28,0.5,0.5,0.39,0.25,0.55,0.72,0.28,0.39,0.44,0.5,0.39,0.44,0.39,0.25,0.25,0.55,0.5,0.5,0.5" style="fill:rgb(0,0,0);font-family:TimesNewRoman,Italic;font-size:10.02px;stroke:none;">Journal of Infectious Diseases, 196</text>
   <text y="456.606" x="483.719,487.084,492.602,497.64,502.62,507.658,510.419,513.66,518.64,521.999,524.459" svgx:width="0.33,0.56,0.5,0.5,0.5,0.28,0.25,0.5,0.33,0.25,0.25" style="fill:rgb(0,0,0);font-family:TimesNewRoman;font-size:10.02px;stroke:none;">(Suppl 1), </text>
   <text y="468.545" x="90.899,96.443,101.426,106.466,111.446,114.806,119.786,124.826,127.285,129.745,134.785,137.544,140.302,145.342,148.101,150.859,153.618,158.658,163.698,166.158,171.141,176.181,178.94,181.417,186.4,189.71,194.75,197.512,202.495,207.535,210.013,215.053,220.036,225.018,230.059,232.817,237.8,242.84,247.823,252.806,257.846,262.829" svgx:width="0.56,0.5,0.5,0.5,0.33,0.5,0.5,0.25,0.25,0.5,0.28,0.28,0.5,0.28,0.28,0.28,0.5,0.5,0.25,0.5,0.5,0.28,0.25,0.5,0.33,0.5,0.28,0.5,0.5,0.25,0.5,0.5,0.5,0.5,0.28,0.5,0.5,0.5,0.5,0.5,0.5,0.25" style="fill:rgb(0,0,0);font-family:TimesNewRoman;font-size:10.02px;stroke:none;">S108-13. http://dx.doi.org/10.1086/518661 </text>
  </g>
  <g begin="text">
   <text y="484.626" x="70.92,77.586,82.626,87.619,90.939,95.371,100.411,105.404,109.836,113.155,118.148,120.636,123.817,131.034,133.522,136.762,140.643,143.131,145.619,148.86,154.965,160.005,163.324,166.093,168.861,173.293,178.286,180.774,184.015,190.615,193.103,195.591,198.831,201.6,206.032,214.733,219.175,221.943,226.38,229.68,236.938,241.32,246.36,251.373,255.825,258.333,261.574,265.412,267.932,271.173,279.991,282.511,284.971,288.212,293.786,298.238,305.919,310.959,315.411,317.919,321.159,327.221,329.741,332.2,335.441,342.678,347.06,352.073,357.086,361.538,364.478,366.938,370.118,377.356,379.864,382.323,385.504,391.682,396.064,399.404,407.085,411.537,414.325,417.114,421.015,423.523,426.703,435.614,438.122,440.63,443.81,446.318,448.826,451.286,454.527,463.437,468.45,472.902,476.242,480.081,482.601,485.781,489.682,492.19,495.37,498.71,503.723,508.736,513.749,518.762,522.061,524.521" svgx:width="0.67,0.5,0.5,0.33,0.44,0.5,0.5,0.44,0.33,0.5,0.25,0.25,0.72,0.25,0.25,0.39,0.25,0.25,0.25,0.61,0.5,0.33,0.28,0.28,0.44,0.5,0.25,0.25,0.67,0.25,0.25,0.25,0.28,0.44,0.94,0.44,0.28,0.44,0.33,0.72,0.44,0.5,0.5,0.44,0.25,0.25,0.39,0.25,0.25,0.89,0.25,0.25,0.25,0.56,0.44,0.78,0.5,0.44,0.25,0.25,0.61,0.25,0.25,0.25,0.72,0.44,0.5,0.5,0.44,0.33,0.25,0.25,0.72,0.25,0.25,0.25,0.72,0.44,0.33,0.78,0.44,0.28,0.28,0.39,0.25,0.25,0.89,0.25,0.25,0.25,0.25,0.25,0.25,0.25,0.89,0.5,0.44,0.33,0.39,0.25,0.25,0.39,0.25,0.25,0.33,0.5,0.5,0.5,0.5,0.33,0.25,0.25" style="fill:rgb(0,0,0);font-family:TimesNewRoman;font-size:10.02px;stroke:none;">Churchyard, G. J., Ehrlich, R., teWaterNaude, J. M., Pemba, L., Dekker, K., Vermeijs, M., ... Myers, J. (1999). </text>
  </g>
  <g begin="text">
   <text y="496.626" x="90.9,99.802,104.806,109.249,114.253,119.257,123.699,128.142,130.922,135.365,138.695,141.475,145.918,148.697,151.338,158.566,161.346,165.237,169.68,174.123,178.015,182.458,185.098,187.878,192.882,195.522,201.087,206.091,211.095,213.874,218.878,221.519,228.747,232.078,235.408,238.188,242.631,247.074,252.078,254.658,261.886,266.89,269.67,274.68,277.32,286.226,289.009,294.017,298.464,301.799,305.695,308.335,311.036,316.077,318.717,321.5,326.508,330.89,333.53,337.977,341.312,345.759,348.399,353.407,356.742,359.382,366.614,369.949,377.027,379.667,382.369,387.409,390.743,395.19,399.637,402.421,405.204,410.212,415.22,417.723" svgx:width="0.89,0.5,0.44,0.5,0.5,0.44,0.44,0.28,0.44,0.33,0.28,0.44,0.28,0.25,0.72,0.28,0.39,0.44,0.44,0.39,0.44,0.25,0.28,0.5,0.25,0.56,0.5,0.5,0.28,0.5,0.25,0.72,0.33,0.33,0.28,0.44,0.44,0.5,0.25,0.72,0.5,0.28,0.5,0.25,0.89,0.28,0.5,0.44,0.33,0.39,0.25,0.28,0.5,0.25,0.28,0.5,0.44,0.25,0.44,0.33,0.44,0.25,0.5,0.33,0.25,0.72,0.33,0.72,0.25,0.28,0.5,0.33,0.44,0.44,0.28,0.28,0.5,0.5,0.25,0.25" style="fill:rgb(0,0,0);font-family:TimesNewRoman;font-size:10.02px;stroke:none;">Mycobacterial Disease in South African Gold Miners in the era of HIV infection. </text>
   <text y="496.626" x="420.36,425.906,430.946,435.37,438.01,441.321,446.362,449.063,453.505,457.378,462.362,467.403,470.163,472.924,477.964,482.949,487.989,490.749,493.389,497.813,502.798,507.783,511.656,516.696,521.736,524.437" svgx:width="0.56,0.5,0.44,0.25,0.33,0.5,0.28,0.44,0.39,0.5,0.5,0.28,0.28,0.5,0.5,0.5,0.28,0.25,0.44,0.5,0.5,0.39,0.5,0.5,0.28,0.25" style="fill:rgb(0,0,0);font-family:TimesNewRoman,Italic;font-size:10.02px;stroke:none;">The International Journal </text>
  </g>
  <g begin="text">
   <text y="508.566" x="90.9,95.925,98.687,101.207,106.186,111.165,116.19,120.654,124.192,128.574,133.599,136.361,141.386,145.299,148.06,151.899,154.419,159.399,164.439,169.419,171.939,177.457,182.497,187.477,192.517,194.977,202.226,204.988,208.9,213.282,218.307,222.22,226.684,229.144,231.664" svgx:width="0.5,0.28,0.25,0.56,0.5,0.5,0.44,0.39,0.44,0.5,0.28,0.5,0.39,0.28,0.39,0.25,0.5,0.5,0.5,0.25,0.56,0.5,0.5,0.5,0.25,0.72,0.28,0.39,0.44,0.5,0.39,0.44,0.25,0.25,0.5" style="fill:rgb(0,0,0);font-family:TimesNewRoman,Italic;font-size:10.02px;stroke:none;">of Tuberculosis and Lung Disease, 3</text>
   <text y="508.566" x="236.64,240.0,244.98,248.339,250.799,253.319,258.299,263.279,268.319,271.626,276.666,281.646,286.686,289.161" svgx:width="0.33,0.5,0.33,0.25,0.25,0.5,0.5,0.5,0.33,0.5,0.5,0.5,0.25,0.25" style="fill:rgb(0,0,0);font-family:TimesNewRoman;font-size:10.02px;stroke:none;">(9), 791-798. </text>
   <text y="524.646" x="70.92,77.58,82.62,87.6,92.64,95.1,97.56,104.811,107.332,109.852,115.913,118.433,120.893,124.192,129.172,134.198,139.178,144.158,147.518,149.978,152.498,158.636,161.989,166.454,170.919,173.68,181.362,185.864,190.89,193.651,196.171,200.553,205.593,210.573,213.033,218.059,221.411,225.793,230.833,235.215,240.255,243.017,245.778,250.818,255.798,258.258,263.284,266.584,269.104,271.865,276.845,281.871,286.336,289.636,294.078,299.104,301.805,306.785,310.684,313.445,317.344,319.864,322.626,327.606,330.126,337.324,340.624,347.874,351.227,353.988,358.968,362.321,366.703,371.167,373.929,378.394,383.42,385.88,390.906,395.371,398.723,402.562,407.542,412.582,416.496,418.956" svgx:width="0.67,0.5,0.5,0.5,0.25,0.25,0.72,0.25,0.25,0.61,0.25,0.25,0.33,0.5,0.5,0.5,0.5,0.33,0.25,0.25,0.61,0.33,0.44,0.44,0.28,0.78,0.44,0.5,0.28,0.25,0.44,0.5,0.5,0.25,0.5,0.33,0.44,0.5,0.44,0.5,0.28,0.28,0.5,0.5,0.25,0.5,0.33,0.25,0.28,0.5,0.5,0.44,0.33,0.44,0.5,0.28,0.5,0.39,0.28,0.39,0.25,0.28,0.5,0.25,0.72,0.33,0.72,0.33,0.28,0.5,0.33,0.44,0.44,0.28,0.44,0.5,0.25,0.5,0.44,0.33,0.39,0.5,0.5,0.39,0.25,0.25" style="fill:rgb(0,0,0);font-family:TimesNewRoman;font-size:10.02px;stroke:none;">Cohn, D. L. (1994). Treatment and prevention of tuberculosis in HIV-infected persons. </text>
   <text y="524.646" x="421.44,424.762,429.802,432.574,437.009,441.444,444.215,446.735,453.956,456.727,460.611,463.131,469.8,472.572,475.343,480.339,482.799,489.469,494.509,498.392,501.164,506.204,508.664,514.772,521.992,524.483" svgx:width="0.33,0.5,0.28,0.44,0.44,0.28,0.25,0.72,0.28,0.39,0.25,0.67,0.28,0.28,0.5,0.25,0.67,0.5,0.39,0.28,0.5,0.25,0.61,0.72,0.25,0.25" style="fill:rgb(0,0,0);font-family:TimesNewRoman,Italic;font-size:10.02px;stroke:none;">Infect Dis Clin North Am, </text>
   <text y="536.586" x="90.9" svgx:width="0.5" style="fill:rgb(0,0,0);font-family:TimesNewRoman,Italic;font-size:10.02px;stroke:none;">8</text>
   <text y="536.586" x="95.94,99.245,104.285,107.589,110.062,112.522,117.562,122.54,127.518,130.878,135.856,140.834,145.874,148.347" svgx:width="0.33,0.5,0.33,0.25,0.25,0.5,0.5,0.5,0.33,0.5,0.5,0.5,0.25,0.25" style="fill:rgb(0,0,0);font-family:TimesNewRoman;font-size:10.02px;stroke:none;">(2), 399-412. </text>
   <text y="552.546" x="70.92,77.578,84.837,91.495,93.975,96.075,99.435,104.42,109.405,114.445,119.43,122.79,125.27,127.37,134.628,139.668,142.37,147.41,151.834,154.594,157.355,162.395,166.819,170.691,172.791,176.103,181.143,184.455,186.6,192.173,195.512,199.894,204.934,209.384,214.396,217.184,219.972,224.984,229.996,232.156,234.857,239.897,244.348,246.449,252.573,255.911,260.362,265.374,269.274,276.955,279.743,283.643,287.543,290.33,295.342,300.354,302.514,307.526,310.865" svgx:width="0.67,0.72,0.67,0.25,0.25,0.33,0.5,0.5,0.5,0.5,0.33,0.25,0.25,0.72,0.5,0.28,0.5,0.44,0.28,0.28,0.5,0.44,0.39,0.25,0.33,0.5,0.33,0.25,0.56,0.33,0.44,0.5,0.44,0.5,0.28,0.28,0.5,0.5,0.25,0.28,0.5,0.44,0.25,0.61,0.33,0.44,0.5,0.39,0.78,0.28,0.39,0.39,0.28,0.5,0.5,0.25,0.5,0.33,0.25" style="fill:rgb(0,0,0);font-family:TimesNewRoman;font-size:10.02px;stroke:none;">CDC. (2005). Guidelines for Preventing the Transmission of </text>
   <text y="552.546" x="312.96,321.316,325.774,330.156,335.135,340.154,345.173,349.631,352.393,356.835,360.742,363.503,368.483,375.741,377.902,380.663,385.643,390.662,395.12,399.027,403.409,408.428,411.189,416.208,420.115,422.876" svgx:width="0.83,0.44,0.44,0.5,0.5,0.5,0.44,0.28,0.44,0.39,0.28,0.5,0.72,0.25,0.28,0.5,0.5,0.44,0.39,0.44,0.5,0.28,0.5,0.39,0.28,0.39" style="fill:rgb(0,0,0);font-family:TimesNewRoman,Italic;font-size:10.02px;stroke:none;">Mycobacterium tuberculosis</text>
   <text y="552.546" x="426.72,428.82,431.587,436.627,438.787,446.003,450.433,454.862,457.629,460.395,465.436,468.753,475.417,479.847,483.165,487.595,489.695,495.247,499.677,502.443,505.21,507.976,513.016,518.057,521.955,524.441" svgx:width="0.25,0.28,0.5,0.25,0.72,0.44,0.44,0.28,0.28,0.5,0.33,0.67,0.44,0.33,0.44,0.25,0.56,0.44,0.28,0.28,0.28,0.5,0.5,0.39,0.25,0.25" style="fill:rgb(0,0,0);font-family:TimesNewRoman;font-size:10.02px;stroke:none;"> in Health-Care Settings. </text>
  </g>
  <g begin="text">
   <text y="568.626" x="70.92,77.571,84.83,91.481,94.001,96.506,98.501,105.703,109.063,116.266,118.786,121.291,123.286,130.488,133.848,141.106,149.925,157.183,159.945,163.304,170.503,176.042,183.244,185.764,188.269,190.204,193.564,198.542,203.52,208.56,213.538,216.897,219.417,221.922,223.857,231.116,236.156,238.909,243.949,248.366,251.12,253.873,258.913,263.33,267.196,269.701,271.696,275.0,280.04,283.4,285.905,287.84,293.379,296.739,301.156,306.196,310.612,315.72,318.481,321.243,326.276,331.309,333.814,335.809,340.19,345.17,350.203,352.70799999999997,354.703,360.465,363.825,368.206,372.648,375.457,383.138,387.61,392.643,395.405,397.90999999999997,399.905,404.938,408.297,410.802,412.797,419.996,424.976,430.009,434.989,438.348,441.11,446.09,451.13,453.891,457.79,460.552,463.313,467.755,470.26,472.255,475.615,480.595,483.894,488.366,492.838,495.6,498.361,503.394,508.427,512.348,514.853,516.848,519.549,524.529" svgx:width="0.67,0.72,0.67,0.25,0.25,0.55,0.72,0.33,0.72,0.25,0.25,0.55,0.72,0.33,0.72,0.89,0.72,0.28,0.33,0.72,0.56,0.72,0.25,0.25,0.55,0.33,0.5,0.5,0.5,0.5,0.33,0.25,0.25,0.55,0.72,0.5,0.28,0.5,0.44,0.28,0.28,0.5,0.44,0.39,0.25,0.55,0.33,0.5,0.33,0.25,0.55,0.56,0.33,0.44,0.5,0.44,0.5,0.28,0.28,0.5,0.5,0.25,0.55,0.44,0.5,0.5,0.25,0.55,0.61,0.33,0.44,0.44,0.28,0.78,0.44,0.5,0.28,0.25,0.55,0.5,0.33,0.25,0.55,0.72,0.5,0.5,0.5,0.33,0.28,0.5,0.5,0.28,0.39,0.28,0.28,0.44,0.25,0.55,0.33,0.5,0.33,0.44,0.44,0.28,0.28,0.5,0.5,0.39,0.25,0.55,0.28,0.5,0.25" style="fill:rgb(0,0,0);font-family:TimesNewRoman;font-size:10.02px;stroke:none;">CDC, NIH, HIVMA/IDSA. (2008). Guidelines for Prevention and Treatment of Opportunistic Infections in </text>
  </g>
  <g begin="text">
   <text y="580.626" x="90.9,98.151,101.451,107.75,111.109,114.409,119.449,122.803,127.269,131.734,134.496,138.878,143.858,146.363,189.817,197.069,202.049,207.076,209.837,212.599,216.498,219.003,262.457,266.923,271.95,276.977,279.48199999999997,322.877,330.129,335.108,340.136,342.897,347.363,351.278,355.744,360.125,365.152,367.914,371.829,374.289,376.794,420.248,426.909,431.351,434.112,437.472,440.233,444.675,449.702,454.084,459.064,461.569,505.024,508.377,511.731,516.758,524.5" svgx:width="0.72,0.33,0.72,0.33,0.33,0.5,0.33,0.44,0.44,0.28,0.44,0.5,0.25,0.55,0.72,0.5,0.5,0.28,0.28,0.39,0.25,0.55,0.44,0.5,0.5,0.25,0.55,0.72,0.5,0.5,0.28,0.44,0.39,0.44,0.44,0.5,0.28,0.39,0.25,0.25,0.55,0.67,0.44,0.28,0.33,0.28,0.44,0.5,0.44,0.5,0.25,0.55,0.33,0.33,0.5,0.78,0.25" style="fill:rgb(0,0,0);font-family:TimesNewRoman;font-size:10.02px;stroke:none;">HIV-Infected Adults and Adolescents. Retrieved from </text>
  </g>
  <g begin="text">
   <text y="592.566" x="90.9,95.94,98.7,101.459,106.499,109.259,112.018,114.778,121.986,129.194,135.793,138.272,142.694,145.454,150.438,154.31,157.069,162.109,165.409,170.449,172.909,177.949,180.71,185.75,188.21,193.194,198.234,203.274,206.036,210.459,215.499,220.539,223.3,227.723,232.763,235.523,238.833,241.593,244.352,248.775,252.647,255.406,262.615,267.599,272.639,275.398,278.158,283.198,290.406,293.717,298.757,303.741,308.725,313.765,318.749,323.789,326.268,331.308,336.292,339.602,342.10699999999997,344.582" svgx:width="0.5,0.28,0.28,0.5,0.28,0.28,0.28,0.72,0.72,0.72,0.25,0.44,0.28,0.5,0.39,0.28,0.5,0.33,0.5,0.25,0.5,0.28,0.5,0.25,0.5,0.5,0.5,0.28,0.44,0.5,0.5,0.28,0.44,0.5,0.28,0.33,0.28,0.28,0.44,0.39,0.28,0.72,0.5,0.5,0.28,0.28,0.5,0.72,0.33,0.5,0.5,0.5,0.5,0.5,0.5,0.25,0.5,0.5,0.33,0.25,0.55,0.25" style="fill:rgb(0,0,0);font-family:TimesNewRoman;font-size:10.02px;stroke:none;">http://www.aidsinfo.nih.gov/contentfiles/Adult_OI000999.pdf </text>
  </g>
  <g begin="text">
   <text y="608.646" x="70.92,78.159,82.613,85.404,89.858,94.177,96.697,99.217,105.906,108.416,110.936,116.997,119.507,122.017,124.477,129.995,137.736,142.19,144.981,147.771,150.281,152.801,157.299,159.819,162.339,171.252,173.762,176.222,178.742,184.318,188.7,193.715,198.169,202.623,205.413,209.867,212.807,215.317,217.777,225.017,227.477,229.997,234.735,237.245,239.755,242.215,247.733,252.175,257.19,262.205,267.22,270.01,275.025,277.727,282.742,285.252,287.712,294.951,297.411,299.931,307.129,309.639,312.149,314.669,323.582,328.036,335.235,340.275,344.728,352.41,354.92,357.44,364.128,366.638,369.158,376.357,378.867,381.377,383.837,387.739,392.193,396.647,401.662,406.677,410.58,413.04,415.5,424.081,426.481,429.001,435.689,438.199,440.719,444.558,447.377,449.887,452.347,454.867,462.668,465.128,472.326,477.366,482.381,486.763,493.961,498.343,501.044,503.746,506.206,508.666,513.104,515.564,518.024,524.624,527.084" svgx:width="0.72,0.44,0.28,0.44,0.5,0.25,0.25,0.67,0.25,0.25,0.61,0.25,0.25,0.25,0.56,0.78,0.44,0.28,0.28,0.25,0.25,0.56,0.25,0.25,0.89,0.25,0.25,0.25,0.56,0.44,0.5,0.44,0.44,0.28,0.44,0.33,0.25,0.25,0.72,0.25,0.25,0.56,0.25,0.25,0.25,0.56,0.44,0.5,0.5,0.5,0.28,0.5,0.28,0.5,0.25,0.25,0.72,0.25,0.25,0.72,0.25,0.25,0.25,0.89,0.44,0.72,0.5,0.44,0.78,0.25,0.25,0.67,0.25,0.25,0.72,0.25,0.25,0.25,0.39,0.44,0.44,0.5,0.5,0.39,0.25,0.25,0.94,0.25,0.25,0.67,0.25,0.25,0.39,0.33,0.25,0.25,0.25,0.78,0.25,0.72,0.5,0.5,0.44,0.72,0.44,0.28,0.28,0.25,0.25,0.56,0.25,0.25,0.67,0.25,0.25" style="fill:rgb(0,0,0);font-family:TimesNewRoman;font-size:10.02px;stroke:none;">Daley, C. L., Small, P. M., Schecter, G. F., Schoolnik, G. K., McAdam, R. A., Jacobs, W. R. Jr., &amp; Hopewell, P. C. </text>
  </g>
  <g begin="text">
   <text y="620.646" x="91.92,95.243,100.239,105.235,110.275,115.271,118.593,121.084,124.325,131.545,136.585,139.826,144.822,149.862,152.633,157.673,160.996,165.431,169.866,174.906,178.146,183.186,186.546,189.051,189.845,192.617,197.613,202.653,207.035,210.357,214.792,219.832,222.594,227.634,231.533,234.304,238.188,241.428,248.649,251.42,254.192,259.232,261.737,262.531,266.966,271.401,275.836,280.271,283.042,287.477,290.8,295.235,298.02,302.483,307.507,310.012,310.807,315.787,319.147,324.126,329.106,332.406,336.869,340.781,344.692,347.454,352.478,357.502,360.007,360.802,365.265,372.946,377.97,382.95,387.974,391.214,396.238,400.701,404.052,407.891,412.87,417.911,421.822,424.327,425.1,427.876,432.876,436.202,440.641,445.08,447.855,452.294,457.294,459.799,460.594,467.818,470.594,473.369,478.369,480.874,481.669,484.37,489.41,493.849,496.354,497.149,502.149,507.149,514.934,519.373,524.473" svgx:width="0.33,0.5,0.5,0.5,0.5,0.33,0.25,0.25,0.72,0.5,0.25,0.5,0.5,0.28,0.5,0.33,0.44,0.44,0.5,0.25,0.5,0.33,0.25,0.55,0.28,0.5,0.5,0.44,0.33,0.44,0.5,0.28,0.5,0.39,0.28,0.39,0.25,0.72,0.28,0.28,0.5,0.25,0.55,0.44,0.44,0.44,0.44,0.28,0.44,0.33,0.44,0.28,0.44,0.5,0.25,0.55,0.5,0.33,0.5,0.5,0.33,0.44,0.39,0.39,0.28,0.5,0.5,0.25,0.55,0.44,0.78,0.5,0.5,0.5,0.25,0.5,0.44,0.33,0.39,0.5,0.5,0.39,0.25,0.55,0.28,0.5,0.33,0.44,0.44,0.28,0.44,0.5,0.25,0.55,0.72,0.28,0.28,0.5,0.25,0.55,0.28,0.5,0.44,0.25,0.55,0.5,0.5,0.78,0.44,0.5,0.25" style="fill:rgb(0,0,0);font-family:TimesNewRoman;font-size:10.02px;stroke:none;">(1992). An outbreak of tuberculosis with accelerated progression among persons infected with the human </text>
  </g>
  <g begin="text">
   <text y="632.646" x="91.92,94.724,102.465,110.146,115.174,120.202,125.23,130.259,134.64,137.995,140.756,145.223,147.985,152.452,157.48,161.947,166.927,169.432,171.246,176.274,179.036,182.335,187.375,191.291,193.814,196.319,198.074,205.272,210.252,212.757,214.572,219.039,224.067,228.534,231.295,236.275,240.174,242.935,246.834,249.339,251.154,256.182,260.098,262.859,267.839,272.867,275.372,277.187,280.541,285.008,288.924,291.626,294.98,297.742,302.209,304.97,307.732,312.772,317.752,321.111,324.411,327.711,332.152,337.181,344.862,349.329,354.357,357.118,360.478,363.24,367.681,372.709,377.737,380.499,385.479,387.984,389.799,394.827,399.855,402.616,407.596,415.277,420.305,423.66,428.64,433.68,436.442,440.34,448.022,451.921,454.444" svgx:width="0.28,0.78,0.78,0.5,0.5,0.5,0.5,0.44,0.33,0.28,0.44,0.28,0.44,0.5,0.44,0.5,0.25,0.55,0.5,0.28,0.33,0.5,0.39,0.25,0.25,0.55,0.72,0.5,0.25,0.55,0.44,0.5,0.44,0.28,0.5,0.39,0.28,0.39,0.25,0.55,0.5,0.39,0.28,0.5,0.5,0.25,0.55,0.33,0.44,0.39,0.28,0.33,0.28,0.44,0.28,0.28,0.5,0.5,0.33,0.33,0.33,0.44,0.5,0.78,0.44,0.5,0.28,0.33,0.28,0.44,0.5,0.5,0.28,0.5,0.25,0.55,0.5,0.5,0.28,0.5,0.78,0.5,0.33,0.5,0.5,0.28,0.39,0.78,0.39,0.25,0.25" style="fill:rgb(0,0,0);font-family:TimesNewRoman;font-size:10.02px;stroke:none;">immunodeficiency virus. An analysis using restriction-fragment-length polymorphisms. </text>
   <text y="632.646" x="458.7,465.373,467.878,469.693,475.805,480.805,485.805,488.581,491.086,492.9,497.339,499.844,501.659,509.995,514.434,519.434,521.929,524.424" svgx:width="0.67,0.25,0.55,0.61,0.5,0.5,0.28,0.25,0.55,0.44,0.25,0.55,0.83,0.44,0.5,0.25,0.25,0.25" style="fill:rgb(0,0,0);font-family:TimesNewRoman,Italic;font-size:10.02px;stroke:none;">N Engl J Med., </text>
  </g>
  <g begin="text">
   <text y="644.586" x="91.92,96.96,101.94" svgx:width="0.5,0.5,0.5" style="fill:rgb(0,0,0);font-family:TimesNewRoman,Italic;font-size:10.02px;stroke:none;">326</text>
   <text y="644.586" x="106.92,110.28,115.26,118.619,121.139,123.599,128.578,133.618,138.597,141.903,146.943,149.463,151.923,156.963,159.717,162.472,167.512,170.266,173.021,175.775,180.816,185.856,188.315,193.294,198.335,201.089,203.563,208.603,211.723,216.763,219.525,224.504,229.544,232.018,237.058,242.037,247.016,252.056,254.81,262.069,268.16,272.027,280.903,285.943,290.922,295.962,300.941,305.92,310.899,315.939,320.918,325.897,330.876,335.916,340.895,345.874,350.914,355.893" svgx:width="0.33,0.5,0.33,0.25,0.25,0.5,0.5,0.5,0.33,0.5,0.25,0.25,0.5,0.28,0.28,0.5,0.28,0.28,0.28,0.5,0.5,0.25,0.5,0.5,0.28,0.25,0.5,0.33,0.5,0.28,0.5,0.5,0.25,0.5,0.5,0.5,0.5,0.28,0.72,0.61,0.39,0.89,0.5,0.5,0.5,0.5,0.5,0.5,0.5,0.5,0.5,0.5,0.5,0.5,0.5,0.5,0.5,0.25" style="fill:rgb(0,0,0);font-family:TimesNewRoman;font-size:10.02px;stroke:none;">(4), 231-5. http://dx.doi.org/10.1056/NEJM199201233260404 </text>
  </g>
  <g begin="text">
   <text y="660.606" x="70.92,78.177,83.211,87.592,90.952,98.633,103.075,108.108,113.141,115.903,120.936,125.408,128.767,131.469,133.997,136.502,139.037,146.294,148.754,151.259,153.855,157.154,162.134,167.167,172.147,177.18,180.48,183.008" svgx:width="0.72,0.5,0.44,0.33,0.78,0.44,0.5,0.5,0.28,0.5,0.44,0.33,0.28,0.25,0.25,0.55,0.72,0.25,0.25,0.55,0.33,0.5,0.5,0.5,0.5,0.33,0.25,0.25" style="fill:rgb(0,0,0);font-family:TimesNewRoman;font-size:10.02px;stroke:none;">Dharmadhikari, A. (2011). </text>
   <text y="660.606" x="188.04,193.037,195.809,203.031,208.028,210.8,215.236,217.74099999999999,220.336,226.445,231.442,235.878,240.26,242.765,245.3,253.634,258.631,262.515,266.951,270.836,273.341,275.936,282.607,287.604,292.601,295.373,300.37,302.875,305.46,310.467,313.25,318.257,323.264,326.046,328.829,331.611,336.057,341.064,346.071,348.854,351.636,356.082,358.587,361.122,367.241,370.78,375.225,379.671,384.117,389.124,391.825,394.33,396.926,401.933,406.94,410.478,414.859,419.866,424.873,427.378,429.901,434.9,437.674,440.179,442.714,448.274,454.385,456.89,459.486,462.26,467.259,469.764,472.359,479.032,484.031,489.03,492.355,495.681,500.68,503.454,507.892,512.33,515.105,519.487,524.466" svgx:width="0.5,0.28,0.72,0.5,0.28,0.44,0.25,0.55,0.61,0.5,0.44,0.44,0.25,0.55,0.83,0.5,0.39,0.44,0.39,0.25,0.55,0.67,0.5,0.5,0.28,0.5,0.25,0.55,0.5,0.28,0.5,0.5,0.28,0.28,0.28,0.44,0.5,0.5,0.28,0.28,0.44,0.25,0.55,0.61,0.39,0.44,0.44,0.44,0.5,0.28,0.25,0.55,0.5,0.5,0.39,0.44,0.5,0.5,0.25,0.55,0.5,0.28,0.25,0.55,0.56,0.61,0.25,0.55,0.28,0.5,0.25,0.55,0.67,0.5,0.5,0.33,0.33,0.5,0.28,0.44,0.44,0.28,0.44,0.5,0.25" style="fill:rgb(0,0,0);font-family:TimesNewRoman,Italic;font-size:10.02px;stroke:none;">Simple Face Masks Could Significantly Prevent Spread of TB to Non-Infected </text>
  </g>
  <g begin="text">
   <text y="672.606" x="90.9,97.014,102.054,104.832,107.609,112.05,117.09,119.852,123.742" svgx:width="0.61,0.5,0.28,0.28,0.44,0.5,0.28,0.39,0.25" style="fill:rgb(0,0,0);font-family:TimesNewRoman,Italic;font-size:10.02px;stroke:none;">Patients.</text>
   <text y="672.606" x="126.18,128.685,146.941,153.119,159.18,164.732,167.237,185.493,190.484,195.475,200.155,205.146,207.65099999999998,225.966,229.283,234.323,237.09,241.52,244.837,249.877,254.307,257.074,259.84,264.831,269.871,274.313,277.08,279.585,297.899,304.499,309.539,314.53,317.848,322.278,325.596,330.025,335.065,339.495,343.925,346.43,364.745,367.446,372.426,374.931,393.246,400.461,404.891,409.882,414.922,419.352,422.111,424.597,427.102,445.417,452.081,456.511,459.277,462.595,465.362,469.791,474.831,479.213,484.204,486.709,505.024,508.341,511.659,516.699,524.44" svgx:width="0.25,0.55,0.72,0.61,0.56,0.25,0.55,0.5,0.5,0.5,0.5,0.25,0.55,0.33,0.5,0.28,0.44,0.33,0.5,0.44,0.28,0.28,0.5,0.5,0.44,0.28,0.25,0.55,0.67,0.5,0.5,0.33,0.44,0.33,0.44,0.5,0.44,0.44,0.25,0.55,0.28,0.5,0.25,0.55,0.72,0.44,0.5,0.5,0.44,0.33,0.25,0.25,0.55,0.67,0.44,0.28,0.33,0.28,0.44,0.5,0.44,0.5,0.25,0.55,0.33,0.33,0.5,0.78,0.25" style="fill:rgb(0,0,0);font-family:TimesNewRoman;font-size:10.02px;stroke:none;"> ATS 2011 International Conference in Denver. Retrieved from </text>
  </g>
  <g begin="text">
   <text y="684.546" x="90.9,95.94,98.708,101.475,106.515,109.283,112.05,114.818,122.034,129.251,135.849,138.336,142.215,146.646,149.348,153.779,158.819,163.249,167.68,172.72,177.151,179.919,182.686,187.006,189.493,193.924,198.964,206.645,209.467,212.826,217.257,220.025,224.456,228.886,232.766,237.197,241.077,243.844,248.836,253.876,258.496,263.537,266.238,271.278,276.318,279.019,283.64,288.68,293.672,298.664,303.704,308.696,313.688,318.728,323.72,328.76,333.752,338.792,341.279,346.319,349.086,356.864" svgx:width="0.5,0.28,0.28,0.5,0.28,0.28,0.28,0.72,0.72,0.72,0.25,0.39,0.44,0.28,0.44,0.5,0.44,0.44,0.5,0.44,0.28,0.28,0.5,0.25,0.44,0.5,0.78,0.28,0.33,0.44,0.28,0.44,0.44,0.39,0.44,0.39,0.28,0.5,0.5,0.5,0.5,0.28,0.5,0.5,0.28,0.5,0.5,0.5,0.5,0.5,0.5,0.5,0.5,0.5,0.5,0.5,0.5,0.25,0.5,0.28,0.78,0.25" style="fill:rgb(0,0,0);font-family:TimesNewRoman;font-size:10.02px;stroke:none;">http://www.sciencedaily.com/releases/2011/05/110517162020.htm </text>
  </g>
  <g begin="text">
   <text y="700.626" x="70.92,78.148,83.152,88.192,90.954,95.397,99.716,102.215,104.72,105.695,111.261,113.76,116.265,117.179,125.76,128.259,130.758,133.263,134.238,138.13,142.573,145.904,150.944,153.723,157.615,160.114,162.619,163.534,172.115,174.635,177.14,178.115,184.792,187.291,189.79,192.295,193.27,202.172,206.615,209.946,212.725,217.765,222.805,227.187,229.686,232.191,233.106,241.687,244.207,246.712,247.627,251.518,254.017,256.516,259.021,259.996,267.786,270.291,271.206,276.771,281.811,284.512,289.552,293.995,296.88,299.373,301.878,302.793,310.015,312.508,315.013,315.988,322.098,324.591,327.096,328.071,331.957,334.777,337.27,339.775,340.75,344.074,349.072,354.112,359.11,364.108,367.433,369.926,372.431,373.406,382.302,387.342,390.115,392.889,395.662,400.66,403.985,408.983,414.023,417.323,420.647,425.084,428.97,431.743,435.629,438.403,442.839,447.88,450.653,453.158,454.133,456.907,461.947,466.987,471.368,474.693,479.13,484.128,486.901,491.941,495.84,498.614,502.5,504.993" svgx:width="0.72,0.5,0.5,0.28,0.44,0.5,0.25,0.25,0.55,0.56,0.25,0.25,0.55,0.94,0.25,0.25,0.25,0.55,0.39,0.44,0.33,0.5,0.28,0.39,0.25,0.25,0.55,0.94,0.25,0.25,0.55,0.67,0.25,0.25,0.25,0.55,0.89,0.44,0.33,0.28,0.5,0.5,0.44,0.25,0.25,0.55,0.94,0.25,0.25,0.55,0.39,0.25,0.25,0.25,0.55,0.78,0.25,0.55,0.56,0.5,0.28,0.5,0.44,0.33,0.25,0.25,0.55,0.72,0.25,0.25,0.55,0.61,0.25,0.25,0.55,0.39,0.33,0.25,0.25,0.55,0.33,0.5,0.5,0.5,0.5,0.33,0.25,0.25,0.55,0.89,0.5,0.28,0.28,0.28,0.5,0.33,0.5,0.5,0.33,0.33,0.44,0.39,0.28,0.39,0.28,0.44,0.5,0.28,0.25,0.55,0.28,0.5,0.5,0.44,0.33,0.44,0.5,0.28,0.5,0.39,0.28,0.39,0.25,0.25" style="fill:rgb(0,0,0);font-family:TimesNewRoman;font-size:10.02px;stroke:none;">Dooley, S. W., Jarvis, W. R., Martone, W. J., &amp; Snider, D. E. Jr. (1992). Multidrug-resistant tuberculosis. </text>
   <text y="700.626" x="508.44,514.524,519.496,524.468" svgx:width="0.61,0.5,0.5,0.25" style="fill:rgb(0,0,0);font-family:TimesNewRoman,Italic;font-size:10.02px;stroke:none;">Ann </text>
  </g>
  <g begin="text">
   <text y="712.566" x="90.9,94.246,99.265,102.059,106.517,110.356,115.396,117.916,126.272,130.653,135.672,138.132,140.592,144.912,149.892" svgx:width="0.33,0.5,0.28,0.44,0.39,0.5,0.25,0.83,0.44,0.5,0.25,0.25,0.5,0.5,0.5" style="fill:rgb(0,0,0);font-family:TimesNewRoman,Italic;font-size:10.02px;stroke:none;">Intern Med, 117</text>
   <text y="712.566" x="154.92,158.229,163.269,166.579,169.057,171.517,176.557,181.54,186.523,189.883,194.865,197.343,199.803,204.843,207.602,210.36,215.4,218.159,220.917,223.676,228.716,233.756,236.216,241.199,246.239,248.997,251.475,256.458,259.579,264.619,267.38,272.42,277.4,279.878,284.861,289.844,294.884,299.924,302.626,307.666,312.649,317.631,322.672,325.981,331.021,336.004,340.987,346.027,349.337,353.957,358.997,363.977,367.287,372.327,375.636,380.676,385.659,390.642" svgx:width="0.33,0.5,0.33,0.25,0.25,0.5,0.5,0.5,0.33,0.5,0.25,0.25,0.5,0.28,0.28,0.5,0.28,0.28,0.28,0.5,0.5,0.25,0.5,0.5,0.28,0.25,0.5,0.33,0.5,0.28,0.5,0.5,0.25,0.5,0.5,0.5,0.5,0.28,0.5,0.5,0.5,0.5,0.33,0.5,0.5,0.5,0.5,0.33,0.5,0.5,0.5,0.33,0.5,0.33,0.5,0.5,0.5,0.25" style="fill:rgb(0,0,0);font-family:TimesNewRoman;font-size:10.02px;stroke:none;">(3), 257-9. http://dx.doi.org/10.7326/0003-4819-117-3-257 </text>
  </g>
  <g begin="text">
   <text y="728.646" x="70.92,77.045,80.946,85.398,90.411,98.092,103.132,107.584,110.092,112.597,113.813,121.05,123.51,126.015,127.23,133.917,136.425,138.933,141.438,142.653,149.891,154.343,158.243,162.695,165.635,168.095,170.6,171.875,178.561,181.021,183.52599999999998,184.741,191.428,193.936,196.444,198.94899999999998,200.164,207.401,210.19,212.979,220.66,225.112,230.125,232.633,235.138,236.412,243.099,245.607,248.112,249.386,256.585,259.105,261.565,264.07,265.344,272.582,276.963,281.976,284.765,289.778,294.16,299.173,304.186,308.58,311.1,313.605,314.88,323.756,326.276,328.749,331.254,332.528,338.29,341.051,345.468,350.508,355.548,359.93,362.403,364.908,366.182,372.272,374.793,377.265,379.77,381.045,386.623,391.005,396.045,398.505,401.01,402.225,410.806,413.266,415.786,418.291,419.507,429.495,432.015,434.488,436.993,438.267,444.357,449.335,453.752,458.792,462.658,465.178,467.683,468.957,475.609,478.082,480.587,481.861,489.064,491.584,494.089,495.304,498.664,503.642,508.62,513.66,518.638,521.997,524.47" svgx:width="0.61,0.39,0.44,0.5,0.78,0.5,0.44,0.25,0.25,0.55,0.72,0.25,0.25,0.55,0.67,0.25,0.25,0.25,0.55,0.72,0.44,0.39,0.44,0.33,0.25,0.25,0.55,0.67,0.25,0.25,0.55,0.67,0.25,0.25,0.25,0.55,0.72,0.28,0.28,0.78,0.44,0.5,0.25,0.25,0.55,0.67,0.25,0.25,0.55,0.72,0.25,0.25,0.25,0.55,0.72,0.44,0.5,0.28,0.5,0.44,0.5,0.5,0.44,0.25,0.25,0.55,0.89,0.25,0.25,0.25,0.55,0.61,0.28,0.44,0.5,0.5,0.44,0.25,0.25,0.55,0.61,0.25,0.25,0.25,0.55,0.56,0.44,0.5,0.25,0.25,0.55,0.94,0.25,0.25,0.25,0.55,1.0,0.25,0.25,0.25,0.55,0.61,0.5,0.44,0.5,0.39,0.25,0.25,0.55,0.67,0.25,0.25,0.55,0.72,0.25,0.25,0.55,0.33,0.5,0.5,0.5,0.5,0.33,0.25,0.25" style="fill:rgb(0,0,0);font-family:TimesNewRoman;font-size:10.02px;stroke:none;">Escombe, A. R., Oeser, C. C., Gilman, R. H., Navincopa, M., Ticona, E., Pan, W., .. Evans, C. A. (2007). </text>
  </g>
  <g begin="text">
   <text y="740.586" x="90.9,98.113,102.541,105.306,110.295,113.61,118.038,120.803,123.082,129.261,133.702,138.743,141.507,144.272,147.036,151.464,154.228,156.993,162.033,167.073,169.533,172.849,177.837,181.153,183.673,186.438,191.478,195.906,198.426,203.976,207.291,211.719,216.759,221.187,226.227,228.992,231.756,236.745,241.785,244.245,249.234,252.55,254.469,261.683,264.447,267.763,272.752,277.792,281.092,286.132,290.573,293.094,299.694,304.734,309.774,312.535,316.963,322.003,324.768,329.757,334.797,337.317" svgx:width="0.72,0.44,0.28,0.5,0.33,0.44,0.28,0.25,0.72,0.44,0.5,0.28,0.28,0.28,0.44,0.28,0.28,0.5,0.5,0.25,0.33,0.5,0.33,0.25,0.28,0.5,0.44,0.25,0.56,0.33,0.44,0.5,0.44,0.5,0.28,0.28,0.5,0.5,0.25,0.5,0.33,0.25,0.72,0.28,0.33,0.5,0.5,0.33,0.5,0.44,0.25,0.67,0.5,0.5,0.28,0.44,0.5,0.28,0.5,0.5,0.25,0.25" style="fill:rgb(0,0,0);font-family:TimesNewRoman;font-size:10.02px;stroke:none;">Natural Ventilation for the Prevention of Airborne Contagion. </text>
   <text y="740.586" x="339.78,345.897,351.463,356.468,361.473,363.993,372.335,376.779,381.784,384.284,386.744" svgx:width="0.61,0.56,0.5,0.5,0.25,0.83,0.44,0.5,0.25,0.25,0.5" style="fill:rgb(0,0,0);font-family:TimesNewRoman,Italic;font-size:10.02px;stroke:none;">PLoS Med, 4</text>
   <text y="740.586" x="391.74,395.031,400.071,403.363,405.883,408.403,412.807,417.847,422.811,425.271" svgx:width="0.33,0.5,0.33,0.25,0.25,0.44,0.5,0.5,0.25,0.25" style="fill:rgb(0,0,0);font-family:TimesNewRoman;font-size:10.02px;stroke:none;">(2), e68. </text>
  </g>
 </g>
</svg>
