<?xml version="1.0" encoding="UTF-8"?>
<svg height="767.08" width="4210.013" xmlns="http://www.w3.org/2000/svg">
 <g id="page" xmlns:svgx="http://www.xml-cml.org/schema/svgx">
  <path style="fill:rgb(59,90,166);stroke:none;stroke-width:1.0;" d="M242.590 450.540 L252.060 450.540 Z"/>
  <path style="fill:rgb(59,90,166);stroke:none;stroke-width:1.0;" d="M254.320 450.540 L263.850 450.540 Z"/>
  <path style="fill:rgb(59,90,166);stroke:none;stroke-width:1.0;" d="M343.960 450.540 L353.480 450.540 Z"/>
  <path style="fill:rgb(59,90,166);stroke:none;stroke-width:1.0;" d="M355.750 450.540 L365.270 450.540 Z"/>
  <path style="fill:rgb(59,90,166);stroke:none;stroke-width:1.0;" d="M203.410 463.520 L212.940 463.520 Z"/>
  <path style="fill:rgb(59,90,166);stroke:none;stroke-width:1.0;" d="M218.100 463.520 L227.620 463.520 Z"/>
  <path style="fill:rgb(59,90,166);stroke:none;stroke-width:1.0;" d="M342.940 463.520 L352.460 463.520 Z"/>
  <g begin="text">
   <text y="449.461" x="200.012,203.613,207.842,212.072,217.552,221.882,225.592,228.253,233.313,236.91299999999998,239.186" svgx:width="0.36,0.43,0.43,0.55,0.44,0.38,0.27,0.51,0.36,0.55,0.34" style="fill:rgb(0,0,0);font-family:MinionPro-Regular;font-size:10.0px;stroke:none;">scenarios [</text>
   <text y="449.461" x="242.577,247.326" svgx:width="0.48,0.48" style="fill:rgb(59,90,166);font-family:MinionPro-Regular;font-size:10.0px;stroke:none;">18</text>
   <text y="449.461" x="252.076" svgx:width="0.23" style="fill:rgb(0,0,0);font-family:MinionPro-Regular;font-size:10.0px;stroke:none;">,</text>
   <text y="449.461" x="254.326,259.076" svgx:width="0.48,0.48" style="fill:rgb(59,90,166);font-family:MinionPro-Regular;font-size:10.0px;stroke:none;">19</text>
   <text y="449.461" x="263.826,267.216,269.516,271.728,274.388,279.888,282.047,287.316,291.547,295.876,298.336,301.316,306.616,308.805,312.405,317.675,321.385,325.925,330.155,334.695,338.295,340.552" svgx:width="0.34,0.23,0.55,0.27,0.55,0.55,0.53,0.43,0.44,0.25,0.3,0.53,0.55,0.36,0.53,0.38,0.46,0.43,0.46,0.36,0.55,0.34" style="fill:rgb(0,0,0);font-family:MinionPro-Regular;font-size:10.0px;stroke:none;">], in health surveys [</text>
   <text y="449.461" x="343.943,348.693" svgx:width="0.48,0.48" style="fill:rgb(59,90,166);font-family:MinionPro-Regular;font-size:10.0px;stroke:none;">20</text>
   <text y="449.461" x="353.443" svgx:width="0.23" style="fill:rgb(0,0,0);font-family:MinionPro-Regular;font-size:10.0px;stroke:none;">,</text>
   <text y="449.461" x="355.693,360.443" svgx:width="0.48,0.48" style="fill:rgb(59,90,166);font-family:MinionPro-Regular;font-size:10.0px;stroke:none;">21</text>
   <text y="449.461" x="365.193,368.583,370.88300000000004,373.094,378.365,383.634,387.344,390.005,395.484,400.18399999999997,402.404,405.384,410.654,414.954,417.087,422.147,427.417,430.397,435.458,439.167,443.398,447.728,452.728,454.958,460.018,462.91799999999995,465.106,468.706,472.936,477.477,481.706,485.417,489.717,491.865,494.525,500.005,502.875,507.105,511.336,514.315,516.976,522.036,527.306,530.9060000000001,533.195,538.464,541.125,544.724,548.954,553.284,556.884,561.115" svgx:width="0.34,0.23,0.55,0.53,0.53,0.38,0.27,0.55,0.47,0.55,0.3,0.53,0.43,0.55,0.51,0.53,0.3,0.51,0.38,0.43,0.44,0.5,0.55,0.51,0.29,0.55,0.36,0.43,0.46,0.43,0.38,0.43,0.55,0.27,0.55,0.29,0.43,0.43,0.3,0.27,0.51,0.53,0.36,0.55,0.53,0.27,0.36,0.43,0.44,0.36,0.43,0.36" style="fill:rgb(0,0,0);font-family:MinionPro-Regular;font-size:10.0px;stroke:none;">], during the outbreak of severe infectious diseases</text>
   <text y="462.443" x="200.012" svgx:width="0.34" style="fill:rgb(0,0,0);font-family:MinionPro-Regular;font-size:10.0px;stroke:none;">[</text>
   <text y="462.443" x="203.402,208.152" svgx:width="0.48,0.48" style="fill:rgb(59,90,166);font-family:MinionPro-Regular;font-size:10.0px;stroke:none;">22</text>
   <text y="462.443" x="212.902" svgx:width="0.52" style="fill:rgb(0,0,0);font-family:MinionPro-Regular;font-size:10.0px;stroke:none;">–</text>
   <text y="462.443" x="218.063,222.813" svgx:width="0.48,0.48" style="fill:rgb(59,90,166);font-family:MinionPro-Regular;font-size:10.0px;stroke:none;">24</text>
   <text y="462.443" x="227.563,230.963,233.177,237.507,242.988,248.288,250.525,253.185,258.685,260.844,269.023,271.684,274.143,276.803,279.784,284.113,287.823,292.423,294.632,298.862,303.191,311.372,316.531,320.862,323.521,328.161,333.641,337.24100000000004,339.533" svgx:width="0.34,0.55,0.44,0.55,0.53,0.55,0.27,0.55,0.55,0.82,0.27,0.25,0.27,0.3,0.44,0.38,0.46,0.55,0.43,0.44,0.82,0.52,0.44,0.27,0.47,0.55,0.36,0.55,0.34" style="fill:rgb(0,0,0);font-family:MinionPro-Regular;font-size:10.0px;stroke:none;">] and in military campaigns [</text>
   <text y="462.443" x="342.922,347.672" svgx:width="0.48,0.48" style="fill:rgb(59,90,166);font-family:MinionPro-Regular;font-size:10.0px;stroke:none;">25</text>
   <text y="462.443" x="352.422,355.813" svgx:width="0.34,0.23" style="fill:rgb(0,0,0);font-family:MinionPro-Regular;font-size:10.0px;stroke:none;">].</text>
   <text y="475.482" x="211.975,219.435,224.704,228.50400000000002,230.682,239.592,245.383,250.133,255.503,259.003,263.803,266.003,271.372,275.703,280.803,282.953,291.133,295.364,299.594,302.574,306.17400000000004,308.409,311.388,316.659,320.959,323.148,326.859,331.089,336.148,341.419,344.078,347.789,352.018,360.199,364.429,369.909,372.889,376.48900000000003,378.763,383.824,386.724,388.911,393.971,399.452,402.952,406.552,409.212,412.192,416.492,418.676,422.906,427.966,430.426,432.885,437.116,441.346,444.326,446.986,452.046,457.526,459.826,462.044,464.705,468.305,473.365,475.825,480.155,483.135,485.795,490.855,496.335,498.635,500.823,505.052,510.323,512.783,515.763,518.423,522.963,527.292,530.273,532.932,537.992,543.492,545.78,550.109,555.59" svgx:width="0.75,0.53,0.38,0.55,0.89,0.58,0.48,0.54,0.35,0.48,0.55,0.54,0.44,0.51,0.55,0.82,0.43,0.43,0.3,0.36,0.55,0.3,0.53,0.43,0.55,0.38,0.43,0.51,0.53,0.27,0.38,0.43,0.82,0.43,0.55,0.3,0.36,0.55,0.51,0.29,0.55,0.51,0.55,0.35,0.36,0.27,0.3,0.43,0.55,0.43,0.51,0.25,0.25,0.43,0.43,0.3,0.27,0.51,0.55,0.23,0.55,0.27,0.36,0.51,0.25,0.44,0.3,0.27,0.51,0.55,0.23,0.55,0.43,0.53,0.25,0.3,0.27,0.46,0.44,0.3,0.27,0.51,0.55,0.55,0.44,0.55,0.53" style="fill:rgb(0,0,0);font-family:MinionPro-Regular;font-size:10.0px;stroke:none;">Our MBSL-3 Lab meets the requirements of on-site collection, isolation, cultivation and</text>
   <text y="488.465" x="200.013,205.283,209.513,212.493,216.723,220.953,223.933,226.593,231.653,237.153,239.357,244.417,247.317,249.505,253.735,261.915,266.145,269.855,274.495,278.725,284.205,287.205,289.473,292.133,297.613,300.483,304.713,308.943,311.923,314.583,319.643,324.913,328.51300000000003,330.802,335.962,340.292,343.272,348.542,353.602,358.242,362.472,367.952,371.552,373.85200000000003,376.043,382.143,387.413,390.073,393.673,395.942,398.402,402.732,407.792,412.852,416.562,420.892,423.872,428.932,432.642,437.242,439.425,443.755,446.215,449.815,454.915,457.113,462.273,465.983,471.043,474.023,478.253,482.483,485.463,489.06300000000005,491.299,496.569,501.839,510.019,514.349,519.829,523.429,525.711,530.041,533.6410000000001,535.859,542.689,546.919,549.379,551.879,554.058,558.388" svgx:width="0.53,0.43,0.3,0.43,0.43,0.3,0.27,0.51,0.55,0.55,0.51,0.29,0.55,0.43,0.82,0.43,0.38,0.47,0.43,0.55,0.3,0.55,0.27,0.55,0.29,0.43,0.43,0.3,0.27,0.51,0.53,0.36,0.55,0.52,0.44,0.3,0.53,0.51,0.47,0.43,0.55,0.36,0.23,0.55,0.61,0.53,0.27,0.36,0.55,0.25,0.44,0.51,0.51,0.38,0.44,0.3,0.51,0.38,0.46,0.55,0.44,0.25,0.36,0.51,0.55,0.52,0.38,0.51,0.3,0.43,0.43,0.3,0.36,0.55,0.53,0.53,0.82,0.44,0.55,0.36,0.55,0.44,0.36,0.55,0.69,0.43,0.25,0.25,0.55,0.44,0.36" style="fill:rgb(0,0,0);font-family:MinionPro-Regular;font-size:10.0px;stroke:none;">detection of emergent infectious pathogens. This laboratory also protects humans as well as</text>
   <text y="501.448" x="200.013,202.993,208.263,212.56300000000002,214.696,218.926,224.406,228.946,231.606,235.316,240.376,245.856,254.036,258.266,263.746,266.746,269.007,273.337,278.817,284.117,286.299,289.899,295.059,299.289,303.519,306.179,314.359,318.589,324.069,327.669,329.969,332.22,336.55,342.03,347.33,349.511,352.171,355.171,357.391,364.221,368.551,372.151,374.342,379.612,383.842,387.442,390.102,394.742,400.222,404.452,409.752,411.986,414.966,420.06600000000003,422.247,427.307,431.607,433.756,436.626,441.896,447.376,451.606,454.586,457.246,462.306,467.786,472.116,474.616,476.842,479.502,485.002,487.217,491.61699999999996,493.737,496.607,499.267,503.497,505.957,511.257,513.466,517.066,521.296,524.276,527.256,529.916,535.396,540.036,542.3359999999999,544.533,548.763,553.303,557.533" svgx:width="0.3,0.53,0.43,0.55,0.43,0.55,0.46,0.27,0.38,0.51,0.55,0.82,0.43,0.55,0.3,0.55,0.44,0.55,0.53,0.55,0.36,0.52,0.43,0.43,0.27,0.82,0.43,0.55,0.36,0.23,0.55,0.44,0.55,0.53,0.55,0.27,0.3,0.55,0.69,0.44,0.36,0.55,0.53,0.43,0.36,0.27,0.47,0.55,0.43,0.53,0.55,0.3,0.51,0.55,0.51,0.43,0.55,0.29,0.53,0.55,0.43,0.3,0.27,0.51,0.55,0.44,0.25,0.55,0.27,0.55,0.55,0.44,0.55,0.29,0.27,0.43,0.25,0.53,0.55,0.36,0.43,0.3,0.3,0.27,0.55,0.47,0.23,0.55,0.43,0.46,0.43,0.55" style="fill:rgb(0,0,0);font-family:MinionPro-Regular;font-size:10.0px;stroke:none;">the environment and specimens, and it was designed to be functional in a field setting, even</text>
   <text y="514.487" x="200.013,206.843,209.503,212.483,217.753,222.813,228.083,231.083,233.291,235.751,240.811,245.451,248.111,251.711,254.691,257.351,261.581,265.911,268.411,270.651,274.251,279.521,284.681,289.841,294.901,298.611,301.591,303.891,306.084,312.184,317.454,321.754,323.942,332.122,336.452,339.012,344.072,347.872,350.021,354.251,359.521,363.851,366.311,368.771,373.001,378.481,383.121,387.351,390.951,393.221,395.881,401.381,403.595,407.995,410.115,413.825,418.055,426.235,431.295,434.275,438.575,440.729,443.189,448.249,452.479,456.809,459.789,462.449,467.509,473.009,475.255,483.435,487.765,492.365,494.53,499.59,503.89,506.039,511.199,516.259,523.089,527.319,531.1189999999999,533.251,536.851,542.121,547.281,552.441,554.901" svgx:width="0.69,0.27,0.3,0.53,0.51,0.53,0.3,0.55,0.25,0.51,0.47,0.27,0.36,0.3,0.27,0.43,0.44,0.25,0.55,0.36,0.53,0.52,0.52,0.51,0.38,0.3,0.23,0.55,0.61,0.53,0.43,0.55,0.82,0.44,0.26,0.51,0.38,0.55,0.43,0.53,0.44,0.25,0.25,0.43,0.55,0.47,0.43,0.36,0.55,0.27,0.55,0.55,0.44,0.55,0.38,0.43,0.82,0.51,0.3,0.43,0.55,0.25,0.51,0.43,0.44,0.3,0.27,0.51,0.55,0.55,0.82,0.44,0.46,0.55,0.51,0.43,0.55,0.52,0.51,0.69,0.43,0.38,0.55,0.36,0.53,0.52,0.52,0.25,0.46" style="fill:rgb(0,0,0);font-family:MinionPro-Regular;font-size:10.0px;stroke:none;">without logistical support. The major challenges in a remote location may be power supply</text>
   <text y="527.469" x="200.013,204.343,209.823,215.12300000000002,217.304,224.134,228.464,231.444,235.674,239.47400000000002,241.625,245.225,250.495,255.655,260.815,263.275,267.815,270.115,272.296,277.356,282.626,285.626,287.829,290.809,296.079,300.309,304.019,308.319,310.506,314.836,318.546,322.846,324.963,331.793,336.123,340.663,344.26300000000003,346.506,349.486,354.586,356.767,361.827,366.367,370.597,374.307,378.537,383.597,391.777,396.077,398.266,401.246,406.516,410.746,418.926,421.226,423.438,429.538,434.808,439.038,442.748,447.048,449.176,456.006,460.336,463.93600000000004,466.184,470.514,476.014,478.203,482.953,487.703,492.663,499.593,506.493,508.647" svgx:width="0.44,0.55,0.53,0.55,0.69,0.44,0.3,0.43,0.38,0.55,0.36,0.53,0.52,0.52,0.25,0.46,0.23,0.55,0.51,0.53,0.3,0.55,0.3,0.53,0.43,0.38,0.43,0.55,0.44,0.38,0.43,0.55,0.69,0.44,0.46,0.36,0.55,0.3,0.51,0.55,0.51,0.46,0.43,0.38,0.43,0.51,0.82,0.43,0.55,0.3,0.53,0.43,0.82,0.23,0.55,0.61,0.53,0.43,0.38,0.43,0.55,0.69,0.44,0.36,0.55,0.44,0.55,0.55,0.48,0.48,0.5,0.7,0.69,0.55,0.34" style="fill:rgb(0,0,0);font-family:MinionPro-Regular;font-size:10.0px;stroke:none;">and water supply, but there are ways to overcome them. There was an 80kVA (</text>
   <text y="527.469" code="25" x="512.037" svgx:width="0.77" style="fill:rgb(0,0,0);font-family:TeX_CM_Maths_Symbols;font-size:10.0px;stroke:none;">?</text>
   <text y="527.469" x="519.737,524.487,529.237,534.197,543.837,547.237,549.522,554.792,557.452,561.682,565.282,569.512" svgx:width="0.48,0.48,0.5,0.97,0.34,0.55,0.53,0.27,0.43,0.36,0.43,0.25" style="fill:rgb(0,0,0);font-family:MinionPro-Regular;font-size:10.0px;stroke:none;">70kW) diesel</text>
   <text y="540.453" x="200.013,204.653,208.883,214.363,218.593,222.303,226.633,229.613,232.273,237.753,242.45299999999997,244.63,248.23,252.46,255.46,257.669,260.329,265.829,268.044,271.024,276.294,280.594,282.727,287.057,292.327,296.967,299.627,302.087,304.747,309.077,312.787,317.387,319.634,323.864,328.924,334.404,337.384,341.714,344.374,349.854,354.084,357.884,359.999,365.059,367.959,370.147,373.127,378.397,382.697,384.887,393.797,399.587,404.337,409.707,413.207,418.007,420.206,425.576,429.906,434.966,437.266,439.425,444.695,449.965,452.425,454.925,457.113,459.983,465.253,469.483,471.983,474.178,476.838,482.338,484.552,487.532,492.802,497.10200000000003,499.236,504.296,506.956,509.456,511.651,516.711,521.771,526.471,528.603,532.833,537.163,542.663,544.873,550.033,555.093,561.923,566.153" svgx:width="0.47,0.43,0.55,0.43,0.38,0.44,0.3,0.27,0.55,0.47,0.55,0.36,0.43,0.3,0.55,0.27,0.55,0.55,0.3,0.53,0.43,0.55,0.44,0.53,0.47,0.27,0.25,0.27,0.44,0.38,0.46,0.55,0.43,0.51,0.55,0.3,0.44,0.27,0.55,0.43,0.38,0.55,0.51,0.29,0.55,0.3,0.53,0.43,0.55,0.89,0.58,0.48,0.54,0.35,0.48,0.55,0.54,0.44,0.51,0.23,0.55,0.53,0.53,0.25,0.25,0.55,0.29,0.53,0.43,0.25,0.55,0.27,0.55,0.55,0.3,0.53,0.43,0.55,0.51,0.27,0.25,0.55,0.51,0.51,0.47,0.55,0.43,0.44,0.55,0.55,0.52,0.51,0.69,0.43,0.38" style="fill:rgb(0,0,0);font-family:MinionPro-Regular;font-size:10.0px;stroke:none;">generating set in the auxiliary container of the MBSL-3 Lab. Full fuel in the oil box can power</text>
   <text y="553.491" x="200.013,202.993,208.263,212.56300000000002,214.696,223.606,229.396,234.146,239.516,243.016,247.816,250.015,255.385,259.715,264.815,267.023,269.683,275.183,277.341,281.571,286.631,292.111,295.091,297.751,303.231,308.501,313.561,318.831,322.43100000000004,324.736,329.796,334.956,339.186,342.896,347.226,350.206,352.866,357.926,363.426,365.668,368.538,373.598,377.398,379.558,384.308,389.058,394.328,396.628,398.777,408.417,412.717,414.877,419.107,423.437,428.937,431.148,436.208,439.918,442.578,448.058,452.758,454.902,459.232,462.83200000000005,465.05,473.23,478.5,482.73,488.03000000000003,490.278,493.148,498.418,502.648,505.148,507.286,514.116,516.776,519.756,525.0559999999999,527.299,532.569,536.169,538.354,542.684,546.284,548.502,553.662,558.722,562.322,565.922,568.582" svgx:width="0.3,0.53,0.43,0.55,0.89,0.58,0.48,0.54,0.35,0.48,0.55,0.54,0.44,0.51,0.55,0.27,0.55,0.55,0.43,0.51,0.55,0.3,0.27,0.55,0.53,0.51,0.53,0.36,0.55,0.51,0.52,0.43,0.38,0.44,0.3,0.27,0.51,0.55,0.55,0.29,0.51,0.38,0.55,0.48,0.48,0.53,0.23,0.55,0.97,0.43,0.55,0.43,0.44,0.55,0.55,0.51,0.38,0.27,0.55,0.47,0.55,0.44,0.36,0.55,0.82,0.53,0.43,0.53,0.55,0.29,0.53,0.43,0.25,0.55,0.69,0.27,0.3,0.53,0.55,0.53,0.36,0.55,0.44,0.36,0.55,0.52,0.51,0.36,0.36,0.27,0.35" style="fill:rgb(0,0,0);font-family:MinionPro-Regular;font-size:10.0px;stroke:none;">the MBSL-3 Lab in continuous operation for 24h. We can bring as much fuel with us as possi-</text>
   <text y="566.474" x="200.013,205.073,207.533,211.833,213.959,219.229,222.829,225.489,230.969,235.66899999999998,237.883,242.943,245.603,248.103,250.242,253.222,257.552,263.032,267.992,271.592,273.892,276.094,280.424,285.904,291.204,293.385,300.215,305.485,309.715,313.425,317.655,322.195,326.425,330.225,332.39,335.37,340.64,344.94,347.073,355.983,361.773,366.523,371.893,375.393,380.193,382.449,387.819,392.149,397.249,399.4,403.63,407.96,413.46,415.671,420.001,423.711,427.421,430.081,434.621,438.851,441.151,443.337,447.73699999999997,449.913,453.623,457.853,460.723,465.993,470.223,472.683,475.343,480.823,485.52299999999997,487.671,490.651,494.361,499.631,503.861,508.861,511.085,515.315,520.375,525.645,528.105,533.405,535.576,539.906,542.366,545.966" svgx:width="0.51,0.25,0.43,0.55,0.53,0.36,0.27,0.55,0.47,0.55,0.51,0.27,0.25,0.55,0.3,0.44,0.55,0.5,0.36,0.23,0.55,0.44,0.55,0.53,0.55,0.69,0.53,0.43,0.38,0.43,0.46,0.43,0.38,0.55,0.3,0.53,0.43,0.55,0.89,0.58,0.48,0.54,0.35,0.48,0.55,0.54,0.44,0.51,0.55,0.43,0.44,0.55,0.55,0.44,0.38,0.38,0.27,0.46,0.43,0.23,0.55,0.44,0.55,0.38,0.43,0.29,0.53,0.43,0.25,0.27,0.55,0.47,0.55,0.3,0.38,0.53,0.43,0.5,0.55,0.43,0.51,0.53,0.25,0.53,0.55,0.44,0.25,0.36,0.51" style="fill:rgb(0,0,0);font-family:MinionPro-Regular;font-size:10.0px;stroke:none;">ble using oil tanks, and wherever the MBSL-3 Lab can arrive, a refueling truck could also</text>
   <text y="579.458" x="200.013,204.343,208.053,211.763,214.423,218.963,223.193,225.49300000000002,227.678,233.778,239.048,243.348,245.48,254.39,260.18,264.93,270.3,273.8,278.6,280.799,286.169,290.499,295.59900000000005,297.807,300.467,304.067,306.311,310.641,313.101,316.701,321.80100000000004,323.999,328.229,333.289,338.559,341.219,346.379,351.539,355.769,361.069,363.287,370.117,372.777,375.757,381.057,383.243,387.643,389.819,396.649,400.979,403.959,408.189,411.98900000000003,414.084,417.684,420.664,425.724,429.434,433.764,438.404,442.704,444.924,447.904,452.234,457.714,462.714,464.88,469.21,474.69,479.99,482.171,486.57099999999997,488.748,495.578,499.908,502.888,507.118,510.918,513.012,516.612,521.672,524.542,527.522,531.752,537.232,541.462,545.172,547.472,549.692,554.022,559.502" svgx:width="0.44,0.38,0.38,0.27,0.46,0.43,0.23,0.55,0.61,0.53,0.43,0.55,0.89,0.58,0.48,0.54,0.35,0.48,0.55,0.54,0.44,0.51,0.55,0.27,0.36,0.55,0.44,0.25,0.36,0.51,0.55,0.43,0.51,0.53,0.27,0.52,0.52,0.43,0.53,0.55,0.69,0.27,0.3,0.53,0.55,0.44,0.55,0.69,0.44,0.3,0.43,0.38,0.55,0.36,0.3,0.51,0.38,0.44,0.47,0.43,0.55,0.3,0.44,0.55,0.5,0.55,0.44,0.55,0.53,0.55,0.44,0.55,0.69,0.44,0.3,0.43,0.38,0.55,0.36,0.51,0.29,0.3,0.43,0.55,0.43,0.38,0.23,0.55,0.44,0.55,0.53" style="fill:rgb(0,0,0);font-family:MinionPro-Regular;font-size:10.0px;stroke:none;">arrive. The MBSL-3 Lab is also equipped with a water storage tank and a water softener, and</text>
   <text y="592.496" x="200.013,206.843,211.173,214.153,218.383,222.18300000000002,224.334,228.564,232.894,238.394,240.548,245.608,249.90800000000002,252.056,255.766,259.996,263.496,267.096,272.366,277.526,282.686,285.146,287.806,292.036,297.336,299.621,306.451,309.111,312.091,317.391,319.577,326.407,330.737,333.717,337.947,341.747,343.898,346.768,350.478,355.538,365.952,370.352,372.471,379.301,383.531,385.991,388.491,390.67,395.73,399.53000000000003,401.668,405.898,408.358,412.588,416.918,420.718,422.871,426.471,429.451,433.161,437.391,441.721,449.901,452.201,454.392,457.782,460.68199999999996,462.896,465.876,471.146,475.446,477.579,481.809,486.449,491.609,495.839,499.549,502.209,510.389,514.619,520.099,523.079,527.309,531.019,534.619,536.936,541.166,546.226,551.496,553.956,559.256,561.428,566.698" svgx:width="0.69,0.44,0.3,0.43,0.38,0.55,0.43,0.44,0.55,0.55,0.51,0.43,0.55,0.38,0.43,0.35,0.36,0.53,0.52,0.52,0.25,0.27,0.43,0.53,0.55,0.69,0.27,0.3,0.53,0.55,0.69,0.44,0.3,0.43,0.38,0.55,0.29,0.38,0.51,0.82,0.44,0.55,0.69,0.43,0.25,0.25,0.55,0.51,0.38,0.55,0.43,0.25,0.43,0.44,0.38,0.55,0.36,0.3,0.38,0.43,0.44,0.82,0.23,0.55,0.34,0.29,0.55,0.3,0.53,0.43,0.55,0.43,0.47,0.52,0.43,0.38,0.27,0.82,0.43,0.55,0.3,0.43,0.38,0.36,0.55,0.43,0.51,0.53,0.25,0.53,0.55,0.53,0.51" style="fill:rgb(0,0,0);font-family:MinionPro-Regular;font-size:10.0px;stroke:none;">water can be re-supplied with water froma well or clear stream. If the experimenters could do</text>
  </g>
  <path style="fill:rgb(155,154,156);stroke:none;stroke-width:1.0;" d="M576.000 416.120 L200.000 416.120 L200.000 415.620 L576.000 415.620 "/>
  <path style="fill:rgb(59,90,166);stroke:none;stroke-width:1.0;" d="M200.010 429.220 L351.210 429.220 Z"/>
  <rect style="stroke:blue;stroke-width:0.3;" x="200.013" y="86.009" height="321.052" width="323.943" title="11"/>
  <text y="86.009" class="image" id="image.11.1" width="323" height="321" x="200.013">image.11.1.200_524.86_407</text>
  <g begin="text">
   <text y="412.611" x="200.012,204.884,207.092,211.972,213.675,218.051,220.291,222.916,228.62,230.828,235.204,240.076,244.948,249.82,254.097,256.721,258.929,263.32899999999995,265.039,269.415,271.623,276.495,281.367,284.407,286.615,289.239,294.111,302.853,305.477,310.349,313.389,315.098,317.306,321.682,326.554,331.426,334.466,338.842,341.466,346.338,349.284,353.68399999999997,355.407,358.031,362.406,366.782,369.406,371.614,376.486,381.358" svgx:width="0.61,0.28,0.61,0.55,0.55,0.28,0.55,0.72,0.28,0.55,0.61,0.61,0.61,0.55,0.33,0.28,0.55,0.55,0.55,0.28,0.61,0.61,0.38,0.28,0.33,0.61,0.88,0.33,0.61,0.38,0.55,0.28,0.55,0.61,0.61,0.38,0.55,0.33,0.61,0.38,0.55,0.55,0.33,0.55,0.55,0.33,0.28,0.61,0.61,0.28" style="fill:rgb(0,0,0);font-family:Helvetica-Bold;font-size:8.0px;stroke:none;">Fig 5. Diagnostic algorithmfor laboratory testing.</text>
   <text y="428.145" x="200.012,203.812,205.86,207.908,211.708,215.084,216.884,218.932,220.98,224.674,228.474,230.018,231.818,235.618,238.082,241.882,243.93,247.729,251.529,253.329,257.129,260.929,264.729,268.529,270.577,272.012,275.812,279.612,282.075,285.875,289.251,290.795,292.595,296.395,300.195,302.243,305.914,307.714,311.514,315.313,319.113,322.913,326.713,330.513,334.313,336.113,339.913,343.713,347.513" svgx:width="0.5,0.28,0.28,0.5,0.45,0.25,0.28,0.28,0.5,0.5,0.22,0.25,0.5,0.33,0.5,0.28,0.5,0.5,0.25,0.5,0.5,0.5,0.5,0.28,0.22,0.5,0.5,0.33,0.5,0.45,0.22,0.25,0.5,0.5,0.28,0.5,0.25,0.5,0.5,0.5,0.5,0.5,0.5,0.5,0.25,0.5,0.5,0.5,0.5" style="fill:rgb(59,90,166);font-family:Helvetica-Condensed;font-size:8.0px;stroke:none;">https://doi.org/10.1371/journal.pntd.0005622.g005</text>
  </g>
  <path style="fill:rgb(191,191,191);stroke:none;stroke-width:1.0;" d="M36.000 637.750 L151.600 637.750 L151.600 650.250 L36.000 650.250 "/>
  <path style="fill:rgb(191,191,191);stroke:none;stroke-width:1.0;" d="M151.600 637.750 L296.540 637.750 L296.540 650.250 L151.600 650.250 "/>
  <path style="fill:rgb(191,191,191);stroke:none;stroke-width:1.0;" d="M296.540 637.750 L462.640 637.750 L462.640 650.250 L296.540 650.250 "/>
  <path style="fill:rgb(191,191,191);stroke:none;stroke-width:1.0;" d="M462.640 637.750 L576.000 637.750 L576.000 650.250 L462.640 650.250 "/>
  <path style="fill:rgb(191,191,191);stroke:none;stroke-width:1.0;" d="M36.000 662.750 L151.600 662.750 L151.600 675.250 L36.000 675.250 "/>
  <path style="fill:rgb(191,191,191);stroke:none;stroke-width:1.0;" d="M151.600 662.750 L296.540 662.750 L296.540 675.250 L151.600 675.250 "/>
  <path style="fill:rgb(191,191,191);stroke:none;stroke-width:1.0;" d="M296.540 662.750 L462.640 662.750 L462.640 675.250 L296.540 675.250 "/>
  <path style="fill:rgb(191,191,191);stroke:none;stroke-width:1.0;" d="M462.640 662.750 L576.000 662.750 L576.000 675.250 L462.640 675.250 "/>
  <path style="fill:rgb(155,154,156);stroke:none;stroke-width:1.0;" d="M36.000 624.750 L576.000 624.750 L576.000 625.250 L36.000 625.250 "/>
  <path style="fill:rgb(155,154,156);stroke:none;stroke-width:1.0;" d="M151.600 625.250 L151.600 637.750 L151.100 637.750 L151.100 625.250 "/>
  <path style="fill:rgb(155,154,156);stroke:none;stroke-width:1.0;" d="M151.100 637.750 L36.000 637.750 L36.000 637.250 L151.100 637.250 "/>
  <path style="fill:rgb(155,154,156);stroke:none;stroke-width:1.0;" d="M296.540 625.250 L296.540 637.750 L296.040 637.750 L296.040 625.250 "/>
  <path style="fill:rgb(155,154,156);stroke:none;stroke-width:1.0;" d="M296.040 637.750 L151.600 637.750 L151.600 637.250 L296.040 637.250 "/>
  <path style="fill:rgb(155,154,156);stroke:none;stroke-width:1.0;" d="M462.640 625.250 L462.640 637.750 L462.140 637.750 L462.140 625.250 "/>
  <path style="fill:rgb(155,154,156);stroke:none;stroke-width:1.0;" d="M462.140 637.750 L296.540 637.750 L296.540 637.250 L462.140 637.250 "/>
  <path style="fill:rgb(155,154,156);stroke:none;stroke-width:1.0;" d="M576.000 637.750 L462.640 637.750 L462.640 637.250 L576.000 637.250 "/>
  <path style="fill:rgb(155,154,156);stroke:none;stroke-width:1.0;" d="M151.600 637.750 L151.600 650.250 L151.100 650.250 L151.100 637.750 "/>
  <path style="fill:rgb(155,154,156);stroke:none;stroke-width:1.0;" d="M151.100 650.250 L36.000 650.250 L36.000 649.750 L151.100 649.750 "/>
  <path style="fill:rgb(155,154,156);stroke:none;stroke-width:1.0;" d="M296.540 637.750 L296.540 650.250 L296.040 650.250 L296.040 637.750 "/>
  <path style="fill:rgb(155,154,156);stroke:none;stroke-width:1.0;" d="M296.040 650.250 L151.600 650.250 L151.600 649.750 L296.040 649.750 "/>
  <path style="fill:rgb(155,154,156);stroke:none;stroke-width:1.0;" d="M462.640 637.750 L462.640 650.250 L462.140 650.250 L462.140 637.750 "/>
  <path style="fill:rgb(155,154,156);stroke:none;stroke-width:1.0;" d="M462.140 650.250 L296.540 650.250 L296.540 649.750 L462.140 649.750 "/>
  <path style="fill:rgb(155,154,156);stroke:none;stroke-width:1.0;" d="M576.000 650.250 L462.640 650.250 L462.640 649.750 L576.000 649.750 "/>
  <path style="fill:rgb(155,154,156);stroke:none;stroke-width:1.0;" d="M151.600 650.250 L151.600 662.750 L151.100 662.750 L151.100 650.250 "/>
  <path style="fill:rgb(155,154,156);stroke:none;stroke-width:1.0;" d="M151.100 662.750 L36.000 662.750 L36.000 662.250 L151.100 662.250 "/>
  <path style="fill:rgb(155,154,156);stroke:none;stroke-width:1.0;" d="M296.540 650.250 L296.540 662.750 L296.040 662.750 L296.040 650.250 "/>
  <path style="fill:rgb(155,154,156);stroke:none;stroke-width:1.0;" d="M296.040 662.750 L151.600 662.750 L151.600 662.250 L296.040 662.250 "/>
  <path style="fill:rgb(155,154,156);stroke:none;stroke-width:1.0;" d="M462.640 650.250 L462.640 662.750 L462.140 662.750 L462.140 650.250 "/>
  <path style="fill:rgb(155,154,156);stroke:none;stroke-width:1.0;" d="M462.140 662.750 L296.540 662.750 L296.540 662.250 L462.140 662.250 "/>
  <path style="fill:rgb(155,154,156);stroke:none;stroke-width:1.0;" d="M576.000 662.750 L462.640 662.750 L462.640 662.250 L576.000 662.250 "/>
  <path style="fill:rgb(155,154,156);stroke:none;stroke-width:1.0;" d="M151.600 662.750 L151.600 675.250 L151.100 675.250 L151.100 662.750 "/>
  <path style="fill:rgb(155,154,156);stroke:none;stroke-width:1.0;" d="M151.100 675.250 L36.000 675.250 L36.000 674.750 L151.100 674.750 "/>
  <path style="fill:rgb(155,154,156);stroke:none;stroke-width:1.0;" d="M296.540 662.750 L296.540 675.250 L296.040 675.250 L296.040 662.750 "/>
  <path style="fill:rgb(155,154,156);stroke:none;stroke-width:1.0;" d="M296.040 675.250 L151.600 675.250 L151.600 674.750 L296.040 674.750 "/>
  <path style="fill:rgb(155,154,156);stroke:none;stroke-width:1.0;" d="M462.640 662.750 L462.640 675.250 L462.140 675.250 L462.140 662.750 "/>
  <path style="fill:rgb(155,154,156);stroke:none;stroke-width:1.0;" d="M462.140 675.250 L296.540 675.250 L296.540 674.750 L462.140 674.750 "/>
  <path style="fill:rgb(155,154,156);stroke:none;stroke-width:1.0;" d="M576.000 675.250 L462.640 675.250 L462.640 674.750 L576.000 674.750 "/>
  <path style="fill:rgb(155,154,156);stroke:none;stroke-width:1.0;" d="M576.000 697.000 L36.000 697.000 L36.000 696.500 L576.000 696.500 "/>
  <path style="fill:rgb(59,90,166);stroke:none;stroke-width:1.0;" d="M36.000 710.080 L185.440 710.080 Z"/>
  <g begin="text">
   <text y="619.937" x="36.0,40.872,45.248,50.12,52.328,56.728,58.393,62.769,65.009,68.484,73.772,78.148,85.188,90.06,92.268,96.644,101.04400000000001,102.727,107.103,111.975,116.85499999999999,118.544,121.168,125.544,129.92,132.55999999999997,134.248,137.288,141.663,146.039,150.911,153.119,155.743,160.143,161.858,164.482,167.522,172.393,181.133,186.421,190.796,195.668,198.292,202.668,209.708,214.468,218.844,221.884,223.652,228.028,232.428,234.141,236.765,241.64499999999998,243.381,249.085,253.957,258.333,262.709,269.749,274.506,278.882,281.922,283.69,288.066,292.442,294.682,296.389,300.765,305.141,309.517,313.893" svgx:width="0.61,0.55,0.61,0.28,0.55,0.55,0.55,0.28,0.55,0.67,0.55,0.88,0.61,0.28,0.55,0.55,0.55,0.55,0.61,0.61,0.55,0.33,0.55,0.55,0.33,0.55,0.38,0.55,0.55,0.61,0.28,0.33,0.55,0.55,0.33,0.38,0.61,0.88,0.67,0.55,0.61,0.33,0.55,0.88,0.61,0.55,0.38,0.55,0.55,0.55,0.55,0.33,0.61,0.55,0.72,0.61,0.55,0.55,0.88,0.61,0.55,0.38,0.55,0.55,0.55,0.28,0.55,0.55,0.55,0.55,0.55,0.28" style="fill:rgb(0,0,0);font-family:Helvetica-Bold;font-size:8.0px;stroke:none;">Table 2. Samples and test results fromSeptember 28 to November 11, 2014.</text>
   <text y="634.734" x="36.0,41.328,45.744,52.824,57.736,59.984,64.4,68.80000000000001,153.58,158.492,163.404,166.068,170.484,172.72400000000002,174.557,178.973,183.389,190.468,195.38,197.628,201.939,206.339,208.175,210.839,215.255,219.671,222.335,226.751,231.631,298.543,303.871,308.783,313.199,315.447,318.111,320.359,324.679,329.095,331.343,337.087,341.503,346.414,350.83,353.494,355.742,360.158,364.477,366.725,372.053,376.964,381.38,386.292,390.708,395.124,397.764,464.653,469.981,474.893,479.309,481.557,484.221,486.469,490.788,495.188,497.025,500.105,504.52,507.184" svgx:width="0.67,0.55,0.88,0.61,0.28,0.55,0.55,0.55,0.61,0.61,0.33,0.55,0.28,0.55,0.55,0.55,0.88,0.61,0.28,0.55,0.55,0.55,0.33,0.55,0.55,0.33,0.55,0.61,0.55,0.67,0.61,0.55,0.28,0.33,0.28,0.55,0.55,0.28,0.72,0.55,0.61,0.55,0.33,0.28,0.55,0.55,0.28,0.67,0.61,0.55,0.61,0.55,0.55,0.33,0.55,0.67,0.61,0.55,0.28,0.33,0.28,0.55,0.55,0.55,0.38,0.55,0.33,0.55" style="fill:rgb(0,0,0);font-family:Helvetica-Bold;font-size:8.0px;stroke:none;">Samples Total samples tested Positive/Negative/Suspect Positive rate</text>
   <text y="647.262" x="36.0,41.328,43.072,47.488,51.904,56.304,58.11,62.11,66.526,73.19,77.606,79.35,83.766,87.766,154.601,159.017,161.265,165.681,170.097,174.497,299.564,303.98,308.396,312.812,315.06,319.476,323.772,328.188,330.435,334.851,339.251,465.616,470.032,474.448,476.696,481.112" svgx:width="0.67,0.22,0.55,0.55,0.55,0.55,0.5,0.55,0.83,0.55,0.22,0.55,0.5,0.55,0.55,0.28,0.55,0.55,0.55,0.55,0.55,0.55,0.55,0.28,0.55,0.55,0.55,0.28,0.55,0.55,0.55,0.55,0.55,0.28,0.55,0.88" style="fill:rgb(0,0,0);font-family:Helvetica;font-size:8.0px;stroke:none;">Blood samples 1,131 613/446/72 54.2%</text>
   <text y="659.735" x="36.0,41.328,47.072,51.488,55.888,57.712,61.712,66.128,72.792,77.208,78.952,83.368,87.368,154.601,159.017,163.433,167.833,299.564,303.98,308.396,312.812,315.06,319.476,323.772,328.188,330.435,334.851,339.251,465.616,470.032,474.448,476.696,481.112" svgx:width="0.67,0.72,0.55,0.55,0.55,0.5,0.55,0.83,0.55,0.22,0.55,0.5,0.55,0.55,0.55,0.55,0.55,0.55,0.55,0.55,0.28,0.55,0.55,0.55,0.28,0.55,0.55,0.55,0.55,0.55,0.28,0.55,0.88" style="fill:rgb(0,0,0);font-family:Helvetica;font-size:8.0px;stroke:none;">Swab samples 504 211/280/13 41.9%</text>
   <text y="672.264" x="36.0,40.912,45.328,47.576,51.992,53.751999999999995,154.601,159.017,161.265,165.681,170.097,174.497,299.564,303.98,308.396,312.812,315.06,319.476,323.772,328.188,330.435,334.851,339.251,465.616,470.032,474.448,476.696,481.112" svgx:width="0.61,0.55,0.28,0.55,0.22,0.55,0.55,0.28,0.55,0.55,0.55,0.55,0.55,0.55,0.55,0.28,0.55,0.55,0.55,0.28,0.55,0.55,0.55,0.55,0.55,0.28,0.55,0.88" style="fill:rgb(0,0,0);font-family:Helvetica;font-size:8.0px;stroke:none;">Total 1,635 824/726/85 50.4%</text>
   <text y="690.972" x="36.0,40.912,45.328,49.728,51.533,55.949,60.365,64.365,66.109,68.357,70.101,74.101,78.501,80.276,82.94,87.356,89.604,94.004,95.867,101.611,106.027,110.027,111.797,116.213,120.629,124.629,129.045,133.461,137.86100000000002,139.634,144.05,148.05,149.895,152.143,156.559,160.959,162.764,167.18,171.596,178.26,182.676,187.092,189.732,191.508,195.924,198.16400000000002,200.012,204.427,208.843,212.843,214.587,216.835,218.579,222.579,226.979,228.754,232.754,237.17,241.17,245.586,249.586,251.375,255.791,257.535,261.535,263.279,267.695,272.111,276.51099999999997,278.304,282.72,286.72,288.509,290.757,295.173,299.573,301.434,303.682,308.098,310.346,314.762,316.522,318.272,322.688,327.104,333.768,338.184,342.6,345.24,347.072,351.488,353.728,355.519,359.519,363.935,370.599,375.015,376.759,381.175,385.175" svgx:width="0.61,0.55,0.55,0.55,0.55,0.55,0.5,0.22,0.28,0.22,0.5,0.55,0.55,0.33,0.55,0.28,0.55,0.55,0.72,0.55,0.5,0.55,0.55,0.55,0.5,0.55,0.55,0.55,0.55,0.55,0.5,0.55,0.28,0.55,0.55,0.55,0.55,0.55,0.83,0.55,0.55,0.33,0.55,0.55,0.28,0.55,0.55,0.55,0.5,0.22,0.28,0.22,0.5,0.55,0.55,0.5,0.55,0.5,0.55,0.5,0.55,0.55,0.22,0.5,0.22,0.55,0.55,0.55,0.55,0.55,0.5,0.55,0.28,0.55,0.55,0.55,0.28,0.55,0.28,0.55,0.22,0.55,0.55,0.55,0.83,0.55,0.55,0.33,0.55,0.55,0.28,0.55,0.5,0.55,0.83,0.55,0.22,0.55,0.5,0.28" style="fill:rgb(0,0,0);font-family:Helvetica;font-size:8.0px;stroke:none;">The positive rate was deﬁned as the number of positive cases divided by the total number of samples.</text>
   <text y="709.001" x="36.0,39.8,41.848,43.896,47.696,51.072,52.872,54.92,56.968,60.768,64.46,66.004,67.804,71.604,74.067,77.867,79.915,83.715,87.515,89.315,93.115,96.915,100.715,104.515,106.563,107.999,111.799,115.599,118.063,121.863,125.239,126.783,128.583,132.383,136.183,138.231,142.031,143.715,147.515,151.315,155.115,158.915,162.715,166.515,170.315,172.115,174.163,177.845,181.645" svgx:width="0.5,0.28,0.28,0.5,0.45,0.25,0.28,0.28,0.5,0.5,0.22,0.25,0.5,0.33,0.5,0.28,0.5,0.5,0.25,0.5,0.5,0.5,0.5,0.28,0.22,0.5,0.5,0.33,0.5,0.45,0.22,0.25,0.5,0.5,0.28,0.5,0.25,0.5,0.5,0.5,0.5,0.5,0.5,0.5,0.25,0.28,0.5,0.5,0.5" style="fill:rgb(59,90,166);font-family:Helvetica-Condensed;font-size:8.0px;stroke:none;">https://doi.org/10.1371/journal.pntd.0005622.t002</text>
  </g>
  <path style="fill:rgb(0,0,0);stroke:none;stroke-width:1.0;" d="M576.000 54.900 L36.000 54.900 L36.000 54.400 L576.000 54.400 "/>
  <rect style="stroke:blue;stroke-width:0.3;" x="36.0" y="35.043" height="23.64" width="183.232" title="11"/>
  <text y="35.043" class="image" id="image.11.2" width="183" height="23" x="36.0">image.11.2.36_219.35_59</text>
  <g begin="text">
   <text y="46.205" x="334.318,340.942,346.23,351.518,355.894,358.518,362.91799999999995,364.591,366.295,370.671,375.07099999999997,376.781,379.405,383.781,387.741,392.117,396.493,400.868,404.828,409.22799999999995,410.853,413.061,417.46099999999996,419.187,421.395,425.771,430.171,431.886,436.262,440.638,445.014,449.414,451.105,456.393,460.769,465.144,466.848,471.248,472.932,476.892,478.596,481.219,485.595,489.595,491.299,495.675,500.051,502.259,506.635,509.259,513.523,517.899,521.899,523.614,525.318,529.718,531.438,536.726,538.43,542.806,545.43,548.054,552.454,554.172,558.548,562.924,567.3,571.676" svgx:width="0.83,0.67,0.67,0.55,0.33,0.55,0.55,0.22,0.55,0.55,0.55,0.33,0.55,0.5,0.55,0.55,0.55,0.5,0.55,0.55,0.28,0.55,0.55,0.28,0.55,0.55,0.55,0.55,0.55,0.55,0.55,0.55,0.67,0.55,0.55,0.22,0.55,0.55,0.5,0.22,0.33,0.55,0.5,0.55,0.55,0.55,0.28,0.55,0.33,0.55,0.55,0.5,0.55,0.22,0.55,0.55,0.67,0.22,0.55,0.33,0.33,0.55,0.55,0.55,0.55,0.55,0.55,0.55" style="fill:rgb(0,0,0);font-family:Helvetica;font-size:8.0px;stroke:none;">MBSL-3 lab response to the 2014 Ebola virus outbreak in Sierra Leone</text>
  </g>
  <path style="fill:rgb(0,0,0);stroke:none;stroke-width:1.0;" d="M36.000 744.000 L576.000 744.000 L576.000 744.500 L36.000 744.500 "/>
  <path style="fill:rgb(59,90,166);stroke:none;stroke-width:1.0;" d="M163.560 757.080 L317.710 757.080 Z"/>
  <g begin="text">
   <text y="756.0" x="36.0,41.288,45.664,51.872,57.232,58.847,64.551,68.927,73.303,75.007,79.383,83.343,85.551,89.927,94.32700000000001,95.98,100.852,103.476,107.852,112.228,113.932,117.892,122.268,124.028,125.688,131.392,133.096,137.056,141.431,145.807,149.767,154.034,158.034,159.76" svgx:width="0.67,0.55,0.78,0.67,0.55,0.72,0.55,0.55,0.22,0.55,0.5,0.28,0.55,0.55,0.55,0.61,0.33,0.55,0.55,0.22,0.5,0.55,0.22,0.55,0.72,0.22,0.5,0.55,0.55,0.5,0.55,0.5,0.55,0.26" style="fill:rgb(0,0,0);font-family:Helvetica;font-size:8.0px;stroke:none;">PLOS Neglected Tropical Diseases |</text>
   <text y="756.0" x="163.558,167.934,170.142,172.35,176.726,180.686,182.894,185.102,187.31,191.686,196.062,197.766,199.974,204.35,206.871,211.247,213.455,217.831,222.207,224.415,228.791,233.167,237.429,241.805,244.013,245.717,250.093,254.468,257.092,261.468,265.844,267.548,269.756,274.132,278.418,280.626,285.002,287.21,291.586,295.962,300.338,304.713,308.975,313.351" svgx:width="0.55,0.28,0.28,0.55,0.5,0.28,0.28,0.28,0.55,0.55,0.22,0.28,0.55,0.33,0.55,0.28,0.55,0.55,0.28,0.55,0.55,0.55,0.55,0.28,0.22,0.55,0.55,0.33,0.55,0.55,0.22,0.28,0.55,0.55,0.28,0.55,0.28,0.55,0.55,0.55,0.55,0.55,0.55,0.55" style="fill:rgb(59,90,166);font-family:Helvetica;font-size:8.0px;stroke:none;">https://doi.org/10.1371/journal.pntd.0005622</text>
   <text y="756.0" x="325.699,332.323,336.699,340.699,342.367,346.743,351.118,353.358,355.066,359.442,363.818,368.193,372.59299999999996,552.81,557.185,561.5849999999999,563.241" svgx:width="0.83,0.55,0.5,0.55,0.55,0.55,0.28,0.55,0.55,0.55,0.55,0.55,0.55,0.55,0.55,0.55,0.28" style="fill:rgb(0,0,0);font-family:Helvetica;font-size:8.0px;stroke:none;">May 15, 2017 11 /</text>
  </g>
  <g begin="text">
   <text y="756.0" x="567.209,571.585" svgx:width="0.55,0.55" style="fill:rgb(0,0,0);font-family:Helvetica;font-size:8.0px;stroke:none;">15</text>
  </g>
 </g>
</svg>
