<?xml version="1.0" encoding="UTF-8"?>
<svg height="777.224" width="566.4544" xmlns="http://www.w3.org/2000/svg">
 <g id="page" xmlns:svgx="http://www.xml-cml.org/schema/svgx">
  <g begin="text">
   <text y="41.4" x="58.68,61.743,64.379,69.298,74.458,77.877,83.038,88.198,90.238,93.301,98.22,101.22,104.283,110.344,115.564,120.725,124.925,129.725" svgx:width="0.28,0.24,0.45,0.47,0.31,0.47,0.47,0.19,0.28,0.45,0.27,0.28,0.55,0.47,0.47,0.38,0.44,0.31" style="fill:rgb(0,0,0);font-family:GillSansMT-Italic;font-size:10.98px;stroke:none;"> Journal of Cancer</text>
   <text y="41.4" x="133.146,136.21,141.733,147.256,152.779,158.301,160.702,163.748,170.408,176.468,178.868,181.268,184.324,189.847,195.37" svgx:width="0.28,0.5,0.5,0.5,0.5,0.22,0.28,0.6,0.55,0.22,0.22,0.28,0.5,0.5,0.28" style="fill:rgb(0,0,0);font-family:GillSansMT;font-size:10.98px;stroke:none;"> 2019, Vol. 10 </text>
   <text y="756.18" x="553.38" svgx:width="0.28" style="fill:rgb(0,0,0);font-family:GillSansMT;font-size:9.48px;stroke:none;"> </text>
   <text y="767.224" x="464.884,469.624,472.8,475.976,480.716,482.811,485.451,488.091,494.926,501.761,508.597,510.72,512.82,516.963,520.983,525.783,529.926,534.485,538.259,540.359,545.583,549.362,553.38" svgx:width="0.5,0.33,0.33,0.5,0.22,0.28,0.28,0.72,0.72,0.72,0.22,0.22,0.44,0.43,0.5,0.44,0.48,0.4,0.22,0.55,0.4,0.43,0.28" style="fill:rgb(0,0,0);font-family:GillSansMT;font-size:9.48px;stroke:none;">http://www.jcancer.org </text>
  </g>
  <g begin="text">
   <text y="41.46" x="531.36,536.883,542.406,547.929" svgx:width="0.5,0.5,0.5,0.5" style="fill:rgb(0,0,0);font-family:GillSansMT;font-size:10.98px;stroke:none;">2791</text>
  </g>
  <g begin="text">
   <text y="41.46" x="553.38" svgx:width="0.28" style="fill:rgb(0,0,0);font-family:GillSansMT;font-size:10.98px;stroke:none;"> </text>
  </g>
  <path style="fill:none;stroke:rgb(57,154,181);stroke-width:1.0;" d="M58.550 48.600 L553.550 48.600 "/>
  <path style="fill:none;stroke:rgb(57,154,181);stroke-width:1.5;" d="M58.550 752.050 L553.550 752.050 "/>
  <g begin="text">
   <text y="66.3" x="58.68,61.62,67.441,71.88,77.702,82.503,86.762,89.267,91.081,96.121,101.641,107.102,112.742,117.481,119.98599999999999,121.862,125.102,130.923,135.723,138.228,140.103,144.541,149.581,155.642,158.881,163.682,167.642,173.162,175.667,177.48,183.481,188.942,191.882,197.704,200.944,203.464,205.969,207.843,213.963,219.783,224.583,227.088,228.962,232.922,237.662,241.922,247.984,250.92,254.16,258.42,260.925,262.747,267.008,272.829,278.29,286.631,291.431,297.551" svgx:width="0.29,0.58,0.44,0.58,0.48,0.42,0.25,0.55,0.5,0.55,0.55,0.56,0.48,0.25,0.55,0.33,0.58,0.48,0.25,0.55,0.44,0.5,0.6,0.33,0.48,0.4,0.56,0.25,0.55,0.6,0.55,0.29,0.58,0.33,0.25,0.25,0.55,0.61,0.58,0.48,0.25,0.55,0.4,0.48,0.42,0.6,0.29,0.33,0.42,0.25,0.55,0.42,0.58,0.55,0.83,0.48,0.61,0.25" style="fill:rgb(0,0,0);font-family:BookAntiqua;font-size:10.02px;stroke:none;">inches above the cautery point. The results showed </text>
   <text y="78.725" x="58.69,61.926,67.746,72.548,75.053,81.065,86.886,89.826,95.406,101.166,103.67099999999999,109.683,114.122,119.522,125.344,129.783,134.583,140.404,143.645,147.604,152.645,155.885,158.825,164.286,170.107" svgx:width="0.33,0.58,0.48,0.25,0.55,0.58,0.29,0.56,0.58,0.25,0.55,0.44,0.55,0.58,0.44,0.48,0.58,0.33,0.4,0.5,0.33,0.29,0.55,0.58,0.42" style="fill:rgb(0,0,0);font-family:BookAntiqua;font-size:10.02px;stroke:none;">the high concentrations</text>
   <text y="78.725" x="174.301,176.80599999999998,182.337,187.377,190.737,193.242,198.713,203.692,208.732,213.712,220.912,225.954,228.459,233.93,238.369,242.809,246.168,250.608,253.369,258.349,263.389,268.429,272.808,277.848,281.745,284.25,289.781,292.482,297.517" svgx:width="0.25,0.55,0.5,0.33,0.25,0.55,0.5,0.5,0.5,0.72,0.5,0.25,0.55,0.44,0.44,0.33,0.44,0.28,0.5,0.5,0.5,0.44,0.5,0.39,0.25,0.55,0.28,0.5,0.25" style="fill:rgb(0,0,0);font-family:TimesNewRomanPSMT;font-size:10.02px;stroke:none;"> of known carcinogens in </text>
   <text y="91.15" x="58.66,62.919,68.98,72.937,78.459,81.398,85.778,90.818,93.758,96.26299999999999,100.842,105.102,113.922,119.322,124.902,129.702,132.207,136.786,141.046,147.105,151.546,157.306,159.811,164.39,169.37,173.63,176.135,180.65,186.17,190.97,196.79,201.83,206.629,212.449,217.248,219.768,222.273,226.853,232.313,238.373,241.613,246.653,252.775,255.655,260.455,266.275,271.075,273.595,276.1,280.615,285.655,291.475,297.535" svgx:width="0.42,0.6,0.4,0.56,0.29,0.44,0.5,0.29,0.25,0.55,0.42,0.88,0.55,0.56,0.48,0.25,0.55,0.42,0.6,0.44,0.58,0.25,0.55,0.5,0.42,0.25,0.55,0.55,0.48,0.58,0.5,0.48,0.58,0.48,0.25,0.25,0.55,0.55,0.6,0.33,0.5,0.61,0.29,0.48,0.58,0.48,0.25,0.25,0.55,0.5,0.58,0.61,0.25" style="fill:rgb(0,0,0);font-family:BookAntiqua;font-size:10.02px;stroke:none;">surgical smoke such as benzene, butadiene, and </text>
   <text y="103.574" x="58.66,63.7,68.139,72.939,76.179,81.64,87.461,90.401,93.642,97.602,100.481,103.421,108.219,110.739,113.244,118.66,122.019,127.84,130.345,135.816,140.856,146.978,153.038,155.979,159.219,162.159,167.618,173.439,175.899,178.404,183.875,189.395,195.455,198.695,203.735,209.857,212.737,217.536,223.356,228.155,230.66,236.076,241.115,246.936,253.058,255.563,261.034,266.554,271.353,277.114,282.154,286.954,292.713,297.513" svgx:width="0.5,0.44,0.48,0.33,0.55,0.58,0.29,0.33,0.4,0.29,0.29,0.48,0.25,0.25,0.55,0.34,0.58,0.25,0.55,0.5,0.61,0.61,0.29,0.33,0.29,0.55,0.58,0.25,0.25,0.55,0.55,0.6,0.33,0.5,0.61,0.29,0.48,0.58,0.48,0.25,0.55,0.5,0.58,0.61,0.25,0.55,0.55,0.48,0.58,0.5,0.48,0.58,0.48,0.25" style="fill:rgb(0,0,0);font-family:BookAntiqua;font-size:10.02px;stroke:none;">acetonitrile. In addition, butadiene and benzene </text>
   <text y="115.999" x="58.66,62.92,68.742,74.203,82.544,87.343,93.463,95.96799999999999,99.045,104.025,109.0,112.357,114.862,117.938,122.978,128.798,134.918,137.423,140.499,145.479,150.459,153.82,157.177,162.576,165.512,171.635,174.14,177.157,182.978,185.918,191.498,197.32,202.12,206.08,208.585,211.661,216.1,221.561,227.383,231.822,236.561,242.383,245.622,249.583,254.623,257.863,260.803,266.263,272.085,274.59,277.666,280.907,286.728,291.768,297.529" svgx:width="0.42,0.58,0.55,0.83,0.48,0.61,0.25,0.55,0.5,0.5,0.33,0.25,0.55,0.5,0.58,0.61,0.25,0.55,0.5,0.5,0.33,0.33,0.55,0.29,0.61,0.25,0.55,0.58,0.29,0.56,0.58,0.48,0.4,0.25,0.55,0.44,0.55,0.58,0.44,0.48,0.58,0.33,0.4,0.5,0.33,0.29,0.55,0.58,0.25,0.55,0.33,0.58,0.5,0.58,0.25" style="fill:rgb(0,0,0);font-family:BookAntiqua;font-size:10.02px;stroke:none;">showed 17- and 10-fold higher concentration than </text>
   <text y="128.484" x="58.66,62.921,67.72,72.159,77.62,83.441,89.562,92.918,98.679,103.719,109.541,115.601,118.717,122.976,131.797,137.258,142.838,145.778,151.6,157.12,159.64,162.82,166.72,171.519,175.72,181.72,186.52,190.959,194.2,197.139,202.779,207.579,210.519,216.094,218.559,221.736,230.072,235.833,238.773,243.212,249.032,252.208,257.969,263.009,268.65,273.451,276.627,282.148,286.889,291.628,297.509" svgx:width="0.42,0.48,0.44,0.55,0.58,0.61,0.33,0.58,0.5,0.58,0.61,0.25,0.42,0.88,0.55,0.56,0.29,0.58,0.56,0.25,0.25,0.4,0.48,0.42,0.6,0.48,0.44,0.33,0.29,0.56,0.48,0.29,0.56,0.25,0.25,0.83,0.58,0.29,0.44,0.58,0.25,0.58,0.5,0.56,0.48,0.25,0.55,0.48,0.48,0.58,0.25" style="fill:rgb(0,0,0);font-family:BookAntiqua;font-size:10.02px;stroke:none;">second-hand smoking, respectively, which have been </text>
   <text y="140.909" x="58.66,62.618,67.417,73.418,78.878,82.836,86.076,90.875,96.998,99.503,100.535,103.775,109.175,111.67999999999999,112.712,117.092,122.132,128.132,132.392,137.192,139.697,140.672,145.712,150.092,156.152,159.392,164.192,166.697,167.729,173.189,177.089,179.594,180.626,186.749,191.488,194.428,199.408,204.988,209.788,215.848,218.353,219.385,222.625,228.085,233.245,236.125,240.565,243.505,246.745,252.326,254.831,255.806,260.846,266.665,272.725,275.23,276.262,282.022,287.062,292.702,297.502" svgx:width="0.4,0.48,0.6,0.55,0.4,0.33,0.48,0.61,0.25,0.55,0.33,0.55,0.25,0.55,0.44,0.5,0.6,0.42,0.48,0.25,0.55,0.5,0.44,0.6,0.33,0.48,0.25,0.55,0.55,0.4,0.25,0.55,0.61,0.48,0.29,0.5,0.56,0.48,0.61,0.25,0.55,0.33,0.55,0.52,0.29,0.44,0.29,0.33,0.56,0.25,0.55,0.5,0.58,0.61,0.25,0.55,0.58,0.5,0.56,0.48,0.25" style="fill:rgb(0,0,0);font-family:BookAntiqua;font-size:10.02px;stroke:none;">reported to cause acute or delayed toxicity and have </text>
   <text y="153.334" x="58.66,64.66,70.121,73.361,78.161,83.983,87.222,90.163,95.203,98.143,100.663,105.043,110.083,114.043,118.423,121.363,127.185,132.646,138.225,143.025,148.847,151.728,156.167,158.687,163.427,166.787,170.147,174.947,179.327,182.567,186.827,189.347,194.808,200.629,203.149,208.971,215.031,223.792,228.832,234.653,238.854" svgx:width="0.6,0.55,0.33,0.48,0.58,0.33,0.29,0.5,0.29,0.25,0.44,0.5,0.4,0.44,0.29,0.58,0.55,0.56,0.48,0.58,0.29,0.44,0.25,0.48,0.33,0.33,0.48,0.44,0.33,0.42,0.25,0.55,0.58,0.25,0.58,0.6,0.88,0.5,0.58,0.42,0.25" style="fill:rgb(0,0,0);font-family:BookAntiqua;font-size:10.02px;stroke:none;">potential carcinogenic effects on humans.</text>
   <text y="153.334" x="241.365" svgx:width="0.25" style="fill:rgb(0,0,0);font-family:TimesNewRomanPSMT;font-size:10.02px;stroke:none;"> </text>
   <text y="165.759" x="81.345,87.467,92.508,98.028,103.487,107.387,112.427,115.667,121.128,125.086,130.606,133.111,147.289,152.329,158.15,164.21,166.715,180.893,185.933,191.694,194.633,203.453,208.433,211.374,213.879,228.057,232.318,235.557,241.558,247.68,250.561,255.361,259.62,262.125,276.303,282.064,287.104,292.743,297.543" svgx:width="0.61,0.5,0.55,0.55,0.4,0.5,0.33,0.55,0.4,0.56,0.25,0.55,0.5,0.58,0.61,0.25,0.55,0.5,0.58,0.29,0.88,0.5,0.29,0.25,0.55,0.42,0.33,0.6,0.61,0.29,0.48,0.42,0.25,0.55,0.58,0.5,0.56,0.48,0.25" style="fill:rgb(0,0,0);font-family:BookAntiqua;font-size:10.02px;stroke:none;">Laboratory and animal studies have </text>
   <text y="178.183" x="58.67,64.79,69.59,78.407,83.867,89.687,93.947,97.184,101.144,106.184,109.42,114.161,120.293,123.409,126.646,132.465,137.505,140.742,143.858,148.129,156.948,162.409,167.988,172.729,175.849,181.429,186.229,192.048,196.848,200.806,205.846,209.085,213.885,220.007,223.063,229.122,235.182,239.14,242.08,247.901,253.481,256.537,259.417,264.457,268.716,273.516,277.474,280.53,285.51,291.329,297.51" svgx:width="0.61,0.48,0.88,0.55,0.58,0.42,0.33,0.4,0.5,0.33,0.48,0.61,0.25,0.33,0.58,0.5,0.33,0.25,0.42,0.88,0.55,0.56,0.48,0.25,0.56,0.48,0.58,0.48,0.4,0.5,0.33,0.48,0.61,0.25,0.61,0.6,0.4,0.29,0.58,0.56,0.25,0.29,0.5,0.42,0.48,0.4,0.25,0.5,0.58,0.61,0.25" style="fill:rgb(0,0,0);font-family:BookAntiqua;font-size:10.02px;stroke:none;">demonstrated that smoke generated during laser and </text>
   <text y="190.608" x="58.67,63.47,66.41,71.21,75.65,78.89,82.848,88.308,92.748,97.728,103.788,107.028,111.827,115.727,121.307,123.812,130.365,134.564,140.625,144.582,150.163,154.962,158.862,164.442,166.947,173.442,177.882,182.922,188.922,193.181,197.981,202.241,204.746,211.24,216.281,220.66,226.72,229.961,234.76,237.265,243.818,249.278,253.236,255.74099999999999,262.294,268.417,273.157,276.097,281.077,286.657,291.397,297.519" svgx:width="0.48,0.29,0.48,0.44,0.33,0.4,0.55,0.44,0.5,0.6,0.33,0.48,0.4,0.56,0.25,0.55,0.42,0.6,0.4,0.56,0.48,0.4,0.56,0.25,0.55,0.44,0.5,0.6,0.42,0.48,0.42,0.25,0.55,0.5,0.44,0.6,0.33,0.48,0.25,0.55,0.55,0.4,0.25,0.55,0.61,0.48,0.29,0.5,0.56,0.48,0.61,0.25" style="fill:rgb(0,0,0);font-family:BookAntiqua;font-size:10.02px;stroke:none;">electrocautery surgery causes acute or delayed </text>
   <text y="203.033" x="58.67,63.109,68.149,72.109,76.548,79.488,85.309,90.71,96.29,101.09,106.911,109.852,114.232,117.292,122.092,125.452,128.812,133.613,138.051,141.292,145.491,148.607,154.068,159.829,162.945,168.767,174.767,183.587,188.627,194.449,198.71,201.169,204.286,210.413,216.053,220.853,226.614,229.73,232.91,238.73,244.19,250.25,255.831,261.592,264.708,267.949,273.768,278.568,282.526,287.325,290.382,293.261,297.522" svgx:width="0.44,0.5,0.4,0.44,0.29,0.58,0.55,0.56,0.48,0.58,0.29,0.44,0.25,0.48,0.33,0.33,0.48,0.44,0.33,0.42,0.25,0.55,0.58,0.25,0.58,0.6,0.88,0.5,0.58,0.42,0.25,0.25,0.61,0.56,0.48,0.58,0.25,0.33,0.58,0.55,0.6,0.56,0.58,0.25,0.33,0.58,0.48,0.4,0.48,0.25,0.29,0.42,0.25" style="fill:rgb(0,0,0);font-family:BookAntiqua;font-size:10.02px;stroke:none;">carcinogenic effects on humans. Even though there is </text>
   <text y="215.458" x="58.67,64.492,69.953,72.458,75.173,81.293,84.233,88.194,92.993,97.432,100.673,103.178,105.893,110.694,116.334,119.214,125.334,130.134,135.955,140.394,145.194,147.69899999999998,150.414,153.655,159.115,161.62,164.336,168.595,174.417,179.878,188.218,190.72299999999998,193.438,196.677,202.499,207.539,210.779,213.284,215.999,220.26,226.32,230.28,235.8,238.679,243.118,248.158,251.098,253.603,256.319,260.579,269.399,274.799,280.38,285.179,287.68399999999997,290.4,293.279,297.54" svgx:width="0.58,0.55,0.25,0.55,0.61,0.29,0.4,0.48,0.44,0.33,0.25,0.55,0.48,0.56,0.29,0.61,0.48,0.58,0.44,0.48,0.25,0.55,0.33,0.55,0.25,0.55,0.42,0.58,0.55,0.83,0.25,0.55,0.33,0.58,0.5,0.33,0.25,0.55,0.42,0.6,0.4,0.56,0.29,0.44,0.5,0.29,0.25,0.55,0.42,0.88,0.55,0.56,0.48,0.25,0.55,0.29,0.42,0.25" style="fill:rgb(0,0,0);font-family:BookAntiqua;font-size:10.02px;stroke:none;">no direct evidence to show that surgical smoke is </text>
   <text y="227.883" x="58.67,63.109,68.149,72.109,76.548,79.488,85.309,90.71,96.29,101.09,106.911,109.852,114.232,116.752,119.992,125.453,127.973,133.795,139.855,148.676,153.716,159.475,163.736,166.256,168.776,172.015,177.776,182.575,186.536,191.336,193.796,198.836,202.796,207.596,210.116,216.116,220.916,224.817,229.076,231.957,236.156,239.397,244.196,250.018,253.258,255.778,260.216,265.677,271.499,275.938,280.738,284.698,290.52,294.779,297.226" svgx:width="0.44,0.5,0.4,0.44,0.29,0.58,0.55,0.56,0.48,0.58,0.29,0.44,0.25,0.33,0.55,0.25,0.58,0.6,0.88,0.5,0.58,0.42,0.25,0.25,0.33,0.58,0.48,0.4,0.48,0.25,0.5,0.4,0.48,0.25,0.6,0.48,0.4,0.42,0.29,0.42,0.33,0.48,0.58,0.33,0.25,0.44,0.55,0.58,0.44,0.48,0.4,0.58,0.42,0.25,0.25" style="fill:rgb(0,0,0);font-family:BookAntiqua;font-size:10.02px;stroke:none;">carcinogenic to humans, there are persistent concerns. </text>
   <text y="247.92" x="58.68,68.397,74.821,79.26,85.08,91.02,97.08,103.504,106.501,112.021,115.084,121.508,128.052,132.491,138.551,144.974,149.414,152.412,158.232,161.23,164.293,170.837,174.124,177.187,181.867,188.287,193.206,199.146,202.146,207.667,213.486,216.486,219.549,224.229,234.789,241.329,247.39,253.451" svgx:width="0.88,0.58,0.41,0.53,0.54,0.55,0.58,0.27,0.5,0.28,0.58,0.59,0.41,0.55,0.58,0.41,0.27,0.53,0.27,0.28,0.59,0.3,0.28,0.43,0.58,0.45,0.54,0.27,0.5,0.53,0.27,0.28,0.43,0.96,0.59,0.55,0.55,0.28" style="fill:rgb(0,0,0);font-family:GillSansMT-Bold;font-size:10.98px;stroke:none;">Mutagenic potential of surgical smoke </text>
   <text y="263.04" x="81.36,89.161,93.42,95.925,106.677,115.016,119.816,122.697,125.636,128.141,138.837,143.877,148.136,150.641,161.393,165.832,171.653,176.453,185.213,188.153,192.592,197.572,200.512,203.017,213.768,218.207,223.668,232.489,238.489,243.95,249.771,254.572,260.393,263.634,267.894,270.417,272.92199999999997,283.674,286.91,292.73,297.529" svgx:width="0.78,0.42,0.25,0.55,0.83,0.48,0.29,0.29,0.25,0.55,0.5,0.42,0.25,0.55,0.44,0.58,0.48,0.88,0.29,0.44,0.5,0.29,0.25,0.55,0.44,0.55,0.88,0.6,0.55,0.58,0.48,0.58,0.33,0.42,0.25,0.25,0.55,0.33,0.58,0.48,0.25" style="fill:rgb(0,0,0);font-family:BookAntiqua;font-size:10.02px;stroke:none;">As well as chemical components, the </text>
   <text y="275.465" x="58.675,67.494,73.554,76.795,81.835,87.415,92.215,97.975,100.915,105.354,108.295,111.534,117.054,119.559,126.353,131.393,137.214,143.275,145.78,152.573,157.012,162.592,165.833,171.293,174.473,179.934,185.094,188.035,192.474,195.414,198.654,204.233,206.738,213.532,221.811,226.612,230.572,235.312,237.817,244.611,250.072,253.372,255.877,262.671,268.251,272.209,276.949,281.989,285.229,290.029,294.228,297.528" svgx:width="0.88,0.6,0.33,0.5,0.56,0.48,0.58,0.29,0.44,0.29,0.33,0.56,0.25,0.55,0.5,0.58,0.61,0.25,0.55,0.44,0.56,0.33,0.55,0.33,0.55,0.52,0.29,0.44,0.29,0.33,0.56,0.25,0.55,0.83,0.48,0.4,0.48,0.25,0.55,0.55,0.33,0.25,0.55,0.56,0.4,0.48,0.5,0.33,0.48,0.42,0.33,0.25" style="fill:rgb(0,0,0);font-family:BookAntiqua;font-size:10.02px;stroke:none;">mutagenicity and cytotoxicity were of greatest </text>
   <text y="287.89" x="58.675,63.114,68.574,74.396,78.835,83.636,87.595,93.417,95.922,102.235,105.474,110.879,113.384,119.636,125.696,129.956,134.756,138.655,142.915,145.42,151.732,157.132,160.433,162.938,169.25,172.13,177.11,181.371,186.17,190.128,194.389,196.848,199.353,205.666,210.407,213.346,218.146,222.586,225.826,229.784,235.184,239.444,245.505,249.462,254.982,259.782,263.74,269.32,271.78,274.28499999999997,280.54,285.58,291.34,297.52" svgx:width="0.44,0.55,0.58,0.44,0.48,0.4,0.58,0.25,0.55,0.33,0.55,0.25,0.55,0.6,0.42,0.48,0.4,0.42,0.25,0.55,0.55,0.33,0.25,0.55,0.29,0.5,0.42,0.48,0.4,0.42,0.25,0.25,0.55,0.48,0.29,0.48,0.44,0.33,0.4,0.55,0.42,0.6,0.4,0.56,0.48,0.4,0.56,0.25,0.25,0.55,0.5,0.58,0.61,0.25" style="fill:rgb(0,0,0);font-family:BookAntiqua;font-size:10.02px;stroke:none;">concern to users of lasers, electrosurgery, and </text>
   <text y="300.314" x="58.675,64.675,70.135,78.475,83.275,87.233,92.032,98.155,100.975,105.175,111.235,115.134,120.715,123.654,128.035,133.075,136.015,138.771,141.71,147.531,151.791,155.031,158.989,165.049,173.809,178.608,184.428,187.668,191.928,194.448,197.271,203.392,208.852,217.673,220.613,223.852,228.893,231.648,236.688,242.51,248.63,251.451,255.889,261.289,264.229,267.169,271.909,276.949,282.469,288.469,293.27,297.529" svgx:width="0.6,0.55,0.83,0.48,0.4,0.48,0.61,0.25,0.42,0.6,0.4,0.56,0.29,0.44,0.5,0.29,0.25,0.29,0.58,0.42,0.33,0.4,0.6,0.88,0.48,0.58,0.33,0.42,0.25,0.25,0.61,0.55,0.88,0.29,0.33,0.5,0.25,0.5,0.58,0.61,0.25,0.44,0.55,0.29,0.29,0.48,0.5,0.56,0.6,0.48,0.42,0.25" style="fill:rgb(0,0,0);font-family:BookAntiqua;font-size:10.02px;stroke:none;">powered surgical instruments. Tomita and colleagues </text>
   <text y="312.739" x="58.675,63.115,68.574,71.514,74.455,79.255,83.695,86.935,91.735,97.857,100.197,103.437,109.257,114.056,116.337,121.136,124.076,128.876,133.316,136.556,140.514,145.974,150.173,156.233,160.191,165.771,170.571,174.471,180.051,182.391,186.651,195.471,200.931,206.511,211.31,213.655,219.655,224.635,228.593,231.833,234.713,239.153,242.093,246.892,251.152,253.492,259.072,263.871,269.631,274.43,278.388,283.428,286.668,291.408,297.53" svgx:width="0.44,0.55,0.29,0.29,0.48,0.44,0.33,0.48,0.61,0.25,0.33,0.58,0.48,0.25,0.48,0.29,0.48,0.44,0.33,0.4,0.55,0.42,0.6,0.4,0.56,0.48,0.4,0.56,0.25,0.42,0.88,0.55,0.56,0.48,0.25,0.6,0.5,0.4,0.33,0.29,0.44,0.29,0.48,0.42,0.25,0.56,0.48,0.58,0.48,0.4,0.5,0.33,0.48,0.61,0.25" style="fill:rgb(0,0,0);font-family:BookAntiqua;font-size:10.02px;stroke:none;">collected the electrosurgery smoke particles generated </text>
   <text y="325.164" x="58.675,62.034,65.994,71.455,80.275,82.78,89.032,97.852,103.852,108.291,113.752,119.752,124.011,126.51599999999999,132.769,141.588,146.389,155.208,160.728,164.689,169.729,175.489,180.229,182.734,188.987,194.448,197.747,200.252,206.505,209.744,215.566,220.366,222.871,229.123,233.503,238.483,244.304,247.244,253.066,257.866,260.371,266.624,269.864,275.325,281.147,286.667,292.727,297.527" svgx:width="0.33,0.4,0.55,0.88,0.25,0.55,0.88,0.6,0.44,0.55,0.6,0.42,0.25,0.55,0.88,0.48,0.88,0.55,0.4,0.5,0.58,0.48,0.25,0.55,0.55,0.33,0.25,0.55,0.33,0.58,0.48,0.25,0.55,0.44,0.5,0.58,0.29,0.58,0.48,0.25,0.55,0.33,0.55,0.58,0.56,0.6,0.48,0.25" style="fill:rgb(0,0,0);font-family:BookAntiqua;font-size:10.02px;stroke:none;">from mucous membrane of the canine tongue </text>
   <text y="337.649" x="58.675,61.615,65.574,69.475,74.515,80.635,83.515,88.555,91.792,96.592,102.652,105.157,112.193,120.532,123.472,126.709,132.529,135.034,142.128,147.108,149.613,156.707,163.788" svgx:width="0.29,0.4,0.4,0.5,0.61,0.29,0.5,0.33,0.48,0.61,0.25,0.55,0.83,0.29,0.33,0.58,0.25,0.55,0.5,0.25,0.55,0.71,0.79" style="fill:rgb(0,0,0);font-family:BookAntiqua;font-size:10.02px;stroke:none;">irradiated with a CO</text>
   <text y="338.64" x="171.6" svgx:width="0.5" style="fill:rgb(0,0,0);font-family:BookAntiqua;font-size:6.48px;stroke:none;">2</text>
   <text y="337.62" x="174.84,177.345,184.439,187.319,192.359,196.619,201.419,205.319,207.839,210.344,217.378,222.418,228.178,234.301,236.80599999999998,243.898,247.258,252.658,258.718,264.538,270.598,273.103,280.197,283.434,289.254,294.294,297.531" svgx:width="0.25,0.55,0.29,0.5,0.42,0.48,0.4,0.25,0.25,0.55,0.5,0.58,0.61,0.25,0.55,0.33,0.55,0.6,0.58,0.61,0.25,0.55,0.33,0.58,0.5,0.33,0.25" style="fill:rgb(0,0,0);font-family:BookAntiqua;font-size:10.02px;stroke:none;"> laser, and found that </text>
   <text y="350.045" x="58.678,63.117,68.578,74.4,80.52,85.319,91.141,95.4,100.44,103.681,108.42,112.676,115.181,116.153,121.613,124.969,127.47399999999999,128.51,132.77,138.832,142.732,148.312,151.248,155.628,160.668,163.604,166.109,167.081,171.293,180.111,185.571,191.151,195.952,198.457,199.489,205.31,210.349,215.989,220.79,223.295,224.267,233.084,239.144,242.381,247.421,253.001,257.801,263.561,266.501,270.941,273.881,277.117,282.637,285.142,286.177,291.637,297.517" svgx:width="0.44,0.55,0.58,0.61,0.48,0.58,0.42,0.5,0.33,0.48,0.42,0.25,0.55,0.55,0.33,0.25,0.55,0.42,0.6,0.4,0.56,0.29,0.44,0.5,0.29,0.25,0.55,0.42,0.88,0.55,0.56,0.48,0.25,0.55,0.58,0.5,0.56,0.48,0.25,0.55,0.88,0.6,0.33,0.5,0.56,0.48,0.58,0.29,0.44,0.29,0.33,0.56,0.25,0.55,0.55,0.58,0.25" style="fill:rgb(0,0,0);font-family:BookAntiqua;font-size:10.02px;stroke:none;">condensates of surgical smoke have mutagenicity on </text>
   <text y="362.47" x="58.668,64.788,72.584,77.564,82.604,85.109,86.381,89.321,95.081,97.586,98.858,102.098,107.918,112.718,115.223,116.438,122.438,126.396,131.196,135.456,140.256,146.077,150.516,155.316,157.821,159.094,164.494,167.854,170.359,171.632,176.851,181.891,184.396,185.669,194.488,197.428,202.528" svgx:width="0.61,0.78,0.5,0.5,0.25,0.55,0.29,0.58,0.25,0.55,0.33,0.58,0.48,0.25,0.55,0.6,0.4,0.48,0.42,0.48,0.58,0.44,0.48,0.25,0.55,0.55,0.33,0.25,0.55,0.52,0.5,0.25,0.55,0.88,0.29,0.52,0.25" style="fill:rgb(0,0,0);font-family:BookAntiqua;font-size:10.02px;stroke:none;">TA98 in the presence of S9 mix,</text>
   <text y="362.47" x="205.07" svgx:width="0.25" style="fill:rgb(0,0,0);font-family:BookAntiqua-Bold;font-size:10.02px;stroke:none;"> </text>
   <text y="362.47" x="208.968,214.008,219.828,225.89,228.39499999999998,229.667,237.944,240.884" svgx:width="0.5,0.58,0.61,0.25,0.55,0.83,0.29,0.42" style="fill:rgb(0,0,0);font-family:BookAntiqua;font-size:10.02px;stroke:none;">and His</text>
   <text y="359.94" x="245.16" svgx:width="0.61" style="fill:rgb(0,0,0);font-family:BookAntiqua;font-size:6.48px;stroke:none;">+</text>
   <text y="362.46" x="249.06,251.565,252.838,256.795,261.595,267.235,272.035,275.993,279.232,284.272,290.093,293.332,297.533" svgx:width="0.25,0.55,0.4,0.48,0.56,0.48,0.4,0.33,0.5,0.58,0.33,0.42,0.25" style="fill:rgb(0,0,0);font-family:BookAntiqua;font-size:10.02px;stroke:none;"> revertants </text>
   <text y="374.885" x="58.68,67.02,71.819,75.777,80.577,83.082,89.755,92.695,98.515,104.575,110.635,115.075,119.815,125.937,128.442,135.116,143.456,146.396,149.636,155.456,157.96099999999998,164.634,169.675,175.435,177.94,184.613,187.553,193.373,197.813,201.771,206.57,211.55,215.81,220.609,226.731,229.236,235.852,241.974,247.434,251.694,256.494,258.999,265.672,271.132,274.492,276.997,283.67,286.909,292.67,297.53" svgx:width="0.83,0.48,0.4,0.48,0.25,0.55,0.29,0.58,0.61,0.6,0.44,0.48,0.61,0.25,0.55,0.83,0.29,0.33,0.58,0.25,0.55,0.5,0.58,0.25,0.55,0.29,0.58,0.44,0.4,0.48,0.5,0.42,0.48,0.61,0.25,0.55,0.61,0.55,0.42,0.48,0.25,0.55,0.55,0.33,0.25,0.55,0.33,0.58,0.48,0.25" style="fill:rgb(0,0,0);font-family:BookAntiqua;font-size:10.02px;stroke:none;">were induced with an increased dose of the </text>
   <text y="387.31" x="58.68,63.119,68.58,74.401,80.522,85.321,91.143,95.402,100.442,103.683,108.422,112.618,115.12299999999999,121.856,125.153,130.133,135.173,138.529,140.989,143.494,150.228,156.347,162.107,165.047,169.248,171.753,178.486,182.446,187.186,191.446,197.448,200.388,203.628,206.13299999999998,212.867,218.987,223.727,232.545,238.006,243.826,248.085,251.321,255.281,260.321,263.558,268.357,274.418,276.923,283.596,286.832,292.652,297.512" svgx:width="0.44,0.55,0.58,0.61,0.48,0.58,0.42,0.5,0.33,0.48,0.42,0.25,0.55,0.33,0.5,0.5,0.33,0.25,0.25,0.55,0.61,0.58,0.29,0.42,0.25,0.55,0.4,0.48,0.42,0.6,0.29,0.33,0.25,0.55,0.61,0.48,0.88,0.55,0.58,0.42,0.33,0.4,0.5,0.33,0.48,0.61,0.25,0.55,0.33,0.58,0.48,0.25" style="fill:rgb(0,0,0);font-family:BookAntiqua;font-size:10.02px;stroke:none;">condensates [45]. This result demonstrated the </text>
   <text y="399.734" x="58.67,67.488,73.548,76.784,81.824,87.404,92.204,97.964,100.904,105.344,108.285,111.521,117.041,119.54599999999999,126.641,132.101,135.461,137.966,145.001,149.981,152.486,159.58,165.701,173.44,178.48,183.46,185.965,193.059,197.32,200.556,204.457,209.497,212.437,218.196,220.701,227.796,233.196,236.556,239.061,246.155,251.375,256.355,259.294,268.112,273.572,279.393,284.192,287.073,289.953,294.993,297.513" svgx:width="0.88,0.6,0.33,0.5,0.56,0.48,0.58,0.29,0.44,0.29,0.33,0.56,0.25,0.55,0.55,0.33,0.25,0.55,0.5,0.25,0.55,0.61,0.78,0.5,0.5,0.25,0.55,0.42,0.33,0.4,0.5,0.29,0.58,0.25,0.55,0.55,0.33,0.25,0.55,0.52,0.5,0.29,0.88,0.55,0.58,0.48,0.29,0.29,0.5,0.25,0.25" style="fill:rgb(0,0,0);font-family:BookAntiqua;font-size:10.02px;stroke:none;">mutagenicity of a TA98 strain of Salmonella. </text>
   <text y="412.159" x="58.67,68.149,73.609,77.567,82.366,87.826,93.466,98.266,102.224,104.684,107.204,110.453,116.273,121.074,123.594,128.573,134.634,137.87,143.69,149.15,153.109,157.37,159.83,165.47,171.47,176.45,182.27,185.506,188.446,191.807,194.747,199.486,205.606,208.126,211.363,217.184,221.985,224.511,233.27,239.333,242.573,247.613,253.193,257.993,263.753,266.689,271.129,273.649,278.389,281.745,285.102,289.842,294.222,297.522" svgx:width="0.95,0.55,0.4,0.48,0.55,0.56,0.48,0.4,0.25,0.25,0.33,0.58,0.48,0.25,0.5,0.6,0.33,0.58,0.55,0.4,0.42,0.25,0.56,0.6,0.5,0.58,0.33,0.29,0.33,0.29,0.48,0.61,0.25,0.33,0.58,0.48,0.25,0.88,0.6,0.33,0.5,0.56,0.48,0.58,0.29,0.44,0.25,0.48,0.33,0.33,0.48,0.44,0.33,0.25" style="fill:rgb(0,0,0);font-family:BookAntiqua;font-size:10.02px;stroke:none;">Moreover, the authors quantified the mutagenic effect </text>
   <text y="424.584" x="58.67,63.11,67.068,71.867,76.907,80.147,84.946,91.069,93.574,95.447,100.967,106.547,109.05199999999999,110.925,114.165,119.925,124.725,128.683,137.503,142.543,145.493,147.998,149.812,155.932,160.732,164.992,168.232,172.193,178.193,182.631,185.872,188.812,194.273,200.094,202.599,204.473,209.934,213.294,215.799,217.672,222.713,225.218,227.033,232.613,235.118,236.933,242.394,245.753,248.25799999999998,250.132,253.373,256.313,260.573,264.772,270.832,275.633,278.138,280.012,288.288,293.328,297.537" svgx:width="0.44,0.4,0.48,0.5,0.33,0.48,0.61,0.25,0.55,0.55,0.56,0.25,0.55,0.33,0.58,0.48,0.4,0.88,0.5,0.29,0.25,0.55,0.61,0.48,0.42,0.33,0.4,0.6,0.44,0.33,0.29,0.55,0.58,0.25,0.55,0.55,0.33,0.25,0.55,0.5,0.25,0.55,0.56,0.25,0.55,0.55,0.33,0.25,0.55,0.33,0.29,0.42,0.42,0.6,0.48,0.25,0.55,0.83,0.5,0.42,0.25" style="fill:rgb(0,0,0);font-family:BookAntiqua;font-size:10.02px;stroke:none;">created by thermal destruction of 1 g of tissue was </text>
   <text y="437.009" x="58.68,63.48,69.12,75.12,78.06,83.7,88.68,91.621,96.42,102.241,105.477,107.982,115.678,118.914,124.374,126.87899999999999,134.574,137.811,143.631,148.672,151.908,154.41299999999998,162.108,167.568,170.884,173.38899999999998,181.084,184.325,190.144,194.102,198.902,203.701,206.206,213.9,217.136,222.597,225.102,232.798,237.058,239.998,245.158,247.66299999999998,255.359,259.798,262.679,268.259,273.239,277.199,281.939,285.175,288.412,293.211,297.532" svgx:width="0.48,0.56,0.6,0.29,0.56,0.5,0.29,0.48,0.58,0.33,0.25,0.55,0.33,0.55,0.25,0.55,0.33,0.58,0.5,0.33,0.25,0.55,0.55,0.33,0.25,0.55,0.33,0.58,0.4,0.48,0.48,0.25,0.55,0.33,0.55,0.25,0.55,0.42,0.29,0.52,0.25,0.55,0.44,0.29,0.56,0.5,0.4,0.48,0.33,0.33,0.48,0.42,0.25" style="fill:rgb(0,0,0);font-family:BookAntiqua;font-size:10.02px;stroke:none;">equivalent to that of three to six cigarettes </text>
   <text y="449.494" x="58.68,62.638,67.437,71.698,77.698,82.498,86.938,90.178,93.118,98.758,103.558,106.438,112.016,114.541,117.04599999999999,117.958,124.079,129.9,134.701,140.522,143.038,145.543,146.515,154.13,159.171,162.407,165.643,168.583,171.088,172.06,176.801,180.037,182.542,183.514,188.554,191.494,194.014,196.519,197.457,200.814,205.794,210.774" svgx:width="0.4,0.48,0.42,0.6,0.48,0.44,0.33,0.29,0.56,0.48,0.29,0.56,0.25,0.25,0.55,0.61,0.58,0.48,0.58,0.25,0.25,0.55,0.76,0.5,0.33,0.33,0.29,0.25,0.55,0.48,0.33,0.25,0.55,0.5,0.29,0.25,0.25,0.55,0.33,0.5,0.5,0.33" style="fill:rgb(0,0,0);font-family:BookAntiqua;font-size:10.02px;stroke:none;">respectively. Then, Gatti et al. [46]</text>
   <text y="446.94" x="214.14" svgx:width="0.25" style="fill:rgb(0,0,0);font-family:BookAntiqua;font-size:6.48px;stroke:none;"> </text>
   <text y="449.46" x="216.06,222.12,226.319,231.119,237.179,239.684,240.656,243.896,249.716,254.516,257.021,257.993,262.253,265.493,270.533,276.353,282.476,287.455,291.413,297.536" svgx:width="0.6,0.42,0.48,0.61,0.25,0.55,0.33,0.58,0.48,0.25,0.55,0.42,0.33,0.5,0.58,0.61,0.5,0.4,0.61,0.25" style="fill:rgb(0,0,0);font-family:BookAntiqua;font-size:10.02px;stroke:none;">used the standard </text>
   <text y="461.885" x="58.676,63.956,68.936,71.876,80.696,86.157,91.978,96.779,99.659,102.599,107.578,110.815,119.574,122.514,126.953,130.913,136.374,140.634,146.095,154.855,159.895,162.776,166.012,169.253,174.052,178.253,181.491,184.011,187.247,192.288,198.054,201.291,206.09,210.351,213.53,218.57,224.091,226.971,229.911,234.111,239.931,244.73,250.852,254.089,257.328,262.128,266.568,272.387,278.207,281.088,286.727,292.727,297.527" svgx:width="0.52,0.5,0.29,0.88,0.55,0.58,0.48,0.29,0.29,0.5,0.25,0.88,0.29,0.44,0.4,0.55,0.42,0.55,0.88,0.5,0.29,0.25,0.33,0.48,0.42,0.33,0.25,0.25,0.5,0.58,0.25,0.48,0.42,0.33,0.5,0.55,0.29,0.29,0.42,0.58,0.48,0.61,0.25,0.33,0.48,0.44,0.58,0.58,0.29,0.56,0.6,0.48,0.25" style="fill:rgb(0,0,0);font-family:BookAntiqua;font-size:10.02px;stroke:none;">Salmonella microsomal test, an established technique </text>
   <text y="474.31" x="58.666,62.023,67.482,71.443,73.948,76.964,81.764,87.344,92.384,95.264,101.326,106.366,109.607,112.542,118.302,123.882,126.387,129.403,132.643,138.463,143.264,145.769,148.785,157.604,163.666,166.906,171.946,177.466,182.267,188.086,191.022,195.462,198.398,201.638,207.218,209.72299999999998,212.739,218.14,221.501,224.006,226.962,232.002,234.507,237.463,241.722,247.782,253.302,257.563,260.803,265.842,271.663,276.042,280.849,283.369,285.874,288.89,292.13,297.531" svgx:width="0.33,0.55,0.4,0.25,0.55,0.48,0.56,0.5,0.29,0.6,0.5,0.33,0.29,0.58,0.56,0.25,0.55,0.33,0.58,0.48,0.25,0.55,0.88,0.6,0.33,0.5,0.56,0.48,0.58,0.29,0.44,0.29,0.33,0.56,0.25,0.55,0.55,0.33,0.25,0.55,0.5,0.25,0.55,0.42,0.6,0.55,0.42,0.33,0.5,0.58,0.44,0.48,0.25,0.25,0.55,0.33,0.55,0.25" style="fill:rgb(0,0,0);font-family:BookAntiqua;font-size:10.02px;stroke:none;">for evaluating the mutagenicity of a substance, to </text>
   <text y="486.734" x="58.666,63.706,67.966,72.165,76.965,81.225,85.423,87.928,103.359,106.599,112.419,117.16,119.66499999999999,135.095,143.913,149.972,153.209,158.188,163.769,168.568,174.389,177.269,181.709,184.214,199.645,205.645,211.105,214.342,219.141,224.962,228.198,231.138,236.118,239.086,241.591,257.022,262.423,265.779,268.284,283.715,286.955,292.775,297.515" svgx:width="0.5,0.42,0.42,0.48,0.42,0.42,0.25,0.55,0.33,0.58,0.48,0.25,0.55,0.88,0.6,0.33,0.5,0.56,0.48,0.58,0.29,0.44,0.25,0.55,0.6,0.55,0.33,0.48,0.58,0.33,0.29,0.5,0.29,0.25,0.55,0.55,0.33,0.25,0.55,0.33,0.58,0.48,0.25" style="fill:rgb(0,0,0);font-family:BookAntiqua;font-size:10.02px;stroke:none;">assess the mutagenic potential of the </text>
   <text y="499.159" x="58.656,63.455,66.396,71.196,75.636,78.876,82.834,88.294,92.734,97.714,103.774,107.013,111.813,115.713,121.301,124.658,130.78,135.579,139.479,142.42,148.059,152.859,158.981,161.486,167.258,171.458,180.278,185.737,191.318,196.117,198.62199999999999,204.394,208.834,212.791,217.591,222.631,225.872,230.611,236.733,239.238,245.01,251.132,257.192,261.093,264.033,269.852,275.432,277.937,283.709,286.889,292.709,297.508" svgx:width="0.48,0.29,0.48,0.44,0.33,0.4,0.55,0.44,0.5,0.6,0.33,0.48,0.4,0.56,0.33,0.61,0.48,0.4,0.29,0.56,0.48,0.61,0.25,0.55,0.42,0.88,0.55,0.56,0.48,0.25,0.55,0.44,0.4,0.48,0.5,0.33,0.48,0.61,0.25,0.55,0.61,0.6,0.4,0.29,0.58,0.56,0.25,0.55,0.33,0.58,0.48,0.25" style="fill:rgb(0,0,0);font-family:BookAntiqua;font-size:10.02px;stroke:none;">electrocautery-derived smoke created during the </text>
   <text y="511.584" x="58.656,62.616,67.416,73.536,79.596,84.036,87.273,90.213,95.674,101.493,104.73,113.489,118.469,127.287,136.104,141.564,147.564,150.505,155.545,160.525,166.105,168.625,171.805,176.785,182.605,188.725,191.962,195.323,200.782,206.843,212.662,218.782,222.019,225.255,231.076,235.815,239.052,247.869,253.93,257.166,262.206,267.786,272.586,278.346,281.286,285.726,288.666,291.846,297.487" svgx:width="0.4,0.48,0.61,0.6,0.44,0.33,0.29,0.55,0.58,0.25,0.88,0.5,0.88,0.88,0.55,0.6,0.29,0.5,0.5,0.56,0.25,0.25,0.5,0.58,0.61,0.25,0.33,0.55,0.6,0.58,0.61,0.25,0.33,0.58,0.48,0.25,0.88,0.6,0.33,0.5,0.56,0.48,0.58,0.29,0.44,0.29,0.33,0.56,0.25" style="fill:rgb(0,0,0);font-family:BookAntiqua;font-size:10.02px;stroke:none;">reduction mammoplazy, and found the mutagenicity </text>
   <text y="524.009" x="58.656,64.116,67.476,69.981,74.616,78.876,87.694,93.095,98.675,103.474,105.979,110.618,113.855,119.256,121.761,126.395,131.375,133.88,138.514,144.634,152.435,157.415,162.395,164.9,169.539,173.799,176.979,180.939,185.979,188.919,194.679,197.184,201.824,207.283,210.583,213.088,217.727,222.948,227.988,230.867,239.685,245.146,250.966,255.766,258.706,261.586,266.626,269.086,271.591,276.23,279.59,285.41,287.915,292.55,297.53" svgx:width="0.55,0.33,0.25,0.55,0.42,0.88,0.55,0.56,0.48,0.25,0.55,0.33,0.55,0.25,0.55,0.5,0.25,0.55,0.61,0.78,0.5,0.5,0.25,0.55,0.42,0.33,0.4,0.5,0.29,0.58,0.25,0.55,0.55,0.33,0.25,0.55,0.52,0.5,0.29,0.88,0.55,0.58,0.48,0.29,0.29,0.5,0.25,0.25,0.55,0.34,0.58,0.25,0.55,0.5,0.25" style="fill:rgb(0,0,0);font-family:BookAntiqua;font-size:10.02px;stroke:none;">of smoke to a TA98 strain of Salmonella. In a </text>
   <text y="536.434" x="58.656,62.915,68.975,74.495,78.756,83.496,89.136,95.136,99.935,105.755,108.995,111.991,114.871,119.851,125.371,130.831,134.789,139.829,143.069,148.529,152.487,158.067,161.007,165.267,168.507,174.567,180.627,186.206,189.202,197.542,200.482,203.722,209.542,212.538,218.538,223.998,227.956,232.335,235.276,241.036,245.835,248.831,251.711,254.651,260.291,265.091,269.049,272.045,275.285,278.165,282.424,286.625,292.685" svgx:width="0.42,0.6,0.55,0.42,0.48,0.56,0.6,0.48,0.58,0.33,0.25,0.29,0.5,0.55,0.55,0.4,0.5,0.33,0.55,0.4,0.56,0.25,0.42,0.33,0.6,0.61,0.56,0.25,0.83,0.29,0.33,0.58,0.25,0.6,0.55,0.4,0.44,0.29,0.58,0.48,0.25,0.29,0.29,0.56,0.48,0.4,0.25,0.33,0.29,0.42,0.42,0.6,0.48" style="fill:rgb(0,0,0);font-family:BookAntiqua;font-size:10.02px;stroke:none;">subsequent laboratory study with porcine liver tissue</text>
   <text y="536.434" x="297.484" svgx:width="0.25" style="fill:rgb(0,0,0);font-family:BookAntiqua-Bold;font-size:10.02px;stroke:none;"> </text>
   <text y="548.858" x="58.656,62.614,67.413,73.413,78.213,83.253,86.489,91.289,97.349,100.289,105.869,108.374,112.713,117.092,123.153,126.389,129.625,132.565,138.386,143.966,146.471,150.81,156.33,161.91,164.415,168.754,173.494,176.374,181.174,185.614,188.851,192.811,198.274,201.631,205.89,211.89,215.85,221.431,224.371,228.75,233.73,236.611,239.11599999999999,243.455,249.274,254.734,260.194,265.775,268.28,272.619,278.2,283.96,286.9,290.26,295.0,297.515" svgx:width="0.4,0.48,0.6,0.48,0.5,0.33,0.48,0.61,0.29,0.56,0.25,0.55,0.44,0.6,0.33,0.33,0.29,0.58,0.56,0.25,0.55,0.55,0.56,0.25,0.55,0.48,0.29,0.48,0.44,0.33,0.4,0.55,0.33,0.42,0.6,0.4,0.56,0.29,0.44,0.5,0.29,0.25,0.55,0.58,0.55,0.55,0.56,0.25,0.55,0.56,0.58,0.29,0.33,0.48,0.25,0.25" style="fill:rgb(0,0,0);font-family:BookAntiqua;font-size:10.02px;stroke:none;">repeatedly cutting by electro-surgical hook knife, </text>
   <text y="561.343" x="58.656,63.696,69.756,72.995,78.816,84.276,88.234,92.493,94.99799999999999,96.872,101.312,106.712,109.652,112.531,117.272,121.712,124.952,129.752,135.874,138.379,140.253,143.493,149.313,154.112,156.617,158.491,164.491,167.431,173.431,182.25,187.05,191.31,193.815,195.688,200.727,206.548,212.67,215.17499999999998,217.049,222.509,227.969,232.169,236.969,240.927,246.567,251.366,257.489,259.99399999999997,261.867,265.107,270.926,275.966,279.207,281.712,283.586,286.826,292.646,297.505" svgx:width="0.5,0.6,0.33,0.58,0.55,0.4,0.42,0.25,0.55,0.44,0.55,0.29,0.29,0.48,0.44,0.33,0.48,0.61,0.25,0.55,0.33,0.58,0.48,0.25,0.55,0.6,0.29,0.6,0.88,0.48,0.42,0.25,0.55,0.5,0.58,0.61,0.25,0.55,0.55,0.55,0.42,0.48,0.4,0.56,0.48,0.61,0.25,0.55,0.33,0.58,0.5,0.33,0.25,0.55,0.33,0.58,0.48,0.25" style="fill:rgb(0,0,0);font-family:BookAntiqua;font-size:10.02px;stroke:none;">authors collected the plumes and observed that the </text>
   <text y="573.768" x="58.656,63.095,66.035,71.495,77.317,82.778,88.358,93.159,98.918,101.858,106.297,109.237,112.476,117.996,120.50099999999999,121.714,127.175,130.535,133.04,134.253,137.493,143.315,148.114,150.619,151.832,161.312,168.392,173.916,177.212,182.253,184.75799999999998,185.97,191.792,197.852,206.612,211.652,217.474,219.97899999999998,221.191,226.711,230.671,235.412,240.452,244.711,247.952,250.457,251.669,256.108,261.088,265.048,269.487,272.428,278.249,283.71,292.471,297.511" svgx:width="0.44,0.29,0.55,0.58,0.55,0.56,0.48,0.58,0.29,0.44,0.29,0.33,0.56,0.25,0.55,0.55,0.33,0.25,0.55,0.33,0.58,0.48,0.25,0.55,0.95,0.71,0.56,0.33,0.5,0.25,0.55,0.58,0.6,0.88,0.5,0.58,0.25,0.55,0.55,0.4,0.48,0.5,0.42,0.33,0.25,0.55,0.44,0.5,0.4,0.44,0.29,0.58,0.55,0.88,0.5,0.25" style="fill:rgb(0,0,0);font-family:BookAntiqua;font-size:10.02px;stroke:none;">clonogenicity of the MCF-7 human breast carcinoma </text>
   <text y="586.193" x="58.656,63.095,67.895,70.835,73.715,77.975,80.47999999999999,84.458,90.579,95.378,99.817,103.778,108.517,113.557,117.758,122.557,128.678,131.183,135.16,140.2,145.721,151.181,157.242,160.481,162.986,166.902,171.942,176.922,185.322,187.827,191.805,200.145,205.967,210.767,216.589,219.094,223.072,227.873,233.033,239.034,244.495,248.754,253.555,259.675,262.18,266.158,269.397,274.858,277.363,281.341,284.581,290.402,293.342,297.543" svgx:width="0.44,0.48,0.29,0.29,0.42,0.25,0.55,0.61,0.48,0.44,0.4,0.48,0.5,0.42,0.48,0.61,0.25,0.55,0.5,0.55,0.55,0.6,0.33,0.25,0.55,0.5,0.5,0.84,0.25,0.55,0.83,0.58,0.48,0.58,0.25,0.55,0.48,0.52,0.6,0.55,0.42,0.48,0.61,0.25,0.55,0.33,0.55,0.25,0.55,0.33,0.58,0.29,0.42,0.25" style="fill:rgb(0,0,0);font-family:BookAntiqua;font-size:10.02px;stroke:none;">cells decreased about 30% when exposed to this </text>
   <text y="598.618" x="58.656,64.656,67.596,73.656,82.473,87.273,91.473,93.993,96.634,100.893,106.893,112.473,117.993,122.794,127.053,130.29,133.23,139.05,144.57,147.27,150.506,156.326,161.126,163.826,168.206,173.787,177.023,182.484,185.72,191.18,196.341,199.281,203.721,206.661,209.898,215.478,218.178,223.578,226.879,229.578,234.379,237.258,242.059,246.499,249.735,253.696,259.176,262.533,266.792,272.794,276.755,282.334,285.275,289.655,294.635,297.511" svgx:width="0.6,0.29,0.6,0.88,0.48,0.42,0.25,0.25,0.42,0.6,0.56,0.56,0.48,0.42,0.33,0.29,0.58,0.56,0.25,0.33,0.58,0.48,0.25,0.44,0.56,0.33,0.55,0.33,0.55,0.52,0.29,0.44,0.29,0.33,0.56,0.25,0.55,0.33,0.25,0.48,0.29,0.48,0.44,0.33,0.4,0.55,0.33,0.42,0.6,0.4,0.56,0.29,0.44,0.5,0.29,0.25" style="fill:rgb(0,0,0);font-family:BookAntiqua;font-size:10.02px;stroke:none;">plumes, suggesting the cytotoxicity of electro-surgical </text>
   <text y="611.043" x="58.656,62.916,71.734,77.193,82.774,87.573,90.07799999999999,91.531,94.888,99.868,104.908,107.368,109.87299999999999,111.386,116.371,121.411,124.708,127.233,129.738,131.251,139.05,145.11,151.231,154.166,157.407,160.343,165.803,171.563,176.543,179.479,182.415,187.935,190.455,192.96,194.413,199.453,205.272,207.777,209.23,212.166,217.986,220.49099999999999,222.006,227.646,230.582,233.821,237.722,243.182,245.68699999999998,247.202,252.002,257.162,263.162,267.962,271.922,274.857,283.678,288.478,294.298,297.478" svgx:width="0.42,0.88,0.55,0.56,0.48,0.25,0.55,0.33,0.5,0.5,0.25,0.25,0.55,0.5,0.5,0.33,0.25,0.25,0.55,0.78,0.61,0.61,0.29,0.33,0.29,0.55,0.58,0.5,0.29,0.29,0.56,0.25,0.25,0.55,0.5,0.58,0.25,0.55,0.29,0.58,0.25,0.55,0.56,0.29,0.33,0.4,0.55,0.25,0.55,0.48,0.52,0.6,0.48,0.4,0.29,0.88,0.48,0.58,0.33,0.25" style="fill:rgb(0,0,0);font-family:BookAntiqua;font-size:10.02px;stroke:none;">smoke [47, 48]. Additionally, an in vitro experiment </text>
   <text y="623.467" x="58.656,64.477,69.517,73.778,76.283,80.622,86.682,89.623,93.882,98.321,103.782,109.422,114.223,118.122,122.923,129.042,131.547,135.886,139.122,144.943,149.983,153.22,155.725,160.058,164.318,170.38,174.281,179.861,182.797,187.176,192.216,195.152,197.65699999999998,201.996,206.256,215.076,220.476,226.056,230.796,233.301,237.64,240.997,244.957,250.417,259.236,261.741,266.08,271.899,277.962,286.721,291.701,297.522" svgx:width="0.58,0.5,0.42,0.25,0.55,0.61,0.29,0.42,0.44,0.55,0.56,0.48,0.4,0.48,0.61,0.25,0.55,0.33,0.58,0.5,0.33,0.25,0.55,0.42,0.6,0.4,0.56,0.29,0.44,0.5,0.29,0.25,0.55,0.42,0.88,0.55,0.56,0.48,0.25,0.55,0.33,0.4,0.55,0.88,0.25,0.55,0.58,0.6,0.88,0.5,0.58,0.25" style="fill:rgb(0,0,0);font-family:BookAntiqua;font-size:10.02px;stroke:none;">has discovered that surgical smoke from human </text>
   <text y="635.892" x="58.656,64.176,68.136,72.935,77.975,82.234,85.473,87.978,93.99,97.23,100.111,104.369,108.569,114.628,119.369,123.627,126.13199999999999,132.144,137.785,140.664,145.705,148.21,154.176,158.976,161.917,166.716,171.156,174.397,178.297,183.756,188.196,193.236,199.296,202.536,207.336,211.235,216.815,219.32,225.332,229.532,235.592,239.493,245.072,248.013,252.392,257.432,260.312,262.817,268.829,274.951,279.751,285.391,288.331,292.771,297.513" svgx:width="0.55,0.4,0.48,0.5,0.42,0.33,0.25,0.55,0.33,0.29,0.42,0.42,0.6,0.48,0.42,0.25,0.55,0.56,0.29,0.5,0.25,0.55,0.48,0.29,0.48,0.44,0.33,0.4,0.55,0.44,0.5,0.6,0.33,0.48,0.4,0.56,0.25,0.55,0.42,0.6,0.4,0.56,0.29,0.44,0.5,0.29,0.25,0.55,0.61,0.48,0.56,0.29,0.44,0.48,0.25" style="fill:rgb(0,0,0);font-family:BookAntiqua;font-size:10.02px;stroke:none;">breast tissues via electrocautery surgical device </text>
   <text y="648.317" x="58.656,61.596,67.417,73.537,79.597,84.035,88.775,94.895,97.355,101.794,107.373,110.613,116.074,119.315,124.776,129.936,132.876,137.315,140.255,143.495,149.076,151.541,154.477,160.299,162.764,168.525,174.525,183.343,188.383,194.203,196.663,200.924,209.741,214.721,217.661,220.602,223.002,227.982,230.922,234.822,243.162,248.202,253.782,256.242,261.043,267.043,269.983,273.219,279.04,283.779,286.72,289.6,294.58,297.52" svgx:width="0.29,0.58,0.61,0.6,0.44,0.48,0.61,0.25,0.44,0.56,0.33,0.55,0.33,0.55,0.52,0.29,0.44,0.29,0.33,0.56,0.25,0.29,0.58,0.25,0.58,0.6,0.88,0.5,0.58,0.25,0.42,0.88,0.5,0.29,0.29,0.25,0.5,0.29,0.4,0.83,0.5,0.56,0.25,0.48,0.6,0.29,0.33,0.58,0.48,0.29,0.29,0.5,0.29,0.25" style="fill:rgb(0,0,0);font-family:BookAntiqua;font-size:10.02px;stroke:none;">induced cytotoxicity in human small airway epithelial </text>
   <text y="660.742" x="58.666,63.105,67.905,70.845,73.725,77.985,80.49,84.166,89.206,95.027,101.087,103.592,107.33,116.089,121.55,127.609,131.87,136.61,139.115,142.853,151.673,156.714,161.093,165.053,170.514,176.515,182.337,187.377,192.957,197.697,201.942,204.447,208.124,211.484,216.464,221.444,224.807,227.267,229.772,233.51,236.386,245.205,251.205,254.145,259.725,262.665,268.486,274.006,276.51099999999997,280.248,283.485,289.304,294.344,297.523" svgx:width="0.44,0.48,0.29,0.29,0.42,0.25,0.55,0.5,0.58,0.61,0.25,0.55,0.88,0.55,0.6,0.42,0.48,0.25,0.55,0.88,0.5,0.44,0.4,0.55,0.6,0.58,0.5,0.56,0.48,0.42,0.25,0.55,0.33,0.5,0.5,0.33,0.25,0.25,0.55,0.29,0.88,0.6,0.29,0.56,0.29,0.58,0.56,0.25,0.55,0.33,0.58,0.5,0.33,0.25" style="fill:rgb(0,0,0);font-family:BookAntiqua;font-size:10.02px;stroke:none;">cells and mouse macrophages [39], implying that </text>
   <text y="673.227" x="58.666,62.925,68.987,72.947,78.468,81.404,85.784,90.824,93.76,96.265,99.167,103.427,112.245,117.645,123.225,128.025,130.53,133.486,142.304,147.284,152.864,155.369,158.325,163.846,168.645,171.15,174.045,179.025,184.846,187.351,190.307,195.766,200.206,204.646,210.706,216.706,221.747,224.927,227.867,233.327,239.087,244.127,247.007,249.512,252.468,258.287,263.267,268.247,273.287,277.247,283.367,285.872,288.828,292.065,297.525" svgx:width="0.42,0.6,0.4,0.56,0.29,0.44,0.5,0.29,0.25,0.55,0.42,0.88,0.55,0.56,0.48,0.25,0.55,0.88,0.5,0.56,0.25,0.55,0.55,0.48,0.25,0.55,0.5,0.58,0.25,0.55,0.55,0.44,0.44,0.6,0.6,0.5,0.33,0.29,0.55,0.58,0.5,0.29,0.25,0.55,0.58,0.5,0.5,0.5,0.4,0.61,0.25,0.55,0.33,0.55,0.25" style="fill:rgb(0,0,0);font-family:BookAntiqua;font-size:10.02px;stroke:none;">surgical smoke may be an occupational hazard to </text>
   <text y="685.651" x="58.666,64.485,69.285,74.325,77.265,80.504,86.325,90.705,95.745,99.703,104.443,106.948,108.762,117.041,122.501,126.459,132.038,136.838,140.796,145.008,147.528,150.033,151.852,155.211,158.392,160.897,162.71,171.051,176.031,180.291,182.796,184.609,190.429,195.889,199.069,201.57399999999998,203.388,209.51,214.309,217.55,222.349,226.307,235.068,238.008,243.827,248.627,254.687,257.192,259.006,261.946,267.706,270.211,272.025,276.765,279.705,282.944,288.765,293.565,297.523" svgx:width="0.58,0.48,0.5,0.29,0.33,0.58,0.44,0.5,0.4,0.48,0.25,0.55,0.83,0.55,0.4,0.56,0.48,0.4,0.42,0.25,0.25,0.55,0.34,0.33,0.25,0.55,0.83,0.5,0.42,0.25,0.55,0.58,0.55,0.33,0.25,0.55,0.61,0.48,0.33,0.48,0.4,0.88,0.29,0.58,0.48,0.61,0.25,0.55,0.29,0.58,0.25,0.55,0.48,0.29,0.33,0.58,0.48,0.4,0.25" style="fill:rgb(0,0,0);font-family:BookAntiqua;font-size:10.02px;stroke:none;">healthcare workers. It was not determined in either </text>
   <text y="698.076" x="58.676,62.935,66.176,72.236,78.358,83.938,86.443,88.497,96.838,102.658,107.457,110.697,116.457,121.257,125.215,127.72,129.774,133.014,138.834,143.633,146.138,148.192,154.192,157.132,163.192,172.013,176.752,181.013,183.518,185.572,190.612,195.052,198.291,204.291,209.271,212.211,215.151,220.731,223.236,225.29,231.29,236.69,240.951,245.75,251.872,254.377,256.372,261.412,263.917,265.972,270.232,275.032,278.931,281.871,287.332,293.332,297.532" svgx:width="0.42,0.33,0.6,0.61,0.56,0.25,0.55,0.83,0.58,0.48,0.33,0.58,0.48,0.4,0.25,0.55,0.33,0.58,0.48,0.25,0.55,0.6,0.29,0.6,0.88,0.48,0.42,0.25,0.55,0.5,0.44,0.33,0.6,0.5,0.29,0.29,0.56,0.25,0.55,0.6,0.55,0.42,0.48,0.61,0.25,0.55,0.5,0.25,0.55,0.42,0.48,0.4,0.29,0.55,0.6,0.42,0.25" style="fill:rgb(0,0,0);font-family:BookAntiqua;font-size:10.02px;stroke:none;">study whether the plumes actually posed a serious </text>
   <text y="710.501" x="58.676,64.495,69.295,74.335,77.275,80.514,86.275,88.78,93.359,97.317,100.197,104.457,109.977,112.482,116.997,120.237,125.697,128.202,132.781,138.781,143.58,147.538,150.478,155.938,161.938,166.737,170.638,175.618,178.858,181.798,187.438,192.237,194.742,199.321,205.321,210.121,214.079,218.338,223.798,229.619,235.378,240.178,243.118,245.578,248.083,252.662,258.182,264.242,267.481,269.986,274.566,283.385,288.846,292.746,297.545" svgx:width="0.58,0.48,0.5,0.29,0.33,0.58,0.25,0.55,0.4,0.29,0.42,0.56,0.25,0.55,0.33,0.55,0.25,0.55,0.6,0.48,0.4,0.29,0.55,0.6,0.48,0.4,0.5,0.33,0.29,0.56,0.48,0.25,0.55,0.6,0.48,0.4,0.42,0.55,0.58,0.58,0.48,0.29,0.25,0.25,0.55,0.55,0.6,0.33,0.25,0.55,0.88,0.55,0.4,0.48,0.25" style="fill:rgb(0,0,0);font-family:BookAntiqua;font-size:10.02px;stroke:none;">health risk to perioperative personnel, but more </text>
   <text y="722.926" x="58.676,63.716,66.956,70.196,74.996,80.818,84.058,86.998,92.459,98.281,100.786,101.577,105.838,111.66,117.059,123.119,126.059,132.179,134.684,135.476,140.996,145.737,148.242,149.033,155.033,160.013,162.953,169.073,171.578,172.37,175.669,181.13,185.09,187.595,188.387,192.647,198.707,202.607,208.187,212.987,218.448,224.269,226.774,227.566,230.806,236.206,238.71099999999998,239.503,243.762,248.742,252.103,256.903,260.143,263.083,267.883,273.523,278.323,281.203,285.463,287.968,288.76,294.221,297.521" svgx:width="0.5,0.33,0.33,0.48,0.58,0.33,0.29,0.55,0.58,0.25,0.55,0.42,0.58,0.55,0.6,0.29,0.61,0.25,0.55,0.55,0.48,0.25,0.55,0.6,0.5,0.29,0.61,0.25,0.55,0.33,0.55,0.4,0.25,0.55,0.42,0.6,0.4,0.56,0.48,0.55,0.58,0.25,0.55,0.33,0.55,0.25,0.55,0.42,0.5,0.33,0.48,0.25,0.29,0.48,0.56,0.48,0.29,0.42,0.25,0.55,0.55,0.33,0.25" style="fill:rgb(0,0,0);font-family:BookAntiqua;font-size:10.02px;stroke:none;">attention should be paid for surgeon to safe levels of </text>
   <text y="735.351" x="58.676,63.716,72.533,78.054,80.994,85.794,91.615,94.851,97.371,106.189,112.253,115.433,120.473,126.054,130.855,136.614,140.873,143.335" svgx:width="0.5,0.88,0.55,0.29,0.48,0.58,0.33,0.25,0.88,0.6,0.33,0.5,0.56,0.48,0.58,0.42,0.25,0.25" style="fill:rgb(0,0,0);font-family:BookAntiqua;font-size:10.02px;stroke:none;">ambient mutagens. </text>
   <text y="66.9" x="314.58,322.26,325.258,331.802,334.8,341.344,347.284,350.281,355.801,361.622,364.619,367.682,373.143,379.687,390.187,396.61,403.154,409.578,415.638,422.061,426.501,431.181,434.301,440.846,444.146,447.21,451.89,458.314,463.234,469.174,472.171,477.691,483.512,486.509,489.573,494.252,504.752,511.297,517.356,523.442" svgx:width="0.7,0.27,0.59,0.27,0.59,0.54,0.27,0.5,0.53,0.27,0.28,0.5,0.59,0.96,0.58,0.59,0.58,0.55,0.58,0.41,0.43,0.28,0.59,0.3,0.28,0.43,0.58,0.45,0.54,0.27,0.5,0.53,0.27,0.28,0.43,0.96,0.59,0.55,0.55,0.28" style="fill:rgb(0,0,0);font-family:GillSansMT-Bold;font-size:10.98px;stroke:none;">Biological components of surgical smoke </text>
   <text y="84.655" x="314.58,321.24,323.634,328.312,333.831,336.231,341.512,344.575,353.03,357.707,360.107,362.508,367.185,372.765,377.443,382.962,386.622,389.685,394.484,399.764,402.164,404.564,408.764,411.896" svgx:width="0.6,0.22,0.43,0.5,0.22,0.48,0.28,0.77,0.43,0.22,0.22,0.43,0.5,0.43,0.5,0.33,0.28,0.44,0.48,0.22,0.22,0.38,0.28,0.28" style="fill:rgb(0,0,0);font-family:GillSansMT;font-size:10.98px;stroke:none;">Viable malignant cells </text>
   <text y="99.84" x="337.26,340.62,346.44,348.945,361.32,366.36,372.482,378.605,381.545,384.725,387.665,393.065,398.883,401.388,413.763,416.999,422.46,424.965,437.34,440.58,446.402,451.262,453.767,466.141,471.782,476.822,480.781,483.721,489.121,495.181,499.382,501.887,514.261,518.7,524.522,529.322,538.142,541.082,545.521,550.502" svgx:width="0.34,0.58,0.25,0.55,0.5,0.61,0.61,0.29,0.33,0.29,0.55,0.58,0.25,0.55,0.33,0.55,0.25,0.55,0.33,0.58,0.48,0.25,0.55,0.56,0.5,0.4,0.29,0.55,0.6,0.42,0.25,0.55,0.44,0.58,0.48,0.88,0.29,0.44,0.5,0.29" style="fill:rgb(0,0,0);font-family:BookAntiqua;font-size:10.02px;stroke:none;">In addition to the various chemical</text>
   <text y="99.84" x="553.442" svgx:width="0.25" style="fill:rgb(0,0,0);font-family:BookAntiqua-Bold;font-size:10.02px;stroke:none;"> </text>
   <text y="112.265" x="314.585,319.024,324.485,333.305,339.305,344.766,349.027,351.966,355.207,358.147,363.608,369.429,373.623,376.148,378.653,390.847,395.107,401.169,405.129,410.649,413.584,417.964,423.004,425.887,428.392,440.646,444.906,453.727,459.186,464.707,469.504,472.009,484.203,489.243,492.119,496.38,501.839,504.344,516.598,521.037,526.498,532.319,535.5,540.54,543.419,549.241,553.441" svgx:width="0.44,0.55,0.88,0.6,0.55,0.42,0.29,0.33,0.29,0.55,0.58,0.42,0.25,0.25,0.55,0.42,0.6,0.4,0.56,0.29,0.44,0.5,0.29,0.25,0.55,0.42,0.88,0.55,0.56,0.48,0.25,0.55,0.5,0.29,0.42,0.55,0.25,0.55,0.44,0.55,0.58,0.33,0.5,0.29,0.58,0.42,0.25" style="fill:rgb(0,0,0);font-family:BookAntiqua;font-size:10.02px;stroke:none;">compositions, surgical smoke also contains </text>
   <text y="124.69" x="314.575,317.815,321.775,326.815,332.635,336.894,345.715,348.595,352.855,357.115,360.05,365.51,368.446,373.247,375.707,378.287,383.927,386.863,391.903,397.423,400.359,405.158,407.739,416.499,421.479,424.415,427.351,432.871,438.691,443.73,449.551,452.811,455.386,459.826,464.626,467.566,470.442,474.701,477.229,479.754,487.55,491.75,494.331,499.13,504.17,508.131,511.011,516.591,519.171,524.151,528.412,530.991,535.971,540.951,545.93,550.91,553.43" svgx:width="0.33,0.4,0.5,0.58,0.42,0.88,0.29,0.42,0.42,0.29,0.55,0.29,0.48,0.25,0.25,0.56,0.29,0.5,0.55,0.29,0.48,0.25,0.88,0.5,0.29,0.29,0.56,0.58,0.5,0.58,0.33,0.25,0.44,0.48,0.29,0.29,0.42,0.25,0.25,0.78,0.42,0.25,0.48,0.5,0.4,0.29,0.56,0.25,0.5,0.42,0.25,0.5,0.5,0.5,0.5,0.25,0.25" style="fill:rgb(0,0,0);font-family:BookAntiqua;font-size:10.02px;stroke:none;">transmissible, viable malignant cells. As early as 1999, </text>
   <text y="137.114" x="314.575,320.155,323.095,327.895,331.135,335.574,341.395,346.195,350.156,353.272,358.072,361.312,364.368,369.408,372.284,374.755,377.871,381.231,386.211,391.191,394.554,397.671,402.11,407.09,413.15,416.387,421.187,425.147,428.027,433.007,437.807,443.933,447.049,453.051,457.851,460.726,463.666,468.466,471.706,475.966,479.082,484.542,487.839,490.907,497.027,502.007,507.049,510.406,515.927,520.967,524.083,532.902,538.303,544.363,548.562,553.422" svgx:width="0.56,0.29,0.48,0.33,0.44,0.58,0.48,0.4,0.25,0.48,0.33,0.25,0.5,0.29,0.25,0.25,0.33,0.5,0.5,0.33,0.25,0.44,0.5,0.6,0.33,0.48,0.4,0.29,0.5,0.48,0.61,0.25,0.6,0.48,0.29,0.29,0.48,0.33,0.42,0.25,0.55,0.33,0.25,0.61,0.5,0.5,0.33,0.56,0.5,0.25,0.88,0.55,0.6,0.42,0.48,0.25" style="fill:rgb(0,0,0);font-family:BookAntiqua;font-size:10.02px;stroke:none;">Fletcher et al. [24] cauterized pellets of B16-F0 mouse </text>
   <text y="149.539" x="314.565,323.384,328.185,331.121,336.161,341.98,347.441,356.201,361.241,363.746,366.762,371.142,375.882,378.818,381.754,385.967,388.472,391.488,394.729,400.19,402.695,405.71,410.148,415.548,418.488,421.369,426.168,430.607,433.848,436.353,439.368,445.368,448.308,454.368,463.128,467.388,469.893,472.849,477.889,483.71,489.77,492.275,495.231,500.271,504.532,508.731,513.532,517.792,522.052,526.792,532.913,535.418,538.432,542.81,547.611,550.491,553.43" svgx:width="0.88,0.48,0.29,0.5,0.58,0.55,0.88,0.5,0.25,0.55,0.44,0.48,0.29,0.29,0.42,0.25,0.55,0.33,0.55,0.25,0.55,0.44,0.55,0.29,0.29,0.48,0.44,0.33,0.25,0.55,0.6,0.29,0.6,0.88,0.42,0.25,0.55,0.5,0.58,0.61,0.25,0.55,0.5,0.42,0.42,0.48,0.42,0.42,0.48,0.61,0.25,0.55,0.44,0.48,0.29,0.29,0.25" style="fill:rgb(0,0,0);font-family:BookAntiqua;font-size:10.02px;stroke:none;">melanoma cells to collect plums and assessed cell </text>
   <text y="161.964" x="314.575,320.215,323.151,328.191,333.711,336.591,339.526,342.462,345.703,351.238,354.474,359.994,365.515,368.752,371.991,377.812,382.612,385.848,394.128,399.168,404.689,407.925,413.385,416.685,419.921,423.157,428.977,433.777,437.013,440.25,444.209,449.79,455.729,460.77,466.589,469.826,475.285,478.225,484.285,489.026,492.262,497.242,501.503,505.703,510.743,516.297,519.534,524.574,530.335,536.458,539.694,542.934,548.696,553.436" svgx:width="0.56,0.29,0.5,0.55,0.29,0.29,0.29,0.33,0.56,0.25,0.55,0.56,0.25,0.33,0.58,0.48,0.25,0.83,0.5,0.56,0.25,0.55,0.33,0.25,0.33,0.58,0.48,0.25,0.33,0.4,0.56,0.6,0.5,0.58,0.25,0.55,0.29,0.6,0.48,0.25,0.5,0.42,0.42,0.5,0.56,0.25,0.5,0.58,0.61,0.25,0.33,0.58,0.48,0.25" style="fill:rgb(0,0,0);font-family:BookAntiqua;font-size:10.02px;stroke:none;">viability by the way of the trypan blue assay and the </text>
   <text y="174.389" x="314.575,317.811,322.611,325.847,329.807,334.847,339.887,345.347,348.227,351.167,357.227,366.044,369.044,374.625,377.564,382.604,388.125,391.004,393.945,396.885,400.121,405.702,408.637,413.678,417.878,422.138,427.118,432.711,435.17,438.166,446.507,452.329,455.269,459.707,465.529,468.525,472.785,478.607,484.068,492.349,497.148,503.268,506.264,509.505,515.326,520.367,523.607,526.603,532.244,535.184,540.224,545.745,548.625,553.424" svgx:width="0.33,0.48,0.33,0.4,0.5,0.5,0.55,0.29,0.29,0.6,0.88,0.25,0.56,0.29,0.5,0.55,0.29,0.29,0.29,0.33,0.56,0.25,0.5,0.42,0.42,0.5,0.56,0.25,0.25,0.83,0.58,0.29,0.44,0.58,0.25,0.42,0.58,0.55,0.83,0.48,0.61,0.25,0.33,0.58,0.5,0.33,0.25,0.56,0.29,0.5,0.55,0.29,0.48,0.25" style="fill:rgb(0,0,0);font-family:BookAntiqua;font-size:10.02px;stroke:none;">tetrazolium viability assay, which showed that viable </text>
   <text y="186.814" x="314.575,323.394,328.195,331.131,336.171,341.99,347.451,356.211,361.251,363.756,366.772,371.212,375.952,378.888,381.824,386.023,388.528,391.544,399.884,404.683,408.644,413.384,415.889,418.905,424.905,428.865,433.605,437.865,442.665,448.485,451.725,454.23,457.246,460.182,466.002,468.507,471.523,474.763,480.583,485.323,487.828,490.783,495.223,501.285,504.221,507.462,513.524,517.423,522.223,524.728,527.744,536.085,540.824,543.76,546.696,550.916,553.436" svgx:width="0.88,0.48,0.29,0.5,0.58,0.55,0.88,0.5,0.25,0.55,0.44,0.48,0.29,0.29,0.42,0.25,0.55,0.83,0.48,0.4,0.48,0.25,0.55,0.6,0.4,0.48,0.42,0.48,0.58,0.33,0.25,0.55,0.29,0.58,0.25,0.55,0.33,0.58,0.48,0.25,0.55,0.44,0.6,0.29,0.33,0.6,0.4,0.48,0.25,0.55,0.83,0.48,0.29,0.29,0.42,0.25,0.25" style="fill:rgb(0,0,0);font-family:BookAntiqua;font-size:10.02px;stroke:none;">melanoma cells were present in the culture wells. </text>
   <text y="199.238" x="314.575,320.695,326.515,331.314,335.574,340.373,342.878,353.034,356.933,361.733,365.992,371.992,374.873,378.113,382.373,384.878,395.032,401.155,405.954,414.775,420.235,426.054,430.315,433.494,437.452,442.492,445.732,450.532,456.654,459.159,469.315,472.555,478.314,483.355,486.594,489.099,499.254,505.254,508.194,514.253,523.011,527.811,532.012,534.5169999999999,544.611,550.072,553.432" svgx:width="0.61,0.58,0.48,0.42,0.48,0.25,0.55,0.4,0.48,0.42,0.6,0.29,0.33,0.42,0.25,0.55,0.61,0.48,0.88,0.55,0.58,0.42,0.33,0.4,0.5,0.33,0.48,0.61,0.25,0.55,0.33,0.58,0.5,0.33,0.25,0.55,0.6,0.29,0.6,0.88,0.48,0.42,0.25,0.55,0.55,0.33,0.25" style="fill:rgb(0,0,0);font-family:BookAntiqua;font-size:10.02px;stroke:none;">These results demonstrated that plumes of </text>
   <text y="211.723" x="314.575,319.374,322.315,327.115,331.554,334.794,338.754,344.215,348.654,353.634,359.694,362.933,367.734,371.634,377.214,379.719,381.893,386.332,391.793,397.614,400.854,405.894,408.834,414.594,419.394,425.514,428.019,430.135,438.955,443.995,446.875,449.815,455.395,461.155,466.195,472.015,475.255,477.76,479.935,484.375,489.115,492.051,494.987,499.193,501.698,503.873,512.209,518.03,520.97,525.41,531.17,533.675,535.849,544.186,549.166,553.426" svgx:width="0.48,0.29,0.48,0.44,0.33,0.4,0.55,0.44,0.5,0.6,0.33,0.48,0.4,0.56,0.25,0.55,0.44,0.55,0.58,0.33,0.5,0.29,0.58,0.48,0.61,0.25,0.55,0.88,0.5,0.29,0.29,0.56,0.58,0.5,0.58,0.33,0.25,0.55,0.44,0.48,0.29,0.29,0.42,0.25,0.55,0.83,0.58,0.29,0.44,0.58,0.25,0.55,0.83,0.5,0.42,0.25" style="fill:rgb(0,0,0);font-family:BookAntiqua;font-size:10.02px;stroke:none;">electrocautery contained malignant cells which was </text>
   <text y="224.148" x="314.575,320.215,323.155,328.195,333.715,336.655,341.394,343.899,346.014,351.054,356.873,362.935,365.44,367.555,376.374,381.414,386.934,389.439,391.614,396.413,401.574,407.574,410.453,415.493,418.433,424.194,426.699,428.813,432.053,437.875,442.674,445.179,447.354,452.394,458.394,464.394,469.134,474.174,478.074,483.114,488.875,493.313,498.114,500.61899999999997,502.793,508.254,511.554,514.059,516.233,522.233,527.694,531.654,534.895,538.191,542.451,545.391,548.568,553.432" svgx:width="0.56,0.29,0.5,0.55,0.29,0.48,0.25,0.55,0.5,0.58,0.61,0.25,0.55,0.88,0.5,0.56,0.25,0.55,0.48,0.52,0.6,0.29,0.5,0.29,0.58,0.25,0.55,0.33,0.58,0.48,0.25,0.55,0.5,0.6,0.6,0.48,0.5,0.4,0.5,0.58,0.44,0.48,0.25,0.55,0.55,0.33,0.25,0.55,0.6,0.55,0.4,0.33,0.33,0.42,0.29,0.33,0.48,0.25" style="fill:rgb(0,0,0);font-family:BookAntiqua;font-size:10.02px;stroke:none;">viable and may explain the appearance of port-site </text>
   <text y="236.573" x="314.575,323.392,328.193,331.429,336.469,340.729,343.965,349.005,353.205,358.005,362.265,364.77,369.65,372.886,378.707,383.747,386.983,389.488,394.374,402.714,407.513,411.471,416.271,418.776,423.652,427.61,432.351,441.17,446.63,449.871,454.67,460.793,463.298,468.172,471.532,475.49,480.95,489.769,492.274,497.149,500.39,506.209,511.009,513.514,518.389,522.648,528.708,532.666,538.246,541.186,545.567,550.547,553.427" svgx:width="0.88,0.48,0.33,0.5,0.42,0.33,0.5,0.42,0.48,0.42,0.25,0.55,0.33,0.58,0.5,0.33,0.25,0.55,0.83,0.48,0.4,0.48,0.25,0.55,0.4,0.48,0.88,0.55,0.33,0.48,0.61,0.25,0.55,0.33,0.4,0.55,0.88,0.25,0.55,0.33,0.58,0.48,0.25,0.55,0.42,0.6,0.4,0.56,0.29,0.44,0.5,0.29,0.25" style="fill:rgb(0,0,0);font-family:BookAntiqua;font-size:10.02px;stroke:none;">metastases that were remoted from the surgical </text>
   <text y="248.998" x="314.575,320.695,323.635,327.895,332.095,336.895,341.334,344.575,347.514,352.975,358.797,361.302,362.575,368.035,371.995,374.5,375.716,381.537,386.338,391.978,396.778,400.738,403.243,404.515,407.455,413.277,415.782,417.054,423.114,426.054,430.014,434.755,439.193,442.434,444.939,446.211,450.65,456.111,461.933,465.173,470.212,474.651,477.891,480.396,481.668,490.008,492.889,496.128,501.95,504.455,505.727,508.968,514.789,519.59,522.095,523.367,526.608,532.668,541.488,546.948,550.908,553.432" svgx:width="0.61,0.29,0.42,0.42,0.48,0.44,0.33,0.29,0.55,0.58,0.25,0.55,0.55,0.4,0.25,0.55,0.58,0.48,0.56,0.48,0.4,0.25,0.55,0.29,0.58,0.25,0.55,0.61,0.29,0.4,0.48,0.44,0.33,0.25,0.55,0.44,0.55,0.58,0.33,0.5,0.44,0.33,0.25,0.55,0.83,0.29,0.33,0.58,0.25,0.55,0.33,0.58,0.48,0.25,0.55,0.33,0.6,0.88,0.55,0.4,0.25,0.25" style="fill:rgb(0,0,0);font-family:BookAntiqua;font-size:10.02px;stroke:none;">dissection or never in direct contact with the tumor. </text>
   <text y="261.423" x="314.575,322.375,328.197,333.658,336.898,342.72,347.521,351.48,353.985,356.581,360.84,364.081,370.081,376.201,381.781,384.286,386.881,391.861,394.801,399.061,404.522,407.027,409.554,414.594,418.853,423.111,427.851,432.109,436.368,441.168,447.288,449.793,452.388,455.627,461.448,466.248,468.753,471.348,476.388,481.848,484.788,487.667,490.607,493.848,499.429,501.93399999999997,504.529,509.989,513.349,515.854,518.449,522.649,528.709,532.67,538.19,541.13,545.509,550.549,553.43" svgx:width="0.78,0.58,0.55,0.33,0.58,0.48,0.4,0.25,0.55,0.42,0.33,0.6,0.61,0.56,0.25,0.55,0.5,0.29,0.42,0.55,0.25,0.55,0.5,0.42,0.42,0.48,0.42,0.42,0.48,0.61,0.25,0.55,0.33,0.58,0.48,0.25,0.55,0.5,0.55,0.29,0.29,0.29,0.33,0.56,0.25,0.55,0.55,0.33,0.25,0.55,0.42,0.6,0.4,0.56,0.29,0.44,0.5,0.29,0.25" style="fill:rgb(0,0,0);font-family:BookAntiqua;font-size:10.02px;stroke:none;">Another study also assessed the ability of surgical </text>
   <text y="273.847" x="314.575,318.833,327.654,333.114,338.695,343.494,345.834,349.075,354.474,356.814,361.073,367.073,371.032,375.773,380.813,386.879,389.224,394.264,399.004,402.964,408.424,412.684,418.143,421.019,423.895,428.934,433.674,435.959,444.779,449.819,452.694,455.634,461.214,466.975,472.015,477.835,481.074,483.415,487.855,492.594,495.47,498.411,502.61,504.965,510.485,516.066,518.406,521.645,527.466,532.205,534.55,542.829,547.869,553.451" svgx:width="0.42,0.88,0.55,0.56,0.48,0.25,0.33,0.55,0.25,0.42,0.6,0.4,0.48,0.5,0.61,0.25,0.5,0.48,0.4,0.55,0.42,0.55,0.29,0.29,0.5,0.48,0.25,0.88,0.5,0.29,0.29,0.56,0.58,0.5,0.58,0.33,0.25,0.44,0.48,0.29,0.29,0.42,0.25,0.55,0.56,0.25,0.33,0.58,0.48,0.25,0.83,0.5,0.56,0.25" style="fill:rgb(0,0,0);font-family:BookAntiqua;font-size:10.02px;stroke:none;">smoke to spread aerosolize malignant cells by the way </text>
   <text y="286.272" x="314.585,320.046,323.406,325.911,327.786,332.225,337.686,340.626,343.507,348.306,352.745,355.985,358.925,364.747,370.327,372.832,374.646,377.881,383.702,386.642,390.602,393.838,399.424,402.781,406.077,409.018,414.657,419.458,421.963,423.843,429.845,434.825,438.061,441.001,445.801,451.621,454.858,459.118,461.623,463.502,469.562,475.384,481.504,486.305,490.204,495.724,501.185,504.125,509.947,515.526,518.031,519.905,524.704,527.585,532.384,536.824,540.065,543.005,548.645,553.444" svgx:width="0.55,0.33,0.25,0.55,0.44,0.55,0.29,0.29,0.48,0.44,0.33,0.29,0.58,0.56,0.25,0.55,0.33,0.58,0.29,0.4,0.33,0.56,0.33,0.33,0.29,0.56,0.48,0.25,0.55,0.6,0.5,0.33,0.29,0.48,0.58,0.33,0.42,0.25,0.55,0.6,0.58,0.61,0.48,0.4,0.56,0.55,0.29,0.58,0.56,0.25,0.55,0.48,0.29,0.48,0.44,0.33,0.29,0.56,0.48,0.25" style="fill:rgb(0,0,0);font-family:BookAntiqua;font-size:10.02px;stroke:none;">of collecting thirty-five patients undergoing elective </text>
   <text y="298.697" x="314.585,317.525,322.565,328.505,333.546,337.505,342.966,347.226,351.665,357.126,363.126,368.643,371.158,373.913,381.714,385.972,388.728,393.767,396.587,400.547,405.287,409.545,415.546,418.486,421.726,424.241,426.996,431.976,436.776,440.734,446.193,450.454,455.914,458.794,461.734,466.713,471.513,477.635,480.451,489.21,494.01,498.27,503.73,506.971,512.79,517.59,520.531,523.411,528.391,531.33,534.146,538.586,543.326,546.266,549.146,553.406" svgx:width="0.29,0.5,0.6,0.5,0.4,0.55,0.42,0.44,0.55,0.6,0.56,0.25,0.25,0.78,0.42,0.25,0.5,0.25,0.4,0.48,0.42,0.6,0.29,0.33,0.25,0.25,0.5,0.48,0.4,0.55,0.42,0.55,0.29,0.29,0.5,0.48,0.61,0.25,0.88,0.48,0.42,0.55,0.33,0.58,0.48,0.29,0.29,0.5,0.29,0.25,0.44,0.48,0.29,0.29,0.42,0.25" style="fill:rgb(0,0,0);font-family:BookAntiqua;font-size:10.02px;stroke:none;">laparoscopy. As a result, aerosolized mesothelial cells </text>
   <text y="311.122" x="314.585,322.924,327.724,331.682,336.482,338.987,340.079,343.019,349.141,353.94,359.761,362.941,365.881,369.181,372.061,376.86,382.982,385.487,386.589,392.049,397.871,400.811,406.391,408.896,409.928,412.868,418.69,421.195,422.29,425.47,433.81,439.27,441.775,442.867,448.867,453.907,457.143,460.083,464.883,470.703,473.94,478.211,480.731,483.236,484.268,489.789,495.851,499.093,501.598,502.69,508.151,513.973,518.773,521.278,522.371,528.371,533.411,536.651,539.591,544.33,550.152,553.452" svgx:width="0.83,0.48,0.4,0.48,0.25,0.55,0.29,0.61,0.48,0.58,0.33,0.29,0.33,0.29,0.48,0.61,0.25,0.55,0.55,0.58,0.29,0.56,0.25,0.55,0.29,0.58,0.25,0.55,0.33,0.83,0.55,0.25,0.55,0.6,0.5,0.33,0.29,0.48,0.58,0.33,0.42,0.25,0.25,0.55,0.55,0.6,0.33,0.25,0.55,0.55,0.58,0.48,0.25,0.55,0.6,0.5,0.33,0.29,0.48,0.58,0.33,0.25" style="fill:rgb(0,0,0);font-family:BookAntiqua;font-size:10.02px;stroke:none;">were identified only in two patients, but one patient </text>
   <text y="323.607" x="314.595,322.934,328.755,334.215,336.71999999999997,340.037,346.157,349.033,353.293,359.293,362.169,367.209,372.729,377.528,383.649,386.154,389.47,393.91,398.651,401.59,404.466,410.526,413.402,418.442,422.342,424.847,428.102,433.082,437.882,441.842,447.302,451.562,457.022,459.898,462.851,467.831,472.871,476.11,479.051,484.511,490.27,492.775,496.091,502.213,507.013,512.653,517.393,520.332,525.792,531.792,536.592,542.652,545.157,548.413,553.454" svgx:width="0.83,0.58,0.55,0.25,0.55,0.61,0.29,0.42,0.6,0.29,0.5,0.56,0.48,0.61,0.25,0.55,0.44,0.48,0.29,0.29,0.6,0.29,0.5,0.4,0.25,0.55,0.5,0.48,0.4,0.55,0.42,0.55,0.29,0.29,0.5,0.5,0.33,0.29,0.55,0.58,0.25,0.55,0.61,0.48,0.56,0.48,0.29,0.55,0.6,0.48,0.61,0.25,0.55,0.5,0.25" style="fill:rgb(0,0,0);font-family:BookAntiqua;font-size:10.02px;stroke:none;">who displayed cellular aerosolization developed a </text>
   <text y="336.031" x="314.595,320.597,326.057,330.017,333.252,336.609,340.868,343.809,347.049,351.848,354.353,355.265,359.223,364.022,368.462,374.462,378.42,382.378,387.178,392.997,397.438,402.238,404.743,405.667,410.707,414.066,417.307,422.106,426.004,428.509,429.481,432.791,438.252,441.191,444.132,449.593,457.871,460.811,466.632,472.209,475.506,481.566,487.566,490.07099999999997,490.983,496.023,498.528,499.503,502.739,508.199,510.704,511.616,516.596,519.101,520.076,528.893,534.353,540.174,543.41,549.23,553.442" svgx:width="0.6,0.55,0.4,0.33,0.33,0.42,0.29,0.33,0.48,0.25,0.55,0.4,0.48,0.44,0.6,0.4,0.4,0.48,0.58,0.44,0.48,0.25,0.55,0.5,0.33,0.33,0.48,0.4,0.25,0.55,0.33,0.55,0.29,0.29,0.55,0.83,0.29,0.58,0.56,0.33,0.6,0.6,0.25,0.55,0.5,0.25,0.55,0.33,0.55,0.25,0.55,0.5,0.25,0.55,0.88,0.55,0.58,0.33,0.58,0.42,0.25" style="fill:rgb(0,0,0);font-family:BookAntiqua;font-size:10.02px;stroke:none;">port-site recurrence after following-up 2 to 7 months </text>
   <text y="348.456" x="314.585,317.941,322.921,327.961,331.258,333.778,336.283,339.474,342.834,348.595,351.1,354.296,357.536,363.356,368.156,370.661,373.796,378.055,383.096,391.915,396.656,399.161,402.357,407.936,412.677,417.717,421.675,424.134,426.639,429.775,435.235,438.474,444.295,449.094,453.052,455.557,458.754,462.711,467.511,471.711,476.511,481.551,485.509,489.89,495.709,500.509,504.467,508.726,511.231,514.428,518.866,524.266,527.206,530.087,534.886,539.325,542.565,547.365,553.425" svgx:width="0.33,0.5,0.5,0.33,0.25,0.25,0.55,0.34,0.58,0.25,0.55,0.33,0.58,0.48,0.25,0.55,0.42,0.5,0.88,0.48,0.25,0.55,0.56,0.48,0.5,0.4,0.25,0.25,0.55,0.55,0.33,0.58,0.48,0.4,0.25,0.55,0.4,0.48,0.42,0.48,0.5,0.4,0.44,0.58,0.48,0.4,0.42,0.25,0.55,0.44,0.55,0.29,0.29,0.48,0.44,0.33,0.48,0.61,0.25" style="fill:rgb(0,0,0);font-family:BookAntiqua;font-size:10.02px;stroke:none;">[49]. In the same year, other researchers collected </text>
   <text y="360.881" x="314.575,318.834,324.896,328.856,334.377,337.313,341.693,346.733,349.669,352.174,358.005,363.946,366.882,372.882,381.702" svgx:width="0.42,0.6,0.4,0.56,0.29,0.44,0.5,0.29,0.25,0.55,0.6,0.29,0.6,0.88,0.48" style="fill:rgb(0,0,0);font-family:BookAntiqua;font-size:10.02px;stroke:none;">surgical plume</text>
   <text y="360.881" x="386.518" svgx:width="0.25" style="fill:rgb(0,0,0);font-family:BookAntiqua-Bold;font-size:10.02px;stroke:none;"> </text>
   <text y="360.881" x="394.975,403.312,406.253,409.492,415.312,417.817,423.649,429.771,433.672,438.712,444.531,448.792,457.128,461.868,464.809,467.689,470.194,476.025,484.845,489.585,498.405,503.926,507.886,512.926,518.746,523.546,526.051,531.827,535.186,539.146,544.546,553.427" svgx:width="0.83,0.29,0.33,0.58,0.25,0.55,0.61,0.4,0.5,0.58,0.42,0.83,0.48,0.29,0.29,0.25,0.55,0.88,0.48,0.88,0.55,0.4,0.5,0.58,0.48,0.25,0.55,0.33,0.4,0.55,0.88,0.25" style="fill:rgb(0,0,0);font-family:BookAntiqua;font-size:10.02px;stroke:none;">with Transwell membrane from </text>
   <text y="373.306" x="314.575,320.216,325.256,329.216,332.152,337.552,343.614,347.874,350.63,353.87,359.932,368.752,374.152,380.214,384.175,386.93,391.37,396.111,399.046,401.982,404.683,407.618,410.554,416.374,421.114,425.396,428.091,431.388,439.728,446.812,450.168,453.532,461.812,466.852,471.832,476.872,479.332,482.087,487.607,492.587,500.327,506.39,508.91,511.665,518.926,524.986,527.506,530.261,538.062,545.621,550.901,553.432" svgx:width="0.56,0.5,0.4,0.29,0.55,0.6,0.42,0.25,0.33,0.6,0.88,0.55,0.6,0.4,0.25,0.44,0.48,0.29,0.29,0.25,0.29,0.29,0.58,0.48,0.42,0.25,0.33,0.83,0.71,0.34,0.33,0.83,0.5,0.5,0.5,0.25,0.25,0.56,0.5,0.77,0.6,0.25,0.25,0.73,0.61,0.25,0.25,0.78,0.76,0.52,0.25,0.25" style="fill:rgb(0,0,0);font-family:BookAntiqua;font-size:10.02px;stroke:none;">various tumour cell lines (NCI-H292, FaDu, KB, AGS, </text>
   <text y="385.731" x="314.575,322.374,329.095,336.899,340.256,342.76099999999997,346.018,350.397,355.437,361.497,364.737,369.537,373.435,376.375,381.415,386.155,392.275,394.78,398.036,403.556,409.133,411.638,414.835,419.634,422.575,427.375,431.755,434.995,438.953,444.413,448.853,453.893,459.953,463.192,467.992,471.95,477.47,479.99,482.495,485.756,489.656,494.696,500.819,503.758,509.158,512.519,516.477,521.216,526.856,532.856,537.656,543.477,547.856,553.436" svgx:width="0.78,0.67,0.79,0.33,0.25,0.55,0.44,0.5,0.6,0.33,0.48,0.4,0.29,0.5,0.48,0.61,0.25,0.55,0.55,0.56,0.25,0.55,0.48,0.29,0.48,0.44,0.33,0.4,0.55,0.44,0.5,0.6,0.33,0.48,0.4,0.56,0.25,0.25,0.55,0.4,0.5,0.61,0.29,0.55,0.33,0.4,0.48,0.56,0.6,0.48,0.58,0.44,0.56,0.25" style="fill:rgb(0,0,0);font-family:BookAntiqua;font-size:10.02px;stroke:none;">ARO) cauterized by electrocautery, radiofrequency </text>
   <text y="398.156" x="314.575,319.615,325.135,328.015,333.055,336.295,339.235,344.696,350.456,352.961,355.436,360.476,366.298,372.357,374.862,377.337,383.337,386.277,389.517,393.477,398.457,402.717,408.178,413.999,416.939,421.318,423.823,426.298,430.498,434.938,439.978,442.914,448.914,453.653,456.589,460.849,463.309,465.814,468.302,474.422,480.241,484.981,489.18,493.981,496.486,498.963,503.762,508.923,514.923,519.722,523.622,526.562,535.382,540.181,546.001,549.241,553.441" svgx:width="0.5,0.55,0.29,0.5,0.33,0.29,0.55,0.58,0.25,0.55,0.5,0.58,0.61,0.25,0.55,0.6,0.29,0.33,0.4,0.5,0.42,0.55,0.58,0.29,0.44,0.25,0.55,0.42,0.44,0.5,0.29,0.6,0.48,0.29,0.42,0.25,0.25,0.55,0.61,0.58,0.48,0.42,0.48,0.25,0.55,0.48,0.52,0.6,0.48,0.4,0.29,0.88,0.48,0.58,0.33,0.42,0.25" style="fill:rgb(0,0,0);font-family:BookAntiqua;font-size:10.02px;stroke:none;">ablation and ultrasonic scalpels. These experiments </text>
   <text y="410.58" x="314.585,320.705,325.505,334.322,339.782,345.602,349.862,353.099,357.059,362.099,365.335,370.076,376.196,378.701,381.476,384.713,390.532,395.572,398.809,401.314,404.103,407.043,410.28,412.78499999999997,415.56,423.901,428.881,433.14,435.645,438.421,443.881,449.702,452.641,458.222,460.727,463.441,466.802,470.762,476.221,485.039,487.544,490.265,493.502,499.322,504.121,506.626,509.404,515.464,518.404,521.644,525.604,530.584,534.844,540.305,546.127,549.008,553.447" svgx:width="0.61,0.48,0.88,0.55,0.58,0.42,0.33,0.4,0.5,0.33,0.48,0.61,0.25,0.55,0.33,0.58,0.5,0.33,0.25,0.55,0.29,0.33,0.25,0.55,0.83,0.5,0.42,0.25,0.55,0.55,0.58,0.29,0.56,0.25,0.55,0.33,0.4,0.55,0.88,0.25,0.55,0.33,0.58,0.48,0.25,0.55,0.6,0.29,0.33,0.4,0.5,0.42,0.55,0.58,0.29,0.44,0.25" style="fill:rgb(0,0,0);font-family:BookAntiqua;font-size:10.02px;stroke:none;">demonstrated that it was only from the ultrasonic </text>
   <text y="423.005" x="314.585,318.844,323.285,328.265,331.201,337.201,342.0,344.936,347.456,349.961,354.48,359.941,366.003,369.244,371.749,376.268,382.088,387.548,390.788,393.293,397.812,401.172,405.133,410.592,419.41,421.915,426.434,429.671,435.49,440.291,442.796,447.315,452.114,455.05,459.851,464.291,467.531,471.491,476.951,481.15,487.15,491.11,496.69,499.626,504.006,509.046,511.982,514.4870000000001,518.946,525.008,530.827,533.763,537.003,539.508,543.967,549.427,553.447" svgx:width="0.42,0.44,0.5,0.29,0.6,0.48,0.29,0.25,0.25,0.55,0.55,0.6,0.33,0.25,0.55,0.58,0.55,0.33,0.25,0.55,0.33,0.4,0.55,0.88,0.25,0.55,0.33,0.58,0.48,0.25,0.55,0.48,0.29,0.48,0.44,0.33,0.4,0.55,0.42,0.6,0.4,0.56,0.29,0.44,0.5,0.29,0.25,0.55,0.6,0.58,0.29,0.33,0.25,0.55,0.55,0.4,0.25" style="fill:rgb(0,0,0);font-family:BookAntiqua;font-size:10.02px;stroke:none;">scalpel, but not from the electrosurgical unit or </text>
   <text y="435.49" x="314.585,318.543,323.583,329.643,332.583,338.043,341.402,345.36,350.1,355.68,361.74,366.54,372.3,376.74,382.32,384.825,385.857,390.897,396.417,399.297,404.337,407.577,410.517,415.978,421.8,424.305,425.337,431.397,436.196,441.837,444.777,449.215,454.016,456.521,457.553,460.79,466.609,471.649,474.886,477.391,478.423,484.073,486.953,491.933,497.453,500.393,505.192,507.697,508.729,513.169,517.969,520.849,523.789,528.049,530.554,531.586,539.927,544.726,548.626,553.425" svgx:width="0.4,0.5,0.61,0.29,0.55,0.33,0.4,0.48,0.56,0.6,0.48,0.58,0.44,0.56,0.25,0.55,0.5,0.55,0.29,0.5,0.33,0.29,0.55,0.58,0.25,0.55,0.61,0.48,0.56,0.29,0.44,0.48,0.25,0.55,0.33,0.58,0.5,0.33,0.25,0.55,0.56,0.29,0.5,0.55,0.29,0.48,0.25,0.55,0.44,0.48,0.29,0.29,0.42,0.25,0.55,0.83,0.48,0.4,0.48,0.25" style="fill:rgb(0,0,0);font-family:BookAntiqua;font-size:10.02px;stroke:none;">radiofrequency ablation device that viable cells were </text>
   <text y="447.915" x="314.575,317.511,323.631,328.43,334.251,337.491,340.371,343.728,346.664,351.464,357.523,360.028,361.842,364.778,370.598,373.103,374.916,379.956,382.836,385.776,388.281,390.095,395.074,400.115,402.62,404.433,408.692,417.511,422.971,428.552,433.293,435.798,437.691,441.889,446.929,455.749,461.749,464.688,469.489,473.687,476.192,478.071,481.971,486.771,490.01,493.968,496.908,501.707,507.347,512.146,518.206,520.711,522.586,525.946,529.904,535.363,544.123,546.628,548.441,553.421" svgx:width="0.29,0.61,0.48,0.58,0.33,0.29,0.33,0.29,0.48,0.61,0.25,0.55,0.29,0.58,0.25,0.55,0.5,0.29,0.29,0.25,0.55,0.5,0.5,0.25,0.55,0.42,0.88,0.55,0.56,0.48,0.25,0.55,0.42,0.5,0.88,0.6,0.29,0.48,0.42,0.25,0.55,0.4,0.48,0.33,0.4,0.29,0.48,0.56,0.48,0.61,0.25,0.55,0.33,0.4,0.55,0.88,0.25,0.55,0.5,0.25" style="fill:rgb(0,0,0);font-family:BookAntiqua;font-size:10.02px;stroke:none;">identified in all 25 smoke samples retrieved from a </text>
   <text y="460.34" x="314.575,320.695,323.635,327.895,331.135,336.175,341.996,346.374,351.178,353.683,355.557,361.018,364.318,366.823,368.697,373.677,376.182,378.056,382.494" svgx:width="0.61,0.29,0.42,0.33,0.5,0.58,0.44,0.48,0.25,0.55,0.55,0.33,0.25,0.55,0.5,0.25,0.55,0.44,0.88" style="fill:rgb(0,0,0);font-family:BookAntiqua;font-size:10.02px;stroke:none;">distance of 5 cm</text>
   <text y="457.68" x="391.32" svgx:width="0.25" style="fill:rgb(0,0,0);font-family:BookAntiqua;font-size:6.48px;stroke:none;"> </text>
   <text y="460.2" x="394.14,397.437,402.477,407.457,410.813,413.333,415.838,417.657,425.994,431.394,439.734,444.534,450.174,454.973,458.931,461.451,463.956,465.83,471.65,477.11,479.615,481.488,490.248,495.708,499.666,504.465,506.96999999999997,508.859,513.117,516.358,522.418,528.478,534.059,536.564,538.438,544.198,549.177,553.436" svgx:width="0.33,0.5,0.5,0.33,0.25,0.25,0.55,0.83,0.55,0.83,0.48,0.56,0.48,0.4,0.25,0.25,0.55,0.58,0.55,0.25,0.55,0.88,0.55,0.4,0.48,0.25,0.55,0.42,0.33,0.6,0.61,0.56,0.25,0.55,0.58,0.5,0.42,0.25" style="fill:rgb(0,0,0);font-family:BookAntiqua;font-size:10.02px;stroke:none;">[50]. However, no more study has </text>
   <text y="472.625" x="314.581,320.701,325.501,334.322,339.783,345.604,349.864,353.104,357.064,362.104,365.344,370.084,376.204,378.709,383.108,386.348,392.17,396.971,399.476,403.874,407.115,411.075,416.115,421.936,426.137,434.956,437.897,442.157,446.357,449.297,454.758,460.58,463.085,467.483,472.944,476.304,478.80899999999997,483.145,487.584,492.624,498.445,502.884,507.684,511.644,514.149,518.547,522.986,527.726,530.667,533.606,537.807,540.312,544.711,547.951,553.471" svgx:width="0.61,0.48,0.88,0.55,0.58,0.42,0.33,0.4,0.5,0.33,0.48,0.61,0.25,0.55,0.33,0.58,0.48,0.25,0.55,0.33,0.4,0.5,0.58,0.42,0.88,0.29,0.42,0.42,0.29,0.55,0.58,0.25,0.55,0.55,0.33,0.25,0.55,0.44,0.5,0.58,0.44,0.48,0.4,0.25,0.55,0.44,0.48,0.29,0.29,0.42,0.25,0.55,0.33,0.55,0.25" style="fill:rgb(0,0,0);font-family:BookAntiqua;font-size:10.02px;stroke:none;">demonstrated the transmission of cancer cells to </text>
   <text y="485.05" x="314.581,320.042,326.042,330.843,334.803,339.843,343.083,346.023,351.484,357.305,359.77,363.73,369.191,374.591,383.399,385.914,391.914,396.713,400.671,404.931,410.39,416.211,422.031,426.83,429.711,432.171,438.293,444.353,448.311,451.251,457.01,462.591,465.111,469.85,472.791,477.591,482.03,485.271,489.171,494.631,498.89,504.95,508.908,514.428,519.228,523.186,528.766,531.234,534.53,539.57,544.55,547.907,550.372" svgx:width="0.55,0.6,0.48,0.4,0.5,0.33,0.29,0.55,0.58,0.25,0.4,0.55,0.55,0.88,0.25,0.6,0.48,0.4,0.42,0.55,0.58,0.58,0.48,0.29,0.25,0.61,0.6,0.4,0.29,0.58,0.56,0.25,0.48,0.29,0.48,0.44,0.33,0.4,0.55,0.42,0.6,0.4,0.56,0.48,0.4,0.56,0.25,0.33,0.5,0.5,0.33,0.25,0.25" style="fill:rgb(0,0,0);font-family:BookAntiqua;font-size:10.02px;stroke:none;">operation room personnel during electrosurgery [31]. </text>
   <text y="503.58" x="314.58,321.24,323.634,328.312,333.831,336.231,341.512,344.575,350.095,354.772,359.571,363.231,368.512,372.831,375.292,379.969" svgx:width="0.6,0.22,0.43,0.5,0.22,0.48,0.28,0.5,0.43,0.44,0.33,0.48,0.4,0.22,0.43,0.28" style="fill:rgb(0,0,0);font-family:GillSansMT;font-size:10.98px;stroke:none;">Viable bacteria </text>
   <text y="518.7" x="337.26,345.06,347.565,348.897,353.156,356.396,362.455,368.576,374.157,376.662,377.994,383.514,389.095" svgx:width="0.78,0.25,0.55,0.42,0.33,0.6,0.61,0.56,0.25,0.55,0.55,0.56,0.25" style="fill:rgb(0,0,0);font-family:BookAntiqua;font-size:10.02px;stroke:none;">A study by </text>
   <text y="518.7" x="392.881,398.401,402.841,407.881,412.921,415.681,418.441,422.881" svgx:width="0.56,0.44,0.5,0.5,0.28,0.28,0.44,0.25" style="fill:rgb(0,0,0);font-family:TimesNewRomanPSMT;font-size:10.02px;stroke:none;">Schultz </text>
   <text y="518.7" x="426.298,431.097,434.334,436.839,438.111,443.151,446.091,448.622,451.127,452.4,455.696,460.736,465.716,469.073,471.578,472.911,478.731,483.711,487.971,490.476,491.808,497.931,502.73,511.551,516.951,522.77,527.031,530.27,534.228,539.268,542.509,547.308,553.43" svgx:width="0.48,0.33,0.25,0.55,0.5,0.29,0.25,0.25,0.55,0.33,0.5,0.5,0.33,0.25,0.55,0.58,0.5,0.42,0.25,0.55,0.61,0.48,0.88,0.55,0.58,0.42,0.33,0.4,0.5,0.33,0.48,0.61,0.25" style="fill:rgb(0,0,0);font-family:BookAntiqua;font-size:10.02px;stroke:none;">et al. [51] has demonstrated </text>
   <text y="531.185" x="314.565,317.805,323.627,328.426,331.242,336.042,341.203,344.443,349.243,355.064,358.302,361.118,366.577,369.878,372.634,378.275,381.215,386.255,391.776,394.716,399.456,402.28,407.74,412.78,417.22,420.46,425.26,429.217,432.097,437.137,439.953,445.953,449.853,454.652,458.913,463.712,469.533,472.772,475.533,478.473,484.232,487.048,491.247,497.307,501.265,506.845,509.725,514.166,519.146,522.086,524.901,530.841,533.781,539.841,548.602,553.401" svgx:width="0.33,0.58,0.48,0.25,0.48,0.52,0.33,0.48,0.58,0.33,0.25,0.55,0.33,0.25,0.56,0.29,0.5,0.55,0.29,0.48,0.25,0.55,0.5,0.44,0.33,0.48,0.4,0.29,0.5,0.25,0.6,0.4,0.48,0.42,0.48,0.58,0.33,0.25,0.29,0.58,0.25,0.42,0.6,0.4,0.56,0.29,0.44,0.5,0.29,0.25,0.6,0.29,0.6,0.88,0.48,0.25" style="fill:rgb(0,0,0);font-family:BookAntiqua;font-size:10.02px;stroke:none;">the extent of viable bacteria present in surgical plume </text>
   <text y="543.61" x="314.565,322.904,325.845,329.085,334.904,337.409,343.845,348.885,354.705,357.21,363.703,368.502,373.602,379.602,384.402,388.36,391.3,400.119,404.919,410.739,413.979,418.959,421.899,424.404,430.839,439.658,445.119,451.242,456.041,458.981,461.486,467.979,473.379,476.679,479.18399999999997,485.677,491.617,497.077,501.035,505.475,508.415,514.235,518.975,521.48,527.973,531.213,534.153,538.413,542.613,548.613,553.412" svgx:width="0.83,0.29,0.33,0.58,0.25,0.55,0.5,0.58,0.25,0.55,0.48,0.52,0.6,0.48,0.4,0.29,0.88,0.48,0.58,0.33,0.5,0.29,0.25,0.55,0.88,0.55,0.61,0.48,0.29,0.25,0.55,0.55,0.33,0.25,0.55,0.6,0.55,0.4,0.44,0.29,0.58,0.48,0.25,0.55,0.33,0.29,0.42,0.42,0.6,0.48,0.25" style="fill:rgb(0,0,0);font-family:BookAntiqua;font-size:10.02px;stroke:none;">with an experimental model of porcine tissue </text>
   <text y="556.035" x="314.565,319.364,328.185,333.705,338.504,344.627,350.749,355.548,361.671,364.176,375.887,384.227,387.168,390.407,396.227,398.73199999999997,410.505,415.785,420.525,424.483,428.441,433.481,436.661,439.601,444.581,447.086,458.86,467.68,472.72,476.678,481.058,485.858,490.118,494.498,499.297,505.118,509.383,511.904,514.409,526.187,534.527,540.288,543.228,547.668,553.429" svgx:width="0.48,0.88,0.55,0.48,0.61,0.61,0.48,0.61,0.25,0.55,0.83,0.29,0.33,0.58,0.25,0.55,0.52,0.48,0.4,0.4,0.5,0.33,0.29,0.5,0.25,0.55,0.88,0.5,0.4,0.44,0.48,0.42,0.44,0.48,0.58,0.42,0.25,0.25,0.55,0.83,0.58,0.29,0.44,0.58,0.25" style="fill:rgb(0,0,0);font-family:BookAntiqua;font-size:10.02px;stroke:none;">embedded with Serratia marcescens, which </text>
  </g>
  <g begin="text">
   <text y="568.44" x="314.58,317.82,321.78,326.82,332.642,336.903,345.722,348.662,351.902,355.143,359.943,366.063,368.643,374.703,377.643,381.603,386.403,390.842,394.082,397.023,402.543,405.123,408.362,413.823,416.402,421.863,427.863,432.603,436.563,441.604,444.843,447.783,453.244,459.065,461.646,465.605,471.066,476.527,485.288,487.868,493.868,498.667,502.628,506.888,512.349,518.17,523.992,528.793,531.672,534.192,536.773,542.893,548.714,553.455" svgx:width="0.33,0.4,0.5,0.58,0.42,0.88,0.29,0.33,0.33,0.48,0.61,0.25,0.61,0.29,0.4,0.48,0.44,0.33,0.29,0.56,0.25,0.33,0.55,0.25,0.55,0.6,0.48,0.4,0.5,0.33,0.29,0.55,0.58,0.25,0.4,0.55,0.55,0.88,0.25,0.6,0.48,0.4,0.42,0.55,0.58,0.58,0.48,0.29,0.25,0.25,0.61,0.58,0.48,0.25" style="fill:rgb(0,0,0);font-family:BookAntiqua;font-size:10.02px;stroke:none;">transmitted directly to operation room personnel. The </text>
   <text y="580.865" x="314.58,318.538,323.337,327.598,332.338,337.379,341.336,345.776,351.596,356.395,360.353,364.553,367.428,371.809,377.269,383.089,387.529,390.468,396.529,402.651,407.391,413.513,416.389,419.629,425.449,430.429,433.669,436.544,439.484,442.725,445.6,453.941,458.921,463.197,466.072,469.309,475.128" svgx:width="0.4,0.48,0.42,0.48,0.5,0.4,0.44,0.58,0.48,0.4,0.42,0.25,0.44,0.55,0.58,0.44,0.29,0.6,0.61,0.48,0.61,0.25,0.33,0.58,0.5,0.33,0.25,0.29,0.33,0.25,0.83,0.5,0.42,0.25,0.33,0.58,0.48" style="fill:rgb(0,0,0);font-family:BookAntiqua;font-size:10.02px;stroke:none;">researchers concluded that it was the</text>
   <text y="580.865" x="479.93" svgx:width="0.25" style="fill:rgb(0,0,0);font-family:BookAntiqua-Italic;font-size:10.02px;stroke:none;"> </text>
   <text y="580.865" x="482.445,487.905,490.785,495.584,501.404,507.526,512.326,518.448,521.324,525.704,531.764,535.722,539.68,544.48,550.24,553.42" svgx:width="0.55,0.29,0.48,0.58,0.61,0.48,0.61,0.25,0.44,0.6,0.4,0.4,0.48,0.58,0.33,0.25" style="fill:rgb(0,0,0);font-family:BookAntiqua;font-size:10.02px;stroke:none;">blended current </text>
   <text y="593.29" x="314.57,319.37,322.309,327.109,331.549,334.789,338.747,344.207,348.407,354.467,358.424,364.005,368.804,372.704,378.284,380.789,392.264,396.222,401.262,404.501,410.322,415.122,419.021,421.526,432.939,436.18,441.999,447.039,452.86,455.365,466.854,472.854,478.914,482.874,487.614,490.11899999999997,501.592,506.031,511.492,516.532,522.053,528.112,530.993,536.033,539.273,542.212,547.613,553.435" svgx:width="0.48,0.29,0.48,0.44,0.33,0.4,0.55,0.42,0.6,0.4,0.56,0.48,0.4,0.56,0.25,0.55,0.4,0.5,0.33,0.58,0.48,0.4,0.25,0.55,0.33,0.58,0.5,0.58,0.25,0.55,0.6,0.6,0.4,0.48,0.25,0.55,0.44,0.55,0.5,0.56,0.6,0.29,0.5,0.33,0.29,0.55,0.58,0.25" style="fill:rgb(0,0,0);font-family:BookAntiqua;font-size:10.02px;stroke:none;">electrosurgery rather than pure coagulation </text>
   <text y="605.714" x="314.57,319.37,322.309,327.109,331.549,334.789,338.747,344.207,348.407,354.467,358.424,364.005,368.804,372.704,378.284,380.789,382.062,385.302,391.122,396.162,399.402,401.907,403.18,406.42,410.378,415.418,421.238,425.438,434.258,437.198,440.438,443.677,448.477,454.599,457.104,458.377,463.897,468.937,473.377,476.616,481.416,485.374,488.314,493.354,495.859,497.131,500.371,505.83,508.335,509.608,515.428,520.227,525.207,529.165,534.685,540.265,542.77,543.985,549.444,553.402" svgx:width="0.48,0.29,0.48,0.44,0.33,0.4,0.55,0.42,0.6,0.4,0.56,0.48,0.4,0.56,0.25,0.55,0.33,0.58,0.5,0.33,0.25,0.55,0.33,0.4,0.5,0.58,0.42,0.88,0.29,0.33,0.33,0.48,0.61,0.25,0.55,0.55,0.5,0.44,0.33,0.48,0.4,0.29,0.5,0.25,0.55,0.33,0.55,0.25,0.55,0.58,0.48,0.5,0.4,0.55,0.56,0.25,0.55,0.55,0.4,0.25" style="fill:rgb(0,0,0);font-family:BookAntiqua;font-size:10.02px;stroke:none;">electrosurgery that transmitted bacteria to nearby or </text>
   <text y="618.139" x="314.57,319.61,325.732,328.012,333.052,337.492,342.291,348.111,351.351,353.871,358.071,361.011,364.251,369.051,373.311,375.772" svgx:width="0.5,0.61,0.23,0.5,0.44,0.48,0.58,0.33,0.25,0.42,0.29,0.33,0.48,0.42,0.25,0.25" style="fill:rgb(0,0,0);font-family:BookAntiqua;font-size:10.02px;stroke:none;">adjacent sites. </text>
   <text y="636.66" x="314.58,321.24,323.634,327.955,333.474,337.675,340.739,345.416,350.936,356.516,359.579,361.98,365.7,369.899,372.963,375.423,380.943,383.703,388.984,393.782,397.442,399.842,405.902,411.421,414.485,416.885,422.406,425.469,430.147,434.945,440.465,445.745,450.543,456.604,459.004,465.064,469.742,472.142,476.342,480.001,483.123" svgx:width="0.6,0.22,0.4,0.5,0.38,0.28,0.43,0.5,0.51,0.28,0.22,0.33,0.38,0.28,0.22,0.5,0.25,0.48,0.44,0.33,0.22,0.55,0.5,0.28,0.22,0.5,0.28,0.43,0.44,0.5,0.48,0.44,0.55,0.22,0.55,0.43,0.22,0.38,0.33,0.28,0.28" style="fill:rgb(0,0,0);font-family:GillSansMT;font-size:10.98px;stroke:none;">Virus and its infection in gynecologist </text>
   <text y="654.0" x="314.58,321.9,327.0,333.06,335.822,343.023,347.282,351.123,353.882,358.983,363.783,367.143,371.883,376.262,379.622,384.422,389.523,392.285,394.445,399.485,402.245,406.086,411.126,415.084,419.344,421.563,425.942,430.202,432.362,435.123,438.962,446.703,452.224,457.023,461.824" svgx:width="0.73,0.51,0.6,0.28,0.72,0.43,0.38,0.28,0.51,0.48,0.33,0.48,0.44,0.33,0.48,0.51,0.28,0.22,0.5,0.28,0.38,0.5,0.4,0.43,0.22,0.44,0.43,0.22,0.28,0.38,0.77,0.55,0.48,0.48,0.28" style="fill:rgb(0,0,0);font-family:GillSansMT;font-size:10.02px;stroke:none;">HPV was detected in surgical smoke </text>
   <text y="668.94" x="337.265,343.388,349.209,354.009,356.514,358.748,362.108,365.048,368.948,373.208,376.448,378.953,381.188,384.128,389.888,394.149,397.029,402.609,408.43,411.671,415.931,418.436,420.671,423.611,429.432,432.672,438.133,440.638,442.872,446.113,451.934,456.675,459.18,461.414,464.355,470.177,473.536,478.337,482.776,485.956,488.896,494.357,500.178,502.683,504.91,510.371,513.667,516.172,518.407,522.665,528.725,532.625,538.206,541.146,545.526,550.566,553.446" svgx:width="0.61,0.58,0.48,0.25,0.55,0.33,0.29,0.4,0.42,0.33,0.25,0.55,0.29,0.58,0.42,0.29,0.56,0.58,0.33,0.42,0.25,0.55,0.29,0.58,0.33,0.55,0.25,0.55,0.33,0.58,0.48,0.25,0.55,0.29,0.58,0.33,0.48,0.44,0.33,0.29,0.55,0.58,0.25,0.55,0.55,0.33,0.25,0.55,0.42,0.6,0.4,0.56,0.29,0.44,0.5,0.29,0.25" style="fill:rgb(0,0,0);font-family:BookAntiqua;font-size:10.02px;stroke:none;">The first insights into the infection of surgical </text>
   <text y="681.365" x="314.59,318.849,327.669,333.129,338.71,343.51,346.015,350.293,358.628,363.367,367.327,372.067,374.572,378.848,382.085,387.904,393.364,397.625,402.424,404.929,409.208,414.967,421.027,429.788,434.588,438.547,444.008,450.068,454.268,456.77299999999997,461.051,466.091,471.852,474.792,483.609,488.589,491.529,494.034,498.25,503.29,509.11,515.229,517.734,522.013,527.774,533.834,542.651,547.631,553.452" svgx:width="0.42,0.88,0.55,0.56,0.48,0.25,0.55,0.83,0.48,0.4,0.48,0.25,0.55,0.33,0.58,0.55,0.42,0.48,0.25,0.55,0.58,0.6,0.88,0.48,0.4,0.55,0.6,0.42,0.25,0.55,0.5,0.58,0.29,0.88,0.5,0.29,0.25,0.55,0.5,0.58,0.61,0.25,0.55,0.58,0.6,0.88,0.5,0.58,0.25" style="fill:rgb(0,0,0);font-family:BookAntiqua;font-size:10.02px;stroke:none;">smoke were those numerous animal and human </text>
   <text y="693.789" x="314.59,318.851,322.087,328.147,334.267,337.207,341.948,346.207,348.667,353.707,359.228,364.628,370.688,373.924,376.389,379.626,385.446,390.246,392.706,398.346,401.286,405.247,411.306,415.567,420.307,424.567,427.026,429.907,435.727,438.187,441.423,447.243,452.043,454.503,458.764,467.581,473.041,478.621,483.422,485.882,489.118,494.578,497.038,503.158,508.198,511.435,516.236,518.756,521.172,526.453,531.252,536.893,541.692,545.592,550.572,553.452" svgx:width="0.42,0.33,0.6,0.61,0.29,0.48,0.42,0.25,0.5,0.55,0.55,0.6,0.33,0.25,0.33,0.58,0.48,0.25,0.56,0.29,0.4,0.6,0.42,0.48,0.42,0.25,0.29,0.58,0.25,0.33,0.58,0.48,0.25,0.42,0.88,0.55,0.56,0.48,0.25,0.33,0.55,0.25,0.61,0.5,0.33,0.48,0.25,0.25,0.52,0.48,0.56,0.48,0.4,0.5,0.29,0.25" style="fill:rgb(0,0,0);font-family:BookAntiqua;font-size:10.02px;stroke:none;">studies about the viruses in the smoke to date. Several </text>
   <text y="706.214" x="314.59,319.63,323.59,326.83,329.766,334.146,337.082,341.882,346.142,349.378,353.638,356.818,361.858,365.098,369.898,375.958,379.195,382.435,388.255,393.295,396.535,399.772,408.113,414.173,421.427,424.664,432.943,437.983,442.244,445.48,451.301,456.761,460.0,463.237,466.593,472.053,478.115,483.876,489.995,493.175,496.111,501.932,505.168,508.409,514.228,519.028,522.264,528.264,531.2,537.262,546.083,550.882,553.402" svgx:width="0.5,0.4,0.33,0.29,0.44,0.29,0.48,0.42,0.25,0.42,0.33,0.5,0.33,0.48,0.61,0.25,0.33,0.58,0.5,0.33,0.25,0.83,0.6,0.72,0.25,0.83,0.5,0.42,0.25,0.58,0.55,0.33,0.25,0.33,0.55,0.6,0.58,0.61,0.25,0.29,0.58,0.25,0.33,0.58,0.48,0.25,0.6,0.29,0.6,0.88,0.48,0.25,0.25" style="fill:rgb(0,0,0);font-family:BookAntiqua;font-size:10.02px;stroke:none;">articles stated that HPV was not found in the plume, </text>
   <text y="718.639" x="314.59,319.63,325.45,331.572,334.077,339.367,344.827,348.067,353.887,358.687,362.645,366.845,369.35,374.585,380.707,385.507,394.327,399.787,405.607,409.867,413.107,417.064,422.104,425.344,430.083,436.206,438.711,444.001,447.241,453.061,458.101,461.341,463.846,469.136,472.376,478.195,482.995,485.5,490.791,494.748,497.688,501.949,507.529,510.034,515.268,520.729,524.089,526.594,531.829,540.165,546.165,553.425" svgx:width="0.5,0.58,0.61,0.25,0.55,0.55,0.33,0.58,0.48,0.4,0.42,0.25,0.55,0.61,0.48,0.88,0.55,0.58,0.42,0.33,0.4,0.5,0.33,0.48,0.61,0.25,0.55,0.33,0.58,0.5,0.33,0.25,0.55,0.33,0.58,0.48,0.25,0.55,0.4,0.29,0.42,0.56,0.25,0.55,0.55,0.33,0.25,0.55,0.83,0.6,0.72,0.25" style="fill:rgb(0,0,0);font-family:BookAntiqua;font-size:10.02px;stroke:none;">and others demonstrated that the risk of HPV </text>
   <text y="731.064" x="314.59,319.029,324.49,330.311,333.552,338.592,347.412,350.351,356.173,361.213,364.392,367.332,372.733,378.555,381.06,388.034,396.374,401.414,405.614,408.11899999999997,415.093,418.033,423.494,431.775,434.28,441.254,446.715,450.675,453.18,460.094,463.034,471.855,477.855,483.316,487.576,491.776,494.716,500.236,503.176,507.976,510.481,517.396,520.756,526.217,530.117,532.622,539.596,542.836,548.658,553.459" svgx:width="0.44,0.55,0.58,0.33,0.5,0.88,0.29,0.58,0.5,0.33,0.29,0.55,0.58,0.25,0.55,0.83,0.5,0.42,0.25,0.55,0.29,0.55,0.83,0.25,0.55,0.55,0.4,0.25,0.55,0.29,0.88,0.6,0.55,0.42,0.42,0.29,0.55,0.29,0.48,0.25,0.55,0.33,0.55,0.4,0.25,0.55,0.33,0.58,0.48,0.25" style="fill:rgb(0,0,0);font-family:BookAntiqua;font-size:10.02px;stroke:none;">contamination was low or impossible for the </text>
   <text y="743.489" x="314.59,320.051,326.051,330.851,334.811,339.851,343.092,346.032,351.493,357.314,359.819,363.256,367.216,372.616,378.077,386.897,389.402,392.839,397.1,400.339,405.379,408.74,412.095,414.6,417.976,421.273,426.313,431.293,433.753,436.258,439.695,444.73,449.71,453.066,455.591,458.096,461.533,471.553,476.294,481.873,486.913,492.673,498.796,502.035,504.54,507.977,513.017,516.258,518.763,522.199,526.999,529.939" svgx:width="0.55,0.6,0.48,0.4,0.5,0.33,0.29,0.55,0.58,0.25,0.55,0.4,0.55,0.55,0.88,0.25,0.55,0.42,0.33,0.5,0.33,0.33,0.25,0.55,0.33,0.5,0.5,0.25,0.25,0.55,0.5,0.5,0.33,0.25,0.25,0.55,1.0,0.48,0.56,0.5,0.58,0.61,0.33,0.25,0.55,0.5,0.33,0.25,0.55,0.48,0.29,0.25" style="fill:rgb(0,0,0);font-family:BookAntiqua;font-size:10.02px;stroke:none;">operation room staff [52, 53]. Weyandt at el.</text>
   <text y="740.94" x="532.44" svgx:width="0.25" style="fill:rgb(0,0,0);font-family:BookAntiqua;font-size:6.48px;stroke:none;"> </text>
   <text y="743.46" x="536.82,540.117,545.097,550.137,553.433" svgx:width="0.33,0.5,0.5,0.33,0.25" style="fill:rgb(0,0,0);font-family:BookAntiqua;font-size:10.02px;stroke:none;">[52] </text>
  </g>
 </g>
</svg>
