<?xml version="1.0" encoding="UTF-8"?>
<svg height="731.304" width="541.5124" xmlns="http://www.w3.org/2000/svg">
 <g id="page" xmlns:svgx="http://www.xml-cml.org/schema/svgx">
  <g begin="text">
   <text y="111.572" x="63.779,70.933,75.914,79.75,82.439,87.939,95.187,97.876,103.376,107.75840000000001,111.684,115.519,121.019,124.854,129.208,134.189,139.667,143.658,148.639,151.627,155.563,161.062,166.562,174.839,179.82,185.298,189.238,191.928,197.428,200.436,204.79,209.144,212.979,215.77,220.751,226.251,230.0358,234.024,236.714,242.192,246.157,251.238,256.737,262.236,266.6184,270.591,275.572,280.554,285.535" svgx:width="0.72,0.5,0.38,0.27,0.55,0.72,0.27,0.55,0.44,0.55,0.38,0.55,0.38,0.44,0.5,0.55,0.55,0.5,0.3,0.55,0.55,0.55,0.82,0.5,0.55,0.55,0.27,0.55,0.3,0.44,0.44,0.38,0.27,0.5,0.55,0.38,0.55,0.27,0.55,0.55,0.51,0.55,0.55,0.44,0.55,0.5,0.5,0.5,0.5" style="fill:rgb(0,0,0);font-family:AdvOT16dca58f;font-size:9.96px;stroke:none;">worldwide spread of human infection) in June 2009</text>
   <text y="123.534" x="63.779,67.615,73.114,78.096,85.2672,89.234,93.588,98.569,101.259,103.949,108.302,113.78,117.808,120.528,126.028,131.009,136.508,142.072,146.425,154.615,157.304,161.6864,165.656,169.492,176.964,181.945,189.417,194.398,198.1828,202.28,207.261,212.242,217.223,222.235,224.9,228.6848,232.723,237.705,241.4898,245.536,250.516,254.437,258.272,262.626,266.462,271.961,274.733,278.5178,282.499,287.481" svgx:width="0.38,0.55,0.5,0.72,0.55,0.44,0.5,0.27,0.27,0.44,0.55,0.55,0.27,0.55,0.5,0.55,0.55,0.44,0.82,0.27,0.44,0.55,0.38,0.75,0.5,0.75,0.5,0.38,0.55,0.5,0.5,0.5,0.5,0.27,0.38,0.55,0.5,0.38,0.55,0.5,0.55,0.38,0.44,0.38,0.55,0.27,0.38,0.55,0.5,0.3" style="fill:rgb(0,0,0);font-family:AdvOT16dca58f;font-size:9.96px;stroke:none;">(now called ‘pandemic (H1N1) 2009’) as a result of</text>
   <text y="135.496" x="63.779,69.279,71.969,76.95,82.449,85.139,90.31819999999999,96.208,100.573,108.737,113.159,115.849,120.203,125.702,129.4868,135.383,139.218,143.054,148.035,153.535,157.37,165.559,168.249,172.085,176.031,178.721,183.702,189.18,195.023,197.713,203.191,209.026,214.526,220.025,228.302,233.283,238.783,242.618,245.3072,251.149,258.302,263.802,266.491,270.2758,276.207,281.706,286.688" svgx:width="0.55,0.27,0.5,0.55,0.27,0.52,0.55,0.44,0.82,0.44,0.27,0.44,0.55,0.38,0.55,0.38,0.38,0.5,0.55,0.38,0.82,0.27,0.38,0.38,0.27,0.5,0.55,0.55,0.27,0.55,0.55,0.55,0.55,0.82,0.5,0.55,0.38,0.27,0.55,0.72,0.55,0.27,0.38,0.55,0.55,0.5,0.38" style="fill:rgb(0,0,0);font-family:AdvOT16dca58f;font-size:9.96px;stroke:none;">highly eﬃcient transmission in humans. This has</text>
   <text y="147.458" x="63.779,67.615,71.969,75.804,81.304,83.994,87.829,92.183,97.661,106.185,108.875,114.353,122.796,127.15,132.131,137.706,141.542,144.231,149.731,155.23,160.211,165.711,169.4958,178.014,182.367,185.057,188.893,193.246,198.746,201.54,206.522,210.357,213.047,218.028,223.506,231.984,236.965,239.953,248.425,252.261,257.76,262.1424,270.535,275.517,280.498,285.559" svgx:width="0.38,0.44,0.38,0.55,0.27,0.38,0.44,0.55,0.55,0.27,0.55,0.55,0.44,0.5,0.55,0.38,0.27,0.55,0.55,0.5,0.55,0.38,0.55,0.44,0.27,0.38,0.44,0.55,0.27,0.5,0.38,0.27,0.5,0.55,0.55,0.5,0.3,0.55,0.38,0.55,0.44,0.55,0.5,0.5,0.5,0.5" style="fill:rgb(0,0,0);font-family:AdvOT16dca58f;font-size:9.96px;stroke:none;">resulted in continuous circulation of the 2009</text>
   <text y="159.42" x="63.779,69.279,74.26,79.759,85.259,89.613,97.802,100.492,104.87440000000001,110.494,117.966,122.947,130.419,135.399,140.995,146.175,148.865,152.701,158.2,161.98479999999998,167.64,170.329,175.80700000000002,181.359,186.34,191.84,197.403,200.093,203.928,206.618,211.6,217.078,222.688,226.524,231.504,237.031,244.503,249.56,257.032,262.012,267.532,275.004,279.985,285.56" svgx:width="0.55,0.5,0.55,0.55,0.44,0.82,0.27,0.44,0.55,0.75,0.5,0.75,0.5,0.55,0.52,0.27,0.38,0.55,0.38,0.55,0.27,0.55,0.55,0.5,0.55,0.55,0.27,0.38,0.27,0.5,0.55,0.55,0.38,0.5,0.55,0.75,0.5,0.75,0.5,0.55,0.75,0.5,0.55,0.5" style="fill:rgb(0,0,0);font-family:AdvOT16dca58f;font-size:9.96px;stroke:none;">pandemic H1N1 virus in addition to H3N2 Hong</text>
   <text y="171.382" x="63.779,71.451,76.432,81.931" svgx:width="0.77,0.5,0.55,0.5" style="fill:rgb(0,0,0);font-family:AdvOT16dca58f;font-size:9.96px;stroke:none;">Kong</text>
   <text y="171.382" x="86.966" svgx:width="0.5" style="fill:rgb(0,0,0);font-family:AdvP4C4E59;font-size:9.96px;stroke:none;">/</text>
   <text y="171.382" x="91.956,96.937,101.917,109.643,114.625,120.124,125.60199999999999,133.34,140.812,145.794,153.266,158.24599999999998,166.052,173.314,178.814,182.649,186.485,189.175,194.156" svgx:width="0.5,0.5,0.55,0.5,0.55,0.55,0.55,0.75,0.5,0.75,0.5,0.55,0.73,0.55,0.38,0.38,0.27,0.5,0.55" style="fill:rgb(0,0,0);font-family:AdvOT16dca58f;font-size:9.96px;stroke:none;">68 and H1N1 Russian</text>
   <text y="171.382" x="199.728" svgx:width="0.5" style="fill:rgb(0,0,0);font-family:AdvP4C4E59;font-size:9.96px;stroke:none;">/</text>
   <text y="171.382" x="204.717,209.699,214.679,222.405,227.586,232.567,236.402,239.092,244.074,249.573,253.3578,261.182,266.363,269.053,272.974,278.474,282.309,286.663" svgx:width="0.5,0.5,0.55,0.52,0.5,0.38,0.27,0.5,0.55,0.38,0.55,0.52,0.27,0.38,0.55,0.38,0.44,0.38" style="fill:rgb(0,0,0);font-family:AdvOT16dca58f;font-size:9.96px;stroke:none;">77 variant viruses</text>
   <text y="183.288" x="63.78,68.761,76.95,81.931,87.431,92.411,96.491,101.99,107.489,115.679,120.66,126.159,129.995" svgx:width="0.5,0.82,0.5,0.55,0.5,0.55,0.55,0.55,0.82,0.5,0.55,0.38,0.27" style="fill:rgb(0,0,0);font-family:AdvOT16dca58f;font-size:9.96px;stroke:none;">among humans.</text>
   <text y="179.603" x="132.775,136.262,138.947,140.83,144.316" svgx:width="0.5,0.38,0.27,0.5,0.38" style="fill:rgb(0,0,0);font-family:AdvOT16dca58f;font-size:6.97px;stroke:none;">5),6)</text>
   <text y="183.288" x="151.03,158.183,163.682,166.45,170.23479999999998,174.33,178.166,182.52,187.7,190.39,194.744,201.9152,205.965,213.118,215.885,218.575,221.2642,225.296,228.305,233.286,237.64,243.139,246.9238,251.034,256.016,261.494,265.548,273.088,278.069,285.541" svgx:width="0.72,0.55,0.27,0.38,0.55,0.38,0.44,0.52,0.27,0.44,0.72,0.55,0.72,0.27,0.27,0.27,0.55,0.3,0.5,0.44,0.55,0.38,0.55,0.5,0.55,0.55,0.75,0.5,0.75,0.5" style="fill:rgb(0,0,0);font-family:AdvOT16dca58f;font-size:9.96px;stroke:none;">This review will focus on H1N1</text>
   <text y="195.25" x="63.779,68.96,71.65,75.486,80.985,84.82,89.174,92.95880000000001,98.022,101.857,104.547,110.047,114.4,118.78240000000001,123.76,127.596,133.095,137.449,142.62820000000002,147.628,152.05,157.031,162.531,166.366,170.72,176.198,181.19,186.689,191.67,195.506,200.984,206.02,209.856,215.355,219.73739999999998,224.672,229.654,234.635,239.616,244.596,249.617,254.598,260.097,265.575,270.593,275.574,280.556,285.537" svgx:width="0.52,0.27,0.38,0.55,0.38,0.44,0.38,0.55,0.38,0.27,0.55,0.44,0.44,0.55,0.38,0.55,0.44,0.52,0.55,0.44,0.5,0.55,0.38,0.44,0.55,0.55,0.55,0.5,0.38,0.55,0.55,0.38,0.55,0.44,0.55,0.5,0.5,0.5,0.5,0.55,0.5,0.55,0.55,0.55,0.5,0.5,0.5,0.5" style="fill:rgb(0,0,0);font-family:AdvOT16dca58f;font-size:9.96px;stroke:none;">viruses since they caused both the 1918 and 2009</text>
   <text y="207.212" x="63.779,69.279,74.26,79.759,85.259,89.612,97.802,100.492,104.938,108.7228,111.854,115.69,121.189,126.36819999999999,129.542,135.041,137.707,143.432,147.786,151.622,155.975,161.475,165.25979999999998,168.49,172.326,176.162,179.997,184.978,187.668,193.168,196.9528,200.181,205.163,208.151,211.237,216.218,221.696,224.843,232.315,237.296,244.768,249.748,252.905,256.741,262.24,267.74,271.575,276.756,282.255,286.694" svgx:width="0.55,0.5,0.55,0.55,0.44,0.82,0.27,0.44,0.38,0.55,0.38,0.55,0.52,0.55,0.55,0.27,0.57,0.44,0.38,0.44,0.55,0.38,0.55,0.38,0.38,0.38,0.5,0.27,0.55,0.38,0.55,0.5,0.3,0.55,0.5,0.55,0.55,0.75,0.5,0.75,0.5,0.55,0.38,0.55,0.55,0.38,0.52,0.55,0.44,0.38" style="fill:rgb(0,0,0);font-family:AdvOT16dca58f;font-size:9.96px;stroke:none;">pandemics (by diﬀerent strains of an H1N1 subtype)</text>
   <text y="219.174" x="63.779,68.761,74.26,79.738,84.359,88.195,90.885,96.384,100.738,105.1204,109.757,113.592,119.092,123.4744,128.068,133.049,138.102,143.084,148.064,152.673,160.145,165.126,172.598,177.578,182.21,187.39,190.08,193.916,199.501,203.2858,207.948,210.638,214.4228,219.059,224.559,229.54,236.7112,241.34,246.839,251.82,260.01,262.7,268.199,273.257,278.756,282.592,285.282" svgx:width="0.5,0.55,0.55,0.55,0.38,0.27,0.55,0.44,0.44,0.55,0.38,0.55,0.44,0.55,0.5,0.5,0.5,0.5,0.55,0.75,0.5,0.75,0.5,0.55,0.52,0.27,0.38,0.55,0.38,0.55,0.27,0.38,0.55,0.55,0.5,0.72,0.55,0.55,0.5,0.82,0.27,0.55,0.5,0.55,0.38,0.27,0.52" style="fill:rgb(0,0,0);font-family:AdvOT16dca58f;font-size:9.96px;stroke:none;">and since the 2009 H1N1 virus is now dominantly</text>
   <text y="231.137" x="63.779,68.133,70.823,74.659,79.012,84.512,87.202,92.183,96.018,98.815,104.314,109.294,112.648,115.338,120.81599999999999,124.157,132.346,137.327,141.163,144.9478,148.364,152.718,157.699,163.274,168.773,172.609,176.444,179.134,183.488,187.324" svgx:width="0.44,0.27,0.38,0.44,0.55,0.27,0.5,0.38,0.27,0.55,0.5,0.55,0.27,0.55,0.55,0.82,0.5,0.38,0.38,0.55,0.44,0.5,0.55,0.55,0.38,0.38,0.27,0.44,0.38,0.27" style="fill:rgb(0,0,0);font-family:AdvOT16dca58f;font-size:9.96px;stroke:none;">circulating in most countries.</text>
   <text y="243.099" x="83.679,87.206,92.75,98.249,103.748,108.102,113.601,117.955,122.935,126.482,130.836,136.335,139.025,144.524,148.878,157.067,159.757,164.111,167.89579999999998,171.495,176.541,180.895,185.248,190.748,194.53279999999998,198.084,202.438,207.618,211.972,215.808,220.9872,224.503,229.684,234.037,239.019,242.8038,246.386,251.367,256.93,262.408,265.888,269.723,274.705,282.894,287.247" svgx:width="0.35,0.55,0.55,0.55,0.44,0.55,0.44,0.5,0.55,0.44,0.55,0.27,0.55,0.44,0.82,0.27,0.44,0.38,0.55,0.5,0.44,0.44,0.55,0.38,0.55,0.44,0.52,0.44,0.38,0.52,0.55,0.52,0.44,0.5,0.38,0.55,0.5,0.55,0.55,0.55,0.38,0.5,0.82,0.44,0.32" style="fill:rgb(0,0,0);font-family:AdvOT16dca58f;font-size:9.96px;stroke:none;">Inﬂuenza epidemics occur every year and some-</text>
   <text y="255.061" x="63.779,67.615,70.305,78.494,82.848,86.6328,92.012,96.366,101.347,106.847,110.682,115.0644,120.358,125.857,130.839,136.338,141.901,146.255,154.444,157.134,161.488,165.323,168.0122,173.365,180.518,186.018,190.4004,195.645,200.826,203.516,207.437,212.936,216.7208,222.064,227.564,233.063,238.562,242.916,246.752,251.733,256.714,261.068,264.8528,270.252,275.234,280.733,284.569,287.258" svgx:width="0.38,0.27,0.82,0.44,0.38,0.55,0.44,0.5,0.55,0.38,0.44,0.55,0.55,0.5,0.55,0.55,0.44,0.82,0.27,0.44,0.38,0.27,0.55,0.72,0.55,0.44,0.55,0.52,0.27,0.38,0.55,0.38,0.55,0.55,0.55,0.55,0.44,0.38,0.5,0.5,0.44,0.38,0.55,0.5,0.55,0.38,0.27,0.32" style="fill:rgb(0,0,0);font-family:AdvOT16dca58f;font-size:9.96px;stroke:none;">times cause pandemics. The virus undergoes anti-</text>
   <text y="267.023" x="63.779,68.761,73.114,78.614,81.304,85.6864,89.688,94.869,99.85,103.686,106.376,111.357,115.192,117.978,122.959,128.437,132.435,137.615,141.969,146.95,150.73479999999998,154.828,160.327,165.5062,169.511,174.691,179.045,184.026,187.8108,191.903,197.403,202.902,207.28439999999998,211.293,215.128,220.10799999999998,224.106,227.941,233.441,237.8234,241.85,245.686,250.039,252.729,257.083,261.436,265.272,267.962,272.943,278.421,282.498,287.48" svgx:width="0.5,0.44,0.55,0.27,0.44,0.55,0.52,0.5,0.38,0.27,0.5,0.38,0.27,0.5,0.55,0.55,0.52,0.44,0.5,0.38,0.55,0.55,0.52,0.55,0.52,0.44,0.5,0.38,0.55,0.55,0.55,0.44,0.55,0.38,0.5,0.55,0.38,0.55,0.44,0.55,0.38,0.44,0.27,0.44,0.44,0.38,0.27,0.5,0.55,0.55,0.5,0.3" style="fill:rgb(0,0,0);font-family:AdvOT16dca58f;font-size:9.96px;stroke:none;">genic variation year by year due to the selection of</text>
   <text y="278.928" x="63.779,68.761,74.26,78.096,80.786,85.767,90.198,95.698,98.388,102.77040000000001,106.526,111.707,116.688,120.523,123.213,128.195,133.795,137.63,141.41479999999999,145.247,150.746,155.92520000000002,159.703,162.393,170.582,178.865,184.365,189.864,194.845,197.535,202.517,207.498,210.272,214.626,219.607,222.2962,226.089,231.588,235.424,239.778,243.613,247.449,252.948,256.872,261.25440000000003,265.036,270.017,273.005,276.828,280.663,286.163" svgx:width="0.5,0.55,0.38,0.27,0.5,0.44,0.55,0.27,0.44,0.55,0.52,0.5,0.38,0.27,0.5,0.55,0.38,0.38,0.55,0.55,0.52,0.55,0.27,0.82,0.82,0.55,0.55,0.5,0.27,0.5,0.5,0.27,0.44,0.5,0.27,0.55,0.55,0.38,0.44,0.38,0.38,0.55,0.38,0.44,0.55,0.5,0.3,0.55,0.38,0.55,0.44" style="fill:rgb(0,0,0);font-family:AdvOT16dca58f;font-size:9.96px;stroke:none;">antigenic variants by immunological pressure of the</text>
   <text y="290.89" x="63.779,69.279,74.26,78.096,81.931,85.767,88.4562,90.822,98.603,102.956,108.456,112.809,116.731,119.421,123.80340000000001,126.141,129.977,134.331,139.312,143.147,147.061,152.042,155.878,159.713,167.903,172.256,177.844,181.62879999999998,184.024,189.005,193.359,197.713,203.212,207.048,210.8328,213.277,215.967,221.44500000000002,223.822,229.321,234.302,238.138,241.973,244.741,249.095,254.594,257.284,262.265,266.0498,268.495,273.994,278.976,282.811,286.647" svgx:width="0.55,0.5,0.38,0.38,0.38,0.27,0.55,0.78,0.44,0.55,0.44,0.38,0.27,0.44,0.55,0.38,0.44,0.5,0.38,0.38,0.5,0.38,0.38,0.82,0.44,0.55,0.38,0.55,0.5,0.44,0.44,0.55,0.38,0.38,0.55,0.27,0.55,0.55,0.55,0.5,0.38,0.38,0.27,0.44,0.55,0.27,0.5,0.38,0.55,0.55,0.5,0.38,0.38,0.38" style="fill:rgb(0,0,0);font-family:AdvOT16dca58f;font-size:9.96px;stroke:none;">hosts. Genetic reassortment occurs in particular hosts</text>
   <text y="302.852" x="63.779,67.615,73.114,77.468,82.946,87.817,92.798,96.5828,101.48,106.979,109.669,114.65,118.43480000000001,123.363,127.716,132.698,138.197,142.551,148.05,151.886,155.721,160.075,165.574,169.511,172.2,177.3792,182.21,184.9,190.399,193.408,197.761,202.115,205.951,210.304,215.782,220.703,227.856,230.624,234.46,239.93800000000002,244.797,249.778,254.132,259.631,263.985,267.82,270.592,274.946,279.927,282.617,285.307" svgx:width="0.38,0.55,0.44,0.55,0.55,0.5,0.38,0.55,0.55,0.27,0.5,0.38,0.55,0.44,0.5,0.55,0.44,0.55,0.38,0.38,0.44,0.55,0.38,0.27,0.52,0.55,0.27,0.55,0.3,0.44,0.44,0.38,0.44,0.55,0.55,0.72,0.27,0.38,0.55,0.55,0.5,0.44,0.55,0.44,0.38,0.27,0.44,0.5,0.27,0.27,0.52" style="fill:rgb(0,0,0);font-family:AdvOT16dca58f;font-size:9.96px;stroke:none;">such as pigs concurrently infected with genetically</text>
   <text y="314.815" x="63.779,69.279,72.0,77.669,82.023,85.859,90.212,95.811,99.59580000000001,104.712,107.402,112.932,118.431,123.931,128.284,133.851,138.205,143.185,148.251,155.721,160.837,166.018,168.708,172.543,178.042,181.878,186.232,190.067,192.7562,197.914,200.604,204.957,209.939,215.438,218.21,223.709,228.689,233.8,237.636,242.61599999999999,247.69,251.526,257.025,261.4074,266.512,270.866,279.055,283.409,287.245" svgx:width="0.55,0.27,0.57,0.44,0.38,0.44,0.55,0.38,0.55,0.27,0.55,0.55,0.55,0.44,0.55,0.44,0.5,0.55,0.75,0.55,0.52,0.27,0.38,0.55,0.38,0.44,0.38,0.27,0.55,0.27,0.44,0.5,0.55,0.27,0.55,0.5,0.55,0.38,0.5,0.55,0.38,0.55,0.44,0.55,0.44,0.82,0.44,0.38,0.32" style="fill:rgb(0,0,0);font-family:AdvOT16dca58f;font-size:9.96px;stroke:none;">diﬀerent inﬂuenza A viruses, leading to the emer-</text>
   <text y="326.777" x="63.779,68.761,73.114,78.614,82.967,87.3494,91.728,96.71,99.698,104.087,109.06700000000001,113.441,118.622,121.311,125.233,130.732,134.5168,138.952,146.105,148.795,152.631,158.109,162.536,167.517,172.995,177.389,182.888,188.388,193.887,197.798,202.152,206.506,210.859,216.359,220.712,226.212,230.047,234.401,239.87900000000002,244.343,248.178,253.678,259.253,263.088,268.269,273.768,278.1504,282.496,287.478" svgx:width="0.5,0.44,0.55,0.44,0.44,0.55,0.5,0.3,0.55,0.5,0.55,0.52,0.27,0.38,0.55,0.38,0.55,0.72,0.27,0.38,0.55,0.55,0.5,0.55,0.55,0.55,0.55,0.55,0.38,0.44,0.44,0.44,0.55,0.44,0.55,0.38,0.44,0.55,0.55,0.38,0.55,0.55,0.38,0.52,0.55,0.44,0.55,0.5,0.3" style="fill:rgb(0,0,0);font-family:AdvOT16dca58f;font-size:9.96px;stroke:none;">gence of a virus with an unprecedented subtype of</text>
   <text y="338.739" x="63.779,71.251,78.723,81.4122,83.905,91.377,98.847,101.366,106.866,109.556,114.537,119.717,123.5018,126.085,131.065,133.568,139.068,141.758,146.938,151.92,155.755,160.736,163.4252,165.997,169.832,174.814,177.503,181.88539999999998,184.365,187.055,192.53300000000002,195.023,198.858,204.358,208.7404,211.237,216.218,220.054,223.889,228.871,233.224,238.724,247.01,251.363,256.863,260.6478,263.224,267.059,272.03900000000004,274.505,279.487,285.05" svgx:width="0.75,0.75,0.27,0.55,0.75,0.75,0.55,0.55,0.27,0.5,0.52,0.38,0.55,0.5,0.55,0.55,0.27,0.52,0.5,0.38,0.5,0.27,0.55,0.38,0.5,0.27,0.44,0.55,0.27,0.55,0.55,0.38,0.55,0.44,0.55,0.5,0.38,0.38,0.5,0.44,0.55,0.82,0.44,0.55,0.38,0.55,0.38,0.5,0.55,0.5,0.55,0.55" style="fill:rgb(0,0,0);font-family:AdvOT16dca58f;font-size:9.96px;stroke:none;">HA. HA plays a pivotal role in the attachment to and</text>
   <text y="350.701" x="63.779,69.279,73.632,79.132,83.485,87.321,91.157,96.138,100.062,102.752,107.733,113.211,116.73,119.42,124.919,128.755,133.73499999999999,137.253,141.088,146.588,150.97039999999998,154.43,159.929,164.911,168.746,172.5308,176.087,180.44,184.794,187.484,190.1732,193.662,197.497,203.923,206.701,211.682,214.3712,217.756,222.738,226.573,229.2622,232.78,236.616,244.087,247.87179999999998,251.432,259.103,264.602,268.956,273.33840000000004,276.83,280.665,286.165" svgx:width="0.55,0.44,0.55,0.44,0.38,0.38,0.5,0.38,0.27,0.5,0.55,0.55,0.27,0.55,0.38,0.5,0.55,0.38,0.55,0.44,0.55,0.55,0.5,0.38,0.38,0.55,0.44,0.44,0.27,0.27,0.55,0.38,0.64,0.27,0.5,0.27,0.55,0.5,0.38,0.27,0.55,0.38,0.75,0.38,0.55,0.77,0.55,0.44,0.44,0.55,0.38,0.55,0.44" style="fill:rgb(0,0,0);font-family:AdvOT16dca58f;font-size:9.96px;stroke:none;">penetration into the host cell (Fig. 1). (A) Once the</text>
   <text y="362.663" x="63.779,68.96,71.65,75.485,80.985,84.7698,89.121,94.103,98.456,102.292,106.0768,110.437,113.127,118.627,122.462,127.44200000000001,131.696,135.532,141.107,145.4894,149.725,155.224,160.205,165.705,170.885,173.5742,177.844,185.316,192.786,197.063,199.753,203.53779999999998,207.891,211.727,217.226,221.6084,225.863,234.052,239.034,241.723,247.20100000000002,251.545,256.526,262.025,265.861,268.551,273.532,277.963,283.463,286.153" svgx:width="0.52,0.27,0.38,0.55,0.38,0.55,0.5,0.44,0.38,0.38,0.55,0.27,0.55,0.38,0.5,0.55,0.38,0.55,0.44,0.55,0.55,0.5,0.55,0.52,0.27,0.55,0.75,0.75,0.55,0.27,0.38,0.55,0.38,0.55,0.44,0.55,0.82,0.5,0.27,0.55,0.55,0.5,0.55,0.38,0.27,0.5,0.44,0.55,0.27,0.44" style="fill:rgb(0,0,0);font-family:AdvOT16dca58f;font-size:9.96px;stroke:none;">virus gets into the body, HA is the main antigenic</text>
   <text y="374.568" x="63.779,68.761,71.451,76.631,80.985,85.966,91.465,95.301,100.282,104.118,108.566,111.256,116.734,125.177,130.158,135.636,143.999,147.835,153.334,157.7164,166.109,169.945,175.444,179.28,182.289,187.27,191.623,196.00539999999998,204.377,209.358,212.346,220.761,224.597,230.096,234.4784,242.871,248.052,250.742,254.577,260.076,263.86080000000004,272.295,276.13,281.705,286.687" svgx:width="0.5,0.27,0.52,0.44,0.5,0.55,0.38,0.5,0.38,0.44,0.27,0.55,0.55,0.5,0.55,0.55,0.38,0.55,0.44,0.55,0.38,0.55,0.38,0.3,0.5,0.44,0.44,0.55,0.5,0.3,0.55,0.38,0.55,0.44,0.55,0.52,0.27,0.38,0.55,0.38,0.55,0.38,0.55,0.5,0.38" style="fill:rgb(0,0,0);font-family:AdvOT16dca58f;font-size:9.96px;stroke:none;">glycoprotein on the surface of the virus that</text>
   <text y="386.53" x="63.779,67.615,71.451,74.141,82.33,87.829,90.519,95.5,99.439,103.792,107.5768,113.555,119.054,124.035,127.871,131.6558,137.706,143.205,147.559,153.058,156.894,160.729,165.711,168.489,171.179,175.533,180.514,184.35,187.04,192.021,197.499,203.525,208.506,214.005,217.841,220.531,226.03,231.012,236.511,241.6902,247.688,251.524,255.877,259.713,265.212,270.193,275.693,279.605,283.959,287.794" svgx:width="0.38,0.38,0.27,0.82,0.55,0.27,0.5,0.38,0.44,0.38,0.55,0.55,0.5,0.38,0.38,0.55,0.55,0.44,0.55,0.38,0.38,0.5,0.27,0.27,0.44,0.5,0.38,0.27,0.5,0.55,0.55,0.5,0.55,0.38,0.27,0.55,0.5,0.55,0.52,0.55,0.38,0.44,0.38,0.55,0.5,0.55,0.38,0.44,0.38,0.27" style="fill:rgb(0,0,0);font-family:AdvOT16dca58f;font-size:9.96px;stroke:none;">stimulates host neutralization antibody responses.</text>
   <text y="398.492" x="63.779,70.933,76.432,80.786,84.621,88.975,92.069,97.051,100.886,105.24,107.9292,113.839,122.029,127.01,132.509,135.199,139.125,144.106,147.941,150.631,156.131,161.111,167.017,171.998,174.986,180.907,185.888,191.387,195.223,197.913,202.894,207.325,212.825,215.515,219.89739999999998,225.807,231.306,235.142,240.123,245.623,249.976,253.812,257.724,260.414,264.768,268.5528,274.505,279.487,284.986" svgx:width="0.72,0.55,0.44,0.38,0.44,0.3,0.5,0.38,0.44,0.27,0.55,0.82,0.5,0.55,0.27,0.38,0.5,0.38,0.27,0.55,0.5,0.55,0.5,0.3,0.55,0.5,0.55,0.38,0.27,0.5,0.44,0.55,0.27,0.44,0.55,0.55,0.38,0.5,0.55,0.44,0.38,0.38,0.27,0.44,0.38,0.55,0.5,0.55,0.55" style="fill:rgb(0,0,0);font-family:AdvOT16dca58f;font-size:9.96px;stroke:none;">Therefore, monitoring of antigenic properties and</text>
   <text y="410.454" x="63.779,69.279,73.632,77.468,81.822,86.175,90.011,92.701,97.682,103.16,106.468,111.449,114.437,117.636,122.618,130.807,133.497,138.996,143.976,147.229,152.21,156.564,159.254,164.732,168.035,172.389,177.888,182.869,188.369,193.35,197.704,201.4888,204.771,207.461" svgx:width="0.55,0.44,0.38,0.44,0.44,0.38,0.27,0.5,0.55,0.55,0.5,0.3,0.55,0.5,0.82,0.27,0.55,0.5,0.55,0.5,0.44,0.27,0.55,0.55,0.44,0.55,0.5,0.55,0.5,0.44,0.38,0.55,0.27,0.55" style="fill:rgb(0,0,0);font-family:AdvOT16dca58f;font-size:9.96px;stroke:none;">detection of amino acid changes in</text>
   <text y="410.454" x="212.994" svgx:width="0.5" style="fill:rgb(0,0,0);font-family:AdvP4C4E59;font-size:9.96px;stroke:none;">/</text>
   <text y="410.454" x="217.984,222.965,226.8,231.782,237.281,242.78,248.258,251.546,256.527,262.026,265.862,268.552,273.533,277.964,283.464,286.154" svgx:width="0.5,0.38,0.5,0.55,0.55,0.55,0.55,0.5,0.55,0.38,0.27,0.5,0.44,0.55,0.27,0.44" style="fill:rgb(0,0,0);font-family:AdvOT16dca58f;font-size:9.96px;stroke:none;">around antigenic</text>
   <text y="422.417" x="63.779,67.615,70.305,74.141,78.494,82.2788,88.894,93.94,97.776,102.1584,108.68,114.179,118.533,122.887,127.24,131.076,134.911,139.973,143.809,148.9882,155.564,158.573,163.554,167.3388,173.989,177.824,183.324,187.7064,194.228,198.063,202.417,205.107,209.461,213.9,217.735,220.425,225.407,230.88500000000002,237.484,242.466,245.454,252.055,254.744,260.276,265.775,271.275,275.628,281.195,285.549" svgx:width="0.38,0.27,0.38,0.44,0.38,0.55,0.5,0.38,0.44,0.55,0.55,0.44,0.44,0.44,0.38,0.38,0.5,0.38,0.52,0.55,0.3,0.5,0.38,0.55,0.38,0.55,0.44,0.55,0.38,0.44,0.27,0.44,0.44,0.38,0.27,0.5,0.55,0.55,0.5,0.3,0.55,0.27,0.55,0.55,0.55,0.44,0.55,0.44,0.5" style="fill:rgb(0,0,0);font-family:AdvOT16dca58f;font-size:9.96px;stroke:none;">sites are necessary for the selection of inﬂuenza</text>
   <text y="434.379" x="63.779,68.96,73.941,78.295,82.649,85.339,90.838,95.2204,100.913,104.749,108.584,112.42,117.401,120.091,125.687,129.523,132.2122,137.876,141.712,148.656,152.4408,158.172,165.325,170.825,175.20739999999998,180.906,186.086,188.776,192.612,198.111,201.89579999999998,207.664,211.5,215.854,224.043,229.024,231.714,237.213,240.99779999999998,246.781,249.471,254.949,260.671,265.651,271.272,276.772,281.817,287.316" svgx:width="0.52,0.5,0.44,0.44,0.27,0.55,0.44,0.55,0.38,0.38,0.38,0.5,0.27,0.55,0.38,0.27,0.55,0.38,0.7,0.38,0.55,0.72,0.55,0.44,0.55,0.52,0.27,0.38,0.55,0.38,0.55,0.38,0.44,0.82,0.5,0.27,0.55,0.38,0.55,0.27,0.55,0.55,0.5,0.55,0.55,0.5,0.55,0.32" style="fill:rgb(0,0,0);font-family:AdvOT16dca58f;font-size:9.96px;stroke:none;">vaccine strains. (B) The virus remains in a non-</text>
   <text y="446.341" x="63.779,66.469,71.969,74.977,79.331,83.685,87.52,90.21,95.192,100.799,104.58380000000001,107.433,110.441,115.423,119.258,127.42519999999999,130.28,135.779,141.279,145.114,147.804,150.4932,153.296,155.986,159.822,163.6068,166.506,173.978,181.448,184.25,189.75,193.585,197.939,202.292,207.792,211.627,215.544,220.525,224.3098,227.166,231.002,238.474,245.946,250.927,253.6162,256.476,262.902,265.592,270.573,273.2622,276.715,281.696,286.678" svgx:width="0.27,0.55,0.3,0.44,0.44,0.38,0.27,0.5,0.55,0.38,0.55,0.3,0.5,0.38,0.82,0.55,0.55,0.55,0.38,0.27,0.27,0.55,0.27,0.38,0.38,0.55,0.75,0.75,0.55,0.55,0.38,0.44,0.44,0.55,0.38,0.38,0.5,0.38,0.55,0.38,0.75,0.75,0.5,0.27,0.55,0.64,0.27,0.5,0.27,0.55,0.5,0.5,0.38" style="fill:rgb(0,0,0);font-family:AdvOT16dca58f;font-size:9.96px;stroke:none;">infectious form until its HA precursor (HA0, Fig. 2a)</text>
   <text y="458.303" x="63.779,70.933,73.622,77.458,82.93599999999999,86.627,91.607,95.188,99.023,101.713,107.212,112.194,114.973,119.3554,122.91,127.892,131.727,136.709,139.399,144.898,147.684,153.184,157.5664,161.177,166.158,169.94279999999998,173.592,177.428,182.927,187.30939999999998,190.94,195.294,197.984,202.337,207.319,212.499,217.48,222.462,226.84439999999998,230.511,234.347,237.037,240.873,245.25539999999998,248.88,251.569,255.35379999999998,259.027,263.381,266.071,270.425,275.406,280.586,284.94" svgx:width="0.72,0.27,0.38,0.55,0.55,0.5,0.55,0.38,0.27,0.55,0.5,0.27,0.44,0.55,0.5,0.38,0.5,0.27,0.55,0.27,0.55,0.44,0.55,0.5,0.38,0.55,0.38,0.55,0.44,0.55,0.44,0.27,0.44,0.5,0.52,0.5,0.5,0.44,0.55,0.38,0.27,0.38,0.44,0.55,0.27,0.38,0.55,0.44,0.27,0.44,0.5,0.52,0.44,0.55" style="fill:rgb(0,0,0);font-family:AdvOT16dca58f;font-size:9.96px;stroke:none;">with a single arginine at the cleavage site is cleaved</text>
   <text y="470.208" x="63.779,69.279,74.45819999999999,80.05,85.55,90.595,94.43,98.21480000000001,103.861,107.697,111.532,116.713,122.212,126.048,128.738,134.237,137.445,140.257,142.947,148.128,152.51039999999998,158.115,163.615,167.45,172.432,176.267,180.621,185.602,188.389,193.569,197.405,200.095,204.4774,210.102,214.456,219.955,224.309,229.489,237.768,242.122,245.9068,251.545,254.553,259.535,265.094,270.593,276.071,281.704,286.686" svgx:width="0.55,0.52,0.55,0.55,0.5,0.38,0.38,0.55,0.38,0.38,0.52,0.55,0.38,0.27,0.55,0.32,0.27,0.27,0.52,0.44,0.55,0.55,0.38,0.5,0.38,0.44,0.5,0.27,0.52,0.38,0.27,0.44,0.55,0.44,0.55,0.44,0.52,0.82,0.44,0.38,0.55,0.3,0.5,0.55,0.55,0.55,0.55,0.5,0.38" style="fill:rgb(0,0,0);font-family:AdvOT16dca58f;font-size:9.96px;stroke:none;">by host trypsin-like proteolytic enzymes found at</text>
   <text y="482.17" x="63.779,67.615,71.969,75.804,81.304,83.994,87.829,92.81,96.646,101.627,105.562,110.74119999999999,114.009,118.99,124.49,129.968,133.228,138.209,143.19,147.026,150.862,154.771,159.752,162.442,167.941,171.777,176.131,180.056,183.892,186.581,192.081,197.062,199.7512,203.017,206.852,210.688,215.669,220.023,223.936,227.7208,231.023,233.712,239.212,243.047,248.027,251.318,258.79,266.262,271.242,274.505,279.487,284.986" svgx:width="0.38,0.44,0.38,0.55,0.27,0.38,0.5,0.38,0.5,0.38,0.52,0.55,0.5,0.55,0.55,0.55,0.5,0.5,0.38,0.38,0.38,0.5,0.27,0.55,0.38,0.44,0.38,0.38,0.27,0.55,0.5,0.27,0.55,0.38,0.38,0.5,0.44,0.38,0.38,0.55,0.27,0.55,0.38,0.5,0.55,0.75,0.75,0.5,0.55,0.5,0.55,0.55" style="fill:rgb(0,0,0);font-family:AdvOT16dca58f;font-size:9.96px;stroke:none;">respiratory and gastrointestinal tracts into HA1 and</text>
   <text y="494.132" x="63.779,71.251,78.723,83.703,87.307,91.143,96.642,102.141,107.641,113.14,115.83,119.666,123.59,126.2792,129.826,133.353,138.83100000000002,142.469,146.305,151.804,156.1864,159.703,164.057,169.114,172.95,177.33239999999998,180.849,185.83,188.818,192.415,199.886,207.358,212.338,215.942,220.296,225.277,229.113,232.948,238.223,240.912,246.412,251.392,254.947,263.136,268.723,271.413,275.249,277.938,283.438,286.128" svgx:width="0.75,0.75,0.5,0.55,0.38,0.55,0.55,0.55,0.55,0.27,0.38,0.38,0.27,0.55,0.35,0.55,0.55,0.38,0.55,0.44,0.55,0.44,0.5,0.38,0.44,0.55,0.5,0.3,0.55,0.75,0.75,0.5,0.55,0.44,0.5,0.38,0.38,0.52,0.27,0.55,0.5,0.55,0.82,0.55,0.27,0.38,0.27,0.55,0.27,0.44" style="fill:rgb(0,0,0);font-family:AdvOT16dca58f;font-size:9.96px;stroke:none;">HA2 subunits. In the case of HA0 carrying multiple</text>
   <text y="506.094" x="63.779,69.279,74.26,78.096,80.786,85.1684,88.667,93.648,101.838,104.527,110.027,115.007,118.544,123.525,127.879,130.569,136.068,139.8528,143.488,148.47,152.2548,155.79,159.626,165.125,169.5074,173.024,177.378,180.068,184.422,189.403,194.583,199.565,204.546,208.92839999999998,212.482,216.318,219.008,222.843,227.22539999999998,230.737,235.718,238.706,242.245,246.081,251.062,259.252,263.6344,267.133,272.114,277.295,279.985,284.966" svgx:width="0.55,0.5,0.38,0.27,0.44,0.55,0.5,0.82,0.27,0.55,0.5,0.55,0.5,0.44,0.27,0.55,0.38,0.55,0.5,0.38,0.55,0.38,0.55,0.44,0.55,0.44,0.27,0.44,0.5,0.52,0.5,0.5,0.44,0.55,0.38,0.27,0.38,0.44,0.55,0.5,0.3,0.55,0.38,0.5,0.82,0.44,0.55,0.5,0.52,0.27,0.5,0.55" style="fill:rgb(0,0,0);font-family:AdvOT16dca58f;font-size:9.96px;stroke:none;">basic amino acids at the cleavage site of some avian</text>
   <text y="518.057" x="63.779,67.615,71.451,75.286,80.268,82.957,88.457,92.2418,96.775,101.756,104.744,109.19,116.662,121.64200000000001,126.028,131.074,136.573,142.05100000000002,146.494,153.966,158.946,163.332,167.167,172.667,178.242,182.077,187.258,192.757,197.111,200.947,203.6362,208.119,212.472,215.162,219.516,224.497,229.678,234.659,239.64,244.02239999999998,248.483,253.464,257.818,262.172,267.671,271.507,275.2918,279.833,285.333" svgx:width="0.38,0.38,0.38,0.5,0.27,0.55,0.38,0.55,0.5,0.3,0.55,0.75,0.5,0.55,0.5,0.55,0.55,0.55,0.75,0.5,0.55,0.38,0.55,0.55,0.38,0.52,0.55,0.44,0.38,0.27,0.55,0.44,0.27,0.44,0.5,0.52,0.5,0.5,0.44,0.55,0.5,0.44,0.44,0.55,0.38,0.38,0.55,0.55,0.52" style="fill:rgb(0,0,0);font-family:AdvOT16dca58f;font-size:9.96px;stroke:none;">strains of H5 and H7 subtypes, cleavage occurs by</text>
   <text y="530.019" x="63.779,69.279,74.778,77.468,82.649,88.148,90.838,94.673,99.655,105.154,108.9388,114.859,120.358,124.194,129.175,133.011,137.364,142.345,146.266,150.619,154.455,157.1442,162.99,166.826,171.179,175.015,180.514,183.204,187.04,189.73,195.229,200.209,206.076,208.766,214.244,220.08,223.915,229.096,232.931,236.767,241.121,249.31,254.291,258.233,260.923,265.3054,271.103,276.284,278.974,282.809,287.79" svgx:width="0.55,0.55,0.27,0.52,0.55,0.27,0.38,0.5,0.55,0.38,0.55,0.55,0.38,0.5,0.38,0.44,0.5,0.38,0.44,0.38,0.27,0.55,0.38,0.44,0.38,0.55,0.27,0.38,0.27,0.55,0.5,0.55,0.27,0.55,0.55,0.38,0.52,0.38,0.38,0.44,0.82,0.5,0.38,0.27,0.44,0.55,0.52,0.27,0.38,0.5,0.27" style="fill:rgb(0,0,0);font-family:AdvOT16dca58f;font-size:9.96px;stroke:none;">ubiquitous proteases, resulting in systematic viral</text>
   <text y="541.981" x="63.779,67.615,73.114,76.95,81.304,86.285,91.76299999999999,98.985,103.967,109.466,114.94399999999999,122.115,127.615,130.305,135.286,140.764,147.967,156.157,161.138,164.974,168.887,173.868,176.558,179.248,183.084,188.2632,195.476,198.166,203.644,210.839,219.029,224.01,227.845,231.6298,238.845,243.826,248.808,251.498,254.265,256.955,262.455,267.436,271.79,276.143,281.124,286.624" svgx:width="0.38,0.55,0.38,0.44,0.5,0.55,0.55,0.5,0.55,0.55,0.55,0.55,0.27,0.5,0.55,0.55,0.82,0.5,0.38,0.38,0.5,0.27,0.27,0.38,0.52,0.55,0.27,0.55,0.55,0.82,0.5,0.38,0.38,0.55,0.5,0.5,0.27,0.27,0.27,0.55,0.5,0.44,0.44,0.5,0.55,0.38" style="fill:rgb(0,0,0);font-family:AdvOT16dca58f;font-size:9.96px;stroke:none;">spread and high mortality in most gallinaceous</text>
   <text y="553.943" x="63.779,69.279,74.26,79.759,82.449,86.285,90.198,95.379" svgx:width="0.55,0.5,0.55,0.27,0.38,0.38,0.52,0.27" style="fill:rgb(0,0,0);font-family:AdvOT16dca58f;font-size:9.96px;stroke:none;">poultry,</text>
   <text y="553.943" x="101.027,105.589,108.598,113.161" svgx:width="0.46,0.3,0.46,0.3" style="fill:rgb(0,0,0);font-family:AdvOT10484a9d.I;font-size:9.96px;stroke:none;">e.g.</text>
   <text y="553.943" x="116.164,118.8532,121.834,126.187,131.687,134.376,138.73,143.911,148.264,153.764,157.5488,160.611,165.592,171.092,176.57000000000002,179.546,183.381,188.881,192.716,197.897,202.336,207.517,211.352,214.0412,217.019,220.855,228.008,231.7928,234.764,242.236,249.706,252.678,260.868,265.221,270.721,273.411,278.474,282.309,286.663" svgx:width="0.27,0.55,0.44,0.55,0.27,0.44,0.52,0.44,0.55,0.38,0.55,0.5,0.55,0.55,0.55,0.38,0.55,0.38,0.52,0.44,0.52,0.38,0.27,0.55,0.38,0.72,0.38,0.55,0.75,0.75,0.55,0.82,0.44,0.55,0.27,0.5,0.38,0.44,0.38" style="fill:rgb(0,0,0);font-family:AdvOT16dca58f;font-size:9.96px;stroke:none;">, chickens and turkeys. (C) HA mediates</text>
   <text y="565.848" x="63.779,68.96,71.65,75.486,80.985,84.7698,89.177,94.676,97.366,102.866,108.365,111.055,116.554,121.534,125.913,129.749,134.72899999999998,139.066,142.901,148.401,152.7834,157.094,160.93,166.429,170.783,175.136,177.902,183.401,187.7834,192.076,195.911,200.265,204.101,212.29,214.98,220.479,225.46,228.1492,232.554,236.389,239.079,244.061,246.751,249.44,253.8224,258.179,263.16,267.514,270.203,275.681,280.005,284.986" svgx:width="0.52,0.27,0.38,0.55,0.38,0.55,0.55,0.27,0.55,0.55,0.27,0.55,0.5,0.55,0.38,0.5,0.55,0.38,0.55,0.44,0.55,0.38,0.55,0.44,0.44,0.27,0.55,0.44,0.55,0.38,0.44,0.38,0.82,0.27,0.55,0.5,0.27,0.55,0.38,0.27,0.5,0.27,0.27,0.44,0.55,0.5,0.44,0.27,0.55,0.55,0.5,0.55" style="fill:rgb(0,0,0);font-family:AdvOT16dca58f;font-size:9.96px;stroke:none;">virus binding to the speciﬁc terminal sialic acid on</text>
   <text y="577.81" x="63.779,67.615,73.114,77.49640000000001,83.792,88.146,92.5,95.19,97.8792,104.258,108.094,113.593,117.429,120.438,125.419,129.773,134.249,136.9382,143.263,150.835,155.188,159.024,164.005,166.695,169.385,173.739,179.217,185.669,190.022,195.522,200.503,204.339,209.32,213.674,217.586,221.94,225.775,228.465,232.819,237.8,241.636,244.326,249.307,254.785,261.239,266.22,269.208,275.582,283.054" svgx:width="0.38,0.55,0.44,0.55,0.44,0.44,0.27,0.27,0.55,0.38,0.55,0.38,0.3,0.5,0.44,0.44,0.27,0.55,0.76,0.44,0.38,0.5,0.27,0.27,0.44,0.55,0.55,0.44,0.55,0.5,0.38,0.5,0.44,0.38,0.44,0.38,0.27,0.44,0.5,0.38,0.27,0.5,0.55,0.55,0.5,0.3,0.55,0.75,0.75" style="fill:rgb(0,0,0);font-family:AdvOT16dca58f;font-size:9.96px;stroke:none;">the cell surface. Detailed characterization of HA</text>
   <text y="589.772" x="63.779,69.279,71.969,77.468,82.967,85.657,91.157,96.137,99.666,106.819,109.509,112.199,114.8882,118.374,123.874,127.709,132.691,137.871,140.655,146.154,150.5364,153.978,158.959,164.437,167.924,170.614,176.114,179.949,182.721,187.702,193.202,196.9868,200.522,203.212,208.711,212.547,217.527,220.988,224.824,230.323,234.7054,238.166,243.665,248.087,251.922,254.612,259.593,265.071,268.553,273.534,276.522,280.005,284.986" svgx:width="0.55,0.27,0.55,0.55,0.27,0.55,0.5,0.55,0.72,0.27,0.27,0.27,0.55,0.55,0.38,0.5,0.52,0.27,0.55,0.44,0.55,0.5,0.55,0.55,0.27,0.55,0.38,0.27,0.5,0.55,0.38,0.55,0.27,0.55,0.38,0.5,0.55,0.38,0.55,0.44,0.55,0.55,0.44,0.38,0.27,0.5,0.55,0.55,0.5,0.3,0.55,0.5,0.55" style="fill:rgb(0,0,0);font-family:AdvOT16dca58f;font-size:9.96px;stroke:none;">binding will provide an insight into the design of an</text>
   <text y="601.734" x="63.779,66.469,71.969,77.468,80.158,85.657,88.347,92.183,97.164,100.9488,105.505,108.195,113.694,117.53,121.883,125.719,128.728,133.081,136.917,139.607,145.106,150.08599999999998,154.6,161.754,164.444,168.279,173.757,178.241,183.421,186.111,189.947,195.446,199.2308,203.752,209.251,211.941,217.441,222.94,225.63,231.129,236.10899999999998,240.545,244.38,249.35999999999999,253.811,259.31,264.292,268.127,271.9118,276.374,280.728,285.082,287.772" svgx:width="0.27,0.55,0.55,0.27,0.55,0.27,0.38,0.5,0.38,0.55,0.27,0.55,0.38,0.44,0.38,0.3,0.44,0.38,0.27,0.55,0.5,0.55,0.72,0.27,0.38,0.55,0.55,0.52,0.27,0.38,0.55,0.38,0.55,0.55,0.27,0.55,0.55,0.27,0.55,0.5,0.55,0.38,0.5,0.55,0.55,0.5,0.38,0.38,0.55,0.44,0.44,0.27,0.27" style="fill:rgb(0,0,0);font-family:AdvOT16dca58f;font-size:9.96px;stroke:none;">inhibitor interfering with virus binding to host cell</text>
   <text y="613.697" x="63.779,67.615,71.969,76.322,80.676,86.175,90.011,95.073,98.909,102.69380000000001,106.298,110.133,115.633,120.614,124.39880000000001,128.011,135.164,137.854,140.544,143.2332,146.833,152.332,156.71439999999998,160.269,165.769,169.604,173.958,176.967,182.466,185.1552,188.728,191.737,196.718,200.50279999999998,204.148,207.984,213.483,217.837,221.673,226.654,232.153,236.507,242.006,245.931,248.62,253.0024,256.532,261.513,267.012,272.512,275.202,277.892,282.327,287.308" svgx:width="0.38,0.44,0.44,0.44,0.55,0.38,0.5,0.38,0.38,0.55,0.38,0.55,0.5,0.38,0.55,0.72,0.27,0.27,0.27,0.55,0.55,0.44,0.55,0.55,0.38,0.44,0.3,0.55,0.27,0.55,0.3,0.5,0.38,0.55,0.38,0.55,0.44,0.38,0.5,0.55,0.44,0.55,0.38,0.27,0.44,0.55,0.5,0.55,0.55,0.27,0.27,0.44,0.5,0.32" style="fill:rgb(0,0,0);font-family:AdvOT16dca58f;font-size:9.96px;stroke:none;">receptors that will be useful for therapeutic applica-</text>
   <text y="625.659" x="63.779,67.615,70.305,75.286,80.786,83.4752,88.271,95.214,97.904,103.404,108.903,111.685,117.184,122.164,126.991,132.49,136.326,140.68,143.688,148.042,151.878,156.231,161.731,166.084,170.4664,175.35,180.331,183.319,188.106,191.941,197.441,201.8234,206.644,211.825,214.515,218.35,223.85,227.63479999999998,232.496,235.505,239.34,244.322" svgx:width="0.38,0.27,0.5,0.55,0.27,0.55,0.7,0.27,0.55,0.55,0.27,0.55,0.5,0.55,0.55,0.38,0.44,0.3,0.44,0.38,0.44,0.55,0.44,0.44,0.55,0.5,0.3,0.55,0.38,0.55,0.44,0.55,0.52,0.27,0.38,0.55,0.38,0.55,0.3,0.38,0.5,0.82" style="fill:rgb(0,0,0);font-family:AdvOT16dca58f;font-size:9.96px;stroke:none;">tion. Binding preference of the virus from</text>
   <text y="625.659" x="257.385" svgx:width="0.63" style="fill:rgb(0,0,0);font-family:AdvCMMI;font-size:9.96px;stroke:none;">,</text>
   <text y="625.659" x="263.678,268.724,271.932,276.91200000000003,281.706,285.542" svgx:width="0.5,0.32,0.5,0.55,0.38,0.5" style="fill:rgb(0,0,0);font-family:AdvOT16dca58f;font-size:9.96px;stroke:none;">2-3 to</text>
   <text y="637.621" x="63.779" svgx:width="0.63" style="fill:rgb(0,0,0);font-family:AdvCMMI;font-size:9.96px;stroke:none;">,</text>
   <text y="637.621" x="70.129,75.11,78.318,83.298,85.719,88.409,92.19380000000001,94.62,99.60000000000001,102.047,107.546,111.382,115.735,119.571,123.925,129.105,134.605,137.294,141.13,143.943,147.778,152.16039999999998,154.544,157.552,162.534,166.31879999999998,168.773,172.609,176.444,181.426,186.925,190.761,199.047,201.737,205.572,209.408,212.098,217.079,222.55700000000002,225.011,229.992,232.98,235.443,240.424,245.605,248.295,253.276,258.754,261.181,266.362,269.052,272.973,278.472,282.308,286.662" svgx:width="0.5,0.32,0.5,0.55,0.27,0.38,0.55,0.5,0.55,0.55,0.38,0.44,0.38,0.44,0.52,0.55,0.27,0.38,0.27,0.38,0.44,0.55,0.3,0.5,0.38,0.55,0.38,0.38,0.5,0.55,0.38,0.82,0.27,0.38,0.38,0.27,0.5,0.55,0.55,0.5,0.3,0.55,0.5,0.52,0.27,0.5,0.55,0.55,0.52,0.27,0.38,0.55,0.38,0.44,0.38" style="fill:rgb(0,0,0);font-family:AdvOT16dca58f;font-size:9.96px;stroke:none;">2-6 is a prerequisite for transmission of avian viruses</text>
   <text y="649.583" x="63.779,67.615,72.595,76.195,81.694,87.194,95.383,100.364,105.863,109.699,112.3882,116.049,123.202,128.184,133.683,137.592,140.282,145.782,151.281,156.262,161.762,165.5468,169.227,177.416,182.397,187.896,190.586,194.512,199.493,203.329,206.018,211.518,216.498,220.136,225.118,228.106,231.702,236.056,241.555,246.536,252.036,257.017,261.3994,265.037,267.727,273.205,276.829,280.664,286.164" svgx:width="0.38,0.5,0.55,0.55,0.55,0.82,0.5,0.55,0.38,0.27,0.55,0.72,0.5,0.55,0.38,0.27,0.55,0.55,0.5,0.55,0.38,0.55,0.82,0.5,0.55,0.27,0.38,0.5,0.38,0.27,0.55,0.5,0.55,0.5,0.3,0.55,0.44,0.55,0.5,0.55,0.5,0.44,0.55,0.27,0.55,0.55,0.38,0.55,0.44" style="fill:rgb(0,0,0);font-family:AdvOT16dca58f;font-size:9.96px;stroke:none;">to humans. Continuous monitoring of change in the</text>
   <text y="661.488" x="63.779,71.251,78.721,81.354,86.336,90.689,96.189,100.5714,103.181,108.162,111.94680000000001,114.633,121.786,126.139,128.829,131.5182,134.191,139.172,142.9568,145.643,148.333,153.811,156.471,160.307,165.806,170.1884,172.799,178.299,183.28,187.115,190.8998,193.605,197.959,202.312,205.002,207.6912,210.329,214.165,218.519,222.872,227.226,232.836,236.671,241.653,245.43779999999998,248.085,251.921,257.42,261.862,266.215,268.893,274.393,278.746,281.436,285.272" svgx:width="0.75,0.75,0.55,0.5,0.44,0.55,0.44,0.55,0.5,0.38,0.55,0.72,0.44,0.27,0.27,0.55,0.5,0.38,0.55,0.27,0.55,0.55,0.38,0.55,0.44,0.55,0.55,0.5,0.38,0.38,0.55,0.44,0.44,0.27,0.27,0.55,0.38,0.44,0.44,0.44,0.55,0.38,0.5,0.38,0.55,0.38,0.55,0.44,0.44,0.27,0.55,0.44,0.27,0.38,0.52" style="fill:rgb(0,0,0);font-family:AdvOT16dca58f;font-size:9.96px;stroke:none;">HA gene as well as in the host cell receptor speciﬁcity</text>
   <text y="673.45" x="63.779,66.469,70.2538,76.025,78.715,86.905,92.404,97.385,101.221,105.056,110.038,115.653,119.43780000000001,125.177,129.013,133.993,139.747,143.583,147.418,152.4,157.87800000000001,163.615,167.45,172.95,177.303,181.139,185.5214,191.281,193.971,199.502,205.001,210.501,214.854,220.354,224.707,229.68699999999998,235.445,240.626,243.315,247.151,252.65,256.486,260.84,264.6248,270.48,273.489,277.325,282.306" svgx:width="0.27,0.38,0.55,0.27,0.82,0.55,0.5,0.38,0.38,0.5,0.55,0.38,0.55,0.38,0.5,0.55,0.38,0.38,0.5,0.55,0.55,0.38,0.55,0.44,0.38,0.44,0.55,0.27,0.55,0.55,0.55,0.44,0.55,0.44,0.5,0.55,0.52,0.27,0.38,0.55,0.38,0.44,0.38,0.55,0.3,0.38,0.5,0.82" style="fill:rgb(0,0,0);font-family:AdvOT16dca58f;font-size:9.96px;stroke:none;">is important to stop these inﬂuenza viruses from</text>
   <text y="685.412" x="63.779,68.761,74.26,79.241,84.741,88.576,91.266,96.766,101.74600000000001,107.319,111.155,116.135,121.605,127.105,132.604,140.881,145.862,151.362,155.197,157.8862,163.387,167.223,174.795,178.57979999999998,184.137,191.29,196.789,201.17139999999998,206.7,211.88,214.57,218.406,223.905,227.6898,233.288,238.787,243.769,249.268,254.831,260.30899999999997,265.83,269.666,274.646,280.116,282.806,286.642" svgx:width="0.5,0.55,0.5,0.55,0.38,0.27,0.55,0.5,0.55,0.38,0.5,0.55,0.55,0.55,0.82,0.5,0.55,0.38,0.27,0.55,0.38,0.76,0.38,0.55,0.72,0.55,0.44,0.55,0.52,0.27,0.38,0.55,0.38,0.55,0.55,0.5,0.55,0.55,0.55,0.55,0.38,0.5,0.55,0.27,0.38,0.38" style="fill:rgb(0,0,0);font-family:AdvOT16dca58f;font-size:9.96px;stroke:none;">adapting to humans. (D) The virus bound to its</text>
   <text y="697.374" x="63.779,67.615,71.969,76.322,80.676,86.175,90.011,95.073,98.8578,103.86,106.55,110.3348,115.426,118.115,123.615,127.45,131.804,135.64,141.139,146.209,148.899,151.589,155.942,160.296,165.774,170.814,176.313,181.4922,186.518,190.871,196.371,201.87,206.851,211.205,216.386,220.306,225.287,229.123,231.813,235.648,238.3372,243.379,247.215,253.959,257.7438,262.768,266.295,271.773,276.829,280.664,286.164" svgx:width="0.38,0.44,0.44,0.44,0.55,0.38,0.5,0.38,0.55,0.27,0.38,0.55,0.27,0.55,0.38,0.44,0.38,0.55,0.5,0.27,0.27,0.44,0.44,0.55,0.55,0.55,0.52,0.55,0.44,0.55,0.55,0.5,0.44,0.52,0.38,0.5,0.38,0.27,0.38,0.27,0.55,0.38,0.68,0.38,0.55,0.35,0.55,0.55,0.38,0.55,0.44" style="fill:rgb(0,0,0);font-family:AdvOT16dca58f;font-size:9.96px;stroke:none;">receptor is internalized by endocytosis. (E) In the</text>
   <text y="709.337" x="63.779,68.761,73.114,75.804,81.304,83.994,88.3764,93.26,97.613,103.113,108.612,113.593,117.429,122.41,130.676,135.03,137.7192,142.582,146.417,151.917,156.2994,161.177,165.53,168.22,172.574,177.555,182.736,187.09,192.568,197.516,204.988,212.458,217.302,224.455,227.145,230.981,236.459,241.397,246.37699999999998,251.205,254.214,259.713,263.62,268.602,273.583,277.936,283.436,286.126" svgx:width="0.5,0.44,0.27,0.55,0.27,0.44,0.55,0.44,0.55,0.55,0.5,0.38,0.5,0.82,0.44,0.27,0.55,0.38,0.55,0.44,0.55,0.44,0.27,0.44,0.5,0.52,0.44,0.55,0.55,0.75,0.75,0.55,0.72,0.27,0.38,0.55,0.55,0.5,0.55,0.3,0.55,0.38,0.5,0.5,0.44,0.55,0.27,0.44" style="fill:rgb(0,0,0);font-family:AdvOT16dca58f;font-size:9.96px;stroke:none;">acidic endosome, the cleaved HA with a fusogenic</text>
   <text y="721.299" x="63.779,69.279,74.26,82.449,87.431,90.198,95.67599999999999,100.289,105.271,109.0558,113.782,117.617,123.117" svgx:width="0.55,0.5,0.82,0.5,0.27,0.55,0.55,0.5,0.38,0.55,0.38,0.55,0.44" style="fill:rgb(0,0,0);font-family:AdvOT16dca58f;font-size:9.96px;stroke:none;">domain at the</text>
   <text y="721.299" x="132.151" svgx:width="0.74" style="fill:rgb(0,0,0);font-family:AdvOT10484a9d.I;font-size:9.96px;stroke:none;">N</text>
   <text y="721.299" x="139.521,142.729,146.565,150.918,154.754,163.049,165.739,171.238,176.737,180.52179999999998,185.216,190.197,193.185,197.858,205.33,212.802,217.78199999999998,222.463,230.652,235.006,240.505,243.195,248.258,252.093,256.447,260.2318,264.925,267.934,273.433,277.341,280.031,285.012" svgx:width="0.32,0.38,0.44,0.38,0.82,0.27,0.55,0.55,0.38,0.55,0.5,0.3,0.55,0.75,0.75,0.5,0.55,0.82,0.44,0.55,0.27,0.5,0.38,0.44,0.38,0.55,0.3,0.55,0.38,0.27,0.5,0.55" style="fill:rgb(0,0,0);font-family:AdvOT16dca58f;font-size:9.96px;stroke:none;">-terminus of HA2 mediates fusion</text>
   <text y="111.569" x="304.724,309.705,312.693,319.01,322.846,328.421,332.8034,339.079,344.578,349.56,353.395,357.1798,363.627,367.98,373.48,378.979,383.96,387.796,392.777,401.043,406.025,408.7142,415.047,423.236,427.59,435.779,441.278,445.207,450.188,455.687,460.06940000000003,466.409,473.562,476.252,480.088,485.56600000000003,491.977,495.813,501.312,505.69440000000003,512.046,517.226,519.916,523.752,528.733" svgx:width="0.5,0.3,0.55,0.38,0.55,0.44,0.55,0.55,0.5,0.38,0.38,0.55,0.44,0.55,0.55,0.5,0.38,0.5,0.82,0.5,0.27,0.55,0.82,0.44,0.82,0.55,0.38,0.5,0.55,0.44,0.55,0.72,0.27,0.38,0.55,0.55,0.38,0.55,0.44,0.55,0.52,0.27,0.38,0.5,0.27" style="fill:rgb(0,0,0);font-family:AdvOT16dca58f;font-size:9.96px;stroke:none;">of the host endosomal membrane with the viral</text>
   <text y="123.531" x="304.724,312.913,317.267,325.456,330.956,334.884,339.865,345.364,349.718,352.40720000000005,355.974,360.955,363.645,366.335,371.394,378.547,381.237,386.736,391.716,395.318,399.672,405.171,409.007,412.842,418.02119999999996,421.623,426.604,429.592,433.189,438.369,441.059,444.895,449.876,452.5652,456.205,460.041,462.731,468.23,473.211,478.711,484.21,488.564,491.354,495.708,500.689,506.189,510.024,515.006,518.841,523.273,525.962" svgx:width="0.82,0.44,0.82,0.55,0.38,0.5,0.55,0.44,0.27,0.55,0.5,0.27,0.27,0.5,0.72,0.27,0.55,0.5,0.55,0.44,0.55,0.38,0.38,0.52,0.55,0.5,0.3,0.55,0.52,0.27,0.38,0.5,0.27,0.55,0.38,0.27,0.55,0.5,0.55,0.55,0.44,0.27,0.44,0.5,0.55,0.38,0.5,0.38,0.44,0.27,0.55" style="fill:rgb(0,0,0);font-family:AdvOT16dca58f;font-size:9.96px;stroke:none;">membrane, allowing entry of viral ribonucleoprotein</text>
   <text y="135.493" x="304.724,307.414,312.913,316.749,321.72900000000004,325.927,329.763,335.262,339.6444,343.842,349.341,354.323,358.158,361.94280000000003,366.179,370.533,374.887,377.577,380.352,383.0412,387.212,393.957,396.647,402.146,406.5,409.19,414.689,419.753,423.589,426.279,431.26,436.738,440.957,445.938,448.926,453.146,456.982,462.481,466.8634,471.061,474.069,479.569,483.404,486.094,491.076,496.55400000000003,500.824,509.013,513.367,517.721,523.22,528.201" svgx:width="0.27,0.55,0.38,0.5,0.55,0.38,0.55,0.44,0.55,0.55,0.5,0.38,0.38,0.55,0.44,0.44,0.27,0.27,0.27,0.55,0.68,0.27,0.55,0.44,0.27,0.55,0.5,0.38,0.27,0.5,0.55,0.55,0.5,0.3,0.55,0.38,0.55,0.44,0.55,0.3,0.55,0.38,0.27,0.5,0.55,0.55,0.82,0.44,0.44,0.55,0.5,0.32" style="fill:rgb(0,0,0);font-family:AdvOT16dca58f;font-size:9.96px;stroke:none;">into the host cell. Elucidation of the fusion mecha-</text>
   <text y="147.455" x="304.724,310.223,312.913,316.749,324.9162,331.766,338.92,341.609,344.299,346.9882,353.82,359.319,363.70140000000004,370.43,375.93,379.765,384.119,387.211,392.711,395.40020000000004,402.178,405.187,410.168,413.9528,420.774,426.33,431.83,437.329,440.019,445.518,450.498,457.284,462.266,467.319,471.672,477.172,481.007,484.7918,491.639,495.475,500.974,505.956,509.74080000000004,516.584,520.937,525.919" svgx:width="0.55,0.27,0.38,0.82,0.55,0.72,0.27,0.27,0.27,0.55,0.55,0.44,0.55,0.55,0.38,0.44,0.3,0.55,0.27,0.55,0.3,0.5,0.38,0.55,0.55,0.55,0.55,0.27,0.55,0.5,0.55,0.5,0.5,0.44,0.55,0.38,0.38,0.55,0.38,0.55,0.5,0.38,0.55,0.44,0.5,0.55" style="fill:rgb(0,0,0);font-family:AdvOT16dca58f;font-size:9.96px;stroke:none;">nism will be useful for ﬁnding agents that can</text>
   <text y="159.417" x="304.725,307.415,312.914,316.75,321.104,324.939,327.948,332.391,336.227,340.6094,343.276,350.429,353.119,356.955,362.433,365.216,369.052,374.551,377.241,381.0258,383.811,386.82,392.319,397.819,402.172,406.092,408.781,413.763,419.262,421.95120000000003,424.687,431.84,437.339,441.693,445.606,449.96,452.969,457.95,461.785,466.139,468.82820000000004,471.571,478.724,483.1064,485.857,493.01,495.7,498.39,501.0792,503.829,507.664,512.018,517.198,519.888,524.242" svgx:width="0.27,0.55,0.38,0.44,0.38,0.3,0.44,0.38,0.44,0.55,0.72,0.27,0.38,0.55,0.55,0.38,0.55,0.27,0.38,0.55,0.3,0.55,0.55,0.44,0.38,0.27,0.5,0.55,0.27,0.55,0.72,0.55,0.44,0.38,0.44,0.3,0.5,0.38,0.44,0.27,0.55,0.72,0.44,0.55,0.72,0.27,0.27,0.27,0.55,0.38,0.44,0.52,0.27,0.44,0.72" style="fill:rgb(0,0,0);font-family:AdvOT16dca58f;font-size:9.96px;stroke:none;">interfere with this function. Therefore, we will review</text>
   <text y="171.379" x="304.725,309.079,314.578,319.559,323.395,328.376,332.73,336.642,340.996,344.831,347.521,351.357,355.193,357.882,362.236,366.0208,370.43,375.412,380.975,386.45300000000003,390.726,393.735,399.234,404.734,409.087,413.007,415.696,420.678,426.177,429.96180000000004,434.323,439.304,442.292,446.624,454.096,461.56600000000003,465.9,469.736,477.208,482.189,485.97380000000004,490.391,494.227,499.207,503.487,508.986,514.486,519.985,524.406,528.242" svgx:width="0.44,0.55,0.5,0.38,0.5,0.44,0.38,0.44,0.38,0.27,0.38,0.38,0.27,0.44,0.38,0.55,0.5,0.55,0.55,0.55,0.3,0.55,0.55,0.44,0.38,0.27,0.5,0.55,0.38,0.55,0.5,0.3,0.55,0.75,0.75,0.55,0.38,0.75,0.5,0.38,0.55,0.38,0.5,0.55,0.55,0.55,0.55,0.44,0.38,0.32" style="fill:rgb(0,0,0);font-family:AdvOT16dca58f;font-size:9.96px;stroke:none;">characteristics and functions of HA (H1) to under-</text>
   <text y="183.284" x="304.725,308.561,312.396,317.377,322.877,328.355,332.334,337.834,342.815,349.9862,353.877,357.713,363.212,367.5944,371.508,376.689,379.379,383.214,388.714,392.4988,396.509,399.199,404.699,407.389,411.306,413.996,418.977,422.813,427.166,430.9508,434.946,437.636,443.135,446.144,450.498,454.851,458.687,461.377,466.358,471.836,475.821,480.802,486.365,491.843,495.776,498.466,502.2508,506.208,510.043,513.879,518.86,524.36,528.195" svgx:width="0.38,0.38,0.5,0.55,0.55,0.55,0.55,0.5,0.72,0.55,0.38,0.55,0.44,0.55,0.52,0.27,0.38,0.55,0.38,0.55,0.27,0.55,0.27,0.38,0.27,0.5,0.38,0.44,0.38,0.55,0.27,0.55,0.3,0.44,0.44,0.38,0.27,0.5,0.55,0.55,0.5,0.55,0.55,0.55,0.27,0.38,0.55,0.38,0.38,0.5,0.55,0.38,0.32" style="fill:rgb(0,0,0);font-family:AdvOT16dca58f;font-size:9.96px;stroke:none;">stand how the virus initiates infection and is trans-</text>
   <text y="195.247" x="304.725,312.914,315.604,319.44,323.275,327.629,333.107,339.194,344.175,349.674,355.152,361.133,369.323,374.304,376.994,382.493,386.418,391.4,394.09,399.589,403.943,409.421,415.444,418.134,423.612,429.674,435.173,440.155,443.99,449.49,453.325,457.679,460.3682,466.41,476.572,480.9544,486.933,492.432,497.414,502.913,507.29540000000003,513.295,517.131,522.63,527.611" svgx:width="0.82,0.27,0.38,0.38,0.44,0.55,0.55,0.5,0.55,0.55,0.55,0.82,0.5,0.27,0.55,0.38,0.5,0.27,0.55,0.44,0.55,0.55,0.27,0.55,0.55,0.55,0.5,0.38,0.55,0.38,0.44,0.27,0.55,1.02,0.44,0.55,0.55,0.5,0.55,0.44,0.55,0.38,0.55,0.5,0.38" style="fill:rgb(0,0,0);font-family:AdvOT16dca58f;font-size:9.96px;stroke:none;">mitted and maintained in nature. We hope that</text>
   <text y="207.209" x="304.725,308.561,314.06,316.75,320.5348,325.644,329.48,333.834,339.014,341.802,346.155,353.3262,358.356,365.509,368.276,370.966,373.65520000000004,378.708,384.208,388.043,393.025,398.205,400.989,406.488,410.8704,415.899,420.252,422.942,428.442,432.795,436.57980000000003,441.751,444.759,449.741,453.5258,458.645,465.798,470.78,476.05,479.83480000000003,484.95,488.786,493.766,498.84,504.34,508.175,512.529,517.709,522.063,527.562" svgx:width="0.38,0.55,0.27,0.38,0.55,0.38,0.44,0.52,0.27,0.44,0.72,0.55,0.72,0.27,0.27,0.27,0.55,0.55,0.38,0.5,0.52,0.27,0.55,0.44,0.55,0.44,0.27,0.55,0.44,0.38,0.55,0.3,0.5,0.38,0.55,0.72,0.5,0.52,0.38,0.55,0.38,0.5,0.55,0.55,0.38,0.44,0.52,0.44,0.55,0.38" style="fill:rgb(0,0,0);font-family:AdvOT16dca58f;font-size:9.96px;stroke:none;">this review will provide clues for ways to prevent</text>
   <text y="219.171" x="304.725,307.415,312.945,318.444,323.944,328.298,333.797,338.151,343.13100000000003,345.827,351.007,353.697,357.533,363.032,366.8168,369.581,372.27,377.77,380.779,385.132,389.486,393.321,396.112,401.093,406.571,409.265,414.764,419.9432,422.588,426.423,430.259,435.24,440.739,446.341,449.031,454.531,459.511,462.159,467.34,470.029,473.951,479.45,483.2348,485.913,489.748,494.102,499.602,502.291,505.075,509.429,514.41,518.246,520.935,525.917" svgx:width="0.27,0.55,0.55,0.55,0.44,0.55,0.44,0.5,0.55,0.52,0.27,0.38,0.55,0.38,0.55,0.27,0.55,0.3,0.44,0.44,0.38,0.27,0.5,0.55,0.55,0.55,0.52,0.55,0.38,0.38,0.5,0.55,0.55,0.27,0.55,0.5,0.55,0.52,0.27,0.38,0.55,0.38,0.55,0.38,0.44,0.55,0.27,0.27,0.44,0.5,0.38,0.27,0.5,0.55" style="fill:rgb(0,0,0);font-family:AdvOT16dca58f;font-size:9.96px;stroke:none;">inﬂuenza virus infection by stopping virus replication</text>
   <text y="231.133" x="304.725,309.706,315.206,320.684,325.248,333.437,338.937,342.772,347.753,351.667,354.357,359.338,364.837,367.5262,372.133,375.142,380.123,383.9078,388.517,392.353,397.852,401.688,406.869,411.308,413.998,416.688,419.378,424.359,429.858,434.212,438.5944,443.169,448.151,451.139,455.755,460.936,463.626,467.461,472.961,476.796,481.15,484.9348,489.6,492.29,497.76800000000003,502.356,507.337,512.837,515.527,523.716,528.775" svgx:width="0.5,0.55,0.55,0.55,0.82,0.55,0.38,0.5,0.38,0.27,0.5,0.55,0.27,0.55,0.3,0.5,0.38,0.55,0.38,0.55,0.38,0.52,0.44,0.27,0.27,0.27,0.5,0.55,0.44,0.44,0.55,0.5,0.3,0.55,0.52,0.27,0.38,0.55,0.38,0.44,0.38,0.55,0.27,0.55,0.55,0.5,0.55,0.27,0.82,0.5,0.27" style="fill:rgb(0,0,0);font-family:AdvOT16dca58f;font-size:9.96px;stroke:none;">and mutation, for surveillance of viruses in animal</text>
   <text y="243.095" x="304.725,309.706,315.206,320.684,327.175,332.674,338.173,346.45,351.432,356.91,363.402,368.901,373.946,379.446,384.945,387.635,392.616,396.452,399.142,404.123,409.622,413.458,416.14720000000005,422.701,425.71,430.691,434.4758,441.069,446.569,450.404,454.758,460.257,462.947,467.301,471.229,473.919,478.9,484.378,490.901,495.882,498.87,505.358,508.367,513.866,517.773,523.273,527.108" svgx:width="0.5,0.55,0.55,0.55,0.55,0.55,0.82,0.5,0.55,0.55,0.55,0.5,0.55,0.55,0.27,0.5,0.38,0.27,0.5,0.55,0.38,0.27,0.55,0.3,0.5,0.38,0.55,0.55,0.38,0.44,0.55,0.27,0.44,0.38,0.27,0.5,0.55,0.55,0.5,0.3,0.55,0.3,0.55,0.38,0.55,0.38,0.44" style="fill:rgb(0,0,0);font-family:AdvOT16dca58f;font-size:9.96px;stroke:none;">and human populations, for prediction of future</text>
   <text y="255.057" x="304.725,309.079,314.578,317.268,322.767,327.121,335.31,338.0,342.3824,345.487,350.468,356.031,361.509,364.592,370.092,375.073,380.572,386.072,390.425,398.615,401.305,405.6874,408.812,412.648,418.147,421.983,426.337,431.318,435.231,439.067,441.75620000000004,444.812,449.794,455.357,460.83500000000004,463.917,466.926,471.907,475.6918,478.827,482.663,488.162,492.5444,495.608,501.108,505.462,510.642,514.996,517.775,522.757,528.256" svgx:width="0.44,0.55,0.27,0.55,0.44,0.82,0.27,0.44,0.55,0.5,0.55,0.55,0.55,0.55,0.5,0.55,0.55,0.44,0.82,0.27,0.44,0.55,0.38,0.55,0.38,0.44,0.5,0.38,0.38,0.27,0.55,0.5,0.55,0.55,0.55,0.3,0.5,0.38,0.55,0.38,0.55,0.44,0.55,0.55,0.44,0.52,0.44,0.27,0.5,0.55,0.32" style="fill:rgb(0,0,0);font-family:AdvOT16dca58f;font-size:9.96px;stroke:none;">epidemic and pandemic threats, and for the develop-</text>
   <text y="267.019" x="304.725,312.914,317.268,322.767,326.5518,329.953,334.935,337.923,341.292,346.791,351.145,358.3162,361.644,366.825,371.806,376.16,380.514,383.301,388.8,393.154,396.9388,400.365,405.346,410.846,416.324,419.697,424.679,430.178,434.014,436.704,441.884,444.574,448.41,453.486,456.176,460.011" svgx:width="0.82,0.44,0.55,0.38,0.55,0.5,0.3,0.55,0.55,0.44,0.72,0.55,0.52,0.5,0.44,0.44,0.27,0.55,0.44,0.38,0.55,0.5,0.55,0.55,0.55,0.5,0.55,0.38,0.27,0.52,0.27,0.38,0.5,0.27,0.38,0.27" style="fill:rgb(0,0,0);font-family:AdvOT16dca58f;font-size:9.96px;stroke:none;">ment of new vaccines and antivirals.</text>
   <text y="285.902" x="329.499,337.97,342.892,351.855,357.079,362.493,367.906,370.859,376.869,381.005,383.958,389.968,392.921,398.88079999999997,402.122,407.536,410.489,416.205,421.032,426.446,432.456,436.885,442.299,446.435,451.357,454.31,460.2698,463.52,467.75,471.886,476.316,482.326,487.153,491.289,497.299,501.728" svgx:width="0.89,0.52,0.95,0.55,0.57,0.57,0.31,0.63,0.44,0.31,0.63,0.31,0.63,0.55,0.57,0.31,0.6,0.51,0.57,0.63,0.47,0.57,0.44,0.52,0.31,0.63,0.55,0.45,0.44,0.47,0.63,0.51,0.44,0.63,0.47,0.52" style="fill:rgb(0,0,0);font-family:AdvOTff87d931.B;font-size:9.46px;stroke:none;">Hemagglutinin glycoprotein structure</text>
   <text y="302.854" x="324.624,328.15,333.694,339.194,344.693,349.047,354.546,358.9,363.88,367.313,374.783,378.198,383.379,386.069,389.904,395.49,399.325,402.0142,405.41,410.39000000000004,413.801,421.99,426.344,434.533,440.032,444.386,448.17080000000004,451.727,456.709,459.697,463.123,466.958,472.458" svgx:width="0.35,0.55,0.55,0.55,0.44,0.55,0.44,0.5,0.55,0.75,0.55,0.52,0.27,0.38,0.55,0.38,0.27,0.55,0.5,0.55,0.82,0.44,0.82,0.55,0.44,0.38,0.55,0.5,0.3,0.55,0.38,0.55,0.44" style="fill:rgb(0,0,0);font-family:AdvOT16dca58f;font-size:9.96px;stroke:none;">Inﬂuenza A virus, a member of the</text>
   <text y="302.854" x="480.189,487.76,491.98,495.188,500.269,505.35,513.44,518.212,522.775,527.856" svgx:width="0.76,0.42,0.32,0.51,0.51,0.81,0.48,0.46,0.51,0.35" style="fill:rgb(0,0,0);font-family:AdvOT10484a9d.I;font-size:9.96px;stroke:none;">Orthomyxo-</text>
   <text y="314.816" x="304.725,309.288,312.297,316.441,319.45,324.531,329.612" svgx:width="0.46,0.3,0.42,0.3,0.51,0.51,0.46" style="fill:rgb(0,0,0);font-family:AdvOT10484a9d.I;font-size:9.96px;stroke:none;">viridae</text>
   <text y="314.816" x="336.87,339.878,344.92,353.11,355.799,358.489,363.67,366.35920000000004,369.071,374.57,379.551,383.3358,386.079,391.059,393.732,397.568,403.067,408.566,412.92,416.756,419.527,423.881,428.862,431.55120000000005,434.21,438.046,440.736,445.089,449.4714,452.182,457.163,460.151,462.84,467.821,473.32,478.302,483.801,487.5858,490.335,495.317,500.298,505.278,506.889,512.389,520.5562,523.274,525.964" svgx:width="0.3,0.5,0.82,0.27,0.27,0.52,0.27,0.55,0.55,0.5,0.38,0.55,0.5,0.55,0.38,0.55,0.55,0.44,0.38,0.27,0.44,0.5,0.27,0.55,0.38,0.27,0.44,0.44,0.55,0.5,0.3,0.55,0.5,0.55,0.5,0.55,0.38,0.55,0.5,0.5,0.5,0.55,0.55,0.82,0.55,0.27,0.55" style="fill:rgb(0,0,0);font-family:AdvOT16dca58f;font-size:9.96px;stroke:none;">family, has a spherical size of about 100 nm in</text>
   <text y="326.778" x="304.725,310.225,312.914,317.896,326.085,330.52,334.356,338.71,342.545,345.23420000000004,349.512,356.984,360.7688,365.103,368.938,374.438,379.419,386.646,392.124,396.397,399.087,404.565,408.869,415.295,417.985,422.966,425.65520000000004,429.108,434.09,439.589,442.2782,446.57,449.26,453.0448,457.341,460.031,463.8158,468.17,472.523,477.505,485.694,491.193,496.175,500.087,504.441,509.919,514.203,519.184,522.172,526.505" svgx:width="0.55,0.27,0.5,0.82,0.44,0.38,0.44,0.38,0.27,0.55,0.75,0.38,0.55,0.38,0.55,0.5,0.72,0.55,0.55,0.27,0.55,0.55,0.64,0.27,0.5,0.27,0.55,0.5,0.55,0.27,0.55,0.27,0.38,0.55,0.27,0.38,0.55,0.44,0.5,0.82,0.55,0.5,0.38,0.44,0.55,0.55,0.5,0.3,0.55,0.5" style="fill:rgb(0,0,0);font-family:AdvOT16dca58f;font-size:9.96px;stroke:none;">diameter. As shown in Fig. 2b, it is composed of a</text>
   <text y="338.74" x="304.725,307.415,310.105,315.604,318.294,323.772,327.572,333.072,335.762,338.452,343.433,348.719,353.073,356.908,359.59720000000004,363.402,370.555,376.054,378.744,383.098,388.576,392.371,395.061,398.8458,402.69,408.189,412.543,416.378,419.068,424.346,428.7,434.178,437.952,440.961,444.796,449.778,457.9452,461.763,465.598,471.098,475.48040000000003,479.281,484.78,489.762,493.597,497.3818,501.221,506.72,509.41,514.391,518.227,526.506" svgx:width="0.27,0.27,0.55,0.27,0.55,0.55,0.55,0.27,0.27,0.5,0.52,0.44,0.38,0.27,0.55,0.72,0.55,0.27,0.44,0.55,0.55,0.27,0.38,0.55,0.55,0.44,0.38,0.27,0.52,0.44,0.55,0.55,0.3,0.38,0.5,0.82,0.55,0.38,0.55,0.44,0.55,0.55,0.5,0.38,0.38,0.55,0.55,0.27,0.5,0.38,0.82,0.5" style="fill:rgb(0,0,0);font-family:AdvOT16dca58f;font-size:9.96px;stroke:none;">lipid bilayer, which is derived from the host plasma</text>
   <text y="350.702" x="304.725,312.914,317.268,325.457,330.957,334.885,339.866,345.366,349.719,352.4082,356.201,360.555,366.054,371.235,375.588,378.278,383.259,388.759,391.449,396.948,401.928,405.75,409.586,415.085,419.4674,423.212,427.047,429.737,435.236,440.218,445.717,451.331,455.685,458.375,462.728,467.71,473.209,477.044,482.114,485.95,490.304,492.994,498.47200000000004,502.24,506.076,513.408,520.88,527.625" svgx:width="0.82,0.44,0.82,0.55,0.38,0.5,0.55,0.44,0.27,0.55,0.44,0.55,0.52,0.44,0.27,0.5,0.55,0.27,0.55,0.5,0.55,0.38,0.55,0.44,0.55,0.38,0.27,0.55,0.5,0.55,0.55,0.44,0.27,0.44,0.5,0.55,0.38,0.5,0.38,0.44,0.27,0.55,0.55,0.38,0.73,0.75,0.68,0.38" style="fill:rgb(0,0,0);font-family:AdvOT16dca58f;font-size:9.96px;stroke:none;">membrane, enveloping the ribonucleoprotein (RNP)</text>
   <text y="362.664" x="304.725,309.079,314.06,322.249,327.749,330.52,334.874,340.0532,345.77,350.124,355.105,360.68,364.516,367.206,371.041,374.877,377.567,383.066,388.046,393.845,398.826,401.814,407.564,411.918,414.608,419.589,425.088,428.87280000000004,434.719,440.219,444.64,449.621,454.603,458.438,461.128,466.309,470.69140000000004,476.445,480.28,484.634,490.133,493.969,498.3514,504.111,507.946,510.636,516.136,521.117,523.897,528.25" svgx:width="0.44,0.5,0.82,0.55,0.27,0.44,0.52,0.55,0.44,0.5,0.55,0.38,0.27,0.38,0.38,0.27,0.55,0.5,0.55,0.5,0.3,0.55,0.44,0.27,0.5,0.55,0.38,0.55,0.55,0.44,0.5,0.5,0.38,0.27,0.52,0.44,0.55,0.38,0.44,0.55,0.38,0.44,0.55,0.38,0.27,0.55,0.5,0.27,0.44,0.32" style="fill:rgb(0,0,0);font-family:AdvOT16dca58f;font-size:9.96px;stroke:none;">complex consisting of eight negative sense single-</text>
   <text y="374.569" x="304.725,308.561,312.396,316.232,321.213,326.713,332.212,336.642,342.12,346.734,353.996,361.53,369.0,373.606,377.441,381.277,385.112,392.375,399.847,407.394,411.1788,415.841,419.677,424.03,429.012,437.201,441.636,447.136,450.971,454.7558,459.438,462.127,467.605,472.25,476.673,481.654,489.843,495.343,498.033,502.386,507.5652,512.218,519.372,522.139,525.975" svgx:width="0.38,0.38,0.38,0.5,0.55,0.55,0.44,0.55,0.55,0.73,0.75,0.75,0.55,0.38,0.38,0.38,0.73,0.75,0.75,0.38,0.55,0.38,0.44,0.5,0.82,0.44,0.55,0.38,0.38,0.55,0.27,0.55,0.55,0.44,0.5,0.82,0.55,0.27,0.44,0.52,0.55,0.72,0.27,0.38,0.55" style="fill:rgb(0,0,0);font-family:AdvOT16dca58f;font-size:9.96px;stroke:none;">stranded RNA (ssRNA) segments in complex with</text>
   <text y="386.531" x="304.725,310.225,315.206,317.896,323.076,331.266,335.619,339.455,344.436,348.378,352.7604,361.078,366.577,370.413,375.394,379.23,383.583,386.363,391.862,395.64680000000004,404.05,407.886,414.631,421.575,426.556,429.2452,437.612,444.416,451.36,456.34000000000003,464.712,469.693,475.192,480.67,489.032,495.777,503.249,507.03380000000004,515.451,520.433,525.932" svgx:width="0.55,0.5,0.27,0.52,0.82,0.44,0.38,0.5,0.38,0.44,0.55,0.55,0.38,0.5,0.38,0.44,0.27,0.55,0.38,0.55,0.38,0.68,0.7,0.5,0.27,0.55,0.68,0.7,0.5,0.55,0.5,0.55,0.55,0.55,0.68,0.75,0.38,0.55,0.5,0.55,0.55" style="fill:rgb(0,0,0);font-family:AdvOT16dca58f;font-size:9.96px;stroke:none;">polymerase proteins (PB1, PB2 and PA) and</text>
   <text y="398.493" x="304.725,310.225,315.724,320.078,322.768,327.121,332.102,337.602,341.437,346.507,350.343,354.697,357.387,362.865,370.204,374.04,381.512,388.346,392.182,394.87120000000004,402.179,409.333,414.832,419.2144,426.5,430.854,433.544,438.525,444.024,447.8088,455.243,459.079,462.914,470.177,477.649,485.119,492.49,496.326,500.68,505.661,513.85,518.286,523.785,527.62" svgx:width="0.55,0.55,0.44,0.27,0.44,0.5,0.55,0.38,0.5,0.38,0.44,0.27,0.55,0.55,0.38,0.75,0.68,0.38,0.27,0.55,0.72,0.55,0.44,0.55,0.44,0.27,0.5,0.55,0.38,0.55,0.38,0.38,0.73,0.75,0.75,0.55,0.38,0.44,0.5,0.82,0.44,0.55,0.38,0.38" style="fill:rgb(0,0,0);font-family:AdvOT16dca58f;font-size:9.96px;stroke:none;">nucleoprotein (NP). The eight ssRNA segments</text>
   <text y="410.456" x="304.725,309.079,314.578,318.932,323.913,329.413,333.79540000000003,339.874,344.856,349.836,355.861,361.042,363.732,367.567,372.549,375.2382,381.316,386.815,390.651,395.632,399.468,403.821,406.601,412.1,415.936,418.6252,424.686,431.839,437.338,441.72040000000004,447.759,452.113,457.612,462.793,467.147,469.926,474.907,480.407,484.76,487.968,492.95,496.785,500.71,505.691,510.044,512.734,517.716,521.551,525.905" svgx:width="0.44,0.55,0.44,0.5,0.55,0.44,0.55,0.5,0.5,0.55,0.52,0.27,0.38,0.5,0.27,0.55,0.55,0.38,0.5,0.38,0.44,0.27,0.55,0.38,0.27,0.55,0.72,0.55,0.44,0.55,0.44,0.55,0.52,0.44,0.27,0.5,0.55,0.44,0.32,0.5,0.38,0.38,0.5,0.44,0.27,0.5,0.38,0.44,0.55" style="fill:rgb(0,0,0);font-family:AdvOT16dca58f;font-size:9.96px;stroke:none;">encode 12 viral proteins. The envelope-associated</text>
   <text y="422.418" x="304.725,310.225,314.06,319.041,322.877,327.231,329.921,335.509,339.344,342.0332,348.832,354.331,358.685,366.874,371.855,376.837,381.818,384.604,390.104,393.939,396.629,402.129,404.819,410.297,417.146,420.982,428.454,435.926,439.7108,446.627,451.608,457.107,462.58500000000004,469.417,474.916,479.27,484.769,488.605,493.586,501.776,504.566,510.065,512.755,518.255,523.236,527.072" svgx:width="0.55,0.38,0.5,0.38,0.44,0.27,0.55,0.38,0.27,0.55,0.55,0.44,0.82,0.5,0.5,0.5,0.27,0.55,0.38,0.27,0.55,0.27,0.55,0.55,0.38,0.75,0.75,0.38,0.55,0.5,0.55,0.55,0.55,0.55,0.44,0.55,0.38,0.5,0.82,0.27,0.55,0.27,0.55,0.5,0.38,0.44" style="fill:rgb(0,0,0);font-family:AdvOT16dca58f;font-size:9.96px;stroke:none;">proteins, hemagglutinin (HA) and neuraminidase</text>
   <text y="434.38" x="304.725,308.561,316.033,323.505,327.34,330.0292,334.829,339.811,343.646,348.02840000000003,352.744,355.434,360.933,364.769,369.123,373.04,376.875,381.229,386.707,391.521,394.211,399.711,403.546,408.526,413.292,417.127,422.627,427.0094,431.773,434.463,437.153,442.653,445.342,450.82,455.641,461.14,463.83,466.52,471.501,476.682,481.152,484.9368,489.713,494.694,498.47880000000004,503.319,507.154,512.654,515.344,520.524,524.878,528.713" svgx:width="0.38,0.75,0.75,0.38,0.27,0.55,0.5,0.38,0.44,0.55,0.27,0.55,0.38,0.44,0.38,0.38,0.44,0.55,0.55,0.27,0.55,0.38,0.5,0.55,0.38,0.55,0.44,0.55,0.27,0.27,0.55,0.27,0.55,0.55,0.55,0.27,0.27,0.5,0.52,0.44,0.38,0.55,0.5,0.38,0.55,0.38,0.55,0.27,0.52,0.44,0.38,0.27" style="fill:rgb(0,0,0);font-family:AdvOT16dca58f;font-size:9.96px;stroke:none;">(NA), are inserted into the lipid bilayer as spikes.</text>
   <text y="446.342" x="304.725,313.751,318.731,322.13,330.319,335.3,339.136,343.049,345.739,350.91819999999996,354.331,359.83,363.666,368.647,372.483,376.837,379.616,385.094,388.517,391.207,394.9918,398.437,401.127,406.627,411.807,416.789,419.478,424.659,429.013,434.491,438.009,440.699,446.177,449.631,455.131,460.63,464.984,467.674,472.027,477.009,480.79380000000003,484.327,488.681,493.861,499.361,504.342,508.178,511.9628,515.451,520.433,525.932" svgx:width="0.91,0.5,0.55,0.82,0.5,0.38,0.38,0.27,0.52,0.55,0.55,0.38,0.5,0.38,0.44,0.27,0.55,0.55,0.27,0.38,0.55,0.27,0.55,0.52,0.5,0.27,0.52,0.44,0.55,0.55,0.27,0.55,0.55,0.55,0.55,0.44,0.27,0.44,0.5,0.38,0.55,0.44,0.52,0.55,0.5,0.38,0.38,0.55,0.5,0.55,0.55" style="fill:rgb(0,0,0);font-family:AdvOT16dca58f;font-size:9.96px;stroke:none;">M1 matrix protein is involved in nuclear export and</text>
   <text y="458.304" x="304.725,309.079,314.259,316.949,320.785,324.621,328.4058,335.396,340.895,345.249,350.748,355.102,360.083,363.919,369.397,376.327,380.163,385.662,390.0444,396.907,399.597,402.287,407.786,410.57,416.048,422.929,428.428,431.118,433.808,438.789,443.97,448.323,452.159,454.8482,461.82,470.846,475.826,482.682,488.182,492.017,496.999,500.834,505.815,511.293,518.285,520.974,525.956" svgx:width="0.44,0.52,0.27,0.38,0.38,0.38,0.55,0.55,0.44,0.55,0.44,0.5,0.38,0.55,0.55,0.38,0.55,0.44,0.55,0.27,0.27,0.55,0.27,0.55,0.55,0.55,0.27,0.27,0.5,0.52,0.44,0.38,0.27,0.55,0.91,0.5,0.55,0.55,0.38,0.5,0.38,0.5,0.55,0.55,0.27,0.5,0.55" style="fill:rgb(0,0,0);font-family:AdvOT16dca58f;font-size:9.96px;stroke:none;">exists beneath the lipid bilayer. M2 proton ion</text>
   <text y="470.209" x="304.725,309.079,314.578,319.56,325.059,330.558,334.912,337.6012,344.013,346.703,350.4878,356.938,361.292,369.481,374.981,379.334,384.944,390.444,394.797,400.27500000000003,406.658,409.348,414.826,421.285,425.12,430.62,435.0024,441.353,444.043,446.733,452.233,454.923,460.401,466.865,472.364,475.054,477.744,482.725,487.906,492.259,496.04380000000003,502.524,507.505,513.068,518.5459999999999,524.917,527.607" svgx:width="0.44,0.55,0.5,0.55,0.55,0.44,0.27,0.55,0.27,0.38,0.55,0.44,0.82,0.55,0.44,0.55,0.55,0.44,0.55,0.55,0.27,0.55,0.55,0.38,0.55,0.44,0.55,0.27,0.27,0.55,0.27,0.55,0.55,0.55,0.27,0.27,0.5,0.52,0.44,0.38,0.55,0.5,0.55,0.55,0.55,0.27,0.38" style="fill:rgb(0,0,0);font-family:AdvOT16dca58f;font-size:9.96px;stroke:none;">channel is embedded in the lipid bilayer and is</text>
   <text y="482.171" x="304.725,307.415,312.914,318.095,323.076,325.766,330.947,335.3,340.778,349.228,351.918,357.396,365.725,371.225,378.69500000000005,387.041,395.23,400.212,402.902,408.401,412.326,416.68,422.179,427.161,432.66,437.014,441.367,444.05620000000005,452.465,459.209,464.191,466.881,472.061,480.25,484.604,488.44,493.421,497.365,501.7474,510.064,515.564,520.545,524.381,527.071" svgx:width="0.27,0.55,0.52,0.5,0.27,0.52,0.44,0.55,0.55,0.27,0.55,0.55,0.55,0.75,0.55,0.82,0.5,0.27,0.55,0.38,0.44,0.55,0.5,0.55,0.44,0.44,0.27,0.55,0.68,0.5,0.27,0.52,0.82,0.44,0.38,0.5,0.38,0.44,0.55,0.55,0.5,0.38,0.27,0.44" style="fill:rgb(0,0,0);font-family:AdvOT16dca58f;font-size:9.96px;stroke:none;">involved in pH maintenance. Polymerase basic</text>
   <text y="494.133" x="304.725,310.225,314.06,319.041,322.877,327.231,329.921,335.399,339.024,344.004,347.585,351.421,358.166,365.11,370.091,373.8758,377.576,382.557,388.056,393.534,397.134,402.11400000000003,405.695,409.531,416.275,423.219,428.201,431.98580000000004,435.686,440.667,446.166,451.644,455.244,460.743,465.725,468.415,473.595,481.785,486.138,489.974,494.955,498.897,503.2794,506.835,511.816,516.169,518.859,524.359,527.13" svgx:width="0.55,0.38,0.5,0.38,0.44,0.27,0.55,0.55,0.5,0.55,0.38,0.68,0.7,0.5,0.38,0.55,0.5,0.55,0.55,0.55,0.5,0.55,0.38,0.68,0.7,0.5,0.38,0.55,0.5,0.55,0.55,0.55,0.55,0.5,0.27,0.52,0.82,0.44,0.38,0.5,0.38,0.44,0.55,0.5,0.44,0.27,0.55,0.27,0.44" style="fill:rgb(0,0,0);font-family:AdvOT16dca58f;font-size:9.96px;stroke:none;">protein 1 (PB1) and 2 (PB2) and polymerase acidic</text>
   <text y="506.096" x="304.725,310.225,314.06,319.041,322.877,327.231,329.921,335.399,339.137,342.973,349.717,357.189,360.97380000000004,364.705,367.714,372.695,376.531,384.6982,388.402,393.382,397.02,402.519,406.873,410.708,415.062,418.898,423.879,427.803,431.639,434.329,442.6,446.953,450.789,453.479,457.8614,461.478,468.741,476.274,483.746,486.954,492.454,496.807,502.307,506.66,512.16,517.773,522.126,527.625" svgx:width="0.55,0.38,0.5,0.38,0.44,0.27,0.55,0.55,0.38,0.68,0.75,0.38,0.55,0.3,0.5,0.38,0.82,0.55,0.5,0.55,0.55,0.44,0.38,0.44,0.38,0.5,0.38,0.38,0.27,0.82,0.44,0.38,0.27,0.44,0.55,0.73,0.75,0.75,0.32,0.55,0.44,0.55,0.44,0.55,0.55,0.44,0.55,0.38" style="fill:rgb(0,0,0);font-family:AdvOT16dca58f;font-size:9.96px;stroke:none;">protein (PA) form a heterotrimeric RNA-dependent</text>
   <text y="518.058" x="304.725,311.988,319.46,326.93,329.5,335.0,339.981,342.671,347.851,356.145,360.499,364.334,369.316,373.151,377.505,380.1942,382.79,389.594,394.575,397.265,402.445,410.635,414.988,418.824,423.805,427.747,432.12940000000003,434.663,440.163,445.144,448.98,451.67,456.05240000000003,458.644,464.144,467.979,472.961,476.796,481.15,483.84,489.318,491.979,496.959,499.519,502.528,506.363,511.345,519.534,523.9164,526.505" svgx:width="0.73,0.75,0.75,0.55,0.55,0.5,0.27,0.52,0.82,0.44,0.38,0.5,0.38,0.44,0.27,0.55,0.68,0.5,0.27,0.52,0.82,0.44,0.38,0.5,0.38,0.44,0.55,0.55,0.5,0.38,0.27,0.44,0.55,0.55,0.38,0.5,0.38,0.44,0.27,0.55,0.55,0.5,0.55,0.3,0.38,0.5,0.82,0.44,0.55,0.5" style="fill:rgb(0,0,0);font-family:AdvOT16dca58f;font-size:9.96px;stroke:none;">RNA polymerase. Polymerase basic protein 1 frame 2</text>
   <text y="530.02" x="304.725,308.561,315.306,322.249,327.231,330.52,336.946,341.928,345.763,348.4522,353.027,358.007,362.494,367.994,373.039,378.538,381.746,385.582,389.417,393.253,398.752,403.106,406.941,412.553,416.389,421.37,424.05920000000003,428.597,434.097,437.932,442.913,446.749,451.103,453.882,459.36,463.917,468.27,473.252,478.751,483.105,488.583,493.17,496.178,500.014,504.995,513.1622,517.774,521.61,527.109" svgx:width="0.38,0.68,0.7,0.5,0.32,0.64,0.5,0.38,0.27,0.55,0.5,0.55,0.55,0.5,0.55,0.32,0.38,0.38,0.38,0.55,0.44,0.38,0.55,0.38,0.5,0.27,0.55,0.55,0.38,0.5,0.38,0.44,0.27,0.55,0.55,0.44,0.5,0.55,0.44,0.55,0.55,0.3,0.38,0.5,0.82,0.55,0.38,0.55,0.44" style="fill:rgb(0,0,0);font-family:AdvOT16dca58f;font-size:9.96px;stroke:none;">(PB1-F2), a non-structural protein coded from the</text>
   <text y="541.982" x="304.725,308.561,312.914,317.268,322.249,327.749,333.22700000000003,336.813,341.794,344.782,348.322,352.157,357.657,362.0394,365.556,369.391,374.891,378.726,383.08,387.4624,391.01,394.846,399.2,404.181,409.68,412.37,417.87,422.85,426.443,429.452,433.288,438.269,446.458,450.812,454.59680000000003,458.248,463.229,466.217,469.757,473.592,479.092,483.4744,486.991,493.736,500.68,505.66,509.215,516.477,524.011" svgx:width="0.38,0.44,0.44,0.5,0.55,0.55,0.55,0.5,0.3,0.55,0.38,0.55,0.44,0.55,0.38,0.55,0.38,0.44,0.44,0.55,0.38,0.44,0.5,0.55,0.27,0.55,0.5,0.55,0.3,0.38,0.5,0.82,0.44,0.38,0.55,0.5,0.3,0.55,0.38,0.55,0.44,0.55,0.68,0.7,0.5,0.55,0.73,0.75,0.75" style="fill:rgb(0,0,0);font-family:AdvOT16dca58f;font-size:9.96px;stroke:none;">second of the three reading frames of the PB1 RNA</text>
   <text y="553.944" x="304.725,308.561,312.914,317.896,326.085,330.52,336.02,339.855" svgx:width="0.38,0.44,0.5,0.82,0.44,0.55,0.38,0.27" style="fill:rgb(0,0,0);font-family:AdvOT16dca58f;font-size:9.96px;stroke:none;">segment,</text>
   <text y="550.205" x="342.539,346.025" svgx:width="0.5,0.38" style="fill:rgb(0,0,0);font-family:AdvOT16dca58f;font-size:6.97px;stroke:none;">7)</text>
   <text y="553.946" x="356.542,359.232,363.01680000000005,370.942,374.777,379.131,382.966,388.466,393.447,398.946,402.859,405.549,411.048,413.738,418.1204,425.932,428.941,433.922,437.70680000000004,445.604,451.104,456.085,459.921,465.42,470.401,475.481,479.835,485.334,488.024,492.378,495.068,498.903,504.084" svgx:width="0.27,0.38,0.55,0.38,0.44,0.38,0.55,0.5,0.55,0.38,0.27,0.55,0.27,0.44,0.55,0.3,0.5,0.38,0.55,0.55,0.5,0.38,0.55,0.5,0.5,0.44,0.55,0.27,0.44,0.27,0.38,0.52,0.27" style="fill:rgb(0,0,0);font-family:AdvOT16dca58f;font-size:9.96px;stroke:none;">is responsible for pathogenicity.</text>
   <text y="550.205" x="506.835,510.321" svgx:width="0.5,0.38" style="fill:rgb(0,0,0);font-family:AdvOT16dca58f;font-size:6.97px;stroke:none;">8)</text>
   <text y="553.946" x="520.838" svgx:width="0.74" style="fill:rgb(0,0,0);font-family:AdvOT10484a9d.I;font-size:9.96px;stroke:none;">N</text>
   <text y="553.946" x="528.265" svgx:width="0.32" style="fill:rgb(0,0,0);font-family:AdvOT16dca58f;font-size:9.96px;stroke:none;">-</text>
   <text y="565.852" x="304.726,308.561,312.915,316.751,324.94,327.63,333.129,338.111,340.8002,345.488,349.324,353.159,358.658,364.158,368.512,373.493,377.405,381.759,387.237,391.919,397.418,402.399,405.089,410.27,415.769,420.207,425.707,429.542,432.232,437.732,442.11440000000005,446.74,450.576,458.047,463.029,468.01,471.7948,476.503,479.193,482.9778,487.671,492.651,497.252,501.088,505.442,509.795,514.149,519.648,523.484,526.278" svgx:width="0.38,0.44,0.38,0.82,0.27,0.55,0.5,0.27,0.55,0.38,0.38,0.55,0.55,0.44,0.5,0.38,0.44,0.55,0.55,0.55,0.5,0.27,0.52,0.55,0.44,0.55,0.38,0.27,0.55,0.44,0.55,0.38,0.75,0.5,0.5,0.38,0.55,0.27,0.38,0.55,0.5,0.55,0.38,0.44,0.44,0.44,0.55,0.38,0.27,0.52" style="fill:rgb(0,0,0);font-family:AdvOT16dca58f;font-size:9.96px;stroke:none;">terminal truncated polypeptide (N40) is a recently</text>
   <text y="577.814" x="304.726,307.735,312.716,318.215,323.715,329.193,332.449,337.948,341.784,346.765,350.601,354.954,357.734,363.212,366.408,370.244,375.743,380.725,384.50980000000004,387.838,390.528,394.31280000000004,397.533,400.222,405.722,408.412,412.329,415.019,420.0,422.69,425.38,430.5592,433.815,437.651,441.487,446.468,451.967,455.803,458.589,463.571,467.406,471.76,477.238,480.472,485.454,489.2388,492.491,499.963,507.435,515.282,520.2620000000001,523.445,528.491" svgx:width="0.3,0.5,0.55,0.55,0.55,0.55,0.55,0.38,0.5,0.38,0.44,0.27,0.55,0.55,0.38,0.55,0.5,0.38,0.55,0.27,0.38,0.55,0.27,0.55,0.27,0.38,0.27,0.5,0.27,0.27,0.52,0.55,0.38,0.38,0.5,0.55,0.38,0.27,0.5,0.38,0.44,0.55,0.55,0.5,0.38,0.55,0.75,0.75,0.78,0.5,0.55,0.5,0.3" style="fill:rgb(0,0,0);font-family:AdvOT16dca58f;font-size:9.96px;stroke:none;">found protein that is initially translated at AUG5 of</text>
   <text y="589.776" x="304.726,311.471,318.415,323.39500000000004,327.403,331.756,336.738,342.237,347.218,352.696,356.713,361.694,366.67400000000004,370.659,373.349,378.827,382.849,386.684,392.184,396.56640000000004,400.536,408.725,415.988,423.46,430.932,433.62120000000004,437.67,440.36,444.14480000000003,448.157,453.139,458.638,464.201,468.555,473.536,477.372,481.15680000000003,485.177,489.013,493.993,497.99,500.68,506.18,510.015,514.369,518.286,523.267,527.621" svgx:width="0.68,0.7,0.5,0.55,0.44,0.5,0.55,0.5,0.55,0.55,0.5,0.5,0.55,0.27,0.55,0.55,0.38,0.55,0.44,0.55,0.82,0.73,0.75,0.75,0.27,0.55,0.27,0.38,0.55,0.5,0.55,0.55,0.44,0.5,0.38,0.38,0.55,0.38,0.5,0.55,0.27,0.55,0.38,0.44,0.38,0.5,0.44,0.38" style="fill:rgb(0,0,0);font-family:AdvOT16dca58f;font-size:9.96px;stroke:none;">PB1 codon 40 in the mRNA: it appears to interact</text>
   <text y="601.738" x="304.726,311.879,314.569,318.405,323.883,332.222,336.057,341.557,345.93940000000003,354.218,359.717,364.699,367.389,372.569,380.758,385.112,388.948,393.929,397.871,402.2534,410.514,414.867,419.849,428.038,433.537,436.309,440.663,445.843,448.53220000000005,456.832,461.813,467.376,472.854,481.153,483.843,488.824,492.659,496.4438,504.793,509.774,512.7620000000001,521.064,523.754,527.589" svgx:width="0.72,0.27,0.38,0.55,0.55,0.38,0.55,0.44,0.55,0.55,0.5,0.27,0.52,0.82,0.44,0.38,0.5,0.38,0.44,0.55,0.44,0.5,0.82,0.55,0.27,0.44,0.52,0.27,0.55,0.5,0.55,0.55,0.55,0.27,0.5,0.38,0.38,0.55,0.5,0.3,0.55,0.27,0.38,0.38" style="fill:rgb(0,0,0);font-family:AdvOT16dca58f;font-size:9.96px;stroke:none;">with the polymerase complex, and loss of its</text>
   <text y="613.7" x="304.726,309.08,314.26,319.759,323.595,327.949,331.784,335.62,338.31,343.39,348.868,352.461,356.814,361.796,367.274,370.886,373.575,377.929,382.91,388.38800000000003,392.032,395.868,400.848,404.448,407.137,415.327,420.826,425.807,428.497,432.333,436.687,442.165,445.833,449.669,454.023,459.522,462.212,464.902,469.255,474.237,478.072,480.869,485.85,491.349" svgx:width="0.44,0.52,0.55,0.38,0.44,0.38,0.38,0.27,0.5,0.55,0.55,0.44,0.5,0.55,0.55,0.27,0.44,0.5,0.55,0.55,0.38,0.5,0.55,0.27,0.82,0.55,0.5,0.27,0.38,0.44,0.55,0.55,0.38,0.44,0.55,0.27,0.27,0.44,0.5,0.38,0.27,0.5,0.55,0.27" style="fill:rgb(0,0,0);font-family:AdvOT16dca58f;font-size:9.96px;stroke:none;">expression can lead to impaired replication.</text>
   <text y="610.016" x="494.079,497.566" svgx:width="0.5,0.38" style="fill:rgb(0,0,0);font-family:AdvOT16dca58f;font-size:6.97px;stroke:none;">7)</text>
   <text y="613.701" x="503.83,511.302,516.801,521.155,523.845,528.198" svgx:width="0.75,0.55,0.44,0.27,0.44,0.32" style="fill:rgb(0,0,0);font-family:AdvOT16dca58f;font-size:9.96px;stroke:none;">Nucle-</text>
   <text y="625.663" x="304.725,309.707,315.206,319.042,324.023,327.858,332.212,334.902,340.498,344.2828,351.27,355.105,362.577,369.322,373.157,376.9418,383.981,389.48,393.902,398.255,403.755,408.108,413.586,420.603,423.612,428.593,432.37780000000004,439.369,444.549,447.239,451.161,456.142,458.8312,465.788,469.623,473.977,479.476,482.166,484.856,489.21,494.191,498.027,500.823,505.805,511.283,518.285,523.266,527.102" svgx:width="0.5,0.55,0.38,0.5,0.38,0.44,0.27,0.55,0.38,0.55,0.38,0.75,0.68,0.38,0.38,0.55,0.55,0.44,0.44,0.55,0.44,0.55,0.55,0.3,0.5,0.38,0.55,0.52,0.27,0.38,0.5,0.27,0.55,0.38,0.44,0.55,0.27,0.27,0.44,0.5,0.38,0.27,0.5,0.55,0.55,0.5,0.38,0.44" style="fill:rgb(0,0,0);font-family:AdvOT16dca58f;font-size:9.96px;stroke:none;">oproteins (NPs) needed for viral replication are</text>
   <text y="637.625" x="304.725,309.707,313.542,317.378,322.359,326.713,329.403,334.384,338.22,342.573,348.051,355.522,362.675,365.365,369.2,374.678,382.054,387.235,394.497,401.969,409.439,416.807,424.996,429.977,432.667,437.102,441.456,446.955,449.645,453.999,457.835,460.5242,467.943,475.415,480.396,485.895,489.103,492.939,496.855,500.691,506.19,510.544,514.379,519.879,523.714,528.772" svgx:width="0.5,0.38,0.38,0.5,0.44,0.27,0.5,0.38,0.44,0.55,0.55,0.72,0.27,0.38,0.55,0.55,0.52,0.73,0.75,0.75,0.55,0.82,0.5,0.27,0.44,0.44,0.55,0.27,0.44,0.38,0.27,0.55,0.75,0.5,0.55,0.32,0.38,0.38,0.38,0.55,0.44,0.38,0.55,0.38,0.5,0.27" style="fill:rgb(0,0,0);font-family:AdvOT16dca58f;font-size:9.96px;stroke:none;">associated with vRNA molecules. Non-structural</text>
   <text y="649.587" x="304.725,310.225,314.06,319.042,322.877,327.231,329.921,335.399,341.065,348.537,354.036,359.016,364.649,367.339,371.1238,376.782,382.281,386.117,390.47,394.306,398.66,404.159,407.9438,413.688,416.378,421.856,427.465,431.3,436.8,441.18240000000003,446.797,452.296,457.796,462.149,464.839,469.193,474.692,478.4768,484.214,489.195,492.183,497.763,500.453,505.952,509.044,513.398,517.752,521.587,525.941" svgx:width="0.55,0.38,0.5,0.38,0.44,0.27,0.55,0.55,0.75,0.55,0.5,0.55,0.27,0.38,0.55,0.55,0.38,0.44,0.38,0.44,0.55,0.38,0.55,0.27,0.55,0.55,0.38,0.55,0.44,0.55,0.55,0.55,0.44,0.27,0.44,0.55,0.38,0.55,0.5,0.3,0.55,0.27,0.55,0.3,0.44,0.44,0.38,0.44,0.55" style="fill:rgb(0,0,0);font-family:AdvOT16dca58f;font-size:9.96px;stroke:none;">protein NS1 is present in the nucleus of infected</text>
   <text y="661.492" x="304.725,309.079,313.433,316.122,318.812,322.648" svgx:width="0.44,0.44,0.27,0.27,0.38,0.27" style="fill:rgb(0,0,0);font-family:AdvOT16dca58f;font-size:9.96px;stroke:none;">cells,</text>
   <text y="657.808" x="325.417,328.904" svgx:width="0.5,0.38" style="fill:rgb(0,0,0);font-family:AdvOT16dca58f;font-size:6.97px;stroke:none;">9)</text>
   <text y="661.493" x="339.76,345.26,349.095,354.077,362.266,367.247,371.168,373.858,379.357,384.33700000000005,392.54,396.907,405.127,409.481,412.171,416.524,422.024,425.8088,434.097,439.278,441.968,445.803,450.785,453.47420000000005,461.707,465.542,469.896,475.483,478.173,480.863,485.217,490.198,494.033,496.723,501.705,507.183,515.451,520.432,525.932" svgx:width="0.55,0.38,0.5,0.82,0.5,0.38,0.27,0.55,0.5,0.55,0.44,0.82,0.44,0.27,0.44,0.55,0.38,0.55,0.52,0.27,0.38,0.5,0.27,0.55,0.38,0.44,0.55,0.27,0.27,0.44,0.5,0.38,0.27,0.5,0.55,0.55,0.5,0.55,0.55" style="fill:rgb(0,0,0);font-family:AdvOT16dca58f;font-size:9.96px;stroke:none;">promoting eﬃcient viral replication and</text>
   <text y="673.455" x="304.724,309.905,312.595,316.43,321.929,324.619,328.973,334.472,338.826,343.18" svgx:width="0.52,0.27,0.38,0.55,0.27,0.44,0.55,0.44,0.44,0.27" style="fill:rgb(0,0,0);font-family:AdvOT16dca58f;font-size:9.96px;stroke:none;">virulence.</text>
   <text y="669.77" x="345.997,349.484,352.971" svgx:width="0.5,0.5,0.38" style="fill:rgb(0,0,0);font-family:AdvOT16dca58f;font-size:6.97px;stroke:none;">10)</text>
   <text y="673.455" x="359.546,367.018,372.0,377.499,381.335,385.17,389.083,394.582,398.936,402.771,408.271,412.106,417.087,419.7762,423.721,429.221,433.056,438.038,441.873,446.227,449.007,454.485,458.417,463.397,467.261,471.097,478.569,484.068,489.144,492.9288,496.854,501.208,506.707,511.061,516.042,521.541,525.895" svgx:width="0.75,0.5,0.55,0.38,0.38,0.38,0.55,0.44,0.38,0.55,0.38,0.5,0.27,0.55,0.55,0.38,0.5,0.38,0.44,0.27,0.55,0.55,0.5,0.55,0.38,0.75,0.55,0.5,0.38,0.55,0.44,0.55,0.44,0.5,0.55,0.44,0.55" style="fill:rgb(0,0,0);font-family:AdvOT16dca58f;font-size:9.96px;stroke:none;">Nonstructural protein 2 (NS2) encoded</text>
   <text y="685.417" x="304.724,307.733,311.568,316.55,324.7172,328.592,332.427,337.927,342.30940000000004,346.167,350.002,354.984,363.173,367.5554,371.395,376.441,380.795,386.294,390.648,394.483,397.173,401.5554,405.41,409.246,413.6,418.581,426.77,431.205,436.705,440.4898,444.415,449.396,453.18080000000003,457.057,460.893,466.392,471.374,475.15880000000004,479.111,482.119,487.101,490.8858,494.758,502.23,507.797,512.777,516.584,522.083,527.583" svgx:width="0.3,0.38,0.5,0.82,0.55,0.38,0.55,0.44,0.55,0.38,0.5,0.82,0.44,0.55,0.5,0.44,0.55,0.44,0.38,0.27,0.44,0.55,0.38,0.44,0.5,0.82,0.44,0.55,0.38,0.55,0.5,0.38,0.55,0.38,0.55,0.5,0.38,0.55,0.3,0.5,0.38,0.55,0.75,0.55,0.5,0.55,0.55,0.55,0.38" style="fill:rgb(0,0,0);font-family:AdvOT16dca58f;font-size:9.96px;stroke:none;">from the same genetic segment as that for NS1 but</text>
   <text y="697.379" x="304.724,311.877,314.567,318.403,323.88100000000003,328.252,333.233,335.923,339.759,344.112,348.038,353.537,358.518,362.354,365.044,370.224,374.6064,378.935,382.77,388.27,390.96,393.731,398.085,400.775,406.274,411.255,413.9442,418.279,423.26,425.95,429.786,434.766,439.142,443.495,448.477,451.167,453.856,458.304,463.782,468.112,473.611,479.111,483.464,486.154,490.508,495.489,499.2738,503.714,508.068,513.249,518.748,523.729,527.565" svgx:width="0.72,0.27,0.38,0.55,0.55,0.5,0.27,0.38,0.44,0.38,0.55,0.5,0.38,0.27,0.52,0.44,0.55,0.38,0.55,0.27,0.27,0.44,0.27,0.55,0.5,0.27,0.55,0.5,0.27,0.38,0.5,0.55,0.44,0.5,0.27,0.27,0.44,0.55,0.55,0.55,0.55,0.44,0.27,0.44,0.5,0.38,0.55,0.44,0.52,0.55,0.5,0.38,0.38" style="fill:rgb(0,0,0);font-family:AdvOT16dca58f;font-size:9.96px;stroke:none;">with alternative splicing, also called nuclear export</text>
   <text y="709.341" x="304.724,310.224,314.059,319.04,322.876,327.23,329.92,335.398,343.841,347.677,355.149,361.894,368.638,372.4228,380.861,384.697,387.387,392.886,397.24,401.6224,410.001,412.691,416.4758,424.854,429.208,434.189,439.689,443.524,448.506,451.273,456.772,460.5568,468.961,473.94100000000003,482.284,484.974,489.327,494.827,499.18,501.956,507.455,511.809,515.017,518.852,521.542,525.896" svgx:width="0.55,0.38,0.5,0.38,0.44,0.27,0.55,0.55,0.38,0.75,0.68,0.68,0.38,0.55,0.38,0.27,0.55,0.44,0.44,0.55,0.27,0.38,0.55,0.44,0.5,0.55,0.38,0.5,0.27,0.55,0.38,0.55,0.5,0.55,0.27,0.44,0.55,0.44,0.27,0.55,0.44,0.32,0.38,0.27,0.44,0.55" style="fill:rgb(0,0,0);font-family:AdvOT16dca58f;font-size:9.96px;stroke:none;">protein (NEP) since it contains a leucine-rich</text>
   <text y="721.303" x="304.724,310.224,315.723,320.077,322.766,327.12,332.101,336.018,339.226,343.579,348.76,354.259,359.241,363.076,366.86080000000004,369.693,373.529,376.219,381.2,386.699,391.681,394.371" svgx:width="0.55,0.55,0.44,0.27,0.44,0.5,0.38,0.32,0.44,0.52,0.55,0.5,0.38,0.38,0.55,0.38,0.27,0.5,0.55,0.5,0.27,0.27" style="fill:rgb(0,0,0);font-family:AdvOT16dca58f;font-size:9.96px;stroke:none;">nuclear-export signal,</text>
   <text y="717.619" x="397.134,400.621,404.108,406.792,408.675,412.162,415.649" svgx:width="0.5,0.5,0.38,0.27,0.5,0.5,0.38" style="fill:rgb(0,0,0);font-family:AdvOT16dca58f;font-size:6.97px;stroke:none;">11),12)</text>
   <text y="721.304" x="421.058,423.748,427.5328,430.299,435.799,440.844,446.343,451.843,457.321,460.063,463.898,468.87800000000004,471.572,480.598,485.57800000000003,488.296,493.795,497.631,502.696,506.531,510.885,513.575,519.074" svgx:width="0.27,0.38,0.55,0.55,0.5,0.55,0.55,0.55,0.55,0.38,0.5,0.55,0.91,0.5,0.55,0.55,0.38,0.5,0.38,0.44,0.27,0.55,0.27" style="fill:rgb(0,0,0);font-family:AdvOT16dca58f;font-size:9.96px;stroke:none;">is bound to M1 protein.</text>
   <text y="717.619" x="521.802,525.288,528.775" svgx:width="0.5,0.5,0.38" style="fill:rgb(0,0,0);font-family:AdvOT16dca58f;font-size:6.97px;stroke:none;">13)</text>
   <text y="81.695" x="152.22,159.441,163.427,165.578,169.061,172.544,176.944,179.096,183.081,188.729,193.129,197.114,200.183,202.335,208.005,211.99,217.076,220.144,224.544,230.625,233.693,236.762,239.83,244.23,247.713,250.781,255.181,258.25,264.355,268.341,272.74,279.719,282.126,286.525,290.925,294.408,297.476,299.628,303.613,310.615,314.6,319.63,325.607,332.215,336.615,340.098,346.649,350.634,354.62,358.605,360.757,365.156,368.225,370.377,374.776,376.831,383.917,387.902,392.931,395.083,399.459,403.881,408.281,411.764,416.163,419.646,426.217,430.362,432.514,435.582,439.982,63.779,69.757,73.742,78.519,82.504,519.535,523.52,527.505" svgx:width="0.91,0.5,0.27,0.44,0.44,0.55,0.27,0.5,0.38,0.55,0.5,0.38,0.27,0.38,0.5,0.3,0.38,0.55,0.44,0.38,0.38,0.38,0.55,0.44,0.38,0.55,0.38,0.44,0.5,0.55,0.55,0.3,0.55,0.55,0.44,0.38,0.27,0.5,0.55,0.5,0.3,0.75,0.5,0.55,0.44,0.82,0.5,0.5,0.5,0.27,0.55,0.38,0.27,0.55,0.27,0.55,0.5,0.3,0.27,0.55,0.55,0.55,0.44,0.55,0.44,0.5,0.52,0.27,0.38,0.55,0.38,0.75,0.5,0.27,0.5,0.27,0.5,0.5,0.5" style="fill:rgb(0,0,0);font-family:AdvOT16dca58f;font-size:7.97px;stroke:none;">MolecularbasisofthestructureandfunctionofH1hemagglutininofinﬂuenzavirusNo.6]227</text>
  </g>
 </g>
</svg>
