<?xml version="1.0" encoding="UTF-8"?>
<svg height="287.51" width="559.66" xmlns="http://www.w3.org/2000/svg">
 <g id="page" xmlns:svgx="http://www.xml-cml.org/schema/svgx">
  <path style="fill:rgb(198,198,198);stroke:none;stroke-width:1.0;" d="M306.650 199.560 L306.650 180.510 L307.620 181.530 L307.620 199.560 "/>
  <path style="fill:rgb(198,198,198);stroke:none;stroke-width:0.25;" d="M306.650 180.510 L549.640 180.510 L548.620 181.530 L307.620 181.530 "/>
  <path style="fill:rgb(198,198,198);stroke:none;stroke-width:0.25;" d="M549.640 180.510 L549.640 199.560 L548.620 199.560 L548.620 181.530 "/>
  <path style="fill:rgb(198,198,198);stroke:none;stroke-width:0.25;" d="M548.620 181.530 L307.610 181.530 L306.650 180.510 "/>
  <path style="fill:rgb(198,198,198);stroke:none;stroke-width:0.25;" d="M549.640 199.560 "/>
  <path style="fill:rgb(198,198,198);stroke:none;stroke-width:0.25;" d="M306.650 212.540 "/>
  <path style="fill:rgb(198,198,198);stroke:none;stroke-width:0.25;" d="M549.640 212.540 "/>
  <path style="fill:rgb(198,198,198);stroke:none;stroke-width:0.25;" d="M306.650 225.520 "/>
  <path style="fill:rgb(198,198,198);stroke:none;stroke-width:0.25;" d="M549.640 225.520 "/>
  <path style="fill:rgb(198,198,198);stroke:none;stroke-width:0.25;" d="M306.650 238.510 "/>
  <path style="fill:rgb(198,198,198);stroke:none;stroke-width:0.25;" d="M549.640 238.510 "/>
  <path style="fill:rgb(198,198,198);stroke:none;stroke-width:0.25;" d="M306.650 251.550 "/>
  <path style="fill:rgb(198,198,198);stroke:none;stroke-width:0.25;" d="M549.640 251.550 L549.640 277.510 L548.620 276.550 L548.620 251.550 "/>
  <path style="fill:rgb(198,198,198);stroke:none;stroke-width:0.25;" d="M549.640 277.510 L306.650 277.510 L307.620 276.550 L548.620 276.550 "/>
  <path style="fill:rgb(198,198,198);stroke:none;stroke-width:0.25;" d="M306.650 277.510 L306.650 251.550 L307.620 251.550 L307.620 276.550 "/>
  <g begin="text">
   <text y="55.559" x="64.006,67.674,71.814,74.469,76.261,80.401,84.616,88.756,90.548,94.448,97.67299999999999,101.707,103.499,107.624,111.571,117.429,121.329,123.046,124.764,127.494,131.634,135.534,138.106,139.899,144.038,147.938,152.063,156.131,159.799,163.309,167.449,170.104,174.00400000000002,178.014,181.682,185.822,189.947,193.945,196.517,200.732,202.45,204.167,208.382,214.24,216.97,221.11,225.235,229.264,232.467,236.367,239.022,242.689" svgx:width="0.49,0.55,0.35,0.24,0.55,0.56,0.55,0.24,0.52,0.43,0.55,0.24,0.55,0.55,0.78,0.52,0.23,0.23,0.36,0.55,0.52,0.34,0.24,0.55,0.52,0.55,0.55,0.49,0.47,0.55,0.35,0.52,0.55,0.49,0.55,0.55,0.55,0.34,0.56,0.23,0.23,0.56,0.78,0.36,0.55,0.55,0.55,0.43,0.52,0.35,0.49,0.23" style="fill:rgb(0,0,0);font-family:AdvTTa9c1b374;font-size:7.5px;stroke:none;">antibodies in well-defined acute and follow-up sera.</text>
   <text y="55.559" x="248.372,252.977,254.612,256.329,260.229,264.245,268.933,272.758,276.11,279.463,281.18,285.08" svgx:width="0.61,0.22,0.23,0.52,0.55,0.63,0.51,0.45,0.45,0.23,0.52,0.47" style="fill:rgb(0,0,0);font-family:AdvTTeb5f0e55.I;font-size:7.5px;stroke:none;">Clin Vaccine</text>
   <text y="65.594" x="64.006,65.956,71.814,77.671,81.571,85.471,89.296,90.931" svgx:width="0.26,0.78,0.78,0.52,0.52,0.51,0.22,0.23" style="fill:rgb(0,0,0);font-family:AdvTTeb5f0e55.I;font-size:7.5px;stroke:none;">Immunol.</text>
   <text y="65.594" x="94.677,98.967,103.257,107.547,111.837,113.787,118.077,122.367,124.242,128.532,132.822,137.112,141.506,145.814,150.104,154.394,158.684,162.974" svgx:width="0.57,0.57,0.57,0.57,0.26,0.57,0.57,0.25,0.57,0.57,0.57,0.57,0.57,0.57,0.57,0.57,0.57,0.23" style="fill:rgb(0,0,0);font-family:AdvTTa9c1b374;font-size:7.5px;stroke:none;">2012;19:1110–1115.</text>
   <text y="75.572" x="45.638,49.928,54.218,58.508,60.233000000000004,64.006,70.959,74.859,78.526,82.666,86.881,92.738,95.963,99.836,103.893,105.543,109.36,112.48,116.695,120.835,124.734,128.011,130.741,135.579,137.371,140.026,142.681,146.896,151.021,154.883,159.878,161.528,165.371,172.324,175.834,180.124,185.981,189.881,194.006,197.913,201.97,206.965,208.615,212.426,216.326,218.951,222.857,226.525,228.242,229.96699999999998,233.799,238.794,243.009,246.676,248.469,252.369,254.086,255.804,259.479,263.392,267.532,271.672,274.327,278.467,282.367,285.022,286.814" svgx:width="0.57,0.57,0.57,0.23,0.55,0.93,0.52,0.49,0.55,0.56,0.78,0.43,0.55,0.54,0.22,0.55,0.42,0.56,0.55,0.52,0.43,0.36,0.64,0.24,0.35,0.35,0.56,0.55,0.55,0.67,0.22,0.55,0.93,0.47,0.57,0.78,0.52,0.55,0.55,0.54,0.67,0.22,0.55,0.52,0.35,0.55,0.49,0.23,0.23,0.55,0.67,0.56,0.49,0.24,0.52,0.23,0.23,0.49,0.55,0.55,0.55,0.35,0.55,0.52,0.35,0.24,0.24" style="fill:rgb(0,0,0);font-family:AdvTTa9c1b374;font-size:7.5px;stroke:none;">112. Meadows S, Jones-Bitton A, McEwen SA, et al. Coxiella burnetii</text>
   <text y="85.55" x="64.007,65.957,71.88199999999999,75.062,79.277,83.177,87.002,90.902,93.557,95.507,98.702,102.76,106.66,109.315,113.53,117.67,121.885,125.087,126.879,129.534,131.327,135.152,136.944,139.599,143.42399999999998,146.664,150.332,154.472,158.597,161.801,166.796,169.999,173.201,177.416,180.926,182.718,186.386,189.041,192.941,197.066,200.295,204.983,206.775,209.978,213.728,216.906,221.121,224.788,228.298,230.953,235.168,237.823,241.048,244.232,246.024,250.149,253.303,257.36,261.5,265.4,269.3,273.425,276.66,280.327,284.467" svgx:width="0.26,0.79,0.55,0.56,0.52,0.51,0.52,0.35,0.26,0.55,0.54,0.52,0.35,0.56,0.55,0.56,0.43,0.24,0.35,0.24,0.51,0.24,0.35,0.51,0.55,0.49,0.55,0.55,0.55,0.67,0.43,0.43,0.56,0.47,0.24,0.49,0.35,0.52,0.55,0.55,0.63,0.24,0.43,0.5,0.55,0.56,0.49,0.47,0.35,0.56,0.35,0.43,0.55,0.24,0.55,0.55,0.54,0.55,0.52,0.52,0.55,0.55,0.49,0.55,0.55" style="fill:rgb(0,0,0);font-family:AdvTTa9c1b374;font-size:7.5px;stroke:none;">(Q Fever) Seropositivity and Associated Risk Factors in Sheep and</text>
   <text y="95.584" x="64.007,69.474,73.689,77.357,79.982,83.056,87.271,90.938,93.593,99.668,102.785,110.518,114.733,117.388,121.138,125.037,127.692,130.917,133.966,135.759,139.884,142.923,148.856,152.996,155.651,159.318,161.973,163.843,168.058,169.708,172.744,177.739,181.406,185.546,189.213,193.353,197.021" svgx:width="0.73,0.56,0.49,0.35,0.55,0.56,0.49,0.35,0.81,0.55,1.03,0.56,0.35,0.5,0.52,0.35,0.43,0.55,0.24,0.55,0.55,0.79,0.55,0.35,0.49,0.35,0.24,0.56,0.22,0.55,0.67,0.49,0.55,0.49,0.55,0.49,0.23" style="fill:rgb(0,0,0);font-family:AdvTTa9c1b374;font-size:7.5px;stroke:none;">Goat Farm Workers in Ontario, Canada.</text>
   <text y="95.584" x="201.77,206.458,209.968,213.392,216.047,219.872,222.347,225.411,229.858,233.683,236.181,240.081,243.606,246.671,250.811,254.636,258.461,262.361,266.186,268.841,270.558,273.933,277.001,282.229,283.946,286.909" svgx:width="0.63,0.47,0.45,0.35,0.51,0.33,0.55,0.59,0.51,0.33,0.52,0.47,0.55,0.55,0.51,0.51,0.52,0.51,0.35,0.23,0.45,0.55,0.7,0.23,0.4,0.23" style="fill:rgb(0,0,0);font-family:AdvTTeb5f0e55.I;font-size:7.5px;stroke:none;">Vector Borne Zoonotic Dis.</text>
   <text y="105.562" x="64.007,68.297,72.587,76.877,81.167,83.117,87.407,91.697,93.572,97.862,102.275,106.583,110.835,115.125,119.415,123.705" svgx:width="0.57,0.57,0.57,0.57,0.26,0.57,0.57,0.25,0.57,0.57,0.57,0.57,0.57,0.57,0.57,0.23" style="fill:rgb(0,0,0);font-family:AdvTTa9c1b374;font-size:7.5px;stroke:none;">2016;16:643–649.</text>
   <text y="115.597" x="45.638,49.928,54.218,58.508,60.233000000000004,64.006,68.064,72.204,75.871,80.011,81.804,84.459,88.659,91.729,96.724,99.844,101.494,104.542,109.379,113.594,116.797,122.654,126.321,128.976,133.101,136.176,141.096,144.921,146.571,149.612,155.312,159.212,160.93,162.647,166.547,169.172,172.233,175.353,177.00300000000001,180.057,183.957,186.582,189.638,193.305,195.023,196.748,199.786,203.843,207.743,210.398,214.613,218.753,221.408,225.308,229.133,232.801,234.518,238.418,242.558,246.068,249.96800000000002,253.077,257.292,259.842,262.884,267.879,272.094,275.762,277.554,281.536,283.253,284.971" svgx:width="0.57,0.57,0.57,0.23,0.55,0.54,0.55,0.49,0.55,0.24,0.35,0.56,0.55,0.67,0.42,0.22,0.55,0.64,0.56,0.43,0.78,0.49,0.35,0.55,0.55,0.66,0.51,0.22,0.55,0.76,0.52,0.23,0.23,0.52,0.35,0.55,0.42,0.22,0.55,0.52,0.35,0.55,0.49,0.23,0.23,0.55,0.54,0.52,0.35,0.56,0.55,0.35,0.52,0.51,0.49,0.23,0.52,0.55,0.47,0.52,0.55,0.56,0.34,0.55,0.67,0.56,0.49,0.24,0.52,0.23,0.23,0.49" style="fill:rgb(0,0,0);font-family:AdvTTa9c1b374;font-size:7.5px;stroke:none;">113. Shapiro AJ, Bosward KL, Heller J, et al. Seroprevalence of Coxiella</text>
   <text y="125.575" x="64.007,68.147,72.287,74.942,79.082,82.982,85.637,87.429,89.229,93.544,95.336,99.461,103.805,107.945,112.16,118.25,122.15,125.352,128.007,129.8,133.31,136.977,139.632,143.532,147.657,152.051,155.718,159.858,163.983,168.322,170.894,174.794,177.449,181.116,182.841,187.143,190.653,194.321,196.976,200.201,204.491,206.284,210.409,214.753,218.653,222.32,225.523,228.178,232.078,234.732,238.857,243.213,248.208,252.348,255.55,258.205,260.86,264.527,266.245,268.037,271.705" svgx:width="0.55,0.55,0.35,0.55,0.52,0.35,0.24,0.24,0.55,0.24,0.55,0.55,0.55,0.56,0.81,0.52,0.43,0.35,0.24,0.47,0.49,0.35,0.52,0.55,0.55,0.49,0.55,0.55,0.55,0.34,0.52,0.35,0.49,0.23,0.55,0.47,0.49,0.35,0.43,0.55,0.24,0.55,0.55,0.52,0.49,0.43,0.35,0.52,0.35,0.55,0.55,0.67,0.55,0.43,0.35,0.35,0.49,0.23,0.24,0.49,0.23" style="fill:rgb(0,0,0);font-family:AdvTTa9c1b374;font-size:7.5px;stroke:none;">burnetii in domesticated and feral cats in eastern Australia.</text>
   <text y="125.575" x="277.739,282.427,285.937" svgx:width="0.63,0.47,0.35" style="fill:rgb(0,0,0);font-family:AdvTTeb5f0e55.I;font-size:7.5px;stroke:none;">Vet</text>
   <text y="135.553" x="64.007,70.412,72.129,75.482,77.979,81.804,85.704,87.422,91.333,92.968" svgx:width="0.85,0.23,0.45,0.33,0.51,0.52,0.23,0.51,0.22,0.23" style="fill:rgb(0,0,0);font-family:AdvTTeb5f0e55.I;font-size:7.5px;stroke:none;">Microbiol.</text>
   <text y="135.553" x="96.605,100.895,105.185,109.475,113.765,115.715,120.005,124.295,128.693,130.568,134.858,139.148,143.434,147.743,152.033,156.323,160.613" svgx:width="0.57,0.57,0.57,0.57,0.26,0.57,0.57,0.57,0.25,0.57,0.57,0.57,0.57,0.57,0.57,0.57,0.23" style="fill:rgb(0,0,0);font-family:AdvTTa9c1b374;font-size:7.5px;stroke:none;">2015;177:154–161.</text>
   <text y="145.588" x="45.639,49.929,54.219,58.509,60.234,64.007,70.959,74.859,77.514,81.414,85.554,87.347,90.002,94.127,99.723,104.718,108.543,110.19300000000001,115.767,120.762,122.479,126.379,130.047,133.872,137.772,139.489,143.157,147.296,151.421,157.039,161.096,166.091,167.741,173.31,179.01,182.91,187.05,192.907,197.122,201.337,205.462,211.067,218.019,221.139,222.78900000000002,228.358,233.195,235.85,240.065,245.922,250.047,255.627,258.746,263.666,265.316,270.877,274.934,279.074,282.742" svgx:width="0.57,0.57,0.57,0.23,0.55,0.93,0.52,0.35,0.52,0.55,0.24,0.35,0.55,0.55,0.67,0.51,0.22,0.55,0.67,0.23,0.52,0.49,0.51,0.52,0.23,0.49,0.55,0.55,0.55,0.54,0.67,0.22,0.55,0.76,0.52,0.55,0.78,0.56,0.56,0.55,0.55,0.93,0.42,0.22,0.55,0.64,0.35,0.56,0.78,0.55,0.55,0.42,0.66,0.22,0.55,0.54,0.55,0.49,0.78" style="fill:rgb(0,0,0);font-family:AdvTTa9c1b374;font-size:7.5px;stroke:none;">114. Meredith AL, Cleaveland SC, Denwood MJ, Brown JK, Shaw</text>
   <text y="155.565" x="64.008,69.708,72.828,74.553,76.764,81.759,85.973,89.641,91.433,95.333,97.051,98.768,102.443,104.599,108.739,112.879,115.598,119.738,123.638,126.293,128.085,129.88500000000002,132.039,133.989,139.921,142.651,146.866,150.766,154.591,158.491,161.146,163.09599999999998,165.317,169.375,173.275,175.93,180.145,184.284,186.939,190.839,194.664,198.426,200.143,204.043,208.183,211.693,215.59300000000002,217.757,219.55,223.675,225.865,230.312,232.967,236.867,240.69199999999998,242.929,246.597,250.737,254.862,257.045,261.493,264.148,268.048,272.188,275.855,278.51,282.725,285.38" svgx:width="0.76,0.42,0.23,0.55,0.67,0.56,0.49,0.24,0.52,0.23,0.23,0.49,0.55,0.55,0.55,0.35,0.55,0.52,0.35,0.24,0.24,0.55,0.26,0.79,0.36,0.56,0.52,0.51,0.52,0.35,0.26,0.55,0.54,0.52,0.35,0.56,0.55,0.35,0.52,0.51,0.49,0.23,0.52,0.55,0.47,0.52,0.55,0.24,0.55,0.55,0.59,0.35,0.52,0.51,0.55,0.49,0.55,0.55,0.55,0.59,0.35,0.52,0.55,0.49,0.35,0.56,0.35,0.43" style="fill:rgb(0,0,0);font-family:AdvTTa9c1b374;font-size:7.5px;stroke:none;">DJ. Coxiella burnetii (Q-Fever) Seroprevalence in Prey and Predators</text>
   <text y="165.6" x="64.008,65.8,69.925,73.815,76.47,80.61,84.51,88.385,93.853,97.993,99.785,102.44,106.414,110.539,114.407,119.327,121.12,125.259,129.084,133.224,137.439,143.529,145.404,149.33,153.62,157.445,161.112,162.829,166.969,170.637,173.292,175.084,179.299,183.424,187.37,191.585,194.13500000000002,198.028,200.053,204.193,206.765,210.665,214.175,216.83,218.623,222.838,226.963,230.91,232.702,236.827,240.717,248.45,250.242,251.96,256.08500000000004,259.993,264.68,268.895,273.035,276.935,281.075,283.804,287.006" svgx:width="0.24,0.55,0.55,0.35,0.55,0.52,0.55,0.73,0.55,0.24,0.35,0.52,0.55,0.55,0.66,0.24,0.55,0.51,0.55,0.56,0.81,0.25,0.55,0.57,0.51,0.49,0.23,0.55,0.49,0.35,0.24,0.56,0.55,0.55,0.56,0.34,0.55,0.27,0.55,0.34,0.52,0.47,0.35,0.24,0.56,0.55,0.55,0.24,0.55,0.55,1.03,0.24,0.23,0.55,0.55,0.63,0.56,0.55,0.52,0.55,0.35,0.43,0.22" style="fill:rgb(0,0,0);font-family:AdvTTa9c1b374;font-size:7.5px;stroke:none;">in the United Kingdom: Evaluation of Infection in Wild Rodents,</text>
   <text y="175.578" x="64.008,68.223,72.438,76.105,80.005,83.22999999999999,85.324,88.991,93.131,97.256,99.384,105.084,109.299,115.389,119.289,122.571,125.226,127.019,130.544,132.606,137.601,141.337,143.992,147.21699999999998,149.274,154.742,157.944,159.736,163.876,167.701,169.797,173.472,175.579,182.532,186.747,190.887,192.679,195.252,197.122,201.022,205.147,207.27,211.56,215.385,217.41,221.467,226.462" svgx:width="0.56,0.56,0.49,0.52,0.43,0.55,0.49,0.55,0.55,0.55,0.76,0.56,0.81,0.52,0.43,0.35,0.24,0.47,0.55,0.67,0.49,0.35,0.43,0.55,0.73,0.43,0.24,0.55,0.51,0.55,0.49,0.55,0.93,0.56,0.55,0.24,0.34,0.24,0.52,0.55,0.55,0.57,0.51,0.27,0.54,0.67,0.23" style="fill:rgb(0,0,0);font-family:AdvTTa9c1b374;font-size:7.5px;stroke:none;">Foxes and Domestic Cats Using a Modified ELISA.</text>
   <text y="175.578" x="230.288,234.346,236.843,240.668,244.568,247.53,251.43,255.346,259.246,263.146,267.046,269.179,273.161,279.019,282.529,285.026" svgx:width="0.54,0.33,0.51,0.52,0.4,0.52,0.51,0.52,0.52,0.52,0.55,0.53,0.78,0.47,0.33,0.48" style="fill:rgb(0,0,0);font-family:AdvTTeb5f0e55.I;font-size:7.5px;stroke:none;">Transbound Emerg</text>
   <text y="185.556" x="64.008,69.235,70.953,73.915" svgx:width="0.7,0.23,0.4,0.23" style="fill:rgb(0,0,0);font-family:AdvTTeb5f0e55.I;font-size:7.5px;stroke:none;">Dis.</text>
   <text y="185.556" x="77.614,81.904,86.194,90.484,94.774,96.724,101.014,105.304,107.179,111.469,115.882,120.134,124.443,128.733,133.023,137.313" svgx:width="0.57,0.57,0.57,0.57,0.26,0.57,0.57,0.25,0.57,0.57,0.57,0.57,0.57,0.57,0.57,0.23" style="fill:rgb(0,0,0);font-family:AdvTTa9c1b374;font-size:7.5px;stroke:none;">2015;62:639–649.</text>
   <text y="195.591" x="45.64,49.93,54.22,58.51,60.235,64.008,70.96,75.175,77.83,79.548,83.448,87.273,89.406,93.854,95.504,97.57,105.302,109.202,113.102,116.305,120.20500000000001,122.344,125.464,127.189,129.261,134.098,135.891,140.106,143.308,147.208,150.803,154.943,157.598,159.391,162.046,165.87099999999998,167.924,171.592,175.732,179.857,181.984,183.777,187.917,190.489,194.389,197.899,200.636,202.428,206.643,210.768,212.882,216.391,220.606,224.746,227.401,230.056,234.271,235.99599999999998,238.11,240.682,244.897,247.522,249.618,251.336,255.003,257.658,261.483,265.383,267.533,271.201,275.341,277.133,283.223,286.891" svgx:width="0.57,0.57,0.57,0.23,0.55,0.93,0.56,0.35,0.23,0.52,0.51,0.55,0.59,0.22,0.55,1.03,0.52,0.52,0.43,0.52,0.55,0.42,0.23,0.55,0.64,0.24,0.56,0.43,0.52,0.47,0.55,0.35,0.24,0.35,0.51,0.55,0.49,0.55,0.55,0.55,0.24,0.55,0.34,0.52,0.47,0.35,0.24,0.56,0.55,0.55,0.47,0.56,0.55,0.35,0.35,0.56,0.23,0.55,0.34,0.56,0.35,0.55,0.23,0.49,0.35,0.51,0.52,0.55,0.49,0.55,0.24,0.81,0.49,0.23" style="fill:rgb(0,0,0);font-family:AdvTTa9c1b374;font-size:7.5px;stroke:none;">115. Morley P, Weese J. Biosecurity and infection control for large animal</text>
   <text y="205.569" x="64.009,68.148,70.803,74.471,77.981,80.636,82.428,85.938,89.838,93.041,94.76599999999999,98.138,100.163,104.302,106.177,109.476,114.313,118.738,122.119,126.176,132.266,134.058,136.713,140.853,142.50300000000001,145.816,149.716,153.923" svgx:width="0.55,0.35,0.49,0.47,0.35,0.24,0.47,0.52,0.43,0.23,0.55,0.27,0.55,0.25,0.55,0.64,0.59,0.55,0.54,0.81,0.24,0.35,0.55,0.22,0.55,0.52,0.55,0.23" style="fill:rgb(0,0,0);font-family:AdvTTa9c1b374;font-size:7.5px;stroke:none;">practices. In: BP Smith, ed.</text>
   <text y="205.569" x="158.912,162.422,166.247,168.745,172.337,175.862,179.208,183.896,187.796,189.513,195.371,199.196,200.846,204.153,206.103,210.003,212.658,216.168,218.665,222.565,226.49,228.14000000000001,231.422,237.827,241.337,245.237,246.954,250.307,252.024,255.924" svgx:width="0.47,0.51,0.33,0.48,0.47,0.55,0.63,0.52,0.23,0.78,0.51,0.22,0.55,0.26,0.52,0.35,0.47,0.33,0.52,0.51,0.22,0.55,0.85,0.47,0.52,0.23,0.45,0.23,0.52,0.47" style="fill:rgb(0,0,0);font-family:AdvTTeb5f0e55.I;font-size:7.5px;stroke:none;">Large Animal Internal Medicine</text>
   <text y="205.569" x="259.485,261.135,264.474,268.764,271.419,275.544,278.874,282.774,286.914" svgx:width="0.22,0.55,0.57,0.35,0.55,0.55,0.52,0.55,0.23" style="fill:rgb(0,0,0);font-family:AdvTTa9c1b374;font-size:7.5px;stroke:none;">, 5th ed.</text>
   <text y="215.604" x="64.009,69.708,73.608,79.458,81.47,86.075,90.29,92.945,96.695,98.57,100.518,104.808,106.525,109.728,113.628,117.453,119.245,123.145,125.8,127.75,129.771,134.061,138.351,142.641,146.931,148.806,153.096,157.386,161.676,166.056,170.365,174.655,178.944,183.234,187.524" svgx:width="0.76,0.52,0.78,0.55,0.61,0.56,0.35,0.5,0.25,0.55,0.57,0.23,0.43,0.52,0.51,0.24,0.52,0.35,0.26,0.55,0.57,0.57,0.57,0.57,0.25,0.57,0.57,0.57,0.57,0.57,0.57,0.57,0.57,0.57,0.23" style="fill:rgb(0,0,0);font-family:AdvTTa9c1b374;font-size:7.5px;stroke:none;">New York: Elsevier; 2015:1407–1431.</text>
   <text y="225.581" x="45.641,49.93,54.22,58.51,60.235,64.009,68.066,71.576,75.791,78.446,81.071,83.454,88.922,94.622,96.272,98.534,106.267,108.059,109.777,111.494,113.287,116.954,123.044,126.26899999999999,128.581,131.701,136.696,138.421,140.713,144.77,148.91,152.113,155.623,159.523,163.663,166.395,168.187,172.327,174.12,175.837,177.63,180.285,184.10999999999999,186.408,190.623,193.173,195.535,200.53,204.745,208.412,210.205,214.105,215.822,217.54,221.215,223.541,227.681,231.821,234.476,238.616,242.516,245.171,246.963,248.763,251.094,253.749,257.949,260.221,263.731,267.871,271.771,277.861,279.653,283.163,286.923" svgx:width="0.57,0.57,0.57,0.23,0.55,0.54,0.47,0.56,0.35,0.35,0.55,0.73,0.76,0.22,0.55,1.03,0.24,0.23,0.23,0.24,0.49,0.81,0.43,0.55,0.42,0.67,0.23,0.55,0.54,0.55,0.43,0.47,0.52,0.55,0.35,0.24,0.55,0.24,0.23,0.24,0.35,0.51,0.55,0.56,0.34,0.55,0.67,0.56,0.49,0.24,0.52,0.23,0.23,0.49,0.55,0.55,0.55,0.35,0.55,0.52,0.35,0.24,0.24,0.55,0.35,0.56,0.55,0.47,0.55,0.52,0.81,0.24,0.47,0.49,0.23" style="fill:rgb(0,0,0);font-family:AdvTTa9c1b374;font-size:7.5px;stroke:none;">116. Scott GH, Williams JC. Susceptibility of Coxiella burnetii to chemical</text>
   <text y="235.559" x="64.009,68.149,69.942,73.144,74.937,79.077,81.649,85.549,89.059,91.714,95.474,99.614,102.269,105.471" svgx:width="0.55,0.24,0.43,0.24,0.55,0.34,0.52,0.47,0.35,0.49,0.55,0.35,0.43,0.23" style="fill:rgb(0,0,0);font-family:AdvTTa9c1b374;font-size:7.5px;stroke:none;">disinfectants.</text>
   <text y="235.559" x="109.137,113.824,117.724,121.62400000000001,123.594,128.91899999999998,130.851,135.126,137.087,141.774,145.193,149.018,152.918,154.831,158.581,161.933,163.651" svgx:width="0.63,0.52,0.52,0.55,0.71,0.55,0.57,0.55,0.63,0.45,0.51,0.52,0.55,0.5,0.45,0.23,0.23" style="fill:rgb(0,0,0);font-family:AdvTTeb5f0e55.I;font-size:7.5px;stroke:none;">Ann N Y Acad Sci.</text>
   <text y="235.559" x="167.36,171.65,175.94,180.23,184.52,186.47,190.76,195.05,199.448,201.323,205.613,209.903,214.189,218.497,222.787,227.077,231.367" svgx:width="0.57,0.57,0.57,0.57,0.26,0.57,0.57,0.57,0.25,0.57,0.57,0.57,0.57,0.57,0.57,0.57,0.23" style="fill:rgb(0,0,0);font-family:AdvTTa9c1b374;font-size:7.5px;stroke:none;">1990;590:291–296.</text>
   <text y="245.594" x="45.641,49.931,54.221,58.511,60.236000000000004,64.009,70.962,74.629,76.347,78.064,82.279,85.789,89.914,93.092,97.78,102.775,104.42500000000001,107.492,111.55,114.205,118.42,122.17,126.144,128.769,131.87,138.822,144.29,146.015,149.105,153.162,155.817,159.957,164.097,165.889,169.789,173.01399999999998,176.147,180.362,184.487,187.599,190.254,194.394,198.294,201.431,204.634,208.774,211.976,215.486,219.386,223.526,226.181,227.974,232.114,233.906,235.623,237.416,240.071,243.896,247.069,251.284,253.834,256.99,261.677,263.47,266.98,270.73,274.63,277.285,279.94,283.142,284.935" svgx:width="0.57,0.57,0.57,0.23,0.55,0.93,0.49,0.23,0.23,0.56,0.47,0.55,0.55,0.63,0.67,0.22,0.55,0.54,0.35,0.56,0.5,0.52,0.35,0.55,0.93,0.73,0.23,0.55,0.54,0.35,0.55,0.55,0.24,0.52,0.43,0.55,0.56,0.55,0.55,0.35,0.55,0.52,0.55,0.43,0.55,0.43,0.47,0.52,0.55,0.35,0.24,0.55,0.24,0.23,0.24,0.35,0.51,0.55,0.56,0.34,0.55,0.63,0.24,0.47,0.5,0.52,0.35,0.35,0.43,0.24,0.49" style="fill:rgb(0,0,0);font-family:AdvTTa9c1b374;font-size:7.5px;stroke:none;">117. Malloch RA, Stoker MG. Studies on the susceptibility of Rickettsia</text>
   <text y="255.572" x="64.01,68.15,72.29,74.945,79.085,82.985,85.64,87.44,90.825,93.48,97.68,101.087,104.596,108.736,112.636,118.726,120.519,124.029,127.696,129.421,132.834,136.974,138.767,141.969,143.762,147.902,150.474,154.374,157.884,160.539,164.206,168.346,171.001,174.204,175.854,179.265,182.933,187.073,191.198,194.573,198.788,202.913,206.308,208.963,212.863,216.373,220.513,224.653,226.445,230.585,234.725,238.625,241.85,245.256,247.828,252.043,254.668,258.068,262.208,266.108,268.763,272.663,276.173,278.828,280.621,284.761" svgx:width="0.55,0.55,0.35,0.55,0.52,0.35,0.24,0.55,0.35,0.56,0.55,0.47,0.55,0.52,0.81,0.24,0.47,0.49,0.23,0.55,0.55,0.24,0.43,0.24,0.55,0.34,0.52,0.47,0.35,0.49,0.55,0.35,0.43,0.22,0.55,0.49,0.55,0.55,0.55,0.56,0.55,0.55,0.35,0.52,0.47,0.55,0.55,0.24,0.55,0.55,0.52,0.43,0.55,0.34,0.56,0.35,0.55,0.55,0.52,0.35,0.52,0.47,0.35,0.24,0.55,0.51" style="fill:rgb(0,0,0);font-family:AdvTTa9c1b374;font-size:7.5px;stroke:none;">burneti to chemical disinfectants, and on techniques for detecting</text>
   <text y="265.607" x="64.01,67.212,73.302,76.97,78.687,80.41199999999999,82.378,86.518,90.658,96.748,100.888,104.788,107.443,110.66799999999999,112.651,116.866,119.416,121.382,125.207,126.999,130.667,134.807,136.524,140.424,142.415,146.63,149.285,153.11,156.777,160.917,162.709,165.912,172.002,175.297" svgx:width="0.43,0.81,0.49,0.23,0.23,0.55,0.55,0.55,0.81,0.55,0.52,0.35,0.43,0.55,0.56,0.34,0.55,0.51,0.24,0.49,0.55,0.23,0.52,0.55,0.56,0.35,0.51,0.49,0.55,0.24,0.43,0.81,0.43,0.23" style="fill:rgb(0,0,0);font-family:AdvTTa9c1b374;font-size:7.5px;stroke:none;">small numbers of viable organisms.</text>
   <text y="265.607" x="178.926,181.926,183.858,189.168,192.761,196.353" svgx:width="0.4,0.55,0.71,0.48,0.48,0.23" style="fill:rgb(0,0,0);font-family:AdvTTeb5f0e55.I;font-size:7.5px;stroke:none;">J Hyg.</text>
   <text y="265.607" x="200.073,204.363,208.653,212.943,217.233,219.183,223.473,227.763,229.638,233.928,238.218,242.593,246.902,251.192,255.482,259.772" svgx:width="0.57,0.57,0.57,0.57,0.26,0.57,0.57,0.25,0.57,0.57,0.57,0.57,0.57,0.57,0.57,0.23" style="fill:rgb(0,0,0);font-family:AdvTTa9c1b374;font-size:7.5px;stroke:none;">1952;50:502–514.</text>
   <text y="55.559" x="306.657,310.946,315.236,319.526,321.25100000000003,325.025,329.472,332.127,333.919,337.819,341.022,343.677,345.394,349.294,353.11899999999997,355.071,359.759,361.48400000000004,363.405,369.105,373.005,376.515,380.809,384.949,387.604,391.272,397.362,399.154,403.294,406.962,409.617,411.409,415.624,419.749,421.741,423.533,426.736,429.938,434.078,437.978,441.20300000000003,443.114,448.972,450.764,453.419,457.544,459.498,464.493,468.708,472.376,474.168,478.068,479.786,481.503,485.178,487.164,491.304,495.444,498.099,502.239,506.139,508.794,510.586,512.379,514.254,516.19,519.858,523.983,525.942,529.842,533.667,537.334,539.051,543.191,546.859" svgx:width="0.57,0.57,0.57,0.23,0.55,0.59,0.35,0.24,0.52,0.43,0.35,0.23,0.52,0.51,0.55,0.63,0.23,0.55,0.76,0.52,0.47,0.56,0.55,0.35,0.49,0.81,0.24,0.55,0.49,0.35,0.24,0.56,0.55,0.55,0.24,0.43,0.43,0.55,0.52,0.43,0.55,0.78,0.24,0.35,0.55,0.55,0.67,0.56,0.49,0.24,0.52,0.23,0.23,0.49,0.55,0.55,0.55,0.35,0.55,0.52,0.35,0.24,0.24,0.25,0.55,0.49,0.55,0.55,0.52,0.51,0.49,0.23,0.55,0.49,0.36" style="fill:rgb(0,0,0);font-family:AdvTTa9c1b374;font-size:7.5px;stroke:none;">118. Priestley R. Decontamination issues with Coxiella burnetii: an evalua-</text>
   <text y="65.594" x="325.025,327.68,329.473,333.688,337.813,339.992,344.207,346.757,348.893,352.403,356.543,359.198,361.853,365.753,369.893,372.548,374.348,378.173,380.3,383.968,387.793,391.46,393.253,394.97,398.638,402.777,404.495,408.395,410.574,414.714,416.506,419.708,421.501,425.641,428.213,432.113,435.623,438.278,442.038,446.178,448.833,452.035,453.76000000000005,455.871,460.866,466.956,470.856,473.51,475.303,478.813,482.48,486.605,488.809,492.866,497.081,500.591,502.384,506.284,508.939,512.764,514.944,519.159,521.709,523.901,528.588,530.381,533.891,537.641,541.541,544.196,546.851" svgx:width="0.35,0.24,0.56,0.55,0.55,0.56,0.34,0.55,0.47,0.55,0.35,0.35,0.52,0.55,0.35,0.23,0.51,0.55,0.49,0.51,0.49,0.24,0.23,0.49,0.55,0.23,0.52,0.55,0.55,0.24,0.43,0.24,0.55,0.34,0.52,0.47,0.35,0.49,0.55,0.35,0.43,0.23,0.55,0.67,0.81,0.52,0.35,0.24,0.47,0.49,0.55,0.55,0.54,0.56,0.47,0.24,0.52,0.35,0.51,0.55,0.56,0.34,0.55,0.63,0.24,0.47,0.5,0.52,0.35,0.35,0.36" style="fill:rgb(0,0,0);font-family:AdvTTa9c1b374;font-size:7.5px;stroke:none;">tion of currently available disinfectants. American Society of Rickett-</text>
   <text y="75.572" x="325.025,328.228,330.02,334.235,335.953,340.168,343.992,347.817,349.8,354.09,358.38,361.582,364.207,366.24,373.193,377.093,380.992,383.647,385.44,389.58,393.405,395.35499999999996,397.364,402.359,406.574,408.291,412.506,415.161,418.829,422.969,427.169,429.168,433.225,437.365,440.02,441.813,445.953,449.778,452.98,454.63,456.607,461.602,467.535,469.485,471.461,475.751,480.041,484.331,488.621" svgx:width="0.43,0.24,0.56,0.23,0.56,0.51,0.51,0.55,0.57,0.57,0.43,0.35,0.55,0.93,0.52,0.52,0.35,0.24,0.55,0.51,0.26,0.55,0.67,0.56,0.23,0.56,0.35,0.49,0.55,0.56,0.55,0.54,0.55,0.35,0.24,0.55,0.51,0.43,0.22,0.55,0.67,0.79,0.26,0.55,0.57,0.57,0.57,0.57,0.23" style="fill:rgb(0,0,0);font-family:AdvTTa9c1b374;font-size:7.5px;stroke:none;">siology 21st Meeting; Colorado Springs, CO; 2007.</text>
   <text y="85.55" x="306.657,310.946,315.236,319.526,321.25100000000003,325.025,329.862,333.529,337.669,341.337,344.689,346.482,349.70700000000005,351.783,358.736,360.461,362.555,368.255,372.155,375.98,379.879,381.597,385.812,389.952,396.042,399.942,404.082,406.707,408.873,413.088,415.63800000000003,417.773,420.428,424.643,428.858,430.576,433.80100000000004,435.859,438.431,442.646,445.271,447.367,450.57,454.71,457.365,461.19,465.09,466.882,468.6,470.317,474.069,478.209,481.719,485.61899999999997,487.675,491.89,494.44,496.576,501.571,505.786,509.454,511.246,515.146,516.864,518.581,522.256,524.355,528.495,532.635,535.29,539.43,543.33,545.985,547.778" svgx:width="0.57,0.57,0.57,0.23,0.55,0.64,0.49,0.55,0.49,0.45,0.24,0.43,0.55,0.93,0.23,0.55,0.76,0.52,0.51,0.52,0.23,0.56,0.55,0.81,0.52,0.55,0.35,0.55,0.56,0.34,0.55,0.35,0.56,0.56,0.23,0.43,0.55,0.34,0.56,0.35,0.55,0.43,0.55,0.35,0.51,0.52,0.24,0.23,0.23,0.49,0.55,0.47,0.52,0.55,0.56,0.34,0.55,0.67,0.56,0.49,0.24,0.52,0.23,0.23,0.49,0.55,0.55,0.55,0.35,0.55,0.52,0.35,0.24,0.24" style="fill:rgb(0,0,0);font-family:AdvTTa9c1b374;font-size:7.5px;stroke:none;">119. Banazis M. Development of tools for surveillance of Coxiella burnetii</text>
   <text y="95.585" x="325.025,326.818,330.943,334.663,338.803,343.018,349.108,353.008,356.211,358.866,360.658,364.183,367.885,370.54,374.68,380.77,382.562,386.702,390.37,394.51,397.165,400.39000000000004,404.111,407.778,411.918,416.043,419.758,424.753,428.893,432.095,434.75,437.405,441.073,442.79,444.583,448.25,452.375,456.098,462.188,465.855,468.51,471.713,475.853,479.993,481.785,485.453,487.17,490.39500000000004,494.082,497.749,501.889,506.014,509.729,512.384,516.524,520.424,522.216,524.841,528.608,534.465,538.133,541.335,543.99,547.89" svgx:width="0.24,0.55,0.55,0.55,0.56,0.81,0.52,0.43,0.35,0.24,0.47,0.55,0.35,0.55,0.81,0.24,0.55,0.49,0.55,0.35,0.43,0.55,0.49,0.55,0.55,0.55,0.67,0.55,0.43,0.35,0.35,0.49,0.23,0.24,0.49,0.55,0.55,0.81,0.49,0.35,0.43,0.55,0.55,0.24,0.49,0.23,0.43,0.55,0.49,0.55,0.55,0.55,0.35,0.55,0.52,0.24,0.35,0.55,0.78,0.49,0.43,0.35,0.52,0.23" style="fill:rgb(0,0,0);font-family:AdvTTa9c1b374;font-size:7.5px;stroke:none;">in domestic ruminants and Australian marsupials and their waste.</text>
   <text y="105.563" x="325.025,328.775,332.128,336.028,339.853,343.677,345.327,348.779,352.604,354.929,358.416,363.104,366.614,369.269,372.779,375.276,376.994,380.893,384.718,387.216,390.81600000000003,394.303,398.127,402.027,405.92699999999996,409.383,413.83,415.547,419.372,425.23,428.74,432.64,434.357,437.71,441.535,443.185,446.686,450.436,453.789,455.506,459.016,462.916,466.268,469.778,472.778,476.223,481.45,483.168,486.678,488.395,491.358,493.075,496.9,500.79999999999995,504.286,508.111,510.436,513.924,519.234,522.744,526.569,528.204,530.859,534.759,538.189,541.939,545.291,547.009" svgx:width="0.5,0.45,0.52,0.51,0.51,0.22,0.55,0.51,0.31,0.55,0.63,0.47,0.35,0.47,0.33,0.23,0.52,0.51,0.33,0.48,0.55,0.51,0.52,0.52,0.55,0.59,0.23,0.51,0.78,0.47,0.52,0.23,0.45,0.51,0.22,0.55,0.5,0.45,0.23,0.47,0.52,0.45,0.47,0.4,0.55,0.7,0.23,0.47,0.23,0.4,0.23,0.51,0.52,0.55,0.51,0.31,0.55,0.71,0.47,0.51,0.22,0.35,0.52,0.55,0.5,0.45,0.23,0.34" style="fill:rgb(0,0,0);font-family:AdvTTeb5f0e55.I;font-size:7.5px;stroke:none;">School of Veterinary and Biomedical Sciences Division of Health Sci-</text>
   <text y="115.597" x="325.025,328.535,332.435,335.788,339.298" svgx:width="0.47,0.52,0.45,0.47,0.4" style="fill:rgb(0,0,0);font-family:AdvTTeb5f0e55.I;font-size:7.5px;stroke:none;">ences</text>
   <text y="115.597" x="342.316,344.041,345.945,352.897,357.037,359.692,363.832,368.111,371.621,375.761,377.411,379.337,384.331,388.471,391.674,394.329,396.984,400.651,402.369,404.161,407.91,409.785,411.708,418.661,422.801,425.456,429.596,433.875,437.385,441.51,443.456,448.924,453.064,454.856,458.681,462.581,465.236,468.514,470.307,472.962,476.787,478.73699999999997,480.703,484.993,489.283,493.573,497.863" svgx:width="0.23,0.55,0.93,0.55,0.35,0.55,0.56,0.47,0.55,0.22,0.55,0.67,0.55,0.43,0.35,0.35,0.49,0.23,0.24,0.49,0.25,0.55,0.93,0.55,0.35,0.55,0.56,0.47,0.55,0.55,0.73,0.55,0.24,0.51,0.52,0.35,0.43,0.24,0.35,0.51,0.26,0.55,0.57,0.57,0.57,0.57,0.23" style="fill:rgb(0,0,0);font-family:AdvTTa9c1b374;font-size:7.5px;stroke:none;">. Murdoch, Australia: Murdoch University; 2009.</text>
   <text y="125.575" x="306.656,310.946,315.236,319.526,321.25100000000003,325.025,330.492,332.284,336.424,340.564,342.357,346.497,350.322,355.185,360.885,365.1,366.75,371.569,379.301,382.969,384.686,386.404,390.071,393.581,397.481,402.409,407.404,409.054,413.861,417.686,421.353,427.211,429.866,433.766,437.906,441.415,445.315,450.201,455.668,459.493,461.143,465.961,472.914,476.423,478.448,482.588,485.243,489.149,491.804,495.70399999999995,500.544,504.991,509.829,511.55400000000003,516.418,521.413,525.553,528.756,531.411,534.065,537.733,539.45,541.243,544.91,546.388" svgx:width="0.57,0.57,0.57,0.23,0.55,0.73,0.24,0.55,0.55,0.24,0.55,0.51,0.55,0.76,0.56,0.22,0.55,1.03,0.49,0.23,0.23,0.49,0.47,0.52,0.55,0.67,0.22,0.55,0.51,0.49,0.78,0.35,0.52,0.55,0.47,0.52,0.55,0.73,0.51,0.22,0.55,0.93,0.47,0.27,0.55,0.35,0.51,0.35,0.52,0.55,0.59,0.64,0.23,0.55,0.67,0.55,0.43,0.35,0.35,0.49,0.23,0.24,0.49,0.2,0.43" style="fill:rgb(0,0,0);font-family:AdvTTa9c1b374;font-size:7.5px;stroke:none;">120. Gidding HF, Wallace C, Lawrence GL, McIntyre PB. Australia's</text>
   <text y="135.553" x="325.025,329.165,332.833,335.488,337.28,341.495,345.635,349.302,351.02700000000004,353.031,358.956,360.912,363.484,367.384,371.209,375.109,377.734,379.733,383.558,387.226,390.736,394.246,396.038,400.178,403.845,406.5,408.293,412.508,416.633,418.681,422.821,425.476,429.691,433.516,436.171,439.838,445.928" svgx:width="0.55,0.49,0.35,0.24,0.56,0.55,0.49,0.23,0.55,0.79,0.55,0.34,0.52,0.51,0.52,0.35,0.55,0.51,0.49,0.47,0.47,0.24,0.55,0.49,0.35,0.24,0.56,0.55,0.55,0.55,0.35,0.56,0.51,0.35,0.49,0.81,0.23" style="fill:rgb(0,0,0);font-family:AdvTTa9c1b374;font-size:7.5px;stroke:none;">national Q fever vaccination program.</text>
   <text y="135.553" x="449.636,454.324,458.148,461.501,464.853,466.571,470.471" svgx:width="0.63,0.51,0.45,0.45,0.23,0.52,0.47" style="fill:rgb(0,0,0);font-family:AdvTTeb5f0e55.I;font-size:7.5px;stroke:none;">Vaccine</text>
   <text y="135.553" x="475.998,480.288,484.578,488.868,493.158,495.108,499.398,503.688,505.563,509.853,514.143,518.433,522.827,527.136,531.425,535.715,540.005,544.295" svgx:width="0.57,0.57,0.57,0.57,0.26,0.57,0.57,0.25,0.57,0.57,0.57,0.57,0.57,0.57,0.57,0.57,0.57,0.23" style="fill:rgb(0,0,0);font-family:AdvTTa9c1b374;font-size:7.5px;stroke:none;">2009;27:2037–2041.</text>
   <text y="145.588" x="306.657,310.947,315.237,319.527,321.252,325.025,331.978,335.645,338.3,344.39,346.182,350.397,354.522,356.603,361.44,363.165,365.163,371.088,373.157,375.729,379.629,383.454,387.354,390.009,391.884,393.906,398.278,402.418,406.318,408.363,410.08,414.295,418.435,422.26,424.293,426.086,430.301,434.44,437.095,441.235,445.135,448.96,450.995,453.65,457.84999999999997,459.896,463.406,467.621,471.761,474.416,477.071,481.286,483.011,485.067,489.207,493.032,495.045,498.87,502.537,506.047,509.557,511.35,515.49,519.252,521.907,523.7,527.915,532.055" svgx:width="0.57,0.57,0.57,0.23,0.55,0.93,0.49,0.35,0.81,0.24,0.56,0.55,0.55,0.64,0.23,0.55,0.79,0.55,0.34,0.52,0.51,0.52,0.35,0.25,0.55,0.58,0.55,0.52,0.55,0.23,0.56,0.55,0.51,0.55,0.24,0.56,0.55,0.35,0.55,0.52,0.51,0.55,0.35,0.56,0.55,0.47,0.56,0.55,0.35,0.35,0.56,0.23,0.55,0.55,0.51,0.55,0.51,0.49,0.47,0.47,0.24,0.55,0.49,0.35,0.24,0.56,0.55,0.23" style="fill:rgb(0,0,0);font-family:AdvTTa9c1b374;font-size:7.5px;stroke:none;">121. Marmion B. Q fever: The long journey to control by vaccination.</text>
   <text y="145.588" x="535.81,542.215,545.725" svgx:width="0.85,0.47,0.52" style="fill:rgb(0,0,0);font-family:AdvTTeb5f0e55.I;font-size:7.5px;stroke:none;">Med</text>
   <text y="155.566" x="325.026,328.026,329.958,334.645,338.545,341.508,344.163" svgx:width="0.4,0.55,0.63,0.52,0.4,0.35,0.23" style="fill:rgb(0,0,0);font-family:AdvTTeb5f0e55.I;font-size:7.5px;stroke:none;">J Aust.</text>
   <text y="155.566" x="347.817,352.107,356.397,360.687,364.977,366.926,371.216,375.506,379.904,381.779,386.069,390.359,394.702,399.01,403.3,407.59,411.88" svgx:width="0.57,0.57,0.57,0.57,0.26,0.57,0.57,0.57,0.25,0.57,0.57,0.57,0.57,0.57,0.57,0.57,0.23" style="fill:rgb(0,0,0);font-family:AdvTTa9c1b374;font-size:7.5px;stroke:none;">2007;186:164–166.</text>
   <text y="199.559" x="319.635,325.715,330.29,336.69,339.534,342.446,347.00600000000003,349.909,353.741,355.741,358.653,362.89300000000003,365.783,368.695,373.191,375.191,378.71099999999996,381.543,385.543,388.455,391.367,393.367,397.199,399.111,403.359" svgx:width="0.76,0.57,0.8,0.55,0.36,0.57,0.55,0.48,0.25,0.36,0.53,0.55,0.36,0.56,0.25,0.44,0.55,0.5,0.36,0.36,0.25,0.48,0.24,0.53,0.25" style="fill:rgb(0,0,0);font-family:AdvTT6071803a.B;font-size:8.0px;stroke:none;">How to cite this article:</text>
   <text y="199.559" x="411.306,416.05,417.882,422.298,428.794,435.29,439.45,442.25,445.095,449.839,453.167,454.92699999999996,457.738,465.154,468.898,474.225,476.057,480.473,483.305,487.46500000000003,490.336,493.664,495.424,498.273,505.689,509.849,514.265,517.841,519.753,523.913,527.3530000000001,530.134,534.878" svgx:width="0.59,0.23,0.55,0.81,0.81,0.52,0.35,0.55,0.59,0.42,0.22,0.55,0.93,0.47,0.67,0.23,0.55,0.35,0.52,0.55,0.42,0.22,0.55,0.93,0.52,0.55,0.45,0.24,0.52,0.43,0.55,0.59,0.22" style="fill:rgb(0,0,0);font-family:AdvTTa9c1b374;font-size:8.0px;stroke:none;">Plummer PJ, McClure J, Menzies P,</text>
   <text y="212.541" x="319.635,327.051,331.546,334.378,336.21,340.37,344.45,347.187,351.931,356.259,358.019,360.793,366.121,370.033,374.433,377.234,381.65,385.81,390.21,392.995,398.154,400.986,405.482,411.96200000000005,414.765,419.765,421.525,424.289,429.617,433.529,437.929,440.73,448.146,452.306,455.138,457.97,462.13000000000005,464.881,470.961,476.289,478.12899999999996,480.925,488.341,492.252,496.668,500.58,504.66,508.704,515.2,519.36,523.776,526.5759999999999,529.397,533.893" svgx:width="0.93,0.56,0.35,0.23,0.52,0.51,0.55,0.59,0.54,0.22,0.55,0.67,0.49,0.55,0.55,0.55,0.52,0.55,0.55,0.64,0.35,0.56,0.81,0.55,0.63,0.22,0.55,0.67,0.49,0.55,0.55,0.93,0.52,0.35,0.35,0.52,0.55,0.76,0.67,0.23,0.55,0.93,0.49,0.55,0.49,0.51,0.52,0.81,0.52,0.55,0.35,0.55,0.56,0.34" style="fill:rgb(0,0,0);font-family:AdvTTa9c1b374;font-size:8.0px;stroke:none;">Morley PS, Van den Brom R, Van Metre DC. Management of</text>
   <text y="225.523" x="319.635,324.547,328.626,332.29,334.122,337.866,339.61,341.354,345.43399999999997,350.249,354.409,358.569,361.232,365.392,369.136,371.968,373.8" svgx:width="0.61,0.51,0.46,0.23,0.47,0.22,0.22,0.51,0.55,0.52,0.52,0.33,0.52,0.47,0.35,0.23,0.23" style="fill:rgb(0,0,0);font-family:AdvTTeb5f0e55.I;font-size:8.0px;stroke:none;">Coxiella burnetii</text>
   <text y="225.523" x="380.466,382.378,386.794,389.538,393.698,397.442,400.274,402.186,406.602,411.00199999999995,415.899,417.811,422.21099999999996,427.068,428.9,430.812,434.892,439.052,442.468,445.299,449.795,453.539,457.539,462.33,466.746,471.242,475.658,480.074,481.906,485.818,488.65,490.562,495.058,499.474,502.914,507.685,511.597,516.013,520.413,525.26,528.092,532.508" svgx:width="0.24,0.55,0.34,0.52,0.47,0.35,0.24,0.56,0.55,0.55,0.24,0.55,0.55,0.23,0.24,0.51,0.52,0.43,0.35,0.56,0.47,0.5,0.55,0.55,0.56,0.55,0.55,0.23,0.49,0.35,0.24,0.56,0.55,0.43,0.55,0.49,0.55,0.55,0.55,0.35,0.55,0.52" style="fill:rgb(0,0,0);font-family:AdvTTa9c1b374;font-size:8.0px;stroke:none;">infection in livestock populations and the</text>
   <text y="238.506" x="319.635,323.547,326.963,330.378,334.874,338.618,340.53,344.442,347.274,351.434,355.834,358.866,362.442,366.938,371.434,375.85,380.346,383.178,385.002,388.762,391.805,394.637,396.549,399.965,403.965,405.965,409.04,414.40000000000003,417.43,421.174,425.67,430.086,433.502,437.662,441.978,445.394,449.81,453.25,456.321,459.737,462.569,466.481,469.313,473.473,479.969,484.129,488.545,491.244" svgx:width="0.49,0.43,0.43,0.56,0.47,0.24,0.49,0.35,0.52,0.55,0.55,0.45,0.56,0.56,0.55,0.56,0.35,0.24,0.47,0.55,0.35,0.24,0.43,0.5,0.25,0.55,0.67,0.55,0.47,0.56,0.55,0.43,0.52,0.55,0.43,0.55,0.43,0.55,0.43,0.35,0.49,0.35,0.52,0.81,0.52,0.55,0.35,0.23" style="fill:rgb(0,0,0);font-family:AdvTTa9c1b374;font-size:8.0px;stroke:none;">associated zoonotic risk: A consensus statement.</text>
   <text y="238.506" x="496.176,499.376,502.412,507.411,511.155,513.9549999999999,517.039,519.118,523.278,526.11,529.854,532.518" svgx:width="0.4,0.55,0.63,0.47,0.35,0.55,0.26,0.52,0.35,0.47,0.33,0.52" style="fill:rgb(0,0,0);font-family:AdvTTeb5f0e55.I;font-size:8.0px;stroke:none;">J Vet Intern</text>
   <text y="251.545" x="319.635,326.467,330.21" svgx:width="0.85,0.47,0.52" style="fill:rgb(0,0,0);font-family:AdvTTeb5f0e55.I;font-size:8.0px;stroke:none;">Med</text>
   <text y="251.545" x="334.318,336.15799999999996,347.413,351.989,356.565,361.141,365.717,367.797,372.373,376.949,378.878,383.454,388.03,392.606,397.133,401.725,406.301,410.877,415.453,420.029" svgx:width="0.23,0.55,0.57,0.57,0.57,0.57,0.26,0.57,0.57,0.25,0.57,0.57,0.57,0.57,0.57,0.57,0.57,0.57,0.57,0.23" style="fill:rgb(0,0,0);font-family:AdvTTa9c1b374;font-size:8.0px;stroke:none;">. 2018;32:1481–1494.</text>
  </g>
  <g begin="text">
   <text y="251.546" x="433.02,437.436,440.268,443.1,447.516,450.932,452.932,456.508,460.084,464.5,468.996,470.908,472.649,477.145,479.977,484.057,487.633,492.208,496.784,498.616,503.192,507.768,512.277,516.853,520.429,522.341,526.421,528.333,534.829" svgx:width="0.55,0.35,0.35,0.55,0.43,0.25,0.45,0.45,0.55,0.56,0.24,0.23,0.56,0.35,0.51,0.45,0.57,0.57,0.23,0.57,0.57,0.57,0.57,0.45,0.24,0.51,0.24,0.81,0.23" style="fill:rgb(0,69,145);font-family:AdvTTa9c1b374;font-size:8.0px;stroke:none;">https://doi.org/10.1111/jvim.</text>
  </g>
  <g begin="text">
   <text y="264.529" x="319.635,324.211,328.786,333.362,337.938" svgx:width="0.57,0.57,0.57,0.57,0.57" style="fill:rgb(0,69,145);font-family:AdvTTa9c1b374;font-size:8.0px;stroke:none;">15229</text>
  </g>
  <path style="fill:rgb(23,22,21);stroke:none;stroke-width:0.25;" d="M68.140 31.180 "/>
  <g begin="text">
   <text y="29.197" x="45.638,49.642,53.646,57.65" svgx:width="0.57,0.57,0.57,0.57" style="fill:rgb(0,0,0);font-family:AdvTT6071803a.B;font-size:7.0px;stroke:none;">1494</text>
   <text y="29.197" x="498.673,502.824,506.394,511.497,517.985,524.474,528.478" svgx:width="0.59,0.51,0.73,0.93,0.93,0.57,0.63" style="fill:rgb(0,0,0);font-family:AdvTTa9c1b374;font-size:7.0px;stroke:none;">PLUMMER</text>
   <text y="29.197" x="534.727,537.53,540.372,542.211,545.474" svgx:width="0.57,0.58,0.55,0.67,0.51" style="fill:rgb(0,0,0);font-family:AdvTTa9c1b374;font-size:4.9px;stroke:none;">ET AL</text>
   <text y="29.197" x="548.05" svgx:width="0.23" style="fill:rgb(0,0,0);font-family:AdvTTa9c1b374;font-size:7.0px;stroke:none;">.</text>
  </g>
  <path style="fill:rgb(150,17,39);stroke:none;stroke-width:0.25;" d="M212.180 36.240 C212.180 37.590 210.870 38.680 209.250 38.680 C207.640 38.680 206.320 37.590 206.320 36.240 C206.320 34.890 207.640 33.800 209.250 33.800 C210.870 33.800 212.180 34.890 212.180 36.240 "/>
  <path style="fill:rgb(150,17,39);stroke:none;stroke-width:0.25;" d="M232.700 36.240 C232.700 37.590 231.390 38.680 229.770 38.680 C228.150 38.680 226.840 37.590 226.840 36.240 C226.840 34.890 228.150 33.800 229.770 33.800 C231.390 33.800 232.700 34.890 232.700 36.240 "/>
  <path style="fill:rgb(150,17,39);stroke:none;stroke-width:0.25;" d="M204.260 36.240 C204.260 36.020 204.310 35.820 204.390 35.630 L76.940 35.630 L76.940 36.850 L204.390 36.850 C204.310 36.660 204.260 36.460 204.260 36.240 "/>
  <path style="fill:rgb(255,255,255);stroke:none;stroke-width:0.25;" d="M207.850 36.220 C207.850 35.340 208.490 34.670 209.380 34.670 C210.280 34.670 210.920 35.340 210.920 36.220 C210.920 37.090 210.280 37.760 209.380 37.760 C208.490 37.760 207.850 37.090 207.850 36.220 M210.490 36.220 C210.490 35.570 210.060 35.040 209.380 35.040 C208.710 35.040 208.270 35.570 208.270 36.220 C208.270 36.860 208.710 37.390 209.380 37.390 C210.060 37.390 210.490 36.860 210.490 36.220 "/>
  <path style="fill:rgb(255,255,255);stroke:none;stroke-width:0.25;" d="M211.390 35.720 L211.760 35.720 L211.760 36.000 L211.770 36.000 C211.910 35.790 212.190 35.670 212.460 35.670 C213.070 35.670 213.460 36.120 213.460 36.700 C213.460 37.290 213.060 37.740 212.460 37.740 C212.170 37.740 211.900 37.610 211.770 37.400 L211.760 37.400 L211.760 38.680 L211.390 38.680 L211.390 35.720 ZM211.760 36.700 C211.760 37.100 212.010 37.390 212.410 37.390 C212.810 37.390 213.060 37.100 213.060 36.700 C213.060 36.300 212.810 36.020 212.410 36.020 C212.010 36.020 211.760 36.300 211.760 36.700 "/>
  <path style="fill:rgb(255,255,255);stroke:none;stroke-width:0.25;" d="M214.180 36.840 C214.180 37.180 214.500 37.410 214.850 37.410 C215.080 37.410 215.250 37.300 215.390 37.120 L215.670 37.330 C215.460 37.600 215.180 37.740 214.800 37.740 C214.180 37.740 213.780 37.290 213.780 36.700 C213.780 36.110 214.210 35.670 214.800 35.670 C215.500 35.670 215.760 36.200 215.760 36.710 L215.760 36.840 L214.180 36.840 ZM215.370 36.540 C215.360 36.210 215.170 35.970 214.790 35.970 C214.430 35.970 214.180 36.280 214.180 36.540 L215.370 36.540 "/>
  <path style="fill:rgb(255,255,255);stroke:none;stroke-width:0.25;" d="M216.200 35.720 L216.570 35.720 L216.570 36.020 L216.580 36.020 C216.670 35.810 216.920 35.670 217.230 35.670 C217.610 35.670 217.940 35.900 217.940 36.420 L217.940 37.690 L217.570 37.690 L217.570 36.520 C217.570 36.150 217.360 36.020 217.120 36.020 C216.810 36.020 216.570 36.220 216.570 36.670 L216.570 37.690 L216.200 37.690 L216.200 35.720 "/>
  <path style="fill:rgb(255,255,255);stroke:none;stroke-width:0.25;" d="M220.150 34.740 L220.510 34.740 L221.770 37.690 L221.310 37.690 L221.010 36.960 L219.610 36.960 L219.320 37.690 L218.850 37.690 L220.150 34.740 ZM220.860 36.610 L220.320 35.260 L220.310 35.260 L219.750 36.610 L220.860 36.610 "/>
  <path style="fill:rgb(255,255,255);stroke:none;stroke-width:0.25;" d="M223.400 36.240 C223.270 36.090 223.120 36.020 222.910 36.020 C222.510 36.020 222.300 36.350 222.300 36.720 C222.300 37.090 222.550 37.390 222.930 37.390 C223.140 37.390 223.290 37.310 223.410 37.170 L223.680 37.430 C223.480 37.650 223.220 37.740 222.930 37.740 C222.320 37.740 221.900 37.320 221.900 36.710 C221.900 36.100 222.320 35.670 222.930 35.670 C223.220 35.670 223.490 35.770 223.690 35.980 L223.400 36.240 "/>
  <path style="fill:rgb(255,255,255);stroke:none;stroke-width:0.25;" d="M225.350 36.240 C225.210 36.090 225.070 36.020 224.860 36.020 C224.450 36.020 224.240 36.350 224.240 36.720 C224.240 37.090 224.490 37.390 224.880 37.390 C225.090 37.390 225.230 37.310 225.360 37.170 L225.620 37.430 C225.430 37.650 225.160 37.740 224.880 37.740 C224.270 37.740 223.850 37.320 223.850 36.710 C223.850 36.100 224.260 35.670 224.880 35.670 C225.160 35.670 225.440 35.770 225.630 35.980 L225.350 36.240 "/>
  <path style="fill:rgb(255,255,255);stroke:none;stroke-width:0.25;" d="M226.180 36.840 C226.180 37.180 226.500 37.410 226.840 37.410 C227.070 37.410 227.240 37.300 227.380 37.120 L227.660 37.330 C227.460 37.600 227.170 37.740 226.790 37.740 C226.170 37.740 225.780 37.290 225.780 36.700 C225.780 36.110 226.210 35.670 226.800 35.670 C227.490 35.670 227.760 36.200 227.760 36.710 L227.760 36.840 L226.180 36.840 ZM227.360 36.540 C227.350 36.210 227.170 35.970 226.790 35.970 C226.420 35.970 226.180 36.280 226.180 36.540 L227.360 36.540 "/>
  <path style="fill:rgb(255,255,255);stroke:none;stroke-width:0.25;" d="M229.220 36.210 C229.140 36.100 229.010 36.020 228.820 36.020 C228.650 36.020 228.490 36.090 228.490 36.240 C228.490 36.470 228.830 36.510 228.990 36.540 C229.320 36.620 229.570 36.750 229.570 37.120 C229.570 37.560 229.160 37.740 228.770 37.740 C228.450 37.740 228.210 37.650 228.010 37.390 L228.290 37.160 C228.410 37.270 228.550 37.390 228.770 37.390 C228.960 37.390 229.170 37.310 229.170 37.140 C229.170 36.910 228.860 36.870 228.700 36.830 C228.380 36.760 228.090 36.650 228.090 36.270 C228.090 35.860 228.470 35.670 228.840 35.670 C229.100 35.670 229.370 35.760 229.510 35.990 L229.220 36.210 "/>
  <path style="fill:rgb(255,255,255);stroke:none;stroke-width:0.25;" d="M231.050 36.210 C230.970 36.100 230.840 36.020 230.650 36.020 C230.480 36.020 230.320 36.090 230.320 36.240 C230.320 36.470 230.660 36.510 230.820 36.540 C231.150 36.620 231.400 36.750 231.400 37.120 C231.400 37.560 230.990 37.740 230.600 37.740 C230.280 37.740 230.030 37.650 229.840 37.390 L230.120 37.160 C230.240 37.270 230.380 37.390 230.600 37.390 C230.790 37.390 231.000 37.310 231.000 37.140 C231.000 36.910 230.690 36.870 230.530 36.830 C230.200 36.760 229.920 36.650 229.920 36.270 C229.920 35.860 230.300 35.670 230.670 35.670 C230.930 35.670 231.200 35.760 231.340 35.990 L231.050 36.210 "/>
  <path style="fill:rgb(150,17,39);stroke:none;stroke-width:0.25;" d="M79.880 23.540 L80.780 23.540 L80.780 28.300 C80.780 29.980 79.580 30.370 78.830 30.370 C77.890 30.370 77.210 29.890 77.030 28.910 L77.910 28.710 C78.020 29.210 78.330 29.520 78.830 29.520 C79.730 29.520 79.880 28.760 79.880 28.010 L79.880 23.540 "/>
  <path style="fill:rgb(150,17,39);stroke:none;stroke-width:0.25;" d="M84.040 29.520 C84.940 29.520 85.500 28.870 85.500 27.970 C85.500 27.070 84.940 26.420 84.040 26.420 C83.130 26.420 82.570 27.070 82.570 27.970 C82.570 28.870 83.130 29.520 84.040 29.520 ZM84.040 25.630 C85.360 25.630 86.410 26.670 86.410 27.970 C86.410 29.270 85.360 30.310 84.040 30.310 C82.710 30.310 81.670 29.270 81.670 27.970 C81.670 26.670 82.710 25.630 84.040 25.630 "/>
  <path style="fill:rgb(150,17,39);stroke:none;stroke-width:0.25;" d="M91.190 30.200 L90.350 30.200 L90.350 29.510 L90.330 29.510 C90.110 29.980 89.550 30.310 88.860 30.310 C87.990 30.310 87.240 29.800 87.240 28.610 L87.240 25.740 L88.090 25.740 L88.090 28.380 C88.090 29.210 88.570 29.520 89.100 29.520 C89.810 29.520 90.350 29.070 90.350 28.040 L90.350 25.740 L91.190 25.740 L91.190 30.200 "/>
  <path style="fill:rgb(150,17,39);stroke:none;stroke-width:0.25;" d="M92.250 25.740 L93.090 25.740 L93.090 26.430 L93.110 26.430 C93.330 25.960 93.890 25.630 94.450 25.630 C94.580 25.630 94.710 25.650 94.820 25.690 L94.790 26.600 C94.640 26.560 94.500 26.530 94.370 26.530 C93.540 26.530 93.090 26.980 93.090 27.960 L93.090 30.200 L92.250 30.200 L92.250 25.740 "/>
  <path style="fill:rgb(150,17,39);stroke:none;stroke-width:0.25;" d="M95.500 25.740 L96.350 25.740 L96.350 26.430 L96.360 26.430 C96.580 25.960 97.150 25.630 97.830 25.630 C98.700 25.630 99.450 26.150 99.450 27.330 L99.450 30.200 L98.600 30.200 L98.600 27.570 C98.600 26.730 98.120 26.420 97.590 26.420 C96.880 26.420 96.350 26.870 96.350 27.910 L96.350 30.200 L95.500 30.200 L95.500 25.740 "/>
  <path style="fill:rgb(150,17,39);stroke:none;stroke-width:0.25;" d="M102.900 28.060 C102.100 28.060 101.120 28.200 101.120 28.910 C101.120 29.420 101.500 29.640 102.080 29.640 C103.030 29.640 103.350 28.940 103.350 28.340 L103.350 28.060 L102.900 28.060 ZM100.510 26.290 C100.980 25.850 101.660 25.630 102.280 25.630 C103.600 25.630 104.140 26.340 104.140 27.120 L104.140 29.390 C104.140 29.700 104.150 29.970 104.180 30.200 L103.430 30.200 C103.410 29.970 103.400 29.750 103.400 29.520 L103.380 29.520 C103.010 30.100 102.500 30.310 101.820 30.310 C100.990 30.310 100.280 29.840 100.280 28.980 C100.280 27.830 101.380 27.430 102.730 27.430 L103.350 27.430 L103.350 27.250 C103.350 26.790 103.010 26.310 102.290 26.310 C101.640 26.310 101.330 26.580 101.020 26.810 L100.510 26.290 "/>
  <path style="fill:rgb(150,17,39);stroke:none;stroke-width:0.25;" d="M111.710 29.520 C112.620 29.520 113.180 28.870 113.180 27.970 C113.180 27.070 112.620 26.420 111.710 26.420 C110.810 26.420 110.250 27.070 110.250 27.970 C110.250 28.870 110.810 29.520 111.710 29.520 ZM111.710 25.630 C113.040 25.630 114.080 26.670 114.080 27.970 C114.080 29.270 113.040 30.310 111.710 30.310 C110.390 30.310 109.340 29.270 109.340 27.970 C109.340 26.670 110.390 25.630 111.710 25.630 "/>
  <path style="fill:rgb(150,17,39);stroke:none;stroke-width:0.25;" d="M115.240 26.480 L114.280 26.480 L114.280 25.740 L115.240 25.740 L115.240 24.740 C115.240 23.560 115.650 22.980 116.760 22.980 C116.950 22.980 117.160 22.990 117.390 23.040 L117.300 23.790 C117.140 23.730 116.990 23.710 116.820 23.710 C116.200 23.710 116.100 24.100 116.100 24.720 L116.100 25.740 L117.100 25.740 L117.100 26.480 L116.090 26.480 L116.090 30.200 L115.240 30.200 L115.240 26.480 "/>
  <path style="fill:rgb(150,17,39);stroke:none;stroke-width:0.25;" d="M119.500 23.540 L120.540 23.540 L122.500 28.960 L122.520 28.960 L124.550 23.540 L125.540 23.540 L122.920 30.200 L122.070 30.200 L119.500 23.540 "/>
  <path style="fill:rgb(150,17,39);stroke:none;stroke-width:0.25;" d="M128.690 27.600 C128.670 26.860 128.260 26.310 127.400 26.310 C126.560 26.310 126.020 27.010 126.020 27.600 L128.690 27.600 ZM126.020 28.280 C126.020 29.060 126.740 29.580 127.520 29.580 C128.040 29.580 128.420 29.320 128.750 28.910 L129.390 29.400 C128.920 30.010 128.270 30.310 127.410 30.310 C126.000 30.310 125.120 29.300 125.120 27.970 C125.120 26.640 126.090 25.630 127.420 25.630 C128.990 25.630 129.590 26.830 129.590 27.980 L129.590 28.280 L126.020 28.280 "/>
  <path style="fill:rgb(150,17,39);stroke:none;stroke-width:0.25;" d="M132.770 26.480 L131.560 26.480 L131.560 28.500 C131.560 29.000 131.560 29.520 132.200 29.520 C132.400 29.520 132.630 29.490 132.800 29.390 L132.800 30.160 C132.600 30.280 132.210 30.310 132.040 30.310 C130.730 30.310 130.710 29.510 130.710 28.800 L130.710 26.480 L129.730 26.480 L129.730 25.740 L130.710 25.740 L130.710 24.490 L131.560 24.490 L131.560 25.740 L132.770 25.740 L132.770 26.480 "/>
  <path style="fill:rgb(150,17,39);stroke:none;stroke-width:0.25;" d="M136.940 27.600 C136.920 26.860 136.510 26.310 135.650 26.310 C134.810 26.310 134.270 27.010 134.270 27.600 L136.940 27.600 ZM134.270 28.280 C134.270 29.060 134.990 29.580 135.770 29.580 C136.290 29.580 136.670 29.320 136.990 28.910 L137.630 29.400 C137.160 30.010 136.520 30.310 135.660 30.310 C134.250 30.310 133.360 29.300 133.360 27.970 C133.360 26.640 134.330 25.630 135.670 25.630 C137.240 25.630 137.840 26.830 137.840 27.980 L137.840 28.280 L134.270 28.280 "/>
  <path style="fill:rgb(150,17,39);stroke:none;stroke-width:0.25;" d="M138.630 25.740 L139.480 25.740 L139.480 26.430 L139.500 26.430 C139.710 25.960 140.280 25.630 140.830 25.630 C140.960 25.630 141.100 25.650 141.210 25.690 L141.170 26.600 C141.030 26.560 140.890 26.530 140.760 26.530 C139.930 26.530 139.480 26.980 139.480 27.960 L139.480 30.200 L138.630 30.200 L138.630 25.740 "/>
  <path style="fill:rgb(150,17,39);stroke:none;stroke-width:0.25;" d="M141.940 25.740 M142.370 23.520 C142.700 23.520 142.990 23.800 142.990 24.140 C142.990 24.480 142.700 24.760 142.370 24.760 C142.030 24.760 141.740 24.480 141.740 24.140 C141.740 23.800 142.030 23.520 142.370 23.520 "/>
  <path style="fill:rgb(150,17,39);stroke:none;stroke-width:0.25;" d="M143.910 25.740 L144.750 25.740 L144.750 26.430 L144.770 26.430 C144.990 25.960 145.550 25.630 146.240 25.630 C147.110 25.630 147.860 26.150 147.860 27.330 L147.860 30.200 L147.010 30.200 L147.010 27.570 C147.010 26.730 146.530 26.420 146.000 26.420 C145.290 26.420 144.750 26.870 144.750 27.910 L144.750 30.200 L143.910 30.200 L143.910 25.740 "/>
  <path style="fill:rgb(150,17,39);stroke:none;stroke-width:0.25;" d="M151.320 28.060 C150.520 28.060 149.540 28.200 149.540 28.910 C149.540 29.420 149.920 29.640 150.500 29.640 C151.440 29.640 151.770 28.940 151.770 28.340 L151.770 28.060 L151.320 28.060 ZM148.930 26.290 C149.400 25.850 150.080 25.630 150.700 25.630 C152.020 25.630 152.560 26.340 152.560 27.120 L152.560 29.390 C152.560 29.700 152.570 29.970 152.600 30.200 L151.850 30.200 C151.830 29.970 151.820 29.750 151.820 29.520 L151.800 29.520 C151.420 30.100 150.920 30.310 150.240 30.310 C149.410 30.310 148.700 29.840 148.700 28.980 C148.700 27.830 149.800 27.430 151.150 27.430 L151.770 27.430 L151.770 27.250 C151.770 26.790 151.430 26.310 150.710 26.310 C150.060 26.310 149.750 26.580 149.440 26.810 L148.930 26.290 "/>
  <path style="fill:rgb(150,17,39);stroke:none;stroke-width:0.25;" d="M153.560 25.740 L154.400 25.740 L154.400 26.430 L154.420 26.430 C154.640 25.960 155.200 25.630 155.760 25.630 C155.890 25.630 156.020 25.650 156.130 25.690 L156.100 26.600 C155.960 26.560 155.820 26.530 155.680 26.530 C154.860 26.530 154.400 26.980 154.400 27.960 L154.400 30.200 L153.560 30.200 L153.560 25.740 "/>
  <path style="fill:rgb(150,17,39);stroke:none;stroke-width:0.25;" d="M156.270 25.740 L157.250 25.740 L158.580 29.220 L158.600 29.220 L159.860 25.740 L160.770 25.740 L158.650 31.160 C158.350 31.930 158.060 32.460 157.130 32.460 C156.880 32.460 156.610 32.430 156.380 32.340 L156.480 31.570 C156.640 31.630 156.820 31.670 156.990 31.670 C157.530 31.670 157.690 31.380 157.850 30.930 L158.130 30.230 L156.270 25.740 "/>
  <path style="fill:rgb(150,17,39);stroke:none;stroke-width:0.25;" d="M166.050 25.740 L166.890 25.740 L166.890 26.430 L166.910 26.430 C167.130 25.960 167.690 25.630 168.380 25.630 C169.250 25.630 170.000 26.150 170.000 27.330 L170.000 30.200 L169.150 30.200 L169.150 27.570 C169.150 26.730 168.670 26.420 168.140 26.420 C167.430 26.420 166.890 26.870 166.890 27.910 L166.890 30.200 L166.050 30.200 L166.050 25.740 "/>
  <path style="fill:rgb(150,17,39);stroke:none;stroke-width:0.25;" d="M173.440 26.480 L172.230 26.480 L172.230 28.500 C172.230 29.000 172.230 29.520 172.870 29.520 C173.060 29.520 173.300 29.490 173.470 29.390 L173.470 30.160 C173.270 30.280 172.880 30.310 172.710 30.310 C171.400 30.310 171.380 29.510 171.380 28.800 L171.380 26.480 L170.400 26.480 L170.400 25.740 L171.380 25.740 L171.380 24.490 L172.230 24.490 L172.230 25.740 L173.440 25.740 L173.440 26.480 "/>
  <path style="fill:rgb(150,17,39);stroke:none;stroke-width:0.25;" d="M177.610 27.600 C177.590 26.860 177.170 26.310 176.320 26.310 C175.480 26.310 174.930 27.010 174.930 27.600 L177.610 27.600 ZM174.930 28.280 C174.930 29.060 175.660 29.580 176.440 29.580 C176.960 29.580 177.330 29.320 177.660 28.910 L178.300 29.400 C177.830 30.010 177.180 30.310 176.330 30.310 C174.920 30.310 174.030 29.300 174.030 27.970 C174.030 26.640 175.000 25.630 176.340 25.630 C177.910 25.630 178.510 26.830 178.510 27.980 L178.510 28.280 L174.930 28.280 "/>
  <path style="fill:rgb(150,17,39);stroke:none;stroke-width:0.25;" d="M179.300 25.740 L180.150 25.740 L180.150 26.430 L180.160 26.430 C180.380 25.960 180.940 25.630 181.500 25.630 C181.630 25.630 181.760 25.650 181.880 25.690 L181.840 26.600 C181.700 26.560 181.560 26.530 181.430 26.530 C180.600 26.530 180.150 26.980 180.150 27.960 L180.150 30.200 L179.300 30.200 L179.300 25.740 "/>
  <path style="fill:rgb(150,17,39);stroke:none;stroke-width:0.25;" d="M182.540 25.740 L183.390 25.740 L183.390 26.430 L183.410 26.430 C183.630 25.960 184.190 25.630 184.880 25.630 C185.740 25.630 186.500 26.150 186.500 27.330 L186.500 30.200 L185.650 30.200 L185.650 27.570 C185.650 26.730 185.170 26.420 184.630 26.420 C183.930 26.420 183.390 26.870 183.390 27.910 L183.390 30.200 L182.540 30.200 L182.540 25.740 "/>
  <path style="fill:rgb(150,17,39);stroke:none;stroke-width:0.25;" d="M189.960 28.060 C189.160 28.060 188.180 28.200 188.180 28.910 C188.180 29.420 188.550 29.640 189.140 29.640 C190.080 29.640 190.410 28.940 190.410 28.340 L190.410 28.060 L189.960 28.060 ZM187.570 26.290 C188.040 25.850 188.710 25.630 189.340 25.630 C190.650 25.630 191.200 26.340 191.200 27.120 L191.200 29.390 C191.200 29.700 191.210 29.970 191.240 30.200 L190.480 30.200 C190.460 29.970 190.450 29.750 190.450 29.520 L190.440 29.520 C190.060 30.100 189.550 30.310 188.870 30.310 C188.050 30.310 187.330 29.840 187.330 28.980 C187.330 27.830 188.430 27.430 189.790 27.430 L190.410 27.430 L190.410 27.250 C190.410 26.790 190.070 26.310 189.340 26.310 C188.700 26.310 188.380 26.580 188.070 26.810 L187.570 26.290 "/>
  <path style="fill:rgb(150,17,39);stroke:none;stroke-width:0.25;" d="M196.760 23.540 L198.110 23.540 L200.230 28.580 L200.260 28.580 L202.360 23.540 L203.710 23.540 L203.710 30.200 L202.800 30.200 L202.800 24.730 L202.780 24.730 L200.540 30.200 L199.940 30.200 L197.690 24.730 L197.670 24.730 L197.670 30.200 L196.760 30.200 L196.760 23.540 "/>
  <path style="fill:rgb(150,17,39);stroke:none;stroke-width:0.25;" d="M208.220 27.600 C208.200 26.860 207.790 26.310 206.930 26.310 C206.090 26.310 205.550 27.010 205.550 27.600 L208.220 27.600 ZM205.550 28.280 C205.550 29.060 206.270 29.580 207.050 29.580 C207.570 29.580 207.950 29.320 208.280 28.910 L208.920 29.400 C208.450 30.010 207.800 30.310 206.940 30.310 C205.530 30.310 204.650 29.300 204.650 27.970 C204.650 26.640 205.610 25.630 206.950 25.630 C208.520 25.630 209.120 26.830 209.120 27.980 L209.120 28.280 L205.550 28.280 "/>
  <path style="fill:rgb(150,17,39);stroke:none;stroke-width:0.25;" d="M213.530 27.970 C213.530 27.070 212.960 26.420 212.060 26.420 C211.150 26.420 210.590 27.070 210.590 27.970 C210.590 28.880 211.150 29.520 212.060 29.520 C212.960 29.520 213.530 28.880 213.530 27.970 ZM214.370 30.200 L213.530 30.200 L213.530 29.560 L213.510 29.560 C213.180 30.040 212.560 30.310 211.960 30.310 C210.570 30.310 209.690 29.290 209.690 27.970 C209.690 26.640 210.580 25.630 211.960 25.630 C212.590 25.630 213.210 25.920 213.510 26.380 L213.530 26.380 L213.530 23.090 L214.370 23.090 L214.370 30.200 "/>
  <path style="fill:rgb(150,17,39);stroke:none;stroke-width:0.25;" d="M215.490 25.740 M215.910 23.520 C216.250 23.520 216.540 23.800 216.540 24.140 C216.540 24.480 216.250 24.760 215.910 24.760 C215.580 24.760 215.290 24.480 215.290 24.140 C215.290 23.800 215.580 23.520 215.910 23.520 "/>
  <path style="fill:rgb(150,17,39);stroke:none;stroke-width:0.25;" d="M220.650 26.930 C220.330 26.600 220.010 26.430 219.540 26.430 C218.610 26.430 218.140 27.170 218.140 28.010 C218.140 28.850 218.710 29.520 219.580 29.520 C220.050 29.520 220.380 29.350 220.660 29.020 L221.260 29.630 C220.820 30.120 220.220 30.310 219.570 30.310 C218.200 30.310 217.240 29.360 217.240 27.990 C217.240 26.620 218.180 25.640 219.570 25.640 C220.220 25.640 220.840 25.860 221.280 26.340 L220.650 26.930 "/>
  <path style="fill:rgb(150,17,39);stroke:none;stroke-width:0.25;" d="M221.820 25.740 M222.240 23.520 C222.580 23.520 222.870 23.800 222.870 24.140 C222.870 24.480 222.580 24.760 222.240 24.760 C221.910 24.760 221.620 24.480 221.620 24.140 C221.620 23.800 221.910 23.520 222.240 23.520 "/>
  <path style="fill:rgb(150,17,39);stroke:none;stroke-width:0.25;" d="M223.790 25.740 L224.630 25.740 L224.630 26.430 L224.650 26.430 C224.870 25.960 225.430 25.630 226.120 25.630 C226.980 25.630 227.740 26.150 227.740 27.330 L227.740 30.200 L226.890 30.200 L226.890 27.570 C226.890 26.730 226.410 26.420 225.870 26.420 C225.170 26.420 224.630 26.870 224.630 27.910 L224.630 30.200 L223.790 30.200 L223.790 25.740 "/>
  <path style="fill:rgb(150,17,39);stroke:none;stroke-width:0.25;" d="M232.100 27.600 C232.080 26.860 231.670 26.310 230.810 26.310 C229.980 26.310 229.430 27.010 229.430 27.600 L232.100 27.600 ZM229.430 28.280 C229.430 29.060 230.150 29.580 230.930 29.580 C231.450 29.580 231.830 29.320 232.160 28.910 L232.800 29.400 C232.330 30.010 231.680 30.310 230.820 30.310 C229.410 30.310 228.530 29.300 228.530 27.970 C228.530 26.640 229.500 25.630 230.830 25.630 C232.400 25.630 233.000 26.830 233.000 27.980 L233.000 28.280 L229.430 28.280 "/>
  <path style="fill:rgb(114,113,114);stroke:none;stroke-width:0.25;" d="M238.750 26.300 L243.270 26.300 L243.280 26.310 L244.130 28.200 C244.180 28.310 244.250 28.360 244.370 28.360 L245.220 28.360 C245.300 28.360 245.350 28.330 245.380 28.280 C245.410 28.230 245.410 28.170 245.390 28.110 L241.260 19.000 C241.230 18.950 241.140 18.900 241.100 18.900 L240.960 18.900 C240.930 18.900 240.830 18.950 240.800 19.010 L236.650 28.110 C236.620 28.170 236.620 28.230 236.650 28.280 C236.680 28.330 236.740 28.360 236.810 28.360 L237.660 28.360 C237.780 28.360 237.870 28.280 237.900 28.200 C238.040 27.890 238.180 27.580 238.310 27.280 C238.440 26.990 238.590 26.670 238.730 26.350 L238.750 26.300 ZM242.830 25.290 L239.210 25.290 L240.930 21.430 L241.090 21.430 L241.110 21.470 L242.830 25.290 "/>
  <path style="fill:rgb(114,113,114);stroke:none;stroke-width:0.25;" d="M250.400 18.910 C247.750 18.910 245.600 21.060 245.600 23.720 C245.600 26.350 247.750 28.500 250.400 28.500 C251.650 28.500 252.770 28.050 253.640 27.210 C253.680 27.170 253.700 27.110 253.700 27.050 C253.700 27.020 253.690 26.980 253.660 26.950 L253.030 26.340 C252.980 26.300 252.880 26.300 252.810 26.360 C252.190 26.830 251.480 27.270 250.430 27.270 C248.510 27.270 246.950 25.660 246.950 23.690 C246.950 21.710 248.510 20.090 250.420 20.090 C251.250 20.090 252.150 20.440 252.810 21.020 C252.900 21.110 252.970 21.120 253.040 21.030 L253.640 20.410 C253.680 20.380 253.700 20.330 253.700 20.280 C253.700 20.230 253.670 20.180 253.630 20.150 C252.640 19.290 251.650 18.910 250.400 18.910 "/>
  <path style="fill:rgb(114,113,114);stroke:none;stroke-width:0.25;" d="M266.930 19.020 C266.840 19.020 266.750 19.100 266.750 19.200 L266.750 28.180 C266.750 28.270 266.840 28.360 266.930 28.360 L267.820 28.360 C267.920 28.360 268.000 28.270 268.000 28.180 L268.000 19.200 C268.000 19.100 267.920 19.020 267.820 19.020 L266.930 19.020 "/>
  <path style="fill:rgb(114,113,114);stroke:none;stroke-width:0.25;" d="M272.680 22.100 L272.860 22.100 L272.870 22.120 L275.510 28.390 C275.530 28.440 275.600 28.490 275.680 28.490 L275.940 28.490 C276.040 28.490 276.100 28.440 276.110 28.400 L278.750 22.100 L278.920 22.100 L278.930 22.170 L280.000 28.230 C280.020 28.280 280.100 28.360 280.200 28.360 L281.140 28.360 C281.210 28.360 281.270 28.340 281.300 28.300 C281.340 28.260 281.330 28.190 281.320 28.150 L279.540 19.020 C279.520 18.950 279.430 18.890 279.350 18.890 L279.120 18.890 C279.050 18.890 278.970 18.940 278.950 18.980 L275.910 25.970 L275.740 25.970 L275.740 25.950 L272.690 18.980 C272.670 18.940 272.580 18.890 272.520 18.890 L272.290 18.890 C272.210 18.890 272.120 18.950 272.100 19.030 L270.300 28.140 C270.300 28.210 270.300 28.260 270.340 28.300 C270.370 28.340 270.430 28.360 270.500 28.360 L271.440 28.360 C271.530 28.360 271.620 28.280 271.620 28.240 L272.680 22.100 "/>
  <path style="fill:rgb(150,17,39);stroke:none;stroke-width:0.25;" d="M265.190 18.870 C265.140 18.800 265.060 18.760 264.960 18.760 L264.050 18.760 C263.930 18.760 263.840 18.840 263.810 18.910 L262.190 22.230 C262.200 22.270 262.210 22.310 262.220 22.350 C262.240 22.460 262.240 22.540 262.230 22.590 L262.230 22.680 C262.150 23.290 261.780 23.580 261.580 23.730 C261.510 23.780 261.450 23.820 261.390 23.850 L260.370 25.930 L260.110 29.470 C260.130 29.450 260.140 29.440 260.150 29.420 L265.200 19.120 C265.240 19.030 265.240 18.940 265.190 18.870 "/>
  <path style="fill:rgb(150,17,39);stroke:none;stroke-width:0.25;" d="M259.150 25.880 C258.900 25.780 258.600 25.660 258.450 25.510 C258.320 25.370 258.220 25.210 258.150 25.050 C258.080 24.860 258.050 24.650 258.070 24.450 C258.110 24.200 258.200 24.030 258.300 23.900 L255.800 18.910 C255.770 18.850 255.670 18.760 255.560 18.760 L254.740 18.760 C254.640 18.760 254.560 18.800 254.510 18.870 C254.460 18.940 254.460 19.030 254.500 19.120 L259.410 29.190 L259.150 25.880 "/>
  <path style="fill:rgb(150,17,39);stroke:none;stroke-width:0.25;" d="M262.480 18.300 C262.450 18.190 262.410 18.140 262.380 18.070 C262.220 17.820 262.010 17.700 261.840 17.600 C261.660 17.510 261.490 17.440 261.330 17.380 C261.150 17.320 260.980 17.260 260.820 17.210 L260.720 18.450 C260.730 18.460 260.750 18.460 260.760 18.470 C260.880 18.500 260.990 18.550 261.090 18.590 C261.120 18.610 261.150 18.630 261.180 18.640 C261.160 18.650 261.150 18.660 261.130 18.670 C261.010 18.740 260.860 18.810 260.690 18.870 L260.690 18.870 L260.670 18.880 C260.540 18.920 260.400 18.970 260.260 19.010 C260.250 19.020 260.240 19.020 260.230 19.020 L260.230 19.020 L260.170 19.040 L260.250 15.500 L259.170 15.500 L259.240 16.760 C259.190 16.740 259.140 16.730 259.100 16.710 C258.880 16.640 258.700 16.570 258.500 16.450 C258.320 16.340 258.120 16.210 257.900 16.200 C257.440 16.180 256.960 16.240 256.600 16.550 C256.460 16.680 256.460 16.860 256.520 17.030 C256.600 17.270 256.950 17.500 257.550 17.690 C257.830 17.770 258.980 18.040 259.300 18.110 L259.370 19.290 C259.300 19.310 259.250 19.320 259.180 19.340 C259.000 19.410 258.810 19.470 258.610 19.560 C258.420 19.650 258.210 19.750 258.020 19.940 C257.920 20.040 257.830 20.150 257.780 20.360 C257.770 20.410 257.760 20.490 257.760 20.510 C257.760 20.540 257.760 20.560 257.760 20.580 C257.770 20.690 257.760 20.630 257.770 20.650 C257.770 20.660 257.770 20.680 257.770 20.690 C257.780 20.710 257.780 20.730 257.790 20.760 C257.800 20.800 257.810 20.850 257.830 20.890 C257.910 21.070 258.030 21.210 258.140 21.310 C258.260 21.410 258.360 21.470 258.470 21.530 C258.820 21.720 259.140 21.820 259.450 21.910 L259.490 23.550 C259.230 23.650 258.980 23.770 258.740 23.950 C258.600 24.070 258.440 24.190 258.400 24.500 C258.380 24.620 258.400 24.760 258.450 24.890 C258.500 25.020 258.570 25.130 258.650 25.200 C258.940 25.490 259.210 25.580 259.470 25.690 C259.520 25.710 259.550 25.730 259.580 25.740 L259.700 30.290 L259.930 30.290 L260.080 23.910 C260.310 23.840 260.540 23.770 260.780 23.670 C260.950 23.600 261.130 23.520 261.320 23.390 C261.490 23.260 261.750 23.060 261.800 22.620 C261.800 22.600 261.800 22.570 261.800 22.550 C261.810 22.540 261.800 22.460 261.790 22.420 C261.780 22.360 261.770 22.320 261.750 22.290 C261.740 22.260 261.730 22.210 261.710 22.190 C261.640 22.060 261.550 21.980 261.460 21.900 C261.280 21.760 261.100 21.670 260.910 21.590 C260.770 21.530 260.630 21.480 260.490 21.420 L260.420 22.210 C260.490 22.230 260.560 22.250 260.630 22.270 C260.780 22.330 260.930 22.400 261.040 22.480 C261.090 22.520 261.130 22.560 261.150 22.590 C261.190 22.640 261.190 22.690 261.150 22.740 C261.130 22.780 261.090 22.820 261.030 22.870 C260.920 22.960 260.770 23.040 260.620 23.100 C260.440 23.180 260.270 23.260 260.090 23.320 L260.170 20.490 L259.410 20.610 L259.420 21.060 C259.210 20.980 259.010 20.900 258.860 20.800 C258.540 20.600 258.850 20.450 259.540 20.260 C259.890 20.170 260.230 20.080 260.570 19.990 C260.930 19.890 261.290 19.790 261.700 19.580 C261.900 19.470 262.150 19.320 262.350 19.020 C262.440 18.870 262.500 18.710 262.500 18.520 C262.500 18.500 262.500 18.480 262.500 18.460 C262.500 18.410 262.490 18.350 262.480 18.300 ZM259.570 25.350 C259.560 25.350 259.560 25.350 259.550 25.340 C259.310 25.230 259.030 25.090 258.850 24.890 C258.540 24.540 259.030 24.280 259.540 24.090 L259.570 25.350 "/>
  <path style="fill:none;stroke:rgb(114,113,114);stroke-width:0.25;" d="M236.470 33.180 L281.490 33.180 "/>
  <path style="fill:none;stroke:rgb(114,113,114);stroke-width:0.25;" d="M236.470 45.570 L281.490 45.570 "/>
  <path style="fill:rgb(114,113,114);stroke:none;stroke-width:0.25;" d="M243.380 38.200 L244.610 35.510 C244.620 35.490 244.660 35.470 244.680 35.470 L244.720 35.470 C244.740 35.470 244.770 35.490 244.790 35.510 L246.010 38.200 C246.030 38.260 246.000 38.310 245.940 38.310 L245.690 38.310 C245.640 38.310 245.610 38.280 245.590 38.250 L245.350 37.700 L244.040 37.700 C243.960 37.890 243.870 38.070 243.790 38.250 C243.780 38.280 243.750 38.310 243.700 38.310 L243.450 38.310 C243.390 38.310 243.360 38.260 243.380 38.200 ZM245.190 37.360 L244.700 36.260 L244.680 36.260 L244.190 37.360 L245.190 37.360 "/>
  <path style="fill:rgb(114,113,114);stroke:none;stroke-width:0.25;" d="M246.210 36.780 C246.210 36.740 246.240 36.710 246.280 36.710 L246.390 36.710 C246.430 36.710 246.450 36.730 246.460 36.760 L246.510 36.890 C246.540 36.850 246.720 36.670 247.030 36.670 C247.260 36.670 247.430 36.760 247.550 36.920 C247.590 36.880 247.830 36.670 248.130 36.670 C248.620 36.670 248.790 37.010 248.790 37.430 L248.790 38.230 C248.790 38.270 248.760 38.310 248.710 38.310 L248.490 38.310 C248.450 38.310 248.410 38.270 248.410 38.230 L248.410 37.410 C248.410 37.160 248.300 37.020 248.080 37.020 C247.840 37.020 247.700 37.190 247.670 37.210 C247.680 37.250 247.680 37.320 247.680 37.400 L247.680 38.230 C247.680 38.270 247.650 38.310 247.610 38.310 L247.390 38.310 C247.350 38.310 247.320 38.270 247.320 38.230 L247.320 37.410 C247.320 37.160 247.200 37.020 246.980 37.020 C246.740 37.020 246.600 37.200 246.580 37.260 L246.580 38.230 C246.580 38.270 246.540 38.310 246.510 38.310 L246.280 38.310 C246.240 38.310 246.210 38.270 246.210 38.230 L246.210 36.780 "/>
  <path style="fill:rgb(114,113,114);stroke:none;stroke-width:0.25;" d="M249.910 36.670 C250.330 36.670 250.650 36.980 250.650 37.410 C250.650 37.440 250.650 37.490 250.640 37.520 C250.640 37.560 250.600 37.580 250.570 37.580 L249.480 37.580 C249.490 37.800 249.680 38.010 249.940 38.010 C250.080 38.010 250.220 37.950 250.290 37.900 C250.350 37.870 250.370 37.850 250.400 37.890 L250.520 38.040 C250.540 38.080 250.560 38.110 250.510 38.150 C250.390 38.250 250.180 38.350 249.920 38.350 C249.430 38.350 249.110 37.970 249.110 37.510 C249.110 37.050 249.430 36.670 249.910 36.670 ZM250.280 37.330 C250.260 37.140 250.100 36.980 249.910 36.980 C249.690 36.980 249.530 37.130 249.500 37.330 L250.280 37.330 "/>
  <path style="fill:rgb(114,113,114);stroke:none;stroke-width:0.25;" d="M250.970 36.780 C250.970 36.740 251.010 36.710 251.050 36.710 L251.160 36.710 C251.190 36.710 251.220 36.730 251.230 36.760 L251.280 36.900 C251.300 36.860 251.450 36.670 251.740 36.670 C251.890 36.670 252.080 36.710 252.040 36.820 L251.940 37.010 C251.920 37.050 251.880 37.060 251.840 37.050 C251.820 37.030 251.760 37.020 251.710 37.020 C251.470 37.020 251.360 37.190 251.350 37.220 L251.350 38.230 C251.350 38.300 251.300 38.310 251.240 38.310 L251.050 38.310 C251.010 38.310 250.970 38.270 250.970 38.230 L250.970 36.780 "/>
  <path style="fill:rgb(114,113,114);stroke:none;stroke-width:0.25;" d="M252.210 35.820 C252.210 35.690 252.310 35.590 252.440 35.590 C252.570 35.590 252.680 35.690 252.680 35.820 C252.680 35.950 252.570 36.060 252.440 36.060 C252.310 36.060 252.210 35.950 252.210 35.820 ZM252.260 36.780 C252.260 36.740 252.290 36.710 252.330 36.710 L252.560 36.710 C252.600 36.710 252.640 36.740 252.640 36.780 L252.640 38.230 C252.640 38.270 252.600 38.310 252.560 38.310 L252.330 38.310 C252.290 38.310 252.260 38.270 252.260 38.230 L252.260 36.780 "/>
  <path style="fill:rgb(114,113,114);stroke:none;stroke-width:0.25;" d="M253.820 36.670 C254.060 36.670 254.250 36.770 254.400 36.950 C254.420 36.990 254.420 37.040 254.380 37.060 L254.250 37.180 C254.200 37.230 254.170 37.200 254.140 37.170 C254.070 37.090 253.950 37.020 253.820 37.020 C253.560 37.020 253.350 37.240 253.350 37.510 C253.350 37.780 253.550 38.010 253.820 38.010 C254.020 38.010 254.100 37.900 254.190 37.820 C254.220 37.780 254.260 37.780 254.300 37.810 L254.400 37.900 C254.440 37.930 254.460 37.970 254.430 38.010 C254.300 38.220 254.090 38.350 253.810 38.350 C253.360 38.350 252.970 37.990 252.970 37.510 C252.970 37.040 253.370 36.670 253.820 36.670 "/>
  <path style="fill:rgb(114,113,114);stroke:none;stroke-width:0.25;" d="M255.290 37.300 C255.460 37.300 255.610 37.350 255.610 37.350 C255.610 37.090 255.570 36.990 255.360 36.990 C255.180 36.990 255.000 37.040 254.920 37.060 C254.870 37.080 254.840 37.050 254.830 37.000 L254.800 36.850 C254.780 36.800 254.810 36.770 254.850 36.760 C254.880 36.750 255.100 36.670 255.400 36.670 C255.910 36.670 255.960 36.980 255.960 37.380 L255.960 38.230 C255.960 38.270 255.920 38.310 255.880 38.310 L255.770 38.310 C255.740 38.310 255.720 38.290 255.700 38.250 L255.660 38.140 C255.580 38.230 255.420 38.350 255.170 38.350 C254.870 38.350 254.650 38.140 254.650 37.810 C254.650 37.520 254.890 37.300 255.290 37.300 ZM255.250 38.060 C255.410 38.060 255.560 37.940 255.610 37.860 L255.610 37.610 C255.580 37.590 255.470 37.540 255.330 37.540 C255.140 37.540 255.000 37.650 255.000 37.810 C255.000 37.950 255.100 38.060 255.250 38.060 "/>
  <path style="fill:rgb(114,113,114);stroke:none;stroke-width:0.25;" d="M256.400 36.780 C256.400 36.740 256.440 36.710 256.480 36.710 L256.590 36.710 C256.630 36.710 256.650 36.730 256.660 36.760 L256.710 36.890 C256.740 36.860 256.950 36.670 257.270 36.670 C257.760 36.670 257.940 37.010 257.940 37.430 L257.940 38.230 C257.940 38.270 257.900 38.310 257.860 38.310 L257.630 38.310 C257.590 38.310 257.550 38.270 257.550 38.230 L257.550 37.410 C257.550 37.160 257.430 37.020 257.220 37.020 C256.970 37.020 256.800 37.200 256.780 37.260 L256.780 38.230 C256.780 38.280 256.750 38.310 256.690 38.310 L256.480 38.310 C256.440 38.310 256.400 38.270 256.400 38.230 L256.400 36.780 "/>
  <path style="fill:rgb(114,113,114);stroke:none;stroke-width:0.25;" d="M260.560 35.470 C260.960 35.470 261.260 35.600 261.530 35.840 C261.570 35.870 261.570 35.920 261.530 35.950 L261.360 36.130 C261.330 36.170 261.290 36.170 261.260 36.130 C261.070 35.970 260.810 35.860 260.570 35.860 C259.990 35.860 259.560 36.340 259.560 36.900 C259.560 37.460 260.000 37.940 260.570 37.940 C260.860 37.940 261.070 37.820 261.260 37.680 C261.290 37.650 261.330 37.650 261.350 37.670 L261.540 37.850 C261.570 37.880 261.560 37.930 261.530 37.960 C261.260 38.220 260.920 38.350 260.560 38.350 C259.760 38.350 259.120 37.710 259.120 36.910 C259.120 36.110 259.760 35.470 260.560 35.470 "/>
  <path style="fill:rgb(114,113,114);stroke:none;stroke-width:0.25;" d="M262.550 36.670 C263.000 36.670 263.360 37.050 263.360 37.500 C263.360 37.960 263.000 38.350 262.550 38.350 C262.100 38.350 261.740 37.960 261.740 37.500 C261.740 37.050 262.100 36.670 262.550 36.670 ZM262.550 38.010 C262.800 38.010 263.000 37.780 263.000 37.500 C263.000 37.240 262.800 37.020 262.550 37.020 C262.300 37.020 262.100 37.240 262.100 37.500 C262.100 37.780 262.300 38.010 262.550 38.010 "/>
  <path style="fill:rgb(114,113,114);stroke:none;stroke-width:0.25;" d="M263.700 35.580 C263.700 35.540 263.730 35.510 263.770 35.510 L264.000 35.510 C264.040 35.510 264.080 35.540 264.080 35.580 L264.080 38.230 C264.080 38.270 264.040 38.310 264.000 38.310 L263.770 38.310 C263.730 38.310 263.700 38.270 263.700 38.230 L263.700 35.580 "/>
  <path style="fill:rgb(114,113,114);stroke:none;stroke-width:0.25;" d="M264.540 35.580 C264.540 35.540 264.570 35.510 264.610 35.510 L264.840 35.510 C264.880 35.510 264.920 35.540 264.920 35.580 L264.920 38.230 C264.920 38.270 264.880 38.310 264.840 38.310 L264.610 38.310 C264.570 38.310 264.540 38.270 264.540 38.230 L264.540 35.580 "/>
  <path style="fill:rgb(114,113,114);stroke:none;stroke-width:0.25;" d="M266.060 36.670 C266.480 36.670 266.800 36.980 266.800 37.410 C266.800 37.440 266.790 37.490 266.790 37.520 C266.780 37.560 266.750 37.580 266.720 37.580 L265.630 37.580 C265.640 37.800 265.830 38.010 266.090 38.010 C266.230 38.010 266.360 37.950 266.440 37.900 C266.490 37.870 266.520 37.850 266.550 37.890 L266.660 38.040 C266.690 38.080 266.700 38.110 266.650 38.150 C266.540 38.250 266.330 38.350 266.060 38.350 C265.580 38.350 265.260 37.970 265.260 37.510 C265.260 37.050 265.580 36.670 266.060 36.670 ZM266.420 37.330 C266.410 37.140 266.250 36.980 266.050 36.980 C265.840 36.980 265.670 37.130 265.650 37.330 L266.420 37.330 "/>
  <path style="fill:rgb(114,113,114);stroke:none;stroke-width:0.25;" d="M267.240 37.760 C267.240 37.760 267.120 37.610 267.120 37.370 C267.120 37.000 267.400 36.670 267.810 36.670 L268.510 36.670 C268.550 36.670 268.580 36.700 268.580 36.740 L268.580 36.840 C268.580 36.870 268.570 36.910 268.540 36.910 L268.320 36.970 C268.320 36.970 268.490 37.100 268.490 37.400 C268.490 37.740 268.230 38.050 267.810 38.050 C267.610 38.050 267.500 37.990 267.460 37.990 C267.440 37.990 267.300 38.060 267.300 38.180 C267.300 38.280 267.370 38.350 267.490 38.350 L268.040 38.350 C268.380 38.350 268.660 38.540 268.660 38.890 C268.660 39.240 268.340 39.550 267.810 39.550 C267.250 39.550 267.020 39.260 267.020 39.000 C267.020 38.760 267.210 38.650 267.260 38.620 L267.260 38.610 C267.170 38.590 266.960 38.480 266.960 38.210 C266.960 37.900 267.240 37.760 267.240 37.760 ZM267.810 39.220 C268.050 39.220 268.260 39.100 268.260 38.900 C268.260 38.840 268.220 38.680 267.960 38.680 C267.850 38.680 267.730 38.680 267.610 38.680 C267.590 38.690 267.390 38.760 267.390 38.940 C267.390 39.100 267.560 39.220 267.810 39.220 ZM268.150 37.380 C268.150 37.160 268.020 37.010 267.820 37.010 C267.610 37.010 267.460 37.160 267.460 37.380 C267.460 37.590 267.610 37.740 267.820 37.740 C268.020 37.740 268.150 37.590 268.150 37.380 "/>
  <path style="fill:rgb(114,113,114);stroke:none;stroke-width:0.25;" d="M269.580 36.670 C270.000 36.670 270.320 36.980 270.320 37.410 C270.320 37.440 270.320 37.490 270.310 37.520 C270.310 37.560 270.280 37.580 270.240 37.580 L269.150 37.580 C269.160 37.800 269.350 38.010 269.610 38.010 C269.760 38.010 269.890 37.950 269.970 37.900 C270.020 37.870 270.040 37.850 270.080 37.890 L270.190 38.040 C270.220 38.080 270.230 38.110 270.180 38.150 C270.060 38.250 269.860 38.350 269.590 38.350 C269.100 38.350 268.780 37.970 268.780 37.510 C268.780 37.050 269.100 36.670 269.580 36.670 ZM269.950 37.330 C269.940 37.140 269.780 36.980 269.580 36.980 C269.360 36.980 269.200 37.130 269.170 37.330 L269.950 37.330 "/>
  <path style="fill:rgb(114,113,114);stroke:none;stroke-width:0.25;" d="M272.150 36.670 C272.600 36.670 272.960 37.050 272.960 37.500 C272.960 37.960 272.600 38.350 272.150 38.350 C271.700 38.350 271.340 37.960 271.340 37.500 C271.340 37.050 271.700 36.670 272.150 36.670 ZM272.150 38.010 C272.400 38.010 272.600 37.780 272.600 37.500 C272.600 37.240 272.400 37.020 272.150 37.020 C271.900 37.020 271.700 37.240 271.700 37.500 C271.700 37.780 271.900 38.010 272.150 38.010 "/>
  <path style="fill:rgb(114,113,114);stroke:none;stroke-width:0.25;" d="M273.420 37.040 L273.230 37.040 C273.190 37.040 273.160 37.000 273.160 36.960 L273.160 36.780 C273.160 36.740 273.190 36.710 273.230 36.710 L273.420 36.710 L273.420 36.210 C273.420 35.710 273.720 35.470 274.100 35.470 C274.320 35.470 274.490 35.560 274.560 35.630 C274.590 35.650 274.590 35.690 274.580 35.720 L274.470 35.900 C274.450 35.940 274.410 35.940 274.370 35.910 C274.320 35.880 274.200 35.820 274.110 35.820 C273.930 35.820 273.810 35.940 273.810 36.210 L273.810 36.710 L274.240 36.710 C274.290 36.710 274.320 36.740 274.320 36.780 L274.320 36.960 C274.320 37.000 274.290 37.040 274.240 37.040 L273.810 37.040 L273.810 38.230 C273.810 38.270 273.770 38.310 273.730 38.310 L273.500 38.310 C273.460 38.310 273.420 38.270 273.420 38.230 L273.420 37.040 "/>
  <path style="fill:rgb(114,113,114);stroke:none;stroke-width:0.25;" d="M254.320 40.010 C254.320 39.970 254.360 39.940 254.400 39.940 L254.660 39.940 C254.700 39.940 254.740 39.970 254.740 40.010 L254.740 42.660 C254.740 42.700 254.700 42.740 254.660 42.740 L254.400 42.740 C254.360 42.740 254.320 42.700 254.320 42.660 L254.320 40.010 "/>
  <path style="fill:rgb(114,113,114);stroke:none;stroke-width:0.25;" d="M255.330 41.210 C255.330 41.170 255.370 41.140 255.400 41.140 L255.520 41.140 C255.550 41.140 255.580 41.160 255.590 41.180 L255.630 41.320 C255.660 41.290 255.870 41.100 256.190 41.100 C256.680 41.100 256.860 41.440 256.860 41.860 L256.860 42.660 C256.860 42.700 256.830 42.740 256.790 42.740 L256.560 42.740 C256.510 42.740 256.480 42.700 256.480 42.660 L256.480 41.840 C256.480 41.590 256.360 41.440 256.150 41.440 C255.900 41.440 255.720 41.630 255.710 41.680 L255.710 42.660 C255.710 42.710 255.680 42.740 255.610 42.740 L255.400 42.740 C255.370 42.740 255.330 42.700 255.330 42.660 L255.330 41.210 "/>
  <path style="fill:rgb(114,113,114);stroke:none;stroke-width:0.25;" d="M257.450 41.470 L257.280 41.470 C257.240 41.470 257.210 41.430 257.210 41.390 L257.210 41.210 C257.210 41.170 257.240 41.140 257.280 41.140 L257.450 41.140 L257.450 40.690 C257.450 40.650 257.490 40.620 257.530 40.620 L257.760 40.610 C257.800 40.610 257.830 40.650 257.830 40.690 L257.830 41.140 L258.240 41.140 C258.280 41.140 258.310 41.170 258.310 41.210 L258.310 41.390 C258.310 41.430 258.280 41.470 258.240 41.470 L257.830 41.470 L257.830 42.260 C257.830 42.400 257.880 42.420 257.960 42.420 C258.040 42.420 258.150 42.370 258.200 42.350 C258.250 42.330 258.280 42.350 258.290 42.390 L258.360 42.560 C258.380 42.600 258.370 42.640 258.330 42.660 C258.290 42.680 258.050 42.780 257.860 42.780 C257.540 42.780 257.450 42.590 257.450 42.300 L257.450 41.470 "/>
  <path style="fill:rgb(114,113,114);stroke:none;stroke-width:0.25;" d="M242.550 41.470 L242.380 41.470 C242.340 41.470 242.300 41.430 242.300 41.390 L242.300 41.210 C242.300 41.170 242.340 41.140 242.380 41.140 L242.550 41.140 L242.550 40.690 C242.550 40.650 242.580 40.620 242.620 40.620 L242.850 40.610 C242.890 40.610 242.930 40.650 242.930 40.690 L242.930 41.140 L243.330 41.140 C243.380 41.140 243.410 41.170 243.410 41.210 L243.410 41.390 C243.410 41.430 243.380 41.470 243.330 41.470 L242.930 41.470 L242.930 42.260 C242.930 42.400 242.980 42.420 243.050 42.420 C243.140 42.420 243.250 42.370 243.300 42.350 C243.350 42.330 243.370 42.350 243.390 42.390 L243.460 42.560 C243.480 42.600 243.460 42.640 243.420 42.660 C243.380 42.680 243.150 42.780 242.960 42.780 C242.640 42.780 242.550 42.590 242.550 42.300 L242.550 41.470 "/>
  <path style="fill:rgb(114,113,114);stroke:none;stroke-width:0.25;" d="M259.420 41.100 C259.830 41.100 260.150 41.410 260.150 41.840 C260.150 41.870 260.150 41.920 260.140 41.940 C260.140 41.990 260.110 42.010 260.070 42.010 L258.980 42.010 C259.000 42.230 259.180 42.440 259.440 42.440 C259.590 42.440 259.720 42.380 259.800 42.330 C259.850 42.300 259.880 42.280 259.910 42.320 L260.020 42.470 C260.050 42.510 260.060 42.540 260.010 42.580 C259.900 42.680 259.690 42.780 259.420 42.780 C258.940 42.780 258.610 42.400 258.610 41.940 C258.610 41.480 258.940 41.100 259.420 41.100 ZM259.780 41.760 C259.770 41.570 259.610 41.410 259.410 41.410 C259.200 41.410 259.030 41.560 259.000 41.760 L259.780 41.760 "/>
  <path style="fill:rgb(114,113,114);stroke:none;stroke-width:0.25;" d="M260.540 41.210 C260.540 41.170 260.570 41.140 260.610 41.140 L260.730 41.140 C260.760 41.140 260.790 41.160 260.800 41.190 L260.840 41.330 C260.870 41.290 261.020 41.100 261.310 41.100 C261.460 41.100 261.650 41.140 261.600 41.240 L261.510 41.440 C261.480 41.480 261.440 41.490 261.410 41.480 C261.380 41.460 261.320 41.450 261.270 41.450 C261.040 41.450 260.930 41.620 260.910 41.640 L260.910 42.660 C260.910 42.730 260.870 42.740 260.800 42.740 L260.610 42.740 C260.570 42.740 260.540 42.700 260.540 42.660 L260.540 41.210 "/>
  <path style="fill:rgb(114,113,114);stroke:none;stroke-width:0.25;" d="M261.880 41.210 C261.880 41.170 261.920 41.140 261.950 41.140 L262.070 41.140 C262.100 41.140 262.130 41.160 262.130 41.180 L262.180 41.320 C262.210 41.290 262.420 41.100 262.740 41.100 C263.230 41.100 263.410 41.440 263.410 41.860 L263.410 42.660 C263.410 42.700 263.380 42.740 263.340 42.740 L263.110 42.740 C263.060 42.740 263.030 42.700 263.030 42.660 L263.030 41.840 C263.030 41.590 262.910 41.440 262.700 41.440 C262.450 41.440 262.270 41.630 262.260 41.680 L262.260 42.660 C262.260 42.710 262.230 42.740 262.160 42.740 L261.950 42.740 C261.920 42.740 261.880 42.700 261.880 42.660 L261.880 41.210 "/>
  <path style="fill:rgb(114,113,114);stroke:none;stroke-width:0.25;" d="M264.430 41.720 C264.600 41.720 264.750 41.770 264.750 41.770 C264.760 41.520 264.710 41.420 264.500 41.420 C264.320 41.420 264.140 41.470 264.050 41.490 C264.010 41.510 263.980 41.470 263.970 41.430 L263.930 41.280 C263.920 41.230 263.950 41.200 263.990 41.190 C264.020 41.180 264.240 41.100 264.540 41.100 C265.050 41.100 265.100 41.410 265.100 41.810 L265.100 42.660 C265.100 42.700 265.060 42.740 265.020 42.740 L264.910 42.740 C264.880 42.740 264.860 42.720 264.840 42.680 L264.800 42.570 C264.710 42.660 264.560 42.780 264.310 42.780 C264.010 42.780 263.790 42.570 263.790 42.240 C263.790 41.950 264.030 41.720 264.430 41.720 ZM264.390 42.490 C264.550 42.490 264.700 42.370 264.750 42.290 L264.750 42.040 C264.720 42.020 264.610 41.970 264.470 41.970 C264.270 41.970 264.140 42.070 264.140 42.240 C264.140 42.380 264.240 42.490 264.390 42.490 "/>
  <path style="fill:rgb(114,113,114);stroke:none;stroke-width:0.25;" d="M265.600 40.010 C265.600 39.970 265.640 39.940 265.680 39.940 L265.910 39.940 C265.950 39.940 265.980 39.970 265.980 40.010 L265.980 42.660 C265.980 42.700 265.950 42.740 265.910 42.740 L265.680 42.740 C265.640 42.740 265.600 42.700 265.600 42.660 L265.600 40.010 "/>
  <path style="fill:rgb(114,113,114);stroke:none;stroke-width:0.25;" d="M267.810 39.960 C267.820 39.920 267.850 39.900 267.890 39.900 L267.950 39.900 C267.970 39.900 268.010 39.920 268.020 39.940 L268.850 41.980 L268.870 41.980 L269.700 39.940 C269.710 39.920 269.740 39.900 269.770 39.900 L269.830 39.900 C269.860 39.900 269.900 39.920 269.910 39.960 L270.400 42.640 C270.410 42.700 270.380 42.740 270.330 42.740 L270.070 42.740 C270.030 42.740 270.000 42.710 269.990 42.680 L269.690 40.890 C269.690 40.890 269.680 40.890 269.680 40.890 L268.960 42.730 C268.950 42.760 268.930 42.780 268.890 42.780 L268.820 42.780 C268.790 42.780 268.760 42.760 268.750 42.730 L268.030 40.890 C268.020 40.890 268.020 40.890 268.010 40.890 L267.730 42.680 C267.720 42.710 267.690 42.740 267.650 42.740 L267.390 42.740 C267.340 42.740 267.310 42.700 267.320 42.640 L267.810 39.960 "/>
  <path style="fill:rgb(114,113,114);stroke:none;stroke-width:0.25;" d="M271.500 41.100 C271.910 41.100 272.230 41.410 272.230 41.840 C272.230 41.870 272.230 41.920 272.230 41.940 C272.220 41.990 272.190 42.010 272.150 42.010 L271.060 42.010 C271.080 42.230 271.270 42.440 271.530 42.440 C271.670 42.440 271.800 42.380 271.880 42.330 C271.930 42.300 271.960 42.280 271.990 42.320 L272.100 42.470 C272.130 42.510 272.140 42.540 272.090 42.580 C271.980 42.680 271.770 42.780 271.500 42.780 C271.020 42.780 270.700 42.400 270.700 41.940 C270.700 41.480 271.020 41.100 271.500 41.100 ZM271.860 41.760 C271.850 41.570 271.690 41.410 271.490 41.410 C271.280 41.410 271.110 41.560 271.080 41.760 L271.860 41.760 "/>
  <path style="fill:rgb(114,113,114);stroke:none;stroke-width:0.25;" d="M273.290 41.100 C273.490 41.100 273.640 41.170 273.670 41.180 L273.670 40.010 C273.670 39.970 273.710 39.940 273.750 39.940 L273.980 39.940 C274.020 39.940 274.060 39.970 274.060 40.010 L274.060 42.660 C274.060 42.700 274.020 42.740 273.980 42.740 L273.860 42.740 C273.820 42.740 273.800 42.710 273.790 42.670 L273.760 42.550 C273.760 42.550 273.560 42.780 273.250 42.780 C272.820 42.780 272.500 42.400 272.500 41.940 C272.500 41.470 272.840 41.100 273.290 41.100 ZM273.300 42.430 C273.540 42.430 273.660 42.240 273.680 42.190 L273.680 41.540 C273.680 41.540 273.540 41.450 273.330 41.450 C273.060 41.450 272.870 41.670 272.870 41.940 C272.870 42.210 273.040 42.430 273.300 42.430 "/>
  <path style="fill:rgb(114,113,114);stroke:none;stroke-width:0.25;" d="M274.530 40.250 C274.530 40.120 274.630 40.020 274.760 40.020 C274.890 40.020 275.000 40.120 275.000 40.250 C275.000 40.380 274.890 40.480 274.760 40.480 C274.630 40.480 274.530 40.380 274.530 40.250 ZM274.580 41.210 C274.580 41.170 274.610 41.140 274.650 41.140 L274.880 41.140 C274.920 41.140 274.960 41.170 274.960 41.210 L274.960 42.660 C274.960 42.700 274.920 42.740 274.880 42.740 L274.650 42.740 C274.610 42.740 274.580 42.700 274.580 42.660 L274.580 41.210 "/>
  <path style="fill:rgb(114,113,114);stroke:none;stroke-width:0.25;" d="M276.200 41.100 C276.440 41.100 276.630 41.200 276.770 41.380 C276.800 41.420 276.800 41.460 276.760 41.490 L276.630 41.610 C276.580 41.660 276.550 41.630 276.520 41.600 C276.450 41.520 276.330 41.450 276.200 41.450 C275.940 41.450 275.740 41.670 275.740 41.940 C275.740 42.210 275.930 42.430 276.200 42.430 C276.400 42.430 276.490 42.330 276.570 42.250 C276.610 42.210 276.640 42.210 276.680 42.240 L276.780 42.330 C276.820 42.360 276.840 42.400 276.810 42.440 C276.680 42.650 276.470 42.780 276.190 42.780 C275.740 42.780 275.360 42.420 275.360 41.940 C275.360 41.470 275.750 41.100 276.200 41.100 "/>
  <path style="fill:rgb(114,113,114);stroke:none;stroke-width:0.25;" d="M277.170 40.250 C277.170 40.120 277.270 40.020 277.400 40.020 C277.530 40.020 277.630 40.120 277.630 40.250 C277.630 40.380 277.530 40.480 277.400 40.480 C277.270 40.480 277.170 40.380 277.170 40.250 ZM277.210 41.210 C277.210 41.170 277.250 41.140 277.290 41.140 L277.510 41.140 C277.550 41.140 277.590 41.170 277.590 41.210 L277.590 42.660 C277.590 42.700 277.550 42.740 277.510 42.740 L277.290 42.740 C277.250 42.740 277.210 42.700 277.210 42.660 L277.210 41.210 "/>
  <path style="fill:rgb(114,113,114);stroke:none;stroke-width:0.25;" d="M278.110 41.210 C278.110 41.170 278.150 41.140 278.190 41.140 L278.300 41.140 C278.340 41.140 278.360 41.160 278.370 41.180 L278.410 41.320 C278.440 41.290 278.650 41.100 278.970 41.100 C279.460 41.100 279.640 41.440 279.640 41.860 L279.640 42.660 C279.640 42.700 279.610 42.740 279.570 42.740 L279.340 42.740 C279.300 42.740 279.260 42.700 279.260 42.660 L279.260 41.840 C279.260 41.590 279.140 41.440 278.930 41.440 C278.680 41.440 278.500 41.630 278.490 41.680 L278.490 42.660 C278.490 42.710 278.460 42.740 278.390 42.740 L278.190 42.740 C278.150 42.740 278.110 42.700 278.110 42.660 L278.110 41.210 "/>
  <path style="fill:rgb(114,113,114);stroke:none;stroke-width:0.25;" d="M280.830 41.100 C281.240 41.100 281.560 41.410 281.560 41.840 C281.560 41.870 281.560 41.920 281.550 41.940 C281.550 41.990 281.520 42.010 281.480 42.010 L280.390 42.010 C280.410 42.230 280.590 42.440 280.850 42.440 C281.000 42.440 281.130 42.380 281.210 42.330 C281.260 42.300 281.290 42.280 281.320 42.320 L281.430 42.470 C281.460 42.510 281.470 42.540 281.420 42.580 C281.310 42.680 281.100 42.780 280.830 42.780 C280.350 42.780 280.020 42.400 280.020 41.940 C280.020 41.480 280.350 41.100 280.830 41.100 ZM281.190 41.760 C281.180 41.570 281.020 41.410 280.820 41.410 C280.610 41.410 280.440 41.560 280.410 41.760 L281.190 41.760 "/>
  <path style="fill:rgb(114,113,114);stroke:none;stroke-width:0.25;" d="M251.980 43.450 C251.970 43.350 251.990 43.260 252.020 43.180 M251.980 43.450 C252.000 43.350 252.010 43.260 252.020 43.180 M253.190 41.150 C253.300 41.130 253.410 41.130 253.510 41.150 M251.950 41.150 C252.040 41.110 252.150 41.110 252.290 41.150 M251.950 41.150 L252.290 41.150 L252.750 42.370 L252.760 42.370 L253.190 41.150 L253.510 41.150 C253.370 41.660 253.090 42.330 252.780 43.040 C252.670 43.310 252.570 43.490 252.250 43.490 C252.160 43.490 252.070 43.480 251.980 43.450 L252.020 43.180 C252.080 43.200 252.140 43.220 252.200 43.220 C252.380 43.220 252.440 43.110 252.500 42.960 L252.590 42.720 C252.340 42.180 252.120 41.660 251.950 41.150 "/>
  <path style="fill:rgb(114,113,114);stroke:none;stroke-width:0.25;" d="M249.790 41.720 C249.950 41.720 250.100 41.770 250.100 41.770 C250.110 41.520 250.060 41.420 249.850 41.420 C249.670 41.420 249.490 41.470 249.410 41.490 C249.360 41.510 249.330 41.470 249.320 41.430 L249.290 41.280 C249.270 41.230 249.300 41.200 249.340 41.190 C249.370 41.180 249.590 41.100 249.890 41.100 C250.400 41.100 250.450 41.410 250.450 41.810 L250.450 42.660 C250.450 42.700 250.410 42.740 250.370 42.740 L250.260 42.740 C250.230 42.740 250.210 42.720 250.190 42.680 L250.150 42.570 C250.070 42.660 249.910 42.780 249.660 42.780 C249.360 42.780 249.150 42.570 249.150 42.240 C249.150 41.950 249.380 41.720 249.790 41.720 ZM249.740 42.490 C249.900 42.490 250.050 42.370 250.100 42.290 L250.100 42.040 C250.070 42.020 249.960 41.970 249.820 41.970 C249.630 41.970 249.500 42.070 249.500 42.240 C249.500 42.380 249.590 42.490 249.740 42.490 "/>
  <path style="fill:rgb(114,113,114);stroke:none;stroke-width:0.25;" d="M241.390 41.100 C241.800 41.100 242.120 41.410 242.120 41.840 C242.120 41.870 242.120 41.920 242.120 41.940 C242.110 41.990 242.080 42.010 242.040 42.010 L240.950 42.010 C240.970 42.230 241.150 42.440 241.410 42.440 C241.560 42.440 241.690 42.380 241.770 42.330 C241.820 42.300 241.850 42.280 241.880 42.320 L241.990 42.470 C242.020 42.510 242.030 42.540 241.980 42.580 C241.870 42.680 241.660 42.780 241.390 42.780 C240.910 42.780 240.590 42.400 240.590 41.940 C240.590 41.480 240.910 41.100 241.390 41.100 ZM241.750 41.760 C241.740 41.570 241.580 41.410 241.380 41.410 C241.170 41.410 241.000 41.560 240.970 41.760 L241.750 41.760 "/>
  <path style="fill:rgb(114,113,114);stroke:none;stroke-width:0.25;" d="M244.370 41.100 C244.780 41.100 245.100 41.410 245.100 41.840 C245.100 41.870 245.100 41.920 245.090 41.940 C245.090 41.990 245.060 42.010 245.020 42.010 L243.930 42.010 C243.940 42.230 244.130 42.440 244.390 42.440 C244.540 42.440 244.670 42.380 244.750 42.330 C244.800 42.300 244.820 42.280 244.860 42.320 L244.970 42.470 C245.000 42.510 245.010 42.540 244.960 42.580 C244.850 42.680 244.640 42.780 244.370 42.780 C243.880 42.780 243.570 42.400 243.570 41.940 C243.570 41.480 243.880 41.100 244.370 41.100 ZM244.730 41.760 C244.720 41.570 244.560 41.410 244.360 41.410 C244.150 41.410 243.980 41.560 243.950 41.760 L244.730 41.760 "/>
  <path style="fill:rgb(114,113,114);stroke:none;stroke-width:0.25;" d="M245.400 41.210 C245.400 41.170 245.430 41.140 245.470 41.140 L245.590 41.140 C245.620 41.140 245.650 41.160 245.650 41.190 L245.700 41.330 C245.730 41.290 245.880 41.100 246.170 41.100 C246.320 41.100 246.500 41.140 246.460 41.240 L246.360 41.440 C246.340 41.480 246.300 41.490 246.270 41.480 C246.240 41.460 246.180 41.450 246.130 41.450 C245.900 41.450 245.790 41.620 245.770 41.640 L245.770 42.660 C245.770 42.730 245.730 42.740 245.660 42.740 L245.470 42.740 C245.430 42.740 245.400 42.700 245.400 42.660 L245.400 41.210 "/>
  <path style="fill:rgb(114,113,114);stroke:none;stroke-width:0.25;" d="M246.640 40.250 C246.640 40.120 246.740 40.020 246.870 40.020 C247.000 40.020 247.100 40.120 247.100 40.250 C247.100 40.380 247.000 40.480 246.870 40.480 C246.740 40.480 246.640 40.380 246.640 40.250 ZM246.680 41.210 C246.680 41.170 246.720 41.140 246.760 41.140 L246.990 41.140 C247.030 41.140 247.060 41.170 247.060 41.210 L247.060 42.660 C247.060 42.700 247.030 42.740 246.990 42.740 L246.760 42.740 C246.720 42.740 246.680 42.700 246.680 42.660 L246.680 41.210 "/>
  <path style="fill:rgb(114,113,114);stroke:none;stroke-width:0.25;" d="M247.340 41.210 C247.340 41.170 247.380 41.140 247.420 41.140 L247.540 41.140 C247.570 41.140 247.590 41.160 247.600 41.180 L247.650 41.320 C247.680 41.290 247.890 41.100 248.210 41.100 C248.700 41.100 248.880 41.440 248.880 41.860 L248.880 42.660 C248.880 42.700 248.840 42.740 248.800 42.740 L248.570 42.740 C248.530 42.740 248.500 42.700 248.500 42.660 L248.500 41.840 C248.500 41.590 248.370 41.440 248.160 41.440 C247.910 41.440 247.740 41.630 247.720 41.680 L247.720 42.660 C247.720 42.710 247.700 42.740 247.630 42.740 L247.420 42.740 C247.380 42.740 247.340 42.700 247.340 42.660 L247.340 41.210 "/>
  <path style="fill:rgb(114,113,114);stroke:none;stroke-width:0.25;" d="M250.730 41.210 C250.730 41.170 250.770 41.140 250.810 41.140 L250.920 41.140 C250.950 41.140 250.980 41.160 250.990 41.190 L251.040 41.330 C251.070 41.290 251.210 41.100 251.510 41.100 C251.660 41.100 251.840 41.140 251.790 41.240 L251.700 41.440 C251.680 41.480 251.640 41.490 251.600 41.480 C251.580 41.460 251.520 41.450 251.470 41.450 C251.240 41.450 251.120 41.620 251.110 41.640 L251.110 42.660 C251.110 42.730 251.070 42.740 251.000 42.740 L250.810 42.740 C250.770 42.740 250.730 42.700 250.730 42.660 L250.730 41.210 "/>
  <path style="fill:rgb(114,113,114);stroke:none;stroke-width:0.25;" d="M240.780 40.090 L239.550 42.780 C239.540 42.810 239.500 42.830 239.480 42.830 L239.440 42.830 C239.420 42.830 239.390 42.810 239.380 42.780 L238.150 40.090 C238.130 40.040 238.160 39.990 238.220 39.990 L238.480 39.990 C238.520 39.990 238.550 40.010 238.570 40.050 L239.470 42.180 L240.120 40.600 C240.200 40.410 240.290 40.230 240.370 40.050 C240.380 40.020 240.410 39.990 240.460 39.990 L240.710 39.990 C240.770 39.990 240.800 40.040 240.780 40.090 "/>
 </g>
</svg>
