<?xml version="1.0" encoding="UTF-8"?>
<svg height="785.62" width="564.1106000000001" xmlns="http://www.w3.org/2000/svg">
 <g id="page" xmlns:svgx="http://www.xml-cml.org/schema/svgx">
  <g begin="text">
   <text y="49.08" x="55.14,61.13,68.613,75.097,77.619,83.609,88.599,93.59,95.628,97.613,102.099,104.561,111.099,116.09,121.08,123.065,125.553" svgx:width="0.67,0.83,0.72,0.28,0.67,0.56,0.56,0.22,0.22,0.5,0.28,0.72,0.56,0.56,0.22,0.28,0.56" style="fill:rgb(0,0,0);font-family:Arial,Italic;font-size:9.0px;stroke:none;">BMC Public Health</text>
   <text y="49.08" x="130.56,133.021,138.005,143.043,148.026,153.01,155.491" svgx:width="0.28,0.56,0.56,0.56,0.56,0.28,0.28" style="fill:rgb(0,0,0);font-family:Arial;font-size:9.0px;stroke:none;"> 2007, </text>
   <text y="49.08" x="158.04" svgx:width="0.56" style="fill:rgb(0,0,0);font-family:Arial,Bold;font-size:9.0px;stroke:none;">7</text>
   <text y="49.08" x="163.019,165.511,170.549,175.542,180.582,363.221,368.259,370.721,373.212,378.205,380.696,383.187,385.679,392.166,398.653,405.14,407.631,412.625,414.663,419.656,427.143,432.136,437.129,441.618,446.611,451.679,454.166,457.147,462.186,464.164,466.651,471.135,476.174,483.614,486.1,491.089,496.127,501.116,506.105,509.087,514.075,519.114,524.103,529.092,531.578,536.567,539.054,544.043,549.031" svgx:width="0.28,0.56,0.56,0.56,0.55,0.56,0.28,0.28,0.56,0.28,0.28,0.28,0.72,0.72,0.72,0.28,0.56,0.22,0.56,0.83,0.56,0.56,0.5,0.56,0.56,0.28,0.33,0.56,0.22,0.28,0.5,0.56,0.83,0.28,0.56,0.56,0.56,0.56,0.33,0.56,0.56,0.56,0.56,0.28,0.56,0.28,0.56,0.56,0.56" style="fill:rgb(0,0,0);font-family:Arial;font-size:9.0px;stroke:none;">:208 http://www.biomedcentral.com/1471-2458/7/208</text>
   <text y="764.64" x="508.079,514.053,519.091,524.065,529.04,531.561,536.536,539.057,544.032,546.504,548.966" svgx:width="0.67,0.56,0.56,0.56,0.28,0.56,0.28,0.56,0.28,0.28,0.56" style="fill:rgb(0,0,0);font-family:Arial;font-size:9.0px;stroke:none;">Page 7 of 9</text>
   <text y="775.62" x="431.7,434.048,437.947,441.847,445.686,449.586,451.567,455.406,459.305,465.132,469.032,472.932,475.212,477.193,481.092,484.931,486.896,488.817,490.782,494.621,496.969,498.89,502.4,503.975,505.896,509.795,511.716,513.275,517.174,521.013,522.994,526.894,530.733,533.081,536.98,540.88,544.39,548.29,551.799" svgx:width="0.33,0.56,0.56,0.56,0.56,0.28,0.56,0.56,0.83,0.56,0.56,0.33,0.28,0.56,0.56,0.28,0.28,0.28,0.56,0.33,0.28,0.5,0.22,0.28,0.56,0.28,0.22,0.56,0.56,0.28,0.56,0.56,0.33,0.56,0.56,0.5,0.56,0.5,0.33" style="fill:rgb(0,0,0);font-family:Arial,Italic;font-size:6.96px;stroke:none;">(page number not for citation purposes)</text>
   <text y="93.54" x="55.14,61.86,67.441,73.205,76.986,79.863,83.644,86.706,91.206,97.026,100.086,102.846,110.048,112.925,115.987,121.751,124.511,127.631,133.391,137.891,140.651,143.528,146.405,149.467,153.967,157.389,162.064,165.184,170.763,174.185,178.685,181.203,183.962,187.024,192.788,197.288,200.108,204.608,209.109,214.688,219.188,222.61,225.672,229.453,232.212,236.412,241.992,247.756,250.818,255.319,261.083,266.722,271.222,276.802,279.561,282.623,288.387,293.062" svgx:width="0.69,0.57,0.59,0.39,0.3,0.39,0.31,0.46,0.59,0.31,0.26,0.74,0.3,0.31,0.59,0.26,0.31,0.59,0.46,0.26,0.3,0.3,0.31,0.46,0.35,0.48,0.31,0.57,0.35,0.46,0.26,0.26,0.31,0.59,0.46,0.26,0.46,0.46,0.57,0.46,0.35,0.31,0.39,0.26,0.43,0.57,0.59,0.31,0.46,0.59,0.57,0.46,0.57,0.26,0.31,0.59,0.48,0.31" style="fill:rgb(0,0,0);font-family:Giovanni-Book;font-size:9.72px;stroke:none;">Consistent with the literature, the experts contended that</text>
   <text y="105.24" x="55.14,62.4,65.28,70.86,75.361,79.144,84.724,88.146,92.648,97.324,102.963,105.49019999999999,107.523,112.199,117.964,123.545,126.0722,128.164,131.946,137.527,141.309,144.372,149.048,151.926,157.746,162.247,167.827,170.3542,172.387,176.169,180.369,183.791,188.292,192.794,198.559,201.437,207.202,211.878,214.40519999999998,216.498,222.078,225.141,227.66819999999998,229.701,232.821,236.241,240.917,245.594,250.095,252.973,257.474,260.897,264.679,267.20619999999997,269.299,276.502,282.083,287.663,290.541" svgx:width="0.74,0.3,0.57,0.46,0.39,0.57,0.35,0.46,0.48,0.57,0.26,0.55,0.48,0.59,0.57,0.26,0.55,0.39,0.57,0.39,0.31,0.48,0.3,0.59,0.46,0.57,0.26,0.55,0.39,0.43,0.35,0.46,0.46,0.59,0.3,0.59,0.48,0.26,0.55,0.57,0.31,0.26,0.55,0.31,0.35,0.48,0.48,0.46,0.3,0.46,0.35,0.39,0.26,0.55,0.74,0.57,0.57,0.3,0.57" style="fill:rgb(0,0,0);font-family:Giovanni-Book;font-size:9.72px;stroke:none;">widespread and sustained screening of travelers would</text>
   <text y="117.0" x="55.14,60.78,63.66,66.722,69.6,78.243,82.919,85.982,90.483,93.361,98.037,100.377,105.957,110.458,112.798,115.676,124.318,129.898,133.321,137.997,142.139,145.259,148.139,152.281,156.957,159.835,162.115,166.792,172.612,178.192,180.473,183.351,189.171,193.672,196.735,199.798,202.676,206.818,209.696,214.197,219.962,223.025,225.364,230.041,233.823,236.162,239.04,244.621,250.386,255.062,257.402,262.078,265.86,268.14,273.78,278.28,281.343,285.844,289.986,293.049" svgx:width="0.57,0.3,0.31,0.3,0.89,0.48,0.31,0.46,0.3,0.48,0.26,0.57,0.46,0.26,0.3,0.89,0.57,0.35,0.48,0.43,0.31,0.3,0.43,0.48,0.3,0.26,0.48,0.59,0.57,0.26,0.3,0.59,0.46,0.31,0.31,0.3,0.43,0.3,0.46,0.59,0.31,0.26,0.48,0.39,0.26,0.3,0.57,0.59,0.48,0.26,0.48,0.39,0.26,0.57,0.46,0.31,0.46,0.43,0.31,0.31" style="fill:rgb(0,0,0);font-family:Giovanni-Book;font-size:9.72px;stroke:none;">ultimately be impractical and inefficient as long as detect-</text>
   <text y="128.76" x="55.14,58.018,63.838,68.515,71.0422,73.135,77.811,81.593,86.269,94.911,100.492,103.554,109.135,117.835,122.511,125.574,128.452,132.594,135.1212,137.214,140.996,146.761,151.262,156.902,162.482,165.36,171.125,175.801,178.32819999999998,180.421,183.299,187.081,189.60819999999998,191.701,197.466,203.046,206.166,208.6932,210.726,213.846,218.347,223.023,226.805,229.683,235.263,238.141,242.643,245.161,247.6882,249.781,257.344,260.222,263.342,266.402,269.28,273.422,279.002,281.88,284.943,287.821,292.323" svgx:width="0.3,0.59,0.48,0.26,0.55,0.48,0.39,0.48,0.89,0.57,0.31,0.57,0.89,0.48,0.31,0.3,0.43,0.26,0.55,0.39,0.59,0.46,0.57,0.57,0.3,0.59,0.48,0.26,0.55,0.3,0.39,0.26,0.55,0.59,0.57,0.31,0.26,0.55,0.31,0.46,0.48,0.39,0.3,0.57,0.3,0.46,0.26,0.26,0.55,0.78,0.3,0.31,0.31,0.3,0.43,0.57,0.3,0.31,0.3,0.46,0.39" style="fill:rgb(0,0,0);font-family:Giovanni-Book;font-size:9.72px;stroke:none;">ing asymptomatic shedding is not feasible. Difficulties</text>
   <text y="140.521" x="55.14,62.4,65.28,68.342,74.106,76.63319999999999,78.005,81.067,86.887,91.388,93.9152,95.287,98.709,103.384,108.964,111.841,117.42,119.9472,121.38,126.959,129.836,134.512,139.187,144.951,150.53,154.311,157.188,160.969,163.4962,164.929,170.509,173.57,176.0972,177.47,180.347,186.111,189.173,192.05,197.69,202.19,207.954,212.454,217.13,219.6572,221.029,229.67,234.23,238.905,244.669,248.45,250.97719999999998,252.35,255.412,261.232,265.908,268.969,271.4962,272.869,275.931,279.352,284.028,288.703,293.203" svgx:width="0.74,0.3,0.31,0.59,0.26,0.55,0.31,0.59,0.46,0.26,0.55,0.35,0.48,0.57,0.3,0.57,0.26,0.55,0.57,0.3,0.48,0.48,0.59,0.57,0.39,0.3,0.39,0.26,0.55,0.57,0.31,0.26,0.55,0.3,0.59,0.31,0.3,0.57,0.46,0.59,0.46,0.48,0.26,0.55,0.89,0.46,0.48,0.59,0.39,0.26,0.55,0.31,0.59,0.48,0.31,0.26,0.55,0.31,0.35,0.48,0.48,0.46,0.3" style="fill:rgb(0,0,0);font-family:Giovanni-Book;font-size:9.72px;stroke:none;">with the rapid diagnosis of influenza means that travel</text>
   <text y="152.281" x="55.14,60.78,65.46,71.225,75.007,77.5342,81.546,86.223,92.043,97.623,100.1502,104.163,107.945,112.087,115.509,120.01,124.57,130.33,133.208,138.973,143.649,146.1762,150.189,155.769,159.249,164.829,169.505,172.928,177.604,186.246,190.028,192.55519999999999,196.628,200.051,202.929,206.711,211.756,214.2832,218.296,223.936,228.436,231.499,236.175,239.053,244.818,247.696,253.461,258.137,260.6642,264.737,269.414,271.9412,275.953,278.831,283.508,286.93,291.606" svgx:width="0.57,0.48,0.59,0.39,0.26,0.55,0.48,0.59,0.57,0.26,0.55,0.39,0.43,0.35,0.46,0.46,0.59,0.3,0.59,0.48,0.26,0.55,0.57,0.35,0.57,0.48,0.35,0.48,0.89,0.39,0.26,0.55,0.35,0.3,0.39,0.52,0.26,0.55,0.57,0.46,0.31,0.48,0.3,0.59,0.3,0.59,0.48,0.26,0.55,0.48,0.26,0.55,0.3,0.48,0.35,0.48,0.46" style="fill:rgb(0,0,0);font-family:Giovanni-Book;font-size:9.72px;stroke:none;">bans and screening programs risk detaining a large</text>
   <text y="164.041" x="55.14,60.96,66.541,75.182,80.761,85.261,88.683,91.743,97.322,100.442,103.442,107.282,111.962,120.603,126.183,129.244,134.824,143.465,148.14,151.26,154.14,158.281,161.341,166.92,171.42,174.842,178.623,184.202,189.966,193.807,196.806,204.066,209.826,215.405,218.465,224.044,229.624,232.684,238.448,244.027,247.147,250.147,255.967,260.642,265.318,269.818,272.878,275.755,281.519,284.581,287.458,293.037" svgx:width="0.59,0.57,0.89,0.57,0.46,0.35,0.26,0.57,0.31,0.26,0.39,0.48,0.89,0.57,0.31,0.57,0.89,0.48,0.31,0.3,0.43,0.26,0.57,0.46,0.35,0.39,0.57,0.59,0.39,0.26,0.74,0.59,0.57,0.26,0.57,0.57,0.26,0.59,0.57,0.31,0.26,0.59,0.48,0.48,0.46,0.26,0.3,0.59,0.31,0.3,0.57,0.31" style="fill:rgb(0,0,0);font-family:Giovanni-Book;font-size:9.72px;stroke:none;">number of symptomatic persons who do not have influ-</text>
   <text y="175.741" x="55.14,59.7,65.46,69.961,74.637,77.156,79.076,84.296,90.061,94.562,97.985,102.486,104.406,107.284,111.066,112.986,117.662,120.54,124.322,129.902,131.822,134.885,140.65,145.151,147.071,152.651,158.231,162.013,165.795,168.673,174.254,177.132,180.01,182.888,185.951,190.627,192.547,198.127,201.19,203.109,206.892,212.472,216.613,222.378,224.298,232.94,237.442,242.118,245.958,251.538,254.961,259.462,263.244,265.164,268.042,272.543,277.22,282.8,285.678,291.443" svgx:width="0.46,0.59,0.46,0.48,0.26,0.26,0.54,0.59,0.46,0.35,0.46,0.26,0.3,0.39,0.26,0.48,0.3,0.39,0.57,0.26,0.31,0.59,0.46,0.26,0.57,0.57,0.39,0.39,0.3,0.57,0.3,0.3,0.3,0.31,0.48,0.26,0.57,0.31,0.26,0.39,0.57,0.43,0.59,0.26,0.89,0.46,0.48,0.39,0.57,0.35,0.46,0.39,0.26,0.3,0.46,0.48,0.57,0.3,0.59,0.48" style="fill:rgb(0,0,0);font-family:Giovanni-Book;font-size:9.72px;stroke:none;">enza. There is also the possibility of such measures leading</text>
   <text y="187.501" x="55.14,58.26,63.84,66.72,71.397,77.217,80.097,83.037,88.797,91.86,96.362,99.784,105.549,110.225,113.288,116.166,121.806,127.571,132.247,135.125,138.065,143.645,148.322,152.463,157.509,160.387,165.063,168.846,174.666,177.184,180.064,185.704,190.204,194.346,197.768,202.27,206.946,210.728,213.606,219.371,224.047,226.988,231.129,236.769,242.349,247.929,252.431,255.853,260.529,263.592,266.47,272.051,277.871,280.751,285.427,288.547,291.427" svgx:width="0.31,0.57,0.26,0.48,0.59,0.26,0.3,0.59,0.31,0.46,0.35,0.59,0.48,0.31,0.3,0.57,0.59,0.48,0.3,0.26,0.57,0.48,0.43,0.52,0.3,0.48,0.39,0.59,0.26,0.26,0.57,0.46,0.43,0.35,0.46,0.48,0.39,0.3,0.59,0.48,0.26,0.43,0.57,0.57,0.57,0.46,0.35,0.48,0.31,0.3,0.57,0.59,0.26,0.48,0.31,0.26,0.48" style="fill:rgb(0,0,0);font-family:Giovanni-Book;font-size:9.72px;stroke:none;">to an international backlash, decreasing cooperation at a</text>
   <text y="199.262" x="55.14,58.26,61.14,69.781,74.282,76.322,83.524,89.345,93.845,99.609,101.649,104.526,110.29,114.431,117.911,122.411,127.086,130.868,135.368,140.947,142.987,145.865,149.646,151.745,157.509,162.009,166.51,172.089,176.589,182.169,184.686,186.786,194.523,200.102,207.305,211.805,216.48,220.981,224.402,226.982,229.022,233.697,239.277,242.154,247.733,253.497,256.559,261.234,264.656,269.396,271.436,280.077,284.578,289.253,293.034" svgx:width="0.31,0.3,0.89,0.46,0.26,0.74,0.59,0.46,0.59,0.26,0.3,0.59,0.43,0.35,0.46,0.48,0.39,0.46,0.57,0.26,0.3,0.39,0.26,0.59,0.46,0.46,0.57,0.46,0.57,0.26,0.26,0.8,0.57,0.74,0.46,0.48,0.46,0.35,0.26,0.26,0.48,0.57,0.3,0.57,0.59,0.31,0.48,0.35,0.48,0.26,0.89,0.46,0.48,0.39,0.31" style="fill:rgb(0,0,0);font-family:Giovanni-Book;font-size:9.72px;stroke:none;">time when increased is needed. However, voluntary meas-</text>
   <text y="211.022" x="55.14,60.78,64.2,68.701,72.483,75.303,79.979,85.744,91.384,94.204,98.88,104.46,107.338,112.919,117.42,120.298,123.176,128.941,133.501,137.281,140.101,147.304,152.884,158.465,161.343,166.982,169.802,172.68,175.558,180.604,185.105,187.983,192.66,195.479,201.119,205.619,208.439,217.081,222.661,226.084,230.643,233.463,238.139,242.281,246.423,250.924,256.504,259.567,264.243,269.883,272.761,277.262,280.082,284.759,290.523" svgx:width="0.57,0.35,0.46,0.39,0.26,0.48,0.59,0.57,0.26,0.48,0.57,0.3,0.57,0.46,0.3,0.3,0.59,0.46,0.39,0.26,0.74,0.57,0.57,0.3,0.57,0.26,0.3,0.3,0.52,0.46,0.3,0.48,0.26,0.57,0.46,0.26,0.89,0.57,0.35,0.46,0.26,0.48,0.43,0.43,0.46,0.57,0.31,0.48,0.57,0.3,0.46,0.26,0.48,0.59,0.57" style="fill:rgb(0,0,0);font-family:Giovanni-Book;font-size:9.72px;stroke:none;">ures and guidelines would likely be more acceptable and</text>
   <text y="222.782" x="55.14,58.26,64.02,69.599,73.381,75.9082,78.061,86.761,92.341,95.763,100.263,102.7902,104.943,109.444,112.564,115.626,120.126,124.267,127.328,130.206,134.881,139.381,141.899,144.4262,146.639,151.859,157.623,162.123,164.65019999999998,166.803,171.363,175.863,181.443,185.943,189.364,192.426,196.207,198.7342,200.948,204.369,208.87,213.01,218.59,227.231,235.931,240.431,246.195,251.775,256.275,261.854,264.3812,266.595,271.27,275.945,280.621,283.498,289.262,293.043" svgx:width="0.31,0.59,0.57,0.39,0.26,0.55,0.89,0.57,0.35,0.46,0.26,0.55,0.46,0.31,0.31,0.46,0.43,0.31,0.3,0.48,0.46,0.26,0.26,0.55,0.54,0.59,0.46,0.26,0.55,0.46,0.46,0.57,0.46,0.35,0.31,0.39,0.26,0.55,0.35,0.46,0.43,0.57,0.89,0.89,0.46,0.59,0.57,0.46,0.57,0.26,0.55,0.48,0.48,0.48,0.3,0.59,0.39,0.31" style="fill:rgb(0,0,0);font-family:Giovanni-Book;font-size:9.72px;stroke:none;">thus more effective. The experts recommended against</text>
   <text y="234.542" x="55.14,59.816,65.637,70.313,73.193,81.835,86.511,92.332,97.912,102.588,105.651,111.231,114.654,119.33,122.27,125.333,128.755,133.432,138.108,142.609,145.487,148.367,151.79,156.349,160.132,163.194,166.617,169.495,173.637,176.699,179.577,185.158,190.978,194.758,197.638,200.516,206.281,209.221,212.284,218.049,222.551,225.431,230.107,235.746,240.423,245.099,250.864,255.006,259.507,265.087,268.027,273.608,279.373,284.049,287.831,292.332" svgx:width="0.48,0.59,0.48,0.26,0.89,0.48,0.59,0.57,0.48,0.31,0.57,0.35,0.48,0.26,0.31,0.35,0.48,0.48,0.46,0.3,0.26,0.35,0.46,0.39,0.31,0.35,0.3,0.43,0.31,0.3,0.57,0.59,0.39,0.26,0.3,0.59,0.26,0.31,0.59,0.46,0.26,0.48,0.57,0.48,0.48,0.59,0.43,0.46,0.57,0.26,0.57,0.59,0.48,0.39,0.46,0.39" style="fill:rgb(0,0,0);font-family:Giovanni-Book;font-size:9.72px;stroke:none;">any mandatory travel restrictions in the advanced phases</text>
   <text y="246.242" x="55.14,60.78,63.839,66.36619999999999,67.92,72.595,75.12219999999999,76.676,82.255,86.93,92.694,98.334,102.834,111.475,114.352,118.493,121.02019999999999,122.573,127.249,133.013,138.652,141.17919999999998,142.733,148.312,151.189,156.768,159.2952,160.849,166.613,172.252,175.314,177.8412,179.395,182.816,187.316,191.457,197.036,205.737,214.377,218.877,224.641,230.221,232.7482,234.301,237.781,242.281,246.062,249.124,252.546,255.423,259.563,262.625,265.502,271.082,276.902,280.682,283.2092,284.762,290.342" svgx:width="0.57,0.31,0.26,0.55,0.48,0.26,0.55,0.57,0.48,0.59,0.57,0.46,0.89,0.3,0.43,0.26,0.55,0.48,0.59,0.57,0.26,0.55,0.57,0.3,0.57,0.26,0.55,0.59,0.57,0.31,0.26,0.55,0.35,0.46,0.43,0.57,0.89,0.89,0.46,0.59,0.57,0.26,0.55,0.35,0.46,0.39,0.31,0.35,0.3,0.43,0.31,0.3,0.57,0.59,0.39,0.26,0.55,0.57,0.59" style="fill:rgb(0,0,0);font-family:Giovanni-Book;font-size:9.72px;stroke:none;">of a pandemic and did not recommend restrictions on</text>
   <text y="258.003" x="55.14,60.78,66.36,75.001,79.501,83.282,86.344,89.221,93.362,95.88919999999999,97.502,103.081,106.502,109.02919999999999,110.583,113.46,119.28,122.342,126.842,130.264,136.028,140.703,143.765,146.642,152.282,158.046,162.721,165.598,168.1252,169.679,175.258,179.758,185.398,190.078,193.499,196.561,202.14,205.562,210.062,213.843,216.37019999999998,217.983,223.562,226.984,229.5112,231.064,235.565,241.385,244.447,247.868,252.544,255.0712,256.624,260.405,264.546,268.026,272.526,277.026,282.79,285.667,291.431" svgx:width="0.57,0.57,0.89,0.46,0.39,0.31,0.3,0.43,0.26,0.55,0.57,0.35,0.26,0.55,0.3,0.59,0.31,0.46,0.35,0.59,0.48,0.31,0.3,0.57,0.59,0.48,0.3,0.26,0.55,0.57,0.46,0.57,0.48,0.35,0.31,0.57,0.35,0.46,0.39,0.26,0.55,0.57,0.35,0.26,0.55,0.46,0.59,0.31,0.35,0.48,0.26,0.55,0.39,0.43,0.35,0.46,0.46,0.59,0.3,0.59,0.48" style="fill:rgb(0,0,0);font-family:Giovanni-Book;font-size:9.72px;stroke:none;">domestic or international departures or entry screening</text>
   <text y="269.763" x="55.14,62.4,68.16,72.661,78.426,80.947,85.623,88.143,93.724,98.4,104.22,109.8,114.302,122.944,125.822,129.964,132.484,135.362,139.202,141.723,144.601,150.366,152.886,155.949,161.714,166.215,168.736,173.237,177.978,181.4,184.278,188.954,191.475,194.353,199.933,204.075,208.751,211.629,214.507,219.009,223.51,229.09,231.67,237.25,243.015,247.691,251.473,255.975" svgx:width="0.74,0.59,0.46,0.59,0.26,0.48,0.26,0.57,0.48,0.59,0.57,0.46,0.89,0.3,0.43,0.26,0.3,0.39,0.26,0.3,0.59,0.26,0.31,0.59,0.46,0.26,0.46,0.48,0.35,0.3,0.48,0.26,0.3,0.57,0.43,0.48,0.3,0.3,0.46,0.46,0.57,0.26,0.57,0.59,0.48,0.39,0.46,0.26" style="fill:rgb(0,0,0);font-family:Giovanni-Book;font-size:9.72px;stroke:none;">when a pandemic is in the early localized phase.</text>
   <text y="293.94" x="55.14,63.77,66.696,71.298,76.684,82.962,87.564,92.166,95.047,101.442" svgx:width="0.8,0.27,0.43,0.5,0.58,0.43,0.43,0.27,0.59,0.58" style="fill:rgb(0,0,0);font-family:GillSans-Bold;font-size:10.74px;stroke:none;">Discussion</text>
   <text y="305.04" x="55.14,64.2,68.7,71.2272,72.42,76.922,81.598,86.274,89.152,94.732,99.409,102.529,107.029,112.61,115.13719999999999,116.329,119.392,125.157,129.717,132.2442,133.437,137.938,142.614,145.492,151.073,155.574,161.339,165.539,170.039,173.102,178.682,183.358,187.141,191.642,194.1692,195.422,198.485,204.065,207.487,210.0142,211.207,216.972,222.552,228.373,231.433,237.013,242.778,247.454,250.876,259.577,264.257,268.399,272.9,278.48,281.543,284.421,288.563,293.239" svgx:width="0.93,0.46,0.26,0.55,0.46,0.48,0.48,0.3,0.57,0.48,0.31,0.46,0.57,0.26,0.55,0.31,0.59,0.46,0.26,0.55,0.46,0.48,0.3,0.57,0.46,0.59,0.43,0.46,0.31,0.57,0.48,0.39,0.46,0.26,0.55,0.31,0.57,0.35,0.26,0.55,0.59,0.57,0.59,0.31,0.57,0.59,0.48,0.35,0.89,0.48,0.43,0.46,0.57,0.31,0.3,0.43,0.48,0.3" style="fill:rgb(0,0,0);font-family:Giovanni-Book;font-size:9.72px;stroke:none;">We evaluated the evidence-base for non-pharmaceutical</text>
   <text y="316.8" x="55.14,60.78,66.36,71.94,74.818,77.696,81.838,84.838,90.602,95.104,99.78,102.658,105.778,111.538,114.538,117.416,123.181,126.244,130.745,134.167,138.844,143.403,149.163,152.226,155.104,160.685,166.45,170.232,173.231,176.109,181.93,184.929,189.605,195.37,198.37,201.248,207.013,210.076,212.954,218.593,223.094,228.859,233.36,238.036,241.036,246.616,251.292,257.057,262.697,267.198,275.84,278.718,282.86,285.86,291.44" svgx:width="0.57,0.57,0.57,0.3,0.3,0.43,0.26,0.59,0.46,0.48,0.3,0.31,0.59,0.26,0.3,0.59,0.31,0.46,0.35,0.48,0.46,0.59,0.31,0.3,0.57,0.59,0.39,0.26,0.3,0.59,0.26,0.48,0.59,0.26,0.3,0.59,0.31,0.3,0.57,0.46,0.59,0.46,0.48,0.26,0.57,0.48,0.59,0.57,0.46,0.89,0.3,0.43,0.26,0.57,0.48" style="fill:rgb(0,0,0);font-family:Giovanni-Book;font-size:9.72px;stroke:none;">public health interventions in an influenza pandemic by</text>
   <text y="328.5" x="55.14,58.62,63.12,67.796,70.674,75.176,82.379,85.257,91.022,95.699,98.22619999999999,101.639,104.701,110.466,114.968,117.4952,120.907,124.33,128.831,132.973,137.474,143.239,146.302,148.8292,152.242,156.024,160.166,163.044,167.545,173.365,176.428,179.306,182.369,185.247,189.389,191.9162,195.268,198.147,201.025,204.145,208.646,212.068,216.745,219.808,225.388,228.81,233.312,235.83,238.3572,241.77,245.912,251.492,257.257,261.933,266.434,272.255,275.133,280.898,285.574,288.1012,291.454" svgx:width="0.35,0.46,0.48,0.3,0.46,0.74,0.3,0.59,0.48,0.26,0.55,0.31,0.59,0.46,0.26,0.55,0.35,0.46,0.43,0.46,0.59,0.31,0.26,0.55,0.39,0.43,0.3,0.46,0.59,0.31,0.3,0.31,0.3,0.43,0.26,0.55,0.3,0.3,0.31,0.46,0.35,0.48,0.31,0.57,0.35,0.46,0.26,0.26,0.55,0.43,0.57,0.59,0.48,0.46,0.59,0.3,0.59,0.48,0.26,0.55,0.48" style="fill:rgb(0,0,0);font-family:Giovanni-Book;font-size:9.72px;stroke:none;">reviewing the recent scientific literature, convening a</text>
   <text y="340.26" x="55.14,63.84,69.421,72.299,75.361,78.24,83.82,86.698,90.48,94.622,97.5,103.139,106.017,108.895,114.66,119.337,122.759,127.435,130.556,139.198,143.699,148.2,151.32,154.198,159.963,164.64,167.76,173.34,176.403,179.523,184.024,188.526,194.106,198.607,202.087,205.15,208.932,211.45,214.57,219.247,225.012,230.592,233.712,238.213,241.091,243.969,248.111,250.989,254.052,256.93,262.75,267.427,270.547,275.048,279.549,285.13,289.631,293.054" svgx:width="0.89,0.57,0.3,0.31,0.3,0.57,0.3,0.39,0.43,0.3,0.57,0.3,0.3,0.59,0.48,0.35,0.48,0.26,0.89,0.46,0.46,0.31,0.3,0.59,0.48,0.26,0.57,0.31,0.26,0.46,0.46,0.57,0.46,0.35,0.31,0.39,0.26,0.26,0.48,0.59,0.57,0.26,0.46,0.3,0.3,0.43,0.3,0.31,0.3,0.59,0.48,0.26,0.46,0.46,0.57,0.46,0.35,0.31" style="fill:rgb(0,0,0);font-family:Giovanni-Book;font-size:9.72px;stroke:none;">multidisciplinary meeting of experts, and eliciting expert</text>
   <text y="352.021" x="55.14,60.24,66.0,71.58,78.784,81.662,86.163,91.803,96.483,100.984,103.51119999999999,105.184,110.824,116.404,121.081,123.959,126.837,129.899,134.576,137.639,140.517,145.193,149.694,152.572,157.249,159.7762,161.509,166.185,171.95,177.59,180.1172,181.79,187.37,193.009,197.686,203.451,206.513,209.392,212.454,217.131,220.193,223.071,227.748,232.249,235.127,239.803,242.322,244.8492,246.582,254.145,258.705,262.487,268.067,270.945,274.008,278.509,281.0362,282.77,285.833,291.597" svgx:width="0.52,0.59,0.57,0.74,0.3,0.46,0.57,0.48,0.46,0.26,0.55,0.57,0.57,0.48,0.3,0.3,0.31,0.48,0.31,0.3,0.48,0.46,0.3,0.48,0.26,0.55,0.48,0.59,0.57,0.26,0.55,0.57,0.57,0.48,0.59,0.31,0.3,0.31,0.48,0.31,0.3,0.48,0.46,0.3,0.48,0.26,0.26,0.55,0.78,0.46,0.39,0.57,0.3,0.31,0.46,0.26,0.55,0.31,0.59,0.46" style="fill:rgb(0,0,0);font-family:Giovanni-Book;font-size:9.72px;stroke:none;">knowledge qualitatively and quantitatively. Despite the</text>
   <text y="363.781" x="55.14,60.78,66.36,71.94,75.362,77.403,82.983,88.563,93.239,96.118,98.996,102.116,106.792,108.832,114.413,117.475,119.516,122.578,128.343,132.903,134.943,139.444,144.121,146.999,152.579,157.08,162.845,166.987,171.547,174.065,176.105,179.168,184.933,189.434,191.475,197.055,200.837,205.397,207.437,213.017,216.08,218.12,222.621,227.123,232.703,237.263,240.683,243.746,245.786,251.366,256.947,259.825,265.59,268.468,274.107,279.867,281.908,287.672,292.349" svgx:width="0.57,0.57,0.57,0.35,0.26,0.57,0.57,0.48,0.3,0.3,0.31,0.48,0.26,0.57,0.31,0.26,0.31,0.59,0.46,0.26,0.46,0.48,0.3,0.57,0.46,0.59,0.43,0.46,0.26,0.26,0.31,0.59,0.46,0.26,0.57,0.39,0.46,0.26,0.57,0.31,0.26,0.46,0.46,0.57,0.46,0.35,0.31,0.26,0.57,0.57,0.3,0.59,0.3,0.57,0.59,0.26,0.59,0.48,0.39" style="fill:rgb(0,0,0);font-family:Giovanni-Book;font-size:9.72px;stroke:none;">poor quality of the evidence, the use of expert opinion has</text>
   <text y="375.541" x="55.14,59.7,65.46,70.136,75.716,78.594,83.096,88.676,90.656,96.236,100.018,101.998,105.061,110.641,112.621,115.499,121.08,125.581,131.346,134.409,137.287,140.349,145.026,147.006,150.788,153.851,157.273,161.949,165.069,169.57,174.246,177.124,181.625,185.407,187.387,190.45,196.215,200.891,203.954,205.934,210.61,214.033,218.534,220.514,223.392,226.27,231.316,235.817,238.695,243.372,245.352,248.414,253.995,255.975,261.74,266.241,269.119,274.699,276.679,280.461,283.339,288.92" svgx:width="0.46,0.59,0.48,0.57,0.3,0.46,0.57,0.26,0.57,0.39,0.26,0.31,0.57,0.26,0.3,0.57,0.46,0.59,0.31,0.3,0.31,0.48,0.26,0.39,0.31,0.35,0.48,0.31,0.46,0.48,0.3,0.46,0.39,0.26,0.31,0.59,0.48,0.31,0.26,0.48,0.35,0.46,0.26,0.3,0.3,0.52,0.46,0.3,0.48,0.26,0.31,0.57,0.26,0.59,0.46,0.3,0.57,0.26,0.39,0.3,0.57,0.74" style="fill:rgb(0,0,0);font-family:Giovanni-Book;font-size:9.72px;stroke:none;">enabled us to identify strategies that are likely to help slow</text>
   <text y="387.301" x="55.14,58.018,63.838,66.901,69.779,75.36,79.861,85.626,90.127,94.803,97.324,100.387,103.866,108.543,114.308,118.09,126.732,129.61,133.392,137.174,140.114,145.694,151.459,153.98,156.858,162.623,165.143,169.82,172.34,177.92,182.596,188.361,193.942,198.501,207.141,210.02,214.161,216.682,220.464,224.965,228.028,231.091,233.969,239.789,244.469,246.99,251.666,257.431,263.011,265.531,270.208,273.086,276.868,282.448,284.968,290.549" svgx:width="0.3,0.59,0.31,0.3,0.57,0.46,0.59,0.46,0.48,0.26,0.31,0.35,0.48,0.59,0.39,0.89,0.3,0.39,0.39,0.3,0.57,0.59,0.26,0.3,0.59,0.26,0.48,0.26,0.57,0.48,0.59,0.57,0.46,0.89,0.3,0.43,0.26,0.39,0.46,0.31,0.31,0.3,0.59,0.48,0.26,0.48,0.59,0.57,0.26,0.48,0.3,0.39,0.57,0.26,0.57,0.57" style="fill:rgb(0,0,0);font-family:Giovanni-Book;font-size:9.72px;stroke:none;">influenza transmission in a pandemic setting and also do</text>
   <text y="399.001" x="55.14,60.96,66.541,69.061,74.881,79.562,82.983,91.624,94.142,96.721,104.643,110.222,113.644,116.223,119.285,122.162,127.926,133.506,136.383,142.203,146.878,150.659,153.18,159.0,161.88,166.556,172.319,175.197,178.074,182.749,188.513,191.575,194.154,197.216,202.98,207.481,210.06,212.937,221.578,227.158,232.737,236.217,239.279,243.954,249.718,253.859,258.359,260.939,266.518,269.58,272.159,275.94,281.52,286.02,290.161,293.038" svgx:width="0.59,0.57,0.26,0.59,0.48,0.35,0.89,0.26,0.26,0.81,0.57,0.35,0.26,0.31,0.3,0.59,0.57,0.3,0.59,0.48,0.39,0.26,0.59,0.3,0.48,0.59,0.3,0.3,0.48,0.59,0.31,0.26,0.31,0.59,0.46,0.26,0.3,0.89,0.57,0.57,0.35,0.31,0.48,0.59,0.43,0.46,0.26,0.57,0.31,0.26,0.39,0.57,0.46,0.43,0.3,0.31" style="fill:rgb(0,0,0);font-family:Giovanni-Book;font-size:9.72px;stroke:none;">no harm. Our findings highlight the importance of speci-</text>
   <text y="410.761" x="55.14,58.26,62.94,65.818,71.583,76.26,78.7872,80.28,83.343,89.108,93.609,96.13619999999999,97.629,101.411,105.912,108.975,112.038,114.916,120.736,125.417,127.9442,129.377,132.255,138.075,140.60219999999998,142.035,149.295,155.055,157.933,162.075,167.84,170.3672,171.86,176.536,179.0632,180.556,186.321,191.901,197.666,200.729,206.369,212.129,216.805,220.227,228.869,233.546,237.687,242.247,247.827,250.89,253.768,257.91,262.586,265.464,267.9912,269.484,275.065,280.645,286.225,289.103,291.981" svgx:width="0.31,0.48,0.3,0.59,0.48,0.26,0.55,0.31,0.59,0.46,0.26,0.55,0.39,0.46,0.31,0.31,0.3,0.59,0.48,0.26,0.55,0.3,0.59,0.26,0.55,0.74,0.59,0.3,0.43,0.59,0.26,0.55,0.48,0.26,0.55,0.59,0.57,0.59,0.31,0.57,0.59,0.48,0.35,0.89,0.48,0.43,0.46,0.57,0.31,0.3,0.43,0.48,0.3,0.26,0.55,0.57,0.57,0.57,0.3,0.3,0.43" style="fill:rgb(0,0,0);font-family:Giovanni-Book;font-size:9.72px;stroke:none;">fying the setting in which a non-pharmaceutical public</text>
   <text y="422.522" x="55.14,60.96,65.461,70.137,73.015,76.078,81.843,84.3702,85.143,88.021,93.841,96.904,101.405,104.828,109.504,114.005,119.77,122.833,125.711,131.351,137.111,139.63819999999998,140.411,147.614,150.492,153.37,156.248,158.77519999999998,159.548,165.188,169.688,172.21519999999998,172.988,178.568,182.351,186.852,192.432,194.951,197.4782,198.25,202.991,206.771,209.29819999999998,210.071,217.274,221.776,224.654,227.532,230.0592,230.832,235.508,239.29,241.81719999999999,242.65,249.854,255.619,260.12,265.885,268.4122,269.245,272.123,275.186,278.968,281.4952,282.268,287.848,291.63" svgx:width="0.59,0.46,0.48,0.3,0.31,0.59,0.26,0.55,0.3,0.59,0.31,0.46,0.35,0.48,0.46,0.59,0.31,0.3,0.57,0.59,0.26,0.55,0.74,0.3,0.3,0.3,0.26,0.55,0.57,0.46,0.26,0.55,0.57,0.39,0.46,0.57,0.26,0.26,0.55,0.48,0.39,0.26,0.55,0.74,0.46,0.3,0.3,0.26,0.55,0.48,0.39,0.26,0.55,0.74,0.59,0.46,0.59,0.26,0.55,0.3,0.31,0.39,0.26,0.55,0.57,0.39,0.46" style="fill:rgb(0,0,0);font-family:Giovanni-Book;font-size:9.72px;stroke:none;">health intervention will be used, as well as when its use</text>
   <text y="434.282" x="55.14,58.98,64.74,70.32,75.899,78.776,84.355,86.575,92.155,96.655,98.875,103.075,108.655,114.419,118.2,121.078,126.657,131.157,134.579,139.138,144.719,147.236,149.456,155.58,158.457,161.519,167.283,172.862,178.501,183.177,188.941,191.161,194.223,199.986,204.487,206.707,209.584,215.348,218.468,222.968,226.39,231.969,234.846,239.522,244.197,246.417,251.996,255.058,257.278,260.34,266.16,270.661,274.442,278.942,281.162,284.224,288.899,293.04" svgx:width="0.39,0.59,0.57,0.57,0.3,0.57,0.26,0.57,0.46,0.26,0.43,0.57,0.59,0.39,0.3,0.57,0.46,0.35,0.46,0.57,0.26,0.26,0.63,0.3,0.31,0.59,0.57,0.57,0.48,0.59,0.26,0.31,0.59,0.46,0.26,0.3,0.59,0.31,0.46,0.35,0.57,0.3,0.48,0.48,0.26,0.57,0.31,0.26,0.31,0.59,0.46,0.39,0.46,0.26,0.31,0.48,0.43,0.31" style="fill:rgb(0,0,0);font-family:Giovanni-Book;font-size:9.72px;stroke:none;">should be considered. Although the interplay of these fac-</text>
   <text y="446.042" x="55.14,58.26,63.84,67.263,71.045,73.5722,75.125,79.802,85.567,91.147,93.6742,95.227,100.807,105.309,109.81,115.39,117.9172,119.471,125.051,130.871,135.013,139.514,142.937,146.0,150.676,153.554,159.319,162.439,167.115,169.6422,171.136,175.812,181.452,187.033,192.613,195.676,198.20319999999998,199.756,202.819,208.584,213.085,215.6122,217.166,220.588,225.089,227.967,232.644,235.764,238.644,243.32,247.821,250.3482,251.902,256.403,259.466,262.529,265.407,269.549,274.225,278.367,283.043,285.5702,287.123,292.704" svgx:width="0.31,0.57,0.35,0.39,0.26,0.55,0.48,0.59,0.57,0.26,0.55,0.57,0.46,0.46,0.57,0.26,0.55,0.57,0.59,0.43,0.46,0.35,0.31,0.48,0.3,0.59,0.31,0.48,0.26,0.55,0.48,0.57,0.57,0.57,0.31,0.26,0.55,0.31,0.59,0.46,0.26,0.55,0.35,0.46,0.3,0.48,0.31,0.3,0.48,0.46,0.26,0.55,0.46,0.31,0.31,0.3,0.43,0.48,0.43,0.48,0.26,0.55,0.57,0.35" style="fill:rgb(0,0,0);font-family:Giovanni-Book;font-size:9.72px;stroke:none;">tors and deep uncertainty about the relative efficacy or</text>
   <text y="457.802" x="55.14,59.7,62.761,65.823,70.324,74.464,77.526,80.403,85.079,89.579,95.399,99.9,103.681,107.462,109.622,115.201,118.263,120.422,124.204,129.783,134.283,138.424,141.301,144.363,147.24,151.381,153.54,159.304,164.944,170.708,173.77,179.349,185.113,189.788,193.21,201.91,206.59,210.731,215.231,220.811,223.872,226.75,230.89,235.566,238.443,240.602,246.182,251.821,257.401,260.278,263.155,267.296,269.455,275.219,279.72,284.395,287.272,290.334" svgx:width="0.46,0.31,0.31,0.46,0.43,0.31,0.3,0.48,0.46,0.59,0.46,0.39,0.39,0.26,0.57,0.31,0.26,0.39,0.57,0.46,0.43,0.3,0.31,0.3,0.43,0.26,0.59,0.57,0.59,0.31,0.57,0.59,0.48,0.35,0.89,0.48,0.43,0.46,0.57,0.31,0.3,0.43,0.48,0.3,0.26,0.57,0.57,0.57,0.3,0.3,0.43,0.26,0.59,0.46,0.48,0.3,0.31,0.59" style="fill:rgb(0,0,0);font-family:Giovanni-Book;font-size:9.72px;stroke:none;">effectiveness of specific non-pharmaceutical public health</text>
   <text y="469.502" x="55.14,58.017,63.837,66.899,71.4,74.821,79.496,83.997,89.761,92.881,95.761,101.34,107.104,110.885,113.4122,114.425,120.004,123.426,127.986,132.666,137.166,142.93,145.992,149.773,152.3002,153.313,158.953,162.733,165.2602,166.273,169.334,172.756,178.335,186.976,189.5032,190.577,194.717,200.297,206.061,210.201,213.078,218.658,222.498,225.378,230.053,234.554,237.431,242.106,244.6332,245.646,251.225,254.103,259.867,265.506,271.085,273.962,279.726,282.788,285.665,291.429" svgx:width="0.3,0.59,0.31,0.46,0.35,0.48,0.46,0.59,0.31,0.3,0.57,0.59,0.39,0.26,0.55,0.57,0.35,0.46,0.48,0.46,0.59,0.31,0.39,0.26,0.55,0.57,0.39,0.26,0.55,0.31,0.35,0.57,0.89,0.26,0.55,0.43,0.57,0.59,0.43,0.3,0.57,0.39,0.3,0.48,0.46,0.3,0.48,0.26,0.55,0.57,0.3,0.59,0.57,0.57,0.3,0.59,0.31,0.3,0.59,0.48" style="fill:rgb(0,0,0);font-family:Giovanni-Book;font-size:9.72px;stroke:none;">interventions prevents us from conclusively pinpointing</text>
   <text y="481.263" x="55.14,59.816,65.637,67.917,73.497,79.077,82.198,85.076,93.718,98.394,101.272,103.552,107.334,111.894,114.957,117.237,122.817,125.88,128.22,133.985,139.565,145.33,148.393,154.032,159.792,164.469,167.891,176.533,181.209,185.351,189.911,195.491,198.554,201.432,205.574,210.25,213.128,215.408,221.048,226.628,232.208,235.086,237.964,242.106,244.386,250.207,254.707,259.383,262.262,265.324,271.089,273.429,276.307,282.072,285.135,289.636,293.058" svgx:width="0.48,0.59,0.26,0.57,0.57,0.31,0.3,0.89,0.48,0.3,0.26,0.39,0.46,0.31,0.26,0.57,0.31,0.26,0.59,0.57,0.59,0.31,0.57,0.59,0.48,0.35,0.89,0.48,0.43,0.46,0.57,0.31,0.3,0.43,0.48,0.3,0.26,0.57,0.57,0.57,0.3,0.3,0.43,0.26,0.59,0.46,0.48,0.3,0.31,0.59,0.26,0.3,0.59,0.31,0.46,0.35,0.31" style="fill:rgb(0,0,0);font-family:Giovanni-Book;font-size:9.72px;stroke:none;">an optimal set of non-pharmaceutical public health inter-</text>
   <text y="493.023" x="55.14,59.816,64.376,70.141,73.204,76.082,81.662,87.427,91.209,93.789,96.851,102.432,105.854,108.374,112.934,117.614,122.116,125.538,130.214,132.735,136.876,139.755,143.177,147.377,152.957,161.599,165.381,168.444,173.12,178.885,183.085,187.586,190.104,192.625,198.205,203.785,207.207,209.787,213.569,216.632,222.212,227.792,232.469,235.048,240.629,244.051,249.631,254.308,257.186,262.766,267.267,271.049,273.629,277.411,282.991,291.633" svgx:width="0.48,0.46,0.59,0.31,0.3,0.57,0.59,0.39,0.26,0.31,0.57,0.35,0.26,0.46,0.48,0.46,0.35,0.48,0.26,0.43,0.3,0.35,0.43,0.57,0.89,0.39,0.31,0.48,0.59,0.43,0.46,0.26,0.26,0.57,0.57,0.35,0.26,0.39,0.31,0.57,0.57,0.48,0.26,0.57,0.35,0.57,0.48,0.3,0.57,0.46,0.39,0.26,0.39,0.57,0.89,0.46" style="fill:rgb(0,0,0);font-family:Giovanni-Book;font-size:9.72px;stroke:none;">ventions for every circumstance, our study provides some</text>
   <text y="504.783" x="55.14,58.018,66.718,72.299,77.879,81.301,84.364,89.04,94.805,97.926,100.446,103.324,109.089,112.871,115.749,120.425,126.19,129.253,133.035,135.615,140.291,145.871,151.452,157.032,160.095,162.615,168.195,172.872,178.692,184.272,188.773,197.416,200.294,204.435,206.956,212.536,215.414,220.09,225.911,231.676,234.554,240.319,244.995" svgx:width="0.3,0.89,0.57,0.57,0.35,0.31,0.48,0.59,0.31,0.26,0.3,0.59,0.39,0.3,0.48,0.59,0.31,0.39,0.26,0.48,0.57,0.57,0.57,0.31,0.26,0.57,0.48,0.59,0.57,0.46,0.89,0.3,0.43,0.26,0.57,0.3,0.48,0.59,0.59,0.3,0.59,0.48,0.26" style="fill:rgb(0,0,0);font-family:Giovanni-Book;font-size:9.72px;stroke:none;">important insights about pandemic planning.</text>
   <text y="528.303" x="55.14,61.86,67.441,73.205,76.986,79.863,83.644,86.706,91.206,97.026,100.086,102.486,109.689,112.566,115.628,121.392,123.791,129.371,132.432,138.253,142.753,146.175,149.956,152.473,154.873,162.076,166.576,168.976,172.038,177.677,183.256,189.02,194.6,197.0,200.061,205.825,210.501,213.562,215.962,219.082,224.842,229.343,231.743,237.322,242.901,248.481,251.358,254.235,258.016,263.836,268.337,273.916,276.316,279.193,282.07,285.132,289.632,293.054" svgx:width="0.69,0.57,0.59,0.39,0.3,0.39,0.31,0.46,0.59,0.31,0.26,0.74,0.3,0.31,0.59,0.26,0.57,0.31,0.59,0.46,0.35,0.39,0.26,0.26,0.74,0.46,0.26,0.31,0.57,0.57,0.59,0.57,0.26,0.31,0.59,0.48,0.31,0.26,0.31,0.59,0.46,0.26,0.57,0.57,0.57,0.3,0.3,0.39,0.59,0.46,0.57,0.26,0.3,0.3,0.31,0.46,0.35,0.31" style="fill:rgb(0,0,0);font-family:Giovanni-Book;font-size:9.72px;stroke:none;">Consistent with others, we found that the published liter-</text>
   <text y="540.003" x="55.14,59.816,62.936,68.517,71.939,76.44,78.36,81.783,86.284,90.96,95.461,100.138,103.016,107.517,113.097,115.017,118.799,122.941,127.617,133.382,136.502,138.363,142.504,148.085,153.905,156.965,159.843,163.265,171.907,176.584,179.646,185.227,188.706,193.387,195.247,199.748,204.425,207.303,212.883,217.443,223.203,227.344,231.846,233.765,239.346,245.111,247.03,251.532,254.594,257.657,260.535,264.677,269.353,273.495,278.171,280.091,284.767,290.532" svgx:width="0.48,0.31,0.57,0.35,0.46,0.26,0.35,0.46,0.48,0.46,0.48,0.3,0.46,0.57,0.26,0.39,0.43,0.48,0.59,0.31,0.26,0.43,0.57,0.59,0.31,0.3,0.35,0.89,0.48,0.31,0.57,0.35,0.48,0.26,0.46,0.48,0.3,0.57,0.46,0.59,0.43,0.46,0.26,0.57,0.59,0.26,0.46,0.31,0.31,0.3,0.43,0.48,0.43,0.48,0.26,0.48,0.59,0.57" style="fill:rgb(0,0,0);font-family:Giovanni-Book;font-size:9.72px;stroke:none;">ature revealed scant confirmatory evidence on efficacy and</text>
   <text y="551.764" x="55.14,60.78,65.46,69.961,73.383,78.06,80.938,83.816,86.456,90.957,94.02,97.083,101.584,105.726,108.789,111.667,116.343,120.844,126.665,131.166,134.948,138.73,141.37,146.95,150.013,152.653,158.418,163.998,169.763,172.826,178.406,184.227,188.903,192.325,200.967,205.644,209.785,214.287,219.867,222.987,225.865,230.007,234.683,237.561,240.141,245.78,251.361,256.941,259.819,262.697,266.839,269.479,275.244,279.745,284.421,287.299,290.362" svgx:width="0.57,0.48,0.46,0.35,0.48,0.3,0.3,0.26,0.46,0.31,0.31,0.46,0.43,0.31,0.3,0.48,0.46,0.59,0.46,0.39,0.39,0.26,0.57,0.31,0.26,0.59,0.57,0.59,0.31,0.57,0.59,0.48,0.35,0.89,0.48,0.43,0.46,0.57,0.31,0.3,0.43,0.48,0.3,0.26,0.57,0.57,0.57,0.3,0.3,0.43,0.26,0.59,0.46,0.48,0.3,0.31,0.59" style="fill:rgb(0,0,0);font-family:Giovanni-Book;font-size:9.72px;stroke:none;">overall effectiveness of non-pharmaceutical public health</text>
   <text y="563.524" x="55.14,58.017,63.837,66.899,71.4,74.821,79.496,83.997,89.761,92.881,95.761,101.34,107.104,110.885,113.4122,114.365,117.242,123.006,125.5332,126.486,131.161,136.925,139.4522,140.405,143.282,149.046,152.108,154.985,160.624,165.125,170.889,175.389,180.064,182.5912,183.544,189.123,193.799,199.563,205.202,209.703,218.344,221.221,225.362,227.879,230.40619999999998,231.359,235.859,238.921,241.983,246.483,250.683,253.743,256.62,261.295,265.796,268.673,273.348,275.8752,276.828,279.89,285.469,288.891,293.031" svgx:width="0.3,0.59,0.31,0.46,0.35,0.48,0.46,0.59,0.31,0.3,0.57,0.59,0.39,0.26,0.55,0.3,0.59,0.26,0.55,0.48,0.59,0.26,0.55,0.3,0.59,0.31,0.3,0.57,0.46,0.59,0.46,0.48,0.26,0.55,0.57,0.48,0.59,0.57,0.46,0.89,0.3,0.43,0.26,0.26,0.55,0.46,0.31,0.31,0.46,0.43,0.31,0.3,0.48,0.46,0.3,0.48,0.26,0.55,0.31,0.57,0.35,0.43,0.31" style="fill:rgb(0,0,0);font-family:Giovanni-Book;font-size:9.72px;stroke:none;">interventions in an influenza pandemic, effectively forc-</text>
   <text y="575.284" x="55.14,58.017,63.837,68.513,71.0402,72.832,78.472,84.052,86.929,89.806,93.947,98.622,107.263,111.939,116.983,121.543,124.965,128.746,131.2732,133.126,136.187,141.767,144.2942,146.146,149.208,154.788,158.209,163.973,166.5002,168.353,171.415,176.994,179.5212,181.374,185.874,190.374,195.954,200.454,203.875,206.996,209.5232,211.315,216.894,222.534,225.411,231.175,234.052,239.632,245.395,248.817,254.221,256.739,262.143,265.564,268.082,270.6092,272.462,277.322,282.901,291.542" svgx:width="0.3,0.59,0.48,0.26,0.55,0.57,0.57,0.3,0.3,0.43,0.48,0.89,0.48,0.52,0.46,0.35,0.39,0.26,0.55,0.31,0.57,0.26,0.55,0.31,0.57,0.35,0.59,0.26,0.55,0.31,0.57,0.26,0.55,0.46,0.46,0.57,0.46,0.35,0.31,0.26,0.55,0.57,0.57,0.3,0.59,0.3,0.57,0.59,0.35,0.56,0.26,0.56,0.35,0.26,0.26,0.55,0.5,0.57,0.89,0.46" style="fill:rgb(0,0,0);font-family:Giovanni-Book;font-size:9.72px;stroke:none;">ing policymakers to turn to expert opinion[8,9]. Some</text>
   <text y="587.044" x="55.14,58.017,63.837,66.899,71.4,75.54,78.602,81.479,87.059,92.879,95.4062,96.179,100.379,105.959,111.723,114.785,118.206,123.786,126.663,129.1902,130.023,133.804,136.866,142.505,148.086,150.963,155.463,159.244,161.7712,162.604,166.745,169.622,174.297,178.079,181.86,184.737,187.799,190.676,195.235,200.816,203.3432,204.176,208.851,212.632,215.1592,215.992,219.773,224.449,228.23,231.292,235.792,244.433,249.108,252.17,255.111,259.25,261.7772,262.611,266.032,270.532,275.208,278.085,282.585,289.788,293.569" svgx:width="0.3,0.59,0.31,0.46,0.43,0.31,0.3,0.57,0.59,0.26,0.55,0.43,0.57,0.59,0.31,0.35,0.57,0.3,0.26,0.55,0.39,0.31,0.57,0.57,0.3,0.46,0.39,0.26,0.55,0.43,0.3,0.48,0.39,0.39,0.3,0.31,0.3,0.46,0.57,0.26,0.55,0.48,0.39,0.26,0.55,0.39,0.48,0.39,0.31,0.46,0.89,0.48,0.31,0.3,0.43,0.26,0.55,0.35,0.46,0.48,0.3,0.46,0.74,0.39,0.26" style="fill:rgb(0,0,0);font-family:Giovanni-Book;font-size:9.72px;stroke:none;">infection control studies classified as systematic reviews,</text>
   <text y="598.805" x="55.14,60.78,66.36,70.142,74.643,78.066,82.742,87.418,90.481,93.359,98.939,104.76,109.44,112.318,114.358,118.14,121.26,126.841,132.421,135.299,139.8,143.582,145.683,151.263,154.685,156.786,161.287,165.964,168.842,174.422,178.923,184.688,188.83,193.389,196.452,202.033,206.709,210.491,214.992,220.572,222.673,227.349,232.929,235.808,241.388,245.889,248.767,251.645,257.466,261.967,265.749,267.789,271.989,277.57,283.334,287.116,290.179,293.057" svgx:width="0.57,0.57,0.39,0.46,0.35,0.48,0.48,0.31,0.3,0.57,0.59,0.48,0.3,0.26,0.39,0.31,0.57,0.57,0.3,0.46,0.39,0.26,0.57,0.35,0.26,0.46,0.48,0.3,0.57,0.46,0.59,0.43,0.46,0.31,0.57,0.48,0.39,0.46,0.57,0.26,0.48,0.57,0.3,0.57,0.46,0.3,0.3,0.59,0.46,0.39,0.26,0.43,0.57,0.59,0.39,0.31,0.3,0.31" style="fill:rgb(0,0,0);font-family:Giovanni-Book;font-size:9.72px;stroke:none;">observational studies or evidence-based guidelines consti-</text>
   <text y="610.565" x="55.14,58.26,63.84,66.902,71.403,76.982,80.221,84.003,87.064,90.486,96.065,101.829,106.504,111.005,114.484,117.665,122.165,126.841,129.718,135.297,139.857,145.617,149.757,154.258,156.775,160.015,164.69,167.752,170.932,173.81,178.31,183.05,186.83,189.892,193.073,196.134,201.774,205.195,208.376,212.157,217.736,221.216,225.716,230.392,235.971,239.151,244.791,247.851,251.031,254.453,258.953,262.793,268.374,271.251,274.672,279.347,282.409,287.989,291.41" svgx:width="0.31,0.57,0.31,0.46,0.57,0.26,0.39,0.31,0.35,0.57,0.59,0.48,0.46,0.35,0.26,0.46,0.48,0.3,0.57,0.46,0.59,0.43,0.46,0.26,0.26,0.48,0.31,0.26,0.3,0.46,0.48,0.39,0.31,0.26,0.31,0.57,0.35,0.26,0.39,0.57,0.35,0.46,0.48,0.57,0.26,0.57,0.31,0.26,0.35,0.46,0.39,0.57,0.3,0.35,0.48,0.31,0.57,0.35,0.48" style="fill:rgb(0,0,0);font-family:Giovanni-Book;font-size:9.72px;stroke:none;">tuted stronger evidence, at least for spread of respiratory</text>
   <text y="622.265" x="55.14,60.78,63.66,67.441,71.941,76.616,80.397,84.898,88.319,93.724,99.128,102.549,105.067,107.59419999999999,108.966,114.186,120.006,124.507,127.0342,128.406,131.828,136.328,145.029,149.709,152.586,158.35,161.227,166.991,171.666,174.1932,175.626,179.407,183.548,186.425,190.926,196.689,199.751,202.692,205.753,208.63,212.771,215.29819999999998,216.671,221.171,225.847,228.724,234.363,238.864,244.628,248.768,253.269,255.7962,257.229,260.106,263.887,266.4142,267.786,273.366,276.427,278.9542,280.387,283.265,288.844" svgx:width="0.57,0.3,0.39,0.46,0.48,0.39,0.46,0.35,0.56,0.56,0.35,0.26,0.26,0.55,0.54,0.59,0.46,0.26,0.55,0.35,0.46,0.89,0.48,0.3,0.59,0.3,0.59,0.48,0.26,0.55,0.39,0.43,0.3,0.46,0.59,0.31,0.3,0.31,0.3,0.43,0.26,0.55,0.46,0.48,0.3,0.57,0.46,0.59,0.43,0.46,0.26,0.55,0.3,0.39,0.26,0.55,0.57,0.31,0.26,0.55,0.3,0.57,0.74" style="fill:rgb(0,0,0);font-family:Giovanni-Book;font-size:9.72px;stroke:none;">disease[14]. The remaining scientific evidence is of low</text>
   <text y="634.025" x="55.14,58.98,62.04,65.462,69.962,75.726,80.401,83.463,89.227,91.207,95.163,98.225,103.864,107.285,110.347,116.111,120.611,124.032,126.012,129.434,133.934,137.775,142.275,146.95,150.372,154.512,160.276,162.256,165.133,168.915,170.895,175.57,180.07,183.492,188.167,190.147,193.024,195.901,200.946,205.506,208.386,213.061,215.041,218.103,223.682,225.662,229.803,235.567,240.242,246.006,250.681,255.182,257.161,261.662,265.502,268.564,271.441,280.082,284.758,287.819,292.32" svgx:width="0.39,0.31,0.35,0.46,0.59,0.48,0.31,0.59,0.26,0.41,0.31,0.57,0.35,0.31,0.59,0.46,0.35,0.26,0.35,0.46,0.39,0.46,0.48,0.35,0.43,0.59,0.26,0.3,0.39,0.26,0.48,0.46,0.35,0.48,0.26,0.3,0.3,0.52,0.46,0.3,0.48,0.26,0.31,0.57,0.26,0.43,0.59,0.48,0.59,0.48,0.46,0.26,0.46,0.39,0.31,0.3,0.89,0.48,0.31,0.46,0.39" style="fill:rgb(0,0,0);font-family:Giovanni-Book;font-size:9.72px;stroke:none;">strength (further research is very likely to change estimates</text>
   <text y="645.785" x="55.14,60.78,63.839,65.94,70.44,73.502,76.622,81.123,85.263,88.325,92.281,94.441,100.02,103.442,105.542,110.217,114.777,118.199,122.874,124.974,127.851,133.431,140.691,142.791,146.572,149.634,153.114,157.614,163.378,168.053,171.115,176.879,179.039,182.995,187.495,190.557,193.619,198.119,202.26,205.38,209.161,211.262,215.937,219.358,223.859,226.019,231.598,237.177,240.054,243.116,247.676,249.776,255.356,261.12,265.32,269.82,273.241,276.303,280.978,283.856,289.62,293.576" svgx:width="0.57,0.31,0.26,0.46,0.31,0.31,0.46,0.43,0.31,0.41,0.26,0.57,0.35,0.26,0.48,0.46,0.35,0.48,0.26,0.3,0.57,0.74,0.26,0.39,0.31,0.35,0.46,0.59,0.48,0.31,0.59,0.26,0.41,0.46,0.31,0.31,0.46,0.43,0.31,0.39,0.26,0.48,0.35,0.46,0.26,0.57,0.57,0.3,0.31,0.46,0.26,0.57,0.59,0.43,0.46,0.35,0.31,0.48,0.3,0.59,0.41,0.26" style="fill:rgb(0,0,0);font-family:Giovanni-Book;font-size:9.72px;stroke:none;">of effect) or very low strength (effects are quite uncertain),</text>
   <text y="657.545" x="55.14,58.98,64.561,69.062,73.204,76.082,79.145,82.023,86.164,90.841,93.719,96.597,101.273,104.333,111.593,114.473,117.536,123.301,126.36,129.783,134.284,138.066,143.646,148.148,152.348,155.411,158.47,161.533,167.113,170.173,173.955,178.457,183.133,186.915,192.495,198.26,202.936,205.877,208.876,213.553,219.373,224.953,228.013,233.593,238.27,244.035,249.615,254.116,262.817,265.695,269.836,272.896,275.774,281.539,284.602,287.48,293.06" svgx:width="0.39,0.57,0.46,0.43,0.3,0.31,0.3,0.43,0.48,0.3,0.3,0.48,0.26,0.74,0.3,0.31,0.59,0.26,0.35,0.46,0.39,0.57,0.46,0.43,0.31,0.26,0.31,0.57,0.26,0.39,0.46,0.48,0.39,0.57,0.59,0.48,0.3,0.26,0.48,0.59,0.57,0.26,0.57,0.48,0.59,0.57,0.46,0.89,0.3,0.43,0.26,0.3,0.59,0.31,0.3,0.57,0.31" style="fill:rgb(0,0,0);font-family:Giovanni-Book;font-size:9.72px;stroke:none;">specifically with respect to seasonal and pandemic influ-</text>
   <text y="669.306" x="55.14,59.7,65.46,69.961,74.637,77.1642,78.898,82.258,87.663,93.068,96.491,99.009,101.5362,103.27,108.49,114.255,118.756,121.2832,123.017,128.597,134.177,139.757,142.636,145.514,149.354,155.119,159.62,165.201,167.7282,169.461,173.962,178.638,181.517,187.097,191.598,197.363,201.505,206.064,208.5912,210.264,214.406,219.986,225.807,229.587,232.465,236.247,239.31,243.811,249.391,251.91819999999998,253.652,262.294,266.97,269.848,275.613,278.491,283.167,285.69419999999997,287.428,293.008" svgx:width="0.46,0.59,0.46,0.48,0.26,0.55,0.35,0.56,0.56,0.35,0.26,0.26,0.55,0.54,0.59,0.46,0.26,0.55,0.57,0.57,0.57,0.3,0.3,0.39,0.59,0.46,0.57,0.26,0.55,0.46,0.48,0.3,0.57,0.46,0.59,0.43,0.46,0.26,0.55,0.43,0.57,0.59,0.39,0.3,0.39,0.31,0.46,0.57,0.26,0.55,0.89,0.48,0.3,0.59,0.3,0.48,0.26,0.55,0.57,0.31" style="fill:rgb(0,0,0);font-family:Giovanni-Book;font-size:9.72px;stroke:none;">enza [14]. The published evidence consisted mainly of</text>
   <text y="681.066" x="55.14,60.96,65.641,69.063,72.485,77.162,80.224,83.102,87.779,92.28,94.62,98.042,102.543,107.22,110.098,114.599,121.803,125.585,127.924,133.505,136.567,138.848,144.487,149.167,152.949,156.012,158.293,163.873,168.549,174.369,179.95,184.451,193.093,195.971,200.113,203.895,206.413,208.753,212.895,218.475,224.24,227.303,231.804,240.504,246.085,251.665,255.087,259.763,263.186,267.862,270.202,275.782,281.362,285.144,289.646,293.068" svgx:width="0.59,0.48,0.35,0.35,0.48,0.31,0.3,0.48,0.46,0.26,0.35,0.46,0.48,0.3,0.46,0.74,0.39,0.26,0.57,0.31,0.26,0.57,0.48,0.39,0.31,0.26,0.57,0.48,0.59,0.57,0.46,0.89,0.3,0.43,0.39,0.26,0.26,0.43,0.57,0.59,0.31,0.46,0.89,0.57,0.57,0.35,0.48,0.35,0.48,0.26,0.57,0.57,0.39,0.46,0.35,0.31" style="fill:rgb(0,0,0);font-family:Giovanni-Book;font-size:9.72px;stroke:none;">narrative reviews of past pandemics, contemporary obser-</text>
   <text y="692.766" x="55.14,59.816,64.557,67.62,70.498,76.078,81.843,85.625,88.143,90.6702,93.964,98.465,104.045,106.923,110.043,115.624,119.046,121.924,126.6,129.479,133.261,135.779,138.3062,141.599,145.741,151.321,159.963,168.664,173.165,178.93,181.993,186.669,190.092,192.97,197.471,201.311,203.8382,207.132,211.808,217.573,223.153,225.68019999999999,228.973,233.115,237.791,241.574,246.075,248.60219999999998,251.895,255.318,259.877,265.458,271.038,274.46,277.523,281.305,283.8322,287.125,292.706" svgx:width="0.48,0.48,0.31,0.3,0.57,0.59,0.39,0.26,0.26,0.55,0.46,0.57,0.3,0.31,0.57,0.35,0.3,0.48,0.3,0.39,0.26,0.26,0.55,0.43,0.57,0.89,0.89,0.46,0.59,0.31,0.48,0.35,0.3,0.46,0.39,0.26,0.55,0.48,0.59,0.57,0.26,0.55,0.43,0.48,0.39,0.46,0.26,0.55,0.35,0.46,0.57,0.57,0.35,0.31,0.39,0.26,0.55,0.57,0.35" style="fill:rgb(0,0,0);font-family:Giovanni-Book;font-size:9.72px;stroke:none;">vations, editorials, commentaries and case reports or</text>
   <text y="704.526" x="55.14,58.98,63.481,66.903,69.781,74.283,78.065,80.583,83.11019999999999,84.183,86.7102,87.723,90.961,94.024,96.5512,97.624,102.3,105.179,108.961,114.541,117.06819999999999,118.141,121.019,126.784,130.926,133.804,139.384,144.964,149.524,155.104,157.6312,158.644,163.321,166.743,169.863,172.743,176.885,179.763,184.264,188.046,190.57319999999999,191.586,197.227,200.647,205.324,212.527,215.405,221.17,225.846,228.3732,229.447,232.325,238.09,241.153,245.654,249.076,253.636,259.401,263.543,268.044,271.826,274.3532,275.426,278.489,281.911,287.492" svgx:width="0.39,0.46,0.35,0.3,0.46,0.39,0.26,0.26,0.55,0.26,0.55,0.33,0.31,0.26,0.55,0.48,0.3,0.39,0.57,0.26,0.55,0.3,0.59,0.43,0.3,0.57,0.57,0.46,0.57,0.26,0.55,0.48,0.35,0.31,0.3,0.43,0.3,0.46,0.39,0.26,0.55,0.57,0.35,0.48,0.74,0.3,0.59,0.48,0.26,0.55,0.3,0.59,0.31,0.46,0.35,0.46,0.59,0.43,0.46,0.39,0.26,0.55,0.31,0.35,0.57,0.89" style="fill:rgb(0,0,0);font-family:Giovanni-Book;font-size:9.72px;stroke:none;">series. It also included articles drawing inferences from</text>
   <text y="716.286" x="55.14,60.78,63.66,69.241,72.12,77.701,82.378,87.056,90.115,94.793,100.559,106.14,109.2,114.839,119.519,122.583,128.349,133.93,139.512,145.277,149.955,153.795,156.674,162.255,165.134,170.716,175.393,180.07,182.59,185.649,189.792,192.671,195.55,201.316,204.195,208.395,213.072,215.951,219.011,223.514,229.095,231.974,237.555,242.057,250.7,253.641,259.221,262.1,267.681,272.359,277.036,280.096,284.773,290.539" svgx:width="0.57,0.3,0.57,0.3,0.57,0.48,0.48,0.26,0.48,0.59,0.57,0.26,0.57,0.48,0.31,0.59,0.57,0.57,0.59,0.48,0.39,0.3,0.57,0.3,0.57,0.48,0.48,0.26,0.26,0.43,0.3,0.3,0.59,0.3,0.43,0.48,0.3,0.26,0.46,0.57,0.3,0.57,0.46,0.89,0.3,0.57,0.3,0.57,0.48,0.48,0.26,0.48,0.59,0.57" style="fill:rgb(0,0,0);font-family:Giovanni-Book;font-size:9.72px;stroke:none;">biology and pathophysiology, clinical epidemiology and</text>
   <text y="728.047" x="55.14,63.84,68.521,71.582,77.346,81.847,90.488,95.163,98.283,101.16,105.301,109.976,112.853,115.38019999999999,116.753,125.394,131.034,136.613,141.113,143.991,146.868,152.632,157.307,159.83419999999998,161.267,165.048,168.11,173.689,179.268,182.145,186.646,190.427,192.944,195.47119999999998,196.904,200.326,205.001,208.063,213.827,218.327,221.749,224.2762,225.709,228.77,234.534,239.21,244.974,247.50119999999998,248.934,251.995,255.417,260.996,269.637,272.1642,273.597,277.019,281.694,287.458,293.037" svgx:width="0.89,0.48,0.31,0.59,0.46,0.89,0.48,0.31,0.3,0.43,0.48,0.3,0.26,0.55,0.89,0.57,0.57,0.46,0.3,0.3,0.59,0.48,0.26,0.55,0.39,0.31,0.57,0.57,0.3,0.46,0.39,0.26,0.26,0.55,0.35,0.48,0.31,0.59,0.46,0.35,0.26,0.55,0.31,0.59,0.48,0.59,0.26,0.55,0.31,0.35,0.57,0.89,0.26,0.55,0.35,0.48,0.59,0.57,0.31" style="fill:rgb(0,0,0);font-family:Giovanni-Book;font-size:9.72px;stroke:none;">mathematical modeling studies, rather than from rand-</text>
   <text y="93.546" x="313.08,318.66,327.302,330.18,334.681,339.183,344.822,347.942,352.084,357.664,363.429,366.549,369.972,375.552,378.43,381.308,385.81,391.39,394.57,397.633,401.055,403.934,408.61,411.488,415.27,418.39,422.891,427.632,432.308,435.186,440.767,445.443,448.506,451.384,457.149,461.825,465.005,467.883,473.648,476.711,481.212,484.635,489.311,493.812,499.633,502.696,505.574,511.154,516.919,520.701,523.219,526.4,529.637,535.402,538.522,541.585,547.406,550.284" svgx:width="0.57,0.89,0.3,0.46,0.46,0.57,0.26,0.43,0.57,0.59,0.31,0.35,0.57,0.3,0.3,0.46,0.57,0.26,0.31,0.35,0.3,0.48,0.3,0.39,0.26,0.46,0.48,0.48,0.3,0.57,0.48,0.31,0.3,0.59,0.48,0.26,0.3,0.59,0.31,0.46,0.35,0.48,0.46,0.59,0.31,0.3,0.57,0.59,0.39,0.26,0.26,0.33,0.59,0.26,0.31,0.59,0.3,0.39" style="fill:rgb(0,0,0);font-family:Giovanni-Book;font-size:9.72px;stroke:none;">omized controlled trials evaluating interventions. In this</text>
   <text y="105.246" x="313.08,317.221,322.802,328.567,331.629,336.189,340.689,343.752,346.271,349.27,353.772,358.273,363.853,368.354,371.777,374.897,377.897,383.477,389.057,391.935,397.7,400.578,406.158,411.979,414.978,417.856,421.639,424.638,430.218,434.895,438.317,441.38,444.258,448.4,454.039,456.919,461.596,465.018,467.896,472.572,475.572,481.152,484.934,489.436,492.498,498.138,501.016,503.534,506.534,511.21,516.975,522.556,525.555,529.337,533.839,538.515,543.075,546.497,551.173" svgx:width="0.43,0.57,0.59,0.31,0.46,0.46,0.31,0.26,0.26,0.46,0.46,0.57,0.46,0.35,0.31,0.26,0.57,0.57,0.3,0.59,0.3,0.57,0.59,0.26,0.3,0.39,0.26,0.57,0.48,0.35,0.31,0.3,0.43,0.57,0.3,0.48,0.35,0.3,0.48,0.26,0.57,0.39,0.46,0.31,0.57,0.3,0.26,0.26,0.48,0.59,0.57,0.26,0.39,0.46,0.48,0.46,0.35,0.48,0.3" style="fill:rgb(0,0,0);font-family:Giovanni-Book;font-size:9.72px;stroke:none;">context, expert opinion is particularly useful, and several</text>
   <text y="117.006" x="313.08,317.221,320.099,324.601,329.277,332.699,335.22,343.92,348.421,352.203,355.985,360.661,365.337,369.839,373.621,376.141,380.642,389.343,393.844,397.267,401.943,406.444,412.024" svgx:width="0.43,0.3,0.46,0.48,0.35,0.26,0.89,0.46,0.39,0.39,0.48,0.48,0.46,0.39,0.26,0.46,0.89,0.46,0.35,0.48,0.46,0.57,0.26" style="fill:rgb(0,0,0);font-family:Giovanni-Book;font-size:9.72px;stroke:none;">clear messages emerged.</text>
   <text y="140.526" x="313.08,317.941,320.819,324.241,328.023,331.086,333.604,336.1312,339.845,345.425,351.005,353.883,356.761,360.961,365.638,374.28,378.956,384.002,388.503,391.925,395.707,398.2342,401.948,405.73,411.55,417.13,422.711,425.589,431.169,433.6962,437.409,442.085,446.227,449.29,452.168,456.844,461.346,464.224,468.9,471.42719999999997,475.14,480.721,484.143,489.723,498.424,504.004,507.067,511.568,514.0952,517.808,523.388,527.89,531.312,535.094,540.675,546.495,551.171" svgx:width="0.5,0.3,0.35,0.39,0.31,0.26,0.26,0.55,0.57,0.57,0.3,0.3,0.43,0.48,0.89,0.48,0.52,0.46,0.35,0.39,0.26,0.55,0.39,0.59,0.57,0.57,0.3,0.57,0.26,0.55,0.48,0.43,0.31,0.3,0.48,0.46,0.3,0.48,0.26,0.55,0.57,0.35,0.57,0.89,0.57,0.31,0.46,0.26,0.55,0.57,0.46,0.35,0.39,0.57,0.59,0.48,0.3" style="fill:rgb(0,0,0);font-family:Giovanni-Book;font-size:9.72px;stroke:none;">First, policymakers should actively promote personal</text>
   <text y="152.286" x="313.08,316.501,321.001,324.783,330.362,335.941,341.761,345.542,348.42,353.999,356.876,359.753,362.63,365.692,370.367,372.8942,375.528,378.589,384.169,387.59,390.11719999999997,392.751,396.532,399.409,405.048,412.248,415.125,420.889,425.564,428.0912,430.725,434.506,440.085,443.506,448.066,452.741,458.321,460.8482,463.481,469.06,472.122,474.6492,477.282,480.159,485.923,488.985,493.486,497.626,500.688,503.565,509.205,514.969,517.4962,520.129,523.191,528.955,532.376,537.956,543.535,548.275" svgx:width="0.35,0.46,0.39,0.57,0.57,0.59,0.39,0.3,0.57,0.3,0.3,0.3,0.31,0.48,0.26,0.55,0.31,0.57,0.35,0.26,0.55,0.39,0.3,0.57,0.74,0.3,0.59,0.48,0.26,0.55,0.39,0.57,0.35,0.46,0.48,0.57,0.26,0.55,0.57,0.31,0.26,0.55,0.3,0.59,0.31,0.46,0.43,0.31,0.3,0.57,0.59,0.26,0.55,0.31,0.59,0.35,0.57,0.57,0.48,0.59" style="fill:rgb(0,0,0);font-family:Giovanni-Book;font-size:9.72px;stroke:none;">responsibility for slowing spread of infection through</text>
   <text y="164.046" x="313.08,317.756,323.336,328.916,334.497,336.537,342.357,347.037,352.802,358.383,360.423,366.188,370.864,375.54,378.418,382.92,388.74,393.241,395.282,399.958,405.723,411.303,413.343,416.766,421.267,425.108,430.688,433.566,436.988,441.665,444.727,450.308,453.73,458.406,460.447,464.948,468.068,470.946,476.526,482.107,486.608,489.671,492.734,497.235,499.275,502.153,507.973,510.014,514.69,517.568,520.446,522.486,526.268,530.77,533.833,536.895,539.773,545.594,550.274" svgx:width="0.48,0.57,0.57,0.57,0.26,0.59,0.48,0.59,0.57,0.26,0.59,0.48,0.48,0.3,0.46,0.59,0.46,0.26,0.48,0.59,0.57,0.26,0.35,0.46,0.39,0.57,0.3,0.35,0.48,0.31,0.57,0.35,0.48,0.26,0.46,0.31,0.3,0.57,0.57,0.46,0.31,0.31,0.46,0.26,0.3,0.59,0.26,0.48,0.3,0.3,0.26,0.39,0.46,0.31,0.31,0.3,0.59,0.48,0.39" style="fill:rgb(0,0,0);font-family:Giovanni-Book;font-size:9.72px;stroke:none;">good hand hygiene and respiratory etiquette in all settings</text>
   <text y="175.746" x="313.08,317.756,323.521,329.101,331.741,336.417,339.48,342.06,346.736,349.614,352.492,355.132,358.195,361.073,369.715,374.217,377.999,380.517,383.157,390.535,394.317,398.819,401.459,407.039,410.102,412.742,418.322,421.2,424.982,427.86,433.625,436.688,441.189,445.331,448.451,453.131,458.896,461.959,464.539,470.359,475.039,480.804,486.384,488.964,492.804,498.385,503.061,508.641,512.423,515.003,519.679,525.5,531.08,533.66,538.336,541.214,545.356,550.995" svgx:width="0.48,0.59,0.57,0.26,0.48,0.31,0.26,0.48,0.3,0.3,0.26,0.31,0.3,0.89,0.46,0.39,0.26,0.26,0.76,0.39,0.46,0.26,0.57,0.31,0.26,0.57,0.3,0.39,0.3,0.59,0.31,0.46,0.43,0.31,0.48,0.59,0.31,0.26,0.59,0.48,0.59,0.57,0.26,0.39,0.57,0.48,0.57,0.39,0.26,0.48,0.59,0.57,0.26,0.48,0.3,0.43,0.57,0.31" style="fill:rgb(0,0,0);font-family:Giovanni-Book;font-size:9.72px;stroke:none;">and at all times. Use of disinfectant hand soaps and alco-</text>
   <text y="187.507" x="313.08,318.845,324.425,327.303,330.366,335.946,340.622,344.463,348.963,354.543,356.763,360.186,365.766,371.346,375.187,377.407,381.189,386.954,392.534,398.114,400.992,406.632,408.852,413.528,416.406,420.188,425.769,427.989,433.569,438.07,440.351,444.852,450.617,454.759,460.339,465.919,469.399,474.075,478.751,483.253,488.833,491.351,493.572,498.432,502.934,507.076,512.715,518.475,524.055,526.574,528.794,534.374,538.875,543.552,548.111,550.99" svgx:width="0.59,0.57,0.3,0.31,0.57,0.48,0.39,0.46,0.57,0.26,0.35,0.57,0.57,0.39,0.26,0.39,0.59,0.57,0.57,0.3,0.57,0.26,0.48,0.3,0.39,0.57,0.26,0.57,0.46,0.26,0.46,0.59,0.43,0.57,0.57,0.35,0.48,0.48,0.46,0.57,0.26,0.26,0.5,0.46,0.43,0.57,0.59,0.57,0.26,0.26,0.57,0.46,0.48,0.46,0.3,0.31" style="fill:rgb(0,0,0);font-family:Giovanni-Book;font-size:9.72px;stroke:none;">hol-based rubs should also be encouraged. Second, devel-</text>
   <text y="199.267" x="313.08,318.661,324.242,327.121,332.887,337.564,340.0912,342.485,345.548,351.314,355.817,358.3442,360.737,364.88,369.557,375.138,379.815,385.397,388.276,391.155,394.034,397.097,401.775,404.30219999999997,406.695,411.372,417.138,422.719,425.2462,427.64,431.782,436.46,442.041,446.718,450.861,453.74,456.804,461.481,464.0082,466.401,469.465,475.046,478.47,480.9972,483.39,487.892,492.569,495.993,498.872,503.549,506.0762,508.469,511.893,516.57,522.151,525.03,530.612,533.1392,535.472,540.149,543.089,546.513,551.19" svgx:width="0.57,0.57,0.3,0.59,0.48,0.26,0.55,0.31,0.59,0.46,0.26,0.55,0.43,0.48,0.57,0.48,0.57,0.3,0.3,0.3,0.31,0.48,0.26,0.55,0.48,0.59,0.57,0.26,0.55,0.43,0.48,0.57,0.48,0.43,0.3,0.31,0.48,0.26,0.55,0.31,0.57,0.35,0.26,0.55,0.46,0.48,0.35,0.3,0.48,0.26,0.55,0.35,0.48,0.57,0.3,0.57,0.26,0.55,0.48,0.3,0.35,0.48,0.3" style="fill:rgb(0,0,0);font-family:Giovanni-Book;font-size:9.72px;stroke:none;">oping the capability and capacity for early rapid viral</text>
   <text y="211.027" x="313.08,318.66,321.538,326.214,330.891,336.656,342.236,346.076,348.954,352.736,354.896,358.678,364.498,370.079,375.659,378.537,384.117,386.337,391.918,396.419,398.639,403.315,405.475,411.295,414.175,418.852,424.617,426.837,432.417,435.839,438.717,444.298,447.72,450.598,453.661,458.337,460.856,463.076,468.296,474.061,476.939,480.419,486.0,488.518,490.678,496.498,500.998,505.675,508.553,511.616,517.381,521.522,526.198,529.621,534.181,536.34,541.921,545.343,550.983" svgx:width="0.57,0.3,0.48,0.48,0.59,0.57,0.39,0.3,0.39,0.26,0.39,0.59,0.57,0.57,0.3,0.57,0.26,0.57,0.46,0.26,0.48,0.26,0.59,0.3,0.48,0.59,0.26,0.57,0.35,0.3,0.57,0.35,0.3,0.31,0.48,0.26,0.26,0.54,0.59,0.3,0.35,0.57,0.26,0.26,0.59,0.46,0.48,0.3,0.31,0.59,0.43,0.48,0.35,0.46,0.26,0.57,0.35,0.57,0.31" style="fill:rgb(0,0,0);font-family:Giovanni-Book;font-size:9.72px;stroke:none;">diagnosis should be a high priority. Third, healthcare pro-</text>
   <text y="222.787" x="313.08,317.755,320.632,326.211,330.712,334.133,337.914,340.374,346.138,350.698,355.198,360.778,363.238,366.3,371.879,374.339,379.918,384.419,386.879,392.458,396.958,400.02,403.14,407.641,411.062,413.522,416.584,420.006,424.681,427.558,433.322,437.822,443.402,445.862,448.924,454.563,456.963,465.663,470.344,474.844,477.721,486.362,489.239,493.74,498.24,500.7,503.762,509.582,514.083,516.543,521.043,524.105,527.167,531.667,535.808,538.87,541.747,546.422,550.982" svgx:width="0.48,0.3,0.57,0.46,0.35,0.39,0.26,0.59,0.46,0.46,0.57,0.26,0.31,0.57,0.26,0.57,0.46,0.26,0.57,0.46,0.31,0.31,0.46,0.35,0.26,0.31,0.35,0.48,0.3,0.59,0.46,0.57,0.26,0.31,0.57,0.26,0.89,0.48,0.46,0.3,0.89,0.3,0.46,0.46,0.26,0.31,0.59,0.46,0.26,0.46,0.31,0.31,0.46,0.43,0.31,0.3,0.48,0.46,0.31" style="fill:rgb(0,0,0);font-family:Giovanni-Book;font-size:9.72px;stroke:none;">viders need to be better trained to maximize the effective-</text>
   <text y="234.548" x="313.08,318.844,323.344,327.125,330.906,333.4332,336.967,342.546,345.608,348.1352,351.608,354.485,360.249,363.311,367.87,372.011,375.073,377.95,383.529,389.293,391.8202,395.293,399.434,405.074,410.837,413.899,417.321,422.9,425.777,428.3042,431.777,440.478,444.978,449.653,453.434,459.014,462.435,466.936,470.717,473.296,475.8232,479.296,482.174,487.937,492.078,494.955,500.535,506.114,508.991,514.811,519.492,522.0192,525.492,531.071,534.852,539.352,541.8792,545.353,550.992" svgx:width="0.59,0.46,0.39,0.39,0.26,0.55,0.57,0.31,0.26,0.55,0.3,0.59,0.31,0.46,0.43,0.31,0.3,0.57,0.59,0.26,0.55,0.43,0.57,0.59,0.31,0.35,0.57,0.3,0.26,0.55,0.89,0.46,0.48,0.39,0.57,0.35,0.46,0.39,0.26,0.26,0.55,0.3,0.59,0.43,0.3,0.57,0.57,0.3,0.59,0.48,0.26,0.55,0.57,0.39,0.46,0.26,0.55,0.57,0.31" style="fill:rgb(0,0,0);font-family:Giovanni-Book;font-size:9.72px;stroke:none;">ness of infection control measures, including use of</text>
   <text y="246.248" x="313.08,321.721,326.396,330.177,335.222,339.062,341.583,344.1102,345.302,348.724,353.224,357.005,362.585,365.462,368.941,373.617,376.679,382.258,385.679,389.46,391.978,394.5052,395.698,400.438,406.198,411.778,414.3052,415.497,421.077,424.197,429.961,434.461,437.883,440.4102,441.602,447.182,451.741,455.163,458.944,464.523,470.287,474.962,477.84,480.36719999999997,481.62,487.199,490.62,496.2,499.261,503.762,507.903,510.964,513.905,518.58,523.08,525.6072,526.8,531.3,536.88,542.459,545.336,550.976" svgx:width="0.89,0.48,0.39,0.52,0.39,0.26,0.26,0.55,0.35,0.46,0.39,0.57,0.3,0.35,0.48,0.31,0.57,0.35,0.39,0.26,0.26,0.55,0.48,0.59,0.57,0.26,0.55,0.57,0.31,0.59,0.46,0.35,0.26,0.55,0.57,0.46,0.35,0.39,0.57,0.59,0.48,0.3,0.26,0.55,0.57,0.35,0.57,0.31,0.46,0.43,0.31,0.3,0.48,0.46,0.26,0.55,0.46,0.57,0.57,0.3,0.57,0.31" style="fill:rgb(0,0,0);font-family:Giovanni-Book;font-size:9.72px;stroke:none;">masks, respirators, and other personal protective equip-</text>
   <text y="258.008" x="313.08,321.721,326.221,331.985,335.105,337.623,340.263,343.499,346.561,349.261,357.902,362.578,367.253,369.953,375.533,380.033,382.733,386.155,390.655,395.33,399.111,404.691,410.455,415.13,420.77,423.647,428.147,430.787,433.849,439.488,442.128,445.55,450.05,454.25,459.83,468.471,477.113,481.613,487.377,493.016,495.656,498.533,501.411,510.111,512.988,516.05,520.55,526.13,528.83,534.409,538.19,542.69,545.33,550.97" svgx:width="0.89,0.46,0.59,0.31,0.26,0.26,0.33,0.31,0.26,0.89,0.48,0.48,0.26,0.57,0.46,0.26,0.35,0.46,0.48,0.39,0.57,0.59,0.48,0.57,0.3,0.46,0.26,0.31,0.57,0.26,0.35,0.46,0.43,0.57,0.89,0.89,0.46,0.59,0.57,0.26,0.3,0.3,0.89,0.3,0.31,0.46,0.57,0.26,0.57,0.39,0.46,0.26,0.57,0.31" style="fill:rgb(0,0,0);font-family:Giovanni-Book;font-size:9.72px;stroke:none;">ment. It may be reasonable to recommend limited use of</text>
   <text y="269.768" x="313.08,318.659,323.159,326.581,330.362,335.941,341.761,346.442,349.319,351.299,356.878,360.299,365.879,368.94,373.5,377.64,380.702,383.579,388.254,392.754,394.734,403.435,407.935,412.61,416.392,421.971,425.392,429.893,433.674,435.714,438.591,444.355,446.335,450.476,454.976,458.397,461.518,466.193,469.07,474.834,476.814,482.393,485.455,491.275,495.776,499.197,501.177,504.958,509.458,512.52,515.582,518.459,524.28,528.96,532.741,534.721,538.502,544.081,548.222" svgx:width="0.57,0.46,0.35,0.39,0.57,0.59,0.48,0.3,0.26,0.57,0.35,0.57,0.31,0.46,0.43,0.31,0.3,0.48,0.46,0.26,0.89,0.46,0.48,0.39,0.57,0.35,0.46,0.39,0.26,0.3,0.59,0.26,0.43,0.46,0.35,0.31,0.48,0.3,0.59,0.26,0.57,0.31,0.59,0.46,0.35,0.26,0.39,0.46,0.31,0.31,0.3,0.59,0.48,0.39,0.26,0.39,0.57,0.43,0.59" style="fill:rgb(0,0,0);font-family:Giovanni-Book;font-size:9.72px;stroke:none;">personal protective measures in certain other settings such</text>
   <text y="281.528" x="313.08,317.755,321.536,324.056,332.698,337.438,341.219,346.264,349.326,356.528,361.028,365.704,369.183,372.064,377.827,382.503,385.023,390.602,395.278,397.857,400.919,406.683,411.184,413.704,416.581,419.458,422.335,424.915,430.494,433.916,436.436,442.015,446.516,449.937,455.757,460.433,466.012,469.793,472.314,476.095,481.734,485.156,488.217,492.893,497.033,501.534,504.054,509.633,512.511,516.351,519.231,524.995,528.057,532.557,536.698,539.76,542.637,548.216" svgx:width="0.48,0.39,0.26,0.89,0.48,0.39,0.52,0.31,0.74,0.46,0.48,0.35,0.3,0.59,0.48,0.26,0.57,0.48,0.26,0.31,0.59,0.46,0.26,0.3,0.3,0.3,0.26,0.57,0.35,0.26,0.57,0.46,0.35,0.59,0.48,0.57,0.39,0.26,0.39,0.57,0.35,0.31,0.48,0.43,0.46,0.26,0.57,0.3,0.39,0.3,0.59,0.31,0.46,0.43,0.31,0.3,0.57,0.59" style="fill:rgb(0,0,0);font-family:Giovanni-Book;font-size:9.72px;stroke:none;">as mask-wearing by the ill or perhaps surface disinfection</text>
   <text y="293.289" x="313.08,318.66,321.723,324.062,328.739,333.24,336.662,341.339,343.678,349.443,354.003,358.679,363.355,366.234,369.112,373.788,376.128,379.19,382.613,387.289,390.352,393.415,396.293,400.434,405.534,410.036,415.616,417.956,423.536,429.116,434.696,437.574,440.453,444.594,446.934,451.61,455.09,459.591,464.268,468.05,470.568,472.908,480.646,486.226,493.43,497.931,502.607,507.167,510.589,513.108,515.447,521.028,524.09,529.855,534.357,537.779,540.119,545.699,549.539" svgx:width="0.57,0.31,0.26,0.48,0.46,0.35,0.48,0.26,0.59,0.46,0.48,0.48,0.3,0.3,0.48,0.26,0.31,0.35,0.48,0.31,0.31,0.3,0.43,0.52,0.46,0.57,0.26,0.57,0.57,0.57,0.3,0.3,0.43,0.26,0.48,0.35,0.46,0.48,0.39,0.26,0.26,0.8,0.57,0.74,0.46,0.48,0.46,0.35,0.26,0.26,0.57,0.31,0.59,0.46,0.35,0.26,0.57,0.39,0.46" style="fill:rgb(0,0,0);font-family:Giovanni-Book;font-size:9.72px;stroke:none;">of very heavily trafficked public areas. However, other use</text>
   <text y="305.049" x="313.08,318.66,321.723,324.363,329.943,334.444,337.867,341.649,347.229,353.049,357.729,360.608,363.247,368.828,372.25,377.83,380.893,385.395,389.536,392.599,395.477,400.153,404.713,407.293,411.852,417.433,423.013,425.891,431.471,440.113,444.615,450.435,453.498,456.077,461.717,466.397,468.977,472.097,477.857,482.358,484.998,489.675,494.176,499.941,504.442,507.865,512.541,515.419,518.059,523.639,529.22,534.859,537.737,540.615,544.757,547.397,550.275" svgx:width="0.57,0.31,0.26,0.57,0.46,0.35,0.39,0.57,0.59,0.48,0.3,0.26,0.57,0.35,0.57,0.31,0.46,0.43,0.31,0.3,0.48,0.46,0.26,0.46,0.57,0.57,0.3,0.57,0.89,0.46,0.59,0.31,0.26,0.57,0.48,0.26,0.31,0.59,0.46,0.26,0.48,0.46,0.59,0.46,0.35,0.48,0.3,0.26,0.57,0.57,0.57,0.3,0.3,0.43,0.26,0.3,0.39" style="fill:rgb(0,0,0);font-family:Giovanni-Book;font-size:9.72px;stroke:none;">of personal protective equipment by the general public is</text>
   <text y="316.809" x="313.08,318.844,324.423,327.485,330.605,334.026,338.527,342.667,348.247,356.947,365.587,370.087,375.851,381.431,385.931,391.571,394.63,399.306,402.368,405.488,408.549,414.313,417.191,421.031,424.091,427.153,430.03,438.73,443.23,445.748,448.808,453.668,459.307,464.887,468.308,471.37,477.134,479.651,482.771,487.447,493.211,498.79,501.91,506.585,509.462,513.244,518.823,521.943,526.084,531.663,537.427,541.208,544.085,547.866,550.986" svgx:width="0.59,0.57,0.31,0.26,0.35,0.46,0.43,0.57,0.89,0.89,0.46,0.59,0.57,0.46,0.57,0.26,0.48,0.31,0.26,0.31,0.59,0.3,0.39,0.26,0.31,0.3,0.89,0.46,0.26,0.26,0.5,0.57,0.57,0.35,0.31,0.59,0.26,0.26,0.48,0.59,0.57,0.26,0.48,0.3,0.39,0.57,0.26,0.43,0.57,0.59,0.39,0.3,0.39,0.31,0.31" style="fill:rgb(0,0,0);font-family:Giovanni-Book;font-size:9.72px;stroke:none;">not recommended at this time. Fourth, and also consist-</text>
   <text y="328.509" x="313.08,317.58,323.344,326.406,328.566,335.825,338.705,341.767,347.531,349.691,355.27,358.39,364.154,368.655,372.076,374.236,378.017,381.079,386.718,392.299,395.176,399.676,403.457,405.975,408.134,415.337,419.897,422.056,425.118,430.697,436.277,442.041,447.62,451.46,453.62,456.682,462.446,467.121,470.183,472.403,479.606,482.483,488.062,492.562,496.343,501.923,505.344,509.904,514.579,520.158,522.318,526.993,532.573,537.248,541.748,545.17,550.99" svgx:width="0.46,0.59,0.31,0.26,0.74,0.3,0.31,0.59,0.26,0.57,0.31,0.59,0.46,0.35,0.26,0.39,0.31,0.57,0.57,0.3,0.46,0.39,0.26,0.26,0.74,0.46,0.26,0.31,0.57,0.57,0.59,0.57,0.39,0.26,0.31,0.59,0.48,0.31,0.26,0.74,0.3,0.57,0.46,0.39,0.57,0.35,0.46,0.48,0.57,0.26,0.48,0.57,0.48,0.46,0.35,0.59,0.31" style="fill:rgb(0,0,0);font-family:Giovanni-Book;font-size:9.72px;stroke:none;">ent with other studies, we founds that widespread govern-</text>
   <text y="340.269" x="313.08,321.722,326.223,331.988,335.108,337.6352,343.448,352.09,356.766,362.531,368.111,372.788,375.908,380.409,384.191,386.71819999999997,392.531,395.594,401.174,403.7012,409.514,413.354,417.854,422.531,425.953,430.455,435.131,439.807,442.87,447.371,449.8982,455.771,458.649,464.414,469.995,472.873,477.549,480.427,486.007,491.588,496.264,499.142,502.982,505.501,508.02819999999997,513.841,516.719,522.484,526.625,529.503,535.084,540.664,543.542,549.362" svgx:width="0.89,0.46,0.59,0.31,0.26,0.55,0.89,0.48,0.59,0.57,0.48,0.31,0.46,0.39,0.26,0.55,0.31,0.57,0.26,0.55,0.39,0.46,0.48,0.35,0.46,0.48,0.48,0.31,0.46,0.26,0.55,0.3,0.59,0.57,0.3,0.48,0.3,0.57,0.57,0.48,0.3,0.39,0.26,0.26,0.55,0.3,0.59,0.43,0.3,0.57,0.57,0.3,0.59,0.48" style="fill:rgb(0,0,0);font-family:Giovanni-Book;font-size:9.72px;stroke:none;">ment mandates to segregate individuals, including</text>
   <text y="352.029" x="313.08,315.958,319.74,325.32,328.198,332.874,335.937,338.815,344.396,350.216,352.736,355.556,361.196,366.776,371.452,374.875,379.551,385.316,388.379,391.257,397.077,401.577,404.096,406.916,410.756,416.516,421.017,423.895,426.958,431.46,434.882,437.76,443.58,448.261,450.779,453.599,456.477,462.116,466.258,470.934,473.997,476.875,482.456,488.22,491.283,496.923,501.599,505.381,509.882,515.463,518.343,522.484,528.065,536.707,545.349,550.988" svgx:width="0.3,0.39,0.57,0.3,0.48,0.31,0.3,0.57,0.59,0.26,0.26,0.57,0.57,0.48,0.35,0.48,0.59,0.31,0.3,0.59,0.46,0.26,0.26,0.39,0.59,0.46,0.3,0.31,0.46,0.35,0.3,0.59,0.48,0.26,0.26,0.3,0.57,0.43,0.48,0.31,0.3,0.57,0.59,0.31,0.57,0.48,0.39,0.46,0.57,0.26,0.43,0.57,0.89,0.89,0.57,0.31" style="fill:rgb(0,0,0);font-family:Giovanni-Book;font-size:9.72px;stroke:none;">isolation, quarantine, sheltering, location-based commu-</text>
   <text y="363.79" x="313.08,318.845,321.723,324.785,329.462,331.682,335.104,339.606,343.446,346.506,349.928,352.806,356.948,360.011,362.889,368.469,374.234,378.074,380.593,382.813,387.489,393.254,398.834,401.054,404.117,407.54,412.216,416.892,421.394,424.334,426.554,429.976,434.478,438.26,441.323,444.745,447.623,451.765,454.827,457.706,463.345,469.11,472.892,475.411,477.631,482.307,485.729,490.231,492.451,495.329,499.83,503.612,507.453,509.673,512.551,515.429,520.474,524.976,527.854,532.53,534.75,537.813,543.578,548.254" svgx:width="0.59,0.3,0.31,0.48,0.26,0.35,0.46,0.39,0.31,0.35,0.3,0.43,0.31,0.3,0.57,0.59,0.39,0.26,0.26,0.48,0.59,0.57,0.26,0.31,0.35,0.48,0.48,0.46,0.3,0.26,0.35,0.46,0.39,0.31,0.35,0.3,0.43,0.31,0.3,0.57,0.59,0.39,0.26,0.26,0.48,0.35,0.46,0.26,0.3,0.46,0.39,0.39,0.26,0.3,0.3,0.52,0.46,0.3,0.48,0.26,0.31,0.59,0.48,0.59" style="fill:rgb(0,0,0);font-family:Giovanni-Book;font-size:9.72px;stroke:none;">nity restrictions, and travel restrictions, are less likely than</text>
   <text y="375.55" x="313.08,317.756,323.336,326.214,331.795,337.559,340.622,345.363,348.782,353.458,355.9852,356.878,365.52,370.021,374.762,378.542,384.122,387.545,392.046,395.828,398.35519999999997,399.308,402.371,407.951,410.4782,411.37,416.951,421.452,423.9792,424.932,428.354,432.855,436.997,442.577,451.278,459.918,464.419,470.184,475.764,480.266,485.905,488.426,490.9532,491.845,496.347,500.129,505.709,510.269,514.41,517.288,521.965,524.843,527.721,532.397,534.9242,535.817,541.397,546.073,550.633" svgx:width="0.48,0.57,0.3,0.57,0.59,0.31,0.48,0.35,0.48,0.26,0.55,0.89,0.46,0.48,0.39,0.57,0.35,0.46,0.39,0.26,0.55,0.31,0.57,0.26,0.55,0.57,0.46,0.26,0.55,0.35,0.46,0.43,0.57,0.89,0.89,0.46,0.59,0.57,0.46,0.57,0.26,0.26,0.55,0.46,0.39,0.57,0.46,0.43,0.3,0.48,0.3,0.3,0.48,0.26,0.55,0.57,0.48,0.46,0.35" style="fill:rgb(0,0,0);font-family:Giovanni-Book;font-size:9.72px;stroke:none;">voluntary measures to be recommended, especially over</text>
   <text y="387.31" x="313.08,316.142,321.907,326.409,328.9362,333.489,336.367,342.006,347.771,352.448,356.949,360.371,363.434,366.497,370.998,374.478,383.12,386.543,391.948,397.408,400.828,403.346,405.8732,410.487,413.725,419.489,423.272,426.334,430.836,435.512,441.092,443.611,446.1382,450.751,453.629,458.13,461.912,465.694,468.2212,472.775,475.653,481.418,486.094,490.77,494.611,497.489,502.165,506.666,509.1932,513.746,518.423,524.003,526.881,532.461,538.226,541.346,546.023,549.445" svgx:width="0.31,0.59,0.46,0.26,0.55,0.3,0.57,0.59,0.48,0.46,0.35,0.31,0.31,0.46,0.35,0.89,0.35,0.56,0.56,0.35,0.26,0.26,0.55,0.33,0.59,0.39,0.31,0.46,0.48,0.57,0.26,0.26,0.55,0.3,0.46,0.39,0.39,0.26,0.55,0.3,0.59,0.48,0.48,0.39,0.3,0.48,0.46,0.26,0.55,0.48,0.57,0.3,0.57,0.59,0.31,0.48,0.35,0.48" style="fill:rgb(0,0,0);font-family:Giovanni-Book;font-size:9.72px;stroke:none;">the longer-term[55]. Instead, less invasive voluntary</text>
   <text y="399.01" x="313.08,317.58,320.642,323.704,329.283,332.704,335.824,339.606,342.066,345.127,350.707,353.227,356.649,361.149,366.728,372.308,376.448,381.008,383.468,387.249,392.828,396.969,399.846,404.587,407.467,409.927,414.068,419.647,425.411,428.531,433.206,437.347,440.409,442.926,445.386,449.946,453.726,459.305,463.806,467.947,470.824,475.499,478.376,481.253,485.928,488.449,492.23,496.73,499.607,502.669,505.731,508.608,512.389,517.969,520.846,525.586,528.648,531.525,537.104,542.868,545.328,550.968" svgx:width="0.46,0.31,0.31,0.57,0.35,0.31,0.39,0.26,0.31,0.57,0.26,0.35,0.46,0.57,0.57,0.43,0.46,0.26,0.39,0.57,0.43,0.3,0.48,0.3,0.26,0.43,0.57,0.59,0.31,0.48,0.43,0.31,0.26,0.26,0.46,0.39,0.57,0.46,0.43,0.3,0.48,0.3,0.3,0.48,0.26,0.39,0.46,0.3,0.31,0.31,0.3,0.39,0.57,0.3,0.48,0.31,0.3,0.57,0.59,0.26,0.57,0.31" style="fill:rgb(0,0,0);font-family:Giovanni-Book;font-size:9.72px;stroke:none;">efforts to reduce social contact, especially self-isolation of</text>
   <text y="410.77" x="313.08,316.141,321.905,326.406,328.9332,330.965,334.746,337.624,341.824,346.863,349.3902,351.423,356.098,359.16,361.6872,363.72,369.484,375.063,383.763,388.264,390.781,393.3082,395.341,399.122,403.622,406.5,409.561,412.623,418.202,423.842,428.522,431.944,436.619,442.383,445.445,448.322,454.086,458.586,461.1132,463.206,468.785,471.847,474.3742,476.407,479.469,485.233,489.733,492.2602,494.293,498.793,503.353,508.932,514.511,518.292,522.793,528.372,530.889,533.4162,535.449,540.124,545.945,551.524" svgx:width="0.31,0.59,0.46,0.26,0.55,0.39,0.3,0.43,0.52,0.26,0.55,0.48,0.31,0.26,0.55,0.59,0.57,0.89,0.46,0.26,0.26,0.55,0.39,0.46,0.3,0.31,0.31,0.57,0.57,0.48,0.35,0.48,0.59,0.31,0.3,0.59,0.46,0.26,0.55,0.57,0.31,0.26,0.55,0.31,0.59,0.46,0.26,0.55,0.46,0.46,0.57,0.57,0.39,0.46,0.57,0.26,0.26,0.55,0.48,0.59,0.57,0.26" style="fill:rgb(0,0,0);font-family:Giovanni-Book;font-size:9.72px;stroke:none;">the sick at home, self-quarantine of the exposed, and,</text>
   <text y="422.53" x="313.08,320.283,326.048,330.549,336.37,338.8972,339.67,342.732,347.234,351.91,355.692,358.57,364.15,367.029,371.53,374.048,376.5752,377.348,381.13,386.951,391.452,394.33,397.393,401.894,405.317,408.195,413.96,418.636,421.1632,421.936,427.516,432.192,434.7192,435.492,438.612,444.372,448.874,451.4012,452.174,459.377,463.879,466.757,469.635,472.1622,472.935,478.515,484.095,488.772,494.592,497.652,500.1792,500.952,504.014,509.595,512.1222,512.895,518.475,522.976,525.5032,526.276,533.48,536.358,541.997,546.498,549.376" svgx:width="0.74,0.59,0.46,0.59,0.26,0.55,0.31,0.46,0.48,0.39,0.3,0.57,0.3,0.46,0.26,0.26,0.55,0.39,0.59,0.46,0.3,0.31,0.46,0.35,0.3,0.59,0.48,0.26,0.55,0.57,0.48,0.26,0.55,0.31,0.59,0.46,0.26,0.55,0.74,0.46,0.3,0.3,0.26,0.55,0.57,0.57,0.48,0.59,0.31,0.26,0.55,0.31,0.57,0.26,0.55,0.57,0.46,0.26,0.55,0.74,0.3,0.57,0.46,0.3,0.48" style="fill:rgb(0,0,0);font-family:Giovanni-Book;font-size:9.72px;stroke:none;">when feasible, sheltering by the well ought to be widely</text>
   <text y="434.291" x="313.08,316.862,322.442,328.022,333.602,339.183,342.663,345.725,350.227,355.807,358.325,360.8522,362.285,367.506,373.271,376.149,379.931,382.4582,383.891,391.151,394.029,396.907,399.785,402.3122,403.745,407.167,411.669,417.249,422.829,425.707,429.13,433.631,436.15819999999997,437.591,442.092,447.673,453.312,457.452,462.128,465.191,468.069,473.649,479.414,481.933,484.4602,485.893,491.473,495.974,499.454,503.234,508.814,513.491,517.273,520.151,525.731,531.496,534.014,536.5412,537.974,542.651,548.471" svgx:width="0.39,0.57,0.57,0.57,0.57,0.35,0.31,0.46,0.57,0.26,0.26,0.55,0.54,0.59,0.3,0.39,0.26,0.55,0.74,0.3,0.3,0.3,0.26,0.55,0.35,0.46,0.57,0.57,0.3,0.35,0.46,0.26,0.55,0.46,0.57,0.57,0.43,0.48,0.31,0.3,0.57,0.59,0.26,0.26,0.55,0.57,0.46,0.35,0.39,0.57,0.48,0.39,0.3,0.57,0.59,0.26,0.26,0.55,0.48,0.59,0.57" style="fill:rgb(0,0,0);font-family:Giovanni-Book;font-size:9.72px;stroke:none;">supported. This will require education, persuasion, and</text>
   <text y="446.051" x="313.08,316.861,322.44,326.581,329.458,334.133,337.01,339.5372,341.091,344.872,350.511,356.091,361.67,367.249,370.671,373.732,376.2592,377.813,380.875,386.514,389.0412,390.595,395.095,400.859,404.64,410.219,413.641,418.141,420.6682,422.222,425.342,431.102,435.777,438.839,441.3662,442.919,451.56,456.061,461.7,464.58,468.721,473.396,476.274,478.8012,480.354,485.029,490.793,496.373,498.9002,500.453,506.273,511.854,517.617,520.679,529.32,533.821,539.4,542.34,546.481,551.156" svgx:width="0.39,0.57,0.43,0.3,0.48,0.3,0.26,0.55,0.39,0.57,0.57,0.57,0.57,0.35,0.31,0.26,0.55,0.31,0.57,0.26,0.55,0.46,0.59,0.39,0.57,0.35,0.46,0.26,0.55,0.31,0.59,0.48,0.31,0.26,0.55,0.89,0.46,0.57,0.3,0.43,0.48,0.3,0.26,0.55,0.48,0.59,0.57,0.26,0.55,0.59,0.57,0.59,0.31,0.89,0.46,0.57,0.3,0.43,0.48,0.3" style="fill:rgb(0,0,0);font-family:Giovanni-Book;font-size:9.72px;stroke:none;">social support to ensure that medical and non-medical</text>
   <text y="457.811" x="313.08,318.844,323.344,327.844,333.424,337.264,340.024,344.7,348.121,352.622,355.441,364.082,368.583,371.645,374.162,376.982,384.184,387.061,390.123,395.887,398.648,401.768,407.528,412.028,414.789,417.666,422.341,425.461,428.521,433.021,436.443,439.203,444.783,449.342,452.219,457.983,462.659,465.419,469.56,474.06,479.881,482.94,486.362,491.037,493.914,496.675,499.737,505.376,508.137,511.198,516.962,521.463,524.282,528.064,533.643,537.784,541.924,546.425,550.265" svgx:width="0.59,0.46,0.46,0.57,0.39,0.26,0.48,0.35,0.46,0.26,0.89,0.46,0.31,0.26,0.26,0.74,0.3,0.31,0.59,0.26,0.31,0.59,0.46,0.26,0.3,0.48,0.31,0.31,0.46,0.35,0.26,0.57,0.46,0.3,0.59,0.48,0.26,0.43,0.46,0.59,0.31,0.35,0.48,0.3,0.26,0.31,0.57,0.26,0.31,0.59,0.46,0.26,0.39,0.57,0.43,0.43,0.46,0.39,0.39" style="fill:rgb(0,0,0);font-family:Giovanni-Book;font-size:9.72px;stroke:none;">needs are met, with the latter being central to the success</text>
   <text y="469.511" x="313.08,318.66,321.723,324.2502,325.263,329.045,333.546,339.126,344.707,349.208,352.99,356.11,359.533,364.209,367.272,370.15,375.73,381.495,384.0222,385.035,393.677,398.178,402.855,406.637,412.217,415.697,420.198,423.98,426.5072,427.46,430.338,436.158,438.6852,439.638,444.314,447.192,450.07,452.5972,453.611,457.393,461.894,464.957,468.019,470.898,476.718,481.398,485.18,487.699,490.2262,491.178,496.099,498.979,502.041,505.104,510.869,513.388,515.9152,516.928,519.806,525.571,528.633,534.214,537.636,546.336,551.013" svgx:width="0.57,0.31,0.26,0.55,0.39,0.46,0.57,0.57,0.46,0.39,0.31,0.35,0.48,0.31,0.3,0.57,0.59,0.26,0.55,0.89,0.46,0.48,0.39,0.57,0.35,0.46,0.39,0.26,0.55,0.3,0.59,0.26,0.55,0.48,0.3,0.3,0.26,0.55,0.39,0.46,0.31,0.31,0.3,0.59,0.48,0.39,0.26,0.26,0.55,0.5,0.3,0.31,0.31,0.59,0.26,0.26,0.55,0.3,0.59,0.31,0.57,0.35,0.89,0.48,0.31" style="fill:rgb(0,0,0);font-family:Giovanni-Book;font-size:9.72px;stroke:none;">of sequestration measures in all settings. Fifth, informa-</text>
   <text y="481.271" x="313.08,316.142,319.021,324.601,330.366,333.365,339.13,343.632,348.133,353.713,357.495,360.495,365.171,368.594,373.095,376.094,381.675,386.176,389.599,394.275,398.951,402.733,405.611,410.288,414.789,417.369,420.309,426.249,430.75,434.173,438.849,441.848,444.727,447.605,450.667,453.73,456.608,461.11,464.109,469.689,472.752,475.693,478.813,484.573,489.074,492.014,494.892,497.771,500.891,505.392,508.814,513.491,516.553,522.134,525.556,530.057,533.057,535.935,539.717,542.658,548.238" svgx:width="0.31,0.3,0.57,0.59,0.26,0.59,0.46,0.46,0.57,0.39,0.26,0.48,0.35,0.46,0.26,0.57,0.46,0.35,0.48,0.48,0.39,0.3,0.48,0.46,0.26,0.26,0.61,0.46,0.35,0.48,0.26,0.3,0.3,0.31,0.31,0.3,0.46,0.26,0.57,0.31,0.26,0.31,0.59,0.46,0.26,0.3,0.3,0.31,0.46,0.35,0.48,0.31,0.57,0.35,0.46,0.26,0.3,0.39,0.26,0.57,0.59" style="fill:rgb(0,0,0);font-family:Giovanni-Book;font-size:9.72px;stroke:none;">tion needs are pervasive. Very little of the literature is on</text>
   <text y="493.032" x="313.08,318.659,324.238,327.115,332.879,335.941,338.459,340.9862,341.999,346.674,352.438,358.017,360.5442,361.557,364.619,370.383,374.883,377.4102,378.423,382.924,387.424,393.003,397.563,400.983,404.045,407.826,410.3532,411.306,416.946,419.826,423.607,428.282,432.957,436.379,440.879,445.38,450.959,453.4862,454.499,459.903,465.308,467.8352,468.848,474.427,478.927,482.349,486.489,490.99,496.81,499.872,502.3992,503.352,508.931,512.051,514.5782,515.531,518.593,524.357,528.916,531.4432,532.396,535.458,538.335,547.035,551.536" svgx:width="0.57,0.57,0.3,0.59,0.31,0.26,0.26,0.55,0.48,0.59,0.57,0.26,0.55,0.31,0.59,0.46,0.26,0.55,0.46,0.46,0.57,0.46,0.35,0.31,0.39,0.26,0.55,0.57,0.3,0.39,0.48,0.48,0.35,0.46,0.46,0.57,0.26,0.55,0.56,0.56,0.26,0.55,0.57,0.46,0.35,0.43,0.46,0.59,0.31,0.26,0.55,0.57,0.31,0.26,0.55,0.31,0.59,0.46,0.26,0.55,0.31,0.3,0.89,0.46,0.26" style="fill:rgb(0,0,0);font-family:Giovanni-Book;font-size:9.72px;stroke:none;">point, and the experts disagreed 60 percent of the time.</text>
   <text y="504.792" x="313.08,322.081,326.583,329.461,332.339,335.402,339.543,345.183,350.948,354.011,357.433,363.013,365.891,368.769,373.271,378.91,381.4372,384.79,390.429,396.01,399.792,404.293,407.716,412.392,417.068,420.131,423.009,428.589,434.41,439.09,441.968,444.4952,447.908,452.584,458.349,463.929,466.45619999999997,469.869,474.37,478.152,483.733,488.234,492.434,495.314,499.99,502.868,505.747,510.423,512.9502,516.363,519.241,525.006,528.069,532.57,535.992,540.669,545.17,550.99" svgx:width="0.93,0.46,0.3,0.3,0.31,0.43,0.57,0.59,0.31,0.35,0.57,0.3,0.3,0.46,0.57,0.26,0.55,0.57,0.57,0.39,0.46,0.35,0.48,0.48,0.31,0.3,0.57,0.59,0.48,0.3,0.26,0.55,0.48,0.59,0.57,0.26,0.55,0.46,0.39,0.57,0.46,0.43,0.3,0.48,0.3,0.3,0.48,0.26,0.55,0.3,0.59,0.31,0.46,0.35,0.48,0.46,0.59,0.31" style="fill:rgb(0,0,0);font-family:Giovanni-Book;font-size:9.72px;stroke:none;">Well-controlled observational and especially interven-</text>
   <text y="516.552" x="313.08,316.142,319.021,324.601,330.366,335.042,337.92,340.56,344.342,347.405,352.985,358.565,361.443,365.945,369.727,372.367,377.043,380.466,384.967,387.547,393.311,397.871,402.372,407.953,412.454,418.034,420.553,423.132,427.634,431.474,437.054,441.556,445.697,448.576,453.252,456.13,459.008,463.684,466.264,469.142,474.962,477.542,480.605,486.37,490.871,493.511,497.653,503.233,508.998,512.061,516.562,521.063,524.184,526.763,532.344,535.406,537.986,541.768,546.328,551.004" svgx:width="0.31,0.3,0.57,0.59,0.48,0.3,0.26,0.39,0.31,0.57,0.57,0.3,0.46,0.39,0.26,0.48,0.35,0.46,0.26,0.59,0.46,0.46,0.57,0.46,0.57,0.26,0.26,0.46,0.39,0.57,0.46,0.43,0.3,0.48,0.3,0.3,0.48,0.26,0.3,0.59,0.26,0.31,0.59,0.46,0.26,0.43,0.57,0.59,0.31,0.46,0.46,0.31,0.26,0.57,0.31,0.26,0.39,0.46,0.48,0.31" style="fill:rgb(0,0,0);font-family:Giovanni-Book;font-size:9.72px;stroke:none;">tional studies are needed, especially in the context of sea-</text>
   <text y="528.312" x="313.08,316.862,322.442,328.207,332.883,335.761,338.282,341.16,346.98,350.043,352.921,358.501,363.003,368.767,373.269,377.945" svgx:width="0.39,0.57,0.59,0.48,0.3,0.26,0.3,0.59,0.31,0.3,0.57,0.46,0.59,0.46,0.48,0.26" style="fill:rgb(0,0,0);font-family:Giovanni-Book;font-size:9.72px;stroke:none;">sonal influenza.</text>
   <text y="552.42" x="313.08,321.356,327.732,333.989,339.354,342.261,348.518,353.099,356.006,362.381" svgx:width="0.77,0.59,0.58,0.5,0.27,0.58,0.43,0.27,0.59,0.58" style="fill:rgb(0,0,0);font-family:GillSans-Bold;font-size:10.74px;stroke:none;">Conclusion</text>
   <text y="563.52" x="313.08,318.3,324.064,328.564,331.444,337.023,341.524,350.224,354.904,360.668,366.247,369.127,372.189,377.769,381.19,384.07,387.851,391.992,394.869,399.369,405.19,408.251,411.128,414.19,417.067,421.208,424.088,428.589,433.264,436.141,441.72,446.221,451.985,456.185,460.685,463.505,469.144,474.904,477.784,483.548,489.128,494.892,497.953,503.533,509.353,514.028,517.45,526.091,530.766,534.907,539.407,544.986,548.107,550.984" svgx:width="0.54,0.59,0.46,0.26,0.57,0.46,0.89,0.48,0.59,0.57,0.26,0.31,0.57,0.35,0.26,0.39,0.43,0.3,0.46,0.59,0.31,0.3,0.31,0.3,0.43,0.26,0.46,0.48,0.3,0.57,0.46,0.59,0.43,0.46,0.26,0.57,0.59,0.26,0.59,0.57,0.59,0.31,0.57,0.59,0.48,0.35,0.89,0.48,0.43,0.46,0.57,0.31,0.3,0.31" style="fill:rgb(0,0,0);font-family:Giovanni-Book;font-size:9.72px;stroke:none;">The demand for scientific evidence on non-pharmaceuti-</text>
   <text y="575.28" x="313.08,317.221,321.896,324.773,327.713,333.293,338.872,344.451,347.328,350.206,354.346,357.287,363.05,367.551,372.291,375.171,378.233,383.997,386.937,389.814,395.578,398.64,403.141,406.562,411.237,415.738,421.558,424.62,427.497,433.076,438.84,442.621,445.562,448.623,454.203,457.624,460.564,463.441,469.205,472.326,475.206,480.785,485.285,491.049,495.55,500.225,503.165,506.042,509.823,512.764,518.343,522.843,526.265,530.94,535.615,539.396,542.337,547.017,551.517" svgx:width="0.43,0.48,0.3,0.26,0.57,0.57,0.57,0.3,0.3,0.43,0.26,0.59,0.46,0.48,0.3,0.31,0.59,0.26,0.3,0.59,0.31,0.46,0.35,0.48,0.46,0.59,0.31,0.3,0.57,0.59,0.39,0.26,0.31,0.57,0.35,0.26,0.3,0.59,0.31,0.3,0.57,0.46,0.59,0.46,0.48,0.26,0.3,0.39,0.26,0.57,0.46,0.35,0.48,0.48,0.39,0.3,0.48,0.46,0.26" style="fill:rgb(0,0,0);font-family:Giovanni-Book;font-size:9.72px;stroke:none;">cal public health interventions for influenza is pervasive,</text>
   <text y="587.04" x="313.08,317.756,323.521,329.101,331.802,337.382,342.962,345.84,348.718,352.918,357.595,360.295,363.717,368.219,372.36,377.941,386.583,395.283,399.784,405.549,411.13,415.806,418.869,421.747,427.327,433.147,436.929,439.63,448.272,453.852,457.634,460.697,463.397,466.819,471.321,474.199,478.875,481.575,487.396,491.896,496.572,501.249,504.127,507.005,511.681,514.381,519.962,525.727,528.427,532.928,537.429,543.01,547.511,550.991" svgx:width="0.48,0.59,0.57,0.26,0.57,0.57,0.3,0.3,0.43,0.48,0.26,0.35,0.46,0.43,0.57,0.89,0.89,0.46,0.59,0.57,0.48,0.31,0.3,0.57,0.59,0.39,0.26,0.89,0.57,0.39,0.31,0.26,0.35,0.46,0.3,0.48,0.26,0.59,0.46,0.48,0.48,0.3,0.3,0.48,0.26,0.57,0.59,0.26,0.46,0.46,0.57,0.46,0.35,0.31" style="fill:rgb(0,0,0);font-family:Giovanni-Book;font-size:9.72px;stroke:none;">and policy recommendations must rely heavily on expert</text>
   <text y="598.801" x="313.08,315.782,321.361,326.941,331.616,340.257,344.817,350.581,353.643,356.16,358.8,362.037,367.801,370.501,373.563,379.327,383.827,386.467,391.142,396.782,400.563,405.063,410.827,414.968,419.468,422.169,427.748,430.81,433.45,438.125,440.765,446.344,450.904,453.966,456.843,462.607,465.484,468.546,471.423,476.098,480.598,483.299,487.08,491.22,494.097,498.598,504.362,508.502,513.003,515.703,521.282,525.958,529.739,534.239,536.756,539.396,544.976,550.615" svgx:width="0.28,0.57,0.57,0.48,0.89,0.46,0.59,0.31,0.26,0.26,0.33,0.59,0.26,0.31,0.59,0.46,0.26,0.48,0.57,0.39,0.46,0.59,0.43,0.46,0.26,0.57,0.31,0.26,0.48,0.26,0.57,0.46,0.31,0.3,0.59,0.3,0.31,0.3,0.48,0.46,0.26,0.39,0.43,0.3,0.46,0.59,0.43,0.46,0.26,0.57,0.48,0.39,0.46,0.26,0.26,0.57,0.57,0.35" style="fill:rgb(0,0,0);font-family:Giovanni-Book;font-size:9.72px;stroke:none;">judgment. In the absence of a definitive science base, our</text>
   <text y="610.561" x="313.08,317.755,321.536,325.317,329.818,333.599,337.38,346.08,350.581,356.345,359.406,361.9332,364.147,369.726,372.846,375.3732,377.587,380.649,386.412,390.913,393.4402,395.653,400.154,404.894,407.771,413.35,417.851,423.615,427.756,432.256,434.78319999999997,436.996,439.873,445.513,450.013,455.777,458.839,461.716,464.778,467.655,472.155,477.735,480.2622,482.535,487.21,490.631,495.132,499.807,503.588,506.1152,508.328,511.39,517.03,520.451,522.9782,525.192,528.253,533.833,537.254,540.316,546.08,550.64" svgx:width="0.48,0.39,0.39,0.46,0.39,0.39,0.89,0.46,0.59,0.31,0.26,0.55,0.57,0.31,0.26,0.55,0.31,0.59,0.46,0.26,0.55,0.46,0.48,0.3,0.57,0.46,0.59,0.43,0.46,0.26,0.55,0.3,0.57,0.46,0.59,0.31,0.3,0.31,0.3,0.46,0.57,0.26,0.55,0.48,0.35,0.46,0.48,0.39,0.26,0.55,0.31,0.57,0.35,0.26,0.55,0.31,0.57,0.35,0.31,0.59,0.46,0.35" style="fill:rgb(0,0,0);font-family:Giovanni-Book;font-size:9.72px;stroke:none;">assessment of the evidence identified areas for further</text>
   <text y="622.261" x="313.08,315.958,321.723,326.399,330.901,334.683,337.745,340.624,345.364,350.04,353.103,355.981,361.561,367.326,369.666,374.342,378.124,380.464,387.667,392.169,395.047,397.925,400.264,404.941,408.723,411.062,416.883,422.463,428.228,431.291,436.871,442.636,447.312,450.792,459.434,464.11,468.252,472.753,478.334,481.396,484.274,488.474,493.151,496.029,498.309,503.949,509.529,515.109,517.987,520.865,525.007,527.347,533.112,537.613,542.289,545.167,548.287" svgx:width="0.3,0.59,0.48,0.46,0.39,0.31,0.3,0.48,0.48,0.31,0.3,0.57,0.59,0.26,0.48,0.39,0.26,0.74,0.46,0.3,0.3,0.26,0.48,0.39,0.26,0.59,0.57,0.59,0.31,0.57,0.59,0.48,0.35,0.89,0.48,0.43,0.46,0.57,0.31,0.3,0.43,0.48,0.3,0.26,0.57,0.57,0.57,0.3,0.3,0.43,0.26,0.59,0.46,0.48,0.3,0.31,0.59" style="fill:rgb(0,0,0);font-family:Giovanni-Book;font-size:9.72px;stroke:none;">investigation as well as non-pharmaceutical public health</text>
   <text y="634.021" x="313.08,315.957,321.721,324.783,329.283,332.705,337.38,341.94,347.7,350.762,353.639,359.218,364.982,368.763,371.29019999999997,372.063,375.125,380.889,385.564,388.626,391.865,396.425,400.925,406.505,411.005,414.427,417.488,421.269,423.7962,424.569,430.149,434.649,437.526,440.403,444.904,449.579,454.079,457.319,462.059,465.479,469.979,473.219,476.096,478.973,484.018,488.518,491.395,496.136,499.375,502.437,508.017,511.256,516.836,521.395,524.635,530.214,534.714,540.478,544.979,548.099,550.979" svgx:width="0.3,0.59,0.31,0.46,0.35,0.48,0.46,0.59,0.31,0.3,0.57,0.59,0.39,0.26,0.55,0.31,0.59,0.48,0.31,0.26,0.46,0.46,0.57,0.46,0.35,0.31,0.39,0.26,0.55,0.57,0.46,0.3,0.3,0.46,0.48,0.46,0.26,0.48,0.35,0.46,0.26,0.3,0.3,0.52,0.46,0.3,0.48,0.26,0.31,0.57,0.26,0.57,0.46,0.26,0.57,0.46,0.59,0.46,0.31,0.3,0.31" style="fill:rgb(0,0,0);font-family:Giovanni-Book;font-size:9.72px;stroke:none;">interventions that experts believe are likely to be benefi-</text>
   <text y="645.781" x="313.08,317.223,320.102,324.779,327.658,330.177,332.757,335.821,340.323,345.064,348.844,351.723,357.304,360.183,364.685,367.205,369.784,374.462,380.228,385.867,388.447,392.23,397.811,401.954,404.833,409.51,412.389,415.268,419.946,422.525,427.202,433.023,438.604,441.184,446.765,452.346,455.225,458.104,461.168,464.047,468.247,472.924,475.803,478.683,483.36,485.94,490.617,494.759,498.902,503.404,508.986,512.106,516.783,522.364,525.243,529.746,532.325,535.204,540.97,543.55,548.227" svgx:width="0.43,0.3,0.48,0.3,0.26,0.26,0.31,0.46,0.48,0.39,0.3,0.57,0.3,0.46,0.26,0.26,0.48,0.59,0.57,0.26,0.39,0.57,0.43,0.3,0.48,0.3,0.3,0.48,0.26,0.48,0.59,0.57,0.26,0.57,0.57,0.3,0.3,0.31,0.3,0.43,0.48,0.3,0.3,0.48,0.26,0.48,0.43,0.43,0.46,0.57,0.31,0.48,0.57,0.3,0.46,0.26,0.3,0.59,0.26,0.48,0.59" style="fill:rgb(0,0,0);font-family:Giovanni-Book;font-size:9.72px;stroke:none;">cial, feasible, and socially and politically acceptable in an</text>
   <text y="657.541" x="313.08,315.958,321.723,324.786,327.664,333.244,337.745,343.566,348.066,352.742,355.2692,357.243,362.823,367.499,373.32,378.9,383.401,392.043,394.921,399.063,401.582,404.1092,406.141,411.362,416.038,421.084,425.585,431.35,433.8772,435.91,438.973,444.553,449.229,453.73,456.793,462.613,467.115,470.537,473.056,475.5832,477.556,480.619,486.439,490.941,493.46819999999997,495.441,498.319,501.197,504.26,508.761,512.184,516.86,519.98,525.56,528.983,533.484,536.0112,537.984,542.661,548.481" svgx:width="0.3,0.59,0.31,0.3,0.57,0.46,0.59,0.46,0.48,0.26,0.55,0.57,0.48,0.59,0.57,0.46,0.89,0.3,0.43,0.26,0.26,0.55,0.54,0.48,0.52,0.46,0.59,0.26,0.55,0.31,0.57,0.48,0.46,0.31,0.59,0.46,0.35,0.26,0.26,0.55,0.31,0.59,0.46,0.26,0.55,0.3,0.3,0.31,0.46,0.35,0.48,0.31,0.57,0.35,0.46,0.26,0.55,0.48,0.59,0.57" style="fill:rgb(0,0,0);font-family:Giovanni-Book;font-size:9.72px;stroke:none;">influenza pandemic. Taken together, the literature and</text>
   <text y="669.302" x="313.08,317.58,322.081,327.66,332.16,335.582,338.702,341.2292,343.922,349.501,355.08,357.957,363.721,366.598,372.238,377.998,380.5252,383.218,386.639,391.139,395.815,400.374,405.05,407.927,410.4542,413.146,416.208,421.972,426.473,429.0002,431.752,436.797,439.674,445.438,451.017,454.799,457.3262,460.078,465.658,468.72,471.2472,473.939,478.499,482.999,488.578,491.456,494.333,498.473,501.35,504.412,506.93919999999997,509.632,512.392,517.972,523.551,528.226,536.867,541.368,547.132,550.252" svgx:width="0.46,0.46,0.57,0.46,0.35,0.31,0.26,0.55,0.57,0.57,0.3,0.59,0.3,0.57,0.59,0.26,0.55,0.35,0.46,0.48,0.46,0.48,0.3,0.26,0.55,0.31,0.59,0.46,0.26,0.55,0.52,0.3,0.59,0.57,0.39,0.26,0.55,0.57,0.31,0.26,0.55,0.46,0.46,0.57,0.3,0.3,0.43,0.3,0.31,0.26,0.55,0.28,0.57,0.57,0.48,0.89,0.46,0.59,0.31,0.39" style="fill:rgb(0,0,0);font-family:Giovanni-Book;font-size:9.72px;stroke:none;">expert opinion reveal the kinds of explicit judgments</text>
   <text y="681.062" x="313.08,316.501,321.002,326.581,332.16,335.037,338.459,343.019,348.598,351.658,354.72,360.299,363.419,366.481,369.902,374.577,380.341,384.122,387.0,391.675,394.737,399.296,402.356,406.857,411.357,414.234,418.015,421.077,424.017,429.777,434.453,437.512,442.557,448.377,453.957,461.159,464.036,468.537,474.116,478.791,483.292,486.412,489.289,495.053,498.115,503.694,506.814,512.393,517.973,520.85,523.727,527.868,532.543,535.605,539.026,543.527,546.404,550.963" svgx:width="0.35,0.46,0.57,0.57,0.3,0.35,0.46,0.57,0.26,0.31,0.57,0.26,0.31,0.35,0.48,0.59,0.39,0.3,0.48,0.31,0.46,0.26,0.46,0.46,0.3,0.39,0.31,0.3,0.59,0.48,0.26,0.52,0.59,0.57,0.74,0.3,0.46,0.57,0.48,0.46,0.26,0.3,0.59,0.31,0.57,0.26,0.57,0.57,0.3,0.3,0.43,0.48,0.31,0.35,0.46,0.3,0.46,0.31" style="fill:rgb(0,0,0);font-family:Giovanni-Book;font-size:9.72px;stroke:none;">required to translate existing knowledge into policy-rele-</text>
   <text y="692.762" x="313.08,317.755,322.431,328.195,331.256,333.896,336.958,341.458,344.88,353.58,357.361,359.879,362.459,367.738,373.499,377.999,381.78,386.28,388.92,391.982,394.859,400.623,406.202,409.08,414.9,419.575,423.356,425.996,429.777,435.541,441.12,446.7,449.577,455.156,457.796,463.375,467.876,470.516,474.656,480.236,486.056,489.836,492.713,498.293,502.793,506.214,510.715,516.294,518.934,521.811,527.575,530.215,533.277,538.856,542.278,550.978" svgx:width="0.48,0.48,0.59,0.31,0.26,0.31,0.46,0.35,0.89,0.39,0.26,0.26,0.54,0.59,0.46,0.39,0.46,0.26,0.31,0.3,0.59,0.57,0.3,0.59,0.48,0.39,0.26,0.39,0.59,0.57,0.57,0.3,0.57,0.26,0.57,0.46,0.26,0.43,0.57,0.59,0.39,0.3,0.57,0.46,0.35,0.46,0.57,0.26,0.3,0.59,0.26,0.31,0.57,0.35,0.89,0.31" style="fill:rgb(0,0,0);font-family:Giovanni-Book;font-size:9.72px;stroke:none;">vant terms. These findings should be considered in form-</text>
   <text y="704.522" x="313.08,315.958,321.723,326.399,328.92,334.685,339.361,342.481,345.361,350.941,356.706,361.383,364.261,366.779,369.299,373.082,376.144,380.821,383.883,388.443,390.963,393.484,396.362,401.942,406.084,410.76,413.638,416.157,418.677,423.353,429.118,434.699,437.219,440.339,445.019,449.161,452.039,454.917,457.795,460.858,465.534,468.055,473.635,478.311,484.076,489.716,494.217,502.859,505.737,509.879,512.399,517.98,520.858,525.534,531.299,535.139" svgx:width="0.3,0.59,0.48,0.26,0.59,0.48,0.31,0.3,0.57,0.59,0.48,0.3,0.26,0.26,0.39,0.31,0.48,0.31,0.46,0.26,0.26,0.3,0.57,0.43,0.48,0.3,0.26,0.26,0.48,0.59,0.57,0.26,0.31,0.48,0.43,0.3,0.3,0.3,0.31,0.48,0.26,0.57,0.48,0.59,0.57,0.46,0.89,0.3,0.43,0.26,0.57,0.3,0.48,0.59,0.39,0.26" style="fill:rgb(0,0,0);font-family:Giovanni-Book;font-size:9.72px;stroke:none;">ing national, state, local, and facility pandemic plans.</text>
  </g>
 </g>
</svg>
