<?xml version="1.0" encoding="UTF-8"?>
<svg height="755.342" width="554.4707999999999" xmlns="http://www.w3.org/2000/svg">
 <g id="page" xmlns:svgx="http://www.xml-cml.org/schema/svgx">
  <g begin="text">
   <text y="66.274" x="51.024,54.341,58.794,63.776,68.757,73.21,77.664,82.644,86.683,89.482,94.464,98.946,102.954,106.271,109.589,114.042,119.023,124.005,128.458,133.439,137.989,142.969,146.946,151.928,155.2148,159.193,164.239,168.692,172.009,174.809,177.608,182.062,184.861,189.842,194.296,197.095,199.895,204.876,209.856,213.901,216.701,221.68099999999998,225.693,230.674,235.127,237.927,242.908,247.361,250.679,253.478,258.574,263.556,267.3408,271.33,278.484,281.283,284.083" svgx:width="0.33,0.45,0.5,0.5,0.45,0.45,0.5,0.55,0.28,0.5,0.45,0.55,0.33,0.33,0.45,0.5,0.5,0.45,0.5,0.45,0.5,0.55,0.5,0.33,0.55,0.5,0.45,0.33,0.28,0.28,0.45,0.28,0.5,0.45,0.28,0.28,0.5,0.5,0.55,0.28,0.5,0.55,0.5,0.45,0.28,0.5,0.45,0.33,0.28,0.5,0.5,0.38,0.55,0.72,0.28,0.28,0.5" style="fill:rgb(0,0,0);font-family:AdvPTimes;font-size:9.96px;stroke:none;">reduced the frequency of participating in gatherings with</text>
   <text y="78.746" x="51.024,54.341,57.659,60.458,64.911,69.893,74.874,78.6588,82.148" svgx:width="0.33,0.33,0.28,0.45,0.5,0.5,0.38,0.55,0.33" style="fill:rgb(0,0,0);font-family:AdvPTimes;font-size:9.96px;stroke:none;">friends [</text>
   <text y="78.746" x="85.493,90.474" svgx:width="0.5,0.5" style="fill:rgb(0,0,255);font-family:AdvPTimes;font-size:9.96px;stroke:none;">22</text>
   <text y="78.746" x="95.471,98.788,101.27799999999999,104.655,110.155,115.136,122.917,127.399,130.79,135.771,140.225,143.024,145.824,150.804,154.261,157.579,162.56,167.541,170.341,173.14,178.121,182.663,186.499,188.989,192.358,196.194,201.175,205.628,210.60799999999998,214.015,218.468,222.25279999999998,225.693,230.674,235.655,238.455,243.436,248.416,251.884,254.684,259.664,263.053,266.888,271.341,276.323,281.304,286.285" svgx:width="0.33,0.25,0.55,0.55,0.5,0.78,0.45,0.55,0.5,0.45,0.28,0.28,0.5,0.55,0.33,0.5,0.5,0.28,0.28,0.5,0.45,0.38,0.25,0.55,0.38,0.5,0.45,0.5,0.55,0.45,0.38,0.55,0.5,0.5,0.28,0.5,0.5,0.55,0.28,0.5,0.55,0.38,0.45,0.5,0.5,0.5,0.28" style="fill:rgb(0,0,0);font-family:AdvPTimes;font-size:9.96px;stroke:none;">]. Some daily routines, such as going to school</text>
   <text y="91.162" x="51.024,56.005,59.2918,61.966,69.119,74.1,77.418,82.399,84.889,87.534,94.687,99.14,102.458,106.94,109.587,113.422,117.876,121.193,123.993,128.974,133.955,137.791,140.59,145.57,148.251,152.704,156.021,159.339,163.792,168.246,171.045,175.498,180.48,182.97,185.667,192.302,195.102,199.555,203.391,207.324,211.777,215.56179999999998,218.209,222.662,225.45080000000002,228.073,230.872,235.854,240.336,242.983,247.964,252.945,255.745,260.726,265.18,268.497,272.333,275.132,278.018,280.818,285.271" svgx:width="0.5,0.33,0.55,0.72,0.5,0.33,0.5,0.25,0.55,0.72,0.45,0.33,0.45,0.55,0.38,0.45,0.33,0.28,0.5,0.5,0.38,0.28,0.5,0.55,0.45,0.33,0.33,0.45,0.45,0.28,0.45,0.5,0.25,0.55,0.67,0.28,0.45,0.38,0.38,0.45,0.38,0.55,0.45,0.28,0.55,0.28,0.5,0.45,0.55,0.5,0.5,0.28,0.5,0.45,0.33,0.38,0.28,0.28,0.28,0.45,0.38" style="fill:rgb(0,0,0);font-family:AdvPTimes;font-size:9.96px;stroke:none;">or work, were seriously affected. Classes at the universities</text>
   <text y="103.634" x="51.024,58.177,62.63,65.948,70.42999999999999,75.742,80.195,84.648,89.63,94.083,98.646,101.445,104.245,108.698,113.678,118.998,123.98,128.433,132.886,137.34,142.413,146.248,150.73,155.962,159.797,164.779,168.614,173.595,178.128,182.582,185.381,189.834,194.814,200.182,204.635,209.088,212.924,217.377,221.1618,226.544,233.697,238.15,241.468,245.95,251.262,254.061,259.043,263.496,268.553,271.352,274.152,279.651,284.105" svgx:width="0.72,0.45,0.33,0.45,0.55,0.45,0.45,0.5,0.45,0.45,0.28,0.28,0.45,0.5,0.55,0.5,0.45,0.45,0.45,0.5,0.38,0.45,0.55,0.38,0.5,0.38,0.5,0.45,0.45,0.28,0.45,0.5,0.55,0.45,0.45,0.38,0.45,0.38,0.55,0.72,0.45,0.33,0.45,0.55,0.28,0.5,0.45,0.5,0.28,0.28,0.55,0.45,0.5" style="fill:rgb(0,0,0);font-family:AdvPTimes;font-size:9.96px;stroke:none;">were cancelled because suspected cases were identiﬁed</text>
   <text y="116.106" x="51.024,55.477,63.258,68.239,73.22,78.2,82.091,85.927,88.726,93.707,98.758,103.212,108.193,110.992,114.77680000000001,118.714,123.696,126.9828,130.847,135.828,140.81,143.609,148.59,153.044,156.361,160.197,162.996,165.882,170.862,174.726,179.707,184.161,187.478,191.314,196.295,201.276,206.258,210.711,213.49980000000002,217.415" svgx:width="0.45,0.78,0.5,0.5,0.5,0.55,0.38,0.28,0.5,0.5,0.45,0.5,0.28,0.38,0.55,0.5,0.33,0.55,0.5,0.5,0.28,0.5,0.45,0.33,0.38,0.28,0.28,0.5,0.55,0.5,0.45,0.33,0.38,0.5,0.5,0.5,0.45,0.28,0.55,0.33" style="fill:rgb(0,0,0);font-family:AdvPTimes;font-size:9.96px;stroke:none;">among students or university personnel [</text>
   <text y="116.106" x="220.761,225.743" svgx:width="0.5,0.5" style="fill:rgb(0,0,255);font-family:AdvPTimes;font-size:9.96px;stroke:none;">41</text>
   <text y="116.106" x="230.739,234.056,236.547,239.865,242.65380000000002,246.5,249.299,253.0838,257.044,262.025,267.007,269.7958,273.655,277.49,282.472,285.789" svgx:width="0.33,0.25,0.33,0.28,0.55,0.28,0.38,0.55,0.5,0.5,0.28,0.55,0.38,0.5,0.33,0.33" style="fill:rgb(0,0,0);font-family:AdvPTimes;font-size:9.96px;stroke:none;">].It is not sur-</text>
   <text y="128.521" x="51.024,56.005,59.322,62.122,65.958,68.757,73.814,78.794,85.039,87.838,92.82,97.273,100.06179999999999,106.355,114.136,118.589,123.57,128.54999999999998,134.814,139.795,144.777,148.612,151.481,156.463,160.916,164.752,168.587,173.041,176.8258,183.172,187.008,191.989,195.307,198.624,203.078,206.395,210.951,215.93099999999998,222.176,227.157,231.611,236.064,240.517,245.59,249.426,253.908,260.104,265.085,268.3718,274.674,277.473,282.455,285.254" svgx:width="0.5,0.33,0.28,0.38,0.28,0.5,0.5,0.55,0.28,0.5,0.45,0.28,0.55,0.78,0.45,0.5,0.5,0.55,0.5,0.5,0.38,0.28,0.5,0.45,0.38,0.38,0.45,0.38,0.55,0.38,0.5,0.33,0.33,0.45,0.33,0.45,0.5,0.55,0.5,0.45,0.45,0.45,0.5,0.38,0.45,0.55,0.5,0.33,0.55,0.28,0.5,0.28,0.38" style="fill:rgb(0,0,0);font-family:AdvPTimes;font-size:9.96px;stroke:none;">prising that many businesses suffered because of this</text>
   <text y="140.994" x="51.024,54.341,58.794,63.776,68.757,73.21,76.01,78.916,83.897,88.87700000000001,91.615,94.415,99.39500000000001,102.103,105.938,110.92,115.373,118.173,122.626,125.4148,128.238,132.691,137.672,142.654,145.453,149.906,154.36,157.159,160.995,163.485,166.278,173.431,177.884,182.338,187.319,190.636,195.618,198.536,203.517,208.49699999999999,211.235,214.035,219.015,221.723,224.522,229.503,233.98499999999999,236.689,240.525,244.978,252.847,257.329,259.99,263.826,268.807,272.124,277.106,281.647,286.628" svgx:width="0.33,0.45,0.5,0.5,0.45,0.28,0.28,0.5,0.5,0.55,0.28,0.5,0.55,0.38,0.5,0.45,0.28,0.45,0.28,0.55,0.45,0.5,0.5,0.28,0.45,0.45,0.28,0.38,0.25,0.55,0.72,0.45,0.45,0.5,0.33,0.5,0.28,0.5,0.5,0.55,0.28,0.5,0.55,0.28,0.5,0.45,0.55,0.38,0.45,0.78,0.45,0.55,0.38,0.5,0.33,0.5,0.45,0.5,0.25" style="fill:rgb(0,0,0);font-family:AdvPTimes;font-size:9.96px;stroke:none;">reduction in social contacts. According to the same survey,</text>
   <text y="153.466" x="51.024,55.477,60.458,65.439,70.421,73.2098,77.669,82.65,87.631,95.8978,100.402,105.384,108.6708,113.102,116.419,120.872,124.708,129.769,134.75,139.732,144.713,149.166,154.147,156.947,160.7318,165.258,168.575,173.029,178.01,182.991,187.444,191.898,196.878,201.37,204.17,209.151,213.604,216.404,219.6908,224.161,229.142,231.941,235.777,238.576,241.452,245.2368,249.672,252.471,257.451,261.861,265.178,269.632,273.467,276.267,280.72,285.701" svgx:width="0.45,0.5,0.5,0.5,0.28,0.55,0.5,0.5,0.83,0.55,0.5,0.33,0.55,0.33,0.45,0.38,0.5,0.5,0.5,0.5,0.45,0.5,0.28,0.38,0.55,0.33,0.45,0.5,0.5,0.45,0.45,0.5,0.55,0.28,0.5,0.45,0.28,0.33,0.55,0.5,0.28,0.38,0.28,0.28,0.38,0.55,0.28,0.5,0.55,0.33,0.45,0.38,0.28,0.45,0.5,0.33" style="fill:rgb(0,0,0);font-family:AdvPTimes;font-size:9.96px;stroke:none;">about 40% of respondents reduced their visits to restau-</text>
   <text y="165.881" x="51.024,54.341,58.794,63.776,66.575,70.411,72.901,76.309,80.762,85.743,90.723,94.053,99.034,104.016,112.28280000000001,115.653,118.971,123.424,128.405,133.386,137.933,142.387,147.367,150.689,153.489,158.47,162.923,165.723,169.0098,172.46,177.441,180.24,184.076,186.876,189.675,193.4598,196.837,199.637,204.617,208.005,212.986,217.44,222.421,226.874,230.192,232.991,240.772,245.225,250.207,252.9958,256.42,260.256,263.055,268.037,271.354,275.808,279.643" svgx:width="0.33,0.45,0.5,0.28,0.38,0.25,0.55,0.45,0.5,0.5,0.55,0.5,0.5,0.83,0.55,0.33,0.45,0.5,0.5,0.45,0.45,0.5,0.55,0.28,0.5,0.45,0.28,0.33,0.55,0.5,0.28,0.38,0.28,0.28,0.38,0.55,0.28,0.5,0.55,0.5,0.45,0.5,0.45,0.33,0.28,0.78,0.45,0.5,0.28,0.55,0.38,0.28,0.5,0.33,0.45,0.38,0.25" style="fill:rgb(0,0,0);font-family:AdvPTimes;font-size:9.96px;stroke:none;">rants, and 30% reduced their visits to department stores.</text>
   <text y="178.353" x="62.362,68.479,73.46,77.942,80.504,83.821,88.275,93.256,98.237,102.691,105.49,108.29,113.271,118.251,120.868,123.668,128.648,131.187,135.022,140.004,144.457,147.256,151.71,154.49880000000002,157.095,161.549,166.002,168.801,171.601,176.582,179.382,182.267,185.066,189.52,193.3048,195.873,203.026,207.479,211.2638,213.901,216.701,221.154,224.471,229.453,233.906,236.805,241.785,244.289,248.771,251.262,254.579,259.033,264.532,268.985,273.542,276.342,279.141,284.122" svgx:width="0.61,0.5,0.45,0.55,0.33,0.45,0.5,0.5,0.45,0.28,0.28,0.5,0.5,0.55,0.28,0.5,0.55,0.38,0.5,0.45,0.28,0.45,0.28,0.55,0.45,0.45,0.28,0.28,0.5,0.28,0.28,0.28,0.45,0.38,0.55,0.72,0.45,0.38,0.55,0.28,0.45,0.33,0.5,0.45,0.28,0.5,0.55,0.45,0.55,0.33,0.45,0.55,0.45,0.45,0.28,0.28,0.5,0.5" style="fill:rgb(0,0,0);font-family:AdvPTimes;font-size:9.96px;stroke:none;">The reduction in social activities was largely a reﬂection</text>
   <text y="190.769" x="51.024,56.005,59.2918,64.857,69.31,74.291,78.745,83.726,88.707,93.259,97.0438,102.613,105.412,110.39200000000001,115.936,119.772,124.753,129.206,132.006,136.459,139.2478,144.849,148.167,152.62,155.42,159.873,162.764,165.564,170.545,175.526,179.362,181.852,187.425,192.925,197.906,202.887,205.687,208.486,212.968,218.493,221.81,226.264,230.717,234.0038,239.639,244.093,249.074,254.054,259.596,264.049,269.03,274.011,276.887,281.34,284.139" svgx:width="0.5,0.33,0.55,0.45,0.5,0.45,0.5,0.5,0.45,0.38,0.55,0.28,0.5,0.55,0.38,0.5,0.45,0.28,0.45,0.28,0.55,0.33,0.45,0.28,0.45,0.28,0.28,0.5,0.5,0.38,0.25,0.55,0.55,0.5,0.5,0.28,0.28,0.45,0.55,0.33,0.45,0.45,0.33,0.55,0.45,0.5,0.5,0.55,0.45,0.5,0.5,0.28,0.45,0.28,0.5" style="fill:rgb(0,0,0);font-family:AdvPTimes;font-size:9.96px;stroke:none;">of changes in social relations. Public fear and anxiety</text>
   <text y="203.241" x="51.024,53.823,58.804,61.604,66.057,71.038,74.874,77.674,83.281,87.735,92.716,95.20599999999999,100.233,105.732,110.267,115.248,120.23,123.029,127.511,132.548,139.701,144.682,148.0,152.482,157.549,165.329,169.783,173.618,178.6,182.38479999999998,187.539,191.992,194.792,197.5808,202.676,205.476,210.457,214.939,219.967,222.767,225.566,233.347,237.829,242.928,247.909,252.891,255.69,259.526,262.325,267.307,271.78900000000004,276.887,279.686,284.667" svgx:width="0.28,0.5,0.28,0.45,0.5,0.38,0.28,0.55,0.45,0.5,0.25,0.55,0.55,0.45,0.5,0.5,0.28,0.45,0.55,0.72,0.5,0.33,0.45,0.55,0.78,0.45,0.38,0.5,0.38,0.55,0.45,0.28,0.28,0.55,0.28,0.5,0.45,0.55,0.28,0.28,0.78,0.45,0.55,0.5,0.5,0.28,0.38,0.28,0.5,0.45,0.55,0.28,0.5,0.45" style="fill:rgb(0,0,0);font-family:AdvPTimes;font-size:9.96px;stroke:none;">intensiﬁed. People wore masks all the time outside the</text>
   <text y="215.713" x="51.024,56.005,60.986,68.767,73.22,75.71,79.71,82.509,87.489,91.445,94.244,99.226,103.708,107.602,112.055,114.855,119.394,123.23,127.065,130.383,135.364,140.345,148.1138,152.105,156.558,161.54,166.51999999999998,170.473,174.926,177.7148,181.698,188.851,193.832,197.15,202.13,206.076" svgx:width="0.5,0.5,0.78,0.45,0.25,0.55,0.28,0.5,0.55,0.28,0.5,0.45,0.55,0.45,0.28,0.45,0.38,0.38,0.33,0.5,0.5,0.78,0.55,0.45,0.5,0.5,0.55,0.45,0.28,0.55,0.72,0.5,0.33,0.5,0.55,0.33" style="fill:rgb(0,0,0);font-family:AdvPTimes;font-size:9.96px;stroke:none;">home, in the classroom and at work [</text>
   <text y="215.713" x="209.423,214.404" svgx:width="0.5,0.5" style="fill:rgb(0,0,255);font-family:AdvPTimes;font-size:9.96px;stroke:none;">42</text>
   <text y="215.713" x="219.4,222.718,225.208,229.152,237.969,242.422,247.403,252.38299999999998,256.364,260.199,262.999,267.98,273.031,277.484,282.466,285.265" svgx:width="0.33,0.25,0.55,0.88,0.45,0.5,0.5,0.55,0.38,0.28,0.5,0.5,0.45,0.5,0.28,0.38" style="fill:rgb(0,0,0);font-family:AdvPTimes;font-size:9.96px;stroke:none;">]. Many students</text>
   <text y="228.128" x="51.024,58.177,62.63,65.948,70.42999999999999,74.664,79.117,84.098,87.934,92.387,97.369,100.1578,104.427,107.745,111.062,116.043,123.8118,128.067,133.049,135.848,140.829,145.809,150.007,153.843,158.296,163.277,168.258,173.24,176.02880000000002,180.28,185.262,189.715,194.168,198.621,203.694,207.53,212.012,216.167,221.148,225.601,228.919,233.458,238.439,241.238,245.0228,249.275,254.257,258.71,263.691,266.47979999999995,270.705,273.504,278.486,282.939,285.738" svgx:width="0.72,0.45,0.33,0.45,0.55,0.45,0.5,0.38,0.45,0.5,0.28,0.55,0.33,0.33,0.5,0.78,0.55,0.5,0.28,0.5,0.5,0.55,0.38,0.45,0.5,0.5,0.5,0.28,0.55,0.5,0.45,0.45,0.45,0.5,0.38,0.45,0.55,0.5,0.45,0.33,0.45,0.5,0.28,0.38,0.55,0.5,0.45,0.5,0.28,0.55,0.28,0.5,0.45,0.28,0.33" style="fill:rgb(0,0,0);font-family:AdvPTimes;font-size:9.96px;stroke:none;">were absent from high school because parents kept their</text>
   <text y="240.601" x="51.024,55.477,60.458,63.258,66.057,71.038,74.438,78.891,83.87100000000001,89.575,94.028,96.8168,102.5,107.482,112.463,120.244,124.726,130.449" svgx:width="0.45,0.5,0.28,0.28,0.5,0.33,0.45,0.5,0.55,0.45,0.28,0.55,0.5,0.5,0.78,0.45,0.55,0.33" style="fill:rgb(0,0,0);font-family:AdvPTimes;font-size:9.96px;stroke:none;">children at home [</text>
   <text y="240.601" x="133.795,138.776" svgx:width="0.5,0.5" style="fill:rgb(0,0,255);font-family:AdvPTimes;font-size:9.96px;stroke:none;">43</text>
   <text y="240.601" x="143.772,147.09,149.58,155.281,160.781,165.762,170.743,173.543,176.342,180.824,186.519,189.318,192.636,197.617,201.453,204.2418,209.99,214.443,219.424,224.404,230.115,237.268,240.068,242.867,245.667,248.466,253.529,258.511,263.492,267.945,271.781,275.5658,281.308,284.107" svgx:width="0.33,0.25,0.55,0.55,0.5,0.5,0.28,0.28,0.45,0.55,0.28,0.33,0.5,0.38,0.28,0.55,0.45,0.5,0.5,0.55,0.72,0.28,0.28,0.28,0.28,0.5,0.5,0.5,0.45,0.38,0.38,0.55,0.28,0.5" style="fill:rgb(0,0,0);font-family:AdvPTimes;font-size:9.96px;stroke:none;">]. Public trust and willingness to</text>
   <text y="253.073" x="51.024,58.804,63.258,66.057,71.038,73.838,78.291,81.183,86.16300000000001,88.95,92.268,96.721,101.174,103.974,108.955,112.273,117.254,121.707,126.161,128.9498,131.809,135.127,139.58,142.38,146.833,149.724,152.524,157.505,162.486,166.27079999999998,169.112,174.094,177.411,182.392,187.374,192.355,196.808,201.78799999999998,204.601,207.4,212.38,215.145,217.945,222.926,227.408,230.169,232.968,237.95,245.103,249.556,253.392,256.1808,259.026,261.825,266.278,271.26,275.713,278.5018,281.306,284.105" svgx:width="0.78,0.45,0.28,0.5,0.28,0.45,0.28,0.5,0.55,0.33,0.45,0.45,0.28,0.5,0.33,0.5,0.45,0.45,0.28,0.55,0.33,0.45,0.28,0.45,0.28,0.28,0.5,0.5,0.38,0.55,0.5,0.33,0.5,0.5,0.5,0.45,0.5,0.55,0.28,0.5,0.55,0.28,0.5,0.45,0.55,0.28,0.5,0.72,0.45,0.38,0.28,0.55,0.28,0.45,0.5,0.45,0.28,0.55,0.28,0.5" style="fill:rgb(0,0,0);font-family:AdvPTimes;font-size:9.96px;stroke:none;">maintain reciprocal relations dropped to the lowest level in</text>
   <text y="265.488" x="51.024,56.005,60.985,64.29,69.271,73.724,78.178,81.581,85.36580000000001,88.328" svgx:width="0.5,0.5,0.55,0.5,0.45,0.45,0.33,0.38,0.55,0.33" style="fill:rgb(0,0,0);font-family:AdvPTimes;font-size:9.96px;stroke:none;">13 years [</text>
   <text y="265.488" x="91.615,96.596" svgx:width="0.5,0.5" style="fill:rgb(0,0,255);font-family:AdvPTimes;font-size:9.96px;stroke:none;">38</text>
   <text y="265.488" x="101.593,104.91" svgx:width="0.33,0.25" style="fill:rgb(0,0,0);font-family:AdvPTimes;font-size:9.96px;stroke:none;">].</text>
   <text y="261.071" x="107.433" svgx:width="0.5" style="fill:rgb(0,0,255);font-family:AdvPTimes;font-size:6.64px;stroke:none;">5</text>
   <text y="265.493" x="114.066,120.183,125.234,129.716,132.605,136.44,139.24,142.039,147.02,151.474,154.273,157.073,162.141,167.12099999999998,170.021,174.474,177.792,181.109,185.563,190.016,192.815,197.269,202.249,205.227,208.026,211.344,216.395,220.23,223.0188,225.919,228.719,233.69899999999998,236.634,241.615,244.415,249.396,253.925,257.242,261.02680000000004,263.959,268.413,273.394,278.374,281.307,284.107" svgx:width="0.61,0.5,0.45,0.55,0.38,0.28,0.28,0.5,0.45,0.28,0.28,0.5,0.5,0.55,0.45,0.33,0.33,0.45,0.45,0.28,0.45,0.5,0.55,0.28,0.33,0.5,0.38,0.28,0.55,0.28,0.5,0.55,0.5,0.28,0.5,0.45,0.33,0.38,0.55,0.45,0.5,0.5,0.55,0.28,0.5" style="fill:rgb(0,0,0);font-family:AdvPTimes;font-size:9.96px;stroke:none;">The situation affected trust in others and in</text>
   <text y="277.965" x="51.024,53.823,58.805,62.64,65.44,68.239,71.039,76.02,78.916,81.716,86.697,91.678,95.514,98.00399999999999,104.314,109.295,113.748,117.066,119.865,122.665,127.218,132.199,134.999,139.452,142.769,145.569,150.54899999999998,156.867,159.667,164.648,169.629,173.535,178.017,184.306,187.106,192.087,196.54,199.3288,205.679,212.832,217.286,220.603,225.085,231.417,236.399,240.852,245.305,248.105,250.904,255.886,259.31,262.627,267.081,269.88,274.333,277.133,281.586,286.567" svgx:width="0.28,0.5,0.38,0.28,0.28,0.28,0.5,0.28,0.28,0.5,0.5,0.38,0.25,0.55,0.5,0.45,0.33,0.28,0.28,0.45,0.5,0.28,0.45,0.33,0.28,0.5,0.55,0.28,0.5,0.5,0.38,0.45,0.55,0.28,0.5,0.45,0.28,0.55,0.72,0.45,0.33,0.45,0.55,0.5,0.45,0.45,0.28,0.28,0.5,0.33,0.33,0.45,0.28,0.45,0.28,0.45,0.5,0.25" style="fill:rgb(0,0,0);font-family:AdvPTimes;font-size:9.96px;stroke:none;">institutions, particularly those that were health-related.</text>
   <text y="290.437" x="51.024,57.141,64.294,69.274,72.907,75.706,80.159,82.959,87.412,92.393,97.375,102.443,107.424,111.906,115.539,119.374,124.355,127.673,132.654,137.108,142.089,145.8738,149.611,154.064,159.045,164.027,169.008,173.989,178.523,181.323,185.776,190.756,194.396,199.378,204.359,207.677,210.476,215.457,220.43699999999998,224.103,226.902,231.884,234.683,238.46779999999998,242.188,247.169,251.623,254.94,257.74,262.721,267.701,271.328,275.781,280.762,285.743" svgx:width="0.61,0.72,0.5,0.55,0.28,0.45,0.28,0.45,0.5,0.5,0.5,0.5,0.45,0.55,0.38,0.5,0.33,0.5,0.45,0.5,0.38,0.55,0.45,0.5,0.5,0.5,0.5,0.45,0.28,0.45,0.5,0.55,0.5,0.5,0.33,0.28,0.5,0.5,0.55,0.28,0.5,0.28,0.38,0.55,0.5,0.45,0.33,0.28,0.5,0.5,0.55,0.45,0.5,0.5,0.33" style="fill:rgb(0,0,0);font-family:AdvPTimes;font-size:9.96px;stroke:none;">Two telephone surveys conducted during this period con-</text>
   <text y="302.853" x="51.024,54.859,57.659,61.494,64.294,68.747,73.814,76.614,79.413,84.393,87.761,91.596,96.578,101.559,108.794,113.247,118.227,121.607,124.406,129.388,133.841,136.62980000000002,140.032,145.013,149.994,154.447,157.7338,161.178,166.678,169.995,172.795,177.77499999999998,181.19,186.171,190.625,193.942,198.396,202.849,207.83,210.61880000000002,214.072,219.053,222.3398,225.75,228.549,233.531,238.013,241.397,244.715,249.168,253.003,258.064,263.046,268.027,273.008,277.462,282.443,285.242" svgx:width="0.38,0.28,0.38,0.28,0.45,0.5,0.28,0.28,0.5,0.55,0.38,0.5,0.5,0.72,0.45,0.5,0.55,0.28,0.5,0.45,0.28,0.55,0.5,0.5,0.45,0.33,0.55,0.55,0.33,0.28,0.5,0.55,0.5,0.45,0.33,0.45,0.45,0.5,0.28,0.55,0.5,0.33,0.55,0.28,0.5,0.45,0.55,0.33,0.45,0.38,0.5,0.5,0.5,0.5,0.45,0.5,0.28,0.38" style="fill:rgb(0,0,0);font-family:AdvPTimes;font-size:9.96px;stroke:none;">sistently showed that over ﬁfty percent of the respondents</text>
   <text y="315.325" x="51.024,56.005,58.805,63.785,68.599,73.58,78.561,81.3498,86.117,88.917,92.234,97.285,101.121,103.90979999999999,108.68,113.662,116.461,121.442,125.971,129.2578,134.022,136.822,141.803,146.784,149.669,154.651,157.45,162.432,167.413,171.866,174.666,178.4508,183.345,188.326,191.6128,196.384,201.43,205.883,210.337,213.136,215.936,220.916,225.694,228.493,233.475,237.31,240.11,242.985,245.785,250.766,253.565,256.365,261.346,266.399,270.1838,275.017" svgx:width="0.5,0.28,0.5,0.55,0.5,0.5,0.28,0.55,0.28,0.33,0.5,0.38,0.28,0.55,0.5,0.28,0.5,0.45,0.33,0.55,0.28,0.5,0.5,0.28,0.5,0.28,0.5,0.5,0.45,0.28,0.38,0.55,0.5,0.33,0.55,0.5,0.45,0.45,0.28,0.28,0.5,0.55,0.28,0.5,0.38,0.28,0.28,0.28,0.5,0.28,0.28,0.5,0.5,0.38,0.55,0.33" style="fill:rgb(0,0,0);font-family:AdvPTimes;font-size:9.96px;stroke:none;">did not trust other individuals or health institutions [</text>
   <text y="315.325" x="278.305" svgx:width="0.5" style="fill:rgb(0,0,255);font-family:AdvPTimes;font-size:9.96px;stroke:none;">4</text>
   <text y="315.325" x="283.294,286.611" svgx:width="0.33,0.25" style="fill:rgb(0,0,0);font-family:AdvPTimes;font-size:9.96px;stroke:none;">].</text>
   <text y="327.797" x="51.024,58.1952,63.099,66.935,71.916,76.898,80.733,83.533,87.986,92.967,95.867,98.667,103.12,105.9088,110.834,115.816,119.133,124.114,129.096,134.077,137.479,140.279,143.078,148.059,153.039,158.002,162.455,165.255,169.09,174.07,179.035,182.871,187.852,192.833,199.986,204.44,209.42,214.411,218.893,223.765,226.565,231.018,235.471,240.451,245.422,250.403,253.6898,258.631,261.431,264.748,269.73,273.565,276.3538,281.308,284.108" svgx:width="0.72,0.55,0.38,0.5,0.5,0.38,0.28,0.45,0.5,0.28,0.28,0.45,0.28,0.55,0.5,0.33,0.5,0.5,0.5,0.33,0.28,0.28,0.5,0.5,0.55,0.45,0.28,0.38,0.5,0.55,0.38,0.5,0.5,0.72,0.45,0.5,0.55,0.45,0.55,0.28,0.45,0.45,0.5,0.55,0.5,0.33,0.55,0.28,0.33,0.5,0.38,0.28,0.55,0.28,0.5" style="fill:rgb(0,0,0);font-family:AdvPTimes;font-size:9.96px;stroke:none;">A substantial proportion also showed a lack of trust in</text>
   <text y="340.213" x="51.024,56.005,60.986,65.968,70.421,73.814,78.796,86.576,91.03,96.011,98.79979999999999,106.186,111.167,114.485,119.984,124.437,127.237,131.69,134.489,138.325,140.815,148.195,155.976,160.429,165.486,168.286,172.739,177.192,179.98080000000002,187.369,191.822,196.803,201.785,206.238,209.556,212.355,216.281,218.77100000000002,226.089,230.543,235.524,240.504,247.86,252.841,257.294,261.748,264.547,267.347,272.328,276.886,281.339,284.657" svgx:width="0.5,0.5,0.5,0.45,0.33,0.5,0.78,0.45,0.5,0.28,0.55,0.5,0.33,0.55,0.45,0.28,0.45,0.28,0.38,0.25,0.55,0.78,0.45,0.5,0.28,0.45,0.45,0.28,0.55,0.45,0.5,0.5,0.45,0.33,0.28,0.38,0.25,0.55,0.45,0.5,0.5,0.55,0.5,0.45,0.45,0.28,0.28,0.5,0.45,0.45,0.33,0.45" style="fill:rgb(0,0,0);font-family:AdvPTimes;font-size:9.96px;stroke:none;">government ofﬁcials, medical experts, and healthcare</text>
   <text y="352.685" x="51.024,58.177,63.158,66.476,71.457,75.91,79.314,83.0988,89.405" svgx:width="0.72,0.5,0.33,0.5,0.45,0.33,0.38,0.55,0.33" style="fill:rgb(0,0,0);font-family:AdvPTimes;font-size:9.96px;stroke:none;">workers [</text>
   <text y="352.685" x="92.693" svgx:width="0.5" style="fill:rgb(0,0,255);font-family:AdvPTimes;font-size:9.96px;stroke:none;">4</text>
   <text y="352.685" x="97.683,101.0,103.49,109.758,115.875,120.857,123.656,127.44080000000001,133.796,137.114,141.567,145.402,150.384,155.365,160.346,164.182,168.664,174.954,177.754,182.735,187.717,190.516,194.969,199.423,202.337,206.79,211.76999999999998,217.984,220.783,225.765,230.218,233.0068,239.3,242.099,247.081,251.563,257.838,260.638,265.091,269.544,274.524,280.799,285.78" svgx:width="0.33,0.25,0.55,0.61,0.5,0.28,0.38,0.55,0.33,0.45,0.38,0.5,0.5,0.5,0.38,0.45,0.55,0.28,0.5,0.5,0.28,0.45,0.45,0.28,0.45,0.5,0.55,0.28,0.5,0.45,0.28,0.55,0.28,0.5,0.45,0.55,0.28,0.45,0.45,0.5,0.55,0.5,0.33" style="fill:rgb(0,0,0);font-family:AdvPTimes;font-size:9.96px;stroke:none;">]. This response indicated that the lack of</text>
   <text y="365.157" x="51.025,56.006,60.987,65.969,73.192,75.991,80.444,85.426,90.407,94.889,98.873,103.326,108.308,113.289,118.27,121.05879999999999,125.122,130.621,137.774,144.409,149.887,153.978,158.432,161.2208,165.26,168.059,173.041,177.523,181.531,186.512,190.965,195.947,198.746,203.727,208.709,211.508,216.566,221.546,225.524,230.505,233.7918,237.825,240.625,245.606,250.088,254.096,259.078,264.059,266.858,271.84,275.157,279.611,284.064" svgx:width="0.5,0.5,0.5,0.72,0.28,0.45,0.5,0.5,0.45,0.55,0.45,0.5,0.5,0.5,0.28,0.55,0.55,0.72,0.67,0.55,0.55,0.45,0.28,0.55,0.28,0.5,0.45,0.55,0.5,0.45,0.5,0.28,0.5,0.5,0.28,0.5,0.5,0.55,0.5,0.33,0.55,0.28,0.5,0.45,0.55,0.5,0.5,0.28,0.5,0.33,0.45,0.45,0.5" style="fill:rgb(0,0,0);font-family:AdvPTimes;font-size:9.96px;stroke:none;">knowledge about SARS at the beginning of the outbreak</text>
   <text y="377.572" x="51.025,55.478,58.796,63.249,67.702,70.502,75.063,80.043,84.19,88.644,93.62400000000001,97.739,102.193,107.174,112.155,115.03,118.348,123.329,128.311,136.091,140.545,145.526,148.31480000000002,152.504,157.55,160.8368,164.977,172.758,175.557,179.393,182.268,185.586,190.567,194.402,197.1908,201.373,204.173,209.153,213.279,216.078,221.059,225.541,229.663,234.116,239.098,246.954,254.735,259.716,264.698,267.497,270.297,275.357,277.84700000000004,281.933" svgx:width="0.45,0.33,0.45,0.45,0.28,0.45,0.5,0.55,0.45,0.5,0.55,0.45,0.5,0.5,0.28,0.33,0.5,0.5,0.78,0.45,0.5,0.28,0.55,0.5,0.33,0.55,0.78,0.28,0.38,0.28,0.33,0.5,0.38,0.28,0.55,0.28,0.5,0.55,0.28,0.5,0.45,0.55,0.45,0.5,0.78,0.78,0.5,0.5,0.28,0.28,0.5,0.25,0.55,0.72" style="fill:rgb(0,0,0);font-family:AdvPTimes;font-size:9.96px;stroke:none;">created an environment of mistrust in the community. A</text>
   <text y="390.044" x="51.025,54.86,59.842,63.159,68.141,72.594,77.574,81.412,86.393,91.374,95.828,100.809,108.59,113.043,118.024,120.926,125.38,130.35999999999999,134.136,136.935,141.917,146.37,149.1588,152.957,157.41,162.392,167.373,172.354,175.14280000000002,178.978,183.96,188.941,193.394,196.712,199.511,204.493,207.292,210.61,215.59,219.4,224.446,227.7328,231.475,234.275,239.256,243.738,247.519,252.5,257.482,262.463,265.262,268.062,272.54400000000004,276.319,281.3,284.1" svgx:width="0.38,0.5,0.33,0.5,0.45,0.5,0.55,0.5,0.5,0.45,0.5,0.78,0.45,0.5,0.28,0.45,0.5,0.55,0.28,0.5,0.45,0.28,0.55,0.45,0.5,0.5,0.5,0.28,0.55,0.5,0.5,0.45,0.33,0.28,0.5,0.28,0.33,0.5,0.55,0.5,0.33,0.55,0.28,0.5,0.45,0.55,0.5,0.5,0.5,0.28,0.28,0.45,0.55,0.5,0.28,0.5" style="fill:rgb(0,0,0);font-family:AdvPTimes;font-size:9.96px;stroke:none;">survey documented that about one-third of the public did</text>
   <text y="402.517" x="51.025,56.006,60.987,63.775800000000004,66.672,71.653,76.107,78.906,81.706,86.159,91.14,95.622,98.477,101.276,106.257,110.711,113.4998,116.391,121.373,126.354,130.807,134.125,138.672,143.653,146.453,149.252,154.233,158.687,163.667,166.564,169.363,174.345,179.326,182.126,187.107,189.978,194.959,199.941,204.394,207.193,210.9778,213.902,218.884,223.337,228.31699999999998,231.193,235.647,240.628,248.409,253.39,256.189,258.989,263.442,268.422,271.332,278.485,281.284,284.084" svgx:width="0.5,0.5,0.28,0.55,0.5,0.45,0.28,0.28,0.45,0.5,0.45,0.55,0.28,0.5,0.45,0.28,0.55,0.5,0.5,0.45,0.33,0.45,0.5,0.28,0.28,0.5,0.45,0.5,0.55,0.28,0.5,0.5,0.28,0.5,0.28,0.5,0.5,0.45,0.28,0.38,0.55,0.5,0.45,0.5,0.55,0.45,0.5,0.78,0.5,0.28,0.28,0.45,0.5,0.55,0.72,0.28,0.28,0.5" style="fill:rgb(0,0,0);font-family:AdvPTimes;font-size:9.96px;stroke:none;">not believe that quarantined individuals had complied with</text>
   <text y="414.932" x="51.025,53.824,58.806,63.288,67.465,72.446,77.428,81.881,85.198,89.745,94.727,97.526,100.326,105.307,109.789,113.953,118.934,122.251,127.233,131.686,135.004,138.78879999999998,143.092" svgx:width="0.28,0.5,0.45,0.55,0.5,0.5,0.45,0.33,0.45,0.5,0.28,0.28,0.5,0.45,0.55,0.5,0.33,0.5,0.45,0.33,0.38,0.55,0.33" style="fill:rgb(0,0,0);font-family:AdvPTimes;font-size:9.96px;stroke:none;">the quarantine orders [</text>
   <text y="414.932" x="146.439" svgx:width="0.5" style="fill:rgb(0,0,255);font-family:AdvPTimes;font-size:9.96px;stroke:none;">4</text>
   <text y="414.932" x="151.428,154.745,157.235,161.405,167.522,171.976,176.957,181.41,186.39,190.602,193.401,198.383,203.364,207.893,210.692,215.674,220.127,223.444,225.934,230.173,232.973,236.29,241.271,245.107,247.8958,252.113,256.566,261.547,266.52700000000004,270.708,274.025,278.479,282.932,285.732" svgx:width="0.33,0.25,0.55,0.61,0.45,0.5,0.45,0.5,0.55,0.28,0.5,0.5,0.45,0.28,0.5,0.45,0.33,0.25,0.55,0.28,0.33,0.5,0.38,0.28,0.55,0.45,0.5,0.5,0.55,0.33,0.45,0.45,0.28,0.33" style="fill:rgb(0,0,0);font-family:AdvPTimes;font-size:9.96px;stroke:none;">]. Taken together, trust and reci-</text>
   <text y="427.404" x="51.025,56.006,59.324,64.305,68.758,71.558,74.439,79.419,85.324,88.123,93.105,100.258,104.711,108.029,113.01,116.79480000000001,122.797,125.597,130.578,135.559,138.359,143.34,146.211,151.193,156.174,160.627,163.427,167.21179999999998,173.197,177.65,182.632,187.612,193.55,198.531,201.33,206.312,210.841,214.1278,220.025,227.806,232.259,240.04,245.021,249.561,252.879,256.6638,262.657,267.638,270.9248,276.887,279.686,284.668" svgx:width="0.5,0.33,0.5,0.45,0.28,0.28,0.5,0.55,0.28,0.5,0.72,0.45,0.33,0.5,0.38,0.55,0.28,0.5,0.5,0.28,0.5,0.28,0.5,0.5,0.45,0.28,0.38,0.55,0.45,0.5,0.5,0.55,0.5,0.28,0.5,0.45,0.33,0.55,0.78,0.45,0.78,0.5,0.45,0.33,0.38,0.55,0.5,0.33,0.55,0.28,0.5,0.45" style="fill:rgb(0,0,0);font-family:AdvPTimes;font-size:9.96px;stroke:none;">procity towards individuals and other members of the</text>
   <text y="439.876" x="51.025,55.478,60.459,68.24,76.021,81.002,86.06,88.86,91.659,96.63900000000001,100.347,104.8,108.117,112.571,117.128,122.109,126.562,131.542,135.27,140.251,145.232,148.55,151.349,156.33,161.31,165.033,167.832,172.814,177.296,181.02,186.001,190.982,193.782,198.763,202.081,206.534,210.987,216.055,218.54500000000002,222.235,229.388,234.369,239.351,243.892,247.1788,250.921,253.721,258.702,263.155,266.991,271.473,275.185,279.638,282.438,285.755" svgx:width="0.45,0.5,0.78,0.78,0.5,0.5,0.28,0.28,0.5,0.55,0.45,0.33,0.45,0.45,0.5,0.45,0.5,0.55,0.5,0.5,0.33,0.28,0.5,0.5,0.55,0.28,0.5,0.45,0.55,0.5,0.5,0.28,0.5,0.33,0.45,0.45,0.5,0.25,0.55,0.72,0.5,0.5,0.45,0.33,0.55,0.28,0.5,0.45,0.38,0.45,0.55,0.45,0.28,0.33,0.33" style="fill:rgb(0,0,0);font-family:AdvPTimes;font-size:9.96px;stroke:none;">community cracked during the outbreak. Under these cir-</text>
   <text y="452.292" x="51.025,55.478,60.459,68.24,72.076,74.875,79.427,84.408,88.862,93.315,97.151,99.64099999999999,104.938,107.738,110.5268,115.767,122.92,127.373,131.1578,136.459,141.44,146.422,149.2108,154.487,158.323,163.304,166.622,171.603,174.921,177.72,181.642,184.442,189.423,194.403,199.671,202.47,207.451,211.905,214.6938,219.966,222.766,227.747,232.729,235.528,240.509,243.309,248.369,253.35,257.803,260.603,264.3878,269.685,276.838,281.291,284.609" svgx:width="0.45,0.5,0.78,0.38,0.28,0.45,0.5,0.45,0.45,0.38,0.25,0.55,0.28,0.28,0.55,0.72,0.45,0.38,0.55,0.5,0.5,0.28,0.55,0.38,0.5,0.33,0.5,0.33,0.28,0.38,0.28,0.5,0.5,0.55,0.28,0.5,0.45,0.28,0.55,0.28,0.5,0.5,0.28,0.5,0.28,0.5,0.5,0.45,0.28,0.38,0.55,0.72,0.45,0.33,0.45" style="fill:rgb(0,0,0);font-family:AdvPTimes;font-size:9.96px;stroke:none;">cumstances, it was not surprising that individuals were</text>
   <text y="464.764" x="51.025,53.824,56.624,61.605,64.405,69.386,74.366,77.727,80.526,85.506,88.838,93.32,96.661,100.497,103.297,107.75,110.549,115.031,118.375,123.356,126.6428,129.997,133.315,137.768,142.221,145.5078,148.932,153.385,158.367,163.34699999999998,166.677,171.13,176.111,181.092,183.968,188.421,191.22,196.202" svgx:width="0.28,0.28,0.5,0.28,0.5,0.5,0.55,0.28,0.5,0.55,0.45,0.55,0.38,0.28,0.45,0.28,0.45,0.55,0.5,0.33,0.55,0.33,0.45,0.45,0.33,0.55,0.45,0.5,0.5,0.55,0.45,0.5,0.5,0.28,0.45,0.28,0.5,0.25" style="fill:rgb(0,0,0);font-family:AdvPTimes;font-size:9.96px;stroke:none;">living in a state of fear and anxiety.</text>
   <text y="477.236" x="62.363,68.48,73.462,77.944,80.902,85.355,88.672,91.99,96.443,100.897,103.6858,106.697,111.678,114.9648,117.978,120.778,125.759,130.241,133.172,138.154,143.135,145.934,150.916,154.233,158.687,163.14,168.11999999999998,171.156,178.309,182.762,186.5468,189.581,197.361,202.343,205.66,210.142,213.108,218.09,221.407,226.388,234.169,236.969,241.95,246.403,251.385,254.1738,257.215,260.014,264.994,267.929,272.383,275.182,277.982,280.781,285.234" svgx:width="0.61,0.5,0.45,0.55,0.45,0.33,0.33,0.45,0.45,0.28,0.55,0.5,0.33,0.55,0.28,0.5,0.45,0.55,0.5,0.5,0.28,0.5,0.33,0.45,0.45,0.5,0.55,0.72,0.45,0.38,0.55,0.78,0.5,0.33,0.45,0.55,0.5,0.33,0.5,0.78,0.28,0.5,0.45,0.5,0.28,0.55,0.28,0.5,0.55,0.45,0.28,0.28,0.28,0.45,0.38" style="fill:rgb(0,0,0);font-family:AdvPTimes;font-size:9.96px;stroke:none;">The effect of the outbreak was more prominent in cities</text>
   <text y="489.651" x="51.025,58.178,63.159,67.612,70.93,75.412,80.108,85.607,92.76,99.395,104.87299999999999,109.645,114.626,119.079,123.533,128.514,131.831,135.149,139.602,144.68,147.17000000000002,151.823,158.9942,163.672,167.507,170.307,175.288,180.339,185.319,189.977,194.958,199.412,203.1968,207.949,212.93,217.911,222.364,227.346,235.217,239.67,244.652,247.451,251.905,256.885,261.579,264.379,269.36,273.813,276.60179999999997,281.308,284.108" svgx:width="0.72,0.5,0.45,0.33,0.45,0.55,0.55,0.72,0.67,0.55,0.55,0.5,0.45,0.45,0.5,0.33,0.33,0.45,0.5,0.25,0.55,0.72,0.55,0.38,0.28,0.5,0.5,0.5,0.55,0.5,0.45,0.38,0.55,0.5,0.5,0.45,0.5,0.78,0.45,0.5,0.28,0.45,0.5,0.55,0.28,0.5,0.45,0.28,0.55,0.28,0.5" style="fill:rgb(0,0,0);font-family:AdvPTimes;font-size:9.96px;stroke:none;">where SARS occurred. A study has documented that in</text>
   <text y="502.124" x="51.025,57.142,61.595,64.395,69.376,73.829,76.629,79.119,82.829,89.983,94.964,99.417,102.735,107.217,110.892,113.692,118.673,123.126,126.444,130.92600000000002,134.589,141.742,146.195,149.97979999999998,153.694,158.176,161.801,165.637,170.09,173.407,176.207,181.188,186.169,189.9538,193.718,199.217,206.371,213.006,218.484,222.177,227.159,232.14,234.939,239.921,243.238,247.691,252.145,257.213,259.70300000000003,263.336,268.317,273.298,275.789,280.77" svgx:width="0.61,0.45,0.28,0.5,0.45,0.28,0.25,0.55,0.72,0.5,0.45,0.33,0.45,0.55,0.28,0.5,0.45,0.33,0.45,0.55,0.72,0.45,0.38,0.55,0.45,0.55,0.38,0.45,0.33,0.28,0.5,0.5,0.38,0.55,0.55,0.72,0.67,0.55,0.55,0.5,0.5,0.28,0.5,0.33,0.45,0.45,0.5,0.25,0.55,0.5,0.5,0.25,0.5,0.83" style="fill:rgb(0,0,0);font-family:AdvPTimes;font-size:9.96px;stroke:none;">Taipei, where there was a serious SARS outbreak, 23.5%</text>
   <text y="514.596" x="51.025,56.006,59.2928,63.383,66.183,71.164,76.145,78.945,83.926,86.797,91.779,96.76,101.213,104.013,107.79780000000001,111.969,116.95,120.268,125.249,130.23,134.712,138.784,142.102,146.555,149.355,154.336,158.789,162.0758,166.223,169.023,174.004,178.457,183.43699999999998,187.539,190.339,194.792,199.773,202.573,207.554,212.534,216.679,221.66,226.641,231.623,234.422,237.222,241.704,245.762,248.561,251.879,256.332,261.313,265.149,270.13,275.111,278.53,281.329,285.782" svgx:width="0.5,0.33,0.55,0.28,0.5,0.5,0.28,0.5,0.28,0.5,0.5,0.45,0.28,0.38,0.55,0.5,0.33,0.5,0.5,0.45,0.55,0.33,0.45,0.28,0.5,0.45,0.33,0.55,0.28,0.5,0.45,0.5,0.55,0.28,0.45,0.5,0.28,0.5,0.5,0.55,0.5,0.5,0.5,0.28,0.28,0.45,0.55,0.28,0.33,0.45,0.5,0.38,0.5,0.5,0.33,0.28,0.45,0.33" style="fill:rgb(0,0,0);font-family:AdvPTimes;font-size:9.96px;stroke:none;">of individuals drove rather than taking public transporta-</text>
   <text y="527.011" x="51.025,53.824,56.624,61.605,66.585,71.774" svgx:width="0.28,0.28,0.5,0.5,0.55,0.33" style="fill:rgb(0,0,0);font-family:AdvPTimes;font-size:9.96px;stroke:none;">tion [</text>
   <text y="527.011" x="75.119,80.101" svgx:width="0.5,0.5" style="fill:rgb(0,0,255);font-family:AdvPTimes;font-size:9.96px;stroke:none;">23</text>
   <text y="527.011" x="85.097,88.414,90.904,96.096,103.249,108.23,111.029,116.009,121.21,125.664,130.645,135.626,140.607,143.3958,148.649,153.631,158.612,161.102,166.084,174.3508,179.603,184.584,187.8708,193.095,195.895,200.876,205.857,208.657,213.638,216.509,221.491,226.472,230.925,233.725,237.50979999999998,242.758,245.557,250.53699999999998,255.74,260.193,265.175,270.156,275.137,278.02,280.82,285.273" svgx:width="0.33,0.25,0.55,0.72,0.5,0.28,0.5,0.55,0.45,0.5,0.5,0.5,0.28,0.55,0.5,0.5,0.25,0.5,0.83,0.55,0.5,0.33,0.55,0.28,0.5,0.5,0.28,0.5,0.28,0.5,0.5,0.45,0.28,0.38,0.55,0.28,0.5,0.55,0.45,0.5,0.5,0.5,0.28,0.28,0.45,0.38" style="fill:rgb(0,0,0);font-family:AdvPTimes;font-size:9.96px;stroke:none;">]. Only about 16.7% of individuals in counties</text>
   <text y="539.483" x="51.025,56.006,60.987,63.787,67.622,70.422,75.403,79.885,83.85,89.967,94.42,97.219,102.201,106.754,109.5428,113.5,118.482,121.281,126.26100000000001,130.224,133.024,138.005,142.487,146.439,150.274,154.727,162.508,166.962,169.452,173.424,178.924,181.723,189.582,192.381,195.181,199.634,202.951,205.751,210.732,213.222,217.191,222.172,227.154,229.644,234.625,242.8918,246.954,251.935,255.2218,259.2,262.518,266.971,270.807,275.788,280.769,285.75" svgx:width="0.5,0.5,0.28,0.38,0.28,0.5,0.45,0.55,0.61,0.45,0.28,0.5,0.45,0.28,0.55,0.5,0.28,0.5,0.55,0.28,0.5,0.45,0.55,0.38,0.45,0.78,0.45,0.25,0.55,0.55,0.28,0.78,0.28,0.28,0.45,0.33,0.28,0.5,0.25,0.55,0.5,0.5,0.25,0.5,0.83,0.55,0.5,0.33,0.55,0.33,0.45,0.38,0.5,0.5,0.5,0.33" style="fill:rgb(0,0,0);font-family:AdvPTimes;font-size:9.96px;stroke:none;">outside Taipei did the same. Similarly, 36.8% of respon-</text>
   <text y="551.956" x="51.025,56.006,60.459,65.441,68.24,72.0248,76.367,79.166,84.146,88.442,94.559,99.013,101.812,106.793,111.247,114.0358,118.376,122.829,125.629,130.082,132.881,140.662,145.116,150.096,154.433,157.232,162.213,166.667,171.647,175.919,180.9,183.7,187.535,190.335,193.21,197.663,202.643,206.929,210.247,214.7,221.853,226.307,229.5938,233.915,237.233,241.686,244.485,248.939,251.83,254.629,259.611,264.064,267.9,270.39,274.677,279.13,284.112" svgx:width="0.5,0.45,0.5,0.28,0.38,0.55,0.28,0.5,0.55,0.61,0.45,0.28,0.5,0.45,0.28,0.55,0.45,0.28,0.45,0.28,0.78,0.45,0.5,0.55,0.28,0.5,0.45,0.5,0.55,0.5,0.28,0.38,0.28,0.28,0.45,0.5,0.55,0.33,0.45,0.72,0.45,0.33,0.55,0.33,0.45,0.28,0.45,0.28,0.28,0.5,0.45,0.38,0.25,0.55,0.45,0.5,0.5" style="fill:rgb(0,0,0);font-family:AdvPTimes;font-size:9.96px;stroke:none;">dents in Taipei claimed they visited fewer relatives, and</text>
   <text y="564.371" x="51.025,56.006,60.987,63.478,68.459,76.7258,81.129,86.11,88.91,92.745,95.545,98.42,102.873,107.85300000000001,112.196,115.514,119.967,127.12,131.573,134.8598,139.351,142.669,145.986,148.786,153.239,158.22,163.202,167.037,169.52700000000002,173.933,178.387,183.368,191.149,196.13,200.583,203.901,208.459,213.439,217.757,220.556,225.536,229.946,234.927,239.909,242.708,247.688,252.056,257.037,262.019,270.2858,274.676,279.129,284.111" svgx:width="0.5,0.5,0.25,0.5,0.83,0.55,0.5,0.28,0.38,0.28,0.28,0.45,0.5,0.55,0.33,0.45,0.72,0.45,0.33,0.55,0.33,0.33,0.28,0.45,0.5,0.5,0.38,0.25,0.55,0.45,0.5,0.78,0.5,0.45,0.33,0.45,0.5,0.55,0.28,0.5,0.55,0.5,0.5,0.28,0.5,0.55,0.5,0.5,0.83,0.55,0.45,0.5,0.5" style="fill:rgb(0,0,0);font-family:AdvPTimes;font-size:9.96px;stroke:none;">57.8% visited fewer friends, compared to only 27% and</text>
   <text y="576.843" x="51.025,56.006,60.987,63.478,68.459,76.82,79.30999999999999,82.659,85.977,90.43,94.265,99.247,103.7,108.153,110.953,113.752,118.734,123.307,126.107,131.088,133.578,136.913,139.713,144.69299999999998,148.081,152.535,157.516,162.497,167.479,170.278,173.078,177.617,181.40179999999998,184.817,189.799,194.78,197.579,201.415,204.215,209.196,213.678,217.019,223.136,227.589,230.388,235.37,239.923,242.722,245.21200000000002,248.54,251.858,254.6468,258.008,260.807,264.59180000000003,268.042,273.023,278.005,282.986,285.785" svgx:width="0.5,0.5,0.25,0.5,0.83,0.25,0.55,0.33,0.45,0.38,0.5,0.45,0.45,0.28,0.28,0.5,0.45,0.28,0.5,0.25,0.55,0.28,0.5,0.55,0.45,0.5,0.5,0.5,0.28,0.28,0.45,0.38,0.55,0.5,0.5,0.28,0.38,0.28,0.5,0.45,0.55,0.61,0.45,0.28,0.5,0.45,0.28,0.25,0.55,0.33,0.28,0.55,0.28,0.38,0.55,0.5,0.5,0.5,0.28,0.33" style="fill:rgb(0,0,0);font-family:AdvPTimes;font-size:9.96px;stroke:none;">46.5%, respectively, in counties outside Taipei. It is obvi-</text>
   <text y="589.315" x="51.025,56.006,60.987,64.7718,68.429,71.229,76.21,80.664,83.4528,87.081,89.881,94.862,99.844,102.643,107.624,110.496,115.477,120.458,124.911,127.711,131.4958,135.157,137.956,140.756,145.737,148.537,153.518,158.498,162.143,164.942,169.922,173.481,177.934,181.252,185.705,190.262,194.0468,197.632,204.785,209.767,214.3,217.617,222.099,225.695,231.194,238.347,244.983,250.461,254.097,259.079,263.532,267.985,272.967,276.284,279.602,284.055" svgx:width="0.5,0.5,0.38,0.55,0.28,0.5,0.45,0.28,0.55,0.28,0.5,0.5,0.28,0.5,0.28,0.5,0.5,0.45,0.28,0.38,0.55,0.28,0.28,0.5,0.28,0.5,0.5,0.55,0.28,0.5,0.55,0.45,0.33,0.45,0.45,0.38,0.55,0.72,0.5,0.45,0.33,0.45,0.55,0.55,0.72,0.67,0.55,0.55,0.5,0.45,0.45,0.5,0.33,0.33,0.45,0.5" style="fill:rgb(0,0,0);font-family:AdvPTimes;font-size:9.96px;stroke:none;">ous that individuals living in areas where SARS occurred</text>
   <text y="601.731" x="51.025,54.342,58.796,61.595,64.3838,67.635,75.416,80.398,83.715,88.197,91.389,96.371,101.352,106.333,110.786,114.0728,117.354,121.189,123.989,127.306,131.76,135.595,139.3798,142.696,145.495,150.476,154.93,159.91,163.105,168.086,170.886,175.86599999999999,179.092,181.891,186.873,191.854,195.69,200.172,203.356,206.155,208.955,213.936,216.736,221.717,226.697,229.944,232.743,237.72299999999998,240.943,245.396,248.714,253.167,257.62,261.4048,264.697,271.85,276.831,281.284,284.602" svgx:width="0.33,0.45,0.28,0.28,0.55,0.78,0.5,0.33,0.45,0.55,0.5,0.5,0.5,0.45,0.33,0.55,0.38,0.28,0.33,0.45,0.38,0.38,0.55,0.28,0.5,0.45,0.5,0.55,0.5,0.28,0.5,0.55,0.28,0.5,0.5,0.38,0.45,0.55,0.28,0.28,0.5,0.28,0.5,0.5,0.55,0.28,0.5,0.55,0.45,0.33,0.45,0.45,0.38,0.55,0.72,0.5,0.45,0.33,0.45" style="fill:rgb(0,0,0);font-family:AdvPTimes;font-size:9.96px;stroke:none;">felt more under stress than did those living in areas where</text>
   <text y="614.203" x="51.025,56.524,63.677,70.312,75.78999999999999,79.201,84.182,86.982,91.962,95.302,100.283,105.264,108.05279999999999,111.402,116.383,120.837,125.29,130.271,133.682" svgx:width="0.55,0.72,0.67,0.55,0.55,0.5,0.28,0.5,0.55,0.5,0.5,0.28,0.55,0.5,0.45,0.45,0.5,0.33,0.25" style="fill:rgb(0,0,0);font-family:AdvPTimes;font-size:9.96px;stroke:none;">SARS did not occur.</text>
   <text y="626.675" x="62.363,69.516,72.316,75.115,80.097,85.154,90.135,95.116,100.096,103.578,106.378,109.1668,112.706,119.859,124.313,128.0978,131.698,136.679,141.661,144.4498,147.969,152.451,155.906,159.742,164.723,168.559,171.358,175.811,183.685,188.138,190.937,193.737,198.219,201.713,206.166,211.148,215.601,218.4,223.482,227.318,230.117,233.953,236.443,239.923,244.405,247.917,252.37,255.687,260.669,265.65,270.132,273.655,277.491,282.472,285.789" svgx:width="0.72,0.28,0.28,0.5,0.5,0.5,0.5,0.5,0.55,0.28,0.28,0.55,0.72,0.45,0.38,0.55,0.5,0.5,0.28,0.55,0.45,0.55,0.38,0.5,0.38,0.28,0.45,0.78,0.45,0.28,0.28,0.45,0.55,0.45,0.5,0.45,0.28,0.5,0.38,0.28,0.38,0.25,0.55,0.45,0.55,0.45,0.33,0.5,0.5,0.45,0.55,0.38,0.5,0.33,0.33" style="fill:rgb(0,0,0);font-family:AdvPTimes;font-size:9.96px;stroke:none;">Although it was not a systematic analysis, a crude sur-</text>
   <text y="639.091" x="51.025,56.006,60.459,65.43900000000001,68.6,73.581,76.8678,80.052,84.505,89.486,93.94,98.393,103.466,108.447,111.247,115.7,118.4888,121.664,125.499,128.299,133.28,136.598,139.397,143.944,147.72879999999998,150.917,153.716,158.698,163.151,165.93980000000002,169.114,173.568,178.549,183.53,187.984,192.437,195.754,200.208,205.188,208.402,211.201,216.18099999999998,219.344,224.325,228.778,231.578,234.377,239.357,242.531,247.512,251.965,259.198,263.034,268.015,272.468,277.45,281.903,285.22" svgx:width="0.5,0.45,0.5,0.55,0.5,0.33,0.55,0.45,0.5,0.45,0.45,0.5,0.5,0.28,0.45,0.28,0.55,0.38,0.28,0.5,0.33,0.28,0.45,0.38,0.55,0.28,0.5,0.45,0.28,0.55,0.45,0.5,0.5,0.45,0.45,0.33,0.45,0.5,0.55,0.28,0.5,0.55,0.5,0.45,0.28,0.28,0.5,0.55,0.5,0.45,0.72,0.38,0.5,0.45,0.5,0.45,0.33,0.38" style="fill:rgb(0,0,0);font-family:AdvPTimes;font-size:9.96px;stroke:none;">vey of anecdotal stories that appeared in daily newspapers</text>
   <text y="651.563" x="51.025,56.006,60.987,64.305,67.104,72.086,77.066,80.164,82.964,87.945,92.42699999999999,95.471,100.452,104.906,108.223,111.023,116.004,120.98400000000001,124.044,129.025,131.824,136.806,139.605,144.587,147.458,152.438,155.452,160.433,164.886,168.722,173.175,176.598,179.398,184.379,188.832,193.81199999999998,196.837,199.637,204.618,209.1,212.144,215.461,219.915,224.368,227.6548,230.796,235.249,240.23,245.20999999999998,248.257,252.711,257.692,262.673,265.548,270.002,272.801,277.781,280.798,285.779" svgx:width="0.5,0.5,0.33,0.28,0.5,0.5,0.55,0.28,0.5,0.45,0.55,0.5,0.45,0.33,0.28,0.5,0.5,0.55,0.5,0.28,0.5,0.28,0.5,0.28,0.5,0.55,0.5,0.45,0.38,0.45,0.33,0.28,0.5,0.45,0.5,0.55,0.28,0.5,0.45,0.55,0.33,0.45,0.45,0.33,0.55,0.45,0.5,0.5,0.55,0.45,0.5,0.5,0.28,0.45,0.28,0.5,0.55,0.5,0.33" style="fill:rgb(0,0,0);font-family:AdvPTimes;font-size:9.96px;stroke:none;">during the period vividly described the fear and anxiety of</text>
   <text y="664.035" x="51.025,53.824,58.806,63.288,66.842,70.16,74.613,78.449,81.248,86.23,90.683,95.755,98.554,102.39,104.88,108.511,114.01,118.464,123.445,128.426,131.226,135.708,139.294,146.448,149.247,152.047,157.027,160.667,163.985,168.438,173.419,177.873,181.1598,184.818,191.972,196.425,199.742,204.224,207.835,211.153,215.606,218.405,223.387,227.84,230.739,235.192,240.174,242.96280000000002,246.557,249.356,254.33599999999998,257.952,260.751,265.733,270.186,275.167,277.967,280.766,284.084" svgx:width="0.28,0.5,0.45,0.55,0.33,0.45,0.38,0.28,0.5,0.45,0.5,0.28,0.38,0.25,0.55,0.55,0.45,0.5,0.5,0.28,0.45,0.55,0.72,0.28,0.28,0.5,0.55,0.33,0.45,0.5,0.45,0.33,0.55,0.72,0.45,0.33,0.45,0.55,0.33,0.45,0.28,0.5,0.45,0.28,0.45,0.5,0.28,0.55,0.28,0.5,0.55,0.28,0.5,0.45,0.5,0.28,0.28,0.33,0.5" style="fill:rgb(0,0,0);font-family:AdvPTimes;font-size:9.96px;stroke:none;">the residents. People with fever were reluctant to identify</text>
   <text y="676.45" x="51.025,53.824,58.806,63.259,66.058,69.3448,75.402,80.384,83.701,88.682,93.664,96.463,100.916,108.697,112.4818,118.545,121.345,126.325,132.322,137.303,140.102,145.084,149.537,152.854,156.69,159.18,165.203,170.184,174.638,179.091,183.544,188.526,192.361,196.843,202.847,205.646,210.628,215.081,220.06099999999998,226.09,233.244,237.697,241.014,245.496,251.488,255.941,259.259,262.576,267.03,269.829,274.809,280.798,285.779" svgx:width="0.28,0.5,0.45,0.28,0.33,0.55,0.5,0.33,0.5,0.5,0.28,0.45,0.78,0.38,0.55,0.28,0.5,0.55,0.5,0.28,0.5,0.45,0.33,0.38,0.25,0.55,0.5,0.45,0.45,0.45,0.5,0.38,0.45,0.55,0.28,0.5,0.45,0.5,0.55,0.72,0.45,0.33,0.45,0.55,0.45,0.33,0.33,0.45,0.28,0.5,0.55,0.5,0.33" style="fill:rgb(0,0,0);font-family:AdvPTimes;font-size:9.96px;stroke:none;">their problems to others, because they were afraid of</text>
   <text y="66.267" x="306.142,308.942,312.777,317.758,320.558,325.011,327.811,330.61,335.678,340.658,343.275,347.728,352.709,357.689,360.339,363.656,368.109,371.507,376.488,380.324,384.777,387.56579999999997,390.215,395.197,398.48380000000003,401.157,404.993,409.446,412.764,417.825,420.624,425.077,429.531,432.021,434.663,440.78,445.761,450.214,455.194,457.906,465.059,470.041,473.358,476.676,479.475,483.928,488.908,491.582,494.381,499.363,503.816,506.60479999999995,509.269,512.069,517.05,521.5319999999999,524.179,529.161,533.614,536.414,539.213" svgx:width="0.28,0.38,0.5,0.28,0.45,0.28,0.28,0.5,0.5,0.55,0.45,0.5,0.5,0.55,0.33,0.45,0.33,0.5,0.38,0.45,0.28,0.55,0.5,0.33,0.55,0.38,0.45,0.33,0.5,0.28,0.45,0.45,0.25,0.55,0.61,0.5,0.45,0.5,0.55,0.72,0.5,0.33,0.33,0.28,0.45,0.5,0.55,0.28,0.5,0.45,0.28,0.55,0.28,0.5,0.45,0.55,0.5,0.45,0.28,0.28,0.5" style="fill:rgb(0,0,0);font-family:AdvPTimes;font-size:9.96px;stroke:none;">isolation and refusal of service. They worried that the daily</text>
   <text y="78.739" x="306.142,308.942,311.741,315.059,319.54100000000005,322.527,327.508,330.7948,333.808,336.608,341.589,346.042,348.842,352.1288,355.181,359.634,364.615,367.415,370.214,373.532,378.014,381.033,384.35,388.804,396.584,399.384,402.183,407.163,410.172,417.326,422.307,427.288,430.184,435.16400000000004,438.122,443.103,447.58500000000004,450.537,454.99,458.308,461.625,466.079,470.532,473.441,477.894,482.874,485.856,490.31,493.0988,496.118,503.271,508.252,511.57,516.55,519.532,523.985,528.966,533.946,536.993,541.447" svgx:width="0.28,0.28,0.33,0.45,0.55,0.5,0.33,0.55,0.28,0.5,0.45,0.28,0.33,0.55,0.45,0.5,0.28,0.28,0.33,0.45,0.55,0.33,0.45,0.78,0.28,0.28,0.5,0.55,0.72,0.5,0.5,0.28,0.5,0.55,0.5,0.45,0.55,0.45,0.33,0.33,0.45,0.45,0.28,0.45,0.5,0.55,0.45,0.28,0.55,0.72,0.5,0.33,0.5,0.55,0.45,0.5,0.5,0.55,0.45,0.28" style="fill:rgb(0,0,0);font-family:AdvPTimes;font-size:9.96px;stroke:none;">life of their entire family would be affected at work and at</text>
   <text y="91.155" x="306.142,309.978,314.431,319.412,324.393,329.375,332.174,334.664,338.853,344.353,348.806,353.787,358.768,361.644,366.12600000000003,370.204,374.658,379.639,384.62,387.496,392.477,396.93,401.91,406.034,410.487,415.469,420.45,423.767,428.824,433.278,437.731,442.712,445.512,450.493,455.473,459.665,464.646,467.93280000000004,472.08,477.061,480.379,485.36,490.341,493.141,498.122,500.992,505.974,510.954,515.052,520.033,524.486,527.286,532.266,536.424,539.224" svgx:width="0.38,0.45,0.5,0.5,0.5,0.28,0.25,0.55,0.55,0.45,0.5,0.5,0.28,0.45,0.55,0.45,0.5,0.5,0.28,0.5,0.45,0.5,0.55,0.45,0.5,0.5,0.33,0.5,0.45,0.45,0.5,0.28,0.5,0.5,0.55,0.5,0.33,0.55,0.5,0.33,0.5,0.5,0.28,0.5,0.28,0.5,0.5,0.55,0.5,0.45,0.28,0.5,0.55,0.28,0.5" style="fill:rgb(0,0,0);font-family:AdvPTimes;font-size:9.96px;stroke:none;">school. People avoided approaching or providing help to</text>
   <text y="103.627" x="306.142,311.123,315.577,320.558,325.539,328.339,332.821,340.497,347.65,352.631,357.611,365.328,369.781,374.762,379.744,384.725,389.706,394.24,399.22,406.883,411.336,416.317,421.299,424.098,429.079,432.36580000000004,440.104,445.085,449.539,454.519,462.214,465.531,469.985,474.966,479.419,482.737,485.22700000000003,492.942,496.259,501.23900000000003,508.872,513.325,518.306,523.288,526.163,528.962,531.762,536.743,541.725" svgx:width="0.5,0.45,0.5,0.5,0.28,0.45,0.55,0.72,0.5,0.5,0.55,0.45,0.5,0.5,0.5,0.5,0.45,0.5,0.55,0.45,0.5,0.5,0.28,0.5,0.33,0.55,0.5,0.45,0.5,0.55,0.33,0.45,0.5,0.45,0.33,0.25,0.55,0.33,0.5,0.55,0.45,0.5,0.5,0.28,0.28,0.28,0.5,0.5,0.25" style="fill:rgb(0,0,0);font-family:AdvPTimes;font-size:9.96px;stroke:none;">people who coughed and/or had fever. In addition,</text>
   <text y="116.099" x="306.142,311.123,316.105,323.885,328.339,331.656,336.638,341.619,345.40380000000005,349.568,352.367,357.349,361.802,364.602,369.583,374.036,379.104,381.904,385.6888,389.819,396.972,401.425,404.743,409.225,413.29,416.607,421.061,426.042,431.023,434.341,437.14,441.692,446.672,450.706,455.688,458.9748,463.065,468.046,472.499,477.481,480.356,484.838,488.86,493.841,498.823,503.804,506.603,511.585,516.566,519.056,523.158,527.612,531.447,536.428,540.882" svgx:width="0.5,0.5,0.78,0.45,0.33,0.5,0.5,0.38,0.55,0.28,0.5,0.45,0.28,0.5,0.45,0.5,0.28,0.38,0.55,0.72,0.45,0.33,0.45,0.55,0.33,0.45,0.5,0.5,0.33,0.28,0.45,0.5,0.55,0.5,0.33,0.55,0.5,0.45,0.5,0.28,0.45,0.55,0.5,0.5,0.5,0.28,0.5,0.5,0.25,0.55,0.45,0.38,0.5,0.45,0.33" style="fill:rgb(0,0,0);font-family:AdvPTimes;font-size:9.96px;stroke:none;">numerous incidents were reported of panic buying, espe-</text>
   <text y="128.514" x="306.142,310.595,313.395,317.848,320.648,323.447,328.427,331.427,335.263,340.244,343.562,348.543,351.439,355.892,360.346,363.145,365.945,373.098,378.079,383.059,386.078,393.859,398.312,402.148,407.129,410.91380000000004,413.97,417.288,420.087,425.138,429.62,432.565,440.346,444.799,448.635,453.615,456.603,459.921,464.374,468.827,473.894,481.675,489.456,493.909,498.89,503.872,508.42,513.4,516.357,519.674,524.656,527.9427999999999,530.927,535.909,539.744" svgx:width="0.45,0.28,0.45,0.28,0.28,0.5,0.55,0.38,0.5,0.33,0.5,0.28,0.45,0.45,0.28,0.28,0.72,0.5,0.5,0.55,0.78,0.45,0.38,0.5,0.38,0.55,0.33,0.28,0.5,0.45,0.55,0.78,0.45,0.38,0.5,0.55,0.33,0.45,0.45,0.5,0.78,0.78,0.45,0.5,0.5,0.45,0.5,0.55,0.33,0.5,0.33,0.55,0.5,0.38,0.45" style="fill:rgb(0,0,0);font-family:AdvPTimes;font-size:9.96px;stroke:none;">cially surgical/N95 masks (the mask recommended for use</text>
   <text y="140.986" x="306.142,311.123,316.105,319.422,322.222,327.203,332.183,336.246,339.045,344.027,348.509,352.574,357.555,362.536,365.336,370.317,373.635,378.088,382.541,387.609,390.8958,394.923,397.722,402.702,406.771,411.752,414.552,417.869,421.187,425.64,428.958,433.411,438.392,441.1808,445.321,450.303,454.756,458.073,460.873,464.6578,468.735,473.782,477.0688,481.095,487.212,491.665,494.465,499.446,503.999,506.7878,510.803,515.256,520.237,525.217,529.284,536.437,540.891" svgx:width="0.5,0.5,0.33,0.28,0.5,0.5,0.55,0.28,0.5,0.45,0.55,0.5,0.5,0.28,0.5,0.33,0.45,0.45,0.5,0.33,0.55,0.28,0.5,0.55,0.5,0.28,0.33,0.33,0.45,0.33,0.45,0.5,0.28,0.55,0.5,0.45,0.33,0.28,0.38,0.55,0.5,0.33,0.55,0.61,0.45,0.28,0.5,0.45,0.28,0.55,0.45,0.5,0.5,0.55,0.72,0.45,0.33" style="fill:rgb(0,0,0);font-family:AdvPTimes;font-size:9.96px;stroke:none;">during the outbreak) in different parts of Taipei and Ka-</text>
   <text y="153.459" x="306.142,311.123,316.105,319.94,322.74,327.721,332.787,337.768,340.258,342.878,346.196,351.17600000000004,353.877,358.33,363.31,366.009,370.463,375.444,378.243,381.561,386.014,393.795,398.27700000000004,400.988,405.441,410.422,414.876,422.657,427.638,430.524,434.977,437.467,440.162,444.644,447.248,451.702,456.683,461.664,466.645,469.529,474.509,477.182,484.963,489.416,494.397,499.378,502.6648,505.415,510.396,513.196,518.177,522.63,527.612,532.065,537.0450000000001,539.77" svgx:width="0.5,0.5,0.38,0.28,0.5,0.5,0.5,0.25,0.55,0.33,0.5,0.55,0.45,0.5,0.55,0.45,0.5,0.28,0.33,0.45,0.78,0.45,0.55,0.45,0.5,0.45,0.78,0.5,0.28,0.45,0.25,0.55,0.45,0.55,0.45,0.5,0.5,0.5,0.28,0.5,0.55,0.78,0.45,0.5,0.5,0.33,0.55,0.5,0.28,0.5,0.45,0.5,0.45,0.5,0.55,0.45" style="fill:rgb(0,0,0);font-family:AdvPTimes;font-size:9.96px;stroke:none;">ohsiung. In an extreme example, a county mayor blocked a</text>
   <text y="165.874" x="306.142,311.123,313.923,318.904,323.885,331.039,335.492,340.47200000000004,343.729,348.182,353.163,355.963,358.7518,361.928,364.727,369.707,372.87,377.851,381.168,385.622,390.603,395.056,400.037,402.82579999999996,406.034,408.833,413.815,418.297,421.454,424.254,427.571,432.024,437.006,440.841,444.245,448.698,451.9848,455.186,460.168,463.45480000000003,466.638,469.438,474.419,477.737,482.19,486.643,489.443,493.896,498.87600000000003,502.127,507.108,511.562,514.361,517.161,521.614,526.595,529.395,533.1798,536.426,539.226" svgx:width="0.5,0.28,0.5,0.5,0.72,0.45,0.5,0.55,0.45,0.5,0.28,0.28,0.55,0.28,0.5,0.55,0.5,0.33,0.45,0.5,0.45,0.5,0.28,0.55,0.28,0.5,0.45,0.55,0.28,0.33,0.45,0.5,0.38,0.33,0.45,0.33,0.55,0.5,0.33,0.55,0.28,0.5,0.33,0.45,0.45,0.28,0.45,0.5,0.55,0.5,0.45,0.28,0.28,0.45,0.5,0.28,0.38,0.55,0.28,0.5" style="fill:rgb(0,0,0);font-family:AdvPTimes;font-size:9.96px;stroke:none;">highway exit to prevent the transfer of infected patients to</text>
   <text y="178.346" x="306.142,308.942,313.923,318.40500000000003,321.733,326.714,331.695,335.531,340.512,343.311,346.111,350.645,353.43379999999996,356.768,359.567,364.549,369.002,373.455,376.255,380.806,385.786,389.083,391.882,396.862,400.194,405.175,407.975,411.75980000000004,415.161,419.614,424.595,429.577,434.558,437.441,442.422" svgx:width="0.28,0.5,0.45,0.55,0.5,0.5,0.38,0.5,0.28,0.28,0.45,0.28,0.55,0.28,0.5,0.45,0.45,0.28,0.45,0.5,0.55,0.28,0.5,0.55,0.5,0.28,0.38,0.55,0.45,0.5,0.5,0.5,0.28,0.5,0.25" style="fill:rgb(0,0,0);font-family:AdvPTimes;font-size:9.96px;stroke:none;">the hospital located in his county.</text>
   <text y="190.762" x="317.48,322.98,327.961,332.942,335.742,338.541,343.023,347.301,352.282,355.081,358.917,363.37,368.352,372.187,376.023,378.822,383.803,388.783,393.108,397.561,400.36,404.196,409.17600000000004,413.46,417.296,422.277,427.258,434.493,438.946,443.92600000000004,448.156,450.955,455.937,460.41900000000004,464.653,469.634,472.952,477.405,481.944,486.925,491.907,496.888,504.041,509.021,513.294,518.276,521.5627999999999,525.823,529.141,533.594,538.047,540.847" svgx:width="0.55,0.5,0.5,0.28,0.28,0.45,0.55,0.5,0.28,0.38,0.45,0.5,0.38,0.38,0.28,0.5,0.5,0.55,0.45,0.28,0.38,0.5,0.55,0.38,0.5,0.5,0.72,0.45,0.5,0.55,0.28,0.5,0.45,0.55,0.5,0.33,0.45,0.45,0.5,0.5,0.5,0.72,0.5,0.55,0.5,0.33,0.55,0.33,0.45,0.45,0.28,0.33" style="fill:rgb(0,0,0);font-family:AdvPTimes;font-size:9.96px;stroke:none;">Public discussion also showed the breakdown of reci-</text>
   <text y="203.234" x="306.142,311.123,314.441,319.422,323.875,328.329,331.1178,336.132,340.586,345.567,350.548,355.002,359.546,362.346,366.799,369.599,372.398,377.38,382.361,384.851,389.82,396.973,401.426,405.977,408.777,411.576,416.557,421.011,425.464,428.782,433.264,438.235,445.388,450.369,453.687,458.668,463.122,466.524,470.3088,475.311,479.764,484.745,489.725,494.7,497.5,502.481,506.934,509.734,513.0208,518.057,521.375,525.828,533.609,536.409,539.208" svgx:width="0.5,0.33,0.5,0.45,0.45,0.28,0.55,0.45,0.5,0.5,0.45,0.45,0.28,0.45,0.28,0.28,0.5,0.5,0.25,0.55,0.72,0.45,0.45,0.28,0.28,0.5,0.45,0.45,0.33,0.45,0.55,0.72,0.5,0.33,0.5,0.45,0.33,0.38,0.55,0.45,0.5,0.5,0.55,0.28,0.5,0.45,0.28,0.33,0.55,0.33,0.45,0.78,0.28,0.28,0.5" style="fill:rgb(0,0,0);font-family:AdvPTimes;font-size:9.96px;stroke:none;">procal expectation. Healthcare workers and their family</text>
   <text y="215.706" x="306.142,313.923,318.376,326.157,331.138,335.678,338.996,342.831,345.321,348.604,353.057,356.892,361.874,366.327,370.78,373.58,378.14,380.939,383.739,388.719,391.973,394.772,399.754,404.735,408.64,413.122,416.35,423.503,428.485,433.46500000000003,436.76,443.913,448.894,452.212,457.193,461.646,466.62600000000003,469.924,472.724,477.704,480.98,485.961,490.942,494.778,499.759,502.636,505.436,509.889,512.689,516.4738,519.814,526.967,531.948,536.402,539.719" svgx:width="0.78,0.45,0.78,0.5,0.45,0.33,0.38,0.25,0.55,0.45,0.38,0.5,0.45,0.45,0.28,0.45,0.28,0.28,0.5,0.55,0.28,0.5,0.5,0.38,0.45,0.55,0.72,0.5,0.5,0.55,0.72,0.5,0.33,0.5,0.45,0.5,0.55,0.28,0.5,0.55,0.5,0.5,0.38,0.5,0.28,0.28,0.45,0.28,0.38,0.55,0.72,0.5,0.45,0.33,0.45" style="fill:rgb(0,0,0);font-family:AdvPTimes;font-size:9.96px;stroke:none;">members, especially those who worked in hospitals where</text>
   <text y="228.121" x="306.142,311.641,318.795,325.43,330.908,335.566,340.019,344.472,348.308,352.857,356.64180000000005,361.304,368.457,372.91,376.228,380.71000000000004,385.342,388.659,393.112,398.094,403.075,406.393,409.192,413.744,418.725,421.21500000000003,425.82,432.973,437.426,440.744,445.22600000000006,449.857,454.311,459.292,464.273,468.109,470.908,475.89,480.343,483.759,488.212,493.192,497.819,502.30100000000004,506.89,511.872,514.671,519.652,524.6320000000001,529.284,532.602,535.401,539.237" svgx:width="0.55,0.72,0.67,0.55,0.55,0.45,0.45,0.38,0.45,0.38,0.55,0.72,0.45,0.33,0.45,0.55,0.33,0.45,0.5,0.5,0.33,0.28,0.45,0.5,0.25,0.55,0.72,0.45,0.33,0.45,0.55,0.45,0.5,0.5,0.38,0.28,0.5,0.45,0.33,0.45,0.5,0.55,0.45,0.55,0.5,0.28,0.5,0.5,0.55,0.33,0.28,0.38,0.5" style="fill:rgb(0,0,0);font-family:AdvPTimes;font-size:9.96px;stroke:none;">SARS cases were reported, were considered a high risk</text>
   <text y="240.594" x="306.142,311.123,314.441,319.422,324.403,329.38300000000004,335.282,339.735,344.716,349.696,355.521,360.502,364.955,369.936,374.918,379.371,382.789,387.77,392.752,396.5368,402.405,405.204,410.184,416.067,418.867,423.848,428.33000000000004,434.152,437.988,442.441,445.759,450.212,453.012,457.992,463.859,468.84,472.1268,478.032,480.831,485.812,490.29400000000004,496.117,500.57,505.551,513.332,521.113,526.094,531.152,533.952,536.751,541.733" svgx:width="0.5,0.33,0.5,0.5,0.5,0.55,0.45,0.5,0.5,0.55,0.5,0.45,0.5,0.5,0.45,0.33,0.5,0.5,0.38,0.55,0.28,0.5,0.55,0.28,0.5,0.45,0.55,0.38,0.45,0.33,0.45,0.28,0.5,0.55,0.5,0.33,0.55,0.28,0.5,0.45,0.55,0.45,0.5,0.78,0.78,0.5,0.5,0.28,0.28,0.5,0.25" style="fill:rgb(0,0,0);font-family:AdvPTimes;font-size:9.96px;stroke:none;">group and dangerous to the safety of the community.</text>
   <text y="253.066" x="306.142,313.295,317.131,320.966,323.766,327.685,330.485,334.938,339.919,344.372,348.85400000000004,351.382,354.7,359.153,364.134,369.116,373.663,376.98,381.433,386.413,388.969,391.769,396.749,399.287,404.269,408.722,413.175,415.975,418.774,423.755,428.313,432.767,436.084,440.56600000000003,443.053,450.206,455.187,458.587,463.568,468.021,471.339,475.1238,477.749,482.202,487.183,492.163,494.7,499.681,502.481,507.462,511.991,515.309,519.0938,521.686,524.485,529.465,532.004,534.803,539.785" svgx:width="0.72,0.38,0.38,0.28,0.38,0.28,0.45,0.5,0.45,0.45,0.55,0.33,0.45,0.5,0.5,0.45,0.33,0.45,0.5,0.55,0.28,0.5,0.55,0.5,0.45,0.45,0.28,0.28,0.5,0.45,0.45,0.33,0.45,0.55,0.72,0.5,0.33,0.5,0.45,0.33,0.38,0.55,0.45,0.5,0.5,0.55,0.5,0.28,0.5,0.45,0.33,0.38,0.55,0.28,0.5,0.55,0.28,0.5,0.45" style="fill:rgb(0,0,0);font-family:AdvPTimes;font-size:9.96px;stroke:none;">Assistance rendered to healthcare workers and others in the</text>
   <text y="265.481" x="306.142,310.595,313.913,317.23,321.684,326.137,328.936,333.39,338.37,344.976,349.957,354.939,358.774,363.756,366.555,369.355,373.89,376.689,380.525,383.015,389.537,393.373,398.354,402.807,407.78700000000003,414.312,418.765,422.5498,429.108,434.09,437.407,441.86,446.842,451.389,454.706,457.506,462.487,467.46700000000004,473.952,481.733,486.186,490.733,493.5218,500.03,505.011,509.993,514.974,519.427,523.2118,529.793,534.247,539.228" svgx:width="0.45,0.33,0.33,0.45,0.45,0.28,0.45,0.5,0.55,0.5,0.5,0.38,0.5,0.28,0.28,0.45,0.28,0.38,0.25,0.55,0.38,0.5,0.45,0.5,0.55,0.45,0.38,0.55,0.5,0.33,0.45,0.5,0.45,0.33,0.28,0.5,0.5,0.55,0.78,0.45,0.45,0.28,0.55,0.5,0.5,0.5,0.45,0.38,0.55,0.45,0.5,0.5" style="fill:rgb(0,0,0);font-family:AdvPTimes;font-size:9.96px;stroke:none;">affected hospitals, such as preparing meal boxes and</text>
   <text y="277.953" x="306.142,309.978,314.959,319.94,324.922,329.903,332.787,337.768,342.748,349.738,353.056,358.037,361.3238,368.333,371.133,376.114,380.568,388.348,390.838,397.87,405.023,409.476,413.2608,420.376,425.357,428.675,433.656,438.638,441.437,446.418,450.872,455.85200000000003,462.895,467.877,472.858,475.6468,482.681,485.999,489.316,494.298,502.0668,509.1,513.553,516.353,519.152,522.47,527.451,530.251,534.086,536.992,539.792" svgx:width="0.38,0.5,0.5,0.5,0.5,0.28,0.5,0.5,0.55,0.33,0.5,0.33,0.55,0.28,0.5,0.45,0.78,0.25,0.55,0.72,0.45,0.38,0.55,0.5,0.33,0.5,0.5,0.28,0.5,0.45,0.5,0.55,0.5,0.5,0.28,0.55,0.33,0.33,0.5,0.78,0.55,0.45,0.28,0.28,0.33,0.5,0.28,0.38,0.28,0.28,0.45" style="fill:rgb(0,0,0);font-family:AdvPTimes;font-size:9.96px;stroke:none;">shopping for them, was provided not from altruistic</text>
   <text y="290.425" x="306.142,313.923,318.904,321.704,324.503,329.556,334.009,337.845,340.33500000000004,343.389,348.37,353.352,356.14079999999996,359.207,362.006,366.986,370.035,374.488,379.47,383.305,388.287,391.604,396.086,399.118,401.917,406.899,411.352,414.14079999999996,417.26,420.059,425.041,429.494,434.47400000000005,437.556,442.537,445.336,450.31600000000003,453.316,458.363,463.344,466.1328,469.134,471.934,476.387,480.926,485.907,490.389,493.398,496.198,501.179,505.661,508.705,513.686,518.667,522.503,527.484,530.284,533.083,537.617,540.417" svgx:width="0.78,0.5,0.28,0.28,0.5,0.45,0.38,0.25,0.55,0.5,0.5,0.28,0.55,0.28,0.5,0.55,0.45,0.5,0.38,0.5,0.33,0.45,0.55,0.28,0.5,0.45,0.28,0.55,0.28,0.5,0.45,0.5,0.55,0.5,0.28,0.5,0.55,0.5,0.5,0.28,0.55,0.28,0.45,0.45,0.5,0.45,0.55,0.28,0.5,0.45,0.55,0.5,0.5,0.38,0.5,0.28,0.28,0.45,0.28,0.38" style="fill:rgb(0,0,0);font-family:AdvPTimes;font-size:9.96px;stroke:none;">motives, but to ensure that they did not leave the hospitals</text>
   <text y="302.841" x="306.142,311.123,314.4098,316.857,321.838,324.638,328.473,331.273,334.0618,336.472,340.925,345.907,350.887,353.31,358.291,363.273,368.254,371.053,373.853,378.33500000000004,380.692,385.145,388.463,392.916,397.473,399.963,402.349,411.166,416.147,419.983,422.7718,425.196,427.996,432.977,437.958,440.758,445.739,448.538,453.52,458.501,462.954,465.844,469.6288,472.024,479.177,483.631,487.048,491.53000000000003,493.851,498.305,502.758,505.643,508.443,513.424,518.404,520.78,525.762,530.743,533.5318000000001,535.917,540.899" svgx:width="0.5,0.33,0.55,0.5,0.28,0.38,0.28,0.28,0.55,0.45,0.5,0.5,0.55,0.5,0.5,0.5,0.28,0.28,0.45,0.55,0.45,0.33,0.45,0.45,0.25,0.55,0.88,0.5,0.38,0.28,0.55,0.28,0.5,0.5,0.28,0.5,0.28,0.5,0.5,0.45,0.28,0.38,0.55,0.72,0.45,0.33,0.45,0.55,0.45,0.45,0.28,0.28,0.5,0.5,0.55,0.5,0.5,0.28,0.55,0.5,0.33" style="fill:rgb(0,0,0);font-family:AdvPTimes;font-size:9.96px;stroke:none;">or visit any public area. Most individuals were acting out of</text>
   <text y="315.313" x="306.142,311.123,315.577,320.558,323.357,327.83900000000006,331.2,335.653,340.635,345.615,348.944,352.78,357.233,360.112,363.43,366.747,371.729,375.046,380.028,382.827,387.28,391.734,394.638,397.437,402.419,407.4" svgx:width="0.5,0.45,0.5,0.28,0.45,0.55,0.45,0.5,0.5,0.55,0.38,0.45,0.28,0.33,0.33,0.5,0.33,0.5,0.28,0.45,0.45,0.28,0.28,0.5,0.5,0.25" style="fill:rgb(0,0,0);font-family:AdvPTimes;font-size:9.96px;stroke:none;">panic and self-protection.</text>
   <text y="327.785" x="317.48,323.598,328.579,333.06100000000004,335.679,343.46,346.259,350.095,352.895,356.212,361.193,365.029,367.8178,370.488,374.942,379.923,384.903,387.552,392.534,395.851,400.305,404.843,409.825,414.806,419.787,426.94,431.92,434.55,439.531,442.81780000000003,445.492,448.809,453.263,457.716,460.515,465.497,468.814,473.796,478.249,482.702,485.4908,488.181,491.498,495.951,498.839,503.292,506.091,508.891,513.872,518.853,522.6378,525.314,529.767,534.749,539.202" svgx:width="0.61,0.5,0.45,0.55,0.78,0.28,0.38,0.28,0.33,0.5,0.38,0.28,0.55,0.45,0.5,0.5,0.55,0.5,0.33,0.45,0.45,0.5,0.5,0.5,0.72,0.5,0.55,0.5,0.33,0.55,0.33,0.45,0.45,0.28,0.5,0.33,0.5,0.45,0.45,0.28,0.55,0.33,0.45,0.28,0.45,0.28,0.28,0.5,0.5,0.38,0.55,0.45,0.5,0.45,0.5" style="fill:rgb(0,0,0);font-family:AdvPTimes;font-size:9.96px;stroke:none;">The mistrust and breakdown of reciprocal relations even</text>
   <text y="340.201" x="306.142,309.978,314.959,318.276,322.73,327.183,332.163,337.89,342.343,350.124,355.181,360.162,365.142,370.771,378.552,383.005,388.062,390.862,395.315,399.768,402.55679999999995,408.245,413.226,416.543,421.525,424.912,429.365,433.201,437.037,439.836,444.817,449.799,454.252,457.051,460.887,463.377,469.132,476.285,484.066,489.047,494.029,496.911,501.364,506.345,510.799,515.252,519.0368,524.803,531.956,536.409,539.727" svgx:width="0.38,0.5,0.33,0.45,0.45,0.5,0.55,0.45,0.78,0.5,0.5,0.5,0.55,0.78,0.45,0.5,0.28,0.45,0.45,0.28,0.55,0.5,0.33,0.5,0.33,0.45,0.38,0.38,0.28,0.5,0.5,0.45,0.28,0.38,0.25,0.55,0.72,0.78,0.5,0.5,0.28,0.45,0.5,0.45,0.45,0.38,0.55,0.72,0.45,0.33,0.45" style="fill:rgb(0,0,0);font-family:AdvPTimes;font-size:9.96px;stroke:none;">spread among medical professionals. Ambulances were</text>
   <text y="352.673" x="306.142,310.595,314.431,319.412,323.865,328.845,333.411,336.21,341.19,345.769,348.569,351.886,356.34,361.321,365.156,370.138,375.119,378.537,381.32579999999996,385.851,388.65,393.632,398.085,403.066,410.847,413.646,418.628,423.608,428.2,433.181,437.634,440.434,443.233,447.687,452.668,455.582,459.3668,463.916,471.069,473.868,476.668,481.648,486.253,489.57,494.024,499.005,503.458,506.74480000000005,511.368,514.167,519.147,523.669,528.651,531.45,536.432,540.885" svgx:width="0.45,0.38,0.5,0.45,0.5,0.55,0.28,0.5,0.55,0.28,0.33,0.45,0.5,0.38,0.5,0.5,0.33,0.28,0.55,0.28,0.5,0.45,0.5,0.78,0.28,0.5,0.5,0.55,0.5,0.45,0.28,0.28,0.45,0.5,0.28,0.38,0.55,0.72,0.28,0.28,0.5,0.55,0.33,0.45,0.5,0.45,0.33,0.55,0.28,0.5,0.55,0.5,0.28,0.5,0.45,0.33" style="fill:rgb(0,0,0);font-family:AdvPTimes;font-size:9.96px;stroke:none;">asked to transport incoming patients with fever to other</text>
   <text y="365.145" x="306.142,311.123,316.105,319.94,324.922,327.721,330.521,335.054,337.854,341.6388,345.259,352.412,355.212,358.011,362.993,367.974,373.038,375.8268,379.387,384.368,387.686,390.485,395.467,398.7538,402.347,407.328,412.309,415.109,417.908,422.362,426.815,429.305,432.961,436.797,441.77700000000004,445.32,449.773,453.55780000000004,457.168,459.968,464.94800000000004,468.507,476.287,479.087,484.154,486.953,494.734,497.534,501.987,506.46900000000005,510.006,512.805,517.787,522.269,525.823,528.623,531.422,536.404,540.857" svgx:width="0.5,0.5,0.38,0.5,0.28,0.28,0.45,0.28,0.38,0.55,0.72,0.28,0.28,0.5,0.5,0.5,0.28,0.55,0.5,0.33,0.28,0.5,0.33,0.55,0.5,0.5,0.28,0.28,0.45,0.45,0.25,0.55,0.38,0.5,0.55,0.45,0.38,0.55,0.28,0.5,0.55,0.78,0.28,0.5,0.28,0.78,0.28,0.45,0.45,0.55,0.28,0.5,0.45,0.55,0.28,0.28,0.5,0.45,0.33" style="fill:rgb(0,0,0);font-family:AdvPTimes;font-size:9.96px;stroke:none;">hospitals without prior notice, so as to minimize the like-</text>
   <text y="377.56" x="306.142,308.942,311.741,316.722,321.704,326.685,331.665,334.261,339.243,342.5298,345.147,348.464,352.917,356.235,361.304,365.139,369.593,372.392,374.882,377.461,382.961,387.414,390.213,393.013,397.466,402.447,405.247,409.03180000000003,411.759,418.913,423.894,428.874,431.432,438.585,443.038,446.356,450.838,453.428,456.228,459.545,463.998,469.075,472.911,476.228,480.682,483.999,487.317,491.77,496.75,499.349,502.148,507.12800000000004,509.724,514.705,517.504,520.822,524.14,528.593,532.004,536.457,541.439" svgx:width="0.28,0.28,0.5,0.5,0.5,0.5,0.55,0.5,0.33,0.55,0.33,0.45,0.33,0.5,0.38,0.45,0.28,0.25,0.55,0.55,0.45,0.28,0.28,0.45,0.5,0.28,0.38,0.55,0.72,0.5,0.5,0.55,0.72,0.45,0.33,0.45,0.55,0.28,0.33,0.45,0.5,0.38,0.33,0.45,0.33,0.33,0.45,0.5,0.55,0.28,0.5,0.55,0.5,0.28,0.33,0.33,0.45,0.33,0.45,0.5,0.28" style="fill:rgb(0,0,0);font-family:AdvPTimes;font-size:9.96px;stroke:none;">lihood of refusal. Patients who were transferred to different</text>
   <text y="390.032" x="306.142,311.123,316.105,319.94,324.922,327.721,330.521,335.054,337.854,341.6388,345.769,352.922,357.376,360.693,365.175,369.24,372.04,376.493,381.474,385.927,388.727,393.18,398.16,402.292,406.745,410.5298,414.651,416.805,420.122,425.103,430.085,437.951,442.404,447.384,451.443,456.425,460.878,463.678,466.477,470.313,472.803,475.027,478.3138,482.397,486.233,491.214,496.195,501.177,505.63,509.552,512.352,515.151,520.133,525.113,529.168,531.967,536.949,541.402" svgx:width="0.5,0.5,0.38,0.5,0.28,0.28,0.45,0.28,0.38,0.55,0.72,0.45,0.33,0.45,0.55,0.28,0.45,0.5,0.45,0.28,0.45,0.5,0.55,0.45,0.38,0.55,0.33,0.33,0.5,0.5,0.78,0.45,0.5,0.55,0.5,0.45,0.28,0.28,0.38,0.25,0.33,0.33,0.55,0.38,0.5,0.5,0.5,0.45,0.38,0.28,0.28,0.5,0.5,0.55,0.28,0.5,0.45,0.28" style="fill:rgb(0,0,0);font-family:AdvPTimes;font-size:9.96px;stroke:none;">hospitals were labeled as ‘‘human balls,’’ suggesting that</text>
   <text y="402.505" x="306.142,308.942,313.923,318.376,323.356,326.267,333.421,337.874,341.191,345.673,348.548,351.347,354.665,359.118,364.099,367.935,371.338,375.792,379.109,382.427,386.88,391.86,394.752,398.07,402.523,405.323,410.304,414.757,417.557,422.01,426.991,429.901,432.701,437.68100000000004,440.559,443.877,447.194,452.176,459.9448,462.84,467.821,472.802,477.28400000000005,480.131,485.112,489.565,492.883,495.682,500.66200000000003,503.545,506.344,511.324,514.203,518.656,523.637,528.619,531.418,536.4,540.853" svgx:width="0.28,0.5,0.45,0.5,0.55,0.72,0.45,0.33,0.45,0.55,0.28,0.33,0.45,0.5,0.38,0.33,0.45,0.33,0.33,0.45,0.5,0.55,0.33,0.45,0.28,0.5,0.45,0.28,0.45,0.5,0.28,0.28,0.5,0.55,0.33,0.33,0.5,0.78,0.55,0.5,0.5,0.45,0.55,0.5,0.45,0.33,0.28,0.5,0.55,0.28,0.5,0.55,0.45,0.5,0.5,0.28,0.5,0.45,0.33" style="fill:rgb(0,0,0);font-family:AdvPTimes;font-size:9.96px;stroke:none;">they were transferred reluctantly from one party to another</text>
   <text y="414.92" x="306.142,311.123,316.103,320.372,323.171,328.152,332.634,336.869,341.85,346.303,350.757,353.556,356.355,361.33500000000004,365.612,372.765,377.746,381.064,386.045,390.498,393.902,397.737,400.22700000000003,404.446,411.599,416.58,420.49,425.471,428.271,431.07,435.523,438.3118,442.6,447.053,452.034,459.815,462.615,467.596,470.395,474.231,477.03,480.348,484.801,487.601,492.716,496.033,499.81780000000003,504.111,509.092,513.545,518.525,522.763,525.562,530.542,534.782,539.763" svgx:width="0.5,0.5,0.55,0.28,0.5,0.45,0.55,0.5,0.45,0.45,0.28,0.28,0.5,0.55,0.72,0.5,0.33,0.5,0.45,0.33,0.38,0.25,0.55,0.72,0.5,0.38,0.5,0.28,0.28,0.45,0.28,0.55,0.45,0.5,0.78,0.28,0.5,0.28,0.38,0.28,0.33,0.45,0.28,0.5,0.33,0.38,0.55,0.5,0.45,0.5,0.55,0.28,0.5,0.55,0.5,0.45" style="fill:rgb(0,0,0);font-family:AdvPTimes;font-size:9.96px;stroke:none;">by the health workers. Hospital administrators had to be</text>
   <text y="427.392" x="306.142,311.123,313.923,317.758,322.212,325.529,329.983,334.544,337.33279999999996,340.95,345.404,350.385,355.366,360.348,363.1368,366.859,369.659,374.64,379.122,382.732,387.186,392.167,399.948,402.747,406.583,410.511,413.311,418.292,423.272,426.896,431.877,435.16380000000004,438.858,441.657,446.639,451.62,454.419,459.401,462.272,467.253,472.234,476.688,479.487,483.27180000000004,486.99,494.143,496.943,499.742,504.72200000000004,508.363,511.68,516.134,521.115,525.654,528.9408,532.627,535.944,540.926" svgx:width="0.5,0.28,0.38,0.45,0.33,0.45,0.45,0.28,0.55,0.45,0.5,0.5,0.5,0.28,0.55,0.28,0.5,0.45,0.55,0.45,0.5,0.78,0.28,0.38,0.38,0.28,0.5,0.5,0.55,0.5,0.33,0.55,0.28,0.5,0.5,0.28,0.5,0.28,0.5,0.5,0.45,0.28,0.38,0.55,0.72,0.28,0.28,0.5,0.55,0.33,0.45,0.5,0.45,0.33,0.55,0.33,0.5,0.33" style="fill:rgb(0,0,0);font-family:AdvPTimes;font-size:9.96px;stroke:none;">discreet about the admission of individuals with fever for</text>
   <text y="439.864" x="306.142,309.46,313.913,318.366,321.6528,326.438,329.237,334.219,338.672,341.4608,346.224,351.205,354.004,358.986,363.439,366.72580000000005,371.509,376.49,380.943,383.743,386.542,390.995,395.977,398.891,402.67580000000004,407.395,414.548,419.529,424.511,427.407,432.387,437.101,439.901,444.354,448.807,453.789,458.271,463.01,465.81,470.791,475.273,479.961,482.761,487.742,491.578,494.377,497.253,500.052,505.033,507.833,510.632,515.614,520.594,525.315,530.297,535.278,539.731" svgx:width="0.33,0.45,0.45,0.33,0.55,0.28,0.5,0.45,0.28,0.55,0.5,0.28,0.5,0.45,0.33,0.55,0.5,0.45,0.28,0.28,0.45,0.5,0.28,0.38,0.55,0.72,0.5,0.5,0.28,0.5,0.55,0.28,0.45,0.45,0.5,0.45,0.55,0.28,0.5,0.45,0.55,0.28,0.5,0.38,0.28,0.28,0.28,0.5,0.28,0.28,0.5,0.5,0.55,0.5,0.5,0.45,0.45" style="fill:rgb(0,0,0);font-family:AdvPTimes;font-size:9.96px;stroke:none;">fear that other patients would leave the institution once</text>
   <text y="452.28" x="306.142,308.942,313.923,318.376,323.356,326.722,329.521,333.975,338.428,341.745,346.727,349.51579999999996,352.857,357.838,361.12480000000005,364.479,367.279,372.26,376.742,380.069,384.523,389.504,397.285,400.084,403.92,407.756,410.555,415.536,420.604,423.094,426.387,431.886,434.685,439.667,444.12,448.60200000000003,451.955,456.936,461.917,465.753,470.734,473.534,476.333,480.867,483.6558,486.933,491.387,496.368,504.224,507.024,512.005,514.805,518.64,521.44,524.757,529.211,532.01,536.991,540.309" svgx:width="0.28,0.5,0.45,0.5,0.55,0.28,0.45,0.45,0.33,0.5,0.28,0.55,0.5,0.33,0.55,0.28,0.5,0.45,0.55,0.45,0.5,0.78,0.28,0.38,0.38,0.28,0.5,0.5,0.25,0.55,0.55,0.28,0.5,0.45,0.45,0.55,0.5,0.5,0.38,0.5,0.28,0.28,0.45,0.28,0.55,0.45,0.5,0.78,0.28,0.5,0.28,0.38,0.28,0.33,0.45,0.28,0.5,0.33,0.38" style="fill:rgb(0,0,0);font-family:AdvPTimes;font-size:9.96px;stroke:none;">they learnt of the admission. Since hospital administrators</text>
   <text y="464.752" x="306.142,311.123,316.103,321.392,324.191,329.173,334.154,339.135,343.588,346.87480000000005,352.175,356.628,361.61,366.591,371.044,375.589,378.389,382.842,387.822,393.107,395.907,400.888,405.342,408.141,411.42780000000005,416.748,421.729,426.182,430.636,433.435,436.235,441.216,445.774,450.227,453.545,458.02700000000004,463.292,470.445,475.426,478.744,483.725,488.178,491.496,495.2808,500.652,503.451,508.43100000000004,513.691,518.672,521.99,526.971,531.952,534.752,539.733" svgx:width="0.5,0.5,0.55,0.28,0.5,0.5,0.5,0.45,0.33,0.55,0.45,0.5,0.5,0.45,0.45,0.28,0.45,0.5,0.55,0.28,0.5,0.45,0.28,0.33,0.55,0.5,0.45,0.45,0.28,0.28,0.5,0.45,0.45,0.33,0.45,0.55,0.72,0.5,0.33,0.5,0.45,0.33,0.38,0.55,0.28,0.5,0.55,0.5,0.33,0.5,0.5,0.28,0.5,0.45" style="fill:rgb(0,0,0);font-family:AdvPTimes;font-size:9.96px;stroke:none;">no longer expected their healthcare workers to provide</text>
   <text y="477.224" x="306.142,311.123,314.441,319.422,322.74,327.193,331.029,334.864,337.776,342.758,347.739,352.192,354.9808,358.696,362.531,366.985,370.302,375.363,378.163,382.616,387.069,390.85380000000004,394.639,399.62,404.073,407.909,412.362,417.34200000000004,421.114,426.096,431.076,434.834,438.151,442.605,447.058,449.857,454.839,458.248,463.229,467.682,472.136,474.9248,478.657,482.493,487.474,492.455,497.437,502.418,505.812,508.612,511.10200000000003,514.826,519.808,524.261,527.579,530.378,535.359,540.341" svgx:width="0.5,0.33,0.5,0.33,0.45,0.38,0.38,0.28,0.5,0.5,0.45,0.28,0.55,0.38,0.45,0.33,0.5,0.28,0.45,0.45,0.38,0.55,0.5,0.45,0.38,0.45,0.5,0.55,0.5,0.5,0.55,0.33,0.45,0.45,0.28,0.5,0.33,0.5,0.45,0.45,0.28,0.55,0.38,0.5,0.5,0.5,0.5,0.33,0.28,0.25,0.55,0.5,0.45,0.33,0.28,0.5,0.5,0.38" style="fill:rgb(0,0,0);font-family:AdvPTimes;font-size:9.96px;stroke:none;">professional services based on reciprocal support, various</text>
   <text y="489.64" x="306.142,311.123,314.441,318.894,323.347,327.801,332.782,335.678,338.478,343.459,348.44,352.893,356.211,361.19100000000003,369.693,377.474,381.927,386.381,390.216,395.198,398.606,403.059,406.84380000000004,415.33,422.483,426.936,430.354,434.836,443.223,448.205,452.658,457.639,462.092,464.993,469.974,474.955,479.408,484.38800000000003,492.885,495.684,500.666,505.119,507.9078,516.356,521.337,524.655,529.108,533.647,536.446,539.246" svgx:width="0.5,0.33,0.45,0.45,0.45,0.5,0.28,0.28,0.5,0.5,0.45,0.33,0.5,0.55,0.78,0.45,0.45,0.38,0.5,0.33,0.45,0.38,0.55,0.72,0.45,0.33,0.45,0.55,0.5,0.45,0.5,0.45,0.28,0.5,0.5,0.45,0.5,0.55,0.28,0.5,0.45,0.28,0.55,0.5,0.33,0.45,0.45,0.28,0.28,0.5" style="fill:rgb(0,0,0);font-family:AdvPTimes;font-size:9.96px;stroke:none;">precautionary measures were developed that greatly</text>
   <text y="502.112" x="306.142,310.595,313.913,317.23,321.684,326.137,328.936,333.39,338.37,345.316,348.115,353.097,357.579,364.421,369.402,372.72,377.701,382.683,385.568,389.403,392.203,397.184,402.16400000000004,409.039,414.02,417.3068,424.233,428.686,433.139,436.457,440.939,447.817,450.617,455.59700000000004,462.444,467.425,470.225,475.206,479.66,482.94680000000005,489.883,494.864,499.318,502.117,504.917,509.37,514.351,517.151,520.986,523.476,530.418,535.917,540.899" svgx:width="0.45,0.33,0.33,0.45,0.45,0.28,0.45,0.5,0.55,0.28,0.5,0.45,0.55,0.5,0.33,0.5,0.5,0.28,0.38,0.28,0.5,0.5,0.55,0.5,0.33,0.55,0.45,0.45,0.33,0.45,0.55,0.28,0.5,0.55,0.5,0.28,0.5,0.45,0.33,0.55,0.5,0.45,0.28,0.28,0.45,0.5,0.28,0.38,0.25,0.55,0.55,0.5,0.33" style="fill:rgb(0,0,0);font-family:AdvPTimes;font-size:9.96px;stroke:none;">affected the provision of care to other patients. For</text>
   <text y="514.584" x="306.142,310.595,315.577,320.03,327.811,332.792,335.678,340.131,342.621,345.769,348.569,353.022,356.427,361.409,365.891,369.013,373.994,378.976,386.756,391.803,396.257,399.574,403.35880000000003,406.6,411.581,414.86780000000005,418.052,423.033,426.351,431.85,436.303,439.198,443.652,446.451,450.23580000000004,453.485,456.802,460.12,465.101,472.8698,476.048,478.848,483.829,488.31100000000004,491.468,496.45,501.503,506.484,509.283,512.083,516.5649999999999,519.701,524.683,529.136,533.589,536.389,539.188" svgx:width="0.45,0.5,0.45,0.78,0.5,0.28,0.45,0.25,0.55,0.28,0.45,0.33,0.5,0.45,0.55,0.5,0.5,0.78,0.5,0.45,0.33,0.38,0.55,0.5,0.33,0.55,0.5,0.33,0.55,0.45,0.28,0.45,0.28,0.38,0.55,0.33,0.33,0.5,0.78,0.55,0.28,0.5,0.45,0.55,0.5,0.5,0.5,0.28,0.28,0.45,0.55,0.5,0.45,0.45,0.28,0.28,0.5" style="fill:rgb(0,0,0);font-family:AdvPTimes;font-size:9.96px;stroke:none;">example, large numbers of ofﬁcials from the public health</text>
   <text y="526.999" x="306.142,311.123,315.577,320.558,325.011,328.329,331.128,339.024,343.477,348.458,351.2468,357.278,364.431,368.884,372.202,376.684,382.676,387.129,390.965,394.8,397.6,402.581,407.562,412.015,416.995,423.097,425.896,430.87600000000003,436.873,441.326,446.308,450.143,455.125,458.442,462.92400000000004,468.961,471.76,476.741,481.195,483.9838,489.994,492.793,497.774,502.756,507.737,511.65,516.104,521.085,526.066,529.8508,535.914,540.896" svgx:width="0.5,0.45,0.5,0.45,0.33,0.28,0.78,0.45,0.5,0.28,0.55,0.72,0.45,0.33,0.45,0.55,0.45,0.38,0.38,0.28,0.5,0.5,0.45,0.5,0.55,0.28,0.5,0.55,0.45,0.5,0.38,0.5,0.33,0.45,0.55,0.28,0.5,0.45,0.28,0.55,0.28,0.5,0.5,0.5,0.38,0.45,0.5,0.5,0.38,0.55,0.5,0.33" style="fill:rgb(0,0,0);font-family:AdvPTimes;font-size:9.96px;stroke:none;">department were assigned to ensure that thousands of</text>
   <text y="539.471" x="306.142,311.123,316.105,320.558,323.875,328.329,333.411,336.21,339.01,343.991,348.444,353.42400000000004,356.201,359.001,363.982,368.963,371.763,376.744,379.615,384.596,389.578,394.031,396.831,400.61580000000004,403.483,407.318,410.118,414.571,419.552,424.005,428.985,431.772,436.818,441.8,449.58,454.062,456.83" svgx:width="0.5,0.5,0.45,0.33,0.45,0.5,0.28,0.28,0.5,0.45,0.5,0.55,0.28,0.5,0.5,0.28,0.5,0.28,0.5,0.5,0.45,0.28,0.38,0.55,0.38,0.28,0.45,0.5,0.45,0.5,0.55,0.5,0.5,0.78,0.45,0.55,0.33" style="fill:rgb(0,0,0);font-family:AdvPTimes;font-size:9.96px;stroke:none;">quarantined individuals stayed home [</text>
   <text y="539.471" x="460.119,465.1" svgx:width="0.5,0.5" style="fill:rgb(0,0,255);font-family:AdvPTimes;font-size:9.96px;stroke:none;">44</text>
   <text y="539.471" x="470.097,473.414,475.904,478.714,482.032,487.013,491.994,494.794,499.775,502.575,507.627,512.608,517.061,519.861,523.6458,526.448,533.601,536.401,539.2" svgx:width="0.33,0.25,0.55,0.33,0.5,0.5,0.28,0.5,0.28,0.5,0.5,0.45,0.28,0.38,0.55,0.72,0.28,0.28,0.5" style="fill:rgb(0,0,0);font-family:AdvPTimes;font-size:9.96px;stroke:none;">]. Individuals with</text>
   <text y="551.944" x="306.141,309.459,313.912,316.711,321.165,323.964,328.417,333.397,337.946,341.781,346.763,354.543,359.525,362.324,367.305,375.193,378.9778,383.47,390.623,395.076,400.057,402.8458,407.337,410.137,415.118,418.505,423.486,428.468,433.449,438.42900000000003,442.883,447.336,452.317,457.298,460.174,462.973,465.773,470.754,475.735,480.189,482.9778,487.499,490.299,494.752,498.588,501.387,504.187,509.168,514.148,518.68,523.661,526.979,531.96,536.414,540.867" svgx:width="0.33,0.45,0.28,0.45,0.28,0.45,0.5,0.55,0.38,0.5,0.78,0.5,0.28,0.5,0.78,0.38,0.55,0.72,0.45,0.5,0.28,0.55,0.28,0.5,0.33,0.5,0.5,0.5,0.5,0.55,0.45,0.5,0.5,0.28,0.28,0.28,0.5,0.5,0.45,0.28,0.55,0.28,0.45,0.38,0.28,0.28,0.5,0.5,0.55,0.5,0.33,0.5,0.45,0.45,0.33" style="fill:rgb(0,0,0);font-family:AdvPTimes;font-size:9.96px;stroke:none;">related symptoms went through additional testing proce-</text>
   <text y="564.359" x="306.141,311.122,316.104,319.421,323.874,327.71,330.2,335.791,341.908,346.889,351.342,355.178,359.66,365.214,368.532,372.985,377.966,382.948,385.747,389.065,393.617,398.59700000000004,404.161,409.142,412.46,417.441,421.894,426.348,431.329,436.31,439.628,444.186,447.9708,453.54,456.339,461.32,465.774,469.091,473.544,477.998,481.942,486.395,491.375,496.909,499.708,504.689,509.17100000000005,514.71,519.163,521.963,525.28,529.734,534.187,539.168" svgx:width="0.5,0.5,0.33,0.45,0.38,0.25,0.55,0.61,0.5,0.45,0.38,0.45,0.55,0.33,0.45,0.5,0.5,0.28,0.33,0.45,0.5,0.55,0.5,0.33,0.5,0.45,0.45,0.5,0.5,0.33,0.45,0.38,0.55,0.28,0.5,0.45,0.33,0.45,0.45,0.38,0.45,0.5,0.55,0.28,0.5,0.45,0.55,0.45,0.28,0.33,0.45,0.45,0.5,0.5" style="fill:rgb(0,0,0);font-family:AdvPTimes;font-size:9.96px;stroke:none;">dures. These required procedures increased the already</text>
   <text y="576.831" x="306.141,310.594,315.576,320.557,323.874,331.655,336.637,341.618,345.4028,348.66,355.814,360.795,364.112,369.094,371.893,376.95,381.403,386.38300000000004,389.479,394.46,397.7468,400.931,403.731,408.184,413.165,418.146,421.464,425.917,428.717,433.698,437.016,439.936,444.389,448.1738,451.331,455.784,460.765,465.745,468.906,476.059,479.377,482.694,487.147,492.127,495.268,500.249,504.702,509.684,514.137,517.548,520.348,528.128,532.582,537.563,540.363" svgx:width="0.45,0.5,0.5,0.33,0.78,0.5,0.5,0.38,0.55,0.72,0.5,0.33,0.5,0.28,0.5,0.45,0.5,0.55,0.5,0.33,0.55,0.28,0.45,0.5,0.5,0.33,0.45,0.28,0.5,0.33,0.28,0.45,0.38,0.55,0.45,0.5,0.5,0.55,0.72,0.33,0.33,0.45,0.5,0.55,0.5,0.45,0.5,0.45,0.33,0.28,0.78,0.45,0.5,0.28,0.38" style="fill:rgb(0,0,0);font-family:AdvPTimes;font-size:9.96px;stroke:none;">enormous workload of laboratories and X-ray departments</text>
   <text y="589.303" x="306.141,308.941,313.921,317.197,322.178,327.159,330.995,335.976,338.776,341.575,346.109,348.908,352.744,355.23400000000004,358.468,362.921,367.902,372.882,376.155,379.473,383.926,386.725,391.179,394.07,398.523,403.50300000000004,406.769,411.751,416.204,419.521,423.357,428.338,433.32,438.301,442.754,445.5428,448.891,456.044,460.497,463.815,468.297,471.568,476.549,481.53,486.512,490.965,494.2518,497.589,500.389,503.706,508.159,515.94,520.394,525.375,530.356,535.338,540.319" svgx:width="0.28,0.5,0.55,0.5,0.5,0.38,0.5,0.28,0.28,0.45,0.28,0.38,0.25,0.55,0.45,0.5,0.5,0.55,0.33,0.45,0.28,0.45,0.28,0.45,0.5,0.55,0.5,0.45,0.33,0.38,0.5,0.5,0.5,0.45,0.28,0.55,0.72,0.45,0.33,0.45,0.55,0.5,0.5,0.5,0.45,0.33,0.55,0.28,0.33,0.45,0.78,0.45,0.5,0.5,0.5,0.5,0.38" style="fill:rgb(0,0,0);font-family:AdvPTimes;font-size:9.96px;stroke:none;">in hospitals, and related personnel were under tremendous</text>
   <text y="601.719" x="306.141,309.977,312.776,316.094,320.547,324.383,328.1678,331.595" svgx:width="0.38,0.28,0.33,0.45,0.38,0.38,0.55,0.33" style="fill:rgb(0,0,0);font-family:AdvPTimes;font-size:9.96px;stroke:none;">stress [</text>
   <text y="601.719" x="334.884,339.865" svgx:width="0.5,0.5" style="fill:rgb(0,0,255);font-family:AdvPTimes;font-size:9.96px;stroke:none;">45</text>
   <text y="601.719" x="344.862,348.179,350.669,353.989,361.143,364.9278,368.333,376.113,378.913,382.748,385.548,388.865,393.847,397.682,400.4708,403.821,408.803,412.12,416.573,423.7442,427.065,431.518,436.5,441.48,444.809,448.127,452.58,457.034,459.833,464.814,468.223,473.205,477.658,482.111,484.89979999999997,488.235,492.071,497.052,502.034,507.015,511.996,515.39,518.1788,521.457,526.438,529.755,534.737,539.718" svgx:width="0.33,0.25,0.55,0.72,0.38,0.55,0.78,0.28,0.38,0.28,0.33,0.5,0.38,0.28,0.55,0.5,0.33,0.45,0.72,0.55,0.45,0.5,0.5,0.55,0.33,0.45,0.45,0.28,0.5,0.33,0.5,0.45,0.45,0.28,0.55,0.38,0.5,0.5,0.5,0.5,0.33,0.28,0.55,0.5,0.33,0.5,0.5,0.45" style="fill:rgb(0,0,0);font-family:AdvPTimes;font-size:9.96px;stroke:none;">]. As mistrust grew and reciprocal support broke</text>
   <text y="614.191" x="306.141,311.122,316.104,323.257,328.237,331.652,338.805,341.605,344.404,349.386,352.185,357.165,360.621,365.603,370.056,374.509,377.309,380.108,385.088,388.514,392.967,397.42,400.738,405.22,408.639,412.475,416.928,419.728,422.527,425.327,430.308,435.289,439.125,441.615,445.092,447.892,452.873,457.355,460.74,465.193,470.174,472.974,475.773,480.226,485.208,489.043,493.52500000000003,496.966,501.947,505.23380000000003,508.645,511.444,514.762,519.743,523.579,526.3678,529.791,534.245,539.226" svgx:width="0.5,0.5,0.72,0.5,0.55,0.72,0.28,0.28,0.5,0.28,0.5,0.55,0.5,0.45,0.45,0.28,0.28,0.5,0.55,0.45,0.45,0.33,0.45,0.55,0.38,0.45,0.28,0.28,0.28,0.5,0.5,0.38,0.25,0.55,0.28,0.5,0.45,0.55,0.45,0.5,0.28,0.28,0.45,0.5,0.38,0.45,0.55,0.5,0.33,0.55,0.28,0.33,0.5,0.38,0.28,0.55,0.45,0.5,0.5" style="fill:rgb(0,0,0);font-family:AdvPTimes;font-size:9.96px;stroke:none;">down within health care settings, the collapse of trust and</text>
   <text y="626.663" x="306.141,309.459,313.912,318.365,321.165,326.146,329.555,334.536,338.99,343.443,346.23179999999996,348.774,352.61,357.591,362.572,367.553,372.535,375.929,378.71779999999995,381.258,384.576,389.557,392.874,395.674,400.655,405.108,408.39480000000003,410.964,415.946,418.745,422.132,425.45,430.431,434.267,438.72,443.70000000000005,446.227,449.026,454.00600000000003,456.545,460.999,463.798,466.5868,469.131,476.284,480.737,483.537,488.518,492.3028,494.926,499.907,503.1938,505.755,508.554,511.354,514.671,519.153,521.685,524.484,529.464,532.003,534.803,539.784" svgx:width="0.33,0.45,0.45,0.28,0.5,0.33,0.5,0.45,0.45,0.28,0.55,0.38,0.5,0.5,0.5,0.5,0.33,0.28,0.55,0.33,0.5,0.33,0.28,0.5,0.45,0.33,0.55,0.5,0.28,0.33,0.33,0.5,0.38,0.45,0.5,0.55,0.28,0.5,0.55,0.45,0.28,0.28,0.55,0.72,0.45,0.28,0.5,0.38,0.55,0.5,0.33,0.55,0.28,0.28,0.33,0.45,0.55,0.28,0.5,0.55,0.28,0.5,0.45" style="fill:rgb(0,0,0);font-family:AdvPTimes;font-size:9.96px;stroke:none;">reciprocal support further diffused to all walks of life in the</text>
   <text y="639.079" x="306.141,310.594,315.576,323.356,331.137,336.118,341.176,343.976,346.775,351.757" svgx:width="0.45,0.5,0.78,0.78,0.5,0.5,0.28,0.28,0.5,0.25" style="fill:rgb(0,0,0);font-family:AdvPTimes;font-size:9.96px;stroke:none;">community.</text>
   <text y="651.551" x="317.479,324.115,329.096,336.877,341.858,346.839,351.891,356.873,361.854,364.653,369.635,374.615,383.129,385.928,390.91,395.39200000000005,403.878,407.714,410.513,413.313,418.294,422.747,425.547,428.346,433.414,438.396,440.886,449.344,452.144,457.125,461.607,470.094,477.874,482.328,487.309,490.108,494.59000000000003,503.089,507.542,512.523,517.505,521.34,524.14,528.593,533.574,536.374,539.173" svgx:width="0.67,0.5,0.78,0.5,0.5,0.5,0.5,0.5,0.28,0.5,0.5,0.55,0.28,0.5,0.45,0.55,0.38,0.28,0.28,0.5,0.45,0.28,0.28,0.5,0.5,0.25,0.55,0.28,0.5,0.45,0.55,0.78,0.45,0.5,0.28,0.45,0.55,0.45,0.5,0.5,0.38,0.28,0.45,0.5,0.28,0.28,0.5" style="fill:rgb(0,0,0);font-family:AdvPTimes;font-size:9.96px;stroke:none;">Compounding the situation, the media constantly</text>
   <text y="664.023" x="306.141,309.459,313.912,318.893,323.874,327.192,329.991,334.543,339.523,342.027,347.009,351.462,358.6332,361.189,365.643,370.096,373.931,378.48,382.26480000000004,384.83,389.283,394.264,399.244,401.838,406.819,411.272,416.254,420.707,423.506,428.488,433.469,441.352,445.806,450.787,453.586,457.37080000000003,459.947,462.747,467.728,471.116,476.097,481.078,486.059,491.041,496.022,501.003,503.79179999999997,506.378,510.831,515.285,519.738,524.7180000000001,527.298,532.279,536.732,541.714" svgx:width="0.33,0.45,0.5,0.5,0.33,0.28,0.45,0.5,0.55,0.5,0.45,0.72,0.55,0.45,0.45,0.38,0.45,0.38,0.55,0.45,0.5,0.5,0.55,0.5,0.45,0.5,0.45,0.28,0.5,0.5,0.78,0.45,0.5,0.28,0.38,0.55,0.28,0.5,0.33,0.5,0.5,0.5,0.5,0.5,0.5,0.28,0.55,0.45,0.45,0.45,0.5,0.55,0.5,0.45,0.5,0.25" style="fill:rgb(0,0,0);font-family:AdvPTimes;font-size:9.96px;stroke:none;">reported new cases and developments throughout each day.</text>
   <text y="676.438" x="306.141,313.294,317.747,324.901,328.736,333.807,338.26,343.242,347.695,351.013,354.7978,357.845,362.826,367.279,372.261,377.242,380.125,384.578,389.558,392.541,400.321,404.775,407.574,412.555,415.84180000000003,418.903,423.356,428.337,433.318,437.772,441.089,445.543,450.524,455.00600000000003,458.02,460.819,465.79900000000004,468.791,471.591,476.572,481.05400000000003,483.985,488.967,493.948,496.747,501.729,505.131,509.584,514.037,519.017,522.025,526.479,531.46,535.913,539.231" svgx:width="0.72,0.45,0.72,0.38,0.5,0.45,0.5,0.45,0.33,0.38,0.55,0.5,0.45,0.5,0.5,0.28,0.45,0.5,0.55,0.78,0.45,0.28,0.5,0.33,0.55,0.45,0.5,0.5,0.45,0.33,0.45,0.5,0.45,0.55,0.28,0.5,0.55,0.28,0.5,0.45,0.55,0.5,0.5,0.28,0.5,0.33,0.45,0.45,0.5,0.55,0.45,0.5,0.45,0.33,0.5" style="fill:rgb(0,0,0);font-family:AdvPTimes;font-size:9.96px;stroke:none;">Newspapers devoted major coverage to the outbreak every</text>
   <text y="688.91" x="306.141,311.122,315.576,320.557,323.047,326.833,332.95,338.001,342.455,345.254,348.54080000000005,352.345,356.798,361.779,366.76,369.636,374.089,379.07,383.523,388.00500000000005,391.802,396.256,401.237,406.21700000000004,410.001,413.319,417.772,422.225,427.206,431.66,434.977,438.914,441.404,445.151,449.604,454.586,459.039,464.019,467.885,470.684,475.666,480.647,484.482,488.96400000000006,492.716,497.697,502.678,505.4668,509.269,512.069,514.868,519.85,522.649,527.63,532.61,536.425,539.225" svgx:width="0.5,0.45,0.5,0.25,0.55,0.61,0.5,0.45,0.28,0.33,0.55,0.45,0.5,0.5,0.28,0.45,0.5,0.45,0.45,0.55,0.45,0.5,0.5,0.55,0.33,0.45,0.45,0.5,0.45,0.33,0.38,0.25,0.55,0.45,0.5,0.45,0.5,0.55,0.28,0.5,0.5,0.38,0.45,0.55,0.5,0.5,0.28,0.55,0.28,0.28,0.5,0.28,0.5,0.5,0.55,0.28,0.5" style="fill:rgb(0,0,0);font-family:AdvPTimes;font-size:9.96px;stroke:none;">day. Their audience and readers, even those not living in</text>
   <text y="701.383" x="306.141,310.594,313.912,317.229,321.683,326.136,328.935,333.389,338.369,341.29,345.743,349.061,353.514,357.967,361.803,364.293,367.199,371.652,376.633,381.615,384.414,389.394,392.257,395.574,400.027,404.481,407.2698,410.171,412.971,417.952,422.434,425.252,429.087,433.541,436.858,439.658,444.639,449.62,453.542,458.523,462.976,466.812,470.59680000000003,473.498,478.479,481.7658,484.666,487.465,492.447,496.92900000000003,499.746,504.727,508.045,513.026,518.008,520.807,525.26,533.0288,535.915,540.369" svgx:width="0.45,0.33,0.33,0.45,0.45,0.28,0.45,0.5,0.55,0.45,0.33,0.45,0.45,0.38,0.25,0.55,0.45,0.5,0.5,0.28,0.5,0.55,0.33,0.45,0.45,0.28,0.55,0.28,0.5,0.45,0.55,0.38,0.45,0.33,0.28,0.5,0.5,0.38,0.5,0.45,0.38,0.38,0.55,0.5,0.33,0.55,0.28,0.5,0.45,0.55,0.5,0.33,0.5,0.5,0.28,0.45,0.78,0.55,0.45,0.38" style="fill:rgb(0,0,0);font-family:AdvPTimes;font-size:9.96px;stroke:none;">affected areas, could feel the seriousness of the problem as</text>
   <text y="713.798" x="306.141,308.941,313.922,318.40400000000005,321.732,329.512,333.966,339.023,341.822,346.30400000000003,349.624,354.605,357.923,362.904,367.885,370.685,375.666,380.119,385.09900000000005,388.515,396.296,400.749,405.806,408.605,413.059,417.512,420.3008,423.664,426.981,431.435,436.416,441.397,444.81,447.61,451.39480000000003,454.788,459.769,463.05580000000003,466.466,470.302,475.283,483.064,488.045,490.845,495.826,503.607,507.39180000000005,510.856,515.31,520.291,525.2710000000001,528.658,531.457,536.438,539.238" svgx:width="0.28,0.5,0.45,0.55,0.78,0.45,0.5,0.28,0.45,0.55,0.5,0.33,0.5,0.5,0.28,0.5,0.45,0.5,0.55,0.78,0.45,0.5,0.28,0.45,0.45,0.28,0.55,0.33,0.45,0.5,0.5,0.33,0.28,0.38,0.55,0.5,0.33,0.55,0.38,0.5,0.78,0.5,0.28,0.5,0.78,0.38,0.55,0.45,0.5,0.5,0.55,0.28,0.5,0.28,0.5" style="fill:rgb(0,0,0);font-family:AdvPTimes;font-size:9.96px;stroke:none;">the media provided medical reports of symptoms and told</text>
  </g>
  <path style="fill:none;stroke:rgb(0,0,0);stroke-width:1.0;" d="M51.020 693.920 L289.130 693.920 L289.130 713.930 L51.020 713.930 M51.020 693.920 L96.380 693.920 "/>
  <g begin="text">
   <text y="700.157" x="51.024" svgx:width="0.5" style="fill:rgb(0,0,0);font-family:AdvPTimes;font-size:5.64px;stroke:none;">5</text>
   <text y="703.956" x="58.45,63.65,67.884,71.6955,74.551,78.785,82.57,84.95,88.7615,91.672,95.906,100.141,103.011,105.39,109.625,113.4365,116.334,118.714,121.533,125.319,129.553,133.788,136.686,140.921,143.71609999999998,146.664,153.278,157.063,159.443,163.677,166.057,169.842,172.221,176.456,178.835,183.069,187.304,190.205,192.584,196.818,200.6295,203.528,206.347,210.133,213.918,216.298,220.532,223.352,227.586,231.371,235.156,237.5276,240.435,243.254,247.04,249.419,253.205,255.584,257.964,262.198,266.432,269.692,273.926,276.306,280.541,283.465,285.844" svgx:width="0.61,0.5,0.45,0.55,0.5,0.45,0.28,0.45,0.55,0.5,0.5,0.55,0.28,0.5,0.45,0.55,0.28,0.33,0.45,0.5,0.5,0.55,0.5,0.33,0.55,0.78,0.45,0.28,0.5,0.28,0.45,0.28,0.5,0.28,0.5,0.5,0.55,0.28,0.5,0.45,0.55,0.33,0.45,0.45,0.28,0.5,0.33,0.5,0.45,0.45,0.28,0.55,0.33,0.45,0.28,0.45,0.28,0.28,0.5,0.5,0.38,0.5,0.28,0.5,0.55,0.28,0.38" style="fill:rgb(0,0,0);font-family:AdvPTimes;font-size:8.47px;stroke:none;">The data on the trend of maintaining the reciprocal relationship is</text>
   <text y="713.934" x="51.024,54.809,59.043,62.828,65.208,67.588,71.373,75.607,77.987,81.79849999999999,84.643,88.877,93.111,97.345,101.58,104.372,107.192,110.977,115.211,119.445,123.307,126.568,128.947" svgx:width="0.45,0.5,0.45,0.28,0.28,0.45,0.5,0.28,0.45,0.55,0.5,0.5,0.5,0.5,0.55,0.33,0.45,0.5,0.5,0.45,0.38,0.28,0.25" style="fill:rgb(0,0,0);font-family:AdvPTimes;font-size:8.47px;stroke:none;">available upon request.</text>
  </g>
  <g begin="text">
   <text y="39.969" x="51.024,54.2426,57.089,62.729,66.963,73.577,80.191,84.425,88.659,91.038,93.418,97.653,100.516,106.596,110.381,114.167,116.546,118.926,123.161,126.028,128.848,133.082,137.316,141.55,145.784,148.57909999999998,151.427,155.661,159.895,162.275,166.509,170.743,174.977,179.211,183.445,187.679,191.91400000000002,531.552,535.786,540.02" svgx:width="0.38,0.55,0.67,0.5,0.78,0.78,0.5,0.5,0.28,0.28,0.5,0.55,0.72,0.45,0.45,0.28,0.28,0.5,0.55,0.33,0.5,0.5,0.5,0.5,0.33,0.55,0.5,0.5,0.28,0.5,0.5,0.5,0.5,0.5,0.5,0.5,0.55,0.5,0.5,0.5" style="fill:rgb(0,0,0);font-family:AdvPTimes;font-size:8.47px;stroke:none;">J Community Health (2011) 36:797–810 803</text>
   <text y="745.342" x="504.624,511.782,515.039" svgx:width="0.48,0.22,1.97" style="fill:rgb(0,0,0);font-family:AdvSPRING-R;font-size:14.94px;stroke:none;">123</text>
  </g>
 </g>
</svg>
