<?xml version="1.0" encoding="UTF-8"?>
<svg height="740.288" width="543.52" xmlns="http://www.w3.org/2000/svg">
 <g id="page" xmlns:svgx="http://www.xml-cml.org/schema/svgx">
  <path style="fill:none;stroke:rgb(0,0,0);stroke-width:1.0;" d="M48.600 475.300 L283.790 475.300 "/>
  <g begin="text">
   <text y="294.552" x="66.6,69.102,74.106,76.788,79.785,84.789,89.289,94.293,99.297,104.301,108.801,113.805,116.487,118.989,123.993,126.675,131.175,136.179,140.679,145.683,148.68,153.684,155.682,158.364,160.362,165.366,169.866,174.87,179.874,184.878,189.378,194.382,196.569,202.572,205.569,212.067,217.071,223.569,228.573,231.57,236.574,241.578,249.075,254.079,259.083,261.774,263.772,268.776,271.278,276.282,280.782" svgx:width="0.28,0.56,0.28,0.33,0.56,0.5,0.56,0.56,0.56,0.5,0.56,0.28,0.28,0.56,0.28,0.5,0.56,0.5,0.56,0.33,0.56,0.22,0.28,0.22,0.56,0.5,0.56,0.56,0.56,0.5,0.56,0.28,0.67,0.33,0.72,0.56,0.72,0.56,0.33,0.56,0.56,0.83,0.56,0.56,0.28,0.22,0.56,0.28,0.56,0.5,0.33" style="fill:rgb(0,0,0);font-family:ArialMT;font-size:9.0px;stroke:none;">In response to several influenza A(H1N1)pdm09 infec-</text>
   <text y="305.55" x="48.6,51.102,53.1,58.104,63.108,67.608,70.128,71.244,73.746,78.75,83.754,86.256,88.776,89.883,94.887,99.891,104.391,109.395,111.393,116.406,121.41,126.414,131.418,133.93800000000002,135.054,137.052,142.056,144.57600000000002,145.692,150.696,155.7,160.2,164.7,169.704,174.708,179.721,184.725,187.722,192.222,194.74200000000002,195.849,200.853,203.355,205.857,210.861,213.858,216.37800000000001,217.485,219.987,224.991,229.995,234.495,237.01500000000001,238.122,240.624,243.621,248.625,253.125,258.129,260.127,265.131,270.135,272.655,273.771,278.775,283.779" svgx:width="0.28,0.22,0.56,0.56,0.5,0.28,0.55,0.28,0.56,0.56,0.28,0.28,0.55,0.56,0.56,0.5,0.56,0.22,0.56,0.56,0.56,0.56,0.28,0.55,0.22,0.56,0.28,0.55,0.56,0.56,0.5,0.5,0.56,0.56,0.56,0.56,0.33,0.5,0.28,0.55,0.56,0.28,0.28,0.56,0.33,0.28,0.55,0.28,0.56,0.56,0.5,0.28,0.55,0.28,0.33,0.56,0.5,0.56,0.22,0.56,0.56,0.28,0.55,0.56,0.56,0.28" style="fill:rgb(0,0,0);font-family:ArialMT;font-size:9.0px;stroke:none;">tions that developed in passengers after they traveled on </text>
   <text y="316.548" x="48.6,51.102,56.106,61.11,63.666,68.166,73.17,80.667,85.671,88.227,93.231,95.787,100.287,102.285,107.289,112.293,114.795,119.295,121.851,124.353,127.35,132.354,139.851,142.407,148.905,153.909,160.407,162.801,167.976,172.98,175.977,180.477,182.979,185.526,192.024,197.028,203.526,205.92,211.095,216.099,219.096,223.596,226.098,228.654,235.152,241.155,247.158,249.66,252.216,254.718,259.722,262.278,268.776,273.78,278.784,283.788" svgx:width="0.28,0.56,0.56,0.28,0.5,0.56,0.83,0.56,0.28,0.56,0.28,0.5,0.22,0.56,0.56,0.28,0.5,0.28,0.28,0.33,0.56,0.83,0.28,0.72,0.56,0.72,0.28,0.67,0.56,0.33,0.5,0.28,0.28,0.72,0.56,0.72,0.28,0.67,0.56,0.33,0.5,0.28,0.28,0.72,0.67,0.67,0.28,0.28,0.28,0.56,0.28,0.72,0.56,0.56,0.56,0.28" style="fill:rgb(0,0,0);font-family:ArialMT;font-size:9.0px;stroke:none;">the same 2 flights from New York, New York, USA, to Hong </text>
   <text y="327.546" x="48.6,54.603,59.607,64.611,69.615,72.117,74.916,81.414,86.418,88.416,93.42,98.424,100.926,103.725,106.227,111.231,114.03,119.529,124.533,129.033,134.037,139.041,144.045,146.547,149.346,155.844,160.848,162.846,167.85,172.854,175.356,178.155,184.653,189.657,192.456,197.46,201.96,206.46,211.464,215.964,220.464,225.468,230.472,233.271,235.773,238.77,243.774,248.778,253.278,260.775,262.773,267.273,271.773,273.771,278.775,283.779" svgx:width="0.67,0.56,0.56,0.56,0.28,0.28,0.72,0.56,0.22,0.56,0.56,0.28,0.28,0.28,0.56,0.28,0.61,0.56,0.5,0.56,0.56,0.56,0.28,0.28,0.72,0.56,0.22,0.56,0.56,0.28,0.28,0.72,0.56,0.28,0.56,0.5,0.5,0.56,0.5,0.5,0.56,0.56,0.28,0.28,0.33,0.56,0.56,0.5,0.83,0.22,0.5,0.5,0.22,0.56,0.56,0.28" style="fill:rgb(0,0,0);font-family:ArialMT;font-size:9.0px;stroke:none;">Kong, China, to Fuzhou, China, we assessed transmission </text>
   <text y="338.544" x="48.6,53.604,56.106,59.382,61.38,66.384,70.884,75.888,80.901,85.905,90.405,95.409,98.199,104.202,107.199,113.697,118.701,125.199,130.203,133.2,138.204,143.208,150.705,155.709,160.713,163.233,164.007,168.507,170.505,173.502,178.506,183.006,185.526,186.282,191.286,196.29,198.81,199.575,202.077,207.081,212.085,216.585,221.589,224.109,224.874,229.374,231.372,236.376,241.38,243.882,248.382,250.884,253.404,254.169,262.503,267.507,270.027,270.792,275.796,280.8" svgx:width="0.56,0.28,0.28,0.22,0.56,0.5,0.56,0.56,0.56,0.5,0.56,0.28,0.67,0.33,0.72,0.56,0.72,0.56,0.33,0.56,0.56,0.83,0.56,0.56,0.28,0.55,0.5,0.22,0.33,0.56,0.5,0.28,0.55,0.56,0.56,0.28,0.55,0.28,0.56,0.56,0.5,0.56,0.28,0.55,0.5,0.22,0.56,0.56,0.28,0.5,0.28,0.28,0.55,0.94,0.56,0.28,0.55,0.56,0.56,0.33" style="fill:rgb(0,0,0);font-family:ArialMT;font-size:9.0px;stroke:none;">of influenza A(H1N1)pdm09 virus on these flights . W e de-</text>
   <text y="349.542" x="48.6,53.1,58.104,63.108,68.112,70.63199999999999,71.523,76.527,79.047,79.938,84.438,89.442,93.942,98.946,101.466,102.357,107.361,109.863,112.383,113.265,115.263,120.267,122.769,127.773,132.273,134.775,136.773,141.777,146.781,149.30100000000002,150.192,155.196,159.696,162.216,163.107,168.111,173.115,177.615,182.619,185.121,187.64100000000002,188.532,193.536,196.038,198.55800000000002,199.44,201.942,206.946,211.446,216.45,219.447,221.967,222.858,227.862,232.866,237.87,240.39000000000001,241.281,244.278,249.282,253.782,258.786,260.784,263.781,268.785,271.287,276.291,279.288,283.788" svgx:width="0.5,0.56,0.56,0.56,0.28,0.55,0.56,0.28,0.55,0.5,0.56,0.5,0.56,0.28,0.55,0.56,0.28,0.28,0.55,0.22,0.56,0.28,0.56,0.5,0.28,0.22,0.56,0.56,0.28,0.55,0.56,0.5,0.28,0.55,0.56,0.56,0.5,0.56,0.28,0.28,0.55,0.56,0.28,0.28,0.55,0.28,0.56,0.5,0.56,0.33,0.28,0.55,0.56,0.56,0.56,0.28,0.55,0.33,0.56,0.5,0.56,0.22,0.33,0.56,0.28,0.56,0.33,0.5,0.28" style="fill:rgb(0,0,0);font-family:ArialMT;font-size:9.0px;stroke:none;">fined a case of infection as onset of fever and respiratory </text>
   <text y="360.54" x="48.6,53.1,57.6,65.097,70.101,72.603,77.607,85.104,89.604,92.124,93.339,98.343,103.347,108.351,110.871,112.086,117.09,122.094,124.596,129.6,134.1,136.602,138.6,143.604,148.608,151.12800000000001,152.343,157.347,159.849,162.369,163.584,168.084,170.082,173.079,178.083,182.583,185.103,186.318,191.322,195.822,198.342,199.557,205.56,212.058,218.556,221.07600000000002,222.291,224.289,229.293,231.81300000000002,233.028,238.032,240.55200000000002,241.767,246.771,251.775,256.275,260.775,265.779,270.783,275.787,280.791,283.788" svgx:width="0.5,0.5,0.83,0.56,0.28,0.56,0.83,0.5,0.28,0.55,0.56,0.56,0.56,0.28,0.55,0.56,0.56,0.28,0.56,0.5,0.28,0.22,0.56,0.56,0.28,0.55,0.56,0.28,0.28,0.55,0.5,0.22,0.33,0.56,0.5,0.28,0.55,0.56,0.5,0.28,0.55,0.67,0.72,0.72,0.28,0.55,0.22,0.56,0.28,0.55,0.56,0.28,0.55,0.56,0.56,0.5,0.5,0.56,0.56,0.56,0.56,0.33,0.28" style="fill:rgb(0,0,0);font-family:ArialMT;font-size:9.0px;stroke:none;">symptoms and detection of virus by PCR in a passenger </text>
   <text y="371.538" x="48.6,53.604,56.601,59.121,60.282,64.782,67.779,72.783,79.281,81.801,82.962,90.459,95.463,102.96,107.964,112.968,115.965,118.485,119.646,124.65,127.152,129.672,130.824,135.828,137.826,140.328,145.332,150.336,153.333,155.853,157.014,161.514,163.512,168.516,173.52,176.022,178.524,181.044,182.205,184.707,186.705,188.703,193.707,198.711,203.211,207.711,210.23100000000002,211.392,216.396,221.4,225.9,230.904,232.902,237.906,242.91,247.914,252.918,255.43800000000002,256.608,261.612,266.616,268.614,273.114,275.63399999999996,276.795,278.793,283.797" svgx:width="0.56,0.33,0.28,0.55,0.5,0.33,0.56,0.72,0.28,0.55,0.83,0.56,0.83,0.56,0.56,0.33,0.28,0.55,0.56,0.28,0.28,0.55,0.56,0.22,0.28,0.56,0.56,0.33,0.28,0.55,0.5,0.22,0.56,0.56,0.28,0.28,0.28,0.55,0.28,0.22,0.22,0.56,0.56,0.5,0.5,0.28,0.55,0.56,0.56,0.5,0.56,0.22,0.56,0.56,0.56,0.56,0.28,0.55,0.56,0.56,0.22,0.5,0.28,0.55,0.22,0.56,0.28" style="fill:rgb(0,0,0);font-family:ArialMT;font-size:9.0px;stroke:none;">or crew member of either flight. Illness developed only in </text>
   <text y="382.536" x="48.6,53.604,58.608,63.108,67.608,72.612,77.616,82.62,87.624,90.621,95.121,97.64099999999999,98.694,105.192,110.196,115.2,117.72,118.764,121.266,124.263,129.267,133.767,138.771,140.769,145.773,150.777,153.297,154.341,159.345,164.349,166.869,167.913,170.415,175.419,180.423,182.943,183.987,190.485,195.489,201.987,204.507,205.389,210.564,215.568,218.565,223.065,225.585,226.629,229.131,234.135,236.655,237.699,244.197,249.201,254.205,259.209,261.729,262.773,268.776,273.78,278.784,283.788" svgx:width="0.56,0.56,0.5,0.5,0.56,0.56,0.56,0.56,0.33,0.5,0.28,0.55,0.72,0.56,0.56,0.28,0.55,0.28,0.33,0.56,0.5,0.56,0.22,0.56,0.56,0.28,0.55,0.56,0.56,0.28,0.55,0.28,0.56,0.56,0.28,0.55,0.72,0.56,0.72,0.28,0.55,0.67,0.56,0.33,0.5,0.28,0.55,0.28,0.56,0.28,0.55,0.72,0.56,0.56,0.56,0.28,0.55,0.67,0.56,0.56,0.56,0.28" style="fill:rgb(0,0,0);font-family:ArialMT;font-size:9.0px;stroke:none;">passengers who traveled on the New York to Hong Kong </text>
   <text y="393.534" x="48.6,53.1,55.098,60.102,65.106,67.608,70.11,73.215,81.549,86.553,89.658,94.158,99.162,106.659,111.663,116.667,119.664,124.668,129.672,132.786,137.79,142.29,147.294,152.298,156.798,161.802,164.799,169.803,174.303,177.417,182.421,184.923,188.028,193.032,196.137,200.637,205.641,210.141,215.145,218.142,223.146,228.15,232.65,237.15,242.154,247.158,252.162,257.166,260.163,264.663,267.777,274.275,276.273,278.775,283.779" svgx:width="0.5,0.22,0.56,0.56,0.28,0.28,0.28,0.94,0.56,0.28,0.5,0.56,0.83,0.56,0.56,0.33,0.56,0.56,0.28,0.56,0.5,0.56,0.56,0.5,0.56,0.33,0.56,0.5,0.28,0.56,0.28,0.28,0.56,0.28,0.5,0.56,0.5,0.56,0.33,0.56,0.56,0.5,0.5,0.56,0.56,0.56,0.56,0.33,0.5,0.28,0.72,0.22,0.28,0.56,0.28" style="fill:rgb(0,0,0);font-family:ArialMT;font-size:9.0px;stroke:none;">flight. We compared exposures of 9 case-passengers with </text>
   <text y="404.532" x="48.6,51.102,56.106,61.11,65.61,70.614,73.413,78.417,80.919,83.718,88.722,93.726,96.525,101.529,106.029,110.529,118.026,123.03,125.532,130.536,138.033,143.037,145.539,147.537,152.037,154.836,159.336,164.34,169.344,171.846,174.843,179.847,181.845,184.842,189.846,194.85,199.35,203.85,208.854,213.858,218.862,223.866,226.863,231.363,233.865,236.664,243.162,248.166,253.17,258.174,260.973,265.977,268.479,271.278,273.78,278.784,283.788" svgx:width="0.28,0.56,0.56,0.5,0.56,0.28,0.56,0.28,0.28,0.56,0.56,0.28,0.56,0.5,0.5,0.83,0.56,0.28,0.56,0.83,0.56,0.28,0.22,0.5,0.28,0.5,0.56,0.56,0.28,0.33,0.56,0.22,0.33,0.56,0.56,0.5,0.5,0.56,0.56,0.56,0.56,0.33,0.5,0.28,0.28,0.72,0.56,0.56,0.56,0.28,0.56,0.28,0.28,0.28,0.56,0.56,0.28" style="fill:rgb(0,0,0);font-family:ArialMT;font-size:9.0px;stroke:none;">those of 32 asymptomatic control-passengers. None of the </text>
   <text y="415.53" x="48.6,53.604,56.331,60.831,65.835,70.335,75.339,78.336,83.34,88.344,92.844,97.344,102.348,107.352,112.356,117.369,120.366,124.866,127.368,130.095,134.595,139.599,147.096,152.1,157.104,160.101,165.105,170.109,172.845,179.343,181.341,183.843,188.847,191.574,196.578,201.582,209.583,212.31,215.307,220.311,225.315,227.817,232.821,237.825,240.822,243.549,248.553,251.055,253.782,258.282,263.286,268.29,270.792,273.789,278.793,280.791" svgx:width="0.56,0.28,0.5,0.56,0.5,0.56,0.33,0.56,0.56,0.5,0.5,0.56,0.56,0.56,0.56,0.33,0.5,0.28,0.28,0.5,0.56,0.83,0.56,0.56,0.33,0.56,0.56,0.28,0.72,0.22,0.28,0.56,0.28,0.56,0.56,0.89,0.28,0.33,0.56,0.56,0.28,0.56,0.56,0.33,0.28,0.56,0.28,0.28,0.5,0.56,0.56,0.28,0.33,0.56,0.22,0.33" style="fill:rgb(0,0,0);font-family:ArialMT;font-size:9.0px;stroke:none;">9 case-passengers, compared with 47% (15/32) of control-</text>
   <text y="426.528" x="48.6,53.604,58.608,63.108,67.608,72.612,77.616,82.62,87.624,90.621,95.121,97.623,100.143,101.637,108.135,113.139,116.136,121.14,123.66,125.154,130.158,132.678,134.172,136.674,141.678,146.178,151.182,153.702,155.196,162.693,167.697,172.197,176.697,179.217,180.711,183.213,188.217,191.214,193.734,195.219,197.721,202.725,207.729,210.24900000000002,211.743,216.747,221.751,224.253,226.251,229.248,234.252,236.77200000000002,238.266,242.766,244.764,249.768,254.772,257.274,259.794,261.288,264.285,269.289,274.293,279.297,283.797" svgx:width="0.56,0.56,0.5,0.5,0.56,0.56,0.56,0.56,0.33,0.5,0.28,0.28,0.55,0.72,0.56,0.33,0.56,0.28,0.55,0.56,0.28,0.55,0.28,0.56,0.5,0.56,0.28,0.55,0.83,0.56,0.5,0.5,0.28,0.55,0.28,0.56,0.33,0.28,0.55,0.28,0.56,0.56,0.28,0.55,0.56,0.56,0.28,0.22,0.33,0.56,0.28,0.55,0.5,0.22,0.56,0.56,0.28,0.28,0.55,0.33,0.56,0.56,0.56,0.5,0.28" style="fill:rgb(0,0,0);font-family:ArialMT;font-size:9.0px;stroke:none;">passengers, wore a face mask for the entire flight (odds </text>
   <text y="437.526" x="48.6,51.597,56.601,59.103,61.101,66.105,68.625,69.57,74.574,77.076,79.59599999999999,80.541,85.545,90.549,98.55,101.07,102.024,108.522,111.024,113.544,114.489,119.493,124.497,129.501,132.003,137.007,142.011,145.008,147.51,150.03,150.822,156.321,161.325,166.329,168.84900000000002,169.794,174.294,179.298,184.302,187.299,191.799,196.803,199.323,200.268,204.768,209.772,214.272,219.276,222.273,227.277,232.281,236.781,241.281,246.285,251.289,256.293,261.297,264.294,266.81399999999996,267.768,274.266,279.27,283.77" svgx:width="0.33,0.56,0.28,0.22,0.56,0.28,0.55,0.56,0.28,0.28,0.55,0.56,0.56,0.89,0.28,0.55,0.72,0.28,0.28,0.55,0.56,0.56,0.56,0.28,0.56,0.56,0.33,0.28,0.28,0.55,0.61,0.56,0.56,0.28,0.55,0.5,0.56,0.56,0.33,0.5,0.56,0.28,0.55,0.5,0.56,0.5,0.56,0.33,0.56,0.56,0.5,0.5,0.56,0.56,0.56,0.56,0.33,0.28,0.55,0.72,0.56,0.5,0.28" style="fill:rgb(0,0,0);font-family:ArialMT;font-size:9.0px;stroke:none;">ratio 0, 95% CI 0–0.71). The source case-passenger was </text>
   <text y="448.524" x="48.6,53.604,58.608,61.11,63.864,65.862,70.866,75.87,80.874,83.376,85.374,89.874,94.878,99.882,102.384,105.138,113.472,118.476,123.48,126.477,128.475,133.479,138.483,141.237,146.241,148.995,151.497,156.501,161.001,166.005,168.759,176.256,181.26,185.76,190.26,193.014,199.512,204.516,209.016,211.77,216.774,219.528,224.532,227.529,232.533,235.035,240.039,244.539,247.041,249.039,253.539,258.543,261.297,263.799,268.803,273.303,275.805,280.809,283.806" svgx:width="0.56,0.56,0.28,0.28,0.22,0.56,0.56,0.56,0.28,0.22,0.5,0.56,0.56,0.28,0.28,0.94,0.56,0.56,0.33,0.22,0.56,0.56,0.28,0.56,0.28,0.28,0.56,0.5,0.56,0.28,0.83,0.56,0.5,0.5,0.28,0.72,0.56,0.5,0.28,0.56,0.28,0.56,0.33,0.56,0.28,0.56,0.5,0.28,0.22,0.5,0.56,0.28,0.28,0.56,0.5,0.28,0.56,0.33,0.28" style="fill:rgb(0,0,0);font-family:ArialMT;font-size:9.0px;stroke:none;">not identified. Wearing a face mask was a protective factor </text>
   <text y="459.522" x="48.6,53.604,58.608,63.612,65.61,70.614,75.114,77.616,79.731,81.729,86.733,91.233,96.237,101.241,106.245,110.745,115.749,117.864,119.862,124.866,127.368,132.372,136.872,139.374,141.372,146.376,151.38,153.882,155.988,164.322,169.326,171.432,174.429,179.433,183.933,188.937,196.434,203.931,208.935,213.939,218.943,221.058,226.062,228.168,235.665,240.669,243.666,248.67,250.776,255.276,260.28,267.777,272.781,275.778,280.782" svgx:width="0.56,0.56,0.56,0.22,0.56,0.5,0.28,0.28,0.22,0.56,0.5,0.56,0.56,0.56,0.5,0.56,0.28,0.22,0.56,0.28,0.56,0.5,0.28,0.22,0.56,0.56,0.28,0.28,0.94,0.56,0.28,0.33,0.56,0.5,0.56,0.83,0.83,0.56,0.56,0.56,0.28,0.56,0.28,0.83,0.56,0.33,0.56,0.28,0.5,0.56,0.83,0.56,0.33,0.56,0.33" style="fill:rgb(0,0,0);font-family:ArialMT;font-size:9.0px;stroke:none;">against influenza infection. We recommend a more compre-</text>
   <text y="470.52" x="48.6,53.604,58.608,63.612,68.112,70.11,74.61,79.614,81.801,83.799,88.803,91.305,96.309,99.306,103.806,108.81,113.814,116.316,118.314,123.318,128.322,130.509,135.009,137.511,142.515,147.519,152.019,154.197,156.699,161.703,163.881,168.885,173.385,177.885,182.889,185.886,190.89,193.392,198.396,200.394,204.894,207.072,212.076,216.576,219.078,221.076,228.573,233.577,236.079,241.083,243.261,245.763,250.767,252.765,257.265,259.443,264.447,266.787,269.289,274.293,278.793,281.295" svgx:width="0.56,0.56,0.56,0.5,0.22,0.5,0.56,0.28,0.22,0.56,0.28,0.56,0.33,0.5,0.56,0.56,0.28,0.22,0.56,0.56,0.28,0.5,0.28,0.56,0.56,0.5,0.28,0.28,0.56,0.28,0.56,0.5,0.5,0.56,0.33,0.56,0.28,0.56,0.22,0.5,0.28,0.56,0.5,0.28,0.22,0.83,0.56,0.28,0.56,0.28,0.28,0.56,0.22,0.5,0.28,0.56,0.28,0.28,0.56,0.5,0.28,0.28" style="fill:rgb(0,0,0);font-family:ArialMT;font-size:9.0px;stroke:none;">hensive intervention study to accurately estimate this effect.</text>
   <text y="512.552" x="48.6" svgx:width="0.72" style="fill:rgb(0,0,0);font-family:TimesNewRomanPSMT;font-size:28.12px;stroke:none;">A</text>
   <text y="500.552" x="68.91,72.24,75.02,79.46,82.79,85.73,88.51,93.51,99.07,104.07,108.51,113.51,117.95,122.39,124.78,132.0,135.33,142.55,147.55,154.77,159.77,163.1,168.1,173.1,180.88,185.88,190.88,193.83,198.83,201.61,204.94,209.94,213.83,216.78,224.0,228.44,232.33,235.28,238.06,243.06,247.5,252.5,255.28,258.06,263.62,268.06,273.06,276.0,278.78,283.78" svgx:width="0.33,0.28,0.44,0.33,0.25,0.28,0.5,0.56,0.5,0.44,0.5,0.44,0.44,0.25,0.72,0.33,0.72,0.5,0.72,0.5,0.33,0.5,0.5,0.78,0.5,0.5,0.25,0.5,0.28,0.33,0.5,0.39,0.25,0.72,0.44,0.39,0.25,0.28,0.5,0.44,0.5,0.28,0.28,0.56,0.44,0.5,0.25,0.28,0.5,0.25" style="fill:rgb(0,0,0);font-family:TimesNewRomanPSMT;font-size:10.0px;stroke:none;">fter influenza A(H1N1)pdm09 virus was identified in </text>
   <text y="512.552" x="68.91,76.13,81.13,84.46,87.24,90.02,92.52,93.59,98.59,103.59,108.59,113.59,116.09,117.16" svgx:width="0.72,0.5,0.33,0.28,0.28,0.25,0.55,0.5,0.5,0.5,0.5,0.25,0.55,0.33" style="fill:rgb(0,0,0);font-family:TimesNewRomanPSMT;font-size:10.0px;stroke:none;">April 2009 (</text>
   <text y="512.552" x="120.49" svgx:width="0.5" style="fill:rgb(0,0,0);font-family:TimesNewRomanPS-ItalicMT;font-size:10.0px;stroke:none;">1</text>
   <text y="512.552" x="125.49,128.82,131.32,133.82,134.89,137.67,140.45,142.95,144.01,147.9,152.9,156.23,160.67,165.11,170.11,172.61,173.68,177.01,181.45,186.45,189.23,194.23,197.01,201.36,203.86,206.36,207.43,210.21,214.65,217.8,222.8,227.24,230.02,235.02,237.52,238.58,241.36,246.36,249.69,254.69,259.69,264.69,269.69,272.19,273.26,277.7,280.48,283.81" svgx:width="0.33,0.25,0.25,0.55,0.28,0.28,0.25,0.55,0.39,0.5,0.33,0.44,0.44,0.5,0.25,0.55,0.33,0.44,0.5,0.28,0.5,0.28,0.5,0.25,0.25,0.55,0.28,0.44,0.33,0.5,0.44,0.28,0.5,0.25,0.55,0.28,0.5,0.33,0.5,0.5,0.5,0.5,0.25,0.55,0.44,0.28,0.33,0.25" style="fill:rgb(0,0,0);font-family:TimesNewRomanPSMT;font-size:10.0px;stroke:none;">), it spread rapidly, largely through air </text>
   <text y="524.552" x="48.6,51.38,54.71,59.15,64.15,68.59,71.37,74.51,79.51,84.51,87.65,90.43,95.43,98.76,103.2,107.64,110.42,114.85,119.85,122.99,127.99,132.43,136.32,140.21,144.65,149.65,154.65,159.09,162.42,166.31,169.45" svgx:width="0.28,0.33,0.44,0.5,0.44,0.28,0.25,0.5,0.5,0.25,0.28,0.5,0.33,0.44,0.44,0.28,0.44,0.5,0.25,0.5,0.44,0.39,0.39,0.44,0.5,0.5,0.44,0.33,0.39,0.25,0.33" style="fill:rgb(0,0,0);font-family:TimesNewRomanPSMT;font-size:10.0px;stroke:none;">travel by infected passengers (</text>
   <text y="524.552" x="172.78" svgx:width="0.5" style="fill:rgb(0,0,0);font-family:TimesNewRomanPS-ItalicMT;font-size:10.0px;stroke:none;">2</text>
   <text y="524.552" x="177.78,181.11,183.61,186.75,193.97,198.97,202.12,211.01,215.45,220.45,223.59,228.59,231.09,234.23,239.23,244.23,249.23,254.23,256.73,259.87,266.54,271.54,274.32,279.32,283.76" svgx:width="0.33,0.25,0.25,0.72,0.5,0.25,0.89,0.44,0.5,0.25,0.5,0.25,0.25,0.5,0.5,0.5,0.5,0.25,0.25,0.67,0.5,0.28,0.5,0.44,0.25" style="fill:rgb(0,0,0);font-family:TimesNewRomanPSMT;font-size:10.0px;stroke:none;">). On May 2, 2009, China </text>
   <text y="536.552" x="48.6,51.38,59.16,64.16,66.94,71.38,79.16,83.6,88.6,91.38,95.82,100.82,103.26,106.04,111.04,113.82,118.26,123.26,127.15,129.93,134.93,139.37,141.82,145.71,150.15,153.48,157.92,162.36,167.36,170.14,175.14,180.13,182.58,187.58,190.91,193.36,197.8,201.13,204.46,207.24,212.24,215.02,220.02,225.02,227.47,231.91,234.69,238.02,240.47,245.47,249.91,253.8,257.69,262.13,267.13,272.13,276.57,279.9,283.79" svgx:width="0.28,0.78,0.5,0.28,0.44,0.78,0.44,0.5,0.28,0.44,0.5,0.25,0.28,0.5,0.28,0.44,0.5,0.39,0.28,0.5,0.44,0.25,0.39,0.44,0.33,0.44,0.44,0.5,0.28,0.5,0.5,0.25,0.5,0.33,0.25,0.44,0.33,0.33,0.28,0.5,0.28,0.5,0.5,0.25,0.44,0.28,0.33,0.25,0.5,0.44,0.39,0.39,0.44,0.5,0.5,0.44,0.33,0.39,0.25" style="fill:rgb(0,0,0);font-family:TimesNewRomanPSMT;font-size:10.0px;stroke:none;">implemented intensive screening of arriving air passengers </text>
   <text y="548.552" x="48.6,53.6,58.6,61.35,66.35,70.24,73.02,78.02,83.02,85.77,88.55,93.55,97.99,101.32,109.1,113.53,116.31,119.06,123.5,127.94,135.72,140.16,143.49,147.93,151.82,154.56,157.34,162.34,165.09,170.09,174.53,177.31,181.75,186.19,188.97,191.71,195.04,199.48,204.48,208.92,212.25,215.0,219.44,224.44,229.44,232.19,236.63,239.38,243.27,248.27,253.27,256.6,259.38,262.13,267.13,272.13,276.57,280.46" svgx:width="0.5,0.5,0.25,0.5,0.39,0.28,0.5,0.5,0.25,0.28,0.5,0.44,0.33,0.78,0.44,0.28,0.25,0.44,0.44,0.78,0.44,0.33,0.44,0.39,0.25,0.28,0.5,0.25,0.5,0.44,0.28,0.44,0.44,0.28,0.25,0.33,0.44,0.5,0.44,0.33,0.25,0.44,0.5,0.5,0.25,0.44,0.25,0.39,0.5,0.5,0.33,0.28,0.25,0.5,0.5,0.44,0.39,0.33" style="fill:rgb(0,0,0);font-family:TimesNewRomanPSMT;font-size:10.0px;stroke:none;">by using thermal cameras to detect fever and a short ques-</text>
   <text y="560.552" x="48.6,51.38,54.16,59.16,64.16,69.16,73.6,76.38,79.71,84.15,86.65,88.07,92.51,97.51,102.51,107.51,110.29,112.79,114.22,118.66,123.66,126.44,130.33,133.11,135.89,140.89,145.89,148.39,149.81,153.14,157.58,161.47,166.47,169.25,172.58,177.02,179.8,184.8,188.13,193.13,195.63,197.06,200.95,205.95,213.73,218.73,221.51,226.51,234.29,238.18,240.68,242.11,246.55,251.55,256.55,259.05,260.48,263.81,268.25,273.25,277.69,281.02,283.8" svgx:width="0.28,0.28,0.5,0.5,0.5,0.44,0.28,0.33,0.44,0.25,0.55,0.44,0.5,0.5,0.5,0.28,0.25,0.55,0.44,0.5,0.28,0.39,0.28,0.28,0.5,0.5,0.25,0.55,0.33,0.44,0.39,0.5,0.28,0.33,0.44,0.28,0.5,0.33,0.5,0.25,0.55,0.39,0.5,0.78,0.5,0.28,0.5,0.78,0.39,0.25,0.55,0.44,0.5,0.5,0.25,0.55,0.33,0.44,0.5,0.44,0.33,0.28,0.25" style="fill:rgb(0,0,0);font-family:TimesNewRomanPSMT;font-size:10.0px;stroke:none;">tionnaire about existing respiratory symptoms and fever; </text>
   <text y="294.932" x="295.81,300.81,305.25,309.14,313.03,317.47,322.47,327.47,331.91,335.24,339.13,341.46,348.68,353.12,356.45,360.89,363.21,367.65,372.65,377.65,380.43,384.32,388.76,393.76,396.08,398.86,403.86,406.18,410.07,414.51,418.95,423.95,426.27,434.05,438.49,443.49,446.27,450.71,455.15,457.93,460.25,464.69,469.69,474.69,478.58,483.58,486.36,489.14,493.58,496.36,499.14,504.14,509.14,511.46,514.24,517.57,519.89,523.22,527.66" svgx:width="0.5,0.44,0.39,0.39,0.44,0.5,0.5,0.44,0.33,0.39,0.25,0.72,0.44,0.33,0.44,0.25,0.44,0.5,0.5,0.28,0.39,0.44,0.5,0.25,0.28,0.5,0.25,0.39,0.44,0.44,0.5,0.25,0.78,0.44,0.5,0.28,0.44,0.44,0.28,0.25,0.44,0.5,0.5,0.39,0.5,0.28,0.28,0.44,0.28,0.28,0.5,0.5,0.25,0.28,0.33,0.25,0.33,0.44,0.33" style="fill:rgb(0,0,0);font-family:TimesNewRomanPSMT;font-size:10.0px;stroke:none;">passengers were advised to seek medical consultation if fe-</text>
   <text y="306.932" x="295.81,300.81,305.25,308.58,311.74,316.74,320.07,323.23,326.56,331.0,334.89,339.89,342.67,346.0,350.44,353.22,358.22,361.54,366.54,369.7,373.59,378.59,386.37,391.37,394.15,399.15,406.93,410.82,413.98,418.98,423.42,428.42,432.86,435.64,440.64,445.64,450.08,455.08,458.24,463.73,468.73,471.89,476.89,481.33,486.33,490.22,493.38,498.38,501.71,504.87,509.31,512.64,515.97,518.75,523.75,528.19,530.97" svgx:width="0.5,0.44,0.33,0.25,0.5,0.33,0.25,0.33,0.44,0.39,0.5,0.28,0.33,0.44,0.28,0.5,0.33,0.5,0.25,0.39,0.5,0.78,0.5,0.28,0.5,0.78,0.39,0.25,0.5,0.44,0.5,0.44,0.28,0.5,0.5,0.44,0.5,0.25,0.55,0.5,0.25,0.5,0.44,0.5,0.39,0.25,0.5,0.33,0.25,0.44,0.33,0.33,0.28,0.5,0.44,0.28,0.25" style="fill:rgb(0,0,0);font-family:TimesNewRomanPSMT;font-size:10.0px;stroke:none;">ver or respiratory symptoms developed ≤7 days of arrival </text>
   <text y="318.932" x="295.81" svgx:width="0.33" style="fill:rgb(0,0,0);font-family:TimesNewRomanPSMT;font-size:10.0px;stroke:none;">(</text>
   <text y="318.932" x="299.14,304.14,306.64" svgx:width="0.5,0.25,0.5" style="fill:rgb(0,0,0);font-family:TimesNewRomanPS-ItalicMT;font-size:10.0px;stroke:none;">3,4</text>
   <text y="318.932" x="311.64,314.97,317.47,319.97,320.94,328.16,332.6,336.49,341.49,346.49,351.49,355.93,359.26,364.26,369.26,374.26,378.7,383.14,385.92,388.42,389.39,393.28,400.5,404.94,409.94,412.44,413.41,417.3,422.3,426.74,431.18,433.96,441.74,446.18,451.18,455.07,457.57,458.54,462.98,467.98,470.76,473.54,477.98,482.42,485.2,489.64,494.64,497.14,498.1,501.43,504.76,509.76,517.54,520.04,521.01,525.45,528.23,531.01" svgx:width="0.33,0.25,0.25,0.55,0.72,0.44,0.39,0.5,0.5,0.5,0.44,0.33,0.5,0.5,0.5,0.44,0.44,0.28,0.25,0.55,0.39,0.72,0.44,0.5,0.25,0.55,0.39,0.5,0.44,0.44,0.28,0.78,0.44,0.5,0.39,0.25,0.55,0.44,0.5,0.28,0.28,0.44,0.44,0.28,0.44,0.5,0.25,0.55,0.33,0.33,0.5,0.78,0.25,0.55,0.44,0.28,0.28,0.25" style="fill:rgb(0,0,0);font-family:TimesNewRomanPSMT;font-size:10.0px;stroke:none;">). Nasopharyngeal swab specimens collected from all </text>
   <text y="330.932" x="295.81,300.25,303.58,306.91,309.69,314.69,317.47,322.47,327.47,329.68,333.01,337.45,342.45,345.78,348.56,351.34,355.78,357.99,362.99,367.43,371.32,375.21,379.65,384.65,389.65,394.09,397.42,401.31,403.52,410.74,415.18,418.51,422.95,425.16,427.94,432.38,436.27,439.05,443.49,448.49,450.7,454.03,459.03,462.36,464.57,469.57,472.35,475.68,480.68,484.57,486.78,491.22,494.0,496.21,498.99,503.99,508.43,510.64,515.64,520.08,524.52,527.67" svgx:width="0.44,0.33,0.33,0.28,0.5,0.28,0.5,0.5,0.25,0.33,0.44,0.5,0.33,0.28,0.28,0.44,0.25,0.5,0.44,0.39,0.39,0.44,0.5,0.5,0.44,0.33,0.39,0.25,0.72,0.44,0.33,0.44,0.25,0.28,0.44,0.39,0.28,0.44,0.5,0.25,0.33,0.5,0.33,0.25,0.5,0.28,0.33,0.5,0.39,0.25,0.44,0.28,0.25,0.28,0.5,0.44,0.25,0.5,0.44,0.44,0.33,0.33" style="fill:rgb(0,0,0);font-family:TimesNewRomanPSMT;font-size:10.0px;stroke:none;">arriving febrile passengers were tested for virus at the near-</text>
   <text y="342.932" x="295.81,300.25,304.14,306.92,310.02,315.02,318.35,323.35,328.35,331.13,336.13,340.57,343.35,347.79,350.57,353.07,356.16,360.6,363.38,366.16,370.51,373.01,376.11,381.11,384.44,387.54,391.98,396.98,401.98,406.98,409.76,414.76,417.85,424.52,428.96,433.96,436.74,441.18,444.51,448.4,451.49,454.82,459.82,463.15,466.25,473.47,476.25,480.14,484.58,489.02,492.91,497.35,500.45,507.12,512.12,517.12,519.9,523.23,528.23,531.01" svgx:width="0.44,0.39,0.28,0.25,0.5,0.33,0.5,0.5,0.28,0.5,0.44,0.28,0.44,0.28,0.25,0.25,0.44,0.28,0.28,0.5,0.25,0.25,0.5,0.33,0.25,0.44,0.5,0.5,0.5,0.28,0.5,0.25,0.67,0.44,0.5,0.28,0.44,0.33,0.39,0.25,0.33,0.5,0.33,0.25,0.72,0.28,0.39,0.44,0.44,0.39,0.44,0.25,0.67,0.5,0.5,0.28,0.33,0.5,0.28,0.25" style="fill:rgb(0,0,0);font-family:TimesNewRomanPSMT;font-size:10.0px;stroke:none;">est provincial, city, or county Centers for Disease Control </text>
   <text y="354.932" x="295.81,299.14,305.81,313.03,319.7,323.03,325.53,326.32,329.1,333.54,338.54,343.54,346.87,351.31,354.09,359.09,362.41,367.41,369.91,370.69,375.69,380.69,383.19,383.97,388.97,392.86,395.64,400.64,405.64,408.14,408.92,412.25,416.69,421.13,423.91,427.24,430.02,432.8,440.58,445.02,447.52,448.29,451.62,456.06,461.06,465.5,468.83,472.72,477.16,479.66,480.44,483.22,486.55,490.99,495.99,499.88,504.32,507.65,510.43,515.43,518.21,520.99,525.99,530.99" svgx:width="0.33,0.67,0.72,0.67,0.33,0.25,0.55,0.28,0.44,0.5,0.5,0.33,0.44,0.28,0.5,0.33,0.5,0.25,0.55,0.5,0.5,0.25,0.55,0.5,0.39,0.28,0.5,0.5,0.25,0.55,0.33,0.44,0.44,0.28,0.33,0.28,0.28,0.78,0.44,0.25,0.55,0.33,0.44,0.5,0.44,0.33,0.39,0.44,0.25,0.55,0.28,0.33,0.44,0.5,0.39,0.44,0.33,0.28,0.5,0.28,0.28,0.5,0.5,0.25" style="fill:rgb(0,0,0);font-family:TimesNewRomanPSMT;font-size:10.0px;stroke:none;">(CDC) laboratory by using real-time reverse transcription </text>
   <text y="366.932" x="295.81,301.37,308.04,314.71,317.21,318.58,321.91,327.98,333.17,336.5,342.06,348.73,355.4,358.73,361.23,362.6" svgx:width="0.56,0.67,0.67,0.25,0.55,0.33,0.67,0.61,0.33,0.56,0.67,0.67,0.33,0.25,0.55,0.33" style="fill:rgb(0,0,0);font-family:TimesNewRomanPSMT;font-size:10.0px;stroke:none;">PCR (RT-PCR) (</text>
   <text y="366.932" x="365.93" svgx:width="0.5" style="fill:rgb(0,0,0);font-family:TimesNewRomanPS-ItalicMT;font-size:10.0px;stroke:none;">5</text>
   <text y="366.932" x="370.93,374.26,376.76,379.26,380.63,383.96,387.29,389.79,391.16,395.6,400.6,405.6,408.1,409.46,414.46,417.79,420.29,421.66,424.44,429.44,433.88,437.77,442.21,444.71,446.07,449.4,453.84,457.73,462.73,465.51,468.29,472.18,474.68,476.04,483.26,487.7,491.03,495.47,497.97,499.33,504.33,509.33,513.22,516.0,518.78,521.56,526.56,531.0" svgx:width="0.33,0.25,0.25,0.55,0.33,0.33,0.25,0.55,0.44,0.5,0.5,0.25,0.55,0.5,0.33,0.25,0.55,0.28,0.5,0.44,0.39,0.44,0.25,0.55,0.33,0.44,0.39,0.5,0.28,0.28,0.39,0.25,0.55,0.72,0.44,0.33,0.44,0.25,0.55,0.5,0.5,0.39,0.28,0.28,0.28,0.5,0.44,0.25" style="fill:rgb(0,0,0);font-family:TimesNewRomanPSMT;font-size:10.0px;stroke:none;">). If any of these results were positive </text>
   <text y="378.932" x="295.81,299.14,303.58,307.47,312.47,315.25,318.03,321.92,324.42,326.92,331.36,334.14,336.92,339.42,344.42,348.86,352.75,356.64,361.08,366.08,371.08,375.52,378.85,382.74,385.24,390.24,395.24,397.74,400.52,405.52,409.96,412.46,416.35,420.79,428.57,433.01,435.51,441.07,443.85,448.85,453.85,456.63,459.13,466.35,470.79,474.12,478.56,481.06,486.06,491.06,495.5,498.83,503.27,508.27,511.05,513.83,518.83,523.27,528.27" svgx:width="0.33,0.44,0.39,0.5,0.28,0.28,0.39,0.25,0.25,0.44,0.28,0.28,0.25,0.5,0.44,0.39,0.39,0.44,0.5,0.5,0.44,0.33,0.39,0.25,0.5,0.5,0.25,0.28,0.5,0.44,0.25,0.39,0.44,0.78,0.44,0.25,0.56,0.28,0.5,0.5,0.28,0.25,0.72,0.44,0.33,0.44,0.25,0.5,0.5,0.44,0.33,0.44,0.5,0.28,0.28,0.5,0.44,0.5,0.25" style="fill:rgb(0,0,0);font-family:TimesNewRomanPSMT;font-size:10.0px;stroke:none;">results, all passengers on the same flight were quarantined.</text>
   <text y="390.932" x="313.81,321.03,326.03,328.53,329.43,338.32,342.76,347.76,350.26,351.15,356.15,361.15,363.65,366.15,367.04,372.04,377.04,382.04,387.04,389.54,392.04,392.93,395.71,400.71,403.49,407.38,409.88,410.77,414.66,419.66,423.55,426.33,430.77,438.55,441.05,441.94,446.94,451.38,454.16,458.6,463.04,465.82,470.26,475.26,477.76,478.65,481.43,486.43,490.87,493.37,494.26,499.82,503.15,507.04,509.82,512.3199999999999,513.22,517.66,522.66,527.66" svgx:width="0.72,0.5,0.25,0.55,0.89,0.44,0.5,0.25,0.55,0.5,0.5,0.25,0.25,0.55,0.5,0.5,0.5,0.5,0.25,0.25,0.55,0.28,0.5,0.28,0.39,0.25,0.55,0.39,0.5,0.39,0.28,0.44,0.78,0.25,0.55,0.5,0.44,0.28,0.44,0.44,0.28,0.44,0.5,0.25,0.55,0.28,0.5,0.44,0.25,0.55,0.56,0.33,0.39,0.28,0.25,0.55,0.44,0.5,0.5,0.33" style="fill:rgb(0,0,0);font-family:TimesNewRomanPSMT;font-size:10.0px;stroke:none;">On May 11, 2009, this system detected the first con-</text>
   <text y="402.932" x="295.81,301.37,304.7,312.48,316.92,321.92,324.42,327.08,329.86,334.86,340.42,345.42,349.86,354.86,359.3,363.74,366.24,368.9,376.12,379.45,386.67,391.67,398.89,403.89,407.22,412.22,417.22,425.0,430.0,435.0,437.5,440.16,442.94,447.94,451.27,455.71,460.15,462.93,465.71,470.71,475.71,478.21,480.86,483.64,488.64,491.14,493.8,501.58,506.02,508.8,513.8,516.58,521.02,526.02,531.02" svgx:width="0.56,0.33,0.78,0.44,0.5,0.25,0.55,0.28,0.5,0.56,0.5,0.44,0.5,0.44,0.44,0.25,0.55,0.72,0.33,0.72,0.5,0.72,0.5,0.33,0.5,0.5,0.78,0.5,0.5,0.25,0.55,0.28,0.5,0.33,0.44,0.44,0.28,0.28,0.5,0.5,0.25,0.55,0.28,0.5,0.25,0.55,0.78,0.44,0.28,0.5,0.28,0.44,0.5,0.5,0.25" style="fill:rgb(0,0,0);font-family:TimesNewRomanPSMT;font-size:10.0px;stroke:none;">firmed influenz a A(H1N1)pdm0 9 infectio n i n mainland </text>
   <text y="414.932" x="295.81,302.48,307.48,310.26,315.26,319.7,321.71,324.49,329.49,331.5,335.94,337.95,345.17,350.73,352.74,355.52,358.85,363.29,368.29,372.73,375.51,379.95,383.28,385.28" svgx:width="0.67,0.5,0.28,0.5,0.44,0.25,0.28,0.5,0.25,0.44,0.25,0.72,0.56,0.25,0.28,0.33,0.44,0.5,0.44,0.28,0.44,0.33,0.25,0.33" style="fill:rgb(0,0,0);font-family:TimesNewRomanPSMT;font-size:10.0px;stroke:none;">China in a US traveler (</text>
   <text y="414.932" x="388.61" svgx:width="0.5" style="fill:rgb(0,0,0);font-family:TimesNewRomanPS-ItalicMT;font-size:10.0px;stroke:none;">6</text>
   <text y="414.932" x="393.61,396.94,399.44,401.45,408.67,412.56,414.57,419.57,422.9,424.91,433.8,438.24,443.24,445.25,450.25,455.25,457.75,459.76,462.54,467.54,471.98,473.99,477.88,482.88,486.77,489.55,493.99,501.77,503.78,508.78,513.22,516.0,520.44,524.87,527.65" svgx:width="0.33,0.25,0.25,0.72,0.39,0.25,0.5,0.33,0.25,0.89,0.44,0.5,0.25,0.5,0.5,0.25,0.25,0.28,0.5,0.44,0.25,0.39,0.5,0.39,0.28,0.44,0.78,0.25,0.5,0.44,0.28,0.44,0.44,0.28,0.33" style="fill:rgb(0,0,0);font-family:TimesNewRomanPSMT;font-size:10.0px;stroke:none;">). As of May 29, the system detect-</text>
   <text y="426.932" x="295.81,300.25,305.25,307.75,308.61,313.61,318.61,321.11,321.97,326.97,329.75,334.75,339.19,342.52,345.02,345.88,348.66,356.44,361.44,366.44,369.77,372.55,376.99,381.99,384.49,385.35,388.13,393.13,396.46,400.9,405.34,408.12,410.9,415.9,420.9,424.78,427.28,428.14,430.92,435.92,438.42,439.28,444.28,448.72,452.61,456.5,460.94,465.94,470.94,475.38,478.71,482.6,485.1,485.96,490.4,493.73,497.06,499.84,504.84,507.62,512.62,517.62,520.12,520.98,525.98,530.98" svgx:width="0.44,0.5,0.25,0.55,0.5,0.5,0.25,0.55,0.5,0.28,0.5,0.44,0.33,0.25,0.55,0.28,0.78,0.5,0.5,0.33,0.28,0.44,0.5,0.25,0.55,0.28,0.5,0.33,0.44,0.44,0.28,0.28,0.5,0.5,0.39,0.25,0.55,0.28,0.5,0.25,0.55,0.5,0.44,0.39,0.39,0.44,0.5,0.5,0.44,0.33,0.39,0.25,0.55,0.44,0.33,0.33,0.28,0.5,0.28,0.5,0.5,0.25,0.55,0.5,0.5,0.25" style="fill:rgb(0,0,0);font-family:TimesNewRomanPSMT;font-size:10.0px;stroke:none;">ed 21 other imported infections in passengers arriving on </text>
   <text y="438.932" x="295.81,298.59,303.59,306.37,310.81,314.14,319.14,323.58,326.36,329.14,334.14,339.14,343.58,346.36,349.43,354.99,357.77,362.77,367.77,370.55,374.44,376.94,380.02,387.24,392.24,395.33,404.22,408.66,413.66,416.74,421.74,426.74,429.24,432.32,435.1,440.1,444.54,447.62,453.18,456.51,460.4,463.18,466.27,469.05,474.05,478.49,482.93,485.71,488.49,493.49,496.57,501.01,505.45,510.45,515.45,518.23,521.56,526.0,531.0" svgx:width="0.28,0.5,0.28,0.44,0.33,0.5,0.44,0.28,0.28,0.5,0.5,0.44,0.28,0.25,0.56,0.28,0.5,0.5,0.28,0.39,0.25,0.25,0.72,0.5,0.25,0.89,0.44,0.5,0.25,0.5,0.5,0.25,0.25,0.28,0.5,0.44,0.25,0.56,0.33,0.39,0.28,0.25,0.28,0.5,0.44,0.44,0.28,0.28,0.5,0.25,0.44,0.44,0.5,0.5,0.28,0.33,0.44,0.5,0.25" style="fill:rgb(0,0,0);font-family:TimesNewRomanPSMT;font-size:10.0px;stroke:none;">international flights. On May 29, the first locally acquired </text>
   <text y="450.932" x="295.81,298.59,303.59,309.15,314.15,318.59,323.59,328.03,332.47,334.97,342.19,345.52,352.74,357.74,364.96,369.96,373.29,378.29,383.29,391.07,396.07,401.07,403.57,406.35,411.35,414.68,419.12,423.56,426.34,429.12,434.12,439.12,441.62,448.84,453.28,457.17,459.67,464.67,469.11,471.89,476.33,480.77,483.55,487.99,492.99" svgx:width="0.28,0.5,0.56,0.5,0.44,0.5,0.44,0.44,0.25,0.72,0.33,0.72,0.5,0.72,0.5,0.33,0.5,0.5,0.78,0.5,0.5,0.25,0.28,0.5,0.33,0.44,0.44,0.28,0.28,0.5,0.5,0.25,0.72,0.44,0.39,0.25,0.5,0.44,0.28,0.44,0.44,0.28,0.44,0.5,0.25" style="fill:rgb(0,0,0);font-family:TimesNewRomanPSMT;font-size:10.0px;stroke:none;">influenza A(H1N1)pdm09 infection was detected.</text>
   <text y="462.932" x="313.81,321.03,326.03,328.49,337.38,341.82,346.82,349.28,354.28,359.28,361.78,364.24,368.68,373.12,378.12,380.9,385.34,387.79,392.79,397.79,401.68,406.12,408.9,411.36,416.36,419.69,422.15,425.48,429.92,434.92,439.36,442.69,445.15,448.48,453.48,458.48,460.98,465.98,469.98,476.65,479.98,482.48,484.94,489.38,494.38,499.38,504.38,509.38,511.88,514.34,518.23,523.23,526.56,531.0" svgx:width="0.72,0.5,0.25,0.89,0.44,0.5,0.25,0.5,0.5,0.25,0.25,0.44,0.44,0.5,0.28,0.44,0.25,0.5,0.5,0.39,0.44,0.28,0.25,0.5,0.33,0.25,0.33,0.44,0.5,0.44,0.33,0.25,0.33,0.5,0.5,0.25,0.5,0.4,0.67,0.33,0.25,0.25,0.44,0.5,0.5,0.5,0.5,0.25,0.25,0.39,0.5,0.33,0.44,0.25" style="fill:rgb(0,0,0);font-family:TimesNewRomanPSMT;font-size:10.0px;stroke:none;">On May 30, acute onset of fever (38.3°C), cough, sore </text>
   <text y="474.932" x="295.81,298.59,303.59,306.92,311.92,316.36,319.14,321.64,324.14,324.93,329.37,334.37,339.37,341.87,342.67,347.67,352.11,356.55,361.55,365.99,370.43,375.43,379.87,382.37,383.17,388.17,392.61,397.61,402.05,404.83,409.83,414.83,419.27,424.26,426.76,427.56,430.34,435.34,437.84,438.64,443.08,445.58,446.38,451.38,456.38,459.71,464.71,469.15,473.59,476.92,480.25,485.25,488.03,493.03,495.53,496.32,504.1,508.54,513.54,516.04,518.54,519.34,526.56,531.0" svgx:width="0.28,0.5,0.33,0.5,0.44,0.28,0.25,0.25,0.55,0.44,0.5,0.5,0.25,0.55,0.5,0.44,0.44,0.5,0.44,0.44,0.5,0.44,0.25,0.55,0.5,0.44,0.5,0.44,0.28,0.5,0.5,0.44,0.5,0.25,0.55,0.28,0.5,0.25,0.55,0.44,0.25,0.55,0.5,0.5,0.33,0.5,0.44,0.44,0.33,0.33,0.5,0.28,0.5,0.25,0.55,0.78,0.44,0.5,0.25,0.25,0.55,0.72,0.44,0.25" style="fill:rgb(0,0,0);font-family:TimesNewRomanPSMT;font-size:10.0px;stroke:none;">throat, and headache developed in a 22-year-old man. He </text>
   <text y="486.932" x="295.81,299.7,304.7,309.7,314.7,319.7,322.48,324.98,327.76,331.09,335.53,339.97,342.75,350.53,354.97,359.97,362.75,365.24,369.68,372.46,374.95,379.39,381.88,386.32,389.1,391.88,396.88,399.66,404.1,406.59,409.37,414.37,416.86,422.42,427.42,431.86,436.86,441.86,446.86,449.36,451.86,458.53,463.53,466.31,471.31,475.75,478.25,480.74,487.96,492.96,497.4,500.73,505.17,507.67,515.45,519.89,524.89,527.67" svgx:width="0.39,0.5,0.5,0.5,0.5,0.28,0.25,0.28,0.33,0.44,0.44,0.28,0.78,0.44,0.5,0.28,0.25,0.44,0.28,0.25,0.44,0.25,0.44,0.28,0.28,0.5,0.28,0.44,0.25,0.28,0.5,0.25,0.56,0.5,0.44,0.5,0.5,0.5,0.25,0.25,0.67,0.5,0.28,0.5,0.44,0.25,0.25,0.72,0.5,0.44,0.33,0.44,0.25,0.78,0.44,0.5,0.28,0.33" style="fill:rgb(0,0,0);font-family:TimesNewRomanPSMT;font-size:10.0px;stroke:none;">sought treatment at a clinic in Fuzhou, China, where medi-</text>
   <text y="498.932" x="295.81,300.25,304.69,307.47,309.97,310.8,314.69,317.47,321.91,325.24,328.57,331.07,331.9,334.68,339.12,343.56,346.89,351.89,356.33,361.32,363.82,364.65,367.43,372.43,376.87,379.65,382.15,382.98,387.98,392.42,394.92,395.75,399.08,403.52,407.96,412.4,417.4,420.18,422.96,427.95,430.45,431.28,435.72,439.05,442.38,445.16,450.16,454.6,459.6,462.1,462.93,466.26,469.59,474.59,482.37,484.87,485.7,492.92,497.36,504.58,507.08,507.92,515.14,520.14,523.47,528.47,530.97" svgx:width="0.44,0.44,0.28,0.25,0.55,0.39,0.28,0.44,0.33,0.33,0.25,0.55,0.28,0.44,0.44,0.33,0.5,0.44,0.5,0.25,0.55,0.28,0.5,0.44,0.28,0.25,0.55,0.5,0.44,0.25,0.55,0.33,0.44,0.44,0.44,0.5,0.28,0.28,0.5,0.25,0.55,0.44,0.33,0.33,0.28,0.5,0.44,0.5,0.25,0.55,0.33,0.33,0.5,0.78,0.25,0.55,0.72,0.44,0.72,0.25,0.55,0.72,0.5,0.33,0.5,0.25,0.25" style="fill:rgb(0,0,0);font-family:TimesNewRomanPSMT;font-size:10.0px;stroke:none;">cal staff learned that he recently arrived from New York, </text>
   <text y="510.932" x="295.81,303.03,307.47,314.69,317.19,317.96,325.18,330.18,333.51,338.51,341.01,343.51,344.28,351.5,357.06,364.28,366.78,367.55,370.88,375.88,380.32,383.65,388.09,392.53,395.86,398.64,403.08,406.41,408.91,409.67,413.0,417.44,420.77,425.21,428.54,431.87,436.31,441.31,443.81,444.58,447.36,452.36,454.86,455.63,460.07,463.96,466.46,467.23,474.45,478.89,486.11,488.61,489.38,496.6,501.6,504.93,509.93,513.26,515.76,516.53,520.97,525.97,530.97" svgx:width="0.72,0.44,0.72,0.25,0.55,0.72,0.5,0.33,0.5,0.25,0.25,0.55,0.72,0.56,0.72,0.25,0.55,0.33,0.5,0.44,0.33,0.44,0.44,0.33,0.28,0.44,0.33,0.25,0.55,0.33,0.44,0.33,0.44,0.33,0.33,0.44,0.5,0.25,0.55,0.28,0.5,0.25,0.55,0.44,0.39,0.25,0.55,0.72,0.44,0.72,0.25,0.55,0.72,0.5,0.33,0.5,0.33,0.25,0.55,0.44,0.5,0.5,0.25" style="fill:rgb(0,0,0);font-family:TimesNewRomanPSMT;font-size:10.0px;stroke:none;">New York, USA (hereafter referred to as New York) and </text>
   <text y="522.932" x="295.81,299.14,303.58,308.58,313.58,316.91,319.69,324.13,329.13,331.86,336.3,339.03,342.92,347.92,351.81,356.81,361.25,365.69,368.47,372.91,377.91,380.64,385.08,389.52,393.41,397.85,400.58,405.58,408.91,411.65,414.43,419.43,424.99,429.99,434.43,439.43,443.87,448.31,451.04,458.26,461.59,468.81,473.81,481.03,486.03,489.36,494.36,499.36,507.14,512.14,517.14,519.88,522.66,527.66" svgx:width="0.33,0.44,0.5,0.5,0.33,0.28,0.44,0.5,0.25,0.44,0.25,0.39,0.5,0.39,0.5,0.44,0.44,0.28,0.44,0.5,0.25,0.44,0.44,0.39,0.44,0.25,0.5,0.33,0.25,0.28,0.5,0.56,0.5,0.44,0.5,0.44,0.44,0.25,0.72,0.33,0.72,0.5,0.72,0.5,0.33,0.5,0.5,0.78,0.5,0.5,0.25,0.28,0.5,0.33" style="fill:rgb(0,0,0);font-family:TimesNewRomanPSMT;font-size:10.0px;stroke:none;">reported a suspected case of influenza A(H1N1)pdm09 in-</text>
   <text y="534.932" x="295.81,299.14,303.58,308.02,310.8,313.58,318.58,323.58,325.95,328.73,333.73,336.1,338.88,343.88,348.32,350.69,355.13,360.13,365.13,370.13,372.91,377.91,380.28,386.95,394.17,400.84,403.34,405.71,412.93,417.93,420.3,429.19,433.63,438.63,441.0,446.0,451.0,453.5,455.87,460.87,465.87,470.87,473.65,476.43,480.87,485.31,488.09,492.53,494.89,499.89,504.33,508.22,513.22,518.22,523.22,527.66" svgx:width="0.33,0.44,0.44,0.28,0.28,0.5,0.5,0.25,0.28,0.5,0.25,0.28,0.5,0.44,0.25,0.44,0.5,0.5,0.5,0.28,0.5,0.25,0.67,0.72,0.67,0.25,0.25,0.72,0.5,0.25,0.89,0.44,0.5,0.25,0.5,0.5,0.25,0.25,0.5,0.5,0.5,0.28,0.28,0.44,0.44,0.28,0.44,0.25,0.5,0.44,0.39,0.5,0.5,0.5,0.44,0.33" style="fill:rgb(0,0,0);font-family:TimesNewRomanPSMT;font-size:10.0px;stroke:none;">fection to the county CDC. On May 31, duplicate nasopha-</text>
   <text y="546.932" x="295.81,299.14,304.14,309.14,314.14,318.58,323.02,325.8,327.98,331.87,339.09,343.53,348.53,352.42,354.61,358.5,363.5,367.94,372.38,375.16,382.94,387.38,392.38,396.27,398.45,401.78,405.11,410.11,417.89,420.07,422.85,427.85,432.29,434.47,439.47,443.91,446.69,449.47,453.91,458.91,461.69,463.87,471.09,475.53,478.86,483.3,485.48,490.48,495.48,499.37,502.15,504.93,507.71,512.71,517.15,519.33,522.66,527.66,530.99" svgx:width="0.33,0.5,0.5,0.5,0.44,0.44,0.28,0.25,0.39,0.72,0.44,0.5,0.39,0.25,0.39,0.5,0.44,0.44,0.28,0.78,0.44,0.5,0.39,0.25,0.33,0.33,0.5,0.78,0.25,0.28,0.5,0.44,0.25,0.5,0.44,0.28,0.28,0.44,0.5,0.28,0.25,0.72,0.44,0.33,0.44,0.25,0.5,0.5,0.39,0.28,0.28,0.28,0.5,0.44,0.25,0.33,0.5,0.33,0.25" style="fill:rgb(0,0,0);font-family:TimesNewRomanPSMT;font-size:10.0px;stroke:none;">ryngeal swabs specimens from the patient were positive for </text>
   <text y="558.932" x="295.81,298.59,303.59,309.15,314.15,318.59,323.59,328.03,332.47,334.56,341.78,345.11,352.33,357.33,364.55,369.55,372.88,377.88,382.88,390.66,395.66,400.66,402.76,407.76,410.54,413.87,418.87,422.76,424.85,429.29,432.07,434.16,439.72,444.72,449.16,454.16,459.16,464.16,466.25,472.92,480.14,486.81,488.9,493.34,498.34,503.34,505.43,510.99,515.99,518.77,521.55,525.99,530.99" svgx:width="0.28,0.5,0.56,0.5,0.44,0.5,0.44,0.44,0.25,0.72,0.33,0.72,0.5,0.72,0.5,0.33,0.5,0.5,0.78,0.5,0.5,0.25,0.5,0.28,0.33,0.5,0.39,0.25,0.44,0.28,0.25,0.56,0.5,0.44,0.5,0.5,0.5,0.25,0.67,0.72,0.67,0.25,0.44,0.5,0.5,0.25,0.56,0.5,0.28,0.28,0.44,0.5,0.25" style="fill:rgb(0,0,0);font-family:TimesNewRomanPSMT;font-size:10.0px;stroke:none;">influenza A(H1N1)pdm09 virus at Fuzhou CDC and Fujian </text>
   <text y="570.932" x="295.81,301.37,304.7,309.7,314.7,317.48,322.48,326.92,329.7,334.14,336.92,339.42,346.09,353.31,359.98" svgx:width="0.56,0.33,0.5,0.5,0.28,0.5,0.44,0.28,0.44,0.28,0.25,0.67,0.72,0.67,0.25" style="fill:rgb(0,0,0);font-family:TimesNewRomanPSMT;font-size:10.0px;stroke:none;">Provincial CDC.</text>
   <text y="582.932" x="313.81,321.03,326.03,328.53,330.24,339.13,343.57,348.57,351.07,352.78,357.78,362.78,365.28,366.99,371.43,374.21,376.71,378.41,383.41,388.41,391.19,396.19,401.19" svgx:width="0.72,0.5,0.25,0.55,0.89,0.44,0.5,0.25,0.55,0.5,0.5,0.25,0.55,0.44,0.28,0.25,0.55,0.5,0.5,0.28,0.5,0.5,0.25" style="fill:rgb(0,0,0);font-family:TimesNewRomanPSMT;font-size:10.0px;stroke:none;">On May 27 at 10:40 </text>
  </g>
  <g begin="text">
   <text y="582.934" x="405.392,410.446" svgx:width="0.72,0.89" style="fill:rgb(0,0,0);font-family:TimesNewRomanPSMT-SC700;font-size:7.0px;stroke:none;">am</text>
   <text y="582.934" x="416.671,419.171,420.881" svgx:width="0.25,0.55,0.33" style="fill:rgb(0,0,0);font-family:TimesNewRomanPSMT-SC700;font-size:10.0px;stroke:none;"> (</text>
  </g>
  <g begin="text">
   <text y="582.934" x="424.208,428.648,431.428,434.208,436.708,438.408,441.188,443.968,451.748,456.188,460.078,462.578,464.278,468.718,472.048,476.488,478.988,480.688,487.358,491.798,494.578,497.358,502.358,507.358,509.858,511.558,514.338,519.338,523.778,528.218,530.998" svgx:width="0.44,0.28,0.28,0.25,0.55,0.28,0.28,0.78,0.44,0.39,0.25,0.55,0.44,0.33,0.44,0.25,0.55,0.67,0.44,0.28,0.28,0.5,0.5,0.25,0.55,0.28,0.5,0.44,0.44,0.28,0.25" style="fill:rgb(0,0,0);font-family:TimesNewRomanPSMT;font-size:10.0px;stroke:none;">all times are Bejing local </text>
   <text y="594.934" x="295.808,298.588,301.368,309.148,313.588" svgx:width="0.28,0.28,0.78,0.44,0.33" style="fill:rgb(0,0,0);font-family:TimesNewRomanPSMT;font-size:10.0px;stroke:none;">time)</text>
   <text y="594.934" x="316.908,319.408" svgx:width="0.25,0.25" style="fill:rgb(0,0,0);font-family:TimesNewRomanPSMT-SC700;font-size:10.0px;stroke:none;">, </text>
   <text y="594.934" x="323.458,326.238,331.238,335.678,338.178,339.728,344.728,349.168,351.948,354.728,359.158,364.158,366.938,369.438,370.988,375.988,380.428,385.428,387.928,389.478,394.478,398.918,403.918,408.358,411.688,414.468,418.908,423.898,426.398,427.948,435.168,439.608,446.828,449.328,450.878,458.098,463.098,466.428,471.428,473.928,475.478,480.478,485.478,487.978,489.528,493.968,496.468,498.018,503.578,506.358,511.358,516.358,519.138,521.638,523.188,525.968,530.968" svgx:width="0.28,0.5,0.44,0.25,0.55,0.5,0.44,0.28,0.28,0.44,0.5,0.28,0.25,0.55,0.5,0.44,0.5,0.25,0.55,0.5,0.44,0.5,0.44,0.33,0.28,0.44,0.5,0.25,0.55,0.72,0.44,0.72,0.25,0.55,0.72,0.5,0.33,0.5,0.25,0.55,0.5,0.5,0.25,0.55,0.44,0.25,0.55,0.56,0.28,0.5,0.5,0.28,0.25,0.55,0.28,0.5,0.25" style="fill:rgb(0,0,0);font-family:TimesNewRomanPSMT;font-size:10.0px;stroke:none;">the patient had departed New York on a flight to </text>
   <text y="606.934" x="295.798,303.018,308.018,313.018,318.018,320.518,321.628,328.848,333.848,338.848,343.848,346.348,348.848,349.948,356.618,361.618,364.398,369.398,373.838,376.338,378.838,379.938,387.158,390.488,393.268,397.708,401.038,403.538,404.638,410.198,415.198,417.978,422.978,427.978,430.478,431.578,434.908,439.908,443.238,445.738,446.838,451.838,454.338,455.438,460.438,465.438,470.438,473.768,477.658,480.158,481.258,485.698,490.698,495.698,498.198,499.298,504.298,509.298,511.798,512.898,520.678,523.458,528.458,530.958" svgx:width="0.72,0.5,0.5,0.5,0.25,0.55,0.72,0.5,0.5,0.5,0.25,0.25,0.55,0.67,0.5,0.28,0.5,0.44,0.25,0.25,0.55,0.72,0.33,0.28,0.44,0.33,0.25,0.55,0.56,0.5,0.28,0.5,0.5,0.25,0.55,0.33,0.5,0.33,0.25,0.55,0.5,0.25,0.55,0.5,0.5,0.5,0.33,0.39,0.25,0.55,0.44,0.5,0.5,0.25,0.55,0.5,0.5,0.25,0.55,0.78,0.28,0.5,0.25,0.25" style="fill:rgb(0,0,0);font-family:TimesNewRomanPSMT;font-size:10.0px;stroke:none;">Hong Kong, China. After flying for 5 hours and 50 min, </text>
   <text y="618.934" x="295.798,298.578,303.578,308.018,310.518,311.488,316.488,319.268,323.708,328.708,333.148,335.648,336.618,344.398,348.838,353.838,358.278,360.778,361.748,366.188,368.688,369.658,373.548,377.988,382.988,387.428,392.428,397.428,400.208,404.648,409.648,412.148,413.118,417.008,419.788,424.788,429.788,434.788,439.788,444.228,447.558,450.058,451.028,453.808,458.808,461.308,462.278,469.498,473.938,478.938,483.378,488.378,493.378,498.378,502.818,506.148,508.648,511.148,512.118,518.788,522.118,524.898,527.678" svgx:width="0.28,0.5,0.44,0.25,0.55,0.5,0.28,0.44,0.5,0.44,0.25,0.55,0.78,0.44,0.5,0.44,0.25,0.55,0.44,0.25,0.55,0.39,0.44,0.5,0.44,0.5,0.5,0.28,0.44,0.5,0.25,0.55,0.39,0.28,0.5,0.5,0.5,0.5,0.44,0.33,0.25,0.55,0.28,0.5,0.25,0.55,0.72,0.44,0.5,0.44,0.5,0.5,0.5,0.44,0.33,0.25,0.25,0.55,0.67,0.33,0.28,0.28,0.33" style="fill:rgb(0,0,0);font-family:TimesNewRomanPSMT;font-size:10.0px;stroke:none;">the plane made a scheduled stopover in Vancouver, Brit-</text>
   <text y="630.934" x="295.798,298.578,302.468,307.468,309.968,310.758,317.428,322.428,325.208,330.208,337.988,342.988,345.768,350.208,352.708,355.208,355.988,362.658,367.098,372.098,376.538,381.538,385.978,388.478,390.978,391.758,398.978,401.758,404.538,407.038,407.828,412.828,417.268,421.158,425.048,429.488,434.488,439.488,443.928,447.258,451.148,453.648,454.438,457.768,462.208,469.988,474.428,477.208,482.208,486.648,491.648,494.148,494.928,499.928,504.928,507.428,508.218,513.218,518.218,522.658,525.988,530.988" svgx:width="0.28,0.39,0.5,0.25,0.55,0.67,0.5,0.28,0.5,0.78,0.5,0.28,0.44,0.25,0.25,0.55,0.67,0.44,0.5,0.44,0.5,0.44,0.25,0.25,0.55,0.72,0.28,0.28,0.25,0.55,0.5,0.44,0.39,0.39,0.44,0.5,0.5,0.44,0.33,0.39,0.25,0.55,0.33,0.44,0.78,0.44,0.28,0.5,0.44,0.5,0.25,0.55,0.5,0.5,0.25,0.55,0.5,0.5,0.44,0.33,0.5,0.25" style="fill:rgb(0,0,0);font-family:TimesNewRomanPSMT;font-size:10.0px;stroke:none;">ish Columbia, Canada. All passengers remained on board </text>
   <text y="642.934" x="295.798,300.798,305.798,309.128,311.908,316.908,321.908,324.678,327.458,332.458,336.898,339.668,343.558,346.338,351.338,356.338,361.338,366.338,370.778,374.108,376.608,379.378,386.598,391.598,394.378,398.818,403.818,406.588,409.368,413.808,417.698,420.478,424.908,429.908,432.678,437.678,440.448,445.448,450.448,455.448,458.778,461.548,465.988,470.988,475.988,478.758,483.758,488.758,491.528,499.308,502.088,507.088,509.858,513.188,518.188,520.968,525.968,530.968" svgx:width="0.5,0.5,0.33,0.28,0.5,0.5,0.25,0.28,0.5,0.44,0.25,0.39,0.28,0.5,0.5,0.5,0.5,0.44,0.33,0.25,0.25,0.72,0.5,0.28,0.44,0.5,0.25,0.28,0.44,0.39,0.28,0.44,0.5,0.25,0.5,0.25,0.5,0.5,0.5,0.33,0.25,0.44,0.5,0.5,0.25,0.5,0.5,0.25,0.78,0.28,0.5,0.25,0.33,0.5,0.28,0.5,0.5,0.25" style="fill:rgb(0,0,0);font-family:TimesNewRomanPSMT;font-size:10.0px;stroke:none;">during the stopover, which lasted 1 hour and 15 min (4:30 </text>
  </g>
  <g begin="text">
   <text y="654.934" x="295.812,299.704" svgx:width="0.56,0.89" style="fill:rgb(0,0,0);font-family:TimesNewRomanPSMT-SC700;font-size:7.0px;stroke:none;">pm</text>
   <text y="654.934" x="305.929" svgx:width="0.5" style="fill:rgb(0,0,0);font-family:TimesNewRomanPSMT-SC700;font-size:10.0px;stroke:none;">–</text>
  </g>
  <g begin="text">
   <text y="654.934" x="310.929,315.929,318.709,323.709,328.709" svgx:width="0.5,0.28,0.5,0.5,0.25" style="fill:rgb(0,0,0);font-family:TimesNewRomanPSMT;font-size:10.0px;stroke:none;">5:45 </text>
  </g>
  <g begin="text">
   <text y="654.934" x="331.578,335.47" svgx:width="0.56,0.89" style="fill:rgb(0,0,0);font-family:TimesNewRomanPSMT-SC700;font-size:7.0px;stroke:none;">pm</text>
  </g>
  <g begin="text">
   <text y="654.934" x="341.695,345.025,347.525,350.395,357.615,360.395,363.725,367.055,372.055,376.495,381.495,386.495,389.275,392.055,397.055,402.055,404.925,408.815,413.815,417.705,420.485,424.925,432.705,436.595,439.465,446.685,451.125,454.455,458.895,461.765,465.095,470.095,472.875,475.655,480.655,483.525,488.525,493.525,497.965,501.295,505.735,508.515,511.295,516.295,521.295,525.735,528.515,531.015" svgx:width="0.33,0.25,0.25,0.72,0.28,0.33,0.33,0.5,0.44,0.5,0.5,0.28,0.28,0.5,0.5,0.25,0.39,0.5,0.39,0.28,0.44,0.78,0.39,0.25,0.72,0.44,0.33,0.44,0.25,0.33,0.5,0.28,0.28,0.5,0.25,0.5,0.5,0.44,0.33,0.44,0.28,0.28,0.5,0.5,0.44,0.28,0.25,0.25" style="fill:rgb(0,0,0);font-family:TimesNewRomanPSMT;font-size:10.0px;stroke:none;">). Air-handling systems were fully operational. </text>
   <text y="666.934" x="295.815,301.925,306.925,311.365,313.865,314.725,319.165,321.945,325.275,329.715,333.045,337.485,340.815,343.595,346.095,346.955,349.735,354.175,357.505,360.285,362.785,363.645,370.865,375.305,380.305,384.745,389.745,394.745,399.745,404.185,407.515,410.015,410.875,415.315,420.315,425.315,427.815,428.675,434.235,438.675,445.895,448.395,449.255,452.585,457.585,460.915,463.415,464.275,469.275,474.275,476.775,477.635,482.635,487.635,492.635,495.965,499.855,502.355,503.215,507.655,512.655,517.655,520.155,521.015,526.015,531.015" svgx:width="0.61,0.5,0.44,0.25,0.55,0.44,0.28,0.33,0.44,0.33,0.44,0.33,0.28,0.25,0.55,0.28,0.44,0.33,0.28,0.25,0.55,0.72,0.44,0.5,0.44,0.5,0.5,0.5,0.44,0.33,0.25,0.55,0.44,0.5,0.5,0.25,0.55,0.56,0.44,0.72,0.25,0.55,0.33,0.5,0.33,0.25,0.55,0.5,0.5,0.25,0.55,0.5,0.5,0.5,0.33,0.39,0.25,0.55,0.44,0.5,0.5,0.25,0.55,0.5,0.5,0.25" style="fill:rgb(0,0,0);font-family:TimesNewRomanPSMT;font-size:10.0px;stroke:none;">The aircraft left Vancouver and flew for 13 hours and 15 </text>
   <text y="678.934" x="295.815,303.595,306.375,311.375,313.875,314.635,319.075,324.075,329.075,331.575,332.345,336.785,340.115,343.445,346.225,351.225,355.665,360.655,363.155,363.925,366.705,371.705,374.205,374.975,382.195,387.195,392.195,397.195,399.695,400.465,407.685,412.685,417.685,422.685,425.185,425.955,430.395,433.175,435.675,436.435,441.435,444.215,449.215,454.215" svgx:width="0.78,0.28,0.5,0.25,0.55,0.44,0.5,0.5,0.25,0.55,0.44,0.33,0.33,0.28,0.5,0.44,0.5,0.25,0.55,0.28,0.5,0.25,0.55,0.72,0.5,0.5,0.5,0.25,0.55,0.72,0.5,0.5,0.5,0.25,0.55,0.44,0.28,0.25,0.55,0.5,0.28,0.5,0.5,0.25" style="fill:rgb(0,0,0);font-family:TimesNewRomanPSMT;font-size:10.0px;stroke:none;">min and arrived in Hong Kong at 7:00 </text>
  </g>
  <g begin="text">
   <text y="678.934" x="457.487,462.541" svgx:width="0.72,0.89" style="fill:rgb(0,0,0);font-family:TimesNewRomanPSMT-SC700;font-size:7.0px;stroke:none;">am</text>
  </g>
  <g begin="text">
   <text y="678.934" x="468.766,471.266,472.036,477.036,482.036,484.536,485.306,494.196,498.636,503.636,506.136,506.906,511.906,516.906,519.406,521.906,522.676,526.006,531.006" svgx:width="0.25,0.55,0.5,0.5,0.25,0.55,0.89,0.44,0.5,0.25,0.55,0.5,0.5,0.25,0.25,0.55,0.33,0.5,0.25" style="fill:rgb(0,0,0);font-family:TimesNewRomanPSMT;font-size:10.0px;stroke:none;"> on May 28. In </text>
   <text y="690.934" x="295.816,303.036,308.036,313.036,318.036,321.056,328.276,333.276,338.276,343.276,345.776,348.796,353.796,358.796,361.816,366.816,371.256,375.146,379.036,383.476,388.476,393.476,397.916,401.246,405.136,408.156,410.936,414.266,418.706,423.706,427.596,430.926,435.366,438.696,442.026,446.466,451.466,454.486,457.266,462.266,465.286,469.726,472.746,479.966,484.966,489.966,494.966,497.986,505.206,510.206,515.206,520.206,523.226,526.006,531.006" svgx:width="0.72,0.5,0.5,0.5,0.25,0.72,0.5,0.5,0.5,0.25,0.25,0.5,0.5,0.25,0.5,0.44,0.39,0.39,0.44,0.5,0.5,0.44,0.33,0.39,0.25,0.28,0.33,0.44,0.5,0.39,0.33,0.44,0.33,0.33,0.44,0.5,0.25,0.28,0.5,0.25,0.44,0.25,0.72,0.5,0.5,0.5,0.25,0.72,0.5,0.5,0.5,0.25,0.28,0.5,0.25" style="fill:rgb(0,0,0);font-family:TimesNewRomanPSMT;font-size:10.0px;stroke:none;">Hong Kong, 63 passengers transferred to a Hong Kong to </text>
  </g>
  <path style="fill:none;stroke:rgb(0,0,0);stroke-width:0.5;" d="M48.600 35.750 L531.000 35.750 "/>
  <g begin="text">
   <text y="89.18" x="67.044,84.372,95.412,111.42,122.076,138.084,154.092,164.748,172.74,188.748,204.756,212.748,228.756,243.42,251.412,266.82,282.828,298.836,314.844,322.836,345.492,361.5,376.164,392.172,406.836,414.828,431.244,447.252,463.26,471.252,487.26,501.924,512.58" svgx:width="0.72,0.44,0.67,0.44,0.67,0.67,0.44,0.33,0.67,0.67,0.33,0.67,0.61,0.33,0.67,0.67,0.67,0.67,0.33,0.94,0.67,0.61,0.67,0.61,0.33,0.67,0.67,0.67,0.33,0.67,0.61,0.44,0.33" style="fill:rgb(0,0,0);font-family:Arial-Black;font-size:24.0px;stroke:none;">Protection by Face Masks against </text>
   <text y="114.188" x="89.148,98.484,114.492,130.5,146.508,162.516,178.524,191.868,207.876,215.868,234.54,243.876,263.868,279.876,299.868,315.876,325.212,341.22,357.228,381.228,397.236,413.244,421.236,440.316,448.308,459.756,475.764,490.428,498.42" svgx:width="0.39,0.67,0.67,0.67,0.67,0.67,0.56,0.67,0.33,0.78,0.39,0.83,0.67,0.83,0.67,0.39,0.67,0.67,1.0,0.67,0.67,0.33,0.78,0.33,0.44,0.67,0.61,0.33,0.33" style="fill:rgb(0,0,0);font-family:Arial-Black;font-size:24.0px;stroke:none;">Influenza A(H1N1)pdm09 Virus </text>
   <text y="139.196" x="184.284,200.292,216.3,224.292,240.612,251.676,267.684,283.692,298.356,306.348,323.268,339.276,355.284,363.276,379.284,395.292,403.284" svgx:width="0.67,0.67,0.33,0.72,0.44,0.67,0.67,0.61,0.33,0.72,0.67,0.67,0.33,0.67,0.67,0.33,0.33" style="fill:rgb(0,0,0);font-family:Arial-Black;font-size:24.0px;stroke:none;">on Trans-Pacific </text>
   <text y="164.204" x="126.9,143.82,159.828,174.492,189.156,205.164,221.172,237.18,253.188,263.844,271.836,290.508,298.5,309.564,325.572,336.636,352.644,361.98,372.636,380.628,388.62,404.628,420.636,436.644" svgx:width="0.72,0.67,0.61,0.61,0.67,0.67,0.67,0.67,0.44,0.33,0.78,0.33,0.44,0.67,0.44,0.67,0.39,0.44,0.33,0.33,0.67,0.67,0.67,0.67" style="fill:rgb(0,0,0);font-family:Arial-Black;font-size:24.0px;stroke:none;">Passenger Aircraft, 2009</text>
   <text y="186.08" x="49.436,55.546,58.326,61.106,63.886,69.446,72.226,78.336,84.446,90.006,96.116,102.226" svgx:width="0.61,0.28,0.28,0.28,0.56,0.28,0.61,0.61,0.56,0.61,0.61,0.28" style="fill:rgb(0,0,0);font-family:Arial-BoldMT;font-size:10.0px;stroke:none;">Lijie Zhang,</text>
   <text y="182.75" x="104.993" svgx:width="0.56" style="fill:rgb(0,0,0);font-family:Arial-BoldMT;font-size:5.83px;stroke:none;">1</text>
   <text y="186.08" x="108.235,111.015,117.125,123.235,126.015,132.125,134.905,141.015,143.795,150.465,156.025,162.135,168.245" svgx:width="0.28,0.61,0.61,0.28,0.61,0.28,0.61,0.28,0.67,0.56,0.61,0.61,0.28" style="fill:rgb(0,0,0);font-family:Arial-BoldMT;font-size:10.0px;stroke:none;"> Zhibin Peng,</text>
   <text y="182.75" x="171.008" svgx:width="0.56" style="fill:rgb(0,0,0);font-family:Arial-BoldMT;font-size:5.83px;stroke:none;">1</text>
   <text y="186.08" x="174.251,177.031,182.591,185.371,190.931,197.041,205.931,208.711,214.821,220.931,223.711,231.491,237.601" svgx:width="0.28,0.56,0.28,0.56,0.61,0.89,0.28,0.61,0.61,0.28,0.78,0.61,0.28" style="fill:rgb(0,0,0);font-family:Arial-BoldMT;font-size:10.0px;stroke:none;"> Jianming Ou,</text>
   <text y="182.75" x="240.369" svgx:width="0.56" style="fill:rgb(0,0,0);font-family:Arial-BoldMT;font-size:5.83px;stroke:none;">1</text>
   <text y="186.08" x="243.611,246.391,254.171,260.281,265.841,271.951,278.061,280.841,286.951,292.511,298.621,304.731" svgx:width="0.28,0.78,0.61,0.56,0.61,0.61,0.28,0.61,0.56,0.61,0.61,0.28" style="fill:rgb(0,0,0);font-family:Arial-BoldMT;font-size:10.0px;stroke:none;"> Guang Zeng,</text>
   <text y="182.75" x="307.498" svgx:width="0.56" style="fill:rgb(0,0,0);font-family:Arial-BoldMT;font-size:5.83px;stroke:none;">1</text>
   <text y="186.08" x="310.74,313.52,320.74,326.85,332.96,338.52,342.41,345.74,348.52,355.19,357.97,360.75,366.86,372.97,379.08,382.41,387.97,390.75,396.86,402.42,405.2,407.98,416.31,419.09,425.2,431.31,437.42,440.2,446.31,449.09,455.2,457.98,464.09,466.87,469.65,475.76,481.87,487.98,490.76,496.32,502.43,508.54,511.32,518.54,524.65,527.43,530.21" svgx:width="0.28,0.72,0.61,0.61,0.56,0.39,0.33,0.28,0.67,0.28,0.28,0.61,0.61,0.61,0.33,0.56,0.28,0.61,0.56,0.28,0.28,0.83,0.28,0.61,0.61,0.61,0.28,0.61,0.28,0.61,0.28,0.61,0.28,0.28,0.61,0.61,0.61,0.28,0.56,0.61,0.61,0.28,0.72,0.61,0.28,0.28,0.28" style="fill:rgb(0,0,0);font-family:Arial-BoldMT;font-size:10.0px;stroke:none;"> Robert E. Fontaine, Mingbin Liu, Fuqiang Cui, </text>
   <text y="198.08" x="49.8,57.02,63.13,69.24,75.35,78.68,84.24,90.35,93.13,100.35,106.46,112.57,118.68,121.46,124.24,131.46,137.02,143.13,149.24,152.02,158.13,164.24,170.35,176.46,179.24,181.82,187.94,193.5,199.61,205.72,208.5,215.72,221.83,227.39,230.17,232.95,235.73,242.4,248.51,254.62,260.18,263.51,270.73,278.51,284.07,290.18,292.96,300.18,306.29,312.4,317.96,324.07,330.18,332.96,335.54,341.84,344.62,350.73,354.06,361.28,367.39,373.5,379.61,382.39,388.5,394.06,400.17,406.28,412.39,415.17,417.75,423.87,429.98,436.09,441.65,444.43,449.99,452.77,458.88,464.44,470.55,476.66,479.44,482.03,488.15,494.26,499.82,505.93,508.71,514.82,520.93,527.04,529.82" svgx:width="0.72,0.61,0.61,0.61,0.33,0.56,0.61,0.28,0.72,0.61,0.61,0.61,0.28,0.28,0.72,0.56,0.61,0.61,0.28,0.61,0.61,0.61,0.61,0.28,0.28,0.67,0.56,0.61,0.61,0.28,0.72,0.61,0.56,0.28,0.28,0.28,0.67,0.61,0.61,0.56,0.33,0.72,0.78,0.56,0.61,0.28,0.72,0.61,0.61,0.56,0.61,0.61,0.28,0.28,0.67,0.28,0.61,0.33,0.72,0.61,0.61,0.61,0.28,0.61,0.56,0.61,0.61,0.61,0.28,0.28,0.67,0.61,0.61,0.56,0.28,0.56,0.28,0.61,0.56,0.61,0.61,0.28,0.28,0.67,0.61,0.56,0.61,0.28,0.61,0.61,0.61,0.28,0.28" style="fill:rgb(0,0,0);font-family:Arial-BoldMT;font-size:10.0px;stroke:none;">Rongtao Hong, Hang Zhou, Yang Huai, Shuk-Kwan Chuang, Yiu-Hong Leung, Yunxia Feng, Yuan Luo, </text>
   <text y="210.08" x="135.86,141.23,146.79,152.9,155.68,162.35,168.46,174.02,180.13,182.91,185.69,192.91,198.47,204.58,207.91,214.58,217.36,223.47,229.58,232.36,238.47,244.58,250.69,253.47,256.25,264.58,270.14,274.03,279.59,282.92,290.14,292.92,298.48,301.26,307.37,310.15,319.48,322.26,328.37,334.48,340.59,348.37,353.93,360.04,366.15,368.93,371.71,377.27,383.38,389.49,392.27,399.49,405.6,411.71,417.82,420.6,423.38,428.94,431.52,437.64" svgx:width="0.61,0.56,0.61,0.28,0.67,0.61,0.56,0.61,0.28,0.28,0.72,0.56,0.61,0.33,0.67,0.28,0.61,0.61,0.28,0.61,0.61,0.61,0.28,0.28,0.83,0.56,0.39,0.56,0.33,0.72,0.28,0.56,0.28,0.61,0.28,0.94,0.28,0.61,0.61,0.61,0.78,0.56,0.61,0.61,0.28,0.28,0.56,0.61,0.61,0.28,0.72,0.61,0.61,0.61,0.28,0.28,0.56,0.28,0.67,0.61" style="fill:rgb(0,0,0);font-family:Arial-BoldMT;font-size:10.0px;stroke:none;">Tao Shen, Bao-Ping Zhu, Marc-Alain Widdowson, and Hongjie Yu</text>
   <text y="730.288" x="48.6,50.84,143.832,149.168,155.832,160.28,162.944,167.392,169.168,173.616,178.064,180.288,182.512,186.96,189.184,193.632,197.632,199.856,201.632,206.08,210.528,214.528,216.752,222.528,224.304,228.304,232.752,237.2,241.2,245.648,249.648,251.872,254.672,256.896,262.672,268.448,273.8,276.024,280.024,284.472,288.472,290.696,295.144,299.592,303.592,305.816,310.264,312.04,316.488,318.712,321.512,323.736,328.632,333.08,334.856,337.08,339.304,343.752,348.2,350.424,352.648,358.424,362.872,365.096,367.32,371.768,373.992,376.216,381.552,386.0,390.448,392.672,397.12,403.784,408.232,412.68,415.344,417.568,422.016,426.464,430.912,435.36,437.6,512.8,517.248,521.696,526.144" svgx:width="0.28,0.55,0.67,0.83,0.56,0.33,0.56,0.22,0.56,0.56,0.28,0.28,0.56,0.28,0.56,0.5,0.28,0.22,0.56,0.56,0.5,0.28,0.72,0.22,0.5,0.56,0.56,0.5,0.56,0.5,0.28,0.35,0.28,0.72,0.72,0.72,0.28,0.5,0.56,0.5,0.28,0.56,0.56,0.5,0.28,0.56,0.22,0.56,0.28,0.35,0.28,0.67,0.56,0.22,0.28,0.28,0.56,0.56,0.28,0.28,0.72,0.56,0.28,0.28,0.56,0.28,0.28,0.67,0.56,0.56,0.28,0.56,0.83,0.56,0.56,0.33,0.28,0.56,0.56,0.56,0.56,0.28,0.55,0.56,0.56,0.56,0.56" style="fill:rgb(0,0,0);font-family:ArialMT;font-size:8.0px;stroke:none;"> Emerging Infectious Diseases • www.cdc.gov/eid • Vol. 19, No. 9, September 2013 1403</text>
  </g>
  <path style="fill:none;stroke:rgb(0,0,0);stroke-width:0.5;" d="M48.600 568.720 L283.790 568.720 "/>
  <g begin="text">
   <text y="578.224" x="48.6,53.936,58.384,60.608,65.056,69.504,72.168,74.408,75.664,80.112,82.336,86.336,88.112,89.888,94.336,96.56,98.336,102.784,107.232,111.232,113.456,115.696,116.96,122.736,127.184,128.96,133.408,137.856,141.856,146.304,148.544,149.808,155.584,160.032,164.48,166.704,171.152,173.816,176.056,177.312,179.536,183.984,186.648,188.888,190.144,195.92,197.696,201.696,206.144,210.592,214.592,219.04,221.28,222.544,228.32,232.768,237.216,239.44,242.104,246.552,248.328,250.568,251.832,256.28,260.728,265.176,267.416,268.672,274.008,276.672,281.12" svgx:width="0.67,0.56,0.28,0.56,0.56,0.33,0.28,0.55,0.56,0.28,0.5,0.22,0.22,0.56,0.28,0.22,0.56,0.56,0.5,0.28,0.28,0.55,0.72,0.56,0.22,0.56,0.56,0.5,0.56,0.28,0.55,0.72,0.56,0.56,0.28,0.56,0.33,0.28,0.55,0.28,0.56,0.33,0.28,0.55,0.72,0.22,0.5,0.56,0.56,0.5,0.56,0.28,0.55,0.72,0.56,0.56,0.28,0.33,0.56,0.22,0.28,0.55,0.56,0.56,0.56,0.28,0.55,0.67,0.33,0.56,0.33" style="fill:rgb(0,0,0);font-family:ArialMT;font-size:8.0px;stroke:none;">Author affiliations: Chinese Center for Disease Control and Pre-</text>
   <text y="590.224" x="48.6,52.6,57.048,61.496,63.72,65.496,69.944,74.392,76.616,78.856,80.336,85.672,90.12,91.896,93.672,95.448,99.896,104.344,106.568,108.80799999999999,110.288,116.064,120.512,122.288,126.736,131.184,133.424,134.904,137.568,142.016,144.24,146.48000000000002,147.952,152.84,157.288,161.736,166.184,170.632,172.856,175.096,176.576,181.464,183.688,185.928,187.4,192.736,197.184,201.632,206.08,208.304,210.544,212.024,218.248,220.472,222.71200000000002,224.184,229.072,233.52,237.968,242.416,244.64,246.88,248.352,255.016,257.24,259.48,260.952,265.4,267.176,271.624,273.848,276.088,277.568,281.568,283.792" svgx:width="0.5,0.56,0.56,0.28,0.22,0.56,0.56,0.28,0.28,0.55,0.67,0.56,0.22,0.22,0.22,0.56,0.56,0.28,0.28,0.55,0.72,0.56,0.22,0.56,0.56,0.28,0.55,0.33,0.56,0.28,0.28,0.55,0.61,0.56,0.56,0.56,0.56,0.28,0.28,0.55,0.61,0.28,0.28,0.55,0.67,0.56,0.56,0.56,0.28,0.28,0.55,0.78,0.28,0.28,0.55,0.61,0.56,0.56,0.56,0.28,0.28,0.55,0.83,0.28,0.28,0.55,0.56,0.22,0.56,0.28,0.28,0.55,0.61,0.28,0.28" style="fill:rgb(0,0,0);font-family:ArialMT;font-size:8.0px;stroke:none;">vention, Beijing, China (L. Zhang, Z. Peng, G. Zeng, M. Liu, F. </text>
   <text y="602.224" x="48.6,54.376,58.824,60.6,62.824,65.064,65.912,71.688,73.912,76.152,77.0,81.888,86.336,90.784,95.232,97.456,99.696,100.4,104.704,106.928,109.16799999999999,110.008,114.896,119.344,123.792,128.24,130.464,132.704,133.408,137.712,139.936,142.17600000000002,143.016,147.464,151.912,156.36,158.584,160.824,161.528,165.528,167.752,169.99200000000002,170.832,176.168,180.616,185.064,189.512,191.736,193.976,194.824,200.16,202.384,205.048,209.352,211.576,213.816,214.656,219.544,223.992,228.44,230.664,232.904,233.744,239.52,241.744,243.984,244.68,249.576,254.024,256.688,258.912,261.152,261.992,266.88,271.328,273.104,274.88,279.328,283.776" svgx:width="0.72,0.56,0.22,0.28,0.28,0.55,0.72,0.28,0.28,0.55,0.61,0.56,0.56,0.56,0.28,0.28,0.55,0.67,0.28,0.28,0.55,0.61,0.56,0.56,0.56,0.28,0.28,0.55,0.67,0.28,0.28,0.55,0.56,0.56,0.56,0.28,0.28,0.55,0.61,0.28,0.28,0.55,0.67,0.56,0.56,0.56,0.28,0.28,0.55,0.67,0.28,0.33,0.67,0.28,0.28,0.55,0.61,0.56,0.56,0.28,0.28,0.55,0.72,0.28,0.28,0.55,0.67,0.56,0.33,0.28,0.28,0.55,0.61,0.56,0.22,0.22,0.56,0.56,0.28" style="fill:rgb(0,0,0);font-family:ArialMT;font-size:8.0px;stroke:none;">Cui, H. Zhou, Y. Feng, Y. Luo, T. Shen, B.-P. Zhu, H. Yu); Fujian </text>
   <text y="614.224" x="48.6,54.376,58.824,63.272,65.496,69.944,72.608,75.024,77.248,81.696,84.36,86.776,92.552,94.328,98.328,102.776,107.224,111.224,115.68,118.096,123.872,128.32,132.768,134.992,137.656,142.104,143.88,146.304,150.752,155.2,159.648,162.064,167.4,170.064,174.512,178.512,182.96,187.408,189.632,191.408,195.856,200.304,202.528,204.952,209.84,214.288,218.288,222.736,227.184,231.632,233.856,236.272,242.048,246.496,248.272,252.72,257.168,259.592,262.256,266.256,268.48,270.896,277.12,281.568,283.792" svgx:width="0.72,0.56,0.56,0.28,0.56,0.33,0.28,0.28,0.56,0.33,0.28,0.72,0.22,0.5,0.56,0.56,0.5,0.56,0.28,0.72,0.56,0.56,0.28,0.33,0.56,0.22,0.28,0.56,0.56,0.56,0.28,0.67,0.33,0.56,0.5,0.56,0.56,0.28,0.22,0.56,0.56,0.28,0.28,0.61,0.56,0.5,0.56,0.56,0.56,0.28,0.28,0.72,0.56,0.22,0.56,0.56,0.28,0.33,0.5,0.28,0.28,0.78,0.56,0.28,0.28" style="fill:rgb(0,0,0);font-family:ArialMT;font-size:8.0px;stroke:none;">Center for Disease Control and Prevention, Fuzhou, China (J. Ou, </text>
   <text y="626.224" x="48.6,54.376,56.6,58.84,59.704,65.48,69.928,74.376,78.824,81.496,83.72,85.96,86.824,92.6,97.048,101.496,105.496,109.944,114.4,118.848,123.296,125.536,126.4,132.176,136.624,141.072,143.296,147.744,150.408,152.648,153.52,155.744,160.192,162.856,165.096,165.96,171.736,173.512,177.512,181.96,186.408,190.408,194.856,197.096,197.968,203.744,208.192,212.64,214.864,217.528,221.976,223.752,225.99200000000002,226.864,231.312,235.76,240.208,242.448,243.32,248.656,251.32,255.768,259.768,264.216,268.664,270.888,272.664,277.112,281.56,283.784,283.784" svgx:width="0.72,0.28,0.28,0.55,0.72,0.56,0.56,0.56,0.33,0.28,0.28,0.55,0.72,0.56,0.56,0.5,0.56,0.56,0.56,0.56,0.28,0.55,0.72,0.56,0.56,0.28,0.56,0.33,0.28,0.55,0.28,0.56,0.33,0.28,0.55,0.72,0.22,0.5,0.56,0.56,0.5,0.56,0.28,0.55,0.72,0.56,0.56,0.28,0.33,0.56,0.22,0.28,0.55,0.56,0.56,0.56,0.28,0.55,0.67,0.33,0.56,0.5,0.56,0.56,0.28,0.22,0.56,0.56,0.28,0.28,0.28" style="fill:rgb(0,0,0);font-family:ArialMT;font-size:8.0px;stroke:none;">R. Hong); Nanchang Center for Disease Control and Prevention, </text>
   <text y="638.224" x="48.6,54.36,58.792,63.224,67.2,71.632,76.064,80.496,84.928,87.128,87.552,93.312,97.744,99.504,103.936,108.368,108.792,111.432,118.072,120.272,120.696,125.128,126.888,131.32,133.96,136.16,136.584,142.344,146.776,151.208,153.408,157.84,160.48,164.456,164.88,167.08,171.512,174.152,174.576,180.336,182.096,186.072,190.504,194.936,198.912,203.344,203.768,209.528,213.96,218.392,220.592,223.232,227.664,229.424,229.848,234.28,238.712,243.144,243.568,248.88,251.52,255.952,259.928,264.36,268.792,270.992,272.752,277.184,281.616,283.84,283.784" svgx:width="0.72,0.56,0.56,0.5,0.56,0.56,0.56,0.56,0.28,0.28,0.72,0.56,0.22,0.56,0.56,0.28,0.33,0.83,0.28,0.28,0.56,0.22,0.56,0.33,0.28,0.28,0.72,0.56,0.56,0.28,0.56,0.33,0.5,0.28,0.28,0.56,0.33,0.28,0.72,0.22,0.5,0.56,0.56,0.5,0.56,0.28,0.72,0.56,0.56,0.28,0.33,0.56,0.22,0.28,0.56,0.56,0.56,0.28,0.67,0.33,0.56,0.5,0.56,0.56,0.28,0.22,0.56,0.56,0.28,0.28,0.28" style="fill:rgb(0,0,0);font-family:ArialMT;font-size:8.0px;stroke:none;">Nanchang, China (M. Liu); Centers for Disease Control and Prevention, </text>
   <text y="650.224" x="48.6,53.936,56.16,57.936,62.384,66.832,69.056,73.504,75.728,78.112,84.336,88.784,93.232,95.896,100.344,102.12,106.568,108.792,111.184,116.96,122.296,127.192,129.576,132.24,138.016,140.24,142.624,147.96,150.184,152.568,157.456,161.904,166.352,168.576,173.024,174.8,179.248,183.696,185.92,188.304,194.968,197.192,199.856,205.192,207.416,209.8,217.352,219.128,223.576,228.024,232.472,238.248,242.248,246.696,251.144,253.808,256.032,258.424,264.2,268.648,270.424,274.872,279.32" svgx:width="0.67,0.28,0.22,0.56,0.56,0.28,0.56,0.28,0.28,0.78,0.56,0.56,0.33,0.56,0.22,0.56,0.28,0.28,0.72,0.67,0.67,0.28,0.33,0.72,0.28,0.28,0.67,0.28,0.28,0.61,0.56,0.56,0.28,0.56,0.22,0.56,0.56,0.28,0.28,0.83,0.28,0.33,0.67,0.28,0.28,0.94,0.22,0.56,0.56,0.56,0.72,0.5,0.56,0.56,0.33,0.28,0.28,0.72,0.56,0.22,0.56,0.56,0.56" style="fill:rgb(0,0,0);font-family:ArialMT;font-size:8.0px;stroke:none;">Atlanta, Georgia, USA (R. E. Fontaine, M.-A. Widdowson); China–</text>
   <text y="662.224" x="48.6,54.376,59.712,61.952000000000005,63.136,68.912,73.36,75.136,76.912,81.36,85.808,90.256,92.92,97.368,99.592,101.368,105.368,109.816,112.056,113.248,118.584,121.248,125.696,130.144,132.808,137.256,143.92,146.16,147.344,151.792,156.24,158.48000000000002,159.664,165.0,171.664,176.112,178.776,183.224,185.0,189.448,193.896,196.136,197.328,201.776,206.224,210.672,212.912,214.104,219.88,224.328,226.992,231.44,238.104,242.552,245.216,249.664,251.44,255.888,260.336,262.576,263.768,265.992,270.44,272.664,277.112,281.112" svgx:width="0.72,0.67,0.28,0.55,0.72,0.56,0.22,0.22,0.56,0.56,0.56,0.33,0.56,0.28,0.22,0.5,0.56,0.28,0.55,0.67,0.33,0.56,0.56,0.33,0.56,0.83,0.28,0.55,0.56,0.56,0.28,0.55,0.67,0.83,0.56,0.33,0.56,0.22,0.56,0.56,0.28,0.55,0.56,0.56,0.56,0.28,0.55,0.72,0.56,0.33,0.56,0.83,0.56,0.33,0.56,0.22,0.56,0.56,0.28,0.55,0.28,0.56,0.28,0.56,0.5,0.33" style="fill:rgb(0,0,0);font-family:ArialMT;font-size:8.0px;stroke:none;">US Collaborative Program on Emerging and Re-emerging Infec-</text>
   <text y="674.224" x="48.6,50.824,52.6,57.048,61.496,65.496,67.73599999999999,68.72,74.496,76.272,80.272,84.72,89.168,93.168,97.616,101.616,103.84,106.08,107.064,112.4,116.848,118.624,120.4,122.176,126.624,131.072,133.312,134.304,136.968,141.272,143.496,145.73600000000002,146.712,152.488,156.936,161.384,163.16,165.824,168.048,170.288,171.272,175.72,180.168,184.616,186.85600000000002,187.84,193.616,198.064,202.512,206.96,209.20000000000002,210.184,215.52,219.968,224.416,228.864,231.104,232.088,237.864,242.312,246.76,251.208,253.872,256.096,262.76,267.208,271.656,273.88,276.12,277.104,281.552,283.776" svgx:width="0.28,0.22,0.56,0.56,0.5,0.28,0.55,0.72,0.22,0.5,0.56,0.56,0.5,0.56,0.5,0.28,0.28,0.55,0.67,0.56,0.22,0.22,0.22,0.56,0.56,0.28,0.55,0.33,0.67,0.28,0.28,0.55,0.72,0.56,0.56,0.22,0.33,0.28,0.28,0.55,0.56,0.56,0.56,0.28,0.55,0.72,0.56,0.56,0.56,0.28,0.55,0.67,0.56,0.56,0.56,0.28,0.55,0.72,0.56,0.56,0.56,0.33,0.28,0.83,0.56,0.56,0.28,0.28,0.55,0.56,0.28,0.28" style="fill:rgb(0,0,0);font-family:ArialMT;font-size:8.0px;stroke:none;">tious Diseases, Beijing (Y. Huai); and Hong Kong Department of </text>
   <text y="686.224" x="48.6,54.376,58.824,63.272,65.048,67.272,71.72,73.944,76.168,81.944,86.392,90.84,95.288,97.512,102.848,107.296,111.744,116.192,118.416,120.64,126.416,130.864,132.64,137.088,141.536,143.76,146.424,151.76,153.984,156.648,161.984,164.208,166.432,172.208,176.656,181.104,185.552,190.0,194.448,196.672,198.76,203.064,205.288,207.952,213.728,215.952,218.176,222.624,227.072,231.52,235.968,240.416" svgx:width="0.72,0.56,0.56,0.22,0.28,0.56,0.28,0.28,0.72,0.56,0.56,0.56,0.28,0.67,0.56,0.56,0.56,0.28,0.28,0.72,0.56,0.22,0.56,0.56,0.28,0.33,0.67,0.28,0.33,0.67,0.28,0.28,0.72,0.56,0.56,0.56,0.56,0.56,0.28,0.28,0.67,0.28,0.33,0.72,0.28,0.28,0.56,0.56,0.56,0.56,0.56,0.33" style="fill:rgb(0,0,0);font-family:ArialMT;font-size:8.0px;stroke:none;">Health, Hong Kong, China (S.-K. Chuang, Y.-H. Leung)</text>
   <text y="704.224" x="48.6,54.376,60.6,62.824,65.048,67.272,71.72,73.944,76.168,80.616,82.84,85.064,87.288,91.736,95.736,97.96,102.408,106.856,108.632,110.856,115.304,117.968,122.416,124.64,129.088,133.536,135.76,140.208,144.656,149.104,153.552,155.776,160.224,162.0,166.448,170.896,175.344,179.792,184.24,186.464,190.912,195.36,199.808,204.256,208.704" svgx:width="0.72,0.78,0.28,0.28,0.28,0.56,0.28,0.28,0.56,0.28,0.28,0.28,0.56,0.5,0.28,0.56,0.56,0.22,0.28,0.56,0.33,0.56,0.28,0.56,0.56,0.28,0.56,0.56,0.56,0.56,0.28,0.56,0.22,0.56,0.56,0.56,0.56,0.56,0.28,0.56,0.56,0.56,0.56,0.56,0.56" style="fill:rgb(0,0,0);font-family:ArialMT;font-size:8.0px;stroke:none;">DOI: http://dx.doi.org/10.3201/eid1909.121765</text>
  </g>
  <path style="fill:none;stroke:rgb(0,0,0);stroke-width:1.0;" d="M295.810 695.690 L531.000 695.690 "/>
  <g begin="text">
   <text y="702.28" x="295.812" svgx:width="0.56" style="fill:rgb(0,0,0);font-family:ArialMT;font-size:4.66px;stroke:none;">1</text>
   <text y="704.944" x="298.406,303.294,307.742,312.19,316.19,320.638,322.862,327.31,331.758,333.982,338.43,342.878,345.542,349.542,351.766,355.766,360.214,364.662,366.886,369.55,371.326,375.774,380.222,382.446,386.894,391.342,393.566,398.014,402.462,406.91,411.358,413.134,414.91,418.91,421.134,423.358,427.806,430.03,432.254,436.702,438.478,442.478,444.702,449.15,451.814,454.038,455.814,459.814,461.59,466.038" svgx:width="0.61,0.56,0.56,0.5,0.56,0.28,0.56,0.56,0.28,0.56,0.56,0.33,0.5,0.28,0.5,0.56,0.56,0.28,0.33,0.22,0.56,0.56,0.28,0.56,0.56,0.28,0.56,0.56,0.56,0.56,0.22,0.22,0.5,0.28,0.28,0.56,0.28,0.28,0.56,0.22,0.5,0.28,0.56,0.33,0.28,0.22,0.5,0.22,0.56,0.28" style="fill:rgb(0,0,0);font-family:ArialMT;font-size:8.0px;stroke:none;">These authors contributed equally to this article.</text>
  </g>
 </g>
</svg>
