<?xml version="1.0" encoding="UTF-8"?>
<svg height="783.4" width="563.32" xmlns="http://www.w3.org/2000/svg">
 <g>
  <path style="fill:rgb(135,127,124);stroke:none;stroke-width:1.0;" d="M80.120 635.090 L40.820 635.090 L40.820 595.790 L80.120 595.790 L80.120 635.090 M54.390 630.720 C56.260 631.450 58.300 631.850 60.430 631.850 C62.560 631.850 64.590 631.450 66.460 630.720 L69.590 630.720 L69.590 629.090 C74.050 626.130 76.990 621.050 76.990 615.290 C76.990 606.150 69.570 598.730 60.430 598.730 C51.280 598.730 43.870 606.150 43.870 615.290 C43.870 621.140 46.900 626.280 51.480 629.230 L51.480 630.720 L54.390 630.720 M60.430 598.730 C69.570 598.730 76.990 606.150 76.990 615.290 C76.990 624.440 69.570 631.850 60.430 631.850 C51.290 631.850 43.870 624.440 43.870 615.290 C43.870 606.150 51.290 598.730 60.430 598.730 "/>
  <path style="fill:rgb(135,127,124);stroke:none;stroke-width:1.0;" d="M60.440 631.590 C58.590 631.590 56.810 631.280 55.160 630.720 L65.720 630.720 C64.060 631.280 62.290 631.590 60.440 631.590 M51.480 628.910 C47.050 626.000 44.130 620.980 44.130 615.280 C44.130 606.270 51.430 598.970 60.440 598.970 C69.450 598.970 76.750 606.270 76.750 615.280 C76.750 620.900 73.910 625.850 69.590 628.790 L69.590 625.410 C72.350 622.910 74.080 619.300 74.080 615.290 C74.080 609.020 69.830 603.570 63.750 602.050 C62.660 601.780 61.540 601.640 60.400 601.640 C58.370 601.640 56.350 602.090 54.550 602.940 C52.250 604.020 50.300 605.740 48.920 607.890 C47.510 610.090 46.770 612.650 46.780 615.300 C46.780 618.940 48.210 622.370 50.780 624.950 C51.010 625.170 51.240 625.390 51.480 625.600 L51.480 628.910 M60.400 601.640 C58.370 601.640 56.350 602.090 54.550 602.940 C52.250 604.020 50.300 605.740 48.920 607.890 C47.510 610.090 46.770 612.660 46.780 615.290 C46.780 618.940 48.210 622.370 50.780 624.950 C53.360 627.530 56.780 628.950 60.430 628.950 C67.960 628.950 74.080 622.820 74.080 615.290 C74.080 609.020 69.830 603.570 63.750 602.050 C62.660 601.780 61.540 601.640 60.400 601.640 "/>
  <path style="fill:rgb(248,249,246);stroke:none;stroke-width:1.0;" d="M51.480 625.230 C48.770 622.780 47.060 619.240 47.060 615.290 C47.040 610.510 49.530 606.300 53.300 603.940 C52.660 604.340 52.050 604.800 51.480 605.310 L51.480 606.040 C49.920 607.560 48.760 609.450 48.130 611.550 C49.080 609.700 50.130 608.000 51.480 606.590 L51.480 623.970 C50.110 622.550 49.010 620.780 48.170 619.040 C48.810 621.130 49.960 622.990 51.480 624.480 L51.480 625.230 M69.590 625.040 L69.590 624.290 C71.010 622.830 72.100 621.040 72.710 619.040 C71.850 620.680 70.860 622.370 69.590 623.760 L69.590 607.000 C70.790 608.340 71.790 609.900 72.710 611.550 C72.130 609.660 71.120 607.940 69.790 606.510 C69.720 606.440 69.650 606.370 69.590 606.300 L69.590 605.550 C69.110 605.100 68.600 604.680 68.060 604.310 C71.530 606.720 73.800 610.740 73.800 615.290 C73.800 619.140 72.180 622.600 69.590 625.040 M48.170 619.040 C49.780 624.300 54.640 628.130 60.430 628.130 C66.210 628.130 71.110 624.300 72.710 619.040 C71.650 621.060 70.390 623.150 68.660 624.670 C66.470 626.600 63.580 627.760 60.430 627.760 C57.160 627.760 54.190 626.510 51.970 624.450 C50.370 622.970 49.110 620.980 48.170 619.040 "/>
  <path style="fill:rgb(233,232,233);stroke:none;stroke-width:1.0;" d="M63.550 602.840 C60.690 602.120 57.570 602.410 54.900 603.670 C51.580 605.240 49.160 608.140 48.130 611.550 C49.780 608.340 51.700 605.580 55.060 604.010 C56.530 603.320 58.130 602.930 59.740 602.840 C60.990 602.780 62.250 602.890 63.460 603.200 C66.050 603.840 67.990 605.220 69.580 607.000 C70.790 608.340 71.790 609.900 72.710 611.550 C72.130 609.660 71.120 607.930 69.790 606.510 C68.150 604.760 66.010 603.460 63.550 602.840 "/>
  <path style="fill:rgb(111,105,102);stroke:none;stroke-width:1.0;" d="M69.590 630.720 C67.570 630.290 68.610 629.740 69.590 629.090 M54.390 630.720 L51.480 629.230 M60.400 601.920 C69.500 603.770 73.800 609.030 73.800 615.290 L47.110 630.720 C47.040 609.950 50.140 605.330 54.670 603.190 M66.460 630.720 C67.100 630.250 68.400 629.590 69.590 628.790 C68.610 629.740 67.570 630.290 66.460 630.720 L54.390 630.720 L51.480 628.910 M60.400 601.920 C69.500 603.770 73.800 609.030 73.800 615.290 L47.110 630.720 C47.040 609.950 50.140 605.330 54.670 603.190 M65.720 630.720 C53.850 630.270 52.620 629.660 51.480 628.910 C51.970 626.030 52.470 626.410 53.010 626.760 L54.940 627.800 C62.430 628.950 64.330 628.520 66.050 627.740 L68.060 629.360 C68.060 628.300 68.060 627.630 68.060 626.960 C68.590 626.250 69.110 625.850 69.590 625.410 C68.400 629.590 67.100 630.250 65.720 630.720 C61.510 601.920 62.610 602.050 63.680 602.320 C73.800 621.590 73.840 630.720 73.840 630.720 C47.110 630.720 47.080 622.680 47.060 615.290 C56.460 602.340 58.430 601.920 60.400 601.920 C58.510 628.950 56.640 628.550 54.940 627.800 C56.790 628.290 58.570 628.670 60.430 628.670 L65.840 627.570 C64.330 628.520 62.430 628.950 60.430 628.950 C52.470 626.410 51.970 626.030 51.480 625.600 C51.960 625.660 52.470 626.060 53.010 626.420 M68.060 626.610 C68.600 625.900 69.110 625.490 69.590 625.040 C69.110 625.850 68.590 626.250 68.060 626.610 C61.510 601.920 62.610 602.050 63.680 602.320 C73.800 621.590 73.840 630.720 73.840 630.720 C47.110 630.720 47.080 622.680 47.060 615.290 C56.460 602.340 58.430 601.920 60.400 601.920 C58.570 628.670 56.790 628.290 55.190 627.600 C57.130 627.810 58.740 628.130 60.430 628.130 L65.600 627.370 C64.160 628.270 62.340 628.670 60.430 628.670 C58.860 627.760 57.370 627.480 55.990 626.950 C57.920 625.390 59.110 624.430 60.300 623.470 L60.700 623.410 L65.010 626.900 M53.010 626.420 L51.480 624.480 L53.010 626.420 L68.060 625.620 L69.590 625.040 M53.010 625.310 C51.800 624.290 51.640 624.130 51.480 623.970 C51.950 606.100 52.450 605.650 53.010 605.240 M68.060 625.170 C68.060 618.610 68.060 612.100 68.060 605.580 C68.600 605.970 69.110 606.470 69.580 607.000 L69.590 623.760 C68.460 624.840 68.260 625.010 68.060 625.170 C61.510 601.920 62.610 602.050 63.680 602.320 C73.800 621.590 73.840 630.720 73.840 630.720 C47.110 630.720 47.080 622.680 47.060 615.290 C56.460 602.340 58.430 601.920 60.400 601.920 C58.740 628.130 57.130 627.810 55.660 627.220 L55.990 626.950 C62.040 627.760 63.590 627.460 65.010 626.900 L65.310 627.140 C63.820 627.790 62.170 628.130 60.430 628.130 C52.470 625.370 51.960 624.950 51.480 624.480 C51.640 624.130 51.800 624.290 51.970 624.450 L53.010 625.760 L68.060 625.170 C68.980 624.390 69.290 624.080 69.590 623.760 C69.110 624.770 68.600 625.220 68.060 625.620 C61.510 601.920 62.610 602.050 63.680 602.320 C73.800 621.590 73.840 630.720 73.840 630.720 C47.110 630.720 47.080 622.680 47.060 615.290 C56.460 602.340 58.430 601.920 60.400 601.920 C69.110 605.820 68.600 605.370 68.060 604.970 C68.600 604.680 69.110 605.100 69.590 605.550 M51.480 606.040 C52.050 604.800 52.660 604.340 53.300 603.940 C53.010 604.130 53.010 604.130 53.010 604.130 L53.010 604.780 M53.320 603.930 C53.370 603.890 53.420 603.860 53.480 603.830 C53.430 603.860 53.380 603.890 53.320 603.930 L54.410 603.320 C54.710 603.170 54.750 603.150 54.780 603.140 C54.790 603.140 54.780 603.150 54.770 603.150 M54.790 603.130 C56.300 602.550 56.000 602.650 55.690 602.760 C55.300 602.910 55.270 602.930 55.240 602.940 M60.400 601.920 C69.500 603.770 73.800 609.030 73.800 615.290 L47.110 630.720 C47.040 609.950 50.140 605.330 54.670 603.190 M69.590 607.000 C69.110 606.470 68.600 605.970 68.060 605.520 C68.600 605.370 69.110 605.820 69.590 606.300 M51.480 606.590 C51.950 605.580 52.460 605.160 53.010 604.780 C52.450 605.650 51.950 606.100 51.480 606.590 C61.510 601.920 62.610 602.050 63.680 602.320 C73.800 621.590 73.840 630.720 73.840 630.720 C47.110 630.720 47.080 622.680 47.060 615.290 C56.460 602.340 58.430 601.920 60.400 601.920 C60.810 601.920 60.600 601.920 60.400 601.920 C60.170 601.920 60.290 601.920 60.400 601.920 M60.400 601.920 C69.500 603.770 73.800 609.030 73.800 615.290 L47.110 630.720 C47.040 609.950 50.140 605.330 54.670 603.190 M53.010 629.360 C53.010 619.430 53.010 612.100 53.010 604.780 C53.010 604.130 53.010 604.130 53.010 604.130 L53.010 604.360 L68.060 604.540 L53.010 604.970 L53.430 605.150 L53.010 605.580 L68.060 605.760 L53.010 606.190 L68.060 606.370 C67.400 606.280 67.350 606.200 67.240 606.340 L53.670 606.370 L53.430 606.370 L53.010 606.800 L53.430 606.860 L53.540 606.980 L53.010 607.410 L68.060 607.590 L53.010 608.020 L53.420 608.200 L53.010 608.640 L68.060 608.810 L53.010 609.250 L68.060 609.420 L67.460 609.420 L67.390 609.350 L67.240 609.420 L53.650 609.420 L53.570 609.350 L53.420 609.420 L53.010 609.420 L53.420 609.860 L53.490 610.010 L53.510 610.030 L53.010 610.470 L68.060 610.650 L53.010 611.080 L53.420 611.260 L53.010 611.690 L68.060 611.870 L53.010 612.300 L68.060 612.480 L67.380 612.430 L67.250 612.480 L53.560 612.430 L53.430 612.480 L53.010 612.910 L53.410 613.010 L53.480 613.080 L53.010 613.090 L68.060 613.520 L53.010 613.700 L53.410 614.130 L53.010 614.310 L68.060 614.740 L53.010 614.920 L68.060 615.350 L67.400 615.530 L67.290 615.500 L53.590 615.530 L53.470 615.500 L53.010 615.530 L53.400 615.960 L53.460 616.140 L53.010 616.580 L68.060 616.760 L53.010 617.190 L53.400 617.360 L53.010 617.800 L68.060 617.980 L53.010 618.410 L68.060 618.590 L67.360 618.580 L67.270 618.590 L53.550 618.580 L53.460 618.590 L53.010 619.020 L53.400 619.170 L53.010 619.200 L68.060 619.630 L53.010 619.810 L53.390 620.240 L53.010 620.420 L68.060 620.850 L53.010 621.030 L68.060 621.460 L53.010 621.640 L53.390 622.070 L53.400 622.250 L53.010 622.680 L68.060 622.860 L53.010 623.300 L53.390 623.470 L53.010 623.910 L53.530 623.920 L53.620 623.910 L59.540 624.080 L53.010 624.520 L58.780 624.700 L53.010 625.130 L53.380 625.310 L53.010 625.740 L57.270 625.920 L53.010 626.350 L53.380 626.530 L53.010 626.960 L53.520 626.990 L53.630 626.960 L55.760 627.140 L53.010 627.570 L55.000 627.750 L53.010 628.180 L53.380 628.360 L53.010 628.790 L53.480 628.970 L53.010 629.360 L67.580 628.970 L68.060 628.790 M68.060 628.360 L67.480 628.180 L68.060 628.360 L66.820 628.360 L67.190 628.180 M54.240 628.360 L53.670 628.180 L54.240 628.360 L66.070 627.750 L65.840 627.570 L68.060 627.750 L65.310 627.140 L67.300 626.960 L67.420 626.990 L68.060 626.960 M68.060 626.530 L67.490 626.410 L68.060 626.350 M67.200 626.530 L64.330 626.350 L67.200 626.530 L53.670 626.530 L53.610 626.350 L56.510 626.530 L63.800 625.920 L68.060 625.740 M68.060 625.310 L67.490 625.130 L68.060 625.310 L63.040 625.310 L67.200 625.130 M58.030 625.310 L53.670 625.130 L58.030 625.310 L62.290 624.700 L68.060 624.520 M68.060 624.080 L61.310 623.910 L67.340 623.920 L67.430 623.910 L68.060 624.080 L67.490 623.470 L67.460 623.300 L68.060 623.470 L60.770 623.470 L60.370 623.410 L53.680 623.470 L53.640 623.300 L67.200 623.470 L67.500 622.250 L68.060 622.070 M67.220 622.250 L53.680 622.070 L67.210 622.240 M68.060 620.420 L67.500 620.260 L68.060 620.240 M67.210 620.420 L53.680 620.260 L67.210 620.240 M68.060 619.200 L67.500 619.020 L68.060 619.200 L53.690 619.200 L67.210 619.020 L67.250 619.200 L67.510 617.360 L68.060 617.190 M67.220 617.360 L53.690 617.190 L67.220 617.360 L67.510 616.140 L68.060 615.960 M67.270 616.140 L53.690 615.960 L67.220 616.090 M68.060 614.310 L67.520 614.130 L68.060 614.310 L53.700 614.310 L67.220 614.130 M68.060 613.090 L67.520 613.080 L68.060 612.910 M67.300 613.090 L53.700 613.080 L67.230 612.910 L67.300 613.080 L67.300 613.090 L67.520 611.260 L68.060 611.080 M67.230 611.260 L53.710 611.080 L67.230 611.260 L67.500 610.030 L67.530 609.860 L68.060 610.030 L53.680 610.030 L53.710 609.860 L67.240 609.940 L67.330 610.030 L67.530 608.200 L68.060 608.020 M67.240 608.200 L53.710 608.020 L67.240 608.200 L67.480 606.980 L67.530 606.800 L68.060 606.980 L53.670 606.980 L53.720 606.800 L67.240 606.860 L67.360 606.980 L67.540 605.150 L68.060 604.970 M67.250 605.150 L53.720 604.970 L67.250 605.150 C67.980 604.260 67.910 604.210 67.830 604.160 C67.680 604.060 67.580 603.990 67.470 603.930 L67.470 603.930 C67.350 603.850 67.330 603.840 67.320 603.830 L67.320 603.860 L67.390 603.930 L53.720 603.860 L67.170 603.750 C66.800 603.540 66.780 603.530 66.760 603.520 L54.430 603.320 C54.780 603.150 54.790 603.140 54.810 603.140 C65.850 603.070 65.690 603.000 65.540 602.940 C65.290 602.830 65.120 602.770 64.940 602.700 C55.800 602.720 55.750 602.740 55.690 602.760 C57.730 602.130 58.890 601.950 60.050 601.920 C60.600 601.920 60.810 601.920 61.010 601.930 L58.230 602.090 C57.190 602.300 57.150 602.320 57.100 602.330 L64.410 602.530 C65.390 602.770 66.800 603.440 68.060 604.310 L53.320 603.930 L53.500 603.860 L53.570 603.930 C61.510 601.920 62.610 602.050 63.680 602.320 C73.800 621.590 73.840 630.720 73.840 630.720 C47.110 630.720 47.080 622.680 47.060 615.290 C56.460 602.340 58.430 601.920 60.400 601.920 L53.010 610.850 L68.060 610.650 M53.000 610.880 L68.070 610.650 L53.000 610.880 L68.060 629.360 C66.770 603.420 65.320 602.750 63.780 602.340 C54.150 603.430 53.570 603.750 53.010 604.130 L60.370 623.410 M40.820 595.790 L67.520 611.080 C67.420 610.950 67.380 610.770 67.230 610.960 L53.710 611.080 C53.600 610.950 53.560 610.770 53.420 610.960 L53.010 611.080 L68.060 610.880 M53.000 611.080 L68.070 610.850 L53.000 611.080 L68.060 629.360 C66.770 603.420 65.320 602.750 63.780 602.340 C54.150 603.430 53.570 603.750 53.010 604.130 L60.370 623.410 M40.820 595.790 L53.010 610.880 L68.060 610.850 M53.000 611.080 L68.070 610.850 L53.000 611.080 L68.060 629.360 C66.770 603.420 65.320 602.750 63.780 602.340 C54.150 603.430 53.570 603.750 53.010 604.130 L60.370 623.410 M40.820 595.790 L53.010 610.230 L53.510 610.030 L53.640 610.080 L67.330 610.030 L67.460 610.080 L68.060 610.030 M53.000 610.270 L68.070 610.030 L53.000 610.270 L68.060 629.360 C66.770 603.420 65.320 602.750 63.780 602.340 C54.150 603.430 53.570 603.750 53.010 604.130 L60.370 623.410 M40.820 595.790 L53.010 610.470 L68.060 610.270 M53.000 610.470 L68.070 610.230 L53.000 610.470 L68.060 629.360 C66.770 603.420 65.320 602.750 63.780 602.340 C54.150 603.430 53.570 603.750 53.010 604.130 L60.370 623.410 M40.820 595.790 L53.010 610.270 L68.060 610.230 M53.000 610.470 L68.070 610.230 L53.000 610.470 L68.060 629.360 C66.770 603.420 65.320 602.750 63.780 602.340 C54.150 603.430 53.570 603.750 53.010 604.130 L60.370 623.410 M40.820 595.790 L67.530 609.620 L67.460 609.420 L68.060 609.620 L53.710 609.620 L53.650 609.420 L67.240 609.620 L53.010 609.620 L53.420 609.420 M53.000 609.660 L68.070 609.420 L53.000 609.660 L68.060 629.360 C66.770 603.420 65.320 602.750 63.780 602.340 C54.150 603.430 53.570 603.750 53.010 604.130 L60.370 623.410 M40.820 595.790 L67.530 609.860 L68.060 609.660 M67.240 609.860 L53.710 609.660 L67.240 609.860 L53.010 609.860 L53.420 609.660 M53.000 609.860 L68.070 609.620 L53.000 609.860 L68.060 629.360 C66.770 603.420 65.320 602.750 63.780 602.340 C54.150 603.430 53.570 603.750 53.010 604.130 L60.370 623.410 M40.820 595.790 L67.530 609.660 L68.060 609.620 M67.240 609.660 L53.710 609.620 L67.240 609.660 L53.010 609.660 L53.420 609.620 M53.000 609.860 L68.070 609.620 L53.000 609.860 L68.060 629.360 C66.770 603.420 65.320 602.750 63.780 602.340 C54.150 603.430 53.570 603.750 53.010 604.130 L60.370 623.410 M40.820 595.790 L53.010 609.010 L68.060 608.810 M53.000 609.050 L68.070 608.810 L53.000 609.050 L68.060 629.360 C66.770 603.420 65.320 602.750 63.780 602.340 C54.150 603.430 53.570 603.750 53.010 604.130 L60.370 623.410 M40.820 595.790 L53.010 609.250 L68.060 609.050 M53.000 609.250 L68.070 609.010 L53.000 609.250 L68.060 629.360 C66.770 603.420 65.320 602.750 63.780 602.340 C54.150 603.430 53.570 603.750 53.010 604.130 L60.370 623.410 M40.820 595.790 L53.010 609.050 L68.060 609.010 M53.000 609.250 L68.070 609.010 L53.000 609.250 L68.060 629.360 C66.770 603.420 65.320 602.750 63.780 602.340 C54.150 603.430 53.570 603.750 53.010 604.130 L60.370 623.410 M40.820 595.790 L67.530 608.400 L68.060 608.200 M67.240 608.400 L53.710 608.200 L67.240 608.400 M53.420 608.400 L53.010 608.200 L53.420 608.400 M53.000 608.430 L68.070 608.200 L53.000 608.430 L68.060 629.360 C66.770 603.420 65.320 602.750 63.780 602.340 C54.150 603.430 53.570 603.750 53.010 604.130 L60.370 623.410 M40.820 595.790 L53.010 608.640 L53.460 608.430 L53.710 608.430 C67.370 608.520 67.400 608.640 67.530 608.470 L68.060 608.430 M53.000 608.640 L68.070 608.400 L53.000 608.640 L68.060 629.360 C66.770 603.420 65.320 602.750 63.780 602.340 C54.150 603.430 53.570 603.750 53.010 604.130 L60.370 623.410 M40.820 595.790 L67.530 608.430 L68.060 608.400 M67.270 608.430 L53.710 608.400 L67.270 608.430 L53.010 608.430 L53.420 608.400 M53.000 608.640 L68.070 608.400 L53.000 608.640 L68.060 629.360 C66.770 603.420 65.320 602.750 63.780 602.340 C54.150 603.430 53.570 603.750 53.010 604.130 L60.370 623.410 M40.820 595.790 L53.010 607.790 L68.060 607.590 M53.000 607.820 L68.070 607.590 L53.000 607.820 L68.060 629.360 C66.770 603.420 65.320 602.750 63.780 602.340 C54.150 603.430 53.570 603.750 53.010 604.130 L60.370 623.410 M40.820 595.790 L67.530 608.020 L67.460 607.880 L67.400 607.820 L68.060 608.020 L53.710 608.020 L53.640 607.880 L53.580 607.820 L67.240 607.880 M53.420 608.020 L53.010 607.820 L53.420 607.880 M53.000 608.020 L68.070 607.790 L53.000 608.020 L68.060 629.360 C66.770 603.420 65.320 602.750 63.780 602.340 C54.150 603.430 53.570 603.750 53.010 604.130 L60.370 623.410 M40.820 595.790 L67.400 607.820 L67.310 607.810 L53.580 607.820 L53.490 607.810 L53.010 607.820 L68.060 607.790 M53.000 608.020 L68.070 607.790 L53.000 608.020 L68.060 629.360 C66.770 603.420 65.320 602.750 63.780 602.340 C54.150 603.430 53.570 603.750 53.010 604.130 L60.370 623.410 M40.820 595.790 L53.010 607.180 L53.540 606.980 L53.650 607.000 L67.360 606.980 L67.460 607.000 L68.060 606.980 M53.000 607.210 L68.070 606.980 L53.000 607.210 L68.060 629.360 C66.770 603.420 65.320 602.750 63.780 602.340 C54.150 603.430 53.570 603.750 53.010 604.130 L60.370 623.410 M40.820 595.790 L53.010 607.410 L68.060 607.210 M53.000 607.410 L68.070 607.180 L53.000 607.410 L68.060 629.360 C66.770 603.420 65.320 602.750 63.780 602.340 C54.150 603.430 53.570 603.750 53.010 604.130 L60.370 623.410 M40.820 595.790 L53.010 607.210 L68.060 607.180 M53.000 607.410 L68.070 607.180 L53.000 607.410 L68.060 629.360 C66.770 603.420 65.320 602.750 63.780 602.340 C54.150 603.430 53.570 603.750 53.010 604.130 L60.370 623.410 M40.820 595.790 L67.530 606.570 L67.490 606.370 L68.060 606.570 L53.720 606.570 L53.670 606.370 L67.240 606.570 L53.010 606.570 L53.430 606.370 M53.000 606.600 L68.070 606.370 L53.000 606.600 L68.060 629.360 C66.770 603.420 65.320 602.750 63.780 602.340 C54.150 603.430 53.570 603.750 53.010 604.130 L60.370 623.410 M40.820 595.790 L67.530 606.800 L68.060 606.600 M67.240 606.800 L53.720 606.600 L67.240 606.800 L53.010 606.800 L53.430 606.600 M53.000 606.800 L68.070 606.570 L53.000 606.800 L68.060 629.360 C66.770 603.420 65.320 602.750 63.780 602.340 C54.150 603.430 53.570 603.750 53.010 604.130 L60.370 623.410 M40.820 595.790 L67.530 606.600 L68.060 606.570 M67.240 606.600 L53.720 606.570 L67.240 606.600 L53.010 606.600 L53.430 606.570 M53.000 606.800 L68.070 606.570 L53.000 606.800 L68.060 629.360 C66.770 603.420 65.320 602.750 63.780 602.340 C54.150 603.430 53.570 603.750 53.010 604.130 L60.370 623.410 M40.820 595.790 L53.010 605.960 L68.060 605.760 M53.000 605.990 L68.070 605.760 L53.000 605.990 L68.060 629.360 C66.770 603.420 65.320 602.750 63.780 602.340 C54.150 603.430 53.570 603.750 53.010 604.130 L60.370 623.410 M40.820 595.790 L53.010 606.190 L68.060 605.990 M53.000 606.190 L68.070 605.960 L53.000 606.190 L68.060 629.360 C66.770 603.420 65.320 602.750 63.780 602.340 C54.150 603.430 53.570 603.750 53.010 604.130 L60.370 623.410 M40.820 595.790 L53.010 605.990 L68.060 605.960 M53.000 606.190 L68.070 605.960 L53.000 606.190 L68.060 629.360 C66.770 603.420 65.320 602.750 63.780 602.340 C54.150 603.430 53.570 603.750 53.010 604.130 L60.370 623.410 M40.820 595.790 L67.540 605.350 L68.060 605.150 M67.270 605.350 L53.720 605.150 L67.250 605.320 M53.450 605.350 L53.010 605.150 L53.430 605.320 M53.000 605.380 L68.070 605.150 L53.000 605.380 L68.060 629.360 C66.770 603.420 65.320 602.750 63.780 602.340 C54.150 603.430 53.570 603.750 53.010 604.130 L60.370 623.410 M40.820 595.790 L53.010 605.580 L53.490 605.380 L53.500 605.400 L53.650 605.460 L53.720 605.380 L67.320 605.400 L67.390 605.460 L67.540 605.400 L68.060 605.380 M53.000 605.580 L68.070 605.350 L53.000 605.580 L68.060 629.360 C66.770 603.420 65.320 602.750 63.780 602.340 C54.150 603.430 53.570 603.750 53.010 604.130 L60.370 623.410 M40.820 595.790 L67.540 605.380 L68.060 605.350 M67.300 605.380 L53.720 605.350 L67.300 605.380 L53.010 605.380 L53.450 605.350 M53.000 605.580 L68.070 605.350 L53.000 605.580 L68.060 629.360 C66.770 603.420 65.320 602.750 63.780 602.340 C54.150 603.430 53.570 603.750 53.010 604.130 L60.370 623.410 M40.820 595.790 L67.400 604.740 L67.320 604.740 L53.580 604.740 L53.500 604.740 L53.010 604.740 L68.060 604.540 M53.000 604.770 L68.070 604.540 L53.000 604.770 L68.060 629.360 C66.770 603.420 65.320 602.750 63.780 602.340 C54.150 603.430 53.570 603.750 53.010 604.130 L60.370 623.410 M40.820 595.790 L67.540 604.970 L67.470 604.810 L67.430 604.770 L68.060 604.970 L53.720 604.970 L53.650 604.810 L53.620 604.770 L67.250 604.810 M53.430 604.970 L53.010 604.770 L53.430 604.810 M53.000 604.970 L68.070 604.740 L53.000 604.970 L68.060 629.360 C66.770 603.420 65.320 602.750 63.780 602.340 C54.150 603.430 53.570 603.750 53.010 604.130 L60.370 623.410 M40.820 595.790 L67.430 604.770 L68.060 604.740 M67.280 604.770 L53.580 604.740 L67.280 604.770 L53.010 604.770 L53.500 604.740 M53.000 604.970 L68.070 604.740 L53.000 604.970 L68.060 629.360 C66.770 603.420 65.320 602.750 63.780 602.340 C54.150 603.430 53.570 603.750 53.010 604.130 L60.370 623.410 M40.820 595.790 C53.310 603.930 53.320 603.930 53.320 603.930 C53.320 603.930 53.310 603.930 53.300 603.940 "/>
  <path style="fill:rgb(133,104,101);stroke:none;stroke-width:1.0;" d="M53.020 604.130 C53.110 604.060 53.210 604.000 53.300 603.940 C53.310 603.930 53.310 603.930 53.320 603.930 L53.320 603.930 C53.220 603.990 53.120 604.060 53.020 604.130 M53.000 604.160 L68.070 604.160 L68.070 603.930 L53.000 603.930 L53.000 604.160 M60.700 623.410 L68.060 629.360 L68.060 604.310 C66.770 603.420 65.320 602.750 63.780 602.340 C60.830 601.580 57.620 601.840 54.770 603.140 C54.150 603.430 53.570 603.750 53.010 604.130 L53.010 629.360 L60.370 623.410 L60.700 623.410 M40.820 595.790 M67.780 604.130 L53.020 604.130 C53.120 604.060 53.220 603.990 53.320 603.930 L53.570 603.930 L53.570 603.930 L53.650 603.930 L53.650 603.930 L67.390 603.930 L67.390 603.930 L67.470 603.930 L67.470 603.930 L67.470 603.930 C67.580 603.990 67.680 604.060 67.780 604.130 M53.000 604.160 L68.070 604.160 L68.070 603.930 L53.000 603.930 L53.000 604.160 M60.700 623.410 L68.060 629.360 L68.060 604.310 C66.770 603.420 65.320 602.750 63.780 602.340 C60.830 601.580 57.620 601.840 54.770 603.140 C54.150 603.430 53.570 603.750 53.010 604.130 L53.010 629.360 L60.370 623.410 L60.700 623.410 M40.820 595.790 M68.060 604.310 L68.060 604.310 C68.060 604.310 68.060 604.310 68.060 604.310 "/>
  <path style="fill:rgb(111,105,102);stroke:none;stroke-width:1.0;" d="M68.060 604.360 L53.010 604.360 L53.010 604.160 L67.830 604.160 C67.910 604.210 67.980 604.260 68.060 604.310 L68.060 604.310 L68.060 604.360 M53.000 604.360 L68.070 604.360 L68.070 604.130 L53.000 604.130 L53.000 604.360 M60.700 623.410 L68.060 629.360 L68.060 604.310 C66.770 603.420 65.320 602.750 63.780 602.340 C60.830 601.580 57.620 601.840 54.770 603.140 C54.150 603.430 53.570 603.750 53.010 604.130 L53.010 629.360 L60.370 623.410 L60.700 623.410 M40.820 595.790 M53.010 604.130 C53.010 604.130 53.010 604.130 53.020 604.130 C53.010 604.130 53.010 604.130 53.010 604.130 M53.000 604.360 L68.070 604.360 L68.070 604.130 L53.000 604.130 L53.000 604.360 M60.700 623.410 L68.060 629.360 L68.060 604.310 C66.770 603.420 65.320 602.750 63.780 602.340 C60.830 601.580 57.620 601.840 54.770 603.140 C54.150 603.430 53.570 603.750 53.010 604.130 L53.010 629.360 L60.370 623.410 L60.700 623.410 M40.820 595.790 M67.830 604.160 L53.010 604.160 L53.010 604.130 C53.010 604.130 53.010 604.130 53.010 604.130 C53.010 604.130 53.010 604.130 53.020 604.130 L67.780 604.130 C67.800 604.140 67.820 604.150 67.830 604.160 M53.000 604.360 L68.070 604.360 L68.070 604.130 L53.000 604.130 L53.000 604.360 M60.700 623.410 L68.060 629.360 L68.060 604.310 C66.770 603.420 65.320 602.750 63.780 602.340 C60.830 601.580 57.620 601.840 54.770 603.140 C54.150 603.430 53.570 603.750 53.010 604.130 L53.010 629.360 L60.370 623.410 L60.700 623.410 M40.820 595.790 M53.000 603.550 L68.070 603.550 L68.070 603.320 L53.000 603.320 L53.000 603.550 M60.700 623.410 L68.060 629.360 L68.060 604.310 C66.770 603.420 65.320 602.750 63.780 602.340 C60.830 601.580 57.620 601.840 54.770 603.140 C54.150 603.430 53.570 603.750 53.010 604.130 L53.010 629.360 L60.370 623.410 L60.700 623.410 M40.820 595.790 M54.030 603.520 L54.020 603.520 C54.150 603.450 54.280 603.380 54.410 603.320 L54.410 603.320 C54.280 603.380 54.150 603.450 54.030 603.520 "/>
  <path style="fill:rgb(133,104,101);stroke:none;stroke-width:1.0;" d="M54.040 603.520 L54.030 603.520 C54.150 603.450 54.280 603.380 54.410 603.320 L54.430 603.320 C54.300 603.380 54.170 603.450 54.040 603.520 M53.000 603.550 L68.070 603.550 L68.070 603.320 L53.000 603.320 L53.000 603.550 M60.700 623.410 L68.060 629.360 L68.060 604.310 C66.770 603.420 65.320 602.750 63.780 602.340 C60.830 601.580 57.620 601.840 54.770 603.140 C54.150 603.430 53.570 603.750 53.010 604.130 L53.010 629.360 L60.370 623.410 L60.700 623.410 M40.820 595.790 M66.760 603.520 L54.040 603.520 C54.170 603.450 54.300 603.380 54.430 603.320 L66.370 603.320 C66.500 603.380 66.630 603.450 66.760 603.520 M53.000 603.550 L68.070 603.550 L68.070 603.320 L53.000 603.320 L53.000 603.550 M60.700 623.410 L68.060 629.360 L68.060 604.310 C66.770 603.420 65.320 602.750 63.780 602.340 C60.830 601.580 57.620 601.840 54.770 603.140 C54.150 603.430 53.570 603.750 53.010 604.130 L53.010 629.360 L60.370 623.410 L60.700 623.410 M40.820 595.790 M53.000 603.750 L68.070 603.750 L68.070 603.520 L53.000 603.520 L53.000 603.750 M60.700 623.410 L68.060 629.360 L68.060 604.310 C66.770 603.420 65.320 602.750 63.780 602.340 C60.830 601.580 57.620 601.840 54.770 603.140 C54.150 603.430 53.570 603.750 53.010 604.130 L53.010 629.360 L60.370 623.410 L60.700 623.410 M40.820 595.790 M53.720 603.680 L53.720 603.680 C53.800 603.640 53.880 603.590 53.960 603.550 L53.970 603.550 C53.890 603.590 53.810 603.640 53.720 603.680 "/>
  <path style="fill:rgb(111,89,86);stroke:none;stroke-width:1.0;" d="M53.720 603.690 L53.720 603.680 C53.810 603.640 53.880 603.590 53.970 603.550 L53.980 603.550 C53.900 603.590 53.810 603.640 53.720 603.690 M53.000 603.750 L68.070 603.750 L68.070 603.520 L53.000 603.520 L53.000 603.750 M60.700 623.410 L68.060 629.360 L68.060 604.310 C66.770 603.420 65.320 602.750 63.780 602.340 C60.830 601.580 57.620 601.840 54.770 603.140 C54.150 603.430 53.570 603.750 53.010 604.130 L53.010 629.360 L60.370 623.410 L60.700 623.410 M40.820 595.790 M67.170 603.750 L53.720 603.750 L53.720 603.690 C53.810 603.640 53.900 603.590 53.980 603.550 L66.820 603.550 C66.940 603.610 67.060 603.680 67.170 603.750 M53.000 603.750 L68.070 603.750 L68.070 603.520 L53.000 603.520 L53.000 603.750 M60.700 623.410 L68.060 629.360 L68.060 604.310 C66.770 603.420 65.320 602.750 63.780 602.340 C60.830 601.580 57.620 601.840 54.770 603.140 C54.150 603.430 53.570 603.750 53.010 604.130 L53.010 629.360 L60.370 623.410 L60.700 623.410 M40.820 595.790 M53.970 603.550 L53.960 603.550 C53.980 603.540 54.000 603.530 54.020 603.520 L54.030 603.520 C54.010 603.530 53.990 603.540 53.970 603.550 "/>
  <path style="fill:rgb(133,104,101);stroke:none;stroke-width:1.0;" d="M53.980 603.550 L53.970 603.550 C53.990 603.540 54.010 603.530 54.030 603.520 L54.040 603.520 C54.020 603.530 54.000 603.540 53.980 603.550 M53.000 603.750 L68.070 603.750 L68.070 603.520 L53.000 603.520 L53.000 603.750 M60.700 623.410 L68.060 629.360 L68.060 604.310 C66.770 603.420 65.320 602.750 63.780 602.340 C60.830 601.580 57.620 601.840 54.770 603.140 C54.150 603.430 53.570 603.750 53.010 604.130 L53.010 629.360 L60.370 623.410 L60.700 623.410 M40.820 595.790 M66.820 603.550 L53.980 603.550 C54.000 603.540 54.020 603.530 54.040 603.520 L66.760 603.520 C66.780 603.530 66.800 603.540 66.820 603.550 M53.000 603.750 L68.070 603.750 L68.070 603.520 L53.000 603.520 L53.000 603.750 M60.700 623.410 L68.060 629.360 L68.060 604.310 C66.770 603.420 65.320 602.750 63.780 602.340 C60.830 601.580 57.620 601.840 54.770 603.140 C54.150 603.430 53.570 603.750 53.010 604.130 L53.010 629.360 L60.370 623.410 L60.700 623.410 M40.820 595.790 M55.330 602.900 L55.330 602.900 C55.450 602.850 55.570 602.810 55.690 602.760 C55.570 602.810 55.450 602.850 55.330 602.900 M53.000 602.940 L68.070 602.940 L68.070 602.700 L53.000 602.700 L53.000 602.940 M60.700 623.410 L68.060 629.360 L68.060 604.310 C66.770 603.420 65.320 602.750 63.780 602.340 C60.830 601.580 57.620 601.840 54.770 603.140 C54.150 603.430 53.570 603.750 53.010 604.130 L53.010 629.360 L60.370 623.410 L60.700 623.410 M40.820 595.790 M65.460 602.900 L55.330 602.900 C55.450 602.850 55.570 602.810 55.690 602.760 C55.750 602.740 55.800 602.720 55.850 602.700 L64.940 602.700 C65.120 602.770 65.290 602.830 65.460 602.900 M53.000 602.940 L68.070 602.940 L68.070 602.700 L53.000 602.700 L53.000 602.940 M60.700 623.410 L68.060 629.360 L68.060 604.310 C66.770 603.420 65.320 602.750 63.780 602.340 C60.830 601.580 57.620 601.840 54.770 603.140 C54.150 603.430 53.570 603.750 53.010 604.130 L53.010 629.360 L60.370 623.410 L60.700 623.410 M40.820 595.790 M54.780 603.140 L54.780 603.140 C54.790 603.140 54.790 603.130 54.790 603.130 C54.790 603.130 54.790 603.140 54.780 603.140 "/>
  <path style="fill:rgb(111,105,102);stroke:none;stroke-width:1.0;" d="M54.810 603.140 L54.780 603.140 C54.790 603.140 54.790 603.130 54.790 603.130 C54.940 603.060 55.090 603.000 55.240 602.940 L55.250 602.940 C55.100 603.000 54.950 603.070 54.810 603.140 M53.000 603.140 L68.070 603.140 L68.070 602.900 L53.000 602.900 L53.000 603.140 M60.700 623.410 L68.060 629.360 L68.060 604.310 C66.770 603.420 65.320 602.750 63.780 602.340 C60.830 601.580 57.620 601.840 54.770 603.140 C54.150 603.430 53.570 603.750 53.010 604.130 L53.010 629.360 L60.370 623.410 L60.700 623.410 M40.820 595.790 M66.000 603.140 L54.810 603.140 C54.950 603.070 55.100 603.000 55.250 602.940 L65.540 602.940 C65.690 603.000 65.850 603.070 66.000 603.140 M53.000 603.140 L68.070 603.140 L68.070 602.900 L53.000 602.900 L53.000 603.140 M60.700 623.410 L68.060 629.360 L68.060 604.310 C66.770 603.420 65.320 602.750 63.780 602.340 C60.830 601.580 57.620 601.840 54.770 603.140 C54.150 603.430 53.570 603.750 53.010 604.130 L53.010 629.360 L60.370 623.410 L60.700 623.410 M40.820 595.790 M55.250 602.940 L55.240 602.940 C55.270 602.930 55.300 602.910 55.330 602.900 L55.330 602.900 C55.310 602.910 55.280 602.930 55.250 602.940 M53.000 603.140 L68.070 603.140 L68.070 602.900 L53.000 602.900 L53.000 603.140 M60.700 623.410 L68.060 629.360 L68.060 604.310 C66.770 603.420 65.320 602.750 63.780 602.340 C60.830 601.580 57.620 601.840 54.770 603.140 C54.150 603.430 53.570 603.750 53.010 604.130 L53.010 629.360 L60.370 623.410 L60.700 623.410 M40.820 595.790 M65.540 602.940 L55.250 602.940 C55.280 602.930 55.310 602.910 55.330 602.900 L65.460 602.900 C65.490 602.910 65.510 602.930 65.540 602.940 M53.000 603.140 L68.070 603.140 L68.070 602.900 L53.000 602.900 L53.000 603.140 M60.700 623.410 L68.060 629.360 L68.060 604.310 C66.770 603.420 65.320 602.750 63.780 602.340 C60.830 601.580 57.620 601.840 54.770 603.140 C54.150 603.430 53.570 603.750 53.010 604.130 L53.010 629.360 L60.370 623.410 L60.700 623.410 M40.820 595.790 M53.000 602.330 L68.070 602.330 L68.070 602.090 L53.000 602.090 L53.000 602.330 M60.700 623.410 L68.060 629.360 L68.060 604.310 C66.770 603.420 65.320 602.750 63.780 602.340 C60.830 601.580 57.620 601.840 54.770 603.140 C54.150 603.430 53.570 603.750 53.010 604.130 L53.010 629.360 L60.370 623.410 L60.700 623.410 M40.820 595.790 M63.580 602.290 L63.570 602.290 C63.240 602.210 62.910 602.150 62.580 602.090 L62.600 602.090 C62.930 602.150 63.250 602.210 63.580 602.290 "/>
  <path style="fill:rgb(133,104,101);stroke:none;stroke-width:1.0;" d="M63.570 602.290 L57.240 602.290 C57.560 602.210 57.890 602.150 58.230 602.090 L62.580 602.090 C62.910 602.150 63.240 602.210 63.570 602.290 M53.000 602.330 L68.070 602.330 L68.070 602.090 L53.000 602.090 L53.000 602.330 M60.700 623.410 L68.060 629.360 L68.060 604.310 C66.770 603.420 65.320 602.750 63.780 602.340 C60.830 601.580 57.620 601.840 54.770 603.140 C54.150 603.430 53.570 603.750 53.010 604.130 L53.010 629.360 L60.370 623.410 L60.700 623.410 M40.820 595.790 M63.870 602.370 C63.820 602.350 63.760 602.340 63.710 602.330 L63.710 602.330 C63.730 602.330 63.750 602.340 63.770 602.340 C63.810 602.350 63.840 602.360 63.870 602.370 "/>
  <path style="fill:rgb(111,89,86);stroke:none;stroke-width:1.0;" d="M64.410 602.530 L56.390 602.530 C56.630 602.450 56.860 602.390 57.100 602.330 L63.710 602.330 C63.760 602.340 63.820 602.350 63.870 602.370 C64.050 602.420 64.230 602.470 64.410 602.530 M53.000 602.530 L68.070 602.530 L68.070 602.290 L53.000 602.290 L53.000 602.530 M60.700 623.410 L68.060 629.360 L68.060 604.310 C66.770 603.420 65.320 602.750 63.780 602.340 C60.830 601.580 57.620 601.840 54.770 603.140 C54.150 603.430 53.570 603.750 53.010 604.130 L53.010 629.360 L60.370 623.410 L60.700 623.410 M40.820 595.790 M63.710 602.330 L63.710 602.330 C63.700 602.320 63.690 602.320 63.680 602.320 C63.650 602.310 63.610 602.300 63.570 602.290 L63.580 602.290 C63.620 602.300 63.660 602.320 63.710 602.330 "/>
  <path style="fill:rgb(170,126,100);stroke:none;stroke-width:1.0;" d="M63.710 602.330 L68.070 602.290 C54.150 603.430 53.570 603.750 53.010 604.130 L68.060 611.260 L53.010 611.460 L53.000 611.490 L60.370 623.410 L53.490 611.550 L67.300 611.550 M53.000 611.690 C66.770 603.420 65.320 602.750 63.780 602.340 L67.520 611.490 L67.230 611.480 M53.000 611.690 C66.770 603.420 65.320 602.750 63.780 602.340 L53.010 612.070 L53.000 612.100 L60.370 623.410 M53.000 612.300 C66.770 603.420 65.320 602.750 63.780 602.340 L53.010 612.100 L53.000 612.300 L60.370 623.410 L68.060 612.480 L67.230 612.490 M53.000 612.710 C66.770 603.420 65.320 602.750 63.780 602.340 L67.520 612.910 L67.230 612.910 L68.070 612.680 C54.150 603.430 53.570 603.750 53.010 604.130 L68.060 612.680 L53.010 612.710 L53.000 612.910 L60.370 623.410 L53.630 613.150 M53.000 613.320 C66.770 603.420 65.320 602.750 63.780 602.340 L53.010 613.520 L53.000 613.520 L60.370 623.410 M53.000 613.520 C66.770 603.420 65.320 602.750 63.780 602.340 L53.010 613.900 L53.000 613.930 L60.370 623.410 L53.700 614.130 M53.000 614.130 C66.770 603.420 65.320 602.750 63.780 602.340 L53.010 613.930 L53.000 614.130 L60.370 623.410 M67.220 614.510 L53.410 614.310 L68.060 629.360 M40.820 595.790 L67.220 614.540 L68.070 614.510 C54.150 603.430 53.570 603.750 53.010 604.130 L68.060 614.510 L53.010 614.540 L53.000 614.740 L60.370 623.410 M53.000 615.150 C66.770 603.420 65.320 602.750 63.780 602.340 L53.010 615.350 L53.000 615.350 L60.370 623.410 M53.000 615.350 C66.770 603.420 65.320 602.750 63.780 602.340 L67.510 615.730 L53.690 615.730 M53.400 615.730 L68.070 615.530 C54.150 603.430 53.570 603.750 53.010 604.130 L68.060 615.770 L53.010 615.960 L53.000 615.960 L60.370 623.410 M67.220 615.770 L53.400 615.730 L68.060 629.360 M40.820 595.790 L53.690 616.160 L67.510 616.140 M60.700 623.410 L60.700 623.410 L68.070 616.580 C60.830 601.580 57.620 601.840 54.770 603.140 L53.010 616.340 M60.700 623.410 L60.700 623.410 L68.070 616.990 C60.830 601.580 57.620 601.840 54.770 603.140 L67.510 617.180 L53.400 617.110 L68.070 616.950 C54.150 603.430 53.570 603.750 53.010 604.130 L68.060 616.950 L68.060 629.360 M40.820 595.790 L53.690 617.360 M53.000 617.600 C66.770 603.420 65.320 602.750 63.780 602.340 L53.010 617.800 L53.690 617.600 L68.060 617.600 L68.060 629.360 M40.820 595.790 L53.690 617.570 M53.000 617.800 C66.770 603.420 65.320 602.750 63.780 602.340 L53.010 618.180 L53.000 618.210 L60.370 623.410 M53.000 618.410 C66.770 603.420 65.320 602.750 63.780 602.340 L53.010 618.210 L53.000 618.410 L60.370 623.410 L67.380 618.590 L67.270 618.590 L53.400 618.790 L68.060 604.310 M68.060 619.020 L67.210 618.820 L68.070 619.020 C60.830 601.580 57.620 601.840 54.770 603.140 L67.500 618.790 M53.400 618.820 L53.000 618.790 L53.010 629.360 C53.520 619.280 53.560 619.400 53.690 619.240 L68.070 619.430 C60.830 601.580 57.620 601.840 54.770 603.140 L53.010 619.430 M60.700 623.410 L60.700 623.410 L68.070 619.630 C60.830 601.580 57.620 601.840 54.770 603.140 L53.010 619.810 M60.700 623.410 L60.700 623.410 L67.210 620.240 L68.060 620.040 L68.060 629.360 M40.820 595.790 L68.070 620.010 C54.150 603.430 53.570 603.750 53.010 604.130 L68.060 620.420 L53.010 620.620 L53.000 620.650 L60.370 623.410 L53.460 620.770 L67.500 620.650 M60.700 623.410 L60.700 623.410 L53.680 620.650 L53.390 620.650 L68.060 604.310 M68.060 621.230 L53.000 621.030 L53.010 629.360 L68.060 621.460 L68.060 604.310 M68.060 621.270 L53.000 621.230 L53.010 629.360 L67.210 621.840 L68.060 621.840 L68.060 604.310 M68.060 622.070 L67.210 621.880 L68.070 622.070 C60.830 601.580 57.620 601.840 54.770 603.140 L67.500 621.840 M53.390 621.880 L53.000 621.840 L53.010 629.360 C53.500 622.330 53.540 622.490 53.680 622.310 L68.060 622.250 L68.060 629.360 M40.820 595.790 L68.070 622.450 C54.150 603.430 53.570 603.750 53.010 604.130 L68.060 622.450 L68.060 629.360 M40.820 595.790 L68.070 622.860 C54.150 603.430 53.570 603.750 53.010 604.130 L67.200 623.300 L53.010 623.100 M60.700 623.410 L60.700 623.410 L68.070 623.300 C60.830 601.580 57.620 601.840 54.770 603.140 L67.490 623.470 M60.700 623.410 L60.700 623.410 L68.070 623.710 C60.830 601.580 57.620 601.840 54.770 603.140 L53.680 623.470 M53.000 623.710 C66.770 603.420 65.320 602.750 63.780 602.340 L67.430 623.910 L53.000 623.670 L53.010 629.360 L67.200 623.780 L53.000 623.910 L60.370 623.410 L59.760 623.910 L53.510 623.910 L68.060 604.310 M68.060 623.710 L53.000 623.670 L53.010 629.360 L67.200 623.710 L68.060 604.310 M60.010 623.710 L53.390 623.670 L68.060 629.360 M40.820 595.790 L68.070 624.080 C54.150 603.430 53.570 603.750 53.010 604.130 L59.540 624.080 L68.060 629.360 M40.820 595.790 L68.070 624.280 C54.150 603.430 53.570 603.750 53.010 604.130 L59.250 624.320 L68.060 629.360 M40.820 595.790 L68.070 624.280 C54.150 603.430 53.570 603.750 53.010 604.130 L59.290 624.280 L68.060 629.360 M40.820 595.790 L67.200 624.900 L53.000 624.700 L53.010 629.360 L53.380 624.900 L53.000 624.700 L53.010 629.360 L68.060 625.130 L68.060 604.310 M67.200 625.130 L53.000 624.900 L53.010 629.360 L58.250 625.130 L68.070 624.900 C54.150 603.430 53.570 603.750 53.010 604.130 L68.060 624.900 L68.060 629.360 M40.820 595.790 L68.070 624.900 C54.150 603.430 53.570 603.750 53.010 604.130 L58.540 624.900 L68.070 625.130 C60.830 601.580 57.620 601.840 54.770 603.140 L63.040 625.310 L68.070 625.540 C60.830 601.580 57.620 601.840 54.770 603.140 L53.010 625.310 L58.030 625.310 L68.060 629.360 M40.820 595.790 L68.070 625.510 C54.150 603.430 53.570 603.750 53.010 604.130 L57.740 625.540 L68.060 629.360 M40.820 595.790 L68.070 625.510 C54.150 603.430 53.570 603.750 53.010 604.130 L57.780 625.510 L68.060 629.360 M40.820 595.790 L68.070 625.920 C54.150 603.430 53.570 603.750 53.010 604.130 L57.270 625.920 L68.060 629.360 M40.820 595.790 L67.200 626.350 L53.000 626.120 L53.010 629.360 L53.530 626.270 M53.000 626.350 C66.770 603.420 65.320 602.750 63.780 602.340 L64.090 626.150 L53.000 626.350 L60.370 623.410 M53.000 626.350 C66.770 603.420 65.320 602.750 63.780 602.340 L67.490 626.730 L53.000 626.760 L60.370 623.410 M53.000 626.760 C66.770 603.420 65.320 602.750 63.780 602.340 L53.670 626.730 L53.380 626.730 L68.060 604.310 M68.060 626.960 L68.070 626.730 C54.150 603.430 53.570 603.750 53.010 604.130 L67.190 626.760 L53.000 626.960 L60.370 623.410 L55.980 626.960 L53.490 626.960 L68.060 604.310 M68.060 626.760 L53.000 626.730 L53.010 629.360 L67.190 626.760 L68.060 604.310 M56.220 626.760 L53.380 626.730 L68.060 629.360 M40.820 595.790 L68.070 627.370 C60.830 601.580 57.620 601.840 54.770 603.140 L53.010 627.140 M60.700 623.410 L60.700 623.410 M53.000 627.570 C66.770 603.420 65.320 602.750 63.780 602.340 L53.010 627.570 L53.000 627.570 L60.370 623.410 M53.000 627.570 C66.770 603.420 65.320 602.750 63.780 602.340 L53.010 627.370 L53.000 627.570 L60.370 623.410 L67.410 627.870 L68.060 627.950 L68.060 604.310 M54.750 627.950 L53.380 627.870 L68.070 627.980 C60.830 601.580 57.620 601.840 54.770 603.140 L67.480 627.980 M60.700 623.410 L60.700 623.410 L68.070 628.180 C60.830 601.580 57.620 601.840 54.770 603.140 L53.670 627.980 M53.000 628.180 C66.770 603.420 65.320 602.750 63.780 602.340 L67.480 627.980 L53.000 628.180 L60.370 623.410 M53.000 628.180 C66.770 603.420 65.320 602.750 63.780 602.340 L53.670 627.980 L53.380 627.980 L68.060 604.310 M68.060 628.560 L68.060 628.560 L68.060 604.310 M53.990 628.560 L53.510 628.530 L68.070 628.360 C54.150 603.430 53.570 603.750 53.010 604.130 L68.060 628.590 L68.060 629.360 M40.820 595.790 L68.070 628.560 C54.150 603.430 53.570 603.750 53.010 604.130 L68.060 628.560 L68.060 629.360 M40.820 595.790 L68.070 628.560 C54.150 603.430 53.570 603.750 53.010 604.130 L68.060 628.970 L68.060 629.360 M40.820 595.790 L68.070 628.970 C54.150 603.430 53.570 603.750 53.010 604.130 L68.060 629.360 L68.060 604.310 M53.010 629.360 L53.000 629.400 L60.370 623.410 M53.000 629.400 C66.770 603.420 65.320 602.750 63.780 602.340 L53.010 629.210 L53.000 629.400 L60.370 623.410 M60.700 623.410 L60.700 623.410 M60.700 623.410 L60.700 623.410 L68.060 629.360 M40.820 595.790 L68.060 604.310 M53.600 628.530 L53.670 628.460 L53.010 629.360 L53.600 626.990 L68.060 629.360 M40.820 595.790 L68.060 629.360 M40.820 595.790 L68.060 604.310 M53.630 626.960 L53.630 626.960 L60.370 623.410 M60.700 623.410 L60.700 623.410 L68.060 629.360 M40.820 595.790 L68.060 629.360 M40.820 595.790 L68.060 604.310 M53.670 624.930 C66.770 603.420 65.320 602.750 63.780 602.340 L53.520 625.460 M60.700 623.410 L60.700 623.410 L53.610 623.470 C66.770 603.420 65.320 602.750 63.780 602.340 L53.610 623.300 C54.150 603.430 53.570 603.750 53.010 604.130 L53.680 623.470 L53.010 629.360 L53.610 623.780 C66.770 603.420 65.320 602.750 63.780 602.340 L53.610 623.710 C60.830 601.580 57.620 601.840 54.770 603.140 L53.610 622.240 C60.830 601.580 57.620 601.840 54.770 603.140 L53.610 621.720 C60.830 601.580 57.620 601.840 54.770 603.140 L53.610 621.880 C54.150 603.430 53.570 603.750 53.010 604.130 L53.680 621.840 L53.010 629.360 L53.600 622.250 C60.830 601.580 57.620 601.840 54.770 603.140 L53.610 620.240 C60.830 601.580 57.620 601.840 54.770 603.140 L53.610 620.180 L53.010 629.360 L53.680 620.620 L60.370 623.410 L53.610 620.650 C60.830 601.580 57.620 601.840 54.770 603.140 L53.610 620.620 C54.150 603.430 53.570 603.750 53.010 604.130 L53.620 619.020 C54.150 603.430 53.570 603.750 53.010 604.130 L53.690 618.720 L53.010 629.360 L53.690 619.020 L60.370 623.410 M60.700 623.410 L60.700 623.410 L53.690 619.240 L53.010 629.360 L53.690 617.360 L60.370 623.410 M60.700 623.410 L60.700 623.410 L68.060 629.360 M40.820 595.790 L53.690 617.700 L53.010 629.360 L53.690 617.600 L60.370 623.410 L53.690 616.140 L60.370 623.410 L53.690 615.730 L60.370 623.410 M60.700 623.410 L60.700 623.410 L68.060 629.360 M40.820 595.790 L53.630 616.230 L60.370 623.410 M60.700 623.410 L60.700 623.410 M60.700 623.410 L60.700 623.410 L68.060 629.360 M40.820 595.790 L53.700 614.620 L53.010 629.360 L53.700 614.540 L60.370 623.410 L53.630 612.910 C60.830 601.580 57.620 601.840 54.770 603.140 L53.630 612.500 C54.150 603.430 53.570 603.750 53.010 604.130 L53.700 612.710 L53.010 629.360 L53.700 612.710 L60.370 623.410 M60.700 623.410 L60.700 623.410 L68.060 629.360 M40.820 595.790 M60.700 623.410 L60.700 623.410 L68.060 629.360 M40.820 595.790 L53.700 611.550 L53.010 629.360 L53.710 611.460 L53.010 629.360 L53.640 609.940 L53.650 609.420 L60.370 623.410 M60.700 623.410 L60.700 623.410 M60.700 623.410 L60.700 623.410 L68.060 629.360 M40.820 595.790 L68.060 604.310 M53.710 608.200 C66.770 603.420 65.320 602.750 63.780 602.340 L53.640 608.400 C60.830 601.580 57.620 601.840 54.770 603.140 L53.490 608.470 L68.060 604.310 M53.710 608.430 C66.770 603.420 65.320 602.750 63.780 602.340 L53.640 608.020 L68.060 604.310 M53.670 606.980 L53.670 606.980 L68.060 604.310 M53.650 607.000 C66.770 603.420 65.320 602.750 63.780 602.340 L53.650 606.570 C66.770 603.420 65.320 602.750 63.780 602.340 L53.650 606.800 C60.830 601.580 57.620 601.840 54.770 603.140 L53.650 606.570 C54.150 603.430 53.570 603.750 53.010 604.130 L53.720 604.970 L53.010 629.360 L53.720 605.150 L53.010 629.360 L53.590 605.380 C60.830 601.580 57.620 601.840 54.770 603.140 L53.630 605.350 C54.150 603.430 53.570 603.750 53.010 604.130 L53.650 604.810 C54.150 603.430 53.570 603.750 53.010 604.130 L53.580 603.860 L68.060 604.310 M53.650 603.930 C66.770 603.420 65.320 602.750 63.780 602.340 L53.650 603.720 "/>
  <path style="fill:rgb(120,67,61);stroke:none;stroke-width:1.0;" d="M53.650 603.730 C53.700 603.700 53.680 603.710 53.650 603.730 C66.770 603.420 65.320 602.750 63.780 602.340 L60.370 623.410 L53.650 603.750 M60.700 623.410 C60.830 601.580 57.620 601.840 54.770 603.140 L60.700 623.410 L67.410 628.180 L68.060 629.360 C54.150 603.430 53.570 603.750 53.010 604.130 M40.820 595.790 L67.410 627.870 L68.060 629.360 C54.150 603.430 53.570 603.750 53.010 604.130 M40.820 595.790 L67.480 627.980 L68.060 604.310 L53.010 629.360 M67.480 627.980 L67.480 627.980 C66.770 603.420 65.320 602.750 63.780 602.340 L60.370 623.410 L67.330 628.530 L67.410 628.390 L67.410 628.530 C66.770 603.420 65.320 602.750 63.780 602.340 L60.370 623.410 L67.330 626.990 M67.490 626.530 L67.490 626.410 L68.060 604.310 L53.010 629.360 M67.430 626.350 L67.420 626.340 L68.060 604.310 L53.010 629.360 M67.490 626.730 L67.490 626.730 C66.770 603.420 65.320 602.750 63.780 602.340 L60.370 623.410 L67.300 626.960 L67.420 626.760 M60.700 623.410 C60.830 601.580 57.620 601.840 54.770 603.140 L60.700 623.410 L67.420 626.730 L68.060 629.360 C54.150 603.430 53.570 603.750 53.010 604.130 M40.820 595.790 L67.490 625.130 L68.060 604.310 L53.010 629.360 M67.490 624.900 L67.490 624.900 C66.770 603.420 65.320 602.750 63.780 602.340 L60.370 623.410 L67.420 625.130 M60.700 623.410 C60.830 601.580 57.620 601.840 54.770 603.140 L60.700 623.410 L67.420 624.900 L68.060 629.360 C54.150 603.430 53.570 603.750 53.010 604.130 M40.820 595.790 L67.350 625.390 L67.490 625.390 L68.060 604.310 L53.010 629.360 M67.420 623.920 L67.420 623.920 L67.460 623.300 L68.060 629.360 C54.150 603.430 53.570 603.750 53.010 604.130 M40.820 595.790 L67.420 623.260 L68.060 604.310 L53.010 629.360 M67.490 623.670 L67.490 623.670 C66.770 603.420 65.320 602.750 63.780 602.340 L60.370 623.410 L67.330 623.910 L67.420 623.710 M60.700 623.410 C60.830 601.580 57.620 601.840 54.770 603.140 L60.700 623.410 L67.420 623.670 L68.060 629.360 C54.150 603.430 53.570 603.750 53.010 604.130 M40.820 595.790 L67.430 622.070 L68.060 629.360 C54.150 603.430 53.570 603.750 53.010 604.130 M40.820 595.790 L67.430 621.720 L68.060 629.360 C54.150 603.430 53.570 603.750 53.010 604.130 M40.820 595.790 L67.500 621.880 L68.060 604.310 L53.010 629.360 M67.500 621.880 L67.500 621.880 C66.770 603.420 65.320 602.750 63.780 602.340 L60.370 623.410 L67.350 622.380 L67.500 622.250 L68.060 629.360 C54.150 603.430 53.570 603.750 53.010 604.130 M40.820 595.790 L67.490 620.240 L68.060 629.360 C54.150 603.430 53.570 603.750 53.010 604.130 M40.820 595.790 L67.490 620.240 C66.770 603.420 65.320 602.750 63.780 602.340 L60.370 623.410 L67.430 620.620 M60.700 623.410 C60.830 601.580 57.620 601.840 54.770 603.140 L60.700 623.410 L67.280 620.770 L67.500 620.650 L68.060 629.360 C54.150 603.430 53.570 603.750 53.010 604.130 M40.820 595.790 L67.500 620.620 L68.060 604.310 L53.010 629.360 M67.500 619.200 L67.500 619.020 L68.060 604.310 L53.010 629.360 M67.500 618.790 L67.500 618.720 L68.060 604.310 L53.010 629.360 M67.500 619.020 L67.500 619.020 C66.770 603.420 65.320 602.750 63.780 602.340 L60.370 623.410 L67.430 618.820 M60.700 623.410 C60.830 601.580 57.620 601.840 54.770 603.140 L60.700 623.410 L67.280 619.240 L67.500 619.240 L68.060 604.310 L53.010 629.360 M67.510 617.360 L67.510 617.360 C66.770 603.420 65.320 602.750 63.780 602.340 L60.370 623.410 L67.440 617.190 L67.510 617.190 C66.770 603.420 65.320 602.750 63.780 602.340 L60.370 623.410 L67.440 617.570 M60.700 623.410 C60.830 601.580 57.620 601.840 54.770 603.140 L60.700 623.410 L67.290 617.700 L67.510 617.600 L68.060 629.360 C54.150 603.430 53.570 603.750 53.010 604.130 M40.820 595.790 L67.510 617.570 L68.060 604.310 L53.010 629.360 M67.510 616.140 L67.510 615.960 L68.060 604.310 L53.010 629.360 M67.510 615.730 L67.510 615.640 L68.060 604.310 L53.010 629.360 M67.510 615.960 L67.510 615.960 C66.770 603.420 65.320 602.750 63.780 602.340 L60.370 623.410 L67.440 615.770 M60.700 623.410 C60.830 601.580 57.620 601.840 54.770 603.140 L60.700 623.410 L67.290 616.160 L67.510 616.160 L68.060 604.310 L53.010 629.360 M67.510 614.310 L67.510 614.310 C66.770 603.420 65.320 602.750 63.780 602.340 L60.370 623.410 L67.440 614.130 L67.520 614.130 C66.770 603.420 65.320 602.750 63.780 602.340 L60.370 623.410 L67.440 614.510 M60.700 623.410 C60.830 601.580 57.620 601.840 54.770 603.140 L60.700 623.410 L67.290 614.620 L67.510 614.540 L68.060 629.360 C54.150 603.430 53.570 603.750 53.010 604.130 M40.820 595.790 L67.510 614.510 L68.060 604.310 L53.010 629.360 M67.510 613.090 L67.450 613.020 L67.510 613.090 C66.770 603.420 65.320 602.750 63.780 602.340 L60.370 623.410 L67.450 612.680 M60.700 623.410 C60.830 601.580 57.620 601.840 54.770 603.140 L60.700 623.410 L67.450 612.710 L68.060 629.360 C54.150 603.430 53.570 603.750 53.010 604.130 M40.820 595.790 L67.520 612.680 L68.060 604.310 L53.010 629.360 M67.450 613.150 L67.450 613.150 C66.770 603.420 65.320 602.750 63.780 602.340 L60.370 623.410 L67.450 611.260 M60.700 623.410 C60.830 601.580 57.620 601.840 54.770 603.140 L60.700 623.410 L67.450 610.960 L67.520 611.080 C66.770 603.420 65.320 602.750 63.780 602.340 L60.370 623.410 L67.450 611.460 M60.700 623.410 C60.830 601.580 57.620 601.840 54.770 603.140 L60.700 623.410 L67.300 611.550 L67.520 611.490 L68.060 629.360 C54.150 603.430 53.570 603.750 53.010 604.130 M40.820 595.790 L67.450 611.460 L68.060 629.360 C54.150 603.430 53.570 603.750 53.010 604.130 M40.820 595.790 L67.390 610.010 L67.520 610.010 L67.460 609.420 L68.060 629.360 C54.150 603.430 53.570 603.750 53.010 604.130 M40.820 595.790 L67.500 610.030 L68.060 604.310 L53.010 629.360 M67.530 609.620 L67.530 609.490 L68.060 604.310 L53.010 629.360 M67.530 609.860 L67.530 609.860 C66.770 603.420 65.320 602.750 63.780 602.340 L60.370 623.410 L67.460 609.660 M60.700 623.410 C60.830 601.580 57.620 601.840 54.770 603.140 L60.700 623.410 L67.460 608.020 L68.060 629.360 C54.150 603.430 53.570 603.750 53.010 604.130 M40.820 595.790 L67.530 608.200 L68.060 604.310 L53.010 629.360 M67.460 608.540 L67.430 608.430 M60.700 623.410 C60.830 601.580 57.620 601.840 54.770 603.140 L60.700 623.410 L67.460 608.400 L68.060 629.360 C54.150 603.430 53.570 603.750 53.010 604.130 M40.820 595.790 L67.460 607.880 M60.700 623.410 C60.830 601.580 57.620 601.840 54.770 603.140 L60.700 623.410 L67.310 606.930 L67.530 606.800 L67.460 606.370 M60.700 623.410 C60.830 601.580 57.620 601.840 54.770 603.140 L60.700 623.410 L67.360 606.980 L68.060 629.360 C54.150 603.430 53.570 603.750 53.010 604.130 M40.820 595.790 L67.490 606.370 L68.060 629.360 C54.150 603.430 53.570 603.750 53.010 604.130 M40.820 595.790 L67.530 606.600 L68.060 604.310 L53.010 629.360 M67.530 606.600 L67.530 606.600 C66.770 603.420 65.320 602.750 63.780 602.340 L60.370 623.410 L67.470 605.150 M60.700 623.410 C60.830 601.580 57.620 601.840 54.770 603.140 L60.700 623.410 L67.470 605.330 M60.700 623.410 C60.830 601.580 57.620 601.840 54.770 603.140 L60.700 623.410 L67.320 605.400 L67.540 605.400 L68.060 604.310 L53.010 629.360 M67.540 605.380 L67.540 605.380 C66.770 603.420 65.320 602.750 63.780 602.340 L60.370 623.410 L67.470 604.970 L67.540 604.970 C66.770 603.420 65.320 602.750 63.780 602.340 L60.370 623.410 L67.390 603.930 L67.470 603.930 C66.770 603.420 65.320 602.750 63.780 602.340 L60.370 623.410 L67.390 603.930 M60.700 623.410 C60.830 601.580 57.620 601.840 54.770 603.140 L60.700 623.410 L53.380 628.180 L68.060 629.360 C54.150 603.430 53.570 603.750 53.010 604.130 M40.820 595.790 L53.450 627.800 L53.520 627.870 L68.060 629.360 C54.150 603.430 53.570 603.750 53.010 604.130 M40.820 595.790 L53.450 627.980 L68.060 604.310 L53.010 629.360 M53.450 627.980 L53.450 627.980 C66.770 603.420 65.320 602.750 63.780 602.340 L60.370 623.410 L53.440 628.460 L53.440 628.460 C66.770 603.420 65.320 602.750 63.780 602.340 L60.370 623.410 L53.440 628.360 M60.700 623.410 C60.830 601.580 57.620 601.840 54.770 603.140 L60.700 623.410 L53.450 627.940 M60.700 623.410 C60.830 601.580 57.620 601.840 54.770 603.140 L60.700 623.410 L53.450 627.980 L68.060 629.360 C54.150 603.430 53.570 603.750 53.010 604.130 M40.820 595.790 L53.600 627.950 L68.060 604.310 L53.010 629.360 M53.530 628.460 L53.600 628.390 L68.060 604.310 L53.010 629.360 M53.450 626.530 L53.450 626.400 L68.060 604.310 L53.010 629.360 M53.510 626.350 L53.530 626.270 M60.700 623.410 C60.830 601.580 57.620 601.840 54.770 603.140 L60.700 623.410 L53.380 626.530 L68.060 629.360 C54.150 603.430 53.570 603.750 53.010 604.130 M40.820 595.790 L53.380 626.760 L68.060 629.360 C54.150 603.430 53.570 603.750 53.010 604.130 M40.820 595.790 L53.450 626.730 L68.060 604.310 L53.010 629.360 M53.600 626.530 L53.600 626.350 L68.060 604.310 L53.010 629.360 M53.600 626.350 L53.600 626.340 L68.060 604.310 L53.010 629.360 M53.600 626.730 L53.600 626.730 C66.770 603.420 65.320 602.750 63.780 602.340 L60.370 623.410 L53.450 626.920 L53.530 626.920 C66.770 603.420 65.320 602.750 63.780 602.340 L60.370 623.410 L53.450 626.760 M60.700 623.410 C60.830 601.580 57.620 601.840 54.770 603.140 L60.700 623.410 L53.380 625.130 L68.060 629.360 C54.150 603.430 53.570 603.750 53.010 604.130 M40.820 595.790 L53.460 624.730 L53.460 624.870 L68.060 604.310 L53.010 629.360 M53.450 625.130 L53.450 625.130 C66.770 603.420 65.320 602.750 63.780 602.340 L60.370 623.410 L53.380 624.930 M60.700 623.410 C60.830 601.580 57.620 601.840 54.770 603.140 L60.700 623.410 L53.380 625.310 L68.060 629.360 C54.150 603.430 53.570 603.750 53.010 604.130 M40.820 595.790 L53.600 625.130 L68.060 604.310 L53.010 629.360 M53.600 624.900 L53.600 624.800 L68.060 604.310 L53.010 629.360 M53.600 625.130 L53.600 625.130 C66.770 603.420 65.320 602.750 63.780 602.340 L60.370 623.410 L53.460 624.930 M60.700 623.410 C60.830 601.580 57.620 601.840 54.770 603.140 L60.700 623.410 L53.450 625.310 M60.700 623.410 C60.830 601.580 57.620 601.840 54.770 603.140 L60.700 623.410 L53.390 623.300 M60.700 623.410 C60.830 601.580 57.620 601.840 54.770 603.140 L60.700 623.410 L53.390 623.260 L53.530 623.260 L68.060 604.310 L53.010 629.360 M53.460 623.670 L53.460 623.670 C66.770 603.420 65.320 602.750 63.780 602.340 L60.370 623.410 L53.460 623.850 L53.460 623.850 L68.060 604.310 L53.010 629.360 M53.460 623.710 L53.460 623.710 C66.770 603.420 65.320 602.750 63.780 602.340 L60.370 623.410 L53.460 623.470 L53.610 623.470 C66.770 603.420 65.320 602.750 63.780 602.340 L60.370 623.410 L53.490 623.300 M60.700 623.410 C60.830 601.580 57.620 601.840 54.770 603.140 L60.700 623.410 L53.460 623.470 L68.060 629.360 C54.150 603.430 53.570 603.750 53.010 604.130 M40.820 595.790 L53.460 623.710 M60.700 623.410 C60.830 601.580 57.620 601.840 54.770 603.140 L60.700 623.410 L53.460 623.670 L68.060 629.360 C54.150 603.430 53.570 603.750 53.010 604.130 M40.820 595.790 L53.390 622.070 L68.060 629.360 C54.150 603.430 53.570 603.750 53.010 604.130 M40.820 595.790 L53.460 621.650 L53.460 621.790 L68.060 604.310 L53.010 629.360 M53.460 622.070 L53.460 622.070 C66.770 603.420 65.320 602.750 63.780 602.340 L60.370 623.410 L53.390 621.880 M60.700 623.410 C60.830 601.580 57.620 601.840 54.770 603.140 L60.700 623.410 L53.400 622.250 L68.060 629.360 C54.150 603.430 53.570 603.750 53.010 604.130 M40.820 595.790 L53.610 622.070 L68.060 629.360 C54.150 603.430 53.570 603.750 53.010 604.130 M40.820 595.790 L53.530 621.720 L68.060 629.360 C54.150 603.430 53.570 603.750 53.010 604.130 M40.820 595.790 L53.610 621.880 L68.060 604.310 L53.010 629.360 M53.610 621.880 L53.610 621.880 C66.770 603.420 65.320 602.750 63.780 602.340 L60.370 623.410 L53.460 622.310 M60.700 623.410 C60.830 601.580 57.620 601.840 54.770 603.140 L60.700 623.410 L53.390 620.240 M60.700 623.410 C60.830 601.580 57.620 601.840 54.770 603.140 L60.700 623.410 L53.390 620.180 L53.530 620.180 L68.060 604.310 L53.010 629.360 M53.460 620.620 L53.460 620.620 C66.770 603.420 65.320 602.750 63.780 602.340 L60.370 623.410 L53.390 620.700 M60.700 623.410 C60.830 601.580 57.620 601.840 54.770 603.140 L60.700 623.410 L53.390 620.620 L68.060 629.360 C54.150 603.430 53.570 603.750 53.010 604.130 M40.820 595.790 L53.480 620.240 L68.060 629.360 C54.150 603.430 53.570 603.750 53.010 604.130 M40.820 595.790 L53.610 620.180 L68.060 604.310 L53.010 629.360 M53.610 620.620 L53.610 620.620 C66.770 603.420 65.320 602.750 63.780 602.340 L60.370 623.410 L53.460 620.770 L53.540 620.770 C66.770 603.420 65.320 602.750 63.780 602.340 L60.370 623.410 L53.460 620.650 M60.700 623.410 C60.830 601.580 57.620 601.840 54.770 603.140 L60.700 623.410 L53.400 619.170 M53.560 618.590 L53.560 618.590 C66.770 603.420 65.320 602.750 63.780 602.340 L60.370 623.410 L53.400 618.790 L53.620 618.650 M60.700 623.410 C60.830 601.580 57.620 601.840 54.770 603.140 L60.700 623.410 L53.400 618.820 L68.060 629.360 C54.150 603.430 53.570 603.750 53.010 604.130 M40.820 595.790 L53.470 618.790 L68.060 604.310 L53.010 629.360 M53.470 619.240 L53.470 619.230 L68.060 604.310 L53.010 629.360 M53.580 619.200 L53.620 619.170 L68.060 604.310 L53.010 629.360 M53.620 618.790 L53.620 618.650 L68.060 604.310 L53.010 629.360 M53.620 619.020 L53.620 619.020 C66.770 603.420 65.320 602.750 63.780 602.340 L60.370 623.410 L53.470 618.820 M60.700 623.410 C60.830 601.580 57.620 601.840 54.770 603.140 L60.700 623.410 L53.470 619.230 M60.700 623.410 C60.830 601.580 57.620 601.840 54.770 603.140 L60.700 623.410 L53.400 617.190 L68.060 629.360 C54.150 603.430 53.570 603.750 53.010 604.130 M40.820 595.790 L53.470 617.040 L53.470 617.180 L68.060 604.310 L53.010 629.360 M53.470 617.570 L53.470 617.570 C66.770 603.420 65.320 602.750 63.780 602.340 L60.370 623.410 L53.400 617.630 M60.700 623.410 C60.830 601.580 57.620 601.840 54.770 603.140 L60.700 623.410 L53.400 617.570 L68.060 629.360 C54.150 603.430 53.570 603.750 53.010 604.130 M40.820 595.790 L53.620 617.190 L68.060 604.310 L53.010 629.360 M53.620 617.190 L53.620 617.110 L68.060 604.310 L53.010 629.360 M53.620 617.570 L53.620 617.570 C66.770 603.420 65.320 602.750 63.780 602.340 L60.370 623.410 L53.470 617.700 L53.550 617.700 C66.770 603.420 65.320 602.750 63.780 602.340 L60.370 623.410 L53.470 617.600 M60.700 623.410 C60.830 601.580 57.620 601.840 54.770 603.140 L60.700 623.410 L53.400 616.090 M53.590 615.530 L53.590 615.530 C66.770 603.420 65.320 602.750 63.780 602.340 L60.370 623.410 L53.400 615.730 L53.630 615.570 M60.700 623.410 C60.830 601.580 57.620 601.840 54.770 603.140 L60.700 623.410 L53.400 615.770 L68.060 629.360 C54.150 603.430 53.570 603.750 53.010 604.130 M40.820 595.790 L53.470 615.730 L68.060 604.310 L53.010 629.360 M53.470 616.160 M60.700 623.410 C60.830 601.580 57.620 601.840 54.770 603.140 L60.700 623.410 L53.470 615.960 M60.700 623.410 C60.830 601.580 57.620 601.840 54.770 603.140 L60.700 623.410 L53.470 615.640 M60.700 623.410 C60.830 601.580 57.620 601.840 54.770 603.140 L60.700 623.410 L53.470 615.770 L68.060 629.360 C54.150 603.430 53.570 603.750 53.010 604.130 M40.820 595.790 L53.630 615.730 L68.060 604.310 L53.010 629.360 M53.560 616.160 L53.560 616.160 C66.770 603.420 65.320 602.750 63.780 602.340 L60.370 623.410 L53.410 614.310 M60.700 623.410 C60.830 601.580 57.620 601.840 54.770 603.140 L60.700 623.410 L53.410 614.030 L53.550 614.030 L68.060 629.360 C54.150 603.430 53.570 603.750 53.010 604.130 M40.820 595.790 L53.480 614.310 L68.060 604.310 L53.010 629.360 M53.480 614.620 L53.480 614.540 L68.060 629.360 C54.150 603.430 53.570 603.750 53.010 604.130 M40.820 595.790 L53.480 614.510 L68.060 604.310 L53.010 629.360 M53.630 614.310 L53.630 614.310 C66.770 603.420 65.320 602.750 63.780 602.340 L60.370 623.410 L53.480 614.130 L53.630 614.130 C66.770 603.420 65.320 602.750 63.780 602.340 L60.370 623.410 L53.480 614.510 M60.700 623.410 C60.830 601.580 57.620 601.840 54.770 603.140 L60.700 623.410 L53.480 614.620 L53.560 614.620 C66.770 603.420 65.320 602.750 63.780 602.340 L60.370 623.410 L53.480 614.540 M60.700 623.410 C60.830 601.580 57.620 601.840 54.770 603.140 L60.700 623.410 L53.410 613.010 M53.620 612.480 L53.620 612.480 C66.770 603.420 65.320 602.750 63.780 602.340 L60.370 623.410 L53.410 612.680 L53.630 612.500 M60.700 623.410 C60.830 601.580 57.620 601.840 54.770 603.140 L60.700 623.410 L53.410 612.710 L68.060 629.360 C54.150 603.430 53.570 603.750 53.010 604.130 M40.820 595.790 L53.480 612.680 L68.060 604.310 L53.010 629.360 M53.560 613.080 L53.630 613.020 L68.060 604.310 L53.010 629.360 M53.630 612.680 L53.630 612.500 L68.060 604.310 L53.010 629.360 M53.630 612.910 L53.630 612.910 C66.770 603.420 65.320 602.750 63.780 602.340 L60.370 623.410 L53.480 612.710 M60.700 623.410 C60.830 601.580 57.620 601.840 54.770 603.140 L60.700 623.410 L53.420 611.080 L68.060 629.360 C54.150 603.430 53.570 603.750 53.010 604.130 M40.820 595.790 L53.490 610.890 L53.490 611.030 L68.060 604.310 L53.010 629.360 M53.490 611.460 L53.490 611.460 C66.770 603.420 65.320 602.750 63.780 602.340 L60.370 623.410 L53.490 611.550 M60.700 623.410 C60.830 601.580 57.620 601.840 54.770 603.140 L60.700 623.410 L53.420 611.480 M60.700 623.410 C60.830 601.580 57.620 601.840 54.770 603.140 L60.700 623.410 L53.490 611.080 L68.060 629.360 C54.150 603.430 53.570 603.750 53.010 604.130 M40.820 595.790 L53.560 610.960 M60.700 623.410 C60.830 601.580 57.620 601.840 54.770 603.140 L60.700 623.410 L53.490 611.260 L68.060 629.360 C54.150 603.430 53.570 603.750 53.010 604.130 M40.820 595.790 L53.620 611.490 L68.060 604.310 L53.010 629.360 M53.620 611.490 L53.630 611.480 L68.060 604.310 L53.010 629.360 M53.490 610.010 L53.490 609.860 L53.420 609.420 L53.560 609.420 L68.060 604.310 L53.010 629.360 M53.490 609.620 L53.490 609.490 L68.060 604.310 L53.010 629.360 M53.490 609.860 L53.490 609.860 C66.770 603.420 65.320 602.750 63.780 602.340 L60.370 623.410 L53.420 609.660 M60.700 623.410 C60.830 601.580 57.620 601.840 54.770 603.140 L60.700 623.410 L53.490 609.860 M53.640 609.420 L53.640 609.420 C66.770 603.420 65.320 602.750 63.780 602.340 L60.370 623.410 L53.490 609.620 L53.640 609.620 C66.770 603.420 65.320 602.750 63.780 602.340 L60.370 623.410 L53.490 609.860 M60.700 623.410 C60.830 601.580 57.620 601.840 54.770 603.140 L60.700 623.410 L53.490 609.620 L68.060 629.360 C54.150 603.430 53.570 603.750 53.010 604.130 M40.820 595.790 L53.490 608.020 L68.060 604.310 L53.010 629.360 M53.490 608.400 L53.490 608.200 L68.060 604.310 L53.010 629.360 M53.490 608.470 L53.490 608.470 L68.060 604.310 L53.010 629.360 M53.490 608.430 L53.490 608.430 C66.770 603.420 65.320 602.750 63.780 602.340 L60.370 623.410 L53.420 608.020 L53.640 607.880 M60.700 623.410 C60.830 601.580 57.620 601.840 54.770 603.140 L60.700 623.410 L53.490 607.810 L68.060 629.360 C54.150 603.430 53.570 603.750 53.010 604.130 M40.820 595.790 L53.640 608.020 L68.060 604.310 L53.010 629.360 M53.640 608.400 L53.640 608.400 C66.770 603.420 65.320 602.750 63.780 602.340 L60.370 623.410 L53.490 608.470 L53.570 608.470 C66.770 603.420 65.320 602.750 63.780 602.340 L60.370 623.410 L53.490 608.430 M60.700 623.410 C60.830 601.580 57.620 601.840 54.770 603.140 L60.700 623.410 L53.490 607.950 L53.640 608.020 C66.770 603.420 65.320 602.750 63.780 602.340 L60.370 623.410 L53.430 606.860 M53.540 606.370 L53.580 606.270 M60.700 623.410 C60.830 601.580 57.620 601.840 54.770 603.140 L60.700 623.410 L53.430 606.370 M60.700 623.410 C60.830 601.580 57.620 601.840 54.770 603.140 L60.700 623.410 L53.430 606.600 L68.060 629.360 C54.150 603.430 53.570 603.750 53.010 604.130 M40.820 595.790 L53.500 606.570 L68.060 604.310 L53.010 629.360 M53.580 606.930 L53.650 606.860 L53.570 606.340 L68.060 629.360 C54.150 603.430 53.570 603.750 53.010 604.130 M40.820 595.790 L53.540 606.370 L68.060 629.360 C54.150 603.430 53.570 603.750 53.010 604.130 M40.820 595.790 L53.650 606.600 L68.060 604.310 L53.010 629.360 M53.650 606.600 L53.650 606.600 C66.770 603.420 65.320 602.750 63.780 602.340 L60.370 623.410 L53.430 605.150 M60.700 623.410 C60.830 601.580 57.620 601.840 54.770 603.140 L60.700 623.410 L53.430 605.320 M60.700 623.410 C60.830 601.580 57.620 601.840 54.770 603.140 L60.700 623.410 L53.490 605.380 L68.060 629.360 C54.150 603.430 53.570 603.750 53.010 604.130 M40.820 595.790 L53.500 605.350 L68.060 604.310 L53.010 629.360 M53.580 604.740 L53.580 604.740 C66.770 603.420 65.320 602.750 63.780 602.340 L60.370 623.410 L53.430 604.970 L53.650 604.810 M60.700 623.410 C60.830 601.580 57.620 601.840 54.770 603.140 L60.700 623.410 L53.500 604.740 L68.060 629.360 C54.150 603.430 53.570 603.750 53.010 604.130 M40.820 595.790 L53.650 604.970 L68.060 604.310 L53.010 629.360 M53.630 605.350 L53.650 605.330 L68.060 604.310 L53.010 629.360 M53.580 605.400 L53.580 605.400 C66.770 603.420 65.320 602.750 63.780 602.340 L60.370 623.410 L53.500 605.380 M60.700 623.410 C60.830 601.580 57.620 601.840 54.770 603.140 L60.700 623.410 L53.500 604.880 M60.700 623.410 C60.830 601.580 57.620 601.840 54.770 603.140 L60.700 623.410 C53.480 603.820 53.490 603.820 53.500 603.810 "/>
  <path style="fill:rgb(128,67,59);stroke:none;stroke-width:1.0;" d="M53.480 603.830 L53.480 603.830 C53.490 603.820 53.490 603.820 53.500 603.810 L53.500 603.820 C53.490 603.820 53.490 603.830 53.480 603.830 M60.700 623.410 L68.060 629.360 L68.060 604.310 C66.770 603.420 65.320 602.750 63.780 602.340 C60.830 601.580 57.620 601.840 54.770 603.140 C54.150 603.430 53.570 603.750 53.010 604.130 L53.010 629.360 L60.370 623.410 L60.700 623.410 M40.820 595.790 M53.500 603.860 L53.500 603.860 L53.480 603.830 C53.490 603.830 53.490 603.820 53.500 603.820 L53.500 603.860 M60.700 623.410 L68.060 629.360 L68.060 604.310 C66.770 603.420 65.320 602.750 63.780 602.340 C60.830 601.580 57.620 601.840 54.770 603.140 C54.150 603.430 53.570 603.750 53.010 604.130 L53.010 629.360 L60.370 623.410 L60.700 623.410 M40.820 595.790 M60.700 623.410 L68.060 629.360 L68.060 604.310 C66.770 603.420 65.320 602.750 63.780 602.340 C60.830 601.580 57.620 601.840 54.770 603.140 C54.150 603.430 53.570 603.750 53.010 604.130 L53.010 629.360 L60.370 623.410 L60.700 623.410 M40.820 595.790 M53.500 603.810 L53.500 603.810 C53.540 603.790 53.580 603.770 53.610 603.750 L53.620 603.750 C53.580 603.770 53.540 603.790 53.500 603.810 "/>
  <path style="fill:rgb(127,66,56);stroke:none;stroke-width:1.0;" d="M53.500 603.820 L53.500 603.810 C53.540 603.790 53.580 603.770 53.620 603.750 L53.620 603.750 C53.580 603.770 53.540 603.790 53.500 603.820 M60.700 623.410 L68.060 629.360 L68.060 604.310 C66.770 603.420 65.320 602.750 63.780 602.340 C60.830 601.580 57.620 601.840 54.770 603.140 C54.150 603.430 53.570 603.750 53.010 604.130 L53.010 629.360 L60.370 623.410 L60.700 623.410 M40.820 595.790 M53.580 603.860 L53.500 603.860 L53.500 603.820 C53.540 603.790 53.580 603.770 53.620 603.750 L53.650 603.750 L53.650 603.790 L53.580 603.860 M60.700 623.410 L68.060 629.360 L68.060 604.310 C66.770 603.420 65.320 602.750 63.780 602.340 C60.830 601.580 57.620 601.840 54.770 603.140 C54.150 603.430 53.570 603.750 53.010 604.130 L53.010 629.360 L60.370 623.410 L60.700 623.410 M40.820 595.790 M53.620 603.750 L53.610 603.750 C53.630 603.740 53.640 603.730 53.650 603.720 L53.650 603.720 C53.640 603.730 53.630 603.740 53.620 603.750 "/>
  <path style="fill:rgb(23,22,21);stroke:none;stroke-width:1.0;" d="M53.620 603.750 C53.640 603.730 53.630 603.740 53.620 603.750 C66.770 603.420 65.320 602.750 63.780 602.340 L60.370 623.410 L53.620 603.750 L68.060 629.360 C54.150 603.430 53.570 603.750 53.010 604.130 M40.820 595.790 L67.260 628.180 L68.060 604.310 L53.010 629.360 M67.260 627.950 L67.340 627.800 L67.260 627.940 L68.060 604.310 L53.010 629.360 M67.260 628.180 L67.260 628.180 C66.770 603.420 65.320 602.750 63.780 602.340 L60.370 623.410 L67.190 627.980 M60.700 623.410 C60.830 601.580 57.620 601.840 54.770 603.140 L60.700 623.410 L67.190 628.360 L68.060 629.360 C54.150 603.430 53.570 603.750 53.010 604.130 M40.820 595.790 L67.320 626.350 L68.060 629.360 C54.150 603.430 53.570 603.750 53.010 604.130 M40.820 595.790 L67.270 626.270 L67.320 626.350 C66.770 603.420 65.320 602.750 63.780 602.340 L60.370 623.410 L67.200 626.730 M60.700 623.410 C60.830 601.580 57.620 601.840 54.770 603.140 L60.700 623.410 L67.190 626.760 L68.060 629.360 C54.150 603.430 53.570 603.750 53.010 604.130 M40.820 595.790 L67.270 626.730 L68.060 604.310 L53.010 629.360 M67.270 625.310 L67.270 625.310 C66.770 603.420 65.320 602.750 63.780 602.340 L60.370 623.410 L67.200 624.900 L67.420 624.800 M60.700 623.410 C60.830 601.580 57.620 601.840 54.770 603.140 L60.700 623.410 L67.200 624.930 L68.060 629.360 C54.150 603.430 53.570 603.750 53.010 604.130 M40.820 595.790 L67.270 624.900 L68.060 604.310 L53.010 629.360 M67.270 625.390 L67.270 625.310 L68.060 604.310 L53.010 629.360 M67.270 623.470 L67.270 623.330 L68.060 604.310 L53.010 629.360 M67.310 623.300 L67.350 623.190 M60.700 623.410 C60.830 601.580 57.620 601.840 54.770 603.140 L60.700 623.410 L67.200 623.470 L68.060 629.360 C54.150 603.430 53.570 603.750 53.010 604.130 M40.820 595.790 L67.200 623.710 M60.700 623.410 C60.830 601.580 57.620 601.840 54.770 603.140 L60.700 623.410 L67.200 623.670 L68.060 629.360 C54.150 603.430 53.570 603.750 53.010 604.130 M40.820 595.790 L67.210 622.070 L68.060 629.360 C54.150 603.430 53.570 603.750 53.010 604.130 M40.820 595.790 L67.280 621.650 L67.280 621.790 L68.060 604.310 L53.010 629.360 M67.280 622.070 L67.280 622.070 C66.770 603.420 65.320 602.750 63.780 602.340 L60.370 623.410 L67.210 621.880 M60.700 623.410 C60.830 601.580 57.620 601.840 54.770 603.140 L60.700 623.410 L67.280 622.250 L68.060 604.310 L53.010 629.360 M67.280 620.420 L67.280 620.260 L68.060 604.310 L53.010 629.360 M67.290 620.240 L67.360 620.110 M60.700 623.410 C60.830 601.580 57.620 601.840 54.770 603.140 L60.700 623.410 L67.210 620.420 L68.060 629.360 C54.150 603.430 53.570 603.750 53.010 604.130 M40.820 595.790 L67.210 620.650 L68.060 629.360 C54.150 603.430 53.570 603.750 53.010 604.130 M40.820 595.790 L67.280 620.620 L68.060 604.310 L53.010 629.360 M67.280 619.200 L67.280 619.020 L67.280 618.580 L68.060 629.360 C54.150 603.430 53.570 603.750 53.010 604.130 M40.820 595.790 L67.270 618.590 L67.280 618.720 L68.060 604.310 L53.010 629.360 M67.280 619.020 L67.280 619.020 C66.770 603.420 65.320 602.750 63.780 602.340 L60.370 623.410 L67.210 618.820 M60.700 623.410 C60.830 601.580 57.620 601.840 54.770 603.140 L60.700 623.410 L67.250 619.200 M60.700 623.410 C60.830 601.580 57.620 601.840 54.770 603.140 L60.700 623.410 L67.220 617.190 L68.060 629.360 C54.150 603.430 53.570 603.750 53.010 604.130 M40.820 595.790 L67.290 617.040 L67.290 617.180 L68.060 604.310 L53.010 629.360 M67.290 617.570 L67.290 617.570 C66.770 603.420 65.320 602.750 63.780 602.340 L60.370 623.410 L67.220 617.630 M60.700 623.410 C60.830 601.580 57.620 601.840 54.770 603.140 L60.700 623.410 L67.220 617.570 L68.060 629.360 C54.150 603.430 53.570 603.750 53.010 604.130 M40.820 595.790 L67.220 615.960 L67.260 615.530 M60.700 623.410 C60.830 601.580 57.620 601.840 54.770 603.140 L60.700 623.410 L67.220 615.570 L67.360 615.570 L68.060 629.360 C54.150 603.430 53.570 603.750 53.010 604.130 M40.820 595.790 L67.290 615.770 L68.060 604.310 L53.010 629.360 M67.290 615.770 L67.290 615.770 C66.770 603.420 65.320 602.750 63.780 602.340 L60.370 623.410 L67.290 616.160 M60.700 623.410 C60.830 601.580 57.620 601.840 54.770 603.140 L60.700 623.410 L67.220 614.130 L68.060 629.360 C54.150 603.430 53.570 603.750 53.010 604.130 M40.820 595.790 L67.300 613.960 L67.290 614.100 L68.060 604.310 L53.010 629.360 M67.290 614.510 L67.290 614.510 C66.770 603.420 65.320 602.750 63.780 602.340 L60.370 623.410 L67.290 614.620 L67.290 614.620 L68.060 604.310 L53.010 629.360 M67.290 614.540 L67.290 614.540 C66.770 603.420 65.320 602.750 63.780 602.340 L60.370 623.410 L67.300 613.080 L67.300 613.080 L67.380 612.430 L68.060 604.310 L53.010 629.360 M67.300 612.680 L67.430 612.480 L67.300 612.680 C66.770 603.420 65.320 602.750 63.780 602.340 L60.370 623.410 L67.230 612.910 M60.700 623.410 C60.830 601.580 57.620 601.840 54.770 603.140 L60.700 623.410 L67.230 612.680 L68.060 629.360 C54.150 603.430 53.570 603.750 53.010 604.130 M40.820 595.790 L67.300 611.080 L68.060 604.310 L53.010 629.360 M67.300 611.080 L67.380 610.890 L67.300 611.080 C66.770 603.420 65.320 602.750 63.780 602.340 L60.370 623.410 L67.230 611.460 M60.700 623.410 C60.830 601.580 57.620 601.840 54.770 603.140 L60.700 623.410 L67.240 611.490 L68.060 629.360 C54.150 603.430 53.570 603.750 53.010 604.130 M40.820 595.790 L67.230 611.460 L68.060 629.360 C54.150 603.430 53.570 603.750 53.010 604.130 M40.820 595.790 L67.310 609.860 L67.240 609.420 L67.380 609.420 L68.060 604.310 L53.010 629.360 M67.310 609.620 L67.310 609.490 L68.060 604.310 L53.010 629.360 M67.310 609.860 L67.310 609.860 C66.770 603.420 65.320 602.750 63.780 602.340 L60.370 623.410 L67.240 609.660 M60.700 623.410 C60.830 601.580 57.620 601.840 54.770 603.140 L60.700 623.410 L67.240 608.020 L68.060 629.360 C54.150 603.430 53.570 603.750 53.010 604.130 M40.820 595.790 L67.240 608.200 L68.060 629.360 C54.150 603.430 53.570 603.750 53.010 604.130 M40.820 595.790 L67.310 608.430 L68.060 629.360 C54.150 603.430 53.570 603.750 53.010 604.130 M40.820 595.790 L67.310 608.400 L68.060 604.310 L53.010 629.360 M67.310 608.020 L67.400 607.820 L67.310 608.020 C66.770 603.420 65.320 602.750 63.780 602.340 L60.370 623.410 L67.300 607.820 M60.700 623.410 C60.830 601.580 57.620 601.840 54.770 603.140 L60.700 623.410 L67.240 606.800 L67.240 606.370 L67.460 606.340 L68.060 629.360 C54.150 603.430 53.570 603.750 53.010 604.130 M40.820 595.790 L67.360 606.370 L68.060 629.360 C54.150 603.430 53.570 603.750 53.010 604.130 M40.820 595.790 L67.310 606.600 L68.060 604.310 L53.010 629.360 M67.310 606.600 L67.310 606.600 C66.770 603.420 65.320 602.750 63.780 602.340 L60.370 623.410 L67.250 605.150 M60.700 623.410 C60.830 601.580 57.620 601.840 54.770 603.140 L60.700 623.410 L67.250 605.320 M60.700 623.410 C60.830 601.580 57.620 601.840 54.770 603.140 L60.700 623.410 L67.300 605.380 L68.060 629.360 C54.150 603.430 53.570 603.750 53.010 604.130 M40.820 595.790 L67.320 605.350 L68.060 604.310 L53.010 629.360 M67.400 604.740 L67.400 604.740 C66.770 603.420 65.320 602.750 63.780 602.340 L60.370 623.410 L67.250 604.970 L67.470 604.810 M60.700 623.410 C60.830 601.580 57.620 601.840 54.770 603.140 L60.700 623.410 L67.320 604.740 L68.060 629.360 C54.150 603.430 53.570 603.750 53.010 604.130 M40.820 595.790 C67.280 603.810 67.300 603.820 67.320 603.830 L68.060 604.310 L53.010 629.360 M67.410 628.360 L67.410 628.360 C66.770 603.420 65.320 602.750 63.780 602.340 L60.370 623.410 L67.260 627.950 L67.410 627.950 C66.770 603.420 65.320 602.750 63.780 602.340 L60.370 623.410 L67.260 628.180 M60.700 623.410 C60.830 601.580 57.620 601.840 54.770 603.140 L60.700 623.410 L67.260 627.950 L68.060 629.360 C54.150 603.430 53.570 603.750 53.010 604.130 M40.820 595.790 L67.410 628.360 L68.060 629.360 C54.150 603.430 53.570 603.750 53.010 604.130 M40.820 595.790 L67.320 626.350 L68.060 629.360 C54.150 603.430 53.570 603.750 53.010 604.130 M40.820 595.790 L67.410 626.340 L68.060 629.360 C54.150 603.430 53.570 603.750 53.010 604.130 M40.820 595.790 L67.420 626.530 L68.060 604.310 L53.010 629.360 M67.350 626.920 L67.420 626.850 L68.060 604.310 L53.010 629.360 M67.420 626.760 L67.420 626.760 C66.770 603.420 65.320 602.750 63.780 602.340 L60.370 623.410 L67.270 625.310 M60.700 623.410 C60.830 601.580 57.620 601.840 54.770 603.140 L60.700 623.410 L67.270 624.870 M60.700 623.410 C60.830 601.580 57.620 601.840 54.770 603.140 L60.700 623.410 L67.270 624.930 L68.060 629.360 C54.150 603.430 53.570 603.750 53.010 604.130 M40.820 595.790 L67.420 624.900 L68.060 604.310 L53.010 629.360 M67.350 625.390 L67.420 625.320 L68.060 604.310 L53.010 629.360 M67.420 623.470 L67.420 623.300 L68.060 604.310 L53.010 629.360 M67.420 623.300 L67.420 623.300 C66.770 603.420 65.320 602.750 63.780 602.340 L60.370 623.410 L67.270 623.670 M60.700 623.410 C60.830 601.580 57.620 601.840 54.770 603.140 L60.700 623.410 L67.270 623.850 L67.350 623.850 C66.770 603.420 65.320 602.750 63.780 602.340 L60.370 623.410 L67.270 623.710 M60.700 623.410 C60.830 601.580 57.620 601.840 54.770 603.140 L60.700 623.410 L67.280 622.070 M60.700 623.410 C60.830 601.580 57.620 601.840 54.770 603.140 L60.700 623.410 L67.280 621.790 M60.700 623.410 C60.830 601.580 57.620 601.840 54.770 603.140 L60.700 623.410 L67.280 621.880 L68.060 629.360 C54.150 603.430 53.570 603.750 53.010 604.130 M40.820 595.790 L67.430 621.840 L68.060 604.310 L53.010 629.360 M67.360 622.310 L67.360 622.310 C66.770 603.420 65.320 602.750 63.780 602.340 L60.370 623.410 L67.280 620.420 L67.430 620.420 C66.770 603.420 65.320 602.750 63.780 602.340 L60.370 623.410 L67.290 620.240 M60.700 623.410 C60.830 601.580 57.620 601.840 54.770 603.140 L60.700 623.410 L67.280 620.420 L68.060 629.360 C54.150 603.430 53.570 603.750 53.010 604.130 M40.820 595.790 L67.430 620.650 L68.060 629.360 C54.150 603.430 53.570 603.750 53.010 604.130 M40.820 595.790 L67.430 620.620 L68.060 604.310 L53.010 629.360 M67.400 619.200 L67.430 619.170 L68.060 604.310 L53.010 629.360 M67.430 618.790 L67.430 618.650 L68.060 604.310 L53.010 629.360 M67.430 619.020 L67.430 619.020 C66.770 603.420 65.320 602.750 63.780 602.340 L60.370 623.410 L67.280 618.820 M60.700 623.410 C60.830 601.580 57.620 601.840 54.770 603.140 L60.700 623.410 L67.280 619.230 M60.700 623.410 C60.830 601.580 57.620 601.840 54.770 603.140 L60.700 623.410 L67.290 617.190 L68.060 629.360 C54.150 603.430 53.570 603.750 53.010 604.130 M40.820 595.790 L67.360 617.110 L68.060 629.360 C54.150 603.430 53.570 603.750 53.010 604.130 M40.820 595.790 L67.440 617.360 L68.060 604.310 L53.010 629.360 M67.370 617.700 L67.440 617.630 L68.060 604.310 L53.010 629.360 M67.440 617.600 L67.440 617.600 C66.770 603.420 65.320 602.750 63.780 602.340 L60.370 623.410 L67.290 616.140 L67.390 616.140 C66.770 603.420 65.320 602.750 63.780 602.340 L60.370 623.410 L67.290 615.730 L67.440 615.730 C66.770 603.420 65.320 602.750 63.780 602.340 L60.370 623.410 L67.290 615.960 M60.700 623.410 C60.830 601.580 57.620 601.840 54.770 603.140 L60.700 623.410 L67.290 615.730 L68.060 629.360 C54.150 603.430 53.570 603.750 53.010 604.130 M40.820 595.790 L67.390 616.140 L68.060 604.310 L53.010 629.360 M67.440 614.310 L67.440 614.310 C66.770 603.420 65.320 602.750 63.780 602.340 L60.370 623.410 L67.290 614.130 L67.440 614.130 C66.770 603.420 65.320 602.750 63.780 602.340 L60.370 623.410 L67.290 614.510 M60.700 623.410 C60.830 601.580 57.620 601.840 54.770 603.140 L60.700 623.410 L67.290 614.620 L67.370 614.620 C66.770 603.420 65.320 602.750 63.780 602.340 L60.370 623.410 L67.290 614.540 M60.700 623.410 C60.830 601.580 57.620 601.840 54.770 603.140 L60.700 623.410 L67.300 612.910 M60.700 623.410 C60.830 601.580 57.620 601.840 54.770 603.140 L60.700 623.410 L67.300 612.570 M60.700 623.410 C60.830 601.580 57.620 601.840 54.770 603.140 L60.700 623.410 L67.300 612.710 L68.060 629.360 C54.150 603.430 53.570 603.750 53.010 604.130 M40.820 595.790 L67.450 612.680 L68.060 604.310 L53.010 629.360 M67.450 611.260 L67.450 611.260 C66.770 603.420 65.320 602.750 63.780 602.340 L60.370 623.410 L67.300 611.080 L67.450 610.960 L68.060 604.310 L53.010 629.360 M67.450 611.460 L67.450 611.460 C66.770 603.420 65.320 602.750 63.780 602.340 L60.370 623.410 L67.300 611.550 M60.700 623.410 C60.830 601.580 57.620 601.840 54.770 603.140 L60.700 623.410 L67.300 611.460 M60.700 623.410 C60.830 601.580 57.620 601.840 54.770 603.140 L60.700 623.410 L67.310 609.860 M67.460 609.420 L67.460 609.420 C66.770 603.420 65.320 602.750 63.780 602.340 L60.370 623.410 L67.310 609.620 L67.460 609.620 C66.770 603.420 65.320 602.750 63.780 602.340 L60.370 623.410 L67.310 609.860 M60.700 623.410 C60.830 601.580 57.620 601.840 54.770 603.140 L60.700 623.410 L67.310 609.620 L68.060 629.360 C54.150 603.430 53.570 603.750 53.010 604.130 M40.820 595.790 L67.460 608.020 L68.060 604.310 L53.010 629.360 M67.460 608.400 L67.460 608.400 C66.770 603.420 65.320 602.750 63.780 602.340 L60.370 623.410 L67.310 608.470 L67.390 608.470 C66.770 603.420 65.320 602.750 63.780 602.340 L60.370 623.410 L67.310 608.430 M60.700 623.410 C60.830 601.580 57.620 601.840 54.770 603.140 L60.700 623.410 L67.310 607.950 L67.460 608.020 C66.770 603.420 65.320 602.750 63.780 602.340 L60.370 623.410 L67.310 606.930 L67.390 606.930 L67.460 606.340 L68.060 604.310 L53.010 629.360 M67.460 606.570 L67.460 606.370 L68.060 604.310 L53.010 629.360 M67.460 606.800 L67.460 606.800 C66.770 603.420 65.320 602.750 63.780 602.340 L60.370 623.410 L67.310 606.600 M60.700 623.410 C60.830 601.580 57.620 601.840 54.770 603.140 L60.700 623.410 L67.320 604.970 L68.060 629.360 C54.150 603.430 53.570 603.750 53.010 604.130 M40.820 595.790 L67.470 605.150 L68.060 629.360 C54.150 603.430 53.570 603.750 53.010 604.130 M40.820 595.790 L67.410 605.380 L68.060 604.310 L53.010 629.360 M67.410 605.380 L67.410 605.380 C66.770 603.420 65.320 602.750 63.780 602.340 L60.370 623.410 L67.320 604.970 L67.470 604.970 C66.770 603.420 65.320 602.750 63.780 602.340 L60.370 623.410 L67.320 603.860 L68.060 629.360 C54.150 603.430 53.570 603.750 53.010 604.130 M40.820 595.790 C86.000 612.440 86.610 612.570 87.270 612.880 L87.270 614.350 C82.330 618.370 83.700 619.890 85.450 619.890 L87.840 620.010 "/>
  <path style="fill:rgb(23,22,21);stroke:none;stroke-width:1.0;" d="M91.760 616.130 C91.530 615.900 91.360 615.800 91.250 615.800 C91.030 615.800 90.820 616.000 90.180 616.780 L90.180 619.910 L91.310 619.910 L91.310 620.350 L88.400 620.350 L88.400 619.910 L89.290 619.910 L89.290 615.680 L88.270 615.680 L88.270 615.360 L89.960 614.900 L90.180 614.900 L90.180 616.220 C91.020 615.140 91.330 614.880 91.750 614.880 C91.890 614.880 92.010 614.910 92.080 614.980 L92.440 615.300 L91.760 616.130 "/>
  <path style="fill:rgb(23,22,21);stroke:none;stroke-width:1.0;" d="M95.060 615.370 C94.170 615.370 93.490 616.390 93.490 617.690 C93.490 618.980 94.170 620.010 95.060 620.010 C95.940 620.010 96.630 619.000 96.630 617.690 C96.630 616.390 95.940 615.370 95.060 615.370 M95.060 620.500 C93.630 620.500 92.480 619.240 92.480 617.690 C92.480 616.140 93.630 614.880 95.060 614.880 C96.480 614.880 97.630 616.140 97.630 617.690 C97.630 619.240 96.480 620.500 95.060 620.500 "/>
  <path style="fill:rgb(23,22,21);stroke:none;stroke-width:1.0;" d="M100.470 620.500 C99.810 620.500 99.320 620.350 98.980 620.030 L98.980 620.450 L98.510 620.450 L98.510 618.780 L99.050 618.780 L99.050 619.100 C99.050 619.610 99.710 620.050 100.440 620.050 C101.080 620.050 101.570 619.710 101.570 619.240 C101.570 618.770 101.240 618.510 100.000 618.030 C98.870 617.600 98.470 617.160 98.470 616.420 C98.470 615.500 99.210 614.880 100.290 614.880 C100.810 614.880 101.210 615.010 101.540 615.280 L101.610 614.850 L102.120 614.850 L101.840 616.550 L101.330 616.550 C101.380 616.420 101.400 616.270 101.400 616.160 C101.400 615.700 100.870 615.330 100.240 615.330 C99.630 615.330 99.230 615.650 99.230 616.160 C99.230 616.670 99.310 616.730 100.730 617.300 C101.880 617.760 102.250 618.150 102.250 618.900 C102.250 619.840 101.520 620.500 100.470 620.500 "/>
  <path style="fill:rgb(23,22,21);stroke:none;stroke-width:1.0;" d="M105.220 620.500 C104.570 620.500 104.070 620.350 103.730 620.030 L103.730 620.450 L103.260 620.450 L103.260 618.780 L103.800 618.780 L103.800 619.100 C103.800 619.610 104.460 620.050 105.190 620.050 C105.840 620.050 106.320 619.710 106.320 619.240 C106.320 618.770 105.990 618.510 104.750 618.030 C103.630 617.600 103.220 617.160 103.220 616.420 C103.220 615.500 103.970 614.880 105.050 614.880 C105.570 614.880 105.960 615.010 106.290 615.280 L106.360 614.850 L106.870 614.850 L106.590 616.550 L106.080 616.550 C106.130 616.420 106.150 616.270 106.150 616.160 C106.150 615.700 105.630 615.330 104.990 615.330 C104.380 615.330 103.980 615.650 103.980 616.160 C103.980 616.670 104.060 616.730 105.480 617.300 C106.640 617.760 107.000 618.150 107.000 618.900 C107.000 619.840 106.270 620.500 105.220 620.500 "/>
  <path style="fill:rgb(23,22,21);stroke:none;stroke-width:1.0;" d="M114.300 620.350 L114.300 619.910 L115.180 619.910 L115.180 614.130 L112.300 620.470 L109.400 614.000 L109.400 619.910 L110.300 619.910 L110.300 620.350 L107.920 620.350 L107.920 619.910 L108.820 619.910 L108.820 613.020 L107.920 613.020 L107.920 612.590 L109.820 612.590 L112.500 618.580 L115.260 612.590 L117.100 612.590 L117.100 613.020 L116.210 613.020 L116.210 619.910 L117.100 619.910 L117.100 620.350 L114.300 620.350 "/>
  <path style="fill:rgb(23,22,21);stroke:none;stroke-width:1.0;" d="M120.670 617.940 L118.660 618.410 L118.660 619.000 C118.660 619.490 118.980 619.810 119.470 619.810 C119.850 619.810 120.150 619.640 120.670 619.180 L120.670 617.940 ZM121.670 620.370 C121.520 620.420 121.350 620.450 121.260 620.450 C120.890 620.450 120.680 620.200 120.680 619.760 L120.680 619.640 C120.190 620.250 119.740 620.500 119.120 620.500 C118.310 620.500 117.710 619.940 117.710 619.150 C117.710 618.550 118.090 618.060 118.660 617.930 L120.670 617.470 L120.670 616.140 C120.670 615.670 120.320 615.330 119.850 615.330 C119.610 615.330 119.460 615.360 119.120 615.530 L119.120 616.090 L118.070 616.400 C117.990 616.260 117.980 616.200 117.980 616.070 C117.980 615.390 118.760 614.880 119.830 614.880 C120.870 614.880 121.550 615.400 121.550 616.170 L121.550 619.800 L122.460 619.800 L122.460 620.130 L121.670 620.370 "/>
  <path style="fill:rgb(23,22,21);stroke:none;stroke-width:1.0;" d="M126.300 616.130 C126.060 615.900 125.900 615.800 125.780 615.800 C125.570 615.800 125.360 616.000 124.710 616.780 L124.710 619.910 L125.840 619.910 L125.840 620.350 L122.930 620.350 L122.930 619.910 L123.830 619.910 L123.830 615.680 L122.800 615.680 L122.800 615.360 L124.500 614.900 L124.710 614.900 L124.710 616.220 C125.560 615.140 125.860 614.880 126.290 614.880 C126.430 614.880 126.540 614.910 126.620 614.980 L126.980 615.300 L126.300 616.130 "/>
  <path style="fill:rgb(23,22,21);stroke:none;stroke-width:1.0;" d="M131.200 620.350 L128.780 617.450 L130.890 615.460 L130.120 615.460 L130.120 615.020 L132.470 615.020 L132.470 615.460 L131.560 615.460 L129.740 617.200 L131.980 619.910 L132.650 619.910 L132.650 620.350 L131.200 620.350 ZM126.910 620.350 L126.910 619.910 L127.810 619.910 L127.810 612.460 L126.770 612.460 L126.770 612.140 L128.470 611.680 L128.690 611.680 L128.690 619.910 L129.570 619.910 L129.570 620.350 L126.910 620.350 "/>
  <path style="fill:rgb(187,197,232);stroke:none;stroke-width:1.0;" d="M356.320 284.260 L553.320 284.260 L553.320 510.460 L356.320 510.460 "/>
  <path style="fill:rgb(61,48,136);stroke:none;stroke-width:1.0;" d="M356.320 284.260 L553.320 284.260 L553.320 302.230 L356.320 302.230 "/>
  <path style="fill:rgb(0,97,172);stroke:none;stroke-width:1.0;" d="M58.940 773.400 L58.930 773.400 C58.820 773.400 58.730 773.300 58.730 773.190 C58.730 773.160 58.740 773.120 58.750 773.090 L60.270 770.950 C61.010 769.900 61.120 769.790 61.120 768.720 L61.120 761.290 C61.120 761.060 61.310 760.880 61.530 760.880 L62.770 760.880 C63.000 760.880 63.180 761.060 63.180 761.290 L63.180 768.970 C63.180 770.070 62.850 770.540 62.160 771.510 L60.880 773.240 C60.800 773.340 60.710 773.400 60.580 773.400 L58.940 773.400 "/>
  <path style="fill:rgb(0,97,172);stroke:none;stroke-width:1.0;" d="M45.750 768.560 C45.570 768.590 45.280 768.600 45.060 768.600 L44.110 768.600 C43.990 768.600 43.900 768.510 43.900 768.400 L43.900 766.580 C43.900 766.460 43.990 766.370 44.110 766.370 L45.110 766.370 C45.300 766.370 45.580 766.390 45.750 766.430 C45.930 766.460 46.650 766.630 46.650 767.540 C46.650 768.270 45.930 768.530 45.750 768.560 ZM43.900 762.630 C43.900 762.520 43.990 762.420 44.110 762.420 L44.960 762.420 C45.500 762.420 46.420 762.550 46.420 763.520 C46.420 764.460 45.410 764.590 45.010 764.590 L44.110 764.590 C43.990 764.590 43.900 764.500 43.900 764.390 L43.900 762.630 ZM47.460 765.440 C47.460 765.380 47.500 765.350 47.500 765.350 C47.930 765.090 48.560 764.460 48.560 763.400 C48.560 761.680 47.070 760.880 45.710 760.880 L42.250 760.880 C42.020 760.880 41.840 761.060 41.840 761.290 L41.840 769.750 C41.840 769.980 42.020 770.160 42.250 770.160 L45.940 770.160 C47.340 770.160 48.840 769.340 48.840 767.690 C48.840 766.380 47.980 765.760 47.510 765.520 C47.510 765.520 47.460 765.490 47.460 765.440 "/>
  <path style="fill:rgb(0,97,172);stroke:none;stroke-width:1.0;" d="M56.490 764.640 C56.510 764.620 56.540 764.600 56.570 764.600 C56.630 764.600 56.670 764.640 56.670 764.700 L56.670 769.750 C56.670 769.980 56.850 770.160 57.080 770.160 L58.320 770.160 C58.550 770.160 58.730 769.980 58.730 769.750 L58.730 761.290 C58.730 761.060 58.550 760.880 58.320 760.880 L57.010 760.880 C56.870 760.880 56.740 760.950 56.670 761.060 L54.590 763.970 C54.570 764.000 54.540 764.010 54.510 764.010 C54.480 764.010 54.450 764.000 54.430 763.970 L52.350 761.060 C52.280 760.950 52.150 760.880 52.010 760.880 L50.730 760.880 C50.470 760.880 50.280 761.040 50.280 761.300 L50.280 769.750 C50.280 769.980 50.470 770.160 50.700 770.160 L51.930 770.160 C52.160 770.160 52.350 769.980 52.350 769.750 L52.350 764.700 C52.350 764.640 52.390 764.600 52.440 764.600 C52.480 764.600 52.510 764.620 52.530 764.640 L54.050 766.800 C54.130 766.900 54.250 766.960 54.380 766.960 L54.630 766.960 C54.760 766.960 54.880 766.900 54.960 766.800 L56.490 764.640 "/>
  <path style="fill:rgb(61,48,136);stroke:none;stroke-width:1.0;" d="M44.790 64.910 L46.920 64.910 C47.440 64.910 47.850 64.890 48.140 64.850 C48.440 64.800 48.680 64.730 48.880 64.630 C49.200 64.450 49.440 64.230 49.590 63.970 C49.730 63.710 49.810 63.440 49.810 63.160 C49.810 62.840 49.720 62.520 49.530 62.210 C49.350 61.900 49.070 61.640 48.700 61.450 C48.460 61.330 48.190 61.250 47.890 61.200 C47.580 61.140 47.250 61.120 46.880 61.120 L44.790 61.120 L44.790 64.910 ZM44.790 58.700 L46.260 58.700 C46.600 58.700 46.920 58.680 47.230 58.650 C47.540 58.630 47.770 58.570 47.900 58.500 C48.280 58.320 48.560 58.100 48.730 57.820 C48.900 57.550 48.990 57.260 48.990 56.970 C48.990 56.610 48.870 56.280 48.640 55.980 C48.410 55.680 48.070 55.450 47.610 55.300 C47.540 55.290 47.440 55.270 47.310 55.250 C47.190 55.220 47.040 55.210 46.890 55.200 C46.730 55.200 46.580 55.190 46.420 55.180 C46.270 55.170 46.130 55.170 46.010 55.170 L44.790 55.170 L44.790 58.700 ZM41.840 67.450 L41.840 52.640 L47.120 52.640 C47.830 52.640 48.490 52.730 49.090 52.900 C49.690 53.080 50.200 53.350 50.630 53.690 C51.060 54.040 51.400 54.460 51.640 54.960 C51.880 55.450 52.010 56.010 52.010 56.630 C52.010 57.300 51.850 57.880 51.530 58.370 C51.210 58.850 50.770 59.270 50.210 59.610 C51.010 59.890 51.650 60.340 52.130 60.950 C52.610 61.570 52.850 62.340 52.850 63.270 C52.850 64.060 52.630 64.800 52.180 65.510 C51.740 66.220 51.070 66.750 50.160 67.090 C49.820 67.210 49.460 67.300 49.060 67.360 C48.670 67.420 48.290 67.450 47.920 67.450 L41.840 67.450 "/>
  <path style="fill:rgb(61,48,136);stroke:none;stroke-width:1.0;" d="M55.340 67.450 L55.340 52.640 L58.400 52.640 L62.770 62.490 L66.720 52.640 L69.810 52.640 L69.810 67.450 L66.860 67.450 L66.860 59.160 L63.280 67.530 L62.220 67.530 L58.290 59.080 L58.290 67.450 L55.340 67.450 "/>
  <path style="fill:rgb(61,48,136);stroke:none;stroke-width:1.0;" d="M70.790 68.090 C71.820 67.880 72.550 67.560 72.980 67.130 C73.410 66.710 73.630 66.150 73.630 65.470 L73.630 52.640 L76.620 52.640 L76.620 65.960 C76.620 66.650 76.500 67.260 76.250 67.790 C76.000 68.320 75.640 68.770 75.170 69.140 C74.700 69.520 74.150 69.830 73.510 70.070 C72.860 70.300 72.140 70.490 71.340 70.620 L70.790 68.090 "/>
  <path style="fill:rgb(61,48,136);stroke:none;stroke-width:1.0;" d="M88.430 63.560 C88.760 64.030 89.150 64.410 89.620 64.690 C90.090 64.970 90.630 65.110 91.250 65.110 C91.870 65.110 92.420 64.970 92.910 64.690 C93.390 64.410 93.790 64.030 94.120 63.560 C94.440 63.090 94.680 62.540 94.850 61.930 C95.010 61.310 95.090 60.680 95.090 60.030 C95.090 59.380 95.010 58.750 94.850 58.130 C94.680 57.520 94.440 56.970 94.120 56.500 C93.790 56.030 93.390 55.650 92.910 55.370 C92.420 55.090 91.870 54.950 91.250 54.950 C90.630 54.950 90.090 55.090 89.620 55.370 C89.150 55.650 88.760 56.030 88.430 56.500 C88.110 56.970 87.860 57.520 87.700 58.130 C87.540 58.750 87.460 59.380 87.460 60.030 C87.460 60.680 87.540 61.310 87.700 61.930 C87.860 62.540 88.110 63.090 88.430 63.560 ZM88.250 67.090 C87.400 66.630 86.690 66.040 86.120 65.310 C85.560 64.590 85.140 63.760 84.860 62.840 C84.580 61.910 84.440 60.980 84.440 60.030 C84.440 59.080 84.580 58.150 84.860 57.220 C85.140 56.300 85.560 55.470 86.120 54.750 C86.690 54.020 87.400 53.440 88.250 52.990 C89.110 52.550 90.110 52.330 91.250 52.330 C92.410 52.330 93.410 52.550 94.270 52.990 C95.130 53.440 95.850 54.020 96.420 54.750 C97.000 55.470 97.430 56.300 97.710 57.220 C97.990 58.150 98.130 59.080 98.130 60.030 C98.130 60.980 97.990 61.910 97.710 62.840 C97.430 63.760 97.000 64.590 96.420 65.310 C95.850 66.040 95.130 66.630 94.270 67.080 C93.410 67.530 92.410 67.760 91.250 67.760 C90.110 67.760 89.110 67.530 88.250 67.090 "/>
  <path style="fill:rgb(61,48,136);stroke:none;stroke-width:1.0;" d="M103.680 64.980 C104.140 65.190 104.590 65.290 105.040 65.290 C105.560 65.290 106.000 65.200 106.380 65.030 C106.760 64.850 107.070 64.610 107.320 64.300 C107.570 64.000 107.760 63.660 107.880 63.280 C108.000 62.910 108.060 62.520 108.060 62.120 C108.060 61.700 108.000 61.300 107.900 60.900 C107.800 60.500 107.640 60.140 107.450 59.830 C107.250 59.520 106.990 59.270 106.690 59.080 C106.390 58.880 106.030 58.790 105.610 58.790 C105.210 58.790 104.840 58.900 104.480 59.110 C104.130 59.320 103.860 59.560 103.680 59.810 L103.680 64.980 ZM100.800 71.640 L100.800 56.750 L103.440 56.750 L103.570 57.550 C103.840 57.290 104.190 57.050 104.640 56.820 C105.080 56.590 105.610 56.480 106.210 56.480 C106.980 56.480 107.660 56.630 108.240 56.950 C108.830 57.260 109.310 57.670 109.700 58.180 C110.080 58.690 110.380 59.280 110.580 59.960 C110.780 60.650 110.880 61.350 110.880 62.070 C110.880 62.770 110.760 63.450 110.540 64.130 C110.320 64.800 109.980 65.400 109.510 65.920 C109.040 66.450 108.450 66.880 107.730 67.200 C107.020 67.530 106.170 67.690 105.190 67.690 C104.690 67.690 104.190 67.590 103.710 67.380 L103.710 71.640 L100.800 71.640 "/>
  <path style="fill:rgb(61,48,136);stroke:none;stroke-width:1.0;" d="M120.020 60.810 C119.960 60.100 119.720 59.570 119.300 59.210 C118.880 58.850 118.430 58.680 117.960 58.680 C117.710 58.680 117.460 58.720 117.210 58.820 C116.970 58.920 116.740 59.060 116.540 59.240 C116.330 59.430 116.150 59.650 116.010 59.920 C115.870 60.190 115.780 60.480 115.740 60.810 L120.020 60.810 ZM115.670 62.780 C115.740 63.690 116.020 64.340 116.500 64.740 C116.980 65.140 117.520 65.340 118.110 65.340 C118.630 65.340 119.100 65.240 119.510 65.060 C119.920 64.870 120.350 64.470 120.800 63.850 L122.950 65.160 C122.340 66.090 121.640 66.750 120.840 67.120 C120.040 67.500 119.100 67.690 118.020 67.690 C117.310 67.690 116.640 67.580 116.000 67.360 C115.370 67.140 114.810 66.790 114.330 66.330 C113.850 65.860 113.470 65.280 113.180 64.580 C112.900 63.890 112.760 63.060 112.760 62.100 C112.760 61.190 112.900 60.390 113.170 59.700 C113.450 59.000 113.820 58.420 114.290 57.950 C114.770 57.470 115.320 57.110 115.950 56.860 C116.580 56.600 117.250 56.480 117.960 56.480 C119.450 56.480 120.650 57.000 121.560 58.040 C122.470 59.090 122.940 60.670 122.970 62.780 L115.670 62.780 "/>
  <path style="fill:rgb(61,48,136);stroke:none;stroke-width:1.0;" d="M125.300 67.450 L125.300 56.750 L127.950 56.750 L128.080 57.590 C128.520 57.230 129.030 56.960 129.610 56.770 C130.190 56.580 130.760 56.480 131.340 56.480 C131.930 56.480 132.480 56.570 132.970 56.730 C133.470 56.910 133.900 57.170 134.250 57.540 C134.600 57.910 134.880 58.400 135.080 58.990 C135.280 59.580 135.380 60.290 135.380 61.120 L135.380 67.450 L132.470 67.450 L132.470 61.340 C132.470 60.530 132.300 59.900 131.940 59.450 C131.590 59.010 131.090 58.790 130.450 58.790 C130.010 58.790 129.600 58.900 129.210 59.120 C128.830 59.340 128.490 59.590 128.210 59.850 L128.210 67.450 L125.300 67.450 "/>
 </g>
</svg>
