<?xml version="1.0" encoding="UTF-8"?>
<svg height="739.07" width="556.18" xmlns="http://www.w3.org/2000/svg">
 <g>
  <path style="fill:none;stroke:rgb(23,22,21);stroke-width:1.0;" d="M49.150 729.070 L546.180 729.070 "/>
  <path style="fill:none;stroke:rgb(23,22,21);stroke-width:0.5;" d="M49.100 187.150 L544.900 187.150 "/>
  <path style="fill:none;stroke:rgb(23,22,21);stroke-width:0.5;" d="M49.100 56.040 L211.950 56.040 "/>
  <path style="fill:none;stroke:rgb(23,22,21);stroke-width:0.5;" d="M211.950 56.040 L286.540 56.040 "/>
  <path style="fill:none;stroke:rgb(23,22,21);stroke-width:0.5;" d="M286.540 56.040 L360.070 56.040 "/>
  <path style="fill:none;stroke:rgb(23,22,21);stroke-width:0.5;" d="M360.070 56.040 L429.210 56.040 "/>
  <path style="fill:none;stroke:rgb(23,22,21);stroke-width:0.5;" d="M429.210 56.040 L530.400 56.040 "/>
  <path style="fill:none;stroke:rgb(23,22,21);stroke-width:0.5;" d="M530.400 56.040 L544.900 56.040 "/>
  <path style="fill:none;stroke:rgb(23,22,21);stroke-width:0.5;" d="M49.100 162.650 L211.950 162.650 "/>
  <path style="fill:none;stroke:rgb(23,22,21);stroke-width:0.5;" d="M211.950 162.650 L286.540 162.650 "/>
  <path style="fill:none;stroke:rgb(23,22,21);stroke-width:0.5;" d="M286.540 162.650 L360.070 162.650 "/>
  <path style="fill:none;stroke:rgb(23,22,21);stroke-width:0.5;" d="M360.070 162.650 L429.210 162.650 "/>
  <path style="fill:none;stroke:rgb(23,22,21);stroke-width:0.5;" d="M429.210 162.650 L530.400 162.650 "/>
  <path style="fill:none;stroke:rgb(23,22,21);stroke-width:0.5;" d="M530.400 162.650 L544.900 162.650 "/>
  <path style="fill:none;stroke:rgb(23,22,21);stroke-width:0.5;" d="M49.100 73.110 L211.950 73.110 "/>
  <path style="fill:none;stroke:rgb(23,22,21);stroke-width:0.5;" d="M211.950 73.110 L286.540 73.110 "/>
  <path style="fill:none;stroke:rgb(23,22,21);stroke-width:0.5;" d="M286.540 73.110 L360.070 73.110 "/>
  <path style="fill:none;stroke:rgb(23,22,21);stroke-width:0.5;" d="M360.070 73.110 L429.210 73.110 "/>
  <path style="fill:none;stroke:rgb(23,22,21);stroke-width:0.5;" d="M429.210 73.110 L530.400 73.110 "/>
  <path style="fill:none;stroke:rgb(23,22,21);stroke-width:0.5;" d="M530.400 73.110 L544.900 73.110 "/>
 </g>
</svg>
