<?xml version="1.0" encoding="UTF-8"?>
<svg height="741.324" width="4058.414" xmlns="http://www.w3.org/2000/svg">
 <g id="page" xmlns:svgx="http://www.xml-cml.org/schema/svgx">
  <g begin="text">
   <text y="246.434" x="49.6,52.93,56.26,61.26,69.04,71.937,74.717,79.717,84.157,87.054,93.724,100.394,107.614,110.511,117.731,122.731,127.731,130.628,135.628,140.068,145.068,147.965,152.405,155.185,157.965,162.405,167.405,172.405,176.845,181.845,184.742,187.522,192.522,195.419,200.419,204.859,207.639,210.419,214.859,219.859,222.639,224.985,232.205,239.425,246.645,249.145,252.042,255.372,260.372,263.269,267.709,272.709,277.709,280.489" svgx:width="0.33,0.33,0.5,0.78,0.25,0.28,0.5,0.44,0.25,0.67,0.67,0.72,0.25,0.72,0.5,0.5,0.25,0.5,0.44,0.5,0.25,0.44,0.28,0.28,0.44,0.5,0.5,0.44,0.5,0.25,0.28,0.5,0.25,0.5,0.44,0.28,0.28,0.44,0.5,0.28,0.25,0.72,0.72,0.72,0.25,0.25,0.33,0.5,0.25,0.44,0.5,0.5,0.28,0.33" style="fill:rgb(35,31,32);font-family:TimesNewRomanPSMT;font-size:10.0px;stroke:none;">from the CCU who had attended to patient AAA. In addi-</text>
   <text y="258.434" x="49.6,52.38,55.16,60.16,65.16,67.66,70.16,72.169,78.279,84.389,89.949,97.169,99.669,101.858,109.078,113.518,117.408,119.908,122.097,126.537,133.757,138.197,141.527,145.967,148.467,150.656,155.656,158.986,161.486,163.675,167.005,169.785,174.785,179.225,181.725,183.914,188.914,193.354,197.794,200.574,203.354,208.354,212.794,217.234,220.564,225.004,227.504,229.693,236.913,241.913,245.243,250.243,254.683,258.013,261.903,264.403,266.592,273.812,278.812" svgx:width="0.28,0.28,0.5,0.5,0.25,0.25,0.55,0.61,0.61,0.56,0.72,0.25,0.55,0.72,0.44,0.39,0.25,0.55,0.44,0.72,0.44,0.33,0.44,0.25,0.55,0.5,0.33,0.25,0.55,0.33,0.28,0.5,0.44,0.25,0.55,0.5,0.44,0.44,0.28,0.28,0.5,0.44,0.44,0.33,0.44,0.25,0.55,0.72,0.5,0.33,0.5,0.44,0.33,0.39,0.25,0.55,0.72,0.5,0.5" style="fill:rgb(35,31,32);font-family:TimesNewRomanPSMT;font-size:10.0px;stroke:none;">tion, TTSH was aware of five healthcare workers who</text>
   <text y="270.434" x="49.6,56.82,61.26,64.59,69.03,71.917,76.917,81.917,84.804,92.584,97.024,102.024,104.804,109.244,113.684,116.464,119.351,122.131,126.571,131.011,136.011,140.451,143.338,146.668,151.668,154.998,157.885,161.215,165.655,170.655,175.095,178.025,180.525,183.412,186.742,191.742,196.742,200.072,202.959,207.959,211.289,214.176,221.396,226.396,231.396,239.176,242.063,249.283,253.723,257.053,261.493,264.38,267.71,271.04,276.04" svgx:width="0.72,0.44,0.33,0.44,0.25,0.5,0.5,0.25,0.78,0.44,0.5,0.28,0.44,0.44,0.28,0.25,0.28,0.44,0.44,0.5,0.44,0.25,0.33,0.5,0.33,0.25,0.33,0.44,0.5,0.44,0.33,0.25,0.25,0.33,0.5,0.5,0.33,0.25,0.5,0.33,0.25,0.72,0.5,0.5,0.78,0.25,0.72,0.44,0.33,0.44,0.25,0.33,0.33,0.5,0.78" style="fill:rgb(35,31,32);font-family:TimesNewRomanPSMT;font-size:10.0px;stroke:none;">were on medical leave for fever, four of whom were from</text>
   <text y="282.434" x="49.6,56.82,61.26,64.59,69.59,72.09,73.301,78.301,85.501,88.68,93.12,98.12,103.12,105.62,106.831,111.831,116.831,121.271,123.771,124.982,128.312,131.642,136.642,144.422,146.922,148.133,155.353,159.793,163.123,168.123,170.623,171.834,176.834,184.054,186.554,189.054,190.265,195.825,199.155,204.155,209.155,213.595,218.595,221.375,225.815,228.315,229.526,235.086,242.306,248.976,254.536,257.036,258.247,262.137,267.137,272.137,276.027,280.467" svgx:width="0.72,0.44,0.33,0.5,0.25,0.55,0.5,0.72,0.55,0.44,0.5,0.5,0.25,0.55,0.5,0.5,0.44,0.25,0.55,0.33,0.33,0.5,0.78,0.25,0.55,0.72,0.44,0.33,0.5,0.25,0.55,0.5,0.72,0.25,0.25,0.55,0.56,0.33,0.5,0.5,0.44,0.5,0.28,0.44,0.25,0.55,0.56,0.72,0.67,0.56,0.25,0.55,0.39,0.5,0.5,0.39,0.44,0.33" style="fill:rgb(35,31,32);font-family:TimesNewRomanPSMT;font-size:10.0px;stroke:none;">ward 5A and one from ward 8A. Probable SARS subse-</text>
   <text y="294.434" x="49.6,54.6,59.6,64.04,69.04,71.82,74.6,79.6,82.35,87.35,91.79,96.79,101.23,104.01,109.01,114.01,118.45,123.45,126.2,128.98,133.98,136.73,139.51,144.51,148.95,152.84,157.28,160.03,163.36,166.14,171.14,175.58,178.33,183.33,187.77,192.21,194.99,197.77,202.77,207.21,211.65,214.98,219.42,222.17,229.39,234.39,237.72,242.72,247.16,250.49,254.38,256.88" svgx:width="0.5,0.5,0.44,0.5,0.28,0.28,0.5,0.25,0.5,0.44,0.5,0.44,0.28,0.5,0.5,0.44,0.5,0.25,0.28,0.5,0.25,0.28,0.5,0.44,0.39,0.44,0.25,0.33,0.28,0.5,0.44,0.25,0.5,0.44,0.44,0.28,0.28,0.5,0.44,0.44,0.33,0.44,0.25,0.72,0.5,0.33,0.5,0.44,0.33,0.39,0.25,0.25" style="fill:rgb(35,31,32);font-family:TimesNewRomanPSMT;font-size:10.0px;stroke:none;">quently developed in these five healthcare workers. </text>
   <text y="306.434" x="62.344,67.904,71.234,76.234,81.234,85.674,90.674,93.454,97.894,100.394,101.998,107.558,114.778,121.448,127.008,129.50799999999998,131.112,136.112,140.552,143.332,146.112,150.552,155.552,158.332,162.222,164.722,166.326,173.546,177.986,181.316,185.756,188.256,189.86,192.64,196.53,201.53,204.31,208.75,211.53,215.97,220.97,223.47,225.074,229.514,234.514,239.514,242.014,243.618,246.398,251.398,255.838,258.618,261.948,264.448,266.052,270.492,275.492,280.492" svgx:width="0.56,0.33,0.5,0.5,0.44,0.5,0.28,0.44,0.25,0.55,0.56,0.72,0.67,0.56,0.25,0.55,0.5,0.44,0.28,0.28,0.44,0.5,0.28,0.39,0.25,0.55,0.72,0.44,0.33,0.44,0.25,0.55,0.28,0.39,0.5,0.28,0.44,0.28,0.44,0.5,0.25,0.55,0.44,0.5,0.5,0.25,0.55,0.28,0.5,0.44,0.28,0.33,0.25,0.55,0.44,0.5,0.5,0.33" style="fill:rgb(35,31,32);font-family:TimesNewRomanPSMT;font-size:10.0px;stroke:none;">Probable SARS patients were isolated and their con-</text>
   <text y="318.434" x="49.6,52.38,56.82,61.26,64.04,67.93,70.43,73.413,80.633,85.073,88.403,92.843,95.343,98.326,101.106,104.436,108.876,113.316,117.756,122.756,125.256,127.756,130.739,136.299,141.299,149.079,154.079,156.859,161.859,169.639,174.079,176.859,179.639,184.079,186.579,189.562,194.002,199.002,204.002,206.782,211.222,215.662,218.442,222.332,224.832,227.815,235.035,239.475,242.805,247.245,249.745,252.728,255.508,259.398,264.398,267.178,271.618,274.398,278.838" svgx:width="0.28,0.44,0.44,0.28,0.39,0.25,0.55,0.72,0.44,0.33,0.44,0.25,0.55,0.28,0.33,0.44,0.44,0.44,0.5,0.25,0.25,0.55,0.56,0.5,0.78,0.5,0.28,0.5,0.78,0.44,0.28,0.28,0.44,0.25,0.55,0.44,0.5,0.5,0.28,0.44,0.44,0.28,0.39,0.25,0.55,0.72,0.44,0.33,0.44,0.25,0.55,0.28,0.39,0.5,0.28,0.44,0.28,0.44,0.5" style="fill:rgb(35,31,32);font-family:TimesNewRomanPSMT;font-size:10.0px;stroke:none;">tacts were traced. Symptomatic contacts were isolated</text>
   <text y="330.434" x="49.6,56.82,61.82,64.6,67.38,71.82,74.098,78.538,82.428,87.428,95.208,100.208,102.988,107.988,115.768,120.208,122.988,125.768,130.208,132.486,136.926,141.926,146.926,149.706,154.146,158.586,161.366,165.256,167.534,174.754,179.194,182.524,186.964,189.242,193.682,198.682,203.682,206.462,210.352,214.792,219.792,222.07,224.85,229.85,232.128,236.018,240.458,244.898,249.898,252.176,259.956,264.396,269.396,272.176,276.616,281.056" svgx:width="0.72,0.5,0.28,0.28,0.44,0.25,0.44,0.39,0.5,0.78,0.5,0.28,0.5,0.78,0.44,0.28,0.28,0.44,0.25,0.44,0.5,0.5,0.28,0.44,0.44,0.28,0.39,0.25,0.72,0.44,0.33,0.44,0.25,0.44,0.5,0.5,0.28,0.39,0.44,0.5,0.25,0.28,0.5,0.25,0.39,0.44,0.44,0.5,0.25,0.78,0.44,0.5,0.28,0.44,0.44,0.28" style="fill:rgb(35,31,32);font-family:TimesNewRomanPSMT;font-size:10.0px;stroke:none;">while asymptomatic contacts were advised to seek medical</text>
   <text y="342.434" x="49.6,54.04,56.82,59.6,64.04,69.04,71.82,74.6,79.6,84.6,87.1,88.029,90.809,94.139,96.639,97.568,100.348,105.348,109.788,114.788,117.288,118.217,123.217,127.657,132.097,136.537,144.317,148.757,151.257,152.186,154.966,157.746,160.526,163.026,165.526,166.455,169.785,174.785,178.115,182.555,186.995,189.775,192.555,197.555,202.555,205.055,205.984,210.424,215.424,220.424,223.204,226.534,231.534,234.314,236.814,237.743,242.743,246.073,250.513,254.953,259.393,264.393,267.173,269.953,274.953,279.953" svgx:width="0.44,0.28,0.28,0.44,0.5,0.28,0.28,0.5,0.5,0.25,0.55,0.28,0.33,0.25,0.55,0.28,0.5,0.44,0.5,0.25,0.55,0.5,0.44,0.44,0.44,0.78,0.44,0.25,0.55,0.28,0.28,0.28,0.25,0.25,0.55,0.33,0.5,0.33,0.44,0.44,0.28,0.28,0.5,0.5,0.25,0.55,0.44,0.5,0.5,0.28,0.33,0.5,0.28,0.25,0.55,0.5,0.33,0.44,0.44,0.44,0.5,0.28,0.28,0.5,0.5,0.39" style="fill:rgb(35,31,32);font-family:TimesNewRomanPSMT;font-size:10.0px;stroke:none;">attention if they became ill. Infection control precautions</text>
   <text y="354.434" x="49.6,56.82,61.26,64.59,69.03,71.373,75.813,78.593,82.483,87.483,89.826,94.266,99.266,104.266,108.706,113.706,118.146,122.586,127.586,129.929,132.709,137.709,139.871,145.981,152.091,157.651,164.871,167.371,169.714,172.494,177.494,181.934,184.714,189.714,194.714,197.494,202.494,207.494,209.837,214.837,218.167,223.167,228.167,230.947,235.947,238.727,243.727,248.727,251.07,254.96,259.4,264.4,268.84,272.17,276.61,279.39" svgx:width="0.72,0.44,0.33,0.44,0.25,0.44,0.28,0.39,0.5,0.25,0.44,0.5,0.5,0.44,0.5,0.44,0.44,0.5,0.25,0.28,0.5,0.25,0.61,0.61,0.56,0.72,0.25,0.25,0.28,0.5,0.44,0.28,0.5,0.5,0.28,0.5,0.5,0.25,0.5,0.33,0.5,0.5,0.28,0.5,0.28,0.5,0.5,0.25,0.39,0.44,0.5,0.44,0.33,0.44,0.28,0.44" style="fill:rgb(35,31,32);font-family:TimesNewRomanPSMT;font-size:10.0px;stroke:none;">were also enhanced in TTSH, including providing separate</text>
   <text y="366.434" x="49.6,52.38,55.71,58.49,62.93,67.93,72.37,74.637,77.967,82.407,86.847,89.627,92.407,95.187,97.967,100.747,105.187,109.077,111.344,114.674,119.674,123.004,125.271,130.271,134.711,137.491,140.271,144.711,149.711,152.491,156.381,158.648,165.868,168.648,171.428,176.428,178.695,182.585,187.585,191.475,196.475,200.915,205.355,208.135,212.575,217.575,219.842,225.402,232.622,239.292,244.852,247.119,254.339,259.339,264.339,266.606,274.386,278.826" svgx:width="0.28,0.33,0.28,0.44,0.5,0.44,0.25,0.33,0.44,0.44,0.28,0.28,0.28,0.28,0.28,0.44,0.39,0.25,0.33,0.5,0.33,0.25,0.5,0.44,0.28,0.28,0.44,0.5,0.28,0.39,0.25,0.72,0.28,0.28,0.5,0.25,0.39,0.5,0.39,0.5,0.44,0.44,0.28,0.44,0.5,0.25,0.56,0.72,0.67,0.56,0.25,0.72,0.5,0.5,0.25,0.78,0.44,0.5" style="fill:rgb(35,31,32);font-family:TimesNewRomanPSMT;font-size:10.0px;stroke:none;">triage facilities for patients with suspected SARS who may</text>
   <text y="378.434" x="49.6,53.49,57.93,62.37,67.37,69.87,72.005,74.785,78.115,82.555,86.995,89.775,97.555,101.995,106.995,109.775,112.275,114.41,118.85,121.63,124.13,126.265,130.705,138.485,142.925,146.074,151.074,155.514,160.514,164.954,169.954,172.454,174.589,179.589,184.029,189.029,193.469,196.799,199.579,207.359,211.799,216.799,219.579,223.469,225.969,228.104,232.544,237.544,242.544,245.044,247.179,250.509,254.949,259.949,264.949,267.729,271.059,273.839,278.839" svgx:width="0.39,0.44,0.44,0.5,0.25,0.55,0.28,0.33,0.44,0.44,0.28,0.78,0.44,0.5,0.28,0.25,0.55,0.44,0.28,0.25,0.55,0.44,0.78,0.44,0.33,0.5,0.44,0.5,0.44,0.5,0.25,0.55,0.5,0.44,0.5,0.44,0.33,0.28,0.78,0.44,0.5,0.28,0.39,0.25,0.55,0.44,0.5,0.5,0.25,0.55,0.33,0.44,0.5,0.5,0.28,0.33,0.28,0.5,0.5" style="fill:rgb(35,31,32);font-family:TimesNewRomanPSMT;font-size:10.0px;stroke:none;">seek treatment at emergency departments and requiring</text>
   <text y="390.434" x="49.6,54.6,59.04,63.48,66.26,69.04,74.04,78.48,82.92,86.25,90.69,93.19,94.539,101.759,106.759,110.089,115.089,119.529,122.859,126.749,129.249,130.598,133.928,136.708,141.708,144.208,145.557,148.337,153.337,157.777,160.277,161.626,166.066,173.846,178.286,181.435,186.435,190.875,195.875,200.315,205.315,207.815,209.164,214.164,218.604,223.604,228.044,231.374,234.154,241.934,246.374,251.374,254.154,256.654,259.154,260.503,263.283,268.283,271.063,275.503,280.503" svgx:width="0.5,0.44,0.44,0.28,0.28,0.5,0.44,0.44,0.33,0.44,0.25,0.55,0.72,0.5,0.33,0.5,0.44,0.33,0.39,0.25,0.55,0.33,0.28,0.5,0.25,0.55,0.28,0.5,0.44,0.25,0.55,0.44,0.78,0.44,0.33,0.5,0.44,0.5,0.44,0.5,0.25,0.55,0.5,0.44,0.5,0.44,0.33,0.28,0.78,0.44,0.5,0.28,0.25,0.25,0.55,0.28,0.5,0.28,0.44,0.5,0.33" style="fill:rgb(35,31,32);font-family:TimesNewRomanPSMT;font-size:10.0px;stroke:none;">healthcare workers (in the emergency department, inten-</text>
   <text y="402.434" x="49.6,53.49,56.27,61.27,65.71,69.04,73.48,77.92,81.25,85.69,88.19,90.147,95.147,100.147,102.927,105.707,108.207,110.164,113.494,116.824,123.494,130.714,134.044,136.544,139.044,141.001,143.781,147.671,152.671,155.451,159.891,162.671,165.451,170.451,175.451,177.951,179.908,187.128,191.568,194.898,199.898,203.788,206.288,208.788,210.745,213.525,216.855,219.635,224.075,229.075,233.515,236.015,237.972,242.972,247.972,250.752,255.752,258.532,262.422,264.922,267.422,269.379,273.819,278.819" svgx:width="0.39,0.28,0.5,0.44,0.33,0.44,0.44,0.33,0.44,0.25,0.55,0.5,0.5,0.28,0.28,0.25,0.55,0.33,0.33,0.67,0.72,0.33,0.25,0.25,0.55,0.28,0.39,0.5,0.28,0.44,0.28,0.28,0.5,0.5,0.25,0.55,0.72,0.44,0.33,0.5,0.39,0.25,0.25,0.55,0.28,0.33,0.28,0.44,0.5,0.44,0.25,0.55,0.5,0.5,0.28,0.5,0.28,0.39,0.25,0.25,0.55,0.44,0.5,0.5" style="fill:rgb(35,31,32);font-family:TimesNewRomanPSMT;font-size:10.0px;stroke:none;">sive-care unit [ICU], isolation wards, triage points, and</text>
   <text y="414.434" x="49.6,56.82,61.26,64.59,69.59,73.48,75.98,77.275,84.495,89.495,92.275,96.715,101.715,104.215,105.51,110.51,114.95,119.95,122.45,123.745,128.745,133.185,137.625,142.625,145.125,146.42,150.86,155.86,160.86,165.86,169.75,174.19,179.19,181.69,182.985,185.765,190.765,193.265,194.56,199.56,204.0,206.78,209.56,214.0,219.0,221.78,225.67,228.17,229.465,236.685,239.465,242.245,247.245,249.745,251.04,256.04,261.04,264.93,268.82,271.6,276.6,279.38" svgx:width="0.72,0.44,0.33,0.5,0.39,0.25,0.55,0.72,0.5,0.28,0.44,0.5,0.25,0.55,0.5,0.44,0.5,0.25,0.55,0.5,0.44,0.44,0.5,0.25,0.55,0.44,0.5,0.5,0.5,0.39,0.44,0.5,0.25,0.55,0.28,0.5,0.25,0.55,0.5,0.44,0.28,0.28,0.44,0.5,0.28,0.39,0.25,0.55,0.72,0.28,0.28,0.5,0.25,0.55,0.5,0.5,0.39,0.39,0.28,0.5,0.28,0.44" style="fill:rgb(35,31,32);font-family:TimesNewRomanPSMT;font-size:10.0px;stroke:none;">wards which had been exposed to patients with possible</text>
   <text y="426.434" x="49.6,55.16,62.38,69.05,74.61,77.94,80.44,81.61,84.39,89.39,91.89,93.06,100.28,104.72,109.16,112.49,114.99,116.16,121.16,125.6,128.93,132.82,137.82,142.82,147.26,150.04,152.54,153.71,158.71,162.04,167.04,169.82,174.26,178.7,181.48,184.26,189.26,193.7,196.2,197.37,201.81,206.81,211.81,214.59,219.59,227.37,231.81,236.81,239.59,242.09,243.26,247.7,252.7,257.7,261.59,264.37,268.26,271.04,273.82,278.82" svgx:width="0.56,0.72,0.67,0.56,0.33,0.25,0.55,0.28,0.5,0.25,0.55,0.72,0.44,0.44,0.33,0.25,0.55,0.5,0.44,0.33,0.39,0.5,0.5,0.44,0.28,0.25,0.55,0.5,0.33,0.5,0.28,0.44,0.44,0.28,0.28,0.5,0.44,0.25,0.55,0.44,0.5,0.5,0.28,0.5,0.78,0.44,0.5,0.28,0.25,0.55,0.44,0.5,0.5,0.39,0.28,0.39,0.28,0.28,0.5,0.5" style="fill:rgb(35,31,32);font-family:TimesNewRomanPSMT;font-size:10.0px;stroke:none;">SARS) to wear personal protective equipment consisting</text>
   <text y="438.434" x="49.6,54.6,57.93,60.746,67.966,72.966,77.966,80.782,88.562,93.002,96.892,101.892,105.782,108.282,111.098,116.098,121.098,128.318,133.318,137.208,139.708,142.524,146.964,151.964,156.964,159.78,164.78,167.56,172.56,177.56,182.0,185.89,188.39,191.206,197.876,202.876,205.692,214.582,219.022,222.352,226.792,231.792,234.608,239.608,244.608,247.108,249.924,254.364,259.364,264.364,267.694,272.694,277.694,280.474" svgx:width="0.5,0.33,0.25,0.72,0.5,0.5,0.25,0.78,0.44,0.39,0.5,0.39,0.25,0.25,0.5,0.5,0.72,0.5,0.39,0.25,0.25,0.44,0.5,0.5,0.25,0.5,0.28,0.5,0.5,0.44,0.39,0.25,0.25,0.67,0.5,0.25,0.89,0.44,0.33,0.44,0.5,0.25,0.5,0.5,0.25,0.25,0.44,0.5,0.5,0.33,0.5,0.5,0.28,0.33" style="fill:rgb(35,31,32);font-family:TimesNewRomanPSMT;font-size:10.0px;stroke:none;">of N95 masks, gowns, and gloves. By March 21, approxi-</text>
   <text y="450.434" x="49.6,57.38,61.82,64.6,69.04,71.82,76.82,79.32,81.624,86.624,91.624,94.124,96.428,101.428,104.758,109.758,114.758,119.198,124.198,126.978,131.418,133.918,136.222,141.782,149.002,155.672,161.232,163.732,166.036,170.476,174.916,178.806,183.246,187.136,189.636,191.94,196.94,201.38,206.38,208.88,211.184,216.184,220.624,225.064,230.064,232.564,234.868,238.198,242.638,247.638,252.638,255.968,258.748,263.188,268.188,270.688,273.188,275.492,280.492" svgx:width="0.78,0.44,0.28,0.44,0.28,0.5,0.25,0.55,0.5,0.5,0.25,0.55,0.5,0.33,0.5,0.5,0.44,0.5,0.28,0.44,0.25,0.55,0.56,0.72,0.67,0.56,0.25,0.55,0.44,0.44,0.39,0.44,0.39,0.25,0.55,0.5,0.44,0.5,0.25,0.55,0.5,0.44,0.44,0.5,0.25,0.55,0.33,0.44,0.5,0.5,0.33,0.28,0.44,0.5,0.25,0.25,0.55,0.5,0.33" style="fill:rgb(35,31,32);font-family:TimesNewRomanPSMT;font-size:10.0px;stroke:none;">mately 30 probable SARS cases had been reported, of</text>
   <text y="462.434" x="49.6,56.82,61.82,64.6,69.04,74.04,76.583,81.583,86.023,88.803,92.133,94.676,101.896,106.336,109.666,114.106,116.649,121.649,126.089,130.529,133.309,136.089,141.089,145.529,149.969,153.299,157.739,160.282,167.502,172.502,175.832,180.832,185.272,188.602,192.492,194.992,197.535,203.095,207.535,210.865,214.755,219.755,224.755,228.645,231.188,233.968,238.968,241.511,245.951,248.731,251.274,254.054,258.494,262.934,266.824,269.604,272.147,276.037,278.817" svgx:width="0.72,0.5,0.28,0.44,0.5,0.25,0.5,0.44,0.28,0.33,0.25,0.72,0.44,0.33,0.44,0.25,0.5,0.44,0.44,0.28,0.28,0.5,0.44,0.44,0.33,0.44,0.25,0.72,0.5,0.33,0.5,0.44,0.33,0.39,0.25,0.25,0.56,0.44,0.33,0.39,0.5,0.5,0.39,0.25,0.28,0.5,0.25,0.44,0.28,0.25,0.28,0.44,0.44,0.39,0.28,0.25,0.39,0.28,0.5" style="fill:rgb(35,31,32);font-family:TimesNewRomanPSMT;font-size:10.0px;stroke:none;">which half were healthcare workers. Persons in at least six</text>
   <text y="474.434" x="49.6,56.82,61.26,64.59,69.59,73.48,76.283,80.723,85.723,90.723,93.526,96.306,101.306,105.746,108.549,115.219,121.889,129.109,131.912,134.692,139.692,142.315,148.425,154.535,160.095,167.315,170.118,175.118,179.558,184.558,187.361,192.361,196.801,201.241,206.241,209.044,213.484,218.484,223.484,228.484,232.374,236.814,241.814,244.314,247.117,252.117,257.117,259.897,262.7,265.48,270.48,275.48,279.37" svgx:width="0.72,0.44,0.33,0.5,0.39,0.25,0.44,0.5,0.5,0.25,0.28,0.5,0.44,0.25,0.67,0.67,0.72,0.25,0.28,0.5,0.25,0.61,0.61,0.56,0.72,0.25,0.5,0.44,0.5,0.25,0.5,0.44,0.44,0.5,0.25,0.44,0.5,0.5,0.5,0.39,0.44,0.5,0.25,0.25,0.5,0.5,0.28,0.25,0.28,0.5,0.5,0.39,0.44" style="fill:rgb(35,31,32);font-family:TimesNewRomanPSMT;font-size:10.0px;stroke:none;">wards and the CCU in TTSH had been exposed, but those</text>
   <text y="486.434" x="49.6,52.38,57.38,59.83,64.27,69.27,74.27,77.05,79.83,82.61,87.61,92.61,97.05,99.83,102.28,109.5,113.94,117.27,122.27,126.16,128.61,133.05,138.05,143.05,145.83,150.83,153.28,158.28,162.72,167.72,172.16,174.61,179.61,184.05,188.49,193.49,195.94,200.38,205.38,210.38,215.38,219.27,223.71,228.71,231.16,236.16,241.16,245.6,248.05,250.83,255.83,258.28,266.06,271.06,276.06,280.5" svgx:width="0.28,0.5,0.25,0.44,0.5,0.5,0.28,0.28,0.28,0.5,0.5,0.44,0.28,0.25,0.72,0.44,0.33,0.5,0.39,0.25,0.44,0.5,0.5,0.28,0.5,0.25,0.5,0.44,0.5,0.44,0.25,0.5,0.44,0.44,0.5,0.25,0.44,0.5,0.5,0.5,0.39,0.44,0.5,0.25,0.5,0.5,0.44,0.25,0.28,0.5,0.25,0.78,0.5,0.5,0.44,0.33" style="fill:rgb(35,31,32);font-family:TimesNewRomanPSMT;font-size:10.0px;stroke:none;">in additional wards could have been exposed due to move-</text>
   <text y="498.434" x="49.6,57.38,61.82,66.82,69.6,73.49,75.798,80.798,84.128,86.436,89.216,94.216,97.546,101.986,106.426,109.206,113.646,118.646,120.954,125.954,130.394,134.834,137.614,140.394,145.394,149.834,154.274,157.604,162.044,164.352,171.572,176.572,179.902,184.902,189.342,192.672,196.562,199.062,201.19,207.3,212.3,216.74,220.07,224.51,227.84,232.84,236.17,240.61,243.11,245.418,250.418,255.418,257.726,266.616,271.056,274.386,278.826" svgx:width="0.78,0.44,0.5,0.28,0.39,0.25,0.5,0.33,0.25,0.28,0.5,0.33,0.44,0.44,0.28,0.44,0.5,0.25,0.5,0.44,0.44,0.28,0.28,0.5,0.44,0.44,0.33,0.44,0.25,0.72,0.5,0.33,0.5,0.44,0.33,0.39,0.25,0.25,0.61,0.5,0.44,0.33,0.44,0.33,0.5,0.33,0.44,0.25,0.25,0.5,0.5,0.25,0.89,0.44,0.33,0.44,0.5" style="fill:rgb(35,31,32);font-family:TimesNewRomanPSMT;font-size:10.0px;stroke:none;">ments of infected healthcare workers. Therefore, on March</text>
   <text y="510.434" x="49.6,54.6,59.6,62.1,64.908,67.688,72.688,77.128,79.936,84.936,89.376,93.816,96.596,100.486,103.266,108.266,113.266,116.074,123.294,127.734,131.624,134.432,142.212,146.652,151.652,156.092,158.9,161.68,166.68,169.488,173.928,176.708,181.708,185.598,190.038,192.666,198.776,204.886,210.446,217.666,220.444,224.334,227.142,232.142,237.142,240.472,248.252,252.692,255.472,258.28,263.28,268.28,272.72,276.05,280.49" svgx:width="0.5,0.5,0.25,0.25,0.28,0.5,0.44,0.25,0.5,0.44,0.44,0.28,0.39,0.28,0.5,0.5,0.25,0.72,0.44,0.39,0.25,0.78,0.44,0.5,0.44,0.25,0.28,0.5,0.25,0.44,0.28,0.5,0.39,0.44,0.25,0.61,0.61,0.56,0.72,0.33,0.39,0.25,0.5,0.5,0.33,0.78,0.44,0.28,0.25,0.5,0.5,0.44,0.33,0.44,0.33" style="fill:rgb(35,31,32);font-family:TimesNewRomanPSMT;font-size:10.0px;stroke:none;">22, the decision was made to close TTSH’s normal opera-</text>
   <text y="522.434" x="49.6,52.38,55.16,60.16,65.16,69.05,72.291,76.731,81.731,86.731,89.972,94.972,99.412,104.412,107.192,111.632,116.072,118.852,123.292,126.533,129.313,134.313,138.753,141.994,146.994,151.994,155.884,160.884,163.664,166.444,170.884,173.664,176.905,180.795,185.795,188.575,193.015,195.795,200.795,204.036,206.816,211.816,215.057,217.837,221.167,225.607,230.047,232.827,235.607,240.607,245.607,248.848,253.848,257.178,262.178,267.178,271.618,276.618,279.398" svgx:width="0.28,0.28,0.5,0.5,0.39,0.25,0.44,0.5,0.5,0.25,0.5,0.44,0.5,0.28,0.44,0.44,0.28,0.44,0.25,0.28,0.5,0.44,0.25,0.5,0.5,0.39,0.5,0.28,0.28,0.44,0.28,0.25,0.39,0.5,0.28,0.44,0.28,0.5,0.25,0.28,0.5,0.25,0.28,0.33,0.44,0.44,0.28,0.28,0.5,0.5,0.25,0.5,0.33,0.5,0.5,0.44,0.5,0.28,0.44" style="fill:rgb(35,31,32);font-family:TimesNewRomanPSMT;font-size:10.0px;stroke:none;">tions and dedicate the hospital solely to treating probable</text>
   <text y="534.434" x="49.6,54.04,59.04,64.04,66.897,70.787,75.787,79.677,84.677,89.117,93.557,96.337,100.777,105.777,108.634,114.194,121.414,128.084,133.644,136.501,140.941,145.381,149.271,153.711,157.041,162.041,166.481,169.261,172.041,176.481,181.481,184.261,188.151,191.008,194.338,199.898,202.678,207.678,212.678,216.008,220.448,223.305,228.305,231.635,234.135,236.992,240.322,245.322,248.179,250.959,253.739,258.739,263.179,266.036,273.256,276.036,278.816" svgx:width="0.44,0.5,0.5,0.25,0.39,0.5,0.39,0.5,0.44,0.44,0.28,0.44,0.5,0.25,0.56,0.72,0.67,0.56,0.25,0.44,0.44,0.39,0.44,0.33,0.5,0.44,0.28,0.28,0.44,0.5,0.28,0.39,0.25,0.33,0.56,0.28,0.5,0.5,0.33,0.44,0.25,0.5,0.33,0.25,0.25,0.33,0.5,0.25,0.28,0.28,0.5,0.44,0.25,0.72,0.28,0.28,0.5" style="fill:rgb(35,31,32);font-family:TimesNewRomanPSMT;font-size:10.0px;stroke:none;">and suspected SARS case-patients (Figure 2). In line with</text>
   <text y="546.434" x="49.6,52.38,57.38,60.16,64.05,66.979,71.979,76.419,80.859,83.639,87.529,90.309,95.309,100.309,102.809,105.738,110.178,112.958,115.738,118.667,123.667,128.107,132.547,135.327,138.107,143.107,147.547,151.987,155.317,159.757,162.686,169.906,174.906,178.236,183.236,187.676,191.006,194.896,197.825,200.605,205.605,208.534,211.314,216.314,220.754,223.683,228.683,233.683,237.573,242.573,245.353,248.133,252.573,255.353,258.282,262.722,267.722,272.722,277.722,280.502" svgx:width="0.28,0.5,0.28,0.39,0.25,0.5,0.44,0.44,0.28,0.39,0.28,0.5,0.5,0.25,0.25,0.44,0.28,0.28,0.25,0.5,0.44,0.44,0.28,0.28,0.5,0.44,0.44,0.33,0.44,0.25,0.72,0.5,0.33,0.5,0.44,0.33,0.39,0.25,0.28,0.5,0.25,0.28,0.5,0.44,0.25,0.5,0.5,0.39,0.5,0.28,0.28,0.44,0.28,0.25,0.44,0.5,0.5,0.5,0.28,0.33" style="fill:rgb(35,31,32);font-family:TimesNewRomanPSMT;font-size:10.0px;stroke:none;">this decision, all healthcare workers in the hospital adopt-</text>
   <text y="558.434" x="49.6,54.04,59.04,61.453,64.233,69.233,73.673,76.086,81.086,84.976,89.416,91.829,96.829,100.159,102.572,109.792,114.792,119.792,122.205,129.985,134.425,138.315,143.315,147.205,149.705,152.118,157.118,162.118,169.338,174.338,178.228,180.728,183.141,187.581,192.581,197.581,199.994,204.994,207.774,212.774,217.774,222.214,226.104,228.517,232.957,235.737,238.15,242.59,245.37,248.15,250.563,253.343,256.123,263.903,268.343,272.233,274.733,276.594" svgx:width="0.44,0.5,0.25,0.28,0.5,0.44,0.25,0.5,0.39,0.44,0.25,0.5,0.33,0.25,0.72,0.5,0.5,0.25,0.78,0.44,0.39,0.5,0.39,0.25,0.25,0.5,0.5,0.72,0.5,0.39,0.25,0.25,0.44,0.5,0.5,0.25,0.5,0.28,0.5,0.5,0.44,0.39,0.25,0.44,0.28,0.25,0.44,0.28,0.28,0.25,0.28,0.28,0.78,0.44,0.39,0.25,0.25,0.72" style="fill:rgb(35,31,32);font-family:TimesNewRomanPSMT;font-size:10.0px;stroke:none;">ed the use of N95 masks, gowns, and gloves at all times. A</text>
   <text y="570.434" x="49.6,53.49,56.27,59.6,62.38,66.82,69.6,72.1,73.15,76.48,80.92,85.92,88.7,96.48,100.92,105.92,108.42,109.47,112.8,117.8,122.8,125.58,130.58,135.02,140.02,143.35,145.85,146.9,151.9,155.23,157.73,158.78,161.56,166.0,173.78,178.78,183.22,186.55,190.99,193.77,198.77,202.1,206.54,209.04,210.09,213.98,218.98,222.31,227.31,231.75,234.53,237.31,240.09,244.53,249.53,253.97,258.41,260.91,261.96,266.96,270.29,272.79,273.84,278.28,281.06" svgx:width="0.39,0.28,0.33,0.28,0.44,0.28,0.25,0.55,0.33,0.44,0.5,0.28,0.78,0.44,0.5,0.25,0.55,0.33,0.5,0.5,0.28,0.5,0.44,0.5,0.33,0.25,0.55,0.5,0.33,0.25,0.55,0.28,0.44,0.78,0.5,0.44,0.33,0.44,0.28,0.5,0.33,0.44,0.25,0.55,0.39,0.5,0.33,0.5,0.44,0.28,0.28,0.28,0.44,0.5,0.44,0.44,0.25,0.55,0.5,0.33,0.25,0.55,0.44,0.28,0.28" style="fill:rgb(35,31,32);font-family:TimesNewRomanPSMT;font-size:10.0px;stroke:none;">strict regimen (3x/day) of temperature surveillance of all</text>
   <text y="582.434" x="49.6,53.49,56.27,60.71,63.859,67.189,69.486,76.706,81.146,85.036,87.333,91.773,94.553,98.443,103.443,105.74,108.52,113.52,117.41,120.19,122.97,125.75,130.75,133.53,137.97,142.97,145.267,150.267,155.267,157.564,166.454,170.894,174.224,178.664,183.664,185.961,190.961,195.961,198.461,200.758,207.978,210.758,213.538,218.538,220.835,223.615,228.615,233.055,235.352,239.792,242.572,250.352,252.649,257.649,260.979,263.276,266.056,271.056,275.496,280.496" svgx:width="0.39,0.28,0.44,0.33,0.33,0.25,0.72,0.44,0.39,0.25,0.44,0.28,0.39,0.5,0.25,0.28,0.5,0.39,0.28,0.28,0.28,0.5,0.28,0.44,0.5,0.25,0.5,0.5,0.25,0.89,0.44,0.33,0.44,0.5,0.25,0.5,0.5,0.25,0.25,0.72,0.28,0.28,0.5,0.25,0.28,0.5,0.44,0.25,0.44,0.28,0.78,0.25,0.5,0.33,0.25,0.28,0.5,0.44,0.5,0.33" style="fill:rgb(35,31,32);font-family:TimesNewRomanPSMT;font-size:10.0px;stroke:none;">staff was also instituted on March 21, with the aim of iden-</text>
   <text y="594.434" x="49.6,52.38,55.16,58.49,63.49,66.27,71.27,76.27,78.452,82.892,86.041,89.371,93.811,98.251,101.031,105.471,110.471,112.653,116.543,119.323,123.763,126.912,130.242,132.424,136.864,140.754,142.936,147.376,151.816,155.146,157.926,162.926,165.108,169.548,173.438,175.62,180.62,185.62,189.51,193.4,196.18,201.18,203.96,208.4,210.582,215.022,220.022,225.022,227.204,229.984,233.874,238.874,241.654,246.094,248.874,251.654,256.654,261.654,263.836,266.616,271.616,276.056" svgx:width="0.28,0.28,0.33,0.5,0.28,0.5,0.5,0.25,0.44,0.33,0.33,0.44,0.44,0.28,0.44,0.5,0.25,0.39,0.28,0.44,0.33,0.33,0.25,0.44,0.39,0.25,0.44,0.44,0.33,0.28,0.5,0.25,0.44,0.39,0.25,0.5,0.5,0.39,0.39,0.28,0.5,0.28,0.44,0.25,0.44,0.5,0.5,0.25,0.28,0.39,0.5,0.28,0.44,0.28,0.28,0.5,0.5,0.25,0.28,0.5,0.44,0.78" style="fill:rgb(35,31,32);font-family:TimesNewRomanPSMT;font-size:10.0px;stroke:none;">tifying affected staff as early as possible and isolating them</text>
   <text y="606.434" x="49.6,52.38,60.16,67.94,72.38,77.38,80.16,84.6,87.38,91.82,94.6,98.951,101.451,104.251,110.361,115.361,119.801,122.782,127.782,132.782,136.672,141.672,144.452,147.232,151.672,154.452,157.433,160.213,162.993,170.773,173.553,176.333,180.773,185.773,188.754,193.754,196.534,200.424,203.204,205.984,210.984,214.314,218.204,220.984,223.965,228.965,231.745,235.635,238.415,241.195,245.085,248.066,250.846,255.846,258.827,264.387,271.607,278.277" svgx:width="0.28,0.78,0.78,0.44,0.5,0.28,0.44,0.28,0.44,0.28,0.5,0.25,0.25,0.61,0.5,0.44,0.25,0.5,0.5,0.39,0.5,0.28,0.28,0.44,0.28,0.25,0.28,0.28,0.78,0.28,0.28,0.44,0.5,0.25,0.5,0.28,0.39,0.28,0.28,0.5,0.33,0.39,0.28,0.25,0.5,0.28,0.39,0.28,0.28,0.39,0.25,0.28,0.5,0.25,0.56,0.72,0.67,0.56" style="fill:rgb(35,31,32);font-family:TimesNewRomanPSMT;font-size:10.0px;stroke:none;">immediately. The hospital limited visitors; visits to SARS</text>
   <text y="618.434" x="49.6,54.04,58.48,62.37,66.81,70.14,75.14,79.58,82.36,85.14,89.58,94.58,97.36,101.25,103.75,106.174,113.394,117.834,121.164,125.604,128.10399999999998,130.528,133.308,138.308,141.088,143.868,146.648,151.088,153.868,156.648,161.648,164.148,166.572,171.572,176.012,179.342,187.122,189.902,192.682,195.462,199.902,204.902,207.402,209.902,212.326,217.326,222.326,225.106,227.606,230.03,235.03,237.81,241.7,244.48,247.26,252.26,255.59,259.48,261.98,264.404,271.624,276.064,279.394" svgx:width="0.44,0.44,0.39,0.44,0.33,0.5,0.44,0.28,0.28,0.44,0.5,0.28,0.39,0.25,0.55,0.72,0.44,0.33,0.44,0.25,0.55,0.28,0.5,0.28,0.28,0.28,0.44,0.28,0.28,0.5,0.25,0.55,0.5,0.44,0.33,0.78,0.28,0.28,0.28,0.44,0.5,0.25,0.25,0.55,0.5,0.5,0.28,0.25,0.55,0.5,0.28,0.39,0.28,0.28,0.5,0.33,0.39,0.25,0.55,0.72,0.44,0.33,0.44" style="fill:rgb(35,31,32);font-family:TimesNewRomanPSMT;font-size:10.0px;stroke:none;">case-patients were initially permitted, but visitors were</text>
   <text y="630.434" x="49.6,52.93,57.37,62.37,67.37,70.15,73.48,77.92,82.92,85.42,86.983,89.763,94.763,97.263,98.826,103.826,107.716,112.156,114.656,116.219,121.219,125.659,128.989,132.879,137.879,142.879,147.319,150.099,152.599,154.162,159.162,162.492,167.492,170.272,174.712,179.152,181.932,184.712,189.712,194.152,196.652,198.215,202.655,207.655,212.655,215.435,220.435,228.215,232.655,237.655,240.435,242.935,244.498,247.828,250.608,253.108,257.548,260.048,262.548,265.048,266.611,273.831,278.831" svgx:width="0.33,0.44,0.5,0.5,0.28,0.33,0.44,0.5,0.25,0.55,0.28,0.5,0.25,0.55,0.5,0.39,0.44,0.25,0.55,0.5,0.44,0.33,0.39,0.5,0.5,0.44,0.28,0.25,0.55,0.5,0.33,0.5,0.28,0.44,0.44,0.28,0.28,0.5,0.44,0.25,0.55,0.44,0.5,0.5,0.28,0.5,0.78,0.44,0.5,0.28,0.25,0.55,0.33,0.28,0.25,0.44,0.25,0.25,0.25,0.55,0.72,0.5,0.5" style="fill:rgb(35,31,32);font-family:TimesNewRomanPSMT;font-size:10.0px;stroke:none;">required to use personal protective equipment (i.e., N95</text>
   <text y="642.434" x="49.6,57.38,61.82,65.71,70.71,74.6,77.1,79.6,81.096,86.096,91.096,98.316,103.316,107.206,109.706,112.206,113.702,118.142,123.142,128.142,130.642,132.138,137.138,139.918,144.918,149.918,154.358,158.248,161.578,164.078,166.578,167.893,174.512,177.292,181.182,183.962,186.742,191.742,195.072,198.962,201.462,202.958,205.738,210.738,213.238,214.734,219.734,222.514,227.514,231.954,235.284,237.784,239.28,246.5,250.94,254.27,259.27,261.77,263.266,267.706,271.036,275.476,279.916" svgx:width="0.78,0.44,0.39,0.5,0.39,0.25,0.25,0.55,0.5,0.5,0.72,0.5,0.39,0.25,0.25,0.55,0.44,0.5,0.5,0.25,0.55,0.5,0.28,0.5,0.5,0.44,0.39,0.33,0.25,0.25,0.55,0.72,0.28,0.39,0.28,0.28,0.5,0.33,0.39,0.25,0.55,0.28,0.5,0.25,0.55,0.5,0.28,0.5,0.44,0.33,0.25,0.55,0.72,0.44,0.33,0.5,0.25,0.55,0.44,0.33,0.44,0.44,0.39" style="fill:rgb(35,31,32);font-family:TimesNewRomanPSMT;font-size:10.0px;stroke:none;">masks, gowns, and gloves). Visitors to other ward areas</text>
   <text y="654.434" x="49.6,56.82,61.26,64.59,69.03,71.53,74.066,78.506,82.396,87.396,91.836,96.836,99.336,101.872,104.652,109.652,112.152,114.688,119.688,123.578,128.018,130.518,133.054,136.944,141.944,145.093,150.093,152.873,157.313,161.753,164.533,167.033,169.569,177.349,181.789,185.679,190.679,194.569,197.069,199.569,202.105,209.325,214.325,219.325,222.655,228.215,235.435,242.105,247.665,250.165,252.701,257.701,262.141,264.921,267.701,272.141,277.141,279.921" svgx:width="0.72,0.44,0.33,0.44,0.25,0.55,0.44,0.39,0.5,0.44,0.5,0.25,0.55,0.28,0.5,0.25,0.55,0.5,0.39,0.44,0.25,0.55,0.39,0.5,0.33,0.5,0.28,0.44,0.44,0.28,0.25,0.55,0.78,0.44,0.39,0.5,0.39,0.25,0.25,0.55,0.72,0.5,0.5,0.33,0.56,0.72,0.67,0.56,0.25,0.55,0.5,0.44,0.28,0.28,0.44,0.5,0.28,0.39" style="fill:rgb(35,31,32);font-family:TimesNewRomanPSMT;font-size:10.0px;stroke:none;">were asked to use surgical masks. Non-SARS patients</text>
   <text y="666.434" x="49.6,56.82,61.26,64.59,69.03,71.837,76.837,79.617,83.507,87.947,92.947,97.387,100.536,105.536,109.976,114.976,117.783,120.563,123.893,126.7,129.48,134.48,138.92,143.92,146.727,151.727,156.167,161.167,163.974,168.974,173.974,176.781,181.781,186.781,191.781,199.001,204.001,206.808,211.248,216.248,221.248,226.248,230.138,235.138,238.468,242.908,245.715,248.495,253.495,256.302,261.862,269.082,275.752,281.312" svgx:width="0.72,0.44,0.33,0.44,0.25,0.5,0.28,0.39,0.44,0.5,0.44,0.33,0.5,0.44,0.5,0.25,0.28,0.33,0.25,0.28,0.5,0.44,0.5,0.25,0.5,0.44,0.5,0.25,0.5,0.5,0.25,0.5,0.5,0.5,0.72,0.5,0.25,0.44,0.5,0.5,0.5,0.39,0.5,0.33,0.44,0.25,0.28,0.5,0.25,0.56,0.72,0.67,0.56,0.25" style="fill:rgb(35,31,32);font-family:TimesNewRomanPSMT;font-size:10.0px;stroke:none;">were discharged if they had no known exposure to SARS.</text>
   <text y="678.434" x="49.6,55.16,57.94,62.94,67.94,71.27,75.71,78.097,83.097,85.484,89.374,94.374,102.154,109.934,114.374,117.704,120.484,124.924,129.364,133.254,135.641,138.421,143.421,147.861,150.248,153.028,155.808,163.588,168.028,170.808,173.588,178.588,183.028,185.415,190.415,193.745,196.132,200.572,205.572,210.012,215.012,217.792,221.682,224.069,226.849,231.849,234.236,237.016,242.016,246.456,248.843,253.843,258.843,261.623,266.623,269.953,274.393,278.833" svgx:width="0.56,0.28,0.5,0.5,0.33,0.44,0.25,0.5,0.25,0.39,0.5,0.78,0.78,0.44,0.33,0.28,0.44,0.44,0.39,0.25,0.28,0.5,0.44,0.25,0.28,0.28,0.78,0.44,0.28,0.28,0.5,0.44,0.25,0.5,0.33,0.25,0.44,0.5,0.44,0.5,0.28,0.39,0.25,0.28,0.5,0.25,0.28,0.5,0.44,0.25,0.5,0.5,0.28,0.5,0.33,0.44,0.44,0.5" style="fill:rgb(35,31,32);font-family:TimesNewRomanPSMT;font-size:10.0px;stroke:none;">Figure 2 summarizes the timeline of events in the outbreak</text>
   <text y="690.434" x="49.6,54.04,59.04,64.04,66.79,69.57,74.57,79.01,81.76,86.76,91.2,96.2,98.95,103.39,108.39,113.39,116.17,119.5,124.5,127.28,130.03,137.81,142.25,146.69,150.58,155.58,158.91,163.35,167.24,169.99,172.77,177.77,181.66,184.44,187.22,190.0,195.0,197.78,202.22,207.22,209.72" svgx:width="0.44,0.5,0.5,0.25,0.28,0.5,0.44,0.25,0.5,0.44,0.5,0.25,0.44,0.5,0.5,0.28,0.33,0.5,0.28,0.25,0.78,0.44,0.44,0.39,0.5,0.33,0.44,0.39,0.25,0.28,0.5,0.39,0.28,0.28,0.28,0.5,0.28,0.44,0.5,0.25,0.25" style="fill:rgb(35,31,32);font-family:TimesNewRomanPSMT;font-size:10.0px;stroke:none;">and the key control measures instituted. </text>
   <text y="246.052" x="308.544,315.546,321.045,324.042,329.046,334.545,342.546" svgx:width="0.78,0.61,0.33,0.56,0.61,0.89,0.56" style="fill:rgb(35,31,32);font-family:Arial-BoldMT;font-size:9.0px;stroke:none;">Outcome</text>
   <text y="258.052" x="308.544,314.654,319.654,324.094,326.594,327.504,330.284,335.284,338.064,341.394,345.834,350.834,355.834,359.724,364.724,367.504,370.284,374.724,377.504,380.004,380.914,383.694,387.024,391.464,396.464,400.354,408.134,410.914,414.804,418.694,421.474,426.474,431.474,433.974,434.884,439.884,443.214,445.714,446.624,452.184,459.404,466.074,471.634,474.134,475.044,477.824,482.824,486.053,492.163,498.273,503.833,511.053,513.553,514.463,521.683,526.123" svgx:width="0.61,0.5,0.44,0.25,0.55,0.28,0.5,0.28,0.33,0.44,0.5,0.5,0.39,0.5,0.28,0.28,0.44,0.28,0.25,0.55,0.28,0.33,0.44,0.5,0.39,0.78,0.28,0.39,0.39,0.28,0.5,0.5,0.25,0.55,0.5,0.33,0.25,0.55,0.56,0.72,0.67,0.56,0.25,0.55,0.28,0.5,0.25,0.61,0.61,0.56,0.72,0.25,0.55,0.72,0.44,0.39" style="fill:rgb(35,31,32);font-family:TimesNewRomanPSMT;font-size:10.0px;stroke:none;">The intrahospital transmission of SARS in TTSH was</text>
   <text y="270.052" x="295.8,300.24,305.24,310.24,313.02,316.35,321.35,324.13,326.91,331.35,336.35,338.85,342.035,349.255,352.035,354.815,359.815,362.595,367.595,370.095,373.28,378.28,380.78,383.965,391.185,395.625,400.065,405.065,408.955,411.455,414.64,419.64,422.97,425.47,428.655,431.435,436.435,440.325,443.105,445.885,448.665,453.665,456.445,459.225,464.225,469.225,471.725,474.91,477.69,482.69,487.13,489.63,492.815,500.595,505.035,509.475,513.365,518.365,521.695,526.135" svgx:width="0.44,0.5,0.5,0.28,0.33,0.5,0.28,0.28,0.44,0.5,0.25,0.55,0.72,0.28,0.28,0.5,0.28,0.5,0.25,0.55,0.5,0.25,0.55,0.72,0.44,0.44,0.5,0.39,0.25,0.55,0.5,0.33,0.25,0.55,0.28,0.5,0.39,0.28,0.28,0.28,0.5,0.28,0.28,0.5,0.5,0.25,0.55,0.28,0.5,0.44,0.25,0.55,0.78,0.44,0.44,0.39,0.5,0.33,0.44,0.39" style="fill:rgb(35,31,32);font-family:TimesNewRomanPSMT;font-size:10.0px;stroke:none;">controlled within 3 weeks of instituting the measures</text>
   <text y="282.052" x="295.8,299.13,304.69,307.47,312.47,317.47,320.8,325.24,327.445,332.445,335.775,338.275,340.48,343.81,348.81,351.015,354.345,358.785,361.565,364.895,369.895,373.785,378.785,383.225,387.665,390.445,392.945,395.15,397.93,401.26,403.465,411.245,416.245,419.575,424.015,426.22,431.22,434.55,438.99,442.88,445.66,448.44,452.88,455.085,462.865,467.305,471.745,475.635,480.635,483.965,488.405,492.295,494.5,499.5,503.94,508.94,511.145,516.145,520.585,525.025" svgx:width="0.33,0.56,0.28,0.5,0.5,0.33,0.44,0.25,0.5,0.33,0.25,0.25,0.33,0.5,0.25,0.33,0.44,0.28,0.33,0.5,0.39,0.5,0.44,0.44,0.28,0.25,0.25,0.28,0.33,0.25,0.78,0.5,0.33,0.44,0.25,0.5,0.33,0.44,0.39,0.28,0.28,0.44,0.25,0.78,0.44,0.44,0.39,0.5,0.33,0.44,0.39,0.25,0.5,0.44,0.5,0.25,0.5,0.44,0.44,0.5" style="fill:rgb(35,31,32);font-family:TimesNewRomanPSMT;font-size:10.0px;stroke:none;">(Figure 1). In retrospect, if more drastic measures had been</text>
   <text y="294.052" x="295.8,298.58,306.36,311.36,314.14,318.58,326.36,330.8,335.8,338.58,343.02,348.02,350.288,355.288,360.288,362.556,371.446,375.886,379.216,383.656,388.656,390.924,395.924,400.924,403.192,406.522,413.742,418.742,423.182,428.182,430.45,436.01,443.23,449.9,455.46,457.728,464.948,469.388,473.278,475.546,478.876,483.316,487.756,492.756,497.756,502.756,505.536,509.976,514.416,519.416,521.684,526.124" svgx:width="0.28,0.78,0.5,0.28,0.44,0.78,0.44,0.5,0.28,0.44,0.5,0.25,0.5,0.5,0.25,0.89,0.44,0.33,0.44,0.5,0.25,0.5,0.5,0.25,0.33,0.72,0.5,0.44,0.5,0.25,0.56,0.72,0.67,0.56,0.25,0.72,0.44,0.39,0.25,0.33,0.44,0.44,0.5,0.5,0.5,0.28,0.44,0.44,0.5,0.25,0.44,0.39" style="fill:rgb(35,31,32);font-family:TimesNewRomanPSMT;font-size:10.0px;stroke:none;">implemented on March 15 (when SARS was recognized as</text>
   <text y="306.052" x="295.8,298.58,303.58,308.02,311.128,316.128,321.128,323.908,328.908,332.238,336.678,341.118,346.118,348.896,352.786,355.894,360.334,364.774,369.774,373.664,378.104,381.434,383.934,387.042,389.822,394.822,399.262,402.37,406.81,411.81,416.81,419.59,424.03,426.81,431.81,439.59,444.03,449.03,451.81,454.918,459.918,463.248,466.356,471.916,479.136,485.806,491.366,494.474,497.254,502.254,505.584,510.024,514.464,517.244,520.024,525.024" svgx:width="0.28,0.5,0.44,0.25,0.5,0.5,0.28,0.5,0.33,0.44,0.44,0.5,0.33,0.39,0.25,0.44,0.44,0.5,0.39,0.44,0.33,0.25,0.25,0.28,0.5,0.44,0.25,0.44,0.5,0.5,0.28,0.44,0.28,0.5,0.78,0.44,0.5,0.28,0.25,0.5,0.33,0.25,0.56,0.72,0.67,0.56,0.25,0.28,0.5,0.33,0.44,0.44,0.28,0.28,0.5,0.5" style="fill:rgb(35,31,32);font-family:TimesNewRomanPSMT;font-size:10.0px;stroke:none;">the outbreak’s cause), the containment of SARS infection</text>
   <text y="318.052" x="295.8,298.58,303.58,306.08,307.257,313.367,319.477,325.037,332.257,334.757,336.114,340.554,345.554,350.554,353.054,354.411,359.971,362.751,367.751,372.751,377.191,382.191,387.191,390.521,394.961,397.461,398.818,403.258,408.258,413.258,416.038,421.038,423.538,424.895,429.895,434.335,439.335,443.775,446.275,447.632,452.632,457.072,461.512,466.512,469.012,470.369,474.809,479.249,483.689,488.129,490.909,495.349,498.679,503.119,505.899,510.339,515.339,517.839,520.339,521.696,525.026" svgx:width="0.28,0.5,0.25,0.55,0.61,0.61,0.56,0.72,0.25,0.55,0.44,0.5,0.5,0.25,0.55,0.56,0.28,0.5,0.5,0.44,0.5,0.5,0.33,0.44,0.25,0.55,0.44,0.5,0.5,0.28,0.5,0.25,0.55,0.5,0.44,0.5,0.44,0.25,0.55,0.5,0.44,0.44,0.5,0.25,0.55,0.44,0.44,0.44,0.44,0.28,0.44,0.33,0.44,0.28,0.44,0.5,0.25,0.25,0.55,0.33,0.5" style="fill:rgb(35,31,32);font-family:TimesNewRomanPSMT;font-size:10.0px;stroke:none;">in TTSH and Singapore could have been accelerated. In</text>
   <text y="330.052" x="295.8,300.24,305.24,310.24,313.02,317.46,320.24,325.24,328.02,333.02,338.02,340.692,343.472,348.472,352.912,355.404,361.514,367.624,373.184,380.404,383.076,388.076,393.076,395.856,400.856,404.186,408.626,413.066,418.066,420.566,423.238,426.018,431.018,435.458,438.13,440.91,445.91,450.35,455.35,458.13,460.91,463.69,466.47,471.47,474.142,476.922,481.922,484.594,487.924,492.364,497.364,500.144,505.144,507.924,512.924,515.596,520.036,525.036" svgx:width="0.44,0.5,0.5,0.28,0.44,0.28,0.5,0.28,0.5,0.5,0.25,0.28,0.5,0.44,0.25,0.61,0.61,0.56,0.72,0.25,0.5,0.5,0.28,0.5,0.33,0.44,0.44,0.5,0.25,0.25,0.28,0.5,0.44,0.25,0.28,0.5,0.44,0.5,0.28,0.28,0.28,0.28,0.5,0.25,0.28,0.5,0.25,0.33,0.44,0.5,0.28,0.5,0.28,0.5,0.25,0.44,0.5,0.5" style="fill:rgb(35,31,32);font-family:TimesNewRomanPSMT;font-size:10.0px;stroke:none;">containing the TTSH outbreak, the inability to rapidly and</text>
   <text y="342.052" x="295.8,300.24,305.24,313.02,318.02,320.8,325.24,328.02,332.46,335.24,340.24,342.787,345.567,350.567,355.007,360.007,362.787,365.567,368.897,373.897,376.444,380.884,383.664,386.444,388.991,393.431,398.431,403.431,408.431,412.321,416.761,421.761,424.308,429.308,433.748,437.078,440.968,445.968,450.968,454.858,457.405,464.625,469.065,472.955,475.502,479.942,482.489,490.269,494.709,497.489,502.489,505.819,508.366,513.366,516.696,521.696,526.696" svgx:width="0.44,0.5,0.78,0.5,0.28,0.44,0.28,0.44,0.28,0.5,0.25,0.28,0.5,0.44,0.5,0.28,0.28,0.33,0.5,0.25,0.44,0.28,0.28,0.25,0.44,0.5,0.5,0.5,0.39,0.44,0.5,0.25,0.5,0.44,0.33,0.39,0.5,0.5,0.39,0.25,0.72,0.44,0.39,0.25,0.44,0.25,0.78,0.44,0.28,0.5,0.33,0.25,0.5,0.33,0.5,0.5,0.33" style="fill:rgb(35,31,32);font-family:TimesNewRomanPSMT;font-size:10.0px;stroke:none;">completely identify all exposed persons was a major prob-</text>
   <text y="354.052" x="295.8,298.58,303.02,310.8,313.3,315.8,316.588,324.368,328.808,331.588,336.588,339.368,344.368,346.868,347.656,352.656,357.656,362.096,364.596,365.384,368.164,373.164,375.664,376.452,379.232,384.232,388.672,391.172,391.96,396.4,401.4,405.29,409.73,414.73,419.17,423.61,426.11,426.898,431.898,435.228,437.728,438.516,443.516,446.296,450.186,452.966,455.746,460.746,464.076,466.576,467.364,470.694,475.134,479.574,484.574,487.904,492.904,496.794,499.294,500.082,504.522,509.522,514.522,517.022,517.81,520.59,525.59" svgx:width="0.28,0.44,0.78,0.25,0.25,0.55,0.78,0.44,0.28,0.5,0.28,0.5,0.25,0.55,0.5,0.5,0.44,0.25,0.55,0.28,0.5,0.25,0.55,0.28,0.5,0.44,0.25,0.55,0.44,0.5,0.39,0.44,0.5,0.44,0.44,0.25,0.55,0.5,0.33,0.25,0.55,0.5,0.28,0.39,0.28,0.28,0.5,0.33,0.25,0.55,0.33,0.44,0.44,0.5,0.33,0.5,0.39,0.25,0.55,0.44,0.5,0.5,0.25,0.55,0.28,0.5,0.44" style="fill:rgb(35,31,32);font-family:TimesNewRomanPSMT;font-size:10.0px;stroke:none;">lem, mainly due to the absence of visitor records and the</text>
   <text y="366.052" x="295.8,300.8,303.58,308.58,313.58,315.777,319.107,322.437,326.877,331.877,336.877,341.317,346.317,350.757,355.757,357.954,362.394,367.394,372.394,374.591,379.031,384.031,391.811,396.811,399.591,404.031,409.031,411.811,414.591,419.591,421.788,426.788,430.118,432.315,437.315,441.755,444.535,447.315,451.755,456.755,459.535,462.865,467.865,472.305,476.745,479.525,482.305,487.305,491.745,496.185,499.515,503.955,506.152,513.372,518.372,521.702,526.702" svgx:width="0.5,0.28,0.5,0.5,0.25,0.33,0.33,0.44,0.5,0.5,0.44,0.5,0.44,0.5,0.25,0.44,0.5,0.5,0.25,0.44,0.5,0.78,0.5,0.28,0.44,0.5,0.28,0.28,0.5,0.25,0.5,0.33,0.25,0.5,0.44,0.28,0.28,0.44,0.5,0.28,0.33,0.5,0.44,0.44,0.28,0.28,0.5,0.44,0.44,0.33,0.44,0.25,0.72,0.5,0.33,0.5,0.33" style="fill:rgb(35,31,32);font-family:TimesNewRomanPSMT;font-size:10.0px;stroke:none;">high frequency and complexity of patient-healthcare work-</text>
   <text y="378.052" x="295.8,300.24,303.57,306.367,310.807,315.807,320.807,323.587,328.027,332.467,335.247,339.137,341.934,346.374,351.374,356.374,359.171,366.951,371.951,376.951,381.391,389.171,393.611,398.611,401.391,405.281,407.781,410.578,417.798,422.238,426.678,429.458,432.238,437.238,441.678,446.118,449.448,453.888,456.685,463.905,468.905,472.235,477.235,481.675,485.005,488.895,491.692,498.912,503.352,506.682,511.122,513.919,518.359,521.139,525.029" svgx:width="0.44,0.33,0.25,0.44,0.5,0.5,0.28,0.44,0.44,0.28,0.39,0.25,0.44,0.5,0.5,0.25,0.78,0.5,0.5,0.44,0.78,0.44,0.5,0.28,0.39,0.25,0.25,0.72,0.44,0.44,0.28,0.28,0.5,0.44,0.44,0.33,0.44,0.25,0.72,0.5,0.33,0.5,0.44,0.33,0.39,0.25,0.72,0.44,0.33,0.44,0.25,0.44,0.28,0.39,0.5" style="fill:rgb(35,31,32);font-family:TimesNewRomanPSMT;font-size:10.0px;stroke:none;">er contacts and movements. Healthcare workers were also</text>
   <text y="390.052" x="295.8,300.8,305.8,308.58,311.08,312.375,317.375,321.265,324.045,329.045,334.045,336.545,337.84,341.17,346.17,348.95,351.73,354.23,355.525,360.525,364.965,368.295,372.185,377.185,382.185,386.625,389.405,391.905,393.2,398.2,401.53,406.53,409.31,413.75,418.19,420.97,423.75,428.75,433.19,435.69,436.985,441.425,446.425,451.425,454.205,459.205,466.985,471.425,476.425,479.205,481.705,483.0,486.33,491.33,494.66,497.16,498.455,506.235,511.235,515.125,517.905,520.405,521.7,526.7" svgx:width="0.5,0.5,0.28,0.25,0.55,0.5,0.39,0.28,0.5,0.5,0.25,0.55,0.33,0.5,0.28,0.28,0.25,0.55,0.5,0.44,0.33,0.39,0.5,0.5,0.44,0.28,0.25,0.55,0.5,0.33,0.5,0.28,0.44,0.44,0.28,0.28,0.5,0.44,0.25,0.55,0.44,0.5,0.5,0.28,0.5,0.78,0.44,0.5,0.28,0.25,0.55,0.33,0.5,0.33,0.25,0.55,0.78,0.5,0.39,0.28,0.25,0.55,0.5,0.33" style="fill:rgb(35,31,32);font-family:TimesNewRomanPSMT;font-size:10.0px;stroke:none;">not using full personal protective equipment for most of</text>
   <text y="402.052" x="295.8,298.58,303.58,308.02,310.8,313.55,316.33,319.11,326.89,331.33,333.83" svgx:width="0.28,0.5,0.44,0.28,0.25,0.28,0.28,0.78,0.44,0.25,0.25" style="fill:rgb(35,31,32);font-family:TimesNewRomanPSMT;font-size:10.0px;stroke:none;">that time. </text>
   <text y="414.052" x="308.544,311.874,315.204,318.242,322.682,325.462,328.242,331.28,335.72,340.72,345.72,348.5,352.94,357.38,360.16,364.05,367.088,372.088,375.418,378.456,381.236,386.236,390.676,393.714,396.494,401.494,404.274,407.054,409.834,414.274,417.054,420.092,425.652,432.872,439.542,445.102,448.14,452.58,457.02,460.91,465.35,468.68,473.68,478.12,480.9,483.68,488.12,493.12,495.9,499.79,502.828,507.828,512.268,515.048,519.488,523.928,526.708" svgx:width="0.33,0.33,0.25,0.44,0.28,0.28,0.25,0.44,0.5,0.5,0.28,0.44,0.44,0.28,0.39,0.25,0.5,0.33,0.25,0.28,0.5,0.44,0.25,0.28,0.5,0.28,0.28,0.28,0.44,0.28,0.25,0.56,0.72,0.67,0.56,0.25,0.44,0.44,0.39,0.44,0.33,0.5,0.44,0.28,0.28,0.44,0.5,0.28,0.39,0.25,0.5,0.44,0.28,0.44,0.44,0.28,0.33" style="fill:rgb(35,31,32);font-family:TimesNewRomanPSMT;font-size:10.0px;stroke:none;">If all contacts of the initial SARS case-patients detect-</text>
   <text y="426.052" x="295.8,300.24,305.24,307.74,309.077,314.077,319.077,321.577,322.914,331.804,336.244,339.574,344.014,349.014,351.514,352.851,357.851,362.851,365.351,366.688,371.688,376.128,381.128,383.628,384.965,389.965,394.405,398.845,403.845,406.345,407.682,410.462,415.462,419.902,424.902,427.682,430.462,433.792,436.572,441.012,446.012,448.512,451.012,452.349,457.349,461.789,464.569,467.349,471.789,476.789,479.569,482.069,482.855,490.075,497.295,504.495,507.801,512.241,517.241,522.241,525.021" svgx:width="0.44,0.5,0.25,0.55,0.5,0.5,0.25,0.55,0.89,0.44,0.33,0.44,0.5,0.25,0.55,0.5,0.5,0.25,0.55,0.5,0.44,0.5,0.25,0.55,0.5,0.44,0.44,0.5,0.25,0.55,0.28,0.5,0.44,0.5,0.28,0.28,0.33,0.28,0.44,0.5,0.25,0.25,0.55,0.5,0.44,0.28,0.28,0.44,0.5,0.28,0.25,0.55,0.72,0.72,0.72,0.55,0.44,0.5,0.5,0.28,0.5" style="fill:rgb(35,31,32);font-family:TimesNewRomanPSMT;font-size:10.0px;stroke:none;">ed on March 15 had been identified, patient AAA could</text>
   <text y="438.052" x="295.8,300.8,305.24,310.24,314.68,317.71,322.71,327.15,331.59,336.59,339.62,344.06,348.5,351.83,356.27,361.27,364.3,367.63,372.63,375.96,378.99,381.77,386.77,389.8,392.58,396.47,401.47,404.25,408.69,411.47,414.25,419.25,424.25,427.28,430.06,435.06,438.09,444.76,451.43,458.65,461.68,466.68,471.68,474.71,478.6,481.38,485.82,488.97,492.3,495.33,502.55,505.33,508.11,513.11,516.14,519.47,524.47,527.25" svgx:width="0.5,0.44,0.5,0.44,0.25,0.5,0.44,0.44,0.5,0.25,0.44,0.44,0.33,0.44,0.5,0.25,0.33,0.5,0.33,0.25,0.28,0.5,0.25,0.28,0.39,0.5,0.28,0.44,0.28,0.28,0.5,0.5,0.25,0.28,0.5,0.25,0.67,0.67,0.72,0.25,0.5,0.5,0.25,0.39,0.28,0.44,0.33,0.33,0.25,0.72,0.28,0.28,0.5,0.25,0.33,0.5,0.28,0.28" style="fill:rgb(35,31,32);font-family:TimesNewRomanPSMT;font-size:10.0px;stroke:none;">have been cared for in isolation in CCU by staff with full</text>
   <text y="450.052" x="295.8,300.8,305.24,308.57,312.46,317.46,322.46,326.9,329.68,332.655,337.655,340.985,345.985,348.765,353.205,357.645,360.425,363.205,368.205,372.645,375.62,380.06,385.06,390.06,392.84,397.84,405.62,410.06,415.06,417.84,420.34,422.763,429.983,432.763,435.738,438.518,442.958,447.398,451.288,454.068,457.043,462.043,467.043,470.018,475.018,478.348,481.323,484.103,489.103,493.543,496.518,501.518,506.518,509.493,513.933,518.373,522.263,526.703" svgx:width="0.5,0.44,0.33,0.39,0.5,0.5,0.44,0.28,0.25,0.5,0.33,0.5,0.28,0.44,0.44,0.28,0.28,0.5,0.44,0.25,0.44,0.5,0.5,0.28,0.5,0.78,0.44,0.5,0.28,0.25,0.25,0.72,0.28,0.25,0.28,0.44,0.44,0.39,0.28,0.25,0.5,0.5,0.25,0.5,0.33,0.25,0.28,0.5,0.44,0.25,0.5,0.5,0.25,0.44,0.44,0.39,0.44,0.33" style="fill:rgb(35,31,32);font-family:TimesNewRomanPSMT;font-size:10.0px;stroke:none;">personal protective equipment. At least 22 of the 27 case-</text>
   <text y="462.052" x="295.8,300.8,305.24,308.02,310.8,315.24,320.24,323.02,326.91,329.41,331.813,334.593,339.593,342.923,347.363,351.803,354.583,359.023,364.023,366.523,368.926,373.926,378.926,381.426,383.829,388.829,393.269,396.049,398.829,403.269,408.269,411.049,413.549,415.4,422.62,429.84,437.03999999999996,441.411,444.191,449.191,451.691,454.094,456.874,461.874,466.314,468.814,471.217,477.887,484.557,491.777,494.277,496.68,501.68,506.68,510.57,514.46,517.24,522.24,525.02" svgx:width="0.5,0.44,0.28,0.28,0.44,0.5,0.28,0.39,0.25,0.55,0.28,0.5,0.33,0.44,0.44,0.28,0.44,0.5,0.25,0.55,0.5,0.5,0.25,0.55,0.5,0.44,0.28,0.28,0.44,0.5,0.28,0.25,0.55,0.72,0.72,0.72,0.55,0.28,0.5,0.25,0.55,0.28,0.5,0.44,0.25,0.55,0.67,0.67,0.72,0.25,0.55,0.5,0.5,0.39,0.39,0.28,0.5,0.28,0.5" style="fill:rgb(35,31,32);font-family:TimesNewRomanPSMT;font-size:10.0px;stroke:none;">patients infected by patient AAA in the CCU possibly</text>
   <text y="474.052" x="295.8,300.24,305.24,310.24,313.02,318.02,320.77,325.77,330.21,335.21,339.65,342.4,347.4,351.84,356.28,361.28,364.03,369.03,372.36,376.8,381.8,386.24,391.24,394.02,398.46,403.46,405.96" svgx:width="0.44,0.5,0.5,0.28,0.5,0.25,0.5,0.44,0.5,0.44,0.25,0.5,0.44,0.44,0.5,0.25,0.5,0.33,0.44,0.5,0.44,0.5,0.28,0.44,0.5,0.25,0.25" style="fill:rgb(35,31,32);font-family:TimesNewRomanPSMT;font-size:10.0px;stroke:none;">could have been prevented. </text>
   <text y="486.052" x="308.544,314.654,319.654,324.094,326.594,329.16,334.16,336.94,340.83,345.27,350.27,354.71,357.859,362.859,367.299,369.799,372.365,377.365,380.695,383.195,385.761,390.761,395.201,397.981,400.761,405.201,410.201,412.981,415.481,418.047,424.717,427.217,429.783,433.113,436.443,441.443,449.223,451.723,454.289,457.069,462.069,466.509,469.009,471.575,475.465,479.905,487.685,492.125,494.625,497.191,504.411,508.851,512.181,517.181,519.681,522.247,525.027" svgx:width="0.61,0.5,0.44,0.25,0.55,0.5,0.28,0.39,0.44,0.5,0.44,0.33,0.5,0.44,0.25,0.55,0.5,0.33,0.25,0.55,0.5,0.44,0.28,0.28,0.44,0.5,0.28,0.25,0.55,0.67,0.25,0.55,0.33,0.33,0.5,0.78,0.25,0.55,0.28,0.5,0.44,0.25,0.55,0.39,0.44,0.78,0.44,0.25,0.55,0.72,0.44,0.33,0.5,0.25,0.55,0.28,0.5" style="fill:rgb(35,31,32);font-family:TimesNewRomanPSMT;font-size:10.0px;stroke:none;">The discharge of patient B from the same ward in</text>
   <text y="498.052" x="295.8,301.91,308.02,313.58,320.8,323.743,328.183,332.073,335.016,340.016,344.456,347.236,350.016,354.456,359.456,362.236,364.628,371.828,374.24,381.46,385.9,389.79,392.733,397.173,402.173,407.173,409.953,414.953,419.393,422.723,425.666,428.996,433.436,437.876,440.656,445.656,448.986,451.929,459.149,464.149,466.929,471.369,476.369,479.312,482.092,486.532,491.532,494.475,497.255,502.255,505.585,510.025,514.465,517.245,520.025,525.025" svgx:width="0.61,0.61,0.56,0.72,0.25,0.44,0.39,0.25,0.5,0.44,0.28,0.28,0.44,0.5,0.28,0.25,0.72,0.55,0.72,0.44,0.39,0.25,0.44,0.5,0.5,0.28,0.5,0.44,0.33,0.25,0.33,0.44,0.44,0.28,0.5,0.33,0.25,0.72,0.5,0.28,0.44,0.5,0.25,0.28,0.44,0.5,0.25,0.28,0.5,0.33,0.44,0.44,0.28,0.28,0.5,0.5" style="fill:rgb(35,31,32);font-family:TimesNewRomanPSMT;font-size:10.0px;stroke:none;">TTSH as patient A was another factor which led infection</text>
   <text y="510.052" x="295.8,298.58,303.58,306.08,307.072,310.962,315.962,319.292,323.732,328.172,333.172,335.672,336.664,339.444,344.444,346.944,347.936,353.496,360.716,367.936,370.436,372.936,373.928,379.488,383.928,386.708,389.488,393.928,398.928,401.708,404.208,405.2,411.87,414.37,415.362,420.362,424.802,429.802,432.302,433.294,438.294,443.294,446.074,448.574,449.566,454.566,459.006,463.446,468.446,470.946,471.938,474.718,479.718,484.158,489.158,491.938,494.718,498.048,500.828,505.268,510.268,512.768,513.76,518.2,522.09,524.59,525.582" svgx:width="0.28,0.5,0.25,0.55,0.39,0.5,0.33,0.44,0.44,0.5,0.25,0.55,0.28,0.5,0.25,0.55,0.56,0.72,0.72,0.25,0.25,0.55,0.56,0.44,0.28,0.28,0.44,0.5,0.28,0.25,0.55,0.67,0.25,0.55,0.5,0.44,0.5,0.25,0.55,0.5,0.5,0.28,0.25,0.55,0.5,0.44,0.44,0.5,0.25,0.55,0.28,0.5,0.44,0.5,0.28,0.28,0.33,0.28,0.44,0.5,0.25,0.55,0.44,0.39,0.25,0.55,0.44" style="fill:rgb(35,31,32);font-family:TimesNewRomanPSMT;font-size:10.0px;stroke:none;">to spread to SGH. Patient B had not been identified as a</text>
   <text y="522.052" x="295.8,300.24,305.24,310.24,313.02,317.46,321.9,324.68,327.18,329.288,334.288,337.618,340.118,342.226,347.226,351.666,354.446,357.226,361.666,366.666,369.446,371.946,373.503,380.703,384.78,389.22,392.0,394.5,396.608,399.388,404.388,408.828,411.608,414.108,416.216,418.996,421.776,429.556,433.996,436.496,438.604,443.044,448.044,453.044,455.544,457.652,464.872,469.312,473.202,475.702,477.81,481.7,486.7,491.7,495.59,500.03,505.03,510.03,514.47,519.47,522.25,525.03" svgx:width="0.44,0.5,0.5,0.28,0.44,0.44,0.28,0.25,0.55,0.5,0.33,0.25,0.55,0.5,0.44,0.28,0.28,0.44,0.5,0.28,0.25,0.55,0.72,0.55,0.44,0.28,0.25,0.55,0.28,0.5,0.44,0.28,0.25,0.55,0.28,0.28,0.78,0.44,0.25,0.55,0.44,0.5,0.5,0.25,0.55,0.72,0.44,0.39,0.25,0.55,0.39,0.5,0.5,0.39,0.44,0.5,0.5,0.44,0.5,0.28,0.28,0.5" style="fill:rgb(35,31,32);font-family:TimesNewRomanPSMT;font-size:10.0px;stroke:none;">contact of patient A at that time and was subsequently</text>
   <text y="534.052" x="295.8,299.13,303.57,308.01,313.01,320.79,323.57,326.35,329.13,333.57,338.57,340.774,343.554,348.554,350.758,355.198,360.198,362.402,367.402,372.402,376.842,381.842,384.046,391.266,395.706,399.036,404.036,406.24,409.02,414.02,416.224,421.784,429.004,436.224,438.724,440.928,444.258,449.258,451.462,454.792,459.232,462.012,465.342,470.342,474.232,479.232,483.672,488.112,490.892,493.392,495.596,502.816,507.256,509.46,512.24,517.24,520.02,525.02" svgx:width="0.33,0.44,0.44,0.5,0.78,0.28,0.28,0.28,0.44,0.5,0.25,0.28,0.5,0.25,0.44,0.5,0.25,0.5,0.5,0.44,0.5,0.25,0.72,0.44,0.33,0.5,0.25,0.28,0.5,0.25,0.56,0.72,0.72,0.25,0.25,0.33,0.5,0.25,0.33,0.44,0.28,0.33,0.5,0.39,0.5,0.44,0.44,0.28,0.25,0.25,0.72,0.44,0.25,0.28,0.5,0.28,0.5,0.5" style="fill:rgb(35,31,32);font-family:TimesNewRomanPSMT;font-size:10.0px;stroke:none;">readmitted to an open ward in SGH. In retrospect, we think</text>
   <text y="546.052" x="295.8,298.58,303.58,308.02,310.8,313.118,315.898,319.228,321.546,325.986,328.766,331.546,333.864,338.864,341.644,345.534,349.974,354.974,359.414,362.563,367.563,372.003,375.893,378.211,381.541,384.871,389.871,397.651,399.969,404.409,407.558,410.888,415.328,419.768,422.548,426.988,431.988,434.306,438.746,442.076,446.516,450.956,454.846,457.164,459.944,464.944,467.081,473.191,479.301,484.861,492.081,494.399,499.399,503.839,508.839,511.157,516.157,520.597,525.037" svgx:width="0.28,0.5,0.44,0.28,0.25,0.28,0.33,0.25,0.44,0.28,0.28,0.25,0.5,0.28,0.39,0.44,0.5,0.44,0.33,0.5,0.44,0.39,0.25,0.33,0.33,0.5,0.78,0.25,0.44,0.33,0.33,0.44,0.44,0.28,0.44,0.5,0.25,0.44,0.33,0.44,0.44,0.39,0.25,0.28,0.5,0.25,0.61,0.61,0.56,0.72,0.25,0.5,0.44,0.5,0.25,0.5,0.44,0.44,0.5" style="fill:rgb(35,31,32);font-family:TimesNewRomanPSMT;font-size:10.0px;stroke:none;">that if all discharges from affected areas in TTSH had been</text>
   <text y="558.052" x="295.8,299.69,302.47,307.47,312.47,317.47,321.91,326.91,329.249,334.249,339.249,341.588,350.478,354.918,358.248,362.688,367.688,370.027,375.027,380.027,382.527,384.866,387.646,392.646,397.086,399.425,404.425,409.425,411.764,416.764,420.094,425.094,430.094,434.534,439.534,442.314,446.754,449.093,454.653,461.873,468.543,474.103,476.442,480.882,485.322,489.212,493.652,497.542,499.881,502.661,507.661,510.0,515.56,522.78" svgx:width="0.39,0.28,0.5,0.5,0.5,0.44,0.5,0.25,0.5,0.5,0.25,0.89,0.44,0.33,0.44,0.5,0.25,0.5,0.5,0.25,0.25,0.28,0.5,0.44,0.25,0.5,0.5,0.25,0.5,0.33,0.5,0.5,0.44,0.5,0.28,0.44,0.25,0.56,0.72,0.67,0.56,0.25,0.44,0.44,0.39,0.44,0.39,0.25,0.28,0.5,0.25,0.56,0.72,0.72" style="fill:rgb(35,31,32);font-family:TimesNewRomanPSMT;font-size:10.0px;stroke:none;">stopped on March 15, the 60 probable SARS cases in SGH</text>
   <text y="570.052" x="295.8,298.58,301.36,306.36,311.36,315.8,320.8,323.55,326.33,331.33,334.08,339.08,343.52,346.3,349.08,353.52,358.52,361.3,364.05,370.72,373.47,381.25,384.03,389.03,394.03,396.81,399.56,404.56,409.0,414.0,418.44,421.19,426.19,430.63,435.07,440.07,442.82,447.82,451.15,455.59,460.59,465.03,470.03,472.81,477.25,482.25" svgx:width="0.28,0.28,0.5,0.5,0.44,0.5,0.25,0.28,0.5,0.25,0.5,0.44,0.28,0.28,0.44,0.5,0.28,0.25,0.67,0.25,0.78,0.28,0.5,0.5,0.28,0.25,0.5,0.44,0.5,0.44,0.25,0.5,0.44,0.44,0.5,0.25,0.5,0.33,0.44,0.5,0.44,0.5,0.28,0.44,0.5,0.25" style="fill:rgb(35,31,32);font-family:TimesNewRomanPSMT;font-size:10.0px;stroke:none;">linked to patient B might have been prevented.</text>
   <text y="582.052" x="308.544,311.874,316.874,320.204,325.204,329.644,334.644,337.424,342.424,344.621,347.401,352.401,355.181,359.621,362.951,367.951,370.731,375.171,382.391,386.281,388.478,391.258,396.258,398.455,403.455,407.895,410.675,415.115,418.445,426.225,429.005,434.005,438.445,440.642,443.422,448.422,452.862,455.059,459.499,464.499,467.279,472.279,476.719,484.499,487.279,492.279,495.059,500.059,505.059,507.839,512.279,514.476,517.256,520.036,525.036" svgx:width="0.33,0.5,0.33,0.5,0.44,0.5,0.28,0.5,0.25,0.28,0.5,0.28,0.44,0.33,0.5,0.28,0.44,0.72,0.39,0.25,0.28,0.5,0.25,0.5,0.44,0.28,0.44,0.33,0.78,0.28,0.5,0.44,0.25,0.28,0.5,0.44,0.25,0.44,0.5,0.28,0.5,0.44,0.78,0.28,0.5,0.28,0.5,0.5,0.28,0.44,0.25,0.28,0.28,0.5,0.5" style="fill:rgb(35,31,32);font-family:TimesNewRomanPSMT;font-size:10.0px;stroke:none;">In-depth interviews to determine the epidemiologic link</text>
   <text y="594.052" x="295.8,300.8,304.13,306.887,312.447,319.667,326.337,331.897,334.654,339.094,343.534,347.424,351.864,355.194,360.194,364.634,367.414,370.194,374.634,379.634,382.414,386.304,389.061,391.841,396.841,401.281,404.061,406.818,411.258,414.588,419.588,423.478,427.918,430.675,435.115,438.445,441.225,445.665,448.995,451.752,460.642,465.082,468.412,472.852,477.852,480.609,485.609,490.609,493.366,496.146,501.146,506.146,508.926,513.366,517.806,520.586,525.026" svgx:width="0.5,0.33,0.25,0.56,0.72,0.67,0.56,0.25,0.44,0.44,0.39,0.44,0.33,0.5,0.44,0.28,0.28,0.44,0.5,0.28,0.39,0.25,0.28,0.5,0.44,0.28,0.25,0.44,0.33,0.5,0.39,0.44,0.25,0.44,0.33,0.28,0.44,0.33,0.25,0.89,0.44,0.33,0.44,0.5,0.25,0.5,0.5,0.25,0.28,0.5,0.5,0.28,0.44,0.44,0.28,0.44,0.5" style="fill:rgb(35,31,32);font-family:TimesNewRomanPSMT;font-size:10.0px;stroke:none;">of SARS case-patients that arose after March 15 indicated</text>
   <text y="606.052" x="295.8,298.58,303.58,308.02,310.8,313.3,314.356,318.796,321.576,324.076,325.132,327.912,332.352,336.792,340.682,343.462,345.962,347.018,352.018,357.018,359.518,360.574,365.574,368.904,371.404,372.46,375.24,380.24,384.68,392.46,394.96,396.016,401.016,403.796,407.686,410.466,413.246,417.686,422.686,425.186,426.061,432.171,438.281,443.841,451.061,453.561,454.617,459.057,462.387,466.827,471.267,475.157,477.657,478.713,485.933,490.933,495.373,498.703,503.143,505.643,506.699,509.479,514.479,517.259,520.039,522.819,527.259" svgx:width="0.28,0.5,0.44,0.28,0.25,0.55,0.44,0.28,0.25,0.55,0.28,0.44,0.44,0.39,0.28,0.25,0.55,0.5,0.5,0.25,0.55,0.5,0.33,0.25,0.55,0.28,0.5,0.44,0.78,0.25,0.55,0.5,0.28,0.39,0.28,0.28,0.44,0.5,0.25,0.55,0.61,0.61,0.56,0.72,0.25,0.55,0.44,0.33,0.44,0.44,0.39,0.25,0.55,0.72,0.5,0.44,0.33,0.44,0.25,0.55,0.28,0.5,0.28,0.28,0.28,0.44,0.28" style="fill:rgb(35,31,32);font-family:TimesNewRomanPSMT;font-size:10.0px;stroke:none;">that at least 17 of them visited TTSH areas where initial</text>
   <text y="618.052" x="295.8,300.24,304.68,308.57,313.01,316.9,319.258,323.698,327.028,332.028,335.918,340.358,342.858,345.216,348.546,351.876,354.234,358.674,361.032,366.032,371.032,374.362,379.362,382.142,386.032,388.812,391.592,396.592,399.922,402.28,407.28,412.28,415.06,417.84,422.28,427.28,429.638,434.638,439.078,444.078,446.436,451.436,455.876,460.316,465.316,467.674,470.454,478.234,483.234,486.014,490.454,498.234,502.674,507.674,510.454,514.894,519.894,522.252,525.032" svgx:width="0.44,0.44,0.39,0.44,0.39,0.25,0.44,0.33,0.5,0.39,0.44,0.25,0.25,0.33,0.33,0.25,0.44,0.25,0.5,0.5,0.33,0.5,0.28,0.39,0.28,0.28,0.5,0.33,0.25,0.5,0.5,0.28,0.28,0.44,0.5,0.25,0.5,0.44,0.5,0.25,0.5,0.44,0.44,0.5,0.25,0.28,0.78,0.5,0.28,0.44,0.78,0.44,0.5,0.28,0.44,0.5,0.25,0.28,0.5" style="fill:rgb(35,31,32);font-family:TimesNewRomanPSMT;font-size:10.0px;stroke:none;">cases arose. If a no-visitor policy had been implemented in</text>
   <text y="630.052" x="295.8,301.91,308.02,313.58,320.8,323.079,328.079,333.079,335.358,344.248,348.688,352.018,356.458,361.458,363.737,368.737,373.737,376.237,378.516,382.956,385.736,388.015,390.795,395.235,399.675,403.565,406.345,408.624,413.624,418.624,420.903,425.903,430.343,437.563,439.842,445.402,452.622,459.292,464.852,467.131,471.571,476.011,479.901,484.341,488.231,490.51,495.51,500.51,503.29,507.18,509.96,514.96,519.4,521.679,526.679" svgx:width="0.61,0.61,0.56,0.72,0.25,0.5,0.5,0.25,0.89,0.44,0.33,0.44,0.5,0.25,0.5,0.5,0.25,0.25,0.44,0.28,0.25,0.28,0.44,0.44,0.39,0.28,0.25,0.5,0.5,0.25,0.5,0.44,0.72,0.25,0.56,0.72,0.67,0.56,0.25,0.44,0.44,0.39,0.44,0.39,0.25,0.5,0.5,0.28,0.39,0.28,0.5,0.44,0.25,0.5,0.33" style="fill:rgb(35,31,32);font-family:TimesNewRomanPSMT;font-size:10.0px;stroke:none;">TTSH on March 15, at least 17 new SARS cases outside of</text>
   <text y="642.052" x="295.8,301.91,308.02,313.58,320.8,323.55,327.99,332.99,337.99,340.77,345.77,348.52,351.3,356.3,360.74,365.74,369.07,373.51,376.29,379.07,383.51,387.95,390.73,393.51,398.51,401.26,406.26,410.7,415.7,420.14,422.89,427.89,432.33,436.77,441.77,444.52,449.52,452.85,457.29,462.29,466.73,471.73,474.51,478.95,483.95" svgx:width="0.61,0.61,0.56,0.72,0.25,0.44,0.5,0.5,0.28,0.5,0.25,0.28,0.5,0.44,0.5,0.33,0.44,0.28,0.28,0.44,0.44,0.28,0.28,0.5,0.25,0.5,0.44,0.5,0.44,0.25,0.5,0.44,0.44,0.5,0.25,0.5,0.33,0.44,0.5,0.44,0.5,0.28,0.44,0.5,0.25" style="fill:rgb(35,31,32);font-family:TimesNewRomanPSMT;font-size:10.0px;stroke:none;">TTSH could theoretically have been prevented.</text>
   <text y="666.076" x="295.8,301.803,308.805,315.303,318.055,324.553,327.055,332.554,337.558,340.555,345.559" svgx:width="0.67,0.78,0.72,0.28,0.72,0.28,0.61,0.56,0.33,0.56,0.39" style="fill:rgb(35,31,32);font-family:Arial-BoldMT;font-size:9.0px;stroke:none;">SGH Cluster</text>
   <text y="678.076" x="308.544,314.654,319.654,324.094,327.008,329.788,334.788,339.788,344.228,349.228,352.142,356.582,361.022,364.912,369.352,372.682,377.682,382.122,384.902,387.682,392.122,397.122,399.902,402.816,405.596,410.596,413.51,419.07,426.29,433.51,436.424,443.644,448.084,451.974,454.888,459.888,464.328,467.108,469.888,474.328,479.328,482.108,485.022,491.692,494.192,497.106,504.326,509.326,514.326,517.24,522.24,525.02" svgx:width="0.61,0.5,0.44,0.25,0.28,0.5,0.5,0.44,0.5,0.25,0.44,0.44,0.39,0.44,0.33,0.5,0.44,0.28,0.28,0.44,0.5,0.28,0.25,0.28,0.5,0.25,0.56,0.72,0.72,0.25,0.72,0.44,0.39,0.25,0.5,0.44,0.28,0.28,0.44,0.5,0.28,0.25,0.67,0.25,0.25,0.72,0.5,0.5,0.25,0.5,0.28,0.5" style="fill:rgb(35,31,32);font-family:TimesNewRomanPSMT;font-size:10.0px;stroke:none;">The index case-patient in SGH was patient B, who did</text>
   <text y="690.076" x="295.8,300.8,305.8,308.58,310.806,315.246,320.246,325.246,328.026,333.026,335.806,338.586,340.812,343.592,348.592,353.592,356.372,360.812,365.252,368.032,370.258,374.148,376.928,381.928,386.928,390.818,393.044,397.484,402.484,407.484,409.71,413.6,418.6,426.38,431.38,434.16,439.16,446.94,450.83,453.056,458.056,461.386,463.612,469.172,476.392,483.062,488.622,491.122,493.348,498.908,503.348,506.128,508.908,513.348,518.348,521.128,523.354" svgx:width="0.5,0.5,0.28,0.25,0.44,0.5,0.5,0.28,0.5,0.28,0.28,0.25,0.28,0.5,0.5,0.28,0.44,0.44,0.28,0.25,0.39,0.28,0.5,0.5,0.39,0.25,0.44,0.5,0.5,0.25,0.39,0.5,0.78,0.5,0.28,0.5,0.78,0.39,0.25,0.5,0.33,0.25,0.56,0.72,0.67,0.56,0.25,0.25,0.56,0.44,0.28,0.28,0.44,0.5,0.28,0.25,0.67" style="fill:rgb(35,31,32);font-family:TimesNewRomanPSMT;font-size:10.0px;stroke:none;">not exhibit typical signs and symptoms of SARS. Patient B</text>
   <text y="702.076" x="295.8,303.02,307.46,311.35,313.908,318.348,323.348,331.128,333.908,336.688,339.468,343.908,348.908,351.466,354.246,359.246,361.804,366.244,371.244,373.802,378.802,383.802,388.242,393.242,395.8,403.02,407.46,410.79,415.79,418.29,420.848,428.068,432.508,435.838,440.838,443.396,448.396,453.396,455.896,458.454,461.234,466.234,468.792,474.352,481.572,488.792,491.35,496.35,501.35,503.908,512.798,517.238,520.568,525.008" svgx:width="0.72,0.44,0.39,0.25,0.44,0.5,0.78,0.28,0.28,0.28,0.44,0.5,0.25,0.28,0.5,0.25,0.44,0.5,0.25,0.5,0.5,0.44,0.5,0.25,0.72,0.44,0.33,0.5,0.25,0.25,0.72,0.44,0.33,0.5,0.25,0.5,0.5,0.25,0.25,0.28,0.5,0.25,0.56,0.72,0.72,0.25,0.5,0.5,0.25,0.89,0.44,0.33,0.44,0.5" style="fill:rgb(35,31,32);font-family:TimesNewRomanPSMT;font-size:10.0px;stroke:none;">was admitted to an open ward, ward 57, in SGH on March</text>
  </g>
  <path style="fill:none;stroke:rgb(35,31,32);stroke-width:1.0;" d="M48.600 36.000 L531.000 36.000 "/>
  <g begin="text">
   <text y="731.324" x="151.816,157.152,163.816,168.264,170.928,175.376,177.152,181.6,186.048,188.494,190.718,195.166,197.39,201.838,205.838,208.062,209.838,214.286,218.734,222.734,225.181,230.957,232.733,236.733,241.181,245.629,249.629,254.077,258.077,260.523,263.323,265.769,271.545,277.321,282.656,284.88,288.88,293.328,297.328,299.552,304.0,308.448,312.448,314.672,319.12,320.896,325.344,327.79,330.59,333.037,337.931,342.379,344.155,346.379,348.826,353.273,357.721,359.945,362.392,368.168,372.616,374.84,377.286,381.734,383.958,386.405,393.069,397.517,400.181,404.181,408.629,411.075,415.523,419.971,424.419,428.899,516.618,521.066,525.514" svgx:width="0.67,0.83,0.56,0.33,0.56,0.22,0.56,0.56,0.28,0.28,0.56,0.28,0.56,0.5,0.28,0.22,0.56,0.56,0.5,0.28,0.72,0.22,0.5,0.56,0.56,0.5,0.56,0.5,0.28,0.35,0.28,0.72,0.72,0.72,0.28,0.5,0.56,0.5,0.28,0.56,0.56,0.5,0.28,0.56,0.22,0.56,0.28,0.35,0.28,0.67,0.56,0.22,0.28,0.28,0.56,0.56,0.28,0.28,0.72,0.56,0.28,0.28,0.56,0.28,0.28,0.83,0.56,0.33,0.5,0.56,0.28,0.56,0.56,0.56,0.56,0.55,0.56,0.56,0.56" style="fill:rgb(35,31,32);font-family:ArialMT;font-size:8.0px;stroke:none;">Emerging Infectious Diseases • www.cdc.gov/eid • Vol. 10, No. 3, March 2004 397</text>
  </g>
  <g begin="text">
   <text y="46.552" x="343.168,349.171,355.174,361.672,367.675,370.264,375.43,378.427,383.431,388.435,392.935,400.432,402.43,406.93,411.43,413.428,418.432,423.436,426.188,431.192,436.196,441.2,443.952,450.45,455.454,459.954,464.958,466.956,469.33,474.334,476.332,479.084,485.582,490.586,495.59,497.964,502.968,504.966,509.97,517.467,522.471,527.476" svgx:width="0.67,0.67,0.72,0.67,0.28,0.61,0.33,0.56,0.56,0.5,0.83,0.22,0.5,0.5,0.22,0.56,0.56,0.28,0.56,0.56,0.56,0.28,0.72,0.56,0.5,0.56,0.22,0.28,0.56,0.22,0.28,0.72,0.56,0.56,0.28,0.56,0.22,0.56,0.83,0.56,0.56,0.28" style="fill:rgb(35,31,32);font-family:ArialMT;font-size:9.0px;stroke:none;">SARS Transmission and Hospital Containment</text>
  </g>
  <rect style="stroke:blue;stroke-width:0.3;" x="48.414" y="118.122" height="136.005" width="303.786" title="3"/>
  <text y="118.122" class="image" id="image.3.1" width="303" height="136" x="48.414">image.3.1.48_352.118_254</text>
  <g begin="text">
   <text y="78.824" x="357.256,362.144,363.92,368.368,372.816,375.48,379.928,382.168,383.469,387.917,390.141,392.38100000000003,393.539,398.13,399.906,406.57,411.018,412.794,414.57,419.018,423.466,425.706,427.008,431.456,433.68,435.92,437.221,441.669,445.669,450.117,454.565,456.676,460.676,462.916,464.218,465.994,470.442,472.682,473.984,476.208,480.656,485.104,487.344,488.645,493.093,497.541,499.765,504.213,506.877,511.325,515.773,519.773,522.013,523.315,527.763" svgx:width="0.61,0.22,0.56,0.56,0.33,0.56,0.28,0.55,0.56,0.28,0.28,0.55,0.61,0.22,0.83,0.56,0.22,0.22,0.56,0.56,0.28,0.55,0.56,0.28,0.28,0.55,0.56,0.5,0.56,0.56,0.28,0.5,0.28,0.55,0.22,0.56,0.28,0.55,0.28,0.56,0.56,0.28,0.55,0.56,0.56,0.28,0.56,0.33,0.56,0.56,0.5,0.28,0.55,0.56,0.28" style="fill:rgb(35,31,32);font-family:ArialMT;font-size:8.0px;stroke:none;">Figure 2. Timeline of events in the outbreak of</text>
   <text y="88.824" x="357.256,362.592,367.928,373.704,379.04,381.28000000000003,383.316,385.092,389.54,391.78000000000003,393.816,396.04,400.488,404.936,407.176,409.212,411.436,415.884,418.548,422.996,427.444,429.684,431.72,436.168,440.168,444.616,446.84,451.288,453.528,455.564,460.012,464.46,468.46,472.908,474.684,476.794,481.242,483.018,487.018,489.242,491.482,493.518,498.854,500.63,505.078,509.526,513.974,518.422,522.87,525.534" svgx:width="0.67,0.67,0.72,0.67,0.28,0.55,0.22,0.56,0.28,0.55,0.28,0.56,0.56,0.28,0.55,0.28,0.56,0.33,0.56,0.56,0.28,0.55,0.56,0.5,0.56,0.28,0.56,0.28,0.55,0.56,0.56,0.5,0.56,0.22,0.28,0.56,0.22,0.5,0.28,0.28,0.55,0.67,0.22,0.56,0.56,0.56,0.56,0.56,0.33,0.56" style="fill:rgb(35,31,32);font-family:ArialMT;font-size:8.0px;stroke:none;">SARS in the three acute hospitals, Singapore</text>
   <text y="98.824" x="357.256,363.92,368.368,371.032,375.032,379.48,383.928,390.592,395.04,399.04,400.953,405.401,409.849,414.297,418.745,420.969,422.881,428.217,433.553,439.329,444.665,446.889,448.802,452.802,457.25,461.25,465.698,468.362,472.81,474.723,479.171,483.171,487.619,489.843,494.291,496.204,498.868,503.316,507.316,511.764,513.54,516.204,520.652,522.876,527.324" svgx:width="0.83,0.56,0.33,0.5,0.56,0.56,0.83,0.56,0.5,0.28,0.56,0.56,0.56,0.56,0.28,0.28,0.67,0.67,0.72,0.67,0.28,0.28,0.5,0.56,0.5,0.56,0.33,0.56,0.28,0.56,0.5,0.56,0.28,0.56,0.28,0.33,0.56,0.5,0.56,0.22,0.33,0.56,0.28,0.56,0.33" style="fill:rgb(35,31,32);font-family:ArialMT;font-size:8.0px;stroke:none;">March–May 2003. SARS, severe acute respirato-</text>
   <text y="108.824" x="357.256,359.92,363.92,365.875,369.875,373.875,378.323,382.771,385.435,389.883,396.547,400.995,403.219,405.029,409.917,414.805,420.141,425.917,428.141,429.952,433.953,438.401,442.849,444.66,448.661,453.109,457.109,461.109,463.064,468.4,472.848,477.296,481.744,483.7,489.476,493.924,497.924,502.372,504.148,506.258,510.706,512.482,514.706,516.661,521.997,527.773" svgx:width="0.33,0.5,0.28,0.5,0.5,0.56,0.56,0.33,0.56,0.83,0.56,0.28,0.28,0.61,0.61,0.67,0.72,0.28,0.28,0.61,0.56,0.56,0.28,0.61,0.56,0.5,0.5,0.28,0.67,0.56,0.56,0.56,0.28,0.72,0.56,0.5,0.56,0.22,0.28,0.56,0.22,0.28,0.28,0.67,0.72,0.28" style="fill:rgb(35,31,32);font-family:ArialMT;font-size:8.0px;stroke:none;">ry syndrome; TTSH, Tan Tock Seng Hospital; ED,</text>
   <text y="118.824" x="357.256,361.704,368.368,372.816,375.48,379.928,384.376,388.824,392.824,396.824,399.064,401.019,405.467,409.915,414.249,418.697,421.361,423.585,430.249,434.697,439.145,441.369,443.593,445.833,447.788,453.124,458.46,463.796,466.02,468.26,470.216,474.664,479.112,481.776,485.776,490.224,494.672,499.12,500.896,503.136,505.091,509.539,512.203,516.651,518.875,523.323,527.323" svgx:width="0.56,0.83,0.56,0.33,0.56,0.56,0.56,0.5,0.5,0.28,0.55,0.56,0.56,0.56,0.56,0.33,0.28,0.83,0.56,0.56,0.28,0.28,0.28,0.55,0.67,0.67,0.67,0.28,0.28,0.55,0.56,0.56,0.33,0.5,0.56,0.56,0.56,0.22,0.28,0.55,0.56,0.33,0.56,0.28,0.56,0.5,0.33" style="fill:rgb(35,31,32);font-family:ArialMT;font-size:8.0px;stroke:none;">emergency department; PPE, personal protec-</text>
   <text y="128.824" x="357.256,359.485,361.267,365.273,369.726,371.966,375.284,379.737,384.191,388.645,390.426,394.88,401.549,406.003,410.457,412.686,414.926,418.244,420.913,425.367,429.821,432.05,433.832,438.285,442.739,447.193,449.433,452.75,457.204,461.209,463.449,466.767,471.221,473.461,476.778,479.008,483.461,487.467,489.697,492.366,494.596,496.377,498.607,500.837,505.29,509.744,511.98400000000004,515.302,521.083,525.537" svgx:width="0.28,0.22,0.5,0.56,0.28,0.55,0.56,0.56,0.56,0.22,0.56,0.83,0.56,0.56,0.28,0.28,0.55,0.33,0.56,0.56,0.28,0.22,0.56,0.56,0.56,0.28,0.55,0.56,0.5,0.28,0.55,0.56,0.28,0.55,0.28,0.56,0.5,0.28,0.33,0.28,0.22,0.28,0.28,0.56,0.56,0.28,0.55,0.72,0.56,0.56" style="fill:rgb(35,31,32);font-family:ArialMT;font-size:8.0px;stroke:none;">tive equipment (defined as a test-fitted N95</text>
   <text y="138.824" x="357.256,363.92,368.368,372.368,376.368,378.592,380.781,385.229,389.677,395.453,399.901,403.901,406.125,408.313,412.761,417.209,421.657,423.846,428.294,430.07,434.518,438.518,442.966,446.966,449.19,451.379,455.827,460.275,464.723,469.171,470.947,475.395,479.395,481.584,483.36,485.584,487.773,492.221,496.669,501.117,502.893,504.669,509.117,513.565,515.753,521.529,523.305,525.529" svgx:width="0.83,0.56,0.5,0.5,0.28,0.28,0.56,0.56,0.72,0.56,0.5,0.28,0.28,0.56,0.56,0.56,0.28,0.56,0.22,0.56,0.5,0.56,0.5,0.28,0.28,0.56,0.56,0.56,0.56,0.22,0.56,0.5,0.28,0.22,0.28,0.28,0.56,0.56,0.56,0.22,0.22,0.56,0.56,0.28,0.72,0.22,0.28,0.56" style="fill:rgb(35,31,32);font-family:ArialMT;font-size:8.0px;stroke:none;">mask, gowns, and gloves; goggles if dealing with</text>
   <text y="148.824" x="357.256,361.256,365.704,369.704,374.152,375.928,379.928,381.704,386.152,390.6,394.6,396.84000000000003,398.469,402.469,406.917,410.917,415.365,419.365,421.589,423.829,425.457,429.905,434.353,440.129,444.577,447.241,451.689,456.137,458.377,460.006,464.454,466.23,468.894,471.134,472.763,477.211,481.659,484.323,486.099,488.323,490.099,494.547,498.995,501.235,502.864,505.528,509.976,513.976,518.424,520.2,522.864,527.312" svgx:width="0.5,0.56,0.5,0.56,0.22,0.5,0.22,0.56,0.56,0.5,0.28,0.55,0.5,0.56,0.5,0.56,0.5,0.28,0.28,0.55,0.56,0.56,0.72,0.56,0.33,0.56,0.56,0.28,0.55,0.56,0.22,0.33,0.28,0.55,0.56,0.56,0.33,0.22,0.28,0.22,0.56,0.56,0.28,0.55,0.33,0.56,0.5,0.56,0.22,0.33,0.56,0.33" style="fill:rgb(35,31,32);font-family:ArialMT;font-size:8.0px;stroke:none;">suspicious cases; powered air purified respira-</text>
   <text y="158.824" x="357.256,359.48,363.928,366.592,370.592,373.074,375.298,379.746,382.41,384.892,389.34,391.116,395.564,400.012,402.676,405.34,407.116,411.116,415.116,417.599,422.047,424.711,429.159,433.159,437.607,442.055,446.503,449.167,453.615,457.615,460.097,464.097,468.545,472.545,476.993,479.476,483.924,487.924,490.406,492.182,496.63,498.854,503.302,507.75,512.198,514.422,516.198,520.646,525.094,527.758" svgx:width="0.28,0.56,0.33,0.5,0.28,0.28,0.56,0.33,0.28,0.56,0.22,0.56,0.56,0.33,0.33,0.22,0.5,0.5,0.28,0.56,0.33,0.56,0.5,0.56,0.56,0.56,0.33,0.56,0.5,0.28,0.5,0.56,0.5,0.56,0.28,0.56,0.5,0.28,0.22,0.56,0.28,0.56,0.56,0.56,0.28,0.22,0.56,0.56,0.33,0.28" style="fill:rgb(35,31,32);font-family:ArialMT;font-size:8.0px;stroke:none;">tors for high-risk procedures such as intubation);</text>
   <text y="168.824" x="357.256,359.48,365.256,371.032,373.256,375.193,376.969,381.417,383.641,388.089,392.536,396.536,398.313,402.313,406.76,408.697,412.697,417.145,419.809,424.257,426.194,430.642,435.09,436.866,439.09,441.314,443.251,447.699,449.475,453.923,458.371,461.035,463.699,465.475,469.475,473.475,475.412,479.86,482.524,486.972,491.42,493.356,497.804,502.252,504.476,506.252,510.7,515.148,519.596,521.533,525.981" svgx:width="0.28,0.72,0.72,0.28,0.28,0.22,0.56,0.28,0.56,0.56,0.5,0.22,0.5,0.56,0.28,0.5,0.56,0.33,0.56,0.28,0.56,0.56,0.22,0.28,0.28,0.28,0.56,0.22,0.56,0.56,0.33,0.33,0.22,0.5,0.5,0.28,0.56,0.33,0.56,0.56,0.28,0.56,0.56,0.28,0.22,0.56,0.56,0.56,0.28,0.56,0.5" style="fill:rgb(35,31,32);font-family:ArialMT;font-size:8.0px;stroke:none;">ICU, intensive care unit; high-risk area defined as</text>
   <text y="178.824" x="357.256,362.769,368.723,371.125,373.365,376.809,379.21,385.164,391.117,393.519,395.759,399.203,401.157,405.334,409.96,411.913,416.539,418.941,420.894,425.52,430.145,432.385,435.829,441.783,446.409,449.25,453.876,458.054,460.455,462.695,466.139,471.653,478.054,484.008,486.41,488.65000000000003,492.094,497.607,499.561,504.186,508.812,513.438,518.063,522.689,525.53" svgx:width="0.67,0.72,0.28,0.28,0.55,0.28,0.72,0.72,0.28,0.28,0.55,0.22,0.5,0.56,0.22,0.56,0.28,0.22,0.56,0.56,0.28,0.55,0.72,0.56,0.33,0.56,0.5,0.28,0.28,0.55,0.67,0.78,0.72,0.28,0.28,0.55,0.67,0.22,0.56,0.56,0.56,0.56,0.56,0.33,0.56" style="fill:rgb(35,31,32);font-family:ArialMT;font-size:8.0px;stroke:none;">ED, ICU, isolation wards; SGH, Singapore</text>
   <text y="188.824" x="357.256,363.657,368.283,372.909,377.534,380.376,385.001,386.955,389.195,392.622,398.576,403.201,407.379,412.005,413.958,416.247,420.873,422.826,425.228,427.468,430.895,436.849,442.802,448.756,451.158,453.398,456.825,462.778,467.404,469.806,471.759,476.385,481.01,485.636,487.59,489.83,493.257,499.21,503.836,505.79,509.967,514.593,517.435,521.612,523.566,525.967" svgx:width="0.78,0.56,0.56,0.56,0.33,0.56,0.22,0.28,0.55,0.72,0.56,0.5,0.56,0.22,0.28,0.56,0.22,0.28,0.28,0.55,0.72,0.72,0.72,0.28,0.28,0.55,0.72,0.56,0.28,0.22,0.56,0.56,0.56,0.22,0.28,0.55,0.72,0.56,0.22,0.5,0.56,0.33,0.5,0.22,0.28,0.5" style="fill:rgb(35,31,32);font-family:ArialMT;font-size:8.0px;stroke:none;">General Hospital; NUH, National University</text>
   <text y="198.824" x="357.256,363.032,367.48,371.48,375.928,377.704,379.814,384.262,386.038,388.262,390.314,396.09,401.866,408.977,411.201,413.253,417.701,422.149,426.597,428.373,430.597,435.045,439.045,443.493,446.157,450.605,452.657,458.433,462.881,465.545,469.545,473.993,476.215,478.439" svgx:width="0.72,0.56,0.5,0.56,0.22,0.28,0.56,0.22,0.28,0.28,0.72,0.72,0.94,0.28,0.28,0.56,0.56,0.56,0.22,0.28,0.56,0.5,0.56,0.33,0.56,0.28,0.72,0.56,0.33,0.5,0.56,0.33,0.28,0.28" style="fill:rgb(35,31,32);font-family:ArialMT;font-size:8.0px;stroke:none;">Hospital; HCW, healthcare worker. </text>
   <text y="196.824" x="480.502" svgx:width="0.56" style="fill:rgb(35,31,32);font-family:ArialMT;font-size:5.2px;stroke:none;">a</text>
   <text y="198.824" x="483.394,488.347,490.458,494.906,496.985,499.209,501.261,503.485,507.933,512.381,516.829,521.277,523.329,525.553" svgx:width="0.67,0.28,0.56,0.28,0.28,0.28,0.28,0.56,0.56,0.56,0.56,0.28,0.28,0.56" style="fill:rgb(35,31,32);font-family:ArialMT;font-size:8.0px;stroke:none;">Staff found to</text>
   <text y="208.824" x="357.256,361.704,366.152,370.152,374.6,377.029,381.477,383.906,386.13,390.578,397.242,401.69,406.138,408.802,413.25,415.474,419.922,422.586,427.034,429.462,434.134,438.582,443.03,445.254,449.702,452.902,458.678,461.107,466.883,471.331,473.995,478.443,480.872,485.32,487.096,491.096,495.544,499.992,502.421,509.085,513.533,517.981,519.757,523.757,528.205" svgx:width="0.56,0.56,0.5,0.56,0.28,0.56,0.28,0.28,0.56,0.83,0.56,0.56,0.33,0.56,0.28,0.56,0.33,0.56,0.28,0.58,0.56,0.56,0.28,0.56,0.4,0.72,0.28,0.72,0.56,0.33,0.56,0.28,0.56,0.22,0.5,0.56,0.56,0.28,0.83,0.56,0.56,0.22,0.5,0.56,0.22" style="fill:rgb(35,31,32);font-family:ArialMT;font-size:8.0px;stroke:none;">have a temperature &gt;37.5°C were given medical</text>
   <text y="218.824" x="357.256,359.032,363.48,367.928,371.928,376.376,378.823,381.047,385.495,388.159,390.605,395.053,397.499,401.947,406.395,410.395,414.395,416.842,422.618,424.394,426.618,431.066,433.512,437.96,440.407,443.071,447.519,451.519,453.295,457.743,463.519,465.965,470.413,474.861,477.307,479.531,483.979,488.427,490.874,493.098,497.546,499.322,501.986,506.434,508.88,513.328,517.776,521.183" svgx:width="0.22,0.56,0.56,0.5,0.56,0.28,0.28,0.56,0.33,0.28,0.56,0.28,0.56,0.56,0.5,0.5,0.28,0.72,0.22,0.28,0.56,0.28,0.56,0.28,0.33,0.56,0.5,0.22,0.56,0.72,0.28,0.56,0.56,0.28,0.28,0.56,0.56,0.28,0.28,0.56,0.22,0.33,0.56,0.28,0.56,0.56,0.5,0.28" style="fill:rgb(35,31,32);font-family:ArialMT;font-size:8.0px;stroke:none;">leave for 3 days with a review on the third day.</text>
  </g>
  <path style="fill:none;stroke:rgb(35,31,32);stroke-width:0.5;" d="M531.000 230.750 L48.600 230.750 "/>
  <g begin="text">
   <text y="92.582" x="217.548" svgx:width="0.56" style="fill:rgb(35,31,32);font-family:ArialMT;font-size:3.0px;stroke:none;">a</text>
  </g>
 </g>
</svg>
