<?xml version="1.0" encoding="UTF-8"?>
<svg height="748.57" width="548.5830000000001" xmlns="http://www.w3.org/2000/svg">
 <g id="page" xmlns:svgx="http://www.xml-cml.org/schema/svgx">
  <g begin="text">
   <text y="95.358" x="71.716,74.98,78.763,81.948,83.43,85.503,89.287,93.07,98.855,102.268,106.051,108.203,109.47800000000001,111.516,115.67,118.855,122.04,123.522,125.004,128.188,132.043,133.525,137.125,139.125,140.978,143.051,146.834,152.62,153.895,155.904,159.688,161.839,163.991,167.846,169.028,171.472,173.916,179.032,184.147,189.263,190.446,193.559,197.343,198.825,202.608,204.681,207.866,211.721,215.504,216.687,220.541,224.325,227.51,229.953,233.138,234.62,236.694,240.548,244.253,247.438,248.92,250.402,252.554,255.667,258.111,263.227,264.709,266.191,270.045,271.898,273.38,275.453,278.866" svgx:width="0.46,0.53,0.45,0.21,0.29,0.53,0.53,0.81,0.48,0.53,0.3,0.17,0.55,0.58,0.45,0.45,0.21,0.21,0.45,0.54,0.21,0.48,0.55,0.26,0.29,0.53,0.81,0.17,0.55,0.53,0.3,0.3,0.54,0.17,0.34,0.34,0.72,0.72,0.72,0.17,0.44,0.53,0.21,0.53,0.29,0.45,0.54,0.53,0.17,0.54,0.53,0.45,0.34,0.45,0.21,0.29,0.54,0.52,0.45,0.21,0.21,0.3,0.44,0.34,0.72,0.21,0.21,0.54,0.26,0.21,0.29,0.48,0.17" style="fill:rgb(19,20,19);font-family:LsjgsdAdvTTb5929f4c;font-size:7.5px;stroke:none;">Environment. Available from: http://www.colorado.gov/airquality/wildfire.</text>
   <text y="104.312" x="71.716,74.901,77.495,81.349,84.392,85.667,87.705,91.859,94.972,98.086,101.499,104.092,106.685,110.098,114.148,116.105,119.517,123.11699999999999,125.061,130.547,133.732,137.032,139.004,142.417,145.83,149.243,152.655" svgx:width="0.45,0.36,0.54,0.43,0.17,0.55,0.58,0.44,0.44,0.48,0.36,0.36,0.48,0.54,0.55,0.48,0.48,0.55,0.77,0.45,0.44,0.55,0.48,0.48,0.48,0.48,0.17" style="fill:rgb(19,20,19);font-family:LsjgsdAdvTTb5929f4c;font-size:7.5px;stroke:none;">aspx. Accessed 27 May 2016.</text>
   <text y="113.327" x="56.69,60.103,63.516,64.791,71.717,76.241,80.024,82.097,84.249,88.22399999999999,90.142,94.146,97.331,99.404,103.187,104.669,106.151,109.934,113.309,115.314,118.876,122.581,126.436,127.918,129.4,132.70000000000002,134.644,139.097,142.51,145.694,147.176,149.328,153.111,154.386,156.41,159.673,161.747,165.16,169.014,172.719,176.132,179.915,182.067,183.549,186.84900000000002,188.836,192.02,194.614,197.578,200.991,205.04100000000003,206.976,210.83,214.535,217.948,220.541,222.693,224.175,227.958,231.742,234.44199999999998,236.508,238.582,241.994,245.849,249.034,251.107,254.962,256.444,260.227,264.277,266.212,270.067,273.772,277.626,279.108,280.59" svgx:width="0.48,0.48,0.17,0.55,0.63,0.53,0.29,0.3,0.53,0.55,0.56,0.45,0.29,0.53,0.21,0.21,0.53,0.45,0.55,0.5,0.52,0.54,0.21,0.21,0.44,0.55,0.63,0.48,0.45,0.21,0.3,0.53,0.17,0.55,0.46,0.29,0.48,0.54,0.52,0.48,0.53,0.3,0.21,0.44,0.55,0.45,0.36,0.42,0.48,0.54,0.55,0.54,0.52,0.48,0.36,0.3,0.21,0.53,0.53,0.36,0.55,0.29,0.48,0.54,0.45,0.29,0.54,0.21,0.53,0.54,0.55,0.54,0.52,0.54,0.21,0.21,0.44" style="fill:rgb(19,20,19);font-family:LsjgsdAdvTTb5929f4c;font-size:7.5px;stroke:none;">29. North Carolina Public Health. Frequently asked questions regarding public</text>
   <text y="122.342" x="71.716,75.5,78.913,82.097,83.579,85.731,89.70599999999999,91.616,94.801,98.585,102.63499999999999,104.598,109.714,111.196,112.678,116.532,118.385,119.867,121.94,125.353,127.946,129.221,131.302,133.155,134.636,138.42,140.572,143.984,146.058,149.841,153.254,155.406,157.258,158.53300000000002,160.614,164.176,167.361,168.843,172.256,173.738,177.593,181.376,182.651,184.71,189.235,193.239,194.514,196.559,201.083,204.867,206.94,209.092,213.067,214.984,218.988,222.173,224.246,228.03,229.512,230.994,234.777,238.152,240.156,244.609,248.022,251.207,252.689,254.841,258.81600000000003,260.733,263.918,267.701" svgx:width="0.53,0.48,0.45,0.21,0.3,0.53,0.55,0.45,0.53,0.54,0.55,0.72,0.21,0.21,0.54,0.26,0.21,0.29,0.48,0.36,0.17,0.55,0.26,0.21,0.53,0.3,0.48,0.29,0.53,0.48,0.3,0.26,0.17,0.55,0.5,0.45,0.21,0.48,0.21,0.54,0.53,0.17,0.55,0.63,0.56,0.17,0.55,0.63,0.53,0.29,0.3,0.53,0.55,0.56,0.45,0.29,0.53,0.21,0.21,0.53,0.45,0.55,0.63,0.48,0.45,0.21,0.3,0.53,0.55,0.45,0.53,0.54" style="fill:rgb(19,20,19);font-family:LsjgsdAdvTTb5929f4c;font-size:7.5px;stroke:none;">health and wildfires. [Internet]. Raleigh, NC: North Carolina Health and</text>
   <text y="131.357" x="71.716,76.17,79.875,85.66,88.845,92.82,94.73,97.993,101.406,103.479,106.664,108.146,111.26,114.673,117.266,118.54100000000001,120.636,124.79,127.975,131.16,132.642,134.124,137.308,141.163,142.645,146.245,148.188,150.041,152.114,155.897,161.683,162.958,165.024,168.808,170.959,173.111,176.966,178.148,180.592,183.036,186.891,190.595,194.45,195.932,197.414,200.528,204.311,207.724,210.909,212.391,214.542,218.326,219.508,223.292,226.405,227.588,231.443,235.226,238.411,240.855,244.709,248.492,251.606,254.199,256.643,260.427,263.84,268.955,271.549" svgx:width="0.63,0.52,0.81,0.45,0.53,0.55,0.46,0.48,0.29,0.45,0.21,0.44,0.48,0.36,0.17,0.55,0.58,0.45,0.45,0.21,0.21,0.45,0.54,0.21,0.48,0.55,0.26,0.29,0.53,0.81,0.17,0.55,0.53,0.3,0.3,0.54,0.17,0.34,0.34,0.54,0.52,0.54,0.21,0.21,0.44,0.53,0.48,0.45,0.21,0.3,0.53,0.17,0.53,0.44,0.17,0.54,0.53,0.45,0.34,0.54,0.53,0.44,0.36,0.34,0.53,0.48,0.72,0.36,0.34" style="fill:rgb(19,20,19);font-family:LsjgsdAdvTTb5929f4c;font-size:7.5px;stroke:none;">Human Services. Available from: http://publichealth.nc.gov/docs/news/</text>
   <text y="140.312" x="71.716,74.98,77.053,80.466,84.32,88.025,91.438,95.222,97.373,98.855,101.969,106.123,108.716,111.68,115.093,118.947,123.693,127.398,130.81,133.404,135.556,137.038,140.821,144.604,147.198,150.76,154.173,158.028,161.212,163.286,167.14,168.622,172.406,176.26,180.713,184.126,187.311,188.793,190.945,194.728,198.882,202.665,206.52,212.305,213.787,215.269,219.124,220.976,222.458,224.531,227.944,230.538,231.72,235.575,239.43,241.282,242.55700000000002,244.681,248.834,251.948,255.062,258.474,261.068,263.661,267.074,271.124,273.081,276.493" svgx:width="0.46,0.29,0.48,0.54,0.52,0.48,0.53,0.3,0.21,0.44,0.58,0.36,0.42,0.48,0.54,0.67,0.52,0.48,0.36,0.3,0.21,0.53,0.53,0.36,0.5,0.48,0.54,0.45,0.29,0.54,0.21,0.53,0.54,0.63,0.48,0.45,0.21,0.3,0.53,0.58,0.53,0.54,0.81,0.21,0.21,0.54,0.26,0.21,0.29,0.48,0.36,0.17,0.54,0.54,0.26,0.17,0.55,0.58,0.44,0.44,0.48,0.36,0.36,0.48,0.54,0.55,0.48,0.48" style="fill:rgb(19,20,19);font-family:LsjgsdAdvTTb5929f4c;font-size:7.5px;stroke:none;">FrequentlyAskedQuestionsRegardingHealthAndWildfires.pdf. Accessed 27</text>
   <text y="149.327" x="71.716,77.203,80.388,83.688,85.603,89.016,92.429,95.841,99.254" svgx:width="0.77,0.45,0.44,0.55,0.48,0.48,0.48,0.48,0.17" style="fill:rgb(19,20,19);font-family:LsjgsdAdvTTb5929f4c;font-size:7.5px;stroke:none;">May 2016.</text>
   <text y="158.342" x="56.69,60.103,63.516,64.791,71.717,77.502,80.687,83.28,87.064,88.546,92.329,96.183,98.335,102.118,106.09299999999999,108.053,111.317,113.468,116.653,118.805,122.405,124.327,128.922,132.335,136.19,139.375,141.448,143.6,149.385,152.798,156.581,158.831,160.892,164.675,166.625,168.658,173.111,176.524,179.709,181.191,183.342,187.126,188.401,190.481,196.267,200.05,203.35000000000002,205.28,206.762,209.462,211.514,216.63,218.112,219.594,223.448,225.301,226.783,228.856,232.456,234.421,237.014,242.8,246.583,249.547,253.147,255.111,258.966,262.151,266.201,268.15,270.003,273.786,275.961,278.011,283.796,287.209" svgx:width="0.48,0.48,0.17,0.55,0.81,0.45,0.36,0.53,0.21,0.53,0.54,0.3,0.53,0.53,0.55,0.46,0.3,0.45,0.3,0.48,0.55,0.64,0.48,0.54,0.45,0.29,0.3,0.81,0.48,0.53,0.3,0.55,0.53,0.26,0.55,0.63,0.48,0.45,0.21,0.3,0.53,0.17,0.55,0.81,0.53,0.44,0.55,0.21,0.36,0.55,0.72,0.21,0.21,0.54,0.26,0.21,0.29,0.48,0.55,0.36,0.81,0.53,0.42,0.48,0.55,0.54,0.45,0.54,0.55,0.26,0.53,0.29,0.55,0.81,0.48,0.17" style="fill:rgb(19,20,19);font-family:LsjgsdAdvTTb5929f4c;font-size:7.5px;stroke:none;">30. Washington State Department of Health. Why is wildfire smoke bad for me.</text>
   <text y="167.357" x="71.716,76.462,77.944,81.057,86.843,90.697,92.179,95.364,96.63900000000001,98.698,104.484,108.638,109.91300000000001,111.965,117.75,120.935,123.529,127.312,128.794,132.577,136.432,138.584,142.367,146.34199999999998,148.302,151.565,153.717,156.902,159.053,162.653,164.575,169.171,172.584,176.438,179.623,181.696,183.848,189.634,193.046,196.83,199.08,201.14,204.924,206.874,208.906,213.359,216.772,219.957,221.439,223.591,227.374,228.649,230.73,234.884,238.069,241.253,242.735,244.217,247.402,251.257,252.739,256.339,258.282,260.134,262.208,265.991,271.777" svgx:width="0.67,0.21,0.44,0.81,0.54,0.21,0.45,0.17,0.55,0.81,0.58,0.17,0.55,0.81,0.45,0.36,0.53,0.21,0.53,0.54,0.3,0.53,0.53,0.55,0.46,0.3,0.45,0.3,0.48,0.55,0.64,0.48,0.54,0.45,0.29,0.3,0.81,0.48,0.53,0.3,0.55,0.53,0.26,0.55,0.63,0.48,0.45,0.21,0.3,0.53,0.17,0.55,0.58,0.45,0.45,0.21,0.21,0.45,0.54,0.21,0.48,0.55,0.26,0.29,0.53,0.81,0.17" style="fill:rgb(19,20,19);font-family:LsjgsdAdvTTb5929f4c;font-size:7.5px;stroke:none;">Olympia, WA: Washington State Department of Health. Available from:</text>
   <text y="176.311" x="71.716,75.5,77.652,79.803,83.658,84.841,87.284,89.728,94.844,99.96,105.075,106.258,110.113,113.896,117.679,118.862,123.978,127.162,128.345,132.2,135.983,139.168,141.612,145.616,149.399,155.185,160.97,164.675,168.458,169.94,172.092,175.206,178.391,182.174,186.028,189.292,193.075,196.26,197.742,199.815,203.598,207.382,213.167,216.58,220.363,222.515,224.959,229.113,230.595,232.668,237.413,241.118,244.303,245.785,247.267,249.419,252.532" svgx:width="0.53,0.3,0.3,0.54,0.17,0.34,0.34,0.72,0.72,0.72,0.17,0.54,0.53,0.53,0.17,0.72,0.45,0.17,0.54,0.53,0.45,0.34,0.56,0.53,0.81,0.81,0.52,0.53,0.21,0.3,0.44,0.45,0.53,0.54,0.46,0.53,0.45,0.21,0.29,0.53,0.53,0.81,0.48,0.53,0.3,0.34,0.58,0.21,0.29,0.67,0.52,0.45,0.21,0.21,0.3,0.44,0.34" style="fill:rgb(19,20,19);font-family:LsjgsdAdvTTb5929f4c;font-size:7.5px;stroke:none;">http://www.doh.wa.gov/CommunityandEnvironment/AirQuality/</text>
   <text y="185.326" x="71.716,74.98,80.765,84.548,87.512,90.925,94.188,96.262,100.045,105.831,109.094,110.576,112.649,116.062,118.655,121.099,126.885,128.367,129.849,133.703,135.556,137.038,139.111,142.524,145.787,151.572,155.356,158.32,161.732,163.007,165.088,169.242,172.356,175.469,178.882,181.476,184.069,187.482,191.532,193.488,196.901,200.501,202.444,207.93,211.115,214.41500000000002,216.388,219.8,223.213,226.626,230.039" svgx:width="0.46,0.81,0.53,0.42,0.48,0.46,0.29,0.53,0.81,0.46,0.21,0.29,0.48,0.36,0.34,0.81,0.21,0.21,0.54,0.26,0.21,0.29,0.48,0.46,0.81,0.53,0.42,0.48,0.17,0.55,0.58,0.44,0.44,0.48,0.36,0.36,0.48,0.54,0.55,0.48,0.48,0.55,0.77,0.45,0.44,0.55,0.48,0.48,0.48,0.48,0.17" style="fill:rgb(19,20,19);font-family:LsjgsdAdvTTb5929f4c;font-size:7.5px;stroke:none;">SmokeFromFires/WildfireSmoke. Accessed 27 May 2016.</text>
  </g>
  <path style="fill:rgb(61,119,185);stroke:none;stroke-width:0.25;" d="M457.710 738.570 C455.460 737.460 453.900 735.170 453.900 732.530 C453.900 728.800 456.960 725.860 460.760 725.860 C462.130 725.860 463.620 726.640 463.620 726.640 C462.860 726.280 461.990 726.080 461.090 726.080 C457.850 726.080 455.230 728.650 455.230 731.820 C455.230 734.100 456.580 736.070 458.540 737.000 L457.710 738.570 "/>
  <path style="fill:rgb(0,100,99);stroke:none;stroke-width:0.25;" d="M464.450 725.080 C466.710 726.180 468.260 728.470 468.260 731.110 C468.260 734.840 465.200 737.780 461.400 737.780 C460.030 737.780 458.540 737.000 458.540 737.000 C459.310 737.360 460.170 737.560 461.080 737.560 C464.310 737.560 466.930 734.990 466.930 731.820 C466.930 729.540 465.580 727.580 463.630 726.650 L464.450 725.080 "/>
  <path style="fill:rgb(61,119,185);stroke:none;stroke-width:0.25;" d="M470.880 729.310 L474.300 729.310 C475.240 729.310 476.170 729.600 476.170 730.620 C476.170 731.350 475.770 731.740 475.050 731.930 L475.050 731.940 C475.800 732.040 476.270 732.620 476.270 733.160 C476.270 734.500 475.160 734.640 474.030 734.640 L470.880 734.640 L470.880 729.310 M472.840 731.350 L473.360 731.350 C473.730 731.350 474.130 731.240 474.130 730.840 C474.130 730.440 473.780 730.320 473.410 730.320 L472.840 730.320 L472.840 731.350 ZM472.840 733.540 L473.390 733.540 C473.770 733.540 474.180 733.400 474.180 732.990 C474.180 732.530 473.790 732.450 473.400 732.450 L472.840 732.450 L472.840 733.540 "/>
  <path style="fill:rgb(61,119,185);stroke:none;stroke-width:0.25;" d="M481.170 730.570 C482.810 730.570 483.700 731.240 483.700 732.580 C483.700 733.950 482.810 734.730 481.170 734.730 C479.530 734.730 478.660 733.950 478.660 732.580 C478.660 731.240 479.530 730.570 481.170 730.570 M481.170 733.590 C481.560 733.590 481.610 733.160 481.610 732.580 C481.610 732.100 481.560 731.710 481.170 731.710 C480.790 731.710 480.750 732.100 480.750 732.580 C480.750 733.160 480.790 733.590 481.170 733.590 "/>
  <path style="fill:rgb(0,100,99);stroke:none;stroke-width:0.25;" d="M484.240 729.310 L487.320 729.310 L488.030 732.220 L488.050 732.220 L488.750 729.310 L491.830 729.310 L491.830 734.640 L489.960 734.640 L489.920 730.450 L489.910 730.450 L488.840 734.640 L487.110 734.640 L486.070 730.450 L486.040 730.450 L486.010 734.640 L484.240 734.640 L484.240 729.310 "/>
  <path style="fill:rgb(0,100,99);stroke:none;stroke-width:0.25;" d="M493.890 733.110 C493.920 733.610 494.390 733.720 494.970 733.720 C495.510 733.720 495.990 733.630 496.300 733.470 L496.300 734.500 C495.780 734.660 495.160 734.730 494.470 734.730 C492.830 734.730 491.960 733.950 491.960 732.580 C491.960 731.240 492.830 730.570 494.470 730.570 C496.040 730.570 496.600 731.530 496.600 732.870 L496.600 733.110 L493.890 733.110 M494.900 732.270 C494.900 731.960 494.850 731.480 494.410 731.480 C493.960 731.480 493.860 731.960 493.880 732.270 L494.900 732.270 "/>
  <path style="fill:rgb(0,100,99);stroke:none;stroke-width:0.25;" d="M499.750 734.640 L499.750 733.910 L499.730 733.910 C499.460 734.510 499.060 734.730 498.420 734.730 C497.120 734.730 496.640 733.740 496.640 732.580 C496.640 731.510 497.150 730.570 498.370 730.570 C498.890 730.570 499.290 730.740 499.590 731.170 L499.610 731.170 L499.610 728.910 L501.570 728.910 L501.570 734.640 L499.750 734.640 M499.160 731.760 C498.750 731.760 498.680 732.170 498.680 732.580 C498.680 733.000 498.750 733.450 499.180 733.450 C499.600 733.450 499.660 733.000 499.660 732.630 C499.660 732.170 499.600 731.760 499.160 731.760 "/>
  <path style="fill:rgb(19,20,19);stroke:none;stroke-width:0.25;" d="M507.640 734.310 C507.380 734.450 506.870 734.580 506.230 734.580 C504.970 734.580 503.760 733.760 503.760 731.910 C503.760 730.350 504.760 729.170 506.400 729.170 C507.070 729.170 507.460 729.320 507.620 729.410 L507.500 729.720 C507.230 729.580 506.850 729.490 506.410 729.490 C505.000 729.490 504.140 730.410 504.140 731.910 C504.140 733.340 504.950 734.250 506.350 734.250 C506.800 734.250 507.230 734.160 507.530 734.010 L507.640 734.310 "/>
  <path style="fill:none;stroke:rgb(19,20,19);stroke-width:0.25;" d="M507.640 734.310 C507.380 734.450 506.870 734.580 506.230 734.580 C504.970 734.580 503.760 733.760 503.760 731.910 C503.760 730.350 504.760 729.170 506.400 729.170 C507.070 729.170 507.460 729.320 507.620 729.410 L507.500 729.720 C507.230 729.580 506.850 729.490 506.410 729.490 C505.000 729.490 504.140 730.410 504.140 731.910 C504.140 733.340 504.950 734.250 506.350 734.250 C506.800 734.250 507.230 734.160 507.530 734.010 L507.640 734.310 Z"/>
  <path style="fill:rgb(19,20,19);stroke:none;stroke-width:0.25;" d="M508.470 732.590 C508.470 733.790 509.120 734.250 509.890 734.250 C510.430 734.250 510.710 734.140 510.920 734.040 L511.010 734.340 C510.880 734.420 510.490 734.580 509.840 734.580 C508.770 734.580 508.100 733.790 508.100 732.700 C508.100 731.460 508.820 730.680 509.780 730.680 C511.000 730.680 511.230 731.830 511.230 732.360 C511.230 732.470 511.230 732.530 511.220 732.590 L508.470 732.590 M510.840 732.300 C510.850 731.770 510.630 730.980 509.730 730.980 C508.910 730.980 508.550 731.720 508.490 732.300 L510.840 732.300 "/>
  <path style="fill:none;stroke:rgb(19,20,19);stroke-width:0.25;" d="M508.470 732.590 C508.470 733.790 509.120 734.250 509.890 734.250 C510.430 734.250 510.710 734.140 510.920 734.040 L511.010 734.340 C510.880 734.420 510.490 734.580 509.840 734.580 C508.770 734.580 508.100 733.790 508.100 732.700 C508.100 731.460 508.820 730.680 509.780 730.680 C511.000 730.680 511.230 731.830 511.230 732.360 C511.230 732.470 511.230 732.530 511.220 732.590 L508.470 732.590 Z"/>
  <path style="fill:none;stroke:rgb(19,20,19);stroke-width:0.25;" d="M510.840 732.300 C510.850 731.770 510.630 730.980 509.730 730.980 C508.910 730.980 508.550 731.720 508.490 732.300 L510.840 732.300 Z"/>
  <path style="fill:rgb(19,20,19);stroke:none;stroke-width:0.25;" d="M512.080 731.660 C512.080 731.320 512.060 731.060 512.050 730.760 L512.390 730.760 L512.420 731.440 L512.430 731.440 C512.640 731.020 513.100 730.680 513.720 730.680 C514.070 730.680 515.010 730.860 515.010 732.260 L515.010 734.490 L514.650 734.490 L514.650 732.290 C514.650 731.610 514.390 731.000 513.620 731.000 C513.090 731.000 512.650 731.370 512.500 731.850 C512.470 731.950 512.440 732.070 512.440 732.190 L512.440 734.490 L512.080 734.490 L512.080 731.660 "/>
  <path style="fill:none;stroke:rgb(19,20,19);stroke-width:0.25;" d="M512.080 731.660 C512.080 731.320 512.060 731.060 512.050 730.760 L512.390 730.760 L512.420 731.440 L512.430 731.440 C512.640 731.020 513.100 730.680 513.720 730.680 C514.070 730.680 515.010 730.860 515.010 732.260 L515.010 734.490 L514.650 734.490 L514.650 732.290 C514.650 731.610 514.390 731.000 513.620 731.000 C513.090 731.000 512.650 731.370 512.500 731.850 C512.470 731.950 512.440 732.070 512.440 732.190 L512.440 734.490 L512.080 734.490 L512.080 731.660 Z"/>
  <path style="fill:rgb(19,20,19);stroke:none;stroke-width:0.25;" d="M516.650 729.940 L516.650 730.760 L517.710 730.760 L517.710 731.060 L516.650 731.060 L516.650 733.480 C516.650 733.960 516.800 734.260 517.200 734.260 C517.390 734.260 517.530 734.230 517.620 734.200 L517.670 734.480 C517.540 734.540 517.380 734.580 517.150 734.580 C516.880 734.580 516.650 734.480 516.510 734.310 C516.340 734.110 516.280 733.800 516.280 733.420 L516.280 731.060 L515.650 731.060 L515.650 730.760 L516.280 730.760 L516.280 730.080 L516.650 729.940 "/>
  <path style="fill:none;stroke:rgb(19,20,19);stroke-width:0.25;" d="M516.650 729.940 L516.650 730.760 L517.710 730.760 L517.710 731.060 L516.650 731.060 L516.650 733.480 C516.650 733.960 516.800 734.260 517.200 734.260 C517.390 734.260 517.530 734.230 517.620 734.200 L517.670 734.480 C517.540 734.540 517.380 734.580 517.150 734.580 C516.880 734.580 516.650 734.480 516.510 734.310 C516.340 734.110 516.280 733.800 516.280 733.420 L516.280 731.060 L515.650 731.060 L515.650 730.760 L516.280 730.760 L516.280 730.080 L516.650 729.940 Z"/>
  <path style="fill:rgb(19,20,19);stroke:none;stroke-width:0.25;" d="M518.440 731.880 C518.440 731.510 518.420 731.120 518.410 730.760 L518.750 730.760 L518.760 731.520 L518.780 731.520 C518.940 731.050 519.330 730.680 519.840 730.680 C519.890 730.680 519.950 730.690 519.990 730.700 L519.990 731.050 C519.940 731.040 519.880 731.040 519.810 731.040 C519.300 731.040 518.930 731.480 518.830 732.080 C518.820 732.190 518.800 732.310 518.800 732.430 L518.800 734.490 L518.440 734.490 L518.440 731.880 "/>
  <path style="fill:none;stroke:rgb(19,20,19);stroke-width:0.25;" d="M518.440 731.880 C518.440 731.510 518.420 731.120 518.410 730.760 L518.750 730.760 L518.760 731.520 L518.780 731.520 C518.940 731.050 519.330 730.680 519.840 730.680 C519.890 730.680 519.950 730.690 519.990 730.700 L519.990 731.050 C519.940 731.040 519.880 731.040 519.810 731.040 C519.300 731.040 518.930 731.480 518.830 732.080 C518.820 732.190 518.800 732.310 518.800 732.430 L518.800 734.490 L518.440 734.490 L518.440 731.880 Z"/>
  <path style="fill:rgb(19,20,19);stroke:none;stroke-width:0.25;" d="M522.940 733.610 C522.940 733.900 522.960 734.210 523.000 734.490 L522.660 734.490 L522.610 733.960 L522.590 733.960 C522.410 734.240 521.990 734.580 521.400 734.580 C520.650 734.580 520.300 734.050 520.300 733.550 C520.300 732.690 521.060 732.170 522.580 732.190 L522.580 732.090 C522.580 731.720 522.510 730.980 521.620 730.990 C521.300 730.990 520.950 731.080 520.690 731.270 L520.570 731.000 C520.910 730.770 521.330 730.680 521.660 730.680 C522.740 730.680 522.940 731.490 522.940 732.150 L522.940 733.610 M522.580 732.500 C521.760 732.470 520.690 732.600 520.690 733.490 C520.690 734.030 521.050 734.270 521.430 734.270 C522.060 734.270 522.410 733.890 522.540 733.520 C522.560 733.440 522.580 733.370 522.580 733.300 L522.580 732.500 "/>
  <path style="fill:none;stroke:rgb(19,20,19);stroke-width:0.25;" d="M522.940 733.610 C522.940 733.900 522.960 734.210 523.000 734.490 L522.660 734.490 L522.610 733.960 L522.590 733.960 C522.410 734.240 521.990 734.580 521.400 734.580 C520.650 734.580 520.300 734.050 520.300 733.550 C520.300 732.690 521.060 732.170 522.580 732.190 L522.580 732.090 C522.580 731.720 522.510 730.980 521.620 730.990 C521.300 730.990 520.950 731.080 520.690 731.270 L520.570 731.000 C520.910 730.770 521.330 730.680 521.660 730.680 C522.740 730.680 522.940 731.490 522.940 732.150 L522.940 733.610 Z"/>
  <path style="fill:none;stroke:rgb(19,20,19);stroke-width:0.25;" d="M522.580 732.500 C521.760 732.470 520.690 732.600 520.690 733.490 C520.690 734.030 521.050 734.270 521.430 734.270 C522.060 734.270 522.410 733.890 522.540 733.520 C522.560 733.440 522.580 733.370 522.580 733.300 L522.580 732.500 Z"/>
  <g begin="text">
   <text y="639.666" x="323.699" svgx:width="0.39" style="fill:rgb(19,20,19);font-family:PdhjdwOpenSans-Extrabold;font-size:7.0px;stroke:none;">•</text>
   <text y="639.666" x="326.443,328.261" svgx:width="0.26,0.26" style="fill:rgb(19,20,19);font-family:NtkljcOpenSans-Light;font-size:7.0px;stroke:none;"> </text>
   <text y="639.666" x="330.08,336.324,340.167,341.987,345.697,349.022,352.347,356.19,360.355,362.7,364.52,368.685,371.408,375.251,377.505,380.767,384.897,389.062,395.243,396.825,400.087,403.349,404.931,409.033,413.163,414.983,416.565,420.695,424.86,428.99,430.572,433.295,434.877,438.72" svgx:width="0.89,0.55,0.26,0.53,0.47,0.47,0.55,0.6,0.34,0.26,0.6,0.39,0.55,0.32,0.47,0.59,0.6,0.88,0.23,0.47,0.47,0.23,0.59,0.59,0.26,0.23,0.59,0.6,0.59,0.23,0.39,0.23,0.55,0.47" style="fill:rgb(41,40,41);font-family:NtkljcOpenSans-Light;font-size:7.0px;stroke:none;">We accept pre-submission inquiries</text>
   <text y="639.666" x="441.971" svgx:width="0.26" style="fill:rgb(19,20,19);font-family:NtkljcOpenSans-Light;font-size:7.0px;stroke:none;"> </text>
   <text y="651.664" x="323.699" svgx:width="0.39" style="fill:rgb(19,20,19);font-family:PdhjdwOpenSans-Extrabold;font-size:7.0px;stroke:none;">•</text>
   <text y="651.664" x="326.443,328.261" svgx:width="0.26,0.26" style="fill:rgb(19,20,19);font-family:NtkljcOpenSans-Light;font-size:7.0px;stroke:none;"> </text>
   <text y="651.664" x="330.08,335.428,339.558,342.281,344.101,347.363,351.206,352.788,356.631,359.956,362.301,366.403,369.126,370.946,373.291,377.393,381.495,383.077,384.897,389.027,392.87,394.452,398.617,401.879,403.699,406.912,411.014,415.144,416.964,419.309,423.411,425.231,428.913,433.043,437.208,439.028,441.373,445.503,449.346,451.166,457.347,461.449,464.711,467.056,468.876,471.599,475.442,477.024,480.867,484.08,487.79,491.92,494.265,496.085,497.667,501.769,505.899,508.622,512.752,516.462" svgx:width="0.76,0.59,0.39,0.26,0.47,0.55,0.23,0.55,0.47,0.34,0.59,0.39,0.26,0.34,0.59,0.59,0.23,0.26,0.59,0.55,0.23,0.6,0.47,0.26,0.46,0.59,0.59,0.26,0.34,0.59,0.26,0.53,0.59,0.6,0.26,0.34,0.59,0.55,0.26,0.88,0.59,0.47,0.34,0.26,0.39,0.55,0.23,0.55,0.46,0.53,0.59,0.34,0.26,0.23,0.59,0.59,0.39,0.59,0.53,0.23" style="fill:rgb(41,40,41);font-family:NtkljcOpenSans-Light;font-size:7.0px;stroke:none;">Our selector tool helps you to ﬁnd the most relevant journal</text>
   <text y="663.662" x="323.699,326.443,328.263" svgx:width="0.39,0.26,0.26" style="fill:rgb(19,20,19);font-family:PdhjdwOpenSans-Extrabold;font-size:7.0px;stroke:none;">• </text>
   <text y="663.662" x="330.083,336.327,340.17,341.99,346.155,348.878,352.98,356.193,357.775,361.94,365.783,367.603,370.326,374.428,378.558,382.688,386.853,388.673,391.018,395.148,398.991,400.811,404.136,405.718,409.82,413.145,416.533,418.353,421.678,425.808,429.07,431.415,435.517,441.698,445.541,448.264,450.084,453.346,457.476,461.641,465.806,469.908,472.631,474.976" svgx:width="0.89,0.55,0.26,0.6,0.39,0.59,0.46,0.23,0.6,0.55,0.26,0.39,0.59,0.59,0.59,0.6,0.26,0.34,0.59,0.55,0.26,0.47,0.23,0.59,0.47,0.48,0.26,0.47,0.59,0.47,0.34,0.59,0.88,0.55,0.39,0.26,0.47,0.59,0.6,0.6,0.59,0.39,0.34,0.26" style="fill:rgb(41,40,41);font-family:NtkljcOpenSans-Light;font-size:7.0px;stroke:none;">We provide round the clock customer support </text>
   <text y="675.66" x="323.699,326.443,328.263" svgx:width="0.39,0.26,0.26" style="fill:rgb(19,20,19);font-family:PdhjdwOpenSans-Extrabold;font-size:7.0px;stroke:none;">• </text>
   <text y="675.66" x="330.083,334.43,338.532,342.662,345.875,349.718,353.848,355.43,359.273,363.403,365.748,367.568,371.67,375.8,377.382,378.964,383.094,386.937,388.757,392.019,396.149,400.314,406.495,408.077,411.339,414.601,416.183,420.285" svgx:width="0.62,0.59,0.59,0.46,0.55,0.59,0.23,0.55,0.59,0.34,0.26,0.59,0.59,0.23,0.23,0.59,0.55,0.26,0.47,0.59,0.6,0.88,0.23,0.47,0.47,0.23,0.59,0.59" style="fill:rgb(41,40,41);font-family:NtkljcOpenSans-Light;font-size:7.0px;stroke:none;">Convenient online submission</text>
   <text y="687.658" x="323.699" svgx:width="0.39" style="fill:rgb(19,20,19);font-family:PdhjdwOpenSans-Extrabold;font-size:7.0px;stroke:none;">•</text>
   <text y="687.658" x="326.443,328.261" svgx:width="0.26,0.26" style="fill:rgb(19,20,19);font-family:NtkljcOpenSans-Light;font-size:7.0px;stroke:none;"> </text>
   <text y="687.658" x="330.08,333.748,337.878,341.98,344.703,348.805,352.935,356.596,360.726,362.546,366.711,370.554,374.397,377.12,378.94,381.663,385.506,388.719,390.301,394.144" svgx:width="0.52,0.59,0.59,0.39,0.59,0.59,0.52,0.59,0.26,0.6,0.55,0.55,0.39,0.26,0.39,0.55,0.46,0.23,0.55,0.72" style="fill:rgb(41,40,41);font-family:NtkljcOpenSans-Light;font-size:7.0px;stroke:none;">Thorough peer review</text>
   <text y="699.656" x="323.699,326.443,328.263" svgx:width="0.39,0.26,0.26" style="fill:rgb(19,20,19);font-family:PdhjdwOpenSans-Extrabold;font-size:7.0px;stroke:none;">• </text>
   <text y="699.656" x="330.083,331.847,335.977,339.302,340.884,345.014,348.276,349.858,353.96,358.09,359.91,361.492,365.622,367.442,371.537,375.667,379.832,385.873,389.716,393.881,395.701,399.411,403.541,407.706,409.526,413.236,414.818,416.4,418.22,424.401,428.111,429.693,433.795,436.518,438.338,439.92,444.05,448.215,452.058,455.544,457.126,461.256,464.917,466.737,469.999,473.842,476.565,479.778,481.36,484.685,488.528,491.79" svgx:width="0.25,0.59,0.47,0.23,0.59,0.47,0.23,0.59,0.59,0.26,0.23,0.59,0.26,0.58,0.59,0.6,0.86,0.55,0.6,0.26,0.53,0.59,0.6,0.26,0.53,0.23,0.23,0.26,0.88,0.53,0.23,0.59,0.39,0.26,0.23,0.59,0.6,0.55,0.5,0.23,0.59,0.52,0.26,0.47,0.55,0.39,0.46,0.23,0.47,0.55,0.47,0.26" style="fill:rgb(41,40,41);font-family:NtkljcOpenSans-Light;font-size:7.0px;stroke:none;">Inclusion in PubMed and all major indexing services </text>
   <text y="711.654" x="323.699" svgx:width="0.39" style="fill:rgb(19,20,19);font-family:PdhjdwOpenSans-Extrabold;font-size:7.0px;stroke:none;">•</text>
   <text y="711.654" x="326.443,328.261" svgx:width="0.26,0.26" style="fill:rgb(19,20,19);font-family:NtkljcOpenSans-Light;font-size:7.0px;stroke:none;"> </text>
   <text y="711.654" x="330.08,336.121,339.831,343.317,344.899,351.08,355.21,361.391,363.211,366.424,368.006,371.268,372.85,377.015,378.597,380.179,381.761,384.106,387.319,389.139,391.239,395.341,398.064,399.884,403.097,407.199,411.329,414.052,415.872,418.595,422.438,425.7,429.543,433.253,435.976,439.301" svgx:width="0.86,0.53,0.5,0.23,0.88,0.59,0.88,0.26,0.46,0.23,0.47,0.23,0.6,0.23,0.23,0.23,0.34,0.46,0.26,0.3,0.59,0.39,0.26,0.46,0.59,0.59,0.39,0.26,0.39,0.55,0.47,0.55,0.53,0.39,0.47,0.59" style="fill:rgb(41,40,41);font-family:NtkljcOpenSans-Light;font-size:7.0px;stroke:none;">Maximum visibility for your research</text>
   <text y="728.531" x="323.699,327.514,331.644,335.809,341.99,343.572,345.917,347.737,350.95,355.052,359.182,361.905,363.725,369.906,373.616,377.746,381.876,385.138,388.463,391.186,392.768,396.933,399.278,401.098,404.808" svgx:width="0.55,0.59,0.6,0.88,0.23,0.34,0.26,0.46,0.59,0.59,0.39,0.26,0.88,0.53,0.59,0.59,0.47,0.47,0.39,0.23,0.6,0.34,0.26,0.53,0.34" style="fill:rgb(41,40,41);font-family:NtkljcOpenSans-Light;font-size:7.0px;stroke:none;">Submit your manuscript at</text>
   <text y="736.532" x="323.699,328.76,333.821,338.882,340.548,344.713,346.295,350.397,356.578,360.421,364.586,367.911,371.754,375.884,378.229,380.952,384.662,386.244,387.91,391.235,395.337,401.518,403.905,407.167,411.297,415.462,421.643,423.225" svgx:width="0.72,0.72,0.72,0.24,0.6,0.23,0.59,0.88,0.55,0.6,0.47,0.55,0.59,0.34,0.39,0.53,0.23,0.24,0.47,0.59,0.88,0.34,0.47,0.59,0.6,0.88,0.23,0.34" style="fill:rgb(41,40,41);font-family:NtkljcOpenSans-Light;font-size:7.0px;stroke:none;">www.biomedcentral.com/submit</text>
   <text y="611.733" x="318.398,323.557,328.892,334.469,343.016,344.743,347.856,350.914,356.271,362.31,367.645,370.845,373.903,379.227,384.683,390.37,393.483,396.541,405.088,410.324,415.648,420.983,425.042,430.366,433.567,435.294,440.882,443.995,447.053,450.166,456.205,459.263,464.983,466.71,472.749,482.242,487.697,493.263,496.321,503.526,508.982,514.306,517.419,520.62,525.856,527.693" svgx:width="0.47,0.49,0.51,0.78,0.16,0.28,0.28,0.49,0.55,0.49,0.29,0.28,0.48,0.5,0.52,0.28,0.28,0.78,0.48,0.48,0.49,0.37,0.48,0.29,0.16,0.51,0.28,0.28,0.28,0.55,0.28,0.52,0.16,0.55,0.86,0.5,0.51,0.28,0.65,0.5,0.48,0.28,0.29,0.48,0.17,0.28" style="fill:rgb(19,20,19);font-family:VvqqdlOregonLDOBook;font-size:11.0px;stroke:none;">Submit your next manuscript to BioMed Central </text>
   <text y="624.933" x="318.398,323.634,328.958,334.524,337.582,346.316,351.772,354.83,363.564,365.29,367.127,368.964,372.022,377.082,382.538,384.375,389.963,393.021,398.378,404.417,409.752,412.81,418.046,421.159,424.217,429.673,435.074,440.53,443.731,449.088,452.146,456.205,459.318,464.774,470.362" svgx:width="0.48,0.48,0.51,0.28,0.79,0.5,0.28,0.79,0.16,0.17,0.17,0.28,0.46,0.5,0.17,0.51,0.28,0.49,0.55,0.49,0.28,0.48,0.28,0.28,0.5,0.49,0.5,0.29,0.49,0.28,0.37,0.28,0.5,0.51,0.19" style="fill:rgb(19,20,19);font-family:VvqqdlOregonLDOBook;font-size:11.0px;stroke:none;">and we will help you at every step:</text>
  </g>
  <g begin="text">
   <text y="39.005" x="56.693,61.021,64.853,67.429" svgx:width="0.54,0.48,0.32,0.55" style="fill:rgb(19,20,19);font-family:FgdfvmAdvTTe45e47d2;font-size:8.0px;stroke:none;">Barn</text>
   <text y="39.005" x="74.213,77.789,80.269,82.661,86.821,88.565,90.245,92.636,96.38,100.628,104.204,105.948,108.444,112.604,116.852,123.268,126.764,131.012,133.508,137.668,139.428,141.788,146.788,150.364,154.524,156.268,158.764" svgx:width="0.45,0.31,0.55,0.52,0.22,0.21,0.55,0.47,0.53,0.45,0.22,0.31,0.52,0.53,0.8,0.45,0.53,0.31,0.52,0.22,0.55,0.63,0.45,0.52,0.22,0.31,0.53" style="fill:rgb(19,20,19);font-family:YkpfhsAdvTT7329fd89.I;font-size:8.0px;stroke:none;">et al. Environmental Health</text>
   <text y="39.005" x="165.372,167.068,169.34,173.443,177.547,181.651,185.755,188.027,189.723,193.827,197.931,199.587,203.691,207.795,211.899" svgx:width="0.21,0.28,0.51,0.51,0.51,0.51,0.28,0.21,0.51,0.51,0.21,0.51,0.51,0.51,0.21" style="fill:rgb(19,20,19);font-family:MyriadPro-Regular;font-size:8.0px;stroke:none;"> (2016) 15:116 </text>
   <text y="39.005" x="500.143,504.391,508.223,512.639,516.639,519.023,523.1030000000001,525.487,529.815,532.1350000000001,534.503" svgx:width="0.53,0.48,0.55,0.5,0.55,0.51,0.55,0.54,0.29,0.55,0.51" style="fill:rgb(19,20,19);font-family:FgdfvmAdvTTe45e47d2;font-size:8.0px;stroke:none;">Page 8 of 8</text>
  </g>
 </g>
</svg>
