<?xml version="1.0" encoding="UTF-8"?>
<svg height="510.14300000000003" width="769.861" xmlns="http://www.w3.org/2000/svg">
 <g id="page" xmlns:svgx="http://www.xml-cml.org/schema/svgx">
  <g begin="text">
   <text y="63.213" x="59.528,64.397,69.077,74.414,76.844,81.524,84.242" svgx:width="0.54,0.52,0.59,0.27,0.52,0.55,0.55" style="fill:rgb(0,0,0);font-family:FmgvqqAdvTTaf7f9f4f.B;font-size:9.0px;stroke:none;">Table 2</text>
   <text y="63.213" x="91.901,96.023,100.703,108.011,115.319,119.342,121.961,125.92099999999999,128.639,133.418,135.758,138.449,141.725,144.443,149.123,153.992,155.864,160.175,163.41500000000002,166.115,167.987,172.766,176.789,181.1,184.376,187.094,188.966,193.835,197.858,200.576,202.448,207.227,212.08700000000002,214.814,219.683,224.462,227.081,229.799,233.822,238.691,240.563,244.88299999999998,247.583,251.606,253.478,256.088,258.806,262.739,264.611,268.922,272.945,277.724,282.035,284.64500000000004,287.381,289.721,294.221,299.468,304.526,306.866,309.548,314.228,317.504,321.824,324.515,328.538,333.317,338.177,340.895,342.767,347.546,352.415,354.287,358.22,362.243,364.961,369.74,372.359,375.599,378.371,383.15,385.48999999999995,388.181,392.114,396.137,398.756,403.625,405.497,410.276,414.299,418.322,421.598,425.531,430.211,432.083,436.106,438.716,441.47,446.249,450.56,454.583,456.455,459.173" svgx:width="0.46,0.52,0.81,0.81,0.45,0.29,0.44,0.55,0.53,0.26,0.55,0.36,0.3,0.52,0.54,0.21,0.48,0.36,0.55,0.21,0.53,0.45,0.48,0.36,0.3,0.21,0.54,0.45,0.3,0.21,0.53,0.54,0.55,0.54,0.53,0.29,0.3,0.45,0.54,0.21,0.48,0.55,0.45,0.21,0.29,0.55,0.44,0.21,0.48,0.45,0.53,0.48,0.29,0.55,0.26,0.5,0.58,0.56,0.26,0.55,0.52,0.36,0.48,0.55,0.45,0.53,0.54,0.55,0.21,0.53,0.54,0.21,0.44,0.45,0.3,0.53,0.29,0.36,0.55,0.53,0.26,0.55,0.44,0.45,0.29,0.54,0.21,0.53,0.45,0.45,0.36,0.44,0.52,0.21,0.45,0.29,0.55,0.53,0.48,0.45,0.21,0.3,0.53" style="fill:rgb(0,0,0);font-family:LsjgsdAdvTTb5929f4c;font-size:9.0px;stroke:none;">Summary of studies investigating portable air cleaner (PAC) use and indicators of cardiovascular health</text>
   <text y="63.213" x="466.643,468.983,473.762,478.262,482.852,485.471,487.244,491.834,496.334,500.078,504.578" svgx:width="0.26,0.53,0.5,0.51,0.29,0.2,0.51,0.5,0.42,0.5,0.26" style="fill:rgb(0,0,0);font-family:QvrmmhAdvTT1b53b5fb.I;font-size:9.0px;stroke:none;">(Continued)</text>
   <text y="76.932" x="59.528,63.437,67.011,68.672,72.958,76.531,78.609,81.767,85.34,89.666,93.495,97.735,100.125,103.954,106.354,108.8,112.373,114.035,115.395,117.752" svgx:width="0.49,0.45,0.21,0.54,0.45,0.26,0.4,0.45,0.54,0.48,0.53,0.55,0.48,0.3,0.55,0.45,0.21,0.17,0.55,0.26" style="fill:rgb(0,0,0);font-family:LsjgsdAdvTTb5929f4c;font-size:8.0px;stroke:none;">Kajbafzadeh et al. [</text>
   <text y="76.932" x="119.791,123.623" svgx:width="0.48,0.48" style="fill:rgb(19,20,19);font-family:LsjgsdAdvTTb5929f4c;font-size:8.0px;stroke:none;">20</text>
   <text y="76.932" x="127.447,129.52700000000002,168.662,173.662,177.326,181.326,185.96599999999998,188.334,190.414,192.078,193.742,196.158,199.99" svgx:width="0.26,0.55,0.63,0.46,0.5,0.58,0.55,0.26,0.21,0.21,0.3,0.48,0.29" style="fill:rgb(0,0,0);font-family:LsjgsdAdvTTb5929f4c;font-size:8.0px;stroke:none;">] HEPA filter</text>
   <text y="85.948" x="168.662,172.326,178.07,182.31,184.702,188.702,193.366,197.798,200.678,203.126,208.87,212.654,214.982,218.822,221.214,225.462,229.789,233.573,235.901,239.477,241.893,245.725,250.045,252.453,254.117,258.35699999999997,260.733,264.565,268.141,271.637,275.877,278.253,282.501,286.749,293.245" svgx:width="0.46,0.72,0.53,0.55,0.5,0.58,0.56,0.36,0.55,0.72,0.48,0.29,0.48,0.55,0.53,0.54,0.48,0.29,0.45,0.3,0.48,0.54,0.55,0.21,0.53,0.55,0.48,0.45,0.44,0.53,0.55,0.53,0.53,0.81,0.48" style="fill:rgb(0,0,0);font-family:LsjgsdAdvTTb5929f4c;font-size:8.0px;stroke:none;">Two PACs were operated in each home</text>
   <text y="94.964" x="168.662,170.741,174.989,177.309,179.716,183.547,187.387,189.746,194.073,197.648,201.143,204.055,205.41500000000002,207.774,212.773,216.956,218.619,221.034,223.914,226.361,232.105,235.888,238.215,242.055,244.446,246.773,250.348,254.595,258.923,263.17,269.617,271.28,274.79999999999995,277.159,281.406,285.734,289.565,291.892,295.467,297.882,301.713" svgx:width="0.26,0.53,0.29,0.55,0.48,0.48,0.55,0.54,0.45,0.44,0.36,0.17,0.55,0.63,0.53,0.21,0.3,0.36,0.55,0.72,0.48,0.29,0.48,0.55,0.29,0.45,0.53,0.54,0.53,0.81,0.21,0.44,0.55,0.53,0.54,0.48,0.29,0.45,0.3,0.48,0.54" style="fill:rgb(0,0,0);font-family:LsjgsdAdvTTb5929f4c;font-size:8.0px;stroke:none;">for 14 days. Units were randomly operated</text>
   <text y="103.924" x="168.662,174.406,176.07,178.486,182.726,185.102,187.518,191.766,195.606,197.974,200.054,201.718,203.382,205.798,209.63,211.95,214.358,216.438,218.518,220.182,221.782,224.198,226.526,230.101,232.517,234.181,238.429,242.669,245.085,249.413,253.189,255.517,257.181,261.429,265.757,267.837,270.197,273.773,278.021" svgx:width="0.72,0.21,0.3,0.53,0.55,0.3,0.53,0.48,0.55,0.26,0.21,0.21,0.3,0.48,0.29,0.55,0.26,0.26,0.21,0.21,0.3,0.29,0.45,0.3,0.21,0.53,0.53,0.55,0.54,0.48,0.29,0.21,0.53,0.54,0.26,0.55,0.45,0.53,0.54" style="fill:rgb(0,0,0);font-family:LsjgsdAdvTTb5929f4c;font-size:8.0px;stroke:none;">with the filter (filtration period) and</text>
   <text y="112.94" x="168.662,174.406,176.07,178.486,182.734,186.918,191.078,193.478,195.934,198.35,202.598,206.43800000000002,208.806,210.886,212.494,214.158,216.574,220.406,222.726,225.134,227.214,230.709,234.957,239.205,241.573,243.901,248.149,249.829,252.229,256.557,260.333,262.661,264.325,268.573,272.901,274.981,277.341,281.173,284.749,288.245" svgx:width="0.72,0.21,0.3,0.53,0.53,0.52,0.3,0.55,0.3,0.53,0.48,0.55,0.26,0.21,0.21,0.3,0.48,0.29,0.55,0.26,0.44,0.53,0.53,0.3,0.29,0.53,0.21,0.55,0.54,0.48,0.29,0.21,0.53,0.54,0.26,0.55,0.48,0.45,0.44,0.53" style="fill:rgb(0,0,0);font-family:LsjgsdAdvTTb5929f4c;font-size:8.0px;stroke:none;">without the filter (control period) each</text>
   <text y="121.956" x="168.662,170.738,174.982,177.302,179.706,183.95,187.522,189.182,191.262,193.642,196.054,200.298,204.138,206.502,209.41,211.822,215.978,220.302,223.822,226.193,230.517,234.345,236.669,238.329,242.573,246.897" svgx:width="0.26,0.53,0.29,0.55,0.53,0.45,0.21,0.26,0.55,0.3,0.53,0.48,0.55,0.36,0.3,0.52,0.54,0.44,0.55,0.54,0.48,0.29,0.21,0.53,0.54,0.17" style="fill:rgb(0,0,0);font-family:LsjgsdAdvTTb5929f4c;font-size:8.0px;stroke:none;">for half the study period.</text>
   <text y="76.94" x="338.852,345.348,349.596,353.764,358.084,360.508,363.42,369.916,374.116,377.444,381.284,383.7,387.948,390.268,392.659,395.075,397.403,400.979,403.059,405.075,406.739,410.235,412.563,414.891,418.723,420.387,423.963,426.379,430.211,434.531,436.883,440.883" svgx:width="0.81,0.53,0.53,0.54,0.55,0.36,0.81,0.53,0.42,0.48,0.55,0.53,0.29,0.55,0.3,0.29,0.45,0.26,0.26,0.21,0.44,0.29,0.29,0.48,0.21,0.45,0.3,0.48,0.54,0.55,0.5,0.77" style="fill:rgb(0,0,0);font-family:LsjgsdAdvTTb5929f4c;font-size:8.0px;stroke:none;">Wood smoke or traffic-related PM</text>
   <text y="78.293" x="447.023,449.897,450.893" svgx:width="0.48,0.17,0.48" style="fill:rgb(0,0,0);font-family:LsjgsdAdvTTb5929f4c;font-size:5.33px;stroke:none;">2.5</text>
   <text y="85.946" x="338.853,342.517,346.765,351.045,355.293,357.709,361.957,365.725,367.389,369.053,372.629,374.309,376.725,378.805,382.965,387.157,390.653,393.069,394.733,398.981,403.221,405.581,407.661,411.661,416.66,418.324,420.404,421.764,424.116,425.78,430.028,432.108,433.772,437.348,443.788,450.284,453.86,456.276,457.94,462.188" svgx:width="0.46,0.53,0.54,0.53,0.3,0.53,0.48,0.21,0.21,0.45,0.21,0.55,0.26,0.52,0.53,0.44,0.3,0.21,0.53,0.53,0.55,0.26,0.5,0.63,0.21,0.26,0.17,0.55,0.21,0.53,0.26,0.21,0.45,0.81,0.81,0.45,0.3,0.21,0.53,0.53" style="fill:rgb(0,0,0);font-family:LsjgsdAdvTTb5929f4c;font-size:8.0px;stroke:none;">Endothelial function (RHI); inflammation</text>
   <text y="94.962" x="338.853,340.933,345.373,349.373,353.373,354.733,357.109,358.773,362.349,364.677,368.509" svgx:width="0.26,0.56,0.5,0.5,0.17,0.55,0.21,0.45,0.29,0.48,0.26" style="fill:rgb(0,0,0);font-family:LsjgsdAdvTTb5929f4c;font-size:8.0px;stroke:none;">(CRP, IL-6)</text>
   <text y="103.922" x="338.853,343.765,346.093,349.925,353.501,355.861,359.693,362.013,364.421,368.421,371.997,376.245,379.669,383.917,388.077,391.653,395.485,397.805,400.189,403.765,406.093,409.925,413.5,414.86,417.196,421.692,425.268,429.516,433.092,437.38" svgx:width="0.61,0.29,0.48,0.45,0.3,0.48,0.29,0.55,0.5,0.45,0.53,0.44,0.53,0.52,0.45,0.48,0.29,0.55,0.45,0.29,0.48,0.45,0.17,0.55,0.56,0.45,0.53,0.45,0.54,0.45" style="fill:rgb(0,0,0);font-family:LsjgsdAdvTTb5929f4c;font-size:8.0px;stroke:none;">Greater Vancouver area, Canada</text>
   <text y="112.938" x="338.853,343.517,347.845,351.949,353.613,356.029,358.909,361.357,364.933,369.261,373.037,377.35699999999997,379.781,383.613" svgx:width="0.58,0.54,0.52,0.21,0.3,0.36,0.55,0.45,0.54,0.48,0.54,0.55,0.48,0.48" style="fill:rgb(0,0,0);font-family:LsjgsdAdvTTb5929f4c;font-size:8.0px;stroke:none;">Adults aged 19</text>
   <text y="112.938" x="387.437" svgx:width="0.5" style="fill:rgb(0,0,0);font-family:YnknwbAdvTTb5929f4c;font-size:8.0px;stroke:none;">–</text>
   <text y="112.938" x="391.405,395.237,399.077,401.437,404.933,408.765,412.341,414.668,417.54" svgx:width="0.48,0.48,0.55,0.44,0.48,0.45,0.29,0.36,0.17" style="fill:rgb(0,0,0);font-family:LsjgsdAdvTTb5929f4c;font-size:8.0px;stroke:none;">72 years;</text>
   <text y="112.938" x="421.284" svgx:width="0.51" style="fill:rgb(0,0,0);font-family:QvrmmhAdvTT1b53b5fb.I;font-size:8.0px;stroke:none;">n</text>
   <text y="112.938" x="426.956,431.67600000000004,433.249,437.078" svgx:width="0.59,0.55,0.48,0.48" style="fill:rgb(0,0,0);font-family:LsjgsdAdvTTb5929f4c;font-size:8.0px;stroke:none;">= 83</text>
   <text y="76.939" x="519.595,523.259,526.675,530.931,535.179,538.091,542.251,544.579,548.411,549.771,552.131,553.795,558.043,562.371,566.619,570.779,573.099,575.538,579.538" svgx:width="0.46,0.43,0.54,0.53,0.36,0.52,0.29,0.48,0.17,0.55,0.21,0.53,0.54,0.53,0.53,0.29,0.55,0.5,0.77" style="fill:rgb(0,0,0);font-family:LsjgsdAdvTTb5929f4c;font-size:8.0px;stroke:none;">Exposure: Indoor PM</text>
   <text y="78.293" x="585.694,588.568,589.564" svgx:width="0.48,0.17,0.48" style="fill:rgb(0,0,0);font-family:LsjgsdAdvTTb5929f4c;font-size:5.33px;stroke:none;">2.5</text>
   <text y="76.932" x="594.822,598.316,602.563,606.809,610.239,614.07,618.316,620.73,623.057,626.631,629.045,630.708,634.954,639.136,642.016,644.463,650.205,653.987,656.314,660.154,662.544,664.87,668.701,673.027,677.185,680.68,684.51" svgx:width="0.44,0.53,0.53,0.44,0.48,0.53,0.3,0.29,0.45,0.3,0.21,0.53,0.53,0.36,0.55,0.72,0.48,0.29,0.48,0.55,0.29,0.48,0.54,0.52,0.44,0.48,0.54" style="fill:rgb(0,0,0);font-family:LsjgsdAdvTTb5929f4c;font-size:8.0px;stroke:none;">concentrations were reduced</text>
   <text y="85.948" x="519.591,523.919,527.439,529.799,533.631,537.399,543.231,544.591,546.982,553.142,556.974,560.55,564.79,567.166,569.246,572.158,574.574,578.11,582.358,586.686,590.262,592.59,596.9100000000001,599.31,603.638,607.414,610.99,612.654,616.229,618.645,620.309,624.557,628.805,630.885,633.261,634.925,639.173,643.501,647.749,651.909,654.229,656.669,660.669" svgx:width="0.54,0.44,0.55,0.48,0.48,0.73,0.17,0.55,0.77,0.48,0.45,0.53,0.55,0.26,0.36,0.3,0.45,0.53,0.54,0.45,0.29,0.54,0.55,0.54,0.48,0.45,0.21,0.45,0.3,0.21,0.53,0.53,0.26,0.55,0.21,0.53,0.54,0.53,0.53,0.29,0.55,0.5,0.77" style="fill:rgb(0,0,0);font-family:LsjgsdAdvTTb5929f4c;font-size:8.0px;stroke:none;">by 40%. Mean (standard deviation) indoor PM</text>
   <text y="87.25" x="666.765,669.639,670.635" svgx:width="0.48,0.17,0.48" style="fill:rgb(0,0,0);font-family:LsjgsdAdvTTb5929f4c;font-size:5.33px;stroke:none;">2.5</text>
   <text y="94.961" x="519.591,523.086,527.334,531.582,535.014,538.846,543.094,545.51,547.838,551.414,553.782,555.446,559.694,563.942,566.822,569.262,575.006,578.79,581.118,584.9580000000001,587.35,591.182,592.51,596.35,598.686,600.766,604.597,605.925,609.757" svgx:width="0.44,0.53,0.53,0.44,0.48,0.53,0.3,0.29,0.45,0.3,0.21,0.53,0.53,0.36,0.55,0.72,0.48,0.29,0.48,0.55,0.48,0.17,0.48,0.55,0.26,0.48,0.17,0.48,0.26" style="fill:rgb(0,0,0);font-family:LsjgsdAdvTTb5929f4c;font-size:8.0px;stroke:none;">concentrations were 4.3 (3.7)</text>
   <text y="94.961" x="614.213" svgx:width="0.53" style="fill:rgb(0,0,0);font-family:GylsdyAdvTTb5929f4c;font-size:8.0px;stroke:none;">μ</text>
   <text y="94.961" x="618.461,622.789,625.533" svgx:width="0.54,0.34,0.81" style="fill:rgb(0,0,0);font-family:LsjgsdAdvTTb5929f4c;font-size:8.0px;stroke:none;">g/m</text>
   <text y="91.389" x="632.013" svgx:width="0.48" style="fill:rgb(0,0,0);font-family:LsjgsdAdvTTb5929f4c;font-size:5.33px;stroke:none;">3</text>
   <text y="94.961" x="637.285,641.613,645.773,648.053,649.717,653.965,658.2850000000001,660.693,663.109,667.357,671.197,673.564,675.644,677.308,678.972,681.388,683.716,687.292,689.668,691.332,695.58" svgx:width="0.54,0.52,0.29,0.21,0.53,0.54,0.55,0.3,0.53,0.48,0.55,0.26,0.21,0.21,0.3,0.29,0.45,0.3,0.21,0.53,0.53" style="fill:rgb(0,0,0);font-family:LsjgsdAdvTTb5929f4c;font-size:8.0px;stroke:none;">during the filtration</text>
   <text y="103.921" x="519.59,523.918,527.694,530.022,531.686,535.934,540.254,542.662,546.238,550.43,554.75,557.174,561.006,562.334,566.174,568.566,570.646,574.478,575.806,579.566" svgx:width="0.54,0.48,0.29,0.21,0.53,0.54,0.55,0.45,0.53,0.54,0.55,0.48,0.17,0.48,0.55,0.26,0.48,0.17,0.48,0.26" style="fill:rgb(0,0,0);font-family:LsjgsdAdvTTb5929f4c;font-size:8.0px;stroke:none;">period and 7.1 (6.1)</text>
   <text y="103.921" x="584.046" svgx:width="0.53" style="fill:rgb(0,0,0);font-family:GylsdyAdvTTb5929f4c;font-size:8.0px;stroke:none;">μ</text>
   <text y="103.921" x="588.294,592.621,595.365" svgx:width="0.54,0.34,0.81" style="fill:rgb(0,0,0);font-family:LsjgsdAdvTTb5929f4c;font-size:8.0px;stroke:none;">g/m</text>
   <text y="100.403" x="601.852" svgx:width="0.48" style="fill:rgb(0,0,0);font-family:LsjgsdAdvTTb5929f4c;font-size:5.33px;stroke:none;">3</text>
   <text y="103.918" x="607.124,611.452,615.612,617.892,619.556,623.804,628.124,630.532,632.948,637.196,641.0360000000001,643.404,646.9,651.148,655.396,657.748,660.076,664.323,666.0029999999999,668.403,672.731,676.507,678.835,680.499,684.747,689.075" svgx:width="0.54,0.52,0.29,0.21,0.53,0.54,0.55,0.3,0.53,0.48,0.55,0.44,0.53,0.53,0.3,0.29,0.53,0.21,0.55,0.54,0.48,0.29,0.21,0.53,0.54,0.17" style="fill:rgb(0,0,0);font-family:LsjgsdAdvTTb5929f4c;font-size:8.0px;stroke:none;">during the control period.</text>
   <text y="112.934" x="519.589,524.517,528.349,531.925,533.589,536.005,540.253,541.613,543.965,549.045,553.285,555.701,558.613,560.277,564.541,568.789,570.453,572.533,574.197,577.693,581.269,585.517,587.917,590.276,594.108,596.188,598.268,602.1,605.596,608.012,610.924" svgx:width="0.63,0.48,0.45,0.21,0.3,0.53,0.17,0.55,0.63,0.53,0.55,0.36,0.21,0.54,0.53,0.21,0.26,0.21,0.44,0.45,0.53,0.3,0.55,0.48,0.26,0.26,0.48,0.44,0.3,0.36,0.17" style="fill:rgb(0,0,0);font-family:LsjgsdAdvTTb5929f4c;font-size:8.0px;stroke:none;">Health: No significant effects.</text>
   <text y="135.95" x="59.531,63.531,67.107,71.435,73.763,77.955,80.283,86.443,90.019,92.347,94.763,96.427,100.635,104.467,107.667,110.043,113.875,116.275,118.658,122.234,123.898,125.258,127.618" svgx:width="0.5,0.45,0.54,0.29,0.53,0.29,0.77,0.45,0.29,0.3,0.21,0.53,0.48,0.4,0.55,0.48,0.3,0.55,0.45,0.21,0.17,0.55,0.26" style="fill:rgb(0,0,0);font-family:LsjgsdAdvTTb5929f4c;font-size:8.0px;stroke:none;">Padro-Martinez et al. [</text>
   <text y="135.95" x="129.714,133.546" svgx:width="0.48,0.48" style="fill:rgb(19,20,19);font-family:LsjgsdAdvTTb5929f4c;font-size:8.0px;stroke:none;">21</text>
   <text y="135.95" x="137.37,139.45000000000002,168.666,173.666,177.33,181.33,185.97,188.338,190.418,192.082,193.746,196.161,199.993,202.313,204.721,206.801,212.489,214.153,218.401,222.729,226.977,232.737,235.113,239.273,243.521,245.185,247.601" svgx:width="0.26,0.55,0.63,0.46,0.5,0.58,0.55,0.26,0.21,0.21,0.3,0.48,0.29,0.55,0.26,0.72,0.21,0.53,0.54,0.53,0.72,0.55,0.52,0.53,0.21,0.3,0.26" style="fill:rgb(0,0,0);font-family:LsjgsdAdvTTb5929f4c;font-size:8.0px;stroke:none;">] HEPA filter (window unit)</text>
   <text y="144.966" x="168.666,172.33,178.074,182.31400000000002,184.706,188.706,193.37,197.801,200.68099999999998,203.129,208.873,212.657,214.985,218.82500000000002,221.217,225.465,229.793,233.577,235.905,239.481,241.897,245.729,250.049,252.457,254.121,258.361,260.737,264.569,268.145,271.641,275.88100000000003,278.256,282.504,286.752,293.248" svgx:width="0.46,0.72,0.53,0.55,0.5,0.58,0.56,0.36,0.55,0.72,0.48,0.29,0.48,0.55,0.53,0.54,0.48,0.29,0.45,0.3,0.48,0.54,0.55,0.21,0.53,0.55,0.48,0.45,0.44,0.53,0.55,0.53,0.53,0.81,0.48" style="fill:rgb(0,0,0);font-family:LsjgsdAdvTTb5929f4c;font-size:8.0px;stroke:none;">Two PACs were operated in each home</text>
   <text y="153.926" x="168.666,170.745,174.992,177.31199999999998,179.719,183.55,187.39000000000001,189.75,194.077,197.652,201.147,204.058,205.418,207.777,212.776,216.96,218.623,221.038,223.918,226.365,232.108,235.891,238.219,242.059,244.45,246.777,250.352,254.599,258.926,263.173,269.62,271.284,274.804,277.163,281.41,285.737,289.568,291.895,295.471,297.886,301.717" svgx:width="0.26,0.53,0.29,0.55,0.48,0.48,0.55,0.54,0.45,0.44,0.36,0.17,0.55,0.63,0.53,0.21,0.3,0.36,0.55,0.72,0.48,0.29,0.48,0.55,0.29,0.45,0.53,0.54,0.53,0.81,0.21,0.44,0.55,0.53,0.54,0.48,0.29,0.45,0.3,0.48,0.54" style="fill:rgb(0,0,0);font-family:LsjgsdAdvTTb5929f4c;font-size:8.0px;stroke:none;">for 42 days. Units were randomly operated</text>
   <text y="162.941" x="168.666,174.41,176.074,178.49,182.73000000000002,185.106,187.522,191.77,195.61,197.977,200.057,201.721,203.385,205.801,209.633,211.953,214.361,216.441,218.521,220.185,221.785,224.201,226.529,230.105,232.521,234.185,238.433,242.673,245.089,249.417,253.193,255.521,257.185,261.433,265.761,267.841,270.201,273.777,278.025,282.34499999999997,284.768,290.512,292.176,294.592,298.768,303.016,307.176" svgx:width="0.72,0.21,0.3,0.53,0.55,0.3,0.53,0.48,0.55,0.26,0.21,0.21,0.3,0.48,0.29,0.55,0.26,0.26,0.21,0.21,0.3,0.29,0.45,0.3,0.21,0.53,0.53,0.55,0.54,0.48,0.29,0.21,0.53,0.54,0.26,0.55,0.45,0.53,0.54,0.55,0.72,0.21,0.3,0.53,0.53,0.52,0.3" style="fill:rgb(0,0,0);font-family:LsjgsdAdvTTb5929f4c;font-size:8.0px;stroke:none;">with the filter (filtration period) and without</text>
   <text y="171.957" x="168.666,171.081,175.328,179.168,181.535,183.614,185.278,186.941,189.356,193.187,195.507,197.914,199.993,203.489,207.664,211.911,214.326,216.653,220.9,222.58,224.948,229.275,233.106,235.433,237.096,241.343,245.67,247.75,250.15,253.981,257.556,261.051,265.291,267.666,269.745,273.992,276.312,278.72,282.967,286.486,288.149,290.229,292.66,295.075,299.323" svgx:width="0.3,0.53,0.48,0.55,0.26,0.21,0.21,0.3,0.48,0.29,0.55,0.26,0.44,0.53,0.53,0.3,0.29,0.53,0.21,0.55,0.54,0.48,0.29,0.21,0.53,0.54,0.26,0.55,0.48,0.45,0.44,0.53,0.55,0.26,0.53,0.29,0.55,0.53,0.45,0.21,0.26,0.55,0.3,0.53,0.48" style="fill:rgb(0,0,0);font-family:LsjgsdAdvTTb5929f4c;font-size:8.0px;stroke:none;">the filter (control period) each for half the</text>
   <text y="180.973" x="168.666,171.571,173.979,178.132,182.453,185.973,188.35,192.67,196.495,198.816,200.473,204.713,209.034" svgx:width="0.36,0.3,0.52,0.54,0.44,0.55,0.54,0.48,0.29,0.21,0.53,0.54,0.17" style="fill:rgb(0,0,0);font-family:LsjgsdAdvTTb5929f4c;font-size:8.0px;stroke:none;">study period.</text>
   <text y="135.958" x="338.856,342.518,344.844,348.379,350.457,352.535,354.198,357.692,360.019,362.345,366.175,367.838,371.412,373.826,377.657,381.977,384.335,388.493,390.156,392.57,394.897,398.471,400.549,402.212,406.458,410.298,412.696,417.023,420.597,422.923,425.338,427.0,430.495,432.157,435.931,438.811,441.258,443.336,448.05600000000004,450.438,454.269,458.099,461.93899999999996,464.321,468.568,475.062" svgx:width="0.46,0.29,0.45,0.26,0.26,0.21,0.44,0.29,0.29,0.48,0.21,0.45,0.3,0.48,0.54,0.55,0.52,0.21,0.3,0.29,0.45,0.26,0.21,0.53,0.48,0.55,0.54,0.45,0.29,0.3,0.21,0.44,0.21,0.48,0.36,0.55,0.26,0.59,0.55,0.48,0.48,0.48,0.55,0.53,0.81,0.26" style="fill:rgb(0,0,0);font-family:LsjgsdAdvTTb5929f4c;font-size:8.0px;stroke:none;">Traffic-related ultrafine particles (&lt; 100 nm)</text>
   <text y="144.974" x="338.856,340.519,344.766,346.789,348.452,352.028,358.523,365.018,368.593,371.008,372.671,376.918,381.158,383.558,385.637,387.3,390.875,393.202,396.993,398.353,400.737,405.232,409.231,413.23,414.59000000000003,416.949,419.028,420.635,424.963,427.29,428.953,433.2,437.447,441.774,445.606,449.853,451.213,453.564,457.227,462.234,465.897,468.224,472.224,473.887,475.55,477.629" svgx:width="0.21,0.53,0.26,0.21,0.45,0.81,0.81,0.45,0.3,0.21,0.53,0.53,0.55,0.26,0.21,0.45,0.29,0.48,0.17,0.55,0.56,0.5,0.5,0.17,0.55,0.26,0.21,0.54,0.29,0.21,0.53,0.53,0.54,0.48,0.53,0.17,0.55,0.46,0.63,0.46,0.29,0.5,0.21,0.21,0.26,0.17" style="fill:rgb(0,0,0);font-family:LsjgsdAdvTTb5929f4c;font-size:8.0px;stroke:none;">Inflammation (IL-6, CRP, fibrinogen, TNF-RII);</text>
   <text y="153.934" x="338.856,343.184,344.848,349.096,353.344,357.664,359.999,364.327,366.655,370.487,373.399,376.271,380.431,382.759" svgx:width="0.54,0.21,0.53,0.53,0.54,0.55,0.54,0.29,0.48,0.36,0.36,0.52,0.29,0.48" style="fill:rgb(0,0,0);font-family:LsjgsdAdvTTb5929f4c;font-size:8.0px;stroke:none;">blood pressure</text>
   <text y="162.949" x="338.856,342.52,346.768,353.199,357.031,359.359,362.935,364.599,366.263,367.927,371.759,373.119,375.479,381.639,385.215,388.063,390.975,394.551,398.047,402.295,406.455,409.367,413.199,415.559,417.975,420.887,422.247,424.63,429.63,433.878,435.542,437.894,441.726,446.046,448.438,452.102,454.518,458.094,460.51,464.342" svgx:width="0.46,0.53,0.81,0.48,0.29,0.45,0.21,0.21,0.21,0.48,0.17,0.55,0.77,0.45,0.36,0.36,0.45,0.44,0.53,0.52,0.36,0.48,0.3,0.3,0.36,0.17,0.55,0.63,0.53,0.21,0.3,0.48,0.54,0.55,0.46,0.3,0.45,0.3,0.48,0.36" style="fill:rgb(0,0,0);font-family:LsjgsdAdvTTb5929f4c;font-size:8.0px;stroke:none;">Somerville, Massachusetts, United States</text>
   <text y="171.965" x="338.856,344.127,345.79,350.117,353.948,356.268,358.691,362.267,366.594,370.705,372.368,374.783,377.663,380.11,385.853,387.517,389.86,394.1,396.547,403.042,406.809,410.384,414.624,417.016,419.095,422.006,424.421,427.996,432.243,436.57,440.146,442.473,446.8,448.88,451.279,454.854,459.181" svgx:width="0.67,0.21,0.54,0.48,0.29,0.55,0.45,0.54,0.52,0.21,0.3,0.36,0.55,0.72,0.21,0.3,0.53,0.55,0.81,0.48,0.45,0.53,0.55,0.26,0.36,0.3,0.45,0.53,0.54,0.45,0.29,0.54,0.26,0.55,0.45,0.54,0.48" style="fill:rgb(0,0,0);font-family:LsjgsdAdvTTb5929f4c;font-size:8.0px;stroke:none;">Older adults with mean (standard) age</text>
   <text y="180.981" x="338.856,343.104,345.18399999999997,347.528,351.36,355.191,356.519,360.359,362.719,364.799,368.631,369.959,373.791,375.871,378.255,381.751,385.583,389.159,391.487,394.359" svgx:width="0.53,0.26,0.55,0.48,0.48,0.17,0.48,0.55,0.26,0.48,0.17,0.48,0.26,0.55,0.44,0.48,0.45,0.29,0.36,0.17" style="fill:rgb(0,0,0);font-family:LsjgsdAdvTTb5929f4c;font-size:8.0px;stroke:none;">of 53.6 (9.2) years;</text>
   <text y="180.981" x="398.103" svgx:width="0.51" style="fill:rgb(0,0,0);font-family:QvrmmhAdvTT1b53b5fb.I;font-size:8.0px;stroke:none;">n</text>
   <text y="180.981" x="403.775,408.495,410.068,413.896" svgx:width="0.59,0.55,0.48,0.48" style="fill:rgb(0,0,0);font-family:LsjgsdAdvTTb5929f4c;font-size:8.0px;stroke:none;">= 20</text>
   <text y="135.966" x="519.597,523.261,526.676,530.931,535.178,538.089,542.248,544.575,548.407,549.767,552.126,556.125,559.7,562.027,564.442,566.106,569.529,571.192,575.032,577.407,580.902,585.149,589.309,593.556,595.971,598.851,601.274,607.017,610.8,613.127,616.967,619.359,621.686,625.517,629.844,634.003,637.498,641.33,645.6500000000001,648.017,652.344,655.864,658.279,662.11,665.877" svgx:width="0.46,0.43,0.54,0.53,0.36,0.52,0.29,0.48,0.17,0.55,0.5,0.45,0.29,0.3,0.21,0.44,0.21,0.48,0.55,0.44,0.53,0.52,0.53,0.3,0.36,0.55,0.72,0.48,0.29,0.48,0.55,0.29,0.48,0.54,0.52,0.44,0.48,0.54,0.55,0.54,0.44,0.55,0.48,0.48,0.73" style="fill:rgb(0,0,0);font-family:LsjgsdAdvTTb5929f4c;font-size:8.0px;stroke:none;">Exposure: Particle counts were reduced by 45%</text>
   <text y="144.982" x="519.597,521.677,524.005,527.533,531.781,536.109,539.941,544.2610000000001,546.637,548.717,551.045,555.293,561.773,564.157,567.9970000000001,570.389,572.805,577.045,579.405,583.237,587.068,592.9,594.98" svgx:width="0.26,0.29,0.45,0.53,0.54,0.48,0.54,0.55,0.26,0.29,0.53,0.81,0.55,0.48,0.55,0.3,0.53,0.55,0.48,0.48,0.73,0.26,0.17" style="fill:rgb(0,0,0);font-family:LsjgsdAdvTTb5929f4c;font-size:8.0px;stroke:none;">(ranged from 0 to 68%).</text>
   <text y="153.942" x="519.597,524.525,528.357,531.933,533.597,536.013,540.261,541.621,543.973,545.637,549.213,551.541,555.3810000000001,557.749,561.245,565.493,569.741,573.237,577.021,581.269,583.685,586.013,589.588,592.004,593.668,597.916,602.164,605.044,607.404,613.148,616.98,619.308,623.148,625.548,629.796,634.0360000000001,636.38,639.956,643.532,647.364,649.692,653.268,657.595,661.4350000000001,663.819,667.651,671.483,672.811,676.571" svgx:width="0.63,0.48,0.45,0.21,0.3,0.53,0.17,0.55,0.21,0.45,0.29,0.48,0.55,0.44,0.53,0.53,0.44,0.48,0.53,0.3,0.29,0.45,0.3,0.21,0.53,0.53,0.36,0.55,0.72,0.48,0.29,0.48,0.55,0.53,0.53,0.55,0.45,0.45,0.48,0.29,0.45,0.54,0.48,0.55,0.48,0.48,0.17,0.48,0.73" style="fill:rgb(0,0,0);font-family:LsjgsdAdvTTb5929f4c;font-size:8.0px;stroke:none;">Health: IL-6 concentrations were on average 49.6%</text>
   <text y="162.957" x="519.597,521.677,525.509,529.341,535.181,537.509,542.005,543.669,545.029,547.373,551.205,552.533,556.365,560.197,561.557,563.869,567.701,571.533,572.861,576.693,582.525,584.605,586.997,588.661,592.909,598.653,602.421,604.7410000000001,607.181,611.508,615.668,617.948,619.612,623.86,628.1800000000001,630.588,633.004,637.252,641.092,643.46,646.956,651.204,655.452,657.804,660.132,664.38,666.06,668.404,672.732,676.564,678.892,680.556,684.803" svgx:width="0.26,0.48,0.48,0.73,0.55,0.56,0.21,0.17,0.55,0.48,0.17,0.48,0.48,0.17,0.55,0.48,0.48,0.17,0.48,0.73,0.26,0.55,0.21,0.53,0.72,0.48,0.29,0.55,0.54,0.52,0.29,0.21,0.53,0.54,0.55,0.3,0.53,0.48,0.55,0.44,0.53,0.53,0.3,0.29,0.53,0.21,0.55,0.54,0.48,0.29,0.21,0.53,0.54" style="fill:rgb(0,0,0);font-family:LsjgsdAdvTTb5929f4c;font-size:8.0px;stroke:none;">(95% CI: 5.90, 93.3%) lower during the control period</text>
   <text y="171.973" x="519.597,523.093,527.341,533.773,538.101,541.677,544.005,547.837,552.157,554.525,560.269,561.933,564.349,568.589,570.965,573.381,577.629,581.469,583.837,585.917,587.581,589.245,591.66,593.988,597.564,599.94,601.604,605.852,610.092,612.524,616.852,620.628,622.956,624.62,628.868,633.196" svgx:width="0.44,0.53,0.81,0.54,0.45,0.29,0.48,0.54,0.55,0.72,0.21,0.3,0.53,0.55,0.3,0.53,0.48,0.55,0.26,0.21,0.21,0.3,0.29,0.45,0.3,0.21,0.53,0.53,0.55,0.54,0.48,0.29,0.21,0.53,0.54,0.17" style="fill:rgb(0,0,0);font-family:LsjgsdAdvTTb5929f4c;font-size:8.0px;stroke:none;">compared with the filtration period.</text>
   <text y="191.112" x="59.528" svgx:width="0.48" style="fill:rgb(0,0,0);font-family:FgdfvmAdvTTe45e47d2;font-size:4.67px;stroke:none;">a</text>
   <text y="194.23" x="62.022,65.662,70.037" svgx:width="0.52,0.63,0.23" style="fill:rgb(0,0,0);font-family:YkpfhsAdvTT7329fd89.I;font-size:7.0px;stroke:none;">RHI</text>
   <text y="194.23" x="73.761,76.015,79.515,82.868,85.997,88.251,89.854,93.207,96.707,98.876,102.74,106.016,109.95,113.45,115.704,119.204,125.035,126.638,129.99800000000002,132.154,133.757,137.621,141.555,145.055,148.261" svgx:width="0.32,0.5,0.48,0.45,0.32,0.23,0.48,0.5,0.55,0.55,0.47,0.56,0.5,0.32,0.5,0.83,0.23,0.48,0.55,0.23,0.55,0.56,0.5,0.46,0.2" style="fill:rgb(0,0,0);font-family:FgdfvmAdvTTe45e47d2;font-size:7.0px;stroke:none;">reactive hyperemia index,</text>
   <text y="194.23" x="151.831,155.695,159.335" svgx:width="0.55,0.52,0.5" style="fill:rgb(0,0,0);font-family:YkpfhsAdvTT7329fd89.I;font-size:7.0px;stroke:none;">CRP</text>
   <text y="194.23" x="164.928,168.056,170.17,172.424,175.924,179.277,182.406,184.66,186.263,189.616,193.116,195.314,199.248,201.502,205.289,207.543,211.043,212.646,216.51" svgx:width="0.45,0.3,0.32,0.5,0.48,0.45,0.32,0.23,0.48,0.5,0.55,0.56,0.32,0.54,0.32,0.5,0.23,0.55,0.2" style="fill:rgb(0,0,0);font-family:FgdfvmAdvTTe45e47d2;font-size:7.0px;stroke:none;">c-reactive protein,</text>
   <text y="194.23" x="220.031,225.421,229.285" svgx:width="0.77,0.55,0.5" style="fill:rgb(0,0,0);font-family:YkpfhsAdvTT7329fd89.I;font-size:7.0px;stroke:none;">MCP</text>
   <text y="194.23" x="234.941,240.771,244.558,248.422,252.209,255.338,258.614,260.868,264.368,266.517,269.646,273.51,277.01,282.841,286.628,289.981,292.235,294.489,296.743,300.096,303.225,305.479,308.831,312.695,314.935,317.203,321.137,323.391,327.178,329.432,332.932,334.535,338.399" svgx:width="0.83,0.54,0.55,0.54,0.45,0.47,0.32,0.5,0.55,0.45,0.55,0.5,0.83,0.54,0.48,0.32,0.32,0.32,0.48,0.45,0.32,0.48,0.55,0.32,0.55,0.56,0.32,0.54,0.32,0.5,0.23,0.55,0.2" style="fill:rgb(0,0,0);font-family:FgdfvmAdvTTe45e47d2;font-size:7.0px;stroke:none;">monocyte chemoattractant protein,</text>
   <text y="194.23" x="341.976,343.579" svgx:width="0.23,0.44" style="fill:rgb(0,0,0);font-family:YkpfhsAdvTT7329fd89.I;font-size:7.0px;stroke:none;">IL</text>
   <text y="194.23" x="348.724,350.327,354.191,356.445,359.945,362.199,363.802,367.302,371.089,374.365,375.967,379.831" svgx:width="0.23,0.55,0.32,0.5,0.32,0.23,0.5,0.54,0.47,0.23,0.55,0.2" style="fill:rgb(0,0,0);font-family:FgdfvmAdvTTe45e47d2;font-size:7.0px;stroke:none;">interleukin,</text>
   <text y="194.23" x="383.422,386.698,391.073" svgx:width="0.47,0.63,0.46" style="fill:rgb(0,0,0);font-family:YkpfhsAdvTT7329fd89.I;font-size:7.0px;stroke:none;">TNF</text>
   <text y="194.23" x="396.407,398.661,402.448,408.279,412.066,414.306,416.476,420.34,423.84,426.969,429.223,433.01,435.775,437.378,440.178,442.327,444.364,447.716,450.845,453.099,456.886,459.14" svgx:width="0.32,0.54,0.83,0.54,0.32,0.55,0.55,0.5,0.45,0.32,0.54,0.4,0.23,0.4,0.55,0.29,0.48,0.45,0.32,0.54,0.32,0.2" style="fill:rgb(0,0,0);font-family:FgdfvmAdvTTe45e47d2;font-size:7.0px;stroke:none;">tumor necrosis factor,</text>
   <text y="194.23" x="462.682,468.072,471.572" svgx:width="0.77,0.5,0.67" style="fill:rgb(0,0,0);font-family:YkpfhsAdvTT7329fd89.I;font-size:7.0px;stroke:none;">MPO</text>
   <text y="194.23" x="478.327,484.158,487.434,490.934,492.537,496.324,500.258,503.758,506.012,509.799,513.005,514.607,518.695,522.048,524.813,528.313" svgx:width="0.83,0.47,0.5,0.23,0.54,0.56,0.5,0.32,0.54,0.46,0.23,0.56,0.48,0.4,0.5,0.2" style="fill:rgb(0,0,0);font-family:FgdfvmAdvTTe45e47d2;font-size:7.0px;stroke:none;">myeloperoxidase,</text>
   <text y="194.23" x="531.785,534.333,538.197,542.712,546.135,549.558" svgx:width="0.36,0.55,0.64,0.49,0.49,0.44" style="fill:rgb(0,0,0);font-family:YkpfhsAdvTT7329fd89.I;font-size:7.0px;stroke:none;">sCD40L</text>
   <text y="194.23" x="554.801,557.566,561.353,562.956,566.743,570.677,572.28,575.78,577.929,581.933,586.524,590.094,593.6640000000001,595.785,597.388,598.991,602.855,606.208,610.072,614.006" svgx:width="0.4,0.54,0.23,0.54,0.56,0.23,0.5,0.55,0.57,0.66,0.51,0.51,0.55,0.23,0.23,0.55,0.48,0.55,0.56,0.2" style="fill:rgb(0,0,0);font-family:FgdfvmAdvTTe45e47d2;font-size:7.0px;stroke:none;">soluble CD40 ligand,</text>
   <text y="194.23" x="617.562,621.062,624.996" svgx:width="0.5,0.56,0.23" style="fill:rgb(0,0,0);font-family:YkpfhsAdvTT7329fd89.I;font-size:7.0px;stroke:none;">PAI</text>
   <text y="194.23" x="628.727,632.661,634.264,637.617,640.382,646.213,647.816,651.68,655.467,659.331,662.83,666.6800000000001,668.864,672.217,675.346,677.6,679.203,682.556,685.909,688.163,691.95" svgx:width="0.56,0.23,0.48,0.4,0.83,0.23,0.55,0.54,0.55,0.5,0.55,0.55,0.48,0.45,0.32,0.23,0.48,0.48,0.32,0.54,0.32" style="fill:rgb(0,0,0);font-family:FgdfvmAdvTTe45e47d2;font-size:7.0px;stroke:none;">plasminogen activator</text>
   <text y="202.735" x="59.53,61.133,64.997,68.861,70.464,74.398,76.001,78.255,82.042,84.296" svgx:width="0.23,0.55,0.55,0.23,0.56,0.23,0.32,0.54,0.32,0.2" style="fill:rgb(0,0,0);font-family:FgdfvmAdvTTe45e47d2;font-size:7.0px;stroke:none;">inhibitor,</text>
   <text y="202.735" x="87.88,90.064,92.178,95.678" svgx:width="0.31,0.3,0.5,0.56" style="fill:rgb(0,0,0);font-family:YkpfhsAdvTT7329fd89.I;font-size:7.0px;stroke:none;">t-PA</text>
   <text y="202.735" x="101.711,103.965,105.568,108.333,111.098,114.885,118.385,120.534,124.468,126.071,129.424,132.189,138.02,139.623,143.487,147.274,151.138,154.638,158.488,160.728,164.081,167.209,169.463,171.066,174.419,177.772,180.026,183.813,186.067" svgx:width="0.32,0.23,0.4,0.4,0.54,0.5,0.55,0.56,0.23,0.48,0.4,0.83,0.23,0.55,0.54,0.55,0.5,0.55,0.55,0.48,0.45,0.32,0.23,0.48,0.48,0.32,0.54,0.32,0.2" style="fill:rgb(0,0,0);font-family:FgdfvmAdvTTe45e47d2;font-size:7.0px;stroke:none;">tissue plasminogen activator,</text>
   <text y="202.735" x="189.588,192.864,196.14,198.254" svgx:width="0.47,0.47,0.3,0.49" style="fill:rgb(0,0,0);font-family:YkpfhsAdvTT7329fd89.I;font-size:7.0px;stroke:none;">ET-1</text>
   <text y="202.735" x="203.819,207.319,211.183,215.117,218.904,221.158,225.022,228.522,230.125,231.728,235.591,237.705,241.275" svgx:width="0.5,0.55,0.56,0.54,0.32,0.55,0.5,0.23,0.23,0.55,0.3,0.51,0.2" style="fill:rgb(0,0,0);font-family:FgdfvmAdvTTe45e47d2;font-size:7.0px;stroke:none;">endothelin-1,</text>
   <text y="202.735" x="244.866,248.8,252.664" svgx:width="0.56,0.55,0.47" style="fill:rgb(0,0,0);font-family:YkpfhsAdvTT7329fd89.I;font-size:7.0px;stroke:none;">ACE</text>
   <text y="202.735" x="258.075,261.428,265.292,269.156,270.759,274.546,276.8,280.3,284.164,286.929,288.532,292.396,294.51,297.639,301.426,305.29,308.643,312.142,314.396,316.65,318.253,322.117,325.96700000000004,328.263,331.763,335.627,338.616,341.892,347.723" svgx:width="0.48,0.55,0.55,0.23,0.54,0.32,0.5,0.55,0.4,0.23,0.55,0.3,0.45,0.54,0.55,0.48,0.5,0.32,0.32,0.23,0.55,0.55,0.55,0.5,0.55,0.43,0.47,0.83,0.5" style="fill:rgb(0,0,0);font-family:FgdfvmAdvTTe45e47d2;font-size:7.0px;stroke:none;">angiotensin-converting enzyme</text>
   <text y="56.693" transform="matrix(0.0,1.0,-1.0,0.0,808.554,-695.168)" rotateDegrees="90" matrix="[0.0,-7.9999,7.9999,0.0,751.8612,538.583]" x="751.861,747.533,743.701,741.125" svgx:width="0.54,0.48,0.32,0.55" style="fill:rgb(19,20,19);font-family:FgdfvmAdvTTe45e47d2;font-size:8.0px;stroke:none;">Barn</text>
   <text y="74.213" transform="matrix(0.0,1.0,-1.0,0.0,826.074,-677.648)" rotateDegrees="90" matrix="[0.0,-7.9999,7.9999,0.0,751.8612,521.06323]" x="751.861,748.285,743.413,739.2529999999999,737.509,733.437,729.694,725.446,721.87,720.126,717.63,713.47,709.222,702.806,699.31,695.062,692.566,688.406,684.286,679.286,675.71,671.55,669.806,667.31" svgx:width="0.45,0.31,0.52,0.22,0.21,0.47,0.53,0.45,0.22,0.31,0.52,0.53,0.8,0.45,0.53,0.31,0.52,0.22,0.63,0.45,0.52,0.22,0.31,0.53" style="fill:rgb(19,20,19);font-family:YkpfhsAdvTT7329fd89.I;font-size:8.0px;stroke:none;">etal.EnvironmentalHealth</text>
   <text y="165.372" transform="matrix(0.0,1.0,-1.0,0.0,917.233,-586.489)" rotateDegrees="90" matrix="[0.0,-7.9999,7.9999,0.0,751.8612,429.9044]" x="751.861,750.165,747.893,743.789,739.686,735.582,731.4780000000001,729.206,727.51,723.406,719.302,717.646,713.542,709.438,705.3340000000001" svgx:width="0.21,0.28,0.51,0.51,0.51,0.51,0.28,0.21,0.51,0.51,0.21,0.51,0.51,0.51,0.21" style="fill:rgb(19,20,19);font-family:MyriadPro-Regular;font-size:8.0px;stroke:none;"> (2016) 15:116 </text>
   <text y="500.143" transform="matrix(0.0,1.0,-1.0,0.0,1252.004,-251.718)" rotateDegrees="90" matrix="[0.0,-7.9999,7.9999,0.0,751.8612,95.13257]" x="751.861,747.6129999999999,743.781,739.365,732.981,726.517,722.1889999999999,717.501" svgx:width="0.53,0.48,0.55,0.5,0.51,0.54,0.29,0.51" style="fill:rgb(19,20,19);font-family:FgdfvmAdvTTe45e47d2;font-size:8.0px;stroke:none;">Page6of8</text>
  </g>
 </g>
</svg>
