<?xml version="1.0" encoding="UTF-8"?>
<svg height="750.523" width="558.7826" xmlns="http://www.w3.org/2000/svg">
 <g id="page" xmlns:svgx="http://www.xml-cml.org/schema/svgx">
  <g begin="text">
   <text y="51.641" x="50.58,55.56,424.536,430.316,432.989,438.074,446.687,450.971,456.2498,458.486,464.695,468.926,472.66,476.953,481.249,484.868,489.004,494.2828,496.601,499.831,505.097,508.058,512.288,516.049,521.476,525.661,528.758,531.431,536.399,541.826,546.254" svgx:width="0.5,0.55,0.59,0.27,0.51,0.89,0.43,0.53,0.55,0.62,0.43,0.37,0.43,0.44,0.37,0.42,0.53,0.55,0.34,0.55,0.31,0.43,0.37,0.55,0.44,0.31,0.27,0.51,0.55,0.44,0.25" style="fill:rgb(23,22,21);font-family:MinionPro-Regular;font-size:9.96px;stroke:none;">4 BioMed Research International</text>
  </g>
  <g begin="text">
   <text y="392.653" x="392.963,397.524,401.235,404.571,406.5,410.765,415.005,418.422,422.663,424.478" svgx:width="0.57,0.47,0.42,0.25,0.53,0.53,0.43,0.53,0.23,0.35" style="fill:rgb(23,22,21);font-family:MinionPro-Regular3;font-size:8.0px;stroke:none;">Excluded (</text>
   <text y="392.653" x="427.243" svgx:width="0.5" style="fill:rgb(23,22,21);font-family:MinionMath-Regular-Graphic;font-size:8.0px;stroke:none;">n</text>
   <text y="392.653" x="431.259,433.074,437.714,439.529,443.369" svgx:width="0.23,0.58,0.23,0.48,0.35" style="fill:rgb(23,22,21);font-family:MinionPro-Regular3;font-size:8.0px;stroke:none;"> = 0)</text>
   <text y="86.717" x="258.915,264.315,267.211,270.212,273.61,276.505,279.505,282.945,287.168,288.984,291.28,295.264,298.23,300.046,303.445,305.467,307.609,311.352,313.494,317.462,319.605,321.627,323.675,326.14,329.81,331.626" svgx:width="0.69,0.37,0.37,0.43,0.37,0.37,0.43,0.53,0.23,0.3,0.51,0.37,0.23,0.43,0.25,0.27,0.47,0.27,0.51,0.27,0.25,0.27,0.31,0.46,0.23,0.35" style="fill:rgb(23,22,21);font-family:MinionPro-Regular3;font-size:8.0px;stroke:none;">Assessed for eligibility (</text>
   <text y="86.717" x="334.427" svgx:width="0.5" style="fill:rgb(23,22,21);font-family:MinionMath-Regular-Graphic;font-size:8.0px;stroke:none;">n</text>
   <text y="86.717" x="338.443,340.258,344.898,346.713,350.553,354.393" svgx:width="0.23,0.58,0.23,0.48,0.48,0.35" style="fill:rgb(23,22,21);font-family:MinionPro-Regular3;font-size:8.0px;stroke:none;"> = 24)</text>
   <text y="116.237" x="377.035,381.596,385.308,388.644,390.573,394.837,399.078,402.495,406.736,408.551" svgx:width="0.57,0.47,0.42,0.25,0.53,0.53,0.43,0.53,0.23,0.35" style="fill:rgb(23,22,21);font-family:MinionPro-Regular3;font-size:8.0px;stroke:none;">Excluded (</text>
   <text y="116.237" x="411.315" svgx:width="0.5" style="fill:rgb(23,22,21);font-family:MinionMath-Regular-Graphic;font-size:8.0px;stroke:none;">n</text>
   <text y="116.237" x="415.331,417.147,421.787,423.603,427.443" svgx:width="0.23,0.58,0.23,0.48,0.35" style="fill:rgb(23,22,21);font-family:MinionPro-Regular3;font-size:8.0px;stroke:none;"> = 0)</text>
   <text y="145.757" x="273.971,279.082,282.523,286.9,291.125,295.109,301.661,303.806,307.167,310.568,314.793,316.608" svgx:width="0.62,0.44,0.55,0.53,0.51,0.82,0.27,0.42,0.43,0.53,0.23,0.35" style="fill:rgb(23,22,21);font-family:MinionPro-Regular3;font-size:8.0px;stroke:none;">Randomized (</text>
   <text y="145.757" x="319.377" svgx:width="0.5" style="fill:rgb(23,22,21);font-family:MinionMath-Regular-Graphic;font-size:8.0px;stroke:none;">n</text>
   <text y="145.757" x="323.393,325.209,329.849,331.665,335.505,339.345" svgx:width="0.23,0.58,0.23,0.48,0.48,0.35" style="fill:rgb(23,22,21);font-family:MinionPro-Regular3;font-size:8.0px;stroke:none;"> = 24)</text>
  </g>
  <path style="fill:none;stroke:rgb(23,22,21);stroke-width:1.0;" d="M195.180 418.030 C195.180 417.910 195.240 417.850 195.360 417.850 L421.560 417.850 C421.680 417.850 421.800 417.910 421.800 418.030 L421.800 508.990 C421.800 509.170 421.680 509.230 421.560 509.230 L195.360 509.230 C195.240 509.230 195.180 509.170 195.180 508.990 L195.180 418.030 Z"/>
  <g begin="text">
   <text y="442.524" x="281.31,286.839,291.216,294.728,296.696,300.369,303.306,305.451,308.388,310.203" svgx:width="0.69,0.55,0.44,0.25,0.46,0.37,0.27,0.37,0.23,0.35" style="fill:rgb(23,22,21);font-family:MinionPro-Regular3;font-size:8.0px;stroke:none;">Analysis (</text>
   <text y="442.524" x="312.934" svgx:width="0.5" style="fill:rgb(23,22,21);font-family:MinionMath-Regular-Graphic;font-size:8.0px;stroke:none;">n</text>
   <text y="442.524" x="316.95,318.765,323.405,325.22,329.06,332.9" svgx:width="0.23,0.58,0.23,0.48,0.48,0.35" style="fill:rgb(23,22,21);font-family:MinionPro-Regular3;font-size:8.0px;stroke:none;"> = 24)</text>
   <text y="457.668" x="210.046,214.54,218.801,222.303,225.303,228.692,230.508,234.338,236.152,237.968,242.021,245.523,248.523,251.891,253.904,256.038,260.404,263.793,265.609,269.745,274.007,277.508,280.508" svgx:width="0.56,0.53,0.44,0.37,0.43,0.23,0.48,0.23,0.23,0.51,0.44,0.37,0.43,0.25,0.27,0.55,0.43,0.23,0.52,0.53,0.44,0.37,0.43" style="fill:rgb(23,22,21);font-family:MinionPro-Regular3;font-size:8.0px;stroke:none;">Phase 1: baseline phase</text>
   <text y="469.132" x="220.046,222.816,224.963,227.733,229.549,234.749,238.901,243.096,244.912,247.354,251.028,255.292,258.695,260.511" svgx:width="0.35,0.27,0.35,0.23,0.67,0.53,0.52,0.23,0.31,0.46,0.52,0.43,0.23,0.35" style="fill:rgb(23,22,21);font-family:MinionPro-Regular3;font-size:8.0px;stroke:none;">(i) Cup type (</text>
   <text y="469.132" x="263.286" svgx:width="0.5" style="fill:rgb(23,22,21);font-family:MinionMath-Regular-Graphic;font-size:8.0px;stroke:none;">n</text>
   <text y="469.132" x="267.302,269.118,273.758,275.574,279.414,283.254" svgx:width="0.23,0.58,0.23,0.48,0.48,0.35" style="fill:rgb(23,22,21);font-family:MinionPro-Regular3;font-size:8.0px;stroke:none;"> = 24)</text>
   <text y="480.356" x="220.046,222.816,224.963,227.109,229.88,231.696,235.776,239.8,241.827,246.053,247.869,250.312,253.986,258.25,261.652,263.468" svgx:width="0.35,0.27,0.27,0.35,0.23,0.53,0.51,0.25,0.53,0.23,0.31,0.46,0.52,0.43,0.23,0.35" style="fill:rgb(23,22,21);font-family:MinionPro-Regular3;font-size:8.0px;stroke:none;">(ii) Fold type (</text>
   <text y="480.356" x="266.239" svgx:width="0.5" style="fill:rgb(23,22,21);font-family:MinionMath-Regular-Graphic;font-size:8.0px;stroke:none;">n</text>
   <text y="480.356" x="270.255,272.071,276.711,278.527,282.367,286.207" svgx:width="0.23,0.58,0.23,0.48,0.48,0.35" style="fill:rgb(23,22,21);font-family:MinionPro-Regular3;font-size:8.0px;stroke:none;"> = 24)</text>
   <text y="491.636" x="220.046,222.816,224.963,227.109,229.256,232.026,233.842,238.675,242.227,244.195,247.835,251.237,253.053,255.496,259.17,263.434,266.836,268.652" svgx:width="0.35,0.27,0.27,0.27,0.35,0.23,0.7,0.44,0.25,0.46,0.43,0.23,0.31,0.46,0.52,0.43,0.23,0.35" style="fill:rgb(23,22,21);font-family:MinionPro-Regular3;font-size:8.0px;stroke:none;">(iii) Valve type (</text>
   <text y="491.636" x="271.423" svgx:width="0.5" style="fill:rgb(23,22,21);font-family:MinionMath-Regular-Graphic;font-size:8.0px;stroke:none;">n</text>
   <text y="491.636" x="275.439,277.254,281.894,283.709,287.549,291.389" svgx:width="0.23,0.58,0.23,0.48,0.48,0.35" style="fill:rgb(23,22,21);font-family:MinionPro-Regular3;font-size:8.0px;stroke:none;"> = 24)</text>
   <text y="457.676" x="322.814,327.31,331.574,335.078,338.078,341.47,343.286,347.118,348.934,350.75,352.886,357.109,359.468,363.684,367.789,371.149,373.581,375.717,379.701,384.077,385.893,390.029,394.277,397.781,400.78" svgx:width="0.56,0.53,0.44,0.37,0.43,0.23,0.48,0.23,0.23,0.27,0.55,0.31,0.53,0.51,0.44,0.31,0.27,0.51,0.55,0.23,0.52,0.53,0.44,0.37,0.43" style="fill:rgb(23,22,21);font-family:MinionPro-Regular3;font-size:8.0px;stroke:none;">Phase 2: intubation phase</text>
   <text y="469.14" x="332.814,335.584,337.731,340.501,342.317,347.517,351.669,355.864,357.68,360.122,363.796,368.06,371.463,373.279" svgx:width="0.35,0.27,0.35,0.23,0.67,0.53,0.52,0.23,0.31,0.46,0.52,0.43,0.23,0.35" style="fill:rgb(23,22,21);font-family:MinionPro-Regular3;font-size:8.0px;stroke:none;">(i) Cup type (</text>
   <text y="469.14" x="376.054" svgx:width="0.5" style="fill:rgb(23,22,21);font-family:MinionMath-Regular-Graphic;font-size:8.0px;stroke:none;">n</text>
   <text y="469.14" x="380.07,381.885,386.525,388.34,392.18,396.02" svgx:width="0.23,0.58,0.23,0.48,0.48,0.35" style="fill:rgb(23,22,21);font-family:MinionPro-Regular3;font-size:8.0px;stroke:none;"> = 24)</text>
   <text y="480.364" x="332.814,335.584,337.729,339.875,342.644,344.46,348.54,352.565,354.591,358.816,360.632,363.074,366.748,371.01,374.412,376.228" svgx:width="0.35,0.27,0.27,0.35,0.23,0.53,0.51,0.25,0.53,0.23,0.31,0.46,0.52,0.43,0.23,0.35" style="fill:rgb(23,22,21);font-family:MinionPro-Regular3;font-size:8.0px;stroke:none;">(ii) Fold type (</text>
   <text y="480.364" x="379.006" svgx:width="0.5" style="fill:rgb(23,22,21);font-family:MinionMath-Regular-Graphic;font-size:8.0px;stroke:none;">n</text>
   <text y="480.364" x="383.022,384.837,389.477,391.292,395.132,398.972" svgx:width="0.23,0.58,0.23,0.48,0.48,0.35" style="fill:rgb(23,22,21);font-family:MinionPro-Regular3;font-size:8.0px;stroke:none;"> = 24)</text>
   <text y="491.644" x="332.814,335.584,337.729,339.875,342.02,344.79,346.606,351.438,354.99,356.959,360.599,364.0,365.816,368.258,371.932,376.194,379.596,381.412" svgx:width="0.35,0.27,0.27,0.27,0.35,0.23,0.7,0.44,0.25,0.46,0.43,0.23,0.31,0.46,0.52,0.43,0.23,0.35" style="fill:rgb(23,22,21);font-family:MinionPro-Regular3;font-size:8.0px;stroke:none;">(iii) Valve type (</text>
   <text y="491.644" x="384.19" svgx:width="0.5" style="fill:rgb(23,22,21);font-family:MinionMath-Regular-Graphic;font-size:8.0px;stroke:none;">n</text>
   <text y="491.644" x="388.206,390.022,394.662,396.478,400.318,404.158" svgx:width="0.23,0.58,0.23,0.48,0.48,0.35" style="fill:rgb(23,22,21);font-family:MinionPro-Regular3;font-size:8.0px;stroke:none;"> = 24)</text>
  </g>
  <path style="fill:none;stroke:rgb(23,22,21);stroke-width:0.5;" d="M371.820 212.770 C371.820 212.650 371.880 212.590 372.000 212.590 L482.220 212.590 C482.340 212.590 482.460 212.650 482.460 212.770 L482.460 334.750 C482.460 334.870 482.340 334.930 482.220 334.930 L372.000 334.930 C371.880 334.930 371.820 334.870 371.820 334.750 L371.820 212.770 Z"/>
  <g begin="text">
   <text y="223.213" x="381.981,387.522,389.559,391.595,395.747,399.144,402.504,404.897,408.338,412.575,414.391,416.781,420.861,422.677,426.434,429.298,433.29,437.442,441.647,443.463,448.795,450.611" svgx:width="0.69,0.25,0.25,0.51,0.42,0.44,0.31,0.43,0.53,0.23,0.31,0.51,0.23,0.47,0.37,0.51,0.53,0.52,0.23,0.67,0.23,0.35" style="fill:rgb(23,22,21);font-family:MinionPro-Regular3;font-size:8.0px;stroke:none;">Allocated to group C (</text>
   <text y="223.213" x="453.405" svgx:width="0.5" style="fill:rgb(23,22,21);font-family:MinionMath-Regular-Graphic;font-size:8.0px;stroke:none;">n</text>
   <text y="223.213" x="457.421,459.236,463.876,465.691,469.531" svgx:width="0.23,0.58,0.23,0.48,0.35" style="fill:rgb(23,22,21);font-family:MinionPro-Regular3;font-size:8.0px;stroke:none;"> = 8)</text>
   <text y="234.437" x="385.525,389.761,391.909,394.829,397.724,400.168,401.984,404.848,408.247,411.143,415.237,417.385,420.357,423.717,426.108,430.092,433.251,435.079,436.895,440.603,444.119,446.088,449.728,453.132,454.948,457.392,461.068,465.331" svgx:width="0.53,0.27,0.37,0.37,0.31,0.23,0.37,0.43,0.37,0.52,0.27,0.37,0.44,0.31,0.51,0.37,0.23,0.23,0.46,0.44,0.25,0.46,0.43,0.23,0.31,0.46,0.52,0.43" style="fill:rgb(23,22,21);font-family:MinionPro-Regular3;font-size:8.0px;stroke:none;">First respirator: valve type</text>
   <text y="256.877" x="376.181,380.677,384.941,388.445,391.445,394.837,396.653,400.485,402.301,404.117,408.173,411.677,414.677,418.045,420.061,422.197,426.565,429.957,431.773,434.773,438.156,441.548,445.916,449.355,452.371,454.507" svgx:width="0.56,0.53,0.44,0.37,0.43,0.23,0.48,0.23,0.23,0.51,0.44,0.37,0.43,0.25,0.27,0.55,0.43,0.23,0.37,0.42,0.43,0.55,0.44,0.37,0.27,0.51" style="fill:rgb(23,22,21);font-family:MinionPro-Regular3;font-size:8.0px;stroke:none;">Phase 1: baseline scenario</text>
   <text y="267.733" x="376.181,381.013,384.565,386.534,390.174,393.578,395.394,397.838,401.514,405.776,409.18,412.032,415.473,419.624,423.816,425.632,428.076,431.752,436.015,439.419,442.271,444.567,448.591,450.619,454.847,456.663,459.107,462.783,467.047" svgx:width="0.7,0.44,0.25,0.46,0.43,0.23,0.31,0.46,0.52,0.43,0.36,0.42,0.53,0.52,0.23,0.31,0.46,0.52,0.43,0.36,0.3,0.51,0.25,0.53,0.23,0.31,0.46,0.52,0.43" style="fill:rgb(23,22,21);font-family:MinionPro-Regular3;font-size:8.0px;stroke:none;">Valve type-cup type-fold type</text>
   <text y="278.469" x="376.181,380.165,383.133,384.949,388.659,392.176,394.144,397.785,401.191,403.007,405.452,409.13,413.394,416.799,419.653,421.949,425.974,427.999,432.228,434.044,436.49,440.167,444.43,447.835,450.689,454.13,458.281,462.473,464.289,466.735,470.412,474.675" svgx:width="0.51,0.37,0.23,0.46,0.44,0.25,0.46,0.43,0.23,0.31,0.46,0.52,0.43,0.36,0.3,0.51,0.25,0.53,0.23,0.31,0.46,0.52,0.43,0.36,0.42,0.53,0.52,0.23,0.31,0.46,0.52,0.43" style="fill:rgb(23,22,21);font-family:MinionPro-Regular3;font-size:8.0px;stroke:none;">or valve type-fold type-cup type</text>
   <text y="300.789" x="376.181,380.679,384.946,388.452,391.452,394.847,396.663,400.497,402.315,404.131,406.27,410.494,412.853,417.069,421.174,424.534,426.968,429.107,433.091,437.467,439.283,442.283,445.667,449.061,453.431,456.872,459.888,462.027" svgx:width="0.56,0.53,0.44,0.37,0.43,0.23,0.48,0.23,0.23,0.27,0.55,0.31,0.53,0.51,0.44,0.31,0.27,0.51,0.55,0.23,0.37,0.42,0.43,0.55,0.44,0.37,0.27,0.51" style="fill:rgb(23,22,21);font-family:MinionPro-Regular3;font-size:8.0px;stroke:none;">Phase 2: intubation scenario</text>
   <text y="311.589" x="376.181,381.013,384.565,386.534,390.174,393.578,395.394,397.838,401.514,405.776,409.18,412.032,415.473,419.624,423.816,425.632,428.076,431.752,436.015,439.419,442.271,444.567,448.591,450.619,454.847,456.663,459.107,462.783,467.047" svgx:width="0.7,0.44,0.25,0.46,0.43,0.23,0.31,0.46,0.52,0.43,0.36,0.42,0.53,0.52,0.23,0.31,0.46,0.52,0.43,0.36,0.3,0.51,0.25,0.53,0.23,0.31,0.46,0.52,0.43" style="fill:rgb(23,22,21);font-family:MinionPro-Regular3;font-size:8.0px;stroke:none;">Valve type-cup type-fold type</text>
   <text y="322.325" x="376.181,380.165,383.133,384.949,388.659,392.176,394.144,397.785,401.191,403.007,405.452,409.13,413.394,416.799,419.653,421.949,425.974,427.999,432.228,434.044,436.49,440.167,444.43,447.835,450.689,454.13,458.281,462.473,464.289,466.735,470.412,474.675" svgx:width="0.51,0.37,0.23,0.46,0.44,0.25,0.46,0.43,0.23,0.31,0.46,0.52,0.43,0.36,0.3,0.51,0.25,0.53,0.23,0.31,0.46,0.52,0.43,0.36,0.42,0.53,0.52,0.23,0.31,0.46,0.52,0.43" style="fill:rgb(23,22,21);font-family:MinionPro-Regular3;font-size:8.0px;stroke:none;">or valve type-fold type-cup type</text>
  </g>
  <path style="fill:none;stroke:rgb(23,22,21);stroke-width:0.5;" d="M116.400 211.390 C116.400 211.270 116.460 211.210 116.580 211.210 L227.880 211.210 C228.060 211.210 228.120 211.270 228.120 211.390 L228.120 333.130 C228.120 333.250 228.060 333.370 227.880 333.370 L116.580 333.370 C116.460 333.370 116.400 333.250 116.400 333.130 L116.400 211.390 Z"/>
  <g begin="text">
   <text y="221.834" x="126.997,132.538,134.575,136.612,140.764,144.16,147.52,149.912,153.352,157.588,159.404,161.796,165.876,167.692,171.449,174.313,178.305,182.457,186.662,188.478,194.019,195.835" svgx:width="0.69,0.25,0.25,0.51,0.42,0.44,0.31,0.43,0.53,0.23,0.31,0.51,0.23,0.47,0.37,0.51,0.53,0.52,0.23,0.69,0.23,0.35" style="fill:rgb(23,22,21);font-family:MinionPro-Regular3;font-size:8.0px;stroke:none;">Allocated to group A (</text>
   <text y="221.834" x="198.629" svgx:width="0.5" style="fill:rgb(23,22,21);font-family:MinionMath-Regular-Graphic;font-size:8.0px;stroke:none;">n</text>
   <text y="221.834" x="202.645,204.461,209.101,210.917,214.757" svgx:width="0.23,0.58,0.23,0.48,0.35" style="fill:rgb(23,22,21);font-family:MinionPro-Regular3;font-size:8.0px;stroke:none;"> = 7)</text>
   <text y="233.058" x="132.885,137.111,139.248,142.168,145.098,147.532,149.348,152.212,155.612,158.541,162.637,164.775,167.736,171.096,173.488,177.472,180.632,182.456,184.272,187.712,191.864,196.049,197.865,200.299,203.964,208.228" svgx:width="0.53,0.27,0.37,0.37,0.31,0.23,0.37,0.43,0.37,0.52,0.27,0.37,0.44,0.31,0.51,0.37,0.23,0.23,0.42,0.53,0.52,0.23,0.31,0.46,0.52,0.43" style="fill:rgb(23,22,21);font-family:MinionPro-Regular3;font-size:8.0px;stroke:none;">First respirator: cup type</text>
   <text y="255.498" x="121.301,125.798,130.063,133.568,136.568,139.96,141.776,145.609,147.426,149.242,153.299,156.804,159.804,163.172,165.188,167.325,171.694,175.087,176.903,179.903,183.28,186.672,191.041,194.481,197.497,199.634" svgx:width="0.56,0.53,0.44,0.37,0.43,0.23,0.48,0.23,0.23,0.51,0.44,0.37,0.43,0.25,0.27,0.55,0.43,0.23,0.37,0.42,0.43,0.55,0.44,0.37,0.27,0.51" style="fill:rgb(23,22,21);font-family:MinionPro-Regular3;font-size:8.0px;stroke:none;">Phase 1: baseline scenario</text>
   <text y="266.354" x="121.301,126.501,130.653,134.851,136.667,139.112,142.79,147.054,150.46,153.313,155.609,159.633,161.663,165.892,167.708,170.154,173.832,178.096,181.495,184.348,188.058,191.576,193.544,197.184,200.589,202.405,204.851,208.528,212.792" svgx:width="0.67,0.53,0.52,0.23,0.31,0.46,0.52,0.43,0.36,0.3,0.51,0.25,0.53,0.23,0.31,0.46,0.52,0.43,0.36,0.46,0.44,0.25,0.46,0.43,0.23,0.31,0.46,0.52,0.43" style="fill:rgb(23,22,21);font-family:MinionPro-Regular3;font-size:8.0px;stroke:none;">Cup type-fold type-valve type</text>
   <text y="277.09" x="121.301,125.285,128.253,130.069,133.509,137.661,141.859,143.675,146.12,149.798,154.062,157.468,160.321,164.031,167.548,169.516,173.156,176.562,178.378,180.824,184.501,188.765,192.171,195.024,197.32,201.344,203.369,207.599,209.415,211.86,215.538,219.802" svgx:width="0.51,0.37,0.23,0.42,0.53,0.52,0.23,0.31,0.46,0.52,0.43,0.36,0.46,0.44,0.25,0.46,0.43,0.23,0.31,0.46,0.52,0.43,0.36,0.3,0.51,0.25,0.53,0.23,0.31,0.46,0.52,0.43" style="fill:rgb(23,22,21);font-family:MinionPro-Regular3;font-size:8.0px;stroke:none;">or cup type-valve type-fold type</text>
   <text y="299.41" x="121.301,125.804,130.076,133.587,136.587,139.986,141.802,145.641,147.464,149.28,151.424,155.648,158.008,162.224,166.287,169.647,172.086,174.229,178.213,182.588,184.404,187.404,190.788,194.187,198.562,202.002,205.018,207.161" svgx:width="0.56,0.53,0.44,0.37,0.43,0.23,0.48,0.23,0.23,0.27,0.55,0.31,0.53,0.51,0.44,0.31,0.27,0.51,0.55,0.23,0.37,0.42,0.43,0.55,0.44,0.37,0.27,0.51" style="fill:rgb(23,22,21);font-family:MinionPro-Regular3;font-size:8.0px;stroke:none;">Phase 2: intubation scenario</text>
   <text y="310.21" x="121.301,126.501,130.653,134.851,136.667,139.112,142.79,147.054,150.46,153.313,155.609,159.633,161.663,165.892,167.708,170.154,173.832,178.096,181.495,184.348,188.058,191.576,193.544,197.184,200.589,202.405,204.851,208.528,212.792" svgx:width="0.67,0.53,0.52,0.23,0.31,0.46,0.52,0.43,0.36,0.3,0.51,0.25,0.53,0.23,0.31,0.46,0.52,0.43,0.36,0.46,0.44,0.25,0.46,0.43,0.23,0.31,0.46,0.52,0.43" style="fill:rgb(23,22,21);font-family:MinionPro-Regular3;font-size:8.0px;stroke:none;">Cup type-fold type-valve type</text>
   <text y="320.954" x="121.301,125.285,128.253,130.069,133.509,137.661,141.859,143.675,146.12,149.798,154.062,157.468,160.321,164.031,167.548,169.516,173.156,176.562,178.378,180.824,184.501,188.765,192.171,195.024,197.32,201.344,203.369,207.599,209.415,211.86,215.538,219.802" svgx:width="0.51,0.37,0.23,0.42,0.53,0.52,0.23,0.31,0.46,0.52,0.43,0.36,0.46,0.44,0.25,0.46,0.43,0.23,0.31,0.46,0.52,0.43,0.36,0.3,0.51,0.25,0.53,0.23,0.31,0.46,0.52,0.43" style="fill:rgb(23,22,21);font-family:MinionPro-Regular3;font-size:8.0px;stroke:none;">or cup type-valve type-fold type</text>
  </g>
  <path style="fill:none;stroke:rgb(23,22,21);stroke-width:0.5;" d="M244.620 212.770 C244.620 212.650 244.740 212.590 244.860 212.590 L355.860 212.590 C355.980 212.590 356.040 212.650 356.040 212.770 L356.040 334.750 C356.040 334.870 355.980 334.930 355.860 334.930 L244.860 334.930 C244.740 334.930 244.620 334.870 244.620 334.750 L244.620 212.770 Z"/>
  <g begin="text">
   <text y="223.213" x="255.479,261.02,263.057,265.093,269.245,272.642,276.002,278.393,281.834,286.071,287.887,290.277,294.357,296.173,299.93,302.794,306.786,310.938,315.143,316.959,321.676,323.492" svgx:width="0.69,0.25,0.25,0.51,0.42,0.44,0.31,0.43,0.53,0.23,0.31,0.51,0.23,0.47,0.37,0.51,0.53,0.52,0.23,0.59,0.23,0.35" style="fill:rgb(23,22,21);font-family:MinionPro-Regular3;font-size:8.0px;stroke:none;">Allocated to group B (</text>
   <text y="223.213" x="326.287" svgx:width="0.5" style="fill:rgb(23,22,21);font-family:MinionMath-Regular-Graphic;font-size:8.0px;stroke:none;">n</text>
   <text y="223.213" x="330.303,332.119,336.759,338.575,342.415" svgx:width="0.23,0.58,0.23,0.48,0.35" style="fill:rgb(23,22,21);font-family:MinionPro-Regular3;font-size:8.0px;stroke:none;"> = 9)</text>
   <text y="234.437" x="260.567,264.798,266.941,269.861,272.797,275.236,277.052,279.916,283.315,286.21,290.305,292.448,295.415,298.775,301.166,305.15,308.309,310.133,311.949,314.245,318.269,320.292,324.516,326.332,328.771,332.442,336.704" svgx:width="0.53,0.27,0.37,0.37,0.31,0.23,0.37,0.43,0.37,0.52,0.27,0.37,0.44,0.31,0.51,0.37,0.23,0.23,0.3,0.51,0.25,0.53,0.23,0.31,0.46,0.52,0.43" style="fill:rgb(23,22,21);font-family:MinionPro-Regular3;font-size:8.0px;stroke:none;">First respirator: fold type</text>
   <text y="256.877" x="249.375,253.871,258.135,261.639,264.639,268.031,269.847,273.679,275.495,277.311,281.367,284.871,287.871,291.239,293.255,295.391,299.759,303.151,304.967,307.967,311.35,314.742,319.11,322.549,325.565,327.701" svgx:width="0.56,0.53,0.44,0.37,0.43,0.23,0.48,0.23,0.23,0.51,0.44,0.37,0.43,0.25,0.27,0.55,0.43,0.23,0.37,0.42,0.43,0.55,0.44,0.37,0.27,0.51" style="fill:rgb(23,22,21);font-family:MinionPro-Regular3;font-size:8.0px;stroke:none;">Phase 1: baseline scenario</text>
   <text y="267.733" x="249.375,253.455,257.479,259.509,263.738,265.554,268.0,271.677,275.941,279.347,282.201,285.641,289.793,293.985,295.801,298.246,301.924,306.186,309.592,312.445,316.155,319.673,321.641,325.282,328.688,330.504,332.949,336.627,340.891" svgx:width="0.53,0.51,0.25,0.53,0.23,0.31,0.46,0.52,0.43,0.36,0.42,0.53,0.52,0.23,0.31,0.46,0.52,0.43,0.36,0.46,0.44,0.25,0.46,0.43,0.23,0.31,0.46,0.52,0.43" style="fill:rgb(23,22,21);font-family:MinionPro-Regular3;font-size:8.0px;stroke:none;">Fold type-cup type-valve type</text>
   <text y="278.469" x="249.375,253.359,256.327,258.143,260.439,264.464,266.493,270.723,272.539,274.985,278.662,282.926,286.332,289.185,292.895,296.413,298.381,302.021,305.427,307.243,309.689,313.366,317.629,321.034,323.888,327.329,331.48,335.672,337.488,339.933,343.611,347.873" svgx:width="0.51,0.37,0.23,0.3,0.51,0.25,0.53,0.23,0.31,0.46,0.52,0.43,0.36,0.46,0.44,0.25,0.46,0.43,0.23,0.31,0.46,0.52,0.43,0.36,0.42,0.53,0.52,0.23,0.31,0.46,0.52,0.43" style="fill:rgb(23,22,21);font-family:MinionPro-Regular3;font-size:8.0px;stroke:none;">or fold type-valve type-cup type</text>
   <text y="300.789" x="249.375,253.873,258.14,261.646,264.646,268.041,269.857,273.691,275.509,277.325,279.464,283.688,286.047,290.263,294.368,297.728,300.162,302.301,306.285,310.661,312.477,315.477,318.861,322.255,326.625,330.066,333.082,335.221" svgx:width="0.56,0.53,0.44,0.37,0.43,0.23,0.48,0.23,0.23,0.27,0.55,0.31,0.53,0.51,0.44,0.31,0.27,0.51,0.55,0.23,0.37,0.42,0.43,0.55,0.44,0.37,0.27,0.51" style="fill:rgb(23,22,21);font-family:MinionPro-Regular3;font-size:8.0px;stroke:none;">Phase 2: intubation scenario</text>
   <text y="312.013" x="249.375,253.455,257.479,259.509,263.738,265.554,268.0,271.677,275.941,279.347,282.201,285.641,289.793,293.985,295.801,298.246,301.924,306.186,309.592,312.445,316.155,319.673,321.641,325.282,328.688,330.504,332.949,336.627,340.891" svgx:width="0.53,0.51,0.25,0.53,0.23,0.31,0.46,0.52,0.43,0.36,0.42,0.53,0.52,0.23,0.31,0.46,0.52,0.43,0.36,0.46,0.44,0.25,0.46,0.43,0.23,0.31,0.46,0.52,0.43" style="fill:rgb(23,22,21);font-family:MinionPro-Regular3;font-size:8.0px;stroke:none;">Fold type-cup type-valve type</text>
   <text y="323.237" x="249.375,253.36,256.329,258.145,260.441,264.467,266.497,270.726,272.542,274.988,278.665,282.93,286.336,289.189,292.899,296.417,298.386,302.027,305.433,307.249,309.694,313.372,317.635,321.041,323.894,327.336,331.488" svgx:width="0.51,0.37,0.23,0.3,0.51,0.25,0.53,0.23,0.31,0.46,0.52,0.43,0.36,0.46,0.44,0.25,0.46,0.43,0.23,0.31,0.46,0.52,0.43,0.36,0.42,0.53,0.52" style="fill:rgb(23,22,21);font-family:MinionPro-Regular3;font-size:8.0px;stroke:none;">or fold type-valve type-cup</text>
  </g>
  <path style="fill:none;stroke:rgb(23,22,21);stroke-width:0.5;" d="M371.760 401.020 L467.340 401.020 "/>
  <path style="fill:none;stroke:rgb(23,22,21);stroke-width:0.5;" d="M308.040 390.280 L371.480 390.280 "/>
  <path style="fill:none;stroke:rgb(23,22,21);stroke-width:0.5;" d="M371.760 379.540 L467.340 379.540 "/>
  <path style="fill:none;stroke:rgb(23,22,21);stroke-width:0.5;" d="M180.600 369.700 L435.480 369.700 "/>
  <path style="fill:none;stroke:rgb(23,22,21);stroke-width:0.5;" d="M180.600 182.740 L435.480 182.740 "/>
  <path style="fill:none;stroke:rgb(23,22,21);stroke-width:0.5;" d="M244.320 153.220 L371.760 153.220 "/>
  <path style="fill:none;stroke:rgb(23,22,21);stroke-width:0.5;" d="M244.320 133.540 L371.760 133.540 "/>
  <path style="fill:none;stroke:rgb(23,22,21);stroke-width:0.5;" d="M371.760 123.700 L435.480 123.700 "/>
  <path style="fill:none;stroke:rgb(23,22,21);stroke-width:0.5;" d="M308.040 113.860 L371.480 113.860 "/>
  <path style="fill:none;stroke:rgb(23,22,21);stroke-width:0.5;" d="M371.760 104.020 L435.480 104.020 "/>
  <path style="fill:none;stroke:rgb(23,22,21);stroke-width:0.5;" d="M244.320 94.180 L371.760 94.180 "/>
  <path style="fill:none;stroke:rgb(23,22,21);stroke-width:0.5;" d="M244.320 74.500 L371.760 74.500 "/>
  <path style="fill:none;stroke:rgb(23,22,21);stroke-width:0.5;" d="M467.070 379.810 L467.070 401.290 "/>
  <path style="fill:none;stroke:rgb(23,22,21);stroke-width:0.5;" d="M180.330 333.430 L180.330 369.830 "/>
  <path style="fill:none;stroke:rgb(23,22,21);stroke-width:0.5;" d="M435.210 334.930 L435.210 369.970 "/>
  <path style="fill:none;stroke:rgb(23,22,21);stroke-width:0.5;" d="M307.770 335.210 L307.770 417.710 "/>
  <path style="fill:none;stroke:rgb(23,22,21);stroke-width:0.5;" d="M371.490 379.270 L371.490 401.290 "/>
  <path style="fill:none;stroke:rgb(23,22,21);stroke-width:0.5;" d="M244.050 133.270 L244.050 153.490 "/>
  <path style="fill:none;stroke:rgb(23,22,21);stroke-width:0.5;" d="M371.490 133.810 L371.490 153.490 "/>
  <path style="fill:none;stroke:rgb(23,22,21);stroke-width:0.5;" d="M435.210 183.010 L435.210 212.290 "/>
  <path style="fill:none;stroke:rgb(23,22,21);stroke-width:0.5;" d="M307.770 153.490 L307.770 212.290 "/>
  <path style="fill:none;stroke:rgb(23,22,21);stroke-width:0.5;" d="M180.330 182.470 L180.330 211.240 "/>
  <path style="fill:none;stroke:rgb(23,22,21);stroke-width:0.5;" d="M435.210 104.290 L435.210 123.970 "/>
  <path style="fill:none;stroke:rgb(23,22,21);stroke-width:0.5;" d="M307.770 94.450 L307.770 133.810 "/>
  <path style="fill:none;stroke:rgb(23,22,21);stroke-width:0.5;" d="M371.490 103.750 L371.490 123.970 "/>
  <path style="fill:none;stroke:rgb(23,22,21);stroke-width:0.5;" d="M244.050 74.230 L244.050 94.450 "/>
  <path style="fill:none;stroke:rgb(23,22,21);stroke-width:0.5;" d="M371.490 74.770 L371.490 94.450 "/>
  <g begin="text">
   <text y="530.414" x="173.322,177.963,180.708,185.775,190.995,195.627,199.9326,201.98,206.147,208.21009999999998,210.225,216.813,219.243,223.13,227.37,230.7,234.552,243.939,247.197,251.949,256.377,262.542,264.945,269.748,273.96389999999997,275.985,278.775,283.527,287.3841,289.368,294.147,298.618,304.8073,306.798,311.269,313.96,315.958,320.701,324.553,327.973,330.754,333.157,336.946,339.247,343.99,347.824,352.559,355.294,358.61289999999997,360.631,363.421,368.209,371.434,375.904,380.666,384.923,389.6771,391.744,394.535,399.287,403.1441,405.128,408.376,411.022,415.783,420.454,423.91" svgx:width="0.53,0.31,0.56,0.58,0.53,0.48,0.55,0.47,0.23,0.55,0.74,0.27,0.44,0.47,0.37,0.44,0.82,0.37,0.53,0.51,0.69,0.27,0.55,0.47,0.55,0.31,0.53,0.43,0.55,0.53,0.51,0.69,0.55,0.51,0.3,0.55,0.52,0.44,0.37,0.31,0.27,0.42,0.27,0.52,0.44,0.55,0.31,0.37,0.55,0.31,0.53,0.37,0.51,0.53,0.47,0.53,0.55,0.31,0.53,0.43,0.55,0.37,0.31,0.53,0.53,0.46,0.23" style="fill:rgb(23,22,21);font-family:MinionPro-Regular;font-size:8.97px;stroke:none;">Figure 2: Diagramshowing the flo wo fparticipant sthroug hth estudy.</text>
   <text y="574.932" x="102.362,107.05,112.117,116.695,120.815,125.1206,127.177,130.211,132.2741,134.289,140.931,144.737,152.076,156.644,160.836,164.158,167.921,172.555,177.339,179.737,183.5044,185.569,189.305,194.066,197.918,201.248,205.18,209.032,211.713,215.52,218.904,221.28,224.566,227.347,229.746,233.534,236.82" svgx:width="0.62,0.56,0.51,0.46,0.48,0.55,0.34,0.23,0.55,0.74,0.43,0.82,0.51,0.47,0.37,0.44,0.52,0.53,0.27,0.42,0.55,0.42,0.53,0.44,0.37,0.44,0.42,0.31,0.43,0.37,0.27,0.37,0.31,0.27,0.42,0.37,0.23" style="fill:rgb(23,22,21);font-family:MinionPro-Regular;font-size:8.97px;stroke:none;">Table 1: Demographic characteristics.</text>
  </g>
  <path style="fill:none;stroke:rgb(23,22,21);stroke-width:0.5;" d="M50.580 584.420 L290.680 584.420 "/>
  <g begin="text">
   <text y="591.938" x="52.569,58.581,63.342,67.194,70.524,74.444,78.296,80.978,84.785,88.169,90.545,93.82,96.601,98.988,102.765,106.0839,254.815,261.457,265.22,268.01" svgx:width="0.67,0.53,0.44,0.37,0.44,0.42,0.31,0.43,0.37,0.27,0.37,0.31,0.27,0.42,0.37,0.55,0.74,0.44,0.31,0.44" style="fill:rgb(23,22,21);font-family:MinionPro-Regular;font-size:8.97px;stroke:none;">Characteristics Data</text>
  </g>
  <path style="fill:none;stroke:rgb(23,22,21);stroke-width:0.41;" d="M50.580 595.270 L290.680 595.270 "/>
  <g begin="text">
   <text y="602.801" x="52.569,56.943,60.75,64.9659,67.024,70.129,74.908,78.715,81.928,85.717,89.524,94.258,96.994,100.1335,238.111,245.949,249.928,252.195,255.948,258.0111,260.034,264.076,268.56100000000004,270.574,273.679,276.666,281.167,285.585" svgx:width="0.47,0.43,0.47,0.55,0.35,0.52,0.43,0.37,0.42,0.43,0.55,0.31,0.35,0.55,0.89,0.44,0.25,0.43,0.23,0.55,0.47,0.5,0.55,0.35,0.34,0.49,0.49,0.35" style="fill:rgb(23,22,21);font-family:MinionPro-Regular;font-size:8.97px;stroke:none;">Sex (percent) Male, 24 (100)</text>
   <text y="613.256" x="52.569,58.654,62.775,66.6321,68.634,71.739,75.78,79.641,83.466,86.743,90.037,93.1765,245.176,249.118,252.1678,254.185,257.29,261.511,265.768,270.43,274.435,278.503" svgx:width="0.69,0.47,0.43,0.55,0.35,0.46,0.43,0.44,0.37,0.37,0.35,0.55,0.45,0.34,0.55,0.35,0.47,0.47,0.52,0.45,0.45,0.35" style="fill:rgb(23,22,21);font-family:MinionPro-Regular;font-size:8.97px;stroke:none;">Age (years) 31 (28–35)</text>
   <text y="623.711" x="52.569,59.211,63.02,65.421,69.679,74.295,77.0757,79.075,82.175,85.966,93.308,96.4475,240.263,243.241,247.525,251.65120000000002,253.718,256.818,259.797,264.045,267.074,271.735,274.764,279.021,283.439" svgx:width="0.77,0.43,0.27,0.47,0.53,0.31,0.55,0.35,0.42,0.82,0.35,0.55,0.34,0.46,0.46,0.55,0.35,0.34,0.46,0.34,0.52,0.34,0.47,0.49,0.35" style="fill:rgb(23,22,21);font-family:MinionPro-Regular;font-size:8.97px;stroke:none;">Height (cm) 177 (171–180)</text>
   <text y="634.174" x="52.569,60.398,64.206,66.611,70.869,75.485,78.2657,80.273,83.378,87.828,92.027,95.1665,244.172,248.231,252.26749999999998,254.342,257.447,261.803,266.181,270.846,275.108,279.531" svgx:width="0.97,0.43,0.27,0.47,0.53,0.31,0.55,0.35,0.5,0.47,0.35,0.55,0.46,0.45,0.55,0.35,0.5,0.49,0.52,0.47,0.49,0.35" style="fill:rgb(23,22,21);font-family:MinionPro-Regular;font-size:8.97px;stroke:none;">Weight (kg) 75 (69–80)</text>
   <text y="644.629" x="52.569,57.33,61.902,65.13,67.902,72.142,75.472,79.405,84.03,88.818,92.581,95.253,99.1101,101.102,105.155,109.016,112.89,116.153,119.4719,121.49,124.595,128.648,132.509,136.382,139.646,142.94,146.0795,250.493,254.978,256.982,260.087,264.138,268.799,273.236" svgx:width="0.56,0.51,0.37,0.31,0.47,0.37,0.44,0.53,0.53,0.44,0.31,0.43,0.55,0.46,0.43,0.44,0.37,0.37,0.55,0.35,0.46,0.43,0.44,0.37,0.37,0.35,0.55,0.5,0.55,0.35,0.45,0.52,0.5,0.35" style="fill:rgb(23,22,21);font-family:MinionPro-Regular;font-size:8.97px;stroke:none;">Postgraduate years (years) 4 (3–6)</text>
   <text y="655.084" x="52.569,55.485,60.219,62.865,67.59,72.189,75.952,78.733,81.136,85.6,90.53349999999999,92.548,96.35,100.573,105.352,109.16,112.543,114.946,118.748,123.644,127.428,131.229,134.54790000000003,136.566,139.66,142.441,144.835,152.17,155.971,159.253,162.39249999999998,242.334,246.627,251.0223,253.08,256.185,260.361,264.779,269.433,272.455,276.955,281.374" svgx:width="0.34,0.55,0.31,0.53,0.51,0.44,0.31,0.27,0.51,0.55,0.55,0.43,0.47,0.52,0.43,0.37,0.27,0.43,0.55,0.42,0.43,0.37,0.55,0.35,0.31,0.27,0.82,0.43,0.37,0.35,0.55,0.47,0.49,0.55,0.35,0.45,0.49,0.52,0.34,0.49,0.49,0.35" style="fill:rgb(23,22,21);font-family:MinionPro-Regular;font-size:8.97px;stroke:none;">Intubation experiences (times) 80 (50–100)</text>
   <text y="665.548" x="52.569,57.132,61.066,64.857,68.7141,70.716,76.856,79.257,83.883,86.674,91.4281,93.495,96.596,103.938,111.279,114.4185,239.823,242.852,247.001,251.258,253.301,256.279,260.4052,262.481,265.581,268.61,273.029,275.071,279.4,283.855" svgx:width="0.53,0.44,0.42,0.43,0.55,0.69,0.27,0.53,0.31,0.53,0.55,0.35,0.82,0.82,0.35,0.55,0.34,0.45,0.47,0.23,0.34,0.46,0.55,0.35,0.34,0.49,0.23,0.47,0.5,0.35" style="fill:rgb(23,22,21);font-family:MinionPro-Regular;font-size:8.97px;stroke:none;">Face width (mm) 138.17 (10.84)</text>
   <text y="676.003" x="52.569,57.132,61.067,64.859,68.7161,70.718,72.985,76.795,81.628,85.824,88.614,93.3681,95.445,98.546,105.889,113.231,116.37049999999999,241.895,244.924,247.867,251.863,253.907,257.957,262.17289999999997,264.257,267.358,271.355,273.398,277.421,281.796" svgx:width="0.53,0.44,0.42,0.43,0.55,0.25,0.43,0.55,0.47,0.31,0.53,0.55,0.35,0.82,0.82,0.35,0.55,0.34,0.34,0.49,0.23,0.46,0.47,0.55,0.35,0.49,0.23,0.45,0.49,0.35" style="fill:rgb(23,22,21);font-family:MinionPro-Regular;font-size:8.97px;stroke:none;">Face length (mm) 119.78 (9.59)</text>
  </g>
  <path style="fill:none;stroke:rgb(23,22,21);stroke-width:0.41;" d="M50.580 679.360 L290.680 679.360 "/>
  <g begin="text">
   <text y="689.03" x="50.58,55.953,59.301,61.686,65.07,68.733,72.702,75.708,77.841,81.209,84.746,86.7385,89.229,92.916,96.344,99.351,101.483,104.922,108.918,110.931,114.315,117.26389999999999,119.688,123.117,125.97,129.3971,131.82,135.582,137.661,141.288,144.673,149.0565,151.504,154.999,157.9479,160.39,164.593,168.822,175.266,179.388,182.772,185.726,188.6749,191.117,193.871,198.119,201.503,204.357,207.732,211.116,215.319,217.794,221.259,224.922,228.306,231.061,232.8941,235.363,240.781,244.75,248.953,251.419,253.551,257.754,261.983,265.961,270.19,273.1389,275.608,279.295,282.724,285.73,287.863" svgx:width="0.67,0.44,0.31,0.43,0.47,0.51,0.37,0.27,0.42,0.44,0.25,0.55,0.46,0.44,0.37,0.27,0.44,0.51,0.25,0.43,0.37,0.55,0.44,0.37,0.43,0.55,0.47,0.27,0.46,0.43,0.55,0.55,0.44,0.37,0.55,0.55,0.53,0.82,0.51,0.43,0.37,0.37,0.55,0.35,0.52,0.43,0.37,0.42,0.43,0.55,0.31,0.44,0.47,0.43,0.35,0.23,0.55,0.67,0.51,0.55,0.31,0.27,0.55,0.53,0.51,0.53,0.37,0.55,0.46,0.44,0.37,0.27,0.36" style="fill:rgb(23,22,21);font-family:MinionPro-Regular;font-size:7.97px;stroke:none;">Categorical variables are given as numbers (percentage). Continuous vari-</text>
   <text y="698.49" x="50.58,54.018,58.015,60.03,63.414,66.3629,68.153,71.582,74.435,77.8621,79.629,83.391,85.469,89.096,92.48,96.8635,98.654,102.128,105.0769,106.867,113.356,116.776,120.989,123.149,126.577,130.9605,132.751,135.505,138.124,143.992,148.942,151.696" svgx:width="0.44,0.51,0.25,0.43,0.37,0.55,0.44,0.37,0.43,0.55,0.47,0.27,0.46,0.43,0.55,0.55,0.44,0.37,0.55,0.82,0.43,0.53,0.27,0.44,0.55,0.55,0.35,0.34,0.75,0.62,0.35,0.23" style="fill:rgb(23,22,21);font-family:MinionPro-Regular;font-size:7.97px;stroke:none;">ables are given as median (IQR).</text>
   <text y="729.116" x="50.58,55.17,57.498,62.088,64.3788,68.244,73.356,75.939,79.02659999999999,82.797,87.73,92.536,96.378,99.339,103.92,107.553,110.93939999999999,114.726,119.659,124.843,128.578,131.17,136.345,140.5282,144.328,147.298,152.32,156.304,160.105,163.057,168.142,171.112,176.286,181.092,185.755,188.724,191.431,196.012,201.2908,205.102,210.565,215.588,220.465,223.81,227.782" svgx:width="0.46,0.23,0.46,0.23,0.55,0.53,0.27,0.31,0.55,0.53,0.49,0.38,0.31,0.47,0.37,0.34,0.55,0.51,0.53,0.37,0.27,0.53,0.42,0.55,0.31,0.51,0.4,0.55,0.34,0.53,0.31,0.53,0.49,0.49,0.31,0.27,0.47,0.53,0.55,0.55,0.51,0.49,0.34,0.4,0.23" style="fill:rgb(23,22,21);font-family:MinionPro-It;font-size:9.96px;stroke:none;">3.3. Fit Factors during the Intubation Phase.</text>
   <text y="729.116" x="235.157,245.811,250.029,253.602,257.8848,261.603,268.411,272.769,276.4542,280.194,285.612" svgx:width="1.07,0.43,0.37,0.43,0.55,0.69,0.44,0.37,0.55,0.55,0.51" style="fill:rgb(23,22,21);font-family:MinionPro-Regular;font-size:9.96px;stroke:none;">Ther ewa sno</text>
   <text y="740.483" x="50.58,54.232,56.898,61.615,67.069,69.735,75.061,79.271,83.555,88.82,91.90759999999999,98.153,103.41,106.076,111.575,115.805,119.378,123.608,129.053,133.264,137.54680000000002,143.794,150.688,156.004,160.234,165.71200000000002,171.988,178.729,183.01180000000002,189.277,193.488,198.456,206.43,211.704,215.988,219.561,223.845,229.1238,235.382,238.488,243.804,248.0868,254.334,257.196,262.21,264.726,269.982,273.525,276.56,281.128,286.439" svgx:width="0.37,0.27,0.47,0.55,0.27,0.54,0.42,0.44,0.55,0.31,0.55,0.53,0.27,0.56,0.43,0.37,0.43,0.55,0.42,0.43,0.55,0.69,0.53,0.43,0.55,0.55,0.69,0.43,0.55,0.42,0.51,0.82,0.52,0.44,0.37,0.43,0.53,0.55,0.31,0.53,0.43,0.55,0.3,0.51,0.25,0.53,0.36,0.31,0.46,0.52,0.43" style="fill:rgb(23,22,21);font-family:MinionPro-Regular;font-size:9.96px;stroke:none;">significan tdifferen cewh en wecompar edt hefold-type</text>
   <text y="575.552" x="308.611,312.184,316.414,320.014,325.117,327.791,331.491,335.677,338.655,343.624,347.26,350.9452,356.198,361.345,365.575,368.438,373.406,376.979,381.2618,386.492,390.776,396.193,401.4718,406.733,411.872,417.166,420.928,423.602,428.974,433.6552,438.91,441.584,446.849,449.792,455.086,460.151,464.337,467.433,470.107,475.075,480.553,485.767" svgx:width="0.37,0.43,0.37,0.52,0.27,0.37,0.44,0.31,0.51,0.37,0.37,0.55,0.51,0.43,0.3,0.51,0.37,0.43,0.55,0.44,0.55,0.53,0.55,0.53,0.53,0.37,0.27,0.55,0.47,0.55,0.27,0.55,0.31,0.53,0.51,0.44,0.31,0.27,0.51,0.55,0.55,0.35" style="fill:rgb(23,22,21);font-family:MinionPro-Regular;font-size:9.96px;stroke:none;">respirators before and during intubation (</text>
   <text y="575.552" x="489.218,495.39320000000004,505.562,511.4384,521.6,526.379,528.647,533.426,538.205" svgx:width="0.62,0.55,0.59,0.55,0.48,0.23,0.48,0.48,0.48" style="fill:rgb(23,22,21);font-family:MinionMath-Regular;font-size:9.96px;stroke:none;"></text>
   <text y="575.552" x="542.984,546.431" svgx:width="0.35,0.23" style="fill:rgb(23,22,21);font-family:MinionPro-Regular;font-size:9.96px;stroke:none;">).</text>
   <text y="587.418" x="308.611,315.992,320.915,327.67,331.981,336.524,340.754,343.823,346.11379999999997,348.737,351.842,357.125,361.4078,363.974,372.102,376.386,381.642,384.342,388.626,394.104,396.699,401.91,404.99760000000003,407.58,410.532,414.905,419.189,422.158,427.126,430.8112,433.436,436.298,441.266,444.95120000000003,447.584,450.69,455.973,460.2558,462.822,467.439,471.867,474.318,478.861,483.091,486.637,489.706,494.278,499.588,503.87080000000003,506.446,510.019,514.249,517.85,522.952,525.625,529.325,533.51,536.479,541.447,545.073" svgx:width="0.77,0.51,0.69,0.43,0.46,0.43,0.37,0.23,0.55,0.31,0.53,0.43,0.55,0.82,0.43,0.53,0.27,0.44,0.55,0.55,0.54,0.31,0.55,0.3,0.44,0.42,0.31,0.51,0.37,0.55,0.3,0.51,0.37,0.55,0.31,0.53,0.43,0.55,0.46,0.44,0.25,0.46,0.43,0.36,0.31,0.46,0.52,0.43,0.55,0.37,0.43,0.37,0.52,0.27,0.37,0.44,0.31,0.51,0.37,0.37" style="fill:rgb(23,22,21);font-family:MinionPro-Regular;font-size:9.96px;stroke:none;">However, the median fi tfacto rfo rth evalve-typ erespirators</text>
   <text y="599.283" x="308.611,313.878,318.118,322.338,325.91,330.203,334.55,338.285,342.569,347.8478,352.73,357.868,363.164,366.926,369.602,374.975,379.6562,384.533,387.639,392.965,397.2478,402.09,404.766,410.032,412.974,418.231,423.298,427.483,430.579,433.255,438.224,443.702,448.538,453.686,458.978,463.357,467.092,471.26,473.5508,478.442,482.662,487.63,495.604,500.878,505.162,508.735,512.975,518.2538000000001,523.118,526.097,531.1766,536.087,539.193,544.476" svgx:width="0.53,0.43,0.42,0.37,0.43,0.44,0.37,0.43,0.53,0.55,0.53,0.53,0.37,0.27,0.55,0.47,0.55,0.31,0.53,0.43,0.55,0.27,0.55,0.31,0.53,0.51,0.44,0.31,0.27,0.51,0.55,0.55,0.52,0.53,0.44,0.37,0.43,0.23,0.55,0.42,0.51,0.82,0.52,0.44,0.37,0.43,0.53,0.55,0.31,0.51,0.55,0.31,0.53,0.43" style="fill:rgb(23,22,21);font-family:MinionPro-Regular;font-size:9.96px;stroke:none;">decreased during the intubation phase, compared to the</text>
   <text y="611.159" x="308.611,313.737,318.084,321.805,325.999,328.52,331.193,336.61,340.8928,343.099,348.247,353.539,357.885,361.62,365.9028,368.127" svgx:width="0.51,0.44,0.37,0.43,0.25,0.27,0.55,0.43,0.55,0.52,0.53,0.44,0.37,0.43,0.55,0.35" style="fill:rgb(23,22,21);font-family:MinionPro-Regular;font-size:9.96px;stroke:none;">baseline phase (</text>
   <text y="611.159" x="371.575,377.7502,380.512,386.3884,389.152,393.931,396.199,400.979,405.758" svgx:width="0.62,0.55,0.59,0.55,0.48,0.23,0.48,0.48,0.48" style="fill:rgb(23,22,21);font-family:MinionMath-Regular;font-size:9.96px;stroke:none;"></text>
   <text y="611.159" x="410.537,413.984,416.27479999999997,418.538,424.595,429.572,432.675,437.9538,440.252,443.354,448.638,452.9208,455.126,459.41,464.585,469.805,473.351,476.42,480.992,486.302,490.58480000000003,492.8,497.084,502.501,507.77979999999997,510.025,513.128,518.411,522.6937999999999,524.908,529.525,533.962,536.41,540.946,545.176" svgx:width="0.35,0.23,0.55,0.59,0.51,0.31,0.53,0.55,0.31,0.53,0.43,0.55,0.42,0.53,0.52,0.36,0.31,0.46,0.52,0.43,0.55,0.44,0.55,0.53,0.55,0.31,0.53,0.43,0.55,0.46,0.44,0.25,0.46,0.43,0.36" style="fill:rgb(23,22,21);font-family:MinionPro-Regular;font-size:9.96px;stroke:none;">). Both the cup-type and the valve-</text>
   <text y="623.024" x="308.611,311.661,316.245,321.555,325.8378,330.303,333.875,338.106,341.706,346.809,349.49,353.197,357.382,360.361,365.329,368.966,372.6512,377.12,382.223,385.796,390.719,395.363,398.044,403.315,407.56,412.8388,417.325,419.857,424.78,431.521,435.751,439.4362,443.968,448.342,453.613,457.858,462.853,468.172,472.358,475.337,479.6198,484.076,489.179,492.751,497.728,500.707,504.991,509.275,512.371,515.052,520.021,525.4989999999999,529.956,533.656,537.841,540.82,545.065" svgx:width="0.31,0.46,0.52,0.43,0.55,0.37,0.43,0.37,0.52,0.27,0.37,0.44,0.31,0.51,0.37,0.37,0.55,0.52,0.37,0.51,0.46,0.27,0.53,0.43,0.53,0.55,0.25,0.51,0.69,0.43,0.37,0.55,0.44,0.53,0.43,0.51,0.53,0.44,0.31,0.43,0.55,0.52,0.37,0.51,0.31,0.43,0.42,0.31,0.27,0.51,0.55,0.55,0.37,0.44,0.31,0.43,0.37" style="fill:rgb(23,22,21);font-family:MinionPro-Regular;font-size:9.96px;stroke:none;">type respirators provided lower adequate protection rates</text>
   <text y="634.89" x="308.611,313.75,319.042,322.81,325.483,330.856,335.5372,337.768,340.878,346.161,350.4438,352.65,355.323,360.588,363.531,368.787,373.899,378.085,381.181,383.854,388.822,394.3,396.499,399.946,405.079,410.056,413.167" svgx:width="0.53,0.53,0.37,0.27,0.55,0.47,0.55,0.31,0.53,0.43,0.55,0.27,0.55,0.31,0.53,0.51,0.44,0.31,0.27,0.51,0.55,0.55,0.35,0.51,0.51,0.31,0.53" style="fill:rgb(23,22,21);font-family:MinionPro-Regular;font-size:9.96px;stroke:none;">during the intubation (both</text>
   <text y="634.89" x="420.73,426.90520000000004,429.65,435.52639999999997,438.272,443.051,445.319,450.098,454.877" svgx:width="0.62,0.55,0.59,0.55,0.48,0.23,0.48,0.48,0.48" style="fill:rgb(23,22,21);font-family:MinionMath-Regular;font-size:9.96px;stroke:none;"></text>
   <text y="634.89" x="459.656,463.093,465.3838,467.647,478.307,482.531,486.104,490.3868,492.584,499.398,503.762,507.4472,509.683,514.0654,516.317,524.466,528.75,532.368,537.085,539.745,545.184" svgx:width="0.35,0.23,0.55,1.07,0.43,0.37,0.43,0.55,0.69,0.44,0.37,0.55,0.44,0.55,0.82,0.44,0.37,0.47,0.27,0.55,0.36" style="fill:rgb(23,22,21);font-family:MinionPro-Regular;font-size:9.96px;stroke:none;">). Ther ewa s amargin-</text>
   <text y="646.765" x="308.611,313.013,315.561,318.009,322.5906,326.721,330.376,333.049,337.739,343.216,345.914,351.242,355.484,359.768,365.034,368.1216,372.198,377.454,380.127,385.626,389.856,393.429,397.659,403.077,407.289,411.5718,415.668,418.341,423.819,427.926,431.031,436.314,440.59680000000003,444.675,449.076,454.332,458.594,463.59,468.908,473.093,476.072,480.3548,484.45,489.553,493.126,498.103,501.082,505.344,509.586,512.652,515.35,520.319,525.7969999999999,529.877,533.601,537.786,540.765,544.995" svgx:width="0.44,0.25,0.25,0.46,0.55,0.37,0.27,0.47,0.55,0.27,0.54,0.42,0.44,0.55,0.31,0.55,0.53,0.27,0.56,0.43,0.37,0.43,0.55,0.42,0.43,0.55,0.27,0.55,0.55,0.31,0.53,0.43,0.55,0.44,0.53,0.43,0.51,0.53,0.44,0.31,0.43,0.55,0.52,0.37,0.51,0.31,0.43,0.42,0.31,0.27,0.51,0.55,0.55,0.37,0.44,0.31,0.43,0.37" style="fill:rgb(23,22,21);font-family:MinionPro-Regular;font-size:9.96px;stroke:none;">ally significan tdifferen ce int headequa teprotecti onrates</text>
   <text y="658.631" x="308.611,311.474,316.468,320.1532,322.713,325.819,331.052,335.33480000000003,337.839,340.701,345.695,348.216,353.4948,356.036,359.106,363.678,368.988,373.2708,375.783,380.931,385.161,388.023,393.017,396.627,400.9098,403.412,407.699,413.117,418.3958,420.929,426.067,431.359,435.121,437.794,443.167,447.84819999999996,450.376,453.049,458.314,461.257,466.513,471.625,475.811,478.907,481.58,486.548,492.026,494.522,499.788,503.442,506.115,511.478,516.1592,518.696,523.0784,525.626,530.882,533.555,537.127,541.411,545.695" svgx:width="0.3,0.51,0.37,0.55,0.31,0.53,0.43,0.55,0.3,0.51,0.25,0.53,0.55,0.31,0.46,0.52,0.43,0.55,0.51,0.43,0.3,0.51,0.37,0.43,0.55,0.44,0.55,0.53,0.55,0.53,0.53,0.37,0.27,0.55,0.47,0.55,0.27,0.55,0.31,0.53,0.51,0.44,0.31,0.27,0.51,0.55,0.55,0.53,0.37,0.27,0.55,0.47,0.55,0.44,0.55,0.53,0.27,0.37,0.43,0.42,0.31" style="fill:rgb(23,22,21);font-family:MinionPro-Regular;font-size:9.96px;stroke:none;">for the fold type before and during intubation using a direct</text>
   <text y="670.506" x="308.611,311.142,315.426,319.413,324.011,329.384,333.965,339.056,342.791,347.015,351.992,357.303,361.5858,363.8" svgx:width="0.25,0.44,0.37,0.46,0.55,0.47,0.51,0.37,0.42,0.51,0.52,0.43,0.55,0.35" style="fill:rgb(23,22,21);font-family:MinionPro-Regular;font-size:9.96px;stroke:none;">laryngoscope (</text>
   <text y="670.506" x="367.251,373.4262,376.171,382.0474,384.792,389.571,391.84,396.619,401.398" svgx:width="0.62,0.55,0.59,0.55,0.48,0.23,0.48,0.48,0.48" style="fill:rgb(23,22,21);font-family:MinionMath-Regular;font-size:9.96px;stroke:none;"></text>
   <text y="670.506" x="406.177,409.663,411.901,415.349,420.62,423.291,427.954,433.245,436.818,441.1008,443.298,447.802,451.25" svgx:width="0.35,0.55,0.35,0.53,0.27,0.47,0.53,0.37,0.43,0.55,0.45,0.35,0.23" style="fill:rgb(23,22,21);font-family:MinionPro-Regular;font-size:9.96px;stroke:none;">) (Figure 3).</text>
   <text y="693.041" x="308.611,313.207,315.541,320.386,322.6768,327.919,333.879,337.786,341.053,345.796,348.388,351.844,356.507,359.467,364.048,367.7332,372.868,378.38,381.836,385.815,388.416,392.394,395.85,399.828,405.057,408.792,412.699,416.049" svgx:width="0.46,0.23,0.49,0.23,0.55,0.6,0.4,0.34,0.49,0.27,0.37,0.49,0.31,0.47,0.37,0.55,0.55,0.37,0.4,0.27,0.4,0.37,0.4,0.53,0.38,0.4,0.34,0.23" style="fill:rgb(23,22,21);font-family:MinionPro-It;font-size:9.96px;stroke:none;">3.4. Respirator Preferences.</text>
   <text y="693.041" x="423.38,432.939,438.222,442.449,447.927,453.033,457.4,461.049,465.9,470.184,475.4628,480.57,487.464,492.777,495.44,499.589,504.8678,510.056,513.629,517.856,521.456,526.559,529.222,532.911,537.097,540.075,545.044" svgx:width="0.97,0.53,0.43,0.55,0.55,0.44,0.37,0.5,0.43,0.53,0.55,0.69,0.53,0.27,0.42,0.53,0.55,0.37,0.43,0.37,0.52,0.27,0.37,0.44,0.31,0.51,0.37" style="fill:rgb(23,22,21);font-family:MinionPro-Regular;font-size:9.96px;stroke:none;">When asked which respirator</text>
   <text y="704.917" x="308.611,311.717,317.0,321.311,325.89259999999996,330.644,335.746,339.319,343.558,346.42,350.659,354.421,357.994,362.278,367.5568,372.295,375.274,380.35360000000003,385.12,390.223,393.796,398.106,402.642,406.872,412.138,415.2256,419.931,422.606,428.061,430.923,435.207,439.491,442.587,445.262,450.231,455.709,460.427,465.566,470.861,474.623,477.298,482.671,487.3522,492.085,494.759,500.025,502.968,508.263,513.329,517.514,520.61,523.285,528.254,533.708,535.9988,540.71,544.082" svgx:width="0.31,0.53,0.43,0.46,0.55,0.52,0.37,0.43,0.3,0.43,0.37,0.37,0.43,0.53,0.55,0.31,0.51,0.55,0.52,0.37,0.43,0.46,0.43,0.55,0.31,0.55,0.27,0.55,0.3,0.43,0.42,0.31,0.27,0.51,0.55,0.55,0.53,0.53,0.37,0.27,0.55,0.47,0.55,0.27,0.55,0.31,0.53,0.51,0.44,0.31,0.27,0.51,0.55,0.23,0.55,0.34,0.47" style="fill:rgb(23,22,21);font-family:MinionPro-Regular;font-size:9.96px;stroke:none;">they preferred to prevent infection during intubation, 12</text>
   <text y="716.782" x="308.611,313.886,318.169,321.967,325.064,327.74,331.962,334.518,339.792,344.076,349.341,352.387,356.0722,359.065,362.519,367.162,372.081,374.359,379.278,386.817,390.303,393.305,398.408,401.981,406.211,409.073,413.303,417.065,420.638,424.879,430.1578,433.177,436.282,441.565,445.8478,448.837,453.457,457.885,460.333,464.869,469.099,472.652,475.698,480.278,485.588,489.87080000000003,492.869,496.441,500.682,504.283,509.386,512.063,515.766,519.951,522.93,527.898,531.534,535.189,537.4798,540.508,543.819" svgx:width="0.52,0.44,0.37,0.31,0.27,0.42,0.27,0.52,0.44,0.55,0.31,0.37,0.55,0.35,0.45,0.49,0.23,0.49,0.76,0.35,0.55,0.52,0.37,0.43,0.3,0.43,0.37,0.37,0.43,0.53,0.55,0.31,0.53,0.43,0.55,0.46,0.44,0.25,0.46,0.43,0.36,0.31,0.46,0.52,0.43,0.55,0.37,0.43,0.37,0.52,0.27,0.37,0.44,0.31,0.51,0.37,0.37,0.23,0.55,0.34,0.49" style="fill:rgb(23,22,21);font-family:MinionPro-Regular;font-size:9.96px;stroke:none;">participants (50.0%) preferred the valve-type respirators, 10</text>
   <text y="728.658" x="308.611,313.886,318.169,321.967,325.064,327.73,331.94,334.496,339.77,344.054,349.319,352.354,356.0392,358.771,362.214,367.092,371.591,373.858,378.377,385.905,389.39099999999996,392.142,397.245,400.817,405.047,407.91,412.14,415.902,419.474,423.758,429.03679999999997,431.795,434.9,440.216,444.4988,447.236,450.098,455.111,457.628,462.884,466.427,469.461,474.03,479.34,483.6228,486.36,489.933,494.163,497.763,502.866,505.532,509.224,513.409,516.388,521.357,524.993,528.645,530.9358,533.694,537.978,543.424" svgx:width="0.52,0.44,0.37,0.31,0.27,0.42,0.27,0.52,0.44,0.55,0.31,0.37,0.55,0.35,0.5,0.45,0.23,0.45,0.76,0.35,0.55,0.52,0.37,0.43,0.3,0.43,0.37,0.37,0.43,0.53,0.55,0.31,0.53,0.43,0.55,0.3,0.51,0.25,0.53,0.36,0.31,0.46,0.52,0.43,0.55,0.37,0.43,0.37,0.52,0.27,0.37,0.44,0.31,0.51,0.37,0.37,0.23,0.55,0.44,0.55,0.53" style="fill:rgb(23,22,21);font-family:MinionPro-Regular;font-size:9.96px;stroke:none;">participants (43.5%) preferred the fold-type respirators, and</text>
   <text y="740.523" x="308.611,313.2922,315.505,320.78,325.064,328.861,331.958,334.635,338.856,341.412,346.686,350.97,356.236,359.281,362.9662,365.167,368.614,373.353,375.632,380.261,387.8,391.286,393.506,398.608,402.181,406.411,409.273,413.503,417.265,420.838,425.079,430.3578,432.585,435.69,440.973,445.2558,447.462,451.746,456.921,462.142,465.696,468.741,473.321,478.631,482.9138,485.12,488.692,492.933,496.534,501.637,504.314,508.017,512.202,515.181,520.149,523.785,527.44" svgx:width="0.47,0.55,0.52,0.44,0.37,0.31,0.27,0.42,0.27,0.52,0.44,0.55,0.31,0.37,0.55,0.35,0.47,0.23,0.46,0.76,0.35,0.55,0.52,0.37,0.43,0.3,0.43,0.37,0.37,0.43,0.53,0.55,0.31,0.53,0.43,0.55,0.42,0.53,0.52,0.36,0.31,0.46,0.52,0.43,0.55,0.37,0.43,0.37,0.52,0.27,0.37,0.44,0.31,0.51,0.37,0.37,0.23" style="fill:rgb(23,22,21);font-family:MinionPro-Regular;font-size:9.96px;stroke:none;">2 participants (8.7%) preferred the cup-type respirators.</text>
  </g>
 </g>
</svg>
