<?xml version="1.0" encoding="UTF-8"?>
<svg height="783.47" width="564.78" xmlns="http://www.w3.org/2000/svg">
 <g>
  <path style="fill:none;stroke:rgb(23,22,21);stroke-width:1.0;" d="M40.500 756.360 L554.780 756.360 "/>
  <path style="fill:rgb(2,100,172);stroke:none;stroke-width:0.5;" d="M57.600 773.470 L57.590 773.470 C57.480 773.470 57.390 773.380 57.390 773.270 L57.410 773.170 L58.930 771.030 C59.670 769.970 59.780 769.870 59.780 768.790 L59.780 761.360 C59.780 761.140 59.970 760.950 60.190 760.950 L61.430 760.950 C61.660 760.950 61.840 761.140 61.840 761.360 L61.840 769.040 C61.840 770.150 61.510 770.620 60.820 771.580 L59.540 773.320 C59.460 773.410 59.370 773.470 59.250 773.470 L57.600 773.470 "/>
  <path style="fill:rgb(2,100,172);stroke:none;stroke-width:0.5;" d="M44.410 768.630 C44.230 768.660 43.940 768.680 43.720 768.680 L42.770 768.680 C42.650 768.680 42.560 768.580 42.560 768.470 L42.560 766.650 C42.560 766.540 42.650 766.440 42.770 766.440 L43.770 766.440 C43.960 766.440 44.240 766.460 44.410 766.500 C44.590 766.540 45.310 766.710 45.310 767.610 C45.310 768.340 44.600 768.600 44.410 768.630 M42.560 762.700 C42.560 762.590 42.650 762.500 42.770 762.500 L43.620 762.500 C44.160 762.500 45.080 762.620 45.080 763.600 C45.080 764.530 44.070 764.670 43.670 764.670 L42.770 764.670 C42.650 764.670 42.560 764.570 42.560 764.460 ZM46.120 765.510 L46.160 765.430 C46.590 765.170 47.220 764.540 47.220 763.480 C47.220 761.750 45.730 760.950 44.370 760.950 L40.910 760.950 C40.690 760.950 40.500 761.140 40.500 761.360 L40.500 769.820 C40.500 770.050 40.690 770.240 40.910 770.240 L44.600 770.240 C46.000 770.240 47.510 769.420 47.510 767.770 C47.510 766.460 46.640 765.830 46.170 765.600 L46.120 765.510 "/>
  <path style="fill:rgb(2,100,172);stroke:none;stroke-width:0.5;" d="M55.150 764.720 L55.230 764.670 L55.330 764.770 L55.330 769.820 C55.330 770.050 55.520 770.240 55.740 770.240 L56.980 770.240 C57.210 770.240 57.390 770.050 57.390 769.820 L57.390 761.360 C57.390 761.140 57.210 760.950 56.980 760.950 L55.670 760.950 C55.530 760.950 55.400 761.020 55.330 761.130 L53.250 764.050 L53.170 764.090 L53.090 764.040 L51.010 761.130 C50.940 761.020 50.810 760.950 50.670 760.950 L49.390 760.950 C49.130 760.950 48.940 761.110 48.940 761.380 L48.940 769.820 C48.940 770.050 49.130 770.240 49.360 770.240 L50.590 770.240 C50.820 770.240 51.010 770.050 51.010 769.820 L51.010 764.770 L51.110 764.670 L51.190 764.720 L52.710 766.870 C52.790 766.970 52.910 767.040 53.040 767.040 L53.290 767.040 C53.420 767.040 53.540 766.970 53.620 766.870 L55.150 764.720 "/>
  <path style="fill:none;stroke:rgb(46,110,183);stroke-width:0.5;" d="M146.920 141.350 L554.770 141.350 "/>
  <path style="fill:rgb(203,210,0);stroke:none;stroke-width:0.75;" d="M251.280 147.020 C251.320 147.040 251.360 147.060 251.400 147.080 C251.430 147.110 251.470 147.130 251.500 147.160 C251.580 147.240 251.640 147.330 251.690 147.430 C251.730 147.540 251.750 147.650 251.750 147.770 C251.750 147.900 251.730 148.020 251.690 148.120 C251.650 148.230 251.580 148.320 251.500 148.410 C251.480 148.430 251.450 148.460 251.420 148.480 C251.390 148.500 251.360 148.520 251.330 148.540 C251.300 148.550 251.270 148.570 251.230 148.580 C251.190 148.600 251.150 148.610 251.100 148.620 C251.060 148.630 251.000 148.640 250.940 148.650 C250.870 148.650 250.800 148.660 250.710 148.660 L250.290 148.660 L250.290 146.920 L250.700 146.920 C250.780 146.920 250.850 146.930 250.910 146.930 C250.970 146.930 251.020 146.940 251.050 146.940 C251.090 146.950 251.130 146.960 251.160 146.970 C251.200 146.980 251.240 147.000 251.280 147.020 M252.000 148.240 C252.030 148.170 252.060 148.090 252.070 148.020 C252.090 147.950 252.090 147.870 252.090 147.790 C252.090 147.680 252.080 147.580 252.050 147.480 C252.020 147.380 251.980 147.280 251.930 147.190 C251.870 147.100 251.810 147.010 251.740 146.950 C251.670 146.880 251.580 146.820 251.490 146.770 C251.400 146.720 251.290 146.690 251.160 146.660 C251.040 146.640 250.900 146.630 250.740 146.630 L249.950 146.630 L249.950 148.950 L250.690 148.950 C250.790 148.950 250.880 148.950 250.950 148.950 C251.020 148.940 251.070 148.940 251.110 148.940 C251.150 148.930 251.190 148.920 251.230 148.910 C251.270 148.900 251.310 148.880 251.350 148.870 C251.430 148.840 251.500 148.800 251.560 148.760 C251.630 148.720 251.690 148.670 251.750 148.620 C251.800 148.560 251.850 148.500 251.900 148.440 C251.940 148.380 251.970 148.310 252.000 148.240 M249.430 146.320 C249.470 146.270 249.500 146.220 249.500 146.160 C249.500 146.090 249.470 146.040 249.430 145.990 C249.390 145.950 249.330 145.930 249.270 145.930 C249.210 145.930 249.150 145.950 249.110 145.990 C249.060 146.040 249.040 146.090 249.040 146.160 C249.040 146.220 249.060 146.270 249.110 146.320 C249.150 146.360 249.210 146.380 249.270 146.380 C249.330 146.380 249.390 146.360 249.430 146.320 M250.370 144.900 C250.760 144.900 251.120 144.980 251.460 145.120 C251.800 145.270 252.100 145.470 252.360 145.730 C252.610 145.980 252.810 146.280 252.960 146.620 C253.110 146.960 253.180 147.330 253.180 147.720 C253.180 148.100 253.110 148.470 252.960 148.810 C252.810 149.150 252.610 149.450 252.360 149.700 C252.100 149.960 251.800 150.160 251.460 150.300 C251.120 150.450 250.760 150.520 250.370 150.520 C249.980 150.520 249.610 150.450 249.270 150.300 C248.930 150.160 248.630 149.960 248.380 149.700 C248.130 149.450 247.930 149.150 247.780 148.810 C247.630 148.470 247.560 148.100 247.560 147.720 C247.560 147.330 247.630 146.960 247.780 146.620 C247.930 146.280 248.130 145.980 248.380 145.730 C248.630 145.470 248.930 145.270 249.270 145.120 C249.610 144.980 249.980 144.900 250.370 144.900 "/>
  <path style="fill:none;stroke:rgb(23,22,21);stroke-width:0.75;" d="M40.500 321.980 L83.050 321.980 "/>
  <path style="fill:none;stroke:rgb(46,110,183);stroke-width:0.5;" d="M40.500 708.030 L83.280 708.030 "/>
  <path style="fill:none;stroke:rgb(157,148,146);stroke-width:0.5;" d="M41.690 438.700 C41.240 438.700 40.880 439.070 40.880 439.520 L40.880 439.520 L40.880 455.120 C40.880 455.570 41.240 455.940 41.690 455.940 L41.690 455.940 L131.140 455.940 C131.590 455.940 131.960 455.570 131.960 455.120 L131.960 455.120 L131.960 439.520 C131.960 439.070 131.590 438.700 131.140 438.700 L131.140 438.700 ZM41.700 438.700 L131.140 438.700 C131.590 438.700 131.960 439.070 131.960 439.520 L131.960 455.120 C131.960 455.570 131.590 455.940 131.140 455.940 L41.700 455.940 C41.240 455.940 40.880 455.570 40.880 455.120 L40.880 439.520 C40.880 439.070 41.240 438.700 41.700 438.700 Z"/>
  <path style="fill:rgb(86,83,82);stroke:none;stroke-width:0.75;" d="M66.540 445.630 C66.500 445.480 66.440 445.330 66.370 445.190 C66.300 445.050 66.200 444.930 66.090 444.830 C65.970 444.730 65.830 444.650 65.680 444.600 C65.510 444.550 65.330 444.520 65.140 444.520 C64.880 444.520 64.610 444.580 64.380 444.700 C64.170 444.820 63.990 444.980 63.850 445.180 C63.710 445.390 63.610 445.620 63.550 445.860 C63.420 446.370 63.420 446.910 63.550 447.420 C63.610 447.660 63.710 447.890 63.850 448.100 C63.990 448.300 64.170 448.470 64.380 448.580 C64.610 448.710 64.880 448.770 65.140 448.760 C65.340 448.770 65.540 448.730 65.720 448.650 C65.880 448.570 66.020 448.470 66.130 448.340 C66.250 448.200 66.350 448.050 66.410 447.870 C66.490 447.700 66.540 447.510 66.570 447.320 L67.520 447.320 C67.500 447.630 67.430 447.940 67.310 448.230 C67.190 448.500 67.020 448.740 66.810 448.950 C66.600 449.150 66.350 449.300 66.080 449.410 C65.780 449.520 65.470 449.580 65.150 449.570 C64.760 449.580 64.380 449.500 64.030 449.340 C63.710 449.190 63.430 448.980 63.210 448.710 C62.970 448.440 62.800 448.130 62.680 447.790 C62.440 447.060 62.440 446.270 62.680 445.540 C62.800 445.200 62.970 444.880 63.210 444.610 C63.430 444.340 63.710 444.130 64.030 443.980 C64.380 443.820 64.760 443.740 65.150 443.740 C65.450 443.740 65.740 443.780 66.030 443.870 C66.290 443.950 66.540 444.080 66.760 444.240 C66.970 444.400 67.140 444.610 67.270 444.840 C67.410 445.090 67.490 445.370 67.510 445.660 L66.540 445.660 Z"/>
  <path style="fill:rgb(86,83,82);stroke:none;stroke-width:0.75;" d="M68.280 443.860 L69.190 443.860 L69.190 445.910 C69.310 445.720 69.470 445.560 69.670 445.450 C69.900 445.330 70.160 445.260 70.420 445.270 C70.800 445.250 71.170 445.370 71.460 445.610 C71.730 445.880 71.870 446.260 71.840 446.640 L71.840 449.410 L70.930 449.410 L70.930 446.910 C70.950 446.660 70.870 446.420 70.730 446.220 C70.580 446.070 70.360 445.990 70.150 446.010 C70.000 446.000 69.860 446.030 69.730 446.090 C69.620 446.140 69.510 446.220 69.430 446.320 C69.340 446.420 69.280 446.530 69.230 446.660 C69.190 446.790 69.160 446.930 69.160 447.070 L69.160 449.440 L68.280 449.440 Z"/>
  <path style="fill:rgb(86,83,82);stroke:none;stroke-width:0.75;" d="M75.520 447.060 C75.510 446.920 75.480 446.780 75.430 446.650 C75.390 446.520 75.320 446.410 75.230 446.310 C75.150 446.220 75.040 446.140 74.930 446.090 C74.800 446.030 74.660 446.000 74.520 446.000 C74.380 446.000 74.240 446.030 74.110 446.080 C73.990 446.130 73.870 446.210 73.780 446.310 C73.690 446.410 73.610 446.520 73.560 446.650 C73.510 446.780 73.480 446.920 73.470 447.060 L75.540 447.060 ZM73.450 447.640 C73.450 447.790 73.470 447.940 73.520 448.090 C73.560 448.230 73.630 448.360 73.710 448.470 C73.810 448.580 73.920 448.670 74.050 448.740 C74.200 448.800 74.370 448.840 74.540 448.830 C74.760 448.840 74.980 448.790 75.160 448.670 C75.330 448.540 75.450 448.360 75.520 448.160 L76.360 448.160 C76.270 448.570 76.040 448.930 75.700 449.180 C75.540 449.300 75.350 449.390 75.160 449.450 C74.950 449.510 74.740 449.540 74.520 449.540 C74.240 449.540 73.960 449.480 73.700 449.370 C73.460 449.280 73.250 449.140 73.070 448.960 C72.900 448.770 72.770 448.540 72.690 448.290 C72.610 448.020 72.560 447.730 72.570 447.430 C72.560 447.160 72.610 446.880 72.700 446.610 C72.790 446.360 72.930 446.140 73.110 445.940 C73.460 445.520 73.970 445.270 74.520 445.270 C74.820 445.260 75.110 445.330 75.370 445.470 C75.620 445.590 75.830 445.770 76.000 445.990 C76.170 446.220 76.290 446.470 76.360 446.740 C76.440 447.030 76.460 447.330 76.420 447.620 L73.450 447.620 Z"/>
  <path style="fill:rgb(86,83,82);stroke:none;stroke-width:0.75;" d="M79.820 446.740 C79.800 446.520 79.690 446.320 79.520 446.180 C79.340 446.040 79.120 445.980 78.900 445.990 C78.770 445.990 78.650 446.010 78.530 446.040 C78.400 446.090 78.270 446.160 78.180 446.260 C78.050 446.390 77.960 446.540 77.900 446.700 C77.820 446.950 77.790 447.200 77.800 447.450 C77.800 447.620 77.820 447.790 77.860 447.950 C77.900 448.110 77.960 448.260 78.050 448.400 C78.130 448.520 78.250 448.630 78.380 448.710 C78.530 448.800 78.700 448.840 78.870 448.830 C79.110 448.840 79.340 448.750 79.520 448.590 C79.700 448.410 79.810 448.170 79.830 447.910 L80.720 447.910 C80.670 448.370 80.460 448.800 80.130 449.120 C79.780 449.400 79.340 449.550 78.900 449.530 C78.620 449.530 78.340 449.480 78.080 449.370 C77.820 449.280 77.580 449.130 77.390 448.940 C77.220 448.740 77.090 448.520 77.010 448.280 C76.930 448.010 76.880 447.730 76.890 447.460 C76.880 447.170 76.930 446.880 77.010 446.610 C77.090 446.350 77.220 446.120 77.390 445.910 C77.560 445.720 77.770 445.560 78.010 445.450 C78.290 445.330 78.580 445.270 78.880 445.270 C79.110 445.270 79.340 445.300 79.550 445.360 C79.760 445.410 79.950 445.510 80.120 445.630 C80.280 445.750 80.420 445.900 80.530 446.080 C80.640 446.280 80.700 446.500 80.710 446.730 L79.820 446.730 Z"/>
  <path style="fill:rgb(86,83,82);stroke:none;stroke-width:0.75;" d="M81.450 443.860 L82.340 443.860 L82.340 447.020 L83.950 445.380 L85.040 445.380 L83.500 446.860 L85.190 449.420 L84.100 449.420 L82.870 447.470 L82.340 447.980 L82.340 449.420 L81.450 449.420 Z"/>
  <path style="fill:rgb(86,83,82);stroke:none;stroke-width:0.75;" d="M87.390 445.400 L88.060 445.400 L88.060 445.060 C88.050 444.850 88.080 444.640 88.140 444.450 C88.190 444.310 88.280 444.180 88.390 444.080 C88.490 444.000 88.610 443.940 88.740 443.910 C88.880 443.880 89.020 443.870 89.150 443.870 C89.360 443.860 89.570 443.880 89.780 443.920 L89.780 444.620 C89.720 444.600 89.660 444.590 89.590 444.580 C89.520 444.570 89.440 444.570 89.360 444.580 C89.250 444.580 89.150 444.610 89.060 444.670 C88.960 444.750 88.910 444.880 88.930 445.000 L88.930 445.410 L89.700 445.410 L89.700 446.080 L88.950 446.080 L88.950 449.450 L88.060 449.450 L88.060 446.060 L87.390 446.060 L87.390 445.400 Z"/>
  <path style="fill:rgb(86,83,82);stroke:none;stroke-width:0.75;" d="M92.080 448.830 C92.260 448.840 92.440 448.800 92.600 448.710 C92.740 448.630 92.860 448.520 92.950 448.380 C93.050 448.240 93.120 448.090 93.160 447.930 C93.250 447.590 93.250 447.230 93.160 446.890 C93.120 446.730 93.050 446.580 92.950 446.440 C92.860 446.300 92.740 446.190 92.600 446.110 C92.270 445.950 91.890 445.950 91.570 446.110 C91.430 446.190 91.300 446.300 91.210 446.440 C91.110 446.580 91.040 446.730 91.000 446.890 C90.920 447.230 90.920 447.590 91.000 447.930 C91.050 448.090 91.110 448.240 91.210 448.380 C91.300 448.520 91.430 448.630 91.570 448.710 C91.730 448.800 91.900 448.840 92.080 448.830 M92.080 449.530 C91.790 449.540 91.500 449.490 91.220 449.380 C90.980 449.280 90.760 449.130 90.580 448.940 C90.400 448.740 90.260 448.520 90.170 448.270 C89.990 447.710 89.990 447.120 90.170 446.560 C90.260 446.310 90.400 446.080 90.580 445.890 C90.760 445.700 90.980 445.550 91.220 445.450 C91.780 445.240 92.390 445.240 92.950 445.450 C93.190 445.550 93.410 445.700 93.590 445.890 C93.770 446.080 93.910 446.310 94.000 446.560 C94.180 447.120 94.180 447.710 94.000 448.270 C93.910 448.520 93.770 448.740 93.590 448.940 C93.400 449.130 93.190 449.270 92.950 449.370 C92.670 449.480 92.380 449.540 92.080 449.530 "/>
  <path style="fill:rgb(86,83,82);stroke:none;stroke-width:0.75;" d="M94.860 445.400 L95.680 445.400 L95.680 446.170 C95.710 446.060 95.760 445.950 95.840 445.860 C95.910 445.750 96.010 445.650 96.110 445.570 C96.220 445.490 96.340 445.420 96.470 445.370 C96.600 445.310 96.740 445.290 96.880 445.290 L97.090 445.290 L97.210 445.290 L97.210 446.150 L97.020 446.120 L96.820 446.120 C96.680 446.120 96.540 446.150 96.410 446.210 C96.280 446.270 96.160 446.360 96.060 446.480 C95.970 446.610 95.900 446.750 95.850 446.910 C95.800 447.100 95.770 447.300 95.770 447.500 L95.770 449.420 L94.880 449.420 L94.880 445.400 Z"/>
  <path style="fill:rgb(86,83,82);stroke:none;stroke-width:0.75;" d="M103.310 449.420 L102.420 449.420 L102.420 448.860 C102.310 449.070 102.140 449.240 101.930 449.350 C101.730 449.470 101.500 449.530 101.270 449.530 C100.850 449.570 100.430 449.420 100.120 449.130 C99.860 448.790 99.730 448.360 99.760 447.940 L99.760 445.400 L100.660 445.400 L100.660 447.860 C100.630 448.120 100.700 448.390 100.860 448.600 C101.010 448.760 101.210 448.830 101.430 448.820 C101.590 448.830 101.750 448.800 101.890 448.740 C102.010 448.680 102.120 448.610 102.200 448.510 C102.280 448.400 102.340 448.280 102.370 448.160 C102.400 448.020 102.420 447.870 102.420 447.730 L102.420 445.390 L103.310 445.390 L103.310 449.420 Z"/>
  <path style="fill:rgb(86,83,82);stroke:none;stroke-width:0.75;" d="M107.370 447.410 C107.370 447.240 107.350 447.060 107.300 446.890 C107.260 446.720 107.190 446.570 107.090 446.430 C107.000 446.300 106.880 446.190 106.740 446.110 C106.590 446.030 106.430 445.990 106.260 445.990 C105.930 445.970 105.610 446.120 105.410 446.380 C105.210 446.690 105.110 447.050 105.130 447.420 C105.130 447.610 105.150 447.800 105.200 447.990 C105.250 448.150 105.320 448.300 105.420 448.430 C105.520 448.550 105.640 448.660 105.780 448.730 C105.930 448.800 106.090 448.840 106.260 448.840 C106.430 448.840 106.610 448.800 106.770 448.710 C106.910 448.630 107.030 448.520 107.120 448.390 C107.210 448.250 107.280 448.100 107.310 447.940 C107.350 447.770 107.370 447.590 107.370 447.410 M104.270 445.400 L105.110 445.400 L105.110 445.940 C105.220 445.720 105.410 445.540 105.630 445.440 C105.860 445.330 106.110 445.280 106.360 445.290 C106.640 445.280 106.920 445.340 107.180 445.450 C107.410 445.560 107.610 445.720 107.770 445.910 C107.930 446.120 108.040 446.350 108.110 446.590 C108.190 446.860 108.230 447.140 108.230 447.410 C108.230 447.680 108.200 447.950 108.130 448.200 C108.060 448.440 107.950 448.670 107.810 448.870 C107.510 449.290 107.030 449.540 106.520 449.540 C106.390 449.540 106.250 449.530 106.110 449.500 C105.980 449.480 105.860 449.440 105.740 449.390 C105.620 449.340 105.510 449.270 105.410 449.190 C105.310 449.110 105.220 449.020 105.150 448.910 L105.150 450.920 L104.260 450.920 L104.260 445.400 Z"/>
  <path style="fill:rgb(86,83,82);stroke:none;stroke-width:0.75;" d="M109.700 447.450 C109.700 447.620 109.720 447.790 109.770 447.960 C109.810 448.120 109.880 448.270 109.970 448.400 C110.060 448.530 110.180 448.640 110.320 448.710 C110.640 448.880 111.010 448.880 111.330 448.710 C111.470 448.630 111.590 448.520 111.680 448.390 C111.770 448.250 111.840 448.090 111.880 447.930 C111.920 447.760 111.940 447.590 111.940 447.410 C111.970 447.040 111.860 446.670 111.640 446.370 C111.450 446.120 111.140 445.980 110.820 445.990 C110.640 445.990 110.460 446.030 110.300 446.120 C110.160 446.210 110.040 446.320 109.940 446.460 C109.850 446.600 109.790 446.760 109.750 446.930 C109.720 447.100 109.700 447.280 109.700 447.450 M112.810 449.420 L111.960 449.420 L111.960 448.880 C111.850 449.100 111.670 449.270 111.450 449.370 C111.220 449.470 110.970 449.520 110.720 449.520 C110.440 449.530 110.160 449.470 109.900 449.360 C109.670 449.250 109.470 449.090 109.310 448.900 C109.150 448.700 109.030 448.470 108.960 448.220 C108.880 447.940 108.840 447.660 108.850 447.370 C108.840 447.050 108.890 446.730 108.990 446.430 C109.080 446.180 109.220 445.960 109.400 445.770 C109.560 445.610 109.750 445.480 109.970 445.400 C110.170 445.320 110.390 445.280 110.610 445.280 C110.740 445.280 110.870 445.290 110.990 445.310 C111.120 445.330 111.250 445.370 111.360 445.420 C111.480 445.480 111.600 445.540 111.700 445.620 C111.800 445.700 111.880 445.800 111.950 445.900 L111.950 443.850 L112.840 443.850 L112.840 449.420 Z"/>
  <path style="fill:rgb(86,83,82);stroke:none;stroke-width:0.75;" d="M116.260 447.400 C116.110 447.500 115.940 447.550 115.760 447.560 C115.560 447.580 115.360 447.610 115.170 447.640 C115.070 447.660 114.980 447.680 114.890 447.710 C114.810 447.740 114.730 447.780 114.660 447.830 C114.590 447.880 114.530 447.950 114.500 448.020 C114.460 448.110 114.440 448.210 114.440 448.310 C114.440 448.400 114.470 448.490 114.530 448.560 C114.580 448.630 114.650 448.680 114.730 448.720 C114.820 448.760 114.910 448.790 115.000 448.800 C115.090 448.820 115.170 448.830 115.260 448.830 C115.370 448.830 115.480 448.820 115.580 448.790 C115.700 448.770 115.810 448.720 115.910 448.660 C116.010 448.600 116.090 448.520 116.160 448.420 C116.230 448.320 116.270 448.190 116.260 448.070 L116.260 447.410 ZM117.150 448.530 C117.140 448.610 117.160 448.690 117.190 448.760 C117.230 448.810 117.290 448.840 117.360 448.830 L117.450 448.830 C117.490 448.830 117.530 448.830 117.570 448.830 L117.570 449.450 L117.460 449.480 L117.310 449.510 L117.150 449.540 L117.020 449.540 C116.860 449.550 116.700 449.510 116.570 449.430 C116.440 449.340 116.350 449.200 116.330 449.050 C116.150 449.220 115.920 449.350 115.680 449.420 C115.440 449.500 115.190 449.540 114.940 449.540 C114.760 449.540 114.590 449.520 114.420 449.470 C114.260 449.420 114.110 449.350 113.980 449.250 C113.850 449.150 113.750 449.030 113.670 448.880 C113.600 448.720 113.560 448.550 113.560 448.370 C113.550 448.160 113.600 447.950 113.690 447.760 C113.780 447.610 113.900 447.480 114.050 447.390 C114.210 447.300 114.380 447.240 114.550 447.210 C114.740 447.170 114.920 447.140 115.110 447.110 C115.260 447.090 115.420 447.060 115.570 447.050 C115.700 447.040 115.830 447.020 115.950 446.980 C116.050 446.960 116.150 446.910 116.220 446.840 C116.290 446.760 116.330 446.660 116.320 446.550 C116.320 446.450 116.290 446.350 116.240 446.270 C116.190 446.200 116.120 446.140 116.040 446.100 C115.950 446.060 115.860 446.040 115.770 446.020 C115.670 446.020 115.580 446.020 115.490 446.020 C115.270 446.020 115.060 446.070 114.870 446.180 C114.710 446.290 114.600 446.470 114.600 446.660 L113.700 446.660 C113.710 446.440 113.770 446.210 113.890 446.020 C114.000 445.850 114.140 445.710 114.300 445.610 C114.480 445.500 114.670 445.420 114.880 445.390 C115.100 445.330 115.320 445.290 115.550 445.270 C115.750 445.270 115.940 445.290 116.140 445.330 C116.320 445.370 116.490 445.440 116.650 445.530 C116.800 445.620 116.930 445.750 117.020 445.890 C117.120 446.060 117.170 446.240 117.160 446.430 L117.160 448.510 Z"/>
  <path style="fill:rgb(86,83,82);stroke:none;stroke-width:0.75;" d="M117.700 445.400 L118.370 445.400 L118.370 444.190 L119.240 444.190 L119.240 445.400 L120.060 445.400 L120.060 446.060 L119.240 446.060 L119.240 448.210 C119.240 448.290 119.240 448.370 119.240 448.450 C119.250 448.510 119.270 448.570 119.300 448.630 C119.330 448.670 119.370 448.710 119.420 448.730 C119.500 448.760 119.580 448.770 119.660 448.770 L119.850 448.770 C119.910 448.770 119.970 448.760 120.030 448.740 L120.030 449.420 L119.750 449.460 C119.650 449.460 119.560 449.460 119.460 449.460 C119.270 449.460 119.080 449.440 118.890 449.390 C118.770 449.360 118.650 449.290 118.560 449.200 C118.470 449.100 118.420 448.990 118.390 448.870 C118.360 448.730 118.350 448.580 118.340 448.430 L118.340 446.060 L117.670 446.060 L117.670 445.400 Z"/>
  <path style="fill:rgb(86,83,82);stroke:none;stroke-width:0.75;" d="M123.470 447.060 C123.460 446.920 123.430 446.780 123.380 446.650 C123.330 446.520 123.260 446.410 123.180 446.310 C123.090 446.210 122.980 446.130 122.860 446.070 C122.740 446.010 122.600 445.980 122.450 445.980 C122.310 445.980 122.170 446.010 122.040 446.060 C121.920 446.120 121.810 446.190 121.720 446.290 C121.620 446.390 121.550 446.510 121.500 446.630 C121.440 446.760 121.410 446.900 121.410 447.040 L123.480 447.040 ZM121.400 447.640 C121.400 447.790 121.420 447.940 121.460 448.090 C121.500 448.230 121.570 448.360 121.660 448.470 C121.750 448.580 121.860 448.670 121.990 448.740 C122.150 448.800 122.310 448.840 122.480 448.830 C122.700 448.840 122.920 448.790 123.110 448.670 C123.270 448.540 123.400 448.360 123.460 448.160 L124.300 448.160 C124.220 448.570 123.980 448.930 123.640 449.180 C123.480 449.300 123.300 449.390 123.100 449.450 C122.900 449.510 122.690 449.540 122.470 449.540 C122.190 449.540 121.900 449.490 121.630 449.380 C121.400 449.290 121.190 449.140 121.020 448.960 C120.850 448.770 120.720 448.540 120.640 448.290 C120.550 448.020 120.510 447.730 120.510 447.430 C120.510 447.160 120.550 446.880 120.640 446.610 C120.740 446.360 120.880 446.140 121.060 445.940 C121.400 445.520 121.910 445.270 122.450 445.270 C122.750 445.260 123.040 445.330 123.310 445.470 C123.550 445.590 123.770 445.770 123.940 445.990 C124.100 446.220 124.230 446.470 124.300 446.740 C124.370 447.030 124.390 447.330 124.350 447.620 L121.390 447.620 Z"/>
  <path style="fill:rgb(86,83,82);stroke:none;stroke-width:0.75;" d="M125.710 448.140 C125.710 448.360 125.820 448.560 126.000 448.690 C126.190 448.800 126.400 448.850 126.620 448.840 C126.710 448.850 126.810 448.850 126.900 448.840 C127.000 448.830 127.110 448.810 127.200 448.770 C127.290 448.740 127.370 448.680 127.430 448.610 C127.490 448.530 127.520 448.430 127.510 448.330 C127.510 448.230 127.470 448.130 127.390 448.060 C127.300 447.980 127.200 447.920 127.090 447.880 C126.960 447.830 126.820 447.790 126.680 447.760 L126.220 447.630 C126.060 447.600 125.890 447.550 125.740 447.500 C125.590 447.450 125.450 447.380 125.330 447.290 C125.200 447.200 125.100 447.090 125.040 446.950 C124.960 446.790 124.920 446.620 124.920 446.440 C124.920 446.250 124.970 446.050 125.080 445.890 C125.190 445.750 125.330 445.620 125.500 445.540 C125.670 445.440 125.850 445.380 126.040 445.350 C126.230 445.310 126.420 445.290 126.610 445.290 C126.810 445.290 127.010 445.320 127.210 445.360 C127.390 445.400 127.560 445.470 127.720 445.570 C127.880 445.670 128.010 445.800 128.100 445.960 C128.210 446.130 128.280 446.330 128.300 446.530 L127.370 446.530 C127.340 446.360 127.240 446.200 127.080 446.120 C126.910 446.050 126.730 446.010 126.550 446.010 C126.480 446.010 126.400 446.010 126.330 446.010 C126.250 446.020 126.170 446.040 126.090 446.070 C126.020 446.100 125.950 446.140 125.900 446.190 C125.840 446.250 125.820 446.330 125.820 446.410 C125.820 446.510 125.860 446.600 125.930 446.670 C126.020 446.750 126.120 446.800 126.230 446.840 C126.360 446.890 126.500 446.930 126.640 446.960 L127.120 447.060 C127.280 447.090 127.440 447.140 127.600 447.190 C127.750 447.240 127.880 447.310 128.010 447.400 C128.270 447.590 128.430 447.890 128.420 448.220 C128.430 448.430 128.370 448.640 128.260 448.830 C128.150 448.990 128.010 449.130 127.850 449.240 C127.670 449.340 127.470 449.420 127.260 449.460 C127.060 449.510 126.840 449.530 126.630 449.530 C126.390 449.530 126.160 449.510 125.930 449.450 C125.720 449.400 125.530 449.310 125.360 449.180 C125.210 449.070 125.080 448.920 124.990 448.750 C124.890 448.560 124.850 448.340 124.850 448.130 L125.740 448.130 Z"/>
  <path style="fill:rgb(195,25,20);stroke:none;stroke-width:0.75;" d="M47.520 450.320 L53.100 446.600 L53.100 442.140 L47.520 442.140 Z"/>
  <path style="fill:rgb(230,23,49);stroke:none;stroke-width:0.75;" d="M53.100 450.320 L47.520 446.600 L47.520 442.140 L53.100 442.140 Z"/>
  <path style="fill:rgb(51,175,204);stroke:none;stroke-width:0.75;" d="M50.310 451.970 C47.740 451.970 45.660 449.890 45.660 447.320 C45.660 444.750 47.740 442.670 50.310 442.670 C52.880 442.670 54.960 444.750 54.960 447.320 C54.960 449.890 52.880 451.970 50.310 451.970 M50.310 441.170 C46.910 441.170 44.160 443.920 44.160 447.320 C44.160 450.720 46.910 453.470 50.310 453.470 C53.710 453.470 56.470 450.720 56.470 447.320 C56.470 443.920 53.710 441.170 50.310 441.170 "/>
  <path style="fill:rgb(255,200,0);stroke:none;stroke-width:0.75;" d="M53.720 450.470 C51.990 452.360 49.050 452.480 47.170 450.750 C45.740 449.440 45.280 447.390 46.000 445.590 L44.710 444.770 C43.320 447.870 44.700 451.520 47.800 452.910 C50.300 454.040 53.240 453.370 55.010 451.280 Z"/>
  <path style="fill:rgb(42,110,187);stroke:none;stroke-width:0.75;" d="M43.960 57.100 C44.170 57.100 44.390 57.090 44.610 57.050 C44.840 57.020 45.050 56.970 45.240 56.900 C45.750 56.710 46.140 56.410 46.390 56.010 C46.640 55.600 46.770 55.180 46.770 54.730 C46.770 54.200 46.630 53.760 46.360 53.410 C46.080 53.060 45.720 52.800 45.260 52.640 C45.580 52.450 45.830 52.210 46.020 51.940 C46.200 51.660 46.290 51.330 46.290 50.950 C46.290 50.600 46.220 50.280 46.080 50.000 C45.940 49.710 45.750 49.470 45.500 49.280 C45.260 49.080 44.970 48.930 44.630 48.830 C44.280 48.730 43.910 48.680 43.510 48.680 L40.500 48.680 L40.500 57.100 ZM42.180 50.120 L42.880 50.120 C42.940 50.120 43.020 50.120 43.110 50.120 L43.370 50.140 C43.460 50.140 43.540 50.150 43.610 50.160 C43.690 50.170 43.740 50.180 43.790 50.190 C44.050 50.280 44.240 50.410 44.370 50.580 C44.500 50.750 44.570 50.940 44.570 51.140 C44.570 51.310 44.520 51.470 44.420 51.630 C44.330 51.780 44.170 51.910 43.950 52.010 C43.870 52.050 43.750 52.080 43.570 52.100 C43.390 52.120 43.210 52.130 43.010 52.130 L42.180 52.130 ZM42.180 53.500 L43.370 53.500 C43.580 53.500 43.770 53.520 43.940 53.550 C44.120 53.580 44.270 53.630 44.400 53.690 C44.620 53.800 44.770 53.950 44.880 54.120 C44.980 54.300 45.040 54.480 45.040 54.670 C45.040 54.830 44.990 54.980 44.910 55.130 C44.830 55.270 44.690 55.400 44.510 55.500 C44.400 55.560 44.260 55.600 44.090 55.630 C43.920 55.650 43.690 55.660 43.390 55.660 L42.180 55.660 ZM49.740 57.100 L49.740 52.340 L51.970 57.160 L52.580 57.160 L54.620 52.390 L54.620 57.100 L56.300 57.100 L56.300 48.680 L54.540 48.680 L52.290 54.290 L49.800 48.680 L48.060 48.680 L48.060 57.100 ZM57.040 58.910 C57.500 58.840 57.910 58.730 58.270 58.600 C58.640 58.460 58.960 58.290 59.220 58.070 C59.490 57.860 59.690 57.600 59.830 57.300 C59.980 57.000 60.050 56.650 60.050 56.260 L60.050 48.680 L58.340 48.680 L58.340 55.980 C58.340 56.370 58.220 56.680 57.980 56.930 C57.730 57.170 57.320 57.350 56.730 57.470 ZM68.000 57.280 C68.650 57.280 69.230 57.150 69.720 56.900 C70.200 56.640 70.610 56.300 70.940 55.890 C71.270 55.480 71.510 55.010 71.670 54.480 C71.830 53.960 71.910 53.420 71.910 52.880 C71.910 52.350 71.830 51.810 71.670 51.290 C71.510 50.760 71.270 50.290 70.940 49.880 C70.610 49.460 70.200 49.130 69.720 48.880 C69.230 48.630 68.650 48.500 68.000 48.500 C67.350 48.500 66.780 48.630 66.290 48.880 C65.800 49.130 65.400 49.460 65.080 49.880 C64.760 50.290 64.520 50.760 64.360 51.290 C64.200 51.810 64.120 52.350 64.120 52.880 C64.120 53.420 64.200 53.960 64.360 54.480 C64.520 55.010 64.760 55.480 65.080 55.890 C65.400 56.300 65.800 56.640 66.290 56.900 C66.780 57.160 67.350 57.280 68.000 57.280 M65.980 53.960 C65.880 53.620 65.840 53.250 65.840 52.880 C65.840 52.510 65.880 52.150 65.980 51.800 C66.070 51.460 66.210 51.140 66.390 50.880 C66.580 50.610 66.800 50.390 67.070 50.230 C67.330 50.070 67.640 49.990 68.000 49.990 C68.350 49.990 68.660 50.070 68.940 50.230 C69.210 50.390 69.440 50.610 69.630 50.880 C69.810 51.140 69.950 51.460 70.040 51.800 C70.140 52.150 70.180 52.510 70.180 52.880 C70.180 53.250 70.140 53.620 70.040 53.960 C69.950 54.310 69.810 54.620 69.630 54.890 C69.440 55.160 69.210 55.380 68.940 55.540 C68.660 55.700 68.350 55.780 68.000 55.780 C67.640 55.780 67.330 55.700 67.070 55.540 C66.800 55.380 66.580 55.160 66.390 54.890 C66.210 54.620 66.070 54.310 65.980 53.960 M74.960 59.490 L74.960 57.070 C75.240 57.180 75.520 57.240 75.810 57.240 C76.360 57.240 76.840 57.150 77.250 56.970 C77.660 56.780 78.000 56.540 78.260 56.240 C78.530 55.940 78.730 55.600 78.850 55.220 C78.980 54.830 79.040 54.440 79.040 54.050 C79.040 53.630 78.980 53.230 78.870 52.850 C78.760 52.460 78.590 52.120 78.370 51.830 C78.150 51.540 77.880 51.300 77.540 51.130 C77.210 50.950 76.830 50.860 76.390 50.860 C76.040 50.860 75.740 50.930 75.490 51.060 C75.240 51.190 75.040 51.330 74.880 51.470 L74.810 51.010 L73.300 51.010 L73.300 59.490 ZM74.950 52.760 C75.050 52.620 75.200 52.480 75.400 52.360 C75.600 52.240 75.820 52.180 76.050 52.180 C76.280 52.180 76.490 52.230 76.660 52.340 C76.830 52.450 76.980 52.590 77.090 52.770 C77.200 52.950 77.290 53.150 77.350 53.380 C77.410 53.600 77.440 53.840 77.440 54.070 C77.440 54.300 77.400 54.520 77.340 54.740 C77.270 54.950 77.160 55.140 77.020 55.320 C76.880 55.490 76.700 55.630 76.480 55.730 C76.270 55.830 76.010 55.880 75.720 55.880 C75.470 55.880 75.210 55.820 74.950 55.700 ZM85.740 54.450 C85.720 53.250 85.460 52.350 84.940 51.750 C84.420 51.160 83.730 50.860 82.880 50.860 C82.480 50.860 82.100 50.930 81.740 51.080 C81.380 51.220 81.070 51.430 80.800 51.700 C80.530 51.970 80.320 52.300 80.160 52.690 C80.000 53.090 79.930 53.550 79.930 54.060 C79.930 54.610 80.010 55.080 80.170 55.470 C80.330 55.870 80.540 56.200 80.820 56.470 C81.090 56.730 81.410 56.930 81.770 57.050 C82.130 57.180 82.520 57.240 82.920 57.240 C83.540 57.240 84.070 57.140 84.530 56.920 C84.980 56.710 85.380 56.330 85.730 55.800 L84.500 55.060 C84.250 55.410 84.000 55.640 83.770 55.750 C83.530 55.850 83.270 55.900 82.970 55.900 C82.630 55.900 82.330 55.790 82.060 55.560 C81.780 55.340 81.620 54.960 81.580 54.450 ZM81.620 53.330 C81.640 53.140 81.700 52.970 81.780 52.820 C81.860 52.670 81.960 52.540 82.070 52.440 C82.190 52.330 82.320 52.250 82.460 52.200 C82.600 52.140 82.740 52.110 82.880 52.110 C83.150 52.110 83.410 52.210 83.650 52.420 C83.890 52.620 84.030 52.920 84.060 53.330 ZM88.600 57.100 L88.600 52.780 C88.760 52.630 88.940 52.490 89.160 52.370 C89.380 52.240 89.620 52.180 89.870 52.180 C90.230 52.180 90.520 52.300 90.720 52.560 C90.920 52.810 91.020 53.170 91.020 53.630 L91.020 57.100 L92.680 57.100 L92.680 53.500 C92.680 53.030 92.620 52.630 92.510 52.290 C92.390 51.950 92.230 51.680 92.030 51.470 C91.830 51.260 91.590 51.110 91.310 51.010 C91.020 50.910 90.710 50.860 90.380 50.860 C90.050 50.860 89.720 50.920 89.390 51.030 C89.060 51.140 88.770 51.290 88.520 51.490 L88.440 51.010 L86.940 51.010 L86.940 57.100 ZM103.190 57.570 C102.750 57.570 102.400 57.540 102.130 57.480 C101.860 57.410 101.680 57.290 101.590 57.120 C102.040 56.980 102.440 56.770 102.790 56.480 C103.130 56.190 103.420 55.850 103.650 55.470 C103.880 55.080 104.060 54.670 104.180 54.230 C104.290 53.790 104.350 53.340 104.350 52.880 C104.350 52.350 104.270 51.810 104.110 51.290 C103.950 50.760 103.710 50.290 103.380 49.880 C103.050 49.460 102.640 49.130 102.150 48.880 C101.660 48.630 101.090 48.500 100.440 48.500 C99.790 48.500 99.220 48.630 98.730 48.880 C98.240 49.130 97.840 49.460 97.520 49.880 C97.200 50.290 96.960 50.760 96.800 51.290 C96.640 51.810 96.560 52.350 96.560 52.880 C96.560 53.360 96.620 53.820 96.740 54.280 C96.860 54.740 97.040 55.160 97.280 55.550 C97.520 55.940 97.830 56.270 98.190 56.550 C98.560 56.840 98.990 57.040 99.480 57.160 C99.680 57.700 100.050 58.130 100.600 58.430 C101.150 58.720 101.940 58.890 102.990 58.920 ZM98.410 53.960 C98.320 53.620 98.280 53.250 98.280 52.880 C98.280 52.510 98.320 52.150 98.410 51.800 C98.510 51.460 98.650 51.140 98.830 50.880 C99.020 50.610 99.240 50.390 99.510 50.230 C99.770 50.070 100.080 49.990 100.440 49.990 C100.790 49.990 101.100 50.070 101.380 50.230 C101.650 50.390 101.880 50.610 102.070 50.880 C102.250 51.140 102.390 51.460 102.480 51.800 C102.570 52.150 102.620 52.510 102.620 52.880 C102.620 53.250 102.570 53.620 102.480 53.960 C102.390 54.310 102.250 54.620 102.070 54.890 C101.880 55.160 101.650 55.380 101.380 55.540 C101.100 55.700 100.790 55.780 100.440 55.780 C100.080 55.780 99.770 55.700 99.510 55.540 C99.240 55.380 99.020 55.160 98.830 54.890 C98.650 54.620 98.510 54.310 98.410 53.960 M111.420 57.100 L111.420 51.010 L109.760 51.010 L109.760 55.360 C109.630 55.470 109.450 55.590 109.230 55.710 C109.010 55.830 108.740 55.890 108.420 55.890 C108.030 55.890 107.760 55.760 107.600 55.500 C107.440 55.240 107.360 54.900 107.360 54.480 L107.360 51.010 L105.700 51.010 L105.700 54.640 C105.700 55.510 105.900 56.160 106.300 56.590 C106.690 57.020 107.260 57.230 108.000 57.230 C108.310 57.230 108.610 57.190 108.930 57.100 C109.240 57.020 109.540 56.860 109.840 56.630 L109.900 57.100 ZM117.950 57.100 L117.950 53.190 C117.950 52.770 117.890 52.420 117.770 52.130 C117.650 51.840 117.490 51.600 117.270 51.410 C117.060 51.220 116.800 51.080 116.510 51.000 C116.210 50.910 115.890 50.860 115.540 50.860 C115.360 50.860 115.170 50.880 114.950 50.910 C114.740 50.940 114.530 50.990 114.320 51.060 C114.100 51.140 113.890 51.250 113.690 51.380 C113.480 51.520 113.290 51.680 113.130 51.890 L114.260 52.670 C114.460 52.460 114.670 52.320 114.890 52.240 C115.110 52.160 115.290 52.130 115.440 52.130 C115.660 52.130 115.860 52.200 116.030 52.350 C116.200 52.500 116.280 52.700 116.280 52.950 L116.280 53.150 C116.110 53.170 115.900 53.190 115.650 53.210 C115.400 53.230 115.170 53.260 114.950 53.300 C114.650 53.350 114.360 53.430 114.090 53.530 C113.820 53.630 113.570 53.760 113.360 53.920 C113.150 54.080 112.980 54.280 112.860 54.510 C112.730 54.740 112.670 55.010 112.670 55.310 C112.670 55.610 112.730 55.890 112.840 56.130 C112.960 56.370 113.120 56.570 113.310 56.730 C113.510 56.900 113.730 57.020 113.990 57.110 C114.240 57.200 114.510 57.240 114.780 57.240 C115.110 57.240 115.410 57.190 115.680 57.090 C115.950 56.980 116.180 56.830 116.360 56.650 L116.430 57.100 ZM116.290 55.500 C116.150 55.630 115.980 55.730 115.780 55.820 C115.580 55.900 115.380 55.940 115.170 55.940 C114.870 55.940 114.650 55.880 114.500 55.760 C114.350 55.640 114.270 55.470 114.270 55.270 C114.270 55.080 114.340 54.900 114.480 54.740 C114.620 54.570 114.870 54.460 115.220 54.390 C115.390 54.350 115.570 54.330 115.760 54.310 C115.950 54.290 116.130 54.270 116.290 54.260 ZM124.410 50.040 C124.580 49.860 124.660 49.650 124.660 49.420 C124.660 49.200 124.580 49.000 124.410 48.820 C124.250 48.630 124.000 48.540 123.670 48.540 C123.350 48.540 123.100 48.630 122.940 48.820 C122.770 49.000 122.690 49.200 122.690 49.420 C122.690 49.650 122.770 49.860 122.940 50.040 C123.100 50.230 123.350 50.320 123.670 50.320 C124.000 50.320 124.250 50.230 124.410 50.040 M128.050 52.280 L129.530 52.280 L129.530 51.010 L128.050 51.010 L128.050 49.430 L126.400 49.430 L126.400 51.010 L125.510 51.010 L125.510 52.280 L126.400 52.280 L126.400 55.630 C126.400 55.920 126.450 56.170 126.550 56.380 C126.650 56.580 126.770 56.750 126.930 56.880 C127.080 57.000 127.260 57.100 127.470 57.160 C127.670 57.210 127.870 57.240 128.080 57.240 C128.430 57.240 128.760 57.190 129.060 57.070 C129.370 56.960 129.660 56.810 129.940 56.630 L129.350 55.500 C129.230 55.590 129.090 55.680 128.930 55.770 C128.770 55.850 128.610 55.890 128.440 55.890 C128.350 55.890 128.270 55.860 128.180 55.780 C128.090 55.710 128.050 55.580 128.050 55.390 ZM130.060 59.300 C130.330 59.420 130.610 59.510 130.870 59.560 C131.140 59.620 131.380 59.640 131.600 59.640 C131.770 59.640 131.940 59.630 132.110 59.590 C132.280 59.560 132.440 59.500 132.600 59.420 C132.750 59.330 132.890 59.220 133.010 59.080 C133.140 58.930 133.250 58.760 133.340 58.540 L136.500 51.010 L134.830 51.010 L133.320 55.170 L131.720 51.010 L129.970 51.010 L132.490 56.850 L132.030 57.900 C131.940 58.080 131.850 58.200 131.750 58.250 C131.650 58.310 131.550 58.340 131.440 58.340 C131.340 58.340 131.200 58.330 131.050 58.290 C130.890 58.260 130.730 58.200 130.570 58.130 Z"/>
  <path style="fill:none;stroke:rgb(23,22,21);stroke-width:0.75;" d="M146.920 602.390 L253.350 602.390 "/>
 </g>
</svg>
