<?xml version="1.0" encoding="UTF-8"?>
<svg height="432.25" width="419.25" xmlns="http://www.w3.org/2000/svg">
 <g>
  <path style="fill:none;stroke:rgb(0,0,0);stroke-width:1.0;" d="M78.000 134.000 L78.000 132.080 L218.100 132.080 L218.100 134.000 L218.100 135.920 L78.000 135.920 M78.000 134.000 L218.100 134.000 "/>
  <path style="fill:none;stroke:rgb(0,0,0);stroke-width:1.0;" d="M218.100 149.000 L218.100 150.920 L78.000 150.920 L78.000 149.000 L78.000 147.080 L218.100 147.080 M218.100 149.000 L78.000 149.000 "/>
  <path style="fill:none;stroke:rgb(0,0,0);stroke-width:1.0;" d="M217.900 134.000 L217.900 132.080 L279.140 132.080 L279.140 134.000 L279.140 135.920 L217.900 135.920 M217.900 134.000 L279.140 134.000 "/>
  <path style="fill:none;stroke:rgb(0,0,0);stroke-width:1.0;" d="M279.140 149.000 L279.140 150.920 L217.900 150.920 L217.900 149.000 L217.900 147.080 L279.140 147.080 M279.140 149.000 L217.900 149.000 "/>
  <path style="fill:none;stroke:rgb(0,0,0);stroke-width:1.0;" d="M278.940 134.000 L278.940 132.080 L344.030 132.080 L344.030 134.000 L344.030 135.920 L278.940 135.920 M278.940 134.000 L344.030 134.000 "/>
  <path style="fill:none;stroke:rgb(0,0,0);stroke-width:1.0;" d="M344.030 149.000 L344.030 150.920 L278.940 150.920 L278.940 149.000 L278.940 147.080 L344.030 147.080 M344.030 149.000 L278.940 149.000 "/>
  <path style="fill:none;stroke:rgb(0,0,0);stroke-width:1.0;" d="M343.830 134.000 L343.830 132.080 L409.250 132.080 L409.250 134.000 L409.250 135.920 L343.830 135.920 M343.830 134.000 L409.250 134.000 "/>
  <path style="fill:none;stroke:rgb(0,0,0);stroke-width:1.0;" d="M409.250 149.000 L409.250 150.920 L343.830 150.920 L343.830 149.000 L343.830 147.080 L409.250 147.080 M409.250 149.000 L343.830 149.000 "/>
  <path style="fill:none;stroke:rgb(0,0,0);stroke-width:1.0;" d="M218.100 420.330 L218.100 422.250 L78.000 422.250 L78.000 420.330 L78.000 418.420 L218.100 418.420 M218.100 420.330 L78.000 420.330 "/>
  <path style="fill:none;stroke:rgb(0,0,0);stroke-width:1.0;" d="M279.140 420.330 L279.140 422.250 L217.900 422.250 L217.900 420.330 L217.900 418.420 L279.140 418.420 M279.140 420.330 L217.900 420.330 "/>
  <path style="fill:none;stroke:rgb(0,0,0);stroke-width:1.0;" d="M344.030 420.330 L344.030 422.250 L278.940 422.250 L278.940 420.330 L278.940 418.420 L344.030 418.420 M344.030 420.330 L278.940 420.330 "/>
  <path style="fill:none;stroke:rgb(0,0,0);stroke-width:1.0;" d="M409.250 420.330 L409.250 422.250 L343.830 422.250 L343.830 420.330 L343.830 418.420 L409.250 418.420 M409.250 420.330 L343.830 420.330 "/>
 </g>
</svg>
