<?xml version="1.0" encoding="UTF-8"?>
<svg height="772.326" width="556.818" xmlns="http://www.w3.org/2000/svg">
 <g id="page" xmlns:svgx="http://www.xml-cml.org/schema/svgx">
  <g begin="text">
   <text y="47.996" x="477.794,481.684,484.184,493.364,500.104,507.184,514.294" svgx:width="0.39,0.25,0.89,0.72,0.72,0.72,0.72" style="fill:rgb(23,22,21);font-family:TimesNewRomanPSMT;font-size:10.0px;stroke:none;">J MYONG</text>
   <text y="47.996" x="521.514,524.014,528.564,531.344,533.844,538.854,541.754" svgx:width="0.25,0.44,0.28,0.25,0.5,0.28,0.25" style="fill:rgb(23,22,21);font-family:TimesNewRomanPS-ItalicMT;font-size:10.0px;stroke:none;"> et al.</text>
   <text y="47.409" x="56.693,62.193,67.693" svgx:width="0.5,0.5,0.5" style="fill:rgb(23,22,21);font-family:TimesNewRomanPSMT;font-size:11.0px;stroke:none;">178</text>
   <text y="762.326" x="401.115,404.684,409.674,414.724,419.874,423.794,426.884,430.504,433.284,437.794,440.574,443.074,450.164,454.694,459.204,461.894,464.854,469.854,472.354,477.334,481.824,486.194,491.214,493.714" svgx:width="0.33,0.5,0.5,0.5,0.39,0.28,0.33,0.28,0.44,0.28,0.25,0.72,0.44,0.44,0.28,0.28,0.5,0.25,0.5,0.5,0.5,0.5,0.25,0.25" style="fill:rgb(23,22,21);font-family:TimesNewRomanPSMT;font-size:10.0px;stroke:none;">Industrial Health 2016, </text>
   <text y="762.326" x="496.214,501.344" svgx:width="0.5,0.5" style="fill:rgb(23,22,21);font-family:TimesNewRomanPS-BoldMT;font-size:10.0px;stroke:none;">54</text>
   <text y="762.326" x="506.305,508.805,511.305,515.565,520.414,525.294,529.995,534.375,539.255" svgx:width="0.25,0.25,0.5,0.5,0.5,0.5,0.5,0.5,0.5" style="fill:rgb(23,22,21);font-family:TimesNewRomanPSMT;font-size:10.0px;stroke:none;">, 177–182</text>
   <text y="83.996" x="56.695,60.815,66.045,71.275,76.505,79.515,84.515,87.015,88.115,93.345,98.575,103.805,108.475,111.855,117.085,122.085,124.585,125.685,129.245,132.255,135.035,137.535,138.635,141.645,146.315,150.435,153.445,157.335,159.835,160.935,164.495,169.725,173.055,175.555,176.655,179.665,184.895,189.335,191.835,192.935,199.835,205.625,211.735,214.235,215.335,218.345,223.575,228.245,233.245,235.745,236.845,242.075,246.195" svgx:width="0.39,0.5,0.5,0.5,0.28,0.5,0.25,0.55,0.5,0.5,0.5,0.44,0.33,0.5,0.5,0.25,0.55,0.33,0.28,0.28,0.25,0.55,0.28,0.44,0.39,0.28,0.39,0.25,0.55,0.33,0.5,0.33,0.25,0.55,0.28,0.5,0.44,0.25,0.55,0.67,0.56,0.61,0.25,0.55,0.28,0.5,0.44,0.5,0.25,0.55,0.5,0.39,0.44" style="fill:rgb(23,22,21);font-family:TimesNewRomanPSMT;font-size:10.0px;stroke:none;">should undergo fit tests for the RPE they use</text>
   <text y="79.707" x="250.912,254.573,258.234,261.895" svgx:width="0.5,0.5,0.5,0.33" style="fill:rgb(23,22,21);font-family:TimesNewRomanPSMT;font-size:7.0px;stroke:none;">5–7)</text>
   <text y="84.0" x="264.393,266.893,269.393,270.493,273.503,278.733,283.403,287.523,291.963" svgx:width="0.25,0.25,0.55,0.28,0.5,0.44,0.39,0.44,0.25" style="fill:rgb(23,22,21);font-family:TimesNewRomanPSMT;font-size:10.0px;stroke:none;">, these </text>
   <text y="97.5" x="56.693,59.473,63.913,67.803,70.583,74.473,76.973,81.973,86.413,91.413,95.853,98.353,103.353,108.353,111.133,113.633,118.633,123.073,127.513,132.513,135.013,140.013,143.903,148.343,153.343,155.843,158.623,163.623,166.123,173.343,178.343,181.673,186.113,190.553" svgx:width="0.28,0.44,0.39,0.28,0.39,0.25,0.5,0.44,0.5,0.44,0.25,0.5,0.5,0.28,0.25,0.5,0.44,0.44,0.5,0.25,0.5,0.39,0.44,0.5,0.25,0.28,0.5,0.25,0.72,0.5,0.33,0.44,0.44,0.25" style="fill:rgb(23,22,21);font-family:TimesNewRomanPSMT;font-size:10.0px;stroke:none;">tests have not been used in Korea.</text>
   <text y="111.0" x="66.613,73.263,76.583,82.123,86.573,89.073,90.183,97.943,105.153,115.133,119.563,122.073,124.573,125.683,134.003,138.983,144.523,147.843,152.823,157.803,160.593,163.093,164.203,168.633,171.953,177.493,183.033,188.013,193.553,196.863,200.763,203.263,204.373,209.353,213.223,217.673,220.173,221.283,226.263,229.053,231.553,232.663,236.533,239.843,244.273,249.283,251.783,252.893,256.763,262.303,265.643,268.143,269.253,278.683,285.323,291.993" svgx:width="0.61,0.28,0.5,0.44,0.25,0.55,0.72,0.67,0.94,0.39,0.25,0.25,0.55,0.78,0.44,0.5,0.28,0.44,0.44,0.28,0.25,0.55,0.39,0.28,0.5,0.5,0.44,0.5,0.28,0.39,0.25,0.55,0.44,0.33,0.44,0.25,0.55,0.44,0.28,0.25,0.55,0.33,0.28,0.39,0.5,0.25,0.55,0.33,0.5,0.33,0.25,0.55,0.89,0.61,0.67,0.25" style="fill:rgb(23,22,21);font-family:TimesNewRomanPSMT;font-size:10.0px;stroke:none;">Like HCWs, medical students are at risk for MTB </text>
   <text y="124.5" x="56.693,59.863,65.253,68.973,73.803,78.633,81.803,84.973,90.363,95.363,97.863,98.963,106.573,111.963,115.133,118.303,122.743,125.243,126.343,129.513,134.903,139.733,144.733,147.233,148.333,153.163,156.883,161.323,163.823,164.923,168.093,172.923,178.313,181.483,186.873,191.873,194.373,195.473,200.303,203.473,206.643,212.033,215.203,220.033,224.863,227.643,230.143,231.243,236.073,241.463,246.853,250.573,254.853,259.683,263.573,266.073,267.173,270.343,275.343,277.843,278.943,282.113,287.503,291.943" svgx:width="0.28,0.5,0.33,0.44,0.44,0.28,0.28,0.5,0.5,0.25,0.55,0.72,0.5,0.28,0.28,0.44,0.25,0.55,0.28,0.5,0.44,0.5,0.25,0.55,0.44,0.33,0.44,0.25,0.55,0.28,0.44,0.5,0.28,0.5,0.5,0.25,0.55,0.44,0.28,0.28,0.5,0.28,0.44,0.44,0.28,0.25,0.55,0.44,0.5,0.5,0.33,0.39,0.44,0.39,0.25,0.55,0.28,0.5,0.25,0.55,0.28,0.5,0.44,0.25" style="fill:rgb(23,22,21);font-family:TimesNewRomanPSMT;font-size:10.0px;stroke:none;">infection while they are taking clinical courses in the </text>
   <text y="138.0" x="56.693,62.013,67.333,71.543,76.863,79.963,83.063,87.823" svgx:width="0.5,0.5,0.39,0.5,0.28,0.28,0.44,0.28" style="fill:rgb(23,22,21);font-family:TimesNewRomanPSMT;font-size:10.0px;stroke:none;">hospital</text>
   <text y="133.707" x="90.913,94.637" svgx:width="0.5,0.33" style="fill:rgb(23,22,21);font-family:TimesNewRomanPSMT;font-size:7.0px;stroke:none;">8)</text>
   <text y="138.0" x="97.191,99.691,102.191,103.291,106.941,111.941,114.441,115.541,123.081,128.401,132.051,136.811,141.571,144.071,146.571,147.671,151.881,156.641,161.961,165.061,170.381,173.711,176.211,177.311,185.411,190.171,195.491,198.591,203.351,208.111,210.891,213.391,214.491,218.701,221.801,227.121,232.441,237.201,242.521,245.621,249.511,252.011,253.111,257.871,263.191,271.291,276.611,279.711,284.471,287.571,292.011" svgx:width="0.25,0.25,0.55,0.33,0.5,0.25,0.55,0.72,0.5,0.33,0.44,0.44,0.25,0.25,0.55,0.39,0.44,0.5,0.28,0.5,0.33,0.25,0.55,0.78,0.44,0.5,0.28,0.44,0.44,0.28,0.25,0.55,0.39,0.28,0.5,0.5,0.44,0.5,0.28,0.39,0.25,0.55,0.44,0.5,0.78,0.5,0.28,0.44,0.28,0.44,0.25" style="fill:rgb(23,22,21);font-family:TimesNewRomanPSMT;font-size:10.0px;stroke:none;">. In Korea, senior medical students complete </text>
   <text y="151.5" x="56.691,61.131,63.911,66.691,71.691,74.471,78.911,83.351,86.131,88.631,89.421,92.201,95.531,99.971,102.751,107.751,110.531,115.531,120.531,123.031,123.831,128.271,133.271,138.271,141.601,145.491,149.931,153.821,156.321,157.131,162.131,167.131,170.461,173.241,178.241,183.241,185.741,186.541,190.981,193.481,194.281,198.721,201.501,205.941,209.271,214.271,218.161,223.161,225.941,230.941,233.441,234.241,237.021,242.021,244.521,245.321,248.101,253.101,257.541,260.041,260.841,263.621,266.951,271.391,274.171,279.171,281.951,286.951,291.951" svgx:width="0.44,0.28,0.28,0.5,0.28,0.44,0.44,0.28,0.25,0.55,0.28,0.33,0.44,0.28,0.5,0.28,0.5,0.5,0.25,0.55,0.44,0.5,0.5,0.33,0.39,0.44,0.39,0.25,0.55,0.5,0.5,0.33,0.28,0.5,0.5,0.25,0.55,0.44,0.25,0.55,0.44,0.28,0.44,0.33,0.5,0.39,0.5,0.28,0.5,0.25,0.55,0.28,0.5,0.25,0.55,0.28,0.5,0.44,0.25,0.55,0.28,0.33,0.44,0.28,0.5,0.28,0.5,0.5,0.25" style="fill:rgb(23,22,21);font-family:TimesNewRomanPSMT;font-size:10.0px;stroke:none;">clinical training courses during a clerkship in the training </text>
   <text y="165.0" x="56.691,61.811,66.931,70.951,76.071,78.971,81.871,86.431,89.331,91.831,94.331,95.431,99.991,105.111,110.111,112.611,113.711,116.611,121.741,126.301,130.321,134.761,137.261,138.361,141.261,146.381,151.501,154.401,159.521,162.421,167.541,172.661,177.221,180.121,184.011,186.511,187.611,194.961,197.861,200.761,203.541,206.041,207.141,211.701,214.601,218.621,223.621,226.121,227.221,232.341,236.781,239.281,240.381,244.941,247.841,250.741,255.861,258.761,263.321,266.221,270.781,275.901,279.791,282.291,283.391,287.951,291.841" svgx:width="0.5,0.5,0.39,0.5,0.28,0.28,0.44,0.28,0.25,0.25,0.55,0.44,0.5,0.5,0.25,0.55,0.28,0.5,0.44,0.39,0.44,0.25,0.55,0.28,0.5,0.5,0.28,0.5,0.28,0.5,0.5,0.44,0.28,0.39,0.25,0.55,0.72,0.28,0.28,0.28,0.25,0.55,0.44,0.28,0.39,0.5,0.25,0.55,0.5,0.44,0.25,0.55,0.44,0.28,0.28,0.5,0.28,0.44,0.28,0.44,0.5,0.39,0.25,0.55,0.44,0.39,0.25" style="fill:rgb(23,22,21);font-family:TimesNewRomanPSMT;font-size:10.0px;stroke:none;">hospital, and these individuals will also be clinicians as </text>
   <text y="178.5" x="56.691,59.471,64.471,67.251,71.691,75.021,80.021,83.911,86.411,91.411,94.741,97.241,100.571,105.011,108.901,111.681,116.681,121.121,126.121,128.901,132.791,135.291,138.071,143.071,145.571,148.351,153.351,157.791,160.291,165.291,169.731,174.171,177.501,180.001,183.331,188.331,191.111,196.111,199.441,203.881,206.381,208.701,214.811,219.811,224.251,227.581,232.021,235.351,240.351,243.681,248.121,250.621,253.121,257.561,262.561,267.561,272.001,276.441,279.221,282.001,287.001,292.001" svgx:width="0.28,0.5,0.28,0.44,0.33,0.5,0.39,0.25,0.5,0.33,0.25,0.33,0.44,0.39,0.28,0.5,0.44,0.5,0.28,0.39,0.25,0.28,0.5,0.25,0.28,0.5,0.44,0.25,0.5,0.44,0.44,0.33,0.25,0.33,0.5,0.28,0.5,0.33,0.44,0.25,0.25,0.61,0.5,0.44,0.33,0.44,0.33,0.5,0.33,0.44,0.25,0.25,0.44,0.5,0.5,0.44,0.44,0.28,0.28,0.5,0.5,0.25" style="fill:rgb(23,22,21);font-family:TimesNewRomanPSMT;font-size:10.0px;stroke:none;">interns or residents in the near future. Therefore, educating </text>
   <text y="192.0" x="56.691,64.471,68.911,73.911,76.691,81.131,85.571,88.351,90.851,91.891,95.781,98.561,103.561,108.561,113.001,118.001,120.781,124.671,127.171,128.221,133.221,138.221,140.721,141.771,144.551,149.551,153.991,156.491,157.541,162.541,165.871,170.871,175.871,180.311,183.641,186.141,187.191,192.191,196.081,200.521,205.521,209.961,212.461,213.511,218.511,221.841,224.341,225.391,232.061,237.621,243.731,246.231,247.281,250.061,253.951,256.451,257.501,261.941,265.831,269.721,274.161,279.161,281.941,284.721,289.161,291.941" svgx:width="0.78,0.44,0.5,0.28,0.44,0.44,0.28,0.25,0.55,0.39,0.28,0.5,0.5,0.44,0.5,0.28,0.39,0.25,0.55,0.5,0.5,0.25,0.55,0.28,0.5,0.44,0.25,0.55,0.5,0.33,0.5,0.5,0.44,0.33,0.25,0.55,0.5,0.39,0.44,0.5,0.44,0.25,0.55,0.5,0.33,0.25,0.55,0.67,0.56,0.61,0.25,0.55,0.28,0.39,0.25,0.55,0.44,0.39,0.39,0.44,0.5,0.28,0.28,0.44,0.28,0.25" style="fill:rgb(23,22,21);font-family:TimesNewRomanPSMT;font-size:10.0px;stroke:none;">medical students on the proper usage of RPE is essential </text>
   <text y="205.5" x="56.691,61.691,66.131,70.571,75.011,80.011,83.901,88.341,91.241,94.021,99.021,103.461,108.461,111.361,115.801,119.131,123.571,126.471,130.361,135.361,140.361,143.141,147.581,152.021,154.801,157.701,160.481,165.481,168.391,177.281,183.391,190.061,192.971,197.411,202.411,207.411,212.411,216.301,221.301,224.631,229.071,231.981,234.761,239.761,242.671,245.451,250.451,254.891,257.791,262.791,267.791,271.681,276.681,279.461,282.241,286.681,289.461,291.961" svgx:width="0.5,0.44,0.44,0.44,0.5,0.39,0.44,0.25,0.28,0.5,0.44,0.5,0.25,0.44,0.33,0.44,0.25,0.39,0.5,0.5,0.28,0.44,0.44,0.28,0.25,0.28,0.5,0.25,0.89,0.61,0.67,0.25,0.44,0.5,0.5,0.5,0.39,0.5,0.33,0.44,0.25,0.28,0.5,0.25,0.28,0.5,0.44,0.25,0.5,0.5,0.39,0.5,0.28,0.28,0.44,0.28,0.25,0.25" style="fill:rgb(23,22,21);font-family:TimesNewRomanPSMT;font-size:10.0px;stroke:none;">because they are subject to MTB exposure in the hospital. </text>
   <text y="219.0" x="56.691,63.991,69.071,76.371,80.891,85.971,90.491,93.501,96.001,98.501,99.601,104.681,109.681,112.181,113.281,116.691,121.211,126.291,131.371,134.231,138.751,142.081,144.581,145.681,150.201,155.281,160.361,164.881,169.401,172.261,175.121,180.201,185.201,187.701,188.801,193.881,197.291,202.371,207.451,210.861,215.381,223.161,225.661,226.761,229.621,234.701,239.221,242.001,244.501,245.601,248.461,252.981,257.501,262.021,267.101,271.621,275.511,278.011,279.111,283.631,288.711" svgx:width="0.72,0.5,0.72,0.44,0.5,0.44,0.33,0.25,0.25,0.55,0.5,0.5,0.25,0.55,0.33,0.44,0.5,0.5,0.28,0.44,0.33,0.25,0.55,0.44,0.5,0.5,0.44,0.44,0.28,0.28,0.5,0.5,0.25,0.55,0.5,0.33,0.5,0.5,0.33,0.44,0.78,0.25,0.55,0.28,0.5,0.44,0.28,0.25,0.55,0.28,0.44,0.44,0.44,0.5,0.44,0.39,0.25,0.55,0.44,0.5,0.33" style="fill:rgb(23,22,21);font-family:TimesNewRomanPSMT;font-size:10.0px;stroke:none;">However, no regular education program that teaches ap-</text>
   <text y="232.5" x="56.691,61.691,65.021,70.021,75.021,78.351,81.131,85.571,88.351,92.791,95.291,101.961,107.521,113.631,116.131,121.131,125.021,129.461,134.461,138.901,141.401,145.841,150.841,153.621,157.511,160.291,164.181,166.681,170.011,175.011,178.341,180.841,188.621,193.061,198.061,200.841,205.281,209.721,212.501,215.001,218.891,221.671,226.671,231.671,236.111,241.111,243.891,247.781,250.281,253.061,258.061,260.561,267.781,272.781,276.111,280.551,284.991" svgx:width="0.5,0.33,0.5,0.5,0.33,0.28,0.44,0.28,0.44,0.25,0.67,0.56,0.61,0.25,0.5,0.39,0.44,0.5,0.44,0.25,0.44,0.5,0.28,0.39,0.28,0.39,0.25,0.33,0.5,0.33,0.25,0.78,0.44,0.5,0.28,0.44,0.44,0.28,0.25,0.39,0.28,0.5,0.5,0.44,0.5,0.28,0.39,0.25,0.28,0.5,0.25,0.72,0.5,0.33,0.44,0.44,0.25" style="fill:rgb(23,22,21);font-family:TimesNewRomanPSMT;font-size:10.0px;stroke:none;">propriate RPE usage exists for medical students in Korea.</text>
   <text y="246.0" x="66.611,72.721,77.721,82.161,85.361,89.801,92.581,100.351,104.241,107.451,112.451,115.781,118.991,121.771,126.771,129.551,133.441,136.651,140.541,143.321,148.321,153.321,158.321,161.531,168.751,173.191,176.521,180.961,184.171,186.951,191.951,195.161,200.161,204.601,209.601,214.041,216.821,221.821,226.821,230.021,234.461,239.461,244.461,247.671,252.671,257.111,259.891,262.671,267.671,272.111,274.891,279.331,282.531,286.971,291.971" svgx:width="0.61,0.5,0.44,0.25,0.44,0.28,0.78,0.39,0.25,0.5,0.33,0.25,0.28,0.5,0.28,0.39,0.25,0.39,0.28,0.5,0.5,0.5,0.25,0.72,0.44,0.33,0.44,0.25,0.28,0.5,0.25,0.5,0.44,0.5,0.44,0.28,0.5,0.5,0.25,0.44,0.5,0.5,0.25,0.5,0.44,0.28,0.28,0.5,0.44,0.28,0.44,0.25,0.44,0.5,0.25" style="fill:rgb(23,22,21);font-family:TimesNewRomanPSMT;font-size:10.0px;stroke:none;">The aims of this study were to develop and validate an </text>
   <text y="259.5" x="56.691,61.241,66.351,71.461,76.011,80.561,83.451,86.341,91.451,96.451,98.951,100.051,105.161,108.601,113.711,118.831,122.271,126.821,134.601,137.101,138.201,141.641,146.751,150.081,152.581,153.681,161.571,166.121,171.231,174.121,178.671,183.221,186.001,188.501,189.601,193.611,196.501,201.621,206.731,211.281,216.391,219.281,223.171,225.671,226.771,229.661,234.771,239.321,242.101,244.601,245.701,248.591,253.141,257.691,262.241,267.351,271.901,275.791,278.291,279.391,282.281,287.391,291.831" svgx:width="0.44,0.5,0.5,0.44,0.44,0.28,0.28,0.5,0.5,0.25,0.55,0.5,0.33,0.5,0.5,0.33,0.44,0.78,0.25,0.55,0.33,0.5,0.33,0.25,0.55,0.78,0.44,0.5,0.28,0.44,0.44,0.28,0.25,0.55,0.39,0.28,0.5,0.5,0.44,0.5,0.28,0.39,0.25,0.55,0.28,0.5,0.44,0.28,0.25,0.55,0.28,0.44,0.44,0.44,0.5,0.44,0.39,0.25,0.55,0.28,0.5,0.44,0.25" style="fill:rgb(23,22,21);font-family:TimesNewRomanPSMT;font-size:10.0px;stroke:none;">education program for medical students that teaches the </text>
   <text y="273.0" x="56.691,61.131,66.131,71.131,74.461,79.461,84.461,87.791,90.571,95.011,97.791,102.231,104.731,105.531,113.311,117.751,120.531,125.531,130.531,135.531,139.421,141.921,142.721,146.051,151.051,154.381,156.881,157.681,164.901,169.341,173.781,177.111,179.891,184.891,189.891,192.391,193.191,197.631,202.631,207.631,210.131,210.931,215.371,220.371,225.371,230.371,234.261,237.041,242.041,247.041,249.541,250.341,253.121,258.121,262.561,265.061,265.861,270.861,274.191,279.191,284.191,288.631,291.961" svgx:width="0.44,0.5,0.5,0.33,0.5,0.5,0.33,0.28,0.44,0.28,0.44,0.25,0.55,0.78,0.44,0.28,0.5,0.5,0.5,0.39,0.25,0.55,0.33,0.5,0.33,0.25,0.55,0.72,0.44,0.44,0.33,0.28,0.5,0.5,0.25,0.55,0.44,0.5,0.5,0.25,0.55,0.44,0.5,0.5,0.5,0.39,0.28,0.5,0.5,0.25,0.55,0.28,0.5,0.44,0.25,0.55,0.5,0.33,0.5,0.5,0.44,0.33,0.25" style="fill:rgb(23,22,21);font-family:TimesNewRomanPSMT;font-size:10.0px;stroke:none;">appropriate methods for wearing and choosing the proper </text>
   <text y="286.5" x="56.691,60.581,63.361,67.801,72.241,74.741,79.181,84.181,89.181,91.681,94.461,99.461,104.461,108.901,111.401,116.401,119.731,122.231,128.901,134.461,140.571" svgx:width="0.39,0.28,0.44,0.44,0.25,0.44,0.5,0.5,0.25,0.28,0.5,0.5,0.44,0.25,0.5,0.33,0.25,0.67,0.56,0.61,0.25" style="fill:rgb(23,22,21);font-family:TimesNewRomanPSMT;font-size:10.0px;stroke:none;">size and type of RPE.</text>
   <text y="313.5" x="56.693,63.365,70.037,76.709,80.705,86.033,91.361,95.357,100.025,103.025,109.025,115.697,122.369,125.369,136.697,142.025,146.021,152.693,158.693,165.365" svgx:width="0.56,0.56,0.56,0.33,0.44,0.44,0.33,0.39,0.25,0.5,0.56,0.56,0.25,0.94,0.44,0.33,0.56,0.5,0.56,0.39" style="fill:rgb(23,22,21);font-family:TimesNewRomanPS-BoldMT;font-size:12.0px;stroke:none;">Subjects and Methods</text>
   <text y="340.5" x="56.693,61.693,64.473,69.473,74.473,78.913,81.413,86.413,90.853,94.743,97.523,102.523,107.523,110.023,115.023,120.023,125.023,127.523,132.523,137.523,141.413,144.193,146.973,151.413,154.193,159.193,164.193,169.193,171.973" svgx:width="0.5,0.28,0.5,0.5,0.44,0.25,0.5,0.44,0.39,0.28,0.5,0.5,0.25,0.5,0.5,0.5,0.25,0.5,0.5,0.39,0.28,0.28,0.44,0.28,0.5,0.5,0.5,0.28,0.39" style="fill:rgb(23,22,21);font-family:TimesNewRomanPS-ItalicMT;font-size:10.0px;stroke:none;">Study design and participants</text>
   <text y="354.0" x="66.613,73.183,78.643,81.883,85.773,88.273,89.373,94.273,99.733,104.633,107.873,113.333,117.683,120.923,124.813,127.313,128.413,131.653,137.113,142.013,145.253,150.713,156.173,161.073,166.073,168.573,169.673,172.913,178.373,182.813,185.313,186.413,193.543,199.563,205.673,208.173,209.273,214.173,219.633,225.093,229.993,234.893,238.133,241.363,246.823,251.823,254.323,255.423,260.883,264.673,270.133,275.593,279.383,284.283,292.063" svgx:width="0.61,0.5,0.28,0.39,0.25,0.55,0.44,0.5,0.44,0.28,0.5,0.39,0.28,0.39,0.25,0.55,0.28,0.5,0.44,0.28,0.5,0.5,0.44,0.5,0.25,0.55,0.28,0.5,0.44,0.25,0.55,0.67,0.56,0.61,0.25,0.55,0.44,0.5,0.5,0.44,0.44,0.28,0.28,0.5,0.5,0.25,0.55,0.5,0.33,0.5,0.5,0.33,0.44,0.78,0.25" style="fill:rgb(23,22,21);font-family:TimesNewRomanPSMT;font-size:10.0px;stroke:none;">This analysis included the RPE education program </text>
   <text y="367.5" x="56.693,60.023,65.023,68.353,70.853,71.843,75.733,80.173,85.173,87.953,92.953,96.283,98.783,99.773,107.553,111.993,116.993,119.773,124.213,128.653,131.433,133.933,134.913,138.803,141.583,146.583,151.583,156.023,161.023,163.803,167.693,170.193,171.183,173.963,178.963,181.463,182.453,185.233,190.233,194.673,197.173,198.163,207.053,211.493,216.493,219.273,223.713,228.153,230.933,233.433,234.423,241.093,246.093,248.873,251.653,256.093,261.093,265.533,268.033,269.023,273.463,276.243,278.743,279.733,282.513,287.513,291.953" svgx:width="0.33,0.5,0.33,0.25,0.55,0.39,0.44,0.5,0.28,0.5,0.33,0.25,0.55,0.78,0.44,0.5,0.28,0.44,0.44,0.28,0.25,0.55,0.39,0.28,0.5,0.5,0.44,0.5,0.28,0.39,0.25,0.55,0.28,0.5,0.25,0.55,0.28,0.5,0.44,0.25,0.55,0.89,0.44,0.5,0.28,0.44,0.44,0.28,0.25,0.55,0.67,0.5,0.28,0.28,0.44,0.5,0.44,0.25,0.55,0.44,0.28,0.25,0.55,0.28,0.5,0.44,0.25" style="fill:rgb(23,22,21);font-family:TimesNewRomanPSMT;font-size:10.0px;stroke:none;">for senior medical students in the Medical College at the </text>
   <text y="381.0" x="56.693,63.553,68.183,71.153,76.343,81.533,84.503,87.473,91.913,94.413,95.513,102.923,108.113,111.083,116.273,120.903,124.423,128.503,131.473,134.443,139.443,141.943,143.043,148.233,151.563,154.063,155.163,162.573,167.763,171.283,175.913,180.353,182.853,183.953,191.363,196.553,201.553,204.053,205.153,210.343,214.973,219.973,222.473,223.573,226.543,231.733,235.813,238.593,241.093,242.193,245.713,248.683,253.873,256.843,260.923,266.113,270.743,275.743,278.243,279.343,282.313,287.503,291.943" svgx:width="0.67,0.44,0.28,0.5,0.5,0.28,0.28,0.44,0.25,0.55,0.72,0.5,0.28,0.5,0.44,0.33,0.39,0.28,0.28,0.5,0.25,0.55,0.5,0.33,0.25,0.55,0.72,0.5,0.33,0.44,0.44,0.25,0.55,0.72,0.5,0.5,0.25,0.55,0.5,0.44,0.5,0.25,0.55,0.28,0.5,0.39,0.28,0.25,0.55,0.33,0.28,0.5,0.28,0.39,0.5,0.44,0.5,0.25,0.55,0.28,0.5,0.44,0.25" style="fill:rgb(23,22,21);font-family:TimesNewRomanPSMT;font-size:10.0px;stroke:none;">Catholic University of Korea who had just finished the </text>
   <text y="394.5" x="56.693,61.963,67.233,70.283,75.553,79.153,83.863,86.913,89.963,95.233,98.283,102.993,107.703,110.483,112.983,114.083,117.683,122.953,126.003,130.713,133.763,136.813,142.083,147.353,151.243,153.743,154.843,160.113,164.823,168.423,171.473,176.743,182.013,186.173,188.673,191.173,192.093,198.473,203.743,208.183,210.683,211.783,216.493,221.763,227.033,231.743,236.453,239.503,242.553,247.823,252.823,255.323,256.423,261.693,265.293,270.563,275.833,279.433,284.143,291.923" svgx:width="0.5,0.5,0.28,0.5,0.33,0.44,0.28,0.28,0.5,0.28,0.44,0.44,0.28,0.25,0.55,0.33,0.5,0.28,0.44,0.28,0.28,0.5,0.5,0.39,0.25,0.55,0.5,0.44,0.33,0.28,0.5,0.5,0.39,0.25,0.25,0.55,0.61,0.5,0.44,0.25,0.55,0.44,0.5,0.5,0.44,0.44,0.28,0.28,0.5,0.5,0.25,0.55,0.5,0.33,0.5,0.5,0.33,0.44,0.78,0.25" style="fill:rgb(23,22,21);font-family:TimesNewRomanPSMT;font-size:10.0px;stroke:none;">poly-clinical rotations periods. The education program </text>
   <text y="408.0" x="56.693,64.053,68.633,72.523,75.023,76.123,81.263,85.843,89.313,92.783,97.923,101.393,109.313,113.893,118.893,121.393,122.493,125.963,129.433,134.573,142.353,144.853,145.953,149.983,155.123,158.043,163.043,165.543,166.643,171.783,176.923,182.063,187.063,189.563,190.663,193.583,198.583,201.083,202.183,207.883,212.463,217.603,220.523,225.103,233.023,238.163,242.743,246.073,248.573,249.673,254.813,259.953,265.093,270.233,272.733,275.233,276.153,282.403,287.543,291.983" svgx:width="0.72,0.44,0.39,0.25,0.55,0.5,0.44,0.33,0.33,0.5,0.33,0.78,0.44,0.5,0.25,0.55,0.33,0.33,0.5,0.78,0.25,0.55,0.39,0.5,0.28,0.5,0.25,0.55,0.5,0.5,0.5,0.5,0.25,0.55,0.28,0.5,0.25,0.55,0.56,0.44,0.5,0.28,0.44,0.78,0.5,0.44,0.33,0.25,0.55,0.5,0.5,0.5,0.5,0.25,0.25,0.55,0.61,0.5,0.44,0.25" style="fill:rgb(23,22,21);font-family:TimesNewRomanPSMT;font-size:10.0px;stroke:none;">was performed from July 2014 to September 2014. The </text>
   <text y="421.5" x="56.693,61.693,66.693,71.133,76.133,78.913,81.693,84.473,88.913,91.693,94.473,99.473,103.913,106.713,112.273,115.053,117.863,120.643,125.083,128.973,131.753,134.563,137.893,145.113,152.333,157.893,164.003,167.333,170.153,177.373,181.813,185.703,188.513,193.513,197.403,201.843,206.843,209.653,212.433,217.433,220.243,224.683,229.683,234.683,239.123,243.563,246.343,250.783,253.593,256.373,261.373,265.813,268.623,276.403,280.843,285.843,288.643" svgx:width="0.5,0.5,0.44,0.5,0.28,0.28,0.28,0.44,0.28,0.28,0.5,0.44,0.25,0.56,0.28,0.25,0.28,0.44,0.39,0.28,0.25,0.33,0.72,0.72,0.56,0.61,0.33,0.25,0.72,0.44,0.39,0.25,0.5,0.39,0.44,0.5,0.25,0.28,0.5,0.25,0.44,0.5,0.5,0.44,0.44,0.28,0.44,0.25,0.28,0.5,0.44,0.25,0.78,0.44,0.5,0.28,0.33" style="fill:rgb(23,22,21);font-family:TimesNewRomanPSMT;font-size:10.0px;stroke:none;">quantitative fit test (QNFT) was used to educate the medi-</text>
   <text y="435.0" x="56.693,61.173,65.653,68.433,70.933,72.033,75.973,78.793,83.843,88.893,93.373,98.423,101.243,105.183,107.683,110.183,111.283,115.763,120.813,125.813,128.313,129.413,132.233,137.283,141.723,144.223,145.323,150.373,155.423,159.903,162.723,165.543,168.363,172.843,175.663,178.483,183.523,187.963,190.463,191.563,197.173,199.953,202.453,203.553,206.373,210.853,214.793,217.573,220.073,221.173,224.553,231.823,237.973,243.583,249.733,253.063,255.563,256.663,263.933,268.413,272.303,274.803,275.903,280.953,285.433,288.643" svgx:width="0.44,0.44,0.28,0.25,0.55,0.39,0.28,0.5,0.5,0.44,0.5,0.28,0.39,0.25,0.25,0.55,0.44,0.5,0.5,0.25,0.55,0.28,0.5,0.44,0.25,0.55,0.5,0.5,0.44,0.28,0.28,0.28,0.44,0.28,0.28,0.5,0.44,0.25,0.55,0.56,0.28,0.25,0.55,0.28,0.44,0.39,0.28,0.25,0.55,0.33,0.72,0.61,0.56,0.61,0.33,0.25,0.55,0.72,0.44,0.39,0.25,0.55,0.5,0.44,0.33,0.33" style="fill:rgb(23,22,21);font-family:TimesNewRomanPSMT;font-size:10.0px;stroke:none;">cal students, and the qualitative fit test (QLFT) was per-</text>
   <text y="448.5" x="56.693,60.023,65.023,68.353,76.133,80.573,85.573,88.443,91.223,96.223,99.093,103.533,108.533,112.973,115.753,120.743,125.183,129.623,132.493,135.273,140.273,144.713,147.583,150.913,155.353,158.133,162.573,165.443,170.443,173.773,176.643,181.643,186.083,189.973,193.863,196.643,199.973,204.413,207.193,209.973,212.843,217.843,222.283,225.613,230.613,233.943,238.383,241.253,245.693,250.693,255.693,258.563,263.003,266.333,269.113,273.553,276.883,279.753,282.533,287.533,291.973" svgx:width="0.33,0.5,0.33,0.78,0.44,0.5,0.25,0.28,0.5,0.25,0.44,0.5,0.44,0.28,0.5,0.44,0.44,0.25,0.28,0.5,0.44,0.25,0.33,0.44,0.28,0.44,0.25,0.5,0.33,0.25,0.5,0.44,0.39,0.39,0.28,0.33,0.44,0.28,0.28,0.25,0.5,0.44,0.33,0.5,0.33,0.44,0.25,0.44,0.5,0.5,0.25,0.44,0.33,0.28,0.44,0.33,0.25,0.28,0.5,0.44,0.25" style="fill:rgb(23,22,21);font-family:TimesNewRomanPSMT;font-size:10.0px;stroke:none;">formed to analyze the rate of pass/fail before and after the </text>
   <text y="462.0" x="56.693,63.443,69.083,75.193,77.693,78.793,83.303,88.383,93.463,97.973,102.483,105.333,108.183,113.263,118.263,120.763,121.863,126.943,130.353,135.433,140.513,143.923,148.433,156.283,158.783,161.283,162.383,165.793,170.793,173.293,174.393,177.243,182.323,186.763,189.263,190.363,196.003,198.853,201.353,203.853,204.953,213.923,218.433,221.843,226.923,229.773,233.663,236.163,237.263,242.343,247.423,251.393,256.473,259.323,262.173,266.683,269.533,273.503,276.003,278.503,279.603,282.453,287.533,291.973" svgx:width="0.67,0.56,0.61,0.25,0.55,0.44,0.5,0.5,0.44,0.44,0.28,0.28,0.5,0.5,0.25,0.55,0.5,0.33,0.5,0.5,0.33,0.44,0.78,0.25,0.25,0.55,0.33,0.5,0.25,0.55,0.28,0.5,0.44,0.25,0.55,0.56,0.28,0.25,0.25,0.55,0.89,0.44,0.33,0.5,0.33,0.39,0.25,0.55,0.5,0.5,0.39,0.5,0.28,0.28,0.44,0.28,0.39,0.25,0.25,0.55,0.28,0.5,0.44,0.25" style="fill:rgb(23,22,21);font-family:TimesNewRomanPSMT;font-size:10.0px;stroke:none;">RPE education program. In the St. Mary’s hospitals, the </text>
   <text y="475.5" x="56.693,61.733,64.553,68.493,73.533,78.573,82.513,86.993,92.033,94.853,99.293,101.793,102.893,109.603,115.213,121.363,125.253,127.753,128.853,133.893,138.373,143.413,147.853,150.353,151.453,156.493,160.973,165.453,170.453,172.953,174.053,179.093,183.033,187.513,192.553,195.053,197.553,198.653,201.473,206.513,210.993,214.363,218.843,222.213,227.253,230.623,235.103,237.603,240.103,241.203,246.243,251.283,254.103,259.103,261.603,262.703,267.743,270.563,274.503,279.543,284.583,288.523" svgx:width="0.5,0.28,0.39,0.5,0.5,0.39,0.44,0.5,0.28,0.44,0.25,0.55,0.67,0.56,0.61,0.39,0.25,0.55,0.5,0.44,0.5,0.44,0.25,0.55,0.5,0.44,0.44,0.5,0.25,0.55,0.5,0.39,0.44,0.5,0.25,0.25,0.55,0.28,0.5,0.44,0.33,0.44,0.33,0.5,0.33,0.44,0.25,0.25,0.55,0.5,0.5,0.28,0.5,0.25,0.55,0.5,0.28,0.39,0.5,0.5,0.39,0.33" style="fill:rgb(23,22,21);font-family:TimesNewRomanPSMT;font-size:10.0px;stroke:none;">disposable RPEs have been used, therefore, only dispos-</text>
   <text y="489.0" x="56.693,61.153,66.183,68.983,73.423,75.923,77.023,83.723,89.313,95.453,99.343,101.843,102.943,110.193,114.663,118.023,122.463,124.963,126.063,131.093,135.563,138.923,141.723,147.313,151.783,156.783,159.283,160.383,165.413,170.413,172.913,174.013,179.603,182.383,184.883,185.983,188.793,193.253,197.173,199.983,202.483,204.983,205.903,212.033,217.063,221.503,224.003,225.103,229.023,233.493,241.293,246.323,249.123,253.563,256.063,257.163,261.083,263.883,268.353,272.793,275.293,276.393,283.643,288.113,292.003" svgx:width="0.44,0.5,0.28,0.44,0.25,0.55,0.67,0.56,0.61,0.39,0.25,0.55,0.72,0.44,0.33,0.44,0.25,0.55,0.5,0.44,0.33,0.28,0.56,0.44,0.5,0.25,0.55,0.5,0.5,0.25,0.55,0.56,0.28,0.25,0.55,0.28,0.44,0.39,0.28,0.25,0.25,0.55,0.61,0.5,0.44,0.25,0.55,0.39,0.44,0.78,0.5,0.28,0.44,0.25,0.55,0.39,0.28,0.44,0.44,0.25,0.55,0.72,0.44,0.39,0.25" style="fill:rgb(23,22,21);font-family:TimesNewRomanPSMT;font-size:10.0px;stroke:none;">able RPEs were verified by fi t test . Th e sampl e siz e was </text>
   <text y="502.5" x="56.693,61.133,65.573,68.353,72.793,77.793,80.573,85.013,87.793,92.233,97.233,99.733,100.673,103.453,108.453,110.953,111.903,116.343,120.233,123.013,125.793,133.573,138.013,140.793,145.233,147.733,148.673,153.113,158.113,160.613,161.563,164.343,169.343,173.783,178.223,181.003,183.503,184.443,189.443,194.443,202.223,207.223,211.663,214.993,217.493,218.433,223.433,226.763,229.263,230.213,235.213,239.653,242.983,245.763,248.543,252.983,255.763,260.763,265.203,270.203,272.983,276.873,279.373,280.313,283.643,288.643,291.973" svgx:width="0.44,0.44,0.28,0.44,0.5,0.28,0.44,0.28,0.44,0.5,0.25,0.55,0.28,0.5,0.25,0.55,0.44,0.39,0.28,0.28,0.78,0.44,0.28,0.44,0.25,0.55,0.44,0.5,0.25,0.55,0.28,0.5,0.44,0.44,0.28,0.25,0.55,0.5,0.5,0.78,0.5,0.44,0.33,0.25,0.55,0.5,0.33,0.25,0.55,0.5,0.44,0.33,0.28,0.28,0.44,0.28,0.5,0.44,0.5,0.28,0.39,0.25,0.55,0.33,0.5,0.33,0.25" style="fill:rgb(23,22,21);font-family:TimesNewRomanPSMT;font-size:10.0px;stroke:none;">calculated to estimate an ideal number of participants for </text>
   <text y="516.0" x="56.693,59.513,64.563,67.383,71.273,73.773,74.873,79.353,84.403,89.453,93.933,98.413,101.233,104.053,109.103,114.103,116.603,117.703,122.753,126.133,131.183,136.233,139.613,144.093,151.913,154.413,157.463,164.133,166.633,167.733,171.673,176.153,183.973,189.023,191.843,196.283,198.783,199.883,203.823,206.643,211.123,215.563,218.063,219.163,224.213,227.543,230.043,231.143,236.193,241.193,243.693,244.793,249.843,254.323,257.703,260.523,263.343,267.823,270.643,275.693,280.173,285.223,288.043,291.933" svgx:width="0.28,0.5,0.28,0.39,0.25,0.55,0.44,0.5,0.5,0.44,0.44,0.28,0.28,0.5,0.5,0.25,0.55,0.5,0.33,0.5,0.5,0.33,0.44,0.78,0.25,0.25,0.72,0.25,0.55,0.39,0.44,0.78,0.5,0.28,0.44,0.25,0.55,0.39,0.28,0.44,0.44,0.25,0.55,0.5,0.33,0.25,0.55,0.5,0.5,0.25,0.55,0.5,0.44,0.33,0.28,0.28,0.44,0.28,0.5,0.44,0.5,0.28,0.39,0.25" style="fill:rgb(23,22,21);font-family:TimesNewRomanPSMT;font-size:10.0px;stroke:none;">this education program. A sample size of 50 participants </text>
   <text y="529.5" x="56.693,63.913,68.343,72.233,74.733,79.163,83.053,85.823,88.593,96.363,100.793,103.563,107.993,112.993,115.493,118.263,123.263,125.763,130.763,135.193,140.193,144.623,147.123,151.013,156.013,159.343,164.903,169.333,172.103,176.533,181.533,184.303,186.803,191.803,196.803,204.023,208.453,211.783,214.283,217.613,222.613,227.613,235.943,239.273,241.773,244.543,249.543,252.043,257.043,261.473,264.243,268.673,272.003,279.773,282.543,287.543,291.983" svgx:width="0.72,0.44,0.39,0.25,0.44,0.39,0.28,0.28,0.78,0.44,0.28,0.44,0.5,0.25,0.28,0.5,0.25,0.5,0.44,0.5,0.44,0.25,0.39,0.5,0.33,0.56,0.44,0.28,0.44,0.5,0.28,0.25,0.5,0.5,0.72,0.44,0.33,0.25,0.33,0.5,0.5,0.83,0.33,0.25,0.28,0.5,0.25,0.5,0.44,0.28,0.44,0.33,0.78,0.28,0.5,0.44,0.25" style="fill:rgb(23,22,21);font-family:TimesNewRomanPSMT;font-size:10.0px;stroke:none;">was estimated to have sufficient power (80%) to determine </text>
   <text y="543.0" x="56.693,61.133,64.283,67.063,70.393,75.393,79.833,82.983,86.873,91.873,96.313,100.753,105.193,109.083,112.973,116.133,119.463,123.903,126.683,131.123,134.273,139.273,142.603,145.763,150.763,155.763,164.093,167.253,170.583,175.583,181.223,186.223,191.223,194.553,197.713,202.713,206.043,209.203,214.203,219.203,227.533,230.693,234.023,239.023,244.663,249.663,254.663,257.993,260.493,263.653,268.093,271.983,275.873,280.873,288.653" svgx:width="0.44,0.25,0.28,0.33,0.5,0.44,0.25,0.39,0.5,0.44,0.44,0.44,0.39,0.39,0.25,0.33,0.44,0.28,0.44,0.25,0.5,0.33,0.25,0.5,0.5,0.83,0.25,0.33,0.5,0.56,0.5,0.5,0.33,0.25,0.5,0.33,0.25,0.5,0.5,0.83,0.25,0.33,0.5,0.56,0.5,0.5,0.33,0.25,0.25,0.44,0.39,0.39,0.5,0.78,0.33" style="fill:rgb(23,22,21);font-family:TimesNewRomanPSMT;font-size:10.0px;stroke:none;">a true success rate of 74% (n=37) or 76% (n=38), assum-</text>
   <text y="556.5" x="56.693,59.633,64.793,69.793,72.293,73.393,77.833,80.333,81.433,86.593,94.923,97.423,98.523,103.123,108.283,112.883,118.043,122.643,127.083,129.583,130.683,135.843,139.173,141.673,142.773,147.213,149.713,150.813,153.753,158.913,164.073,168.513,171.013,172.113,175.443,177.943,179.043,183.643,187.133,190.623,195.783,199.113,201.613,202.713,207.313,212.473,217.473,219.973,221.073,225.513,228.013,229.113,234.273,239.433,247.763,250.263,251.363,255.963,261.123,265.723,270.883,275.483,279.923,282.423,283.523,288.683,292.013" svgx:width="0.28,0.5,0.5,0.25,0.55,0.44,0.25,0.55,0.5,0.83,0.25,0.55,0.44,0.5,0.44,0.5,0.44,0.44,0.25,0.55,0.5,0.33,0.25,0.55,0.44,0.25,0.55,0.28,0.5,0.5,0.44,0.25,0.55,0.33,0.25,0.55,0.44,0.33,0.33,0.5,0.33,0.25,0.55,0.44,0.5,0.5,0.25,0.55,0.44,0.25,0.55,0.5,0.5,0.83,0.25,0.55,0.44,0.5,0.44,0.5,0.44,0.44,0.25,0.55,0.5,0.33,0.25" style="fill:rgb(23,22,21);font-family:TimesNewRomanPSMT;font-size:10.0px;stroke:none;">ing a 5% chance of a type I error and a 20% chance of </text>
   <text y="570.0" x="56.693,61.133,63.633,64.733,67.643,72.773,77.903,82.343,84.843,85.943,89.403,92.733,95.233,96.333,100.903,104.363,107.823,112.953" svgx:width="0.44,0.25,0.55,0.28,0.5,0.5,0.44,0.25,0.55,0.33,0.33,0.25,0.55,0.44,0.33,0.33,0.5,0.33" style="fill:rgb(23,22,21);font-family:TimesNewRomanPSMT;font-size:10.0px;stroke:none;">a type II error</text>
   <text y="565.707" x="116.433,120.024" svgx:width="0.5,0.33" style="fill:rgb(23,22,21);font-family:TimesNewRomanPSMT;font-size:7.0px;stroke:none;">9)</text>
   <text y="570.0" x="122.45,124.95,127.45,128.37,134.61,139.74,144.31,147.77,152.34,155.8,160.93,164.39,168.96,171.46,173.96,175.06,179.5,182.0,183.1,186.01,191.14,194.05,198.62,201.4,203.9,205.0,210.13,213.46,215.96,217.06,222.19,227.19,229.69,230.79,234.81,239.38,244.51,247.42,252.55,255.88,258.38,259.48,267.39,271.96,277.09,280.0,284.57,289.14,291.92" svgx:width="0.25,0.25,0.55,0.61,0.5,0.44,0.33,0.44,0.33,0.5,0.33,0.44,0.25,0.25,0.55,0.44,0.25,0.55,0.28,0.5,0.28,0.44,0.28,0.25,0.55,0.5,0.33,0.25,0.55,0.5,0.5,0.25,0.55,0.39,0.44,0.5,0.28,0.5,0.33,0.25,0.55,0.78,0.44,0.5,0.28,0.44,0.44,0.28,0.25" style="fill:rgb(23,22,21);font-family:TimesNewRomanPSMT;font-size:10.0px;stroke:none;">. Therefore, a total of 50 senior medical </text>
   <text y="583.5" x="56.69,60.76,63.72,68.9,74.08,78.7,83.88,86.84,90.73,93.23,94.33,99.51,104.69,107.65,112.83,118.01,120.97,125.59,130.21,133.72,138.34,143.34,145.84,146.94,149.9,154.9,157.4,158.5,163.68,168.3,171.81,174.77,177.73,182.35,185.31,190.49,195.11,198.07,202.51,205.01,206.11,209.07,214.07,216.57,217.67,220.63,225.81,230.25,232.75,233.85,239.03,242.54,247.16,251.23,255.85,261.03,263.81,266.31,267.41,271.48,274.44,279.62,284.8,289.33,291.83" svgx:width="0.39,0.28,0.5,0.5,0.44,0.5,0.28,0.39,0.25,0.55,0.5,0.5,0.28,0.5,0.5,0.28,0.44,0.44,0.33,0.44,0.5,0.25,0.55,0.28,0.5,0.25,0.55,0.5,0.44,0.33,0.28,0.28,0.44,0.28,0.5,0.44,0.28,0.44,0.25,0.55,0.28,0.5,0.25,0.55,0.28,0.5,0.44,0.25,0.55,0.5,0.33,0.44,0.39,0.44,0.5,0.28,0.25,0.55,0.39,0.28,0.5,0.5,0.5,0.25,0.25" style="fill:rgb(23,22,21);font-family:TimesNewRomanPSMT;font-size:10.0px;stroke:none;">students volunteered to participate in the present study. </text>
   <text y="597.0" x="56.69,62.8,67.8,72.24,74.89,77.67,82.67,86.0,91.0,94.33,102.11,106.55,111.55,114.2,118.64,123.64,128.64,132.53,136.97,141.97,144.75,147.4,154.62,159.06,162.95,165.61,170.61,175.61,178.39,182.83,185.61,190.61,195.05,200.05,202.7,206.03,209.36,214.36,222.14,224.79,229.79,234.23,237.56,240.34,243.12,247.56,250.34,255.34,259.78,264.78,267.56,271.45,273.95,276.41,282.52,287.52,291.96" svgx:width="0.61,0.5,0.44,0.25,0.28,0.5,0.33,0.5,0.33,0.78,0.44,0.5,0.25,0.44,0.5,0.5,0.39,0.44,0.5,0.28,0.25,0.72,0.44,0.39,0.25,0.5,0.5,0.28,0.44,0.28,0.5,0.44,0.5,0.25,0.33,0.33,0.5,0.78,0.25,0.5,0.44,0.33,0.28,0.28,0.44,0.28,0.5,0.44,0.5,0.28,0.39,0.25,0.25,0.61,0.5,0.44,0.25" style="fill:rgb(23,22,21);font-family:TimesNewRomanPSMT;font-size:10.0px;stroke:none;">The informed consent was obtained from participants. The </text>
   <text y="610.5" x="56.69,60.75,63.7,68.87,74.04,79.04,81.54,82.64,87.81,92.42,96.48,99.43,104.6,109.77,112.27,114.77,115.87,119.93,124.54,132.49,137.66,140.61,143.56,148.73,153.73,156.23,157.33,165.28,169.89,172.84,178.01,183.18,188.35,192.41,194.91,197.41,198.51,202.57,205.52,210.13,213.08,216.03,220.09,223.04,225.99,230.6,234.66,237.16,239.66,240.76,245.37,250.54,255.54,258.03999999999996,259.14,264.31,267.81,272.42,277.03,279.98,282.93,287.54,291.98" svgx:width="0.39,0.28,0.5,0.5,0.5,0.25,0.55,0.5,0.44,0.39,0.28,0.5,0.5,0.25,0.25,0.55,0.39,0.44,0.78,0.5,0.28,0.28,0.5,0.5,0.25,0.55,0.78,0.44,0.28,0.5,0.5,0.5,0.39,0.25,0.25,0.55,0.39,0.28,0.44,0.28,0.28,0.39,0.28,0.28,0.44,0.39,0.25,0.25,0.55,0.44,0.5,0.5,0.25,0.55,0.5,0.33,0.44,0.44,0.28,0.28,0.44,0.44,0.25" style="fill:rgb(23,22,21);font-family:TimesNewRomanPSMT;font-size:10.0px;stroke:none;">study design, sampling methods, statistics, and practice </text>
   <text y="624.0" x="56.69,64.01,68.55,71.98,76.42,78.92,80.02,84.56,89.66,94.76,98.19,103.29,108.39,112.93,117.93,120.43,121.53,126.63,131.63,134.13,135.23,138.11,143.21,147.65,150.15,151.25,154.68,159.78,163.77,166.65,169.53,172.41,177.51,180.39,183.27,188.37,193.47,198.01,200.79,203.29,204.39,211.16,215.7,220.8,223.68,228.22,235.44,237.94,239.04,245.81,250.91,255.45,258.88,263.88,266.38,267.48,272.58,275.91,278.41,279.51,282.39,287.49,291.93" svgx:width="0.72,0.44,0.33,0.44,0.25,0.55,0.44,0.5,0.5,0.33,0.5,0.5,0.44,0.5,0.25,0.55,0.5,0.5,0.25,0.55,0.28,0.5,0.44,0.25,0.55,0.33,0.5,0.39,0.28,0.28,0.28,0.5,0.28,0.28,0.5,0.5,0.44,0.28,0.25,0.55,0.67,0.44,0.5,0.28,0.44,0.72,0.25,0.55,0.67,0.5,0.44,0.33,0.5,0.25,0.55,0.5,0.33,0.25,0.55,0.28,0.5,0.44,0.25" style="fill:rgb(23,22,21);font-family:TimesNewRomanPSMT;font-size:10.0px;stroke:none;">were approved by the Institutional Review Board of the </text>
   <text y="637.5" x="56.69,63.36,68.36,71.14,73.92,78.36,83.36,87.8,90.3,91.12,96.12,99.45,101.95,102.78,111.67,116.11,121.11,123.89,128.33,131.11,136.11,140.55,143.05,143.87,148.31,151.09,154.24,160.35,165.35,169.79,172.29,173.12,179.79,184.23,187.01,192.01,197.01,199.79,202.57,207.01,209.51,210.33,217.55,222.55,225.33,230.33,234.77,238.1,241.99,244.77,247.55,252.55,255.05,255.88,260.88,264.21,266.71,267.54,274.76,279.76,283.09,287.53,291.97" svgx:width="0.67,0.5,0.28,0.28,0.44,0.5,0.44,0.25,0.55,0.5,0.33,0.25,0.55,0.89,0.44,0.5,0.28,0.44,0.28,0.5,0.44,0.25,0.55,0.44,0.28,0.25,0.61,0.5,0.44,0.25,0.55,0.67,0.44,0.28,0.5,0.5,0.28,0.28,0.44,0.25,0.55,0.72,0.5,0.28,0.5,0.44,0.33,0.39,0.28,0.28,0.5,0.25,0.55,0.5,0.33,0.25,0.55,0.72,0.5,0.33,0.44,0.44,0.25" style="fill:rgb(23,22,21);font-family:TimesNewRomanPSMT;font-size:10.0px;stroke:none;">College of Medicine at The Catholic University of Korea </text>
   <text y="651.0" x="56.69,60.02,64.46,69.46,74.46,77.79,82.79,87.79,92.23,95.01,97.51,100.84,108.06,110.84,113.34,122.23,128.9,133.9,138.9,146.12,149.45,155.01,158.34,163.34,168.34,173.34,178.34,181.67" svgx:width="0.33,0.44,0.5,0.5,0.33,0.5,0.5,0.44,0.28,0.25,0.33,0.72,0.28,0.25,0.89,0.67,0.5,0.5,0.72,0.33,0.56,0.33,0.5,0.5,0.5,0.5,0.33,0.25" style="fill:rgb(23,22,21);font-family:TimesNewRomanPSMT;font-size:10.0px;stroke:none;">(approval ID: MC14OISI0065).</text>
   <text y="678.0" x="56.69,63.91,68.91,73.91,76.69,79.47,82.25,87.25,90.03,92.81,97.25,101.69,104.19,109.19,111.97,114.47,117.25,121.69,125.58,128.36,130.86,134.19,141.41,146.97,153.08,158.64" svgx:width="0.72,0.5,0.5,0.28,0.28,0.28,0.5,0.28,0.28,0.44,0.44,0.25,0.5,0.28,0.25,0.28,0.44,0.39,0.28,0.25,0.33,0.72,0.56,0.61,0.56,0.33" style="fill:rgb(23,22,21);font-family:TimesNewRomanPS-ItalicMT;font-size:10.0px;stroke:none;">Qualitative fit test (QLFT)</text>
   <text y="691.5" x="66.61,73.28,75.78,76.88,84.39,90.79,96.64,102.57,105.07,106.17,113.68,118.41,122.3,124.8,125.9,131.19,135.92,139.54,143.16,148.45,152.07,160.14,164.87,169.87,172.37,173.47,178.76,182.94,186.01,191.3,196.3,198.8,199.9,204.34,206.84,207.94,213.23,222.12,224.62,225.72,233.23,238.52,243.25,246.32,249.39,252.46,257.19,260.26,263.33,268.62,273.06,275.56,276.66,282.51,285.58,288.65" svgx:width="0.72,0.25,0.55,0.72,0.61,0.56,0.61,0.25,0.55,0.72,0.44,0.39,0.25,0.55,0.5,0.44,0.33,0.33,0.5,0.33,0.78,0.44,0.5,0.25,0.55,0.5,0.39,0.28,0.5,0.5,0.25,0.55,0.44,0.25,0.55,0.5,0.89,0.25,0.55,0.72,0.5,0.44,0.28,0.28,0.28,0.44,0.28,0.28,0.5,0.44,0.25,0.55,0.56,0.28,0.28,0.33" style="fill:rgb(23,22,21);font-family:TimesNewRomanPSMT;font-size:10.0px;stroke:none;">A QLFT was performed using a 3M Qualitative Fit-</text>
   <text y="705.0" x="56.69,62.66,67.66,72.11,75.45,78.79,84.35,89.38,91.88,93.01,96.35,101.91,107.47,110.28,112.78,113.91,117.8,123.36" svgx:width="0.61,0.44,0.39,0.28,0.28,0.5,0.5,0.25,0.55,0.28,0.5,0.5,0.28,0.25,0.55,0.33,0.5,0.89" style="fill:rgb(23,22,21);font-family:TimesNewRomanPSMT;font-size:10.0px;stroke:none;">Testing tool (3M</text>
   <text y="700.707" x="132.797,137.466" svgx:width="0.61,0.89" style="fill:rgb(23,22,21);font-family:TimesNewRomanPSMT;font-size:7.0px;stroke:none;">TM</text>
   <text y="705.0" x="144.078,147.968,154.088,160.758,166.318,171.348,173.848,174.978,180.538,183.878,187.218,189.748,192.248,193.378,198.938,207.858,210.358,211.488,218.718,224.278,227.338,229.868,232.368,233.498,239.618,242.428,244.928,246.058,252.178,257.178,262.738,266.078,268.608,271.108,272.238,281.688,289.468,291.968" svgx:width="0.33,0.56,0.61,0.5,0.5,0.25,0.55,0.5,0.28,0.28,0.25,0.25,0.55,0.5,0.89,0.25,0.55,0.67,0.5,0.25,0.25,0.25,0.55,0.56,0.28,0.25,0.55,0.56,0.44,0.5,0.28,0.25,0.25,0.55,0.89,0.72,0.25,0.25" style="fill:rgb(23,22,21);font-family:TimesNewRomanPSMT;font-size:10.0px;stroke:none;">-FT10 kit, 3M Cp., St Paul, MN, </text>
   <text y="718.5" x="56.688,63.908,69.468,76.688,80.018,82.518,85.018,86.018,92.688,97.128,100.458,105.458,108.788,113.228,115.728,116.718,119.498,124.498,128.938,131.438,132.428,137.988,140.768,143.268,144.258,147.038,151.478,155.368,158.148,160.648,163.148,164.138,168.578,171.078,172.068,175.958,180.398,183.728,188.168,192.608,197.608,200.388,205.388,210.388,212.888,213.878,216.658,221.098,224.988,227.768,230.268,231.258,238.478,242.918,246.808,249.308,250.308,255.308,259.748,263.078,266.408,271.408,274.738,282.518,286.958,291.958" svgx:width="0.72,0.56,0.72,0.33,0.25,0.25,0.55,0.67,0.44,0.33,0.5,0.33,0.44,0.25,0.55,0.28,0.5,0.44,0.25,0.55,0.56,0.28,0.25,0.55,0.28,0.44,0.39,0.28,0.25,0.25,0.55,0.44,0.25,0.55,0.39,0.44,0.33,0.44,0.44,0.5,0.28,0.5,0.5,0.25,0.55,0.28,0.44,0.39,0.28,0.25,0.55,0.72,0.44,0.39,0.25,0.55,0.5,0.44,0.33,0.33,0.5,0.33,0.78,0.44,0.5,0.25" style="fill:rgb(23,22,21);font-family:TimesNewRomanPSMT;font-size:10.0px;stroke:none;">USA). Before the fit test, a screening test was performed </text>
   <text y="732.0" x="56.688,61.888,65.978,68.958,74.158,79.158,81.658,82.758,87.198,89.698,90.798,94.888,99.528,104.728,108.818,111.798,114.778,117.758,122.958,125.938,128.918,133.918,136.418,137.518,141.608,146.808,149.788,154.988,157.968,160.948,166.148,171.148,173.648,174.748,178.278,183.478,186.178,191.378,196.418,198.918,203.918,206.418,207.518,212.718,216.048,218.548,219.648,223.738,228.378,233.018,237.658,242.858,247.498,251.028,254.008,259.208,262.188,267.388,272.588,277.608,280.108,281.208,289.188,291.968" svgx:width="0.5,0.39,0.28,0.5,0.5,0.25,0.55,0.44,0.25,0.55,0.39,0.44,0.5,0.39,0.28,0.28,0.28,0.5,0.28,0.28,0.5,0.25,0.55,0.39,0.5,0.28,0.5,0.28,0.28,0.5,0.5,0.25,0.55,0.33,0.5,0.25,0.5,0.5,0.25,0.5,0.25,0.55,0.5,0.33,0.25,0.55,0.39,0.44,0.44,0.44,0.5,0.44,0.33,0.28,0.5,0.28,0.5,0.5,0.5,0.25,0.55,0.78,0.28,0.25" style="fill:rgb(23,22,21);font-family:TimesNewRomanPSMT;font-size:10.0px;stroke:none;">using a sensitivity solution (0.83 g of saccharin/100 ml </text>
   <text y="84.0" x="308.978,314.048,317.378,319.878,320.978,326.048,328.898,332.868,335.718,338.568,341.418,344.268,348.778,353.778,356.278,357.378,364.678,369.188,372.038,376.548,379.948,383.348,385.848,388.898,396.198,399.048,401.828,404.328,405.428,410.498,415.008,418.408,421.258,424.108,428.618,431.468,436.538,441.048,446.118,448.968,452.858,455.358,456.458,461.528,466.038,470.008,473.978,478.488,483.488,485.988,487.088,489.938,495.008,499.448,501.948,503.048,505.898,510.408,514.378,517.228,519.728,522.778,530.078,533.478,536.328,540.838,544.168" svgx:width="0.5,0.33,0.25,0.55,0.5,0.28,0.39,0.28,0.28,0.28,0.28,0.44,0.5,0.25,0.55,0.72,0.44,0.28,0.44,0.33,0.33,0.25,0.25,0.72,0.28,0.28,0.25,0.55,0.5,0.44,0.33,0.28,0.28,0.44,0.28,0.5,0.44,0.5,0.28,0.39,0.25,0.55,0.5,0.44,0.39,0.39,0.44,0.5,0.25,0.55,0.28,0.5,0.44,0.25,0.55,0.28,0.44,0.39,0.28,0.25,0.25,0.72,0.33,0.28,0.44,0.33,0.25" style="fill:rgb(23,22,21);font-family:TimesNewRomanPSMT;font-size:10.0px;stroke:none;">of distilled water). All participants passed the test. After </text>
   <text y="97.5" x="308.978,311.918,317.078,321.518,324.018,325.118,329.168,333.768,337.258,341.858,346.458,351.618,354.558,359.718,364.718,367.218,368.318,371.258,375.858,379.908,382.848,385.348,387.848,388.948,391.888,397.048,401.488,403.988,405.088,410.248,414.848,418.338,421.278,424.218,428.818,431.758,436.918,441.518,446.678,449.458,451.958,453.058,458.218,461.708,466.308,471.468,476.468,478.968,480.068,485.068,487.568,488.668,493.268,498.428,503.428,505.928,507.028,512.188,515.518,518.018,519.118,526.498,531.098,534.038,538.638,541.728,544.228" svgx:width="0.28,0.5,0.44,0.25,0.55,0.39,0.44,0.33,0.44,0.44,0.5,0.28,0.5,0.5,0.25,0.55,0.28,0.44,0.39,0.28,0.25,0.25,0.55,0.28,0.5,0.44,0.25,0.55,0.5,0.44,0.33,0.28,0.28,0.44,0.28,0.5,0.44,0.5,0.28,0.25,0.55,0.5,0.33,0.44,0.5,0.5,0.25,0.55,0.5,0.25,0.55,0.44,0.5,0.5,0.25,0.55,0.5,0.33,0.25,0.55,0.72,0.44,0.28,0.44,0.33,0.25,0.25" style="fill:rgb(23,22,21);font-family:TimesNewRomanPSMT;font-size:10.0px;stroke:none;">the screening test, the participant drank 1 cup of water, </text>
   <text y="111.0" x="308.978,313.978,318.418,321.568,326.568,329.348,333.788,338.788,341.568,346.568,349.348,353.238,356.018,361.018,364.348,367.128,372.128,376.568,379.898,382.678,390.458,395.458,400.458,403.238,408.238,411.018,418.238,421.018,423.798,428.798,431.578,436.578,439.358,443.798,448.798,453.798,457.688,460.468,465.468,468.798,471.578,478.798,483.238,486.018,490.458,493.388,495.888,498.668,503.108,508.108,513.108,515.888,518.668,523.108,526.438,529.218,531.998,534.778,539.778,544.218" svgx:width="0.5,0.44,0.33,0.5,0.28,0.44,0.5,0.25,0.5,0.28,0.39,0.25,0.5,0.33,0.25,0.5,0.44,0.33,0.25,0.78,0.5,0.5,0.28,0.5,0.25,0.72,0.28,0.28,0.5,0.25,0.5,0.25,0.44,0.5,0.5,0.39,0.25,0.5,0.33,0.25,0.72,0.44,0.28,0.44,0.33,0.25,0.25,0.44,0.5,0.5,0.25,0.28,0.44,0.33,0.28,0.25,0.28,0.5,0.44,0.25" style="fill:rgb(23,22,21);font-family:TimesNewRomanPSMT;font-size:10.0px;stroke:none;">gargled his or her mouth with 2 cups of water, and left the </text>
   <text y="124.5" x="308.978,313.418,318.418,323.418,327.858,331.188,333.968,341.748,346.188,351.188,353.968,356.858,360.188,365.188,370.188,377.968,380.468,383.178,389.288,394.288,398.728,401.618,406.618,411.058,414.388,417.168,419.948,424.388,427.168,432.168,436.608,441.598,444.378,447.268,451.158,455.598,458.378,462.818,467.258,470.038,474.478,479.478,482.368,486.808,491.808,496.808,499.698,504.698,509.698,514.698,519.698,524.138,529.138,532.028,534.808,539.808,544.248" svgx:width="0.44,0.5,0.5,0.44,0.33,0.28,0.78,0.44,0.5,0.28,0.25,0.33,0.5,0.5,0.78,0.25,0.25,0.61,0.5,0.44,0.25,0.5,0.44,0.33,0.28,0.28,0.44,0.28,0.5,0.44,0.5,0.28,0.25,0.39,0.44,0.28,0.44,0.44,0.28,0.44,0.5,0.25,0.44,0.5,0.5,0.25,0.5,0.5,0.5,0.5,0.44,0.5,0.25,0.28,0.5,0.44,0.25" style="fill:rgb(23,22,21);font-family:TimesNewRomanPSMT;font-size:10.0px;stroke:none;">experiment room. The participant selected and donned the </text>
   <text y="138.0" x="308.978,315.648,321.208,327.318,329.818,332.598,338.158,341.488,346.488,350.928,355.368,360.368,365.368,368.698,373.138,377.028,379.808,384.808,388.138,390.918,393.698,398.698,403.138,405.918,411.478,414.258,417.038,419.818,424.258,428.148,430.928,433.708,438.148,443.148,448.148,452.038,454.818,458.708,461.488,465.928,470.928,473.708,478.708,482.038,484.818,489.818,494.818,498.148,505.928,510.368,513.148,515.928,520.928,524.258,528.698,533.138,535.918,540.928" svgx:width="0.67,0.56,0.61,0.25,0.25,0.56,0.33,0.5,0.44,0.44,0.5,0.5,0.33,0.44,0.39,0.25,0.5,0.33,0.25,0.28,0.5,0.44,0.25,0.56,0.28,0.25,0.28,0.44,0.39,0.28,0.25,0.44,0.5,0.5,0.39,0.28,0.39,0.28,0.44,0.5,0.25,0.5,0.33,0.25,0.5,0.5,0.33,0.78,0.44,0.28,0.25,0.5,0.33,0.44,0.44,0.28,0.5,0.33" style="fill:rgb(23,22,21);font-family:TimesNewRomanPSMT;font-size:10.0px;stroke:none;">RPE. Procedures of the fit test consisted of normal breath-</text>
   <text y="151.5" x="308.978,311.758,316.758,321.758,324.258,327.158,332.158,336.598,341.038,346.038,348.938,353.938,357.268,361.708,366.148,368.928,373.928,376.708,381.708,386.708,389.208,392.108,399.888,404.888,409.888,412.668,417.668,422.668,425.568,428.348,433.348,437.788,440.688,445.688,450.128,454.568,459.568,462.468,466.358,469.138,474.138,478.578,481.478,484.258,489.258,492.158,496.048,498.828,503.828,508.268,510.768,513.668,521.448,526.448,531.448,534.228,539.228,544.228" svgx:width="0.28,0.5,0.5,0.25,0.25,0.5,0.44,0.44,0.5,0.25,0.5,0.33,0.44,0.44,0.28,0.5,0.28,0.5,0.5,0.25,0.25,0.78,0.5,0.5,0.28,0.5,0.5,0.25,0.28,0.5,0.44,0.25,0.5,0.44,0.44,0.5,0.25,0.39,0.28,0.5,0.44,0.25,0.28,0.5,0.25,0.39,0.28,0.5,0.44,0.25,0.25,0.78,0.5,0.5,0.28,0.5,0.5,0.25" style="fill:rgb(23,22,21);font-family:TimesNewRomanPSMT;font-size:10.0px;stroke:none;">ing, deep breathing, moving the head side to side, moving </text>
   <text y="165.0" x="308.978,311.758,316.758,321.198,323.698,324.738,329.738,334.178,338.618,343.618,346.118,347.158,352.158,357.158,359.658,360.698,365.138,370.138,375.138,377.638,378.678,383.678,388.678,395.898,400.898,403.398,405.898,406.938,409.718,414.158,416.938,421.938,424.718,429.718,434.718,437.218,438.258,441.038,446.038,451.038,456.038,458.818,463.168,465.668,468.168,469.208,473.648,478.648,483.648,486.148,487.188,491.628,494.128,495.168,499.058,503.498,507.938,512.938,517.938,522.938,525.438,526.478,531.478,536.478,541.478,544.258" svgx:width="0.28,0.5,0.44,0.25,0.55,0.5,0.44,0.44,0.5,0.25,0.55,0.5,0.5,0.25,0.55,0.44,0.5,0.5,0.25,0.55,0.5,0.5,0.72,0.5,0.25,0.25,0.55,0.28,0.44,0.28,0.5,0.28,0.5,0.5,0.25,0.55,0.28,0.5,0.5,0.5,0.28,0.5,0.25,0.25,0.55,0.44,0.5,0.5,0.25,0.55,0.44,0.25,0.55,0.39,0.44,0.44,0.5,0.5,0.5,0.25,0.55,0.5,0.5,0.5,0.28,0.25" style="fill:rgb(23,22,21);font-family:TimesNewRomanPSMT;font-size:10.0px;stroke:none;">the head up and down, talking loudly, and a second bout </text>
   <text y="178.5" x="308.978,313.978,317.308,319.988,324.988,329.988,333.318,341.098,345.538,348.318,350.988,355.988,359.318,363.758,368.198,370.978,375.978,378.758,383.758,388.758,391.258,393.748,399.858,404.858,409.298,411.978,414.758,419.198,423.088,425.868,428.548,432.438,437.438,440.218,445.218,447.998,450.778,455.778,460.778,463.458,470.678,475.118,479.008,481.688,486.688,491.688,496.688,499.368,502.148,504.928,512.708,517.148,521.038,523.708,531.488,536.488,539.818,544.258" svgx:width="0.5,0.33,0.25,0.5,0.5,0.33,0.78,0.44,0.28,0.25,0.5,0.33,0.44,0.44,0.28,0.5,0.28,0.5,0.5,0.25,0.25,0.61,0.5,0.44,0.25,0.28,0.44,0.39,0.28,0.25,0.39,0.5,0.28,0.5,0.28,0.28,0.5,0.5,0.25,0.72,0.44,0.39,0.25,0.5,0.5,0.5,0.25,0.28,0.28,0.78,0.44,0.39,0.25,0.78,0.5,0.33,0.44,0.25" style="fill:rgb(23,22,21);font-family:TimesNewRomanPSMT;font-size:10.0px;stroke:none;">of normal breathing. The test solution was 100 times more </text>
   <text y="192.0" x="308.978,313.418,318.418,323.418,327.858,332.298,337.298,340.078,343.408,347.848,350.628,355.068,360.068,363.318,366.648,371.648,376.648,379.148,384.148,386.648,387.408,392.408,395.738,398.238,399.008,402.898,407.338,411.778,416.218,421.218,425.658,428.988,431.768,436.768,439.548,444.548,449.548,454.548,457.048,457.808,465.588,468.368,470.868,471.628,476.628,479.958,482.458,483.218,488.218,490.998,494.888,497.668,500.448,503.228,506.008,510.448,515.448,517.948,518.708,525.928,530.368,533.148,537.588,540.918,544.248" svgx:width="0.44,0.5,0.5,0.44,0.44,0.5,0.28,0.33,0.44,0.28,0.44,0.5,0.25,0.33,0.5,0.5,0.25,0.5,0.25,0.55,0.5,0.33,0.25,0.55,0.39,0.44,0.44,0.44,0.5,0.44,0.33,0.28,0.5,0.28,0.5,0.5,0.5,0.25,0.55,0.78,0.28,0.25,0.55,0.5,0.33,0.25,0.55,0.5,0.28,0.39,0.28,0.28,0.28,0.28,0.44,0.5,0.25,0.55,0.72,0.44,0.28,0.44,0.33,0.33,0.25" style="fill:rgb(23,22,21);font-family:TimesNewRomanPSMT;font-size:10.0px;stroke:none;">concentrated (83 g of saccharin/100 ml of distilled water) </text>
   <text y="205.5" x="308.978,311.948,317.138,321.768,326.768,329.268,330.368,333.338,338.528,342.968,345.468,346.568,350.658,355.288,360.478,364.568,367.538,370.508,373.478,378.678,381.648,384.618,389.618,392.118,393.218,397.308,402.498,405.468,410.658,413.628,416.598,421.798,426.988,429.488,431.988,432.908,439.208,444.398,448.838,451.338,452.438,459.858,466.158,471.918,477.848,480.348,481.448,488.868,493.498,497.388,499.888,500.988,506.178,510.808,514.328,517.858,523.048,526.568,534.538,539.168,544.168" svgx:width="0.28,0.5,0.44,0.5,0.25,0.55,0.28,0.5,0.44,0.25,0.55,0.39,0.44,0.5,0.39,0.28,0.28,0.28,0.5,0.28,0.28,0.5,0.25,0.55,0.39,0.5,0.28,0.5,0.28,0.28,0.5,0.5,0.25,0.25,0.55,0.61,0.5,0.44,0.25,0.55,0.72,0.61,0.56,0.61,0.25,0.55,0.72,0.44,0.39,0.25,0.55,0.5,0.44,0.33,0.33,0.5,0.33,0.78,0.44,0.5,0.25" style="fill:rgb(23,22,21);font-family:TimesNewRomanPSMT;font-size:10.0px;stroke:none;">than the sensitivity solution. The QLFT was performed </text>
   <text y="219.0" x="308.978,313.978,318.418,321.748,326.748,330.078,334.518,337.018,341.458,346.458,351.458,353.958,358.398,361.728,364.508,368.948,372.278,374.778,377.558,382.558,386.998,389.498,396.168,401.728,407.838,410.338,414.778,419.778,424.778,429.218,433.658,436.438,439.218,444.218,449.218,451.718,456.718,460.048,465.048,470.048,473.378,477.818,485.598" svgx:width="0.5,0.44,0.33,0.5,0.33,0.44,0.25,0.44,0.5,0.5,0.25,0.44,0.33,0.28,0.44,0.33,0.25,0.28,0.5,0.44,0.25,0.67,0.56,0.61,0.25,0.44,0.5,0.5,0.44,0.44,0.28,0.28,0.5,0.5,0.25,0.5,0.33,0.5,0.5,0.33,0.44,0.78,0.25" style="fill:rgb(23,22,21);font-family:TimesNewRomanPSMT;font-size:10.0px;stroke:none;">before and after the RPE education program.</text>
   <text y="246.0" x="308.978,316.198,321.198,326.198,331.198,333.978,336.758,339.538,344.538,347.318,350.098,354.538,358.978,361.478,366.478,369.258,371.758,374.538,378.978,382.868,385.648,388.148,391.478,398.698,405.368,411.478,417.038" svgx:width="0.72,0.5,0.5,0.5,0.28,0.28,0.28,0.5,0.28,0.28,0.44,0.44,0.25,0.5,0.28,0.25,0.28,0.44,0.39,0.28,0.25,0.33,0.72,0.67,0.61,0.56,0.33" style="fill:rgb(23,22,21);font-family:TimesNewRomanPS-ItalicMT;font-size:10.0px;stroke:none;">Quantitative fit test (QNFT)</text>
   <text y="259.5" x="318.898,325.278,330.548,334.988,337.488,338.588,344.418,349.688,353.288,356.338,361.048,365.758,371.028,376.298,381.568,384.348,386.848,387.948,393.778,397.378,402.378,404.878,405.978,411.808,414.858,420.128,424.018,426.518,427.618,432.888,438.158,443.428,448.428,450.928,452.028,455.628,462.008,467.838,471.168,473.668,474.768,478.368,483.638,488.348,491.118,493.618,496.118,497.218,503.048,508.318,513.588,517.188,521.898,527.168,530.218,534.928,541.768,544.268" svgx:width="0.61,0.5,0.44,0.25,0.55,0.56,0.5,0.33,0.28,0.44,0.44,0.5,0.5,0.5,0.28,0.25,0.55,0.56,0.33,0.5,0.25,0.55,0.56,0.28,0.5,0.39,0.25,0.55,0.5,0.5,0.5,0.5,0.25,0.55,0.33,0.61,0.56,0.33,0.25,0.55,0.33,0.5,0.44,0.25,0.25,0.25,0.55,0.56,0.5,0.5,0.33,0.44,0.5,0.28,0.44,0.72,0.25,0.25" style="fill:rgb(23,22,21);font-family:TimesNewRomanPSMT;font-size:10.0px;stroke:none;">The Portacount Pro Plus 8038 (TSI Inc., Shoreview, </text>
   <text y="273.0" x="308.978,317.868,325.088,327.588,330.088,331.118,338.338,343.898,351.118,354.448,356.948,357.978,365.198,369.638,373.528,376.028,377.058,382.058,385.948,390.388,395.388,397.888,398.918,402.248,407.248,410.578,413.078,414.108,416.888,421.888,426.328,428.828,429.858,437.078,444.298,449.858,455.228,457.728,460.228,461.078,467.188,472.188,474.968,478.858,481.358,482.388,485.168,490.168,494.058,496.838,500.168,505.168,512.948,517.388,522.388,525.168,527.668,528.688,535.908,540.348,544.238" svgx:width="0.89,0.72,0.25,0.25,0.55,0.72,0.56,0.72,0.33,0.25,0.55,0.72,0.44,0.39,0.25,0.55,0.5,0.39,0.44,0.5,0.25,0.55,0.33,0.5,0.33,0.25,0.55,0.28,0.5,0.44,0.25,0.55,0.72,0.72,0.56,0.61,0.25,0.25,0.55,0.61,0.5,0.28,0.39,0.25,0.55,0.28,0.5,0.39,0.28,0.33,0.5,0.78,0.44,0.5,0.28,0.25,0.55,0.72,0.44,0.39,0.25" style="fill:rgb(23,22,21);font-family:TimesNewRomanPSMT;font-size:10.0px;stroke:none;">MN, USA) was used for the QNFT. This instrument was </text>
   <text y="286.5" x="308.978,313.878,318.788,324.258,329.158,334.628,337.878,342.318,344.818,345.918,351.388,354.718,357.218,358.318,362.678,368.148,373.618,379.088,384.558,388.358,391.598,394.838,400.308,405.308,407.808,408.908,412.148,417.618,422.058,424.558,425.658,433.348,441.038,447.068,452.998,455.498,456.598,460.398,465.868,469.198,471.698,472.798,480.488,485.958,490.958,493.458,494.558,502.798,507.698,512.058,517.528,521.888,524.388,526.888,527.808,534.388,539.858,544.298" svgx:width="0.44,0.44,0.5,0.44,0.5,0.28,0.44,0.25,0.55,0.5,0.33,0.25,0.55,0.39,0.5,0.5,0.5,0.5,0.33,0.28,0.28,0.5,0.5,0.25,0.55,0.28,0.5,0.44,0.25,0.55,0.72,0.72,0.56,0.61,0.25,0.55,0.33,0.5,0.33,0.25,0.55,0.72,0.5,0.5,0.25,0.55,0.78,0.44,0.39,0.5,0.39,0.25,0.25,0.55,0.61,0.5,0.44,0.25" style="fill:rgb(23,22,21);font-family:TimesNewRomanPSMT;font-size:10.0px;stroke:none;">capable of supporting the QNFT for N95 masks. The </text>
   <text y="300.0" x="308.978,313.978,317.308,322.308,327.308,331.748,334.458,337.788,342.788,346.118,348.828,356.048,363.268,368.828,374.758,377.468,384.688,389.128,393.018,395.728,398.508,403.508,407.398,410.178,414.618,417.398,420.178,424.618,429.618,432.318,436.758,439.538,442.248,445.028,450.028,454.468,457.178,464.958,467.738,472.738,477.738,482.738,485.518,490.518,493.298,495.998,500.998,505.438,508.218,515.438,519.878,524.318,529.318,532.028,534.808,539.808,544.248" svgx:width="0.5,0.33,0.5,0.5,0.44,0.25,0.33,0.5,0.33,0.25,0.72,0.72,0.56,0.61,0.25,0.72,0.44,0.39,0.25,0.28,0.5,0.39,0.28,0.44,0.28,0.28,0.44,0.5,0.25,0.44,0.28,0.25,0.28,0.5,0.44,0.25,0.78,0.28,0.5,0.5,0.5,0.28,0.5,0.28,0.25,0.5,0.44,0.28,0.72,0.44,0.44,0.5,0.25,0.28,0.5,0.44,0.25" style="fill:rgb(23,22,21);font-family:TimesNewRomanPSMT;font-size:10.0px;stroke:none;">probe for QNFT was installed at the midpoint between the </text>
   <text y="313.5" x="308.978,314.138,319.298,323.348,327.788,330.288,331.388,335.988,341.148,346.148,348.648,349.748,357.688,362.848,368.008,370.948,376.108,378.608,381.108,382.028,388.298,393.458,397.898,400.398,401.498,408.878,416.258,421.978,427.908,430.408,431.508,436.668,440.158,445.318,449.918,454.518,459.678,464.838,468.328,472.928,476.818,479.318,480.418,487.798,492.398,495.888,500.328,502.828,503.928,507.978,510.918,518.858,521.798,524.738,529.338,532.668,535.168,536.268,539.208,544.208" svgx:width="0.5,0.5,0.39,0.44,0.25,0.55,0.44,0.5,0.5,0.25,0.55,0.78,0.5,0.5,0.28,0.5,0.25,0.25,0.55,0.61,0.5,0.44,0.25,0.55,0.72,0.72,0.56,0.61,0.25,0.55,0.5,0.33,0.5,0.44,0.44,0.5,0.5,0.33,0.44,0.39,0.25,0.55,0.72,0.44,0.33,0.44,0.25,0.55,0.39,0.28,0.78,0.28,0.28,0.44,0.33,0.25,0.55,0.28,0.5,0.25" style="fill:rgb(23,22,21);font-family:TimesNewRomanPSMT;font-size:10.0px;stroke:none;">nose and mouth. The QNFT procedures were similar to </text>
   <text y="327.0" x="308.978,311.748,316.738,321.728,325.618,330.048,332.538,337.528,340.848,343.338,346.108,351.098,355.528,358.018,365.238,371.338,376.898,382.258,384.748,387.238,394.458,397.228,399.998,404.988,407.478,410.248,415.238,419.668,422.158,426.588,431.578,436.568,439.338,442.108,444.878,449.868,454.858,457.348,462.338,465.658,468.148,473.138,476.458,479.228,486.998,491.428,495.858,500.288,502.778,505.268,510.258,514.688,519.678,524.668,527.158,529.648,534.078,539.068,544.068" svgx:width="0.28,0.5,0.5,0.39,0.44,0.25,0.5,0.33,0.25,0.28,0.5,0.44,0.25,0.72,0.61,0.56,0.61,0.25,0.25,0.72,0.28,0.28,0.5,0.25,0.28,0.5,0.44,0.25,0.44,0.5,0.5,0.28,0.28,0.28,0.5,0.5,0.25,0.5,0.33,0.25,0.5,0.33,0.28,0.78,0.44,0.44,0.44,0.25,0.25,0.5,0.44,0.5,0.5,0.25,0.25,0.44,0.5,0.5,0.25" style="fill:rgb(23,22,21);font-family:TimesNewRomanPSMT;font-size:10.0px;stroke:none;">those of the QLFT, with the addition of grimace, bend, and </text>
   <text y="340.5" x="308.978,311.748,316.738,321.168,324.488,327.258,332.248,337.238,341.668,346.658,349.148,356.918,361.908,366.898,371.328,379.098,383.528,388.518,391.288,395.168,397.658,400.148,407.358,412.348,415.668,418.438,423.428,428.418,430.908,433.678,438.668,443.098,445.588,452.798,460.008,465.558,470.908,473.398,475.888,480.878,485.308,488.628,491.398,494.168,498.598,501.368,506.358,510.788,515.778,518.548,522.428,524.918,532.128,536.558,539.878,544.318" svgx:width="0.28,0.5,0.44,0.33,0.28,0.5,0.5,0.44,0.5,0.25,0.78,0.5,0.5,0.44,0.78,0.44,0.5,0.28,0.39,0.25,0.25,0.72,0.5,0.33,0.28,0.5,0.5,0.25,0.28,0.5,0.44,0.25,0.72,0.72,0.56,0.61,0.25,0.25,0.5,0.44,0.33,0.28,0.28,0.44,0.28,0.5,0.44,0.5,0.28,0.39,0.25,0.72,0.44,0.33,0.44,0.25" style="fill:rgb(23,22,21);font-family:TimesNewRomanPSMT;font-size:10.0px;stroke:none;">toe-touch movements. During the QNFT, participants were </text>
   <text y="354.0" x="308.978,313.418,318.418,321.198,325.638,328.138,330.918,335.918,338.418,346.198,351.198,356.198,358.978,361.758,366.758,370.088,372.588,375.368,380.368,384.808,387.308,391.748,396.748,401.188,406.188,411.188,415.628,419.518,422.018,424.798,429.798,432.298,437.858,440.638,443.138,446.468,450.908,455.348,458.128,463.128,466.458,470.348,472.848,475.628,480.628,483.128,486.458,490.898,495.338,498.118,500.618,503.398,506.178,513.958,518.398" svgx:width="0.44,0.5,0.28,0.44,0.25,0.28,0.5,0.25,0.78,0.5,0.5,0.28,0.28,0.5,0.33,0.25,0.28,0.5,0.44,0.25,0.44,0.5,0.44,0.5,0.5,0.44,0.39,0.25,0.28,0.5,0.25,0.56,0.28,0.25,0.33,0.44,0.44,0.28,0.5,0.33,0.39,0.25,0.28,0.5,0.25,0.33,0.44,0.44,0.28,0.25,0.28,0.28,0.78,0.44,0.25" style="fill:rgb(23,22,21);font-family:TimesNewRomanPSMT;font-size:10.0px;stroke:none;">able to monitor the changes in fit factors in real time.</text>
   <text y="367.5" x="318.898,326.118,328.898,331.678,334.688,337.468,342.468,346.908,349.918,354.918,358.248,363.248,367.688,372.128,376.018,379.908,384.348,388.238,391.258,394.588,399.588,402.918,405.928,413.148,420.368,425.928,431.858,434.868,439.308,444.308,449.308,452.318,459.538,465.648,471.208,477.138,480.148,487.368,491.808,495.138,499.578,502.588,507.588,512.028,515.358,518.688,523.688,527.018,534.798,539.238,544.238" svgx:width="0.72,0.28,0.28,0.25,0.28,0.5,0.44,0.25,0.5,0.33,0.5,0.44,0.44,0.39,0.39,0.44,0.39,0.25,0.33,0.5,0.33,0.25,0.72,0.72,0.56,0.61,0.25,0.44,0.5,0.5,0.25,0.72,0.61,0.56,0.61,0.25,0.72,0.44,0.33,0.44,0.25,0.5,0.44,0.33,0.33,0.5,0.33,0.78,0.44,0.5,0.25" style="fill:rgb(23,22,21);font-family:TimesNewRomanPSMT;font-size:10.0px;stroke:none;">All the processes for QNFT and QLFT were performed </text>
   <text y="381.0" x="308.978,313.418,317.858,322.298,327.298,330.628,335.628,338.408,343.408,348.408,350.908,353.688,358.688,361.188,368.408,373.968,381.188,387.858,390.358,393.688,398.688,403.688,406.188,412.858,418.418,425.088,427.588,432.588,437.588,442.588,447.588,450.088,455.088,460.088,465.088,468.418,470.918,474.808,477.588,482.028,487.028,492.028,496.468,499.798,504.798" svgx:width="0.44,0.44,0.44,0.5,0.33,0.5,0.28,0.5,0.5,0.25,0.28,0.5,0.25,0.72,0.56,0.72,0.72,0.25,0.33,0.5,0.5,0.25,0.67,0.56,0.67,0.25,0.5,0.5,0.5,0.5,0.25,0.5,0.5,0.5,0.33,0.25,0.39,0.28,0.44,0.5,0.5,0.44,0.33,0.5,0.39" style="fill:rgb(23,22,21);font-family:TimesNewRomanPSMT;font-size:10.0px;stroke:none;">according to OSHA (29 CFR 1910.134) standards</text>
   <text y="376.707" x="508.683,512.183" svgx:width="0.5,0.33" style="fill:rgb(23,22,21);font-family:TimesNewRomanPSMT;font-size:7.0px;stroke:none;">5)</text>
   <text y="381.0" x="514.515" svgx:width="0.25" style="fill:rgb(23,22,21);font-family:TimesNewRomanPSMT;font-size:10.0px;stroke:none;">.</text>
   <text y="408.0" x="308.975,316.195,321.195,326.195,328.975,331.755,334.535,338.975,341.475,345.915,350.915,355.915,358.695,362.205,367.205,369.985,372.485,377.485,380.265,382.765,389.985,395.545,401.655,407.035,409.535,414.535,419.535,424.535,427.035,434.255,440.925,447.035" svgx:width="0.72,0.5,0.5,0.28,0.28,0.28,0.44,0.25,0.44,0.5,0.5,0.28,0.39,0.5,0.28,0.25,0.5,0.28,0.25,0.72,0.56,0.61,0.56,0.25,0.5,0.5,0.5,0.25,0.72,0.67,0.61,0.56" style="fill:rgb(23,22,21);font-family:TimesNewRomanPS-ItalicMT;font-size:10.0px;stroke:none;">Quality control of QLFT and QNFT</text>
   <text y="421.5" x="318.895,325.985,328.635,331.285,334.465,339.335,342.535,346.845,351.155,353.805,356.454,360.764,365.074,368.254,372.564,377.434,382.304,385.484,390.354,395.224,399.534,402.184,404.834,407.484,412.354,415.534,419.844,424.714,429.584,432.234,435.434,440.304,442.954,446.134,451.004,454.204,459.074,463.384,467.694,471.454,475.214,479.524,483.284,486.464,493.554,497.864,501.064,505.374,508.554,511.754,516.064,520.934,523.584,527.894,534.984,539.294,544.164" svgx:width="0.72,0.28,0.28,0.25,0.5,0.33,0.44,0.44,0.28,0.28,0.44,0.44,0.25,0.44,0.5,0.5,0.25,0.5,0.5,0.44,0.28,0.28,0.28,0.5,0.25,0.44,0.5,0.5,0.28,0.33,0.5,0.28,0.25,0.5,0.33,0.5,0.44,0.44,0.39,0.39,0.44,0.39,0.25,0.72,0.44,0.33,0.44,0.25,0.33,0.44,0.5,0.28,0.44,0.72,0.44,0.5,0.25" style="fill:rgb(23,22,21);font-family:TimesNewRomanPSMT;font-size:10.0px;stroke:none;">All practice and quality control processes were reviewed </text>
   <text y="435.0" x="308.975,313.845,318.715,321.965,324.615,331.704,336.574,339.824,344.694,349.004,353.314,358.184,363.054,367.364,370.014,372.664,377.534,382.404,386.714,389.364,392.614,397.484,402.354,407.224,410.984,413.634,417.944,420.594,424.904,429.774,433.534,436.784,441.094,445.964,450.834,454.084,458.394,463.264,466.514,469.164,474.034,478.904,483.774,487.534,490.184,493.384,496.034,500.344,502.994,506.244,511.114,515.984,520.854,523.504,527.814,532.684,535.334,539.094,541.744,544.114" svgx:width="0.5,0.5,0.25,0.28,0.72,0.5,0.25,0.5,0.44,0.44,0.5,0.5,0.44,0.28,0.28,0.5,0.5,0.44,0.28,0.25,0.5,0.5,0.5,0.39,0.28,0.44,0.28,0.44,0.5,0.39,0.25,0.44,0.5,0.5,0.25,0.44,0.5,0.25,0.28,0.5,0.5,0.5,0.39,0.28,0.33,0.28,0.44,0.28,0.25,0.5,0.5,0.5,0.28,0.44,0.5,0.28,0.39,0.28,0.25,0.25" style="fill:rgb(23,22,21);font-family:TimesNewRomanPSMT;font-size:10.0px;stroke:none;">by two occupational physicians and an industrial hygienist. </text>
   <text y="448.5" x="308.975,314.255,321.345,326.215,328.764,333.634,337.944,342.254,347.124,351.994,356.304,358.954,361.604,366.474,371.344,375.654,378.304,380.854,385.724,390.594,395.464,399.224,401.874,406.184,408.834,413.144,418.014,421.774,424.324,427.524,434.064,437.824,443.254,445.804,450.114,454.984,459.854,462.404,471.164,474.924,480.354,483.554,485.924,488.474,495.564,500.434,505.304,507.854,514.944,519.254,522.454,526.764,529.314,533.624,537.934,540.924" svgx:width="0.61,0.72,0.5,0.25,0.5,0.44,0.44,0.5,0.5,0.44,0.28,0.28,0.5,0.5,0.44,0.28,0.25,0.5,0.5,0.5,0.39,0.28,0.44,0.28,0.44,0.5,0.39,0.25,0.33,0.67,0.39,0.56,0.25,0.44,0.5,0.5,0.25,0.89,0.39,0.56,0.33,0.25,0.25,0.72,0.5,0.5,0.25,0.72,0.44,0.33,0.44,0.25,0.44,0.44,0.33,0.33" style="fill:rgb(23,22,21);font-family:TimesNewRomanPSMT;font-size:10.0px;stroke:none;">Two occupational physicians (BJS and MJP), who were cer-</text>
   <text y="462.0" x="308.974,311.494,314.014,319.324,323.504,328.244,330.494,335.244,339.984,342.234,344.754,349.494,353.674,355.924,360.684,362.934,371.574,373.814,377.994,382.744,390.264,395.004,399.184,403.934,408.674,410.924,413.444,418.184,420.434,424.614,429.354,436.874,439.394,444.144,446.664,450.304,452.824,457.004,460.074,462.324,464.844,469.584,473.764,476.014,481.324,484.394,490.064,492.124,497.974,503.824,509.134,514.804,517.044,520.124,527.094,532.944,538.254,544.054" svgx:width="0.28,0.28,0.56,0.44,0.5,0.25,0.5,0.5,0.25,0.28,0.5,0.44,0.25,0.5,0.25,0.89,0.25,0.44,0.5,0.78,0.5,0.44,0.5,0.5,0.25,0.28,0.5,0.25,0.44,0.5,0.78,0.28,0.5,0.28,0.39,0.28,0.44,0.33,0.25,0.28,0.5,0.44,0.25,0.56,0.33,0.61,0.25,0.61,0.61,0.56,0.61,0.25,0.33,0.72,0.61,0.56,0.61,0.25" style="fill:rgb(23,22,21);font-family:TimesNewRomanPSMT;font-size:10.0px;stroke:none;">tified by the 3 M company to administer the FIT TEST (QLFT </text>
   <text y="475.5" x="308.974,313.284,318.154,323.024,325.394,332.484,339.574,345.004,350.984,354.184,356.554,361.424,366.294,368.664,372.424,377.294,382.164,386.474,388.844,393.714,398.584,401.234,406.104,408.474,413.344,418.214,423.084,427.954,430.324,432.694,437.564,441.874,445.074,448.274,453.144,456.344,463.994,468.304,473.174,475.544,478.194,483.064,487.374,489.744,495.174,497.824,500.194,502.844,507.154,510.914,513.564" svgx:width="0.44,0.5,0.5,0.25,0.72,0.72,0.56,0.61,0.33,0.25,0.5,0.5,0.25,0.39,0.5,0.5,0.44,0.25,0.5,0.5,0.28,0.5,0.25,0.5,0.5,0.5,0.5,0.25,0.25,0.5,0.44,0.33,0.33,0.5,0.33,0.78,0.44,0.5,0.25,0.28,0.5,0.44,0.25,0.56,0.28,0.25,0.28,0.44,0.39,0.28,0.25" style="fill:rgb(23,22,21);font-family:TimesNewRomanPSMT;font-size:10.0px;stroke:none;">and QNFT) on June 20th 2014, performed the fit test.</text>
   <text y="502.5" x="308.974,313.974,316.754,321.754,324.534,327.314,331.204,333.984,336.764,341.204,346.204,348.984,351.484,356.484,361.484,366.484,369.264,373.704,377.595,380.375" svgx:width="0.5,0.28,0.5,0.28,0.28,0.39,0.28,0.28,0.44,0.5,0.28,0.25,0.5,0.5,0.5,0.28,0.44,0.39,0.28,0.39" style="fill:rgb(23,22,21);font-family:TimesNewRomanPS-ItalicMT;font-size:10.0px;stroke:none;">Statistical analysis</text>
   <text y="516.0" x="318.895,326.194,329.044,331.774,334.274,335.324,339.294,342.144,346.654,349.504,352.354,356.324,359.174,362.024,366.534,371.044,373.774,376.274,377.324,381.834,386.904,391.414,394.264,399.334,403.304,407.814,411.654,414.154,415.204,422.504,427.014,430.414,434.804,437.304,438.354,443.424,447.934,451.334,454.734,459.804,463.204,471.054,475.564,480.514,483.014,484.064,489.134,493.104,495.954,501.024,505.974,508.474,509.524,515.164,522.464,527.974,530.474,531.524,536.594,539.164,544.114" svgx:width="0.72,0.28,0.28,0.25,0.55,0.39,0.28,0.44,0.28,0.28,0.39,0.28,0.28,0.44,0.44,0.28,0.25,0.55,0.44,0.5,0.44,0.28,0.5,0.39,0.44,0.39,0.25,0.55,0.72,0.44,0.33,0.44,0.25,0.55,0.5,0.44,0.33,0.33,0.5,0.33,0.78,0.44,0.5,0.25,0.55,0.5,0.39,0.28,0.5,0.5,0.25,0.55,0.56,0.72,0.56,0.25,0.55,0.5,0.25,0.5,0.25" style="fill:rgb(23,22,21);font-family:TimesNewRomanPSMT;font-size:10.0px;stroke:none;">All statistical analyses were performed using SAS 9.3 </text>
   <text y="529.5" x="308.974,312.544,318.344,325.804,331.314,333.814,334.864,338.434,343.674,347.804,350.824,353.844,356.864,362.104,365.124,369.804,372.254,374.754,375.804,382.714,387.394,390.964,395.554,398.004,400.504,401.554,409.014,415.924,418.374,420.874,421.924,429.384,435.184,442.644,446.214,448.664,451.164,452.034,458.384,463.624,468.014,470.514,471.564,476.244,481.484,486.164,489.734,494.414,499.094,502.114,506.794,510.364,513.384,517.514,520.534,523.554,528.234,532.074,534.574,535.624,540.864,544.144" svgx:width="0.33,0.56,0.72,0.56,0.25,0.55,0.33,0.5,0.39,0.28,0.28,0.28,0.5,0.28,0.44,0.25,0.25,0.55,0.67,0.44,0.33,0.5,0.25,0.25,0.55,0.72,0.67,0.25,0.25,0.55,0.72,0.56,0.72,0.33,0.25,0.25,0.55,0.61,0.5,0.44,0.25,0.55,0.44,0.5,0.44,0.33,0.44,0.44,0.28,0.44,0.33,0.28,0.39,0.28,0.28,0.44,0.39,0.25,0.55,0.5,0.33,0.25" style="fill:rgb(23,22,21);font-family:TimesNewRomanPSMT;font-size:10.0px;stroke:none;">(SAS Institute, Cary, NC, USA). The characteristics of </text>
   <text y="543.0" x="308.974,313.954,318.375,321.685,324.445,327.205,331.625,334.385,339.365,343.785,348.765,351.525,355.365,357.865,358.915,366.115,370.535,373.845,378.235,380.735,381.785,386.765,391.185,395.055,399.475,402.785,405.545,410.525,414.945,419.895,422.395,423.445,427.865,431.705,434.205,435.255,443.015,447.435,451.855,456.835,460.675,463.175,464.225,468.645,473.625,478.575,481.075,482.125,485.995,488.755,493.175,498.155,503.135,507.555,510.865,515.815,518.315,519.365,524.345,528.765,533.745,536.505,540.925" svgx:width="0.5,0.44,0.33,0.28,0.28,0.44,0.28,0.5,0.44,0.5,0.28,0.39,0.25,0.55,0.72,0.44,0.33,0.44,0.25,0.55,0.5,0.44,0.39,0.44,0.33,0.28,0.5,0.44,0.5,0.25,0.55,0.44,0.39,0.25,0.55,0.78,0.44,0.44,0.5,0.39,0.25,0.55,0.44,0.5,0.5,0.25,0.55,0.39,0.28,0.44,0.5,0.5,0.44,0.33,0.5,0.25,0.55,0.5,0.44,0.5,0.28,0.44,0.33" style="fill:rgb(23,22,21);font-family:TimesNewRomanPSMT;font-size:10.0px;stroke:none;">participants were described as means and standard devia-</text>
   <text y="556.5" x="308.974,312.084,315.194,320.534,325.484,327.984,329.034,332.704,338.604,346.164,349.444,351.944,352.994,356.664,362.004,365.284,367.784,368.834,373.604,378.944,384.284,387.394,390.504,395.844,401.184,406.524,411.864,415.704,418.204,419.254,424.594,429.364,433.034,436.144,440.914,446.254,449.364,454.134,458.364,460.814,463.314,464.364,469.134,474.474,479.424,481.924,482.974,486.644,490.314,495.084,500.424,505.764,510.534,515.874,520.644,525.594,528.094,529.144,533.914,539.254,544.204" svgx:width="0.28,0.28,0.5,0.5,0.25,0.55,0.33,0.56,0.72,0.33,0.25,0.55,0.33,0.5,0.33,0.25,0.55,0.44,0.5,0.5,0.28,0.28,0.5,0.5,0.5,0.5,0.39,0.25,0.55,0.5,0.44,0.33,0.28,0.44,0.5,0.28,0.44,0.39,0.25,0.25,0.55,0.44,0.5,0.5,0.25,0.55,0.33,0.33,0.44,0.5,0.5,0.44,0.5,0.44,0.5,0.25,0.55,0.44,0.5,0.5,0.25" style="fill:rgb(23,22,21);font-family:TimesNewRomanPSMT;font-size:10.0px;stroke:none;">tion (SD) for continuous variables, and frequency and </text>
   <text y="570.0" x="308.974,313.924,317.204,322.155,327.105,332.055,335.335,338.065,340.795,345.745,350.695,353.775,357.055,365.335,368.615,371.685,374.965,379.915,383.195,386.265,390.655,395.045,397.775,402.165,407.115,412.065,415.345,418.075,422.465,426.855,429.585,432.655,437.605,441.995,445.275,448.005,452.395,457.345,460.075,464.465,468.305,470.755,473.835,478.225,482.615,487.005,491.955,495.235,500.185,502.915,507.865,512.815,515.885,518.615,523.565,526.635,532.145,537.095,541.485,544.215" svgx:width="0.5,0.33,0.5,0.5,0.5,0.33,0.28,0.28,0.5,0.5,0.25,0.33,0.83,0.33,0.25,0.33,0.5,0.33,0.25,0.44,0.44,0.28,0.44,0.5,0.5,0.33,0.28,0.44,0.44,0.28,0.25,0.5,0.44,0.33,0.28,0.44,0.5,0.28,0.44,0.39,0.25,0.25,0.44,0.44,0.44,0.5,0.33,0.5,0.28,0.5,0.5,0.25,0.28,0.5,0.25,0.56,0.5,0.44,0.28,0.25" style="fill:rgb(23,22,21);font-family:TimesNewRomanPSMT;font-size:10.0px;stroke:none;">proportion (%) for categorical variables, according to final </text>
   <text y="583.5" x="308.974,312.354,315.184,317.914,320.414,321.464,324.294,328.784,332.724,335.454,337.954,339.004,342.384,346.874,350.814,355.864,358.694,361.524,365.464,367.914,370.414,371.464,377.074,379.904,384.954,390.004,394.494,399.544,402.374,405.204,409.044" svgx:width="0.33,0.28,0.28,0.25,0.55,0.28,0.44,0.39,0.28,0.25,0.55,0.33,0.44,0.39,0.5,0.28,0.28,0.39,0.25,0.25,0.55,0.56,0.28,0.5,0.5,0.44,0.5,0.28,0.33,0.39,0.25" style="fill:rgb(23,22,21);font-family:TimesNewRomanPSMT;font-size:10.0px;stroke:none;">fit test results. Student’s </text>
   <text y="583.5" x="412.594" svgx:width="0.28" style="fill:rgb(23,22,21);font-family:TimesNewRomanPS-ItalicMT;font-size:10.0px;stroke:none;">t</text>
   <text y="583.5" x="415.454,418.834,421.664,426.154,430.094,432.924,436.764,439.264,440.314,444.804,449.854,454.804,457.304,458.354" svgx:width="0.33,0.28,0.44,0.39,0.28,0.39,0.25,0.55,0.44,0.5,0.5,0.25,0.55,0.44" style="fill:rgb(23,22,21);font-family:TimesNewRomanPSMT;font-size:10.0px;stroke:none;">-tests and χ</text>
   <text y="579.207" x="462.851" svgx:width="0.5" style="fill:rgb(23,22,21);font-family:TimesNewRomanPSMT;font-size:7.0px;stroke:none;">2</text>
   <text y="583.5" x="466.316,468.816,469.866,472.696,477.186,481.126,483.956,487.796,490.296,491.346,498.616,503.106,506.486,510.876,513.376,514.426,519.476,523.416,527.906,532.856,535.356,536.406,539.236,544.186" svgx:width="0.25,0.55,0.28,0.44,0.39,0.28,0.39,0.25,0.55,0.72,0.44,0.33,0.44,0.25,0.55,0.5,0.39,0.44,0.5,0.25,0.55,0.28,0.5,0.25" style="fill:rgb(23,22,21);font-family:TimesNewRomanPSMT;font-size:10.0px;stroke:none;"> tests were used to </text>
   <text y="597.0" x="308.976,313.456,318.496,322.976,325.796,330.836,335.316,338.136,342.526,345.026,346.076,351.116,353.936,357.126,360.496,364.977,368.346,372.827,377.867,382.347,386.827,390.667,393.167,394.217,397.037,401.987,404.487,405.537,410.017,415.057,420.097,422.917,425.737,430.777,435.817,440.857,445.897,449.737,452.237,453.287,458.327,462.807,466.177,468.997,473.477,478.517,481.337,485.817,489.657,492.157,493.207,496.577,500.507,505.547,510.027,514.977,517.477,518.527,523.007,526.847,529.347,530.397,534.877,539.917,544.306" svgx:width="0.44,0.5,0.44,0.28,0.5,0.44,0.28,0.44,0.25,0.55,0.5,0.28,0.33,0.33,0.44,0.33,0.44,0.5,0.44,0.44,0.39,0.25,0.55,0.28,0.5,0.25,0.55,0.44,0.5,0.5,0.28,0.28,0.5,0.5,0.5,0.5,0.39,0.25,0.55,0.5,0.44,0.33,0.28,0.44,0.5,0.28,0.44,0.39,0.25,0.55,0.33,0.39,0.5,0.44,0.5,0.25,0.55,0.44,0.39,0.25,0.55,0.44,0.5,0.44,0.25" style="fill:rgb(23,22,21);font-family:TimesNewRomanPSMT;font-size:10.0px;stroke:none;">evaluate differences in continuous variables (such as age </text>
   <text y="610.5" x="308.976,313.366,318.316,323.266,325.856,330.246,335.196,337.926,342.876,346.156,351.107,356.057,361.007,368.737,373.127,375.857,379.137,381.867,386.257,390.647,393.377,395.967,398.697,403.647,408.597,411.327,415.717,420.107,423.947,427.227,429.817,434.207,439.157,444.107,446.697,451.087,455.477,458.207,462.597,467.547,472.497,475.777,478.507,482.897,487.287,490.017,492.607,497.557,501.947,505.227,507.957,512.347,517.297,520.027,524.417,528.257,530.707,533.297,536.577,540.967" svgx:width="0.44,0.5,0.5,0.25,0.44,0.5,0.28,0.5,0.33,0.5,0.5,0.5,0.78,0.44,0.28,0.33,0.28,0.44,0.44,0.28,0.25,0.28,0.5,0.5,0.28,0.44,0.44,0.39,0.33,0.25,0.44,0.5,0.5,0.25,0.44,0.44,0.28,0.44,0.5,0.5,0.33,0.28,0.44,0.44,0.28,0.25,0.5,0.44,0.33,0.28,0.44,0.5,0.28,0.44,0.39,0.25,0.25,0.33,0.44,0.33" style="fill:rgb(23,22,21);font-family:TimesNewRomanPSMT;font-size:10.0px;stroke:none;">and anthropometrical indices) and categorical variables, re-</text>
   <text y="624.0" x="308.976,312.816,317.766,322.156,326.546,329.276,332.006,336.956,341.346,344.077,348.377,350.827,353.667,358.057,362.447,366.837,371.787,375.067,380.017,382.747,387.697,392.647,395.487,398.217,403.167,406.007,411.517,416.467,420.857,423.587,426.427,431.937,434.667,437.507,440.237,444.627,448.467,451.197,454.037,457.317,461.707,465.547,470.497,473.227,475.957,479.797,482.247,484.907,490.267,495.217,498.057,503.007,507.397,510.127,512.857,517.807,522.197,524.927,529.317,532.157,534.887,539.837,544.227" svgx:width="0.39,0.5,0.44,0.44,0.28,0.28,0.5,0.44,0.28,0.5,0.25,0.25,0.44,0.44,0.44,0.5,0.33,0.5,0.28,0.5,0.5,0.25,0.28,0.5,0.25,0.56,0.5,0.44,0.28,0.25,0.56,0.28,0.25,0.28,0.44,0.39,0.28,0.25,0.33,0.44,0.39,0.5,0.28,0.28,0.39,0.25,0.25,0.61,0.5,0.25,0.5,0.44,0.28,0.28,0.5,0.44,0.28,0.44,0.25,0.28,0.5,0.44,0.25" style="fill:rgb(23,22,21);font-family:TimesNewRomanPSMT;font-size:10.0px;stroke:none;">spectively, according to final fit test results. To validate the </text>
   <text y="637.5" x="308.976,315.736,321.386,327.446,329.946,330.996,335.526,340.616,345.706,350.236,354.766,357.626,360.496,365.586,370.536,373.036,374.086,379.176,382.596,387.686,392.776,396.196,400.726,408.586,411.036,413.536,414.586,417.456,422.546,426.936,429.436,430.486,435.576,438.996,444.086,449.176,452.596,457.116,464.846,467.346,468.396,472.376,477.466,482.556,487.646,490.516,495.466,497.966,499.016,502.996,507.526,510.396,513.256,517.236,520.656,525.606,528.106,529.156,532.026,539.336,544.286" svgx:width="0.67,0.56,0.61,0.25,0.55,0.44,0.5,0.5,0.44,0.44,0.28,0.28,0.5,0.5,0.25,0.55,0.5,0.33,0.5,0.5,0.33,0.44,0.78,0.25,0.25,0.55,0.28,0.5,0.44,0.25,0.55,0.5,0.33,0.5,0.5,0.33,0.44,0.78,0.25,0.55,0.39,0.5,0.5,0.5,0.28,0.5,0.25,0.55,0.39,0.44,0.28,0.28,0.39,0.33,0.5,0.25,0.55,0.28,0.72,0.5,0.25" style="fill:rgb(23,22,21);font-family:TimesNewRomanPSMT;font-size:10.0px;stroke:none;">RPE education program, the program should satisfy two </text>
   <text y="651.0" x="308.976,312.416,316.966,322.076,327.186,330.076,334.076,336.966,339.856,342.746,347.856,352.966,356.966,359.416,361.916,362.966,368.636,371.526,374.966,378.966,381.856,384.306,386.806,387.856,390.746,395.856,400.246,402.746,403.796,408.906,414.016,421.906,427.016,431.566,434.846,437.346,438.396,443.506,446.786,449.286,450.336,455.446,459.996,463.996,467.996,472.546,477.496,479.996,481.046,486.156,490.706,494.146,497.036,499.926,504.476,507.366,512.476,517.026,522.136,525.026,528.866,531.366,532.416,535.856,540.966,544.246" svgx:width="0.33,0.44,0.5,0.5,0.28,0.39,0.28,0.28,0.28,0.5,0.5,0.39,0.25,0.25,0.55,0.56,0.28,0.33,0.39,0.28,0.25,0.25,0.55,0.28,0.5,0.44,0.25,0.55,0.5,0.5,0.78,0.5,0.44,0.33,0.25,0.55,0.5,0.33,0.25,0.55,0.5,0.44,0.39,0.39,0.44,0.5,0.25,0.55,0.5,0.44,0.33,0.28,0.28,0.44,0.28,0.5,0.44,0.5,0.28,0.39,0.25,0.55,0.33,0.5,0.33,0.25" style="fill:rgb(23,22,21);font-family:TimesNewRomanPSMT;font-size:10.0px;stroke:none;">requisitions. First, the number of passed participants for </text>
   <text y="664.5" x="308.976,314.486,319.436,323.826,326.556,329.056,330.026,337.196,343.256,348.766,354.646,357.146,358.116,360.846,364.686,367.186,368.156,373.107,378.057,380.557,381.527,384.257,389.207,391.707,392.677,397.627,402.577,405.077,406.047,409.327,414.277,419.227,427.507,430.787,433.287,434.257,439.207,442.487,444.987,445.957,453.687,458.637,461.917,466.307,468.807,469.777,476.947,479.677,482.407,485.137,487.637,488.607,493.557,497.947,500.447,501.417,505.807,510.757,515.707,519.547,522.277,527.227,531.617,534.897,539.287,544.237" svgx:width="0.56,0.5,0.44,0.28,0.25,0.55,0.72,0.61,0.56,0.61,0.25,0.55,0.28,0.39,0.25,0.55,0.5,0.5,0.25,0.55,0.28,0.5,0.25,0.55,0.5,0.5,0.25,0.55,0.33,0.5,0.5,0.83,0.33,0.25,0.55,0.5,0.33,0.25,0.55,0.78,0.5,0.33,0.44,0.25,0.55,0.72,0.28,0.28,0.28,0.25,0.55,0.5,0.44,0.25,0.55,0.44,0.5,0.5,0.39,0.28,0.5,0.44,0.33,0.44,0.5,0.25" style="fill:rgb(23,22,21);font-family:TimesNewRomanPSMT;font-size:10.0px;stroke:none;">final QLFT is up to 37 (74%) or more will be considered </text>
   <text y="678.0" x="308.976,313.366,317.206,320.136,324.526,327.626,330.906,335.296,339.686,342.416,345.146,350.096,354.487,357.417,361.807,366.757,371.707,374.637,379.587,383.977,386.707,389.437,394.387,397.317,401.707,406.657,411.607,415.997,420.387,423.117,425.847,430.797,435.747,438.677,443.067,448.017,452.967,455.897,460.847,464.127,468.517,472.907,475.637,478.367,482.757,487.147,490.077,495.027,498.307,503.257,508.207,511.487,515.877,523.607,526.057,528.807,534.867,539.817,544.207" svgx:width="0.44,0.39,0.25,0.44,0.33,0.33,0.44,0.44,0.28,0.28,0.5,0.44,0.25,0.44,0.5,0.5,0.25,0.5,0.44,0.28,0.28,0.5,0.25,0.44,0.5,0.5,0.44,0.44,0.28,0.28,0.5,0.5,0.25,0.44,0.5,0.5,0.25,0.5,0.33,0.44,0.44,0.28,0.28,0.44,0.44,0.25,0.5,0.33,0.5,0.5,0.33,0.44,0.78,0.25,0.25,0.61,0.5,0.44,0.25" style="fill:rgb(23,22,21);font-family:TimesNewRomanPSMT;font-size:10.0px;stroke:none;">as effective and valid education and practice program. The </text>
   <text y="691.5" x="308.976,317.256,321.646,328.266,332.656,339.826,344.776" svgx:width="0.83,0.44,0.67,0.44,0.72,0.5,0.39" style="fill:rgb(23,22,21);font-family:TimesNewRomanPS-ItalicMT;font-size:10.0px;stroke:none;">McNemar</text>
   <text y="691.5" x="348.616,351.496,354.226,358.616,362.456,365.186,368.066,375.237,379.627,383.467,386.347,391.297,395.137,399.527,404.477,407.357,410.087,415.037,417.917,422.307,427.257,434.987,439.937,444.327,447.607,451.997,454.877,457.607,462.557,466.947,469.827,474.777,478.057,483.007,487.957,492.907,496.187,498.917,501.647,506.597,511.547,514.427,519.377,522.657,525.537,528.267,533.217,538.167,540.897" svgx:width="0.25,0.28,0.44,0.39,0.28,0.25,0.72,0.44,0.39,0.25,0.5,0.39,0.44,0.5,0.25,0.28,0.5,0.25,0.44,0.5,0.78,0.5,0.44,0.33,0.44,0.25,0.28,0.5,0.44,0.25,0.5,0.33,0.5,0.5,0.5,0.33,0.28,0.28,0.5,0.5,0.25,0.5,0.33,0.25,0.28,0.5,0.5,0.28,0.33" style="fill:rgb(23,22,21);font-family:TimesNewRomanPSMT;font-size:10.0px;stroke:none;"> test was used to compare the proportion of indi-</text>
   <text y="705.0" x="308.976,313.926,316.656,321.606,326.556,330.946,333.676,337.516,340.116,347.286,352.237,357.187,359.787,364.737,369.127,372.967,376.807,381.197,386.147,388.747,391.477,396.427,400.817,403.417,410.587,416.647,422.157,428.037,430.637,435.587,439.977,443.257,448.207,451.487,455.877,458.477,462.867,467.817,472.767,475.367,479.757,483.037,485.767,490.157,493.437,496.037,498.767,503.717,508.107,510.707,515.657,518.937,523.887,528.837,532.117,536.507,544.237" svgx:width="0.5,0.28,0.5,0.5,0.44,0.28,0.39,0.25,0.72,0.5,0.5,0.25,0.5,0.44,0.39,0.39,0.44,0.5,0.25,0.28,0.5,0.44,0.25,0.72,0.61,0.56,0.61,0.25,0.5,0.44,0.33,0.5,0.33,0.44,0.25,0.44,0.5,0.5,0.25,0.44,0.33,0.28,0.44,0.33,0.25,0.28,0.5,0.44,0.25,0.5,0.33,0.5,0.5,0.33,0.44,0.78,0.25" style="fill:rgb(23,22,21);font-family:TimesNewRomanPSMT;font-size:10.0px;stroke:none;">viduals who passed the QLFT before and after the program </text>
   <text y="718.5" x="308.976,316.236,319.056,321.866,326.816,329.316,330.366,337.626,344.886,350.486,355.886,358.336,360.836,361.887,367.487,371.967,376.437,381.477,386.517,391.557,394.007,396.507,397.557,400.377,405.417,409.807,412.307,413.357,417.287,420.097,424.577,427.397,430.207,434.137,436.957,439.777,444.247,448.727,451.457,453.957,455.007,458.937,461.747,466.787,471.827,474.637,478.007,480.817,485.297,489.777,494.817,497.547,500.047,501.097,505.577,510.617,515.097,520.137,525.177,529.657,533.497,535.997,537.047,541.517,544.247" svgx:width="0.72,0.28,0.28,0.5,0.25,0.55,0.72,0.72,0.56,0.61,0.25,0.25,0.55,0.56,0.44,0.44,0.5,0.5,0.5,0.25,0.25,0.55,0.28,0.5,0.44,0.25,0.55,0.39,0.28,0.44,0.28,0.28,0.39,0.28,0.28,0.44,0.44,0.28,0.25,0.55,0.39,0.28,0.5,0.5,0.28,0.33,0.28,0.44,0.44,0.5,0.28,0.25,0.55,0.44,0.5,0.44,0.5,0.5,0.44,0.39,0.25,0.55,0.44,0.28,0.25" style="fill:rgb(23,22,21);font-family:TimesNewRomanPSMT;font-size:10.0px;stroke:none;">with QNFT. Second, the statistical significant changes at </text>
   <text y="732.0" x="308.976,311.776,316.796,321.186" svgx:width="0.28,0.5,0.44,0.25" style="fill:rgb(23,22,21);font-family:TimesNewRomanPSMT;font-size:10.0px;stroke:none;">the </text>
   <text y="732.0" x="324.736,331.426,335.886,342.576,347.036,354.276,359.296" svgx:width="0.67,0.44,0.67,0.44,0.72,0.5,0.39" style="fill:rgb(23,22,21);font-family:TimesNewRomanPS-ItalicMT;font-size:10.0px;stroke:none;">NcNemar</text>
   <text y="732.0" x="363.136,365.636,366.686,369.486,373.946,377.856,380.586,383.086,384.136,387.486,392.506,395.786,398.286,399.336,406.576,412.706,418.286,424.166,426.666,427.716,431.626,436.646,441.666,446.686,449.486,454.436,456.936,457.986,463.006,467.396,469.896,470.946,474.856,479.876,484.896,492.136,497.086,499.586,500.636,505.656,510.116,513.466,518.486,521.836,526.226,528.726,529.776,534.236,539.256,544.206" svgx:width="0.25,0.55,0.28,0.44,0.39,0.28,0.25,0.55,0.33,0.5,0.33,0.25,0.55,0.72,0.61,0.56,0.61,0.25,0.55,0.39,0.5,0.5,0.5,0.28,0.5,0.25,0.55,0.5,0.44,0.25,0.55,0.39,0.5,0.5,0.72,0.5,0.25,0.55,0.5,0.44,0.33,0.5,0.33,0.44,0.25,0.55,0.44,0.5,0.5,0.25" style="fill:rgb(23,22,21);font-family:TimesNewRomanPSMT;font-size:10.0px;stroke:none;"> test for QLFT should be shown before and </text>
  </g>
 </g>
</svg>
