<?xml version="1.0" encoding="UTF-8"?>
<svg height="766.0" width="4046.0" xmlns="http://www.w3.org/2000/svg">
 <g id="page" xmlns:svgx="http://www.xml-cml.org/schema/svgx">
  <path style="fill:rgb(59,90,166);stroke:none;stroke-width:1.0;" d="M283.460 85.660 L288.230 85.660 "/>
  <path style="fill:rgb(59,90,166);stroke:none;stroke-width:1.0;" d="M283.520 98.700 L293.160 98.700 "/>
  <path style="fill:rgb(59,90,166);stroke:none;stroke-width:1.0;" d="M400.590 98.700 L405.350 98.700 "/>
  <path style="fill:rgb(59,90,166);stroke:none;stroke-width:1.0;" d="M407.570 98.700 L417.150 98.700 "/>
  <path style="fill:rgb(59,90,166);stroke:none;stroke-width:1.0;" d="M232.100 319.690 L236.920 319.690 "/>
  <path style="fill:rgb(59,90,166);stroke:none;stroke-width:1.0;" d="M551.400 332.670 L556.210 332.670 "/>
  <g begin="text">
   <text y="84.586" x="200.012,206.153,211.153,217.923,223.333,225.533,227.736,232.416,237.416,242.616,245.636,250.936,253.191,260.061,262.971,266.611,269.211,273.371,277.77099999999996,280.007" svgx:width="0.61,0.5,0.68,0.54,0.22,0.55,0.47,0.5,0.52,0.3,0.53,0.55,0.69,0.29,0.36,0.26,0.42,0.44,0.55,0.34" style="fill:rgb(0,0,0);font-family:AdvOT1ef757c0;font-size:10.0px;stroke:none;">Town, South Africa [</text>
   <text y="84.586" x="283.464" svgx:width="0.48" style="fill:rgb(59,90,166);font-family:AdvOT1ef757c0;font-size:10.0px;stroke:none;">9</text>
   <text y="84.586" x="288.226,291.656,293.856,296.05,302.191,307.501,311.70099999999996,313.909,316.509,321.919,326.079,328.679,333.879,338.039,343.449,347.609,351.80899999999997,354.048,359.048,361.948,364.196,370.336,376.136,378.369,383.569,386.169,389.809,393.97,398.34,401.98,406.18,408.418,411.018,416.41799999999995,418.623,421.223,426.633,429.622,433.992,439.402,442.422,446.02200000000005,448.274,455.044,459.414,463.014,465.282,468.922,473.082,478.282,483.283,486.923,489.943,494.103,499.303,501.567,505.937,509.53700000000003,511.829,516.619,526.286,528.886,534.286,536.547,539.567,544.877,547.477,551.077,553.328,556.968,559.988,565.188,570.388" svgx:width="0.34,0.22,0.55,0.61,0.53,0.42,0.55,0.26,0.54,0.42,0.26,0.52,0.42,0.54,0.42,0.42,0.55,0.5,0.29,0.55,0.61,0.58,0.55,0.52,0.26,0.36,0.42,0.44,0.36,0.42,0.55,0.26,0.54,0.55,0.26,0.54,0.29,0.44,0.54,0.3,0.36,0.55,0.68,0.44,0.36,0.55,0.36,0.42,0.52,0.5,0.36,0.3,0.42,0.52,0.55,0.44,0.36,0.55,0.48,0.75,0.26,0.54,0.55,0.3,0.53,0.26,0.36,0.55,0.36,0.3,0.52,0.52,0.46" style="fill:rgb(0,0,0);font-family:AdvOT1ef757c0;font-size:10.0px;stroke:none;">]. The incidence of TB disease in infants was reported as 3%in this study</text>
   <text y="97.625" x="200.012,204.172,209.172,217.292,225.412,230.612,236.022,238.622,241.642,246.242,248.485,251.085,256.485,258.746,263.536,268.326,273.116,277.916,280.119" svgx:width="0.42,0.5,0.81,0.81,0.52,0.54,0.26,0.3,0.46,0.55,0.26,0.54,0.55,0.48,0.48,0.48,0.48,0.55,0.34" style="fill:rgb(0,0,0);font-family:AdvOT1ef757c0;font-size:10.0px;stroke:none;">community in 2010 [</text>
   <text y="97.625" x="283.52,288.31" svgx:width="0.48,0.48" style="fill:rgb(59,90,166);font-family:AdvOT1ef757c0;font-size:10.0px;stroke:none;">10</text>
   <text y="97.625" x="293.158,296.589,298.789,300.983,307.853,311.45300000000003,313.682,318.882,322.522,326.682,331.262,333.862,338.862,344.062,347.812,350.312,354.91200000000003,357.11,362.31,366.47,370.11,374.27,377.91,380.51,385.51,389.67,394.87,397.137" svgx:width="0.34,0.22,0.55,0.69,0.36,0.55,0.52,0.36,0.42,0.46,0.26,0.5,0.52,0.36,0.25,0.46,0.55,0.52,0.42,0.36,0.42,0.36,0.26,0.5,0.42,0.52,0.55,0.34" style="fill:rgb(0,0,0);font-family:AdvOT1ef757c0;font-size:10.0px;stroke:none;">]. As previously described [</text>
   <text y="97.625" x="400.592" svgx:width="0.48" style="fill:rgb(59,90,166);font-family:AdvOT1ef757c0;font-size:10.0px;stroke:none;">9</text>
   <text y="97.625" x="405.354" svgx:width="0.22" style="fill:rgb(0,0,0);font-family:AdvOT1ef757c0;font-size:10.0px;stroke:none;">,</text>
   <text y="97.625" x="407.565,412.355" svgx:width="0.48,0.48" style="fill:rgb(59,90,166);font-family:AdvOT1ef757c0;font-size:10.0px;stroke:none;">11</text>
   <text y="97.625" x="417.146,420.576,422.776,424.97,430.28,434.44,438.81,441.31,444.33,449.64,454.24,456.492,461.253,466.412,471.212,473.385,481.505,486.505,491.915,494.936,500.246,503.786,508.786,511.286,516.486,518.741,521.341,526.751,529.661,534.031,539.441,542.461,546.061,548.392,555.162,559.322,562.962" svgx:width="0.34,0.22,0.55,0.53,0.42,0.44,0.25,0.3,0.53,0.46,0.55,0.48,0.51,0.48,0.55,0.81,0.5,0.54,0.3,0.53,0.35,0.5,0.25,0.52,0.55,0.26,0.54,0.29,0.44,0.54,0.3,0.36,0.55,0.68,0.42,0.36,0.42" style="fill:rgb(0,0,0);font-family:AdvOT1ef757c0;font-size:10.0px;stroke:none;">], healthy 4–6 month-old infants were</text>
   <text y="110.608" x="200.012,203.652,207.812,211.972,215.612,220.812,223.412,226.432,230.592,235.792,238.053,240.653,243.553,245.82,248.84,254.15,258.31,262.91,265.096,270.406,274.776,279.976,282.217,285.857,290.017,294.178,298.338,300.938,305.518,309.678,314.878,317.141,321.511,324.011,326.511,328.706,333.076,337.656,341.816,345.431,349.801,355.001,360.201,363.841,368.841,374.041,377.681,380.281,384.651,387.672,391.872,394.132,397.772,402.772,407.972,410.992,413.592,419.002,423.202,425.427,428.027,436.147,444.267,449.467,454.877,457.477,461.637,466.007,469.027,471.627,476.627,482.038,485.678,487.878,490.172,496.942,501.102,504.742,508.942,511.149,518.749,522.079,529.079,531.275,536.685,540.845,545.425,549.795,552.815,555.415,559.995,564.155" svgx:width="0.36,0.42,0.42,0.36,0.52,0.26,0.3,0.42,0.52,0.55,0.26,0.29,0.55,0.3,0.53,0.42,0.46,0.55,0.53,0.44,0.52,0.55,0.36,0.42,0.42,0.42,0.26,0.46,0.42,0.52,0.55,0.44,0.25,0.25,0.55,0.44,0.46,0.42,0.35,0.44,0.52,0.52,0.36,0.5,0.52,0.36,0.26,0.44,0.3,0.42,0.55,0.36,0.5,0.52,0.3,0.26,0.54,0.42,0.55,0.26,0.81,0.81,0.52,0.54,0.26,0.42,0.44,0.3,0.26,0.5,0.54,0.36,0.22,0.55,0.68,0.42,0.36,0.42,0.55,0.76,0.33,0.7,0.55,0.54,0.42,0.46,0.44,0.3,0.26,0.46,0.42,0.22" style="fill:rgb(0,0,0);font-family:AdvOT1ef757c0;font-size:10.0px;stroke:none;">recruited if they had received all age-appropriate routine immunizations, were HIV negative,</text>
   <text y="123.592" x="200.012,204.382,209.792,214.992,217.19,219.79,222.69,224.957,227.457,231.827,234.847,239.007,244.417,247.417,249.675,255.815,261.615,263.848,266.448,271.858,274.768,278.928,283.088,286.108,288.708,293.709,299.109,301.38,305.75,311.16,316.36,318.615,322.985,327.145,330.165,332.765,337.345,341.545,343.73,349.87,355.67,357.96,363.16,365.76,369.4,373.56,377.93,381.57,385.77,388.009,393.319,397.689,402.889,405.074,410.074,414.234,418.394,423.794,426.05,430.21,434.89,439.05,441.55,446.75,451.95,456.11,461.427,463.627,465.792,472.352,477.662,480.262,482.762,487.963,491.603,495.763,501.16299999999995,503.437,510.207,514.367,518.007,522.207,524.414,527.324,532.324,534.824,537.324,542.324,549.094,553.254" svgx:width="0.44,0.54,0.52,0.55,0.26,0.29,0.55,0.25,0.44,0.3,0.42,0.54,0.3,0.55,0.61,0.58,0.55,0.26,0.54,0.29,0.42,0.42,0.3,0.26,0.5,0.54,0.55,0.44,0.54,0.52,0.55,0.44,0.42,0.3,0.26,0.46,0.42,0.55,0.61,0.58,0.55,0.52,0.26,0.36,0.42,0.44,0.36,0.42,0.55,0.53,0.44,0.52,0.55,0.5,0.42,0.42,0.54,0.55,0.42,0.47,0.42,0.25,0.52,0.52,0.42,0.52,0.22,0.55,0.66,0.53,0.26,0.25,0.52,0.36,0.42,0.54,0.55,0.68,0.42,0.36,0.42,0.55,0.29,0.5,0.25,0.25,0.5,0.68,0.42,0.52" style="fill:rgb(0,0,0);font-family:AdvOT1ef757c0;font-size:10.0px;stroke:none;">and if latent TB infection and active TB disease had been excluded. Children were followed</text>
   <text y="136.575" x="200.012,205.112,210.312,214.682,218.322,221.342,225.502,229.142,231.642,236.242,238.507,241.417,246.417,250.017,252.283,256.653,259.653,261.864,264.364,268.524,272.894,276.534,279.534,281.763,284.783,291.553,296.553,298.772,303.352,307.512,311.882,315.522,319.122,321.449,324.469,329.469,331.654,334.254,339.454,343.614,349.024,352.044,354.644,357.554,362.154,364.423,368.063,370.663,375.243,380.653,384.293,386.493,388.689,392.329,396.909,405.029,410.229,413.249,418.34,426.46,430.1,432.3,434.498,439.498,443.098,445.326,450.636,455.701,460.901,464.541,468.701,474.011,479.012,481.512,486.712,488.924,493.084,497.764,502.964,507.964,511.604,516.804,520.559,524.759,526.909,529.929,535.239,539.609,542.609,544.881,553.001,557.161,560.801,563.401,566.421,570.581" svgx:width="0.51,0.52,0.44,0.36,0.3,0.42,0.36,0.25,0.46,0.55,0.29,0.5,0.36,0.55,0.44,0.3,0.55,0.25,0.42,0.44,0.36,0.3,0.55,0.3,0.68,0.5,0.55,0.46,0.42,0.44,0.36,0.36,0.55,0.3,0.5,0.55,0.26,0.52,0.42,0.54,0.3,0.26,0.29,0.46,0.55,0.36,0.26,0.46,0.54,0.36,0.22,0.55,0.36,0.46,0.81,0.52,0.3,0.5,0.81,0.36,0.22,0.55,0.5,0.36,0.55,0.53,0.5,0.52,0.36,0.42,0.53,0.5,0.25,0.52,0.55,0.42,0.47,0.52,0.5,0.36,0.52,0.36,0.42,0.55,0.3,0.53,0.44,0.3,0.55,0.81,0.42,0.36,0.26,0.3,0.42,0.52" style="fill:rgb(0,0,0);font-family:AdvOT1ef757c0;font-size:10.0px;stroke:none;">quarterly for at least two years to identify signs, symptoms, or household exposure that merited</text>
   <text y="149.614" x="200.012,202.612,208.022,212.602,216.762,220.402,223.422,226.022,230.602,234.972,237.992,240.592,245.592,250.99200000000002,253.304,256.214,261.214,264.814,267.08,270.72,275.92,279.56,284.76,288.92,293.08,296.1,300.26,305.46,307.73,313.87,319.67,321.903,327.103,329.703,333.343,337.503,341.972,345.612,349.812,351.95,354.55,356.73,360.89,363.07,367.86,371.26,373.55,380.32,384.48,387.08,391.66,396.97,399.97,402.237,404.738,409.738,413.378,416.978,419.246,421.846,427.246,429.507,432.527,437.837,442.037,444.191,449.391,453.031,457.191,461.351,465.511,470.711,473.311,478.721,483.321,485.577,488.597,495.367,500.367,502.586,510.706,515.706,521.116,524.136,529.446,533.086,535.2860000000001,537.566,542.356,545.756,547.998,552.158,557.158,562.358,566.938" svgx:width="0.26,0.54,0.46,0.42,0.36,0.3,0.26,0.46,0.44,0.3,0.26,0.5,0.54,0.55,0.29,0.5,0.36,0.55,0.36,0.52,0.36,0.52,0.42,0.42,0.3,0.42,0.52,0.55,0.61,0.58,0.55,0.52,0.26,0.36,0.42,0.44,0.36,0.42,0.55,0.26,0.22,0.42,0.22,0.48,0.34,0.55,0.68,0.42,0.26,0.46,0.53,0.3,0.55,0.25,0.5,0.36,0.36,0.55,0.26,0.54,0.55,0.3,0.53,0.42,0.55,0.52,0.36,0.42,0.42,0.42,0.52,0.26,0.54,0.46,0.55,0.3,0.68,0.5,0.55,0.81,0.5,0.54,0.3,0.53,0.36,0.22,0.55,0.48,0.34,0.55,0.42,0.5,0.52,0.46,0.53" style="fill:rgb(0,0,0);font-family:AdvOT1ef757c0;font-size:10.0px;stroke:none;">investigation for suspected TB disease i.e.1] weight loss in the preceding two months, 2] cough</text>
   <text y="162.597" x="200.012,202.922,207.922,211.522,213.788,221.908,226.908,230.548,234.748,236.919,239.939,245.249,249.619,255.019,257.272,260.292,267.062,272.062,274.28,281.05,285.21,289.37,294.261,297.86100000000005,300.133,306.903,309.503,312.523,317.833,322.833,328.033,331.033,333.299,335.899,344.019,349.219,352.859,357.859,362.439,366.692,374.812,378.972,384.382,387.402,389.602,391.808,396.598,399.998,402.24,405.15,409.52,412.12,414.62,419.82,423.46,427.62,431.267,434.287,439.287,442.827,445.847,451.157,454.797,457.397,461.977,466.137,468.337,470.556,475.556,479.156,481.441,486.232,489.632,491.874,496.034,501.034,506.444,511.024,515.184,518.824,522.464,525.064,530.064,535.4639999999999,537.739,540.759,545.759,547.944,552.3439999999999,554.577,559.777,564.777,568.417,571.017" svgx:width="0.29,0.5,0.36,0.55,0.81,0.5,0.36,0.42,0.55,0.3,0.53,0.44,0.54,0.55,0.3,0.68,0.5,0.55,0.68,0.42,0.42,0.49,0.36,0.55,0.68,0.26,0.3,0.53,0.5,0.52,0.3,0.55,0.26,0.81,0.52,0.36,0.5,0.46,0.42,0.81,0.42,0.54,0.3,0.22,0.55,0.48,0.34,0.55,0.29,0.44,0.26,0.25,0.52,0.36,0.42,0.35,0.3,0.5,0.35,0.3,0.53,0.36,0.26,0.46,0.42,0.22,0.55,0.5,0.36,0.55,0.48,0.34,0.55,0.42,0.5,0.54,0.46,0.42,0.36,0.36,0.26,0.5,0.54,0.55,0.3,0.5,0.55,0.44,0.55,0.52,0.5,0.36,0.26,0.35" style="fill:rgb(0,0,0);font-family:AdvOT1ef757c0;font-size:10.0px;stroke:none;">for more than two weeks without improvement, 3] failure-to-thrive, or 4] conversion to a posi-</text>
   <text y="175.58" x="200.012,203.032,205.632,210.212,214.41199999999998,216.566,223.956,229.156,233.526,238.936,241.956,244.556,249.756,255.376,261.637,269.027,278.645,284.785,290.58500000000004,292.819,299.899,304.899,307.399,312.599,314.816,318.146,323.556,327.096,333.236,338.436,343.436,347.63599999999997,349.909,352.929,357.089,360.729,363.729,365.953,370.953,374.553,376.781,381.981,386.981,390.622,393.222,396.242,398.842,403.422,407.622,409.891,418.741,423.111,428.521,431.541,436.541,441.741,446.441,448.669,451.689,455.849,459.489,462.509,464.709,466.924,471.604,476.184,484.304,489.505,492.525,497.525,505.645,510.015,513.13,515.73,519.9300000000001,522.087,526.247,531.557,534.157,536.657,541.857,545.497,549.657" svgx:width="0.3,0.26,0.46,0.42,0.55,0.74,0.52,0.44,0.54,0.3,0.26,0.52,0.56,0.61,0.74,0.74,0.61,0.58,0.55,0.71,0.5,0.25,0.52,0.55,0.33,0.54,0.35,0.61,0.52,0.5,0.42,0.55,0.3,0.42,0.36,0.3,0.55,0.5,0.36,0.55,0.52,0.5,0.36,0.26,0.3,0.26,0.46,0.42,0.55,0.88,0.44,0.54,0.3,0.5,0.52,0.47,0.55,0.3,0.42,0.36,0.3,0.22,0.55,0.47,0.46,0.81,0.52,0.3,0.5,0.81,0.44,0.3,0.26,0.42,0.55,0.42,0.53,0.26,0.25,0.52,0.36,0.42,0.54" style="fill:rgb(0,0,0);font-family:AdvOT1ef757c0;font-size:10.0px;stroke:none;">tive QuantiFERONTB Gold In-Tube test or positive Mantoux test. Symptomatic children</text>
   <text y="188.619" x="200.012,206.782,210.942,214.582,218.78199999999998,220.989,224.629,228.789,233.159,238.359,246.479,249.079,252.099,255.119,259.279,264.479,266.741,269.341,272.241,274.451,277.471,282.842,287.002,291.60200000000003,293.785,299.095,303.465,308.66499999999996,310.906,316.316,320.476,327.276,329.445,333.085,337.665,345.785,350.985,354.005,359.096,367.216,370.856,373.056,375.254,380.254,383.85400000000004,386.083,388.683,391.58299999999997,393.85,396.87,402.18,406.34,410.94,413.126,419.896,424.056,427.696,431.896,434.103,439.513,444.513,447.513,449.75,454.95,458.59,462.75,467.33,469.93,474.93,480.13,483.771,486.271,490.87100000000004,493.122,496.142,499.782,503.942,508.312,511.332,515.492,520.692,522.943,525.853,530.853,534.453,536.72,542.86,548.66,550.95,556.15,558.75,562.39" svgx:width="0.68,0.42,0.36,0.42,0.55,0.36,0.42,0.44,0.52,0.81,0.26,0.3,0.3,0.42,0.52,0.55,0.26,0.29,0.55,0.3,0.53,0.42,0.46,0.55,0.53,0.44,0.52,0.55,0.54,0.42,0.68,0.55,0.36,0.46,0.81,0.52,0.3,0.5,0.81,0.36,0.22,0.55,0.5,0.36,0.55,0.26,0.29,0.55,0.3,0.53,0.42,0.46,0.55,0.68,0.42,0.36,0.42,0.55,0.54,0.5,0.3,0.55,0.52,0.36,0.42,0.46,0.26,0.5,0.52,0.36,0.25,0.46,0.55,0.3,0.36,0.42,0.44,0.3,0.42,0.52,0.55,0.29,0.5,0.36,0.55,0.61,0.58,0.55,0.52,0.26,0.36,0.35" style="fill:rgb(0,0,0);font-family:AdvOT1ef757c0;font-size:10.0px;stroke:none;">were readmitted if they had new symptoms, or if they were not previously treated for TB dis-</text>
   <text y="201.602" x="200.012,204.172,208.542,212.182,216.38199999999998,218.551,222.921,228.331,233.53099999999998,235.786,241.196,246.196,248.429,252.799,255.299,258.319,262.479,266.119,271.529,275.899,278.919,281.519,286.099,290.299,292.537,297.737,300.338,304.708,309.288,314.698,319.698,323.338,325.938,329.538,331.827,336.827,339.727,341.975,344.995,350.305,354.465,357.065,360.665,362.952,366.592,371.172,379.292,384.492,387.512,392.513,400.633,404.233,406.55,411.86,416.23,421.43,423.671,428.671,432.831,436.991,442.39099999999996,444.591,452.711,457.081,462.281,466.531,468.731,470.896,475.896,479.49600000000004,481.724,484.325,487.22499999999997,489.492,493.892,496.068,501.268,504.908,509.068,513.648,516.248,521.248,526.448,530.048,532.352,536.512,541.512,546.712,550.352,553.992,558.192,560.415,565.415" svgx:width="0.42,0.44,0.36,0.42,0.55,0.44,0.54,0.52,0.55,0.54,0.5,0.55,0.44,0.25,0.3,0.42,0.36,0.54,0.44,0.3,0.26,0.46,0.42,0.55,0.52,0.26,0.44,0.46,0.54,0.5,0.36,0.26,0.36,0.55,0.5,0.29,0.55,0.3,0.53,0.42,0.26,0.36,0.55,0.36,0.46,0.81,0.52,0.3,0.5,0.81,0.36,0.55,0.53,0.44,0.52,0.55,0.5,0.42,0.42,0.54,0.55,0.81,0.44,0.52,0.42,0.22,0.55,0.5,0.36,0.55,0.26,0.29,0.55,0.44,0.55,0.52,0.36,0.42,0.46,0.26,0.5,0.52,0.36,0.55,0.42,0.5,0.52,0.36,0.36,0.42,0.55,0.5,0.29" style="fill:rgb(0,0,0);font-family:AdvOT1ef757c0;font-size:10.0px;stroke:none;">ease and no alternative diagnosis of their symptoms had been made, or if a previous course of</text>
   <text y="214.586" x="200.012,204.382,209.792,212.812,215.412,218.952,221.972,227.172,232.172,236.332,239.972,244.132,249.449,251.949,256.949,262.149,265.749,267.988,271.008,274.648,278.808,283.178,286.198,294.319,298.479,303.989,306.989,309.205,314.515,318.885,324.085,326.326,329.966,332.566,337.976,342.136,346.336,348.493,353.493,357.653,361.813,367.21299999999997,369.47,373.63,378.63,386.75,392.035,394.535,398.695,401.715,405.875,411.075,413.275,415.506,422.066,427.376,429.976,432.476,437.676,441.316,445.476,450.876,453.15,456.79,460.95,465.11,469.27,471.87,476.45,479.05,484.46,489.06,491.306,496.506,500.146,505.146,510.346,515.656,520.236,522.736,527.106,531.266,534.286,536.886,541.086,543.351,545.951,549.591,554.591,560.001,562.601,566.971" svgx:width="0.44,0.54,0.3,0.26,0.35,0.3,0.52,0.5,0.42,0.36,0.42,0.52,0.25,0.5,0.52,0.36,0.55,0.3,0.36,0.42,0.44,0.3,0.81,0.42,0.54,0.3,0.55,0.53,0.44,0.52,0.55,0.36,0.26,0.54,0.42,0.42,0.55,0.5,0.42,0.42,0.54,0.55,0.42,0.5,0.81,0.52,0.25,0.42,0.3,0.42,0.52,0.22,0.55,0.66,0.53,0.26,0.25,0.52,0.36,0.42,0.54,0.55,0.36,0.42,0.42,0.42,0.26,0.46,0.26,0.54,0.46,0.55,0.52,0.36,0.5,0.52,0.53,0.46,0.25,0.44,0.42,0.3,0.26,0.42,0.55,0.26,0.36,0.5,0.54,0.26,0.44,0.35" style="fill:rgb(0,0,0);font-family:AdvOT1ef757c0;font-size:10.0px;stroke:none;">anti-tuberculous treatment had since been completed. Children receiving prophylactic isonia-</text>
   <text y="227.625" x="200.012,204.172,206.772,211.97199999999998,214.185,222.305,227.305,232.715,237.715,240.735,246.045,250.205,253.845,258.215,263.415,268.01500000000004,270.312,277.082,281.242,284.882,289.082,291.289,295.66,298.16,301.8,306.8,308.978,312.618,316.778,321.224,326.424,334.544,337.144,340.164,343.184,347.344,352.544,354.787,357.697,362.697,366.297,368.563,371.163,376.573,381.153,385.313,388.953,391.973,394.574,399.154,403.524,406.544,409.144,414.144,419.544,421.856,424.456,427.356,429.566,432.586,437.896,442.056,446.656,448.898,453.898,458.058,462.218,466.588,474.708,478.908,481.1,484.74,489.321,497.441,502.641,505.661,510.661,518.781,523.151,526.171,528.771,532.931,535.1310000000001,537.398,544.268,547.908,552.488,560.699,565.899" svgx:width="0.42,0.26,0.52,0.55,0.81,0.5,0.54,0.5,0.3,0.53,0.42,0.36,0.44,0.52,0.46,0.55,0.68,0.42,0.36,0.42,0.55,0.44,0.25,0.36,0.5,0.55,0.36,0.42,0.44,0.52,0.81,0.26,0.3,0.3,0.42,0.52,0.55,0.29,0.5,0.36,0.55,0.26,0.54,0.46,0.42,0.36,0.3,0.26,0.46,0.44,0.3,0.26,0.5,0.54,0.55,0.26,0.29,0.55,0.3,0.53,0.42,0.46,0.55,0.5,0.42,0.42,0.44,0.81,0.42,0.55,0.36,0.46,0.81,0.52,0.3,0.5,0.81,0.44,0.3,0.26,0.42,0.22,0.55,0.69,0.36,0.46,0.81,0.52,0.35" style="fill:rgb(0,0,0);font-family:AdvOT1ef757c0;font-size:10.0px;stroke:none;">zid monotherapy were also readmitted for investigation if they became symptomatic. Asymp-</text>
   <text y="240.608" x="200.012,203.032,208.032,216.152,220.522,223.542,226.142,230.34199999999998,232.554,236.714,242.024,244.624,247.124,252.324,255.964,260.124,265.524,267.817,274.587,278.747,282.387,286.587,288.738,293.108,298.308,306.428,309.028,312.048,315.157,319.317,324.517,326.722,329.632,334.632,338.232,340.498,343.098,348.508,353.088,357.248,360.888,363.908,366.508,371.088,375.458,378.478,381.078,386.194,391.594,393.791,396.391,401.791,403.996,408.39599999999996,410.572,415.772,419.932,425.132,427.732,431.892,436.368,439.388,443.548,448.748,450.938,453.958,457.598,460.198,464.568,467.068,469.307,472.947,478.147,482.307,486.467,489.068,491.978,494.578,498.77799999999996,501.056,505.216,509.586,513.226,517.426,519.595,524.175,528.335,531.975,534.575,537.485,540.085,544.245,548.615,551.74,554.34,559.34" svgx:width="0.3,0.5,0.81,0.44,0.3,0.26,0.42,0.55,0.42,0.53,0.26,0.25,0.52,0.36,0.42,0.54,0.55,0.68,0.42,0.36,0.42,0.55,0.44,0.52,0.81,0.26,0.3,0.3,0.42,0.52,0.55,0.29,0.5,0.36,0.55,0.26,0.54,0.46,0.42,0.36,0.3,0.26,0.46,0.44,0.3,0.26,0.5,0.54,0.55,0.26,0.54,0.55,0.44,0.55,0.52,0.42,0.52,0.26,0.42,0.44,0.3,0.42,0.52,0.55,0.3,0.36,0.26,0.44,0.25,0.55,0.36,0.52,0.42,0.42,0.26,0.29,0.26,0.42,0.55,0.42,0.44,0.36,0.42,0.55,0.46,0.42,0.36,0.26,0.29,0.26,0.42,0.44,0.3,0.26,0.5,0.54" style="fill:rgb(0,0,0);font-family:AdvOT1ef757c0;font-size:10.0px;stroke:none;">tomatic children were admitted for investigation in a dedicated trial specific case verification</text>
   <text y="253.591" x="200.012,206.782,211.152,214.792,219.992,222.236,227.236,232.646,236.806,241.006,243.213,246.123,251.123,254.72299999999998,256.933,261.093,265.463,269.623,274.923,277.173,282.583,286.743,293.543,295.769,299.929,304.929,310.239,314.609,319.609,322.209,325.229,327.829,333.239,337.839,340.103,345.413,350.413,355.613,359.253,363.413,368.723,373.723,376.223,381.423,383.7,386.72,391.921,396.921,401.081,404.721,408.881,414.081,416.581,421.581,425.221,427.821,431.42100000000005,433.761,437.921,442.921,448.331,451.351,455.721,459.881,462.881,465.169,467.769,472.969,477.129,482.539,485.56,488.16,491.07,493.67,497.83,503.03,505.22999999999996,507.463,512.773,516.933,522.343,526.503,530.7030000000001,532.918,535.938,541.248,545.4480000000001,547.658,552.968,555.568,560.148" svgx:width="0.68,0.44,0.36,0.52,0.55,0.5,0.54,0.42,0.42,0.55,0.29,0.5,0.36,0.55,0.42,0.44,0.42,0.53,0.55,0.54,0.42,0.68,0.55,0.42,0.5,0.53,0.44,0.5,0.26,0.3,0.26,0.54,0.46,0.55,0.53,0.5,0.52,0.36,0.42,0.53,0.5,0.25,0.52,0.55,0.3,0.52,0.5,0.42,0.36,0.42,0.52,0.25,0.5,0.36,0.26,0.36,0.55,0.42,0.5,0.54,0.3,0.44,0.42,0.3,0.55,0.26,0.52,0.42,0.54,0.3,0.26,0.29,0.26,0.42,0.52,0.22,0.55,0.53,0.42,0.54,0.42,0.42,0.55,0.3,0.53,0.42,0.55,0.53,0.26,0.46,0.53" style="fill:rgb(0,0,0);font-family:AdvOT1ef757c0;font-size:10.0px;stroke:none;">ward once for each new cohabiting household tuberculosis contact identified, hence the high</text>
   <text y="266.63" x="200.012,205.422,210.622,218.742,223.742,227.902,231.50199999999998,233.801,238.801,241.701,243.892,248.262,253.462,261.582,264.182,267.822,271.558,274.158,279.158,284.568,288.209,290.409,292.592,296.962,302.372,307.572,309.827,313.467,317.627,321.997,327.197,335.317,337.917,340.937,343.957,348.117,353.317,355.635,360.635,366.045,368.545,373.14500000000004,375.308,377.908,380.808,383.076,386.096,391.406,395.566,400.166,402.352,407.662,412.032,417.23199999999997,419.473,423.633,428.633,434.043,437.063,439.663,445.073,450.273,454.433,459.633,461.936,466.096,470.776,475.976,480.977,484.617,489.817,493.457,497.657,499.865,502.885,507.885,510.126,514.496,519.896,522.088,524.688,530.098,534.468,539.668,543.828,548.928,554.233,558.603,561.623,565.783,568.283" svgx:width="0.54,0.52,0.81,0.5,0.42,0.36,0.55,0.5,0.29,0.55,0.44,0.52,0.81,0.26,0.36,0.36,0.26,0.5,0.54,0.36,0.22,0.55,0.44,0.54,0.52,0.55,0.36,0.42,0.44,0.52,0.81,0.26,0.3,0.3,0.42,0.52,0.55,0.5,0.54,0.25,0.46,0.55,0.26,0.29,0.55,0.3,0.53,0.42,0.46,0.55,0.53,0.44,0.52,0.55,0.42,0.5,0.54,0.3,0.26,0.54,0.52,0.42,0.52,0.55,0.42,0.47,0.52,0.5,0.36,0.52,0.36,0.42,0.55,0.3,0.5,0.55,0.44,0.54,0.55,0.26,0.54,0.44,0.52,0.42,0.51,0.52,0.44,0.3,0.42,0.25,0.46" style="fill:rgb(0,0,0);font-family:AdvOT1ef757c0;font-size:10.0px;stroke:none;">number of admissions, and readmitted only if they had continued exposure to an inadequately</text>
   <text y="279.613" x="200.012,203.032,206.672,210.832,215.202,218.222,222.382,227.582,229.833,233.993,238.993,244.303,248.673,253.673,256.273,259.293,261.893,267.303,271.903,274.167,279.477,284.477,289.677,293.318,297.478,302.788,307.788,310.288,315.488,317.765,320.785,325.985,330.985,335.145,338.785,342.945,348.145,350.645,355.645,359.285,361.885,365.485,367.825,371.985,376.985,382.395,385.415,389.785,393.946,396.966,399.166,401.389,407.529,414.299,419.299,421.515,429.635,434.005,437.025,441.185,446.574,450.734,455.934,458.134,460.351,464.511,469.511,474.921,478.561,482.721,486.882,492.082,495.102,497.702,502.282,506.48199999999997,508.712,511.312,516.722,521.922,527.122,531.282,535.442,540.642,542.898,546.538,551.738,556.938,559.958" svgx:width="0.3,0.36,0.42,0.44,0.3,0.42,0.52,0.55,0.42,0.5,0.53,0.44,0.5,0.26,0.3,0.26,0.54,0.46,0.55,0.53,0.5,0.52,0.36,0.42,0.53,0.5,0.25,0.52,0.55,0.3,0.52,0.5,0.42,0.36,0.42,0.52,0.25,0.5,0.36,0.26,0.36,0.55,0.42,0.5,0.54,0.3,0.44,0.42,0.3,0.22,0.55,0.61,0.68,0.5,0.55,0.81,0.44,0.3,0.42,0.53,0.42,0.52,0.22,0.55,0.42,0.5,0.54,0.36,0.42,0.42,0.52,0.3,0.26,0.46,0.42,0.55,0.26,0.54,0.52,0.52,0.42,0.42,0.52,0.55,0.36,0.52,0.52,0.3,0.44" style="fill:rgb(0,0,0);font-family:AdvOT1ef757c0;font-size:10.0px;stroke:none;">treated cohabiting household tuberculosis contact. Two matched, consecutive induced sputa</text>
   <text y="292.596" x="200.012,204.382,209.792,214.992,217.19,221.35,225.72,229.436,231.936,236.536,238.677,246.797,251.797,255.515,260.925,263.525,268.935,273.535,275.755,280.335,284.705,288.346,291.366,295.006,297.606,301.806,303.989,306.489,310.859,315.439,319.809,324.389,328.589,330.805,334.445,338.815,346.935,352.135,354.635,358.795,362.39500000000004,364.708,371.478,375.638,379.278,383.478,385.686,390.686,395.686,398.706,403.076,405.676,411.086,415.246,420.44599999999997,422.707,425.617,429.257,434.257,444.591,448.751,454.061,456.661,459.161,464.361,468.001,472.257,477.657,479.855,486.625,489.225,492.245,497.545,499.754,503.394,508.594,512.234,517.434,521.694,525.854,528.874,533.034,538.234,540.459,546.599,552.429" svgx:width="0.44,0.54,0.52,0.55,0.42,0.44,0.36,0.25,0.46,0.55,0.81,0.5,0.36,0.54,0.26,0.54,0.46,0.55,0.46,0.44,0.36,0.3,0.36,0.26,0.42,0.55,0.25,0.44,0.46,0.44,0.46,0.42,0.55,0.36,0.44,0.81,0.52,0.25,0.42,0.36,0.55,0.68,0.42,0.36,0.42,0.55,0.5,0.5,0.3,0.44,0.26,0.54,0.42,0.52,0.55,0.29,0.36,0.5,0.81,0.42,0.53,0.26,0.25,0.52,0.36,0.42,0.54,0.55,0.68,0.26,0.3,0.53,0.55,0.36,0.52,0.36,0.52,0.42,0.42,0.3,0.42,0.52,0.55,0.61,0.58,0.22" style="fill:rgb(0,0,0);font-family:AdvOT1ef757c0;font-size:10.0px;stroke:none;">and early morning gastric lavage samples were obtained fromchildren with suspected TB.</text>
   <text y="305.58" x="200.012,207.402,212.402,215.422,219.792,222.392,227.802,231.962,237.16199999999998,239.414,243.054,247.424,255.544,260.744,263.244,267.404,271.004,273.317,278.517,283.927,289.127,293.287,296.928,303.698,307.858,313.268,316.268,318.559,325.009,330.209,334.369,338.009,341.009,343.277,352.127,358.267,364.097,367.317,373.551,376.881,382.08099999999996,384.266,388.636,392.277,395.917,400.368,404.968,407.114,411.484,416.894,422.094,424.349,433.199,440.279,443.609,449.709,452.015,456.175,461.375,463.875,466.895,472.095,475.735,479.935,482.119,486.49,491.9,497.09999999999997,499.355,504.555,508.195,513.395,517.995,520.218,523.858,528.018,533.428,537.068,539.668,542.688,545.288,549.868,552.468,555.488" svgx:width="0.74,0.5,0.3,0.44,0.26,0.54,0.42,0.52,0.55,0.36,0.44,0.81,0.52,0.25,0.42,0.36,0.55,0.52,0.54,0.52,0.42,0.36,0.68,0.42,0.54,0.3,0.55,0.64,0.52,0.42,0.36,0.3,0.55,0.88,0.61,0.58,0.32,0.61,0.33,0.52,0.55,0.44,0.36,0.36,0.44,0.46,0.55,0.44,0.54,0.52,0.55,0.88,0.71,0.33,0.61,0.55,0.42,0.52,0.25,0.3,0.52,0.36,0.42,0.55,0.44,0.54,0.52,0.55,0.52,0.36,0.52,0.46,0.55,0.36,0.42,0.54,0.36,0.26,0.3,0.26,0.46,0.26,0.3,0.46" style="fill:rgb(0,0,0);font-family:AdvOT1ef757c0;font-size:10.0px;stroke:none;">Obtained samples underwent Xpert MTB/RIF assay and MGIT culture and drug sensitivity</text>
   <text y="318.619" x="200.012,203.032,207.192,210.832,213.852,216.452,221.862,226.462,228.699" svgx:width="0.3,0.42,0.36,0.3,0.26,0.54,0.46,0.55,0.34" style="fill:rgb(0,0,0);font-family:AdvOT1ef757c0;font-size:10.0px;stroke:none;">testing [</text>
   <text y="318.619" x="232.1" svgx:width="0.48" style="fill:rgb(59,90,166);font-family:AdvOT1ef757c0;font-size:10.0px;stroke:none;">9</text>
   <text y="318.619" x="236.919,240.349" svgx:width="0.34,0.22" style="fill:rgb(0,0,0);font-family:AdvOT1ef757c0;font-size:10.0px;stroke:none;">].</text>
   <text y="331.602" x="211.974,215.304,220.714,225.914,231.114,235.274,239.434,244.634,246.954,250.594,255.794,260.994,264.014,269.214,279.609,283.979,289.389,294.589,296.788,301.368,305.738,309.378,312.398,316.038,318.638,322.83799999999997,325.078,327.578,331.948,336.528,340.898,345.478,349.678,351.894,355.534,359.904,368.024,373.224,375.724,379.924,382.112,386.272,391.273,393.773,396.273,400.433,404.593,407.613,410.213,415.213,420.613,422.876,428.186,432.556,437.136,441.336,443.569,448.569,452.729,456.889,462.289,464.546,469.746,473.906,477.546,481.706,485.346,487.947,492.947,497.107,502.307,504.573,509.773,513.413,517.573,522.153,524.753,529.753,534.953,538.593,541.197,545.797,547.943" svgx:width="0.33,0.54,0.52,0.52,0.42,0.42,0.52,0.55,0.36,0.52,0.52,0.3,0.52,0.81,0.44,0.54,0.52,0.55,0.46,0.44,0.36,0.3,0.36,0.26,0.42,0.55,0.25,0.44,0.46,0.44,0.46,0.42,0.55,0.36,0.44,0.81,0.52,0.25,0.42,0.55,0.42,0.5,0.25,0.25,0.42,0.42,0.3,0.26,0.5,0.54,0.55,0.53,0.44,0.46,0.42,0.55,0.5,0.42,0.42,0.54,0.55,0.52,0.42,0.36,0.42,0.36,0.26,0.5,0.42,0.52,0.55,0.52,0.36,0.42,0.46,0.26,0.5,0.52,0.36,0.25,0.46,0.55,0.34" style="fill:rgb(0,0,0);font-family:AdvOT1ef757c0;font-size:10.0px;stroke:none;">Induced sputumand gastric lavage sample collection have been described previously [</text>
   <text y="331.602" x="551.395" svgx:width="0.48" style="fill:rgb(59,90,166);font-family:AdvOT1ef757c0;font-size:10.0px;stroke:none;">9</text>
   <text y="331.602" x="556.214,559.644" svgx:width="0.34,0.22" style="fill:rgb(0,0,0);font-family:AdvOT1ef757c0;font-size:10.0px;stroke:none;">].</text>
   <text y="344.585" x="200.012,205.842,209.482,212.082,216.242,219.152,221.652,226.232,228.432,230.683,235.263,239.633,243.273,246.293,249.933,252.533,256.733,258.916,261.416,265.786,270.366,274.736,279.316,283.51599999999996,285.732,292.503,296.873,300.473,302.741,307.941,312.101,315.741,318.651,323.651,327.291,335.51,339.67,344.87,347.075,351.235,355.605,359.245,361.745,366.345,368.562,371.162,376.56199999999995,378.767,381.787,387.098,391.298,393.508,401.628,406.628,410.268,415.678,418.278,423.688,428.288,430.529,434.899,437.809,440.829,444.989,448.589,450.882,455.252,460.652,462.844,467.844,472.424,476.584,480.307,485.717,488.317,492.897,498.207,501.207,503.438,506.348,510.718,514.358,517.358,519.596,524.596,527.496,529.744,534.114,537.114,539.325,541.825,545.985,550.355,553.995,556.995,559.281" svgx:width="0.58,0.36,0.26,0.42,0.29,0.25,0.46,0.22,0.55,0.46,0.44,0.36,0.3,0.36,0.26,0.42,0.55,0.25,0.44,0.46,0.44,0.46,0.42,0.55,0.68,0.44,0.36,0.55,0.52,0.42,0.36,0.29,0.5,0.36,0.81,0.42,0.52,0.55,0.42,0.44,0.36,0.25,0.46,0.55,0.26,0.54,0.55,0.3,0.53,0.42,0.55,0.81,0.5,0.36,0.54,0.26,0.54,0.46,0.55,0.44,0.29,0.3,0.42,0.36,0.55,0.44,0.54,0.55,0.5,0.46,0.42,0.36,0.54,0.26,0.46,0.53,0.3,0.55,0.29,0.44,0.36,0.3,0.55,0.5,0.29,0.55,0.44,0.3,0.55,0.25,0.42,0.44,0.36,0.3,0.55,0.48" style="fill:rgb(0,0,0);font-family:AdvOT1ef757c0;font-size:10.0px;stroke:none;">Briefly, gastric lavage was performed early in the morning after an overnight fast of at least 4</text>
   <text y="357.624" x="200.012,205.322,210.322,215.522,219.162,222.802,225.00199999999998,227.225,230.135,235.135,238.73499999999999,241.001,245.161,249.531,253.691,258.991,261.241,266.241,269.14099999999996,271.332,274.352,279.723,283.923,286.073,288.983,291.583,295.224,298.864,301.864,304.103,308.903,311.133,316.333,320.703,325.283,328.88300000000004,331.146,336.146,339.046,341.294,345.664,350.864,358.984,361.584,365.224,368.864,371.464,376.464,381.875,384.075,386.31,392.14,396.51,400.15,404.31,409.51,411.765,416.765,422.16499999999996,424.408,428.778,433.358,437.518,439.71799999999996,441.926,446.74,451.842,456.632,461.432,463.634,471.754,477.05400000000003,479.281,484.281,487.181,489.372,494.162,496.342,501.133,510.86,514.5,518.87,521.37,523.97,529.38,533.58,535.805,542.575,546.945" svgx:width="0.53,0.5,0.52,0.36,0.36,0.22,0.55,0.29,0.5,0.36,0.55,0.42,0.44,0.42,0.53,0.55,0.5,0.29,0.55,0.3,0.53,0.42,0.55,0.29,0.26,0.36,0.36,0.3,0.55,0.48,0.55,0.52,0.44,0.46,0.36,0.55,0.5,0.29,0.55,0.44,0.52,0.81,0.26,0.36,0.36,0.26,0.5,0.54,0.22,0.55,0.58,0.44,0.36,0.42,0.52,0.55,0.5,0.54,0.55,0.44,0.46,0.42,0.22,0.55,0.48,0.51,0.48,0.48,0.55,0.81,0.53,0.55,0.5,0.29,0.55,0.48,0.22,0.48,0.75,0.36,0.44,0.25,0.26,0.54,0.42,0.55,0.68,0.44,0.36" style="fill:rgb(0,0,0);font-family:AdvOT1ef757c0;font-size:10.0px;stroke:none;">hours, for each of the first 2 days of admission. Based on age, 5–20 mL of 0.9%saline was</text>
   <text y="370.607" x="200.012,202.612,208.022,211.662,214.682,217.282,219.782,222.282,226.442,231.642,233.915,238.285,243.695,248.89499999999998,251.093,254.113,259.423,263.623,265.833,269.473,273.843,281.963,286.163,288.34,292.92,297.921,300.421,305.621,313.741,317.941,320.146,325.146,328.046,330.294,334.874,339.244,342.884,345.904,349.544,352.144,356.344,358.584,361.084,365.454,370.034,374.404,378.984,383.18399999999997,385.344,388.254,390.754,395.954,398.554,403.75399999999996,406.037,410.407,414.047,419.247,421.847,425.487,429.857,432.877,437.037,442.23699999999997,444.532,448.902,451.812,454.832,458.992,462.59200000000004,464.828,469.644,474.746,479.546,481.719,489.839,492.439,497.934,503.134,506.154,510.314,513.954,516.154,518.344,522.924,525.524,529.924,532.12,536.52,538.696,544.106,548.476,552.116,557.116,561.696,566.066,569.706" svgx:width="0.26,0.54,0.36,0.3,0.26,0.25,0.25,0.42,0.52,0.55,0.44,0.54,0.52,0.55,0.3,0.53,0.42,0.55,0.36,0.44,0.81,0.42,0.55,0.46,0.5,0.25,0.52,0.81,0.42,0.55,0.5,0.29,0.55,0.46,0.44,0.36,0.3,0.36,0.26,0.42,0.55,0.25,0.44,0.46,0.44,0.46,0.42,0.55,0.29,0.25,0.52,0.26,0.52,0.55,0.44,0.36,0.52,0.26,0.36,0.44,0.3,0.42,0.52,0.55,0.44,0.29,0.3,0.42,0.36,0.55,0.48,0.51,0.48,0.55,0.81,0.26,0.54,0.52,0.3,0.42,0.36,0.22,0.55,0.46,0.26,0.44,0.55,0.44,0.55,0.54,0.44,0.36,0.5,0.46,0.44,0.36,0.35" style="fill:rgb(0,0,0);font-family:AdvOT1ef757c0;font-size:10.0px;stroke:none;">instilled and the same volume of gastric lavage fluid aspirated after 2–4 minutes, via a nasogas-</text>
   <text y="383.59" x="200.012,203.032,206.672,209.272,213.47199999999998,215.659,218.679,223.879,228.879,233.039,235.23899999999998,237.429,243.569,248.879,253.07899999999998,255.287,258.927,264.127,268.287,272.447,275.047,283.167,287.432,292.832,295.03,301.8,306.17,309.77000000000004,312.038,315.058,318.698,323.068,328.478,332.118,337.318,342.318,345.958,348.978,353.138,358.33799999999997,360.624,363.644,368.644,370.885,373.905,379.215,383.41499999999996,385.569,388.069,392.44,397.44,399.687,406.457,409.057,412.077,417.387,419.987,425.387,427.637,432.437,434.61,439.92,444.92,450.12,453.76,457.36,459.669,464.669,467.56899999999996,469.76,473.92,478.92,481.421,483.921,488.081,492.241,495.261,497.861,502.861,508.369,510.569,512.734,517.414,522.614,527.814,530.834,536.034,546.41,549.01,554.42,559.62,564.82,568.98" svgx:width="0.3,0.36,0.26,0.42,0.55,0.3,0.52,0.5,0.42,0.22,0.55,0.61,0.53,0.42,0.55,0.36,0.52,0.42,0.42,0.26,0.81,0.42,0.54,0.55,0.68,0.44,0.36,0.55,0.3,0.36,0.44,0.54,0.36,0.52,0.5,0.36,0.3,0.42,0.52,0.55,0.3,0.5,0.55,0.3,0.53,0.42,0.55,0.25,0.44,0.5,0.55,0.68,0.26,0.3,0.53,0.26,0.54,0.55,0.48,0.55,0.53,0.5,0.52,0.36,0.36,0.55,0.5,0.29,0.55,0.42,0.5,0.25,0.25,0.42,0.42,0.3,0.26,0.5,0.54,0.22,0.55,0.47,0.52,0.52,0.3,0.52,0.81,0.26,0.54,0.52,0.52,0.42,0.35" style="fill:rgb(0,0,0);font-family:AdvOT1ef757c0;font-size:10.0px;stroke:none;">tric tube. The specimen was transported to the lab within 6 hours of collection. Sputuminduc-</text>
   <text y="396.629" x="200.012,203.032,205.632,210.632,216.032,218.267,225.037,229.407,233.007,235.275,240.475,244.635,248.275,251.185,256.185,259.825,267.945,272.105,277.305,279.609,284.371,289.473,294.273,296.503,301.814,306.814,312.014,315.654,319.254,321.506,324.006,328.376,331.396,335.556,339.156,341.462,346.462,351.062,353.254,357.654,359.83,362.85,366.49,370.86,373.46,378.87,383.03,388.22999999999996,390.502,395.702,399.342,404.342,407.252,411.412,415.052,418.692,421.292,426.292,431.702,436.072,438.572,440.846,446.256,451.456,455.096,458.736,462.896,465.096,467.322,473.462,478.773,482.973,485.181,488.821,494.021,499.221,502.241,507.441,517.836,520.436,525.846,531.046,536.246,540.406,543.426,546.026,551.026" svgx:width="0.3,0.26,0.5,0.54,0.55,0.68,0.44,0.36,0.55,0.52,0.42,0.36,0.29,0.5,0.36,0.81,0.42,0.52,0.55,0.48,0.51,0.48,0.55,0.53,0.5,0.52,0.36,0.36,0.55,0.25,0.44,0.3,0.42,0.36,0.55,0.5,0.46,0.55,0.44,0.55,0.3,0.36,0.44,0.26,0.54,0.42,0.52,0.55,0.52,0.36,0.5,0.29,0.42,0.36,0.36,0.26,0.5,0.54,0.44,0.25,0.55,0.54,0.52,0.36,0.36,0.42,0.22,0.55,0.61,0.53,0.42,0.55,0.36,0.52,0.52,0.3,0.52,0.81,0.26,0.54,0.52,0.52,0.42,0.3,0.26,0.5,0.54" style="fill:rgb(0,0,0);font-family:AdvOT1ef757c0;font-size:10.0px;stroke:none;">tion was performed 3–4 hours later by a trained professional nurse. The sputuminduction</text>
   <text y="409.613" x="200.012,205.212,208.852,213.852,218.012,222.172,227.372,232.572,236.212,240.41199999999998,242.646,249.416,253.786,257.386,259.654,264.854,269.014,272.654,275.564,280.564,284.204,292.423,296.583,301.783,303.989,306.589,311.989,314.194,318.594,320.77,325.97,330.13,335.33,337.93,342.09,346.566,349.586,353.746,358.94599999999997,361.136,366.336,369.976,374.976,379.136,383.296,388.496,393.696,397.336,401.536,403.827,407.467,412.467,417.467,427.808,434.578,437.178,440.198,445.498,447.707,453.117,457.277,461.857,466.227,469.247,471.847,476.427,480.627,482.857,488.057,491.697,495.857,499.583,503.223,508.423,512.063,516.263,518.462,523.042,527.202,532.612,535.632,538.232,540.732,545.102,548.122,550.722,555.722" svgx:width="0.52,0.36,0.5,0.42,0.42,0.52,0.52,0.36,0.42,0.55,0.68,0.44,0.36,0.55,0.52,0.42,0.36,0.29,0.5,0.36,0.81,0.42,0.52,0.55,0.26,0.54,0.55,0.44,0.55,0.52,0.42,0.52,0.26,0.42,0.44,0.3,0.42,0.52,0.55,0.52,0.36,0.5,0.42,0.42,0.52,0.52,0.36,0.42,0.55,0.36,0.5,0.5,0.81,0.68,0.26,0.3,0.53,0.55,0.54,0.42,0.46,0.44,0.3,0.26,0.46,0.42,0.55,0.52,0.36,0.42,0.36,0.36,0.52,0.36,0.42,0.55,0.46,0.42,0.54,0.3,0.26,0.25,0.44,0.3,0.26,0.5,0.54" style="fill:rgb(0,0,0);font-family:AdvOT1ef757c0;font-size:10.0px;stroke:none;">procedure was performed in a dedicated procedure roomwith negative pressure ventilation</text>
   <text y="422.596" x="200.012,205.212,208.852,213.852,218.432,221.032,226.232,228.832,234.242,238.84199999999998,241.115,245.485,248.485,250.696,253.196,257.356,261.726,265.366,268.366,270.595,275.385,280.185,282.387,286.757,289.357,292.95700000000005,295.257,299.417,304.727,309.097,314.507,319.087,323.247,326.84700000000004,329.16,334.36,338.52,342.12,344.354,349.664,354.664,359.864,363.464,365.784,370.784,375.384,377.576,381.736,386.417,389.437,393.597,397.237,402.647,407.017,409.517,412.017,416.617,418.85,423.43,427.59,433.0,436.02,440.18,445.38,447.65,450.56,454.93,460.34,462.53999999999996,464.771,469.451,472.471,476.841,482.252,487.452,491.822,495.462,500.662,502.927,508.127,510.727,514.367,516.967,522.377,525.287,529.447,533.607,536.627,539.227,544.227,549.627,551.967,556.337,561.747" svgx:width="0.52,0.36,0.5,0.46,0.26,0.52,0.26,0.54,0.46,0.55,0.44,0.3,0.55,0.25,0.42,0.44,0.36,0.3,0.55,0.48,0.48,0.55,0.44,0.26,0.36,0.55,0.42,0.53,0.44,0.54,0.46,0.42,0.36,0.55,0.52,0.42,0.36,0.55,0.53,0.5,0.52,0.36,0.55,0.5,0.46,0.55,0.42,0.47,0.3,0.42,0.36,0.54,0.44,0.25,0.25,0.46,0.55,0.46,0.42,0.54,0.3,0.42,0.52,0.55,0.29,0.44,0.54,0.22,0.55,0.47,0.3,0.44,0.54,0.52,0.44,0.36,0.52,0.55,0.52,0.26,0.36,0.26,0.54,0.29,0.42,0.42,0.3,0.26,0.5,0.54,0.55,0.44,0.54,0.52" style="fill:rgb(0,0,0);font-family:AdvOT1ef757c0;font-size:10.0px;stroke:none;">providing at least 72 air changes per hour by externally vented fan. Standard disinfection and</text>
   <text y="435.579" x="200.012,202.612,208.022,210.932,215.092,219.252,222.272,224.872,229.872,235.27200000000002,237.543,241.703,246.703,252.113,255.133,258.773,263.773,266.273,268.498,273.698,277.338,282.338,286.583,290.743,295.943,301.143,304.784,308.944,312.54400000000004,314.817,321.587,325.747,329.387,333.587,335.794,340.794,345.794,349.434,353.594,357.234,361.814,365.974,371.174,373.37399999999997,375.65,378.25,383.66,387.82,390.32,395.52,400.721,403.321,408.731,413.331,415.563,420.763,424.403,428.603,430.813,435.813,438.71299999999997,440.961,448.351,453.141,457.94100000000003,460.123,465.323,469.693,473.333,476.353,478.953,483.113,488.413,490.913,495.284,498.304,502.50399999999996,504.685,507.595,510.195,512.695,515.715,519.875,523.475,525.718,533.838,538.208,541.848,546.738,550.3380000000001,552.647,557.647" svgx:width="0.26,0.54,0.29,0.42,0.42,0.3,0.26,0.5,0.54,0.55,0.42,0.5,0.54,0.3,0.36,0.5,0.25,0.55,0.52,0.36,0.5,0.42,0.42,0.52,0.52,0.36,0.42,0.36,0.55,0.68,0.42,0.36,0.42,0.55,0.5,0.5,0.36,0.42,0.36,0.46,0.42,0.52,0.22,0.55,0.26,0.54,0.42,0.25,0.52,0.52,0.26,0.54,0.46,0.55,0.52,0.36,0.42,0.55,0.5,0.29,0.55,0.74,0.48,0.48,0.55,0.52,0.44,0.36,0.3,0.26,0.42,0.52,0.25,0.44,0.3,0.42,0.55,0.29,0.26,0.25,0.3,0.42,0.36,0.55,0.81,0.44,0.36,0.49,0.36,0.55,0.5,0.46" style="fill:rgb(0,0,0);font-family:AdvOT1ef757c0;font-size:10.0px;stroke:none;">infection control procedures were observed, including use of N95 particulate filter masks by</text>
   <text y="448.618" x="200.012,203.652,206.672,211.042,213.952,216.862,219.06199999999998,221.272,227.832,232.832,238.242,241.262,243.862,249.272,254.472,259.472,264.672,268.27200000000005,270.595,275.795,280.995,283.495,287.135,291.335,293.556,297.926,303.337,308.537,310.792,315.792,320.472,325.052,329.632,333.792,339.19199999999995,341.463,345.103,349.473,352.493,357.693,361.333,365.703,368.723,371.323,376.323,381.72299999999996,383.983,392.104,397.104,402.514,405.114,408.134,413.134,416.774,419.374,424.784,429.384,431.663,438.433,442.803,446.403,448.671,453.871,457.511,461.671,466.871,469.07099999999997,471.292,476.082,480.872,485.672,487.904,496.024,498.624,502.784,506.424,511.424,516.004,519.644,524.014,532.134,535.734,538.021,543.021,545.9209999999999,548.169,551.809,556.179,558.679,563.679,568.879" svgx:width="0.36,0.3,0.44,0.29,0.29,0.22,0.55,0.66,0.5,0.54,0.3,0.26,0.54,0.52,0.5,0.52,0.36,0.55,0.52,0.52,0.25,0.36,0.42,0.55,0.44,0.54,0.52,0.55,0.5,0.47,0.46,0.46,0.42,0.54,0.55,0.36,0.44,0.3,0.52,0.36,0.44,0.3,0.26,0.5,0.54,0.55,0.81,0.5,0.54,0.26,0.3,0.5,0.36,0.26,0.54,0.46,0.55,0.68,0.44,0.36,0.55,0.52,0.36,0.42,0.52,0.22,0.55,0.48,0.48,0.48,0.55,0.81,0.26,0.42,0.36,0.5,0.46,0.36,0.44,0.81,0.36,0.55,0.5,0.29,0.55,0.36,0.44,0.25,0.5,0.52,0.35" style="fill:rgb(0,0,0);font-family:AdvOT1ef757c0;font-size:10.0px;stroke:none;">staff. Continuous pulse and oxygen saturation monitoring was used. 100 micrograms of salbu-</text>
   <text y="461.601" x="200.012,203.032,207.402,215.522,220.522,223.022,225.241,232.011,236.381,239.981,242.249,246.619,251.819,259.939,262.539,267.949,270.549,274.189,277.209,281.481,285.121,289.281,294.481,296.676,301.876,305.516,308.116,313.116,316.716,319.013,322.033,327.033,329.218,332.238,337.609,341.80899999999997,343.959,349.159,352.799,357.799,361.959,366.119,371.319,376.519,380.159,384.319,386.519,388.804,393.384,395.985,400.385,402.581,406.981,409.157,417.277,421.437,424.457,428.617,432.257,436.417,441.61699999999996,443.853,449.053,454.053,457.693,461.893,464.093,466.693,472.103,477.413,481.783,484.283,488.528,492.12800000000004,494.368,501.138,503.738,506.758,512.058,514.267,517.907,523.107,527.477,531.729,535.889,539.489,541.707,546.077,551.487,556.687,558.942,561.852,566.222,570.382" svgx:width="0.3,0.44,0.81,0.5,0.25,0.55,0.68,0.44,0.36,0.55,0.44,0.52,0.81,0.26,0.54,0.26,0.36,0.3,0.42,0.36,0.42,0.52,0.55,0.52,0.36,0.26,0.5,0.36,0.55,0.3,0.5,0.55,0.3,0.53,0.42,0.55,0.52,0.36,0.5,0.42,0.42,0.52,0.52,0.36,0.42,0.22,0.55,0.46,0.26,0.44,0.55,0.44,0.55,0.81,0.42,0.3,0.42,0.36,0.42,0.52,0.55,0.52,0.5,0.36,0.42,0.55,0.26,0.54,0.53,0.44,0.25,0.42,0.36,0.55,0.68,0.26,0.3,0.53,0.55,0.36,0.52,0.44,0.42,0.42,0.36,0.55,0.44,0.54,0.52,0.55,0.29,0.44,0.42,0.42" style="fill:rgb(0,0,0);font-family:AdvOT1ef757c0;font-size:10.0px;stroke:none;">tamol was administered prior to the procedure, via a metered dose inhaler with spacer and face</text>
   <text y="474.584" x="200.012,208.132,212.502,216.142,221.032,223.232,225.467,231.607,235.767,241.167,243.382,251.502,254.102,259.512,264.712,267.817,271.977,275.577,277.795,282.165,285.075,288.095,292.255,295.855,298.148,303.149,306.789,311.789,317.199,321.359,326.669,331.669,336.869,339.469,341.969,346.452,349.472,354.472,358.072,360.285,364.655,369.855,377.975,380.575,386.081,388.682,392.322,395.342,398.982,403.352,406.372,408.972,413.972,419.382,421.582,423.84,429.25,433.41,438.41,443.61,446.11,448.71,452.87,457.24,460.26,462.86,467.86,473.26,475.545,482.316,486.686,490.286,492.554,497.754,501.914,505.554,508.464,513.464,517.104,525.323,529.483,534.683,536.888,543.658,546.258,549.278,554.578,556.787" svgx:width="0.81,0.44,0.36,0.49,0.22,0.55,0.61,0.42,0.54,0.55,0.81,0.26,0.54,0.52,0.3,0.42,0.36,0.55,0.44,0.29,0.3,0.42,0.36,0.55,0.5,0.36,0.5,0.54,0.42,0.53,0.5,0.52,0.26,0.25,0.44,0.3,0.5,0.36,0.55,0.44,0.52,0.81,0.26,0.54,0.26,0.36,0.3,0.36,0.44,0.3,0.26,0.5,0.54,0.22,0.55,0.54,0.42,0.5,0.52,0.25,0.26,0.42,0.44,0.3,0.26,0.5,0.54,0.55,0.68,0.44,0.36,0.55,0.52,0.42,0.36,0.29,0.5,0.36,0.81,0.42,0.52,0.55,0.68,0.26,0.3,0.53,0.55,0.48" style="fill:rgb(0,0,0);font-family:AdvOT1ef757c0;font-size:10.0px;stroke:none;">mask. Ten minutes after bronchodilator administration, nebulization was performed with 5</text>
   <text y="487.623" x="200.012,208.132,213.43200000000002,215.659,220.659,223.559,225.75,229.39,232.41,236.57,240.21,242.81,245.31,249.51,251.772,257.082,261.662,266.862,271.022,274.662,277.682,282.682,288.092,290.692,294.892,297.127,301.918,311.641,315.281,319.651,322.151,324.751,330.161,334.361,336.529,340.169,345.169,347.669,352.869,355.889,358.489,363.572,368.982,371.182,373.38,377.96,380.56,384.96,387.156,389.656,393.816,396.816,399.006,404.416,408.576,413.576,418.776,421.276,423.876,428.147,432.307,435.90700000000004,438.125,442.495,445.515,448.535,452.979,457.139,462.449,466.609,471.80899999999997,474.012,477.032,482.032,484.273,488.433,493.013,495.514,498.114,503.524,508.724,512.884,516.484,518.8,523.8,528.48,533.06,537.64,541.8,547.1999999999999,549.415,553.055,558.255,563.455,568.747,571.247" svgx:width="0.81,0.53,0.55,0.5,0.29,0.55,0.36,0.3,0.42,0.36,0.26,0.25,0.42,0.55,0.53,0.46,0.52,0.42,0.36,0.3,0.5,0.54,0.26,0.42,0.55,0.48,0.75,0.36,0.44,0.25,0.26,0.54,0.42,0.55,0.36,0.5,0.25,0.52,0.3,0.26,0.5,0.54,0.22,0.55,0.46,0.26,0.44,0.55,0.25,0.42,0.3,0.55,0.54,0.42,0.5,0.52,0.25,0.26,0.42,0.42,0.36,0.55,0.44,0.3,0.3,0.44,0.42,0.53,0.42,0.52,0.55,0.3,0.5,0.55,0.42,0.46,0.25,0.26,0.54,0.52,0.42,0.36,0.55,0.5,0.47,0.46,0.46,0.42,0.54,0.55,0.36,0.52,0.52,0.52,0.25,0.46" style="fill:rgb(0,0,0);font-family:AdvOT1ef757c0;font-size:10.0px;stroke:none;">mL of sterile hypertonic 5%saline solution, via jet nebulizer attached to cylinder oxygen supply</text>
   <text y="500.606" x="200.012,202.922,205.422,210.422,217.192,219.792,225.202,229.802,232.044,236.414,239.414,241.625,246.443,251.545,256.34499999999997,258.518,261.018,263.618,266.638,270.798,274.438,278.078,281.298,289.418,292.018,297.429,299.62899999999996,301.89,308.76,313.96,319.16,322.8,327.8,332.48,335.08,343.2,347.698,350.718,354.878,357.378,361.978,364.139,368.929,371.109,375.909,378.142,386.262,391.562,393.789,398.79,401.69,403.938,406.538,411.948,417.148,422.348,426.508,430.668,435.868,438.124,441.764,446.964,452.164,455.184,460.384,470.779,474.419,478.789,486.909,492.109,494.609,498.80899999999997,501.054,507.824,512.194,515.794,518.005,521.025,526.396,530.556,535.956,538.188,543.188,548.188,551.208,555.578,558.178,563.588,567.748" svgx:width="0.29,0.25,0.5,0.68,0.26,0.54,0.46,0.55,0.44,0.3,0.55,0.48,0.51,0.48,0.55,0.25,0.26,0.3,0.42,0.36,0.36,0.32,0.81,0.26,0.54,0.22,0.55,0.69,0.52,0.52,0.36,0.5,0.47,0.26,0.81,0.44,0.3,0.42,0.25,0.46,0.55,0.48,0.22,0.48,0.55,0.81,0.53,0.55,0.5,0.29,0.55,0.26,0.54,0.52,0.52,0.42,0.42,0.52,0.55,0.36,0.52,0.52,0.3,0.52,0.81,0.36,0.44,0.81,0.52,0.25,0.42,0.55,0.68,0.44,0.36,0.55,0.3,0.53,0.42,0.54,0.55,0.5,0.5,0.3,0.44,0.26,0.54,0.42,0.52" style="fill:rgb(0,0,0);font-family:AdvOT1ef757c0;font-size:10.0px;stroke:none;">flowing at 3–5 liters/min. Approximately 2.5 mL of induced sputumsample was then obtained</text>
   <text y="513.589" x="200.011,205.011,209.611,211.803,215.443,220.643,224.803,227.823,230.423,235.423,240.833,243.433,248.843,253.44299999999998,255.684,260.684,263.584,265.832,268.852,274.162,278.36199999999997,280.516,285.926,290.296,293.936,298.937,304.137,309.544,313.914,317.554,322.134,327.544,332.224,334.424,336.644,341.844,345.484,348.084,353.494,358.09400000000005,360.342,364.74199999999996,366.918,370.558,373.578,377.738,381.378,383.979,386.479,390.679,392.885,401.005,406.205,410.365,415.565,419.165,421.459,425.619,430.299,433.319,436.959,441.329,445.489,448.509,453.509,457.149,459.349,461.598,465.968,471.378,476.578,478.833,481.854,485.494,489.864,495.274,498.914,504.114,509.114,512.754,515.774,519.934,525.134,527.42,534.19,536.79,539.81,545.12,547.72,553.12,555.37" svgx:width="0.5,0.46,0.55,0.36,0.52,0.42,0.3,0.26,0.5,0.54,0.26,0.54,0.46,0.55,0.5,0.29,0.55,0.3,0.53,0.42,0.55,0.54,0.44,0.36,0.5,0.52,0.53,0.44,0.36,0.46,0.54,0.47,0.22,0.55,0.52,0.36,0.26,0.54,0.46,0.55,0.44,0.55,0.36,0.3,0.42,0.36,0.26,0.25,0.42,0.55,0.81,0.52,0.42,0.52,0.36,0.55,0.42,0.47,0.3,0.36,0.44,0.42,0.3,0.5,0.36,0.22,0.55,0.44,0.54,0.52,0.55,0.3,0.36,0.44,0.54,0.36,0.52,0.5,0.36,0.3,0.42,0.52,0.55,0.68,0.26,0.3,0.53,0.26,0.54,0.55,0.48" style="fill:rgb(0,0,0);font-family:AdvOT1ef757c0;font-size:10.0px;stroke:none;">by suctioning of the nasopharynx, using a sterile mucus extractor, and transported within 4</text>
   <text y="526.629" x="200.011,205.321,210.321,215.521,219.161,222.761,225.013,230.013,232.913,235.161,239.321,244.321,246.821,249.321,253.481,257.641,260.661,263.261,268.261,273.661,275.924,278.944,283.944,286.185,289.205,294.515,298.715,300.87,303.37,307.74,312.74,317.74,321.38,325.75,328.77,333.77,337.494,342.074,344.274,346.452,353.012,358.322,362.482,366.122,369.122,371.397,376.597,381.907,386.487,390.128,392.728,397.728,400.748,406.058,410.218,413.858,418.228,423.428,428.028,430.303,437.073,441.443,445.043,447.311,452.721,457.721,460.721,462.958,467.118,475.238,480.438,482.939,487.939,492.519,496.679,501.87899999999996,504.175,508.545,512.145,514.38,519.58,523.95,527.59,530.59,532.862,537.862,540.762,542.953,545.973,551.344" svgx:width="0.53,0.5,0.52,0.36,0.36,0.55,0.5,0.29,0.55,0.42,0.5,0.25,0.25,0.42,0.42,0.3,0.26,0.5,0.54,0.55,0.3,0.5,0.55,0.3,0.53,0.42,0.55,0.25,0.44,0.5,0.5,0.36,0.44,0.3,0.5,0.36,0.46,0.22,0.55,0.66,0.53,0.42,0.36,0.3,0.55,0.52,0.53,0.46,0.36,0.26,0.5,0.3,0.53,0.42,0.36,0.44,0.52,0.46,0.55,0.68,0.44,0.36,0.55,0.54,0.5,0.3,0.55,0.42,0.81,0.52,0.25,0.5,0.46,0.42,0.52,0.55,0.44,0.36,0.55,0.52,0.44,0.36,0.3,0.55,0.5,0.29,0.55,0.3,0.53,0.42" style="fill:rgb(0,0,0);font-family:AdvOT1ef757c0;font-size:10.0px;stroke:none;">hours of collection to the laboratory. Chest physiotherapy was not employed as part of the</text>
   <text y="539.612" x="200.011,202.611,208.021,213.221,218.421,222.581,226.741,231.941,234.197,237.837,243.037,248.237,251.257,256.457,266.852,272.052,275.692,280.692,284.852,289.012,294.212,299.413,303.053,307.332" svgx:width="0.26,0.54,0.52,0.52,0.42,0.42,0.52,0.55,0.36,0.52,0.52,0.3,0.52,0.81,0.52,0.36,0.5,0.42,0.42,0.52,0.52,0.36,0.42,0.22" style="fill:rgb(0,0,0);font-family:AdvOT1ef757c0;font-size:10.0px;stroke:none;">induced sputumprocedure.</text>
   <text y="552.595" x="211.973,219.263,222.972,225.572,230.982,235.582,237.769,244.219,249.419,253.579,257.219,260.219,262.487,271.337,277.477,283.307,286.527,292.667,295.997,301.197,303.477,307.847,311.487,315.127,319.497,324.09700000000004,326.324,330.694,336.104,341.304,343.559,352.409,359.489,362.819,368.91900000000004,371.169,375.329,380.529,383.029,386.049,391.249,394.89,399.09,401.331,404.971,409.131,412.771,417.971,420.471,423.491,427.131,429.33099999999996,431.549,438.319,442.519,444.702,448.862,453.862,461.982,467.182,471.552,475.192,479.455,484.655,486.825,492.026,494.626,499.072,503.652,509.062,514.062,517.702,520.722,523.322,527.522,529.687,534.267,536.867,541.027,543.527,548.7270000000001,551.004,553.914,557.554,562.554" svgx:width="0.73,0.36,0.26,0.54,0.46,0.55,0.64,0.52,0.42,0.36,0.3,0.55,0.88,0.61,0.58,0.32,0.61,0.33,0.52,0.55,0.44,0.36,0.36,0.44,0.46,0.55,0.44,0.54,0.52,0.55,0.88,0.71,0.33,0.61,0.55,0.42,0.52,0.25,0.3,0.52,0.36,0.42,0.55,0.36,0.42,0.36,0.52,0.25,0.3,0.36,0.22,0.55,0.68,0.42,0.55,0.42,0.5,0.81,0.52,0.44,0.36,0.42,0.52,0.55,0.52,0.26,0.44,0.46,0.54,0.5,0.36,0.3,0.26,0.42,0.55,0.46,0.26,0.42,0.25,0.52,0.55,0.29,0.36,0.5,0.81" style="fill:rgb(0,0,0);font-family:AdvOT1ef757c0;font-size:10.0px;stroke:none;">Using Xpert MTB/RIF assay and MGIT culture results, we compared diagnostic yield from</text>
   <text y="565.634" x="200.01,202.611,208.021,213.221,218.421,222.581,226.741,231.941,234.197,237.837,243.037,248.237,251.257,256.457,266.852,269.872,274.872,277.057,280.077,285.448,289.818,292.818,295.029,297.939,301.58,306.58,316.914,321.494,325.864,329.504,332.524,336.247,338.847,343.04699999999997,345.204,347.704,352.074,356.654,361.024,365.604,369.804,372.02,375.66,380.03,388.15,393.351,395.851,400.011,403.651,405.851,408.078,412.448,417.858,423.058,425.313,430.513,434.673,437.693,441.853,445.493,453.613,456.213,461.623,465.783,470.983,473.276,476.916,481.076,486.486,490.127,492.727,495.747,498.347,502.927,505.527,508.654,513.254,515.4,520.4,523.3,525.548,531.998,537.198,541.358,544.998,547.998,550.266,559.116,565.256,571.086" svgx:width="0.26,0.54,0.52,0.52,0.42,0.42,0.52,0.55,0.36,0.52,0.52,0.3,0.52,0.81,0.3,0.5,0.55,0.3,0.53,0.44,0.3,0.55,0.29,0.36,0.5,0.81,0.46,0.44,0.36,0.3,0.36,0.26,0.42,0.55,0.25,0.44,0.46,0.44,0.46,0.42,0.55,0.36,0.44,0.81,0.52,0.25,0.42,0.36,0.22,0.55,0.44,0.54,0.52,0.55,0.52,0.42,0.3,0.42,0.36,0.81,0.26,0.54,0.42,0.52,0.55,0.36,0.42,0.54,0.36,0.26,0.3,0.26,0.46,0.26,0.3,0.46,0.55,0.5,0.29,0.55,0.64,0.52,0.42,0.36,0.3,0.55,0.88,0.61,0.58,0.32" style="fill:rgb(0,0,0);font-family:AdvOT1ef757c0;font-size:10.0px;stroke:none;">induced sputumto that fromgastric lavage samples; and determined sensitivity of Xpert MTB/</text>
   <text y="578.617" x="200.01,206.151,209.481,214.68099999999998,216.906,221.276,224.916,228.556,232.926,237.52599999999998,239.753,242.353,247.75300000000001,249.958,254.118,258.488,262.648,267.94800000000004,270.198,273.838,278.208,286.328,291.528,294.028,298.228,300.473,303.493,308.073,313.273,317.433,319.633,321.846,331.526,335.726,337.89,343.09,347.25,350.16,352.76,358.17,362.438,367.638,369.808,374.20799999999997,376.384,382.524,388.324,390.614,394.774,399.144,402.784,406.984,409.154,414.154,418.754,420.946,426.146,431.146,434.786,437.386,440.406,443.006,447.586,451.786,453.998,457.638,461.798,465.438,470.723,473.223,476.223,478.433,481.343,486.343" svgx:width="0.61,0.33,0.52,0.55,0.44,0.36,0.36,0.44,0.46,0.55,0.26,0.54,0.55,0.42,0.44,0.42,0.53,0.55,0.36,0.44,0.81,0.52,0.25,0.42,0.55,0.3,0.46,0.52,0.42,0.22,0.55,0.97,0.42,0.55,0.52,0.42,0.29,0.26,0.54,0.42,0.52,0.55,0.44,0.55,0.61,0.58,0.55,0.42,0.44,0.36,0.42,0.55,0.5,0.46,0.55,0.52,0.5,0.36,0.26,0.3,0.26,0.46,0.42,0.55,0.36,0.42,0.36,0.52,0.25,0.3,0.55,0.29,0.5,0.36" style="fill:rgb(0,0,0);font-family:AdvOT1ef757c0;font-size:10.0px;stroke:none;">RIF assay in each sample type. We defined a TB case by positive result for</text>
   <text y="578.617" x="492.206,500.957,505.327,509.077,513.757,518.547,523.437,527.187,530.207,534.157,537.797,540.497,545.807" svgx:width="0.88,0.44,0.38,0.47,0.48,0.49,0.38,0.3,0.4,0.36,0.27,0.53,0.78" style="fill:rgb(0,0,0);font-family:AdvOT7d6df7ab.I;font-size:10.0px;stroke:none;">Mycobacterium</text>
   <text y="591.6" x="200.01,203.031,208.341,213.131,217.081,220.721,224.471,229.781,232.171,236.851,240.181,242.881" svgx:width="0.3,0.53,0.48,0.4,0.36,0.38,0.53,0.24,0.47,0.33,0.27,0.33" style="fill:rgb(0,0,0);font-family:AdvOT7d6df7ab.I;font-size:10.0px;stroke:none;">tuberculosis</text>
   <text y="591.6" x="248.483,253.483,258.883,261.126,265.496,270.906,275.50600000000003,277.68,280.7,284.86,288.5,291.5,293.781,298.982,304.182,307.822,310.422,315.832,320.432,322.696,327.096,329.272,333.852,336.452,341.032,345.192,350.592,352.8,357.17,362.37,370.49,373.09,376.73,380.466,383.066,388.067,393.467,395.661,399.821,404.401,408.561,413.971,416.991,419.191,421.457,426.657,431.657,435.257,437.501,441.661,446.341,450.711,458.831,464.031,466.531,470.691,472.89099999999996,475.146,479.516,484.916,487.166,491.536,496.736,504.856,507.456,511.096,514.736,517.336,522.336,527.736,530.026,534.186,538.766,542.926,548.336,551.336,553.61,560.38,564.75" svgx:width="0.5,0.54,0.55,0.44,0.54,0.46,0.55,0.3,0.42,0.36,0.3,0.55,0.52,0.52,0.36,0.26,0.54,0.46,0.55,0.44,0.55,0.46,0.26,0.46,0.42,0.54,0.55,0.44,0.52,0.81,0.26,0.36,0.36,0.26,0.5,0.54,0.55,0.42,0.46,0.42,0.54,0.3,0.22,0.55,0.52,0.5,0.36,0.55,0.42,0.47,0.44,0.81,0.52,0.25,0.42,0.22,0.55,0.44,0.54,0.55,0.44,0.52,0.81,0.26,0.36,0.36,0.26,0.5,0.54,0.55,0.42,0.46,0.42,0.54,0.3,0.55,0.68,0.44,0.36" style="fill:rgb(0,0,0);font-family:AdvOT1ef757c0;font-size:10.0px;stroke:none;">on any test during a given admission event. For example, an admission event was</text>
   <text y="604.583" x="200.01,204.171,209.171,214.581,218.221,220.821,226.021,230.181,233.821,237.981,243.18099999999998,245.479,248.499,253.499,255.684,260.684,264.884,267.079,271.479,273.655,277.815,282.185,285.825,290.025,292.194,294.794,297.69399999999996,299.962,302.982,308.292,312.452,316.092,320.292,322.469,329.239,333.609,337.209,339.477,343.87699999999995,346.053,351.253,356.253,359.893,362.493,365.513,368.113,372.693,376.893,379.105,382.745,386.905,390.545,395.831,398.331,401.331,403.541,408.541,413.941,416.184,420.554,423.554,425.765,428.265,432.425,436.795,440.435,443.435,445.721,450.721,456.131,460.33099999999996,462.502,467.502,470.402,472.593,481.443,488.524,491.927,498.02700000000004,500.261,504.421,509.621,512.121,515.141,520.341,523.981,528.181,530.422,535.422,539.022,541.25,547.7,552.9,557.06,560.7" svgx:width="0.42,0.5,0.54,0.36,0.26,0.52,0.42,0.36,0.42,0.52,0.55,0.3,0.5,0.55,0.5,0.42,0.55,0.44,0.55,0.42,0.44,0.36,0.42,0.55,0.26,0.29,0.55,0.3,0.53,0.42,0.36,0.42,0.55,0.68,0.44,0.36,0.55,0.44,0.55,0.52,0.5,0.36,0.26,0.3,0.26,0.46,0.42,0.55,0.36,0.42,0.36,0.52,0.25,0.3,0.55,0.5,0.54,0.55,0.44,0.3,0.55,0.25,0.42,0.44,0.36,0.3,0.55,0.5,0.54,0.42,0.55,0.5,0.29,0.55,0.88,0.71,0.33,0.61,0.55,0.42,0.52,0.25,0.3,0.52,0.36,0.42,0.55,0.5,0.36,0.55,0.64,0.52,0.42,0.36,0.3" style="fill:rgb(0,0,0);font-family:AdvOT1ef757c0;font-size:10.0px;stroke:none;">considered to be a case if there was a positive result on at least one of MGIT culture or Xpert</text>
   <text y="617.622" x="200.01,208.861,215.001,220.831,224.051,230.191,233.521,238.72099999999998,241.0,245.37,249.01,252.65,257.02,261.6,263.8,266.002,270.372,275.782,280.98199999999997,283.237,288.647,293.647,296.647,298.884,303.284,305.461,309.621,313.991,317.631,321.83099999999996,324.056,326.656,329.556,331.766,337.176,341.336,345.916,350.286,353.306,355.906,360.486,364.686,366.916,371.916,377.316,379.559,384.559,389.559,392.579,397.879,400.083,403.103,407.263,410.903,413.923,417.563,419.763,421.967,431.718,435.918,438.068,441.708,445.868,451.068,456.068,459.708,462.708,464.997,468.017,473.327,476.967,481.127,485.327,487.504,491.664,496.035,499.055,503.215,507.795,512.795,516.435,519.035,523.195,526.7950000000001,529.118,534.118,537.018,539.266,544.466,547.066,551.436,556.016,561.426,566.426,570.066" svgx:width="0.88,0.61,0.58,0.32,0.61,0.33,0.52,0.55,0.44,0.36,0.36,0.44,0.46,0.22,0.55,0.44,0.54,0.52,0.55,0.54,0.5,0.3,0.55,0.44,0.55,0.42,0.44,0.36,0.42,0.55,0.26,0.29,0.55,0.54,0.42,0.46,0.44,0.3,0.26,0.46,0.42,0.55,0.5,0.54,0.55,0.5,0.5,0.3,0.53,0.55,0.3,0.42,0.36,0.3,0.36,0.22,0.55,0.97,0.42,0.55,0.36,0.42,0.52,0.5,0.36,0.3,0.55,0.3,0.53,0.36,0.42,0.42,0.55,0.42,0.44,0.3,0.42,0.46,0.5,0.36,0.26,0.42,0.36,0.55,0.5,0.29,0.55,0.52,0.26,0.44,0.46,0.54,0.5,0.36,0.35" style="fill:rgb(0,0,0);font-family:AdvOT1ef757c0;font-size:10.0px;stroke:none;">MTB/RIF assay, and not a case if negative on both tests. We report three categories of diagnos-</text>
   <text y="630.606" x="200.01,203.031,205.631,209.831,211.973,216.553,219.153,223.313,225.813,231.013,233.213,235.444,239.604,243.244,248.444,253.644,257.844,260.106,264.686,267.286,271.446,273.946,279.146,281.346,283.577,286.177,291.587,295.747,299.388,303.548,311.668,315.828,321.238,324.258,328.628,331.128,333.412,337.992,340.592,344.752,347.252,352.452,354.672,359.042,364.452,369.652,371.907,377.107,379.707,382.617,385.527,389.688,393.328,397.488,402.898,407.058,411.218,414.81800000000004,417.149,419.749,425.149,427.41,431.99,434.59,438.75,441.25,446.45,448.65,450.881,457.441,461.081,466.281,471.481,475.681,477.867,482.447,485.047,489.208,491.708,496.908,499.185,505.955,510.325,513.925,516.193,521.393,525.553,528.463,531.063,536.473,540.633,545.8330000000001,548.111,552.481" svgx:width="0.3,0.26,0.42,0.55,0.46,0.26,0.42,0.25,0.52,0.22,0.55,0.42,0.36,0.52,0.52,0.42,0.55,0.46,0.26,0.42,0.25,0.52,0.22,0.55,0.26,0.54,0.42,0.36,0.42,0.81,0.42,0.54,0.3,0.44,0.25,0.55,0.46,0.26,0.42,0.25,0.52,0.55,0.44,0.54,0.52,0.55,0.52,0.26,0.29,0.29,0.42,0.36,0.42,0.54,0.42,0.42,0.36,0.55,0.26,0.54,0.55,0.46,0.26,0.42,0.25,0.52,0.22,0.55,0.66,0.36,0.52,0.52,0.42,0.55,0.46,0.26,0.42,0.25,0.52,0.55,0.68,0.44,0.36,0.55,0.52,0.42,0.29,0.26,0.54,0.42,0.52,0.55,0.44,0.36" style="fill:rgb(0,0,0);font-family:AdvOT1ef757c0;font-size:10.0px;stroke:none;">tic yield: crude yield, incremental yield and differences in yield. Crude yield was defined as</text>
   <text y="643.589" x="200.01,205.421,210.621,218.741,223.741,227.901,231.501,233.8,238.8" svgx:width="0.54,0.52,0.81,0.5,0.42,0.36,0.55,0.5,0.29" style="fill:rgb(0,0,0);font-family:AdvOT1ef757c0;font-size:10.0px;stroke:none;">number of</text>
   <text y="643.589" x="243.891,252.641,257.011,260.761,265.441,270.31,275.2,278.95,281.97,285.92,289.56,292.26,297.57,307.615,310.635,315.945,320.735,324.685,328.325,332.163,337.473,339.863,344.543,347.873,350.573" svgx:width="0.88,0.44,0.38,0.47,0.48,0.49,0.38,0.3,0.4,0.36,0.27,0.53,0.78,0.3,0.53,0.48,0.4,0.36,0.38,0.53,0.24,0.47,0.33,0.27,0.33" style="fill:rgb(0,0,0);font-family:AdvOT7d6df7ab.I;font-size:10.0px;stroke:none;">Mycobacteriumtuberculosis</text>
   <text y="643.589" x="356.143,361.343,366.343,369.983,372.583,375.603,378.203,382.783,386.983,389.195,393.355,397.725,401.366,405.526,409.12600000000003,411.42,416.62,419.22,423.8,426.4,431.6,435.76,440.96,443.225,448.225,452.82500000000005,455.017,460.427,465.627,473.747,478.747,482.907,486.507,488.806,493.807,496.707,498.955,503.325,505.825,508.325,510.52,514.89,520.09,528.21,530.81,534.45,538.09,540.69,545.69,551.09,553.38,557.54,562.74,565.34" svgx:width="0.52,0.5,0.36,0.26,0.3,0.26,0.46,0.42,0.55,0.42,0.44,0.36,0.42,0.36,0.55,0.52,0.26,0.46,0.26,0.52,0.42,0.52,0.55,0.5,0.46,0.55,0.54,0.52,0.81,0.5,0.42,0.36,0.55,0.5,0.29,0.55,0.44,0.25,0.25,0.55,0.44,0.52,0.81,0.26,0.36,0.36,0.26,0.5,0.54,0.55,0.42,0.52,0.26,0.35" style="fill:rgb(0,0,0);font-family:AdvOT1ef757c0;font-size:10.0px;stroke:none;">positive cases divided by number of all admission epi-</text>
   <text y="656.628" x="200.01,203.651,208.651,213.851,218.011,221.611,223.879,226.479,231.889,236.469,240.629,244.269,247.289,249.889,254.469,258.839,261.859,266.019,271.219,273.419,275.697,278.607,283.607,287.20700000000005,289.473,293.633,298.003,302.164,307.464,309.714,313.874,318.244,321.264,325.424,330.004,335.004,338.741,343.341,345.487,350.487,353.387,355.635,359.275,363.645,371.765,376.965,379.465,383.625,385.825,388.064,394.625,398.265,403.465,408.665,412.865,415.108,419.688,422.288,426.448,428.948,434.14799999999997,436.368,443.138,447.508,451.108,453.376,457.536,461.906,464.406,468.566,473.766,476.266,480.636,483.656,487.816,493.01599999999996,495.274,498.184,503.184,506.78400000000005,509.05,515.5,520.7,524.86,528.5,531.5,533.768,542.618,548.758,554.588,557.808,564.042,567.372,572.572" svgx:width="0.36,0.5,0.52,0.42,0.36,0.55,0.26,0.54,0.46,0.42,0.36,0.3,0.26,0.46,0.44,0.3,0.42,0.52,0.22,0.55,0.29,0.5,0.36,0.55,0.42,0.44,0.42,0.53,0.55,0.42,0.44,0.3,0.42,0.46,0.5,0.36,0.46,0.55,0.5,0.29,0.55,0.36,0.44,0.81,0.52,0.25,0.42,0.22,0.55,0.66,0.36,0.52,0.52,0.42,0.55,0.46,0.26,0.42,0.25,0.52,0.55,0.68,0.44,0.36,0.55,0.42,0.44,0.25,0.42,0.52,0.25,0.44,0.3,0.42,0.52,0.55,0.29,0.5,0.36,0.55,0.64,0.52,0.42,0.36,0.3,0.55,0.88,0.61,0.58,0.32,0.61,0.33,0.52,0.22" style="fill:rgb(0,0,0);font-family:AdvOT1ef757c0;font-size:10.0px;stroke:none;">sodes investigated, for each category of sample. Crude yield was calculated for Xpert MTB/RIF,</text>
   <text y="669.611" x="200.01,208.861,215.941,219.271,225.37099999999998,227.621,231.781,236.981,239.481,242.501,247.701,251.432,255.592,257.79200000000003,259.993,264.363,269.773,274.973,277.171,280.081,285.081,288.68100000000004,290.947,295.347,297.524,301.684,306.684,314.804,319.804,322.404,327.814,332.277,335.297,337.897,342.897,348.29699999999997,350.532,355.532,358.43199999999996,360.623,363.643,368.953,373.15299999999996,375.363,378.383,385.154,390.154,392.372,395.392,399.552,403.192,406.212,409.812,412.101,415.531,424.381,431.461,434.791,440.891,443.169,447.329,452.529,455.029,458.049,463.249,466.889,471.089,473.273,478.273,481.87300000000005,484.159,490.609,495.809,499.969,503.609,506.609,508.877,517.727,523.867,529.6669999999999,531.951,538.091,541.421,546.6210000000001,548.846,553.216,556.856,560.496,564.866,569.446,572.876" svgx:width="0.88,0.71,0.33,0.61,0.55,0.42,0.52,0.25,0.3,0.52,0.36,0.42,0.22,0.55,0.44,0.54,0.52,0.55,0.29,0.5,0.36,0.55,0.44,0.55,0.42,0.5,0.81,0.5,0.26,0.54,0.44,0.3,0.26,0.5,0.54,0.55,0.5,0.29,0.55,0.3,0.53,0.42,0.55,0.3,0.68,0.5,0.55,0.3,0.42,0.36,0.3,0.36,0.55,0.34,0.88,0.71,0.33,0.61,0.55,0.42,0.52,0.25,0.3,0.52,0.36,0.42,0.55,0.5,0.36,0.55,0.64,0.52,0.42,0.36,0.3,0.55,0.88,0.61,0.58,0.55,0.61,0.33,0.52,0.55,0.44,0.36,0.36,0.44,0.46,0.34,0.22" style="fill:rgb(0,0,0);font-family:AdvOT1ef757c0;font-size:10.0px;stroke:none;">MGIT culture, and for a combination of the two tests [MGIT culture or Xpert MTB RIF assay].</text>
   <text y="682.594" x="200.01,203.341,208.751,212.911,216.551,220.711,228.831,232.991,238.401,241.421,245.791,248.291,250.582,255.162,257.762,261.922,264.422,269.622,271.842,278.612,282.982,286.58200000000005,288.85,294.05,298.21,301.121,303.721,309.131,313.291,318.491,320.769,325.139,328.73900000000003,331.03,334.05,339.36,343.56,345.714,350.084,355.284,360.484,363.084,366.104,368.704,373.704,379.22,383.59,386.09,388.291,392.871,397.242,399.842,405.24199999999996,407.454,410.054,415.45399999999995,417.715,421.875,425.515,430.715,435.915,440.115,442.32,446.9,449.5,453.66,456.16,461.36,463.58,467.95,470.86,473.77,478.77,482.41,487.611,491.871,497.07099999999997,499.241,504.241,508.841,511.033,514.053,518.213,521.853,524.873,527.473,532.973,537.573,539.719,544.119,546.295,549.935,554.095,558.255,563.255,568.665" svgx:width="0.33,0.54,0.42,0.36,0.42,0.81,0.42,0.54,0.3,0.44,0.25,0.55,0.46,0.26,0.42,0.25,0.52,0.55,0.68,0.44,0.36,0.55,0.52,0.42,0.29,0.26,0.54,0.42,0.52,0.55,0.44,0.36,0.55,0.3,0.53,0.42,0.55,0.44,0.52,0.52,0.26,0.3,0.26,0.5,0.54,0.44,0.25,0.55,0.46,0.44,0.26,0.54,0.55,0.26,0.54,0.55,0.42,0.36,0.52,0.52,0.42,0.55,0.46,0.26,0.42,0.25,0.52,0.55,0.44,0.29,0.29,0.5,0.36,0.52,0.42,0.52,0.55,0.5,0.46,0.55,0.3,0.42,0.36,0.3,0.26,0.54,0.46,0.55,0.44,0.55,0.36,0.42,0.42,0.5,0.54,0.52" style="fill:rgb(0,0,0);font-family:AdvOT1ef757c0;font-size:10.0px;stroke:none;">Incremental yield was defined as the additional gain in crude yield afforded by testing a second</text>
   <text y="695.633" x="200.01,203.651,208.021,216.141,221.341,223.841,228.041,230.229,235.229,238.12900000000002,240.377,242.977,248.387,253.587,258.787,262.947,267.107,272.307,274.563,278.203,283.403,288.603,291.623,296.823,307.219,312.219,315.819,318.104,322.684,327.054,330.694,333.714,337.354,339.954,344.154,346.337,348.837,353.207,357.787,362.157,366.737,370.897,373.097,375.364,379.004,383.164,386.804,392.004,396.164,400.325,403.345,405.945,410.525,414.685,417.185,421.765,423.965,426.219,432.359,437.669,441.86899999999997,444.077,449.487,454.687,462.807,466.967,470.607,474.977,478.093,483.093,486.69300000000004,488.921,491.831,496.832,500.432,502.698,505.298,510.708,514.868,518.508,522.668,530.788,534.948,540.358,543.378,547.748,550.248,552.532,557.112,559.712,563.872,566.372" svgx:width="0.36,0.44,0.81,0.52,0.25,0.42,0.55,0.5,0.29,0.55,0.26,0.54,0.52,0.52,0.42,0.42,0.52,0.55,0.36,0.52,0.52,0.3,0.52,0.81,0.5,0.36,0.55,0.46,0.44,0.36,0.3,0.36,0.26,0.42,0.55,0.25,0.44,0.46,0.44,0.46,0.42,0.22,0.55,0.36,0.42,0.36,0.52,0.42,0.42,0.3,0.26,0.46,0.42,0.25,0.46,0.22,0.55,0.61,0.53,0.42,0.55,0.54,0.52,0.81,0.42,0.36,0.44,0.3,0.5,0.36,0.55,0.29,0.5,0.36,0.55,0.26,0.54,0.42,0.36,0.42,0.81,0.42,0.54,0.3,0.44,0.25,0.55,0.46,0.26,0.42,0.25,0.52" style="fill:rgb(0,0,0);font-family:AdvOT1ef757c0;font-size:10.0px;stroke:none;">sample of induced sputumor gastric lavage, respectively. The numerator for incremental yield</text>
   <text y="708.616" x="200.01,206.781,211.151,214.751,217.019,222.219,226.379,229.289,231.889,237.299,241.459,246.659,248.937,253.307,256.907,259.142,262.162,267.472,271.67199999999997,273.882,279.292,284.492,292.612,297.612,301.772,305.372,307.672,312.672,315.572,317.763,323.903,329.70300000000003,331.993,336.153,340.523,344.163,348.323,351.923,354.16,357.18,362.551,366.921,369.921,372.132,380.252,382.852,387.432,392.742,395.742,397.984,402.985,407.185,409.38,411.98,417.18,421.34,426.75,429.77,432.37,435.28,437.88,442.04,447.24,449.519,454.519,459.119,461.311,465.71099999999996,467.887,471.527,476.727,480.887,485.047,487.647,490.557,493.158,497.425,502.625,504.795,507.815,511.975,515.615,518.635,520.835,523.05,527.21,529.81,532.83,538.14,542.383,545.9830000000001,548.222,554.672,559.872,564.032,567.672" svgx:width="0.68,0.44,0.36,0.55,0.52,0.42,0.29,0.26,0.54,0.42,0.52,0.55,0.44,0.36,0.55,0.3,0.53,0.42,0.55,0.54,0.52,0.81,0.5,0.42,0.36,0.55,0.5,0.29,0.55,0.61,0.58,0.55,0.42,0.44,0.36,0.42,0.36,0.55,0.3,0.53,0.44,0.3,0.55,0.81,0.26,0.46,0.53,0.3,0.55,0.5,0.42,0.55,0.26,0.52,0.42,0.54,0.3,0.26,0.29,0.26,0.42,0.52,0.55,0.5,0.46,0.55,0.44,0.55,0.36,0.52,0.42,0.42,0.26,0.29,0.26,0.42,0.52,0.55,0.3,0.42,0.36,0.3,0.22,0.55,0.42,0.26,0.3,0.53,0.42,0.36,0.55,0.64,0.52,0.42,0.36,0.3" style="fill:rgb(0,0,0);font-family:AdvOT1ef757c0;font-size:10.0px;stroke:none;">was defined as the number of TB cases that might be identified by a specified test, either Xpert</text>
  </g>
  <path style="fill:rgb(0,0,0);stroke:none;stroke-width:1.0;" d="M576.000 54.880 L36.000 54.880 L36.000 54.430 L576.000 54.430 "/>
  <rect style="stroke:blue;stroke-width:0.3;" x="36.0" y="35.042" height="23.698" width="107.328" title="3"/>
  <text y="35.042" class="image" id="image.3.1" width="107" height="23" x="36.0">image.3.1.36_143.35_59</text>
  <g begin="text">
   <text y="46.205" x="334.205,339.533,343.948,348.364,350.94" svgx:width="0.67,0.55,0.55,0.32,0.27" style="fill:rgb(0,0,0);font-family:AdvOT82c4f4c4;font-size:8.0px;stroke:none;">Xpert</text>
   <text y="42.633" x="353.027" svgx:width="1.0" style="fill:rgb(0,0,0);font-family:AdvPi3;font-size:5.33px;stroke:none;">1</text>
   <text y="46.205" x="360.794,366.122,370.121,374.121,378.537,382.537,384.264,386.008,390.40799999999996,392.144,397.472,401.888,403.632,406.208,410.624,415.024,416.749,418.909,423.325,427.741,432.157,436.157,440.573,444.97299999999996,446.683,452.011,456.427,460.843,463.003,467.419,475.71,480.126,484.542,488.94199999999995,490.677,496.837,501.253,505.253,507.413,509.989,511.733,515.733,517.436,521.852,526.268,530.268,534.684,539.1,543.5,545.159,550.487,554.903,561.479,565.894,567.638,572.054" svgx:width="0.67,0.5,0.5,0.55,0.5,0.55,0.22,0.55,0.55,0.67,0.55,0.22,0.32,0.55,0.55,0.55,0.27,0.55,0.55,0.55,0.5,0.55,0.55,0.55,0.67,0.55,0.55,0.27,0.55,0.82,0.55,0.55,0.55,0.55,0.77,0.55,0.5,0.27,0.32,0.22,0.5,0.55,0.55,0.55,0.5,0.55,0.55,0.55,0.55,0.67,0.55,0.82,0.55,0.22,0.55,0.5" style="fill:rgb(0,0,0);font-family:AdvOT82c4f4c4;font-size:8.0px;stroke:none;">Assay in Paired Induced Sputumand Gastric Lavage Samples</text>
  </g>
  <path style="fill:rgb(0,0,0);stroke:none;stroke-width:0.25;" d="M36.000 743.980 L576.000 743.980 L576.000 744.490 L36.000 744.490 "/>
  <g begin="text">
   <text y="756.0" x="36.0,41.328,45.744,51.904,57.264,58.961,65.12,70.864,76.224,77.896,79.896,81.638,87.382,93.542,95.702,97.862,102.278,106.694,108.853,113.269,117.685,122.003,126.419,128.579,130.323,134.739,139.155,141.731,146.147,150.563,152.307,154.467,158.797,163.213,167.629,172.045,174.205,178.621,183.037,187.452,191.868,196.284,200.7,205.1,212.995,218.739,223.155,227.155,231.571,238.147,242.563,246.979,249.53900000000002,251.263,255.679,260.095,262.25500000000005,263.962,268.378,272.794,277.21,281.60999999999996,557.119,561.519,563.293,565.453,567.212,571.628" svgx:width="0.67,0.55,0.77,0.67,0.55,0.77,0.72,0.67,0.55,0.25,0.55,0.72,0.77,0.27,0.27,0.55,0.55,0.27,0.55,0.55,0.55,0.55,0.27,0.22,0.55,0.55,0.32,0.55,0.55,0.22,0.27,0.55,0.55,0.55,0.55,0.27,0.55,0.55,0.55,0.55,0.55,0.55,0.55,0.55,0.72,0.55,0.5,0.55,0.82,0.55,0.55,0.32,0.55,0.55,0.55,0.27,0.55,0.55,0.55,0.55,0.55,0.55,0.55,0.55,0.27,0.55,0.55,0.55" style="fill:rgb(0,0,0);font-family:AdvOT82c4f4c4;font-size:8.0px;stroke:none;">PLOS ONE | DOI:10.1371/journal.pone.0141623 November 10, 2015 3 / 10</text>
  </g>
 </g>
</svg>
