<?xml version="1.0" encoding="UTF-8"?>
<svg height="766.0" width="4046.0" xmlns="http://www.w3.org/2000/svg">
 <g>
  <text y="83.282" x="200.012,204.884,209.26,214.132,216.34,220.74,222.406,226.782,229.02200000000002,230.739,236.027,240.899,245.771,250.643,255.523,257.215,261.591,266.463,271.343,273.089,277.465,282.337,286.713,288.921,293.297,297.673,299.881,304.28099999999995,305.914,308.538,312.913,317.785,322.161" svgx:width="0.61,0.55,0.61,0.28,0.55,0.55,0.55,0.28,0.55,0.67,0.61,0.61,0.61,0.61,0.55,0.55,0.61,0.61,0.55,0.55,0.61,0.55,0.28,0.55,0.55,0.28,0.55,0.55,0.33,0.55,0.61,0.55,0.28" style="fill:rgb(0,0,0);font-family:Helvetica-Bold;font-size:8.0px;stroke:none;" xmlns:svgx="http://www.xml-cml.org/schema/svgx">Table 3. Sound and analysis type.</text>
  <text y="98.135" x="208.119,213.863,218.279,220.91899999999998,241.454,246.782,251.198,255.614,258.654,330.859,336.187,341.099,346.011,350.923,355.803,357.618,362.53,366.946,371.858,376.258,447.589,453.333,458.244,463.156,466.236,471.148,475.564,479.98,484.86,524.464,529.376,533.792,538.208,542.624" svgx:width="0.72,0.55,0.33,0.55,0.67,0.55,0.55,0.38,0.55,0.67,0.61,0.61,0.61,0.61,0.55,0.61,0.55,0.61,0.55,0.55,0.72,0.61,0.61,0.38,0.61,0.55,0.55,0.61,0.55,0.61,0.55,0.55,0.55,0.28" style="fill:rgb(0,0,0);font-family:Helvetica-Bold;font-size:8.0px;stroke:none;" xmlns:svgx="http://www.xml-cml.org/schema/svgx">Ref Year Sound Type Approach Level</text>
  <text y="110.607" x="276.717,284.317,302.115,307.875,325.7,331.46,349.34,354.7,372.528,377.88800000000003,395.658,401.418,419.299,424.627,430.387,448.156,453.9,458.29999999999995,476.162,481.906,484.146,502.013,507.341,511.741,529.623,534.951,539.351,557.176,562.92" svgx:width="0.95,0.55,0.72,0.55,0.72,0.55,0.67,0.55,0.67,0.55,0.72,0.55,0.67,0.72,0.55,0.72,0.55,0.55,0.72,0.28,0.55,0.67,0.55,0.55,0.67,0.55,0.55,0.72,0.55" style="fill:rgb(0,0,0);font-family:Helvetica-Bold;font-size:8.0px;stroke:none;" xmlns:svgx="http://www.xml-cml.org/schema/svgx">W R C S E U SC De Cl Se Ev Re</text>
  <text y="123.137" x="207.892" svgx:width="0.28" style="fill:rgb(0,0,0);font-family:Helvetica;font-size:8.0px;stroke:none;" xmlns:svgx="http://www.xml-cml.org/schema/svgx">[</text>
  <text y="123.137" x="210.14,214.556" svgx:width="0.55,0.55" style="fill:rgb(59,90,166);font-family:Helvetica;font-size:8.0px;stroke:none;" xmlns:svgx="http://www.xml-cml.org/schema/svgx">37</text>
  <text y="123.137" x="218.972,221.21200000000002,241.228,245.644,250.06,254.476,258.876,279.099,281.899,302.796,307.19599999999997,326.38,330.78,451.841,454.641,478.77,481.57,505.472,508.272,560.861" svgx:width="0.28,0.55,0.55,0.55,0.55,0.55,0.55,0.35,0.55,0.55,0.55,0.55,0.55,0.35,0.55,0.35,0.55,0.35,0.55,0.35" style="fill:rgb(0,0,0);font-family:Helvetica;font-size:8.0px;stroke:none;" xmlns:svgx="http://www.xml-cml.org/schema/svgx">] 2016 • o o • • • •</text>
  <text y="135.608" x="207.892" svgx:width="0.28" style="fill:rgb(0,0,0);font-family:Helvetica;font-size:8.0px;stroke:none;" xmlns:svgx="http://www.xml-cml.org/schema/svgx">[</text>
  <text y="135.608" x="210.14,214.556" svgx:width="0.55,0.55" style="fill:rgb(59,90,166);font-family:Helvetica;font-size:8.0px;stroke:none;" xmlns:svgx="http://www.xml-cml.org/schema/svgx">38</text>
  <text y="135.608" x="218.972,221.21200000000002,241.228,245.644,250.06,254.476,258.876,279.099,281.899,327.174,329.974,478.77,481.57,560.861" svgx:width="0.28,0.55,0.55,0.55,0.55,0.55,0.55,0.35,0.55,0.35,0.55,0.35,0.55,0.35" style="fill:rgb(0,0,0);font-family:Helvetica;font-size:8.0px;stroke:none;" xmlns:svgx="http://www.xml-cml.org/schema/svgx">] 2016 • • • •</text>
  <text y="148.138" x="207.892" svgx:width="0.28" style="fill:rgb(0,0,0);font-family:Helvetica;font-size:8.0px;stroke:none;" xmlns:svgx="http://www.xml-cml.org/schema/svgx">[</text>
  <text y="148.138" x="210.14,214.556" svgx:width="0.55,0.55" style="fill:rgb(59,90,166);font-family:Helvetica;font-size:8.0px;stroke:none;" xmlns:svgx="http://www.xml-cml.org/schema/svgx">39</text>
  <text y="148.138" x="218.972,221.21200000000002,241.228,245.644,250.06,254.476,258.876,279.099,281.899,451.84,454.64,478.77,481.57,533.024,535.824,560.861" svgx:width="0.28,0.55,0.55,0.55,0.55,0.55,0.55,0.35,0.55,0.35,0.55,0.35,0.55,0.35,0.55,0.35" style="fill:rgb(0,0,0);font-family:Helvetica;font-size:8.0px;stroke:none;" xmlns:svgx="http://www.xml-cml.org/schema/svgx">] 2016 • • • • •</text>
  <text y="160.611" x="207.892" svgx:width="0.28" style="fill:rgb(0,0,0);font-family:Helvetica;font-size:8.0px;stroke:none;" xmlns:svgx="http://www.xml-cml.org/schema/svgx">[</text>
  <text y="160.611" x="210.14,214.556" svgx:width="0.55,0.55" style="fill:rgb(59,90,166);font-family:Helvetica;font-size:8.0px;stroke:none;" xmlns:svgx="http://www.xml-cml.org/schema/svgx">40</text>
  <text y="160.611" x="218.972,221.21200000000002,241.228,245.644,250.06,254.476,258.876,279.099,281.899,451.84,454.64,505.472" svgx:width="0.28,0.55,0.55,0.55,0.55,0.55,0.55,0.35,0.55,0.35,0.55,0.35" style="fill:rgb(0,0,0);font-family:Helvetica;font-size:8.0px;stroke:none;" xmlns:svgx="http://www.xml-cml.org/schema/svgx">] 2016 • • •</text>
  <text y="173.082" x="207.892" svgx:width="0.28" style="fill:rgb(0,0,0);font-family:Helvetica;font-size:8.0px;stroke:none;" xmlns:svgx="http://www.xml-cml.org/schema/svgx">[</text>
  <text y="173.082" x="210.14,214.556" svgx:width="0.55,0.55" style="fill:rgb(59,90,166);font-family:Helvetica;font-size:8.0px;stroke:none;" xmlns:svgx="http://www.xml-cml.org/schema/svgx">41</text>
  <text y="173.082" x="218.972,221.21200000000002,241.228,245.644,250.06,254.476,258.876,279.099,281.899,303.59,306.39,478.77,481.57,505.472,508.272,533.024" svgx:width="0.28,0.55,0.55,0.55,0.55,0.55,0.55,0.35,0.55,0.35,0.55,0.35,0.55,0.35,0.55,0.35" style="fill:rgb(0,0,0);font-family:Helvetica;font-size:8.0px;stroke:none;" xmlns:svgx="http://www.xml-cml.org/schema/svgx">] 2016 • • • • •</text>
  <text y="185.612" x="207.892" svgx:width="0.28" style="fill:rgb(0,0,0);font-family:Helvetica;font-size:8.0px;stroke:none;" xmlns:svgx="http://www.xml-cml.org/schema/svgx">[</text>
  <text y="185.612" x="210.14,214.556" svgx:width="0.55,0.55" style="fill:rgb(59,90,166);font-family:Helvetica;font-size:8.0px;stroke:none;" xmlns:svgx="http://www.xml-cml.org/schema/svgx">42</text>
  <text y="185.612" x="218.972,221.21200000000002,241.228,245.644,250.06,254.476,258.876,278.304,282.70399999999995,327.174,329.974,451.84,454.64,505.472" svgx:width="0.28,0.55,0.55,0.55,0.55,0.55,0.55,0.55,0.55,0.35,0.55,0.35,0.55,0.35" style="fill:rgb(0,0,0);font-family:Helvetica;font-size:8.0px;stroke:none;" xmlns:svgx="http://www.xml-cml.org/schema/svgx">] 2016 o • • •</text>
  <text y="198.084" x="207.892" svgx:width="0.28" style="fill:rgb(0,0,0);font-family:Helvetica;font-size:8.0px;stroke:none;" xmlns:svgx="http://www.xml-cml.org/schema/svgx">[</text>
  <text y="198.084" x="210.14,214.556" svgx:width="0.55,0.55" style="fill:rgb(59,90,166);font-family:Helvetica;font-size:8.0px;stroke:none;" xmlns:svgx="http://www.xml-cml.org/schema/svgx">43</text>
  <text y="198.084" x="218.972,221.21200000000002,241.228,245.644,250.06,254.476,258.876,397.132,399.932,478.77,481.57,505.472,508.272,533.024,535.824,560.861" svgx:width="0.28,0.55,0.55,0.55,0.55,0.55,0.55,0.35,0.55,0.35,0.55,0.35,0.55,0.35,0.55,0.35" style="fill:rgb(0,0,0);font-family:Helvetica;font-size:8.0px;stroke:none;" xmlns:svgx="http://www.xml-cml.org/schema/svgx">] 2016 • • • • •</text>
  <text y="210.613" x="207.892" svgx:width="0.28" style="fill:rgb(0,0,0);font-family:Helvetica;font-size:8.0px;stroke:none;" xmlns:svgx="http://www.xml-cml.org/schema/svgx">[</text>
  <text y="210.613" x="210.14,214.556" svgx:width="0.55,0.55" style="fill:rgb(59,90,166);font-family:Helvetica;font-size:8.0px;stroke:none;" xmlns:svgx="http://www.xml-cml.org/schema/svgx">44</text>
  <text y="210.613" x="218.972,221.21200000000002,241.228,245.644,250.06,254.476,258.876,279.099,281.899,327.174,329.974,478.77,481.57,533.024" svgx:width="0.28,0.55,0.55,0.55,0.55,0.55,0.55,0.35,0.55,0.35,0.55,0.35,0.55,0.35" style="fill:rgb(0,0,0);font-family:Helvetica;font-size:8.0px;stroke:none;" xmlns:svgx="http://www.xml-cml.org/schema/svgx">] 2016 • • • •</text>
  <text y="223.086" x="207.892" svgx:width="0.28" style="fill:rgb(0,0,0);font-family:Helvetica;font-size:8.0px;stroke:none;" xmlns:svgx="http://www.xml-cml.org/schema/svgx">[</text>
  <text y="223.086" x="210.14,214.556" svgx:width="0.55,0.55" style="fill:rgb(59,90,166);font-family:Helvetica;font-size:8.0px;stroke:none;" xmlns:svgx="http://www.xml-cml.org/schema/svgx">45</text>
  <text y="223.086" x="218.972,221.21200000000002,241.228,245.644,250.06,254.476,258.876,279.099,281.899,327.174,329.974,478.77,481.57,505.472,508.272,533.024" svgx:width="0.28,0.55,0.55,0.55,0.55,0.55,0.55,0.35,0.55,0.35,0.55,0.35,0.55,0.35,0.55,0.35" style="fill:rgb(0,0,0);font-family:Helvetica;font-size:8.0px;stroke:none;" xmlns:svgx="http://www.xml-cml.org/schema/svgx">] 2016 • • • • •</text>
  <text y="235.614" x="207.892" svgx:width="0.28" style="fill:rgb(0,0,0);font-family:Helvetica;font-size:8.0px;stroke:none;" xmlns:svgx="http://www.xml-cml.org/schema/svgx">[</text>
  <text y="235.614" x="210.14,214.556" svgx:width="0.55,0.55" style="fill:rgb(59,90,166);font-family:Helvetica;font-size:8.0px;stroke:none;" xmlns:svgx="http://www.xml-cml.org/schema/svgx">46</text>
  <text y="235.614" x="218.972,221.21200000000002,241.228,245.644,250.06,254.476,258.876,279.099,281.899,327.174,329.974,478.77,481.57,533.024" svgx:width="0.28,0.55,0.55,0.55,0.55,0.55,0.55,0.35,0.55,0.35,0.55,0.35,0.55,0.35" style="fill:rgb(0,0,0);font-family:Helvetica;font-size:8.0px;stroke:none;" xmlns:svgx="http://www.xml-cml.org/schema/svgx">] 2016 • • • •</text>
  <text y="248.087" x="207.892" svgx:width="0.28" style="fill:rgb(0,0,0);font-family:Helvetica;font-size:8.0px;stroke:none;" xmlns:svgx="http://www.xml-cml.org/schema/svgx">[</text>
  <text y="248.087" x="210.14,214.556" svgx:width="0.55,0.55" style="fill:rgb(59,90,166);font-family:Helvetica;font-size:8.0px;stroke:none;" xmlns:svgx="http://www.xml-cml.org/schema/svgx">47</text>
  <text y="248.087" x="218.972,221.21200000000002,241.228,245.644,250.06,254.476,258.876,279.099,281.899,326.38,330.78,451.84,454.64,478.77,481.57,533.024,535.824,560.861" svgx:width="0.28,0.55,0.55,0.55,0.55,0.55,0.55,0.35,0.55,0.55,0.55,0.35,0.55,0.35,0.55,0.35,0.55,0.35" style="fill:rgb(0,0,0);font-family:Helvetica;font-size:8.0px;stroke:none;" xmlns:svgx="http://www.xml-cml.org/schema/svgx">] 2015 • o • • • •</text>
  <text y="260.617" x="207.892" svgx:width="0.28" style="fill:rgb(0,0,0);font-family:Helvetica;font-size:8.0px;stroke:none;" xmlns:svgx="http://www.xml-cml.org/schema/svgx">[</text>
  <text y="260.617" x="210.14,214.556" svgx:width="0.55,0.55" style="fill:rgb(59,90,166);font-family:Helvetica;font-size:8.0px;stroke:none;" xmlns:svgx="http://www.xml-cml.org/schema/svgx">48</text>
  <text y="260.617" x="218.972,221.21200000000002,241.228,245.644,250.06,254.476,258.876,279.099,281.899,303.589,306.389,327.174,329.974,451.84,454.64,505.472" svgx:width="0.28,0.55,0.55,0.55,0.55,0.55,0.55,0.35,0.55,0.35,0.55,0.35,0.55,0.35,0.55,0.35" style="fill:rgb(0,0,0);font-family:Helvetica;font-size:8.0px;stroke:none;" xmlns:svgx="http://www.xml-cml.org/schema/svgx">] 2015 • • • • •</text>
  <text y="273.088" x="207.892" svgx:width="0.28" style="fill:rgb(0,0,0);font-family:Helvetica;font-size:8.0px;stroke:none;" xmlns:svgx="http://www.xml-cml.org/schema/svgx">[</text>
  <text y="273.088" x="210.14,214.556" svgx:width="0.55,0.55" style="fill:rgb(59,90,166);font-family:Helvetica;font-size:8.0px;stroke:none;" xmlns:svgx="http://www.xml-cml.org/schema/svgx">49</text>
  <text y="273.088" x="218.972,221.21200000000002,241.228,245.644,250.06,254.476,258.876,279.099,281.899,451.84,454.64,478.77,481.57,533.024,535.824,560.861" svgx:width="0.28,0.55,0.55,0.55,0.55,0.55,0.55,0.35,0.55,0.35,0.55,0.35,0.55,0.35,0.55,0.35" style="fill:rgb(0,0,0);font-family:Helvetica;font-size:8.0px;stroke:none;" xmlns:svgx="http://www.xml-cml.org/schema/svgx">] 2015 • • • • •</text>
  <text y="285.618" x="207.892" svgx:width="0.28" style="fill:rgb(0,0,0);font-family:Helvetica;font-size:8.0px;stroke:none;" xmlns:svgx="http://www.xml-cml.org/schema/svgx">[</text>
  <text y="285.618" x="210.14,214.556" svgx:width="0.55,0.55" style="fill:rgb(59,90,166);font-family:Helvetica;font-size:8.0px;stroke:none;" xmlns:svgx="http://www.xml-cml.org/schema/svgx">50</text>
  <text y="285.618" x="218.972,221.21200000000002,241.228,245.644,250.06,254.476,258.876,279.099,281.899,327.174,329.974,350.587,353.387,478.77,481.57,505.472,508.272,560.861" svgx:width="0.28,0.55,0.55,0.55,0.55,0.55,0.55,0.35,0.55,0.35,0.55,0.35,0.55,0.35,0.55,0.35,0.55,0.35" style="fill:rgb(0,0,0);font-family:Helvetica;font-size:8.0px;stroke:none;" xmlns:svgx="http://www.xml-cml.org/schema/svgx">] 2015 • • • • • •</text>
  <text y="298.09" x="207.892" svgx:width="0.28" style="fill:rgb(0,0,0);font-family:Helvetica;font-size:8.0px;stroke:none;" xmlns:svgx="http://www.xml-cml.org/schema/svgx">[</text>
  <text y="298.09" x="210.14,214.556" svgx:width="0.55,0.55" style="fill:rgb(59,90,166);font-family:Helvetica;font-size:8.0px;stroke:none;" xmlns:svgx="http://www.xml-cml.org/schema/svgx">51</text>
  <text y="298.09" x="218.972,221.21200000000002,241.228,245.644,250.06,254.476,258.876,327.174,329.974,478.77,481.57,560.861" svgx:width="0.28,0.55,0.55,0.55,0.55,0.55,0.55,0.35,0.55,0.35,0.55,0.35" style="fill:rgb(0,0,0);font-family:Helvetica;font-size:8.0px;stroke:none;" xmlns:svgx="http://www.xml-cml.org/schema/svgx">] 2015 • • •</text>
  <text y="310.619" x="207.892" svgx:width="0.28" style="fill:rgb(0,0,0);font-family:Helvetica;font-size:8.0px;stroke:none;" xmlns:svgx="http://www.xml-cml.org/schema/svgx">[</text>
  <text y="310.619" x="210.14,214.556" svgx:width="0.55,0.55" style="fill:rgb(59,90,166);font-family:Helvetica;font-size:8.0px;stroke:none;" xmlns:svgx="http://www.xml-cml.org/schema/svgx">52</text>
  <text y="310.619" x="218.972,221.21200000000002,241.228,245.644,250.06,254.476,258.876,279.099,281.899,303.589,306.389,327.174,329.974,478.77,481.57,505.472,508.272,533.024,535.824,560.861" svgx:width="0.28,0.55,0.55,0.55,0.55,0.55,0.55,0.35,0.55,0.35,0.55,0.35,0.55,0.35,0.55,0.35,0.55,0.35,0.55,0.35" style="fill:rgb(0,0,0);font-family:Helvetica;font-size:8.0px;stroke:none;" xmlns:svgx="http://www.xml-cml.org/schema/svgx">] 2015 • • • • • • •</text>
  <text y="323.092" x="207.892" svgx:width="0.28" style="fill:rgb(0,0,0);font-family:Helvetica;font-size:8.0px;stroke:none;" xmlns:svgx="http://www.xml-cml.org/schema/svgx">[</text>
  <text y="323.092" x="210.14,214.556" svgx:width="0.55,0.55" style="fill:rgb(59,90,166);font-family:Helvetica;font-size:8.0px;stroke:none;" xmlns:svgx="http://www.xml-cml.org/schema/svgx">53</text>
  <text y="323.092" x="218.972,221.21200000000002,241.228,245.644,250.06,254.476,258.876,279.098,281.898,349.794,354.19399999999996,451.84,454.64,505.472" svgx:width="0.28,0.55,0.55,0.55,0.55,0.55,0.55,0.35,0.55,0.55,0.55,0.35,0.55,0.35" style="fill:rgb(0,0,0);font-family:Helvetica;font-size:8.0px;stroke:none;" xmlns:svgx="http://www.xml-cml.org/schema/svgx">] 2015 • o • •</text>
  <text y="335.62" x="207.892" svgx:width="0.28" style="fill:rgb(0,0,0);font-family:Helvetica;font-size:8.0px;stroke:none;" xmlns:svgx="http://www.xml-cml.org/schema/svgx">[</text>
  <text y="335.62" x="210.14,214.556" svgx:width="0.55,0.55" style="fill:rgb(59,90,166);font-family:Helvetica;font-size:8.0px;stroke:none;" xmlns:svgx="http://www.xml-cml.org/schema/svgx">54</text>
  <text y="335.62" x="218.972,221.21200000000002,241.228,245.644,250.06,254.476,258.876,279.098,281.898,326.379,330.779,451.84,454.64,505.472,508.272,533.024,535.824,560.861" svgx:width="0.28,0.55,0.55,0.55,0.55,0.55,0.55,0.35,0.55,0.55,0.55,0.35,0.55,0.35,0.55,0.35,0.55,0.35" style="fill:rgb(0,0,0);font-family:Helvetica;font-size:8.0px;stroke:none;" xmlns:svgx="http://www.xml-cml.org/schema/svgx">] 2015 • o • • • •</text>
  <text y="348.093" x="207.892" svgx:width="0.28" style="fill:rgb(0,0,0);font-family:Helvetica;font-size:8.0px;stroke:none;" xmlns:svgx="http://www.xml-cml.org/schema/svgx">[</text>
  <text y="348.093" x="210.14,214.556" svgx:width="0.55,0.55" style="fill:rgb(59,90,166);font-family:Helvetica;font-size:8.0px;stroke:none;" xmlns:svgx="http://www.xml-cml.org/schema/svgx">55</text>
  <text y="348.093" x="218.972,221.21200000000002,241.228,245.644,250.06,254.476,258.876,279.098,281.898,327.174,329.974,350.587,353.387,373.718,376.51800000000003,478.77,481.57,533.024" svgx:width="0.28,0.55,0.55,0.55,0.55,0.55,0.55,0.35,0.55,0.35,0.55,0.35,0.55,0.35,0.55,0.35,0.55,0.35" style="fill:rgb(0,0,0);font-family:Helvetica;font-size:8.0px;stroke:none;" xmlns:svgx="http://www.xml-cml.org/schema/svgx">] 2015 • • • • • •</text>
  <text y="360.622" x="207.892" svgx:width="0.28" style="fill:rgb(0,0,0);font-family:Helvetica;font-size:8.0px;stroke:none;" xmlns:svgx="http://www.xml-cml.org/schema/svgx">[</text>
  <text y="360.622" x="210.14,214.556" svgx:width="0.55,0.55" style="fill:rgb(59,90,166);font-family:Helvetica;font-size:8.0px;stroke:none;" xmlns:svgx="http://www.xml-cml.org/schema/svgx">56</text>
  <text y="360.622" x="218.972,221.21200000000002,241.228,245.644,250.06,254.476,258.876,327.174,329.974,451.84,454.64,478.77,481.57,505.472,508.272,533.024" svgx:width="0.28,0.55,0.55,0.55,0.55,0.55,0.55,0.35,0.55,0.35,0.55,0.35,0.55,0.35,0.55,0.35" style="fill:rgb(0,0,0);font-family:Helvetica;font-size:8.0px;stroke:none;" xmlns:svgx="http://www.xml-cml.org/schema/svgx">] 2015 • • • • •</text>
  <text y="373.094" x="207.892" svgx:width="0.28" style="fill:rgb(0,0,0);font-family:Helvetica;font-size:8.0px;stroke:none;" xmlns:svgx="http://www.xml-cml.org/schema/svgx">[</text>
  <text y="373.094" x="210.14,214.556" svgx:width="0.55,0.55" style="fill:rgb(59,90,166);font-family:Helvetica;font-size:8.0px;stroke:none;" xmlns:svgx="http://www.xml-cml.org/schema/svgx">57</text>
  <text y="373.094" x="218.972,221.21200000000002,241.228,245.644,250.06,254.476,258.876,278.304,282.70399999999995,326.379,330.779,423.381,426.181,478.77,481.57,505.472,508.272,560.86" svgx:width="0.28,0.55,0.55,0.55,0.55,0.55,0.55,0.55,0.55,0.55,0.55,0.35,0.55,0.35,0.55,0.35,0.55,0.35" style="fill:rgb(0,0,0);font-family:Helvetica;font-size:8.0px;stroke:none;" xmlns:svgx="http://www.xml-cml.org/schema/svgx">] 2015 o o • • • •</text>
  <text y="385.624" x="207.892" svgx:width="0.28" style="fill:rgb(0,0,0);font-family:Helvetica;font-size:8.0px;stroke:none;" xmlns:svgx="http://www.xml-cml.org/schema/svgx">[</text>
  <text y="385.624" x="210.14,214.556" svgx:width="0.55,0.55" style="fill:rgb(59,90,166);font-family:Helvetica;font-size:8.0px;stroke:none;" xmlns:svgx="http://www.xml-cml.org/schema/svgx">58</text>
  <text y="385.624" x="218.972,221.21200000000002,241.228,245.644,250.06,254.476,258.876,279.098,281.898,451.84,454.64,505.472" svgx:width="0.28,0.55,0.55,0.55,0.55,0.55,0.55,0.35,0.55,0.35,0.55,0.35" style="fill:rgb(0,0,0);font-family:Helvetica;font-size:8.0px;stroke:none;" xmlns:svgx="http://www.xml-cml.org/schema/svgx">] 2015 • • •</text>
  <text y="398.096" x="207.892" svgx:width="0.28" style="fill:rgb(0,0,0);font-family:Helvetica;font-size:8.0px;stroke:none;" xmlns:svgx="http://www.xml-cml.org/schema/svgx">[</text>
  <text y="398.096" x="210.14,214.556" svgx:width="0.55,0.55" style="fill:rgb(59,90,166);font-family:Helvetica;font-size:8.0px;stroke:none;" xmlns:svgx="http://www.xml-cml.org/schema/svgx">59</text>
  <text y="398.096" x="218.972,221.21200000000002,241.228,245.644,250.06,254.476,258.876,279.098,281.898,478.77,481.57,533.024" svgx:width="0.28,0.55,0.55,0.55,0.55,0.55,0.55,0.35,0.55,0.35,0.55,0.35" style="fill:rgb(0,0,0);font-family:Helvetica;font-size:8.0px;stroke:none;" xmlns:svgx="http://www.xml-cml.org/schema/svgx">] 2015 • • •</text>
  <text y="410.625" x="207.892" svgx:width="0.28" style="fill:rgb(0,0,0);font-family:Helvetica;font-size:8.0px;stroke:none;" xmlns:svgx="http://www.xml-cml.org/schema/svgx">[</text>
  <text y="410.625" x="210.14,214.556" svgx:width="0.55,0.55" style="fill:rgb(59,90,166);font-family:Helvetica;font-size:8.0px;stroke:none;" xmlns:svgx="http://www.xml-cml.org/schema/svgx">60</text>
  <text y="410.625" x="218.972,221.21200000000002,241.228,245.644,250.06,254.476,258.876,279.098,281.898,303.589,306.389,327.174,329.974,478.77,481.57,505.472,508.272,533.024,535.824,560.86" svgx:width="0.28,0.55,0.55,0.55,0.55,0.55,0.55,0.35,0.55,0.35,0.55,0.35,0.55,0.35,0.55,0.35,0.55,0.35,0.55,0.35" style="fill:rgb(0,0,0);font-family:Helvetica;font-size:8.0px;stroke:none;" xmlns:svgx="http://www.xml-cml.org/schema/svgx">] 2015 • • • • • • •</text>
  <text y="423.097" x="207.892" svgx:width="0.28" style="fill:rgb(0,0,0);font-family:Helvetica;font-size:8.0px;stroke:none;" xmlns:svgx="http://www.xml-cml.org/schema/svgx">[</text>
  <text y="423.097" x="210.14,214.556" svgx:width="0.55,0.55" style="fill:rgb(59,90,166);font-family:Helvetica;font-size:8.0px;stroke:none;" xmlns:svgx="http://www.xml-cml.org/schema/svgx">61</text>
  <text y="423.097" x="218.972,221.21200000000002,241.228,245.644,250.06,254.475,258.875,279.098,281.898,478.769,481.569,505.472" svgx:width="0.28,0.55,0.55,0.55,0.55,0.55,0.55,0.35,0.55,0.35,0.55,0.35" style="fill:rgb(0,0,0);font-family:Helvetica;font-size:8.0px;stroke:none;" xmlns:svgx="http://www.xml-cml.org/schema/svgx">] 2015 • • •</text>
  <text y="435.626" x="207.892" svgx:width="0.28" style="fill:rgb(0,0,0);font-family:Helvetica;font-size:8.0px;stroke:none;" xmlns:svgx="http://www.xml-cml.org/schema/svgx">[</text>
  <text y="435.626" x="210.14,214.556" svgx:width="0.55,0.55" style="fill:rgb(59,90,166);font-family:Helvetica;font-size:8.0px;stroke:none;" xmlns:svgx="http://www.xml-cml.org/schema/svgx">62</text>
  <text y="435.626" x="218.972,221.21200000000002,241.228,245.644,250.06,254.475,258.875,327.174,329.974,478.769,481.569,533.024" svgx:width="0.28,0.55,0.55,0.55,0.55,0.55,0.55,0.35,0.55,0.35,0.55,0.35" style="fill:rgb(0,0,0);font-family:Helvetica;font-size:8.0px;stroke:none;" xmlns:svgx="http://www.xml-cml.org/schema/svgx">] 2015 • • •</text>
  <text y="448.099" x="207.892" svgx:width="0.28" style="fill:rgb(0,0,0);font-family:Helvetica;font-size:8.0px;stroke:none;" xmlns:svgx="http://www.xml-cml.org/schema/svgx">[</text>
  <text y="448.099" x="210.14,214.556" svgx:width="0.55,0.55" style="fill:rgb(59,90,166);font-family:Helvetica;font-size:8.0px;stroke:none;" xmlns:svgx="http://www.xml-cml.org/schema/svgx">63</text>
  <text y="448.099" x="218.972,221.21200000000002,241.228,245.644,250.06,254.475,258.875,279.098,281.898,350.587,353.387,478.77,481.57,533.024" svgx:width="0.28,0.55,0.55,0.55,0.55,0.55,0.55,0.35,0.55,0.35,0.55,0.35,0.55,0.35" style="fill:rgb(0,0,0);font-family:Helvetica;font-size:8.0px;stroke:none;" xmlns:svgx="http://www.xml-cml.org/schema/svgx">] 2014 • • • •</text>
  <text y="460.628" x="207.892" svgx:width="0.28" style="fill:rgb(0,0,0);font-family:Helvetica;font-size:8.0px;stroke:none;" xmlns:svgx="http://www.xml-cml.org/schema/svgx">[</text>
  <text y="460.628" x="210.14,214.556" svgx:width="0.55,0.55" style="fill:rgb(59,90,166);font-family:Helvetica;font-size:8.0px;stroke:none;" xmlns:svgx="http://www.xml-cml.org/schema/svgx">64</text>
  <text y="460.628" x="218.972,221.21200000000002,241.228,245.644,250.06,254.476,258.876,303.589,306.389,327.174,329.974,478.77,481.57,560.86" svgx:width="0.28,0.55,0.55,0.55,0.55,0.55,0.55,0.35,0.55,0.35,0.55,0.35,0.55,0.35" style="fill:rgb(0,0,0);font-family:Helvetica;font-size:8.0px;stroke:none;" xmlns:svgx="http://www.xml-cml.org/schema/svgx">] 2014 • • • •</text>
  <text y="473.1" x="207.892" svgx:width="0.28" style="fill:rgb(0,0,0);font-family:Helvetica;font-size:8.0px;stroke:none;" xmlns:svgx="http://www.xml-cml.org/schema/svgx">[</text>
  <text y="473.1" x="210.14,214.556" svgx:width="0.55,0.55" style="fill:rgb(59,90,166);font-family:Helvetica;font-size:8.0px;stroke:none;" xmlns:svgx="http://www.xml-cml.org/schema/svgx">65</text>
  <text y="473.1" x="218.972,221.21200000000002,241.228,245.644,250.06,254.476,258.876,279.098,281.898,303.589,306.389,350.587,353.387,478.77,481.57,533.024" svgx:width="0.28,0.55,0.55,0.55,0.55,0.55,0.55,0.35,0.55,0.35,0.55,0.35,0.55,0.35,0.55,0.35" style="fill:rgb(0,0,0);font-family:Helvetica;font-size:8.0px;stroke:none;" xmlns:svgx="http://www.xml-cml.org/schema/svgx">] 2014 • • • • •</text>
  <text y="485.629" x="207.892" svgx:width="0.28" style="fill:rgb(0,0,0);font-family:Helvetica;font-size:8.0px;stroke:none;" xmlns:svgx="http://www.xml-cml.org/schema/svgx">[</text>
  <text y="485.629" x="210.14,214.556" svgx:width="0.55,0.55" style="fill:rgb(59,90,166);font-family:Helvetica;font-size:8.0px;stroke:none;" xmlns:svgx="http://www.xml-cml.org/schema/svgx">66</text>
  <text y="485.629" x="218.972,221.21200000000002,241.228,245.644,250.06,254.476,258.876,279.098,281.898,451.84,454.64,478.77,481.57,560.86" svgx:width="0.28,0.55,0.55,0.55,0.55,0.55,0.55,0.35,0.55,0.35,0.55,0.35,0.55,0.35" style="fill:rgb(0,0,0);font-family:Helvetica;font-size:8.0px;stroke:none;" xmlns:svgx="http://www.xml-cml.org/schema/svgx">] 2014 • • • •</text>
  <text y="498.102" x="207.892" svgx:width="0.28" style="fill:rgb(0,0,0);font-family:Helvetica;font-size:8.0px;stroke:none;" xmlns:svgx="http://www.xml-cml.org/schema/svgx">[</text>
  <text y="498.102" x="210.14,214.556" svgx:width="0.55,0.55" style="fill:rgb(59,90,166);font-family:Helvetica;font-size:8.0px;stroke:none;" xmlns:svgx="http://www.xml-cml.org/schema/svgx">67</text>
  <text y="498.102" x="218.972,221.21200000000002,241.228,245.644,250.06,254.476,258.876,327.174,329.974,451.84,454.64,505.472" svgx:width="0.28,0.55,0.55,0.55,0.55,0.55,0.55,0.35,0.55,0.35,0.55,0.35" style="fill:rgb(0,0,0);font-family:Helvetica;font-size:8.0px;stroke:none;" xmlns:svgx="http://www.xml-cml.org/schema/svgx">] 2014 • • •</text>
  <text y="510.631" x="207.892" svgx:width="0.28" style="fill:rgb(0,0,0);font-family:Helvetica;font-size:8.0px;stroke:none;" xmlns:svgx="http://www.xml-cml.org/schema/svgx">[</text>
  <text y="510.631" x="210.14,214.556" svgx:width="0.55,0.55" style="fill:rgb(59,90,166);font-family:Helvetica;font-size:8.0px;stroke:none;" xmlns:svgx="http://www.xml-cml.org/schema/svgx">68</text>
  <text y="510.631" x="218.972,221.21200000000002,241.228,245.644,250.06,254.476,258.876,279.098,281.898,327.174,329.974,373.718,376.51800000000003,478.77,481.57,533.024" svgx:width="0.28,0.55,0.55,0.55,0.55,0.55,0.55,0.35,0.55,0.35,0.55,0.35,0.55,0.35,0.55,0.35" style="fill:rgb(0,0,0);font-family:Helvetica;font-size:8.0px;stroke:none;" xmlns:svgx="http://www.xml-cml.org/schema/svgx">] 2014 • • • • •</text>
  <text y="523.103" x="207.892" svgx:width="0.28" style="fill:rgb(0,0,0);font-family:Helvetica;font-size:8.0px;stroke:none;" xmlns:svgx="http://www.xml-cml.org/schema/svgx">[</text>
  <text y="523.103" x="210.14,214.556" svgx:width="0.55,0.55" style="fill:rgb(59,90,166);font-family:Helvetica;font-size:8.0px;stroke:none;" xmlns:svgx="http://www.xml-cml.org/schema/svgx">69</text>
  <text y="523.103" x="218.972,221.21200000000002,241.228,245.644,250.06,254.476,258.876,279.098,281.898,327.174,329.974,478.77,481.57,505.472,508.272,533.024" svgx:width="0.28,0.55,0.55,0.55,0.55,0.55,0.55,0.35,0.55,0.35,0.55,0.35,0.55,0.35,0.55,0.35" style="fill:rgb(0,0,0);font-family:Helvetica;font-size:8.0px;stroke:none;" xmlns:svgx="http://www.xml-cml.org/schema/svgx">] 2014 • • • • •</text>
  <text y="535.632" x="207.892" svgx:width="0.28" style="fill:rgb(0,0,0);font-family:Helvetica;font-size:8.0px;stroke:none;" xmlns:svgx="http://www.xml-cml.org/schema/svgx">[</text>
  <text y="535.632" x="210.14,214.556" svgx:width="0.55,0.55" style="fill:rgb(59,90,166);font-family:Helvetica;font-size:8.0px;stroke:none;" xmlns:svgx="http://www.xml-cml.org/schema/svgx">70</text>
  <text y="535.632" x="218.972,221.21200000000002,241.228,245.644,250.06,254.476,258.876,423.381,426.181,478.77,481.57,560.86" svgx:width="0.28,0.55,0.55,0.55,0.55,0.55,0.55,0.35,0.55,0.35,0.55,0.35" style="fill:rgb(0,0,0);font-family:Helvetica;font-size:8.0px;stroke:none;" xmlns:svgx="http://www.xml-cml.org/schema/svgx">] 2014 • • •</text>
  <text y="548.105" x="207.892" svgx:width="0.28" style="fill:rgb(0,0,0);font-family:Helvetica;font-size:8.0px;stroke:none;" xmlns:svgx="http://www.xml-cml.org/schema/svgx">[</text>
  <text y="548.105" x="210.14,214.556" svgx:width="0.55,0.55" style="fill:rgb(59,90,166);font-family:Helvetica;font-size:8.0px;stroke:none;" xmlns:svgx="http://www.xml-cml.org/schema/svgx">71</text>
  <text y="548.105" x="218.972,221.21200000000002,241.228,245.644,250.06,254.476,258.876,279.098,281.898,327.174,329.974,478.77,481.57,533.024" svgx:width="0.28,0.55,0.55,0.55,0.55,0.55,0.55,0.35,0.55,0.35,0.55,0.35,0.55,0.35" style="fill:rgb(0,0,0);font-family:Helvetica;font-size:8.0px;stroke:none;" xmlns:svgx="http://www.xml-cml.org/schema/svgx">] 2014 • • • •</text>
  <text y="560.634" x="207.892" svgx:width="0.28" style="fill:rgb(0,0,0);font-family:Helvetica;font-size:8.0px;stroke:none;" xmlns:svgx="http://www.xml-cml.org/schema/svgx">[</text>
  <text y="560.634" x="210.14,214.556" svgx:width="0.55,0.55" style="fill:rgb(59,90,166);font-family:Helvetica;font-size:8.0px;stroke:none;" xmlns:svgx="http://www.xml-cml.org/schema/svgx">72</text>
  <text y="560.634" x="218.972,221.21200000000002,241.228,245.644,250.06,254.476,258.876,279.098,281.898,327.174,329.974,478.77,481.57,560.86" svgx:width="0.28,0.55,0.55,0.55,0.55,0.55,0.55,0.35,0.55,0.35,0.55,0.35,0.55,0.35" style="fill:rgb(0,0,0);font-family:Helvetica;font-size:8.0px;stroke:none;" xmlns:svgx="http://www.xml-cml.org/schema/svgx">] 2013 • • • •</text>
  <text y="573.106" x="207.892" svgx:width="0.28" style="fill:rgb(0,0,0);font-family:Helvetica;font-size:8.0px;stroke:none;" xmlns:svgx="http://www.xml-cml.org/schema/svgx">[</text>
  <text y="573.106" x="210.14,214.556" svgx:width="0.55,0.55" style="fill:rgb(59,90,166);font-family:Helvetica;font-size:8.0px;stroke:none;" xmlns:svgx="http://www.xml-cml.org/schema/svgx">73</text>
  <text y="573.106" x="218.972,221.21200000000002,241.228,245.644,250.06,254.476,258.876,279.098,281.898,451.84,454.64,505.472,508.272,533.024,535.824,560.86" svgx:width="0.28,0.55,0.55,0.55,0.55,0.55,0.55,0.35,0.55,0.35,0.55,0.35,0.55,0.35,0.55,0.35" style="fill:rgb(0,0,0);font-family:Helvetica;font-size:8.0px;stroke:none;" xmlns:svgx="http://www.xml-cml.org/schema/svgx">] 2013 • • • • •</text>
  <text y="585.578" x="207.892" svgx:width="0.28" style="fill:rgb(0,0,0);font-family:Helvetica;font-size:8.0px;stroke:none;" xmlns:svgx="http://www.xml-cml.org/schema/svgx">[</text>
  <text y="585.578" x="210.14,214.556" svgx:width="0.55,0.55" style="fill:rgb(59,90,166);font-family:Helvetica;font-size:8.0px;stroke:none;" xmlns:svgx="http://www.xml-cml.org/schema/svgx">74</text>
  <text y="585.578" x="218.972,221.21200000000002,241.228,245.644,250.06,254.475,258.875,279.098,281.898,451.84,454.64,478.769,481.569,533.024,535.824,560.86" svgx:width="0.28,0.55,0.55,0.55,0.55,0.55,0.55,0.35,0.55,0.35,0.55,0.35,0.55,0.35,0.55,0.35" style="fill:rgb(0,0,0);font-family:Helvetica;font-size:8.0px;stroke:none;" xmlns:svgx="http://www.xml-cml.org/schema/svgx">] 2013 • • • • •</text>
  <text y="598.108" x="207.892" svgx:width="0.28" style="fill:rgb(0,0,0);font-family:Helvetica;font-size:8.0px;stroke:none;" xmlns:svgx="http://www.xml-cml.org/schema/svgx">[</text>
  <text y="598.108" x="210.14,214.556" svgx:width="0.55,0.55" style="fill:rgb(59,90,166);font-family:Helvetica;font-size:8.0px;stroke:none;" xmlns:svgx="http://www.xml-cml.org/schema/svgx">75</text>
  <text y="598.108" x="218.972,221.21200000000002,241.228,245.644,250.06,254.475,258.875,423.381,426.181,478.769,481.569,560.86" svgx:width="0.28,0.55,0.55,0.55,0.55,0.55,0.55,0.35,0.55,0.35,0.55,0.35" style="fill:rgb(0,0,0);font-family:Helvetica;font-size:8.0px;stroke:none;" xmlns:svgx="http://www.xml-cml.org/schema/svgx">] 2013 • • •</text>
  <text y="610.58" x="207.892" svgx:width="0.28" style="fill:rgb(0,0,0);font-family:Helvetica;font-size:8.0px;stroke:none;" xmlns:svgx="http://www.xml-cml.org/schema/svgx">[</text>
  <text y="610.58" x="210.14,214.556" svgx:width="0.55,0.55" style="fill:rgb(59,90,166);font-family:Helvetica;font-size:8.0px;stroke:none;" xmlns:svgx="http://www.xml-cml.org/schema/svgx">76</text>
  <text y="610.58" x="218.972,221.21200000000002,241.228,245.644,250.06,254.475,258.875,327.174,329.974,478.769,481.569,505.471" svgx:width="0.28,0.55,0.55,0.55,0.55,0.55,0.55,0.35,0.55,0.35,0.55,0.35" style="fill:rgb(0,0,0);font-family:Helvetica;font-size:8.0px;stroke:none;" xmlns:svgx="http://www.xml-cml.org/schema/svgx">] 2013 • • •</text>
  <text y="623.109" x="207.892" svgx:width="0.28" style="fill:rgb(0,0,0);font-family:Helvetica;font-size:8.0px;stroke:none;" xmlns:svgx="http://www.xml-cml.org/schema/svgx">[</text>
  <text y="623.109" x="210.14,214.556" svgx:width="0.55,0.55" style="fill:rgb(59,90,166);font-family:Helvetica;font-size:8.0px;stroke:none;" xmlns:svgx="http://www.xml-cml.org/schema/svgx">77</text>
  <text y="623.109" x="218.972,221.21200000000002,241.228,245.644,250.06,254.475,258.875,279.098,281.898,451.84,454.64,505.471,508.271,560.86" svgx:width="0.28,0.55,0.55,0.55,0.55,0.55,0.55,0.35,0.55,0.35,0.55,0.35,0.55,0.35" style="fill:rgb(0,0,0);font-family:Helvetica;font-size:8.0px;stroke:none;" xmlns:svgx="http://www.xml-cml.org/schema/svgx">] 2013 • • • •</text>
  <text y="635.581" x="207.892" svgx:width="0.28" style="fill:rgb(0,0,0);font-family:Helvetica;font-size:8.0px;stroke:none;" xmlns:svgx="http://www.xml-cml.org/schema/svgx">[</text>
  <text y="635.581" x="210.14,214.556" svgx:width="0.55,0.55" style="fill:rgb(59,90,166);font-family:Helvetica;font-size:8.0px;stroke:none;" xmlns:svgx="http://www.xml-cml.org/schema/svgx">78</text>
  <text y="635.581" x="218.972,221.21200000000002,241.228,245.644,250.059,254.475,258.875,279.098,281.898,327.174,329.974,478.769,481.569,560.86" svgx:width="0.28,0.55,0.55,0.55,0.55,0.55,0.55,0.35,0.55,0.35,0.55,0.35,0.55,0.35" style="fill:rgb(0,0,0);font-family:Helvetica;font-size:8.0px;stroke:none;" xmlns:svgx="http://www.xml-cml.org/schema/svgx">] 2012 • • • •</text>
  <text y="648.11" x="207.892" svgx:width="0.28" style="fill:rgb(0,0,0);font-family:Helvetica;font-size:8.0px;stroke:none;" xmlns:svgx="http://www.xml-cml.org/schema/svgx">[</text>
  <text y="648.11" x="210.14,214.556" svgx:width="0.55,0.55" style="fill:rgb(59,90,166);font-family:Helvetica;font-size:8.0px;stroke:none;" xmlns:svgx="http://www.xml-cml.org/schema/svgx">79</text>
  <text y="648.11" x="218.972,221.21200000000002,241.228,245.644,250.059,254.475,258.875,279.098,281.898,303.589,306.389,327.174,329.974,373.718,376.51800000000003,478.769,481.569,505.471,508.271,533.024,535.824,560.86" svgx:width="0.28,0.55,0.55,0.55,0.55,0.55,0.55,0.35,0.55,0.35,0.55,0.35,0.55,0.35,0.55,0.35,0.55,0.35,0.55,0.35,0.55,0.35" style="fill:rgb(0,0,0);font-family:Helvetica;font-size:8.0px;stroke:none;" xmlns:svgx="http://www.xml-cml.org/schema/svgx">] 2012 • • • • • • • •</text>
  <text y="660.583" x="207.892" svgx:width="0.28" style="fill:rgb(0,0,0);font-family:Helvetica;font-size:8.0px;stroke:none;" xmlns:svgx="http://www.xml-cml.org/schema/svgx">[</text>
  <text y="660.583" x="210.14,214.556" svgx:width="0.55,0.55" style="fill:rgb(59,90,166);font-family:Helvetica;font-size:8.0px;stroke:none;" xmlns:svgx="http://www.xml-cml.org/schema/svgx">80</text>
  <text y="660.583" x="218.972,221.21200000000002,241.228,245.643,250.059,254.475,258.875,397.132,399.932,478.769,481.569,560.86" svgx:width="0.28,0.55,0.55,0.55,0.55,0.55,0.55,0.35,0.55,0.35,0.55,0.35" style="fill:rgb(0,0,0);font-family:Helvetica;font-size:8.0px;stroke:none;" xmlns:svgx="http://www.xml-cml.org/schema/svgx">] 2012 • • •</text>
  <text y="673.112" x="207.892" svgx:width="0.28" style="fill:rgb(0,0,0);font-family:Helvetica;font-size:8.0px;stroke:none;" xmlns:svgx="http://www.xml-cml.org/schema/svgx">[</text>
  <text y="673.112" x="210.14,214.556" svgx:width="0.55,0.55" style="fill:rgb(59,90,166);font-family:Helvetica;font-size:8.0px;stroke:none;" xmlns:svgx="http://www.xml-cml.org/schema/svgx">81</text>
  <text y="673.112" x="218.972,221.21200000000002,241.228,245.643,250.059,254.475,258.875,279.098,281.898,478.769,481.569,505.471" svgx:width="0.28,0.55,0.55,0.55,0.55,0.55,0.55,0.35,0.55,0.35,0.55,0.35" style="fill:rgb(0,0,0);font-family:Helvetica;font-size:8.0px;stroke:none;" xmlns:svgx="http://www.xml-cml.org/schema/svgx">] 2012 • • •</text>
  <text y="685.584" x="207.892" svgx:width="0.28" style="fill:rgb(0,0,0);font-family:Helvetica;font-size:8.0px;stroke:none;" xmlns:svgx="http://www.xml-cml.org/schema/svgx">[</text>
  <text y="685.584" x="210.14,214.556" svgx:width="0.55,0.55" style="fill:rgb(59,90,166);font-family:Helvetica;font-size:8.0px;stroke:none;" xmlns:svgx="http://www.xml-cml.org/schema/svgx">82</text>
  <text y="685.584" x="218.972,221.21200000000002,241.228,245.643,250.059,254.475,258.875,327.174,329.974,451.84,454.64,505.471,508.271,533.024" svgx:width="0.28,0.55,0.55,0.55,0.55,0.55,0.55,0.35,0.55,0.35,0.55,0.35,0.55,0.35" style="fill:rgb(0,0,0);font-family:Helvetica;font-size:8.0px;stroke:none;" xmlns:svgx="http://www.xml-cml.org/schema/svgx">] 2012 • • • •</text>
  <text y="700.097" x="533.761" svgx:width="0.33" style="fill:rgb(0,0,0);font-family:Helvetica;font-size:8.0px;stroke:none;" xmlns:svgx="http://www.xml-cml.org/schema/svgx">(</text>
  <text y="700.097" x="536.425,542.169,546.585,551.001,553.249,554.993,559.409,563.825,568.117" svgx:width="0.72,0.55,0.55,0.28,0.22,0.55,0.55,0.55,0.55" style="fill:rgb(0,0,0);font-family:Helvetica-Oblique;font-size:8.0px;stroke:none;" xmlns:svgx="http://www.xml-cml.org/schema/svgx">Continued</text>
  <text y="700.097" x="573.333" svgx:width="0.33" style="fill:rgb(0,0,0);font-family:Helvetica;font-size:8.0px;stroke:none;" xmlns:svgx="http://www.xml-cml.org/schema/svgx">)</text>
  <text y="35.043" class="image" id="image.6.1" width="107" height="23" x="36.0">image.6.1.36_143.35_59</text>
  <text y="46.205" x="332.504,337.792,342.168,344.376,348.752,355.376,359.752,361.96,363.664,367.664,369.297,373.673,378.049,382.009,386.385,390.761,392.969,394.673,396.881,398.585,402.859,407.235,411.235,412.893,415.517,419.893,423.853,428.229,429.933,432.557,436.933,439.141,443.517,446.141,450.141,451.785,455.745,460.121,464.497,468.873,473.27299999999997,474.916,479.292,483.668,488.044,489.748,493.708,497.667,499.371,503.331,505.571,507.231,512.591,514.26,518.22,522.18,526.14,528.348,532.724,539.348,543.724,545.932,547.636,551.636,553.264,555.888,560.264,564.224,565.928,570.304" svgx:width="0.67,0.55,0.28,0.55,0.83,0.55,0.28,0.22,0.5,0.55,0.55,0.55,0.5,0.55,0.55,0.28,0.22,0.28,0.22,0.55,0.55,0.5,0.55,0.33,0.55,0.5,0.55,0.22,0.33,0.55,0.28,0.55,0.33,0.5,0.55,0.5,0.55,0.55,0.55,0.55,0.55,0.55,0.55,0.55,0.22,0.5,0.5,0.22,0.5,0.28,0.55,0.67,0.55,0.5,0.5,0.5,0.28,0.55,0.83,0.55,0.28,0.22,0.5,0.55,0.33,0.55,0.5,0.22,0.55,0.72" style="fill:rgb(0,0,0);font-family:Helvetica;font-size:8.0px;stroke:none;" xmlns:svgx="http://www.xml-cml.org/schema/svgx">Automatic adventitious respiratory sound analysis: A systematic review</text>
  <text y="756.0" x="36.0,41.288,45.664,51.872,57.232,58.847,65.055,70.759,76.119,77.782" svgx:width="0.67,0.55,0.78,0.67,0.55,0.78,0.72,0.67,0.55,0.26" style="fill:rgb(0,0,0);font-family:Helvetica;font-size:8.0px;stroke:none;" xmlns:svgx="http://www.xml-cml.org/schema/svgx">PLOS ONE |</text>
  <text y="756.0" x="81.58,85.956,88.164,90.372,94.748,98.708,100.916,103.124,105.332,109.708,114.084,115.788,117.996,122.372,124.893,129.269,131.477,135.853,140.229,142.437,146.813,151.189,155.451,159.827,162.035,163.739,168.115,172.491,175.115,179.491,183.867,185.571,187.779,192.155,196.44,200.816,205.191,207.399,211.775,216.151,220.527,224.903,229.151,233.527" svgx:width="0.55,0.28,0.28,0.55,0.5,0.28,0.28,0.28,0.55,0.55,0.22,0.28,0.55,0.33,0.55,0.28,0.55,0.55,0.28,0.55,0.55,0.55,0.55,0.28,0.22,0.55,0.55,0.33,0.55,0.55,0.22,0.28,0.55,0.55,0.55,0.55,0.28,0.55,0.55,0.55,0.55,0.55,0.55,0.55" style="fill:rgb(59,90,166);font-family:Helvetica;font-size:8.0px;stroke:none;" xmlns:svgx="http://www.xml-cml.org/schema/svgx">https://doi.org/10.1371/journal.pone.0177926</text>
  <text y="756.0" x="245.876,252.5,256.876,260.876,262.6,266.976,271.352,273.592,275.243,279.619,283.995,288.37,292.77,557.118,561.518,563.241" svgx:width="0.83,0.55,0.5,0.55,0.55,0.55,0.28,0.55,0.55,0.55,0.55,0.55,0.55,0.55,0.55,0.28" style="fill:rgb(0,0,0);font-family:Helvetica;font-size:8.0px;stroke:none;" xmlns:svgx="http://www.xml-cml.org/schema/svgx">May 26, 2017 6 /</text>
  <text y="756.0" x="567.209,571.585" svgx:width="0.55,0.55" style="fill:rgb(0,0,0);font-family:Helvetica;font-size:8.0px;stroke:none;" xmlns:svgx="http://www.xml-cml.org/schema/svgx">43</text>
 </g>
</svg>
