<?xml version="1.0" encoding="UTF-8"?>
<svg height="767.08" width="4046.0" xmlns="http://www.w3.org/2000/svg">
 <g id="page" xmlns:svgx="http://www.xml-cml.org/schema/svgx">
  <path style="fill:rgb(59,90,166);stroke:none;stroke-width:1.0;" d="M267.480 137.650 L281.760 137.650 Z"/>
  <path style="fill:rgb(59,90,166);stroke:none;stroke-width:1.0;" d="M521.350 228.700 L535.630 228.700 Z"/>
  <path style="fill:rgb(59,90,166);stroke:none;stroke-width:1.0;" d="M313.510 358.700 L323.040 358.700 Z"/>
  <path style="fill:rgb(59,90,166);stroke:none;stroke-width:1.0;" d="M403.990 410.680 L413.520 410.680 Z"/>
  <path style="fill:rgb(59,90,166);stroke:none;stroke-width:1.0;" d="M317.250 449.690 L326.780 449.690 Z"/>
  <path style="fill:rgb(59,90,166);stroke:none;stroke-width:1.0;" d="M481.660 462.670 L495.890 462.670 Z"/>
  <path style="fill:rgb(59,90,166);stroke:none;stroke-width:1.0;" d="M541.530 553.660 L551.000 553.660 Z"/>
  <path style="fill:rgb(59,90,166);stroke:none;stroke-width:1.0;" d="M411.480 579.680 L425.760 579.680 Z"/>
  <path style="fill:rgb(59,90,166);stroke:none;stroke-width:1.0;" d="M308.240 631.670 L317.760 631.670 Z"/>
  <path style="fill:rgb(59,90,166);stroke:none;stroke-width:1.0;" d="M267.480 683.660 L277.000 683.660 Z"/>
  <g begin="text">
   <text y="84.586" x="200.012,203.613,208.673,213.942,219.423,224.693,228.293,230.512,235.783,239.382,242.042,247.522,252.22199999999998,254.436,258.836,260.956,269.866,275.237,280.816,283.116,285.335,289.73499999999996,291.854,298.993,302.703,307.763,314.66299999999995,316.855,321.185,326.665,331.96500000000003,334.146,339.516,343.747,348.076,351.786,357.286,359.488,364.969,369.198,372.178,379.008,384.069,387.779,392.779,394.977,398.367,405.508,412.338,417.708,421.098,423.398,425.591,429.922,435.401,440.701,442.94,447.27,452.77,454.958,458.349,463.828,468.059,471.768,475.999,484.179,488.409,493.889,496.869,501.199,503.699,505.926,510.676,515.945,521.106,525.336,529.046,533.586,536.245,539.846,544.076,549.376,551.62,558.97,563.2,568.47" svgx:width="0.36,0.51,0.53,0.55,0.53,0.36,0.55,0.53,0.36,0.27,0.55,0.47,0.55,0.44,0.55,0.89,0.54,0.56,0.23,0.55,0.44,0.55,0.72,0.38,0.51,0.69,0.55,0.44,0.55,0.53,0.55,0.54,0.43,0.44,0.38,0.55,0.55,0.55,0.43,0.3,0.69,0.51,0.38,0.5,0.55,0.34,0.72,0.69,0.54,0.34,0.23,0.55,0.44,0.55,0.53,0.55,0.44,0.55,0.55,0.34,0.55,0.43,0.38,0.43,0.82,0.43,0.55,0.3,0.44,0.25,0.55,0.48,0.53,0.52,0.43,0.38,0.46,0.27,0.36,0.43,0.53,0.55,0.74,0.43,0.53,0.35" style="fill:rgb(0,0,0);font-family:MinionPro-Regular;font-size:10.0px;stroke:none;">sounds using a MLP, a Grow and Learn network (GAL), and an Incremental Supervised Neu-</text>
   <text y="97.625" x="200.012,203.723,208.052,210.552,212.712,220.061,224.292,227.271,234.102,239.161,242.871,247.871,250.072,253.462,256.852,261.602,268.951,276.302,279.691,281.991,284.201,291.101,293.271,296.251,301.311,304.292,308.621,311.121,313.284,318.344,321.24399999999997,323.431,328.182,332.932,337.732,339.93,344.159,348.699,352.93,358.409,361.39,364.99,367.198,370.069,373.779,378.839,389.252,394.002,398.802,400.987,404.698,408.927,413.158,418.218,421.927,427.198,429.858,435.338,439.978,443.57800000000003,445.831,452.661,456.891,460.601,464.901,467.091,472.151,477.211,480.19,484.521,487.181,492.661,496.891,502.161,504.461,506.663,513.492,518.992,521.176,525.505,530.045,534.276,537.985,542.315,546.956,551.185" svgx:width="0.38,0.44,0.25,0.55,0.74,0.43,0.3,0.69,0.51,0.38,0.5,0.55,0.34,0.34,0.48,0.74,0.74,0.34,0.23,0.55,0.69,0.55,0.3,0.51,0.3,0.44,0.25,0.55,0.51,0.29,0.55,0.48,0.48,0.48,0.55,0.43,0.46,0.43,0.55,0.3,0.36,0.55,0.29,0.38,0.51,0.82,0.48,0.48,0.55,0.38,0.43,0.43,0.51,0.38,0.53,0.27,0.55,0.47,0.36,0.55,0.69,0.43,0.38,0.43,0.55,0.51,0.51,0.3,0.44,0.27,0.55,0.43,0.53,0.23,0.55,0.69,0.55,0.55,0.44,0.46,0.43,0.38,0.44,0.47,0.43,0.53" style="fill:rgb(0,0,0);font-family:MinionPro-Regular;font-size:10.0px;stroke:none;">ral Network (ISNN). A total of 360 events from36 recordings were obtained. An averaged</text>
   <text y="110.607" x="200.013,205.173,210.233,217.063,221.293,225.09300000000002,227.225,230.825,235.985,240.215,244.445,247.425,251.135,256.405,266.853,273.683,278.013,281.613,283.861,289.131,292.731,296.961,302.261,304.44,308.77,312.37,314.588,318.988,321.108,323.978,328.208,332.538,335.518,340.788,344.498,348.728,351.028,353.252,357.582,361.812,367.082,369.742,373.972,378.512,381.172,386.652,391.352,393.561,397.96099999999996,400.081,405.141,409.371,412.971,415.971,418.222,422.552,426.782,431.012,436.282,439.992,444.322,448.552,453.15200000000004,455.299,460.359,463.25899999999996,465.447,470.197,474.947,484.779,487.649,492.709,496.509,498.612,501.592,506.862,511.16200000000003,513.296,516.686,521.436,528.786,536.1859999999999,538.41,542.64,545.1,549.43,553.03,556.63,559.29,562.16,564.82,569.049" svgx:width="0.52,0.51,0.69,0.43,0.38,0.55,0.36,0.52,0.43,0.43,0.3,0.38,0.53,0.82,0.69,0.44,0.36,0.55,0.53,0.36,0.43,0.53,0.55,0.44,0.36,0.55,0.44,0.55,0.29,0.43,0.44,0.3,0.53,0.38,0.43,0.23,0.55,0.44,0.43,0.53,0.27,0.43,0.46,0.27,0.55,0.47,0.55,0.44,0.55,0.51,0.43,0.36,0.3,0.55,0.44,0.43,0.43,0.53,0.38,0.44,0.43,0.46,0.55,0.51,0.29,0.55,0.48,0.48,0.76,0.29,0.51,0.38,0.55,0.3,0.53,0.43,0.55,0.34,0.48,0.74,0.74,0.55,0.43,0.25,0.44,0.36,0.36,0.27,0.29,0.27,0.43,0.38" style="fill:rgb(0,0,0);font-family:MinionPro-Regular;font-size:10.0px;stroke:none;">power spectrumwas used as a feature, achieving a best accuracy of 98%for the ISNN classifier</text>
   <text y="123.59" x="200.013,205.073,210.573,212.768,217.168,219.288,222.268,226.498,230.098,233.098,235.332,238.932,243.162,246.162,248.315,253.375,256.275,258.463,263.213,267.963,272.76300000000003,274.96,279.19,283.73,287.96,293.44,296.42,300.02" svgx:width="0.51,0.55,0.55,0.44,0.55,0.3,0.43,0.36,0.3,0.55,0.36,0.43,0.3,0.55,0.51,0.29,0.55,0.48,0.48,0.48,0.55,0.43,0.46,0.43,0.55,0.3,0.36,0.23" style="fill:rgb(0,0,0);font-family:MinionPro-Regular;font-size:10.0px;stroke:none;">on a test set of 180 events.</text>
   <text y="136.573" x="211.975,218.075,223.345,227.645,229.833,233.433,236.413,241.683,246.953,251.553,253.7,256.36,261.86,264.075" svgx:width="0.61,0.53,0.43,0.55,0.36,0.3,0.53,0.53,0.46,0.55,0.27,0.55,0.55,0.34" style="fill:rgb(0,0,0);font-family:MinionPro-Regular;font-size:10.0px;stroke:none;">The study in [</text>
   <text y="136.573" x="267.465,272.215,276.965" svgx:width="0.48,0.48,0.48" style="fill:rgb(59,90,166);font-family:MinionPro-Regular;font-size:10.0px;stroke:none;">110</text>
   <text y="136.573" x="281.715,285.11499999999995,287.319,292.589,296.189,300.419,305.719,307.955,312.35499999999996,314.475,319.845,324.075,328.405,332.115,337.595,340.255,345.735,350.435,352.629,359.559,363.789,368.019,370.999,376.059,379.85900000000004,382.052,389.512,394.782,399.112,404.592,407.572,410.232,413.832,418.162,421.142,423.802,428.862,434.362,436.591,439.981,445.351,452.281,459.741,463.14099999999996,465.39,468.37,473.47,475.652,480.922,485.152,488.132,492.362,496.592,499.592,501.787,508.617,513.887,518.117,522.347,526.467,530.7669999999999,532.968,537.298,542.778" svgx:width="0.34,0.55,0.53,0.36,0.43,0.53,0.55,0.44,0.55,0.54,0.43,0.44,0.38,0.55,0.27,0.55,0.47,0.55,0.7,0.43,0.43,0.3,0.51,0.38,0.55,0.75,0.53,0.44,0.55,0.3,0.27,0.36,0.44,0.3,0.27,0.51,0.55,0.55,0.34,0.54,0.7,0.75,0.34,0.55,0.3,0.51,0.55,0.53,0.43,0.3,0.43,0.43,0.3,0.55,0.69,0.53,0.43,0.43,0.42,0.43,0.55,0.44,0.55,0.53" style="fill:rgb(0,0,0);font-family:MinionPro-Regular;font-size:10.0px;stroke:none;">] used a Learning Vector Quantisation (LVQ) to detect wheeze and</text>
   <text y="149.612" x="200.013,204.243,207.953,212.283,216.513,221.473,223.933,228.233,230.4,234.0,238.23,242.87,251.05,255.28,260.76,263.74,267.34,269.64,271.842,277.942,283.212,287.512,289.643,292.513,296.743,301.073,304.053,309.323,313.033,317.333,319.52,324.79,328.39,332.62,337.92,340.156,346.986,351.316,354.916,357.108,361.508,363.684,370.514,374.844,379.384,383.614,386.074,390.304,393.304,395.488,400.648,404.978,409.208,414.168,418.398,421.398,423.665,428.935,433.165,437.395,442.455,450.635,455.795,460.855,464.455,467.115,470.095,472.755,477.815,483.295,485.595,487.841,492.591,495.251,499.891,505.371,509.701,512.161,515.761,518.001,521.711,525.941,530.171,535.231,538.941,544.211,548.441,553.741,555.985,558.855,562.565,567.625" svgx:width="0.43,0.38,0.44,0.43,0.5,0.25,0.43,0.55,0.36,0.43,0.47,0.82,0.43,0.55,0.3,0.36,0.23,0.55,0.61,0.53,0.43,0.55,0.29,0.43,0.44,0.3,0.53,0.38,0.43,0.55,0.53,0.36,0.43,0.53,0.55,0.69,0.44,0.36,0.55,0.44,0.55,0.69,0.44,0.46,0.43,0.25,0.43,0.3,0.55,0.52,0.44,0.43,0.5,0.43,0.3,0.55,0.53,0.43,0.43,0.51,0.82,0.52,0.51,0.36,0.27,0.3,0.27,0.51,0.55,0.23,0.55,0.48,0.27,0.47,0.55,0.44,0.25,0.36,0.55,0.38,0.43,0.43,0.51,0.38,0.53,0.43,0.53,0.55,0.29,0.38,0.51,0.82" style="fill:rgb(0,0,0);font-family:MinionPro-Regular;font-size:10.0px;stroke:none;">crackle segments. The feature used was a wavelet packet decomposition. Signals recorded from</text>
   <text y="162.594" x="200.013,202.993,208.263,212.56300000000002,214.696,218.926,224.196,228.426,232.026,235.026,237.26,242.32,245.22,247.407,250.277,255.337,260.607,264.40700000000004,266.513,271.783,276.013,280.343,282.803,285.783,291.053,295.653,297.864,302.404,307.464,309.924,315.194,320.674,323.654,327.884,332.114,335.824,339.42400000000004,341.687,346.017,351.497,356.797,358.978,364.458,367.118,372.598,376.898,379.048,384.208,388.538,391.518,394.178,398.408,403.888,406.868,410.468,412.723,419.553,423.783,427.493,431.793,433.926,439.196,442.796,447.026,452.326,454.562,457.432,462.492,466.29200000000003,468.395,471.375,476.645,480.945,483.135,487.465,492.945,497.275,499.735,504.275,507.875,510.535,514.135,516.435,518.625,525.525,527.695,532.445,537.195,544.755,548.255,553.005,557.755" svgx:width="0.3,0.53,0.43,0.55,0.43,0.53,0.43,0.36,0.3,0.55,0.51,0.29,0.55,0.29,0.51,0.53,0.38,0.55,0.53,0.43,0.44,0.25,0.3,0.53,0.46,0.55,0.46,0.51,0.25,0.53,0.55,0.3,0.43,0.43,0.38,0.36,0.55,0.44,0.55,0.53,0.55,0.55,0.27,0.55,0.43,0.55,0.52,0.44,0.3,0.27,0.43,0.55,0.3,0.36,0.55,0.69,0.43,0.38,0.43,0.55,0.53,0.36,0.43,0.53,0.55,0.29,0.51,0.38,0.55,0.3,0.53,0.43,0.55,0.44,0.55,0.44,0.25,0.46,0.36,0.27,0.36,0.23,0.55,0.69,0.55,0.48,0.48,0.76,0.35,0.48,0.48,0.76" style="fill:rgb(0,0,0);font-family:MinionPro-Regular;font-size:10.0px;stroke:none;">the chest of four healthy volunteers and nine patients were used for the analysis. A 50%-50%</text>
   <text y="175.577" x="200.013,202.993,206.703,211.033,213.693,219.173,222.673,225.653,229.883,233.483,236.483,238.734,244.004,248.334,251.314,255.714,257.839,261.439,266.599,269.059,271.719,274.719,276.944,283.774,288.104,291.704,293.952,299.222,302.822,307.052,312.322,314.622,316.799,322.899,328.169,330.829,334.42900000000003,336.642,340.242,343.222,348.492,353.762,358.362,360.566,364.276,368.506,373.666,378.726,382.436,385.416,389.646,394.946,397.133,401.53299999999996,403.709,408.869,413.099,416.809,419.679,424.739,428.449,436.629,440.959,446.439,450.669,454.969,457.17,462.23,465.13,467.318,472.068,476.818,486.593,489.463,494.523,498.32300000000004,500.483,504.083,508.313,513.793,517.393,520.053,523.033,525.693,530.233,532.893,535.873,540.4730000000001,542.662,546.992,552.472" svgx:width="0.3,0.38,0.44,0.27,0.55,0.35,0.3,0.43,0.36,0.3,0.55,0.53,0.44,0.3,0.44,0.55,0.36,0.52,0.25,0.27,0.3,0.55,0.69,0.44,0.36,0.55,0.53,0.36,0.43,0.53,0.23,0.55,0.61,0.53,0.27,0.36,0.55,0.36,0.3,0.53,0.53,0.46,0.55,0.38,0.43,0.52,0.51,0.38,0.3,0.43,0.53,0.55,0.44,0.55,0.52,0.43,0.38,0.29,0.51,0.38,0.82,0.44,0.55,0.43,0.43,0.55,0.51,0.29,0.55,0.48,0.48,0.76,0.29,0.51,0.38,0.55,0.36,0.43,0.55,0.36,0.27,0.3,0.27,0.46,0.27,0.3,0.46,0.55,0.44,0.55,0.53" style="fill:rgb(0,0,0);font-family:MinionPro-Regular;font-size:10.0px;stroke:none;">train-test data split was used. This study reported a performance of 59%for sensitivity and</text>
   <text y="188.616" x="200.013,204.763,209.513,219.288,222.158,227.218,231.018,233.121,238.701,244.281,251.281,253.474,256.344,261.404,265.204,267.307,274.137,279.407,283.637,287.867,291.987,296.28700000000003,298.487,303.757,307.987,310.967,315.197,319.427,322.407,325.067,330.127,335.607,337.90700000000004,340.1,345.37,350.43,354.23,356.371,359.241,361.901,367.381,371.681,373.832,378.062,381.772,386.102,390.332,395.292,397.752,402.052,404.219,409.489,413.719,416.699,420.929,425.159,428.139,430.799,435.859,441.339,443.639,445.888,450.948,456.428,458.888,463.488,465.617,470.367,475.117,484.893,487.763,492.823,496.623,498.782,502.382,506.612,512.092,515.692,518.352,521.332,523.992,528.532,531.192,534.172,538.772,540.962,545.292,550.772,556.072,558.309,563.059" svgx:width="0.48,0.48,0.76,0.29,0.51,0.38,0.55,0.56,0.56,0.7,0.55,0.29,0.51,0.38,0.55,0.69,0.53,0.43,0.43,0.42,0.43,0.55,0.53,0.43,0.3,0.43,0.43,0.3,0.27,0.51,0.55,0.23,0.55,0.53,0.51,0.38,0.55,0.29,0.27,0.55,0.43,0.55,0.43,0.38,0.44,0.43,0.5,0.25,0.43,0.55,0.53,0.43,0.3,0.43,0.43,0.3,0.27,0.51,0.55,0.23,0.55,0.51,0.55,0.25,0.46,0.55,0.48,0.48,0.76,0.29,0.51,0.38,0.55,0.36,0.43,0.55,0.36,0.27,0.3,0.27,0.46,0.27,0.3,0.46,0.55,0.44,0.55,0.53,0.55,0.48,0.76" style="fill:rgb(0,0,0);font-family:MinionPro-Regular;font-size:10.0px;stroke:none;">24%for PPV for wheeze detection. For fine crackle detection, only 19%for sensitivity and 6%</text>
   <text y="201.599" x="200.013,202.883,207.943,211.74300000000002,213.845,219.425,225.005,232.005,234.198,241.028,245.358,248.958,251.206,255.536,259.766,265.036,267.696,271.926,276.466,280.696,285.99600000000004,288.169,294.999,300.269,302.929,305.389,309.689,311.867,316.617,321.367,331.142,334.012,339.072,342.872,345.032,348.632,352.862,358.342,361.942,364.602,367.582,370.242,374.782,377.442,380.422,385.02200000000005,387.268,391.598,397.078,402.378,404.559,409.309,414.059,423.835,426.705,431.765,435.565,437.668,443.248,448.828,455.828,458.02,464.85,469.18,472.78000000000003,475.028,478.008,483.278,487.57800000000003,489.711,493.421,497.651,502.811,507.871,511.581,514.561,518.791,524.091,526.278,531.438,535.668,539.378,542.248,547.308,551.018" svgx:width="0.29,0.51,0.38,0.55,0.56,0.56,0.7,0.55,0.69,0.44,0.36,0.55,0.44,0.43,0.53,0.27,0.43,0.46,0.43,0.53,0.55,0.69,0.53,0.27,0.25,0.43,0.55,0.48,0.48,0.76,0.29,0.51,0.38,0.55,0.36,0.43,0.55,0.36,0.27,0.3,0.27,0.46,0.27,0.3,0.46,0.55,0.44,0.55,0.53,0.55,0.48,0.48,0.76,0.29,0.51,0.38,0.55,0.56,0.56,0.7,0.55,0.69,0.44,0.36,0.55,0.3,0.53,0.43,0.55,0.38,0.43,0.52,0.51,0.38,0.3,0.43,0.53,0.55,0.52,0.43,0.38,0.29,0.51,0.38,0.35" style="fill:rgb(0,0,0);font-family:MinionPro-Regular;font-size:10.0px;stroke:none;">for PPV was achieved while 58%for sensitivity and 18%for PPV was the reported perfor-</text>
   <text y="214.582" x="200.013,208.193,212.523,218.003,222.233,226.53300000000002,228.699,231.569,236.629,240.429,242.532,246.762,251.822,256.152,259.862,263.462,267.762,269.971,274.201,277.911,282.241,286.471,291.431,293.891,298.19100000000003,300.358,305.628,309.858,312.838,317.068,321.298,324.278,326.938,331.998,337.478" svgx:width="0.82,0.44,0.55,0.43,0.43,0.55,0.29,0.51,0.38,0.55,0.43,0.51,0.44,0.38,0.36,0.43,0.55,0.43,0.38,0.44,0.43,0.5,0.25,0.43,0.55,0.53,0.43,0.3,0.43,0.43,0.3,0.27,0.51,0.55,0.23" style="fill:rgb(0,0,0);font-family:MinionPro-Regular;font-size:10.0px;stroke:none;">mance for coarse crackle detection.</text>
   <text y="227.621" x="211.975,221.615,226.885,231.115,235.345,239.465,243.76500000000001,245.99,249.59,253.82,258.46,266.64,270.87,276.35,279.35,281.593,285.823,288.283,292.613,296.213,299.813,302.473,305.343,308.003,312.233,316.563,319.543,322.203,327.263,332.763,335.054,340.324,343.924,346.584,352.064,356.764,358.922,362.522,366.752,371.292,375.522,379.232,383.562,386.062,388.288,395.118,402.468,412.043,416.583,420.913,424.623,427.283,431.613,437.093,440.073,443.673,445.945,452.775,457.105,460.70500000000004,462.896,468.056,472.286,475.996,478.866,483.926,487.636,495.816,500.046,505.346,507.626,510.286,515.7860000000001,517.944" svgx:width="0.97,0.53,0.43,0.43,0.42,0.43,0.55,0.36,0.43,0.47,0.82,0.43,0.55,0.3,0.55,0.43,0.25,0.44,0.36,0.36,0.27,0.29,0.27,0.43,0.44,0.3,0.27,0.51,0.55,0.55,0.53,0.36,0.27,0.55,0.47,0.55,0.36,0.43,0.46,0.43,0.38,0.44,0.25,0.55,0.69,0.74,0.74,0.46,0.44,0.38,0.27,0.44,0.55,0.3,0.36,0.55,0.69,0.44,0.36,0.55,0.52,0.43,0.38,0.29,0.51,0.38,0.82,0.43,0.53,0.55,0.27,0.55,0.55,0.34" style="fill:rgb(0,0,0);font-family:MinionPro-Regular;font-size:10.0px;stroke:none;">Wheeze segment classification using several ANNvariants was performed in [</text>
   <text y="227.621" x="521.334,526.084,530.834" svgx:width="0.48,0.48,0.48" style="fill:rgb(59,90,166);font-family:MinionPro-Regular;font-size:10.0px;stroke:none;">111</text>
   <text y="227.621" x="535.584,538.974,541.274,543.513,549.613,554.883" svgx:width="0.34,0.23,0.55,0.61,0.53,0.43" style="fill:rgb(0,0,0);font-family:MinionPro-Regular;font-size:10.0px;stroke:none;">]. The</text>
   <text y="240.603" x="200.013,206.843,214.193,223.767,228.307,232.637,236.347,239.007,243.337,248.817,251.797,255.397,257.669,262.939,266.539,270.769,276.069,278.248,285.078,289.308,293.018,297.318,299.508,305.298,310.878,318.228,325.578,327.878,330.065,336.275,340.605,345.875,348.535,352.865,355.365,357.561,363.351,367.681,371.281,373.941,377.541,379.785,385.055,390.325,395.805,400.035,403.015,405.675,410.735,416.235,418.449,421.839,428.049,433.839,439.109,442.499,444.79900000000004,447.022,451.772,456.002,458.462,461.332,464.832,469.892,473.602,478.242,482.572,488.052,490.712,494.312,496.972,502.452,507.152,509.384,518.294,522.624,527.8240000000001,530.02,533.41,538.16,545.62,554.53,557.92" svgx:width="0.69,0.74,0.74,0.46,0.44,0.38,0.27,0.44,0.55,0.3,0.36,0.55,0.53,0.36,0.43,0.53,0.55,0.69,0.43,0.38,0.43,0.55,0.58,0.56,0.74,0.74,0.23,0.55,0.63,0.44,0.53,0.27,0.44,0.25,0.55,0.58,0.44,0.36,0.27,0.36,0.55,0.53,0.53,0.55,0.43,0.3,0.27,0.51,0.55,0.55,0.34,0.63,0.58,0.53,0.34,0.23,0.55,0.48,0.43,0.25,0.29,0.35,0.51,0.38,0.47,0.44,0.55,0.27,0.36,0.27,0.55,0.47,0.55,0.89,0.44,0.52,0.55,0.34,0.48,0.75,0.89,0.34,0.23" style="fill:rgb(0,0,0);font-family:MinionPro-Regular;font-size:10.0px;stroke:none;">ANNvariants used were BPNN, Radial Basis Function (RBF), Self-organising Map (SOM),</text>
   <text y="253.586" x="200.013,204.343,209.823,215.12300000000002,217.304,222.674,229.604,237.064,239.364,241.568,248.46800000000002,250.582,253.562,258.622,261.602,265.932,268.432,270.651,275.711,278.611,280.799,285.549,290.299,295.099,297.24,300.84,305.07,309.71,317.89,322.12,327.6,330.58,334.18,336.48,338.682,345.512,348.172,351.152,356.452,358.695,363.445,368.195,372.995,375.136,379.366,384.426,389.906,392.886,397.216,399.876,405.356,408.016,413.496,418.19599999999997,420.433,427.263,432.533,436.763,440.993,445.113,449.343,452.943,455.243,457.453,464.283,468.513,472.223,476.523,478.656,483.926,487.526,491.756,497.056,499.293,502.163,507.223,511.023,513.125,516.105,521.375,525.675,527.809,532.039,534.499,538.829,542.429,546.029,548.689,551.559,554.219,558.449,562.779" svgx:width="0.44,0.55,0.53,0.55,0.54,0.7,0.75,0.23,0.55,0.69,0.55,0.3,0.51,0.3,0.44,0.25,0.55,0.51,0.29,0.55,0.48,0.48,0.48,0.55,0.36,0.43,0.47,0.82,0.43,0.55,0.3,0.36,0.23,0.55,0.69,0.27,0.3,0.53,0.55,0.48,0.48,0.48,0.55,0.43,0.51,0.55,0.3,0.44,0.27,0.55,0.27,0.55,0.47,0.55,0.69,0.53,0.43,0.43,0.42,0.43,0.36,0.23,0.55,0.69,0.43,0.38,0.43,0.55,0.53,0.36,0.43,0.53,0.55,0.29,0.51,0.38,0.55,0.3,0.53,0.43,0.55,0.43,0.25,0.44,0.36,0.36,0.27,0.29,0.27,0.43,0.44,0.35" style="fill:rgb(0,0,0);font-family:MinionPro-Regular;font-size:10.0px;stroke:none;">and LVQ. A total of 710 segments, with 375 containing wheezes, were used for the classifica-</text>
   <text y="266.625" x="200.013,202.993,205.653,210.713,216.193,218.49300000000002,220.649,226.749,232.019,236.31900000000002,238.45,243.72,248.05,251.03,255.43,257.555,264.385,268.715,272.315,274.507,278.107,283.267,285.727,288.387,291.387,293.612,296.272,301.752,304.732,309.83200000000005,311.98,314.96,320.23,323.94,328.17,332.47,334.601,338.201,342.431,345.411,349.011,351.31100000000004,353.479,358.539,364.019,368.319,370.43,373.41,377.12,381.45,384.11,389.59,392.25,397.73,402.43,404.616,408.946,414.426,419.726,421.907,424.887,431.717,436.817,438.972,441.952,446.182,449.782,452.782,454.959,458.559,462.789,465.769,469.369,471.66900000000004,473.781,479.881,485.151,489.451,491.582,494.562,498.272,502.602,505.262,510.742,513.402,518.882,523.582,525.768,529.368,533.598,536.598,538.807,543.037,548.097,553.577,557.177,559.837,563.437,566.417,570.647" svgx:width="0.3,0.27,0.51,0.55,0.23,0.55,0.61,0.53,0.43,0.55,0.53,0.44,0.3,0.44,0.55,0.69,0.44,0.36,0.55,0.36,0.52,0.25,0.27,0.3,0.55,0.27,0.55,0.3,0.51,0.55,0.3,0.53,0.38,0.43,0.43,0.55,0.36,0.43,0.3,0.36,0.23,0.55,0.51,0.55,0.43,0.55,0.3,0.38,0.44,0.27,0.55,0.27,0.55,0.47,0.55,0.44,0.55,0.53,0.55,0.3,0.69,0.51,0.55,0.3,0.43,0.36,0.3,0.55,0.36,0.43,0.3,0.36,0.23,0.55,0.61,0.53,0.43,0.55,0.3,0.38,0.44,0.27,0.55,0.27,0.55,0.47,0.55,0.36,0.43,0.3,0.55,0.43,0.51,0.55,0.36,0.27,0.36,0.3,0.43,0.53" style="fill:rgb(0,0,0);font-family:MinionPro-Regular;font-size:10.0px;stroke:none;">tion. The data was split into three sets, one training and two test sets. The training set consisted</text>
   <text y="279.608" x="200.013,205.073,207.973,210.16,214.91,219.66,224.46,226.601,230.201,234.431,239.071,247.251,251.481,256.961,259.941,263.541,265.833,272.663,277.933,282.163,285.873,290.173,292.308,297.058,301.808,306.608,308.806,313.866,316.76599999999996,318.953,321.933,327.203,331.433,341.857,346.087,351.147,356.627,359.607,363.937,366.597,372.077,376.307,381.607,383.81,390.64,395.91,400.14,404.37,408.49,412.72,416.32,418.62,420.83,426.93,432.2,436.5,438.688,441.558,444.218,447.928,451.528,454.528,456.716,459.696,463.926,467.526,470.526,472.704,476.304,480.534,483.534,485.743,489.973,495.033,500.513,504.113,506.773,510.373,513.353,517.583,522.8829999999999,525.144,530.204,533.1039999999999,535.292,540.042,544.792,549.592,551.733,555.333,559.563,564.203" svgx:width="0.51,0.29,0.55,0.48,0.48,0.48,0.55,0.36,0.43,0.47,0.82,0.43,0.55,0.3,0.36,0.55,0.69,0.53,0.43,0.38,0.43,0.55,0.48,0.48,0.48,0.55,0.51,0.29,0.55,0.3,0.53,0.43,0.82,0.43,0.51,0.55,0.3,0.44,0.27,0.55,0.43,0.53,0.55,0.69,0.53,0.43,0.43,0.42,0.43,0.36,0.23,0.55,0.61,0.53,0.43,0.55,0.29,0.27,0.38,0.36,0.3,0.55,0.3,0.43,0.36,0.3,0.55,0.36,0.43,0.3,0.55,0.43,0.51,0.55,0.36,0.27,0.36,0.3,0.43,0.53,0.55,0.51,0.29,0.55,0.48,0.48,0.48,0.55,0.36,0.43,0.47,0.35" style="fill:rgb(0,0,0);font-family:MinionPro-Regular;font-size:10.0px;stroke:none;">of 242 segments where 128 of themcontained wheezes. The first test set consisted of 233 seg-</text>
   <text y="292.59" x="200.013,208.193,212.423,217.903,220.883,224.483,226.715,233.545,236.205,239.185,244.485,246.67,251.42,256.17,260.97,263.168,269.998,275.268,279.498,283.728,287.848,292.148,294.292,297.892,302.122,306.762,314.942,319.172,324.652,327.632,331.232,333.53200000000004,335.791,342.621,347.891,350.551,353.011,357.31100000000004,359.432,362.412,367.682,371.982,374.172,377.772,382.002,386.232,391.292,396.772,402.072,404.276,407.256,411.486,415.086,418.086,420.263,423.863,428.093,431.093,433.302,438.572,442.902,448.202,450.424,455.174,459.924,464.724,466.864,470.464,474.694,479.334,487.514,491.744,497.224,500.204,503.80400000000003,506.096,512.926,515.586,518.566,523.866,526.051,530.801,535.551,540.351,542.492,549.322,554.592,558.822,563.052,567.172" svgx:width="0.82,0.43,0.55,0.3,0.36,0.55,0.69,0.27,0.3,0.53,0.55,0.48,0.48,0.48,0.55,0.69,0.53,0.43,0.43,0.42,0.43,0.55,0.36,0.43,0.47,0.82,0.43,0.55,0.3,0.36,0.23,0.55,0.69,0.53,0.27,0.25,0.43,0.55,0.3,0.53,0.43,0.55,0.36,0.43,0.43,0.51,0.55,0.53,0.55,0.3,0.43,0.36,0.3,0.55,0.36,0.43,0.3,0.55,0.53,0.44,0.53,0.55,0.48,0.48,0.48,0.55,0.36,0.43,0.47,0.82,0.43,0.55,0.3,0.36,0.55,0.69,0.27,0.3,0.53,0.55,0.48,0.48,0.48,0.55,0.69,0.53,0.43,0.43,0.42,0.43" style="fill:rgb(0,0,0);font-family:MinionPro-Regular;font-size:10.0px;stroke:none;">ments with 107 wheeze segments, while the second test set had 235 segments with 140 wheeze</text>
   <text y="305.573" x="200.013,203.613,207.843,212.483,220.663,224.893,230.373,233.353,236.953,239.25300000000001,241.455,247.555,252.825,257.125,259.313,262.183,266.413,270.743,273.723,278.993,282.703,287.003,289.133,294.403,298.003,302.233,307.533,309.769,312.639,317.699,321.499,323.602,326.582,331.852,336.152,338.286,343.766,347.996,353.266,356.976,361.306,363.806,366.008,371.488,375.718,378.698,385.528,390.588,394.298,399.258,402.858,405.126,411.956,416.286,419.886,422.134,426.364,431.004,433.984,437.694,442.024,446.254,449.234,453.464,458.764,460.968,463.838,467.548,472.608,483.022,486.002,491.272,495.572,497.705,502.865,507.925,514.755,518.985,522.785,524.974,528.574,533.734,537.964,542.194,545.174,548.884,554.154,564.602,569.662" svgx:width="0.36,0.43,0.47,0.82,0.43,0.55,0.3,0.36,0.23,0.55,0.61,0.53,0.43,0.55,0.29,0.43,0.44,0.3,0.53,0.38,0.43,0.55,0.53,0.36,0.43,0.53,0.55,0.29,0.51,0.38,0.55,0.3,0.53,0.43,0.55,0.55,0.43,0.53,0.38,0.44,0.25,0.55,0.55,0.43,0.3,0.69,0.51,0.38,0.5,0.36,0.55,0.69,0.44,0.36,0.55,0.43,0.47,0.3,0.38,0.44,0.43,0.3,0.43,0.53,0.55,0.29,0.38,0.51,0.82,0.3,0.53,0.43,0.55,0.52,0.51,0.69,0.43,0.38,0.55,0.36,0.52,0.43,0.43,0.3,0.38,0.53,0.82,0.51,0.29" style="fill:rgb(0,0,0);font-family:MinionPro-Regular;font-size:10.0px;stroke:none;">segments. The feature used for the neural networks was extracted fromthe power spectrumof</text>
   <text y="318.612" x="200.013,202.993,208.263,212.56300000000002,214.696,218.296,222.526,227.166,235.346,239.576,245.056,248.036,251.636,253.936,256.138,263.798,266.458,271.098,276.368,280.598,284.198,287.198,289.473,294.533,299.073,303.303,307.013,311.343,313.803,316.303,318.5,322.83,327.06,331.29,336.56,340.27,344.6,348.83,353.43,355.634,360.694,363.594,365.782,370.532,375.282,385.057,390.117,395.617,397.813,400.793,406.063,410.363,412.496,415.366,418.026,421.736,425.336,428.336,430.524,434.854,440.334,445.634,447.872,452.622,457.372,467.148,472.208,477.708,479.904,482.884,488.154,492.454,494.587,498.187,502.417,506.647,511.707,517.187,522.487,524.691,527.671,531.901,535.501,538.501,540.735,544.335,548.565,551.545" svgx:width="0.3,0.53,0.43,0.55,0.36,0.43,0.47,0.82,0.43,0.55,0.3,0.36,0.23,0.55,0.77,0.27,0.47,0.53,0.43,0.36,0.3,0.55,0.51,0.46,0.43,0.38,0.44,0.25,0.25,0.55,0.44,0.43,0.43,0.53,0.38,0.44,0.43,0.46,0.55,0.51,0.29,0.55,0.48,0.48,0.76,0.51,0.55,0.55,0.3,0.53,0.43,0.55,0.29,0.27,0.38,0.36,0.3,0.55,0.44,0.55,0.53,0.55,0.48,0.48,0.76,0.51,0.55,0.55,0.3,0.53,0.43,0.55,0.36,0.43,0.43,0.51,0.55,0.53,0.55,0.3,0.43,0.36,0.3,0.55,0.36,0.43,0.3,0.36" style="fill:rgb(0,0,0);font-family:MinionPro-Regular;font-size:10.0px;stroke:none;">the segments. Highest overall accuracy of 93%on the first and 96%on the second test sets</text>
   <text y="331.595" x="200.013,206.843,211.073,214.783,219.083,221.216,225.546,229.776,235.046,237.706,241.936,246.476,250.706,256.006,258.236,263.506,267.106,269.766,275.246,279.94599999999997,282.16,287.53,294.46,301.92" svgx:width="0.69,0.43,0.38,0.43,0.55,0.44,0.43,0.53,0.27,0.43,0.46,0.43,0.53,0.55,0.53,0.36,0.27,0.55,0.47,0.55,0.54,0.7,0.75,0.23" style="fill:rgb(0,0,0);font-family:MinionPro-Regular;font-size:10.0px;stroke:none;">were achieved using LVQ.</text>
   <text y="344.578" x="211.975,219.225,223.865,229.345,233.155,236.965,239.835,244.475,250.075,252.34,261.15,264.02,268.77,272.16,277.64,281.66,286.06,288.283,297.093,302.253,307.733,312.063,314.863,317.083,323.393,328.033,331.843,336.173,341.673,343.898,352.708,357.038,360.428,365.908,371.068,376.548,380.358" svgx:width="0.73,0.47,0.55,0.38,0.38,0.29,0.47,0.56,0.55,0.88,0.29,0.48,0.34,0.55,0.41,0.44,0.55,0.88,0.52,0.55,0.44,0.28,0.55,0.63,0.47,0.38,0.44,0.55,0.55,0.88,0.44,0.34,0.55,0.52,0.55,0.38,0.25" style="fill:rgb(0,0,0);font-family:MinionPro-Bold;font-size:10.0px;stroke:none;">Gaussian Mixture Model Based Methods.</text>
   <text y="344.578" x="390.84,397.73999999999995,399.91,408.82,414.09,420.71,427.40999999999997,429.561,433.791,438.851,444.121,449.281,451.741,455.971,461.271,463.52,470.35,473.01,475.99,481.29,483.475,487.875,489.995,497.135,501.465,506.735,510.335,513.935,516.595,520.925,526.425,528.716,537.626,540.286,544.926,547.906,553.176,556.886" svgx:width="0.69,0.55,0.89,0.53,0.67,0.67,0.55,0.43,0.51,0.53,0.52,0.25,0.43,0.53,0.55,0.69,0.27,0.3,0.53,0.55,0.44,0.55,0.72,0.44,0.53,0.36,0.36,0.27,0.44,0.55,0.55,0.89,0.27,0.47,0.3,0.53,0.38,0.43" style="fill:rgb(0,0,0);font-family:MinionPro-Regular;font-size:10.0px;stroke:none;">A MFCC coupled with a Gaussian Mixture</text>
   <text y="357.617" x="200.013,208.923,213.983,219.253,223.483,225.983,228.189,231.579,238.719,247.629,256.539,259.93899999999996,262.204,269.034,273.364,276.964,279.155,284.425,288.025,292.255,297.555,299.791,302.451,307.951,310.109" svgx:width="0.89,0.51,0.53,0.43,0.25,0.55,0.34,0.72,0.89,0.89,0.34,0.55,0.69,0.44,0.36,0.55,0.53,0.36,0.43,0.53,0.55,0.27,0.55,0.55,0.34" style="fill:rgb(0,0,0);font-family:MinionPro-Regular;font-size:10.0px;stroke:none;">Model (GMM) was used in [</text>
   <text y="357.617" x="313.499,318.249" svgx:width="0.48,0.48" style="fill:rgb(59,90,166);font-family:MinionPro-Regular;font-size:10.0px;stroke:none;">99</text>
   <text y="357.617" x="322.999,326.399,328.648,331.628,336.728,338.909,344.069,348.299,352.009,354.879,359.939,363.649,374.059,378.459,380.635,384.865,387.325,391.655,395.255,398.855,401.515,404.385,407.045,411.275,415.605,418.585,421.245,426.305,431.805,434.096,439.156,442.056,444.244,451.074,456.344,460.574,464.804,468.924,473.224,475.368,479.698,485.178,490.478,492.659,498.139,503.199,506.909,515.089,519.419,521.919,524.124,527.724,532.784,538.054,543.534,548.804,552.404,554.704,556.949,564.299,568.629,571.609" svgx:width="0.34,0.55,0.3,0.51,0.55,0.52,0.43,0.38,0.29,0.51,0.38,0.82,0.44,0.55,0.43,0.25,0.44,0.36,0.36,0.27,0.29,0.27,0.43,0.44,0.3,0.27,0.51,0.55,0.55,0.51,0.29,0.55,0.69,0.53,0.43,0.43,0.42,0.43,0.55,0.44,0.55,0.53,0.55,0.55,0.51,0.38,0.82,0.44,0.25,0.55,0.36,0.51,0.53,0.55,0.53,0.36,0.23,0.55,0.74,0.44,0.3,0.44" style="fill:rgb(0,0,0);font-family:MinionPro-Regular;font-size:10.0px;stroke:none;">] to performa classification of wheeze and normal sounds. Data</text>
   <text y="370.599" x="200.013,202.883,207.943,211.74300000000002,213.845,216.825,222.095,226.395,228.586,232.186,235.166,240.436,245.706,250.30599999999998,252.453,259.283,263.613,267.213,269.461,272.441,276.771,281.731,285.961,291.461,293.669,296.539,300.249,305.309,315.722,320.472,325.272,327.401,331.941,337.001,339.461,344.731,350.211,353.191,357.421,361.651,365.361,368.961,371.261,373.492,379.592,384.862,389.16200000000003,391.293,393.953,399.433,403.033,406.013,409.723,414.993,423.173,427.403,432.883,435.863,440.193,443.173,445.833,450.893,456.393,458.701,463.971,467.571,471.801,477.101,479.337,482.317,487.41700000000003,489.541,493.251,497.481,501.711,506.771,510.481,515.781,518.001,521.711,525.941,529.541,534.701,537.361,541.071,545.401,548.381,553.441,557.151" svgx:width="0.29,0.51,0.38,0.55,0.3,0.53,0.43,0.55,0.36,0.3,0.53,0.53,0.46,0.55,0.69,0.44,0.36,0.55,0.3,0.44,0.5,0.43,0.55,0.55,0.29,0.38,0.51,0.82,0.48,0.48,0.55,0.46,0.51,0.25,0.53,0.55,0.3,0.43,0.43,0.38,0.36,0.23,0.55,0.61,0.53,0.43,0.55,0.27,0.55,0.36,0.3,0.38,0.53,0.82,0.43,0.55,0.3,0.44,0.3,0.27,0.51,0.55,0.55,0.53,0.36,0.43,0.53,0.55,0.3,0.51,0.55,0.38,0.43,0.43,0.51,0.38,0.53,0.55,0.38,0.43,0.36,0.52,0.27,0.38,0.44,0.3,0.51,0.38,0.46" style="fill:rgb(0,0,0);font-family:MinionPro-Regular;font-size:10.0px;stroke:none;">for the study was taken from30 volunteers. The instrumentation used to record respiratory</text>
   <text y="383.582" x="200.013,203.613,208.673,213.943,219.423,224.693,228.293,230.513,237.343,241.673,245.273,247.521,251.851,257.351,259.54,265.22,271.84,283.01,291.19,293.85,298.08,301.79,306.85,312.01,317.28,322.34,327.82,332.12,334.317,338.647,344.127,349.427,351.608,356.008,358.185,362.935,374.059,379.429,382.089,385.069,388.049,396.229,400.559,406.039,411.539,413.8,420.42,422.88,427.21,430.81,434.41,437.07,441.37,443.564,448.314,450.564,456.244,458.54400000000004,460.685,464.285,467.265,471.495,474.475,479.745,484.805,488.405,492.635,497.695,502.855,507.15500000000003,509.384,514.544,517.004,521.334,525.564,529.794,535.0939999999999,537.277,542.337,547.837,550.032,553.012,558.282" svgx:width="0.36,0.51,0.53,0.55,0.53,0.36,0.55,0.69,0.44,0.36,0.55,0.44,0.55,0.55,0.57,0.67,0.89,0.82,0.27,0.43,0.38,0.51,0.52,0.53,0.51,0.55,0.43,0.55,0.44,0.55,0.53,0.55,0.44,0.55,0.48,0.89,0.54,0.27,0.3,0.3,0.82,0.44,0.55,0.55,0.55,0.67,0.25,0.44,0.36,0.36,0.27,0.43,0.55,0.48,0.23,0.57,0.23,0.55,0.36,0.3,0.43,0.3,0.53,0.51,0.36,0.43,0.51,0.52,0.43,0.55,0.52,0.25,0.44,0.43,0.43,0.53,0.55,0.51,0.55,0.55,0.3,0.53,0.43" style="fill:rgb(0,0,0);font-family:MinionPro-Regular;font-size:10.0px;stroke:none;">sounds was an ECMmicrophone and a 3MLittmann Classic S.E. stethoscope placed on the</text>
   <text y="396.621" x="200.013,205.493,209.723,213.953,218.913,221.21300000000002,223.37,229.47,234.74,239.04000000000002,241.171,244.771,247.751,253.021,258.291,262.891,265.096,268.806,273.036,278.196,283.256,286.966,289.946,294.176,299.476,301.719,306.049,311.549,313.738,318.068,322.298,326.528,331.798,335.508,339.838,344.068,348.668,350.815,355.875,358.775,360.963,365.713,370.463,372.713,377.463,387.268,391.598,394.598,396.792,399.772,405.042,409.342,411.476,415.076,419.306,423.946,432.126,436.356,441.836,444.836,447.079,449.539,453.769,458.309,462.539,465.039,467.261,472.531,476.761,479.741,483.971,488.201,491.181,493.841,498.901,504.381,506.681,508.874,514.974,520.244,522.904,526.504,528.716,533.046,538.206,543.366,547.076,552.136,556.466,560.696" svgx:width="0.55,0.43,0.43,0.5,0.23,0.55,0.61,0.53,0.43,0.55,0.36,0.3,0.53,0.53,0.46,0.55,0.38,0.43,0.52,0.51,0.38,0.3,0.43,0.53,0.55,0.44,0.55,0.55,0.44,0.43,0.43,0.53,0.38,0.44,0.43,0.46,0.55,0.51,0.29,0.55,0.48,0.48,0.23,0.48,0.76,0.44,0.3,0.55,0.3,0.53,0.43,0.55,0.36,0.43,0.47,0.82,0.43,0.55,0.3,0.55,0.25,0.43,0.46,0.43,0.25,0.55,0.53,0.43,0.3,0.43,0.43,0.3,0.27,0.51,0.55,0.23,0.55,0.61,0.53,0.27,0.36,0.55,0.44,0.52,0.52,0.38,0.51,0.44,0.43,0.53" style="fill:rgb(0,0,0);font-family:MinionPro-Regular;font-size:10.0px;stroke:none;">neck. The study reported an accuracy of 94.9%at the segment level detection. This approach</text>
   <text y="409.604" x="200.013,205.073,207.973,210.16,215.43,219.03,221.69,227.17,231.86999999999998,234.028,242.938,248.208,254.828,261.528,263.735,270.565,273.225,276.205,281.505,283.691,290.831,299.741,310.903,317.733,322.063,325.663,327.911,332.241,334.701,338.301,343.401,345.542,350.702,354.932,358.642,361.512,366.572,370.282,378.462,382.692,387.992,390.273,392.933,398.433,400.591" svgx:width="0.51,0.29,0.55,0.53,0.36,0.27,0.55,0.47,0.55,0.89,0.53,0.67,0.67,0.55,0.69,0.27,0.3,0.53,0.55,0.72,0.89,0.89,0.69,0.44,0.36,0.55,0.44,0.25,0.36,0.51,0.55,0.52,0.43,0.38,0.29,0.51,0.38,0.82,0.43,0.53,0.55,0.27,0.55,0.55,0.34" style="fill:rgb(0,0,0);font-family:MinionPro-Regular;font-size:10.0px;stroke:none;">of using MFCC with GMMwas also performed in [</text>
   <text y="409.604" x="403.981,408.731" svgx:width="0.48,0.48" style="fill:rgb(59,90,166);font-family:MinionPro-Regular;font-size:10.0px;stroke:none;">40</text>
   <text y="409.604" x="413.481,416.881,419.129,421.999,427.059,430.85900000000004,433.019,439.849,445.119,449.349,453.579,457.699,461.999,464.143,469.413,473.643,476.623,480.853,485.083,488.063,490.723,495.783,501.263,503.563,505.755,510.815,515.415,517.604,522.004,524.124,529.394,532.054,534.924,537.794,542.024,545.734,549.964,555.444" svgx:width="0.34,0.55,0.29,0.51,0.38,0.55,0.69,0.53,0.43,0.43,0.42,0.43,0.55,0.53,0.43,0.3,0.43,0.43,0.3,0.27,0.51,0.55,0.23,0.55,0.51,0.46,0.55,0.44,0.55,0.53,0.27,0.29,0.29,0.43,0.38,0.43,0.55,0.3" style="fill:rgb(0,0,0);font-family:MinionPro-Regular;font-size:10.0px;stroke:none;">] for wheeze detection, by a different</text>
   <text y="422.587" x="200.013,204.653,208.363,213.423,218.693,223.853,226.15300000000002,228.359,234.459,239.729,244.02900000000002,246.16,251.43,255.76,258.74,263.14,265.322,268.192,273.252,277.052,279.155,283.485,288.965,293.295,295.755,300.295,303.895,306.555,310.15500000000003,312.434,319.264,323.594,327.194,329.442,333.152,337.382,341.612,346.672,350.382,355.652,359.882,365.182,367.369,370.239,373.949,379.009,389.422,394.172,398.97200000000004,401.158,405.698,410.758,413.218,418.488,423.968,426.948,431.178,435.408,439.118,442.718,445.01800000000003,447.192,454.022,456.682,459.662,464.962,467.205,472.685,475.345,480.825,485.125,487.274,492.334,495.234,497.422,500.402,505.672,509.902,520.325,525.385,529.615,532.275,537.755,542.455,544.647,548.977,552.577,555.557,560.827" svgx:width="0.47,0.38,0.51,0.53,0.52,0.23,0.55,0.61,0.53,0.43,0.55,0.53,0.44,0.3,0.44,0.55,0.29,0.51,0.38,0.55,0.44,0.55,0.44,0.25,0.46,0.36,0.27,0.36,0.55,0.69,0.44,0.36,0.55,0.38,0.43,0.43,0.51,0.38,0.53,0.43,0.53,0.55,0.29,0.38,0.51,0.82,0.48,0.48,0.55,0.46,0.51,0.25,0.53,0.55,0.3,0.43,0.43,0.38,0.36,0.23,0.55,0.69,0.27,0.3,0.53,0.55,0.55,0.27,0.55,0.43,0.55,0.51,0.29,0.55,0.3,0.53,0.43,0.82,0.51,0.43,0.27,0.55,0.47,0.55,0.44,0.36,0.3,0.53,0.35" style="fill:rgb(0,0,0);font-family:MinionPro-Regular;font-size:10.0px;stroke:none;">group. The data for analysis was recorded from18 volunteers, with nine of thembeing asth-</text>
   <text y="435.569" x="200.013,208.193,212.523,215.503,218.163,222.393,224.693,226.885,231.635,236.385,238.635,243.385,253.19,256.79,261.02,266.5,270.1,272.76,275.74,278.4,282.94,285.6,288.58,293.18,295.369,299.699,305.179,310.479,312.717,317.467,322.217,324.467,329.217,338.966,342.566,347.726,351.956,356.186,358.846,361.716,364.376,368.606,371.266,374.246,378.846,381.089,387.919,392.249,395.84900000000005,398.096,401.806,406.036,411.196,416.256,419.966,422.946,427.176,432.476,434.663,438.993,442.593,444.811,449.971,454.201,457.911,460.781,465.841,469.551,477.731,482.061,487.541,491.771,496.001" svgx:width="0.82,0.44,0.3,0.27,0.43,0.23,0.55,0.48,0.48,0.23,0.48,0.76,0.36,0.43,0.55,0.36,0.27,0.3,0.27,0.46,0.27,0.3,0.46,0.55,0.44,0.55,0.53,0.55,0.48,0.48,0.23,0.48,0.76,0.36,0.52,0.43,0.43,0.27,0.29,0.27,0.43,0.27,0.3,0.46,0.55,0.69,0.44,0.36,0.55,0.38,0.43,0.52,0.51,0.38,0.3,0.43,0.53,0.55,0.44,0.36,0.55,0.52,0.43,0.38,0.29,0.51,0.38,0.82,0.44,0.55,0.43,0.43,0.23" style="fill:rgb(0,0,0);font-family:MinionPro-Regular;font-size:10.0px;stroke:none;">matic. 88.1%sensitivity and 99.5%specificity was reported as performance.</text>
   <text y="448.608" x="211.975,218.875,221.045,228.185,237.095,248.258,255.088,259.418,263.01800000000003,265.266,269.596,272.056,275.656,280.75600000000003,282.897,288.167,291.767,295.997,301.297,303.533,306.193,311.693,313.851" svgx:width="0.69,0.55,0.72,0.89,0.89,0.69,0.44,0.36,0.55,0.44,0.25,0.36,0.51,0.55,0.53,0.36,0.43,0.53,0.55,0.27,0.55,0.55,0.34" style="fill:rgb(0,0,0);font-family:MinionPro-Regular;font-size:10.0px;stroke:none;">A GMMwas also used in [</text>
   <text y="448.608" x="317.241,321.991" svgx:width="0.48,0.48" style="fill:rgb(59,90,166);font-family:MinionPro-Regular;font-size:10.0px;stroke:none;">90</text>
   <text y="448.608" x="326.741,330.14099999999996,332.39,335.37,340.47,342.651,347.811,352.041,355.751,358.621,363.681,367.391,377.8,384.63,389.9,394.13,398.36,402.48,406.78000000000003,408.981,412.581,416.811,421.451,429.631,433.861,439.341,442.341,444.584,449.854,454.084,457.064,461.294,465.524,468.504,471.164,476.224,481.704,484.004,486.197,493.097,495.267,498.247,503.307,506.287,510.617,513.117,515.28,520.34,523.24,525.428,530.178,534.978,537.163,540.873,545.103,549.333,554.393,558.103,563.373" svgx:width="0.34,0.55,0.3,0.51,0.55,0.52,0.43,0.38,0.29,0.51,0.38,0.82,0.69,0.53,0.43,0.43,0.42,0.43,0.55,0.36,0.43,0.47,0.82,0.43,0.55,0.3,0.55,0.53,0.43,0.3,0.43,0.43,0.3,0.27,0.51,0.55,0.23,0.55,0.69,0.55,0.3,0.51,0.3,0.44,0.25,0.55,0.51,0.29,0.55,0.48,0.48,0.55,0.38,0.43,0.43,0.51,0.38,0.53,0.35" style="fill:rgb(0,0,0);font-family:MinionPro-Regular;font-size:10.0px;stroke:none;">] to performwheeze segment detection. A total of 24 record-</text>
   <text y="461.591" x="200.013,202.673,208.153,212.793,216.393,218.693,220.875,227.705,230.365,233.345,238.645,240.831,245.581,250.381,252.566,259.396,264.666,268.896,273.126,277.246,279.906,285.386,290.086,292.308,296.638,302.118,307.418,309.599,314.349,319.149,321.278,326.758,331.818,335.528,343.708,348.038,350.538,352.742,356.452,360.682,364.912,369.972,373.682,378.952,381.612,387.092,391.732,395.33200000000005,397.643,404.473,408.703,412.413,416.713,418.846,423.906,428.966,431.946,436.276,438.936,444.416,448.646,453.946,456.206,459.076,462.786,467.846,478.26" svgx:width="0.27,0.55,0.47,0.36,0.23,0.55,0.69,0.27,0.3,0.53,0.55,0.48,0.48,0.55,0.69,0.53,0.43,0.43,0.42,0.27,0.55,0.47,0.55,0.44,0.55,0.53,0.55,0.48,0.48,0.55,0.55,0.51,0.38,0.82,0.44,0.25,0.55,0.38,0.43,0.43,0.51,0.38,0.53,0.27,0.55,0.47,0.36,0.55,0.69,0.43,0.38,0.43,0.55,0.51,0.51,0.3,0.44,0.27,0.55,0.43,0.53,0.55,0.29,0.38,0.51,0.82,0.34" style="fill:rgb(0,0,0);font-family:MinionPro-Regular;font-size:10.0px;stroke:none;">ings, with 12 wheezing and 12 normal recordings were obtained from[</text>
   <text y="461.591" x="481.65,486.4,491.15" svgx:width="0.48,0.48,0.48" style="fill:rgb(59,90,166);font-family:MinionPro-Regular;font-size:10.0px;stroke:none;">124</text>
   <text y="461.591" x="495.9,499.29999999999995,501.504,505.834,511.314,516.614,518.795,521.775,527.045,531.3449999999999,533.535,540.365,545.115,551.215,557.425" svgx:width="0.34,0.55,0.44,0.55,0.53,0.55,0.3,0.53,0.43,0.55,0.69,0.48,0.61,0.63,0.69" style="fill:rgb(0,0,0);font-family:MinionPro-Regular;font-size:10.0px;stroke:none;">] and the ASTRA</text>
   <text y="474.574" x="200.013,205.283,209.613,212.593,216.923,221.983,226.313,229.913,234.21300000000002,236.409,243.029,250.379,252.679,254.834,260.934,266.204,270.504,272.692,276.402,280.632,284.862,289.922,293.632,298.902,301.562,307.042,311.682,315.28200000000004,317.536,324.366,328.596,332.306,336.606,338.739,342.339,346.569,351.209,359.389,363.619,369.099,372.079,376.309,381.579,383.879,386.134,390.884,395.634,400.434,402.575,409.405,414.675,418.905,423.135,427.255,431.555,433.756,438.086,443.566,448.866,451.047,455.797,460.547,465.297,470.09700000000004,472.25,477.73,482.79,486.5,494.68,499.01,501.51,503.715,507.315,511.545,516.185,524.365,528.595,534.075,537.055,540.655,542.946,549.776,554.006,557.716" svgx:width="0.53,0.44,0.3,0.44,0.51,0.44,0.36,0.43,0.55,0.67,0.74,0.23,0.55,0.61,0.53,0.43,0.55,0.38,0.43,0.43,0.51,0.38,0.53,0.27,0.55,0.47,0.36,0.55,0.69,0.43,0.38,0.43,0.55,0.36,0.43,0.47,0.82,0.43,0.55,0.3,0.43,0.53,0.23,0.55,0.48,0.48,0.48,0.55,0.69,0.53,0.43,0.43,0.42,0.43,0.55,0.44,0.55,0.53,0.55,0.48,0.48,0.48,0.48,0.55,0.55,0.51,0.38,0.82,0.44,0.25,0.55,0.36,0.43,0.47,0.82,0.43,0.55,0.3,0.36,0.55,0.69,0.43,0.38,0.43" style="fill:rgb(0,0,0);font-family:MinionPro-Regular;font-size:10.0px;stroke:none;">database CD. The recordings were segmented. 985 wheeze and 1822 normal segments were</text>
   <text y="487.613" x="200.013,205.073,210.133,213.113,217.443,220.103,225.583,229.813,235.083,237.383,239.584,244.334,248.564,253.104,257.334,261.044,265.374,267.874,270.084,272.954,277.184,281.514,284.494,289.764,293.474,297.774,299.961,303.561,307.791,310.771,314.37100000000004,316.572,323.402,327.632,331.342,335.642,337.775,342.005,346.645,349.625,353.335,357.665,361.895,364.875,369.105,374.40500000000003,376.667,379.537,384.597,388.397,390.499,393.479,398.749,403.04900000000004,405.183,409.413,411.873,416.203,419.803,423.403,426.063,428.933,431.593,435.823,440.153,443.133,445.793,450.853,456.333,458.63300000000004,460.912,467.012,472.282,476.582,478.77,481.64,485.87,490.2,493.18,498.45,502.16,506.46000000000004,508.59,512.19,516.42,519.4,523.0,525.258,529.488,534.128,537.108,540.818,545.148,549.378,552.358,556.588" svgx:width="0.51,0.51,0.3,0.44,0.27,0.55,0.43,0.53,0.23,0.55,0.48,0.43,0.46,0.43,0.38,0.44,0.25,0.55,0.29,0.43,0.44,0.3,0.53,0.38,0.43,0.55,0.36,0.43,0.3,0.36,0.55,0.69,0.43,0.38,0.43,0.55,0.43,0.47,0.3,0.38,0.44,0.43,0.3,0.43,0.53,0.55,0.29,0.51,0.38,0.55,0.3,0.53,0.43,0.55,0.43,0.25,0.44,0.36,0.36,0.27,0.29,0.27,0.43,0.44,0.3,0.27,0.51,0.55,0.23,0.55,0.61,0.53,0.43,0.55,0.29,0.43,0.44,0.3,0.53,0.38,0.43,0.55,0.36,0.43,0.3,0.36,0.55,0.43,0.47,0.3,0.38,0.44,0.43,0.3,0.43,0.53" style="fill:rgb(0,0,0);font-family:MinionPro-Regular;font-size:10.0px;stroke:none;">obtained. Several feature sets were extracted for the classification. The feature sets extracted</text>
   <text y="500.595" x="200.013,206.843,211.073,214.783,219.083,221.216,226.276,230.606,234.206,238.436,243.73600000000002,245.933,250.993,256.493,258.689,261.669,266.939,271.23900000000003,273.429,278.699,283.759,289.029,292.739,295.399,299.629,303.42900000000003,305.574,308.554,312.264,316.594,322.074,325.674,328.544,333.604,337.314,345.494,347.79400000000004,350.021,355.391,360.971,367.591,369.891,372.074,378.904,383.234,387.774,392.004,394.464,398.694,401.694,403.936,406.916,410.626,414.956,420.436,424.036,426.906,431.966,435.676,443.856,446.156,448.383,452.713,458.193,463.493,465.674,474.584,479.854,486.474,493.094,495.394,497.592,503.692,508.962,513.262,515.393,520.663,524.263,528.563,530.7,535.76,538.66,540.848,545.178,550.678,552.924,559.754,567.104" svgx:width="0.69,0.43,0.38,0.43,0.55,0.51,0.44,0.36,0.43,0.53,0.55,0.51,0.55,0.55,0.3,0.53,0.43,0.55,0.53,0.51,0.53,0.38,0.27,0.43,0.38,0.55,0.3,0.38,0.44,0.55,0.36,0.29,0.51,0.38,0.82,0.23,0.55,0.54,0.56,0.67,0.23,0.55,0.69,0.44,0.46,0.43,0.25,0.43,0.3,0.55,0.3,0.38,0.44,0.55,0.36,0.29,0.51,0.38,0.82,0.23,0.55,0.44,0.55,0.53,0.55,0.89,0.53,0.67,0.67,0.23,0.55,0.61,0.53,0.43,0.55,0.53,0.36,0.43,0.55,0.51,0.29,0.55,0.44,0.55,0.55,0.69,0.74,0.74" style="fill:rgb(0,0,0);font-family:MinionPro-Regular;font-size:10.0px;stroke:none;">were based on the Fourier transform, LPC, wavelet transform, and MFCC. The use of an ANN</text>
   <text y="513.578" x="200.013,204.343,209.823,215.12300000000002,217.304,224.234,228.464,232.694,235.674,240.734,244.53400000000002,246.67,254.13,259.4,263.73,269.21,272.19,274.85,278.45,282.78,285.76,288.42,293.48,298.98,301.265,304.655,311.585,319.045,322.445,324.679,329.009,332.60900000000004,334.827,340.097,344.327,347.307,351.537,355.767,358.747,361.407,366.467,371.967,374.229,377.209,381.439,385.669,390.939,396.419,399.079,404.139,409.409,413.639,417.23900000000003,419.469,426.299,430.629,434.22900000000004,436.477,440.807,443.267,446.867,451.96700000000004,454.165,459.435,462.095,465.695,469.925,475.195,478.795,482.395,486.625,491.895,494.195,496.401,502.501,507.771,512.071,514.259,519.629,527.089,534.549,541.169,548.169,550.316,553.296,557.526,561.756,567.026" svgx:width="0.44,0.55,0.53,0.55,0.7,0.43,0.43,0.3,0.51,0.38,0.55,0.75,0.53,0.44,0.55,0.3,0.27,0.36,0.44,0.3,0.27,0.51,0.55,0.55,0.34,0.7,0.75,0.34,0.55,0.44,0.36,0.55,0.53,0.43,0.3,0.43,0.43,0.3,0.27,0.51,0.55,0.55,0.3,0.43,0.43,0.53,0.55,0.27,0.51,0.53,0.43,0.36,0.55,0.69,0.44,0.36,0.55,0.44,0.25,0.36,0.51,0.55,0.53,0.27,0.36,0.43,0.53,0.36,0.36,0.43,0.53,0.23,0.55,0.61,0.53,0.43,0.55,0.54,0.75,0.75,0.67,0.7,0.55,0.3,0.43,0.43,0.53,0.35" style="fill:rgb(0,0,0);font-family:MinionPro-Regular;font-size:10.0px;stroke:none;">and Vector Quantisation (VQ) as detection techniques was also discussed. The LOOCV tech-</text>
   <text y="526.617" x="200.013,205.493,208.153,213.213,218.483,222.78300000000002,224.957,231.787,236.117,239.71699999999998,241.908,247.178,250.778,255.008,260.278,262.57800000000003,264.755,269.085,273.315,278.585,281.245,285.475,290.015,292.675,298.155,302.85499999999996,305.12,309.52,311.64,315.24,319.47,324.95,328.55,331.21,334.19,336.85,341.39,344.05,347.03,351.63,353.876,358.936,361.83599999999996,364.024,368.774,373.524,375.774,380.524,390.273,394.603,400.083,405.38300000000004,407.621,412.02099999999996,414.14,418.89,423.64,425.89,430.64,440.446,444.046,449.206,453.436,457.666,460.326,463.196,465.856,470.086,472.746,475.726,480.266,482.56600000000003,484.779,491.609,496.879,501.109,506.609,508.817,517.727,522.997,529.617,536.317,538.524,545.354,549.684,553.284,555.475,560.745,564.345,568.575" svgx:width="0.55,0.27,0.51,0.53,0.43,0.55,0.69,0.44,0.36,0.55,0.53,0.36,0.43,0.53,0.23,0.55,0.44,0.43,0.53,0.27,0.43,0.46,0.27,0.55,0.47,0.55,0.44,0.55,0.36,0.43,0.55,0.36,0.27,0.3,0.27,0.46,0.27,0.3,0.46,0.55,0.51,0.29,0.55,0.48,0.48,0.23,0.48,0.76,0.44,0.55,0.53,0.55,0.44,0.55,0.48,0.48,0.23,0.48,0.76,0.36,0.52,0.43,0.43,0.27,0.29,0.27,0.43,0.27,0.3,0.46,0.23,0.55,0.69,0.53,0.43,0.55,0.55,0.89,0.53,0.67,0.67,0.55,0.69,0.44,0.36,0.55,0.53,0.36,0.43,0.53" style="fill:rgb(0,0,0);font-family:MinionPro-Regular;font-size:10.0px;stroke:none;">nique was used, achieving a sensitivity of 94.6%and a 91.9%specificity, when MFCC was used</text>
   <text y="539.6" x="200.013,204.343,207.94299999999998,210.16,214.56,216.68,219.55,223.78,228.11,231.09,236.36,240.07,244.37,246.557,253.387,256.047,259.027,264.327,266.513,273.653,282.563,293.725,297.955,300.415,305.685,309.285,312.265,316.495,320.205,322.865,328.345,332.985" svgx:width="0.44,0.36,0.55,0.44,0.55,0.29,0.43,0.44,0.3,0.53,0.38,0.43,0.55,0.69,0.27,0.3,0.53,0.55,0.72,0.89,0.89,0.43,0.25,0.53,0.36,0.3,0.43,0.38,0.27,0.55,0.47,0.23" style="fill:rgb(0,0,0);font-family:MinionPro-Regular;font-size:10.0px;stroke:none;">as a feature with GMMclustering.</text>
   <text y="552.583" x="211.975,218.805,224.285,229.345,232.325,237.595,241.825,245.625,247.804,250.464,258.644,263.804,266.264,270.494,278.674,282.904,288.384,291.364,295.694,298.674,301.334,306.394,311.894,314.191,319.461,323.061,325.721,331.201,335.841,338.141,340.327,344.727,346.903,354.043,362.953,374.115,380.945,383.605,386.585,391.885,394.071,402.981,408.251,414.871,421.57099999999997,423.721,428.051,431.651,433.869,436.739,440.969,445.299,448.279,453.549,457.259,461.489,465.089,467.389,469.586,476.416,480.746,484.346,486.593,491.753,495.463,499.693,503.293,507.523,513.003,515.983,520.213,525.5129999999999,527.752,530.412,535.912,538.127" svgx:width="0.69,0.55,0.51,0.3,0.53,0.43,0.38,0.55,0.27,0.82,0.52,0.25,0.43,0.82,0.43,0.55,0.3,0.44,0.3,0.27,0.51,0.55,0.55,0.53,0.36,0.27,0.55,0.47,0.23,0.55,0.44,0.55,0.72,0.89,0.89,0.69,0.27,0.3,0.53,0.55,0.89,0.53,0.67,0.67,0.55,0.44,0.36,0.55,0.29,0.43,0.44,0.3,0.53,0.38,0.43,0.36,0.23,0.55,0.69,0.44,0.36,0.55,0.52,0.38,0.43,0.36,0.43,0.55,0.3,0.43,0.53,0.55,0.27,0.55,0.55,0.34" style="fill:rgb(0,0,0);font-family:MinionPro-Regular;font-size:10.0px;stroke:none;">Another implementation using, a GMMwith MFCC as features, was presented in [</text>
   <text y="552.583" x="541.517,546.267" svgx:width="0.48,0.48" style="fill:rgb(59,90,166);font-family:MinionPro-Regular;font-size:10.0px;stroke:none;">87</text>
   <text y="552.583" x="551.017,554.407,556.707,558.876,564.976,570.246" svgx:width="0.34,0.23,0.55,0.61,0.53,0.43" style="fill:rgb(0,0,0);font-family:MinionPro-Regular;font-size:10.0px;stroke:none;">]. The</text>
   <text y="565.622" x="200.013,204.243,206.703,211.973,215.573,218.553,222.783,226.493,229.153,234.633,239.333,241.511,248.341,252.671,256.271,258.519,263.679,267.909,271.619,274.489,279.549,283.259,291.439,295.669,300.969,303.193,306.173,311.273,313.454,317.054,321.284,326.444,330.774,334.484,338.814,341.794,346.094,348.264,353.324,357.554,360.534,367.364,371.594,375.824,381.324,383.583,387.813,391.523,395.853,400.083,405.043,407.503,411.733,414.033,416.238,423.068,428.338,432.568,436.798,440.918,445.148,447.44800000000004,449.63,453.96,459.44,464.74,466.921,470.521,473.501,477.211,479.871,485.141,490.201,494.00100000000003,496.174,499.774,504.834,510.104,515.584,520.854,524.454,526.7539999999999,528.943,535.043,540.313,544.6129999999999,546.744,550.344,555.404,560.674,566.154" svgx:width="0.43,0.25,0.53,0.36,0.3,0.43,0.38,0.27,0.55,0.47,0.55,0.69,0.44,0.36,0.55,0.52,0.43,0.38,0.29,0.51,0.38,0.82,0.43,0.53,0.55,0.3,0.51,0.55,0.36,0.43,0.52,0.44,0.38,0.44,0.3,0.43,0.55,0.51,0.43,0.3,0.69,0.43,0.43,0.55,0.55,0.43,0.38,0.44,0.43,0.5,0.25,0.43,0.23,0.55,0.69,0.53,0.43,0.43,0.42,0.43,0.23,0.55,0.44,0.55,0.53,0.55,0.36,0.3,0.38,0.27,0.53,0.51,0.38,0.55,0.36,0.51,0.53,0.55,0.53,0.36,0.23,0.55,0.61,0.53,0.43,0.55,0.36,0.51,0.53,0.55,0.53" style="fill:rgb(0,0,0);font-family:MinionPro-Regular;font-size:10.0px;stroke:none;">clustering was performed to separate between crackle, wheeze, and stridor sounds. The sound</text>
   <text y="578.604" x="200.013,203.723,207.953,212.183,217.243,220.953,226.223,228.883,234.363,239.003,242.60299999999998,244.856,251.686,255.916,259.626,263.926,266.059,271.119,276.179,279.159,283.489,286.149,291.629,295.859,301.159,303.42,306.29,310.0,315.06,325.473,329.803,335.303,337.492,342.552,348.032,350.492,353.152,358.632,362.932,365.101,368.811,373.041,378.201,383.261,386.861,389.521,392.501,397.561,401.271,405.87100000000004,408.074" svgx:width="0.38,0.43,0.43,0.51,0.38,0.53,0.27,0.55,0.47,0.36,0.55,0.69,0.43,0.38,0.43,0.55,0.51,0.51,0.3,0.44,0.27,0.55,0.43,0.53,0.55,0.29,0.38,0.51,0.82,0.44,0.55,0.55,0.51,0.55,0.25,0.27,0.55,0.43,0.55,0.38,0.43,0.52,0.51,0.36,0.27,0.3,0.51,0.38,0.46,0.55,0.34" style="fill:rgb(0,0,0);font-family:MinionPro-Regular;font-size:10.0px;stroke:none;">recordings were obtained froman online repository [</text>
   <text y="578.604" x="411.464,416.214,420.964" svgx:width="0.48,0.48,0.48" style="fill:rgb(59,90,166);font-family:MinionPro-Regular;font-size:10.0px;stroke:none;">124</text>
   <text y="578.604" x="425.714,429.104,431.404,433.643,439.013,446.473,453.933,460.553,467.553,469.699,476.529,480.859,484.459,486.707,491.977,495.577,499.807,505.107,507.286,514.116,516.776,519.756,525.0559999999999,527.299,532.049,536.8489999999999,538.977,547.887,553.157,559.777" svgx:width="0.34,0.23,0.55,0.54,0.75,0.75,0.67,0.7,0.55,0.69,0.44,0.36,0.55,0.53,0.36,0.43,0.53,0.55,0.69,0.27,0.3,0.53,0.55,0.48,0.48,0.55,0.89,0.53,0.67,0.67" style="fill:rgb(0,0,0);font-family:MinionPro-Regular;font-size:10.0px;stroke:none;">]. LOOCV was used with 13 MFCC</text>
   <text y="591.587" x="200.013,202.883,207.113,211.443,214.423,219.693,223.403,227.633,231.233,233.53300000000002,235.729,241.829,247.099,251.399,253.53,258.69,262.92,266.63,269.5,274.56,278.27,286.45,290.78,296.26,300.49,304.79,307.048,313.878,318.208,321.80800000000005,323.999,327.709,331.939,337.099,342.159,345.869,348.849,353.079,358.379,360.623,363.283,368.763,374.033,376.693,381.233,383.893,389.163,394.433,398.763,401.223,403.683,408.283,410.512,414.842,418.442,420.66,425.06,427.18,435.36,439.59,443.92,447.52,452.79,456.5,460.8,463.009,468.069,470.969,473.157,477.487,481.717,485.947,491.217,494.927,499.257,503.487,508.08700000000005,510.291,515.351,518.251,520.439,523.419,528.689,532.9889999999999,535.122,541.742,548.742,550.883,554.593,558.823,562.423,567.693,570.153,573.133" svgx:width="0.29,0.43,0.44,0.3,0.53,0.38,0.43,0.36,0.23,0.55,0.61,0.53,0.43,0.55,0.52,0.43,0.38,0.29,0.51,0.38,0.82,0.44,0.55,0.43,0.43,0.55,0.69,0.44,0.36,0.55,0.38,0.43,0.52,0.51,0.38,0.3,0.43,0.53,0.55,0.27,0.55,0.53,0.27,0.46,0.27,0.53,0.53,0.44,0.25,0.25,0.46,0.55,0.44,0.36,0.55,0.44,0.55,0.82,0.43,0.44,0.36,0.53,0.38,0.43,0.55,0.51,0.29,0.55,0.44,0.43,0.43,0.53,0.38,0.44,0.43,0.46,0.55,0.51,0.29,0.55,0.3,0.53,0.43,0.55,0.67,0.7,0.55,0.38,0.43,0.36,0.53,0.25,0.3,0.23" style="fill:rgb(0,0,0);font-family:MinionPro-Regular;font-size:10.0px;stroke:none;">features. The performance was reported individually as a measure of accuracy of the CV result.</text>
   <text y="604.57" x="200.013,206.113,211.383,215.68300000000002,217.814,222.144,226.374,230.604,235.874,239.584,243.914,248.144,252.744,254.948,260.008,265.068,268.048,272.378,275.038,280.518,284.748,290.048,292.251,299.081,303.411,307.011,309.259,314.009,318.759,321.009,325.759,335.564,338.434,343.494,347.29400000000004,349.397,352.377,357.647,361.947,364.137,369.617,374.677,378.387,386.567,390.897,393.397,395.602,400.872,405.202,408.182,412.512,414.812,416.975,421.725,426.475,436.25,439.12,444.18,447.98,450.14,454.37,458.08,462.41,466.64,471.6,474.06,478.29,480.59000000000003,482.738,487.488,492.238,502.07,504.94,510.0,513.8,515.903,520.233,523.833,526.813,532.083,540.263,544.593,546.8929999999999,549.125,553.455,558.935" svgx:width="0.61,0.53,0.43,0.55,0.44,0.43,0.43,0.53,0.38,0.44,0.43,0.46,0.55,0.51,0.51,0.3,0.44,0.27,0.55,0.43,0.53,0.55,0.69,0.44,0.36,0.55,0.48,0.48,0.23,0.48,0.76,0.29,0.51,0.38,0.55,0.3,0.53,0.43,0.55,0.55,0.51,0.38,0.82,0.44,0.25,0.55,0.53,0.44,0.3,0.44,0.23,0.55,0.48,0.48,0.76,0.29,0.51,0.38,0.55,0.43,0.38,0.44,0.43,0.5,0.25,0.43,0.23,0.55,0.48,0.48,0.76,0.29,0.51,0.38,0.55,0.44,0.36,0.3,0.53,0.82,0.44,0.23,0.55,0.44,0.55,0.53" style="fill:rgb(0,0,0);font-family:MinionPro-Regular;font-size:10.0px;stroke:none;">The accuracy obtained was 46.1%for the normal data, 98%for crackle, 50%for asthma, and</text>
   <text y="617.609" x="200.013,204.763,209.513,211.763,216.513,226.318,229.188,234.248,238.048,240.151,246.981,252.251,256.481,260.711,264.831,269.061" svgx:width="0.48,0.48,0.23,0.48,0.76,0.29,0.51,0.38,0.55,0.69,0.53,0.43,0.43,0.42,0.43,0.23" style="fill:rgb(0,0,0);font-family:MinionPro-Regular;font-size:10.0px;stroke:none;">26.9%for wheeze.</text>
   <text y="630.592" x="211.975,219.115,228.025,239.187,246.017,250.347,253.947,256.195,260.525,262.985,266.585,271.685,273.883,279.153,282.753,286.983,292.283,294.462,297.122,302.622,304.837" svgx:width="0.72,0.89,0.89,0.69,0.44,0.36,0.55,0.44,0.25,0.36,0.51,0.55,0.53,0.36,0.43,0.53,0.55,0.27,0.55,0.55,0.34" style="fill:rgb(0,0,0);font-family:MinionPro-Regular;font-size:10.0px;stroke:none;">GMMwas also used in [</text>
   <text y="630.592" x="308.227,312.977" svgx:width="0.48,0.48" style="fill:rgb(59,90,166);font-family:MinionPro-Regular;font-size:10.0px;stroke:none;">51</text>
   <text y="630.592" x="317.727,321.12699999999995,323.376,326.356,331.456,333.58,337.18,341.41,346.57,350.9,354.61,358.94,361.92,366.22,368.446,373.506,377.736,380.716,387.546,391.776,396.006,401.506,403.709,407.939,411.649,415.979,420.209,425.169,427.629,431.92900000000003,434.096,438.426,443.906,449.206,451.387,456.867,461.927,465.637,473.817,478.147,480.647,482.852,486.562,490.792,495.022,500.082,503.792,509.062,511.722,517.202,521.842,525.442,527.742,529.963,534.713,539.5129999999999,541.699,545.409,549.639,553.869,558.929,562.639,567.909" svgx:width="0.34,0.55,0.3,0.51,0.55,0.36,0.43,0.52,0.44,0.38,0.44,0.3,0.43,0.55,0.51,0.43,0.3,0.69,0.43,0.43,0.55,0.55,0.43,0.38,0.44,0.43,0.5,0.25,0.43,0.55,0.44,0.55,0.53,0.55,0.55,0.51,0.38,0.82,0.44,0.25,0.55,0.38,0.43,0.43,0.51,0.38,0.53,0.27,0.55,0.47,0.36,0.23,0.55,0.48,0.48,0.55,0.38,0.43,0.43,0.51,0.38,0.53,0.35" style="fill:rgb(0,0,0);font-family:MinionPro-Regular;font-size:10.0px;stroke:none;">] to separate between crackle and normal recordings. 41 record-</text>
   <text y="643.574" x="200.013,202.673,208.153,212.793,216.393,218.608,225.438,228.098,231.078,236.37800000000001,238.563,243.313,248.113,250.299,255.359,258.259,260.447,263.427,268.697,272.927,283.294,287.524,292.584,298.064,301.044,305.374,308.034,313.514,316.174,321.654,326.354,328.591,332.821,336.531,340.861,345.091,350.051,352.511,356.81100000000004,358.978,362.578,367.638,372.908,378.388,383.658,387.25800000000004,389.479,396.309,400.539,404.249,408.54900000000004,410.739,416.009,419.609,423.839,429.139,431.318,434.188,439.248,443.048,445.151,449.381,451.841,456.171,459.771,463.371,466.031,468.901,471.561,475.791,480.121,483.101,485.761,490.821,496.301,498.601,500.88,505.63,510.79,515.02,519.25,522.23,525.94,530.27,532.73,536.23,541.29,545.62,549.22,553.45,558.75,560.974,563.844,568.074,572.404" svgx:width="0.27,0.55,0.47,0.36,0.55,0.69,0.27,0.3,0.53,0.55,0.48,0.48,0.55,0.51,0.29,0.55,0.3,0.53,0.43,0.82,0.43,0.51,0.55,0.3,0.44,0.27,0.55,0.27,0.55,0.47,0.55,0.43,0.38,0.44,0.43,0.5,0.25,0.43,0.55,0.36,0.51,0.53,0.55,0.53,0.36,0.55,0.69,0.43,0.38,0.43,0.55,0.53,0.36,0.43,0.53,0.55,0.29,0.51,0.38,0.55,0.43,0.25,0.44,0.36,0.36,0.27,0.29,0.27,0.43,0.44,0.3,0.27,0.51,0.55,0.23,0.55,0.48,0.52,0.43,0.43,0.3,0.38,0.44,0.25,0.35,0.51,0.44,0.36,0.43,0.53,0.55,0.29,0.43,0.44,0.35" style="fill:rgb(0,0,0);font-family:MinionPro-Regular;font-size:10.0px;stroke:none;">ings with 14 of themcontaining crackle sounds were used for classification. Spectral-based fea-</text>
   <text y="656.613" x="200.013,202.993,208.263,211.973,216.203,219.803,222.009,228.839,233.069,236.779,241.079,243.269,248.539,252.139,256.369,261.66900000000004,263.848,266.718,271.778,275.57800000000003,277.681,280.661,285.931,290.231,292.421,296.651,299.111,304.381,307.981,310.961,315.191,318.901,321.561,327.041,331.681,333.981,336.188,342.288,347.558,351.858,353.989,359.149,363.379,367.089,369.959,375.019,378.729,386.909,391.239,396.719,400.949,405.249,407.507,411.737,414.197,418.527,421.187,429.367,433.597,438.897,441.069,447.899,452.229,455.829,458.077,462.827,467.577,469.827,474.577,479.327,489.145,492.745,496.975,502.455,506.055,508.715,511.695,514.355,518.895,521.555,524.535,529.135,531.324,538.154,540.814,543.794,549.0939999999999,551.336,556.086,560.836,565.586" svgx:width="0.3,0.53,0.38,0.43,0.36,0.55,0.69,0.43,0.38,0.43,0.55,0.53,0.36,0.43,0.53,0.55,0.29,0.51,0.38,0.55,0.3,0.53,0.43,0.55,0.43,0.25,0.53,0.36,0.3,0.43,0.38,0.27,0.55,0.47,0.23,0.55,0.61,0.53,0.43,0.55,0.52,0.43,0.38,0.29,0.51,0.38,0.82,0.44,0.55,0.43,0.43,0.55,0.43,0.25,0.44,0.27,0.82,0.43,0.53,0.55,0.69,0.44,0.36,0.55,0.48,0.48,0.23,0.48,0.48,0.76,0.36,0.43,0.55,0.36,0.27,0.3,0.27,0.46,0.27,0.3,0.46,0.55,0.69,0.27,0.3,0.53,0.55,0.48,0.48,0.48,0.76" style="fill:rgb(0,0,0);font-family:MinionPro-Regular;font-size:10.0px;stroke:none;">tures were used for the clustering. The performance claimed was 92.85%sensitivity with 100%</text>
   <text y="669.596" x="200.013,203.613,208.773,213.003,217.233,219.893,222.763,225.423,229.653,232.313,235.293,239.833" svgx:width="0.36,0.52,0.43,0.43,0.27,0.29,0.27,0.43,0.27,0.3,0.46,0.23" style="fill:rgb(0,0,0);font-family:MinionPro-Regular;font-size:10.0px;stroke:none;">specificity.</text>
   <text y="682.579" x="211.975,218.075,223.345,227.645,229.833,233.433,236.413,241.683,246.953,251.553,253.7,256.36,261.86,264.075" svgx:width="0.61,0.53,0.43,0.55,0.36,0.3,0.53,0.53,0.46,0.55,0.27,0.55,0.55,0.34" style="fill:rgb(0,0,0);font-family:MinionPro-Regular;font-size:10.0px;stroke:none;">The study in [</text>
   <text y="682.579" x="267.465,272.215" svgx:width="0.48,0.48" style="fill:rgb(59,90,166);font-family:MinionPro-Regular;font-size:10.0px;stroke:none;">57</text>
   <text y="682.579" x="276.965,280.36499999999995,282.614,286.844,291.904,300.084,305.244,309.574,313.284,317.514,322.814,325.02,328.0,333.27,337.57,339.703,344.863,349.093,352.803,355.673,360.733,364.443,372.623,376.953,382.433,386.663,390.963,393.221,398.281,401.181,403.369,407.769,409.888,417.028,425.938,437.101,441.431,446.911,452.211,454.392,458.792,460.912,465.662,472.592,483.759,486.629,491.689,495.48900000000003,497.648,500.628,505.898,510.19800000000004,512.332,516.562,519.022,523.352,526.952,530.552,533.212,536.082,538.742,542.972,547.302,550.282,552.942,558.002,563.502,565.793,570.853" svgx:width="0.34,0.55,0.43,0.51,0.82,0.52,0.44,0.38,0.43,0.53,0.55,0.3,0.53,0.43,0.55,0.52,0.43,0.38,0.29,0.51,0.38,0.82,0.44,0.55,0.43,0.43,0.55,0.51,0.29,0.55,0.44,0.55,0.72,0.89,0.89,0.44,0.55,0.53,0.55,0.44,0.55,0.48,0.7,0.89,0.29,0.51,0.38,0.55,0.3,0.53,0.43,0.55,0.43,0.25,0.44,0.36,0.36,0.27,0.29,0.27,0.43,0.44,0.3,0.27,0.51,0.55,0.55,0.51,0.29" style="fill:rgb(0,0,0);font-family:MinionPro-Regular;font-size:10.0px;stroke:none;">] compared the performance of a GMMand a SVMfor the classification of</text>
   <text y="695.618" x="200.013,205.493,210.553,214.263,222.443,226.773,229.273,231.477,235.807,241.287,246.58700000000002,248.768,253.098,258.158,263.638,268.698,272.408,280.588,284.918,287.418,289.643,293.353,297.583,301.813,306.873,310.583,315.853,318.513,323.993,328.633,332.233,334.533,336.755,343.585,349.085,351.268,358.098,364.398,366.519,374.699,379.759,385.029,389.259,391.759,393.958,400.788,405.118,408.718,410.966,416.236,419.836,424.066,429.366,431.602,435.932,439.53200000000004,441.75,446.15,448.269,451.139,455.369,459.699,462.679,467.949,471.659,475.959,478.146,481.746,485.976,488.976,491.129,496.399,499.999,502.659,508.139,512.839,515.053,520.423,527.883,535.343,541.963,548.893,551.193,553.377,559.477,564.747" svgx:width="0.55,0.51,0.38,0.82,0.44,0.25,0.55,0.44,0.55,0.53,0.55,0.44,0.51,0.55,0.51,0.38,0.82,0.44,0.25,0.55,0.38,0.43,0.43,0.51,0.38,0.53,0.27,0.55,0.47,0.36,0.23,0.55,0.69,0.55,0.55,0.69,0.63,0.55,0.82,0.51,0.53,0.43,0.25,0.55,0.69,0.44,0.36,0.55,0.53,0.36,0.43,0.53,0.55,0.44,0.36,0.55,0.44,0.55,0.29,0.43,0.44,0.3,0.53,0.38,0.43,0.55,0.36,0.43,0.3,0.55,0.53,0.36,0.27,0.55,0.47,0.55,0.54,0.75,0.75,0.67,0.7,0.23,0.55,0.61,0.53,0.43" style="fill:rgb(0,0,0);font-family:MinionPro-Regular;font-size:10.0px;stroke:none;">normal and abnormal recordings. An AR model was used as a feature set using LOOCV. The</text>
  </g>
  <path style="fill:rgb(0,0,0);stroke:none;stroke-width:1.0;" d="M576.000 54.900 L36.000 54.900 L36.000 54.400 L576.000 54.400 "/>
  <rect style="stroke:blue;stroke-width:0.3;" x="36.0" y="35.043" height="23.64" width="107.093" title="30"/>
  <text y="35.043" class="image" id="image.30.1" width="107" height="23" x="36.0">image.30.1.36_143.35_59</text>
  <g begin="text">
   <text y="46.205" x="332.504,337.792,342.168,344.376,348.752,355.376,359.752,361.96,363.664,367.664,369.297,373.673,378.049,382.009,386.385,390.761,392.969,394.673,396.881,398.585,402.859,407.235,411.235,412.893,415.517,419.893,423.853,428.229,429.933,432.557,436.933,439.141,443.517,446.141,450.141,451.785,455.745,460.121,464.497,468.873,473.27299999999997,474.916,479.292,483.668,488.044,489.748,493.708,497.667,499.371,503.331,505.571,507.231,512.591,514.26,518.22,522.18,526.14,528.348,532.724,539.348,543.724,545.932,547.636,551.636,553.264,555.888,560.264,564.224,565.928,570.304" svgx:width="0.67,0.55,0.28,0.55,0.83,0.55,0.28,0.22,0.5,0.55,0.55,0.55,0.5,0.55,0.55,0.28,0.22,0.28,0.22,0.55,0.55,0.5,0.55,0.33,0.55,0.5,0.55,0.22,0.33,0.55,0.28,0.55,0.33,0.5,0.55,0.5,0.55,0.55,0.55,0.55,0.55,0.55,0.55,0.55,0.22,0.5,0.5,0.22,0.5,0.28,0.55,0.67,0.55,0.5,0.5,0.5,0.28,0.55,0.83,0.55,0.28,0.22,0.5,0.55,0.33,0.55,0.5,0.22,0.55,0.72" style="fill:rgb(0,0,0);font-family:Helvetica;font-size:8.0px;stroke:none;">Automatic adventitious respiratory sound analysis: A systematic review</text>
  </g>
  <path style="fill:rgb(0,0,0);stroke:none;stroke-width:1.0;" d="M36.000 744.000 L576.000 744.000 L576.000 744.500 L36.000 744.500 "/>
  <path style="fill:rgb(59,90,166);stroke:none;stroke-width:1.0;" d="M81.580 757.080 L237.880 757.080 Z"/>
  <g begin="text">
   <text y="756.0" x="36.0,41.288,45.664,51.872,57.232,58.847,65.055,70.759,76.119,77.782" svgx:width="0.67,0.55,0.78,0.67,0.55,0.78,0.72,0.67,0.55,0.26" style="fill:rgb(0,0,0);font-family:Helvetica;font-size:8.0px;stroke:none;">PLOS ONE |</text>
   <text y="756.0" x="81.58,85.956,88.164,90.372,94.748,98.708,100.916,103.124,105.332,109.708,114.084,115.788,117.996,122.372,124.893,129.269,131.477,135.853,140.229,142.437,146.813,151.189,155.451,159.827,162.035,163.739,168.115,172.491,175.115,179.491,183.867,185.571,187.779,192.155,196.44,200.816,205.191,207.399,211.775,216.151,220.527,224.903,229.151,233.527" svgx:width="0.55,0.28,0.28,0.55,0.5,0.28,0.28,0.28,0.55,0.55,0.22,0.28,0.55,0.33,0.55,0.28,0.55,0.55,0.28,0.55,0.55,0.55,0.55,0.28,0.22,0.55,0.55,0.33,0.55,0.55,0.22,0.28,0.55,0.55,0.55,0.55,0.28,0.55,0.55,0.55,0.55,0.55,0.55,0.55" style="fill:rgb(59,90,166);font-family:Helvetica;font-size:8.0px;stroke:none;">https://doi.org/10.1371/journal.pone.0177926</text>
   <text y="756.0" x="245.876,252.5,256.876,260.876,262.6,266.976,271.352,273.592,275.243,279.619,283.995,288.37,292.77,552.81,557.185,561.5849999999999,563.241" svgx:width="0.83,0.55,0.5,0.55,0.55,0.55,0.28,0.55,0.55,0.55,0.55,0.55,0.55,0.55,0.55,0.55,0.28" style="fill:rgb(0,0,0);font-family:Helvetica;font-size:8.0px;stroke:none;">May 26, 2017 30 /</text>
  </g>
  <g begin="text">
   <text y="756.0" x="567.209,571.585" svgx:width="0.55,0.55" style="fill:rgb(0,0,0);font-family:Helvetica;font-size:8.0px;stroke:none;">43</text>
  </g>
 </g>
</svg>
