<?xml version="1.0" encoding="UTF-8"?>
<svg height="614.07" width="542.16" xmlns="http://www.w3.org/2000/svg">
 <g>
  <path style="fill:none;stroke:rgb(35,31,32);stroke-width:1.0;" d="M73.160 354.670 L73.460 354.670 "/>
  <path style="fill:none;stroke:rgb(35,31,32);stroke-width:259.1;" d="M73.460 225.270 L505.160 225.270 "/>
  <path style="fill:none;stroke:rgb(35,31,32);stroke-width:0.3;" d="M504.860 354.670 L505.160 354.670 "/>
  <path style="fill:none;stroke:rgb(35,31,32);stroke-width:259.1;" d="M73.160 484.070 L504.860 484.070 "/>
  <path style="fill:none;stroke:rgb(35,31,32);stroke-width:0.3;" d="M301.160 548.920 L529.160 548.920 "/>
  <path style="fill:none;stroke:rgb(35,31,32);stroke-width:1.0;" d="M301.160 567.420 L529.160 567.420 "/>
  <path style="fill:none;stroke:rgb(35,31,32);stroke-width:1.0;" d="M49.160 603.770 L277.160 603.770 "/>
  <path style="fill:none;stroke:rgb(35,31,32);stroke-width:0.3;" d="M301.160 604.070 L529.160 604.070 "/>
  <path style="fill:none;stroke:rgb(35,31,32);stroke-width:0.3;" d="M37.240 97.160 C37.240 101.770 40.980 105.510 45.590 105.510 L91.720 105.510 C96.330 105.510 100.070 101.770 100.070 97.160 L100.070 51.030 C100.070 46.420 96.330 42.680 91.720 42.680 L45.590 42.680 C40.980 42.680 37.240 46.420 37.240 51.030 L37.240 97.160 Z"/>
  <path style="fill:none;stroke:rgb(35,31,32);stroke-width:0.48;" d="M66.580 50.040 C67.180 49.050 71.250 48.950 71.950 49.840 C72.640 50.730 71.450 57.170 74.130 58.660 C76.810 60.150 75.520 50.220 79.600 49.030 C83.670 47.840 93.200 58.160 94.790 69.390 C96.380 80.610 100.320 92.770 91.510 96.900 C88.330 98.390 74.470 90.250 74.020 86.520 C73.700 83.870 74.730 61.840 70.350 62.440 C65.990 63.030 63.900 65.220 66.090 71.870 C68.270 78.530 68.130 87.830 67.330 88.630 C63.750 92.200 47.600 100.700 42.550 95.410 C38.170 90.840 41.160 78.720 42.650 72.770 C44.140 66.810 49.250 50.550 58.040 48.970 C61.910 48.270 62.110 59.360 64.000 58.960 C67.230 58.280 65.990 51.030 66.580 50.040 M38.750 49.900 L98.640 49.900 "/>
  <path style="fill:none;stroke:rgb(35,31,32);stroke-width:0.69;" d="M38.750 52.220 L98.640 52.220 "/>
  <path style="fill:none;stroke:rgb(35,31,32);stroke-width:0.69;" d="M38.750 54.550 L98.640 54.550 "/>
  <path style="fill:none;stroke:rgb(35,31,32);stroke-width:0.69;" d="M38.750 56.870 L98.640 56.870 "/>
  <path style="fill:none;stroke:rgb(35,31,32);stroke-width:0.69;" d="M38.750 59.200 L98.640 59.200 "/>
  <path style="fill:none;stroke:rgb(35,31,32);stroke-width:0.69;" d="M38.750 61.520 L98.640 61.520 "/>
  <path style="fill:none;stroke:rgb(35,31,32);stroke-width:0.69;" d="M38.750 63.840 L98.640 63.840 "/>
  <path style="fill:none;stroke:rgb(35,31,32);stroke-width:0.69;" d="M38.750 66.170 L98.640 66.170 "/>
  <path style="fill:none;stroke:rgb(35,31,32);stroke-width:0.69;" d="M38.750 68.490 L98.640 68.490 "/>
  <path style="fill:none;stroke:rgb(35,31,32);stroke-width:0.69;" d="M38.750 70.820 L98.640 70.820 "/>
  <path style="fill:none;stroke:rgb(35,31,32);stroke-width:0.69;" d="M38.750 73.140 L98.640 73.140 "/>
  <path style="fill:none;stroke:rgb(35,31,32);stroke-width:0.69;" d="M38.750 75.460 L98.640 75.460 "/>
  <path style="fill:none;stroke:rgb(35,31,32);stroke-width:0.69;" d="M38.750 77.780 L98.640 77.780 "/>
  <path style="fill:none;stroke:rgb(35,31,32);stroke-width:0.69;" d="M38.750 80.110 L98.640 80.110 "/>
  <path style="fill:none;stroke:rgb(35,31,32);stroke-width:0.69;" d="M38.750 82.430 L98.640 82.430 "/>
  <path style="fill:none;stroke:rgb(35,31,32);stroke-width:0.69;" d="M38.750 84.760 L98.640 84.760 "/>
  <path style="fill:none;stroke:rgb(35,31,32);stroke-width:0.69;" d="M38.750 87.080 L98.640 87.080 "/>
  <path style="fill:none;stroke:rgb(35,31,32);stroke-width:0.69;" d="M38.750 89.400 L98.640 89.400 "/>
  <path style="fill:none;stroke:rgb(35,31,32);stroke-width:0.69;" d="M38.750 91.730 L98.640 91.730 "/>
  <path style="fill:none;stroke:rgb(35,31,32);stroke-width:0.69;" d="M38.750 94.050 L98.640 94.050 "/>
  <path style="fill:none;stroke:rgb(35,31,32);stroke-width:0.69;" d="M38.750 96.370 L98.640 96.370 "/>
  <path style="fill:none;stroke:rgb(35,31,32);stroke-width:0.69;" d="M38.750 98.700 L98.640 98.700 "/>
  <path style="fill:rgb(35,31,32);stroke:none;stroke-width:0.69;" d="M60.820 75.150 C62.710 74.260 63.010 74.450 61.220 72.570 C59.430 70.680 63.380 69.710 64.500 69.890 C66.980 70.280 65.590 73.960 67.470 73.760 C69.370 73.560 68.170 68.590 71.550 68.590 C74.930 68.590 74.330 71.280 76.020 72.960 C77.710 74.650 78.600 73.060 80.090 71.370 C81.580 69.680 83.660 66.720 85.650 71.280 C86.350 72.860 81.880 75.150 82.280 76.440 C82.670 77.730 87.540 80.410 85.850 85.970 C84.160 91.540 75.920 94.120 69.070 89.950 C62.210 85.780 54.400 78.190 60.820 75.150 "/>
  <path style="fill:none;stroke:rgb(35,31,32);stroke-width:0.69;" d="M60.820 75.150 C62.710 74.260 63.010 74.450 61.220 72.570 C59.430 70.680 63.380 69.710 64.500 69.890 C66.980 70.280 65.590 73.960 67.470 73.760 C69.370 73.560 68.170 68.590 71.550 68.590 C74.930 68.590 74.330 71.280 76.020 72.960 C77.710 74.650 78.600 73.060 80.090 71.370 C81.580 69.680 83.660 66.720 85.650 71.280 C86.350 72.860 81.880 75.150 82.280 76.440 C82.670 77.730 87.540 80.410 85.850 85.970 C84.160 91.540 75.920 94.120 69.070 89.950 C62.210 85.780 54.400 78.190 60.820 75.150 Z"/>
  <path style="fill:none;stroke:rgb(35,31,32);stroke-width:0.25;" d="M100.160 77.090 L532.160 77.090 "/>
 </g>
</svg>
