<?xml version="1.0" encoding="UTF-8"?>
<svg height="349.06" width="531.6999999999999" xmlns="http://www.w3.org/2000/svg">
 <g id="page" xmlns:svgx="http://www.xml-cml.org/schema/svgx">
  <g begin="text">
   <text y="80.34" x="108.0,112.99,117.979,120.564,123.08399999999999,126.029,132.017,135.0,139.99,144.979,149.969,153.032,155.016,160.006,164.995,167.517,170.005,174.994,177.977,180.499,185.533,190.514,193.036,195.019,200.009,202.496,204.48,209.515,214.504,219.494,224.051,229.041,231.563,236.552,241.542,246.576,251.566,256.556,264.038,266.022,270.508,272.995,275.517,281.505,286.495,289.478,293.963,298.998,304.033,309.013,310.997,313.518,318.508,321.543,326.539,329.033,334.029,338.521,341.015,343.004,347.568,352.546,355.068,360.064,365.105,370.101,372.091,377.087,384.647,389.643,394.639,397.133,399.655,402.149,407.145,410.134,412.655,417.651,422.692,427.688,429.678,432.172,437.168,441.66,446.656,449.717,454.695,457.333,463.688,468.666,471.655,476.147,481.188,484.186,488.678,491.172" svgx:width="0.56,0.56,0.28,0.28,0.55,0.67,0.33,0.56,0.56,0.56,0.33,0.22,0.56,0.56,0.28,0.28,0.56,0.33,0.28,0.56,0.56,0.28,0.22,0.56,0.28,0.22,0.56,0.56,0.56,0.5,0.56,0.28,0.56,0.56,0.56,0.56,0.56,0.83,0.22,0.5,0.28,0.28,0.67,0.56,0.33,0.5,0.56,0.56,0.56,0.22,0.28,0.56,0.33,0.56,0.28,0.56,0.5,0.28,0.22,0.5,0.56,0.28,0.56,0.56,0.56,0.22,0.56,0.83,0.56,0.56,0.28,0.28,0.28,0.56,0.33,0.28,0.56,0.56,0.56,0.22,0.28,0.56,0.5,0.56,0.33,0.56,0.28,0.72,0.56,0.33,0.5,0.56,0.33,0.5,0.28,0.28" style="fill:rgb(0,0,0);font-family:ArialMT;font-size:9.0px;stroke:none;">10. Preparing for an influenza pandemic. Personal protective equipment for healthcare workers. </text>
   <text y="90.663" x="126.0,132.493,137.491,139.988,141.98,147.015,152.014,157.012,159.005,161.527,167.524,172.019,177.053,182.034,187.069,194.632,199.01,201.532,206.53,209.027,211.549,217.546,222.041,224.033,229.068,234.067,238.561,243.56,248.117,250.639,253.136,258.134,262.629,265.126,267.118,269.615,274.613,277.11,282.109,284.63,289.629,292.126,294.647,302.103,307.096,312.089,314.077,318.566,320.553,325.591,330.566,333.088,339.575,344.614,349.607,354.6,357.586,360.077,362.569,365.09,373.612,378.587,383.076,388.069,390.056,395.095,400.088,402.579,407.572,412.565,415.057,417.578,423.103,428.096,433.089,435.611,441.603,446.092,451.085,456.124,461.117,468.675,473.056,475.574,478.159,483.197,488.191,493.184,498.177,500.668,503.19" svgx:width="0.72,0.56,0.28,0.22,0.56,0.56,0.56,0.22,0.28,0.67,0.5,0.56,0.56,0.56,0.83,0.5,0.28,0.56,0.28,0.28,0.67,0.5,0.22,0.56,0.56,0.5,0.56,0.5,0.28,0.28,0.56,0.5,0.28,0.22,0.28,0.56,0.28,0.56,0.28,0.56,0.28,0.28,0.83,0.56,0.56,0.22,0.5,0.22,0.56,0.56,0.28,0.72,0.56,0.56,0.56,0.33,0.28,0.28,0.28,0.94,0.56,0.5,0.56,0.22,0.56,0.56,0.28,0.56,0.56,0.28,0.28,0.61,0.56,0.56,0.28,0.67,0.5,0.56,0.56,0.56,0.83,0.5,0.28,0.28,0.56,0.56,0.56,0.56,0.28,0.28,0.28" style="fill:rgb(0,0,0);font-family:ArialMT;font-size:9.0px;stroke:none;">National Academy of Sciences Institute of Medicine Report. Washington: The Academy; 2008. </text>
   <text y="101.04" x="108.0,112.993,117.986,120.564,123.08399999999999,126.029,132.021,137.014,142.007,147.046,152.039,159.525,161.512,166.001,168.523,174.515,176.503,181.541,186.579,191.554,193.541,198.58,203.573,206.095,212.087,216.576,221.065,226.058,233.545,238.538,241.029,243.07,248.063,253.057,257.546,260.037,262.559,269.046,275.038,277.56,284.047,289.04,294.079,299.054,302.112,304.63,312.116,317.11,322.103,324.594,327.116,332.109,334.6,337.122,343.609,348.602,353.596,355.583,358.074,363.112,365.634,370.627,375.62,380.614,383.135,389.623,394.616,402.174,407.167,412.16,414.682,420.737,425.712,428.699,433.188,435.175,439.664,444.657,449.147,451.668,454.16,458.649,460.636,463.127,468.12,473.114,475.635,480.674,485.667,490.66,495.653,498.175,504.167,509.205,514.199" svgx:width="0.56,0.56,0.28,0.28,0.55,0.67,0.56,0.56,0.56,0.56,0.83,0.22,0.5,0.28,0.67,0.22,0.56,0.56,0.56,0.22,0.56,0.56,0.28,0.67,0.5,0.5,0.56,0.83,0.56,0.28,0.22,0.56,0.56,0.5,0.28,0.28,0.72,0.67,0.28,0.72,0.56,0.56,0.56,0.33,0.28,0.83,0.56,0.56,0.28,0.28,0.56,0.28,0.28,0.72,0.56,0.56,0.22,0.28,0.56,0.28,0.56,0.56,0.56,0.28,0.72,0.56,0.83,0.56,0.56,0.28,0.67,0.56,0.33,0.5,0.22,0.5,0.56,0.5,0.28,0.28,0.5,0.22,0.28,0.56,0.56,0.28,0.56,0.56,0.56,0.56,0.28,0.67,0.56,0.56,0.28" style="fill:rgb(0,0,0);font-family:ArialMT;font-size:9.0px;stroke:none;">11. Pandemic Planning Assumptions. US Department of Health and Human Services [cited 2008 Sep </text>
   <text y="111.363" x="126.0,130.997,133.492,135.986,138.508,144.504,148.997,153.994,155.984,157.975,162.972,168.014,169.996,174.992,177.514,180.009,182.999,187.996,195.485" svgx:width="0.56,0.28,0.28,0.28,0.67,0.5,0.56,0.22,0.22,0.56,0.56,0.22,0.56,0.28,0.28,0.33,0.56,0.83,0.28" style="fill:rgb(0,0,0);font-family:ArialMT;font-size:9.0px;stroke:none;">5]. Available from </text>
   <text y="111.363" x="198.007,203.005,205.501,207.996,212.994,215.49,217.985,220.562,226.982,233.455,239.812,242.452,247.45,252.447,257.481,262.479,267.476,274.967,276.959,281.452,283.948,285.985,290.983,293.478,298.476,303.51,308.003,310.499,315.497,317.489,322.486,327.484,329.98,335.013,339.993,345.027,350.025,355.022,357.059,362.093,367.072,369.568,374.566,377.061,384.552" svgx:width="0.56,0.28,0.28,0.56,0.28,0.28,0.28,0.72,0.72,0.72,0.28,0.56,0.56,0.56,0.56,0.56,0.83,0.22,0.5,0.28,0.22,0.56,0.28,0.56,0.56,0.5,0.28,0.56,0.22,0.56,0.56,0.28,0.56,0.56,0.56,0.56,0.56,0.22,0.56,0.56,0.28,0.56,0.28,0.83,0.22" style="fill:rgb(0,51,101);font-family:ArialMT;font-size:9.0px;stroke:none;">http://www.pandemicflu.gov/plan/pandplan.html</text>
  </g>
  <g begin="text">
   <text y="111.36" x="386.58,389.102" svgx:width="0.28,0.28" style="fill:rgb(0,0,0);font-family:ArialMT;font-size:9.0px;stroke:none;"> </text>
   <text y="121.737" x="108.003,112.995,117.988,120.568,123.088,126.033,132.519,137.511,142.504,144.994,149.986,152.971,157.46,159.982,162.472,167.464,170.449,172.971,179.458,181.444,186.004,190.996,195.989,200.477,205.469,207.991,214.531,219.524,224.516,227.006,229.992,234.984,236.97,239.555,244.592,249.585,254.577,257.099,263.09,266.075,271.068,275.556,280.593,285.568,288.058,290.044,295.081,300.056,302.546,305.068,310.591,312.6,317.592,323.584,328.576,331.561,336.599,341.573,344.094,349.086,351.576,356.569,359.09,361.58,366.068,368.054,370.545,375.537,380.529,383.05,388.043,393.08,398.072,403.065,405.585,411.577,416.614,421.606,424.127,429.12,431.61,434.1,436.621,442.612,447.101,452.093,454.079,456.066,461.058,466.095,468.073,473.065,475.586,478.076,481.061,486.054,493.539" svgx:width="0.56,0.56,0.28,0.28,0.55,0.72,0.56,0.56,0.28,0.56,0.33,0.5,0.28,0.28,0.56,0.33,0.28,0.72,0.22,0.5,0.56,0.56,0.5,0.56,0.28,0.72,0.56,0.56,0.28,0.33,0.56,0.22,0.28,0.56,0.56,0.56,0.28,0.67,0.33,0.56,0.5,0.56,0.56,0.28,0.22,0.56,0.56,0.28,0.28,0.61,0.22,0.56,0.67,0.56,0.33,0.56,0.56,0.28,0.56,0.28,0.56,0.28,0.28,0.5,0.22,0.28,0.56,0.56,0.28,0.56,0.56,0.56,0.56,0.28,0.67,0.56,0.56,0.28,0.56,0.28,0.28,0.28,0.67,0.5,0.56,0.22,0.22,0.56,0.56,0.22,0.56,0.28,0.28,0.33,0.56,0.83,0.28" style="fill:rgb(0,0,0);font-family:ArialMT;font-size:9.0px;stroke:none;">12. Centers for Disease Control and Prevention. FluSurge 2.0 [cited 2008 Sep 5]. Available from </text>
   <text y="132.06" x="126.003,131.006,133.507,136.008,141.011,143.512,146.014,148.596,155.012,161.491,167.853,170.435,174.934,179.937,184.436,187.018,192.022,197.025,201.524,204.025,206.526,208.523,213.526,216.027,218.528,223.531,228.535,230.532,235.031,237.532,240.033,242.03,247.033,251.532,256.535,259.531,264.535" svgx:width="0.56,0.28,0.28,0.56,0.28,0.28,0.28,0.72,0.72,0.72,0.28,0.5,0.56,0.5,0.28,0.56,0.56,0.5,0.28,0.28,0.22,0.56,0.28,0.28,0.56,0.56,0.22,0.5,0.28,0.28,0.22,0.56,0.5,0.56,0.33,0.56,0.56" style="fill:rgb(0,51,101);font-family:ArialMT;font-size:9.0px;stroke:none;">http://www.cdc.gov/flu/tools/flusurge</text>
  </g>
  <g begin="text">
   <text y="132.06" x="269.52,272.042" svgx:width="0.28,0.28" style="fill:rgb(0,0,0);font-family:ArialMT;font-size:9.0px;stroke:none;"> </text>
   <text y="142.437" x="107.997,112.991,117.985,120.567,123.08699999999999,126.032,132.025,134.013,139.007,144.046,149.041,151.029,153.55,158.041,164.529,167.021,169.543,176.031,181.025,183.067,188.061,193.055,198.094,203.088,206.075,208.567,211.089,217.082,219.574,222.096,226.586,231.58,236.071,240.561,245.051,250.045,255.039,257.561,265.048,267.54,270.062,276.55,281.544,283.532,288.526,291.585,296.561,298.549,300.591,305.586,308.04,313.033,315.524,318.046,323.039,328.033,333.026,335.548,338.039,343.032,348.025,350.547,357.088,362.081,367.075,369.062,371.553,376.546,381.107,386.083,389.069,394.062,396.584,399.075,404.068,406.559,411.553,416.114,418.632,420.619,425.612,430.606,433.127,439.615,444.653,449.646,452.137,455.123,460.117,462.104,464.626,470.618,473.676,478.669,483.158,485.65,487.637,492.126,497.119,501.608" svgx:width="0.56,0.56,0.28,0.28,0.55,0.67,0.22,0.56,0.56,0.56,0.22,0.28,0.5,0.72,0.28,0.28,0.72,0.56,0.22,0.56,0.56,0.56,0.56,0.33,0.28,0.28,0.67,0.28,0.28,0.5,0.56,0.5,0.5,0.5,0.56,0.56,0.28,0.83,0.28,0.28,0.72,0.56,0.22,0.56,0.33,0.56,0.22,0.22,0.56,0.28,0.56,0.28,0.28,0.56,0.56,0.56,0.28,0.28,0.56,0.56,0.28,0.72,0.56,0.56,0.22,0.28,0.56,0.5,0.56,0.33,0.56,0.28,0.28,0.56,0.28,0.56,0.5,0.28,0.22,0.56,0.56,0.28,0.72,0.56,0.56,0.28,0.33,0.56,0.22,0.28,0.67,0.33,0.56,0.5,0.28,0.22,0.5,0.56,0.5,0.28" style="fill:rgb(0,0,0);font-family:ArialMT;font-size:9.0px;stroke:none;">13. Siegel JD, Rhinehart E, Jackson M, Chiarello L, and the Healthcare Infection Control Practices </text>
   <text y="152.76" x="125.997,131.996,136.997,141.493,143.488,147.984,152.984,156.041,160.483,163.005,169.499,174.5,182.056,189.559,191.553,194.051,196.55,201.55,206.551,209.072,215.567,220.567,225.568,227.517,230.01,235.005,239.568,244.545,247.533,252.528,255.05,257.543,262.538,265.031,270.026,274.517,277.01,278.999,283.994,288.989,291.482,294.004,300.538,305.515,313.003,320.491,322.48,324.973,327.466,332.461,337.456,339.977,346.466,352.46,358.454,361.039,364.027,370.516,373.009,379.498,385.492,391.486,397.975,400.963,403.456,405.978,410.973,415.968,421.008,426.003,428.525,433.52,438.515,440.549,445.544,450.539,452.573,454.562,459.602,464.597,469.088,471.61,474.103,479.098,482.086,484.607,486.596,491.087,496.082,498.071,503.066,505.559,507.594,512.589,517.583" svgx:width="0.67,0.56,0.5,0.22,0.5,0.56,0.33,0.5,0.28,0.72,0.56,0.83,0.83,0.22,0.28,0.28,0.56,0.56,0.28,0.72,0.56,0.56,0.22,0.28,0.56,0.5,0.56,0.33,0.56,0.28,0.28,0.56,0.28,0.56,0.5,0.28,0.22,0.56,0.56,0.28,0.28,0.72,0.56,0.83,0.83,0.22,0.28,0.28,0.56,0.56,0.28,0.72,0.67,0.67,0.28,0.33,0.72,0.28,0.72,0.67,0.67,0.72,0.33,0.28,0.28,0.56,0.56,0.56,0.56,0.28,0.56,0.56,0.22,0.56,0.56,0.22,0.22,0.56,0.56,0.5,0.28,0.28,0.56,0.33,0.28,0.22,0.5,0.56,0.22,0.56,0.28,0.22,0.56,0.56,0.28" style="fill:rgb(0,0,0);font-family:ArialMT;font-size:9.0px;stroke:none;">Advisory Committee Healthcare Infection, Committee CPA (HICPAC). 2007 guidelines for isolation </text>
   <text y="163.137" x="125.997,130.992,133.98,138.975,143.466,148.506,153.483,155.976,157.965,162.96,167.955,172.446,174.939,177.462,182.457,185.517,190.512,195.003,199.998,204.993,207.486,209.529,214.524,219.519,222.041,224.534,227.522,232.517,237.512,242.075,249.563,251.552,256.043,260.534,262.523,267.518,272.513,275.099,280.094,282.587,285.11,287.099,292.094,294.587,299.627,304.118,306.611,308.6,313.595,318.59,323.045,325.567,330.562,335.602,340.597,345.592,348.085,352.576,355.099,357.142,362.119,364.642,369.637,374.632,379.672,381.661,384.154,389.149,393.64,398.635,401.695,406.69,409.213,413.704,418.699,421.192,423.685,425.674,430.669,435.664,440.155,442.648,445.17,453.693,458.67,463.161,468.156,470.199,475.194,480.189,482.682,487.677,492.672,495.165,497.688,503.268,508.263,513.258" svgx:width="0.56,0.33,0.56,0.5,0.56,0.56,0.28,0.22,0.56,0.56,0.5,0.28,0.28,0.56,0.33,0.56,0.5,0.56,0.56,0.28,0.22,0.56,0.56,0.28,0.28,0.33,0.56,0.56,0.5,0.83,0.22,0.5,0.5,0.22,0.56,0.56,0.28,0.56,0.28,0.28,0.22,0.56,0.28,0.56,0.5,0.28,0.22,0.56,0.56,0.5,0.28,0.56,0.56,0.56,0.56,0.28,0.5,0.28,0.22,0.56,0.28,0.56,0.56,0.56,0.22,0.28,0.56,0.5,0.56,0.33,0.56,0.28,0.5,0.56,0.28,0.28,0.22,0.56,0.56,0.5,0.28,0.28,0.94,0.56,0.5,0.56,0.22,0.56,0.56,0.28,0.56,0.56,0.28,0.28,0.61,0.56,0.56,0.28" style="fill:rgb(0,0,0);font-family:ArialMT;font-size:9.0px;stroke:none;">precautions: preventing transmission of infectious agents in healthcare settings. Washington: The </text>
   <text y="173.46" x="125.997,132.49,137.488,144.98,152.471,154.464,156.961,159.457,164.456,169.454,171.951,174.473,179.471,184.506,189.505,194.503,197.0,199.522" svgx:width="0.72,0.56,0.83,0.83,0.22,0.28,0.28,0.56,0.56,0.28,0.28,0.56,0.56,0.56,0.56,0.28,0.28,0.28" style="fill:rgb(0,0,0);font-family:ArialMT;font-size:9.0px;stroke:none;">Committee; 2007. </text>
   <text y="183.837" x="107.997,112.987,117.978,120.556,123.076,126.021,132.506,137.496,142.487,147.045,152.036,157.026,159.065,161.049,163.034,165.612,169.991,172.576,177.566,180.055,182.576,185.065,190.055,194.542,199.532,207.016,212.006,216.493,220.979,225.466,227.988,233.023,238.005,240.988,243.027,248.017,253.008,255.529,260.52,265.51,268.032,270.071,275.052,277.541,279.525,284.561,289.551,294.542,299.028,304.064,306.6,311.593,316.586,321.58,326.618,331.611,339.097,341.084,345.574,348.065,350.587,356.075,361.068,365.557,367.544,372.538,377.531,380.053,382.544,387.537,392.53,395.052,397.543,399.53,404.524,407.015,409.537,416.078,421.116,423.607,425.594,430.588,435.581,440.619,442.606,445.128,451.12,455.609,460.603,465.641,470.634,478.12,482.555,485.077,490.07,492.562" svgx:width="0.56,0.56,0.28,0.28,0.55,0.72,0.56,0.56,0.5,0.56,0.56,0.22,0.22,0.22,0.28,0.5,0.28,0.56,0.28,0.28,0.28,0.56,0.5,0.56,0.83,0.56,0.5,0.5,0.5,0.28,0.56,0.56,0.33,0.22,0.56,0.56,0.28,0.56,0.56,0.28,0.22,0.56,0.28,0.22,0.56,0.56,0.56,0.5,0.56,0.28,0.56,0.56,0.56,0.56,0.56,0.83,0.22,0.5,0.28,0.28,0.61,0.56,0.5,0.22,0.56,0.56,0.28,0.28,0.56,0.56,0.28,0.28,0.22,0.56,0.28,0.28,0.72,0.56,0.28,0.22,0.56,0.56,0.56,0.22,0.28,0.67,0.5,0.56,0.56,0.56,0.83,0.5,0.28,0.56,0.28,0.28" style="fill:rgb(0,0,0);font-family:ArialMT;font-size:9.0px;stroke:none;">14. Reusability of facemasks during an influenza pandemic. Facing the flu. National Academy of </text>
   <text y="194.16" x="125.997,131.992,136.484,138.474,143.47,148.465,153.029,158.025,162.517,165.039,167.533,172.529,177.021,179.515,181.504,183.998,188.994,191.488,196.484,199.006,204.002,206.496,209.017,216.506,221.502,226.498,228.488,232.98,235.015,240.011,245.052,247.573,254.04,259.034,264.028,269.022,272.009,274.501,276.994,279.515,288.038,293.014,297.504,302.498,304.54,309.534,314.528,317.02,322.014,327.008,329.501,332.022,337.601,342.596,347.59,350.111,356.105,360.595,365.589,370.583,375.577,383.136,387.518,390.037,392.622,397.616,402.61,407.649,412.644,415.136,417.657" svgx:width="0.67,0.5,0.22,0.56,0.56,0.5,0.56,0.5,0.28,0.28,0.56,0.5,0.28,0.22,0.28,0.56,0.28,0.56,0.28,0.56,0.28,0.28,0.83,0.56,0.56,0.22,0.5,0.22,0.56,0.56,0.28,0.72,0.56,0.56,0.56,0.33,0.28,0.28,0.28,0.94,0.56,0.5,0.56,0.22,0.56,0.56,0.28,0.56,0.56,0.28,0.28,0.61,0.56,0.56,0.28,0.67,0.5,0.56,0.56,0.56,0.83,0.5,0.28,0.28,0.56,0.56,0.56,0.56,0.28,0.28,0.28" style="fill:rgb(0,0,0);font-family:ArialMT;font-size:9.0px;stroke:none;">Sciences Institute of Medicine Report. Washington: The Academy; 2006. </text>
   <text y="204.537" x="107.997,112.996,117.994,120.572,123.092,126.037,133.033,138.032,143.03,145.527,150.022,154.516,159.515,161.507,164.029,171.026,177.023,179.52,182.042,188.534,193.533,198.568,203.548,208.043,212.537,217.536,220.058,226.55,229.047,231.569,238.061,243.096,245.089,250.087,255.086,257.608,264.604,267.101,269.623,275.116,280.115,282.107,284.208,290.566,295.6,300.635,305.615,308.607,311.129,317.621,320.118" svgx:width="0.56,0.56,0.28,0.28,0.55,0.78,0.56,0.56,0.28,0.5,0.5,0.56,0.22,0.28,0.78,0.67,0.28,0.28,0.72,0.56,0.56,0.56,0.5,0.5,0.56,0.28,0.72,0.28,0.28,0.72,0.56,0.22,0.56,0.56,0.28,0.78,0.28,0.28,0.61,0.56,0.22,0.22,0.72,0.56,0.56,0.56,0.33,0.28,0.72,0.28,0.28" style="fill:rgb(0,0,0);font-family:ArialMT;font-size:9.0px;stroke:none;">15. Gautschi OP, Cadosch D, Rajan G, Zellweger R. </text>
   <text y="204.537" x="322.62,328.612,333.605,336.592,339.083,344.076,349.069,354.062,359.101,363.59,368.583,373.072,375.594,380.587,385.58,390.574,393.095,395.587,398.573,403.566,408.559,416.117,421.111,423.602,426.124,429.11,434.103,438.592,440.579,445.681,452.042,454.564,459.557,462.048,464.57,467.061,470.047,472.034,477.073,482.066,487.059,489.581,494.574,499.612,504.605" svgx:width="0.67,0.56,0.33,0.28,0.56,0.56,0.56,0.56,0.5,0.56,0.5,0.28,0.56,0.56,0.56,0.28,0.28,0.33,0.56,0.56,0.83,0.56,0.28,0.28,0.33,0.56,0.5,0.22,0.56,0.72,0.28,0.56,0.28,0.28,0.28,0.33,0.22,0.56,0.56,0.56,0.28,0.56,0.56,0.56,0.28" style="fill:rgb(0,51,101);font-family:ArialMT;font-size:9.0px;stroke:none;">Earthquakes and trauma: review of triage and </text>
  </g>
  <g begin="text">
   <text y="214.86" x="126.0,127.987,132.98,134.968,139.961,143.019,147.463,150.449,155.011,160.004,164.997,169.558,171.545,174.037,176.024,180.513,183.004,185.527,187.514,195.0,202.486,207.48,212.473,214.514,219.507,221.998,226.992,229.514,234.004,238.997,242.055,247.03" svgx:width="0.22,0.56,0.22,0.56,0.33,0.5,0.33,0.5,0.56,0.56,0.5,0.22,0.28,0.22,0.5,0.28,0.28,0.22,0.83,0.83,0.56,0.56,0.22,0.56,0.28,0.56,0.28,0.5,0.56,0.33,0.56,0.28" style="fill:rgb(0,51,101);font-family:ArialMT;font-size:9.0px;stroke:none;">injury-specific, immediate care.</text>
  </g>
  <g begin="text">
   <text y="214.86" x="249.54,252.062,258.057,261.046,266.042,271.037,276.033,280.525,285.521,288.043,294.578,296.559,301.123,306.101,310.592,313.086,318.082,321.071,323.593,331.082,336.078,341.074,343.568,346.089,351.085,356.126,361.167,366.145,368.639,373.635,378.631,381.125,386.121,391.161,396.157,401.198,406.194,411.235,416.231,418.725,421.247" svgx:width="0.28,0.67,0.33,0.56,0.56,0.56,0.5,0.56,0.28,0.72,0.22,0.5,0.56,0.5,0.28,0.56,0.33,0.28,0.83,0.56,0.56,0.28,0.28,0.56,0.56,0.56,0.56,0.28,0.56,0.56,0.28,0.56,0.56,0.56,0.56,0.56,0.56,0.56,0.28,0.28,0.28" style="fill:rgb(0,0,0);font-family:ArialMT;font-size:9.0px;stroke:none;"> Prehosp Disaster Med. 2008;23:195–201. </text>
   <text y="225.237" x="107.997,112.994,117.991,120.575,123.095,126.04,134.565,139.544,142.039,144.533,149.53,154.527,159.623,165.979,171.02,173.011,175.506,180.503,185.545,190.541,195.034,200.031,205.073,207.064,209.585,216.076,218.571,221.093,227.089,232.085,237.082,241.575,246.617,251.11,255.602,258.124,264.12,268.613,271.108,273.629,278.122,280.113,282.608,287.605,290.594,295.591,298.086,303.083,308.08,315.569,318.091,324.087,326.58,329.039,334.616,339.113,344.106,349.098,354.09,361.576,363.616,366.138,368.124,373.116,375.638,381.215,386.208,391.2,393.186,395.173,400.165,405.157,410.15,412.64,415.162,420.199,422.239,426.728,431.72,436.208,438.698,443.691,446.676,449.198,456.683,461.675,466.668,471.705,476.697,481.735,489.22,494.212,499.205,501.695,504.217,506.203,511.195,513.717,518.709" svgx:width="0.56,0.56,0.28,0.28,0.55,0.94,0.56,0.28,0.28,0.56,0.56,0.56,0.72,0.56,0.22,0.28,0.56,0.56,0.56,0.5,0.56,0.56,0.22,0.28,0.72,0.28,0.28,0.67,0.56,0.56,0.5,0.56,0.5,0.5,0.28,0.67,0.5,0.28,0.28,0.5,0.22,0.28,0.56,0.33,0.56,0.28,0.56,0.56,0.83,0.28,0.67,0.28,0.28,0.61,0.5,0.56,0.56,0.56,0.83,0.22,0.28,0.22,0.56,0.28,0.61,0.56,0.56,0.22,0.22,0.56,0.56,0.56,0.28,0.28,0.56,0.22,0.5,0.56,0.5,0.28,0.56,0.33,0.28,0.83,0.56,0.56,0.56,0.56,0.56,0.83,0.56,0.56,0.28,0.28,0.22,0.56,0.28,0.56,0.28" style="fill:rgb(0,0,0);font-family:ArialMT;font-size:9.0px;stroke:none;">16. Wattanawaitunechai C, Peacock SJ, Jitpratoom P. Tsunami in Thailand: disaster management in a </text>
   <text y="235.56" x="125.997,130.992,132.981,137.472,139.965,142.953,144.942,149.433,151.926,154.448,159.443,164.438,168.929,173.969,175.949,178.442,183.437,185.471,187.991,190.513,197.002,199.523,205.517,210.512,215.507,217.496,220.018,224.509,227.031,234.519,239.514,244.554,247.074,249.596,254.591,259.586,264.581,269.576,272.069,277.109,282.104,287.099,289.592,294.587,299.627,304.667,309.662,314.657" svgx:width="0.56,0.22,0.5,0.28,0.33,0.22,0.5,0.28,0.28,0.56,0.56,0.5,0.56,0.22,0.28,0.56,0.22,0.28,0.28,0.72,0.28,0.67,0.56,0.56,0.22,0.28,0.5,0.28,0.83,0.56,0.56,0.28,0.28,0.56,0.56,0.56,0.56,0.28,0.56,0.56,0.56,0.28,0.56,0.56,0.56,0.56,0.56,0.28" style="fill:rgb(0,0,0);font-family:ArialMT;font-size:9.0px;stroke:none;">district hospital. N Engl J Med. 2005;352:962–4.</text>
   <text y="235.56" x="317.094,319.616,325.612,330.61,335.608,343.099,348.132" svgx:width="0.28,0.67,0.56,0.56,0.83,0.56,0.56" style="fill:rgb(0,51,101);font-family:ArialMT;font-size:9.0px;stroke:none;"> PubMed</text>
  </g>
  <g begin="text">
   <text y="235.56" x="353.1" svgx:width="0.28" style="fill:rgb(0,0,0);font-family:ArialMT;font-size:9.0px;stroke:none;"> </text>
   <text y="235.56" x="355.62,362.149,369.181" svgx:width="0.72,0.78,0.28" style="fill:rgb(0,51,101);font-family:ArialMT;font-size:9.0px;stroke:none;">DOI</text>
  </g>
  <g begin="text">
   <text y="235.56" x="371.64,374.162" svgx:width="0.28,0.28" style="fill:rgb(0,0,0);font-family:ArialMT;font-size:9.0px;stroke:none;"> </text>
   <text y="245.937" x="108.003,112.996,117.989,120.571,123.091,126.035,132.028,134.015,139.008,143.497,148.112,154.474,159.512,161.499,163.486,166.008,171.586,174.104,176.626,182.618,187.612,192.101,196.59,201.583,204.105,211.591,214.082,216.604,223.091,227.581,232.574,235.096,240.089,242.58,245.102,250.095,255.088,257.61,259.597,264.59,269.629,274.604,279.093,284.086,286.577,288.565,293.126,298.101,300.623,305.616,310.609,315.098,317.14,322.133,327.126,329.648,337.134,342.127,347.165,349.144,351.185,356.16,358.682,363.675,368.668,373.157,378.195,380.174,382.665,387.658,389.645,392.167,394.154,399.148,401.669,404.161,409.199,414.192,416.714,424.2,429.193,434.186,436.174,440.735,445.71,447.697,450.219,453.205,458.198,462.688,467.726,472.719,477.757,482.246,487.24,489.761,492.253,497.246" svgx:width="0.56,0.56,0.28,0.28,0.55,0.67,0.22,0.56,0.5,0.5,0.72,0.56,0.22,0.22,0.28,0.61,0.28,0.28,0.67,0.56,0.5,0.5,0.56,0.28,0.83,0.28,0.28,0.72,0.5,0.56,0.28,0.56,0.28,0.28,0.56,0.56,0.28,0.22,0.56,0.56,0.56,0.5,0.56,0.28,0.22,0.5,0.56,0.28,0.56,0.56,0.5,0.22,0.56,0.56,0.28,0.83,0.56,0.56,0.22,0.22,0.56,0.28,0.56,0.56,0.5,0.56,0.22,0.28,0.56,0.22,0.28,0.22,0.56,0.28,0.28,0.56,0.56,0.28,0.83,0.56,0.56,0.22,0.5,0.56,0.22,0.28,0.33,0.56,0.5,0.56,0.56,0.56,0.5,0.56,0.28,0.28,0.56,0.28" style="fill:rgb(0,0,0);font-family:ArialMT;font-size:9.0px;stroke:none;">17. Blackwell T, Bosse M. Use of an innovative design mobile hospital in the medical response to </text>
   <text y="256.26" x="126.003,132.487,137.476,140.459,143.441,145.425,149.911,154.945,159.935,164.924,167.446,173.435,178.424,180.912,183.895,185.932,190.922,195.911,198.399,200.921,206.909,211.899,216.889,219.41,225.399,232.882,237.871,240.935,245.969,248.491,255.974,260.963,265.953,268.441,270.962,275.952,280.942,285.931,290.921,293.498,298.488,303.478,306.055,311.045,316.034,321.069,326.059,331.048" svgx:width="0.72,0.56,0.33,0.33,0.22,0.5,0.56,0.56,0.56,0.28,0.67,0.56,0.28,0.33,0.22,0.56,0.56,0.28,0.28,0.67,0.56,0.56,0.28,0.67,0.83,0.56,0.33,0.56,0.28,0.83,0.56,0.56,0.28,0.28,0.56,0.56,0.56,0.56,0.28,0.56,0.56,0.28,0.56,0.56,0.56,0.56,0.56,0.28" style="fill:rgb(0,0,0);font-family:ArialMT;font-size:9.0px;stroke:none;">Hurricane Katrina. Ann Emerg Med. 2007;49:580–8.</text>
   <text y="256.26" x="333.606,336.128,342.119,347.111,352.104,359.661,364.698" svgx:width="0.28,0.67,0.56,0.56,0.83,0.56,0.56" style="fill:rgb(0,51,101);font-family:ArialMT;font-size:9.0px;stroke:none;"> PubMed</text>
  </g>
  <g begin="text">
   <text y="256.26" x="369.66" svgx:width="0.28" style="fill:rgb(0,0,0);font-family:ArialMT;font-size:9.0px;stroke:none;"> </text>
   <text y="256.26" x="372.18,378.678,385.68" svgx:width="0.72,0.78,0.28" style="fill:rgb(0,51,101);font-family:ArialMT;font-size:9.0px;stroke:none;">DOI</text>
  </g>
  <g begin="text">
   <text y="256.26" x="388.2,390.722" svgx:width="0.28,0.28" style="fill:rgb(0,0,0);font-family:ArialMT;font-size:9.0px;stroke:none;"> </text>
   <text y="266.637" x="108.003,112.999,117.995,120.579,123.09899999999999,126.044,132.038,134.028,136.018,140.636,146.991,152.032,157.028,162.024,164.546,172.034,174.528,177.05,183.045,185.08,187.574,192.57,195.559,200.555,205.55,208.072,212.564,215.058,220.054,225.05,230.091,235.087,238.076,243.116,247.617,250.139,255.135,257.629,260.151,264.643,269.639,272.627,277.623,280.145,282.135,287.131,289.653,297.142,302.183,306.674,311.166,313.626,318.114,323.107,327.595,332.587,337.58,339.566,342.146,346.589,349.111,354.104,358.664,363.656,368.648,371.139,375.627,378.117,380.639,387.125,392.118,397.11,402.102,404.683,409.675,412.66,415.182,420.174,422.665,425.186,430.71,433.713,438.705,446.191,451.228,457.588,462.626,465.629,470.117,472.639,477.631,482.624,487.616,490.138,495.175,500.149,502.19,507.164,509.15,514.188,519.18" svgx:width="0.56,0.56,0.28,0.28,0.55,0.67,0.22,0.22,0.5,0.72,0.56,0.56,0.56,0.28,0.83,0.28,0.28,0.67,0.22,0.28,0.56,0.33,0.56,0.56,0.28,0.5,0.28,0.56,0.56,0.56,0.56,0.33,0.56,0.5,0.28,0.56,0.28,0.28,0.5,0.56,0.33,0.56,0.28,0.22,0.56,0.28,0.83,0.56,0.5,0.5,0.28,0.5,0.56,0.5,0.56,0.56,0.22,0.28,0.5,0.28,0.56,0.5,0.56,0.56,0.28,0.5,0.28,0.28,0.72,0.56,0.56,0.56,0.28,0.56,0.33,0.28,0.56,0.28,0.28,0.61,0.33,0.56,0.83,0.56,0.72,0.56,0.33,0.5,0.28,0.56,0.56,0.56,0.28,0.56,0.56,0.22,0.56,0.22,0.56,0.56,0.28" style="fill:rgb(0,0,0);font-family:ArialMT;font-size:9.0px;stroke:none;">18. Allswede M. Altered standards of care in mass casualty events. Chapter 3. Framework and guiding </text>
   <text y="276.96" x="126.003,130.995,133.981,135.967,140.959,145.448,147.488,152.48,154.52,159.513,164.001,166.64,173.0,177.983,183.021,188.004,190.526,195.518,197.504,202.542,207.534,212.526,214.567,219.559,224.551,227.073,229.563,234.556,237.541,240.126,245.118,250.11,255.148,257.134,259.624,264.616,267.138,272.131,277.168,282.16,284.682,292.167,297.205,302.197,304.183,308.672,313.664,315.65,318.172,322.732,327.716,330.701,335.693,338.215,340.201,345.194,347.715,352.708,355.292,362.778,367.77,372.258,376.747,379.268,383.757,388.749,393.237,398.23,403.267,405.244,407.825,412.205,414.79,419.782,424.27,429.263,434.255,436.745,439.267,441.757,446.246,448.232,450.722,455.714,460.707,463.229,468.266,473.303,478.296,483.288,485.81,491.801,496.793,501.786,504.307,509.3,511.79,514.28" svgx:width="0.56,0.33,0.22,0.56,0.5,0.22,0.56,0.22,0.56,0.5,0.28,0.72,0.56,0.56,0.56,0.28,0.56,0.22,0.56,0.56,0.56,0.22,0.56,0.56,0.28,0.28,0.56,0.33,0.28,0.56,0.56,0.56,0.22,0.28,0.56,0.28,0.56,0.56,0.56,0.28,0.83,0.56,0.56,0.22,0.5,0.56,0.22,0.28,0.5,0.56,0.33,0.56,0.28,0.22,0.56,0.28,0.56,0.28,0.83,0.56,0.5,0.5,0.28,0.5,0.56,0.5,0.56,0.56,0.22,0.28,0.5,0.28,0.56,0.5,0.56,0.56,0.28,0.28,0.28,0.5,0.22,0.28,0.56,0.56,0.28,0.56,0.56,0.56,0.56,0.28,0.67,0.56,0.56,0.28,0.56,0.28,0.28,0.28" style="fill:rgb(0,0,0);font-family:ArialMT;font-size:9.0px;stroke:none;">principles when planning for health and medical care in a mass casualty event [cited 2008 Sep 5]. </text>
   <text y="287.337" x="126.003,131.993,136.479,141.47,143.454,145.493,150.483,155.474,157.512,162.503,165.024,167.513,170.496,175.487,182.97" svgx:width="0.67,0.5,0.56,0.22,0.22,0.56,0.56,0.22,0.56,0.28,0.28,0.33,0.56,0.83,0.28" style="fill:rgb(0,0,0);font-family:ArialMT;font-size:9.0px;stroke:none;">Available from </text>
   <text y="287.337" x="185.52,190.521,193.021,195.52,200.521,203.021,205.52,208.1,214.514,220.992,227.352,229.932,234.97,239.944,243.001,247.976,250.475,255.476,260.477,264.975,267.474,270.468,275.47,279.967,285.004,289.979,292.973,297.47,302.508,305.025,310.026,312.021,314.521,319.018,321.517,326.519,331.52,336.521,339.021,344.022,346.017,348.516,353.014,355.513,360.55,365.552,370.553,375.554,378.054,383.055,385.554" svgx:width="0.56,0.28,0.28,0.56,0.28,0.28,0.28,0.72,0.72,0.72,0.28,0.56,0.56,0.33,0.56,0.28,0.56,0.56,0.5,0.28,0.33,0.56,0.5,0.56,0.56,0.33,0.5,0.56,0.28,0.56,0.22,0.28,0.5,0.28,0.56,0.56,0.56,0.28,0.56,0.22,0.28,0.5,0.28,0.56,0.56,0.56,0.56,0.28,0.56,0.28,0.83" style="fill:rgb(0,51,101);font-family:ArialMT;font-size:9.0px;stroke:none;">http://www.ahrq.gov/research/altstand/altstand3.htm</text>
  </g>
  <g begin="text">
   <text y="287.34" x="393.06,395.582" svgx:width="0.28,0.28" style="fill:rgb(0,0,0);font-family:ArialMT;font-size:9.0px;stroke:none;"> </text>
   <text y="297.663" x="108.003,112.998,117.993,120.576,123.09599999999999,126.041,131.621,136.598,138.587,146.075,151.07,154.058,156.58,163.069,165.562,168.083,172.574,177.569,182.564,187.559,192.05,194.572,200.566,206.56,209.053,211.575,218.064,223.059,228.054,230.043,235.038,239.601,244.596,249.591,252.113,257.108,259.601,262.123,268.612,273.706,280.06,285.1,287.089,289.078,291.599,299.159,305.639,308.132,310.654,316.56,321.553,326.546,331.54,333.527,336.585,341.56,344.082,350.569,353.06,355.552,358.073,364.066,366.053,373.539,378.532,380.519,385.513,388.034,390.526,393.512,395.553,400.546,405.539,410.533,413.054,417.616,422.114,427.107,430.093,432.08,437.119,442.112,444.634,449.195,453.576,458.065,460.556,465.55,473.036,475.621,480.614,483.6,488.593,493.631,495.619,500.108,502.599,504.586,509.579,514.573" svgx:width="0.56,0.56,0.28,0.28,0.55,0.61,0.56,0.22,0.83,0.56,0.33,0.28,0.72,0.28,0.28,0.5,0.56,0.56,0.56,0.5,0.28,0.67,0.67,0.28,0.28,0.72,0.56,0.56,0.22,0.56,0.5,0.56,0.56,0.28,0.56,0.28,0.28,0.72,0.56,0.72,0.56,0.22,0.22,0.28,0.83,0.72,0.28,0.28,0.67,0.56,0.56,0.56,0.22,0.33,0.56,0.28,0.72,0.28,0.28,0.28,0.67,0.22,0.83,0.56,0.22,0.56,0.28,0.28,0.33,0.22,0.56,0.56,0.56,0.28,0.5,0.5,0.56,0.33,0.22,0.56,0.56,0.28,0.5,0.5,0.5,0.28,0.56,0.83,0.28,0.56,0.33,0.56,0.56,0.22,0.5,0.28,0.22,0.56,0.56,0.28" style="fill:rgb(0,0,0);font-family:ArialMT;font-size:9.0px;stroke:none;">19. Talmor D, Jones AE, Rubinson L, Howell MD, Shapiro NI. Simple triage scoring system predicting </text>
   <text y="308.04" x="126.003,130.996,135.989,140.983,143.474,148.467,150.99,156.028,161.021,166.014,168.537,171.028,176.021,181.015,183.6,188.593,193.587,198.625,203.618,206.141,208.632,213.625,216.611,219.134,223.623,226.609,228.597,231.088,233.075,237.564,242.557,244.599,247.121,251.611,256.604,259.59,264.583,267.106,270.092,275.085,279.574,284.568,289.561,292.547,297.108,302.106,306.597,309.119,311.612,316.607,319.595,322.117,327.112,331.603,336.598,339.119,344.114,349.109,352.097,354.086,359.126,364.121,366.643,371.638,376.633,378.667,383.662,388.657,396.145,398.134,402.625,407.116,409.609,412.131,418.665,421.662,423.651,426.144,428.666,435.155,440.15,443.138,448.133,450.655,458.143,463.138,468.133,470.626" svgx:width="0.56,0.56,0.56,0.28,0.56,0.28,0.56,0.56,0.56,0.28,0.28,0.56,0.56,0.28,0.56,0.56,0.56,0.56,0.28,0.28,0.56,0.33,0.28,0.5,0.33,0.22,0.28,0.22,0.5,0.56,0.22,0.28,0.5,0.56,0.33,0.56,0.28,0.33,0.56,0.5,0.56,0.56,0.33,0.5,0.56,0.5,0.28,0.28,0.56,0.33,0.28,0.56,0.5,0.56,0.28,0.56,0.56,0.33,0.22,0.56,0.56,0.28,0.56,0.56,0.22,0.56,0.56,0.83,0.22,0.5,0.5,0.28,0.28,0.72,0.33,0.22,0.28,0.28,0.72,0.56,0.33,0.56,0.28,0.83,0.56,0.56,0.28,0.28" style="fill:rgb(0,0,0);font-family:ArialMT;font-size:9.0px;stroke:none;">death and the need for critical care resources for use during epidemics. Crit Care Med. </text>
   <text y="318.363" x="126.003,130.993,135.982,141.017,146.006,148.494,153.484,158.473,160.961,165.995,170.976,176.011,180.991,186.026,191.006" svgx:width="0.56,0.56,0.56,0.56,0.28,0.56,0.56,0.28,0.56,0.56,0.56,0.56,0.56,0.56,0.28" style="fill:rgb(0,0,0);font-family:ArialMT;font-size:9.0px;stroke:none;">2007;35:1251–6.</text>
   <text y="318.363" x="193.566,196.088,202.079,207.071,212.064,219.549,224.541" svgx:width="0.28,0.67,0.56,0.56,0.83,0.56,0.56" style="fill:rgb(0,51,101);font-family:ArialMT;font-size:9.0px;stroke:none;"> PubMed</text>
  </g>
  <g begin="text">
   <text y="318.36" x="229.5" svgx:width="0.28" style="fill:rgb(0,0,0);font-family:ArialMT;font-size:9.0px;stroke:none;"> </text>
   <text y="318.36" x="232.02,238.498,245.579" svgx:width="0.72,0.78,0.28" style="fill:rgb(0,51,101);font-family:ArialMT;font-size:9.0px;stroke:none;">DOI</text>
  </g>
  <g begin="text">
   <text y="318.36" x="248.1,250.622" svgx:width="0.28,0.28" style="fill:rgb(0,0,0);font-family:ArialMT;font-size:9.0px;stroke:none;"> </text>
   <text y="328.737" x="107.997,112.991,117.985,120.567,123.08699999999999,126.032,131.611,136.605,141.599,146.593,149.581,152.102,158.096,160.588,163.046,171.568,176.545,178.533,183.572,188.566,193.56,196.547,201.541,204.063,210.551,213.043,215.565,224.087,229.081,234.075,236.567,239.089,244.128,249.104,253.594,258.589,260.577,263.069,268.108,270.087,274.577,277.099,281.589,286.583,291.622,296.598,298.586,303.626,306.114,311.106,316.099,318.62,321.111,326.103,328.625,333.617,336.602,341.595,346.632,351.624,354.61,359.602,362.124,364.614,369.606,372.592,375.113,380.106,385.098,387.62,389.606,394.598,397.089,399.129,404.121,409.159,414.151,418.639,423.677,426.198,431.191,436.183,441.175,446.213,451.205,458.69,460.677,465.165,467.655,470.177,476.168,478.155,483.192,487.689,492.681,497.17,502.162,505.147" svgx:width="0.56,0.56,0.28,0.28,0.55,0.61,0.56,0.56,0.56,0.33,0.28,0.67,0.28,0.28,0.94,0.56,0.22,0.56,0.56,0.56,0.33,0.56,0.28,0.72,0.28,0.28,0.94,0.56,0.56,0.28,0.28,0.56,0.56,0.5,0.56,0.22,0.28,0.56,0.22,0.5,0.28,0.5,0.56,0.56,0.56,0.22,0.56,0.28,0.56,0.56,0.28,0.28,0.56,0.28,0.56,0.33,0.56,0.56,0.56,0.33,0.56,0.28,0.28,0.56,0.33,0.28,0.56,0.56,0.28,0.22,0.56,0.28,0.22,0.56,0.56,0.56,0.5,0.56,0.28,0.56,0.56,0.56,0.56,0.56,0.83,0.22,0.5,0.28,0.28,0.67,0.22,0.56,0.5,0.56,0.5,0.56,0.33,0.28" style="fill:rgb(0,0,0);font-family:ArialMT;font-size:9.0px;stroke:none;">20. Toner E, Waldhorn R. What hospitals should do to prepare for an influenza pandemic. Biosecur </text>
   <text y="339.06" x="125.997,131.988,133.975,138.967,141.457,146.449,149.435,152.42,157.412,160.398,162.888,165.41,170.402,175.439,180.432,185.469,187.959,192.952,195.442,200.434,205.426,210.419,215.456,220.448,225.486,230.478" svgx:width="0.67,0.22,0.56,0.28,0.56,0.33,0.33,0.56,0.33,0.28,0.28,0.56,0.56,0.56,0.56,0.28,0.56,0.28,0.56,0.56,0.56,0.56,0.56,0.56,0.56,0.28" style="fill:rgb(0,0,0);font-family:ArialMT;font-size:9.0px;stroke:none;">Bioterror. 2006;4:397–402.</text>
   <text y="339.06" x="233.034,235.556,241.551,246.592,251.587,259.076,264.072" svgx:width="0.28,0.67,0.56,0.56,0.83,0.56,0.56" style="fill:rgb(0,51,101);font-family:ArialMT;font-size:9.0px;stroke:none;"> PubMed</text>
  </g>
  <g begin="text">
   <text y="339.06" x="269.04" svgx:width="0.28" style="fill:rgb(0,0,0);font-family:ArialMT;font-size:9.0px;stroke:none;"> </text>
   <text y="339.06" x="271.56,278.058,285.06" svgx:width="0.72,0.78,0.28" style="fill:rgb(0,51,101);font-family:ArialMT;font-size:9.0px;stroke:none;">DOI</text>
  </g>
  <g begin="text">
   <text y="339.06" x="287.58,290.102" svgx:width="0.28,0.28" style="fill:rgb(0,0,0);font-family:ArialMT;font-size:9.0px;stroke:none;"> </text>
  </g>
 </g>
</svg>
