<?xml version="1.0" encoding="UTF-8"?>
<svg height="726.103" width="533.779" xmlns="http://www.w3.org/2000/svg">
 <g id="page" xmlns:svgx="http://www.xml-cml.org/schema/svgx">
  <g begin="text">
   <text y="80.34" x="90.0,94.985,99.466,104.451,109.436,112.496,114.475,119.46,124.445,129.007,133.992,136.514,141.499,146.538,151.523,156.508,159.486,163.967,168.449,173.434,176.493,181.478,186.463,188.985,196.463,201.448,206.01,207.989,212.974,217.959,220.481,225.52,230.496,233.474,237.955,242.941,247.926,252.488,257.473,261.954,264.539,270.955,275.994,277.973,279.952,282.474,284.516,289.492,292.014,296.999,301.984,306.546,311.531,316.516,321.12,326.112,328.634,333.626,336.117,338.638,341.129,346.121,351.113,353.635,358.628,363.62,366.11,371.102,373.741,380.156,385.148,390.14,395.132,397.654,400.145,405.137,410.129,412.651,414.637,417.218,422.21,429.695,434.183,436.705,443.12,448.157,451.142,456.134,458.656,463.694,468.191,473.183,478.176,482.664,485.154,490.191,495.184,497.706,500.196,505.188,507.71,512.702,517.695" svgx:width="0.56,0.5,0.56,0.56,0.33,0.22,0.56,0.56,0.5,0.56,0.28,0.56,0.56,0.56,0.56,0.33,0.5,0.5,0.56,0.33,0.56,0.56,0.28,0.83,0.56,0.5,0.22,0.56,0.56,0.28,0.56,0.56,0.33,0.5,0.56,0.56,0.5,0.56,0.5,0.28,0.72,0.56,0.22,0.22,0.28,0.22,0.56,0.28,0.56,0.56,0.5,0.56,0.56,0.5,0.56,0.28,0.56,0.28,0.28,0.28,0.56,0.56,0.28,0.56,0.56,0.28,0.56,0.28,0.72,0.56,0.56,0.56,0.28,0.28,0.56,0.56,0.28,0.22,0.28,0.56,0.83,0.5,0.28,0.72,0.56,0.33,0.56,0.28,0.56,0.5,0.56,0.56,0.5,0.28,0.56,0.56,0.28,0.28,0.56,0.28,0.56,0.56,0.28" style="fill:rgb(0,0,0);font-family:ArialMT;font-size:9.0px;stroke:none;">experience underscored making purchases well in advance of the date when the items were expected to be </text>
   <text y="90.663" x="90.0,94.998,99.491,104.489,109.487,112.009,114.504,119.502,122.493,125.014,130.012,135.01,137.506,139.542,144.522,149.556,152.078,154.6,159.094,164.092,167.082,172.08,174.576" svgx:width="0.56,0.5,0.56,0.56,0.28,0.28,0.56,0.33,0.28,0.56,0.56,0.28,0.22,0.56,0.56,0.28,0.28,0.5,0.56,0.33,0.56,0.28,0.28" style="fill:rgb(0,0,0);font-family:ArialMT;font-size:9.0px;stroke:none;">used for patient care. </text>
   <text y="117.0" x="90.0,97.332,100.998,107.111,113.829,116.891,123.005,126.67,129.732,137.065,140.73,147.447,151.727,154.789,161.506,168.224,171.286,174.347,178.012,184.126,193.896,200.01" svgx:width="0.67,0.33,0.56,0.61,0.28,0.56,0.33,0.28,0.67,0.33,0.61,0.39,0.28,0.61,0.61,0.28,0.28,0.33,0.56,0.89,0.56,0.28" style="fill:rgb(0,0,0);font-family:Arial-BoldMT;font-size:10.98px;stroke:none;">Step 7: Storing Items </text>
   <text y="141.66" x="90.0,95.994,98.487,103.482,106.47,111.465,116.46,121.455,123.977,128.972,131.465,133.987,138.478,143.518,148.558,153.535,155.524,157.513,162.508,166.999,169.583,174.578,177.566,182.561,187.052,192.092,197.069,199.591,202.084,207.079,209.601,214.596,219.591,222.113,227.108,234.596,239.636,244.631,249.626,252.148,254.641,259.636,264.631,267.215,274.703,279.698,284.189,286.682,289.143,292.128,297.121,301.609,306.601,311.594,314.579,319.067,324.059,327.117,329.094,334.086,336.577,341.569,346.561,351.122,353.108,357.596,362.588,365.11,369.599,374.591,382.076,387.113,392.106,397.098,402.135,407.128,409.618,414.106,416.628,421.62,424.111,426.633,431.121,436.113,440.601,445.639,450.631,453.616,458.609,463.646,465.632,467.619,472.656,474.642,479.635,484.627,487.117" svgx:width="0.67,0.28,0.56,0.33,0.56,0.56,0.56,0.28,0.56,0.28,0.28,0.5,0.56,0.56,0.56,0.22,0.22,0.56,0.5,0.28,0.56,0.33,0.56,0.5,0.56,0.56,0.28,0.28,0.56,0.28,0.56,0.56,0.28,0.56,0.83,0.56,0.56,0.56,0.28,0.28,0.56,0.56,0.28,0.83,0.56,0.5,0.28,0.28,0.33,0.56,0.5,0.56,0.56,0.33,0.5,0.56,0.33,0.22,0.56,0.28,0.56,0.56,0.5,0.22,0.5,0.56,0.28,0.5,0.56,0.83,0.56,0.56,0.56,0.56,0.56,0.28,0.5,0.28,0.56,0.28,0.28,0.5,0.56,0.5,0.56,0.56,0.33,0.56,0.56,0.22,0.22,0.56,0.22,0.56,0.56,0.28,0.28" style="fill:rgb(0,0,0);font-family:ArialMT;font-size:9.0px;stroke:none;">Storage of supplies proved to be among the most resource-intensive components of cache-building. </text>
   <text y="152.037" x="90.0,95.995,97.985,100.479,105.475,110.471,115.511,120.507,125.503,128.025,130.06,135.038,137.028,139.522,141.511,146.552,148.542,151.064,157.482,159.517,164.009,169.005,174.001,178.492,181.131,187.486,192.527,195.516,200.512,203.034,205.528,210.568,213.09,217.582,220.076,225.066,228.048,233.038,235.56,240.549,243.071,247.557,252.546,257.032,262.021,267.011,269.596,274.585,279.575,282.097,284.584,289.574,294.564,297.085,301.571,306.561,314.043,319.078,324.067,328.625,331.147,336.136,338.624,341.146,346.135,351.125,355.611,360.6,363.122,370.62,375.608,380.596,382.577,387.133,392.112,394.094,396.616,401.099,406.087,411.075,413.561,418.549,421.529,424.015,426.537,429.023,434.011,438.998,441.52,446.076,451.064,456.052,460.535,465.523,468.045,473.087,478.065,482.549,487.537,492.021,496.577,501.564,504.626,509.11" svgx:width="0.67,0.22,0.28,0.56,0.56,0.56,0.56,0.56,0.28,0.22,0.56,0.22,0.28,0.22,0.56,0.22,0.28,0.72,0.22,0.5,0.56,0.56,0.5,0.28,0.72,0.56,0.33,0.56,0.28,0.28,0.56,0.28,0.5,0.28,0.56,0.33,0.56,0.28,0.56,0.28,0.5,0.56,0.5,0.56,0.56,0.28,0.56,0.56,0.28,0.28,0.56,0.56,0.28,0.5,0.56,0.83,0.56,0.56,0.5,0.28,0.56,0.28,0.28,0.56,0.56,0.5,0.56,0.28,0.83,0.56,0.56,0.22,0.5,0.56,0.22,0.28,0.5,0.56,0.56,0.28,0.56,0.33,0.28,0.28,0.28,0.56,0.56,0.28,0.5,0.56,0.56,0.5,0.56,0.28,0.56,0.56,0.5,0.56,0.5,0.5,0.56,0.33,0.5,0.28" style="fill:rgb(0,0,0);font-family:ArialMT;font-size:9.0px;stroke:none;">Although initial wishes were to store a cache on the campus of each medical center, the space necessary </text>
   <text y="162.36" x="90.0,96.418,101.459,105.951,108.472,110.966,115.962,120.958,123.48,125.47,130.466,133.527,138.523,143.518,146.04,148.534,153.53,156.519,159.041,166.53,171.526,176.018,178.511,181.033,187.028,193.023,195.545,197.535,202.531,207.023,209.516,211.506,214.0,218.996,221.49,223.48,228.476,233.472,237.964,240.484,242.977,247.972,250.493,255.488,259.979,264.542,269.582,277.07,284.558,289.553,294.548,299.543,302.036,307.031,309.524,312.045,318.039,320.532,323.025,328.02,331.008,333.529,338.524,343.015,345.508,350.548,355.543,360.034,362.023,366.514,371.509,374.03,379.07,381.05,385.613,390.113,395.108,399.599,404.09,406.079,411.119,416.096,418.617,423.612,428.652,433.647,436.168,440.659,445.699,448.687,453.682,456.175,461.17,463.159,465.68,470.675,475.715,480.71,482.744,487.235,491.726,493.715,498.206,500.727,505.767,508.287" svgx:width="0.72,0.56,0.5,0.28,0.28,0.56,0.56,0.28,0.22,0.56,0.33,0.56,0.56,0.28,0.28,0.56,0.33,0.28,0.83,0.56,0.5,0.28,0.28,0.67,0.67,0.28,0.22,0.56,0.5,0.28,0.22,0.28,0.56,0.28,0.22,0.56,0.56,0.5,0.28,0.28,0.56,0.28,0.56,0.5,0.5,0.56,0.83,0.83,0.56,0.56,0.56,0.28,0.56,0.28,0.28,0.67,0.28,0.28,0.56,0.33,0.28,0.56,0.5,0.28,0.56,0.56,0.5,0.22,0.5,0.56,0.28,0.56,0.22,0.5,0.5,0.56,0.5,0.5,0.22,0.56,0.56,0.28,0.56,0.56,0.56,0.28,0.5,0.56,0.33,0.56,0.28,0.56,0.22,0.28,0.56,0.56,0.56,0.22,0.5,0.5,0.22,0.5,0.28,0.56,0.28,0.28" style="fill:rgb(0,0,0);font-family:ArialMT;font-size:9.0px;stroke:none;">was too large for most VA institutions to accommodate. After extensive discussion and careful analysis of </text>
   <text y="172.737" x="90.0,94.992,99.985,102.475,104.461,109.499,114.491,118.979,121.469,123.991,128.984,131.505,136.498,141.49,145.978,148.018,152.516,154.502,159.494,164.487,167.125,173.486,178.523,183.011,185.533,193.018,198.011,203.003,208.04,210.562,213.052,218.045,220.567,225.055,227.545,232.537,235.523,240.515,243.037,248.029,253.021,258.014,263.051,268.088,275.592,277.578,282.066,284.588,289.076,294.069,299.061,304.098,306.085,308.071,313.02,317.515,320.036,322.074,327.109,329.63,334.629,337.151,342.149,347.148,349.645,354.643,359.678,364.676,369.675,374.17,379.204,384.239,389.219,392.211,397.21,399.731,402.228,407.227,412.225,414.722,417.218,419.74,422.237,427.235,434.727,439.726,444.76,447.761,452.759,455.256,460.255,463.246,468.245,471.236,475.731,480.766,485.764,488.261,491.253,496.251,498.244,500.281,505.316,510.297,512.793" svgx:width="0.56,0.56,0.28,0.22,0.56,0.56,0.5,0.28,0.28,0.56,0.28,0.56,0.56,0.5,0.22,0.5,0.22,0.56,0.56,0.28,0.72,0.56,0.5,0.28,0.83,0.56,0.56,0.56,0.28,0.28,0.56,0.28,0.5,0.28,0.56,0.33,0.56,0.28,0.56,0.56,0.56,0.56,0.56,0.83,0.22,0.5,0.28,0.5,0.56,0.56,0.56,0.22,0.22,0.56,0.5,0.28,0.22,0.56,0.28,0.56,0.28,0.56,0.56,0.28,0.56,0.56,0.56,0.56,0.5,0.56,0.56,0.56,0.33,0.56,0.28,0.28,0.56,0.56,0.28,0.28,0.28,0.28,0.56,0.83,0.56,0.56,0.33,0.56,0.28,0.56,0.33,0.56,0.33,0.5,0.56,0.56,0.28,0.33,0.56,0.22,0.22,0.56,0.56,0.28,0.28" style="fill:rgb(0,0,0);font-family:ArialMT;font-size:9.0px;stroke:none;">options, a decision was made to store pandemic supplies in a 10,000–square foot, temperature-controlled, </text>
   <text y="183.06" x="90.0,91.987,96.98,101.974,106.535,111.528,116.521,119.16,125.521,130.496,133.555,138.53,143.568,148.606,153.581,158.071,163.064,165.555,168.077,175.068,180.061,185.054,187.546,192.539,197.532,200.054,204.543,209.581,214.07,216.562,221.051,223.573,226.064,231.057,234.043,236.565,241.054,246.047,251.041,255.53,260.523,263.045,266.031,271.024,276.017,281.056,286.049,291.042,293.564,296.055,299.041,304.034,311.58,314.103,319.096,324.134,329.127,331.65,334.141,339.134,341.657,346.65,351.644,356.637,359.159,364.198,369.173,372.159,374.682,379.171,384.209,389.202,394.196,397.182,402.175,404.698,407.189,412.182,417.175,419.666,422.189,427.227,432.203,435.189,437.774,442.264,447.257,452.25,455.236,457.759,460.745,465.738,470.777,475.77,480.763,483.254,488.292,493.286,498.279" svgx:width="0.22,0.56,0.56,0.5,0.56,0.56,0.28,0.72,0.56,0.33,0.56,0.56,0.56,0.56,0.5,0.56,0.28,0.28,0.78,0.56,0.56,0.28,0.56,0.56,0.28,0.5,0.56,0.5,0.28,0.5,0.28,0.28,0.56,0.33,0.28,0.5,0.56,0.56,0.5,0.56,0.28,0.33,0.56,0.56,0.56,0.56,0.56,0.28,0.28,0.33,0.56,0.83,0.28,0.56,0.56,0.56,0.28,0.28,0.56,0.28,0.56,0.56,0.56,0.28,0.56,0.56,0.33,0.28,0.5,0.56,0.56,0.56,0.33,0.56,0.28,0.28,0.56,0.56,0.28,0.28,0.56,0.56,0.33,0.28,0.5,0.56,0.56,0.33,0.28,0.33,0.56,0.56,0.56,0.56,0.28,0.56,0.56,0.56,0.56" style="fill:rgb(0,0,0);font-family:ArialMT;font-size:9.0px;stroke:none;">leased warehouse. Quoted costs for space ranged from $10 to $14 per square foot per year ($100,000–</text>
   <text y="193.437" x="90.0,94.99,99.979,105.014,110.003,112.491,117.481,122.515,127.505,130.027,135.016,140.006,142.988,145.573,150.059,155.048,160.038,163.021,165.542,168.03,173.02,176.002,178.524,183.514,188.503,190.991,196.025,201.015,206.005,208.589,213.075,218.065,223.054,228.044,231.12,236.112,238.634,241.124,246.117,251.109,253.599,256.585,259.075,261.534,267.057,272.049,277.042,279.563,282.549,287.541,292.029,297.022,304.507,312.064,317.057,322.049,327.086,332.078,337.071,339.593,341.579,346.571,351.131,356.106,358.596,360.582,365.62,370.594,373.233,379.593,384.63,389.119,391.641,396.633,401.625,406.617,409.603,412.125,417.117,422.109,424.631,429.668,431.646,434.631,439.668,444.705,447.709,450.199,452.721,455.211,460.203,462.725,467.718,472.71,477.198,482.19,485.176,490.168" svgx:width="0.56,0.56,0.56,0.56,0.28,0.56,0.56,0.56,0.28,0.56,0.56,0.33,0.28,0.5,0.56,0.56,0.33,0.28,0.28,0.56,0.33,0.28,0.56,0.56,0.28,0.56,0.56,0.56,0.28,0.5,0.56,0.56,0.56,0.33,0.56,0.28,0.28,0.56,0.56,0.28,0.33,0.28,0.28,0.61,0.56,0.56,0.28,0.33,0.56,0.5,0.56,0.83,0.83,0.56,0.56,0.56,0.56,0.56,0.28,0.22,0.56,0.5,0.56,0.28,0.22,0.56,0.56,0.28,0.72,0.56,0.5,0.28,0.56,0.56,0.56,0.33,0.28,0.56,0.56,0.28,0.56,0.22,0.33,0.56,0.56,0.33,0.28,0.28,0.28,0.56,0.28,0.56,0.56,0.5,0.56,0.33,0.56,0.28" style="fill:rgb(0,0,0);font-family:ArialMT;font-size:9.0px;stroke:none;">$140,000 per year for 10,000 square feet). The recommended location was near an airport to ensure </text>
   <text y="203.76" x="90.0,95.003,97.504,100.005,102.002,106.502,108.499,113.502,118.505,121.006,123.528,126.029,129.025,134.028,139.031,143.53,148.569,153.545,156.541,159.043,161.564,166.567,169.069,171.59,176.089,181.093,186.096,191.099,193.096,195.138,200.114,204.613,207.135,212.138,214.135,216.636,221.639,226.642,229.639,232.16,237.199,241.636,244.157,246.658,249.655,254.658,259.157,261.658,266.697,269.693,272.215,274.716,277.56,282.551,284.535,286.52,291.51,294.493,297.015,302.006,304.989,307.511,312.547,316.925,319.51,324.5,326.539,329.522,332.044,336.531,341.521,344.505,349.495,354.486,356.974,359.496,365.485,368.007,372.998,377.988,382.475,387.033,390.035,395.025,400.016,402.538,407.528,415.012,420.002,423.058,428.048,433.039,438.029,442.588,447.074,449.596,454.586,459.577,464.567,469.558,472.613,477.604,480.092,485.083,488.066,490.705,497.064,502.045,506.604" svgx:width="0.56,0.28,0.28,0.22,0.5,0.22,0.56,0.56,0.28,0.28,0.28,0.33,0.56,0.56,0.5,0.56,0.56,0.33,0.28,0.28,0.56,0.28,0.28,0.5,0.56,0.56,0.56,0.22,0.22,0.56,0.5,0.28,0.56,0.22,0.28,0.56,0.56,0.33,0.28,0.56,0.5,0.28,0.28,0.33,0.56,0.5,0.28,0.56,0.33,0.28,0.28,0.33,0.56,0.22,0.22,0.56,0.33,0.28,0.56,0.33,0.28,0.56,0.5,0.28,0.56,0.22,0.33,0.28,0.5,0.56,0.33,0.56,0.56,0.28,0.28,0.67,0.28,0.56,0.56,0.5,0.5,0.33,0.56,0.56,0.28,0.56,0.83,0.56,0.33,0.56,0.56,0.56,0.5,0.5,0.28,0.56,0.56,0.56,0.56,0.33,0.56,0.28,0.56,0.33,0.28,0.72,0.56,0.5,0.28" style="fill:rgb(0,0,0);font-family:ArialMT;font-size:9.0px;stroke:none;">efficient transport of supplies either by tractor trailer or by air cargo. A back-up emergency generator was </text>
   <text y="214.137" x="90.0,91.99,96.986,101.478,103.468,108.508,113.486,118.527,123.505,126.027,128.521,133.517,136.039,143.528,148.523,150.558,155.536,158.03,163.026,165.016,170.012,172.534,177.574,179.555,182.544,185.533,190.025,195.021,200.062,205.058,207.048,209.542,211.576,216.572,221.568,223.603,228.599,233.595,236.117,238.107,243.103,245.624,248.118,253.159,258.155,260.677,265.673,270.237,275.233,280.228,282.722,285.244,290.24,292.734,295.256,300.252,302.773,307.769,312.864,319.219,324.26,327.249,329.771,332.265,337.261,339.25,341.24,346.236,349.297,354.275,356.769" svgx:width="0.22,0.56,0.5,0.22,0.56,0.56,0.56,0.56,0.28,0.28,0.56,0.28,0.83,0.56,0.22,0.56,0.28,0.56,0.22,0.56,0.28,0.56,0.22,0.33,0.33,0.5,0.56,0.56,0.56,0.22,0.28,0.22,0.56,0.56,0.22,0.56,0.56,0.28,0.22,0.56,0.28,0.28,0.56,0.56,0.28,0.56,0.5,0.56,0.56,0.28,0.28,0.56,0.28,0.28,0.56,0.28,0.56,0.56,0.72,0.56,0.33,0.28,0.28,0.56,0.22,0.22,0.56,0.33,0.56,0.28,0.28" style="fill:rgb(0,0,0);font-family:ArialMT;font-size:9.0px;stroke:none;">included to maintain air-conditioning in the event of a power failure. </text>
   <text y="238.5" x="90.0,97.487,102.481,107.52,111.902,114.487,116.475,118.967,123.962,131.449,135.939,138.461,143.455,148.494,151.481,155.971,160.965,165.959,170.449,175.488,180.464,182.986,185.478,190.472,193.459,195.981,198.473,203.467,208.507,211.028,215.518,220.513,225.003,229.997,234.991,237.513,242.507,247.546,252.54,255.062,260.101,264.537,269.576,271.555,274.542,279.536,282.029,284.017,289.056,294.032,296.554,301.548,306.542,309.06,314.057,318.55,321.044,323.566,329.625,331.607,334.102,339.098,344.095,349.137,354.134,359.131,361.652,369.142,374.139,378.632,381.127,383.648,385.639,388.134,393.131,400.621,405.113,407.635,412.632,417.629,422.626,425.147,432.637,437.679,439.67,442.165,444.155,449.197,451.188,456.185,459.247,463.685,468.727,473.706,476.696,479.218,483.71,488.707,493.704,495.695,498.19,500.711,502.702,504.693,509.249,514.246,518.738,521.233" svgx:width="0.83,0.56,0.56,0.5,0.28,0.22,0.28,0.56,0.83,0.5,0.28,0.56,0.56,0.33,0.5,0.56,0.56,0.5,0.56,0.56,0.28,0.28,0.56,0.33,0.28,0.28,0.56,0.56,0.28,0.5,0.56,0.5,0.56,0.56,0.28,0.56,0.56,0.56,0.28,0.56,0.5,0.56,0.22,0.33,0.56,0.28,0.22,0.56,0.56,0.28,0.56,0.56,0.28,0.56,0.5,0.28,0.28,0.67,0.22,0.28,0.56,0.56,0.56,0.56,0.56,0.28,0.83,0.56,0.5,0.28,0.28,0.22,0.28,0.56,0.83,0.5,0.28,0.56,0.56,0.56,0.28,0.83,0.56,0.22,0.28,0.22,0.56,0.22,0.56,0.33,0.5,0.56,0.56,0.33,0.28,0.5,0.56,0.56,0.22,0.28,0.28,0.22,0.22,0.5,0.56,0.5,0.28,0.28" style="fill:rgb(0,0,0);font-family:ArialMT;font-size:9.0px;stroke:none;">Many items purchased for the cache had expiration dates. Although most items had multiple-year shelf lives, </text>
   <text y="248.823" x="90.0,94.494,99.491,106.982,111.98,114.502,118.995,123.993,129.027,131.0,133.496,136.018,138.01,140.001,144.495,149.529,154.031,156.616,162.973,167.953,171.015,175.995,178.517,183.514,188.008,190.53,195.024,200.021,205.019,208.01,210.586,213.108,218.106,222.6,225.121,230.119,232.704,237.081,242.114,247.112,250.103,252.598,255.12,260.703,265.683,270.599,273.121,277.615,282.613,285.603,287.595,292.593,297.54,299.524,301.507,303.491,306.068,310.554,313.076,318.065,320.553,323.075,330.557,335.547,340.537,345.526,348.014,353.003,357.489,359.977,364.966,368.03,373.01,375.993,378.976,383.965,388.523,393.026,396.009,397.993,402.982,408.017,413.006,415.528,420.563,425.003,429.993,431.977,435.04,440.021,442.508,444.492,449.527,454.507,457.029,462.019,467.008,469.496,474.485,478.971,481.493,486.527,491.517,496.507,499.028,504.018,506.596,511.585,516.575,519.557" svgx:width="0.5,0.56,0.83,0.56,0.28,0.5,0.56,0.56,0.22,0.28,0.28,0.22,0.22,0.5,0.56,0.5,0.28,0.72,0.56,0.33,0.56,0.28,0.56,0.5,0.28,0.5,0.56,0.56,0.33,0.28,0.28,0.56,0.5,0.28,0.56,0.28,0.5,0.56,0.56,0.33,0.28,0.28,0.61,0.56,0.56,0.28,0.5,0.56,0.33,0.22,0.56,0.56,0.22,0.22,0.22,0.28,0.5,0.28,0.56,0.28,0.28,0.83,0.56,0.56,0.56,0.28,0.56,0.5,0.28,0.56,0.33,0.56,0.33,0.33,0.56,0.5,0.5,0.33,0.22,0.56,0.56,0.56,0.28,0.56,0.5,0.56,0.22,0.33,0.56,0.28,0.22,0.56,0.56,0.28,0.56,0.56,0.28,0.56,0.5,0.28,0.56,0.56,0.56,0.28,0.56,0.28,0.56,0.56,0.33,0.28" style="fill:rgb(0,0,0);font-family:ArialMT;font-size:9.0px;stroke:none;">some shelf lives were as short as 1 year. The variability of manufacturer-ascribed expiration dates and other </text>
   <text y="259.2" x="90.0,92.985,97.978,102.97,107.458,112.495,117.47,121.958,124.48,126.97,131.962,134.948,137.47,141.958,146.95,151.942,156.935,158.975,163.463,165.985,168.97,173.963,176.453,181.445,183.936,185.976,190.968,195.961,198.482,200.523,205.56,210.552,213.074,215.564,220.557,223.078,225.569,230.561,235.553,238.075,241.06,246.053,250.541,255.533,260.571,265.608,267.585,270.076,272.062,277.054,282.046,284.568,287.1,292.09,297.081,299.569,302.091,304.58,309.57,314.561,317.083,321.569,326.605,331.091,336.082,341.072,343.711,350.069,355.105,360.095,362.08,367.07,369.655,374.646,379.636,384.195,389.185,396.669,401.659,404.181,409.172,411.693,416.729,421.17,426.206,431.187,438.671,440.655,445.214,447.736,452.222,457.213,464.696,469.687,474.677,479.713,484.703,489.694,492.182,494.704,499.695,502.183" svgx:width="0.33,0.56,0.56,0.5,0.56,0.56,0.5,0.28,0.28,0.56,0.33,0.28,0.5,0.56,0.56,0.56,0.22,0.5,0.28,0.33,0.56,0.28,0.56,0.28,0.22,0.56,0.56,0.28,0.22,0.56,0.56,0.28,0.28,0.56,0.28,0.28,0.56,0.56,0.28,0.33,0.56,0.5,0.56,0.56,0.56,0.22,0.28,0.22,0.56,0.56,0.28,0.28,0.56,0.56,0.28,0.28,0.28,0.56,0.56,0.28,0.5,0.56,0.5,0.56,0.56,0.28,0.72,0.56,0.56,0.22,0.56,0.28,0.56,0.56,0.5,0.56,0.83,0.56,0.28,0.56,0.28,0.56,0.5,0.56,0.56,0.83,0.22,0.5,0.28,0.5,0.56,0.83,0.56,0.56,0.56,0.56,0.56,0.28,0.28,0.56,0.28,0.28" style="fill:rgb(0,0,0);font-family:ArialMT;font-size:9.0px;stroke:none;">reasons for supply rotation led to the recognition that the cache would become a dynamic component of </text>
   <text y="269.523" x="90.0,97.486,102.479,107.473,109.46,114.021,118.996,120.983,123.505,128.066,132.502,136.991,139.482,144.52,152.015,154.537,159.026,164.02,169.013,174.006,176.047,178.034,183.028,187.517,190.008,192.53,195.021,197.512,202.505,209.992,214.481,217.066,223.427,228.465,233.458,235.499,240.493,243.014,248.008,253.001,258.039,263.077,265.599,268.09,273.083,275.605,280.598,285.591,288.113,290.1,295.094,299.583,304.621,309.614,314.103,316.591,321.626,326.615,329.137,332.12,337.109,342.099,347.133,349.117,354.107,357.089,359.127,363.612,366.134,371.169,376.149,381.184,383.706,386.688,391.678,394.166,399.155,401.643,406.632,411.622,414.144,416.631,421.621,424.604,429.593,434.628,439.662,444.643,447.165,449.652,454.642,459.632,462.153,466.639,469.127,474.116,477.099,482.088,487.123,492.113,494.634,497.122,502.112,506.597,508.581,510.564,512.548,515.126,519.611" svgx:width="0.83,0.56,0.56,0.22,0.5,0.56,0.22,0.28,0.5,0.5,0.5,0.28,0.56,0.83,0.28,0.5,0.56,0.56,0.56,0.22,0.22,0.56,0.5,0.28,0.28,0.28,0.28,0.56,0.83,0.5,0.28,0.72,0.56,0.56,0.22,0.56,0.28,0.56,0.56,0.56,0.56,0.28,0.28,0.56,0.28,0.56,0.56,0.28,0.22,0.56,0.5,0.56,0.56,0.5,0.28,0.56,0.56,0.28,0.33,0.56,0.56,0.56,0.22,0.56,0.33,0.22,0.5,0.28,0.56,0.56,0.56,0.28,0.33,0.56,0.28,0.56,0.28,0.56,0.56,0.28,0.28,0.56,0.33,0.56,0.56,0.56,0.56,0.28,0.28,0.56,0.56,0.28,0.5,0.28,0.56,0.33,0.56,0.56,0.56,0.28,0.28,0.56,0.5,0.22,0.22,0.22,0.28,0.5,0.28" style="fill:rgb(0,0,0);font-family:ArialMT;font-size:9.0px;stroke:none;">medical system supplies. Items would need to be inspected regularly and rotated through the storage facility </text>
   <text y="279.9" x="90.0,94.993,99.986,102.508,107.501,110.023,113.009,118.003,123.041,128.016,130.057,135.032,138.019,140.54,145.534,150.572,155.061,157.048,161.537,164.029,166.487,172.066,177.041,179.563,187.049,192.042,197.035,199.526,202.048,204.539,209.533,211.52,216.009,218.531,223.524,228.517,233.51,238.504,240.995,243.517,248.51,251.032,256.07,261.045,268.603,273.596,278.59,281.111,284.098,289.091,293.58,298.618,303.611,306.603,311.096,316.093,318.614,323.107,328.149,335.639,343.129,345.119,347.614,355.104,360.101,365.098,367.592,370.114,375.111,377.606,380.128,385.124,387.646,390.141,395.138,397.129,399.119,402.109,404.604,406.595,414.085,419.081,421.603,426.6,434.162,439.159,441.149,446.191,450.63,455.672,460.651,463.172,468.169,473.211,478.208,480.199,484.754,489.733,491.724,496.766,501.763,504.257" svgx:width="0.56,0.56,0.28,0.56,0.28,0.33,0.56,0.56,0.56,0.22,0.56,0.33,0.28,0.56,0.56,0.5,0.22,0.5,0.28,0.28,0.61,0.56,0.28,0.83,0.56,0.56,0.28,0.28,0.28,0.56,0.22,0.5,0.28,0.56,0.56,0.56,0.56,0.28,0.28,0.56,0.28,0.56,0.56,0.83,0.56,0.56,0.28,0.33,0.56,0.5,0.56,0.56,0.33,0.5,0.56,0.28,0.5,0.56,0.83,0.83,0.22,0.28,0.83,0.56,0.56,0.28,0.28,0.56,0.28,0.28,0.56,0.28,0.28,0.56,0.22,0.22,0.33,0.28,0.22,0.83,0.56,0.28,0.56,0.83,0.56,0.22,0.56,0.5,0.56,0.56,0.28,0.56,0.56,0.56,0.22,0.5,0.56,0.22,0.56,0.56,0.28,0.28" style="fill:rgb(0,0,0);font-family:ArialMT;font-size:9.0px;stroke:none;">on a regular basis. To meet this need, a human resource commitment of 1 full-time employee equivalent </text>
   <text y="290.223" x="90.0,96.416,101.455,106.449,108.491,113.485,116.007,121.001,125.995,128.58,133.574,138.568,143.059,148.098,152.588,157.078,162.072,165.131,169.513,172.035,174.527,179.521,182.508,185.03,187.018,192.057,197.051,199.039,203.53,206.022,208.064,212.554,217.044,219.566,227.053,232.047,237.041,242.035,247.074,252.068,259.555,264.595,269.571,272.063,274.585,279.579,282.071,284.593,287.085,292.079,297.073,299.595,301.581,306.573,311.062,316.054,321.046,323.626,328.619,331.676,336.056,338.574,341.095,347.582,352.574,355.064,357.105,362.097,366.585,369.107,374.099,376.59,379.111,381.602,386.594,388.58,393.069,395.59,400.583,405.575,408.56,413.121,418.113,423.105,425.744,432.104,437.142,442.179,444.156,449.149,451.67,453.657,458.649,463.137,465.178,470.17,475.207,480.2" svgx:width="0.72,0.56,0.56,0.22,0.56,0.28,0.56,0.56,0.28,0.56,0.56,0.5,0.56,0.5,0.5,0.56,0.33,0.5,0.28,0.28,0.56,0.33,0.28,0.22,0.56,0.56,0.22,0.5,0.28,0.22,0.5,0.5,0.28,0.83,0.56,0.56,0.56,0.56,0.56,0.83,0.56,0.56,0.28,0.28,0.56,0.28,0.28,0.28,0.56,0.56,0.28,0.22,0.56,0.5,0.56,0.56,0.28,0.56,0.33,0.5,0.28,0.28,0.72,0.56,0.28,0.22,0.56,0.5,0.28,0.56,0.28,0.28,0.28,0.56,0.22,0.5,0.28,0.56,0.56,0.33,0.5,0.56,0.56,0.28,0.72,0.56,0.56,0.22,0.56,0.28,0.22,0.56,0.5,0.22,0.56,0.56,0.56,0.28" style="fill:rgb(0,0,0);font-family:ArialMT;font-size:9.0px;stroke:none;">would be necessary for logistics management of the inventory. Duties of this person would include </text>
   <text y="300.6" x="90.0,91.986,96.979,101.467,106.504,111.496,115.985,118.475,120.461,125.454,130.446,132.968,135.458,140.495,145.488,148.009,150.05,155.033,159.521,164.514,169.506,171.996,176.989,180.046,184.534,187.024,189.546,194.539,199.027,203.515,205.501,210.062,212.588,214.574,219.567,224.559,227.198,233.558,235.535,238.026,243.018,245.54,247.58,252.563,257.052,262.044,269.601,271.578,276.571,281.563,284.085,289.122,294.115,299.107,301.563,306.599,311.58,314.069,319.059,324.05,326.088,331.079,336.069,338.591,343.581,348.617,350.601,352.586,357.072,362.063,365.118,367.103,372.093,376.58,379.068,381.59,384.574,389.564,392.053,397.043,399.532,401.516,406.507,411.497,414.063,416.053,418.547,423.543,431.032,435.523,438.045,440.08,445.121,447.615,452.611,455.133,457.627,462.623,467.618,470.14,473.129,478.125,483.121,485.615,487.605,492.646,497.642,499.676,504.168" svgx:width="0.22,0.56,0.5,0.56,0.56,0.5,0.28,0.22,0.56,0.56,0.28,0.28,0.56,0.56,0.28,0.22,0.56,0.5,0.56,0.56,0.28,0.56,0.33,0.5,0.28,0.28,0.56,0.5,0.5,0.22,0.5,0.28,0.22,0.56,0.56,0.28,0.72,0.22,0.28,0.56,0.28,0.22,0.56,0.5,0.56,0.83,0.22,0.56,0.56,0.28,0.56,0.56,0.56,0.28,0.56,0.56,0.28,0.56,0.56,0.22,0.56,0.56,0.28,0.56,0.56,0.22,0.22,0.5,0.56,0.33,0.22,0.56,0.5,0.28,0.28,0.33,0.56,0.28,0.56,0.28,0.22,0.56,0.56,0.28,0.22,0.28,0.56,0.83,0.5,0.28,0.22,0.56,0.28,0.56,0.28,0.28,0.56,0.56,0.28,0.33,0.56,0.56,0.28,0.22,0.56,0.56,0.22,0.5,0.28" style="fill:rgb(0,0,0);font-family:ArialMT;font-size:9.0px;stroke:none;">inspecting the inventory, assisting with incoming and outgoing deliveries, rotating items into the routinely </text>
   <text y="310.923" x="90.0,94.995,99.486,104.481,109.476,111.997,116.488,121.528,126.523,131.563,133.552,135.541,140.536,145.027,147.611,152.606,155.099,157.62,160.113,165.108,170.103,172.624,180.112,185.107,190.102,192.091,196.582,201.622,203.611,206.131,210.694,215.077,219.568,222.061,227.056,234.544,237.065,239.558,244.503,247.025,252.014,257.004,261.562,266.596,269.597,274.586,277.108,282.098,286.583,291.573,294.095,299.084,304.074,306.562,311.551,314.615,319.604,322.126,327.161,331.601,336.636,338.611,341.593,346.583,349.07,351.108,356.098,361.087,363.575,366.097,371.086,376.121,381.11,383.632,388.622,391.604,396.594,401.629,406.618,408.602,413.636,418.617,421.139,426.128,431.163,435.648,440.206,442.244,446.747,451.737,453.72,456.242,460.728,465.717,470.203,475.193,478.256,480.231,482.808,487.186,489.708,492.195,497.185,500.168,502.752,505.24,510.23,515.219" svgx:width="0.56,0.5,0.56,0.56,0.28,0.5,0.56,0.56,0.56,0.22,0.22,0.56,0.5,0.28,0.56,0.28,0.28,0.28,0.56,0.56,0.28,0.83,0.56,0.56,0.22,0.5,0.56,0.22,0.28,0.5,0.5,0.5,0.28,0.56,0.83,0.28,0.28,0.56,0.28,0.56,0.56,0.5,0.56,0.33,0.56,0.28,0.56,0.5,0.56,0.28,0.56,0.56,0.28,0.56,0.33,0.56,0.28,0.56,0.5,0.56,0.22,0.33,0.56,0.28,0.22,0.56,0.56,0.28,0.28,0.56,0.56,0.56,0.28,0.56,0.33,0.56,0.56,0.56,0.22,0.56,0.56,0.28,0.56,0.56,0.5,0.5,0.22,0.5,0.56,0.22,0.28,0.5,0.56,0.5,0.56,0.33,0.22,0.28,0.5,0.28,0.28,0.56,0.33,0.28,0.28,0.56,0.56,0.28" style="fill:rgb(0,0,0);font-family:ArialMT;font-size:9.0px;stroke:none;">used supplies of the medical system to ensure use before expiration, and prodding physical security for the </text>
   <text y="321.3" x="90.0,91.988,96.982,101.472,106.511,111.506,113.998,118.992,122.051,126.433,128.952,131.474,137.053,142.029,144.017,148.507,151.029,156.023,161.017,164.004,168.494,173.533,178.528,181.166,187.528,192.505,197.544,199.523,204.517,207.039,212.078,214.057,218.547,223.541,226.063,231.057,236.051,238.573,243.063,248.102,253.096,256.083,261.122,266.098,271.138,273.722,280.084,282.064,284.556,289.55,292.077,297.067,302.056,306.542,311.576,313.551,318.586,323.566,325.55,330.584,335.574,338.096,343.085,348.075,353.065,355.586,363.069,368.104,370.087,375.077,377.564,382.599,384.583,389.572,391.61,396.599,401.589,404.111,409.1,411.622,416.612,418.649,423.639,428.629,431.15,433.638,438.628,441.61,444.132,446.62,449.602,454.592,459.581,464.067,469.102,474.082,477.065,479.552,484.542,487.03,489.013,494.048,499.037,501.559,506.594,511.583,516.573" svgx:width="0.22,0.56,0.5,0.56,0.56,0.28,0.56,0.33,0.5,0.28,0.28,0.61,0.56,0.22,0.5,0.28,0.56,0.56,0.33,0.5,0.56,0.56,0.28,0.72,0.56,0.56,0.22,0.56,0.28,0.56,0.22,0.5,0.56,0.28,0.56,0.56,0.28,0.5,0.56,0.56,0.33,0.56,0.56,0.56,0.28,0.72,0.22,0.28,0.56,0.28,0.56,0.56,0.5,0.56,0.22,0.56,0.56,0.22,0.56,0.56,0.28,0.56,0.56,0.56,0.28,0.83,0.56,0.22,0.56,0.28,0.56,0.22,0.56,0.22,0.56,0.56,0.28,0.56,0.28,0.56,0.22,0.56,0.56,0.28,0.28,0.56,0.33,0.28,0.28,0.33,0.56,0.56,0.5,0.56,0.56,0.33,0.28,0.56,0.28,0.22,0.56,0.56,0.28,0.56,0.56,0.56,0.28" style="fill:rgb(0,0,0);font-family:ArialMT;font-size:9.0px;stroke:none;">inventory. This person would also be charged with developing and maintaining a plan for transportation and </text>
   <text y="331.623" x="90.0,94.992,99.985,105.022,107.008,112.046,116.534,124.019,129.056,134.031,136.521,139.043,144.035,146.525,149.047,151.537,156.53,161.522,164.044,166.03,171.022,175.511,180.548,185.54,188.031,193.023,196.08,200.461,203.045,205.032,210.069,212.591,215.081,220.073,225.066,227.569,232.562,237.05,242.042,247.035,249.525,252.047,257.039,259.529,262.051,267.043,269.565,274.557,279.55,284.587,289.579,294.572,302.057,304.043,308.532,311.022,313.544,316.034,321.026,323.548,328.585,333.578,338.57,340.556,343.047,345.087,350.079,355.072,357.562,360.084,365.076,370.068,374.629,379.621,382.143,389.628,394.62,399.613,401.599,406.159,411.142,413.129,415.651,418.141,423.133,427.621,429.608,431.648,433.625,436.206,440.586,443.225,449.648,454.64,459.633,461.673,466.665,469.187,474.179,476.166,480.654,485.646,488.231,493.223,498.216" svgx:width="0.56,0.56,0.56,0.22,0.56,0.5,0.83,0.56,0.56,0.28,0.28,0.56,0.28,0.28,0.28,0.56,0.56,0.28,0.22,0.56,0.5,0.56,0.56,0.28,0.56,0.33,0.5,0.28,0.22,0.56,0.28,0.28,0.56,0.56,0.28,0.56,0.5,0.56,0.56,0.28,0.28,0.56,0.28,0.28,0.56,0.28,0.56,0.56,0.56,0.56,0.56,0.83,0.22,0.5,0.28,0.28,0.28,0.56,0.28,0.56,0.56,0.56,0.22,0.28,0.22,0.56,0.56,0.28,0.28,0.56,0.56,0.5,0.56,0.28,0.83,0.56,0.56,0.22,0.5,0.56,0.22,0.28,0.28,0.56,0.5,0.22,0.22,0.22,0.28,0.5,0.28,0.72,0.56,0.56,0.22,0.56,0.28,0.56,0.22,0.5,0.56,0.28,0.56,0.56,0.28" style="fill:rgb(0,0,0);font-family:ArialMT;font-size:9.0px;stroke:none;">deployment of the inventory in the event of a pandemic. In addition, each medical facility would also be </text>
   <text y="342.0" x="90.0,92.981,97.969,102.956,107.998,109.98,112.961,117.949,122.936,125.458,127.944,132.932,135.454,140.441,143.503,148.545,153.047,155.029,160.016,165.004,167.526,172.568,177.547,180.068,185.056,192.537,197.525,199.561,204.602,209.104,214.092,219.08,221.602,224.087,229.075,231.597,236.585,241.573,243.608,248.596,251.118,258.599,263.586,268.628,273.616,278.604,283.592,286.113,288.599,293.587,298.575,301.097,303.132,308.097,312.585,317.623,322.615,325.105,330.098,333.155,337.535,340.057,345.094,350.087,355.079,357.718,364.078,369.115,374.108,376.746,383.161,388.153,393.145,395.186,400.178,402.7,405.685,410.677,415.67,420.662,423.647,426.137,428.659,431.15,436.142,438.664,441.154,446.146,451.139,453.66,458.149,463.141,467.629,472.667,477.659,480.181,482.167,487.159,489.681,492.171,497.164,502.201" svgx:width="0.33,0.56,0.56,0.56,0.22,0.33,0.56,0.56,0.28,0.28,0.56,0.28,0.56,0.33,0.56,0.5,0.22,0.56,0.56,0.28,0.56,0.56,0.28,0.56,0.83,0.56,0.22,0.56,0.5,0.56,0.56,0.28,0.28,0.56,0.28,0.56,0.56,0.22,0.56,0.28,0.83,0.56,0.56,0.56,0.56,0.56,0.28,0.28,0.56,0.56,0.28,0.22,0.56,0.5,0.56,0.56,0.28,0.56,0.33,0.5,0.28,0.56,0.56,0.56,0.28,0.72,0.56,0.56,0.28,0.72,0.56,0.56,0.22,0.56,0.28,0.33,0.56,0.56,0.56,0.33,0.28,0.28,0.28,0.56,0.28,0.28,0.56,0.56,0.28,0.5,0.56,0.5,0.56,0.56,0.28,0.22,0.56,0.28,0.28,0.56,0.56,0.28" style="fill:rgb(0,0,0);font-family:ArialMT;font-size:9.0px;stroke:none;">required to provide an employee to help manage the inventory and who would report to the cache in the </text>
   <text y="352.323" x="90.0,94.998,99.491,104.489,109.487,111.982,114.504,119.502,121.998,124.519,129.517,132.039,137.037,142.07,147.104,152.102,157.099,164.59,166.582,171.076,173.571" svgx:width="0.56,0.5,0.56,0.56,0.28,0.28,0.56,0.28,0.28,0.56,0.28,0.56,0.56,0.56,0.56,0.56,0.83,0.22,0.5,0.28,0.28" style="fill:rgb(0,0,0);font-family:ArialMT;font-size:9.0px;stroke:none;">event of a pandemic. </text>
   <text y="380.04" x="90.0,99.014,102.487,109.43,116.373,124.002,130.944,137.887,141.36,148.989,156.618,160.1,167.043,174.672,182.301,185.783,194.797,201.74,208.757,216.374,227.472,238.571,245.513,253.142,260.771,267.789,271.948,275.422,283.051,290.68,297.622" svgx:width="0.72,0.28,0.56,0.56,0.61,0.56,0.56,0.28,0.61,0.61,0.28,0.56,0.61,0.61,0.28,0.72,0.56,0.56,0.61,0.89,0.89,0.56,0.61,0.61,0.56,0.33,0.28,0.61,0.61,0.56,0.28" style="fill:rgb(0,0,0);font-family:Arial-BoldMT;font-size:12.48px;stroke:none;">Discussion and Recommendations </text>
   <text y="405.06" x="90.0,96.484,101.473,105.959,110.948,112.932,115.51,120.499,123.021,125.509,130.498,135.488,138.01,142.999,148.034,155.516,160.506,163.489,168.478,173.468,177.953,180.475,185.51,190.49,194.976,199.966,202.948,205.526,210.515,212.499,217.489,219.976,222.014,226.994,231.48,234.002,238.991,243.981,248.538,253.528,258.518,261.039,266.074,270.515,273.036,278.071,283.061,288.05,293.085,298.074,305.557,307.541,312.057,314.579,316.57,321.566,324.061,326.097,331.094,336.091,341.087,345.643,350.64,353.135,355.657,358.151,363.148,368.145,370.667,373.252,377.627,382.669,387.648,392.141,394.663,399.659,404.656,409.653,412.175,417.217,422.195,427.237,432.216,434.711,436.702,439.196,441.232,446.229,450.722,453.244,458.24,460.735,463.257,468.254,472.747,477.239,482.236,487.233,489.728,491.764,496.742,498.733" svgx:width="0.72,0.56,0.5,0.56,0.22,0.28,0.56,0.28,0.28,0.56,0.56,0.28,0.56,0.56,0.83,0.56,0.33,0.56,0.56,0.5,0.28,0.56,0.56,0.5,0.56,0.33,0.28,0.56,0.22,0.56,0.28,0.22,0.56,0.5,0.28,0.56,0.56,0.5,0.56,0.56,0.28,0.56,0.5,0.28,0.56,0.56,0.56,0.56,0.56,0.83,0.22,0.5,0.28,0.22,0.56,0.28,0.22,0.56,0.56,0.56,0.5,0.56,0.28,0.28,0.28,0.56,0.56,0.28,0.28,0.5,0.56,0.56,0.5,0.28,0.56,0.56,0.56,0.28,0.56,0.56,0.56,0.56,0.28,0.22,0.28,0.22,0.56,0.5,0.28,0.56,0.28,0.28,0.56,0.5,0.5,0.56,0.56,0.28,0.22,0.56,0.22,0.28" style="fill:rgb(0,0,0);font-family:ArialMT;font-size:9.0px;stroke:none;">Despite the numerous uncertainties posed by pandemic influenza, the types and quantities of essential </text>
   <text y="415.383" x="90.0,91.987,94.478,99.472,106.958,111.447,113.969,116.46,121.453,126.446,128.938,131.459,135.949,140.942,145.935,150.973,152.96,157.954,160.475,165.469,170.462,172.984,177.473,179.964,184.957,189.446,193.936,198.974,200.961,202.948,207.986,212.98,215.501,219.991,224.984,229.977,232.499,237.487,242.474,245.059,250.047,254.531,257.017,258.998,266.479,271.467,273.953,278.941,283.928,286.45,291.492,295.931,298.452,303.44,307.924,309.96,314.948,319.935,322.457,327.499,330.021,333.002,337.989,342.977,347.461,352.449,357.491,362.478,367.466,369.988,375.03,380.017,385.005,388.08,393.078,398.075,402.569,407.567,410.063,412.584,421.101,426.099,431.096,433.592,436.114,438.106,442.599,445.121,450.119,452.615,455.11,460.108,463.099,468.096,473.094,475.616,477.608,482.605,485.127,487.623,492.62,494.612,499.106" svgx:width="0.22,0.28,0.56,0.83,0.5,0.28,0.28,0.56,0.56,0.28,0.28,0.5,0.56,0.56,0.56,0.22,0.56,0.28,0.56,0.56,0.28,0.5,0.28,0.56,0.5,0.5,0.56,0.22,0.22,0.56,0.56,0.28,0.5,0.56,0.56,0.28,0.56,0.56,0.28,0.56,0.5,0.28,0.22,0.83,0.56,0.28,0.56,0.56,0.28,0.56,0.5,0.28,0.56,0.5,0.22,0.56,0.56,0.28,0.56,0.28,0.33,0.56,0.56,0.5,0.56,0.56,0.56,0.56,0.28,0.56,0.56,0.56,0.33,0.56,0.56,0.5,0.56,0.28,0.28,0.94,0.56,0.56,0.28,0.28,0.22,0.5,0.28,0.56,0.28,0.28,0.56,0.33,0.56,0.56,0.28,0.22,0.56,0.28,0.28,0.56,0.22,0.5,0.28" style="fill:rgb(0,0,0);font-family:ArialMT;font-size:9.0px;stroke:none;">items that should be stockpiled can be estimated by using a reasoned approach. What is offered in this </text>
   <text y="425.76" x="90.0,92.987,97.981,102.975,107.969,110.957,113.449,115.97,117.959,122.449,124.97,129.964,132.486,139.973,144.967,147.55,152.544,157.538,162.532,165.054,167.546,172.54,175.062,179.552,184.546,186.534,191.096,196.09,198.132,203.126,205.618,210.613,213.134,215.626,220.621,225.615,228.136,232.627,237.621,245.108,250.102,255.141,260.117,265.156,270.132,272.624,277.114,279.636,284.63,287.122,289.644,294.638,297.117,301.609,304.103,309.099,313.591,318.083,323.078,325.068,327.058,332.054,334.576,339.617,344.055,346.577,351.573,356.064,358.099,363.095,368.091,370.613,375.609,380.101,384.665,389.643,397.131,402.127,404.621,406.611,411.652,416.63,421.122,423.644,426.138,431.134,436.129,438.623,441.145,446.141,449.13,454.126,456.648,461.644,464.632,469.727,476.082,481.123,483.645,486.139,489.128,494.124,501.685" svgx:width="0.33,0.56,0.56,0.56,0.33,0.28,0.28,0.22,0.5,0.28,0.56,0.28,0.83,0.56,0.28,0.56,0.56,0.56,0.28,0.28,0.56,0.28,0.5,0.56,0.22,0.5,0.56,0.22,0.56,0.28,0.56,0.28,0.28,0.56,0.56,0.28,0.5,0.56,0.83,0.56,0.56,0.56,0.56,0.56,0.28,0.5,0.28,0.56,0.28,0.28,0.56,0.28,0.5,0.28,0.56,0.5,0.5,0.56,0.22,0.22,0.56,0.28,0.56,0.5,0.28,0.56,0.5,0.22,0.56,0.56,0.28,0.56,0.5,0.5,0.56,0.83,0.56,0.28,0.22,0.56,0.56,0.5,0.28,0.28,0.56,0.56,0.28,0.28,0.56,0.33,0.56,0.28,0.56,0.33,0.56,0.72,0.56,0.28,0.28,0.33,0.56,0.83,0.28" style="fill:rgb(0,0,0);font-family:ArialMT;font-size:9.0px;stroke:none;">report is a method to calculate the components of a stockpile by using assumptions that are drawn from </text>
   <text y="436.083" x="90.0,94.994,97.981,102.975,107.465,109.507,114.502,119.496,123.986,126.508,131.502,136.541,141.535,146.574,151.568,159.055,161.043,165.533,170.023,172.516,175.037,180.616,185.593,187.581,192.071,194.593,202.08,207.002,209.494,214.488,219.482,224.476,226.998,231.992,237.031,242.025,247.064,249.052,254.047,258.537,261.121,268.608,273.603,278.597,280.585,283.077,285.065,289.627,294.603,297.095,299.043,304.035,309.028,311.549,316.542,319.032,321.617,324.107,326.093,331.086,336.078,339.063,344.056,348.544,351.034,353.556,361.041,366.034,370.522,372.562,377.555,382.592,385.114,387.604,392.596,397.589,405.074,407.596,412.084,416.572,421.565,423.551,428.543,433.58,435.558,440.55,443.135,448.127,453.119,458.112,460.634,465.671,470.645,475.683,480.657,483.147,488.139,493.132,495.172,500.164,502.749,505.239,510.232" svgx:width="0.56,0.33,0.56,0.5,0.22,0.56,0.56,0.5,0.28,0.56,0.56,0.56,0.56,0.56,0.83,0.22,0.5,0.5,0.28,0.28,0.61,0.56,0.22,0.5,0.28,0.83,0.56,0.28,0.56,0.56,0.56,0.28,0.56,0.56,0.56,0.56,0.22,0.56,0.5,0.28,0.83,0.56,0.56,0.22,0.28,0.22,0.5,0.56,0.28,0.22,0.56,0.56,0.28,0.56,0.28,0.28,0.28,0.22,0.56,0.56,0.33,0.56,0.5,0.28,0.28,0.83,0.56,0.5,0.22,0.56,0.56,0.28,0.28,0.56,0.56,0.83,0.28,0.5,0.5,0.56,0.22,0.56,0.56,0.22,0.56,0.28,0.56,0.56,0.56,0.28,0.56,0.56,0.56,0.56,0.28,0.56,0.56,0.22,0.56,0.28,0.28,0.56,0.28" style="fill:rgb(0,0,0);font-family:ArialMT;font-size:9.0px;stroke:none;">previous pandemics. This method enables modification of figures, making them scalable and adaptable to </text>
   <text y="446.46" x="90.0,94.992,100.03,104.518,107.04,111.528,113.514,118.003,122.995,125.517,130.554,135.528,140.566,145.54,147.58,152.554,155.045,157.031,162.023,167.016,169.506,172.028,178.091,182.471,184.993,187.483,192.521,194.507,196.493,201.594,208.08,210.066,215.059,220.051,222.573,225.063,230.055,235.047,237.569,239.61,244.584,249.621,251.598,256.087,258.609,263.601,266.091,268.613,271.103,276.096,281.088,283.61,288.602,291.587,296.58,301.617,306.609,311.103,316.145,321.124,323.645,328.138,333.135,335.126,339.619,344.615,346.651,351.648,354.143,356.134,361.175,366.172,370.665,373.16,375.682,377.672,380.167,382.689,387.182,392.179,397.175,402.217,404.208,409.205,411.727,416.768,421.747,424.269,429.266,434.263,438.755,443.248,445.284,450.281,452.272,457.268,459.79,462.285,467.282,469.804,477.293,482.29,487.332,489.314,491.899,496.274,498.796,501.291,506.333,511.33" svgx:width="0.56,0.56,0.5,0.28,0.5,0.22,0.5,0.56,0.28,0.56,0.56,0.56,0.56,0.22,0.56,0.28,0.22,0.56,0.56,0.28,0.28,0.67,0.5,0.28,0.28,0.56,0.22,0.22,0.56,0.72,0.22,0.56,0.56,0.28,0.28,0.56,0.56,0.28,0.22,0.56,0.56,0.22,0.5,0.28,0.56,0.28,0.28,0.28,0.56,0.56,0.28,0.56,0.33,0.56,0.56,0.56,0.5,0.56,0.56,0.28,0.5,0.56,0.22,0.5,0.56,0.22,0.56,0.28,0.22,0.56,0.56,0.5,0.28,0.28,0.22,0.28,0.28,0.5,0.56,0.56,0.56,0.22,0.56,0.28,0.56,0.56,0.28,0.56,0.56,0.5,0.5,0.22,0.56,0.22,0.56,0.28,0.28,0.56,0.28,0.83,0.56,0.56,0.22,0.28,0.5,0.28,0.28,0.56,0.56,0.28" style="fill:rgb(0,0,0);font-family:ArialMT;font-size:9.0px;stroke:none;">any size population. By following the logic of the proposed calculations, it should be possible to modify the </text>
   <text y="456.783" x="90.0,94.996,99.488,103.98,108.976,116.465,121.46,123.954,125.989,130.985,135.981,140.473,142.995,148.036,153.031,158.027,160.549,165.545,168.039,173.035,178.031,181.02,183.541,186.035,188.025,193.066,198.044,201.033,206.074,210.566,213.088,218.083,222.575,225.097,230.093,235.089,240.085,245.126,250.122,255.118,257.639,260.133,265.174,268.163,270.685,275.681,277.671,285.16,290.155,294.647,297.141,299.663,304.659,309.7,314.192,316.714,321.205,326.246,333.735,341.224,346.22,351.216,353.206,355.79,360.174,362.758,367.754,370.743,373.265,378.261,383.302,388.298,390.288,392.782,397.778,402.269,407.265,410.326,415.304,417.826,422.39,426.774,431.266,433.76,438.8,446.298,448.792" svgx:width="0.56,0.5,0.5,0.56,0.83,0.56,0.28,0.22,0.56,0.56,0.5,0.28,0.56,0.56,0.56,0.28,0.56,0.28,0.56,0.56,0.33,0.28,0.28,0.22,0.56,0.56,0.33,0.56,0.5,0.28,0.56,0.5,0.28,0.56,0.56,0.56,0.56,0.56,0.56,0.28,0.28,0.56,0.33,0.28,0.56,0.22,0.83,0.56,0.5,0.28,0.28,0.56,0.56,0.5,0.28,0.5,0.56,0.83,0.83,0.56,0.56,0.22,0.28,0.5,0.28,0.56,0.33,0.28,0.56,0.56,0.56,0.22,0.28,0.56,0.5,0.56,0.33,0.56,0.28,0.5,0.5,0.5,0.28,0.56,0.83,0.28,0.28" style="fill:rgb(0,0,0);font-family:ArialMT;font-size:9.0px;stroke:none;">assumptions and other figures as needed for almost any community or healthcare system. </text>
   <text y="481.146" x="90.0,95.996,100.993,103.982,108.979,114.021,119.0,123.493,126.014,128.509,133.506,138.503,141.025,148.514,153.511,158.004,160.499,163.021,165.011,172.501,177.498,182.495,185.485,187.979,192.976,197.973,200.468,202.99,204.98,207.016,214.506,216.497,218.992,223.988,226.483,228.474,233.471,238.468,241.106,247.462,249.444,252.029,257.008,259.529,262.024,267.021,269.012,273.505,276.026,283.516,288.513,291.008,296.005,301.001,305.998,308.457,310.445,314.935,317.457,322.451,324.973,328.032,333.008,334.996,336.984,342.023,347.018,351.508,356.502,359.024,364.063,369.039,371.561,376.555,381.045,385.607,390.583,398.07,403.064,405.556,407.544,412.583,417.56,422.05,424.542,427.064,433.552,438.546,441.068,446.107,451.101,456.095,458.617,463.107,468.101,473.203,479.565,484.055,486.694,493.056,498.095,503.089,505.671,508.193,510.685,515.679,520.674" svgx:width="0.67,0.56,0.33,0.56,0.56,0.56,0.5,0.28,0.28,0.56,0.56,0.28,0.83,0.56,0.5,0.28,0.28,0.22,0.83,0.56,0.56,0.33,0.28,0.56,0.56,0.28,0.28,0.22,0.22,0.83,0.22,0.28,0.56,0.28,0.22,0.56,0.56,0.28,0.72,0.22,0.28,0.56,0.28,0.28,0.56,0.22,0.5,0.28,0.83,0.56,0.28,0.56,0.56,0.56,0.28,0.22,0.5,0.28,0.56,0.28,0.33,0.56,0.22,0.22,0.56,0.56,0.5,0.56,0.28,0.56,0.56,0.28,0.56,0.5,0.5,0.56,0.83,0.56,0.28,0.22,0.56,0.56,0.5,0.28,0.28,0.72,0.56,0.28,0.56,0.56,0.56,0.28,0.5,0.56,0.56,0.72,0.5,0.28,0.72,0.56,0.56,0.28,0.28,0.28,0.56,0.56,0.28" style="fill:rgb(0,0,0);font-family:ArialMT;font-size:9.0px;stroke:none;">Perhaps the most important limitation with this method is a reliance on assumptions. No one knows what the </text>
   <text y="491.469" x="90.0,94.996,100.037,104.529,107.023,109.544,114.54,119.536,124.577,129.573,134.569,142.13,144.12,148.612,151.133,157.551,159.586,161.576,163.566,166.088,171.084,174.145,176.135,181.13,186.126,188.62,191.142,199.666,204.644,207.166,212.206,217.184,219.174,221.164,226.16,230.724,235.702,238.224,240.718,245.713,250.709,253.203,255.725,257.715,260.209,262.731,264.721,269.212,271.734,276.73,281.726,284.22,286.714,291.71,294.699,297.063,299.556,304.551,307.072,312.067,314.056,319.096,324.073,326.594,329.087,334.082,337.07,339.591,344.586,347.107,354.595,359.59,362.578,367.573,370.094,374.585,379.58,384.071,389.111,392.099,397.094,399.614,404.609,409.1,414.095,419.09,421.583,424.104,426.597,431.592,436.587,439.08,441.718,448.072,450.106,452.095,454.084,456.605,458.594,463.589,468.584,473.147,478.142,480.663,483.156,488.151,493.146" svgx:width="0.56,0.56,0.5,0.28,0.28,0.56,0.56,0.56,0.56,0.56,0.83,0.22,0.5,0.28,0.72,0.22,0.22,0.22,0.28,0.56,0.33,0.22,0.56,0.56,0.28,0.28,0.94,0.56,0.28,0.56,0.56,0.22,0.22,0.56,0.5,0.56,0.28,0.28,0.56,0.56,0.28,0.28,0.22,0.28,0.28,0.22,0.5,0.28,0.56,0.56,0.28,0.28,0.56,0.33,0.28,0.28,0.56,0.28,0.56,0.22,0.56,0.56,0.28,0.28,0.56,0.33,0.28,0.56,0.28,0.83,0.56,0.33,0.56,0.28,0.5,0.56,0.5,0.56,0.33,0.56,0.28,0.56,0.5,0.56,0.56,0.28,0.28,0.28,0.56,0.56,0.28,0.28,0.72,0.22,0.22,0.22,0.28,0.22,0.56,0.56,0.5,0.56,0.28,0.28,0.56,0.56,0.28" style="fill:rgb(0,0,0);font-family:ArialMT;font-size:9.0px;stroke:none;">next pandemic will bring. We believe that it is better to plan for a more severe event that will leave the </text>
   <text y="501.846" x="90.0,94.561,98.942,103.432,105.923,110.916,118.402,120.924,125.917,130.478,135.472,138.458,143.451,146.509,151.502,156.496,161.489,164.547,169.54,174.533,177.055,179.546,184.54,189.578,194.553,197.075,199.566,204.559,207.081,210.067,212.054,216.544,221.033,223.555,228.548,233.541,235.582,240.575,245.569,248.09,253.084,258.122,263.115,268.153,271.139,276.133,279.119,284.112,289.15,294.125,297.112,302.105,307.098,309.589,312.111,318.598,323.636,330.052,335.09,339.579,344.572,347.558,350.05,352.571,355.063,360.056,362.043,366.532,369.054,374.047,379.085,384.124,387.119,392.112,397.105,401.594,406.588,409.109,416.596,421.634,426.123,428.645,433.683,438.658,441.18,445.669,447.656,452.758,459.119,464.157,469.132,471.654,476.692,481.127,483.649,488.138,493.132,500.69,505.665,508.187,513.18,517.669" svgx:width="0.5,0.5,0.5,0.28,0.56,0.83,0.28,0.56,0.5,0.56,0.33,0.56,0.33,0.56,0.56,0.56,0.33,0.56,0.56,0.28,0.28,0.56,0.56,0.56,0.28,0.28,0.56,0.28,0.33,0.22,0.5,0.5,0.28,0.56,0.56,0.22,0.56,0.56,0.28,0.56,0.56,0.56,0.56,0.33,0.56,0.33,0.56,0.56,0.56,0.33,0.56,0.56,0.28,0.28,0.72,0.56,0.72,0.56,0.5,0.56,0.33,0.28,0.28,0.28,0.56,0.22,0.5,0.28,0.56,0.56,0.56,0.33,0.56,0.56,0.5,0.56,0.28,0.83,0.56,0.5,0.28,0.56,0.56,0.28,0.5,0.22,0.56,0.72,0.56,0.56,0.28,0.56,0.5,0.28,0.5,0.56,0.83,0.56,0.28,0.56,0.5,0.28" style="fill:rgb(0,0,0);font-family:ArialMT;font-size:9.0px;stroke:none;">system overprepared than to risk being underprepared. However, this approach may be viewed by some as </text>
   <text y="512.169" x="90.0,94.993,99.986,105.025,110.018,114.507,119.5,123.989,128.551,133.526,136.584,140.965,143.551,148.589,151.593,154.116,156.607,161.6,166.594,169.116,174.109,178.599,183.592,188.585,193.578,198.139,200.127,204.616,209.654,212.172,214.695,220.687,223.21,227.699,230.19,233.176,238.17,240.661,242.648,245.139,247.126,252.12,257.113,259.636,264.629,269.622,272.608,277.097,282.091,287.084,291.573,296.566,299.089,304.127,306.105,311.098,316.092,318.583,321.057,323.091,328.068,330.59,337.007,342.047,344.036,348.527,353.522,356.107,361.102,363.623,366.116,369.104,374.099,378.59,381.083,383.072,388.112,393.089,395.611,400.606,403.099,405.621,410.616,415.107,419.598,424.593,429.588,432.081,434.115,439.092,441.081,443.603,445.592,448.175,453.17,460.658,465.149,467.671,469.66,474.151,476.672,481.667,486.662,489.65,494.141,499.181,504.176,508.739,513.734,518.729" svgx:width="0.56,0.56,0.56,0.56,0.5,0.56,0.5,0.5,0.56,0.33,0.5,0.28,0.56,0.33,0.28,0.28,0.56,0.56,0.28,0.56,0.5,0.56,0.56,0.56,0.5,0.22,0.5,0.56,0.28,0.28,0.67,0.28,0.5,0.28,0.33,0.56,0.28,0.22,0.28,0.22,0.56,0.56,0.28,0.56,0.56,0.33,0.5,0.56,0.56,0.5,0.56,0.28,0.56,0.22,0.56,0.56,0.28,0.28,0.22,0.56,0.28,0.72,0.56,0.22,0.5,0.56,0.28,0.56,0.28,0.28,0.33,0.56,0.5,0.28,0.22,0.56,0.56,0.28,0.56,0.28,0.28,0.56,0.5,0.5,0.56,0.56,0.28,0.22,0.56,0.22,0.28,0.22,0.28,0.56,0.83,0.5,0.28,0.22,0.5,0.28,0.56,0.56,0.33,0.5,0.56,0.56,0.5,0.56,0.56,0.28" style="fill:rgb(0,0,0);font-family:ArialMT;font-size:9.0px;stroke:none;">unnecessary or too expensive. A stratified purchase plan, in which a fraction of essential items is purchased </text>
   <text y="522.546" x="90.0,94.989,99.977,102.959,104.996,109.984,114.973,116.956,121.513,126.492,128.475,130.512,134.996,137.483,140.005,141.988,146.472,149.057,152.039,157.027,161.512,166.501,173.983,181.464,186.498,191.487,196.475,201.509,206.498,209.02,214.008,218.997,221.519,224.005,228.994,233.983,236.505,241.538,246.518,251.003,252.985,257.47,259.992,264.981,267.467,269.989,274.978,279.462,284.451,286.434,288.471,293.45,298.484,300.467,302.449,304.432,307.009,311.493,314.037,319.034,321.529,324.05,326.545,331.542,336.539,341.536,346.028,348.523,351.045,357.041,362.038,369.527,374.524,377.046,384.608,389.65,394.025,396.547,399.042,404.039,408.595,413.573,416.563,419.085,424.082,429.079,432.068,436.561,441.603,446.6,451.093,456.089,458.611,463.608,466.103,468.625,473.621,475.612,477.603,480.125,482.116,484.61,489.607,497.097,501.653,504.175,506.165,511.162,513.684,518.681" svgx:width="0.56,0.56,0.33,0.22,0.56,0.56,0.22,0.5,0.56,0.22,0.22,0.5,0.28,0.28,0.22,0.5,0.28,0.33,0.56,0.5,0.56,0.83,0.83,0.56,0.56,0.56,0.56,0.56,0.28,0.56,0.56,0.28,0.28,0.56,0.56,0.28,0.56,0.56,0.5,0.22,0.5,0.28,0.56,0.28,0.28,0.56,0.5,0.56,0.22,0.22,0.56,0.56,0.22,0.22,0.22,0.28,0.5,0.28,0.56,0.28,0.28,0.28,0.56,0.56,0.56,0.5,0.28,0.28,0.67,0.56,0.83,0.56,0.28,0.83,0.56,0.5,0.28,0.28,0.56,0.5,0.56,0.33,0.28,0.56,0.56,0.33,0.5,0.56,0.56,0.5,0.56,0.28,0.56,0.28,0.28,0.56,0.22,0.22,0.28,0.22,0.28,0.56,0.83,0.5,0.28,0.22,0.56,0.28,0.56,0.28" style="fill:rgb(0,0,0);font-family:ArialMT;font-size:9.0px;stroke:none;">periodically, is recommended on the basis of availability of funds. Some may favor purchase of all items in 1 </text>
   <text y="532.869" x="90.0,94.49,99.484,101.976,106.97,111.964,116.959,120.018,124.508,127.03,132.069,137.045,139.537,144.531,147.59,152.566,155.088,162.575,167.569,172.059,174.047,179.086,184.063,186.584,189.076,194.071,196.592,199.084,204.079,209.073,211.594,216.589,221.628,226.118,228.61,231.132,235.622,240.616,243.108,248.102,253.141,258.117,261.176,265.612,268.104" svgx:width="0.5,0.56,0.28,0.56,0.56,0.56,0.33,0.5,0.28,0.56,0.56,0.28,0.56,0.33,0.56,0.28,0.83,0.56,0.5,0.22,0.56,0.56,0.28,0.28,0.56,0.28,0.28,0.56,0.56,0.28,0.56,0.56,0.5,0.28,0.28,0.5,0.56,0.28,0.56,0.56,0.56,0.33,0.5,0.28,0.28" style="fill:rgb(0,0,0);font-family:ArialMT;font-size:9.0px;stroke:none;">category before moving to the next category. </text>
   <text y="557.232" x="90.0,95.584,100.573,105.563,108.085,110.572,115.562,118.544,126.027,131.017,133.504,135.488,140.477,145.467,147.989,152.978,157.968,162.958,165.479,172.962,177.997,182.986,188.021,193.01,198.0,205.564,210.553,215.543,218.03,220.552,225.542,228.029,230.551,235.541,238.062,243.052,248.042,253.076,258.066,263.1,270.583,272.567,277.052,279.574,284.06,289.049,294.039,299.073,301.111,305.489,308.01,312.568,317.549,322.106,327.096,332.085,334.724,341.082,346.116,351.106,353.09,358.079,360.601,363.584,368.618,373.608,378.642,380.68,383.681,388.67,391.192,395.678,400.667,405.657,410.142,412.18,417.17,422.159,425.142,430.176,435.157,437.195,442.175,444.697,449.687,454.676,462.159,467.193,472.174,474.696,479.685,484.72,489.71" svgx:width="0.61,0.56,0.56,0.28,0.28,0.56,0.33,0.83,0.56,0.28,0.22,0.56,0.56,0.28,0.56,0.56,0.56,0.28,0.83,0.56,0.56,0.56,0.56,0.56,0.83,0.56,0.56,0.28,0.28,0.56,0.28,0.28,0.56,0.28,0.56,0.56,0.56,0.56,0.56,0.83,0.22,0.5,0.28,0.5,0.56,0.56,0.56,0.22,0.5,0.28,0.5,0.56,0.5,0.56,0.56,0.28,0.72,0.56,0.56,0.22,0.56,0.28,0.33,0.56,0.56,0.56,0.22,0.33,0.56,0.28,0.5,0.56,0.56,0.5,0.22,0.56,0.56,0.33,0.56,0.56,0.22,0.56,0.28,0.56,0.56,0.83,0.56,0.56,0.28,0.56,0.56,0.56,0.28" style="fill:rgb(0,0,0);font-family:ArialMT;font-size:9.0px;stroke:none;">The formation and management of a pandemic supply cache would require considerable human and </text>
   <text y="567.609" x="90.0,92.49,94.477,99.469,104.461,109.453,114.014,116.0,120.992,122.979,125.5,128.486,133.478,138.038,143.031,148.023,151.08,155.569,160.561,165.049,167.539,169.998,175.576,180.568,185.56,188.082,190.068,195.061,199.549,204.541,206.527,209.112,214.105,216.595,219.117,223.605,228.597,236.083,243.568,245.554,248.044,255.53,260.522,265.514,268.095,270.616,278.102,283.139,287.519,290.041,295.078,300.053,302.575,307.063,309.049,314.149,320.508,325.607,330.59,333.112,338.148,342.527,345.049,349.608,354.591,362.084,367.085,369.606,374.607,379.643,384.644,386.683,389.181,394.182,398.678,403.679,406.672,411.672,414.194,418.754,423.196,427.692,430.191,435.191,442.685,447.244,449.766,454.766,459.263,461.784,464.283,469.283,474.284,476.805,481.302,486.302,490.799,493.297,495.336,499.716,502.214" svgx:width="0.28,0.22,0.56,0.56,0.56,0.5,0.22,0.56,0.22,0.28,0.33,0.56,0.5,0.56,0.56,0.33,0.5,0.56,0.5,0.28,0.28,0.61,0.56,0.56,0.28,0.22,0.56,0.5,0.56,0.22,0.28,0.56,0.28,0.28,0.5,0.56,0.83,0.83,0.22,0.28,0.83,0.56,0.56,0.28,0.28,0.83,0.56,0.5,0.28,0.56,0.56,0.28,0.5,0.22,0.56,0.72,0.56,0.56,0.28,0.56,0.5,0.28,0.5,0.56,0.83,0.56,0.28,0.56,0.56,0.56,0.22,0.28,0.56,0.5,0.56,0.33,0.56,0.28,0.5,0.5,0.5,0.28,0.56,0.83,0.5,0.28,0.56,0.5,0.28,0.28,0.56,0.56,0.28,0.5,0.56,0.5,0.28,0.22,0.5,0.28,0.28" style="fill:rgb(0,0,0);font-family:ArialMT;font-size:9.0px;stroke:none;">financial resources. The level of commitment may be viewed by some healthcare systems as too costly, </text>
   <text y="577.932" x="90.0,94.99,99.475,104.465,109.454,114.012,115.996,120.985,123.023,125.06,129.438,132.023,134.006,138.996,141.518,146.552,151.533,154.055,159.044,162.027,167.017,169.538,174.528,177.016,179.537,184.527,189.013,194.047,199.028,204.062,211.563,213.547,218.032,220.554,222.538,227.527,232.013,234.5,239.49,244.525,246.508,248.492,250.475,253.053,257.538,260.06,265.095,270.084,275.074,277.596,282.585,287.62,292.61,294.593,297.081,302.04,306.604,311.582,314.571,319.567,322.151,326.715,331.099,335.591,338.085,343.081,350.57,353.092,355.081,360.077,364.569,367.153,372.149,377.145,379.18,381.17,383.205,385.789,390.173,392.694,394.684,396.674,401.166,406.207,408.242,412.626,415.148,418.208,423.186,428.227,433.205,435.195,438.184,440.219,445.215,450.211,452.733,460.221,465.217,467.252,472.23,475.219,477.741,480.73,485.726,488.22,493.215,496.276,503.774,506.268" svgx:width="0.56,0.5,0.56,0.56,0.5,0.22,0.56,0.22,0.22,0.5,0.28,0.22,0.56,0.28,0.56,0.56,0.28,0.56,0.33,0.56,0.28,0.56,0.28,0.28,0.56,0.5,0.56,0.56,0.56,0.83,0.22,0.5,0.28,0.22,0.56,0.5,0.28,0.56,0.56,0.22,0.22,0.22,0.28,0.5,0.28,0.56,0.56,0.56,0.28,0.56,0.56,0.56,0.22,0.28,0.56,0.5,0.56,0.33,0.56,0.28,0.5,0.5,0.5,0.28,0.56,0.83,0.28,0.22,0.56,0.5,0.28,0.56,0.56,0.22,0.22,0.22,0.28,0.5,0.28,0.22,0.22,0.5,0.56,0.22,0.5,0.28,0.33,0.56,0.56,0.56,0.22,0.33,0.22,0.56,0.56,0.28,0.83,0.56,0.22,0.56,0.33,0.28,0.33,0.56,0.28,0.56,0.33,0.83,0.28,0.28" style="fill:rgb(0,0,0);font-family:ArialMT;font-size:9.0px;stroke:none;">especially in an era of economic instability and healthcare system instability likely requiring major reform. </text>
   <text y="588.309" x="90.0,95.996,100.993,108.482,113.479,116.001,120.998,123.493,126.014,128.509,133.506,138.503,141.025,148.514,153.511,156.501,161.498,164.02,167.009,172.006,176.499,181.541,186.538,189.527,194.02,199.017,202.007,204.043,209.084,211.606,216.603,221.6,226.093,228.083,232.576,237.573,240.095,244.588,249.584,257.146,262.125,267.167,272.164,277.16,282.157,284.652,289.145,291.667,296.663,299.158,301.68,304.083,309.075,314.068,316.589,321.582,324.639,329.631,334.624,339.616,344.176,349.169,354.161,356.683,361.72,366.712,371.705,374.69,379.727,384.765,389.262,394.254,396.744,399.266,403.755,408.747,413.235,418.227,420.749,425.742,430.23,432.752,435.242,440.234,445.272,447.793,452.282,454.772,459.764,462.75,467.742,472.734,477.727,480.248,485.241,487.731,490.253,492.239,494.729,499.767,507.27,511.758,514.28,516.266,521.259" svgx:width="0.67,0.56,0.83,0.56,0.28,0.56,0.28,0.28,0.28,0.56,0.56,0.28,0.83,0.56,0.33,0.56,0.28,0.33,0.56,0.5,0.56,0.56,0.33,0.5,0.56,0.33,0.22,0.56,0.28,0.56,0.56,0.5,0.22,0.5,0.56,0.28,0.5,0.56,0.83,0.56,0.56,0.56,0.56,0.56,0.28,0.5,0.28,0.56,0.28,0.28,0.28,0.56,0.56,0.28,0.56,0.33,0.56,0.56,0.56,0.5,0.56,0.56,0.28,0.56,0.56,0.56,0.33,0.56,0.56,0.5,0.56,0.28,0.28,0.5,0.56,0.5,0.56,0.28,0.56,0.5,0.28,0.28,0.56,0.56,0.28,0.5,0.28,0.56,0.33,0.56,0.56,0.56,0.28,0.56,0.28,0.28,0.22,0.28,0.56,0.83,0.5,0.28,0.22,0.56,0.28" style="fill:rgb(0,0,0);font-family:ArialMT;font-size:9.0px;stroke:none;">Some of the more resource-intensive components of the proposed approach, such as the storage of items in </text>
   <text y="598.632" x="90.0,94.992,97.513,102.001,104.492,109.484,111.974,114.465,119.457,124.449,126.97,131.459,136.451,141.443,143.933,146.919,151.911,153.897,156.418,158.908,163.901,168.389,170.375,172.362,174.348,176.928,181.417,183.907,186.545,192.905,197.879,200.937,205.974,208.495,210.985,215.977,220.466,222.452,224.438,226.425,229.023,234.013,236.502,241.492,246.483,249.005,254.04,258.482,261.004,263.582,268.573,273.563,276.085,278.069,283.06,286.115,291.106,296.096,298.618,303.105,305.089,309.576,314.566,317.151,322.141,324.63,327.152,332.142,337.133,340.116,342.638,347.629,352.619,357.655,359.639,362.128,367.118,371.578,376.568,379.624,384.659,387.181,391.739,396.118,400.604,403.093,408.083,415.567,418.089,423.079,428.115,433.105,435.627,440.618,445.176,450.167,452.151,454.136,459.171,464.162,466.2,471.191,473.712,476.696,481.686,486.173,491.208,496.199,499.182,503.669,508.659,513.146,515.634" svgx:width="0.56,0.28,0.5,0.28,0.56,0.28,0.28,0.56,0.56,0.28,0.5,0.56,0.56,0.28,0.33,0.56,0.22,0.28,0.28,0.56,0.5,0.22,0.22,0.22,0.28,0.5,0.28,0.28,0.72,0.56,0.33,0.56,0.28,0.28,0.56,0.5,0.22,0.22,0.22,0.28,0.56,0.28,0.56,0.56,0.28,0.56,0.5,0.28,0.28,0.56,0.56,0.28,0.22,0.56,0.33,0.56,0.56,0.28,0.5,0.22,0.5,0.56,0.28,0.56,0.28,0.28,0.56,0.56,0.33,0.28,0.56,0.56,0.56,0.22,0.28,0.56,0.5,0.56,0.33,0.56,0.28,0.5,0.5,0.5,0.28,0.56,0.83,0.28,0.56,0.56,0.56,0.28,0.56,0.5,0.56,0.22,0.22,0.56,0.56,0.22,0.56,0.28,0.33,0.56,0.5,0.56,0.56,0.33,0.5,0.56,0.5,0.28,0.28" style="fill:rgb(0,0,0);font-family:ArialMT;font-size:9.0px;stroke:none;">a staffed central facility, were facilitated by the large size of our healthcare system and available resources. </text>
   <text y="609.009" x="90.0,95.993,100.483,105.477,107.465,112.46,117.022,119.01,124.004,128.998,131.52,136.514,139.036,143.526,145.568,153.055,155.043,157.031,162.025,165.012,167.534,172.528,175.515,180.554,185.548,190.543,195.033,197.525,200.047,202.089,207.065,209.587,212.079,217.073,222.067,224.589,229.583,232.57,234.558,239.048,244.042,246.534,251.528,254.05,258.612,263.588,268.078,270.571,275.565,278.552,281.044,283.629,289.991,295.03,300.024,303.011,308.005,310.527,315.566,320.56,325.554,327.542,330.034,335.029,339.591,344.567,347.554,352.548,355.07,359.632,364.068,368.558,371.05,376.089,383.585,388.076,390.597,395.591,398.579,403.573,406.094,408.677,413.059,418.053,420.041,424.603,429.579,431.621,433.663,438.099,440.621,448.108,453.102,457.592,462.587,465.108,469.598,477.086,482.125,484.104,486.146,491.122,494.181,496.703,499.195,504.189,509.183,514.177" svgx:width="0.67,0.5,0.56,0.22,0.56,0.5,0.22,0.56,0.56,0.28,0.56,0.28,0.5,0.22,0.83,0.22,0.22,0.56,0.33,0.28,0.56,0.33,0.56,0.56,0.56,0.5,0.28,0.28,0.22,0.56,0.28,0.28,0.56,0.56,0.28,0.56,0.33,0.22,0.5,0.56,0.28,0.56,0.28,0.5,0.56,0.5,0.28,0.56,0.33,0.28,0.28,0.72,0.56,0.56,0.33,0.56,0.28,0.56,0.56,0.56,0.22,0.28,0.56,0.5,0.56,0.33,0.56,0.28,0.5,0.5,0.5,0.28,0.56,0.83,0.5,0.28,0.56,0.33,0.56,0.28,0.28,0.5,0.56,0.22,0.5,0.56,0.22,0.22,0.5,0.28,0.83,0.56,0.5,0.56,0.28,0.5,0.83,0.56,0.22,0.22,0.56,0.33,0.28,0.28,0.56,0.56,0.56,0.28" style="fill:rgb(0,0,0);font-family:ArialMT;font-size:9.0px;stroke:none;">Achieving a similar product in the private sector, where healthcare systems are typically much smaller than </text>
   <text y="619.332" x="90.0,92.492,97.486,102.48,106.97,111.965,114.486,116.474,121.469,123.99,126.482,131.521,136.516,139.037,141.529,146.524,151.518,156.512,159.499,164.538,166.517,168.559,172.995,175.517,183.004,187.998,193.037,198.013,203.053,208.047,213.041,215.563,221.556,227.549,230.041,232.563,240.05,242.038,247.032,252.026,254.518,257.04,260.027,265.021,270.015,275.054,277.042,280.03,285.024,287.545,292.54,295.02,300.057,305.032,308.017,310.507,315.5,320.537,323.522,328.01,333.003,334.989,339.981,342.503,347.495,355.053,360.045,365.037,370.03,372.551,380.109,385.083,387.069,389.56,391.546,396.538,398.579,403.553,406.075,411.067,416.104,421.097,423.083,425.573,430.565,435.126,440.163,443.148,448.141,450.663,455.223,459.603,464.091,466.582,471.574,479.059,483.548,486.069,488.056,493.048,495.633,500.67" svgx:width="0.28,0.56,0.56,0.5,0.56,0.28,0.22,0.56,0.28,0.28,0.56,0.56,0.28,0.28,0.56,0.56,0.56,0.33,0.56,0.22,0.22,0.5,0.28,0.83,0.56,0.56,0.56,0.56,0.56,0.56,0.28,0.67,0.67,0.28,0.28,0.83,0.22,0.56,0.56,0.28,0.28,0.33,0.56,0.56,0.56,0.22,0.33,0.56,0.28,0.56,0.28,0.56,0.56,0.33,0.28,0.56,0.56,0.33,0.5,0.56,0.22,0.56,0.28,0.56,0.83,0.56,0.56,0.56,0.28,0.83,0.56,0.22,0.28,0.22,0.56,0.22,0.56,0.28,0.56,0.56,0.56,0.22,0.28,0.56,0.5,0.56,0.33,0.56,0.28,0.5,0.5,0.5,0.28,0.56,0.83,0.5,0.28,0.22,0.56,0.28,0.56,0.28" style="fill:rgb(0,0,0);font-family:ArialMT;font-size:9.0px;stroke:none;">those in the federally managed VA, might require a partnership among multiple healthcare systems in a </text>
   <text y="629.709" x="90.0,92.983,97.972,102.962,104.999,109.989,114.979,117.466" svgx:width="0.33,0.56,0.56,0.22,0.56,0.56,0.28,0.28" style="fill:rgb(0,0,0);font-family:ArialMT;font-size:9.0px;stroke:none;">region. </text>
   <text y="654.009" x="90.0,96.993,101.988,106.983,109.505,114.5,116.993,119.515,122.008,127.003,131.998,134.519,142.007,147.002,151.493,153.986,156.508,160.999,165.994,173.482,180.97,185.965,190.96,193.482,198.477,203.517,208.512,211.097,217.451,219.485,224.525,229.502,231.536,235.973,238.495,243.481,248.522,250.503,255.49,258.071,265.551,267.532,272.015,276.498,281.485,286.472,291.036,296.023,301.01,303.494,305.475,310.516,315.557,320.058,322.639,328.994,333.972,336.553,341.54,346.527,351.01,356.051,361.038,366.025,368.51,373.496,376.557,381.544,386.531,389.223,395.582,400.565,405.052,407.574,410.063,415.055,420.046,422.631,427.622,432.614,435.103,437.143,442.134,447.125,449.647,452.137,457.128,462.119,464.609,467.131,472.122,474.644,479.635,484.672,489.663,491.648,494.228,499.21,503.698,508.689,511.673,516.665" svgx:width="0.78,0.56,0.56,0.28,0.56,0.28,0.28,0.28,0.56,0.56,0.28,0.83,0.56,0.5,0.28,0.28,0.5,0.56,0.83,0.83,0.56,0.56,0.28,0.56,0.56,0.56,0.28,0.72,0.22,0.56,0.56,0.22,0.5,0.28,0.56,0.56,0.22,0.56,0.28,0.83,0.22,0.5,0.5,0.56,0.56,0.5,0.56,0.56,0.28,0.22,0.56,0.56,0.5,0.28,0.72,0.56,0.28,0.56,0.56,0.5,0.56,0.56,0.56,0.28,0.56,0.33,0.56,0.56,0.28,0.72,0.56,0.5,0.28,0.28,0.56,0.56,0.28,0.56,0.56,0.28,0.22,0.56,0.56,0.28,0.28,0.56,0.56,0.28,0.28,0.56,0.28,0.56,0.56,0.56,0.22,0.28,0.56,0.5,0.56,0.33,0.56,0.28" style="fill:rgb(0,0,0);font-family:ArialMT;font-size:9.0px;stroke:none;">One of the most common and widely held misconceptions we encountered was the notion that a healthcare </text>
   <text y="664.386" x="90.0,94.558,98.935,103.43,105.926,110.925,118.417,120.938,125.433,130.468,135.466,137.459,142.457,144.979,150.014,154.994,157.516,162.011,164.507,167.499,172.498,176.992,181.487,186.485,191.484,194.006,196.502,201.501,204.023,206.519,211.518,216.517,219.038,224.037,227.029,232.063,237.044,241.538,243.531,248.566,253.546,256.068,261.066,266.101,268.094,273.092,275.589,278.086,280.607,285.102,290.101,294.595,299.594,302.116,304.56,309.551,314.543,317.032,319.554,324.545,327.067,329.053,334.044,337.028,342.065,347.056,349.578,354.065,359.057,362.041,367.033,372.024,374.609,379.6,382.09,384.611,389.603,394.594,397.084,399.069,404.105,409.097,411.597,416.08,418.602,423.085,428.072,433.058,435.093,440.08,442.602,447.589,452.072,457.059,462.046,464.531,469.571,474.549,476.53,478.565,483.048,485.57,488.55,493.591,498.577,503.618,508.605,511.585,514.107,519.094" svgx:width="0.5,0.5,0.5,0.28,0.56,0.83,0.28,0.5,0.56,0.56,0.22,0.56,0.28,0.56,0.56,0.28,0.5,0.28,0.33,0.56,0.5,0.5,0.56,0.56,0.28,0.28,0.56,0.28,0.28,0.56,0.56,0.28,0.56,0.33,0.56,0.56,0.5,0.22,0.56,0.56,0.28,0.56,0.56,0.22,0.56,0.28,0.28,0.28,0.5,0.56,0.5,0.56,0.28,0.28,0.56,0.56,0.28,0.28,0.56,0.28,0.22,0.56,0.33,0.56,0.56,0.28,0.5,0.56,0.33,0.56,0.56,0.28,0.56,0.28,0.28,0.56,0.56,0.28,0.22,0.56,0.56,0.28,0.5,0.28,0.5,0.56,0.56,0.22,0.56,0.28,0.56,0.5,0.56,0.56,0.28,0.56,0.56,0.22,0.22,0.5,0.28,0.33,0.56,0.56,0.56,0.56,0.33,0.28,0.56,0.28" style="fill:rgb(0,0,0);font-family:ArialMT;font-size:9.0px;stroke:none;">system could be stressed to the breaking point, such that a large surge of patients could eventually render a </text>
   <text y="674.709" x="90.0,94.999,99.999,104.494,109.53,111.505,114.003,119.002,120.996,123.518,128.553,133.553,138.552,143.588,145.581,150.617,153.139,155.636,160.636,163.157,165.655,170.654,175.654,180.149,182.647,184.64,189.64,194.639,197.137,199.659,202.156,204.654,207.175,209.097,213.592,216.114,221.114,226.113,229.106,231.628,236.123,238.117,243.215,249.574,252.095,254.593,259.592,264.592,267.089,269.674,271.668,276.667,279.189,282.181,287.037,292.072,294.055,296.039,298.616,302.994,305.518,308.039,313.074,318.064,323.053,325.037,327.614,332.595,337.081,342.07,345.053,350.042,352.564,357.122,361.562,366.048,368.536,373.525,381.008,385.493,388.078,393.068,396.05,401.04,403.562,408.551,413.541,418.099,420.082,425.072,430.106,435.096,440.086,442.607,445.185,450.165,452.687,457.677,462.666,467.656,470.72,475.709,478.197,483.186,485.708,487.692,492.681,495.203,500.193" svgx:width="0.56,0.56,0.5,0.56,0.22,0.28,0.56,0.22,0.28,0.56,0.56,0.56,0.56,0.22,0.56,0.28,0.28,0.56,0.28,0.28,0.56,0.56,0.5,0.28,0.22,0.56,0.56,0.28,0.28,0.28,0.28,0.28,0.22,0.5,0.28,0.56,0.56,0.33,0.28,0.5,0.22,0.56,0.72,0.28,0.28,0.56,0.56,0.28,0.28,0.22,0.56,0.28,0.33,0.56,0.56,0.22,0.22,0.28,0.5,0.28,0.28,0.56,0.56,0.56,0.22,0.28,0.56,0.5,0.56,0.33,0.56,0.28,0.5,0.5,0.5,0.28,0.56,0.83,0.5,0.28,0.56,0.33,0.56,0.28,0.56,0.56,0.5,0.22,0.56,0.56,0.56,0.56,0.28,0.28,0.56,0.28,0.56,0.56,0.56,0.33,0.56,0.28,0.56,0.28,0.22,0.56,0.28,0.56,0.28" style="fill:rgb(0,0,0);font-family:ArialMT;font-size:9.0px;stroke:none;">hospital unable to function. It is our view that in reality, healthcare systems are designed to operate in a </text>
   <text y="685.086" x="90.0,94.991,97.976,102.967,108.004,112.995,117.986,120.508,122.998,127.989,132.476,137.513,139.498,144.49,149.526,152.051,154.573,160.564,162.549,165.038,170.03,175.021,180.013,185.004,189.995,192.517,194.503,196.992,199.514,201.499,205.987,208.571,211.061,216.052,221.044,226.035,229.019,234.011,236.52,238.507,243.068,248.062,250.049,252.09,256.525,259.047,263.536,268.574,273.568,278.057,283.05,285.037,289.598,294.592,299.585,301.626,306.619,309.141,311.632,316.625,321.619,324.11,326.632,331.625,334.147,338.636,343.629,346.12,351.113,355.603,358.094,361.08,366.067,371.054,376.095,381.082,383.666,388.149,393.136,398.123,400.158,405.145,407.667,412.15,417.136,422.123,426.687,431.674,434.196,439.183,444.224,448.707,453.694,455.674,458.159,463.146,465.127,469.61,472.132,474.617,479.604,482.125,486.608,491.595,496.582,501.146,506.133" svgx:width="0.56,0.33,0.56,0.56,0.56,0.56,0.28,0.28,0.56,0.5,0.56,0.22,0.56,0.56,0.28,0.28,0.67,0.22,0.28,0.56,0.56,0.56,0.56,0.56,0.28,0.22,0.28,0.28,0.22,0.5,0.28,0.28,0.56,0.56,0.56,0.33,0.56,0.28,0.22,0.5,0.56,0.22,0.22,0.5,0.28,0.5,0.56,0.56,0.5,0.56,0.22,0.5,0.56,0.56,0.22,0.56,0.28,0.28,0.56,0.56,0.28,0.28,0.56,0.28,0.5,0.56,0.28,0.56,0.5,0.28,0.33,0.56,0.56,0.56,0.56,0.28,0.5,0.56,0.56,0.22,0.56,0.28,0.5,0.56,0.56,0.5,0.56,0.28,0.56,0.56,0.5,0.56,0.22,0.28,0.56,0.22,0.5,0.28,0.28,0.56,0.28,0.5,0.56,0.56,0.5,0.56,0.28" style="fill:rgb(0,0,0);font-family:ArialMT;font-size:9.0px;stroke:none;">graded fashion. Although it is theoretically conceivable that a catastrophe could cause hospitals to cease </text>
   <text y="695.409" x="90.0,92.497,97.495,102.494,106.988,109.485,111.478,116.476,121.511,123.503,128.538,133.537,136.033,138.555,140.548,143.044,145.566,147.559,152.053,154.575,162.067,167.065,171.56,176.558,179.08,186.572,191.57,194.562,199.561,202.082,204.075,206.113,210.607,215.606,217.643,222.021,224.543,227.12,232.119,237.118,239.614,242.136,244.633,249.631,254.666,259.043,261.54,267.954,269.995,271.981,273.967,276.489,280.977,286.015,291.007,293.497,295.483,300.521,305.513,310.505,313.027,315.518,320.555,325.547,330.035,332.526,334.512,339.504,344.542,346.528,351.52,356.513,359.003,361.525,366.517,371.077,376.07,381.107,383.629,388.621,393.613,398.606,403.598,406.583,409.105,411.595,416.588,421.58,424.102,431.659,436.633,441.194,443.711,446.233,451.225,458.71,460.697,465.689,470.681,475.674,480.162" svgx:width="0.28,0.56,0.56,0.5,0.28,0.22,0.56,0.56,0.22,0.56,0.56,0.28,0.28,0.22,0.28,0.28,0.22,0.5,0.28,0.83,0.56,0.5,0.56,0.28,0.83,0.56,0.33,0.56,0.28,0.22,0.22,0.5,0.56,0.22,0.5,0.28,0.28,0.56,0.56,0.28,0.28,0.28,0.56,0.56,0.5,0.28,0.72,0.22,0.22,0.22,0.28,0.5,0.56,0.56,0.28,0.22,0.56,0.56,0.56,0.28,0.28,0.56,0.56,0.5,0.28,0.22,0.56,0.56,0.22,0.56,0.56,0.28,0.28,0.56,0.5,0.56,0.56,0.28,0.56,0.56,0.56,0.56,0.33,0.28,0.28,0.56,0.56,0.28,0.83,0.56,0.5,0.28,0.28,0.56,0.83,0.22,0.56,0.56,0.56,0.5,0.28" style="fill:rgb(0,0,0);font-family:ArialMT;font-size:9.0px;stroke:none;">functioning, it is much more likely that they will continue functioning, even under the most ominous </text>
   <text y="705.786" x="90.0,94.493,96.484,99.473,103.966,108.963,116.453,120.946,123.44,128.437,133.434,137.99,142.987,147.479,150.001" svgx:width="0.5,0.22,0.33,0.5,0.56,0.83,0.5,0.28,0.56,0.56,0.5,0.56,0.5,0.28,0.33" style="fill:rgb(0,0,0);font-family:ArialMT;font-size:9.0px;stroke:none;">circumstances (</text>
   <text y="705.786" x="153.0,157.979,162.958,167.999,172.978" svgx:width="0.56,0.56,0.56,0.56,0.56" style="fill:rgb(0,51,101);font-family:Arial-ItalicMT;font-size:9.0px;stroke:none;">15–17</text>
  </g>
  <g begin="text">
   <text y="705.78" x="177.96,180.948,183.441,185.963,194.486,199.481,204.476,206.969,209.491,215.908,217.942,219.931,221.92,224.441,228.932,233.972,238.967,244.007,249.002,253.997,256.519,258.508,262.999,265.521,268.014,273.009,278.004,280.526,285.017,287.51,292.505,297.5,302.54,307.535,310.523,315.518,318.04,323.035,325.528,328.112,332.603,337.598,340.586,345.581,348.067,350.56,355.555,360.55,363.043,365.565,367.554,372.045,374.567,379.562,384.557,386.591,388.625,393.125,398.12,401.108,406.103,411.098,413.591,416.113,423.601,428.596,433.636,438.073,440.594,445.634,450.611,453.104,455.093,460.088,465.083,467.576,472.067,474.589,482.077,487.117,491.608,494.13,499.125,504.165,508.656,513.651" svgx:width="0.33,0.28,0.28,0.94,0.56,0.56,0.28,0.28,0.72,0.22,0.22,0.22,0.28,0.5,0.56,0.56,0.56,0.56,0.56,0.28,0.22,0.5,0.28,0.28,0.56,0.56,0.28,0.5,0.28,0.56,0.56,0.56,0.56,0.33,0.56,0.28,0.56,0.28,0.28,0.5,0.56,0.33,0.56,0.28,0.28,0.56,0.56,0.28,0.28,0.22,0.5,0.28,0.56,0.56,0.22,0.22,0.5,0.56,0.33,0.56,0.56,0.28,0.28,0.83,0.56,0.56,0.5,0.28,0.56,0.56,0.28,0.22,0.56,0.56,0.28,0.5,0.28,0.83,0.56,0.5,0.28,0.56,0.56,0.5,0.56,0.28" style="fill:rgb(0,0,0);font-family:ArialMT;font-size:9.0px;stroke:none;">). What will change is the standard of care that is delivered; many patients may have </text>
   <text y="716.103" x="90.003,94.994,99.48,103.967,108.957,113.444,117.93,120.452,122.94,127.931,130.453,132.437,137.428,141.914,146.401,148.985,151.969,156.959,161.446,166.436,171.427,174.41,178.969,183.95,188.437,190.959,193.447,198.438,203.428,208.464,211.048,217.407,222.442,227.433,229.471,234.462,236.984,241.974,246.965,249.948,257.432,262.467,264.452,266.49,270.977,273.499,278.534,283.516,286.037,291.028,295.514,300.505,302.543,304.528,309.563,314.554,316.538,321.529,324.051" svgx:width="0.56,0.5,0.5,0.56,0.5,0.5,0.28,0.28,0.56,0.28,0.22,0.56,0.5,0.5,0.28,0.33,0.56,0.5,0.56,0.56,0.33,0.5,0.56,0.5,0.28,0.28,0.56,0.56,0.56,0.28,0.72,0.56,0.56,0.22,0.56,0.28,0.56,0.56,0.33,0.83,0.56,0.22,0.22,0.5,0.28,0.56,0.56,0.28,0.56,0.5,0.56,0.22,0.22,0.56,0.56,0.22,0.56,0.28,0.33" style="fill:rgb(0,0,0);font-family:ArialMT;font-size:9.0px;stroke:none;">access to less resources than would normally be available (</text>
   <text y="716.103" x="327.126,332.114,337.102,339.587,344.575" svgx:width="0.56,0.56,0.28,0.56,0.56" style="fill:rgb(0,51,101);font-family:Arial-ItalicMT;font-size:9.0px;stroke:none;">18,19</text>
  </g>
  <g begin="text">
   <text y="716.1" x="349.56,352.543,355.032,357.554,363.543,366.032,371.022,375.509,379.995,385.031,387.069,389.054,391.038,396.029,401.019,403.541,408.1,413.09,418.081,423.116,425.101,427.085,432.076,436.562,439.084,443.642,448.633,453.623,458.659,460.643,465.634,468.156,473.191,478.173,480.157,485.148,487.67,492.66,495.716,500.751,505.742,510.732,513.716,518.706" svgx:width="0.33,0.28,0.28,0.67,0.28,0.56,0.5,0.5,0.56,0.22,0.22,0.22,0.56,0.56,0.28,0.5,0.56,0.56,0.56,0.22,0.22,0.56,0.5,0.28,0.5,0.56,0.56,0.56,0.22,0.56,0.28,0.56,0.56,0.22,0.56,0.28,0.56,0.33,0.56,0.56,0.56,0.33,0.56,0.28" style="fill:rgb(0,0,0);font-family:ArialMT;font-size:9.0px;stroke:none;">). Stockpiling supplies should help prepare </text>
  </g>
 </g>
</svg>
