<?xml version="1.0" encoding="UTF-8"?>
<svg height="739.75" width="548.7" xmlns="http://www.w3.org/2000/svg">
 <g id="page" xmlns:svgx="http://www.xml-cml.org/schema/svgx">
  <g begin="text">
   <text y="96.095" x="56.693,61.912,64.7424,68.319,71.0,75.507,78.793,83.3,88.832,91.95519999999999,95.522,98.808,104.233,109.452,113.959,117.763,122.27,127.694,130.375,135.595,139.496,142.177,145.8858,149.548,152.229,157.761,160.744,165.251,169.758,173.027,175.716,180.943,186.311,189.901,193.189,198.827,205.479,211.375,214.777,217.90019999999998,221.524,226.002,229.814,234.206,237.75,242.265,244.954,247.4916,251.02,256.576,261.055,265.569,270.084,273.939,277.849,282.363,286.175" svgx:width="0.52,0.29,0.55,0.26,0.45,0.32,0.45,0.55,0.32,0.55,0.32,0.54,0.52,0.45,0.38,0.45,0.54,0.26,0.52,0.38,0.26,0.38,0.55,0.26,0.55,0.29,0.45,0.45,0.32,0.26,0.52,0.55,0.55,0.32,0.56,0.67,0.59,0.33,0.32,0.55,0.45,0.38,0.45,0.55,0.45,0.26,0.26,0.55,0.55,0.45,0.45,0.45,0.38,0.38,0.45,0.38,0.45" style="fill:rgb(0,0,0);font-family:RbtfwkAdvOTa9103878;font-size:9.76px;stroke:none;">of latent tuberculosis infection (LTBI) are all necessary</text>
   <text y="108.057" x="56.693,59.759,65.06,68.7688,72.431,77.022,82.324,87.938,91.306,95.192,100.493,103.257,106.02,108.783,114.397,119.0818,122.787,126.156,131.662,136.054,139.713,143.625,146.388,150.372,155.252,158.989,164.261,167.0914,170.838,177.584,183.3424,187.109,189.83,195.198,198.957,206.724,213.559,223.644,227.3528,231.128,234.473,239.579,241.932,247.038,252.144,254.497,259.604,264.71,268.078,270.2252,273.918,280.664,286.171" svgx:width="0.29,0.52,0.38,0.55,0.45,0.52,0.55,0.32,0.38,0.52,0.26,0.26,0.26,0.55,0.48,0.55,0.32,0.54,0.45,0.55,0.38,0.26,0.38,0.5,0.55,0.52,0.29,0.55,0.67,0.59,0.55,0.26,0.55,0.55,0.77,0.68,1.01,0.38,0.55,0.32,0.5,0.22,0.5,0.5,0.22,0.5,0.5,0.32,0.22,0.55,0.67,0.54,0.45" style="fill:rgb(0,0,0);font-family:RbtfwkAdvOTa9103878;font-size:9.76px;stroke:none;">for controlling the risk of TB in HCWs [9,12,13]. The</text>
   <text y="120.019" x="56.693,62.039,64.74,69.218,74.038,79.589,84.828,88.749,91.45,95.1588,98.763,104.036,106.8664,110.442,114.24,118.767,123.293,127.819,133.318,136.4412,140.065,144.591,149.117,153.038,157.517,161.2258,164.887,170.126,172.9564,176.533,182.182,188.846,194.798,198.0188,201.658,204.964,209.49,214.729,220.281,224.872,229.407,233.231,237.152,239.852,245.091,250.643,253.7662,257.333,260.033,263.7418,267.347,272.694,277.172,280.995,284.301,287.002" svgx:width="0.53,0.26,0.45,0.48,0.55,0.52,0.38,0.26,0.38,0.55,0.52,0.29,0.55,0.38,0.45,0.45,0.45,0.55,0.32,0.55,0.45,0.45,0.38,0.45,0.38,0.55,0.52,0.29,0.55,0.56,0.67,0.59,0.33,0.55,0.32,0.45,0.52,0.55,0.46,0.45,0.38,0.38,0.26,0.52,0.55,0.32,0.55,0.26,0.38,0.55,0.53,0.45,0.38,0.32,0.26,0.36" style="fill:rgb(0,0,0);font-family:RbtfwkAdvOTa9103878;font-size:9.76px;stroke:none;">diagnosis of recent cases of LTBI (conversion) is parti-</text>
   <text y="131.981" x="56.693,61.23,66.685,69.396,73.933,77.767,80.478,84.86999999999999,88.472,91.193,99.499,104.856,110.106,113.94,117.256,121.793,127.355,130.47820000000002,134.159,138.09,140.802,146.364,150.901,155.293,158.894,162.239,167.694,172.08599999999998,175.687,178.399,181.11,184.124,188.661,191.977,194.689,202.994,207.386,210.988,214.843,217.555,221.486,226.36599999999999,229.99,235.263,238.0934,241.726,247.055,250.889,256.139,260.988,264.822,269.359,273.291,277.223,279.934,285.184" svgx:width="0.45,0.54,0.26,0.45,0.38,0.26,0.45,0.55,0.26,0.83,0.53,0.52,0.38,0.32,0.45,0.55,0.32,0.55,0.38,0.26,0.55,0.45,0.45,0.55,0.32,0.54,0.45,0.55,0.26,0.26,0.29,0.45,0.32,0.26,0.83,0.45,0.55,0.38,0.26,0.38,0.5,0.55,0.52,0.29,0.55,0.53,0.38,0.52,0.48,0.38,0.45,0.38,0.38,0.26,0.52,0.55" style="fill:rgb(0,0,0);font-family:RbtfwkAdvOTa9103878;font-size:9.76px;stroke:none;">cularly important since the lifetime risk of progression</text>
   <text y="143.943" x="56.693,59.838,64.9132,68.26,72.625,76.99,80.135,82.674,87.147,91.539,94.911,100.096,102.636,106.395,110.761,115.211,118.971,123.363,126.664,130.327,134.692,140.082,144.76,149.125,152.8338,156.263,159.105,162.767,167.845,175.9458,179.34,184.222,189.102,192.381,195.526,200.6012,203.947,208.83,213.713,220.545,223.849,226.994,231.877,236.759,238.958,243.841,248.723,251.868,254.0152,257.33,264.243,268.608,272.974,278.139,281.802,286.987" svgx:width="0.32,0.52,0.55,0.45,0.45,0.32,0.26,0.46,0.45,0.55,0.53,0.26,0.38,0.45,0.45,0.38,0.45,0.55,0.38,0.45,0.55,0.48,0.45,0.38,0.55,0.29,0.38,0.52,0.83,0.55,0.5,0.5,0.55,0.32,0.52,0.55,0.5,0.5,0.7,0.55,0.32,0.5,0.5,0.22,0.5,0.5,0.32,0.22,0.55,0.71,0.45,0.45,0.52,0.38,0.53,0.36" style="fill:rgb(0,0,0);font-family:RbtfwkAdvOTa9103878;font-size:9.76px;stroke:none;">to active disease ranges from 10 to 20% [12,14]. Accord-</text>
   <text y="155.905" x="56.693,59.231,64.621,69.30579999999999,72.624,75.768,80.8432,84.133,87.892,92.256,96.728,101.092,104.753,109.117,111.6546,115.031,118.79,121.934,127.216,132.4,134.939,139.303,143.062,145.2092,148.594,151.738,157.02,161.412,164.695,167.838,171.5,175.864,180.228,183.372,191.505,195.869,201.259,204.38219999999998,207.783,212.859,215.6894,219.008,224.495,230.997,236.787,240.0078,243.386,247.047,251.411,256.596,261.878,266.242,270.606,274.3148,277.742,280.886,286.168" svgx:width="0.26,0.55,0.48,0.55,0.32,0.52,0.55,0.38,0.45,0.46,0.45,0.38,0.45,0.26,0.55,0.38,0.32,0.54,0.53,0.26,0.45,0.38,0.22,0.55,0.32,0.54,0.45,0.55,0.32,0.38,0.45,0.45,0.32,0.83,0.45,0.55,0.32,0.55,0.52,0.29,0.55,0.56,0.67,0.59,0.33,0.55,0.38,0.45,0.53,0.54,0.45,0.45,0.38,0.55,0.32,0.54,0.45" style="fill:rgb(0,0,0);font-family:RbtfwkAdvOTa9103878;font-size:9.76px;stroke:none;">ing to several studies, the treatment of LTBI reduces the</text>
   <text y="167.811" x="56.693,60.464,63.111,66.98,71.86,75.314,80.5,83.3304,86.792,92.086,96.56,101.141,105.614,108.262,113.449,118.742,121.39,126.889,131.5738,135.053,139.527,143.891,147.237,149.845,154.426,158.81799999999998,162.249,168.861,174.61939999999998,178.102,183.288,187.68,191.111,199.354,204.54,208.311,212.703,216.134,219.387,224.779,229.143,234.511,238.102,243.093,247.975,254.807,258.343,261.575,266.566,271.557,275.22,280.211,285.202,288.456" svgx:width="0.38,0.26,0.38,0.5,0.55,0.52,0.29,0.55,0.53,0.45,0.46,0.45,0.26,0.52,0.53,0.26,0.55,0.48,0.55,0.45,0.45,0.32,0.26,0.46,0.45,0.55,0.67,0.59,0.55,0.52,0.45,0.55,0.83,0.52,0.38,0.45,0.55,0.32,0.54,0.45,0.55,0.55,0.5,0.5,0.7,0.55,0.32,0.5,0.5,0.36,0.5,0.5,0.32,0.22" style="fill:rgb(0,0,0);font-family:RbtfwkAdvOTa9103878;font-size:9.76px;stroke:none;">risk of developing active TB by more than 50% [15-17],</text>
   <text y="179.773" x="56.693,61.165,66.661,71.8338,75.335,77.943,81.6518,85.2,88.432,93.821,98.293,102.061,106.426,109.432,114.647,118.416,122.80799999999999,126.296,131.481,136.977,141.369,144.857,150.016,152.8464,156.365,159.597,164.987,169.379,172.867,181.107,185.579,188.224,193.59199999999998,197.126,202.31,207.494,209.935,214.467,218.939,222.19,224.836,229.415,233.887,237.5958,241.086,246.271,249.10139999999998,252.621,257.01300000000003,260.444,264.3,268.771,272.54,277.012,281.483,286.98" svgx:width="0.45,0.55,0.53,0.55,0.26,0.38,0.55,0.32,0.54,0.45,0.38,0.45,0.29,0.52,0.38,0.45,0.55,0.52,0.55,0.45,0.55,0.52,0.29,0.55,0.32,0.54,0.45,0.55,0.83,0.45,0.26,0.55,0.55,0.52,0.52,0.25,0.45,0.45,0.32,0.26,0.46,0.45,0.38,0.55,0.52,0.29,0.55,0.45,0.55,0.38,0.45,0.38,0.45,0.45,0.55,0.36" style="fill:rgb(0,0,0);font-family:RbtfwkAdvOTa9103878;font-size:9.76px;stroke:none;">and is therefore one of the main objectives of a screen-</text>
   <text y="191.735" x="56.693,59.231,64.621,69.30579999999999,72.567,77.752,81.413,86.49,91.166,94.828,99.192,107.325,115.458,119.822" svgx:width="0.26,0.55,0.48,0.55,0.53,0.38,0.52,0.48,0.38,0.45,0.83,0.83,0.45,0.22" style="fill:rgb(0,0,0);font-family:RbtfwkAdvOTa9103878;font-size:9.76px;stroke:none;">ing programme.</text>
   <text y="203.697" x="64.686,71.804,77.272,80.416,82.954,85.49159999999999,88.895,93.28699999999999,96.661,99.502,103.867,110.699,114.123,118.487,122.852,127.333,131.074,134.7828,138.161,142.525,147.288,152.365,154.5122,157.891,162.255,167.471,172.861,176.089,180.453,184.817,188.051,191.75979999999998,195.194,201.999,206.475,210.136,214.528,217.871,221.63,226.092,229.753,234.199,238.564,244.064,248.429,253.6018,256.99,259.831,264.984,268.6928,272.014,276.378,281.538,286.928" svgx:width="0.73,0.55,0.32,0.26,0.26,0.55,0.45,0.55,0.29,0.45,0.7,0.55,0.45,0.45,0.45,0.38,0.38,0.55,0.45,0.48,0.52,0.22,0.55,0.45,0.52,0.55,0.32,0.45,0.45,0.32,0.38,0.55,0.7,0.45,0.38,0.45,0.55,0.38,0.45,0.38,0.45,0.45,0.55,0.45,0.53,0.55,0.29,0.52,0.38,0.55,0.45,0.52,0.55,0.36" style="fill:rgb(0,0,0);font-family:RbtfwkAdvOTa9103878;font-size:9.76px;stroke:none;">Until a few years ago, contacts were screened for con-</text>
   <text y="215.659" x="56.693,61.473,66.146,70.116,74.183,77.03,82.416,88.113,91.8218,95.767,101.358,105.425,108.272,113.97,118.6548,122.53,125.989,131.579,135.971,139.857,143.309,148.899,154.285,158.958,162.927,167.6,173.254,176.095,178.937,184.305,188.234,192.296,197.48,200.321,205.689,209.619,213.065,217.732,221.794,224.9172,228.88,232.327,239.132,244.414,251.219,254.3422,258.305,261.763,266.948,272.132,275.579,277.7262,281.588,285.142" svgx:width="0.46,0.45,0.38,0.38,0.26,0.52,0.55,0.38,0.55,0.54,0.38,0.26,0.55,0.48,0.55,0.32,0.54,0.45,0.55,0.32,0.54,0.52,0.45,0.38,0.45,0.54,0.26,0.26,0.55,0.55,0.38,0.5,0.26,0.55,0.55,0.32,0.45,0.38,0.32,0.55,0.32,0.67,0.51,0.67,0.32,0.55,0.32,0.5,0.5,0.32,0.22,0.55,0.33,0.55" style="fill:rgb(0,0,0);font-family:RbtfwkAdvOTa9103878;font-size:9.76px;stroke:none;">versions using the tuberculin skin test (TST) [18]. In</text>
   <text y="227.621" x="56.693,60.467,64.945,69.422,73.958,79.46,82.58319999999999,86.15,90.628,95.163,99.64,103.415,107.287,109.4342,112.956,117.492,122.764,127.349,131.884,137.386,141.864,146.399,150.1078,153.656,156.308,161.676,165.266,173.512,178.753,181.417,185.908,190.398,195.806,198.47,202.96,206.6688,210.16,215.375,218.04,223.243,225.907,231.11,235.913,240.305,243.849,249.257,253.748,258.345,262.737,266.225,268.89,273.38,278.5528,282.11,285.399" svgx:width="0.38,0.45,0.45,0.45,0.55,0.32,0.55,0.45,0.45,0.45,0.38,0.38,0.22,0.55,0.45,0.53,0.46,0.45,0.55,0.45,0.45,0.38,0.55,0.26,0.55,0.55,0.83,0.52,0.26,0.45,0.45,0.54,0.26,0.45,0.38,0.55,0.52,0.26,0.52,0.26,0.52,0.48,0.45,0.55,0.54,0.45,0.46,0.45,0.55,0.26,0.45,0.53,0.55,0.32,0.52" style="fill:rgb(0,0,0);font-family:RbtfwkAdvOTa9103878;font-size:9.76px;stroke:none;">recent years, advances in molecular biology have led to</text>
   <text y="239.583" x="56.693,59.969,65.382,69.774,73.319,78.591,83.087,87.691,92.187,94.857,100.066,105.382,113.647,118.143,123.664,126.7872,130.354,135.563,138.39339999999999,141.969,147.491,151.987,158.819,162.361,165.026,170.547,174.233,178.836,181.506,184.782,188.575,193.65019999999998,197.192,200.48,204.977,208.867,212.099,215.8078,219.413,222.688,228.102,232.598,235.7212,239.288,247.509,252.044,256.54,260.431,265.844,269.638,274.03,277.518,280.806,286.22" svgx:width="0.32,0.54,0.45,0.55,0.53,0.45,0.46,0.45,0.26,0.52,0.53,0.83,0.45,0.55,0.32,0.55,0.52,0.29,0.55,0.55,0.45,0.7,0.55,0.26,0.55,0.36,0.46,0.26,0.32,0.38,0.52,0.55,0.32,0.45,0.38,0.32,0.38,0.55,0.32,0.54,0.45,0.32,0.55,0.83,0.45,0.45,0.38,0.54,0.38,0.45,0.55,0.32,0.54,0.45" style="fill:rgb(0,0,0);font-family:RbtfwkAdvOTa9103878;font-size:9.76px;stroke:none;">the development of new in-vitro tests that measure the</text>
   <text y="251.546" x="56.693,59.421,63.974,68.635,73.189,75.917,79.6258,83.344,88.61,91.4404,95.13,97.858,103.437,106.77,111.324,115.175,118.205,122.759,126.61,131.876,137.455,141.198,145.8828,149.532,153.383,157.936,160.664,165.203,169.775,173.687,178.258,183.4308,187.102,192.386,196.778,200.379,204.345,208.88,214.476,218.389,221.134,224.485,227.23,231.704,236.239,241.4118,245.083,251.6222,255.287,258.008,262.544,270.883,276.275,281.717,287.001" svgx:width="0.26,0.45,0.46,0.45,0.26,0.38,0.55,0.52,0.29,0.55,0.26,0.55,0.32,0.45,0.38,0.29,0.45,0.38,0.52,0.55,0.36,0.48,0.55,0.38,0.45,0.26,0.45,0.45,0.38,0.45,0.53,0.55,0.52,0.45,0.55,0.38,0.45,0.55,0.38,0.26,0.32,0.26,0.44,0.45,0.53,0.55,0.67,0.55,0.26,0.45,0.83,0.53,0.54,0.52,0.36" style="fill:rgb(0,0,0);font-family:RbtfwkAdvOTa9103878;font-size:9.76px;stroke:none;">levels of interferon-g released by sensitized T lympho-</text>
   <text y="263.451" x="56.693,61.174,65.656,68.917,73.398,77.10679999999999,80.655,85.137,88.095,91.356,95.837,99.5458,103.038,106.893,110.154,112.81,121.06,126.459,129.115,133.596,136.857,139.513,144.707,150.075,153.608,160.531,163.186,166.447,171.7174,175.291,179.772,185.279,188.54,191.195,195.989,200.471,205.977,209.6858,213.234,218.428" svgx:width="0.45,0.45,0.32,0.45,0.38,0.55,0.45,0.29,0.32,0.45,0.38,0.55,0.38,0.32,0.26,0.83,0.54,0.26,0.45,0.32,0.26,0.52,0.55,0.55,0.7,0.26,0.32,0.54,0.55,0.45,0.55,0.32,0.26,0.48,0.45,0.55,0.38,0.55,0.52,0.29" style="fill:rgb(0,0,0);font-family:RbtfwkAdvOTa9103878;font-size:9.76px;stroke:none;">cytes after stimulation with antigens of</text>
   <text y="263.451" x="224.788,233.803,235.9502,239.473,242.731,248.234,253.28,257.475,261.251,265.329,270.833,273.69,278.374,281.944,284.802" svgx:width="0.92,0.22,0.55,0.32,0.55,0.51,0.42,0.38,0.41,0.55,0.28,0.47,0.35,0.28,0.35" style="fill:rgb(0,0,0);font-family:XdjyvjAdvOTf0bf83d5.I;font-size:9.76px;stroke:none;">M. tuberculosis</text>
   <text y="263.451" x="288.398" svgx:width="0.22" style="fill:rgb(0,0,0);font-family:RbtfwkAdvOTa9103878;font-size:9.76px;stroke:none;">.</text>
   <text y="275.413" x="56.693,63.27,68.552,73.021,76.78,81.172,84.587,87.125,92.581,95.725,100.178,103.919,106.761,111.233,114.895,120.077,125.466,129.091,133.7758,137.142,140.884,145.248,147.857,152.221,156.701,160.46,164.852,168.267,172.631,176.488,180.247,184.709,189.073,192.7818,196.274,199.506,202.757,210.052,216.118,223.03,226.1532,229.611,234.795,239.87019999999998,243.273,248.663,253.819,256.9422,260.396,265.58,269.241,273.719,277.478,281.939,287.329" svgx:width="0.67,0.54,0.45,0.38,0.45,0.55,0.26,0.55,0.32,0.45,0.38,0.29,0.45,0.38,0.52,0.55,0.36,0.48,0.55,0.38,0.45,0.26,0.45,0.45,0.38,0.45,0.55,0.45,0.38,0.38,0.45,0.45,0.38,0.55,0.32,0.33,0.74,0.61,0.71,0.32,0.55,0.53,0.52,0.55,0.55,0.52,0.32,0.55,0.53,0.38,0.45,0.38,0.45,0.55,0.32" style="fill:rgb(0,0,0);font-family:RbtfwkAdvOTa9103878;font-size:9.76px;stroke:none;">These interferon-g release assays (IGRA) do not present</text>
   <text y="287.375" x="56.693,61.222,65.048,70.29,74.214,78.138,81.857,85.683,90.213,94.742,99.22,102.529,105.233,110.475,115.84299999999999,119.433,126.403,129.033,132.333,137.6034,141.177,147.122,151.643,156.163,158.858,161.553,164.247,169.686,173.3948,177.056,183.822,188.343,191.037,199.326,203.847,207.147,210.857,218.228,223.667,228.187,232.005,234.699,240.067,243.714,247.002,252.948,259.714,267.085,270.385,272.5322,276.112,281.668,286.901" svgx:width="0.45,0.38,0.52,0.38,0.38,0.36,0.38,0.45,0.45,0.45,0.32,0.26,0.52,0.55,0.55,0.7,0.26,0.32,0.54,0.55,0.59,0.45,0.45,0.26,0.26,0.26,0.54,0.38,0.55,0.68,0.45,0.26,0.83,0.45,0.32,0.36,0.74,0.54,0.45,0.38,0.26,0.55,0.55,0.32,0.59,0.68,0.74,0.32,0.22,0.55,0.55,0.52,0.38" style="fill:rgb(0,0,0);font-family:RbtfwkAdvOTa9103878;font-size:9.76px;stroke:none;">cross-reaction with Bacillus Calmet-Guérin (BCG), nor</text>
   <text y="299.337" x="56.693,63.625,66.29,69.561,74.8314,78.348,81.58,87.022,91.414,94.902,103.123,107.614,110.182,115.386,119.174,121.782,125.07,129.462,132.95,138.166,140.9964,144.516,150.014,155.218,160.735,163.966,169.352,174.556,179.047,182.835,187.326,192.735,195.401,200.604,206.013,209.7218,213.27,221.548,226.039,230.53,235.734,240.893,245.372,249.863,253.094,257.586,261.374,264.039,268.431,271.919,275.151,280.16,285.168,288.439" svgx:width="0.7,0.26,0.32,0.54,0.55,0.32,0.54,0.45,0.55,0.83,0.45,0.25,0.52,0.38,0.26,0.32,0.45,0.55,0.52,0.29,0.55,0.55,0.52,0.55,0.32,0.54,0.52,0.45,0.38,0.45,0.54,0.26,0.52,0.54,0.38,0.55,0.83,0.45,0.45,0.52,0.52,0.45,0.45,0.32,0.45,0.38,0.26,0.45,0.55,0.32,0.5,0.5,0.32,0.22" style="fill:rgb(0,0,0);font-family:RbtfwkAdvOTa9103878;font-size:9.76px;stroke:none;">with the majority of nontuberculous mycobacteria [19].</text>
   <text y="311.3" x="56.693,61.774,66.138,70.788,75.267,79.03,83.495,86.0326,89.505,97.158,103.87,113.72760000000001,117.193,121.053,124.342,129.725,135.011,137.651,142.117,145.8258,149.374,154.759,158.62,161.26,166.751,171.4358,174.915,178.268,185.584,191.681,198.6106,202.055,207.439,211.905,216.478,220.87,224.301,229.48,233.945,238.411,243.779,247.255,252.584,256.948,260.805,263.752,268.931,272.693,280.971,285.335" svgx:width="0.51,0.45,0.46,0.45,0.38,0.45,0.26,0.55,0.77,0.68,1.01,0.55,0.38,0.32,0.54,0.53,0.26,0.45,0.38,0.55,0.54,0.38,0.26,0.55,0.48,0.55,0.33,0.74,0.61,0.71,0.55,0.54,0.45,0.46,0.45,0.55,0.52,0.45,0.45,0.55,0.55,0.53,0.45,0.38,0.29,0.52,0.38,0.83,0.45,0.53" style="fill:rgb(0,0,0);font-family:RbtfwkAdvOTa9103878;font-size:9.76px;stroke:none;">Several HCW studies using IGRA have been performed</text>
   <text y="323.262" x="56.693,60.452,65.5272,68.996,71.943,76.308,80.0168,83.452,87.817,93.033,101.166,106.47,110.834,114.634,117.242,122.631,127.3158,130.735,137.311,142.357,148.8962,152.279,155.51,160.5852,164.014,167.265,174.616,180.682,187.61159999999998,191.0,194.175,199.164,204.046,207.725,212.607,217.59,220.822,222.9692,226.378,236.239,241.628,244.236,246.844,251.236,254.611,258.466,262.83,266.687,269.919,274.283,282.561,286.926" svgx:width="0.38,0.52,0.55,0.29,0.45,0.38,0.55,0.45,0.52,0.83,0.53,0.45,0.38,0.26,0.55,0.48,0.55,0.67,0.51,0.67,0.55,0.32,0.52,0.55,0.33,0.74,0.61,0.71,0.55,0.32,0.5,0.5,0.36,0.5,0.5,0.32,0.22,0.55,1.01,0.54,0.26,0.26,0.45,0.55,0.38,0.45,0.38,0.32,0.45,0.83,0.45,0.36" style="fill:rgb(0,0,0);font-family:RbtfwkAdvOTa9103878;font-size:9.76px;stroke:none;">so far comparing TST to IGRA [20-25]. While systema-</text>
   <text y="335.224" x="56.693,60.183,63.068,67.46,71.402,75.485,80.247,84.216,88.979,93.684,99.42,102.306,108.042,112.7268,116.715,122.139,124.9694,128.942,136.806,143.763,153.971,157.6798,161.681,164.912,170.355,174.0638,177.951,184.811,190.5694,194.619,198.702,202.192,206.903,210.911,214.401,219.112,224.2848,228.24,231.125,236.493,240.536,245.764,250.992,256.221,261.101,265.122,269.833,272.9562,276.976,280.466,286.136" svgx:width="0.32,0.26,0.45,0.55,0.38,0.45,0.38,0.45,0.45,0.55,0.26,0.55,0.48,0.55,0.52,0.29,0.55,0.77,0.68,1.01,0.38,0.55,0.29,0.52,0.38,0.55,0.67,0.59,0.55,0.38,0.32,0.45,0.38,0.32,0.45,0.53,0.55,0.26,0.55,0.55,0.5,0.5,0.5,0.5,0.55,0.45,0.32,0.55,0.32,0.54,0.45" style="fill:rgb(0,0,0);font-family:RbtfwkAdvOTa9103878;font-size:9.76px;stroke:none;">tic screening of HCWs for TB started in 2005 at the</text>
   <text y="347.186" x="56.693,61.955,64.1022,67.908,71.237,76.598,81.245,86.3202,90.203,98.004,103.364,107.406,112.873,115.695,119.122,123.769,126.3066,130.12,132.941,138.309,142.182,147.908,153.294,157.238,160.665,166.025,168.1722,172.035,177.805,183.165,187.11,190.536,196.102,201.061,205.709,208.486,210.6332,214.496,218.011,225.509,231.787,238.7166,242.502,245.96,250.608,254.65,258.077,260.854,266.527,271.2118,275.088,282.176,286.823" svgx:width="0.51,0.22,0.55,0.31,0.52,0.45,0.52,0.55,0.77,0.52,0.38,0.53,0.26,0.32,0.45,0.26,0.55,0.26,0.55,0.55,0.56,0.52,0.38,0.32,0.52,0.22,0.55,0.56,0.52,0.38,0.32,0.54,0.48,0.45,0.26,0.22,0.55,0.33,0.74,0.61,0.71,0.55,0.32,0.45,0.38,0.32,0.26,0.55,0.48,0.55,0.7,0.45,0.38" style="fill:rgb(0,0,0);font-family:RbtfwkAdvOTa9103878;font-size:9.76px;stroke:none;">S. João Hospital in Porto, Portugal, IGRA testing was</text>
   <text y="359.091" x="56.693,59.71,65.606,69.228,73.423,78.979,84.642,90.402,95.278,100.121,105.29379999999999,110.723,114.407,119.48219999999999,124.895,128.517,134.278,138.67,144.086,148.338,153.181,157.376,162.219,167.095,172.991,175.996,181.892,186.5768,191.983,197.646,201.786,207.399,212.218,217.094,221.346,225.0548,230.53,233.592,238.96,244.364,249.724,255.084,260.444,265.804,267.9512,273.345,280.374,286.157" svgx:width="0.26,0.55,0.32,0.38,0.52,0.53,0.54,0.45,0.45,0.53,0.55,0.32,0.52,0.55,0.32,0.54,0.45,0.55,0.38,0.45,0.38,0.45,0.45,0.55,0.26,0.55,0.48,0.55,0.53,0.38,0.52,0.45,0.45,0.38,0.38,0.55,0.26,0.55,0.55,0.5,0.5,0.5,0.5,0.22,0.55,0.67,0.54,0.45" style="fill:rgb(0,0,0);font-family:RbtfwkAdvOTa9103878;font-size:9.76px;stroke:none;">introduced to the screening process in 2007. The</text>
   <text y="371.054" x="56.693,60.937,66.704,72.267,77.428,81.575,87.188,92.955,98.1278,102.536,105.56,110.928,115.368,122.658,128.426,131.449,136.299,141.5694,145.993,153.023,158.487,165.0262,169.429,174.278,180.153,185.3258,189.734,193.475,201.176,207.696,214.6256,219.034,226.291,231.14,235.287,239.679,244.074,249.744,254.593,258.74,262.066,267.628,271.824,280.441,285.29" svgx:width="0.38,0.54,0.52,0.48,0.38,0.52,0.54,0.53,0.55,0.26,0.55,0.55,0.7,0.54,0.26,0.45,0.54,0.55,0.67,0.51,0.67,0.55,0.45,0.55,0.53,0.55,0.33,0.74,0.61,0.71,0.55,0.7,0.45,0.38,0.45,0.55,0.53,0.45,0.38,0.29,0.52,0.38,0.83,0.45,0.53" style="fill:rgb(0,0,0);font-family:RbtfwkAdvOTa9103878;font-size:9.76px;stroke:none;">subgroup in which TST and IGRA were performed</text>
   <text y="383.016" x="56.693,60.637,63.361,71.68,77.147,79.871,83.201,87.75,93.325,97.875,103.137,108.605,112.549,115.273,119.66499999999999,123.323,126.047,129.7558,133.418,138.787,143.337,147.282,151.831,155.678,158.402,163.665,168.214,173.3868,177.058,179.779,185.147,188.794,194.179,198.026,202.576,207.233,209.957,215.219,220.687,224.3958,228.057,233.443,237.992,243.362,247.912,251.759,255.46779999999998,259.186,262.474,267.576,272.622,274.936,280.003,285.071,288.4" svgx:width="0.38,0.26,0.83,0.54,0.26,0.32,0.45,0.55,0.45,0.52,0.54,0.38,0.26,0.45,0.55,0.26,0.38,0.55,0.53,0.45,0.38,0.45,0.38,0.26,0.52,0.45,0.53,0.55,0.26,0.55,0.55,0.53,0.38,0.45,0.46,0.26,0.52,0.54,0.38,0.55,0.53,0.45,0.53,0.45,0.38,0.38,0.55,0.32,0.5,0.5,0.22,0.5,0.5,0.32,0.22" style="fill:rgb(0,0,0);font-family:RbtfwkAdvOTa9103878;font-size:9.76px;stroke:none;">simultaneously is described in previous papers [22,23].</text>
   <text y="394.978" x="56.693,60.23,65.598,69.471,72.901,78.469,81.294,85.0028,88.891,94.361,99.011,104.482,109.132,112.8408,116.672,123.759,128.151,131.979,137.422,142.072,146.117,150.767,154.715,157.539,162.902,167.29399999999998,171.123,174.581,180.149,184.541,188.37,192.317,196.968,201.013,206.581,209.405,212.835,216.5438,220.489,225.818,228.6484,232.507,235.966,241.534,245.926,249.755,253.799,258.45,262.397,267.047,271.698,277.373,280.151,285.821" svgx:width="0.33,0.55,0.55,0.32,0.54,0.26,0.38,0.55,0.53,0.45,0.53,0.45,0.38,0.55,0.7,0.45,0.55,0.53,0.45,0.38,0.45,0.38,0.26,0.52,0.45,0.55,0.32,0.54,0.45,0.55,0.38,0.45,0.38,0.54,0.26,0.32,0.38,0.55,0.52,0.29,0.55,0.32,0.54,0.45,0.55,0.38,0.45,0.38,0.45,0.45,0.55,0.26,0.55,0.48" style="fill:rgb(0,0,0);font-family:RbtfwkAdvOTa9103878;font-size:9.76px;stroke:none;">In this paper we describe the results of the screening</text>
   <text y="406.94" x="56.693,62.364,66.513,72.126,77.285,81.433,86.285,94.905,103.525,107.917,112.483,115.811,121.375,125.0838,129.653,133.281,139.05,143.442,148.008,155.3,161.07,166.634,169.659,174.051,178.617,183.833,187.981,193.546,199.315,204.4878,209.066,212.751,218.477,223.329,226.4522,231.096,238.388,243.239,246.9478,251.63,255.882,260.733,264.929,269.78,274.632,280.508,285.36" svgx:width="0.53,0.38,0.52,0.48,0.38,0.45,0.83,0.83,0.45,0.55,0.29,0.52,0.38,0.55,0.32,0.54,0.45,0.55,0.7,0.54,0.52,0.26,0.45,0.55,0.48,0.38,0.52,0.54,0.53,0.55,0.32,0.54,0.45,0.32,0.55,0.7,0.45,0.38,0.55,0.38,0.45,0.38,0.45,0.45,0.55,0.45,0.53" style="fill:rgb(0,0,0);font-family:RbtfwkAdvOTa9103878;font-size:9.76px;stroke:none;">programme for the whole group that was screened</text>
   <text y="418.902" x="56.693,61.944,66.482,69.799,76.778,81.37,85.905,91.273,94.976,100.032,105.087,110.143,115.023,118.703,123.241,128.854,134.0268,137.641,142.744,147.799,152.855,157.957,160.1042,163.74,168.899,174.257,178.849,183.387,186.099,190.637,193.1746,196.873,201.411,209.718,215.076,220.574,225.112,229.045,231.757,235.4658,239.184,241.897,245.6058,249.267,254.625,257.337,261.876,266.467,271.005,276.1778,279.849,285.1" svgx:width="0.52,0.45,0.32,0.7,0.45,0.45,0.55,0.55,0.5,0.5,0.5,0.5,0.55,0.45,0.55,0.53,0.55,0.5,0.5,0.5,0.5,0.22,0.55,0.51,0.53,0.45,0.45,0.26,0.45,0.26,0.55,0.45,0.83,0.53,0.54,0.45,0.38,0.26,0.38,0.55,0.26,0.38,0.55,0.53,0.26,0.45,0.45,0.45,0.53,0.55,0.52,0.55" style="fill:rgb(0,0,0);font-family:RbtfwkAdvOTa9103878;font-size:9.76px;stroke:none;">between 2005 and 2009. Special emphasis is placed on</text>
   <text y="430.864" x="56.693,63.721,69.02,72.904,77.95,83.357,86.118,90.705,95.292,99.684,103.399,107.283,110.044,114.026,118.90599999999999,122.586,125.65,130.237,134.824,138.19,143.49,147.373,151.0818,154.857,158.202,163.707,168.294,171.4172,175.153,183.487,186.248,191.148,196.652,199.77519999999998,203.512,208.099,212.686,217.221,222.52,228.025,233.637,236.7602,240.497,243.561,248.86,252.5688,256.231,261.957,268.682,274.694,277.9148,281.667,286.939" svgx:width="0.7,0.52,0.38,0.5,0.53,0.26,0.45,0.45,0.45,0.55,0.38,0.26,0.38,0.5,0.55,0.29,0.45,0.45,0.32,0.52,0.38,0.38,0.55,0.32,0.54,0.45,0.32,0.55,0.83,0.26,0.48,0.54,0.32,0.55,0.45,0.45,0.45,0.52,0.54,0.55,0.32,0.55,0.29,0.52,0.38,0.55,0.56,0.67,0.59,0.33,0.55,0.52,0.38" style="fill:rgb(0,0,0);font-family:RbtfwkAdvOTa9103878;font-size:9.76px;stroke:none;">workplace risk factors that might account for LTBI or</text>
   <text y="442.826" x="56.693,61.057,65.421,68.565,71.104,75.575,79.967,83.226,89.728,95.48639999999999,98.817,101.356,106.72399999999999,109.985,117.503,124.113,133.974,137.733" svgx:width="0.45,0.45,0.32,0.26,0.46,0.45,0.55,0.67,0.59,0.55,0.26,0.55,0.55,0.77,0.68,1.01,0.38,0.22" style="fill:rgb(0,0,0);font-family:RbtfwkAdvOTa9103878;font-size:9.76px;stroke:none;">active TB in HCWs.</text>
   <text y="466.696" x="56.693,65.343,70.753,74.488,80.471,86.34,92.425" svgx:width="0.84,0.52,0.36,0.58,0.57,0.59,0.43" style="fill:rgb(0,0,0);font-family:WmxfngAdvOT3b30f6db.B;font-size:10.26px;stroke:none;">Methods</text>
   <text y="478.659" x="56.693,63.551,69.188,73.58,77.579,81.548,84.441,88.556,93.43599999999999,97.399,102.842" svgx:width="0.67,0.54,0.45,0.55,0.38,0.26,0.38,0.5,0.55,0.52,0.29" style="fill:rgb(0,0,0);font-family:RbtfwkAdvOTa9103878;font-size:9.76px;stroke:none;">The risk of</text>
   <text y="478.659" x="109.645,118.941,121.0882,125.064,128.561,134.304,139.637,144.052,148.067,152.384,158.127,161.224,166.146,169.956,173.053" svgx:width="0.92,0.22,0.55,0.32,0.55,0.51,0.42,0.38,0.41,0.55,0.28,0.47,0.35,0.28,0.35" style="fill:rgb(0,0,0);font-family:XdjyvjAdvOTf0bf83d5.I;font-size:9.76px;stroke:none;">M. tuberculosis</text>
   <text y="478.659" x="180.455,183.338,189.072,192.258,197.02,201.729,205.218,208.101,213.522,218.89,222.877,230.077,234.786,238.4948,242.553,247.262,251.365,255.469,260.178,264.281,268.385,273.094,278.2668,282.278,285.161" svgx:width="0.26,0.55,0.29,0.45,0.45,0.32,0.26,0.52,0.55,0.55,0.7,0.45,0.38,0.55,0.45,0.38,0.38,0.45,0.38,0.38,0.45,0.53,0.55,0.26,0.55" style="fill:rgb(0,0,0);font-family:RbtfwkAdvOTa9103878;font-size:9.76px;stroke:none;">infection was assessed in</text>
   <text y="490.621" x="56.694,62.063,64.678,70.047,75.416,80.29599999999999,86.301,94.295,101.438,111.756,115.4648,121.507,128.821,134.385,138.534,143.903,146.928,152.805,157.4898,163.464,169.028,172.7368,178.722,182.353,186.501,191.353,194.378,200.255,203.281,209.157,213.8418,219.816,222.842,228.21,234.236,239.801,245.57,249.2788,255.207,260.99,266.554,270.8,276.527,279.532,283.163,288.014" svgx:width="0.5,0.22,0.5,0.5,0.5,0.55,0.77,0.68,1.01,0.38,0.55,0.7,0.52,0.38,0.5,0.26,0.55,0.48,0.55,0.52,0.38,0.55,0.32,0.38,0.45,0.26,0.55,0.26,0.55,0.48,0.55,0.26,0.55,0.55,0.52,0.54,0.38,0.55,0.54,0.52,0.38,0.53,0.26,0.32,0.45,0.26" style="fill:rgb(0,0,0);font-family:RbtfwkAdvOTa9103878;font-size:9.76px;stroke:none;">5,524 HCWs working or training in our hospital</text>
   <text y="502.583" x="56.694,62.264,67.121,70.758,78.056,82.913,87.771,93.139,97.465,102.907,107.764,113.442,117.079,121.936,130.562,136.132,140.989,144.6978,148.926,154.301,159.675,165.05,169.93,174.178,179.035,184.918,190.0908,194.329,197.9,203.675,209.557,213.94899999999998,218.231,223.56,228.935,234.31,239.19,243.437,247.074,252.644,255.676,260.846,266.621,270.775,275.167,279.392,284.778,288.415" svgx:width="0.52,0.45,0.32,0.7,0.45,0.45,0.55,0.55,0.51,0.45,0.53,0.32,0.45,0.83,0.52,0.45,0.38,0.55,0.5,0.5,0.5,0.5,0.55,0.45,0.55,0.53,0.55,0.31,0.54,0.55,0.45,0.55,0.5,0.5,0.5,0.5,0.55,0.32,0.52,0.26,0.48,0.54,0.38,0.45,0.55,0.5,0.32,0.22" style="fill:rgb(0,0,0);font-family:RbtfwkAdvOTa9103878;font-size:9.76px;stroke:none;">between September 2005 and June 2009 (Figure 1).</text>
   <text y="514.545" x="56.694,64.103,68.965,73.826,79.4,83.558,89.239,92.275,98.161,102.8458,107.232,110.86,115.9352,120.384,124.013,129.791,134.183,138.579,141.614,146.475,150.116,154.977,159.233,162.3562,166.773,173.88,181.495,188.1318,192.493,197.652,203.431,206.466,212.148,217.009,220.044,223.08,228.966,233.827,237.5358,242.048,245.676,251.055,256.384,261.762,267.141,270.2642,274.681,279.543,285.382" svgx:width="0.71,0.45,0.45,0.52,0.38,0.53,0.26,0.55,0.48,0.55,0.32,0.52,0.55,0.32,0.54,0.45,0.55,0.26,0.45,0.32,0.45,0.38,0.32,0.55,0.68,0.73,0.68,0.55,0.48,0.54,0.26,0.53,0.45,0.26,0.26,0.55,0.45,0.38,0.55,0.32,0.5,0.5,0.5,0.5,0.32,0.55,0.45,0.55,0.53" style="fill:rgb(0,0,0);font-family:RbtfwkAdvOTa9103878;font-size:9.76px;stroke:none;">According to the latest CDC guidelines (2005) and</text>
   <text y="526.507" x="56.694,62.092,66.778,70.858,75.543,80.7158,84.671,90.056,95.42399999999999,99.411,102.869,108.472,112.86399999999999,116.75,122.46,128.063,136.518,141.916,146.601,150.3098,154.198,159.64,162.47039999999998,166.387,171.785,176.47,181.976,185.6848,189.686,194.371,200.082,205.2548,209.153,214.71,219.395,222.91,225.77,230.455,236.166,239.631,243.3398,247.341,252.84,255.699,260.385,265.383,271.093,276.535,280.617,285.303" svgx:width="0.52,0.45,0.38,0.45,0.53,0.55,0.52,0.55,0.55,0.32,0.54,0.45,0.55,0.55,0.54,0.83,0.52,0.45,0.38,0.55,0.52,0.29,0.55,0.52,0.45,0.53,0.38,0.55,0.45,0.55,0.53,0.55,0.53,0.45,0.32,0.26,0.45,0.55,0.32,0.38,0.55,0.53,0.26,0.45,0.48,0.55,0.52,0.38,0.45,0.53" style="fill:rgb(0,0,0);font-family:RbtfwkAdvOTa9103878;font-size:9.76px;stroke:none;">based on the number of beds and patients diagnosed</text>
   <text y="538.469" x="56.694,63.838,66.715,70.198,75.46839999999999,79.495,86.337,92.0954,96.088,100.791,105.494,110.257,115.5274,119.498,124.201,128.904,133.607,137.3158,141.204,144.687,149.39,154.2,158.903,162.903,167.606,172.622,177.014,180.956,186.371,189.2014,193.175,198.395,203.616,208.496,212.403,217.959,222.662,226.145,229.022,233.725,239.453,242.936,247.033,249.18019999999999,253.156,257.859,263.587,268.7598,272.715,277.935,283.156,285.623" svgx:width="0.7,0.26,0.32,0.54,0.55,0.67,0.59,0.55,0.45,0.45,0.45,0.54,0.55,0.45,0.45,0.45,0.38,0.55,0.32,0.45,0.46,0.45,0.38,0.45,0.48,0.45,0.55,0.52,0.29,0.55,0.5,0.5,0.5,0.55,0.53,0.45,0.32,0.26,0.45,0.55,0.32,0.38,0.22,0.55,0.45,0.55,0.53,0.55,0.5,0.5,0.22,0.5" style="fill:rgb(0,0,0);font-family:RbtfwkAdvOTa9103878;font-size:9.76px;stroke:none;">with TB each year (average of 258 patients, and 17.2</text>
   <text y="550.375" x="56.694,64.291,70.901,80.846,84.5548,88.046,93.23,97.684,101.3928,104.77,111.346,117.1044,120.531,125.715,130.226,133.37,136.009,140.373,145.874,148.9972,152.45,156.192,160.556,163.789,166.396,171.555,174.787,176.9342,180.286,183.518,188.8,193.192,196.614,202.0,207.077,210.958,216.142,218.781,222.013,226.377,228.9146,232.387,234.926,238.63479999999998,242.139,246.503,249.169,253.533,257.389,261.245,263.853,266.694,269.352,273.717,278.8898,282.335,286.813" svgx:width="0.77,0.68,1.01,0.38,0.55,0.53,0.45,0.38,0.55,0.67,0.59,0.55,0.53,0.45,0.32,0.26,0.45,0.55,0.32,0.55,0.38,0.45,0.32,0.26,0.52,0.32,0.22,0.55,0.32,0.54,0.45,0.55,0.54,0.52,0.38,0.53,0.26,0.32,0.45,0.26,0.55,0.26,0.38,0.55,0.45,0.26,0.45,0.38,0.38,0.26,0.29,0.26,0.45,0.53,0.55,0.45,0.38" style="fill:rgb(0,0,0);font-family:RbtfwkAdvOTa9103878;font-size:9.76px;stroke:none;">HCWs per TB patient ratio), the hospital is classified as</text>
   <text y="562.337" x="56.694" svgx:width="0.45" style="fill:rgb(0,0,0);font-family:RbtfwkAdvOTa9103878;font-size:9.76px;stroke:none;">a</text>
   <text y="562.337" x="64.347" svgx:width="0.36" style="fill:rgb(0,0,0);font-family:WxmlkmAdvOTa9103878;font-size:9.76px;stroke:none;">“</text>
   <text y="562.337" x="67.919,76.052,80.416,85.6,88.215,93.497,101.5978,104.996,108.658,111.196,114.955" svgx:width="0.83,0.45,0.53,0.26,0.54,0.83,0.55,0.38,0.26,0.38,0.5" style="fill:rgb(0,0,0);font-family:RbtfwkAdvOTa9103878;font-size:9.76px;stroke:none;">medium risk</text>
   <text y="562.337" x="119.849" svgx:width="0.36" style="fill:rgb(0,0,0);font-family:WxmlkmAdvOTa9103878;font-size:9.76px;stroke:none;">”</text>
   <text y="562.337" x="126.709,129.248,134.703,138.462,141.606,144.145,147.288,152.57,155.714,158.253,163.447,168.815,172.177,175.296,180.177,183.321,185.4682,188.789,195.291,200.573,203.189,206.8978,210.275,214.034,218.398,222.059,226.424,230.788,236.177,238.716,244.235,248.9198,252.228,259.033,263.398,267.1068,270.484,275.668,280.745,286.135" svgx:width="0.26,0.55,0.38,0.32,0.26,0.32,0.54,0.32,0.26,0.52,0.55,0.55,0.32,0.5,0.32,0.22,0.55,0.67,0.54,0.26,0.38,0.55,0.38,0.45,0.38,0.45,0.45,0.55,0.26,0.55,0.48,0.55,0.7,0.45,0.38,0.55,0.53,0.52,0.55,0.45" style="fill:rgb(0,0,0);font-family:RbtfwkAdvOTa9103878;font-size:9.76px;stroke:none;">institution [9]. This screening was done</text>
   <text y="574.299" x="56.693,62.268,67.636,71.905,76.297,80.522,84.661,89.523,94.698,100.478,103.514,108.376,112.0848,116.256,121.119,126.958,132.845,138.625,143.445,145.9826,150.248,155.823,160.685,164.942,167.978,172.235,174.3822,178.642,185.899,191.682,196.544,202.383,207.246,212.178,217.04,220.7488,224.977,230.816,235.692,242.524,246.747,250.999,254.641,259.503,262.791,265.6214,269.878,277.181,282.043,286.202" svgx:width="0.52,0.55,0.55,0.45,0.55,0.38,0.45,0.48,0.54,0.26,0.45,0.38,0.55,0.45,0.55,0.55,0.54,0.45,0.26,0.55,0.52,0.45,0.38,0.26,0.38,0.22,0.55,0.7,0.54,0.45,0.55,0.45,0.46,0.45,0.38,0.55,0.55,0.45,0.7,0.55,0.38,0.32,0.45,0.29,0.29,0.55,0.7,0.45,0.38,0.45" style="fill:rgb(0,0,0);font-family:RbtfwkAdvOTa9103878;font-size:9.76px;stroke:none;">on a regular annual basis, whenever new staff were</text>
   <text y="586.261" x="56.693,61.255,69.586,74.969,77.706,82.981,87.543,92.106,97.488,99.6352,103.328,106.39,111.665,114.401,117.138,122.467,129.47,132.207,137.795,142.47979999999998,146.185,151.46,156.023,160.585,165.148,169.105,171.841,177.117,182.704,187.267,189.8046,193.503,197.358,201.921,207.303,212.783,217.346,221.303,224.645,228.3538,232.072,235.134,238.993,244.268,252.3688,256.117,260.029,264.592,272.923,278.305,281.647,286.923" svgx:width="0.45,0.83,0.53,0.26,0.52,0.45,0.45,0.53,0.22,0.55,0.29,0.52,0.26,0.26,0.52,0.7,0.26,0.55,0.48,0.55,0.52,0.45,0.45,0.45,0.38,0.26,0.52,0.55,0.45,0.26,0.55,0.38,0.45,0.53,0.54,0.45,0.38,0.32,0.38,0.55,0.29,0.38,0.52,0.83,0.55,0.38,0.45,0.83,0.53,0.32,0.52,0.36" style="fill:rgb(0,0,0);font-family:RbtfwkAdvOTa9103878;font-size:9.76px;stroke:none;">employed, following occasional requests from sympto-</text>
   <text y="598.223" x="56.693,65.202,69.908,73.427,76.342,80.734,84.676,91.876,97.329,101.366,106.582,111.288,115.325,119.46,121.60719999999999,125.582,131.025,134.7338,138.621,141.569,146.93699999999998,150.923,155.629,160.369,164.452,169.192,172.9008,176.902,182.355,185.1854,189.214,193.92,199.363,205.089,208.604,213.344,218.05,221.1732,225.193,232.336,235.25,238.77,244.0404,248.067,250.958,256.684,259.916,264.622,269.328,272.843,275.757,281.21,286.868" svgx:width="0.83,0.45,0.32,0.26,0.45,0.55,0.7,0.52,0.38,0.5,0.45,0.38,0.38,0.22,0.55,0.52,0.38,0.55,0.26,0.55,0.55,0.45,0.45,0.38,0.45,0.38,0.55,0.52,0.29,0.55,0.45,0.52,0.55,0.32,0.45,0.45,0.32,0.55,0.7,0.26,0.32,0.54,0.55,0.26,0.55,0.29,0.45,0.45,0.32,0.26,0.52,0.54,0.38" style="fill:rgb(0,0,0);font-family:RbtfwkAdvOTa9103878;font-size:9.76px;stroke:none;">matic workers, or in cases of contact with infectious</text>
   <text y="610.185" x="56.693,62.193,66.899,70.39,73.224,77.936,83.673,87.164,90.8728,94.818,100.243,103.95179999999999,107.839,116.287,120.993,124.484,129.196,133.165,136.056,140.768,143.602,147.708,149.8552,153.831,160.634,166.247,170.639,174.581,178.55,181.436,185.543,190.423,194.386,199.772,202.6024,206.575,210.033,214.042,218.754,224.491,228.597,237.044,239.935,244.042,248.148,251.034,256.42,261.788,265.774,271.16,273.9904,277.963,284.813" svgx:width="0.53,0.45,0.32,0.26,0.45,0.55,0.32,0.38,0.55,0.52,0.38,0.55,0.83,0.45,0.32,0.45,0.38,0.26,0.45,0.26,0.38,0.22,0.55,0.67,0.54,0.45,0.55,0.38,0.26,0.38,0.5,0.55,0.52,0.29,0.55,0.32,0.38,0.45,0.55,0.38,0.83,0.26,0.38,0.38,0.26,0.52,0.55,0.55,0.52,0.29,0.55,0.67,0.59" style="fill:rgb(0,0,0);font-family:RbtfwkAdvOTa9103878;font-size:9.76px;stroke:none;">patients or materials. The risk of transmission of TB</text>
   <text y="622.147" x="56.693,63.723,68.258,71.96679999999999,75.741,80.276,83.054,87.589,91.537,95.484,98.211,101.273,103.994,108.585,113.75779999999999,117.429,122.021,125.7298,129.448,132.226,137.498,144.491,146.6382,150.331,158.652,163.917,169.29,173.882,177.732,182.284,185.686,190.078,193.737,198.29,203.903,209.0758,212.746,218.245,220.972,225.837,231.307,233.4542,237.147,241.7,246.291,250.844,256.173,260.023,265.395,268.122,273.735,278.4198,282.069,285.414" svgx:width="0.7,0.45,0.38,0.55,0.45,0.26,0.45,0.38,0.38,0.26,0.29,0.26,0.45,0.53,0.55,0.45,0.38,0.55,0.26,0.52,0.7,0.22,0.55,0.83,0.52,0.53,0.45,0.38,0.45,0.32,0.45,0.55,0.45,0.55,0.53,0.55,0.54,0.26,0.48,0.54,0.22,0.55,0.45,0.45,0.45,0.52,0.38,0.53,0.26,0.55,0.48,0.55,0.32,0.52" style="fill:rgb(0,0,0);font-family:RbtfwkAdvOTa9103878;font-size:9.76px;stroke:none;">was classified as low, moderate and high, according to</text>
   <text y="634.109" x="56.693,59.834,65.113,69.505,72.731,79.338,86.453,93.0898,96.366,99.507,104.386,107.527" svgx:width="0.32,0.54,0.45,0.55,0.68,0.73,0.68,0.55,0.32,0.5,0.32,0.22" style="fill:rgb(0,0,0);font-family:RbtfwkAdvOTa9103878;font-size:9.76px;stroke:none;">the CDC [9].</text>
   <text y="646.015" x="64.686,71.299,76.691,79.34,83.0488,86.597,90.466,94.941,98.713,103.187,107.662,113.161,115.81,121.31,125.9948,129.531,134.803,138.575,143.762,148.549,152.321,156.795,165.038,173.282,177.674,181.105,185.58,190.767,196.267,200.136,202.785,206.654,209.908,214.383,219.5558,223.113,228.272,231.223,233.3702,236.893,241.885,245.0082,248.518,252.91,256.398,260.254,263.508,267.983,273.482,278.777,283.252,287.023" svgx:width="0.67,0.54,0.26,0.38,0.55,0.38,0.45,0.38,0.45,0.45,0.55,0.26,0.55,0.48,0.55,0.53,0.38,0.52,0.48,0.38,0.45,0.83,0.83,0.45,0.55,0.45,0.52,0.55,0.38,0.26,0.38,0.32,0.45,0.53,0.55,0.52,0.29,0.22,0.55,0.5,0.32,0.55,0.45,0.55,0.38,0.32,0.45,0.55,0.53,0.45,0.38,0.36" style="fill:rgb(0,0,0);font-family:RbtfwkAdvOTa9103878;font-size:9.76px;stroke:none;">This screening programme consisted of: 1) a standar-</text>
   <text y="657.977" x="56.693,62.045,64.752,69.186,73.718,78.8908,82.505,85.226,90.784,94.096,98.687,102.485,107.125,109.831,114.363,121.195,124.795,129.327,134.572,139.211,143.743,147.573,150.279,155.836,160.5208,164.17,169.015,173.547,179.104,184.457,188.989,192.818,194.9652,198.601,203.136,207.981,212.572,214.7192,218.299,225.272,230.517,234.346,239.448,244.777,247.483,252.016,256.548,261.08,263.2272,266.863,271.395,276.337,281.69,286.934" svgx:width="0.53,0.26,0.44,0.45,0.53,0.55,0.26,0.55,0.32,0.45,0.38,0.46,0.26,0.45,0.7,0.55,0.45,0.52,0.46,0.45,0.38,0.26,0.55,0.48,0.55,0.48,0.45,0.55,0.53,0.45,0.38,0.22,0.55,0.45,0.48,0.45,0.22,0.55,0.7,0.52,0.38,0.5,0.53,0.26,0.45,0.45,0.45,0.22,0.55,0.45,0.49,0.53,0.52,0.36" style="fill:rgb(0,0,0);font-family:RbtfwkAdvOTa9103878;font-size:9.76px;stroke:none;">dized interview covering gender, age, workplace, expo-</text>
   <text y="669.939" x="56.693,60.791,66.411,70.411,74.803,78.689,82.828,85.662,89.144,94.765,99.468,102.951,105.828,111.244,116.972,119.11919999999999,123.038,129.879,135.63739999999999,139.631,145.252,148.129,152.227,155.709,161.125,165.125,169.517,173.459,178.129,183.857,189.0298,192.986,199.827,205.956,209.848,213.848,218.498,221.39,226.093,229.575,234.278,239.4508,243.407,247.407,252.11,256.208,261.731,264.608,268.608,273.312,276.794,282.21,286.21" svgx:width="0.38,0.54,0.38,0.45,0.55,0.38,0.26,0.32,0.54,0.45,0.32,0.26,0.52,0.55,0.22,0.55,0.67,0.59,0.55,0.54,0.26,0.38,0.32,0.52,0.38,0.45,0.55,0.45,0.55,0.53,0.55,0.67,0.59,0.36,0.38,0.45,0.26,0.45,0.32,0.45,0.53,0.55,0.38,0.45,0.38,0.53,0.26,0.38,0.45,0.32,0.52,0.38,0.45" style="fill:rgb(0,0,0);font-family:RbtfwkAdvOTa9103878;font-size:9.76px;stroke:none;">sure situation, TB history and TB-related respiratory</text>
   <text y="681.901" x="56.693,60.452,64.914,73.134,78.319,81.582,86.659,94.905,98.6138,102.048,105.279,109.644,114.804,120.086,124.895,130.177,132.3242,135.78,140.965,144.626,149.841,155.025,160.443,164.807,168.04,170.647,175.182,179.57399999999998,182.949,187.314,192.53,197.812,202.565,207.847,209.9942,213.45,218.732,223.202,227.566,235.844,240.921,246.219,249.363,253.816,257.672,260.21,264.078,266.2252,269.577,272.809,278.091,283.297,286.958" svgx:width="0.38,0.45,0.83,0.53,0.32,0.52,0.83,0.38,0.55,0.32,0.45,0.52,0.54,0.48,0.54,0.22,0.55,0.53,0.38,0.52,0.53,0.54,0.45,0.32,0.26,0.46,0.45,0.55,0.45,0.52,0.54,0.48,0.54,0.22,0.55,0.54,0.45,0.45,0.83,0.52,0.53,0.32,0.45,0.38,0.26,0.38,0.22,0.55,0.32,0.54,0.52,0.38,0.36" style="fill:rgb(0,0,0);font-family:RbtfwkAdvOTa9103878;font-size:9.76px;stroke:none;">symptoms (cough, productive cough, haemoptysis, thor-</text>
   <text y="693.863" x="56.693,61.466,66.285,71.059,74.006,79.092,82.04,86.813,89.9362,94.07,98.843,102.5518,106.723,113.981,118.743,121.691,124.2286,128.324,133.097,136.8058,140.977,145.751,151.237,157.076,161.215,164.768,167.715,171.268,176.959,180.512,183.46,188.946,194.744,199.564,202.1016,206.197,210.365,215.184,223.726,229.32,232.872,238.359,246.901,250.6098,254.724,258.277,261.527,266.3,269.853,272.801,277.887,283.578,288.351" svgx:width="0.45,0.45,0.45,0.26,0.48,0.26,0.45,0.32,0.55,0.45,0.38,0.55,0.7,0.45,0.26,0.26,0.55,0.45,0.38,0.55,0.45,0.52,0.55,0.38,0.32,0.26,0.32,0.54,0.32,0.26,0.52,0.55,0.45,0.26,0.55,0.38,0.45,0.83,0.53,0.32,0.52,0.83,0.38,0.55,0.32,0.29,0.45,0.32,0.26,0.48,0.54,0.45,0.22" style="fill:rgb(0,0,0);font-family:RbtfwkAdvOTa9103878;font-size:9.76px;stroke:none;">acalgia) as well as constitutional symptoms (fatigue,</text>
   <text y="705.826" x="56.693,63.498,67.975,70.582,75.259,80.617,83.7402,87.137,89.745,94.822,98.581,102.501,104.6482,108.001,110.842,115.314,119.849,124.214,127.9228,131.302,135.666,141.056,146.2288,149.671,155.06,157.722,162.398,167.756,170.8792,174.333,178.092,184.992,189.356,193.836,196.98,200.124,202.2712,205.742,210.624,213.7472,217.194,221.559,226.946,231.31,235.167,238.2902,241.687,245.348,249.794,255.067,257.605,262.777,267.453,271.115,275.589,280.862,286.144" svgx:width="0.7,0.45,0.26,0.48,0.54,0.32,0.55,0.26,0.52,0.38,0.38,0.22,0.55,0.29,0.45,0.46,0.45,0.38,0.55,0.45,0.55,0.53,0.55,0.55,0.26,0.48,0.54,0.32,0.55,0.38,0.7,0.45,0.45,0.32,0.32,0.22,0.55,0.5,0.32,0.55,0.45,0.54,0.45,0.38,0.32,0.55,0.38,0.45,0.53,0.26,0.52,0.48,0.38,0.45,0.53,0.54,0.45" style="fill:rgb(0,0,0);font-family:RbtfwkAdvOTa9103878;font-size:9.76px;stroke:none;">weight loss, fever and night sweat), 2) chest radiography</text>
   <text y="717.788" x="56.693,59.928,66.63,73.429,79.516,82.6392,86.149,88.757,91.5874,95.049,101.626,106.697,113.2362,116.619,121.787,125.4958,128.93,132.273,139.488,145.653,152.58259999999999,155.971,162.868,167.324,171.077,175.469,178.9,184.177,189.345,193.196,195.826,199.062,201.692,206.255,210.647,214.022,219.238,222.9468,226.324,228.954,231.7844,235.247,239.098,243.554,251.778,257.054,260.29,265.459,273.683,278.048,281.337,284.001,288.366" svgx:width="0.32,0.68,0.69,0.61,0.32,0.55,0.26,0.29,0.55,0.67,0.51,0.67,0.55,0.52,0.38,0.55,0.33,0.74,0.61,0.71,0.55,0.7,0.45,0.38,0.45,0.55,0.53,0.52,0.38,0.26,0.32,0.26,0.46,0.45,0.55,0.52,0.38,0.55,0.26,0.29,0.55,0.38,0.45,0.83,0.53,0.32,0.52,0.83,0.45,0.32,0.26,0.45,0.22" style="fill:rgb(0,0,0);font-family:RbtfwkAdvOTa9103878;font-size:9.76px;stroke:none;">(CXR) if TST or IGRA were positive or if symptomatic,</text>
   <text y="729.75" x="56.693,61.935,65.0582,69.078,75.94,81.28,87.8192,91.711,98.912,101.746,105.261,110.53139999999999,114.502,119.718,122.206,127.086,131.05,139.543,145.0086,149.011,154.396,157.22639999999998,161.256,166.136,170.1,175.713,181.462,184.361,187.865,191.5738,195.575,201.013,203.8434,207.816,213.36,219.003,222.971,225.862,229.064,231.898,236.623,241.79579999999999,245.75,249.254,254.897,260.334,265.059,269.08,273.805,279.447,282.346,285.244" svgx:width="0.5,0.32,0.55,0.67,0.51,0.67,0.55,0.7,0.26,0.32,0.54,0.55,0.5,0.22,0.5,0.55,0.83,0.56,0.55,0.52,0.29,0.55,0.5,0.55,0.54,0.55,0.26,0.32,0.38,0.55,0.52,0.29,0.55,0.53,0.54,0.38,0.26,0.29,0.26,0.45,0.53,0.55,0.32,0.54,0.52,0.45,0.38,0.45,0.54,0.26,0.26,0.55" style="fill:rgb(0,0,0);font-family:RbtfwkAdvOTa9103878;font-size:9.76px;stroke:none;">3) TST with 0.1 mL of 2 units of purified tuberculin</text>
   <text y="96.091" x="304.725,308.341,314.299,320.258,327.847,330.9702,335.217,341.681,348.2202,352.396,357.725,362.605,366.853,372.304,377.755,381.477,383.6242,387.827,393.554,399.415,402.425,407.26,411.491,415.1998,419.428,424.303,429.852,435.713,439.328,443.461,448.297,451.307,457.168,462.824,465.834,470.67,475.506,479.121,482.131,487.68,493.048,497.261,500.889,506.545,510.677,515.513,520.456,523.466,529.015,534.769" svgx:width="0.32,0.56,0.56,0.73,0.32,0.55,0.61,0.67,0.55,0.5,0.5,0.55,0.51,0.51,0.33,0.22,0.55,0.54,0.55,0.26,0.45,0.38,0.38,0.55,0.45,0.52,0.55,0.32,0.38,0.45,0.26,0.55,0.53,0.26,0.45,0.45,0.32,0.26,0.52,0.55,0.55,0.32,0.53,0.38,0.45,0.46,0.26,0.52,0.54,0.38" style="fill:rgb(0,0,0);font-family:RbtfwkAdvOTa9103878;font-size:9.76px;stroke:none;">(PPD) RT 23 SSI, unless contraindication (previous</text>
   <text y="108.054" x="304.725,308.095,313.602,318.905,323.494,327.381,331.971,337.479,340.2,342.964,348.332,352.035,355.922,360.457,365.046,369.636,373.006,375.77,381.072" svgx:width="0.32,0.54,0.52,0.45,0.38,0.45,0.54,0.26,0.26,0.55,0.55,0.38,0.45,0.45,0.45,0.32,0.26,0.52,0.55" style="fill:rgb(0,0,0);font-family:RbtfwkAdvOTa9103878;font-size:9.76px;stroke:none;">tuberculin reaction</text>
   <text y="108.054" x="390.162" svgx:width="0.55" style="fill:rgb(0,0,0);font-family:GygkqtAdvOTa9103878;font-size:9.76px;stroke:none;">≥</text>
   <text y="108.054" x="395.775,400.855,405.735,409.472,417.803,426.134,428.2812,431.974,437.356,441.268,445.831,450.501,453.237,458.513,463.993,467.7018,471.476,476.859,479.596,484.158,489.091,494.678,500.007,503.964,506.701,510.4098,514.128,519.457,522.2874,525.977,532.723" svgx:width="0.5,0.5,0.55,0.83,0.83,0.22,0.55,0.53,0.38,0.45,0.46,0.26,0.52,0.54,0.38,0.55,0.53,0.26,0.45,0.48,0.55,0.52,0.38,0.26,0.38,0.55,0.52,0.29,0.55,0.67,0.59" style="fill:rgb(0,0,0);font-family:RbtfwkAdvOTa9103878;font-size:9.76px;stroke:none;">15 mm, previous diagnosis of TB</text>
   <text y="120.016" x="304.725,311.932,314.871,318.416,323.6864,327.771,332.536,338.122,343.708,347.77,353.248,358.834,362.897,365.836,370.602,374.147,378.539,382.594,386.109,390.172,394.937,399.703,403.248,411.782,416.601,422.392,425.937,428.0842,432.173,436.311,441.077,445.95,450.715,454.778,459.17,463.225,468.101,471.041,475.103,479.869,482.4066,486.502,489.442,495.233,498.475,503.241,508.06,511.575,514.514,519.993,525.3610000000001,529.46,534.902" svgx:width="0.7,0.26,0.32,0.54,0.55,0.45,0.53,0.53,0.38,0.52,0.53,0.38,0.26,0.45,0.32,0.45,0.55,0.32,0.38,0.45,0.45,0.32,0.83,0.45,0.55,0.32,0.22,0.55,0.38,0.45,0.46,0.45,0.38,0.45,0.55,0.46,0.26,0.38,0.45,0.26,0.55,0.26,0.55,0.29,0.45,0.45,0.32,0.26,0.52,0.55,0.55,0.52,0.38" style="fill:rgb(0,0,0);font-family:RbtfwkAdvOTa9103878;font-size:9.76px;stroke:none;">with appropriate treatment, severe viral infection or</text>
   <text y="131.978" x="304.725,307.549,315.967,324.385,329.952,335.626,338.45,342.494,347.143,350.572,353.396,358.758,364.126,367.999,375.089,377.913,381.342,386.6124,390.469,395.226,399.875,404.525,409.174,411.998,417.672,422.064,425.893,432.983,435.807,439.236,444.5064,448.363,451.187,454.01,458.767,463.159,466.988,471.745,474.568,478.515,484.082,487.7908,491.735,494.513,499.162,503.206,506.9148,510.803,514.261,519.828,524.478,529.846,533.719" svgx:width="0.26,0.83,0.83,0.54,0.55,0.26,0.38,0.45,0.32,0.26,0.52,0.55,0.55,0.7,0.26,0.32,0.54,0.55,0.46,0.45,0.45,0.45,0.26,0.55,0.45,0.55,0.7,0.26,0.32,0.54,0.55,0.26,0.26,0.46,0.45,0.55,0.46,0.26,0.38,0.54,0.38,0.55,0.26,0.45,0.38,0.38,0.55,0.32,0.54,0.45,0.55,0.55,0.5" style="fill:rgb(0,0,0);font-family:RbtfwkAdvOTa9103878;font-size:9.76px;stroke:none;">immunisation with vaccine with live virus less than 1</text>
   <text y="143.94" x="304.725,313.202,318.622,324.405,327.864,333.13439999999997,337.161,341.867,346.888,352.308,354.4552,358.431,361.322,366.03,370.035,375.055,379.447,383.389,388.097,393.215,396.702,401.465,407.198,411.301,414.183,418.998,423.39,427.332,432.774,438.4,442.405,448.188,451.8968,455.898,461.319,465.0278,468.972,473.68,478.388,482.998,487.761,496.208,500.971,504.429,506.5762,510.552,515.258,520.991,526.1638,530.175,535.4" svgx:width="0.83,0.52,0.55,0.32,0.54,0.55,0.45,0.48,0.52,0.22,0.55,0.26,0.45,0.38,0.48,0.45,0.55,0.45,0.49,0.32,0.45,0.55,0.38,0.26,0.46,0.45,0.55,0.52,0.54,0.38,0.55,0.38,0.55,0.52,0.38,0.55,0.45,0.45,0.44,0.45,0.83,0.45,0.32,0.22,0.55,0.45,0.55,0.53,0.55,0.5,0.32" style="fill:rgb(0,0,0);font-family:RbtfwkAdvOTa9103878;font-size:9.76px;stroke:none;">month ago, large extensive burns or eczema), and 4)</text>
   <text y="155.902" x="304.725,308.57,311.194,316.67,321.034,325.426,328.973,335.946,341.216,344.963,347.588,350.1256,353.597,358.565,363.446,368.486,373.366,376.82,379.445,384.92,388.56,393.151,395.776,399.006,402.753,407.8282,411.313,415.763,421.153,425.572,430.05,438.269,442.661,446.093,448.717,456.936,465.155,470.523,475.912,481.181,485.545,489.459,493.303,497.754,502.146,505.577,508.809,514.382,519.995,523.332,528.397,535.395" svgx:width="0.38,0.26,0.55,0.45,0.45,0.55,0.71,0.53,0.38,0.26,0.26,0.55,0.5,0.5,0.5,0.5,0.55,0.26,0.55,0.36,0.46,0.26,0.32,0.38,0.52,0.55,0.45,0.55,0.44,0.45,0.83,0.45,0.55,0.26,0.83,0.83,0.54,0.55,0.52,0.45,0.38,0.38,0.45,0.45,0.55,0.32,0.56,0.56,0.33,0.51,0.71,0.32" style="fill:rgb(0,0,0);font-family:RbtfwkAdvOTa9103878;font-size:9.76px;stroke:none;">since April 2007 in-vitro enzyme immunoassay (ELISA)</text>
   <text y="167.807" x="304.725,307.957,312.321,316.178,319.3012,322.754,327.913,332.278,336.134,340.613,345.7858,349.173,354.332,359.7,363.119,366.351,371.633,376.025,379.447,384.72,390.002,394.471,399.97,403.114,405.753,408.594,411.253,415.731,420.095,423.328,425.936,431.095,436.463,439.882,445.041,447.8714,451.277,453.884,459.274,462.558,466.923,470.722,473.564,478.036,481.778,486.937,492.326,496.008,500.684,502.8312,506.269,513.979,519.261,523.731,529.12,532.405,535.013" svgx:width="0.32,0.45,0.38,0.32,0.55,0.52,0.45,0.38,0.45,0.53,0.55,0.52,0.55,0.55,0.32,0.54,0.45,0.55,0.53,0.54,0.45,0.55,0.32,0.26,0.29,0.26,0.45,0.45,0.32,0.26,0.52,0.55,0.55,0.52,0.29,0.55,0.26,0.55,0.32,0.45,0.38,0.29,0.45,0.38,0.52,0.55,0.36,0.48,0.22,0.55,0.78,0.54,0.45,0.55,0.32,0.26,0.36" style="fill:rgb(0,0,0);font-family:RbtfwkAdvOTa9103878;font-size:9.76px;stroke:none;">test based on the quantification of interferon-g, Quanti-</text>
   <text y="179.77" x="304.725,309.884,315.371,321.45,329.075,336.587,340.215,346.718,352.4764,355.92,363.135,368.336,370.943,376.1158,379.504,382.755,388.234,391.788,398.383,403.665,408.87,413.262,416.637,419.781,423.032,430.357,436.423,443.396,446.54,448.6872,452.126,458.629,463.911,466.583,470.2918,473.726,476.957,481.322,485.178,488.3012,491.698,498.503,502.98,506.6888,510.123,514.487,518.967,522.629,526.394,528.933,533.367" svgx:width="0.52,0.56,0.61,0.78,0.76,0.36,0.67,0.59,0.55,0.74,0.52,0.26,0.53,0.55,0.33,0.55,0.36,0.67,0.54,0.52,0.45,0.55,0.32,0.33,0.74,0.61,0.71,0.32,0.22,0.55,0.67,0.54,0.26,0.38,0.55,0.32,0.45,0.38,0.32,0.55,0.7,0.45,0.38,0.55,0.45,0.45,0.38,0.38,0.26,0.45,0.53" style="fill:rgb(0,0,0);font-family:RbtfwkAdvOTa9103878;font-size:9.76px;stroke:none;">FERON-TB Gold In-Tube (IGRA). This test was carried</text>
   <text y="191.732" x="304.725,309.884,315.27,318.3932,321.846,325.605,328.31,336.443,341.859,344.467,347.699,352.177,357.567,362.042,367.201,372.587,376.442,379.05,383.442,386.817,393.733,396.341,399.573,404.8434,408.303,411.535,416.817,421.209,424.688,431.265,436.31,442.8492,446.289,449.52,454.402,459.385,462.617,464.7642,468.23,475.1596,478.548,485.124,490.17" svgx:width="0.52,0.54,0.32,0.55,0.38,0.26,0.83,0.54,0.26,0.32,0.45,0.55,0.45,0.52,0.54,0.38,0.26,0.45,0.55,0.7,0.26,0.32,0.54,0.55,0.32,0.54,0.45,0.55,0.67,0.51,0.67,0.55,0.32,0.5,0.5,0.32,0.22,0.55,0.71,0.55,0.67,0.51,0.67" style="fill:rgb(0,0,0);font-family:RbtfwkAdvOTa9103878;font-size:9.76px;stroke:none;">out simultaneously with the TST [26]. A TST</text>
   <text y="191.732" x="500.147" svgx:width="0.55" style="fill:rgb(0,0,0);font-family:GygkqtAdvOTa9103878;font-size:9.76px;stroke:none;">≥</text>
   <text y="191.732" x="508.934,513.913,518.793,522.19,530.421" svgx:width="0.5,0.5,0.55,0.83,0.83" style="fill:rgb(0,0,0);font-family:RbtfwkAdvOTa9103878;font-size:9.76px;stroke:none;">10 mm</text>
   <text y="203.694" x="304.725,311.787,316.408,320.1168,323.948,328.597,333.93,339.577,343.592,346.388,351.829,356.45,360.368,364.989,370.16179999999997,373.947,378.538,382.2468,386.135,391.577,396.911,400.927,403.722,407.123,409.918,414.646,419.267,421.4142,425.141,427.975,433.343,437.16,441.775,446.424,451.04,456.367,460.28,465.715,470.363,475.976,480.626,485.018,488.79,495.876,498.654,502.049,507.3194,511.12,516.858,522.186,526.098,529.492,535.025" svgx:width="0.7,0.45,0.38,0.55,0.45,0.52,0.55,0.38,0.26,0.53,0.45,0.38,0.45,0.53,0.55,0.45,0.38,0.55,0.53,0.52,0.38,0.26,0.32,0.26,0.46,0.45,0.22,0.55,0.26,0.55,0.55,0.45,0.45,0.45,0.52,0.38,0.53,0.45,0.55,0.45,0.45,0.55,0.7,0.26,0.32,0.54,0.55,0.56,0.52,0.38,0.32,0.54,0.36" style="fill:rgb(0,0,0);font-family:RbtfwkAdvOTa9103878;font-size:9.76px;stroke:none;">was considered as positive, in accordance with Portu-</text>
   <text y="215.656" x="304.725,309.662,315.203,319.827,323.846,328.238,332.01,336.942,342.484,345.282,350.726,355.35,358.149,360.947,366.596,371.22,374.9288,378.76,382.162,387.303,392.444,395.903,398.0502,401.799,405.31,412.785,419.039,425.9686,429.754,433.158,437.782,441.8,445.204,448.9128,452.744,459.831,464.454,468.375,472.767,476.54,481.189,485.813,489.734,493.655,496.453,501.077,506.2498,510.035,515.372,520.913,524.0362,527.886,533.215" svgx:width="0.48,0.54,0.45,0.38,0.45,0.55,0.48,0.54,0.26,0.53,0.45,0.26,0.26,0.55,0.45,0.38,0.55,0.32,0.5,0.5,0.32,0.22,0.55,0.33,0.74,0.61,0.71,0.55,0.32,0.45,0.38,0.32,0.38,0.55,0.7,0.45,0.38,0.45,0.55,0.45,0.45,0.38,0.38,0.26,0.45,0.53,0.55,0.52,0.54,0.32,0.55,0.52,0.55" style="fill:rgb(0,0,0);font-family:RbtfwkAdvOTa9103878;font-size:9.76px;stroke:none;">guese guidelines [13]. IGRA tests were carried out on</text>
   <text y="227.618" x="304.725,308.112,313.637,318.029,321.745,327.074,331.681,335.683,338.465,342.17379999999997,345.948,351.268,354.09839999999997,357.845,361.232,366.757,371.149,374.921,383.255,387.863,393.495,399.02,402.104,406.712,411.319,414.706,420.231,424.136" svgx:width="0.32,0.54,0.45,0.55,0.52,0.45,0.38,0.26,0.38,0.55,0.52,0.29,0.55,0.32,0.54,0.45,0.55,0.83,0.45,0.55,0.54,0.29,0.45,0.45,0.32,0.54,0.38,0.45" style="fill:rgb(0,0,0);font-family:RbtfwkAdvOTa9103878;font-size:9.76px;stroke:none;">the basis of the manufacture</text>
   <text y="227.618" x="428.713" svgx:width="0.2" style="fill:rgb(0,0,0);font-family:WxmlkmAdvOTa9103878;font-size:9.76px;stroke:none;">’</text>
   <text y="227.618" x="430.867,434.5758,438.408,446.742,451.336,457.006,462.518,467.113,469.6506,473.406,477.997,483.617,488.7898,492.575,497.17,502.477,508.097,512.086,514.855,520.27,524.865,528.756,533.351" svgx:width="0.38,0.55,0.83,0.45,0.55,0.54,0.45,0.26,0.55,0.45,0.55,0.53,0.55,0.45,0.52,0.55,0.38,0.26,0.53,0.45,0.38,0.45,0.53" style="fill:rgb(0,0,0);font-family:RbtfwkAdvOTa9103878;font-size:9.76px;stroke:none;">s manual and considered</text>
   <text y="239.58" x="304.725,309.91,314.987,318.745,321.284,324.428,327.063,331.535,335.927,339.195,346.0,351.282,355.646" svgx:width="0.53,0.52,0.38,0.26,0.32,0.26,0.46,0.45,0.55,0.7,0.54,0.45,0.55" style="fill:rgb(0,0,0);font-family:RbtfwkAdvOTa9103878;font-size:9.76px;stroke:none;">positive when</text>
   <text y="239.58" x="364.424" svgx:width="0.55" style="fill:rgb(0,0,0);font-family:GygkqtAdvOTa9103878;font-size:9.76px;stroke:none;">≥</text>
   <text y="239.58" x="369.809,374.691,376.819,381.701,386.581,389.935,393.187,400.304,403.858,411.991,417.478,419.6252,422.988,430.106,435.495,440.68,445.044,448.188,452.552,456.213,464.346,466.983,472.373,476.737,481.9098,485.239,488.49,495.705,501.7,508.6296,511.998,515.66,520.024,523.783,529.065,531.603,534.747" svgx:width="0.5,0.22,0.5,0.5,0.55,0.33,0.73,0.36,0.83,0.56,0.22,0.55,0.73,0.55,0.53,0.45,0.32,0.45,0.38,0.83,0.26,0.55,0.45,0.53,0.55,0.33,0.74,0.61,0.71,0.55,0.38,0.45,0.38,0.54,0.26,0.32,0.38" style="fill:rgb(0,0,0);font-family:RbtfwkAdvOTa9103878;font-size:9.76px;stroke:none;">0.35 IU/mL. Undetermined IGRA results</text>
   <text y="251.542" x="304.725,311.868,316.631,320.675,325.067,329.009,333.053,337.759,343.326,348.073,352.779,356.294,361.0,366.1728,370.184,375.644,381.37,386.117,390.823,392.9702,396.945,400.574,403.4044,407.433,411.515,416.262,420.231,424.978,429.684,435.41,438.359,444.085,448.7698,452.759,459.902,464.664,468.3728,472.375,477.931,482.678,486.647,489.871,495.33,499.374,507.822,512.569,517.7418,521.753,526.459,530.1677999999999,534.226" svgx:width="0.7,0.45,0.38,0.45,0.55,0.38,0.45,0.53,0.45,0.45,0.32,0.45,0.53,0.55,0.52,0.55,0.45,0.45,0.22,0.55,0.33,0.29,0.55,0.38,0.45,0.38,0.45,0.45,0.55,0.26,0.55,0.48,0.55,0.7,0.45,0.38,0.55,0.53,0.45,0.38,0.29,0.52,0.38,0.83,0.45,0.53,0.55,0.45,0.38,0.55,0.45" style="fill:rgb(0,0,0);font-family:RbtfwkAdvOTa9103878;font-size:9.76px;stroke:none;">were repeated once. If screening was performed as a</text>
   <text y="263.448" x="304.725,308.467,312.831,316.687,321.969,324.625,327.7482,331.202,336.279,339.1094,342.597,347.879,353.369,358.642,362.303,367.486,370.63,375.14,379.504,382.737,387.101,392.2738,395.777,400.141,405.358,410.747,413.975,418.453,422.817,425.9402,429.395,436.2,438.863,442.094,447.3644,450.768,453.376,458.765,461.71,466.074,470.611,473.755,476.394,481.553,486.835,490.5438,494.026,499.298,503.662,506.952,509.49,513.981,519.371,522.598,526.3068,529.799,534.876" svgx:width="0.38,0.45,0.38,0.54,0.26,0.32,0.55,0.52,0.29,0.55,0.54,0.55,0.53,0.38,0.52,0.32,0.45,0.45,0.32,0.45,0.53,0.55,0.45,0.52,0.55,0.32,0.45,0.45,0.32,0.55,0.7,0.26,0.32,0.54,0.55,0.26,0.55,0.29,0.45,0.45,0.32,0.26,0.52,0.54,0.38,0.55,0.53,0.45,0.32,0.26,0.45,0.55,0.32,0.38,0.55,0.52,0.38" style="fill:rgb(0,0,0);font-family:RbtfwkAdvOTa9103878;font-size:9.76px;stroke:none;">result of unprotected contact with infectious patients or</text>
   <text y="275.41" x="304.725,313.066,317.638,321.04,325.575,329.444,332.191,336.763,339.509,343.476,345.6232,349.259,355.969,361.157,367.6962,371.361,375.896,381.494,386.6668,390.338,393.797,401.22,407.423,414.3526,417.967,424.98,429.506,433.368,437.76,441.361,446.746,451.31,455.171,458.213,463.49,467.351,475.684,480.249,485.4218,489.092,493.684,496.423,501.3,506.782,509.9052,513.585,520.59,525.155,529.719,534.801" svgx:width="0.83,0.45,0.32,0.45,0.38,0.26,0.45,0.26,0.38,0.22,0.55,0.67,0.51,0.67,0.55,0.45,0.55,0.53,0.55,0.33,0.74,0.61,0.71,0.55,0.7,0.45,0.38,0.45,0.55,0.53,0.45,0.38,0.29,0.52,0.38,0.83,0.45,0.53,0.55,0.45,0.26,0.48,0.54,0.32,0.55,0.7,0.45,0.45,0.5,0.38" style="fill:rgb(0,0,0);font-family:RbtfwkAdvOTa9103878;font-size:9.76px;stroke:none;">materials, TST and IGRA were performed eight weeks</text>
   <text y="287.372" x="304.725,309.089,312.096,315.327,319.806,323.5148,326.892,331.256,336.473,341.972,345.203,349.568,354.105,357.2282,360.681,365.045,370.603,375.7758,379.22,385.91,392.713,398.6666,402.124,409.04,413.404,417.1128,420.663,425.935,430.413,434.155,436.996,442.205,445.947,454.168,458.532,463.7048,467.264,472.144,475.542,483.762,488.921,494.42,497.652,502.934,506.6428,510.181,514.66,520.049,525.2218,528.72,533.709" svgx:width="0.45,0.29,0.32,0.45,0.38,0.55,0.45,0.52,0.55,0.32,0.45,0.45,0.32,0.55,0.45,0.55,0.53,0.55,0.68,0.69,0.61,0.55,0.7,0.45,0.38,0.55,0.53,0.45,0.38,0.29,0.52,0.38,0.83,0.45,0.53,0.55,0.5,0.55,0.83,0.52,0.55,0.32,0.54,0.38,0.55,0.45,0.55,0.53,0.55,0.5,0.5" style="fill:rgb(0,0,0);font-family:RbtfwkAdvOTa9103878;font-size:9.76px;stroke:none;">after contact and CXR was performed 3 months and 12</text>
   <text y="299.334" x="304.725,312.858,317.935,323.324,326.468,331.75,335.4588,338.799,343.163,346.004,349.148,353.512,357.2208,360.456,364.82,369.897,375.286,378.43,382.794,387.159,390.302" svgx:width="0.83,0.52,0.55,0.32,0.54,0.38,0.55,0.45,0.29,0.32,0.45,0.38,0.55,0.45,0.52,0.55,0.32,0.45,0.45,0.32,0.22" style="fill:rgb(0,0,0);font-family:RbtfwkAdvOTa9103878;font-size:9.76px;stroke:none;">months after contact.</text>
   <text y="311.296" x="312.719,319.631,323.995,327.288,329.896,334.431,338.823,342.141,348.718,354.4764,357.903,364.708,369.184,372.8928,376.327,381.599,385.963,388.913,391.451,396.907,401.272,406.4448,409.946,414.311,418.0198,421.512,424.05,429.506,432.454,436.818,441.298,444.442,447.081,452.158,457.526,460.972,467.777,470.439,473.671" svgx:width="0.71,0.45,0.32,0.26,0.46,0.45,0.55,0.67,0.59,0.55,0.7,0.45,0.38,0.55,0.53,0.45,0.29,0.26,0.55,0.45,0.53,0.55,0.45,0.38,0.55,0.26,0.55,0.29,0.45,0.45,0.32,0.26,0.52,0.55,0.55,0.7,0.26,0.32,0.54" style="fill:rgb(0,0,0);font-family:RbtfwkAdvOTa9103878;font-size:9.76px;stroke:none;">Active TB was defined as infection with</text>
   <text y="311.296" x="482.344,491.287,493.4342,496.857,500.001,505.474,510.52,514.659,518.32,522.369,527.758,530.59,535.238" svgx:width="0.92,0.22,0.55,0.32,0.55,0.51,0.42,0.38,0.41,0.55,0.28,0.47,0.34" style="fill:rgb(0,0,0);font-family:XdjyvjAdvOTf0bf83d5.I;font-size:9.76px;stroke:none;">M. tuberculo-</text>
   <text y="323.258" x="304.724,308.18,310.924" svgx:width="0.35,0.28,0.35" style="fill:rgb(0,0,0);font-family:XdjyvjAdvOTf0bf83d5.I;font-size:9.76px;stroke:none;">sis</text>
   <text y="323.258" x="314.362,316.5092,319.747,326.552,329.091,332.235,337.5054,340.724,345.801,349.5098,352.686,359.491,362.03,365.173,370.455,375.532,380.814,383.9372,387.156,390.915,395.279,403.412,408.596,411.74,416.817,424.95,428.6588,432.001,436.365,441.755,446.939,450.493,455.57,459.2788,462.445,466.809,469.348,471.886,477.276,479.814,484.178,488.543,491.0806,494.307,498.066,500.604,505.281,510.67,514.429,516.5762,519.762,522.906,527.27,532.455,534.993" svgx:width="0.22,0.55,0.7,0.26,0.32,0.54,0.55,0.52,0.38,0.55,0.7,0.26,0.32,0.54,0.52,0.54,0.32,0.55,0.38,0.45,0.83,0.53,0.32,0.52,0.83,0.38,0.55,0.45,0.55,0.53,0.36,0.52,0.38,0.55,0.45,0.26,0.26,0.55,0.26,0.45,0.45,0.26,0.55,0.38,0.26,0.48,0.55,0.38,0.22,0.55,0.32,0.45,0.53,0.26,0.36" style="fill:rgb(0,0,0);font-family:RbtfwkAdvOTa9103878;font-size:9.76px;stroke:none;">, with or without symptoms and/or clinical signs, typi-</text>
   <text y="335.22" x="304.724,309.495,314.265,316.8026,320.898,327.914,335.028,340.9816,345.119,349.882,355.677,360.8498,364.918,369.689,375.172,380.968,384.215,387.16,391.227,399.766,404.536,409.7088,413.834,422.395,425.339,430.11,434.177,439.66,445.143,448.088,453.571,456.516,461.999,467.082,470.026,474.797,479.567,482.512,485.456,490.227,492.3742,496.406,502.302,509.211,515.407,518.6278000000001,522.777,529.977,534.748" svgx:width="0.45,0.45,0.26,0.55,0.68,0.69,0.61,0.55,0.45,0.55,0.53,0.55,0.45,0.52,0.55,0.29,0.26,0.38,0.83,0.45,0.53,0.55,0.83,0.26,0.45,0.38,0.52,0.52,0.26,0.52,0.26,0.52,0.48,0.26,0.45,0.45,0.26,0.26,0.45,0.22,0.55,0.56,0.67,0.59,0.33,0.55,0.7,0.45,0.38" style="fill:rgb(0,0,0);font-family:RbtfwkAdvOTa9103878;font-size:9.76px;stroke:none;">cal CXR and confirmed microbiologically. LTBI was</text>
   <text y="347.183" x="304.724,310.397,315.249,318.579,321.605,327.483,332.335,337.5078,342.823,347.699,351.4078,356.827,359.888,365.766,369.095,373.948,378.8,382.485,385.49,391.055,396.423,401.827,409.12,412.147,415.779" svgx:width="0.53,0.45,0.29,0.26,0.55,0.45,0.53,0.55,0.45,0.38,0.55,0.26,0.55,0.29,0.45,0.45,0.32,0.26,0.52,0.55,0.55,0.7,0.26,0.32,0.54" style="fill:rgb(0,0,0);font-family:RbtfwkAdvOTa9103878;font-size:9.76px;stroke:none;">defined as infection with</text>
   <text y="347.183" x="426.445,435.884,438.0312,443.367,447.007,452.893,458.335,462.926,467.084,471.506,477.391,480.63,485.696,489.648,492.887" svgx:width="0.92,0.22,0.55,0.32,0.55,0.51,0.42,0.38,0.41,0.55,0.28,0.47,0.35,0.28,0.35" style="fill:rgb(0,0,0);font-family:XdjyvjAdvOTf0bf83d5.I;font-size:9.76px;stroke:none;">M. tuberculosis</text>
   <text y="347.183" x="496.857,499.0042,504.341,511.598,514.634,518.276,524.056,529.631,535.411" svgx:width="0.22,0.55,0.7,0.26,0.32,0.54,0.52,0.54,0.32" style="fill:rgb(0,0,0);font-family:RbtfwkAdvOTa9103878;font-size:9.76px;stroke:none;">, without</text>
   <text y="359.088" x="304.724,309.429,315.159,319.551,323.493,328.199,331.079,333.958,339.688,342.567,347.272,351.977,354.5146,358.441,366.914,371.619,377.289,380.18,383.362,388.067,392.166,395.651,400.356,403.84,406.72,412.137,417.867,420.0142,423.933,428.638,434.369,439.5418,443.496,450.639,455.344,459.0528,463.054,468.579,471.459,476.164,481.181,486.911,492.329,496.429,501.134,506.3068,510.261,513.152,515.9824000000001,519.956,526.759,532.079" svgx:width="0.45,0.55,0.45,0.55,0.45,0.26,0.26,0.55,0.26,0.45,0.45,0.26,0.55,0.83,0.45,0.55,0.26,0.29,0.45,0.38,0.32,0.45,0.32,0.26,0.52,0.55,0.22,0.55,0.45,0.55,0.53,0.55,0.7,0.45,0.38,0.55,0.53,0.26,0.45,0.48,0.55,0.52,0.38,0.45,0.53,0.55,0.26,0.29,0.55,0.67,0.51,0.67" style="fill:rgb(0,0,0);font-family:RbtfwkAdvOTa9103878;font-size:9.76px;stroke:none;">any clinical manifestation, and was diagnosed if TST</text>
   <text y="371.05" x="304.724" svgx:width="0.55" style="fill:rgb(0,0,0);font-family:GygkqtAdvOTa9103878;font-size:9.76px;stroke:none;">≥</text>
   <text y="371.05" x="314.475,319.852,324.73199999999997,329.036,337.664,345.7648,350.193,355.765,359.4738,363.759,367.505,375.215,381.705,388.6346,392.93,398.2004,402.624,407.953,410.576,415.953,420.83299999999997,425.194,428.935,436.548,440.597,449.225,454.6906,459.033,463.892,467.228,470.867,475.726,479.4348,483.72,488.595,493.865,498.724,501.758,507.535,511.788,514.822,520.435,525.803,530.129,535.742" svgx:width="0.5,0.5,0.55,0.83,0.83,0.55,0.52,0.38,0.55,0.33,0.74,0.61,0.71,0.55,0.54,0.55,0.5,0.22,0.5,0.5,0.55,0.33,0.73,0.36,0.83,0.56,0.55,0.45,0.29,0.32,0.45,0.38,0.55,0.45,0.49,0.45,0.26,0.54,0.38,0.26,0.52,0.55,0.55,0.52,0.29" style="fill:rgb(0,0,0);font-family:RbtfwkAdvOTa9103878;font-size:9.76px;stroke:none;">10 mm or IGRA &gt; 0.35 IU/mL after exclusion of</text>
   <text y="383.012" x="304.724,309.088,313.626,316.857,319.465,324.0,328.392,331.767,338.4,344.1584,347.585,351.326,355.69,360.51,364.989,368.65,373.947,376.555,381.033,384.792,388.50079999999997,392.031,397.19,400.0204,403.483,410.093,416.919,422.8726,426.33,430.072,434.55,438.309,443.734,446.342,449.574,453.2828,456.717,461.989,467.375,471.767,475.141,478.373,483.4482,486.877,490.109,495.494,499.886,503.261,505.869,511.028,517.86,521.289,525.145,529.509,535.01" svgx:width="0.45,0.45,0.32,0.26,0.46,0.45,0.55,0.67,0.59,0.55,0.38,0.45,0.48,0.45,0.38,0.53,0.26,0.45,0.38,0.38,0.55,0.52,0.29,0.55,0.68,0.69,0.61,0.55,0.38,0.45,0.38,0.54,0.26,0.32,0.38,0.55,0.53,0.54,0.45,0.55,0.32,0.52,0.55,0.32,0.54,0.45,0.55,0.26,0.52,0.7,0.55,0.38,0.45,0.55,0.36" style="fill:rgb(0,0,0);font-family:RbtfwkAdvOTa9103878;font-size:9.76px;stroke:none;">active TB regardless of CXR results due to the low sen-</text>
   <text y="394.974" x="304.724,308.483,311.131,314.275,316.914,321.449,323.987,327.232,331.624,334.942,339.306,344.807,349.9798,353.367,357.223,362.407,366.86,371.225,373.833,376.675,379.333,383.697,386.363,389.507,393.899,397.305,402.382,405.2124,408.643,415.333,422.04,427.9936,431.434,434.275,439.484,443.1928,446.514,449.658,455.018,459.40999999999997,462.785,467.969,470.608,474.972,479.736,485.125,490.338,494.097,496.745,500.4538,503.831,508.99,511.8204,515.226,520.713,527.301,533.091,536.429" svgx:width="0.38,0.26,0.32,0.26,0.46,0.26,0.32,0.45,0.55,0.45,0.55,0.53,0.55,0.38,0.53,0.45,0.45,0.26,0.29,0.26,0.45,0.26,0.32,0.45,0.55,0.52,0.29,0.55,0.68,0.69,0.61,0.55,0.29,0.52,0.38,0.55,0.32,0.54,0.45,0.55,0.53,0.26,0.45,0.48,0.55,0.52,0.38,0.26,0.38,0.55,0.52,0.29,0.55,0.56,0.67,0.59,0.33,0.22" style="fill:rgb(0,0,0);font-family:RbtfwkAdvOTa9103878;font-size:9.76px;stroke:none;">sitivity and specificity of CXR for the diagnosis of LTBI.</text>
   <text y="406.937" x="304.724,311.537,317.13,321.522,325.407,330.907,334.878,339.553,344.335,349.01,351.859,356.534,362.234,366.908,371.3,375.186,380.571,383.4014,387.318,393.157,399.97,406.07,409.2908,413.213,420.299,425.892,430.567,435.935,439.864,443.322,447.997,453.189,456.038,461.738,466.4228,470.355,475.912,481.0848,485.039,489.688,498.131,503.626,506.475,511.917,516.565,525.009,529.684,535.383" svgx:width="0.67,0.54,0.45,0.55,0.53,0.38,0.45,0.46,0.45,0.26,0.45,0.55,0.45,0.45,0.55,0.52,0.29,0.55,0.56,0.67,0.59,0.33,0.55,0.7,0.54,0.45,0.55,0.55,0.32,0.45,0.5,0.26,0.55,0.48,0.55,0.54,0.53,0.55,0.45,0.83,0.53,0.26,0.52,0.45,0.83,0.45,0.55,0.32" style="fill:rgb(0,0,0);font-family:RbtfwkAdvOTa9103878;font-size:9.76px;stroke:none;">The prevalence of LTBI when taking up employment</text>
   <text y="418.899" x="304.724,308.033,311.039,313.743,317.569,321.493,324.6162,328.239,335.209,339.739,344.268,349.14799999999997,352.715,357.957,360.7874,364.364,368.893,377.191,382.54,385.244,390.486,395.015,403.313,407.842,413.341,416.686,419.8092,423.433,430.406,434.935,438.6438,442.249,446.778,452.02,460.318,465.667,470.196,474.023,478.552,483.7248,487.339,494.312,497.015,500.324,505.5944,509.168,512.173,517.415,520.118,522.822,528.064,535.034" svgx:width="0.32,0.29,0.26,0.38,0.38,0.32,0.55,0.7,0.45,0.45,0.5,0.55,0.52,0.29,0.55,0.45,0.83,0.53,0.26,0.52,0.45,0.83,0.45,0.55,0.32,0.32,0.55,0.7,0.45,0.38,0.55,0.45,0.52,0.83,0.53,0.45,0.38,0.45,0.53,0.55,0.7,0.26,0.32,0.54,0.55,0.29,0.52,0.26,0.26,0.52,0.7,0.36" style="fill:rgb(0,0,0);font-family:RbtfwkAdvOTa9103878;font-size:9.76px;stroke:none;">(first week of employment) was compared with follow-</text>
   <text y="430.861" x="304.724,310.006,315.17879999999997,318.444,322.808,327.582,331.947,340.079,342.618,348.007,352.372,355.515,358.054,363.131,368.52,372.279" svgx:width="0.54,0.53,0.55,0.45,0.49,0.45,0.83,0.26,0.55,0.45,0.32,0.26,0.52,0.55,0.38,0.22" style="fill:rgb(0,0,0);font-family:RbtfwkAdvOTa9103878;font-size:9.76px;stroke:none;">up examinations.</text>
   <text y="442.823" x="312.718,320.586,326.218,329.0,333.392,337.164,339.946,345.314,349.13,353.522,357.294,361.32,366.845,372.165,377.085,380.989,386.309,391.834,397.0068,400.849,407.878,412.486,416.39,420.782,424.554,428.069,435.527,441.82,448.7496,452.479,457.128,462.76,467.9328,471.775,478.521,483.743,490.2822,494.061,499.503,504.11,508.015,511.099,516.419,520.323,528.7,533.307" svgx:width="0.78,0.55,0.26,0.45,0.55,0.26,0.55,0.55,0.45,0.55,0.38,0.54,0.52,0.48,0.38,0.52,0.54,0.53,0.55,0.7,0.45,0.38,0.45,0.55,0.33,0.74,0.61,0.71,0.55,0.45,0.55,0.53,0.55,0.67,0.51,0.67,0.55,0.53,0.45,0.38,0.29,0.52,0.38,0.83,0.45,0.53" style="fill:rgb(0,0,0);font-family:RbtfwkAdvOTa9103878;font-size:9.76px;stroke:none;">Only in a subgroup were IGRA and TST performed</text>
   <text y="454.728" x="304.724,308.483,311.131,319.352,324.634,327.289,330.521,334.885,340.386,344.75,349.967,355.352,359.111,361.759,366.123,368.2702,371.737,378.314,383.596,386.251,389.9598,393.452,395.99,399.6988,403.204,408.363,412.727,417.207,421.572,427.016,430.775,435.167,438.581,441.926,449.141,455.249,462.1786,465.567,468.799,473.163,477.076,480.22,482.859,488.249,492.9338,496.409,503.214,507.691,511.39979999999997,514.891,517.499,522.888,526.173,529.834,535.016" svgx:width="0.38,0.26,0.83,0.54,0.26,0.32,0.45,0.55,0.45,0.52,0.54,0.38,0.26,0.45,0.22,0.55,0.67,0.54,0.26,0.38,0.55,0.26,0.38,0.55,0.52,0.45,0.45,0.45,0.54,0.38,0.45,0.55,0.33,0.74,0.61,0.71,0.55,0.32,0.45,0.38,0.32,0.26,0.55,0.48,0.55,0.7,0.45,0.38,0.55,0.26,0.55,0.32,0.38,0.52,0.36" style="fill:rgb(0,0,0);font-family:RbtfwkAdvOTa9103878;font-size:9.76px;stroke:none;">simultaneously. This is because IGRA testing was intro-</text>
   <text y="466.691" x="304.724,309.909,315.27,319.634,324.113,329.2858,332.73,335.874,342.765,347.8402,351.213,355.577,360.057,364.421,368.221,371.9298,375.364,379.729,382.678,385.822,390.275,393.9838,397.361,400.505,405.865,410.257,413.632,417.391,420.662,425.026,428.769,431.8922,435.289,440.448,443.2784,446.684,449.828,455.188,459.58,462.955,466.81,471.175,475.031,478.175,482.628,490.849,495.213,498.446,501.053,505.445,508.82,512.579,517.041,520.702,525.149,529.513,535.014" svgx:width="0.53,0.54,0.45,0.45,0.53,0.55,0.32,0.7,0.52,0.55,0.45,0.45,0.45,0.38,0.38,0.55,0.45,0.29,0.32,0.45,0.38,0.55,0.32,0.54,0.45,0.55,0.38,0.32,0.45,0.38,0.32,0.55,0.52,0.29,0.55,0.32,0.54,0.45,0.55,0.38,0.45,0.38,0.32,0.45,0.83,0.45,0.32,0.26,0.45,0.55,0.38,0.45,0.38,0.45,0.45,0.55,0.36" style="fill:rgb(0,0,0);font-family:RbtfwkAdvOTa9103878;font-size:9.76px;stroke:none;">duced two years after the start of the systematic screen-</text>
   <text y="478.653" x="304.724,307.497,313.121,318.032,320.1792,323.871,330.608,336.124,340.516,344.288,349.674,353.57,358.881,364.192,368.791,374.102,376.875,379.648,382.42,385.798,390.19,393.963,399.235,402.0654,405.811,410.203,413.976,419.394,424.706,428.699,431.472,434.85,437.623,442.329,446.721,450.436,453.922,461.371,467.6,474.5296,478.259,483.57,488.169,492.162,496.76,501.9328,505.662,510.991,516.359,520.118,526.865,532.079" svgx:width="0.26,0.55,0.48,0.22,0.55,0.67,0.54,0.45,0.55,0.53,0.38,0.52,0.52,0.45,0.52,0.26,0.26,0.26,0.32,0.45,0.55,0.52,0.29,0.55,0.45,0.55,0.53,0.52,0.38,0.26,0.32,0.26,0.46,0.45,0.55,0.33,0.74,0.61,0.71,0.55,0.52,0.45,0.38,0.45,0.53,0.55,0.52,0.55,0.55,0.67,0.51,0.67" style="fill:rgb(0,0,0);font-family:RbtfwkAdvOTa9103878;font-size:9.76px;stroke:none;">ing. The probability of a positive IGRA based on TST</text>
   <text y="490.615" x="304.724,308.386,312.75,316.509,321.791,324.454,327.598,331.3068,334.659,341.464,345.828,349.53679999999997,352.971,357.335,361.7,364.238,368.602,374.004,376.543,380.907,384.051,388.518,393.69079999999997,397.022,399.863,404.94,408.6488,411.932,415.076,420.436,422.975,426.6838,430.074,433.832,439.115,444.191,448.868,452.529,457.606,463.012,468.197,470.3442,473.671,480.173,485.456,489.82,493.579,497.971,501.338,506.522,510.183,515.341,520.418,524.783,529.859,532.398,534.937" svgx:width="0.38,0.45,0.38,0.54,0.26,0.32,0.38,0.55,0.7,0.45,0.38,0.55,0.45,0.45,0.26,0.45,0.54,0.26,0.45,0.32,0.45,0.53,0.55,0.29,0.52,0.38,0.55,0.32,0.54,0.26,0.38,0.55,0.38,0.54,0.52,0.48,0.38,0.52,0.54,0.53,0.22,0.55,0.67,0.54,0.45,0.38,0.45,0.55,0.53,0.38,0.52,0.52,0.45,0.52,0.26,0.26,0.36" style="fill:rgb(0,0,0);font-family:RbtfwkAdvOTa9103878;font-size:9.76px;stroke:none;">results was calculated for this subgroup. These probabil-</text>
   <text y="502.577" x="304.724,307.609,311.1,313.985,318.696,322.4048,326.462,333.605,338.316,342.324,346.716,350.658,359.162,364.791,367.676,371.166,374.051,379.582,382.416,385.302,390.012,395.1848,399.197,404.582,408.974,412.916,416.431,422.06,426.452,430.394,436.13,441.758,450.238,455.661,460.372,464.0808,467.969,473.393,476.22339999999997,480.196,488.06,495.017,505.224,508.9328,512.935,515.82,521.1880000000001,525.174,528.664,534.293" svgx:width="0.26,0.32,0.26,0.45,0.38,0.55,0.7,0.45,0.38,0.45,0.55,0.83,0.54,0.26,0.32,0.26,0.53,0.26,0.26,0.45,0.53,0.55,0.52,0.45,0.55,0.32,0.54,0.45,0.55,0.55,0.54,0.83,0.52,0.45,0.38,0.55,0.52,0.29,0.55,0.77,0.68,1.01,0.38,0.55,0.26,0.55,0.55,0.32,0.54,0.45" style="fill:rgb(0,0,0);font-family:RbtfwkAdvOTa9103878;font-size:9.76px;stroke:none;">ities were multiplied by the number of HCWs in the</text>
   <text y="514.539" x="304.724,311.529,316.914,321.991,324.529,328.921,332.278,336.036,339.251,344.533,349.796,354.188,357.506,362.183,365.844,371.056,376.338,381.5108,384.889,391.694,396.976,402.0512,405.469,410.751,415.115,420.2878,423.724,426.868,432.228,436.62,439.939,443.697,448.159,456.292,460.68399999999997,464.034,470.536,475.515,482.0542,485.407,489.068,493.514,497.273,502.642,505.18,508.324,512.166,514.3132,517.665,524.577,529.762,535.013" svgx:width="0.7,0.54,0.52,0.26,0.45,0.55,0.38,0.32,0.54,0.53,0.45,0.55,0.48,0.38,0.52,0.54,0.53,0.55,0.7,0.54,0.52,0.55,0.54,0.45,0.53,0.55,0.32,0.54,0.45,0.55,0.38,0.45,0.83,0.45,0.55,0.67,0.51,0.67,0.55,0.38,0.45,0.38,0.54,0.26,0.32,0.38,0.22,0.55,0.71,0.53,0.53,0.36" style="fill:rgb(0,0,0);font-family:RbtfwkAdvOTa9103878;font-size:9.76px;stroke:none;">whole study group who had the same TST results. Add-</text>
   <text y="526.501" x="304.724,307.484,313.041,317.7258,321.431,326.93,332.1028,335.831,339.176,344.68,349.266,353.246,357.638,361.354,366.76,370.643,375.941,381.347,386.851,391.437,394.802,398.5108,402.229,407.128,411.714,416.407,420.799,424.403,427.76,433.255,437.647,441.305,446.918,452.413,460.759,466.049,470.626,474.3348,477.996,483.325,486.1554,489.845,497.612,504.435,514.508,518.2168,521.935,525.337,530.832,535.409" svgx:width="0.26,0.55,0.48,0.55,0.54,0.53,0.55,0.32,0.54,0.45,0.38,0.45,0.55,0.53,0.38,0.52,0.53,0.54,0.45,0.32,0.38,0.55,0.48,0.45,0.46,0.45,0.55,0.32,0.54,0.45,0.55,0.55,0.54,0.83,0.52,0.45,0.38,0.55,0.52,0.29,0.55,0.77,0.68,1.01,0.38,0.55,0.32,0.54,0.45,0.32" style="fill:rgb(0,0,0);font-family:RbtfwkAdvOTa9103878;font-size:9.76px;stroke:none;">ing up these products gave the number of HCWs that</text>
   <text y="538.463" x="304.724,309.265,313.806,319.174,322.821,326.659,331.2,335.741,339.676,344.93,350.496,355.037,360.291,363.006,367.39799999999997,370.999,376.253,380.645,384.246,388.787,393.738,399.099,403.64,408.181,411.502,416.043,421.2158,424.83,428.15,433.2252,436.824,442.078,446.46999999999997,450.071,453.499,460.891,467.062,474.151,477.882,483.243,488.497,492.432,495.148,498.468,501.183,505.832,510.224,513.825,516.546,521.9140000000001,525.561,528.849,534.308" svgx:width="0.45,0.45,0.55,0.55,0.38,0.45,0.45,0.38,0.52,0.55,0.45,0.52,0.26,0.45,0.55,0.52,0.45,0.55,0.45,0.49,0.53,0.45,0.45,0.32,0.45,0.53,0.55,0.32,0.52,0.55,0.52,0.45,0.55,0.33,0.74,0.61,0.71,0.36,0.53,0.52,0.38,0.26,0.32,0.26,0.46,0.45,0.55,0.26,0.55,0.55,0.32,0.54,0.45" style="fill:rgb(0,0,0);font-family:RbtfwkAdvOTa9103878;font-size:9.76px;stroke:none;">can reasonably be expected to be IGRA-positive in the</text>
   <text y="550.369" x="304.724,311.529,316.811,322.016,324.555,328.947,332.278,336.954,340.615,345.771,351.053,356.2258,359.603,362.211,365.0414,368.39,371.534,376.894,381.259,385.651,388.97,394.252,398.721,403.8938,407.225,411.589,414.198,416.7356,420.094,425.171,429.619,433.983,439.351,442.715,445.859,450.312,454.071,457.285,461.649,466.8218,470.211,477.016,479.554,482.797,488.0674,491.414,494.665,501.959,507.954,514.942,517.0892,520.384,526.886,532.168,534.841" svgx:width="0.7,0.54,0.52,0.26,0.45,0.55,0.48,0.38,0.52,0.54,0.53,0.55,0.26,0.29,0.55,0.32,0.54,0.45,0.45,0.55,0.54,0.45,0.53,0.55,0.45,0.26,0.26,0.55,0.52,0.45,0.45,0.55,0.55,0.32,0.45,0.38,0.32,0.45,0.53,0.55,0.7,0.26,0.32,0.54,0.55,0.33,0.74,0.61,0.71,0.22,0.55,0.67,0.54,0.26,0.38" style="fill:rgb(0,0,0);font-family:RbtfwkAdvOTa9103878;font-size:9.76px;stroke:none;">whole group if they had all been tested with IGRA. This</text>
   <text y="562.331" x="304.724,309.25,311.949,314.649,319.921,326.887,331.413,336.5858,340.2,343.544,348.988,353.38,357.038,362.383,366.239,371.477,376.862,382.134,385.932,389.277,391.998,397.236,402.604,406.308,411.546,414.3764,418.009,421.467,428.838,434.993,442.067,445.782,451.167,456.406,460.374,463.074,466.379,469.078,473.711,478.103,481.704,489.415,496.218,506.253,509.9618,513.623,516.344,521.7120000000001,525.359,528.647,534.146" svgx:width="0.45,0.26,0.26,0.52,0.7,0.45,0.53,0.55,0.32,0.54,0.45,0.55,0.53,0.38,0.52,0.53,0.52,0.38,0.32,0.26,0.52,0.55,0.55,0.52,0.29,0.55,0.33,0.74,0.61,0.71,0.36,0.53,0.52,0.38,0.26,0.32,0.26,0.46,0.45,0.55,0.77,0.68,1.01,0.38,0.55,0.26,0.55,0.55,0.32,0.54,0.45" style="fill:rgb(0,0,0);font-family:RbtfwkAdvOTa9103878;font-size:9.76px;stroke:none;">allowed the proportion of IGRA-positive HCWs in the</text>
   <text y="574.293" x="304.724,311.529,316.811,321.888,324.427,328.819,332.051,335.81,338.954,344.236,349.42,353.812,357.11,361.786,365.448,370.525,375.807,380.9798,384.266,387.41,392.4852,395.718,400.795,405.187,408.474,412.838,416.597,419.741,422.28,430.412,434.777,437.92,442.285,447.469" svgx:width="0.7,0.54,0.52,0.26,0.45,0.55,0.38,0.32,0.54,0.53,0.45,0.55,0.48,0.38,0.52,0.54,0.53,0.55,0.32,0.52,0.55,0.52,0.45,0.55,0.45,0.38,0.32,0.26,0.83,0.45,0.32,0.45,0.53,0.22" style="fill:rgb(0,0,0);font-family:RbtfwkAdvOTa9103878;font-size:9.76px;stroke:none;">whole study group to be estimated.</text>
   <text y="586.255" x="312.718,317.924,321.296,325.887,329.259,332.025,336.011,339.382,342.148,346.74,351.332,353.8696,357.624,362.216,367.833,372.425,375.191,379.782,383.769,386.535,390.2438,394.075,401.108,405.699,409.4078,413.183,418.625,423.217,427.181,430.236,435.565,439.44,447.83,452.408,457.5808,461.31,466.866,470.835,473.587,479.19,483.8748,487.581,491.973,495.745,499.103,506.122,511.451,515.25,518.607,523.256,526.009,528.761,533.41" svgx:width="0.51,0.32,0.45,0.32,0.26,0.38,0.32,0.26,0.45,0.45,0.26,0.55,0.45,0.55,0.45,0.26,0.45,0.38,0.26,0.38,0.55,0.7,0.45,0.38,0.55,0.53,0.45,0.38,0.29,0.52,0.38,0.83,0.45,0.53,0.55,0.54,0.38,0.26,0.55,0.48,0.55,0.45,0.55,0.32,0.7,0.52,0.36,0.32,0.45,0.26,0.26,0.45,0.53" style="fill:rgb(0,0,0);font-family:RbtfwkAdvOTa9103878;font-size:9.76px;stroke:none;">Statistical analysis was performed using a two-tailed</text>
   <text y="598.217" x="304.723,309.186,314.567,317.204,320.856,324.714,330.043,335.423,339.886,343.646,348.038,351.47,354.758,359.236,363.094,366.2172,369.727,372.97,378.0452,381.587,385.951,391.224,399.456,404.739,409.202,412.961,417.353,420.785,426.114,429.855,435.031,440.36,445.535,449.295,452.537,455.174,460.35,465.838,469.5468,473.095,478.254,481.0844,484.604,489.877,495.092,498.948,501.585,504.873,507.51,512.08,516.4720000000001,519.96,523.192,527.655,531.513,534.801" svgx:width="0.45,0.54,0.26,0.36,0.38,0.53,0.54,0.45,0.38,0.45,0.55,0.32,0.45,0.38,0.32,0.55,0.32,0.52,0.55,0.45,0.52,0.83,0.53,0.45,0.38,0.45,0.55,0.53,0.38,0.52,0.53,0.52,0.38,0.32,0.26,0.52,0.55,0.38,0.55,0.52,0.29,0.55,0.53,0.52,0.38,0.26,0.32,0.26,0.46,0.45,0.55,0.32,0.45,0.38,0.32,0.38" style="fill:rgb(0,0,0);font-family:RbtfwkAdvOTa9103878;font-size:9.76px;stroke:none;">chi-square test to compare proportions of positive tests</text>
   <text y="610.179" x="304.723,308.177,314.988,320.277,326.8162,330.709,335.382,341.081,346.2538,350.152,353.724,361.248,367.553,374.775,377.8982,381.804,386.478,392.177,397.3498,401.248,406.52,409.974,415.565,421.059,425.733,431.432,434.885,442.107,446.175,449.8838,453.829,457.287,461.15,464.604,469.277,473.346,476.799,478.9462,482.809,487.482,493.181,498.3538,502.252,506.644,510.53,514.598,517.446,525.888,531.382,534.23" svgx:width="0.32,0.67,0.51,0.67,0.55,0.45,0.55,0.53,0.55,0.33,0.74,0.61,0.71,0.32,0.55,0.45,0.55,0.53,0.55,0.51,0.32,0.54,0.53,0.45,0.55,0.32,0.71,0.38,0.38,0.55,0.32,0.36,0.32,0.45,0.38,0.32,0.22,0.55,0.45,0.55,0.53,0.55,0.45,0.55,0.38,0.26,0.83,0.53,0.26,0.45" style="fill:rgb(0,0,0);font-family:RbtfwkAdvOTa9103878;font-size:9.76px;stroke:none;">(TST and IGRA) and StudentÂ´s t-test, and a simple</text>
   <text y="622.141" x="304.723,309.591,315.431,320.299,323.341,328.16,332.412,335.455,339.1638,343.448,349.029,351.8594,356.115,361.09,365.958,370.123,373.166,378.034,383.927,388.746,393.138,397.42,401.068,406.648,412.541,416.933,421.215,428.472,433.348,437.74,442.022,449.392,457.316,465.445,472.657,480.027,483.1502,487.454,491.139,496.2142,500.493,505.312,510.893,519.53,525.218,530.086,534.251" svgx:width="0.45,0.55,0.45,0.26,0.45,0.38,0.26,0.38,0.55,0.52,0.29,0.55,0.46,0.45,0.38,0.26,0.45,0.55,0.45,0.45,0.55,0.32,0.52,0.55,0.45,0.55,0.7,0.45,0.45,0.55,0.71,0.76,0.78,0.69,0.71,0.32,0.55,0.32,0.52,0.55,0.45,0.52,0.83,0.53,0.45,0.38,0.45" style="fill:rgb(0,0,0);font-family:RbtfwkAdvOTa9103878;font-size:9.76px;stroke:none;">analysis of variance (one way ANOVA) to compare</text>
   <text y="634.104" x="304.723,313.351,318.21,323.07,328.909,332.6178,337.696,342.572,348.412,353.5848,358.616,362.87,366.509,371.368,377.253,382.932,387.791,391.948,397.1208,402.152,407.832,412.651,417.618,420.651,425.51,429.149,432.183,437.755,443.639,447.3478,452.426,457.998,462.857,466.496,473.796,478.615,483.491,488.859,493.866,499.081,503.238,508.81,514.587,520.266,524.52,526.6672,531.663" svgx:width="0.83,0.45,0.45,0.55,0.38,0.55,0.45,0.55,0.53,0.55,0.38,0.32,0.45,0.55,0.53,0.45,0.38,0.53,0.55,0.53,0.45,0.46,0.26,0.45,0.32,0.26,0.52,0.55,0.38,0.55,0.52,0.45,0.32,0.7,0.45,0.45,0.55,0.55,0.48,0.38,0.52,0.54,0.53,0.38,0.22,0.55,0.71" style="fill:rgb(0,0,0);font-family:RbtfwkAdvOTa9103878;font-size:9.76px;stroke:none;">means and standard deviations between groups. A</text>
   <text y="646.009" x="304.723,310.182,314.01,318.756,323.395,326.208,331.764,336.156,339.985,345.2554,349.113,354.269,356.671,361.827,366.707,370.558,377.637,382.276,385.9848,389.873,394.522,399.873,405.537,409.57,412.383,417.842,422.481,426.449,431.099,436.2718,440.113,444.139,447.557,452.195,455.654,458.431,462.465,465.923,468.736,473.374,478.013,480.826,483.638,488.03,491.803,495.885,498.662,503.651,509.321,512.134,515.249,518.062,522.701,527.339,533.003,536.421" svgx:width="0.53,0.36,0.46,0.45,0.26,0.54,0.45,0.55,0.54,0.55,0.5,0.22,0.5,0.5,0.55,0.7,0.45,0.38,0.55,0.45,0.52,0.55,0.38,0.26,0.53,0.45,0.38,0.45,0.53,0.55,0.38,0.32,0.45,0.32,0.26,0.38,0.32,0.26,0.45,0.45,0.26,0.26,0.45,0.55,0.38,0.26,0.48,0.55,0.26,0.29,0.26,0.45,0.45,0.55,0.32,0.22" style="fill:rgb(0,0,0);font-family:RbtfwkAdvOTa9103878;font-size:9.76px;stroke:none;">p-value &lt; 0.05 was considered statistically significant.</text>
   <text y="657.971" x="304.723,311.636,317.025,321.389,323.928,328.292,332.051,334.589,338.2978,341.631,348.436,352.8,356.5088,359.83,364.194,368.558,372.22,375.881,378.419,382.784,387.9568,391.239,396.316,401.598,404.7212,408.02,414.825,417.364,420.507,425.7774,429.11,434.089,439.576,444.556,449.535,451.6822,454.906,461.613,465.978,469.639,473.398,475.936,481.013,486.381,489.716,494.598,499.48" svgx:width="0.71,0.55,0.45,0.26,0.45,0.38,0.26,0.38,0.55,0.7,0.45,0.38,0.55,0.45,0.45,0.38,0.38,0.26,0.45,0.53,0.55,0.52,0.54,0.32,0.55,0.7,0.26,0.32,0.54,0.55,0.51,0.56,0.51,0.51,0.22,0.55,0.69,0.45,0.38,0.38,0.26,0.52,0.55,0.55,0.5,0.5,0.22" style="fill:rgb(0,0,0);font-family:RbtfwkAdvOTa9103878;font-size:9.76px;stroke:none;">Analysis was carried out with SPSS, Version 14.</text>
   <text y="669.933" x="312.717,319.219,324.501,328.893,332.106,336.47,340.942,345.306,347.844,353.126,357.491,360.634,363.173,368.25,373.618,376.894,383.699,388.064,391.7728,395.093,399.458,403.822,407.483,411.144,413.683,418.047,423.2198,426.502,431.579,436.861,439.9842,443.284,447.648,452.012,456.376,461.453,465.114,470.299,472.837,478.227,482.91179999999997,486.144,489.288,494.3632,497.653,500.797,506.079,510.471,513.697,518.774,523.851,526.292,530.656,535.02" svgx:width="0.67,0.54,0.45,0.55,0.45,0.46,0.45,0.26,0.54,0.45,0.32,0.26,0.52,0.55,0.55,0.7,0.45,0.38,0.55,0.45,0.45,0.38,0.38,0.26,0.45,0.53,0.55,0.52,0.54,0.32,0.55,0.45,0.45,0.45,0.52,0.38,0.53,0.26,0.55,0.48,0.55,0.32,0.52,0.55,0.32,0.54,0.45,0.55,0.52,0.52,0.25,0.45,0.45,0.36" style="fill:rgb(0,0,0);font-family:RbtfwkAdvOTa9103878;font-size:9.76px;stroke:none;">The evaluation was carried out according to the objec-</text>
   <text y="681.895" x="304.723,307.955,310.493,315.041,319.405,323.11379999999997,326.607,331.766,334.5964,338.002,341.146,346.506,350.89799999999997,354.273,360.962,366.039,374.286,382.418,385.057,388.816,392.654,395.262,400.421,405.789,409.152,411.993,417.202,420.9108,424.232,427.464,432.746,437.138,440.56,446.047,449.801,454.166,458.759,463.124,468.624,471.768,474.407,479.566,484.93399999999997,488.297,492.661,498.162,503.3348,506.722,513.412,518.571,523.96,527.188,530.849,536.033" svgx:width="0.32,0.26,0.46,0.45,0.38,0.55,0.52,0.29,0.55,0.32,0.54,0.45,0.55,0.68,0.52,0.83,0.83,0.26,0.38,0.38,0.26,0.52,0.55,0.55,0.29,0.52,0.38,0.55,0.32,0.54,0.45,0.55,0.56,0.38,0.45,0.46,0.45,0.55,0.32,0.26,0.52,0.55,0.55,0.45,0.55,0.53,0.55,0.68,0.52,0.55,0.32,0.38,0.52,0.26" style="fill:rgb(0,0,0);font-family:RbtfwkAdvOTa9103878;font-size:9.76px;stroke:none;">tives of the Commission for the Prevention and Control</text>
   <text y="693.858" x="304.723,310.003,312.8334,316.523,323.229,328.714,333.994,338.561,342.426,346.993,352.478,355.22,360.5,364.462,367.203,370.91179999999997,374.687,379.967,382.7974,386.487,394.208,399.488,403.45,408.837,411.579,414.926,419.493,422.0306,425.672,430.855,433.0022,436.638,439.887,445.167,449.734,455.014,457.1612,460.797,466.41,471.4852,475.141,479.732,485.12,490.507,493.249,496.596,499.337,504.666,510.223,514.79,517.3276,520.969,526.357,530.924,534.271" svgx:width="0.52,0.29,0.55,0.67,0.54,0.52,0.45,0.38,0.45,0.54,0.26,0.52,0.38,0.26,0.38,0.55,0.52,0.29,0.55,0.77,0.52,0.38,0.53,0.26,0.32,0.45,0.26,0.55,0.51,0.22,0.55,0.31,0.52,0.45,0.52,0.22,0.55,0.55,0.52,0.55,0.45,0.53,0.53,0.26,0.32,0.26,0.52,0.55,0.45,0.26,0.55,0.53,0.45,0.32,0.45" style="fill:rgb(0,0,0);font-family:RbtfwkAdvOTa9103878;font-size:9.76px;stroke:none;">of Tuberculosis of Hospital S. João, no additional data</text>
   <text y="705.82" x="304.723,311.822,316.528,320.2368,324.125,328.774,334.145,336.978,339.81,344.516,349.174,352.612,357.27,362.748,364.8952,368.701,373.407,379.09,384.26279999999997,388.161,391.599,397.175,401.567,405.396,410.044,415.77,420.42,423.252,427.91,431.963,434.795,438.5038,442.392,449.535,454.193,457.9018,461.79,466.496,471.145,475.1,479.056,481.888,486.594,491.7668,495.609,500.979,506.555,509.6782,513.585,518.233,523.917,529.287,534.971" svgx:width="0.7,0.45,0.38,0.55,0.45,0.52,0.26,0.26,0.45,0.45,0.32,0.45,0.53,0.22,0.55,0.45,0.55,0.53,0.55,0.32,0.54,0.45,0.55,0.45,0.55,0.45,0.26,0.45,0.38,0.26,0.38,0.55,0.7,0.45,0.38,0.55,0.45,0.45,0.38,0.38,0.26,0.45,0.53,0.55,0.52,0.54,0.32,0.55,0.45,0.55,0.52,0.55,0.36" style="fill:rgb(0,0,0);font-family:RbtfwkAdvOTa9103878;font-size:9.76px;stroke:none;">was collected, and the analysis was carried out anon-</text>
   <text y="717.782" x="304.723,309.585,318.216,323.791,329.571,333.828,336.864,341.727,343.8742,348.36,353.935,359.51,363.2188,367.617,371.302,377.028,381.904,386.161,390.553,395.061,399.22,404.04,408.902,413.159,418.733,424.621,428.3298,432.898,435.903,439.0262,443.557,450.871,455.69,459.3988,463.967,469.855,475.429,478.55219999999997,483.083,488.922,493.785,498.647,503.509,507.766,512.023,516.842,521.001,525.393,529.846,533.487" svgx:width="0.45,0.83,0.52,0.54,0.38,0.26,0.45,0.22,0.55,0.52,0.52,0.38,0.55,0.32,0.54,0.45,0.38,0.45,0.55,0.38,0.45,0.45,0.38,0.52,0.55,0.38,0.55,0.26,0.32,0.55,0.7,0.45,0.38,0.55,0.55,0.52,0.32,0.55,0.55,0.45,0.45,0.45,0.38,0.38,0.45,0.38,0.45,0.55,0.32,0.52" style="fill:rgb(0,0,0);font-family:RbtfwkAdvOTa9103878;font-size:9.76px;stroke:none;">ymously. For these reasons it was not necessary to</text>
   <text y="729.744" x="304.723,308.385,312.749,317.933,323.215,327.579,331.338,334.4612,337.776,342.141,347.325,352.509,356.171,361.247,365.719,370.083,372.6206,375.932,381.009,385.401,388.631,391.775,397.057,401.449,404.675,410.162,413.306,418.588,421.126,425.491,429.1998,432.568,439.178,444.255,452.388,460.521,463.059,466.203,469.347,473.711,478.075" svgx:width="0.38,0.45,0.53,0.54,0.45,0.38,0.32,0.55,0.45,0.53,0.53,0.38,0.52,0.46,0.45,0.26,0.55,0.52,0.45,0.55,0.32,0.54,0.45,0.55,0.56,0.32,0.54,0.26,0.45,0.38,0.55,0.68,0.52,0.83,0.83,0.26,0.32,0.32,0.45,0.45,0.22" style="fill:rgb(0,0,0);font-family:RbtfwkAdvOTa9103878;font-size:9.76px;stroke:none;">request approval by the Ethics Committee.</text>
   <text y="40.309" x="56.693,60.59,64.902,67.469,70.035,74.02,77.208,79.822,84.381,88.693,91.841,94.408" svgx:width="0.49,0.54,0.32,0.32,0.5,0.4,0.55,0.57,0.54,0.4,0.32,0.48" style="fill:rgb(0,0,0);font-family:WdlwgsAdvOT46dcae81;font-size:7.97px;stroke:none;">Torres Costa</text>
   <text y="40.309" x="100.857,104.419,106.88969999999999,109.531,113.675" svgx:width="0.45,0.31,0.55,0.52,0.22" style="fill:rgb(0,0,0);font-family:QlfcxnAdvOT65f8a23b.I;font-size:7.97px;stroke:none;">et al</text>
   <text y="40.309" x="115.427" svgx:width="0.2" style="fill:rgb(0,0,0);font-family:WdlwgsAdvOT46dcae81;font-size:7.97px;stroke:none;">.</text>
   <text y="40.309" x="119.622,122.444,126.588,130.733,133.22,137.452,141.596,143.3494,145.984,150.128,152.3596,154.998,160.306,163.622,166.937,171.082,175.226,179.371,181.858,183.595,187.74,191.903,196.048,197.8014,200.464,206.601,210.164,214.308,216.046,219.361,221.099,225.331,228.9175,231.53,235.675,239.907,244.0514,246.667,250.397,254.541,258.024,259.762,263.077,267.222,268.959,273.104,277.248" svgx:width="0.35,0.52,0.52,0.31,0.53,0.52,0.22,0.55,0.52,0.28,0.55,0.67,0.42,0.42,0.52,0.52,0.52,0.31,0.22,0.52,0.53,0.52,0.22,0.55,0.77,0.45,0.52,0.22,0.42,0.22,0.53,0.45,0.55,0.52,0.53,0.52,0.55,0.47,0.52,0.44,0.22,0.42,0.52,0.22,0.52,0.52,0.44" style="fill:rgb(0,0,0);font-family:QlfcxnAdvOT65f8a23b.I;font-size:7.97px;stroke:none;">Journal of Occupational Medicine and Toxicology</text>
   <text y="40.309" x="283.352,287.417,291.481,295.546,299.611" svgx:width="0.51,0.51,0.51,0.51,0.2" style="fill:rgb(0,0,0);font-family:WdlwgsAdvOT46dcae81;font-size:7.97px;stroke:none;">2010,</text>
   <text y="40.309" x="303.818" svgx:width="0.55" style="fill:rgb(0,0,0);font-family:WmxfngAdvOT3b30f6db.B;font-size:7.97px;stroke:none;">5</text>
   <text y="40.309" x="308.183,309.753,313.818" svgx:width="0.2,0.51,0.51" style="fill:rgb(0,0,0);font-family:WdlwgsAdvOT46dcae81;font-size:7.97px;stroke:none;">:22</text>
   <text y="50.23" x="56.692,61.092,63.658,66.224,70.704,72.274,74.928,77.582,83.392,89.119,94.929,96.499,100.811,104.374,107.936,112.248,116.728,119.135,125.774,129.759,134.238,135.718,139.281,143.593,150.232,152.886,156.449,160.761,165.16,167.727,171.712,176.111,178.678,181.332,185.322,187.976,192.041,194.695,198.76" svgx:width="0.55,0.32,0.32,0.56,0.2,0.33,0.33,0.73,0.73,0.73,0.2,0.54,0.45,0.45,0.54,0.56,0.3,0.83,0.5,0.56,0.2,0.45,0.54,0.83,0.33,0.45,0.54,0.55,0.32,0.5,0.55,0.32,0.33,0.51,0.33,0.51,0.33,0.51,0.51" style="fill:rgb(0,0,0);font-family:WdlwgsAdvOT46dcae81;font-size:7.97px;stroke:none;">http://www.occup-med.com/content/5/1/22</text>
   <text y="40.309" x="499.465,503.698,507.515,511.915,515.9,518.513,522.5777,525.26,529.572,531.8833,534.501" svgx:width="0.53,0.48,0.55,0.5,0.55,0.51,0.55,0.54,0.29,0.55,0.51" style="fill:rgb(0,0,0);font-family:WdlwgsAdvOT46dcae81;font-size:7.97px;stroke:none;">Page 2 of 7</text>
  </g>
 </g>
</svg>
