<?xml version="1.0" encoding="UTF-8"?>
<svg height="820.657" width="559.3235" xmlns="http://www.w3.org/2000/svg">
 <g id="page" xmlns:svgx="http://www.xml-cml.org/schema/svgx">
  <g begin="text">
   <text y="56.82" x="49.62,55.628,60.962,66.971,71.643,77.651,82.324,86.997" svgx:width="0.5,0.44,0.5,0.39,0.5,0.39,0.39,0.25" style="fill:rgb(0,0,0);font-family:TimesNewRomanPS-ItalicMT;font-size:12.03px;stroke:none;">Sensors </text>
   <text y="56.82" x="90.0,96.0,102.0,108.0" svgx:width="0.5,0.5,0.5,0.5" style="fill:rgb(0,0,0);font-family:TimesNewRomanPS-BoldMT;font-size:12.0px;stroke:none;">2008</text>
   <text y="56.82" x="114.0,117.0" svgx:width="0.25,0.25" style="fill:rgb(0,0,0);font-family:TimesNewRomanPSMT;font-size:12.03px;stroke:none;">, </text>
   <text y="56.82" x="120.0" svgx:width="0.5" style="fill:rgb(0,0,0);font-family:TimesNewRomanPS-ItalicMT;font-size:12.03px;stroke:none;">8</text>
   <text y="56.82" x="125.999,128.999" svgx:width="0.25,0.25" style="fill:rgb(0,0,0);font-family:TimesNewRomanPSMT;font-size:12.03px;stroke:none;"> </text>
   <text y="73.8" x="546.058" svgx:width="0.25" style="fill:rgb(0,0,0);font-family:TimesNewRomanPSMT;font-size:12.03px;stroke:none;"> </text>
   <text y="810.657" x="49.62" svgx:width="0.25" style="fill:rgb(0,0,0);font-family:TimesNewRomanPSMT;font-size:12.03px;stroke:none;"> </text>
   <text y="57.12" x="522.06,528.06,534.06,540.06" svgx:width="0.5,0.5,0.5,0.5" style="fill:rgb(0,0,0);font-family:TimesNewRomanPS-BoldMT;font-size:12.0px;stroke:none;">6185</text>
   <text y="90.78" x="49.62,55.62" svgx:width="0.5,0.25" style="fill:rgb(0,0,0);font-family:TimesNewRomanPSMT;font-size:12.03px;stroke:none;">6.</text>
   <text y="90.78" x="58.62" svgx:width="0.28" style="fill:rgb(0,0,0);font-family:ArialMT;font-size:12.0px;stroke:none;"> </text>
   <text y="90.78" x="72.3,79.641,85.646,90.978,96.984,102.99,105.988,108.99549999999999,111.053,119.068,122.066,130.742,133.741,137.076,140.0835,142.141,148.82,154.826,160.832,163.83,166.8375,168.895,177.571,180.57,191.254,194.253,197.588,200.5955,202.653,213.876,219.217,225.223,231.229,234.227,237.2345,239.292,250.514,253.514,264.199,267.197,270.533,273.5405,275.598,284.274,290.279,293.278,296.2855,298.343,303.013,306.012,310.682,313.681,317.016,320.0235,321.959,329.304,335.315,341.325,344.329,347.3365,349.368,356.714,359.717,367.063,370.066,373.407,376.4145,378.446,385.792,389.132,394.469,400.479,403.483,406.4905,408.523,413.198,416.201,419.2085,421.241,429.922,435.932,438.9395,440.972,446.982,452.993,458.33,462.332,467.668,471.009,474.349,480.359,486.37,491.707,495.047,498.0545,500.087,503.427,512.107,518.118,522.12,525.46,530.797,536.807,542.144,546.146" svgx:width="0.61,0.5,0.44,0.5,0.5,0.25,0.25,0.55,0.67,0.25,0.72,0.25,0.28,0.25,0.55,0.56,0.5,0.5,0.25,0.25,0.55,0.72,0.25,0.89,0.25,0.28,0.25,0.55,0.94,0.44,0.5,0.5,0.25,0.25,0.55,0.94,0.25,0.89,0.25,0.28,0.25,0.55,0.72,0.5,0.25,0.25,0.55,0.39,0.25,0.39,0.25,0.28,0.25,0.55,0.61,0.5,0.5,0.25,0.25,0.55,0.61,0.25,0.61,0.25,0.28,0.25,0.55,0.61,0.28,0.44,0.5,0.25,0.25,0.55,0.39,0.25,0.25,0.55,0.72,0.5,0.25,0.55,0.5,0.5,0.44,0.33,0.44,0.28,0.28,0.5,0.5,0.44,0.28,0.25,0.55,0.28,0.72,0.5,0.33,0.28,0.44,0.5,0.44,0.33,0.25" style="fill:rgb(0,0,0);font-family:TimesNewRomanPSMT;font-size:12.03px;stroke:none;">Zhang, R.H.; Sun, X.M.; Wang, W.M.; Xu, J.J.; Zhu, Z.L.; Tian, J. An operational two-layer </text>
   <text y="107.76" x="72.3,76.304,81.643,90.886,96.885,100.228,105.567,108.57449999999999,111.036,115.714,121.053,127.066,131.744,135.087,141.1,147.112,150.1195,152.582,161.824,167.837,173.85,179.189,182.532,185.5395,188.001,191.343,197.356,200.3635,202.825,208.165,212.842,216.185,219.528,228.77,234.109,237.452,242.791,245.7985,248.26,252.938,258.951,262.955,266.959,272.298,277.638,282.977,285.98449999999997,288.446,292.45,295.799,301.811,307.822,310.8295,313.282,316.623,322.635,325.6425,328.094,332.097,337.435,343.447,346.789,352.8,358.812,364.15,367.491,370.4985,372.951,377.627,382.965,388.304,391.645,396.983,400.324,403.3315,405.784,411.796,417.807,423.819,428.495,431.837,437.175,442.513,445.854,448.8615,451.314,457.326,462.664,468.002,474.013,480.025,484.028,490.04,496.051,502.063,508.075,511.079" svgx:width="0.33,0.44,0.78,0.5,0.28,0.44,0.25,0.55,0.39,0.44,0.5,0.39,0.28,0.5,0.5,0.25,0.55,0.78,0.5,0.5,0.44,0.28,0.25,0.55,0.28,0.5,0.25,0.55,0.44,0.39,0.28,0.28,0.78,0.44,0.28,0.44,0.25,0.55,0.39,0.5,0.33,0.33,0.44,0.44,0.44,0.25,0.55,0.33,0.28,0.5,0.5,0.25,0.55,0.28,0.5,0.25,0.55,0.33,0.44,0.5,0.28,0.5,0.5,0.44,0.28,0.25,0.55,0.39,0.44,0.44,0.28,0.44,0.28,0.25,0.55,0.5,0.5,0.5,0.39,0.28,0.44,0.44,0.28,0.25,0.55,0.5,0.44,0.44,0.5,0.5,0.33,0.5,0.5,0.5,0.5,0.25,0.25" style="fill:rgb(0,0,0);font-family:TimesNewRomanPSMT;font-size:12.03px;stroke:none;">remote sensing model to estimate surface flux in regional scale: physical background. </text>
   <text y="107.76" x="516.539,522.557,527.903,531.251,534.2585,536.711,540.06,546.078" svgx:width="0.5,0.44,0.28,0.25,0.55,0.28,0.5,0.25" style="fill:rgb(0,0,0);font-family:TimesNewRomanPS-ItalicMT;font-size:12.03px;stroke:none;">Sci in </text>
   <text y="124.74" x="72.3,80.31,86.31,89.641,95.642,101.643,104.642,110.643,115.97,120.636,123.63,126.63,135.301,138.295" svgx:width="0.67,0.5,0.28,0.5,0.5,0.25,0.5,0.44,0.39,0.25,0.25,0.72,0.25,0.25" style="fill:rgb(0,0,0);font-family:TimesNewRomanPS-ItalicMT;font-size:12.03px;stroke:none;">China Ser. D. </text>
   <text y="124.74" x="141.3,147.3,153.3,159.3" svgx:width="0.5,0.5,0.5,0.5" style="fill:rgb(0,0,0);font-family:TimesNewRomanPS-BoldMT;font-size:12.0px;stroke:none;">2005</text>
   <text y="124.74" x="165.3,168.3" svgx:width="0.25,0.25" style="fill:rgb(0,0,0);font-family:TimesNewRomanPSMT;font-size:12.03px;stroke:none;">, </text>
   <text y="124.74" x="171.3,177.299" svgx:width="0.5,0.5" style="fill:rgb(0,0,0);font-family:TimesNewRomanPS-ItalicMT;font-size:12.03px;stroke:none;">48</text>
   <text y="124.74" x="183.3,186.297,189.297,195.302,201.306,207.311,211.306,217.311,223.315,229.32,232.317" svgx:width="0.25,0.25,0.5,0.5,0.5,0.33,0.5,0.5,0.5,0.25,0.25" style="fill:rgb(0,0,0);font-family:TimesNewRomanPSMT;font-size:12.03px;stroke:none;">, 225-244. </text>
   <text y="141.72" x="49.621,55.621" svgx:width="0.5,0.25" style="fill:rgb(0,0,0);font-family:TimesNewRomanPSMT;font-size:12.03px;stroke:none;">7.</text>
   <text y="141.72" x="58.62" svgx:width="0.28" style="fill:rgb(0,0,0);font-family:ArialMT;font-size:12.0px;stroke:none;"> </text>
   <text y="141.72" x="72.3,80.937,84.279,87.62,90.962,94.303,99.641,104.318,107.322,110.3295,111.984,120.005,123.009,131.03,134.034,137.376,140.3835,142.038,150.058,155.396,159.399,162.74,167.417,173.429,179.44,182.445,185.4525,187.107,194.454,197.458,206.096,209.096,212.437,215.4445,217.099,225.119,231.131,234.472,237.477,240.4845,242.139,246.816,249.82,253.162,256.1695,257.824,266.461,272.461,277.137,280.479,285.817,290.493,293.498,296.5055,298.16,309.382,312.382,319.067,322.019,325.363,328.3705,330.043,338.68,344.68,353.922,359.264,363.943,366.95,369.9575,371.63,380.267,383.267,389.955,392.962,395.9695,397.642,406.279,409.2865,410.96,416.974,422.314,426.319,429.663,433.623,436.985,442.325,447.666,451.01,454.353,460.367,466.381,469.38849999999996,471.062,477.076,481.035,484.0425,485.715,489.059,495.073,500.414,503.4215,505.094,507.192,510.553,514.559,517.903,523.243,529.257,535.271,538.615,543.955,546.053" svgx:width="0.72,0.28,0.28,0.28,0.28,0.44,0.39,0.25,0.25,0.55,0.67,0.25,0.67,0.25,0.28,0.25,0.55,0.67,0.44,0.33,0.28,0.39,0.5,0.5,0.25,0.25,0.55,0.61,0.25,0.72,0.25,0.28,0.25,0.55,0.67,0.5,0.28,0.25,0.25,0.55,0.39,0.25,0.28,0.25,0.55,0.72,0.5,0.39,0.28,0.44,0.39,0.25,0.25,0.55,0.94,0.25,0.56,0.25,0.28,0.25,0.55,0.72,0.5,0.78,0.44,0.39,0.25,0.25,0.55,0.72,0.25,0.56,0.25,0.25,0.55,0.72,0.25,0.55,0.5,0.44,0.33,0.28,0.33,0.28,0.44,0.44,0.28,0.28,0.5,0.5,0.25,0.55,0.5,0.33,0.25,0.55,0.28,0.5,0.44,0.25,0.55,0.18,0.28,0.33,0.28,0.44,0.5,0.5,0.28,0.44,0.18,0.25" style="fill:rgb(0,0,0);font-family:TimesNewRomanPSMT;font-size:12.03px;stroke:none;">Gillies, R.R.; Carlson, T.N.; Cui, J.; Kustas, W.P.; Humes, K.S. A verification of the 'triangle' </text>
   <text y="158.7" x="72.3,81.542,86.884,90.225,96.237,102.249,108.26,112.083,116.086,122.098,126.1,129.923,135.935,141.946,145.288,150.626,153.967,159.979,163.32,169.332,175.344,179.166,183.843,189.854,193.857,197.86,203.198,208.536,213.874,217.697,222.373,228.385,231.726,235.068,238.89,247.572,252.91,256.252,261.59,265.593,269.415,274.753,280.765,286.777,290.118,295.456,301.468,304.809,308.632,313.97,319.981,325.993,329.759,335.095,341.104,346.44,350.44,356.449,362.459,366.298,370.299,373.638,379.647,385.656,390.992,395.666,399.505,403.506,407.506,413.516,422.758,426.597,430.598,435.934,445.176,451.176,454.515,459.85,463.69,472.932,478.268,483.603,488.277,494.287,498.287,503.623,512.865,518.201,524.21,527.549,532.223,536.063,542.072,546.072" svgx:width="0.78,0.44,0.28,0.5,0.5,0.5,0.25,0.33,0.5,0.33,0.25,0.5,0.5,0.28,0.44,0.28,0.5,0.28,0.5,0.5,0.25,0.39,0.5,0.33,0.33,0.44,0.44,0.44,0.25,0.39,0.5,0.28,0.28,0.25,0.72,0.44,0.28,0.44,0.33,0.25,0.44,0.5,0.5,0.28,0.44,0.5,0.28,0.25,0.44,0.5,0.5,0.25,0.44,0.5,0.44,0.33,0.5,0.5,0.25,0.33,0.28,0.5,0.5,0.44,0.39,0.25,0.33,0.33,0.5,0.78,0.25,0.33,0.44,0.78,0.5,0.28,0.44,0.25,0.78,0.44,0.44,0.39,0.5,0.33,0.44,0.78,0.44,0.5,0.28,0.39,0.25,0.5,0.33,0.25" style="fill:rgb(0,0,0);font-family:TimesNewRomanPSMT;font-size:12.03px;stroke:none;">method for obtaining surface soil water content and energy fluxes from remote measurements of </text>
   <text y="175.68" x="72.3,75.639,81.648,86.984,89.99149999999999,92.684,101.364,107.373,111.373,120.616,125.951,129.29,132.629,137.965,143.301,149.31,152.3175,155.01,163.69,167.029,171.029,175.03,180.365,184.366,189.701,195.711,201.046,206.382,209.3895,212.082,220.762,226.097,232.107,237.442,240.781,246.117,249.456,252.795,258.804,264.813,267.8205,270.513,274.514,280.523,286.533,291.839,297.851,300.8585,303.539,307.542,316.224,324.906,333.588,337.591,341.594,344.6015,347.282,352.62,358.631,364.643,367.65049999999997,370.331,375.008,381.019,385.022,389.025,394.363,399.701,405.039,408.0465,410.728,414.73,420.069,426.08,429.422,434.76,440.771,444.113,447.1205,449.801,453.142,458.48,467.723,473.722,479.06,483.063,488.401,491.743,497.754,501.757,507.096,510.1" svgx:width="0.28,0.5,0.44,0.25,0.55,0.72,0.5,0.33,0.78,0.44,0.28,0.28,0.44,0.44,0.5,0.25,0.55,0.72,0.28,0.33,0.33,0.44,0.33,0.44,0.5,0.44,0.44,0.25,0.55,0.72,0.44,0.5,0.44,0.28,0.44,0.28,0.28,0.5,0.5,0.25,0.55,0.33,0.5,0.5,0.44,0.5,0.25,0.55,0.33,0.72,0.72,0.72,0.33,0.33,0.25,0.55,0.44,0.5,0.5,0.25,0.55,0.39,0.5,0.33,0.33,0.44,0.44,0.44,0.25,0.55,0.33,0.44,0.5,0.28,0.44,0.5,0.28,0.25,0.55,0.28,0.44,0.78,0.5,0.44,0.33,0.44,0.28,0.5,0.33,0.44,0.25,0.25" style="fill:rgb(0,0,0);font-family:TimesNewRomanPSMT;font-size:12.03px;stroke:none;">the Normalized Difference Vegetation Index (NDVI) and surface radiant temperature. </text>
   <text y="175.68" x="515.699,519.706,525.721,529.066,532.074,535.0815,537.714,543.056,546.064" svgx:width="0.33,0.5,0.28,0.25,0.25,0.55,0.44,0.25,0.25" style="fill:rgb(0,0,0);font-family:TimesNewRomanPS-ItalicMT;font-size:12.03px;stroke:none;">Int. J. </text>
   <text y="192.66" x="72.3,79.64,84.97,93.645,99.65,102.984,108.315,111.314,117.319,122.65,128.654,133.323" svgx:width="0.61,0.44,0.72,0.5,0.28,0.44,0.25,0.5,0.44,0.5,0.39,0.25" style="fill:rgb(0,0,0);font-family:TimesNewRomanPS-ItalicMT;font-size:12.03px;stroke:none;">Remote Sens.</text>
   <text y="192.66" x="136.32" svgx:width="0.25" style="fill:rgb(0,0,0);font-family:TimesNewRomanPSMT;font-size:12.03px;stroke:none;"> </text>
   <text y="192.66" x="139.32,145.32,151.32,157.32" svgx:width="0.5,0.5,0.5,0.5" style="fill:rgb(0,0,0);font-family:TimesNewRomanPS-BoldMT;font-size:12.0px;stroke:none;">1997</text>
   <text y="192.66" x="163.32,166.32" svgx:width="0.25,0.25" style="fill:rgb(0,0,0);font-family:TimesNewRomanPSMT;font-size:12.03px;stroke:none;">, </text>
   <text y="192.66" x="169.32,175.319" svgx:width="0.5,0.5" style="fill:rgb(0,0,0);font-family:TimesNewRomanPS-ItalicMT;font-size:12.03px;stroke:none;">18</text>
   <text y="192.66" x="181.32,184.315,187.315,193.317,199.319,205.321,211.321,218.101,224.102,230.102,236.103,242.104,245.098" svgx:width="0.25,0.25,0.5,0.5,0.5,0.5,0.56,0.5,0.5,0.5,0.5,0.25,0.25" style="fill:rgb(0,0,0);font-family:TimesNewRomanPSMT;font-size:12.03px;stroke:none;">, 3145−3166. </text>
   <text y="209.64" x="49.621,55.62" svgx:width="0.5,0.25" style="fill:rgb(0,0,0);font-family:TimesNewRomanPSMT;font-size:12.03px;stroke:none;">8.</text>
   <text y="209.64" x="58.62" svgx:width="0.28" style="fill:rgb(0,0,0);font-family:ArialMT;font-size:12.0px;stroke:none;"> </text>
   <text y="209.64" x="72.3,78.98,84.314,90.321,96.327,102.334,108.341,111.678,115.014,118.014,121.02149999999999,122.917,126.915,129.915,133.251,136.2585,138.154,146.169,151.503,156.174,165.417,171.424,176.095,180.767,186.1,192.107,195.107,198.1145,200.01,208.687,211.686,215.023,218.0305,219.926,228.603,234.61,240.616,245.95,249.948,254.62,259.953,265.96,268.959,271.9665,273.862,278.534,281.534,284.5415,286.436,295.113,298.1205,300.016,304.688,308.024,317.267,323.28,326.625,331.966,334.9735,336.827,340.172,346.187,349.532,354.874,358.88,364.896,368.902,374.244,377.589,382.93,386.275,389.62,395.636,401.651,404.6585,406.512,412.527,416.533,419.5405,421.394,424.739,430.754,436.096,439.1035,440.956,445.637,451.652,455.658,459.665,465.007,470.348,475.69,478.6975,480.551,483.896,489.237,498.48,504.479,509.821,513.827,519.169,522.514,528.529,532.536,537.878,540.8855000000001,542.738,546.083" svgx:width="0.56,0.44,0.5,0.5,0.5,0.5,0.28,0.28,0.25,0.25,0.55,0.33,0.25,0.28,0.25,0.55,0.67,0.44,0.39,0.78,0.5,0.39,0.39,0.44,0.5,0.25,0.25,0.55,0.72,0.25,0.28,0.25,0.55,0.72,0.5,0.5,0.44,0.33,0.39,0.44,0.5,0.25,0.25,0.55,0.39,0.25,0.25,0.55,0.72,0.25,0.55,0.39,0.28,0.78,0.5,0.28,0.44,0.25,0.55,0.28,0.5,0.28,0.44,0.33,0.5,0.33,0.44,0.28,0.44,0.28,0.28,0.5,0.5,0.25,0.55,0.5,0.33,0.25,0.55,0.28,0.5,0.44,0.25,0.55,0.39,0.5,0.33,0.33,0.44,0.44,0.44,0.25,0.55,0.28,0.44,0.78,0.5,0.44,0.33,0.44,0.28,0.5,0.33,0.44,0.25,0.55,0.28,0.25" style="fill:rgb(0,0,0);font-family:TimesNewRomanPSMT;font-size:12.03px;stroke:none;">Sandholt, I.; Rasmussen, K.; Andersen, J. A simple interpretation of the surface temperature / </text>
   <text y="226.62" x="72.3,78.312,83.65,89.661,94.999,98.341,103.679,107.02,110.362,116.373,122.385,125.52,128.861,134.873,140.884,146.222,152.234,155.368,160.045,166.057,171.395,176.733,182.071,185.205,189.208,195.22,199.223,202.357,207.696,212.372,217.049,222.387,227.063,231.74,240.982,246.32,252.299,255.642,258.822,264.835,268.839,272.019,276.697,282.71,286.714,290.718,296.058,301.397,306.736,309.916,319.159,325.158,328.501,333.179,336.521,342.534,346.538,351.878,355.058,359.736,363.078,368.417,371.76,377.773,382.451,385.456" svgx:width="0.5,0.44,0.5,0.44,0.28,0.44,0.28,0.28,0.5,0.5,0.25,0.28,0.5,0.5,0.44,0.5,0.25,0.39,0.5,0.44,0.44,0.44,0.25,0.33,0.5,0.33,0.25,0.44,0.39,0.39,0.44,0.39,0.39,0.78,0.44,0.5,0.28,0.25,0.5,0.33,0.25,0.39,0.5,0.33,0.33,0.44,0.44,0.44,0.25,0.78,0.5,0.28,0.39,0.28,0.5,0.33,0.44,0.25,0.39,0.28,0.44,0.28,0.5,0.39,0.25,0.25" style="fill:rgb(0,0,0);font-family:TimesNewRomanPSMT;font-size:12.03px;stroke:none;">vegetation index space for assessment of surface moisture status. </text>
   <text y="226.62" x="388.619,395.959,401.291,409.967,415.973,419.308,424.64,427.821,433.826,439.158,445.164,449.834,452.833,456.013,463.354,469.36,474.692,478.027,482.698,488.703,494.709" svgx:width="0.61,0.44,0.72,0.5,0.28,0.44,0.25,0.5,0.44,0.5,0.39,0.25,0.25,0.61,0.5,0.44,0.28,0.39,0.5,0.5,0.25" style="fill:rgb(0,0,0);font-family:TimesNewRomanPS-ItalicMT;font-size:12.03px;stroke:none;">Remote Sens. Environ.</text>
   <text y="226.62" x="497.698" svgx:width="0.25" style="fill:rgb(0,0,0);font-family:TimesNewRomanPSMT;font-size:12.03px;stroke:none;"> </text>
   <text y="226.62" x="500.88,506.88,512.88,518.88" svgx:width="0.5,0.5,0.5,0.5" style="fill:rgb(0,0,0);font-family:TimesNewRomanPS-BoldMT;font-size:12.0px;stroke:none;">2002</text>
   <text y="226.62" x="524.88,527.88" svgx:width="0.25,0.25" style="fill:rgb(0,0,0);font-family:TimesNewRomanPSMT;font-size:12.03px;stroke:none;">, </text>
   <text y="226.62" x="531.06,537.06" svgx:width="0.5,0.5" style="fill:rgb(0,0,0);font-family:TimesNewRomanPS-ItalicMT;font-size:12.03px;stroke:none;">79</text>
   <text y="226.62" x="543.06,546.06" svgx:width="0.25,0.25" style="fill:rgb(0,0,0);font-family:TimesNewRomanPSMT;font-size:12.03px;stroke:none;">, </text>
   <text y="243.6" x="72.302,78.302,84.303,91.083,97.084,103.084,109.085,112.079" svgx:width="0.5,0.5,0.56,0.5,0.5,0.5,0.25,0.25" style="fill:rgb(0,0,0);font-family:TimesNewRomanPSMT;font-size:12.03px;stroke:none;">13−224. </text>
   <text y="260.58" x="49.623,55.623" svgx:width="0.5,0.25" style="fill:rgb(0,0,0);font-family:TimesNewRomanPSMT;font-size:12.03px;stroke:none;">9.</text>
   <text y="260.58" x="58.62" svgx:width="0.28" style="fill:rgb(0,0,0);font-family:ArialMT;font-size:12.0px;stroke:none;"> </text>
   <text y="260.58" x="72.3,80.314,85.646,89.643,92.979,97.649,103.655,109.66,112.659,115.6665,118.359,125.7,128.699,137.374,140.373,143.708,146.7155,149.409,158.084,161.42,164.755,168.091,171.426,176.758,181.429,184.427,187.43449999999999,190.127,198.142,201.14,209.155,212.153,215.489,218.4965,221.189,227.868,233.2,239.206,248.448,254.454,260.459,266.465,271.797,274.796,277.8035,280.496,287.836,290.835,295.505,298.504,301.5115,304.204,312.88,318.839,321.8465,324.479,328.483,334.496,337.838,343.178,347.182,353.195,357.199,362.538,365.881,371.22,374.563,377.905,383.918,389.931,392.9385,395.571,401.584,405.588,408.5955,411.228,421.92,427.259,430.602,436.614,442.627,448.64,454.653,457.996,464.008,470.021,473.364,478.703,483.381,486.38849999999996,489.021,493.025,499.038,503.042,506.04949999999997,508.682,512.686,518.699,524.712,528.054,532.058,537.398,542.737,546.08" svgx:width="0.67,0.44,0.33,0.28,0.39,0.5,0.5,0.25,0.25,0.55,0.61,0.25,0.72,0.25,0.28,0.25,0.55,0.72,0.28,0.28,0.28,0.28,0.44,0.39,0.25,0.25,0.55,0.67,0.25,0.67,0.25,0.28,0.25,0.55,0.56,0.44,0.5,0.78,0.5,0.5,0.5,0.44,0.25,0.25,0.55,0.61,0.25,0.39,0.25,0.25,0.55,0.72,0.5,0.25,0.55,0.33,0.5,0.28,0.44,0.33,0.5,0.33,0.44,0.28,0.44,0.28,0.28,0.5,0.5,0.25,0.55,0.5,0.33,0.25,0.55,0.89,0.44,0.28,0.5,0.5,0.5,0.5,0.28,0.5,0.5,0.28,0.44,0.39,0.25,0.55,0.33,0.5,0.33,0.25,0.55,0.33,0.5,0.5,0.28,0.33,0.44,0.44,0.28,0.25" style="fill:rgb(0,0,0);font-family:TimesNewRomanPSMT;font-size:12.03px;stroke:none;">Carlson, T.N.; Gillies, R.R.; Schmugge, T.J. An Interpretation of Methodologies for Indirect </text>
   <text y="277.56" x="72.3,82.992,88.331,93.67,98.348,104.361,108.365,113.704,122.947,128.286,134.299,137.641,140.641,146.654,150.658,153.658,160.344,166.357,169.7,173.043,177.047,188.269,193.611,196.953,202.292,206.297,209.296,217.318,223.331,229.344,232.686,238.026,244.038,247.381,250.387" svgx:width="0.89,0.44,0.44,0.39,0.5,0.33,0.44,0.78,0.44,0.5,0.28,0.25,0.5,0.33,0.25,0.56,0.5,0.28,0.28,0.33,0.94,0.44,0.28,0.44,0.33,0.25,0.67,0.5,0.5,0.28,0.44,0.5,0.28,0.25,0.25" style="fill:rgb(0,0,0);font-family:TimesNewRomanPSMT;font-size:12.03px;stroke:none;">Measurement of Soil-Water Content. </text>
   <text y="277.56" x="253.319,260.664,266.673,271.347,274.686,280.022,283.024,286.024,293.368,299.377,304.051,307.054,310.053,320.068,325.404,328.743,334.078,340.088,344.762,350.771,354.11,357.112" svgx:width="0.61,0.5,0.39,0.28,0.44,0.25,0.25,0.61,0.5,0.39,0.25,0.25,0.83,0.44,0.28,0.44,0.5,0.39,0.5,0.28,0.25,0.25" style="fill:rgb(0,0,0);font-family:TimesNewRomanPS-ItalicMT;font-size:12.03px;stroke:none;">Agric. For. Meteorol. </text>
   <text y="277.56" x="360.12,366.12,372.12,378.12" svgx:width="0.5,0.5,0.5,0.5" style="fill:rgb(0,0,0);font-family:TimesNewRomanPS-BoldMT;font-size:12.0px;stroke:none;">1995</text>
   <text y="277.56" x="384.12,387.12" svgx:width="0.25,0.25" style="fill:rgb(0,0,0);font-family:TimesNewRomanPSMT;font-size:12.03px;stroke:none;">, </text>
   <text y="277.56" x="390.12,396.119" svgx:width="0.5,0.5" style="fill:rgb(0,0,0);font-family:TimesNewRomanPS-ItalicMT;font-size:12.03px;stroke:none;">77</text>
   <text y="277.56" x="402.12,405.117,408.117,414.122,420.126,426.131,430.126,436.131,442.135,448.14,451.137" svgx:width="0.25,0.25,0.5,0.5,0.5,0.33,0.5,0.5,0.5,0.25,0.25" style="fill:rgb(0,0,0);font-family:TimesNewRomanPSMT;font-size:12.03px;stroke:none;">, 191-205. </text>
   <text y="294.54" x="49.621,55.621,61.62" svgx:width="0.5,0.5,0.25" style="fill:rgb(0,0,0);font-family:TimesNewRomanPSMT;font-size:12.03px;stroke:none;">10.</text>
   <text y="294.54" x="64.62" svgx:width="0.28" style="fill:rgb(0,0,0);font-family:ArialMT;font-size:12.0px;stroke:none;"> </text>
   <text y="294.54" x="72.3,80.311,85.639,89.632,92.964,97.631,103.633,109.635,112.63,115.825,123.162,129.164,135.166,141.168,144.163,147.358,156.03,162.032,165.227,173.899,179.901,185.229,189.223,195.225,198.557,203.885,212.557,215.752,221.754,225.72,228.96,232.301,238.313,243.651,246.891,252.23,259.576,263.579,266.921,272.259,278.27,284.282,287.623,292.962,296.202,306.892,312.231,315.572,321.584,327.595,333.607,338.945,342.185,346.188,352.2,356.203,359.443,366.79,371.467,374.808,378.149,387.392,392.73,396.071,399.413,405.424,411.436,414.676,421.362,427.373,431.376,435.379,440.717,446.055,451.393,454.634,461.98,467.992,473.33,479.342,485.354,488.695,492.698,498.036,504.048,508.724,514.736,518.077,522.08,527.418,530.76,534.101,540.113,546.124" svgx:width="0.67,0.44,0.33,0.28,0.39,0.5,0.5,0.25,0.25,0.61,0.5,0.5,0.5,0.25,0.25,0.72,0.5,0.25,0.72,0.5,0.44,0.33,0.5,0.28,0.44,0.72,0.25,0.5,0.33,0.25,0.28,0.5,0.44,0.25,0.44,0.61,0.33,0.28,0.44,0.5,0.5,0.28,0.44,0.25,0.89,0.44,0.28,0.5,0.5,0.5,0.44,0.25,0.33,0.5,0.33,0.25,0.61,0.39,0.28,0.28,0.78,0.44,0.28,0.28,0.5,0.5,0.25,0.56,0.5,0.33,0.33,0.44,0.44,0.44,0.25,0.61,0.5,0.44,0.5,0.5,0.28,0.33,0.44,0.5,0.39,0.5,0.28,0.33,0.44,0.28,0.28,0.5,0.5,0.25" style="fill:rgb(0,0,0);font-family:TimesNewRomanPSMT;font-size:12.03px;stroke:none;">Carlson, Toby. An Overview of the “Triangle Method” for Estimating Surface Evapotranspiration </text>
   <text y="311.52" x="72.3,77.64,83.655,89.669,92.668,99.356,105.37,108.714,112.058,115.058,125.75,131.765,135.108,139.787,143.131,149.145,153.15,158.491,161.491,165.45,169.47,175.484,184.727,187.726,194.414,199.755,203.098,208.439,211.783,215.126,218.47,221.814,227.155,230.154,234.16,243.402,248.743,254.757,260.097,264.102,270.117,273.124" svgx:width="0.44,0.5,0.5,0.25,0.56,0.5,0.28,0.28,0.25,0.89,0.5,0.28,0.39,0.28,0.5,0.33,0.44,0.25,0.33,0.33,0.5,0.78,0.25,0.56,0.44,0.28,0.44,0.28,0.28,0.28,0.28,0.44,0.25,0.33,0.78,0.44,0.5,0.44,0.33,0.5,0.25,0.25" style="fill:rgb(0,0,0);font-family:TimesNewRomanPSMT;font-size:12.03px;stroke:none;">and Soil Moisture from Satellite Imagery. </text>
   <text y="311.52" x="276.12,282.127,287.46,293.467,298.138,301.138" svgx:width="0.5,0.44,0.5,0.39,0.25,0.25" style="fill:rgb(0,0,0);font-family:TimesNewRomanPS-ItalicMT;font-size:12.03px;stroke:none;">Sens. </text>
   <text y="311.52" x="304.14,310.14,316.14,322.14" svgx:width="0.5,0.5,0.5,0.5" style="fill:rgb(0,0,0);font-family:TimesNewRomanPS-BoldMT;font-size:12.0px;stroke:none;">2007</text>
   <text y="311.52" x="328.14,331.14" svgx:width="0.25,0.25" style="fill:rgb(0,0,0);font-family:TimesNewRomanPSMT;font-size:12.03px;stroke:none;">, </text>
   <text y="311.52" x="334.14" svgx:width="0.5" style="fill:rgb(0,0,0);font-family:TimesNewRomanPS-ItalicMT;font-size:12.03px;stroke:none;">7</text>
   <text y="311.52" x="340.139,343.135,346.135,352.138,358.142,364.145,370.148,374.143,380.146,386.149,392.152,398.156,401.152" svgx:width="0.25,0.25,0.5,0.5,0.5,0.5,0.33,0.5,0.5,0.5,0.5,0.25,0.25" style="fill:rgb(0,0,0);font-family:TimesNewRomanPSMT;font-size:12.03px;stroke:none;">, 1612-1629. </text>
   <text y="328.5" x="49.62,55.619,61.619" svgx:width="0.5,0.5,0.25" style="fill:rgb(0,0,0);font-family:TimesNewRomanPSMT;font-size:12.03px;stroke:none;">11.</text>
   <text y="328.5" x="64.62" svgx:width="0.28" style="fill:rgb(0,0,0);font-family:ArialMT;font-size:12.0px;stroke:none;"> </text>
   <text y="328.5" x="72.3,78.984,82.324,85.664,90.34,95.677,101.687,104.69,107.69749999999999,108.71,115.394,118.398,121.738,124.74549999999999,125.758,132.442,137.779,143.789,149.799,155.81,161.82,165.161,168.501,171.504,174.51149999999998,175.524,179.526,182.529,185.869,188.8765,189.889,198.57,204.58,208.582,214.592,219.929,225.266,229.268,235.278,238.282,241.2895,242.302,250.982,253.986,257.326,260.3335,261.346,268.03,273.367,279.377,284.052,290.063,296.073,299.413,302.754,305.757,308.7645,309.719,317.738,320.742,324.082,327.0895,328.121,332.796,338.133,344.143,348.819,354.156,360.166,363.17,366.1775,367.209,375.228,381.238,390.481,396.48,399.82,405.831,409.171,415.181,421.192,424.1995,425.231,428.571,434.582,439.918,442.9255,443.957,447.298,451.299,454.64,459.977,465.987,471.997,475.338,480.674,483.68149999999997,484.713,493.956,499.298,502.638,508.648,514.659,520.669,523.6765,524.708,533.389,536.729,540.069,546.08" svgx:width="0.56,0.28,0.28,0.39,0.44,0.5,0.25,0.25,0.55,0.56,0.25,0.28,0.25,0.55,0.56,0.44,0.5,0.5,0.5,0.5,0.28,0.28,0.25,0.25,0.55,0.33,0.25,0.28,0.25,0.55,0.72,0.5,0.33,0.5,0.44,0.44,0.33,0.5,0.25,0.25,0.55,0.72,0.25,0.28,0.25,0.55,0.56,0.44,0.5,0.39,0.5,0.5,0.28,0.28,0.25,0.25,0.55,0.67,0.25,0.28,0.25,0.55,0.39,0.44,0.5,0.39,0.44,0.5,0.25,0.25,0.55,0.67,0.5,0.78,0.5,0.28,0.5,0.28,0.5,0.5,0.25,0.55,0.28,0.5,0.44,0.25,0.55,0.28,0.33,0.28,0.44,0.5,0.5,0.28,0.44,0.25,0.55,0.78,0.44,0.28,0.5,0.5,0.5,0.25,0.55,0.72,0.28,0.28,0.5,0.25" style="fill:rgb(0,0,0);font-family:TimesNewRomanPSMT;font-size:12.03px;stroke:none;">Stisen, S.; Sandholt, I.; Norgaard, A.; Fensholt, R.; Jensen. Combining the triangle method with </text>
   <text y="345.48" x="72.3,75.645,81.66,87.002,91.008,100.251,105.593,108.938,111.9455,114.037,117.383,123.398,128.739,132.746,136.091,139.436,144.778,147.78549999999998,149.878,153.223,159.238,162.2455,164.338,169.679,174.36,177.705,181.05,190.292,195.634,198.979,204.32,207.3275,209.42,213.427,218.769,224.784,228.129,234.144,240.159,245.501,248.846,251.8535,253.946,259.288,265.303,270.645,276.66,282.675,286.02,290.027,295.368,301.384,306.064,312.079,315.424,319.431,324.772,328.117,331.462,337.478,343.493,346.5005,348.593,354.608,357.6155,359.708,368.345,374.36,380.376,383.721,387.066,392.407,398.423,401.4305,403.523,406.868,412.883,415.8905,417.983,428.677,435.366,444.004,448.024,454.713,462.063,470.701,474.72,482.744,486.751,489.75849999999997,491.851,497.866,503.208,506.553,511.895,514.9025,516.994,520.339,526.355,529.3625000000001,531.455,534.8,540.815,546.157" svgx:width="0.28,0.5,0.44,0.33,0.78,0.44,0.28,0.25,0.55,0.28,0.5,0.44,0.33,0.28,0.28,0.44,0.25,0.55,0.28,0.5,0.25,0.55,0.44,0.39,0.28,0.28,0.78,0.44,0.28,0.44,0.25,0.55,0.33,0.44,0.5,0.28,0.5,0.5,0.44,0.28,0.25,0.55,0.44,0.5,0.44,0.5,0.5,0.28,0.33,0.44,0.5,0.39,0.5,0.28,0.33,0.44,0.28,0.28,0.5,0.5,0.25,0.55,0.5,0.25,0.55,0.72,0.5,0.5,0.28,0.28,0.44,0.5,0.25,0.55,0.28,0.5,0.25,0.55,0.89,0.56,0.72,0.33,0.56,0.61,0.72,0.33,0.67,0.33,0.25,0.55,0.5,0.44,0.28,0.44,0.25,0.55,0.28,0.5,0.25,0.55,0.28,0.5,0.44,0.25" style="fill:rgb(0,0,0);font-family:TimesNewRomanPSMT;font-size:12.03px;stroke:none;">thermal inertia to estimate regional evapotranspiration – Applied to MSG-SEVIRI data in the </text>
   <text y="362.46" x="72.3,78.985,84.323,90.335,95.673,101.685,107.023,110.364,113.364,121.384,124.726,130.737,136.075,140.078,143.078,149.09,154.428,159.104,162.446,168.457,171.462" svgx:width="0.56,0.44,0.5,0.44,0.5,0.44,0.28,0.25,0.67,0.28,0.5,0.44,0.33,0.25,0.5,0.44,0.39,0.28,0.5,0.25,0.25" style="fill:rgb(0,0,0);font-family:TimesNewRomanPSMT;font-size:12.03px;stroke:none;">Senegal River basin, </text>
   <text y="362.46" x="174.42,181.761,187.093,195.768,201.774,205.109,210.442,213.441,219.447,224.779,230.785,235.455,238.454,241.454,248.794,254.8,260.132,263.467,268.138,274.144,280.149" svgx:width="0.61,0.44,0.72,0.5,0.28,0.44,0.25,0.5,0.44,0.5,0.39,0.25,0.25,0.61,0.5,0.44,0.28,0.39,0.5,0.5,0.25" style="fill:rgb(0,0,0);font-family:TimesNewRomanPS-ItalicMT;font-size:12.03px;stroke:none;">Remote Sens. Environ.</text>
   <text y="362.46" x="283.139" svgx:width="0.25" style="fill:rgb(0,0,0);font-family:TimesNewRomanPSMT;font-size:12.03px;stroke:none;"> </text>
   <text y="362.46" x="286.14,292.14,298.14,304.14" svgx:width="0.5,0.5,0.5,0.5" style="fill:rgb(0,0,0);font-family:TimesNewRomanPS-BoldMT;font-size:12.0px;stroke:none;">2008</text>
   <text y="362.46" x="310.14,313.14" svgx:width="0.25,0.25" style="fill:rgb(0,0,0);font-family:TimesNewRomanPSMT;font-size:12.03px;stroke:none;">, </text>
   <text y="362.46" x="316.14,322.139,328.139" svgx:width="0.5,0.5,0.5" style="fill:rgb(0,0,0);font-family:TimesNewRomanPS-ItalicMT;font-size:12.03px;stroke:none;">112</text>
   <text y="362.46" x="334.14,337.136,340.136,346.139,352.142,358.145,364.149,368.143,374.146,380.15,386.153,392.156,395.152" svgx:width="0.25,0.25,0.5,0.5,0.5,0.5,0.33,0.5,0.5,0.5,0.5,0.25,0.25" style="fill:rgb(0,0,0);font-family:TimesNewRomanPSMT;font-size:12.03px;stroke:none;">, 1242-1255. </text>
   <text y="379.44" x="49.621,55.621,61.62" svgx:width="0.5,0.5,0.25" style="fill:rgb(0,0,0);font-family:TimesNewRomanPSMT;font-size:12.03px;stroke:none;">12.</text>
   <text y="379.44" x="64.62" svgx:width="0.28" style="fill:rgb(0,0,0);font-family:ArialMT;font-size:12.0px;stroke:none;"> </text>
   <text y="379.44" x="72.3,80.317,85.651,89.651,92.988,97.661,103.669,109.677,112.678,115.703,123.047,126.048,134.726,137.727,141.065,144.09,152.768,156.106,159.444,162.781,166.119,171.454,176.127,179.128,182.153,190.169,193.17,201.187,204.188,207.526,210.551,217.233,222.567,226.566,230.566,236.574,239.575,242.6,249.943,252.944,263.631,266.632,269.657,278.335,281.36,292.047,297.382,300.72,306.728,312.736,318.744,321.719,325.066,331.082,334.142,344.837,350.18,356.197,361.54,364.6,373.286,377.968,383.311,386.371,392.387,396.395,399.455,406.806,412.823,418.166,422.173,431.416,436.757,440.104,443.164,447.171,453.188,457.195,461.203,466.546,470.554,475.897,481.913,484.973,492.325,497.668,506.91,512.91,518.253,522.26,527.603,530.949,536.966,540.974,546.316" svgx:width="0.67,0.44,0.33,0.28,0.39,0.5,0.5,0.25,0.25,0.61,0.25,0.72,0.25,0.28,0.25,0.72,0.28,0.28,0.28,0.28,0.44,0.39,0.25,0.25,0.67,0.25,0.67,0.25,0.28,0.25,0.56,0.44,0.33,0.33,0.5,0.25,0.25,0.61,0.25,0.89,0.25,0.25,0.72,0.25,0.89,0.44,0.28,0.5,0.5,0.5,0.25,0.28,0.5,0.25,0.89,0.44,0.5,0.44,0.25,0.72,0.39,0.44,0.25,0.5,0.33,0.25,0.61,0.5,0.44,0.33,0.78,0.44,0.28,0.25,0.33,0.5,0.33,0.33,0.44,0.33,0.44,0.5,0.25,0.61,0.44,0.78,0.5,0.44,0.33,0.44,0.28,0.5,0.33,0.44,0.25" style="fill:rgb(0,0,0);font-family:TimesNewRomanPSMT;font-size:12.03px;stroke:none;">Carlson, T.N.; Gillies, R.R.; Perry, E.M. A Method to Make Use of Thermal Infrared Temperature </text>
   <text y="396.42" x="72.3,77.634,83.642,89.651,92.65849999999999,93.851,102.529,111.207,119.886,123.885,126.8925,128.085,137.328,142.662,147.996,152.669,158.677,162.677,168.011,177.254,182.588,188.596,191.934,196.607,199.6145,200.807,204.145,210.153,213.16049999999998,214.353,218.352,224.36,228.36,233.694,237.694,240.70149999999998,241.894,248.575,254.583,258.583,262.582,267.917,273.251,278.586,281.5935,282.786,289.467,295.475,298.813,302.151,305.1585,306.351,317.573,322.86,326.201,331.539,335.542,338.54949999999997,339.79,347.811,353.822,359.834,363.176,368.514,374.525,377.867,380.8745,382.115,387.453,393.465,399.476,402.4835,403.725,410.41,414.413,419.751,425.089,428.43,431.772,437.783,443.795,449.133,452.475,455.4825,456.723,465.405,470.743,476.755,482.093,485.434,490.772,494.113,497.455,503.467,509.478,512.4855,513.727,521.747,527.759,533.77,539.108,543.111,546.116" svgx:width="0.44,0.5,0.5,0.25,0.55,0.72,0.72,0.72,0.33,0.25,0.55,0.78,0.44,0.44,0.39,0.5,0.33,0.44,0.78,0.44,0.5,0.28,0.39,0.25,0.55,0.28,0.5,0.25,0.55,0.33,0.5,0.33,0.44,0.33,0.25,0.55,0.56,0.5,0.33,0.33,0.44,0.44,0.44,0.25,0.55,0.56,0.5,0.28,0.28,0.25,0.55,0.94,0.44,0.28,0.44,0.33,0.25,0.55,0.67,0.5,0.5,0.28,0.44,0.5,0.28,0.25,0.55,0.44,0.5,0.5,0.25,0.55,0.56,0.33,0.44,0.44,0.28,0.28,0.5,0.5,0.44,0.28,0.25,0.55,0.72,0.44,0.5,0.44,0.28,0.44,0.28,0.28,0.5,0.5,0.25,0.55,0.67,0.5,0.5,0.44,0.33,0.25,0.25" style="fill:rgb(0,0,0);font-family:TimesNewRomanPSMT;font-size:12.03px;stroke:none;">and NDVI measurements to Infer Surface Soil Water Content and Fractional Vegetation Cover. </text>
   <text y="413.4" x="72.3,79.641,84.973,93.649,99.654,102.99,108.322,111.322,117.327,122.659,128.665,133.335,136.334,139.334,146.675,152.007,157.339,160.337" svgx:width="0.61,0.44,0.72,0.5,0.28,0.44,0.25,0.5,0.44,0.5,0.39,0.25,0.25,0.61,0.44,0.44,0.25,0.25" style="fill:rgb(0,0,0);font-family:TimesNewRomanPS-ItalicMT;font-size:12.03px;stroke:none;">Remote Sens. Rev. </text>
   <text y="413.4" x="163.32,169.32,175.32,181.32" svgx:width="0.5,0.5,0.5,0.5" style="fill:rgb(0,0,0);font-family:TimesNewRomanPS-BoldMT;font-size:12.0px;stroke:none;">1994</text>
   <text y="413.4" x="187.32,190.32" svgx:width="0.25,0.25" style="fill:rgb(0,0,0);font-family:TimesNewRomanPSMT;font-size:12.03px;stroke:none;">, </text>
   <text y="413.4" x="193.32" svgx:width="0.5" style="fill:rgb(0,0,0);font-family:TimesNewRomanPS-ItalicMT;font-size:12.03px;stroke:none;">9</text>
   <text y="413.4" x="199.319,202.317,205.316,211.321,217.325,223.33,227.325,233.33,239.334,245.339,248.336" svgx:width="0.25,0.25,0.5,0.5,0.5,0.33,0.5,0.5,0.5,0.25,0.25" style="fill:rgb(0,0,0);font-family:TimesNewRomanPSMT;font-size:12.03px;stroke:none;">, 161-173. </text>
   <text y="430.38" x="49.62,55.62,61.619" svgx:width="0.5,0.5,0.25" style="fill:rgb(0,0,0);font-family:TimesNewRomanPSMT;font-size:12.03px;stroke:none;">13.</text>
   <text y="430.38" x="64.62" svgx:width="0.28" style="fill:rgb(0,0,0);font-family:ArialMT;font-size:12.0px;stroke:none;"> </text>
   <text y="430.38" x="72.3,80.977,86.31,89.647,95.654,99.652,102.652,105.6595,106.576,113.918,116.918,120.255,123.26249999999999,124.18,132.195,137.528,142.2,147.533,150.87,154.207,159.54,164.212,167.211,170.2185,171.136,179.813,182.813,185.82049999999998,186.738,197.423,202.757,208.764,214.77,218.107,224.114,230.121,233.1285,234.045,241.387,246.721,252.728,258.734,261.7415,262.659,269.34,275.346,279.345,283.343,288.676,294.009,299.342,302.3495,303.267,310.609,319.852,323.159,327.832,332.505,335.843,341.851,345.189,348.526,354.535,357.5425,358.494,362.493,366.493,372.501,381.743,384.7505,385.703,394.381,403.059,411.738,415.737,419.075,422.0825,423.035,431.713,437.721,443.729,447.067,450.404,455.739,461.073,464.411,467.749,473.757,479.765,482.7725,483.725,487.063,493.071,496.0785,497.03,504.373,510.381,514.381,520.389,526.397,531.731,537.066,543.074,546.075" svgx:width="0.72,0.44,0.28,0.5,0.33,0.25,0.25,0.55,0.61,0.25,0.28,0.25,0.55,0.67,0.44,0.39,0.44,0.28,0.28,0.44,0.39,0.25,0.25,0.55,0.72,0.25,0.25,0.55,0.89,0.44,0.5,0.5,0.28,0.5,0.5,0.25,0.55,0.61,0.44,0.5,0.5,0.25,0.55,0.56,0.5,0.33,0.33,0.44,0.44,0.44,0.25,0.55,0.61,0.78,0.28,0.39,0.39,0.28,0.5,0.28,0.28,0.5,0.25,0.55,0.33,0.33,0.5,0.78,0.25,0.55,0.72,0.72,0.72,0.33,0.28,0.25,0.55,0.72,0.5,0.5,0.28,0.28,0.44,0.44,0.28,0.28,0.5,0.5,0.25,0.55,0.28,0.5,0.25,0.55,0.61,0.5,0.33,0.5,0.5,0.44,0.44,0.5,0.25,0.25" style="fill:rgb(0,0,0);font-family:TimesNewRomanPSMT;font-size:12.03px;stroke:none;">Valor, E.; Caselles, V. Mapping Land Surface Emissivity from NDVI: Application to European, </text>
   <text y="446.579" x="72.3,80.975,84.97,88.966,92.3,97.631,102.962,108.966,111.964,114.964,120.295,126.299,132.303,135.303,141.981,147.986,153.99,157.324,163.329,166.328,175.003,184.245,189.576,193.572,196.906,202.237,207.568,213.572,216.572,225.247,229.243,234.573,239.904,244.574,247.571" svgx:width="0.72,0.33,0.33,0.28,0.44,0.44,0.5,0.25,0.25,0.44,0.5,0.5,0.25,0.56,0.5,0.5,0.28,0.5,0.25,0.72,0.78,0.44,0.33,0.28,0.44,0.44,0.5,0.25,0.72,0.33,0.44,0.44,0.39,0.25,0.25" style="fill:rgb(0,0,0);font-family:TimesNewRomanPSMT;font-size:12.03px;stroke:none;">African, and South American Areas. </text>
   <text y="446.579" x="250.619,257.96,263.292,271.968,277.973,281.309,286.641,289.641,295.646,300.978,306.984,311.654,314.653,317.653,324.994,330.999,336.331,339.667,344.337,350.343,356.348" svgx:width="0.61,0.44,0.72,0.5,0.28,0.44,0.25,0.5,0.44,0.5,0.39,0.25,0.25,0.61,0.5,0.44,0.28,0.39,0.5,0.5,0.25" style="fill:rgb(0,0,0);font-family:TimesNewRomanPS-ItalicMT;font-size:12.03px;stroke:none;">Remote Sens. Environ.</text>
   <text y="446.579" x="359.339" svgx:width="0.25" style="fill:rgb(0,0,0);font-family:TimesNewRomanPSMT;font-size:12.03px;stroke:none;"> </text>
   <text y="446.58" x="362.34,368.34,374.34,380.34" svgx:width="0.5,0.5,0.5,0.5" style="fill:rgb(0,0,0);font-family:TimesNewRomanPS-BoldMT;font-size:12.0px;stroke:none;">1996</text>
   <text y="446.58" x="386.34,389.34" svgx:width="0.25,0.25" style="fill:rgb(0,0,0);font-family:TimesNewRomanPSMT;font-size:12.03px;stroke:none;">, </text>
   <text y="446.58" x="392.34,398.339" svgx:width="0.5,0.5" style="fill:rgb(0,0,0);font-family:TimesNewRomanPS-ItalicMT;font-size:12.03px;stroke:none;">57</text>
   <text y="446.58" x="404.34,407.34,410.34" svgx:width="0.25,0.25,0.5" style="fill:rgb(0,0,0);font-family:TimesNewRomanPSMT;font-size:12.03px;stroke:none;">, 1</text>
   <text y="446.58" x="416.34,422.34" svgx:width="0.5,0.5" style="fill:rgb(0,0,0);font-family:SimSun;font-size:12.0px;stroke:none;">67</text>
   <text y="446.58" x="428.34,432.36" svgx:width="0.33,0.5" style="fill:rgb(0,0,0);font-family:TimesNewRomanPSMT;font-size:12.03px;stroke:none;">-1</text>
   <text y="446.58" x="438.36,444.36" svgx:width="0.5,0.5" style="fill:rgb(0,0,0);font-family:SimSun;font-size:12.0px;stroke:none;">84</text>
   <text y="446.58" x="450.36,453.36" svgx:width="0.25,0.25" style="fill:rgb(0,0,0);font-family:TimesNewRomanPSMT;font-size:12.03px;stroke:none;">. </text>
   <text y="464.339" x="49.621,55.621,61.62" svgx:width="0.5,0.5,0.25" style="fill:rgb(0,0,0);font-family:TimesNewRomanPSMT;font-size:12.03px;stroke:none;">14.</text>
   <text y="464.34" x="64.62" svgx:width="0.28" style="fill:rgb(0,0,0);font-family:ArialMT;font-size:12.0px;stroke:none;"> </text>
   <text y="464.34" x="72.3,82.986,88.993,92.991,98.324,104.331,107.331,111.188,121.874,124.874,131.554,134.554,137.89,141.748,149.763,153.1,158.433,162.431,168.438,173.771,176.771,180.629,187.971,190.97,198.986,201.986,205.322,209.18,213.178,219.185,225.192,231.198,236.532,239.531,243.389,252.066,255.066,258.066,261.402,265.26,273.937,277.273,283.28,288.613,291.95,294.95,298.807,307.484,310.44,314.339,321.688,326.367,329.711,333.055,342.297,347.638,350.981,354.325,360.339,366.353,370.253,375.593,379.599,385.613,391.627,395.526,404.211,409.551,412.895,418.235,422.241,426.14,432.154,437.495,441.5,444.844,450.184,453.528,456.872,460.772,466.786,471.464,474.808,480.822,486.836,490.736,494.08,500.094,505.434,509.334,513.339,518.68,522.023,527.364,530.708,534.051,540.065,546.079" svgx:width="0.89,0.5,0.33,0.44,0.5,0.25,0.25,0.89,0.25,0.56,0.25,0.28,0.25,0.67,0.28,0.44,0.33,0.5,0.44,0.25,0.25,0.61,0.25,0.67,0.25,0.28,0.25,0.33,0.5,0.5,0.5,0.44,0.25,0.25,0.72,0.25,0.25,0.28,0.25,0.72,0.28,0.5,0.44,0.28,0.25,0.25,0.72,0.25,0.25,0.61,0.39,0.28,0.28,0.78,0.44,0.28,0.28,0.5,0.5,0.25,0.44,0.33,0.5,0.5,0.25,0.72,0.44,0.28,0.44,0.33,0.25,0.5,0.44,0.33,0.28,0.44,0.28,0.28,0.25,0.5,0.39,0.28,0.5,0.5,0.25,0.28,0.5,0.44,0.25,0.33,0.44,0.28,0.44,0.28,0.28,0.5,0.5,0.25" style="fill:rgb(0,0,0);font-family:TimesNewRomanPSMT;font-size:12.03px;stroke:none;">Moran, M.S.; Clarke, T.R.; Inoue, Y. ; Vidal, A. Estimating crop water deficit using the relation </text>
   <text y="481.32" x="72.3,78.314,83.655,86.998,95.683,101.023,106.364,112.378,115.3855,116.518,121.197,127.211,131.216,135.221,140.562,145.902,151.243,155.248,160.589,163.932,167.938,170.94549999999998,172.078,175.422,180.762,190.005,196.004,201.345,205.35,210.69,214.034,220.048,224.054,229.394,232.4015,233.534,238.875,244.889,250.903,253.91049999999998,255.043,259.722,265.736,271.076,276.417,279.761,283.766,289.107,292.45,295.4575,296.59,302.604,307.945,313.959,319.299,322.643,327.984,331.328,334.671,340.685,346.699,349.7065,350.84,354.183,360.197,366.211,371.552,377.566,380.573" svgx:width="0.5,0.44,0.28,0.72,0.44,0.44,0.5,0.25,0.55,0.39,0.5,0.33,0.33,0.44,0.44,0.44,0.33,0.44,0.28,0.33,0.25,0.55,0.28,0.44,0.78,0.5,0.44,0.33,0.44,0.28,0.5,0.33,0.44,0.25,0.55,0.44,0.5,0.5,0.25,0.55,0.39,0.5,0.44,0.44,0.28,0.33,0.44,0.28,0.25,0.55,0.5,0.44,0.5,0.44,0.28,0.44,0.28,0.28,0.5,0.5,0.25,0.55,0.28,0.5,0.5,0.44,0.5,0.25,0.25" style="fill:rgb(0,0,0);font-family:TimesNewRomanPSMT;font-size:12.03px;stroke:none;">between surface-air temperature and spectral vegetation index. </text>
   <text y="481.32" x="384.659,392.0,397.332,406.008,412.013,415.349,420.681,423.6885,424.821,430.826,436.158,442.164,446.835,449.833,452.8405,453.973,461.314,467.32,472.652,475.987,480.658,486.663,492.669,495.667" svgx:width="0.61,0.44,0.72,0.5,0.28,0.44,0.25,0.55,0.5,0.44,0.5,0.39,0.25,0.25,0.55,0.61,0.5,0.44,0.28,0.39,0.5,0.5,0.25,0.25" style="fill:rgb(0,0,0);font-family:TimesNewRomanPS-ItalicMT;font-size:12.03px;stroke:none;">Remote Sens. Environ. </text>
   <text y="481.32" x="499.86,505.86,511.86,517.86" svgx:width="0.5,0.5,0.5,0.5" style="fill:rgb(0,0,0);font-family:TimesNewRomanPS-BoldMT;font-size:12.0px;stroke:none;">1994</text>
   <text y="481.32" x="523.86,526.86" svgx:width="0.25,0.25" style="fill:rgb(0,0,0);font-family:TimesNewRomanPSMT;font-size:12.03px;stroke:none;">, </text>
   <text y="481.32" x="531.06,537.06" svgx:width="0.5,0.5" style="fill:rgb(0,0,0);font-family:TimesNewRomanPS-ItalicMT;font-size:12.03px;stroke:none;">49</text>
   <text y="481.32" x="543.06,546.06" svgx:width="0.25,0.25" style="fill:rgb(0,0,0);font-family:TimesNewRomanPSMT;font-size:12.03px;stroke:none;">, </text>
   <text y="497.519" x="72.302,78.302,84.301" svgx:width="0.5,0.5,0.5" style="fill:rgb(0,0,0);font-family:TimesNewRomanPSMT;font-size:12.03px;stroke:none;">246</text>
   <text y="497.52" x="90.3" svgx:width="1.0" style="fill:rgb(0,0,0);font-family:SimSun;font-size:12.0px;stroke:none;">～</text>
   <text y="497.52" x="102.3,105.3,111.302,117.304,123.306,126.301" svgx:width="0.25,0.5,0.5,0.5,0.25,0.25" style="fill:rgb(0,0,0);font-family:TimesNewRomanPSMT;font-size:12.03px;stroke:none;"> 263. </text>
   <text y="515.279" x="49.621,55.62,61.62" svgx:width="0.5,0.5,0.25" style="fill:rgb(0,0,0);font-family:TimesNewRomanPSMT;font-size:12.03px;stroke:none;">15.</text>
   <text y="515.28" x="64.62" svgx:width="0.28" style="fill:rgb(0,0,0);font-family:ArialMT;font-size:12.0px;stroke:none;"> </text>
   <text y="515.28" x="72.3,78.984,84.321,90.331,93.672,99.008,105.019,110.356,113.696,117.036,123.047,126.05,129.0575,131.162,135.837,138.841,147.521,150.525,153.865,156.8725,158.977,165.661,169.663,173.003,178.34,184.35,187.69,190.694,193.70149999999998,195.806,206.495,209.499,218.179,221.183,224.1905,226.295,234.975,238.315,244.326,248.328,254.338,259.675,263.015,266.0225,268.127,273.464,279.474,285.485,290.822,294.823,298.14,303.479,306.821,310.164,316.177,322.19,325.1975,327.29,330.632,336.645,339.6525,341.745,346.423,352.436,355.778,359.121,362.1285,364.221,370.234,375.573,380.912,384.255,387.2625,389.355,393.359,396.702,402.714,408.727,411.73449999999997,413.827,419.166,425.179,431.192,434.1995,436.292,442.305,447.644,450.987,453.9945,456.087,460.091,465.43,471.443,474.786,480.125,483.467,486.81,492.823,498.836,501.842" svgx:width="0.56,0.44,0.5,0.28,0.44,0.5,0.44,0.28,0.28,0.5,0.25,0.25,0.55,0.39,0.25,0.72,0.25,0.28,0.25,0.55,0.56,0.33,0.28,0.44,0.5,0.28,0.25,0.25,0.55,0.89,0.25,0.72,0.25,0.25,0.55,0.72,0.28,0.5,0.33,0.5,0.44,0.28,0.25,0.55,0.44,0.5,0.5,0.44,0.33,0.28,0.44,0.28,0.28,0.5,0.5,0.25,0.55,0.28,0.5,0.25,0.55,0.39,0.5,0.28,0.28,0.25,0.55,0.5,0.44,0.44,0.28,0.25,0.55,0.33,0.28,0.5,0.5,0.25,0.55,0.44,0.5,0.5,0.25,0.55,0.5,0.44,0.28,0.25,0.55,0.33,0.44,0.5,0.28,0.44,0.28,0.28,0.5,0.5,0.25,0.25" style="fill:rgb(0,0,0);font-family:TimesNewRomanPSMT;font-size:12.03px;stroke:none;">Santanello, J.A.; Friedl, M.A. Diurnal covariation in soil heat flux and net radiation. </text>
   <text y="515.28" x="506.939,512.272,515.272,518.2795000000001,520.372,527.714,533.721,539.728,543.064,546.064" svgx:width="0.44,0.25,0.25,0.55,0.61,0.5,0.5,0.28,0.25,0.25" style="fill:rgb(0,0,0);font-family:TimesNewRomanPS-ItalicMT;font-size:12.03px;stroke:none;">J. Appl. </text>
   <text y="532.26" x="72.3,82.321,87.662,91.007,96.349,102.364,107.044" svgx:width="0.83,0.44,0.28,0.44,0.5,0.39,0.25" style="fill:rgb(0,0,0);font-family:TimesNewRomanPS-ItalicMT;font-size:12.03px;stroke:none;">Meteor.</text>
   <text y="532.26" x="110.039" svgx:width="0.25" style="fill:rgb(0,0,0);font-family:TimesNewRomanPSMT;font-size:12.03px;stroke:none;"> </text>
   <text y="532.26" x="113.04,119.04,125.04,131.04" svgx:width="0.5,0.5,0.5,0.5" style="fill:rgb(0,0,0);font-family:TimesNewRomanPS-BoldMT;font-size:12.0px;stroke:none;">2003</text>
   <text y="532.26" x="137.04,140.04" svgx:width="0.25,0.25" style="fill:rgb(0,0,0);font-family:TimesNewRomanPSMT;font-size:12.03px;stroke:none;">, </text>
   <text y="532.26" x="143.04,149.039" svgx:width="0.5,0.5" style="fill:rgb(0,0,0);font-family:TimesNewRomanPS-ItalicMT;font-size:12.03px;stroke:none;">42</text>
   <text y="532.26" x="155.04,158.035,161.035,167.037,173.039,179.041,185.043,191.045,197.047,203.049,206.044" svgx:width="0.25,0.25,0.5,0.5,0.5,0.5,0.5,0.5,0.5,0.25,0.25" style="fill:rgb(0,0,0);font-family:TimesNewRomanPSMT;font-size:12.03px;stroke:none;">, 851–862. </text>
   <text y="549.24" x="49.621,55.621,61.62" svgx:width="0.5,0.5,0.25" style="fill:rgb(0,0,0);font-family:TimesNewRomanPSMT;font-size:12.03px;stroke:none;">16.</text>
   <text y="549.24" x="64.62" svgx:width="0.28" style="fill:rgb(0,0,0);font-family:ArialMT;font-size:12.0px;stroke:none;"> </text>
   <text y="549.24" x="72.3,80.978,86.986,91.659,94.997,100.331,105.004,108.005,111.674,122.896,125.896,132.578,135.579,138.916,142.585,149.928,153.266,156.267,159.936,166.617,169.618,172.956,176.625,181.297,186.632,191.966,197.974,202.647,208.655,214.663,217.664,221.333,228.676,231.677,236.35,239.351,242.689,246.357,253.039,257.038,263.046,268.381,274.389,279.723,283.723,286.724,290.392,295.065,298.066,306.744,309.719,313.059,316.78,327.469,332.806,338.143,344.827,350.837,356.174,360.176,364.851,370.861,376.872,379.875,383.596,388.271,391.274,395.276,398.28,401.62,405.34,416.562,422.562,425.902,431.913,437.249,440.253,443.973,454.662,457.666,461.386,468.732,472.733,476.735,482.072,487.409,490.749,495.424,499.145,505.155,509.157,512.877,516.879,522.216,531.458,537.458,540.798,546.135" svgx:width="0.72,0.5,0.39,0.28,0.44,0.39,0.25,0.25,0.94,0.25,0.56,0.25,0.28,0.25,0.61,0.28,0.25,0.25,0.56,0.25,0.28,0.25,0.39,0.44,0.44,0.5,0.39,0.5,0.5,0.25,0.25,0.61,0.25,0.39,0.25,0.28,0.25,0.56,0.33,0.5,0.44,0.5,0.44,0.33,0.25,0.25,0.39,0.25,0.72,0.25,0.28,0.25,0.89,0.44,0.44,0.56,0.5,0.44,0.33,0.39,0.5,0.5,0.25,0.25,0.39,0.25,0.33,0.25,0.28,0.25,0.94,0.5,0.28,0.5,0.44,0.25,0.25,0.89,0.25,0.25,0.61,0.33,0.33,0.44,0.44,0.28,0.39,0.25,0.5,0.33,0.25,0.33,0.44,0.78,0.5,0.28,0.44,0.25" style="fill:rgb(0,0,0);font-family:TimesNewRomanPSMT;font-size:12.03px;stroke:none;">Kustas, W.P.; Li, F.; Jackson, T.J.; Prueger, J.H.; MacPherson, J.I.; Wolde, M. Effects of remote </text>
   <text y="566.22" x="72.3,76.975,82.312,88.323,92.998,96.338,102.349,108.359,111.36649999999999,112.68,118.69,122.03,128.041,133.377,136.718,139.72549999999998,141.038,145.04,150.377,155.052,161.063,164.403,170.413,173.753,177.094,183.104,189.115,192.1225,193.435,199.445,205.456,208.46349999999998,209.776,219.019,225.029,231.04,236.377,239.717,245.054,251.064,254.0715,255.385,260.721,266.732,272.069,276.07,282.081,288.091,291.0985,292.5,296.459,299.821,305.834,311.847,314.8545,316.226,322.239,327.578,331.583,334.925,340.264,346.277,349.62,352.963,356.305,359.648,365.661,368.6685,370.04,376.053,380.013,383.02049999999997,384.392,389.731,393.735,399.748,405.761,409.104,414.443,420.456,426.469,431.146,434.1535,435.526,438.868,444.881,447.88849999999996,449.261,453.265,459.278,467.915,473.257,476.263" svgx:width="0.39,0.44,0.5,0.39,0.28,0.5,0.5,0.25,0.55,0.5,0.28,0.5,0.44,0.28,0.25,0.55,0.33,0.44,0.39,0.5,0.28,0.5,0.28,0.28,0.5,0.5,0.25,0.55,0.5,0.5,0.25,0.55,0.78,0.5,0.5,0.44,0.28,0.44,0.5,0.25,0.55,0.44,0.5,0.44,0.33,0.5,0.5,0.25,0.55,0.33,0.28,0.5,0.5,0.25,0.55,0.5,0.44,0.33,0.28,0.44,0.5,0.28,0.28,0.28,0.28,0.5,0.25,0.55,0.5,0.33,0.25,0.55,0.44,0.33,0.5,0.5,0.28,0.44,0.5,0.5,0.39,0.25,0.55,0.28,0.5,0.25,0.55,0.33,0.5,0.72,0.44,0.25,0.25" style="fill:rgb(0,0,0);font-family:TimesNewRomanPSMT;font-size:12.03px;stroke:none;">sensing pixel resolution on modeled energy flux variability of croplands in Iowa. </text>
   <text y="566.22" x="480.659,487.998,493.329,502.004,508.008,511.342,516.673,519.6805,521.053,527.057,532.388,538.393,543.062,546.059" svgx:width="0.61,0.44,0.72,0.5,0.28,0.44,0.25,0.55,0.5,0.44,0.5,0.39,0.25,0.25" style="fill:rgb(0,0,0);font-family:TimesNewRomanPS-ItalicMT;font-size:12.03px;stroke:none;">Remote Sens. </text>
   <text y="583.2" x="72.3,79.641,85.646,90.978,94.314,98.984,104.99,110.996" svgx:width="0.61,0.5,0.44,0.28,0.39,0.5,0.5,0.25" style="fill:rgb(0,0,0);font-family:TimesNewRomanPS-ItalicMT;font-size:12.03px;stroke:none;">Environ.</text>
   <text y="583.2" x="114.0" svgx:width="0.25" style="fill:rgb(0,0,0);font-family:TimesNewRomanPSMT;font-size:12.03px;stroke:none;"> </text>
   <text y="583.2" x="117.0,123.0,129.0,135.0" svgx:width="0.5,0.5,0.5,0.5" style="fill:rgb(0,0,0);font-family:TimesNewRomanPS-BoldMT;font-size:12.0px;stroke:none;">2004</text>
   <text y="583.2" x="141.0,144.0" svgx:width="0.25,0.25" style="fill:rgb(0,0,0);font-family:TimesNewRomanPSMT;font-size:12.03px;stroke:none;">, </text>
   <text y="583.2" x="147.0,152.999" svgx:width="0.5,0.5" style="fill:rgb(0,0,0);font-family:TimesNewRomanPS-ItalicMT;font-size:12.03px;stroke:none;">92</text>
   <text y="583.2" x="159.0,161.997,164.997,171.002,177.006,183.011,187.006,193.011,199.015,205.02,208.017" svgx:width="0.25,0.25,0.5,0.5,0.5,0.33,0.5,0.5,0.5,0.25,0.25" style="fill:rgb(0,0,0);font-family:TimesNewRomanPSMT;font-size:12.03px;stroke:none;">, 535-547. </text>
   <text y="600.18" x="49.62,55.62,61.619" svgx:width="0.5,0.5,0.25" style="fill:rgb(0,0,0);font-family:TimesNewRomanPSMT;font-size:12.03px;stroke:none;">17.</text>
   <text y="600.18" x="64.62" svgx:width="0.28" style="fill:rgb(0,0,0);font-family:ArialMT;font-size:12.0px;stroke:none;"> </text>
   <text y="600.18" x="72.3,80.326,85.67,89.018,93.027,98.371,101.382,104.3895,109.722,118.359,121.359,124.706,127.7135,133.047,137.056,141.738,145.086,150.43,159.672,162.672,165.6795,171.012,177.703,180.714,184.062,187.0695,192.402,201.039,206.381,212.399,215.746,221.764,225.773,229.12,235.138,238.485,241.496,244.5035,249.836,258.473,261.473,264.821,267.8285,273.161,281.187,284.535,289.217,295.235,298.582,301.499,304.5065,309.813,318.494,321.497,324.837,327.8445,333.151,337.826,341.167,346.503,352.514,358.524,361.528,364.5355,369.842,374.517,377.52,380.5275,385.834,393.18,397.855,401.195,404.535,413.778,419.115,422.455,425.795,431.805,437.816,440.82349999999997,446.13,451.467,457.477,463.487,466.4945,471.801,477.138,483.149,492.391,498.391,503.727,507.729,511.069,515.745,521.755,527.766,530.7735,536.079,542.09,546.092" svgx:width="0.67,0.44,0.28,0.33,0.44,0.25,0.25,0.55,0.72,0.25,0.28,0.25,0.55,0.33,0.39,0.28,0.44,0.78,0.25,0.25,0.55,0.56,0.25,0.28,0.25,0.55,0.72,0.44,0.5,0.28,0.5,0.33,0.28,0.5,0.28,0.25,0.25,0.55,0.72,0.25,0.28,0.25,0.55,0.67,0.28,0.39,0.5,0.28,0.25,0.25,0.55,0.72,0.25,0.28,0.25,0.55,0.39,0.28,0.44,0.5,0.5,0.25,0.25,0.55,0.39,0.25,0.25,0.55,0.61,0.39,0.28,0.28,0.78,0.44,0.28,0.28,0.5,0.5,0.25,0.55,0.44,0.5,0.5,0.25,0.55,0.44,0.5,0.78,0.5,0.44,0.33,0.28,0.39,0.5,0.5,0.25,0.55,0.5,0.33,0.25" style="fill:rgb(0,0,0);font-family:TimesNewRomanPSMT;font-size:12.03px;stroke:none;">Batra, N.; Islam, S.; Venturini, V.; Bisht, G.; Jiang, J. Estimation and comparison of </text>
   <text y="617.16" x="72.3,77.633,83.64,88.973,94.98,100.987,104.324,108.322,113.655,119.662,124.334,130.34,133.677,137.675,143.008,146.345,149.682,155.688,161.695,165.175,169.173,173.171,179.178,188.421,191.9,202.586,211.263,219.94,223.938,230.619,234.12,239.448,245.451,251.453,254.932,263.605,272.277,280.949,288.96,296.971,300.45,305.117,310.446,316.448,321.115,327.117,331.11,335.777,339.257,343.25,349.252,353.245,356.725,362.053,365.385,370.714,376.042,380.035,383.515,388.182,394.184,400.186,403.739,409.75,415.086,421.097,425.772,429.312,435.322,441.333,446.67,450.672,454.211,457.552,463.562,468.899,472.439,479.123,485.133,491.144,494.484,500.494,505.831,509.833,515.843,519.383,528.064,532.066,537.403,542.739,546.08" svgx:width="0.44,0.5,0.44,0.5,0.5,0.28,0.33,0.44,0.5,0.39,0.5,0.28,0.33,0.44,0.28,0.28,0.5,0.5,0.25,0.33,0.33,0.5,0.78,0.25,0.89,0.72,0.72,0.33,0.56,0.25,0.44,0.5,0.5,0.25,0.72,0.72,0.72,0.67,0.67,0.25,0.39,0.44,0.5,0.39,0.5,0.33,0.39,0.25,0.33,0.5,0.33,0.25,0.44,0.28,0.44,0.44,0.33,0.25,0.39,0.5,0.5,0.25,0.5,0.44,0.5,0.39,0.25,0.5,0.5,0.44,0.33,0.25,0.28,0.5,0.44,0.25,0.56,0.5,0.5,0.28,0.5,0.44,0.33,0.5,0.25,0.72,0.33,0.44,0.44,0.28,0.25" style="fill:rgb(0,0,0);font-family:TimesNewRomanPSMT;font-size:12.03px;stroke:none;">evapotranspiration from MODIS and AVHRR sensors for clear sky days over the Southern Great </text>
   <text y="634.14" x="72.3,78.985,82.327,87.665,91.006,97.018,101.694,104.699" svgx:width="0.56,0.28,0.44,0.28,0.5,0.39,0.25,0.25" style="fill:rgb(0,0,0);font-family:TimesNewRomanPSMT;font-size:12.03px;stroke:none;">Plains. </text>
   <text y="634.14" x="107.7,115.041,120.373,129.049,135.054,138.39,143.722,146.721,152.727,158.059,164.065,168.735,171.734,174.734,182.074,188.08,193.412,196.748,201.418,207.424,213.429,216.428" svgx:width="0.61,0.44,0.72,0.5,0.28,0.44,0.25,0.5,0.44,0.5,0.39,0.25,0.25,0.61,0.5,0.44,0.28,0.39,0.5,0.5,0.25,0.25" style="fill:rgb(0,0,0);font-family:TimesNewRomanPS-ItalicMT;font-size:12.03px;stroke:none;">Remote Sens. Environ. </text>
   <text y="634.14" x="219.42,225.42,231.42,237.42" svgx:width="0.5,0.5,0.5,0.5" style="fill:rgb(0,0,0);font-family:TimesNewRomanPS-BoldMT;font-size:12.0px;stroke:none;">2006</text>
   <text y="634.14" x="243.42,246.42" svgx:width="0.25,0.25" style="fill:rgb(0,0,0);font-family:TimesNewRomanPSMT;font-size:12.03px;stroke:none;">, </text>
   <text y="634.14" x="249.42,255.419,261.419" svgx:width="0.5,0.5,0.5" style="fill:rgb(0,0,0);font-family:TimesNewRomanPS-ItalicMT;font-size:12.03px;stroke:none;">103</text>
   <text y="634.14" x="267.42,270.419,273.419,279.42,286.2,292.202,298.204,301.199" svgx:width="0.25,0.25,0.5,0.56,0.5,0.5,0.25,0.25" style="fill:rgb(0,0,0);font-family:TimesNewRomanPSMT;font-size:12.03px;stroke:none;">, 1−15. </text>
   <text y="651.12" x="49.621,55.62,61.62" svgx:width="0.5,0.5,0.25" style="fill:rgb(0,0,0);font-family:TimesNewRomanPSMT;font-size:12.03px;stroke:none;">18.</text>
   <text y="651.12" x="64.62" svgx:width="0.28" style="fill:rgb(0,0,0);font-family:ArialMT;font-size:12.0px;stroke:none;"> </text>
   <text y="651.12" x="72.3,79.642,85.649,90.982,96.989,102.996,105.996,109.00349999999999,111.816,119.831,122.831,125.8385,128.652,135.994,142.0,148.007,153.341,157.339,160.675,169.918,175.259,181.266,184.603,189.936,193.273,196.2805,199.093,207.109,212.442,221.684,227.684,231.02,236.354,239.3615,242.16,248.84,254.173,260.18,264.852,268.188,274.195,280.202,283.2095,285.977,296.663,302.669,308.676,314.009,317.346,320.683,326.69,332.696,335.7035,338.471,343.804,349.811,355.818,358.8255,361.593,368.273,374.28,378.278,382.276,387.609,392.943,398.276,401.2835,404.051,410.731,416.738,422.745,428.752,434.758,440.092,443.428,446.765,452.772,458.779,463.45,466.45" svgx:width="0.61,0.5,0.44,0.5,0.5,0.25,0.25,0.55,0.67,0.25,0.25,0.55,0.61,0.5,0.5,0.44,0.33,0.28,0.78,0.44,0.5,0.28,0.44,0.28,0.25,0.55,0.67,0.44,0.78,0.5,0.28,0.44,0.25,0.55,0.56,0.44,0.5,0.39,0.28,0.5,0.5,0.25,0.55,0.89,0.5,0.5,0.44,0.28,0.28,0.5,0.5,0.25,0.55,0.44,0.5,0.5,0.25,0.55,0.56,0.5,0.33,0.33,0.44,0.44,0.44,0.25,0.55,0.56,0.5,0.5,0.5,0.5,0.44,0.28,0.28,0.5,0.5,0.39,0.25,0.25" style="fill:rgb(0,0,0);font-family:TimesNewRomanPSMT;font-size:12.03px;stroke:none;">Zhang, R. Experimental Remote Sensing Modeling and Surface Foundations. </text>
   <text y="651.12" x="472.199,478.21,483.547,486.887,492.224,498.234,503.571,508.908,513.583,516.5905,519.344,526.689,531.364,536.701,541.377" svgx:width="0.5,0.44,0.28,0.44,0.5,0.44,0.44,0.39,0.25,0.55,0.61,0.39,0.44,0.39,0.39" style="fill:rgb(0,0,0);font-family:TimesNewRomanPS-ItalicMT;font-size:12.03px;stroke:none;">Sciences Press</text>
   <text y="651.12" x="546.059" svgx:width="0.25" style="fill:rgb(0,0,0);font-family:TimesNewRomanPSMT;font-size:12.03px;stroke:none;"> </text>
   <text y="668.1" x="72.301,80.317,85.65,88.987,92.323,95.66,101.667,107.673,110.673,113.673,119.68,125.687,131.694,137.7,140.7" svgx:width="0.67,0.44,0.28,0.28,0.28,0.5,0.5,0.25,0.25,0.5,0.5,0.5,0.5,0.25,0.25" style="fill:rgb(0,0,0);font-family:TimesNewRomanPSMT;font-size:12.03px;stroke:none;">Beijing, 1996. </text>
   <text y="685.08" x="49.621,55.621,61.62" svgx:width="0.5,0.5,0.25" style="fill:rgb(0,0,0);font-family:TimesNewRomanPSMT;font-size:12.03px;stroke:none;">19.</text>
   <text y="685.08" x="64.62" svgx:width="0.28" style="fill:rgb(0,0,0);font-family:ArialMT;font-size:12.0px;stroke:none;"> </text>
   <text y="685.08" x="70.62,78.638,82.638,88.648,91.987,96.661,101.996,107.332,111.333,114.672,117.674,120.774,131.996,134.996,138.095,146.775,152.784,155.884,161.219,164.319,170.328,175.664,179.664,183.003,189.013,194.348,200.357,203.696,209.032,212.132,216.132,222.142,226.142,235.384,241.394,244.733,250.068,253.168,257.169,263.16,267.164,270.284,273.627,279.64,285.652,291.665,295.669,304.352,309.692,315.705,321.044,324.164,328.168,333.507,339.52,342.863,348.202,351.545,354.887,360.9,366.913,370.033,374.037,378.041,384.054,393.297,396.417,401.756,405.099,410.438,415.777,419.781,422.901,427.579,433.592,436.935,442.274,446.952,449.957" svgx:width="0.67,0.33,0.5,0.28,0.39,0.44,0.44,0.33,0.28,0.25,0.25,0.94,0.25,0.25,0.72,0.5,0.25,0.44,0.25,0.5,0.44,0.33,0.28,0.5,0.44,0.5,0.28,0.44,0.25,0.33,0.5,0.33,0.78,0.5,0.28,0.44,0.25,0.33,0.5,0.33,0.25,0.28,0.5,0.5,0.5,0.33,0.72,0.44,0.5,0.44,0.25,0.33,0.44,0.5,0.28,0.44,0.28,0.28,0.5,0.5,0.25,0.33,0.33,0.5,0.78,0.25,0.44,0.28,0.44,0.44,0.33,0.25,0.39,0.5,0.28,0.44,0.39,0.25,0.25" style="fill:rgb(0,0,0);font-family:TimesNewRomanPSMT;font-size:12.03px;stroke:none;">Brutsaert. W. On a derivable formula for long-wave radiation from clear skies. </text>
   <text y="685.08" x="453.059,463.073,469.081,472.419,477.753,482.426,485.546,492.889,498.224,502.897,508.905,514.913,519.586,522.587,525.707,533.05,538.384,543.057" svgx:width="0.83,0.5,0.28,0.44,0.39,0.25,0.61,0.44,0.39,0.5,0.5,0.39,0.25,0.25,0.61,0.44,0.39,0.25" style="fill:rgb(0,0,0);font-family:TimesNewRomanPS-ItalicMT;font-size:12.03px;stroke:none;">Water Resour. Res.</text>
   <text y="685.08" x="546.06" svgx:width="0.25" style="fill:rgb(0,0,0);font-family:TimesNewRomanPSMT;font-size:12.03px;stroke:none;"> </text>
   <text y="702.06" x="70.62,76.62,82.62,88.62" svgx:width="0.5,0.5,0.5,0.5" style="fill:rgb(0,0,0);font-family:TimesNewRomanPS-BoldMT;font-size:12.0px;stroke:none;">1975</text>
   <text y="702.06" x="94.62,97.62" svgx:width="0.25,0.25" style="fill:rgb(0,0,0);font-family:TimesNewRomanPSMT;font-size:12.03px;stroke:none;">, </text>
   <text y="702.06" x="100.62,106.619" svgx:width="0.5,0.5" style="fill:rgb(0,0,0);font-family:TimesNewRomanPS-ItalicMT;font-size:12.03px;stroke:none;">11</text>
   <text y="702.06" x="112.62,115.615,118.615,124.617,130.619,136.621,142.623,148.625,154.627,160.629,163.624" svgx:width="0.25,0.25,0.5,0.5,0.5,0.5,0.5,0.5,0.5,0.25,0.25" style="fill:rgb(0,0,0);font-family:TimesNewRomanPSMT;font-size:12.03px;stroke:none;">, 742–744. </text>
   <text y="719.04" x="49.62,55.62,61.62" svgx:width="0.5,0.5,0.25" style="fill:rgb(0,0,0);font-family:TimesNewRomanPSMT;font-size:12.03px;stroke:none;">20.</text>
   <text y="719.04" x="64.62" svgx:width="0.28" style="fill:rgb(0,0,0);font-family:ArialMT;font-size:12.0px;stroke:none;"> </text>
   <text y="719.04" x="72.3,79.637,85.639,90.968,96.97,102.972,105.967,109.341,117.351,120.346,129.018,132.013,135.345,138.719,145.395,151.397,157.399,160.394,163.768,172.44,175.435,186.116,189.111,192.443,195.817,203.154,209.156,215.158,218.153,221.527,228.864,231.859,239.196,242.191,245.523,248.897,255.572,261.574,264.569,267.943,276.615,279.61,287.621,290.616,293.948,297.322,304.659,309.899,315.906,321.913,324.913,328.333,337.01,340.009,347.351,350.351,353.771,362.448,365.867,369.866,375.199,384.441,390.441,393.777,399.111,402.53,407.202,412.535,418.542,423.214,426.55,432.557,438.564,441.984,451.226,457.233,463.24,468.573,471.91,475.329,479.327,485.334,489.332,492.752,501.994,508.001,514.008,517.345,520.681,526.688,530.686,534.023,540.03,546.036" svgx:width="0.61,0.5,0.44,0.5,0.5,0.25,0.25,0.67,0.25,0.72,0.25,0.28,0.25,0.56,0.5,0.5,0.25,0.25,0.72,0.25,0.89,0.25,0.28,0.25,0.61,0.5,0.5,0.25,0.25,0.61,0.25,0.61,0.25,0.28,0.25,0.56,0.5,0.25,0.25,0.72,0.25,0.67,0.25,0.28,0.25,0.61,0.44,0.5,0.5,0.25,0.25,0.72,0.25,0.61,0.25,0.25,0.72,0.25,0.33,0.44,0.78,0.5,0.28,0.44,0.25,0.39,0.44,0.5,0.39,0.28,0.5,0.5,0.25,0.78,0.5,0.5,0.44,0.28,0.25,0.33,0.5,0.33,0.25,0.78,0.5,0.5,0.28,0.28,0.5,0.33,0.28,0.5,0.5,0.25" style="fill:rgb(0,0,0);font-family:TimesNewRomanPSMT;font-size:12.03px;stroke:none;">Zhang, R.H.; Sun, X.M.; Zhu, Z.L.; Su, H.B.; Tang, X.Z. A remote sensing model for monitoring </text>
   <text y="736.02" x="72.3,76.98,82.995,86.34,89.685,93.585,98.927,104.942,110.284,116.299,122.314,126.321,131.662,135.007,138.352,144.368,150.383,154.282,160.298,165.639,170.319,175.661,181.676,185.576,191.591,197.606,201.506,207.521,210.866,214.826,218.785,224.127,228.134,233.475,239.491,242.836,246.181,251.522,254.867,258.767,262.112,268.127,273.469,277.475,286.718,292.059,295.404,299.304,302.649,308.664,314.006,318.012,321.357,324.702,330.044,333.944,339.285,345.301,351.316,355.215,358.56,361.905,366.585,370.485,376.5,381.842,385.187,388.532,394.547,399.889,403.234,406.579,412.594,418.609,421.618" svgx:width="0.39,0.5,0.28,0.28,0.25,0.44,0.5,0.44,0.5,0.5,0.33,0.44,0.28,0.28,0.5,0.5,0.25,0.5,0.44,0.39,0.44,0.5,0.25,0.5,0.5,0.25,0.5,0.28,0.33,0.33,0.44,0.33,0.44,0.5,0.28,0.28,0.44,0.28,0.25,0.28,0.5,0.44,0.33,0.78,0.44,0.28,0.25,0.28,0.5,0.44,0.33,0.28,0.28,0.44,0.25,0.44,0.5,0.5,0.25,0.28,0.28,0.39,0.25,0.5,0.44,0.28,0.28,0.5,0.44,0.28,0.28,0.5,0.5,0.25,0.25" style="fill:rgb(0,0,0);font-family:TimesNewRomanPSMT;font-size:12.03px;stroke:none;">soil evaporation based on differential thermal inertia and its validation. </text>
   <text y="736.02" x="425.518,431.52,436.849,440.181,443.176,446.1835,447.135,455.146,461.148,464.48,470.482,476.484,479.4915,480.443,486.445,491.774,496.441,499.436,502.4435,503.396,512.068" svgx:width="0.5,0.44,0.28,0.25,0.25,0.55,0.67,0.5,0.28,0.5,0.5,0.25,0.55,0.5,0.44,0.39,0.25,0.25,0.55,0.72,0.25" style="fill:rgb(0,0,0);font-family:TimesNewRomanPS-ItalicMT;font-size:12.03px;stroke:none;">Sci. China Ser. D.</text>
   <text y="736.02" x="515.098" svgx:width="0.25" style="fill:rgb(0,0,0);font-family:TimesNewRomanPSMT;font-size:12.03px;stroke:none;"> </text>
   <text y="736.02" x="519.06,525.06,531.06,537.06" svgx:width="0.5,0.5,0.5,0.5" style="fill:rgb(0,0,0);font-family:TimesNewRomanPS-BoldMT;font-size:12.0px;stroke:none;">2003</text>
   <text y="736.02" x="543.06,546.06" svgx:width="0.25,0.25" style="fill:rgb(0,0,0);font-family:TimesNewRomanPSMT;font-size:12.03px;stroke:none;">, </text>
   <text y="753.0" x="72.302,78.301" svgx:width="0.5,0.5" style="fill:rgb(0,0,0);font-family:TimesNewRomanPS-ItalicMT;font-size:12.03px;stroke:none;">46</text>
   <text y="753.0" x="84.302,87.297,90.297,96.299,102.301,108.302,116.821,122.822,128.823,134.824,137.818" svgx:width="0.25,0.25,0.5,0.5,0.5,0.71,0.5,0.5,0.5,0.25,0.25" style="fill:rgb(0,0,0);font-family:TimesNewRomanPSMT;font-size:12.03px;stroke:none;">, 344─355. </text>
   <text y="769.98" x="49.622,55.621,61.621" svgx:width="0.5,0.5,0.25" style="fill:rgb(0,0,0);font-family:TimesNewRomanPSMT;font-size:12.03px;stroke:none;">21.</text>
   <text y="769.98" x="64.62" svgx:width="0.28" style="fill:rgb(0,0,0);font-family:ArialMT;font-size:12.0px;stroke:none;"> </text>
   <text y="769.98" x="72.3,80.978,84.316,90.324,93.325,97.199,105.878,108.879,117.557,120.558,123.896,127.77,134.452,140.46,143.797,146.798,150.673,157.354,160.355,165.028,168.029,171.367,175.241,186.464,191.805,197.813,203.821,206.822,210.697,218.04,221.041,231.728,234.729,238.603,245.946,251.954,257.289,263.297,267.296,272.63,275.968,279.306,284.64,289.975,293.313,297.187,302.521,308.529,313.864,317.16,323.175,327.855,331.2,335.88,339.78,345.795,349.755,353.654,358.996,362.895,366.902,372.244,381.486,387.486,390.831,396.172,399.517,405.533,409.432,418.674,424.016,429.358,434.038,440.053,444.06,449.401,455.417,458.762,464.103,468.003,472.683,478.698,482.043,485.388,489.288,494.629,500.645,505.986,512.002,518.017,522.023,527.365,530.71,534.055,540.07,546.086" svgx:width="0.72,0.28,0.5,0.25,0.25,0.72,0.25,0.72,0.25,0.28,0.25,0.56,0.5,0.28,0.25,0.25,0.56,0.25,0.39,0.25,0.28,0.25,0.94,0.44,0.5,0.5,0.25,0.25,0.61,0.25,0.89,0.25,0.25,0.61,0.5,0.44,0.5,0.33,0.44,0.28,0.28,0.44,0.44,0.28,0.25,0.44,0.5,0.44,0.28,0.5,0.39,0.28,0.39,0.25,0.5,0.33,0.25,0.44,0.25,0.33,0.44,0.78,0.5,0.28,0.44,0.28,0.5,0.25,0.78,0.44,0.44,0.39,0.5,0.33,0.44,0.5,0.28,0.44,0.25,0.39,0.5,0.28,0.28,0.25,0.44,0.5,0.44,0.5,0.5,0.33,0.44,0.28,0.28,0.5,0.5,0.25" style="fill:rgb(0,0,0);font-family:TimesNewRomanPSMT;font-size:12.03px;stroke:none;">Qiu, G.Y.; Shi, P.J.; Wang, L.M. Theoretical analysis of a remotely measurable soil evaporation </text>
   <text y="786.96" x="72.3,75.64,79.642,84.979,90.989,95.665,99.666,105.003,109.005,112.005,117.342,123.352,128.689,132.691,136.692,140.033,145.37,148.71,154.047,160.057,163.397,166.401" svgx:width="0.28,0.33,0.44,0.5,0.39,0.33,0.44,0.33,0.25,0.44,0.5,0.44,0.33,0.33,0.28,0.44,0.28,0.44,0.5,0.28,0.25,0.25" style="fill:rgb(0,0,0);font-family:TimesNewRomanPSMT;font-size:12.03px;stroke:none;">transfer coefficient. </text>
   <text y="786.96" x="169.38,176.721,182.053,190.729,196.734,200.07,205.402,208.402,214.407,219.739,225.745,230.415,233.414,236.414,243.755,249.76,255.092,258.428,263.098,269.104,275.109,278.108" svgx:width="0.61,0.44,0.72,0.5,0.28,0.44,0.25,0.5,0.44,0.5,0.39,0.25,0.25,0.61,0.5,0.44,0.28,0.39,0.5,0.5,0.25,0.25" style="fill:rgb(0,0,0);font-family:TimesNewRomanPS-ItalicMT;font-size:12.03px;stroke:none;">Remote Sens. Environ. </text>
   <text y="786.96" x="281.1,287.1,293.1,299.1" svgx:width="0.5,0.5,0.5,0.5" style="fill:rgb(0,0,0);font-family:TimesNewRomanPS-BoldMT;font-size:12.0px;stroke:none;">2006</text>
   <text y="786.96" x="305.1,308.1" svgx:width="0.25,0.25" style="fill:rgb(0,0,0);font-family:TimesNewRomanPSMT;font-size:12.03px;stroke:none;">, </text>
   <text y="786.96" x="311.1,317.099,323.099" svgx:width="0.5,0.5,0.5" style="fill:rgb(0,0,0);font-family:TimesNewRomanPS-ItalicMT;font-size:12.03px;stroke:none;">101</text>
   <text y="786.96" x="329.1,332.097,338.102,344.106,350.11,354.106,360.111,366.115,372.119,375.117" svgx:width="0.25,0.5,0.5,0.5,0.33,0.5,0.5,0.5,0.25,0.25" style="fill:rgb(0,0,0);font-family:TimesNewRomanPSMT;font-size:12.03px;stroke:none;">,390-398. </text>
  </g>
 </g>
</svg>
