<?xml version="1.0" encoding="UTF-8"?>
<svg height="767.08" width="4046.0" xmlns="http://www.w3.org/2000/svg">
 <g id="page" xmlns:svgx="http://www.xml-cml.org/schema/svgx">
  <path style="fill:rgb(59,90,166);stroke:none;stroke-width:1.0;" d="M551.110 297.130 L560.690 297.130 Z"/>
  <path style="fill:rgb(59,90,166);stroke:none;stroke-width:1.0;" d="M200.010 310.170 L214.640 310.170 Z"/>
  <g begin="text">
   <text y="84.586" x="200.012,208.193,212.522,215.503,218.482,222.712,226.423,228.723,230.91,235.969,239.68,244.74,250.219,254.449,259.719,264.99,268.589,270.889,273.089,276.689,281.958,287.018,291.249,296.518,299.499,303.828,309.309,313.539,318.599,323.868,327.468,329.781,332.651,336.982,339.961,343.352,345.652,347.81,353.909,359.18,363.409,367.01,371.31,373.492,377.721,380.182,384.512,388.112,391.712,395.942,399.54200000000003,401.781,406.01,410.341,415.841,418.052,423.112,427.41200000000003,429.56,433.271,437.5,439.961,444.291,447.271,451.501,456.801,458.984,461.964,467.064,469.245,472.844,478.115,481.825,486.465,490.695,494.405,498.945,502.445,506.045,511.205,515.435,519.665,522.325,525.195,527.855,532.155,534.442,540.021,551.11,556.38,561.44,565.04,569.27,572.87" svgx:width="0.82,0.44,0.3,0.3,0.43,0.38,0.23,0.55,0.51,0.38,0.51,0.55,0.43,0.53,0.53,0.36,0.23,0.55,0.36,0.53,0.51,0.43,0.53,0.3,0.44,0.55,0.43,0.51,0.53,0.36,0.55,0.29,0.44,0.3,0.34,0.23,0.55,0.61,0.53,0.43,0.36,0.43,0.55,0.43,0.25,0.44,0.36,0.36,0.43,0.36,0.55,0.43,0.44,0.55,0.55,0.51,0.43,0.55,0.38,0.43,0.25,0.44,0.3,0.43,0.53,0.55,0.3,0.51,0.55,0.36,0.53,0.38,0.47,0.43,0.38,0.46,0.35,0.36,0.52,0.43,0.43,0.27,0.29,0.27,0.43,0.55,0.56,0.89,0.53,0.51,0.36,0.43,0.36,0.23" style="fill:rgb(0,0,0);font-family:MinionPro-Regular;font-size:10.0px;stroke:none;">matter, bronchus, subcutaneous fat). These classes can be related to surgery-specific PMdoses.</text>
   <text y="97.625" x="200.013,206.113,211.383,215.613,219.213,223.513,225.694,229.404,233.634,237.234,242.504,244.964,247.944,251.54399999999998,253.757,258.087,261.797,266.09700000000004,268.27,273.33,276.22999999999996,278.418,282.648,285.108,287.768,293.248,295.908,300.138,304.468,306.968,309.146,311.806,319.986,325.146,330.206,333.916,336.896,341.226,346.706,350.936,355.236,357.448,360.318,365.378,369.178,371.337,374.317,379.587,383.887,386.021,391.181,394.891,399.951,402.931,407.161,411.391,414.371,417.031,421.571,425.87100000000004,428.087,436.267,440.497,444.827,448.427,453.697,457.407,461.637,465.237,467.488,472.758,476.358,480.588,485.88800000000003,488.067,493.127,497.72700000000003,499.916,503.516,508.786,512.496,517.136,521.366,526.426,531.906,535.506,537.729,542.06,547.539,552.8389999999999,555.021,562.48" svgx:width="0.61,0.53,0.43,0.36,0.43,0.55,0.38,0.43,0.36,0.53,0.25,0.3,0.36,0.55,0.44,0.38,0.43,0.55,0.51,0.29,0.55,0.43,0.25,0.27,0.55,0.27,0.43,0.44,0.25,0.55,0.27,0.82,0.52,0.51,0.38,0.3,0.44,0.55,0.43,0.43,0.55,0.29,0.51,0.38,0.55,0.3,0.53,0.43,0.55,0.52,0.38,0.51,0.3,0.43,0.43,0.3,0.27,0.46,0.43,0.55,0.82,0.43,0.44,0.36,0.53,0.38,0.43,0.36,0.55,0.53,0.36,0.43,0.53,0.55,0.51,0.46,0.55,0.36,0.53,0.38,0.47,0.43,0.51,0.55,0.36,0.55,0.44,0.55,0.53,0.55,0.75,0.63" style="fill:rgb(0,0,0);font-family:MinionPro-Regular;font-size:10.0px;stroke:none;">These results are of clinical importance for the protective measures used by surgeons and OR</text>
   <text y="110.607" x="200.012,203.613,206.592,210.923,213.792,216.692,218.891,225.72,230.99,236.09,238.279,242.509,250.689,255.849,258.31,263.37,267.97,270.141,274.37,276.831,281.06,285.29,288.271,291.98,297.04,300.641,305.911,309.621,314.26,318.491,322.201,326.80100000000004,329.044,333.275,337.914,340.895,345.125,350.604,354.205,356.865,361.404,365.635,368.094,372.635,374.935,377.177,386.817,391.117,393.276,396.987,401.216,405.447,410.507,418.687,426.867,431.097,436.577,441.877,444.073,447.674,455.854,460.914,465.874,470.17400000000004,472.364,476.594,481.134,485.464,489.694,494.964,499.294,502.274,504.934,509.994,515.494,517.773,522.104,527.584,532.8839999999999,535.066,540.226,544.555,548.266,551.245,553.905,558.135,563.405" svgx:width="0.36,0.3,0.44,0.29,0.29,0.55,0.69,0.53,0.51,0.55,0.43,0.82,0.52,0.25,0.51,0.46,0.55,0.43,0.25,0.43,0.43,0.3,0.38,0.51,0.36,0.53,0.38,0.47,0.43,0.38,0.46,0.55,0.43,0.47,0.3,0.43,0.55,0.36,0.27,0.46,0.43,0.25,0.46,0.23,0.55,0.97,0.43,0.55,0.38,0.43,0.43,0.51,0.82,0.82,0.43,0.55,0.53,0.55,0.36,0.82,0.51,0.5,0.43,0.55,0.43,0.46,0.44,0.43,0.53,0.44,0.3,0.27,0.51,0.55,0.55,0.44,0.55,0.53,0.55,0.52,0.44,0.38,0.3,0.27,0.43,0.53,0.35" style="fill:rgb(0,0,0);font-family:MinionPro-Regular;font-size:10.0px;stroke:none;">staff who employ electrosurgery extensively. We recommend smoke evacuation and particu-</text>
   <text y="123.59" x="200.013,202.473,206.803,209.783,214.083,216.227,219.097,221.757,224.217,227.197,230.907,235.237,238.217,240.877,245.937,251.437,253.7,261.88,266.21,269.81,274.77,278.37,280.67,282.84,287.07,290.67,295.83,300.06,304.29,306.95,311.28,313.74,316.2,320.8,323.035,325.905,330.965,334.765,336.868,342.138,344.798,349.438,354.708,358.208,363.788,374.966,379.296,384.776,390.076,392.314,400.494,404.724,409.994,412.654,417.924,426.104,429.604,435.184,446.342,449.322,451.982,455.582,459.182,464.452,468.752,470.945,474.546,479.816,483.526,488.166,492.396,496.106,500.646,502.946,505.132,514.042,519.102,522.812,527.112,529.283,532.883,535.863,541.133,546.403,549.063,553.293,556.893,559.16,564.22" svgx:width="0.25,0.44,0.3,0.43,0.55,0.29,0.27,0.25,0.3,0.38,0.44,0.3,0.27,0.51,0.55,0.55,0.82,0.44,0.36,0.5,0.36,0.23,0.55,0.43,0.36,0.52,0.43,0.43,0.27,0.44,0.25,0.25,0.46,0.55,0.29,0.51,0.38,0.55,0.53,0.27,0.47,0.53,0.35,0.56,0.89,0.44,0.55,0.53,0.55,0.82,0.43,0.53,0.27,0.53,0.82,0.35,0.56,0.89,0.3,0.27,0.36,0.36,0.53,0.43,0.55,0.36,0.53,0.38,0.47,0.43,0.38,0.46,0.23,0.55,0.89,0.51,0.38,0.43,0.55,0.36,0.3,0.53,0.53,0.27,0.43,0.36,0.55,0.51,0.55" style="fill:rgb(0,0,0);font-family:MinionPro-Regular;font-size:10.0px;stroke:none;">late filtration masks, especially for high-PMand medium-PMtissue surgery. More studies on</text>
   <text y="136.573" x="200.013,203.613,211.793,216.853,221.813,226.113,228.302,233.462,237.172,242.232,247.502,252.772,257.002,259.982,262.642,267.702,273.202,275.414,279.744,285.224,290.524,292.705,300.885,305.215,308.815,313.815,316.062,320.292,323.162,326.032,328.692,332.922,335.582,339.812,345.292,349.522,354.122,356.314,360.644,364.354,368.654,370.827,374.427,377.407,380.067,382.527,385.027,387.211,392.691,396.921,401.151,406.421,410.651,415.951,418.165,420.825,426.325,428.484,433.544,437.254,442.524,446.754,450.55400000000003,452.691,455.671,460.771,462.953,468.113,471.823,476.883,482.153,487.423,491.653,495.95300000000003,498.159,502.699,506.929,509.929,512.104,520.285,525.345,529.055,533.3549999999999,535.518,539.849,544.078,548.309,553.578,557.289,561.618,564.599" svgx:width="0.36,0.82,0.51,0.5,0.43,0.55,0.52,0.38,0.51,0.53,0.53,0.43,0.3,0.27,0.51,0.55,0.55,0.44,0.55,0.53,0.55,0.82,0.44,0.36,0.5,0.55,0.43,0.29,0.29,0.27,0.43,0.27,0.43,0.55,0.43,0.46,0.55,0.44,0.38,0.43,0.55,0.36,0.3,0.27,0.25,0.25,0.55,0.55,0.43,0.43,0.53,0.43,0.53,0.55,0.27,0.55,0.55,0.51,0.38,0.53,0.43,0.38,0.55,0.3,0.51,0.55,0.52,0.38,0.51,0.53,0.53,0.43,0.43,0.55,0.46,0.43,0.3,0.55,0.82,0.51,0.38,0.43,0.55,0.44,0.43,0.43,0.53,0.38,0.44,0.3,0.43" style="fill:rgb(0,0,0);font-family:MinionPro-Regular;font-size:10.0px;stroke:none;">smoke production and mask efficiency are still needed in order to produce yet more accurate</text>
   <text y="149.612" x="200.013,205.283,209.513,213.843,216.303,219.283,224.583,226.771,232.041,236.371,240.491,244.821,248.531,253.83100000000002,256.025,258.485,261.145,269.325,271.985,274.965,278.565,280.856,285.186,290.666,295.966,298.147,303.307,307.017,311.347,315.577,318.557,321.217,325.447,329.777,332.277,334.487,338.197,342.427,346.657,351.717,359.897,368.077,372.307,377.787,383.057,387.387,390.367,393.027,398.087,403.567,407.16700000000003,409.491,412.361,417.421,421.221,423.381,427.611,430.071,434.301,438.531,441.511,445.221,450.281,453.881,459.151,462.861,467.501,470.161,474.391,478.721,481.221,483.475,488.635,492.345,497.405,501.635,505.865,511.135,516.405,520.115,524.345,527.945" svgx:width="0.53,0.43,0.44,0.25,0.3,0.53,0.55,0.53,0.44,0.42,0.44,0.38,0.53,0.55,0.25,0.27,0.82,0.27,0.3,0.36,0.55,0.44,0.55,0.53,0.55,0.52,0.38,0.44,0.43,0.3,0.27,0.43,0.44,0.25,0.55,0.38,0.43,0.43,0.51,0.82,0.82,0.43,0.55,0.53,0.44,0.3,0.27,0.51,0.55,0.36,0.55,0.29,0.51,0.38,0.55,0.43,0.25,0.43,0.43,0.3,0.38,0.51,0.36,0.53,0.38,0.47,0.27,0.43,0.44,0.25,0.55,0.52,0.38,0.51,0.43,0.43,0.53,0.53,0.38,0.43,0.36,0.23" style="fill:rgb(0,0,0);font-family:MinionPro-Regular;font-size:10.0px;stroke:none;">health hazard limits and practical recommendations for electrosurgical procedures.</text>
  </g>
  <g begin="text">
   <text y="176.088" x="200.012,207.965,215.293,222.622,229.95,237.278,241.859,245.815,249.147,256.476,263.796,266.456,269.788,277.117,281.073,288.401,292.982,303.562,310.146,314.103,317.435,324.763" svgx:width="0.67,0.61,0.61,0.61,0.61,0.38,0.33,0.28,0.61,0.61,0.55,0.28,0.61,0.33,0.61,0.38,0.88,0.55,0.33,0.28,0.61,0.61" style="fill:rgb(0,0,0);font-family:Helvetica-Bold;font-size:12.0px;stroke:none;">Supporting information</text>
  </g>
  <g begin="text">
   <text y="193.039" x="200.012,204.973,209.973,212.145,219.704,224.344,227.734,232.374,236.184,240.514,243.904,246.404,248.598,255.117,259.758,266.65799999999996,268.836,274.316,278.956,282.346,287.046,289.246,292.536,296.556,301.716,312.319,315.709,321.189,325.589,327.74,333.53,339.01,345.01,348.721" svgx:width="0.5,0.5,0.55,0.76,0.47,0.34,0.47,0.38,0.44,0.34,0.25,0.55,0.66,0.47,0.69,0.55,0.55,0.47,0.34,0.47,0.55,0.33,0.41,0.52,0.84,0.34,0.55,0.44,0.55,0.58,0.55,0.6,0.38,0.25" style="fill:rgb(0,0,0);font-family:MinionPro-Bold;font-size:10.0px;stroke:none;">S1 Dataset. Raw data fromthe ELPI.</text>
   <text y="193.039" x="353.422,360.042,365.103,370.583,374.182,376.843,380.443,383.423,387.023,389.308,392.289,397.559,401.85900000000004,403.992,409.672,415.042,420.622,424.022,426.271,434.452,438.682,443.012,446.612,451.882,455.592,459.822,468.002,472.232,477.712,480.712,482.964,488.234,492.565,495.544,499.94399999999996,502.127,504.997,508.707,513.767,524.181,527.161,532.431,536.731,538.864,544.023,548.253,551.964" svgx:width="0.67,0.51,0.55,0.36,0.27,0.36,0.3,0.36,0.55,0.3,0.53,0.43,0.55,0.57,0.54,0.56,0.34,0.55,0.82,0.43,0.44,0.36,0.53,0.38,0.43,0.82,0.43,0.55,0.3,0.55,0.53,0.44,0.3,0.44,0.55,0.29,0.38,0.51,0.82,0.3,0.53,0.43,0.55,0.52,0.43,0.38,0.35" style="fill:rgb(0,0,0);font-family:MinionPro-Regular;font-size:10.0px;stroke:none;">Consists the ELPI measurement data fromthe per-</text>
   <text y="206.078" x="200.012,202.882,207.942,211.652,219.833,224.063,229.363,231.589,235.819,240.46,245.619,249.849,253.559,256.219,264.399,268.629,274.109,277.089,280.689" svgx:width="0.29,0.51,0.38,0.82,0.43,0.53,0.55,0.43,0.47,0.52,0.43,0.38,0.27,0.82,0.43,0.55,0.3,0.36,0.23" style="fill:rgb(0,0,0);font-family:MinionPro-Regular;font-size:10.0px;stroke:none;">formed experiments.</text>
   <text y="219.06" x="200.012,203.402,212.313,219.143,225.242" svgx:width="0.34,0.89,0.69,0.61,0.34" style="fill:rgb(0,0,0);font-family:MinionPro-Regular;font-size:10.0px;stroke:none;">(MAT)</text>
   <text y="238.052" x="200.012,204.973,209.973,212.145,217.624,220.494,223.264,227.594,230.094,232.27,239.0,243.641,246.41,250.64,256.12,258.891,263.53,266.92,269.79,274.951,280.53,284.33,286.638,291.279,296.858,302.358,304.553,309.193,312.063,315.873,321.353,325.993,328.763,331.633,336.063,340.703,344.093,346.963,352.123,357.723,360.055,363.345,368.505,372.605,374.738,378.128,383.609,388.00899999999996,390.159,395.638,400.279,404.299,407.689,410.559,414.789,417.559,421.959,424.174,427.984,430.854,435.284,439.68399999999997,441.862,446.503,452.083,457.583,459.777,465.357,470.838,479.228,484.497,488.828,492.928,495.096,500.576,503.447,507.257,510.647,514.667,517.537,522.807,528.287,531.677,534.547,539.707,545.286,549.096" svgx:width="0.5,0.5,0.55,0.55,0.29,0.28,0.44,0.25,0.55,0.68,0.47,0.28,0.43,0.55,0.28,0.47,0.34,0.29,0.52,0.56,0.38,0.55,0.47,0.56,0.55,0.55,0.47,0.29,0.38,0.55,0.47,0.28,0.29,0.45,0.47,0.34,0.29,0.52,0.56,0.55,0.33,0.52,0.41,0.55,0.34,0.55,0.44,0.55,0.55,0.47,0.41,0.34,0.29,0.43,0.28,0.44,0.55,0.38,0.29,0.45,0.44,0.55,0.47,0.56,0.55,0.55,0.56,0.55,0.84,0.53,0.44,0.41,0.55,0.55,0.29,0.38,0.34,0.41,0.29,0.53,0.55,0.34,0.29,0.52,0.56,0.38,0.25" style="fill:rgb(0,0,0);font-family:MinionPro-Bold;font-size:10.0px;stroke:none;">S1 File. Calculations and visualization for the particle size and number distributions.</text>
   <text y="251.092" x="200.012,203.402,208.882,213.113,215.572,220.842,226.112,228.772,234.253,238.95299999999997,241.171,244.15,249.421,253.721,255.854,259.564,263.794,267.395,272.664,275.124,278.104,281.704,283.917,288.977,291.87699999999995,294.065,298.294,302.625,306.854,312.154,314.361,317.021,322.5,327.771,330.43,334.971,337.63,342.901,348.171,352.5,355.0,357.277,362.337,367.607,371.318,376.797,379.458,384.938,389.638,391.802,394.782,399.013,402.612,405.592,407.892,410.057,416.158,421.25800000000004,423.438,427.667,432.307,436.537,440.768,446.038,449.018,453.318,455.525,458.505,463.776,466.435,470.035,472.249,475.12,477.779,480.24,484.469,486.769,488.973,497.883,502.214,505.193,507.654,511.984" svgx:width="0.34,0.55,0.43,0.25,0.53,0.53,0.27,0.55,0.47,0.55,0.3,0.53,0.43,0.55,0.38,0.43,0.36,0.53,0.25,0.3,0.36,0.55,0.51,0.29,0.55,0.43,0.44,0.43,0.53,0.55,0.27,0.55,0.53,0.27,0.46,0.27,0.53,0.53,0.44,0.25,0.55,0.51,0.53,0.38,0.55,0.27,0.55,0.47,0.55,0.3,0.43,0.36,0.3,0.23,0.55,0.61,0.51,0.55,0.43,0.47,0.43,0.43,0.53,0.3,0.43,0.55,0.3,0.53,0.27,0.36,0.55,0.29,0.27,0.25,0.43,0.23,0.55,0.89,0.44,0.3,0.25,0.44,0.51" style="fill:rgb(0,0,0);font-family:MinionPro-Regular;font-size:10.0px;stroke:none;">Including the results of each individual burning test. To execute this file, Matlab</text>
  </g>
  <g begin="text">
   <text y="246.614" x="517.096" svgx:width="1.0" style="fill:rgb(0,0,0);font-family:PI_chars_3;font-size:6.67px;stroke:none;">1</text>
  </g>
  <g begin="text">
   <text y="251.093" x="526.734,532.944,537.694,542.444,547.194,551.944,556.3439999999999,558.538,563.598" svgx:width="0.63,0.48,0.48,0.48,0.48,0.44,0.55,0.51,0.38" style="fill:rgb(0,0,0);font-family:MinionPro-Regular;font-size:10.0px;stroke:none;">R2016a or</text>
   <text y="264.075" x="200.015,202.475,206.805,209.785,214.015,217.815,219.914,222.574,226.174,228.418,232.128,236.358,241.418,246.688,249.348,253.058,257.288,262.558" svgx:width="0.25,0.44,0.3,0.43,0.38,0.55,0.27,0.36,0.55,0.38,0.43,0.51,0.53,0.27,0.38,0.43,0.53,0.23" style="fill:rgb(0,0,0);font-family:MinionPro-Regular;font-size:10.0px;stroke:none;">later is required.</text>
   <text y="277.058" x="200.015,203.405,212.315" svgx:width="0.34,0.89,0.34" style="fill:rgb(0,0,0);font-family:MinionPro-Regular;font-size:10.0px;stroke:none;">(M)</text>
   <text y="296.05" x="200.015,204.975,209.975,212.148,218.558,223.198,228.468,231.238,235.568,238.068,240.267,246.677,249.547,253.357,257.167,262.647,267.04699999999997,269.237,273.047,278.527,282.857,287.087,289.957,293.247,296.117,300.41700000000003,302.572,305.962,308.832,317.222,320.092,325.672,330.572,332.789,335.659,341.259,343.504,346.894,352.374,356.774,358.925,363.255,368.005,373.485,377.815,381.835,384.705,393.095,397.425,403.005,406.395,410.205" svgx:width="0.5,0.5,0.55,0.64,0.47,0.53,0.28,0.44,0.25,0.55,0.64,0.29,0.38,0.38,0.55,0.44,0.55,0.38,0.55,0.44,0.43,0.29,0.33,0.29,0.43,0.55,0.34,0.29,0.84,0.29,0.56,0.49,0.55,0.29,0.56,0.55,0.34,0.55,0.44,0.55,0.44,0.48,0.55,0.44,0.41,0.29,0.84,0.44,0.56,0.34,0.38,0.25" style="fill:rgb(0,0,0);font-family:MinionPro-Bold;font-size:10.0px;stroke:none;">S1 Table. Tissue specific timing in the experiments.</text>
   <text y="296.05" x="414.937,421.037,426.307,428.967,432.567,434.836,437.706,440.366,442.826,447.12600000000003,449.292,451.952,455.552,457.74,461.45,465.68,470.74,476.01,478.67,482.38,486.61,491.91,494.136,497.116,502.216,504.398,508.628,513.268,517.498,521.728,526.998,529.978,534.2779999999999,536.428,539.408,544.678" svgx:width="0.61,0.53,0.27,0.36,0.55,0.29,0.27,0.25,0.43,0.55,0.27,0.36,0.55,0.38,0.43,0.51,0.53,0.27,0.38,0.43,0.53,0.55,0.3,0.51,0.55,0.43,0.47,0.43,0.43,0.53,0.3,0.43,0.55,0.3,0.53,0.43" style="fill:rgb(0,0,0);font-family:MinionPro-Regular;font-size:10.0px;stroke:none;">This file is required to execute the</text>
   <text y="296.05" x="551.111,555.861" svgx:width="0.48,0.48" style="fill:rgb(59,90,166);font-family:MinionPro-Regular;font-size:10.0px;stroke:none;">S1</text>
   <text y="309.089" x="200.015,205.285,207.945,210.405" svgx:width="0.53,0.27,0.25,0.43" style="fill:rgb(59,90,166);font-family:MinionPro-Regular;font-size:10.0px;stroke:none;">File</text>
   <text y="309.089" x="214.635" svgx:width="0.23" style="fill:rgb(0,0,0);font-family:MinionPro-Regular;font-size:10.0px;stroke:none;">.</text>
   <text y="322.072" x="200.015,203.405,212.315,219.145,225.245" svgx:width="0.34,0.89,0.69,0.61,0.34" style="fill:rgb(0,0,0);font-family:MinionPro-Regular;font-size:10.0px;stroke:none;">(MAT)</text>
  </g>
  <g begin="text">
   <text y="354.557" x="200.012,208.589,215.173,221.758,229.086,236.414,245.747,249.079,255.663,262.992,270.32,280.9,287.485,294.746,298.702" svgx:width="0.72,0.55,0.55,0.61,0.61,0.78,0.28,0.55,0.61,0.61,0.88,0.55,0.61,0.33,0.55" style="fill:rgb(0,0,0);font-family:Helvetica-Bold;font-size:12.0px;stroke:none;">Acknowledgments</text>
  </g>
  <g begin="text">
   <text y="371.509" x="200.012,206.113,211.382,214.042,217.642,219.854,223.454,226.434,231.704,236.974,241.57399999999998,243.779,250.609,254.939,258.539,260.729,264.329,269.599,274.759,279.919,284.979,288.689,291.669,295.9,301.2,303.475,308.535,313.13500000000005,315.268,319.908,323.617,327.948,333.427,336.408,340.00800000000004,342.253,345.123,348.833,353.893,364.307,367.288,372.557,376.857,379.047,381.917,386.978,389.438,391.898,396.958,403.788,406.448,411.928,416.628,418.789,421.659,426.719,431.989,437.469,442.739,447.069,450.049,452.709,457.769,463.249,466.849,469.149,471.399,476.669,479.329,484.81,490.289,492.95,496.549,501.849,504.11,509.38,514.44,519.711,525.19,530.461,534.79,537.771,540.43,545.49,550.99,553.206,556.076,561.136" svgx:width="0.61,0.53,0.27,0.36,0.55,0.36,0.3,0.53,0.53,0.46,0.55,0.69,0.44,0.36,0.55,0.36,0.53,0.52,0.52,0.51,0.38,0.3,0.43,0.53,0.55,0.51,0.46,0.55,0.47,0.38,0.44,0.55,0.3,0.36,0.55,0.29,0.38,0.51,0.82,0.3,0.53,0.43,0.55,0.29,0.51,0.25,0.25,0.51,0.69,0.27,0.55,0.47,0.55,0.29,0.51,0.53,0.55,0.53,0.44,0.3,0.27,0.51,0.55,0.36,0.23,0.55,0.53,0.27,0.55,0.55,0.27,0.36,0.53,0.55,0.53,0.51,0.53,0.55,0.53,0.44,0.3,0.27,0.51,0.55,0.55,0.29,0.51,0.38" style="fill:rgb(0,0,0);font-family:MinionPro-Regular;font-size:10.0px;stroke:none;">This study was supported by grants fromthe following foundations: Finnish Foundation for</text>
   <text y="384.548" x="200.012,206.112,210.342,214.572,219.842,225.322,230.382,232.842,237.902,242.542,247.142,249.334,254.914,258.624,263.684,271.864,276.924,279.904,282.564,287.624,293.124,295.368,298.758,304.858,310.538,315.288,318.678,320.978,323.204,329.304,333.634,341.814,346.974,351.204,354.914,359.144,363.374,368.874,371.11,377.21,382.48,387.54,391.77,395.48,400.44,405.711,408.17,413.23,418.291,421.891,424.551,428.151,428.483,432.621,432.848,436.93,439.91,442.57,443.223,447.223,449.856,453.246,459.346,463.676,471.856,477.016,481.246,484.956,489.25600000000003,491.468,497.568,502.838,507.898,512.128,515.838,520.068,525.338,527.798,532.858,536.458,539.118,542.7180000000001,545.042,550.312,555.372,560.642,566.122" svgx:width="0.61,0.43,0.43,0.53,0.55,0.51,0.25,0.51,0.47,0.46,0.55,0.56,0.38,0.51,0.82,0.51,0.3,0.27,0.51,0.55,0.55,0.34,0.61,0.57,0.48,0.34,0.23,0.55,0.61,0.44,0.82,0.52,0.43,0.38,0.43,0.43,0.55,0.55,0.61,0.53,0.51,0.43,0.38,0.5,0.53,0.25,0.51,0.51,0.36,0.27,0.36,0.44,0.4,0.44,0.4,0.3,0.27,0.51,0.4,0.55,0.34,0.61,0.44,0.82,0.52,0.43,0.38,0.43,0.55,0.61,0.53,0.51,0.43,0.38,0.43,0.53,0.25,0.51,0.36,0.27,0.36,0.55,0.53,0.51,0.53,0.55,0.35" style="fill:rgb(0,0,0);font-family:MinionPro-Regular;font-size:10.0px;stroke:none;">Technology Promotion (TES), Tampereen Tuberkuloosisa¨a¨tio¨ (Tampere Tuberculosis Foun-</text>
   <text y="397.53" x="200.012,205.282,209.612,212.592,215.252,220.312,225.792,229.182,231.482,233.687,239.367,247.547,250.207,252.707,254.89,261.72,266.05,268.51,271.49,276.55,282.03,286.26,291.76,294.008,296.878,301.938,307.208,312.688,317.958,322.288,325.268,327.928,332.988,338.488,340.722,345.052,350.532,355.832,358.07,363.65,366.31,370.02,374.98,379.31,384.79,392.97,397.3,401.63,407.13,409.377,412.977,417.307,419.967,423.677,428.007,432.337,437.817,443.087,448.147,450.807,453.787,458.847,464.008,466.667,469.328,473.038,475.738,478.032,481.422,487.002,491.752,499.412,504.992,508.392,510.63,515.27,518.98,523.31,528.79,531.77,535.37,537.616,542.366,545.966,550.716,555.466,560.216" svgx:width="0.53,0.44,0.3,0.27,0.51,0.55,0.34,0.23,0.55,0.57,0.82,0.27,0.25,0.55,0.69,0.44,0.25,0.3,0.51,0.55,0.43,0.55,0.55,0.29,0.51,0.53,0.55,0.53,0.44,0.3,0.27,0.51,0.55,0.55,0.44,0.55,0.53,0.55,0.56,0.27,0.38,0.5,0.44,0.55,0.82,0.44,0.44,0.55,0.55,0.36,0.44,0.27,0.38,0.44,0.44,0.55,0.53,0.51,0.27,0.3,0.51,0.52,0.27,0.27,0.38,0.27,0.55,0.34,0.56,0.48,0.77,0.56,0.34,0.55,0.47,0.38,0.44,0.55,0.3,0.36,0.55,0.48,0.36,0.48,0.48,0.48,0.23" style="fill:rgb(0,0,0);font-family:MinionPro-Regular;font-size:10.0px;stroke:none;">dation), Emil Aaltonen foundation and Pirkanmaan sairaanhoitopiiri (PSHP) grants 9s045,</text>
   <text y="410.513" x="200.012,204.762,209.512,214.262,220.052,224.802,229.552,231.852,234.027,238.777,244.877,249.627,254.377,259.127,261.427,263.621,268.371,275.721,280.471,285.221,289.971,292.271,294.461,299.211,303.961,308.711,313.461,318.211,323.011,325.189,329.519,334.999,340.29900000000004,342.48,347.23,354.16,358.91,363.66,368.41" svgx:width="0.48,0.48,0.48,0.58,0.48,0.48,0.23,0.55,0.48,0.61,0.48,0.48,0.48,0.23,0.55,0.48,0.74,0.48,0.48,0.48,0.23,0.55,0.48,0.48,0.48,0.48,0.48,0.48,0.55,0.44,0.55,0.53,0.55,0.48,0.7,0.48,0.48,0.48,0.23" style="fill:rgb(0,0,0);font-family:MinionPro-Regular;font-size:10.0px;stroke:none;">151B03, 9T044, 9U042, 150618 and 9V044.</text>
   <text y="423.552" x="211.974,218.074,223.344,227.644,229.832,234.162,239.432,242.412,247.682,252.742,256.452,260.052,262.317,269.147,274.207,279.477,281.937,287.237,289.416,291.876,294.536,299.496,303.796,305.97,308.95,314.05,316.231,319.211,324.481,328.811,334.291,339.291,341.459,344.749,349.079,352.789,355.489,357.673,364.603,367.263,369.923,374.923,377.119,379.989,385.049,388.849,391.009,396.279,398.939,402.53900000000004,404.728,408.958,414.018,422.198,430.378,434.608,440.088,443.068,446.668,448.949,453.279,458.759,464.059,466.24,470.47,475.53,481.01,483.99,487.7,490.36,495.42,500.69,503.67,506.331,511.391,516.87,520.47,522.762,525.632,530.692,534.492,536.652,539.632,544.902,549.202,551.335,554.935,557.915,562.245,565.225,567.885,571.485" svgx:width="0.61,0.53,0.43,0.55,0.44,0.53,0.3,0.53,0.51,0.38,0.36,0.55,0.69,0.51,0.53,0.25,0.53,0.55,0.25,0.27,0.5,0.43,0.55,0.3,0.51,0.55,0.3,0.53,0.44,0.55,0.5,0.55,0.33,0.44,0.38,0.27,0.55,0.7,0.27,0.27,0.5,0.55,0.29,0.51,0.38,0.55,0.53,0.27,0.36,0.55,0.43,0.51,0.82,0.82,0.43,0.55,0.3,0.36,0.55,0.44,0.55,0.53,0.55,0.43,0.51,0.55,0.3,0.38,0.27,0.51,0.53,0.3,0.27,0.51,0.55,0.36,0.55,0.29,0.51,0.38,0.55,0.3,0.53,0.43,0.55,0.36,0.3,0.44,0.3,0.27,0.36,0.35" style="fill:rgb(0,0,0);font-family:MinionPro-Regular;font-size:10.0px;stroke:none;">The authors would like to thank Jari Viik for his comments and contributions for the statis-</text>
   <text y="436.535" x="200.012,202.992,205.652,209.882,214.212,216.712,218.89,223.22,228.7,233.03,235.49,240.03,243.63,246.29,249.89" svgx:width="0.3,0.27,0.43,0.44,0.25,0.55,0.44,0.55,0.44,0.25,0.46,0.36,0.27,0.36,0.23" style="fill:rgb(0,0,0);font-family:MinionPro-Regular;font-size:10.0px;stroke:none;">tical analysis.</text>
  </g>
  <g begin="text">
   <text y="463.011" x="200.012,208.589,215.917,219.874,227.202,234.53,239.09,241.737,250.314,257.642,264.97,268.927,273.507,276.839,284.168,291.496,295.453,298.785,306.113,313.442" svgx:width="0.72,0.61,0.33,0.61,0.61,0.38,0.55,0.72,0.61,0.61,0.33,0.38,0.28,0.61,0.61,0.33,0.28,0.61,0.61,0.55" style="fill:rgb(0,0,0);font-family:Helvetica-Bold;font-size:12.0px;stroke:none;">Author Contributions</text>
  </g>
  <g begin="text">
   <text y="480.019" x="200.012,206.742,211.902,217.482,221.712,226.042,231.522,234.913,240.393,245.033,247.802,250.673,255.102,259.742,263.133,266.003,271.162,276.742" svgx:width="0.68,0.52,0.56,0.43,0.44,0.55,0.34,0.55,0.47,0.28,0.29,0.45,0.47,0.34,0.29,0.52,0.56,0.25" style="fill:rgb(0,0,0);font-family:MinionPro-Bold;font-size:10.0px;stroke:none;">Conceptualization:</text>
   <text y="480.019" x="281.535,290.445,294.775,298.485,303.445,308.716,312.31600000000003,314.587,321.318,325.647,329.357,331.917,336.247,338.708,343.037,345.698,351.177,355.408,360.888,363.188,365.44,370.19,374.521,382.701,387.861,392.961,395.148,399.898,404.228,408.557,412.268,414.928,417.228,419.413,425.513,430.573,435.733,438.433,440.672,446.882,447.476,451.953,457.434,462.393,467.354,467.997,472.419,474.719,476.898,483.729,489.209,492.189,495.169,497.86899999999997,500.03,506.24,511.3,513.96,519.44,523.67,525.9699999999999,528.148,535.499,538.159,543.119" svgx:width="0.89,0.44,0.38,0.5,0.53,0.36,0.55,0.68,0.44,0.38,0.26,0.44,0.25,0.44,0.27,0.55,0.43,0.55,0.23,0.55,0.48,0.44,0.82,0.52,0.51,0.55,0.48,0.44,0.44,0.38,0.27,0.23,0.55,0.61,0.51,0.52,0.27,0.55,0.63,0.51,0.4,0.55,0.5,0.5,0.51,0.4,0.23,0.55,0.69,0.55,0.3,0.3,0.27,0.55,0.63,0.51,0.27,0.55,0.43,0.23,0.55,0.74,0.27,0.5,0.53" style="fill:rgb(0,0,0);font-family:MinionPro-Regular;font-size:10.0px;stroke:none;">Markus Karjalainen, Sampo Saari, Topi Ro¨nkko¨, Antti Roine, Niku</text>
   <text y="493.001" x="211.975,219.435,224.395,227.995,232.325,234.785,239.115" svgx:width="0.75,0.5,0.36,0.44,0.25,0.44,0.23" style="fill:rgb(0,0,0);font-family:MinionPro-Regular;font-size:10.0px;stroke:none;">Oksala.</text>
   <text y="510.973" x="200.013,207.573,212.213,215.603,220.303,222.463,226.693,232.173,236.193,240.833,244.223,247.093,252.253,257.833" svgx:width="0.76,0.47,0.34,0.47,0.55,0.43,0.55,0.41,0.47,0.34,0.29,0.52,0.56,0.25" style="fill:rgb(0,0,0);font-family:MinionPro-Bold;font-size:10.0px;stroke:none;">Data curation:</text>
   <text y="510.973" x="262.601,271.511,275.841,279.551,284.511,289.781,293.38100000000003,295.596,302.326,306.656,310.366,312.926,317.256,319.716,324.046,326.706,332.186,336.416,341.896,344.196,346.449,353.279,358.759,361.739,366.799,372.299,374.512,381.242,386.302,391.782,394.762,400.032,405.512,409.742,415.222,417.522,419.696,424.446,428.776,436.956,442.116,447.216,449.46,454.21,458.54,462.87,466.58,469.24,471.54,473.724,480.554,486.034,489.014,491.994,494.694,496.911,503.121,508.181,510.841,516.321,520.551" svgx:width="0.89,0.44,0.38,0.5,0.53,0.36,0.55,0.68,0.44,0.38,0.26,0.44,0.25,0.44,0.27,0.55,0.43,0.55,0.23,0.55,0.69,0.55,0.3,0.51,0.55,0.55,0.68,0.51,0.55,0.3,0.53,0.55,0.43,0.55,0.23,0.55,0.48,0.44,0.82,0.52,0.51,0.55,0.48,0.44,0.44,0.38,0.27,0.23,0.55,0.69,0.55,0.3,0.3,0.27,0.55,0.63,0.51,0.27,0.55,0.43,0.23" style="fill:rgb(0,0,0);font-family:MinionPro-Regular;font-size:10.0px;stroke:none;">Markus Karjalainen, Anton Kontunen, Sampo Saari, Antti Roine.</text>
   <text y="529.001" x="200.013,205.493,210.653,214.673,223.063,227.703,230.50300000000001,232.724,237.364,242.944,247.584,250.354,254.994,258.804,261.674,265.484" svgx:width="0.55,0.52,0.41,0.84,0.47,0.28,0.55,0.47,0.56,0.47,0.28,0.47,0.38,0.29,0.38,0.25" style="fill:rgb(0,0,0);font-family:MinionPro-Bold;font-size:10.0px;stroke:none;">Formal analysis:</text>
   <text y="529.001" x="270.198,277.028,282.508,285.488,290.548,296.048,298.261,304.991,310.051,315.531,318.511,323.781,329.261,333.491,338.971,341.271,343.501,348.251,352.581,360.761,365.921,371.021,373.208,377.958,382.288,386.618,390.328,392.988" svgx:width="0.69,0.55,0.3,0.51,0.55,0.55,0.68,0.51,0.55,0.3,0.53,0.55,0.43,0.55,0.23,0.55,0.48,0.44,0.82,0.52,0.51,0.55,0.48,0.44,0.44,0.38,0.27,0.23" style="fill:rgb(0,0,0);font-family:MinionPro-Regular;font-size:10.0px;stroke:none;">Anton Kontunen, Sampo Saari.</text>
   <text y="546.972" x="200.013,205.493,210.973,216.553,222.033,224.903,230.483,235.383,237.6,242.24,246.47,251.74,257.22,260.09,263.9,266.77,270.16,273.03,278.19,283.77" svgx:width="0.55,0.55,0.56,0.55,0.29,0.56,0.49,0.55,0.47,0.43,0.53,0.55,0.29,0.38,0.29,0.34,0.29,0.52,0.56,0.25" style="fill:rgb(0,0,0);font-family:MinionPro-Bold;font-size:10.0px;stroke:none;">Funding acquisition:</text>
   <text y="546.972" x="288.51,291.8,297.07,302.03,306.99,311.39,313.568,318.938,323.168,328.128,333.088,337.418,339.878,344.208,346.50800000000004,348.717,355.547,361.027,364.007,366.987,369.687,371.848,378.058,383.118,385.778,391.258,395.488,397.788,399.967,407.317,409.977,414.937,420.237,422.474,429.934,434.894,438.494,442.824,445.284,449.614" svgx:width="0.33,0.53,0.5,0.5,0.44,0.55,0.54,0.43,0.5,0.5,0.44,0.25,0.44,0.23,0.55,0.69,0.55,0.3,0.3,0.27,0.55,0.63,0.51,0.27,0.55,0.43,0.23,0.55,0.74,0.27,0.5,0.53,0.55,0.75,0.5,0.36,0.44,0.25,0.44,0.23" style="fill:rgb(0,0,0);font-family:MinionPro-Regular;font-size:10.0px;stroke:none;">Jukka Lekkala, Antti Roine, Niku Oksala.</text>
   <text y="565.001" x="200.013,203.723,209.303,213.943,218.273,222.083,225.473,228.343,233.193,237.833,241.223,244.093,249.253,254.833" svgx:width="0.38,0.56,0.47,0.44,0.38,0.34,0.29,0.49,0.47,0.34,0.29,0.52,0.56,0.25" style="fill:rgb(0,0,0);font-family:MinionPro-Bold;font-size:10.0px;stroke:none;">Investigation:</text>
   <text y="565.001" x="259.596,268.506,272.836,276.546,281.506,286.776,290.37600000000003,292.648,299.378,303.708,307.418,309.978,314.308,316.768,321.098,323.758,329.238,333.468,338.948,341.248,343.445,350.275,355.755,358.735,363.795,369.295,371.564,378.294,383.354,388.834,391.814,397.084,402.564,406.794,412.274,414.574,416.748,421.498,425.828,434.008,439.168,444.26800000000003,446.512,451.262,455.592,459.922,463.632,466.292,468.592,470.776,477.606,483.086,486.066,489.046,491.746,493.907,500.117,505.177,507.837,513.317,517.547" svgx:width="0.89,0.44,0.38,0.5,0.53,0.36,0.55,0.68,0.44,0.38,0.26,0.44,0.25,0.44,0.27,0.55,0.43,0.55,0.23,0.55,0.69,0.55,0.3,0.51,0.55,0.55,0.68,0.51,0.55,0.3,0.53,0.55,0.43,0.55,0.23,0.55,0.48,0.44,0.82,0.52,0.51,0.55,0.48,0.44,0.44,0.38,0.27,0.23,0.55,0.69,0.55,0.3,0.3,0.27,0.55,0.63,0.51,0.27,0.55,0.43,0.23" style="fill:rgb(0,0,0);font-family:MinionPro-Regular;font-size:10.0px;stroke:none;">Markus Karjalainen, Anton Kontunen, Sampo Saari, Antti Roine.</text>
   <text y="582.972" x="200.013,208.823,213.153,216.543,222.023,227.183,232.663,237.823,240.593,245.753,250.603,255.243" svgx:width="0.88,0.44,0.34,0.55,0.52,0.55,0.52,0.28,0.52,0.49,0.47,0.25" style="fill:rgb(0,0,0);font-family:MinionPro-Bold;font-size:10.0px;stroke:none;">Methodology:</text>
   <text y="582.972" x="259.993,268.903,273.233,276.943,281.903,287.173,290.773,293.045,299.775,304.105,307.815,310.375,314.705,317.165,321.495,324.155,329.635,333.865,339.345,341.64500000000004,343.842,350.672,356.152,359.132,364.192,369.692,371.904,378.634,383.694,389.174,392.154,397.424,402.904,407.134,412.614,414.914,417.145,421.895,426.225,434.405,439.565,444.665,446.852,451.602,455.932,460.262,463.972,466.632,468.932,471.173,478.003,483.483,486.463,489.443,492.143,494.304,500.514,505.574,508.234,513.714,517.944" svgx:width="0.89,0.44,0.38,0.5,0.53,0.36,0.55,0.68,0.44,0.38,0.26,0.44,0.25,0.44,0.27,0.55,0.43,0.55,0.23,0.55,0.69,0.55,0.3,0.51,0.55,0.55,0.68,0.51,0.55,0.3,0.53,0.55,0.43,0.55,0.23,0.55,0.48,0.44,0.82,0.52,0.51,0.55,0.48,0.44,0.44,0.38,0.27,0.23,0.55,0.69,0.55,0.3,0.3,0.27,0.55,0.63,0.51,0.27,0.55,0.43,0.23" style="fill:rgb(0,0,0);font-family:MinionPro-Regular;font-size:10.0px;stroke:none;">Markus Karjalainen, Anton Kontunen, Sampo Saari, Antti Roine.</text>
   <text y="601.0" x="200.013,206.013,210.033,215.193,218.063,222.393,226.623,230.023,232.271,236.911,242.391,250.781,253.651,259.231,262.101,265.911,269.301,273.321,277.961,281.351,284.221,289.381,294.961" svgx:width="0.6,0.41,0.52,0.29,0.44,0.43,0.34,0.55,0.47,0.55,0.84,0.29,0.56,0.29,0.38,0.34,0.41,0.47,0.34,0.29,0.52,0.56,0.25" style="fill:rgb(0,0,0);font-family:MinionPro-Bold;font-size:10.0px;stroke:none;">Project administration:</text>
   <text y="601.0" x="299.735,303.025,308.295,313.255,318.215,322.61499999999995,324.793,330.163,334.393,339.353,344.313,348.643,351.103,355.433,357.733,359.942,366.772,372.252,375.232,378.212,380.912,383.129,389.339,394.399,397.059,402.539,406.769,409.069,411.249,418.599,421.259,426.219,431.519,433.699,441.159,446.119,449.719,454.049,456.509,460.839" svgx:width="0.33,0.53,0.5,0.5,0.44,0.55,0.54,0.43,0.5,0.5,0.44,0.25,0.44,0.23,0.55,0.69,0.55,0.3,0.3,0.27,0.55,0.63,0.51,0.27,0.55,0.43,0.23,0.55,0.74,0.27,0.5,0.53,0.55,0.75,0.5,0.36,0.44,0.25,0.44,0.23" style="fill:rgb(0,0,0);font-family:MinionPro-Regular;font-size:10.0px;stroke:none;">Jukka Lekkala, Antti Roine, Niku Oksala.</text>
   <text y="618.972" x="200.013,206.533,210.863,214.673,219.833,225.313,229.333,233.563,237.893,241.703" svgx:width="0.66,0.44,0.38,0.52,0.55,0.41,0.43,0.44,0.38,0.25" style="fill:rgb(0,0,0);font-family:MinionPro-Bold;font-size:10.0px;stroke:none;">Resources:</text>
   <text y="618.972" x="246.444,252.544,257.604,262.764,265.464,267.647,273.857,274.507,278.929,284.409,289.369,294.329,294.973,299.395,301.695,303.873,307.163,312.433,317.393,322.353,326.753,328.931,334.301,338.531,343.491,348.451,352.781,355.241,359.571,361.87100000000004,364.081,370.911,376.391,379.371,382.351,385.051,387.211,393.421,398.481,401.141,406.621,410.851,413.151,415.331,422.681,425.341,430.301,435.601,437.838,445.298,450.258,453.858,458.188,460.648,464.978" svgx:width="0.61,0.51,0.52,0.27,0.55,0.63,0.51,0.4,0.55,0.5,0.5,0.51,0.4,0.23,0.55,0.33,0.53,0.5,0.5,0.44,0.55,0.54,0.43,0.5,0.5,0.44,0.25,0.44,0.23,0.55,0.69,0.55,0.3,0.3,0.27,0.55,0.63,0.51,0.27,0.55,0.43,0.23,0.55,0.74,0.27,0.5,0.53,0.55,0.75,0.5,0.36,0.44,0.25,0.44,0.23" style="fill:rgb(0,0,0);font-family:MinionPro-Regular;font-size:10.0px;stroke:none;">Topi Ro¨nkko¨, Jukka Lekkala, Antti Roine, Niku Oksala.</text>
   <text y="637.0" x="200.013,204.973,210.453,215.933,220.263,224.283,228.923,231.793,235.603,238.473,243.633,249.213" svgx:width="0.5,0.55,0.55,0.44,0.41,0.47,0.29,0.38,0.29,0.52,0.56,0.25" style="fill:rgb(0,0,0);font-family:MinionPro-Bold;font-size:10.0px;stroke:none;">Supervision:</text>
   <text y="637.0" x="253.984,258.734,263.064,271.244,276.404,281.504,283.691,288.441,292.771,297.101,300.811,303.471,305.771,307.955,314.055,319.115,324.275,326.97499999999997,329.215,335.425,336.018,340.497,345.977,350.937,355.897,356.541,360.963,363.26300000000003,365.385,368.675,373.945,378.905,383.865,388.265,390.443,395.813,400.043,405.003,409.963,414.293,416.753,421.083,423.38300000000004,425.592,432.422,437.902,440.882,443.862,446.562,448.779,454.989,460.049,462.709,468.189,472.419,474.719,476.899,484.249,486.909,491.869,497.16900000000004,499.349,506.809,511.769,515.369,519.699,522.159,526.489" svgx:width="0.48,0.44,0.82,0.52,0.51,0.55,0.48,0.44,0.44,0.38,0.27,0.23,0.55,0.61,0.51,0.52,0.27,0.55,0.63,0.51,0.4,0.55,0.5,0.5,0.51,0.4,0.23,0.55,0.33,0.53,0.5,0.5,0.44,0.55,0.54,0.43,0.5,0.5,0.44,0.25,0.44,0.23,0.55,0.69,0.55,0.3,0.3,0.27,0.55,0.63,0.51,0.27,0.55,0.43,0.23,0.55,0.74,0.27,0.5,0.53,0.55,0.75,0.5,0.36,0.44,0.25,0.44,0.23" style="fill:rgb(0,0,0);font-family:MinionPro-Regular;font-size:10.0px;stroke:none;">Sampo Saari, Topi Ro¨nkko¨, Jukka Lekkala, Antti Roine, Niku Oksala.</text>
   <text y="654.972" x="200.013,207.053,211.693,214.463,217.333,222.813,227.453,230.843,233.713,238.873,244.453" svgx:width="0.71,0.47,0.28,0.29,0.55,0.47,0.34,0.29,0.52,0.56,0.25" style="fill:rgb(0,0,0);font-family:MinionPro-Bold;font-size:10.0px;stroke:none;">Validation:</text>
   <text y="654.972" x="249.222,256.052,261.532,264.512,269.572,275.072,277.284,284.014,289.074,294.554,297.534,302.804,308.284,312.514,317.994,320.29400000000004,322.468,329.298,334.778,337.758,340.738,343.438,345.656,351.866,356.926,359.586,365.066,369.296,371.596,373.775,381.125,383.785,388.745,394.045,396.225,403.685,408.645,412.245,416.575,419.035,423.365" svgx:width="0.69,0.55,0.3,0.51,0.55,0.55,0.68,0.51,0.55,0.3,0.53,0.55,0.43,0.55,0.23,0.55,0.69,0.55,0.3,0.3,0.27,0.55,0.63,0.51,0.27,0.55,0.43,0.23,0.55,0.74,0.27,0.5,0.53,0.55,0.75,0.5,0.36,0.44,0.25,0.44,0.23" style="fill:rgb(0,0,0);font-family:MinionPro-Regular;font-size:10.0px;stroke:none;">Anton Kontunen, Antti Roine, Niku Oksala.</text>
   <text y="673.0" x="200.013,207.053,209.923,213.733,219.213,223.853,226.623,229.493,233.923,238.563,241.953,244.823,249.983,255.563" svgx:width="0.71,0.29,0.38,0.55,0.47,0.28,0.29,0.45,0.47,0.34,0.29,0.52,0.56,0.25" style="fill:rgb(0,0,0);font-family:MinionPro-Bold;font-size:10.0px;stroke:none;">Visualization:</text>
   <text y="673.0" x="260.333,269.243,273.573,277.283,282.243,287.513,291.113,293.385,300.115,304.445,308.155,310.715,315.045,317.505,321.835,324.495,329.975,334.205,339.685,341.985,344.182,351.012,356.492,359.472,364.532,370.032,372.244,378.974,384.034,389.514,392.494,397.764,403.244,407.474,412.954,415.254,417.485,422.235,426.565,434.745,439.905,445.005,447.192,451.942,456.272,460.602,464.312,466.972,469.272,471.513,478.343,483.823,486.803,489.783,492.483,494.644,500.854,505.914,508.574,514.054,518.284" svgx:width="0.89,0.44,0.38,0.5,0.53,0.36,0.55,0.68,0.44,0.38,0.26,0.44,0.25,0.44,0.27,0.55,0.43,0.55,0.23,0.55,0.69,0.55,0.3,0.51,0.55,0.55,0.68,0.51,0.55,0.3,0.53,0.55,0.43,0.55,0.23,0.55,0.48,0.44,0.82,0.52,0.51,0.55,0.48,0.44,0.44,0.38,0.27,0.23,0.55,0.69,0.55,0.3,0.3,0.27,0.55,0.63,0.51,0.27,0.55,0.43,0.23" style="fill:rgb(0,0,0);font-family:MinionPro-Regular;font-size:10.0px;stroke:none;">Markus Karjalainen, Anton Kontunen, Sampo Saari, Antti Roine.</text>
   <text y="690.972" x="200.013,209.763,213.783,216.653,220.043,222.913,228.493,233.393,235.615,240.715,242.872,248.032,252.052,254.922,259.772,262.642,268.222,272.862,275.66200000000003,277.908,283.388,287.408,292.048,295.338,298.728" svgx:width="0.98,0.41,0.29,0.34,0.29,0.56,0.49,0.55,0.51,0.55,0.52,0.41,0.29,0.49,0.29,0.56,0.47,0.28,0.55,0.55,0.41,0.47,0.33,0.34,0.25" style="fill:rgb(0,0,0);font-family:MinionPro-Bold;font-size:10.0px;stroke:none;">Writing – original draft:</text>
   <text y="690.972" x="303.42,312.33,316.66,320.37,325.33,330.6,334.20000000000005,336.471,343.201,347.531,351.241,353.801,358.131,360.591,364.921,367.581,373.061,377.291,382.771,385.071,387.268,394.098,399.578,402.558,407.618,413.118,415.331,422.061,427.121,432.601,435.581,440.851,446.331,450.561,456.041,458.341,460.571,465.321,469.651,477.831,482.991,488.091,490.278,495.028,499.358,503.688,507.398,510.058,512.358,514.599,521.429,526.909,529.889,532.869,535.5690000000001,537.729,543.94,549.0,551.659,557.14,561.37" svgx:width="0.89,0.44,0.38,0.5,0.53,0.36,0.55,0.68,0.44,0.38,0.26,0.44,0.25,0.44,0.27,0.55,0.43,0.55,0.23,0.55,0.69,0.55,0.3,0.51,0.55,0.55,0.68,0.51,0.55,0.3,0.53,0.55,0.43,0.55,0.23,0.55,0.48,0.44,0.82,0.52,0.51,0.55,0.48,0.44,0.44,0.38,0.27,0.23,0.55,0.69,0.55,0.3,0.3,0.27,0.55,0.63,0.51,0.27,0.55,0.43,0.23" style="fill:rgb(0,0,0);font-family:MinionPro-Regular;font-size:10.0px;stroke:none;">Markus Karjalainen, Anton Kontunen, Sampo Saari, Antti Roine,</text>
   <text y="704.011" x="211.975,219.325,221.985,226.945,232.245,234.482,241.942,246.902,250.502,254.832,257.292,261.622" svgx:width="0.74,0.27,0.5,0.53,0.55,0.75,0.5,0.36,0.44,0.25,0.44,0.23" style="fill:rgb(0,0,0);font-family:MinionPro-Regular;font-size:10.0px;stroke:none;">Niku Oksala.</text>
  </g>
  <path style="fill:rgb(0,0,0);stroke:none;stroke-width:1.0;" d="M576.000 54.900 L36.000 54.900 L36.000 54.400 L576.000 54.400 "/>
  <rect style="stroke:blue;stroke-width:0.3;" x="36.0" y="35.043" height="23.64" width="107.093" title="11"/>
  <text y="35.043" class="image" id="image.11.1" width="107" height="23" x="36.0">image.11.1.36_143.35_59</text>
  <g begin="text">
   <text y="46.205" x="225.524,230.396,234.772,239.172,240.887,244.847,249.223,253.599,256.223,260.599,264.559,266.767,271.143,273.656,275.36,279.32,283.696,285.904,287.608,291.984,296.38399999999996,298.034,302.41,304.65000000000003,306.367,310.327,314.703,317.327,321.703,323.407,327.367,331.743,333.503,335.168,339.128,345.752,350.128,354.088,358.488,360.112,362.32,364.944,369.32,377.687,381.647,386.023,388.647,390.351,394.727,399.103,403.103,404.729,406.937,408.641,412.601,416.561,420.937,425.313,429.313,430.978,435.354,439.73,444.13,445.831,447.535,449.743,453.743,455.47,457.173,463.797,468.173,469.877,471.581,475.541,479.917,482.125,483.829,488.205,492.49,496.49,498.159,500.367,504.742,507.382,509.101,513.477,517.437,521.397,525.773,530.149,534.525,536.733,538.437,542.813,547.084,551.46,553.22,554.908,558.868,563.244,565.452,569.828,572.036" svgx:width="0.61,0.55,0.55,0.55,0.5,0.55,0.55,0.33,0.55,0.5,0.28,0.55,0.33,0.22,0.5,0.55,0.28,0.22,0.55,0.55,0.55,0.55,0.28,0.55,0.5,0.55,0.33,0.55,0.22,0.5,0.55,0.22,0.55,0.5,0.83,0.55,0.5,0.55,0.55,0.28,0.33,0.55,0.83,0.5,0.55,0.33,0.22,0.55,0.55,0.5,0.55,0.28,0.22,0.5,0.5,0.55,0.55,0.5,0.55,0.55,0.55,0.55,0.55,0.22,0.28,0.5,0.55,0.22,0.83,0.55,0.22,0.22,0.5,0.55,0.28,0.22,0.55,0.55,0.5,0.55,0.28,0.55,0.33,0.55,0.55,0.5,0.5,0.55,0.55,0.55,0.28,0.22,0.55,0.55,0.55,0.22,0.55,0.5,0.55,0.28,0.55,0.28,0.5" style="fill:rgb(0,0,0);font-family:Helvetica;font-size:8.0px;stroke:none;">The characterization of surgical smoke fromvarious tissues and its implications for occupational safety</text>
  </g>
  <path style="fill:rgb(0,0,0);stroke:none;stroke-width:1.0;" d="M36.000 744.000 L576.000 744.000 L576.000 744.500 L36.000 744.500 "/>
  <path style="fill:rgb(59,90,166);stroke:none;stroke-width:1.0;" d="M81.580 757.080 L237.880 757.080 Z"/>
  <g begin="text">
   <text y="756.0" x="36.0,41.288,45.664,51.872,57.232,58.847,65.055,70.759,76.119,77.782" svgx:width="0.67,0.55,0.78,0.67,0.55,0.78,0.72,0.67,0.55,0.26" style="fill:rgb(0,0,0);font-family:Helvetica;font-size:8.0px;stroke:none;">PLOS ONE |</text>
   <text y="756.0" x="81.58,85.956,88.164,90.372,94.748,98.708,100.916,103.124,105.332,109.708,114.084,115.788,117.996,122.372,124.893,129.269,131.477,135.853,140.229,142.437,146.813,151.189,155.451,159.827,162.035,163.739,168.115,172.491,175.115,179.491,183.867,185.571,187.779,192.155,196.44,200.816,205.191,207.399,211.775,216.151,220.527,224.903,229.151,233.527" svgx:width="0.55,0.28,0.28,0.55,0.5,0.28,0.28,0.28,0.55,0.55,0.22,0.28,0.55,0.33,0.55,0.28,0.55,0.55,0.28,0.55,0.55,0.55,0.55,0.28,0.22,0.55,0.55,0.33,0.55,0.55,0.22,0.28,0.55,0.55,0.55,0.55,0.28,0.55,0.55,0.55,0.55,0.55,0.55,0.55" style="fill:rgb(59,90,166);font-family:Helvetica;font-size:8.0px;stroke:none;">https://doi.org/10.1371/journal.pone.0195274</text>
   <text y="756.0" x="245.876,251.164,255.54,258.164,259.868,261.628,263.337,267.713,272.089,274.329,276.036,280.412,284.788,289.164,293.56399999999996,552.81,557.185,561.5849999999999,563.241" svgx:width="0.67,0.55,0.33,0.22,0.22,0.55,0.55,0.55,0.28,0.55,0.55,0.55,0.55,0.55,0.55,0.55,0.55,0.55,0.28" style="fill:rgb(0,0,0);font-family:Helvetica;font-size:8.0px;stroke:none;">April 12, 2018 11 /</text>
  </g>
  <g begin="text">
   <text y="756.0" x="567.209,571.585" svgx:width="0.55,0.55" style="fill:rgb(0,0,0);font-family:Helvetica;font-size:8.0px;stroke:none;">13</text>
  </g>
 </g>
</svg>
