<?xml version="1.0" encoding="UTF-8"?>
<svg height="765.771" width="4344.92" xmlns="http://www.w3.org/2000/svg">
 <g id="page" xmlns:svgx="http://www.xml-cml.org/schema/svgx">
  <g begin="text">
   <text y="93.374" x="58.62,62.876" svgx:width="0.5,0.5" style="fill:rgb(0,0,0);font-family:TTAA81o00;font-size:8.46px;stroke:none;">32</text>
   <text y="92.594" x="376.2,381.658,384.653,389.153,393.653,396.173,400.135,404.157,406.618,408.894,416.877,420.839,425.339,427.859,431.821,434.343,438.843,442.805,445.081,449.043,453.543,458.043,460.319,466.799,470.76,474.783,477.245,479.765,484.265,486.482,493.019,497.519,499.982,502.258,506.758,511.197,513.474,519.954,524.454,526.67,531.17,533.447,535.664,540.164,544.664,549.164" svgx:width="0.61,0.33,0.5,0.5,0.28,0.45,0.45,0.28,0.25,0.89,0.45,0.5,0.28,0.45,0.28,0.5,0.45,0.25,0.45,0.5,0.5,0.25,0.72,0.45,0.45,0.28,0.28,0.5,0.25,0.72,0.5,0.28,0.25,0.5,0.5,0.25,0.72,0.5,0.25,0.5,0.25,0.25,0.5,0.5,0.5,0.5" style="fill:rgb(0,0,0);font-family:TTAA8Co00;font-size:9.0px;stroke:none;">Tropical Medicine and Health Vol.41 No.1, 2013</text>
   <text y="577.274" x="58.62,61.437,65.879,69.186,73.09,75.611,80.053,85.033,90.013,92.534,97.514,101.956,104.715,107.532,111.974,115.28,120.26,122.781,126.146,130.528,134.97,140.01,144.452,147.577,152.557,156.999" svgx:width="0.28,0.45,0.33,0.39,0.25,0.45,0.5,0.5,0.25,0.5,0.45,0.28,0.28,0.45,0.33,0.5,0.25,0.33,0.45,0.45,0.5,0.45,0.33,0.5,0.45,0.25" style="fill:rgb(0,0,0);font-family:TTAA85o00;font-size:9.96px;stroke:none;">ters and battery recharge.</text>
   <text y="589.994" x="58.62,63.061,66.426,68.887,78.308,83.287,88.865,92.17,97.748,100.506,105.485" svgx:width="0.45,0.33,0.25,0.95,0.5,0.55,0.33,0.55,0.28,0.5,0.33" style="fill:rgb(0,0,0);font-family:TTAA84o00;font-size:9.96px;stroke:none;">c) Monthly-</text>
   <text y="589.994" x="108.84,111.301,119.04,123.483,126.24,131.28,134.038,138.479,143.458,147.899,152.939,157.38,161.822,164.222,167.039,170.882,173.343,176.708,181.687,186.666,189.424,192.24,197.219,201.661,204.418,209.458,211.859,216.898,221.34,224.646,228.011,232.99,236.295,244.094,248.535,253.514,255.975,263.714,268.156,270.973,275.953,278.711,283.751,286.151,291.191" svgx:width="0.25,0.76,0.45,0.28,0.5,0.28,0.45,0.5,0.45,0.5,0.45,0.45,0.25,0.28,0.39,0.25,0.33,0.5,0.5,0.28,0.28,0.5,0.45,0.28,0.5,0.25,0.5,0.45,0.33,0.33,0.5,0.33,0.76,0.45,0.5,0.25,0.76,0.45,0.28,0.5,0.28,0.5,0.25,0.5,0.5" style="fill:rgb(0,0,0);font-family:TTAA85o00;font-size:9.96px;stroke:none;"> maintenance is routinely performed mainly on</text>
   <text y="602.774" x="58.62,61.437,66.417,70.859,73.56,78.002,80.819,84.126,86.827,90.191,92.95,95.709,98.526,101.832,106.275,109.091,111.848,116.828,121.808,124.569,128.473,133.453,137.358,140.117,144.559,152.358,155.059,160.039,164.481,169.461,173.903,178.943,183.923,186.682,191.721,196.701,199.403,204.383,209.422,212.123,219.922,224.364,229.344,234.324,242.123,246.565,249.324,253.766,257.131,259.832,263.139,267.581,272.023,277.063,279.822,284.802,289.782,293.686" svgx:width="0.28,0.5,0.45,0.25,0.45,0.28,0.33,0.25,0.33,0.28,0.28,0.28,0.33,0.45,0.28,0.28,0.5,0.5,0.25,0.39,0.5,0.39,0.28,0.45,0.76,0.25,0.5,0.45,0.5,0.45,0.5,0.5,0.28,0.5,0.5,0.25,0.5,0.5,0.25,0.76,0.45,0.5,0.5,0.76,0.45,0.28,0.45,0.33,0.25,0.33,0.45,0.45,0.5,0.28,0.5,0.5,0.39,0.25" style="fill:rgb(0,0,0);font-family:TTAA85o00;font-size:9.96px;stroke:none;">the air filtration system depending on manometer readings.</text>
   <text y="615.554" x="58.62,61.984,64.741,67.231,69.122,71.88,76.859,81.899,86.879,89.636,94.615,99.057,102.96,105.44999999999999,107.34,110.646,115.087,120.066,122.883,127.324,131.765,136.206,143.945,148.386,153.365,156.182,158.672,160.503,165.543,168.847,171.33700000000002,173.168,175.985,180.965,183.723,188.164,191.528,199.267,203.708,208.748,211.506,215.947,218.705,223.146,225.636,227.527,230.832,233.59,236.407,239.165,243.606,246.912,250.815,253.305,255.195,262.396,267.375,270.191,274.632,279.611,282.101,283.932,288.972,293.414" svgx:width="0.33,0.28,0.25,0.55,0.28,0.5,0.5,0.5,0.28,0.5,0.45,0.39,0.25,0.55,0.33,0.45,0.5,0.28,0.45,0.45,0.45,0.76,0.45,0.5,0.28,0.25,0.55,0.5,0.33,0.25,0.55,0.28,0.5,0.28,0.45,0.33,0.76,0.45,0.5,0.28,0.45,0.28,0.45,0.25,0.55,0.33,0.28,0.28,0.28,0.45,0.33,0.39,0.25,0.55,0.72,0.5,0.28,0.45,0.5,0.25,0.55,0.5,0.45,0.28" style="fill:rgb(0,0,0);font-family:TTAA85o00;font-size:9.96px;stroke:none;">It involves replacement of intermediate filters which get</text>
   <text y="628.273" x="58.62,62.523,67.563,70.321,73.079,77.52,82.499,85.679,88.437,93.477,96.597,99.414,104.393,108.834,112.015,116.456,121.435,126.414,129.778,133.682,138.123,141.243,146.283,149.588,152.768,155.526,158.284,162.187,165.367,170.346,174.25,178.691,183.67,188.111,190.63,193.81,199.865,204.904,209.346,212.466,220.265,224.706,229.685,234.664,242.463,246.904,249.662,254.103,257.467,260.648,268.387,273.367,278.406,281.164,283.922,288.962,292.268" svgx:width="0.39,0.5,0.28,0.28,0.45,0.5,0.25,0.28,0.5,0.25,0.28,0.5,0.45,0.25,0.45,0.5,0.5,0.33,0.39,0.45,0.25,0.5,0.33,0.25,0.28,0.28,0.39,0.25,0.5,0.39,0.45,0.5,0.45,0.25,0.25,0.61,0.5,0.45,0.25,0.76,0.45,0.5,0.5,0.76,0.45,0.28,0.45,0.33,0.25,0.76,0.5,0.5,0.28,0.28,0.5,0.33,0.39" style="fill:rgb(0,0,0);font-family:TTAA85o00;font-size:9.96px;stroke:none;">soiled in the course of its usage. The manometer monitors</text>
   <text y="641.053" x="58.62,61.437,66.416,70.857,73.347,74.697,79.08,84.12,89.099,94.078,96.894,99.652,102.41,107.45,112.429,114.919,116.21,121.249,124.554,127.044,128.395,131.153,136.132,140.573,144.476,148.917,151.407,152.758,156.064,158.822,161.638,164.396,168.837,172.143,176.046,178.536,179.887,184.328,189.307,194.286,196.776,198.127,200.885,205.924,210.903,213.661,218.102,222.544,225.302,229.743,233.646,236.136,237.487,244.687,249.666,254.107,259.147,261.637,262.927,265.685,270.725,275.166,280.145,282.635,283.986,288.368,291.733" svgx:width="0.28,0.5,0.45,0.25,0.55,0.45,0.5,0.5,0.5,0.28,0.28,0.28,0.5,0.5,0.25,0.55,0.5,0.33,0.25,0.55,0.28,0.5,0.45,0.39,0.45,0.25,0.55,0.33,0.28,0.28,0.28,0.45,0.33,0.39,0.25,0.55,0.45,0.5,0.5,0.25,0.55,0.28,0.5,0.5,0.28,0.45,0.45,0.28,0.45,0.39,0.25,0.55,0.72,0.5,0.45,0.5,0.25,0.55,0.28,0.5,0.45,0.5,0.25,0.55,0.45,0.33,0.45" style="fill:rgb(0,0,0);font-family:TTAA85o00;font-size:9.96px;stroke:none;">the condition of these filters and indicates when they are</text>
   <text y="653.773" x="58.62,63.66,68.639,73.08,75.661,79.025,84.005,87.37,89.95,93.315,97.756,102.735,105.493,109.934,114.375,118.816,126.615,131.056,136.035,138.793,141.433,144.739,150.317,153.075,158.114,160.604,163.095,168.075,171.44,173.901,176.541,182.658,187.637,192.078,194.659,199.698,202.455,206.897,211.338,216.317,218.957,223.398,226.704,234.503,237.083,242.123,245.428,248.068,250.826,255.805,260.246,262.887,270.626,275.068,280.108,285.088,292.827" svgx:width="0.5,0.5,0.45,0.25,0.33,0.5,0.33,0.25,0.33,0.45,0.5,0.28,0.45,0.45,0.45,0.76,0.45,0.5,0.28,0.25,0.33,0.55,0.28,0.5,0.25,0.55,0.5,0.33,0.25,0.25,0.61,0.5,0.45,0.25,0.5,0.28,0.45,0.45,0.5,0.25,0.45,0.33,0.76,0.25,0.5,0.33,0.25,0.28,0.5,0.45,0.25,0.76,0.45,0.5,0.5,0.76,0.33" style="fill:rgb(0,0,0);font-family:TTAA85o00;font-size:9.96px;stroke:none;">due for replacement (Fig. 9). The black arm of the manom-</text>
   <text y="666.553" x="58.62,63.061,65.878,70.319,73.625,76.685,80.589,85.568,90.547,97.747,101.65,104.711,112.51,116.952,119.71,124.151,127.457,130.517,133.823,138.264,142.705,147.745,150.503,155.482,160.522,164.365,166.884,169.945,172.703,177.682,182.722,185.479,189.92,194.361,197.119,199.877,204.916,209.895,212.956,217.935,222.914,230.173,233.174,240.973,245.952,250.393,255.372,258.433,263.412,266.776,269.837,272.595,277.574,282.015,285.076,287.834,292.813" svgx:width="0.45,0.28,0.45,0.33,0.25,0.39,0.5,0.5,0.72,0.39,0.25,0.76,0.45,0.28,0.45,0.33,0.25,0.33,0.45,0.45,0.5,0.28,0.5,0.5,0.39,0.25,0.25,0.28,0.5,0.5,0.28,0.45,0.45,0.28,0.28,0.5,0.5,0.25,0.5,0.5,0.72,0.25,0.76,0.5,0.45,0.5,0.25,0.5,0.33,0.25,0.28,0.5,0.45,0.25,0.28,0.5,0.33" style="fill:rgb(0,0,0);font-family:TTAA85o00;font-size:9.96px;stroke:none;">eter shows meter readings, indicating how much of the in-</text>
   <text y="679.273" x="58.62,61.437,65.879,69.185,76.983,81.424,86.403,89.161,93.603,96.419,100.86,103.35,105.901,109.207,112.024,114.781,117.539,121.981,125.345,127.835,130.386,135.365,139.806,143.709,146.199,148.75,153.729,158.17,162.611,167.651,170.14100000000002,172.692,177.133,182.112,187.091,190.994,196.034,203.773,208.214,213.193,215.68300000000002,218.294,225.494,230.473,233.29,236.046,240.488,242.978,245.528,248.286,253.326,257.767,260.257,262.808,266.114,270.555,275.595,278.08500000000004,280.635,285.077,288.382" svgx:width="0.28,0.45,0.33,0.76,0.45,0.5,0.28,0.45,0.28,0.45,0.25,0.55,0.33,0.28,0.28,0.28,0.45,0.33,0.25,0.55,0.5,0.45,0.39,0.25,0.55,0.5,0.45,0.45,0.5,0.25,0.55,0.45,0.5,0.5,0.39,0.5,0.76,0.45,0.5,0.25,0.55,0.72,0.5,0.28,0.28,0.45,0.25,0.55,0.28,0.5,0.45,0.25,0.55,0.33,0.45,0.5,0.25,0.55,0.45,0.33,0.76" style="fill:rgb(0,0,0);font-family:TTAA85o00;font-size:9.96px;stroke:none;">termediate filter has been consumed while the red arm</text>
   <text y="692.052" x="58.62,62.523,67.563,72.542,79.742,83.645,85.746,93.485,97.926,102.905,105.722,113.461,118.5,126.239,128.34,132.781,137.76,142.739,146.642,151.682,159.421,164.401,167.218,169.975,174.954,179.994,182.455,184.555,188.996,191.754,193.855,201.055,206.095,208.853,213.294,218.273,220.373,223.131,225.889,233.688,238.129,240.23,242.988,247.967,252.408,254.508,257.266,262.306,265.064,269.505,272.811,280.609,285.051,290.03,292.788" svgx:width="0.39,0.5,0.5,0.72,0.39,0.25,0.76,0.45,0.5,0.28,0.76,0.5,0.76,0.25,0.45,0.5,0.5,0.39,0.5,0.76,0.5,0.28,0.28,0.5,0.5,0.25,0.25,0.45,0.28,0.25,0.72,0.5,0.28,0.45,0.5,0.25,0.28,0.28,0.76,0.45,0.25,0.28,0.5,0.45,0.25,0.28,0.5,0.28,0.45,0.33,0.76,0.45,0.5,0.28,0.33" style="fill:rgb(0,0,0);font-family:TTAA85o00;font-size:9.96px;stroke:none;">shows maximum consumption, at which time the intermedi-</text>
   <text y="704.772" x="58.62,63.062,65.879,70.321,72.782,76.147,78.906,81.664,84.481,88.923,92.23,94.751,98.655,103.635,108.615,113.595,116.412,121.392,123.913,128.893,133.335,135.856,140.298,145.278,149.72,154.7,159.68,164.122,169.162,171.623,174.988,180.505,183.322,188.302,190.792,193.283,198.323,203.303,205.764,208.285,212.905,217.945,221.252" svgx:width="0.45,0.28,0.45,0.25,0.33,0.28,0.28,0.28,0.45,0.33,0.25,0.39,0.5,0.5,0.5,0.28,0.5,0.25,0.5,0.45,0.25,0.45,0.5,0.45,0.5,0.5,0.45,0.5,0.25,0.33,0.55,0.28,0.5,0.25,0.55,0.5,0.5,0.25,0.25,0.5,0.5,0.33,0.25" style="fill:rgb(0,0,0);font-family:TTAA85o00;font-size:9.96px;stroke:none;">ate filter should be changed (Fig. 10, 11).</text>
   <text y="717.552" x="58.62,64.198,67.562,70.05199999999999,71.462,77.581,82.023,87.003,91.445,94.262,99.242" svgx:width="0.55,0.33,0.25,0.55,0.72,0.45,0.5,0.45,0.28,0.5,0.33" style="fill:rgb(0,0,0);font-family:TTAA84o00;font-size:9.96px;stroke:none;">d) Yearly-</text>
   <text y="717.552" x="102.54,105.03,106.501,110.404,114.845,118.151,123.191,125.948,130.389,133.147,138.126,143.165,145.655,147.066,149.882,153.787,156.27700000000002,157.687,162.727,167.169,170.475,173.839,178.818,182.124,189.923,194.364,199.343,201.833,203.304,208.283,213.262,215.752,217.223,221.664,226.643,231.683,236.124,239.43,242.188,246.091,248.58100000000002,250.052,253.358,256.722,261.701,269.5,271.99,273.461,277.305,281.747,286.787,291.229" svgx:width="0.25,0.55,0.39,0.45,0.33,0.5,0.28,0.45,0.28,0.5,0.5,0.25,0.55,0.28,0.39,0.25,0.55,0.5,0.45,0.33,0.33,0.5,0.33,0.76,0.45,0.5,0.25,0.55,0.5,0.5,0.25,0.55,0.45,0.5,0.5,0.45,0.33,0.28,0.39,0.25,0.55,0.33,0.33,0.5,0.76,0.25,0.55,0.39,0.45,0.5,0.45,0.5" style="fill:rgb(0,0,0);font-family:TTAA85o00;font-size:9.96px;stroke:none;"> servicing is performed by experts from Japan</text>
   <text y="730.272" x="58.62,63.66,68.64,71.945,74.762,79.741,84.72,87.001,94.201,99.241,101.999,106.44,111.419,113.7,116.458,121.497,125.939,128.16,133.199,138.178,142.62,145.984,150.367,153.183,155.941,158.222,165.422,170.401,173.766,178.746,181.562,186.541,191.52,193.801,198.242,203.221,208.2,213.24,215.998,218.756,221.573,226.552,231.531,233.811,238.79,242.155,244.436,247.194,252.173,256.614,258.895,262.259,266.642,271.083,273.899,276.657,279.415,282.232,287.211,289.492,292.25" svgx:width="0.5,0.5,0.33,0.28,0.5,0.5,0.25,0.72,0.5,0.28,0.45,0.5,0.25,0.28,0.5,0.45,0.25,0.5,0.5,0.45,0.33,0.45,0.28,0.28,0.25,0.72,0.5,0.33,0.5,0.28,0.5,0.5,0.25,0.45,0.5,0.5,0.5,0.28,0.28,0.28,0.5,0.5,0.25,0.5,0.33,0.25,0.28,0.5,0.45,0.25,0.33,0.45,0.45,0.28,0.28,0.28,0.28,0.5,0.25,0.28,0.39" style="fill:rgb(0,0,0);font-family:TTAA85o00;font-size:9.96px;stroke:none;">during which the overall working condition of the facility is</text>
   <text y="743.052" x="58.62,63.062,66.966,70.871,75.313,79.217,83.122,87.564,92.544,95.03399999999999,97.765,102.207,107.247,112.227,114.717,117.508,122.488,126.93,131.372,135.814,139.718,143.562,148.004,151.369,156.349,158.839,161.629,166.071,171.051,174.416,177.723,182.165,186.607,189.366,192.183,197.163,201.605,204.095,206.886,214.624,219.067,223.509,227.413,232.393,235.758,240.2,244.043,246.53300000000002,249.324,254.304,259.344,264.324,268.766,272.073,274.889,279.332,284.312,288.754,293.734" svgx:width="0.45,0.39,0.39,0.45,0.39,0.39,0.45,0.5,0.25,0.55,0.45,0.5,0.5,0.25,0.55,0.5,0.45,0.45,0.45,0.39,0.39,0.45,0.33,0.5,0.25,0.55,0.45,0.5,0.33,0.33,0.45,0.45,0.28,0.28,0.5,0.45,0.25,0.55,0.76,0.45,0.45,0.39,0.5,0.33,0.45,0.39,0.25,0.55,0.5,0.5,0.5,0.45,0.33,0.28,0.45,0.5,0.45,0.5,0.25" style="fill:rgb(0,0,0);font-family:TTAA85o00;font-size:9.96px;stroke:none;">assessed and necessary corrective measures undertaken.</text>
   <text y="755.771" x="58.62,65.335,70.853,77.506,81.41,83.89999999999999,84.891,89.334,92.698,97.14,99.63,100.621,103.986,108.966,116.764,119.521,124.501,128.944,131.702,136.145,141.184,143.674,144.665,149.108,154.088,159.127,161.61700000000002,162.608,169.809,175.926,180.544,187.803,190.293,191.284,194.649,197.408,200.167,202.925,207.368,210.732,214.636,217.126,218.117,222.56,225.866,230.308,232.798,233.849,238.291,243.271,247.714,252.694,257.733,262.175,267.155,269.645,270.636,275.079,277.895,282.875,287.855,292.835" svgx:width="0.67,0.55,0.67,0.39,0.25,0.55,0.45,0.33,0.45,0.25,0.55,0.33,0.5,0.76,0.28,0.5,0.45,0.28,0.45,0.5,0.25,0.55,0.45,0.5,0.5,0.25,0.55,0.72,0.61,0.55,0.72,0.25,0.55,0.33,0.28,0.28,0.28,0.45,0.33,0.39,0.25,0.55,0.45,0.33,0.45,0.25,0.55,0.45,0.5,0.45,0.5,0.5,0.45,0.5,0.25,0.55,0.45,0.28,0.5,0.5,0.5,0.33" style="fill:rgb(0,0,0);font-family:TTAA85o00;font-size:9.96px;stroke:none;">BSCs are fumigated and HEPA filters are changed along-</text>
   <text y="717.251" x="316.14,320.044,322.803,327.843,332.285,334.385,342.184,344.941,349.921,354.961,358.268,360.428,363.735,368.177,373.217,377.659,380.418,383.724,387.629,389.789,394.231,399.211,404.191,406.352,409.11,416.909,421.889,425.254,430.234,435.214,439.656,447.455,451.897,456.877,459.636,461.796,466.776,470.14,472.241,477.281,480.038,485.018,489.46,492.824,494.925,499.367,504.407,512.146,517.126,522.166,527.146,531.588,536.568,539.384,543.228,545.388,550.368" svgx:width="0.39,0.28,0.5,0.45,0.25,0.76,0.28,0.5,0.5,0.33,0.25,0.33,0.45,0.5,0.45,0.28,0.33,0.39,0.25,0.45,0.5,0.5,0.25,0.28,0.76,0.5,0.33,0.5,0.5,0.45,0.76,0.45,0.5,0.28,0.25,0.5,0.33,0.25,0.5,0.28,0.5,0.45,0.33,0.25,0.45,0.5,0.76,0.5,0.5,0.5,0.45,0.5,0.28,0.39,0.25,0.5,0.33" style="fill:rgb(0,0,0);font-family:TTAA85o00;font-size:9.96px;stroke:none;">side minor repairs and improvement of other components of</text>
   <text y="730.031" x="316.14,318.956,323.936,328.379,330.869,332.58,335.887,340.329,344.771,347.588,350.346,353.105,355.922,360.242,362.763,365.253,366.964,373.617,379.195,385.848,389.691,392.181,393.952,398.395,401.701,406.143,408.633,410.345,413.709,418.689,426.428,429.245,434.225,438.667,441.426,445.868,450.908,453.398,455.109,460.089,463.993,466.752,471.732,476.772,479.262,480.973,485.953,490.395,493.76,498.202,501.509,506.489,509.853,517.592,522.034,524.851,529.831,534.273,539.253,544.233,549.273" svgx:width="0.28,0.5,0.45,0.25,0.55,0.33,0.45,0.45,0.28,0.28,0.28,0.28,0.5,0.25,0.25,0.55,0.67,0.55,0.67,0.39,0.25,0.55,0.45,0.33,0.45,0.25,0.55,0.33,0.5,0.76,0.28,0.5,0.45,0.28,0.45,0.5,0.25,0.55,0.5,0.39,0.28,0.5,0.5,0.25,0.55,0.5,0.45,0.33,0.45,0.33,0.5,0.33,0.76,0.45,0.28,0.5,0.45,0.5,0.5,0.5,0.45" style="fill:rgb(0,0,0);font-family:TTAA85o00;font-size:9.96px;stroke:none;">the facility. BSCs are fumigated using paraformaldehyde</text>
   <text y="742.751" x="316.14,321.18,326.16,333.361,338.341,342.783,346.147,348.488,352.93,357.97,362.95,365.35,370.33,375.31,380.29,382.81,390.609,393.366,395.766,400.746,404.053,406.453,413.654,418.096,420.913,425.296,428.66,431.06,434.367,439.347,442.712,445.052,450.092,452.433,457.472,459.813,462.63,467.61,469.95,474.392,476.793,481.773,486.215,490.657,495.637,500.079,503.444,505.844,510.227,515.266,520.246,522.647,527.627,532.069,537.049,539.865,543.172,547.614,550.373" svgx:width="0.5,0.5,0.72,0.5,0.45,0.33,0.25,0.45,0.5,0.5,0.25,0.5,0.5,0.5,0.55,0.76,0.28,0.25,0.5,0.33,0.25,0.72,0.45,0.28,0.45,0.33,0.25,0.33,0.5,0.33,0.25,0.5,0.25,0.5,0.25,0.28,0.5,0.25,0.45,0.25,0.5,0.45,0.45,0.5,0.45,0.33,0.25,0.45,0.5,0.5,0.25,0.5,0.45,0.5,0.28,0.33,0.45,0.28,0.33" style="fill:rgb(0,0,0);font-family:TTAA85o00;font-size:9.96px;stroke:none;">powder and 100 ml of water for 1 h in a beaker and neutral-</text>
   <text y="755.53" x="316.14,318.956,323.399,327.781,332.821,335.282,340.322,344.165,346.982,351.962,356.942,359.463,363.905,371.644,379.443,384.423,389.462,392.219,397.199,404.998,407.459,412.499,417.479,422.459,425.823,430.803,435.783,440.226,445.206,447.727,452.169,456.611,459.918,464.957,469.937,474.917,479.36,482.176,486.618,489.079,492.444,497.962,500.721,505.761,508.25100000000003,510.742,515.721,520.761,524.066,526.586,529.047,534.803,538.167,542.609,545.368,550.348" svgx:width="0.28,0.45,0.45,0.5,0.25,0.5,0.39,0.28,0.5,0.5,0.25,0.45,0.76,0.76,0.5,0.5,0.28,0.5,0.76,0.25,0.5,0.5,0.5,0.33,0.5,0.5,0.45,0.5,0.25,0.45,0.45,0.33,0.5,0.5,0.5,0.45,0.28,0.45,0.25,0.33,0.55,0.28,0.5,0.25,0.55,0.5,0.5,0.33,0.25,0.25,0.61,0.33,0.45,0.28,0.5,0.33" style="fill:rgb(0,0,0);font-family:TTAA85o00;font-size:9.96px;stroke:none;">ized using ammonium hydrogen carbonate (Fig. 12). Train-</text>
  </g>
  <rect style="stroke:blue;stroke-width:0.3;" x="77.46" y="69.622" height="195.6" width="200.16" title="6"/>
  <text y="69.622" class="image" id="image.6.1" width="200" height="195" x="77.46">image.6.1.77_278.70_265</text>
  <g begin="text">
   <text y="323.774" x="58.62,63.781,66.356,70.972,73.297,75.648,80.265,82.59,88.84,94.542,98.68,103.296,105.632,109.23,111.805,115.942,118.881,121.94,124.275,128.413,133.029,137.167,141.783,146.46,149.036,153.652,158.328,160.604,165.281,168.337,172.474,175.589,178.648,181.223,183.798,186.373,190.511,193.625" svgx:width="0.56,0.28,0.5,0.25,0.55,0.5,0.25,0.55,0.61,0.44,0.5,0.25,0.39,0.28,0.44,0.33,0.33,0.25,0.44,0.5,0.44,0.5,0.5,0.28,0.5,0.5,0.25,0.5,0.34,0.44,0.34,0.33,0.28,0.28,0.28,0.44,0.34,0.39" style="fill:rgb(0,0,0);font-family:TTAA99o00;font-size:9.3px;stroke:none;">Fig. 7. Lab staff changing pre-filters</text>
  </g>
  <rect style="stroke:blue;stroke-width:0.3;" x="77.46" y="307.582" height="170.64" width="200.16" title="6"/>
  <text y="307.582" class="image" id="image.6.2" width="200" height="170" x="77.46">image.6.2.77_278.308_478</text>
  <g begin="text">
   <text y="536.834" x="58.62,63.781,66.356,70.972,73.297,75.648,80.265,82.59,88.84,95.025,97.6,101.738,105.875,110.492,112.827,116.964,121.581,126.258,128.593,132.191,136.808,139.383,141.958,146.096,150.773,153.048,157.725,160.781,164.919,168.034,171.092,173.668,176.243,178.818,182.955,186.07" svgx:width="0.56,0.28,0.5,0.25,0.55,0.5,0.25,0.55,0.67,0.28,0.44,0.44,0.5,0.25,0.44,0.5,0.5,0.25,0.39,0.5,0.28,0.28,0.44,0.5,0.25,0.5,0.34,0.44,0.34,0.33,0.28,0.28,0.28,0.44,0.34,0.39" style="fill:rgb(0,0,0);font-family:TTAA99o00;font-size:9.3px;stroke:none;">Fig. 8. Clean and soiled pre-filters</text>
  </g>
  <rect style="stroke:blue;stroke-width:0.3;" x="334.92" y="69.622" height="157.2" width="200.16" title="6"/>
  <text y="69.622" class="image" id="image.6.3" width="200" height="157" x="334.92">image.6.3.335_535.70_227</text>
  <g begin="text">
   <text y="285.794" x="316.14,321.302,323.878,328.494,330.819,333.17,337.787,340.11199999999997,346.362,354.641,358.78,363.396,368.013,375.277,379.415,381.991,386.13,389.186,391.521,396.138,399.257,401.592,404.168,408.785,411.361,415.499,418.555,425.82,429.958,434.575,437.151,441.289,443.865,448.004,450.339,453.399,455.975,458.551,461.127,465.266" svgx:width="0.56,0.28,0.5,0.25,0.55,0.5,0.25,0.55,0.89,0.44,0.5,0.5,0.77,0.44,0.28,0.44,0.34,0.25,0.5,0.33,0.25,0.28,0.5,0.28,0.44,0.34,0.77,0.44,0.5,0.28,0.44,0.28,0.44,0.25,0.33,0.28,0.28,0.28,0.44,0.34" style="fill:rgb(0,0,0);font-family:TTAA99o00;font-size:9.3px;stroke:none;">Fig. 9. Manometer of intermediate filter</text>
  </g>
  <rect style="stroke:blue;stroke-width:0.3;" x="334.92" y="269.602" height="168.0" width="200.16" title="6"/>
  <text y="269.602" class="image" id="image.6.4" width="200" height="168" x="334.92">image.6.4.335_535.270_438</text>
  <g begin="text">
   <text y="496.814" x="316.14,321.302,323.878,328.494,330.819,333.17,337.787,342.465,344.78999999999996,350.981,356.623,360.759,365.376,367.711,371.31,373.886,378.025,380.964,384.083,386.359,389.474,393.613,400.816,405.492,410.109,412.686,417.364,421.98,424.316,428.932,432.531,436.67,441.348,444.404,449.08,453.696,456.031,458.607,463.224,465.8,469.939,473.054,480.258,484.396,489.013,491.589,495.727,498.304,502.442,504.777,507.837,510.413,512.989,515.626,519.703,522.818" svgx:width="0.56,0.28,0.5,0.25,0.55,0.5,0.5,0.25,0.55,0.61,0.44,0.5,0.25,0.39,0.28,0.44,0.33,0.33,0.25,0.34,0.44,0.77,0.5,0.5,0.28,0.5,0.5,0.25,0.5,0.39,0.44,0.5,0.34,0.5,0.5,0.25,0.28,0.5,0.28,0.44,0.34,0.77,0.44,0.5,0.28,0.44,0.28,0.44,0.25,0.33,0.28,0.28,0.28,0.44,0.34,0.39" style="fill:rgb(0,0,0);font-family:TTAA99o00;font-size:9.3px;stroke:none;">Fig. 10. Lab staff removing used-up intermediate filters</text>
  </g>
  <rect style="stroke:blue;stroke-width:0.3;" x="334.92" y="480.622" height="146.16" width="200.16" title="6"/>
  <text y="480.622" class="image" id="image.6.5" width="200" height="146" x="334.92">image.6.5.335_535.481_627</text>
  <g begin="text">
   <text y="685.814" x="316.14,321.302,323.878,328.494,330.819,333.17,337.486,342.103,344.428,350.979,357.642,361.3,365.377,370.053,373.109,377.785,382.402,384.737,388.875,393.492,398.17,400.445,404.584,407.16,411.298,415.437,420.053,422.389,424.965,429.581,432.218,436.295,439.411,446.614,450.753,455.431,458.007,462.084,464.661,468.799,471.135,474.254,476.83,479.406,481.982,486.059,489.175" svgx:width="0.56,0.28,0.5,0.25,0.55,0.5,0.5,0.25,0.55,0.72,0.39,0.44,0.5,0.34,0.5,0.5,0.25,0.44,0.5,0.5,0.25,0.44,0.28,0.44,0.44,0.5,0.25,0.28,0.5,0.28,0.44,0.34,0.77,0.44,0.5,0.28,0.44,0.28,0.44,0.25,0.33,0.28,0.28,0.28,0.44,0.34,0.39" style="fill:rgb(0,0,0);font-family:TTAA99o00;font-size:9.3px;stroke:none;">Fig. 11. Used-up and clean intermediate filters</text>
  </g>
 </g>
</svg>
