<?xml version="1.0" encoding="UTF-8"?>
<svg height="647.74" width="300.61" xmlns="http://www.w3.org/2000/svg">
 <g>
  <path style="fill:rgb(19,20,19);stroke:none;stroke-width:1.0;" d="M56.520 378.820 L290.610 378.820 L290.610 378.990 L56.520 378.990 "/>
  <path style="fill:rgb(19,20,19);stroke:none;stroke-width:0.25;" d="M60.490 479.340 L286.580 479.340 L286.580 479.570 L60.490 479.570 "/>
  <path style="fill:rgb(19,20,19);stroke:none;stroke-width:0.25;" d="M286.580 479.340 L287.260 479.400 C289.120 479.740 290.060 480.870 290.550 482.630 L290.610 483.310 L290.330 483.310 L290.270 482.680 C289.980 481.110 288.830 479.940 287.260 479.620 L286.580 479.570 "/>
  <path style="fill:rgb(19,20,19);stroke:none;stroke-width:0.25;" d="M290.610 483.310 L290.610 633.770 L290.330 633.770 L290.330 483.310 "/>
  <path style="fill:rgb(19,20,19);stroke:none;stroke-width:0.25;" d="M290.610 633.770 L290.550 634.450 C290.250 636.050 288.930 637.490 287.260 637.680 L286.580 637.740 L286.580 637.510 L287.260 637.460 C288.830 637.140 289.980 635.970 290.270 634.390 L290.330 633.770 "/>
  <path style="fill:rgb(19,20,19);stroke:none;stroke-width:0.25;" d="M286.580 637.740 L60.490 637.740 L60.490 637.510 L286.580 637.510 "/>
  <path style="fill:rgb(19,20,19);stroke:none;stroke-width:0.25;" d="M60.490 637.740 L59.810 637.680 C58.180 637.440 56.820 636.080 56.580 634.450 L56.520 633.770 L56.750 633.770 L56.810 634.390 C57.030 635.910 58.390 637.240 59.870 637.460 L60.490 637.510 "/>
  <path style="fill:rgb(19,20,19);stroke:none;stroke-width:0.25;" d="M56.520 633.770 L56.520 483.310 L56.750 483.310 L56.750 633.770 "/>
  <path style="fill:rgb(19,20,19);stroke:none;stroke-width:0.25;" d="M56.520 483.310 L56.580 482.630 C56.820 481.000 58.180 479.630 59.810 479.400 L60.490 479.340 L60.490 479.570 L59.870 479.620 C58.390 479.840 57.030 481.170 56.810 482.680 L56.750 483.310 "/>
 </g>
</svg>
