<?xml version="1.0" encoding="UTF-8"?>
<svg height="767.08" width="4069.981" xmlns="http://www.w3.org/2000/svg">
 <g id="page" xmlns:svgx="http://www.xml-cml.org/schema/svgx">
  <path style="fill:rgb(59,90,166);stroke:none;stroke-width:1.0;" d="M324.170 477.130 L360.110 477.130 Z"/>
  <path style="fill:rgb(59,90,166);stroke:none;stroke-width:1.0;" d="M223.140 671.070 L232.670 671.070 Z"/>
  <path style="fill:rgb(59,90,166);stroke:none;stroke-width:1.0;" d="M237.150 671.070 L246.670 671.070 Z"/>
  <g begin="text">
   <text y="346.054" x="200.012,202.882,207.113,211.443,214.423,219.693,223.402,227.632,231.232,233.46,237.86,240.036,245.516,249.746,254.387,258.716,261.697,264.357,268.896,273.126,275.586,280.18600000000004,282.387,287.547,291.257,295.487,299.086,302.686,307.956,311.667,314.327,317.927,322.156,327.456,329.667,334.208,336.867,342.348,346.888,349.388,351.607,356.667,361.727,366.42699999999996,368.615,371.596,376.866,381.195,384.195,386.36,390.69,393.151,395.611,400.671,407.501,411.101,413.346,416.947,421.277,424.147,428.447,430.638,435.797,439.508,444.568,448.798,453.028,456.628,460.228,462.888,468.368,473.068,475.255,480.315,483.215,485.46,490.52,493.18,498.24,503.51,507.84,511.96,516.29,520.0,525.27,530.33,535.6,539.2,541.471,549.651,553.982,556.961,561.192,564.901,567.561,571.891" svgx:width="0.29,0.43,0.44,0.3,0.53,0.38,0.43,0.36,0.55,0.44,0.55,0.55,0.43,0.47,0.44,0.3,0.27,0.46,0.43,0.25,0.46,0.55,0.52,0.38,0.43,0.36,0.36,0.53,0.38,0.27,0.36,0.43,0.53,0.55,0.46,0.27,0.55,0.46,0.25,0.55,0.51,0.51,0.47,0.55,0.3,0.53,0.44,0.3,0.55,0.44,0.25,0.25,0.51,0.69,0.36,0.55,0.36,0.44,0.29,0.43,0.55,0.52,0.38,0.51,0.43,0.43,0.36,0.36,0.27,0.55,0.47,0.55,0.51,0.29,0.55,0.51,0.27,0.51,0.53,0.44,0.42,0.44,0.38,0.53,0.51,0.53,0.36,0.55,0.82,0.44,0.3,0.43,0.38,0.27,0.44,0.25" style="fill:rgb(0,0,0);font-family:MinionPro-Regular;font-size:10.0px;stroke:none;">features a negatively pressurised vinyl box that allows safe processing of biohazardous material</text>
   <text y="359.036" x="200.012,204.342,209.822,215.122,217.303,221.703,223.822,227.423,232.482,234.943,237.602,242.90200000000002,245.139,250.299,254.529,258.24,261.839,266.999,271.229,275.929,278.134,283.294,287.625,291.224,294.824,298.324,303.384,308.444,313.144,315.324,318.305,323.575,327.905,330.905,333.126,337.357,342.836,347.167,352.227,354.687,358.917,362.517,364.76,368.361,372.69,375.561,379.861,382.052,387.211,391.542,395.142,398.742,403.072,407.712,412.012,414.196,419.257,422.157,424.344,432.524,436.854,439.835,444.065,447.775,450.435,454.765,457.225,460.82500000000005,463.065,465.726,471.206,474.185,479.285,481.49,485.82,491.301,496.601,498.781,503.841,509.112,512.1120000000001,514.315,519.375,522.275,524.464,527.443,532.714,537.014,539.146,543.376,548.437,553.917,556.896,561.227,563.886,569.366" svgx:width="0.44,0.55,0.53,0.55,0.44,0.55,0.36,0.51,0.25,0.27,0.53,0.55,0.52,0.43,0.38,0.36,0.52,0.43,0.47,0.55,0.52,0.44,0.36,0.36,0.35,0.51,0.51,0.47,0.55,0.3,0.53,0.44,0.3,0.55,0.43,0.55,0.44,0.51,0.25,0.43,0.36,0.55,0.36,0.44,0.29,0.43,0.55,0.52,0.44,0.36,0.36,0.44,0.47,0.43,0.55,0.51,0.29,0.55,0.82,0.44,0.3,0.43,0.38,0.27,0.44,0.25,0.36,0.55,0.27,0.55,0.3,0.51,0.55,0.44,0.55,0.53,0.55,0.51,0.53,0.3,0.55,0.51,0.29,0.55,0.3,0.53,0.43,0.55,0.43,0.51,0.55,0.3,0.44,0.27,0.55,0.35" style="fill:rgb(0,0,0);font-family:MinionPro-Regular;font-size:10.0px;stroke:none;">and a solid perspex pass-box that enables safe passage of materials into and out of the contain-</text>
   <text y="372.075" x="200.012,208.193,212.423,217.902,220.902,223.085,227.415,231.126,235.355,239.686" svgx:width="0.82,0.43,0.55,0.3,0.55,0.44,0.38,0.43,0.44,0.23" style="fill:rgb(0,0,0);font-family:MinionPro-Regular;font-size:10.0px;stroke:none;">ment area.</text>
   <text y="385.058" x="211.975,217.555,223.134,228.83399999999997,231.079,237.91,242.969,246.68,252.18,254.38,259.44,264.04,266.172,269.772,272.753,277.082,279.953,282.85299999999995,285.107,289.338,293.978,296.638,299.617,302.277,307.758,312.45799999999997,314.645,317.625,322.895,327.195,329.328,333.557,338.617,344.098,347.078,351.408,354.068,359.547,367.728,371.958,377.438,380.438,382.732,387.063,390.773,395.003,399.40299999999996,401.555,408.385,412.715,416.315,418.505,423.776,428.005,432.236,437.296,442.776,445.756,450.086,458.266,460.926,466.406,470.736,473.716,477.946,483.24600000000004,485.516,490.576,495.17600000000004,497.365,500.344,507.174,512.274,514.429,518.138,523.198,528.469,533.948,539.219,542.8190000000001,545.099,550.16" svgx:width="0.56,0.56,0.57,0.55,0.69,0.51,0.38,0.55,0.55,0.51,0.46,0.55,0.36,0.3,0.44,0.29,0.29,0.55,0.43,0.47,0.27,0.3,0.27,0.55,0.47,0.55,0.3,0.53,0.43,0.55,0.43,0.51,0.55,0.3,0.44,0.27,0.55,0.82,0.43,0.55,0.3,0.55,0.44,0.38,0.43,0.44,0.55,0.69,0.44,0.36,0.55,0.53,0.43,0.43,0.51,0.55,0.3,0.44,0.82,0.27,0.55,0.44,0.3,0.43,0.53,0.55,0.51,0.46,0.55,0.3,0.69,0.51,0.55,0.38,0.51,0.53,0.55,0.53,0.36,0.55,0.51,0.29" style="fill:rgb(0,0,0);font-family:MinionPro-Regular;font-size:10.0px;stroke:none;">PPE worn by staff exiting the containment area was decontaminated by two rounds of</text>
   <text y="398.041" x="200.012,208.193,210.852,214.452,217.432,220.932,224.533,229.693,233.402,237.732,242.332,244.572,249.842,253.443,256.102,261.582,266.282,268.44,272.84,274.96,280.12,283.829,288.06,291.659,295.259,300.53,304.24,306.9,310.5,314.729,320.029,322.297,326.527,331.587,337.068,340.047,344.378,347.038,352.518,356.747,360.547,362.719,369.549,372.21,375.19,380.49,382.675,386.276,391.436,395.146,399.476,404.076,406.26,411.74,416.799,420.919,425.04,427.5,431.8,433.983,438.213,443.273,448.753,451.733,456.063,458.723,464.203,466.863,472.343,477.043,479.279,484.029,486.28,491.03,495.78,505.585,509.815,515.085,517.544,522.604,526.315,528.974,534.454,538.7539999999999,540.905,546.175,548.835,552.435,555.095,560.575,563.445,567.674,571.905" svgx:width="0.82,0.27,0.36,0.3,0.35,0.36,0.52,0.38,0.44,0.46,0.55,0.53,0.36,0.27,0.55,0.47,0.55,0.44,0.55,0.52,0.38,0.43,0.36,0.36,0.53,0.38,0.27,0.36,0.43,0.53,0.55,0.43,0.51,0.55,0.3,0.44,0.27,0.55,0.43,0.38,0.55,0.69,0.27,0.3,0.53,0.55,0.36,0.52,0.38,0.44,0.46,0.55,0.55,0.51,0.42,0.42,0.25,0.43,0.55,0.43,0.51,0.55,0.3,0.44,0.27,0.55,0.27,0.55,0.47,0.55,0.48,0.23,0.48,0.48,0.76,0.43,0.53,0.25,0.51,0.38,0.27,0.55,0.43,0.55,0.53,0.27,0.36,0.27,0.55,0.29,0.43,0.43,0.35" style="fill:rgb(0,0,0);font-family:MinionPro-Regular;font-size:10.0px;stroke:none;">mist-spray using a pressurised container with spray nozzle containing 0.05%chlorine disinfec-</text>
   <text y="411.023" x="200.013,202.993,207.323,212.803,215.783,218.083,220.252,226.352,231.622,235.92200000000003,238.053,240.923,243.583,247.293,250.893,253.893,256.138,264.318,266.978,270.578,273.578,275.81,279.41,284.57,288.28,292.61,297.21000000000004,299.395,306.225,310.555,314.15500000000003,316.346,321.506,325.736,329.446,332.316,337.376,341.086,349.266,353.496,358.796,361.076,367.906,370.566,373.546,378.816,381.476,386.976,389.196,392.176,397.446,401.74600000000004,403.879,407.269,410.869,415.929,422.759,426.469,431.469,433.699,438.759,441.419,446.479,450.709,455.769,461.249,464.229,468.559,471.219,476.699,484.879,489.109,494.589,497.569,499.869,502.127,508.957,511.827,514.807,519.037,522.837,524.974,527.954,533.224,537.524,539.658,543.368,547.598,555.778,560.838,565.378,569.708" svgx:width="0.3,0.44,0.55,0.3,0.23,0.55,0.61,0.53,0.43,0.55,0.29,0.27,0.38,0.36,0.3,0.55,0.82,0.27,0.36,0.3,0.55,0.36,0.52,0.38,0.44,0.46,0.55,0.69,0.44,0.36,0.55,0.52,0.43,0.38,0.29,0.51,0.38,0.82,0.43,0.53,0.55,0.69,0.27,0.3,0.53,0.27,0.55,0.55,0.3,0.53,0.43,0.55,0.34,0.36,0.51,0.69,0.38,0.5,0.55,0.51,0.27,0.51,0.43,0.51,0.55,0.3,0.44,0.27,0.55,0.82,0.43,0.55,0.3,0.23,0.55,0.69,0.29,0.3,0.43,0.38,0.55,0.3,0.53,0.43,0.55,0.38,0.43,0.82,0.51,0.46,0.44,0.25" style="fill:rgb(0,0,0);font-family:MinionPro-Regular;font-size:10.0px;stroke:none;">tant. The first mist spray was performed within the IsoArk biocontainment. After the removal</text>
   <text y="424.062" x="200.013,204.343,209.823,215.12300000000002,217.304,222.574,225.234,228.834,233.994,239.054,242.654,246.984,249.484,251.716,256.776,259.676,261.864,266.924,271.464,275.694,279.404,283.004,288.274,293.334,297.634,299.791,304.021,309.081,313.621,317.851,321.561,324.221,329.701,334.341,337.94100000000003,340.213,344.543,350.023,355.32300000000004,357.504,360.484,365.754,370.05400000000003,372.244,375.114,377.774,381.484,385.084,388.084,390.273,395.433,399.763,402.423,406.223,408.358,413.418,416.318,418.506,423.146,425.606,430.666,435.206,439.436,443.036,445.264,447.924,453.404,456.384,461.48400000000004,463.69,468.09,470.209,475.269,477.929,482.989,485.449,490.509,495.149,497.809,502.039,506.369,508.869,511.141,517.971,522.301,525.901,528.881,533.1809999999999,535.349,540.409,544.739,549.379,551.679,553.831,558.231,560.35,563.95,568.18,572.41" svgx:width="0.44,0.55,0.53,0.55,0.53,0.27,0.36,0.52,0.51,0.36,0.44,0.25,0.55,0.51,0.29,0.55,0.51,0.46,0.43,0.38,0.36,0.53,0.51,0.43,0.55,0.43,0.51,0.46,0.43,0.38,0.27,0.55,0.47,0.36,0.55,0.44,0.55,0.53,0.55,0.3,0.53,0.43,0.55,0.29,0.27,0.38,0.36,0.3,0.55,0.52,0.44,0.27,0.38,0.55,0.51,0.29,0.55,0.47,0.25,0.51,0.46,0.43,0.36,0.55,0.27,0.55,0.3,0.51,0.55,0.44,0.55,0.51,0.27,0.51,0.25,0.51,0.47,0.27,0.43,0.44,0.25,0.55,0.69,0.44,0.36,0.3,0.43,0.55,0.51,0.44,0.47,0.23,0.55,0.44,0.55,0.36,0.43,0.43,0.35" style="fill:rgb(0,0,0);font-family:MinionPro-Regular;font-size:10.0px;stroke:none;">and disposal of overshoe coverings and the first pair of gloves into a biological waste bag, a sec-</text>
   <text y="437.045" x="200.013,205.073,210.553,215.853,218.041,226.221,228.881,232.481,235.461,238.961,244.121,247.831,252.161,256.761,258.973,265.803,270.133,273.733,275.981,281.141,285.371,289.081,291.951,297.011,300.721,308.901,313.131,318.431,320.654,323.314,328.794,332.394,335.054,340.324,344.624,346.79,349.77,355.04,359.34000000000003,361.473,365.803,368.463,372.173,374.633,379.693,383.923,388.883,391.183,393.391,400.221,403.091,406.071,410.301,414.101,416.238,420.568,423.028,425.488,430.548,437.378,440.038,445.518,450.21799999999996,452.464,457.264,459.381,467.561,470.221,475.701,480.971,483.951,488.181,491.781,494.077,499.137,502.037,504.225,508.455,513.515,518.995,521.975,526.305,530.535,533.535,535.746,538.726,541.386,549.566,553.866,556.042,562.872,565.532,568.512" svgx:width="0.51,0.55,0.53,0.55,0.82,0.27,0.36,0.3,0.35,0.52,0.38,0.44,0.46,0.55,0.69,0.44,0.36,0.55,0.52,0.43,0.38,0.29,0.51,0.38,0.82,0.43,0.53,0.55,0.27,0.55,0.36,0.27,0.53,0.43,0.55,0.3,0.53,0.43,0.55,0.44,0.27,0.38,0.25,0.51,0.43,0.5,0.23,0.55,0.69,0.29,0.3,0.43,0.38,0.55,0.44,0.25,0.25,0.51,0.69,0.27,0.55,0.47,0.55,0.48,0.55,0.82,0.27,0.55,0.53,0.3,0.43,0.36,0.55,0.51,0.29,0.55,0.43,0.51,0.55,0.3,0.44,0.43,0.3,0.55,0.3,0.27,0.82,0.43,0.55,0.69,0.27,0.3,0.53" style="fill:rgb(0,0,0);font-family:MinionPro-Regular;font-size:10.0px;stroke:none;">ond mist-pray was performed inside the airlock. After allowing 3 minutes of contact time with</text>
   <text y="450.028" x="200.013,202.993,208.263,212.56300000000002,214.696,219.966,222.626,226.226,228.886,234.366,237.236,241.466,245.696,248.676,253.006,258.486,261.486,263.735,267.335,272.395,274.855,280.125,283.105,285.765,290.825,296.305,298.605,300.812,305.872,311.032,315.262,318.972,323.302,326.282,331.342,335.052,338.65200000000004,340.95,347.78,352.01,355.72,360.02000000000004,362.153,367.313,371.543,375.253,383.433,386.093,389.073,392.053,396.283,401.583,403.822,406.802,411.90200000000004,414.084,416.544,420.774,425.104,429.644,433.944,436.08,439.06,444.33,448.63,450.82,455.15,457.81,461.52,463.98,469.04,473.27,478.27,480.471,484.801,490.281,495.581,497.762,501.992,507.052,515.232,520.392,522.852,527.082,530.062,534.362,536.54,542.12,547.7,553.4000000000001,555.645,560.915,565.975,568.845,571.714" svgx:width="0.3,0.53,0.43,0.55,0.53,0.27,0.36,0.27,0.55,0.29,0.43,0.43,0.3,0.44,0.55,0.3,0.55,0.36,0.51,0.25,0.53,0.3,0.27,0.51,0.55,0.23,0.55,0.51,0.52,0.43,0.38,0.44,0.3,0.51,0.38,0.36,0.55,0.69,0.43,0.38,0.43,0.55,0.52,0.43,0.38,0.82,0.27,0.3,0.3,0.43,0.53,0.55,0.3,0.51,0.55,0.25,0.43,0.44,0.46,0.43,0.55,0.3,0.53,0.43,0.55,0.44,0.27,0.38,0.25,0.51,0.43,0.5,0.55,0.44,0.55,0.53,0.55,0.43,0.51,0.82,0.52,0.25,0.43,0.3,0.43,0.55,0.56,0.56,0.57,0.55,0.53,0.51,0.29,0.29,0.35" style="fill:rgb(0,0,0);font-family:MinionPro-Regular;font-size:10.0px;stroke:none;">the disinfectant solution, operators were permitted to leave the airlock and complete PPE doff-</text>
   <text y="463.067" x="200.012,202.673,208.152,212.792,215.092,217.246,222.826,226.536,231.596,235.826,240.056,245.326,250.596,254.306,258.536,262.136,264.414,267.074,272.574,274.789,277.77,283.039,287.339,289.473,293.383,298.652,303.712,306.693,310.693,312.831,316.54,321.6,326.66,337.094,339.964,345.024,347.484,349.945,355.005,361.834,366.065,371.365,373.604,378.664,383.264,385.396,389.626,394.266,396.927,399.927,402.12,404.99,408.701,413.76,424.231,427.621,431.221,436.281,443.112,446.822,451.822,453.994,458.324,462.034,466.334,468.507,472.837,478.107,483.378,486.037,489.018,491.677,496.737,502.218,506.547,509.008,511.468,516.068,518.284,520.944,523.404,525.864,531.134,534.734,537.714,541.424,545.754,548.734,552.964,558.264,560.519,563.179" svgx:width="0.27,0.55,0.47,0.23,0.55,0.56,0.38,0.51,0.43,0.43,0.53,0.53,0.38,0.43,0.36,0.55,0.27,0.55,0.55,0.3,0.53,0.43,0.55,0.4,0.53,0.51,0.3,0.4,0.55,0.38,0.51,0.51,0.82,0.29,0.51,0.25,0.25,0.51,0.69,0.43,0.53,0.55,0.51,0.46,0.55,0.43,0.47,0.27,0.3,0.55,0.29,0.38,0.51,0.82,0.34,0.36,0.51,0.69,0.38,0.5,0.55,0.44,0.38,0.43,0.55,0.44,0.53,0.53,0.27,0.3,0.27,0.51,0.55,0.44,0.25,0.25,0.46,0.55,0.27,0.25,0.25,0.53,0.36,0.3,0.38,0.44,0.3,0.43,0.53,0.55,0.27,0.55" style="fill:rgb(0,0,0);font-family:MinionPro-Regular;font-size:10.0px;stroke:none;">ing. Procedures in the “hot” roomfollowed by exit fromIsoArk are additionally illustrated in</text>
   <text y="476.05" x="200.012,203.612,208.882,214.042,219.202,221.662,225.892,234.072,238.302,243.782,246.762,251.092,254.802,259.402,261.636,266.176,268.836,274.106,278.336,283.43600000000004,285.617,293.797,298.127,301.107,305.337,309.047,311.707,316.037,318.537,320.767" svgx:width="0.36,0.53,0.52,0.52,0.25,0.43,0.82,0.43,0.55,0.3,0.44,0.38,0.46,0.55,0.46,0.27,0.53,0.43,0.51,0.55,0.82,0.44,0.3,0.43,0.38,0.27,0.44,0.25,0.55,0.34" style="fill:rgb(0,0,0);font-family:MinionPro-Regular;font-size:10.0px;stroke:none;">supplementary video material (</text>
   <text y="476.05" x="324.157,328.907,333.707,335.904,342.834,345.494,350.764,354.994" svgx:width="0.48,0.48,0.55,0.7,0.27,0.53,0.43,0.51" style="fill:rgb(59,90,166);font-family:MinionPro-Regular;font-size:10.0px;stroke:none;">S1 Video</text>
   <text y="476.05" x="360.054,363.444" svgx:width="0.34,0.23" style="fill:rgb(0,0,0);font-family:MinionPro-Regular;font-size:10.0px;stroke:none;">).</text>
  </g>
  <g begin="text">
   <text y="510.009" x="200.012,209.969,216.553,223.137,229.722,236.306,238.946,241.511,247.471,250.047,254.004,260.588,263.228,265.776,274.352,282.928,290.968,293.555,300.14,306.1,309.432,313.389,319.973,325.933,329.266,331.842,338.427" svgx:width="0.83,0.55,0.55,0.55,0.55,0.22,0.55,0.5,0.22,0.33,0.55,0.22,0.55,0.72,0.72,0.67,0.55,0.55,0.5,0.28,0.33,0.55,0.5,0.28,0.22,0.55,0.55" style="fill:rgb(0,0,0);font-family:Helvetica;font-size:12.0px;stroke:none;">Manual viral RNA extraction</text>
  </g>
  <g begin="text">
   <text y="527.017" x="200.012,208.923,213.253,218.732,224.003,228.332,230.832,233.007,239.217,246.568,253.46800000000002,255.628,259.857,264.497,267.477,271.188,275.517,279.747,282.727,285.387,290.447,295.947,298.203,305.033,309.363,312.963,315.211,319.441,323.771,327.482,331.191,333.852,338.081,343.38100000000003,345.599,350.659,355.928,358.928,361.133,366.402,370.003,372.663,378.143,382.84299999999996,385.0,387.979,393.25,397.55,399.74,407.199,410.589,417.419,425.599,430.799,433.018,437.558,440.219,443.928,448.258,450.758,452.917,459.128,466.477,473.37699999999995,475.537,480.497,483.157,486.157,488.35,491.74,499.201,501.86,506.19,510.831,515.06,520.54,522.8399999999999,525.087,532.747,535.407,537.867,543.137,547.367,552.847,555.1469999999999,557.345,564.485,568.715,572.425" svgx:width="0.89,0.44,0.55,0.53,0.44,0.25,0.55,0.63,0.74,0.69,0.55,0.43,0.47,0.3,0.38,0.44,0.43,0.3,0.27,0.51,0.55,0.55,0.69,0.44,0.36,0.55,0.43,0.44,0.38,0.38,0.27,0.43,0.53,0.55,0.51,0.53,0.3,0.55,0.53,0.36,0.27,0.55,0.47,0.55,0.3,0.53,0.43,0.55,0.75,0.34,0.69,0.82,0.52,0.55,0.46,0.27,0.38,0.44,0.25,0.55,0.63,0.74,0.69,0.55,0.5,0.27,0.3,0.55,0.34,0.75,0.27,0.44,0.47,0.43,0.55,0.23,0.55,0.77,0.27,0.25,0.53,0.43,0.55,0.23,0.55,0.72,0.43,0.38,0.35" style="fill:rgb(0,0,0);font-family:MinionPro-Regular;font-size:10.0px;stroke:none;">Manual RNA extraction was carried out using the QIAmp viral RNA kit (Qiagen, Hilden, Ger-</text>
   <text y="539.999" x="200.012,208.192,212.522,218.002,222.542,225.942,228.188,232.518,236.748,240.978,246.038,249.748,255.018,257.678,263.158,267.858,270.027,273.007,278.107,280.288,283.268,288.538,292.838,294.972,303.152,307.482,312.962,318.232,321.102,325.432,329.662,332.642,337.912,341.622,345.852,349.563,351.702,355.302,357.617,360.277,365.757,369.357,372.337,376.047,381.318,385.547,388.527,391.188,396.247,401.728,405.328,407.628,409.887,416.507,418.967,424.027,427.007,429.987,434.217,439.517,441.749,446.809,450.60900000000004,452.69,459.52,464.79,469.85,472.31,476.61,478.769,483.829,486.289,491.349,496.409,501.709,503.94,506.6,512.1,514.315,518.855,523.185,527.415,532.685,535.665,539.995,542.655,548.135,552.365" svgx:width="0.82,0.44,0.55,0.46,0.34,0.55,0.44,0.43,0.43,0.51,0.38,0.53,0.27,0.55,0.47,0.55,0.3,0.51,0.55,0.3,0.53,0.43,0.55,0.82,0.44,0.55,0.53,0.29,0.44,0.43,0.3,0.53,0.38,0.43,0.38,0.22,0.36,0.55,0.27,0.55,0.36,0.3,0.38,0.53,0.43,0.3,0.27,0.51,0.55,0.36,0.23,0.55,0.67,0.25,0.51,0.3,0.3,0.43,0.53,0.55,0.51,0.38,0.55,0.69,0.53,0.51,0.25,0.43,0.55,0.51,0.25,0.51,0.51,0.53,0.55,0.27,0.55,0.55,0.46,0.44,0.43,0.53,0.3,0.44,0.27,0.55,0.43,0.38" style="fill:rgb(0,0,0);font-family:MinionPro-Regular;font-size:10.0px;stroke:none;">many) according to the manufacturer’s instructions. Clotted or whole blood in vacutainer</text>
   <text y="552.982" x="200.012,202.992,208.262,213.322,217.552,221.152,223.369,230.199,234.429,238.139,242.43900000000002,244.572,248.802,253.032,258.512,261.492,265.202,267.862,270.732,276.002,280.642,284.872,290.142,292.442,294.688,299.958,303.558,306.218,311.698,316.39799999999997,318.612,322.212,326.542,329.412,333.642,336.622,341.22200000000004,343.387,348.447,353.717,357.947,362.907,367.137,370.117,373.717,376.017,378.196,380.856,386.336,389.936,392.596,397.866,402.166,404.388,407.368,412.638,416.938,419.072,422.462,426.062,431.122,437.952,441.662,446.662,448.835,451.705,456.765,460.565,462.725,467.52500000000003,469.698,477.878,480.538,486.018,491.288,494.268,498.498,502.098,504.337,508.667,511.667,513.861,518.611,520.861,525.611,530.361,535.161,537.332,542.032,544.192,548.892,551.052,554.032" svgx:width="0.3,0.53,0.51,0.43,0.36,0.55,0.69,0.43,0.38,0.43,0.55,0.43,0.43,0.55,0.3,0.38,0.27,0.29,0.53,0.47,0.43,0.53,0.23,0.55,0.53,0.36,0.27,0.55,0.47,0.55,0.36,0.44,0.29,0.43,0.3,0.46,0.55,0.51,0.53,0.43,0.5,0.43,0.3,0.36,0.23,0.55,0.27,0.55,0.36,0.27,0.53,0.43,0.55,0.3,0.53,0.43,0.55,0.34,0.36,0.51,0.69,0.38,0.5,0.55,0.29,0.51,0.38,0.55,0.48,0.55,0.82,0.27,0.55,0.53,0.3,0.43,0.36,0.55,0.44,0.3,0.55,0.48,0.23,0.48,0.48,0.48,0.55,0.47,0.55,0.47,0.55,0.3,0.51" style="fill:rgb(0,0,0);font-family:MinionPro-Regular;font-size:10.0px;stroke:none;">tubes were centrifuged, using safety buckets, inside the IsoArk for 3 minutes at 1,500 x g to</text>
   <text y="566.021" x="200.012,203.612,207.842,213.002,217.332,221.042,225.372,228.352,232.65200000000002,234.821,238.421,242.651,246.361,251.631,259.811,263.101,268.261,270.721,275.051,278.651,286.831,291.231,293.498,296.368,300.078,305.138,315.551,319.781,324.011,326.471,328.931,334.201,336.661,340.991,344.791,346.902,351.132,356.192,361.672,364.652,368.882,374.362,377.342,379.642,381.881,387.151,392.211,394.671,397.131,402.191,409.021,411.682,417.161,421.861,424.06,428.29,432.52,438.0,440.98,444.69,447.35,450.22,455.49,460.13,464.461,467.44,470.101,475.161,480.641,482.94100000000003,485.175,488.155,493.425,497.725,499.858,503.458,507.688,512.018,514.478,518.708,524.0079999999999,526.22,531.28,536.55,540.78,545.74,549.97,552.95" svgx:width="0.36,0.43,0.52,0.44,0.38,0.44,0.3,0.43,0.55,0.36,0.43,0.38,0.53,0.82,0.33,0.52,0.25,0.44,0.36,0.82,0.44,0.55,0.29,0.38,0.51,0.82,0.43,0.43,0.25,0.25,0.53,0.25,0.44,0.38,0.55,0.43,0.51,0.55,0.3,0.43,0.55,0.3,0.23,0.55,0.53,0.51,0.25,0.25,0.51,0.69,0.27,0.55,0.47,0.55,0.43,0.43,0.55,0.3,0.38,0.27,0.29,0.53,0.47,0.44,0.3,0.27,0.51,0.55,0.23,0.55,0.3,0.53,0.43,0.55,0.36,0.43,0.44,0.25,0.43,0.53,0.55,0.51,0.53,0.43,0.5,0.43,0.3,0.36" style="fill:rgb(0,0,0);font-family:MinionPro-Regular;font-size:10.0px;stroke:none;">separate serum/plasma fromcellular content. Following centrifugation, the sealed buckets</text>
   <text y="579.004" x="200.012,204.242,209.302,214.782,217.762,222.092,224.752,230.232,232.892,238.372,243.072,245.252,248.232,253.502,257.802,259.992,265.052,267.512,272.572,277.632,282.932,285.107,288.087,293.357,298.417,302.647,306.247,308.521,312.851,318.331,323.63100000000003,325.812,329.412,336.242,340.572,345.632,349.232,351.437,358.267,362.497,366.207,370.507,372.697,377.857,380.318,384.647,388.878,393.107,398.40700000000004,400.59,403.25,408.73,412.33,414.99,420.26,424.56,426.782,429.762,435.032,439.332,441.465,446.105,448.565,453.625,458.165,462.396,467.456,472.516,477.156,479.456,481.66,486.41,490.64,494.35,499.62,507.8,511.09,516.25,518.711,523.04,526.641,534.82,539.22,541.471,546.531,550.3309999999999,552.469,556.069,562.899,567.229" svgx:width="0.43,0.51,0.55,0.3,0.44,0.27,0.55,0.27,0.55,0.47,0.55,0.3,0.53,0.43,0.55,0.51,0.25,0.51,0.51,0.53,0.55,0.3,0.53,0.51,0.43,0.36,0.55,0.44,0.55,0.53,0.55,0.36,0.69,0.44,0.51,0.36,0.55,0.69,0.43,0.38,0.43,0.55,0.52,0.25,0.44,0.43,0.43,0.53,0.55,0.27,0.55,0.36,0.27,0.53,0.43,0.55,0.3,0.53,0.43,0.55,0.47,0.25,0.51,0.46,0.43,0.51,0.51,0.47,0.23,0.55,0.48,0.43,0.38,0.53,0.82,0.33,0.52,0.25,0.44,0.36,0.82,0.44,0.55,0.51,0.38,0.55,0.36,0.69,0.44,0.51" style="fill:rgb(0,0,0);font-family:MinionPro-Regular;font-size:10.0px;stroke:none;">containing the blood tubes and swabs were placed inside the glovebox. Serum/plasma or swab</text>
   <text y="591.986" x="200.012,208.192,212.422,217.692,220.352,225.622,236.068,242.898,247.228,250.828,253.019,255.999,259.709,264.039,269.519,273.119,275.989,280.219,283.929,287.639,291.869,297.16900000000004,299.394,302.374,307.47400000000005,309.655,312.635,317.905,322.205,324.338,329.498,333.208,337.438,340.938,343.398,347.728,352.788,357.018,359.478,361.938,366.168,371.468,373.717,376.697,381.967,387.027,391.327,393.447,397.677,402.737,408.217,411.197,415.527,418.188,423.667,426.328,431.807,436.507,438.744,445.574,452.504,457.874,461.374,465.604,469.935,473.644,477.354,480.015,484.245,488.045,490.221,496.431,503.781,510.681,512.784,517.844,523.114,525.984,528.854,533.084,536.794,539.0939999999999,541.301,547.511,551.741,559.921,564.251,566.911,572.391" svgx:width="0.82,0.43,0.53,0.27,0.53,0.82,0.69,0.44,0.36,0.55,0.3,0.38,0.44,0.55,0.36,0.29,0.43,0.38,0.38,0.43,0.53,0.55,0.3,0.51,0.55,0.3,0.53,0.43,0.55,0.52,0.38,0.43,0.35,0.25,0.44,0.51,0.43,0.25,0.25,0.43,0.53,0.55,0.3,0.53,0.51,0.43,0.55,0.43,0.51,0.55,0.3,0.44,0.27,0.55,0.27,0.55,0.47,0.55,0.69,0.7,0.54,0.35,0.43,0.44,0.38,0.38,0.27,0.43,0.38,0.55,0.63,0.74,0.69,0.55,0.51,0.53,0.29,0.29,0.43,0.38,0.23,0.55,0.63,0.43,0.82,0.44,0.27,0.55,0.35" style="fill:rgb(0,0,0);font-family:MinionPro-Regular;font-size:10.0px;stroke:none;">mediumwas transferred to the pre-labelled tube containing AVL-carrier RNA buffer. Remain-</text>
   <text y="605.025" x="200.012,202.672,208.152,212.85199999999998,215.035,220.195,222.655,226.985,230.585,238.765,243.165,245.309,252.139,256.469,260.069,262.317,265.297,269.007,273.337,278.817,282.417,285.287,289.517,293.227,296.937,301.167,306.467,308.691,311.351,316.831,319.811,324.911,327.116,331.446,336.946,339.135,343.365,351.545,356.705,359.685,364.285,366.461,370.691,374.401,378.941,384.001,386.981,392.251,397.311,401.611,403.821,406.691,411.751,415.551,417.654,420.114,425.174,430.654,435.294,438.794,441.774,446.004,449.714,460.174,463.774,466.754,471.815,475.524,479.854,484.495,488.724,491.024,493.225,499.326,504.595,508.89500000000004,511.027,515.258,518.967,523.508,528.568,531.547,536.818,541.878,546.107,549.707,552.016,556.246,561.306,566.786" svgx:width="0.27,0.55,0.47,0.55,0.52,0.25,0.44,0.36,0.82,0.44,0.55,0.69,0.44,0.36,0.55,0.3,0.38,0.44,0.55,0.36,0.29,0.43,0.38,0.38,0.43,0.53,0.55,0.27,0.55,0.3,0.51,0.55,0.44,0.55,0.55,0.43,0.82,0.52,0.3,0.46,0.55,0.43,0.38,0.46,0.51,0.3,0.53,0.51,0.43,0.55,0.29,0.51,0.38,0.55,0.25,0.51,0.55,0.47,0.35,0.3,0.43,0.38,0.82,0.36,0.3,0.51,0.38,0.44,0.47,0.43,0.23,0.55,0.61,0.53,0.43,0.55,0.43,0.38,0.46,0.51,0.3,0.53,0.51,0.43,0.36,0.55,0.43,0.51,0.55,0.35" style="fill:rgb(0,0,0);font-family:MinionPro-Regular;font-size:10.0px;stroke:none;">ing plasma was transferred into an empty cryotube for long-termstorage. The cryotubes con-</text>
   <text y="618.008" x="200.012,202.992,207.322,209.982,215.462,218.122,223.602,228.302,230.512,235.672,239.382,244.442,248.672,252.902,256.502,260.102,264.332,269.632,271.841,275.441,280.601,284.831,289.061,291.721,299.901,304.131,309.611,313.211,315.494,319.824,325.304,330.604,332.785,337.845,340.505,345.565,350.835,355.165,359.285,363.615,367.325,372.625,374.908,379.968,384.298,388.938,392.538,394.75,398.98,404.04,409.52,412.5,416.831,419.49,424.971,427.63,433.111,437.811,440.048,443.028,448.298,452.598,454.731,459.792,463.501,466.161,470.802,473.461,478.942,483.271,485.771,488.01,493.07,495.53,500.59,505.651,510.951,513.124,516.104,521.374,526.434,530.664,534.264,536.539,543.369,547.599,551.309" svgx:width="0.3,0.44,0.27,0.55,0.27,0.55,0.47,0.55,0.52,0.38,0.51,0.43,0.43,0.36,0.36,0.43,0.53,0.55,0.36,0.52,0.43,0.43,0.27,0.82,0.43,0.55,0.36,0.55,0.44,0.55,0.53,0.55,0.51,0.27,0.51,0.53,0.44,0.42,0.44,0.38,0.53,0.55,0.51,0.44,0.47,0.36,0.55,0.43,0.51,0.55,0.3,0.44,0.27,0.55,0.27,0.55,0.47,0.55,0.3,0.53,0.43,0.55,0.51,0.38,0.27,0.47,0.27,0.55,0.44,0.25,0.55,0.51,0.25,0.51,0.51,0.53,0.55,0.3,0.53,0.51,0.43,0.36,0.55,0.69,0.43,0.38,0.43" style="fill:rgb(0,0,0);font-family:MinionPro-Regular;font-size:10.0px;stroke:none;">taining processed specimens and biohazard bags containing the original blood tubes were</text>
   <text y="630.991" x="200.012,208.193,210.852,214.452,217.432,220.932,224.533,229.693,233.402,237.732,242.272,246.503,251.803,254.04,259.1,263.331,266.201,271.26,274.97,279.27000000000004,281.479,284.46,288.169,292.5,297.979,301.579,304.449,308.68,312.48,314.645,317.514,321.224,326.284,336.698,339.677,344.948,349.248,351.382,356.021,358.482,363.542,368.081,372.312,377.372,382.432,387.132,389.308,391.969,397.448,400.429,405.529,407.734,410.714,415.984,420.284,422.417,430.596,434.927,437.587,443.087,445.32,449.55,454.82,459.151,467.331,472.391,476.621,480.421,482.625,487.685,490.585,492.772,495.753,501.023,505.32300000000004,507.456,510.846,514.445,519.505,526.336,530.045,535.005,537.305,539.487,545.587" svgx:width="0.82,0.27,0.36,0.3,0.35,0.36,0.52,0.38,0.44,0.46,0.43,0.53,0.55,0.51,0.43,0.29,0.51,0.38,0.43,0.55,0.3,0.38,0.44,0.55,0.36,0.29,0.43,0.38,0.55,0.29,0.38,0.51,0.82,0.3,0.53,0.43,0.55,0.47,0.25,0.51,0.46,0.43,0.51,0.51,0.47,0.55,0.27,0.55,0.3,0.51,0.55,0.3,0.53,0.43,0.55,0.82,0.44,0.27,0.55,0.55,0.43,0.53,0.44,0.82,0.51,0.43,0.38,0.55,0.51,0.29,0.55,0.3,0.53,0.43,0.55,0.34,0.36,0.51,0.69,0.38,0.5,0.23,0.55,0.61,0.51" style="fill:rgb(0,0,0);font-family:MinionPro-Regular;font-size:10.0px;stroke:none;">mist-sprayed before transfer fromthe glovebox into the main chamber of the IsoArk. To</text>
   <text y="643.973" x="200.012,204.242,209.723,213.322,218.592,222.302,226.602,228.755,232.986,235.855,238.725,242.955,247.185,250.165,252.825,257.365,261.665,263.848,268.177,273.658,278.958,281.139,284.849,289.18,294.34,297.0,302.3,304.553,307.214,312.694,317.023,321.254,324.234,326.893,331.434,335.763,338.744,341.404,346.464,351.964,354.216,359.276,362.176,364.364,370.044,375.833,383.294,390.294,392.484,395.143,400.643,402.802,406.401,411.562,415.792,420.022,422.682,430.862,435.092,440.572,444.172,446.454,451.514,455.745,458.615,463.674,467.385,471.685,473.893,477.604,481.833,490.013,495.073,499.614,503.944,506.444,508.646,511.516,515.227,520.286,530.699,535.76,538.419,543.479,547.709,552.769,558.25" svgx:width="0.43,0.55,0.36,0.53,0.38,0.43,0.55,0.43,0.29,0.29,0.43,0.43,0.3,0.27,0.46,0.43,0.55,0.44,0.55,0.53,0.55,0.38,0.44,0.52,0.27,0.53,0.55,0.27,0.55,0.44,0.43,0.3,0.27,0.46,0.44,0.3,0.27,0.51,0.55,0.55,0.51,0.29,0.55,0.57,0.58,0.75,0.7,0.55,0.27,0.55,0.55,0.36,0.52,0.43,0.43,0.27,0.82,0.43,0.55,0.36,0.55,0.51,0.43,0.29,0.51,0.38,0.43,0.55,0.38,0.43,0.82,0.51,0.46,0.44,0.25,0.55,0.29,0.38,0.51,0.82,0.51,0.27,0.51,0.43,0.51,0.55,0.35" style="fill:rgb(0,0,0);font-family:MinionPro-Regular;font-size:10.0px;stroke:none;">ensure effective and rapid inactivation of EBOV in specimens before removal frombiocon-</text>
   <text y="657.013" x="200.012,202.992,207.322,209.982,215.462,223.643,227.872,233.352,236.332,238.632,240.831,245.231,247.35,251.891,256.951,259.41,264.68,272.86,277.16,279.382,284.441,287.34099999999995,289.529,294.28,299.03,303.83,305.971,311.051,313.551,315.721,323.901,328.961,331.422,335.651,339.882,345.151,347.612,351.941,355.741,357.901,362.54,366.25,370.581,375.851,380.151,382.336,386.665,391.726,395.326,400.385,402.846,408.116,411.096,415.396,417.542,421.771,424.751,430.021,434.352,439.832,444.892,447.392,449.629,456.459,460.789,464.389,466.581,470.911,476.18,481.451,485.68,490.98,493.225,496.206,501.30600000000004,503.487,507.717,512.047,516.277,521.577,523.727,527.326,531.656,539.836,544.996,547.456,551.686,554.976,561.806,568.736" svgx:width="0.3,0.44,0.27,0.55,0.82,0.43,0.55,0.3,0.23,0.55,0.44,0.55,0.46,0.51,0.25,0.53,0.82,0.43,0.55,0.51,0.29,0.55,0.48,0.48,0.48,0.55,0.51,0.25,0.55,0.82,0.51,0.25,0.43,0.43,0.53,0.25,0.44,0.38,0.55,0.47,0.38,0.44,0.53,0.43,0.55,0.44,0.51,0.36,0.51,0.25,0.53,0.3,0.43,0.55,0.43,0.3,0.53,0.44,0.55,0.51,0.25,0.55,0.69,0.44,0.36,0.55,0.44,0.53,0.53,0.43,0.53,0.55,0.3,0.51,0.55,0.43,0.44,0.43,0.53,0.55,0.36,0.44,0.82,0.52,0.25,0.43,0.33,0.69,0.7,0.54" style="fill:rgb(0,0,0);font-family:MinionPro-Regular;font-size:10.0px;stroke:none;">tainment, a volume of 560 μl molecular grade absolute ethanol was added to each sample/AVL</text>
   <text y="669.995" x="200.012,202.992,208.262,213.322,217.622,219.742" svgx:width="0.3,0.53,0.51,0.43,0.55,0.34" style="fill:rgb(0,0,0);font-family:MinionPro-Regular;font-size:10.0px;stroke:none;">tube [</text>
   <text y="669.995" x="223.132,227.882" svgx:width="0.48,0.48" style="fill:rgb(59,90,166);font-family:MinionPro-Regular;font-size:10.0px;stroke:none;">24</text>
   <text y="669.995" x="232.632" svgx:width="0.23" style="fill:rgb(0,0,0);font-family:MinionPro-Regular;font-size:10.0px;stroke:none;">,</text>
   <text y="669.995" x="237.145,241.896" svgx:width="0.48,0.48" style="fill:rgb(59,90,166);font-family:MinionPro-Regular;font-size:10.0px;stroke:none;">25</text>
   <text y="669.995" x="246.645,250.035,252.335,254.493,260.594,265.863,270.923,275.154,278.754,281.026,285.255,290.315,295.796,298.776,303.105,305.766,311.245,313.906,319.385,324.085,326.267,328.927,334.406,338.737,342.966,345.947,348.607,353.146,357.477,360.456,364.686,369.986,372.243,375.844,381.004,385.234,389.464,392.124,400.304,404.534,410.014,413.61400000000003,415.898,422.728,426.958,430.668,434.968,437.101,440.081,445.351,449.581,455.081,457.283,462.443,464.903,469.233,473.463,477.693,482.993,485.232,487.893,493.372,496.353,501.45300000000003,503.658,507.988,513.488,515.677,520.007,522.667,526.377,529.357,532.017,536.656,541.927,544.927,547.141,551.26,553.921,559.081,561.54,566.6,570.831" svgx:width="0.34,0.23,0.55,0.61,0.53,0.51,0.43,0.36,0.55,0.43,0.51,0.55,0.3,0.44,0.27,0.55,0.27,0.55,0.47,0.55,0.27,0.55,0.44,0.43,0.3,0.27,0.46,0.44,0.3,0.43,0.53,0.55,0.36,0.52,0.43,0.43,0.27,0.82,0.43,0.55,0.36,0.55,0.69,0.43,0.38,0.43,0.55,0.3,0.53,0.43,0.55,0.55,0.52,0.25,0.44,0.43,0.43,0.53,0.55,0.27,0.55,0.3,0.51,0.55,0.44,0.55,0.55,0.44,0.27,0.38,0.3,0.27,0.47,0.53,0.3,0.55,0.42,0.27,0.52,0.25,0.51,0.43,0.5" style="fill:rgb(0,0,0);font-family:MinionPro-Regular;font-size:10.0px;stroke:none;">]. Tubes containing inactivated specimens were then placed into an airtight ziplock</text>
   <text y="682.978" x="200.013,205.073,209.403,214.10299999999998,216.283,219.153,221.813,224.273,226.733,230.963,236.263,238.45,245.28,247.94,250.92,256.21999999999997,258.406,262.636,267.906,270.366,275.426,279.136,281.796,287.276,291.576,293.782,299.052,301.712,305.312,307.972,313.452,316.322,320.552,324.782,327.762,332.092,337.572,340.552,342.85200000000003,345.089,351.189,356.459,360.759,362.89,367.01,369.67,374.83,377.29,382.35,386.58,391.58,393.788,398.848,403.178,407.878,410.058,414.288,418.928,421.908,426.138,429.848,432.508,437.568,441.368,443.564,450.394,454.724,458.324,460.515,468.695,471.355,474.955,477.935,481.435,485.035,490.195,493.905,498.235,502.775,507.005,512.305,514.599,518.929,524.409,529.709,531.891,540.071,545.131,549.671,553.901,559.2009999999999,561.428,564.408" svgx:width="0.51,0.44,0.47,0.55,0.29,0.27,0.25,0.25,0.43,0.53,0.55,0.69,0.27,0.3,0.53,0.55,0.43,0.53,0.25,0.51,0.38,0.27,0.55,0.43,0.55,0.53,0.27,0.36,0.27,0.55,0.29,0.43,0.43,0.3,0.44,0.55,0.3,0.23,0.55,0.61,0.53,0.43,0.55,0.42,0.27,0.52,0.25,0.51,0.43,0.5,0.55,0.51,0.44,0.47,0.55,0.43,0.47,0.3,0.43,0.38,0.27,0.51,0.38,0.55,0.69,0.44,0.36,0.55,0.82,0.27,0.36,0.3,0.35,0.36,0.52,0.38,0.44,0.46,0.43,0.53,0.55,0.44,0.55,0.53,0.55,0.82,0.51,0.46,0.43,0.53,0.55,0.3,0.51" style="fill:rgb(0,0,0);font-family:MinionPro-Regular;font-size:10.0px;stroke:none;">bag filled with chlorine disinfectant. The ziplock bag exterior was mist-sprayed and moved to</text>
   <text y="696.017" x="200.013,202.993,208.263,212.56300000000002,214.696,219.026,221.686,225.396,227.856,232.916,237.146,242.146,244.346,249.406,252.306,254.494,257.474,262.744,267.04400000000004,269.177,272.567,276.167,281.227,288.057,291.767,296.727,299.027,301.265,305.595,311.075,316.375,318.557,322.887,325.757,328.737,332.967,336.767,338.909,343.659,348.459,350.588,358.768,361.428,366.908,372.178,375.158,379.388,382.988,385.284,389.514,394.574,400.054,403.034,407.364,411.594,414.594,416.805,419.785,422.445,430.625,434.925,437.101,439.971,445.031,448.831,450.934,453.594,459.074,463.404,467.634,470.614,473.274,477.814,482.144,485.124,487.784,492.844,498.344,500.653,507.483,511.813,515.413,517.604,520.584,524.294,528.624,534.104,537.704,540.574,544.804,548.514,552.224,556.454,561.7539999999999,564.035,567.015" svgx:width="0.3,0.53,0.43,0.55,0.44,0.27,0.38,0.25,0.51,0.43,0.5,0.55,0.51,0.29,0.55,0.3,0.53,0.43,0.55,0.34,0.36,0.51,0.69,0.38,0.5,0.23,0.55,0.44,0.55,0.53,0.55,0.44,0.29,0.3,0.43,0.38,0.55,0.48,0.48,0.55,0.82,0.27,0.55,0.53,0.3,0.43,0.36,0.55,0.43,0.51,0.55,0.3,0.44,0.43,0.3,0.55,0.3,0.27,0.82,0.43,0.55,0.29,0.51,0.38,0.55,0.27,0.55,0.44,0.43,0.3,0.27,0.46,0.44,0.3,0.27,0.51,0.55,0.55,0.69,0.44,0.36,0.55,0.3,0.38,0.44,0.55,0.36,0.29,0.43,0.38,0.38,0.43,0.53,0.55,0.3,0.51" style="fill:rgb(0,0,0);font-family:MinionPro-Regular;font-size:10.0px;stroke:none;">the airlock of the IsoArk, and after 10 minutes contact time for inactivation was transferred to</text>
   <text y="709.0" x="200.013,202.993,208.263,212.56300000000002,214.696,220.906,228.256,235.156,237.316,241.546,246.186,249.166,252.876,257.206,261.436,264.416,267.076,272.136,277.636,279.892,283.602,288.662,293.722,304.157,307.137,312.237,314.361,317.231,319.891,325.371,329.701,332.161,334.821,338.941,343.241,345.486,349.716,354.356,357.336,361.046,365.376,369.606,372.586,375.246,380.306,385.786,388.086,390.273,395.953,400.593,403.573,407.283,411.613,415.843,418.823,423.053,428.353,430.581,436.791,444.141,451.041,453.201,456.801,461.961,466.191,470.421,473.081,481.261,485.491,490.971,494.571,496.855,503.685,507.915,511.625,515.925,518.114,521.094,524.804,529.134,534.614,538.214,541.084,545.314,549.024,552.734,556.964,562.264,564.489,567.469" svgx:width="0.3,0.53,0.43,0.55,0.63,0.74,0.69,0.55,0.43,0.47,0.3,0.38,0.44,0.43,0.3,0.27,0.51,0.55,0.55,0.38,0.51,0.51,0.82,0.3,0.51,0.55,0.29,0.27,0.55,0.44,0.25,0.27,0.42,0.43,0.55,0.43,0.47,0.3,0.38,0.44,0.43,0.3,0.27,0.51,0.55,0.23,0.55,0.57,0.47,0.3,0.38,0.44,0.43,0.3,0.43,0.53,0.55,0.63,0.74,0.69,0.55,0.36,0.52,0.43,0.43,0.27,0.82,0.43,0.55,0.36,0.55,0.69,0.43,0.38,0.43,0.55,0.3,0.38,0.44,0.55,0.36,0.29,0.43,0.38,0.38,0.43,0.53,0.55,0.3,0.51" style="fill:rgb(0,0,0);font-family:MinionPro-Regular;font-size:10.0px;stroke:none;">the RNA extraction roomto finalize extraction. Extracted RNA specimens were transferred to</text>
  </g>
  <path style="fill:rgb(155,154,156);stroke:none;stroke-width:1.0;" d="M576.000 308.640 L60.000 308.640 L60.000 308.140 L576.000 308.140 "/>
  <path style="fill:rgb(59,90,166);stroke:none;stroke-width:1.0;" d="M59.980 321.730 L211.180 321.730 Z"/>
  <rect style="stroke:blue;stroke-width:0.3;" x="59.981" y="86.009" height="194.571" width="515.906" title="8"/>
  <text y="86.009" class="image" id="image.8.1" width="515" height="194" x="59.981">image.8.1.60_576.86_281</text>
  <g begin="text">
   <text y="286.129" x="59.981,64.853,67.061,71.941,73.7,78.076" svgx:width="0.61,0.28,0.61,0.55,0.55,0.28" style="fill:rgb(0,0,0);font-family:Helvetica-Bold;font-size:8.0px;stroke:none;">Fig 3.</text>
   <text y="286.129" x="84.642" svgx:width="0.33" style="fill:rgb(0,0,0);font-family:Helvetica;font-size:8.0px;stroke:none;">(</text>
   <text y="286.129" x="87.266" svgx:width="0.72" style="fill:rgb(0,0,0);font-family:Helvetica-Bold;font-size:8.0px;stroke:none;">A</text>
   <text y="286.129" x="92.97,95.61,97.341,103.549,107.925,112.301,114.925,119.301,121.509,125.885,128.509,132.509,134.135,138.511,141.134,145.51,149.47,153.43,157.806,162.20600000000002,163.841,165.545,169.945,171.722,177.01,182.298,186.674,191.074,192.755,198.043,203.33,208.69000000000003,210.33,214.706,217.33,221.705,225.665,230.041,234.001,237.961,239.665,244.041,248.441,250.072,254.031,255.735,257.439,261.815,263.519,267.479,271.855,273.615,275.242,279.202,283.578,287.954,291.914,293.618,300.242,304.618,308.994,312.994,314.644,316.852,319.476,323.852,332.163,337.45,342.738,350.19,354.15,358.526,362.486,366.862,371.238,375.198,377.289,381.665,386.065,387.778,391.738,396.114,400.074,404.45,408.45,410.114,411.818,416.21799999999996,417.938,422.33799999999997,424.061,428.437,430.141,434.516,438.476,442.852,447.228,451.604,455.604,457.226,458.93,463.306,467.266,471.642,473.85,478.226,482.626,484.325,490.029,491.733,493.941,498.317,500.021,504.421,506.096,508.304,512.679,517.079,518.795,521.003,524.962,529.338,534.626,537.25" svgx:width="0.33,0.55,0.78,0.55,0.55,0.33,0.55,0.28,0.55,0.33,0.5,0.55,0.55,0.33,0.55,0.5,0.5,0.55,0.55,0.55,0.22,0.55,0.55,0.67,0.67,0.55,0.55,0.55,0.67,0.67,0.67,0.55,0.55,0.33,0.55,0.5,0.55,0.5,0.5,0.22,0.55,0.55,0.55,0.5,0.22,0.22,0.55,0.22,0.5,0.55,0.22,0.55,0.5,0.55,0.55,0.5,0.22,0.83,0.55,0.55,0.5,0.55,0.28,0.33,0.55,0.83,0.67,0.67,0.72,0.5,0.55,0.5,0.55,0.55,0.5,0.28,0.55,0.55,0.55,0.5,0.55,0.5,0.55,0.5,0.55,0.22,0.55,0.55,0.55,0.55,0.55,0.22,0.55,0.5,0.55,0.55,0.55,0.5,0.55,0.22,0.55,0.5,0.55,0.28,0.55,0.55,0.55,0.72,0.22,0.28,0.55,0.22,0.55,0.55,0.28,0.55,0.55,0.55,0.28,0.5,0.55,0.67,0.33,0.5" style="fill:rgb(0,0,0);font-family:Helvetica;font-size:8.0px;stroke:none;">) Operators dressed in BSL3 PPE processing clinical specimens fromEVDsuspected cases in a glovebox located within the IsoArk</text>
   <text y="295.653" x="59.981,64.357,66.061,70.437,74.397,78.773,83.149,85.357,89.733,91.437,95.813,102.33,106.706,111.082,113.32199999999999,115.029,119.405,123.781,128.157,132.533,134.741,136.445,140.405,144.805,146.437,150.813,153.437,157.813,161.773,165.733,170.109,172.732,177.132,178.808,182.768,187.144,191.52,198.144,202.52,206.896,209.52,211.76000000000002,213.391" svgx:width="0.55,0.22,0.55,0.5,0.55,0.55,0.28,0.55,0.22,0.55,0.83,0.55,0.55,0.28,0.55,0.55,0.55,0.55,0.55,0.28,0.22,0.5,0.55,0.55,0.55,0.33,0.55,0.5,0.5,0.55,0.33,0.55,0.55,0.5,0.55,0.55,0.83,0.55,0.55,0.33,0.28,0.55,0.33" style="fill:rgb(0,0,0);font-family:Helvetica;font-size:8.0px;stroke:none;">biocontainment negative pressure chamber, (</text>
   <text y="295.653" x="216.015" svgx:width="0.72" style="fill:rgb(0,0,0);font-family:Helvetica-Bold;font-size:8.0px;stroke:none;">B</text>
   <text y="295.653" x="221.719,224.35899999999998,226.09,231.378,233.082,237.458,241.834,246.234,247.917,250.125,254.501,258.877,263.253,267.253,268.893,270.597,274.99699999999996,276.717,280.677,285.053,289.429,291.637,294.261,295.965,298.173,302.548,306.924,311.32399999999996,313.0,317.376,321.752,326.128,330.504,332.712,337.088,339.589,343.589,345.315,351.019,352.723,354.931,359.33099999999996,361.019,364.979,369.355,371.563,375.939,378.147,382.147,383.809,387.769,392.145,396.521,400.521,402.234,406.61,410.986,414.946,418.906,423.282,427.68199999999996,429.333,431.037,435.413,437.621,442.02099999999996,443.733,445.941,450.317,454.717,456.375,462.999,467.375,469.079,473.479,475.198,479.157,483.533,487.909,494.533,498.909,503.285,505.925,507.569,511.945,514.185,515.903,518.111,522.487,526.887,528.602,532.978,534.682,539.058,543.018,547.394,551.77,556.041,560.041,561.768,563.976,568.352" svgx:width="0.33,0.55,0.67,0.22,0.55,0.55,0.55,0.55,0.28,0.55,0.55,0.55,0.5,0.55,0.22,0.55,0.55,0.5,0.55,0.55,0.28,0.33,0.22,0.28,0.55,0.55,0.55,0.55,0.55,0.55,0.55,0.55,0.28,0.55,0.33,0.5,0.55,0.72,0.22,0.28,0.55,0.55,0.5,0.55,0.28,0.55,0.28,0.5,0.55,0.5,0.55,0.55,0.5,0.55,0.55,0.55,0.5,0.5,0.55,0.55,0.55,0.22,0.55,0.28,0.55,0.55,0.28,0.55,0.55,0.55,0.83,0.55,0.22,0.55,0.55,0.5,0.55,0.55,0.83,0.55,0.55,0.33,0.55,0.55,0.28,0.55,0.28,0.55,0.55,0.55,0.55,0.22,0.55,0.5,0.55,0.55,0.55,0.5,0.55,0.28,0.55,0.33" style="fill:rgb(0,0,0);font-family:Helvetica;font-size:8.0px;stroke:none;">) Blood tubes in centrifuge adapters with safety caps passed into the main chamber of the glovebox for</text>
   <text y="305.121" x="59.981,62.605,66.981,71.357,73.565,76.205,77.952,79.656,84.032,88.408,92.368,94.576,96.28,100.24,104.616,106.696,108.4,112.776,117.176,118.884,123.26,127.636,132.036,133.738,138.114,139.818,141.522,145.898,150.274,154.65,156.858,158.562,162.937,167.33700000000002,169.001,171.209,175.585,178.225,179.942,181.646,186.022,190.398,194.774,197.398,199.606,203.982,206.606,214.922,218.882,221.09,225.465,228.089,232.465,236.841,241.217" svgx:width="0.33,0.55,0.55,0.28,0.33,0.55,0.22,0.55,0.55,0.5,0.28,0.22,0.5,0.55,0.28,0.22,0.55,0.55,0.55,0.55,0.55,0.55,0.55,0.55,0.22,0.22,0.55,0.55,0.55,0.28,0.22,0.55,0.55,0.55,0.28,0.55,0.33,0.55,0.22,0.55,0.55,0.55,0.33,0.28,0.55,0.33,0.83,0.5,0.28,0.55,0.33,0.55,0.55,0.55,0.28" style="fill:rgb(0,0,0);font-family:Helvetica;font-size:8.0px;stroke:none;">“hot” inactivation and aliquoting for long-termstorage.</text>
   <text y="320.654" x="59.981,63.781,65.829,67.877,71.677,75.053,76.853,78.901,80.949,84.749,88.549,90.093,91.893,95.584,98.048,101.848,103.896,107.696,111.496,113.296,117.096,120.896,124.696,128.495,130.543,131.98,135.78,139.58,142.044,145.844,149.22,150.764,152.564,156.364,160.164,162.212,166.012,167.812,171.495,175.295,179.095,182.895,186.695,190.495,194.295,196.095,199.895,203.695,207.495" svgx:width="0.5,0.28,0.28,0.5,0.45,0.25,0.28,0.28,0.5,0.5,0.22,0.25,0.5,0.33,0.5,0.28,0.5,0.5,0.25,0.5,0.5,0.5,0.5,0.28,0.22,0.5,0.5,0.33,0.5,0.45,0.22,0.25,0.5,0.5,0.28,0.5,0.25,0.5,0.5,0.5,0.5,0.5,0.5,0.5,0.25,0.5,0.5,0.5,0.5" style="fill:rgb(59,90,166);font-family:Helvetica-Condensed;font-size:8.0px;stroke:none;">https://doi.org/10.1371/journal.pntd.0005665.g003</text>
  </g>
  <path style="fill:rgb(0,0,0);stroke:none;stroke-width:1.0;" d="M576.000 54.900 L36.000 54.900 L36.000 54.400 L576.000 54.400 "/>
  <rect style="stroke:blue;stroke-width:0.3;" x="36.0" y="35.043" height="23.64" width="183.232" title="8"/>
  <text y="35.043" class="image" id="image.8.2" width="183" height="23" x="36.0">image.8.2.36_219.35_59</text>
  <g begin="text">
   <text y="46.205" x="356.825,362.113,367.473,369.127,374.415,378.791,383.167,384.871,389.27099999999996,390.953,397.577,401.953,406.329,410.705,412.409,416.785,419.425,421.057,425.433,427.137,431.513,435.91299999999995,437.612,441.988,443.692,448.068,452.028,456.404,458.612,462.988,465.196,469.196,470.833,473.041,474.745,479.121,480.825,485.22499999999997,486.935,488.639,493.015,497.391,501.767,504.39,508.766,510.974,515.35,517.974,521.974,523.614,525.318,529.718,531.438,536.726,538.43,542.806,545.43,548.054,552.454,554.171,558.547,562.923,567.299,571.675" svgx:width="0.67,0.67,0.55,0.67,0.55,0.55,0.22,0.55,0.55,0.83,0.55,0.55,0.55,0.22,0.55,0.33,0.55,0.55,0.22,0.55,0.55,0.55,0.55,0.22,0.55,0.5,0.55,0.28,0.55,0.28,0.5,0.55,0.28,0.22,0.55,0.22,0.55,0.55,0.22,0.55,0.55,0.55,0.33,0.55,0.28,0.55,0.33,0.5,0.55,0.22,0.55,0.55,0.67,0.22,0.55,0.33,0.33,0.55,0.55,0.55,0.55,0.55,0.55,0.55" style="fill:rgb(0,0,0);font-family:Helvetica;font-size:8.0px;stroke:none;">SA Ebola modular high biosafety field laboratory in Sierra Leone</text>
  </g>
  <path style="fill:rgb(0,0,0);stroke:none;stroke-width:1.0;" d="M36.000 744.000 L576.000 744.000 L576.000 744.500 L36.000 744.500 "/>
  <path style="fill:rgb(59,90,166);stroke:none;stroke-width:1.0;" d="M163.560 757.080 L317.710 757.080 Z"/>
  <g begin="text">
   <text y="756.0" x="36.0,41.288,45.664,51.872,57.232,58.847,64.551,68.927,73.303,75.007,79.383,83.343,85.551,89.927,94.32700000000001,95.98,100.852,103.476,107.852,112.228,113.932,117.892,122.268,124.028,125.688,131.392,133.096,137.056,141.431,145.807,149.767,154.034,158.034,159.76" svgx:width="0.67,0.55,0.78,0.67,0.55,0.72,0.55,0.55,0.22,0.55,0.5,0.28,0.55,0.55,0.55,0.61,0.33,0.55,0.55,0.22,0.5,0.55,0.22,0.55,0.72,0.22,0.5,0.55,0.55,0.5,0.55,0.5,0.55,0.26" style="fill:rgb(0,0,0);font-family:Helvetica;font-size:8.0px;stroke:none;">PLOS Neglected Tropical Diseases |</text>
   <text y="756.0" x="163.558,167.934,170.142,172.35,176.726,180.686,182.894,185.102,187.31,191.686,196.062,197.766,199.974,204.35,206.871,211.247,213.455,217.831,222.207,224.415,228.791,233.167,237.429,241.805,244.013,245.717,250.093,254.468,257.092,261.468,265.844,267.548,269.756,274.132,278.418,280.626,285.002,287.21,291.586,295.962,300.338,304.713,308.975,313.351" svgx:width="0.55,0.28,0.28,0.55,0.5,0.28,0.28,0.28,0.55,0.55,0.22,0.28,0.55,0.33,0.55,0.28,0.55,0.55,0.28,0.55,0.55,0.55,0.55,0.28,0.22,0.55,0.55,0.33,0.55,0.55,0.22,0.28,0.55,0.55,0.28,0.55,0.28,0.55,0.55,0.55,0.55,0.55,0.55,0.55" style="fill:rgb(59,90,166);font-family:Helvetica;font-size:8.0px;stroke:none;">https://doi.org/10.1371/journal.pntd.0005665</text>
   <text y="756.0" x="325.699,329.659,334.035,338.411,342.811,344.521,348.897,353.273,355.51300000000003,357.22,361.596,365.972,370.348,374.748,557.118,561.518,563.241" svgx:width="0.5,0.55,0.55,0.55,0.55,0.55,0.55,0.28,0.55,0.55,0.55,0.55,0.55,0.55,0.55,0.55,0.28" style="fill:rgb(0,0,0);font-family:Helvetica;font-size:8.0px;stroke:none;">June 19, 2017 8 /</text>
  </g>
  <g begin="text">
   <text y="756.0" x="567.209,571.585" svgx:width="0.55,0.55" style="fill:rgb(0,0,0);font-family:Helvetica;font-size:8.0px;stroke:none;">23</text>
  </g>
 </g>
</svg>
