<?xml version="1.0" encoding="UTF-8"?>
<svg height="741.324" width="541.0" xmlns="http://www.w3.org/2000/svg">
 <g id="page" xmlns:svgx="http://www.xml-cml.org/schema/svgx">
  <g begin="text">
   <text y="79.934" x="49.6,54.6,59.04,63.48,66.26,69.04,74.04,76.54,77.725,82.165,87.165,92.165,94.665,95.85,100.85,105.29,109.73,112.51,115.29,120.29,124.73,129.17,132.5,136.94,139.44,140.625,145.625,148.775,152.105,154.885,159.325,162.105,166.545,169.325,173.215,175.715,176.9,181.34,186.34,191.34,195.23,199.67,202.17,203.355,206.135,211.135,213.635,214.82,219.82,223.15,227.59,232.59,237.03,240.36,244.8,247.3,248.485,252.925,257.925,262.925,265.425,266.61,270.5,275.5,280.5" svgx:width="0.5,0.44,0.44,0.28,0.28,0.5,0.25,0.55,0.44,0.5,0.5,0.25,0.55,0.5,0.44,0.44,0.28,0.28,0.5,0.44,0.44,0.33,0.44,0.25,0.55,0.5,0.33,0.33,0.28,0.44,0.28,0.44,0.28,0.39,0.25,0.55,0.44,0.5,0.5,0.39,0.44,0.25,0.55,0.28,0.5,0.25,0.55,0.5,0.33,0.44,0.5,0.44,0.33,0.44,0.25,0.55,0.44,0.5,0.5,0.25,0.55,0.39,0.5,0.5,0.33" style="fill:rgb(35,31,32);font-family:TimesNewRomanPSMT;font-size:10.0px;stroke:none;">health and healthcare officials chose to prepare and sup-</text>
   <text y="91.934" x="49.6,54.6,59.6,62.93,65.71,68.083,75.863,80.303,85.303,90.303,92.676,97.676,102.676,106.566,111.566,114.346,117.126,121.566,124.346,128.236,130.609,133.389,138.389,140.762,145.762,149.092,154.092,159.092,161.872,166.872,171.312,173.685,178.125,182.565,185.895,190.335,192.708,195.488,200.488,202.861,208.421,215.641,222.311,227.871,230.244,235.244,239.684,242.464,245.244,249.684,254.684,257.464,261.354,263.854,266.046,272.156,277.156,279.936" svgx:width="0.5,0.5,0.33,0.28,0.25,0.78,0.44,0.5,0.5,0.25,0.5,0.5,0.39,0.5,0.28,0.28,0.44,0.28,0.39,0.25,0.28,0.5,0.25,0.5,0.33,0.5,0.5,0.28,0.5,0.44,0.25,0.44,0.44,0.33,0.44,0.25,0.28,0.5,0.25,0.56,0.72,0.67,0.56,0.25,0.5,0.44,0.28,0.28,0.44,0.5,0.28,0.39,0.25,0.25,0.61,0.5,0.28,0.39" style="fill:rgb(35,31,32);font-family:TimesNewRomanPSMT;font-size:10.0px;stroke:none;">port many hospitals to provide care to SARS patients. This</text>
   <text y="103.934" x="49.6,57.38,61.82,66.26,70.15,75.15,78.48,82.92,85.258,89.698,92.478,95.258,103.038,105.818,110.818,115.258,118.038,122.478,127.478,129.816,132.596,137.596,142.036,144.374,149.374,153.814,158.254,163.254,165.592,168.922,173.922,177.252,179.59,184.03,186.368,191.368,195.808,199.698,202.478,207.478,212.478,216.918,219.698,224.138,229.138,231.476,237.036,244.256,250.926,256.486,258.824,263.824,268.824,272.714,277.714,280.494" svgx:width="0.78,0.44,0.44,0.39,0.5,0.33,0.44,0.25,0.44,0.28,0.28,0.78,0.28,0.5,0.44,0.28,0.44,0.5,0.25,0.28,0.5,0.44,0.25,0.5,0.44,0.44,0.5,0.25,0.33,0.5,0.33,0.25,0.44,0.25,0.5,0.44,0.39,0.28,0.5,0.5,0.44,0.28,0.44,0.5,0.25,0.56,0.72,0.67,0.56,0.25,0.5,0.5,0.39,0.5,0.28,0.33" style="fill:rgb(35,31,32);font-family:TimesNewRomanPSMT;font-size:10.0px;stroke:none;">measure eliminated the need for a designated SARS hospi-</text>
   <text y="115.934" x="49.6,52.38,56.82,59.6,62.1,63.118,70.338,75.338,78.118,80.898,85.338,87.838,88.856,96.636,101.076,103.856,108.856,111.636,116.076,118.856,123.856,126.636,131.636,136.636,139.136,140.154,144.594,147.094,148.112,153.112,155.892,160.892,165.892,170.332,173.662,176.162,177.18,182.18,184.96,189.96,192.74,195.52,199.96,204.96,209.4,213.84,216.34,217.358,220.688,225.688,229.018,231.518,232.536,238.096,245.316,251.986,257.546,260.046,261.064,263.844,267.174,271.614,276.614,280.504" svgx:width="0.28,0.44,0.28,0.25,0.55,0.72,0.5,0.28,0.28,0.44,0.25,0.55,0.78,0.44,0.28,0.5,0.28,0.44,0.28,0.5,0.28,0.5,0.5,0.25,0.55,0.44,0.25,0.55,0.5,0.28,0.5,0.5,0.44,0.33,0.25,0.55,0.5,0.28,0.5,0.28,0.28,0.44,0.5,0.44,0.44,0.25,0.55,0.33,0.5,0.33,0.25,0.55,0.56,0.72,0.67,0.56,0.25,0.55,0.28,0.33,0.44,0.5,0.39,0.33" style="fill:rgb(35,31,32);font-family:TimesNewRomanPSMT;font-size:10.0px;stroke:none;">tal while maintaining a higher vigilance for SARS trans-</text>
   <text y="127.934" x="49.6,57.38,60.16,64.05,67.94,70.72,75.72,80.72,83.22,84.495,88.935,91.715,94.215,95.49,103.27,108.27,111.05,113.83,116.61,121.61,124.39,128.83,131.33,132.605,135.935,140.375,144.815,147.595,150.375,153.155,155.935,158.715,163.155,167.045,169.545,172.045,173.32,176.65,181.65,184.15,185.425,188.205,193.205,197.645,200.145,201.42,205.31,209.75,214.19,219.19,224.19,229.19,231.69,232.965,237.965,242.965,247.405,251.295,255.735,258.235,259.51,264.51,267.84,270.34,271.615,274.395,279.395" svgx:width="0.78,0.28,0.39,0.39,0.28,0.5,0.5,0.25,0.55,0.44,0.28,0.25,0.55,0.78,0.5,0.28,0.28,0.28,0.5,0.28,0.44,0.25,0.55,0.33,0.44,0.44,0.28,0.28,0.28,0.28,0.28,0.44,0.39,0.25,0.25,0.55,0.33,0.5,0.25,0.55,0.28,0.5,0.44,0.25,0.55,0.39,0.44,0.44,0.5,0.5,0.5,0.25,0.55,0.5,0.5,0.44,0.39,0.44,0.25,0.55,0.5,0.33,0.25,0.55,0.28,0.5,0.44" style="fill:rgb(35,31,32);font-family:TimesNewRomanPSMT;font-size:10.0px;stroke:none;">mission at multiple facilities. In the second phase of the</text>
   <text y="139.934" x="49.6,55.012,60.012,63.342,68.342,73.342,76.122,81.122,83.622,86.715,91.715,96.715,99.495,104.495,107.825,112.265,116.705,121.705,124.205,126.705,129.798,133.128,138.128,143.128,146.458,148.958,152.051,155.381,159.821,164.261,167.041,169.821,172.601,175.381,178.161,182.601,186.491,188.991,192.084,199.304,204.304,208.744,212.074,216.514,219.014,222.107,227.667,234.887,241.557,247.117,249.617,252.71,257.71,262.15,264.93,267.71,272.15,277.15,279.93" svgx:width="0.61,0.5,0.33,0.5,0.5,0.28,0.5,0.25,0.55,0.5,0.5,0.28,0.5,0.33,0.44,0.44,0.5,0.25,0.25,0.55,0.33,0.5,0.5,0.33,0.25,0.55,0.33,0.44,0.44,0.28,0.28,0.28,0.28,0.28,0.44,0.39,0.25,0.55,0.72,0.5,0.44,0.33,0.44,0.25,0.55,0.56,0.72,0.67,0.56,0.25,0.55,0.5,0.44,0.28,0.28,0.44,0.5,0.28,0.39" style="fill:rgb(35,31,32);font-family:TimesNewRomanPSMT;font-size:10.0px;stroke:none;">Toronto outbreak, four facilities where SARS patients</text>
   <text y="151.934" x="49.6,56.82,61.26,64.59,69.03,71.78,76.22,79.0,82.33,86.77,91.21,96.21,101.21,103.96,107.29,111.73,115.62,118.4,123.4,126.18,131.18,136.18,138.93,146.15,150.59,153.92,158.36,161.11,166.11,170.55,174.44,177.22,182.22,187.22,191.66,194.44,198.88,203.88,206.63,211.07,214.96,217.71,223.27,230.49,237.16,242.72,245.47,250.47,255.47,259.36,264.36,267.14,269.92,274.36,277.14,281.03,283.53" svgx:width="0.72,0.44,0.33,0.44,0.25,0.44,0.28,0.33,0.44,0.44,0.5,0.5,0.25,0.33,0.44,0.39,0.28,0.5,0.28,0.5,0.5,0.25,0.72,0.44,0.33,0.44,0.25,0.5,0.44,0.39,0.28,0.5,0.5,0.44,0.28,0.44,0.5,0.25,0.44,0.39,0.25,0.56,0.72,0.67,0.56,0.25,0.5,0.5,0.39,0.5,0.28,0.28,0.44,0.28,0.39,0.25,0.25" style="fill:rgb(35,31,32);font-family:TimesNewRomanPSMT;font-size:10.0px;stroke:none;">were already residing were designated as SARS hospitals. </text>
   <text y="175.958" x="49.6,56.82,62.93,68.49,74.6,77.93,80.71,86.82,92.93,95.988,102.658,109.878,117.098,123.768,126.826,134.046,140.156,146.266,149.596,153.486,159.596,162.376,165.434,173.764,179.324,184.884,190.444,196.554,200.444,206.004,211.564,214.622,217.952,224.062,227.12,232.68,235.738,241.848,247.408,252.968,255.748,258.528,261.308,264.638" svgx:width="0.72,0.61,0.56,0.61,0.33,0.28,0.61,0.61,0.28,0.67,0.72,0.72,0.67,0.28,0.72,0.61,0.61,0.33,0.39,0.61,0.28,0.28,0.83,0.56,0.56,0.56,0.61,0.39,0.56,0.56,0.28,0.33,0.61,0.28,0.56,0.28,0.61,0.56,0.56,0.28,0.28,0.28,0.33,0.56" style="fill:rgb(35,31,32);font-family:Arial-BoldMT;font-size:10.0px;stroke:none;">Adapting SARS Control Measures to a Facility</text>
   <text y="187.958" x="62.344,71.234,75.674,80.674,85.674,87.888,90.668,95.668,98.998,103.438,107.878,110.658,113.438,118.438,123.438,125.652,130.092,135.092,140.092,142.872,146.202,151.202,153.982,156.196,160.636,165.076,167.856,170.636,175.636,178.416,181.196,183.976,188.416,192.306,194.52,197.3,202.3,204.334,209.746,214.746,218.076,223.076,228.076,230.856,235.856,238.07,242.51,247.51,252.51,254.543,259.955,264.395,267.175,274.395,278.835" svgx:width="0.89,0.44,0.5,0.5,0.25,0.28,0.5,0.33,0.44,0.44,0.28,0.28,0.5,0.5,0.25,0.44,0.5,0.5,0.28,0.33,0.5,0.28,0.25,0.44,0.44,0.28,0.28,0.5,0.28,0.28,0.28,0.44,0.39,0.25,0.28,0.5,0.25,0.61,0.5,0.33,0.5,0.5,0.28,0.5,0.25,0.44,0.5,0.5,0.25,0.61,0.44,0.28,0.72,0.44,0.5" style="fill:rgb(35,31,32);font-family:TimesNewRomanPSMT;font-size:10.0px;stroke:none;">Many infection control activities in Toronto and Taiwan</text>
   <text y="199.958" x="49.6,56.82,61.26,64.59,69.03,71.53,73.338,76.668,81.108,84.998,89.998,94.998,98.328,102.768,107.208,109.708,111.516,114.296,119.296,122.076,126.516,131.516,135.406,138.186,143.186,147.626,150.126,151.934,156.374,161.374,166.374,168.874,170.682,175.682,178.462,181.611,184.941,187.721,192.161,197.161,199.941,202.721,205.221,207.029,209.809,214.809,217.309,219.117,226.897,231.337,234.117,239.117,241.897,246.337,249.117,254.117,256.61699999999996,258.425,261.755,266.755,270.085,272.585,274.393,278.833" svgx:width="0.72,0.44,0.33,0.44,0.25,0.55,0.33,0.44,0.39,0.5,0.5,0.33,0.44,0.44,0.25,0.55,0.28,0.5,0.28,0.44,0.5,0.39,0.28,0.5,0.44,0.25,0.55,0.44,0.5,0.5,0.25,0.55,0.5,0.28,0.33,0.33,0.28,0.44,0.5,0.28,0.28,0.25,0.55,0.28,0.5,0.25,0.55,0.78,0.44,0.28,0.5,0.28,0.44,0.28,0.5,0.25,0.55,0.33,0.5,0.33,0.25,0.55,0.44,0.5" style="fill:rgb(35,31,32);font-family:TimesNewRomanPSMT;font-size:10.0px;stroke:none;">were resource intensive and difficult to maintain for an</text>
   <text y="211.958" x="49.6,54.04,59.04,61.82,66.26,71.26,76.26,80.7,85.7,88.2,89.111,94.111,98.551,101.881,104.661,109.661,114.661,117.161,120.392,125.804,130.804,133.304,134.215,139.215,142.545,146.985,151.985,156.425,161.425,164.205,166.705,167.616,172.616,177.616,182.616,187.056,191.496,195.936,199.826,203.716,208.156,211.486,216.486,218.986,219.897,224.897,228.787,233.227,235.727,236.638,241.638,244.968,247.468,248.379,252.269,255.049,259.489,262.638,265.968,268.468,269.379,273.819,278.819" svgx:width="0.44,0.5,0.28,0.44,0.5,0.5,0.44,0.5,0.25,0.55,0.5,0.44,0.33,0.28,0.5,0.5,0.25,0.25,0.61,0.5,0.25,0.55,0.5,0.33,0.44,0.5,0.44,0.5,0.28,0.25,0.55,0.5,0.5,0.5,0.44,0.44,0.44,0.39,0.39,0.44,0.33,0.5,0.25,0.55,0.5,0.39,0.44,0.25,0.55,0.5,0.33,0.25,0.55,0.39,0.28,0.44,0.33,0.33,0.25,0.55,0.44,0.5,0.5" style="fill:rgb(35,31,32);font-family:TimesNewRomanPSMT;font-size:10.0px;stroke:none;">extended period. To prevent unnecessary use of staff and</text>
   <text y="223.958" x="49.6,57.38,61.82,64.6,69.04,72.37,75.15,79.59,82.37,86.26,88.76,91.26,93.037,96.927,101.927,109.707,114.147,116.647,118.424,126.204,130.644,135.084,138.974,143.974,147.304,151.744,155.634,158.134,159.911,167.131,171.571,174.901,179.341,181.841,183.618,186.398,194.178,199.178,201.958,206.398,214.178,218.618,223.618,226.398,230.838,235.838,238.338,240.115,245.115,250.115,252.895,257.895,260.395,262.172,269.392,274.392,278.832" svgx:width="0.78,0.44,0.28,0.44,0.33,0.28,0.44,0.28,0.39,0.25,0.25,0.55,0.39,0.5,0.78,0.44,0.25,0.55,0.78,0.44,0.44,0.39,0.5,0.33,0.44,0.39,0.25,0.55,0.72,0.44,0.33,0.44,0.25,0.55,0.28,0.78,0.5,0.28,0.44,0.78,0.44,0.5,0.28,0.44,0.5,0.25,0.55,0.5,0.5,0.28,0.5,0.25,0.55,0.72,0.5,0.44,0.5" style="fill:rgb(35,31,32);font-family:TimesNewRomanPSMT;font-size:10.0px;stroke:none;">materials, some measures were implemented only when</text>
   <text y="235.958" x="49.6,52.38,55.71,60.15,65.15,69.04,76.82,79.6,83.49,87.38,90.16,95.16,100.16,102.66,103.54,106.32,111.32,113.82,114.7,117.48,122.48,126.92,129.42000000000002,130.3,134.19,139.19,142.52,145.85,150.85,155.85,160.85,165.85,168.63,173.63,178.63,181.13,182.01,186.45,191.45,199.23,207.01,212.01,217.01,219.79,222.57,227.57,230.07,230.95,235.95,239.28,241.78,242.66,249.88,252.66,255.44,260.44,263.22,268.22,270.72,271.6,274.38,279.38" svgx:width="0.28,0.33,0.44,0.5,0.39,0.78,0.28,0.39,0.39,0.28,0.5,0.5,0.25,0.55,0.28,0.5,0.25,0.55,0.28,0.5,0.44,0.25,0.55,0.39,0.5,0.33,0.33,0.5,0.5,0.5,0.5,0.28,0.5,0.5,0.25,0.55,0.44,0.5,0.78,0.78,0.5,0.5,0.28,0.28,0.5,0.25,0.55,0.5,0.33,0.25,0.55,0.72,0.28,0.28,0.5,0.28,0.5,0.25,0.55,0.28,0.5,0.44" style="fill:rgb(35,31,32);font-family:TimesNewRomanPSMT;font-size:10.0px;stroke:none;">transmission in the surrounding community or within the</text>
   <text y="247.958" x="49.6,54.6,59.6,63.49,68.49,71.27,74.05,78.49,81.27,83.68,87.01,91.45,95.89,100.33,105.33,109.77,114.77,117.18,121.62,124.03,129.03,133.47,136.8,139.58,142.36,146.8,151.8,154.58,159.02,162.35,164.76,167.54,171.98,176.98,181.42,184.2,186.7,189.11,194.67,199.67,203.0,205.41,209.85,214.85,219.29,227.07,232.07,234.85,239.29,241.79,244.2,249.2,253.09,255.87,260.87,265.87,268.28,272.17,277.17,280.5" svgx:width="0.5,0.5,0.39,0.5,0.28,0.28,0.44,0.28,0.25,0.33,0.44,0.44,0.44,0.5,0.44,0.5,0.25,0.44,0.25,0.5,0.44,0.33,0.28,0.28,0.44,0.5,0.28,0.44,0.33,0.25,0.28,0.44,0.5,0.44,0.28,0.25,0.25,0.56,0.5,0.33,0.25,0.44,0.5,0.44,0.78,0.5,0.28,0.44,0.25,0.25,0.5,0.39,0.28,0.5,0.5,0.25,0.39,0.5,0.33,0.33" style="fill:rgb(35,31,32);font-family:TimesNewRomanPSMT;font-size:10.0px;stroke:none;">hospital reached a particular level. For example, using sur-</text>
   <text y="259.958" x="49.6,54.6,57.38,61.82,66.26,69.04,71.796,79.576,84.016,87.906,92.906,96.796,99.552,102.332,107.332,110.662,115.662,120.662,125.662,130.662,135.662,140.662,143.442,146.198,150.638,153.394,158.394,163.394,167.284,172.284,175.064,177.844,182.284,185.064,187.82,190.6,195.6,198.356,202.796,207.796,212.796,215.576,220.016,222.796,227.796,230.552,233.332,238.332,241.662,246.102,250.542,253.322,256.102,261.102,266.102,268.858,271.638,276.638,279.394" svgx:width="0.5,0.28,0.44,0.44,0.28,0.25,0.78,0.44,0.39,0.5,0.39,0.25,0.28,0.5,0.33,0.5,0.5,0.5,0.5,0.5,0.5,0.28,0.25,0.44,0.25,0.5,0.5,0.39,0.5,0.28,0.28,0.44,0.28,0.25,0.28,0.5,0.25,0.44,0.5,0.5,0.28,0.44,0.28,0.5,0.25,0.28,0.5,0.33,0.44,0.44,0.28,0.28,0.5,0.5,0.25,0.28,0.5,0.25,0.44" style="fill:rgb(35,31,32);font-family:TimesNewRomanPSMT;font-size:10.0px;stroke:none;">gical masks throughout a hospital to contain infection in a</text>
   <text y="271.958" x="49.6,54.6,59.04,63.48,66.26,69.04,74.04,78.48,82.92,86.25,90.69,92.82,100.04,105.04,108.37,113.37,117.81,121.14,123.27,128.27,131.6,133.73,138.73,141.51,146.51,150.95,154.28,156.41,161.41,165.85,169.18,173.07,178.07,183.07,185.2,192.42,195.2,197.98,202.98,205.11,209.0,214.0,221.78,226.78,229.56,234.56,242.34,246.23,248.36,255.58,260.02,263.91,266.04,271.04,276.04,278.82" svgx:width="0.5,0.44,0.44,0.28,0.28,0.5,0.44,0.44,0.33,0.44,0.25,0.72,0.5,0.33,0.5,0.44,0.33,0.25,0.5,0.33,0.25,0.5,0.28,0.5,0.44,0.33,0.25,0.5,0.44,0.33,0.39,0.5,0.5,0.25,0.72,0.28,0.28,0.5,0.25,0.39,0.5,0.78,0.5,0.28,0.5,0.78,0.39,0.25,0.72,0.44,0.39,0.25,0.5,0.5,0.28,0.5" style="fill:rgb(35,31,32);font-family:TimesNewRomanPSMT;font-size:10.0px;stroke:none;">healthcare worker or other person with symptoms was only</text>
   <text y="283.958" x="49.6,52.38,60.16,65.16,67.94,72.38,80.16,84.6,89.6,92.38,96.82,101.82,104.32,106.6,113.82,118.82,123.26,128.26,130.76,133.04,135.82,139.15,143.59,148.59,152.48,160.26,163.04,166.93,170.82,173.6,178.6,183.6,186.1,188.38,191.16,196.16,198.66,200.94,203.72,208.72,213.16,215.66,217.94,222.38,227.38,235.16,242.94,247.94,252.94,255.72,258.5,263.5,266.0,268.28,275.5,279.94" svgx:width="0.28,0.78,0.5,0.28,0.44,0.78,0.44,0.5,0.28,0.44,0.5,0.25,0.55,0.72,0.5,0.44,0.5,0.25,0.55,0.28,0.33,0.44,0.5,0.39,0.78,0.28,0.39,0.39,0.28,0.5,0.5,0.25,0.55,0.28,0.5,0.25,0.55,0.28,0.5,0.44,0.25,0.55,0.44,0.5,0.78,0.78,0.5,0.5,0.28,0.28,0.5,0.25,0.55,0.72,0.44,0.39" style="fill:rgb(35,31,32);font-family:TimesNewRomanPSMT;font-size:10.0px;stroke:none;">implemented when transmission in the community was</text>
   <text y="295.958" x="49.6,54.6,59.6,64.6,69.6,72.38,77.38,82.38,85.484,90.484,93.814,96.918,100.248,104.688,109.128,113.568,118.568,121.348,124.452,127.232,130.562,135.002,140.002,143.892,151.672,154.452,158.342,162.232,165.012,170.012,175.012,178.116,183.116,187.556,192.556,195.66,200.66,205.1,209.54,214.54,217.87,221.2,225.64,230.64,233.744,236.524,241.524,244.628,247.408,252.408,256.848,259.952,263.282,267.722,272.162,274.942,277.722,280.502" svgx:width="0.5,0.5,0.5,0.5,0.28,0.5,0.5,0.25,0.5,0.33,0.25,0.33,0.44,0.44,0.44,0.5,0.28,0.25,0.28,0.33,0.44,0.5,0.39,0.78,0.28,0.39,0.39,0.28,0.5,0.5,0.25,0.5,0.44,0.5,0.25,0.5,0.44,0.44,0.5,0.33,0.33,0.44,0.5,0.25,0.28,0.5,0.25,0.28,0.5,0.44,0.25,0.33,0.44,0.44,0.28,0.28,0.28,0.33" style="fill:rgb(35,31,32);font-family:TimesNewRomanPSMT;font-size:10.0px;stroke:none;">ongoing or recent transmission had occurred in the facili-</text>
   <text y="307.958" x="49.6,52.38,56.731,59.231,61.731,64.256,71.476,74.256,79.256,83.696,87.026,89.526,92.051,95.381,100.381,105.381,109.821,112.601,115.381,120.381,125.381,129.271,131.771,134.271,136.796,140.686,145.686,150.126,155.126,157.626,160.151,164.591,168.481,170.981,173.506,176.286,179.066,186.846,189.626,192.406,195.186,200.186,205.186,207.686,210.211,214.651,219.091,223.531,227.971,231.861,235.751,238.251,240.751,243.276,246.606,251.046,254.936,257.716,261.046,263.826,268.266,271.046,273.826,278.826" svgx:width="0.28,0.5,0.25,0.25,0.55,0.72,0.28,0.5,0.44,0.33,0.25,0.55,0.33,0.5,0.5,0.44,0.28,0.28,0.5,0.5,0.39,0.25,0.25,0.55,0.39,0.5,0.44,0.5,0.25,0.55,0.44,0.39,0.25,0.55,0.28,0.28,0.78,0.28,0.28,0.28,0.5,0.5,0.25,0.55,0.44,0.44,0.44,0.44,0.39,0.39,0.25,0.25,0.55,0.33,0.44,0.39,0.28,0.33,0.28,0.44,0.28,0.28,0.5,0.5" style="fill:rgb(35,31,32);font-family:TimesNewRomanPSMT;font-size:10.0px;stroke:none;">ty. Other functions, such as limiting access, restricting</text>
   <text y="319.958" x="49.6,52.38,55.71,60.15,65.15,69.04,72.37,76.81,80.14,84.03,86.53,89.03,90.715,95.155,100.155,105.155,107.655,109.34,114.34,118.78,122.11,125.44,130.44,133.77,141.55,144.33,149.33,154.33,156.83,158.515,162.405,167.405,170.735,175.735,180.175,182.955,185.735,188.515,192.955,197.955,202.395,206.835,209.335,211.02,214.35,219.35,222.68,225.18,226.865,231.865,236.305,243.525,246.855,251.855,256.855,260.745,265.185,267.965,270.465,272.15,274.93,277.71,280.49" svgx:width="0.28,0.33,0.44,0.5,0.39,0.33,0.44,0.33,0.39,0.25,0.25,0.55,0.44,0.5,0.5,0.25,0.55,0.5,0.44,0.33,0.33,0.5,0.33,0.78,0.28,0.5,0.5,0.25,0.55,0.39,0.5,0.33,0.5,0.44,0.28,0.28,0.28,0.44,0.5,0.44,0.44,0.25,0.55,0.33,0.5,0.33,0.25,0.55,0.5,0.44,0.72,0.33,0.5,0.5,0.39,0.44,0.28,0.25,0.55,0.28,0.28,0.28,0.33" style="fill:rgb(35,31,32);font-family:TimesNewRomanPSMT;font-size:10.0px;stroke:none;">transfers, and performing surveillance for new-onset ill-</text>
   <text y="331.958" x="49.6,54.6,59.04,62.93,66.82,69.722,74.162,81.942,86.942,91.942,96.942,99.844,104.844,109.284,113.724,116.504,119.284,124.284,128.724,133.164,136.494,140.934,143.836,151.056,156.056,159.386,164.386,168.826,172.156,176.046,178.546,181.448,188.668,193.108,196.438,200.878,203.78,206.56,211.56,214.34,217.12,219.9,224.34,227.12,231.56,236.56,239.462,243.902,246.682,249.584,254.584,257.364,260.513,263.843,268.283,271.613,276.053,281.053" svgx:width="0.5,0.44,0.39,0.39,0.25,0.44,0.78,0.5,0.5,0.5,0.25,0.5,0.44,0.44,0.28,0.28,0.5,0.44,0.44,0.33,0.44,0.25,0.72,0.5,0.33,0.5,0.44,0.33,0.39,0.25,0.25,0.72,0.44,0.33,0.44,0.25,0.28,0.5,0.28,0.28,0.28,0.44,0.28,0.44,0.5,0.25,0.44,0.28,0.25,0.5,0.28,0.33,0.33,0.44,0.33,0.44,0.5,0.28" style="fill:rgb(35,31,32);font-family:TimesNewRomanPSMT;font-size:10.0px;stroke:none;">ness among healthcare workers, were initiated at different</text>
   <text y="343.958" x="49.6,52.38,55.16,62.94,67.38,71.27,74.392,77.172,82.172,85.294,90.294,95.294,99.184,104.184,106.964,109.744,114.184,116.964,120.854,123.976,128.976,133.976,137.098,139.878,144.878,149.318,152.44,157.44,161.88,165.77,168.55,172.44,175.562,180.562,183.892,187.014,192.014,197.014,200.904,205.904,208.684,211.464,215.904,218.684,221.806,224.586,227.916,232.356,237.356,241.246,249.026,251.806,255.696,259.586,262.366,267.366,272.366,275.488,280.488" svgx:width="0.28,0.28,0.78,0.44,0.39,0.25,0.28,0.5,0.25,0.5,0.5,0.39,0.5,0.28,0.28,0.44,0.28,0.39,0.25,0.5,0.5,0.25,0.28,0.5,0.44,0.25,0.5,0.44,0.39,0.28,0.39,0.25,0.5,0.33,0.25,0.5,0.5,0.39,0.5,0.28,0.28,0.44,0.28,0.25,0.28,0.33,0.44,0.5,0.39,0.78,0.28,0.39,0.39,0.28,0.5,0.5,0.25,0.5,0.33" style="fill:rgb(35,31,32);font-family:TimesNewRomanPSMT;font-size:10.0px;stroke:none;">times in hospitals on the basis of hospital transmission or</text>
   <text y="355.958" x="49.6,54.04,59.04,66.82,74.6,79.6,84.6,87.38,90.16,95.16,97.91,100.69,104.02,108.46,113.46,117.35,125.13,127.91,131.8,135.69,138.47,143.47,148.47" svgx:width="0.44,0.5,0.78,0.78,0.5,0.5,0.28,0.28,0.5,0.25,0.28,0.33,0.44,0.5,0.39,0.78,0.28,0.39,0.39,0.28,0.5,0.5,0.25" style="fill:rgb(35,31,32);font-family:TimesNewRomanPSMT;font-size:10.0px;stroke:none;">community transmission.</text>
   <text y="367.958" x="62.344,69.014,71.794,76.794,80.684,83.464,88.464,93.464,95.77,100.21,105.21,107.516,111.956,119.736,124.176,127.325,132.325,136.765,141.765,146.205,151.205,153.511,158.511,162.951,167.951,172.391,175.721,178.501,186.281,190.721,195.721,198.501,200.807,205.807,209.137,211.443,216.443,221.443,225.333,230.333,233.113,235.893,240.333,243.113,245.419,252.639,257.079,260.409,265.409,267.715,272.155,274.935,278.825" svgx:width="0.67,0.28,0.5,0.39,0.28,0.5,0.5,0.25,0.44,0.5,0.25,0.44,0.78,0.44,0.33,0.5,0.44,0.5,0.44,0.5,0.25,0.5,0.44,0.5,0.44,0.33,0.28,0.78,0.44,0.5,0.28,0.25,0.5,0.33,0.25,0.5,0.5,0.39,0.5,0.28,0.28,0.44,0.28,0.25,0.72,0.44,0.33,0.5,0.25,0.44,0.28,0.39,0.5" style="fill:rgb(35,31,32);font-family:TimesNewRomanPSMT;font-size:10.0px;stroke:none;">Closing an emergency department or hospital ward also</text>
   <text y="379.958" x="49.6,56.82,61.26,65.15,67.65,68.614,71.394,74.174,79.174,84.174,88.614,93.614,96.114,97.078,99.858,104.858,107.358,108.322,111.102,116.102,120.542,123.042,124.006,126.786,131.226,136.226,140.666,143.446,145.946,146.91,151.91,155.24,157.74,158.704,161.484,164.814,169.254,174.254,178.144,185.924,188.704,192.594,196.484,199.264,204.264,209.264,211.764,212.728,219.948,222.728,225.508,230.508,233.288,238.288,240.788,241.752,246.192,248.692,249.656,254.656,259.656,263.546,268.546,271.326,274.106,278.546,281.326" svgx:width="0.72,0.44,0.39,0.25,0.55,0.28,0.28,0.5,0.5,0.44,0.5,0.25,0.55,0.28,0.5,0.25,0.55,0.28,0.5,0.44,0.25,0.55,0.28,0.44,0.5,0.44,0.28,0.25,0.55,0.5,0.33,0.25,0.55,0.28,0.33,0.44,0.5,0.39,0.78,0.28,0.39,0.39,0.28,0.5,0.5,0.25,0.55,0.72,0.28,0.28,0.5,0.28,0.5,0.25,0.55,0.44,0.25,0.55,0.5,0.5,0.39,0.5,0.28,0.28,0.44,0.28,0.25" style="fill:rgb(35,31,32);font-family:TimesNewRomanPSMT;font-size:10.0px;stroke:none;">was linked to the level of transmission within a hospital.</text>
   <text y="391.958" x="49.6,56.27,59.05,64.05,67.94,70.72,75.72,80.72,84.61,87.11,88.338,95.558,99.998,103.328,107.768,110.268,111.496,116.496,120.936,125.376,129.816,133.706,137.596,142.036,145.366,150.366,152.866,154.094,156.874,161.874,164.374,165.602,170.602,173.932,178.372,183.372,187.812,192.812,195.592,198.092,199.32,203.76,208.76,213.76,216.54,219.32,222.1,227.1,232.1,236.54,239.32,241.82,243.048,247.488,251.928,255.818,260.258,264.148,266.648,267.876,270.656,275.656,278.156,279.384" svgx:width="0.67,0.28,0.5,0.39,0.28,0.5,0.5,0.39,0.25,0.55,0.72,0.44,0.33,0.44,0.25,0.55,0.5,0.44,0.44,0.44,0.39,0.39,0.44,0.33,0.5,0.25,0.55,0.28,0.5,0.25,0.55,0.5,0.33,0.44,0.5,0.44,0.5,0.28,0.25,0.55,0.44,0.5,0.5,0.28,0.28,0.28,0.5,0.5,0.44,0.28,0.25,0.55,0.44,0.44,0.39,0.44,0.39,0.25,0.55,0.28,0.5,0.25,0.55,0.44" style="fill:rgb(35,31,32);font-family:TimesNewRomanPSMT;font-size:10.0px;stroke:none;">Closings were necessary to prevent additional cases in a</text>
   <text y="403.958" x="49.6,54.6,59.6,63.49,68.49,71.27,74.05,78.49,81.27,83.77,85.136,92.356,97.356,101.796,105.126,109.566,112.066,113.432,116.212,121.212,125.652,128.152,129.518,132.848,135.628,139.518,144.518,147.018,148.384,151.714,156.714,160.044,162.544,163.91,166.69,170.02,174.46,179.46,183.35,191.13,193.91,197.8,201.69,204.47,209.47,214.47,216.97,218.336,225.556,229.996,233.886,236.386,237.752,242.752,245.532,250.532,255.532,258.03200000000004,259.398,264.398,267.728,270.228,271.594,274.374,279.374" svgx:width="0.5,0.5,0.39,0.5,0.28,0.28,0.44,0.28,0.25,0.55,0.72,0.5,0.44,0.33,0.44,0.25,0.55,0.28,0.5,0.44,0.25,0.55,0.33,0.28,0.39,0.5,0.25,0.55,0.33,0.5,0.33,0.25,0.55,0.28,0.33,0.44,0.5,0.39,0.78,0.28,0.39,0.39,0.28,0.5,0.5,0.25,0.55,0.72,0.44,0.39,0.25,0.55,0.5,0.28,0.5,0.5,0.25,0.55,0.5,0.33,0.25,0.55,0.28,0.5,0.44" style="fill:rgb(35,31,32);font-family:TimesNewRomanPSMT;font-size:10.0px;stroke:none;">hospital where the risk for transmission was high or the</text>
   <text y="415.958" x="49.6,53.49,58.49,63.49,66.82,71.26,75.7,78.665,83.665,86.995,89.96,92.74,96.07,100.51,105.51,109.4,117.18,119.96,123.85,127.74,130.52,135.52,140.52,143.485,150.705,155.145,159.035,162.0,167.0,172.0,177.0,182.0,187.0,194.22,199.22,201.72,204.685,211.905,216.905,224.125,228.565,233.565,238.005,240.934,243.434,246.399,251.399,254.179,259.179,263.619,268.619,271.584,274.364,279.364" svgx:width="0.39,0.5,0.5,0.33,0.44,0.44,0.25,0.5,0.33,0.25,0.28,0.33,0.44,0.5,0.39,0.78,0.28,0.39,0.39,0.28,0.5,0.5,0.25,0.72,0.44,0.39,0.25,0.5,0.5,0.5,0.5,0.5,0.72,0.5,0.25,0.25,0.72,0.5,0.72,0.44,0.5,0.44,0.33,0.25,0.25,0.5,0.28,0.5,0.44,0.5,0.25,0.28,0.5,0.44" style="fill:rgb(35,31,32);font-family:TimesNewRomanPSMT;font-size:10.0px;stroke:none;">source of transmission was unknown. However, given the</text>
   <text y="427.958" x="49.6,53.49,58.49,63.49,67.38,70.16,74.6,79.6,82.38,85.16,89.6,92.38,94.923,99.923,104.363,109.363,113.803,116.583,119.363,124.363,128.803,131.346,135.786,138.935,142.265,146.705,151.145,153.925,156.468,161.468,166.468,169.011,174.011,179.011,182.901,187.901,190.681,193.461,197.901,200.681,203.224,206.554,209.334,214.334,218.774,223.774,228.214,232.654,236.544,239.087,243.527,248.527,253.527,256.07,261.07,265.51,269.95,272.73,275.51,280.51" svgx:width="0.39,0.5,0.5,0.39,0.28,0.44,0.5,0.28,0.28,0.44,0.28,0.25,0.5,0.44,0.5,0.44,0.28,0.28,0.5,0.44,0.25,0.44,0.33,0.33,0.44,0.44,0.28,0.25,0.5,0.5,0.25,0.5,0.5,0.39,0.5,0.28,0.28,0.44,0.28,0.25,0.33,0.28,0.5,0.44,0.5,0.44,0.44,0.39,0.25,0.44,0.5,0.5,0.25,0.5,0.44,0.44,0.28,0.28,0.5,0.33" style="fill:rgb(35,31,32);font-family:TimesNewRomanPSMT;font-size:10.0px;stroke:none;">substantial negative effect on hospital finances and health-</text>
   <text y="439.958" x="49.6,54.04,58.48,61.81,66.25,69.159,73.599,78.039,82.479,86.919,90.809,94.699,97.608,100.388,105.388,108.297,112.737,115.646,120.086,125.086,132.866,140.646,145.646,150.646,153.426,156.206,160.557,163.057,165.966,168.746,173.746,178.186,181.095,186.095,190.535,194.975,197.755,201.645,204.425,209.425,214.425,217.334,220.114,225.114,228.023,232.463,235.243,240.243,244.133,248.573,251.482,255.922,258.831,263.831,268.831,272.721,277.721,280.501" svgx:width="0.44,0.44,0.33,0.44,0.25,0.44,0.44,0.44,0.44,0.39,0.39,0.25,0.28,0.5,0.25,0.44,0.25,0.44,0.5,0.78,0.78,0.5,0.5,0.28,0.28,0.5,0.25,0.25,0.28,0.5,0.44,0.25,0.5,0.44,0.44,0.28,0.39,0.28,0.5,0.5,0.25,0.28,0.5,0.25,0.44,0.28,0.5,0.39,0.44,0.25,0.44,0.25,0.5,0.5,0.39,0.5,0.28,0.33" style="fill:rgb(35,31,32);font-family:TimesNewRomanPSMT;font-size:10.0px;stroke:none;">care access in a community, the decision to close a hospi-</text>
   <text y="451.958" x="49.6,52.38,56.82,59.6,62.477,65.257,70.257,73.134,78.134,82.574,89.794,92.671,97.111,102.111,109.891,112.671,116.561,120.451,123.231,128.231,133.231,137.121,139.998,147.218,151.658,155.548,158.425,166.205,170.645,175.645,180.085,182.962,187.962,192.962,195.742,200.742,203.619,206.399,211.399,214.276,218.716,223.716,228.716,232.606,237.606,240.386,243.166,247.606,250.386,253.166,258.166,263.166,266.043,273.263,276.043,278.823" svgx:width="0.28,0.44,0.28,0.25,0.28,0.5,0.25,0.5,0.44,0.72,0.25,0.44,0.5,0.78,0.28,0.39,0.39,0.28,0.5,0.5,0.39,0.25,0.72,0.44,0.39,0.25,0.78,0.44,0.5,0.44,0.25,0.5,0.5,0.28,0.5,0.25,0.28,0.5,0.25,0.44,0.5,0.5,0.39,0.5,0.28,0.28,0.44,0.28,0.28,0.5,0.5,0.25,0.72,0.28,0.28,0.5" style="fill:rgb(35,31,32);font-family:TimesNewRomanPSMT;font-size:10.0px;stroke:none;">tal to new admissions was made only in consultation with</text>
   <text y="463.958" x="49.6,54.6,59.6,64.6,67.38,70.16,74.6,77.35,82.35,86.79,91.23,94.01,96.79,101.79,104.54,108.98,113.98,116.76,121.76,126.76,130.09,132.87,135.65,138.43,142.87,146.76,149.26" svgx:width="0.5,0.5,0.5,0.28,0.28,0.44,0.25,0.5,0.44,0.44,0.28,0.28,0.5,0.25,0.44,0.5,0.28,0.5,0.5,0.33,0.28,0.28,0.28,0.44,0.39,0.25,0.25" style="fill:rgb(35,31,32);font-family:TimesNewRomanPSMT;font-size:10.0px;stroke:none;">public health authorities. </text>
   <text y="487.982" x="49.6,56.82,62.93,69.04,74.6,77.38,83.49,89.05,91.83,97.94,104.05" svgx:width="0.72,0.61,0.61,0.56,0.28,0.61,0.56,0.28,0.61,0.61,0.56" style="fill:rgb(35,31,32);font-family:Arial-BoldMT;font-size:10.0px;stroke:none;">Conclusions</text>
   <text y="499.982" x="67.6,74.82,79.82,82.32,85.798,89.688,94.688,97.468,102.468,104.968,108.446,113.446,115.946,118.446,121.924,126.924,131.924,136.924,141.924,144.424,146.924,150.402,153.182,158.182,162.622,165.122,168.42,177.059,182.059,185.389,188.169,193.169,195.669,199.147,206.367,210.807,215.247,218.027,220.807,225.807,228.307,231.785,239.005,242.154,247.154,251.594,256.594,259.374,263.814,268.254,271.034,273.814,278.814" svgx:width="0.72,0.5,0.25,0.55,0.39,0.5,0.28,0.5,0.25,0.55,0.5,0.25,0.25,0.55,0.5,0.5,0.5,0.5,0.25,0.25,0.55,0.28,0.5,0.44,0.25,0.55,0.94,0.5,0.33,0.28,0.5,0.25,0.55,0.72,0.44,0.44,0.28,0.28,0.5,0.25,0.55,0.72,0.33,0.5,0.44,0.5,0.28,0.44,0.44,0.28,0.28,0.5,0.5" style="fill:rgb(35,31,32);font-family:TimesNewRomanPSMT;font-size:10.0px;stroke:none;">On July 5, 2003, the World Health Organization</text>
   <text y="511.982" x="49.6,54.6,59.04,63.48,66.26,70.7,74.03,78.47,83.47,85.97,88.123,90.903,95.903,100.343,102.843,104.996,112.216,117.216,120.546,123.326,128.326,130.826,132.979,136.309,139.639,144.079,148.519,151.019,153.172,158.172,161.502,164.002,166.155,171.155,176.155,181.155,186.155,188.935,193.935,198.935,201.435,203.588,209.148,216.368,223.038,228.598,231.098,233.251,236.031,239.361,243.801,248.801,252.691,260.471,263.251,267.141,271.031,273.811,278.811" svgx:width="0.5,0.44,0.44,0.28,0.44,0.33,0.44,0.5,0.25,0.55,0.28,0.5,0.44,0.25,0.55,0.72,0.5,0.33,0.28,0.5,0.25,0.55,0.33,0.33,0.44,0.44,0.25,0.55,0.5,0.33,0.25,0.55,0.5,0.5,0.5,0.5,0.28,0.5,0.5,0.25,0.55,0.56,0.72,0.67,0.56,0.25,0.55,0.28,0.33,0.44,0.5,0.39,0.78,0.28,0.39,0.39,0.28,0.5,0.5" style="fill:rgb(35,31,32);font-family:TimesNewRomanPSMT;font-size:10.0px;stroke:none;">declared the world free of ongoing SARS transmission</text>
   <text y="523.982" x="49.6,52.93,57.93,62.93,66.26,68.76,71.26,73.005,80.225,85.225,92.445,96.885,101.885,106.325,109.255,111.755,114.255,116.0,118.78,123.78,128.22,130.72,132.465,135.795,140.235,144.675,147.455,152.455,155.785,159.675,162.175,163.92,166.7,171.7,176.14,178.92,181.42,183.165,185.945,190.385,195.385,197.885,199.63,202.41,207.41,209.91,211.655,214.435,219.435,223.875,226.375,228.12,232.56,240.34,244.78,247.93,252.93,257.37,262.37,266.81,271.25,273.75,275.495,280.495" svgx:width="0.33,0.5,0.5,0.33,0.25,0.25,0.55,0.72,0.5,0.72,0.44,0.5,0.44,0.33,0.25,0.25,0.55,0.28,0.5,0.44,0.25,0.55,0.33,0.44,0.44,0.28,0.5,0.33,0.39,0.25,0.55,0.28,0.5,0.44,0.28,0.25,0.55,0.28,0.44,0.5,0.25,0.55,0.28,0.5,0.25,0.55,0.28,0.5,0.44,0.25,0.55,0.44,0.78,0.44,0.33,0.5,0.44,0.5,0.44,0.44,0.25,0.55,0.5,0.33" style="fill:rgb(35,31,32);font-family:TimesNewRomanPSMT;font-size:10.0px;stroke:none;">(16). However, the factors that led to the emergence of</text>
   <text y="535.982" x="49.6,55.16,62.38,69.05,74.61,77.11,78.644,83.084,86.414,90.854,93.354,94.888,97.668,100.448,105.448,109.888,112.668,117.668,120.168,121.702,125.592,128.372,131.152,133.932,136.712,139.212,140.746,143.526,148.526,151.026,152.56,157.56,160.34,164.78,169.22,173.66,176.16,178.66,180.194,185.194,189.634,192.964,200.744,203.524,206.304,209.084,211.864,216.864,221.864,224.364,225.898,228.678,233.678,238.118,240.618,242.152,247.152,252.152,256.042,259.932,262.712,267.712,270.492,273.272,276.052,278.832" svgx:width="0.56,0.72,0.67,0.56,0.25,0.55,0.44,0.33,0.44,0.25,0.55,0.28,0.28,0.5,0.44,0.28,0.5,0.25,0.55,0.39,0.28,0.28,0.28,0.28,0.25,0.55,0.28,0.5,0.25,0.55,0.5,0.28,0.44,0.44,0.44,0.25,0.25,0.55,0.5,0.44,0.33,0.78,0.28,0.28,0.28,0.28,0.5,0.5,0.25,0.55,0.28,0.5,0.44,0.25,0.55,0.5,0.5,0.39,0.39,0.28,0.5,0.28,0.28,0.28,0.28,0.5" style="fill:rgb(35,31,32);font-family:TimesNewRomanPSMT;font-size:10.0px;stroke:none;">SARS are likely still in place, permitting the possibility</text>
   <text y="547.982" x="49.6,52.38,57.38,61.82,64.6,67.1,69.834,75.394,82.614,89.284,94.844,97.344,100.078,107.298,110.078,112.858,115.638,118.138,120.872,124.202,128.642,133.082,140.862,145.302,148.451,153.451,157.891,160.391,162.891,165.625,168.955,172.285,174.785,177.519,180.299,185.299,188.079,191.969,194.469,197.203,202.203,206.643,211.643,216.643,221.083,226.083,229.973,232.473,234.973,237.707,242.707,247.707,251.597,256.597,261.037,266.037,273.817,276.597,281.037" svgx:width="0.28,0.5,0.44,0.28,0.25,0.55,0.56,0.72,0.67,0.56,0.25,0.55,0.72,0.28,0.28,0.28,0.25,0.55,0.33,0.44,0.44,0.78,0.44,0.33,0.5,0.44,0.25,0.25,0.55,0.33,0.33,0.25,0.55,0.28,0.5,0.28,0.39,0.25,0.55,0.5,0.44,0.5,0.5,0.44,0.5,0.39,0.25,0.25,0.55,0.5,0.5,0.39,0.5,0.44,0.5,0.78,0.28,0.44,0.28" style="fill:rgb(35,31,32);font-family:TimesNewRomanPSMT;font-size:10.0px;stroke:none;">that SARS will reemerge. If this happens, nosocomial</text>
   <text y="559.982" x="49.6,52.38,55.71,60.15,65.15,69.04,76.82,79.6,83.49,87.38,90.16,95.16,100.16,102.66,105.224,109.664,114.664,119.664,122.164,124.728,129.168,133.608,137.498,141.938,145.828,148.328,150.892,155.332,163.112,168.112,173.112,178.112,180.612,183.176,188.176,192.616,197.056,199.836,202.616,207.616,212.056,216.496,219.826,224.266,226.766,229.33,236.55,241.55,244.88,249.88,254.32,257.65,261.54,264.04,266.604,274.384,278.824" svgx:width="0.28,0.33,0.44,0.5,0.39,0.78,0.28,0.39,0.39,0.28,0.5,0.5,0.25,0.55,0.44,0.5,0.5,0.25,0.55,0.44,0.44,0.39,0.44,0.39,0.25,0.55,0.44,0.78,0.5,0.5,0.5,0.25,0.55,0.5,0.44,0.44,0.28,0.28,0.5,0.44,0.44,0.33,0.44,0.25,0.55,0.72,0.5,0.33,0.5,0.44,0.33,0.39,0.25,0.55,0.78,0.44,0.5" style="fill:rgb(35,31,32);font-family:TimesNewRomanPSMT;font-size:10.0px;stroke:none;">transmission and cases among healthcare workers may</text>
   <text y="571.982" x="49.6,54.04,56.82,60.71,65.71,68.21,71.691,76.691,81.131,85.571,90.571,93.349,95.849,98.349,101.649,107.061,111.501,116.501,119.281,124.281,129.281,131.781,135.262,138.042,143.042,147.482,149.982,153.463,157.903,162.903,167.903,172.343,175.673,178.453,182.893,187.893,192.333,196.773,200.663,203.163,206.644,209.974,213.304,218.304,226.084,228.584,231.884,237.296,242.296,245.626,250.626,255.626,258.406,263.406,265.906,269.387,273.827,278.827" svgx:width="0.44,0.28,0.39,0.5,0.25,0.55,0.5,0.44,0.44,0.5,0.33,0.25,0.25,0.55,0.61,0.44,0.5,0.28,0.5,0.5,0.25,0.55,0.28,0.5,0.44,0.25,0.55,0.44,0.5,0.5,0.44,0.33,0.28,0.44,0.5,0.44,0.44,0.39,0.25,0.55,0.33,0.33,0.5,0.78,0.25,0.55,0.61,0.5,0.33,0.5,0.5,0.28,0.5,0.25,0.55,0.44,0.5,0.5" style="fill:rgb(35,31,32);font-family:TimesNewRomanPSMT;font-size:10.0px;stroke:none;">also occur. Taking the experiences from Toronto and</text>
   <text y="583.982" x="49.6,55.012,59.452,62.232,69.452,73.892,78.892,81.507,85.947,90.947,95.947,98.562,103.002,108.002,113.002,115.782,120.782,123.562,128.562,133.562,136.177,138.957,143.957,148.397,156.177,158.792,161.572,166.572,169.187,174.187,177.517,181.957,186.957,191.397,194.727,199.167,204.167,209.167,213.607,217.497,221.387,224.002,228.442,233.442,238.442,241.057,246.057,249.387,253.827,258.827,263.267,268.267,271.047,273.827,278.827" svgx:width="0.61,0.44,0.28,0.72,0.44,0.5,0.25,0.44,0.5,0.5,0.25,0.44,0.5,0.5,0.28,0.5,0.28,0.5,0.5,0.25,0.28,0.5,0.44,0.78,0.25,0.28,0.5,0.25,0.5,0.33,0.44,0.5,0.44,0.33,0.44,0.5,0.5,0.44,0.39,0.39,0.25,0.44,0.5,0.5,0.25,0.5,0.33,0.44,0.5,0.44,0.5,0.28,0.28,0.5,0.5" style="fill:rgb(35,31,32);font-family:TimesNewRomanPSMT;font-size:10.0px;stroke:none;">Taiwan and applying them to preparedness and prevention</text>
   <text y="595.982" x="49.6,54.04,57.189,60.519,65.519,68.849,71.629,75.519,78.529,81.309,84.089,89.089,93.529,96.309,101.309,104.319,111.539,114.319,117.099,119.879,122.889,130.669,133.449,138.449,141.229,149.009,151.789,156.229,160.669,163.679,169.239,176.459,183.129,188.689,191.699,194.479,197.809,202.249,207.249,211.139,218.919,221.699,225.589,229.479,232.259,237.259,242.259,245.269,248.049,253.049,256.059,261.059,265.499,269.939,272.719,275.499,280.499" svgx:width="0.44,0.33,0.33,0.5,0.33,0.28,0.39,0.25,0.28,0.28,0.5,0.44,0.28,0.5,0.25,0.72,0.28,0.28,0.28,0.25,0.78,0.28,0.5,0.28,0.78,0.28,0.44,0.44,0.25,0.56,0.72,0.67,0.56,0.25,0.28,0.33,0.44,0.5,0.39,0.78,0.28,0.39,0.39,0.28,0.5,0.5,0.25,0.28,0.5,0.25,0.5,0.44,0.44,0.28,0.28,0.5,0.33" style="fill:rgb(35,31,32);font-family:TimesNewRomanPSMT;font-size:10.0px;stroke:none;">efforts likely will minimize SARS transmission in health-</text>
   <text y="607.982" x="49.6,54.04,58.48,61.81,66.25,69.0,72.33,76.77,81.21,83.99,86.77,89.55,92.33,95.11,99.55,103.44" svgx:width="0.44,0.44,0.33,0.44,0.25,0.33,0.44,0.44,0.28,0.28,0.28,0.28,0.28,0.44,0.39,0.25" style="fill:rgb(35,31,32);font-family:TimesNewRomanPSMT;font-size:10.0px;stroke:none;">care facilities.</text>
   <text y="637.982" x="67.6,74.098,76.598,78.848,80.846,88.847,92.843,99.341,103.841,108.341,112.337,114.839,119.339,121.337,123.839,127.34,129.338,133.334,135.332,142.334,146.33,150.83,153.332,157.328,161.324,163.826,165.824,169.82,174.32,176.822,181.322,185.318,192.32,194.822,199.322,201.824,206.324,210.824,213.326,216.827,219.329,221.327,223.829,228.329,230.327,232.829,237.329,241.325,243.323,249.821,252.323,256.823,259.325,262.826,265.328,269.828,274.328,276.326,280.826" svgx:width="0.72,0.33,0.25,0.25,0.89,0.44,0.72,0.5,0.5,0.44,0.28,0.5,0.25,0.28,0.39,0.25,0.44,0.25,0.78,0.44,0.5,0.28,0.44,0.44,0.28,0.25,0.44,0.5,0.28,0.5,0.44,0.78,0.28,0.5,0.28,0.5,0.5,0.28,0.39,0.28,0.25,0.28,0.5,0.25,0.28,0.5,0.44,0.25,0.72,0.28,0.5,0.28,0.39,0.28,0.5,0.5,0.25,0.5,0.33" style="fill:rgb(35,31,32);font-family:TimesNewRomanPSMT;font-size:9.0px;stroke:none;">Dr. McDonald is a medical epidemiologist in the Division of</text>
   <text y="649.981" x="49.6,56.098,60.094,64.09,66.592,69.094,73.594,77.59,81.586,84.583,88.579,90.829,91.652,98.15,102.65,106.646,109.148,111.65,114.152,118.652,120.902,121.724,126.728,129.725,134.225,141.227,145.727,148.229,150.731,155.231,159.731,161.981,164.231,165.054,171.057,175.053,179.553,182.055,186.051,189.048,192.549,194.799,195.621,198.618,203.118,206.115,208.365,209.188,215.686,218.188,221.689,225.685,229.681,233.182,237.178,239.428,240.251,246.254,250.754,255.254,257.756,260.753,265.253,267.755,270.005,270.827,274.823,279.323" svgx:width="0.72,0.44,0.44,0.28,0.28,0.5,0.44,0.44,0.33,0.44,0.25,0.55,0.72,0.5,0.44,0.28,0.28,0.28,0.5,0.25,0.55,0.56,0.33,0.5,0.78,0.5,0.28,0.28,0.5,0.5,0.25,0.25,0.55,0.67,0.44,0.5,0.28,0.44,0.33,0.39,0.25,0.55,0.33,0.5,0.33,0.25,0.55,0.72,0.28,0.39,0.44,0.44,0.39,0.44,0.25,0.55,0.67,0.5,0.5,0.28,0.33,0.5,0.28,0.25,0.55,0.44,0.5,0.5" style="fill:rgb(35,31,32);font-family:TimesNewRomanPSMT;font-size:9.0px;stroke:none;">Healthcare Quality Promotion, Centers for Disease Control and</text>
   <text y="661.981" x="49.6,54.604,57.601,61.597,66.097,70.093,74.593,77.095,79.597,84.097,88.597,90.847,91.795,94.792,100.795,107.293,113.296,116.293,118.543,120.793,121.74,128.238,132.234,134.484,135.432,137.934,141.93,146.43,148.68,149.628,154.128,158.628,161.13,165.63,167.88,168.827,174.83,181.328,187.331,189.581,190.529,193.031,197.027,201.023,208.025,211.526,213.776,214.724,217.226,221.726,225.722,228.224,230.474,231.422,235.418,238.919,242.42,244.922,248.423,250.925,254.921,259.421,261.671,262.618,265.12,269.62,271.87,272.818,275.32,279.82" svgx:width="0.56,0.33,0.44,0.5,0.44,0.5,0.28,0.28,0.5,0.5,0.25,0.55,0.33,0.67,0.72,0.67,0.33,0.25,0.25,0.55,0.72,0.44,0.25,0.55,0.28,0.44,0.5,0.25,0.55,0.5,0.5,0.28,0.5,0.25,0.55,0.67,0.72,0.67,0.25,0.55,0.28,0.44,0.44,0.78,0.39,0.25,0.55,0.28,0.5,0.44,0.28,0.25,0.55,0.44,0.39,0.39,0.28,0.39,0.28,0.44,0.5,0.25,0.55,0.28,0.5,0.25,0.55,0.28,0.5,0.44" style="fill:rgb(35,31,32);font-family:TimesNewRomanPSMT;font-size:9.0px;stroke:none;">Prevention (CDC). He led both CDC teams that assisted in the</text>
   <text y="673.981" x="49.6,52.102,56.602,61.102,65.098,68.599,71.101,73.603,78.103,82.099,84.601,87.103,91.603,96.103,99.604,102.079,104.581,109.081,111.393,116.264,120.764,123.761,128.261,132.761,135.263,139.763,142.238,146.738,151.238,154.235,156.737,161.237,165.737,168.212,170.714,175.214,179.21,181.685,186.689,193.187,199.19,204.194,206.669,211.169,215.669,220.169,224.669,227.144,231.644,236.144,238.646,243.146,246.143,250.139,254.135,258.635" svgx:width="0.28,0.5,0.5,0.44,0.39,0.28,0.28,0.5,0.44,0.28,0.28,0.5,0.5,0.39,0.25,0.28,0.5,0.25,0.61,0.5,0.33,0.5,0.5,0.28,0.5,0.25,0.5,0.5,0.33,0.28,0.5,0.5,0.25,0.28,0.5,0.44,0.25,0.56,0.72,0.67,0.56,0.25,0.5,0.5,0.5,0.5,0.25,0.5,0.5,0.28,0.5,0.33,0.44,0.44,0.5,0.25" style="fill:rgb(35,31,32);font-family:TimesNewRomanPSMT;font-size:9.0px;stroke:none;">investigations in Toronto during the SARS 2003 outbreak.</text>
   <text y="79.551" x="295.8,302.298,307.302,310.299,315.303,318.804,323.808,329.307,334.311,339.315" svgx:width="0.72,0.56,0.33,0.56,0.39,0.56,0.61,0.56,0.56,0.56" style="fill:rgb(35,31,32);font-family:Arial-BoldMT;font-size:9.0px;stroke:none;">References</text>
   <text y="96.597" x="300.2,304.2,306.2,308.544,315.455,319.455,322.119,324.343,328.343,330.3,336.076,339.628,343.18,345.404,347.628,351.628,353.585,359.361,361.88,365.88,369.432,373.432,375.656,379.208,382.76,384.984,387.208,391.208,395.208,397.208,399.021,406.573,412.349,418.125,420.082,422.306,425.418,428.53,432.53,436.082,439.194,441.15,444.702,446.659,450.659,452.883,456.883,460.883,464.435,466.659,468.616,472.168,474.392,477.944,480.608,482.832,484.789,488.341,492.341,496.341,500.341,502.565,504.521,508.073,511.625,514.737,518.289,521.401,523.358,527.358" svgx:width="0.5,0.25,0.25,0.94,0.5,0.33,0.28,0.5,0.25,0.72,0.44,0.44,0.28,0.28,0.5,0.25,0.72,0.33,0.5,0.44,0.5,0.28,0.44,0.44,0.28,0.28,0.5,0.5,0.25,0.25,0.94,0.72,0.72,0.25,0.28,0.39,0.39,0.5,0.44,0.39,0.25,0.44,0.25,0.5,0.28,0.5,0.5,0.44,0.28,0.25,0.44,0.28,0.44,0.33,0.28,0.25,0.44,0.5,0.5,0.5,0.28,0.25,0.44,0.44,0.39,0.44,0.39,0.25,0.5,0.33" style="fill:rgb(35,31,32);font-family:TimesNewRomanPSMT;font-size:8.0px;stroke:none;">1. World Health Organization. WHO issues a global alert about cases of</text>
   <text y="106.197" x="308.544,312.096,314.32,318.32,322.32,324.544,328.096,331.648,333.872,335.918,339.918,343.918,347.47,351.47,357.694,361.694,365.694,367.918,371.47,373.694,375.741,379.293,382.845,385.957,389.509,392.621,394.667,398.667,401.331,403.378,406.49,410.042,414.042,417.594,420.258,423.81,425.856,428.52,432.072,435.184,439.184,441.408,444.072,447.624,449.848,453.848,456.512,460.512,462.558,464.782,467.006,469.23,473.23,476.782,479.894,483.006,485.053,491.277,494.829,498.829,500.875,503.987,507.987,510.651,514.203,517.755,521.755,523.802,526.026" svgx:width="0.44,0.28,0.5,0.5,0.28,0.44,0.44,0.28,0.25,0.5,0.5,0.44,0.5,0.78,0.5,0.5,0.28,0.44,0.28,0.25,0.44,0.44,0.39,0.44,0.39,0.25,0.5,0.33,0.25,0.39,0.44,0.5,0.44,0.33,0.44,0.25,0.33,0.44,0.39,0.5,0.28,0.33,0.44,0.28,0.5,0.33,0.5,0.25,0.28,0.28,0.28,0.5,0.44,0.39,0.39,0.25,0.78,0.44,0.5,0.25,0.39,0.5,0.33,0.44,0.44,0.5,0.25,0.28,0.5" style="fill:rgb(35,31,32);font-family:TimesNewRomanPSMT;font-size:8.0px;stroke:none;">atypical pneumonia: cases of severe respiratory illness may spread to</text>
   <text y="115.797" x="308.544,312.704,316.864,320.136,324.296,326.68,329.064,332.776,335.16,337.16,343.192,346.464,348.848,352.56,355.239,358.063,360.223,362.223,368.255,371.079,374.791,378.503,382.215,385.927,389.199,392.471,396.183,400.343,402.343,408.375,412.535,416.695,420.855,425.015,427.015,433.047,440.319,444.031,446.855,448.855,454.887,459.047,461.871,464.031,466.031,471.621,476.963,481.123,484.835,487.219,489.603,493.315,497.475,499.859,503.571,505.571,511.603,514.427,517.251,521.411,527.795" svgx:width="0.5,0.5,0.39,0.5,0.28,0.28,0.44,0.28,0.25,0.55,0.39,0.28,0.44,0.33,0.33,0.25,0.25,0.55,0.33,0.44,0.44,0.44,0.44,0.39,0.39,0.44,0.5,0.25,0.55,0.5,0.5,0.5,0.5,0.25,0.55,0.89,0.44,0.33,0.25,0.55,0.5,0.33,0.25,0.25,0.55,0.72,0.5,0.44,0.28,0.28,0.44,0.5,0.28,0.44,0.25,0.55,0.33,0.33,0.5,0.78,0.28" style="fill:rgb(35,31,32);font-family:TimesNewRomanPSMT;font-size:8.0px;stroke:none;">hospital staff. [accessed 2004 Mar 4]. Available from:</text>
   <text y="125.397" x="308.544,312.544,314.768,316.992,320.992,323.216,325.44,327.664,333.44,339.216,344.473,346.473,352.249,356.249,360.249,362.249,364.473,368.473,370.697,372.921,376.473,379.585,382.249,384.473,387.585,391.137,393.801,396.913,399.137,402.689,405.353,408.905,412.905,415.129,419.129,422.681,424.905,428.905,432.905,436.905,440.905,444.905,448.905,452.905,456.905,460.905,464.905,467.129,470.681,474.681,476.905,479.105" svgx:width="0.5,0.28,0.28,0.5,0.28,0.28,0.28,0.72,0.72,0.72,0.25,0.72,0.5,0.5,0.25,0.28,0.5,0.28,0.28,0.44,0.39,0.33,0.28,0.39,0.44,0.33,0.39,0.28,0.44,0.33,0.44,0.5,0.28,0.5,0.44,0.28,0.5,0.5,0.5,0.5,0.5,0.5,0.5,0.5,0.5,0.5,0.28,0.44,0.5,0.28,0.25,0.25" style="fill:rgb(35,31,32);font-family:TimesNewRomanPSMT;font-size:8.0px;stroke:none;">http://www.who.int/csr/sars/archive/2003_03_12/en/ </text>
   <text y="134.997" x="300.2,304.2,306.2,308.544,314.32,317.432,319.656,323.208,326.76,330.312,334.312,336.074,340.962,345.778,347.778,349.685,354.573,357.237,361.237,367.461,371.013,375.013,376.92,382.696,384.696,386.603,392.379,396.379,398.603,402.603,405.715,411.939,414.163,416.387,420.387,422.294,427.63,432.078,434.078,435.986,440.874,444.426,448.426,450.65,452.557,457.005,462.341,464.341,466.248,470.696,474.248,476.912,480.464,482.688,484.451,488.746,490.746,492.653,497.541,503.765,507.317,509.981,513.981,515.888,520.336,522.336,524.243,527.795" svgx:width="0.5,0.25,0.25,0.72,0.39,0.28,0.44,0.44,0.44,0.5,0.25,0.61,0.72,0.25,0.25,0.61,0.33,0.5,0.78,0.44,0.5,0.25,0.72,0.25,0.25,0.72,0.5,0.28,0.5,0.39,0.78,0.28,0.28,0.5,0.25,0.67,0.56,0.25,0.25,0.61,0.44,0.5,0.28,0.25,0.56,0.67,0.25,0.25,0.56,0.44,0.33,0.44,0.28,0.25,0.61,0.25,0.25,0.61,0.78,0.44,0.33,0.5,0.25,0.56,0.25,0.25,0.44,0.28" style="fill:rgb(35,31,32);font-family:TimesNewRomanPSMT;font-size:8.0px;stroke:none;">2. Ksiazek TG, Erdman D, Goldsmith CS, Zaki SR, Peret T, Emery S, et</text>
   <text y="144.597" x="308.544,312.096,314.32,316.32,318.147,323.907,325.75,329.75,333.75,337.75,341.302,343.526,345.795,349.347,353.347,356.011,360.011,364.011,367.563,371.563,373.787,376.451,380.451,383.563,385.832,389.384,392.496,395.608,399.608,403.16,405.384,408.936,411.16,414.712,418.712,420.981,426.757,428.981,431.205,435.205,437.474,440.586,444.138,448.138,451.69,454.354,457.906,460.174,463.726,467.278,471.278,473.502,477.054,479.323,481.987,485.539,488.651,492.651,494.875,497.539,501.091,503.315,507.315,509.979,513.979,516.248,519.36,523.36,527.36" svgx:width="0.44,0.28,0.25,0.25,0.72,0.55,0.5,0.5,0.5,0.44,0.28,0.25,0.44,0.5,0.33,0.5,0.5,0.44,0.5,0.28,0.33,0.5,0.39,0.25,0.44,0.39,0.39,0.5,0.44,0.28,0.44,0.28,0.44,0.5,0.25,0.72,0.28,0.28,0.5,0.25,0.39,0.44,0.5,0.44,0.33,0.44,0.25,0.44,0.44,0.5,0.28,0.44,0.25,0.33,0.44,0.39,0.5,0.28,0.33,0.44,0.28,0.5,0.33,0.5,0.25,0.39,0.5,0.5,0.33" style="fill:rgb(35,31,32);font-family:TimesNewRomanPSMT;font-size:8.0px;stroke:none;">al. A novel coronavirus associated with severe acute respiratory syn-</text>
   <text y="154.197" x="308.544,312.544,315.208,319.208,325.432,328.984,330.984,333.184,338.96,341.16,346.048,350.048,354.048,356.272,358.472,361.584,363.784,370.896,374.448,378.448,380.448,382.648,386.648,390.648,394.648,398.648,400.872,404.872,408.872,412.872,415.096,419.096,423.096,427.096,431.096,435.096,439.096,443.096" svgx:width="0.5,0.33,0.5,0.78,0.44,0.25,0.25,0.72,0.25,0.61,0.5,0.5,0.28,0.25,0.39,0.25,0.89,0.44,0.5,0.25,0.25,0.5,0.5,0.5,0.5,0.28,0.5,0.5,0.5,0.28,0.5,0.5,0.5,0.5,0.5,0.5,0.5,0.25" style="fill:rgb(35,31,32);font-family:TimesNewRomanPSMT;font-size:8.0px;stroke:none;">drome. N Engl J Med. 2003;348:1953–66.</text>
   <text y="163.797" x="300.2,304.2,306.2,308.544,313.88,317.88,321.88,324.104,328.104,330.104,331.726,337.062,344.174,346.174,348.174,349.795,356.907,360.459,362.683,366.683,370.683,374.235,377.347,379.347,380.969,385.857,392.969,394.969,396.969,398.446,402.775,406.775,412.999,415.223,417.447,421.447,424.559,428.559,432.559,434.559,436.181,441.957,447.733,449.733,451.733,453.354,458.69,462.242,465.794,469.794,472.018,474.242,477.354,479.354,480.535,486.311,491.647,493.647,495.647,497.269,502.605,506.605,509.717,513.269,515.269,516.891,522.667,528.003" svgx:width="0.5,0.25,0.25,0.67,0.5,0.5,0.28,0.5,0.25,0.55,0.67,0.89,0.25,0.25,0.55,0.89,0.44,0.28,0.5,0.5,0.44,0.39,0.25,0.55,0.61,0.89,0.25,0.25,0.55,0.61,0.5,0.78,0.28,0.28,0.5,0.39,0.5,0.5,0.25,0.55,0.72,0.72,0.25,0.25,0.55,0.67,0.44,0.44,0.5,0.28,0.28,0.39,0.25,0.55,0.72,0.67,0.25,0.25,0.55,0.67,0.5,0.39,0.44,0.25,0.55,0.72,0.67,0.25" style="fill:rgb(35,31,32);font-family:TimesNewRomanPSMT;font-size:8.0px;stroke:none;">3. Booth CM, Matukas LM, Tomlinson GA, Rachlis AR, Rose DB,</text>
   <text y="173.397" x="308.544,314.32,320.096,324.096,327.208,331.208,333.208,333.892,339.668,345.444,347.444,349.444,350.128,353.68,355.904,357.904,358.588,362.14,364.364,366.364,368.364,369.048,374.384,376.608,378.832,382.832,385.056,388.608,392.16,394.384,396.384,397.068,399.732,403.284,406.836,409.06,413.06,415.724,419.276,422.388,424.388,425.072,428.624,432.624,436.624,438.624,439.308,442.42,446.42,450.42,453.084,455.308,457.972,460.196,463.748,466.412,472.636,474.636,475.32,479.32,483.32,485.544,489.096,493.096,499.32,502.872,505.984,507.984,508.668,512.668,515.332,517.332,518.016,522.016,526.016" svgx:width="0.72,0.72,0.5,0.39,0.5,0.25,0.55,0.72,0.72,0.25,0.25,0.55,0.44,0.28,0.25,0.55,0.44,0.28,0.25,0.25,0.55,0.67,0.28,0.28,0.5,0.28,0.44,0.44,0.28,0.25,0.55,0.33,0.44,0.44,0.28,0.5,0.33,0.44,0.39,0.25,0.55,0.44,0.5,0.5,0.25,0.55,0.39,0.5,0.5,0.33,0.28,0.33,0.28,0.44,0.33,0.78,0.25,0.55,0.5,0.5,0.28,0.44,0.5,0.78,0.44,0.39,0.25,0.55,0.5,0.33,0.25,0.55,0.5,0.5,0.5" style="fill:rgb(35,31,32);font-family:TimesNewRomanPSMT;font-size:8.0px;stroke:none;">Dwosh HA, et al. Clinical features and short-term outcomes of 144</text>
   <text y="182.997" x="308.544,312.704,316.416,318.8,321.184,324.896,329.056,331.44,334.712,336.712,341.598,347.534,349.918,352.302,356.462,358.462,363.349,367.957,373.893,379.389,383.997,385.997,390.883,393.267,397.427,399.427,404.314,406.698,410.858,414.57,416.57,421.456,425.616,428.44,432.152,435.864,438.248,441.96,444.784,446.784,451.526,456.015,460.175,462.999,467.159,471.319,473.703,477.863,479.863,484.75,488.462,491.286,494.998,498.71,500.87,502.87,507.756,511.028,516.964,524.236" svgx:width="0.5,0.44,0.28,0.28,0.44,0.5,0.28,0.39,0.25,0.55,0.72,0.28,0.28,0.5,0.25,0.55,0.56,0.72,0.67,0.56,0.25,0.55,0.28,0.5,0.25,0.55,0.28,0.5,0.44,0.25,0.55,0.5,0.33,0.44,0.44,0.28,0.44,0.33,0.25,0.55,0.61,0.5,0.33,0.5,0.5,0.28,0.5,0.25,0.55,0.44,0.33,0.44,0.44,0.25,0.25,0.55,0.39,0.72,0.89,0.72" style="fill:rgb(35,31,32);font-family:TimesNewRomanPSMT;font-size:8.0px;stroke:none;">patients with SARS in the greater Toronto area. JAMA</text>
   <text y="192.597" x="308.544,312.544,316.544,320.544,324.544,326.768,330.768,334.768,338.768,340.992,344.992,348.992,352.992,356.992,360.992,364.992" svgx:width="0.5,0.5,0.5,0.5,0.28,0.5,0.5,0.5,0.28,0.5,0.5,0.5,0.5,0.5,0.5,0.25" style="fill:rgb(35,31,32);font-family:TimesNewRomanPSMT;font-size:8.0px;stroke:none;">2003;289:2801–9.</text>
   <text y="202.197" x="300.092,304.092,306.092,308.238,313.574,317.126,321.126,323.35,326.902,329.566,332.678,334.823,337.487,341.487,344.151,346.297,352.073,354.297,357.409,360.961,364.513,367.625,371.177,373.322,378.658,382.658,386.658,388.882,391.546,395.546,397.77,399.916,403.468,407.468,411.468,413.614,418.062,420.726,424.278,428.278,431.83,435.83,438.054,440.278,444.278,448.278,450.278,452.423,456.871,460.423,464.423,467.975,470.639,474.191,476.337,479.889,483.441,487.441,489.665,493.217,495.362,498.026,501.578,504.69,508.69,510.914,513.578,517.13,519.354,523.354,526.018" svgx:width="0.5,0.25,0.25,0.67,0.44,0.5,0.28,0.44,0.33,0.39,0.25,0.33,0.5,0.33,0.25,0.72,0.28,0.39,0.44,0.44,0.39,0.44,0.25,0.67,0.5,0.5,0.28,0.33,0.5,0.28,0.25,0.44,0.5,0.5,0.25,0.56,0.33,0.44,0.5,0.44,0.5,0.28,0.28,0.5,0.5,0.25,0.25,0.56,0.44,0.5,0.44,0.33,0.44,0.25,0.44,0.44,0.5,0.28,0.44,0.25,0.33,0.44,0.39,0.5,0.28,0.33,0.44,0.28,0.5,0.33,0.5" style="fill:rgb(35,31,32);font-family:TimesNewRomanPSMT;font-size:8.0px;stroke:none;">4. Centers for Disease Control and Prevention. Severe acute respiratory</text>
   <text y="211.797" x="308.544,311.816,315.976,320.136,324.296,327.12,331.28,337.664,341.376,349.536,354.025,357.737,360.121,366.057,369.769,373.929,376.089,378.089,381.878,386.038,390.198,394.358,398.518,400.678,402.678,406.468,413.74,421.012,428.724,434.22,436.22,440.01,447.282,451.442,454.266,458.426,460.426,464.215,471.487,475.647,478.471,480.855,484.567,486.951,488.951,492.595,500.307,504.467,506.851,511.011,513.011,516.801,522.297,526.009" svgx:width="0.39,0.5,0.5,0.5,0.33,0.5,0.78,0.44,1.0,0.61,0.44,0.28,0.72,0.44,0.5,0.25,0.25,0.55,0.5,0.5,0.5,0.5,0.25,0.25,0.55,0.89,0.89,0.94,0.67,0.25,0.55,0.89,0.5,0.33,0.5,0.25,0.55,0.89,0.5,0.33,0.28,0.44,0.28,0.25,0.55,0.94,0.5,0.28,0.5,0.25,0.55,0.67,0.44,0.5" style="fill:rgb(35,31,32);font-family:TimesNewRomanPSMT;font-size:8.0px;stroke:none;">syndrome—Taiwan, 2003. MMWR Morb Mortal Wkly Rep</text>
   <text y="221.397" x="308.544,312.544,316.544,320.544,324.544,326.768,330.768,334.768,336.992,340.992,344.992,348.992,352.992,356.992" svgx:width="0.5,0.5,0.5,0.5,0.28,0.5,0.5,0.28,0.5,0.5,0.5,0.5,0.5,0.25" style="fill:rgb(35,31,32);font-family:TimesNewRomanPSMT;font-size:8.0px;stroke:none;">2003;52:461–6.</text>
   <text y="230.997" x="300.2,304.2,306.2,308.544,313.434,316.986,319.65,321.874,325.426,327.474,334.586,336.586,338.49,345.721,347.945,350.169,353.281,357.281,361.281,363.329,367.777,369.777,371.825,376.273,379.825,382.489,388.265,391.817,394.041,396.089,400.537,402.537,404.585,411.697,415.249,421.025,424.577,428.129,430.793,432.4,438.176,440.176,442.224,448.0,452.0,456.0,458.664,462.664,464.888,468.0,470.048,474.936,476.936,478.984,484.76,488.312,490.536,494.088,498.088,500.312,503.424,505.472,510.36,512.36,514.408,517.96,520.184,522.232,525.784,528.008" svgx:width="0.5,0.25,0.25,0.72,0.44,0.33,0.28,0.44,0.25,0.89,0.25,0.25,0.94,0.28,0.28,0.39,0.5,0.5,0.25,0.56,0.25,0.25,0.56,0.44,0.33,0.72,0.44,0.28,0.25,0.56,0.25,0.25,0.89,0.44,0.72,0.44,0.44,0.33,0.25,0.72,0.25,0.25,0.72,0.5,0.5,0.33,0.5,0.28,0.39,0.25,0.61,0.25,0.25,0.72,0.44,0.28,0.44,0.5,0.28,0.39,0.25,0.61,0.25,0.25,0.44,0.28,0.25,0.44,0.28,0.25" style="fill:rgb(35,31,32);font-family:TimesNewRomanPSMT;font-size:8.0px;stroke:none;">5. Varia M, Wilson S, Sarwal S, McGeer A, Gournis E, Galanis E, et al.</text>
   <text y="240.597" x="308.544,311.208,315.208,319.208,322.76,325.872,328.096,330.32,334.32,337.872,340.096,342.32,346.32,350.32,352.32,353.567,357.567,360.231,362.231,363.478,367.03,369.03,370.278,374.278,378.278,381.39,385.39,388.942,392.942,399.166,401.39,404.942,407.166,409.166,410.413,414.413,418.413,420.637,424.637,427.301,430.853,434.405,438.405,440.405,441.652,445.652,448.316,450.316,451.563,454.675,458.227,462.227,465.779,468.443,471.995,473.995,475.242,478.794,482.346,486.346,488.57,492.122,494.122,495.37,498.034,501.586,504.698,508.698,510.922,513.586,517.138,519.362,523.362,526.026" svgx:width="0.33,0.5,0.5,0.44,0.39,0.28,0.28,0.5,0.44,0.28,0.28,0.5,0.5,0.25,0.55,0.5,0.33,0.25,0.55,0.44,0.25,0.55,0.5,0.5,0.39,0.5,0.44,0.5,0.78,0.28,0.44,0.28,0.25,0.55,0.5,0.5,0.28,0.5,0.33,0.44,0.44,0.5,0.25,0.55,0.5,0.33,0.25,0.55,0.39,0.44,0.5,0.44,0.33,0.44,0.25,0.55,0.44,0.44,0.5,0.28,0.44,0.25,0.55,0.33,0.44,0.39,0.5,0.28,0.33,0.44,0.28,0.5,0.33,0.5" style="fill:rgb(35,31,32);font-family:TimesNewRomanPSMT;font-size:8.0px;stroke:none;">Investigation of a nosocomial outbreak of severe acute respiratory</text>
   <text y="250.197" x="308.544,311.656,315.656,319.656,323.656,326.32,330.32,336.544,340.096,342.296,344.96,349.408,355.184,360.52,364.968,367.632,369.832,372.056,376.056,378.111,382.441,386.441,389.105,393.105,397.105,399.329,403.329,405.329,407.529,412.865,416.417,420.417,423.969,427.969,431.521,433.521,435.721,441.057,448.169,453.945,457.057,459.257,463.257,467.257,471.257,475.257,477.481,481.481,485.481,487.705,491.705,495.705,499.705,501.929,505.929,509.929,513.929,517.929,521.929,525.929" svgx:width="0.39,0.5,0.5,0.5,0.33,0.5,0.78,0.44,0.25,0.33,0.56,0.72,0.67,0.56,0.33,0.25,0.28,0.5,0.25,0.61,0.5,0.33,0.5,0.5,0.28,0.5,0.25,0.25,0.67,0.44,0.5,0.44,0.5,0.44,0.25,0.25,0.67,0.89,0.72,0.39,0.25,0.5,0.5,0.5,0.5,0.28,0.5,0.5,0.28,0.5,0.5,0.5,0.28,0.5,0.5,0.5,0.5,0.5,0.5,0.25" style="fill:rgb(35,31,32);font-family:TimesNewRomanPSMT;font-size:8.0px;stroke:none;">syndrome (SARS) in Toronto, Canada. CMAJ 2003;19;169:285–92.</text>
   <text y="259.797" x="300.2,304.2,306.2,308.544,313.88,317.432,321.432,323.656,327.208,329.872,332.984,334.71,337.374,341.374,344.038,345.765,351.541,353.765,356.877,360.429,363.981,367.093,370.645,372.371,377.707,381.707,385.707,387.931,390.595,394.595,396.819,398.546,402.098,406.098,410.098,411.824,416.272,418.936,422.488,426.488,430.04,434.04,436.264,438.488,442.488,446.488,448.488,450.215,455.991,459.991,463.991,467.543,469.767,473.319,475.543,477.269,480.381,483.933,487.933,491.485,494.149,497.701,499.427,502.979,506.531,510.531,512.755,516.307,518.034,520.698,524.25,527.362" svgx:width="0.5,0.25,0.25,0.67,0.44,0.5,0.28,0.44,0.33,0.39,0.25,0.33,0.5,0.33,0.25,0.72,0.28,0.39,0.44,0.44,0.39,0.44,0.25,0.67,0.5,0.5,0.28,0.33,0.5,0.28,0.25,0.44,0.5,0.5,0.25,0.56,0.33,0.44,0.5,0.44,0.5,0.28,0.28,0.5,0.5,0.25,0.25,0.72,0.5,0.5,0.44,0.28,0.44,0.28,0.25,0.39,0.44,0.5,0.44,0.33,0.44,0.25,0.44,0.44,0.5,0.28,0.44,0.25,0.33,0.44,0.39,0.33" style="fill:rgb(35,31,32);font-family:TimesNewRomanPSMT;font-size:8.0px;stroke:none;">6. Centers for Disease Control and Prevention. Update: severe acute res-</text>
   <text y="269.397" x="308.544,312.544,314.768,317.432,320.984,323.208,327.208,329.872,333.872,335.872,336.991,340.103,344.103,348.103,352.103,354.767,358.767,364.991,368.543,376.543,380.873,384.873,387.537,391.537,395.537,397.761,401.761,403.761,405.761,406.88,412.216,415.768,419.768,423.32,427.32,430.872,432.872,434.872,435.991,439.991,443.991,447.991,451.991,453.991,455.991,457.11,464.222,471.334,478.886,484.222,486.222,487.342,494.454,498.454,501.118,505.118,507.118,508.237,515.349,519.349,522.013,524.237,527.789" svgx:width="0.5,0.28,0.33,0.44,0.28,0.5,0.33,0.5,0.25,0.55,0.39,0.5,0.5,0.5,0.33,0.5,0.78,0.44,1.0,0.61,0.5,0.33,0.5,0.5,0.28,0.5,0.25,0.25,0.55,0.67,0.44,0.5,0.44,0.5,0.44,0.25,0.25,0.55,0.5,0.5,0.5,0.5,0.25,0.25,0.55,0.89,0.89,0.94,0.67,0.25,0.55,0.89,0.5,0.33,0.5,0.25,0.55,0.89,0.5,0.33,0.28,0.44,0.28" style="fill:rgb(35,31,32);font-family:TimesNewRomanPSMT;font-size:8.0px;stroke:none;">piratory syndrome—Toronto, Canada, 2003. MMWR Morb Mortal</text>
   <text y="278.997" x="308.544,316.096,320.096,322.32,326.32,328.52,333.856,337.408,341.408,343.608,347.608,351.608,355.608,359.608,361.832,365.832,369.832,372.056,376.056,380.056,384.056,388.056,392.056,396.056" svgx:width="0.94,0.5,0.28,0.5,0.25,0.67,0.44,0.5,0.25,0.5,0.5,0.5,0.5,0.28,0.5,0.5,0.28,0.5,0.5,0.5,0.5,0.5,0.5,0.25" style="fill:rgb(35,31,32);font-family:TimesNewRomanPSMT;font-size:8.0px;stroke:none;">Wkly Rep 2003;52:547–50.</text>
   <text y="288.597" x="300.2,304.2,306.2,308.544,312.874,318.65,322.65,325.158,329.606,332.718,334.718,337.227,342.563,346.563,350.115,354.115,356.48,361.368,364.48,366.48,368.989,374.325,378.325,381.877,385.877,388.386,393.722,396.834,398.834,401.342,407.118,409.342,412.454,416.006,420.006,422.515,426.963,430.075,432.075,434.584,439.472,443.024,446.576,449.085,453.238,457.533,459.533,462.041,466.489,468.713,471.825,475.825,478.189,482.484,484.484,486.993,490.545,492.769,495.277,498.829,501.053,503.053,505.562,510.898,514.898,518.898,521.122,523.786,527.786" svgx:width="0.5,0.25,0.25,0.61,0.72,0.5,0.25,0.56,0.39,0.25,0.25,0.67,0.5,0.44,0.5,0.25,0.61,0.39,0.25,0.25,0.67,0.5,0.44,0.5,0.25,0.67,0.39,0.25,0.25,0.72,0.28,0.39,0.44,0.5,0.25,0.56,0.39,0.25,0.25,0.61,0.44,0.44,0.25,0.61,0.61,0.25,0.25,0.56,0.28,0.39,0.5,0.25,0.61,0.25,0.25,0.44,0.28,0.25,0.44,0.28,0.25,0.25,0.67,0.5,0.5,0.28,0.33,0.5,0.28" style="fill:rgb(35,31,32);font-family:TimesNewRomanPSMT;font-size:8.0px;stroke:none;">7. Twu SJ, Chen TJ, Chen CJ, Olsen SJ, Lee LT, Fisk T, et al. Control</text>
   <text y="298.197" x="308.544,314.768,318.32,321.872,324.984,328.984,331.648,335.2,338.312,340.312,341.063,343.727,347.727,350.391,352.391,353.142,356.254,359.806,363.806,367.358,370.022,373.574,375.574,376.326,379.878,383.43,387.43,389.654,393.206,395.206,395.957,398.621,402.173,405.285,409.285,411.509,414.173,417.725,419.949,423.949,426.613,430.613,432.613,433.364,436.476,440.476,444.476,448.476,451.14,455.14,461.364,464.916,466.916,467.667,470.331,474.779,480.555,485.891,490.339,493.003,495.003,495.754,497.978,501.978,503.978,504.585,508.914,512.466,514.69,520.466,524.018,528.018" svgx:width="0.78,0.44,0.44,0.39,0.5,0.33,0.44,0.39,0.25,0.55,0.33,0.5,0.33,0.25,0.55,0.39,0.44,0.5,0.44,0.33,0.44,0.25,0.55,0.44,0.44,0.5,0.28,0.44,0.25,0.55,0.33,0.44,0.39,0.5,0.28,0.33,0.44,0.28,0.5,0.33,0.5,0.25,0.55,0.39,0.5,0.5,0.5,0.33,0.5,0.78,0.44,0.25,0.55,0.33,0.56,0.72,0.67,0.56,0.33,0.25,0.55,0.28,0.5,0.25,0.55,0.61,0.44,0.28,0.72,0.44,0.5,0.25" style="fill:rgb(35,31,32);font-family:TimesNewRomanPSMT;font-size:8.0px;stroke:none;">measures for severe acute respiratory syndrome (SARS) in Taiwan.</text>
   <text y="307.797" x="308.544,313.432,319.656,323.208,325.727,329.727,331.927,334.591,338.591,341.255,344.807,348.359,350.583,352.783,358.559,360.783,363.895,366.095,370.095,374.095,378.095,382.095,384.319,388.319,390.543,394.543,398.543,402.543,406.543,410.543,414.543" svgx:width="0.61,0.78,0.44,0.33,0.5,0.25,0.33,0.5,0.33,0.44,0.44,0.28,0.25,0.72,0.28,0.39,0.25,0.5,0.5,0.5,0.5,0.28,0.5,0.28,0.5,0.5,0.5,0.5,0.5,0.5,0.25" style="fill:rgb(35,31,32);font-family:TimesNewRomanPSMT;font-size:8.0px;stroke:none;">Emerg Infect Dis 2003;9:718–20.</text>
   <text y="317.397" x="300.2,304.2,306.2,308.544,312.992,316.544,318.768,321.432,323.656,326.768,328.768,329.452,332.564,337.012,339.012,341.012,341.696,347.032,351.032,355.032,357.032,357.716,363.052,370.164,372.164,374.164,374.848,380.184,384.184,387.736,391.736,395.736,398.276,404.052,409.388,411.388,413.388,414.072,419.408,423.408,426.96,430.96,432.96,433.644,439.42,443.868,445.868,447.868,448.552,454.328,458.328,462.328,466.328,468.328,469.012,471.676,475.483,477.483,479.483,480.167,484.615,488.615,492.615,496.615,498.615,499.299,504.187,509.075,511.075,513.075,513.759,517.311,519.535,521.535,522.219,525.771,527.995" svgx:width="0.5,0.25,0.25,0.56,0.44,0.28,0.33,0.28,0.39,0.25,0.55,0.39,0.56,0.25,0.25,0.55,0.67,0.5,0.5,0.25,0.55,0.67,0.89,0.25,0.25,0.55,0.67,0.5,0.44,0.5,0.5,0.25,0.72,0.67,0.25,0.25,0.55,0.67,0.5,0.44,0.5,0.25,0.55,0.72,0.56,0.25,0.25,0.55,0.72,0.5,0.5,0.5,0.25,0.55,0.33,0.56,0.25,0.25,0.55,0.56,0.5,0.5,0.5,0.25,0.55,0.61,0.61,0.25,0.25,0.55,0.44,0.28,0.25,0.55,0.44,0.28,0.25" style="fill:rgb(35,31,32);font-family:TimesNewRomanPSMT;font-size:8.0px;stroke:none;">8. Peiris JS, Chu CM, Cheng VC, Chan KS, Hung IF, Poon LL, et al.</text>
   <text y="326.997" x="308.544,313.88,316.104,318.328,322.328,324.552,328.104,331.656,333.88,335.987,339.987,342.651,346.651,350.651,353.315,356.867,359.979,363.091,365.315,369.315,373.315,375.422,378.974,382.974,386.974,389.082,393.082,395.306,397.97,401.522,403.746,405.853,408.077,412.077,415.629,419.629,421.736,423.96,427.96,430.067,433.619,435.726,439.278,443.278,449.502,455.726,459.726,463.726,465.95,468.174,472.174,474.282,478.282,482.282,484.506,488.506,491.17,494.722,498.274,502.274,504.381,508.381,511.045,513.152,516.704,520.704,523.368,527.368" svgx:width="0.67,0.28,0.28,0.5,0.28,0.44,0.44,0.28,0.25,0.5,0.33,0.5,0.5,0.33,0.44,0.39,0.39,0.28,0.5,0.5,0.25,0.44,0.5,0.5,0.25,0.5,0.28,0.33,0.44,0.28,0.25,0.28,0.5,0.44,0.5,0.25,0.28,0.5,0.25,0.44,0.25,0.44,0.5,0.78,0.78,0.5,0.5,0.28,0.28,0.5,0.25,0.5,0.5,0.28,0.5,0.33,0.44,0.44,0.5,0.25,0.5,0.33,0.25,0.44,0.5,0.33,0.5,0.33" style="fill:rgb(35,31,32);font-family:TimesNewRomanPSMT;font-size:8.0px;stroke:none;">Clinical progression and viral load in a community outbreak of coro-</text>
   <text y="336.597" x="308.544,312.544,316.096,320.096,322.32,324.984,328.984,332.096,334.76,338.312,341.424,344.536,348.536,352.088,354.312,357.864,360.088,363.64,367.64,369.64,371.57,376.018,381.794,387.13,391.578,393.578,395.509,399.509,403.509,407.061,411.061,417.285,421.285,425.285,427.509,431.061,433.285,435.285,437.215,440.767,442.767,444.698,448.698,451.362,455.362,458.474,462.474,466.026,469.578,471.802,474.026,478.026,481.578,483.578,485.508,488.62,490.844,494.844,498.844,502.325,504.325,506.325,508.255,513.143,516.695,520.695,524.247,527.799" svgx:width="0.5,0.44,0.5,0.28,0.33,0.5,0.39,0.33,0.44,0.39,0.39,0.5,0.44,0.28,0.44,0.28,0.44,0.5,0.25,0.55,0.56,0.72,0.67,0.56,0.25,0.55,0.5,0.5,0.44,0.5,0.78,0.5,0.5,0.28,0.44,0.28,0.25,0.55,0.44,0.25,0.55,0.5,0.33,0.5,0.39,0.5,0.44,0.44,0.28,0.28,0.5,0.44,0.25,0.55,0.39,0.28,0.5,0.5,0.5,0.25,0.25,0.55,0.61,0.44,0.5,0.44,0.44,0.28" style="fill:rgb(35,31,32);font-family:TimesNewRomanPSMT;font-size:8.0px;stroke:none;">navirus-associated SARS pneumonia: a prospective study. Lancet</text>
   <text y="346.197" x="308.544,312.544,316.544,320.544,324.544,326.768,330.768,334.768,338.768,340.992,344.992,348.992,352.992,356.992,360.992,364.992,368.992" svgx:width="0.5,0.5,0.5,0.5,0.28,0.5,0.5,0.5,0.28,0.5,0.5,0.5,0.5,0.5,0.5,0.5,0.25" style="fill:rgb(35,31,32);font-family:TimesNewRomanPSMT;font-size:8.0px;stroke:none;">2003;361:1767–72.</text>
   <text y="355.797" x="300.2,304.2,306.2,308.544,312.992,316.544,318.768,322.768,324.768,326.418,333.97,339.746,341.746,343.746,345.398,349.727,352.839,356.391,360.391,364.391,366.391,368.186,373.962,375.962,377.962,379.461,384.35,388.35,392.35,396.35,398.35,400.146,405.04,411.858,413.858,415.858,417.653,422.989,426.989,429.213,433.213,437.213,439.213,440.863,445.751,450.496,452.496,454.496,456.291,462.067,466.067,468.067,469.718,474.606,480.382,482.382,484.382,486.177,491.953,495.953,497.953,499.748,506.86,508.86,510.86,512.655,516.207,518.431,520.431,522.226,525.778,528.002" svgx:width="0.5,0.25,0.25,0.56,0.44,0.28,0.5,0.25,0.55,0.94,0.72,0.25,0.25,0.55,0.61,0.39,0.44,0.5,0.5,0.25,0.55,0.72,0.25,0.25,0.55,0.72,0.5,0.5,0.5,0.25,0.55,0.67,0.94,0.25,0.25,0.55,0.67,0.5,0.28,0.5,0.5,0.25,0.55,0.61,0.72,0.25,0.25,0.55,0.72,0.5,0.25,0.55,0.61,0.72,0.25,0.25,0.55,0.72,0.5,0.25,0.55,0.89,0.25,0.25,0.55,0.44,0.28,0.25,0.55,0.44,0.28,0.25" style="fill:rgb(35,31,32);font-family:TimesNewRomanPSMT;font-size:8.0px;stroke:none;">9. Seto WH, Tsang D, Yung RW, Ching TY, Ng TK, Ho M, et al.</text>
   <text y="365.397" x="308.544,313.432,315.951,318.615,322.167,325.719,327.943,330.167,334.167,337.719,341.719,345.271,348.383,351.495,353.495,354.15,358.15,360.814,362.814,363.468,367.468,370.132,373.684,377.236,380.788,384.788,387.012,389.236,393.236,397.236,400.348,402.348,403.002,406.554,410.554,414.106,416.33,420.33,423.442,425.666,427.666,428.321,432.321,434.985,438.985,442.985,445.209,448.761,450.985,454.097,456.097,456.751,460.303,464.303,468.303,470.303,470.958,474.51,478.51,482.51,484.734,488.286,491.838,494.062,496.062,496.716,498.94,502.94,504.94,505.594,509.594,512.258,515.81,519.81,523.362,527.362" svgx:width="0.61,0.33,0.33,0.44,0.44,0.28,0.28,0.5,0.44,0.5,0.44,0.39,0.39,0.25,0.55,0.5,0.33,0.25,0.55,0.5,0.33,0.44,0.44,0.44,0.5,0.28,0.28,0.5,0.5,0.39,0.25,0.55,0.44,0.5,0.44,0.28,0.5,0.39,0.28,0.25,0.55,0.5,0.33,0.5,0.5,0.28,0.44,0.28,0.39,0.25,0.55,0.44,0.5,0.5,0.25,0.55,0.44,0.5,0.5,0.28,0.44,0.44,0.28,0.25,0.55,0.28,0.5,0.25,0.55,0.5,0.33,0.44,0.5,0.44,0.5,0.33" style="fill:rgb(35,31,32);font-family:TimesNewRomanPSMT;font-size:8.0px;stroke:none;">Effectiveness of precautions against droplets and contact in preven-</text>
   <text y="374.997" x="308.544,310.768,312.992,316.992,320.992,322.848,326.848,329.512,331.368,335.368,339.368,342.48,346.48,350.032,354.032,360.256,362.48,366.032,368.256,370.112,372.336,375.0,378.552,382.552,385.664,391.888,394.112,397.224,400.336,402.56,406.56,410.56,412.416,416.416,419.08,420.936,424.048,427.6,431.6,435.152,437.816,441.368,443.224,446.776,450.328,454.328,456.552,460.104,461.96,464.624,468.176,471.288,475.288,477.512,480.176,483.728,485.952,489.952,492.616,496.616,498.472,501.584,505.584,509.584,513.584,516.248,520.248,526.472" svgx:width="0.28,0.28,0.5,0.5,0.25,0.5,0.33,0.25,0.5,0.5,0.39,0.5,0.44,0.5,0.78,0.28,0.44,0.28,0.25,0.28,0.33,0.44,0.5,0.39,0.78,0.28,0.39,0.39,0.28,0.5,0.5,0.25,0.5,0.33,0.25,0.39,0.44,0.5,0.44,0.33,0.44,0.25,0.44,0.44,0.5,0.28,0.44,0.25,0.33,0.44,0.39,0.5,0.28,0.33,0.44,0.28,0.5,0.33,0.5,0.25,0.39,0.5,0.5,0.5,0.33,0.5,0.78,0.44" style="fill:rgb(35,31,32);font-family:TimesNewRomanPSMT;font-size:8.0px;stroke:none;">tion of nosocomial transmission of severe acute respiratory syndrome</text>
   <text y="384.597" x="308.544,311.208,315.656,321.432,326.768,331.216,333.88,335.88,338.08,342.968,346.52,350.52,354.072,357.624,359.848,362.048,366.048,370.048,374.048,378.048,380.272,384.272,388.272,392.272,394.496,398.496,402.496,406.496,410.496,414.496,418.496,422.496" svgx:width="0.33,0.56,0.72,0.67,0.56,0.33,0.25,0.25,0.61,0.44,0.5,0.44,0.44,0.28,0.25,0.5,0.5,0.5,0.5,0.28,0.5,0.5,0.5,0.28,0.5,0.5,0.5,0.5,0.5,0.5,0.5,0.25" style="fill:rgb(35,31,32);font-family:TimesNewRomanPSMT;font-size:8.0px;stroke:none;">(SARS). Lancet 2003;361:1519–20.</text>
   <text y="394.197" x="295.8,299.8,303.8,305.8,308.382,313.718,317.27,321.27,323.494,327.046,329.71,332.822,335.405,338.069,342.069,344.733,347.315,353.091,355.315,358.427,361.979,365.531,368.643,372.195,374.778,380.114,384.114,388.114,390.338,393.002,397.002,399.226,401.808,405.36,409.36,413.36,415.942,420.39,423.054,426.606,430.606,434.158,438.158,440.382,442.606,446.606,450.606,452.606,455.189,460.525,462.749,466.749,469.861,472.085,475.637,478.301,480.883,484.883,487.547,490.13,493.242,496.794,500.794,504.346,507.01,510.562,513.144,516.696,520.248,524.248,526.472" svgx:width="0.5,0.5,0.25,0.25,0.67,0.44,0.5,0.28,0.44,0.33,0.39,0.25,0.33,0.5,0.33,0.25,0.72,0.28,0.39,0.44,0.44,0.39,0.44,0.25,0.67,0.5,0.5,0.28,0.33,0.5,0.28,0.25,0.44,0.5,0.5,0.25,0.56,0.33,0.44,0.5,0.44,0.5,0.28,0.28,0.5,0.5,0.25,0.25,0.67,0.28,0.5,0.39,0.28,0.44,0.33,0.25,0.5,0.33,0.25,0.39,0.44,0.5,0.44,0.33,0.44,0.25,0.44,0.44,0.5,0.28,0.44" style="fill:rgb(35,31,32);font-family:TimesNewRomanPSMT;font-size:8.0px;stroke:none;">10. Centers for Disease Control and Prevention. Cluster of severe acute</text>
   <text y="403.797" x="308.544,311.208,314.76,317.872,321.872,324.096,326.76,330.312,332.536,336.536,339.2,343.2,345.2,346.568,349.68,353.68,357.68,361.68,364.344,368.344,374.568,378.12,380.12,381.488,385.04,388.592,391.704,395.256,398.368,400.368,401.736,405.288,411.512,415.512,419.512,423.512,425.512,426.88,430.88,433.544,437.544,439.768,443.32,446.872,449.096,452.648,456.648,458.648,460.016,464.016,467.568,471.12,473.344,475.568,479.568,483.12,486.672,489.336,492.888,494.888,496.256,502.032,506.032,508.696,512.696,516.248,518.912,522.024" svgx:width="0.33,0.44,0.39,0.5,0.28,0.33,0.44,0.28,0.5,0.33,0.5,0.25,0.55,0.39,0.5,0.5,0.5,0.33,0.5,0.78,0.44,0.25,0.55,0.44,0.44,0.39,0.44,0.39,0.25,0.55,0.44,0.78,0.5,0.5,0.5,0.25,0.55,0.5,0.33,0.5,0.28,0.44,0.44,0.28,0.44,0.5,0.25,0.55,0.5,0.44,0.44,0.28,0.28,0.5,0.44,0.44,0.33,0.44,0.25,0.55,0.72,0.5,0.33,0.5,0.44,0.33,0.39,1.0" style="fill:rgb(35,31,32);font-family:TimesNewRomanPSMT;font-size:8.0px;stroke:none;">respiratory syndrome cases among protected healthcare workers—</text>
   <text y="413.397" x="308.544,312.874,316.874,319.538,323.538,327.538,329.762,333.762,335.762,337.762,340.34,345.676,349.228,353.228,356.78,360.78,364.332,366.332,368.332,370.469,376.245,380.245,382.909,385.133,387.357,389.357,391.935,395.935,399.935,403.935,407.935,409.935,411.935,414.514,421.626,428.738,436.29,441.626,443.626,446.204,453.316,457.316,459.98,463.98,465.98,468.558,475.67,479.67,482.334,484.558,488.11,490.334,492.334,494.768,502.32,506.32,508.544,512.544,514.544,517.122,522.458,526.01" svgx:width="0.61,0.5,0.33,0.5,0.5,0.28,0.5,0.25,0.25,0.55,0.67,0.44,0.5,0.44,0.5,0.44,0.25,0.25,0.55,0.72,0.5,0.33,0.28,0.28,0.25,0.55,0.5,0.5,0.5,0.5,0.25,0.25,0.55,0.89,0.89,0.94,0.67,0.25,0.55,0.89,0.5,0.33,0.5,0.25,0.55,0.89,0.5,0.33,0.28,0.44,0.28,0.25,0.55,0.94,0.5,0.28,0.5,0.25,0.55,0.67,0.44,0.5" style="fill:rgb(35,31,32);font-family:TimesNewRomanPSMT;font-size:8.0px;stroke:none;">Toronto, Canada, April 2003. MMWR Morb Mortal Wkly Rep</text>
   <text y="422.997" x="308.544,312.544,316.544,320.544,324.544,326.768,330.768,334.768,336.992,340.992,344.992,348.992,352.992,356.992,360.992" svgx:width="0.5,0.5,0.5,0.5,0.28,0.5,0.5,0.28,0.5,0.5,0.5,0.5,0.5,0.5,0.25" style="fill:rgb(35,31,32);font-family:TimesNewRomanPSMT;font-size:8.0px;stroke:none;">2003;52:433–36.</text>
   <text y="432.597" x="295.8,299.503,303.503,305.503,307.714,313.05,316.602,320.602,322.826,326.378,329.042,332.154,334.366,337.03,341.03,343.694,345.905,351.681,353.905,357.017,360.569,364.121,367.233,370.785,372.996,378.332,382.332,386.332,388.556,391.22,395.22,397.444,399.655,403.207,407.207,411.207,413.418,417.866,420.53,424.082,428.082,431.634,435.634,437.858,440.082,444.082,448.082,450.082,452.294,456.742,460.294,464.294,467.846,470.51,474.062,476.273,479.825,483.377,487.377,489.601,493.153,495.364,498.028,501.58,504.692,508.692,510.916,513.58,517.132,519.356,523.356,526.02" svgx:width="0.5,0.5,0.25,0.25,0.67,0.44,0.5,0.28,0.44,0.33,0.39,0.25,0.33,0.5,0.33,0.25,0.72,0.28,0.39,0.44,0.44,0.39,0.44,0.25,0.67,0.5,0.5,0.28,0.33,0.5,0.28,0.25,0.44,0.5,0.5,0.25,0.56,0.33,0.44,0.5,0.44,0.5,0.28,0.28,0.5,0.5,0.25,0.25,0.56,0.44,0.5,0.44,0.33,0.44,0.25,0.44,0.44,0.5,0.28,0.44,0.25,0.33,0.44,0.39,0.5,0.28,0.33,0.44,0.28,0.5,0.33,0.5" style="fill:rgb(35,31,32);font-family:TimesNewRomanPSMT;font-size:8.0px;stroke:none;">11. Centers for Disease Control and Prevention. Severe acute respiratory</text>
   <text y="442.197" x="308.544,311.708,315.76,319.812,323.864,326.58,330.632,336.908,340.512,348.564,353.064,355.34,359.392,363.444,367.048,371.1,375.152,377.868,381.472,383.524,385.524,388.524,392.576,396.628,400.68,404.732,406.784,408.784,411.784,418.948,426.112,433.716,439.104,441.104,444.104,451.268,455.32,458.036,462.088,464.088,467.088,474.252,478.304,481.02,483.296,486.9,489.176,491.176,494.031,501.635,505.687,507.963,512.015,514.015,517.015,522.403,526.007" svgx:width="0.39,0.5,0.5,0.5,0.33,0.5,0.78,0.44,1.0,0.56,0.28,0.5,0.5,0.44,0.5,0.5,0.33,0.44,0.25,0.25,0.55,0.5,0.5,0.5,0.5,0.25,0.25,0.55,0.89,0.89,0.94,0.67,0.25,0.55,0.89,0.5,0.33,0.5,0.25,0.55,0.89,0.5,0.33,0.28,0.44,0.28,0.25,0.55,0.94,0.5,0.28,0.5,0.25,0.55,0.67,0.44,0.5" style="fill:rgb(35,31,32);font-family:TimesNewRomanPSMT;font-size:8.0px;stroke:none;">syndrome—Singapore, 2003. MMWR Morb Mortal Wkly Rep</text>
   <text y="451.797" x="308.544,312.544,316.544,320.544,324.544,326.768,330.768,334.768,336.992,340.992,344.992,348.992,352.992,356.695,360.695" svgx:width="0.5,0.5,0.5,0.5,0.28,0.5,0.5,0.28,0.5,0.5,0.5,0.5,0.5,0.5,0.25" style="fill:rgb(35,31,32);font-family:TimesNewRomanPSMT;font-size:8.0px;stroke:none;">2003;52:405–11.</text>
   <text y="461.397" x="295.8,299.8,303.8,305.8,308.189,312.637,316.189,318.853,322.853,325.242,330.578,333.69,335.69,338.078,342.526,346.078,349.63,353.63,355.578,361.354,364.466,366.466,368.854,374.63,378.63,382.182,386.182,390.182,393.734,396.398,398.622,401.011,408.123,411.235,413.235,415.624,421.4,424.952,430.728,434.728,438.28,440.944,444.944,447.333,452.669,454.669,457.058,461.506,467.73,471.282,473.506,476.618,480.17,482.834,485.222,490.558,492.558,494.947,500.283,504.283,510.507,514.059,516.723,519.112,522.224,528.0" svgx:width="0.5,0.5,0.25,0.25,0.56,0.44,0.33,0.5,0.25,0.67,0.39,0.25,0.25,0.56,0.44,0.44,0.5,0.25,0.72,0.39,0.25,0.25,0.72,0.5,0.44,0.5,0.5,0.44,0.33,0.28,0.25,0.89,0.39,0.25,0.25,0.72,0.44,0.72,0.5,0.44,0.33,0.5,0.25,0.67,0.25,0.25,0.56,0.78,0.44,0.28,0.39,0.44,0.33,0.25,0.67,0.25,0.25,0.67,0.5,0.78,0.44,0.33,0.25,0.39,0.72,0.25" style="fill:rgb(35,31,32);font-family:TimesNewRomanPSMT;font-size:8.0px;stroke:none;">12. Park BJ, Peck AJ, Kuehnert MJ, Newbern C, Smelser C, Comer JA,</text>
   <text y="470.997" x="308.544,312.096,314.32,316.611,320.163,322.387,324.387,326.678,331.566,335.118,338.67,342.67,344.962,348.962,351.626,353.917,358.365,364.141,369.477,373.925,376.216,378.44,381.104,384.656,388.656,391.768,397.992,400.216,403.328,406.44,408.664,412.664,416.664,418.955,422.507,428.731,432.731,436.731,440.731,443.022,447.022,450.574,454.126,456.35,458.574,462.574,466.126,469.678,472.342,475.894,478.186,483.962,487.962,490.626,494.626,498.178,500.842,503.954,505.954,508.245,514.021,518.021,520.245,522.469,526.021" svgx:width="0.44,0.28,0.25,0.44,0.28,0.25,0.25,0.61,0.44,0.44,0.5,0.25,0.5,0.33,0.25,0.56,0.72,0.67,0.56,0.25,0.28,0.33,0.44,0.5,0.39,0.78,0.28,0.39,0.39,0.28,0.5,0.5,0.25,0.44,0.78,0.5,0.5,0.5,0.25,0.5,0.44,0.44,0.28,0.28,0.5,0.44,0.44,0.33,0.44,0.25,0.72,0.5,0.33,0.5,0.44,0.33,0.39,0.25,0.25,0.72,0.5,0.28,0.28,0.44,0.5" style="fill:rgb(35,31,32);font-family:TimesNewRomanPSMT;font-size:8.0px;stroke:none;">et al. Lack of SARS transmission among healthcare workers, United</text>
   <text y="480.597" x="308.544,312.847,315.071,318.623,320.847,324.399,327.511,329.511,331.711,336.599,342.823,346.375,348.894,352.894,355.094,357.758,361.758,364.422,367.974,371.526,373.75,375.95,381.726,383.95,387.062,389.262,393.262,397.262,401.262,405.262,407.486,411.486,415.486,417.71,421.71,425.71,429.71,433.71,437.71,439.71" svgx:width="0.56,0.28,0.44,0.28,0.44,0.39,0.25,0.25,0.61,0.78,0.44,0.33,0.5,0.25,0.33,0.5,0.33,0.44,0.44,0.28,0.25,0.72,0.28,0.39,0.25,0.5,0.5,0.5,0.5,0.28,0.5,0.5,0.28,0.5,0.5,0.5,0.5,0.5,0.25,0.25" style="fill:rgb(35,31,32);font-family:TimesNewRomanPSMT;font-size:8.0px;stroke:none;">States. Emerg Infect Dis 2004;10:244–8. </text>
   <text y="490.197" x="295.8,299.8,303.8,305.8,308.147,313.923,317.923,323.699,327.251,329.475,331.699,334.046,338.494,342.302,344.302,346.649,353.761,357.761,361.761,365.761,369.761,373.761,376.108,381.444,383.444,385.791,391.567,394.679,396.903,400.455,404.007,407.559,411.559,413.762,418.65,423.465,425.465,427.812,433.588,437.588,441.14,445.14,447.046,452.822,457.27,459.27,461.617,466.953,470.953,473.177,475.401,477.625,481.625,483.972,488.42,493.308,495.308,497.655,502.103,505.655,507.879,511.431,514.095,517.207,519.554,524.89,528.002" svgx:width="0.5,0.5,0.25,0.25,0.72,0.5,0.72,0.44,0.28,0.28,0.25,0.56,0.56,0.25,0.25,0.89,0.5,0.5,0.5,0.5,0.5,0.25,0.67,0.25,0.25,0.72,0.39,0.28,0.44,0.44,0.44,0.5,0.25,0.61,0.72,0.25,0.25,0.72,0.5,0.44,0.5,0.25,0.72,0.56,0.25,0.25,0.67,0.5,0.28,0.28,0.28,0.5,0.25,0.56,0.61,0.25,0.25,0.56,0.44,0.28,0.44,0.33,0.39,0.25,0.67,0.39,0.25" style="fill:rgb(35,31,32);font-family:TimesNewRomanPSMT;font-size:8.0px;stroke:none;">13. Dowell SF, Mukunu R, Ksiazek TG, Khan AS, Rollin PE, Peters CJ.</text>
   <text y="499.797" x="308.544,313.15,315.814,319.366,323.366,326.478,332.702,334.926,338.038,341.15,343.374,347.374,351.374,353.374,354.043,358.043,360.707,362.707,363.376,368.264,372.264,376.264,378.488,382.04,384.04,384.709,388.709,392.261,398.485,402.485,405.149,407.813,411.813,415.365,419.365,421.589,425.141,427.141,427.81,430.474,434.026,438.026,441.578,444.242,446.466,448.466,449.134,452.686,454.686,455.355,458.467,460.691,464.691,468.691,472.691,474.691,475.36,479.36,482.024,484.024,484.693,487.357,489.581,492.693,496.693,498.693,499.362,502.026,505.578,509.13,511.354,515.354,518.018,521.13,523.13,523.798,526.022" svgx:width="0.61,0.33,0.44,0.5,0.39,0.78,0.28,0.39,0.39,0.28,0.5,0.5,0.25,0.55,0.5,0.33,0.25,0.55,0.61,0.5,0.5,0.28,0.44,0.25,0.55,0.5,0.44,0.78,0.5,0.33,0.33,0.5,0.44,0.5,0.28,0.44,0.25,0.55,0.33,0.44,0.5,0.44,0.33,0.28,0.25,0.55,0.44,0.25,0.55,0.39,0.28,0.5,0.5,0.5,0.25,0.55,0.5,0.33,0.25,0.55,0.33,0.28,0.39,0.5,0.25,0.55,0.33,0.44,0.44,0.28,0.5,0.33,0.39,0.25,0.55,0.28,0.5" style="fill:rgb(35,31,32);font-family:TimesNewRomanPSMT;font-size:8.0px;stroke:none;">Transmission of Ebola hemorrhagic fever: a study of risk factors in</text>
   <text y="509.397" x="308.544,311.208,314.76,320.984,323.208,325.432,329.432,331.432,332.064,338.288,341.84,348.064,352.064,355.616,358.28,361.392,363.392,365.392,366.024,371.8,374.024,378.024,383.8,386.024,388.248,390.248,392.248,392.88,398.656,402.208,408.432,412.432,415.984,418.648,422.2,424.424,426.648,430.2,432.2,432.832,438.168,441.72,445.72,449.72,453.72,455.944,458.168,461.72,463.72,464.352,468.352,471.016,473.016,473.648,475.872,479.872,483.424,485.424,486.056,491.392,495.392,499.392,503.392,507.392,509.392,511.392,512.024,516.024,520.024,524.024,528.024" svgx:width="0.33,0.44,0.78,0.28,0.28,0.5,0.25,0.55,0.78,0.44,0.78,0.5,0.44,0.33,0.39,0.25,0.25,0.55,0.72,0.28,0.5,0.72,0.28,0.28,0.25,0.25,0.55,0.72,0.44,0.78,0.5,0.44,0.33,0.44,0.28,0.28,0.44,0.25,0.55,0.67,0.44,0.5,0.5,0.5,0.28,0.28,0.44,0.25,0.55,0.5,0.33,0.25,0.55,0.28,0.5,0.44,0.25,0.55,0.67,0.5,0.5,0.5,0.5,0.25,0.25,0.55,0.5,0.5,0.5,0.5,0.25" style="fill:rgb(35,31,32);font-family:TimesNewRomanPSMT;font-size:8.0px;stroke:none;">family members, Kikwit, Democratic Republic of the Congo, 1995.</text>
   <text y="518.997" x="308.544,313.88,317.88,324.104,330.328,332.552,335.664,338.776,341.0,345.0,349.0,351.0,352.327,356.327,359.879,361.879,363.206,368.094,372.094,374.318,376.542,380.094,382.094,383.422,386.974,390.974,394.974,397.198,399.862,403.414,405.414,406.741,408.965,412.517,415.629,417.629,418.956,423.844,427.844,430.068,434.068,437.62,443.844,446.068,449.62,452.732,454.732,456.059,459.611,461.611,462.938,468.714,470.938,474.938,480.714,482.938,485.162,487.162,489.162,490.49,493.602,495.602,496.929,499.593,503.593,506.257,509.809,513.361,515.585,517.585,518.912,524.688,526.912" svgx:width="0.67,0.5,0.78,0.78,0.28,0.39,0.39,0.28,0.5,0.5,0.25,0.55,0.5,0.44,0.25,0.55,0.61,0.5,0.28,0.28,0.44,0.25,0.55,0.44,0.5,0.5,0.28,0.33,0.44,0.25,0.55,0.28,0.44,0.39,0.25,0.55,0.61,0.5,0.28,0.5,0.44,0.78,0.28,0.44,0.39,0.25,0.55,0.44,0.25,0.55,0.72,0.28,0.5,0.72,0.28,0.28,0.25,0.25,0.55,0.39,0.25,0.55,0.33,0.5,0.33,0.44,0.44,0.28,0.25,0.55,0.72,0.28,0.39" style="fill:rgb(35,31,32);font-family:TimesNewRomanPSMT;font-size:8.0px;stroke:none;">Commission de Lutte contre les Epidemies a Kikwit. J Infect Dis</text>
   <text y="528.597" x="308.544,312.544,316.544,320.544,324.544,326.768,330.768,334.768,338.768,340.968,343.632,348.08,352.08,356.08,360.08,362.304,364.504,368.504,371.168,373.392,377.84,381.84,385.84,389.84,393.84,397.84" svgx:width="0.5,0.5,0.5,0.5,0.28,0.5,0.5,0.5,0.25,0.33,0.56,0.5,0.5,0.5,0.28,0.25,0.5,0.33,0.28,0.56,0.5,0.5,0.5,0.5,0.5,0.25" style="fill:rgb(35,31,32);font-family:TimesNewRomanPSMT;font-size:8.0px;stroke:none;">1999;179 (Suppl 1):S87–91.</text>
   <text y="538.197" x="295.8,299.8,303.8,305.8,307.8,308.47,313.806,317.358,321.358,323.582,327.134,329.798,332.91,334.91,335.581,338.245,342.245,344.909,346.909,347.579,353.355,355.579,358.691,362.243,365.795,368.907,372.459,374.459,375.13,380.466,384.466,388.466,390.69,393.354,397.354,399.578,401.578,402.248,405.8,409.8,413.8,415.8,416.47,420.918,423.582,427.134,431.134,434.686,438.686,440.91,443.134,447.134,451.134,453.134,455.134,455.805,460.253,464.253,468.253,470.477,472.701,476.253,478.253,478.923,482.923,486.475,490.027,492.251,494.475,498.475,500.475,501.146,505.146,509.146,511.37,515.37,518.922,522.922,526.474" svgx:width="0.5,0.5,0.25,0.25,0.55,0.67,0.44,0.5,0.28,0.44,0.33,0.39,0.25,0.55,0.33,0.5,0.33,0.25,0.55,0.72,0.28,0.39,0.44,0.44,0.39,0.44,0.25,0.55,0.67,0.5,0.5,0.28,0.33,0.5,0.28,0.25,0.55,0.44,0.5,0.5,0.25,0.55,0.56,0.33,0.44,0.5,0.44,0.5,0.28,0.28,0.5,0.5,0.25,0.25,0.55,0.56,0.5,0.5,0.28,0.28,0.44,0.25,0.55,0.5,0.44,0.44,0.28,0.28,0.5,0.25,0.55,0.5,0.5,0.28,0.5,0.44,0.5,0.44,0.44" style="fill:rgb(35,31,32);font-family:TimesNewRomanPSMT;font-size:8.0px;stroke:none;">14. Centers for Disease Control and Prevention. Public health guidance</text>
   <text y="547.797" x="308.544,311.208,315.208,317.872,320.454,324.006,328.006,334.23,340.454,344.454,348.454,350.678,352.902,356.902,359.566,361.79,365.342,369.342,372.894,375.118,377.699,381.699,384.363,387.915,391.915,395.467,398.131,401.683,405.683,409.683,413.235,416.347,419.459,422.041,425.593,429.593,433.593,436.174,438.838,442.39,445.502,449.502,453.502,457.502,460.614,464.166,466.748,468.972,472.972,475.554,478.666,482.218,486.218,489.77,492.434,495.986,498.567,502.119,505.671,509.671,511.895,515.447,518.029,520.693,524.245,527.357" svgx:width="0.33,0.5,0.33,0.25,0.44,0.5,0.78,0.78,0.5,0.5,0.28,0.28,0.5,0.33,0.28,0.44,0.5,0.44,0.28,0.25,0.5,0.33,0.44,0.5,0.44,0.33,0.44,0.5,0.5,0.44,0.39,0.39,0.25,0.44,0.5,0.5,0.25,0.33,0.44,0.39,0.5,0.5,0.5,0.39,0.44,0.25,0.28,0.5,0.25,0.39,0.44,0.5,0.44,0.33,0.44,0.25,0.44,0.44,0.5,0.28,0.44,0.25,0.33,0.44,0.39,0.33" style="fill:rgb(35,31,32);font-family:TimesNewRomanPSMT;font-size:8.0px;stroke:none;">for community-level preparedness and response to severe acute res-</text>
   <text y="557.397" x="308.544,312.544,314.768,317.432,320.984,323.208,327.208,329.872,333.872,335.872,336.53,339.642,343.642,347.642,351.642,354.306,358.306,364.53,368.082,371.194,373.194,373.853,376.517,380.965,386.741,392.077,396.525,399.189,407.189,411.189,414.741,417.405,420.517,422.741,426.741,430.741,432.741,433.399,437.399,439.399,441.399,442.058,444.722,448.722,451.386,454.938,458.49,460.714,462.938,466.938,470.938,472.938,473.596,477.148,481.148,485.148,487.372,490.036,494.036,496.26,498.26,498.918,501.142,505.142,507.142,507.801,511.801,515.353,518.905,521.129,523.353,527.353" svgx:width="0.5,0.28,0.33,0.44,0.28,0.5,0.33,0.5,0.25,0.55,0.39,0.5,0.5,0.5,0.33,0.5,0.78,0.44,0.39,0.25,0.55,0.33,0.56,0.72,0.67,0.56,0.33,1.0,0.5,0.44,0.33,0.39,0.28,0.5,0.5,0.25,0.55,0.5,0.25,0.25,0.55,0.33,0.5,0.33,0.44,0.44,0.28,0.28,0.5,0.5,0.25,0.55,0.44,0.5,0.5,0.28,0.33,0.5,0.28,0.25,0.55,0.28,0.5,0.25,0.55,0.5,0.44,0.44,0.28,0.28,0.5,0.33" style="fill:rgb(35,31,32);font-family:TimesNewRomanPSMT;font-size:8.0px;stroke:none;">piratory syndromes (SARS)—version 2. Infection control in health-</text>
   <text y="566.997" x="308.544,312.256,315.968,318.792,322.504,324.504,330.305,333.129,336.841,340.553,342.937,345.321,347.705,350.089,352.473,356.185,359.457,361.617,363.617,369.418,372.242,375.954,379.666,383.378,387.09,390.362,393.634,397.346,401.506,403.506,409.307,413.467,417.627,421.787,425.947,427.947,433.747,441.019,444.731,447.555,449.555,455.356,459.516,462.34,464.5,466.5,471.859,477.201,481.361,485.073,487.457,489.841,493.553,497.713,500.097,503.809,505.809,511.61,514.434,517.258,521.418,527.802" svgx:width="0.44,0.44,0.33,0.44,0.25,0.55,0.33,0.44,0.44,0.28,0.28,0.28,0.28,0.28,0.44,0.39,0.25,0.25,0.55,0.33,0.44,0.44,0.44,0.44,0.39,0.39,0.44,0.5,0.25,0.55,0.5,0.5,0.5,0.5,0.25,0.55,0.89,0.44,0.33,0.25,0.55,0.5,0.33,0.25,0.25,0.55,0.72,0.5,0.44,0.28,0.28,0.44,0.5,0.28,0.44,0.25,0.55,0.33,0.33,0.5,0.78,0.28" style="fill:rgb(35,31,32);font-family:TimesNewRomanPSMT;font-size:8.0px;stroke:none;">care facilities. [accessed 2004 Mar 8]. Available from:</text>
   <text y="576.597" x="308.544,312.544,314.768,316.992,320.992,323.216,325.44,327.664,333.44,339.216,344.473,346.473,350.025,354.025,357.577,359.577,363.577,367.577,371.577,373.801,377.801,381.353,383.577,387.577,391.577,395.577,397.801,400.913,404.465,407.129,410.241,412.465,416.465,420.465,422.689,426.689,430.241,434.241,437.793,441.345,443.569,446.233,448.457,452.457,456.009,459.561,461.785,464.009,468.009,471.561,475.113,477.777,481.329,483.329,487.329,489.553" svgx:width="0.5,0.28,0.28,0.5,0.28,0.28,0.28,0.72,0.72,0.72,0.25,0.44,0.5,0.44,0.25,0.5,0.5,0.5,0.28,0.5,0.44,0.28,0.5,0.5,0.5,0.28,0.39,0.44,0.33,0.39,0.28,0.5,0.5,0.28,0.5,0.44,0.5,0.44,0.44,0.28,0.33,0.28,0.5,0.44,0.44,0.28,0.28,0.5,0.44,0.44,0.33,0.44,0.25,0.5,0.28,0.78" style="fill:rgb(35,31,32);font-family:TimesNewRomanPSMT;font-size:8.0px;stroke:none;">http://www.cdc.gov/ncidod/sars/guidance/I/healthcare.htm</text>
   <text y="586.197" x="295.8,299.8,303.8,305.8,307.8,309.596,313.596,319.372,322.924,325.588,329.588,333.14,335.804,337.804,339.6,342.712,347.16,349.16,351.16,352.956,358.732,362.732,364.956,368.956,372.508,374.732,376.956,380.956,384.508,386.508,388.304,390.968,394.968,397.632,399.632,401.428,403.652,406.764,410.764,412.988,416.54,418.764,420.988,424.988,428.988,430.988,432.784,436.784,439.448,443.0,446.552,450.104,454.104,456.328,458.552,462.552,466.552,469.664,471.664,473.46,475.684,479.684,481.684,483.48,487.48,491.48,494.592,498.592,500.816,503.04,506.592,508.816,511.928,513.928,515.928,517.579,522.467,526.467" svgx:width="0.5,0.5,0.25,0.25,0.55,0.5,0.72,0.44,0.33,0.5,0.44,0.33,0.25,0.55,0.39,0.56,0.25,0.25,0.55,0.72,0.5,0.28,0.5,0.44,0.28,0.28,0.5,0.44,0.25,0.55,0.33,0.5,0.33,0.25,0.55,0.28,0.39,0.5,0.28,0.44,0.28,0.28,0.5,0.5,0.25,0.55,0.5,0.33,0.44,0.44,0.44,0.5,0.28,0.28,0.5,0.5,0.39,0.25,0.55,0.28,0.5,0.25,0.55,0.5,0.5,0.39,0.5,0.28,0.28,0.44,0.28,0.39,0.25,0.25,0.55,0.61,0.5,0.44" style="fill:rgb(35,31,32);font-family:TimesNewRomanPSMT;font-size:8.0px;stroke:none;">15. 2Garner JS. Guideline for isolation precautions in hospitals. The</text>
   <text y="595.797" x="308.544,314.32,318.32,321.432,325.432,327.656,329.88,333.432,335.656,337.656,340.091,342.755,346.755,349.419,352.971,356.523,358.747,360.971,364.971,368.971,370.971,373.406,378.742,382.742,386.742,388.966,391.63,395.63,397.854,399.854,402.29,406.738,409.402,412.954,416.506,418.73,420.954,424.506,428.058,431.17,433.17,435.163,440.939,444.939,448.939,451.163,454.275,458.275,460.939,464.939,466.939,469.374,474.71,478.71,484.934,491.158,493.382,495.606,497.83,501.382,504.934,506.934,508.934,511.37,514.034,518.034,520.698,524.25,527.802" svgx:width="0.72,0.5,0.39,0.5,0.28,0.28,0.44,0.28,0.25,0.55,0.33,0.5,0.33,0.44,0.44,0.28,0.28,0.5,0.5,0.25,0.55,0.67,0.5,0.5,0.28,0.33,0.5,0.28,0.25,0.55,0.56,0.33,0.44,0.44,0.28,0.28,0.44,0.44,0.39,0.25,0.55,0.72,0.5,0.5,0.28,0.39,0.5,0.33,0.5,0.25,0.55,0.67,0.5,0.78,0.78,0.28,0.28,0.28,0.44,0.44,0.25,0.25,0.55,0.33,0.5,0.33,0.44,0.44,0.28" style="fill:rgb(35,31,32);font-family:TimesNewRomanPSMT;font-size:8.0px;stroke:none;">Hospital Infection Control Practices Advisory Committee. Infect</text>
   <text y="605.397" x="308.544,313.88,317.88,321.88,324.104,326.768,330.768,332.992,335.192,340.968,344.968,348.08,352.08,354.28,359.168,363.168,365.392,369.392,372.944,379.168,381.392,385.392,387.616,389.816,393.816,397.816,401.816,405.816,408.04,412.04,416.04,418.264,422.264,426.264,430.264,434.264,438.264" svgx:width="0.67,0.5,0.5,0.28,0.33,0.5,0.28,0.25,0.72,0.5,0.39,0.5,0.25,0.61,0.5,0.28,0.5,0.44,0.78,0.28,0.5,0.28,0.25,0.5,0.5,0.5,0.5,0.28,0.5,0.5,0.28,0.5,0.5,0.5,0.5,0.5,0.25" style="fill:rgb(35,31,32);font-family:TimesNewRomanPSMT;font-size:8.0px;stroke:none;">Control Hosp Epidemiol 1996;17:53–80.</text>
   <text y="614.997" x="295.8,299.8,303.8,305.8,307.8,309.126,316.038,320.038,322.702,324.926,328.926,330.926,332.396,338.172,341.724,345.276,347.5,349.724,353.724,355.724,357.194,362.97,365.49,369.49,373.042,377.042,379.266,382.818,386.37,388.594,390.818,394.818,398.818,400.818,402.818,404.289,408.737,414.513,419.849,424.297,426.297,427.767,431.767,435.767,437.991,441.991,444.655,448.207,451.759,455.759,457.759,459.23,462.782,466.782,470.782,473.006,476.558,478.782,482.782,486.334,490.334,492.334,493.804,499.58,503.58,506.244,508.468,512.468,518.244,520.468,524.468,528.02" svgx:width="0.5,0.5,0.25,0.25,0.55,0.94,0.5,0.33,0.28,0.5,0.25,0.55,0.72,0.44,0.44,0.28,0.28,0.5,0.25,0.55,0.72,0.33,0.5,0.44,0.5,0.28,0.44,0.44,0.28,0.28,0.5,0.5,0.25,0.25,0.55,0.56,0.72,0.67,0.56,0.25,0.55,0.5,0.5,0.28,0.5,0.33,0.44,0.44,0.5,0.25,0.55,0.44,0.5,0.5,0.28,0.44,0.28,0.5,0.44,0.5,0.25,0.55,0.72,0.5,0.33,0.28,0.5,0.72,0.28,0.5,0.44,0.25" style="fill:rgb(35,31,32);font-family:TimesNewRomanPSMT;font-size:8.0px;stroke:none;">16. World Health Organization. SARS outbreak contained worldwide.</text>
   <text y="624.597" x="308.544,311.208,314.76,318.312,321.864,325.416,328.528,331.64,335.192,339.192,341.192,342.259,346.259,350.259,354.259,358.259,360.259,361.326,368.438,371.99,374.654,376.654,377.722,381.722,384.386,386.386,388.386,389.011,394.194,398.194,401.746,403.97,406.194,409.746,413.746,415.97,419.522,421.522,422.589,425.253,427.917,431.917,438.141,440.365,442.365,443.432,447.432,449.656,451.88,455.88,458.104,460.328,462.552,468.328,474.104,479.36,481.36,487.136,491.136,495.136,497.136,499.36,503.36,505.584,507.808,514.032,517.584,521.584,523.808,527.36" svgx:width="0.33,0.44,0.44,0.44,0.44,0.39,0.39,0.44,0.5,0.25,0.55,0.5,0.5,0.5,0.5,0.25,0.55,0.89,0.44,0.33,0.25,0.55,0.5,0.33,0.25,0.25,0.55,0.72,0.5,0.44,0.28,0.28,0.44,0.5,0.28,0.44,0.25,0.55,0.33,0.33,0.5,0.78,0.28,0.25,0.55,0.5,0.28,0.28,0.5,0.28,0.28,0.28,0.72,0.72,0.72,0.25,0.72,0.5,0.5,0.25,0.28,0.5,0.28,0.28,0.78,0.44,0.5,0.28,0.44,0.33" style="fill:rgb(35,31,32);font-family:TimesNewRomanPSMT;font-size:8.0px;stroke:none;">[accessed 2004 Mar 8]. Available from: http://www.who.int/media-</text>
   <text y="635.584" x="308.544,312.096,315.648,319.648,321.872,324.536,328.088,330.312,332.976,336.528,338.752,342.304,345.856,348.968,352.52,355.632,357.856,361.856,365.856,369.856,373.856,376.08,380.08,382.744,386.744,390.744,392.968,396.52,400.52,402.744" svgx:width="0.44,0.44,0.5,0.28,0.33,0.44,0.28,0.33,0.44,0.28,0.44,0.44,0.39,0.44,0.39,0.28,0.5,0.5,0.5,0.5,0.28,0.5,0.33,0.5,0.5,0.28,0.44,0.5,0.28,0.25" style="fill:rgb(35,31,32);font-family:TimesNewRomanPSMT;font-size:8.0px;stroke:none;">centre/releases/2003/pr56/en/ </text>
  </g>
  <path style="fill:none;stroke:rgb(35,31,32);stroke-width:1.0;" d="M295.800 644.900 L530.000 644.900 "/>
  <g begin="text">
   <text y="657.591" x="295.8,301.576,305.576,309.576,312.24,315.792,318.904,322.016,324.374,327.038,331.038,333.702,336.059,339.611,343.611,346.275,348.939,352.491,355.603,359.603,363.603,367.603,371.603,375.155,379.155,382.707,386.259,388.483,390.841,395.729,397.729,400.086,405.422,407.646,409.87,412.39,415.054,419.054,421.718,425.718,428.075,435.187,438.739,444.515,448.515,452.515,456.067,458.291,462.291,464.291,466.649,471.985,475.537,479.537,481.761,485.313,487.977,491.089,493.446,496.11,500.11,502.774,505.132,510.908,513.132,516.244,519.796,523.348,526.46" svgx:width="0.72,0.5,0.5,0.33,0.44,0.39,0.39,0.25,0.33,0.5,0.33,0.25,0.44,0.5,0.33,0.33,0.44,0.39,0.5,0.5,0.5,0.5,0.44,0.5,0.44,0.44,0.28,0.25,0.61,0.25,0.25,0.67,0.28,0.28,0.33,0.33,0.5,0.33,0.5,0.25,0.89,0.44,0.72,0.5,0.5,0.44,0.28,0.5,0.25,0.25,0.67,0.44,0.5,0.28,0.44,0.33,0.39,0.25,0.33,0.5,0.33,0.25,0.72,0.28,0.39,0.44,0.44,0.39,0.44" style="fill:rgb(35,31,32);font-family:TimesNewRomanPSMT;font-size:8.0px;stroke:none;">Address for correspondence: L. Clifford McDonald, Centers for Disease</text>
   <text y="669.591" x="295.8,301.136,305.136,309.136,311.36,314.024,318.024,320.248,322.248,322.864,326.416,330.416,334.416,336.416,337.032,341.48,344.144,347.696,351.696,355.248,359.248,361.472,363.696,367.696,371.696,373.696,375.696,376.312,380.312,384.312,388.312,392.312,394.312,394.928,400.264,402.488,404.712,407.376,409.6,413.6,417.6,419.6,420.216,425.552,429.552,433.104,437.104,439.104,441.104,441.72,448.832,452.384,454.608,456.832,459.944,462.168,466.168,470.168,472.343,478.119,482.119,486.119,488.119,490.294,496.07,498.294,500.518,504.07,508.07,510.294,513.846,515.846,516.462,522.238,528.014" svgx:width="0.67,0.5,0.5,0.28,0.33,0.5,0.28,0.25,0.55,0.44,0.5,0.5,0.25,0.55,0.56,0.33,0.44,0.5,0.44,0.5,0.28,0.28,0.5,0.5,0.25,0.25,0.55,0.5,0.5,0.5,0.5,0.25,0.55,0.67,0.28,0.28,0.33,0.28,0.5,0.5,0.25,0.55,0.67,0.5,0.44,0.5,0.25,0.25,0.55,0.89,0.44,0.28,0.28,0.39,0.28,0.5,0.5,0.25,0.72,0.5,0.5,0.25,0.25,0.72,0.28,0.28,0.44,0.5,0.28,0.44,0.25,0.55,0.72,0.72,0.25" style="fill:rgb(35,31,32);font-family:TimesNewRomanPSMT;font-size:8.0px;stroke:none;">Control and Prevention, 1600 Clifton Road, Mailstop A35, Atlanta GA,</text>
   <text y="681.591" x="295.8,299.8,303.8,307.8,311.8,315.8,317.8,320.0,325.776,330.224,336.0,338.224,340.424,343.088,346.64,350.64,352.864,355.064,359.064,363.064,367.064,369.728,373.728,377.728,381.728,384.392,388.392,392.392,396.392,400.392,402.616,404.816,408.368,414.592,418.144,420.368,422.592,424.816,427.016,429.24,431.464,437.688,441.688,449.056,452.608,456.608,460.16,462.16,466.16,470.16" svgx:width="0.5,0.5,0.5,0.5,0.5,0.25,0.25,0.72,0.56,0.72,0.28,0.25,0.33,0.44,0.5,0.28,0.25,0.5,0.5,0.5,0.33,0.5,0.5,0.5,0.33,0.5,0.5,0.5,0.5,0.28,0.25,0.44,0.78,0.44,0.28,0.28,0.28,0.25,0.28,0.28,0.78,0.5,0.92,0.44,0.5,0.44,0.25,0.5,0.5,0.5" style="fill:rgb(35,31,32);font-family:TimesNewRomanPSMT;font-size:8.0px;stroke:none;">30333, USA; fax: 404-639-2647; email: ljm3@cdc.gov</text>
  </g>
  <path style="fill:none;stroke:rgb(35,31,32);stroke-width:1.0;" d="M48.600 36.000 L531.000 36.000 "/>
  <g begin="text">
   <text y="731.324" x="155.372,160.708,167.372,171.82,174.484,178.932,180.708,185.156,189.604,192.051,194.275,198.723,200.947,205.395,209.395,211.619,213.395,217.843,222.291,226.291,228.737,234.513,236.289,240.289,244.737,249.185,253.185,257.633,261.633,264.08,266.88,269.326,275.102,280.878,286.212,288.436,292.436,296.884,300.884,303.108,307.556,312.004,316.004,318.228,322.676,324.452,328.9,331.347,334.147,336.593,341.488,345.936,347.712,349.936,352.382,356.83,361.278,363.502,365.949,371.725,376.173,378.397,380.843,385.291,387.515,389.961,396.625,401.073,405.073,407.52,411.968,416.416,420.864,425.344,516.619,521.067,525.515" svgx:width="0.67,0.83,0.56,0.33,0.56,0.22,0.56,0.56,0.28,0.28,0.56,0.28,0.56,0.5,0.28,0.22,0.56,0.56,0.5,0.28,0.72,0.22,0.5,0.56,0.56,0.5,0.56,0.5,0.28,0.35,0.28,0.72,0.72,0.72,0.28,0.5,0.56,0.5,0.28,0.56,0.56,0.5,0.28,0.56,0.22,0.56,0.28,0.35,0.28,0.67,0.56,0.22,0.28,0.28,0.56,0.56,0.28,0.28,0.72,0.56,0.28,0.28,0.56,0.28,0.28,0.83,0.56,0.5,0.28,0.56,0.56,0.56,0.56,0.55,0.56,0.56,0.56" style="fill:rgb(35,31,32);font-family:ArialMT;font-size:8.0px;stroke:none;">Emerging Infectious Diseases • www.cdc.gov/eid • Vol. 10, No. 5, May 2004 781</text>
  </g>
  <g begin="text">
   <text y="46.552" x="328.228,334.231,340.234,346.732,352.735,355.487,357.485,362.489,365.241,371.739,376.743,381.747,383.745,386.247,391.251,395.751,400.755,403.752,408.756,411.508,417.007,422.011,426.511,428.509,430.507,432.505,435.007,437.005,442.009,446.509,449.011,451.6,456.102,461.106,464.103,469.107,474.111,476.613,481.617,484.369,489.373,494.377,499.381,501.971,506.473,511.477,513.475,519.973,524.977" svgx:width="0.67,0.67,0.72,0.67,0.28,0.22,0.56,0.28,0.72,0.56,0.56,0.22,0.28,0.56,0.5,0.56,0.33,0.56,0.28,0.61,0.56,0.5,0.22,0.22,0.22,0.28,0.22,0.56,0.5,0.28,0.28,0.61,0.56,0.33,0.56,0.56,0.28,0.56,0.28,0.56,0.56,0.56,0.28,0.61,0.56,0.22,0.72,0.56,0.56" style="fill:rgb(35,31,32);font-family:ArialMT;font-size:9.0px;stroke:none;">SARS in Healthcare Facilities, Toronto and Taiwan</text>
  </g>
 </g>
</svg>
