<?xml version="1.0" encoding="UTF-8"?>
<svg height="750.324" width="537.4" xmlns="http://www.w3.org/2000/svg">
 <g id="page" xmlns:svgx="http://www.xml-cml.org/schema/svgx">
  <g begin="text">
   <text y="304.552" x="64.0,68.501,73.506,76.052,81.057,85.558,87.935,92.94,97.945,99.944,101.943,106.444,111.449,113.995,120.494,125.499,130.504,133.007,138.012,143.017,146.015,148.562,153.567,158.572,166.07,171.075,176.08,179.078,181.581,186.586,189.584,194.589,199.594,207.092,212.097,217.102,219.648,222.151,225.149,230.154,235.159,239.66,247.158,249.157,253.658,258.159,260.158,265.163,270.168,272.714,277.719" svgx:width="0.61,0.56,0.28,0.56,0.5,0.28,0.56,0.56,0.22,0.22,0.5,0.56,0.28,0.72,0.56,0.56,0.28,0.56,0.56,0.33,0.28,0.56,0.56,0.83,0.56,0.56,0.33,0.28,0.56,0.33,0.56,0.56,0.83,0.56,0.56,0.28,0.28,0.33,0.56,0.56,0.5,0.83,0.22,0.5,0.5,0.22,0.56,0.56,0.28,0.56,0.28" style="fill:rgb(23,22,21);font-family:ArialMT;font-size:9.0px;stroke:none;">To establish whether human-to-human transmission of</text>
   <text y="315.352" x="46.0,47.998,53.002,55.504,57.502,62.506,67.51,72.514,77.014,82.018,84.538,86.533,92.563,97.045,103.543,108.547,115.045,120.049,122.569,125.06,130.064,134.564,139.064,144.068,147.065,150.062,155.066,160.07,162.59,165.08,167.078,172.082,174.602,177.092,179.594,184.598,189.602,192.122,194.612,199.616,204.62,209.624,211.622,214.124,219.128,223.628,228.632,231.629,236.633,239.15300000000002,241.644,246.144,251.148,253.65,256.152,258.15,263.154,268.158,270.678,273.168,275.166" svgx:width="0.22,0.56,0.28,0.22,0.56,0.56,0.56,0.5,0.56,0.28,0.55,0.67,0.55,0.72,0.56,0.72,0.56,0.28,0.55,0.56,0.5,0.5,0.56,0.33,0.33,0.56,0.56,0.28,0.55,0.22,0.56,0.28,0.55,0.28,0.56,0.56,0.28,0.55,0.56,0.56,0.56,0.22,0.28,0.56,0.5,0.56,0.33,0.56,0.28,0.55,0.5,0.56,0.28,0.28,0.22,0.56,0.56,0.28,0.55,0.22,0.56" style="fill:rgb(23,22,21);font-family:ArialMT;font-size:9.0px;stroke:none;">influenza A H5N1 occurred in the healthcare setting in</text>
   <text y="326.152" x="46.0,51.841,53.839,58.843,61.345,66.349,71.353,78.85,81.352,83.872,85.203,91.701,96.705,99.225,100.556,105.056,110.06,115.064,120.068,125.072,129.572,132.074,137.078,142.082,144.602,145.933,150.937,153.45700000000002,154.788,159.288,162.285,167.289,171.789,176.289,179.286,183.786,188.79,193.29,195.792,197.79,202.794,207.798,212.802,214.8,217.32000000000002,218.651,223.151,228.155,231.152,236.156,241.16,244.157,249.161,253.661,258.665,260.663,265.667,270.671,275.171" svgx:width="0.67,0.22,0.56,0.28,0.56,0.56,0.83,0.28,0.28,0.55,0.72,0.56,0.28,0.55,0.5,0.56,0.56,0.56,0.56,0.5,0.28,0.56,0.56,0.28,0.55,0.56,0.28,0.55,0.5,0.33,0.56,0.5,0.5,0.33,0.5,0.56,0.5,0.28,0.22,0.56,0.56,0.56,0.22,0.28,0.55,0.5,0.56,0.33,0.56,0.56,0.33,0.56,0.5,0.56,0.22,0.56,0.56,0.5,0.56" style="fill:rgb(23,22,21);font-family:ArialMT;font-size:9.0px;stroke:none;">Vietnam, we conducted a cross-sectional seroprevalence</text>
   <text y="336.952" x="46.0,50.5,55.504,58.501,63.001,68.005,72.505,75.321,80.325,87.822,92.826,97.83,102.834,105.65,110.654,115.658,120.158,125.162,127.16,129.536,134.54,136.538,139.354,144.358,151.855,156.859,158.857,163.861,168.361,173.365,178.369,182.869,185.685,190.689,195.189,200.193,205.197,209.697,214.701,219.705,222.521,225.023,230.027,232.844,237.848,240.664,245.164,250.168,255.172,257.674,259.672,262.669,270.166,275.17" svgx:width="0.5,0.56,0.33,0.5,0.56,0.5,0.28,0.56,0.83,0.56,0.56,0.56,0.28,0.56,0.56,0.5,0.56,0.22,0.28,0.56,0.22,0.28,0.56,0.83,0.56,0.22,0.56,0.5,0.56,0.56,0.5,0.28,0.56,0.5,0.56,0.56,0.5,0.56,0.56,0.28,0.28,0.56,0.28,0.56,0.28,0.5,0.56,0.56,0.28,0.22,0.33,0.83,0.56,0.56" style="fill:rgb(23,22,21);font-family:ArialMT;font-size:9.0px;stroke:none;">survey among hospital employees exposed to 4 confirmed</text>
   <text y="347.752" x="46.0,51.004,56.008,61.012,63.532000000000004,64.306,69.31,71.83,72.604,77.608,80.605,85.609,90.613,95.617,100.621,102.619,107.623,110.143,110.917,117.415,122.419,128.917,133.921,136.441,137.215,141.715,146.719,151.219,156.223,159.22,164.098,169.102,171.604,173.602,178.606,183.61,185.986,190.486,193.006,193.78,198.784,201.781,204.30100000000002,205.075,207.577,212.581,217.585,219.583,222.58,225.10000000000002,225.874,230.374,232.372,234.37,239.374,241.372,245.872,250.876,252.874,255.394,256.168,260.668,265.672,270.676,275.176,277.174" svgx:width="0.56,0.56,0.56,0.28,0.55,0.56,0.28,0.55,0.56,0.33,0.56,0.56,0.56,0.56,0.22,0.56,0.28,0.55,0.72,0.56,0.72,0.56,0.28,0.55,0.5,0.56,0.5,0.56,0.33,0.56,0.56,0.28,0.22,0.56,0.56,0.28,0.5,0.28,0.55,0.56,0.33,0.28,0.55,0.28,0.56,0.56,0.22,0.33,0.28,0.55,0.5,0.22,0.22,0.56,0.22,0.5,0.56,0.22,0.28,0.55,0.5,0.56,0.56,0.5,0.22,0.33" style="fill:rgb(23,22,21);font-family:ArialMT;font-size:9.0px;stroke:none;">and 1 probable H5N1 case-patients or their clinical speci-</text>
   <text y="358.552" x="46.0,53.497,58.501,63.505,68.005,70.507,73.083,75.658,81.661,83.659,88.663,93.667,96.169,100.669,103.666,106.168,111.172,114.169,119.173,124.177,126.753,129.75,134.754,139.758,142.26,147.264,155.265,158.262,160.838,165.842,168.344,170.92,175.924,180.928,183.503,188.507,190.505,192.503,197.507,199.505,204.509,206.507,211.511,214.087,219.091,226.588,231.592,233.59,238.594,243.094,248.098,253.102,257.602,260.178,264.678,269.682,277.179" svgx:width="0.83,0.56,0.56,0.5,0.28,0.28,0.28,0.67,0.22,0.56,0.56,0.28,0.5,0.33,0.28,0.56,0.33,0.56,0.56,0.28,0.33,0.56,0.56,0.28,0.56,0.89,0.33,0.28,0.56,0.28,0.28,0.56,0.56,0.28,0.56,0.22,0.22,0.56,0.22,0.56,0.22,0.56,0.28,0.56,0.83,0.56,0.22,0.56,0.5,0.56,0.56,0.5,0.28,0.5,0.56,0.83,0.33" style="fill:rgb(23,22,21);font-family:ArialMT;font-size:9.0px;stroke:none;">mens. Eighty-three (95.4%) of 87 eligible employees com-</text>
   <text y="369.352" x="46.0,51.004,53.002,58.006,60.508,65.512,70.516,73.036,76.171,81.175,83.695,86.829,91.833,96.837,101.841,106.341,108.843,110.841,115.845,120.849,125.853,130.857,132.855,135.852,140.856,143.376,146.511,151.515,156.519,161.523,164.043,167.178,172.182,175.179,180.183,184.683,186.681,191.685,196.689,201.693,204.21300000000002,207.347,212.351,214.871,218.006,222.506,227.51,230.507,235.511,243.008,245.52800000000002,248.663,253.163,258.167,265.664,270.668,272.666,277.67" svgx:width="0.56,0.22,0.56,0.28,0.56,0.56,0.28,0.55,0.56,0.28,0.55,0.56,0.56,0.56,0.5,0.28,0.22,0.56,0.56,0.56,0.56,0.22,0.33,0.56,0.28,0.55,0.56,0.56,0.56,0.28,0.55,0.56,0.33,0.56,0.5,0.22,0.56,0.56,0.56,0.28,0.55,0.56,0.28,0.55,0.5,0.56,0.33,0.56,0.83,0.28,0.55,0.5,0.56,0.83,0.56,0.22,0.56,0.28" style="fill:rgb(23,22,21);font-family:ArialMT;font-size:9.0px;stroke:none;">pleted a questionnaire and provided a serum sample,</text>
   <text y="380.152" x="46.0,52.498,57.502,59.5,64.0,69.004,71.524,74.641,81.139,86.143,90.643,93.163,96.279,98.781,103.785,108.285,110.787,115.791,120.795,123.315,126.432,128.934,133.938,136.935,139.455,142.572,147.576,152.58,155.082,157.08,162.084,167.088,172.092,174.09,179.094,183.594,186.114,189.23,191.732,196.736,199.256,202.373,204.371,209.375,211.877,213.875,218.879,223.883,228.887,233.387,238.391,240.911,243.533,249.563,254.675,261.173,266.177,272.675,277.679" svgx:width="0.72,0.56,0.22,0.5,0.56,0.28,0.55,0.72,0.56,0.5,0.28,0.55,0.28,0.56,0.5,0.28,0.56,0.56,0.28,0.55,0.28,0.56,0.33,0.28,0.55,0.56,0.56,0.28,0.22,0.56,0.56,0.56,0.22,0.56,0.5,0.28,0.55,0.28,0.56,0.28,0.55,0.22,0.56,0.28,0.22,0.56,0.56,0.56,0.5,0.56,0.28,0.55,0.67,0.55,0.72,0.56,0.72,0.56,0.28" style="fill:rgb(23,22,21);font-family:ArialMT;font-size:9.0px;stroke:none;">which was tested for antibodies to influenza A H5N1.</text>
   <text y="390.952" x="46.0,52.498,54.496,59.5,64.504,67.006,71.506,74.503,77.005,79.003,83.503,88.507,91.027,92.05,97.054,102.058,105.055,109.555,114.559,119.563,122.065,124.585,125.609,128.129,129.152,132.149,137.153,142.157,147.161,150.158,152.66,157.664,162.668,165.18800000000002,166.212,171.216,175.716,180.72,185.724,190.224,195.228,198.225,203.229,205.74900000000002,206.772,209.274,214.278,216.798,217.821" svgx:width="0.72,0.22,0.56,0.56,0.28,0.5,0.33,0.28,0.22,0.5,0.56,0.28,0.55,0.56,0.56,0.33,0.5,0.56,0.56,0.28,0.28,0.55,0.28,0.55,0.33,0.56,0.56,0.56,0.33,0.28,0.56,0.56,0.28,0.55,0.56,0.5,0.56,0.56,0.5,0.56,0.33,0.56,0.28,0.55,0.28,0.56,0.28,0.55,0.58" style="fill:rgb(23,22,21);font-family:ArialMT;font-size:9.0px;stroke:none;">Ninety-five percent reported exposure to &gt;</text>
  </g>
  <path style="fill:none;stroke:rgb(23,22,21);stroke-width:1.0;" d="M217.840 391.910 L223.090 391.910 "/>
  <g begin="text">
   <text y="390.952" x="223.092,228.096,230.616,231.641,238.139,243.143,249.641,254.645,257.165,258.189,262.689,267.693,272.193,277.197" svgx:width="0.56,0.28,0.55,0.72,0.56,0.72,0.56,0.28,0.55,0.5,0.56,0.5,0.56,0.33" style="fill:rgb(23,22,21);font-family:ArialMT;font-size:9.0px;stroke:none;">1 H5N1 case-</text>
   <text y="401.752" x="46.0,50.878,55.882,58.384,60.382,65.386,70.39,72.766,77.266,79.768,82.626,87.63,92.634,95.491,98.488,103.492,108.496,110.998,116.002,124.003,127.0,129.858,132.855,137.859,142.863,147.867,150.864,153.366,158.37,163.374,166.232,170.732,175.232,182.729,187.733,190.235,195.239,202.736,207.236,209.738,212.595,217.599,222.603,227.607,230.465,235.469,238.326,241.323,246.327,248.829,253.833,261.834,264.831,267.689,270.191,275.195,277.193" svgx:width="0.56,0.56,0.28,0.22,0.56,0.56,0.28,0.5,0.28,0.28,0.56,0.56,0.28,0.33,0.56,0.56,0.28,0.56,0.89,0.33,0.28,0.33,0.56,0.56,0.56,0.33,0.28,0.56,0.56,0.28,0.5,0.5,0.83,0.56,0.28,0.56,0.83,0.5,0.28,0.28,0.56,0.56,0.56,0.28,0.56,0.28,0.33,0.56,0.28,0.56,0.89,0.33,0.28,0.28,0.56,0.22,0.33" style="fill:rgb(23,22,21);font-family:ArialMT;font-size:9.0px;stroke:none;">patients; 59 (72.0%) reported symptoms, and 2 (2.4%) ful-</text>
   <text y="412.552" x="46.0,48.702,50.9,53.098,55.295,60.499,65.703,68.223,72.202,74.904,80.108,85.311,87.831,91.81,97.014,102.218,104.92,107.118,112.321,114.519,117.221,119.419,124.623,129.826,132.346,136.325,139.027,144.231,147.428,149.948,153.927,159.131,161.651,165.63,170.833,176.037,180.737,185.437,187.635,192.838,195.036,200.24,202.76000000000002,206.739,213.437,218.641,225.338,230.542,233.062,237.041,241.741,246.945,251.645,256.848,262.052,267.256,272.46,275.657" svgx:width="0.28,0.22,0.22,0.22,0.56,0.56,0.28,0.55,0.28,0.56,0.56,0.28,0.55,0.56,0.56,0.28,0.22,0.56,0.22,0.28,0.22,0.56,0.56,0.28,0.55,0.28,0.56,0.33,0.28,0.55,0.56,0.28,0.55,0.56,0.56,0.5,0.5,0.22,0.56,0.22,0.56,0.28,0.55,0.72,0.56,0.72,0.56,0.28,0.55,0.5,0.56,0.5,0.56,0.56,0.56,0.56,0.33,0.5" style="fill:rgb(23,22,21);font-family:ArialMT;font-size:9.0px;stroke:none;">filled the definition for a possible H5N1 secondary</text>
   <text y="423.352" x="46.0,50.5,55.504,60.004,65.008,68.005,72.883,77.887,80.389,82.387,87.391,92.395,94.897,97.399,99.933,106.431,111.435,113.968,118.468,120.97,125.974,130.978,135.478,138.012,142.889,147.893,150.89,153.392,155.39,159.89,161.888,166.766,171.77,176.774,179.15,183.65,186.184,191.188,196.192,201.196,203.729,208.733,213.737,216.239,221.243,225.743,228.119,233.123,238.127,240.125,245.129,247.663,252.667,257.671,260.173,262.171,267.175,272.179,277.183" svgx:width="0.5,0.56,0.5,0.56,0.33,0.56,0.56,0.28,0.22,0.56,0.56,0.28,0.28,0.28,0.72,0.56,0.28,0.5,0.28,0.56,0.56,0.5,0.28,0.56,0.56,0.33,0.28,0.22,0.5,0.22,0.56,0.56,0.56,0.28,0.5,0.28,0.56,0.56,0.56,0.28,0.56,0.56,0.28,0.56,0.5,0.28,0.56,0.56,0.22,0.56,0.28,0.56,0.56,0.28,0.22,0.56,0.56,0.56,0.33" style="fill:rgb(23,22,21);font-family:ArialMT;font-size:9.0px;stroke:none;">case-patient. No study participants had detectable antibod-</text>
   <text y="434.152" x="46.0,47.998,53.002,57.502,60.022000000000006,60.889,63.391,68.395,70.91499999999999,71.782,73.78,78.784,81.286,83.284,88.288,93.292,98.296,102.796,107.8,110.691,116.721,119.583,126.081,131.085,137.583,142.587,145.089,148.314,153.813,158.817,163.821,166.341,167.208,172.212,177.216,179.592,184.596,187.116,187.982,192.482,197.486,202.49,207.494,212.498,216.998,219.5,222.02,222.887,225.389,230.393,235.397,237.899,240.419,241.286,243.788,248.792,253.796,256.316,257.183,263.681,268.685,275.183" svgx:width="0.22,0.56,0.5,0.28,0.55,0.28,0.56,0.28,0.55,0.22,0.56,0.28,0.22,0.56,0.56,0.56,0.5,0.56,0.28,0.67,0.55,0.72,0.56,0.72,0.56,0.28,0.28,0.61,0.56,0.56,0.28,0.55,0.56,0.56,0.28,0.56,0.28,0.55,0.5,0.56,0.56,0.56,0.56,0.5,0.28,0.28,0.55,0.28,0.56,0.56,0.28,0.28,0.55,0.28,0.56,0.56,0.28,0.55,0.72,0.56,0.72,0.56" style="fill:rgb(23,22,21);font-family:ArialMT;font-size:9.0px;stroke:none;">ies to influenza A H5N1. The data suggest that the H5N1</text>
   <text y="444.952" x="46.0,50.5,52.498,55.495,60.499,64.999,70.003,74.503,76.911,79.908,84.912,89.412,94.416,99.42,104.424,108.924,110.922,115.926,117.924,122.928,125.335,127.837,132.841,135.838,138.246,143.25,148.254,155.751,160.755,165.759,168.166,172.666,177.67,182.17,187.174,191.674,194.082,196.08,201.084,203.491,209.332,211.33,216.334,218.836,223.84,228.844,236.341,238.749,240.747,245.751,248.158,252.658,257.662,262.666,267.67,272.674,275.671" svgx:width="0.5,0.22,0.33,0.56,0.5,0.56,0.5,0.28,0.33,0.56,0.5,0.56,0.56,0.56,0.5,0.22,0.56,0.22,0.56,0.28,0.28,0.56,0.33,0.28,0.56,0.56,0.83,0.56,0.56,0.28,0.5,0.56,0.5,0.56,0.5,0.28,0.22,0.56,0.28,0.67,0.22,0.56,0.28,0.56,0.56,0.83,0.28,0.22,0.56,0.28,0.5,0.56,0.56,0.56,0.56,0.33,0.5" style="fill:rgb(23,22,21);font-family:ArialMT;font-size:9.0px;stroke:none;">viruses responsible for human cases in Vietnam in January</text>
   <text y="455.752" x="46.0,51.004,56.008,61.012,66.016,68.536,70.341,75.345,78.342,83.346,85.866,87.67,92.674,97.678,100.18,102.7,104.505,107.502,112.506,117.51,122.514,124.512,126.51,131.01,133.53,135.334,137.836,140.833,145.837,150.841,155.341,162.838,164.836,167.338,169.84,174.844,179.848,182.36800000000002,184.173,186.675,189.672,194.676,202.173,204.693,206.497,211.501,216.505,219.502,224.002,229.006,234.01,236.53,238.335,240.837,245.841,248.36100000000002,250.165,255.169,260.173,263.17,267.67,272.674,277.678" svgx:width="0.56,0.56,0.56,0.56,0.28,0.55,0.56,0.33,0.56,0.28,0.55,0.56,0.56,0.28,0.28,0.55,0.33,0.56,0.56,0.56,0.22,0.22,0.5,0.28,0.55,0.28,0.33,0.56,0.56,0.5,0.83,0.22,0.28,0.28,0.56,0.56,0.28,0.55,0.28,0.33,0.56,0.83,0.28,0.55,0.56,0.56,0.33,0.5,0.56,0.56,0.28,0.55,0.28,0.56,0.28,0.55,0.56,0.56,0.33,0.5,0.56,0.56,0.28" style="fill:rgb(23,22,21);font-family:ArialMT;font-size:9.0px;stroke:none;">2004 are not readily transmitted from person to person.</text>
   <text y="466.552" x="46.0,52.498,57.502,64.0,69.004,73.504,78.508,81.01,83.512,86.032,88.111,90.109,95.113,97.615,99.613,104.617,109.621,114.625,119.125,124.129,126.649,128.728,133.228,135.226,138.223,143.227,147.727,152.731,157.231,159.751,161.83,166.834,169.831,174.835,177.35500000000002,179.434,184.438,189.442,194.446,199.45,201.952,203.95,208.45,213.454,215.452,217.45,221.95,224.47,226.549,231.049,236.053,239.05,241.048,246.052,251.056,253.054,258.058,260.56,263.08,265.159,270.163,275.167" svgx:width="0.72,0.56,0.72,0.56,0.5,0.56,0.33,0.28,0.28,0.55,0.22,0.56,0.28,0.22,0.56,0.56,0.56,0.5,0.56,0.28,0.55,0.5,0.22,0.33,0.56,0.5,0.56,0.5,0.28,0.55,0.56,0.33,0.56,0.28,0.55,0.56,0.56,0.56,0.56,0.28,0.22,0.5,0.56,0.22,0.22,0.5,0.28,0.55,0.5,0.56,0.33,0.22,0.56,0.56,0.22,0.56,0.28,0.28,0.55,0.56,0.56,0.56" style="fill:rgb(23,22,21);font-family:ArialMT;font-size:9.0px;stroke:none;">However, influenza viruses are genetically variable, and</text>
   <text y="477.352" x="46.0,48.502,51.499,56.503,61.507,66.007,73.504,75.502,80.002,84.502,86.5,91.504,93.502,95.5,97.498,100.0,104.5,106.637,108.635,113.135,115.271,120.275,122.273,124.613,127.115,129.113,133.613,138.617,140.615,143.117,145.254,147.756,152.76,154.897,159.901,162.898,167.902,172.906,174.904,179.404,181.906,184.408,186.382,191.881,196.885,201.889,204.886,209.89,212.392,217.396,220.393,225.397,227.899,230.036,235.04,240.044,243.041,247.541,252.545,257.549,262.049,264.185,269.189,272.186,277.19" svgx:width="0.28,0.33,0.56,0.56,0.5,0.83,0.22,0.5,0.5,0.22,0.56,0.22,0.22,0.22,0.28,0.5,0.28,0.22,0.5,0.28,0.56,0.22,0.28,0.28,0.22,0.5,0.56,0.22,0.28,0.28,0.28,0.56,0.28,0.56,0.33,0.56,0.56,0.22,0.5,0.28,0.28,0.28,0.61,0.56,0.56,0.33,0.56,0.28,0.56,0.33,0.56,0.28,0.28,0.56,0.56,0.33,0.5,0.56,0.56,0.5,0.28,0.56,0.33,0.56,0.33" style="fill:rgb(23,22,21);font-family:ArialMT;font-size:9.0px;stroke:none;">transmissibility is difficult to predict. Therefore, persons pro-</text>
   <text y="488.152" x="46.0,50.5,52.498,57.502,59.5,64.504,69.508,72.02799999999999,74.943,79.443,84.447,87.444,92.448,94.96799999999999,97.882,100.384,105.388,108.385,110.905,113.819,120.317,125.321,131.819,136.823,139.34300000000002,142.257,147.135,152.139,154.641,156.639,161.643,166.647,169.023,173.523,176.043,178.958,183.458,188.462,193.466,198.47,200.468,205.472,207.99200000000002,210.906,215.406,220.41,225.414,227.916,229.914,234.918,239.922,244.926,247.446,250.36,252.862,257.866,260.38599999999997,263.301,265.677,270.681,275.181" svgx:width="0.5,0.22,0.56,0.22,0.56,0.56,0.28,0.55,0.5,0.56,0.33,0.56,0.28,0.55,0.28,0.56,0.33,0.28,0.55,0.72,0.56,0.72,0.56,0.28,0.55,0.56,0.56,0.28,0.22,0.56,0.56,0.28,0.5,0.28,0.55,0.5,0.56,0.56,0.56,0.22,0.56,0.28,0.55,0.5,0.56,0.56,0.28,0.22,0.56,0.56,0.56,0.28,0.55,0.28,0.56,0.28,0.55,0.28,0.56,0.5,0.56" style="fill:rgb(23,22,21);font-family:ArialMT;font-size:9.0px;stroke:none;">viding care for H5N1 patients should continue to take</text>
  </g>
  <path style="fill:none;stroke:rgb(23,22,21);stroke-width:0.66;" d="M46.000 501.100 L280.200 501.100 "/>
  <g begin="text">
   <text y="498.952" x="46.0,53.497,58.501,63.505,68.005,73.009,76.006,81.01,85.51,88.262,90.764,95.768,98.52,103.524,106.521,111.525,114.027,119.031,123.531,126.033,128.786,131.288,136.292,141.296,148.793,153.293,158.297,160.295,164.795,169.799,174.299" svgx:width="0.83,0.56,0.56,0.5,0.56,0.33,0.56,0.5,0.28,0.28,0.56,0.28,0.56,0.33,0.56,0.28,0.56,0.5,0.28,0.28,0.28,0.56,0.56,0.83,0.5,0.56,0.22,0.5,0.56,0.5,0.28" style="fill:rgb(23,22,21);font-family:ArialMT;font-size:9.0px;stroke:none;">measures to protect themselves.</text>
   <text y="540.952" x="46.0" svgx:width="0.72" style="fill:rgb(23,22,21);font-family:TimesNewRomanPSMT;font-size:27.31px;stroke:none;">D</text>
   <text y="528.952" x="65.625,68.405,71.735,76.175,80.615,83.395,85.895,87.626,90.406,93.736,98.176,103.176,107.066,114.846,117.626,121.516,125.406,128.186,133.186,138.186,140.686,142.417,147.417,150.747,153.247,154.978,162.198,167.198,174.418,179.418,181.918,183.649,188.649,191.429,194.759,199.759,203.649,208.089,211.979,214.479,216.21,221.21,224.54,227.04,228.771,233.771,238.771,242.101,246.541,249.321,254.321,256.821,258.552,262.992,267.992,270.772,275.212" svgx:width="0.28,0.33,0.44,0.44,0.28,0.25,0.55,0.28,0.33,0.44,0.5,0.39,0.78,0.28,0.39,0.39,0.28,0.5,0.5,0.25,0.55,0.5,0.33,0.25,0.55,0.72,0.5,0.72,0.5,0.25,0.55,0.5,0.28,0.33,0.5,0.39,0.44,0.39,0.25,0.55,0.5,0.33,0.25,0.55,0.5,0.5,0.33,0.44,0.28,0.5,0.25,0.55,0.44,0.5,0.28,0.44,0.5" style="fill:rgb(23,22,21);font-family:TimesNewRomanPSMT;font-size:10.0px;stroke:none;">irect transmission of H5N1 viruses of purely avian</text>
   <text y="540.952" x="65.625,70.625,73.955,76.735,81.735,84.515,89.515,92.731,96.061,99.391,104.391,112.171,115.387,120.387,123.167,126.497,131.497,135.387,138.603,141.383,146.383,149.599,154.599,159.599,167.379,171.819,176.819,180.709,183.924,191.144,195.584,199.474,202.69,206.02,208.8,212.13,216.02,218.8,222.016,227.016,231.456,235.346,239.786,243.116,245.896,250.896,255.336,260.336,263.552,268.552,273.552,276.882" svgx:width="0.5,0.33,0.28,0.5,0.28,0.5,0.25,0.33,0.33,0.5,0.78,0.25,0.5,0.28,0.33,0.5,0.39,0.25,0.28,0.5,0.25,0.5,0.5,0.78,0.44,0.5,0.39,0.25,0.72,0.44,0.39,0.25,0.33,0.28,0.33,0.39,0.28,0.25,0.5,0.44,0.39,0.44,0.33,0.28,0.5,0.44,0.5,0.25,0.5,0.5,0.33,0.33" style="fill:rgb(23,22,21);font-family:TimesNewRomanPSMT;font-size:10.0px;stroke:none;">origin from birds to humans was first described dur-</text>
   <text y="552.952" x="46.0,48.78,53.78,58.78,61.786,66.226,71.226,74.232,79.232,84.232,87.012,92.012,95.342,99.782,104.222,109.222,112.228,116.668,124.448,129.448,134.448,139.448,142.454,147.454,152.454,157.454,160.234,163.014,166.344,171.344,174.35,177.13,182.13,185.136,192.356,197.356,202.356,207.356,210.362,217.582,222.582,227.582,232.582,235.588,238.368,243.368,246.374,251.374,256.374,261.374,266.374,268.874,271.88,275.21" svgx:width="0.28,0.5,0.5,0.25,0.44,0.5,0.25,0.5,0.5,0.28,0.5,0.33,0.44,0.44,0.5,0.25,0.44,0.78,0.5,0.5,0.5,0.25,0.5,0.5,0.5,0.28,0.28,0.33,0.5,0.25,0.28,0.5,0.25,0.72,0.5,0.5,0.5,0.25,0.72,0.5,0.5,0.5,0.25,0.28,0.5,0.25,0.5,0.5,0.5,0.5,0.25,0.25,0.33,0.5" style="fill:rgb(23,22,21);font-family:TimesNewRomanPSMT;font-size:10.0px;stroke:none;">ing an outbreak among poultry in Hong Kong in 1997. In</text>
   <text y="564.952" x="46.0,48.78,53.78,58.22,61.0,63.5,66.637,71.637,76.637,79.417,84.417,87.747,92.187,96.627,101.627,104.127,106.627,109.764,114.764,117.264,120.401,125.401,128.731,131.231,134.368,139.368,144.368,146.868,150.006,154.446,159.446,164.446,167.776,170.556,173.886,181.666,186.106,191.106,193.606,196.743,201.743,206.743,214.523,218.963,223.963,226.463,229.6,236.82,241.82,249.04,254.04,256.53999999999996,259.677,264.117,268.557,272.447,276.887" svgx:width="0.28,0.5,0.44,0.28,0.25,0.55,0.5,0.5,0.28,0.5,0.33,0.44,0.44,0.5,0.25,0.25,0.55,0.5,0.25,0.55,0.5,0.33,0.25,0.55,0.5,0.5,0.25,0.55,0.44,0.5,0.5,0.33,0.28,0.33,0.78,0.44,0.5,0.25,0.55,0.5,0.5,0.78,0.44,0.5,0.25,0.55,0.72,0.5,0.72,0.5,0.25,0.55,0.44,0.44,0.39,0.44,0.33" style="fill:rgb(23,22,21);font-family:TimesNewRomanPSMT;font-size:10.0px;stroke:none;">that outbreak, 6 of 18 confirmed human H5N1 case-</text>
   <text y="576.952" x="46.0,51.0,55.44,58.22,61.0,65.44,70.44,73.22,77.11,79.61,81.429,86.429,89.209,93.649,98.649,101.149,102.968,106.298,111.298,114.628,117.128,119.628,121.447,125.887,130.887,135.887,138.387,140.206,144.096,148.536,151.866,156.866,159.646,164.646,169.646,172.426,176.866,179.366,181.185,185.625,190.625,193.405,198.405,202.845,207.845,212.285,216.725,219.225,221.044,228.264,232.704,236.594,239.094,240.913,244.243,249.243,254.243,259.243,264.243,266.743,268.562,271.892,276.892" svgx:width="0.5,0.44,0.28,0.28,0.44,0.5,0.28,0.39,0.25,0.55,0.5,0.28,0.44,0.5,0.25,0.55,0.33,0.5,0.33,0.25,0.25,0.55,0.44,0.5,0.5,0.25,0.55,0.39,0.44,0.33,0.5,0.28,0.5,0.5,0.28,0.44,0.25,0.55,0.44,0.5,0.28,0.5,0.44,0.5,0.44,0.44,0.25,0.55,0.72,0.44,0.39,0.25,0.55,0.33,0.5,0.5,0.5,0.5,0.25,0.55,0.33,0.5,0.33" style="fill:rgb(23,22,21);font-family:TimesNewRomanPSMT;font-size:10.0px;stroke:none;">patients died (1), and serologic evidence was found for</text>
   <text y="588.952" x="46.0,50.44,54.33,59.33,67.11,72.11,74.89,79.89,87.67,92.11,94.89,97.67,102.11,104.308,107.088,112.088,115.418,119.858,124.298,127.078,129.858,134.858,139.858,142.056,144.836,149.836,152.034,157.034,162.034,169.814,174.254,179.254,183.144,185.342,189.782,193.112,195.892,200.332,203.662,205.86,210.3,215.3,220.3,225.3,229.19,234.19,237.52,241.96,244.158,246.938,251.938,254.136,256.916,261.916,265.246,269.686,274.126,276.906" svgx:width="0.44,0.39,0.5,0.78,0.5,0.28,0.5,0.78,0.44,0.28,0.28,0.44,0.25,0.28,0.5,0.33,0.44,0.44,0.28,0.28,0.5,0.5,0.25,0.28,0.5,0.25,0.5,0.5,0.78,0.44,0.5,0.39,0.25,0.44,0.33,0.28,0.44,0.33,0.25,0.44,0.5,0.5,0.5,0.39,0.5,0.33,0.44,0.25,0.28,0.5,0.25,0.28,0.5,0.33,0.44,0.44,0.28,0.33" style="fill:rgb(23,22,21);font-family:TimesNewRomanPSMT;font-size:10.0px;stroke:none;">asymptomatic infection in humans after exposure to infect-</text>
   <text y="600.952" x="46.0,50.44,55.44,57.94,59.495,64.495,69.495,74.495,77.275,80.055,83.385,88.385,90.885,92.44,95.77,100.77,104.1,106.6,113.08,118.08,120.86,125.3,130.3,133.63,136.41,141.41,144.74,149.74,154.74,162.52,166.96,171.96,174.46,176.015,178.795,182.125,186.565,191.565,195.455,203.235,206.015,209.905,213.795,216.575,221.575,226.575,229.075,230.63,235.63,238.96,241.46,243.015,245.795,250.795,254.125,256.905,261.905,266.345,271.345,275.785" svgx:width="0.44,0.5,0.25,0.55,0.5,0.5,0.5,0.28,0.28,0.33,0.5,0.25,0.55,0.33,0.5,0.33,0.25,0.72,0.5,0.28,0.44,0.5,0.33,0.28,0.5,0.33,0.5,0.5,0.78,0.44,0.5,0.25,0.55,0.28,0.33,0.44,0.5,0.39,0.78,0.28,0.39,0.39,0.28,0.5,0.5,0.25,0.55,0.5,0.33,0.25,0.55,0.28,0.5,0.33,0.28,0.5,0.44,0.5,0.44,0.44" style="fill:rgb(23,22,21);font-family:TimesNewRomanPSMT;font-size:10.0px;stroke:none;">ed poultry (2).Avian-to-human transmission of influenza</text>
   <text y="612.952" x="46.0,51.0,53.78,57.11,62.11,66.0,70.44,74.33,77.459,80.239,84.129,87.258,92.258,96.698,99.478,102.258,106.698,111.698,116.138,121.138,124.267,127.047,132.047,135.176,140.176,144.616,147.745,150.525,155.525,158.855,162.185,166.625,171.625,176.625,181.065,186.065,188.845,191.974,196.974,201.414,205.854,210.294,215.294,219.184,223.624,226.753,231.753,235.083,238.212,243.212,248.212,252.102,254.882,258.011,263.011,267.451,270.781,274.111,276.891" svgx:width="0.5,0.28,0.33,0.5,0.39,0.44,0.39,0.25,0.28,0.39,0.25,0.5,0.44,0.28,0.28,0.44,0.5,0.44,0.5,0.25,0.28,0.5,0.25,0.5,0.44,0.25,0.28,0.5,0.33,0.33,0.44,0.5,0.5,0.44,0.5,0.28,0.25,0.5,0.44,0.44,0.44,0.5,0.39,0.44,0.25,0.5,0.33,0.25,0.5,0.5,0.39,0.28,0.25,0.5,0.44,0.33,0.33,0.28,0.33" style="fill:rgb(23,22,21);font-family:TimesNewRomanPSMT;font-size:10.0px;stroke:none;">viruses is believed to be infrequent because of host barri-</text>
   <text y="624.952" x="46.0,50.44,53.77,57.66,60.16,62.432,65.212,70.212,72.712,74.984,77.764,82.764,86.094,90.534,94.974,97.754,100.534,105.534,110.534,113.034,115.534,117.806,121.696,126.696,131.136,136.136,138.636,140.908,145.348,149.238,151.738,154.01,158.45,162.89,165.67,168.45,170.95,173.222,176.552,180.992,185.432,189.872,194.872,197.652,202.652,205.982,208.482,210.754,214.644,219.644,224.084,228.524,231.304,234.634,237.414,241.854,244.634,247.414,250.194,254.634,258.524,261.024,263.524,265.796,270.236,275.236" svgx:width="0.44,0.33,0.39,0.25,0.55,0.28,0.5,0.25,0.55,0.28,0.5,0.33,0.44,0.44,0.28,0.28,0.5,0.5,0.25,0.25,0.55,0.39,0.5,0.44,0.5,0.25,0.55,0.44,0.39,0.25,0.55,0.44,0.44,0.28,0.28,0.25,0.55,0.33,0.44,0.44,0.44,0.5,0.28,0.5,0.33,0.25,0.55,0.39,0.5,0.44,0.44,0.28,0.33,0.28,0.44,0.28,0.28,0.28,0.44,0.39,0.25,0.25,0.55,0.44,0.5,0.5" style="fill:rgb(23,22,21);font-family:TimesNewRomanPSMT;font-size:10.0px;stroke:none;">ers to infection, such as cell receptor specificities, and</text>
   <text y="636.952" x="46.0,51.0,55.44,59.88,64.32,69.32,73.21,77.65,80.84,83.62,88.62,93.06,96.25,100.69,105.13,110.13,115.13,117.91,121.8,124.58,127.36,130.14,135.14,140.14,143.33,148.33,153.33,156.52,160.96,165.96,168.74,173.18,178.18,181.37,186.37,189.15,192.48,197.48,201.37,205.81,209.7,212.89,217.89,221.22,224.41,227.19,232.19,236.63,239.82,244.26,249.26,252.04,254.82,257.6,260.38,265.38,268.57,271.9,276.9" svgx:width="0.5,0.44,0.44,0.44,0.5,0.39,0.44,0.25,0.28,0.5,0.44,0.25,0.44,0.44,0.5,0.5,0.28,0.39,0.28,0.28,0.28,0.5,0.5,0.25,0.5,0.5,0.25,0.44,0.5,0.28,0.44,0.5,0.25,0.5,0.28,0.33,0.5,0.39,0.44,0.39,0.25,0.5,0.33,0.25,0.28,0.5,0.44,0.25,0.44,0.5,0.28,0.28,0.28,0.28,0.5,0.25,0.33,0.5,0.33" style="fill:rgb(23,22,21);font-family:TimesNewRomanPSMT;font-size:10.0px;stroke:none;">because the acquisition by avian viruses of the ability for</text>
   <text y="648.952" x="46.0,51.0,56.0,63.78,68.22,73.22,76.55,79.33,84.33,87.66,92.66,97.66,105.44,109.88,114.88,117.18,119.96,123.29,127.73,132.73,136.62,144.4,147.18,151.07,154.96,157.74,162.74,167.74,170.04,173.37,177.81,182.81,187.81,190.59,193.92,198.36,202.25,204.55,208.99,211.77,214.55,219.55,223.99,227.32,229.62,234.62,239.06,244.06,248.5,251.28,254.06,258.5,260.8,264.13,268.57,273.01,276.9" svgx:width="0.5,0.5,0.78,0.44,0.5,0.33,0.28,0.5,0.33,0.5,0.5,0.78,0.44,0.5,0.25,0.28,0.33,0.44,0.5,0.39,0.78,0.28,0.39,0.39,0.28,0.5,0.5,0.25,0.33,0.44,0.5,0.5,0.28,0.33,0.44,0.39,0.25,0.44,0.28,0.28,0.5,0.44,0.33,0.25,0.5,0.44,0.5,0.44,0.28,0.28,0.44,0.25,0.33,0.44,0.44,0.39,0.33" style="fill:rgb(23,22,21);font-family:TimesNewRomanPSMT;font-size:10.0px;stroke:none;">human-to-human transmission requires either genetic reas-</text>
   <text y="660.952" x="46.0,49.89,54.89,58.22,61.0,68.78,73.22,78.22,81.0,83.2,90.42,93.2,95.98,100.98,103.18,107.62,109.82,114.82,119.82,127.6,132.04,137.04,139.24,142.02,147.02,150.35,153.13,158.13,162.57,167.57,172.01,176.45,178.65,182.54,185.32,188.65,193.09,195.87,200.87,203.07,208.07,211.4,213.6,218.6,223.04,228.04,232.48,235.26,238.04,242.48,244.68,252.46,257.46,260.24,264.68,267.46,270.24,275.24" svgx:width="0.39,0.5,0.33,0.28,0.78,0.44,0.5,0.28,0.25,0.72,0.28,0.28,0.5,0.25,0.44,0.25,0.5,0.5,0.78,0.44,0.5,0.25,0.28,0.5,0.33,0.28,0.5,0.44,0.5,0.44,0.44,0.25,0.39,0.28,0.33,0.44,0.28,0.5,0.25,0.5,0.33,0.25,0.5,0.44,0.5,0.44,0.28,0.28,0.44,0.25,0.78,0.5,0.28,0.44,0.28,0.28,0.5,0.5" style="fill:rgb(23,22,21);font-family:TimesNewRomanPSMT;font-size:10.0px;stroke:none;">sortment with a human influenza strain or genetic mutation</text>
   <text y="672.952" x="46.0,49.33,54.33,57.66,60.16,63.147,70.367,75.367,82.587,87.027,92.027,96.467,99.397,101.897,104.884,109.324,112.311,116.201,118.981,123.981,128.981,133.981,136.969,141.969,145.299,148.286,153.286,158.286,163.286,167.176,171.616,176.616,181.616,184.396,189.396,192.383,196.823,201.823,206.823,209.81,213.7,218.7,223.14,225.92,230.36,233.14,236.127,240.567,245.567,250.567,253.347,257.787,262.227,265.007,268.897,271.884,276.884" svgx:width="0.33,0.5,0.33,0.25,0.25,0.72,0.5,0.72,0.44,0.5,0.44,0.33,0.25,0.25,0.44,0.25,0.39,0.28,0.5,0.5,0.5,0.25,0.5,0.33,0.25,0.5,0.5,0.5,0.39,0.44,0.5,0.5,0.28,0.5,0.25,0.44,0.5,0.5,0.25,0.39,0.5,0.44,0.28,0.44,0.28,0.25,0.44,0.5,0.5,0.28,0.44,0.44,0.28,0.39,0.25,0.5,0.33" style="fill:rgb(23,22,21);font-family:TimesNewRomanPSMT;font-size:10.0px;stroke:none;">(3). However, a study of household and social contacts of</text>
   <text y="304.934" x="292.2,299.42,304.42,309.42,314.42,317.306,324.526,329.526,334.526,339.526,342.412,349.632,354.632,361.852,366.852,369.738,374.178,378.618,382.508,386.948,390.278,395.278,399.718,402.498,405.278,409.718,414.718,417.498,421.388,424.274,427.604,432.604,437.604,442.604,447.604,450.49,454.93,459.93,462.71,467.71,472.15,477.15,481.59,486.03,488.53,491.416,495.856,498.636,501.416,506.416,511.416,516.416,521.416" svgx:width="0.72,0.5,0.5,0.5,0.25,0.72,0.5,0.5,0.5,0.25,0.72,0.5,0.72,0.5,0.25,0.44,0.44,0.39,0.44,0.33,0.5,0.44,0.28,0.28,0.44,0.5,0.28,0.39,0.25,0.33,0.5,0.5,0.5,0.5,0.25,0.44,0.5,0.28,0.5,0.44,0.5,0.44,0.44,0.25,0.25,0.44,0.28,0.28,0.5,0.5,0.5,0.5,0.5" style="fill:rgb(23,22,21);font-family:TimesNewRomanPSMT;font-size:10.0px;stroke:none;">Hong Kong H5N1 case-patients found evidence, although</text>
   <text y="316.934" x="292.2,294.98,297.76,305.54,308.32,311.1,315.54,320.54,323.04,325.229,328.559,333.559,336.889,339.078,344.078,349.078,356.858,361.298,366.298,369.628,372.408,377.408,380.738,385.738,390.738,398.518,402.958,407.958,410.147,412.927,416.257,420.697,425.697,429.587,437.367,440.147,444.037,447.927,450.707,455.707,460.707,462.896,466.226,471.226,474.556,477.056,479.245,484.805,489.805,493.135,495.915,500.915,505.355,508.685,510.874,515.314,520.314,523.094" svgx:width="0.28,0.28,0.78,0.28,0.28,0.44,0.5,0.25,0.25,0.33,0.5,0.33,0.25,0.5,0.5,0.78,0.44,0.5,0.33,0.28,0.5,0.33,0.5,0.5,0.78,0.44,0.5,0.25,0.28,0.33,0.44,0.5,0.39,0.78,0.28,0.39,0.39,0.28,0.5,0.5,0.25,0.33,0.5,0.33,0.25,0.25,0.56,0.5,0.33,0.28,0.5,0.44,0.33,0.25,0.44,0.5,0.28,0.33" style="fill:rgb(23,22,21);font-family:TimesNewRomanPSMT;font-size:10.0px;stroke:none;">limited, for human-to-human transmission (4). Further evi-</text>
   <text y="328.934" x="292.2,297.2,301.64,306.64,311.08,315.52,318.02,320.777,327.997,332.437,336.327,338.827,341.584,346.584,349.914,354.914,359.914,362.694,367.694,372.134,377.134,379.634,382.391,387.391,392.391,394.891,397.648,402.088,404.588,407.345,411.235,414.015,419.015,424.015,429.015,431.515,434.272,439.272,442.602,445.102,447.859,452.859,457.299,461.739,464.519,467.299,472.299,476.739,481.179,484.509,488.949,491.449,494.206,501.426,506.426,509.756,514.756,519.196,522.526" svgx:width="0.5,0.44,0.5,0.44,0.44,0.25,0.55,0.72,0.44,0.39,0.25,0.55,0.5,0.33,0.5,0.5,0.28,0.5,0.44,0.5,0.25,0.55,0.5,0.5,0.25,0.55,0.44,0.25,0.55,0.39,0.28,0.5,0.5,0.5,0.25,0.55,0.5,0.33,0.25,0.55,0.5,0.44,0.44,0.28,0.28,0.5,0.44,0.44,0.33,0.44,0.25,0.55,0.72,0.5,0.33,0.5,0.44,0.33,0.39" style="fill:rgb(23,22,21);font-family:TimesNewRomanPSMT;font-size:10.0px;stroke:none;">dence was provided by a study of healthcare workers</text>
   <text y="340.934" x="292.2,295.53,302.75,309.42,318.86,322.75,326.08,328.58,331.08,334.796,342.016,347.016,349.796,354.236,359.236,361.736,365.452,368.782,373.782,378.782,383.782,388.782,391.282,394.998,397.778,402.778,407.218,409.998,412.498,416.214,420.104,422.884,427.884,432.884,435.664,438.994,441.774,446.214,450.654,455.654,458.434,461.214,466.214,468.714,472.43,480.21,485.21,488.54,492.98,495.48,499.196,506.416,513.086,522.526" svgx:width="0.33,0.72,0.67,0.94,0.39,0.33,0.25,0.25,0.55,0.72,0.5,0.28,0.44,0.5,0.25,0.55,0.33,0.5,0.5,0.5,0.5,0.25,0.55,0.28,0.5,0.44,0.28,0.25,0.55,0.39,0.28,0.5,0.5,0.28,0.33,0.28,0.44,0.44,0.5,0.28,0.28,0.5,0.25,0.55,0.78,0.5,0.33,0.44,0.25,0.55,0.72,0.67,0.94,0.39" style="fill:rgb(23,22,21);font-family:TimesNewRomanPSMT;font-size:10.0px;stroke:none;">(HCWs), which found that significantly more HCWs</text>
   <text y="352.934" x="292.2,296.64,301.64,306.64,311.64,315.53,319.97,324.97,327.724,330.504,335.504,338.258,343.258,347.698,350.478,353.258,357.698,362.698,365.478,369.368,372.122,379.342,382.122,384.902,389.902,392.656,399.876,404.876,412.096,417.096,419.851,422.631,427.631,430.961,435.401,439.841,442.621,445.401,450.401,455.401,458.155,465.375,469.815,473.145,477.585,480.339,485.339,490.339,494.229,497.009,499.789,502.569,507.569,512.009,514.763,518.093,523.093" svgx:width="0.44,0.5,0.5,0.5,0.39,0.44,0.5,0.25,0.28,0.5,0.25,0.5,0.44,0.28,0.28,0.44,0.5,0.28,0.39,0.25,0.72,0.28,0.28,0.5,0.25,0.72,0.5,0.72,0.5,0.25,0.28,0.5,0.33,0.44,0.44,0.28,0.28,0.5,0.5,0.25,0.72,0.44,0.33,0.44,0.25,0.5,0.5,0.39,0.28,0.28,0.28,0.5,0.44,0.25,0.33,0.5,0.33" style="fill:rgb(23,22,21);font-family:TimesNewRomanPSMT;font-size:10.0px;stroke:none;">exposed to patients with H5N1 infection were positive for</text>
   <text y="364.934" x="292.2,299.42,304.42,306.92,307.831,312.271,317.271,320.051,322.831,327.831,332.831,337.831,342.831,345.331,346.242,349.022,354.022,358.462,363.462,365.962,366.873,371.873,376.873,381.873,386.313,391.313,396.313,401.313,405.203,409.643,414.643,417.143,418.054,425.274,431.944,441.384,445.274,447.774,448.685,452.015,457.015,459.515,464.515,472.845,475.345,476.255,481.255,485.145,487.645,490.145,491.056,496.056,498.556,503.556,511.886,515.216,517.996,520.496,521.407" svgx:width="0.72,0.5,0.25,0.55,0.44,0.5,0.28,0.28,0.5,0.5,0.5,0.5,0.25,0.55,0.28,0.5,0.44,0.5,0.25,0.55,0.5,0.5,0.5,0.44,0.5,0.5,0.5,0.39,0.44,0.5,0.25,0.55,0.72,0.67,0.94,0.39,0.25,0.55,0.33,0.5,0.25,0.5,0.83,0.25,0.55,0.5,0.39,0.25,0.25,0.55,0.5,0.25,0.5,0.83,0.33,0.28,0.25,0.55,0.5" style="fill:rgb(23,22,21);font-family:TimesNewRomanPSMT;font-size:10.0px;stroke:none;">H5 antibody than nonexposed HCWs (3.7% vs. 0.7%); 2</text>
   <text y="376.934" x="292.2,299.42,306.09,315.53,319.42,321.92,325.165,329.055,333.495,336.825,341.825,346.265,351.265,356.265,361.265,365.705,369.035,371.815,376.255,381.255,383.755,387.0,391.44,394.77,397.55,401.99,405.32,407.82,411.065,415.505,420.505,425.505,430.505,434.395,439.395,442.725,447.165,449.665,452.91,455.69,460.69,463.19,466.435,473.655,478.655,485.875,490.875,494.205,496.985,501.985,505.315,509.755,514.195,516.975,521.415" svgx:width="0.72,0.67,0.94,0.39,0.25,0.55,0.39,0.44,0.33,0.5,0.44,0.5,0.5,0.5,0.44,0.33,0.28,0.44,0.5,0.25,0.55,0.44,0.33,0.28,0.44,0.33,0.25,0.55,0.44,0.5,0.5,0.5,0.39,0.5,0.33,0.44,0.25,0.55,0.28,0.5,0.25,0.55,0.72,0.5,0.72,0.5,0.33,0.28,0.5,0.33,0.44,0.44,0.28,0.44,0.5" style="fill:rgb(23,22,21);font-family:TimesNewRomanPSMT;font-size:10.0px;stroke:none;">HCWs seroconverted after exposure to H5N1-infected</text>
   <text y="388.934" x="292.2,297.2,301.64,304.42,307.2,311.64,316.64,319.42,323.31,325.81,328.31,330.092,332.872,337.872,340.372,342.154,344.934,349.934,354.374,356.874,358.656,363.096,368.096,371.986,376.426,381.426,385.866,390.306,392.806,394.589,399.589,402.919,405.419,407.201,412.201,417.201,422.201,429.421,434.421,436.921,438.703,443.703,448.703,453.703,456.483,459.263,462.593,467.593,470.093,471.875,476.315,481.315,486.315,491.315,495.205,500.205,503.535,507.975,510.475,512.257,515.587,520.587,523.917" svgx:width="0.5,0.44,0.28,0.28,0.44,0.5,0.28,0.39,0.25,0.25,0.55,0.28,0.5,0.25,0.55,0.28,0.5,0.44,0.25,0.55,0.44,0.5,0.39,0.44,0.5,0.44,0.44,0.25,0.55,0.5,0.33,0.25,0.55,0.5,0.5,0.5,0.72,0.5,0.25,0.55,0.5,0.5,0.5,0.28,0.28,0.33,0.5,0.25,0.55,0.44,0.5,0.5,0.5,0.39,0.5,0.33,0.44,0.25,0.55,0.33,0.5,0.33,0.25" style="fill:rgb(23,22,21);font-family:TimesNewRomanPSMT;font-size:10.0px;stroke:none;">patients, in the absence of known poultry exposure (5).</text>
   <text y="400.934" x="292.2,298.31,303.31,307.75,311.64,316.08,319.078,324.078,327.076,330.966,333.746,338.746,343.746,346.526,350.966,354.856,357.854,362.854,366.184,371.184,376.184,378.964,383.964,388.404,393.404,396.402,399.182,404.182,408.622,411.62,414.95,417.73,421.06,424.95,427.73,430.728,435.168,440.168,442.948,447.948,452.388,457.388,461.828,466.268,468.768,471.766,476.206,478.986,481.766,486.766,491.766,496.766,501.766,506.766,509.764,512.544,515.324,523.104" svgx:width="0.61,0.5,0.44,0.39,0.44,0.25,0.5,0.25,0.39,0.28,0.5,0.5,0.28,0.44,0.39,0.25,0.5,0.33,0.5,0.5,0.28,0.5,0.44,0.5,0.25,0.28,0.5,0.44,0.25,0.33,0.28,0.33,0.39,0.28,0.25,0.44,0.5,0.28,0.5,0.44,0.5,0.44,0.44,0.25,0.25,0.44,0.28,0.28,0.5,0.5,0.5,0.5,0.5,0.25,0.28,0.28,0.78,0.33" style="fill:rgb(23,22,21);font-family:TimesNewRomanPSMT;font-size:10.0px;stroke:none;">These 2 studies provided the first evidence, although lim-</text>
   <text y="412.934" x="292.2,294.98,297.76,302.2,307.2,309.7,312.487,317.487,320.817,323.604,328.604,333.604,341.384,345.824,350.824,354.154,356.934,361.934,365.264,370.264,375.264,383.044,387.484,392.484,395.271,398.051,401.381,405.821,410.821,414.711,422.491,425.271,429.161,433.051,435.831,440.831,445.831,448.618,453.618,456.948,459.735,466.955,471.955,479.175,484.175,486.962,491.962,494.742,498.072,503.072,506.962,511.402,515.292,518.079,523.079" svgx:width="0.28,0.28,0.44,0.5,0.25,0.25,0.5,0.33,0.25,0.5,0.5,0.78,0.44,0.5,0.33,0.28,0.5,0.33,0.5,0.5,0.78,0.44,0.5,0.25,0.28,0.33,0.44,0.5,0.39,0.78,0.28,0.39,0.39,0.28,0.5,0.5,0.25,0.5,0.33,0.25,0.72,0.5,0.72,0.5,0.25,0.5,0.28,0.33,0.5,0.39,0.44,0.39,0.25,0.5,0.33" style="fill:rgb(23,22,21);font-family:TimesNewRomanPSMT;font-size:10.0px;stroke:none;">ited, of human-to-human transmission of H5N1 viruses of</text>
   <text y="424.934" x="292.2,297.2,302.2,305.53,309.97,312.75,317.75,320.5,324.94,329.94,332.72,337.16,342.16,344.91,349.91,353.24,356.02,361.02,363.8,368.8" svgx:width="0.5,0.5,0.33,0.44,0.28,0.5,0.25,0.44,0.5,0.28,0.44,0.5,0.25,0.5,0.33,0.28,0.5,0.28,0.5,0.25" style="fill:rgb(23,22,21);font-family:TimesNewRomanPSMT;font-size:10.0px;stroke:none;">purely avian origin.</text>
   <text y="436.934" x="304.944,312.164,317.164,319.368,326.588,331.028,335.468,339.908,347.688,352.688,357.128,360.458,362.662,367.662,372.662,375.162,377.366,382.366,387.366,392.366,397.366,399.866,402.07,404.85,409.85,413.18,415.96,420.96,425.4,430.4,434.84,439.28,440.934,449.804,457.024,462.024,469.244,474.244,476.448,481.448,484.228,487.558,492.558,496.448,500.888,504.778,506.982,514.202,518.642,521.972" svgx:width="0.72,0.5,0.25,0.72,0.44,0.44,0.44,0.78,0.5,0.44,0.33,0.25,0.5,0.5,0.25,0.25,0.5,0.5,0.5,0.5,0.25,0.25,0.28,0.5,0.33,0.28,0.5,0.44,0.5,0.44,0.44,0.25,0.72,0.72,0.5,0.72,0.5,0.25,0.5,0.28,0.33,0.5,0.39,0.44,0.39,0.25,0.72,0.44,0.33,0.44" style="fill:rgb(23,22,21);font-family:TimesNewRomanPSMT;font-size:10.0px;stroke:none;">On December 12, 2003, influenza AH5N1 viruses were</text>
   <text y="448.934" x="292.2,297.2,301.64,304.42,308.86,313.3,316.08,320.52,325.52,328.125,332.565,340.345,345.345,350.345,355.345,357.95,362.95,367.95,372.95,375.73,378.51,381.84,386.84,389.445,393.885,396.665,399.27,403.71,406.315,409.645,414.085,417.415,425.195,427.8,432.8,437.24,441.68,445.01,447.615,453.175,457.615,462.615,467.615,470.395,472.895,475.5,478.28,483.28,487.72,490.325,496.995,501.435,506.435,511.435,516.435,519.215,521.995" svgx:width="0.5,0.44,0.28,0.44,0.44,0.28,0.44,0.5,0.25,0.44,0.78,0.5,0.5,0.5,0.25,0.5,0.5,0.5,0.28,0.28,0.33,0.5,0.25,0.44,0.28,0.25,0.44,0.25,0.33,0.44,0.33,0.78,0.25,0.5,0.44,0.44,0.33,0.25,0.56,0.44,0.5,0.5,0.28,0.25,0.25,0.28,0.5,0.44,0.25,0.67,0.44,0.5,0.5,0.5,0.28,0.28,0.44" style="fill:rgb(23,22,21);font-family:TimesNewRomanPSMT;font-size:10.0px;stroke:none;">detected among poultry at a farm near Seoul, the Republic</text>
   <text y="460.934" x="292.2,297.2,300.53,303.318,310.538,315.538,318.868,323.308,327.748,330.536,333.866,338.866,342.196,344.696,347.484,351.924,356.924,361.924,364.712,369.712,374.712,377.492,382.492,385.822,390.262,394.702,399.702,403.592,406.38,411.38,414.71,417.497,424.717,429.717,436.937,441.937,444.725,447.505,452.505,455.293,460.293,465.293,470.293,473.073,475.853,479.183,484.183,486.971,494.191,498.631,501.961,506.401,509.189,513.079,518.079,523.079" svgx:width="0.5,0.33,0.25,0.72,0.5,0.33,0.44,0.44,0.25,0.33,0.5,0.33,0.25,0.25,0.44,0.5,0.5,0.25,0.5,0.5,0.28,0.5,0.33,0.44,0.44,0.5,0.39,0.25,0.5,0.33,0.25,0.72,0.5,0.72,0.5,0.25,0.28,0.5,0.25,0.5,0.5,0.5,0.28,0.28,0.33,0.5,0.25,0.72,0.44,0.33,0.44,0.25,0.39,0.5,0.5,0.33" style="fill:rgb(23,22,21);font-family:TimesNewRomanPSMT;font-size:10.0px;stroke:none;">of Korea (6), and outbreaks of H5N1 in poultry were sub-</text>
   <text y="472.934" x="292.2,296.09,300.53,305.53,310.53,314.97,319.97,322.75,325.53,330.53,333.03,336.416,339.746,344.186,349.186,354.186,357.516,360.296,364.736,369.736,372.236,375.622,378.402,383.402,385.902,389.288,394.288,396.788,400.174,405.174,407.954,412.954,417.394,420.724,423.224,426.06,433.28,437.17,439.95,444.39,449.39,451.89,455.275,459.715,464.715,469.715,474.715,477.495,480.825,483.605,488.045,491.935,494.435,497.821,501.151,505.041,509.481,514.481,518.921,523.921" svgx:width="0.39,0.44,0.5,0.5,0.44,0.5,0.28,0.28,0.5,0.25,0.55,0.33,0.44,0.5,0.5,0.33,0.28,0.44,0.5,0.25,0.55,0.28,0.5,0.25,0.55,0.5,0.25,0.55,0.5,0.28,0.5,0.44,0.33,0.25,0.55,0.72,0.39,0.28,0.44,0.5,0.25,0.55,0.44,0.5,0.5,0.5,0.28,0.33,0.28,0.44,0.39,0.25,0.55,0.33,0.39,0.44,0.5,0.44,0.5,0.25" style="fill:rgb(23,22,21);font-family:TimesNewRomanPSMT;font-size:10.0px;stroke:none;">sequently reported in 8 other Asian countries (Japan,</text>
  </g>
  <path style="fill:none;stroke:rgb(23,22,21);stroke-width:0.5;" d="M45.000 45.000 L527.400 45.000 "/>
  <g begin="text">
   <text y="99.18" x="90.918,106.926,122.934,138.533,154.541,163.335,179.343,188.70299999999997,198.879,218.871,234.879,254.871,270.879,279.673,297.937,312.601,320.593,336.601,352.609,361.402,370.738,386.746,396.082,404.074,420.082,436.09,452.098,465.442" svgx:width="0.67,0.67,0.67,0.67,0.33,0.67,0.39,0.55,0.83,0.67,0.83,0.67,0.33,0.78,0.61,0.33,0.67,0.67,0.33,0.39,0.67,0.39,0.33,0.67,0.67,0.67,0.56,0.67" style="fill:rgb(23,22,21);font-family:Arial-Black;font-size:24.0px;stroke:none;">Lack of H5N1 Avian Influenza</text>
   <text y="123.18" x="121.729,138.025,149.089,165.097,181.105,195.769,219.769,227.761,242.425,257.089,265.081,281.089,297.097,305.89,316.546,332.554,341.348,361.34,377.348,392.012,408.02,416.012,426.668,442.676" svgx:width="0.72,0.44,0.67,0.67,0.61,1.0,0.33,0.61,0.61,0.33,0.67,0.67,0.33,0.44,0.67,0.33,0.83,0.67,0.61,0.67,0.33,0.44,0.67,0.33" style="fill:rgb(23,22,21);font-family:Arial-Black;font-size:24.0px;stroke:none;">Transmission to Hospital</text>
   <text y="147.18" x="128.456,145.784,169.784,185.792,193.784,209.384,223.64,239.648,255.656,270.32,278.24,287.12,307.112,323.12,339.128,355.136,363.128,371.048,379.928,395.936,411.944,427.952" svgx:width="0.72,1.0,0.67,0.33,0.67,0.61,0.67,0.67,0.61,0.33,0.55,0.83,0.67,0.67,0.67,0.33,0.33,0.55,0.67,0.67,0.67,0.67" style="fill:rgb(23,22,21);font-family:Arial-Black;font-size:24.0px;stroke:none;">Employees, Hanoi, 2004</text>
   <text y="169.188" x="100.814,108.034,114.144,120.254,125.814,131.374,137.484,140.542,146.652,152.762,158.322,164.432,170.542,173.6,179.71,182.49,188.05,196.94,199.72,203.61,206.668,215.928,222.038,225.928,228.708,234.818,237.876,245.096,250.656,256.216,258.996,262.326,268.436,271.494,279.274,283.164,289.274,294.834,300.944,303.724,308.724,314.284,317.614,320.394,326.504,332.614,335.672,338.452,344.562,347.892,353.452,357.342,363.452,369.012,372.342,375.122,381.232,387.342,392.902,395.682,398.37,405.22,410.78,413.56,419.12,425.23,428.288,431.068,437.178,440.508,443.288,449.398,454.958,461.068,466.068,471.628" svgx:width="0.72,0.61,0.61,0.56,0.56,0.61,0.28,0.61,0.61,0.56,0.61,0.61,0.28,0.61,0.28,0.56,0.89,0.28,0.39,0.28,0.94,0.61,0.39,0.28,0.61,0.28,0.72,0.56,0.56,0.28,0.33,0.61,0.28,0.78,0.39,0.61,0.56,0.61,0.28,0.5,0.56,0.33,0.28,0.61,0.61,0.28,0.28,0.61,0.33,0.56,0.39,0.61,0.56,0.33,0.28,0.61,0.61,0.56,0.28,0.28,0.72,0.56,0.28,0.56,0.61,0.28,0.28,0.61,0.33,0.28,0.61,0.56,0.61,0.5,0.56,0.28" style="fill:rgb(23,22,21);font-family:Arial-BoldMT;font-size:10.0px;stroke:none;">Nguyen Thanh Liem,* World Health Organization International Avian Influenza </text>
   <text y="181.188" x="175.849,178.629,184.739,190.299,195.859,201.419,204.749,207.529,213.639,219.199,222.529,225.309,231.419,237.529,240.587,245.957,251.517,257.077,265.967,268.747,271.805,278.295,281.075,286.635,289.965,296.075,301.635,310.525" svgx:width="0.28,0.61,0.56,0.56,0.56,0.33,0.28,0.61,0.56,0.33,0.28,0.61,0.61,0.28,0.61,0.56,0.56,0.89,0.28,0.28,0.67,0.28,0.56,0.33,0.61,0.56,0.89,0.28" style="fill:rgb(23,22,21);font-family:Arial-BoldMT;font-size:10.0px;stroke:none;">Investigation Team, Vietnam,</text>
   <text y="178.688" x="313.294" svgx:width="0.56" style="fill:rgb(23,22,21);font-family:Arial-BoldMT;font-size:6.5px;stroke:none;">1</text>
   <text y="181.188" x="319.965,325.525,331.635,337.745,340.803,350.153,352.933,355.713,358.493,364.603,370.163,373.221,379.331,382.111,391.001" svgx:width="0.56,0.61,0.61,0.28,0.94,0.28,0.28,0.28,0.61,0.56,0.28,0.61,0.28,0.89,0.56" style="fill:rgb(23,22,21);font-family:Arial-BoldMT;font-size:10.0px;stroke:none;">and Wilina Lim†</text>
  </g>
  <g begin="text">
   <text y="55.552" x="46.0,52.498,58.501,64.504,70.507,76.51,83.008,89.506" svgx:width="0.72,0.67,0.67,0.67,0.67,0.72,0.72,0.72" style="fill:rgb(23,22,21);font-family:ArialMT;font-size:9.0px;stroke:none;">RESEARCH</text>
  </g>
  <g begin="text">
   <text y="740.324" x="46.0,50.448,54.896,59.376000000000005,143.616,148.952,155.616,160.064,162.728,167.176,168.952,173.4,177.848,180.294,182.518,186.966,189.19,193.638,197.638,199.862,201.638,206.086,210.534,214.534,216.981,222.757,224.533,228.533,232.981,237.429,241.429,245.877,249.877,252.323,255.123,257.57,263.346,269.122,274.458,276.682,280.682,285.13,289.13,291.354,295.802,300.25,304.25,306.474,310.922,312.698,317.146,319.592,322.392,324.838,329.734,334.182,335.958,338.182,340.629,344.485,348.933,351.157,353.603,359.379,363.827,366.051,368.498,372.946,375.17,377.616,382.504,386.952,391.4,394.064,398.512,402.96,405.624,409.624,412.07,416.518,420.966,425.414" svgx:width="0.56,0.56,0.56,0.55,0.67,0.83,0.56,0.33,0.56,0.22,0.56,0.56,0.28,0.28,0.56,0.28,0.56,0.5,0.28,0.22,0.56,0.56,0.5,0.28,0.72,0.22,0.5,0.56,0.56,0.5,0.56,0.5,0.28,0.35,0.28,0.72,0.72,0.72,0.28,0.5,0.56,0.5,0.28,0.56,0.56,0.5,0.28,0.56,0.22,0.56,0.28,0.35,0.28,0.67,0.56,0.22,0.28,0.28,0.56,0.56,0.28,0.28,0.72,0.56,0.28,0.28,0.56,0.28,0.28,0.61,0.56,0.56,0.33,0.56,0.56,0.33,0.5,0.28,0.56,0.56,0.56,0.56" style="fill:rgb(23,22,21);font-family:ArialMT;font-size:8.0px;stroke:none;">210 Emerging Infectious Diseases • www.cdc.gov/eid • Vol. 11, No. 2, February 2005</text>
  </g>
  <path style="fill:none;stroke:rgb(23,22,21);stroke-width:0.5;" d="M293.200 494.010 L526.400 494.010 "/>
  <g begin="text">
   <text y="503.076" x="293.2" svgx:width="0.56" style="fill:rgb(23,22,21);font-family:ArialMT;font-size:5.2px;stroke:none;">1</text>
   <text y="505.076" x="296.092,303.5,307.948,310.612,312.388,316.836,319.076,320.216,325.992,330.44,334.888,336.664,338.888,343.336,345.576,346.716,352.94,355.604,360.052,364.5,368.948,370.724,374.724,379.172,381.396,383.172,387.62,392.068,394.308,395.448,398.112,405.664,411.44,417.664,420.328,422.568,423.708,425.932,430.38,432.604,437.052,439.716,444.164,448.612,450.836,452.612,457.06,461.508,465.956,467.732,469.97200000000004,470.672,475.864,479.864,481.64,486.088,490.536,492.776,493.916,496.14,500.588,502.812,504.588,509.036,513.484,517.932,521.932" svgx:width="0.94,0.56,0.33,0.22,0.56,0.28,0.55,0.72,0.56,0.56,0.22,0.28,0.56,0.28,0.55,0.78,0.33,0.56,0.56,0.56,0.22,0.5,0.56,0.28,0.22,0.56,0.56,0.28,0.55,0.33,0.94,0.72,0.78,0.33,0.28,0.55,0.28,0.56,0.28,0.56,0.33,0.56,0.56,0.28,0.22,0.56,0.56,0.56,0.22,0.28,0.55,0.67,0.5,0.22,0.56,0.56,0.28,0.55,0.28,0.56,0.28,0.22,0.56,0.56,0.56,0.5,0.56" style="fill:rgb(23,22,21);font-family:ArialMT;font-size:8.0px;stroke:none;">World Health Organization (WHO) International Avian Influenza</text>
   <text y="515.076" x="293.2,295.424,299.872,303.872,308.32,312.32,314.544,316.32,320.768,325.216,327.44,329.216,333.664,338.112,340.35200000000003,343.374,347.374,351.822,356.27,362.934,365.158,367.398,370.563,375.755,377.531,381.979,384.203,388.651,393.099,399.763,401.987,404.22700000000003,407.393,412.729,417.177,421.177,425.625,427.865,431.031,436.807,441.255,445.255,447.495,450.22,455.556,460.004,464.452,466.692,469.858,472.522,478.298,482.746,487.194,491.642,493.418,495.658,498.824,505.488,509.936,514.384,516.16,520.16,524.608" svgx:width="0.28,0.56,0.5,0.56,0.5,0.28,0.22,0.56,0.56,0.28,0.22,0.56,0.56,0.28,0.55,0.61,0.56,0.56,0.83,0.28,0.28,0.55,0.67,0.22,0.56,0.28,0.56,0.56,0.83,0.28,0.28,0.55,0.67,0.56,0.5,0.56,0.28,0.55,0.72,0.56,0.5,0.28,0.55,0.67,0.56,0.56,0.28,0.55,0.33,0.72,0.56,0.56,0.56,0.22,0.28,0.55,0.83,0.56,0.56,0.22,0.5,0.56,0.22" style="fill:rgb(23,22,21);font-family:ArialMT;font-size:8.0px;stroke:none;">Investigation Team, Vietnam: Bach Huy Anh (Hanoi Medical</text>
   <text y="525.076" x="293.2,298.976,303.424,305.2,309.2,313.648,316.312,320.312,322.088,324.312,328.312,330.976,333.2,335.66,340.996,345.444,347.22,348.996,350.772,355.22,359.668,364.116,366.576,371.912,376.36,379.024,383.472,387.92,391.92,396.368,398.828,401.492,403.716,408.164,412.164,414.388,416.164,418.388,422.836,425.06,427.52,431.968,436.416,438.876,443.772,448.22,449.996,451.772,453.548,457.996,460.456,465.792,470.24,474.688,476.464,478.576,483.024,484.8,487.464,491.912,494.136,496.596,501.484,504.148,508.596,513.044,517.044,521.492,524.156" svgx:width="0.72,0.56,0.22,0.5,0.56,0.33,0.5,0.22,0.28,0.5,0.33,0.28,0.28,0.67,0.56,0.22,0.22,0.22,0.56,0.56,0.56,0.28,0.67,0.56,0.33,0.56,0.56,0.5,0.56,0.28,0.33,0.28,0.56,0.5,0.28,0.22,0.28,0.56,0.28,0.28,0.56,0.56,0.28,0.67,0.56,0.22,0.22,0.22,0.56,0.28,0.67,0.56,0.56,0.22,0.28,0.56,0.22,0.33,0.56,0.28,0.28,0.61,0.33,0.56,0.56,0.5,0.56,0.33,0.28" style="fill:rgb(23,22,21);font-family:ArialMT;font-size:8.0px;stroke:none;">University), Philippe Barboza (Institut de Veille Sanitaire, France),</text>
   <text y="535.076" x="293.2,298.976,300.752,303.416,307.864,312.312,314.088,318.536,322.984,325.733,331.069,335.517,339.965,342.189,344.938,347.602,353.378,357.826,362.274,364.498,368.946,371.61,375.61,378.358,380.582,385.03,387.694,390.443,396.219,397.995,401.995,406.443,410.891,414.891,419.339,422.088,427.864,432.312,436.76,438.984,441.648,446.096,447.872,450.621,455.069,459.517,463.965,466.714,472.05,474.714,479.162,483.162,487.61,492.058,494.282,496.058,500.506,504.954,507.178,509.926,515.702,521.038" svgx:width="0.72,0.22,0.33,0.56,0.56,0.22,0.56,0.56,0.28,0.67,0.56,0.56,0.28,0.28,0.33,0.72,0.56,0.56,0.28,0.56,0.33,0.5,0.28,0.28,0.56,0.33,0.28,0.72,0.22,0.5,0.56,0.56,0.5,0.56,0.28,0.72,0.56,0.56,0.28,0.33,0.56,0.22,0.28,0.56,0.56,0.56,0.28,0.67,0.33,0.56,0.5,0.56,0.56,0.28,0.22,0.56,0.56,0.28,0.28,0.72,0.67,0.67" style="fill:rgb(23,22,21);font-family:ArialMT;font-size:8.0px;stroke:none;">Niranjan Bhat (Centers for Disease Control and Prevention, USA</text>
   <text y="545.076" x="293.2,295.424,301.2,306.976,312.752,314.976,317.64,319.864,321.397,326.733,329.397,333.845,338.293,340.069,344.517,346.49,351.826,356.274,360.274,366.938,371.386,375.834,377.806,380.47,385.806,391.142,393.366,398.702,402.702,404.926,406.899,412.675,417.123,419.347,421.123,425.571,430.019,434.467,436.243,438.216,440.44,444.888,448.888,451.112,452.888,455.112,459.56,461.784,466.232,468.205,470.429,474.877,477.541,479.514,484.85,489.298,493.746,495.522,497.298,501.298,503.27,509.046,513.494,517.942,519.718,521.942" svgx:width="0.28,0.72,0.72,0.72,0.28,0.33,0.28,0.28,0.67,0.33,0.56,0.56,0.22,0.56,0.28,0.67,0.56,0.5,0.83,0.56,0.56,0.28,0.33,0.67,0.67,0.28,0.67,0.61,0.28,0.28,0.72,0.56,0.28,0.22,0.56,0.56,0.56,0.22,0.28,0.28,0.56,0.5,0.28,0.22,0.28,0.56,0.28,0.56,0.28,0.28,0.56,0.33,0.28,0.67,0.56,0.56,0.22,0.22,0.5,0.28,0.72,0.56,0.56,0.22,0.28,0.56" style="fill:rgb(23,22,21);font-family:ArialMT;font-size:8.0px;stroke:none;">[CDC]), Arnold Bosman (EPIET, National Institute for Public Health</text>
   <text y="555.076" x="293.2,297.826,302.451,307.077,309.317,319.405,321.806,326.432,331.058,333.298,343.386,348.899,353.525,357.703,359.656,362.498,367.123,371.749,378.591,383.216,387.842,390.243,392.645,394.885,404.973,410.927,415.552,417.954,422.579,427.205,430.047,432.0,436.626,441.252,445.877,450.055,452.896,455.298,457.538,467.626,473.14,477.765,480.167,482.12,486.746,488.986,499.074,504.588,509.213,513.839,518.016,519.97,524.148" svgx:width="0.56,0.56,0.56,0.28,0.55,0.28,0.56,0.56,0.28,0.55,0.67,0.56,0.5,0.22,0.33,0.56,0.56,0.83,0.56,0.56,0.28,0.28,0.28,0.55,0.72,0.56,0.28,0.56,0.56,0.33,0.22,0.56,0.56,0.56,0.5,0.33,0.28,0.28,0.55,0.67,0.56,0.28,0.22,0.56,0.28,0.55,0.67,0.56,0.56,0.5,0.22,0.5,0.28" style="fill:rgb(23,22,21);font-family:ArialMT;font-size:8.0px;stroke:none;">and the Environment, Netherlands), Sofia Boqvist</text>
   <text y="565.076" x="293.2,295.864,301.2,307.864,309.64,311.864,313.976,317.976,321.976,325.976,330.424,334.872,338.872,340.648,345.096,349.096,351.32,353.096,355.32,359.768,361.992,366.44,368.664,370.888,373.624,378.96,384.736,389.184,393.632,398.08,402.528,405.192,407.416,410.152,415.928,417.704,421.704,425.704,428.44,433.776,436.44,440.888,446.664,451.112,453.848,456.512,461.848,465.848,467.624,472.072,476.52,479.256,485.032,489.48,493.48,497.928,499.704,504.152,508.6,515.264,519.712,524.16" svgx:width="0.33,0.67,0.83,0.22,0.28,0.28,0.5,0.5,0.5,0.56,0.56,0.5,0.22,0.56,0.5,0.28,0.22,0.28,0.56,0.28,0.56,0.28,0.28,0.28,0.67,0.72,0.56,0.56,0.56,0.56,0.33,0.28,0.28,0.72,0.22,0.5,0.5,0.28,0.67,0.33,0.56,0.72,0.56,0.28,0.33,0.67,0.5,0.22,0.56,0.56,0.28,0.72,0.56,0.5,0.56,0.22,0.56,0.56,0.83,0.56,0.56,0.28" style="fill:rgb(23,22,21);font-family:ArialMT;font-size:8.0px;stroke:none;">(Smittskyddsinstitutet, Sweden), Rick Brown (Asian Development</text>
   <text y="575.076" x="293.2,298.536,302.984,307.432,311.432,314.096,316.32,318.56,320.674,326.01,330.458,334.458,338.458,342.906,344.682,349.13,351.37,353.485,358.821,361.485,365.933,370.381,374.829,379.277,381.517,383.631,386.295,393.847,399.623,405.847,408.511,410.735,412.975,415.09,420.426,424.874,426.65,428.426,430.202,434.65,439.098,443.546,445.786,447.9,453.676,458.124,459.9,464.348,466.124,470.572,472.812,474.926,477.59,485.142,490.918,497.142,499.806,502.03,504.27,506.385,513.049,517.497,520.161,521.937" svgx:width="0.67,0.56,0.56,0.5,0.33,0.28,0.28,0.55,0.67,0.56,0.5,0.5,0.56,0.22,0.56,0.28,0.55,0.67,0.33,0.56,0.56,0.56,0.56,0.28,0.55,0.33,0.94,0.72,0.78,0.33,0.28,0.28,0.55,0.67,0.56,0.22,0.22,0.22,0.56,0.56,0.56,0.28,0.55,0.72,0.56,0.22,0.56,0.22,0.56,0.28,0.55,0.33,0.94,0.72,0.78,0.33,0.28,0.28,0.55,0.83,0.56,0.33,0.22,0.56" style="fill:rgb(23,22,21);font-family:ArialMT;font-size:8.0px;stroke:none;">Bank), Pascale Brudon (WHO), Philippe Calain (WHO), Maria</text>
   <text y="585.076" x="293.2,298.976,303.424,307.872,312.32,316.768,319.008,321.905,324.569,332.121,337.897,344.121,346.785,349.009,351.249,353.706,359.042,363.49,366.154,370.602,375.05,377.29,380.187,385.963,390.411,393.075,397.523,401.523,403.76300000000003,406.659,409.323,415.099,420.875,426.651,429.315,431.539,433.779,436.676,441.42,445.868,447.644,452.092,454.756,456.532,460.98,463.22,466.117,471.893,476.341,478.117,482.565,487.013,491.013,495.461,497.701,500.598,503.262,509.038,513.486,517.934,519.71,521.934" svgx:width="0.72,0.56,0.56,0.56,0.56,0.28,0.55,0.33,0.94,0.72,0.78,0.33,0.28,0.28,0.55,0.67,0.56,0.33,0.56,0.56,0.28,0.55,0.72,0.56,0.33,0.56,0.5,0.28,0.55,0.33,0.72,0.72,0.72,0.33,0.28,0.28,0.55,0.67,0.56,0.22,0.56,0.33,0.22,0.56,0.28,0.55,0.72,0.56,0.22,0.56,0.56,0.5,0.56,0.28,0.55,0.33,0.72,0.56,0.56,0.22,0.28,0.56" style="fill:rgb(23,22,21);font-family:ArialMT;font-size:8.0px;stroke:none;">Cheng (WHO), Aaron Curns (CDC), Valerie Delpech (Health</text>
   <text y="595.076" x="293.2,298.536,301.2,305.648,307.872,312.32,316.32,318.544,320.32,324.768,329.216,331.046,336.382,340.83,345.278,349.726,353.726,357.134,359.358,361.627,367.403,372.739,375.403,377.627,379.897,385.673,390.121,394.569,399.017,401.681,403.905,406.175,411.951,413.727,418.175,420.399,424.399,426.668,429.332,436.884,442.66,448.884,451.548,453.772,456.042,461.818,466.266,470.714,474.714,479.162,483.61,485.88,491.656,496.104,500.552,505.0,507.269,513.045,517.493,521.941" svgx:width="0.67,0.33,0.56,0.28,0.56,0.5,0.28,0.22,0.56,0.56,0.28,0.67,0.56,0.56,0.56,0.5,0.5,0.28,0.28,0.72,0.67,0.33,0.28,0.28,0.72,0.56,0.56,0.56,0.33,0.28,0.28,0.72,0.22,0.56,0.28,0.5,0.28,0.33,0.94,0.72,0.78,0.33,0.28,0.28,0.72,0.56,0.56,0.5,0.56,0.56,0.28,0.72,0.56,0.56,0.56,0.28,0.72,0.56,0.56,0.56" style="fill:rgb(23,22,21);font-family:ArialMT;font-size:8.0px;stroke:none;">Protection Agency, UK), Robert Dietz (WHO), Nguyen Cong Doan</text>
   <text y="605.076" x="293.2,295.864,301.64,307.416,313.192,315.856,318.08,320.32,321.424,327.2,331.648,333.424,335.648,340.096,344.544,346.784,347.888,352.84,354.952,359.4,361.624,366.072,370.072,372.736,374.96,377.2,378.304,384.08,388.528,392.976,397.424,401.872,404.536,406.776,407.88,413.656,418.104,420.768,425.216,429.664,431.904,433.008,435.672,443.224,449.0,455.224,457.888,460.112,462.35200000000003,463.456,470.12,471.896,474.56,479.008,483.456,485.696,486.8,492.576,497.024,499.264,500.368,506.144,510.144,512.384,513.488,517.488,521.936" svgx:width="0.33,0.72,0.72,0.72,0.33,0.28,0.28,0.55,0.72,0.56,0.22,0.28,0.56,0.56,0.28,0.55,0.67,0.28,0.56,0.28,0.56,0.5,0.33,0.28,0.28,0.55,0.72,0.56,0.56,0.56,0.56,0.33,0.28,0.55,0.72,0.56,0.33,0.56,0.56,0.28,0.55,0.33,0.94,0.72,0.78,0.33,0.28,0.28,0.55,0.83,0.22,0.33,0.56,0.56,0.28,0.55,0.72,0.56,0.28,0.55,0.72,0.5,0.28,0.55,0.5,0.56,0.56" style="fill:rgb(23,22,21);font-family:ArialMT;font-size:8.0px;stroke:none;">(CDC), United States), Rodger Doran (WHO), Mirna Du Ry van</text>
   <text y="615.076" x="293.2,298.536,302.984,307.432,311.432,313.656,316.357,322.133,326.581,328.357,330.133,334.581,337.282,339.946,345.282,349.73,352.394,356.842,361.29,365.738,370.186,374.634,377.334,382.67,385.334,389.782,394.23,396.894,401.342,408.006,414.67,419.118,421.819,424.043,428.491,431.155,433.856,436.08,440.528,442.752,447.2,449.864,453.864,458.312,462.76,464.984,466.76,471.208,475.656,478.357,483.693,488.141,489.917,494.365,498.813,505.477,507.253,511.701,513.477,517.925,522.373" svgx:width="0.67,0.56,0.56,0.5,0.28,0.28,0.72,0.56,0.22,0.22,0.56,0.28,0.33,0.67,0.56,0.33,0.56,0.56,0.56,0.56,0.56,0.28,0.67,0.33,0.56,0.56,0.33,0.56,0.83,0.83,0.56,0.28,0.28,0.56,0.33,0.28,0.28,0.56,0.28,0.56,0.33,0.5,0.56,0.56,0.28,0.22,0.56,0.56,0.28,0.67,0.56,0.22,0.56,0.56,0.83,0.22,0.56,0.22,0.56,0.56,0.5" style="fill:rgb(23,22,21);font-family:ArialMT;font-size:8.0px;stroke:none;">Beest Holle (European Programme for Intervention Epidemiology</text>
   <text y="625.076" x="293.2,297.792,300.456,304.904,306.68,311.128,312.904,317.352,321.8,324.024,326.723,332.059,337.395,339.619,344.955,349.843,352.507,354.731,357.43,361.43,365.878,370.326,372.102,374.802,379.69,382.354,386.802,391.25,395.25,399.698,402.362,404.586,406.81,409.509,414.845,419.293,421.069,422.845,424.621,427.32,432.208,436.656,440.656,445.104,449.552,454.0,456.699,459.363,465.139,470.915,476.691,479.355,481.579,483.838,489.174,495.838,499.838,502.538,509.945,514.393,516.169,520.169,521.945" svgx:width="0.61,0.33,0.56,0.22,0.56,0.22,0.56,0.56,0.28,0.28,0.67,0.67,0.28,0.67,0.61,0.33,0.28,0.28,0.5,0.56,0.56,0.22,0.28,0.61,0.33,0.56,0.56,0.5,0.56,0.33,0.28,0.28,0.28,0.67,0.56,0.22,0.22,0.22,0.28,0.61,0.56,0.5,0.56,0.56,0.56,0.28,0.33,0.72,0.72,0.72,0.33,0.28,0.28,0.67,0.83,0.5,0.28,0.94,0.56,0.22,0.5,0.22,0.56" style="fill:rgb(23,22,21);font-family:ArialMT;font-size:8.0px;stroke:none;">Training, EPIET), Joel Francart, Keiji Fukuda (CDC), Amy Wolkin</text>
   <text y="635.076" x="293.2,295.864,301.64,307.416,313.192,315.856,318.08,320.32,322.367,327.703,332.151,334.375,337.039,338.815,342.815,347.263,349.503,351.55,357.774,362.222,366.67,368.894,370.67,375.118,377.782,380.022,382.07,384.734,389.63,394.078,396.302,400.75,403.414,405.19,409.638,414.086,415.862,418.526,422.974,426.974,429.214,431.261,435.261,439.709,444.157,448.157,450.397,452.444,454.668,457.332,461.78,466.228,468.452,470.228,474.676,477.34,481.788,485.788,488.012,490.252,492.299,497.491,499.267,503.715,505.939,510.387,514.835,521.499,524.163" svgx:width="0.33,0.72,0.72,0.72,0.33,0.28,0.28,0.55,0.67,0.56,0.28,0.33,0.22,0.5,0.56,0.28,0.55,0.78,0.56,0.56,0.28,0.22,0.56,0.33,0.28,0.55,0.33,0.67,0.56,0.28,0.56,0.33,0.22,0.56,0.56,0.22,0.33,0.56,0.5,0.28,0.55,0.5,0.56,0.56,0.5,0.28,0.55,0.28,0.33,0.56,0.56,0.28,0.22,0.56,0.33,0.56,0.5,0.28,0.28,0.55,0.67,0.22,0.56,0.28,0.56,0.56,0.83,0.33,0.28" style="fill:rgb(23,22,21);font-family:ArialMT;font-size:8.0px;stroke:none;">(CDC), Patrice Gautier (Vetérinaires sans frontières, Vietnam),</text>
   <text y="645.076" x="293.2,298.088,302.536,304.76,309.208,313.208,317.656,319.432,322.133,327.909,332.357,336.357,340.805,345.253,349.701,352.402,355.066,360.402,364.402,366.178,370.626,375.074,377.774,383.55,387.998,391.998,396.446,398.222,402.67,407.118,413.782,418.23,422.678,424.902,427.603,432.939,437.387,441.835,445.835,448.499,450.723,453.424,458.76,463.208,465.432,469.88,472.544,475.245,481.021,485.469,488.133,492.581,496.581,499.282,501.946,509.498,515.274,521.498,524.162" svgx:width="0.61,0.56,0.28,0.56,0.5,0.56,0.22,0.28,0.72,0.56,0.5,0.56,0.56,0.56,0.28,0.33,0.67,0.5,0.22,0.56,0.56,0.28,0.72,0.56,0.5,0.56,0.22,0.56,0.56,0.83,0.56,0.56,0.28,0.28,0.67,0.56,0.56,0.5,0.33,0.28,0.28,0.67,0.56,0.28,0.56,0.33,0.28,0.72,0.56,0.33,0.56,0.5,0.28,0.33,0.94,0.72,0.78,0.33,0.28" style="fill:rgb(23,22,21);font-family:ArialMT;font-size:8.0px;stroke:none;">Futoshi Hasebe (Asian Development Bank), Peter Horby (WHO),</text>
   <text y="655.076" x="293.2,298.536,302.984,304.76,309.208,313.656,317.656,322.104,326.104,327.88,330.12,333.343,335.567,337.679,342.127,348.791,353.239,355.903,360.351,362.591,365.815,368.479,374.255,378.703,380.927,382.703,387.151,391.599,396.047,397.823,400.063,403.286,405.51,409.958,413.958,416.182,417.958,420.182,424.63,426.854,431.302,433.54200000000003,436.765,438.989,443.437,446.101,448.341,451.564,453.788,458.236,460.46,464.908,468.908,471.132,472.908,477.356,481.804,485.804,488.044,491.268,497.044,498.82,502.82,507.268,511.716,515.716,520.164,524.164" svgx:width="0.67,0.56,0.22,0.56,0.56,0.5,0.56,0.5,0.22,0.28,0.55,0.28,0.28,0.56,0.83,0.56,0.33,0.56,0.28,0.55,0.33,0.72,0.56,0.28,0.22,0.56,0.56,0.56,0.22,0.28,0.55,0.28,0.56,0.5,0.28,0.22,0.28,0.56,0.28,0.56,0.28,0.55,0.28,0.56,0.33,0.28,0.55,0.28,0.56,0.28,0.56,0.5,0.28,0.22,0.56,0.56,0.5,0.28,0.55,0.72,0.22,0.5,0.56,0.56,0.5,0.56,0.5,0.28" style="fill:rgb(23,22,21);font-family:ArialMT;font-size:8.0px;stroke:none;">Shigeyuki Itamura (National Institute for Infectious Diseases,</text>
   <text y="665.076" x="293.2,297.378,302.003,306.517,311.142,315.768,318.61,321.011,323.25100000000003,327.535,332.609,337.234,340.076,344.702,349.327,351.281,355.907,360.532,365.158,367.398,371.682,375.859,380.485,384.663,387.064,389.018,393.643,395.883,400.167,403.009,409.411,411.812,417.326,420.167,422.569,424.809,429.093,435.047,439.672,444.298,448.924,453.549,455.789,460.073,466.915,471.54,475.718,477.958,482.242,485.084,491.037,495.663,500.288,502.69,505.532,510.157,512.3969999999999,516.681,519.083,523.708" svgx:width="0.5,0.56,0.56,0.56,0.56,0.33,0.28,0.28,0.55,0.67,0.56,0.33,0.56,0.56,0.22,0.56,0.56,0.56,0.28,0.55,0.5,0.56,0.5,0.28,0.22,0.56,0.28,0.55,0.33,0.78,0.28,0.67,0.33,0.28,0.28,0.55,0.72,0.56,0.56,0.56,0.56,0.28,0.55,0.83,0.56,0.5,0.28,0.55,0.33,0.72,0.56,0.56,0.28,0.33,0.56,0.28,0.55,0.28,0.56,0.33" style="fill:rgb(23,22,21);font-family:ArialMT;font-size:8.0px;stroke:none;">Japan), Veronique Jestin (OIE), Donna Mak (Centre for</text>
   <text y="675.076" x="293.2,295.602,300.227,302.629,307.254,310.096,314.722,319.347,321.749,323.703,328.328,332.954,337.579,339.533,341.773,346.96,352.914,357.539,362.165,364.119,366.52,371.146,373.547,375.78700000000003,380.535,386.048,390.674,394.851,397.253,400.095,404.72,406.674,408.628,413.253,416.095,418.496,420.736,425.924,431.877,436.503,441.128,443.082,445.322,450.509,457.351,459.304,462.146,466.772,471.397,476.023,480.648,482.88800000000003,488.076,490.917,496.431,501.944,507.754,512.676,518.189,524.143" svgx:width="0.28,0.56,0.28,0.56,0.33,0.56,0.56,0.28,0.22,0.56,0.56,0.56,0.22,0.28,0.55,0.72,0.56,0.56,0.22,0.28,0.56,0.28,0.28,0.55,0.67,0.56,0.5,0.28,0.33,0.56,0.22,0.22,0.56,0.33,0.28,0.28,0.55,0.72,0.56,0.56,0.22,0.28,0.55,0.83,0.22,0.33,0.56,0.56,0.56,0.56,0.28,0.55,0.33,0.67,0.67,0.72,0.67,0.67,0.72,0.28" style="fill:rgb(23,22,21);font-family:ArialMT;font-size:8.0px;stroke:none;">International Health, Australia), Noel Miranda (SERVAC,</text>
   <text y="685.076" x="293.2,298.536,302.984,304.76,306.536,308.312,312.76,317.208,318.984,323.432,327.88,331.88,334.544,336.768,339.008,341.295,347.071,348.847,351.071,355.519,359.519,363.967,365.743,367.983,370.27,376.494,380.494,384.942,386.718,388.83,393.278,397.726,399.502,401.742,404.03,406.694,414.246,420.022,426.246,428.91,431.134,433.374,435.517,439.517,443.965,447.965,452.413,456.861,458.637,462.637,467.085,469.325,471.612,476.948,481.396,483.172,485.396,489.844,492.084,494.371,497.035,502.811,507.259,509.483,511.259,515.707,520.155,524.603" svgx:width="0.67,0.56,0.22,0.22,0.22,0.56,0.56,0.22,0.56,0.56,0.5,0.33,0.28,0.28,0.55,0.72,0.22,0.28,0.56,0.5,0.56,0.22,0.28,0.55,0.78,0.5,0.56,0.22,0.28,0.56,0.56,0.22,0.28,0.55,0.33,0.94,0.72,0.78,0.33,0.28,0.28,0.55,0.61,0.56,0.5,0.56,0.56,0.22,0.5,0.56,0.28,0.55,0.67,0.56,0.22,0.28,0.56,0.28,0.55,0.33,0.72,0.56,0.28,0.22,0.56,0.56,0.56,0.22" style="fill:rgb(23,22,21);font-family:ArialMT;font-size:8.0px;stroke:none;">Philippines), Hitoshi Oshitani (WHO), Takehiko Saito (National</text>
   <text y="695.076" x="293.2,295.424,299.872,303.872,306.096,307.872,310.096,314.544,316.768,321.216,323.456,324.142,326.366,330.814,333.478,335.718,336.405,338.629,343.077,345.301,349.749,353.749,355.973,357.749,362.197,366.645,370.645,372.885,373.571,379.347,381.123,385.123,389.571,394.019,398.019,402.467,406.467,408.691,410.931,411.618,415.618,420.066,424.402,428.85,433.298,435.962,438.186,440.968,444.968,449.416,452.08,456.528,460.976,465.424,469.872,472.112,472.798,479.462,483.91,485.686,490.134,494.582,498.582,500.822,501.509,504.173,509.949,515.725,521.501,524.165" svgx:width="0.28,0.56,0.5,0.28,0.22,0.28,0.56,0.28,0.56,0.28,0.55,0.28,0.56,0.33,0.28,0.55,0.28,0.56,0.28,0.56,0.5,0.28,0.22,0.56,0.56,0.5,0.28,0.55,0.72,0.22,0.5,0.56,0.56,0.5,0.56,0.5,0.28,0.28,0.55,0.5,0.56,0.56,0.56,0.56,0.33,0.28,0.28,0.61,0.56,0.33,0.56,0.56,0.56,0.56,0.28,0.55,0.83,0.56,0.22,0.56,0.56,0.5,0.28,0.55,0.33,0.72,0.72,0.72,0.33,0.28" style="fill:rgb(23,22,21);font-family:ArialMT;font-size:8.0px;stroke:none;">Institute for Infectious Diseases, Japan), Taronna Maines (CDC),</text>
   <text y="705.076" x="293.2,298.976,303.424,305.2,309.2,313.648,315.88800000000003,316.658,321.994,326.442,328.218,330.442,334.89,337.13,337.901,340.565,346.341,348.117,352.565,357.013,359.125,363.573,365.813,366.583,372.359,376.807,378.583,382.583,387.031,389.695,393.695,395.471,397.695,401.103,403.327,405.567,406.338,410.338,414.786,419.122,423.57,428.018,430.682,432.906,435.146,435.916,439.916,444.364,451.028,455.476,459.476,461.716,462.486,469.15,473.598,476.262,480.262,482.502,483.273,488.609,490.385,497.049,503.713,508.161,510.825,517.489,521.937" svgx:width="0.72,0.56,0.22,0.5,0.56,0.28,0.55,0.67,0.56,0.22,0.28,0.56,0.28,0.55,0.33,0.72,0.22,0.56,0.56,0.28,0.56,0.28,0.55,0.72,0.56,0.22,0.5,0.56,0.33,0.5,0.22,0.28,0.5,0.28,0.28,0.55,0.5,0.56,0.56,0.56,0.56,0.33,0.28,0.28,0.55,0.5,0.56,0.83,0.56,0.5,0.28,0.55,0.83,0.56,0.33,0.5,0.28,0.55,0.67,0.22,0.83,0.83,0.56,0.33,0.83,0.56,0.56" style="fill:rgb(23,22,21);font-family:ArialMT;font-size:8.0px;stroke:none;">Reiko Saito (Nigata University, Japan), James Mark Simmerman</text>
   <text y="715.076" x="293.2,295.864,301.64,307.416,313.192,315.856,318.08,320.382,324.382,328.83,331.494,334.158,338.158,340.459,345.051,349.499,356.163,360.611,365.059,369.059,371.505,374.169,379.945,385.721,391.497,394.161,396.385,398.686,403.278,405.054,411.718,416.166,418.39,422.838,426.838,429.284,435.06,439.06,443.508,447.508,449.284,451.73,454.394,460.17,465.946,471.722,474.386" svgx:width="0.33,0.72,0.72,0.72,0.33,0.28,0.28,0.61,0.56,0.33,0.33,0.5,0.28,0.61,0.56,0.83,0.56,0.56,0.5,0.28,0.33,0.72,0.72,0.72,0.33,0.28,0.28,0.61,0.22,0.83,0.56,0.28,0.56,0.5,0.28,0.72,0.5,0.56,0.5,0.22,0.28,0.33,0.72,0.72,0.72,0.33,0.28" style="fill:rgb(23,22,21);font-family:ArialMT;font-size:8.0px;stroke:none;">(CDC), Terry Tumpey (CDC), Timothy Uyeki (CDC).</text>
  </g>
  <path style="fill:none;stroke:rgb(23,22,21);stroke-width:0.5;" d="M46.000 692.260 L279.200 692.260 "/>
  <g begin="text">
   <text y="703.077" x="46.0,49.112,54.888,59.336,61.56,63.336,67.784,72.232,76.68,78.456,81.014,86.35,90.798,95.246,97.022,101.47,103.694,106.358,108.134,112.134,114.691,120.467,124.915,128.915,133.363,135.139,137.251,141.699,143.475,145.699,148.257,154.033,158.481,162.929,167.377,169.153,171.377,173.934,179.126,180.902,185.35,187.574,192.022,196.47,203.134,205.358,207.916,212.364,216.812,221.26,223.818,228.266,234.042,238.49,242.826,247.274,249.938,252.162,258.826,263.274,267.722,269.946,272.503,276.951" svgx:width="0.39,0.72,0.56,0.28,0.22,0.56,0.56,0.56,0.22,0.28,0.67,0.56,0.56,0.22,0.56,0.28,0.33,0.22,0.5,0.28,0.72,0.56,0.5,0.56,0.22,0.28,0.56,0.22,0.28,0.28,0.72,0.56,0.56,0.56,0.22,0.28,0.28,0.67,0.22,0.56,0.28,0.56,0.56,0.83,0.28,0.28,0.56,0.56,0.56,0.28,0.56,0.72,0.56,0.56,0.56,0.33,0.28,0.83,0.56,0.56,0.28,0.28,0.56,0.28" style="fill:rgb(23,22,21);font-family:ArialMT;font-size:8.0px;stroke:none;">*National Pediatric Hospital, Hanoi, Vietnam; and †Department of</text>
   <text y="713.077" x="46.0,51.776,56.224,60.672,62.448,64.672,69.12,71.344,73.79,79.566,84.014,88.462,92.91,95.357,100.693,105.141,109.589,114.037,116.261,118.707,123.659,128.107,132.555,136.555,138.331,142.779,144.555,146.562,151.898,156.346,163.01,164.786,169.234,171.01,175.01,177.234,179.898,184.346,186.57,188.346,192.346,196.794,199.24,205.016,209.464,213.912,215.688,220.136,224.584,226.808,229.254,235.03,239.478,241.254,245.702" svgx:width="0.72,0.56,0.56,0.22,0.28,0.56,0.28,0.28,0.72,0.56,0.56,0.56,0.28,0.67,0.56,0.56,0.56,0.28,0.28,0.67,0.56,0.56,0.5,0.22,0.56,0.22,0.28,0.67,0.56,0.83,0.22,0.56,0.22,0.5,0.28,0.33,0.56,0.28,0.22,0.5,0.56,0.28,0.72,0.56,0.56,0.22,0.56,0.56,0.28,0.28,0.72,0.56,0.22,0.56,0.56" style="fill:rgb(23,22,21);font-family:ArialMT;font-size:8.0px;stroke:none;">Health, Hong Kong, Special Administrative Region, China</text>
  </g>
 </g>
</svg>
