<?xml version="1.0" encoding="UTF-8"?>
<svg height="777.225" width="517.511" xmlns="http://www.w3.org/2000/svg">
 <g id="page" xmlns:svgx="http://www.xml-cml.org/schema/svgx">
  <g begin="text">
   <text y="70.98" x="55.276,60.276,64.576,69.336,73.836,81.526,85.836,90.836,95.836,100.306,103.636,106.446,110.916,115.916,120.386,124.856,129.856,137.656,142.656,147.657,152.127,157.127,164.937,169.937,172.747,175.557,180.027,184.377,187.187,191.657,196.657,204.387,207.197,212.197,217.717,222.717,227.187,232.187,236.657,241.127,244.457,247.268,250.078,254.958,259.45799999999997,267.148,269.958,272.768,275.578,280.578,285.048,288.898,292.748" svgx:width="0.5,0.45,0.5,0.45,0.55,0.45,0.5,0.5,0.45,0.33,0.28,0.45,0.5,0.45,0.45,0.5,0.55,0.5,0.5,0.45,0.5,0.78,0.5,0.28,0.28,0.45,0.45,0.28,0.45,0.5,0.55,0.28,0.5,0.55,0.5,0.45,0.5,0.45,0.45,0.33,0.28,0.28,0.5,0.45,0.55,0.28,0.28,0.28,0.5,0.45,0.38,0.38,0.25" style="fill:rgb(35,31,32);font-family:AdvPS6F00;font-size:10.0px;stroke:none;">have experienced uncomplicated inﬂuenza-like illness,</text>
   <text y="83.0" x="55.276,62.456,65.266,68.076,73.076,78.006,81.336,86.336,89.146,91.946,96.826,99.946,104.416,108.886,113.726,118.486,122.956,126.286,131.286,136.226,143.406,146.217,149.027,154.027,156.837,161.837,166.727,171.227,175.857,182.827,187.297,191.767,196.767,199.267,204.197,208.667,213.497,217.967,222.967,227.837,235.017,237.827,240.637,245.638,250.638,255.638,258.438,263.388,271.198,275.668,280.668,283.478,287.948,292.418" svgx:width="0.72,0.28,0.28,0.5,0.55,0.33,0.5,0.28,0.28,0.55,0.33,0.45,0.45,0.5,0.5,0.45,0.33,0.5,0.55,0.72,0.28,0.28,0.5,0.28,0.5,0.55,0.45,0.55,0.72,0.45,0.45,0.5,0.25,0.55,0.45,0.5,0.45,0.5,0.55,0.72,0.28,0.28,0.5,0.5,0.5,0.28,0.55,0.78,0.45,0.5,0.28,0.45,0.45,0.28" style="fill:rgb(35,31,32);font-family:AdvPS6F00;font-size:10.0px;stroke:none;">with full recovery within a week, even without medical</text>
   <text y="95.02" x="55.276,58.086,61.226,65.696,69.956,72.766,80.576,85.046,90.046,92.856" svgx:width="0.28,0.33,0.45,0.45,0.28,0.78,0.45,0.5,0.28,0.25" style="fill:rgb(35,31,32);font-family:AdvPS6F00;font-size:10.0px;stroke:none;">treatment.</text>
   <text y="106.98" x="65.256,71.396,76.396,81.466,85.936,89.266,92.076,96.546,101.546,106.016,110.516,116.046,119.376,122.506,127.506,135.306,140.876,143.687,148.687,153.187,158.737,164.257,167.587,171.267,174.067,179.597,186.567,190.877,195.637,200.137,205.667,210.667,213.967,219.557,224.557,229.027,234.027,239.027,243.497,251.308,254.118,258.618,264.178,267.508,274.688,279.688,286.868,291.868" svgx:width="0.61,0.5,0.5,0.45,0.33,0.28,0.45,0.5,0.45,0.45,0.55,0.33,0.33,0.5,0.78,0.55,0.28,0.5,0.45,0.55,0.55,0.33,0.38,0.28,0.55,0.72,0.45,0.5,0.45,0.55,0.5,0.33,0.55,0.5,0.45,0.5,0.5,0.45,0.78,0.28,0.45,0.55,0.33,0.72,0.5,0.72,0.5,0.33" style="fill:rgb(35,31,32);font-family:AdvPS6F00;font-size:10.0px;stroke:none;">Experience from the ﬁrst wave of pandemic (H1N1)</text>
   <text y="119.0" x="55.276,60.276,65.276,70.276,75.276,79.486,83.336,88.336,93.336,98.336,102.806,106.526,109.336,113.136,117.186,119.996,124.996,129.266,132.066,136.236,140.736,144.967,149.967,154.967,162.777,167.777,172.247,175.54700000000003,179.607,184.607,187.907,192.137,194.947,199.947,203.277,207.747,212.217,215.027,219.497,224.497,228.757,233.757,237.997,240.807,243.617,248.088,253.088,255.898,259.698,264.018,269.018,273.488,277.958,282.958,290.768" svgx:width="0.5,0.5,0.5,0.5,0.55,0.38,0.5,0.5,0.5,0.45,0.38,0.28,0.38,0.55,0.28,0.5,0.45,0.28,0.55,0.45,0.55,0.5,0.5,0.78,0.5,0.45,0.33,0.55,0.5,0.33,0.55,0.28,0.5,0.33,0.45,0.45,0.28,0.45,0.5,0.55,0.5,0.45,0.28,0.28,0.45,0.5,0.28,0.38,0.55,0.5,0.45,0.45,0.5,0.78,0.45" style="fill:rgb(35,31,32);font-family:AdvPS6F00;font-size:10.0px;stroke:none;">2009 suggests that a number of infected patients become</text>
   <text y="131.02" x="55.276,59.746,63.076,65.886,68.696,71.506,75.976,80.446,83.256,86.066,91.066,95.926,98.736,101.546,104.346,109.136,113.606,118.606,123.606,128.356,131.526,135.996,140.996,145.997,148.807,151.937,156.437,161.177,163.987,168.987,171.797,176.267,181.267,185.117,187.927,192.757,197.257,201.997,206.467,210.937,214.127,218.627,223.367,227.837,232.837,240.647,243.457,247.308,251.158,253.968,258.968,263.968,266.468,271.278,277.418,282.418,286.888,290.738" svgx:width="0.45,0.33,0.28,0.28,0.28,0.45,0.45,0.28,0.28,0.5,0.55,0.28,0.28,0.28,0.55,0.45,0.5,0.5,0.55,0.33,0.45,0.5,0.5,0.28,0.33,0.45,0.55,0.28,0.5,0.28,0.45,0.5,0.38,0.28,0.5,0.45,0.55,0.45,0.45,0.33,0.45,0.55,0.45,0.5,0.78,0.28,0.38,0.38,0.28,0.5,0.5,0.25,0.55,0.61,0.5,0.45,0.38,0.45" style="fill:rgb(35,31,32);font-family:AdvPS6F00;font-size:10.0px;stroke:none;">critically ill and require intensive care admission. These</text>
   <text y="142.98" x="55.276,60.276,64.576,67.386,70.196,74.666,79.666,82.476,86.276,93.436,96.556,101.026,106.026,108.836,113.836,116.646,121.646,128.816,133.816,138.286,143.106,147.577,150.387,155.387,160.387,167.487,171.337,175.807,180.637,185.107,188.237,192.737,199.797,204.797,207.907,212.907,217.907,221.057,225.527,229.377,233.227,236.037,240.847,245.347,252.468,255.588,260.058,263.908,268.908,271.718,274.868,279.118,281.928,286.928,290.258" svgx:width="0.5,0.45,0.28,0.28,0.45,0.5,0.28,0.38,0.55,0.33,0.45,0.5,0.28,0.5,0.28,0.5,0.55,0.5,0.45,0.5,0.45,0.28,0.5,0.5,0.55,0.38,0.45,0.5,0.45,0.33,0.45,0.55,0.5,0.33,0.5,0.5,0.33,0.45,0.38,0.38,0.28,0.5,0.45,0.55,0.33,0.45,0.38,0.5,0.28,0.33,0.45,0.28,0.5,0.33,0.5" style="fill:rgb(35,31,32);font-family:AdvPS6F00;font-size:10.0px;stroke:none;">patients rapidly develop severe progressive respiratory</text>
   <text y="155.001" x="55.276,58.606,63.076,65.886,68.696,73.696,76.876,81.376,87.196,94.376,99.376,102.186,106.656,111.656,117.756,120.566,124.366,130.456,135.456,138.786,141.596,146.066,151.066,157.157,161.627,165.477,169.327,174.327,178.797,181.607,185.897,188.707,193.177,198.177,204.267,211.447,214.257,217.067,222.067,228.137,231.467,235.937,238.747,241.557,246.557,249.738,254.238,260.228,265.228,268.528,274.628,279.628,282.438,287.438,291.908" svgx:width="0.33,0.45,0.28,0.28,0.5,0.33,0.45,0.55,0.72,0.5,0.28,0.45,0.5,0.55,0.28,0.38,0.55,0.5,0.33,0.28,0.45,0.5,0.55,0.45,0.38,0.38,0.5,0.45,0.28,0.45,0.28,0.45,0.5,0.55,0.72,0.28,0.28,0.5,0.55,0.33,0.45,0.28,0.28,0.5,0.33,0.45,0.55,0.5,0.33,0.55,0.5,0.28,0.5,0.45,0.33" style="fill:rgb(35,31,32);font-family:AdvPS6F00;font-size:10.0px;stroke:none;">failure which is often associated with failure of other</text>
   <text y="167.021" x="55.276,60.276,63.606,68.606,73.076,78.076,81.926,84.426,92.576,97.576,100.87599999999999,108.956,116.766,121.236,124.566,129.426,133.896,138.896,146.947,154.127,159.197,162.527,166.377,170.847,175.847,178.657,183.657,188.657,196.787,201.787,205.08700000000002,213.167,218.167,223.167,228.167,232.637,235.967,238.847,243.847,246.657,251.658,256.658,264.758,269.228,272.038,275.368,282.328,286.638,291.398" svgx:width="0.5,0.33,0.5,0.45,0.5,0.38,0.25,0.55,0.5,0.33,0.55,0.78,0.45,0.33,0.5,0.45,0.5,0.55,0.72,0.5,0.33,0.38,0.45,0.5,0.28,0.5,0.5,0.55,0.5,0.33,0.55,0.5,0.5,0.5,0.45,0.33,0.28,0.5,0.28,0.5,0.5,0.55,0.45,0.28,0.33,0.72,0.45,0.5,0.38" style="fill:rgb(35,31,32);font-family:AdvPS6F00;font-size:10.0px;stroke:none;">organs, or marked worsening of underlying airways</text>
   <text y="178.981" x="55.276,60.276,63.086,66.936,71.406,75.876,79.726,84.196,86.696,92.526,98.046,101.376,104.186,111.996,116.466,119.796,124.796,130.566,135.566,138.376,141.506,145.977,148.77700000000002,154.547,159.547,164.547,169.017,174.017,181.827,186.827,191.827,194.637,199.137,204.897,207.707,211.507,217.087,219.897,224.897,229.397,235.117,242.927,247.928,251.618,254.418,260.178,264.648,269.648,277.458,285.268,290.268" svgx:width="0.5,0.28,0.38,0.45,0.45,0.38,0.45,0.25,0.55,0.55,0.33,0.28,0.78,0.45,0.33,0.5,0.55,0.5,0.28,0.33,0.45,0.28,0.55,0.5,0.5,0.45,0.5,0.78,0.5,0.5,0.28,0.45,0.55,0.28,0.38,0.55,0.28,0.5,0.45,0.55,0.78,0.5,0.38,0.28,0.55,0.45,0.5,0.78,0.78,0.5,0.5" style="fill:rgb(35,31,32);font-family:AdvPS6F00;font-size:10.0px;stroke:none;">disease. Primary viral pneumonia is the most common</text>
   <text y="191.001" x="55.276,60.796,65.796,70.796,73.606,78.606,83.606,86.626,89.436,94.436,97.456,100.266,105.266,109.736,113.586,118.086,121.096,124.946,129.416,134.246,138.716,141.846,146.346,149.327,153.797,158.267,162.117,166.587,170.387,173.477,177.947,182.947,187.947,190.997,195.497,198.257,201.587,204.717,209.187,214.187,219.187,223.657,228.657,231.45700000000002,234.537,239.007,243.477,248.478,252.328,256.828,259.828,264.828,268.128,271.168,276.168,280.638,284.948,287.758,292.758" svgx:width="0.55,0.5,0.5,0.28,0.5,0.5,0.55,0.28,0.5,0.55,0.28,0.5,0.45,0.38,0.45,0.55,0.38,0.45,0.5,0.45,0.33,0.45,0.55,0.45,0.45,0.38,0.45,0.38,0.55,0.45,0.5,0.5,0.55,0.45,0.55,0.33,0.33,0.45,0.5,0.5,0.45,0.5,0.28,0.55,0.45,0.45,0.5,0.38,0.45,0.55,0.5,0.33,0.55,0.5,0.45,0.45,0.28,0.5,0.25" style="fill:rgb(35,31,32);font-family:AdvPS6F00;font-size:10.0px;stroke:none;">ﬁnding in these severe cases and a frequent cause of death.</text>
   <text y="203.021" x="55.276,60.796,65.266,69.736,74.736,79.736,84.816,89.286,92.616,97.616,101.706,106.706,111.006,115.476,118.286,122.756,126.086,128.896,133.366,136.16600000000003,140.316,143.127,148.127,151.457,155.927,160.397,163.207,166.117,171.117,176.117,179.917,184.087,189.087,193.327,198.147,202.647,206.767,211.767,216.237,220.707,225.707,229.837,233.167,238.167,243.167,248.168,253.168,257.278,260.088" svgx:width="0.55,0.45,0.45,0.5,0.5,0.5,0.45,0.33,0.5,0.55,0.5,0.45,0.45,0.28,0.45,0.33,0.28,0.45,0.28,0.55,0.28,0.5,0.33,0.45,0.45,0.28,0.28,0.5,0.5,0.38,0.55,0.5,0.45,0.5,0.45,0.55,0.5,0.45,0.45,0.5,0.55,0.33,0.5,0.5,0.5,0.5,0.55,0.28,0.5" style="fill:rgb(35,31,32);font-family:AdvPS6F00;font-size:10.0px;stroke:none;">Secondary bacterial infections have been found in</text>
   <text y="203.021" code="3" x="269.178" svgx:width="0.77" style="fill:rgb(35,31,32);font-family:AdvP4C4E74;font-size:10.0px;stroke:none;">?</text>
   <text y="203.021" x="276.948,281.948,286.948" svgx:width="0.5,0.5,0.83" style="fill:rgb(35,31,32);font-family:AdvPS6F00;font-size:10.0px;stroke:none;">30%</text>
   <text y="214.981" x="55.276,60.276,63.576,68.486,71.816,76.086,78.896,83.366,86.166,90.996,95.466,99.936,103.866,108.336,112.186" svgx:width="0.5,0.33,0.55,0.33,0.45,0.28,0.45,0.28,0.55,0.45,0.45,0.38,0.45,0.38,0.25" style="fill:rgb(35,31,32);font-family:AdvPS6F00;font-size:10.0px;stroke:none;">of fatal cases.</text>
   <text y="210.558" x="114.69,118.44" svgx:width="0.5,0.5" style="fill:rgb(35,31,32);font-family:AdvPS6F00;font-size:6.67px;stroke:none;">87</text>
   <text y="214.98" x="127.049,133.509,137.979,141.829,146.829,149.639,152.789,157.039,159.849,164.849,168.179,173.179,178.069,181.399,185.869,188.679,191.489,196.489,199.609,204.109,208.96,213.43,218.43,223.43,228.29,231.41,235.88,239.21,242.35,246.6,251.07,253.88,258.88,262.21,267.21,271.89,275.74,280.74,285.74,290.21" svgx:width="0.67,0.45,0.38,0.5,0.28,0.33,0.45,0.28,0.5,0.33,0.5,0.55,0.33,0.45,0.28,0.28,0.5,0.33,0.45,0.55,0.45,0.5,0.5,0.55,0.33,0.45,0.33,0.33,0.45,0.45,0.28,0.5,0.33,0.5,0.55,0.38,0.5,0.5,0.45,0.5" style="fill:rgb(35,31,32);font-family:AdvPS6F00;font-size:10.0px;stroke:none;">Respiratory failure and refractory shock</text>
   <text y="227.0" x="55.278,60.278,64.578,69.338,73.838,76.818,81.818,86.288,90.758,95.758,98.819,101.629,106.629,111.129,114.129,121.939,126.939,130.629,133.429,136.409,140.879,145.879,153.689,161.499,166.499,171.499,174.569,179.039,183.509,188.509,192.359,196.83,200.63000000000002,203.71,208.71,212.01000000000002,215.05,220.05,224.52,228.83,231.64,236.64,239.66,242.47,247.47,250.49,253.3,258.3,261.11,264.91,267.95,272.95,276.11,281.11,286.11,291.11" svgx:width="0.5,0.45,0.5,0.45,0.55,0.5,0.45,0.45,0.5,0.55,0.28,0.5,0.45,0.55,0.78,0.5,0.38,0.28,0.55,0.45,0.5,0.78,0.78,0.5,0.5,0.55,0.45,0.45,0.5,0.38,0.45,0.38,0.55,0.5,0.33,0.55,0.5,0.45,0.45,0.28,0.5,0.55,0.28,0.5,0.55,0.28,0.5,0.28,0.38,0.55,0.5,0.33,0.5,0.5,0.5,0.25" style="fill:rgb(35,31,32);font-family:AdvPS6F00;font-size:10.0px;stroke:none;">have been the most common causes of death in this group.</text>
   <text y="239.02" x="65.258,68.588,73.588,81.078,83.888,88.888,93.358,97.209,101.709,109.139,112.989,117.459,122.289,126.759,129.889,134.389,141.789,146.259,150.729,154.579,159.049,162.899,165.399,172.919,177.919,182.159,184.969,187.779,192.249,197.25,200.06,203.86,211.41,216.41,220.88,225.88,230.35,233.52,237.99,240.8,243.61,248.61,256.03,261.03,265.5,270.5,274.97,279.97,287.44,290.25" svgx:width="0.33,0.5,0.55,0.28,0.5,0.45,0.38,0.45,0.55,0.38,0.45,0.5,0.45,0.33,0.45,0.55,0.45,0.45,0.38,0.45,0.38,0.25,0.55,0.5,0.45,0.28,0.28,0.45,0.5,0.28,0.38,0.55,0.5,0.45,0.5,0.45,0.33,0.45,0.28,0.28,0.5,0.55,0.5,0.45,0.5,0.45,0.5,0.55,0.28,0.5" style="fill:rgb(35,31,32);font-family:AdvPS6F00;font-size:10.0px;stroke:none;">In these severe cases, patients generally began to</text>
   <text y="250.98" x="55.278,60.278,64.748,67.558,72.028,75.358,78.168,83.168,86.348,90.658,93.468,97.968,107.209,111.679,114.809,119.809,124.809,129.809,134.809,144.119,150.129,156.139,161.139,170.429,175.429,179.729,184.549,188.34900000000002,197.699,201.95,205.28,208.09,212.56,215.86,225.19,228.87,233.87,241.68,246.68,249.49,254.49,262.29,271.62,276.62,281.62,285.47,289.94,292.75" svgx:width="0.5,0.45,0.28,0.45,0.33,0.28,0.5,0.33,0.45,0.28,0.45,0.55,0.45,0.33,0.5,0.5,0.5,0.5,0.55,0.5,0.5,0.5,0.55,0.5,0.45,0.5,0.38,0.55,0.45,0.33,0.28,0.45,0.33,0.55,0.38,0.5,0.78,0.5,0.28,0.5,0.78,0.55,0.5,0.5,0.38,0.45,0.28,0.25" style="fill:rgb(35,31,32);font-family:AdvPS6F00;font-size:10.0px;stroke:none;">deteriorate around 3–5 days after symptom onset.</text>
   <text y="263.0" x="55.278,62.458,66.928,69.738,74.208,77.538,80.348,85.348,88.558,92.808,95.618,98.429,103.429,108.429,111.799,118.769,123.239,127.039,130.389,133.559,138.029,143.029,145.839,150.839,153.339,156.689,163.869,166.679,169.489,174.489,177.839,185.649,190.119,195.119,200.119,203.47,208.47,212.71,215.52,218.33,222.8,227.8,230.61,234.41000000000003,237.83,242.83,245.99,250.99,255.99,259.09,263.56,267.48,271.33,274.14,279.14,284.14,287.44,290.25" svgx:width="0.72,0.45,0.28,0.45,0.33,0.28,0.5,0.33,0.45,0.28,0.28,0.5,0.5,0.55,0.72,0.45,0.38,0.55,0.33,0.45,0.5,0.28,0.5,0.25,0.55,0.72,0.28,0.28,0.5,0.55,0.78,0.45,0.5,0.5,0.55,0.5,0.45,0.28,0.28,0.45,0.5,0.28,0.38,0.55,0.5,0.33,0.5,0.5,0.33,0.45,0.38,0.38,0.28,0.5,0.5,0.55,0.28,0.5" style="fill:rgb(35,31,32);font-family:AdvPS6F00;font-size:10.0px;stroke:none;">Deterioration was rapid, with many patients progressing to</text>
   <text y="275.02" x="55.278,58.398,62.868,66.718,71.718,74.528,77.678,81.988,84.798,89.798,93.128,98.128,102.119,105.449,109.919,112.729,115.539,120.539,123.719,128.219,131.999,139.179,141.989,144.799,149.799,152.609,157.609,161.649,166.649,171.649,175.599,180.599,183.099,187.109,192.109,196.579,201.05,205.52,209.37,213.22,216.03,218.84,223.22,226.03,228.84,233.84,238.84,242.84,247.31,252.31,260.12,262.93,266.78,270.63,273.44,278.44,283.44,287.46,290.27" svgx:width="0.33,0.45,0.38,0.5,0.28,0.33,0.45,0.28,0.5,0.33,0.5,0.55,0.33,0.45,0.28,0.28,0.5,0.33,0.45,0.55,0.72,0.28,0.28,0.5,0.28,0.5,0.55,0.5,0.5,0.55,0.5,0.25,0.55,0.5,0.45,0.45,0.45,0.38,0.38,0.28,0.28,0.45,0.28,0.28,0.5,0.5,0.55,0.45,0.5,0.78,0.28,0.38,0.38,0.28,0.5,0.5,0.55,0.28,0.5" style="fill:rgb(35,31,32);font-family:AdvPS6F00;font-size:10.0px;stroke:none;">respiratory failure within 24 h, necessitating admission to</text>
   <text y="286.98" x="55.278,59.748,64.74799999999999,67.978,71.308,77.968,85.148,87.648,90.938,97.078,102.079,106.579,109.819,117.629,122.099,124.909,129.909,133.239,136.049,138.859,143.859,146.959,151.959,155.25900000000001,158.529,161.339,166.339,170.809,174.659,179.159,182.399,187.399,191.639,194.449,197.26,201.73,206.73,209.54,213.34,216.7,219.82,224.29,229.29,234.29,237.1,240.23,244.7,249.7,252.99,255.8,263.61,271.42,275.89,280.89,283.7,288.03,290.84" svgx:width="0.45,0.5,0.55,0.33,0.67,0.72,0.25,0.55,0.61,0.5,0.45,0.55,0.78,0.45,0.28,0.5,0.33,0.28,0.28,0.5,0.55,0.5,0.33,0.55,0.28,0.5,0.45,0.38,0.45,0.55,0.5,0.45,0.28,0.28,0.45,0.5,0.28,0.38,0.55,0.33,0.45,0.5,0.5,0.28,0.33,0.45,0.5,0.55,0.28,0.78,0.78,0.45,0.5,0.28,0.45,0.28,0.45" style="fill:rgb(35,31,32);font-family:AdvPS6F00;font-size:10.0px;stroke:none;">an ICU. The majority of these patients required immediate</text>
   <text y="299.0" x="55.278,58.398,62.868,66.718,71.718,74.528,77.678,81.988,84.798,89.798,93.128,98.128,101.889,105.739,110.739,115.739,120.739,125.819,129.149,131.949,135.909,143.089,145.899,148.709,153.709,157.739,165.549,170.019,174.489,179.489,183.959,188.959,191.769,196.24,200.71,203.51000000000002,207.58,212.4,216.87,221.87,224.68,227.49,230.3,234.62,237.43,240.24,245.24,250.24,252.74,256.73,263.91,268.69,275.66,280.13,284.96,289.43,292.76" svgx:width="0.33,0.45,0.38,0.5,0.28,0.33,0.45,0.28,0.5,0.33,0.5,0.55,0.38,0.5,0.5,0.5,0.5,0.33,0.28,0.55,0.72,0.28,0.28,0.5,0.55,0.78,0.45,0.45,0.5,0.45,0.5,0.28,0.45,0.45,0.28,0.55,0.5,0.45,0.5,0.28,0.28,0.28,0.45,0.28,0.28,0.5,0.5,0.25,0.55,0.72,0.5,0.72,0.45,0.5,0.45,0.33,0.25" style="fill:rgb(35,31,32);font-family:AdvPS6F00;font-size:10.0px;stroke:none;">respiratory support with mechanical ventilation. However,</text>
   <text y="311.021" x="55.278,59.128,64.128,71.938,76.438,80.278,85.278,89.578,92.388,95.198,99.669,104.669,107.479,111.279,115.209,120.209,123.019,128.019,131.879,136.879,141.879,144.679,148.549,151.669,156.139,159.989,164.989,169.989,174.989,179.989,183.869,190.839,195.309,198.12,200.92000000000002,204.79,207.6,212.6,216.47,220.94,225.94,230.94,235.75,240.22,245.22,248.03,250.84,255.84,260.92,265.39,268.19,272.03,276.85,281.32,286.32,289.13,291.94" svgx:width="0.38,0.5,0.78,0.45,0.55,0.5,0.45,0.28,0.28,0.45,0.5,0.28,0.38,0.55,0.5,0.28,0.5,0.55,0.5,0.5,0.28,0.55,0.33,0.45,0.38,0.5,0.5,0.5,0.5,0.55,0.72,0.45,0.28,0.28,0.55,0.28,0.5,0.55,0.45,0.5,0.5,0.5,0.45,0.5,0.28,0.28,0.5,0.5,0.45,0.28,0.55,0.5,0.45,0.5,0.28,0.28,0.33" style="fill:rgb(35,31,32);font-family:AdvPS6F00;font-size:10.0px;stroke:none;">some patients did not respond well to conventional venti-</text>
   <text y="322.981" x="55.278,58.088,62.368,65.178,70.178,73.508,78.508,81.308,85.158,90.158,95.158,100.159,105.239,108.569,111.379,113.879,116.859,120.189,125.189,128.519,131.329,136.329,140.799,144.09900000000002,146.959,151.429,156.429,164.239,169.239,172.049,174.859,179.329,183.699,186.509,189.319,194.319,199.319,202.3,205.11,210.11,214.58,217.39,220.69,223.79,231.6,236.07,241.07,245.54,250.54,255.01,262.82,267.29,272.29,275.21" svgx:width="0.28,0.45,0.28,0.5,0.33,0.5,0.55,0.38,0.5,0.5,0.5,0.5,0.33,0.28,0.25,0.55,0.33,0.5,0.33,0.28,0.5,0.45,0.33,0.55,0.45,0.5,0.78,0.5,0.28,0.28,0.45,0.45,0.28,0.28,0.5,0.5,0.55,0.28,0.5,0.45,0.28,0.33,0.55,0.78,0.45,0.5,0.45,0.5,0.45,0.78,0.45,0.5,0.28,0.25" style="fill:rgb(35,31,32);font-family:AdvPS6F00;font-size:10.0px;stroke:none;">latory support, further complicating their management.</text>
   <text y="318.558" x="277.682,281.432" svgx:width="0.5,0.5" style="fill:rgb(35,31,32);font-family:AdvPS6F00;font-size:6.67px;stroke:none;">82</text>
   <text y="334.998" x="65.254,71.394,76.394,80.894,84.644,91.104,96.104,100.914,105.384,108.184,111.914,118.374,123.374,126.184,128.994,133.464,138.464,142.964,146.724,151.724,155.024,158.804,165.984,170.985,175.455,179.925,183.585,186.395,191.395,195.945,198.755,201.565,205.185,207.995,211.79500000000002,215.615,218.945,225.605,232.055,239.025,246.205,249.535,252.035,255.805,258.615,263.615,267.316,271.786,276.786,279.596,282.406,286.876,291.976" svgx:width="0.61,0.5,0.45,0.55,0.67,0.5,0.5,0.45,0.28,0.55,0.67,0.5,0.28,0.28,0.45,0.5,0.45,0.55,0.5,0.33,0.55,0.72,0.5,0.45,0.45,0.38,0.28,0.5,0.45,0.28,0.28,0.38,0.28,0.38,0.55,0.33,0.67,0.67,0.72,0.72,0.33,0.25,0.55,0.28,0.5,0.55,0.45,0.5,0.28,0.28,0.45,0.5,0.33" style="fill:rgb(35,31,32);font-family:AdvPS6F00;font-size:10.0px;stroke:none;">The Royal College of Anaesthetists (RCOA), in collab-</text>
   <text y="347.019" x="55.273,60.273,63.433,67.684,70.494,73.304,78.304,83.304,89.564,96.744,99.554,102.364,107.364,113.604,116.414,121.414,125.914,132.144,139.324,144.614,151.814,158.054,162.524,167.525,172.525,178.805,181.615,186.615,191.115,197.285,200.615,205.675,208.485,212.955,217.955,221.805,224.615,229.425,233.925,240.135,246.795,251.265,254.425,258.925,265.135,270.656,275.656,280.126,282.936,287.406,290.216" svgx:width="0.5,0.33,0.45,0.28,0.28,0.5,0.5,0.55,0.72,0.28,0.28,0.5,0.55,0.28,0.5,0.45,0.55,0.72,0.55,0.72,0.55,0.45,0.5,0.5,0.55,0.28,0.5,0.45,0.55,0.33,0.5,0.28,0.45,0.5,0.38,0.28,0.5,0.45,0.55,0.67,0.45,0.33,0.45,0.55,0.55,0.5,0.45,0.28,0.45,0.28,0.5" style="fill:rgb(35,31,32);font-family:AdvPS6F00;font-size:10.0px;stroke:none;">oration with the HPA and the Intensive Care Society</text>
   <text y="358.979" x="55.273,58.603,61.933,68.594,74.114,77.444,79.944,85.094,90.094,94.394,99.154,103.654,108.734,111.544,115.394,119.244,124.244,128.714,133.714,138.894,143.894,148.894,151.704,156.704,161.174,163.984,166.795,171.795,176.265,180.065,185.045,187.855,192.855,197.975,202.975,205.785,208.975,213.445,217.915,220.715,225.815,230.285,233.095,235.905,240.905,243.715,248.185,252.655,255.455,260.685,268.496,272.966,277.966,282.436,287.436,291.906" svgx:width="0.33,0.33,0.67,0.55,0.33,0.25,0.55,0.5,0.45,0.5,0.45,0.55,0.28,0.38,0.38,0.5,0.45,0.5,0.55,0.5,0.5,0.28,0.5,0.45,0.28,0.28,0.5,0.45,0.38,0.55,0.28,0.5,0.55,0.5,0.28,0.33,0.45,0.45,0.28,0.55,0.45,0.28,0.28,0.5,0.28,0.45,0.45,0.28,0.55,0.78,0.45,0.5,0.45,0.5,0.45,0.33" style="fill:rgb(35,31,32);font-family:AdvPS6F00;font-size:10.0px;stroke:none;">(ICS), have issued guidelines to direct clinical manage-</text>
   <text y="370.999" x="55.273,63.083,67.554,72.554,75.354,81.244,86.244,89.544,95.474,98.284,103.284,107.784,113.614,118.614,122.854,125.664,128.474,132.944,137.944,140.744,146.664,153.844,156.654,159.464,164.464,170.365,175.365,179.835,184.835,189.835,194.305,202.115,204.925,209.425,215.265,218.595,225.775,230.775,237.955,243.045,246.345,252.225,257.225,262.225,267.226,272.226" svgx:width="0.78,0.45,0.5,0.28,0.55,0.5,0.33,0.55,0.28,0.5,0.45,0.55,0.5,0.45,0.28,0.28,0.45,0.5,0.28,0.55,0.72,0.28,0.28,0.5,0.55,0.5,0.45,0.5,0.5,0.45,0.78,0.28,0.45,0.55,0.33,0.72,0.5,0.72,0.5,0.33,0.55,0.5,0.5,0.5,0.5,0.25" style="fill:rgb(35,31,32);font-family:AdvPS6F00;font-size:10.0px;stroke:none;">ment of the patient with pandemic (H1N1) 2009.</text>
   <text y="366.576" x="274.734,278.484" svgx:width="0.5,0.5" style="fill:rgb(35,31,32);font-family:AdvPS6F00;font-size:6.67px;stroke:none;">62</text>
   <text y="370.998" x="288.057" svgx:width="0.72" style="fill:rgb(35,31,32);font-family:AdvPS6F00;font-size:10.0px;stroke:none;">A</text>
   <text y="383.019" x="55.274,59.744,64.744,69.214,73.684,78.685,81.495,84.305,88.045,90.845,93.825,97.155,102.155,105.455,108.285,112.755,116.085,118.895,121.705,124.515,128.985,133.455,136.25500000000002,139.355,143.825,148.295,151.435,155.935,158.915,163.385,168.385,176.195,179.006,182.856,186.706,189.516,194.516,199.516,202.576,205.386,209.186,212.266,216.736,219.546,223.396,228.396,231.426,235.676,240.676,245.146,247.956,250.766,255.236,260.236,263.046,267.516" svgx:width="0.45,0.5,0.45,0.45,0.5,0.28,0.28,0.38,0.28,0.55,0.33,0.5,0.33,0.55,0.45,0.33,0.28,0.28,0.28,0.45,0.45,0.28,0.55,0.45,0.45,0.33,0.45,0.55,0.45,0.5,0.78,0.28,0.38,0.38,0.28,0.5,0.5,0.55,0.28,0.38,0.55,0.45,0.28,0.38,0.5,0.55,0.45,0.5,0.45,0.28,0.28,0.45,0.5,0.28,0.45,0.25" style="fill:rgb(35,31,32);font-family:AdvPS6F00;font-size:10.0px;stroke:none;">checklist for critical care admission is also available.</text>
   <text y="378.539" x="270.085,273.835" svgx:width="0.5,0.5" style="fill:rgb(35,31,32);font-family:AdvPS6F00;font-size:6.67px;stroke:none;">61</text>
   <text y="415.502" x="55.276,63.174,68.674,76.0,81.5,84.811,90.311,95.811,101.311,106.811,110.089,113.18,118.68,121.771,126.688,132.188,136.423,139.514,144.277,149.22699999999998,152.494,157.412,162.912,166.894,171.811,175.441,178.796,183.031,187.948,192.865,198.365,203.865,209.365,212.698,219.782,225.051,229.759" svgx:width="0.72,0.5,0.67,0.5,0.55,0.5,0.5,0.5,0.5,0.55,0.28,0.5,0.28,0.45,0.5,0.38,0.28,0.45,0.45,0.55,0.45,0.5,0.38,0.45,0.33,0.55,0.38,0.45,0.45,0.5,0.5,0.5,0.55,0.67,0.5,0.45,0.45" style="fill:rgb(35,31,32);font-family:AdvPS6F0B;font-size:11.0px;stroke:none;">H1N1 2009 intensive care: second wave</text>
   <text y="430.526" x="55.276,62.456,66.726,69.536,74.036,77.606,80.936,84.066,89.066,96.866,100.676,103.486,108.486,112.986,116.776,119.586,124.586,127.396,130.206,133.016,137.486,140.286,144.107,149.107,154.107,156.977,161.977,165.087,169.557,174.027,179.027,182.827,185.637,190.637,194.447,203.297,207.597,212.597,215.407,219.877,224.877,228.687,232.537,237.537,242.537,247.538,252.008,255.678,258.478,262.308,267.308,269.808,274.808,283.108,286.908,291.908" svgx:width="0.72,0.45,0.28,0.45,0.55,0.33,0.33,0.5,0.78,0.55,0.28,0.5,0.45,0.55,0.28,0.5,0.28,0.28,0.28,0.45,0.28,0.55,0.5,0.5,0.28,0.5,0.33,0.45,0.45,0.5,0.55,0.28,0.5,0.55,0.88,0.45,0.5,0.28,0.45,0.5,0.55,0.38,0.5,0.5,0.5,0.45,0.38,0.28,0.55,0.5,0.25,0.5,0.83,0.55,0.5,0.33" style="fill:rgb(35,31,32);font-family:AdvPS6F00;font-size:10.0px;stroke:none;">Data from the initial outbreak in Mexico suggest 6.5% of</text>
   <text y="442.486" x="55.276,58.086,63.086,68.086,71.936,76.436,81.586,86.056,91.056,98.866,101.676,104.486,107.296,111.766,116.766,121.956,124.766,129.76600000000002,134.936,139.936,144.937,148.787,153.787,156.597,159.407,163.877,166.67700000000002,171.847,179.027,181.837,184.647,189.647,194.807,199.807,204.277,209.277,214.277,218.747,226.557,229.367,233.867,239.087,242.417,249.598,254.598,261.778,266.778,270.07800000000003,275.258,280.258,285.258,290.258" svgx:width="0.28,0.5,0.5,0.38,0.45,0.55,0.45,0.5,0.78,0.28,0.28,0.28,0.45,0.5,0.55,0.28,0.5,0.55,0.5,0.5,0.38,0.5,0.28,0.28,0.45,0.28,0.55,0.72,0.28,0.28,0.5,0.55,0.5,0.45,0.5,0.5,0.45,0.78,0.28,0.45,0.55,0.33,0.72,0.5,0.72,0.5,0.33,0.55,0.5,0.5,0.5,0.5" style="fill:rgb(35,31,32);font-family:AdvPS6F00;font-size:10.0px;stroke:none;">those admitted to hospital with pandemic (H1N1) 2009</text>
   <text y="454.506" x="55.276,60.276,64.746,69.216,73.686,81.496,85.996,90.996,95.466,98.796,101.606,104.416,107.226,111.696,116.166,118.976,121.786,126.786,131.816,134.626,137.436,140.246" svgx:width="0.5,0.45,0.45,0.45,0.78,0.45,0.55,0.45,0.33,0.28,0.28,0.28,0.45,0.45,0.28,0.28,0.5,0.55,0.28,0.28,0.28,0.25" style="fill:rgb(35,31,32);font-family:AdvPS6F00;font-size:10.0px;stroke:none;">became critically ill.</text>
   <text y="450.028" x="142.753,146.503" svgx:width="0.5,0.5" style="fill:rgb(35,31,32);font-family:AdvPS6F00;font-size:6.67px;stroke:none;">31</text>
   <text y="454.507" x="155.169,162.349,165.159,170.159,174.629,177.929,182.949,186.069,190.539,195.539,200.539,203.869,206.679,210.479,215.549,220.549,223.659,228.129,233.129,235.939,240.409,243.209,248.209,253.209,256.019,261.02,266.02,270.49,273.79,278.82,283.82,286.93,291.93" svgx:width="0.72,0.28,0.5,0.45,0.33,0.55,0.33,0.45,0.5,0.5,0.33,0.28,0.38,0.55,0.5,0.33,0.45,0.5,0.28,0.45,0.28,0.55,0.5,0.28,0.5,0.5,0.45,0.33,0.55,0.5,0.33,0.5,0.33" style="fill:rgb(35,31,32);font-family:AdvPS6F00;font-size:10.0px;stroke:none;">Other reports predict higher pro-</text>
   <text y="466.527" x="55.277,60.278,65.278,68.608,71.418,74.228,79.228,84.228,88.02799999999999,96.438,99.768,104.768,110.778,116.728,121.728,126.728,135.058,138.358,146.718,154.529,158.799,163.799,172.119,175.239,179.709,184.709,189.709,192.519,195.649,200.149,208.459,212.929,216.259,219.069,221.879,224.689,229.159,233.629,236.429,244.739,249.209,253.68,256.87,261.34" svgx:width="0.5,0.5,0.33,0.28,0.28,0.5,0.5,0.38,0.55,0.33,0.5,0.5,0.5,0.5,0.5,0.83,0.33,0.55,0.78,0.45,0.5,0.55,0.33,0.45,0.5,0.5,0.28,0.33,0.45,0.55,0.45,0.33,0.28,0.28,0.28,0.45,0.45,0.28,0.55,0.45,0.45,0.33,0.45,0.25" style="fill:rgb(35,31,32);font-family:AdvPS6F00;font-size:10.0px;stroke:none;">portions (10–25%) may require critical care.</text>
   <text y="462.047" x="263.849,267.599" svgx:width="0.5,0.5" style="fill:rgb(35,31,32);font-family:AdvPS6F00;font-size:6.67px;stroke:none;">62</text>
   <text y="466.526" x="279.609,285.749,290.75" svgx:width="0.61,0.5,0.45" style="fill:rgb(35,31,32);font-family:AdvPS6F00;font-size:10.0px;stroke:none;">The</text>
   <text y="478.486" x="55.277,59.747,64.747,68.597,73.067,78.067,82.537,87.037,91.958,96.958,100.258,105.168,110.168,114.468,117.278,121.778,126.598,131.598,136.068,139.86800000000002,144.858,149.858,154.328,158.798,163.798,168.668,173.668,176.828,181.828,186.828,189.639,194.109,201.919,206.199,209.009,211.819,216.319,221.219,224.549,229.549,232.84900000000002,237.769,240.579,245.579,248.389,252.859,257.859,261.709,264.519,269.349,273.849,278.699,283.169,287.639,290.779" svgx:width="0.45,0.5,0.38,0.45,0.5,0.45,0.45,0.55,0.5,0.33,0.55,0.5,0.45,0.28,0.45,0.55,0.5,0.45,0.38,0.55,0.5,0.45,0.45,0.5,0.55,0.5,0.33,0.5,0.5,0.28,0.45,0.78,0.45,0.28,0.28,0.45,0.55,0.33,0.5,0.33,0.55,0.28,0.5,0.28,0.45,0.5,0.38,0.28,0.5,0.45,0.55,0.45,0.45,0.33,0.45" style="fill:rgb(35,31,32);font-family:AdvPS6F00;font-size:10.0px;stroke:none;">absence of data has been problematic for intensive care</text>
   <text y="490.506" x="55.277,59.747,62.557,65.367,70.367,73.177,77.647,80.457,84.927,90.028,93.828,97.338,104.518,109.518,113.988,118.988,122.508,127.508,130.668,135.138,140.138,144.608,147.938,150.748,155.748,160.748,164.288,167.618,172.618,175.918,179.428,182.238,187.238,191.738,195.249,200.249,205.249,208.059,213.059,218.059,222.559,226.039,231.039,235.509,239.979,244.979,248.77900000000002,252.399,257.399,260.699,264.189,269.189,273.489,276.299,279.109,283.579,288.579,291.39" svgx:width="0.45,0.28,0.28,0.5,0.28,0.45,0.28,0.45,0.5,0.38,0.55,0.72,0.5,0.45,0.5,0.55,0.5,0.33,0.45,0.5,0.45,0.33,0.28,0.5,0.5,0.55,0.33,0.5,0.33,0.55,0.28,0.5,0.45,0.55,0.5,0.5,0.28,0.5,0.5,0.45,0.55,0.5,0.45,0.45,0.5,0.38,0.55,0.5,0.33,0.55,0.5,0.45,0.28,0.28,0.45,0.5,0.28,0.38" style="fill:rgb(35,31,32);font-family:AdvPS6F00;font-size:10.0px;stroke:none;">clinicians when preparing for the unique needs of patients</text>
   <text y="502.526" x="55.277,59.747,63.077,65.887,68.697,71.507,75.977,80.447,83.257,86.067,91.067,94.398,97.208,100.018,102.818,106.138,113.318,116.128,118.938,123.938,127.228,132.228,136.698,141.698,146.698,151.168,158.978,161.788,166.288,169.638,172.968,180.148,185.148,192.329,197.329,200.62900000000002,203.999,208.999,213.999,218.999,223.999,226.499,229.799,236.979,239.789,242.599,247.599,252.599,257.599,262.599,267.599,270.899,274.019,278.489,282.959,287.429,292.43" svgx:width="0.45,0.33,0.28,0.28,0.28,0.45,0.45,0.28,0.28,0.5,0.55,0.28,0.28,0.28,0.55,0.72,0.28,0.28,0.5,0.55,0.5,0.45,0.5,0.5,0.45,0.78,0.28,0.45,0.55,0.33,0.72,0.5,0.72,0.5,0.33,0.55,0.5,0.5,0.5,0.5,0.25,0.55,0.72,0.28,0.28,0.5,0.5,0.5,0.5,0.5,0.55,0.33,0.45,0.45,0.45,0.5,0.28" style="fill:rgb(35,31,32);font-family:AdvPS6F00;font-size:10.0px;stroke:none;">critically ill with pandemic (H1N1) 2009. Although recent</text>
   <text y="514.486" x="55.277,60.277,64.747,69.747,74.747,79.217,87.027,89.838,94.308,98.108,101.258,105.728,110.198,115.198,118.208,123.208,127.708,130.678,133.798,138.268,141.598,146.068,149.398,152.568,157.038,162.038,165.098,167.908,172.908,175.408,178.368,181.178,186.178,190.678,193.679,196.489,199.629,204.099,208.419,211.229,219.039,223.509,228.509,231.309,234.329,239.329,244.329,247.139,249.949,254.949,260.009,263.809,266.809,269.619,274.619,279.089,281.899,286.9,291.98" svgx:width="0.5,0.45,0.5,0.5,0.45,0.78,0.28,0.45,0.38,0.55,0.45,0.45,0.5,0.55,0.5,0.45,0.55,0.33,0.45,0.33,0.45,0.33,0.33,0.45,0.5,0.55,0.28,0.5,0.25,0.55,0.28,0.5,0.45,0.55,0.28,0.33,0.45,0.45,0.28,0.78,0.45,0.5,0.28,0.55,0.5,0.5,0.28,0.28,0.5,0.5,0.38,0.55,0.28,0.5,0.45,0.28,0.5,0.5,0.33" style="fill:rgb(35,31,32);font-family:AdvPS6F00;font-size:10.0px;stroke:none;">pandemics can be referred to, the treatment options includ-</text>
   <text y="526.506" x="55.277,58.087,63.087,68.087,73.987,76.797,81.797,86.297,92.188,97.188,101.038,105.538,111.408,116.408,119.708,125.638,130.108,135.108,137.918,140.728,145.728,148.538,153.538,156.348,159.158,163.628,167.478,169.978,175.928,180.398,185.398,188.208,191.019,196.019,198.829,202.009,206.479,209.289,213.139,215.639,221.509,226.509,230.979,234.829,239.829,244.829,247.989,252.459,256.379,260.229,265.229,268.559,272.409,274.909,280.819,285.289,290.29" svgx:width="0.28,0.5,0.5,0.55,0.28,0.5,0.45,0.55,0.5,0.38,0.45,0.55,0.5,0.33,0.55,0.45,0.5,0.28,0.28,0.5,0.28,0.5,0.28,0.28,0.45,0.38,0.25,0.55,0.45,0.5,0.28,0.28,0.5,0.28,0.33,0.45,0.28,0.38,0.25,0.55,0.5,0.45,0.38,0.5,0.5,0.33,0.45,0.38,0.38,0.5,0.33,0.38,0.25,0.55,0.45,0.5,0.5" style="fill:rgb(35,31,32);font-family:AdvPS6F00;font-size:10.0px;stroke:none;">ing the use of antibiotics, antivirals, vasopressors, and</text>
   <text y="538.527" x="55.277,63.087,67.557,72.027,77.027,81.497,86.497,89.308,93.888,98.358,101.158,105.278,110.038,114.508,119.508,122.318,125.128,127.938,132.258,135.068,137.878,142.878,147.878,151.988,156.458,159.588,164.088,168.208,176.018,181.018,184.138,188.638,192.699,196.549,201.549,206.549,211.549,214.359,218.039,220.849,223.659,228.129,232.439,235.249,239.719,244.719,248.819,255.999,260.999,265.539,270.539,274.609,279.079,284.079,291.89" svgx:width="0.78,0.45,0.45,0.5,0.45,0.5,0.28,0.45,0.45,0.28,0.55,0.5,0.45,0.5,0.28,0.28,0.28,0.45,0.28,0.28,0.5,0.5,0.55,0.45,0.33,0.45,0.55,0.78,0.5,0.33,0.45,0.55,0.38,0.5,0.5,0.5,0.28,0.38,0.28,0.28,0.45,0.45,0.28,0.45,0.5,0.55,0.72,0.5,0.45,0.5,0.55,0.45,0.5,0.78,0.33" style="fill:rgb(35,31,32);font-family:AdvPS6F00;font-size:10.0px;stroke:none;">mechanical ventilation are more sophisticated when com-</text>
   <text y="550.487" x="55.277,60.277,64.747,67.917,72.387,77.387,83.337,90.518,93.328,96.138,101.138,107.148,109.958,114.958,119.458,125.408,130.928,135.928,140.398,145.478,148.288,152.138,157.138,163.108,165.918,170.918,176.438,181.438,185.908,190.908,195.379,199.879,205.859,210.859,215.329,220.329,225.329,229.799,237.609,240.419,244.919,250.929,255.929,259.229,265.269,270.269,275.269,280.269,285.269" svgx:width="0.5,0.45,0.33,0.45,0.5,0.55,0.72,0.28,0.28,0.5,0.55,0.28,0.5,0.45,0.55,0.55,0.5,0.45,0.5,0.28,0.38,0.5,0.55,0.28,0.5,0.55,0.5,0.45,0.5,0.45,0.45,0.55,0.5,0.45,0.5,0.5,0.45,0.78,0.28,0.45,0.55,0.5,0.33,0.55,0.5,0.5,0.5,0.5,0.25" style="fill:rgb(35,31,32);font-family:AdvPS6F00;font-size:10.0px;stroke:none;">pared with the Spanish inﬂuenza pandemic of 1918.</text>
   <text y="546.066" x="287.773,291.523" svgx:width="0.5,0.5" style="fill:rgb(35,31,32);font-family:AdvPS6F00;font-size:6.67px;stroke:none;">80</text>
   <text y="562.507" x="55.276,62.456,66.726,69.536,74.036,78.516,81.846,84.976,89.976,97.776,102.546,111.396,115.646,120.646,123.456,127.926,132.926,135.426,140.196,147.377,152.377,155.707,158.517,163.517,167.987,171.317,176.317,181.077,188.257,196.067,200.537,203.867,206.677,211.147,215.617,218.117,222.917,227.387,232.387,237.387,242.077,244.888,249.888,254.388,259.088,264.608,269.608,274.608,277.418,282.418,286.888,290.218" svgx:width="0.72,0.45,0.28,0.45,0.55,0.33,0.33,0.5,0.78,0.55,0.88,0.45,0.5,0.28,0.45,0.5,0.25,0.55,0.72,0.5,0.33,0.28,0.5,0.45,0.33,0.5,0.55,0.72,0.78,0.45,0.33,0.28,0.45,0.45,0.25,0.55,0.45,0.5,0.5,0.55,0.28,0.5,0.45,0.55,0.55,0.5,0.5,0.28,0.5,0.45,0.33,0.5" style="fill:rgb(35,31,32);font-family:AdvPS6F00;font-size:10.0px;stroke:none;">Data from Mexico, Northern America, and the Southern</text>
   <text y="574.527" x="55.276,62.456,66.926,74.736,77.546,81.396,86.396,91.396,95.866,99.106,103.606,108.856,113.856,118.856,124.166,128.016,133.016,140.826,145.326,150.417,157.447,161.697,166.697,172.017,174.827,179.827,185.117,190.117,194.587,197.397,202.397,205.207,210.207,215.207,220.547,225.017,228.347,231.157,233.967,236.777,241.247,245.718,248.518,253.888,258.358,262.828,266.018,270.518,275.768,280.768,285.768,288.638,291.448" svgx:width="0.72,0.45,0.78,0.28,0.38,0.5,0.5,0.45,0.33,0.45,0.55,0.5,0.5,0.55,0.38,0.5,0.78,0.45,0.55,0.72,0.45,0.5,0.55,0.28,0.5,0.55,0.5,0.45,0.28,0.5,0.28,0.5,0.5,0.55,0.45,0.33,0.28,0.28,0.28,0.45,0.45,0.28,0.55,0.45,0.45,0.33,0.45,0.55,0.5,0.5,0.28,0.28,0.38" style="fill:rgb(35,31,32);font-family:AdvPS6F00;font-size:10.0px;stroke:none;">Hemisphere go some way to helping critical care units</text>
   <text y="586.487" x="55.276,60.276,63.436,67.906,72.906,77.376,80.496,84.996,88.376,91.706,96.766,100.066,103.516,106.326,111.326,115.826,119.216,124.216,127.326,131.796,136.796,139.606,144.077,146.887,151.357,156.357,159.867,163.717,168.187,172.657,177.657,182.657,187.657,191.107,198.077,202.387,207.147,211.617,214.117,217.577,222.047,224.857,227.667,232.667,237.667,242.667,247.668,252.668,256.128,258.938,261.738,265.138,267.948,271.748,275.228,280.228,283.038,286.368,291.888" svgx:width="0.5,0.33,0.45,0.5,0.45,0.33,0.45,0.55,0.33,0.5,0.33,0.55,0.28,0.5,0.45,0.55,0.5,0.33,0.45,0.5,0.28,0.45,0.28,0.45,0.5,0.55,0.38,0.45,0.45,0.5,0.5,0.5,0.55,0.72,0.45,0.5,0.45,0.25,0.55,0.45,0.28,0.28,0.5,0.5,0.5,0.5,0.5,0.55,0.28,0.28,0.55,0.28,0.38,0.55,0.5,0.28,0.33,0.55,0.33" style="fill:rgb(35,31,32);font-family:AdvPS6F00;font-size:10.0px;stroke:none;">prepare for the predicted second wave, although it is difﬁ-</text>
   <text y="598.507" x="55.276,59.746,64.746,67.556,70.356,75.856,78.666,83.666,89.176,91.986,96.986,100.316,104.786,108.086,113.616,118.616,123.086,128.086,132.556,138.076,140.886,144.686,150.297,155.297,158.597,164.127,168.597,173.067,176.397,179.207,183.677,186.487,191.487,197.007,199.817,204.817,209.287,212.427,216.897,221.897,226.367,231.367,234.177,236.987,241.487,247.008,254.818,259.288,264.288,269.288,273.758,278.758,283.758,286.918,291.388" svgx:width="0.45,0.5,0.28,0.28,0.55,0.28,0.5,0.55,0.28,0.5,0.33,0.45,0.33,0.55,0.5,0.45,0.5,0.45,0.55,0.28,0.38,0.55,0.5,0.33,0.55,0.45,0.45,0.33,0.28,0.45,0.28,0.5,0.55,0.28,0.5,0.45,0.33,0.45,0.5,0.45,0.5,0.28,0.28,0.45,0.55,0.78,0.45,0.5,0.5,0.45,0.5,0.5,0.33,0.45,0.38" style="fill:rgb(35,31,32);font-family:AdvPS6F00;font-size:10.0px;stroke:none;">cult to infer beneﬁts of certain therapeutic manoeuvres</text>
   <text y="610.528" x="55.276,60.276,65.276,69.776,73.076,75.886,80.886,84.186,89.186,91.996,95.326,98.656,103.126,106.296,110.766,115.766,120.236,124.706,128.506,131.926,136.926,141.396,144.207,151.207,155.677,160.147,165.147,168.497,171.307,176.307,180.807,184.087,189.087,192.197,197.197,202.197,207.197,210.997,214.197,217.007,222.007,226.277,229.077,232.397,237.397,240.207,245.207,248.558,253.028,258.028,263.028,266.298,271.298,274.108,279.108,282.458,287.458,292.458" svgx:width="0.5,0.5,0.45,0.55,0.28,0.5,0.55,0.5,0.28,0.33,0.33,0.45,0.33,0.45,0.5,0.45,0.45,0.38,0.55,0.5,0.45,0.28,0.72,0.45,0.45,0.5,0.55,0.28,0.5,0.45,0.55,0.5,0.33,0.5,0.5,0.5,0.38,0.55,0.28,0.5,0.45,0.28,0.55,0.5,0.28,0.5,0.55,0.45,0.5,0.5,0.55,0.5,0.28,0.5,0.55,0.5,0.5,0.28" style="fill:rgb(35,31,32);font-family:AdvPS6F00;font-size:10.0px;stroke:none;">due to differences between the groups that did and did not</text>
   <text y="622.488" x="55.276,58.396,62.866,67.336,71.806,74.616,79.486,83.986,86.966,89.776,92.916,97.386,101.646,104.456,112.266,116.736,121.736" svgx:width="0.33,0.45,0.45,0.45,0.28,0.5,0.45,0.55,0.28,0.33,0.45,0.45,0.28,0.78,0.45,0.5,0.28" style="fill:rgb(35,31,32);font-family:AdvPS6F00;font-size:10.0px;stroke:none;">receive treatment</text>
   <text y="618.066" x="124.611,128.361" svgx:width="0.5,0.5" style="fill:rgb(35,31,32);font-family:AdvPS6F00;font-size:6.67px;stroke:none;">80</text>
   <text y="622.488" x="135.099,138.429,144.399,148.869,153.869,156.679,161.179,164.189,169.19,172.52" svgx:width="0.33,0.61,0.45,0.5,0.28,0.45,0.55,0.5,0.33,0.25" style="fill:rgb(35,31,32);font-family:AdvPS6F00;font-size:10.0px;stroke:none;">(Table 3).</text>
   <text y="654.973" x="55.276,63.174,68.674,76.0,81.5,84.811,90.311,95.811,101.311,106.811,110.089,113.18,118.68,121.771,126.688,132.188,136.423,139.514,144.277,149.22699999999998,152.494,157.412,162.912,166.894,171.811,175.441,178.796,184.296,189.565,192.656,195.747,200.664,206.164,209.244,212.577,217.494,222.994,228.494,232.531,237.8,242.717,245.808,250.725,254.96,258.051,262.066,265.157,268.249,273.166" svgx:width="0.72,0.5,0.67,0.5,0.55,0.5,0.5,0.5,0.5,0.55,0.28,0.5,0.28,0.45,0.5,0.38,0.28,0.45,0.45,0.55,0.45,0.5,0.38,0.45,0.33,0.55,0.5,0.5,0.28,0.28,0.45,0.5,0.28,0.55,0.45,0.5,0.5,0.38,0.5,0.45,0.28,0.45,0.38,0.28,0.38,0.28,0.28,0.45,0.38" style="fill:rgb(35,31,32);font-family:AdvPS6F0B;font-size:11.0px;stroke:none;">H1N1 2009 intensive care: patient characteristics</text>
   <text y="668.008" x="55.276,60.776,66.276,71.776,75.065,80.565,84.591,89.508,93.743,98.66,104.16,107.251,112.542,115.633,118.724,124.224" svgx:width="0.5,0.5,0.5,0.55,0.5,0.38,0.45,0.38,0.45,0.5,0.28,0.5,0.28,0.28,0.5,0.5" style="fill:rgb(35,31,32);font-family:AdvPS6F0B;font-size:11.0px;stroke:none;">and presentation</text>
   <text y="682.979" x="55.276,61.226,68.406,73.406,76.416,79.586,84.056,88.526,92.996,97.996,100.79599999999999,103.856,106.976,111.446,116.446,121.446,124.776,127.586,131.386,134.526,137.856,140.986,145.987,153.787,156.807,165.657,169.957,174.957,177.767,182.237,187.237,190.257,194.727,199.727,204.727,207.777,214.437,218.907,223.907,228.377,233.457,237.957,240.937,243.747,248.748,253.748,256.558,261.028,265.318,268.128,272.628,275.638,280.108,283.438,286.248,289.058,291.868" svgx:width="0.61,0.72,0.5,0.55,0.33,0.45,0.45,0.45,0.5,0.28,0.55,0.33,0.45,0.5,0.5,0.33,0.28,0.38,0.55,0.33,0.33,0.5,0.78,0.55,0.88,0.45,0.5,0.28,0.45,0.5,0.55,0.45,0.5,0.5,0.55,0.67,0.45,0.5,0.45,0.5,0.45,0.55,0.28,0.5,0.5,0.28,0.45,0.45,0.28,0.45,0.55,0.45,0.33,0.28,0.28,0.28,0.33" style="fill:rgb(35,31,32);font-family:AdvPS6F00;font-size:10.0px;stroke:none;">Two recent reports from Mexico and Canada indicate criti-</text>
   <text y="695.0" x="55.276,59.746,64.216,67.01599999999999,70.356,73.166,75.976,78.786,83.786,88.256,92.106,95.90599999999999,99.326,102.496,106.966,110.816,115.816,118.626,121.436,124.246,129.246,134.246,137.586,140.916,144.046,149.047,156.847,160.207,165.207,169.677,174.677,179.677,184.147,191.957,194.767,199.267,202.617,205.947,213.127,218.127,225.307,230.307,233.607,237.027,242.027,247.027,252.028,257.028,260.328,265.328,269.798,274.268,279.268,282.598,285.788,290.258" svgx:width="0.45,0.45,0.28,0.55,0.28,0.28,0.28,0.5,0.45,0.38,0.38,0.55,0.33,0.45,0.38,0.5,0.28,0.28,0.28,0.5,0.5,0.55,0.33,0.33,0.5,0.78,0.55,0.5,0.45,0.5,0.5,0.45,0.78,0.28,0.45,0.55,0.33,0.72,0.5,0.72,0.5,0.33,0.55,0.5,0.5,0.5,0.5,0.55,0.5,0.45,0.45,0.5,0.33,0.33,0.45,0.5" style="fill:rgb(35,31,32);font-family:AdvPS6F00;font-size:10.0px;stroke:none;">cal illness resulting from pandemic (H1N1) 2009 occurred</text>
   <text y="707.02" x="55.276,63.086,67.556,70.366,75.366,78.176,83.176,88.216,91.026,96.026,101.026,105.786,110.786,115.786,120.786,125.786,130.846,136.366,139.16600000000003,144.167,148.637,153.637,158.637,161.447,164.257,168.107" svgx:width="0.78,0.45,0.28,0.5,0.28,0.5,0.55,0.28,0.5,0.55,0.5,0.5,0.5,0.5,0.5,0.55,0.55,0.28,0.55,0.45,0.5,0.5,0.28,0.28,0.38,0.25" style="fill:rgb(35,31,32);font-family:AdvPS6F00;font-size:10.0px;stroke:none;">mainly in young ﬁt adults.</text>
   <text y="702.538" x="170.646,174.396,177.731,182.21,185.96" svgx:width="0.5,0.5,0.55,0.5,0.5" style="fill:rgb(35,31,32);font-family:AdvPS6F00;font-size:6.67px;stroke:none;">31 50</text>
   <text y="707.017" x="194.74,201.92,204.73,209.73,214.2,217.5,222.52,225.85,228.66,232.51,237.51,242.531,245.861,250.131,254.601,257.411,262.411,265.741,269.541,274.621,279.091,282.941,285.751,290.751" svgx:width="0.72,0.28,0.5,0.45,0.33,0.55,0.33,0.28,0.38,0.5,0.55,0.33,0.45,0.45,0.28,0.5,0.33,0.38,0.55,0.45,0.38,0.28,0.5,0.45" style="fill:rgb(35,31,32);font-family:AdvPS6F00;font-size:10.0px;stroke:none;">Other risk factors aside</text>
   <text y="718.977" x="55.279,58.609,61.739,66.739,74.539,81.299,84.109,89.109,94.109,97.959,102.459,109.139,113.609,117.459,121.309,126.309,130.779,133.589,137.94,140.75,145.22,150.22,156.93,164.11,166.92,169.73,174.73,181.48,185.33,189.8,194.27,198.12,203.12,208.12,212.59,215.39000000000001,222.13,224.94,229.94,235.46,240.461,244.931,250.021,254.491,258.991,265.671,268.481,273.481,277.951,280.761,285.761,290.761" svgx:width="0.33,0.33,0.5,0.78,0.55,0.28,0.5,0.5,0.38,0.45,0.55,0.45,0.38,0.38,0.5,0.45,0.28,0.45,0.28,0.45,0.5,0.55,0.72,0.28,0.28,0.5,0.55,0.38,0.45,0.45,0.38,0.5,0.5,0.45,0.28,0.55,0.28,0.5,0.55,0.5,0.45,0.5,0.45,0.45,0.55,0.28,0.5,0.45,0.28,0.5,0.5,0.45" style="fill:rgb(35,31,32);font-family:AdvPS6F00;font-size:10.0px;stroke:none;">from those associated with seasonal inﬂuenza include</text>
   <text y="730.997" x="55.279,60.279,63.439,67.909,72.909,77.909,82.379,87.379,91.849" svgx:width="0.5,0.33,0.45,0.5,0.5,0.45,0.5,0.45,0.5" style="fill:rgb(35,31,32);font-family:AdvPS6F00;font-size:10.0px;stroke:none;">pregnancy</text>
   <text y="726.576" x="96.888,100.638" svgx:width="0.5,0.5" style="fill:rgb(35,31,32);font-family:AdvPS6F00;font-size:6.67px;stroke:none;">48</text>
   <text y="730.998" x="109.021,113.491,118.491,123.491,128.181,133.181,138.181,142.651,146.501,149.311,152.121,156.981" svgx:width="0.45,0.5,0.5,0.55,0.5,0.5,0.45,0.38,0.28,0.28,0.5,0.25" style="fill:rgb(35,31,32);font-family:AdvPS6F00;font-size:10.0px;stroke:none;">and obesity.</text>
   <text y="726.576" x="159.477,163.227,166.562,170.704,174.454" svgx:width="0.5,0.5,0.55,0.5,0.5" style="fill:rgb(35,31,32);font-family:AdvPS6F00;font-size:6.67px;stroke:none;">50 54</text>
   <text y="730.998" x="182.891,189.031,194.031,198.531,203.191,209.852,214.322,219.322,223.792,228.792,231.602,236.072,241.072,245.772,249.452,252.262,257.262,262.262,267.262,271.902,275.232,280.232,285.232,290.232" svgx:width="0.61,0.5,0.45,0.55,0.67,0.45,0.5,0.45,0.5,0.28,0.45,0.5,0.55,0.38,0.28,0.5,0.5,0.5,0.55,0.33,0.5,0.5,0.5,0.5" style="fill:rgb(35,31,32);font-family:AdvPS6F00;font-size:10.0px;stroke:none;">The Canadian study found</text>
  </g>
  <g begin="text">
   <text y="730.998" transform="matrix(0.0,-1.0,1.0,0.0,-375.477,1086.519)" rotateDegrees="-90" matrix="[0.0,7.4999,-7.4999,0.0,355.5212,59.8677]" x="355.521,360.33600000000007,364.08600000000007,368.2250000000001,370.333,373.708,375.9800000000001" svgx:width="0.67,0.5,0.55,0.28,0.45,0.55,0.5" style="fill:rgb(35,31,32);font-family:AdvPS6F01;font-size:7.5px;stroke:none;">Table 3</text>
   <text y="703.046" transform="matrix(0.0,-1.0,1.0,0.0,-347.525,1058.567)" rotateDegrees="-90" matrix="[0.0,7.4999,-7.4999,0.0,355.5212,87.819824]" x="355.521,360.9060000000001,364.2580000000001,368.0080000000001,371.36100000000005,373.776,377.1280000000001,379.2280000000001,381.48500000000007,384.838,388.588,394.4450000000001,398.1950000000001,401.54800000000006,404.045,406.1530000000001,409.04,412.79,416.54,418.84200000000004,422.59200000000004,425.06700000000006,427.34700000000004,429.4550000000001,433.2050000000001,436.5800000000001,438.85200000000003,442.2050000000001,444.31200000000007,446.42,450.17,452.2770000000001,455.6290000000001,458.982,461.08200000000005,463.3390000000001,466.69200000000006,470.44200000000006,473.79400000000004,476.2090000000001,479.3820000000001,482.7340000000001,484.84200000000004,488.194,490.69200000000006,492.79900000000004,495.59600000000006,497.704,499.8110000000001,503.16400000000004,506.01400000000007,508.29400000000004,512.0440000000001,514.5190000000001,516.799,518.9060000000002,522.6560000000002,526.0310000000002,528.3040000000001,531.6560000000002,534.153,536.261,538.3680000000002,540.4760000000001,543.828,547.181,549.288,551.3960000000001,555.1460000000001,557.441,559.548,561.6560000000001,563.7560000000001,565.998,571.383,573.491,575.5980000000001,579.3480000000001,581.643,587.028,590.778,596.163,599.913,602.163,604.27,608.02,610.27,612.3770000000001,616.1270000000001,619.5020000000001,621.7750000000001,623.8820000000001,627.6320000000001,629.9950000000001,633.347,636.722,638.95,642.7,646.0520000000001,649.8020000000001,653.5520000000001,655.8990000000001,659.2520000000001,663.0020000000001,666.7520000000001,668.859,672.212,675.5640000000001,677.6640000000001,679.9970000000001,685.3810000000001,689.1310000000001,694.5160000000001,698.2660000000001,700.5160000000001,704.2660000000001,708.0160000000001,710.124,713.873,716.221,719.5730000000001,722.926,726.676,728.9780000000001,731.3030000000001,734.6560000000001,738.4060000000001,740.5130000000001,744.2630000000001,748.0130000000001,750.9000000000001,752.7750000000001,755.0550000000001,758.8050000000001,762.945,765.315,768.6680000000001,772.4180000000001,776.1680000000001,779.52,783.27,786.6220000000001,790.3720000000001,792.5250000000001,795.8770000000001,799.6270000000001,803.3770000000001,805.6200000000001,809.3700000000001,813.1200000000001,816.472,819.3590000000002,821.4670000000001,823.5740000000001,827.219,829.094,831.3590000000002,835.1090000000002,838.8590000000002,842.8120000000001,846.164,848.5340000000001,851.8870000000001,855.239,858.989,861.096,864.4490000000001,868.1990000000001,871.5740000000001,873.876,877.626,880.101,882.3810000000001,886.1310000000001,889.4840000000002,893.2340000000002,896.586,898.933,902.2860000000001,904.3860000000001,906.643,910.393,914.143,917.893,921.643,923.751,926.998,929.106,931.213,934.963,938.713,941.0,944.75,948.5,951.8530000000001,954.74" svgx:width="0.72,0.45,0.5,0.45,0.33,0.45,0.28,0.55,0.45,0.5,0.78,0.5,0.45,0.33,0.28,0.38,0.5,0.5,0.55,0.5,0.33,0.55,0.28,0.5,0.45,0.55,0.45,0.28,0.28,0.5,0.28,0.45,0.45,0.28,0.55,0.45,0.5,0.45,0.33,0.45,0.45,0.28,0.45,0.33,0.28,0.38,0.28,0.28,0.45,0.38,0.55,0.5,0.33,0.55,0.28,0.5,0.45,0.55,0.45,0.33,0.28,0.28,0.28,0.45,0.45,0.28,0.28,0.5,0.55,0.28,0.28,0.28,0.55,0.72,0.28,0.28,0.5,0.55,0.72,0.5,0.72,0.5,0.55,0.28,0.5,0.55,0.28,0.5,0.45,0.55,0.28,0.5,0.33,0.45,0.45,0.55,0.5,0.45,0.5,0.5,0.33,0.45,0.5,0.5,0.28,0.45,0.45,0.28,0.55,0.72,0.5,0.72,0.5,0.55,0.5,0.5,0.28,0.5,0.33,0.45,0.45,0.5,0.55,0.33,0.45,0.5,0.28,0.5,0.5,0.38,0.25,0.55,0.5,0.55,0.33,0.45,0.5,0.5,0.45,0.5,0.45,0.5,0.55,0.45,0.5,0.5,0.55,0.5,0.5,0.45,0.38,0.28,0.28,0.5,0.25,0.55,0.5,0.5,0.55,0.45,0.33,0.45,0.45,0.5,0.28,0.45,0.5,0.45,0.55,0.5,0.33,0.55,0.5,0.45,0.5,0.45,0.33,0.45,0.28,0.55,0.5,0.5,0.5,0.5,0.28,0.45,0.28,0.28,0.5,0.5,0.55,0.5,0.5,0.45,0.38,0.45" style="fill:rgb(35,31,32);font-family:AdvPS6F00;font-size:7.5px;stroke:none;">General comparison of the clinical characteristics of the critically ill with H1N1 in the three geographical H1N1 outbreak regions. *Pregnancy and obesity. **Percentage of general population obese</text>
   <text y="730.998" transform="matrix(0.0,-1.0,1.0,0.0,-359.487,1102.509)" rotateDegrees="-90" matrix="[0.0,7.4999,-7.4999,0.0,371.511,59.8677]" x="371.511,376.7230000000001,380.4730000000001,384.6130000000001,388.7530000000001,391.25000000000006,394.6030000000001,396.7100000000001,400.06300000000005,402.91300000000007,598.45,605.5530000000001,608.7700000000001,612.5200000000001,614.6270000000001,617.98" svgx:width="0.72,0.5,0.55,0.55,0.33,0.45,0.28,0.45,0.38,0.55,0.95,0.45,0.5,0.28,0.45,0.5" style="fill:rgb(35,31,32);font-family:AdvPS6F01;font-size:7.5px;stroke:none;">Countries Mexico</text>
   <text y="480.756" transform="matrix(1.0,0.0,0.0,1.0,0.0,0.0)" rotateDegrees="0" matrix="[0.0,5.6248,-4.9992,0.0,368.2204,310.1102]" x="368.22" svgx:width="0.5" style="fill:rgb(35,31,32);font-family:AdvPS6F01;font-size:5.3px;stroke:none;">3</text>
   <text y="477.943" transform="matrix(1.0,0.0,0.0,1.0,0.0,0.0)" rotateDegrees="0" matrix="[0.0,5.6248,-4.9992,0.0,368.2204,312.9226]" x="368.22" svgx:width="0.5" style="fill:rgb(35,31,32);font-family:AdvPS6F01;font-size:5.3px;stroke:none;">1</text>
   <text y="320.542" transform="matrix(0.0,-1.0,1.0,0.0,50.967,692.051)" rotateDegrees="-90" matrix="[0.0,7.4999,-7.4999,0.0,371.5086,470.3243]" x="371.509,376.894,380.644,384.784,388.534,392.674" svgx:width="0.72,0.5,0.55,0.5,0.55,0.5" style="fill:rgb(35,31,32);font-family:AdvPS6F01;font-size:7.5px;stroke:none;">Canada</text>
   <text y="295.597" transform="matrix(1.0,0.0,0.0,1.0,0.0,0.0)" rotateDegrees="0" matrix="[0.0,5.6248,-4.9992,0.0,368.2204,495.2692]" x="368.22" svgx:width="0.5" style="fill:rgb(35,31,32);font-family:AdvPS6F01;font-size:5.3px;stroke:none;">5</text>
   <text y="292.784" transform="matrix(1.0,0.0,0.0,1.0,0.0,0.0)" rotateDegrees="0" matrix="[0.0,5.6248,-4.9992,0.0,368.2204,498.0816]" x="368.22" svgx:width="0.5" style="fill:rgb(35,31,32);font-family:AdvPS6F01;font-size:5.3px;stroke:none;">0</text>
   <text y="154.715" transform="matrix(0.0,-1.0,1.0,0.0,216.794,526.224)" rotateDegrees="-90" matrix="[0.0,7.4999,-7.4999,0.0,371.5086,636.151]" x="371.509,376.894,381.034,383.809,386.30600000000004,389.531,393.281,395.389,397.496,401.24600000000004,403.35400000000004,408.73900000000003" svgx:width="0.72,0.55,0.38,0.33,0.45,0.5,0.28,0.28,0.5,0.28,0.72,0.67" style="fill:rgb(35,31,32);font-family:AdvPS6F01;font-size:7.5px;stroke:none;">Australia/NZ</text>
   <text y="112.479" transform="matrix(1.0,0.0,0.0,1.0,0.0,0.0)" rotateDegrees="0" matrix="[0.0,5.6248,-4.9992,0.0,368.2204,678.3872]" x="368.22" svgx:width="0.5" style="fill:rgb(35,31,32);font-family:AdvPS6F01;font-size:5.3px;stroke:none;">7</text>
   <text y="109.666" transform="matrix(1.0,0.0,0.0,1.0,0.0,0.0)" rotateDegrees="0" matrix="[0.0,5.6248,-4.9992,0.0,368.2204,681.1996]" x="368.22" svgx:width="0.5" style="fill:rgb(35,31,32);font-family:AdvPS6F01;font-size:5.3px;stroke:none;">4</text>
   <text y="730.998" transform="matrix(0.0,-1.0,1.0,0.0,-340.441,1121.555)" rotateDegrees="-90" matrix="[0.0,7.4999,-7.4999,0.0,390.5574,59.8677]" x="390.557,394.6970000000001,398.0490000000001,401.7990000000001,405.5490000000001,408.9240000000001,617.4960000000001,621.2460000000001,623.5040000000001,627.253,631.003,633.8910000000001,637.6410000000001,639.748,641.856,645.2080000000001,647.316,650.166,801.0110000000001,804.7610000000001,808.5110000000001,810.7610000000001,814.113,817.863,821.613,823.721,825.8280000000001,827.936,831.686,835.038,838.3910000000001,842.1410000000001,844.248,847.4960000000001,849.6030000000001,852.1000000000001,854.2080000000001,857.5830000000001,859.855,862.3530000000001,867.3480000000001,872.7330000000001,875.5830000000001,966.8340000000001,972.219,974.326,976.426,978.7360000000001,981.234,986.229,991.614,994.464,996.7660000000001,998.874,1002.624,1004.874,1010.258,1014.008,1016.7760000000001,1018.883,1021.201,1024.553,1026.661,1028.768,1032.143,1034.408,1037.761,1041.511,1045.261,1047.563,1052.948" svgx:width="0.55,0.45,0.5,0.5,0.45,0.55,0.5,0.55,0.5,0.5,0.38,0.5,0.28,0.28,0.45,0.28,0.38,0.55,0.5,0.5,0.55,0.45,0.5,0.5,0.28,0.28,0.28,0.5,0.45,0.45,0.5,0.28,0.45,0.28,0.33,0.28,0.45,0.55,0.33,0.67,0.72,0.38,0.55,0.72,0.28,0.28,0.55,0.33,0.67,0.72,0.38,0.55,0.28,0.5,0.55,0.72,0.5,0.38,0.28,0.33,0.45,0.28,0.28,0.45,0.55,0.45,0.5,0.5,0.55,0.72,0.61" style="fill:rgb(35,31,32);font-family:AdvPS6F00;font-size:7.5px;stroke:none;">Scope 6 hospitals 38 adult/paediatric ICUs All ICUs in Australia and NZ</text>
   <text y="731.006" transform="matrix(0.0,-1.0,1.0,0.0,-331.494,1130.518)" rotateDegrees="-90" matrix="[0.0,7.4999,-7.4999,0.0,399.5123,59.86023]" x="399.512,403.652,405.75999999999993,409.50999999999993,413.25999999999993,417.00999999999993,419.29699999999997,423.04699999999997,426.39899999999994,429.287,431.39399999999995,435.14399999999995,438.89399999999995,626.452,631.327,634.679,636.787,639.1489999999999,642.8989999999999,645.786,649.536,652.8889999999999,656.241,658.3489999999999,660.4559999999999,664.094,667.469,669.704,673.453,677.203,680.0909999999999,683.443,685.941,689.691,692.9459999999999,695.053,697.161,700.911,704.661,708.0129999999999,710.1129999999999,809.967,814.107,816.432,820.182,823.069,826.819,830.171,833.5239999999999,835.631,837.739,841.376,844.751,846.986,850.736,854.486,857.374,860.726,863.223,866.973,870.228,872.336,874.443,878.193,881.943,885.296,887.3960000000001,975.789,978.287,982.037,985.3889999999999,988.742,992.492,994.5989999999999,996.7069999999999,1000.4569999999999,1004.2069999999999,1006.517,1009.8689999999999,1013.6189999999999,1017.3689999999999,1021.1189999999999,1023.616" svgx:width="0.55,0.28,0.5,0.5,0.5,0.55,0.5,0.45,0.38,0.28,0.5,0.5,0.55,0.67,0.45,0.28,0.33,0.5,0.38,0.5,0.45,0.45,0.28,0.28,0.5,0.45,0.55,0.5,0.5,0.38,0.45,0.33,0.5,0.45,0.28,0.28,0.5,0.5,0.45,0.28,0.55,0.55,0.33,0.5,0.38,0.5,0.45,0.45,0.28,0.28,0.5,0.45,0.55,0.5,0.5,0.38,0.45,0.33,0.5,0.45,0.28,0.28,0.5,0.5,0.45,0.28,0.55,0.33,0.5,0.45,0.45,0.5,0.28,0.28,0.5,0.5,0.55,0.45,0.5,0.5,0.5,0.33,0.28" style="fill:rgb(35,31,32);font-family:AdvPS6F00;font-size:7.5px;stroke:none;">Study design Retrospective observational Prospective observational Inception cohort</text>
   <text y="731.013" transform="matrix(0.0,-1.0,1.0,0.0,-322.486,1139.54)" rotateDegrees="-90" matrix="[0.0,7.4999,-7.4999,0.0,408.5272,59.852722]" x="408.527,413.912,417.662,419.537,421.79400000000004,425.54400000000004,428.01900000000006,430.29900000000004,433.651,437.0040000000001,439.891,443.24399999999997,446.094,635.466,639.216,642.966,645.216,648.568,652.318,656.068,660.2080000000001,662.706,668.5630000000001,671.9159999999999,675.6659999999999,677.983,681.733,684.1030000000001,687.8530000000001,691.6030000000001,694.955,698.705,700.8130000000001,704.1880000000001,706.4380000000001,710.1880000000001,712.6630000000001,714.942,717.83,721.58,724.4670000000001,728.2170000000001,731.5699999999999,734.922,737.03,740.3820000000001,744.1320000000001,746.404,749.7570000000001,753.109,755.9970000000001,759.349,762.1990000000001,818.981,822.731,826.481,830.231,832.473,835.826,839.576,843.326,847.466,849.963,855.821,859.173,862.923,865.241,868.5930000000001,872.3430000000001,876.0930000000001,878.335,882.085,884.4549999999999,888.2049999999999,891.9549999999999,895.308,899.058,901.165,904.54,906.79,910.142,913.4950000000001,916.3820000000001,919.735,922.585,984.8040000000001,988.5540000000001,992.3040000000001,996.0540000000001,998.356,1001.7090000000001,1005.4590000000001,1009.2090000000001,1013.3489999999999,1015.846,1021.703,1025.056,1028.806,1031.0710000000001,1034.423,1037.776,1040.663,1044.016" svgx:width="0.72,0.5,0.25,0.55,0.5,0.33,0.55,0.45,0.45,0.38,0.45,0.38,0.55,0.5,0.5,0.55,0.45,0.5,0.5,0.55,0.33,0.78,0.45,0.5,0.55,0.5,0.33,0.5,0.5,0.45,0.5,0.28,0.45,0.55,0.5,0.33,0.55,0.38,0.5,0.38,0.5,0.45,0.45,0.28,0.45,0.5,0.55,0.45,0.45,0.38,0.45,0.38,0.55,0.5,0.5,0.5,0.55,0.45,0.5,0.5,0.55,0.33,0.78,0.45,0.5,0.55,0.45,0.5,0.5,0.55,0.5,0.33,0.5,0.5,0.45,0.5,0.28,0.45,0.55,0.45,0.45,0.38,0.45,0.38,0.55,0.5,0.5,0.5,0.55,0.45,0.5,0.5,0.55,0.33,0.78,0.45,0.5,0.55,0.45,0.45,0.38,0.45,0.38" style="fill:rgb(35,31,32);font-family:AdvPS6F00;font-size:7.5px;stroke:none;">No. of cases 58 conﬁrmed probable or suspected cases 168 conﬁrmed and probable cases 722 conﬁrmed cases</text>
   <text y="731.013" transform="matrix(0.0,-1.0,1.0,0.0,-313.471,1148.555)" rotateDegrees="-90" matrix="[0.0,7.4999,-7.4999,0.0,417.54208,59.852722]" x="417.542,422.537,425.762,427.86899999999997,431.24399999999997,433.47200000000004,437.22100000000006,439.6960000000001,441.97600000000006,445.329,447.82599999999996,449.934,452.041,454.14900000000006,457.50100000000003,460.854,462.954,465.27900000000005,467.386,469.49399999999997,471.60100000000006,475.35100000000006,478.70300000000003,481.59099999999995,484.441,486.766,489.263,495.488,497.761,501.511,503.98600000000005,506.266,508.373,512.123,515.873,518.76,522.135,524.4079999999999,527.76,531.51,537.3679999999999,539.4749999999999,541.5830000000001,543.69,547.0419999999999,550.7919999999999,553.095,555.202,558.952,561.202,564.952,568.702,571.5899999999999,575.3399999999999,577.4470000000001,579.5550000000001,582.9069999999999,585.3520000000001,587.8270000000001,644.481,648.231,650.106,653.856,660.081,827.996,831.746,835.496,841.721,993.826,999.211,1002.961,1005.219,1007.326,1011.076,1013.5740000000001,1017.3240000000001,1019.8209999999999,1025.678,1028.918,1031.026,1033.133,1036.883" svgx:width="0.67,0.45,0.28,0.45,0.55,0.5,0.33,0.55,0.45,0.33,0.28,0.28,0.28,0.45,0.45,0.28,0.55,0.28,0.28,0.28,0.5,0.45,0.38,0.38,0.55,0.33,0.83,0.55,0.5,0.33,0.55,0.28,0.5,0.5,0.38,0.45,0.55,0.45,0.5,0.78,0.28,0.28,0.28,0.45,0.5,0.55,0.28,0.5,0.55,0.5,0.5,0.38,0.5,0.28,0.28,0.45,0.28,0.33,0.55,0.5,0.25,0.5,0.83,0.55,0.5,0.5,0.83,0.55,0.72,0.5,0.55,0.28,0.5,0.33,0.5,0.33,0.78,0.45,0.28,0.28,0.5,0.5" style="fill:rgb(35,31,32);font-family:AdvPS6F00;font-size:7.5px;stroke:none;">Rate of critical illness (% of those admitted to hospital) 6.5% 19% No information</text>
   <text y="731.013" transform="matrix(0.0,-1.0,1.0,0.0,-304.456,1157.57)" rotateDegrees="-90" matrix="[0.0,7.4999,-7.4999,0.0,426.55698,59.852722]" x="426.557,431.37200000000007,435.12200000000007,437.619,443.476,447.226,449.72400000000005,453.47400000000005,455.581,459.331,461.4390000000001,463.54600000000005,467.29600000000005,471.04600000000005,653.4960000000001,657.2460000000001,660.9960000000001,667.2210000000001,837.011,840.761,844.511,846.386,850.136,856.361,1002.8340000000001,1006.5840000000001,1010.3340000000001,1012.2090000000001,1015.9590000000001" svgx:width="0.67,0.5,0.33,0.78,0.5,0.33,0.5,0.28,0.5,0.28,0.28,0.5,0.5,0.55,0.5,0.5,0.83,0.55,0.5,0.5,0.25,0.5,0.83,0.55,0.5,0.5,0.25,0.5,0.83" style="fill:rgb(35,31,32);font-family:AdvPS6F00;font-size:7.5px;stroke:none;">Co-morbidity* 49% 30.4% 27.9%</text>
   <text y="731.021" transform="matrix(0.0,-1.0,1.0,0.0,-295.509,1166.533)" rotateDegrees="-90" matrix="[0.0,7.4999,-7.4999,0.0,435.51187,59.845215]" x="435.512,440.897,444.647,447.99899999999997,450.887,452.99399999999997,455.1019999999999,458.8519999999999,662.452,666.202,669.952,676.177,678.4939999999999,680.991,684.741,688.491,694.739,697.2359999999999,700.9859999999999,704.7359999999999,845.967,849.717,853.467,855.342,859.0909999999999,865.3159999999999,867.626,870.124,873.874,877.624,883.871,886.3689999999999,890.1189999999999,893.8689999999999,1011.797,1015.547,1019.297,1021.172,1024.922,1031.147,1033.4569999999999,1035.954,1039.704,1041.579,1045.329,1051.576,1054.0739999999998,1057.8239999999998" svgx:width="0.72,0.5,0.45,0.38,0.28,0.28,0.5,0.55,0.5,0.5,0.83,0.55,0.33,0.5,0.5,0.83,0.33,0.5,0.5,0.55,0.5,0.5,0.25,0.5,0.83,0.55,0.33,0.5,0.5,0.83,0.33,0.5,0.5,0.55,0.5,0.5,0.25,0.5,0.83,0.55,0.33,0.5,0.25,0.5,0.83,0.33,0.5,0.5" style="fill:rgb(35,31,32);font-family:AdvPS6F00;font-size:7.5px;stroke:none;">Obesity 36% (30%)** 33.3% (24%)** 28.6% (5.3%)**</text>
   <text y="731.021" transform="matrix(0.0,-1.0,1.0,0.0,-286.494,1175.548)" rotateDegrees="-90" matrix="[0.0,7.4999,-7.4999,0.0,444.52676,59.845215]" x="444.527,448.667,450.9919999999999,454.34499999999997,458.09499999999997,461.844,465.19699999999995,468.94699999999995,472.2989999999999,476.0489999999999,671.4669999999999,675.2169999999999,681.4419999999999,854.982,858.732,862.482,868.707,1020.8119999999999,1024.562,1026.437,1030.187" svgx:width="0.55,0.33,0.45,0.5,0.5,0.45,0.5,0.45,0.5,0.55,0.5,0.83,0.55,0.5,0.5,0.83,0.55,0.5,0.25,0.5,0.83" style="fill:rgb(35,31,32);font-family:AdvPS6F00;font-size:7.5px;stroke:none;">Pregnancy 1% 13% 9.1%</text>
   <text y="731.021" transform="matrix(0.0,-1.0,1.0,0.0,-277.479,1184.563)" rotateDegrees="-90" matrix="[0.0,7.4999,-7.4999,0.0,453.54166,59.845215]" x="453.542,456.0399999999999,459.7899999999999,463.5399999999999,466.8919999999999,469.77899999999994,471.8869999999999,475.53899999999993,478.91399999999993,481.14899999999994,484.7189999999999,488.07199999999995,491.82199999999995,493.9289999999999,496.037,498.14399999999995,501.38399999999996,503.4919999999999,505.5989999999999,509.3489999999999,513.0989999999999,680.482,684.232,687.982,694.207,863.997,867.747,871.497,877.722,1029.827,1033.577,1037.327,1039.202,1042.952" svgx:width="0.33,0.5,0.5,0.45,0.38,0.28,0.5,0.45,0.55,0.5,0.45,0.5,0.28,0.28,0.28,0.45,0.28,0.28,0.5,0.5,0.55,0.5,0.5,0.83,0.55,0.5,0.5,0.83,0.55,0.5,0.5,0.25,0.5,0.83" style="fill:rgb(35,31,32);font-family:AdvPS6F00;font-size:7.5px;stroke:none;">Invasive ventilation 82% 81% 64.6%</text>
   <text y="731.021" transform="matrix(0.0,-1.0,1.0,0.0,-268.464,1193.578)" rotateDegrees="-90" matrix="[0.0,7.4999,-7.4999,0.0,462.55655,59.845215]" x="462.557,467.6569999999999,471.227,474.5799999999999,476.94899999999996,480.302,484.052,487.427,489.64699999999993,493.39699999999993,496.62199999999996,500.192,503.04200000000003,505.352,509.102,511.577,513.857,517.486,520.8389999999999,524.5889999999999,526.696,528.804,530.911,534.0989999999999,536.206,538.314,542.064,545.814,689.497,693.247,696.997,873.012,876.762,880.512,1038.842" svgx:width="0.72,0.5,0.45,0.33,0.45,0.5,0.45,0.55,0.5,0.45,0.5,0.38,0.55,0.5,0.33,0.55,0.5,0.45,0.5,0.28,0.28,0.28,0.45,0.28,0.28,0.5,0.5,0.55,0.5,0.5,0.55,0.5,0.5,0.55,0.5" style="fill:rgb(35,31,32);font-family:AdvPS6F00;font-size:7.5px;stroke:none;">Average days of ventilation 12 12 8</text>
   <text y="731.021" transform="matrix(0.0,-1.0,1.0,0.0,-259.51,1202.532)" rotateDegrees="-90" matrix="[0.0,7.4999,-7.4999,0.0,471.51144,59.845215]" x="471.511,476.896,480.864,486.136,491.536,698.451,702.201,704.076,707.825,714.0500000000001,881.966,885.716,889.466,891.341,895.0899999999999,901.3149999999999,1047.796,1053.181,1056.931,1059.1879999999999,1061.296,1065.046,1067.543,1071.293,1073.791,1079.648,1082.888,1084.995,1087.103,1090.853" svgx:width="0.72,0.55,0.72,0.72,0.55,0.5,0.25,0.5,0.83,0.55,0.5,0.5,0.25,0.5,0.83,0.55,0.72,0.5,0.55,0.28,0.5,0.33,0.5,0.33,0.78,0.45,0.28,0.28,0.5,0.5" style="fill:rgb(35,31,32);font-family:AdvPS6F00;font-size:7.5px;stroke:none;">HFOV 1.7% 11.9% No information</text>
   <text y="731.021" transform="matrix(0.0,-1.0,1.0,0.0,-250.495,1211.547)" rotateDegrees="-90" matrix="[0.0,7.4999,-7.4999,0.0,480.52634,59.845215]" x="480.526,485.1309999999999,490.1259999999999,496.763,502.16299999999995,707.4659999999999,711.2159999999999,890.981,894.731,896.606,900.356,906.581,1056.811,1060.561,1062.436,1066.186" svgx:width="0.61,0.67,0.88,0.72,0.55,0.5,0.55,0.5,0.25,0.5,0.83,0.55,0.5,0.25,0.5,0.83" style="fill:rgb(35,31,32);font-family:AdvPS6F00;font-size:7.5px;stroke:none;">ECMO 0 4.2% 2.1%</text>
   <text y="731.021" transform="matrix(0.0,-1.0,1.0,0.0,-241.48,1220.562)" rotateDegrees="-90" matrix="[0.0,7.4999,-7.4999,0.0,489.54123,59.845215]" x="489.541,494.75399999999996,498.10599999999994,500.99399999999997,504.743,508.493,510.90799999999996,514.261,517.1479999999999,520.0360000000001,523.7860000000001,526.2829999999999,529.1329999999999,716.481,720.231,723.981,725.855,729.605,735.83,899.996,903.746,907.496,909.371,913.1199999999999,919.3449999999999,1065.826,1069.576,1073.326,1075.201,1078.951" svgx:width="0.72,0.45,0.38,0.5,0.5,0.33,0.45,0.38,0.38,0.5,0.33,0.38,0.55,0.5,0.5,0.25,0.5,0.83,0.55,0.5,0.5,0.25,0.5,0.83,0.55,0.5,0.5,0.25,0.5,0.83" style="fill:rgb(35,31,32);font-family:AdvPS6F00;font-size:7.5px;stroke:none;">Vasopressors 58.6% 32.7% 35.3%</text>
   <text y="731.021" transform="matrix(0.0,-1.0,1.0,0.0,-232.465,1229.577)" rotateDegrees="-90" matrix="[0.0,7.4999,-7.4999,0.0,498.55612,59.845215]" x="498.556,503.3709999999999,506.724,510.474,513.826,515.926,518.221,521.108,524.858,528.608,532.358,536.108,538.606,540.706,725.4959999999999,730.8809999999999,734.6309999999999,736.8879999999999,738.9949999999999,742.7449999999999,745.2429999999999,748.9929999999999,751.49,757.348,760.588,762.6949999999999,764.8029999999999,768.5529999999999,772.3029999999999,909.011,912.761,914.636,918.386,924.611,1074.8329999999999,1078.5829999999999,1080.4579999999999,1084.2079999999999" svgx:width="0.67,0.45,0.5,0.45,0.28,0.55,0.38,0.5,0.5,0.5,0.5,0.33,0.28,0.55,0.72,0.5,0.55,0.28,0.5,0.33,0.5,0.33,0.78,0.45,0.28,0.28,0.5,0.5,0.55,0.5,0.25,0.5,0.83,0.55,0.5,0.25,0.5,0.83" style="fill:rgb(35,31,32);font-family:AdvPS6F00;font-size:7.5px;stroke:none;">Renal support No information 7.1% 5.3%</text>
   <text y="731.028" transform="matrix(0.0,-1.0,1.0,0.0,-223.517,1238.539)" rotateDegrees="-90" matrix="[0.0,7.4999,-7.4999,0.0,507.51102,59.837708]" x="507.511,514.1480000000001,517.8980000000001,520.396,522.5030000000002,525.855,527.963,530.0699999999999,532.1780000000001,535.9280000000001,734.45,738.2,741.95,743.825,747.575,753.8000000000001,756.1100000000001,759.3420000000001,761.4420000000001,763.7070000000001,767.4570000000001,771.2070000000001,773.4570000000001,777.2070000000001,780.3720000000001,784.0020000000001,786.8520000000001,917.965,921.715,925.465,927.34,931.09,937.315,939.625,942.797,944.897,947.162,950.912,954.662,956.912,960.662,963.8870000000001,967.4570000000001,970.344,972.4440000000001,974.7170000000001,978.4670000000001,982.2170000000001,984.0920000000001,987.8420000000001,994.0670000000001,996.377,999.609,1001.7090000000001,1003.974,1007.724,1011.474,1013.724,1017.474,1020.6390000000001,1024.269,1027.119,1083.795,1087.545,1091.295,1093.17,1096.92,1103.145,1105.455,1108.688,1110.788,1113.053,1116.803,1120.553,1122.8020000000001,1126.5520000000001,1129.717,1133.347" svgx:width="0.88,0.5,0.33,0.28,0.45,0.28,0.28,0.28,0.5,0.55,0.5,0.5,0.25,0.5,0.83,0.55,0.45,0.28,0.55,0.5,0.5,0.55,0.5,0.45,0.5,0.38,0.55,0.5,0.5,0.25,0.5,0.83,0.55,0.45,0.28,0.55,0.5,0.5,0.55,0.5,0.45,0.5,0.38,0.28,0.55,0.5,0.5,0.25,0.5,0.83,0.55,0.45,0.28,0.55,0.5,0.5,0.55,0.5,0.45,0.5,0.38,0.55,0.5,0.5,0.25,0.5,0.83,0.55,0.45,0.28,0.55,0.5,0.5,0.55,0.5,0.45,0.5,0.38" style="fill:rgb(35,31,32);font-family:AdvPS6F00;font-size:7.5px;stroke:none;">Mortality 41.4% at 60 days 14.3% at 28 days; 17.3% at 90 days 14.3% at 99 days</text>
   <text y="40.989" x="285.732,289.98,293.38,295.628,299.204" svgx:width="0.55,0.45,0.28,0.45,0.28" style="fill:rgb(35,31,32);font-family:AdvPS6F00;font-size:8.0px;stroke:none;">Patel</text>
   <text y="40.989" x="303.82,307.396,309.636,312.044,316.044,318.292" svgx:width="0.45,0.28,0.55,0.5,0.28,0.25" style="fill:rgb(35,31,32);font-family:AdvPS6F0B;font-size:8.0px;stroke:none;">et al.</text>
   <text y="767.225" x="295.88,300.63,305.38" svgx:width="0.5,0.5,0.5" style="fill:rgb(35,31,32);font-family:AdvPS6F00;font-size:9.5px;stroke:none;">134</text>
  </g>
 </g>
</svg>
